<?xml version="1.0" encoding="utf-8" standalone="no"?>
<!DOCTYPE svg PUBLIC "-//W3C//DTD SVG 1.1//EN"
  "http://www.w3.org/Graphics/SVG/1.1/DTD/svg11.dtd">
<svg xmlns:xlink="http://www.w3.org/1999/xlink" width="460.8pt" height="345.6pt" viewBox="0 0 460.8 345.6" xmlns="http://www.w3.org/2000/svg" version="1.1">
 <metadata>
  <rdf:RDF xmlns:dc="http://purl.org/dc/elements/1.1/" xmlns:cc="http://creativecommons.org/ns#" xmlns:rdf="http://www.w3.org/1999/02/22-rdf-syntax-ns#">
   <cc:Work>
    <dc:type rdf:resource="http://purl.org/dc/dcmitype/StillImage"/>
    <dc:date>2022-07-10T00:04:44.743631</dc:date>
    <dc:format>image/svg+xml</dc:format>
    <dc:creator>
     <cc:Agent>
      <dc:title>Matplotlib v3.5.2, https://matplotlib.org/</dc:title>
     </cc:Agent>
    </dc:creator>
   </cc:Work>
  </rdf:RDF>
 </metadata>
 <defs>
  <style type="text/css">*{stroke-linejoin: round; stroke-linecap: butt}</style>
 </defs>
 <g id="figure_1">
  <g id="patch_1">
   <path d="M 0 345.6 
L 460.8 345.6 
L 460.8 0 
L 0 0 
z
" style="fill: #ffffff"/>
  </g>
  <g id="axes_1">
   <g id="patch_2">
    <path d="M 57.6 87.353379 
L 414.72 87.353379 
L 414.72 41.472 
L 57.6 41.472 
z
" style="fill: #ffffff"/>
   </g>
   <g id="matplotlib.axis_1">
    <g id="xtick_1">
     <g id="line2d_1">
      <defs>
       <path id="m36868d9fb7" d="M 0 0 
L 0 3.5 
" style="stroke: #000000; stroke-width: 0.8"/>
      </defs>
      <g>
       <use xlink:href="#m36868d9fb7" x="73.832727" y="87.353379" style="stroke: #000000; stroke-width: 0.8"/>
      </g>
     </g>
    </g>
    <g id="xtick_2">
     <g id="line2d_2">
      <g>
       <use xlink:href="#m36868d9fb7" x="138.763636" y="87.353379" style="stroke: #000000; stroke-width: 0.8"/>
      </g>
     </g>
    </g>
    <g id="xtick_3">
     <g id="line2d_3">
      <g>
       <use xlink:href="#m36868d9fb7" x="203.694545" y="87.353379" style="stroke: #000000; stroke-width: 0.8"/>
      </g>
     </g>
    </g>
    <g id="xtick_4">
     <g id="line2d_4">
      <g>
       <use xlink:href="#m36868d9fb7" x="268.625455" y="87.353379" style="stroke: #000000; stroke-width: 0.8"/>
      </g>
     </g>
    </g>
    <g id="xtick_5">
     <g id="line2d_5">
      <g>
       <use xlink:href="#m36868d9fb7" x="333.556364" y="87.353379" style="stroke: #000000; stroke-width: 0.8"/>
      </g>
     </g>
    </g>
    <g id="xtick_6">
     <g id="line2d_6">
      <g>
       <use xlink:href="#m36868d9fb7" x="398.487273" y="87.353379" style="stroke: #000000; stroke-width: 0.8"/>
      </g>
     </g>
    </g>
   </g>
   <g id="matplotlib.axis_2">
    <g id="ytick_1">
     <g id="line2d_7">
      <defs>
       <path id="m78c313c736" d="M 0 0 
L -3.5 0 
" style="stroke: #000000; stroke-width: 0.8"/>
      </defs>
      <g>
       <use xlink:href="#m78c313c736" x="57.6" y="76.299125" style="stroke: #000000; stroke-width: 0.8"/>
      </g>
     </g>
     <g id="text_1">
      <!-- −2.5 -->
      <g transform="translate(26.317187 80.098344)scale(0.1 -0.1)">
       <defs>
        <path id="DejaVuSans-2212" d="M 678 2272 
L 4684 2272 
L 4684 1741 
L 678 1741 
L 678 2272 
z
" transform="scale(0.015625)"/>
        <path id="DejaVuSans-32" d="M 1228 531 
L 3431 531 
L 3431 0 
L 469 0 
L 469 531 
Q 828 903 1448 1529 
Q 2069 2156 2228 2338 
Q 2531 2678 2651 2914 
Q 2772 3150 2772 3378 
Q 2772 3750 2511 3984 
Q 2250 4219 1831 4219 
Q 1534 4219 1204 4116 
Q 875 4013 500 3803 
L 500 4441 
Q 881 4594 1212 4672 
Q 1544 4750 1819 4750 
Q 2544 4750 2975 4387 
Q 3406 4025 3406 3419 
Q 3406 3131 3298 2873 
Q 3191 2616 2906 2266 
Q 2828 2175 2409 1742 
Q 1991 1309 1228 531 
z
" transform="scale(0.015625)"/>
        <path id="DejaVuSans-2e" d="M 684 794 
L 1344 794 
L 1344 0 
L 684 0 
L 684 794 
z
" transform="scale(0.015625)"/>
        <path id="DejaVuSans-35" d="M 691 4666 
L 3169 4666 
L 3169 4134 
L 1269 4134 
L 1269 2991 
Q 1406 3038 1543 3061 
Q 1681 3084 1819 3084 
Q 2600 3084 3056 2656 
Q 3513 2228 3513 1497 
Q 3513 744 3044 326 
Q 2575 -91 1722 -91 
Q 1428 -91 1123 -41 
Q 819 9 494 109 
L 494 744 
Q 775 591 1075 516 
Q 1375 441 1709 441 
Q 2250 441 2565 725 
Q 2881 1009 2881 1497 
Q 2881 1984 2565 2268 
Q 2250 2553 1709 2553 
Q 1456 2553 1204 2497 
Q 953 2441 691 2322 
L 691 4666 
z
" transform="scale(0.015625)"/>
       </defs>
       <use xlink:href="#DejaVuSans-2212"/>
       <use xlink:href="#DejaVuSans-32" x="83.789062"/>
       <use xlink:href="#DejaVuSans-2e" x="147.412109"/>
       <use xlink:href="#DejaVuSans-35" x="179.199219"/>
      </g>
     </g>
    </g>
    <g id="ytick_2">
     <g id="line2d_8">
      <g>
       <use xlink:href="#m78c313c736" x="57.6" y="56.896414" style="stroke: #000000; stroke-width: 0.8"/>
      </g>
     </g>
     <g id="text_2">
      <!-- 0.0 -->
      <g transform="translate(34.696875 60.695633)scale(0.1 -0.1)">
       <defs>
        <path id="DejaVuSans-30" d="M 2034 4250 
Q 1547 4250 1301 3770 
Q 1056 3291 1056 2328 
Q 1056 1369 1301 889 
Q 1547 409 2034 409 
Q 2525 409 2770 889 
Q 3016 1369 3016 2328 
Q 3016 3291 2770 3770 
Q 2525 4250 2034 4250 
z
M 2034 4750 
Q 2819 4750 3233 4129 
Q 3647 3509 3647 2328 
Q 3647 1150 3233 529 
Q 2819 -91 2034 -91 
Q 1250 -91 836 529 
Q 422 1150 422 2328 
Q 422 3509 836 4129 
Q 1250 4750 2034 4750 
z
" transform="scale(0.015625)"/>
       </defs>
       <use xlink:href="#DejaVuSans-30"/>
       <use xlink:href="#DejaVuSans-2e" x="63.623047"/>
       <use xlink:href="#DejaVuSans-30" x="95.410156"/>
      </g>
     </g>
    </g>
    <g id="text_3">
     <!-- flow rate (normalized) -->
     <g transform="translate(20.2375 119.729877)rotate(-90)scale(0.1 -0.1)">
      <defs>
       <path id="DejaVuSans-66" d="M 2375 4863 
L 2375 4384 
L 1825 4384 
Q 1516 4384 1395 4259 
Q 1275 4134 1275 3809 
L 1275 3500 
L 2222 3500 
L 2222 3053 
L 1275 3053 
L 1275 0 
L 697 0 
L 697 3053 
L 147 3053 
L 147 3500 
L 697 3500 
L 697 3744 
Q 697 4328 969 4595 
Q 1241 4863 1831 4863 
L 2375 4863 
z
" transform="scale(0.015625)"/>
       <path id="DejaVuSans-6c" d="M 603 4863 
L 1178 4863 
L 1178 0 
L 603 0 
L 603 4863 
z
" transform="scale(0.015625)"/>
       <path id="DejaVuSans-6f" d="M 1959 3097 
Q 1497 3097 1228 2736 
Q 959 2375 959 1747 
Q 959 1119 1226 758 
Q 1494 397 1959 397 
Q 2419 397 2687 759 
Q 2956 1122 2956 1747 
Q 2956 2369 2687 2733 
Q 2419 3097 1959 3097 
z
M 1959 3584 
Q 2709 3584 3137 3096 
Q 3566 2609 3566 1747 
Q 3566 888 3137 398 
Q 2709 -91 1959 -91 
Q 1206 -91 779 398 
Q 353 888 353 1747 
Q 353 2609 779 3096 
Q 1206 3584 1959 3584 
z
" transform="scale(0.015625)"/>
       <path id="DejaVuSans-77" d="M 269 3500 
L 844 3500 
L 1563 769 
L 2278 3500 
L 2956 3500 
L 3675 769 
L 4391 3500 
L 4966 3500 
L 4050 0 
L 3372 0 
L 2619 2869 
L 1863 0 
L 1184 0 
L 269 3500 
z
" transform="scale(0.015625)"/>
       <path id="DejaVuSans-20" transform="scale(0.015625)"/>
       <path id="DejaVuSans-72" d="M 2631 2963 
Q 2534 3019 2420 3045 
Q 2306 3072 2169 3072 
Q 1681 3072 1420 2755 
Q 1159 2438 1159 1844 
L 1159 0 
L 581 0 
L 581 3500 
L 1159 3500 
L 1159 2956 
Q 1341 3275 1631 3429 
Q 1922 3584 2338 3584 
Q 2397 3584 2469 3576 
Q 2541 3569 2628 3553 
L 2631 2963 
z
" transform="scale(0.015625)"/>
       <path id="DejaVuSans-61" d="M 2194 1759 
Q 1497 1759 1228 1600 
Q 959 1441 959 1056 
Q 959 750 1161 570 
Q 1363 391 1709 391 
Q 2188 391 2477 730 
Q 2766 1069 2766 1631 
L 2766 1759 
L 2194 1759 
z
M 3341 1997 
L 3341 0 
L 2766 0 
L 2766 531 
Q 2569 213 2275 61 
Q 1981 -91 1556 -91 
Q 1019 -91 701 211 
Q 384 513 384 1019 
Q 384 1609 779 1909 
Q 1175 2209 1959 2209 
L 2766 2209 
L 2766 2266 
Q 2766 2663 2505 2880 
Q 2244 3097 1772 3097 
Q 1472 3097 1187 3025 
Q 903 2953 641 2809 
L 641 3341 
Q 956 3463 1253 3523 
Q 1550 3584 1831 3584 
Q 2591 3584 2966 3190 
Q 3341 2797 3341 1997 
z
" transform="scale(0.015625)"/>
       <path id="DejaVuSans-74" d="M 1172 4494 
L 1172 3500 
L 2356 3500 
L 2356 3053 
L 1172 3053 
L 1172 1153 
Q 1172 725 1289 603 
Q 1406 481 1766 481 
L 2356 481 
L 2356 0 
L 1766 0 
Q 1100 0 847 248 
Q 594 497 594 1153 
L 594 3053 
L 172 3053 
L 172 3500 
L 594 3500 
L 594 4494 
L 1172 4494 
z
" transform="scale(0.015625)"/>
       <path id="DejaVuSans-65" d="M 3597 1894 
L 3597 1613 
L 953 1613 
Q 991 1019 1311 708 
Q 1631 397 2203 397 
Q 2534 397 2845 478 
Q 3156 559 3463 722 
L 3463 178 
Q 3153 47 2828 -22 
Q 2503 -91 2169 -91 
Q 1331 -91 842 396 
Q 353 884 353 1716 
Q 353 2575 817 3079 
Q 1281 3584 2069 3584 
Q 2775 3584 3186 3129 
Q 3597 2675 3597 1894 
z
M 3022 2063 
Q 3016 2534 2758 2815 
Q 2500 3097 2075 3097 
Q 1594 3097 1305 2825 
Q 1016 2553 972 2059 
L 3022 2063 
z
" transform="scale(0.015625)"/>
       <path id="DejaVuSans-28" d="M 1984 4856 
Q 1566 4138 1362 3434 
Q 1159 2731 1159 2009 
Q 1159 1288 1364 580 
Q 1569 -128 1984 -844 
L 1484 -844 
Q 1016 -109 783 600 
Q 550 1309 550 2009 
Q 550 2706 781 3412 
Q 1013 4119 1484 4856 
L 1984 4856 
z
" transform="scale(0.015625)"/>
       <path id="DejaVuSans-6e" d="M 3513 2113 
L 3513 0 
L 2938 0 
L 2938 2094 
Q 2938 2591 2744 2837 
Q 2550 3084 2163 3084 
Q 1697 3084 1428 2787 
Q 1159 2491 1159 1978 
L 1159 0 
L 581 0 
L 581 3500 
L 1159 3500 
L 1159 2956 
Q 1366 3272 1645 3428 
Q 1925 3584 2291 3584 
Q 2894 3584 3203 3211 
Q 3513 2838 3513 2113 
z
" transform="scale(0.015625)"/>
       <path id="DejaVuSans-6d" d="M 3328 2828 
Q 3544 3216 3844 3400 
Q 4144 3584 4550 3584 
Q 5097 3584 5394 3201 
Q 5691 2819 5691 2113 
L 5691 0 
L 5113 0 
L 5113 2094 
Q 5113 2597 4934 2840 
Q 4756 3084 4391 3084 
Q 3944 3084 3684 2787 
Q 3425 2491 3425 1978 
L 3425 0 
L 2847 0 
L 2847 2094 
Q 2847 2600 2669 2842 
Q 2491 3084 2119 3084 
Q 1678 3084 1418 2786 
Q 1159 2488 1159 1978 
L 1159 0 
L 581 0 
L 581 3500 
L 1159 3500 
L 1159 2956 
Q 1356 3278 1631 3431 
Q 1906 3584 2284 3584 
Q 2666 3584 2933 3390 
Q 3200 3197 3328 2828 
z
" transform="scale(0.015625)"/>
       <path id="DejaVuSans-69" d="M 603 3500 
L 1178 3500 
L 1178 0 
L 603 0 
L 603 3500 
z
M 603 4863 
L 1178 4863 
L 1178 4134 
L 603 4134 
L 603 4863 
z
" transform="scale(0.015625)"/>
       <path id="DejaVuSans-7a" d="M 353 3500 
L 3084 3500 
L 3084 2975 
L 922 459 
L 3084 459 
L 3084 0 
L 275 0 
L 275 525 
L 2438 3041 
L 353 3041 
L 353 3500 
z
" transform="scale(0.015625)"/>
       <path id="DejaVuSans-64" d="M 2906 2969 
L 2906 4863 
L 3481 4863 
L 3481 0 
L 2906 0 
L 2906 525 
Q 2725 213 2448 61 
Q 2172 -91 1784 -91 
Q 1150 -91 751 415 
Q 353 922 353 1747 
Q 353 2572 751 3078 
Q 1150 3584 1784 3584 
Q 2172 3584 2448 3432 
Q 2725 3281 2906 2969 
z
M 947 1747 
Q 947 1113 1208 752 
Q 1469 391 1925 391 
Q 2381 391 2643 752 
Q 2906 1113 2906 1747 
Q 2906 2381 2643 2742 
Q 2381 3103 1925 3103 
Q 1469 3103 1208 2742 
Q 947 2381 947 1747 
z
" transform="scale(0.015625)"/>
       <path id="DejaVuSans-29" d="M 513 4856 
L 1013 4856 
Q 1481 4119 1714 3412 
Q 1947 2706 1947 2009 
Q 1947 1309 1714 600 
Q 1481 -109 1013 -844 
L 513 -844 
Q 928 -128 1133 580 
Q 1338 1288 1338 2009 
Q 1338 2731 1133 3434 
Q 928 4138 513 4856 
z
" transform="scale(0.015625)"/>
      </defs>
      <use xlink:href="#DejaVuSans-66"/>
      <use xlink:href="#DejaVuSans-6c" x="35.205078"/>
      <use xlink:href="#DejaVuSans-6f" x="62.988281"/>
      <use xlink:href="#DejaVuSans-77" x="124.169922"/>
      <use xlink:href="#DejaVuSans-20" x="205.957031"/>
      <use xlink:href="#DejaVuSans-72" x="237.744141"/>
      <use xlink:href="#DejaVuSans-61" x="278.857422"/>
      <use xlink:href="#DejaVuSans-74" x="340.136719"/>
      <use xlink:href="#DejaVuSans-65" x="379.345703"/>
      <use xlink:href="#DejaVuSans-20" x="440.869141"/>
      <use xlink:href="#DejaVuSans-28" x="472.65625"/>
      <use xlink:href="#DejaVuSans-6e" x="511.669922"/>
      <use xlink:href="#DejaVuSans-6f" x="575.048828"/>
      <use xlink:href="#DejaVuSans-72" x="636.230469"/>
      <use xlink:href="#DejaVuSans-6d" x="675.59375"/>
      <use xlink:href="#DejaVuSans-61" x="773.005859"/>
      <use xlink:href="#DejaVuSans-6c" x="834.285156"/>
      <use xlink:href="#DejaVuSans-69" x="862.068359"/>
      <use xlink:href="#DejaVuSans-7a" x="889.851562"/>
      <use xlink:href="#DejaVuSans-65" x="942.341797"/>
      <use xlink:href="#DejaVuSans-64" x="1003.865234"/>
      <use xlink:href="#DejaVuSans-29" x="1067.341797"/>
     </g>
    </g>
   </g>
   <g id="line2d_9">
    <path d="M 73.832727 56.917768 
L 77.079273 49.994263 
L 80.325818 54.140932 
L 83.572364 55.539491 
L 86.818909 56.172964 
L 90.065455 56.491552 
L 93.312 56.652893 
L 96.558545 56.756568 
L 99.805091 56.810836 
L 103.051636 56.842707 
L 106.298182 56.863135 
L 109.544727 56.875213 
L 112.791273 56.885669 
L 116.037818 56.891386 
L 119.284364 56.892666 
L 122.530909 56.893849 
L 125.777455 49.153225 
L 129.024 49.152321 
L 132.270545 49.151637 
L 135.517091 49.151054 
L 138.763636 49.150505 
L 142.010182 49.149954 
L 145.256727 49.149377 
L 148.503273 49.14875 
L 151.749818 49.148053 
L 154.996364 49.147275 
L 158.242909 49.146408 
L 161.489455 49.145448 
L 164.736 49.144399 
L 167.982545 49.143258 
L 171.229091 49.415945 
L 174.475636 54.870596 
L 177.722182 54.618821 
L 180.968727 54.333557 
L 184.215273 54.097676 
L 187.461818 53.884888 
L 190.708364 54.041761 
L 193.954909 54.39934 
L 197.201455 54.862708 
L 200.448 55.354958 
L 203.694545 55.774677 
L 206.941091 56.113611 
L 210.187636 56.362823 
L 213.434182 56.539185 
L 216.680727 56.661524 
L 219.927273 56.742963 
L 223.173818 56.795376 
L 226.420364 56.830537 
L 229.666909 56.853327 
L 232.913455 56.8684 
L 236.16 56.877986 
L 239.406545 56.8839 
L 242.653091 56.887647 
L 245.899636 56.890563 
L 249.146182 56.892321 
L 252.392727 56.893763 
L 255.639273 56.894555 
L 258.885818 56.895244 
L 262.132364 56.895708 
L 265.378909 56.895993 
L 268.625455 56.965368 
L 271.872 62.11261 
L 275.118545 65.418737 
L 278.365091 67.556401 
L 281.611636 68.358074 
L 284.858182 68.110717 
L 288.104727 67.289732 
L 291.351273 66.228472 
L 294.597818 65.109405 
L 297.844364 64.041838 
L 301.090909 63.044329 
L 304.337455 62.145631 
L 307.584 61.350438 
L 310.830545 60.656825 
L 314.077091 60.052421 
L 317.323636 59.543064 
L 320.570182 59.100983 
L 323.816727 58.726927 
L 327.063273 58.413061 
L 330.309818 58.150434 
L 333.556364 57.931223 
L 336.802909 57.749079 
L 340.049455 57.598051 
L 343.296 57.473111 
L 346.542545 57.37089 
L 349.789091 57.28661 
L 353.035636 57.217494 
L 356.282182 57.160011 
L 359.528727 57.113086 
L 362.775273 57.074212 
L 366.021818 57.042379 
L 369.268364 57.016358 
L 372.514909 56.995425 
L 375.761455 56.977908 
L 379.008 56.96389 
L 382.254545 56.952332 
L 385.501091 56.942426 
L 388.747636 56.934633 
L 391.994182 56.928019 
L 395.240727 56.922292 
L 398.487273 56.917513 
" clip-path="url(#pf28f9477b0)" style="fill: none; stroke: #1f77b4; stroke-width: 1.5; stroke-linecap: square"/>
   </g>
   <g id="line2d_10">
    <path d="M 73.832727 56.932076 
L 77.079273 43.557517 
L 80.325818 51.54916 
L 83.572364 54.260312 
L 86.818909 55.489996 
L 90.065455 56.108744 
L 93.312 56.422093 
L 96.558545 56.624228 
L 99.805091 56.729721 
L 103.051636 56.791754 
L 106.298182 56.831576 
L 109.544727 56.85511 
L 112.791273 56.875539 
L 116.037818 56.886683 
L 119.284364 56.889081 
L 122.530909 56.882595 
L 125.777455 49.151556 
L 129.024 49.148163 
L 132.270545 49.145262 
L 135.517091 49.142822 
L 138.763636 49.140797 
L 142.010182 49.139148 
L 145.256727 49.137828 
L 148.503273 49.136788 
L 151.749818 49.135972 
L 154.996364 49.135334 
L 158.242909 49.134833 
L 161.489455 49.134442 
L 164.736 49.134141 
L 167.982545 49.133906 
L 171.229091 50.101831 
L 174.475636 56.530394 
L 177.722182 56.489233 
L 180.968727 56.443538 
L 184.215273 56.406856 
L 187.461818 56.372752 
L 190.708364 56.40205 
L 193.954909 56.464728 
L 197.201455 56.544907 
L 200.448 56.629909 
L 203.694545 56.702282 
L 206.941091 56.760786 
L 210.187636 56.803889 
L 213.434182 56.834399 
L 216.680727 56.855598 
L 219.927273 56.869719 
L 223.173818 56.878811 
L 226.420364 56.884922 
L 229.666909 56.888885 
L 232.913455 56.891506 
L 236.16 56.893173 
L 239.406545 56.894201 
L 242.653091 56.894853 
L 245.899636 56.895361 
L 249.146182 56.895668 
L 252.392727 56.895918 
L 255.639273 56.896056 
L 258.885818 56.896176 
L 262.132364 56.896257 
L 265.378909 56.896307 
L 268.625455 57.105654 
L 271.872 67.423248 
L 275.118545 74.851356 
L 278.365091 80.840561 
L 281.611636 84.413539 
L 284.858182 85.267862 
L 288.104727 84.026832 
L 291.351273 81.481984 
L 294.597818 78.339296 
L 297.844364 75.106345 
L 301.090909 72.0318 
L 304.337455 69.309358 
L 307.584 66.989355 
L 310.830545 65.073169 
L 314.077091 63.484139 
L 317.323636 62.232163 
L 320.570182 61.195356 
L 323.816727 60.362292 
L 327.063273 59.696176 
L 330.309818 59.162446 
L 333.556364 58.733168 
L 336.802909 58.387493 
L 340.049455 58.107671 
L 343.296 57.881052 
L 346.542545 57.699981 
L 349.789091 57.551914 
L 353.035636 57.432959 
L 356.282182 57.334765 
L 359.528727 57.255566 
L 362.775273 57.190173 
L 366.021818 57.137049 
L 369.268364 57.09383 
L 372.514909 57.059319 
L 375.761455 57.030324 
L 379.008 57.007328 
L 382.254545 56.988462 
L 385.501091 56.972287 
L 388.747636 56.959624 
L 391.994182 56.948853 
L 395.240727 56.939482 
L 398.487273 56.931663 
" clip-path="url(#pf28f9477b0)" style="fill: none; stroke: #ff7f0e; stroke-width: 1.5; stroke-linecap: square"/>
   </g>
   <g id="line2d_11">
    <path d="M 73.832727 56.898443 
L 77.079273 56.109267 
L 80.325818 56.582574 
L 83.572364 56.741886 
L 86.818909 56.814038 
L 90.065455 56.85033 
L 93.312 56.868715 
L 96.558545 56.880494 
L 99.805091 56.886675 
L 103.051636 56.890302 
L 106.298182 56.892624 
L 109.544727 56.893997 
L 112.791273 56.895184 
L 116.037818 56.895834 
L 119.284364 56.895985 
L 122.530909 56.901524 
L 125.777455 49.150455 
L 129.024 49.149679 
L 132.270545 49.149155 
L 135.517091 49.148729 
L 138.763636 49.148342 
L 142.010182 49.147967 
L 145.256727 49.147591 
L 148.503273 49.147206 
L 151.749818 49.146805 
L 154.996364 49.146389 
L 158.242909 49.145958 
L 161.489455 49.145513 
L 164.736 49.145054 
L 167.982545 49.144578 
L 171.229091 49.172477 
L 174.475636 53.367483 
L 177.722182 52.882526 
L 180.968727 52.321108 
L 184.215273 51.84405 
L 187.461818 51.416599 
L 190.708364 51.678527 
L 193.954909 52.324443 
L 197.201455 53.173895 
L 200.448 54.079287 
L 203.694545 54.850783 
L 206.941091 55.472498 
L 210.187636 55.927772 
L 213.434182 56.249387 
L 216.680727 56.471767 
L 219.927273 56.619496 
L 223.173818 56.714386 
L 226.420364 56.777894 
L 229.666909 56.818979 
L 232.913455 56.84614 
L 236.16 56.863414 
L 239.406545 56.874055 
L 242.653091 56.880789 
L 245.899636 56.886024 
L 249.146182 56.889177 
L 252.392727 56.891769 
L 255.639273 56.89319 
L 258.885818 56.894428 
L 262.132364 56.89526 
L 265.378909 56.895769 
L 268.625455 56.902737 
L 271.872 57.483116 
L 275.118545 57.845325 
L 278.365091 58.064352 
L 281.611636 58.133166 
L 284.858182 58.093249 
L 288.104727 57.998377 
L 291.351273 57.883159 
L 294.597818 57.764912 
L 297.844364 57.653919 
L 301.090909 57.550965 
L 304.337455 57.458402 
L 307.584 57.376391 
L 310.830545 57.30433 
L 314.077091 57.24124 
L 317.323636 57.187515 
L 320.570182 57.140539 
L 323.816727 57.100372 
L 327.063273 57.066344 
L 330.309818 57.037615 
L 333.556364 57.013397 
L 336.802909 56.993115 
L 340.049455 56.976206 
L 343.296 56.962143 
L 346.542545 56.950561 
L 349.789091 56.940975 
L 353.035636 56.933069 
L 356.282182 56.926476 
L 359.528727 56.921078 
L 362.775273 56.916604 
L 366.021818 56.912928 
L 369.268364 56.909917 
L 372.514909 56.90749 
L 375.761455 56.90546 
L 379.008 56.903832 
L 382.254545 56.902487 
L 385.501091 56.901336 
L 388.747636 56.900428 
L 391.994182 56.899659 
L 395.240727 56.898993 
L 398.487273 56.898437 
" clip-path="url(#pf28f9477b0)" style="fill: none; stroke: #2ca02c; stroke-width: 1.5; stroke-linecap: square"/>
   </g>
   <g id="patch_3">
    <path d="M 57.6 87.353379 
L 57.6 41.472 
" style="fill: none; stroke: #000000; stroke-width: 0.8; stroke-linejoin: miter; stroke-linecap: square"/>
   </g>
   <g id="patch_4">
    <path d="M 414.72 87.353379 
L 414.72 41.472 
" style="fill: none; stroke: #000000; stroke-width: 0.8; stroke-linejoin: miter; stroke-linecap: square"/>
   </g>
   <g id="patch_5">
    <path d="M 57.6 87.353379 
L 414.72 87.353379 
" style="fill: none; stroke: #000000; stroke-width: 0.8; stroke-linejoin: miter; stroke-linecap: square"/>
   </g>
   <g id="patch_6">
    <path d="M 57.6 41.472 
L 414.72 41.472 
" style="fill: none; stroke: #000000; stroke-width: 0.8; stroke-linejoin: miter; stroke-linecap: square"/>
   </g>
   <g id="text_4">
    <!-- velocity vs time (container 1)   -->
    <g transform="translate(144.106875 35.472)scale(0.12 -0.12)">
     <defs>
      <path id="DejaVuSans-76" d="M 191 3500 
L 800 3500 
L 1894 563 
L 2988 3500 
L 3597 3500 
L 2284 0 
L 1503 0 
L 191 3500 
z
" transform="scale(0.015625)"/>
      <path id="DejaVuSans-63" d="M 3122 3366 
L 3122 2828 
Q 2878 2963 2633 3030 
Q 2388 3097 2138 3097 
Q 1578 3097 1268 2742 
Q 959 2388 959 1747 
Q 959 1106 1268 751 
Q 1578 397 2138 397 
Q 2388 397 2633 464 
Q 2878 531 3122 666 
L 3122 134 
Q 2881 22 2623 -34 
Q 2366 -91 2075 -91 
Q 1284 -91 818 406 
Q 353 903 353 1747 
Q 353 2603 823 3093 
Q 1294 3584 2113 3584 
Q 2378 3584 2631 3529 
Q 2884 3475 3122 3366 
z
" transform="scale(0.015625)"/>
      <path id="DejaVuSans-79" d="M 2059 -325 
Q 1816 -950 1584 -1140 
Q 1353 -1331 966 -1331 
L 506 -1331 
L 506 -850 
L 844 -850 
Q 1081 -850 1212 -737 
Q 1344 -625 1503 -206 
L 1606 56 
L 191 3500 
L 800 3500 
L 1894 763 
L 2988 3500 
L 3597 3500 
L 2059 -325 
z
" transform="scale(0.015625)"/>
      <path id="DejaVuSans-73" d="M 2834 3397 
L 2834 2853 
Q 2591 2978 2328 3040 
Q 2066 3103 1784 3103 
Q 1356 3103 1142 2972 
Q 928 2841 928 2578 
Q 928 2378 1081 2264 
Q 1234 2150 1697 2047 
L 1894 2003 
Q 2506 1872 2764 1633 
Q 3022 1394 3022 966 
Q 3022 478 2636 193 
Q 2250 -91 1575 -91 
Q 1294 -91 989 -36 
Q 684 19 347 128 
L 347 722 
Q 666 556 975 473 
Q 1284 391 1588 391 
Q 1994 391 2212 530 
Q 2431 669 2431 922 
Q 2431 1156 2273 1281 
Q 2116 1406 1581 1522 
L 1381 1569 
Q 847 1681 609 1914 
Q 372 2147 372 2553 
Q 372 3047 722 3315 
Q 1072 3584 1716 3584 
Q 2034 3584 2315 3537 
Q 2597 3491 2834 3397 
z
" transform="scale(0.015625)"/>
      <path id="DejaVuSans-31" d="M 794 531 
L 1825 531 
L 1825 4091 
L 703 3866 
L 703 4441 
L 1819 4666 
L 2450 4666 
L 2450 531 
L 3481 531 
L 3481 0 
L 794 0 
L 794 531 
z
" transform="scale(0.015625)"/>
     </defs>
     <use xlink:href="#DejaVuSans-76"/>
     <use xlink:href="#DejaVuSans-65" x="59.179688"/>
     <use xlink:href="#DejaVuSans-6c" x="120.703125"/>
     <use xlink:href="#DejaVuSans-6f" x="148.486328"/>
     <use xlink:href="#DejaVuSans-63" x="209.667969"/>
     <use xlink:href="#DejaVuSans-69" x="264.648438"/>
     <use xlink:href="#DejaVuSans-74" x="292.431641"/>
     <use xlink:href="#DejaVuSans-79" x="331.640625"/>
     <use xlink:href="#DejaVuSans-20" x="390.820312"/>
     <use xlink:href="#DejaVuSans-76" x="422.607422"/>
     <use xlink:href="#DejaVuSans-73" x="481.787109"/>
     <use xlink:href="#DejaVuSans-20" x="533.886719"/>
     <use xlink:href="#DejaVuSans-74" x="565.673828"/>
     <use xlink:href="#DejaVuSans-69" x="604.882812"/>
     <use xlink:href="#DejaVuSans-6d" x="632.666016"/>
     <use xlink:href="#DejaVuSans-65" x="730.078125"/>
     <use xlink:href="#DejaVuSans-20" x="791.601562"/>
     <use xlink:href="#DejaVuSans-28" x="823.388672"/>
     <use xlink:href="#DejaVuSans-63" x="862.402344"/>
     <use xlink:href="#DejaVuSans-6f" x="917.382812"/>
     <use xlink:href="#DejaVuSans-6e" x="978.564453"/>
     <use xlink:href="#DejaVuSans-74" x="1041.943359"/>
     <use xlink:href="#DejaVuSans-61" x="1081.152344"/>
     <use xlink:href="#DejaVuSans-69" x="1142.431641"/>
     <use xlink:href="#DejaVuSans-6e" x="1170.214844"/>
     <use xlink:href="#DejaVuSans-65" x="1233.59375"/>
     <use xlink:href="#DejaVuSans-72" x="1295.117188"/>
     <use xlink:href="#DejaVuSans-20" x="1336.230469"/>
     <use xlink:href="#DejaVuSans-31" x="1368.017578"/>
     <use xlink:href="#DejaVuSans-29" x="1431.640625"/>
     <use xlink:href="#DejaVuSans-20" x="1470.654297"/>
     <use xlink:href="#DejaVuSans-20" x="1502.441406"/>
    </g>
   </g>
   <g id="legend_1">
    <g id="patch_7">
     <path d="M 64.6 93.506375 
L 139.240625 93.506375 
Q 141.240625 93.506375 141.240625 91.506375 
L 141.240625 48.472 
Q 141.240625 46.472 139.240625 46.472 
L 64.6 46.472 
Q 62.6 46.472 62.6 48.472 
L 62.6 91.506375 
Q 62.6 93.506375 64.6 93.506375 
z
" style="fill: #ffffff; opacity: 0.8; stroke: #cccccc; stroke-linejoin: miter"/>
    </g>
    <g id="line2d_12">
     <path d="M 66.6 54.570437 
L 76.6 54.570437 
L 86.6 54.570437 
" style="fill: none; stroke: #1f77b4; stroke-width: 1.5; stroke-linecap: square"/>
    </g>
    <g id="text_5">
     <!-- mid flow -->
     <g transform="translate(94.6 58.070437)scale(0.1 -0.1)">
      <use xlink:href="#DejaVuSans-6d"/>
      <use xlink:href="#DejaVuSans-69" x="97.412109"/>
      <use xlink:href="#DejaVuSans-64" x="125.195312"/>
      <use xlink:href="#DejaVuSans-20" x="188.671875"/>
      <use xlink:href="#DejaVuSans-66" x="220.458984"/>
      <use xlink:href="#DejaVuSans-6c" x="255.664062"/>
      <use xlink:href="#DejaVuSans-6f" x="283.447266"/>
      <use xlink:href="#DejaVuSans-77" x="344.628906"/>
     </g>
    </g>
    <g id="line2d_13">
     <path d="M 66.6 69.248562 
L 76.6 69.248562 
L 86.6 69.248562 
" style="fill: none; stroke: #ff7f0e; stroke-width: 1.5; stroke-linecap: square"/>
    </g>
    <g id="text_6">
     <!-- v0 flow -->
     <g transform="translate(94.6 72.748562)scale(0.1 -0.1)">
      <use xlink:href="#DejaVuSans-76"/>
      <use xlink:href="#DejaVuSans-30" x="59.179688"/>
      <use xlink:href="#DejaVuSans-20" x="122.802734"/>
      <use xlink:href="#DejaVuSans-66" x="154.589844"/>
      <use xlink:href="#DejaVuSans-6c" x="189.794922"/>
      <use xlink:href="#DejaVuSans-6f" x="217.578125"/>
      <use xlink:href="#DejaVuSans-77" x="278.759766"/>
     </g>
    </g>
    <g id="line2d_14">
     <path d="M 66.6 83.926687 
L 76.6 83.926687 
L 86.6 83.926687 
" style="fill: none; stroke: #2ca02c; stroke-width: 1.5; stroke-linecap: square"/>
    </g>
    <g id="text_7">
     <!-- vN flow -->
     <g transform="translate(94.6 87.426687)scale(0.1 -0.1)">
      <defs>
       <path id="DejaVuSans-4e" d="M 628 4666 
L 1478 4666 
L 3547 763 
L 3547 4666 
L 4159 4666 
L 4159 0 
L 3309 0 
L 1241 3903 
L 1241 0 
L 628 0 
L 628 4666 
z
" transform="scale(0.015625)"/>
      </defs>
      <use xlink:href="#DejaVuSans-76"/>
      <use xlink:href="#DejaVuSans-4e" x="59.179688"/>
      <use xlink:href="#DejaVuSans-20" x="133.984375"/>
      <use xlink:href="#DejaVuSans-66" x="165.771484"/>
      <use xlink:href="#DejaVuSans-6c" x="200.976562"/>
      <use xlink:href="#DejaVuSans-6f" x="228.759766"/>
      <use xlink:href="#DejaVuSans-77" x="289.941406"/>
     </g>
    </g>
   </g>
  </g>
  <g id="axes_2">
   <g id="patch_8">
    <path d="M 57.6 142.411034 
L 414.72 142.411034 
L 414.72 96.529655 
L 57.6 96.529655 
z
" style="fill: #ffffff"/>
   </g>
   <g id="matplotlib.axis_3">
    <g id="xtick_7">
     <g id="line2d_15">
      <g>
       <use xlink:href="#m36868d9fb7" x="73.832727" y="142.411034" style="stroke: #000000; stroke-width: 0.8"/>
      </g>
     </g>
    </g>
    <g id="xtick_8">
     <g id="line2d_16">
      <g>
       <use xlink:href="#m36868d9fb7" x="138.763636" y="142.411034" style="stroke: #000000; stroke-width: 0.8"/>
      </g>
     </g>
    </g>
    <g id="xtick_9">
     <g id="line2d_17">
      <g>
       <use xlink:href="#m36868d9fb7" x="203.694545" y="142.411034" style="stroke: #000000; stroke-width: 0.8"/>
      </g>
     </g>
    </g>
    <g id="xtick_10">
     <g id="line2d_18">
      <g>
       <use xlink:href="#m36868d9fb7" x="268.625455" y="142.411034" style="stroke: #000000; stroke-width: 0.8"/>
      </g>
     </g>
    </g>
    <g id="xtick_11">
     <g id="line2d_19">
      <g>
       <use xlink:href="#m36868d9fb7" x="333.556364" y="142.411034" style="stroke: #000000; stroke-width: 0.8"/>
      </g>
     </g>
    </g>
    <g id="xtick_12">
     <g id="line2d_20">
      <g>
       <use xlink:href="#m36868d9fb7" x="398.487273" y="142.411034" style="stroke: #000000; stroke-width: 0.8"/>
      </g>
     </g>
    </g>
   </g>
   <g id="matplotlib.axis_4">
    <g id="ytick_3">
     <g id="line2d_21">
      <g>
       <use xlink:href="#m78c313c736" x="57.6" y="140.745276" style="stroke: #000000; stroke-width: 0.8"/>
      </g>
     </g>
     <g id="text_8">
      <!-- 0 -->
      <g transform="translate(44.2375 144.544495)scale(0.1 -0.1)">
       <use xlink:href="#DejaVuSans-30"/>
      </g>
     </g>
    </g>
    <g id="ytick_4">
     <g id="line2d_22">
      <g>
       <use xlink:href="#m78c313c736" x="57.6" y="98.771249" style="stroke: #000000; stroke-width: 0.8"/>
      </g>
     </g>
     <g id="text_9">
      <!-- 1 -->
      <g transform="translate(44.2375 102.570468)scale(0.1 -0.1)">
       <use xlink:href="#DejaVuSans-31"/>
      </g>
     </g>
    </g>
   </g>
   <g id="line2d_23">
    <path d="M 73.832727 140.325517 
L 77.079273 123.982826 
L 80.325818 114.061309 
L 83.572364 108.042903 
L 86.818909 104.394321 
L 90.065455 102.182735 
L 93.312 100.837488 
L 96.558545 100.026237 
L 99.805091 99.537809 
L 103.051636 99.235676 
L 106.298182 99.05487 
L 109.544727 98.944687 
L 112.791273 98.869832 
L 116.037818 98.831005 
L 119.284364 98.804256 
L 122.530909 98.794152 
L 125.777455 98.615419 
L 129.024 98.615394 
L 132.270545 98.615372 
L 135.517091 98.615352 
L 138.763636 98.615332 
L 142.010182 98.615314 
L 145.256727 98.615296 
L 148.503273 98.615278 
L 151.749818 98.61526 
L 154.996364 98.615242 
L 158.242909 98.615225 
L 161.489455 98.615207 
L 164.736 98.61519 
L 167.982545 98.615172 
L 171.229091 98.624577 
L 174.475636 113.598405 
L 177.722182 122.609303 
L 180.968727 128.070221 
L 184.215273 131.385275 
L 187.461818 133.393534 
L 190.708364 134.612855 
L 193.954909 135.359443 
L 197.201455 135.817458 
L 200.448 136.099006 
L 203.694545 136.271462 
L 206.941091 136.378539 
L 210.187636 136.443938 
L 213.434182 136.48429 
L 216.680727 136.508945 
L 219.927273 136.5239 
L 223.173818 136.533226 
L 226.420364 136.538938 
L 229.666909 136.542359 
L 232.913455 136.544486 
L 236.16 136.545754 
L 239.406545 136.546561 
L 242.653091 136.547048 
L 245.899636 136.547378 
L 249.146182 136.547551 
L 252.392727 136.547693 
L 255.639273 136.547749 
L 258.885818 136.5478 
L 262.132364 136.547829 
L 265.378909 136.547847 
L 268.625455 136.550289 
L 271.872 138.028158 
L 275.118545 138.925333 
L 278.365091 139.467249 
L 281.611636 139.797012 
L 284.858182 139.996984 
L 288.104727 140.119168 
L 291.351273 140.194925 
L 294.597818 140.242116 
L 297.844364 140.271783 
L 301.090909 140.290494 
L 304.337455 140.30247 
L 307.584 140.310112 
L 310.830545 140.315062 
L 314.077091 140.318238 
L 317.323636 140.32044 
L 320.570182 140.321881 
L 323.816727 140.322866 
L 327.063273 140.323542 
L 330.309818 140.324031 
L 333.556364 140.324379 
L 336.802909 140.324635 
L 340.049455 140.324829 
L 343.296 140.324977 
L 346.542545 140.325087 
L 349.789091 140.325177 
L 353.035636 140.325245 
L 356.282182 140.325301 
L 359.528727 140.325344 
L 362.775273 140.32538 
L 366.021818 140.325409 
L 369.268364 140.325432 
L 372.514909 140.32545 
L 375.761455 140.325465 
L 379.008 140.325478 
L 382.254545 140.325487 
L 385.501091 140.325496 
L 388.747636 140.325503 
L 391.994182 140.325508 
L 395.240727 140.325513 
L 398.487273 140.325517 
" clip-path="url(#p3fdcf03f06)" style="fill: none; stroke: #1f77b4; stroke-width: 1.5; stroke-linecap: square"/>
   </g>
   <g id="line2d_24">
    <path d="M 73.832727 140.325199 
L 77.079273 124.095011 
L 80.325818 114.106203 
L 83.572364 108.065025 
L 86.818909 104.40612 
L 90.065455 102.189341 
L 93.312 100.841465 
L 96.558545 100.02852 
L 99.805091 99.539206 
L 103.051636 99.236553 
L 106.298182 99.055413 
L 109.544727 98.945033 
L 112.791273 98.870008 
L 116.037818 98.831086 
L 119.284364 98.804317 
L 122.530909 98.794243 
L 125.777455 98.695324 
L 129.024 98.695315 
L 132.270545 98.695309 
L 135.517091 98.695304 
L 138.763636 98.695299 
L 142.010182 98.695295 
L 145.256727 98.69529 
L 148.503273 98.695286 
L 151.749818 98.695281 
L 154.996364 98.695275 
L 158.242909 98.69527 
L 161.489455 98.695264 
L 164.736 98.695257 
L 167.982545 98.69525 
L 171.229091 98.697975 
L 174.475636 113.608822 
L 177.722182 122.620949 
L 180.968727 128.083246 
L 184.215273 131.399423 
L 187.461818 133.408709 
L 190.708364 134.627209 
L 193.954909 135.371988 
L 197.201455 135.827673 
L 200.448 136.10675 
L 203.694545 136.277101 
L 206.941091 136.382476 
L 210.187636 136.446624 
L 213.434182 136.486089 
L 216.680727 136.510128 
L 219.927273 136.524674 
L 223.173818 136.533736 
L 226.420364 136.539271 
L 229.666909 136.542577 
L 232.913455 136.544628 
L 236.16 136.545847 
L 239.406545 136.546624 
L 242.653091 136.547093 
L 245.899636 136.547408 
L 249.146182 136.547573 
L 252.392727 136.547707 
L 255.639273 136.547759 
L 258.885818 136.547806 
L 262.132364 136.547833 
L 265.378909 136.54785 
L 268.625455 136.548775 
L 271.872 137.941012 
L 275.118545 138.779079 
L 278.365091 139.276846 
L 281.611636 139.583632 
L 284.858182 139.7813 
L 288.104727 139.915342 
L 291.351273 140.01085 
L 294.597818 140.081 
L 297.844364 140.133666 
L 301.090909 140.174135 
L 304.337455 140.20552 
L 307.584 140.229945 
L 310.830545 140.249042 
L 314.077091 140.264177 
L 317.323636 140.276049 
L 320.570182 140.285642 
L 323.816727 140.293308 
L 327.063273 140.299426 
L 330.309818 140.304348 
L 333.556364 140.308314 
L 336.802909 140.311518 
L 340.049455 140.314121 
L 343.296 140.316235 
L 346.542545 140.317931 
L 349.789091 140.319321 
L 353.035636 140.320442 
L 356.282182 140.32137 
L 359.528727 140.32212 
L 362.775273 140.32274 
L 366.021818 140.323244 
L 369.268364 140.323655 
L 372.514909 140.323984 
L 375.761455 140.32426 
L 379.008 140.324479 
L 382.254545 140.32466 
L 385.501091 140.324814 
L 388.747636 140.324936 
L 391.994182 140.325039 
L 395.240727 140.325128 
L 398.487273 140.325203 
" clip-path="url(#p3fdcf03f06)" style="fill: none; stroke: #ff7f0e; stroke-width: 1.5; stroke-linecap: square"/>
   </g>
   <g id="line2d_25">
    <path d="M 73.832727 140.325088 
L 77.079273 124.130938 
L 80.325818 114.120541 
L 83.572364 108.072085 
L 86.818909 104.409884 
L 90.065455 102.191447 
L 93.312 100.842731 
L 96.558545 100.029247 
L 99.805091 99.539651 
L 103.051636 99.236833 
L 106.298182 99.055586 
L 109.544727 98.945144 
L 112.791273 98.870063 
L 116.037818 98.831113 
L 119.284364 98.804337 
L 122.530909 98.794233 
L 125.777455 98.767252 
L 129.024 98.767251 
L 132.270545 98.767251 
L 135.517091 98.767251 
L 138.763636 98.767251 
L 142.010182 98.767251 
L 145.256727 98.76725 
L 148.503273 98.76725 
L 151.749818 98.76725 
L 154.996364 98.76725 
L 158.242909 98.76725 
L 161.489455 98.767249 
L 164.736 98.767249 
L 167.982545 98.767249 
L 171.229091 98.768678 
L 174.475636 113.634601 
L 177.722182 122.650124 
L 180.968727 128.116316 
L 184.215273 131.435768 
L 187.461818 133.44799 
L 190.708364 134.664541 
L 193.954909 135.404677 
L 197.201455 135.854294 
L 200.448 136.126913 
L 203.694545 136.291758 
L 206.941091 136.392691 
L 210.187636 136.453579 
L 213.434182 136.49074 
L 216.680727 136.513184 
L 219.927273 136.526668 
L 223.173818 136.535047 
L 226.420364 136.540126 
L 229.666909 136.543135 
L 232.913455 136.544991 
L 236.16 136.546086 
L 239.406545 136.546786 
L 242.653091 136.547206 
L 245.899636 136.547483 
L 249.146182 136.547625 
L 252.392727 136.547741 
L 255.639273 136.547782 
L 258.885818 136.547821 
L 262.132364 136.547842 
L 265.378909 136.547854 
L 268.625455 136.548443 
L 271.872 137.914029 
L 275.118545 138.735215 
L 278.365091 139.222384 
L 281.611636 139.525475 
L 284.858182 139.724672 
L 288.104727 139.863004 
L 291.351273 139.963898 
L 294.597818 140.039661 
L 297.844364 140.097643 
L 301.090909 140.143067 
L 304.337455 140.178912 
L 307.584 140.207291 
L 310.830545 140.22985 
L 314.077091 140.248009 
L 317.323636 140.262443 
L 320.570182 140.27427 
L 323.816727 140.283835 
L 327.063273 140.291554 
L 330.309818 140.297823 
L 333.556364 140.302917 
L 336.802909 140.307063 
L 340.049455 140.310448 
L 343.296 140.313212 
L 346.542545 140.315441 
L 349.789091 140.317271 
L 353.035636 140.318754 
L 356.282182 140.319983 
L 359.528727 140.32098 
L 362.775273 140.321804 
L 366.021818 140.322476 
L 369.268364 140.323024 
L 372.514909 140.323463 
L 375.761455 140.323831 
L 379.008 140.324125 
L 382.254545 140.324366 
L 385.501091 140.324573 
L 388.747636 140.324735 
L 391.994182 140.324873 
L 395.240727 140.324993 
L 398.487273 140.325093 
" clip-path="url(#p3fdcf03f06)" style="fill: none; stroke: #2ca02c; stroke-width: 1.5; stroke-linecap: square"/>
   </g>
   <g id="patch_9">
    <path d="M 57.6 142.411034 
L 57.6 96.529655 
" style="fill: none; stroke: #000000; stroke-width: 0.8; stroke-linejoin: miter; stroke-linecap: square"/>
   </g>
   <g id="patch_10">
    <path d="M 414.72 142.411034 
L 414.72 96.529655 
" style="fill: none; stroke: #000000; stroke-width: 0.8; stroke-linejoin: miter; stroke-linecap: square"/>
   </g>
   <g id="patch_11">
    <path d="M 57.6 142.411034 
L 414.72 142.411034 
" style="fill: none; stroke: #000000; stroke-width: 0.8; stroke-linejoin: miter; stroke-linecap: square"/>
   </g>
   <g id="patch_12">
    <path d="M 57.6 96.529655 
L 414.72 96.529655 
" style="fill: none; stroke: #000000; stroke-width: 0.8; stroke-linejoin: miter; stroke-linecap: square"/>
   </g>
   <g id="text_10">
    <!-- Pressure -->
    <g transform="translate(210.546562 90.529655)scale(0.12 -0.12)">
     <defs>
      <path id="DejaVuSans-50" d="M 1259 4147 
L 1259 2394 
L 2053 2394 
Q 2494 2394 2734 2622 
Q 2975 2850 2975 3272 
Q 2975 3691 2734 3919 
Q 2494 4147 2053 4147 
L 1259 4147 
z
M 628 4666 
L 2053 4666 
Q 2838 4666 3239 4311 
Q 3641 3956 3641 3272 
Q 3641 2581 3239 2228 
Q 2838 1875 2053 1875 
L 1259 1875 
L 1259 0 
L 628 0 
L 628 4666 
z
" transform="scale(0.015625)"/>
      <path id="DejaVuSans-75" d="M 544 1381 
L 544 3500 
L 1119 3500 
L 1119 1403 
Q 1119 906 1312 657 
Q 1506 409 1894 409 
Q 2359 409 2629 706 
Q 2900 1003 2900 1516 
L 2900 3500 
L 3475 3500 
L 3475 0 
L 2900 0 
L 2900 538 
Q 2691 219 2414 64 
Q 2138 -91 1772 -91 
Q 1169 -91 856 284 
Q 544 659 544 1381 
z
M 1991 3584 
L 1991 3584 
z
" transform="scale(0.015625)"/>
     </defs>
     <use xlink:href="#DejaVuSans-50"/>
     <use xlink:href="#DejaVuSans-72" x="58.552734"/>
     <use xlink:href="#DejaVuSans-65" x="97.416016"/>
     <use xlink:href="#DejaVuSans-73" x="158.939453"/>
     <use xlink:href="#DejaVuSans-73" x="211.039062"/>
     <use xlink:href="#DejaVuSans-75" x="263.138672"/>
     <use xlink:href="#DejaVuSans-72" x="326.517578"/>
     <use xlink:href="#DejaVuSans-65" x="365.380859"/>
    </g>
   </g>
   <g id="legend_2">
    <g id="patch_13">
     <path d="M 350.823125 137.411034 
L 407.72 137.411034 
Q 409.72 137.411034 409.72 135.411034 
L 409.72 92.376659 
Q 409.72 90.376659 407.72 90.376659 
L 350.823125 90.376659 
Q 348.823125 90.376659 348.823125 92.376659 
L 348.823125 135.411034 
Q 348.823125 137.411034 350.823125 137.411034 
z
" style="fill: #ffffff; opacity: 0.8; stroke: #cccccc; stroke-linejoin: miter"/>
    </g>
    <g id="line2d_26">
     <path d="M 352.823125 98.475097 
L 362.823125 98.475097 
L 372.823125 98.475097 
" style="fill: none; stroke: #1f77b4; stroke-width: 1.5; stroke-linecap: square"/>
    </g>
    <g id="text_11">
     <!-- P1 -->
     <g transform="translate(380.823125 101.975097)scale(0.1 -0.1)">
      <use xlink:href="#DejaVuSans-50"/>
      <use xlink:href="#DejaVuSans-31" x="60.302734"/>
     </g>
    </g>
    <g id="line2d_27">
     <path d="M 352.823125 113.153222 
L 362.823125 113.153222 
L 372.823125 113.153222 
" style="fill: none; stroke: #ff7f0e; stroke-width: 1.5; stroke-linecap: square"/>
    </g>
    <g id="text_12">
     <!-- Pmid -->
     <g transform="translate(380.823125 116.653222)scale(0.1 -0.1)">
      <use xlink:href="#DejaVuSans-50"/>
      <use xlink:href="#DejaVuSans-6d" x="60.302734"/>
      <use xlink:href="#DejaVuSans-69" x="157.714844"/>
      <use xlink:href="#DejaVuSans-64" x="185.498047"/>
     </g>
    </g>
    <g id="line2d_28">
     <path d="M 352.823125 127.831347 
L 362.823125 127.831347 
L 372.823125 127.831347 
" style="fill: none; stroke: #2ca02c; stroke-width: 1.5; stroke-linecap: square"/>
    </g>
    <g id="text_13">
     <!-- PN -->
     <g transform="translate(380.823125 131.331347)scale(0.1 -0.1)">
      <use xlink:href="#DejaVuSans-50"/>
      <use xlink:href="#DejaVuSans-4e" x="60.302734"/>
     </g>
    </g>
   </g>
  </g>
  <g id="axes_3">
   <g id="patch_14">
    <path d="M 57.6 197.46869 
L 414.72 197.46869 
L 414.72 151.58731 
L 57.6 151.58731 
z
" style="fill: #ffffff"/>
   </g>
   <g id="matplotlib.axis_5">
    <g id="xtick_13">
     <g id="line2d_29">
      <g>
       <use xlink:href="#m36868d9fb7" x="73.832727" y="197.46869" style="stroke: #000000; stroke-width: 0.8"/>
      </g>
     </g>
    </g>
    <g id="xtick_14">
     <g id="line2d_30">
      <g>
       <use xlink:href="#m36868d9fb7" x="138.763636" y="197.46869" style="stroke: #000000; stroke-width: 0.8"/>
      </g>
     </g>
    </g>
    <g id="xtick_15">
     <g id="line2d_31">
      <g>
       <use xlink:href="#m36868d9fb7" x="203.694545" y="197.46869" style="stroke: #000000; stroke-width: 0.8"/>
      </g>
     </g>
    </g>
    <g id="xtick_16">
     <g id="line2d_32">
      <g>
       <use xlink:href="#m36868d9fb7" x="268.625455" y="197.46869" style="stroke: #000000; stroke-width: 0.8"/>
      </g>
     </g>
    </g>
    <g id="xtick_17">
     <g id="line2d_33">
      <g>
       <use xlink:href="#m36868d9fb7" x="333.556364" y="197.46869" style="stroke: #000000; stroke-width: 0.8"/>
      </g>
     </g>
    </g>
    <g id="xtick_18">
     <g id="line2d_34">
      <g>
       <use xlink:href="#m36868d9fb7" x="398.487273" y="197.46869" style="stroke: #000000; stroke-width: 0.8"/>
      </g>
     </g>
    </g>
   </g>
   <g id="matplotlib.axis_6">
    <g id="ytick_5">
     <g id="line2d_35">
      <g>
       <use xlink:href="#m78c313c736" x="57.6" y="176.939009" style="stroke: #000000; stroke-width: 0.8"/>
      </g>
     </g>
     <g id="text_14">
      <!-- 0.25 -->
      <g transform="translate(28.334375 180.738228)scale(0.1 -0.1)">
       <use xlink:href="#DejaVuSans-30"/>
       <use xlink:href="#DejaVuSans-2e" x="63.623047"/>
       <use xlink:href="#DejaVuSans-32" x="95.410156"/>
       <use xlink:href="#DejaVuSans-35" x="159.033203"/>
      </g>
     </g>
    </g>
    <g id="ytick_6">
     <g id="line2d_36">
      <g>
       <use xlink:href="#m78c313c736" x="57.6" y="155.557206" style="stroke: #000000; stroke-width: 0.8"/>
      </g>
     </g>
     <g id="text_15">
      <!-- 0.50 -->
      <g transform="translate(28.334375 159.356425)scale(0.1 -0.1)">
       <use xlink:href="#DejaVuSans-30"/>
       <use xlink:href="#DejaVuSans-2e" x="63.623047"/>
       <use xlink:href="#DejaVuSans-35" x="95.410156"/>
       <use xlink:href="#DejaVuSans-30" x="159.033203"/>
      </g>
     </g>
    </g>
    <g id="text_16">
     <!-- fraction -->
     <g transform="translate(22.254687 193.73425)rotate(-90)scale(0.1 -0.1)">
      <use xlink:href="#DejaVuSans-66"/>
      <use xlink:href="#DejaVuSans-72" x="35.205078"/>
      <use xlink:href="#DejaVuSans-61" x="76.318359"/>
      <use xlink:href="#DejaVuSans-63" x="137.597656"/>
      <use xlink:href="#DejaVuSans-74" x="192.578125"/>
      <use xlink:href="#DejaVuSans-69" x="231.787109"/>
      <use xlink:href="#DejaVuSans-6f" x="259.570312"/>
      <use xlink:href="#DejaVuSans-6e" x="320.751953"/>
     </g>
    </g>
   </g>
   <g id="line2d_37">
    <path d="M 73.832727 153.673182 
L 77.079273 194.307697 
L 80.325818 194.551469 
L 83.572364 194.635792 
L 86.818909 194.683956 
L 90.065455 194.704451 
L 93.312 194.715898 
L 96.558545 194.726005 
L 99.805091 194.729085 
L 103.051636 194.733724 
L 106.298182 194.735668 
L 109.544727 194.737257 
L 112.791273 194.738381 
L 116.037818 194.739224 
L 119.284364 194.740323 
L 122.530909 194.741021 
L 125.777455 194.343362 
L 129.024 194.268152 
L 132.270545 194.211045 
L 135.517091 194.16788 
L 138.763636 194.135317 
L 142.010182 194.111152 
L 145.256727 194.093556 
L 148.503273 194.080901 
L 151.749818 194.071718 
L 154.996364 194.064928 
L 158.242909 194.05976 
L 161.489455 194.055875 
L 164.736 194.053041 
L 167.982545 194.050853 
L 171.229091 194.049178 
L 174.475636 193.789333 
L 177.722182 193.403154 
L 180.968727 192.902534 
L 184.215273 192.313789 
L 187.461818 191.702711 
L 190.708364 191.139351 
L 193.954909 190.667938 
L 197.201455 190.308599 
L 200.448 190.052383 
L 203.694545 189.878794 
L 206.941091 189.766322 
L 210.187636 189.694179 
L 213.434182 189.648513 
L 216.680727 189.620108 
L 219.927273 189.602745 
L 223.173818 189.591938 
L 226.420364 189.585257 
L 229.666909 189.581273 
L 232.913455 189.578825 
L 236.16 189.577385 
L 239.406545 189.576491 
L 242.653091 189.57597 
L 245.899636 189.57563 
L 249.146182 189.575476 
L 252.392727 189.575362 
L 255.639273 189.575349 
L 258.885818 189.575341 
L 262.132364 189.575359 
L 265.378909 189.575391 
L 268.625455 189.574274 
L 271.872 186.977362 
L 275.118545 183.445655 
L 278.365091 179.146037 
L 281.611636 174.396066 
L 284.858182 169.773613 
L 288.104727 165.694179 
L 291.351273 162.349222 
L 294.597818 159.789336 
L 297.844364 157.920885 
L 301.090909 156.595383 
L 304.337455 155.679167 
L 307.584 155.06079 
L 310.830545 154.639326 
L 314.077091 154.35312 
L 317.323636 154.165097 
L 320.570182 154.032841 
L 323.816727 153.940725 
L 327.063273 153.87636 
L 330.309818 153.82889 
L 333.556364 153.794163 
L 336.802909 153.768215 
L 340.049455 153.748441 
L 343.296 153.733136 
L 346.542545 153.721481 
L 349.789091 153.711802 
L 353.035636 153.7044 
L 356.282182 153.698339 
L 359.528727 153.693521 
L 362.775273 153.689523 
L 366.021818 153.686288 
L 369.268364 153.683636 
L 372.514909 153.681496 
L 375.761455 153.679637 
L 379.008 153.678146 
L 382.254545 153.676902 
L 385.501091 153.675813 
L 388.747636 153.674926 
L 391.994182 153.674144 
L 395.240727 153.673441 
L 398.487273 153.672828 
" clip-path="url(#p7ce8a75fda)" style="fill: none; stroke: #1f77b4; stroke-width: 1.5; stroke-linecap: square"/>
   </g>
   <g id="line2d_38">
    <path d="M 73.832727 160.396401 
L 77.079273 194.828298 
L 80.325818 195.176526 
L 83.572364 195.28254 
L 86.818909 195.32913 
L 90.065455 195.35287 
L 93.312 195.36593 
L 96.558545 195.373347 
L 99.805091 195.377595 
L 103.051636 195.380114 
L 106.298182 195.381552 
L 109.544727 195.382368 
L 112.791273 195.382882 
L 116.037818 195.383082 
L 119.284364 195.383172 
L 122.530909 195.383124 
L 125.777455 195.351205 
L 129.024 195.33996 
L 132.270545 195.328956 
L 135.517091 195.317953 
L 138.763636 195.306852 
L 142.010182 195.295607 
L 145.256727 195.284176 
L 148.503273 195.272527 
L 151.749818 195.260627 
L 154.996364 195.24845 
L 158.242909 195.23597 
L 161.489455 195.223163 
L 164.736 195.209994 
L 167.982545 195.196428 
L 171.229091 195.182412 
L 174.475636 194.991435 
L 177.722182 194.698581 
L 180.968727 194.318885 
L 184.215273 193.870329 
L 187.461818 193.401077 
L 190.708364 192.970021 
L 193.954909 192.610651 
L 197.201455 192.339319 
L 200.448 192.149014 
L 203.694545 192.021902 
L 206.941091 191.940959 
L 210.187636 191.889791 
L 213.434182 191.857782 
L 216.680727 191.838081 
L 219.927273 191.826122 
L 223.173818 191.818671 
L 226.420364 191.814084 
L 229.666909 191.811342 
L 232.913455 191.809637 
L 236.16 191.808605 
L 239.406545 191.807928 
L 242.653091 191.807498 
L 245.899636 191.807194 
L 249.146182 191.807011 
L 252.392727 191.806853 
L 255.639273 191.806761 
L 258.885818 191.806672 
L 262.132364 191.806598 
L 265.378909 191.806532 
L 268.625455 191.806167 
L 271.872 190.034857 
L 275.118545 187.829797 
L 278.365091 185.432676 
L 281.611636 182.987953 
L 284.858182 180.615832 
L 288.104727 178.351878 
L 291.351273 176.203417 
L 294.597818 174.19944 
L 297.844364 172.349321 
L 301.090909 170.656757 
L 304.337455 169.134602 
L 307.584 167.788572 
L 310.830545 166.613705 
L 314.077091 165.590058 
L 317.323636 164.726236 
L 320.570182 163.978499 
L 323.816727 163.346008 
L 327.063273 162.815505 
L 330.309818 162.372789 
L 333.556364 162.003107 
L 336.802909 161.695757 
L 340.049455 161.440738 
L 343.296 161.230039 
L 346.542545 161.057827 
L 349.789091 160.916115 
L 353.035636 160.799487 
L 356.282182 160.702041 
L 359.528727 160.622558 
L 362.775273 160.556718 
L 366.021818 160.502788 
L 369.268364 160.458706 
L 372.514909 160.423211 
L 375.761455 160.393526 
L 379.008 160.369699 
L 382.254545 160.349963 
L 385.501091 160.332964 
L 388.747636 160.319565 
L 391.994182 160.308168 
L 395.240727 160.298279 
L 398.487273 160.289996 
" clip-path="url(#p7ce8a75fda)" style="fill: none; stroke: #ff7f0e; stroke-width: 1.5; stroke-linecap: square"/>
   </g>
   <g id="patch_15">
    <path d="M 57.6 197.46869 
L 57.6 151.58731 
" style="fill: none; stroke: #000000; stroke-width: 0.8; stroke-linejoin: miter; stroke-linecap: square"/>
   </g>
   <g id="patch_16">
    <path d="M 414.72 197.46869 
L 414.72 151.58731 
" style="fill: none; stroke: #000000; stroke-width: 0.8; stroke-linejoin: miter; stroke-linecap: square"/>
   </g>
   <g id="patch_17">
    <path d="M 57.6 197.46869 
L 414.72 197.46869 
" style="fill: none; stroke: #000000; stroke-width: 0.8; stroke-linejoin: miter; stroke-linecap: square"/>
   </g>
   <g id="patch_18">
    <path d="M 57.6 151.58731 
L 414.72 151.58731 
" style="fill: none; stroke: #000000; stroke-width: 0.8; stroke-linejoin: miter; stroke-linecap: square"/>
   </g>
   <g id="text_17">
    <!-- yA -->
    <g transform="translate(228.504375 145.58731)scale(0.12 -0.12)">
     <defs>
      <path id="DejaVuSans-41" d="M 2188 4044 
L 1331 1722 
L 3047 1722 
L 2188 4044 
z
M 1831 4666 
L 2547 4666 
L 4325 0 
L 3669 0 
L 3244 1197 
L 1141 1197 
L 716 0 
L 50 0 
L 1831 4666 
z
" transform="scale(0.015625)"/>
     </defs>
     <use xlink:href="#DejaVuSans-79"/>
     <use xlink:href="#DejaVuSans-41" x="59.179688"/>
    </g>
   </g>
   <g id="legend_3">
    <g id="patch_19">
     <path d="M 64.6 188.94356 
L 142.289062 188.94356 
Q 144.289062 188.94356 144.289062 186.94356 
L 144.289062 158.58731 
Q 144.289062 156.58731 142.289062 156.58731 
L 64.6 156.58731 
Q 62.6 156.58731 62.6 158.58731 
L 62.6 186.94356 
Q 62.6 188.94356 64.6 188.94356 
z
" style="fill: #ffffff; opacity: 0.8; stroke: #cccccc; stroke-linejoin: miter"/>
    </g>
    <g id="line2d_39">
     <path d="M 66.6 164.685748 
L 76.6 164.685748 
L 86.6 164.685748 
" style="fill: none; stroke: #1f77b4; stroke-width: 1.5; stroke-linecap: square"/>
    </g>
    <g id="text_18">
     <!-- yA0 (in) -->
     <g transform="translate(94.6 168.185748)scale(0.1 -0.1)">
      <use xlink:href="#DejaVuSans-79"/>
      <use xlink:href="#DejaVuSans-41" x="59.179688"/>
      <use xlink:href="#DejaVuSans-30" x="127.587891"/>
      <use xlink:href="#DejaVuSans-20" x="191.210938"/>
      <use xlink:href="#DejaVuSans-28" x="222.998047"/>
      <use xlink:href="#DejaVuSans-69" x="262.011719"/>
      <use xlink:href="#DejaVuSans-6e" x="289.794922"/>
      <use xlink:href="#DejaVuSans-29" x="353.173828"/>
     </g>
    </g>
    <g id="line2d_40">
     <path d="M 66.6 179.363873 
L 76.6 179.363873 
L 86.6 179.363873 
" style="fill: none; stroke: #ff7f0e; stroke-width: 1.5; stroke-linecap: square"/>
    </g>
    <g id="text_19">
     <!-- yAL (out) -->
     <g transform="translate(94.6 182.863873)scale(0.1 -0.1)">
      <defs>
       <path id="DejaVuSans-4c" d="M 628 4666 
L 1259 4666 
L 1259 531 
L 3531 531 
L 3531 0 
L 628 0 
L 628 4666 
z
" transform="scale(0.015625)"/>
      </defs>
      <use xlink:href="#DejaVuSans-79"/>
      <use xlink:href="#DejaVuSans-41" x="59.179688"/>
      <use xlink:href="#DejaVuSans-4c" x="127.587891"/>
      <use xlink:href="#DejaVuSans-20" x="183.300781"/>
      <use xlink:href="#DejaVuSans-28" x="215.087891"/>
      <use xlink:href="#DejaVuSans-6f" x="254.101562"/>
      <use xlink:href="#DejaVuSans-75" x="315.283203"/>
      <use xlink:href="#DejaVuSans-74" x="378.662109"/>
      <use xlink:href="#DejaVuSans-29" x="417.871094"/>
     </g>
    </g>
   </g>
  </g>
  <g id="axes_4">
   <g id="patch_20">
    <path d="M 57.6 252.526345 
L 414.72 252.526345 
L 414.72 206.644966 
L 57.6 206.644966 
z
" style="fill: #ffffff"/>
   </g>
   <g id="matplotlib.axis_7">
    <g id="xtick_19">
     <g id="line2d_41">
      <g>
       <use xlink:href="#m36868d9fb7" x="73.832727" y="252.526345" style="stroke: #000000; stroke-width: 0.8"/>
      </g>
     </g>
    </g>
    <g id="xtick_20">
     <g id="line2d_42">
      <g>
       <use xlink:href="#m36868d9fb7" x="138.763636" y="252.526345" style="stroke: #000000; stroke-width: 0.8"/>
      </g>
     </g>
    </g>
    <g id="xtick_21">
     <g id="line2d_43">
      <g>
       <use xlink:href="#m36868d9fb7" x="203.694545" y="252.526345" style="stroke: #000000; stroke-width: 0.8"/>
      </g>
     </g>
    </g>
    <g id="xtick_22">
     <g id="line2d_44">
      <g>
       <use xlink:href="#m36868d9fb7" x="268.625455" y="252.526345" style="stroke: #000000; stroke-width: 0.8"/>
      </g>
     </g>
    </g>
    <g id="xtick_23">
     <g id="line2d_45">
      <g>
       <use xlink:href="#m36868d9fb7" x="333.556364" y="252.526345" style="stroke: #000000; stroke-width: 0.8"/>
      </g>
     </g>
    </g>
    <g id="xtick_24">
     <g id="line2d_46">
      <g>
       <use xlink:href="#m36868d9fb7" x="398.487273" y="252.526345" style="stroke: #000000; stroke-width: 0.8"/>
      </g>
     </g>
    </g>
   </g>
   <g id="matplotlib.axis_8">
    <g id="ytick_7">
     <g id="line2d_47">
      <g>
       <use xlink:href="#m78c313c736" x="57.6" y="245.442041" style="stroke: #000000; stroke-width: 0.8"/>
      </g>
     </g>
     <g id="text_20">
      <!-- 0.50 -->
      <g transform="translate(28.334375 249.24126)scale(0.1 -0.1)">
       <use xlink:href="#DejaVuSans-30"/>
       <use xlink:href="#DejaVuSans-2e" x="63.623047"/>
       <use xlink:href="#DejaVuSans-35" x="95.410156"/>
       <use xlink:href="#DejaVuSans-30" x="159.033203"/>
      </g>
     </g>
    </g>
    <g id="ytick_8">
     <g id="line2d_48">
      <g>
       <use xlink:href="#m78c313c736" x="57.6" y="223.88054" style="stroke: #000000; stroke-width: 0.8"/>
      </g>
     </g>
     <g id="text_21">
      <!-- 0.75 -->
      <g transform="translate(28.334375 227.679759)scale(0.1 -0.1)">
       <defs>
        <path id="DejaVuSans-37" d="M 525 4666 
L 3525 4666 
L 3525 4397 
L 1831 0 
L 1172 0 
L 2766 4134 
L 525 4134 
L 525 4666 
z
" transform="scale(0.015625)"/>
       </defs>
       <use xlink:href="#DejaVuSans-30"/>
       <use xlink:href="#DejaVuSans-2e" x="63.623047"/>
       <use xlink:href="#DejaVuSans-37" x="95.410156"/>
       <use xlink:href="#DejaVuSans-35" x="159.033203"/>
      </g>
     </g>
    </g>
    <g id="text_22">
     <!-- fraction -->
     <g transform="translate(22.254687 248.791905)rotate(-90)scale(0.1 -0.1)">
      <use xlink:href="#DejaVuSans-66"/>
      <use xlink:href="#DejaVuSans-72" x="35.205078"/>
      <use xlink:href="#DejaVuSans-61" x="76.318359"/>
      <use xlink:href="#DejaVuSans-63" x="137.597656"/>
      <use xlink:href="#DejaVuSans-74" x="192.578125"/>
      <use xlink:href="#DejaVuSans-69" x="231.787109"/>
      <use xlink:href="#DejaVuSans-6f" x="259.570312"/>
      <use xlink:href="#DejaVuSans-6e" x="320.751953"/>
     </g>
    </g>
   </g>
   <g id="line2d_49">
    <path d="M 73.832727 250.440521 
L 77.079273 210.671856 
L 80.325818 210.440305 
L 83.572364 210.357818 
L 86.818909 210.313019 
L 90.065455 210.29144 
L 93.312 210.281318 
L 96.558545 210.271332 
L 99.805091 210.26749 
L 103.051636 210.263013 
L 106.298182 210.26122 
L 109.544727 210.259707 
L 112.791273 210.258559 
L 116.037818 210.257305 
L 119.284364 210.25518 
L 122.530909 210.252903 
L 125.777455 210.659398 
L 129.024 210.731074 
L 132.270545 210.785421 
L 135.517091 210.826463 
L 138.763636 210.857404 
L 142.010182 210.880353 
L 145.256727 210.897055 
L 148.503273 210.909062 
L 151.749818 210.917773 
L 154.996364 210.924214 
L 158.242909 210.929118 
L 161.489455 210.932804 
L 164.736 210.935493 
L 167.982545 210.937569 
L 171.229091 210.939157 
L 174.475636 211.201017 
L 177.722182 211.607848 
L 180.968727 212.139796 
L 184.215273 212.762805 
L 187.461818 213.405505 
L 190.708364 213.994238 
L 193.954909 214.484988 
L 197.201455 214.858079 
L 200.448 215.123946 
L 203.694545 215.304058 
L 206.941091 215.420802 
L 210.187636 215.495679 
L 213.434182 215.54319 
L 216.680727 215.572738 
L 219.927273 215.5908 
L 223.173818 215.60204 
L 226.420364 215.608997 
L 229.666909 215.613156 
L 232.913455 215.615717 
L 236.16 215.617225 
L 239.406545 215.618162 
L 242.653091 215.618711 
L 245.899636 215.619074 
L 249.146182 215.619244 
L 252.392727 215.619372 
L 255.639273 215.619394 
L 258.885818 215.61941 
L 262.132364 215.6194 
L 265.378909 215.619375 
L 268.625455 215.620445 
L 271.872 218.230019 
L 275.118545 221.741142 
L 278.365091 225.940558 
L 281.611636 230.529085 
L 284.858182 234.967156 
L 288.104727 238.87115 
L 291.351273 242.067177 
L 294.597818 244.513733 
L 297.844364 246.301613 
L 301.090909 247.573616 
L 304.337455 248.456467 
L 307.584 249.055605 
L 310.830545 249.466202 
L 314.077091 249.74677 
L 317.323636 249.933399 
L 320.570182 250.065658 
L 323.816727 250.158621 
L 327.063273 250.224389 
L 330.309818 250.273362 
L 333.556364 250.309553 
L 336.802909 250.336846 
L 340.049455 250.357799 
L 343.296 250.374117 
L 346.542545 250.386669 
L 349.789091 250.397125 
L 353.035636 250.405196 
L 356.282182 250.411829 
L 359.528727 250.417139 
L 362.775273 250.42156 
L 366.021818 250.425166 
L 369.268364 250.428144 
L 372.514909 250.430571 
L 375.761455 250.432689 
L 379.008 250.434413 
L 382.254545 250.43587 
L 385.501091 250.437159 
L 388.747636 250.438231 
L 391.994182 250.439187 
L 395.240727 250.440057 
L 398.487273 250.440828 
" clip-path="url(#pa33d6711ab)" style="fill: none; stroke: #1f77b4; stroke-width: 1.5; stroke-linecap: square"/>
   </g>
   <g id="line2d_50">
    <path d="M 73.832727 244.266547 
L 77.079273 209.388598 
L 80.325818 208.933516 
L 83.572364 208.81047 
L 86.818909 208.76247 
L 90.065455 208.741756 
L 93.312 208.733163 
L 96.558545 208.730483 
L 99.805091 208.731062 
L 103.051636 208.733364 
L 106.298182 208.736629 
L 109.544727 208.740386 
L 112.791273 208.744353 
L 116.037818 208.748505 
L 119.284364 208.752646 
L 122.530909 208.756765 
L 125.777455 209.449485 
L 129.024 209.559272 
L 132.270545 209.626837 
L 135.517091 209.673604 
L 138.763636 209.707934 
L 142.010182 209.733527 
L 145.256727 209.753247 
L 148.503273 209.76939 
L 151.749818 209.783653 
L 154.996364 209.797132 
L 158.242909 209.810441 
L 161.489455 209.823641 
L 164.736 209.836801 
L 167.982545 209.850168 
L 171.229091 209.863838 
L 174.475636 210.063218 
L 177.722182 210.385969 
L 180.968727 210.80634 
L 184.215273 211.29852 
L 187.461818 211.808143 
L 190.708364 212.272376 
L 193.954909 212.657386 
L 197.201455 212.947075 
L 200.448 213.15021 
L 203.694545 213.285897 
L 206.941091 213.372322 
L 210.187636 213.426964 
L 213.434182 213.461265 
L 216.680727 213.482351 
L 219.927273 213.49514 
L 223.173818 213.503101 
L 226.420364 213.508006 
L 229.666909 213.510938 
L 232.913455 213.512757 
L 236.16 213.513851 
L 239.406545 213.514563 
L 242.653091 213.51501 
L 245.899636 213.515327 
L 249.146182 213.515511 
L 252.392727 213.51567 
L 255.639273 213.515757 
L 258.885818 213.515841 
L 262.132364 213.515908 
L 265.378909 213.515968 
L 268.625455 213.516312 
L 271.872 215.342445 
L 275.118545 217.590188 
L 278.365091 219.988361 
L 281.611636 222.404936 
L 284.858182 224.732748 
L 288.104727 226.943537 
L 291.351273 229.033387 
L 294.597818 230.977334 
L 297.844364 232.767932 
L 301.090909 234.40306 
L 304.337455 235.8715 
L 307.584 237.168598 
L 310.830545 238.298955 
L 314.077091 239.282609 
L 317.323636 240.112959 
L 320.570182 240.830637 
L 323.816727 241.437518 
L 327.063273 241.946439 
L 330.309818 242.370897 
L 333.556364 242.725134 
L 336.802909 243.019558 
L 340.049455 243.263865 
L 343.296 243.465715 
L 346.542545 243.630677 
L 349.789091 243.766427 
L 353.035636 243.878112 
L 356.282182 243.971398 
L 359.528727 244.047512 
L 362.775273 244.11058 
L 366.021818 244.162225 
L 369.268364 244.204436 
L 372.514909 244.238428 
L 375.761455 244.266854 
L 379.008 244.289671 
L 382.254545 244.308568 
L 385.501091 244.324845 
L 388.747636 244.337676 
L 391.994182 244.348591 
L 395.240727 244.358063 
L 398.487273 244.365996 
" clip-path="url(#pa33d6711ab)" style="fill: none; stroke: #ff7f0e; stroke-width: 1.5; stroke-linecap: square"/>
   </g>
   <g id="patch_21">
    <path d="M 57.6 252.526345 
L 57.6 206.644966 
" style="fill: none; stroke: #000000; stroke-width: 0.8; stroke-linejoin: miter; stroke-linecap: square"/>
   </g>
   <g id="patch_22">
    <path d="M 414.72 252.526345 
L 414.72 206.644966 
" style="fill: none; stroke: #000000; stroke-width: 0.8; stroke-linejoin: miter; stroke-linecap: square"/>
   </g>
   <g id="patch_23">
    <path d="M 57.6 252.526345 
L 414.72 252.526345 
" style="fill: none; stroke: #000000; stroke-width: 0.8; stroke-linejoin: miter; stroke-linecap: square"/>
   </g>
   <g id="patch_24">
    <path d="M 57.6 206.644966 
L 414.72 206.644966 
" style="fill: none; stroke: #000000; stroke-width: 0.8; stroke-linejoin: miter; stroke-linecap: square"/>
   </g>
   <g id="text_23">
    <!-- yB -->
    <g transform="translate(228.492188 200.644966)scale(0.12 -0.12)">
     <defs>
      <path id="DejaVuSans-42" d="M 1259 2228 
L 1259 519 
L 2272 519 
Q 2781 519 3026 730 
Q 3272 941 3272 1375 
Q 3272 1813 3026 2020 
Q 2781 2228 2272 2228 
L 1259 2228 
z
M 1259 4147 
L 1259 2741 
L 2194 2741 
Q 2656 2741 2882 2914 
Q 3109 3088 3109 3444 
Q 3109 3797 2882 3972 
Q 2656 4147 2194 4147 
L 1259 4147 
z
M 628 4666 
L 2241 4666 
Q 2963 4666 3353 4366 
Q 3744 4066 3744 3513 
Q 3744 3084 3544 2831 
Q 3344 2578 2956 2516 
Q 3422 2416 3680 2098 
Q 3938 1781 3938 1306 
Q 3938 681 3513 340 
Q 3088 0 2303 0 
L 628 0 
L 628 4666 
z
" transform="scale(0.015625)"/>
     </defs>
     <use xlink:href="#DejaVuSans-79"/>
     <use xlink:href="#DejaVuSans-42" x="59.179688"/>
    </g>
   </g>
   <g id="legend_4">
    <g id="patch_25">
     <path d="M 64.6 244.001216 
L 142.309375 244.001216 
Q 144.309375 244.001216 144.309375 242.001216 
L 144.309375 213.644966 
Q 144.309375 211.644966 142.309375 211.644966 
L 64.6 211.644966 
Q 62.6 211.644966 62.6 213.644966 
L 62.6 242.001216 
Q 62.6 244.001216 64.6 244.001216 
z
" style="fill: #ffffff; opacity: 0.8; stroke: #cccccc; stroke-linejoin: miter"/>
    </g>
    <g id="line2d_51">
     <path d="M 66.6 219.743403 
L 76.6 219.743403 
L 86.6 219.743403 
" style="fill: none; stroke: #1f77b4; stroke-width: 1.5; stroke-linecap: square"/>
    </g>
    <g id="text_24">
     <!-- yB0 (in) -->
     <g transform="translate(94.6 223.243403)scale(0.1 -0.1)">
      <use xlink:href="#DejaVuSans-79"/>
      <use xlink:href="#DejaVuSans-42" x="59.179688"/>
      <use xlink:href="#DejaVuSans-30" x="127.783203"/>
      <use xlink:href="#DejaVuSans-20" x="191.40625"/>
      <use xlink:href="#DejaVuSans-28" x="223.193359"/>
      <use xlink:href="#DejaVuSans-69" x="262.207031"/>
      <use xlink:href="#DejaVuSans-6e" x="289.990234"/>
      <use xlink:href="#DejaVuSans-29" x="353.369141"/>
     </g>
    </g>
    <g id="line2d_52">
     <path d="M 66.6 234.421528 
L 76.6 234.421528 
L 86.6 234.421528 
" style="fill: none; stroke: #ff7f0e; stroke-width: 1.5; stroke-linecap: square"/>
    </g>
    <g id="text_25">
     <!-- yBL (out) -->
     <g transform="translate(94.6 237.921528)scale(0.1 -0.1)">
      <use xlink:href="#DejaVuSans-79"/>
      <use xlink:href="#DejaVuSans-42" x="59.179688"/>
      <use xlink:href="#DejaVuSans-4c" x="127.783203"/>
      <use xlink:href="#DejaVuSans-20" x="183.496094"/>
      <use xlink:href="#DejaVuSans-28" x="215.283203"/>
      <use xlink:href="#DejaVuSans-6f" x="254.296875"/>
      <use xlink:href="#DejaVuSans-75" x="315.478516"/>
      <use xlink:href="#DejaVuSans-74" x="378.857422"/>
      <use xlink:href="#DejaVuSans-29" x="418.066406"/>
     </g>
    </g>
   </g>
  </g>
  <g id="axes_5">
   <g id="patch_26">
    <path d="M 57.6 307.584 
L 414.72 307.584 
L 414.72 261.702621 
L 57.6 261.702621 
z
" style="fill: #ffffff"/>
   </g>
   <g id="matplotlib.axis_9">
    <g id="xtick_25">
     <g id="line2d_53">
      <g>
       <use xlink:href="#m36868d9fb7" x="73.832727" y="307.584" style="stroke: #000000; stroke-width: 0.8"/>
      </g>
     </g>
     <g id="text_26">
      <!-- 0 -->
      <g transform="translate(70.651477 322.182437)scale(0.1 -0.1)">
       <use xlink:href="#DejaVuSans-30"/>
      </g>
     </g>
    </g>
    <g id="xtick_26">
     <g id="line2d_54">
      <g>
       <use xlink:href="#m36868d9fb7" x="138.763636" y="307.584" style="stroke: #000000; stroke-width: 0.8"/>
      </g>
     </g>
     <g id="text_27">
      <!-- 20 -->
      <g transform="translate(132.401136 322.182437)scale(0.1 -0.1)">
       <use xlink:href="#DejaVuSans-32"/>
       <use xlink:href="#DejaVuSans-30" x="63.623047"/>
      </g>
     </g>
    </g>
    <g id="xtick_27">
     <g id="line2d_55">
      <g>
       <use xlink:href="#m36868d9fb7" x="203.694545" y="307.584" style="stroke: #000000; stroke-width: 0.8"/>
      </g>
     </g>
     <g id="text_28">
      <!-- 40 -->
      <g transform="translate(197.332045 322.182437)scale(0.1 -0.1)">
       <defs>
        <path id="DejaVuSans-34" d="M 2419 4116 
L 825 1625 
L 2419 1625 
L 2419 4116 
z
M 2253 4666 
L 3047 4666 
L 3047 1625 
L 3713 1625 
L 3713 1100 
L 3047 1100 
L 3047 0 
L 2419 0 
L 2419 1100 
L 313 1100 
L 313 1709 
L 2253 4666 
z
" transform="scale(0.015625)"/>
       </defs>
       <use xlink:href="#DejaVuSans-34"/>
       <use xlink:href="#DejaVuSans-30" x="63.623047"/>
      </g>
     </g>
    </g>
    <g id="xtick_28">
     <g id="line2d_56">
      <g>
       <use xlink:href="#m36868d9fb7" x="268.625455" y="307.584" style="stroke: #000000; stroke-width: 0.8"/>
      </g>
     </g>
     <g id="text_29">
      <!-- 60 -->
      <g transform="translate(262.262955 322.182437)scale(0.1 -0.1)">
       <defs>
        <path id="DejaVuSans-36" d="M 2113 2584 
Q 1688 2584 1439 2293 
Q 1191 2003 1191 1497 
Q 1191 994 1439 701 
Q 1688 409 2113 409 
Q 2538 409 2786 701 
Q 3034 994 3034 1497 
Q 3034 2003 2786 2293 
Q 2538 2584 2113 2584 
z
M 3366 4563 
L 3366 3988 
Q 3128 4100 2886 4159 
Q 2644 4219 2406 4219 
Q 1781 4219 1451 3797 
Q 1122 3375 1075 2522 
Q 1259 2794 1537 2939 
Q 1816 3084 2150 3084 
Q 2853 3084 3261 2657 
Q 3669 2231 3669 1497 
Q 3669 778 3244 343 
Q 2819 -91 2113 -91 
Q 1303 -91 875 529 
Q 447 1150 447 2328 
Q 447 3434 972 4092 
Q 1497 4750 2381 4750 
Q 2619 4750 2861 4703 
Q 3103 4656 3366 4563 
z
" transform="scale(0.015625)"/>
       </defs>
       <use xlink:href="#DejaVuSans-36"/>
       <use xlink:href="#DejaVuSans-30" x="63.623047"/>
      </g>
     </g>
    </g>
    <g id="xtick_29">
     <g id="line2d_57">
      <g>
       <use xlink:href="#m36868d9fb7" x="333.556364" y="307.584" style="stroke: #000000; stroke-width: 0.8"/>
      </g>
     </g>
     <g id="text_30">
      <!-- 80 -->
      <g transform="translate(327.193864 322.182437)scale(0.1 -0.1)">
       <defs>
        <path id="DejaVuSans-38" d="M 2034 2216 
Q 1584 2216 1326 1975 
Q 1069 1734 1069 1313 
Q 1069 891 1326 650 
Q 1584 409 2034 409 
Q 2484 409 2743 651 
Q 3003 894 3003 1313 
Q 3003 1734 2745 1975 
Q 2488 2216 2034 2216 
z
M 1403 2484 
Q 997 2584 770 2862 
Q 544 3141 544 3541 
Q 544 4100 942 4425 
Q 1341 4750 2034 4750 
Q 2731 4750 3128 4425 
Q 3525 4100 3525 3541 
Q 3525 3141 3298 2862 
Q 3072 2584 2669 2484 
Q 3125 2378 3379 2068 
Q 3634 1759 3634 1313 
Q 3634 634 3220 271 
Q 2806 -91 2034 -91 
Q 1263 -91 848 271 
Q 434 634 434 1313 
Q 434 1759 690 2068 
Q 947 2378 1403 2484 
z
M 1172 3481 
Q 1172 3119 1398 2916 
Q 1625 2713 2034 2713 
Q 2441 2713 2670 2916 
Q 2900 3119 2900 3481 
Q 2900 3844 2670 4047 
Q 2441 4250 2034 4250 
Q 1625 4250 1398 4047 
Q 1172 3844 1172 3481 
z
" transform="scale(0.015625)"/>
       </defs>
       <use xlink:href="#DejaVuSans-38"/>
       <use xlink:href="#DejaVuSans-30" x="63.623047"/>
      </g>
     </g>
    </g>
    <g id="xtick_30">
     <g id="line2d_58">
      <g>
       <use xlink:href="#m36868d9fb7" x="398.487273" y="307.584" style="stroke: #000000; stroke-width: 0.8"/>
      </g>
     </g>
     <g id="text_31">
      <!-- 100 -->
      <g transform="translate(388.943523 322.182437)scale(0.1 -0.1)">
       <use xlink:href="#DejaVuSans-31"/>
       <use xlink:href="#DejaVuSans-30" x="63.623047"/>
       <use xlink:href="#DejaVuSans-30" x="127.246094"/>
      </g>
     </g>
    </g>
    <g id="text_32">
     <!-- time (normalized) -->
     <g transform="translate(191.589687 335.860562)scale(0.1 -0.1)">
      <use xlink:href="#DejaVuSans-74"/>
      <use xlink:href="#DejaVuSans-69" x="39.208984"/>
      <use xlink:href="#DejaVuSans-6d" x="66.992188"/>
      <use xlink:href="#DejaVuSans-65" x="164.404297"/>
      <use xlink:href="#DejaVuSans-20" x="225.927734"/>
      <use xlink:href="#DejaVuSans-28" x="257.714844"/>
      <use xlink:href="#DejaVuSans-6e" x="296.728516"/>
      <use xlink:href="#DejaVuSans-6f" x="360.107422"/>
      <use xlink:href="#DejaVuSans-72" x="421.289062"/>
      <use xlink:href="#DejaVuSans-6d" x="460.652344"/>
      <use xlink:href="#DejaVuSans-61" x="558.064453"/>
      <use xlink:href="#DejaVuSans-6c" x="619.34375"/>
      <use xlink:href="#DejaVuSans-69" x="647.126953"/>
      <use xlink:href="#DejaVuSans-7a" x="674.910156"/>
      <use xlink:href="#DejaVuSans-65" x="727.400391"/>
      <use xlink:href="#DejaVuSans-64" x="788.923828"/>
      <use xlink:href="#DejaVuSans-29" x="852.400391"/>
     </g>
    </g>
   </g>
   <g id="matplotlib.axis_10">
    <g id="ytick_9">
     <g id="line2d_59">
      <g>
       <use xlink:href="#m78c313c736" x="57.6" y="296.057642" style="stroke: #000000; stroke-width: 0.8"/>
      </g>
     </g>
     <g id="text_33">
      <!-- 0.04 -->
      <g transform="translate(28.334375 299.856861)scale(0.1 -0.1)">
       <use xlink:href="#DejaVuSans-30"/>
       <use xlink:href="#DejaVuSans-2e" x="63.623047"/>
       <use xlink:href="#DejaVuSans-30" x="95.410156"/>
       <use xlink:href="#DejaVuSans-34" x="159.033203"/>
      </g>
     </g>
    </g>
    <g id="ytick_10">
     <g id="line2d_60">
      <g>
       <use xlink:href="#m78c313c736" x="57.6" y="273.65154" style="stroke: #000000; stroke-width: 0.8"/>
      </g>
     </g>
     <g id="text_34">
      <!-- 0.05 -->
      <g transform="translate(28.334375 277.450759)scale(0.1 -0.1)">
       <use xlink:href="#DejaVuSans-30"/>
       <use xlink:href="#DejaVuSans-2e" x="63.623047"/>
       <use xlink:href="#DejaVuSans-30" x="95.410156"/>
       <use xlink:href="#DejaVuSans-35" x="159.033203"/>
      </g>
     </g>
    </g>
    <g id="text_35">
     <!-- fraction -->
     <g transform="translate(22.254687 303.84956)rotate(-90)scale(0.1 -0.1)">
      <use xlink:href="#DejaVuSans-66"/>
      <use xlink:href="#DejaVuSans-72" x="35.205078"/>
      <use xlink:href="#DejaVuSans-61" x="76.318359"/>
      <use xlink:href="#DejaVuSans-63" x="137.597656"/>
      <use xlink:href="#DejaVuSans-74" x="192.578125"/>
      <use xlink:href="#DejaVuSans-69" x="231.787109"/>
      <use xlink:href="#DejaVuSans-6f" x="259.570312"/>
      <use xlink:href="#DejaVuSans-6e" x="320.751953"/>
     </g>
    </g>
   </g>
   <g id="line2d_61">
    <path d="M 73.832727 305.182028 
L 77.079273 273.815888 
L 80.325818 273.445178 
L 83.572364 273.379077 
L 86.818909 273.281138 
L 90.065455 273.304816 
L 93.312 273.267891 
L 96.558545 273.262549 
L 99.805091 273.281677 
L 103.051636 273.276459 
L 106.298182 273.272125 
L 109.544727 273.269783 
L 112.791273 273.270169 
L 116.037818 273.280649 
L 119.284364 273.307062 
L 122.530909 273.347923 
L 125.777455 273.205231 
L 129.024 273.313444 
L 132.270545 273.397619 
L 135.517091 273.462202 
L 138.763636 273.511443 
L 142.010182 273.548317 
L 145.256727 273.575386 
L 148.503273 273.594972 
L 151.749818 273.609233 
L 154.996364 273.619778 
L 158.242909 273.627783 
L 161.489455 273.633796 
L 164.736 273.638187 
L 167.982545 273.641582 
L 171.229091 273.644181 
L 174.475636 273.648586 
L 177.722182 273.196371 
L 180.968727 272.491803 
L 184.215273 271.730197 
L 187.461818 271.042084 
L 190.708364 270.505928 
L 193.954909 270.106491 
L 197.201455 269.82767 
L 200.448 269.632882 
L 203.694545 269.501332 
L 206.941091 269.414889 
L 210.187636 269.359619 
L 213.434182 269.321658 
L 216.680727 269.298153 
L 219.927273 269.283806 
L 223.173818 269.274926 
L 226.420364 269.269189 
L 229.666909 269.265525 
L 232.913455 269.263118 
L 236.16 269.261659 
L 239.406545 269.260746 
L 242.653091 269.260136 
L 245.899636 269.259597 
L 249.146182 269.259226 
L 252.392727 269.258894 
L 255.639273 269.258656 
L 258.885818 269.258439 
L 262.132364 269.258243 
L 265.378909 269.258062 
L 268.625455 269.259522 
L 271.872 269.497546 
L 275.118545 270.80342 
L 278.365091 274.345356 
L 281.611636 279.576651 
L 284.858182 285.375995 
L 288.104727 290.824485 
L 291.351273 295.423902 
L 294.597818 298.927077 
L 297.844364 301.428161 
L 301.090909 303.107462 
L 304.337455 304.17429 
L 307.584 304.809126 
L 310.830545 305.183475 
L 314.077091 305.392424 
L 317.323636 305.469676 
L 320.570182 305.498483 
L 323.816727 305.496616 
L 327.063273 305.474177 
L 330.309818 305.44553 
L 333.556364 305.415056 
L 336.802909 305.385801 
L 340.049455 305.359459 
L 343.296 305.336522 
L 346.542545 305.315748 
L 349.789091 305.297652 
L 353.035636 305.281893 
L 356.282182 305.268354 
L 359.528727 305.256655 
L 362.775273 305.246537 
L 366.021818 305.237591 
L 369.268364 305.229693 
L 372.514909 305.222732 
L 375.761455 305.216395 
L 379.008 305.210685 
L 382.254545 305.205413 
L 385.501091 305.200435 
L 388.747636 305.19585 
L 391.994182 305.191485 
L 395.240727 305.187302 
L 398.487273 305.183348 
" clip-path="url(#pdc2bd8eed5)" style="fill: none; stroke: #1f77b4; stroke-width: 1.5; stroke-linecap: square"/>
   </g>
   <g id="line2d_62">
    <path d="M 73.832727 289.445112 
L 77.079273 293.515543 
L 80.325818 296.215465 
L 83.572364 296.634817 
L 86.818909 296.661277 
L 90.065455 296.577484 
L 93.312 296.458605 
L 96.558545 296.333917 
L 99.805091 296.20758 
L 103.051636 296.08179 
L 106.298182 295.959283 
L 109.544727 295.840289 
L 112.791273 295.723768 
L 116.037818 295.610656 
L 119.284364 295.500716 
L 122.530909 295.394982 
L 125.777455 278.234788 
L 129.024 275.677211 
L 132.270545 274.210175 
L 135.517091 273.283469 
L 138.763636 272.682424 
L 142.010182 272.312146 
L 145.256727 272.099264 
L 148.503273 271.985073 
L 151.749818 271.926267 
L 154.996364 271.895129 
L 158.242909 271.87631 
L 161.489455 271.868873 
L 164.736 271.872 
L 167.982545 271.880127 
L 171.229091 271.892199 
L 174.475636 271.715564 
L 177.722182 271.002817 
L 180.968727 270.029018 
L 184.215273 268.993626 
L 187.461818 268.047254 
L 190.708364 267.279462 
L 193.954909 266.691809 
L 197.201455 266.27415 
L 200.448 265.982385 
L 203.694545 265.787359 
L 206.941091 265.662609 
L 210.187636 265.583553 
L 213.434182 265.530973 
L 216.680727 265.499303 
L 219.927273 265.480358 
L 223.173818 265.468715 
L 226.420364 265.461461 
L 229.666909 265.457143 
L 232.913455 265.454554 
L 236.16 265.453161 
L 239.406545 265.452405 
L 242.653091 265.452039 
L 245.899636 265.451799 
L 249.146182 265.451779 
L 252.392727 265.451811 
L 255.639273 265.451956 
L 258.885818 265.452112 
L 262.132364 265.45229 
L 265.378909 265.452484 
L 268.625455 265.453106 
L 271.872 264.41558 
L 275.118545 263.788138 
L 278.365091 264.284188 
L 281.611636 265.54923 
L 284.858182 267.218237 
L 288.104727 269.093733 
L 291.351273 271.085515 
L 294.597818 273.082595 
L 297.844364 275.032848 
L 301.090909 276.894528 
L 304.337455 278.622352 
L 307.584 280.187465 
L 310.830545 281.600314 
L 314.077091 282.862815 
L 317.323636 283.920995 
L 320.570182 284.865153 
L 323.816727 285.668564 
L 327.063273 286.345098 
L 330.309818 286.916078 
L 333.556364 287.398058 
L 336.802909 287.800938 
L 340.049455 288.134926 
L 343.296 288.410835 
L 346.542545 288.636769 
L 349.789091 288.822617 
L 353.035636 288.976499 
L 356.282182 289.105823 
L 359.528727 289.210696 
L 362.775273 289.297088 
L 366.021818 289.368242 
L 369.268364 289.426476 
L 372.514909 289.473275 
L 375.761455 289.512456 
L 379.008 289.543917 
L 382.254545 289.569997 
L 385.501091 289.592485 
L 388.747636 289.610169 
L 391.994182 289.625166 
L 395.240727 289.638147 
L 398.487273 289.649075 
" clip-path="url(#pdc2bd8eed5)" style="fill: none; stroke: #ff7f0e; stroke-width: 1.5; stroke-linecap: square"/>
   </g>
   <g id="patch_27">
    <path d="M 57.6 307.584 
L 57.6 261.702621 
" style="fill: none; stroke: #000000; stroke-width: 0.8; stroke-linejoin: miter; stroke-linecap: square"/>
   </g>
   <g id="patch_28">
    <path d="M 414.72 307.584 
L 414.72 261.702621 
" style="fill: none; stroke: #000000; stroke-width: 0.8; stroke-linejoin: miter; stroke-linecap: square"/>
   </g>
   <g id="patch_29">
    <path d="M 57.6 307.584 
L 414.72 307.584 
" style="fill: none; stroke: #000000; stroke-width: 0.8; stroke-linejoin: miter; stroke-linecap: square"/>
   </g>
   <g id="patch_30">
    <path d="M 57.6 261.702621 
L 414.72 261.702621 
" style="fill: none; stroke: #000000; stroke-width: 0.8; stroke-linejoin: miter; stroke-linecap: square"/>
   </g>
   <g id="text_36">
    <!-- yC -->
    <g transform="translate(228.419062 255.702621)scale(0.12 -0.12)">
     <defs>
      <path id="DejaVuSans-43" d="M 4122 4306 
L 4122 3641 
Q 3803 3938 3442 4084 
Q 3081 4231 2675 4231 
Q 1875 4231 1450 3742 
Q 1025 3253 1025 2328 
Q 1025 1406 1450 917 
Q 1875 428 2675 428 
Q 3081 428 3442 575 
Q 3803 722 4122 1019 
L 4122 359 
Q 3791 134 3420 21 
Q 3050 -91 2638 -91 
Q 1578 -91 968 557 
Q 359 1206 359 2328 
Q 359 3453 968 4101 
Q 1578 4750 2638 4750 
Q 3056 4750 3426 4639 
Q 3797 4528 4122 4306 
z
" transform="scale(0.015625)"/>
     </defs>
     <use xlink:href="#DejaVuSans-79"/>
     <use xlink:href="#DejaVuSans-43" x="59.179688"/>
    </g>
   </g>
   <g id="legend_5">
    <g id="patch_31">
     <path d="M 197.244375 302.584 
L 275.075625 302.584 
Q 277.075625 302.584 277.075625 300.584 
L 277.075625 272.22775 
Q 277.075625 270.22775 275.075625 270.22775 
L 197.244375 270.22775 
Q 195.244375 270.22775 195.244375 272.22775 
L 195.244375 300.584 
Q 195.244375 302.584 197.244375 302.584 
z
" style="fill: #ffffff; opacity: 0.8; stroke: #cccccc; stroke-linejoin: miter"/>
    </g>
    <g id="line2d_63">
     <path d="M 199.244375 278.326187 
L 209.244375 278.326187 
L 219.244375 278.326187 
" style="fill: none; stroke: #1f77b4; stroke-width: 1.5; stroke-linecap: square"/>
    </g>
    <g id="text_37">
     <!-- yC0 (in) -->
     <g transform="translate(227.244375 281.826187)scale(0.1 -0.1)">
      <use xlink:href="#DejaVuSans-79"/>
      <use xlink:href="#DejaVuSans-43" x="59.179688"/>
      <use xlink:href="#DejaVuSans-30" x="129.003906"/>
      <use xlink:href="#DejaVuSans-20" x="192.626953"/>
      <use xlink:href="#DejaVuSans-28" x="224.414062"/>
      <use xlink:href="#DejaVuSans-69" x="263.427734"/>
      <use xlink:href="#DejaVuSans-6e" x="291.210938"/>
      <use xlink:href="#DejaVuSans-29" x="354.589844"/>
     </g>
    </g>
    <g id="line2d_64">
     <path d="M 199.244375 293.004312 
L 209.244375 293.004312 
L 219.244375 293.004312 
" style="fill: none; stroke: #ff7f0e; stroke-width: 1.5; stroke-linecap: square"/>
    </g>
    <g id="text_38">
     <!-- yCL (out) -->
     <g transform="translate(227.244375 296.504312)scale(0.1 -0.1)">
      <use xlink:href="#DejaVuSans-79"/>
      <use xlink:href="#DejaVuSans-43" x="59.179688"/>
      <use xlink:href="#DejaVuSans-4c" x="129.003906"/>
      <use xlink:href="#DejaVuSans-20" x="184.716797"/>
      <use xlink:href="#DejaVuSans-28" x="216.503906"/>
      <use xlink:href="#DejaVuSans-6f" x="255.517578"/>
      <use xlink:href="#DejaVuSans-75" x="316.699219"/>
      <use xlink:href="#DejaVuSans-74" x="380.078125"/>
      <use xlink:href="#DejaVuSans-29" x="419.287109"/>
     </g>
    </g>
   </g>
  </g>
 </g>
 <defs>
  <clipPath id="pf28f9477b0">
   <rect x="57.6" y="41.472" width="357.12" height="45.881379"/>
  </clipPath>
  <clipPath id="p3fdcf03f06">
   <rect x="57.6" y="96.529655" width="357.12" height="45.881379"/>
  </clipPath>
  <clipPath id="p7ce8a75fda">
   <rect x="57.6" y="151.58731" width="357.12" height="45.881379"/>
  </clipPath>
  <clipPath id="pa33d6711ab">
   <rect x="57.6" y="206.644966" width="357.12" height="45.881379"/>
  </clipPath>
  <clipPath id="pdc2bd8eed5">
   <rect x="57.6" y="261.702621" width="357.12" height="45.881379"/>
  </clipPath>
 </defs>
</svg>
