<?xml version="1.0" encoding="utf-8" standalone="no"?>
<!DOCTYPE svg PUBLIC "-//W3C//DTD SVG 1.1//EN"
  "http://www.w3.org/Graphics/SVG/1.1/DTD/svg11.dtd">
<svg xmlns:xlink="http://www.w3.org/1999/xlink" width="460.8pt" height="345.6pt" viewBox="0 0 460.8 345.6" xmlns="http://www.w3.org/2000/svg" version="1.1">
 <metadata>
  <rdf:RDF xmlns:dc="http://purl.org/dc/elements/1.1/" xmlns:cc="http://creativecommons.org/ns#" xmlns:rdf="http://www.w3.org/1999/02/22-rdf-syntax-ns#">
   <cc:Work>
    <dc:type rdf:resource="http://purl.org/dc/dcmitype/StillImage"/>
    <dc:date>2022-07-10T00:04:48.017149</dc:date>
    <dc:format>image/svg+xml</dc:format>
    <dc:creator>
     <cc:Agent>
      <dc:title>Matplotlib v3.5.2, https://matplotlib.org/</dc:title>
     </cc:Agent>
    </dc:creator>
   </cc:Work>
  </rdf:RDF>
 </metadata>
 <defs>
  <style type="text/css">*{stroke-linejoin: round; stroke-linecap: butt}</style>
 </defs>
 <g id="figure_1">
  <g id="patch_1">
   <path d="M 0 345.6 
L 460.8 345.6 
L 460.8 0 
L 0 0 
z
" style="fill: #ffffff"/>
  </g>
  <g id="axes_1">
   <g id="patch_2">
    <path d="M 57.6 87.353379 
L 414.72 87.353379 
L 414.72 41.472 
L 57.6 41.472 
z
" style="fill: #ffffff"/>
   </g>
   <g id="matplotlib.axis_1">
    <g id="xtick_1">
     <g id="line2d_1">
      <defs>
       <path id="m4c0d794226" d="M 0 0 
L 0 3.5 
" style="stroke: #000000; stroke-width: 0.8"/>
      </defs>
      <g>
       <use xlink:href="#m4c0d794226" x="73.832727" y="87.353379" style="stroke: #000000; stroke-width: 0.8"/>
      </g>
     </g>
    </g>
    <g id="xtick_2">
     <g id="line2d_2">
      <g>
       <use xlink:href="#m4c0d794226" x="138.763636" y="87.353379" style="stroke: #000000; stroke-width: 0.8"/>
      </g>
     </g>
    </g>
    <g id="xtick_3">
     <g id="line2d_3">
      <g>
       <use xlink:href="#m4c0d794226" x="203.694545" y="87.353379" style="stroke: #000000; stroke-width: 0.8"/>
      </g>
     </g>
    </g>
    <g id="xtick_4">
     <g id="line2d_4">
      <g>
       <use xlink:href="#m4c0d794226" x="268.625455" y="87.353379" style="stroke: #000000; stroke-width: 0.8"/>
      </g>
     </g>
    </g>
    <g id="xtick_5">
     <g id="line2d_5">
      <g>
       <use xlink:href="#m4c0d794226" x="333.556364" y="87.353379" style="stroke: #000000; stroke-width: 0.8"/>
      </g>
     </g>
    </g>
    <g id="xtick_6">
     <g id="line2d_6">
      <g>
       <use xlink:href="#m4c0d794226" x="398.487273" y="87.353379" style="stroke: #000000; stroke-width: 0.8"/>
      </g>
     </g>
    </g>
   </g>
   <g id="matplotlib.axis_2">
    <g id="ytick_1">
     <g id="line2d_7">
      <defs>
       <path id="m281cb9ea91" d="M 0 0 
L -3.5 0 
" style="stroke: #000000; stroke-width: 0.8"/>
      </defs>
      <g>
       <use xlink:href="#m281cb9ea91" x="57.6" y="77.003977" style="stroke: #000000; stroke-width: 0.8"/>
      </g>
     </g>
     <g id="text_1">
      <!-- −2.5 -->
      <g transform="translate(26.317187 80.803195)scale(0.1 -0.1)">
       <defs>
        <path id="DejaVuSans-2212" d="M 678 2272 
L 4684 2272 
L 4684 1741 
L 678 1741 
L 678 2272 
z
" transform="scale(0.015625)"/>
        <path id="DejaVuSans-32" d="M 1228 531 
L 3431 531 
L 3431 0 
L 469 0 
L 469 531 
Q 828 903 1448 1529 
Q 2069 2156 2228 2338 
Q 2531 2678 2651 2914 
Q 2772 3150 2772 3378 
Q 2772 3750 2511 3984 
Q 2250 4219 1831 4219 
Q 1534 4219 1204 4116 
Q 875 4013 500 3803 
L 500 4441 
Q 881 4594 1212 4672 
Q 1544 4750 1819 4750 
Q 2544 4750 2975 4387 
Q 3406 4025 3406 3419 
Q 3406 3131 3298 2873 
Q 3191 2616 2906 2266 
Q 2828 2175 2409 1742 
Q 1991 1309 1228 531 
z
" transform="scale(0.015625)"/>
        <path id="DejaVuSans-2e" d="M 684 794 
L 1344 794 
L 1344 0 
L 684 0 
L 684 794 
z
" transform="scale(0.015625)"/>
        <path id="DejaVuSans-35" d="M 691 4666 
L 3169 4666 
L 3169 4134 
L 1269 4134 
L 1269 2991 
Q 1406 3038 1543 3061 
Q 1681 3084 1819 3084 
Q 2600 3084 3056 2656 
Q 3513 2228 3513 1497 
Q 3513 744 3044 326 
Q 2575 -91 1722 -91 
Q 1428 -91 1123 -41 
Q 819 9 494 109 
L 494 744 
Q 775 591 1075 516 
Q 1375 441 1709 441 
Q 2250 441 2565 725 
Q 2881 1009 2881 1497 
Q 2881 1984 2565 2268 
Q 2250 2553 1709 2553 
Q 1456 2553 1204 2497 
Q 953 2441 691 2322 
L 691 4666 
z
" transform="scale(0.015625)"/>
       </defs>
       <use xlink:href="#DejaVuSans-2212"/>
       <use xlink:href="#DejaVuSans-32" x="83.789062"/>
       <use xlink:href="#DejaVuSans-2e" x="147.412109"/>
       <use xlink:href="#DejaVuSans-35" x="179.199219"/>
      </g>
     </g>
    </g>
    <g id="ytick_2">
     <g id="line2d_8">
      <g>
       <use xlink:href="#m281cb9ea91" x="57.6" y="56.111042" style="stroke: #000000; stroke-width: 0.8"/>
      </g>
     </g>
     <g id="text_2">
      <!-- 0.0 -->
      <g transform="translate(34.696875 59.91026)scale(0.1 -0.1)">
       <defs>
        <path id="DejaVuSans-30" d="M 2034 4250 
Q 1547 4250 1301 3770 
Q 1056 3291 1056 2328 
Q 1056 1369 1301 889 
Q 1547 409 2034 409 
Q 2525 409 2770 889 
Q 3016 1369 3016 2328 
Q 3016 3291 2770 3770 
Q 2525 4250 2034 4250 
z
M 2034 4750 
Q 2819 4750 3233 4129 
Q 3647 3509 3647 2328 
Q 3647 1150 3233 529 
Q 2819 -91 2034 -91 
Q 1250 -91 836 529 
Q 422 1150 422 2328 
Q 422 3509 836 4129 
Q 1250 4750 2034 4750 
z
" transform="scale(0.015625)"/>
       </defs>
       <use xlink:href="#DejaVuSans-30"/>
       <use xlink:href="#DejaVuSans-2e" x="63.623047"/>
       <use xlink:href="#DejaVuSans-30" x="95.410156"/>
      </g>
     </g>
    </g>
    <g id="text_3">
     <!-- flow rate (normalized) -->
     <g transform="translate(20.2375 119.729877)rotate(-90)scale(0.1 -0.1)">
      <defs>
       <path id="DejaVuSans-66" d="M 2375 4863 
L 2375 4384 
L 1825 4384 
Q 1516 4384 1395 4259 
Q 1275 4134 1275 3809 
L 1275 3500 
L 2222 3500 
L 2222 3053 
L 1275 3053 
L 1275 0 
L 697 0 
L 697 3053 
L 147 3053 
L 147 3500 
L 697 3500 
L 697 3744 
Q 697 4328 969 4595 
Q 1241 4863 1831 4863 
L 2375 4863 
z
" transform="scale(0.015625)"/>
       <path id="DejaVuSans-6c" d="M 603 4863 
L 1178 4863 
L 1178 0 
L 603 0 
L 603 4863 
z
" transform="scale(0.015625)"/>
       <path id="DejaVuSans-6f" d="M 1959 3097 
Q 1497 3097 1228 2736 
Q 959 2375 959 1747 
Q 959 1119 1226 758 
Q 1494 397 1959 397 
Q 2419 397 2687 759 
Q 2956 1122 2956 1747 
Q 2956 2369 2687 2733 
Q 2419 3097 1959 3097 
z
M 1959 3584 
Q 2709 3584 3137 3096 
Q 3566 2609 3566 1747 
Q 3566 888 3137 398 
Q 2709 -91 1959 -91 
Q 1206 -91 779 398 
Q 353 888 353 1747 
Q 353 2609 779 3096 
Q 1206 3584 1959 3584 
z
" transform="scale(0.015625)"/>
       <path id="DejaVuSans-77" d="M 269 3500 
L 844 3500 
L 1563 769 
L 2278 3500 
L 2956 3500 
L 3675 769 
L 4391 3500 
L 4966 3500 
L 4050 0 
L 3372 0 
L 2619 2869 
L 1863 0 
L 1184 0 
L 269 3500 
z
" transform="scale(0.015625)"/>
       <path id="DejaVuSans-20" transform="scale(0.015625)"/>
       <path id="DejaVuSans-72" d="M 2631 2963 
Q 2534 3019 2420 3045 
Q 2306 3072 2169 3072 
Q 1681 3072 1420 2755 
Q 1159 2438 1159 1844 
L 1159 0 
L 581 0 
L 581 3500 
L 1159 3500 
L 1159 2956 
Q 1341 3275 1631 3429 
Q 1922 3584 2338 3584 
Q 2397 3584 2469 3576 
Q 2541 3569 2628 3553 
L 2631 2963 
z
" transform="scale(0.015625)"/>
       <path id="DejaVuSans-61" d="M 2194 1759 
Q 1497 1759 1228 1600 
Q 959 1441 959 1056 
Q 959 750 1161 570 
Q 1363 391 1709 391 
Q 2188 391 2477 730 
Q 2766 1069 2766 1631 
L 2766 1759 
L 2194 1759 
z
M 3341 1997 
L 3341 0 
L 2766 0 
L 2766 531 
Q 2569 213 2275 61 
Q 1981 -91 1556 -91 
Q 1019 -91 701 211 
Q 384 513 384 1019 
Q 384 1609 779 1909 
Q 1175 2209 1959 2209 
L 2766 2209 
L 2766 2266 
Q 2766 2663 2505 2880 
Q 2244 3097 1772 3097 
Q 1472 3097 1187 3025 
Q 903 2953 641 2809 
L 641 3341 
Q 956 3463 1253 3523 
Q 1550 3584 1831 3584 
Q 2591 3584 2966 3190 
Q 3341 2797 3341 1997 
z
" transform="scale(0.015625)"/>
       <path id="DejaVuSans-74" d="M 1172 4494 
L 1172 3500 
L 2356 3500 
L 2356 3053 
L 1172 3053 
L 1172 1153 
Q 1172 725 1289 603 
Q 1406 481 1766 481 
L 2356 481 
L 2356 0 
L 1766 0 
Q 1100 0 847 248 
Q 594 497 594 1153 
L 594 3053 
L 172 3053 
L 172 3500 
L 594 3500 
L 594 4494 
L 1172 4494 
z
" transform="scale(0.015625)"/>
       <path id="DejaVuSans-65" d="M 3597 1894 
L 3597 1613 
L 953 1613 
Q 991 1019 1311 708 
Q 1631 397 2203 397 
Q 2534 397 2845 478 
Q 3156 559 3463 722 
L 3463 178 
Q 3153 47 2828 -22 
Q 2503 -91 2169 -91 
Q 1331 -91 842 396 
Q 353 884 353 1716 
Q 353 2575 817 3079 
Q 1281 3584 2069 3584 
Q 2775 3584 3186 3129 
Q 3597 2675 3597 1894 
z
M 3022 2063 
Q 3016 2534 2758 2815 
Q 2500 3097 2075 3097 
Q 1594 3097 1305 2825 
Q 1016 2553 972 2059 
L 3022 2063 
z
" transform="scale(0.015625)"/>
       <path id="DejaVuSans-28" d="M 1984 4856 
Q 1566 4138 1362 3434 
Q 1159 2731 1159 2009 
Q 1159 1288 1364 580 
Q 1569 -128 1984 -844 
L 1484 -844 
Q 1016 -109 783 600 
Q 550 1309 550 2009 
Q 550 2706 781 3412 
Q 1013 4119 1484 4856 
L 1984 4856 
z
" transform="scale(0.015625)"/>
       <path id="DejaVuSans-6e" d="M 3513 2113 
L 3513 0 
L 2938 0 
L 2938 2094 
Q 2938 2591 2744 2837 
Q 2550 3084 2163 3084 
Q 1697 3084 1428 2787 
Q 1159 2491 1159 1978 
L 1159 0 
L 581 0 
L 581 3500 
L 1159 3500 
L 1159 2956 
Q 1366 3272 1645 3428 
Q 1925 3584 2291 3584 
Q 2894 3584 3203 3211 
Q 3513 2838 3513 2113 
z
" transform="scale(0.015625)"/>
       <path id="DejaVuSans-6d" d="M 3328 2828 
Q 3544 3216 3844 3400 
Q 4144 3584 4550 3584 
Q 5097 3584 5394 3201 
Q 5691 2819 5691 2113 
L 5691 0 
L 5113 0 
L 5113 2094 
Q 5113 2597 4934 2840 
Q 4756 3084 4391 3084 
Q 3944 3084 3684 2787 
Q 3425 2491 3425 1978 
L 3425 0 
L 2847 0 
L 2847 2094 
Q 2847 2600 2669 2842 
Q 2491 3084 2119 3084 
Q 1678 3084 1418 2786 
Q 1159 2488 1159 1978 
L 1159 0 
L 581 0 
L 581 3500 
L 1159 3500 
L 1159 2956 
Q 1356 3278 1631 3431 
Q 1906 3584 2284 3584 
Q 2666 3584 2933 3390 
Q 3200 3197 3328 2828 
z
" transform="scale(0.015625)"/>
       <path id="DejaVuSans-69" d="M 603 3500 
L 1178 3500 
L 1178 0 
L 603 0 
L 603 3500 
z
M 603 4863 
L 1178 4863 
L 1178 4134 
L 603 4134 
L 603 4863 
z
" transform="scale(0.015625)"/>
       <path id="DejaVuSans-7a" d="M 353 3500 
L 3084 3500 
L 3084 2975 
L 922 459 
L 3084 459 
L 3084 0 
L 275 0 
L 275 525 
L 2438 3041 
L 353 3041 
L 353 3500 
z
" transform="scale(0.015625)"/>
       <path id="DejaVuSans-64" d="M 2906 2969 
L 2906 4863 
L 3481 4863 
L 3481 0 
L 2906 0 
L 2906 525 
Q 2725 213 2448 61 
Q 2172 -91 1784 -91 
Q 1150 -91 751 415 
Q 353 922 353 1747 
Q 353 2572 751 3078 
Q 1150 3584 1784 3584 
Q 2172 3584 2448 3432 
Q 2725 3281 2906 2969 
z
M 947 1747 
Q 947 1113 1208 752 
Q 1469 391 1925 391 
Q 2381 391 2643 752 
Q 2906 1113 2906 1747 
Q 2906 2381 2643 2742 
Q 2381 3103 1925 3103 
Q 1469 3103 1208 2742 
Q 947 2381 947 1747 
z
" transform="scale(0.015625)"/>
       <path id="DejaVuSans-29" d="M 513 4856 
L 1013 4856 
Q 1481 4119 1714 3412 
Q 1947 2706 1947 2009 
Q 1947 1309 1714 600 
Q 1481 -109 1013 -844 
L 513 -844 
Q 928 -128 1133 580 
Q 1338 1288 1338 2009 
Q 1338 2731 1133 3434 
Q 928 4138 513 4856 
z
" transform="scale(0.015625)"/>
      </defs>
      <use xlink:href="#DejaVuSans-66"/>
      <use xlink:href="#DejaVuSans-6c" x="35.205078"/>
      <use xlink:href="#DejaVuSans-6f" x="62.988281"/>
      <use xlink:href="#DejaVuSans-77" x="124.169922"/>
      <use xlink:href="#DejaVuSans-20" x="205.957031"/>
      <use xlink:href="#DejaVuSans-72" x="237.744141"/>
      <use xlink:href="#DejaVuSans-61" x="278.857422"/>
      <use xlink:href="#DejaVuSans-74" x="340.136719"/>
      <use xlink:href="#DejaVuSans-65" x="379.345703"/>
      <use xlink:href="#DejaVuSans-20" x="440.869141"/>
      <use xlink:href="#DejaVuSans-28" x="472.65625"/>
      <use xlink:href="#DejaVuSans-6e" x="511.669922"/>
      <use xlink:href="#DejaVuSans-6f" x="575.048828"/>
      <use xlink:href="#DejaVuSans-72" x="636.230469"/>
      <use xlink:href="#DejaVuSans-6d" x="675.59375"/>
      <use xlink:href="#DejaVuSans-61" x="773.005859"/>
      <use xlink:href="#DejaVuSans-6c" x="834.285156"/>
      <use xlink:href="#DejaVuSans-69" x="862.068359"/>
      <use xlink:href="#DejaVuSans-7a" x="889.851562"/>
      <use xlink:href="#DejaVuSans-65" x="942.341797"/>
      <use xlink:href="#DejaVuSans-64" x="1003.865234"/>
      <use xlink:href="#DejaVuSans-29" x="1067.341797"/>
     </g>
    </g>
   </g>
   <g id="line2d_9">
    <path d="M 73.832727 56.134636 
L 77.079273 49.691636 
L 80.325818 53.684233 
L 83.572364 54.948228 
L 86.818909 55.503325 
L 90.065455 55.771931 
L 93.312 55.921579 
L 96.558545 56.003549 
L 99.805091 56.045819 
L 103.051636 56.069262 
L 106.298182 56.084469 
L 109.544727 56.09408 
L 112.791273 56.101022 
L 116.037818 56.107023 
L 119.284364 56.110066 
L 122.530909 54.572775 
L 125.777455 47.762685 
L 129.024 47.762066 
L 132.270545 47.761523 
L 135.517091 47.761023 
L 138.763636 47.760537 
L 142.010182 47.76005 
L 145.256727 47.759547 
L 148.503273 47.759023 
L 151.749818 47.75847 
L 154.996364 47.757878 
L 158.242909 47.757249 
L 161.489455 47.756576 
L 164.736 47.75586 
L 167.982545 47.755111 
L 171.229091 47.802554 
L 174.475636 54.065377 
L 177.722182 53.998991 
L 180.968727 53.913832 
L 184.215273 53.782939 
L 187.461818 53.907567 
L 190.708364 53.76413 
L 193.954909 54.136909 
L 197.201455 54.479174 
L 200.448 54.865087 
L 203.694545 55.172167 
L 206.941091 55.463499 
L 210.187636 55.665598 
L 213.434182 55.817569 
L 216.680727 55.919472 
L 219.927273 55.990938 
L 223.173818 56.036688 
L 226.420364 56.065511 
L 229.666909 56.08532 
L 232.913455 56.096985 
L 236.16 56.103327 
L 239.406545 56.107722 
L 242.653091 56.108472 
L 245.899636 56.108901 
L 249.146182 56.10933 
L 252.392727 56.109686 
L 255.639273 56.110032 
L 258.885818 56.11033 
L 262.132364 56.110498 
L 265.378909 56.110666 
L 268.625455 56.231343 
L 271.872 60.950898 
L 275.118545 64.257537 
L 278.365091 66.70309 
L 281.611636 67.820036 
L 284.858182 67.836214 
L 288.104727 67.165445 
L 291.351273 66.155434 
L 294.597818 65.041417 
L 297.844364 63.914196 
L 301.090909 62.878956 
L 304.337455 61.908064 
L 307.584 61.038465 
L 310.830545 60.270726 
L 314.077091 59.603496 
L 317.323636 59.027958 
L 320.570182 58.53443 
L 323.816727 58.139101 
L 327.063273 57.779356 
L 330.309818 57.486257 
L 333.556364 57.239643 
L 336.802909 57.034145 
L 340.049455 56.865115 
L 343.296 56.726692 
L 346.542545 56.615309 
L 349.789091 56.525041 
L 353.035636 56.452937 
L 356.282182 56.392744 
L 359.528727 56.34441 
L 362.775273 56.30321 
L 366.021818 56.270062 
L 369.268364 56.242109 
L 372.514909 56.219531 
L 375.761455 56.200656 
L 379.008 56.184742 
L 382.254545 56.172502 
L 385.501091 56.162702 
L 388.747636 56.15424 
L 391.994182 56.14624 
L 395.240727 56.138323 
L 398.487273 56.134601 
" clip-path="url(#pd388f21d87)" style="fill: none; stroke: #1f77b4; stroke-width: 1.5; stroke-linecap: square"/>
   </g>
   <g id="line2d_10">
    <path d="M 73.832727 56.14794 
L 77.079273 43.557517 
L 80.325818 51.343306 
L 83.572364 53.823413 
L 86.818909 54.914762 
L 90.065455 55.442833 
L 93.312 55.737538 
L 96.558545 55.899015 
L 99.805091 55.98228 
L 103.051636 56.028514 
L 106.298182 56.058549 
L 109.544727 56.077537 
L 112.791273 56.091271 
L 116.037818 56.103157 
L 119.284364 56.109174 
L 122.530909 52.292172 
L 125.777455 47.766068 
L 129.024 47.763673 
L 132.270545 47.761568 
L 135.517091 47.759761 
L 138.763636 47.758226 
L 142.010182 47.756943 
L 145.256727 47.755876 
L 148.503273 47.75501 
L 151.749818 47.754308 
L 154.996364 47.753736 
L 158.242909 47.753288 
L 161.489455 47.752921 
L 164.736 47.752612 
L 167.982545 47.752376 
L 171.229091 47.923739 
L 174.475636 55.739523 
L 177.722182 55.728827 
L 180.968727 55.715429 
L 184.215273 55.694261 
L 187.461818 55.718612 
L 190.708364 55.69443 
L 193.954909 55.761374 
L 197.201455 55.822164 
L 200.448 55.89047 
L 203.694545 55.944801 
L 206.941091 55.996363 
L 210.187636 56.032081 
L 213.434182 56.058982 
L 216.680727 56.077023 
L 219.927273 56.089691 
L 223.173818 56.097806 
L 226.420364 56.102922 
L 229.666909 56.106441 
L 232.913455 56.108516 
L 236.16 56.109644 
L 239.406545 56.110427 
L 242.653091 56.110561 
L 245.899636 56.110639 
L 249.146182 56.110716 
L 252.392727 56.110779 
L 255.639273 56.110841 
L 258.885818 56.110895 
L 262.132364 56.110925 
L 265.378909 56.110955 
L 268.625455 56.461851 
L 271.872 65.994816 
L 275.118545 73.410849 
L 278.365091 79.928161 
L 281.611636 84.047911 
L 284.858182 85.267862 
L 288.104727 84.183113 
L 291.351273 81.577002 
L 294.597818 78.327028 
L 297.844364 74.919595 
L 301.090909 71.797392 
L 304.337455 68.963309 
L 307.584 66.554116 
L 310.830545 64.550097 
L 314.077091 62.916343 
L 317.323636 61.599476 
L 320.570182 60.536425 
L 323.816727 59.697964 
L 327.063273 58.999487 
L 330.309818 58.441419 
L 333.556364 57.987661 
L 336.802909 57.620439 
L 340.049455 57.327487 
L 343.296 57.093966 
L 346.542545 56.911765 
L 349.789091 56.766074 
L 353.035636 56.652579 
L 356.282182 56.556062 
L 359.528727 56.480072 
L 362.775273 56.414175 
L 366.021818 56.361454 
L 369.268364 56.316599 
L 372.514909 56.280702 
L 375.761455 56.251052 
L 379.008 56.226298 
L 382.254545 56.206828 
L 385.501091 56.190811 
L 388.747636 56.177365 
L 391.994182 56.165507 
L 395.240727 56.154459 
L 398.487273 56.14749 
" clip-path="url(#pd388f21d87)" style="fill: none; stroke: #ff7f0e; stroke-width: 1.5; stroke-linecap: square"/>
   </g>
   <g id="line2d_11">
    <path d="M 73.832727 56.113713 
L 77.079273 55.386791 
L 80.325818 55.83758 
L 83.572364 55.98008 
L 86.818909 56.042615 
L 90.065455 56.072881 
L 93.312 56.089725 
L 96.558545 56.098949 
L 99.805091 56.103707 
L 103.051636 56.106342 
L 106.298182 56.10805 
L 109.544727 56.10913 
L 112.791273 56.109908 
L 116.037818 56.110581 
L 119.284364 56.110922 
L 122.530909 55.662755 
L 125.777455 47.758565 
L 129.024 47.758143 
L 132.270545 47.757761 
L 135.517091 47.757385 
L 138.763636 47.757001 
L 142.010182 47.756605 
L 145.256727 47.756195 
L 148.503273 47.755775 
L 151.749818 47.755343 
L 154.996364 47.754901 
L 158.242909 47.754453 
L 161.489455 47.753995 
L 164.736 47.753528 
L 167.982545 47.753055 
L 171.229091 47.754048 
L 174.475636 52.570415 
L 177.722182 52.442633 
L 180.968727 52.275446 
L 184.215273 52.021807 
L 187.461818 52.225455 
L 190.708364 51.948834 
L 193.954909 52.608399 
L 197.201455 53.2167 
L 200.448 53.903936 
L 203.694545 54.449609 
L 206.941091 54.96722 
L 210.187636 55.325754 
L 213.434182 55.5945 
L 216.680727 55.774511 
L 219.927273 55.900464 
L 223.173818 55.98092 
L 226.420364 56.031518 
L 229.666909 56.066244 
L 232.913455 56.08664 
L 236.16 56.097697 
L 239.406545 56.105352 
L 242.653091 56.106636 
L 245.899636 56.107369 
L 249.146182 56.108102 
L 252.392727 56.108718 
L 255.639273 56.109318 
L 258.885818 56.109837 
L 262.132364 56.110129 
L 265.378909 56.11042 
L 268.625455 56.122547 
L 271.872 56.649782 
L 275.118545 57.009443 
L 278.365091 57.26272 
L 281.611636 57.367614 
L 284.858182 57.359213 
L 288.104727 57.283615 
L 291.351273 57.177293 
L 294.597818 57.062646 
L 297.844364 56.94767 
L 301.090909 56.842223 
L 304.337455 56.742984 
L 307.584 56.653358 
L 310.830545 56.573409 
L 314.077091 56.503006 
L 317.323636 56.441302 
L 320.570182 56.38761 
L 323.816727 56.344755 
L 327.063273 56.304364 
L 330.309818 56.271423 
L 333.556364 56.24343 
L 336.802909 56.219897 
L 340.049455 56.200356 
L 343.296 56.18421 
L 346.542545 56.171091 
L 349.789091 56.160393 
L 353.035636 56.151781 
L 356.282182 56.144611 
L 359.528727 56.138821 
L 362.775273 56.133911 
L 366.021818 56.129953 
L 369.268364 56.126629 
L 372.514909 56.123931 
L 375.761455 56.121665 
L 379.008 56.119747 
L 382.254545 56.118287 
L 385.501091 56.117135 
L 388.747636 56.116127 
L 391.994182 56.115143 
L 395.240727 56.114144 
L 398.487273 56.113744 
" clip-path="url(#pd388f21d87)" style="fill: none; stroke: #2ca02c; stroke-width: 1.5; stroke-linecap: square"/>
   </g>
   <g id="patch_3">
    <path d="M 57.6 87.353379 
L 57.6 41.472 
" style="fill: none; stroke: #000000; stroke-width: 0.8; stroke-linejoin: miter; stroke-linecap: square"/>
   </g>
   <g id="patch_4">
    <path d="M 414.72 87.353379 
L 414.72 41.472 
" style="fill: none; stroke: #000000; stroke-width: 0.8; stroke-linejoin: miter; stroke-linecap: square"/>
   </g>
   <g id="patch_5">
    <path d="M 57.6 87.353379 
L 414.72 87.353379 
" style="fill: none; stroke: #000000; stroke-width: 0.8; stroke-linejoin: miter; stroke-linecap: square"/>
   </g>
   <g id="patch_6">
    <path d="M 57.6 41.472 
L 414.72 41.472 
" style="fill: none; stroke: #000000; stroke-width: 0.8; stroke-linejoin: miter; stroke-linecap: square"/>
   </g>
   <g id="text_4">
    <!-- velocity vs time (container 1)   -->
    <g transform="translate(144.106875 35.472)scale(0.12 -0.12)">
     <defs>
      <path id="DejaVuSans-76" d="M 191 3500 
L 800 3500 
L 1894 563 
L 2988 3500 
L 3597 3500 
L 2284 0 
L 1503 0 
L 191 3500 
z
" transform="scale(0.015625)"/>
      <path id="DejaVuSans-63" d="M 3122 3366 
L 3122 2828 
Q 2878 2963 2633 3030 
Q 2388 3097 2138 3097 
Q 1578 3097 1268 2742 
Q 959 2388 959 1747 
Q 959 1106 1268 751 
Q 1578 397 2138 397 
Q 2388 397 2633 464 
Q 2878 531 3122 666 
L 3122 134 
Q 2881 22 2623 -34 
Q 2366 -91 2075 -91 
Q 1284 -91 818 406 
Q 353 903 353 1747 
Q 353 2603 823 3093 
Q 1294 3584 2113 3584 
Q 2378 3584 2631 3529 
Q 2884 3475 3122 3366 
z
" transform="scale(0.015625)"/>
      <path id="DejaVuSans-79" d="M 2059 -325 
Q 1816 -950 1584 -1140 
Q 1353 -1331 966 -1331 
L 506 -1331 
L 506 -850 
L 844 -850 
Q 1081 -850 1212 -737 
Q 1344 -625 1503 -206 
L 1606 56 
L 191 3500 
L 800 3500 
L 1894 763 
L 2988 3500 
L 3597 3500 
L 2059 -325 
z
" transform="scale(0.015625)"/>
      <path id="DejaVuSans-73" d="M 2834 3397 
L 2834 2853 
Q 2591 2978 2328 3040 
Q 2066 3103 1784 3103 
Q 1356 3103 1142 2972 
Q 928 2841 928 2578 
Q 928 2378 1081 2264 
Q 1234 2150 1697 2047 
L 1894 2003 
Q 2506 1872 2764 1633 
Q 3022 1394 3022 966 
Q 3022 478 2636 193 
Q 2250 -91 1575 -91 
Q 1294 -91 989 -36 
Q 684 19 347 128 
L 347 722 
Q 666 556 975 473 
Q 1284 391 1588 391 
Q 1994 391 2212 530 
Q 2431 669 2431 922 
Q 2431 1156 2273 1281 
Q 2116 1406 1581 1522 
L 1381 1569 
Q 847 1681 609 1914 
Q 372 2147 372 2553 
Q 372 3047 722 3315 
Q 1072 3584 1716 3584 
Q 2034 3584 2315 3537 
Q 2597 3491 2834 3397 
z
" transform="scale(0.015625)"/>
      <path id="DejaVuSans-31" d="M 794 531 
L 1825 531 
L 1825 4091 
L 703 3866 
L 703 4441 
L 1819 4666 
L 2450 4666 
L 2450 531 
L 3481 531 
L 3481 0 
L 794 0 
L 794 531 
z
" transform="scale(0.015625)"/>
     </defs>
     <use xlink:href="#DejaVuSans-76"/>
     <use xlink:href="#DejaVuSans-65" x="59.179688"/>
     <use xlink:href="#DejaVuSans-6c" x="120.703125"/>
     <use xlink:href="#DejaVuSans-6f" x="148.486328"/>
     <use xlink:href="#DejaVuSans-63" x="209.667969"/>
     <use xlink:href="#DejaVuSans-69" x="264.648438"/>
     <use xlink:href="#DejaVuSans-74" x="292.431641"/>
     <use xlink:href="#DejaVuSans-79" x="331.640625"/>
     <use xlink:href="#DejaVuSans-20" x="390.820312"/>
     <use xlink:href="#DejaVuSans-76" x="422.607422"/>
     <use xlink:href="#DejaVuSans-73" x="481.787109"/>
     <use xlink:href="#DejaVuSans-20" x="533.886719"/>
     <use xlink:href="#DejaVuSans-74" x="565.673828"/>
     <use xlink:href="#DejaVuSans-69" x="604.882812"/>
     <use xlink:href="#DejaVuSans-6d" x="632.666016"/>
     <use xlink:href="#DejaVuSans-65" x="730.078125"/>
     <use xlink:href="#DejaVuSans-20" x="791.601562"/>
     <use xlink:href="#DejaVuSans-28" x="823.388672"/>
     <use xlink:href="#DejaVuSans-63" x="862.402344"/>
     <use xlink:href="#DejaVuSans-6f" x="917.382812"/>
     <use xlink:href="#DejaVuSans-6e" x="978.564453"/>
     <use xlink:href="#DejaVuSans-74" x="1041.943359"/>
     <use xlink:href="#DejaVuSans-61" x="1081.152344"/>
     <use xlink:href="#DejaVuSans-69" x="1142.431641"/>
     <use xlink:href="#DejaVuSans-6e" x="1170.214844"/>
     <use xlink:href="#DejaVuSans-65" x="1233.59375"/>
     <use xlink:href="#DejaVuSans-72" x="1295.117188"/>
     <use xlink:href="#DejaVuSans-20" x="1336.230469"/>
     <use xlink:href="#DejaVuSans-31" x="1368.017578"/>
     <use xlink:href="#DejaVuSans-29" x="1431.640625"/>
     <use xlink:href="#DejaVuSans-20" x="1470.654297"/>
     <use xlink:href="#DejaVuSans-20" x="1502.441406"/>
    </g>
   </g>
   <g id="legend_1">
    <g id="patch_7">
     <path d="M 64.6 93.506375 
L 139.240625 93.506375 
Q 141.240625 93.506375 141.240625 91.506375 
L 141.240625 48.472 
Q 141.240625 46.472 139.240625 46.472 
L 64.6 46.472 
Q 62.6 46.472 62.6 48.472 
L 62.6 91.506375 
Q 62.6 93.506375 64.6 93.506375 
z
" style="fill: #ffffff; opacity: 0.8; stroke: #cccccc; stroke-linejoin: miter"/>
    </g>
    <g id="line2d_12">
     <path d="M 66.6 54.570437 
L 76.6 54.570437 
L 86.6 54.570437 
" style="fill: none; stroke: #1f77b4; stroke-width: 1.5; stroke-linecap: square"/>
    </g>
    <g id="text_5">
     <!-- mid flow -->
     <g transform="translate(94.6 58.070437)scale(0.1 -0.1)">
      <use xlink:href="#DejaVuSans-6d"/>
      <use xlink:href="#DejaVuSans-69" x="97.412109"/>
      <use xlink:href="#DejaVuSans-64" x="125.195312"/>
      <use xlink:href="#DejaVuSans-20" x="188.671875"/>
      <use xlink:href="#DejaVuSans-66" x="220.458984"/>
      <use xlink:href="#DejaVuSans-6c" x="255.664062"/>
      <use xlink:href="#DejaVuSans-6f" x="283.447266"/>
      <use xlink:href="#DejaVuSans-77" x="344.628906"/>
     </g>
    </g>
    <g id="line2d_13">
     <path d="M 66.6 69.248562 
L 76.6 69.248562 
L 86.6 69.248562 
" style="fill: none; stroke: #ff7f0e; stroke-width: 1.5; stroke-linecap: square"/>
    </g>
    <g id="text_6">
     <!-- v0 flow -->
     <g transform="translate(94.6 72.748562)scale(0.1 -0.1)">
      <use xlink:href="#DejaVuSans-76"/>
      <use xlink:href="#DejaVuSans-30" x="59.179688"/>
      <use xlink:href="#DejaVuSans-20" x="122.802734"/>
      <use xlink:href="#DejaVuSans-66" x="154.589844"/>
      <use xlink:href="#DejaVuSans-6c" x="189.794922"/>
      <use xlink:href="#DejaVuSans-6f" x="217.578125"/>
      <use xlink:href="#DejaVuSans-77" x="278.759766"/>
     </g>
    </g>
    <g id="line2d_14">
     <path d="M 66.6 83.926687 
L 76.6 83.926687 
L 86.6 83.926687 
" style="fill: none; stroke: #2ca02c; stroke-width: 1.5; stroke-linecap: square"/>
    </g>
    <g id="text_7">
     <!-- vN flow -->
     <g transform="translate(94.6 87.426687)scale(0.1 -0.1)">
      <defs>
       <path id="DejaVuSans-4e" d="M 628 4666 
L 1478 4666 
L 3547 763 
L 3547 4666 
L 4159 4666 
L 4159 0 
L 3309 0 
L 1241 3903 
L 1241 0 
L 628 0 
L 628 4666 
z
" transform="scale(0.015625)"/>
      </defs>
      <use xlink:href="#DejaVuSans-76"/>
      <use xlink:href="#DejaVuSans-4e" x="59.179688"/>
      <use xlink:href="#DejaVuSans-20" x="133.984375"/>
      <use xlink:href="#DejaVuSans-66" x="165.771484"/>
      <use xlink:href="#DejaVuSans-6c" x="200.976562"/>
      <use xlink:href="#DejaVuSans-6f" x="228.759766"/>
      <use xlink:href="#DejaVuSans-77" x="289.941406"/>
     </g>
    </g>
   </g>
  </g>
  <g id="axes_2">
   <g id="patch_8">
    <path d="M 57.6 142.411034 
L 414.72 142.411034 
L 414.72 96.529655 
L 57.6 96.529655 
z
" style="fill: #ffffff"/>
   </g>
   <g id="matplotlib.axis_3">
    <g id="xtick_7">
     <g id="line2d_15">
      <g>
       <use xlink:href="#m4c0d794226" x="73.832727" y="142.411034" style="stroke: #000000; stroke-width: 0.8"/>
      </g>
     </g>
    </g>
    <g id="xtick_8">
     <g id="line2d_16">
      <g>
       <use xlink:href="#m4c0d794226" x="138.763636" y="142.411034" style="stroke: #000000; stroke-width: 0.8"/>
      </g>
     </g>
    </g>
    <g id="xtick_9">
     <g id="line2d_17">
      <g>
       <use xlink:href="#m4c0d794226" x="203.694545" y="142.411034" style="stroke: #000000; stroke-width: 0.8"/>
      </g>
     </g>
    </g>
    <g id="xtick_10">
     <g id="line2d_18">
      <g>
       <use xlink:href="#m4c0d794226" x="268.625455" y="142.411034" style="stroke: #000000; stroke-width: 0.8"/>
      </g>
     </g>
    </g>
    <g id="xtick_11">
     <g id="line2d_19">
      <g>
       <use xlink:href="#m4c0d794226" x="333.556364" y="142.411034" style="stroke: #000000; stroke-width: 0.8"/>
      </g>
     </g>
    </g>
    <g id="xtick_12">
     <g id="line2d_20">
      <g>
       <use xlink:href="#m4c0d794226" x="398.487273" y="142.411034" style="stroke: #000000; stroke-width: 0.8"/>
      </g>
     </g>
    </g>
   </g>
   <g id="matplotlib.axis_4">
    <g id="ytick_3">
     <g id="line2d_21">
      <g>
       <use xlink:href="#m281cb9ea91" x="57.6" y="140.745274" style="stroke: #000000; stroke-width: 0.8"/>
      </g>
     </g>
     <g id="text_8">
      <!-- 0 -->
      <g transform="translate(44.2375 144.544493)scale(0.1 -0.1)">
       <use xlink:href="#DejaVuSans-30"/>
      </g>
     </g>
    </g>
    <g id="ytick_4">
     <g id="line2d_22">
      <g>
       <use xlink:href="#m281cb9ea91" x="57.6" y="98.771355" style="stroke: #000000; stroke-width: 0.8"/>
      </g>
     </g>
     <g id="text_9">
      <!-- 1 -->
      <g transform="translate(44.2375 102.570574)scale(0.1 -0.1)">
       <use xlink:href="#DejaVuSans-31"/>
      </g>
     </g>
    </g>
   </g>
   <g id="line2d_23">
    <path d="M 73.832727 140.325517 
L 77.079273 123.981916 
L 80.325818 114.060832 
L 83.572364 108.041415 
L 86.818909 104.384633 
L 90.065455 102.182561 
L 93.312 100.839306 
L 96.558545 100.025104 
L 99.805091 99.535638 
L 103.051636 99.233915 
L 106.298182 99.0588 
L 109.544727 98.942618 
L 112.791273 98.873151 
L 116.037818 98.828531 
L 119.284364 98.807792 
L 122.530909 98.746261 
L 125.777455 98.615342 
L 129.024 98.615327 
L 132.270545 98.615312 
L 135.517091 98.615299 
L 138.763636 98.615285 
L 142.010182 98.615272 
L 145.256727 98.615259 
L 148.503273 98.615246 
L 151.749818 98.615234 
L 154.996364 98.615221 
L 158.242909 98.615209 
L 161.489455 98.615196 
L 164.736 98.615184 
L 167.982545 98.615172 
L 171.229091 98.616743 
L 174.475636 113.598731 
L 177.722182 122.623041 
L 180.968727 128.086343 
L 184.215273 131.389523 
L 187.461818 133.391846 
L 190.708364 134.625331 
L 193.954909 135.372136 
L 197.201455 135.827516 
L 200.448 136.106125 
L 203.694545 136.274315 
L 206.941091 136.381722 
L 210.187636 136.447012 
L 213.434182 136.486083 
L 216.680727 136.510064 
L 219.927273 136.524917 
L 223.173818 136.533934 
L 226.420364 136.539419 
L 229.666909 136.542957 
L 232.913455 136.544875 
L 236.16 136.546039 
L 239.406545 136.546881 
L 242.653091 136.547141 
L 245.899636 136.547374 
L 249.146182 136.547606 
L 252.392727 136.547694 
L 255.639273 136.547761 
L 258.885818 136.547815 
L 262.132364 136.547835 
L 265.378909 136.547855 
L 268.625455 136.551865 
L 271.872 138.028993 
L 275.118545 138.926213 
L 278.365091 139.469285 
L 281.611636 139.798072 
L 284.858182 139.997871 
L 288.104727 140.12035 
L 291.351273 140.195854 
L 294.597818 140.242856 
L 297.844364 140.272486 
L 301.090909 140.291117 
L 304.337455 140.302891 
L 307.584 140.310473 
L 310.830545 140.315313 
L 314.077091 140.318492 
L 317.323636 140.320588 
L 320.570182 140.32199 
L 323.816727 140.32295 
L 327.063273 140.323617 
L 330.309818 140.324092 
L 333.556364 140.324434 
L 336.802909 140.324689 
L 340.049455 140.324875 
L 343.296 140.325014 
L 346.542545 140.325116 
L 349.789091 140.3252 
L 353.035636 140.325258 
L 356.282182 140.325312 
L 359.528727 140.325351 
L 362.775273 140.325385 
L 366.021818 140.325411 
L 369.268364 140.325434 
L 372.514909 140.325451 
L 375.761455 140.325466 
L 379.008 140.325478 
L 382.254545 140.325487 
L 385.501091 140.325496 
L 388.747636 140.325503 
L 391.994182 140.325508 
L 395.240727 140.325512 
L 398.487273 140.325517 
" clip-path="url(#p8e8b3137e9)" style="fill: none; stroke: #1f77b4; stroke-width: 1.5; stroke-linecap: square"/>
   </g>
   <g id="line2d_24">
    <path d="M 73.832727 140.325204 
L 77.079273 124.079597 
L 80.325818 114.097866 
L 83.572364 108.059175 
L 86.818909 104.393919 
L 90.065455 102.187746 
L 93.312 100.842204 
L 96.558545 100.026748 
L 99.805091 99.536636 
L 103.051636 99.234555 
L 106.298182 99.059207 
L 109.544727 98.942878 
L 112.791273 98.873305 
L 116.037818 98.828592 
L 119.284364 98.807807 
L 122.530909 98.773306 
L 125.777455 98.695328 
L 129.024 98.695323 
L 132.270545 98.695319 
L 135.517091 98.695315 
L 138.763636 98.695311 
L 142.010182 98.695307 
L 145.256727 98.695303 
L 148.503273 98.695299 
L 151.749818 98.695294 
L 154.996364 98.69529 
L 158.242909 98.695285 
L 161.489455 98.69528 
L 164.736 98.695275 
L 167.982545 98.69527 
L 171.229091 98.695745 
L 174.475636 113.608527 
L 177.722182 122.633137 
L 180.968727 128.09682 
L 184.215273 131.400592 
L 187.461818 133.402296 
L 190.708364 134.636442 
L 193.954909 135.381473 
L 197.201455 135.835232 
L 200.448 136.112018 
L 203.694545 136.278756 
L 206.941091 136.384785 
L 210.187636 136.44912 
L 213.434182 136.487473 
L 216.680727 136.510972 
L 219.927273 136.525487 
L 223.173818 136.534287 
L 226.420364 136.539636 
L 229.666909 136.543079 
L 232.913455 136.544942 
L 236.16 136.546076 
L 239.406545 136.546897 
L 242.653091 136.547154 
L 245.899636 136.547384 
L 249.146182 136.547615 
L 252.392727 136.5477 
L 255.639273 136.547766 
L 258.885818 136.547819 
L 262.132364 136.547838 
L 265.378909 136.547857 
L 268.625455 136.54948 
L 271.872 137.953307 
L 275.118545 138.795664 
L 278.365091 139.293371 
L 281.611636 139.596307 
L 284.858182 139.790593 
L 288.104727 139.922402 
L 291.351273 140.016216 
L 294.597818 140.085039 
L 297.844364 140.137273 
L 301.090909 140.176646 
L 304.337455 140.207479 
L 307.584 140.231578 
L 310.830545 140.250463 
L 314.077091 140.265367 
L 317.323636 140.277154 
L 320.570182 140.28656 
L 323.816727 140.293876 
L 327.063273 140.300009 
L 330.309818 140.304885 
L 333.556364 140.308854 
L 336.802909 140.312077 
L 340.049455 140.314658 
L 343.296 140.316726 
L 346.542545 140.318351 
L 349.789091 140.319659 
L 353.035636 140.32068 
L 356.282182 140.321546 
L 359.528727 140.322229 
L 362.775273 140.322818 
L 366.021818 140.32329 
L 369.268364 140.32369 
L 372.514909 140.32401 
L 375.761455 140.324276 
L 379.008 140.324498 
L 382.254545 140.324673 
L 385.501091 140.324815 
L 388.747636 140.324936 
L 391.994182 140.325044 
L 395.240727 140.325145 
L 398.487273 140.325206 
" clip-path="url(#p8e8b3137e9)" style="fill: none; stroke: #ff7f0e; stroke-width: 1.5; stroke-linecap: square"/>
   </g>
   <g id="line2d_25">
    <path d="M 73.832727 140.325087 
L 77.079273 124.110522 
L 80.325818 114.109549 
L 83.572364 108.064772 
L 86.818909 104.396844 
L 90.065455 102.189378 
L 93.312 100.843116 
L 96.558545 100.027265 
L 99.805091 99.53695 
L 103.051636 99.234755 
L 106.298182 99.059335 
L 109.544727 98.94296 
L 112.791273 98.873353 
L 116.037818 98.828611 
L 119.284364 98.807811 
L 122.530909 98.781552 
L 125.777455 98.767352 
L 129.024 98.767352 
L 132.270545 98.767352 
L 135.517091 98.767352 
L 138.763636 98.767352 
L 142.010182 98.767351 
L 145.256727 98.767351 
L 148.503273 98.767351 
L 151.749818 98.767351 
L 154.996364 98.767351 
L 158.242909 98.76735 
L 161.489455 98.76735 
L 164.736 98.76735 
L 167.982545 98.76735 
L 171.229091 98.76763 
L 174.475636 113.632615 
L 177.722182 122.658055 
L 180.968727 128.122816 
L 184.215273 131.428231 
L 187.461818 133.428516 
L 190.708364 134.664453 
L 193.954909 135.405044 
L 197.201455 135.854715 
L 200.448 136.126884 
L 203.694545 136.289953 
L 206.941091 136.392501 
L 210.187636 136.454422 
L 213.434182 136.490963 
L 216.680727 136.513248 
L 219.927273 136.526912 
L 223.173818 136.535168 
L 226.420364 136.540175 
L 229.666909 136.543383 
L 232.913455 136.545108 
L 236.16 136.546167 
L 239.406545 136.546936 
L 242.653091 136.547184 
L 245.899636 136.547409 
L 249.146182 136.547635 
L 252.392727 136.547716 
L 255.639273 136.547777 
L 258.885818 136.547827 
L 262.132364 136.547844 
L 265.378909 136.547862 
L 268.625455 136.548938 
L 271.872 137.930136 
L 275.118545 138.756842 
L 278.365091 139.243228 
L 281.611636 139.541213 
L 284.858182 139.735627 
L 288.104727 139.870665 
L 291.351273 139.969186 
L 294.597818 140.043148 
L 297.844364 140.100561 
L 301.090909 140.144689 
L 304.337455 140.179989 
L 307.584 140.208105 
L 310.830545 140.230555 
L 314.077091 140.248575 
L 317.323636 140.263071 
L 320.570182 140.274815 
L 323.816727 140.284003 
L 327.063273 140.291865 
L 330.309818 140.298152 
L 333.556364 140.303313 
L 336.802909 140.307533 
L 340.049455 140.310938 
L 343.296 140.313684 
L 346.542545 140.315856 
L 349.789091 140.31761 
L 353.035636 140.318988 
L 356.282182 140.320151 
L 359.528727 140.321074 
L 362.775273 140.321867 
L 366.021818 140.322502 
L 369.268364 140.32304 
L 372.514909 140.323472 
L 375.761455 140.323832 
L 379.008 140.324133 
L 382.254545 140.324368 
L 385.501091 140.324559 
L 388.747636 140.324721 
L 391.994182 140.324869 
L 395.240727 140.325011 
L 398.487273 140.32509 
" clip-path="url(#p8e8b3137e9)" style="fill: none; stroke: #2ca02c; stroke-width: 1.5; stroke-linecap: square"/>
   </g>
   <g id="patch_9">
    <path d="M 57.6 142.411034 
L 57.6 96.529655 
" style="fill: none; stroke: #000000; stroke-width: 0.8; stroke-linejoin: miter; stroke-linecap: square"/>
   </g>
   <g id="patch_10">
    <path d="M 414.72 142.411034 
L 414.72 96.529655 
" style="fill: none; stroke: #000000; stroke-width: 0.8; stroke-linejoin: miter; stroke-linecap: square"/>
   </g>
   <g id="patch_11">
    <path d="M 57.6 142.411034 
L 414.72 142.411034 
" style="fill: none; stroke: #000000; stroke-width: 0.8; stroke-linejoin: miter; stroke-linecap: square"/>
   </g>
   <g id="patch_12">
    <path d="M 57.6 96.529655 
L 414.72 96.529655 
" style="fill: none; stroke: #000000; stroke-width: 0.8; stroke-linejoin: miter; stroke-linecap: square"/>
   </g>
   <g id="text_10">
    <!-- Pressure -->
    <g transform="translate(210.546562 90.529655)scale(0.12 -0.12)">
     <defs>
      <path id="DejaVuSans-50" d="M 1259 4147 
L 1259 2394 
L 2053 2394 
Q 2494 2394 2734 2622 
Q 2975 2850 2975 3272 
Q 2975 3691 2734 3919 
Q 2494 4147 2053 4147 
L 1259 4147 
z
M 628 4666 
L 2053 4666 
Q 2838 4666 3239 4311 
Q 3641 3956 3641 3272 
Q 3641 2581 3239 2228 
Q 2838 1875 2053 1875 
L 1259 1875 
L 1259 0 
L 628 0 
L 628 4666 
z
" transform="scale(0.015625)"/>
      <path id="DejaVuSans-75" d="M 544 1381 
L 544 3500 
L 1119 3500 
L 1119 1403 
Q 1119 906 1312 657 
Q 1506 409 1894 409 
Q 2359 409 2629 706 
Q 2900 1003 2900 1516 
L 2900 3500 
L 3475 3500 
L 3475 0 
L 2900 0 
L 2900 538 
Q 2691 219 2414 64 
Q 2138 -91 1772 -91 
Q 1169 -91 856 284 
Q 544 659 544 1381 
z
M 1991 3584 
L 1991 3584 
z
" transform="scale(0.015625)"/>
     </defs>
     <use xlink:href="#DejaVuSans-50"/>
     <use xlink:href="#DejaVuSans-72" x="58.552734"/>
     <use xlink:href="#DejaVuSans-65" x="97.416016"/>
     <use xlink:href="#DejaVuSans-73" x="158.939453"/>
     <use xlink:href="#DejaVuSans-73" x="211.039062"/>
     <use xlink:href="#DejaVuSans-75" x="263.138672"/>
     <use xlink:href="#DejaVuSans-72" x="326.517578"/>
     <use xlink:href="#DejaVuSans-65" x="365.380859"/>
    </g>
   </g>
   <g id="legend_2">
    <g id="patch_13">
     <path d="M 350.823125 137.411034 
L 407.72 137.411034 
Q 409.72 137.411034 409.72 135.411034 
L 409.72 92.376659 
Q 409.72 90.376659 407.72 90.376659 
L 350.823125 90.376659 
Q 348.823125 90.376659 348.823125 92.376659 
L 348.823125 135.411034 
Q 348.823125 137.411034 350.823125 137.411034 
z
" style="fill: #ffffff; opacity: 0.8; stroke: #cccccc; stroke-linejoin: miter"/>
    </g>
    <g id="line2d_26">
     <path d="M 352.823125 98.475097 
L 362.823125 98.475097 
L 372.823125 98.475097 
" style="fill: none; stroke: #1f77b4; stroke-width: 1.5; stroke-linecap: square"/>
    </g>
    <g id="text_11">
     <!-- P1 -->
     <g transform="translate(380.823125 101.975097)scale(0.1 -0.1)">
      <use xlink:href="#DejaVuSans-50"/>
      <use xlink:href="#DejaVuSans-31" x="60.302734"/>
     </g>
    </g>
    <g id="line2d_27">
     <path d="M 352.823125 113.153222 
L 362.823125 113.153222 
L 372.823125 113.153222 
" style="fill: none; stroke: #ff7f0e; stroke-width: 1.5; stroke-linecap: square"/>
    </g>
    <g id="text_12">
     <!-- Pmid -->
     <g transform="translate(380.823125 116.653222)scale(0.1 -0.1)">
      <use xlink:href="#DejaVuSans-50"/>
      <use xlink:href="#DejaVuSans-6d" x="60.302734"/>
      <use xlink:href="#DejaVuSans-69" x="157.714844"/>
      <use xlink:href="#DejaVuSans-64" x="185.498047"/>
     </g>
    </g>
    <g id="line2d_28">
     <path d="M 352.823125 127.831347 
L 362.823125 127.831347 
L 372.823125 127.831347 
" style="fill: none; stroke: #2ca02c; stroke-width: 1.5; stroke-linecap: square"/>
    </g>
    <g id="text_13">
     <!-- PN -->
     <g transform="translate(380.823125 131.331347)scale(0.1 -0.1)">
      <use xlink:href="#DejaVuSans-50"/>
      <use xlink:href="#DejaVuSans-4e" x="60.302734"/>
     </g>
    </g>
   </g>
  </g>
  <g id="axes_3">
   <g id="patch_14">
    <path d="M 57.6 197.46869 
L 414.72 197.46869 
L 414.72 151.58731 
L 57.6 151.58731 
z
" style="fill: #ffffff"/>
   </g>
   <g id="matplotlib.axis_5">
    <g id="xtick_13">
     <g id="line2d_29">
      <g>
       <use xlink:href="#m4c0d794226" x="73.832727" y="197.46869" style="stroke: #000000; stroke-width: 0.8"/>
      </g>
     </g>
    </g>
    <g id="xtick_14">
     <g id="line2d_30">
      <g>
       <use xlink:href="#m4c0d794226" x="138.763636" y="197.46869" style="stroke: #000000; stroke-width: 0.8"/>
      </g>
     </g>
    </g>
    <g id="xtick_15">
     <g id="line2d_31">
      <g>
       <use xlink:href="#m4c0d794226" x="203.694545" y="197.46869" style="stroke: #000000; stroke-width: 0.8"/>
      </g>
     </g>
    </g>
    <g id="xtick_16">
     <g id="line2d_32">
      <g>
       <use xlink:href="#m4c0d794226" x="268.625455" y="197.46869" style="stroke: #000000; stroke-width: 0.8"/>
      </g>
     </g>
    </g>
    <g id="xtick_17">
     <g id="line2d_33">
      <g>
       <use xlink:href="#m4c0d794226" x="333.556364" y="197.46869" style="stroke: #000000; stroke-width: 0.8"/>
      </g>
     </g>
    </g>
    <g id="xtick_18">
     <g id="line2d_34">
      <g>
       <use xlink:href="#m4c0d794226" x="398.487273" y="197.46869" style="stroke: #000000; stroke-width: 0.8"/>
      </g>
     </g>
    </g>
   </g>
   <g id="matplotlib.axis_6">
    <g id="ytick_5">
     <g id="line2d_35">
      <g>
       <use xlink:href="#m281cb9ea91" x="57.6" y="186.583798" style="stroke: #000000; stroke-width: 0.8"/>
      </g>
     </g>
     <g id="text_14">
      <!-- 0.1 -->
      <g transform="translate(34.696875 190.383017)scale(0.1 -0.1)">
       <use xlink:href="#DejaVuSans-30"/>
       <use xlink:href="#DejaVuSans-2e" x="63.623047"/>
       <use xlink:href="#DejaVuSans-31" x="95.410156"/>
      </g>
     </g>
    </g>
    <g id="ytick_6">
     <g id="line2d_36">
      <g>
       <use xlink:href="#m281cb9ea91" x="57.6" y="171.594103" style="stroke: #000000; stroke-width: 0.8"/>
      </g>
     </g>
     <g id="text_15">
      <!-- 0.2 -->
      <g transform="translate(34.696875 175.393322)scale(0.1 -0.1)">
       <use xlink:href="#DejaVuSans-30"/>
       <use xlink:href="#DejaVuSans-2e" x="63.623047"/>
       <use xlink:href="#DejaVuSans-32" x="95.410156"/>
      </g>
     </g>
    </g>
    <g id="ytick_7">
     <g id="line2d_37">
      <g>
       <use xlink:href="#m281cb9ea91" x="57.6" y="156.604407" style="stroke: #000000; stroke-width: 0.8"/>
      </g>
     </g>
     <g id="text_16">
      <!-- 0.3 -->
      <g transform="translate(34.696875 160.403626)scale(0.1 -0.1)">
       <defs>
        <path id="DejaVuSans-33" d="M 2597 2516 
Q 3050 2419 3304 2112 
Q 3559 1806 3559 1356 
Q 3559 666 3084 287 
Q 2609 -91 1734 -91 
Q 1441 -91 1130 -33 
Q 819 25 488 141 
L 488 750 
Q 750 597 1062 519 
Q 1375 441 1716 441 
Q 2309 441 2620 675 
Q 2931 909 2931 1356 
Q 2931 1769 2642 2001 
Q 2353 2234 1838 2234 
L 1294 2234 
L 1294 2753 
L 1863 2753 
Q 2328 2753 2575 2939 
Q 2822 3125 2822 3475 
Q 2822 3834 2567 4026 
Q 2313 4219 1838 4219 
Q 1578 4219 1281 4162 
Q 984 4106 628 3988 
L 628 4550 
Q 988 4650 1302 4700 
Q 1616 4750 1894 4750 
Q 2613 4750 3031 4423 
Q 3450 4097 3450 3541 
Q 3450 3153 3228 2886 
Q 3006 2619 2597 2516 
z
" transform="scale(0.015625)"/>
       </defs>
       <use xlink:href="#DejaVuSans-30"/>
       <use xlink:href="#DejaVuSans-2e" x="63.623047"/>
       <use xlink:href="#DejaVuSans-33" x="95.410156"/>
      </g>
     </g>
    </g>
    <g id="text_17">
     <!-- fraction -->
     <g transform="translate(28.617187 193.73425)rotate(-90)scale(0.1 -0.1)">
      <use xlink:href="#DejaVuSans-66"/>
      <use xlink:href="#DejaVuSans-72" x="35.205078"/>
      <use xlink:href="#DejaVuSans-61" x="76.318359"/>
      <use xlink:href="#DejaVuSans-63" x="137.597656"/>
      <use xlink:href="#DejaVuSans-74" x="192.578125"/>
      <use xlink:href="#DejaVuSans-69" x="231.787109"/>
      <use xlink:href="#DejaVuSans-6f" x="259.570312"/>
      <use xlink:href="#DejaVuSans-6e" x="320.751953"/>
     </g>
    </g>
   </g>
   <g id="line2d_38">
    <path d="M 73.832727 153.672828 
L 77.079273 194.28193 
L 80.325818 194.548565 
L 83.572364 194.633812 
L 86.818909 194.691574 
L 90.065455 194.704706 
L 93.312 194.717623 
L 96.558545 194.731592 
L 99.805091 194.731447 
L 103.051636 194.735852 
L 106.298182 194.737294 
L 109.544727 194.740404 
L 112.791273 194.741501 
L 116.037818 194.740821 
L 119.284364 194.733388 
L 122.530909 194.729035 
L 125.777455 194.374373 
L 129.024 194.305948 
L 132.270545 194.252043 
L 135.517091 194.210523 
L 138.763636 194.178468 
L 142.010182 194.1542 
L 145.256727 194.135554 
L 148.503273 194.121954 
L 151.749818 194.111879 
L 154.996364 194.104203 
L 158.242909 194.098525 
L 161.489455 194.094016 
L 164.736 194.090379 
L 167.982545 194.087637 
L 171.229091 194.085522 
L 174.475636 193.854362 
L 177.722182 193.506781 
L 180.968727 193.060103 
L 184.215273 192.53583 
L 187.461818 191.991817 
L 190.708364 191.475749 
L 193.954909 191.047811 
L 197.201455 190.722603 
L 200.448 190.491061 
L 203.694545 190.342229 
L 206.941091 190.23903 
L 210.187636 190.174407 
L 213.434182 190.13369 
L 216.680727 190.108809 
L 219.927273 190.093176 
L 223.173818 190.083691 
L 226.420364 190.077905 
L 229.666909 190.074165 
L 232.913455 190.072138 
L 236.16 190.070935 
L 239.406545 190.07007 
L 242.653091 190.069821 
L 245.899636 190.069603 
L 249.146182 190.069385 
L 252.392727 190.069321 
L 255.639273 190.06928 
L 258.885818 190.069252 
L 262.132364 190.069261 
L 265.378909 190.06927 
L 268.625455 190.066905 
L 271.872 187.674543 
L 275.118545 184.373209 
L 278.365091 180.211515 
L 281.611636 175.506503 
L 284.858182 170.767146 
L 288.104727 166.448438 
L 291.351273 162.868338 
L 294.597818 160.106936 
L 297.844364 158.073104 
L 301.090909 156.662049 
L 304.337455 155.700419 
L 307.584 155.053861 
L 310.830545 154.627811 
L 314.077091 154.342077 
L 317.323636 154.148421 
L 320.570182 154.018517 
L 323.816727 153.928473 
L 327.063273 153.867117 
L 330.309818 153.822359 
L 333.556364 153.789934 
L 336.802909 153.76573 
L 340.049455 153.747936 
L 343.296 153.734548 
L 346.542545 153.724672 
L 349.789091 153.71643 
L 353.035636 153.710594 
L 356.282182 153.705269 
L 359.528727 153.701394 
L 362.775273 153.698037 
L 366.021818 153.695404 
L 369.268364 153.693157 
L 372.514909 153.691411 
L 375.761455 153.690001 
L 379.008 153.688826 
L 382.254545 153.687835 
L 385.501091 153.686925 
L 388.747636 153.686209 
L 391.994182 153.685712 
L 395.240727 153.685363 
L 398.487273 153.684746 
" clip-path="url(#p6ae9844b91)" style="fill: none; stroke: #1f77b4; stroke-width: 1.5; stroke-linecap: square"/>
   </g>
   <g id="line2d_39">
    <path d="M 73.832727 158.230849 
L 77.079273 194.800477 
L 80.325818 195.166765 
L 83.572364 195.278131 
L 86.818909 195.327333 
L 90.065455 195.351967 
L 93.312 195.365655 
L 96.558545 195.373393 
L 99.805091 195.377783 
L 103.051636 195.380347 
L 106.298182 195.381728 
L 109.544727 195.382567 
L 112.791273 195.38298 
L 116.037818 195.383172 
L 119.284364 195.383146 
L 122.530909 195.383012 
L 125.777455 195.331466 
L 129.024 195.314737 
L 132.270545 195.298935 
L 135.517091 195.283407 
L 138.763636 195.268056 
L 142.010182 195.252791 
L 145.256727 195.237517 
L 148.503273 195.222214 
L 151.749818 195.206824 
L 154.996364 195.19131 
L 158.242909 195.17565 
L 161.489455 195.159814 
L 164.736 195.143783 
L 167.982545 195.127518 
L 171.229091 195.111026 
L 174.475636 194.916974 
L 177.722182 194.611837 
L 180.968727 194.220544 
L 184.215273 193.760091 
L 187.461818 193.282762 
L 190.708364 192.82643 
L 193.954909 192.452373 
L 197.201455 192.16924 
L 200.448 191.970087 
L 203.694545 191.843327 
L 206.941091 191.756896 
L 210.187636 191.703198 
L 213.434182 191.669847 
L 216.680727 191.649596 
L 219.927273 191.636989 
L 223.173818 191.629353 
L 226.420364 191.624687 
L 229.666909 191.62167 
L 232.913455 191.620021 
L 236.16 191.619006 
L 239.406545 191.618256 
L 242.653091 191.617988 
L 245.899636 191.617741 
L 249.146182 191.617495 
L 252.392727 191.617382 
L 255.639273 191.617289 
L 258.885818 191.617206 
L 262.132364 191.617154 
L 265.378909 191.617101 
L 268.625455 191.616406 
L 271.872 189.727707 
L 275.118545 187.355814 
L 278.365091 184.754842 
L 281.611636 182.146536 
L 284.858182 179.624694 
L 288.104727 177.222515 
L 291.351273 174.949517 
L 294.597818 172.828206 
L 297.844364 170.845635 
L 301.090909 169.073749 
L 304.337455 167.455339 
L 307.584 166.01822 
L 310.830545 164.757376 
L 314.077091 163.66672 
L 317.323636 162.726197 
L 320.570182 161.91265 
L 323.816727 161.27599 
L 327.063273 160.689454 
L 330.309818 160.210238 
L 333.556364 159.806201 
L 336.802909 159.469688 
L 340.049455 159.193027 
L 343.296 158.966483 
L 346.542545 158.784229 
L 349.789091 158.636488 
L 353.035636 158.518516 
L 356.282182 158.419975 
L 359.528727 158.340447 
L 362.775273 158.272139 
L 366.021818 158.217147 
L 369.268364 158.170763 
L 372.514909 158.133124 
L 375.761455 158.101595 
L 379.008 158.075053 
L 382.254545 158.0548 
L 385.501091 158.038867 
L 388.747636 158.024998 
L 391.994182 158.011552 
L 395.240727 157.997974 
L 398.487273 157.992368 
" clip-path="url(#p6ae9844b91)" style="fill: none; stroke: #ff7f0e; stroke-width: 1.5; stroke-linecap: square"/>
   </g>
   <g id="patch_15">
    <path d="M 57.6 197.46869 
L 57.6 151.58731 
" style="fill: none; stroke: #000000; stroke-width: 0.8; stroke-linejoin: miter; stroke-linecap: square"/>
   </g>
   <g id="patch_16">
    <path d="M 414.72 197.46869 
L 414.72 151.58731 
" style="fill: none; stroke: #000000; stroke-width: 0.8; stroke-linejoin: miter; stroke-linecap: square"/>
   </g>
   <g id="patch_17">
    <path d="M 57.6 197.46869 
L 414.72 197.46869 
" style="fill: none; stroke: #000000; stroke-width: 0.8; stroke-linejoin: miter; stroke-linecap: square"/>
   </g>
   <g id="patch_18">
    <path d="M 57.6 151.58731 
L 414.72 151.58731 
" style="fill: none; stroke: #000000; stroke-width: 0.8; stroke-linejoin: miter; stroke-linecap: square"/>
   </g>
   <g id="text_18">
    <!-- yA -->
    <g transform="translate(228.504375 145.58731)scale(0.12 -0.12)">
     <defs>
      <path id="DejaVuSans-41" d="M 2188 4044 
L 1331 1722 
L 3047 1722 
L 2188 4044 
z
M 1831 4666 
L 2547 4666 
L 4325 0 
L 3669 0 
L 3244 1197 
L 1141 1197 
L 716 0 
L 50 0 
L 1831 4666 
z
" transform="scale(0.015625)"/>
     </defs>
     <use xlink:href="#DejaVuSans-79"/>
     <use xlink:href="#DejaVuSans-41" x="59.179688"/>
    </g>
   </g>
   <g id="legend_3">
    <g id="patch_19">
     <path d="M 64.6 192.46869 
L 142.289062 192.46869 
Q 144.289062 192.46869 144.289062 190.46869 
L 144.289062 162.11244 
Q 144.289062 160.11244 142.289062 160.11244 
L 64.6 160.11244 
Q 62.6 160.11244 62.6 162.11244 
L 62.6 190.46869 
Q 62.6 192.46869 64.6 192.46869 
z
" style="fill: #ffffff; opacity: 0.8; stroke: #cccccc; stroke-linejoin: miter"/>
    </g>
    <g id="line2d_40">
     <path d="M 66.6 168.210877 
L 76.6 168.210877 
L 86.6 168.210877 
" style="fill: none; stroke: #1f77b4; stroke-width: 1.5; stroke-linecap: square"/>
    </g>
    <g id="text_19">
     <!-- yA0 (in) -->
     <g transform="translate(94.6 171.710877)scale(0.1 -0.1)">
      <use xlink:href="#DejaVuSans-79"/>
      <use xlink:href="#DejaVuSans-41" x="59.179688"/>
      <use xlink:href="#DejaVuSans-30" x="127.587891"/>
      <use xlink:href="#DejaVuSans-20" x="191.210938"/>
      <use xlink:href="#DejaVuSans-28" x="222.998047"/>
      <use xlink:href="#DejaVuSans-69" x="262.011719"/>
      <use xlink:href="#DejaVuSans-6e" x="289.794922"/>
      <use xlink:href="#DejaVuSans-29" x="353.173828"/>
     </g>
    </g>
    <g id="line2d_41">
     <path d="M 66.6 182.889002 
L 76.6 182.889002 
L 86.6 182.889002 
" style="fill: none; stroke: #ff7f0e; stroke-width: 1.5; stroke-linecap: square"/>
    </g>
    <g id="text_20">
     <!-- yAL (out) -->
     <g transform="translate(94.6 186.389002)scale(0.1 -0.1)">
      <defs>
       <path id="DejaVuSans-4c" d="M 628 4666 
L 1259 4666 
L 1259 531 
L 3531 531 
L 3531 0 
L 628 0 
L 628 4666 
z
" transform="scale(0.015625)"/>
      </defs>
      <use xlink:href="#DejaVuSans-79"/>
      <use xlink:href="#DejaVuSans-41" x="59.179688"/>
      <use xlink:href="#DejaVuSans-4c" x="127.587891"/>
      <use xlink:href="#DejaVuSans-20" x="183.300781"/>
      <use xlink:href="#DejaVuSans-28" x="215.087891"/>
      <use xlink:href="#DejaVuSans-6f" x="254.101562"/>
      <use xlink:href="#DejaVuSans-75" x="315.283203"/>
      <use xlink:href="#DejaVuSans-74" x="378.662109"/>
      <use xlink:href="#DejaVuSans-29" x="417.871094"/>
     </g>
    </g>
   </g>
  </g>
  <g id="axes_4">
   <g id="patch_20">
    <path d="M 57.6 252.526345 
L 414.72 252.526345 
L 414.72 206.644966 
L 57.6 206.644966 
z
" style="fill: #ffffff"/>
   </g>
   <g id="matplotlib.axis_7">
    <g id="xtick_19">
     <g id="line2d_42">
      <g>
       <use xlink:href="#m4c0d794226" x="73.832727" y="252.526345" style="stroke: #000000; stroke-width: 0.8"/>
      </g>
     </g>
    </g>
    <g id="xtick_20">
     <g id="line2d_43">
      <g>
       <use xlink:href="#m4c0d794226" x="138.763636" y="252.526345" style="stroke: #000000; stroke-width: 0.8"/>
      </g>
     </g>
    </g>
    <g id="xtick_21">
     <g id="line2d_44">
      <g>
       <use xlink:href="#m4c0d794226" x="203.694545" y="252.526345" style="stroke: #000000; stroke-width: 0.8"/>
      </g>
     </g>
    </g>
    <g id="xtick_22">
     <g id="line2d_45">
      <g>
       <use xlink:href="#m4c0d794226" x="268.625455" y="252.526345" style="stroke: #000000; stroke-width: 0.8"/>
      </g>
     </g>
    </g>
    <g id="xtick_23">
     <g id="line2d_46">
      <g>
       <use xlink:href="#m4c0d794226" x="333.556364" y="252.526345" style="stroke: #000000; stroke-width: 0.8"/>
      </g>
     </g>
    </g>
    <g id="xtick_24">
     <g id="line2d_47">
      <g>
       <use xlink:href="#m4c0d794226" x="398.487273" y="252.526345" style="stroke: #000000; stroke-width: 0.8"/>
      </g>
     </g>
    </g>
   </g>
   <g id="matplotlib.axis_8">
    <g id="ytick_8">
     <g id="line2d_48">
      <g>
       <use xlink:href="#m281cb9ea91" x="57.6" y="240.467726" style="stroke: #000000; stroke-width: 0.8"/>
      </g>
     </g>
     <g id="text_21">
      <!-- 0.7 -->
      <g transform="translate(34.696875 244.266944)scale(0.1 -0.1)">
       <defs>
        <path id="DejaVuSans-37" d="M 525 4666 
L 3525 4666 
L 3525 4397 
L 1831 0 
L 1172 0 
L 2766 4134 
L 525 4134 
L 525 4666 
z
" transform="scale(0.015625)"/>
       </defs>
       <use xlink:href="#DejaVuSans-30"/>
       <use xlink:href="#DejaVuSans-2e" x="63.623047"/>
       <use xlink:href="#DejaVuSans-37" x="95.410156"/>
      </g>
     </g>
    </g>
    <g id="ytick_9">
     <g id="line2d_49">
      <g>
       <use xlink:href="#m281cb9ea91" x="57.6" y="225.837056" style="stroke: #000000; stroke-width: 0.8"/>
      </g>
     </g>
     <g id="text_22">
      <!-- 0.8 -->
      <g transform="translate(34.696875 229.636275)scale(0.1 -0.1)">
       <defs>
        <path id="DejaVuSans-38" d="M 2034 2216 
Q 1584 2216 1326 1975 
Q 1069 1734 1069 1313 
Q 1069 891 1326 650 
Q 1584 409 2034 409 
Q 2484 409 2743 651 
Q 3003 894 3003 1313 
Q 3003 1734 2745 1975 
Q 2488 2216 2034 2216 
z
M 1403 2484 
Q 997 2584 770 2862 
Q 544 3141 544 3541 
Q 544 4100 942 4425 
Q 1341 4750 2034 4750 
Q 2731 4750 3128 4425 
Q 3525 4100 3525 3541 
Q 3525 3141 3298 2862 
Q 3072 2584 2669 2484 
Q 3125 2378 3379 2068 
Q 3634 1759 3634 1313 
Q 3634 634 3220 271 
Q 2806 -91 2034 -91 
Q 1263 -91 848 271 
Q 434 634 434 1313 
Q 434 1759 690 2068 
Q 947 2378 1403 2484 
z
M 1172 3481 
Q 1172 3119 1398 2916 
Q 1625 2713 2034 2713 
Q 2441 2713 2670 2916 
Q 2900 3119 2900 3481 
Q 2900 3844 2670 4047 
Q 2441 4250 2034 4250 
Q 1625 4250 1398 4047 
Q 1172 3844 1172 3481 
z
" transform="scale(0.015625)"/>
       </defs>
       <use xlink:href="#DejaVuSans-30"/>
       <use xlink:href="#DejaVuSans-2e" x="63.623047"/>
       <use xlink:href="#DejaVuSans-38" x="95.410156"/>
      </g>
     </g>
    </g>
    <g id="ytick_10">
     <g id="line2d_50">
      <g>
       <use xlink:href="#m281cb9ea91" x="57.6" y="211.206386" style="stroke: #000000; stroke-width: 0.8"/>
      </g>
     </g>
     <g id="text_23">
      <!-- 0.9 -->
      <g transform="translate(34.696875 215.005605)scale(0.1 -0.1)">
       <defs>
        <path id="DejaVuSans-39" d="M 703 97 
L 703 672 
Q 941 559 1184 500 
Q 1428 441 1663 441 
Q 2288 441 2617 861 
Q 2947 1281 2994 2138 
Q 2813 1869 2534 1725 
Q 2256 1581 1919 1581 
Q 1219 1581 811 2004 
Q 403 2428 403 3163 
Q 403 3881 828 4315 
Q 1253 4750 1959 4750 
Q 2769 4750 3195 4129 
Q 3622 3509 3622 2328 
Q 3622 1225 3098 567 
Q 2575 -91 1691 -91 
Q 1453 -91 1209 -44 
Q 966 3 703 97 
z
M 1959 2075 
Q 2384 2075 2632 2365 
Q 2881 2656 2881 3163 
Q 2881 3666 2632 3958 
Q 2384 4250 1959 4250 
Q 1534 4250 1286 3958 
Q 1038 3666 1038 3163 
Q 1038 2656 1286 2365 
Q 1534 2075 1959 2075 
z
" transform="scale(0.015625)"/>
       </defs>
       <use xlink:href="#DejaVuSans-30"/>
       <use xlink:href="#DejaVuSans-2e" x="63.623047"/>
       <use xlink:href="#DejaVuSans-39" x="95.410156"/>
      </g>
     </g>
    </g>
    <g id="text_24">
     <!-- fraction -->
     <g transform="translate(28.617187 248.791905)rotate(-90)scale(0.1 -0.1)">
      <use xlink:href="#DejaVuSans-66"/>
      <use xlink:href="#DejaVuSans-72" x="35.205078"/>
      <use xlink:href="#DejaVuSans-61" x="76.318359"/>
      <use xlink:href="#DejaVuSans-63" x="137.597656"/>
      <use xlink:href="#DejaVuSans-74" x="192.578125"/>
      <use xlink:href="#DejaVuSans-69" x="231.787109"/>
      <use xlink:href="#DejaVuSans-6f" x="259.570312"/>
      <use xlink:href="#DejaVuSans-6e" x="320.751953"/>
     </g>
    </g>
   </g>
   <g id="line2d_51">
    <path d="M 73.832727 250.440828 
L 77.079273 210.985313 
L 80.325818 210.738543 
L 83.572364 210.655953 
L 86.818909 210.598398 
L 90.065455 210.586149 
L 93.312 210.573527 
L 96.558545 210.554572 
L 99.805091 210.553352 
L 103.051636 210.550173 
L 106.298182 210.552224 
L 109.544727 210.547533 
L 112.791273 210.546111 
L 116.037818 210.547577 
L 119.284364 210.559664 
L 122.530909 210.569097 
L 125.777455 210.933679 
L 129.024 210.996996 
L 132.270545 211.046782 
L 135.517091 211.085072 
L 138.763636 211.114603 
L 142.010182 211.136938 
L 145.256727 211.15409 
L 148.503273 211.16659 
L 151.749818 211.175847 
L 154.996364 211.182898 
L 158.242909 211.188114 
L 161.489455 211.192258 
L 164.736 211.195602 
L 167.982545 211.198122 
L 171.229091 211.200067 
L 174.475636 211.4271 
L 177.722182 211.787248 
L 180.968727 212.25891 
L 184.215273 212.814174 
L 187.461818 213.389574 
L 190.708364 213.932908 
L 193.954909 214.382861 
L 197.201455 214.723829 
L 200.448 214.966307 
L 203.694545 215.122829 
L 206.941091 215.231221 
L 210.187636 215.299075 
L 213.434182 215.34181 
L 216.680727 215.367945 
L 219.927273 215.384386 
L 223.173818 215.394361 
L 226.420364 215.400442 
L 229.666909 215.404378 
L 232.913455 215.406517 
L 236.16 215.407785 
L 239.406545 215.408697 
L 242.653091 215.408963 
L 245.899636 215.409196 
L 249.146182 215.409429 
L 252.392727 215.409501 
L 255.639273 215.409551 
L 258.885818 215.409587 
L 262.132364 215.409584 
L 265.378909 215.409581 
L 268.625455 215.411779 
L 271.872 217.82665 
L 275.118545 221.122827 
L 278.365091 225.179277 
L 281.611636 229.690248 
L 284.858182 234.189439 
L 288.104727 238.267367 
L 291.351273 241.641277 
L 294.597818 244.24551 
L 297.844364 246.167054 
L 301.090909 247.507151 
L 304.337455 248.426567 
L 307.584 249.049853 
L 310.830545 249.464822 
L 314.077091 249.74615 
L 317.323636 249.939239 
L 320.570182 250.071166 
L 323.816727 250.162921 
L 327.063273 250.227494 
L 330.309818 250.274983 
L 333.556364 250.309957 
L 336.802909 250.336445 
L 340.049455 250.356249 
L 343.296 250.371377 
L 346.542545 250.382744 
L 349.789091 250.392236 
L 353.035636 250.399159 
L 356.282182 250.405421 
L 359.528727 250.410101 
L 362.775273 250.414162 
L 366.021818 250.417407 
L 369.268364 250.420201 
L 372.514909 250.422426 
L 375.761455 250.424269 
L 379.008 250.425841 
L 382.254545 250.427188 
L 385.501091 250.428428 
L 388.747636 250.429454 
L 391.994182 250.430251 
L 395.240727 250.430895 
L 398.487273 250.431767 
" clip-path="url(#p4a542c9fb1)" style="fill: none; stroke: #1f77b4; stroke-width: 1.5; stroke-linecap: square"/>
   </g>
   <g id="line2d_52">
    <path d="M 73.832727 246.530097 
L 77.079273 209.434456 
L 80.325818 208.940167 
L 83.572364 208.810279 
L 86.818909 208.761135 
L 90.065455 208.740878 
L 93.312 208.732537 
L 96.558545 208.730483 
L 99.805091 208.731874 
L 103.051636 208.735003 
L 106.298182 208.739129 
L 109.544727 208.74365 
L 112.791273 208.748438 
L 116.037818 208.753343 
L 119.284364 208.758325 
L 122.530909 208.763348 
L 125.777455 209.73418 
L 129.024 209.881606 
L 132.270545 209.965403 
L 135.517091 210.026156 
L 138.763636 210.069663 
L 142.010182 210.101337 
L 145.256727 210.126544 
L 148.503273 210.14612 
L 151.749818 210.163024 
L 154.996364 210.178853 
L 158.242909 210.194206 
L 161.489455 210.209753 
L 164.736 210.225313 
L 167.982545 210.240907 
L 171.229091 210.256711 
L 174.475636 210.450442 
L 177.722182 210.774049 
L 180.968727 211.19699 
L 184.215273 211.695387 
L 187.461818 212.210845 
L 190.708364 212.700546 
L 193.954909 213.101447 
L 197.201455 213.403872 
L 200.448 213.616347 
L 203.694545 213.752266 
L 206.941091 213.844837 
L 210.187636 213.902294 
L 213.434182 213.937961 
L 216.680727 213.959634 
L 219.927273 213.973142 
L 223.173818 213.981316 
L 226.420364 213.986303 
L 229.666909 213.989529 
L 232.913455 213.991291 
L 236.16 213.992369 
L 239.406545 213.993162 
L 242.653091 213.993442 
L 245.899636 213.993697 
L 249.146182 213.993953 
L 252.392727 213.994067 
L 255.639273 213.994161 
L 258.885818 213.994244 
L 262.132364 213.994294 
L 265.378909 213.994344 
L 268.625455 213.99499 
L 271.872 215.93812 
L 275.118545 218.361351 
L 278.365091 220.964619 
L 281.611636 223.539809 
L 284.858182 226.007198 
L 288.104727 228.34233 
L 291.351273 230.541392 
L 294.597818 232.586457 
L 297.844364 234.490729 
L 301.090909 236.189275 
L 304.337455 237.737686 
L 307.584 239.110634 
L 310.830545 240.313888 
L 314.077091 241.353502 
L 317.323636 242.248237 
L 320.570182 243.021369 
L 323.816727 243.629389 
L 327.063273 244.18505 
L 330.309818 244.640309 
L 333.556364 245.024016 
L 336.802909 245.343575 
L 340.049455 245.606252 
L 343.296 245.821266 
L 346.542545 245.994179 
L 349.789091 246.134263 
L 353.035636 246.246076 
L 356.282182 246.339432 
L 359.528727 246.414759 
L 362.775273 246.479471 
L 366.021818 246.531585 
L 369.268364 246.575587 
L 372.514909 246.611261 
L 375.761455 246.641113 
L 379.008 246.666232 
L 382.254545 246.685475 
L 385.501091 246.700698 
L 388.747636 246.713875 
L 391.994182 246.726483 
L 395.240727 246.739078 
L 398.487273 246.744619 
" clip-path="url(#p4a542c9fb1)" style="fill: none; stroke: #ff7f0e; stroke-width: 1.5; stroke-linecap: square"/>
   </g>
   <g id="patch_21">
    <path d="M 57.6 252.526345 
L 57.6 206.644966 
" style="fill: none; stroke: #000000; stroke-width: 0.8; stroke-linejoin: miter; stroke-linecap: square"/>
   </g>
   <g id="patch_22">
    <path d="M 414.72 252.526345 
L 414.72 206.644966 
" style="fill: none; stroke: #000000; stroke-width: 0.8; stroke-linejoin: miter; stroke-linecap: square"/>
   </g>
   <g id="patch_23">
    <path d="M 57.6 252.526345 
L 414.72 252.526345 
" style="fill: none; stroke: #000000; stroke-width: 0.8; stroke-linejoin: miter; stroke-linecap: square"/>
   </g>
   <g id="patch_24">
    <path d="M 57.6 206.644966 
L 414.72 206.644966 
" style="fill: none; stroke: #000000; stroke-width: 0.8; stroke-linejoin: miter; stroke-linecap: square"/>
   </g>
   <g id="text_25">
    <!-- yB -->
    <g transform="translate(228.492188 200.644966)scale(0.12 -0.12)">
     <defs>
      <path id="DejaVuSans-42" d="M 1259 2228 
L 1259 519 
L 2272 519 
Q 2781 519 3026 730 
Q 3272 941 3272 1375 
Q 3272 1813 3026 2020 
Q 2781 2228 2272 2228 
L 1259 2228 
z
M 1259 4147 
L 1259 2741 
L 2194 2741 
Q 2656 2741 2882 2914 
Q 3109 3088 3109 3444 
Q 3109 3797 2882 3972 
Q 2656 4147 2194 4147 
L 1259 4147 
z
M 628 4666 
L 2241 4666 
Q 2963 4666 3353 4366 
Q 3744 4066 3744 3513 
Q 3744 3084 3544 2831 
Q 3344 2578 2956 2516 
Q 3422 2416 3680 2098 
Q 3938 1781 3938 1306 
Q 3938 681 3513 340 
Q 3088 0 2303 0 
L 628 0 
L 628 4666 
z
" transform="scale(0.015625)"/>
     </defs>
     <use xlink:href="#DejaVuSans-79"/>
     <use xlink:href="#DejaVuSans-42" x="59.179688"/>
    </g>
   </g>
   <g id="legend_4">
    <g id="patch_25">
     <path d="M 330.010625 244.001216 
L 407.72 244.001216 
Q 409.72 244.001216 409.72 242.001216 
L 409.72 213.644966 
Q 409.72 211.644966 407.72 211.644966 
L 330.010625 211.644966 
Q 328.010625 211.644966 328.010625 213.644966 
L 328.010625 242.001216 
Q 328.010625 244.001216 330.010625 244.001216 
z
" style="fill: #ffffff; opacity: 0.8; stroke: #cccccc; stroke-linejoin: miter"/>
    </g>
    <g id="line2d_53">
     <path d="M 332.010625 219.743403 
L 342.010625 219.743403 
L 352.010625 219.743403 
" style="fill: none; stroke: #1f77b4; stroke-width: 1.5; stroke-linecap: square"/>
    </g>
    <g id="text_26">
     <!-- yB0 (in) -->
     <g transform="translate(360.010625 223.243403)scale(0.1 -0.1)">
      <use xlink:href="#DejaVuSans-79"/>
      <use xlink:href="#DejaVuSans-42" x="59.179688"/>
      <use xlink:href="#DejaVuSans-30" x="127.783203"/>
      <use xlink:href="#DejaVuSans-20" x="191.40625"/>
      <use xlink:href="#DejaVuSans-28" x="223.193359"/>
      <use xlink:href="#DejaVuSans-69" x="262.207031"/>
      <use xlink:href="#DejaVuSans-6e" x="289.990234"/>
      <use xlink:href="#DejaVuSans-29" x="353.369141"/>
     </g>
    </g>
    <g id="line2d_54">
     <path d="M 332.010625 234.421528 
L 342.010625 234.421528 
L 352.010625 234.421528 
" style="fill: none; stroke: #ff7f0e; stroke-width: 1.5; stroke-linecap: square"/>
    </g>
    <g id="text_27">
     <!-- yBL (out) -->
     <g transform="translate(360.010625 237.921528)scale(0.1 -0.1)">
      <use xlink:href="#DejaVuSans-79"/>
      <use xlink:href="#DejaVuSans-42" x="59.179688"/>
      <use xlink:href="#DejaVuSans-4c" x="127.783203"/>
      <use xlink:href="#DejaVuSans-20" x="183.496094"/>
      <use xlink:href="#DejaVuSans-28" x="215.283203"/>
      <use xlink:href="#DejaVuSans-6f" x="254.296875"/>
      <use xlink:href="#DejaVuSans-75" x="315.478516"/>
      <use xlink:href="#DejaVuSans-74" x="378.857422"/>
      <use xlink:href="#DejaVuSans-29" x="418.066406"/>
     </g>
    </g>
   </g>
  </g>
  <g id="axes_5">
   <g id="patch_26">
    <path d="M 57.6 307.584 
L 414.72 307.584 
L 414.72 261.702621 
L 57.6 261.702621 
z
" style="fill: #ffffff"/>
   </g>
   <g id="matplotlib.axis_9">
    <g id="xtick_25">
     <g id="line2d_55">
      <g>
       <use xlink:href="#m4c0d794226" x="73.832727" y="307.584" style="stroke: #000000; stroke-width: 0.8"/>
      </g>
     </g>
     <g id="text_28">
      <!-- 0 -->
      <g transform="translate(70.651477 322.182437)scale(0.1 -0.1)">
       <use xlink:href="#DejaVuSans-30"/>
      </g>
     </g>
    </g>
    <g id="xtick_26">
     <g id="line2d_56">
      <g>
       <use xlink:href="#m4c0d794226" x="138.763636" y="307.584" style="stroke: #000000; stroke-width: 0.8"/>
      </g>
     </g>
     <g id="text_29">
      <!-- 20 -->
      <g transform="translate(132.401136 322.182437)scale(0.1 -0.1)">
       <use xlink:href="#DejaVuSans-32"/>
       <use xlink:href="#DejaVuSans-30" x="63.623047"/>
      </g>
     </g>
    </g>
    <g id="xtick_27">
     <g id="line2d_57">
      <g>
       <use xlink:href="#m4c0d794226" x="203.694545" y="307.584" style="stroke: #000000; stroke-width: 0.8"/>
      </g>
     </g>
     <g id="text_30">
      <!-- 40 -->
      <g transform="translate(197.332045 322.182437)scale(0.1 -0.1)">
       <defs>
        <path id="DejaVuSans-34" d="M 2419 4116 
L 825 1625 
L 2419 1625 
L 2419 4116 
z
M 2253 4666 
L 3047 4666 
L 3047 1625 
L 3713 1625 
L 3713 1100 
L 3047 1100 
L 3047 0 
L 2419 0 
L 2419 1100 
L 313 1100 
L 313 1709 
L 2253 4666 
z
" transform="scale(0.015625)"/>
       </defs>
       <use xlink:href="#DejaVuSans-34"/>
       <use xlink:href="#DejaVuSans-30" x="63.623047"/>
      </g>
     </g>
    </g>
    <g id="xtick_28">
     <g id="line2d_58">
      <g>
       <use xlink:href="#m4c0d794226" x="268.625455" y="307.584" style="stroke: #000000; stroke-width: 0.8"/>
      </g>
     </g>
     <g id="text_31">
      <!-- 60 -->
      <g transform="translate(262.262955 322.182437)scale(0.1 -0.1)">
       <defs>
        <path id="DejaVuSans-36" d="M 2113 2584 
Q 1688 2584 1439 2293 
Q 1191 2003 1191 1497 
Q 1191 994 1439 701 
Q 1688 409 2113 409 
Q 2538 409 2786 701 
Q 3034 994 3034 1497 
Q 3034 2003 2786 2293 
Q 2538 2584 2113 2584 
z
M 3366 4563 
L 3366 3988 
Q 3128 4100 2886 4159 
Q 2644 4219 2406 4219 
Q 1781 4219 1451 3797 
Q 1122 3375 1075 2522 
Q 1259 2794 1537 2939 
Q 1816 3084 2150 3084 
Q 2853 3084 3261 2657 
Q 3669 2231 3669 1497 
Q 3669 778 3244 343 
Q 2819 -91 2113 -91 
Q 1303 -91 875 529 
Q 447 1150 447 2328 
Q 447 3434 972 4092 
Q 1497 4750 2381 4750 
Q 2619 4750 2861 4703 
Q 3103 4656 3366 4563 
z
" transform="scale(0.015625)"/>
       </defs>
       <use xlink:href="#DejaVuSans-36"/>
       <use xlink:href="#DejaVuSans-30" x="63.623047"/>
      </g>
     </g>
    </g>
    <g id="xtick_29">
     <g id="line2d_59">
      <g>
       <use xlink:href="#m4c0d794226" x="333.556364" y="307.584" style="stroke: #000000; stroke-width: 0.8"/>
      </g>
     </g>
     <g id="text_32">
      <!-- 80 -->
      <g transform="translate(327.193864 322.182437)scale(0.1 -0.1)">
       <use xlink:href="#DejaVuSans-38"/>
       <use xlink:href="#DejaVuSans-30" x="63.623047"/>
      </g>
     </g>
    </g>
    <g id="xtick_30">
     <g id="line2d_60">
      <g>
       <use xlink:href="#m4c0d794226" x="398.487273" y="307.584" style="stroke: #000000; stroke-width: 0.8"/>
      </g>
     </g>
     <g id="text_33">
      <!-- 100 -->
      <g transform="translate(388.943523 322.182437)scale(0.1 -0.1)">
       <use xlink:href="#DejaVuSans-31"/>
       <use xlink:href="#DejaVuSans-30" x="63.623047"/>
       <use xlink:href="#DejaVuSans-30" x="127.246094"/>
      </g>
     </g>
    </g>
    <g id="text_34">
     <!-- time (normalized) -->
     <g transform="translate(191.589687 335.860562)scale(0.1 -0.1)">
      <use xlink:href="#DejaVuSans-74"/>
      <use xlink:href="#DejaVuSans-69" x="39.208984"/>
      <use xlink:href="#DejaVuSans-6d" x="66.992188"/>
      <use xlink:href="#DejaVuSans-65" x="164.404297"/>
      <use xlink:href="#DejaVuSans-20" x="225.927734"/>
      <use xlink:href="#DejaVuSans-28" x="257.714844"/>
      <use xlink:href="#DejaVuSans-6e" x="296.728516"/>
      <use xlink:href="#DejaVuSans-6f" x="360.107422"/>
      <use xlink:href="#DejaVuSans-72" x="421.289062"/>
      <use xlink:href="#DejaVuSans-6d" x="460.652344"/>
      <use xlink:href="#DejaVuSans-61" x="558.064453"/>
      <use xlink:href="#DejaVuSans-6c" x="619.34375"/>
      <use xlink:href="#DejaVuSans-69" x="647.126953"/>
      <use xlink:href="#DejaVuSans-7a" x="674.910156"/>
      <use xlink:href="#DejaVuSans-65" x="727.400391"/>
      <use xlink:href="#DejaVuSans-64" x="788.923828"/>
      <use xlink:href="#DejaVuSans-29" x="852.400391"/>
     </g>
    </g>
   </g>
   <g id="matplotlib.axis_10">
    <g id="ytick_11">
     <g id="line2d_61">
      <g>
       <use xlink:href="#m281cb9ea91" x="57.6" y="294.743705" style="stroke: #000000; stroke-width: 0.8"/>
      </g>
     </g>
     <g id="text_35">
      <!-- 0.045 -->
      <g transform="translate(21.971875 298.542923)scale(0.1 -0.1)">
       <use xlink:href="#DejaVuSans-30"/>
       <use xlink:href="#DejaVuSans-2e" x="63.623047"/>
       <use xlink:href="#DejaVuSans-30" x="95.410156"/>
       <use xlink:href="#DejaVuSans-34" x="159.033203"/>
       <use xlink:href="#DejaVuSans-35" x="222.65625"/>
      </g>
     </g>
    </g>
    <g id="ytick_12">
     <g id="line2d_62">
      <g>
       <use xlink:href="#m281cb9ea91" x="57.6" y="278.847845" style="stroke: #000000; stroke-width: 0.8"/>
      </g>
     </g>
     <g id="text_36">
      <!-- 0.050 -->
      <g transform="translate(21.971875 282.647064)scale(0.1 -0.1)">
       <use xlink:href="#DejaVuSans-30"/>
       <use xlink:href="#DejaVuSans-2e" x="63.623047"/>
       <use xlink:href="#DejaVuSans-30" x="95.410156"/>
       <use xlink:href="#DejaVuSans-35" x="159.033203"/>
       <use xlink:href="#DejaVuSans-30" x="222.65625"/>
      </g>
     </g>
    </g>
    <g id="ytick_13">
     <g id="line2d_63">
      <g>
       <use xlink:href="#m281cb9ea91" x="57.6" y="262.951986" style="stroke: #000000; stroke-width: 0.8"/>
      </g>
     </g>
     <g id="text_37">
      <!-- 0.055 -->
      <g transform="translate(21.971875 266.751205)scale(0.1 -0.1)">
       <use xlink:href="#DejaVuSans-30"/>
       <use xlink:href="#DejaVuSans-2e" x="63.623047"/>
       <use xlink:href="#DejaVuSans-30" x="95.410156"/>
       <use xlink:href="#DejaVuSans-35" x="159.033203"/>
       <use xlink:href="#DejaVuSans-35" x="222.65625"/>
      </g>
     </g>
    </g>
    <g id="text_38">
     <!-- fraction -->
     <g transform="translate(15.892187 303.84956)rotate(-90)scale(0.1 -0.1)">
      <use xlink:href="#DejaVuSans-66"/>
      <use xlink:href="#DejaVuSans-72" x="35.205078"/>
      <use xlink:href="#DejaVuSans-61" x="76.318359"/>
      <use xlink:href="#DejaVuSans-63" x="137.597656"/>
      <use xlink:href="#DejaVuSans-74" x="192.578125"/>
      <use xlink:href="#DejaVuSans-69" x="231.787109"/>
      <use xlink:href="#DejaVuSans-6f" x="259.570312"/>
      <use xlink:href="#DejaVuSans-6e" x="320.751953"/>
     </g>
    </g>
   </g>
   <g id="line2d_64">
    <path d="M 73.832727 283.271904 
L 77.079273 279.340217 
L 80.325818 279.047319 
L 83.572364 279.033953 
L 86.818909 279.059535 
L 90.065455 279.047169 
L 93.312 279.047476 
L 96.558545 279.163078 
L 99.805091 279.192673 
L 103.051636 279.168326 
L 106.298182 279.093176 
L 109.544727 279.129167 
L 112.791273 279.13679 
L 116.037818 279.119354 
L 119.284364 279.014369 
L 122.530909 278.901706 
L 125.777455 278.501543 
L 129.024 278.576941 
L 132.270545 278.638383 
L 135.517091 278.686964 
L 138.763636 278.725138 
L 142.010182 278.754496 
L 145.256727 278.777252 
L 148.503273 278.794075 
L 151.749818 278.806626 
L 154.996364 278.816206 
L 158.242909 278.823285 
L 161.489455 278.828867 
L 164.736 278.833354 
L 167.982545 278.836735 
L 171.229091 278.839332 
L 174.475636 278.808716 
L 177.722182 278.354724 
L 180.968727 277.57938 
L 184.215273 276.633092 
L 187.461818 275.66792 
L 190.708364 274.806842 
L 193.954909 274.105746 
L 197.201455 273.594045 
L 200.448 273.235909 
L 203.694545 272.991341 
L 206.941091 272.8248 
L 210.187636 272.720954 
L 213.434182 272.655907 
L 216.680727 272.615714 
L 219.927273 272.590019 
L 223.173818 272.574438 
L 226.420364 272.565024 
L 229.666909 272.558796 
L 232.913455 272.555314 
L 236.16 272.553291 
L 239.406545 272.55181 
L 242.653091 272.551328 
L 245.899636 272.550889 
L 249.146182 272.550449 
L 252.392727 272.550209 
L 255.639273 272.549998 
L 258.885818 272.549811 
L 262.132364 272.549689 
L 265.378909 272.549567 
L 268.625455 272.55195 
L 271.872 270.817752 
L 275.118545 269.211539 
L 278.365091 269.33218 
L 281.611636 271.101013 
L 284.858182 273.852147 
L 288.104727 276.836622 
L 291.351273 279.453738 
L 294.597818 281.431766 
L 297.844364 282.813194 
L 301.090909 283.620712 
L 304.337455 284.037503 
L 307.584 284.206691 
L 310.830545 284.225731 
L 314.077091 284.17277 
L 317.323636 284.084301 
L 320.570182 283.972727 
L 323.816727 283.888684 
L 327.063273 283.786863 
L 330.309818 283.704229 
L 333.556364 283.631952 
L 336.802909 283.569715 
L 340.049455 283.516771 
L 343.296 283.472014 
L 346.542545 283.434479 
L 349.789091 283.403015 
L 353.035636 283.376352 
L 356.282182 283.353236 
L 359.528727 283.333715 
L 362.775273 283.316673 
L 366.021818 283.301991 
L 369.268364 283.288962 
L 372.514909 283.277621 
L 375.761455 283.267473 
L 379.008 283.258248 
L 382.254545 283.250002 
L 385.501091 283.242364 
L 388.747636 283.235237 
L 391.994182 283.228461 
L 395.240727 283.221881 
L 398.487273 283.21603 
" clip-path="url(#pd3e1cfb086)" style="fill: none; stroke: #1f77b4; stroke-width: 1.5; stroke-linecap: square"/>
   </g>
   <g id="line2d_65">
    <path d="M 73.832727 271.578839 
L 77.079273 302.04165 
L 80.325818 305.013699 
L 83.572364 305.474139 
L 86.818909 305.498483 
L 90.065455 305.416204 
L 93.312 305.307125 
L 96.558545 305.187649 
L 99.805091 305.064304 
L 103.051636 304.941945 
L 106.298182 304.82299 
L 109.544727 304.706973 
L 112.791273 304.594175 
L 116.037818 304.483497 
L 119.284364 304.375806 
L 122.530909 304.26951 
L 125.777455 284.267045 
L 129.024 281.418363 
L 132.270545 279.932623 
L 135.517091 278.941826 
L 138.763636 278.322028 
L 142.010182 277.95752 
L 145.256727 277.733737 
L 148.503273 277.632933 
L 151.749818 277.59201 
L 154.996364 277.577096 
L 158.242909 277.575625 
L 161.489455 277.573647 
L 164.736 277.575544 
L 167.982545 277.581663 
L 171.229091 277.588009 
L 174.475636 277.494002 
L 177.722182 276.933843 
L 180.968727 276.042502 
L 184.215273 274.978372 
L 187.461818 273.901402 
L 190.708364 272.938821 
L 193.954909 272.160832 
L 197.201455 271.594263 
L 200.448 271.201145 
L 203.694545 270.936138 
L 206.941091 270.757742 
L 210.187636 270.648099 
L 213.434182 270.580411 
L 216.680727 270.538993 
L 219.927273 270.512845 
L 223.173818 270.497181 
L 226.420364 270.487791 
L 229.666909 270.481673 
L 232.913455 270.478353 
L 236.16 270.476467 
L 239.406545 270.475113 
L 242.653091 270.474746 
L 245.899636 270.47442 
L 249.146182 270.474094 
L 252.392727 270.473996 
L 255.639273 270.47393 
L 258.885818 270.473889 
L 262.132364 270.473915 
L 265.378909 270.473942 
L 268.625455 270.474652 
L 271.872 268.308888 
L 275.118545 265.958884 
L 278.365091 264.555308 
L 281.611636 263.917389 
L 284.858182 263.788138 
L 288.104727 263.9948 
L 291.351273 264.418413 
L 294.597818 264.971155 
L 297.844364 265.640733 
L 301.090909 266.312185 
L 304.337455 266.990926 
L 307.584 267.637367 
L 310.830545 268.232546 
L 314.077091 268.774035 
L 317.323636 269.279474 
L 320.570182 269.734267 
L 323.816727 270.025251 
L 327.063273 270.390886 
L 330.309818 270.662048 
L 333.556364 270.893508 
L 336.802909 271.086774 
L 340.049455 271.246656 
L 343.296 271.379288 
L 346.542545 271.487409 
L 349.789091 271.576899 
L 353.035636 271.649327 
L 356.282182 271.710715 
L 359.528727 271.760616 
L 362.775273 271.803206 
L 366.021818 271.837134 
L 369.268364 271.864735 
L 372.514909 271.887845 
L 375.761455 271.907879 
L 379.008 271.924996 
L 382.254545 271.936399 
L 385.501091 271.94354 
L 388.747636 271.951349 
L 391.994182 271.962548 
L 395.240727 271.976846 
L 398.487273 271.975356 
" clip-path="url(#pd3e1cfb086)" style="fill: none; stroke: #ff7f0e; stroke-width: 1.5; stroke-linecap: square"/>
   </g>
   <g id="patch_27">
    <path d="M 57.6 307.584 
L 57.6 261.702621 
" style="fill: none; stroke: #000000; stroke-width: 0.8; stroke-linejoin: miter; stroke-linecap: square"/>
   </g>
   <g id="patch_28">
    <path d="M 414.72 307.584 
L 414.72 261.702621 
" style="fill: none; stroke: #000000; stroke-width: 0.8; stroke-linejoin: miter; stroke-linecap: square"/>
   </g>
   <g id="patch_29">
    <path d="M 57.6 307.584 
L 414.72 307.584 
" style="fill: none; stroke: #000000; stroke-width: 0.8; stroke-linejoin: miter; stroke-linecap: square"/>
   </g>
   <g id="patch_30">
    <path d="M 57.6 261.702621 
L 414.72 261.702621 
" style="fill: none; stroke: #000000; stroke-width: 0.8; stroke-linejoin: miter; stroke-linecap: square"/>
   </g>
   <g id="text_39">
    <!-- yC -->
    <g transform="translate(228.419062 255.702621)scale(0.12 -0.12)">
     <defs>
      <path id="DejaVuSans-43" d="M 4122 4306 
L 4122 3641 
Q 3803 3938 3442 4084 
Q 3081 4231 2675 4231 
Q 1875 4231 1450 3742 
Q 1025 3253 1025 2328 
Q 1025 1406 1450 917 
Q 1875 428 2675 428 
Q 3081 428 3442 575 
Q 3803 722 4122 1019 
L 4122 359 
Q 3791 134 3420 21 
Q 3050 -91 2638 -91 
Q 1578 -91 968 557 
Q 359 1206 359 2328 
Q 359 3453 968 4101 
Q 1578 4750 2638 4750 
Q 3056 4750 3426 4639 
Q 3797 4528 4122 4306 
z
" transform="scale(0.015625)"/>
     </defs>
     <use xlink:href="#DejaVuSans-79"/>
     <use xlink:href="#DejaVuSans-43" x="59.179688"/>
    </g>
   </g>
   <g id="legend_5">
    <g id="patch_31">
     <path d="M 64.6 299.058871 
L 142.43125 299.058871 
Q 144.43125 299.058871 144.43125 297.058871 
L 144.43125 268.702621 
Q 144.43125 266.702621 142.43125 266.702621 
L 64.6 266.702621 
Q 62.6 266.702621 62.6 268.702621 
L 62.6 297.058871 
Q 62.6 299.058871 64.6 299.058871 
z
" style="fill: #ffffff; opacity: 0.8; stroke: #cccccc; stroke-linejoin: miter"/>
    </g>
    <g id="line2d_66">
     <path d="M 66.6 274.801058 
L 76.6 274.801058 
L 86.6 274.801058 
" style="fill: none; stroke: #1f77b4; stroke-width: 1.5; stroke-linecap: square"/>
    </g>
    <g id="text_40">
     <!-- yC0 (in) -->
     <g transform="translate(94.6 278.301058)scale(0.1 -0.1)">
      <use xlink:href="#DejaVuSans-79"/>
      <use xlink:href="#DejaVuSans-43" x="59.179688"/>
      <use xlink:href="#DejaVuSans-30" x="129.003906"/>
      <use xlink:href="#DejaVuSans-20" x="192.626953"/>
      <use xlink:href="#DejaVuSans-28" x="224.414062"/>
      <use xlink:href="#DejaVuSans-69" x="263.427734"/>
      <use xlink:href="#DejaVuSans-6e" x="291.210938"/>
      <use xlink:href="#DejaVuSans-29" x="354.589844"/>
     </g>
    </g>
    <g id="line2d_67">
     <path d="M 66.6 289.479183 
L 76.6 289.479183 
L 86.6 289.479183 
" style="fill: none; stroke: #ff7f0e; stroke-width: 1.5; stroke-linecap: square"/>
    </g>
    <g id="text_41">
     <!-- yCL (out) -->
     <g transform="translate(94.6 292.979183)scale(0.1 -0.1)">
      <use xlink:href="#DejaVuSans-79"/>
      <use xlink:href="#DejaVuSans-43" x="59.179688"/>
      <use xlink:href="#DejaVuSans-4c" x="129.003906"/>
      <use xlink:href="#DejaVuSans-20" x="184.716797"/>
      <use xlink:href="#DejaVuSans-28" x="216.503906"/>
      <use xlink:href="#DejaVuSans-6f" x="255.517578"/>
      <use xlink:href="#DejaVuSans-75" x="316.699219"/>
      <use xlink:href="#DejaVuSans-74" x="380.078125"/>
      <use xlink:href="#DejaVuSans-29" x="419.287109"/>
     </g>
    </g>
   </g>
  </g>
 </g>
 <defs>
  <clipPath id="pd388f21d87">
   <rect x="57.6" y="41.472" width="357.12" height="45.881379"/>
  </clipPath>
  <clipPath id="p8e8b3137e9">
   <rect x="57.6" y="96.529655" width="357.12" height="45.881379"/>
  </clipPath>
  <clipPath id="p6ae9844b91">
   <rect x="57.6" y="151.58731" width="357.12" height="45.881379"/>
  </clipPath>
  <clipPath id="p4a542c9fb1">
   <rect x="57.6" y="206.644966" width="357.12" height="45.881379"/>
  </clipPath>
  <clipPath id="pd3e1cfb086">
   <rect x="57.6" y="261.702621" width="357.12" height="45.881379"/>
  </clipPath>
 </defs>
</svg>
