<?xml version="1.0" encoding="utf-8" standalone="no"?>
<!DOCTYPE svg PUBLIC "-//W3C//DTD SVG 1.1//EN"
  "http://www.w3.org/Graphics/SVG/1.1/DTD/svg11.dtd">
<svg xmlns:xlink="http://www.w3.org/1999/xlink" width="460.8pt" height="345.6pt" viewBox="0 0 460.8 345.6" xmlns="http://www.w3.org/2000/svg" version="1.1">
 <metadata>
  <rdf:RDF xmlns:dc="http://purl.org/dc/elements/1.1/" xmlns:cc="http://creativecommons.org/ns#" xmlns:rdf="http://www.w3.org/1999/02/22-rdf-syntax-ns#">
   <cc:Work>
    <dc:type rdf:resource="http://purl.org/dc/dcmitype/StillImage"/>
    <dc:date>2022-07-10T00:04:48.553260</dc:date>
    <dc:format>image/svg+xml</dc:format>
    <dc:creator>
     <cc:Agent>
      <dc:title>Matplotlib v3.5.2, https://matplotlib.org/</dc:title>
     </cc:Agent>
    </dc:creator>
   </cc:Work>
  </rdf:RDF>
 </metadata>
 <defs>
  <style type="text/css">*{stroke-linejoin: round; stroke-linecap: butt}</style>
 </defs>
 <g id="figure_1">
  <g id="patch_1">
   <path d="M 0 345.6 
L 460.8 345.6 
L 460.8 0 
L 0 0 
z
" style="fill: #ffffff"/>
  </g>
  <g id="axes_1">
   <g id="patch_2">
    <path d="M 57.6 87.353379 
L 414.72 87.353379 
L 414.72 41.472 
L 57.6 41.472 
z
" style="fill: #ffffff"/>
   </g>
   <g id="axes_2">
    <g id="patch_3">
     <path d="M 414.72 87.353379 
L 414.72 87.353379 
L 414.72 41.472 
L 414.72 41.472 
z
" style="fill: #ffffff"/>
    </g>
    <g id="matplotlib.axis_1"/>
    <g id="matplotlib.axis_2">
     <g id="ytick_1">
      <g id="line2d_1">
       <defs>
        <path id="m3d38645366" d="M 0 0 
L 3.5 0 
" style="stroke: #000000; stroke-width: 0.8"/>
       </defs>
       <g>
        <use xlink:href="#m3d38645366" x="414.72" y="76.978431" style="stroke: #000000; stroke-width: 0.8"/>
       </g>
      </g>
      <g id="text_1">
       <!-- −25 -->
       <g transform="translate(421.72 80.777649)scale(0.1 -0.1)">
        <defs>
         <path id="DejaVuSans-2212" d="M 678 2272 
L 4684 2272 
L 4684 1741 
L 678 1741 
L 678 2272 
z
" transform="scale(0.015625)"/>
         <path id="DejaVuSans-32" d="M 1228 531 
L 3431 531 
L 3431 0 
L 469 0 
L 469 531 
Q 828 903 1448 1529 
Q 2069 2156 2228 2338 
Q 2531 2678 2651 2914 
Q 2772 3150 2772 3378 
Q 2772 3750 2511 3984 
Q 2250 4219 1831 4219 
Q 1534 4219 1204 4116 
Q 875 4013 500 3803 
L 500 4441 
Q 881 4594 1212 4672 
Q 1544 4750 1819 4750 
Q 2544 4750 2975 4387 
Q 3406 4025 3406 3419 
Q 3406 3131 3298 2873 
Q 3191 2616 2906 2266 
Q 2828 2175 2409 1742 
Q 1991 1309 1228 531 
z
" transform="scale(0.015625)"/>
         <path id="DejaVuSans-35" d="M 691 4666 
L 3169 4666 
L 3169 4134 
L 1269 4134 
L 1269 2991 
Q 1406 3038 1543 3061 
Q 1681 3084 1819 3084 
Q 2600 3084 3056 2656 
Q 3513 2228 3513 1497 
Q 3513 744 3044 326 
Q 2575 -91 1722 -91 
Q 1428 -91 1123 -41 
Q 819 9 494 109 
L 494 744 
Q 775 591 1075 516 
Q 1375 441 1709 441 
Q 2250 441 2565 725 
Q 2881 1009 2881 1497 
Q 2881 1984 2565 2268 
Q 2250 2553 1709 2553 
Q 1456 2553 1204 2497 
Q 953 2441 691 2322 
L 691 4666 
z
" transform="scale(0.015625)"/>
        </defs>
        <use xlink:href="#DejaVuSans-2212"/>
        <use xlink:href="#DejaVuSans-32" x="83.789062"/>
        <use xlink:href="#DejaVuSans-35" x="147.412109"/>
       </g>
      </g>
     </g>
     <g id="ytick_2">
      <g id="line2d_2">
       <g>
        <use xlink:href="#m3d38645366" x="414.72" y="50.857732" style="stroke: #000000; stroke-width: 0.8"/>
       </g>
      </g>
      <g id="text_2">
       <!-- 0 -->
       <g transform="translate(421.72 54.656951)scale(0.1 -0.1)">
        <defs>
         <path id="DejaVuSans-30" d="M 2034 4250 
Q 1547 4250 1301 3770 
Q 1056 3291 1056 2328 
Q 1056 1369 1301 889 
Q 1547 409 2034 409 
Q 2525 409 2770 889 
Q 3016 1369 3016 2328 
Q 3016 3291 2770 3770 
Q 2525 4250 2034 4250 
z
M 2034 4750 
Q 2819 4750 3233 4129 
Q 3647 3509 3647 2328 
Q 3647 1150 3233 529 
Q 2819 -91 2034 -91 
Q 1250 -91 836 529 
Q 422 1150 422 2328 
Q 422 3509 836 4129 
Q 1250 4750 2034 4750 
z
" transform="scale(0.015625)"/>
        </defs>
        <use xlink:href="#DejaVuSans-30"/>
       </g>
      </g>
     </g>
     <g id="text_3">
      <!-- vel [m/s] -->
      <g transform="translate(454.423125 86.48769)rotate(-90)scale(0.1 -0.1)">
       <defs>
        <path id="DejaVuSans-76" d="M 191 3500 
L 800 3500 
L 1894 563 
L 2988 3500 
L 3597 3500 
L 2284 0 
L 1503 0 
L 191 3500 
z
" transform="scale(0.015625)"/>
        <path id="DejaVuSans-65" d="M 3597 1894 
L 3597 1613 
L 953 1613 
Q 991 1019 1311 708 
Q 1631 397 2203 397 
Q 2534 397 2845 478 
Q 3156 559 3463 722 
L 3463 178 
Q 3153 47 2828 -22 
Q 2503 -91 2169 -91 
Q 1331 -91 842 396 
Q 353 884 353 1716 
Q 353 2575 817 3079 
Q 1281 3584 2069 3584 
Q 2775 3584 3186 3129 
Q 3597 2675 3597 1894 
z
M 3022 2063 
Q 3016 2534 2758 2815 
Q 2500 3097 2075 3097 
Q 1594 3097 1305 2825 
Q 1016 2553 972 2059 
L 3022 2063 
z
" transform="scale(0.015625)"/>
        <path id="DejaVuSans-6c" d="M 603 4863 
L 1178 4863 
L 1178 0 
L 603 0 
L 603 4863 
z
" transform="scale(0.015625)"/>
        <path id="DejaVuSans-20" transform="scale(0.015625)"/>
        <path id="DejaVuSans-5b" d="M 550 4863 
L 1875 4863 
L 1875 4416 
L 1125 4416 
L 1125 -397 
L 1875 -397 
L 1875 -844 
L 550 -844 
L 550 4863 
z
" transform="scale(0.015625)"/>
        <path id="DejaVuSans-6d" d="M 3328 2828 
Q 3544 3216 3844 3400 
Q 4144 3584 4550 3584 
Q 5097 3584 5394 3201 
Q 5691 2819 5691 2113 
L 5691 0 
L 5113 0 
L 5113 2094 
Q 5113 2597 4934 2840 
Q 4756 3084 4391 3084 
Q 3944 3084 3684 2787 
Q 3425 2491 3425 1978 
L 3425 0 
L 2847 0 
L 2847 2094 
Q 2847 2600 2669 2842 
Q 2491 3084 2119 3084 
Q 1678 3084 1418 2786 
Q 1159 2488 1159 1978 
L 1159 0 
L 581 0 
L 581 3500 
L 1159 3500 
L 1159 2956 
Q 1356 3278 1631 3431 
Q 1906 3584 2284 3584 
Q 2666 3584 2933 3390 
Q 3200 3197 3328 2828 
z
" transform="scale(0.015625)"/>
        <path id="DejaVuSans-2f" d="M 1625 4666 
L 2156 4666 
L 531 -594 
L 0 -594 
L 1625 4666 
z
" transform="scale(0.015625)"/>
        <path id="DejaVuSans-73" d="M 2834 3397 
L 2834 2853 
Q 2591 2978 2328 3040 
Q 2066 3103 1784 3103 
Q 1356 3103 1142 2972 
Q 928 2841 928 2578 
Q 928 2378 1081 2264 
Q 1234 2150 1697 2047 
L 1894 2003 
Q 2506 1872 2764 1633 
Q 3022 1394 3022 966 
Q 3022 478 2636 193 
Q 2250 -91 1575 -91 
Q 1294 -91 989 -36 
Q 684 19 347 128 
L 347 722 
Q 666 556 975 473 
Q 1284 391 1588 391 
Q 1994 391 2212 530 
Q 2431 669 2431 922 
Q 2431 1156 2273 1281 
Q 2116 1406 1581 1522 
L 1381 1569 
Q 847 1681 609 1914 
Q 372 2147 372 2553 
Q 372 3047 722 3315 
Q 1072 3584 1716 3584 
Q 2034 3584 2315 3537 
Q 2597 3491 2834 3397 
z
" transform="scale(0.015625)"/>
        <path id="DejaVuSans-5d" d="M 1947 4863 
L 1947 -844 
L 622 -844 
L 622 -397 
L 1369 -397 
L 1369 4416 
L 622 4416 
L 622 4863 
L 1947 4863 
z
" transform="scale(0.015625)"/>
       </defs>
       <use xlink:href="#DejaVuSans-76"/>
       <use xlink:href="#DejaVuSans-65" x="59.179688"/>
       <use xlink:href="#DejaVuSans-6c" x="120.703125"/>
       <use xlink:href="#DejaVuSans-20" x="148.486328"/>
       <use xlink:href="#DejaVuSans-5b" x="180.273438"/>
       <use xlink:href="#DejaVuSans-6d" x="219.287109"/>
       <use xlink:href="#DejaVuSans-2f" x="316.699219"/>
       <use xlink:href="#DejaVuSans-73" x="350.390625"/>
       <use xlink:href="#DejaVuSans-5d" x="402.490234"/>
      </g>
     </g>
    </g>
    <g id="patch_4">
     <path d="M 414.72 87.353379 
L 414.72 41.472 
" style="fill: none; stroke: #000000; stroke-width: 0.8; stroke-linejoin: miter; stroke-linecap: square"/>
    </g>
   </g>
   <g id="matplotlib.axis_3">
    <g id="xtick_1">
     <g id="line2d_3">
      <defs>
       <path id="m00221ab75c" d="M 0 0 
L 0 3.5 
" style="stroke: #000000; stroke-width: 0.8"/>
      </defs>
      <g>
       <use xlink:href="#m00221ab75c" x="73.832727" y="87.353379" style="stroke: #000000; stroke-width: 0.8"/>
      </g>
     </g>
    </g>
    <g id="xtick_2">
     <g id="line2d_4">
      <g>
       <use xlink:href="#m00221ab75c" x="116.550431" y="87.353379" style="stroke: #000000; stroke-width: 0.8"/>
      </g>
     </g>
    </g>
    <g id="xtick_3">
     <g id="line2d_5">
      <g>
       <use xlink:href="#m00221ab75c" x="159.268134" y="87.353379" style="stroke: #000000; stroke-width: 0.8"/>
      </g>
     </g>
    </g>
    <g id="xtick_4">
     <g id="line2d_6">
      <g>
       <use xlink:href="#m00221ab75c" x="201.985837" y="87.353379" style="stroke: #000000; stroke-width: 0.8"/>
      </g>
     </g>
    </g>
    <g id="xtick_5">
     <g id="line2d_7">
      <g>
       <use xlink:href="#m00221ab75c" x="244.703541" y="87.353379" style="stroke: #000000; stroke-width: 0.8"/>
      </g>
     </g>
    </g>
    <g id="xtick_6">
     <g id="line2d_8">
      <g>
       <use xlink:href="#m00221ab75c" x="287.421244" y="87.353379" style="stroke: #000000; stroke-width: 0.8"/>
      </g>
     </g>
    </g>
    <g id="xtick_7">
     <g id="line2d_9">
      <g>
       <use xlink:href="#m00221ab75c" x="330.138947" y="87.353379" style="stroke: #000000; stroke-width: 0.8"/>
      </g>
     </g>
    </g>
    <g id="xtick_8">
     <g id="line2d_10">
      <g>
       <use xlink:href="#m00221ab75c" x="372.856651" y="87.353379" style="stroke: #000000; stroke-width: 0.8"/>
      </g>
     </g>
    </g>
   </g>
   <g id="matplotlib.axis_4">
    <g id="ytick_3">
     <g id="line2d_11">
      <defs>
       <path id="m63407d8614" d="M 0 0 
L -3.5 0 
" style="stroke: #000000; stroke-width: 0.8"/>
      </defs>
      <g>
       <use xlink:href="#m63407d8614" x="57.6" y="76.978431" style="stroke: #000000; stroke-width: 0.8"/>
      </g>
     </g>
     <g id="text_4">
      <!-- −25 -->
      <g transform="translate(29.495313 80.777649)scale(0.1 -0.1)">
       <use xlink:href="#DejaVuSans-2212"/>
       <use xlink:href="#DejaVuSans-32" x="83.789062"/>
       <use xlink:href="#DejaVuSans-35" x="147.412109"/>
      </g>
     </g>
    </g>
    <g id="ytick_4">
     <g id="line2d_12">
      <g>
       <use xlink:href="#m63407d8614" x="57.6" y="50.857732" style="stroke: #000000; stroke-width: 0.8"/>
      </g>
     </g>
     <g id="text_5">
      <!-- 0 -->
      <g transform="translate(44.2375 54.656951)scale(0.1 -0.1)">
       <use xlink:href="#DejaVuSans-30"/>
      </g>
     </g>
    </g>
    <g id="text_6">
     <!-- vel [normalized] -->
     <g transform="translate(23.415625 105.111908)rotate(-90)scale(0.1 -0.1)">
      <defs>
       <path id="DejaVuSans-6e" d="M 3513 2113 
L 3513 0 
L 2938 0 
L 2938 2094 
Q 2938 2591 2744 2837 
Q 2550 3084 2163 3084 
Q 1697 3084 1428 2787 
Q 1159 2491 1159 1978 
L 1159 0 
L 581 0 
L 581 3500 
L 1159 3500 
L 1159 2956 
Q 1366 3272 1645 3428 
Q 1925 3584 2291 3584 
Q 2894 3584 3203 3211 
Q 3513 2838 3513 2113 
z
" transform="scale(0.015625)"/>
       <path id="DejaVuSans-6f" d="M 1959 3097 
Q 1497 3097 1228 2736 
Q 959 2375 959 1747 
Q 959 1119 1226 758 
Q 1494 397 1959 397 
Q 2419 397 2687 759 
Q 2956 1122 2956 1747 
Q 2956 2369 2687 2733 
Q 2419 3097 1959 3097 
z
M 1959 3584 
Q 2709 3584 3137 3096 
Q 3566 2609 3566 1747 
Q 3566 888 3137 398 
Q 2709 -91 1959 -91 
Q 1206 -91 779 398 
Q 353 888 353 1747 
Q 353 2609 779 3096 
Q 1206 3584 1959 3584 
z
" transform="scale(0.015625)"/>
       <path id="DejaVuSans-72" d="M 2631 2963 
Q 2534 3019 2420 3045 
Q 2306 3072 2169 3072 
Q 1681 3072 1420 2755 
Q 1159 2438 1159 1844 
L 1159 0 
L 581 0 
L 581 3500 
L 1159 3500 
L 1159 2956 
Q 1341 3275 1631 3429 
Q 1922 3584 2338 3584 
Q 2397 3584 2469 3576 
Q 2541 3569 2628 3553 
L 2631 2963 
z
" transform="scale(0.015625)"/>
       <path id="DejaVuSans-61" d="M 2194 1759 
Q 1497 1759 1228 1600 
Q 959 1441 959 1056 
Q 959 750 1161 570 
Q 1363 391 1709 391 
Q 2188 391 2477 730 
Q 2766 1069 2766 1631 
L 2766 1759 
L 2194 1759 
z
M 3341 1997 
L 3341 0 
L 2766 0 
L 2766 531 
Q 2569 213 2275 61 
Q 1981 -91 1556 -91 
Q 1019 -91 701 211 
Q 384 513 384 1019 
Q 384 1609 779 1909 
Q 1175 2209 1959 2209 
L 2766 2209 
L 2766 2266 
Q 2766 2663 2505 2880 
Q 2244 3097 1772 3097 
Q 1472 3097 1187 3025 
Q 903 2953 641 2809 
L 641 3341 
Q 956 3463 1253 3523 
Q 1550 3584 1831 3584 
Q 2591 3584 2966 3190 
Q 3341 2797 3341 1997 
z
" transform="scale(0.015625)"/>
       <path id="DejaVuSans-69" d="M 603 3500 
L 1178 3500 
L 1178 0 
L 603 0 
L 603 3500 
z
M 603 4863 
L 1178 4863 
L 1178 4134 
L 603 4134 
L 603 4863 
z
" transform="scale(0.015625)"/>
       <path id="DejaVuSans-7a" d="M 353 3500 
L 3084 3500 
L 3084 2975 
L 922 459 
L 3084 459 
L 3084 0 
L 275 0 
L 275 525 
L 2438 3041 
L 353 3041 
L 353 3500 
z
" transform="scale(0.015625)"/>
       <path id="DejaVuSans-64" d="M 2906 2969 
L 2906 4863 
L 3481 4863 
L 3481 0 
L 2906 0 
L 2906 525 
Q 2725 213 2448 61 
Q 2172 -91 1784 -91 
Q 1150 -91 751 415 
Q 353 922 353 1747 
Q 353 2572 751 3078 
Q 1150 3584 1784 3584 
Q 2172 3584 2448 3432 
Q 2725 3281 2906 2969 
z
M 947 1747 
Q 947 1113 1208 752 
Q 1469 391 1925 391 
Q 2381 391 2643 752 
Q 2906 1113 2906 1747 
Q 2906 2381 2643 2742 
Q 2381 3103 1925 3103 
Q 1469 3103 1208 2742 
Q 947 2381 947 1747 
z
" transform="scale(0.015625)"/>
      </defs>
      <use xlink:href="#DejaVuSans-76"/>
      <use xlink:href="#DejaVuSans-65" x="59.179688"/>
      <use xlink:href="#DejaVuSans-6c" x="120.703125"/>
      <use xlink:href="#DejaVuSans-20" x="148.486328"/>
      <use xlink:href="#DejaVuSans-5b" x="180.273438"/>
      <use xlink:href="#DejaVuSans-6e" x="219.287109"/>
      <use xlink:href="#DejaVuSans-6f" x="282.666016"/>
      <use xlink:href="#DejaVuSans-72" x="343.847656"/>
      <use xlink:href="#DejaVuSans-6d" x="383.210938"/>
      <use xlink:href="#DejaVuSans-61" x="480.623047"/>
      <use xlink:href="#DejaVuSans-6c" x="541.902344"/>
      <use xlink:href="#DejaVuSans-69" x="569.685547"/>
      <use xlink:href="#DejaVuSans-7a" x="597.46875"/>
      <use xlink:href="#DejaVuSans-65" x="649.958984"/>
      <use xlink:href="#DejaVuSans-64" x="711.482422"/>
      <use xlink:href="#DejaVuSans-5d" x="774.958984"/>
     </g>
    </g>
   </g>
   <g id="line2d_13">
    <path d="M 73.832727 57.655693 
L 90.919809 56.944228 
L 108.00689 56.336683 
L 125.093971 55.806388 
L 142.181053 55.335111 
L 159.268134 54.909855 
L 176.355215 54.521052 
L 193.442297 54.16147 
L 210.529378 53.825529 
L 227.616459 53.508837 
L 244.703541 53.207888 
L 261.790622 52.919831 
L 278.877703 52.642317 
L 295.964785 52.373371 
L 313.051866 52.111309 
L 330.138947 51.854662 
L 347.226029 51.602127 
L 364.31311 51.352518 
L 381.400191 51.104735 
L 398.487273 51.104735 
" clip-path="url(#pd9a051c627)" style="fill: none; stroke: #1f77b4; stroke-width: 1.5; stroke-linecap: square"/>
   </g>
   <g id="line2d_14">
    <path d="M 73.832727 50.550098 
L 90.919809 50.565257 
L 108.00689 50.580542 
L 125.093971 50.595957 
L 142.181053 50.611504 
L 159.268134 50.627182 
L 176.355215 50.642986 
L 193.442297 50.658913 
L 210.529378 50.674959 
L 227.616459 50.691118 
L 244.703541 50.707387 
L 261.790622 50.723759 
L 278.877703 50.74023 
L 295.964785 50.756793 
L 313.051866 50.773443 
L 330.138947 50.790173 
L 347.226029 50.806975 
L 364.31311 50.823841 
L 381.400191 50.840764 
L 398.487273 50.840764 
" clip-path="url(#pd9a051c627)" style="fill: none; stroke: #ff7f0e; stroke-width: 1.5; stroke-linecap: square"/>
   </g>
   <g id="line2d_15">
    <path d="M 73.832727 49.812969 
L 90.919809 49.812896 
L 108.00689 49.812831 
L 125.093971 49.812788 
L 142.181053 49.812768 
L 159.268134 49.812766 
L 176.355215 49.812778 
L 193.442297 49.812799 
L 210.529378 49.812824 
L 227.616459 49.812849 
L 244.703541 49.812872 
L 261.790622 49.812889 
L 278.877703 49.812898 
L 295.964785 49.812898 
L 313.051866 49.812887 
L 330.138947 49.812864 
L 347.226029 49.812827 
L 364.31311 49.812776 
L 381.400191 49.812708 
L 398.487273 49.812708 
" clip-path="url(#pd9a051c627)" style="fill: none; stroke: #2ca02c; stroke-width: 1.5; stroke-linecap: square"/>
   </g>
   <g id="line2d_16">
    <path d="M 73.832727 49.812734 
L 90.919809 49.812374 
L 108.00689 49.811967 
L 125.093971 49.811552 
L 142.181053 49.81115 
L 159.268134 49.810769 
L 176.355215 49.810411 
L 193.442297 49.810073 
L 210.529378 49.809752 
L 227.616459 49.809444 
L 244.703541 49.809147 
L 261.790622 49.808858 
L 278.877703 49.808574 
L 295.964785 49.808294 
L 313.051866 49.808016 
L 330.138947 49.80774 
L 347.226029 49.807464 
L 364.31311 49.807187 
L 381.400191 49.806908 
L 398.487273 49.806908 
" clip-path="url(#pd9a051c627)" style="fill: none; stroke: #d62728; stroke-width: 1.5; stroke-linecap: square"/>
   </g>
   <g id="line2d_17">
    <path d="M 73.832727 50.668 
L 90.919809 50.476666 
L 108.00689 50.282999 
L 125.093971 50.086595 
L 142.181053 49.887341 
L 159.268134 49.685315 
L 176.355215 49.480681 
L 193.442297 49.273621 
L 210.529378 49.064303 
L 227.616459 48.852857 
L 244.703541 48.639373 
L 261.790622 48.423906 
L 278.877703 48.206474 
L 295.964785 47.987071 
L 313.051866 47.765664 
L 330.138947 47.542202 
L 347.226029 47.316618 
L 364.31311 47.088828 
L 381.400191 46.85874 
L 398.487273 46.85874 
" clip-path="url(#pd9a051c627)" style="fill: none; stroke: #9467bd; stroke-width: 1.5; stroke-linecap: square"/>
   </g>
   <g id="line2d_18">
    <path d="M 73.832727 50.521847 
L 90.919809 50.183797 
L 108.00689 49.842497 
L 125.093971 49.497096 
L 142.181053 49.146962 
L 159.268134 48.791642 
L 176.355215 48.430805 
L 193.442297 48.064187 
L 210.529378 47.691543 
L 227.616459 47.312616 
L 244.703541 46.927116 
L 261.790622 46.534709 
L 278.877703 46.135016 
L 295.964785 45.727612 
L 313.051866 45.31203 
L 330.138947 44.887768 
L 347.226029 44.454295 
L 364.31311 44.011063 
L 381.400191 43.557517 
L 398.487273 43.557517 
" clip-path="url(#pd9a051c627)" style="fill: none; stroke: #8c564b; stroke-width: 1.5; stroke-linecap: square"/>
   </g>
   <g id="line2d_19">
    <path d="M 73.832727 50.807746 
L 90.919809 50.75771 
L 108.00689 50.707727 
L 125.093971 50.657926 
L 142.181053 50.608465 
L 159.268134 50.559528 
L 176.355215 50.511325 
L 193.442297 50.464082 
L 210.529378 50.418039 
L 227.616459 50.373447 
L 244.703541 50.330557 
L 261.790622 50.289626 
L 278.877703 50.250911 
L 295.964785 50.214668 
L 313.051866 50.181155 
L 330.138947 50.150631 
L 347.226029 50.123353 
L 364.31311 50.09958 
L 381.400191 50.07957 
L 398.487273 50.07957 
" clip-path="url(#pd9a051c627)" style="fill: none; stroke: #e377c2; stroke-width: 1.5; stroke-linecap: square"/>
   </g>
   <g id="line2d_20">
    <path d="M 73.832727 50.852021 
L 90.919809 50.846318 
L 108.00689 50.840637 
L 125.093971 50.834998 
L 142.181053 50.829426 
L 159.268134 50.823947 
L 176.355215 50.81859 
L 193.442297 50.813386 
L 210.529378 50.808366 
L 227.616459 50.803562 
L 244.703541 50.799006 
L 261.790622 50.79473 
L 278.877703 50.790763 
L 295.964785 50.787134 
L 313.051866 50.783871 
L 330.138947 50.781002 
L 347.226029 50.778551 
L 364.31311 50.776543 
L 381.400191 50.775003 
L 398.487273 50.775003 
" clip-path="url(#pd9a051c627)" style="fill: none; stroke: #7f7f7f; stroke-width: 1.5; stroke-linecap: square"/>
   </g>
   <g id="line2d_21">
    <path d="M 73.832727 85.267862 
L 90.919809 78.186271 
L 108.00689 73.446633 
L 125.093971 69.982411 
L 142.181053 67.298275 
L 159.268134 65.129717 
L 176.355215 63.321148 
L 193.442297 61.774285 
L 210.529378 60.423539 
L 227.616459 59.223144 
L 244.703541 58.139956 
L 261.790622 57.149172 
L 278.877703 56.231677 
L 295.964785 55.372319 
L 313.051866 54.558756 
L 330.138947 53.780653 
L 347.226029 53.029105 
L 364.31311 52.296205 
L 381.400191 51.574703 
L 398.487273 51.574703 
" clip-path="url(#pd9a051c627)" style="fill: none; stroke: #bcbd22; stroke-width: 1.5; stroke-linecap: square"/>
   </g>
   <g id="line2d_22">
    <path d="M 73.832727 74.21391 
L 90.919809 69.663916 
L 108.00689 66.637964 
L 125.093971 64.413514 
L 142.181053 62.66988 
L 159.268134 61.240298 
L 176.355215 60.028273 
L 193.442297 58.973507 
L 210.529378 58.03605 
L 227.616459 57.188185 
L 244.703541 56.409926 
L 261.790622 55.686377 
L 278.877703 55.006092 
L 295.964785 54.360027 
L 313.051866 53.740831 
L 330.138947 53.142359 
L 347.226029 52.559323 
L 364.31311 51.987033 
L 381.400191 51.421191 
L 398.487273 51.421191 
" clip-path="url(#pd9a051c627)" style="fill: none; stroke: #17becf; stroke-width: 1.5; stroke-linecap: square"/>
   </g>
   <g id="line2d_23">
    <path d="M 73.832727 66.058891 
L 90.919809 63.583521 
L 108.00689 61.79992 
L 125.093971 60.418283 
L 142.181053 59.294024 
L 159.268134 58.34573 
L 176.355215 57.52347 
L 193.442297 56.79462 
L 210.529378 56.136796 
L 227.616459 55.534019 
L 244.703541 54.974501 
L 261.790622 54.449289 
L 278.877703 53.951398 
L 295.964785 53.475235 
L 313.051866 53.016207 
L 330.138947 52.570444 
L 347.226029 52.134591 
L 364.31311 51.70566 
L 381.400191 51.280906 
L 398.487273 51.280906 
" clip-path="url(#pd9a051c627)" style="fill: none; stroke: #1f77b4; stroke-width: 1.5; stroke-linecap: square"/>
   </g>
   <g id="line2d_24">
    <path d="M 73.832727 61.510443 
L 90.919809 60.059604 
L 108.00689 58.933694 
L 125.093971 58.016459 
L 142.181053 57.242427 
L 159.268134 56.571367 
L 176.355215 55.976913 
L 193.442297 55.440917 
L 210.529378 54.950392 
L 227.616459 54.495749 
L 244.703541 54.06971 
L 261.790622 53.666616 
L 278.877703 53.281964 
L 295.964785 52.91209 
L 313.051866 52.553943 
L 330.138947 52.204924 
L 347.226029 51.862758 
L 364.31311 51.525407 
L 381.400191 51.190991 
L 398.487273 51.190991 
" clip-path="url(#pd9a051c627)" style="fill: none; stroke: #ff7f0e; stroke-width: 1.5; stroke-linecap: square"/>
   </g>
   <g id="line2d_25">
    <path d="M 73.832727 58.705128 
L 90.919809 57.807153 
L 108.00689 57.063545 
L 125.093971 56.429021 
L 142.181053 55.87476 
L 159.268134 55.381322 
L 176.355215 54.935 
L 193.442297 54.525786 
L 210.529378 54.146172 
L 227.616459 53.790389 
L 244.703541 53.453914 
L 261.790622 53.133132 
L 278.877703 52.8251 
L 295.964785 52.527375 
L 313.051866 52.237891 
L 330.138947 51.954861 
L 347.226029 51.676709 
L 364.31311 51.402006 
L 381.400191 51.129432 
L 398.487273 51.129432 
" clip-path="url(#pd9a051c627)" style="fill: none; stroke: #2ca02c; stroke-width: 1.5; stroke-linecap: square"/>
   </g>
   <g id="patch_5">
    <path d="M 57.6 87.353379 
L 57.6 41.472 
" style="fill: none; stroke: #000000; stroke-width: 0.8; stroke-linejoin: miter; stroke-linecap: square"/>
   </g>
   <g id="patch_6">
    <path d="M 414.72 87.353379 
L 414.72 41.472 
" style="fill: none; stroke: #000000; stroke-width: 0.8; stroke-linejoin: miter; stroke-linecap: square"/>
   </g>
   <g id="patch_7">
    <path d="M 57.6 87.353379 
L 414.72 87.353379 
" style="fill: none; stroke: #000000; stroke-width: 0.8; stroke-linejoin: miter; stroke-linecap: square"/>
   </g>
   <g id="patch_8">
    <path d="M 57.6 41.472 
L 414.72 41.472 
" style="fill: none; stroke: #000000; stroke-width: 0.8; stroke-linejoin: miter; stroke-linecap: square"/>
   </g>
   <g id="text_7">
    <!-- velocity - Container 1  -->
    <g transform="translate(169.779375 38.472)scale(0.12 -0.12)">
     <defs>
      <path id="DejaVuSans-63" d="M 3122 3366 
L 3122 2828 
Q 2878 2963 2633 3030 
Q 2388 3097 2138 3097 
Q 1578 3097 1268 2742 
Q 959 2388 959 1747 
Q 959 1106 1268 751 
Q 1578 397 2138 397 
Q 2388 397 2633 464 
Q 2878 531 3122 666 
L 3122 134 
Q 2881 22 2623 -34 
Q 2366 -91 2075 -91 
Q 1284 -91 818 406 
Q 353 903 353 1747 
Q 353 2603 823 3093 
Q 1294 3584 2113 3584 
Q 2378 3584 2631 3529 
Q 2884 3475 3122 3366 
z
" transform="scale(0.015625)"/>
      <path id="DejaVuSans-74" d="M 1172 4494 
L 1172 3500 
L 2356 3500 
L 2356 3053 
L 1172 3053 
L 1172 1153 
Q 1172 725 1289 603 
Q 1406 481 1766 481 
L 2356 481 
L 2356 0 
L 1766 0 
Q 1100 0 847 248 
Q 594 497 594 1153 
L 594 3053 
L 172 3053 
L 172 3500 
L 594 3500 
L 594 4494 
L 1172 4494 
z
" transform="scale(0.015625)"/>
      <path id="DejaVuSans-79" d="M 2059 -325 
Q 1816 -950 1584 -1140 
Q 1353 -1331 966 -1331 
L 506 -1331 
L 506 -850 
L 844 -850 
Q 1081 -850 1212 -737 
Q 1344 -625 1503 -206 
L 1606 56 
L 191 3500 
L 800 3500 
L 1894 763 
L 2988 3500 
L 3597 3500 
L 2059 -325 
z
" transform="scale(0.015625)"/>
      <path id="DejaVuSans-2d" d="M 313 2009 
L 1997 2009 
L 1997 1497 
L 313 1497 
L 313 2009 
z
" transform="scale(0.015625)"/>
      <path id="DejaVuSans-43" d="M 4122 4306 
L 4122 3641 
Q 3803 3938 3442 4084 
Q 3081 4231 2675 4231 
Q 1875 4231 1450 3742 
Q 1025 3253 1025 2328 
Q 1025 1406 1450 917 
Q 1875 428 2675 428 
Q 3081 428 3442 575 
Q 3803 722 4122 1019 
L 4122 359 
Q 3791 134 3420 21 
Q 3050 -91 2638 -91 
Q 1578 -91 968 557 
Q 359 1206 359 2328 
Q 359 3453 968 4101 
Q 1578 4750 2638 4750 
Q 3056 4750 3426 4639 
Q 3797 4528 4122 4306 
z
" transform="scale(0.015625)"/>
      <path id="DejaVuSans-31" d="M 794 531 
L 1825 531 
L 1825 4091 
L 703 3866 
L 703 4441 
L 1819 4666 
L 2450 4666 
L 2450 531 
L 3481 531 
L 3481 0 
L 794 0 
L 794 531 
z
" transform="scale(0.015625)"/>
     </defs>
     <use xlink:href="#DejaVuSans-76"/>
     <use xlink:href="#DejaVuSans-65" x="59.179688"/>
     <use xlink:href="#DejaVuSans-6c" x="120.703125"/>
     <use xlink:href="#DejaVuSans-6f" x="148.486328"/>
     <use xlink:href="#DejaVuSans-63" x="209.667969"/>
     <use xlink:href="#DejaVuSans-69" x="264.648438"/>
     <use xlink:href="#DejaVuSans-74" x="292.431641"/>
     <use xlink:href="#DejaVuSans-79" x="331.640625"/>
     <use xlink:href="#DejaVuSans-20" x="390.820312"/>
     <use xlink:href="#DejaVuSans-2d" x="422.607422"/>
     <use xlink:href="#DejaVuSans-20" x="458.691406"/>
     <use xlink:href="#DejaVuSans-43" x="490.478516"/>
     <use xlink:href="#DejaVuSans-6f" x="560.302734"/>
     <use xlink:href="#DejaVuSans-6e" x="621.484375"/>
     <use xlink:href="#DejaVuSans-74" x="684.863281"/>
     <use xlink:href="#DejaVuSans-61" x="724.072266"/>
     <use xlink:href="#DejaVuSans-69" x="785.351562"/>
     <use xlink:href="#DejaVuSans-6e" x="813.134766"/>
     <use xlink:href="#DejaVuSans-65" x="876.513672"/>
     <use xlink:href="#DejaVuSans-72" x="938.037109"/>
     <use xlink:href="#DejaVuSans-20" x="979.150391"/>
     <use xlink:href="#DejaVuSans-31" x="1010.9375"/>
     <use xlink:href="#DejaVuSans-20" x="1074.560547"/>
    </g>
   </g>
  </g>
  <g id="axes_3">
   <g id="patch_9">
    <path d="M 57.6 142.411034 
L 414.72 142.411034 
L 414.72 96.529655 
L 57.6 96.529655 
z
" style="fill: #ffffff"/>
   </g>
   <g id="matplotlib.axis_5">
    <g id="xtick_9">
     <g id="line2d_26">
      <g>
       <use xlink:href="#m00221ab75c" x="73.832727" y="142.411034" style="stroke: #000000; stroke-width: 0.8"/>
      </g>
     </g>
    </g>
    <g id="xtick_10">
     <g id="line2d_27">
      <g>
       <use xlink:href="#m00221ab75c" x="116.550431" y="142.411034" style="stroke: #000000; stroke-width: 0.8"/>
      </g>
     </g>
    </g>
    <g id="xtick_11">
     <g id="line2d_28">
      <g>
       <use xlink:href="#m00221ab75c" x="159.268134" y="142.411034" style="stroke: #000000; stroke-width: 0.8"/>
      </g>
     </g>
    </g>
    <g id="xtick_12">
     <g id="line2d_29">
      <g>
       <use xlink:href="#m00221ab75c" x="201.985837" y="142.411034" style="stroke: #000000; stroke-width: 0.8"/>
      </g>
     </g>
    </g>
    <g id="xtick_13">
     <g id="line2d_30">
      <g>
       <use xlink:href="#m00221ab75c" x="244.703541" y="142.411034" style="stroke: #000000; stroke-width: 0.8"/>
      </g>
     </g>
    </g>
    <g id="xtick_14">
     <g id="line2d_31">
      <g>
       <use xlink:href="#m00221ab75c" x="287.421244" y="142.411034" style="stroke: #000000; stroke-width: 0.8"/>
      </g>
     </g>
    </g>
    <g id="xtick_15">
     <g id="line2d_32">
      <g>
       <use xlink:href="#m00221ab75c" x="330.138947" y="142.411034" style="stroke: #000000; stroke-width: 0.8"/>
      </g>
     </g>
    </g>
    <g id="xtick_16">
     <g id="line2d_33">
      <g>
       <use xlink:href="#m00221ab75c" x="372.856651" y="142.411034" style="stroke: #000000; stroke-width: 0.8"/>
      </g>
     </g>
    </g>
   </g>
   <g id="matplotlib.axis_6">
    <g id="ytick_5">
     <g id="line2d_34">
      <g>
       <use xlink:href="#m63407d8614" x="57.6" y="140.777131" style="stroke: #000000; stroke-width: 0.8"/>
      </g>
     </g>
     <g id="text_8">
      <!-- 0 -->
      <g transform="translate(44.2375 144.576349)scale(0.1 -0.1)">
       <use xlink:href="#DejaVuSans-30"/>
      </g>
     </g>
    </g>
    <g id="ytick_6">
     <g id="line2d_35">
      <g>
       <use xlink:href="#m63407d8614" x="57.6" y="98.771975" style="stroke: #000000; stroke-width: 0.8"/>
      </g>
     </g>
     <g id="text_9">
      <!-- 1 -->
      <g transform="translate(44.2375 102.571193)scale(0.1 -0.1)">
       <use xlink:href="#DejaVuSans-31"/>
      </g>
     </g>
    </g>
   </g>
   <g id="line2d_36">
    <path d="M 73.832727 140.325517 
L 90.919809 140.273368 
L 108.00689 140.226677 
L 125.093971 140.184646 
L 142.181053 140.146683 
L 159.268134 140.112336 
L 176.355215 140.081251 
L 193.442297 140.053149 
L 210.529378 140.027805 
L 227.616459 140.005038 
L 244.703541 139.9847 
L 261.790622 139.966672 
L 278.877703 139.950853 
L 295.964785 139.937162 
L 313.051866 139.925536 
L 330.138947 139.915919 
L 347.226029 139.908271 
L 364.31311 139.902561 
L 381.400191 139.898765 
L 398.487273 139.89687 
" clip-path="url(#p3c4be5d7bb)" style="fill: none; stroke: #1f77b4; stroke-width: 1.5; stroke-linecap: square"/>
   </g>
   <g id="line2d_37">
    <path d="M 73.832727 99.532729 
L 90.919809 99.535089 
L 108.00689 99.537333 
L 125.093971 99.539459 
L 142.181053 99.541467 
L 159.268134 99.543356 
L 176.355215 99.545125 
L 193.442297 99.546772 
L 210.529378 99.548297 
L 227.616459 99.5497 
L 244.703541 99.550978 
L 261.790622 99.552131 
L 278.877703 99.553159 
L 295.964785 99.55406 
L 313.051866 99.554835 
L 330.138947 99.555481 
L 347.226029 99.555999 
L 364.31311 99.556389 
L 381.400191 99.556649 
L 398.487273 99.556779 
" clip-path="url(#p3c4be5d7bb)" style="fill: none; stroke: #ff7f0e; stroke-width: 1.5; stroke-linecap: square"/>
   </g>
   <g id="line2d_38">
    <path d="M 73.832727 98.615667 
L 90.919809 98.623682 
L 108.00689 98.631697 
L 125.093971 98.639713 
L 142.181053 98.647729 
L 159.268134 98.655745 
L 176.355215 98.663761 
L 193.442297 98.671777 
L 210.529378 98.679793 
L 227.616459 98.687809 
L 244.703541 98.695825 
L 261.790622 98.70384 
L 278.877703 98.711856 
L 295.964785 98.719871 
L 313.051866 98.727886 
L 330.138947 98.735901 
L 347.226029 98.743917 
L 364.31311 98.751933 
L 381.400191 98.759949 
L 398.487273 98.767966 
" clip-path="url(#p3c4be5d7bb)" style="fill: none; stroke: #2ca02c; stroke-width: 1.5; stroke-linecap: square"/>
   </g>
   <g id="line2d_39">
    <path d="M 73.832727 98.615172 
L 90.919809 98.623189 
L 108.00689 98.631208 
L 125.093971 98.639231 
L 142.181053 98.647256 
L 159.268134 98.655285 
L 176.355215 98.663316 
L 193.442297 98.671351 
L 210.529378 98.679388 
L 227.616459 98.687427 
L 244.703541 98.695469 
L 261.790622 98.703513 
L 278.877703 98.711559 
L 295.964785 98.719607 
L 313.051866 98.727658 
L 330.138947 98.735711 
L 347.226029 98.743765 
L 364.31311 98.751822 
L 381.400191 98.759881 
L 398.487273 98.767943 
" clip-path="url(#p3c4be5d7bb)" style="fill: none; stroke: #d62728; stroke-width: 1.5; stroke-linecap: square"/>
   </g>
   <g id="line2d_40">
    <path d="M 73.832727 122.348359 
L 90.919809 122.349815 
L 108.00689 122.352738 
L 125.093971 122.357147 
L 142.181053 122.363062 
L 159.268134 122.370507 
L 176.355215 122.379501 
L 193.442297 122.390064 
L 210.529378 122.402217 
L 227.616459 122.415975 
L 244.703541 122.431355 
L 261.790622 122.448372 
L 278.877703 122.467043 
L 295.964785 122.487381 
L 313.051866 122.509403 
L 330.138947 122.533123 
L 347.226029 122.558558 
L 364.31311 122.585723 
L 381.400191 122.614635 
L 398.487273 122.645313 
" clip-path="url(#p3c4be5d7bb)" style="fill: none; stroke: #9467bd; stroke-width: 1.5; stroke-linecap: square"/>
   </g>
   <g id="line2d_41">
    <path d="M 73.832727 135.76184 
L 90.919809 135.764417 
L 108.00689 135.769587 
L 125.093971 135.777375 
L 142.181053 135.787813 
L 159.268134 135.800937 
L 176.355215 135.816786 
L 193.442297 135.835404 
L 210.529378 135.856834 
L 227.616459 135.881123 
L 244.703541 135.908319 
L 261.790622 135.938472 
L 278.877703 135.971635 
L 295.964785 136.007864 
L 313.051866 136.047219 
L 330.138947 136.089762 
L 347.226029 136.135559 
L 364.31311 136.184682 
L 381.400191 136.237205 
L 398.487273 136.293207 
" clip-path="url(#p3c4be5d7bb)" style="fill: none; stroke: #8c564b; stroke-width: 1.5; stroke-linecap: square"/>
   </g>
   <g id="line2d_42">
    <path d="M 73.832727 136.502069 
L 90.919809 136.502453 
L 108.00689 136.50322 
L 125.093971 136.504371 
L 142.181053 136.505904 
L 159.268134 136.507816 
L 176.355215 136.510103 
L 193.442297 136.512761 
L 210.529378 136.515781 
L 227.616459 136.519154 
L 244.703541 136.522869 
L 261.790622 136.526913 
L 278.877703 136.531271 
L 295.964785 136.535926 
L 313.051866 136.540859 
L 330.138947 136.54605 
L 347.226029 136.551474 
L 364.31311 136.557108 
L 381.400191 136.562924 
L 398.487273 136.568893 
" clip-path="url(#p3c4be5d7bb)" style="fill: none; stroke: #e377c2; stroke-width: 1.5; stroke-linecap: square"/>
   </g>
   <g id="line2d_43">
    <path d="M 73.832727 136.568737 
L 90.919809 136.568781 
L 108.00689 136.568868 
L 125.093971 136.568999 
L 142.181053 136.569174 
L 159.268134 136.569391 
L 176.355215 136.56965 
L 193.442297 136.56995 
L 210.529378 136.570291 
L 227.616459 136.570669 
L 244.703541 136.571085 
L 261.790622 136.571535 
L 278.877703 136.572019 
L 295.964785 136.572532 
L 313.051866 136.573074 
L 330.138947 136.573641 
L 347.226029 136.574229 
L 364.31311 136.574837 
L 381.400191 136.57546 
L 398.487273 136.576094 
" clip-path="url(#p3c4be5d7bb)" style="fill: none; stroke: #7f7f7f; stroke-width: 1.5; stroke-linecap: square"/>
   </g>
   <g id="line2d_44">
    <path d="M 73.832727 139.623508 
L 90.919809 139.359538 
L 108.00689 139.149892 
L 125.093971 138.976606 
L 142.181053 138.829895 
L 159.268134 138.703774 
L 176.355215 138.594289 
L 193.442297 138.498679 
L 210.529378 138.414935 
L 227.616459 138.341552 
L 244.703541 138.277379 
L 261.790622 138.221515 
L 278.877703 138.173251 
L 295.964785 138.132026 
L 313.051866 138.097393 
L 330.138947 138.069002 
L 347.226029 138.046579 
L 364.31311 138.029922 
L 381.400191 138.018887 
L 398.487273 138.013387 
" clip-path="url(#p3c4be5d7bb)" style="fill: none; stroke: #bcbd22; stroke-width: 1.5; stroke-linecap: square"/>
   </g>
   <g id="line2d_45">
    <path d="M 73.832727 140.179203 
L 90.919809 140.000031 
L 108.00689 139.855763 
L 125.093971 139.734708 
L 142.181053 139.630717 
L 159.268134 139.540103 
L 176.355215 139.460455 
L 193.442297 139.390105 
L 210.529378 139.327846 
L 227.616459 139.272779 
L 244.703541 139.224217 
L 261.790622 139.181624 
L 278.877703 139.144582 
L 295.964785 139.112759 
L 313.051866 139.085892 
L 330.138947 139.063774 
L 347.226029 139.046248 
L 364.31311 139.033195 
L 381.400191 139.024532 
L 398.487273 139.020209 
" clip-path="url(#p3c4be5d7bb)" style="fill: none; stroke: #17becf; stroke-width: 1.5; stroke-linecap: square"/>
   </g>
   <g id="line2d_46">
    <path d="M 73.832727 140.268357 
L 90.919809 140.151744 
L 108.00689 140.054121 
L 125.093971 139.97018 
L 142.181053 139.896838 
L 159.268134 139.832121 
L 176.355215 139.774678 
L 193.442297 139.723543 
L 210.529378 139.678 
L 227.616459 139.637502 
L 244.703541 139.601629 
L 261.790622 139.570048 
L 278.877703 139.542496 
L 295.964785 139.518764 
L 313.051866 139.498684 
L 330.138947 139.482126 
L 347.226029 139.468987 
L 364.31311 139.459192 
L 381.400191 139.452687 
L 398.487273 139.449441 
" clip-path="url(#p3c4be5d7bb)" style="fill: none; stroke: #1f77b4; stroke-width: 1.5; stroke-linecap: square"/>
   </g>
   <g id="line2d_47">
    <path d="M 73.832727 140.302154 
L 90.919809 140.220434 
L 108.00689 140.149843 
L 125.093971 140.08789 
L 142.181053 140.032973 
L 159.268134 139.983994 
L 176.355215 139.940163 
L 193.442297 139.900893 
L 210.529378 139.865734 
L 227.616459 139.834338 
L 244.703541 139.806429 
L 261.790622 139.781789 
L 278.877703 139.760241 
L 295.964785 139.741644 
L 313.051866 139.725885 
L 330.138947 139.712873 
L 347.226029 139.702538 
L 364.31311 139.694828 
L 381.400191 139.689706 
L 398.487273 139.68715 
" clip-path="url(#p3c4be5d7bb)" style="fill: none; stroke: #ff7f0e; stroke-width: 1.5; stroke-linecap: square"/>
   </g>
   <g id="line2d_48">
    <path d="M 73.832727 140.319564 
L 90.919809 140.259364 
L 108.00689 140.206053 
L 125.093971 140.158446 
L 142.181053 140.115707 
L 159.268134 140.07722 
L 176.355215 140.042518 
L 193.442297 140.01124 
L 210.529378 139.983101 
L 227.616459 139.957875 
L 244.703541 139.935377 
L 261.790622 139.915461 
L 278.877703 139.898006 
L 295.964785 139.882914 
L 313.051866 139.870105 
L 330.138947 139.859518 
L 347.226029 139.851101 
L 364.31311 139.844819 
L 381.400191 139.840644 
L 398.487273 139.838559 
" clip-path="url(#p3c4be5d7bb)" style="fill: none; stroke: #2ca02c; stroke-width: 1.5; stroke-linecap: square"/>
   </g>
   <g id="patch_10">
    <path d="M 57.6 142.411034 
L 57.6 96.529655 
" style="fill: none; stroke: #000000; stroke-width: 0.8; stroke-linejoin: miter; stroke-linecap: square"/>
   </g>
   <g id="patch_11">
    <path d="M 414.72 142.411034 
L 414.72 96.529655 
" style="fill: none; stroke: #000000; stroke-width: 0.8; stroke-linejoin: miter; stroke-linecap: square"/>
   </g>
   <g id="patch_12">
    <path d="M 57.6 142.411034 
L 414.72 142.411034 
" style="fill: none; stroke: #000000; stroke-width: 0.8; stroke-linejoin: miter; stroke-linecap: square"/>
   </g>
   <g id="patch_13">
    <path d="M 57.6 96.529655 
L 414.72 96.529655 
" style="fill: none; stroke: #000000; stroke-width: 0.8; stroke-linejoin: miter; stroke-linecap: square"/>
   </g>
   <g id="text_10">
    <!-- Pressure - Container 1 -->
    <g transform="translate(169.523438 93.529655)scale(0.12 -0.12)">
     <defs>
      <path id="DejaVuSans-50" d="M 1259 4147 
L 1259 2394 
L 2053 2394 
Q 2494 2394 2734 2622 
Q 2975 2850 2975 3272 
Q 2975 3691 2734 3919 
Q 2494 4147 2053 4147 
L 1259 4147 
z
M 628 4666 
L 2053 4666 
Q 2838 4666 3239 4311 
Q 3641 3956 3641 3272 
Q 3641 2581 3239 2228 
Q 2838 1875 2053 1875 
L 1259 1875 
L 1259 0 
L 628 0 
L 628 4666 
z
" transform="scale(0.015625)"/>
      <path id="DejaVuSans-75" d="M 544 1381 
L 544 3500 
L 1119 3500 
L 1119 1403 
Q 1119 906 1312 657 
Q 1506 409 1894 409 
Q 2359 409 2629 706 
Q 2900 1003 2900 1516 
L 2900 3500 
L 3475 3500 
L 3475 0 
L 2900 0 
L 2900 538 
Q 2691 219 2414 64 
Q 2138 -91 1772 -91 
Q 1169 -91 856 284 
Q 544 659 544 1381 
z
M 1991 3584 
L 1991 3584 
z
" transform="scale(0.015625)"/>
     </defs>
     <use xlink:href="#DejaVuSans-50"/>
     <use xlink:href="#DejaVuSans-72" x="58.552734"/>
     <use xlink:href="#DejaVuSans-65" x="97.416016"/>
     <use xlink:href="#DejaVuSans-73" x="158.939453"/>
     <use xlink:href="#DejaVuSans-73" x="211.039062"/>
     <use xlink:href="#DejaVuSans-75" x="263.138672"/>
     <use xlink:href="#DejaVuSans-72" x="326.517578"/>
     <use xlink:href="#DejaVuSans-65" x="365.380859"/>
     <use xlink:href="#DejaVuSans-20" x="426.904297"/>
     <use xlink:href="#DejaVuSans-2d" x="458.691406"/>
     <use xlink:href="#DejaVuSans-20" x="494.775391"/>
     <use xlink:href="#DejaVuSans-43" x="526.5625"/>
     <use xlink:href="#DejaVuSans-6f" x="596.386719"/>
     <use xlink:href="#DejaVuSans-6e" x="657.568359"/>
     <use xlink:href="#DejaVuSans-74" x="720.947266"/>
     <use xlink:href="#DejaVuSans-61" x="760.15625"/>
     <use xlink:href="#DejaVuSans-69" x="821.435547"/>
     <use xlink:href="#DejaVuSans-6e" x="849.21875"/>
     <use xlink:href="#DejaVuSans-65" x="912.597656"/>
     <use xlink:href="#DejaVuSans-72" x="974.121094"/>
     <use xlink:href="#DejaVuSans-20" x="1015.234375"/>
     <use xlink:href="#DejaVuSans-31" x="1047.021484"/>
    </g>
   </g>
  </g>
  <g id="axes_4">
   <g id="patch_14">
    <path d="M 57.6 197.46869 
L 414.72 197.46869 
L 414.72 151.58731 
L 57.6 151.58731 
z
" style="fill: #ffffff"/>
   </g>
   <g id="matplotlib.axis_7">
    <g id="xtick_17">
     <g id="line2d_49">
      <g>
       <use xlink:href="#m00221ab75c" x="73.832727" y="197.46869" style="stroke: #000000; stroke-width: 0.8"/>
      </g>
     </g>
    </g>
    <g id="xtick_18">
     <g id="line2d_50">
      <g>
       <use xlink:href="#m00221ab75c" x="116.550431" y="197.46869" style="stroke: #000000; stroke-width: 0.8"/>
      </g>
     </g>
    </g>
    <g id="xtick_19">
     <g id="line2d_51">
      <g>
       <use xlink:href="#m00221ab75c" x="159.268134" y="197.46869" style="stroke: #000000; stroke-width: 0.8"/>
      </g>
     </g>
    </g>
    <g id="xtick_20">
     <g id="line2d_52">
      <g>
       <use xlink:href="#m00221ab75c" x="201.985837" y="197.46869" style="stroke: #000000; stroke-width: 0.8"/>
      </g>
     </g>
    </g>
    <g id="xtick_21">
     <g id="line2d_53">
      <g>
       <use xlink:href="#m00221ab75c" x="244.703541" y="197.46869" style="stroke: #000000; stroke-width: 0.8"/>
      </g>
     </g>
    </g>
    <g id="xtick_22">
     <g id="line2d_54">
      <g>
       <use xlink:href="#m00221ab75c" x="287.421244" y="197.46869" style="stroke: #000000; stroke-width: 0.8"/>
      </g>
     </g>
    </g>
    <g id="xtick_23">
     <g id="line2d_55">
      <g>
       <use xlink:href="#m00221ab75c" x="330.138947" y="197.46869" style="stroke: #000000; stroke-width: 0.8"/>
      </g>
     </g>
    </g>
    <g id="xtick_24">
     <g id="line2d_56">
      <g>
       <use xlink:href="#m00221ab75c" x="372.856651" y="197.46869" style="stroke: #000000; stroke-width: 0.8"/>
      </g>
     </g>
    </g>
   </g>
   <g id="matplotlib.axis_8">
    <g id="ytick_7">
     <g id="line2d_57">
      <g>
       <use xlink:href="#m63407d8614" x="57.6" y="182.216776" style="stroke: #000000; stroke-width: 0.8"/>
      </g>
     </g>
     <g id="text_11">
      <!-- 0.05 -->
      <g transform="translate(28.334375 186.015995)scale(0.1 -0.1)">
       <defs>
        <path id="DejaVuSans-2e" d="M 684 794 
L 1344 794 
L 1344 0 
L 684 0 
L 684 794 
z
" transform="scale(0.015625)"/>
       </defs>
       <use xlink:href="#DejaVuSans-30"/>
       <use xlink:href="#DejaVuSans-2e" x="63.623047"/>
       <use xlink:href="#DejaVuSans-30" x="95.410156"/>
       <use xlink:href="#DejaVuSans-35" x="159.033203"/>
      </g>
     </g>
    </g>
    <g id="ytick_8">
     <g id="line2d_58">
      <g>
       <use xlink:href="#m63407d8614" x="57.6" y="164.821981" style="stroke: #000000; stroke-width: 0.8"/>
      </g>
     </g>
     <g id="text_12">
      <!-- 0.10 -->
      <g transform="translate(28.334375 168.621199)scale(0.1 -0.1)">
       <use xlink:href="#DejaVuSans-30"/>
       <use xlink:href="#DejaVuSans-2e" x="63.623047"/>
       <use xlink:href="#DejaVuSans-31" x="95.410156"/>
       <use xlink:href="#DejaVuSans-30" x="159.033203"/>
      </g>
     </g>
    </g>
   </g>
   <g id="line2d_59">
    <path d="M 73.832727 153.672828 
L 90.919809 154.388623 
L 108.00689 155.981745 
L 125.093971 157.996939 
L 142.181053 160.173081 
L 159.268134 162.357772 
L 176.355215 164.463497 
L 193.442297 166.443349 
L 210.529378 168.27627 
L 227.616459 169.957419 
L 244.703541 171.491694 
L 261.790622 172.889366 
L 278.877703 174.163206 
L 295.964785 175.326673 
L 313.051866 176.392817 
L 330.138947 177.37369 
L 347.226029 178.280056 
L 364.31311 179.12123 
L 381.400191 179.904646 
L 398.487273 180.632048 
" clip-path="url(#p8a1b5b2ae1)" style="fill: none; stroke: #1f77b4; stroke-width: 1.5; stroke-linecap: square"/>
   </g>
   <g id="line2d_60">
    <path d="M 73.832727 184.216221 
L 90.919809 185.89286 
L 108.00689 187.339191 
L 125.093971 188.563847 
L 142.181053 189.591577 
L 159.268134 190.450792 
L 176.355215 191.169691 
L 193.442297 191.774244 
L 210.529378 192.287187 
L 227.616459 192.72767 
L 244.703541 193.111338 
L 261.790622 193.450666 
L 278.877703 193.755415 
L 295.964785 194.033129 
L 313.051866 194.289621 
L 330.138947 194.529418 
L 347.226029 194.756132 
L 364.31311 194.972758 
L 381.400191 195.181805 
L 398.487273 195.383172 
" clip-path="url(#p8a1b5b2ae1)" style="fill: none; stroke: #ff7f0e; stroke-width: 1.5; stroke-linecap: square"/>
   </g>
   <g id="line2d_61">
    <path d="M 73.832727 183.731625 
L 90.919809 185.366281 
L 108.00689 186.87141 
L 125.093971 188.172598 
L 142.181053 189.270968 
L 159.268134 190.189733 
L 176.355215 190.957 
L 193.442297 191.600033 
L 210.529378 192.143159 
L 227.616459 192.607081 
L 244.703541 193.008829 
L 261.790622 193.362055 
L 278.877703 193.677483 
L 295.964785 193.963425 
L 313.051866 194.226282 
L 330.138947 194.471017 
L 347.226029 194.701554 
L 364.31311 194.921101 
L 381.400191 195.132301 
L 398.487273 195.334464 
" clip-path="url(#p8a1b5b2ae1)" style="fill: none; stroke: #2ca02c; stroke-width: 1.5; stroke-linecap: square"/>
   </g>
   <g id="line2d_62">
    <path d="M 73.832727 182.856768 
L 90.919809 184.015421 
L 108.00689 185.418773 
L 125.093971 186.827337 
L 142.181053 188.110019 
L 159.268134 189.220187 
L 176.355215 190.157632 
L 193.442297 190.941933 
L 210.529378 191.598315 
L 227.616459 192.151305 
L 244.703541 192.622336 
L 261.790622 193.029147 
L 278.877703 193.385954 
L 295.964785 193.703905 
L 313.051866 193.991632 
L 330.138947 194.25579 
L 347.226029 194.501544 
L 364.31311 194.732984 
L 381.400191 194.95339 
L 398.487273 195.163056 
" clip-path="url(#p8a1b5b2ae1)" style="fill: none; stroke: #d62728; stroke-width: 1.5; stroke-linecap: square"/>
   </g>
   <g id="line2d_63">
    <path d="M 73.832727 181.028178 
L 90.919809 181.950898 
L 108.00689 183.230464 
L 125.093971 184.659198 
L 142.181053 186.066576 
L 159.268134 187.352013 
L 176.355215 188.474971 
L 193.442297 189.432688 
L 210.529378 190.241146 
L 227.616459 190.923036 
L 244.703541 191.501435 
L 261.790622 191.997022 
L 278.877703 192.427179 
L 295.964785 192.805985 
L 313.051866 193.144589 
L 330.138947 193.451713 
L 347.226029 193.734161 
L 364.31311 193.997276 
L 381.400191 194.245298 
L 398.487273 194.479758 
" clip-path="url(#p8a1b5b2ae1)" style="fill: none; stroke: #9467bd; stroke-width: 1.5; stroke-linecap: square"/>
   </g>
   <g id="line2d_64">
    <path d="M 73.832727 174.003281 
L 90.919809 175.126318 
L 108.00689 176.651813 
L 125.093971 178.373458 
L 142.181053 180.113979 
L 159.268134 181.754932 
L 176.355215 183.23467 
L 193.442297 184.533001 
L 210.529378 185.65481 
L 227.616459 186.617575 
L 244.703541 187.443413 
L 261.790622 188.154642 
L 278.877703 188.771626 
L 295.964785 189.311942 
L 313.051866 189.790268 
L 330.138947 190.218609 
L 347.226029 190.606679 
L 364.31311 190.962307 
L 381.400191 191.291824 
L 398.487273 191.599416 
" clip-path="url(#p8a1b5b2ae1)" style="fill: none; stroke: #8c564b; stroke-width: 1.5; stroke-linecap: square"/>
   </g>
   <g id="line2d_65">
    <path d="M 73.832727 172.402722 
L 90.919809 173.572122 
L 108.00689 175.157946 
L 125.093971 176.952803 
L 142.181053 178.777644 
L 159.268134 180.510112 
L 176.355215 182.083908 
L 193.442297 183.474843 
L 210.529378 184.685082 
L 227.616459 185.73067 
L 244.703541 186.633282 
L 261.790622 187.415445 
L 278.877703 188.098093 
L 295.964785 188.699541 
L 313.051866 189.235245 
L 330.138947 189.717952 
L 347.226029 190.158047 
L 364.31311 190.563943 
L 381.400191 190.942455 
L 398.487273 191.297928 
" clip-path="url(#p8a1b5b2ae1)" style="fill: none; stroke: #e377c2; stroke-width: 1.5; stroke-linecap: square"/>
   </g>
   <g id="line2d_66">
    <path d="M 73.832727 172.233718 
L 90.919809 173.407146 
L 108.00689 174.99979 
L 125.093971 176.803168 
L 142.181053 178.638003 
L 159.268134 180.381446 
L 176.355215 181.966621 
L 193.442297 183.368845 
L 210.529378 184.589944 
L 227.616459 185.645776 
L 244.703541 186.557946 
L 261.790622 187.348981 
L 278.877703 188.039859 
L 295.964785 188.648959 
L 313.051866 189.191797 
L 330.138947 189.681181 
L 347.226029 190.127544 
L 364.31311 190.539334 
L 381.400191 190.923396 
L 398.487273 191.283609 
" clip-path="url(#p8a1b5b2ae1)" style="fill: none; stroke: #7f7f7f; stroke-width: 1.5; stroke-linecap: square"/>
   </g>
   <g id="line2d_67">
    <path d="M 73.832727 158.372097 
L 90.919809 162.833917 
L 108.00689 166.603106 
L 125.093971 169.908048 
L 142.181053 172.817072 
L 159.268134 175.358307 
L 176.355215 177.557666 
L 193.442297 179.447462 
L 210.529378 181.06493 
L 227.616459 182.448606 
L 244.703541 183.635249 
L 261.790622 184.657993 
L 278.877703 185.54556 
L 295.964785 186.322185 
L 313.051866 187.007946 
L 330.138947 187.619269 
L 347.226029 188.169501 
L 364.31311 188.669454 
L 381.400191 189.127806 
L 398.487273 189.549496 
" clip-path="url(#p8a1b5b2ae1)" style="fill: none; stroke: #bcbd22; stroke-width: 1.5; stroke-linecap: square"/>
   </g>
   <g id="line2d_68">
    <path d="M 73.832727 153.999827 
L 90.919809 157.767093 
L 108.00689 161.419659 
L 125.093971 164.793217 
L 142.181053 167.841131 
L 159.268134 170.5535 
L 176.355215 172.940455 
L 193.442297 175.025028 
L 210.529378 176.837678 
L 227.616459 178.411808 
L 244.703541 179.78054 
L 261.790622 180.974694 
L 278.877703 182.021759 
L 295.964785 182.945538 
L 313.051866 183.766231 
L 330.138947 184.500737 
L 347.226029 185.163075 
L 364.31311 185.764799 
L 381.400191 186.315219 
L 398.487273 186.819486 
" clip-path="url(#p8a1b5b2ae1)" style="fill: none; stroke: #17becf; stroke-width: 1.5; stroke-linecap: square"/>
   </g>
   <g id="line2d_69">
    <path d="M 73.832727 154.107113 
L 90.919809 156.347232 
L 108.00689 159.155217 
L 125.093971 162.049371 
L 142.181053 164.829278 
L 159.268134 167.405067 
L 176.355215 169.740821 
L 193.442297 171.830453 
L 210.529378 173.684785 
L 227.616459 175.32358 
L 244.703541 176.770435 
L 261.790622 178.049593 
L 278.877703 179.184092 
L 295.964785 180.19481 
L 313.051866 181.100099 
L 330.138947 181.91576 
L 347.226029 182.655217 
L 364.31311 183.329747 
L 381.400191 183.948497 
L 398.487273 184.516159 
" clip-path="url(#p8a1b5b2ae1)" style="fill: none; stroke: #1f77b4; stroke-width: 1.5; stroke-linecap: square"/>
   </g>
   <g id="line2d_70">
    <path d="M 73.832727 153.990966 
L 90.919809 155.397593 
L 108.00689 157.599787 
L 125.093971 160.082635 
L 142.181053 162.593716 
L 159.268134 165.003012 
L 176.355215 167.245651 
L 193.442297 169.294481 
L 210.529378 171.144784 
L 227.616459 172.804813 
L 244.703541 174.289703 
L 261.790622 175.617551 
L 278.877703 176.807012 
L 295.964785 177.875895 
L 313.051866 178.840454 
L 330.138947 179.715094 
L 347.226029 180.51234 
L 364.31311 181.242904 
L 381.400191 181.915523 
L 398.487273 182.534176 
" clip-path="url(#p8a1b5b2ae1)" style="fill: none; stroke: #ff7f0e; stroke-width: 1.5; stroke-linecap: square"/>
   </g>
   <g id="line2d_71">
    <path d="M 73.832727 153.7153 
L 90.919809 154.623266 
L 108.00689 156.393309 
L 125.093971 158.546773 
L 142.181053 160.821456 
L 159.268134 163.0697 
L 176.355215 165.209876 
L 193.442297 167.200689 
L 210.529378 169.025971 
L 227.616459 170.684938 
L 244.703541 172.18574 
L 261.790622 173.541186 
L 278.877703 174.765999 
L 295.964785 175.875125 
L 313.051866 176.882768 
L 330.138947 177.801895 
L 347.226029 178.644044 
L 364.31311 179.41925 
L 381.400191 180.135732 
L 398.487273 180.796628 
" clip-path="url(#p8a1b5b2ae1)" style="fill: none; stroke: #2ca02c; stroke-width: 1.5; stroke-linecap: square"/>
   </g>
   <g id="patch_15">
    <path d="M 57.6 197.46869 
L 57.6 151.58731 
" style="fill: none; stroke: #000000; stroke-width: 0.8; stroke-linejoin: miter; stroke-linecap: square"/>
   </g>
   <g id="patch_16">
    <path d="M 414.72 197.46869 
L 414.72 151.58731 
" style="fill: none; stroke: #000000; stroke-width: 0.8; stroke-linejoin: miter; stroke-linecap: square"/>
   </g>
   <g id="patch_17">
    <path d="M 57.6 197.46869 
L 414.72 197.46869 
" style="fill: none; stroke: #000000; stroke-width: 0.8; stroke-linejoin: miter; stroke-linecap: square"/>
   </g>
   <g id="patch_18">
    <path d="M 57.6 151.58731 
L 414.72 151.58731 
" style="fill: none; stroke: #000000; stroke-width: 0.8; stroke-linejoin: miter; stroke-linecap: square"/>
   </g>
   <g id="text_13">
    <!-- yA - Container 1 -->
    <g transform="translate(187.48125 148.58731)scale(0.12 -0.12)">
     <defs>
      <path id="DejaVuSans-41" d="M 2188 4044 
L 1331 1722 
L 3047 1722 
L 2188 4044 
z
M 1831 4666 
L 2547 4666 
L 4325 0 
L 3669 0 
L 3244 1197 
L 1141 1197 
L 716 0 
L 50 0 
L 1831 4666 
z
" transform="scale(0.015625)"/>
     </defs>
     <use xlink:href="#DejaVuSans-79"/>
     <use xlink:href="#DejaVuSans-41" x="59.179688"/>
     <use xlink:href="#DejaVuSans-20" x="127.587891"/>
     <use xlink:href="#DejaVuSans-2d" x="159.375"/>
     <use xlink:href="#DejaVuSans-20" x="195.458984"/>
     <use xlink:href="#DejaVuSans-43" x="227.246094"/>
     <use xlink:href="#DejaVuSans-6f" x="297.070312"/>
     <use xlink:href="#DejaVuSans-6e" x="358.251953"/>
     <use xlink:href="#DejaVuSans-74" x="421.630859"/>
     <use xlink:href="#DejaVuSans-61" x="460.839844"/>
     <use xlink:href="#DejaVuSans-69" x="522.119141"/>
     <use xlink:href="#DejaVuSans-6e" x="549.902344"/>
     <use xlink:href="#DejaVuSans-65" x="613.28125"/>
     <use xlink:href="#DejaVuSans-72" x="674.804688"/>
     <use xlink:href="#DejaVuSans-20" x="715.917969"/>
     <use xlink:href="#DejaVuSans-31" x="747.705078"/>
    </g>
   </g>
  </g>
  <g id="axes_5">
   <g id="patch_19">
    <path d="M 57.6 252.526345 
L 414.72 252.526345 
L 414.72 206.644966 
L 57.6 206.644966 
z
" style="fill: #ffffff"/>
   </g>
   <g id="matplotlib.axis_9">
    <g id="xtick_25">
     <g id="line2d_72">
      <g>
       <use xlink:href="#m00221ab75c" x="73.832727" y="252.526345" style="stroke: #000000; stroke-width: 0.8"/>
      </g>
     </g>
    </g>
    <g id="xtick_26">
     <g id="line2d_73">
      <g>
       <use xlink:href="#m00221ab75c" x="116.550431" y="252.526345" style="stroke: #000000; stroke-width: 0.8"/>
      </g>
     </g>
    </g>
    <g id="xtick_27">
     <g id="line2d_74">
      <g>
       <use xlink:href="#m00221ab75c" x="159.268134" y="252.526345" style="stroke: #000000; stroke-width: 0.8"/>
      </g>
     </g>
    </g>
    <g id="xtick_28">
     <g id="line2d_75">
      <g>
       <use xlink:href="#m00221ab75c" x="201.985837" y="252.526345" style="stroke: #000000; stroke-width: 0.8"/>
      </g>
     </g>
    </g>
    <g id="xtick_29">
     <g id="line2d_76">
      <g>
       <use xlink:href="#m00221ab75c" x="244.703541" y="252.526345" style="stroke: #000000; stroke-width: 0.8"/>
      </g>
     </g>
    </g>
    <g id="xtick_30">
     <g id="line2d_77">
      <g>
       <use xlink:href="#m00221ab75c" x="287.421244" y="252.526345" style="stroke: #000000; stroke-width: 0.8"/>
      </g>
     </g>
    </g>
    <g id="xtick_31">
     <g id="line2d_78">
      <g>
       <use xlink:href="#m00221ab75c" x="330.138947" y="252.526345" style="stroke: #000000; stroke-width: 0.8"/>
      </g>
     </g>
    </g>
    <g id="xtick_32">
     <g id="line2d_79">
      <g>
       <use xlink:href="#m00221ab75c" x="372.856651" y="252.526345" style="stroke: #000000; stroke-width: 0.8"/>
      </g>
     </g>
    </g>
   </g>
   <g id="matplotlib.axis_10">
    <g id="ytick_9">
     <g id="line2d_80">
      <g>
       <use xlink:href="#m63407d8614" x="57.6" y="252.452899" style="stroke: #000000; stroke-width: 0.8"/>
      </g>
     </g>
     <g id="text_14">
      <!-- 0.8 -->
      <g transform="translate(34.696875 256.252118)scale(0.1 -0.1)">
       <defs>
        <path id="DejaVuSans-38" d="M 2034 2216 
Q 1584 2216 1326 1975 
Q 1069 1734 1069 1313 
Q 1069 891 1326 650 
Q 1584 409 2034 409 
Q 2484 409 2743 651 
Q 3003 894 3003 1313 
Q 3003 1734 2745 1975 
Q 2488 2216 2034 2216 
z
M 1403 2484 
Q 997 2584 770 2862 
Q 544 3141 544 3541 
Q 544 4100 942 4425 
Q 1341 4750 2034 4750 
Q 2731 4750 3128 4425 
Q 3525 4100 3525 3541 
Q 3525 3141 3298 2862 
Q 3072 2584 2669 2484 
Q 3125 2378 3379 2068 
Q 3634 1759 3634 1313 
Q 3634 634 3220 271 
Q 2806 -91 2034 -91 
Q 1263 -91 848 271 
Q 434 634 434 1313 
Q 434 1759 690 2068 
Q 947 2378 1403 2484 
z
M 1172 3481 
Q 1172 3119 1398 2916 
Q 1625 2713 2034 2713 
Q 2441 2713 2670 2916 
Q 2900 3119 2900 3481 
Q 2900 3844 2670 4047 
Q 2441 4250 2034 4250 
Q 1625 4250 1398 4047 
Q 1172 3844 1172 3481 
z
" transform="scale(0.015625)"/>
       </defs>
       <use xlink:href="#DejaVuSans-30"/>
       <use xlink:href="#DejaVuSans-2e" x="63.623047"/>
       <use xlink:href="#DejaVuSans-38" x="95.410156"/>
      </g>
     </g>
    </g>
    <g id="ytick_10">
     <g id="line2d_81">
      <g>
       <use xlink:href="#m63407d8614" x="57.6" y="223.032567" style="stroke: #000000; stroke-width: 0.8"/>
      </g>
     </g>
     <g id="text_15">
      <!-- 0.9 -->
      <g transform="translate(34.696875 226.831786)scale(0.1 -0.1)">
       <defs>
        <path id="DejaVuSans-39" d="M 703 97 
L 703 672 
Q 941 559 1184 500 
Q 1428 441 1663 441 
Q 2288 441 2617 861 
Q 2947 1281 2994 2138 
Q 2813 1869 2534 1725 
Q 2256 1581 1919 1581 
Q 1219 1581 811 2004 
Q 403 2428 403 3163 
Q 403 3881 828 4315 
Q 1253 4750 1959 4750 
Q 2769 4750 3195 4129 
Q 3622 3509 3622 2328 
Q 3622 1225 3098 567 
Q 2575 -91 1691 -91 
Q 1453 -91 1209 -44 
Q 966 3 703 97 
z
M 1959 2075 
Q 2384 2075 2632 2365 
Q 2881 2656 2881 3163 
Q 2881 3666 2632 3958 
Q 2384 4250 1959 4250 
Q 1534 4250 1286 3958 
Q 1038 3666 1038 3163 
Q 1038 2656 1286 2365 
Q 1534 2075 1959 2075 
z
" transform="scale(0.015625)"/>
       </defs>
       <use xlink:href="#DejaVuSans-30"/>
       <use xlink:href="#DejaVuSans-2e" x="63.623047"/>
       <use xlink:href="#DejaVuSans-39" x="95.410156"/>
      </g>
     </g>
    </g>
   </g>
   <g id="line2d_82">
    <path d="M 73.832727 250.440828 
L 90.919809 249.922757 
L 108.00689 248.689469 
L 125.093971 247.10594 
L 142.181053 245.381869 
L 159.268134 243.640031 
L 176.355215 241.951367 
L 193.442297 240.354388 
L 210.529378 238.866952 
L 227.616459 237.493929 
L 244.703541 236.232351 
L 261.790622 235.074883 
L 278.877703 234.012106 
L 295.964785 233.033963 
L 313.051866 232.130638 
L 330.138947 231.293041 
L 347.226029 230.513056 
L 364.31311 229.783701 
L 381.400191 229.099569 
L 398.487273 228.460325 
" clip-path="url(#p7034f8c436)" style="fill: none; stroke: #1f77b4; stroke-width: 1.5; stroke-linecap: square"/>
   </g>
   <g id="line2d_83">
    <path d="M 73.832727 221.304625 
L 90.919809 219.826121 
L 108.00689 218.526725 
L 125.093971 217.398717 
L 142.181053 216.422458 
L 159.268134 215.575573 
L 176.355215 214.835847 
L 193.442297 214.182753 
L 210.529378 213.598223 
L 227.616459 213.066911 
L 244.703541 212.576119 
L 261.790622 212.115525 
L 278.877703 211.67679 
L 295.964785 211.253139 
L 313.051866 210.838908 
L 330.138947 210.429081 
L 347.226029 210.018795 
L 364.31311 209.602682 
L 381.400191 209.173805 
L 398.487273 208.730483 
" clip-path="url(#p7034f8c436)" style="fill: none; stroke: #ff7f0e; stroke-width: 1.5; stroke-linecap: square"/>
   </g>
   <g id="line2d_84">
    <path d="M 73.832727 221.768398 
L 90.919809 220.370342 
L 108.00689 219.049406 
L 125.093971 217.874186 
L 142.181053 216.849419 
L 159.268134 215.959868 
L 176.355215 215.184979 
L 193.442297 214.504033 
L 210.529378 213.898142 
L 227.616459 213.35098 
L 244.703541 212.848912 
L 261.790622 212.38081 
L 278.877703 211.937698 
L 295.964785 211.512341 
L 313.051866 211.098799 
L 330.138947 210.691984 
L 347.226029 210.287199 
L 364.31311 209.879599 
L 381.400191 209.463604 
L 398.487273 209.04132 
" clip-path="url(#p7034f8c436)" style="fill: none; stroke: #2ca02c; stroke-width: 1.5; stroke-linecap: square"/>
   </g>
   <g id="line2d_85">
    <path d="M 73.832727 222.520463 
L 90.919809 221.585812 
L 108.00689 220.437821 
L 125.093971 219.261897 
L 142.181053 218.161436 
L 159.268134 217.175569 
L 176.355215 216.307886 
L 193.442297 215.546486 
L 210.529378 214.874585 
L 227.616459 214.275307 
L 244.703541 213.733538 
L 261.790622 213.23647 
L 278.877703 212.773566 
L 295.964785 212.336296 
L 313.051866 211.917777 
L 330.138947 211.512383 
L 347.226029 211.115363 
L 364.31311 210.722458 
L 381.400191 210.329572 
L 398.487273 209.937204 
" clip-path="url(#p7034f8c436)" style="fill: none; stroke: #d62728; stroke-width: 1.5; stroke-linecap: square"/>
   </g>
   <g id="line2d_86">
    <path d="M 73.832727 224.31374 
L 90.919809 223.579374 
L 108.00689 222.555762 
L 125.093971 221.40235 
L 142.181053 220.25039 
L 159.268134 219.177585 
L 176.355215 218.215769 
L 193.442297 217.368073 
L 210.529378 216.623488 
L 227.616459 215.965981 
L 244.703541 215.379206 
L 261.790622 214.848529 
L 278.877703 214.361645 
L 295.964785 213.908553 
L 313.051866 213.481254 
L 330.138947 213.073377 
L 347.226029 212.679792 
L 364.31311 212.296259 
L 381.400191 211.919145 
L 398.487273 211.547873 
" clip-path="url(#p7034f8c436)" style="fill: none; stroke: #9467bd; stroke-width: 1.5; stroke-linecap: square"/>
   </g>
   <g id="line2d_87">
    <path d="M 73.832727 231.126295 
L 90.919809 230.237409 
L 108.00689 229.027412 
L 125.093971 227.656454 
L 142.181053 226.262254 
L 159.268134 224.936879 
L 176.355215 223.728364 
L 193.442297 222.652675 
L 210.529378 221.706443 
L 227.616459 220.876633 
L 244.703541 220.146684 
L 261.790622 219.499901 
L 278.877703 218.921091 
L 295.964785 218.397177 
L 313.051866 217.917265 
L 330.138947 217.472453 
L 347.226029 217.055534 
L 364.31311 216.660668 
L 381.400191 216.283085 
L 398.487273 215.919823 
" clip-path="url(#p7034f8c436)" style="fill: none; stroke: #8c564b; stroke-width: 1.5; stroke-linecap: square"/>
   </g>
   <g id="line2d_88">
    <path d="M 73.832727 232.648491 
L 90.919809 231.723034 
L 108.00689 230.465428 
L 125.093971 229.036917 
L 142.181053 227.576751 
L 159.268134 226.180106 
L 176.355215 224.898602 
L 193.442297 223.751205 
L 210.529378 222.736495 
L 227.616459 221.842366 
L 244.703541 221.052402 
L 261.790622 220.349564 
L 278.877703 219.718049 
L 295.964785 219.14406 
L 313.051866 218.615976 
L 330.138947 218.124211 
L 347.226029 217.660944 
L 364.31311 217.219807 
L 381.400191 216.795579 
L 398.487273 216.385492 
" clip-path="url(#p7034f8c436)" style="fill: none; stroke: #e377c2; stroke-width: 1.5; stroke-linecap: square"/>
   </g>
   <g id="line2d_89">
    <path d="M 73.832727 232.809196 
L 90.919809 231.880506 
L 108.00689 230.617376 
L 125.093971 229.181956 
L 142.181053 227.713692 
L 159.268134 226.308149 
L 176.355215 225.017397 
L 193.442297 223.860775 
L 210.529378 222.837115 
L 227.616459 221.93444 
L 244.703541 221.136376 
L 261.790622 220.425868 
L 278.877703 219.787071 
L 295.964785 219.206134 
L 313.051866 218.671383 
L 330.138947 218.173188 
L 347.226029 217.703695 
L 364.31311 217.256511 
L 381.400191 216.826413 
L 398.487273 216.411705 
" clip-path="url(#p7034f8c436)" style="fill: none; stroke: #7f7f7f; stroke-width: 1.5; stroke-linecap: square"/>
   </g>
   <g id="line2d_90">
    <path d="M 73.832727 245.293953 
L 90.919809 241.615433 
L 108.00689 238.511459 
L 125.093971 235.785667 
L 142.181053 233.380272 
L 159.268134 231.269045 
L 176.355215 229.428897 
L 193.442297 227.83343 
L 210.529378 226.452235 
L 227.616459 225.254341 
L 244.703541 224.21053 
L 261.790622 223.294701 
L 278.877703 222.484157 
L 295.964785 221.75987 
L 313.051866 221.106095 
L 330.138947 220.509973 
L 347.226029 219.961073 
L 364.31311 219.450969 
L 381.400191 218.973031 
L 398.487273 218.52462 
" clip-path="url(#p7034f8c436)" style="fill: none; stroke: #bcbd22; stroke-width: 1.5; stroke-linecap: square"/>
   </g>
   <g id="line2d_91">
    <path d="M 73.832727 249.302567 
L 90.919809 246.26712 
L 108.00689 243.310396 
L 125.093971 240.56789 
L 142.181053 238.078514 
L 159.268134 235.850971 
L 176.355215 233.877744 
L 193.442297 232.141002 
L 210.529378 230.61702 
L 227.616459 229.279733 
L 244.703541 228.103284 
L 261.790622 227.063616 
L 278.877703 226.139276 
L 295.964785 225.311696 
L 313.051866 224.565129 
L 330.138947 223.88641 
L 347.226029 223.264645 
L 364.31311 222.690902 
L 381.400191 222.158155 
L 398.487273 221.663372 
" clip-path="url(#p7034f8c436)" style="fill: none; stroke: #17becf; stroke-width: 1.5; stroke-linecap: square"/>
   </g>
   <g id="line2d_92">
    <path d="M 73.832727 249.522328 
L 90.919809 247.750664 
L 108.00689 245.506862 
L 125.093971 243.18026 
L 142.181053 240.933546 
L 159.268134 238.840232 
L 176.355215 236.930348 
L 193.442297 235.209915 
L 210.529378 233.671341 
L 227.616459 232.299803 
L 244.703541 231.077319 
L 261.790622 229.985297 
L 278.877703 229.006011 
L 295.964785 228.123366 
L 313.051866 227.323207 
L 330.138947 226.593346 
L 347.226029 225.923449 
L 364.31311 225.304885 
L 381.400191 224.730821 
L 398.487273 224.198545 
" clip-path="url(#p7034f8c436)" style="fill: none; stroke: #1f77b4; stroke-width: 1.5; stroke-linecap: square"/>
   </g>
   <g id="line2d_93">
    <path d="M 73.832727 249.876519 
L 90.919809 248.789447 
L 108.00689 247.049889 
L 125.093971 245.072039 
L 142.181053 243.05947 
L 159.268134 241.117546 
L 176.355215 239.299385 
L 193.442297 237.627872 
L 210.529378 236.107895 
L 227.616459 234.733901 
L 244.703541 233.494751 
L 261.790622 232.37684 
L 278.877703 231.366019 
L 295.964785 230.448716 
L 313.051866 229.612518 
L 330.138947 228.846411 
L 347.226029 228.140834 
L 364.31311 227.487657 
L 381.400191 226.880412 
L 398.487273 226.316953 
" clip-path="url(#p7034f8c436)" style="fill: none; stroke: #ff7f0e; stroke-width: 1.5; stroke-linecap: square"/>
   </g>
   <g id="line2d_94">
    <path d="M 73.832727 250.314894 
L 90.919809 249.638001 
L 108.00689 248.257278 
L 125.093971 246.556837 
L 142.181053 244.747475 
L 159.268134 242.948318 
L 176.355215 241.22569 
L 193.442297 239.613674 
L 210.529378 238.126258 
L 227.616459 236.765089 
L 244.703541 235.524615 
L 261.790622 234.395476 
L 278.877703 233.36669 
L 295.964785 232.427007 
L 313.051866 231.565685 
L 330.138947 230.772896 
L 347.226029 230.039898 
L 364.31311 229.359133 
L 381.400191 228.724565 
L 398.487273 228.134745 
" clip-path="url(#p7034f8c436)" style="fill: none; stroke: #2ca02c; stroke-width: 1.5; stroke-linecap: square"/>
   </g>
   <g id="patch_20">
    <path d="M 57.6 252.526345 
L 57.6 206.644966 
" style="fill: none; stroke: #000000; stroke-width: 0.8; stroke-linejoin: miter; stroke-linecap: square"/>
   </g>
   <g id="patch_21">
    <path d="M 414.72 252.526345 
L 414.72 206.644966 
" style="fill: none; stroke: #000000; stroke-width: 0.8; stroke-linejoin: miter; stroke-linecap: square"/>
   </g>
   <g id="patch_22">
    <path d="M 57.6 252.526345 
L 414.72 252.526345 
" style="fill: none; stroke: #000000; stroke-width: 0.8; stroke-linejoin: miter; stroke-linecap: square"/>
   </g>
   <g id="patch_23">
    <path d="M 57.6 206.644966 
L 414.72 206.644966 
" style="fill: none; stroke: #000000; stroke-width: 0.8; stroke-linejoin: miter; stroke-linecap: square"/>
   </g>
   <g id="text_16">
    <!-- yB - Container 1 -->
    <g transform="translate(187.469063 203.644966)scale(0.12 -0.12)">
     <defs>
      <path id="DejaVuSans-42" d="M 1259 2228 
L 1259 519 
L 2272 519 
Q 2781 519 3026 730 
Q 3272 941 3272 1375 
Q 3272 1813 3026 2020 
Q 2781 2228 2272 2228 
L 1259 2228 
z
M 1259 4147 
L 1259 2741 
L 2194 2741 
Q 2656 2741 2882 2914 
Q 3109 3088 3109 3444 
Q 3109 3797 2882 3972 
Q 2656 4147 2194 4147 
L 1259 4147 
z
M 628 4666 
L 2241 4666 
Q 2963 4666 3353 4366 
Q 3744 4066 3744 3513 
Q 3744 3084 3544 2831 
Q 3344 2578 2956 2516 
Q 3422 2416 3680 2098 
Q 3938 1781 3938 1306 
Q 3938 681 3513 340 
Q 3088 0 2303 0 
L 628 0 
L 628 4666 
z
" transform="scale(0.015625)"/>
     </defs>
     <use xlink:href="#DejaVuSans-79"/>
     <use xlink:href="#DejaVuSans-42" x="59.179688"/>
     <use xlink:href="#DejaVuSans-20" x="127.783203"/>
     <use xlink:href="#DejaVuSans-2d" x="159.570312"/>
     <use xlink:href="#DejaVuSans-20" x="195.654297"/>
     <use xlink:href="#DejaVuSans-43" x="227.441406"/>
     <use xlink:href="#DejaVuSans-6f" x="297.265625"/>
     <use xlink:href="#DejaVuSans-6e" x="358.447266"/>
     <use xlink:href="#DejaVuSans-74" x="421.826172"/>
     <use xlink:href="#DejaVuSans-61" x="461.035156"/>
     <use xlink:href="#DejaVuSans-69" x="522.314453"/>
     <use xlink:href="#DejaVuSans-6e" x="550.097656"/>
     <use xlink:href="#DejaVuSans-65" x="613.476562"/>
     <use xlink:href="#DejaVuSans-72" x="675"/>
     <use xlink:href="#DejaVuSans-20" x="716.113281"/>
     <use xlink:href="#DejaVuSans-31" x="747.900391"/>
    </g>
   </g>
  </g>
  <g id="axes_6">
   <g id="patch_24">
    <path d="M 57.6 307.584 
L 414.72 307.584 
L 414.72 261.702621 
L 57.6 261.702621 
z
" style="fill: #ffffff"/>
   </g>
   <g id="matplotlib.axis_11">
    <g id="xtick_33">
     <g id="line2d_95">
      <g>
       <use xlink:href="#m00221ab75c" x="73.832727" y="307.584" style="stroke: #000000; stroke-width: 0.8"/>
      </g>
     </g>
     <g id="text_17">
      <!-- 0.0 -->
      <g transform="translate(65.881165 322.182437)scale(0.1 -0.1)">
       <use xlink:href="#DejaVuSans-30"/>
       <use xlink:href="#DejaVuSans-2e" x="63.623047"/>
       <use xlink:href="#DejaVuSans-30" x="95.410156"/>
      </g>
     </g>
    </g>
    <g id="xtick_34">
     <g id="line2d_96">
      <g>
       <use xlink:href="#m00221ab75c" x="116.550431" y="307.584" style="stroke: #000000; stroke-width: 0.8"/>
      </g>
     </g>
     <g id="text_18">
      <!-- 2.5 -->
      <g transform="translate(108.598868 322.182437)scale(0.1 -0.1)">
       <use xlink:href="#DejaVuSans-32"/>
       <use xlink:href="#DejaVuSans-2e" x="63.623047"/>
       <use xlink:href="#DejaVuSans-35" x="95.410156"/>
      </g>
     </g>
    </g>
    <g id="xtick_35">
     <g id="line2d_97">
      <g>
       <use xlink:href="#m00221ab75c" x="159.268134" y="307.584" style="stroke: #000000; stroke-width: 0.8"/>
      </g>
     </g>
     <g id="text_19">
      <!-- 5.0 -->
      <g transform="translate(151.316571 322.182437)scale(0.1 -0.1)">
       <use xlink:href="#DejaVuSans-35"/>
       <use xlink:href="#DejaVuSans-2e" x="63.623047"/>
       <use xlink:href="#DejaVuSans-30" x="95.410156"/>
      </g>
     </g>
    </g>
    <g id="xtick_36">
     <g id="line2d_98">
      <g>
       <use xlink:href="#m00221ab75c" x="201.985837" y="307.584" style="stroke: #000000; stroke-width: 0.8"/>
      </g>
     </g>
     <g id="text_20">
      <!-- 7.5 -->
      <g transform="translate(194.034275 322.182437)scale(0.1 -0.1)">
       <defs>
        <path id="DejaVuSans-37" d="M 525 4666 
L 3525 4666 
L 3525 4397 
L 1831 0 
L 1172 0 
L 2766 4134 
L 525 4134 
L 525 4666 
z
" transform="scale(0.015625)"/>
       </defs>
       <use xlink:href="#DejaVuSans-37"/>
       <use xlink:href="#DejaVuSans-2e" x="63.623047"/>
       <use xlink:href="#DejaVuSans-35" x="95.410156"/>
      </g>
     </g>
    </g>
    <g id="xtick_37">
     <g id="line2d_99">
      <g>
       <use xlink:href="#m00221ab75c" x="244.703541" y="307.584" style="stroke: #000000; stroke-width: 0.8"/>
      </g>
     </g>
     <g id="text_21">
      <!-- 10.0 -->
      <g transform="translate(233.570728 322.182437)scale(0.1 -0.1)">
       <use xlink:href="#DejaVuSans-31"/>
       <use xlink:href="#DejaVuSans-30" x="63.623047"/>
       <use xlink:href="#DejaVuSans-2e" x="127.246094"/>
       <use xlink:href="#DejaVuSans-30" x="159.033203"/>
      </g>
     </g>
    </g>
    <g id="xtick_38">
     <g id="line2d_100">
      <g>
       <use xlink:href="#m00221ab75c" x="287.421244" y="307.584" style="stroke: #000000; stroke-width: 0.8"/>
      </g>
     </g>
     <g id="text_22">
      <!-- 12.5 -->
      <g transform="translate(276.288432 322.182437)scale(0.1 -0.1)">
       <use xlink:href="#DejaVuSans-31"/>
       <use xlink:href="#DejaVuSans-32" x="63.623047"/>
       <use xlink:href="#DejaVuSans-2e" x="127.246094"/>
       <use xlink:href="#DejaVuSans-35" x="159.033203"/>
      </g>
     </g>
    </g>
    <g id="xtick_39">
     <g id="line2d_101">
      <g>
       <use xlink:href="#m00221ab75c" x="330.138947" y="307.584" style="stroke: #000000; stroke-width: 0.8"/>
      </g>
     </g>
     <g id="text_23">
      <!-- 15.0 -->
      <g transform="translate(319.006135 322.182437)scale(0.1 -0.1)">
       <use xlink:href="#DejaVuSans-31"/>
       <use xlink:href="#DejaVuSans-35" x="63.623047"/>
       <use xlink:href="#DejaVuSans-2e" x="127.246094"/>
       <use xlink:href="#DejaVuSans-30" x="159.033203"/>
      </g>
     </g>
    </g>
    <g id="xtick_40">
     <g id="line2d_102">
      <g>
       <use xlink:href="#m00221ab75c" x="372.856651" y="307.584" style="stroke: #000000; stroke-width: 0.8"/>
      </g>
     </g>
     <g id="text_24">
      <!-- 17.5 -->
      <g transform="translate(361.723838 322.182437)scale(0.1 -0.1)">
       <use xlink:href="#DejaVuSans-31"/>
       <use xlink:href="#DejaVuSans-37" x="63.623047"/>
       <use xlink:href="#DejaVuSans-2e" x="127.246094"/>
       <use xlink:href="#DejaVuSans-35" x="159.033203"/>
      </g>
     </g>
    </g>
    <g id="text_25">
     <!-- position z -->
     <g transform="translate(212.142031 335.860562)scale(0.1 -0.1)">
      <defs>
       <path id="DejaVuSans-70" d="M 1159 525 
L 1159 -1331 
L 581 -1331 
L 581 3500 
L 1159 3500 
L 1159 2969 
Q 1341 3281 1617 3432 
Q 1894 3584 2278 3584 
Q 2916 3584 3314 3078 
Q 3713 2572 3713 1747 
Q 3713 922 3314 415 
Q 2916 -91 2278 -91 
Q 1894 -91 1617 61 
Q 1341 213 1159 525 
z
M 3116 1747 
Q 3116 2381 2855 2742 
Q 2594 3103 2138 3103 
Q 1681 3103 1420 2742 
Q 1159 2381 1159 1747 
Q 1159 1113 1420 752 
Q 1681 391 2138 391 
Q 2594 391 2855 752 
Q 3116 1113 3116 1747 
z
" transform="scale(0.015625)"/>
      </defs>
      <use xlink:href="#DejaVuSans-70"/>
      <use xlink:href="#DejaVuSans-6f" x="63.476562"/>
      <use xlink:href="#DejaVuSans-73" x="124.658203"/>
      <use xlink:href="#DejaVuSans-69" x="176.757812"/>
      <use xlink:href="#DejaVuSans-74" x="204.541016"/>
      <use xlink:href="#DejaVuSans-69" x="243.75"/>
      <use xlink:href="#DejaVuSans-6f" x="271.533203"/>
      <use xlink:href="#DejaVuSans-6e" x="332.714844"/>
      <use xlink:href="#DejaVuSans-20" x="396.09375"/>
      <use xlink:href="#DejaVuSans-7a" x="427.880859"/>
     </g>
    </g>
   </g>
   <g id="matplotlib.axis_12">
    <g id="ytick_11">
     <g id="line2d_103">
      <g>
       <use xlink:href="#m63407d8614" x="57.6" y="304.216378" style="stroke: #000000; stroke-width: 0.8"/>
      </g>
     </g>
     <g id="text_26">
      <!-- 0.04 -->
      <g transform="translate(28.334375 308.015597)scale(0.1 -0.1)">
       <defs>
        <path id="DejaVuSans-34" d="M 2419 4116 
L 825 1625 
L 2419 1625 
L 2419 4116 
z
M 2253 4666 
L 3047 4666 
L 3047 1625 
L 3713 1625 
L 3713 1100 
L 3047 1100 
L 3047 0 
L 2419 0 
L 2419 1100 
L 313 1100 
L 313 1709 
L 2253 4666 
z
" transform="scale(0.015625)"/>
       </defs>
       <use xlink:href="#DejaVuSans-30"/>
       <use xlink:href="#DejaVuSans-2e" x="63.623047"/>
       <use xlink:href="#DejaVuSans-30" x="95.410156"/>
       <use xlink:href="#DejaVuSans-34" x="159.033203"/>
      </g>
     </g>
    </g>
    <g id="ytick_12">
     <g id="line2d_104">
      <g>
       <use xlink:href="#m63407d8614" x="57.6" y="270.790481" style="stroke: #000000; stroke-width: 0.8"/>
      </g>
     </g>
     <g id="text_27">
      <!-- 0.06 -->
      <g transform="translate(28.334375 274.5897)scale(0.1 -0.1)">
       <defs>
        <path id="DejaVuSans-36" d="M 2113 2584 
Q 1688 2584 1439 2293 
Q 1191 2003 1191 1497 
Q 1191 994 1439 701 
Q 1688 409 2113 409 
Q 2538 409 2786 701 
Q 3034 994 3034 1497 
Q 3034 2003 2786 2293 
Q 2538 2584 2113 2584 
z
M 3366 4563 
L 3366 3988 
Q 3128 4100 2886 4159 
Q 2644 4219 2406 4219 
Q 1781 4219 1451 3797 
Q 1122 3375 1075 2522 
Q 1259 2794 1537 2939 
Q 1816 3084 2150 3084 
Q 2853 3084 3261 2657 
Q 3669 2231 3669 1497 
Q 3669 778 3244 343 
Q 2819 -91 2113 -91 
Q 1303 -91 875 529 
Q 447 1150 447 2328 
Q 447 3434 972 4092 
Q 1497 4750 2381 4750 
Q 2619 4750 2861 4703 
Q 3103 4656 3366 4563 
z
" transform="scale(0.015625)"/>
       </defs>
       <use xlink:href="#DejaVuSans-30"/>
       <use xlink:href="#DejaVuSans-2e" x="63.623047"/>
       <use xlink:href="#DejaVuSans-30" x="95.410156"/>
       <use xlink:href="#DejaVuSans-36" x="159.033203"/>
      </g>
     </g>
    </g>
   </g>
   <g id="line2d_105">
    <path d="M 73.832727 268.929383 
L 90.919809 268.433724 
L 108.00689 267.78635 
L 125.093971 267.100972 
L 142.181053 266.440779 
L 159.268134 265.840447 
L 176.355215 265.317401 
L 193.442297 264.878208 
L 210.529378 264.522591 
L 227.616459 264.246136 
L 244.703541 264.042172 
L 261.790622 263.903027 
L 278.877703 263.820857 
L 295.964785 263.788138 
L 313.051866 263.797932 
L 330.138947 263.843983 
L 347.226029 263.920694 
L 364.31311 264.022969 
L 381.400191 264.145814 
L 398.487273 264.282755 
" clip-path="url(#p979c6dfcce)" style="fill: none; stroke: #1f77b4; stroke-width: 1.5; stroke-linecap: square"/>
   </g>
   <g id="line2d_106">
    <path d="M 73.832727 287.714078 
L 90.919809 288.058497 
L 108.00689 288.491852 
L 125.093971 289.016525 
L 142.181053 289.625183 
L 159.268134 290.308447 
L 176.355215 291.057048 
L 193.442297 291.86283 
L 210.529378 292.719215 
L 227.616459 293.621385 
L 244.703541 294.566301 
L 261.790622 295.552688 
L 278.877703 296.581013 
L 295.964785 297.653527 
L 313.051866 298.774481 
L 330.138947 299.950619 
L 347.226029 301.192212 
L 364.31311 302.515372 
L 381.400191 303.947454 
L 398.487273 305.498483 
" clip-path="url(#p979c6dfcce)" style="fill: none; stroke: #ff7f0e; stroke-width: 1.5; stroke-linecap: square"/>
   </g>
   <g id="line2d_107">
    <path d="M 73.832727 287.407505 
L 90.919809 287.496607 
L 108.00689 287.769862 
L 125.093971 288.195067 
L 142.181053 288.739935 
L 159.268134 289.379497 
L 176.355215 290.095486 
L 193.442297 290.87463 
L 210.529378 291.707358 
L 227.616459 292.586964 
L 244.703541 293.509081 
L 261.790622 294.471354 
L 278.877703 295.473239 
L 295.964785 296.515921 
L 313.051866 297.60238 
L 330.138947 298.737684 
L 347.226029 299.929667 
L 364.31311 301.190437 
L 381.400191 302.538991 
L 398.487273 303.966689 
" clip-path="url(#p979c6dfcce)" style="fill: none; stroke: #2ca02c; stroke-width: 1.5; stroke-linecap: square"/>
   </g>
   <g id="line2d_108">
    <path d="M 73.832727 287.338032 
L 90.919809 287.081373 
L 108.00689 286.861107 
L 125.093971 286.774477 
L 142.181053 286.863911 
L 159.268134 287.131113 
L 176.355215 287.556705 
L 193.442297 288.114244 
L 210.529378 288.777876 
L 227.616459 289.525653 
L 244.703541 290.340468 
L 261.790622 291.209862 
L 278.877703 292.125399 
L 295.964785 293.081977 
L 313.051866 294.077236 
L 330.138947 295.111161 
L 347.226029 296.185925 
L 364.31311 297.306084 
L 381.400191 298.479137 
L 398.487273 299.700844 
" clip-path="url(#p979c6dfcce)" style="fill: none; stroke: #d62728; stroke-width: 1.5; stroke-linecap: square"/>
   </g>
   <g id="line2d_109">
    <path d="M 73.832727 285.935447 
L 90.919809 285.674438 
L 108.00689 285.342267 
L 125.093971 285.030865 
L 142.181053 284.813805 
L 159.268134 284.732887 
L 176.355215 284.80202 
L 193.442297 285.016691 
L 210.529378 285.362653 
L 227.616459 285.821979 
L 244.703541 286.376665 
L 261.790622 287.010501 
L 278.877703 287.709883 
L 295.964785 288.464001 
L 313.051866 289.264723 
L 330.138947 290.106344 
L 347.226029 290.985318 
L 364.31311 291.900063 
L 381.400191 292.850852 
L 398.487273 293.833611 
" clip-path="url(#p979c6dfcce)" style="fill: none; stroke: #9467bd; stroke-width: 1.5; stroke-linecap: square"/>
   </g>
   <g id="line2d_110">
    <path d="M 73.832727 280.982703 
L 90.919809 280.637162 
L 108.00689 280.182358 
L 125.093971 279.699623 
L 142.181053 279.258249 
L 159.268134 278.904219 
L 176.355215 278.660811 
L 193.442297 278.534333 
L 210.529378 278.520462 
L 227.616459 278.609271 
L 244.703541 278.788597 
L 261.790622 279.046057 
L 278.877703 279.370133 
L 295.964785 279.750671 
L 313.051866 280.179051 
L 330.138947 280.648158 
L 347.226029 281.152281 
L 364.31311 281.686975 
L 381.400191 282.248927 
L 398.487273 282.834851 
" clip-path="url(#p979c6dfcce)" style="fill: none; stroke: #8c564b; stroke-width: 1.5; stroke-linecap: square"/>
   </g>
   <g id="line2d_111">
    <path d="M 73.832727 280.02459 
L 90.919809 279.664071 
L 108.00689 279.189899 
L 125.093971 278.682405 
L 142.181053 278.210687 
L 159.268134 277.821886 
L 176.355215 277.541255 
L 193.442297 277.377268 
L 210.529378 277.327577 
L 227.616459 277.383888 
L 244.703541 277.535315 
L 261.790622 277.770442 
L 278.877703 278.078474 
L 295.964785 278.449795 
L 313.051866 278.876187 
L 330.138947 279.35085 
L 347.226029 279.868327 
L 364.31311 280.424396 
L 381.400191 281.015945 
L 398.487273 281.637855 
" clip-path="url(#p979c6dfcce)" style="fill: none; stroke: #e377c2; stroke-width: 1.5; stroke-linecap: square"/>
   </g>
   <g id="line2d_112">
    <path d="M 73.832727 279.92356 
L 90.919809 279.562057 
L 108.00689 279.086502 
L 125.093971 278.577318 
L 142.181053 278.103595 
L 159.268134 277.712616 
L 176.355215 277.42986 
L 193.442297 277.264043 
L 210.529378 277.213024 
L 227.616459 277.268667 
L 244.703541 277.420197 
L 261.790622 277.656272 
L 278.877703 277.966131 
L 295.964785 278.34017 
L 313.051866 278.77016 
L 330.138947 279.249272 
L 347.226029 279.772013 
L 364.31311 280.334107 
L 381.400191 280.93235 
L 398.487273 281.557737 
" clip-path="url(#p979c6dfcce)" style="fill: none; stroke: #7f7f7f; stroke-width: 1.5; stroke-linecap: square"/>
   </g>
   <g id="line2d_113">
    <path d="M 73.832727 275.557072 
L 90.919809 275.036807 
L 108.00689 274.578084 
L 125.093971 274.186225 
L 142.181053 273.876934 
L 159.268134 273.66297 
L 176.355215 273.54945 
L 193.442297 273.53443 
L 210.529378 273.61073 
L 227.616459 273.768559 
L 244.703541 273.99731 
L 261.790622 274.286699 
L 278.877703 274.6273 
L 295.964785 275.010876 
L 313.051866 275.430408 
L 330.138947 275.880025 
L 347.226029 276.354871 
L 364.31311 276.850863 
L 381.400191 277.36398 
L 398.487273 277.885488 
" clip-path="url(#p979c6dfcce)" style="fill: none; stroke: #bcbd22; stroke-width: 1.5; stroke-linecap: square"/>
   </g>
   <g id="line2d_114">
    <path d="M 73.832727 273.824633 
L 90.919809 272.970279 
L 108.00689 272.219723 
L 125.093971 271.592604 
L 142.181053 271.091919 
L 159.268134 270.715785 
L 176.355215 270.458241 
L 193.442297 270.309924 
L 210.529378 270.259297 
L 227.616459 270.293955 
L 244.703541 270.401663 
L 261.790622 270.571028 
L 278.877703 270.791862 
L 295.964785 271.055292 
L 313.051866 271.353741 
L 330.138947 271.680793 
L 347.226029 272.031008 
L 364.31311 272.39961 
L 381.400191 272.781792 
L 398.487273 273.170025 
" clip-path="url(#p979c6dfcce)" style="fill: none; stroke: #17becf; stroke-width: 1.5; stroke-linecap: square"/>
   </g>
   <g id="line2d_115">
    <path d="M 73.832727 272.060836 
L 90.919809 271.363662 
L 108.00689 270.620551 
L 125.093971 269.933851 
L 142.181053 269.342172 
L 159.268134 268.859646 
L 176.355215 268.488233 
L 193.442297 268.22297 
L 210.529378 268.054993 
L 227.616459 267.973574 
L 244.703541 267.967491 
L 261.790622 268.025903 
L 278.877703 268.13884 
L 295.964785 268.297423 
L 313.051866 268.49391 
L 330.138947 268.721624 
L 347.226029 268.974787 
L 364.31311 269.248243 
L 381.400191 269.536873 
L 398.487273 269.833546 
" clip-path="url(#p979c6dfcce)" style="fill: none; stroke: #1f77b4; stroke-width: 1.5; stroke-linecap: square"/>
   </g>
   <g id="line2d_116">
    <path d="M 73.832727 270.606732 
L 90.919809 270.024673 
L 108.00689 269.327301 
L 125.093971 268.635349 
L 142.181053 268.004987 
L 159.268134 267.462293 
L 176.355215 267.01715 
L 193.442297 266.669996 
L 210.529378 266.415731 
L 227.616459 266.24625 
L 244.703541 266.152127 
L 261.790622 266.123704 
L 278.877703 266.151745 
L 295.964785 266.227786 
L 313.051866 266.344271 
L 330.138947 266.494552 
L 347.226029 266.672779 
L 364.31311 266.873672 
L 381.400191 267.092018 
L 398.487273 267.320869 
" clip-path="url(#p979c6dfcce)" style="fill: none; stroke: #ff7f0e; stroke-width: 1.5; stroke-linecap: square"/>
   </g>
   <g id="line2d_117">
    <path d="M 73.832727 269.440752 
L 90.919809 268.924122 
L 108.00689 268.264359 
L 125.093971 267.578877 
L 142.181053 266.92981 
L 159.268134 266.349786 
L 176.355215 265.854178 
L 193.442297 265.447749 
L 210.529378 265.12872 
L 227.616459 264.891482 
L 244.703541 264.728436 
L 261.790622 264.63122 
L 278.877703 264.591481 
L 295.964785 264.60133 
L 313.051866 264.653558 
L 330.138947 264.7417 
L 347.226029 264.859985 
L 364.31311 265.003143 
L 381.400191 265.165975 
L 398.487273 265.341643 
" clip-path="url(#p979c6dfcce)" style="fill: none; stroke: #2ca02c; stroke-width: 1.5; stroke-linecap: square"/>
   </g>
   <g id="patch_25">
    <path d="M 57.6 307.584 
L 57.6 261.702621 
" style="fill: none; stroke: #000000; stroke-width: 0.8; stroke-linejoin: miter; stroke-linecap: square"/>
   </g>
   <g id="patch_26">
    <path d="M 414.72 307.584 
L 414.72 261.702621 
" style="fill: none; stroke: #000000; stroke-width: 0.8; stroke-linejoin: miter; stroke-linecap: square"/>
   </g>
   <g id="patch_27">
    <path d="M 57.6 307.584 
L 414.72 307.584 
" style="fill: none; stroke: #000000; stroke-width: 0.8; stroke-linejoin: miter; stroke-linecap: square"/>
   </g>
   <g id="patch_28">
    <path d="M 57.6 261.702621 
L 414.72 261.702621 
" style="fill: none; stroke: #000000; stroke-width: 0.8; stroke-linejoin: miter; stroke-linecap: square"/>
   </g>
   <g id="text_28">
    <!-- yC - Container 1 -->
    <g transform="translate(187.395938 258.702621)scale(0.12 -0.12)">
     <use xlink:href="#DejaVuSans-79"/>
     <use xlink:href="#DejaVuSans-43" x="59.179688"/>
     <use xlink:href="#DejaVuSans-20" x="129.003906"/>
     <use xlink:href="#DejaVuSans-2d" x="160.791016"/>
     <use xlink:href="#DejaVuSans-20" x="196.875"/>
     <use xlink:href="#DejaVuSans-43" x="228.662109"/>
     <use xlink:href="#DejaVuSans-6f" x="298.486328"/>
     <use xlink:href="#DejaVuSans-6e" x="359.667969"/>
     <use xlink:href="#DejaVuSans-74" x="423.046875"/>
     <use xlink:href="#DejaVuSans-61" x="462.255859"/>
     <use xlink:href="#DejaVuSans-69" x="523.535156"/>
     <use xlink:href="#DejaVuSans-6e" x="551.318359"/>
     <use xlink:href="#DejaVuSans-65" x="614.697266"/>
     <use xlink:href="#DejaVuSans-72" x="676.220703"/>
     <use xlink:href="#DejaVuSans-20" x="717.333984"/>
     <use xlink:href="#DejaVuSans-31" x="749.121094"/>
    </g>
   </g>
  </g>
  <g id="legend_1">
   <g id="patch_29">
    <path d="M 372.146875 269.707812 
L 457.8 269.707812 
Q 459.8 269.707812 459.8 267.707812 
L 459.8 77.892187 
Q 459.8 75.892187 457.8 75.892187 
L 372.146875 75.892187 
Q 370.146875 75.892187 370.146875 77.892187 
L 370.146875 267.707812 
Q 370.146875 269.707812 372.146875 269.707812 
z
" style="fill: #ffffff; opacity: 0.8; stroke: #cccccc; stroke-linejoin: miter"/>
   </g>
   <g id="line2d_118">
    <path d="M 374.146875 83.990625 
L 384.146875 83.990625 
L 394.146875 83.990625 
" style="fill: none; stroke: #1f77b4; stroke-width: 1.5; stroke-linecap: square"/>
   </g>
   <g id="text_29">
    <!-- t=0.0000 -->
    <g transform="translate(402.146875 87.490625)scale(0.1 -0.1)">
     <defs>
      <path id="DejaVuSans-3d" d="M 678 2906 
L 4684 2906 
L 4684 2381 
L 678 2381 
L 678 2906 
z
M 678 1631 
L 4684 1631 
L 4684 1100 
L 678 1100 
L 678 1631 
z
" transform="scale(0.015625)"/>
     </defs>
     <use xlink:href="#DejaVuSans-74"/>
     <use xlink:href="#DejaVuSans-3d" x="39.208984"/>
     <use xlink:href="#DejaVuSans-30" x="122.998047"/>
     <use xlink:href="#DejaVuSans-2e" x="186.621094"/>
     <use xlink:href="#DejaVuSans-30" x="218.408203"/>
     <use xlink:href="#DejaVuSans-30" x="282.03125"/>
     <use xlink:href="#DejaVuSans-30" x="345.654297"/>
     <use xlink:href="#DejaVuSans-30" x="409.277344"/>
    </g>
   </g>
   <g id="line2d_119">
    <path d="M 374.146875 98.66875 
L 384.146875 98.66875 
L 394.146875 98.66875 
" style="fill: none; stroke: #ff7f0e; stroke-width: 1.5; stroke-linecap: square"/>
   </g>
   <g id="text_30">
    <!-- t=8.0000 -->
    <g transform="translate(402.146875 102.16875)scale(0.1 -0.1)">
     <use xlink:href="#DejaVuSans-74"/>
     <use xlink:href="#DejaVuSans-3d" x="39.208984"/>
     <use xlink:href="#DejaVuSans-38" x="122.998047"/>
     <use xlink:href="#DejaVuSans-2e" x="186.621094"/>
     <use xlink:href="#DejaVuSans-30" x="218.408203"/>
     <use xlink:href="#DejaVuSans-30" x="282.03125"/>
     <use xlink:href="#DejaVuSans-30" x="345.654297"/>
     <use xlink:href="#DejaVuSans-30" x="409.277344"/>
    </g>
   </g>
   <g id="line2d_120">
    <path d="M 374.146875 113.346875 
L 384.146875 113.346875 
L 394.146875 113.346875 
" style="fill: none; stroke: #2ca02c; stroke-width: 1.5; stroke-linecap: square"/>
   </g>
   <g id="text_31">
    <!-- t=16.0000 -->
    <g transform="translate(402.146875 116.846875)scale(0.1 -0.1)">
     <use xlink:href="#DejaVuSans-74"/>
     <use xlink:href="#DejaVuSans-3d" x="39.208984"/>
     <use xlink:href="#DejaVuSans-31" x="122.998047"/>
     <use xlink:href="#DejaVuSans-36" x="186.621094"/>
     <use xlink:href="#DejaVuSans-2e" x="250.244141"/>
     <use xlink:href="#DejaVuSans-30" x="282.03125"/>
     <use xlink:href="#DejaVuSans-30" x="345.654297"/>
     <use xlink:href="#DejaVuSans-30" x="409.277344"/>
     <use xlink:href="#DejaVuSans-30" x="472.900391"/>
    </g>
   </g>
   <g id="line2d_121">
    <path d="M 374.146875 128.025 
L 384.146875 128.025 
L 394.146875 128.025 
" style="fill: none; stroke: #d62728; stroke-width: 1.5; stroke-linecap: square"/>
   </g>
   <g id="text_32">
    <!-- t=24.0000 -->
    <g transform="translate(402.146875 131.525)scale(0.1 -0.1)">
     <use xlink:href="#DejaVuSans-74"/>
     <use xlink:href="#DejaVuSans-3d" x="39.208984"/>
     <use xlink:href="#DejaVuSans-32" x="122.998047"/>
     <use xlink:href="#DejaVuSans-34" x="186.621094"/>
     <use xlink:href="#DejaVuSans-2e" x="250.244141"/>
     <use xlink:href="#DejaVuSans-30" x="282.03125"/>
     <use xlink:href="#DejaVuSans-30" x="345.654297"/>
     <use xlink:href="#DejaVuSans-30" x="409.277344"/>
     <use xlink:href="#DejaVuSans-30" x="472.900391"/>
    </g>
   </g>
   <g id="line2d_122">
    <path d="M 374.146875 142.703125 
L 384.146875 142.703125 
L 394.146875 142.703125 
" style="fill: none; stroke: #9467bd; stroke-width: 1.5; stroke-linecap: square"/>
   </g>
   <g id="text_33">
    <!-- t=32.0000 -->
    <g transform="translate(402.146875 146.203125)scale(0.1 -0.1)">
     <defs>
      <path id="DejaVuSans-33" d="M 2597 2516 
Q 3050 2419 3304 2112 
Q 3559 1806 3559 1356 
Q 3559 666 3084 287 
Q 2609 -91 1734 -91 
Q 1441 -91 1130 -33 
Q 819 25 488 141 
L 488 750 
Q 750 597 1062 519 
Q 1375 441 1716 441 
Q 2309 441 2620 675 
Q 2931 909 2931 1356 
Q 2931 1769 2642 2001 
Q 2353 2234 1838 2234 
L 1294 2234 
L 1294 2753 
L 1863 2753 
Q 2328 2753 2575 2939 
Q 2822 3125 2822 3475 
Q 2822 3834 2567 4026 
Q 2313 4219 1838 4219 
Q 1578 4219 1281 4162 
Q 984 4106 628 3988 
L 628 4550 
Q 988 4650 1302 4700 
Q 1616 4750 1894 4750 
Q 2613 4750 3031 4423 
Q 3450 4097 3450 3541 
Q 3450 3153 3228 2886 
Q 3006 2619 2597 2516 
z
" transform="scale(0.015625)"/>
     </defs>
     <use xlink:href="#DejaVuSans-74"/>
     <use xlink:href="#DejaVuSans-3d" x="39.208984"/>
     <use xlink:href="#DejaVuSans-33" x="122.998047"/>
     <use xlink:href="#DejaVuSans-32" x="186.621094"/>
     <use xlink:href="#DejaVuSans-2e" x="250.244141"/>
     <use xlink:href="#DejaVuSans-30" x="282.03125"/>
     <use xlink:href="#DejaVuSans-30" x="345.654297"/>
     <use xlink:href="#DejaVuSans-30" x="409.277344"/>
     <use xlink:href="#DejaVuSans-30" x="472.900391"/>
    </g>
   </g>
   <g id="line2d_123">
    <path d="M 374.146875 157.38125 
L 384.146875 157.38125 
L 394.146875 157.38125 
" style="fill: none; stroke: #8c564b; stroke-width: 1.5; stroke-linecap: square"/>
   </g>
   <g id="text_34">
    <!-- t=40.0000 -->
    <g transform="translate(402.146875 160.88125)scale(0.1 -0.1)">
     <use xlink:href="#DejaVuSans-74"/>
     <use xlink:href="#DejaVuSans-3d" x="39.208984"/>
     <use xlink:href="#DejaVuSans-34" x="122.998047"/>
     <use xlink:href="#DejaVuSans-30" x="186.621094"/>
     <use xlink:href="#DejaVuSans-2e" x="250.244141"/>
     <use xlink:href="#DejaVuSans-30" x="282.03125"/>
     <use xlink:href="#DejaVuSans-30" x="345.654297"/>
     <use xlink:href="#DejaVuSans-30" x="409.277344"/>
     <use xlink:href="#DejaVuSans-30" x="472.900391"/>
    </g>
   </g>
   <g id="line2d_124">
    <path d="M 374.146875 172.059375 
L 384.146875 172.059375 
L 394.146875 172.059375 
" style="fill: none; stroke: #e377c2; stroke-width: 1.5; stroke-linecap: square"/>
   </g>
   <g id="text_35">
    <!-- t=48.0000 -->
    <g transform="translate(402.146875 175.559375)scale(0.1 -0.1)">
     <use xlink:href="#DejaVuSans-74"/>
     <use xlink:href="#DejaVuSans-3d" x="39.208984"/>
     <use xlink:href="#DejaVuSans-34" x="122.998047"/>
     <use xlink:href="#DejaVuSans-38" x="186.621094"/>
     <use xlink:href="#DejaVuSans-2e" x="250.244141"/>
     <use xlink:href="#DejaVuSans-30" x="282.03125"/>
     <use xlink:href="#DejaVuSans-30" x="345.654297"/>
     <use xlink:href="#DejaVuSans-30" x="409.277344"/>
     <use xlink:href="#DejaVuSans-30" x="472.900391"/>
    </g>
   </g>
   <g id="line2d_125">
    <path d="M 374.146875 186.7375 
L 384.146875 186.7375 
L 394.146875 186.7375 
" style="fill: none; stroke: #7f7f7f; stroke-width: 1.5; stroke-linecap: square"/>
   </g>
   <g id="text_36">
    <!-- t=56.0000 -->
    <g transform="translate(402.146875 190.2375)scale(0.1 -0.1)">
     <use xlink:href="#DejaVuSans-74"/>
     <use xlink:href="#DejaVuSans-3d" x="39.208984"/>
     <use xlink:href="#DejaVuSans-35" x="122.998047"/>
     <use xlink:href="#DejaVuSans-36" x="186.621094"/>
     <use xlink:href="#DejaVuSans-2e" x="250.244141"/>
     <use xlink:href="#DejaVuSans-30" x="282.03125"/>
     <use xlink:href="#DejaVuSans-30" x="345.654297"/>
     <use xlink:href="#DejaVuSans-30" x="409.277344"/>
     <use xlink:href="#DejaVuSans-30" x="472.900391"/>
    </g>
   </g>
   <g id="line2d_126">
    <path d="M 374.146875 201.415625 
L 384.146875 201.415625 
L 394.146875 201.415625 
" style="fill: none; stroke: #bcbd22; stroke-width: 1.5; stroke-linecap: square"/>
   </g>
   <g id="text_37">
    <!-- t=64.0000 -->
    <g transform="translate(402.146875 204.915625)scale(0.1 -0.1)">
     <use xlink:href="#DejaVuSans-74"/>
     <use xlink:href="#DejaVuSans-3d" x="39.208984"/>
     <use xlink:href="#DejaVuSans-36" x="122.998047"/>
     <use xlink:href="#DejaVuSans-34" x="186.621094"/>
     <use xlink:href="#DejaVuSans-2e" x="250.244141"/>
     <use xlink:href="#DejaVuSans-30" x="282.03125"/>
     <use xlink:href="#DejaVuSans-30" x="345.654297"/>
     <use xlink:href="#DejaVuSans-30" x="409.277344"/>
     <use xlink:href="#DejaVuSans-30" x="472.900391"/>
    </g>
   </g>
   <g id="line2d_127">
    <path d="M 374.146875 216.09375 
L 384.146875 216.09375 
L 394.146875 216.09375 
" style="fill: none; stroke: #17becf; stroke-width: 1.5; stroke-linecap: square"/>
   </g>
   <g id="text_38">
    <!-- t=72.0000 -->
    <g transform="translate(402.146875 219.59375)scale(0.1 -0.1)">
     <use xlink:href="#DejaVuSans-74"/>
     <use xlink:href="#DejaVuSans-3d" x="39.208984"/>
     <use xlink:href="#DejaVuSans-37" x="122.998047"/>
     <use xlink:href="#DejaVuSans-32" x="186.621094"/>
     <use xlink:href="#DejaVuSans-2e" x="250.244141"/>
     <use xlink:href="#DejaVuSans-30" x="282.03125"/>
     <use xlink:href="#DejaVuSans-30" x="345.654297"/>
     <use xlink:href="#DejaVuSans-30" x="409.277344"/>
     <use xlink:href="#DejaVuSans-30" x="472.900391"/>
    </g>
   </g>
   <g id="line2d_128">
    <path d="M 374.146875 230.771875 
L 384.146875 230.771875 
L 394.146875 230.771875 
" style="fill: none; stroke: #1f77b4; stroke-width: 1.5; stroke-linecap: square"/>
   </g>
   <g id="text_39">
    <!-- t=80.0000 -->
    <g transform="translate(402.146875 234.271875)scale(0.1 -0.1)">
     <use xlink:href="#DejaVuSans-74"/>
     <use xlink:href="#DejaVuSans-3d" x="39.208984"/>
     <use xlink:href="#DejaVuSans-38" x="122.998047"/>
     <use xlink:href="#DejaVuSans-30" x="186.621094"/>
     <use xlink:href="#DejaVuSans-2e" x="250.244141"/>
     <use xlink:href="#DejaVuSans-30" x="282.03125"/>
     <use xlink:href="#DejaVuSans-30" x="345.654297"/>
     <use xlink:href="#DejaVuSans-30" x="409.277344"/>
     <use xlink:href="#DejaVuSans-30" x="472.900391"/>
    </g>
   </g>
   <g id="line2d_129">
    <path d="M 374.146875 245.45 
L 384.146875 245.45 
L 394.146875 245.45 
" style="fill: none; stroke: #ff7f0e; stroke-width: 1.5; stroke-linecap: square"/>
   </g>
   <g id="text_40">
    <!-- t=88.0000 -->
    <g transform="translate(402.146875 248.95)scale(0.1 -0.1)">
     <use xlink:href="#DejaVuSans-74"/>
     <use xlink:href="#DejaVuSans-3d" x="39.208984"/>
     <use xlink:href="#DejaVuSans-38" x="122.998047"/>
     <use xlink:href="#DejaVuSans-38" x="186.621094"/>
     <use xlink:href="#DejaVuSans-2e" x="250.244141"/>
     <use xlink:href="#DejaVuSans-30" x="282.03125"/>
     <use xlink:href="#DejaVuSans-30" x="345.654297"/>
     <use xlink:href="#DejaVuSans-30" x="409.277344"/>
     <use xlink:href="#DejaVuSans-30" x="472.900391"/>
    </g>
   </g>
   <g id="line2d_130">
    <path d="M 374.146875 260.128125 
L 384.146875 260.128125 
L 394.146875 260.128125 
" style="fill: none; stroke: #2ca02c; stroke-width: 1.5; stroke-linecap: square"/>
   </g>
   <g id="text_41">
    <!-- t=96.0000 -->
    <g transform="translate(402.146875 263.628125)scale(0.1 -0.1)">
     <use xlink:href="#DejaVuSans-74"/>
     <use xlink:href="#DejaVuSans-3d" x="39.208984"/>
     <use xlink:href="#DejaVuSans-39" x="122.998047"/>
     <use xlink:href="#DejaVuSans-36" x="186.621094"/>
     <use xlink:href="#DejaVuSans-2e" x="250.244141"/>
     <use xlink:href="#DejaVuSans-30" x="282.03125"/>
     <use xlink:href="#DejaVuSans-30" x="345.654297"/>
     <use xlink:href="#DejaVuSans-30" x="409.277344"/>
     <use xlink:href="#DejaVuSans-30" x="472.900391"/>
    </g>
   </g>
  </g>
 </g>
 <defs>
  <clipPath id="pd9a051c627">
   <rect x="57.6" y="41.472" width="357.12" height="45.881379"/>
  </clipPath>
  <clipPath id="p3c4be5d7bb">
   <rect x="57.6" y="96.529655" width="357.12" height="45.881379"/>
  </clipPath>
  <clipPath id="p8a1b5b2ae1">
   <rect x="57.6" y="151.58731" width="357.12" height="45.881379"/>
  </clipPath>
  <clipPath id="p7034f8c436">
   <rect x="57.6" y="206.644966" width="357.12" height="45.881379"/>
  </clipPath>
  <clipPath id="p979c6dfcce">
   <rect x="57.6" y="261.702621" width="357.12" height="45.881379"/>
  </clipPath>
 </defs>
</svg>
