<?xml version="1.0" encoding="utf-8" standalone="no"?>
<!DOCTYPE svg PUBLIC "-//W3C//DTD SVG 1.1//EN"
  "http://www.w3.org/Graphics/SVG/1.1/DTD/svg11.dtd">
<svg xmlns:xlink="http://www.w3.org/1999/xlink" width="460.8pt" height="345.6pt" viewBox="0 0 460.8 345.6" xmlns="http://www.w3.org/2000/svg" version="1.1">
 <metadata>
  <rdf:RDF xmlns:dc="http://purl.org/dc/elements/1.1/" xmlns:cc="http://creativecommons.org/ns#" xmlns:rdf="http://www.w3.org/1999/02/22-rdf-syntax-ns#">
   <cc:Work>
    <dc:type rdf:resource="http://purl.org/dc/dcmitype/StillImage"/>
    <dc:date>2022-07-10T00:04:49.152137</dc:date>
    <dc:format>image/svg+xml</dc:format>
    <dc:creator>
     <cc:Agent>
      <dc:title>Matplotlib v3.5.2, https://matplotlib.org/</dc:title>
     </cc:Agent>
    </dc:creator>
   </cc:Work>
  </rdf:RDF>
 </metadata>
 <defs>
  <style type="text/css">*{stroke-linejoin: round; stroke-linecap: butt}</style>
 </defs>
 <g id="figure_1">
  <g id="patch_1">
   <path d="M 0 345.6 
L 460.8 345.6 
L 460.8 0 
L 0 0 
z
" style="fill: #ffffff"/>
  </g>
  <g id="axes_1">
   <g id="patch_2">
    <path d="M 57.6 87.353379 
L 414.72 87.353379 
L 414.72 41.472 
L 57.6 41.472 
z
" style="fill: #ffffff"/>
   </g>
   <g id="matplotlib.axis_1">
    <g id="xtick_1">
     <g id="line2d_1">
      <defs>
       <path id="m85f082bd06" d="M 0 0 
L 0 3.5 
" style="stroke: #000000; stroke-width: 0.8"/>
      </defs>
      <g>
       <use xlink:href="#m85f082bd06" x="73.832727" y="87.353379" style="stroke: #000000; stroke-width: 0.8"/>
      </g>
     </g>
    </g>
    <g id="xtick_2">
     <g id="line2d_2">
      <g>
       <use xlink:href="#m85f082bd06" x="138.763636" y="87.353379" style="stroke: #000000; stroke-width: 0.8"/>
      </g>
     </g>
    </g>
    <g id="xtick_3">
     <g id="line2d_3">
      <g>
       <use xlink:href="#m85f082bd06" x="203.694545" y="87.353379" style="stroke: #000000; stroke-width: 0.8"/>
      </g>
     </g>
    </g>
    <g id="xtick_4">
     <g id="line2d_4">
      <g>
       <use xlink:href="#m85f082bd06" x="268.625455" y="87.353379" style="stroke: #000000; stroke-width: 0.8"/>
      </g>
     </g>
    </g>
    <g id="xtick_5">
     <g id="line2d_5">
      <g>
       <use xlink:href="#m85f082bd06" x="333.556364" y="87.353379" style="stroke: #000000; stroke-width: 0.8"/>
      </g>
     </g>
    </g>
    <g id="xtick_6">
     <g id="line2d_6">
      <g>
       <use xlink:href="#m85f082bd06" x="398.487273" y="87.353379" style="stroke: #000000; stroke-width: 0.8"/>
      </g>
     </g>
    </g>
   </g>
   <g id="matplotlib.axis_2">
    <g id="ytick_1">
     <g id="line2d_7">
      <defs>
       <path id="m39d9b1daef" d="M 0 0 
L -3.5 0 
" style="stroke: #000000; stroke-width: 0.8"/>
      </defs>
      <g>
       <use xlink:href="#m39d9b1daef" x="57.6" y="84.377104" style="stroke: #000000; stroke-width: 0.8"/>
      </g>
     </g>
     <g id="text_1">
      <!-- −25 -->
      <g transform="translate(29.495313 88.176322)scale(0.1 -0.1)">
       <defs>
        <path id="DejaVuSans-2212" d="M 678 2272 
L 4684 2272 
L 4684 1741 
L 678 1741 
L 678 2272 
z
" transform="scale(0.015625)"/>
        <path id="DejaVuSans-32" d="M 1228 531 
L 3431 531 
L 3431 0 
L 469 0 
L 469 531 
Q 828 903 1448 1529 
Q 2069 2156 2228 2338 
Q 2531 2678 2651 2914 
Q 2772 3150 2772 3378 
Q 2772 3750 2511 3984 
Q 2250 4219 1831 4219 
Q 1534 4219 1204 4116 
Q 875 4013 500 3803 
L 500 4441 
Q 881 4594 1212 4672 
Q 1544 4750 1819 4750 
Q 2544 4750 2975 4387 
Q 3406 4025 3406 3419 
Q 3406 3131 3298 2873 
Q 3191 2616 2906 2266 
Q 2828 2175 2409 1742 
Q 1991 1309 1228 531 
z
" transform="scale(0.015625)"/>
        <path id="DejaVuSans-35" d="M 691 4666 
L 3169 4666 
L 3169 4134 
L 1269 4134 
L 1269 2991 
Q 1406 3038 1543 3061 
Q 1681 3084 1819 3084 
Q 2600 3084 3056 2656 
Q 3513 2228 3513 1497 
Q 3513 744 3044 326 
Q 2575 -91 1722 -91 
Q 1428 -91 1123 -41 
Q 819 9 494 109 
L 494 744 
Q 775 591 1075 516 
Q 1375 441 1709 441 
Q 2250 441 2565 725 
Q 2881 1009 2881 1497 
Q 2881 1984 2565 2268 
Q 2250 2553 1709 2553 
Q 1456 2553 1204 2497 
Q 953 2441 691 2322 
L 691 4666 
z
" transform="scale(0.015625)"/>
       </defs>
       <use xlink:href="#DejaVuSans-2212"/>
       <use xlink:href="#DejaVuSans-32" x="83.789062"/>
       <use xlink:href="#DejaVuSans-35" x="147.412109"/>
      </g>
     </g>
    </g>
    <g id="ytick_2">
     <g id="line2d_8">
      <g>
       <use xlink:href="#m39d9b1daef" x="57.6" y="65.113609" style="stroke: #000000; stroke-width: 0.8"/>
      </g>
     </g>
     <g id="text_2">
      <!-- 0 -->
      <g transform="translate(44.2375 68.912828)scale(0.1 -0.1)">
       <defs>
        <path id="DejaVuSans-30" d="M 2034 4250 
Q 1547 4250 1301 3770 
Q 1056 3291 1056 2328 
Q 1056 1369 1301 889 
Q 1547 409 2034 409 
Q 2525 409 2770 889 
Q 3016 1369 3016 2328 
Q 3016 3291 2770 3770 
Q 2525 4250 2034 4250 
z
M 2034 4750 
Q 2819 4750 3233 4129 
Q 3647 3509 3647 2328 
Q 3647 1150 3233 529 
Q 2819 -91 2034 -91 
Q 1250 -91 836 529 
Q 422 1150 422 2328 
Q 422 3509 836 4129 
Q 1250 4750 2034 4750 
z
" transform="scale(0.015625)"/>
       </defs>
       <use xlink:href="#DejaVuSans-30"/>
      </g>
     </g>
    </g>
    <g id="ytick_3">
     <g id="line2d_9">
      <g>
       <use xlink:href="#m39d9b1daef" x="57.6" y="45.850115" style="stroke: #000000; stroke-width: 0.8"/>
      </g>
     </g>
     <g id="text_3">
      <!-- 25 -->
      <g transform="translate(37.875 49.649334)scale(0.1 -0.1)">
       <use xlink:href="#DejaVuSans-32"/>
       <use xlink:href="#DejaVuSans-35" x="63.623047"/>
      </g>
     </g>
    </g>
    <g id="text_4">
     <!-- flow rate (normalized) -->
     <g transform="translate(23.415625 119.729877)rotate(-90)scale(0.1 -0.1)">
      <defs>
       <path id="DejaVuSans-66" d="M 2375 4863 
L 2375 4384 
L 1825 4384 
Q 1516 4384 1395 4259 
Q 1275 4134 1275 3809 
L 1275 3500 
L 2222 3500 
L 2222 3053 
L 1275 3053 
L 1275 0 
L 697 0 
L 697 3053 
L 147 3053 
L 147 3500 
L 697 3500 
L 697 3744 
Q 697 4328 969 4595 
Q 1241 4863 1831 4863 
L 2375 4863 
z
" transform="scale(0.015625)"/>
       <path id="DejaVuSans-6c" d="M 603 4863 
L 1178 4863 
L 1178 0 
L 603 0 
L 603 4863 
z
" transform="scale(0.015625)"/>
       <path id="DejaVuSans-6f" d="M 1959 3097 
Q 1497 3097 1228 2736 
Q 959 2375 959 1747 
Q 959 1119 1226 758 
Q 1494 397 1959 397 
Q 2419 397 2687 759 
Q 2956 1122 2956 1747 
Q 2956 2369 2687 2733 
Q 2419 3097 1959 3097 
z
M 1959 3584 
Q 2709 3584 3137 3096 
Q 3566 2609 3566 1747 
Q 3566 888 3137 398 
Q 2709 -91 1959 -91 
Q 1206 -91 779 398 
Q 353 888 353 1747 
Q 353 2609 779 3096 
Q 1206 3584 1959 3584 
z
" transform="scale(0.015625)"/>
       <path id="DejaVuSans-77" d="M 269 3500 
L 844 3500 
L 1563 769 
L 2278 3500 
L 2956 3500 
L 3675 769 
L 4391 3500 
L 4966 3500 
L 4050 0 
L 3372 0 
L 2619 2869 
L 1863 0 
L 1184 0 
L 269 3500 
z
" transform="scale(0.015625)"/>
       <path id="DejaVuSans-20" transform="scale(0.015625)"/>
       <path id="DejaVuSans-72" d="M 2631 2963 
Q 2534 3019 2420 3045 
Q 2306 3072 2169 3072 
Q 1681 3072 1420 2755 
Q 1159 2438 1159 1844 
L 1159 0 
L 581 0 
L 581 3500 
L 1159 3500 
L 1159 2956 
Q 1341 3275 1631 3429 
Q 1922 3584 2338 3584 
Q 2397 3584 2469 3576 
Q 2541 3569 2628 3553 
L 2631 2963 
z
" transform="scale(0.015625)"/>
       <path id="DejaVuSans-61" d="M 2194 1759 
Q 1497 1759 1228 1600 
Q 959 1441 959 1056 
Q 959 750 1161 570 
Q 1363 391 1709 391 
Q 2188 391 2477 730 
Q 2766 1069 2766 1631 
L 2766 1759 
L 2194 1759 
z
M 3341 1997 
L 3341 0 
L 2766 0 
L 2766 531 
Q 2569 213 2275 61 
Q 1981 -91 1556 -91 
Q 1019 -91 701 211 
Q 384 513 384 1019 
Q 384 1609 779 1909 
Q 1175 2209 1959 2209 
L 2766 2209 
L 2766 2266 
Q 2766 2663 2505 2880 
Q 2244 3097 1772 3097 
Q 1472 3097 1187 3025 
Q 903 2953 641 2809 
L 641 3341 
Q 956 3463 1253 3523 
Q 1550 3584 1831 3584 
Q 2591 3584 2966 3190 
Q 3341 2797 3341 1997 
z
" transform="scale(0.015625)"/>
       <path id="DejaVuSans-74" d="M 1172 4494 
L 1172 3500 
L 2356 3500 
L 2356 3053 
L 1172 3053 
L 1172 1153 
Q 1172 725 1289 603 
Q 1406 481 1766 481 
L 2356 481 
L 2356 0 
L 1766 0 
Q 1100 0 847 248 
Q 594 497 594 1153 
L 594 3053 
L 172 3053 
L 172 3500 
L 594 3500 
L 594 4494 
L 1172 4494 
z
" transform="scale(0.015625)"/>
       <path id="DejaVuSans-65" d="M 3597 1894 
L 3597 1613 
L 953 1613 
Q 991 1019 1311 708 
Q 1631 397 2203 397 
Q 2534 397 2845 478 
Q 3156 559 3463 722 
L 3463 178 
Q 3153 47 2828 -22 
Q 2503 -91 2169 -91 
Q 1331 -91 842 396 
Q 353 884 353 1716 
Q 353 2575 817 3079 
Q 1281 3584 2069 3584 
Q 2775 3584 3186 3129 
Q 3597 2675 3597 1894 
z
M 3022 2063 
Q 3016 2534 2758 2815 
Q 2500 3097 2075 3097 
Q 1594 3097 1305 2825 
Q 1016 2553 972 2059 
L 3022 2063 
z
" transform="scale(0.015625)"/>
       <path id="DejaVuSans-28" d="M 1984 4856 
Q 1566 4138 1362 3434 
Q 1159 2731 1159 2009 
Q 1159 1288 1364 580 
Q 1569 -128 1984 -844 
L 1484 -844 
Q 1016 -109 783 600 
Q 550 1309 550 2009 
Q 550 2706 781 3412 
Q 1013 4119 1484 4856 
L 1984 4856 
z
" transform="scale(0.015625)"/>
       <path id="DejaVuSans-6e" d="M 3513 2113 
L 3513 0 
L 2938 0 
L 2938 2094 
Q 2938 2591 2744 2837 
Q 2550 3084 2163 3084 
Q 1697 3084 1428 2787 
Q 1159 2491 1159 1978 
L 1159 0 
L 581 0 
L 581 3500 
L 1159 3500 
L 1159 2956 
Q 1366 3272 1645 3428 
Q 1925 3584 2291 3584 
Q 2894 3584 3203 3211 
Q 3513 2838 3513 2113 
z
" transform="scale(0.015625)"/>
       <path id="DejaVuSans-6d" d="M 3328 2828 
Q 3544 3216 3844 3400 
Q 4144 3584 4550 3584 
Q 5097 3584 5394 3201 
Q 5691 2819 5691 2113 
L 5691 0 
L 5113 0 
L 5113 2094 
Q 5113 2597 4934 2840 
Q 4756 3084 4391 3084 
Q 3944 3084 3684 2787 
Q 3425 2491 3425 1978 
L 3425 0 
L 2847 0 
L 2847 2094 
Q 2847 2600 2669 2842 
Q 2491 3084 2119 3084 
Q 1678 3084 1418 2786 
Q 1159 2488 1159 1978 
L 1159 0 
L 581 0 
L 581 3500 
L 1159 3500 
L 1159 2956 
Q 1356 3278 1631 3431 
Q 1906 3584 2284 3584 
Q 2666 3584 2933 3390 
Q 3200 3197 3328 2828 
z
" transform="scale(0.015625)"/>
       <path id="DejaVuSans-69" d="M 603 3500 
L 1178 3500 
L 1178 0 
L 603 0 
L 603 3500 
z
M 603 4863 
L 1178 4863 
L 1178 4134 
L 603 4134 
L 603 4863 
z
" transform="scale(0.015625)"/>
       <path id="DejaVuSans-7a" d="M 353 3500 
L 3084 3500 
L 3084 2975 
L 922 459 
L 3084 459 
L 3084 0 
L 275 0 
L 275 525 
L 2438 3041 
L 353 3041 
L 353 3500 
z
" transform="scale(0.015625)"/>
       <path id="DejaVuSans-64" d="M 2906 2969 
L 2906 4863 
L 3481 4863 
L 3481 0 
L 2906 0 
L 2906 525 
Q 2725 213 2448 61 
Q 2172 -91 1784 -91 
Q 1150 -91 751 415 
Q 353 922 353 1747 
Q 353 2572 751 3078 
Q 1150 3584 1784 3584 
Q 2172 3584 2448 3432 
Q 2725 3281 2906 2969 
z
M 947 1747 
Q 947 1113 1208 752 
Q 1469 391 1925 391 
Q 2381 391 2643 752 
Q 2906 1113 2906 1747 
Q 2906 2381 2643 2742 
Q 2381 3103 1925 3103 
Q 1469 3103 1208 2742 
Q 947 2381 947 1747 
z
" transform="scale(0.015625)"/>
       <path id="DejaVuSans-29" d="M 513 4856 
L 1013 4856 
Q 1481 4119 1714 3412 
Q 1947 2706 1947 2009 
Q 1947 1309 1714 600 
Q 1481 -109 1013 -844 
L 513 -844 
Q 928 -128 1133 580 
Q 1338 1288 1338 2009 
Q 1338 2731 1133 3434 
Q 928 4138 513 4856 
z
" transform="scale(0.015625)"/>
      </defs>
      <use xlink:href="#DejaVuSans-66"/>
      <use xlink:href="#DejaVuSans-6c" x="35.205078"/>
      <use xlink:href="#DejaVuSans-6f" x="62.988281"/>
      <use xlink:href="#DejaVuSans-77" x="124.169922"/>
      <use xlink:href="#DejaVuSans-20" x="205.957031"/>
      <use xlink:href="#DejaVuSans-72" x="237.744141"/>
      <use xlink:href="#DejaVuSans-61" x="278.857422"/>
      <use xlink:href="#DejaVuSans-74" x="340.136719"/>
      <use xlink:href="#DejaVuSans-65" x="379.345703"/>
      <use xlink:href="#DejaVuSans-20" x="440.869141"/>
      <use xlink:href="#DejaVuSans-28" x="472.65625"/>
      <use xlink:href="#DejaVuSans-6e" x="511.669922"/>
      <use xlink:href="#DejaVuSans-6f" x="575.048828"/>
      <use xlink:href="#DejaVuSans-72" x="636.230469"/>
      <use xlink:href="#DejaVuSans-6d" x="675.59375"/>
      <use xlink:href="#DejaVuSans-61" x="773.005859"/>
      <use xlink:href="#DejaVuSans-6c" x="834.285156"/>
      <use xlink:href="#DejaVuSans-69" x="862.068359"/>
      <use xlink:href="#DejaVuSans-7a" x="889.851562"/>
      <use xlink:href="#DejaVuSans-65" x="942.341797"/>
      <use xlink:href="#DejaVuSans-64" x="1003.865234"/>
      <use xlink:href="#DejaVuSans-29" x="1067.341797"/>
     </g>
    </g>
   </g>
   <g id="line2d_10">
    <path d="M 73.832727 66.846802 
L 77.079273 53.041888 
L 80.325818 60.441647 
L 83.572364 62.867431 
L 86.818909 63.944045 
L 90.065455 64.479486 
L 93.312 64.758714 
L 96.558545 64.914095 
L 99.805091 65.002732 
L 103.051636 65.051771 
L 106.298182 65.07924 
L 109.544727 65.094325 
L 112.791273 65.10311 
L 116.037818 65.108951 
L 119.284364 65.110526 
L 122.530909 65.111458 
L 125.777455 64.343045 
L 129.024 64.341557 
L 132.270545 64.340728 
L 135.517091 64.34026 
L 138.763636 64.340061 
L 142.010182 64.340025 
L 145.256727 64.340157 
L 148.503273 64.3403 
L 151.749818 64.340299 
L 154.996364 64.340472 
L 158.242909 64.340582 
L 161.489455 64.340553 
L 164.736 64.340394 
L 167.982545 64.340278 
L 171.229091 64.591834 
L 174.475636 64.369196 
L 177.722182 63.477614 
L 180.968727 62.326663 
L 184.215273 61.25272 
L 187.461818 60.57179 
L 190.708364 60.397306 
L 193.954909 60.623706 
L 197.201455 61.080726 
L 200.448 61.64489 
L 203.694545 62.214858 
L 206.941091 62.752311 
L 210.187636 63.222266 
L 213.434182 63.62262 
L 216.680727 63.952721 
L 219.927273 64.221795 
L 223.173818 64.435317 
L 226.420364 64.600527 
L 229.666909 64.724828 
L 232.913455 64.817859 
L 236.16 64.888451 
L 239.406545 64.942089 
L 242.653091 64.983483 
L 245.899636 65.015415 
L 249.146182 65.03885 
L 252.392727 65.057138 
L 255.639273 65.0703 
L 258.885818 65.080379 
L 262.132364 65.088099 
L 265.378909 65.094675 
L 268.625455 65.109496 
L 271.872 68.3441 
L 275.118545 69.785642 
L 278.365091 70.342622 
L 281.611636 70.484104 
L 284.858182 70.435057 
L 288.104727 70.298159 
L 291.351273 70.12354 
L 294.597818 69.935159 
L 297.844364 69.744769 
L 301.090909 69.558511 
L 304.337455 69.379233 
L 307.584 69.208242 
L 310.830545 69.046531 
L 314.077091 68.893871 
L 317.323636 68.750153 
L 320.570182 68.614989 
L 323.816727 68.487894 
L 327.063273 68.368341 
L 330.309818 68.255772 
L 333.556364 68.149644 
L 336.802909 68.049557 
L 340.049455 67.955023 
L 343.296 67.865573 
L 346.542545 67.780851 
L 349.789091 67.700481 
L 353.035636 67.624158 
L 356.282182 67.551493 
L 359.528727 67.482379 
L 362.775273 67.416459 
L 366.021818 67.353529 
L 369.268364 67.293386 
L 372.514909 67.23579 
L 375.761455 67.180642 
L 379.008 67.127708 
L 382.254545 67.076974 
L 385.501091 67.028242 
L 388.747636 66.98133 
L 391.994182 66.936096 
L 395.240727 66.892569 
L 398.487273 66.850616 
" clip-path="url(#p0a543d0bcb)" style="fill: none; stroke: #1f77b4; stroke-width: 1.5; stroke-linecap: square"/>
   </g>
   <g id="line2d_11">
    <path d="M 73.832727 69.602279 
L 77.079273 43.557517 
L 80.325818 56.196038 
L 83.572364 60.7716 
L 86.818909 62.84363 
L 90.065455 63.880991 
L 93.312 64.423339 
L 96.558545 64.725475 
L 99.805091 64.897915 
L 103.051636 64.993328 
L 106.298182 65.046759 
L 109.544727 65.076103 
L 112.791273 65.093196 
L 116.037818 65.104552 
L 119.284364 65.107614 
L 122.530909 65.069971 
L 125.777455 64.343063 
L 129.024 64.342794 
L 132.270545 64.342654 
L 135.517091 64.342583 
L 138.763636 64.342565 
L 142.010182 64.342576 
L 145.256727 64.34262 
L 148.503273 64.342664 
L 151.749818 64.342679 
L 154.996364 64.342726 
L 158.242909 64.34276 
L 161.489455 64.342765 
L 164.736 64.342743 
L 167.982545 64.342729 
L 171.229091 64.904899 
L 174.475636 64.984253 
L 177.722182 64.832581 
L 180.968727 64.639605 
L 184.215273 64.463594 
L 187.461818 64.35672 
L 190.708364 64.33128 
L 193.954909 64.367624 
L 197.201455 64.438912 
L 200.448 64.526769 
L 203.694545 64.616596 
L 206.941091 64.702626 
L 210.187636 64.779469 
L 213.434182 64.846339 
L 216.680727 64.902604 
L 219.927273 64.949358 
L 223.173818 64.987153 
L 226.420364 65.016978 
L 229.666909 65.039845 
L 232.913455 65.057274 
L 236.16 65.07057 
L 239.406545 65.080748 
L 242.653091 65.088597 
L 245.899636 65.094662 
L 249.146182 65.099146 
L 252.392727 65.102651 
L 255.639273 65.105192 
L 258.885818 65.107147 
L 262.132364 65.108633 
L 265.378909 65.10988 
L 268.625455 65.147314 
L 271.872 74.879705 
L 275.118545 81.131049 
L 278.365091 84.275228 
L 281.611636 85.267862 
L 284.858182 85.070038 
L 288.104727 84.324125 
L 291.351273 83.385144 
L 294.597818 82.414519 
L 297.844364 81.470786 
L 301.090909 80.582668 
L 304.337455 79.756348 
L 307.584 78.982795 
L 310.830545 78.266391 
L 314.077091 77.601146 
L 317.323636 76.984514 
L 320.570182 76.412492 
L 323.816727 75.8813 
L 327.063273 75.387335 
L 330.309818 74.92745 
L 333.556364 74.498625 
L 336.802909 74.097958 
L 340.049455 73.722798 
L 343.296 73.370954 
L 346.542545 73.040506 
L 349.789091 72.729618 
L 353.035636 72.437002 
L 356.282182 72.160663 
L 359.528727 71.899806 
L 362.775273 71.652688 
L 366.021818 71.418489 
L 369.268364 71.196397 
L 372.514909 70.985242 
L 375.761455 70.784612 
L 379.008 70.593443 
L 382.254545 70.411764 
L 385.501091 70.238668 
L 388.747636 70.073353 
L 391.994182 69.915166 
L 395.240727 69.763964 
L 398.487273 69.619121 
" clip-path="url(#p0a543d0bcb)" style="fill: none; stroke: #ff7f0e; stroke-width: 1.5; stroke-linecap: square"/>
   </g>
   <g id="line2d_12">
    <path d="M 73.832727 65.295769 
L 77.079273 63.700393 
L 80.325818 64.581822 
L 83.572364 64.859274 
L 86.818909 64.981404 
L 90.065455 65.041982 
L 93.312 65.073538 
L 96.558545 65.091088 
L 99.805091 65.101096 
L 103.051636 65.106631 
L 106.298182 65.109732 
L 109.544727 65.111435 
L 112.791273 65.112426 
L 116.037818 65.113085 
L 119.284364 65.113262 
L 122.530909 65.143976 
L 125.777455 64.342925 
L 129.024 64.340641 
L 132.270545 64.339365 
L 135.517091 64.33864 
L 138.763636 64.338326 
L 142.010182 64.33826 
L 145.256727 64.338453 
L 148.503273 64.33866 
L 151.749818 64.338647 
L 154.996364 64.338901 
L 158.242909 64.339059 
L 161.489455 64.339004 
L 164.736 64.338751 
L 167.982545 64.338563 
L 171.229091 64.503519 
L 174.475636 63.791047 
L 177.722182 62.164432 
L 180.968727 59.975307 
L 184.215273 57.788933 
L 187.461818 56.225056 
L 190.708364 55.710918 
L 193.954909 56.150004 
L 197.201455 57.173434 
L 200.448 58.460868 
L 203.694545 59.729846 
L 206.941091 60.882963 
L 210.187636 61.843307 
L 213.434182 62.620743 
L 216.680727 63.233018 
L 219.927273 63.711029 
L 223.173818 64.075316 
L 226.420364 64.345023 
L 229.666909 64.53973 
L 232.913455 64.679477 
L 236.16 64.785067 
L 239.406545 64.864036 
L 242.653091 64.92545 
L 245.899636 64.972826 
L 249.146182 65.007105 
L 252.392727 65.03368 
L 255.639273 65.052598 
L 258.885818 65.066936 
L 262.132364 65.078034 
L 265.378909 65.087677 
L 268.625455 65.100815 
L 271.872 65.433802 
L 275.118545 65.571724 
L 278.365091 65.626266 
L 281.611636 65.642361 
L 284.858182 65.640364 
L 288.104727 65.629516 
L 291.351273 65.614451 
L 294.597818 65.597528 
L 297.844364 65.579998 
L 301.090909 65.562546 
L 304.337455 65.545546 
L 307.584 65.529149 
L 310.830545 65.513557 
L 314.077091 65.498749 
L 317.323636 65.484742 
L 320.570182 65.471519 
L 323.816727 65.459046 
L 327.063273 65.447283 
L 330.309818 65.43618 
L 333.556364 65.425692 
L 336.802909 65.415784 
L 340.049455 65.406412 
L 343.296 65.397532 
L 346.542545 65.389112 
L 349.789091 65.381117 
L 353.035636 65.373517 
L 356.282182 65.366274 
L 359.528727 65.359381 
L 362.775273 65.352804 
L 366.021818 65.346521 
L 369.268364 65.340512 
L 372.514909 65.334754 
L 375.761455 65.329239 
L 379.008 65.323943 
L 382.254545 65.318864 
L 385.501091 65.313982 
L 388.747636 65.30928 
L 391.994182 65.304743 
L 395.240727 65.300377 
L 398.487273 65.296167 
" clip-path="url(#p0a543d0bcb)" style="fill: none; stroke: #2ca02c; stroke-width: 1.5; stroke-linecap: square"/>
   </g>
   <g id="patch_3">
    <path d="M 57.6 87.353379 
L 57.6 41.472 
" style="fill: none; stroke: #000000; stroke-width: 0.8; stroke-linejoin: miter; stroke-linecap: square"/>
   </g>
   <g id="patch_4">
    <path d="M 414.72 87.353379 
L 414.72 41.472 
" style="fill: none; stroke: #000000; stroke-width: 0.8; stroke-linejoin: miter; stroke-linecap: square"/>
   </g>
   <g id="patch_5">
    <path d="M 57.6 87.353379 
L 414.72 87.353379 
" style="fill: none; stroke: #000000; stroke-width: 0.8; stroke-linejoin: miter; stroke-linecap: square"/>
   </g>
   <g id="patch_6">
    <path d="M 57.6 41.472 
L 414.72 41.472 
" style="fill: none; stroke: #000000; stroke-width: 0.8; stroke-linejoin: miter; stroke-linecap: square"/>
   </g>
   <g id="text_5">
    <!-- velocity vs time (container 1)   -->
    <g transform="translate(144.106875 35.472)scale(0.12 -0.12)">
     <defs>
      <path id="DejaVuSans-76" d="M 191 3500 
L 800 3500 
L 1894 563 
L 2988 3500 
L 3597 3500 
L 2284 0 
L 1503 0 
L 191 3500 
z
" transform="scale(0.015625)"/>
      <path id="DejaVuSans-63" d="M 3122 3366 
L 3122 2828 
Q 2878 2963 2633 3030 
Q 2388 3097 2138 3097 
Q 1578 3097 1268 2742 
Q 959 2388 959 1747 
Q 959 1106 1268 751 
Q 1578 397 2138 397 
Q 2388 397 2633 464 
Q 2878 531 3122 666 
L 3122 134 
Q 2881 22 2623 -34 
Q 2366 -91 2075 -91 
Q 1284 -91 818 406 
Q 353 903 353 1747 
Q 353 2603 823 3093 
Q 1294 3584 2113 3584 
Q 2378 3584 2631 3529 
Q 2884 3475 3122 3366 
z
" transform="scale(0.015625)"/>
      <path id="DejaVuSans-79" d="M 2059 -325 
Q 1816 -950 1584 -1140 
Q 1353 -1331 966 -1331 
L 506 -1331 
L 506 -850 
L 844 -850 
Q 1081 -850 1212 -737 
Q 1344 -625 1503 -206 
L 1606 56 
L 191 3500 
L 800 3500 
L 1894 763 
L 2988 3500 
L 3597 3500 
L 2059 -325 
z
" transform="scale(0.015625)"/>
      <path id="DejaVuSans-73" d="M 2834 3397 
L 2834 2853 
Q 2591 2978 2328 3040 
Q 2066 3103 1784 3103 
Q 1356 3103 1142 2972 
Q 928 2841 928 2578 
Q 928 2378 1081 2264 
Q 1234 2150 1697 2047 
L 1894 2003 
Q 2506 1872 2764 1633 
Q 3022 1394 3022 966 
Q 3022 478 2636 193 
Q 2250 -91 1575 -91 
Q 1294 -91 989 -36 
Q 684 19 347 128 
L 347 722 
Q 666 556 975 473 
Q 1284 391 1588 391 
Q 1994 391 2212 530 
Q 2431 669 2431 922 
Q 2431 1156 2273 1281 
Q 2116 1406 1581 1522 
L 1381 1569 
Q 847 1681 609 1914 
Q 372 2147 372 2553 
Q 372 3047 722 3315 
Q 1072 3584 1716 3584 
Q 2034 3584 2315 3537 
Q 2597 3491 2834 3397 
z
" transform="scale(0.015625)"/>
      <path id="DejaVuSans-31" d="M 794 531 
L 1825 531 
L 1825 4091 
L 703 3866 
L 703 4441 
L 1819 4666 
L 2450 4666 
L 2450 531 
L 3481 531 
L 3481 0 
L 794 0 
L 794 531 
z
" transform="scale(0.015625)"/>
     </defs>
     <use xlink:href="#DejaVuSans-76"/>
     <use xlink:href="#DejaVuSans-65" x="59.179688"/>
     <use xlink:href="#DejaVuSans-6c" x="120.703125"/>
     <use xlink:href="#DejaVuSans-6f" x="148.486328"/>
     <use xlink:href="#DejaVuSans-63" x="209.667969"/>
     <use xlink:href="#DejaVuSans-69" x="264.648438"/>
     <use xlink:href="#DejaVuSans-74" x="292.431641"/>
     <use xlink:href="#DejaVuSans-79" x="331.640625"/>
     <use xlink:href="#DejaVuSans-20" x="390.820312"/>
     <use xlink:href="#DejaVuSans-76" x="422.607422"/>
     <use xlink:href="#DejaVuSans-73" x="481.787109"/>
     <use xlink:href="#DejaVuSans-20" x="533.886719"/>
     <use xlink:href="#DejaVuSans-74" x="565.673828"/>
     <use xlink:href="#DejaVuSans-69" x="604.882812"/>
     <use xlink:href="#DejaVuSans-6d" x="632.666016"/>
     <use xlink:href="#DejaVuSans-65" x="730.078125"/>
     <use xlink:href="#DejaVuSans-20" x="791.601562"/>
     <use xlink:href="#DejaVuSans-28" x="823.388672"/>
     <use xlink:href="#DejaVuSans-63" x="862.402344"/>
     <use xlink:href="#DejaVuSans-6f" x="917.382812"/>
     <use xlink:href="#DejaVuSans-6e" x="978.564453"/>
     <use xlink:href="#DejaVuSans-74" x="1041.943359"/>
     <use xlink:href="#DejaVuSans-61" x="1081.152344"/>
     <use xlink:href="#DejaVuSans-69" x="1142.431641"/>
     <use xlink:href="#DejaVuSans-6e" x="1170.214844"/>
     <use xlink:href="#DejaVuSans-65" x="1233.59375"/>
     <use xlink:href="#DejaVuSans-72" x="1295.117188"/>
     <use xlink:href="#DejaVuSans-20" x="1336.230469"/>
     <use xlink:href="#DejaVuSans-31" x="1368.017578"/>
     <use xlink:href="#DejaVuSans-29" x="1431.640625"/>
     <use xlink:href="#DejaVuSans-20" x="1470.654297"/>
     <use xlink:href="#DejaVuSans-20" x="1502.441406"/>
    </g>
   </g>
   <g id="legend_1">
    <g id="patch_7">
     <path d="M 64.6 93.506375 
L 139.240625 93.506375 
Q 141.240625 93.506375 141.240625 91.506375 
L 141.240625 48.472 
Q 141.240625 46.472 139.240625 46.472 
L 64.6 46.472 
Q 62.6 46.472 62.6 48.472 
L 62.6 91.506375 
Q 62.6 93.506375 64.6 93.506375 
z
" style="fill: #ffffff; opacity: 0.8; stroke: #cccccc; stroke-linejoin: miter"/>
    </g>
    <g id="line2d_13">
     <path d="M 66.6 54.570437 
L 76.6 54.570437 
L 86.6 54.570437 
" style="fill: none; stroke: #1f77b4; stroke-width: 1.5; stroke-linecap: square"/>
    </g>
    <g id="text_6">
     <!-- mid flow -->
     <g transform="translate(94.6 58.070437)scale(0.1 -0.1)">
      <use xlink:href="#DejaVuSans-6d"/>
      <use xlink:href="#DejaVuSans-69" x="97.412109"/>
      <use xlink:href="#DejaVuSans-64" x="125.195312"/>
      <use xlink:href="#DejaVuSans-20" x="188.671875"/>
      <use xlink:href="#DejaVuSans-66" x="220.458984"/>
      <use xlink:href="#DejaVuSans-6c" x="255.664062"/>
      <use xlink:href="#DejaVuSans-6f" x="283.447266"/>
      <use xlink:href="#DejaVuSans-77" x="344.628906"/>
     </g>
    </g>
    <g id="line2d_14">
     <path d="M 66.6 69.248562 
L 76.6 69.248562 
L 86.6 69.248562 
" style="fill: none; stroke: #ff7f0e; stroke-width: 1.5; stroke-linecap: square"/>
    </g>
    <g id="text_7">
     <!-- v0 flow -->
     <g transform="translate(94.6 72.748562)scale(0.1 -0.1)">
      <use xlink:href="#DejaVuSans-76"/>
      <use xlink:href="#DejaVuSans-30" x="59.179688"/>
      <use xlink:href="#DejaVuSans-20" x="122.802734"/>
      <use xlink:href="#DejaVuSans-66" x="154.589844"/>
      <use xlink:href="#DejaVuSans-6c" x="189.794922"/>
      <use xlink:href="#DejaVuSans-6f" x="217.578125"/>
      <use xlink:href="#DejaVuSans-77" x="278.759766"/>
     </g>
    </g>
    <g id="line2d_15">
     <path d="M 66.6 83.926687 
L 76.6 83.926687 
L 86.6 83.926687 
" style="fill: none; stroke: #2ca02c; stroke-width: 1.5; stroke-linecap: square"/>
    </g>
    <g id="text_8">
     <!-- vN flow -->
     <g transform="translate(94.6 87.426687)scale(0.1 -0.1)">
      <defs>
       <path id="DejaVuSans-4e" d="M 628 4666 
L 1478 4666 
L 3547 763 
L 3547 4666 
L 4159 4666 
L 4159 0 
L 3309 0 
L 1241 3903 
L 1241 0 
L 628 0 
L 628 4666 
z
" transform="scale(0.015625)"/>
      </defs>
      <use xlink:href="#DejaVuSans-76"/>
      <use xlink:href="#DejaVuSans-4e" x="59.179688"/>
      <use xlink:href="#DejaVuSans-20" x="133.984375"/>
      <use xlink:href="#DejaVuSans-66" x="165.771484"/>
      <use xlink:href="#DejaVuSans-6c" x="200.976562"/>
      <use xlink:href="#DejaVuSans-6f" x="228.759766"/>
      <use xlink:href="#DejaVuSans-77" x="289.941406"/>
     </g>
    </g>
   </g>
  </g>
  <g id="axes_2">
   <g id="patch_8">
    <path d="M 57.6 142.411034 
L 414.72 142.411034 
L 414.72 96.529655 
L 57.6 96.529655 
z
" style="fill: #ffffff"/>
   </g>
   <g id="matplotlib.axis_3">
    <g id="xtick_7">
     <g id="line2d_16">
      <g>
       <use xlink:href="#m85f082bd06" x="73.832727" y="142.411034" style="stroke: #000000; stroke-width: 0.8"/>
      </g>
     </g>
    </g>
    <g id="xtick_8">
     <g id="line2d_17">
      <g>
       <use xlink:href="#m85f082bd06" x="138.763636" y="142.411034" style="stroke: #000000; stroke-width: 0.8"/>
      </g>
     </g>
    </g>
    <g id="xtick_9">
     <g id="line2d_18">
      <g>
       <use xlink:href="#m85f082bd06" x="203.694545" y="142.411034" style="stroke: #000000; stroke-width: 0.8"/>
      </g>
     </g>
    </g>
    <g id="xtick_10">
     <g id="line2d_19">
      <g>
       <use xlink:href="#m85f082bd06" x="268.625455" y="142.411034" style="stroke: #000000; stroke-width: 0.8"/>
      </g>
     </g>
    </g>
    <g id="xtick_11">
     <g id="line2d_20">
      <g>
       <use xlink:href="#m85f082bd06" x="333.556364" y="142.411034" style="stroke: #000000; stroke-width: 0.8"/>
      </g>
     </g>
    </g>
    <g id="xtick_12">
     <g id="line2d_21">
      <g>
       <use xlink:href="#m85f082bd06" x="398.487273" y="142.411034" style="stroke: #000000; stroke-width: 0.8"/>
      </g>
     </g>
    </g>
   </g>
   <g id="matplotlib.axis_4">
    <g id="ytick_4">
     <g id="line2d_22">
      <g>
       <use xlink:href="#m39d9b1daef" x="57.6" y="140.77713" style="stroke: #000000; stroke-width: 0.8"/>
      </g>
     </g>
     <g id="text_9">
      <!-- 0 -->
      <g transform="translate(44.2375 144.576349)scale(0.1 -0.1)">
       <use xlink:href="#DejaVuSans-30"/>
      </g>
     </g>
    </g>
    <g id="ytick_5">
     <g id="line2d_23">
      <g>
       <use xlink:href="#m39d9b1daef" x="57.6" y="98.772026" style="stroke: #000000; stroke-width: 0.8"/>
      </g>
     </g>
     <g id="text_10">
      <!-- 1 -->
      <g transform="translate(44.2375 102.571245)scale(0.1 -0.1)">
       <use xlink:href="#DejaVuSans-31"/>
      </g>
     </g>
    </g>
   </g>
   <g id="line2d_24">
    <path d="M 73.832727 140.325517 
L 77.079273 124.116729 
L 80.325818 114.120803 
L 83.572364 108.073992 
L 86.818909 104.410396 
L 90.065455 102.192441 
L 93.312 100.846369 
L 96.558545 100.027754 
L 99.805091 99.53278 
L 103.051636 99.233945 
L 106.298182 99.051479 
L 109.544727 98.941467 
L 112.791273 98.874974 
L 116.037818 98.82755 
L 119.284364 98.810107 
L 122.530909 98.792355 
L 125.777455 98.615719 
L 129.024 98.615448 
L 132.270545 98.615298 
L 135.517091 98.615214 
L 138.763636 98.615178 
L 142.010182 98.615172 
L 145.256727 98.615197 
L 148.503273 98.615224 
L 151.749818 98.615224 
L 154.996364 98.615256 
L 158.242909 98.615277 
L 161.489455 98.615272 
L 164.736 98.615243 
L 167.982545 98.615222 
L 171.229091 98.680247 
L 174.475636 113.505381 
L 177.722182 122.348381 
L 180.968727 127.599114 
L 184.215273 130.709174 
L 187.461818 132.57662 
L 190.708364 133.756981 
L 193.954909 134.542159 
L 197.201455 135.087329 
L 200.448 135.477115 
L 203.694545 135.761846 
L 206.941091 135.970365 
L 210.187636 136.125527 
L 213.434182 136.241154 
L 216.680727 136.327495 
L 219.927273 136.392414 
L 223.173818 136.440748 
L 226.420364 136.4761 
L 229.666909 136.502074 
L 232.913455 136.520469 
L 236.16 136.534551 
L 239.406545 136.544844 
L 242.653091 136.552723 
L 245.899636 136.558737 
L 249.146182 136.563024 
L 252.392727 136.566331 
L 255.639273 136.568742 
L 258.885818 136.570683 
L 262.132364 136.572053 
L 265.378909 136.573127 
L 268.625455 136.577131 
L 271.872 137.996381 
L 275.118545 138.835863 
L 278.365091 139.331304 
L 281.611636 139.623509 
L 284.858182 139.801364 
L 288.104727 139.915509 
L 291.351273 139.994078 
L 294.597818 140.051527 
L 297.844364 140.095173 
L 301.090909 140.129466 
L 304.337455 140.157033 
L 307.584 140.179203 
L 310.830545 140.197512 
L 314.077091 140.212759 
L 317.323636 140.225641 
L 320.570182 140.23666 
L 323.816727 140.246186 
L 327.063273 140.254511 
L 330.309818 140.261838 
L 333.556364 140.268357 
L 336.802909 140.274164 
L 340.049455 140.279391 
L 343.296 140.284117 
L 346.542545 140.288401 
L 349.789091 140.292305 
L 353.035636 140.295865 
L 356.282182 140.29915 
L 359.528727 140.302154 
L 362.775273 140.304931 
L 366.021818 140.307501 
L 369.268364 140.309882 
L 372.514909 140.312102 
L 375.761455 140.314163 
L 379.008 140.316092 
L 382.254545 140.317886 
L 385.501091 140.319564 
L 388.747636 140.321143 
L 391.994182 140.322635 
L 395.240727 140.324033 
L 398.487273 140.325347 
" clip-path="url(#p6c48b1ba95)" style="fill: none; stroke: #1f77b4; stroke-width: 1.5; stroke-linecap: square"/>
   </g>
   <g id="line2d_25">
    <path d="M 73.832727 139.984701 
L 77.079273 125.995857 
L 80.325818 114.880119 
L 83.572364 108.442054 
L 86.818909 104.602552 
L 90.065455 102.296734 
L 93.312 100.904764 
L 96.558545 100.060589 
L 99.805091 99.551028 
L 103.051636 99.244122 
L 106.298182 99.057136 
L 109.544727 98.944641 
L 112.791273 98.876702 
L 116.037818 98.828317 
L 119.284364 98.810615 
L 122.530909 98.794845 
L 125.777455 98.695876 
L 129.024 98.695685 
L 132.270545 98.695579 
L 135.517091 98.695518 
L 138.763636 98.695492 
L 142.010182 98.695487 
L 145.256727 98.695503 
L 148.503273 98.695521 
L 151.749818 98.69552 
L 154.996364 98.695542 
L 158.242909 98.695555 
L 161.489455 98.695551 
L 164.736 98.69553 
L 167.982545 98.695514 
L 171.229091 98.716772 
L 174.475636 113.543358 
L 177.722182 122.431377 
L 180.968727 127.73969 
L 184.215273 130.902708 
L 187.461818 132.802852 
L 190.708364 133.991157 
L 193.954909 134.765199 
L 197.201455 135.288383 
L 200.448 135.6511 
L 203.694545 135.908324 
L 206.941091 136.09069 
L 210.187636 136.222717 
L 213.434182 136.318402 
L 216.680727 136.388113 
L 219.927273 136.439331 
L 223.173818 136.476679 
L 226.420364 136.503436 
L 229.666909 136.522874 
L 232.913455 136.536326 
L 236.16 136.546647 
L 239.406545 136.554069 
L 242.653091 136.559735 
L 245.899636 136.56404 
L 249.146182 136.567067 
L 252.392727 136.56939 
L 255.639273 136.57109 
L 258.885818 136.572485 
L 262.132364 136.573438 
L 265.378909 136.574161 
L 268.625455 136.575438 
L 271.872 137.289542 
L 275.118545 137.729274 
L 278.365091 138.03967 
L 281.611636 138.277381 
L 284.858182 138.469299 
L 288.104727 138.629028 
L 291.351273 138.764757 
L 294.597818 138.881764 
L 297.844364 138.983801 
L 301.090909 139.073547 
L 304.337455 139.153152 
L 307.584 139.224218 
L 310.830545 139.288067 
L 314.077091 139.345768 
L 317.323636 139.398154 
L 320.570182 139.44595 
L 323.816727 139.48974 
L 327.063273 139.530024 
L 330.309818 139.567196 
L 333.556364 139.60163 
L 336.802909 139.633588 
L 340.049455 139.663361 
L 343.296 139.691168 
L 346.542545 139.717183 
L 349.789091 139.741585 
L 353.035636 139.764492 
L 356.282182 139.786094 
L 359.528727 139.80643 
L 362.775273 139.825664 
L 366.021818 139.843867 
L 369.268364 139.861112 
L 372.514909 139.877498 
L 375.761455 139.893055 
L 379.008 139.907877 
L 382.254545 139.921959 
L 385.501091 139.935378 
L 388.747636 139.948202 
L 391.994182 139.960485 
L 395.240727 139.972221 
L 398.487273 139.98346 
" clip-path="url(#p6c48b1ba95)" style="fill: none; stroke: #ff7f0e; stroke-width: 1.5; stroke-linecap: square"/>
   </g>
   <g id="line2d_26">
    <path d="M 73.832727 139.896871 
L 77.079273 126.638 
L 80.325818 115.125483 
L 83.572364 108.559753 
L 86.818909 104.66379 
L 90.065455 102.329925 
L 93.312 100.923336 
L 96.558545 100.071029 
L 99.805091 99.55683 
L 103.051636 99.247358 
L 106.298182 99.058934 
L 109.544727 98.94565 
L 112.791273 98.877251 
L 116.037818 98.828561 
L 119.284364 98.810776 
L 122.530909 98.793769 
L 125.777455 98.768017 
L 129.024 98.768005 
L 132.270545 98.767998 
L 135.517091 98.767994 
L 138.763636 98.767992 
L 142.010182 98.767992 
L 145.256727 98.767993 
L 148.503273 98.767994 
L 151.749818 98.767994 
L 154.996364 98.767995 
L 158.242909 98.767996 
L 161.489455 98.767996 
L 164.736 98.767995 
L 167.982545 98.767994 
L 171.229091 98.770623 
L 174.475636 113.639956 
L 177.722182 122.645335 
L 180.968727 128.10843 
L 184.215273 131.421031 
L 187.461818 133.422238 
L 190.708364 134.640304 
L 193.954909 135.383526 
L 197.201455 135.839842 
L 200.448 136.119178 
L 203.694545 136.293212 
L 206.941091 136.398603 
L 210.187636 136.465001 
L 213.434182 136.506214 
L 216.680727 136.532055 
L 219.927273 136.548294 
L 223.173818 136.55845 
L 226.420364 136.564627 
L 229.666909 136.568898 
L 232.913455 136.571229 
L 236.16 136.573136 
L 239.406545 136.574216 
L 242.653091 136.574972 
L 245.899636 136.57549 
L 249.146182 136.575759 
L 252.392727 136.575935 
L 255.639273 136.576099 
L 258.885818 136.576324 
L 262.132364 136.576376 
L 265.378909 136.576321 
L 268.625455 136.576353 
L 271.872 137.130025 
L 275.118545 137.499868 
L 278.365091 137.783051 
L 281.611636 138.01339 
L 284.858182 138.207121 
L 288.104727 138.373008 
L 291.351273 138.516851 
L 294.597818 138.642757 
L 297.844364 138.753878 
L 301.090909 138.852577 
L 304.337455 138.940845 
L 307.584 139.020211 
L 310.830545 139.09193 
L 314.077091 139.157079 
L 317.323636 139.216491 
L 320.570182 139.270906 
L 323.816727 139.320928 
L 327.063273 139.367083 
L 330.309818 139.409787 
L 333.556364 139.449442 
L 336.802909 139.486327 
L 340.049455 139.520758 
L 343.296 139.552974 
L 346.542545 139.583168 
L 349.789091 139.611535 
L 353.035636 139.638209 
L 356.282182 139.6634 
L 359.528727 139.68715 
L 362.775273 139.709642 
L 366.021818 139.730956 
L 369.268364 139.751174 
L 372.514909 139.770408 
L 375.761455 139.788694 
L 379.008 139.806135 
L 382.254545 139.822728 
L 385.501091 139.83856 
L 388.747636 139.853707 
L 391.994182 139.868231 
L 395.240727 139.882123 
L 398.487273 139.895442 
" clip-path="url(#p6c48b1ba95)" style="fill: none; stroke: #2ca02c; stroke-width: 1.5; stroke-linecap: square"/>
   </g>
   <g id="patch_9">
    <path d="M 57.6 142.411034 
L 57.6 96.529655 
" style="fill: none; stroke: #000000; stroke-width: 0.8; stroke-linejoin: miter; stroke-linecap: square"/>
   </g>
   <g id="patch_10">
    <path d="M 414.72 142.411034 
L 414.72 96.529655 
" style="fill: none; stroke: #000000; stroke-width: 0.8; stroke-linejoin: miter; stroke-linecap: square"/>
   </g>
   <g id="patch_11">
    <path d="M 57.6 142.411034 
L 414.72 142.411034 
" style="fill: none; stroke: #000000; stroke-width: 0.8; stroke-linejoin: miter; stroke-linecap: square"/>
   </g>
   <g id="patch_12">
    <path d="M 57.6 96.529655 
L 414.72 96.529655 
" style="fill: none; stroke: #000000; stroke-width: 0.8; stroke-linejoin: miter; stroke-linecap: square"/>
   </g>
   <g id="text_11">
    <!-- Pressure -->
    <g transform="translate(210.546562 90.529655)scale(0.12 -0.12)">
     <defs>
      <path id="DejaVuSans-50" d="M 1259 4147 
L 1259 2394 
L 2053 2394 
Q 2494 2394 2734 2622 
Q 2975 2850 2975 3272 
Q 2975 3691 2734 3919 
Q 2494 4147 2053 4147 
L 1259 4147 
z
M 628 4666 
L 2053 4666 
Q 2838 4666 3239 4311 
Q 3641 3956 3641 3272 
Q 3641 2581 3239 2228 
Q 2838 1875 2053 1875 
L 1259 1875 
L 1259 0 
L 628 0 
L 628 4666 
z
" transform="scale(0.015625)"/>
      <path id="DejaVuSans-75" d="M 544 1381 
L 544 3500 
L 1119 3500 
L 1119 1403 
Q 1119 906 1312 657 
Q 1506 409 1894 409 
Q 2359 409 2629 706 
Q 2900 1003 2900 1516 
L 2900 3500 
L 3475 3500 
L 3475 0 
L 2900 0 
L 2900 538 
Q 2691 219 2414 64 
Q 2138 -91 1772 -91 
Q 1169 -91 856 284 
Q 544 659 544 1381 
z
M 1991 3584 
L 1991 3584 
z
" transform="scale(0.015625)"/>
     </defs>
     <use xlink:href="#DejaVuSans-50"/>
     <use xlink:href="#DejaVuSans-72" x="58.552734"/>
     <use xlink:href="#DejaVuSans-65" x="97.416016"/>
     <use xlink:href="#DejaVuSans-73" x="158.939453"/>
     <use xlink:href="#DejaVuSans-73" x="211.039062"/>
     <use xlink:href="#DejaVuSans-75" x="263.138672"/>
     <use xlink:href="#DejaVuSans-72" x="326.517578"/>
     <use xlink:href="#DejaVuSans-65" x="365.380859"/>
    </g>
   </g>
   <g id="legend_2">
    <g id="patch_13">
     <path d="M 350.823125 137.411034 
L 407.72 137.411034 
Q 409.72 137.411034 409.72 135.411034 
L 409.72 92.376659 
Q 409.72 90.376659 407.72 90.376659 
L 350.823125 90.376659 
Q 348.823125 90.376659 348.823125 92.376659 
L 348.823125 135.411034 
Q 348.823125 137.411034 350.823125 137.411034 
z
" style="fill: #ffffff; opacity: 0.8; stroke: #cccccc; stroke-linejoin: miter"/>
    </g>
    <g id="line2d_27">
     <path d="M 352.823125 98.475097 
L 362.823125 98.475097 
L 372.823125 98.475097 
" style="fill: none; stroke: #1f77b4; stroke-width: 1.5; stroke-linecap: square"/>
    </g>
    <g id="text_12">
     <!-- P1 -->
     <g transform="translate(380.823125 101.975097)scale(0.1 -0.1)">
      <use xlink:href="#DejaVuSans-50"/>
      <use xlink:href="#DejaVuSans-31" x="60.302734"/>
     </g>
    </g>
    <g id="line2d_28">
     <path d="M 352.823125 113.153222 
L 362.823125 113.153222 
L 372.823125 113.153222 
" style="fill: none; stroke: #ff7f0e; stroke-width: 1.5; stroke-linecap: square"/>
    </g>
    <g id="text_13">
     <!-- Pmid -->
     <g transform="translate(380.823125 116.653222)scale(0.1 -0.1)">
      <use xlink:href="#DejaVuSans-50"/>
      <use xlink:href="#DejaVuSans-6d" x="60.302734"/>
      <use xlink:href="#DejaVuSans-69" x="157.714844"/>
      <use xlink:href="#DejaVuSans-64" x="185.498047"/>
     </g>
    </g>
    <g id="line2d_29">
     <path d="M 352.823125 127.831347 
L 362.823125 127.831347 
L 372.823125 127.831347 
" style="fill: none; stroke: #2ca02c; stroke-width: 1.5; stroke-linecap: square"/>
    </g>
    <g id="text_14">
     <!-- PN -->
     <g transform="translate(380.823125 131.331347)scale(0.1 -0.1)">
      <use xlink:href="#DejaVuSans-50"/>
      <use xlink:href="#DejaVuSans-4e" x="60.302734"/>
     </g>
    </g>
   </g>
  </g>
  <g id="axes_3">
   <g id="patch_14">
    <path d="M 57.6 197.46869 
L 414.72 197.46869 
L 414.72 151.58731 
L 57.6 151.58731 
z
" style="fill: #ffffff"/>
   </g>
   <g id="matplotlib.axis_5">
    <g id="xtick_13">
     <g id="line2d_30">
      <g>
       <use xlink:href="#m85f082bd06" x="73.832727" y="197.46869" style="stroke: #000000; stroke-width: 0.8"/>
      </g>
     </g>
    </g>
    <g id="xtick_14">
     <g id="line2d_31">
      <g>
       <use xlink:href="#m85f082bd06" x="138.763636" y="197.46869" style="stroke: #000000; stroke-width: 0.8"/>
      </g>
     </g>
    </g>
    <g id="xtick_15">
     <g id="line2d_32">
      <g>
       <use xlink:href="#m85f082bd06" x="203.694545" y="197.46869" style="stroke: #000000; stroke-width: 0.8"/>
      </g>
     </g>
    </g>
    <g id="xtick_16">
     <g id="line2d_33">
      <g>
       <use xlink:href="#m85f082bd06" x="268.625455" y="197.46869" style="stroke: #000000; stroke-width: 0.8"/>
      </g>
     </g>
    </g>
    <g id="xtick_17">
     <g id="line2d_34">
      <g>
       <use xlink:href="#m85f082bd06" x="333.556364" y="197.46869" style="stroke: #000000; stroke-width: 0.8"/>
      </g>
     </g>
    </g>
    <g id="xtick_18">
     <g id="line2d_35">
      <g>
       <use xlink:href="#m85f082bd06" x="398.487273" y="197.46869" style="stroke: #000000; stroke-width: 0.8"/>
      </g>
     </g>
    </g>
   </g>
   <g id="matplotlib.axis_6">
    <g id="ytick_6">
     <g id="line2d_36">
      <g>
       <use xlink:href="#m39d9b1daef" x="57.6" y="182.248862" style="stroke: #000000; stroke-width: 0.8"/>
      </g>
     </g>
     <g id="text_15">
      <!-- 0.05 -->
      <g transform="translate(28.334375 186.048081)scale(0.1 -0.1)">
       <defs>
        <path id="DejaVuSans-2e" d="M 684 794 
L 1344 794 
L 1344 0 
L 684 0 
L 684 794 
z
" transform="scale(0.015625)"/>
       </defs>
       <use xlink:href="#DejaVuSans-30"/>
       <use xlink:href="#DejaVuSans-2e" x="63.623047"/>
       <use xlink:href="#DejaVuSans-30" x="95.410156"/>
       <use xlink:href="#DejaVuSans-35" x="159.033203"/>
      </g>
     </g>
    </g>
    <g id="ytick_7">
     <g id="line2d_37">
      <g>
       <use xlink:href="#m39d9b1daef" x="57.6" y="164.902842" style="stroke: #000000; stroke-width: 0.8"/>
      </g>
     </g>
     <g id="text_16">
      <!-- 0.10 -->
      <g transform="translate(28.334375 168.702061)scale(0.1 -0.1)">
       <use xlink:href="#DejaVuSans-30"/>
       <use xlink:href="#DejaVuSans-2e" x="63.623047"/>
       <use xlink:href="#DejaVuSans-31" x="95.410156"/>
       <use xlink:href="#DejaVuSans-30" x="159.033203"/>
      </g>
     </g>
    </g>
    <g id="text_17">
     <!-- fraction -->
     <g transform="translate(22.254687 193.73425)rotate(-90)scale(0.1 -0.1)">
      <use xlink:href="#DejaVuSans-66"/>
      <use xlink:href="#DejaVuSans-72" x="35.205078"/>
      <use xlink:href="#DejaVuSans-61" x="76.318359"/>
      <use xlink:href="#DejaVuSans-63" x="137.597656"/>
      <use xlink:href="#DejaVuSans-74" x="192.578125"/>
      <use xlink:href="#DejaVuSans-69" x="231.787109"/>
      <use xlink:href="#DejaVuSans-6f" x="259.570312"/>
      <use xlink:href="#DejaVuSans-6e" x="320.751953"/>
     </g>
    </g>
   </g>
   <g id="line2d_38">
    <path d="M 73.832727 153.784952 
L 77.079273 184.151707 
L 80.325818 184.17127 
L 83.572364 184.190564 
L 86.818909 184.204423 
L 90.065455 184.231251 
L 93.312 184.221481 
L 96.558545 184.227874 
L 99.805091 184.242701 
L 103.051636 184.243155 
L 106.298182 184.26274 
L 109.544727 184.265769 
L 112.791273 184.257771 
L 116.037818 184.260381 
L 119.284364 184.262592 
L 122.530909 184.265339 
L 125.777455 183.759463 
L 129.024 183.606037 
L 132.270545 183.46761 
L 135.517091 183.342739 
L 138.763636 183.230543 
L 142.010182 183.12986 
L 145.256727 183.039799 
L 148.503273 182.959336 
L 151.749818 182.88706 
L 154.996364 182.823081 
L 158.242909 182.765722 
L 161.489455 182.713821 
L 164.736 182.666526 
L 167.982545 182.623792 
L 171.229091 182.590424 
L 174.475636 181.976215 
L 177.722182 181.063596 
L 180.968727 179.965609 
L 184.215273 178.800723 
L 187.461818 177.705185 
L 190.708364 176.722569 
L 193.954909 175.875416 
L 197.201455 175.154292 
L 200.448 174.552074 
L 203.694545 174.058398 
L 206.941091 173.658052 
L 210.187636 173.330879 
L 213.434182 173.080989 
L 216.680727 172.884521 
L 219.927273 172.730836 
L 223.173818 172.614334 
L 226.420364 172.527331 
L 229.666909 172.462327 
L 232.913455 172.415688 
L 236.16 172.380168 
L 239.406545 172.353971 
L 242.653091 172.334017 
L 245.899636 172.318934 
L 249.146182 172.308079 
L 252.392727 172.299614 
L 255.639273 172.293797 
L 258.885818 172.289523 
L 262.132364 172.286081 
L 265.378909 172.282914 
L 268.625455 172.277412 
L 271.872 168.208042 
L 275.118545 164.280456 
L 278.365091 160.947112 
L 281.611636 158.471044 
L 284.858182 156.799302 
L 288.104727 155.7343 
L 291.351273 155.066747 
L 294.597818 154.645539 
L 297.844364 154.396687 
L 301.090909 154.23942 
L 304.337455 154.137776 
L 307.584 154.111034 
L 310.830545 154.102235 
L 314.077091 154.114609 
L 317.323636 154.136218 
L 320.570182 154.158916 
L 323.816727 154.180342 
L 327.063273 154.198171 
L 330.309818 154.211124 
L 333.556364 154.21802 
L 336.802909 154.219343 
L 340.049455 154.215199 
L 343.296 154.206723 
L 346.542545 154.193498 
L 349.789091 154.175932 
L 353.035636 154.154577 
L 356.282182 154.129634 
L 359.528727 154.102199 
L 362.775273 154.072604 
L 366.021818 154.041219 
L 369.268364 154.008407 
L 372.514909 153.974511 
L 375.761455 153.939151 
L 379.008 153.902726 
L 382.254545 153.865389 
L 385.501091 153.827305 
L 388.747636 153.788636 
L 391.994182 153.749595 
L 395.240727 153.710912 
L 398.487273 153.672828 
" clip-path="url(#p9b22419290)" style="fill: none; stroke: #1f77b4; stroke-width: 1.5; stroke-linecap: square"/>
   </g>
   <g id="line2d_39">
    <path d="M 73.832727 180.668577 
L 77.079273 194.684792 
L 80.325818 195.167702 
L 83.572364 195.283604 
L 86.818909 195.331113 
L 90.065455 195.354518 
L 93.312 195.36716 
L 96.558545 195.374282 
L 99.805091 195.378339 
L 103.051636 195.380639 
L 106.298182 195.381953 
L 109.544727 195.38265 
L 112.791273 195.382988 
L 116.037818 195.383172 
L 119.284364 195.383114 
L 122.530909 195.383066 
L 125.777455 195.329767 
L 129.024 195.308763 
L 132.270545 195.287659 
L 135.517091 195.266456 
L 138.763636 195.24515 
L 142.010182 195.223739 
L 145.256727 195.202218 
L 148.503273 195.180587 
L 151.749818 195.15884 
L 154.996364 195.136973 
L 158.242909 195.114983 
L 161.489455 195.092865 
L 164.736 195.070617 
L 167.982545 195.048233 
L 171.229091 195.026486 
L 174.475636 194.808354 
L 177.722182 194.477457 
L 180.968727 194.05465 
L 184.215273 193.569999 
L 187.461818 193.078971 
L 190.708364 192.628325 
L 193.954909 192.254992 
L 197.201455 191.964819 
L 200.448 191.753776 
L 203.694545 191.605192 
L 206.941091 191.504233 
L 210.187636 191.432665 
L 213.434182 191.386821 
L 216.680727 191.355665 
L 219.927273 191.334635 
L 223.173818 191.320559 
L 226.420364 191.311258 
L 229.666909 191.304549 
L 232.913455 191.300359 
L 236.16 191.297017 
L 239.406545 191.294854 
L 242.653091 191.293268 
L 245.899636 191.292093 
L 249.146182 191.291327 
L 252.392727 191.290739 
L 255.639273 191.290271 
L 258.885818 191.289805 
L 262.132364 191.289533 
L 265.378909 191.28937 
L 268.625455 191.289235 
L 271.872 190.772602 
L 275.118545 190.338894 
L 278.365091 189.940589 
L 281.611636 189.561021 
L 284.858182 189.192864 
L 288.104727 188.833788 
L 291.351273 188.482774 
L 294.597818 188.139413 
L 297.844364 187.803687 
L 301.090909 187.475014 
L 304.337455 187.150909 
L 307.584 186.838665 
L 310.830545 186.530294 
L 314.077091 186.228538 
L 317.323636 185.933312 
L 320.570182 185.643847 
L 323.816727 185.360143 
L 327.063273 185.081943 
L 330.309818 184.809179 
L 333.556364 184.541797 
L 336.802909 184.279038 
L 340.049455 184.020882 
L 343.296 183.767569 
L 346.542545 183.518545 
L 349.789091 183.273817 
L 353.035636 183.033631 
L 356.282182 182.79776 
L 359.528727 182.565372 
L 362.775273 182.33638 
L 366.021818 182.111 
L 369.268364 181.889455 
L 372.514909 181.671507 
L 375.761455 181.456753 
L 379.008 181.245163 
L 382.254545 181.0372 
L 385.501091 180.832696 
L 388.747636 180.631551 
L 391.994182 180.433655 
L 395.240727 180.238105 
L 398.487273 180.04475 
" clip-path="url(#p9b22419290)" style="fill: none; stroke: #ff7f0e; stroke-width: 1.5; stroke-linecap: square"/>
   </g>
   <g id="patch_15">
    <path d="M 57.6 197.46869 
L 57.6 151.58731 
" style="fill: none; stroke: #000000; stroke-width: 0.8; stroke-linejoin: miter; stroke-linecap: square"/>
   </g>
   <g id="patch_16">
    <path d="M 414.72 197.46869 
L 414.72 151.58731 
" style="fill: none; stroke: #000000; stroke-width: 0.8; stroke-linejoin: miter; stroke-linecap: square"/>
   </g>
   <g id="patch_17">
    <path d="M 57.6 197.46869 
L 414.72 197.46869 
" style="fill: none; stroke: #000000; stroke-width: 0.8; stroke-linejoin: miter; stroke-linecap: square"/>
   </g>
   <g id="patch_18">
    <path d="M 57.6 151.58731 
L 414.72 151.58731 
" style="fill: none; stroke: #000000; stroke-width: 0.8; stroke-linejoin: miter; stroke-linecap: square"/>
   </g>
   <g id="text_18">
    <!-- yA -->
    <g transform="translate(228.504375 145.58731)scale(0.12 -0.12)">
     <defs>
      <path id="DejaVuSans-41" d="M 2188 4044 
L 1331 1722 
L 3047 1722 
L 2188 4044 
z
M 1831 4666 
L 2547 4666 
L 4325 0 
L 3669 0 
L 3244 1197 
L 1141 1197 
L 716 0 
L 50 0 
L 1831 4666 
z
" transform="scale(0.015625)"/>
     </defs>
     <use xlink:href="#DejaVuSans-79"/>
     <use xlink:href="#DejaVuSans-41" x="59.179688"/>
    </g>
   </g>
   <g id="legend_3">
    <g id="patch_19">
     <path d="M 330.030938 188.94356 
L 407.72 188.94356 
Q 409.72 188.94356 409.72 186.94356 
L 409.72 158.58731 
Q 409.72 156.58731 407.72 156.58731 
L 330.030938 156.58731 
Q 328.030938 156.58731 328.030938 158.58731 
L 328.030938 186.94356 
Q 328.030938 188.94356 330.030938 188.94356 
z
" style="fill: #ffffff; opacity: 0.8; stroke: #cccccc; stroke-linejoin: miter"/>
    </g>
    <g id="line2d_40">
     <path d="M 332.030938 164.685748 
L 342.030938 164.685748 
L 352.030938 164.685748 
" style="fill: none; stroke: #1f77b4; stroke-width: 1.5; stroke-linecap: square"/>
    </g>
    <g id="text_19">
     <!-- yA0 (in) -->
     <g transform="translate(360.030938 168.185748)scale(0.1 -0.1)">
      <use xlink:href="#DejaVuSans-79"/>
      <use xlink:href="#DejaVuSans-41" x="59.179688"/>
      <use xlink:href="#DejaVuSans-30" x="127.587891"/>
      <use xlink:href="#DejaVuSans-20" x="191.210938"/>
      <use xlink:href="#DejaVuSans-28" x="222.998047"/>
      <use xlink:href="#DejaVuSans-69" x="262.011719"/>
      <use xlink:href="#DejaVuSans-6e" x="289.794922"/>
      <use xlink:href="#DejaVuSans-29" x="353.173828"/>
     </g>
    </g>
    <g id="line2d_41">
     <path d="M 332.030938 179.363873 
L 342.030938 179.363873 
L 352.030938 179.363873 
" style="fill: none; stroke: #ff7f0e; stroke-width: 1.5; stroke-linecap: square"/>
    </g>
    <g id="text_20">
     <!-- yAL (out) -->
     <g transform="translate(360.030938 182.863873)scale(0.1 -0.1)">
      <defs>
       <path id="DejaVuSans-4c" d="M 628 4666 
L 1259 4666 
L 1259 531 
L 3531 531 
L 3531 0 
L 628 0 
L 628 4666 
z
" transform="scale(0.015625)"/>
      </defs>
      <use xlink:href="#DejaVuSans-79"/>
      <use xlink:href="#DejaVuSans-41" x="59.179688"/>
      <use xlink:href="#DejaVuSans-4c" x="127.587891"/>
      <use xlink:href="#DejaVuSans-20" x="183.300781"/>
      <use xlink:href="#DejaVuSans-28" x="215.087891"/>
      <use xlink:href="#DejaVuSans-6f" x="254.101562"/>
      <use xlink:href="#DejaVuSans-75" x="315.283203"/>
      <use xlink:href="#DejaVuSans-74" x="378.662109"/>
      <use xlink:href="#DejaVuSans-29" x="417.871094"/>
     </g>
    </g>
   </g>
  </g>
  <g id="axes_4">
   <g id="patch_20">
    <path d="M 57.6 252.526345 
L 414.72 252.526345 
L 414.72 206.644966 
L 57.6 206.644966 
z
" style="fill: #ffffff"/>
   </g>
   <g id="matplotlib.axis_7">
    <g id="xtick_19">
     <g id="line2d_42">
      <g>
       <use xlink:href="#m85f082bd06" x="73.832727" y="252.526345" style="stroke: #000000; stroke-width: 0.8"/>
      </g>
     </g>
    </g>
    <g id="xtick_20">
     <g id="line2d_43">
      <g>
       <use xlink:href="#m85f082bd06" x="138.763636" y="252.526345" style="stroke: #000000; stroke-width: 0.8"/>
      </g>
     </g>
    </g>
    <g id="xtick_21">
     <g id="line2d_44">
      <g>
       <use xlink:href="#m85f082bd06" x="203.694545" y="252.526345" style="stroke: #000000; stroke-width: 0.8"/>
      </g>
     </g>
    </g>
    <g id="xtick_22">
     <g id="line2d_45">
      <g>
       <use xlink:href="#m85f082bd06" x="268.625455" y="252.526345" style="stroke: #000000; stroke-width: 0.8"/>
      </g>
     </g>
    </g>
    <g id="xtick_23">
     <g id="line2d_46">
      <g>
       <use xlink:href="#m85f082bd06" x="333.556364" y="252.526345" style="stroke: #000000; stroke-width: 0.8"/>
      </g>
     </g>
    </g>
    <g id="xtick_24">
     <g id="line2d_47">
      <g>
       <use xlink:href="#m85f082bd06" x="398.487273" y="252.526345" style="stroke: #000000; stroke-width: 0.8"/>
      </g>
     </g>
    </g>
   </g>
   <g id="matplotlib.axis_8">
    <g id="ytick_8">
     <g id="line2d_48">
      <g>
       <use xlink:href="#m39d9b1daef" x="57.6" y="252.35601" style="stroke: #000000; stroke-width: 0.8"/>
      </g>
     </g>
     <g id="text_21">
      <!-- 0.8 -->
      <g transform="translate(34.696875 256.155229)scale(0.1 -0.1)">
       <defs>
        <path id="DejaVuSans-38" d="M 2034 2216 
Q 1584 2216 1326 1975 
Q 1069 1734 1069 1313 
Q 1069 891 1326 650 
Q 1584 409 2034 409 
Q 2484 409 2743 651 
Q 3003 894 3003 1313 
Q 3003 1734 2745 1975 
Q 2488 2216 2034 2216 
z
M 1403 2484 
Q 997 2584 770 2862 
Q 544 3141 544 3541 
Q 544 4100 942 4425 
Q 1341 4750 2034 4750 
Q 2731 4750 3128 4425 
Q 3525 4100 3525 3541 
Q 3525 3141 3298 2862 
Q 3072 2584 2669 2484 
Q 3125 2378 3379 2068 
Q 3634 1759 3634 1313 
Q 3634 634 3220 271 
Q 2806 -91 2034 -91 
Q 1263 -91 848 271 
Q 434 634 434 1313 
Q 434 1759 690 2068 
Q 947 2378 1403 2484 
z
M 1172 3481 
Q 1172 3119 1398 2916 
Q 1625 2713 2034 2713 
Q 2441 2713 2670 2916 
Q 2900 3119 2900 3481 
Q 2900 3844 2670 4047 
Q 2441 4250 2034 4250 
Q 1625 4250 1398 4047 
Q 1172 3844 1172 3481 
z
" transform="scale(0.015625)"/>
       </defs>
       <use xlink:href="#DejaVuSans-30"/>
       <use xlink:href="#DejaVuSans-2e" x="63.623047"/>
       <use xlink:href="#DejaVuSans-38" x="95.410156"/>
      </g>
     </g>
    </g>
    <g id="ytick_9">
     <g id="line2d_49">
      <g>
       <use xlink:href="#m39d9b1daef" x="57.6" y="223.003096" style="stroke: #000000; stroke-width: 0.8"/>
      </g>
     </g>
     <g id="text_22">
      <!-- 0.9 -->
      <g transform="translate(34.696875 226.802315)scale(0.1 -0.1)">
       <defs>
        <path id="DejaVuSans-39" d="M 703 97 
L 703 672 
Q 941 559 1184 500 
Q 1428 441 1663 441 
Q 2288 441 2617 861 
Q 2947 1281 2994 2138 
Q 2813 1869 2534 1725 
Q 2256 1581 1919 1581 
Q 1219 1581 811 2004 
Q 403 2428 403 3163 
Q 403 3881 828 4315 
Q 1253 4750 1959 4750 
Q 2769 4750 3195 4129 
Q 3622 3509 3622 2328 
Q 3622 1225 3098 567 
Q 2575 -91 1691 -91 
Q 1453 -91 1209 -44 
Q 966 3 703 97 
z
M 1959 2075 
Q 2384 2075 2632 2365 
Q 2881 2656 2881 3163 
Q 2881 3666 2632 3958 
Q 2384 4250 1959 4250 
Q 1534 4250 1286 3958 
Q 1038 3666 1038 3163 
Q 1038 2656 1286 2365 
Q 1534 2075 1959 2075 
z
" transform="scale(0.015625)"/>
       </defs>
       <use xlink:href="#DejaVuSans-30"/>
       <use xlink:href="#DejaVuSans-2e" x="63.623047"/>
       <use xlink:href="#DejaVuSans-39" x="95.410156"/>
      </g>
     </g>
    </g>
    <g id="text_23">
     <!-- fraction -->
     <g transform="translate(28.617187 248.791905)rotate(-90)scale(0.1 -0.1)">
      <use xlink:href="#DejaVuSans-66"/>
      <use xlink:href="#DejaVuSans-72" x="35.205078"/>
      <use xlink:href="#DejaVuSans-61" x="76.318359"/>
      <use xlink:href="#DejaVuSans-63" x="137.597656"/>
      <use xlink:href="#DejaVuSans-74" x="192.578125"/>
      <use xlink:href="#DejaVuSans-69" x="231.787109"/>
      <use xlink:href="#DejaVuSans-6f" x="259.570312"/>
      <use xlink:href="#DejaVuSans-6e" x="320.751953"/>
     </g>
    </g>
   </g>
   <g id="line2d_50">
    <path d="M 73.832727 250.348549 
L 77.079273 221.350847 
L 80.325818 221.337031 
L 83.572364 221.320866 
L 86.818909 221.308584 
L 90.065455 221.283492 
L 93.312 221.29271 
L 96.558545 221.290244 
L 99.805091 221.279114 
L 103.051636 221.277445 
L 106.298182 221.261877 
L 109.544727 221.259064 
L 112.791273 221.264321 
L 116.037818 221.262069 
L 119.284364 221.260203 
L 122.530909 221.256752 
L 125.777455 221.741825 
L 129.024 221.87961 
L 132.270545 222.001789 
L 135.517091 222.110396 
L 138.763636 222.206539 
L 142.010182 222.291637 
L 145.256727 222.366629 
L 148.503273 222.432882 
L 151.749818 222.492166 
L 154.996364 222.5437 
L 158.242909 222.589704 
L 161.489455 222.631529 
L 164.736 222.670007 
L 167.982545 222.704741 
L 171.229091 222.73182 
L 174.475636 223.365114 
L 177.722182 224.281333 
L 180.968727 225.370492 
L 184.215273 226.513136 
L 187.461818 227.578232 
L 190.708364 228.526976 
L 193.954909 229.34124 
L 197.201455 230.031892 
L 200.448 230.607395 
L 203.694545 231.078277 
L 206.941091 231.459732 
L 210.187636 231.770858 
L 213.434182 232.008762 
L 216.680727 232.195759 
L 219.927273 232.341694 
L 223.173818 232.452497 
L 226.420364 232.535255 
L 229.666909 232.596985 
L 232.913455 232.641322 
L 236.16 232.675057 
L 239.406545 232.699964 
L 242.653091 232.71895 
L 245.899636 232.733316 
L 249.146182 232.743668 
L 252.392727 232.751754 
L 255.639273 232.757322 
L 258.885818 232.761421 
L 262.132364 232.764732 
L 265.378909 232.76778 
L 268.625455 232.772938 
L 271.872 236.598639 
L 275.118545 240.129288 
L 278.365091 243.059354 
L 281.611636 245.213469 
L 284.858182 246.671328 
L 288.104727 247.608291 
L 291.351273 248.208695 
L 294.597818 248.601921 
L 297.844364 248.850708 
L 301.090909 249.023249 
L 304.337455 249.14984 
L 307.584 249.212897 
L 310.830545 249.261117 
L 314.077091 249.291097 
L 317.323636 249.312664 
L 320.570182 249.332819 
L 323.816727 249.353373 
L 327.063273 249.376123 
L 330.309818 249.402063 
L 333.556364 249.432155 
L 336.802909 249.466128 
L 340.049455 249.503843 
L 343.296 249.544249 
L 346.542545 249.587766 
L 349.789091 249.634053 
L 353.035636 249.68266 
L 356.282182 249.733431 
L 359.528727 249.785534 
L 362.775273 249.838705 
L 366.021818 249.892626 
L 369.268364 249.946979 
L 372.514909 250.001513 
L 375.761455 250.05662 
L 379.008 250.111981 
L 382.254545 250.167444 
L 385.501091 250.222904 
L 388.747636 250.278255 
L 391.994182 250.33334 
L 395.240727 250.387589 
L 398.487273 250.440828 
" clip-path="url(#p06ac7b6330)" style="fill: none; stroke: #1f77b4; stroke-width: 1.5; stroke-linecap: square"/>
   </g>
   <g id="line2d_51">
    <path d="M 73.832727 228.418416 
L 77.079273 209.832406 
L 80.325818 209.044924 
L 83.572364 208.867928 
L 86.818909 208.798416 
L 90.065455 208.765264 
L 93.312 208.74794 
L 96.558545 208.738649 
L 99.805091 208.733786 
L 103.051636 208.731454 
L 106.298182 208.730529 
L 109.544727 208.730483 
L 112.791273 208.730948 
L 116.037818 208.73163 
L 119.284364 208.732651 
L 122.530909 208.733631 
L 125.777455 209.043912 
L 129.024 209.161222 
L 132.270545 209.276683 
L 135.517091 209.3905 
L 138.763636 209.502733 
L 142.010182 209.613485 
L 145.256727 209.722838 
L 148.503273 209.830883 
L 151.749818 209.937742 
L 154.996364 210.043376 
L 158.242909 210.147939 
L 161.489455 210.251527 
L 164.736 210.354275 
L 167.982545 210.456185 
L 171.229091 210.55574 
L 174.475636 210.932586 
L 177.722182 211.544721 
L 180.968727 212.271129 
L 184.215273 213.046247 
L 187.461818 213.787634 
L 190.708364 214.442377 
L 193.954909 214.975066 
L 197.201455 215.387504 
L 200.448 215.690477 
L 203.694545 215.906652 
L 206.941091 216.057046 
L 210.187636 216.164873 
L 213.434182 216.236312 
L 216.680727 216.286054 
L 219.927273 216.320202 
L 223.173818 216.343749 
L 226.420364 216.359726 
L 229.666909 216.371254 
L 232.913455 216.378753 
L 236.16 216.384658 
L 239.406545 216.38863 
L 242.653091 216.391586 
L 245.899636 216.393799 
L 249.146182 216.395308 
L 252.392727 216.396492 
L 255.639273 216.397406 
L 258.885818 216.398252 
L 262.132364 216.398824 
L 265.378909 216.399255 
L 268.625455 216.39955 
L 271.872 217.044381 
L 275.118545 217.574296 
L 278.365091 218.053752 
L 281.611636 218.50548 
L 284.858182 218.939478 
L 288.104727 219.35921 
L 291.351273 219.766373 
L 294.597818 220.161833 
L 297.844364 220.54597 
L 301.090909 220.919691 
L 304.337455 221.285759 
L 307.584 221.637039 
L 310.830545 221.981862 
L 314.077091 222.317601 
L 317.323636 222.644557 
L 320.570182 222.963681 
L 323.816727 223.275123 
L 327.063273 223.579279 
L 330.309818 223.87632 
L 333.556364 224.166403 
L 336.802909 224.450453 
L 340.049455 224.728581 
L 343.296 225.000604 
L 346.542545 225.267165 
L 349.789091 225.52832 
L 353.035636 225.783861 
L 356.282182 226.034094 
L 359.528727 226.279956 
L 362.775273 226.5216 
L 366.021818 226.758837 
L 369.268364 226.991471 
L 372.514909 227.2198 
L 375.761455 227.444248 
L 379.008 227.664892 
L 382.254545 227.881267 
L 385.501091 228.093583 
L 388.747636 228.301976 
L 391.994182 228.506595 
L 395.240727 228.708439 
L 398.487273 228.9077 
" clip-path="url(#p06ac7b6330)" style="fill: none; stroke: #ff7f0e; stroke-width: 1.5; stroke-linecap: square"/>
   </g>
   <g id="patch_21">
    <path d="M 57.6 252.526345 
L 57.6 206.644966 
" style="fill: none; stroke: #000000; stroke-width: 0.8; stroke-linejoin: miter; stroke-linecap: square"/>
   </g>
   <g id="patch_22">
    <path d="M 414.72 252.526345 
L 414.72 206.644966 
" style="fill: none; stroke: #000000; stroke-width: 0.8; stroke-linejoin: miter; stroke-linecap: square"/>
   </g>
   <g id="patch_23">
    <path d="M 57.6 252.526345 
L 414.72 252.526345 
" style="fill: none; stroke: #000000; stroke-width: 0.8; stroke-linejoin: miter; stroke-linecap: square"/>
   </g>
   <g id="patch_24">
    <path d="M 57.6 206.644966 
L 414.72 206.644966 
" style="fill: none; stroke: #000000; stroke-width: 0.8; stroke-linejoin: miter; stroke-linecap: square"/>
   </g>
   <g id="text_24">
    <!-- yB -->
    <g transform="translate(228.492188 200.644966)scale(0.12 -0.12)">
     <defs>
      <path id="DejaVuSans-42" d="M 1259 2228 
L 1259 519 
L 2272 519 
Q 2781 519 3026 730 
Q 3272 941 3272 1375 
Q 3272 1813 3026 2020 
Q 2781 2228 2272 2228 
L 1259 2228 
z
M 1259 4147 
L 1259 2741 
L 2194 2741 
Q 2656 2741 2882 2914 
Q 3109 3088 3109 3444 
Q 3109 3797 2882 3972 
Q 2656 4147 2194 4147 
L 1259 4147 
z
M 628 4666 
L 2241 4666 
Q 2963 4666 3353 4366 
Q 3744 4066 3744 3513 
Q 3744 3084 3544 2831 
Q 3344 2578 2956 2516 
Q 3422 2416 3680 2098 
Q 3938 1781 3938 1306 
Q 3938 681 3513 340 
Q 3088 0 2303 0 
L 628 0 
L 628 4666 
z
" transform="scale(0.015625)"/>
     </defs>
     <use xlink:href="#DejaVuSans-79"/>
     <use xlink:href="#DejaVuSans-42" x="59.179688"/>
    </g>
   </g>
   <g id="legend_4">
    <g id="patch_25">
     <path d="M 330.010625 244.001216 
L 407.72 244.001216 
Q 409.72 244.001216 409.72 242.001216 
L 409.72 213.644966 
Q 409.72 211.644966 407.72 211.644966 
L 330.010625 211.644966 
Q 328.010625 211.644966 328.010625 213.644966 
L 328.010625 242.001216 
Q 328.010625 244.001216 330.010625 244.001216 
z
" style="fill: #ffffff; opacity: 0.8; stroke: #cccccc; stroke-linejoin: miter"/>
    </g>
    <g id="line2d_52">
     <path d="M 332.010625 219.743403 
L 342.010625 219.743403 
L 352.010625 219.743403 
" style="fill: none; stroke: #1f77b4; stroke-width: 1.5; stroke-linecap: square"/>
    </g>
    <g id="text_25">
     <!-- yB0 (in) -->
     <g transform="translate(360.010625 223.243403)scale(0.1 -0.1)">
      <use xlink:href="#DejaVuSans-79"/>
      <use xlink:href="#DejaVuSans-42" x="59.179688"/>
      <use xlink:href="#DejaVuSans-30" x="127.783203"/>
      <use xlink:href="#DejaVuSans-20" x="191.40625"/>
      <use xlink:href="#DejaVuSans-28" x="223.193359"/>
      <use xlink:href="#DejaVuSans-69" x="262.207031"/>
      <use xlink:href="#DejaVuSans-6e" x="289.990234"/>
      <use xlink:href="#DejaVuSans-29" x="353.369141"/>
     </g>
    </g>
    <g id="line2d_53">
     <path d="M 332.010625 234.421528 
L 342.010625 234.421528 
L 352.010625 234.421528 
" style="fill: none; stroke: #ff7f0e; stroke-width: 1.5; stroke-linecap: square"/>
    </g>
    <g id="text_26">
     <!-- yBL (out) -->
     <g transform="translate(360.010625 237.921528)scale(0.1 -0.1)">
      <use xlink:href="#DejaVuSans-79"/>
      <use xlink:href="#DejaVuSans-42" x="59.179688"/>
      <use xlink:href="#DejaVuSans-4c" x="127.783203"/>
      <use xlink:href="#DejaVuSans-20" x="183.496094"/>
      <use xlink:href="#DejaVuSans-28" x="215.283203"/>
      <use xlink:href="#DejaVuSans-6f" x="254.296875"/>
      <use xlink:href="#DejaVuSans-75" x="315.478516"/>
      <use xlink:href="#DejaVuSans-74" x="378.857422"/>
      <use xlink:href="#DejaVuSans-29" x="418.066406"/>
     </g>
    </g>
   </g>
  </g>
  <g id="axes_5">
   <g id="patch_26">
    <path d="M 57.6 307.584 
L 414.72 307.584 
L 414.72 261.702621 
L 57.6 261.702621 
z
" style="fill: #ffffff"/>
   </g>
   <g id="matplotlib.axis_9">
    <g id="xtick_25">
     <g id="line2d_54">
      <g>
       <use xlink:href="#m85f082bd06" x="73.832727" y="307.584" style="stroke: #000000; stroke-width: 0.8"/>
      </g>
     </g>
     <g id="text_27">
      <!-- 0 -->
      <g transform="translate(70.651477 322.182437)scale(0.1 -0.1)">
       <use xlink:href="#DejaVuSans-30"/>
      </g>
     </g>
    </g>
    <g id="xtick_26">
     <g id="line2d_55">
      <g>
       <use xlink:href="#m85f082bd06" x="138.763636" y="307.584" style="stroke: #000000; stroke-width: 0.8"/>
      </g>
     </g>
     <g id="text_28">
      <!-- 20 -->
      <g transform="translate(132.401136 322.182437)scale(0.1 -0.1)">
       <use xlink:href="#DejaVuSans-32"/>
       <use xlink:href="#DejaVuSans-30" x="63.623047"/>
      </g>
     </g>
    </g>
    <g id="xtick_27">
     <g id="line2d_56">
      <g>
       <use xlink:href="#m85f082bd06" x="203.694545" y="307.584" style="stroke: #000000; stroke-width: 0.8"/>
      </g>
     </g>
     <g id="text_29">
      <!-- 40 -->
      <g transform="translate(197.332045 322.182437)scale(0.1 -0.1)">
       <defs>
        <path id="DejaVuSans-34" d="M 2419 4116 
L 825 1625 
L 2419 1625 
L 2419 4116 
z
M 2253 4666 
L 3047 4666 
L 3047 1625 
L 3713 1625 
L 3713 1100 
L 3047 1100 
L 3047 0 
L 2419 0 
L 2419 1100 
L 313 1100 
L 313 1709 
L 2253 4666 
z
" transform="scale(0.015625)"/>
       </defs>
       <use xlink:href="#DejaVuSans-34"/>
       <use xlink:href="#DejaVuSans-30" x="63.623047"/>
      </g>
     </g>
    </g>
    <g id="xtick_28">
     <g id="line2d_57">
      <g>
       <use xlink:href="#m85f082bd06" x="268.625455" y="307.584" style="stroke: #000000; stroke-width: 0.8"/>
      </g>
     </g>
     <g id="text_30">
      <!-- 60 -->
      <g transform="translate(262.262955 322.182437)scale(0.1 -0.1)">
       <defs>
        <path id="DejaVuSans-36" d="M 2113 2584 
Q 1688 2584 1439 2293 
Q 1191 2003 1191 1497 
Q 1191 994 1439 701 
Q 1688 409 2113 409 
Q 2538 409 2786 701 
Q 3034 994 3034 1497 
Q 3034 2003 2786 2293 
Q 2538 2584 2113 2584 
z
M 3366 4563 
L 3366 3988 
Q 3128 4100 2886 4159 
Q 2644 4219 2406 4219 
Q 1781 4219 1451 3797 
Q 1122 3375 1075 2522 
Q 1259 2794 1537 2939 
Q 1816 3084 2150 3084 
Q 2853 3084 3261 2657 
Q 3669 2231 3669 1497 
Q 3669 778 3244 343 
Q 2819 -91 2113 -91 
Q 1303 -91 875 529 
Q 447 1150 447 2328 
Q 447 3434 972 4092 
Q 1497 4750 2381 4750 
Q 2619 4750 2861 4703 
Q 3103 4656 3366 4563 
z
" transform="scale(0.015625)"/>
       </defs>
       <use xlink:href="#DejaVuSans-36"/>
       <use xlink:href="#DejaVuSans-30" x="63.623047"/>
      </g>
     </g>
    </g>
    <g id="xtick_29">
     <g id="line2d_58">
      <g>
       <use xlink:href="#m85f082bd06" x="333.556364" y="307.584" style="stroke: #000000; stroke-width: 0.8"/>
      </g>
     </g>
     <g id="text_31">
      <!-- 80 -->
      <g transform="translate(327.193864 322.182437)scale(0.1 -0.1)">
       <use xlink:href="#DejaVuSans-38"/>
       <use xlink:href="#DejaVuSans-30" x="63.623047"/>
      </g>
     </g>
    </g>
    <g id="xtick_30">
     <g id="line2d_59">
      <g>
       <use xlink:href="#m85f082bd06" x="398.487273" y="307.584" style="stroke: #000000; stroke-width: 0.8"/>
      </g>
     </g>
     <g id="text_32">
      <!-- 100 -->
      <g transform="translate(388.943523 322.182437)scale(0.1 -0.1)">
       <use xlink:href="#DejaVuSans-31"/>
       <use xlink:href="#DejaVuSans-30" x="63.623047"/>
       <use xlink:href="#DejaVuSans-30" x="127.246094"/>
      </g>
     </g>
    </g>
    <g id="text_33">
     <!-- time (normalized) -->
     <g transform="translate(191.589687 335.860562)scale(0.1 -0.1)">
      <use xlink:href="#DejaVuSans-74"/>
      <use xlink:href="#DejaVuSans-69" x="39.208984"/>
      <use xlink:href="#DejaVuSans-6d" x="66.992188"/>
      <use xlink:href="#DejaVuSans-65" x="164.404297"/>
      <use xlink:href="#DejaVuSans-20" x="225.927734"/>
      <use xlink:href="#DejaVuSans-28" x="257.714844"/>
      <use xlink:href="#DejaVuSans-6e" x="296.728516"/>
      <use xlink:href="#DejaVuSans-6f" x="360.107422"/>
      <use xlink:href="#DejaVuSans-72" x="421.289062"/>
      <use xlink:href="#DejaVuSans-6d" x="460.652344"/>
      <use xlink:href="#DejaVuSans-61" x="558.064453"/>
      <use xlink:href="#DejaVuSans-6c" x="619.34375"/>
      <use xlink:href="#DejaVuSans-69" x="647.126953"/>
      <use xlink:href="#DejaVuSans-7a" x="674.910156"/>
      <use xlink:href="#DejaVuSans-65" x="727.400391"/>
      <use xlink:href="#DejaVuSans-64" x="788.923828"/>
      <use xlink:href="#DejaVuSans-29" x="852.400391"/>
     </g>
    </g>
   </g>
   <g id="matplotlib.axis_10">
    <g id="ytick_10">
     <g id="line2d_60">
      <g>
       <use xlink:href="#m39d9b1daef" x="57.6" y="304.198838" style="stroke: #000000; stroke-width: 0.8"/>
      </g>
     </g>
     <g id="text_34">
      <!-- 0.04 -->
      <g transform="translate(28.334375 307.998057)scale(0.1 -0.1)">
       <use xlink:href="#DejaVuSans-30"/>
       <use xlink:href="#DejaVuSans-2e" x="63.623047"/>
       <use xlink:href="#DejaVuSans-30" x="95.410156"/>
       <use xlink:href="#DejaVuSans-34" x="159.033203"/>
      </g>
     </g>
    </g>
    <g id="ytick_11">
     <g id="line2d_61">
      <g>
       <use xlink:href="#m39d9b1daef" x="57.6" y="270.373611" style="stroke: #000000; stroke-width: 0.8"/>
      </g>
     </g>
     <g id="text_35">
      <!-- 0.06 -->
      <g transform="translate(28.334375 274.172829)scale(0.1 -0.1)">
       <use xlink:href="#DejaVuSans-30"/>
       <use xlink:href="#DejaVuSans-2e" x="63.623047"/>
       <use xlink:href="#DejaVuSans-30" x="95.410156"/>
       <use xlink:href="#DejaVuSans-36" x="159.033203"/>
      </g>
     </g>
    </g>
    <g id="text_36">
     <!-- fraction -->
     <g transform="translate(22.254687 303.84956)rotate(-90)scale(0.1 -0.1)">
      <use xlink:href="#DejaVuSans-66"/>
      <use xlink:href="#DejaVuSans-72" x="35.205078"/>
      <use xlink:href="#DejaVuSans-61" x="76.318359"/>
      <use xlink:href="#DejaVuSans-63" x="137.597656"/>
      <use xlink:href="#DejaVuSans-74" x="192.578125"/>
      <use xlink:href="#DejaVuSans-69" x="231.787109"/>
      <use xlink:href="#DejaVuSans-6f" x="259.570312"/>
      <use xlink:href="#DejaVuSans-6e" x="320.751953"/>
     </g>
    </g>
   </g>
   <g id="line2d_62">
    <path d="M 73.832727 268.490278 
L 77.079273 287.529677 
L 80.325818 287.513912 
L 83.572364 287.512998 
L 86.818909 287.516202 
L 90.065455 287.529985 
L 93.312 287.524502 
L 96.558545 287.507541 
L 99.805091 287.49939 
L 103.051636 287.506717 
L 106.298182 287.501024 
L 109.544727 287.502491 
L 112.791273 287.511117 
L 116.037818 287.511394 
L 119.284364 287.51139 
L 122.530909 287.517874 
L 125.777455 287.189154 
L 129.024 287.143223 
L 132.270545 287.114094 
L 135.517091 287.097072 
L 138.763636 287.090078 
L 142.010182 287.090593 
L 145.256727 287.097558 
L 148.503273 287.108085 
L 151.749818 287.118851 
L 154.996364 287.133822 
L 158.242909 287.148388 
L 161.489455 287.160417 
L 164.736 287.169285 
L 167.982545 287.177486 
L 171.229091 287.184126 
L 174.475636 286.529519 
L 177.722182 285.69951 
L 180.968727 284.776738 
L 184.215273 283.871935 
L 187.461818 283.075876 
L 190.708364 282.399706 
L 193.954909 281.837993 
L 197.201455 281.37411 
L 200.448 280.994027 
L 203.694545 280.687596 
L 206.941091 280.441437 
L 210.187636 280.243775 
L 213.434182 280.09125 
L 216.680727 279.9716 
L 219.927273 279.879976 
L 223.173818 279.8095 
L 226.420364 279.756813 
L 229.666909 279.718037 
L 232.913455 279.689943 
L 236.16 279.668731 
L 239.406545 279.652933 
L 242.653091 279.640813 
L 245.899636 279.631572 
L 249.146182 279.624842 
L 252.392727 279.619524 
L 255.639273 279.6158 
L 258.885818 279.613017 
L 262.132364 279.610724 
L 265.378909 279.608595 
L 268.625455 279.6057 
L 271.872 277.405279 
L 275.118545 276.207707 
L 278.365091 275.578664 
L 281.611636 275.197147 
L 284.858182 274.982304 
L 288.104727 274.776124 
L 291.351273 274.570807 
L 294.597818 274.358656 
L 297.844364 274.138249 
L 301.090909 273.91093 
L 304.337455 273.677045 
L 307.584 273.44401 
L 310.830545 273.209099 
L 314.077091 272.976033 
L 317.323636 272.746415 
L 320.570182 272.519625 
L 323.816727 272.29675 
L 327.063273 272.078752 
L 330.309818 271.866146 
L 333.556364 271.659142 
L 336.802909 271.456938 
L 340.049455 271.259838 
L 343.296 271.06835 
L 346.542545 270.882086 
L 349.789091 270.701028 
L 353.035636 270.525068 
L 356.282182 270.35413 
L 359.528727 270.187666 
L 362.775273 270.025578 
L 366.021818 269.867907 
L 369.268364 269.714697 
L 372.514909 269.565729 
L 375.761455 269.420593 
L 379.008 269.279193 
L 382.254545 269.141648 
L 385.501091 269.007757 
L 388.747636 268.87735 
L 391.994182 268.750282 
L 395.240727 268.626284 
L 398.487273 268.505203 
" clip-path="url(#pfcb94b57db)" style="fill: none; stroke: #1f77b4; stroke-width: 1.5; stroke-linecap: square"/>
   </g>
   <g id="line2d_63">
    <path d="M 73.832727 263.788138 
L 77.079273 302.547302 
L 80.325818 304.730411 
L 83.572364 305.1852 
L 86.818909 305.354105 
L 90.065455 305.431018 
L 93.312 305.469208 
L 96.558545 305.488022 
L 99.805091 305.49626 
L 103.051636 305.498483 
L 106.298182 305.497411 
L 109.544727 305.494278 
L 112.791273 305.489956 
L 116.037818 305.485125 
L 119.284364 305.479525 
L 122.530909 305.47411 
L 125.777455 303.946167 
L 129.024 303.372634 
L 132.270545 302.810262 
L 135.517091 302.257838 
L 138.763636 301.715038 
L 142.010182 301.181286 
L 145.256727 300.656122 
L 148.503273 300.139046 
L 151.749818 299.629359 
L 154.996364 299.127316 
L 158.242909 298.63205 
L 161.489455 298.143017 
L 164.736 297.659469 
L 167.982545 297.181403 
L 171.229091 296.7138 
L 174.475636 295.605895 
L 177.722182 293.692031 
L 180.968727 291.567813 
L 184.215273 289.464431 
L 187.461818 287.586491 
L 190.708364 286.010914 
L 193.954909 284.761683 
L 197.201455 283.799905 
L 200.448 283.083075 
L 203.694545 282.561872 
L 206.941091 282.187516 
L 210.187636 281.915132 
L 213.434182 281.727004 
L 216.680727 281.592293 
L 219.927273 281.498057 
L 223.173818 281.431006 
L 226.420364 281.384295 
L 229.666909 281.350575 
L 232.913455 281.327798 
L 236.16 281.310067 
L 239.406545 281.297722 
L 242.653091 281.288423 
L 245.899636 281.281399 
L 249.146182 281.276442 
L 252.392727 281.272484 
L 255.639273 281.2695 
L 258.885818 281.266901 
L 262.132364 281.264929 
L 265.378909 281.263239 
L 268.625455 281.2622 
L 271.872 280.065423 
L 275.118545 279.126506 
L 278.365091 278.305729 
L 281.611636 277.553379 
L 284.858182 276.847549 
L 288.104727 276.179655 
L 291.351273 275.544872 
L 294.597818 274.940214 
L 297.844364 274.363578 
L 301.090909 273.812563 
L 304.337455 273.283383 
L 307.584 272.781582 
L 310.830545 272.298105 
L 314.077091 271.834726 
L 317.323636 271.390111 
L 320.570182 270.962536 
L 323.816727 270.55114 
L 327.063273 270.154896 
L 330.309818 269.773142 
L 333.556364 269.405243 
L 336.802909 269.049568 
L 340.049455 268.705574 
L 343.296 268.373145 
L 346.542545 268.051281 
L 349.789091 267.739621 
L 353.035636 267.438161 
L 356.282182 267.146252 
L 359.528727 266.862547 
L 362.775273 266.586592 
L 366.021818 266.318419 
L 369.268364 266.05807 
L 372.514909 265.804994 
L 375.761455 265.558708 
L 379.008 265.31891 
L 382.254545 265.08603 
L 385.501091 264.859676 
L 388.747636 264.639549 
L 391.994182 264.425332 
L 395.240727 264.215665 
L 398.487273 264.010178 
" clip-path="url(#pfcb94b57db)" style="fill: none; stroke: #ff7f0e; stroke-width: 1.5; stroke-linecap: square"/>
   </g>
   <g id="patch_27">
    <path d="M 57.6 307.584 
L 57.6 261.702621 
" style="fill: none; stroke: #000000; stroke-width: 0.8; stroke-linejoin: miter; stroke-linecap: square"/>
   </g>
   <g id="patch_28">
    <path d="M 414.72 307.584 
L 414.72 261.702621 
" style="fill: none; stroke: #000000; stroke-width: 0.8; stroke-linejoin: miter; stroke-linecap: square"/>
   </g>
   <g id="patch_29">
    <path d="M 57.6 307.584 
L 414.72 307.584 
" style="fill: none; stroke: #000000; stroke-width: 0.8; stroke-linejoin: miter; stroke-linecap: square"/>
   </g>
   <g id="patch_30">
    <path d="M 57.6 261.702621 
L 414.72 261.702621 
" style="fill: none; stroke: #000000; stroke-width: 0.8; stroke-linejoin: miter; stroke-linecap: square"/>
   </g>
   <g id="text_37">
    <!-- yC -->
    <g transform="translate(228.419062 255.702621)scale(0.12 -0.12)">
     <defs>
      <path id="DejaVuSans-43" d="M 4122 4306 
L 4122 3641 
Q 3803 3938 3442 4084 
Q 3081 4231 2675 4231 
Q 1875 4231 1450 3742 
Q 1025 3253 1025 2328 
Q 1025 1406 1450 917 
Q 1875 428 2675 428 
Q 3081 428 3442 575 
Q 3803 722 4122 1019 
L 4122 359 
Q 3791 134 3420 21 
Q 3050 -91 2638 -91 
Q 1578 -91 968 557 
Q 359 1206 359 2328 
Q 359 3453 968 4101 
Q 1578 4750 2638 4750 
Q 3056 4750 3426 4639 
Q 3797 4528 4122 4306 
z
" transform="scale(0.015625)"/>
     </defs>
     <use xlink:href="#DejaVuSans-79"/>
     <use xlink:href="#DejaVuSans-43" x="59.179688"/>
    </g>
   </g>
   <g id="legend_5">
    <g id="patch_31">
     <path d="M 329.88875 302.584 
L 407.72 302.584 
Q 409.72 302.584 409.72 300.584 
L 409.72 272.22775 
Q 409.72 270.22775 407.72 270.22775 
L 329.88875 270.22775 
Q 327.88875 270.22775 327.88875 272.22775 
L 327.88875 300.584 
Q 327.88875 302.584 329.88875 302.584 
z
" style="fill: #ffffff; opacity: 0.8; stroke: #cccccc; stroke-linejoin: miter"/>
    </g>
    <g id="line2d_64">
     <path d="M 331.88875 278.326187 
L 341.88875 278.326187 
L 351.88875 278.326187 
" style="fill: none; stroke: #1f77b4; stroke-width: 1.5; stroke-linecap: square"/>
    </g>
    <g id="text_38">
     <!-- yC0 (in) -->
     <g transform="translate(359.88875 281.826187)scale(0.1 -0.1)">
      <use xlink:href="#DejaVuSans-79"/>
      <use xlink:href="#DejaVuSans-43" x="59.179688"/>
      <use xlink:href="#DejaVuSans-30" x="129.003906"/>
      <use xlink:href="#DejaVuSans-20" x="192.626953"/>
      <use xlink:href="#DejaVuSans-28" x="224.414062"/>
      <use xlink:href="#DejaVuSans-69" x="263.427734"/>
      <use xlink:href="#DejaVuSans-6e" x="291.210938"/>
      <use xlink:href="#DejaVuSans-29" x="354.589844"/>
     </g>
    </g>
    <g id="line2d_65">
     <path d="M 331.88875 293.004312 
L 341.88875 293.004312 
L 351.88875 293.004312 
" style="fill: none; stroke: #ff7f0e; stroke-width: 1.5; stroke-linecap: square"/>
    </g>
    <g id="text_39">
     <!-- yCL (out) -->
     <g transform="translate(359.88875 296.504312)scale(0.1 -0.1)">
      <use xlink:href="#DejaVuSans-79"/>
      <use xlink:href="#DejaVuSans-43" x="59.179688"/>
      <use xlink:href="#DejaVuSans-4c" x="129.003906"/>
      <use xlink:href="#DejaVuSans-20" x="184.716797"/>
      <use xlink:href="#DejaVuSans-28" x="216.503906"/>
      <use xlink:href="#DejaVuSans-6f" x="255.517578"/>
      <use xlink:href="#DejaVuSans-75" x="316.699219"/>
      <use xlink:href="#DejaVuSans-74" x="380.078125"/>
      <use xlink:href="#DejaVuSans-29" x="419.287109"/>
     </g>
    </g>
   </g>
  </g>
 </g>
 <defs>
  <clipPath id="p0a543d0bcb">
   <rect x="57.6" y="41.472" width="357.12" height="45.881379"/>
  </clipPath>
  <clipPath id="p6c48b1ba95">
   <rect x="57.6" y="96.529655" width="357.12" height="45.881379"/>
  </clipPath>
  <clipPath id="p9b22419290">
   <rect x="57.6" y="151.58731" width="357.12" height="45.881379"/>
  </clipPath>
  <clipPath id="p06ac7b6330">
   <rect x="57.6" y="206.644966" width="357.12" height="45.881379"/>
  </clipPath>
  <clipPath id="pfcb94b57db">
   <rect x="57.6" y="261.702621" width="357.12" height="45.881379"/>
  </clipPath>
 </defs>
</svg>
