<?xml version="1.0" encoding="utf-8" standalone="no"?>
<!DOCTYPE svg PUBLIC "-//W3C//DTD SVG 1.1//EN"
  "http://www.w3.org/Graphics/SVG/1.1/DTD/svg11.dtd">
<svg xmlns:xlink="http://www.w3.org/1999/xlink" width="460.8pt" height="345.6pt" viewBox="0 0 460.8 345.6" xmlns="http://www.w3.org/2000/svg" version="1.1">
 <metadata>
  <rdf:RDF xmlns:dc="http://purl.org/dc/elements/1.1/" xmlns:cc="http://creativecommons.org/ns#" xmlns:rdf="http://www.w3.org/1999/02/22-rdf-syntax-ns#">
   <cc:Work>
    <dc:type rdf:resource="http://purl.org/dc/dcmitype/StillImage"/>
    <dc:date>2022-07-10T00:04:38.531805</dc:date>
    <dc:format>image/svg+xml</dc:format>
    <dc:creator>
     <cc:Agent>
      <dc:title>Matplotlib v3.5.2, https://matplotlib.org/</dc:title>
     </cc:Agent>
    </dc:creator>
   </cc:Work>
  </rdf:RDF>
 </metadata>
 <defs>
  <style type="text/css">*{stroke-linejoin: round; stroke-linecap: butt}</style>
 </defs>
 <g id="figure_1">
  <g id="patch_1">
   <path d="M 0 345.6 
L 460.8 345.6 
L 460.8 0 
L 0 0 
z
" style="fill: #ffffff"/>
  </g>
  <g id="axes_1">
   <g id="patch_2">
    <path d="M 57.6 87.353379 
L 414.72 87.353379 
L 414.72 41.472 
L 57.6 41.472 
z
" style="fill: #ffffff"/>
   </g>
   <g id="matplotlib.axis_1">
    <g id="xtick_1">
     <g id="line2d_1">
      <defs>
       <path id="m3f87fc6480" d="M 0 0 
L 0 3.5 
" style="stroke: #000000; stroke-width: 0.8"/>
      </defs>
      <g>
       <use xlink:href="#m3f87fc6480" x="73.832727" y="87.353379" style="stroke: #000000; stroke-width: 0.8"/>
      </g>
     </g>
    </g>
    <g id="xtick_2">
     <g id="line2d_2">
      <g>
       <use xlink:href="#m3f87fc6480" x="138.763636" y="87.353379" style="stroke: #000000; stroke-width: 0.8"/>
      </g>
     </g>
    </g>
    <g id="xtick_3">
     <g id="line2d_3">
      <g>
       <use xlink:href="#m3f87fc6480" x="203.694545" y="87.353379" style="stroke: #000000; stroke-width: 0.8"/>
      </g>
     </g>
    </g>
    <g id="xtick_4">
     <g id="line2d_4">
      <g>
       <use xlink:href="#m3f87fc6480" x="268.625455" y="87.353379" style="stroke: #000000; stroke-width: 0.8"/>
      </g>
     </g>
    </g>
    <g id="xtick_5">
     <g id="line2d_5">
      <g>
       <use xlink:href="#m3f87fc6480" x="333.556364" y="87.353379" style="stroke: #000000; stroke-width: 0.8"/>
      </g>
     </g>
    </g>
    <g id="xtick_6">
     <g id="line2d_6">
      <g>
       <use xlink:href="#m3f87fc6480" x="398.487273" y="87.353379" style="stroke: #000000; stroke-width: 0.8"/>
      </g>
     </g>
    </g>
   </g>
   <g id="matplotlib.axis_2">
    <g id="ytick_1">
     <g id="line2d_7">
      <defs>
       <path id="mf15282f08a" d="M 0 0 
L -3.5 0 
" style="stroke: #000000; stroke-width: 0.8"/>
      </defs>
      <g>
       <use xlink:href="#mf15282f08a" x="57.6" y="77.670758" style="stroke: #000000; stroke-width: 0.8"/>
      </g>
     </g>
     <g id="text_1">
      <!-- −5 -->
      <g transform="translate(35.857813 81.469976)scale(0.1 -0.1)">
       <defs>
        <path id="DejaVuSans-2212" d="M 678 2272 
L 4684 2272 
L 4684 1741 
L 678 1741 
L 678 2272 
z
" transform="scale(0.015625)"/>
        <path id="DejaVuSans-35" d="M 691 4666 
L 3169 4666 
L 3169 4134 
L 1269 4134 
L 1269 2991 
Q 1406 3038 1543 3061 
Q 1681 3084 1819 3084 
Q 2600 3084 3056 2656 
Q 3513 2228 3513 1497 
Q 3513 744 3044 326 
Q 2575 -91 1722 -91 
Q 1428 -91 1123 -41 
Q 819 9 494 109 
L 494 744 
Q 775 591 1075 516 
Q 1375 441 1709 441 
Q 2250 441 2565 725 
Q 2881 1009 2881 1497 
Q 2881 1984 2565 2268 
Q 2250 2553 1709 2553 
Q 1456 2553 1204 2497 
Q 953 2441 691 2322 
L 691 4666 
z
" transform="scale(0.015625)"/>
       </defs>
       <use xlink:href="#DejaVuSans-2212"/>
       <use xlink:href="#DejaVuSans-35" x="83.789062"/>
      </g>
     </g>
    </g>
    <g id="ytick_2">
     <g id="line2d_8">
      <g>
       <use xlink:href="#mf15282f08a" x="57.6" y="54.953752" style="stroke: #000000; stroke-width: 0.8"/>
      </g>
     </g>
     <g id="text_2">
      <!-- 0 -->
      <g transform="translate(44.2375 58.75297)scale(0.1 -0.1)">
       <defs>
        <path id="DejaVuSans-30" d="M 2034 4250 
Q 1547 4250 1301 3770 
Q 1056 3291 1056 2328 
Q 1056 1369 1301 889 
Q 1547 409 2034 409 
Q 2525 409 2770 889 
Q 3016 1369 3016 2328 
Q 3016 3291 2770 3770 
Q 2525 4250 2034 4250 
z
M 2034 4750 
Q 2819 4750 3233 4129 
Q 3647 3509 3647 2328 
Q 3647 1150 3233 529 
Q 2819 -91 2034 -91 
Q 1250 -91 836 529 
Q 422 1150 422 2328 
Q 422 3509 836 4129 
Q 1250 4750 2034 4750 
z
" transform="scale(0.015625)"/>
       </defs>
       <use xlink:href="#DejaVuSans-30"/>
      </g>
     </g>
    </g>
    <g id="text_3">
     <!-- flow rate (normalized) -->
     <g transform="translate(29.778125 119.729877)rotate(-90)scale(0.1 -0.1)">
      <defs>
       <path id="DejaVuSans-66" d="M 2375 4863 
L 2375 4384 
L 1825 4384 
Q 1516 4384 1395 4259 
Q 1275 4134 1275 3809 
L 1275 3500 
L 2222 3500 
L 2222 3053 
L 1275 3053 
L 1275 0 
L 697 0 
L 697 3053 
L 147 3053 
L 147 3500 
L 697 3500 
L 697 3744 
Q 697 4328 969 4595 
Q 1241 4863 1831 4863 
L 2375 4863 
z
" transform="scale(0.015625)"/>
       <path id="DejaVuSans-6c" d="M 603 4863 
L 1178 4863 
L 1178 0 
L 603 0 
L 603 4863 
z
" transform="scale(0.015625)"/>
       <path id="DejaVuSans-6f" d="M 1959 3097 
Q 1497 3097 1228 2736 
Q 959 2375 959 1747 
Q 959 1119 1226 758 
Q 1494 397 1959 397 
Q 2419 397 2687 759 
Q 2956 1122 2956 1747 
Q 2956 2369 2687 2733 
Q 2419 3097 1959 3097 
z
M 1959 3584 
Q 2709 3584 3137 3096 
Q 3566 2609 3566 1747 
Q 3566 888 3137 398 
Q 2709 -91 1959 -91 
Q 1206 -91 779 398 
Q 353 888 353 1747 
Q 353 2609 779 3096 
Q 1206 3584 1959 3584 
z
" transform="scale(0.015625)"/>
       <path id="DejaVuSans-77" d="M 269 3500 
L 844 3500 
L 1563 769 
L 2278 3500 
L 2956 3500 
L 3675 769 
L 4391 3500 
L 4966 3500 
L 4050 0 
L 3372 0 
L 2619 2869 
L 1863 0 
L 1184 0 
L 269 3500 
z
" transform="scale(0.015625)"/>
       <path id="DejaVuSans-20" transform="scale(0.015625)"/>
       <path id="DejaVuSans-72" d="M 2631 2963 
Q 2534 3019 2420 3045 
Q 2306 3072 2169 3072 
Q 1681 3072 1420 2755 
Q 1159 2438 1159 1844 
L 1159 0 
L 581 0 
L 581 3500 
L 1159 3500 
L 1159 2956 
Q 1341 3275 1631 3429 
Q 1922 3584 2338 3584 
Q 2397 3584 2469 3576 
Q 2541 3569 2628 3553 
L 2631 2963 
z
" transform="scale(0.015625)"/>
       <path id="DejaVuSans-61" d="M 2194 1759 
Q 1497 1759 1228 1600 
Q 959 1441 959 1056 
Q 959 750 1161 570 
Q 1363 391 1709 391 
Q 2188 391 2477 730 
Q 2766 1069 2766 1631 
L 2766 1759 
L 2194 1759 
z
M 3341 1997 
L 3341 0 
L 2766 0 
L 2766 531 
Q 2569 213 2275 61 
Q 1981 -91 1556 -91 
Q 1019 -91 701 211 
Q 384 513 384 1019 
Q 384 1609 779 1909 
Q 1175 2209 1959 2209 
L 2766 2209 
L 2766 2266 
Q 2766 2663 2505 2880 
Q 2244 3097 1772 3097 
Q 1472 3097 1187 3025 
Q 903 2953 641 2809 
L 641 3341 
Q 956 3463 1253 3523 
Q 1550 3584 1831 3584 
Q 2591 3584 2966 3190 
Q 3341 2797 3341 1997 
z
" transform="scale(0.015625)"/>
       <path id="DejaVuSans-74" d="M 1172 4494 
L 1172 3500 
L 2356 3500 
L 2356 3053 
L 1172 3053 
L 1172 1153 
Q 1172 725 1289 603 
Q 1406 481 1766 481 
L 2356 481 
L 2356 0 
L 1766 0 
Q 1100 0 847 248 
Q 594 497 594 1153 
L 594 3053 
L 172 3053 
L 172 3500 
L 594 3500 
L 594 4494 
L 1172 4494 
z
" transform="scale(0.015625)"/>
       <path id="DejaVuSans-65" d="M 3597 1894 
L 3597 1613 
L 953 1613 
Q 991 1019 1311 708 
Q 1631 397 2203 397 
Q 2534 397 2845 478 
Q 3156 559 3463 722 
L 3463 178 
Q 3153 47 2828 -22 
Q 2503 -91 2169 -91 
Q 1331 -91 842 396 
Q 353 884 353 1716 
Q 353 2575 817 3079 
Q 1281 3584 2069 3584 
Q 2775 3584 3186 3129 
Q 3597 2675 3597 1894 
z
M 3022 2063 
Q 3016 2534 2758 2815 
Q 2500 3097 2075 3097 
Q 1594 3097 1305 2825 
Q 1016 2553 972 2059 
L 3022 2063 
z
" transform="scale(0.015625)"/>
       <path id="DejaVuSans-28" d="M 1984 4856 
Q 1566 4138 1362 3434 
Q 1159 2731 1159 2009 
Q 1159 1288 1364 580 
Q 1569 -128 1984 -844 
L 1484 -844 
Q 1016 -109 783 600 
Q 550 1309 550 2009 
Q 550 2706 781 3412 
Q 1013 4119 1484 4856 
L 1984 4856 
z
" transform="scale(0.015625)"/>
       <path id="DejaVuSans-6e" d="M 3513 2113 
L 3513 0 
L 2938 0 
L 2938 2094 
Q 2938 2591 2744 2837 
Q 2550 3084 2163 3084 
Q 1697 3084 1428 2787 
Q 1159 2491 1159 1978 
L 1159 0 
L 581 0 
L 581 3500 
L 1159 3500 
L 1159 2956 
Q 1366 3272 1645 3428 
Q 1925 3584 2291 3584 
Q 2894 3584 3203 3211 
Q 3513 2838 3513 2113 
z
" transform="scale(0.015625)"/>
       <path id="DejaVuSans-6d" d="M 3328 2828 
Q 3544 3216 3844 3400 
Q 4144 3584 4550 3584 
Q 5097 3584 5394 3201 
Q 5691 2819 5691 2113 
L 5691 0 
L 5113 0 
L 5113 2094 
Q 5113 2597 4934 2840 
Q 4756 3084 4391 3084 
Q 3944 3084 3684 2787 
Q 3425 2491 3425 1978 
L 3425 0 
L 2847 0 
L 2847 2094 
Q 2847 2600 2669 2842 
Q 2491 3084 2119 3084 
Q 1678 3084 1418 2786 
Q 1159 2488 1159 1978 
L 1159 0 
L 581 0 
L 581 3500 
L 1159 3500 
L 1159 2956 
Q 1356 3278 1631 3431 
Q 1906 3584 2284 3584 
Q 2666 3584 2933 3390 
Q 3200 3197 3328 2828 
z
" transform="scale(0.015625)"/>
       <path id="DejaVuSans-69" d="M 603 3500 
L 1178 3500 
L 1178 0 
L 603 0 
L 603 3500 
z
M 603 4863 
L 1178 4863 
L 1178 4134 
L 603 4134 
L 603 4863 
z
" transform="scale(0.015625)"/>
       <path id="DejaVuSans-7a" d="M 353 3500 
L 3084 3500 
L 3084 2975 
L 922 459 
L 3084 459 
L 3084 0 
L 275 0 
L 275 525 
L 2438 3041 
L 353 3041 
L 353 3500 
z
" transform="scale(0.015625)"/>
       <path id="DejaVuSans-64" d="M 2906 2969 
L 2906 4863 
L 3481 4863 
L 3481 0 
L 2906 0 
L 2906 525 
Q 2725 213 2448 61 
Q 2172 -91 1784 -91 
Q 1150 -91 751 415 
Q 353 922 353 1747 
Q 353 2572 751 3078 
Q 1150 3584 1784 3584 
Q 2172 3584 2448 3432 
Q 2725 3281 2906 2969 
z
M 947 1747 
Q 947 1113 1208 752 
Q 1469 391 1925 391 
Q 2381 391 2643 752 
Q 2906 1113 2906 1747 
Q 2906 2381 2643 2742 
Q 2381 3103 1925 3103 
Q 1469 3103 1208 2742 
Q 947 2381 947 1747 
z
" transform="scale(0.015625)"/>
       <path id="DejaVuSans-29" d="M 513 4856 
L 1013 4856 
Q 1481 4119 1714 3412 
Q 1947 2706 1947 2009 
Q 1947 1309 1714 600 
Q 1481 -109 1013 -844 
L 513 -844 
Q 928 -128 1133 580 
Q 1338 1288 1338 2009 
Q 1338 2731 1133 3434 
Q 928 4138 513 4856 
z
" transform="scale(0.015625)"/>
      </defs>
      <use xlink:href="#DejaVuSans-66"/>
      <use xlink:href="#DejaVuSans-6c" x="35.205078"/>
      <use xlink:href="#DejaVuSans-6f" x="62.988281"/>
      <use xlink:href="#DejaVuSans-77" x="124.169922"/>
      <use xlink:href="#DejaVuSans-20" x="205.957031"/>
      <use xlink:href="#DejaVuSans-72" x="237.744141"/>
      <use xlink:href="#DejaVuSans-61" x="278.857422"/>
      <use xlink:href="#DejaVuSans-74" x="340.136719"/>
      <use xlink:href="#DejaVuSans-65" x="379.345703"/>
      <use xlink:href="#DejaVuSans-20" x="440.869141"/>
      <use xlink:href="#DejaVuSans-28" x="472.65625"/>
      <use xlink:href="#DejaVuSans-6e" x="511.669922"/>
      <use xlink:href="#DejaVuSans-6f" x="575.048828"/>
      <use xlink:href="#DejaVuSans-72" x="636.230469"/>
      <use xlink:href="#DejaVuSans-6d" x="675.59375"/>
      <use xlink:href="#DejaVuSans-61" x="773.005859"/>
      <use xlink:href="#DejaVuSans-6c" x="834.285156"/>
      <use xlink:href="#DejaVuSans-69" x="862.068359"/>
      <use xlink:href="#DejaVuSans-7a" x="889.851562"/>
      <use xlink:href="#DejaVuSans-65" x="942.341797"/>
      <use xlink:href="#DejaVuSans-64" x="1003.865234"/>
      <use xlink:href="#DejaVuSans-29" x="1067.341797"/>
     </g>
    </g>
   </g>
   <g id="line2d_9">
    <path d="M 73.832727 56.114113 
L 77.079273 49.151381 
L 80.325818 52.875402 
L 83.572364 53.963758 
L 86.818909 54.466341 
L 90.065455 54.692336 
L 93.312 54.810664 
L 96.558545 54.87347 
L 99.805091 54.904199 
L 103.051636 54.923752 
L 106.298182 54.935539 
L 109.544727 54.941317 
L 112.791273 54.945689 
L 116.037818 54.949768 
L 119.284364 54.952523 
L 122.530909 54.878649 
L 125.777455 50.401146 
L 129.024 50.40098 
L 132.270545 50.400883 
L 135.517091 50.400838 
L 138.763636 50.400823 
L 142.010182 50.400819 
L 145.256727 50.400827 
L 148.503273 50.400838 
L 151.749818 50.400849 
L 154.996364 50.400863 
L 158.242909 50.400876 
L 161.489455 50.400888 
L 164.736 50.400901 
L 167.982545 50.400912 
L 171.229091 50.62774 
L 174.475636 53.843648 
L 177.722182 53.846142 
L 180.968727 53.8028 
L 184.215273 53.729629 
L 187.461818 53.677841 
L 190.708364 53.656807 
L 193.954909 53.730964 
L 197.201455 53.89984 
L 200.448 54.106214 
L 203.694545 54.311412 
L 206.941091 54.484295 
L 210.187636 54.623959 
L 213.434182 54.728505 
L 216.680727 54.803087 
L 219.927273 54.85437 
L 223.173818 54.887576 
L 226.420364 54.911695 
L 229.666909 54.923874 
L 232.913455 54.936798 
L 236.16 54.943727 
L 239.406545 54.948185 
L 242.653091 54.949591 
L 245.899636 54.950413 
L 249.146182 54.951234 
L 252.392727 54.951888 
L 255.639273 54.952284 
L 258.885818 54.95268 
L 262.132364 54.953061 
L 265.378909 54.953328 
L 268.625455 54.964473 
L 271.872 58.548198 
L 275.118545 61.624655 
L 278.365091 63.979541 
L 281.611636 65.118232 
L 284.858182 65.367099 
L 288.104727 65.123232 
L 291.351273 64.65836 
L 294.597818 64.107697 
L 297.844364 63.538147 
L 301.090909 62.977804 
L 304.337455 62.441128 
L 307.584 61.934792 
L 310.830545 61.46024 
L 314.077091 61.017692 
L 317.323636 60.606727 
L 320.570182 60.226191 
L 323.816727 59.873668 
L 327.063273 59.547221 
L 330.309818 59.245054 
L 333.556364 58.965437 
L 336.802909 58.706653 
L 340.049455 58.46686 
L 343.296 58.244351 
L 346.542545 58.037532 
L 349.789091 57.84566 
L 353.035636 57.667027 
L 356.282182 57.500776 
L 359.528727 57.346012 
L 362.775273 57.201522 
L 366.021818 57.066884 
L 369.268364 56.94098 
L 372.514909 56.823204 
L 375.761455 56.712908 
L 379.008 56.609403 
L 382.254545 56.512927 
L 385.501091 56.422456 
L 388.747636 56.337419 
L 391.994182 56.257513 
L 395.240727 56.182506 
L 398.487273 56.111869 
" clip-path="url(#pd0a0cae271)" style="fill: none; stroke: #1f77b4; stroke-width: 1.5; stroke-linecap: square"/>
   </g>
   <g id="line2d_10">
    <path d="M 73.832727 56.874112 
L 77.079273 43.557517 
L 80.325818 50.846264 
L 83.572364 53.021647 
L 86.818909 53.987419 
L 90.065455 54.435799 
L 93.312 54.670134 
L 96.558545 54.794563 
L 99.805091 54.85544 
L 103.051636 54.894225 
L 106.298182 54.917612 
L 109.544727 54.929062 
L 112.791273 54.937748 
L 116.037818 54.945849 
L 119.284364 54.951326 
L 122.530909 54.728314 
L 125.777455 50.408924 
L 129.024 50.408917 
L 132.270545 50.40892 
L 135.517091 50.408932 
L 138.763636 50.408946 
L 142.010182 50.40896 
L 145.256727 50.408975 
L 148.503273 50.408987 
L 151.749818 50.408999 
L 154.996364 50.409009 
L 158.242909 50.409017 
L 161.489455 50.409024 
L 164.736 50.409029 
L 167.982545 50.409034 
L 171.229091 51.637187 
L 174.475636 54.752176 
L 177.722182 54.753014 
L 180.968727 54.745781 
L 184.215273 54.733352 
L 187.461818 54.724789 
L 190.708364 54.721612 
L 193.954909 54.735194 
L 197.201455 54.76546 
L 200.448 54.802272 
L 203.694545 54.838858 
L 206.941091 54.869692 
L 210.187636 54.894629 
L 213.434182 54.913332 
L 216.680727 54.926687 
L 219.927273 54.935884 
L 223.173818 54.941841 
L 226.420364 54.946178 
L 229.666909 54.948372 
L 232.913455 54.950692 
L 236.16 54.95194 
L 239.406545 54.952744 
L 242.653091 54.952998 
L 245.899636 54.953146 
L 249.146182 54.953295 
L 252.392727 54.953414 
L 255.639273 54.953485 
L 258.885818 54.953557 
L 262.132364 54.953625 
L 265.378909 54.953674 
L 268.625455 54.996196 
L 271.872 62.489309 
L 275.118545 69.988056 
L 278.365091 77.415621 
L 281.611636 82.610548 
L 284.858182 85.067786 
L 288.104727 85.267862 
L 291.351273 84.028649 
L 294.597818 82.044938 
L 297.844364 79.77094 
L 301.090909 77.452699 
L 304.337455 75.24239 
L 307.584 73.208848 
L 310.830545 71.372513 
L 314.077091 69.73624 
L 317.323636 68.291335 
L 320.570182 67.017562 
L 323.816727 65.893721 
L 327.063273 64.901372 
L 330.309818 64.025026 
L 333.556364 63.248012 
L 336.802909 62.555181 
L 340.049455 61.936392 
L 343.296 61.380801 
L 346.542545 60.88024 
L 349.789091 60.431037 
L 353.035636 60.023242 
L 356.282182 59.653123 
L 359.528727 59.316691 
L 362.775273 59.007627 
L 366.021818 58.726407 
L 369.268364 58.467366 
L 372.514909 58.229087 
L 375.761455 58.009831 
L 379.008 57.806872 
L 382.254545 57.621257 
L 385.501091 57.449394 
L 388.747636 57.289345 
L 391.994182 57.140391 
L 395.240727 57.002125 
L 398.487273 56.872809 
" clip-path="url(#pd0a0cae271)" style="fill: none; stroke: #ff7f0e; stroke-width: 1.5; stroke-linecap: square"/>
   </g>
   <g id="line2d_11">
    <path d="M 73.832727 55.090434 
L 77.079273 54.284735 
L 80.325818 54.719263 
L 83.572364 54.884164 
L 86.818909 54.897311 
L 90.065455 54.924393 
L 93.312 54.937689 
L 96.558545 54.944743 
L 99.805091 54.948195 
L 103.051636 54.950388 
L 106.298182 54.95171 
L 109.544727 54.952358 
L 112.791273 54.952848 
L 116.037818 54.953305 
L 119.284364 54.953613 
L 122.530909 54.95353 
L 125.777455 50.394136 
L 129.024 50.393854 
L 132.270545 50.39369 
L 135.517091 50.393617 
L 138.763636 50.393597 
L 142.010182 50.393595 
L 145.256727 50.393611 
L 148.503273 50.393632 
L 151.749818 50.393654 
L 154.996364 50.393676 
L 158.242909 50.393697 
L 161.489455 50.393714 
L 164.736 50.39373 
L 167.982545 50.393741 
L 171.229091 50.379939 
L 174.475636 53.033326 
L 177.722182 53.034166 
L 180.968727 52.953302 
L 184.215273 52.818474 
L 187.461818 52.721065 
L 190.708364 52.678007 
L 193.954909 52.805305 
L 197.201455 53.102488 
L 200.448 53.46737 
L 203.694545 53.829669 
L 206.941091 54.134195 
L 210.187636 54.379605 
L 213.434182 54.562538 
L 216.680727 54.692695 
L 219.927273 54.781879 
L 223.173818 54.839539 
L 226.420364 54.88129 
L 229.666909 54.902136 
L 232.913455 54.924677 
L 236.16 54.936594 
L 239.406545 54.944248 
L 242.653091 54.946662 
L 245.899636 54.94806 
L 249.146182 54.949459 
L 252.392727 54.950573 
L 255.639273 54.95125 
L 258.885818 54.951926 
L 262.132364 54.952578 
L 265.378909 54.953035 
L 268.625455 54.95461 
L 271.872 55.349587 
L 275.118545 55.674824 
L 278.365091 55.907829 
L 281.611636 56.010495 
L 284.858182 56.026256 
L 288.104727 55.99737 
L 291.351273 55.949815 
L 294.597818 55.895656 
L 297.844364 55.840525 
L 301.090909 55.78669 
L 304.337455 55.73522 
L 307.584 55.686595 
L 310.830545 55.640877 
L 314.077091 55.598033 
L 317.323636 55.557992 
L 320.570182 55.52066 
L 323.816727 55.485821 
L 327.063273 55.453317 
L 330.309818 55.422984 
L 333.556364 55.394692 
L 336.802909 55.368304 
L 340.049455 55.343666 
L 343.296 55.320636 
L 346.542545 55.299077 
L 349.789091 55.278925 
L 353.035636 55.260036 
L 356.282182 55.24234 
L 359.528727 55.225765 
L 362.775273 55.210206 
L 366.021818 55.19562 
L 369.268364 55.181912 
L 372.514909 55.169024 
L 375.761455 55.156891 
L 379.008 55.145455 
L 382.254545 55.134735 
L 385.501091 55.124638 
L 388.747636 55.115112 
L 391.994182 55.106128 
L 395.240727 55.097661 
L 398.487273 55.089664 
" clip-path="url(#pd0a0cae271)" style="fill: none; stroke: #2ca02c; stroke-width: 1.5; stroke-linecap: square"/>
   </g>
   <g id="patch_3">
    <path d="M 57.6 87.353379 
L 57.6 41.472 
" style="fill: none; stroke: #000000; stroke-width: 0.8; stroke-linejoin: miter; stroke-linecap: square"/>
   </g>
   <g id="patch_4">
    <path d="M 414.72 87.353379 
L 414.72 41.472 
" style="fill: none; stroke: #000000; stroke-width: 0.8; stroke-linejoin: miter; stroke-linecap: square"/>
   </g>
   <g id="patch_5">
    <path d="M 57.6 87.353379 
L 414.72 87.353379 
" style="fill: none; stroke: #000000; stroke-width: 0.8; stroke-linejoin: miter; stroke-linecap: square"/>
   </g>
   <g id="patch_6">
    <path d="M 57.6 41.472 
L 414.72 41.472 
" style="fill: none; stroke: #000000; stroke-width: 0.8; stroke-linejoin: miter; stroke-linecap: square"/>
   </g>
   <g id="text_4">
    <!-- velocity vs time (container 1)   -->
    <g transform="translate(144.106875 35.472)scale(0.12 -0.12)">
     <defs>
      <path id="DejaVuSans-76" d="M 191 3500 
L 800 3500 
L 1894 563 
L 2988 3500 
L 3597 3500 
L 2284 0 
L 1503 0 
L 191 3500 
z
" transform="scale(0.015625)"/>
      <path id="DejaVuSans-63" d="M 3122 3366 
L 3122 2828 
Q 2878 2963 2633 3030 
Q 2388 3097 2138 3097 
Q 1578 3097 1268 2742 
Q 959 2388 959 1747 
Q 959 1106 1268 751 
Q 1578 397 2138 397 
Q 2388 397 2633 464 
Q 2878 531 3122 666 
L 3122 134 
Q 2881 22 2623 -34 
Q 2366 -91 2075 -91 
Q 1284 -91 818 406 
Q 353 903 353 1747 
Q 353 2603 823 3093 
Q 1294 3584 2113 3584 
Q 2378 3584 2631 3529 
Q 2884 3475 3122 3366 
z
" transform="scale(0.015625)"/>
      <path id="DejaVuSans-79" d="M 2059 -325 
Q 1816 -950 1584 -1140 
Q 1353 -1331 966 -1331 
L 506 -1331 
L 506 -850 
L 844 -850 
Q 1081 -850 1212 -737 
Q 1344 -625 1503 -206 
L 1606 56 
L 191 3500 
L 800 3500 
L 1894 763 
L 2988 3500 
L 3597 3500 
L 2059 -325 
z
" transform="scale(0.015625)"/>
      <path id="DejaVuSans-73" d="M 2834 3397 
L 2834 2853 
Q 2591 2978 2328 3040 
Q 2066 3103 1784 3103 
Q 1356 3103 1142 2972 
Q 928 2841 928 2578 
Q 928 2378 1081 2264 
Q 1234 2150 1697 2047 
L 1894 2003 
Q 2506 1872 2764 1633 
Q 3022 1394 3022 966 
Q 3022 478 2636 193 
Q 2250 -91 1575 -91 
Q 1294 -91 989 -36 
Q 684 19 347 128 
L 347 722 
Q 666 556 975 473 
Q 1284 391 1588 391 
Q 1994 391 2212 530 
Q 2431 669 2431 922 
Q 2431 1156 2273 1281 
Q 2116 1406 1581 1522 
L 1381 1569 
Q 847 1681 609 1914 
Q 372 2147 372 2553 
Q 372 3047 722 3315 
Q 1072 3584 1716 3584 
Q 2034 3584 2315 3537 
Q 2597 3491 2834 3397 
z
" transform="scale(0.015625)"/>
      <path id="DejaVuSans-31" d="M 794 531 
L 1825 531 
L 1825 4091 
L 703 3866 
L 703 4441 
L 1819 4666 
L 2450 4666 
L 2450 531 
L 3481 531 
L 3481 0 
L 794 0 
L 794 531 
z
" transform="scale(0.015625)"/>
     </defs>
     <use xlink:href="#DejaVuSans-76"/>
     <use xlink:href="#DejaVuSans-65" x="59.179688"/>
     <use xlink:href="#DejaVuSans-6c" x="120.703125"/>
     <use xlink:href="#DejaVuSans-6f" x="148.486328"/>
     <use xlink:href="#DejaVuSans-63" x="209.667969"/>
     <use xlink:href="#DejaVuSans-69" x="264.648438"/>
     <use xlink:href="#DejaVuSans-74" x="292.431641"/>
     <use xlink:href="#DejaVuSans-79" x="331.640625"/>
     <use xlink:href="#DejaVuSans-20" x="390.820312"/>
     <use xlink:href="#DejaVuSans-76" x="422.607422"/>
     <use xlink:href="#DejaVuSans-73" x="481.787109"/>
     <use xlink:href="#DejaVuSans-20" x="533.886719"/>
     <use xlink:href="#DejaVuSans-74" x="565.673828"/>
     <use xlink:href="#DejaVuSans-69" x="604.882812"/>
     <use xlink:href="#DejaVuSans-6d" x="632.666016"/>
     <use xlink:href="#DejaVuSans-65" x="730.078125"/>
     <use xlink:href="#DejaVuSans-20" x="791.601562"/>
     <use xlink:href="#DejaVuSans-28" x="823.388672"/>
     <use xlink:href="#DejaVuSans-63" x="862.402344"/>
     <use xlink:href="#DejaVuSans-6f" x="917.382812"/>
     <use xlink:href="#DejaVuSans-6e" x="978.564453"/>
     <use xlink:href="#DejaVuSans-74" x="1041.943359"/>
     <use xlink:href="#DejaVuSans-61" x="1081.152344"/>
     <use xlink:href="#DejaVuSans-69" x="1142.431641"/>
     <use xlink:href="#DejaVuSans-6e" x="1170.214844"/>
     <use xlink:href="#DejaVuSans-65" x="1233.59375"/>
     <use xlink:href="#DejaVuSans-72" x="1295.117188"/>
     <use xlink:href="#DejaVuSans-20" x="1336.230469"/>
     <use xlink:href="#DejaVuSans-31" x="1368.017578"/>
     <use xlink:href="#DejaVuSans-29" x="1431.640625"/>
     <use xlink:href="#DejaVuSans-20" x="1470.654297"/>
     <use xlink:href="#DejaVuSans-20" x="1502.441406"/>
    </g>
   </g>
   <g id="legend_1">
    <g id="patch_7">
     <path d="M 64.6 93.506375 
L 139.240625 93.506375 
Q 141.240625 93.506375 141.240625 91.506375 
L 141.240625 48.472 
Q 141.240625 46.472 139.240625 46.472 
L 64.6 46.472 
Q 62.6 46.472 62.6 48.472 
L 62.6 91.506375 
Q 62.6 93.506375 64.6 93.506375 
z
" style="fill: #ffffff; opacity: 0.8; stroke: #cccccc; stroke-linejoin: miter"/>
    </g>
    <g id="line2d_12">
     <path d="M 66.6 54.570437 
L 76.6 54.570437 
L 86.6 54.570437 
" style="fill: none; stroke: #1f77b4; stroke-width: 1.5; stroke-linecap: square"/>
    </g>
    <g id="text_5">
     <!-- mid flow -->
     <g transform="translate(94.6 58.070437)scale(0.1 -0.1)">
      <use xlink:href="#DejaVuSans-6d"/>
      <use xlink:href="#DejaVuSans-69" x="97.412109"/>
      <use xlink:href="#DejaVuSans-64" x="125.195312"/>
      <use xlink:href="#DejaVuSans-20" x="188.671875"/>
      <use xlink:href="#DejaVuSans-66" x="220.458984"/>
      <use xlink:href="#DejaVuSans-6c" x="255.664062"/>
      <use xlink:href="#DejaVuSans-6f" x="283.447266"/>
      <use xlink:href="#DejaVuSans-77" x="344.628906"/>
     </g>
    </g>
    <g id="line2d_13">
     <path d="M 66.6 69.248562 
L 76.6 69.248562 
L 86.6 69.248562 
" style="fill: none; stroke: #ff7f0e; stroke-width: 1.5; stroke-linecap: square"/>
    </g>
    <g id="text_6">
     <!-- v0 flow -->
     <g transform="translate(94.6 72.748562)scale(0.1 -0.1)">
      <use xlink:href="#DejaVuSans-76"/>
      <use xlink:href="#DejaVuSans-30" x="59.179688"/>
      <use xlink:href="#DejaVuSans-20" x="122.802734"/>
      <use xlink:href="#DejaVuSans-66" x="154.589844"/>
      <use xlink:href="#DejaVuSans-6c" x="189.794922"/>
      <use xlink:href="#DejaVuSans-6f" x="217.578125"/>
      <use xlink:href="#DejaVuSans-77" x="278.759766"/>
     </g>
    </g>
    <g id="line2d_14">
     <path d="M 66.6 83.926687 
L 76.6 83.926687 
L 86.6 83.926687 
" style="fill: none; stroke: #2ca02c; stroke-width: 1.5; stroke-linecap: square"/>
    </g>
    <g id="text_7">
     <!-- vN flow -->
     <g transform="translate(94.6 87.426687)scale(0.1 -0.1)">
      <defs>
       <path id="DejaVuSans-4e" d="M 628 4666 
L 1478 4666 
L 3547 763 
L 3547 4666 
L 4159 4666 
L 4159 0 
L 3309 0 
L 1241 3903 
L 1241 0 
L 628 0 
L 628 4666 
z
" transform="scale(0.015625)"/>
      </defs>
      <use xlink:href="#DejaVuSans-76"/>
      <use xlink:href="#DejaVuSans-4e" x="59.179688"/>
      <use xlink:href="#DejaVuSans-20" x="133.984375"/>
      <use xlink:href="#DejaVuSans-66" x="165.771484"/>
      <use xlink:href="#DejaVuSans-6c" x="200.976562"/>
      <use xlink:href="#DejaVuSans-6f" x="228.759766"/>
      <use xlink:href="#DejaVuSans-77" x="289.941406"/>
     </g>
    </g>
   </g>
  </g>
  <g id="axes_2">
   <g id="patch_8">
    <path d="M 57.6 142.411034 
L 414.72 142.411034 
L 414.72 96.529655 
L 57.6 96.529655 
z
" style="fill: #ffffff"/>
   </g>
   <g id="matplotlib.axis_3">
    <g id="xtick_7">
     <g id="line2d_15">
      <g>
       <use xlink:href="#m3f87fc6480" x="73.832727" y="142.411034" style="stroke: #000000; stroke-width: 0.8"/>
      </g>
     </g>
    </g>
    <g id="xtick_8">
     <g id="line2d_16">
      <g>
       <use xlink:href="#m3f87fc6480" x="138.763636" y="142.411034" style="stroke: #000000; stroke-width: 0.8"/>
      </g>
     </g>
    </g>
    <g id="xtick_9">
     <g id="line2d_17">
      <g>
       <use xlink:href="#m3f87fc6480" x="203.694545" y="142.411034" style="stroke: #000000; stroke-width: 0.8"/>
      </g>
     </g>
    </g>
    <g id="xtick_10">
     <g id="line2d_18">
      <g>
       <use xlink:href="#m3f87fc6480" x="268.625455" y="142.411034" style="stroke: #000000; stroke-width: 0.8"/>
      </g>
     </g>
    </g>
    <g id="xtick_11">
     <g id="line2d_19">
      <g>
       <use xlink:href="#m3f87fc6480" x="333.556364" y="142.411034" style="stroke: #000000; stroke-width: 0.8"/>
      </g>
     </g>
    </g>
    <g id="xtick_12">
     <g id="line2d_20">
      <g>
       <use xlink:href="#m3f87fc6480" x="398.487273" y="142.411034" style="stroke: #000000; stroke-width: 0.8"/>
      </g>
     </g>
    </g>
   </g>
   <g id="matplotlib.axis_4">
    <g id="ytick_3">
     <g id="line2d_21">
      <g>
       <use xlink:href="#mf15282f08a" x="57.6" y="140.747021" style="stroke: #000000; stroke-width: 0.8"/>
      </g>
     </g>
     <g id="text_8">
      <!-- 0 -->
      <g transform="translate(44.2375 144.546239)scale(0.1 -0.1)">
       <use xlink:href="#DejaVuSans-30"/>
      </g>
     </g>
    </g>
    <g id="ytick_4">
     <g id="line2d_22">
      <g>
       <use xlink:href="#mf15282f08a" x="57.6" y="98.771663" style="stroke: #000000; stroke-width: 0.8"/>
      </g>
     </g>
     <g id="text_9">
      <!-- 1 -->
      <g transform="translate(44.2375 102.570882)scale(0.1 -0.1)">
       <use xlink:href="#DejaVuSans-31"/>
      </g>
     </g>
    </g>
   </g>
   <g id="line2d_23">
    <path d="M 73.832727 140.325514 
L 77.079273 123.986699 
L 80.325818 114.060324 
L 83.572364 108.042384 
L 86.818909 104.394044 
L 90.065455 102.182932 
L 93.312 100.840876 
L 96.558545 100.026683 
L 99.805091 99.537794 
L 103.051636 99.241664 
L 106.298182 99.060859 
L 109.544727 98.949582 
L 112.791273 98.885163 
L 116.037818 98.828795 
L 119.284364 98.804228 
L 122.530909 98.789916 
L 125.777455 98.615182 
L 129.024 98.615177 
L 132.270545 98.615174 
L 135.517091 98.615173 
L 138.763636 98.615172 
L 142.010182 98.615172 
L 145.256727 98.615173 
L 148.503273 98.615173 
L 151.749818 98.615174 
L 154.996364 98.615174 
L 158.242909 98.615175 
L 161.489455 98.615175 
L 164.736 98.615176 
L 167.982545 98.615176 
L 171.229091 98.630978 
L 174.475636 113.602554 
L 177.722182 122.610178 
L 180.968727 128.084253 
L 184.215273 131.389953 
L 187.461818 133.398467 
L 190.708364 134.625495 
L 193.954909 135.369306 
L 197.201455 135.823418 
L 200.448 136.102674 
L 203.694545 136.274334 
L 206.941091 136.379815 
L 210.187636 136.445213 
L 213.434182 136.485585 
L 216.680727 136.510011 
L 219.927273 136.524866 
L 223.173818 136.534341 
L 226.420364 136.540094 
L 229.666909 136.544019 
L 232.913455 136.546123 
L 236.16 136.547463 
L 239.406545 136.548326 
L 242.653091 136.54863 
L 245.899636 136.548868 
L 249.146182 136.549105 
L 252.392727 136.549271 
L 255.639273 136.549326 
L 258.885818 136.549382 
L 262.132364 136.549431 
L 265.378909 136.549452 
L 268.625455 136.550118 
L 271.872 138.030411 
L 275.118545 138.921906 
L 278.365091 139.459827 
L 281.611636 139.783488 
L 284.858182 139.97992 
L 288.104727 140.100345 
L 291.351273 140.17525 
L 294.597818 140.22297 
L 297.844364 140.25385 
L 301.090909 140.274098 
L 304.337455 140.287611 
L 307.584 140.296802 
L 310.830545 140.303162 
L 314.077091 140.307643 
L 317.323636 140.310917 
L 320.570182 140.313362 
L 323.816727 140.315236 
L 327.063273 140.316707 
L 330.309818 140.317895 
L 333.556364 140.318876 
L 336.802909 140.319705 
L 340.049455 140.320408 
L 343.296 140.32102 
L 346.542545 140.321557 
L 349.789091 140.322023 
L 353.035636 140.322444 
L 356.282182 140.322822 
L 359.528727 140.323158 
L 362.775273 140.323465 
L 366.021818 140.323741 
L 369.268364 140.323994 
L 372.514909 140.324225 
L 375.761455 140.324437 
L 379.008 140.324632 
L 382.254545 140.324809 
L 385.501091 140.324972 
L 388.747636 140.325124 
L 391.994182 140.325265 
L 395.240727 140.325395 
L 398.487273 140.325517 
" clip-path="url(#p6f53536966)" style="fill: none; stroke: #1f77b4; stroke-width: 1.5; stroke-linecap: square"/>
   </g>
   <g id="line2d_24">
    <path d="M 73.832727 140.296118 
L 77.079273 124.149562 
L 80.325818 114.118878 
L 83.572364 108.069934 
L 86.818909 104.407808 
L 90.065455 102.190309 
L 93.312 100.844915 
L 96.558545 100.02895 
L 99.805091 99.539193 
L 103.051636 99.242512 
L 106.298182 99.061373 
L 109.544727 98.949934 
L 112.791273 98.885391 
L 116.037818 98.828907 
L 119.284364 98.804263 
L 122.530909 98.792724 
L 125.777455 98.695356 
L 129.024 98.695352 
L 132.270545 98.69535 
L 135.517091 98.695349 
L 138.763636 98.695348 
L 142.010182 98.695348 
L 145.256727 98.695348 
L 148.503273 98.695349 
L 151.749818 98.695349 
L 154.996364 98.695349 
L 158.242909 98.69535 
L 161.489455 98.69535 
L 164.736 98.69535 
L 167.982545 98.69535 
L 171.229091 98.698107 
L 174.475636 113.612333 
L 177.722182 122.619926 
L 180.968727 128.094368 
L 184.215273 131.400692 
L 187.461818 133.409643 
L 190.708364 134.636841 
L 193.954909 135.379996 
L 197.201455 135.83263 
L 200.448 136.110084 
L 203.694545 136.279953 
L 206.941091 136.383924 
L 210.187636 136.448101 
L 213.434182 136.487559 
L 216.680727 136.511332 
L 219.927273 136.525738 
L 223.173818 136.534922 
L 226.420364 136.540463 
L 229.666909 136.544281 
L 232.913455 136.546272 
L 236.16 136.547552 
L 239.406545 136.548375 
L 242.653091 136.548667 
L 245.899636 136.548897 
L 249.146182 136.549127 
L 252.392727 136.549287 
L 255.639273 136.549339 
L 258.885818 136.549391 
L 262.132364 136.549437 
L 265.378909 136.549456 
L 268.625455 136.549631 
L 271.872 137.925262 
L 275.118545 138.717683 
L 278.365091 139.165799 
L 281.611636 139.433343 
L 284.858182 139.607239 
L 288.104727 139.729443 
L 291.351273 139.820254 
L 294.597818 139.890777 
L 297.844364 139.946943 
L 301.090909 139.992696 
L 304.337455 140.030576 
L 307.584 140.062378 
L 310.830545 140.089416 
L 314.077091 140.112611 
L 317.323636 140.132701 
L 320.570182 140.150228 
L 323.816727 140.16564 
L 327.063273 140.179273 
L 330.309818 140.191385 
L 333.556364 140.202204 
L 336.802909 140.211924 
L 340.049455 140.220677 
L 343.296 140.228604 
L 346.542545 140.235808 
L 349.789091 140.242331 
L 353.035636 140.248302 
L 356.282182 140.253762 
L 359.528727 140.25876 
L 362.775273 140.263375 
L 366.021818 140.267605 
L 369.268364 140.27152 
L 372.514909 140.275141 
L 375.761455 140.278492 
L 379.008 140.281607 
L 382.254545 140.284474 
L 385.501091 140.28714 
L 388.747636 140.289629 
L 391.994182 140.291953 
L 395.240727 140.294118 
L 398.487273 140.296147 
" clip-path="url(#p6f53536966)" style="fill: none; stroke: #ff7f0e; stroke-width: 1.5; stroke-linecap: square"/>
   </g>
   <g id="line2d_25">
    <path d="M 73.832727 140.285633 
L 77.079273 124.201008 
L 80.325818 114.137273 
L 83.572364 108.078581 
L 86.818909 104.412124 
L 90.065455 102.192621 
L 93.312 100.846181 
L 96.558545 100.029659 
L 99.805091 99.539631 
L 103.051636 99.242777 
L 106.298182 99.061534 
L 109.544727 98.950043 
L 112.791273 98.885462 
L 116.037818 98.828942 
L 119.284364 98.804274 
L 122.530909 98.793295 
L 125.777455 98.767643 
L 129.024 98.767642 
L 132.270545 98.767642 
L 135.517091 98.767642 
L 138.763636 98.767642 
L 142.010182 98.767642 
L 145.256727 98.767642 
L 148.503273 98.767642 
L 151.749818 98.767642 
L 154.996364 98.767642 
L 158.242909 98.767642 
L 161.489455 98.767642 
L 164.736 98.767642 
L 167.982545 98.767642 
L 171.229091 98.768921 
L 174.475636 113.636371 
L 177.722182 122.643934 
L 180.968727 128.119355 
L 184.215273 131.427321 
L 187.461818 133.437447 
L 190.708364 134.665146 
L 193.954909 135.406702 
L 197.201455 135.855646 
L 200.448 136.128578 
L 203.694545 136.293954 
L 206.941091 136.394144 
L 210.187636 136.455271 
L 213.434182 136.49245 
L 216.680727 136.514599 
L 219.927273 136.527892 
L 223.173818 136.536354 
L 226.420364 136.541373 
L 229.666909 136.544928 
L 232.913455 136.546637 
L 236.16 136.547768 
L 239.406545 136.548495 
L 242.653091 136.548756 
L 245.899636 136.548969 
L 249.146182 136.549181 
L 252.392727 136.549327 
L 255.639273 136.549371 
L 258.885818 136.549414 
L 262.132364 136.549452 
L 265.378909 136.549465 
L 268.625455 136.549548 
L 271.872 137.893746 
L 275.118545 138.659703 
L 278.365091 139.088164 
L 281.611636 139.346589 
L 284.858182 139.518753 
L 288.104727 139.64318 
L 291.351273 139.737932 
L 294.597818 139.813037 
L 297.844364 139.873909 
L 301.090909 139.924274 
L 304.337455 139.966569 
L 307.584 140.002539 
L 310.830545 140.033488 
L 314.077091 140.06034 
L 317.323636 140.083835 
L 320.570182 140.104526 
L 323.816727 140.122879 
L 327.063273 140.139244 
L 330.309818 140.153896 
L 333.556364 140.167073 
L 336.802909 140.178983 
L 340.049455 140.189772 
L 343.296 140.199596 
L 346.542545 140.208567 
L 349.789091 140.216737 
L 353.035636 140.224245 
L 356.282182 140.231141 
L 359.528727 140.237478 
L 362.775273 140.243347 
L 366.021818 140.248749 
L 369.268364 140.253762 
L 372.514909 140.258413 
L 375.761455 140.26273 
L 379.008 140.266755 
L 382.254545 140.270471 
L 385.501091 140.273934 
L 388.747636 140.277175 
L 391.994182 140.280206 
L 395.240727 140.283036 
L 398.487273 140.285693 
" clip-path="url(#p6f53536966)" style="fill: none; stroke: #2ca02c; stroke-width: 1.5; stroke-linecap: square"/>
   </g>
   <g id="patch_9">
    <path d="M 57.6 142.411034 
L 57.6 96.529655 
" style="fill: none; stroke: #000000; stroke-width: 0.8; stroke-linejoin: miter; stroke-linecap: square"/>
   </g>
   <g id="patch_10">
    <path d="M 414.72 142.411034 
L 414.72 96.529655 
" style="fill: none; stroke: #000000; stroke-width: 0.8; stroke-linejoin: miter; stroke-linecap: square"/>
   </g>
   <g id="patch_11">
    <path d="M 57.6 142.411034 
L 414.72 142.411034 
" style="fill: none; stroke: #000000; stroke-width: 0.8; stroke-linejoin: miter; stroke-linecap: square"/>
   </g>
   <g id="patch_12">
    <path d="M 57.6 96.529655 
L 414.72 96.529655 
" style="fill: none; stroke: #000000; stroke-width: 0.8; stroke-linejoin: miter; stroke-linecap: square"/>
   </g>
   <g id="text_10">
    <!-- Pressure -->
    <g transform="translate(210.546562 90.529655)scale(0.12 -0.12)">
     <defs>
      <path id="DejaVuSans-50" d="M 1259 4147 
L 1259 2394 
L 2053 2394 
Q 2494 2394 2734 2622 
Q 2975 2850 2975 3272 
Q 2975 3691 2734 3919 
Q 2494 4147 2053 4147 
L 1259 4147 
z
M 628 4666 
L 2053 4666 
Q 2838 4666 3239 4311 
Q 3641 3956 3641 3272 
Q 3641 2581 3239 2228 
Q 2838 1875 2053 1875 
L 1259 1875 
L 1259 0 
L 628 0 
L 628 4666 
z
" transform="scale(0.015625)"/>
      <path id="DejaVuSans-75" d="M 544 1381 
L 544 3500 
L 1119 3500 
L 1119 1403 
Q 1119 906 1312 657 
Q 1506 409 1894 409 
Q 2359 409 2629 706 
Q 2900 1003 2900 1516 
L 2900 3500 
L 3475 3500 
L 3475 0 
L 2900 0 
L 2900 538 
Q 2691 219 2414 64 
Q 2138 -91 1772 -91 
Q 1169 -91 856 284 
Q 544 659 544 1381 
z
M 1991 3584 
L 1991 3584 
z
" transform="scale(0.015625)"/>
     </defs>
     <use xlink:href="#DejaVuSans-50"/>
     <use xlink:href="#DejaVuSans-72" x="58.552734"/>
     <use xlink:href="#DejaVuSans-65" x="97.416016"/>
     <use xlink:href="#DejaVuSans-73" x="158.939453"/>
     <use xlink:href="#DejaVuSans-73" x="211.039062"/>
     <use xlink:href="#DejaVuSans-75" x="263.138672"/>
     <use xlink:href="#DejaVuSans-72" x="326.517578"/>
     <use xlink:href="#DejaVuSans-65" x="365.380859"/>
    </g>
   </g>
   <g id="legend_2">
    <g id="patch_13">
     <path d="M 350.823125 137.411034 
L 407.72 137.411034 
Q 409.72 137.411034 409.72 135.411034 
L 409.72 92.376659 
Q 409.72 90.376659 407.72 90.376659 
L 350.823125 90.376659 
Q 348.823125 90.376659 348.823125 92.376659 
L 348.823125 135.411034 
Q 348.823125 137.411034 350.823125 137.411034 
z
" style="fill: #ffffff; opacity: 0.8; stroke: #cccccc; stroke-linejoin: miter"/>
    </g>
    <g id="line2d_26">
     <path d="M 352.823125 98.475097 
L 362.823125 98.475097 
L 372.823125 98.475097 
" style="fill: none; stroke: #1f77b4; stroke-width: 1.5; stroke-linecap: square"/>
    </g>
    <g id="text_11">
     <!-- P1 -->
     <g transform="translate(380.823125 101.975097)scale(0.1 -0.1)">
      <use xlink:href="#DejaVuSans-50"/>
      <use xlink:href="#DejaVuSans-31" x="60.302734"/>
     </g>
    </g>
    <g id="line2d_27">
     <path d="M 352.823125 113.153222 
L 362.823125 113.153222 
L 372.823125 113.153222 
" style="fill: none; stroke: #ff7f0e; stroke-width: 1.5; stroke-linecap: square"/>
    </g>
    <g id="text_12">
     <!-- Pmid -->
     <g transform="translate(380.823125 116.653222)scale(0.1 -0.1)">
      <use xlink:href="#DejaVuSans-50"/>
      <use xlink:href="#DejaVuSans-6d" x="60.302734"/>
      <use xlink:href="#DejaVuSans-69" x="157.714844"/>
      <use xlink:href="#DejaVuSans-64" x="185.498047"/>
     </g>
    </g>
    <g id="line2d_28">
     <path d="M 352.823125 127.831347 
L 362.823125 127.831347 
L 372.823125 127.831347 
" style="fill: none; stroke: #2ca02c; stroke-width: 1.5; stroke-linecap: square"/>
    </g>
    <g id="text_13">
     <!-- PN -->
     <g transform="translate(380.823125 131.331347)scale(0.1 -0.1)">
      <use xlink:href="#DejaVuSans-50"/>
      <use xlink:href="#DejaVuSans-4e" x="60.302734"/>
     </g>
    </g>
   </g>
  </g>
  <g id="axes_3">
   <g id="patch_14">
    <path d="M 57.6 197.46869 
L 414.72 197.46869 
L 414.72 151.58731 
L 57.6 151.58731 
z
" style="fill: #ffffff"/>
   </g>
   <g id="matplotlib.axis_5">
    <g id="xtick_13">
     <g id="line2d_29">
      <g>
       <use xlink:href="#m3f87fc6480" x="73.832727" y="197.46869" style="stroke: #000000; stroke-width: 0.8"/>
      </g>
     </g>
    </g>
    <g id="xtick_14">
     <g id="line2d_30">
      <g>
       <use xlink:href="#m3f87fc6480" x="138.763636" y="197.46869" style="stroke: #000000; stroke-width: 0.8"/>
      </g>
     </g>
    </g>
    <g id="xtick_15">
     <g id="line2d_31">
      <g>
       <use xlink:href="#m3f87fc6480" x="203.694545" y="197.46869" style="stroke: #000000; stroke-width: 0.8"/>
      </g>
     </g>
    </g>
    <g id="xtick_16">
     <g id="line2d_32">
      <g>
       <use xlink:href="#m3f87fc6480" x="268.625455" y="197.46869" style="stroke: #000000; stroke-width: 0.8"/>
      </g>
     </g>
    </g>
    <g id="xtick_17">
     <g id="line2d_33">
      <g>
       <use xlink:href="#m3f87fc6480" x="333.556364" y="197.46869" style="stroke: #000000; stroke-width: 0.8"/>
      </g>
     </g>
    </g>
    <g id="xtick_18">
     <g id="line2d_34">
      <g>
       <use xlink:href="#m3f87fc6480" x="398.487273" y="197.46869" style="stroke: #000000; stroke-width: 0.8"/>
      </g>
     </g>
    </g>
   </g>
   <g id="matplotlib.axis_6">
    <g id="ytick_5">
     <g id="line2d_35">
      <g>
       <use xlink:href="#mf15282f08a" x="57.6" y="191.580555" style="stroke: #000000; stroke-width: 0.8"/>
      </g>
     </g>
     <g id="text_14">
      <!-- 0.05 -->
      <g transform="translate(28.334375 195.379774)scale(0.1 -0.1)">
       <defs>
        <path id="DejaVuSans-2e" d="M 684 794 
L 1344 794 
L 1344 0 
L 684 0 
L 684 794 
z
" transform="scale(0.015625)"/>
       </defs>
       <use xlink:href="#DejaVuSans-30"/>
       <use xlink:href="#DejaVuSans-2e" x="63.623047"/>
       <use xlink:href="#DejaVuSans-30" x="95.410156"/>
       <use xlink:href="#DejaVuSans-35" x="159.033203"/>
      </g>
     </g>
    </g>
    <g id="ytick_6">
     <g id="line2d_36">
      <g>
       <use xlink:href="#mf15282f08a" x="57.6" y="160.452208" style="stroke: #000000; stroke-width: 0.8"/>
      </g>
     </g>
     <g id="text_15">
      <!-- 0.10 -->
      <g transform="translate(28.334375 164.251427)scale(0.1 -0.1)">
       <use xlink:href="#DejaVuSans-30"/>
       <use xlink:href="#DejaVuSans-2e" x="63.623047"/>
       <use xlink:href="#DejaVuSans-31" x="95.410156"/>
       <use xlink:href="#DejaVuSans-30" x="159.033203"/>
      </g>
     </g>
    </g>
    <g id="text_16">
     <!-- fraction -->
     <g transform="translate(22.254687 193.73425)rotate(-90)scale(0.1 -0.1)">
      <use xlink:href="#DejaVuSans-66"/>
      <use xlink:href="#DejaVuSans-72" x="35.205078"/>
      <use xlink:href="#DejaVuSans-61" x="76.318359"/>
      <use xlink:href="#DejaVuSans-63" x="137.597656"/>
      <use xlink:href="#DejaVuSans-74" x="192.578125"/>
      <use xlink:href="#DejaVuSans-69" x="231.787109"/>
      <use xlink:href="#DejaVuSans-6f" x="259.570312"/>
      <use xlink:href="#DejaVuSans-6e" x="320.751953"/>
     </g>
    </g>
   </g>
   <g id="line2d_37">
    <path d="M 73.832727 153.694976 
L 77.079273 192.370996 
L 80.325818 192.663503 
L 83.572364 192.782497 
L 86.818909 192.766957 
L 90.065455 192.798172 
L 93.312 192.823147 
L 96.558545 192.824067 
L 99.805091 192.82923 
L 103.051636 192.831496 
L 106.298182 192.841335 
L 109.544727 192.849718 
L 112.791273 192.853708 
L 116.037818 192.856029 
L 119.284364 192.852127 
L 122.530909 192.85102 
L 125.777455 192.215748 
L 129.024 192.089783 
L 132.270545 191.98371 
L 135.517091 191.899058 
L 138.763636 191.831816 
L 142.010182 191.777214 
L 145.256727 191.734515 
L 148.503273 191.701035 
L 151.749818 191.674334 
L 154.996364 191.654185 
L 158.242909 191.639123 
L 161.489455 191.627426 
L 164.736 191.618888 
L 167.982545 191.611529 
L 171.229091 191.605223 
L 174.475636 191.393598 
L 177.722182 191.067867 
L 180.968727 190.639178 
L 184.215273 190.142002 
L 187.461818 189.633474 
L 190.708364 189.132965 
L 193.954909 188.725562 
L 197.201455 188.406564 
L 200.448 188.201109 
L 203.694545 188.054283 
L 206.941091 187.957402 
L 210.187636 187.895277 
L 213.434182 187.855338 
L 216.680727 187.831402 
L 219.927273 187.816053 
L 223.173818 187.80813 
L 226.420364 187.800201 
L 229.666909 187.802858 
L 232.913455 187.795568 
L 236.16 187.794184 
L 239.406545 187.793641 
L 242.653091 187.793425 
L 245.899636 187.793224 
L 249.146182 187.793023 
L 252.392727 187.792896 
L 255.639273 187.792882 
L 258.885818 187.792868 
L 262.132364 187.79286 
L 265.378909 187.792881 
L 268.625455 187.792577 
L 271.872 185.508264 
L 275.118545 182.380938 
L 278.365091 178.48739 
L 281.611636 174.192376 
L 284.858182 169.883251 
L 288.104727 166.073882 
L 291.351273 162.938301 
L 294.597818 160.506935 
L 297.844364 158.698204 
L 301.090909 157.40271 
L 304.337455 156.484626 
L 307.584 155.832577 
L 310.830545 155.374367 
L 314.077091 155.048243 
L 317.323636 154.809032 
L 320.570182 154.627431 
L 323.816727 154.489388 
L 327.063273 154.380198 
L 330.309818 154.291745 
L 333.556364 154.217988 
L 336.802909 154.154598 
L 340.049455 154.100503 
L 343.296 154.052941 
L 346.542545 154.010583 
L 349.789091 153.973302 
L 353.035636 153.939136 
L 356.282182 153.908098 
L 359.528727 153.880114 
L 362.775273 153.854231 
L 366.021818 153.83075 
L 369.268364 153.809038 
L 372.514909 153.788995 
L 375.761455 153.770492 
L 379.008 153.753282 
L 382.254545 153.737481 
L 385.501091 153.722773 
L 388.747636 153.708995 
L 391.994182 153.696107 
L 395.240727 153.684099 
L 398.487273 153.672828 
" clip-path="url(#p7dbf476b4c)" style="fill: none; stroke: #1f77b4; stroke-width: 1.5; stroke-linecap: square"/>
   </g>
   <g id="line2d_38">
    <path d="M 73.832727 161.297067 
L 77.079273 194.794447 
L 80.325818 195.168024 
L 83.572364 195.280878 
L 86.818909 195.329632 
L 90.065455 195.354409 
L 93.312 195.367824 
L 96.558545 195.375276 
L 99.805091 195.379349 
L 103.051636 195.381557 
L 106.298182 195.382671 
L 109.544727 195.383136 
L 112.791273 195.383172 
L 116.037818 195.383137 
L 119.284364 195.382814 
L 122.530909 195.382344 
L 125.777455 195.226336 
L 129.024 195.165741 
L 132.270545 195.106526 
L 135.517091 195.048918 
L 138.763636 194.992975 
L 142.010182 194.938605 
L 145.256727 194.885744 
L 148.503273 194.834272 
L 151.749818 194.783999 
L 154.996364 194.734891 
L 158.242909 194.686788 
L 161.489455 194.639542 
L 164.736 194.593003 
L 167.982545 194.546992 
L 171.229091 194.501429 
L 174.475636 194.331263 
L 177.722182 194.029446 
L 180.968727 193.632718 
L 184.215273 193.172426 
L 187.461818 192.703468 
L 190.708364 192.236029 
L 193.954909 191.857766 
L 197.201455 191.564062 
L 200.448 191.37773 
L 203.694545 191.246521 
L 206.941091 191.161257 
L 210.187636 191.107548 
L 213.434182 191.073546 
L 216.680727 191.053469 
L 219.927273 191.040751 
L 223.173818 191.03416 
L 226.420364 191.027674 
L 229.666909 191.029698 
L 232.913455 191.023791 
L 236.16 191.022628 
L 239.406545 191.022132 
L 242.653091 191.021875 
L 245.899636 191.02162 
L 249.146182 191.021364 
L 252.392727 191.021172 
L 255.639273 191.021076 
L 258.885818 191.02098 
L 262.132364 191.020889 
L 265.378909 191.020822 
L 268.625455 191.020718 
L 271.872 189.203752 
L 275.118545 187.131454 
L 278.365091 185.148227 
L 281.611636 183.379154 
L 284.858182 181.780352 
L 288.104727 180.327824 
L 291.351273 178.981503 
L 294.597818 177.723067 
L 297.844364 176.54543 
L 301.090909 175.441754 
L 304.337455 174.406571 
L 307.584 173.433659 
L 310.830545 172.519995 
L 314.077091 171.66198 
L 317.323636 170.855664 
L 320.570182 170.095429 
L 323.816727 169.381493 
L 327.063273 168.707336 
L 330.309818 168.075126 
L 333.556364 167.478864 
L 336.802909 166.914665 
L 340.049455 166.384264 
L 343.296 165.883947 
L 346.542545 165.410417 
L 349.789091 164.965601 
L 353.035636 164.546615 
L 356.282182 164.150858 
L 359.528727 163.775792 
L 362.775273 163.420053 
L 366.021818 163.085311 
L 369.268364 162.769516 
L 372.514909 162.470937 
L 375.761455 162.187951 
L 379.008 161.919873 
L 382.254545 161.668194 
L 385.501091 161.430823 
L 388.747636 161.206949 
L 391.994182 160.995525 
L 395.240727 160.795442 
L 398.487273 160.605851 
" clip-path="url(#p7dbf476b4c)" style="fill: none; stroke: #ff7f0e; stroke-width: 1.5; stroke-linecap: square"/>
   </g>
   <g id="patch_15">
    <path d="M 57.6 197.46869 
L 57.6 151.58731 
" style="fill: none; stroke: #000000; stroke-width: 0.8; stroke-linejoin: miter; stroke-linecap: square"/>
   </g>
   <g id="patch_16">
    <path d="M 414.72 197.46869 
L 414.72 151.58731 
" style="fill: none; stroke: #000000; stroke-width: 0.8; stroke-linejoin: miter; stroke-linecap: square"/>
   </g>
   <g id="patch_17">
    <path d="M 57.6 197.46869 
L 414.72 197.46869 
" style="fill: none; stroke: #000000; stroke-width: 0.8; stroke-linejoin: miter; stroke-linecap: square"/>
   </g>
   <g id="patch_18">
    <path d="M 57.6 151.58731 
L 414.72 151.58731 
" style="fill: none; stroke: #000000; stroke-width: 0.8; stroke-linejoin: miter; stroke-linecap: square"/>
   </g>
   <g id="text_17">
    <!-- yA -->
    <g transform="translate(228.504375 145.58731)scale(0.12 -0.12)">
     <defs>
      <path id="DejaVuSans-41" d="M 2188 4044 
L 1331 1722 
L 3047 1722 
L 2188 4044 
z
M 1831 4666 
L 2547 4666 
L 4325 0 
L 3669 0 
L 3244 1197 
L 1141 1197 
L 716 0 
L 50 0 
L 1831 4666 
z
" transform="scale(0.015625)"/>
     </defs>
     <use xlink:href="#DejaVuSans-79"/>
     <use xlink:href="#DejaVuSans-41" x="59.179688"/>
    </g>
   </g>
   <g id="legend_3">
    <g id="patch_19">
     <path d="M 64.6 188.94356 
L 142.289062 188.94356 
Q 144.289062 188.94356 144.289062 186.94356 
L 144.289062 158.58731 
Q 144.289062 156.58731 142.289062 156.58731 
L 64.6 156.58731 
Q 62.6 156.58731 62.6 158.58731 
L 62.6 186.94356 
Q 62.6 188.94356 64.6 188.94356 
z
" style="fill: #ffffff; opacity: 0.8; stroke: #cccccc; stroke-linejoin: miter"/>
    </g>
    <g id="line2d_39">
     <path d="M 66.6 164.685748 
L 76.6 164.685748 
L 86.6 164.685748 
" style="fill: none; stroke: #1f77b4; stroke-width: 1.5; stroke-linecap: square"/>
    </g>
    <g id="text_18">
     <!-- yA0 (in) -->
     <g transform="translate(94.6 168.185748)scale(0.1 -0.1)">
      <use xlink:href="#DejaVuSans-79"/>
      <use xlink:href="#DejaVuSans-41" x="59.179688"/>
      <use xlink:href="#DejaVuSans-30" x="127.587891"/>
      <use xlink:href="#DejaVuSans-20" x="191.210938"/>
      <use xlink:href="#DejaVuSans-28" x="222.998047"/>
      <use xlink:href="#DejaVuSans-69" x="262.011719"/>
      <use xlink:href="#DejaVuSans-6e" x="289.794922"/>
      <use xlink:href="#DejaVuSans-29" x="353.173828"/>
     </g>
    </g>
    <g id="line2d_40">
     <path d="M 66.6 179.363873 
L 76.6 179.363873 
L 86.6 179.363873 
" style="fill: none; stroke: #ff7f0e; stroke-width: 1.5; stroke-linecap: square"/>
    </g>
    <g id="text_19">
     <!-- yAL (out) -->
     <g transform="translate(94.6 182.863873)scale(0.1 -0.1)">
      <defs>
       <path id="DejaVuSans-4c" d="M 628 4666 
L 1259 4666 
L 1259 531 
L 3531 531 
L 3531 0 
L 628 0 
L 628 4666 
z
" transform="scale(0.015625)"/>
      </defs>
      <use xlink:href="#DejaVuSans-79"/>
      <use xlink:href="#DejaVuSans-41" x="59.179688"/>
      <use xlink:href="#DejaVuSans-4c" x="127.587891"/>
      <use xlink:href="#DejaVuSans-20" x="183.300781"/>
      <use xlink:href="#DejaVuSans-28" x="215.087891"/>
      <use xlink:href="#DejaVuSans-6f" x="254.101562"/>
      <use xlink:href="#DejaVuSans-75" x="315.283203"/>
      <use xlink:href="#DejaVuSans-74" x="378.662109"/>
      <use xlink:href="#DejaVuSans-29" x="417.871094"/>
     </g>
    </g>
   </g>
  </g>
  <g id="axes_4">
   <g id="patch_20">
    <path d="M 57.6 252.526345 
L 414.72 252.526345 
L 414.72 206.644966 
L 57.6 206.644966 
z
" style="fill: #ffffff"/>
   </g>
   <g id="matplotlib.axis_7">
    <g id="xtick_19">
     <g id="line2d_41">
      <g>
       <use xlink:href="#m3f87fc6480" x="73.832727" y="252.526345" style="stroke: #000000; stroke-width: 0.8"/>
      </g>
     </g>
    </g>
    <g id="xtick_20">
     <g id="line2d_42">
      <g>
       <use xlink:href="#m3f87fc6480" x="138.763636" y="252.526345" style="stroke: #000000; stroke-width: 0.8"/>
      </g>
     </g>
    </g>
    <g id="xtick_21">
     <g id="line2d_43">
      <g>
       <use xlink:href="#m3f87fc6480" x="203.694545" y="252.526345" style="stroke: #000000; stroke-width: 0.8"/>
      </g>
     </g>
    </g>
    <g id="xtick_22">
     <g id="line2d_44">
      <g>
       <use xlink:href="#m3f87fc6480" x="268.625455" y="252.526345" style="stroke: #000000; stroke-width: 0.8"/>
      </g>
     </g>
    </g>
    <g id="xtick_23">
     <g id="line2d_45">
      <g>
       <use xlink:href="#m3f87fc6480" x="333.556364" y="252.526345" style="stroke: #000000; stroke-width: 0.8"/>
      </g>
     </g>
    </g>
    <g id="xtick_24">
     <g id="line2d_46">
      <g>
       <use xlink:href="#m3f87fc6480" x="398.487273" y="252.526345" style="stroke: #000000; stroke-width: 0.8"/>
      </g>
     </g>
    </g>
   </g>
   <g id="matplotlib.axis_8">
    <g id="ytick_7">
     <g id="line2d_47">
      <g>
       <use xlink:href="#mf15282f08a" x="57.6" y="240.519761" style="stroke: #000000; stroke-width: 0.8"/>
      </g>
     </g>
     <g id="text_20">
      <!-- 0.85 -->
      <g transform="translate(28.334375 244.31898)scale(0.1 -0.1)">
       <defs>
        <path id="DejaVuSans-38" d="M 2034 2216 
Q 1584 2216 1326 1975 
Q 1069 1734 1069 1313 
Q 1069 891 1326 650 
Q 1584 409 2034 409 
Q 2484 409 2743 651 
Q 3003 894 3003 1313 
Q 3003 1734 2745 1975 
Q 2488 2216 2034 2216 
z
M 1403 2484 
Q 997 2584 770 2862 
Q 544 3141 544 3541 
Q 544 4100 942 4425 
Q 1341 4750 2034 4750 
Q 2731 4750 3128 4425 
Q 3525 4100 3525 3541 
Q 3525 3141 3298 2862 
Q 3072 2584 2669 2484 
Q 3125 2378 3379 2068 
Q 3634 1759 3634 1313 
Q 3634 634 3220 271 
Q 2806 -91 2034 -91 
Q 1263 -91 848 271 
Q 434 634 434 1313 
Q 434 1759 690 2068 
Q 947 2378 1403 2484 
z
M 1172 3481 
Q 1172 3119 1398 2916 
Q 1625 2713 2034 2713 
Q 2441 2713 2670 2916 
Q 2900 3119 2900 3481 
Q 2900 3844 2670 4047 
Q 2441 4250 2034 4250 
Q 1625 4250 1398 4047 
Q 1172 3844 1172 3481 
z
" transform="scale(0.015625)"/>
       </defs>
       <use xlink:href="#DejaVuSans-30"/>
       <use xlink:href="#DejaVuSans-2e" x="63.623047"/>
       <use xlink:href="#DejaVuSans-38" x="95.410156"/>
       <use xlink:href="#DejaVuSans-35" x="159.033203"/>
      </g>
     </g>
    </g>
    <g id="ytick_8">
     <g id="line2d_48">
      <g>
       <use xlink:href="#mf15282f08a" x="57.6" y="213.948022" style="stroke: #000000; stroke-width: 0.8"/>
      </g>
     </g>
     <g id="text_21">
      <!-- 0.90 -->
      <g transform="translate(28.334375 217.74724)scale(0.1 -0.1)">
       <defs>
        <path id="DejaVuSans-39" d="M 703 97 
L 703 672 
Q 941 559 1184 500 
Q 1428 441 1663 441 
Q 2288 441 2617 861 
Q 2947 1281 2994 2138 
Q 2813 1869 2534 1725 
Q 2256 1581 1919 1581 
Q 1219 1581 811 2004 
Q 403 2428 403 3163 
Q 403 3881 828 4315 
Q 1253 4750 1959 4750 
Q 2769 4750 3195 4129 
Q 3622 3509 3622 2328 
Q 3622 1225 3098 567 
Q 2575 -91 1691 -91 
Q 1453 -91 1209 -44 
Q 966 3 703 97 
z
M 1959 2075 
Q 2384 2075 2632 2365 
Q 2881 2656 2881 3163 
Q 2881 3666 2632 3958 
Q 2384 4250 1959 4250 
Q 1534 4250 1286 3958 
Q 1038 3666 1038 3163 
Q 1038 2656 1286 2365 
Q 1534 2075 1959 2075 
z
" transform="scale(0.015625)"/>
       </defs>
       <use xlink:href="#DejaVuSans-30"/>
       <use xlink:href="#DejaVuSans-2e" x="63.623047"/>
       <use xlink:href="#DejaVuSans-39" x="95.410156"/>
       <use xlink:href="#DejaVuSans-30" x="159.033203"/>
      </g>
     </g>
    </g>
    <g id="text_22">
     <!-- fraction -->
     <g transform="translate(22.254687 248.791905)rotate(-90)scale(0.1 -0.1)">
      <use xlink:href="#DejaVuSans-66"/>
      <use xlink:href="#DejaVuSans-72" x="35.205078"/>
      <use xlink:href="#DejaVuSans-61" x="76.318359"/>
      <use xlink:href="#DejaVuSans-63" x="137.597656"/>
      <use xlink:href="#DejaVuSans-74" x="192.578125"/>
      <use xlink:href="#DejaVuSans-69" x="231.787109"/>
      <use xlink:href="#DejaVuSans-6f" x="259.570312"/>
      <use xlink:href="#DejaVuSans-6e" x="320.751953"/>
     </g>
    </g>
   </g>
   <g id="line2d_49">
    <path d="M 73.832727 250.421031 
L 77.079273 213.1448 
L 80.325818 212.863565 
L 83.572364 212.769832 
L 86.818909 212.855753 
L 90.065455 212.73428 
L 93.312 212.680093 
L 96.558545 212.691061 
L 99.805091 212.713472 
L 103.051636 212.722099 
L 106.298182 212.707863 
L 109.544727 212.697972 
L 112.791273 212.693246 
L 116.037818 212.690424 
L 119.284364 212.694697 
L 122.530909 212.694308 
L 125.777455 213.425762 
L 129.024 213.533199 
L 132.270545 213.622369 
L 135.517091 213.692458 
L 138.763636 213.747434 
L 142.010182 213.791769 
L 145.256727 213.826089 
L 148.503273 213.852821 
L 151.749818 213.874053 
L 154.996364 213.889967 
L 158.242909 213.901778 
L 161.489455 213.910963 
L 164.736 213.917614 
L 167.982545 213.923417 
L 171.229091 213.928455 
L 174.475636 214.139238 
L 177.722182 214.479256 
L 180.968727 214.928283 
L 184.215273 215.450264 
L 187.461818 215.986728 
L 190.708364 216.508665 
L 193.954909 216.934395 
L 197.201455 217.26582 
L 200.448 217.482334 
L 203.694545 217.636038 
L 206.941091 217.737238 
L 210.187636 217.802187 
L 213.434182 217.843914 
L 216.680727 217.86897 
L 219.927273 217.884978 
L 223.173818 217.893418 
L 226.420364 217.901472 
L 229.666909 217.899572 
L 232.913455 217.906451 
L 236.16 217.907925 
L 239.406545 217.908552 
L 242.653091 217.908785 
L 245.899636 217.909003 
L 249.146182 217.909221 
L 252.392727 217.909363 
L 255.639273 217.909388 
L 258.885818 217.909412 
L 262.132364 217.90943 
L 265.378909 217.909418 
L 268.625455 217.909678 
L 271.872 220.251766 
L 275.118545 223.397462 
L 278.365091 227.199817 
L 281.611636 231.281314 
L 284.858182 235.291067 
L 288.104727 238.78832 
L 291.351273 241.643932 
L 294.597818 243.852607 
L 297.844364 245.495844 
L 301.090909 246.676887 
L 304.337455 247.519178 
L 307.584 248.123371 
L 310.830545 248.554 
L 314.077091 248.866176 
L 317.323636 249.100547 
L 320.570182 249.283336 
L 323.816727 249.426624 
L 327.063273 249.543556 
L 330.309818 249.641488 
L 333.556364 249.725709 
L 336.802909 249.800004 
L 340.049455 249.865172 
L 343.296 249.923728 
L 346.542545 249.976952 
L 349.789091 250.024944 
L 353.035636 250.069486 
L 356.282182 250.110546 
L 359.528727 250.14817 
L 362.775273 250.183228 
L 366.021818 250.215506 
L 369.268364 250.245571 
L 372.514909 250.273565 
L 375.761455 250.299654 
L 379.008 250.324078 
L 382.254545 250.346741 
L 385.501091 250.367968 
L 388.747636 250.387935 
L 391.994182 250.406696 
L 395.240727 250.424275 
L 398.487273 250.440828 
" clip-path="url(#pb91830e11c)" style="fill: none; stroke: #1f77b4; stroke-width: 1.5; stroke-linecap: square"/>
   </g>
   <g id="line2d_50">
    <path d="M 73.832727 245.116008 
L 77.079273 209.414985 
L 80.325818 208.972585 
L 83.572364 208.84504 
L 86.818909 208.790626 
L 90.065455 208.76329 
L 93.312 208.748434 
L 96.558545 208.740111 
L 99.805091 208.735491 
L 103.051636 208.732887 
L 106.298182 208.731479 
L 109.544727 208.730804 
L 112.791273 208.730603 
L 116.037818 208.730483 
L 119.284364 208.730684 
L 122.530909 208.731069 
L 125.777455 209.387451 
L 129.024 209.721837 
L 132.270545 210.026292 
L 135.517091 210.298519 
L 138.763636 210.535565 
L 142.010182 210.739959 
L 145.256727 210.913448 
L 148.503273 211.059348 
L 151.749818 211.182913 
L 154.996364 211.28499 
L 158.242909 211.369736 
L 161.489455 211.440974 
L 164.736 211.501415 
L 167.982545 211.555662 
L 171.229091 211.605099 
L 174.475636 211.772973 
L 177.722182 212.096579 
L 180.968727 212.522804 
L 184.215273 213.018261 
L 187.461818 213.526195 
L 190.708364 214.02469 
L 193.954909 214.429393 
L 197.201455 214.74169 
L 200.448 214.942899 
L 203.694545 215.083595 
L 206.941091 215.174806 
L 210.187636 215.23232 
L 213.434182 215.2687 
L 216.680727 215.290227 
L 219.927273 215.303807 
L 223.173818 215.311006 
L 226.420364 215.317736 
L 229.666909 215.31633 
L 232.913455 215.322008 
L 236.16 215.323275 
L 239.406545 215.323854 
L 242.653091 215.324133 
L 245.899636 215.32441 
L 249.146182 215.324687 
L 252.392727 215.324898 
L 255.639273 215.325006 
L 258.885818 215.325113 
L 262.132364 215.325215 
L 265.378909 215.325292 
L 268.625455 215.325398 
L 271.872 217.235425 
L 275.118545 219.395635 
L 278.365091 221.437401 
L 281.611636 223.242027 
L 284.858182 224.861606 
L 288.104727 226.326101 
L 291.351273 227.676962 
L 294.597818 228.935287 
L 297.844364 230.108732 
L 301.090909 231.205099 
L 304.337455 232.230491 
L 307.584 233.191681 
L 310.830545 234.09219 
L 314.077091 234.935979 
L 317.323636 235.727317 
L 320.570182 236.471986 
L 323.816727 237.170175 
L 327.063273 237.828216 
L 330.309818 238.444528 
L 333.556364 239.024941 
L 336.802909 239.57334 
L 340.049455 240.088377 
L 343.296 240.573647 
L 346.542545 241.032305 
L 349.789091 241.462794 
L 353.035636 241.867938 
L 356.282182 242.250263 
L 359.528727 242.612238 
L 362.775273 242.955274 
L 366.021818 243.277879 
L 369.268364 243.582092 
L 372.514909 243.869524 
L 375.761455 244.141702 
L 379.008 244.399351 
L 382.254545 244.641163 
L 385.501091 244.869133 
L 388.747636 245.084076 
L 391.994182 245.286988 
L 395.240727 245.478912 
L 398.487273 245.660693 
" clip-path="url(#pb91830e11c)" style="fill: none; stroke: #ff7f0e; stroke-width: 1.5; stroke-linecap: square"/>
   </g>
   <g id="patch_21">
    <path d="M 57.6 252.526345 
L 57.6 206.644966 
" style="fill: none; stroke: #000000; stroke-width: 0.8; stroke-linejoin: miter; stroke-linecap: square"/>
   </g>
   <g id="patch_22">
    <path d="M 414.72 252.526345 
L 414.72 206.644966 
" style="fill: none; stroke: #000000; stroke-width: 0.8; stroke-linejoin: miter; stroke-linecap: square"/>
   </g>
   <g id="patch_23">
    <path d="M 57.6 252.526345 
L 414.72 252.526345 
" style="fill: none; stroke: #000000; stroke-width: 0.8; stroke-linejoin: miter; stroke-linecap: square"/>
   </g>
   <g id="patch_24">
    <path d="M 57.6 206.644966 
L 414.72 206.644966 
" style="fill: none; stroke: #000000; stroke-width: 0.8; stroke-linejoin: miter; stroke-linecap: square"/>
   </g>
   <g id="text_23">
    <!-- yB -->
    <g transform="translate(228.492188 200.644966)scale(0.12 -0.12)">
     <defs>
      <path id="DejaVuSans-42" d="M 1259 2228 
L 1259 519 
L 2272 519 
Q 2781 519 3026 730 
Q 3272 941 3272 1375 
Q 3272 1813 3026 2020 
Q 2781 2228 2272 2228 
L 1259 2228 
z
M 1259 4147 
L 1259 2741 
L 2194 2741 
Q 2656 2741 2882 2914 
Q 3109 3088 3109 3444 
Q 3109 3797 2882 3972 
Q 2656 4147 2194 4147 
L 1259 4147 
z
M 628 4666 
L 2241 4666 
Q 2963 4666 3353 4366 
Q 3744 4066 3744 3513 
Q 3744 3084 3544 2831 
Q 3344 2578 2956 2516 
Q 3422 2416 3680 2098 
Q 3938 1781 3938 1306 
Q 3938 681 3513 340 
Q 3088 0 2303 0 
L 628 0 
L 628 4666 
z
" transform="scale(0.015625)"/>
     </defs>
     <use xlink:href="#DejaVuSans-79"/>
     <use xlink:href="#DejaVuSans-42" x="59.179688"/>
    </g>
   </g>
   <g id="legend_4">
    <g id="patch_25">
     <path d="M 64.6 247.526345 
L 142.309375 247.526345 
Q 144.309375 247.526345 144.309375 245.526345 
L 144.309375 217.170095 
Q 144.309375 215.170095 142.309375 215.170095 
L 64.6 215.170095 
Q 62.6 215.170095 62.6 217.170095 
L 62.6 245.526345 
Q 62.6 247.526345 64.6 247.526345 
z
" style="fill: #ffffff; opacity: 0.8; stroke: #cccccc; stroke-linejoin: miter"/>
    </g>
    <g id="line2d_51">
     <path d="M 66.6 223.268532 
L 76.6 223.268532 
L 86.6 223.268532 
" style="fill: none; stroke: #1f77b4; stroke-width: 1.5; stroke-linecap: square"/>
    </g>
    <g id="text_24">
     <!-- yB0 (in) -->
     <g transform="translate(94.6 226.768532)scale(0.1 -0.1)">
      <use xlink:href="#DejaVuSans-79"/>
      <use xlink:href="#DejaVuSans-42" x="59.179688"/>
      <use xlink:href="#DejaVuSans-30" x="127.783203"/>
      <use xlink:href="#DejaVuSans-20" x="191.40625"/>
      <use xlink:href="#DejaVuSans-28" x="223.193359"/>
      <use xlink:href="#DejaVuSans-69" x="262.207031"/>
      <use xlink:href="#DejaVuSans-6e" x="289.990234"/>
      <use xlink:href="#DejaVuSans-29" x="353.369141"/>
     </g>
    </g>
    <g id="line2d_52">
     <path d="M 66.6 237.946657 
L 76.6 237.946657 
L 86.6 237.946657 
" style="fill: none; stroke: #ff7f0e; stroke-width: 1.5; stroke-linecap: square"/>
    </g>
    <g id="text_25">
     <!-- yBL (out) -->
     <g transform="translate(94.6 241.446657)scale(0.1 -0.1)">
      <use xlink:href="#DejaVuSans-79"/>
      <use xlink:href="#DejaVuSans-42" x="59.179688"/>
      <use xlink:href="#DejaVuSans-4c" x="127.783203"/>
      <use xlink:href="#DejaVuSans-20" x="183.496094"/>
      <use xlink:href="#DejaVuSans-28" x="215.283203"/>
      <use xlink:href="#DejaVuSans-6f" x="254.296875"/>
      <use xlink:href="#DejaVuSans-75" x="315.478516"/>
      <use xlink:href="#DejaVuSans-74" x="378.857422"/>
      <use xlink:href="#DejaVuSans-29" x="418.066406"/>
     </g>
    </g>
   </g>
  </g>
  <g id="axes_5">
   <g id="patch_26">
    <path d="M 57.6 307.584 
L 414.72 307.584 
L 414.72 261.702621 
L 57.6 261.702621 
z
" style="fill: #ffffff"/>
   </g>
   <g id="matplotlib.axis_9">
    <g id="xtick_25">
     <g id="line2d_53">
      <g>
       <use xlink:href="#m3f87fc6480" x="73.832727" y="307.584" style="stroke: #000000; stroke-width: 0.8"/>
      </g>
     </g>
     <g id="text_26">
      <!-- 0 -->
      <g transform="translate(70.651477 322.182437)scale(0.1 -0.1)">
       <use xlink:href="#DejaVuSans-30"/>
      </g>
     </g>
    </g>
    <g id="xtick_26">
     <g id="line2d_54">
      <g>
       <use xlink:href="#m3f87fc6480" x="138.763636" y="307.584" style="stroke: #000000; stroke-width: 0.8"/>
      </g>
     </g>
     <g id="text_27">
      <!-- 20 -->
      <g transform="translate(132.401136 322.182437)scale(0.1 -0.1)">
       <defs>
        <path id="DejaVuSans-32" d="M 1228 531 
L 3431 531 
L 3431 0 
L 469 0 
L 469 531 
Q 828 903 1448 1529 
Q 2069 2156 2228 2338 
Q 2531 2678 2651 2914 
Q 2772 3150 2772 3378 
Q 2772 3750 2511 3984 
Q 2250 4219 1831 4219 
Q 1534 4219 1204 4116 
Q 875 4013 500 3803 
L 500 4441 
Q 881 4594 1212 4672 
Q 1544 4750 1819 4750 
Q 2544 4750 2975 4387 
Q 3406 4025 3406 3419 
Q 3406 3131 3298 2873 
Q 3191 2616 2906 2266 
Q 2828 2175 2409 1742 
Q 1991 1309 1228 531 
z
" transform="scale(0.015625)"/>
       </defs>
       <use xlink:href="#DejaVuSans-32"/>
       <use xlink:href="#DejaVuSans-30" x="63.623047"/>
      </g>
     </g>
    </g>
    <g id="xtick_27">
     <g id="line2d_55">
      <g>
       <use xlink:href="#m3f87fc6480" x="203.694545" y="307.584" style="stroke: #000000; stroke-width: 0.8"/>
      </g>
     </g>
     <g id="text_28">
      <!-- 40 -->
      <g transform="translate(197.332045 322.182437)scale(0.1 -0.1)">
       <defs>
        <path id="DejaVuSans-34" d="M 2419 4116 
L 825 1625 
L 2419 1625 
L 2419 4116 
z
M 2253 4666 
L 3047 4666 
L 3047 1625 
L 3713 1625 
L 3713 1100 
L 3047 1100 
L 3047 0 
L 2419 0 
L 2419 1100 
L 313 1100 
L 313 1709 
L 2253 4666 
z
" transform="scale(0.015625)"/>
       </defs>
       <use xlink:href="#DejaVuSans-34"/>
       <use xlink:href="#DejaVuSans-30" x="63.623047"/>
      </g>
     </g>
    </g>
    <g id="xtick_28">
     <g id="line2d_56">
      <g>
       <use xlink:href="#m3f87fc6480" x="268.625455" y="307.584" style="stroke: #000000; stroke-width: 0.8"/>
      </g>
     </g>
     <g id="text_29">
      <!-- 60 -->
      <g transform="translate(262.262955 322.182437)scale(0.1 -0.1)">
       <defs>
        <path id="DejaVuSans-36" d="M 2113 2584 
Q 1688 2584 1439 2293 
Q 1191 2003 1191 1497 
Q 1191 994 1439 701 
Q 1688 409 2113 409 
Q 2538 409 2786 701 
Q 3034 994 3034 1497 
Q 3034 2003 2786 2293 
Q 2538 2584 2113 2584 
z
M 3366 4563 
L 3366 3988 
Q 3128 4100 2886 4159 
Q 2644 4219 2406 4219 
Q 1781 4219 1451 3797 
Q 1122 3375 1075 2522 
Q 1259 2794 1537 2939 
Q 1816 3084 2150 3084 
Q 2853 3084 3261 2657 
Q 3669 2231 3669 1497 
Q 3669 778 3244 343 
Q 2819 -91 2113 -91 
Q 1303 -91 875 529 
Q 447 1150 447 2328 
Q 447 3434 972 4092 
Q 1497 4750 2381 4750 
Q 2619 4750 2861 4703 
Q 3103 4656 3366 4563 
z
" transform="scale(0.015625)"/>
       </defs>
       <use xlink:href="#DejaVuSans-36"/>
       <use xlink:href="#DejaVuSans-30" x="63.623047"/>
      </g>
     </g>
    </g>
    <g id="xtick_29">
     <g id="line2d_57">
      <g>
       <use xlink:href="#m3f87fc6480" x="333.556364" y="307.584" style="stroke: #000000; stroke-width: 0.8"/>
      </g>
     </g>
     <g id="text_30">
      <!-- 80 -->
      <g transform="translate(327.193864 322.182437)scale(0.1 -0.1)">
       <use xlink:href="#DejaVuSans-38"/>
       <use xlink:href="#DejaVuSans-30" x="63.623047"/>
      </g>
     </g>
    </g>
    <g id="xtick_30">
     <g id="line2d_58">
      <g>
       <use xlink:href="#m3f87fc6480" x="398.487273" y="307.584" style="stroke: #000000; stroke-width: 0.8"/>
      </g>
     </g>
     <g id="text_31">
      <!-- 100 -->
      <g transform="translate(388.943523 322.182437)scale(0.1 -0.1)">
       <use xlink:href="#DejaVuSans-31"/>
       <use xlink:href="#DejaVuSans-30" x="63.623047"/>
       <use xlink:href="#DejaVuSans-30" x="127.246094"/>
      </g>
     </g>
    </g>
    <g id="text_32">
     <!-- time (normalized) -->
     <g transform="translate(191.589687 335.860562)scale(0.1 -0.1)">
      <use xlink:href="#DejaVuSans-74"/>
      <use xlink:href="#DejaVuSans-69" x="39.208984"/>
      <use xlink:href="#DejaVuSans-6d" x="66.992188"/>
      <use xlink:href="#DejaVuSans-65" x="164.404297"/>
      <use xlink:href="#DejaVuSans-20" x="225.927734"/>
      <use xlink:href="#DejaVuSans-28" x="257.714844"/>
      <use xlink:href="#DejaVuSans-6e" x="296.728516"/>
      <use xlink:href="#DejaVuSans-6f" x="360.107422"/>
      <use xlink:href="#DejaVuSans-72" x="421.289062"/>
      <use xlink:href="#DejaVuSans-6d" x="460.652344"/>
      <use xlink:href="#DejaVuSans-61" x="558.064453"/>
      <use xlink:href="#DejaVuSans-6c" x="619.34375"/>
      <use xlink:href="#DejaVuSans-69" x="647.126953"/>
      <use xlink:href="#DejaVuSans-7a" x="674.910156"/>
      <use xlink:href="#DejaVuSans-65" x="727.400391"/>
      <use xlink:href="#DejaVuSans-64" x="788.923828"/>
      <use xlink:href="#DejaVuSans-29" x="852.400391"/>
     </g>
    </g>
   </g>
   <g id="matplotlib.axis_10">
    <g id="ytick_9">
     <g id="line2d_59">
      <g>
       <use xlink:href="#mf15282f08a" x="57.6" y="294.216004" style="stroke: #000000; stroke-width: 0.8"/>
      </g>
     </g>
     <g id="text_33">
      <!-- 0.05 -->
      <g transform="translate(28.334375 298.015222)scale(0.1 -0.1)">
       <use xlink:href="#DejaVuSans-30"/>
       <use xlink:href="#DejaVuSans-2e" x="63.623047"/>
       <use xlink:href="#DejaVuSans-30" x="95.410156"/>
       <use xlink:href="#DejaVuSans-35" x="159.033203"/>
      </g>
     </g>
    </g>
    <g id="ytick_10">
     <g id="line2d_60">
      <g>
       <use xlink:href="#mf15282f08a" x="57.6" y="263.805797" style="stroke: #000000; stroke-width: 0.8"/>
      </g>
     </g>
     <g id="text_34">
      <!-- 0.06 -->
      <g transform="translate(28.334375 267.605016)scale(0.1 -0.1)">
       <use xlink:href="#DejaVuSans-30"/>
       <use xlink:href="#DejaVuSans-2e" x="63.623047"/>
       <use xlink:href="#DejaVuSans-30" x="95.410156"/>
       <use xlink:href="#DejaVuSans-36" x="159.033203"/>
      </g>
     </g>
    </g>
    <g id="text_35">
     <!-- fraction -->
     <g transform="translate(22.254687 303.84956)rotate(-90)scale(0.1 -0.1)">
      <use xlink:href="#DejaVuSans-66"/>
      <use xlink:href="#DejaVuSans-72" x="35.205078"/>
      <use xlink:href="#DejaVuSans-61" x="76.318359"/>
      <use xlink:href="#DejaVuSans-63" x="137.597656"/>
      <use xlink:href="#DejaVuSans-74" x="192.578125"/>
      <use xlink:href="#DejaVuSans-69" x="231.787109"/>
      <use xlink:href="#DejaVuSans-6f" x="259.570312"/>
      <use xlink:href="#DejaVuSans-6e" x="320.751953"/>
     </g>
    </g>
   </g>
   <g id="line2d_61">
    <path d="M 73.832727 270.564836 
L 77.079273 294.951243 
L 80.325818 295.131753 
L 83.572364 295.086875 
L 86.818909 294.671118 
L 90.065455 295.213746 
L 93.312 295.401825 
L 96.558545 295.334573 
L 99.805091 295.181112 
L 103.051636 295.120676 
L 106.298182 295.154077 
L 109.544727 295.169732 
L 112.791273 295.17728 
L 116.037818 295.182095 
L 119.284364 295.176705 
L 122.530909 295.184334 
L 125.777455 294.101832 
L 129.024 294.102339 
L 132.270545 294.110208 
L 135.517091 294.122637 
L 138.763636 294.136501 
L 142.010182 294.149518 
L 145.256727 294.161697 
L 148.503273 294.17227 
L 151.749818 294.181196 
L 154.996364 294.188555 
L 158.242909 294.194539 
L 161.489455 294.199113 
L 164.736 294.202766 
L 167.982545 294.205505 
L 171.229091 294.207475 
L 174.475636 294.035033 
L 177.722182 293.680433 
L 180.968727 293.204969 
L 184.215273 292.646574 
L 187.461818 292.06075 
L 190.708364 291.518895 
L 193.954909 291.072767 
L 197.201455 290.734449 
L 200.448 290.49907 
L 203.694545 290.336731 
L 206.941091 290.230859 
L 210.187636 290.162665 
L 213.434182 290.118977 
L 216.680727 290.092518 
L 219.927273 290.075893 
L 223.173818 290.066296 
L 226.420364 290.058944 
L 229.666909 290.056831 
L 232.913455 290.053082 
L 236.16 290.051406 
L 239.406545 290.050472 
L 242.653091 290.050193 
L 245.899636 290.049925 
L 249.146182 290.049657 
L 252.392727 290.049467 
L 255.639273 290.049396 
L 258.885818 290.049326 
L 262.132364 290.049262 
L 265.378909 290.04923 
L 268.625455 290.049222 
L 271.872 287.805199 
L 275.118545 285.080522 
L 278.365091 282.340978 
L 281.611636 279.965133 
L 284.858182 278.068745 
L 288.104727 276.663903 
L 291.351273 275.639493 
L 294.597818 274.877193 
L 297.844364 274.309141 
L 301.090909 273.878912 
L 304.337455 273.5436 
L 307.584 273.271267 
L 310.830545 273.045277 
L 314.077091 272.851921 
L 317.323636 272.679246 
L 320.570182 272.520332 
L 323.816727 272.374691 
L 327.063273 272.238922 
L 330.309818 272.110591 
L 333.556364 271.988935 
L 336.802909 271.873435 
L 340.049455 271.764759 
L 343.296 271.662006 
L 346.542545 271.564349 
L 349.789091 271.471832 
L 353.035636 271.383835 
L 356.282182 271.30049 
L 359.528727 271.221892 
L 362.775273 271.147706 
L 366.021818 271.077696 
L 369.268364 271.011713 
L 372.514909 270.949425 
L 375.761455 270.89052 
L 379.008 270.834825 
L 382.254545 270.782324 
L 385.501091 270.7327 
L 388.747636 270.685743 
L 391.994182 270.64134 
L 395.240727 270.599403 
L 398.487273 270.55974 
" clip-path="url(#pdd3923ddbd)" style="fill: none; stroke: #1f77b4; stroke-width: 1.5; stroke-linecap: square"/>
   </g>
   <g id="line2d_62">
    <path d="M 73.832727 263.788138 
L 77.079273 304.456593 
L 80.325818 305.163342 
L 83.572364 305.34194 
L 86.818909 305.415165 
L 90.065455 305.450558 
L 93.312 305.470044 
L 96.558545 305.481271 
L 99.805091 305.487807 
L 103.051636 305.49193 
L 106.298182 305.49454 
L 109.544727 305.496135 
L 112.791273 305.497106 
L 116.037818 305.497967 
L 119.284364 305.498394 
L 122.530909 305.498483 
L 125.777455 302.504524 
L 129.024 300.887063 
L 132.270545 299.434126 
L 135.517091 298.157761 
L 138.763636 297.07458 
L 142.010182 296.170554 
L 145.256727 295.436008 
L 148.503273 294.852549 
L 151.749818 294.391043 
L 154.996364 294.046806 
L 158.242909 293.796832 
L 161.489455 293.619964 
L 164.736 293.501433 
L 167.982545 293.415764 
L 171.229091 293.355428 
L 174.475636 293.22601 
L 177.722182 292.84851 
L 180.968727 292.347414 
L 184.215273 291.760632 
L 187.461818 291.144782 
L 190.708364 290.575529 
L 193.954909 290.107387 
L 197.201455 289.75497 
L 200.448 289.513763 
L 203.694545 289.349575 
L 206.941091 289.244124 
L 210.187636 289.177359 
L 213.434182 289.135271 
L 216.680727 289.110151 
L 219.927273 289.094573 
L 223.173818 289.085565 
L 226.420364 289.07874 
L 229.666909 289.076899 
L 232.913455 289.073258 
L 236.16 289.071695 
L 239.406545 289.070802 
L 242.653091 289.070463 
L 245.899636 289.070123 
L 249.146182 289.069784 
L 252.392727 289.06952 
L 255.639273 289.069372 
L 258.885818 289.069225 
L 262.132364 289.069084 
L 265.378909 289.068973 
L 268.625455 289.068871 
L 271.872 287.0144 
L 275.118545 284.775513 
L 278.365091 282.77931 
L 281.611636 281.094035 
L 284.858182 279.635928 
L 288.104727 278.350758 
L 291.351273 277.197055 
L 294.597818 276.14358 
L 297.844364 275.181136 
L 301.090909 274.298479 
L 304.337455 273.487403 
L 307.584 272.739539 
L 310.830545 272.049495 
L 314.077091 271.412196 
L 317.323636 270.822507 
L 320.570182 270.274781 
L 323.816727 269.766871 
L 327.063273 269.294392 
L 330.309818 268.855805 
L 333.556364 268.447043 
L 336.802909 268.064862 
L 340.049455 267.708497 
L 343.296 267.375519 
L 346.542545 267.063982 
L 349.789091 266.773365 
L 353.035636 266.501613 
L 356.282182 266.246976 
L 359.528727 266.007718 
L 362.775273 265.782431 
L 366.021818 265.571491 
L 369.268364 265.373246 
L 372.514909 265.186931 
L 375.761455 265.011742 
L 379.008 264.846866 
L 382.254545 264.692511 
L 385.501091 264.547473 
L 388.747636 264.411055 
L 391.994182 264.28267 
L 395.240727 264.161759 
L 398.487273 264.047641 
" clip-path="url(#pdd3923ddbd)" style="fill: none; stroke: #ff7f0e; stroke-width: 1.5; stroke-linecap: square"/>
   </g>
   <g id="patch_27">
    <path d="M 57.6 307.584 
L 57.6 261.702621 
" style="fill: none; stroke: #000000; stroke-width: 0.8; stroke-linejoin: miter; stroke-linecap: square"/>
   </g>
   <g id="patch_28">
    <path d="M 414.72 307.584 
L 414.72 261.702621 
" style="fill: none; stroke: #000000; stroke-width: 0.8; stroke-linejoin: miter; stroke-linecap: square"/>
   </g>
   <g id="patch_29">
    <path d="M 57.6 307.584 
L 414.72 307.584 
" style="fill: none; stroke: #000000; stroke-width: 0.8; stroke-linejoin: miter; stroke-linecap: square"/>
   </g>
   <g id="patch_30">
    <path d="M 57.6 261.702621 
L 414.72 261.702621 
" style="fill: none; stroke: #000000; stroke-width: 0.8; stroke-linejoin: miter; stroke-linecap: square"/>
   </g>
   <g id="text_36">
    <!-- yC -->
    <g transform="translate(228.419062 255.702621)scale(0.12 -0.12)">
     <defs>
      <path id="DejaVuSans-43" d="M 4122 4306 
L 4122 3641 
Q 3803 3938 3442 4084 
Q 3081 4231 2675 4231 
Q 1875 4231 1450 3742 
Q 1025 3253 1025 2328 
Q 1025 1406 1450 917 
Q 1875 428 2675 428 
Q 3081 428 3442 575 
Q 3803 722 4122 1019 
L 4122 359 
Q 3791 134 3420 21 
Q 3050 -91 2638 -91 
Q 1578 -91 968 557 
Q 359 1206 359 2328 
Q 359 3453 968 4101 
Q 1578 4750 2638 4750 
Q 3056 4750 3426 4639 
Q 3797 4528 4122 4306 
z
" transform="scale(0.015625)"/>
     </defs>
     <use xlink:href="#DejaVuSans-79"/>
     <use xlink:href="#DejaVuSans-43" x="59.179688"/>
    </g>
   </g>
   <g id="legend_5">
    <g id="patch_31">
     <path d="M 329.88875 302.584 
L 407.72 302.584 
Q 409.72 302.584 409.72 300.584 
L 409.72 272.22775 
Q 409.72 270.22775 407.72 270.22775 
L 329.88875 270.22775 
Q 327.88875 270.22775 327.88875 272.22775 
L 327.88875 300.584 
Q 327.88875 302.584 329.88875 302.584 
z
" style="fill: #ffffff; opacity: 0.8; stroke: #cccccc; stroke-linejoin: miter"/>
    </g>
    <g id="line2d_63">
     <path d="M 331.88875 278.326187 
L 341.88875 278.326187 
L 351.88875 278.326187 
" style="fill: none; stroke: #1f77b4; stroke-width: 1.5; stroke-linecap: square"/>
    </g>
    <g id="text_37">
     <!-- yC0 (in) -->
     <g transform="translate(359.88875 281.826187)scale(0.1 -0.1)">
      <use xlink:href="#DejaVuSans-79"/>
      <use xlink:href="#DejaVuSans-43" x="59.179688"/>
      <use xlink:href="#DejaVuSans-30" x="129.003906"/>
      <use xlink:href="#DejaVuSans-20" x="192.626953"/>
      <use xlink:href="#DejaVuSans-28" x="224.414062"/>
      <use xlink:href="#DejaVuSans-69" x="263.427734"/>
      <use xlink:href="#DejaVuSans-6e" x="291.210938"/>
      <use xlink:href="#DejaVuSans-29" x="354.589844"/>
     </g>
    </g>
    <g id="line2d_64">
     <path d="M 331.88875 293.004312 
L 341.88875 293.004312 
L 351.88875 293.004312 
" style="fill: none; stroke: #ff7f0e; stroke-width: 1.5; stroke-linecap: square"/>
    </g>
    <g id="text_38">
     <!-- yCL (out) -->
     <g transform="translate(359.88875 296.504312)scale(0.1 -0.1)">
      <use xlink:href="#DejaVuSans-79"/>
      <use xlink:href="#DejaVuSans-43" x="59.179688"/>
      <use xlink:href="#DejaVuSans-4c" x="129.003906"/>
      <use xlink:href="#DejaVuSans-20" x="184.716797"/>
      <use xlink:href="#DejaVuSans-28" x="216.503906"/>
      <use xlink:href="#DejaVuSans-6f" x="255.517578"/>
      <use xlink:href="#DejaVuSans-75" x="316.699219"/>
      <use xlink:href="#DejaVuSans-74" x="380.078125"/>
      <use xlink:href="#DejaVuSans-29" x="419.287109"/>
     </g>
    </g>
   </g>
  </g>
 </g>
 <defs>
  <clipPath id="pd0a0cae271">
   <rect x="57.6" y="41.472" width="357.12" height="45.881379"/>
  </clipPath>
  <clipPath id="p6f53536966">
   <rect x="57.6" y="96.529655" width="357.12" height="45.881379"/>
  </clipPath>
  <clipPath id="p7dbf476b4c">
   <rect x="57.6" y="151.58731" width="357.12" height="45.881379"/>
  </clipPath>
  <clipPath id="pb91830e11c">
   <rect x="57.6" y="206.644966" width="357.12" height="45.881379"/>
  </clipPath>
  <clipPath id="pdd3923ddbd">
   <rect x="57.6" y="261.702621" width="357.12" height="45.881379"/>
  </clipPath>
 </defs>
</svg>
