<?xml version="1.0" encoding="utf-8" standalone="no"?>
<!DOCTYPE svg PUBLIC "-//W3C//DTD SVG 1.1//EN"
  "http://www.w3.org/Graphics/SVG/1.1/DTD/svg11.dtd">
<svg xmlns:xlink="http://www.w3.org/1999/xlink" width="460.8pt" height="345.6pt" viewBox="0 0 460.8 345.6" xmlns="http://www.w3.org/2000/svg" version="1.1">
 <metadata>
  <rdf:RDF xmlns:dc="http://purl.org/dc/elements/1.1/" xmlns:cc="http://creativecommons.org/ns#" xmlns:rdf="http://www.w3.org/1999/02/22-rdf-syntax-ns#">
   <cc:Work>
    <dc:type rdf:resource="http://purl.org/dc/dcmitype/StillImage"/>
    <dc:date>2022-07-10T00:04:43.716777</dc:date>
    <dc:format>image/svg+xml</dc:format>
    <dc:creator>
     <cc:Agent>
      <dc:title>Matplotlib v3.5.2, https://matplotlib.org/</dc:title>
     </cc:Agent>
    </dc:creator>
   </cc:Work>
  </rdf:RDF>
 </metadata>
 <defs>
  <style type="text/css">*{stroke-linejoin: round; stroke-linecap: butt}</style>
 </defs>
 <g id="figure_1">
  <g id="patch_1">
   <path d="M 0 345.6 
L 460.8 345.6 
L 460.8 0 
L 0 0 
z
" style="fill: #ffffff"/>
  </g>
  <g id="axes_1">
   <g id="patch_2">
    <path d="M 57.6 87.353379 
L 414.72 87.353379 
L 414.72 41.472 
L 57.6 41.472 
z
" style="fill: #ffffff"/>
   </g>
   <g id="matplotlib.axis_1">
    <g id="xtick_1">
     <g id="line2d_1">
      <defs>
       <path id="m034cba985c" d="M 0 0 
L 0 3.5 
" style="stroke: #000000; stroke-width: 0.8"/>
      </defs>
      <g>
       <use xlink:href="#m034cba985c" x="73.832727" y="87.353379" style="stroke: #000000; stroke-width: 0.8"/>
      </g>
     </g>
    </g>
    <g id="xtick_2">
     <g id="line2d_2">
      <g>
       <use xlink:href="#m034cba985c" x="138.763636" y="87.353379" style="stroke: #000000; stroke-width: 0.8"/>
      </g>
     </g>
    </g>
    <g id="xtick_3">
     <g id="line2d_3">
      <g>
       <use xlink:href="#m034cba985c" x="203.694545" y="87.353379" style="stroke: #000000; stroke-width: 0.8"/>
      </g>
     </g>
    </g>
    <g id="xtick_4">
     <g id="line2d_4">
      <g>
       <use xlink:href="#m034cba985c" x="268.625455" y="87.353379" style="stroke: #000000; stroke-width: 0.8"/>
      </g>
     </g>
    </g>
    <g id="xtick_5">
     <g id="line2d_5">
      <g>
       <use xlink:href="#m034cba985c" x="333.556364" y="87.353379" style="stroke: #000000; stroke-width: 0.8"/>
      </g>
     </g>
    </g>
    <g id="xtick_6">
     <g id="line2d_6">
      <g>
       <use xlink:href="#m034cba985c" x="398.487273" y="87.353379" style="stroke: #000000; stroke-width: 0.8"/>
      </g>
     </g>
    </g>
   </g>
   <g id="matplotlib.axis_2">
    <g id="ytick_1">
     <g id="line2d_7">
      <defs>
       <path id="m189bbe4c36" d="M 0 0 
L -3.5 0 
" style="stroke: #000000; stroke-width: 0.8"/>
      </defs>
      <g>
       <use xlink:href="#m189bbe4c36" x="57.6" y="81.198009" style="stroke: #000000; stroke-width: 0.8"/>
      </g>
     </g>
     <g id="text_1">
      <!-- −10 -->
      <g transform="translate(29.495313 84.997228)scale(0.1 -0.1)">
       <defs>
        <path id="DejaVuSans-2212" d="M 678 2272 
L 4684 2272 
L 4684 1741 
L 678 1741 
L 678 2272 
z
" transform="scale(0.015625)"/>
        <path id="DejaVuSans-31" d="M 794 531 
L 1825 531 
L 1825 4091 
L 703 3866 
L 703 4441 
L 1819 4666 
L 2450 4666 
L 2450 531 
L 3481 531 
L 3481 0 
L 794 0 
L 794 531 
z
" transform="scale(0.015625)"/>
        <path id="DejaVuSans-30" d="M 2034 4250 
Q 1547 4250 1301 3770 
Q 1056 3291 1056 2328 
Q 1056 1369 1301 889 
Q 1547 409 2034 409 
Q 2525 409 2770 889 
Q 3016 1369 3016 2328 
Q 3016 3291 2770 3770 
Q 2525 4250 2034 4250 
z
M 2034 4750 
Q 2819 4750 3233 4129 
Q 3647 3509 3647 2328 
Q 3647 1150 3233 529 
Q 2819 -91 2034 -91 
Q 1250 -91 836 529 
Q 422 1150 422 2328 
Q 422 3509 836 4129 
Q 1250 4750 2034 4750 
z
" transform="scale(0.015625)"/>
       </defs>
       <use xlink:href="#DejaVuSans-2212"/>
       <use xlink:href="#DejaVuSans-31" x="83.789062"/>
       <use xlink:href="#DejaVuSans-30" x="147.412109"/>
      </g>
     </g>
    </g>
    <g id="ytick_2">
     <g id="line2d_8">
      <g>
       <use xlink:href="#m189bbe4c36" x="57.6" y="56.525672" style="stroke: #000000; stroke-width: 0.8"/>
      </g>
     </g>
     <g id="text_2">
      <!-- 0 -->
      <g transform="translate(44.2375 60.324891)scale(0.1 -0.1)">
       <use xlink:href="#DejaVuSans-30"/>
      </g>
     </g>
    </g>
    <g id="text_3">
     <!-- flow rate (normalized) -->
     <g transform="translate(23.415625 119.729877)rotate(-90)scale(0.1 -0.1)">
      <defs>
       <path id="DejaVuSans-66" d="M 2375 4863 
L 2375 4384 
L 1825 4384 
Q 1516 4384 1395 4259 
Q 1275 4134 1275 3809 
L 1275 3500 
L 2222 3500 
L 2222 3053 
L 1275 3053 
L 1275 0 
L 697 0 
L 697 3053 
L 147 3053 
L 147 3500 
L 697 3500 
L 697 3744 
Q 697 4328 969 4595 
Q 1241 4863 1831 4863 
L 2375 4863 
z
" transform="scale(0.015625)"/>
       <path id="DejaVuSans-6c" d="M 603 4863 
L 1178 4863 
L 1178 0 
L 603 0 
L 603 4863 
z
" transform="scale(0.015625)"/>
       <path id="DejaVuSans-6f" d="M 1959 3097 
Q 1497 3097 1228 2736 
Q 959 2375 959 1747 
Q 959 1119 1226 758 
Q 1494 397 1959 397 
Q 2419 397 2687 759 
Q 2956 1122 2956 1747 
Q 2956 2369 2687 2733 
Q 2419 3097 1959 3097 
z
M 1959 3584 
Q 2709 3584 3137 3096 
Q 3566 2609 3566 1747 
Q 3566 888 3137 398 
Q 2709 -91 1959 -91 
Q 1206 -91 779 398 
Q 353 888 353 1747 
Q 353 2609 779 3096 
Q 1206 3584 1959 3584 
z
" transform="scale(0.015625)"/>
       <path id="DejaVuSans-77" d="M 269 3500 
L 844 3500 
L 1563 769 
L 2278 3500 
L 2956 3500 
L 3675 769 
L 4391 3500 
L 4966 3500 
L 4050 0 
L 3372 0 
L 2619 2869 
L 1863 0 
L 1184 0 
L 269 3500 
z
" transform="scale(0.015625)"/>
       <path id="DejaVuSans-20" transform="scale(0.015625)"/>
       <path id="DejaVuSans-72" d="M 2631 2963 
Q 2534 3019 2420 3045 
Q 2306 3072 2169 3072 
Q 1681 3072 1420 2755 
Q 1159 2438 1159 1844 
L 1159 0 
L 581 0 
L 581 3500 
L 1159 3500 
L 1159 2956 
Q 1341 3275 1631 3429 
Q 1922 3584 2338 3584 
Q 2397 3584 2469 3576 
Q 2541 3569 2628 3553 
L 2631 2963 
z
" transform="scale(0.015625)"/>
       <path id="DejaVuSans-61" d="M 2194 1759 
Q 1497 1759 1228 1600 
Q 959 1441 959 1056 
Q 959 750 1161 570 
Q 1363 391 1709 391 
Q 2188 391 2477 730 
Q 2766 1069 2766 1631 
L 2766 1759 
L 2194 1759 
z
M 3341 1997 
L 3341 0 
L 2766 0 
L 2766 531 
Q 2569 213 2275 61 
Q 1981 -91 1556 -91 
Q 1019 -91 701 211 
Q 384 513 384 1019 
Q 384 1609 779 1909 
Q 1175 2209 1959 2209 
L 2766 2209 
L 2766 2266 
Q 2766 2663 2505 2880 
Q 2244 3097 1772 3097 
Q 1472 3097 1187 3025 
Q 903 2953 641 2809 
L 641 3341 
Q 956 3463 1253 3523 
Q 1550 3584 1831 3584 
Q 2591 3584 2966 3190 
Q 3341 2797 3341 1997 
z
" transform="scale(0.015625)"/>
       <path id="DejaVuSans-74" d="M 1172 4494 
L 1172 3500 
L 2356 3500 
L 2356 3053 
L 1172 3053 
L 1172 1153 
Q 1172 725 1289 603 
Q 1406 481 1766 481 
L 2356 481 
L 2356 0 
L 1766 0 
Q 1100 0 847 248 
Q 594 497 594 1153 
L 594 3053 
L 172 3053 
L 172 3500 
L 594 3500 
L 594 4494 
L 1172 4494 
z
" transform="scale(0.015625)"/>
       <path id="DejaVuSans-65" d="M 3597 1894 
L 3597 1613 
L 953 1613 
Q 991 1019 1311 708 
Q 1631 397 2203 397 
Q 2534 397 2845 478 
Q 3156 559 3463 722 
L 3463 178 
Q 3153 47 2828 -22 
Q 2503 -91 2169 -91 
Q 1331 -91 842 396 
Q 353 884 353 1716 
Q 353 2575 817 3079 
Q 1281 3584 2069 3584 
Q 2775 3584 3186 3129 
Q 3597 2675 3597 1894 
z
M 3022 2063 
Q 3016 2534 2758 2815 
Q 2500 3097 2075 3097 
Q 1594 3097 1305 2825 
Q 1016 2553 972 2059 
L 3022 2063 
z
" transform="scale(0.015625)"/>
       <path id="DejaVuSans-28" d="M 1984 4856 
Q 1566 4138 1362 3434 
Q 1159 2731 1159 2009 
Q 1159 1288 1364 580 
Q 1569 -128 1984 -844 
L 1484 -844 
Q 1016 -109 783 600 
Q 550 1309 550 2009 
Q 550 2706 781 3412 
Q 1013 4119 1484 4856 
L 1984 4856 
z
" transform="scale(0.015625)"/>
       <path id="DejaVuSans-6e" d="M 3513 2113 
L 3513 0 
L 2938 0 
L 2938 2094 
Q 2938 2591 2744 2837 
Q 2550 3084 2163 3084 
Q 1697 3084 1428 2787 
Q 1159 2491 1159 1978 
L 1159 0 
L 581 0 
L 581 3500 
L 1159 3500 
L 1159 2956 
Q 1366 3272 1645 3428 
Q 1925 3584 2291 3584 
Q 2894 3584 3203 3211 
Q 3513 2838 3513 2113 
z
" transform="scale(0.015625)"/>
       <path id="DejaVuSans-6d" d="M 3328 2828 
Q 3544 3216 3844 3400 
Q 4144 3584 4550 3584 
Q 5097 3584 5394 3201 
Q 5691 2819 5691 2113 
L 5691 0 
L 5113 0 
L 5113 2094 
Q 5113 2597 4934 2840 
Q 4756 3084 4391 3084 
Q 3944 3084 3684 2787 
Q 3425 2491 3425 1978 
L 3425 0 
L 2847 0 
L 2847 2094 
Q 2847 2600 2669 2842 
Q 2491 3084 2119 3084 
Q 1678 3084 1418 2786 
Q 1159 2488 1159 1978 
L 1159 0 
L 581 0 
L 581 3500 
L 1159 3500 
L 1159 2956 
Q 1356 3278 1631 3431 
Q 1906 3584 2284 3584 
Q 2666 3584 2933 3390 
Q 3200 3197 3328 2828 
z
" transform="scale(0.015625)"/>
       <path id="DejaVuSans-69" d="M 603 3500 
L 1178 3500 
L 1178 0 
L 603 0 
L 603 3500 
z
M 603 4863 
L 1178 4863 
L 1178 4134 
L 603 4134 
L 603 4863 
z
" transform="scale(0.015625)"/>
       <path id="DejaVuSans-7a" d="M 353 3500 
L 3084 3500 
L 3084 2975 
L 922 459 
L 3084 459 
L 3084 0 
L 275 0 
L 275 525 
L 2438 3041 
L 353 3041 
L 353 3500 
z
" transform="scale(0.015625)"/>
       <path id="DejaVuSans-64" d="M 2906 2969 
L 2906 4863 
L 3481 4863 
L 3481 0 
L 2906 0 
L 2906 525 
Q 2725 213 2448 61 
Q 2172 -91 1784 -91 
Q 1150 -91 751 415 
Q 353 922 353 1747 
Q 353 2572 751 3078 
Q 1150 3584 1784 3584 
Q 2172 3584 2448 3432 
Q 2725 3281 2906 2969 
z
M 947 1747 
Q 947 1113 1208 752 
Q 1469 391 1925 391 
Q 2381 391 2643 752 
Q 2906 1113 2906 1747 
Q 2906 2381 2643 2742 
Q 2381 3103 1925 3103 
Q 1469 3103 1208 2742 
Q 947 2381 947 1747 
z
" transform="scale(0.015625)"/>
       <path id="DejaVuSans-29" d="M 513 4856 
L 1013 4856 
Q 1481 4119 1714 3412 
Q 1947 2706 1947 2009 
Q 1947 1309 1714 600 
Q 1481 -109 1013 -844 
L 513 -844 
Q 928 -128 1133 580 
Q 1338 1288 1338 2009 
Q 1338 2731 1133 3434 
Q 928 4138 513 4856 
z
" transform="scale(0.015625)"/>
      </defs>
      <use xlink:href="#DejaVuSans-66"/>
      <use xlink:href="#DejaVuSans-6c" x="35.205078"/>
      <use xlink:href="#DejaVuSans-6f" x="62.988281"/>
      <use xlink:href="#DejaVuSans-77" x="124.169922"/>
      <use xlink:href="#DejaVuSans-20" x="205.957031"/>
      <use xlink:href="#DejaVuSans-72" x="237.744141"/>
      <use xlink:href="#DejaVuSans-61" x="278.857422"/>
      <use xlink:href="#DejaVuSans-74" x="340.136719"/>
      <use xlink:href="#DejaVuSans-65" x="379.345703"/>
      <use xlink:href="#DejaVuSans-20" x="440.869141"/>
      <use xlink:href="#DejaVuSans-28" x="472.65625"/>
      <use xlink:href="#DejaVuSans-6e" x="511.669922"/>
      <use xlink:href="#DejaVuSans-6f" x="575.048828"/>
      <use xlink:href="#DejaVuSans-72" x="636.230469"/>
      <use xlink:href="#DejaVuSans-6d" x="675.59375"/>
      <use xlink:href="#DejaVuSans-61" x="773.005859"/>
      <use xlink:href="#DejaVuSans-6c" x="834.285156"/>
      <use xlink:href="#DejaVuSans-69" x="862.068359"/>
      <use xlink:href="#DejaVuSans-7a" x="889.851562"/>
      <use xlink:href="#DejaVuSans-65" x="942.341797"/>
      <use xlink:href="#DejaVuSans-64" x="1003.865234"/>
      <use xlink:href="#DejaVuSans-29" x="1067.341797"/>
     </g>
    </g>
   </g>
   <g id="line2d_9">
    <path d="M 73.832727 59.265734 
L 77.079273 50.094242 
L 80.325818 54.277742 
L 83.572364 55.504236 
L 86.818909 56.010403 
L 90.065455 56.251041 
L 93.312 56.376184 
L 96.558545 56.44166 
L 99.805091 56.47681 
L 103.051636 56.496631 
L 106.298182 56.508918 
L 109.544727 56.51568 
L 112.791273 56.519958 
L 116.037818 56.521895 
L 119.284364 56.52358 
L 122.530909 56.390339 
L 125.777455 54.058692 
L 129.024 54.058345 
L 132.270545 54.058173 
L 135.517091 54.058088 
L 138.763636 54.057967 
L 142.010182 54.05788 
L 145.256727 54.057816 
L 148.503273 54.057781 
L 151.749818 54.057755 
L 154.996364 54.057736 
L 158.242909 54.057736 
L 161.489455 54.057716 
L 164.736 54.057704 
L 167.982545 54.057695 
L 171.229091 54.956631 
L 174.475636 55.893905 
L 177.722182 55.822595 
L 180.968727 55.710275 
L 184.215273 55.514074 
L 187.461818 55.337032 
L 190.708364 55.223778 
L 193.954909 55.235463 
L 197.201455 55.367012 
L 200.448 55.56212 
L 203.694545 55.773492 
L 206.941091 55.966646 
L 210.187636 56.12547 
L 213.434182 56.237976 
L 216.680727 56.332668 
L 219.927273 56.395199 
L 223.173818 56.441036 
L 226.420364 56.469525 
L 229.666909 56.489501 
L 232.913455 56.502556 
L 236.16 56.510923 
L 239.406545 56.516323 
L 242.653091 56.519805 
L 245.899636 56.52165 
L 249.146182 56.522841 
L 252.392727 56.523413 
L 255.639273 56.524253 
L 258.885818 56.52436 
L 262.132364 56.524714 
L 265.378909 56.52501 
L 268.625455 56.53296 
L 271.872 59.970991 
L 275.118545 62.724128 
L 278.365091 64.333282 
L 281.611636 64.907929 
L 284.858182 64.943809 
L 288.104727 64.739413 
L 291.351273 64.442943 
L 294.597818 64.120933 
L 297.844364 63.800272 
L 301.090909 63.4927 
L 304.337455 63.198551 
L 307.584 62.926399 
L 310.830545 62.668711 
L 314.077091 62.427582 
L 317.323636 62.202085 
L 320.570182 61.9912 
L 323.816727 61.793457 
L 327.063273 61.608389 
L 330.309818 61.43411 
L 333.556364 61.270252 
L 336.802909 61.116133 
L 340.049455 60.97063 
L 343.296 60.833027 
L 346.542545 60.702859 
L 349.789091 60.579454 
L 353.035636 60.462179 
L 356.282182 60.35049 
L 359.528727 60.244388 
L 362.775273 60.143232 
L 366.021818 60.046684 
L 369.268364 59.954389 
L 372.514909 59.865942 
L 375.761455 59.781185 
L 379.008 59.699723 
L 382.254545 59.621512 
L 385.501091 59.546495 
L 388.747636 59.474265 
L 391.994182 59.404583 
L 395.240727 59.337409 
L 398.487273 59.27282 
" clip-path="url(#pc40bd0cce2)" style="fill: none; stroke: #1f77b4; stroke-width: 1.5; stroke-linecap: square"/>
   </g>
   <g id="line2d_10">
    <path d="M 73.832727 62.581985 
L 77.079273 43.557517 
L 80.325818 51.938325 
L 83.572364 54.438739 
L 86.818909 55.472696 
L 90.065455 55.964725 
L 93.312 56.220506 
L 96.558545 56.354279 
L 99.805091 56.426062 
L 103.051636 56.466516 
L 106.298182 56.49155 
L 109.544727 56.505337 
L 112.791273 56.514045 
L 116.037818 56.517994 
L 119.284364 56.521418 
L 122.530909 54.915356 
L 125.777455 54.059901 
L 129.024 54.05976 
L 132.270545 54.059652 
L 135.517091 54.059563 
L 138.763636 54.059466 
L 142.010182 54.059376 
L 145.256727 54.059292 
L 148.503273 54.059215 
L 151.749818 54.059141 
L 154.996364 54.05907 
L 158.242909 54.059004 
L 161.489455 54.058937 
L 164.736 54.058874 
L 167.982545 54.058814 
L 171.229091 56.0082 
L 174.475636 56.410916 
L 177.722182 56.398249 
L 180.968727 56.378372 
L 184.215273 56.343496 
L 187.461818 56.312254 
L 190.708364 56.292431 
L 193.954909 56.29476 
L 197.201455 56.318244 
L 200.448 56.352931 
L 203.694545 56.390536 
L 206.941091 56.42498 
L 210.187636 56.453404 
L 213.434182 56.47357 
L 216.680727 56.490636 
L 219.927273 56.501921 
L 223.173818 56.510225 
L 226.420364 56.515403 
L 229.666909 56.51904 
L 232.913455 56.521423 
L 236.16 56.522953 
L 239.406545 56.52394 
L 242.653091 56.524582 
L 245.899636 56.524922 
L 249.146182 56.525143 
L 252.392727 56.52525 
L 255.639273 56.525404 
L 258.885818 56.525425 
L 262.132364 56.525489 
L 265.378909 56.525544 
L 268.625455 56.545745 
L 271.872 64.21473 
L 275.118545 72.23201 
L 278.365091 79.179398 
L 281.611636 83.406316 
L 284.858182 85.196453 
L 288.104727 85.267862 
L 291.351273 84.392966 
L 294.597818 83.075854 
L 297.844364 81.60935 
L 301.090909 80.097374 
L 304.337455 78.637931 
L 307.584 77.270187 
L 310.830545 75.993986 
L 314.077091 74.82092 
L 317.323636 73.747455 
L 320.570182 72.768607 
L 323.816727 71.874865 
L 327.063273 71.05988 
L 330.309818 70.31436 
L 333.556364 69.63172 
L 336.802909 69.004908 
L 340.049455 68.427458 
L 343.296 67.893359 
L 346.542545 67.398568 
L 349.789091 66.939693 
L 353.035636 66.51256 
L 356.282182 66.113043 
L 359.528727 65.740582 
L 362.775273 65.390804 
L 366.021818 65.062219 
L 369.268364 64.753133 
L 372.514909 64.460827 
L 375.761455 64.185229 
L 379.008 63.923947 
L 382.254545 63.676656 
L 385.501091 63.442946 
L 388.747636 63.220722 
L 391.994182 63.008699 
L 395.240727 62.806451 
L 398.487273 62.614073 
" clip-path="url(#pc40bd0cce2)" style="fill: none; stroke: #ff7f0e; stroke-width: 1.5; stroke-linecap: square"/>
   </g>
   <g id="line2d_11">
    <path d="M 73.832727 56.818881 
L 77.079273 55.81214 
L 80.325818 56.277196 
L 83.572364 56.412842 
L 86.818909 56.468765 
L 90.065455 56.49534 
L 93.312 56.509161 
L 96.558545 56.516393 
L 99.805091 56.520275 
L 103.051636 56.522465 
L 106.298182 56.523823 
L 109.544727 56.52457 
L 112.791273 56.525043 
L 116.037818 56.525257 
L 119.284364 56.525443 
L 122.530909 57.310645 
L 125.777455 54.055471 
L 129.024 54.054942 
L 132.270545 54.054692 
L 135.517091 54.054585 
L 138.763636 54.054419 
L 142.010182 54.054308 
L 145.256727 54.054235 
L 148.503273 54.05421 
L 151.749818 54.054198 
L 154.996364 54.054198 
L 158.242909 54.054231 
L 161.489455 54.054231 
L 164.736 54.054244 
L 167.982545 54.054265 
L 171.229091 54.674091 
L 174.475636 55.432904 
L 177.722182 55.307746 
L 180.968727 55.109407 
L 184.215273 54.763317 
L 187.461818 54.447353 
L 190.708364 54.242277 
L 193.954909 54.259883 
L 197.201455 54.493224 
L 200.448 54.841087 
L 203.694545 55.216901 
L 206.941091 55.558382 
L 210.187636 55.837057 
L 213.434182 56.033194 
L 216.680727 56.197138 
L 219.927273 56.30481 
L 223.173818 56.383284 
L 226.420364 56.431503 
L 229.666909 56.465307 
L 232.913455 56.487261 
L 236.16 56.501278 
L 239.406545 56.510333 
L 242.653091 56.516062 
L 245.899636 56.519099 
L 249.146182 56.521033 
L 252.392727 56.521949 
L 255.639273 56.523336 
L 258.885818 56.523504 
L 262.132364 56.524091 
L 265.378909 56.524585 
L 268.625455 56.526357 
L 271.872 56.895629 
L 275.118545 57.171689 
L 278.365091 57.319537 
L 281.611636 57.366095 
L 284.858182 57.364192 
L 288.104727 57.342209 
L 291.351273 57.313013 
L 294.597818 57.282131 
L 297.844364 57.251697 
L 301.090909 57.222707 
L 304.337455 57.195019 
L 307.584 57.16949 
L 310.830545 57.145307 
L 314.077091 57.122652 
L 317.323636 57.101459 
L 320.570182 57.081604 
L 323.816727 57.062954 
L 327.063273 57.045469 
L 330.309818 57.028962 
L 333.556364 57.013406 
L 336.802909 56.998741 
L 340.049455 56.984861 
L 343.296 56.971701 
L 346.542545 56.959227 
L 349.789091 56.947372 
L 353.035636 56.936077 
L 356.282182 56.925296 
L 359.528727 56.91503 
L 362.775273 56.905222 
L 366.021818 56.89584 
L 369.268364 56.886852 
L 372.514909 56.878221 
L 375.761455 56.869932 
L 379.008 56.86195 
L 382.254545 56.85427 
L 385.501091 56.846889 
L 388.747636 56.839768 
L 391.994182 56.832886 
L 395.240727 56.826239 
L 398.487273 56.819835 
" clip-path="url(#pc40bd0cce2)" style="fill: none; stroke: #2ca02c; stroke-width: 1.5; stroke-linecap: square"/>
   </g>
   <g id="patch_3">
    <path d="M 57.6 87.353379 
L 57.6 41.472 
" style="fill: none; stroke: #000000; stroke-width: 0.8; stroke-linejoin: miter; stroke-linecap: square"/>
   </g>
   <g id="patch_4">
    <path d="M 414.72 87.353379 
L 414.72 41.472 
" style="fill: none; stroke: #000000; stroke-width: 0.8; stroke-linejoin: miter; stroke-linecap: square"/>
   </g>
   <g id="patch_5">
    <path d="M 57.6 87.353379 
L 414.72 87.353379 
" style="fill: none; stroke: #000000; stroke-width: 0.8; stroke-linejoin: miter; stroke-linecap: square"/>
   </g>
   <g id="patch_6">
    <path d="M 57.6 41.472 
L 414.72 41.472 
" style="fill: none; stroke: #000000; stroke-width: 0.8; stroke-linejoin: miter; stroke-linecap: square"/>
   </g>
   <g id="text_4">
    <!-- velocity vs time (container 1)   -->
    <g transform="translate(144.106875 35.472)scale(0.12 -0.12)">
     <defs>
      <path id="DejaVuSans-76" d="M 191 3500 
L 800 3500 
L 1894 563 
L 2988 3500 
L 3597 3500 
L 2284 0 
L 1503 0 
L 191 3500 
z
" transform="scale(0.015625)"/>
      <path id="DejaVuSans-63" d="M 3122 3366 
L 3122 2828 
Q 2878 2963 2633 3030 
Q 2388 3097 2138 3097 
Q 1578 3097 1268 2742 
Q 959 2388 959 1747 
Q 959 1106 1268 751 
Q 1578 397 2138 397 
Q 2388 397 2633 464 
Q 2878 531 3122 666 
L 3122 134 
Q 2881 22 2623 -34 
Q 2366 -91 2075 -91 
Q 1284 -91 818 406 
Q 353 903 353 1747 
Q 353 2603 823 3093 
Q 1294 3584 2113 3584 
Q 2378 3584 2631 3529 
Q 2884 3475 3122 3366 
z
" transform="scale(0.015625)"/>
      <path id="DejaVuSans-79" d="M 2059 -325 
Q 1816 -950 1584 -1140 
Q 1353 -1331 966 -1331 
L 506 -1331 
L 506 -850 
L 844 -850 
Q 1081 -850 1212 -737 
Q 1344 -625 1503 -206 
L 1606 56 
L 191 3500 
L 800 3500 
L 1894 763 
L 2988 3500 
L 3597 3500 
L 2059 -325 
z
" transform="scale(0.015625)"/>
      <path id="DejaVuSans-73" d="M 2834 3397 
L 2834 2853 
Q 2591 2978 2328 3040 
Q 2066 3103 1784 3103 
Q 1356 3103 1142 2972 
Q 928 2841 928 2578 
Q 928 2378 1081 2264 
Q 1234 2150 1697 2047 
L 1894 2003 
Q 2506 1872 2764 1633 
Q 3022 1394 3022 966 
Q 3022 478 2636 193 
Q 2250 -91 1575 -91 
Q 1294 -91 989 -36 
Q 684 19 347 128 
L 347 722 
Q 666 556 975 473 
Q 1284 391 1588 391 
Q 1994 391 2212 530 
Q 2431 669 2431 922 
Q 2431 1156 2273 1281 
Q 2116 1406 1581 1522 
L 1381 1569 
Q 847 1681 609 1914 
Q 372 2147 372 2553 
Q 372 3047 722 3315 
Q 1072 3584 1716 3584 
Q 2034 3584 2315 3537 
Q 2597 3491 2834 3397 
z
" transform="scale(0.015625)"/>
     </defs>
     <use xlink:href="#DejaVuSans-76"/>
     <use xlink:href="#DejaVuSans-65" x="59.179688"/>
     <use xlink:href="#DejaVuSans-6c" x="120.703125"/>
     <use xlink:href="#DejaVuSans-6f" x="148.486328"/>
     <use xlink:href="#DejaVuSans-63" x="209.667969"/>
     <use xlink:href="#DejaVuSans-69" x="264.648438"/>
     <use xlink:href="#DejaVuSans-74" x="292.431641"/>
     <use xlink:href="#DejaVuSans-79" x="331.640625"/>
     <use xlink:href="#DejaVuSans-20" x="390.820312"/>
     <use xlink:href="#DejaVuSans-76" x="422.607422"/>
     <use xlink:href="#DejaVuSans-73" x="481.787109"/>
     <use xlink:href="#DejaVuSans-20" x="533.886719"/>
     <use xlink:href="#DejaVuSans-74" x="565.673828"/>
     <use xlink:href="#DejaVuSans-69" x="604.882812"/>
     <use xlink:href="#DejaVuSans-6d" x="632.666016"/>
     <use xlink:href="#DejaVuSans-65" x="730.078125"/>
     <use xlink:href="#DejaVuSans-20" x="791.601562"/>
     <use xlink:href="#DejaVuSans-28" x="823.388672"/>
     <use xlink:href="#DejaVuSans-63" x="862.402344"/>
     <use xlink:href="#DejaVuSans-6f" x="917.382812"/>
     <use xlink:href="#DejaVuSans-6e" x="978.564453"/>
     <use xlink:href="#DejaVuSans-74" x="1041.943359"/>
     <use xlink:href="#DejaVuSans-61" x="1081.152344"/>
     <use xlink:href="#DejaVuSans-69" x="1142.431641"/>
     <use xlink:href="#DejaVuSans-6e" x="1170.214844"/>
     <use xlink:href="#DejaVuSans-65" x="1233.59375"/>
     <use xlink:href="#DejaVuSans-72" x="1295.117188"/>
     <use xlink:href="#DejaVuSans-20" x="1336.230469"/>
     <use xlink:href="#DejaVuSans-31" x="1368.017578"/>
     <use xlink:href="#DejaVuSans-29" x="1431.640625"/>
     <use xlink:href="#DejaVuSans-20" x="1470.654297"/>
     <use xlink:href="#DejaVuSans-20" x="1502.441406"/>
    </g>
   </g>
   <g id="legend_1">
    <g id="patch_7">
     <path d="M 64.6 93.506375 
L 139.240625 93.506375 
Q 141.240625 93.506375 141.240625 91.506375 
L 141.240625 48.472 
Q 141.240625 46.472 139.240625 46.472 
L 64.6 46.472 
Q 62.6 46.472 62.6 48.472 
L 62.6 91.506375 
Q 62.6 93.506375 64.6 93.506375 
z
" style="fill: #ffffff; opacity: 0.8; stroke: #cccccc; stroke-linejoin: miter"/>
    </g>
    <g id="line2d_12">
     <path d="M 66.6 54.570437 
L 76.6 54.570437 
L 86.6 54.570437 
" style="fill: none; stroke: #1f77b4; stroke-width: 1.5; stroke-linecap: square"/>
    </g>
    <g id="text_5">
     <!-- mid flow -->
     <g transform="translate(94.6 58.070437)scale(0.1 -0.1)">
      <use xlink:href="#DejaVuSans-6d"/>
      <use xlink:href="#DejaVuSans-69" x="97.412109"/>
      <use xlink:href="#DejaVuSans-64" x="125.195312"/>
      <use xlink:href="#DejaVuSans-20" x="188.671875"/>
      <use xlink:href="#DejaVuSans-66" x="220.458984"/>
      <use xlink:href="#DejaVuSans-6c" x="255.664062"/>
      <use xlink:href="#DejaVuSans-6f" x="283.447266"/>
      <use xlink:href="#DejaVuSans-77" x="344.628906"/>
     </g>
    </g>
    <g id="line2d_13">
     <path d="M 66.6 69.248562 
L 76.6 69.248562 
L 86.6 69.248562 
" style="fill: none; stroke: #ff7f0e; stroke-width: 1.5; stroke-linecap: square"/>
    </g>
    <g id="text_6">
     <!-- v0 flow -->
     <g transform="translate(94.6 72.748562)scale(0.1 -0.1)">
      <use xlink:href="#DejaVuSans-76"/>
      <use xlink:href="#DejaVuSans-30" x="59.179688"/>
      <use xlink:href="#DejaVuSans-20" x="122.802734"/>
      <use xlink:href="#DejaVuSans-66" x="154.589844"/>
      <use xlink:href="#DejaVuSans-6c" x="189.794922"/>
      <use xlink:href="#DejaVuSans-6f" x="217.578125"/>
      <use xlink:href="#DejaVuSans-77" x="278.759766"/>
     </g>
    </g>
    <g id="line2d_14">
     <path d="M 66.6 83.926687 
L 76.6 83.926687 
L 86.6 83.926687 
" style="fill: none; stroke: #2ca02c; stroke-width: 1.5; stroke-linecap: square"/>
    </g>
    <g id="text_7">
     <!-- vN flow -->
     <g transform="translate(94.6 87.426687)scale(0.1 -0.1)">
      <defs>
       <path id="DejaVuSans-4e" d="M 628 4666 
L 1478 4666 
L 3547 763 
L 3547 4666 
L 4159 4666 
L 4159 0 
L 3309 0 
L 1241 3903 
L 1241 0 
L 628 0 
L 628 4666 
z
" transform="scale(0.015625)"/>
      </defs>
      <use xlink:href="#DejaVuSans-76"/>
      <use xlink:href="#DejaVuSans-4e" x="59.179688"/>
      <use xlink:href="#DejaVuSans-20" x="133.984375"/>
      <use xlink:href="#DejaVuSans-66" x="165.771484"/>
      <use xlink:href="#DejaVuSans-6c" x="200.976562"/>
      <use xlink:href="#DejaVuSans-6f" x="228.759766"/>
      <use xlink:href="#DejaVuSans-77" x="289.941406"/>
     </g>
    </g>
   </g>
  </g>
  <g id="axes_2">
   <g id="patch_8">
    <path d="M 57.6 142.411034 
L 414.72 142.411034 
L 414.72 96.529655 
L 57.6 96.529655 
z
" style="fill: #ffffff"/>
   </g>
   <g id="matplotlib.axis_3">
    <g id="xtick_7">
     <g id="line2d_15">
      <g>
       <use xlink:href="#m034cba985c" x="73.832727" y="142.411034" style="stroke: #000000; stroke-width: 0.8"/>
      </g>
     </g>
    </g>
    <g id="xtick_8">
     <g id="line2d_16">
      <g>
       <use xlink:href="#m034cba985c" x="138.763636" y="142.411034" style="stroke: #000000; stroke-width: 0.8"/>
      </g>
     </g>
    </g>
    <g id="xtick_9">
     <g id="line2d_17">
      <g>
       <use xlink:href="#m034cba985c" x="203.694545" y="142.411034" style="stroke: #000000; stroke-width: 0.8"/>
      </g>
     </g>
    </g>
    <g id="xtick_10">
     <g id="line2d_18">
      <g>
       <use xlink:href="#m034cba985c" x="268.625455" y="142.411034" style="stroke: #000000; stroke-width: 0.8"/>
      </g>
     </g>
    </g>
    <g id="xtick_11">
     <g id="line2d_19">
      <g>
       <use xlink:href="#m034cba985c" x="333.556364" y="142.411034" style="stroke: #000000; stroke-width: 0.8"/>
      </g>
     </g>
    </g>
    <g id="xtick_12">
     <g id="line2d_20">
      <g>
       <use xlink:href="#m034cba985c" x="398.487273" y="142.411034" style="stroke: #000000; stroke-width: 0.8"/>
      </g>
     </g>
    </g>
   </g>
   <g id="matplotlib.axis_4">
    <g id="ytick_3">
     <g id="line2d_21">
      <g>
       <use xlink:href="#m189bbe4c36" x="57.6" y="140.756735" style="stroke: #000000; stroke-width: 0.8"/>
      </g>
     </g>
     <g id="text_8">
      <!-- 0 -->
      <g transform="translate(44.2375 144.555954)scale(0.1 -0.1)">
       <use xlink:href="#DejaVuSans-30"/>
      </g>
     </g>
    </g>
    <g id="ytick_4">
     <g id="line2d_22">
      <g>
       <use xlink:href="#m189bbe4c36" x="57.6" y="98.771462" style="stroke: #000000; stroke-width: 0.8"/>
      </g>
     </g>
     <g id="text_9">
      <!-- 1 -->
      <g transform="translate(44.2375 102.570681)scale(0.1 -0.1)">
       <use xlink:href="#DejaVuSans-31"/>
      </g>
     </g>
    </g>
   </g>
   <g id="line2d_23">
    <path d="M 73.832727 140.325517 
L 77.079273 124.005236 
L 80.325818 114.069286 
L 83.572364 108.049767 
L 86.818909 104.398734 
L 90.065455 102.184381 
L 93.312 100.841584 
L 96.558545 100.027226 
L 99.805091 99.534525 
L 103.051636 99.236471 
L 106.298182 99.051812 
L 109.544727 98.942195 
L 112.791273 98.874544 
L 116.037818 98.835378 
L 119.284364 98.809499 
L 122.530909 98.752871 
L 125.777455 98.615237 
L 129.024 98.615217 
L 132.270545 98.615206 
L 135.517091 98.615201 
L 138.763636 98.615193 
L 142.010182 98.615187 
L 145.256727 98.615183 
L 148.503273 98.61518 
L 151.749818 98.615178 
L 154.996364 98.615177 
L 158.242909 98.615176 
L 161.489455 98.615175 
L 164.736 98.615173 
L 167.982545 98.615172 
L 171.229091 98.685927 
L 174.475636 113.603604 
L 177.722182 122.620094 
L 180.968727 128.080399 
L 184.215273 131.388991 
L 187.461818 133.385985 
L 190.708364 134.599564 
L 193.954909 135.341275 
L 197.201455 135.797384 
L 200.448 136.081463 
L 203.694545 136.259327 
L 206.941091 136.370775 
L 210.187636 136.440796 
L 213.434182 136.484473 
L 216.680727 136.512412 
L 219.927273 136.529671 
L 223.173818 136.540603 
L 226.420364 136.54724 
L 229.666909 136.551434 
L 232.913455 136.554038 
L 236.16 136.555642 
L 239.406545 136.556655 
L 242.653091 136.557232 
L 245.899636 136.557561 
L 249.146182 136.55781 
L 252.392727 136.55792 
L 255.639273 136.558066 
L 258.885818 136.558077 
L 262.132364 136.558121 
L 265.378909 136.558151 
L 268.625455 136.559047 
L 271.872 138.030833 
L 275.118545 138.913611 
L 278.365091 139.443284 
L 281.611636 139.757992 
L 284.858182 139.947904 
L 288.104727 140.064347 
L 291.351273 140.138365 
L 294.597818 140.187002 
L 297.844364 140.220155 
L 301.090909 140.243156 
L 304.337455 140.259619 
L 307.584 140.271545 
L 310.830545 140.280485 
L 314.077091 140.287293 
L 317.323636 140.292621 
L 320.570182 140.29688 
L 323.816727 140.300365 
L 327.063273 140.303259 
L 330.309818 140.305723 
L 333.556364 140.307847 
L 336.802909 140.309708 
L 340.049455 140.311345 
L 343.296 140.312817 
L 346.542545 140.314137 
L 349.789091 140.315327 
L 353.035636 140.316412 
L 356.282182 140.317415 
L 359.528727 140.318324 
L 362.775273 140.319167 
L 366.021818 140.319947 
L 369.268364 140.320671 
L 372.514909 140.321349 
L 375.761455 140.321979 
L 379.008 140.32257 
L 382.254545 140.323123 
L 385.501091 140.32364 
L 388.747636 140.324128 
L 391.994182 140.324591 
L 395.240727 140.325029 
L 398.487273 140.32544 
" clip-path="url(#pd9a69c2801)" style="fill: none; stroke: #1f77b4; stroke-width: 1.5; stroke-linecap: square"/>
   </g>
   <g id="line2d_24">
    <path d="M 73.832727 140.172371 
L 77.079273 124.34317 
L 80.325818 114.188314 
L 83.572364 108.103894 
L 86.818909 104.426043 
L 90.065455 102.198933 
L 93.312 100.849502 
L 96.558545 100.031674 
L 99.805091 99.53711 
L 103.051636 99.238007 
L 106.298182 99.052698 
L 109.544727 98.942723 
L 112.791273 98.874846 
L 116.037818 98.835577 
L 119.284364 98.80961 
L 122.530909 98.783064 
L 125.777455 98.695313 
L 129.024 98.6953 
L 132.270545 98.695293 
L 135.517091 98.69529 
L 138.763636 98.695285 
L 142.010182 98.695282 
L 145.256727 98.69528 
L 148.503273 98.695279 
L 151.749818 98.695278 
L 154.996364 98.695278 
L 158.242909 98.695279 
L 161.489455 98.695278 
L 164.736 98.695278 
L 167.982545 98.695278 
L 171.229091 98.71828 
L 174.475636 113.613856 
L 177.722182 122.631493 
L 180.968727 128.093601 
L 184.215273 131.405347 
L 187.461818 133.405178 
L 190.708364 134.620563 
L 193.954909 135.362075 
L 197.201455 135.816068 
L 200.448 136.097014 
L 203.694545 136.271481 
L 206.941091 136.379822 
L 210.187636 136.447282 
L 213.434182 136.489142 
L 216.680727 136.515549 
L 219.927273 136.531795 
L 223.173818 136.541982 
L 226.420364 136.548157 
L 229.666909 136.552025 
L 232.913455 136.554417 
L 236.16 136.555884 
L 239.406545 136.556809 
L 242.653091 136.557328 
L 245.899636 136.557627 
L 249.146182 136.557856 
L 252.392727 136.557957 
L 255.639273 136.558089 
L 258.885818 136.558099 
L 262.132364 136.558137 
L 265.378909 136.558162 
L 268.625455 136.558575 
L 271.872 137.837621 
L 275.118545 138.537072 
L 278.365091 138.926725 
L 281.611636 139.166979 
L 284.858182 139.330915 
L 288.104727 139.451699 
L 291.351273 139.545652 
L 294.597818 139.621052 
L 297.844364 139.683014 
L 301.090909 139.735108 
L 304.337455 139.77957 
L 307.584 139.817649 
L 310.830545 139.851083 
L 314.077091 139.880515 
L 317.323636 139.90668 
L 320.570182 139.930082 
L 323.816727 139.951189 
L 327.063273 139.970283 
L 330.309818 139.987706 
L 333.556364 140.003644 
L 336.802909 140.018292 
L 340.049455 140.031804 
L 343.296 140.044342 
L 346.542545 140.055989 
L 349.789091 140.066828 
L 353.035636 140.07696 
L 356.282182 140.086478 
L 359.528727 140.095379 
L 362.775273 140.103766 
L 366.021818 140.111673 
L 369.268364 140.119138 
L 372.514909 140.126223 
L 375.761455 140.132928 
L 379.008 140.139308 
L 382.254545 140.145368 
L 385.501091 140.151117 
L 388.747636 140.156603 
L 391.994182 140.161853 
L 395.240727 140.166876 
L 398.487273 140.171664 
" clip-path="url(#pd9a69c2801)" style="fill: none; stroke: #ff7f0e; stroke-width: 1.5; stroke-linecap: square"/>
   </g>
   <g id="line2d_25">
    <path d="M 73.832727 140.128633 
L 77.079273 124.447573 
L 80.325818 114.224736 
L 83.572364 108.12044 
L 86.818909 104.434389 
L 90.065455 102.203381 
L 93.312 100.851923 
L 96.558545 100.033035 
L 99.805091 99.537902 
L 103.051636 99.238477 
L 106.298182 99.052969 
L 109.544727 98.942885 
L 112.791273 98.874939 
L 116.037818 98.835638 
L 119.284364 98.809644 
L 122.530909 98.77465 
L 125.777455 98.76745 
L 129.024 98.767449 
L 132.270545 98.767449 
L 135.517091 98.767449 
L 138.763636 98.767448 
L 142.010182 98.767448 
L 145.256727 98.767448 
L 148.503273 98.767448 
L 151.749818 98.767448 
L 154.996364 98.767448 
L 158.242909 98.767448 
L 161.489455 98.767448 
L 164.736 98.767448 
L 167.982545 98.767448 
L 171.229091 98.769218 
L 174.475636 113.639051 
L 177.722182 122.659556 
L 180.968727 128.126195 
L 184.215273 131.44585 
L 187.461818 133.452861 
L 190.708364 134.672875 
L 193.954909 135.413953 
L 197.201455 135.86263 
L 200.448 136.135669 
L 203.694545 136.301583 
L 206.941091 136.402129 
L 210.187636 136.463206 
L 213.434182 136.500559 
L 216.680727 136.523186 
L 219.927273 136.536943 
L 223.173818 136.545311 
L 226.420364 136.550361 
L 229.666909 136.553442 
L 232.913455 136.55532 
L 236.16 136.556459 
L 239.406545 136.557172 
L 242.653091 136.557556 
L 245.899636 136.557783 
L 249.146182 136.557966 
L 252.392727 136.558045 
L 255.639273 136.558145 
L 258.885818 136.55815 
L 262.132364 136.558174 
L 265.378909 136.558187 
L 268.625455 136.558464 
L 271.872 137.782529 
L 275.118545 138.439313 
L 278.365091 138.804995 
L 281.611636 139.03715 
L 284.858182 139.200938 
L 288.104727 139.325005 
L 291.351273 139.423518 
L 294.597818 139.503808 
L 297.844364 139.570615 
L 301.090909 139.627341 
L 304.337455 139.676229 
L 307.584 139.718397 
L 310.830545 139.755702 
L 314.077091 139.78876 
L 317.323636 139.818316 
L 320.570182 139.844891 
L 323.816727 139.868976 
L 327.063273 139.890859 
L 330.309818 139.910912 
L 333.556364 139.929325 
L 336.802909 139.946304 
L 340.049455 139.962019 
L 343.296 139.976643 
L 346.542545 139.990265 
L 349.789091 140.002979 
L 353.035636 140.014894 
L 356.282182 140.026113 
L 359.528727 140.03663 
L 362.775273 140.04656 
L 366.021818 140.055942 
L 369.268364 140.064818 
L 372.514909 140.073256 
L 375.761455 140.08126 
L 379.008 140.088888 
L 382.254545 140.096148 
L 385.501091 140.10305 
L 388.747636 140.109646 
L 391.994182 140.115969 
L 395.240727 140.122026 
L 398.487273 140.12781 
" clip-path="url(#pd9a69c2801)" style="fill: none; stroke: #2ca02c; stroke-width: 1.5; stroke-linecap: square"/>
   </g>
   <g id="patch_9">
    <path d="M 57.6 142.411034 
L 57.6 96.529655 
" style="fill: none; stroke: #000000; stroke-width: 0.8; stroke-linejoin: miter; stroke-linecap: square"/>
   </g>
   <g id="patch_10">
    <path d="M 414.72 142.411034 
L 414.72 96.529655 
" style="fill: none; stroke: #000000; stroke-width: 0.8; stroke-linejoin: miter; stroke-linecap: square"/>
   </g>
   <g id="patch_11">
    <path d="M 57.6 142.411034 
L 414.72 142.411034 
" style="fill: none; stroke: #000000; stroke-width: 0.8; stroke-linejoin: miter; stroke-linecap: square"/>
   </g>
   <g id="patch_12">
    <path d="M 57.6 96.529655 
L 414.72 96.529655 
" style="fill: none; stroke: #000000; stroke-width: 0.8; stroke-linejoin: miter; stroke-linecap: square"/>
   </g>
   <g id="text_10">
    <!-- Pressure -->
    <g transform="translate(210.546562 90.529655)scale(0.12 -0.12)">
     <defs>
      <path id="DejaVuSans-50" d="M 1259 4147 
L 1259 2394 
L 2053 2394 
Q 2494 2394 2734 2622 
Q 2975 2850 2975 3272 
Q 2975 3691 2734 3919 
Q 2494 4147 2053 4147 
L 1259 4147 
z
M 628 4666 
L 2053 4666 
Q 2838 4666 3239 4311 
Q 3641 3956 3641 3272 
Q 3641 2581 3239 2228 
Q 2838 1875 2053 1875 
L 1259 1875 
L 1259 0 
L 628 0 
L 628 4666 
z
" transform="scale(0.015625)"/>
      <path id="DejaVuSans-75" d="M 544 1381 
L 544 3500 
L 1119 3500 
L 1119 1403 
Q 1119 906 1312 657 
Q 1506 409 1894 409 
Q 2359 409 2629 706 
Q 2900 1003 2900 1516 
L 2900 3500 
L 3475 3500 
L 3475 0 
L 2900 0 
L 2900 538 
Q 2691 219 2414 64 
Q 2138 -91 1772 -91 
Q 1169 -91 856 284 
Q 544 659 544 1381 
z
M 1991 3584 
L 1991 3584 
z
" transform="scale(0.015625)"/>
     </defs>
     <use xlink:href="#DejaVuSans-50"/>
     <use xlink:href="#DejaVuSans-72" x="58.552734"/>
     <use xlink:href="#DejaVuSans-65" x="97.416016"/>
     <use xlink:href="#DejaVuSans-73" x="158.939453"/>
     <use xlink:href="#DejaVuSans-73" x="211.039062"/>
     <use xlink:href="#DejaVuSans-75" x="263.138672"/>
     <use xlink:href="#DejaVuSans-72" x="326.517578"/>
     <use xlink:href="#DejaVuSans-65" x="365.380859"/>
    </g>
   </g>
   <g id="legend_2">
    <g id="patch_13">
     <path d="M 350.823125 137.411034 
L 407.72 137.411034 
Q 409.72 137.411034 409.72 135.411034 
L 409.72 92.376659 
Q 409.72 90.376659 407.72 90.376659 
L 350.823125 90.376659 
Q 348.823125 90.376659 348.823125 92.376659 
L 348.823125 135.411034 
Q 348.823125 137.411034 350.823125 137.411034 
z
" style="fill: #ffffff; opacity: 0.8; stroke: #cccccc; stroke-linejoin: miter"/>
    </g>
    <g id="line2d_26">
     <path d="M 352.823125 98.475097 
L 362.823125 98.475097 
L 372.823125 98.475097 
" style="fill: none; stroke: #1f77b4; stroke-width: 1.5; stroke-linecap: square"/>
    </g>
    <g id="text_11">
     <!-- P1 -->
     <g transform="translate(380.823125 101.975097)scale(0.1 -0.1)">
      <use xlink:href="#DejaVuSans-50"/>
      <use xlink:href="#DejaVuSans-31" x="60.302734"/>
     </g>
    </g>
    <g id="line2d_27">
     <path d="M 352.823125 113.153222 
L 362.823125 113.153222 
L 372.823125 113.153222 
" style="fill: none; stroke: #ff7f0e; stroke-width: 1.5; stroke-linecap: square"/>
    </g>
    <g id="text_12">
     <!-- Pmid -->
     <g transform="translate(380.823125 116.653222)scale(0.1 -0.1)">
      <use xlink:href="#DejaVuSans-50"/>
      <use xlink:href="#DejaVuSans-6d" x="60.302734"/>
      <use xlink:href="#DejaVuSans-69" x="157.714844"/>
      <use xlink:href="#DejaVuSans-64" x="185.498047"/>
     </g>
    </g>
    <g id="line2d_28">
     <path d="M 352.823125 127.831347 
L 362.823125 127.831347 
L 372.823125 127.831347 
" style="fill: none; stroke: #2ca02c; stroke-width: 1.5; stroke-linecap: square"/>
    </g>
    <g id="text_13">
     <!-- PN -->
     <g transform="translate(380.823125 131.331347)scale(0.1 -0.1)">
      <use xlink:href="#DejaVuSans-50"/>
      <use xlink:href="#DejaVuSans-4e" x="60.302734"/>
     </g>
    </g>
   </g>
  </g>
  <g id="axes_3">
   <g id="patch_14">
    <path d="M 57.6 197.46869 
L 414.72 197.46869 
L 414.72 151.58731 
L 57.6 151.58731 
z
" style="fill: #ffffff"/>
   </g>
   <g id="matplotlib.axis_5">
    <g id="xtick_13">
     <g id="line2d_29">
      <g>
       <use xlink:href="#m034cba985c" x="73.832727" y="197.46869" style="stroke: #000000; stroke-width: 0.8"/>
      </g>
     </g>
    </g>
    <g id="xtick_14">
     <g id="line2d_30">
      <g>
       <use xlink:href="#m034cba985c" x="138.763636" y="197.46869" style="stroke: #000000; stroke-width: 0.8"/>
      </g>
     </g>
    </g>
    <g id="xtick_15">
     <g id="line2d_31">
      <g>
       <use xlink:href="#m034cba985c" x="203.694545" y="197.46869" style="stroke: #000000; stroke-width: 0.8"/>
      </g>
     </g>
    </g>
    <g id="xtick_16">
     <g id="line2d_32">
      <g>
       <use xlink:href="#m034cba985c" x="268.625455" y="197.46869" style="stroke: #000000; stroke-width: 0.8"/>
      </g>
     </g>
    </g>
    <g id="xtick_17">
     <g id="line2d_33">
      <g>
       <use xlink:href="#m034cba985c" x="333.556364" y="197.46869" style="stroke: #000000; stroke-width: 0.8"/>
      </g>
     </g>
    </g>
    <g id="xtick_18">
     <g id="line2d_34">
      <g>
       <use xlink:href="#m034cba985c" x="398.487273" y="197.46869" style="stroke: #000000; stroke-width: 0.8"/>
      </g>
     </g>
    </g>
   </g>
   <g id="matplotlib.axis_6">
    <g id="ytick_5">
     <g id="line2d_35">
      <g>
       <use xlink:href="#m189bbe4c36" x="57.6" y="189.679726" style="stroke: #000000; stroke-width: 0.8"/>
      </g>
     </g>
     <g id="text_14">
      <!-- 0.05 -->
      <g transform="translate(28.334375 193.478945)scale(0.1 -0.1)">
       <defs>
        <path id="DejaVuSans-2e" d="M 684 794 
L 1344 794 
L 1344 0 
L 684 0 
L 684 794 
z
" transform="scale(0.015625)"/>
        <path id="DejaVuSans-35" d="M 691 4666 
L 3169 4666 
L 3169 4134 
L 1269 4134 
L 1269 2991 
Q 1406 3038 1543 3061 
Q 1681 3084 1819 3084 
Q 2600 3084 3056 2656 
Q 3513 2228 3513 1497 
Q 3513 744 3044 326 
Q 2575 -91 1722 -91 
Q 1428 -91 1123 -41 
Q 819 9 494 109 
L 494 744 
Q 775 591 1075 516 
Q 1375 441 1709 441 
Q 2250 441 2565 725 
Q 2881 1009 2881 1497 
Q 2881 1984 2565 2268 
Q 2250 2553 1709 2553 
Q 1456 2553 1204 2497 
Q 953 2441 691 2322 
L 691 4666 
z
" transform="scale(0.015625)"/>
       </defs>
       <use xlink:href="#DejaVuSans-30"/>
       <use xlink:href="#DejaVuSans-2e" x="63.623047"/>
       <use xlink:href="#DejaVuSans-30" x="95.410156"/>
       <use xlink:href="#DejaVuSans-35" x="159.033203"/>
      </g>
     </g>
    </g>
    <g id="ytick_6">
     <g id="line2d_36">
      <g>
       <use xlink:href="#m189bbe4c36" x="57.6" y="176.359503" style="stroke: #000000; stroke-width: 0.8"/>
      </g>
     </g>
     <g id="text_15">
      <!-- 0.06 -->
      <g transform="translate(28.334375 180.158722)scale(0.1 -0.1)">
       <defs>
        <path id="DejaVuSans-36" d="M 2113 2584 
Q 1688 2584 1439 2293 
Q 1191 2003 1191 1497 
Q 1191 994 1439 701 
Q 1688 409 2113 409 
Q 2538 409 2786 701 
Q 3034 994 3034 1497 
Q 3034 2003 2786 2293 
Q 2538 2584 2113 2584 
z
M 3366 4563 
L 3366 3988 
Q 3128 4100 2886 4159 
Q 2644 4219 2406 4219 
Q 1781 4219 1451 3797 
Q 1122 3375 1075 2522 
Q 1259 2794 1537 2939 
Q 1816 3084 2150 3084 
Q 2853 3084 3261 2657 
Q 3669 2231 3669 1497 
Q 3669 778 3244 343 
Q 2819 -91 2113 -91 
Q 1303 -91 875 529 
Q 447 1150 447 2328 
Q 447 3434 972 4092 
Q 1497 4750 2381 4750 
Q 2619 4750 2861 4703 
Q 3103 4656 3366 4563 
z
" transform="scale(0.015625)"/>
       </defs>
       <use xlink:href="#DejaVuSans-30"/>
       <use xlink:href="#DejaVuSans-2e" x="63.623047"/>
       <use xlink:href="#DejaVuSans-30" x="95.410156"/>
       <use xlink:href="#DejaVuSans-36" x="159.033203"/>
      </g>
     </g>
    </g>
    <g id="ytick_7">
     <g id="line2d_37">
      <g>
       <use xlink:href="#m189bbe4c36" x="57.6" y="163.03928" style="stroke: #000000; stroke-width: 0.8"/>
      </g>
     </g>
     <g id="text_16">
      <!-- 0.07 -->
      <g transform="translate(28.334375 166.838499)scale(0.1 -0.1)">
       <defs>
        <path id="DejaVuSans-37" d="M 525 4666 
L 3525 4666 
L 3525 4397 
L 1831 0 
L 1172 0 
L 2766 4134 
L 525 4134 
L 525 4666 
z
" transform="scale(0.015625)"/>
       </defs>
       <use xlink:href="#DejaVuSans-30"/>
       <use xlink:href="#DejaVuSans-2e" x="63.623047"/>
       <use xlink:href="#DejaVuSans-30" x="95.410156"/>
       <use xlink:href="#DejaVuSans-37" x="159.033203"/>
      </g>
     </g>
    </g>
    <g id="text_17">
     <!-- fraction -->
     <g transform="translate(22.254687 193.73425)rotate(-90)scale(0.1 -0.1)">
      <use xlink:href="#DejaVuSans-66"/>
      <use xlink:href="#DejaVuSans-72" x="35.205078"/>
      <use xlink:href="#DejaVuSans-61" x="76.318359"/>
      <use xlink:href="#DejaVuSans-63" x="137.597656"/>
      <use xlink:href="#DejaVuSans-74" x="192.578125"/>
      <use xlink:href="#DejaVuSans-69" x="231.787109"/>
      <use xlink:href="#DejaVuSans-6f" x="259.570312"/>
      <use xlink:href="#DejaVuSans-6e" x="320.751953"/>
     </g>
    </g>
   </g>
   <g id="line2d_38">
    <path d="M 73.832727 153.672828 
L 77.079273 191.232251 
L 80.325818 191.524818 
L 83.572364 191.627781 
L 86.818909 191.677009 
L 90.065455 191.700806 
L 93.312 191.713536 
L 96.558545 191.71728 
L 99.805091 191.718952 
L 103.051636 191.712913 
L 106.298182 191.737919 
L 109.544727 191.748196 
L 112.791273 191.746841 
L 116.037818 191.747841 
L 119.284364 191.746884 
L 122.530909 191.737783 
L 125.777455 191.31888 
L 129.024 191.189466 
L 132.270545 191.076643 
L 135.517091 190.979069 
L 138.763636 190.874044 
L 142.010182 190.77684 
L 145.256727 190.686869 
L 148.503273 190.604466 
L 151.749818 190.528271 
L 154.996364 190.458209 
L 158.242909 190.395536 
L 161.489455 190.335287 
L 164.736 190.281006 
L 167.982545 190.232031 
L 171.229091 190.195623 
L 174.475636 190.040467 
L 177.722182 189.71881 
L 180.968727 189.301612 
L 184.215273 188.811795 
L 187.461818 188.305035 
L 190.708364 187.83603 
L 193.954909 187.445077 
L 197.201455 187.148472 
L 200.448 186.933272 
L 203.694545 186.784933 
L 206.941091 186.688832 
L 210.187636 186.616968 
L 213.434182 186.606551 
L 216.680727 186.564027 
L 219.927273 186.5502 
L 223.173818 186.528975 
L 226.420364 186.528792 
L 229.666909 186.523505 
L 232.913455 186.520615 
L 236.16 186.519074 
L 239.406545 186.516435 
L 242.653091 186.518092 
L 245.899636 186.517658 
L 249.146182 186.517698 
L 252.392727 186.51766 
L 255.639273 186.517595 
L 258.885818 186.517665 
L 262.132364 186.517709 
L 265.378909 186.517767 
L 268.625455 186.51715 
L 271.872 184.322566 
L 275.118545 181.347095 
L 278.365091 177.674773 
L 281.611636 173.728085 
L 284.858182 169.907902 
L 288.104727 166.584686 
L 291.351273 163.860949 
L 294.597818 161.71923 
L 297.844364 160.054125 
L 301.090909 158.783914 
L 304.337455 157.826399 
L 307.584 157.104358 
L 310.830545 156.548826 
L 314.077091 156.122264 
L 317.323636 155.785766 
L 320.570182 155.516366 
L 323.816727 155.29663 
L 327.063273 155.114718 
L 330.309818 154.960531 
L 333.556364 154.827851 
L 336.802909 154.711104 
L 340.049455 154.608907 
L 343.296 154.517257 
L 346.542545 154.434735 
L 349.789091 154.360373 
L 353.035636 154.292578 
L 356.282182 154.229694 
L 359.528727 154.172508 
L 362.775273 154.119262 
L 366.021818 154.069831 
L 369.268364 154.02399 
L 372.514909 153.980971 
L 375.761455 153.940841 
L 379.008 153.903036 
L 382.254545 153.867541 
L 385.501091 153.83432 
L 388.747636 153.802893 
L 391.994182 153.772993 
L 395.240727 153.744612 
L 398.487273 153.717901 
" clip-path="url(#p041d06744a)" style="fill: none; stroke: #1f77b4; stroke-width: 1.5; stroke-linecap: square"/>
   </g>
   <g id="line2d_39">
    <path d="M 73.832727 169.440441 
L 77.079273 194.456589 
L 80.325818 194.850056 
L 83.572364 194.966005 
L 86.818909 195.017384 
L 90.065455 195.043769 
L 93.312 195.058407 
L 96.558545 195.066898 
L 99.805091 195.071963 
L 103.051636 195.075061 
L 106.298182 195.077049 
L 109.544727 195.078315 
L 112.791273 195.079183 
L 116.037818 195.079781 
L 119.284364 195.080254 
L 122.530909 195.080112 
L 125.777455 195.140127 
L 129.024 195.161293 
L 132.270545 195.181484 
L 135.517091 195.200625 
L 138.763636 195.220308 
L 142.010182 195.239395 
L 145.256727 195.257867 
L 148.503273 195.275734 
L 151.749818 195.292984 
L 154.996364 195.309617 
L 158.242909 195.32562 
L 161.489455 195.341077 
L 164.736 195.355928 
L 167.982545 195.370186 
L 171.229091 195.383172 
L 174.475636 195.162317 
L 177.722182 194.865293 
L 180.968727 194.478417 
L 184.215273 194.021869 
L 187.461818 193.545199 
L 190.708364 193.101625 
L 193.954909 192.732472 
L 197.201455 192.456387 
L 200.448 192.260987 
L 203.694545 192.130731 
L 206.941091 192.049632 
L 210.187636 191.990918 
L 213.434182 191.983433 
L 216.680727 191.950032 
L 219.927273 191.940379 
L 223.173818 191.924493 
L 226.420364 191.924487 
L 229.666909 191.920807 
L 232.913455 191.918824 
L 236.16 191.917759 
L 239.406545 191.915909 
L 242.653091 191.917131 
L 245.899636 191.916818 
L 249.146182 191.916815 
L 252.392727 191.916753 
L 255.639273 191.916674 
L 258.885818 191.916677 
L 262.132364 191.916668 
L 265.378909 191.916669 
L 268.625455 191.916445 
L 271.872 190.334004 
L 275.118545 188.801502 
L 278.365091 187.49733 
L 281.611636 186.388439 
L 284.858182 185.405303 
L 288.104727 184.513041 
L 291.351273 183.687246 
L 294.597818 182.919158 
L 297.844364 182.202219 
L 301.090909 181.52337 
L 304.337455 180.890424 
L 307.584 180.284443 
L 310.830545 179.711053 
L 314.077091 179.17163 
L 317.323636 178.651764 
L 320.570182 178.15801 
L 323.816727 177.684352 
L 327.063273 177.231473 
L 330.309818 176.796894 
L 333.556364 176.378963 
L 336.802909 175.975936 
L 340.049455 175.588506 
L 343.296 175.214955 
L 346.542545 174.852359 
L 349.789091 174.502592 
L 353.035636 174.165384 
L 356.282182 173.839336 
L 359.528727 173.522161 
L 362.775273 173.213312 
L 366.021818 172.913698 
L 369.268364 172.623992 
L 372.514909 172.343309 
L 375.761455 172.068627 
L 379.008 171.799886 
L 382.254545 171.538457 
L 385.501091 171.285574 
L 388.747636 171.03963 
L 391.994182 170.800389 
L 395.240727 170.566852 
L 398.487273 170.337551 
" clip-path="url(#p041d06744a)" style="fill: none; stroke: #ff7f0e; stroke-width: 1.5; stroke-linecap: square"/>
   </g>
   <g id="patch_15">
    <path d="M 57.6 197.46869 
L 57.6 151.58731 
" style="fill: none; stroke: #000000; stroke-width: 0.8; stroke-linejoin: miter; stroke-linecap: square"/>
   </g>
   <g id="patch_16">
    <path d="M 414.72 197.46869 
L 414.72 151.58731 
" style="fill: none; stroke: #000000; stroke-width: 0.8; stroke-linejoin: miter; stroke-linecap: square"/>
   </g>
   <g id="patch_17">
    <path d="M 57.6 197.46869 
L 414.72 197.46869 
" style="fill: none; stroke: #000000; stroke-width: 0.8; stroke-linejoin: miter; stroke-linecap: square"/>
   </g>
   <g id="patch_18">
    <path d="M 57.6 151.58731 
L 414.72 151.58731 
" style="fill: none; stroke: #000000; stroke-width: 0.8; stroke-linejoin: miter; stroke-linecap: square"/>
   </g>
   <g id="text_18">
    <!-- yA -->
    <g transform="translate(228.504375 145.58731)scale(0.12 -0.12)">
     <defs>
      <path id="DejaVuSans-41" d="M 2188 4044 
L 1331 1722 
L 3047 1722 
L 2188 4044 
z
M 1831 4666 
L 2547 4666 
L 4325 0 
L 3669 0 
L 3244 1197 
L 1141 1197 
L 716 0 
L 50 0 
L 1831 4666 
z
" transform="scale(0.015625)"/>
     </defs>
     <use xlink:href="#DejaVuSans-79"/>
     <use xlink:href="#DejaVuSans-41" x="59.179688"/>
    </g>
   </g>
   <g id="legend_3">
    <g id="patch_19">
     <path d="M 64.6 188.94356 
L 142.289062 188.94356 
Q 144.289062 188.94356 144.289062 186.94356 
L 144.289062 158.58731 
Q 144.289062 156.58731 142.289062 156.58731 
L 64.6 156.58731 
Q 62.6 156.58731 62.6 158.58731 
L 62.6 186.94356 
Q 62.6 188.94356 64.6 188.94356 
z
" style="fill: #ffffff; opacity: 0.8; stroke: #cccccc; stroke-linejoin: miter"/>
    </g>
    <g id="line2d_40">
     <path d="M 66.6 164.685748 
L 76.6 164.685748 
L 86.6 164.685748 
" style="fill: none; stroke: #1f77b4; stroke-width: 1.5; stroke-linecap: square"/>
    </g>
    <g id="text_19">
     <!-- yA0 (in) -->
     <g transform="translate(94.6 168.185748)scale(0.1 -0.1)">
      <use xlink:href="#DejaVuSans-79"/>
      <use xlink:href="#DejaVuSans-41" x="59.179688"/>
      <use xlink:href="#DejaVuSans-30" x="127.587891"/>
      <use xlink:href="#DejaVuSans-20" x="191.210938"/>
      <use xlink:href="#DejaVuSans-28" x="222.998047"/>
      <use xlink:href="#DejaVuSans-69" x="262.011719"/>
      <use xlink:href="#DejaVuSans-6e" x="289.794922"/>
      <use xlink:href="#DejaVuSans-29" x="353.173828"/>
     </g>
    </g>
    <g id="line2d_41">
     <path d="M 66.6 179.363873 
L 76.6 179.363873 
L 86.6 179.363873 
" style="fill: none; stroke: #ff7f0e; stroke-width: 1.5; stroke-linecap: square"/>
    </g>
    <g id="text_20">
     <!-- yAL (out) -->
     <g transform="translate(94.6 182.863873)scale(0.1 -0.1)">
      <defs>
       <path id="DejaVuSans-4c" d="M 628 4666 
L 1259 4666 
L 1259 531 
L 3531 531 
L 3531 0 
L 628 0 
L 628 4666 
z
" transform="scale(0.015625)"/>
      </defs>
      <use xlink:href="#DejaVuSans-79"/>
      <use xlink:href="#DejaVuSans-41" x="59.179688"/>
      <use xlink:href="#DejaVuSans-4c" x="127.587891"/>
      <use xlink:href="#DejaVuSans-20" x="183.300781"/>
      <use xlink:href="#DejaVuSans-28" x="215.087891"/>
      <use xlink:href="#DejaVuSans-6f" x="254.101562"/>
      <use xlink:href="#DejaVuSans-75" x="315.283203"/>
      <use xlink:href="#DejaVuSans-74" x="378.662109"/>
      <use xlink:href="#DejaVuSans-29" x="417.871094"/>
     </g>
    </g>
   </g>
  </g>
  <g id="axes_4">
   <g id="patch_20">
    <path d="M 57.6 252.526345 
L 414.72 252.526345 
L 414.72 206.644966 
L 57.6 206.644966 
z
" style="fill: #ffffff"/>
   </g>
   <g id="matplotlib.axis_7">
    <g id="xtick_19">
     <g id="line2d_42">
      <g>
       <use xlink:href="#m034cba985c" x="73.832727" y="252.526345" style="stroke: #000000; stroke-width: 0.8"/>
      </g>
     </g>
    </g>
    <g id="xtick_20">
     <g id="line2d_43">
      <g>
       <use xlink:href="#m034cba985c" x="138.763636" y="252.526345" style="stroke: #000000; stroke-width: 0.8"/>
      </g>
     </g>
    </g>
    <g id="xtick_21">
     <g id="line2d_44">
      <g>
       <use xlink:href="#m034cba985c" x="203.694545" y="252.526345" style="stroke: #000000; stroke-width: 0.8"/>
      </g>
     </g>
    </g>
    <g id="xtick_22">
     <g id="line2d_45">
      <g>
       <use xlink:href="#m034cba985c" x="268.625455" y="252.526345" style="stroke: #000000; stroke-width: 0.8"/>
      </g>
     </g>
    </g>
    <g id="xtick_23">
     <g id="line2d_46">
      <g>
       <use xlink:href="#m034cba985c" x="333.556364" y="252.526345" style="stroke: #000000; stroke-width: 0.8"/>
      </g>
     </g>
    </g>
    <g id="xtick_24">
     <g id="line2d_47">
      <g>
       <use xlink:href="#m034cba985c" x="398.487273" y="252.526345" style="stroke: #000000; stroke-width: 0.8"/>
      </g>
     </g>
    </g>
   </g>
   <g id="matplotlib.axis_8">
    <g id="ytick_8">
     <g id="line2d_48">
      <g>
       <use xlink:href="#m189bbe4c36" x="57.6" y="238.517471" style="stroke: #000000; stroke-width: 0.8"/>
      </g>
     </g>
     <g id="text_21">
      <!-- 0.88 -->
      <g transform="translate(28.334375 242.31669)scale(0.1 -0.1)">
       <defs>
        <path id="DejaVuSans-38" d="M 2034 2216 
Q 1584 2216 1326 1975 
Q 1069 1734 1069 1313 
Q 1069 891 1326 650 
Q 1584 409 2034 409 
Q 2484 409 2743 651 
Q 3003 894 3003 1313 
Q 3003 1734 2745 1975 
Q 2488 2216 2034 2216 
z
M 1403 2484 
Q 997 2584 770 2862 
Q 544 3141 544 3541 
Q 544 4100 942 4425 
Q 1341 4750 2034 4750 
Q 2731 4750 3128 4425 
Q 3525 4100 3525 3541 
Q 3525 3141 3298 2862 
Q 3072 2584 2669 2484 
Q 3125 2378 3379 2068 
Q 3634 1759 3634 1313 
Q 3634 634 3220 271 
Q 2806 -91 2034 -91 
Q 1263 -91 848 271 
Q 434 634 434 1313 
Q 434 1759 690 2068 
Q 947 2378 1403 2484 
z
M 1172 3481 
Q 1172 3119 1398 2916 
Q 1625 2713 2034 2713 
Q 2441 2713 2670 2916 
Q 2900 3119 2900 3481 
Q 2900 3844 2670 4047 
Q 2441 4250 2034 4250 
Q 1625 4250 1398 4047 
Q 1172 3844 1172 3481 
z
" transform="scale(0.015625)"/>
       </defs>
       <use xlink:href="#DejaVuSans-30"/>
       <use xlink:href="#DejaVuSans-2e" x="63.623047"/>
       <use xlink:href="#DejaVuSans-38" x="95.410156"/>
       <use xlink:href="#DejaVuSans-38" x="159.033203"/>
      </g>
     </g>
    </g>
    <g id="ytick_9">
     <g id="line2d_49">
      <g>
       <use xlink:href="#m189bbe4c36" x="57.6" y="214.830886" style="stroke: #000000; stroke-width: 0.8"/>
      </g>
     </g>
     <g id="text_22">
      <!-- 0.90 -->
      <g transform="translate(28.334375 218.630105)scale(0.1 -0.1)">
       <defs>
        <path id="DejaVuSans-39" d="M 703 97 
L 703 672 
Q 941 559 1184 500 
Q 1428 441 1663 441 
Q 2288 441 2617 861 
Q 2947 1281 2994 2138 
Q 2813 1869 2534 1725 
Q 2256 1581 1919 1581 
Q 1219 1581 811 2004 
Q 403 2428 403 3163 
Q 403 3881 828 4315 
Q 1253 4750 1959 4750 
Q 2769 4750 3195 4129 
Q 3622 3509 3622 2328 
Q 3622 1225 3098 567 
Q 2575 -91 1691 -91 
Q 1453 -91 1209 -44 
Q 966 3 703 97 
z
M 1959 2075 
Q 2384 2075 2632 2365 
Q 2881 2656 2881 3163 
Q 2881 3666 2632 3958 
Q 2384 4250 1959 4250 
Q 1534 4250 1286 3958 
Q 1038 3666 1038 3163 
Q 1038 2656 1286 2365 
Q 1534 2075 1959 2075 
z
" transform="scale(0.015625)"/>
       </defs>
       <use xlink:href="#DejaVuSans-30"/>
       <use xlink:href="#DejaVuSans-2e" x="63.623047"/>
       <use xlink:href="#DejaVuSans-39" x="95.410156"/>
       <use xlink:href="#DejaVuSans-30" x="159.033203"/>
      </g>
     </g>
    </g>
    <g id="text_23">
     <!-- fraction -->
     <g transform="translate(22.254687 248.791905)rotate(-90)scale(0.1 -0.1)">
      <use xlink:href="#DejaVuSans-66"/>
      <use xlink:href="#DejaVuSans-72" x="35.205078"/>
      <use xlink:href="#DejaVuSans-61" x="76.318359"/>
      <use xlink:href="#DejaVuSans-63" x="137.597656"/>
      <use xlink:href="#DejaVuSans-74" x="192.578125"/>
      <use xlink:href="#DejaVuSans-69" x="231.787109"/>
      <use xlink:href="#DejaVuSans-6f" x="259.570312"/>
      <use xlink:href="#DejaVuSans-6e" x="320.751953"/>
     </g>
    </g>
   </g>
   <g id="line2d_50">
    <path d="M 73.832727 250.440828 
L 77.079273 213.241786 
L 80.325818 212.963536 
L 83.572364 212.882226 
L 86.818909 212.847586 
L 90.065455 212.815785 
L 93.312 212.797778 
L 96.558545 212.783055 
L 99.805091 212.788031 
L 103.051636 212.786363 
L 106.298182 212.747972 
L 109.544727 212.952899 
L 112.791273 212.878113 
L 116.037818 212.848374 
L 119.284364 212.82429 
L 122.530909 212.868782 
L 125.777455 213.364235 
L 129.024 213.500336 
L 132.270545 213.611521 
L 135.517091 213.702894 
L 138.763636 213.803666 
L 142.010182 213.894809 
L 145.256727 213.977583 
L 148.503273 214.051273 
L 151.749818 214.118538 
L 154.996364 214.179528 
L 158.242909 214.232134 
L 161.489455 214.284174 
L 164.736 214.330068 
L 167.982545 214.370804 
L 171.229091 214.401003 
L 174.475636 214.577313 
L 177.722182 214.915361 
L 180.968727 215.353951 
L 184.215273 215.868316 
L 187.461818 216.400434 
L 190.708364 216.892258 
L 193.954909 217.301923 
L 197.201455 217.612572 
L 200.448 217.837888 
L 203.694545 217.993195 
L 206.941091 218.093887 
L 210.187636 218.168843 
L 213.434182 218.181369 
L 216.680727 218.225288 
L 219.927273 218.239841 
L 223.173818 218.261366 
L 226.420364 218.262093 
L 229.666909 218.267543 
L 232.913455 218.270544 
L 236.16 218.272161 
L 239.406545 218.27475 
L 242.653091 218.273276 
L 245.899636 218.273726 
L 249.146182 218.273722 
L 252.392727 218.273777 
L 255.639273 218.273862 
L 258.885818 218.273806 
L 262.132364 218.273777 
L 265.378909 218.273734 
L 268.625455 218.274359 
L 271.872 220.561012 
L 275.118545 223.613485 
L 278.365091 227.308201 
L 281.611636 231.208471 
L 284.858182 234.930742 
L 288.104727 238.132038 
L 291.351273 240.73652 
L 294.597818 242.771502 
L 297.844364 244.345906 
L 301.090909 245.539748 
L 304.337455 246.436347 
L 307.584 247.11115 
L 310.830545 247.628418 
L 314.077091 248.024891 
L 317.323636 248.337971 
L 320.570182 248.589075 
L 323.816727 248.794732 
L 327.063273 248.96594 
L 330.309818 249.112211 
L 333.556364 249.239232 
L 336.802909 249.35211 
L 340.049455 249.451952 
L 343.296 249.542417 
L 346.542545 249.624799 
L 349.789091 249.699924 
L 353.035636 249.769212 
L 356.282182 249.834137 
L 359.528727 249.893907 
L 362.775273 249.950091 
L 366.021818 250.002781 
L 369.268364 250.052157 
L 372.514909 250.098883 
L 375.761455 250.142951 
L 379.008 250.18484 
L 382.254545 250.224551 
L 385.501091 250.262107 
L 388.747636 250.297936 
L 391.994182 250.332271 
L 395.240727 250.365101 
L 398.487273 250.396261 
" clip-path="url(#p96184de747)" style="fill: none; stroke: #1f77b4; stroke-width: 1.5; stroke-linecap: square"/>
   </g>
   <g id="line2d_51">
    <path d="M 73.832727 235.974603 
L 77.079273 209.40552 
L 80.325818 208.972661 
L 83.572364 208.847506 
L 86.818909 208.792813 
L 90.065455 208.765053 
L 93.312 208.749906 
L 96.558545 208.741341 
L 99.805091 208.736438 
L 103.051636 208.733628 
L 106.298182 208.731992 
L 109.544727 208.731126 
L 112.791273 208.730679 
L 116.037818 208.730517 
L 119.284364 208.730483 
L 122.530909 208.730887 
L 125.777455 208.770388 
L 129.024 208.77632 
L 132.270545 208.788319 
L 135.517091 208.808964 
L 138.763636 208.825351 
L 142.010182 208.846258 
L 145.256727 208.871462 
L 148.503273 208.90109 
L 151.749818 208.934499 
L 154.996364 208.971651 
L 158.242909 209.013429 
L 161.489455 209.055936 
L 164.736 209.101953 
L 167.982545 209.150896 
L 171.229091 209.201888 
L 174.475636 209.385567 
L 177.722182 209.70997 
L 180.968727 210.13031 
L 184.215273 210.62669 
L 187.461818 211.141683 
L 190.708364 211.620968 
L 193.954909 212.019418 
L 197.201455 212.317293 
L 200.448 212.528112 
L 203.694545 212.668715 
L 206.941091 212.756422 
L 210.187636 212.819524 
L 213.434182 212.829539 
L 216.680727 212.864918 
L 219.927273 212.875567 
L 223.173818 212.892072 
L 226.420364 212.892617 
L 229.666909 212.896573 
L 232.913455 212.898741 
L 236.16 212.899945 
L 239.406545 212.901833 
L 242.653091 212.900804 
L 245.899636 212.901188 
L 249.146182 212.901276 
L 252.392727 212.901406 
L 255.639273 212.901555 
L 258.885818 212.901614 
L 262.132364 212.901687 
L 265.378909 212.901748 
L 268.625455 212.902028 
L 271.872 214.573597 
L 275.118545 216.185318 
L 278.365091 217.551028 
L 281.611636 218.708946 
L 284.858182 219.733372 
L 288.104727 220.661339 
L 291.351273 221.518951 
L 294.597818 222.315495 
L 297.844364 223.058044 
L 301.090909 223.760123 
L 304.337455 224.41406 
L 307.584 225.0395 
L 310.830545 225.630554 
L 314.077091 226.186243 
L 317.323636 226.721095 
L 320.570182 227.228722 
L 323.816727 227.715222 
L 327.063273 228.180054 
L 330.309818 228.625727 
L 333.556364 229.054002 
L 336.802909 229.466708 
L 340.049455 229.863193 
L 343.296 230.245232 
L 346.542545 230.615785 
L 349.789091 230.973024 
L 353.035636 231.317263 
L 356.282182 231.649941 
L 359.528727 231.97335 
L 362.775273 232.288083 
L 366.021818 232.59326 
L 369.268364 232.888241 
L 372.514909 233.173938 
L 375.761455 233.453329 
L 379.008 233.726509 
L 382.254545 233.992143 
L 385.501091 234.249033 
L 388.747636 234.49879 
L 391.994182 234.741666 
L 395.240727 234.978667 
L 398.487273 235.211253 
" clip-path="url(#p96184de747)" style="fill: none; stroke: #ff7f0e; stroke-width: 1.5; stroke-linecap: square"/>
   </g>
   <g id="patch_21">
    <path d="M 57.6 252.526345 
L 57.6 206.644966 
" style="fill: none; stroke: #000000; stroke-width: 0.8; stroke-linejoin: miter; stroke-linecap: square"/>
   </g>
   <g id="patch_22">
    <path d="M 414.72 252.526345 
L 414.72 206.644966 
" style="fill: none; stroke: #000000; stroke-width: 0.8; stroke-linejoin: miter; stroke-linecap: square"/>
   </g>
   <g id="patch_23">
    <path d="M 57.6 252.526345 
L 414.72 252.526345 
" style="fill: none; stroke: #000000; stroke-width: 0.8; stroke-linejoin: miter; stroke-linecap: square"/>
   </g>
   <g id="patch_24">
    <path d="M 57.6 206.644966 
L 414.72 206.644966 
" style="fill: none; stroke: #000000; stroke-width: 0.8; stroke-linejoin: miter; stroke-linecap: square"/>
   </g>
   <g id="text_24">
    <!-- yB -->
    <g transform="translate(228.492188 200.644966)scale(0.12 -0.12)">
     <defs>
      <path id="DejaVuSans-42" d="M 1259 2228 
L 1259 519 
L 2272 519 
Q 2781 519 3026 730 
Q 3272 941 3272 1375 
Q 3272 1813 3026 2020 
Q 2781 2228 2272 2228 
L 1259 2228 
z
M 1259 4147 
L 1259 2741 
L 2194 2741 
Q 2656 2741 2882 2914 
Q 3109 3088 3109 3444 
Q 3109 3797 2882 3972 
Q 2656 4147 2194 4147 
L 1259 4147 
z
M 628 4666 
L 2241 4666 
Q 2963 4666 3353 4366 
Q 3744 4066 3744 3513 
Q 3744 3084 3544 2831 
Q 3344 2578 2956 2516 
Q 3422 2416 3680 2098 
Q 3938 1781 3938 1306 
Q 3938 681 3513 340 
Q 3088 0 2303 0 
L 628 0 
L 628 4666 
z
" transform="scale(0.015625)"/>
     </defs>
     <use xlink:href="#DejaVuSans-79"/>
     <use xlink:href="#DejaVuSans-42" x="59.179688"/>
    </g>
   </g>
   <g id="legend_4">
    <g id="patch_25">
     <path d="M 64.6 247.526345 
L 142.309375 247.526345 
Q 144.309375 247.526345 144.309375 245.526345 
L 144.309375 217.170095 
Q 144.309375 215.170095 142.309375 215.170095 
L 64.6 215.170095 
Q 62.6 215.170095 62.6 217.170095 
L 62.6 245.526345 
Q 62.6 247.526345 64.6 247.526345 
z
" style="fill: #ffffff; opacity: 0.8; stroke: #cccccc; stroke-linejoin: miter"/>
    </g>
    <g id="line2d_52">
     <path d="M 66.6 223.268532 
L 76.6 223.268532 
L 86.6 223.268532 
" style="fill: none; stroke: #1f77b4; stroke-width: 1.5; stroke-linecap: square"/>
    </g>
    <g id="text_25">
     <!-- yB0 (in) -->
     <g transform="translate(94.6 226.768532)scale(0.1 -0.1)">
      <use xlink:href="#DejaVuSans-79"/>
      <use xlink:href="#DejaVuSans-42" x="59.179688"/>
      <use xlink:href="#DejaVuSans-30" x="127.783203"/>
      <use xlink:href="#DejaVuSans-20" x="191.40625"/>
      <use xlink:href="#DejaVuSans-28" x="223.193359"/>
      <use xlink:href="#DejaVuSans-69" x="262.207031"/>
      <use xlink:href="#DejaVuSans-6e" x="289.990234"/>
      <use xlink:href="#DejaVuSans-29" x="353.369141"/>
     </g>
    </g>
    <g id="line2d_53">
     <path d="M 66.6 237.946657 
L 76.6 237.946657 
L 86.6 237.946657 
" style="fill: none; stroke: #ff7f0e; stroke-width: 1.5; stroke-linecap: square"/>
    </g>
    <g id="text_26">
     <!-- yBL (out) -->
     <g transform="translate(94.6 241.446657)scale(0.1 -0.1)">
      <use xlink:href="#DejaVuSans-79"/>
      <use xlink:href="#DejaVuSans-42" x="59.179688"/>
      <use xlink:href="#DejaVuSans-4c" x="127.783203"/>
      <use xlink:href="#DejaVuSans-20" x="183.496094"/>
      <use xlink:href="#DejaVuSans-28" x="215.283203"/>
      <use xlink:href="#DejaVuSans-6f" x="254.296875"/>
      <use xlink:href="#DejaVuSans-75" x="315.478516"/>
      <use xlink:href="#DejaVuSans-74" x="378.857422"/>
      <use xlink:href="#DejaVuSans-29" x="418.066406"/>
     </g>
    </g>
   </g>
  </g>
  <g id="axes_5">
   <g id="patch_26">
    <path d="M 57.6 307.584 
L 414.72 307.584 
L 414.72 261.702621 
L 57.6 261.702621 
z
" style="fill: #ffffff"/>
   </g>
   <g id="matplotlib.axis_9">
    <g id="xtick_25">
     <g id="line2d_54">
      <g>
       <use xlink:href="#m034cba985c" x="73.832727" y="307.584" style="stroke: #000000; stroke-width: 0.8"/>
      </g>
     </g>
     <g id="text_27">
      <!-- 0 -->
      <g transform="translate(70.651477 322.182437)scale(0.1 -0.1)">
       <use xlink:href="#DejaVuSans-30"/>
      </g>
     </g>
    </g>
    <g id="xtick_26">
     <g id="line2d_55">
      <g>
       <use xlink:href="#m034cba985c" x="138.763636" y="307.584" style="stroke: #000000; stroke-width: 0.8"/>
      </g>
     </g>
     <g id="text_28">
      <!-- 20 -->
      <g transform="translate(132.401136 322.182437)scale(0.1 -0.1)">
       <defs>
        <path id="DejaVuSans-32" d="M 1228 531 
L 3431 531 
L 3431 0 
L 469 0 
L 469 531 
Q 828 903 1448 1529 
Q 2069 2156 2228 2338 
Q 2531 2678 2651 2914 
Q 2772 3150 2772 3378 
Q 2772 3750 2511 3984 
Q 2250 4219 1831 4219 
Q 1534 4219 1204 4116 
Q 875 4013 500 3803 
L 500 4441 
Q 881 4594 1212 4672 
Q 1544 4750 1819 4750 
Q 2544 4750 2975 4387 
Q 3406 4025 3406 3419 
Q 3406 3131 3298 2873 
Q 3191 2616 2906 2266 
Q 2828 2175 2409 1742 
Q 1991 1309 1228 531 
z
" transform="scale(0.015625)"/>
       </defs>
       <use xlink:href="#DejaVuSans-32"/>
       <use xlink:href="#DejaVuSans-30" x="63.623047"/>
      </g>
     </g>
    </g>
    <g id="xtick_27">
     <g id="line2d_56">
      <g>
       <use xlink:href="#m034cba985c" x="203.694545" y="307.584" style="stroke: #000000; stroke-width: 0.8"/>
      </g>
     </g>
     <g id="text_29">
      <!-- 40 -->
      <g transform="translate(197.332045 322.182437)scale(0.1 -0.1)">
       <defs>
        <path id="DejaVuSans-34" d="M 2419 4116 
L 825 1625 
L 2419 1625 
L 2419 4116 
z
M 2253 4666 
L 3047 4666 
L 3047 1625 
L 3713 1625 
L 3713 1100 
L 3047 1100 
L 3047 0 
L 2419 0 
L 2419 1100 
L 313 1100 
L 313 1709 
L 2253 4666 
z
" transform="scale(0.015625)"/>
       </defs>
       <use xlink:href="#DejaVuSans-34"/>
       <use xlink:href="#DejaVuSans-30" x="63.623047"/>
      </g>
     </g>
    </g>
    <g id="xtick_28">
     <g id="line2d_57">
      <g>
       <use xlink:href="#m034cba985c" x="268.625455" y="307.584" style="stroke: #000000; stroke-width: 0.8"/>
      </g>
     </g>
     <g id="text_30">
      <!-- 60 -->
      <g transform="translate(262.262955 322.182437)scale(0.1 -0.1)">
       <use xlink:href="#DejaVuSans-36"/>
       <use xlink:href="#DejaVuSans-30" x="63.623047"/>
      </g>
     </g>
    </g>
    <g id="xtick_29">
     <g id="line2d_58">
      <g>
       <use xlink:href="#m034cba985c" x="333.556364" y="307.584" style="stroke: #000000; stroke-width: 0.8"/>
      </g>
     </g>
     <g id="text_31">
      <!-- 80 -->
      <g transform="translate(327.193864 322.182437)scale(0.1 -0.1)">
       <use xlink:href="#DejaVuSans-38"/>
       <use xlink:href="#DejaVuSans-30" x="63.623047"/>
      </g>
     </g>
    </g>
    <g id="xtick_30">
     <g id="line2d_59">
      <g>
       <use xlink:href="#m034cba985c" x="398.487273" y="307.584" style="stroke: #000000; stroke-width: 0.8"/>
      </g>
     </g>
     <g id="text_32">
      <!-- 100 -->
      <g transform="translate(388.943523 322.182437)scale(0.1 -0.1)">
       <use xlink:href="#DejaVuSans-31"/>
       <use xlink:href="#DejaVuSans-30" x="63.623047"/>
       <use xlink:href="#DejaVuSans-30" x="127.246094"/>
      </g>
     </g>
    </g>
    <g id="text_33">
     <!-- time (normalized) -->
     <g transform="translate(191.589687 335.860562)scale(0.1 -0.1)">
      <use xlink:href="#DejaVuSans-74"/>
      <use xlink:href="#DejaVuSans-69" x="39.208984"/>
      <use xlink:href="#DejaVuSans-6d" x="66.992188"/>
      <use xlink:href="#DejaVuSans-65" x="164.404297"/>
      <use xlink:href="#DejaVuSans-20" x="225.927734"/>
      <use xlink:href="#DejaVuSans-28" x="257.714844"/>
      <use xlink:href="#DejaVuSans-6e" x="296.728516"/>
      <use xlink:href="#DejaVuSans-6f" x="360.107422"/>
      <use xlink:href="#DejaVuSans-72" x="421.289062"/>
      <use xlink:href="#DejaVuSans-6d" x="460.652344"/>
      <use xlink:href="#DejaVuSans-61" x="558.064453"/>
      <use xlink:href="#DejaVuSans-6c" x="619.34375"/>
      <use xlink:href="#DejaVuSans-69" x="647.126953"/>
      <use xlink:href="#DejaVuSans-7a" x="674.910156"/>
      <use xlink:href="#DejaVuSans-65" x="727.400391"/>
      <use xlink:href="#DejaVuSans-64" x="788.923828"/>
      <use xlink:href="#DejaVuSans-29" x="852.400391"/>
     </g>
    </g>
   </g>
   <g id="matplotlib.axis_10">
    <g id="ytick_10">
     <g id="line2d_60">
      <g>
       <use xlink:href="#m189bbe4c36" x="57.6" y="294.421227" style="stroke: #000000; stroke-width: 0.8"/>
      </g>
     </g>
     <g id="text_34">
      <!-- 0.0500 -->
      <g transform="translate(15.609375 298.220445)scale(0.1 -0.1)">
       <use xlink:href="#DejaVuSans-30"/>
       <use xlink:href="#DejaVuSans-2e" x="63.623047"/>
       <use xlink:href="#DejaVuSans-30" x="95.410156"/>
       <use xlink:href="#DejaVuSans-35" x="159.033203"/>
       <use xlink:href="#DejaVuSans-30" x="222.65625"/>
       <use xlink:href="#DejaVuSans-30" x="286.279297"/>
      </g>
     </g>
    </g>
    <g id="ytick_11">
     <g id="line2d_61">
      <g>
       <use xlink:href="#m189bbe4c36" x="57.6" y="269.1951" style="stroke: #000000; stroke-width: 0.8"/>
      </g>
     </g>
     <g id="text_35">
      <!-- 0.0525 -->
      <g transform="translate(15.609375 272.994318)scale(0.1 -0.1)">
       <use xlink:href="#DejaVuSans-30"/>
       <use xlink:href="#DejaVuSans-2e" x="63.623047"/>
       <use xlink:href="#DejaVuSans-30" x="95.410156"/>
       <use xlink:href="#DejaVuSans-35" x="159.033203"/>
       <use xlink:href="#DejaVuSans-32" x="222.65625"/>
       <use xlink:href="#DejaVuSans-35" x="286.279297"/>
      </g>
     </g>
    </g>
    <g id="text_36">
     <!-- fraction -->
     <g transform="translate(9.529687 303.84956)rotate(-90)scale(0.1 -0.1)">
      <use xlink:href="#DejaVuSans-66"/>
      <use xlink:href="#DejaVuSans-72" x="35.205078"/>
      <use xlink:href="#DejaVuSans-61" x="76.318359"/>
      <use xlink:href="#DejaVuSans-63" x="137.597656"/>
      <use xlink:href="#DejaVuSans-74" x="192.578125"/>
      <use xlink:href="#DejaVuSans-69" x="231.787109"/>
      <use xlink:href="#DejaVuSans-6f" x="259.570312"/>
      <use xlink:href="#DejaVuSans-6e" x="320.751953"/>
     </g>
    </g>
   </g>
   <g id="line2d_62">
    <path d="M 73.832727 263.788138 
L 77.079273 296.19949 
L 80.325818 296.353888 
L 83.572364 296.266677 
L 86.818909 296.188899 
L 90.065455 296.279561 
L 93.312 296.331524 
L 96.558545 296.439242 
L 99.805091 296.397096 
L 103.051636 296.448955 
L 106.298182 296.594275 
L 109.544727 296.354107 
L 112.791273 296.501278 
L 116.037818 296.499895 
L 119.284364 296.526959 
L 122.530909 296.546258 
L 125.777455 294.500377 
L 129.024 294.320772 
L 132.270545 294.228142 
L 135.517091 294.188795 
L 138.763636 294.125817 
L 142.010182 294.085627 
L 145.256727 294.061948 
L 148.503273 294.058342 
L 151.749818 294.062443 
L 154.996364 294.073555 
L 158.242909 294.100109 
L 161.489455 294.113139 
L 164.736 294.13332 
L 167.982545 294.157248 
L 171.229091 294.175747 
L 174.475636 293.848948 
L 177.722182 293.405435 
L 180.968727 292.829044 
L 184.215273 292.157181 
L 187.461818 291.462402 
L 190.708364 290.824929 
L 193.954909 290.296178 
L 197.201455 289.896319 
L 200.448 289.606839 
L 203.694545 289.407336 
L 206.941091 289.27743 
L 210.187636 289.183201 
L 213.434182 289.155393 
L 216.680727 289.103336 
L 219.927273 289.084087 
L 223.173818 289.061487 
L 226.420364 289.056669 
L 229.666909 289.050288 
L 232.913455 289.04662 
L 236.16 289.044508 
L 239.406545 289.042444 
L 242.653091 289.04245 
L 245.899636 289.041898 
L 249.146182 289.041633 
L 252.392727 289.041451 
L 255.639273 289.041216 
L 258.885818 289.041163 
L 262.132364 289.041077 
L 265.378909 289.04101 
L 268.625455 289.040357 
L 271.872 286.18275 
L 275.118545 282.715814 
L 278.365091 279.055832 
L 281.611636 275.722924 
L 284.858182 272.948268 
L 288.104727 270.847638 
L 291.351273 269.29061 
L 294.597818 268.176767 
L 297.844364 267.376535 
L 301.090909 266.827246 
L 304.337455 266.441702 
L 307.584 266.162069 
L 310.830545 265.963273 
L 314.077091 265.816672 
L 317.323636 265.698304 
L 320.570182 265.599686 
L 323.816727 265.512059 
L 327.063273 265.431398 
L 330.309818 265.353196 
L 333.556364 265.276065 
L 336.802909 265.198744 
L 340.049455 265.122261 
L 343.296 265.045774 
L 346.542545 264.969014 
L 349.789091 264.892262 
L 353.035636 264.815497 
L 356.282182 264.738697 
L 359.528727 264.662666 
L 362.775273 264.587334 
L 366.021818 264.51287 
L 369.268364 264.439447 
L 372.514909 264.36722 
L 375.761455 264.295758 
L 379.008 264.225253 
L 382.254545 264.155799 
L 385.501091 264.087484 
L 388.747636 264.020291 
L 391.994182 263.954254 
L 395.240727 263.889539 
L 398.487273 263.826394 
" clip-path="url(#pe235b4c023)" style="fill: none; stroke: #1f77b4; stroke-width: 1.5; stroke-linecap: square"/>
   </g>
   <g id="line2d_63">
    <path d="M 73.832727 267.595762 
L 77.079273 304.45908 
L 80.325818 305.166409 
L 83.572364 305.35438 
L 86.818909 305.431152 
L 90.065455 305.467792 
L 93.312 305.485948 
L 96.558545 305.494603 
L 99.805091 305.49801 
L 103.051636 305.498483 
L 106.298182 305.497361 
L 109.544727 305.495147 
L 112.791273 305.492382 
L 116.037818 305.489231 
L 119.284364 305.485937 
L 122.530909 305.483573 
L 125.777455 304.762263 
L 129.024 304.518563 
L 132.270545 304.243407 
L 135.517091 303.918693 
L 138.763636 303.620207 
L 142.010182 303.292811 
L 145.256727 302.935568 
L 148.503273 302.549009 
L 151.749818 302.134629 
L 154.996364 301.692513 
L 158.242909 301.216742 
L 161.489455 300.737256 
L 164.736 300.232683 
L 167.982545 299.707714 
L 171.229091 299.17489 
L 174.475636 299.282993 
L 177.722182 298.769117 
L 180.968727 298.118541 
L 184.215273 297.347873 
L 187.461818 296.571072 
L 190.708364 295.84777 
L 193.954909 295.249425 
L 197.201455 294.802964 
L 200.448 294.487002 
L 203.694545 294.275797 
L 206.941091 294.142886 
L 210.187636 294.050037 
L 213.434182 294.021402 
L 216.680727 293.972999 
L 219.927273 293.955398 
L 223.173818 293.935115 
L 226.420364 293.930523 
L 229.666909 293.924696 
L 232.913455 293.921233 
L 236.16 293.919041 
L 239.406545 293.91696 
L 242.653091 293.916474 
L 245.899636 293.915566 
L 249.146182 293.91485 
L 252.392727 293.914217 
L 255.639273 293.913548 
L 258.885818 293.913021 
L 262.132364 293.912473 
L 265.378909 293.911943 
L 268.625455 293.911256 
L 271.872 291.656986 
L 275.118545 289.534304 
L 278.365091 287.777978 
L 281.611636 286.31271 
L 284.858182 285.032165 
L 288.104727 283.885053 
L 291.351273 282.83386 
L 294.597818 281.865822 
L 297.844364 280.97034 
L 301.090909 280.131121 
L 304.337455 279.354347 
L 307.584 278.616098 
L 310.830545 277.923924 
L 314.077091 277.275755 
L 317.323636 276.656973 
L 320.570182 276.072323 
L 323.816727 275.515463 
L 327.063273 274.985789 
L 330.309818 274.48073 
L 333.556364 273.997786 
L 336.802909 273.534586 
L 340.049455 273.091447 
L 343.296 272.666233 
L 346.542545 272.255903 
L 349.789091 271.861824 
L 353.035636 271.483363 
L 356.282182 271.118866 
L 359.528727 270.76612 
L 362.775273 270.424227 
L 366.021818 270.093784 
L 369.268364 269.775162 
L 372.514909 269.467291 
L 375.761455 269.167677 
L 379.008 268.875984 
L 382.254545 268.593188 
L 385.501091 268.320151 
L 388.747636 268.055331 
L 391.994182 267.798347 
L 395.240727 267.548221 
L 398.487273 267.303613 
" clip-path="url(#pe235b4c023)" style="fill: none; stroke: #ff7f0e; stroke-width: 1.5; stroke-linecap: square"/>
   </g>
   <g id="patch_27">
    <path d="M 57.6 307.584 
L 57.6 261.702621 
" style="fill: none; stroke: #000000; stroke-width: 0.8; stroke-linejoin: miter; stroke-linecap: square"/>
   </g>
   <g id="patch_28">
    <path d="M 414.72 307.584 
L 414.72 261.702621 
" style="fill: none; stroke: #000000; stroke-width: 0.8; stroke-linejoin: miter; stroke-linecap: square"/>
   </g>
   <g id="patch_29">
    <path d="M 57.6 307.584 
L 414.72 307.584 
" style="fill: none; stroke: #000000; stroke-width: 0.8; stroke-linejoin: miter; stroke-linecap: square"/>
   </g>
   <g id="patch_30">
    <path d="M 57.6 261.702621 
L 414.72 261.702621 
" style="fill: none; stroke: #000000; stroke-width: 0.8; stroke-linejoin: miter; stroke-linecap: square"/>
   </g>
   <g id="text_37">
    <!-- yC -->
    <g transform="translate(228.419062 255.702621)scale(0.12 -0.12)">
     <defs>
      <path id="DejaVuSans-43" d="M 4122 4306 
L 4122 3641 
Q 3803 3938 3442 4084 
Q 3081 4231 2675 4231 
Q 1875 4231 1450 3742 
Q 1025 3253 1025 2328 
Q 1025 1406 1450 917 
Q 1875 428 2675 428 
Q 3081 428 3442 575 
Q 3803 722 4122 1019 
L 4122 359 
Q 3791 134 3420 21 
Q 3050 -91 2638 -91 
Q 1578 -91 968 557 
Q 359 1206 359 2328 
Q 359 3453 968 4101 
Q 1578 4750 2638 4750 
Q 3056 4750 3426 4639 
Q 3797 4528 4122 4306 
z
" transform="scale(0.015625)"/>
     </defs>
     <use xlink:href="#DejaVuSans-79"/>
     <use xlink:href="#DejaVuSans-43" x="59.179688"/>
    </g>
   </g>
   <g id="legend_5">
    <g id="patch_31">
     <path d="M 329.88875 302.584 
L 407.72 302.584 
Q 409.72 302.584 409.72 300.584 
L 409.72 272.22775 
Q 409.72 270.22775 407.72 270.22775 
L 329.88875 270.22775 
Q 327.88875 270.22775 327.88875 272.22775 
L 327.88875 300.584 
Q 327.88875 302.584 329.88875 302.584 
z
" style="fill: #ffffff; opacity: 0.8; stroke: #cccccc; stroke-linejoin: miter"/>
    </g>
    <g id="line2d_64">
     <path d="M 331.88875 278.326187 
L 341.88875 278.326187 
L 351.88875 278.326187 
" style="fill: none; stroke: #1f77b4; stroke-width: 1.5; stroke-linecap: square"/>
    </g>
    <g id="text_38">
     <!-- yC0 (in) -->
     <g transform="translate(359.88875 281.826187)scale(0.1 -0.1)">
      <use xlink:href="#DejaVuSans-79"/>
      <use xlink:href="#DejaVuSans-43" x="59.179688"/>
      <use xlink:href="#DejaVuSans-30" x="129.003906"/>
      <use xlink:href="#DejaVuSans-20" x="192.626953"/>
      <use xlink:href="#DejaVuSans-28" x="224.414062"/>
      <use xlink:href="#DejaVuSans-69" x="263.427734"/>
      <use xlink:href="#DejaVuSans-6e" x="291.210938"/>
      <use xlink:href="#DejaVuSans-29" x="354.589844"/>
     </g>
    </g>
    <g id="line2d_65">
     <path d="M 331.88875 293.004312 
L 341.88875 293.004312 
L 351.88875 293.004312 
" style="fill: none; stroke: #ff7f0e; stroke-width: 1.5; stroke-linecap: square"/>
    </g>
    <g id="text_39">
     <!-- yCL (out) -->
     <g transform="translate(359.88875 296.504312)scale(0.1 -0.1)">
      <use xlink:href="#DejaVuSans-79"/>
      <use xlink:href="#DejaVuSans-43" x="59.179688"/>
      <use xlink:href="#DejaVuSans-4c" x="129.003906"/>
      <use xlink:href="#DejaVuSans-20" x="184.716797"/>
      <use xlink:href="#DejaVuSans-28" x="216.503906"/>
      <use xlink:href="#DejaVuSans-6f" x="255.517578"/>
      <use xlink:href="#DejaVuSans-75" x="316.699219"/>
      <use xlink:href="#DejaVuSans-74" x="380.078125"/>
      <use xlink:href="#DejaVuSans-29" x="419.287109"/>
     </g>
    </g>
   </g>
  </g>
 </g>
 <defs>
  <clipPath id="pc40bd0cce2">
   <rect x="57.6" y="41.472" width="357.12" height="45.881379"/>
  </clipPath>
  <clipPath id="pd9a69c2801">
   <rect x="57.6" y="96.529655" width="357.12" height="45.881379"/>
  </clipPath>
  <clipPath id="p041d06744a">
   <rect x="57.6" y="151.58731" width="357.12" height="45.881379"/>
  </clipPath>
  <clipPath id="p96184de747">
   <rect x="57.6" y="206.644966" width="357.12" height="45.881379"/>
  </clipPath>
  <clipPath id="pe235b4c023">
   <rect x="57.6" y="261.702621" width="357.12" height="45.881379"/>
  </clipPath>
 </defs>
</svg>
