<?xml version="1.0" encoding="utf-8" standalone="no"?>
<!DOCTYPE svg PUBLIC "-//W3C//DTD SVG 1.1//EN"
  "http://www.w3.org/Graphics/SVG/1.1/DTD/svg11.dtd">
<svg xmlns:xlink="http://www.w3.org/1999/xlink" width="460.8pt" height="345.6pt" viewBox="0 0 460.8 345.6" xmlns="http://www.w3.org/2000/svg" version="1.1">
 <metadata>
  <rdf:RDF xmlns:dc="http://purl.org/dc/elements/1.1/" xmlns:cc="http://creativecommons.org/ns#" xmlns:rdf="http://www.w3.org/1999/02/22-rdf-syntax-ns#">
   <cc:Work>
    <dc:type rdf:resource="http://purl.org/dc/dcmitype/StillImage"/>
    <dc:date>2022-07-10T00:05:06.510446</dc:date>
    <dc:format>image/svg+xml</dc:format>
    <dc:creator>
     <cc:Agent>
      <dc:title>Matplotlib v3.5.2, https://matplotlib.org/</dc:title>
     </cc:Agent>
    </dc:creator>
   </cc:Work>
  </rdf:RDF>
 </metadata>
 <defs>
  <style type="text/css">*{stroke-linejoin: round; stroke-linecap: butt}</style>
 </defs>
 <g id="figure_1">
  <g id="patch_1">
   <path d="M 0 345.6 
L 460.8 345.6 
L 460.8 0 
L 0 0 
z
" style="fill: #ffffff"/>
  </g>
  <g id="axes_1">
   <g id="patch_2">
    <path d="M 57.6 87.353379 
L 414.72 87.353379 
L 414.72 41.472 
L 57.6 41.472 
z
" style="fill: #ffffff"/>
   </g>
   <g id="matplotlib.axis_1">
    <g id="xtick_1">
     <g id="line2d_1">
      <defs>
       <path id="m31208b7ebc" d="M 0 0 
L 0 3.5 
" style="stroke: #000000; stroke-width: 0.8"/>
      </defs>
      <g>
       <use xlink:href="#m31208b7ebc" x="73.832727" y="87.353379" style="stroke: #000000; stroke-width: 0.8"/>
      </g>
     </g>
    </g>
    <g id="xtick_2">
     <g id="line2d_2">
      <g>
       <use xlink:href="#m31208b7ebc" x="138.763636" y="87.353379" style="stroke: #000000; stroke-width: 0.8"/>
      </g>
     </g>
    </g>
    <g id="xtick_3">
     <g id="line2d_3">
      <g>
       <use xlink:href="#m31208b7ebc" x="203.694545" y="87.353379" style="stroke: #000000; stroke-width: 0.8"/>
      </g>
     </g>
    </g>
    <g id="xtick_4">
     <g id="line2d_4">
      <g>
       <use xlink:href="#m31208b7ebc" x="268.625455" y="87.353379" style="stroke: #000000; stroke-width: 0.8"/>
      </g>
     </g>
    </g>
    <g id="xtick_5">
     <g id="line2d_5">
      <g>
       <use xlink:href="#m31208b7ebc" x="333.556364" y="87.353379" style="stroke: #000000; stroke-width: 0.8"/>
      </g>
     </g>
    </g>
    <g id="xtick_6">
     <g id="line2d_6">
      <g>
       <use xlink:href="#m31208b7ebc" x="398.487273" y="87.353379" style="stroke: #000000; stroke-width: 0.8"/>
      </g>
     </g>
    </g>
   </g>
   <g id="matplotlib.axis_2">
    <g id="ytick_1">
     <g id="line2d_7">
      <defs>
       <path id="mb9bbe13a8c" d="M 0 0 
L -3.5 0 
" style="stroke: #000000; stroke-width: 0.8"/>
      </defs>
      <g>
       <use xlink:href="#mb9bbe13a8c" x="57.6" y="85.784418" style="stroke: #000000; stroke-width: 0.8"/>
      </g>
     </g>
     <g id="text_1">
      <!-- −25 -->
      <g transform="translate(29.495313 89.583637)scale(0.1 -0.1)">
       <defs>
        <path id="DejaVuSans-2212" d="M 678 2272 
L 4684 2272 
L 4684 1741 
L 678 1741 
L 678 2272 
z
" transform="scale(0.015625)"/>
        <path id="DejaVuSans-32" d="M 1228 531 
L 3431 531 
L 3431 0 
L 469 0 
L 469 531 
Q 828 903 1448 1529 
Q 2069 2156 2228 2338 
Q 2531 2678 2651 2914 
Q 2772 3150 2772 3378 
Q 2772 3750 2511 3984 
Q 2250 4219 1831 4219 
Q 1534 4219 1204 4116 
Q 875 4013 500 3803 
L 500 4441 
Q 881 4594 1212 4672 
Q 1544 4750 1819 4750 
Q 2544 4750 2975 4387 
Q 3406 4025 3406 3419 
Q 3406 3131 3298 2873 
Q 3191 2616 2906 2266 
Q 2828 2175 2409 1742 
Q 1991 1309 1228 531 
z
" transform="scale(0.015625)"/>
        <path id="DejaVuSans-35" d="M 691 4666 
L 3169 4666 
L 3169 4134 
L 1269 4134 
L 1269 2991 
Q 1406 3038 1543 3061 
Q 1681 3084 1819 3084 
Q 2600 3084 3056 2656 
Q 3513 2228 3513 1497 
Q 3513 744 3044 326 
Q 2575 -91 1722 -91 
Q 1428 -91 1123 -41 
Q 819 9 494 109 
L 494 744 
Q 775 591 1075 516 
Q 1375 441 1709 441 
Q 2250 441 2565 725 
Q 2881 1009 2881 1497 
Q 2881 1984 2565 2268 
Q 2250 2553 1709 2553 
Q 1456 2553 1204 2497 
Q 953 2441 691 2322 
L 691 4666 
z
" transform="scale(0.015625)"/>
       </defs>
       <use xlink:href="#DejaVuSans-2212"/>
       <use xlink:href="#DejaVuSans-32" x="83.789062"/>
       <use xlink:href="#DejaVuSans-35" x="147.412109"/>
      </g>
     </g>
    </g>
    <g id="ytick_2">
     <g id="line2d_8">
      <g>
       <use xlink:href="#mb9bbe13a8c" x="57.6" y="64.963541" style="stroke: #000000; stroke-width: 0.8"/>
      </g>
     </g>
     <g id="text_2">
      <!-- 0 -->
      <g transform="translate(44.2375 68.762759)scale(0.1 -0.1)">
       <defs>
        <path id="DejaVuSans-30" d="M 2034 4250 
Q 1547 4250 1301 3770 
Q 1056 3291 1056 2328 
Q 1056 1369 1301 889 
Q 1547 409 2034 409 
Q 2525 409 2770 889 
Q 3016 1369 3016 2328 
Q 3016 3291 2770 3770 
Q 2525 4250 2034 4250 
z
M 2034 4750 
Q 2819 4750 3233 4129 
Q 3647 3509 3647 2328 
Q 3647 1150 3233 529 
Q 2819 -91 2034 -91 
Q 1250 -91 836 529 
Q 422 1150 422 2328 
Q 422 3509 836 4129 
Q 1250 4750 2034 4750 
z
" transform="scale(0.015625)"/>
       </defs>
       <use xlink:href="#DejaVuSans-30"/>
      </g>
     </g>
    </g>
    <g id="ytick_3">
     <g id="line2d_9">
      <g>
       <use xlink:href="#mb9bbe13a8c" x="57.6" y="44.142663" style="stroke: #000000; stroke-width: 0.8"/>
      </g>
     </g>
     <g id="text_3">
      <!-- 25 -->
      <g transform="translate(37.875 47.941882)scale(0.1 -0.1)">
       <use xlink:href="#DejaVuSans-32"/>
       <use xlink:href="#DejaVuSans-35" x="63.623047"/>
      </g>
     </g>
    </g>
    <g id="text_4">
     <!-- flow rate (normalized) -->
     <g transform="translate(23.415625 119.729877)rotate(-90)scale(0.1 -0.1)">
      <defs>
       <path id="DejaVuSans-66" d="M 2375 4863 
L 2375 4384 
L 1825 4384 
Q 1516 4384 1395 4259 
Q 1275 4134 1275 3809 
L 1275 3500 
L 2222 3500 
L 2222 3053 
L 1275 3053 
L 1275 0 
L 697 0 
L 697 3053 
L 147 3053 
L 147 3500 
L 697 3500 
L 697 3744 
Q 697 4328 969 4595 
Q 1241 4863 1831 4863 
L 2375 4863 
z
" transform="scale(0.015625)"/>
       <path id="DejaVuSans-6c" d="M 603 4863 
L 1178 4863 
L 1178 0 
L 603 0 
L 603 4863 
z
" transform="scale(0.015625)"/>
       <path id="DejaVuSans-6f" d="M 1959 3097 
Q 1497 3097 1228 2736 
Q 959 2375 959 1747 
Q 959 1119 1226 758 
Q 1494 397 1959 397 
Q 2419 397 2687 759 
Q 2956 1122 2956 1747 
Q 2956 2369 2687 2733 
Q 2419 3097 1959 3097 
z
M 1959 3584 
Q 2709 3584 3137 3096 
Q 3566 2609 3566 1747 
Q 3566 888 3137 398 
Q 2709 -91 1959 -91 
Q 1206 -91 779 398 
Q 353 888 353 1747 
Q 353 2609 779 3096 
Q 1206 3584 1959 3584 
z
" transform="scale(0.015625)"/>
       <path id="DejaVuSans-77" d="M 269 3500 
L 844 3500 
L 1563 769 
L 2278 3500 
L 2956 3500 
L 3675 769 
L 4391 3500 
L 4966 3500 
L 4050 0 
L 3372 0 
L 2619 2869 
L 1863 0 
L 1184 0 
L 269 3500 
z
" transform="scale(0.015625)"/>
       <path id="DejaVuSans-20" transform="scale(0.015625)"/>
       <path id="DejaVuSans-72" d="M 2631 2963 
Q 2534 3019 2420 3045 
Q 2306 3072 2169 3072 
Q 1681 3072 1420 2755 
Q 1159 2438 1159 1844 
L 1159 0 
L 581 0 
L 581 3500 
L 1159 3500 
L 1159 2956 
Q 1341 3275 1631 3429 
Q 1922 3584 2338 3584 
Q 2397 3584 2469 3576 
Q 2541 3569 2628 3553 
L 2631 2963 
z
" transform="scale(0.015625)"/>
       <path id="DejaVuSans-61" d="M 2194 1759 
Q 1497 1759 1228 1600 
Q 959 1441 959 1056 
Q 959 750 1161 570 
Q 1363 391 1709 391 
Q 2188 391 2477 730 
Q 2766 1069 2766 1631 
L 2766 1759 
L 2194 1759 
z
M 3341 1997 
L 3341 0 
L 2766 0 
L 2766 531 
Q 2569 213 2275 61 
Q 1981 -91 1556 -91 
Q 1019 -91 701 211 
Q 384 513 384 1019 
Q 384 1609 779 1909 
Q 1175 2209 1959 2209 
L 2766 2209 
L 2766 2266 
Q 2766 2663 2505 2880 
Q 2244 3097 1772 3097 
Q 1472 3097 1187 3025 
Q 903 2953 641 2809 
L 641 3341 
Q 956 3463 1253 3523 
Q 1550 3584 1831 3584 
Q 2591 3584 2966 3190 
Q 3341 2797 3341 1997 
z
" transform="scale(0.015625)"/>
       <path id="DejaVuSans-74" d="M 1172 4494 
L 1172 3500 
L 2356 3500 
L 2356 3053 
L 1172 3053 
L 1172 1153 
Q 1172 725 1289 603 
Q 1406 481 1766 481 
L 2356 481 
L 2356 0 
L 1766 0 
Q 1100 0 847 248 
Q 594 497 594 1153 
L 594 3053 
L 172 3053 
L 172 3500 
L 594 3500 
L 594 4494 
L 1172 4494 
z
" transform="scale(0.015625)"/>
       <path id="DejaVuSans-65" d="M 3597 1894 
L 3597 1613 
L 953 1613 
Q 991 1019 1311 708 
Q 1631 397 2203 397 
Q 2534 397 2845 478 
Q 3156 559 3463 722 
L 3463 178 
Q 3153 47 2828 -22 
Q 2503 -91 2169 -91 
Q 1331 -91 842 396 
Q 353 884 353 1716 
Q 353 2575 817 3079 
Q 1281 3584 2069 3584 
Q 2775 3584 3186 3129 
Q 3597 2675 3597 1894 
z
M 3022 2063 
Q 3016 2534 2758 2815 
Q 2500 3097 2075 3097 
Q 1594 3097 1305 2825 
Q 1016 2553 972 2059 
L 3022 2063 
z
" transform="scale(0.015625)"/>
       <path id="DejaVuSans-28" d="M 1984 4856 
Q 1566 4138 1362 3434 
Q 1159 2731 1159 2009 
Q 1159 1288 1364 580 
Q 1569 -128 1984 -844 
L 1484 -844 
Q 1016 -109 783 600 
Q 550 1309 550 2009 
Q 550 2706 781 3412 
Q 1013 4119 1484 4856 
L 1984 4856 
z
" transform="scale(0.015625)"/>
       <path id="DejaVuSans-6e" d="M 3513 2113 
L 3513 0 
L 2938 0 
L 2938 2094 
Q 2938 2591 2744 2837 
Q 2550 3084 2163 3084 
Q 1697 3084 1428 2787 
Q 1159 2491 1159 1978 
L 1159 0 
L 581 0 
L 581 3500 
L 1159 3500 
L 1159 2956 
Q 1366 3272 1645 3428 
Q 1925 3584 2291 3584 
Q 2894 3584 3203 3211 
Q 3513 2838 3513 2113 
z
" transform="scale(0.015625)"/>
       <path id="DejaVuSans-6d" d="M 3328 2828 
Q 3544 3216 3844 3400 
Q 4144 3584 4550 3584 
Q 5097 3584 5394 3201 
Q 5691 2819 5691 2113 
L 5691 0 
L 5113 0 
L 5113 2094 
Q 5113 2597 4934 2840 
Q 4756 3084 4391 3084 
Q 3944 3084 3684 2787 
Q 3425 2491 3425 1978 
L 3425 0 
L 2847 0 
L 2847 2094 
Q 2847 2600 2669 2842 
Q 2491 3084 2119 3084 
Q 1678 3084 1418 2786 
Q 1159 2488 1159 1978 
L 1159 0 
L 581 0 
L 581 3500 
L 1159 3500 
L 1159 2956 
Q 1356 3278 1631 3431 
Q 1906 3584 2284 3584 
Q 2666 3584 2933 3390 
Q 3200 3197 3328 2828 
z
" transform="scale(0.015625)"/>
       <path id="DejaVuSans-69" d="M 603 3500 
L 1178 3500 
L 1178 0 
L 603 0 
L 603 3500 
z
M 603 4863 
L 1178 4863 
L 1178 4134 
L 603 4134 
L 603 4863 
z
" transform="scale(0.015625)"/>
       <path id="DejaVuSans-7a" d="M 353 3500 
L 3084 3500 
L 3084 2975 
L 922 459 
L 3084 459 
L 3084 0 
L 275 0 
L 275 525 
L 2438 3041 
L 353 3041 
L 353 3500 
z
" transform="scale(0.015625)"/>
       <path id="DejaVuSans-64" d="M 2906 2969 
L 2906 4863 
L 3481 4863 
L 3481 0 
L 2906 0 
L 2906 525 
Q 2725 213 2448 61 
Q 2172 -91 1784 -91 
Q 1150 -91 751 415 
Q 353 922 353 1747 
Q 353 2572 751 3078 
Q 1150 3584 1784 3584 
Q 2172 3584 2448 3432 
Q 2725 3281 2906 2969 
z
M 947 1747 
Q 947 1113 1208 752 
Q 1469 391 1925 391 
Q 2381 391 2643 752 
Q 2906 1113 2906 1747 
Q 2906 2381 2643 2742 
Q 2381 3103 1925 3103 
Q 1469 3103 1208 2742 
Q 947 2381 947 1747 
z
" transform="scale(0.015625)"/>
       <path id="DejaVuSans-29" d="M 513 4856 
L 1013 4856 
Q 1481 4119 1714 3412 
Q 1947 2706 1947 2009 
Q 1947 1309 1714 600 
Q 1481 -109 1013 -844 
L 513 -844 
Q 928 -128 1133 580 
Q 1338 1288 1338 2009 
Q 1338 2731 1133 3434 
Q 928 4138 513 4856 
z
" transform="scale(0.015625)"/>
      </defs>
      <use xlink:href="#DejaVuSans-66"/>
      <use xlink:href="#DejaVuSans-6c" x="35.205078"/>
      <use xlink:href="#DejaVuSans-6f" x="62.988281"/>
      <use xlink:href="#DejaVuSans-77" x="124.169922"/>
      <use xlink:href="#DejaVuSans-20" x="205.957031"/>
      <use xlink:href="#DejaVuSans-72" x="237.744141"/>
      <use xlink:href="#DejaVuSans-61" x="278.857422"/>
      <use xlink:href="#DejaVuSans-74" x="340.136719"/>
      <use xlink:href="#DejaVuSans-65" x="379.345703"/>
      <use xlink:href="#DejaVuSans-20" x="440.869141"/>
      <use xlink:href="#DejaVuSans-28" x="472.65625"/>
      <use xlink:href="#DejaVuSans-6e" x="511.669922"/>
      <use xlink:href="#DejaVuSans-6f" x="575.048828"/>
      <use xlink:href="#DejaVuSans-72" x="636.230469"/>
      <use xlink:href="#DejaVuSans-6d" x="675.59375"/>
      <use xlink:href="#DejaVuSans-61" x="773.005859"/>
      <use xlink:href="#DejaVuSans-6c" x="834.285156"/>
      <use xlink:href="#DejaVuSans-69" x="862.068359"/>
      <use xlink:href="#DejaVuSans-7a" x="889.851562"/>
      <use xlink:href="#DejaVuSans-65" x="942.341797"/>
      <use xlink:href="#DejaVuSans-64" x="1003.865234"/>
      <use xlink:href="#DejaVuSans-29" x="1067.341797"/>
     </g>
    </g>
   </g>
   <g id="line2d_10">
    <path d="M 73.832727 66.602181 
L 77.079273 51.91587 
L 80.325818 59.699579 
L 83.572364 62.377233 
L 86.818909 63.590421 
L 90.065455 64.204426 
L 93.312 64.530389 
L 96.558545 64.711891 
L 99.805091 64.815964 
L 103.051636 64.875626 
L 106.298182 64.911005 
L 109.544727 64.931297 
L 112.791273 64.943766 
L 116.037818 64.951123 
L 119.284364 64.95554 
L 122.530909 64.937997 
L 125.777455 64.12949 
L 129.024 64.127995 
L 132.270545 64.12672 
L 135.517091 64.126006 
L 138.763636 64.125581 
L 142.010182 64.125408 
L 145.256727 64.12535 
L 148.503273 64.125316 
L 151.749818 64.125344 
L 154.996364 64.125373 
L 158.242909 64.125409 
L 161.489455 64.125447 
L 164.736 64.125472 
L 167.982545 64.125498 
L 171.229091 64.133709 
L 174.475636 64.221039 
L 177.722182 63.385102 
L 180.968727 62.356201 
L 184.215273 61.397449 
L 187.461818 60.849612 
L 190.708364 60.748555 
L 193.954909 60.992984 
L 197.201455 61.52666 
L 200.448 62.016895 
L 203.694545 62.559093 
L 206.941091 63.051994 
L 210.187636 63.478203 
L 213.434182 63.828999 
L 216.680727 64.104369 
L 219.927273 64.322006 
L 223.173818 64.488947 
L 226.420364 64.614205 
L 229.666909 64.707587 
L 232.913455 64.777516 
L 236.16 64.828844 
L 239.406545 64.866294 
L 242.653091 64.892428 
L 245.899636 64.911618 
L 249.146182 64.924665 
L 252.392727 64.934853 
L 255.639273 64.941734 
L 258.885818 64.948271 
L 262.132364 64.951395 
L 265.378909 64.954517 
L 268.625455 64.961802 
L 271.872 68.640952 
L 275.118545 70.283084 
L 278.365091 70.894282 
L 281.611636 71.013272 
L 284.858182 70.911087 
L 288.104727 70.711629 
L 291.351273 70.474355 
L 294.597818 70.226762 
L 297.844364 69.982266 
L 301.090909 69.747003 
L 304.337455 69.523973 
L 307.584 69.313935 
L 310.830545 69.117597 
L 314.077091 68.93462 
L 317.323636 68.763254 
L 320.570182 68.603108 
L 323.816727 68.453464 
L 327.063273 68.313247 
L 330.309818 68.182034 
L 333.556364 68.059182 
L 336.802909 67.944071 
L 340.049455 67.83603 
L 343.296 67.734397 
L 346.542545 67.638271 
L 349.789091 67.546991 
L 353.035636 67.461343 
L 356.282182 67.379509 
L 359.528727 67.302795 
L 362.775273 67.22974 
L 366.021818 67.159589 
L 369.268364 67.092684 
L 372.514909 67.028839 
L 375.761455 66.967719 
L 379.008 66.909096 
L 382.254545 66.853151 
L 385.501091 66.7994 
L 388.747636 66.747875 
L 391.994182 66.698631 
L 395.240727 66.651163 
L 398.487273 66.605663 
" clip-path="url(#pcdd532c7dd)" style="fill: none; stroke: #1f77b4; stroke-width: 1.5; stroke-linecap: square"/>
   </g>
   <g id="line2d_11">
    <path d="M 73.832727 68.989252 
L 77.079273 43.557517 
L 80.325818 55.784361 
L 83.572364 60.397757 
L 86.818909 62.53035 
L 90.065455 63.616471 
L 93.312 64.194605 
L 96.558545 64.516745 
L 99.805091 64.701581 
L 103.051636 64.807518 
L 106.298182 64.870333 
L 109.544727 64.906339 
L 112.791273 64.928474 
L 116.037818 64.941525 
L 119.284364 64.949361 
L 122.530909 64.529241 
L 125.777455 64.129229 
L 129.024 64.129098 
L 132.270545 64.128995 
L 135.517091 64.12896 
L 138.763636 64.12896 
L 142.010182 64.128992 
L 145.256727 64.129038 
L 148.503273 64.129087 
L 151.749818 64.129144 
L 154.996364 64.129202 
L 158.242909 64.129261 
L 161.489455 64.12932 
L 164.736 64.129377 
L 167.982545 64.129434 
L 171.229091 64.17392 
L 174.475636 64.882492 
L 177.722182 64.814174 
L 180.968727 64.731424 
L 184.215273 64.654339 
L 187.461818 64.611371 
L 190.708364 64.604947 
L 193.954909 64.624016 
L 197.201455 64.668553 
L 200.448 64.707472 
L 203.694545 64.752017 
L 206.941091 64.793086 
L 210.187636 64.829296 
L 213.434182 64.859684 
L 216.680727 64.884025 
L 219.927273 64.903574 
L 223.173818 64.918761 
L 226.420364 64.930336 
L 229.666909 64.939022 
L 232.913455 64.945588 
L 236.16 64.950451 
L 239.406545 64.954022 
L 242.653091 64.956542 
L 245.899636 64.958395 
L 249.146182 64.959668 
L 252.392727 64.960657 
L 255.639273 64.961329 
L 258.885818 64.961963 
L 262.132364 64.962266 
L 265.378909 64.962569 
L 268.625455 64.984219 
L 271.872 74.577303 
L 275.118545 80.867536 
L 278.365091 84.179909 
L 281.611636 85.267862 
L 284.858182 85.099169 
L 288.104727 84.331647 
L 291.351273 83.329962 
L 294.597818 82.284119 
L 297.844364 81.271783 
L 301.090909 80.321194 
L 304.337455 79.43903 
L 307.584 78.620183 
L 310.830545 77.86466 
L 314.077091 77.168493 
L 317.323636 76.521383 
L 320.570182 75.922341 
L 323.816727 75.366831 
L 327.063273 74.851961 
L 330.309818 74.374679 
L 333.556364 73.931613 
L 336.802909 73.520832 
L 340.049455 73.136591 
L 343.296 72.772297 
L 346.542545 72.434175 
L 349.789091 72.121727 
L 353.035636 71.822652 
L 356.282182 71.541835 
L 359.528727 71.279506 
L 362.775273 71.03179 
L 366.021818 70.795114 
L 369.268364 70.57099 
L 372.514909 70.358587 
L 375.761455 70.156555 
L 379.008 69.964033 
L 382.254545 69.781717 
L 385.501091 69.60797 
L 388.747636 69.442903 
L 391.994182 69.286642 
L 395.240727 69.136871 
L 398.487273 68.99447 
" clip-path="url(#pcdd532c7dd)" style="fill: none; stroke: #ff7f0e; stroke-width: 1.5; stroke-linecap: square"/>
   </g>
   <g id="line2d_12">
    <path d="M 73.832727 65.139671 
L 77.079273 63.427929 
L 80.325818 64.361397 
L 83.572364 64.669384 
L 86.818909 64.807672 
L 90.065455 64.877453 
L 93.312 64.914446 
L 96.558545 64.935029 
L 99.805091 64.946825 
L 103.051636 64.953585 
L 106.298182 64.957593 
L 109.544727 64.959891 
L 112.791273 64.961303 
L 116.037818 64.962136 
L 119.284364 64.962636 
L 122.530909 65.213411 
L 125.777455 64.130982 
L 129.024 64.128285 
L 132.270545 64.125986 
L 135.517091 64.124693 
L 138.763636 64.12392 
L 142.010182 64.123601 
L 145.256727 64.12349 
L 148.503273 64.123422 
L 151.749818 64.123464 
L 154.996364 64.123512 
L 158.242909 64.123572 
L 161.489455 64.123635 
L 164.736 64.123678 
L 167.982545 64.123723 
L 171.229091 64.121424 
L 174.475636 63.478671 
L 177.722182 61.689675 
L 180.968727 59.396824 
L 184.215273 57.108212 
L 187.461818 55.650734 
L 190.708364 55.259056 
L 193.954909 55.84841 
L 197.201455 57.185308 
L 200.448 58.451697 
L 203.694545 59.817742 
L 206.941091 61.010474 
L 210.187636 61.996962 
L 213.434182 62.770315 
L 216.680727 63.34684 
L 219.927273 63.785639 
L 223.173818 64.111475 
L 226.420364 64.346491 
L 229.666909 64.520376 
L 232.913455 64.646155 
L 236.16 64.73692 
L 239.406545 64.801971 
L 242.653091 64.846066 
L 245.899636 64.878258 
L 249.146182 64.899532 
L 252.392727 64.916433 
L 255.639273 64.927634 
L 258.885818 64.938536 
L 262.132364 64.943714 
L 265.378909 64.948935 
L 268.625455 64.955941 
L 271.872 65.330126 
L 275.118545 65.487504 
L 278.365091 65.547452 
L 281.611636 65.562205 
L 284.858182 65.555993 
L 288.104727 65.539852 
L 291.351273 65.519367 
L 294.597818 65.497157 
L 297.844364 65.474649 
L 301.090909 65.452568 
L 304.337455 65.43132 
L 307.584 65.4111 
L 310.830545 65.39204 
L 314.077091 65.374158 
L 317.323636 65.357331 
L 320.570182 65.341534 
L 323.816727 65.32672 
L 327.063273 65.312787 
L 330.309818 65.299704 
L 333.556364 65.287419 
L 336.802909 65.275869 
L 340.049455 65.265011 
L 343.296 65.254806 
L 346.542545 65.245123 
L 349.789091 65.235891 
L 353.035636 65.227261 
L 356.282182 65.21899 
L 359.528727 65.211223 
L 362.775273 65.203816 
L 366.021818 65.196704 
L 369.268364 65.189914 
L 372.514909 65.183428 
L 375.761455 65.177216 
L 379.008 65.171254 
L 382.254545 65.165559 
L 385.501091 65.160082 
L 388.747636 65.154824 
L 391.994182 65.149793 
L 395.240727 65.144941 
L 398.487273 65.140285 
" clip-path="url(#pcdd532c7dd)" style="fill: none; stroke: #2ca02c; stroke-width: 1.5; stroke-linecap: square"/>
   </g>
   <g id="patch_3">
    <path d="M 57.6 87.353379 
L 57.6 41.472 
" style="fill: none; stroke: #000000; stroke-width: 0.8; stroke-linejoin: miter; stroke-linecap: square"/>
   </g>
   <g id="patch_4">
    <path d="M 414.72 87.353379 
L 414.72 41.472 
" style="fill: none; stroke: #000000; stroke-width: 0.8; stroke-linejoin: miter; stroke-linecap: square"/>
   </g>
   <g id="patch_5">
    <path d="M 57.6 87.353379 
L 414.72 87.353379 
" style="fill: none; stroke: #000000; stroke-width: 0.8; stroke-linejoin: miter; stroke-linecap: square"/>
   </g>
   <g id="patch_6">
    <path d="M 57.6 41.472 
L 414.72 41.472 
" style="fill: none; stroke: #000000; stroke-width: 0.8; stroke-linejoin: miter; stroke-linecap: square"/>
   </g>
   <g id="text_5">
    <!-- velocity vs time (container 1)   -->
    <g transform="translate(144.106875 35.472)scale(0.12 -0.12)">
     <defs>
      <path id="DejaVuSans-76" d="M 191 3500 
L 800 3500 
L 1894 563 
L 2988 3500 
L 3597 3500 
L 2284 0 
L 1503 0 
L 191 3500 
z
" transform="scale(0.015625)"/>
      <path id="DejaVuSans-63" d="M 3122 3366 
L 3122 2828 
Q 2878 2963 2633 3030 
Q 2388 3097 2138 3097 
Q 1578 3097 1268 2742 
Q 959 2388 959 1747 
Q 959 1106 1268 751 
Q 1578 397 2138 397 
Q 2388 397 2633 464 
Q 2878 531 3122 666 
L 3122 134 
Q 2881 22 2623 -34 
Q 2366 -91 2075 -91 
Q 1284 -91 818 406 
Q 353 903 353 1747 
Q 353 2603 823 3093 
Q 1294 3584 2113 3584 
Q 2378 3584 2631 3529 
Q 2884 3475 3122 3366 
z
" transform="scale(0.015625)"/>
      <path id="DejaVuSans-79" d="M 2059 -325 
Q 1816 -950 1584 -1140 
Q 1353 -1331 966 -1331 
L 506 -1331 
L 506 -850 
L 844 -850 
Q 1081 -850 1212 -737 
Q 1344 -625 1503 -206 
L 1606 56 
L 191 3500 
L 800 3500 
L 1894 763 
L 2988 3500 
L 3597 3500 
L 2059 -325 
z
" transform="scale(0.015625)"/>
      <path id="DejaVuSans-73" d="M 2834 3397 
L 2834 2853 
Q 2591 2978 2328 3040 
Q 2066 3103 1784 3103 
Q 1356 3103 1142 2972 
Q 928 2841 928 2578 
Q 928 2378 1081 2264 
Q 1234 2150 1697 2047 
L 1894 2003 
Q 2506 1872 2764 1633 
Q 3022 1394 3022 966 
Q 3022 478 2636 193 
Q 2250 -91 1575 -91 
Q 1294 -91 989 -36 
Q 684 19 347 128 
L 347 722 
Q 666 556 975 473 
Q 1284 391 1588 391 
Q 1994 391 2212 530 
Q 2431 669 2431 922 
Q 2431 1156 2273 1281 
Q 2116 1406 1581 1522 
L 1381 1569 
Q 847 1681 609 1914 
Q 372 2147 372 2553 
Q 372 3047 722 3315 
Q 1072 3584 1716 3584 
Q 2034 3584 2315 3537 
Q 2597 3491 2834 3397 
z
" transform="scale(0.015625)"/>
      <path id="DejaVuSans-31" d="M 794 531 
L 1825 531 
L 1825 4091 
L 703 3866 
L 703 4441 
L 1819 4666 
L 2450 4666 
L 2450 531 
L 3481 531 
L 3481 0 
L 794 0 
L 794 531 
z
" transform="scale(0.015625)"/>
     </defs>
     <use xlink:href="#DejaVuSans-76"/>
     <use xlink:href="#DejaVuSans-65" x="59.179688"/>
     <use xlink:href="#DejaVuSans-6c" x="120.703125"/>
     <use xlink:href="#DejaVuSans-6f" x="148.486328"/>
     <use xlink:href="#DejaVuSans-63" x="209.667969"/>
     <use xlink:href="#DejaVuSans-69" x="264.648438"/>
     <use xlink:href="#DejaVuSans-74" x="292.431641"/>
     <use xlink:href="#DejaVuSans-79" x="331.640625"/>
     <use xlink:href="#DejaVuSans-20" x="390.820312"/>
     <use xlink:href="#DejaVuSans-76" x="422.607422"/>
     <use xlink:href="#DejaVuSans-73" x="481.787109"/>
     <use xlink:href="#DejaVuSans-20" x="533.886719"/>
     <use xlink:href="#DejaVuSans-74" x="565.673828"/>
     <use xlink:href="#DejaVuSans-69" x="604.882812"/>
     <use xlink:href="#DejaVuSans-6d" x="632.666016"/>
     <use xlink:href="#DejaVuSans-65" x="730.078125"/>
     <use xlink:href="#DejaVuSans-20" x="791.601562"/>
     <use xlink:href="#DejaVuSans-28" x="823.388672"/>
     <use xlink:href="#DejaVuSans-63" x="862.402344"/>
     <use xlink:href="#DejaVuSans-6f" x="917.382812"/>
     <use xlink:href="#DejaVuSans-6e" x="978.564453"/>
     <use xlink:href="#DejaVuSans-74" x="1041.943359"/>
     <use xlink:href="#DejaVuSans-61" x="1081.152344"/>
     <use xlink:href="#DejaVuSans-69" x="1142.431641"/>
     <use xlink:href="#DejaVuSans-6e" x="1170.214844"/>
     <use xlink:href="#DejaVuSans-65" x="1233.59375"/>
     <use xlink:href="#DejaVuSans-72" x="1295.117188"/>
     <use xlink:href="#DejaVuSans-20" x="1336.230469"/>
     <use xlink:href="#DejaVuSans-31" x="1368.017578"/>
     <use xlink:href="#DejaVuSans-29" x="1431.640625"/>
     <use xlink:href="#DejaVuSans-20" x="1470.654297"/>
     <use xlink:href="#DejaVuSans-20" x="1502.441406"/>
    </g>
   </g>
   <g id="legend_1">
    <g id="patch_7">
     <path d="M 64.6 93.506375 
L 139.240625 93.506375 
Q 141.240625 93.506375 141.240625 91.506375 
L 141.240625 48.472 
Q 141.240625 46.472 139.240625 46.472 
L 64.6 46.472 
Q 62.6 46.472 62.6 48.472 
L 62.6 91.506375 
Q 62.6 93.506375 64.6 93.506375 
z
" style="fill: #ffffff; opacity: 0.8; stroke: #cccccc; stroke-linejoin: miter"/>
    </g>
    <g id="line2d_13">
     <path d="M 66.6 54.570437 
L 76.6 54.570437 
L 86.6 54.570437 
" style="fill: none; stroke: #1f77b4; stroke-width: 1.5; stroke-linecap: square"/>
    </g>
    <g id="text_6">
     <!-- mid flow -->
     <g transform="translate(94.6 58.070437)scale(0.1 -0.1)">
      <use xlink:href="#DejaVuSans-6d"/>
      <use xlink:href="#DejaVuSans-69" x="97.412109"/>
      <use xlink:href="#DejaVuSans-64" x="125.195312"/>
      <use xlink:href="#DejaVuSans-20" x="188.671875"/>
      <use xlink:href="#DejaVuSans-66" x="220.458984"/>
      <use xlink:href="#DejaVuSans-6c" x="255.664062"/>
      <use xlink:href="#DejaVuSans-6f" x="283.447266"/>
      <use xlink:href="#DejaVuSans-77" x="344.628906"/>
     </g>
    </g>
    <g id="line2d_14">
     <path d="M 66.6 69.248562 
L 76.6 69.248562 
L 86.6 69.248562 
" style="fill: none; stroke: #ff7f0e; stroke-width: 1.5; stroke-linecap: square"/>
    </g>
    <g id="text_7">
     <!-- v0 flow -->
     <g transform="translate(94.6 72.748562)scale(0.1 -0.1)">
      <use xlink:href="#DejaVuSans-76"/>
      <use xlink:href="#DejaVuSans-30" x="59.179688"/>
      <use xlink:href="#DejaVuSans-20" x="122.802734"/>
      <use xlink:href="#DejaVuSans-66" x="154.589844"/>
      <use xlink:href="#DejaVuSans-6c" x="189.794922"/>
      <use xlink:href="#DejaVuSans-6f" x="217.578125"/>
      <use xlink:href="#DejaVuSans-77" x="278.759766"/>
     </g>
    </g>
    <g id="line2d_15">
     <path d="M 66.6 83.926687 
L 76.6 83.926687 
L 86.6 83.926687 
" style="fill: none; stroke: #2ca02c; stroke-width: 1.5; stroke-linecap: square"/>
    </g>
    <g id="text_8">
     <!-- vN flow -->
     <g transform="translate(94.6 87.426687)scale(0.1 -0.1)">
      <defs>
       <path id="DejaVuSans-4e" d="M 628 4666 
L 1478 4666 
L 3547 763 
L 3547 4666 
L 4159 4666 
L 4159 0 
L 3309 0 
L 1241 3903 
L 1241 0 
L 628 0 
L 628 4666 
z
" transform="scale(0.015625)"/>
      </defs>
      <use xlink:href="#DejaVuSans-76"/>
      <use xlink:href="#DejaVuSans-4e" x="59.179688"/>
      <use xlink:href="#DejaVuSans-20" x="133.984375"/>
      <use xlink:href="#DejaVuSans-66" x="165.771484"/>
      <use xlink:href="#DejaVuSans-6c" x="200.976562"/>
      <use xlink:href="#DejaVuSans-6f" x="228.759766"/>
      <use xlink:href="#DejaVuSans-77" x="289.941406"/>
     </g>
    </g>
   </g>
  </g>
  <g id="axes_2">
   <g id="patch_8">
    <path d="M 57.6 142.411034 
L 414.72 142.411034 
L 414.72 96.529655 
L 57.6 96.529655 
z
" style="fill: #ffffff"/>
   </g>
   <g id="matplotlib.axis_3">
    <g id="xtick_7">
     <g id="line2d_16">
      <g>
       <use xlink:href="#m31208b7ebc" x="73.832727" y="142.411034" style="stroke: #000000; stroke-width: 0.8"/>
      </g>
     </g>
    </g>
    <g id="xtick_8">
     <g id="line2d_17">
      <g>
       <use xlink:href="#m31208b7ebc" x="138.763636" y="142.411034" style="stroke: #000000; stroke-width: 0.8"/>
      </g>
     </g>
    </g>
    <g id="xtick_9">
     <g id="line2d_18">
      <g>
       <use xlink:href="#m31208b7ebc" x="203.694545" y="142.411034" style="stroke: #000000; stroke-width: 0.8"/>
      </g>
     </g>
    </g>
    <g id="xtick_10">
     <g id="line2d_19">
      <g>
       <use xlink:href="#m31208b7ebc" x="268.625455" y="142.411034" style="stroke: #000000; stroke-width: 0.8"/>
      </g>
     </g>
    </g>
    <g id="xtick_11">
     <g id="line2d_20">
      <g>
       <use xlink:href="#m31208b7ebc" x="333.556364" y="142.411034" style="stroke: #000000; stroke-width: 0.8"/>
      </g>
     </g>
    </g>
    <g id="xtick_12">
     <g id="line2d_21">
      <g>
       <use xlink:href="#m31208b7ebc" x="398.487273" y="142.411034" style="stroke: #000000; stroke-width: 0.8"/>
      </g>
     </g>
    </g>
   </g>
   <g id="matplotlib.axis_4">
    <g id="ytick_4">
     <g id="line2d_22">
      <g>
       <use xlink:href="#mb9bbe13a8c" x="57.6" y="140.771476" style="stroke: #000000; stroke-width: 0.8"/>
      </g>
     </g>
     <g id="text_9">
      <!-- 0 -->
      <g transform="translate(44.2375 144.570695)scale(0.1 -0.1)">
       <use xlink:href="#DejaVuSans-30"/>
      </g>
     </g>
    </g>
    <g id="ytick_5">
     <g id="line2d_23">
      <g>
       <use xlink:href="#mb9bbe13a8c" x="57.6" y="98.772364" style="stroke: #000000; stroke-width: 0.8"/>
      </g>
     </g>
     <g id="text_10">
      <!-- 1 -->
      <g transform="translate(44.2375 102.571583)scale(0.1 -0.1)">
       <use xlink:href="#DejaVuSans-31"/>
      </g>
     </g>
    </g>
   </g>
   <g id="line2d_24">
    <path d="M 73.832727 140.325517 
L 77.079273 124.100081 
L 80.325818 114.115542 
L 83.572364 108.074998 
L 86.818909 104.411723 
L 90.065455 102.193026 
L 93.312 100.846468 
L 96.558545 100.031365 
L 99.805091 99.53535 
L 103.051636 99.235204 
L 106.298182 99.053286 
L 109.544727 98.943536 
L 112.791273 98.876536 
L 116.037818 98.835662 
L 119.284364 98.811078 
L 122.530909 98.764688 
L 125.777455 98.615889 
L 129.024 98.615631 
L 132.270545 98.615411 
L 135.517091 98.615288 
L 138.763636 98.615215 
L 142.010182 98.615186 
L 145.256727 98.615177 
L 148.503273 98.615172 
L 151.749818 98.615178 
L 154.996364 98.615184 
L 158.242909 98.615192 
L 161.489455 98.615199 
L 164.736 98.615205 
L 167.982545 98.615211 
L 171.229091 98.618431 
L 174.475636 113.511373 
L 177.722182 122.374453 
L 180.968727 127.653257 
L 184.215273 130.792626 
L 187.461818 132.695044 
L 190.708364 133.88881 
L 193.954909 134.682549 
L 197.201455 135.222748 
L 200.448 135.601082 
L 203.694545 135.873349 
L 206.941091 136.069684 
L 210.187636 136.211606 
L 213.434182 136.313829 
L 216.680727 136.387096 
L 219.927273 136.439282 
L 223.173818 136.476874 
L 226.420364 136.504093 
L 229.666909 136.523422 
L 232.913455 136.537305 
L 236.16 136.547213 
L 239.406545 136.554254 
L 242.653091 136.559001 
L 245.899636 136.56253 
L 249.146182 136.564826 
L 252.392727 136.566644 
L 255.639273 136.567833 
L 258.885818 136.568986 
L 262.132364 136.569511 
L 265.378909 136.570048 
L 268.625455 136.571989 
L 271.872 138.002771 
L 275.118545 138.852451 
L 278.365091 139.356255 
L 281.611636 139.652285 
L 284.858182 139.831179 
L 288.104727 139.944162 
L 291.351273 140.020357 
L 294.597818 140.074847 
L 297.844364 140.115752 
L 301.090909 140.14756 
L 304.337455 140.172759 
L 307.584 140.193057 
L 310.830545 140.20965 
L 314.077091 140.223546 
L 317.323636 140.235287 
L 320.570182 140.245371 
L 323.816727 140.254066 
L 327.063273 140.261696 
L 330.309818 140.268379 
L 333.556364 140.274284 
L 336.802909 140.279531 
L 340.049455 140.284246 
L 343.296 140.288522 
L 346.542545 140.292397 
L 349.789091 140.295935 
L 353.035636 140.299142 
L 356.282182 140.30211 
L 359.528727 140.304789 
L 362.775273 140.307269 
L 366.021818 140.309579 
L 369.268364 140.311721 
L 372.514909 140.313706 
L 375.761455 140.315558 
L 379.008 140.317289 
L 382.254545 140.318889 
L 385.501091 140.320394 
L 388.747636 140.321799 
L 391.994182 140.323102 
L 395.240727 140.324332 
L 398.487273 140.325479 
" clip-path="url(#pb5b4e45b03)" style="fill: none; stroke: #1f77b4; stroke-width: 1.5; stroke-linecap: square"/>
   </g>
   <g id="line2d_25">
    <path d="M 73.832727 140.039342 
L 77.079273 125.890861 
L 80.325818 114.86692 
L 83.572364 108.447137 
L 86.818909 104.609802 
L 90.065455 102.302646 
L 93.312 100.909041 
L 96.558545 100.067726 
L 99.805091 99.556673 
L 103.051636 99.247906 
L 106.298182 99.060876 
L 109.544727 98.948194 
L 112.791273 98.879392 
L 116.037818 98.837456 
L 119.284364 98.812233 
L 122.530909 98.788266 
L 125.777455 98.696196 
L 129.024 98.695999 
L 132.270545 98.695831 
L 135.517091 98.695737 
L 138.763636 98.695681 
L 142.010182 98.695658 
L 145.256727 98.69565 
L 148.503273 98.695645 
L 151.749818 98.695648 
L 154.996364 98.695652 
L 158.242909 98.695656 
L 161.489455 98.695661 
L 164.736 98.695664 
L 167.982545 98.695667 
L 171.229091 98.696291 
L 174.475636 113.541637 
L 177.722182 122.436375 
L 180.968727 127.753802 
L 184.215273 130.928826 
L 187.461818 132.851218 
L 190.708364 134.048275 
L 193.954909 134.832922 
L 197.201455 135.353238 
L 200.448 135.71348 
L 203.694545 135.965609 
L 206.941091 136.143514 
L 210.187636 136.269362 
L 213.434182 136.35823 
L 216.680727 136.420906 
L 219.927273 136.464656 
L 223.173818 136.495734 
L 226.420364 136.518028 
L 229.666909 136.533669 
L 232.913455 136.544778 
L 236.16 136.55264 
L 239.406545 136.558182 
L 242.653091 136.561878 
L 245.899636 136.564634 
L 249.146182 136.566401 
L 252.392727 136.567808 
L 255.639273 136.568718 
L 258.885818 136.569608 
L 262.132364 136.570006 
L 265.378909 136.570417 
L 268.625455 136.570982 
L 271.872 137.320688 
L 275.118545 137.782398 
L 278.365091 138.104346 
L 281.611636 138.348999 
L 284.858182 138.544967 
L 288.104727 138.706731 
L 291.351273 138.843926 
L 294.597818 138.961705 
L 297.844364 139.064007 
L 301.090909 139.153729 
L 304.337455 139.232899 
L 307.584 139.30342 
L 310.830545 139.366472 
L 314.077091 139.423262 
L 317.323636 139.474927 
L 320.570182 139.52204 
L 323.816727 139.565126 
L 327.063273 139.604712 
L 330.309818 139.641082 
L 333.556364 139.674601 
L 336.802909 139.705517 
L 340.049455 139.734262 
L 343.296 139.761271 
L 346.542545 139.786354 
L 349.789091 139.809642 
L 353.035636 139.831658 
L 356.282182 139.852366 
L 359.528727 139.871637 
L 362.775273 139.889823 
L 366.021818 139.907166 
L 369.268364 139.923577 
L 372.514909 139.939116 
L 375.761455 139.953889 
L 379.008 139.967962 
L 382.254545 139.98128 
L 385.501091 139.993982 
L 388.747636 140.006056 
L 391.994182 140.017492 
L 395.240727 140.028456 
L 398.487273 140.038885 
" clip-path="url(#pb5b4e45b03)" style="fill: none; stroke: #ff7f0e; stroke-width: 1.5; stroke-linecap: square"/>
   </g>
   <g id="line2d_26">
    <path d="M 73.832727 139.961711 
L 77.079273 126.535513 
L 80.325818 115.123807 
L 83.572364 108.573038 
L 86.818909 104.676587 
L 90.065455 102.339552 
L 93.312 100.930094 
L 96.558545 100.079955 
L 99.805091 99.563844 
L 103.051636 99.252178 
L 106.298182 99.063428 
L 109.544727 98.94976 
L 112.791273 98.880353 
L 116.037818 98.838059 
L 119.284364 98.812622 
L 122.530909 98.779761 
L 125.777455 98.768359 
L 129.024 98.768345 
L 132.270545 98.768333 
L 135.517091 98.768327 
L 138.763636 98.768323 
L 142.010182 98.768321 
L 145.256727 98.768321 
L 148.503273 98.76832 
L 151.749818 98.768321 
L 154.996364 98.768321 
L 158.242909 98.768321 
L 161.489455 98.768322 
L 164.736 98.768322 
L 167.982545 98.768322 
L 171.229091 98.76872 
L 174.475636 113.637793 
L 177.722182 122.645423 
L 180.968727 128.104796 
L 184.215273 131.41691 
L 187.461818 133.422309 
L 190.708364 134.638505 
L 193.954909 135.388093 
L 197.201455 135.830105 
L 200.448 136.117498 
L 203.694545 136.289939 
L 206.941091 136.396893 
L 210.187636 136.462795 
L 213.434182 136.503555 
L 216.680727 136.529461 
L 219.927273 136.544707 
L 223.173818 136.554285 
L 226.420364 136.560764 
L 229.666909 136.564681 
L 232.913455 136.567149 
L 236.16 136.568727 
L 239.406545 136.569724 
L 242.653091 136.570294 
L 245.899636 136.570762 
L 249.146182 136.570994 
L 252.392727 136.571192 
L 255.639273 136.571294 
L 258.885818 136.571406 
L 262.132364 136.571435 
L 265.378909 136.571474 
L 268.625455 136.571453 
L 271.872 137.151943 
L 275.118545 137.539814 
L 278.365091 137.834094 
L 281.611636 138.072791 
L 284.858182 138.272676 
L 288.104727 138.442838 
L 291.351273 138.590269 
L 294.597818 138.718892 
L 297.844364 138.832017 
L 301.090909 138.932239 
L 304.337455 139.021424 
L 307.584 139.101419 
L 310.830545 139.173359 
L 314.077091 139.238456 
L 317.323636 139.297916 
L 320.570182 139.352328 
L 323.816727 139.402244 
L 327.063273 139.448241 
L 330.309818 139.49062 
L 333.556364 139.529772 
L 336.802909 139.565973 
L 340.049455 139.599682 
L 343.296 139.631357 
L 346.542545 139.66086 
L 349.789091 139.688355 
L 353.035636 139.71431 
L 356.282182 139.738788 
L 359.528727 139.761595 
L 362.775273 139.783151 
L 366.021818 139.80373 
L 369.268364 139.823227 
L 372.514909 139.841714 
L 375.761455 139.859309 
L 379.008 139.876089 
L 382.254545 139.891993 
L 385.501091 139.90718 
L 388.747636 139.921638 
L 391.994182 139.935353 
L 395.240727 139.948514 
L 398.487273 139.961051 
" clip-path="url(#pb5b4e45b03)" style="fill: none; stroke: #2ca02c; stroke-width: 1.5; stroke-linecap: square"/>
   </g>
   <g id="patch_9">
    <path d="M 57.6 142.411034 
L 57.6 96.529655 
" style="fill: none; stroke: #000000; stroke-width: 0.8; stroke-linejoin: miter; stroke-linecap: square"/>
   </g>
   <g id="patch_10">
    <path d="M 414.72 142.411034 
L 414.72 96.529655 
" style="fill: none; stroke: #000000; stroke-width: 0.8; stroke-linejoin: miter; stroke-linecap: square"/>
   </g>
   <g id="patch_11">
    <path d="M 57.6 142.411034 
L 414.72 142.411034 
" style="fill: none; stroke: #000000; stroke-width: 0.8; stroke-linejoin: miter; stroke-linecap: square"/>
   </g>
   <g id="patch_12">
    <path d="M 57.6 96.529655 
L 414.72 96.529655 
" style="fill: none; stroke: #000000; stroke-width: 0.8; stroke-linejoin: miter; stroke-linecap: square"/>
   </g>
   <g id="text_11">
    <!-- Pressure -->
    <g transform="translate(210.546562 90.529655)scale(0.12 -0.12)">
     <defs>
      <path id="DejaVuSans-50" d="M 1259 4147 
L 1259 2394 
L 2053 2394 
Q 2494 2394 2734 2622 
Q 2975 2850 2975 3272 
Q 2975 3691 2734 3919 
Q 2494 4147 2053 4147 
L 1259 4147 
z
M 628 4666 
L 2053 4666 
Q 2838 4666 3239 4311 
Q 3641 3956 3641 3272 
Q 3641 2581 3239 2228 
Q 2838 1875 2053 1875 
L 1259 1875 
L 1259 0 
L 628 0 
L 628 4666 
z
" transform="scale(0.015625)"/>
      <path id="DejaVuSans-75" d="M 544 1381 
L 544 3500 
L 1119 3500 
L 1119 1403 
Q 1119 906 1312 657 
Q 1506 409 1894 409 
Q 2359 409 2629 706 
Q 2900 1003 2900 1516 
L 2900 3500 
L 3475 3500 
L 3475 0 
L 2900 0 
L 2900 538 
Q 2691 219 2414 64 
Q 2138 -91 1772 -91 
Q 1169 -91 856 284 
Q 544 659 544 1381 
z
M 1991 3584 
L 1991 3584 
z
" transform="scale(0.015625)"/>
     </defs>
     <use xlink:href="#DejaVuSans-50"/>
     <use xlink:href="#DejaVuSans-72" x="58.552734"/>
     <use xlink:href="#DejaVuSans-65" x="97.416016"/>
     <use xlink:href="#DejaVuSans-73" x="158.939453"/>
     <use xlink:href="#DejaVuSans-73" x="211.039062"/>
     <use xlink:href="#DejaVuSans-75" x="263.138672"/>
     <use xlink:href="#DejaVuSans-72" x="326.517578"/>
     <use xlink:href="#DejaVuSans-65" x="365.380859"/>
    </g>
   </g>
   <g id="legend_2">
    <g id="patch_13">
     <path d="M 350.823125 137.411034 
L 407.72 137.411034 
Q 409.72 137.411034 409.72 135.411034 
L 409.72 92.376659 
Q 409.72 90.376659 407.72 90.376659 
L 350.823125 90.376659 
Q 348.823125 90.376659 348.823125 92.376659 
L 348.823125 135.411034 
Q 348.823125 137.411034 350.823125 137.411034 
z
" style="fill: #ffffff; opacity: 0.8; stroke: #cccccc; stroke-linejoin: miter"/>
    </g>
    <g id="line2d_27">
     <path d="M 352.823125 98.475097 
L 362.823125 98.475097 
L 372.823125 98.475097 
" style="fill: none; stroke: #1f77b4; stroke-width: 1.5; stroke-linecap: square"/>
    </g>
    <g id="text_12">
     <!-- P1 -->
     <g transform="translate(380.823125 101.975097)scale(0.1 -0.1)">
      <use xlink:href="#DejaVuSans-50"/>
      <use xlink:href="#DejaVuSans-31" x="60.302734"/>
     </g>
    </g>
    <g id="line2d_28">
     <path d="M 352.823125 113.153222 
L 362.823125 113.153222 
L 372.823125 113.153222 
" style="fill: none; stroke: #ff7f0e; stroke-width: 1.5; stroke-linecap: square"/>
    </g>
    <g id="text_13">
     <!-- Pmid -->
     <g transform="translate(380.823125 116.653222)scale(0.1 -0.1)">
      <use xlink:href="#DejaVuSans-50"/>
      <use xlink:href="#DejaVuSans-6d" x="60.302734"/>
      <use xlink:href="#DejaVuSans-69" x="157.714844"/>
      <use xlink:href="#DejaVuSans-64" x="185.498047"/>
     </g>
    </g>
    <g id="line2d_29">
     <path d="M 352.823125 127.831347 
L 362.823125 127.831347 
L 372.823125 127.831347 
" style="fill: none; stroke: #2ca02c; stroke-width: 1.5; stroke-linecap: square"/>
    </g>
    <g id="text_14">
     <!-- PN -->
     <g transform="translate(380.823125 131.331347)scale(0.1 -0.1)">
      <use xlink:href="#DejaVuSans-50"/>
      <use xlink:href="#DejaVuSans-4e" x="60.302734"/>
     </g>
    </g>
   </g>
  </g>
  <g id="axes_3">
   <g id="patch_14">
    <path d="M 57.6 197.46869 
L 414.72 197.46869 
L 414.72 151.58731 
L 57.6 151.58731 
z
" style="fill: #ffffff"/>
   </g>
   <g id="matplotlib.axis_5">
    <g id="xtick_13">
     <g id="line2d_30">
      <g>
       <use xlink:href="#m31208b7ebc" x="73.832727" y="197.46869" style="stroke: #000000; stroke-width: 0.8"/>
      </g>
     </g>
    </g>
    <g id="xtick_14">
     <g id="line2d_31">
      <g>
       <use xlink:href="#m31208b7ebc" x="138.763636" y="197.46869" style="stroke: #000000; stroke-width: 0.8"/>
      </g>
     </g>
    </g>
    <g id="xtick_15">
     <g id="line2d_32">
      <g>
       <use xlink:href="#m31208b7ebc" x="203.694545" y="197.46869" style="stroke: #000000; stroke-width: 0.8"/>
      </g>
     </g>
    </g>
    <g id="xtick_16">
     <g id="line2d_33">
      <g>
       <use xlink:href="#m31208b7ebc" x="268.625455" y="197.46869" style="stroke: #000000; stroke-width: 0.8"/>
      </g>
     </g>
    </g>
    <g id="xtick_17">
     <g id="line2d_34">
      <g>
       <use xlink:href="#m31208b7ebc" x="333.556364" y="197.46869" style="stroke: #000000; stroke-width: 0.8"/>
      </g>
     </g>
    </g>
    <g id="xtick_18">
     <g id="line2d_35">
      <g>
       <use xlink:href="#m31208b7ebc" x="398.487273" y="197.46869" style="stroke: #000000; stroke-width: 0.8"/>
      </g>
     </g>
    </g>
   </g>
   <g id="matplotlib.axis_6">
    <g id="ytick_6">
     <g id="line2d_36">
      <g>
       <use xlink:href="#mb9bbe13a8c" x="57.6" y="196.262679" style="stroke: #000000; stroke-width: 0.8"/>
      </g>
     </g>
     <g id="text_15">
      <!-- 0.0 -->
      <g transform="translate(34.696875 200.061898)scale(0.1 -0.1)">
       <defs>
        <path id="DejaVuSans-2e" d="M 684 794 
L 1344 794 
L 1344 0 
L 684 0 
L 684 794 
z
" transform="scale(0.015625)"/>
       </defs>
       <use xlink:href="#DejaVuSans-30"/>
       <use xlink:href="#DejaVuSans-2e" x="63.623047"/>
       <use xlink:href="#DejaVuSans-30" x="95.410156"/>
      </g>
     </g>
    </g>
    <g id="ytick_7">
     <g id="line2d_37">
      <g>
       <use xlink:href="#mb9bbe13a8c" x="57.6" y="173.51754" style="stroke: #000000; stroke-width: 0.8"/>
      </g>
     </g>
     <g id="text_16">
      <!-- 0.1 -->
      <g transform="translate(34.696875 177.316759)scale(0.1 -0.1)">
       <use xlink:href="#DejaVuSans-30"/>
       <use xlink:href="#DejaVuSans-2e" x="63.623047"/>
       <use xlink:href="#DejaVuSans-31" x="95.410156"/>
      </g>
     </g>
    </g>
    <g id="text_17">
     <!-- fraction -->
     <g transform="translate(28.617187 193.73425)rotate(-90)scale(0.1 -0.1)">
      <use xlink:href="#DejaVuSans-66"/>
      <use xlink:href="#DejaVuSans-72" x="35.205078"/>
      <use xlink:href="#DejaVuSans-61" x="76.318359"/>
      <use xlink:href="#DejaVuSans-63" x="137.597656"/>
      <use xlink:href="#DejaVuSans-74" x="192.578125"/>
      <use xlink:href="#DejaVuSans-69" x="231.787109"/>
      <use xlink:href="#DejaVuSans-6f" x="259.570312"/>
      <use xlink:href="#DejaVuSans-6e" x="320.751953"/>
     </g>
    </g>
   </g>
   <g id="line2d_38">
    <path d="M 73.832727 153.672828 
L 77.079273 188.118519 
L 80.325818 188.076861 
L 83.572364 188.064733 
L 86.818909 188.065951 
L 90.065455 188.056615 
L 93.312 188.055105 
L 96.558545 188.054484 
L 99.805091 188.054977 
L 103.051636 188.055997 
L 106.298182 188.05702 
L 109.544727 188.058581 
L 112.791273 188.06019 
L 116.037818 188.061871 
L 119.284364 188.064212 
L 122.530909 188.053025 
L 125.777455 187.517995 
L 129.024 187.33562 
L 132.270545 187.156088 
L 135.517091 186.983792 
L 138.763636 186.821137 
L 142.010182 186.667893 
L 145.256727 186.524154 
L 148.503273 186.389243 
L 151.749818 186.263328 
L 154.996364 186.146112 
L 158.242909 186.03762 
L 161.489455 185.937271 
L 164.736 185.844522 
L 167.982545 185.759796 
L 171.229091 185.682687 
L 174.475636 185.179704 
L 177.722182 184.298234 
L 180.968727 183.21495 
L 184.215273 182.036442 
L 187.461818 180.883056 
L 190.708364 179.843248 
L 193.954909 178.922073 
L 197.201455 178.158758 
L 200.448 177.527015 
L 203.694545 177.010874 
L 206.941091 176.603388 
L 210.187636 176.286623 
L 213.434182 176.046547 
L 216.680727 175.86894 
L 219.927273 175.736711 
L 223.173818 175.640036 
L 226.420364 175.572817 
L 229.666909 175.519855 
L 232.913455 175.484594 
L 236.16 175.458932 
L 239.406545 175.440942 
L 242.653091 175.42906 
L 245.899636 175.420515 
L 249.146182 175.415235 
L 252.392727 175.411253 
L 255.639273 175.408969 
L 258.885818 175.406802 
L 262.132364 175.406332 
L 265.378909 175.405832 
L 268.625455 175.406068 
L 271.872 172.186673 
L 275.118545 168.405438 
L 278.365091 164.639608 
L 281.611636 161.505836 
L 284.858182 159.140012 
L 288.104727 157.47119 
L 291.351273 156.334071 
L 294.597818 155.542354 
L 297.844364 154.9807 
L 301.090909 154.579222 
L 304.337455 154.275185 
L 307.584 154.084421 
L 310.830545 153.960354 
L 314.077091 153.855309 
L 317.323636 153.793564 
L 320.570182 153.752208 
L 323.816727 153.726967 
L 327.063273 153.712414 
L 330.309818 153.704959 
L 333.556364 153.700825 
L 336.802909 153.699159 
L 340.049455 153.695369 
L 343.296 153.685106 
L 346.542545 153.680671 
L 349.789091 153.685311 
L 353.035636 153.68603 
L 356.282182 153.682876 
L 359.528727 153.682481 
L 362.775273 153.681465 
L 366.021818 153.68187 
L 369.268364 153.682214 
L 372.514909 153.682436 
L 375.761455 153.682628 
L 379.008 153.683076 
L 382.254545 153.683615 
L 385.501091 153.684234 
L 388.747636 153.684933 
L 391.994182 153.685688 
L 395.240727 153.686177 
L 398.487273 153.686521 
" clip-path="url(#pa7e9308b4b)" style="fill: none; stroke: #1f77b4; stroke-width: 1.5; stroke-linecap: square"/>
   </g>
   <g id="line2d_39">
    <path d="M 73.832727 189.965237 
L 77.079273 195.173011 
L 80.325818 195.314788 
L 83.572364 195.350599 
L 86.818909 195.365715 
L 90.065455 195.373298 
L 93.312 195.377438 
L 96.558545 195.379795 
L 99.805091 195.381177 
L 103.051636 195.381995 
L 106.298182 195.382483 
L 109.544727 195.382774 
L 112.791273 195.382951 
L 116.037818 195.383057 
L 119.284364 195.383121 
L 122.530909 195.383172 
L 125.777455 195.382845 
L 129.024 195.382704 
L 132.270545 195.382565 
L 135.517091 195.382431 
L 138.763636 195.3823 
L 142.010182 195.382173 
L 145.256727 195.382049 
L 148.503273 195.381928 
L 151.749818 195.381809 
L 154.996364 195.381693 
L 158.242909 195.381579 
L 161.489455 195.381468 
L 164.736 195.381358 
L 167.982545 195.381251 
L 171.229091 195.381145 
L 174.475636 195.322496 
L 177.722182 195.240271 
L 180.968727 195.133894 
L 184.215273 195.009248 
L 187.461818 194.879687 
L 190.708364 194.760376 
L 193.954909 194.659162 
L 197.201455 194.587328 
L 200.448 194.531542 
L 203.694545 194.494932 
L 206.941091 194.470903 
L 210.187636 194.455418 
L 213.434182 194.445608 
L 216.680727 194.439314 
L 219.927273 194.435501 
L 223.173818 194.433085 
L 226.420364 194.431607 
L 229.666909 194.430455 
L 232.913455 194.429885 
L 236.16 194.429482 
L 239.406545 194.429231 
L 242.653091 194.429087 
L 245.899636 194.428969 
L 249.146182 194.428909 
L 252.392727 194.428859 
L 255.639273 194.428833 
L 258.885818 194.428805 
L 262.132364 194.428797 
L 265.378909 194.428787 
L 268.625455 194.428792 
L 271.872 194.26029 
L 275.118545 194.114334 
L 278.365091 193.977962 
L 281.611636 193.845811 
L 284.858182 193.71581 
L 288.104727 193.587668 
L 291.351273 193.460631 
L 294.597818 193.334991 
L 297.844364 193.21076 
L 301.090909 193.088172 
L 304.337455 192.967025 
L 307.584 192.847808 
L 310.830545 192.730088 
L 314.077091 192.614665 
L 317.323636 192.500035 
L 320.570182 192.386961 
L 323.816727 192.275119 
L 327.063273 192.165134 
L 330.309818 192.056777 
L 333.556364 191.950039 
L 336.802909 191.84532 
L 340.049455 191.741622 
L 343.296 191.637523 
L 346.542545 191.536175 
L 349.789091 191.438242 
L 353.035636 191.338808 
L 356.282182 191.242189 
L 359.528727 191.147194 
L 362.775273 191.053955 
L 366.021818 190.960753 
L 369.268364 190.868974 
L 372.514909 190.778405 
L 375.761455 190.688901 
L 379.008 190.600342 
L 382.254545 190.512818 
L 385.501091 190.426783 
L 388.747636 190.342207 
L 391.994182 190.258962 
L 395.240727 190.176565 
L 398.487273 190.0952 
" clip-path="url(#pa7e9308b4b)" style="fill: none; stroke: #ff7f0e; stroke-width: 1.5; stroke-linecap: square"/>
   </g>
   <g id="patch_15">
    <path d="M 57.6 197.46869 
L 57.6 151.58731 
" style="fill: none; stroke: #000000; stroke-width: 0.8; stroke-linejoin: miter; stroke-linecap: square"/>
   </g>
   <g id="patch_16">
    <path d="M 414.72 197.46869 
L 414.72 151.58731 
" style="fill: none; stroke: #000000; stroke-width: 0.8; stroke-linejoin: miter; stroke-linecap: square"/>
   </g>
   <g id="patch_17">
    <path d="M 57.6 197.46869 
L 414.72 197.46869 
" style="fill: none; stroke: #000000; stroke-width: 0.8; stroke-linejoin: miter; stroke-linecap: square"/>
   </g>
   <g id="patch_18">
    <path d="M 57.6 151.58731 
L 414.72 151.58731 
" style="fill: none; stroke: #000000; stroke-width: 0.8; stroke-linejoin: miter; stroke-linecap: square"/>
   </g>
   <g id="text_18">
    <!-- yA -->
    <g transform="translate(228.504375 145.58731)scale(0.12 -0.12)">
     <defs>
      <path id="DejaVuSans-41" d="M 2188 4044 
L 1331 1722 
L 3047 1722 
L 2188 4044 
z
M 1831 4666 
L 2547 4666 
L 4325 0 
L 3669 0 
L 3244 1197 
L 1141 1197 
L 716 0 
L 50 0 
L 1831 4666 
z
" transform="scale(0.015625)"/>
     </defs>
     <use xlink:href="#DejaVuSans-79"/>
     <use xlink:href="#DejaVuSans-41" x="59.179688"/>
    </g>
   </g>
   <g id="legend_3">
    <g id="patch_19">
     <path d="M 330.030938 188.94356 
L 407.72 188.94356 
Q 409.72 188.94356 409.72 186.94356 
L 409.72 158.58731 
Q 409.72 156.58731 407.72 156.58731 
L 330.030938 156.58731 
Q 328.030938 156.58731 328.030938 158.58731 
L 328.030938 186.94356 
Q 328.030938 188.94356 330.030938 188.94356 
z
" style="fill: #ffffff; opacity: 0.8; stroke: #cccccc; stroke-linejoin: miter"/>
    </g>
    <g id="line2d_40">
     <path d="M 332.030938 164.685748 
L 342.030938 164.685748 
L 352.030938 164.685748 
" style="fill: none; stroke: #1f77b4; stroke-width: 1.5; stroke-linecap: square"/>
    </g>
    <g id="text_19">
     <!-- yA0 (in) -->
     <g transform="translate(360.030938 168.185748)scale(0.1 -0.1)">
      <use xlink:href="#DejaVuSans-79"/>
      <use xlink:href="#DejaVuSans-41" x="59.179688"/>
      <use xlink:href="#DejaVuSans-30" x="127.587891"/>
      <use xlink:href="#DejaVuSans-20" x="191.210938"/>
      <use xlink:href="#DejaVuSans-28" x="222.998047"/>
      <use xlink:href="#DejaVuSans-69" x="262.011719"/>
      <use xlink:href="#DejaVuSans-6e" x="289.794922"/>
      <use xlink:href="#DejaVuSans-29" x="353.173828"/>
     </g>
    </g>
    <g id="line2d_41">
     <path d="M 332.030938 179.363873 
L 342.030938 179.363873 
L 352.030938 179.363873 
" style="fill: none; stroke: #ff7f0e; stroke-width: 1.5; stroke-linecap: square"/>
    </g>
    <g id="text_20">
     <!-- yAL (out) -->
     <g transform="translate(360.030938 182.863873)scale(0.1 -0.1)">
      <defs>
       <path id="DejaVuSans-4c" d="M 628 4666 
L 1259 4666 
L 1259 531 
L 3531 531 
L 3531 0 
L 628 0 
L 628 4666 
z
" transform="scale(0.015625)"/>
      </defs>
      <use xlink:href="#DejaVuSans-79"/>
      <use xlink:href="#DejaVuSans-41" x="59.179688"/>
      <use xlink:href="#DejaVuSans-4c" x="127.587891"/>
      <use xlink:href="#DejaVuSans-20" x="183.300781"/>
      <use xlink:href="#DejaVuSans-28" x="215.087891"/>
      <use xlink:href="#DejaVuSans-6f" x="254.101562"/>
      <use xlink:href="#DejaVuSans-75" x="315.283203"/>
      <use xlink:href="#DejaVuSans-74" x="378.662109"/>
      <use xlink:href="#DejaVuSans-29" x="417.871094"/>
     </g>
    </g>
   </g>
  </g>
  <g id="axes_4">
   <g id="patch_20">
    <path d="M 57.6 252.526345 
L 414.72 252.526345 
L 414.72 206.644966 
L 57.6 206.644966 
z
" style="fill: #ffffff"/>
   </g>
   <g id="matplotlib.axis_7">
    <g id="xtick_19">
     <g id="line2d_42">
      <g>
       <use xlink:href="#m31208b7ebc" x="73.832727" y="252.526345" style="stroke: #000000; stroke-width: 0.8"/>
      </g>
     </g>
    </g>
    <g id="xtick_20">
     <g id="line2d_43">
      <g>
       <use xlink:href="#m31208b7ebc" x="138.763636" y="252.526345" style="stroke: #000000; stroke-width: 0.8"/>
      </g>
     </g>
    </g>
    <g id="xtick_21">
     <g id="line2d_44">
      <g>
       <use xlink:href="#m31208b7ebc" x="203.694545" y="252.526345" style="stroke: #000000; stroke-width: 0.8"/>
      </g>
     </g>
    </g>
    <g id="xtick_22">
     <g id="line2d_45">
      <g>
       <use xlink:href="#m31208b7ebc" x="268.625455" y="252.526345" style="stroke: #000000; stroke-width: 0.8"/>
      </g>
     </g>
    </g>
    <g id="xtick_23">
     <g id="line2d_46">
      <g>
       <use xlink:href="#m31208b7ebc" x="333.556364" y="252.526345" style="stroke: #000000; stroke-width: 0.8"/>
      </g>
     </g>
    </g>
    <g id="xtick_24">
     <g id="line2d_47">
      <g>
       <use xlink:href="#m31208b7ebc" x="398.487273" y="252.526345" style="stroke: #000000; stroke-width: 0.8"/>
      </g>
     </g>
    </g>
   </g>
   <g id="matplotlib.axis_8">
    <g id="ytick_8">
     <g id="line2d_48">
      <g>
       <use xlink:href="#mb9bbe13a8c" x="57.6" y="240.819767" style="stroke: #000000; stroke-width: 0.8"/>
      </g>
     </g>
     <g id="text_21">
      <!-- 0.8 -->
      <g transform="translate(34.696875 244.618985)scale(0.1 -0.1)">
       <defs>
        <path id="DejaVuSans-38" d="M 2034 2216 
Q 1584 2216 1326 1975 
Q 1069 1734 1069 1313 
Q 1069 891 1326 650 
Q 1584 409 2034 409 
Q 2484 409 2743 651 
Q 3003 894 3003 1313 
Q 3003 1734 2745 1975 
Q 2488 2216 2034 2216 
z
M 1403 2484 
Q 997 2584 770 2862 
Q 544 3141 544 3541 
Q 544 4100 942 4425 
Q 1341 4750 2034 4750 
Q 2731 4750 3128 4425 
Q 3525 4100 3525 3541 
Q 3525 3141 3298 2862 
Q 3072 2584 2669 2484 
Q 3125 2378 3379 2068 
Q 3634 1759 3634 1313 
Q 3634 634 3220 271 
Q 2806 -91 2034 -91 
Q 1263 -91 848 271 
Q 434 634 434 1313 
Q 434 1759 690 2068 
Q 947 2378 1403 2484 
z
M 1172 3481 
Q 1172 3119 1398 2916 
Q 1625 2713 2034 2713 
Q 2441 2713 2670 2916 
Q 2900 3119 2900 3481 
Q 2900 3844 2670 4047 
Q 2441 4250 2034 4250 
Q 1625 4250 1398 4047 
Q 1172 3844 1172 3481 
z
" transform="scale(0.015625)"/>
       </defs>
       <use xlink:href="#DejaVuSans-30"/>
       <use xlink:href="#DejaVuSans-2e" x="63.623047"/>
       <use xlink:href="#DejaVuSans-38" x="95.410156"/>
      </g>
     </g>
    </g>
    <g id="ytick_9">
     <g id="line2d_49">
      <g>
       <use xlink:href="#mb9bbe13a8c" x="57.6" y="220.500974" style="stroke: #000000; stroke-width: 0.8"/>
      </g>
     </g>
     <g id="text_22">
      <!-- 0.9 -->
      <g transform="translate(34.696875 224.300193)scale(0.1 -0.1)">
       <defs>
        <path id="DejaVuSans-39" d="M 703 97 
L 703 672 
Q 941 559 1184 500 
Q 1428 441 1663 441 
Q 2288 441 2617 861 
Q 2947 1281 2994 2138 
Q 2813 1869 2534 1725 
Q 2256 1581 1919 1581 
Q 1219 1581 811 2004 
Q 403 2428 403 3163 
Q 403 3881 828 4315 
Q 1253 4750 1959 4750 
Q 2769 4750 3195 4129 
Q 3622 3509 3622 2328 
Q 3622 1225 3098 567 
Q 2575 -91 1691 -91 
Q 1453 -91 1209 -44 
Q 966 3 703 97 
z
M 1959 2075 
Q 2384 2075 2632 2365 
Q 2881 2656 2881 3163 
Q 2881 3666 2632 3958 
Q 2384 4250 1959 4250 
Q 1534 4250 1286 3958 
Q 1038 3666 1038 3163 
Q 1038 2656 1286 2365 
Q 1534 2075 1959 2075 
z
" transform="scale(0.015625)"/>
       </defs>
       <use xlink:href="#DejaVuSans-30"/>
       <use xlink:href="#DejaVuSans-2e" x="63.623047"/>
       <use xlink:href="#DejaVuSans-39" x="95.410156"/>
      </g>
     </g>
    </g>
    <g id="text_23">
     <!-- fraction -->
     <g transform="translate(28.617187 248.791905)rotate(-90)scale(0.1 -0.1)">
      <use xlink:href="#DejaVuSans-66"/>
      <use xlink:href="#DejaVuSans-72" x="35.205078"/>
      <use xlink:href="#DejaVuSans-61" x="76.318359"/>
      <use xlink:href="#DejaVuSans-63" x="137.597656"/>
      <use xlink:href="#DejaVuSans-74" x="192.578125"/>
      <use xlink:href="#DejaVuSans-69" x="231.787109"/>
      <use xlink:href="#DejaVuSans-6f" x="259.570312"/>
      <use xlink:href="#DejaVuSans-6e" x="320.751953"/>
     </g>
    </g>
   </g>
   <g id="line2d_50">
    <path d="M 73.832727 250.440828 
L 77.079273 217.731932 
L 80.325818 217.772681 
L 83.572364 217.785053 
L 86.818909 217.785046 
L 90.065455 217.794533 
L 93.312 217.795209 
L 96.558545 217.796351 
L 99.805091 217.796827 
L 103.051636 217.795917 
L 106.298182 217.794652 
L 109.544727 217.794333 
L 112.791273 217.79835 
L 116.037818 217.800268 
L 119.284364 217.798761 
L 122.530909 217.804482 
L 125.777455 218.296793 
L 129.024 218.453163 
L 132.270545 218.606669 
L 135.517091 218.752884 
L 138.763636 218.890254 
L 142.010182 219.019059 
L 145.256727 219.139502 
L 148.503273 219.252404 
L 151.749818 219.357527 
L 154.996364 219.455307 
L 158.242909 219.545706 
L 161.489455 219.629264 
L 164.736 219.706503 
L 167.982545 219.777011 
L 171.229091 219.841179 
L 174.475636 220.380839 
L 177.722182 221.282442 
L 180.968727 222.374156 
L 184.215273 223.545008 
L 187.461818 224.677687 
L 190.708364 225.690498 
L 193.954909 226.582117 
L 197.201455 227.318696 
L 200.448 227.926302 
L 203.694545 228.421917 
L 206.941091 228.812833 
L 210.187636 229.116554 
L 213.434182 229.346652 
L 216.680727 229.516797 
L 219.927273 229.643494 
L 223.173818 229.736206 
L 226.420364 229.800759 
L 229.666909 229.85136 
L 232.913455 229.88532 
L 236.16 229.90998 
L 239.406545 229.927328 
L 242.653091 229.938816 
L 245.899636 229.947114 
L 249.146182 229.952285 
L 252.392727 229.956216 
L 255.639273 229.958521 
L 258.885818 229.960716 
L 262.132364 229.961287 
L 265.378909 229.961886 
L 268.625455 229.961906 
L 271.872 233.093682 
L 275.118545 236.532832 
L 278.365091 239.866561 
L 281.611636 242.613294 
L 284.858182 244.680248 
L 288.104727 246.1481 
L 291.351273 247.157911 
L 294.597818 247.87266 
L 297.844364 248.391391 
L 301.090909 248.773544 
L 304.337455 249.072546 
L 307.584 249.274354 
L 310.830545 249.420368 
L 314.077091 249.547824 
L 317.323636 249.638573 
L 320.570182 249.711243 
L 323.816727 249.769504 
L 327.063273 249.817788 
L 330.309818 249.859164 
L 333.556364 249.896822 
L 336.802909 249.931441 
L 340.049455 249.967029 
L 343.296 250.007451 
L 346.542545 250.041764 
L 349.789091 250.067121 
L 353.035636 250.095701 
L 356.282182 250.126377 
L 359.528727 250.153867 
L 362.775273 250.181062 
L 366.021818 250.206551 
L 369.268364 250.231387 
L 372.514909 250.255657 
L 375.761455 250.279329 
L 379.008 250.302189 
L 382.254545 250.324354 
L 385.501091 250.34586 
L 388.747636 250.366704 
L 391.994182 250.386909 
L 395.240727 250.406834 
L 398.487273 250.426342 
" clip-path="url(#p4a388f4152)" style="fill: none; stroke: #1f77b4; stroke-width: 1.5; stroke-linecap: square"/>
   </g>
   <g id="line2d_51">
    <path d="M 73.832727 219.978643 
L 77.079273 209.336656 
L 80.325818 208.901921 
L 83.572364 208.803638 
L 86.818909 208.765404 
L 90.065455 208.747507 
L 93.312 208.73839 
L 96.558545 208.73374 
L 99.805091 208.73147 
L 103.051636 208.730581 
L 106.298182 208.730483 
L 109.544727 208.73086 
L 112.791273 208.731506 
L 116.037818 208.732318 
L 119.284364 208.733229 
L 122.530909 208.733697 
L 125.777455 208.993092 
L 129.024 209.085768 
L 132.270545 209.177479 
L 135.517091 209.266727 
L 138.763636 209.353703 
L 142.010182 209.438449 
L 145.256727 209.521095 
L 148.503273 209.601927 
L 151.749818 209.680857 
L 154.996364 209.758164 
L 158.242909 209.833826 
L 161.489455 209.907951 
L 164.736 209.980668 
L 167.982545 210.051876 
L 171.229091 210.121743 
L 174.475636 210.350384 
L 177.722182 210.71588 
L 180.968727 211.127229 
L 184.215273 211.548774 
L 187.461818 211.940308 
L 190.708364 212.276072 
L 193.954909 212.549773 
L 197.201455 212.747572 
L 200.448 212.902037 
L 203.694545 213.008547 
L 206.941091 213.08207 
L 210.187636 213.132169 
L 213.434182 213.165706 
L 216.680727 213.188168 
L 219.927273 213.202905 
L 223.173818 213.21291 
L 226.420364 213.219313 
L 229.666909 213.224355 
L 232.913455 213.227318 
L 236.16 213.229426 
L 239.406545 213.230889 
L 242.653091 213.231827 
L 245.899636 213.232578 
L 249.146182 213.23305 
L 252.392727 213.233451 
L 255.639273 213.233725 
L 258.885818 213.234 
L 262.132364 213.234157 
L 265.378909 213.234322 
L 268.625455 213.234437 
L 271.872 213.575256 
L 275.118545 213.855298 
L 278.365091 214.107416 
L 281.611636 214.345131 
L 284.858182 214.573631 
L 288.104727 214.794228 
L 291.351273 215.009058 
L 294.597818 215.218002 
L 297.844364 215.421407 
L 301.090909 215.619186 
L 304.337455 215.81186 
L 307.584 215.999048 
L 310.830545 216.181752 
L 314.077091 216.358643 
L 317.323636 216.532647 
L 320.570182 216.702565 
L 323.816727 216.869075 
L 327.063273 217.031374 
L 330.309818 217.189848 
L 333.556364 217.344589 
L 336.802909 217.495086 
L 340.049455 217.642838 
L 343.296 217.789945 
L 346.542545 217.932227 
L 349.789091 218.06888 
L 353.035636 218.206444 
L 356.282182 218.339718 
L 359.528727 218.469705 
L 362.775273 218.596614 
L 366.021818 218.722966 
L 369.268364 218.84677 
L 372.514909 218.968307 
L 375.761455 219.087845 
L 379.008 219.205629 
L 382.254545 219.321483 
L 385.501091 219.434937 
L 388.747636 219.546023 
L 391.994182 219.65489 
L 395.240727 219.762219 
L 398.487273 219.86775 
" clip-path="url(#p4a388f4152)" style="fill: none; stroke: #ff7f0e; stroke-width: 1.5; stroke-linecap: square"/>
   </g>
   <g id="patch_21">
    <path d="M 57.6 252.526345 
L 57.6 206.644966 
" style="fill: none; stroke: #000000; stroke-width: 0.8; stroke-linejoin: miter; stroke-linecap: square"/>
   </g>
   <g id="patch_22">
    <path d="M 414.72 252.526345 
L 414.72 206.644966 
" style="fill: none; stroke: #000000; stroke-width: 0.8; stroke-linejoin: miter; stroke-linecap: square"/>
   </g>
   <g id="patch_23">
    <path d="M 57.6 252.526345 
L 414.72 252.526345 
" style="fill: none; stroke: #000000; stroke-width: 0.8; stroke-linejoin: miter; stroke-linecap: square"/>
   </g>
   <g id="patch_24">
    <path d="M 57.6 206.644966 
L 414.72 206.644966 
" style="fill: none; stroke: #000000; stroke-width: 0.8; stroke-linejoin: miter; stroke-linecap: square"/>
   </g>
   <g id="text_24">
    <!-- yB -->
    <g transform="translate(228.492188 200.644966)scale(0.12 -0.12)">
     <defs>
      <path id="DejaVuSans-42" d="M 1259 2228 
L 1259 519 
L 2272 519 
Q 2781 519 3026 730 
Q 3272 941 3272 1375 
Q 3272 1813 3026 2020 
Q 2781 2228 2272 2228 
L 1259 2228 
z
M 1259 4147 
L 1259 2741 
L 2194 2741 
Q 2656 2741 2882 2914 
Q 3109 3088 3109 3444 
Q 3109 3797 2882 3972 
Q 2656 4147 2194 4147 
L 1259 4147 
z
M 628 4666 
L 2241 4666 
Q 2963 4666 3353 4366 
Q 3744 4066 3744 3513 
Q 3744 3084 3544 2831 
Q 3344 2578 2956 2516 
Q 3422 2416 3680 2098 
Q 3938 1781 3938 1306 
Q 3938 681 3513 340 
Q 3088 0 2303 0 
L 628 0 
L 628 4666 
z
" transform="scale(0.015625)"/>
     </defs>
     <use xlink:href="#DejaVuSans-79"/>
     <use xlink:href="#DejaVuSans-42" x="59.179688"/>
    </g>
   </g>
   <g id="legend_4">
    <g id="patch_25">
     <path d="M 330.010625 244.001216 
L 407.72 244.001216 
Q 409.72 244.001216 409.72 242.001216 
L 409.72 213.644966 
Q 409.72 211.644966 407.72 211.644966 
L 330.010625 211.644966 
Q 328.010625 211.644966 328.010625 213.644966 
L 328.010625 242.001216 
Q 328.010625 244.001216 330.010625 244.001216 
z
" style="fill: #ffffff; opacity: 0.8; stroke: #cccccc; stroke-linejoin: miter"/>
    </g>
    <g id="line2d_52">
     <path d="M 332.010625 219.743403 
L 342.010625 219.743403 
L 352.010625 219.743403 
" style="fill: none; stroke: #1f77b4; stroke-width: 1.5; stroke-linecap: square"/>
    </g>
    <g id="text_25">
     <!-- yB0 (in) -->
     <g transform="translate(360.010625 223.243403)scale(0.1 -0.1)">
      <use xlink:href="#DejaVuSans-79"/>
      <use xlink:href="#DejaVuSans-42" x="59.179688"/>
      <use xlink:href="#DejaVuSans-30" x="127.783203"/>
      <use xlink:href="#DejaVuSans-20" x="191.40625"/>
      <use xlink:href="#DejaVuSans-28" x="223.193359"/>
      <use xlink:href="#DejaVuSans-69" x="262.207031"/>
      <use xlink:href="#DejaVuSans-6e" x="289.990234"/>
      <use xlink:href="#DejaVuSans-29" x="353.369141"/>
     </g>
    </g>
    <g id="line2d_53">
     <path d="M 332.010625 234.421528 
L 342.010625 234.421528 
L 352.010625 234.421528 
" style="fill: none; stroke: #ff7f0e; stroke-width: 1.5; stroke-linecap: square"/>
    </g>
    <g id="text_26">
     <!-- yBL (out) -->
     <g transform="translate(360.010625 237.921528)scale(0.1 -0.1)">
      <use xlink:href="#DejaVuSans-79"/>
      <use xlink:href="#DejaVuSans-42" x="59.179688"/>
      <use xlink:href="#DejaVuSans-4c" x="127.783203"/>
      <use xlink:href="#DejaVuSans-20" x="183.496094"/>
      <use xlink:href="#DejaVuSans-28" x="215.283203"/>
      <use xlink:href="#DejaVuSans-6f" x="254.296875"/>
      <use xlink:href="#DejaVuSans-75" x="315.478516"/>
      <use xlink:href="#DejaVuSans-74" x="378.857422"/>
      <use xlink:href="#DejaVuSans-29" x="418.066406"/>
     </g>
    </g>
   </g>
  </g>
  <g id="axes_5">
   <g id="patch_26">
    <path d="M 57.6 307.584 
L 414.72 307.584 
L 414.72 261.702621 
L 57.6 261.702621 
z
" style="fill: #ffffff"/>
   </g>
   <g id="matplotlib.axis_9">
    <g id="xtick_25">
     <g id="line2d_54">
      <g>
       <use xlink:href="#m31208b7ebc" x="73.832727" y="307.584" style="stroke: #000000; stroke-width: 0.8"/>
      </g>
     </g>
     <g id="text_27">
      <!-- 0 -->
      <g transform="translate(70.651477 322.182437)scale(0.1 -0.1)">
       <use xlink:href="#DejaVuSans-30"/>
      </g>
     </g>
    </g>
    <g id="xtick_26">
     <g id="line2d_55">
      <g>
       <use xlink:href="#m31208b7ebc" x="138.763636" y="307.584" style="stroke: #000000; stroke-width: 0.8"/>
      </g>
     </g>
     <g id="text_28">
      <!-- 20 -->
      <g transform="translate(132.401136 322.182437)scale(0.1 -0.1)">
       <use xlink:href="#DejaVuSans-32"/>
       <use xlink:href="#DejaVuSans-30" x="63.623047"/>
      </g>
     </g>
    </g>
    <g id="xtick_27">
     <g id="line2d_56">
      <g>
       <use xlink:href="#m31208b7ebc" x="203.694545" y="307.584" style="stroke: #000000; stroke-width: 0.8"/>
      </g>
     </g>
     <g id="text_29">
      <!-- 40 -->
      <g transform="translate(197.332045 322.182437)scale(0.1 -0.1)">
       <defs>
        <path id="DejaVuSans-34" d="M 2419 4116 
L 825 1625 
L 2419 1625 
L 2419 4116 
z
M 2253 4666 
L 3047 4666 
L 3047 1625 
L 3713 1625 
L 3713 1100 
L 3047 1100 
L 3047 0 
L 2419 0 
L 2419 1100 
L 313 1100 
L 313 1709 
L 2253 4666 
z
" transform="scale(0.015625)"/>
       </defs>
       <use xlink:href="#DejaVuSans-34"/>
       <use xlink:href="#DejaVuSans-30" x="63.623047"/>
      </g>
     </g>
    </g>
    <g id="xtick_28">
     <g id="line2d_57">
      <g>
       <use xlink:href="#m31208b7ebc" x="268.625455" y="307.584" style="stroke: #000000; stroke-width: 0.8"/>
      </g>
     </g>
     <g id="text_30">
      <!-- 60 -->
      <g transform="translate(262.262955 322.182437)scale(0.1 -0.1)">
       <defs>
        <path id="DejaVuSans-36" d="M 2113 2584 
Q 1688 2584 1439 2293 
Q 1191 2003 1191 1497 
Q 1191 994 1439 701 
Q 1688 409 2113 409 
Q 2538 409 2786 701 
Q 3034 994 3034 1497 
Q 3034 2003 2786 2293 
Q 2538 2584 2113 2584 
z
M 3366 4563 
L 3366 3988 
Q 3128 4100 2886 4159 
Q 2644 4219 2406 4219 
Q 1781 4219 1451 3797 
Q 1122 3375 1075 2522 
Q 1259 2794 1537 2939 
Q 1816 3084 2150 3084 
Q 2853 3084 3261 2657 
Q 3669 2231 3669 1497 
Q 3669 778 3244 343 
Q 2819 -91 2113 -91 
Q 1303 -91 875 529 
Q 447 1150 447 2328 
Q 447 3434 972 4092 
Q 1497 4750 2381 4750 
Q 2619 4750 2861 4703 
Q 3103 4656 3366 4563 
z
" transform="scale(0.015625)"/>
       </defs>
       <use xlink:href="#DejaVuSans-36"/>
       <use xlink:href="#DejaVuSans-30" x="63.623047"/>
      </g>
     </g>
    </g>
    <g id="xtick_29">
     <g id="line2d_58">
      <g>
       <use xlink:href="#m31208b7ebc" x="333.556364" y="307.584" style="stroke: #000000; stroke-width: 0.8"/>
      </g>
     </g>
     <g id="text_31">
      <!-- 80 -->
      <g transform="translate(327.193864 322.182437)scale(0.1 -0.1)">
       <use xlink:href="#DejaVuSans-38"/>
       <use xlink:href="#DejaVuSans-30" x="63.623047"/>
      </g>
     </g>
    </g>
    <g id="xtick_30">
     <g id="line2d_59">
      <g>
       <use xlink:href="#m31208b7ebc" x="398.487273" y="307.584" style="stroke: #000000; stroke-width: 0.8"/>
      </g>
     </g>
     <g id="text_32">
      <!-- 100 -->
      <g transform="translate(388.943523 322.182437)scale(0.1 -0.1)">
       <use xlink:href="#DejaVuSans-31"/>
       <use xlink:href="#DejaVuSans-30" x="63.623047"/>
       <use xlink:href="#DejaVuSans-30" x="127.246094"/>
      </g>
     </g>
    </g>
    <g id="text_33">
     <!-- time (normalized) -->
     <g transform="translate(191.589687 335.860562)scale(0.1 -0.1)">
      <use xlink:href="#DejaVuSans-74"/>
      <use xlink:href="#DejaVuSans-69" x="39.208984"/>
      <use xlink:href="#DejaVuSans-6d" x="66.992188"/>
      <use xlink:href="#DejaVuSans-65" x="164.404297"/>
      <use xlink:href="#DejaVuSans-20" x="225.927734"/>
      <use xlink:href="#DejaVuSans-28" x="257.714844"/>
      <use xlink:href="#DejaVuSans-6e" x="296.728516"/>
      <use xlink:href="#DejaVuSans-6f" x="360.107422"/>
      <use xlink:href="#DejaVuSans-72" x="421.289062"/>
      <use xlink:href="#DejaVuSans-6d" x="460.652344"/>
      <use xlink:href="#DejaVuSans-61" x="558.064453"/>
      <use xlink:href="#DejaVuSans-6c" x="619.34375"/>
      <use xlink:href="#DejaVuSans-69" x="647.126953"/>
      <use xlink:href="#DejaVuSans-7a" x="674.910156"/>
      <use xlink:href="#DejaVuSans-65" x="727.400391"/>
      <use xlink:href="#DejaVuSans-64" x="788.923828"/>
      <use xlink:href="#DejaVuSans-29" x="852.400391"/>
     </g>
    </g>
   </g>
   <g id="matplotlib.axis_10">
    <g id="ytick_10">
     <g id="line2d_60">
      <g>
       <use xlink:href="#mb9bbe13a8c" x="57.6" y="303.119459" style="stroke: #000000; stroke-width: 0.8"/>
      </g>
     </g>
     <g id="text_34">
      <!-- 0.04 -->
      <g transform="translate(28.334375 306.918678)scale(0.1 -0.1)">
       <use xlink:href="#DejaVuSans-30"/>
       <use xlink:href="#DejaVuSans-2e" x="63.623047"/>
       <use xlink:href="#DejaVuSans-30" x="95.410156"/>
       <use xlink:href="#DejaVuSans-34" x="159.033203"/>
      </g>
     </g>
    </g>
    <g id="ytick_11">
     <g id="line2d_61">
      <g>
       <use xlink:href="#mb9bbe13a8c" x="57.6" y="276.69419" style="stroke: #000000; stroke-width: 0.8"/>
      </g>
     </g>
     <g id="text_35">
      <!-- 0.06 -->
      <g transform="translate(28.334375 280.493409)scale(0.1 -0.1)">
       <use xlink:href="#DejaVuSans-30"/>
       <use xlink:href="#DejaVuSans-2e" x="63.623047"/>
       <use xlink:href="#DejaVuSans-30" x="95.410156"/>
       <use xlink:href="#DejaVuSans-36" x="159.033203"/>
      </g>
     </g>
    </g>
    <g id="text_36">
     <!-- fraction -->
     <g transform="translate(22.254687 303.84956)rotate(-90)scale(0.1 -0.1)">
      <use xlink:href="#DejaVuSans-66"/>
      <use xlink:href="#DejaVuSans-72" x="35.205078"/>
      <use xlink:href="#DejaVuSans-61" x="76.318359"/>
      <use xlink:href="#DejaVuSans-63" x="137.597656"/>
      <use xlink:href="#DejaVuSans-74" x="192.578125"/>
      <use xlink:href="#DejaVuSans-69" x="231.787109"/>
      <use xlink:href="#DejaVuSans-6f" x="259.570312"/>
      <use xlink:href="#DejaVuSans-6e" x="320.751953"/>
     </g>
    </g>
   </g>
   <g id="line2d_62">
    <path d="M 73.832727 276.558885 
L 77.079273 289.159175 
L 80.325818 289.136191 
L 83.572364 289.126189 
L 86.818909 289.119162 
L 90.065455 289.111702 
L 93.312 289.116075 
L 96.558545 289.112259 
L 99.805091 289.106345 
L 103.051636 289.109473 
L 106.298182 289.110284 
L 109.544727 289.115085 
L 112.791273 289.077177 
L 116.037818 289.055176 
L 119.284364 289.051644 
L 122.530909 289.077986 
L 125.777455 288.974509 
L 129.024 289.0171 
L 132.270545 289.061806 
L 135.517091 289.111884 
L 138.763636 289.163476 
L 142.010182 289.216094 
L 145.256727 289.267866 
L 148.503273 289.317408 
L 151.749818 289.36526 
L 154.996364 289.410339 
L 158.242909 289.452733 
L 161.489455 289.492309 
L 164.736 289.528829 
L 167.982545 289.562511 
L 171.229091 289.59317 
L 174.475636 289.005767 
L 177.722182 288.2634 
L 180.968727 287.457134 
L 184.215273 286.689417 
L 187.461818 286.023993 
L 190.708364 285.478257 
L 193.954909 285.031451 
L 197.201455 284.675819 
L 200.448 284.394551 
L 203.694545 284.169993 
L 206.941091 283.995075 
L 210.187636 283.860164 
L 213.434182 283.758518 
L 216.680727 283.683836 
L 219.927273 283.628083 
L 223.173818 283.586793 
L 226.420364 283.557507 
L 229.666909 283.536114 
L 232.913455 283.520116 
L 236.16 283.508829 
L 239.406545 283.500521 
L 242.653091 283.494846 
L 245.899636 283.490527 
L 249.146182 283.487573 
L 252.392727 283.485141 
L 255.639273 283.483414 
L 258.885818 283.481734 
L 262.132364 283.480754 
L 265.378909 283.479763 
L 268.625455 283.47826 
L 271.872 281.814809 
L 275.118545 281.41633 
L 278.365091 281.613866 
L 281.611636 281.956841 
L 284.858182 282.259138 
L 288.104727 282.408404 
L 291.351273 282.447457 
L 294.597818 282.398758 
L 297.844364 282.288264 
L 301.090909 282.135436 
L 304.337455 281.957272 
L 307.584 281.75313 
L 310.830545 281.524351 
L 314.077091 281.305757 
L 317.323636 281.074321 
L 320.570182 280.842011 
L 323.816727 280.609782 
L 327.063273 280.380346 
L 330.309818 280.154601 
L 333.556364 279.933735 
L 336.802909 279.718302 
L 340.049455 279.508898 
L 343.296 279.305665 
L 346.542545 279.108303 
L 349.789091 278.916459 
L 353.035636 278.726432 
L 356.282182 278.545281 
L 359.528727 278.36882 
L 362.775273 278.197878 
L 366.021818 278.029778 
L 369.268364 277.866282 
L 372.514909 277.707169 
L 375.761455 277.552127 
L 379.008 277.400871 
L 382.254545 277.253606 
L 385.501091 277.110167 
L 388.747636 276.970566 
L 391.994182 276.834796 
L 395.240727 276.702392 
L 398.487273 276.573532 
" clip-path="url(#p84a7c690fb)" style="fill: none; stroke: #1f77b4; stroke-width: 1.5; stroke-linecap: square"/>
   </g>
   <g id="line2d_63">
    <path d="M 73.832727 263.821987 
L 77.079273 302.771369 
L 80.325818 304.774725 
L 83.572364 305.205799 
L 86.818909 305.36661 
L 90.065455 305.438943 
L 93.312 305.474175 
L 96.558545 305.490724 
L 99.805091 305.497453 
L 103.051636 305.498483 
L 106.298182 305.496287 
L 109.544727 305.492146 
L 112.791273 305.486923 
L 116.037818 305.481031 
L 119.284364 305.474747 
L 122.530909 305.471406 
L 125.777455 303.789472 
L 129.024 303.186104 
L 132.270545 302.589293 
L 135.517091 302.009236 
L 138.763636 301.444337 
L 142.010182 300.894172 
L 145.256727 300.357541 
L 148.503273 299.832693 
L 151.749818 299.320204 
L 154.996364 298.818217 
L 158.242909 298.326883 
L 161.489455 297.845512 
L 164.736 297.373291 
L 167.982545 296.910862 
L 171.229091 296.457157 
L 174.475636 295.311079 
L 177.722182 293.41202 
L 180.968727 291.355097 
L 184.215273 289.337997 
L 187.461818 287.544599 
L 190.708364 286.054317 
L 193.954909 284.862479 
L 197.201455 283.993544 
L 200.448 283.313168 
L 203.694545 282.833237 
L 206.941091 282.494725 
L 210.187636 282.2589 
L 213.434182 282.097812 
L 216.680727 281.988309 
L 219.927273 281.914622 
L 223.173818 281.863603 
L 226.420364 281.830551 
L 229.666909 281.804458 
L 232.913455 281.7885 
L 236.16 281.777134 
L 239.406545 281.769077 
L 242.653091 281.763817 
L 245.899636 281.759618 
L 249.146182 281.756892 
L 252.392727 281.75458 
L 255.639273 281.752952 
L 258.885818 281.751327 
L 262.132364 281.750352 
L 265.378909 281.749341 
L 268.625455 281.748565 
L 271.872 280.511148 
L 275.118545 279.537993 
L 278.365091 278.690738 
L 281.611636 277.912619 
L 284.858182 277.181935 
L 288.104727 276.491836 
L 291.351273 275.832827 
L 294.597818 275.203977 
L 297.844364 274.602956 
L 301.090909 274.028985 
L 304.337455 273.479828 
L 307.584 272.955139 
L 310.830545 272.45091 
L 314.077091 271.97114 
L 317.323636 271.505533 
L 320.570182 271.057459 
L 323.816727 270.624384 
L 327.063273 270.207912 
L 330.309818 269.806855 
L 333.556364 269.420662 
L 336.802909 269.050344 
L 340.049455 268.691943 
L 343.296 268.340066 
L 346.542545 268.003587 
L 349.789091 267.683862 
L 353.035636 267.366944 
L 356.282182 267.061566 
L 359.528727 266.76813 
L 362.775273 266.484507 
L 366.021818 266.20429 
L 369.268364 265.932385 
L 372.514909 265.668181 
L 375.761455 265.410792 
L 379.008 265.15932 
L 382.254545 264.914394 
L 385.501091 264.676414 
L 388.747636 264.445354 
L 391.994182 264.221 
L 395.240727 264.001721 
L 398.487273 263.788138 
" clip-path="url(#p84a7c690fb)" style="fill: none; stroke: #ff7f0e; stroke-width: 1.5; stroke-linecap: square"/>
   </g>
   <g id="patch_27">
    <path d="M 57.6 307.584 
L 57.6 261.702621 
" style="fill: none; stroke: #000000; stroke-width: 0.8; stroke-linejoin: miter; stroke-linecap: square"/>
   </g>
   <g id="patch_28">
    <path d="M 414.72 307.584 
L 414.72 261.702621 
" style="fill: none; stroke: #000000; stroke-width: 0.8; stroke-linejoin: miter; stroke-linecap: square"/>
   </g>
   <g id="patch_29">
    <path d="M 57.6 307.584 
L 414.72 307.584 
" style="fill: none; stroke: #000000; stroke-width: 0.8; stroke-linejoin: miter; stroke-linecap: square"/>
   </g>
   <g id="patch_30">
    <path d="M 57.6 261.702621 
L 414.72 261.702621 
" style="fill: none; stroke: #000000; stroke-width: 0.8; stroke-linejoin: miter; stroke-linecap: square"/>
   </g>
   <g id="text_37">
    <!-- yC -->
    <g transform="translate(228.419062 255.702621)scale(0.12 -0.12)">
     <defs>
      <path id="DejaVuSans-43" d="M 4122 4306 
L 4122 3641 
Q 3803 3938 3442 4084 
Q 3081 4231 2675 4231 
Q 1875 4231 1450 3742 
Q 1025 3253 1025 2328 
Q 1025 1406 1450 917 
Q 1875 428 2675 428 
Q 3081 428 3442 575 
Q 3803 722 4122 1019 
L 4122 359 
Q 3791 134 3420 21 
Q 3050 -91 2638 -91 
Q 1578 -91 968 557 
Q 359 1206 359 2328 
Q 359 3453 968 4101 
Q 1578 4750 2638 4750 
Q 3056 4750 3426 4639 
Q 3797 4528 4122 4306 
z
" transform="scale(0.015625)"/>
     </defs>
     <use xlink:href="#DejaVuSans-79"/>
     <use xlink:href="#DejaVuSans-43" x="59.179688"/>
    </g>
   </g>
   <g id="legend_5">
    <g id="patch_31">
     <path d="M 329.88875 302.584 
L 407.72 302.584 
Q 409.72 302.584 409.72 300.584 
L 409.72 272.22775 
Q 409.72 270.22775 407.72 270.22775 
L 329.88875 270.22775 
Q 327.88875 270.22775 327.88875 272.22775 
L 327.88875 300.584 
Q 327.88875 302.584 329.88875 302.584 
z
" style="fill: #ffffff; opacity: 0.8; stroke: #cccccc; stroke-linejoin: miter"/>
    </g>
    <g id="line2d_64">
     <path d="M 331.88875 278.326187 
L 341.88875 278.326187 
L 351.88875 278.326187 
" style="fill: none; stroke: #1f77b4; stroke-width: 1.5; stroke-linecap: square"/>
    </g>
    <g id="text_38">
     <!-- yC0 (in) -->
     <g transform="translate(359.88875 281.826187)scale(0.1 -0.1)">
      <use xlink:href="#DejaVuSans-79"/>
      <use xlink:href="#DejaVuSans-43" x="59.179688"/>
      <use xlink:href="#DejaVuSans-30" x="129.003906"/>
      <use xlink:href="#DejaVuSans-20" x="192.626953"/>
      <use xlink:href="#DejaVuSans-28" x="224.414062"/>
      <use xlink:href="#DejaVuSans-69" x="263.427734"/>
      <use xlink:href="#DejaVuSans-6e" x="291.210938"/>
      <use xlink:href="#DejaVuSans-29" x="354.589844"/>
     </g>
    </g>
    <g id="line2d_65">
     <path d="M 331.88875 293.004312 
L 341.88875 293.004312 
L 351.88875 293.004312 
" style="fill: none; stroke: #ff7f0e; stroke-width: 1.5; stroke-linecap: square"/>
    </g>
    <g id="text_39">
     <!-- yCL (out) -->
     <g transform="translate(359.88875 296.504312)scale(0.1 -0.1)">
      <use xlink:href="#DejaVuSans-79"/>
      <use xlink:href="#DejaVuSans-43" x="59.179688"/>
      <use xlink:href="#DejaVuSans-4c" x="129.003906"/>
      <use xlink:href="#DejaVuSans-20" x="184.716797"/>
      <use xlink:href="#DejaVuSans-28" x="216.503906"/>
      <use xlink:href="#DejaVuSans-6f" x="255.517578"/>
      <use xlink:href="#DejaVuSans-75" x="316.699219"/>
      <use xlink:href="#DejaVuSans-74" x="380.078125"/>
      <use xlink:href="#DejaVuSans-29" x="419.287109"/>
     </g>
    </g>
   </g>
  </g>
 </g>
 <defs>
  <clipPath id="pcdd532c7dd">
   <rect x="57.6" y="41.472" width="357.12" height="45.881379"/>
  </clipPath>
  <clipPath id="pb5b4e45b03">
   <rect x="57.6" y="96.529655" width="357.12" height="45.881379"/>
  </clipPath>
  <clipPath id="pa7e9308b4b">
   <rect x="57.6" y="151.58731" width="357.12" height="45.881379"/>
  </clipPath>
  <clipPath id="p4a388f4152">
   <rect x="57.6" y="206.644966" width="357.12" height="45.881379"/>
  </clipPath>
  <clipPath id="p84a7c690fb">
   <rect x="57.6" y="261.702621" width="357.12" height="45.881379"/>
  </clipPath>
 </defs>
</svg>
