<?xml version="1.0" encoding="utf-8" standalone="no"?>
<!DOCTYPE svg PUBLIC "-//W3C//DTD SVG 1.1//EN"
  "http://www.w3.org/Graphics/SVG/1.1/DTD/svg11.dtd">
<svg xmlns:xlink="http://www.w3.org/1999/xlink" width="460.8pt" height="345.6pt" viewBox="0 0 460.8 345.6" xmlns="http://www.w3.org/2000/svg" version="1.1">
 <metadata>
  <rdf:RDF xmlns:dc="http://purl.org/dc/elements/1.1/" xmlns:cc="http://creativecommons.org/ns#" xmlns:rdf="http://www.w3.org/1999/02/22-rdf-syntax-ns#">
   <cc:Work>
    <dc:type rdf:resource="http://purl.org/dc/dcmitype/StillImage"/>
    <dc:date>2022-10-13T06:52:26.906013</dc:date>
    <dc:format>image/svg+xml</dc:format>
    <dc:creator>
     <cc:Agent>
      <dc:title>Matplotlib v3.5.2, https://matplotlib.org/</dc:title>
     </cc:Agent>
    </dc:creator>
   </cc:Work>
  </rdf:RDF>
 </metadata>
 <defs>
  <style type="text/css">*{stroke-linejoin: round; stroke-linecap: butt}</style>
 </defs>
 <g id="figure_1">
  <g id="patch_1">
   <path d="M 0 345.6 
L 460.8 345.6 
L 460.8 0 
L 0 0 
z
" style="fill: #ffffff"/>
  </g>
  <g id="axes_1">
   <g id="patch_2">
    <path d="M 57.6 87.353379 
L 414.72 87.353379 
L 414.72 41.472 
L 57.6 41.472 
z
" style="fill: #ffffff"/>
   </g>
   <g id="axes_2">
    <g id="patch_3">
     <path d="M 414.72 87.353379 
L 414.72 87.353379 
L 414.72 41.472 
L 414.72 41.472 
z
" style="fill: #ffffff"/>
    </g>
    <g id="matplotlib.axis_1"/>
    <g id="matplotlib.axis_2">
     <g id="ytick_1">
      <g id="line2d_1">
       <defs>
        <path id="m6026405348" d="M 0 0 
L 3.5 0 
" style="stroke: #000000; stroke-width: 0.8"/>
       </defs>
       <g>
        <use xlink:href="#m6026405348" x="414.72" y="67.27267" style="stroke: #000000; stroke-width: 0.8"/>
       </g>
      </g>
      <g id="text_1">
       <!-- 0 -->
       <g transform="translate(421.72 71.071889)scale(0.1 -0.1)">
        <defs>
         <path id="DejaVuSans-30" d="M 2034 4250 
Q 1547 4250 1301 3770 
Q 1056 3291 1056 2328 
Q 1056 1369 1301 889 
Q 1547 409 2034 409 
Q 2525 409 2770 889 
Q 3016 1369 3016 2328 
Q 3016 3291 2770 3770 
Q 2525 4250 2034 4250 
z
M 2034 4750 
Q 2819 4750 3233 4129 
Q 3647 3509 3647 2328 
Q 3647 1150 3233 529 
Q 2819 -91 2034 -91 
Q 1250 -91 836 529 
Q 422 1150 422 2328 
Q 422 3509 836 4129 
Q 1250 4750 2034 4750 
z
" transform="scale(0.015625)"/>
        </defs>
        <use xlink:href="#DejaVuSans-30"/>
       </g>
      </g>
     </g>
     <g id="ytick_2">
      <g id="line2d_2">
       <g>
        <use xlink:href="#m6026405348" x="414.72" y="42.661349" style="stroke: #000000; stroke-width: 0.8"/>
       </g>
      </g>
      <g id="text_2">
       <!-- 5 -->
       <g transform="translate(421.72 46.460567)scale(0.1 -0.1)">
        <defs>
         <path id="DejaVuSans-35" d="M 691 4666 
L 3169 4666 
L 3169 4134 
L 1269 4134 
L 1269 2991 
Q 1406 3038 1543 3061 
Q 1681 3084 1819 3084 
Q 2600 3084 3056 2656 
Q 3513 2228 3513 1497 
Q 3513 744 3044 326 
Q 2575 -91 1722 -91 
Q 1428 -91 1123 -41 
Q 819 9 494 109 
L 494 744 
Q 775 591 1075 516 
Q 1375 441 1709 441 
Q 2250 441 2565 725 
Q 2881 1009 2881 1497 
Q 2881 1984 2565 2268 
Q 2250 2553 1709 2553 
Q 1456 2553 1204 2497 
Q 953 2441 691 2322 
L 691 4666 
z
" transform="scale(0.015625)"/>
        </defs>
        <use xlink:href="#DejaVuSans-35"/>
       </g>
      </g>
     </g>
     <g id="text_3">
      <!-- vel [m/s] -->
      <g transform="translate(439.680938 86.48769)rotate(-90)scale(0.1 -0.1)">
       <defs>
        <path id="DejaVuSans-76" d="M 191 3500 
L 800 3500 
L 1894 563 
L 2988 3500 
L 3597 3500 
L 2284 0 
L 1503 0 
L 191 3500 
z
" transform="scale(0.015625)"/>
        <path id="DejaVuSans-65" d="M 3597 1894 
L 3597 1613 
L 953 1613 
Q 991 1019 1311 708 
Q 1631 397 2203 397 
Q 2534 397 2845 478 
Q 3156 559 3463 722 
L 3463 178 
Q 3153 47 2828 -22 
Q 2503 -91 2169 -91 
Q 1331 -91 842 396 
Q 353 884 353 1716 
Q 353 2575 817 3079 
Q 1281 3584 2069 3584 
Q 2775 3584 3186 3129 
Q 3597 2675 3597 1894 
z
M 3022 2063 
Q 3016 2534 2758 2815 
Q 2500 3097 2075 3097 
Q 1594 3097 1305 2825 
Q 1016 2553 972 2059 
L 3022 2063 
z
" transform="scale(0.015625)"/>
        <path id="DejaVuSans-6c" d="M 603 4863 
L 1178 4863 
L 1178 0 
L 603 0 
L 603 4863 
z
" transform="scale(0.015625)"/>
        <path id="DejaVuSans-20" transform="scale(0.015625)"/>
        <path id="DejaVuSans-5b" d="M 550 4863 
L 1875 4863 
L 1875 4416 
L 1125 4416 
L 1125 -397 
L 1875 -397 
L 1875 -844 
L 550 -844 
L 550 4863 
z
" transform="scale(0.015625)"/>
        <path id="DejaVuSans-6d" d="M 3328 2828 
Q 3544 3216 3844 3400 
Q 4144 3584 4550 3584 
Q 5097 3584 5394 3201 
Q 5691 2819 5691 2113 
L 5691 0 
L 5113 0 
L 5113 2094 
Q 5113 2597 4934 2840 
Q 4756 3084 4391 3084 
Q 3944 3084 3684 2787 
Q 3425 2491 3425 1978 
L 3425 0 
L 2847 0 
L 2847 2094 
Q 2847 2600 2669 2842 
Q 2491 3084 2119 3084 
Q 1678 3084 1418 2786 
Q 1159 2488 1159 1978 
L 1159 0 
L 581 0 
L 581 3500 
L 1159 3500 
L 1159 2956 
Q 1356 3278 1631 3431 
Q 1906 3584 2284 3584 
Q 2666 3584 2933 3390 
Q 3200 3197 3328 2828 
z
" transform="scale(0.015625)"/>
        <path id="DejaVuSans-2f" d="M 1625 4666 
L 2156 4666 
L 531 -594 
L 0 -594 
L 1625 4666 
z
" transform="scale(0.015625)"/>
        <path id="DejaVuSans-73" d="M 2834 3397 
L 2834 2853 
Q 2591 2978 2328 3040 
Q 2066 3103 1784 3103 
Q 1356 3103 1142 2972 
Q 928 2841 928 2578 
Q 928 2378 1081 2264 
Q 1234 2150 1697 2047 
L 1894 2003 
Q 2506 1872 2764 1633 
Q 3022 1394 3022 966 
Q 3022 478 2636 193 
Q 2250 -91 1575 -91 
Q 1294 -91 989 -36 
Q 684 19 347 128 
L 347 722 
Q 666 556 975 473 
Q 1284 391 1588 391 
Q 1994 391 2212 530 
Q 2431 669 2431 922 
Q 2431 1156 2273 1281 
Q 2116 1406 1581 1522 
L 1381 1569 
Q 847 1681 609 1914 
Q 372 2147 372 2553 
Q 372 3047 722 3315 
Q 1072 3584 1716 3584 
Q 2034 3584 2315 3537 
Q 2597 3491 2834 3397 
z
" transform="scale(0.015625)"/>
        <path id="DejaVuSans-5d" d="M 1947 4863 
L 1947 -844 
L 622 -844 
L 622 -397 
L 1369 -397 
L 1369 4416 
L 622 4416 
L 622 4863 
L 1947 4863 
z
" transform="scale(0.015625)"/>
       </defs>
       <use xlink:href="#DejaVuSans-76"/>
       <use xlink:href="#DejaVuSans-65" x="59.179688"/>
       <use xlink:href="#DejaVuSans-6c" x="120.703125"/>
       <use xlink:href="#DejaVuSans-20" x="148.486328"/>
       <use xlink:href="#DejaVuSans-5b" x="180.273438"/>
       <use xlink:href="#DejaVuSans-6d" x="219.287109"/>
       <use xlink:href="#DejaVuSans-2f" x="316.699219"/>
       <use xlink:href="#DejaVuSans-73" x="350.390625"/>
       <use xlink:href="#DejaVuSans-5d" x="402.490234"/>
      </g>
     </g>
    </g>
    <g id="patch_4">
     <path d="M 414.72 87.353379 
L 414.72 41.472 
" style="fill: none; stroke: #000000; stroke-width: 0.8; stroke-linejoin: miter; stroke-linecap: square"/>
    </g>
   </g>
   <g id="matplotlib.axis_3">
    <g id="xtick_1">
     <g id="line2d_3">
      <defs>
       <path id="mc64f4afa44" d="M 0 0 
L 0 3.5 
" style="stroke: #000000; stroke-width: 0.8"/>
      </defs>
      <g>
       <use xlink:href="#mc64f4afa44" x="73.832727" y="87.353379" style="stroke: #000000; stroke-width: 0.8"/>
      </g>
     </g>
    </g>
    <g id="xtick_2">
     <g id="line2d_4">
      <g>
       <use xlink:href="#mc64f4afa44" x="145.978182" y="87.353379" style="stroke: #000000; stroke-width: 0.8"/>
      </g>
     </g>
    </g>
    <g id="xtick_3">
     <g id="line2d_5">
      <g>
       <use xlink:href="#mc64f4afa44" x="218.123636" y="87.353379" style="stroke: #000000; stroke-width: 0.8"/>
      </g>
     </g>
    </g>
    <g id="xtick_4">
     <g id="line2d_6">
      <g>
       <use xlink:href="#mc64f4afa44" x="290.269091" y="87.353379" style="stroke: #000000; stroke-width: 0.8"/>
      </g>
     </g>
    </g>
    <g id="xtick_5">
     <g id="line2d_7">
      <g>
       <use xlink:href="#mc64f4afa44" x="362.414545" y="87.353379" style="stroke: #000000; stroke-width: 0.8"/>
      </g>
     </g>
    </g>
   </g>
   <g id="matplotlib.axis_4">
    <g id="ytick_3">
     <g id="line2d_8">
      <defs>
       <path id="mb882660c0f" d="M 0 0 
L -3.5 0 
" style="stroke: #000000; stroke-width: 0.8"/>
      </defs>
      <g>
       <use xlink:href="#mb882660c0f" x="57.6" y="67.27267" style="stroke: #000000; stroke-width: 0.8"/>
      </g>
     </g>
     <g id="text_4">
      <!-- 0 -->
      <g transform="translate(44.2375 71.071889)scale(0.1 -0.1)">
       <use xlink:href="#DejaVuSans-30"/>
      </g>
     </g>
    </g>
    <g id="ytick_4">
     <g id="line2d_9">
      <g>
       <use xlink:href="#mb882660c0f" x="57.6" y="42.661349" style="stroke: #000000; stroke-width: 0.8"/>
      </g>
     </g>
     <g id="text_5">
      <!-- 5 -->
      <g transform="translate(44.2375 46.460567)scale(0.1 -0.1)">
       <use xlink:href="#DejaVuSans-35"/>
      </g>
     </g>
    </g>
    <g id="text_6">
     <!-- vel [normalized] -->
     <g transform="translate(38.157812 105.111908)rotate(-90)scale(0.1 -0.1)">
      <defs>
       <path id="DejaVuSans-6e" d="M 3513 2113 
L 3513 0 
L 2938 0 
L 2938 2094 
Q 2938 2591 2744 2837 
Q 2550 3084 2163 3084 
Q 1697 3084 1428 2787 
Q 1159 2491 1159 1978 
L 1159 0 
L 581 0 
L 581 3500 
L 1159 3500 
L 1159 2956 
Q 1366 3272 1645 3428 
Q 1925 3584 2291 3584 
Q 2894 3584 3203 3211 
Q 3513 2838 3513 2113 
z
" transform="scale(0.015625)"/>
       <path id="DejaVuSans-6f" d="M 1959 3097 
Q 1497 3097 1228 2736 
Q 959 2375 959 1747 
Q 959 1119 1226 758 
Q 1494 397 1959 397 
Q 2419 397 2687 759 
Q 2956 1122 2956 1747 
Q 2956 2369 2687 2733 
Q 2419 3097 1959 3097 
z
M 1959 3584 
Q 2709 3584 3137 3096 
Q 3566 2609 3566 1747 
Q 3566 888 3137 398 
Q 2709 -91 1959 -91 
Q 1206 -91 779 398 
Q 353 888 353 1747 
Q 353 2609 779 3096 
Q 1206 3584 1959 3584 
z
" transform="scale(0.015625)"/>
       <path id="DejaVuSans-72" d="M 2631 2963 
Q 2534 3019 2420 3045 
Q 2306 3072 2169 3072 
Q 1681 3072 1420 2755 
Q 1159 2438 1159 1844 
L 1159 0 
L 581 0 
L 581 3500 
L 1159 3500 
L 1159 2956 
Q 1341 3275 1631 3429 
Q 1922 3584 2338 3584 
Q 2397 3584 2469 3576 
Q 2541 3569 2628 3553 
L 2631 2963 
z
" transform="scale(0.015625)"/>
       <path id="DejaVuSans-61" d="M 2194 1759 
Q 1497 1759 1228 1600 
Q 959 1441 959 1056 
Q 959 750 1161 570 
Q 1363 391 1709 391 
Q 2188 391 2477 730 
Q 2766 1069 2766 1631 
L 2766 1759 
L 2194 1759 
z
M 3341 1997 
L 3341 0 
L 2766 0 
L 2766 531 
Q 2569 213 2275 61 
Q 1981 -91 1556 -91 
Q 1019 -91 701 211 
Q 384 513 384 1019 
Q 384 1609 779 1909 
Q 1175 2209 1959 2209 
L 2766 2209 
L 2766 2266 
Q 2766 2663 2505 2880 
Q 2244 3097 1772 3097 
Q 1472 3097 1187 3025 
Q 903 2953 641 2809 
L 641 3341 
Q 956 3463 1253 3523 
Q 1550 3584 1831 3584 
Q 2591 3584 2966 3190 
Q 3341 2797 3341 1997 
z
" transform="scale(0.015625)"/>
       <path id="DejaVuSans-69" d="M 603 3500 
L 1178 3500 
L 1178 0 
L 603 0 
L 603 3500 
z
M 603 4863 
L 1178 4863 
L 1178 4134 
L 603 4134 
L 603 4863 
z
" transform="scale(0.015625)"/>
       <path id="DejaVuSans-7a" d="M 353 3500 
L 3084 3500 
L 3084 2975 
L 922 459 
L 3084 459 
L 3084 0 
L 275 0 
L 275 525 
L 2438 3041 
L 353 3041 
L 353 3500 
z
" transform="scale(0.015625)"/>
       <path id="DejaVuSans-64" d="M 2906 2969 
L 2906 4863 
L 3481 4863 
L 3481 0 
L 2906 0 
L 2906 525 
Q 2725 213 2448 61 
Q 2172 -91 1784 -91 
Q 1150 -91 751 415 
Q 353 922 353 1747 
Q 353 2572 751 3078 
Q 1150 3584 1784 3584 
Q 2172 3584 2448 3432 
Q 2725 3281 2906 2969 
z
M 947 1747 
Q 947 1113 1208 752 
Q 1469 391 1925 391 
Q 2381 391 2643 752 
Q 2906 1113 2906 1747 
Q 2906 2381 2643 2742 
Q 2381 3103 1925 3103 
Q 1469 3103 1208 2742 
Q 947 2381 947 1747 
z
" transform="scale(0.015625)"/>
      </defs>
      <use xlink:href="#DejaVuSans-76"/>
      <use xlink:href="#DejaVuSans-65" x="59.179688"/>
      <use xlink:href="#DejaVuSans-6c" x="120.703125"/>
      <use xlink:href="#DejaVuSans-20" x="148.486328"/>
      <use xlink:href="#DejaVuSans-5b" x="180.273438"/>
      <use xlink:href="#DejaVuSans-6e" x="219.287109"/>
      <use xlink:href="#DejaVuSans-6f" x="282.666016"/>
      <use xlink:href="#DejaVuSans-72" x="343.847656"/>
      <use xlink:href="#DejaVuSans-6d" x="383.210938"/>
      <use xlink:href="#DejaVuSans-61" x="480.623047"/>
      <use xlink:href="#DejaVuSans-6c" x="541.902344"/>
      <use xlink:href="#DejaVuSans-69" x="569.685547"/>
      <use xlink:href="#DejaVuSans-7a" x="597.46875"/>
      <use xlink:href="#DejaVuSans-65" x="649.958984"/>
      <use xlink:href="#DejaVuSans-64" x="711.482422"/>
      <use xlink:href="#DejaVuSans-5d" x="774.958984"/>
     </g>
    </g>
   </g>
   <g id="line2d_10">
    <path d="M 73.832727 69.833527 
L 109.905455 69.814493 
L 145.978182 69.799271 
L 182.050909 69.78712 
L 218.123636 69.777591 
L 254.196364 69.770267 
L 290.269091 69.764596 
L 326.341818 69.759383 
L 362.414545 69.750211 
L 398.487273 69.750211 
" clip-path="url(#p4f717aec50)" style="fill: none; stroke: #1f77b4; stroke-width: 1.5; stroke-linecap: square"/>
   </g>
   <g id="line2d_11">
    <path d="M 73.832727 65.362365 
L 109.905455 65.470418 
L 145.978182 65.610409 
L 182.050909 65.78091 
L 218.123636 65.97927 
L 254.196364 66.201822 
L 290.269091 66.448005 
L 326.341818 66.717017 
L 362.414545 67.000175 
L 398.487273 67.000175 
" clip-path="url(#p4f717aec50)" style="fill: none; stroke: #ff7f0e; stroke-width: 1.5; stroke-linecap: square"/>
   </g>
   <g id="line2d_12">
    <path d="M 73.832727 62.354621 
L 109.905455 62.34952 
L 145.978182 62.343556 
L 182.050909 62.336625 
L 218.123636 62.32871 
L 254.196364 62.319835 
L 290.269091 62.310055 
L 326.341818 62.299481 
L 362.414545 62.288525 
L 398.487273 62.288525 
" clip-path="url(#p4f717aec50)" style="fill: none; stroke: #2ca02c; stroke-width: 1.5; stroke-linecap: square"/>
   </g>
   <g id="line2d_13">
    <path d="M 73.832727 64.818642 
L 109.905455 64.808803 
L 145.978182 64.797273 
L 182.050909 64.78624 
L 218.123636 64.776014 
L 254.196364 64.766695 
L 290.269091 64.758371 
L 326.341818 64.751153 
L 362.414545 64.745272 
L 398.487273 64.745272 
" clip-path="url(#p4f717aec50)" style="fill: none; stroke: #d62728; stroke-width: 1.5; stroke-linecap: square"/>
   </g>
   <g id="line2d_14">
    <path d="M 73.832727 64.826626 
L 109.905455 64.830012 
L 145.978182 64.829163 
L 182.050909 64.827141 
L 218.123636 64.824658 
L 254.196364 64.821835 
L 290.269091 64.818703 
L 326.341818 64.815306 
L 362.414545 64.811793 
L 398.487273 64.811793 
" clip-path="url(#p4f717aec50)" style="fill: none; stroke: #9467bd; stroke-width: 1.5; stroke-linecap: square"/>
   </g>
   <g id="line2d_15">
    <path d="M 73.832727 64.812156 
L 109.905455 62.342901 
L 145.978182 59.843845 
L 182.050909 57.299131 
L 218.123636 54.694502 
L 254.196364 52.017881 
L 290.269091 49.262599 
L 326.341818 46.433335 
L 362.414545 43.557517 
L 398.487273 43.557517 
" clip-path="url(#p4f717aec50)" style="fill: none; stroke: #8c564b; stroke-width: 1.5; stroke-linecap: square"/>
   </g>
   <g id="line2d_16">
    <path d="M 73.832727 67.067262 
L 109.905455 66.866435 
L 145.978182 66.673772 
L 182.050909 66.493519 
L 218.123636 66.329893 
L 254.196364 66.186949 
L 290.269091 66.068553 
L 326.341818 65.978361 
L 362.414545 65.919778 
L 398.487273 65.919778 
" clip-path="url(#p4f717aec50)" style="fill: none; stroke: #e377c2; stroke-width: 1.5; stroke-linecap: square"/>
   </g>
   <g id="line2d_17">
    <path d="M 73.832727 67.255379 
L 109.905455 67.238656 
L 145.978182 67.222693 
L 182.050909 67.207901 
L 218.123636 67.194659 
L 254.196364 67.183305 
L 290.269091 67.174134 
L 326.341818 67.167388 
L 362.414545 67.163256 
L 398.487273 67.163256 
" clip-path="url(#p4f717aec50)" style="fill: none; stroke: #7f7f7f; stroke-width: 1.5; stroke-linecap: square"/>
   </g>
   <g id="line2d_18">
    <path d="M 73.832727 85.267862 
L 109.905455 83.23304 
L 145.978182 81.142227 
L 182.050909 79.058417 
L 218.123636 77.009185 
L 254.196364 75.002469 
L 290.269091 73.035468 
L 326.341818 71.099528 
L 362.414545 69.182814 
L 398.487273 69.182814 
" clip-path="url(#p4f717aec50)" style="fill: none; stroke: #bcbd22; stroke-width: 1.5; stroke-linecap: square"/>
   </g>
   <g id="line2d_19">
    <path d="M 73.832727 73.226299 
L 109.905455 72.856887 
L 145.978182 72.369894 
L 182.050909 71.788797 
L 218.123636 71.134149 
L 254.196364 70.423232 
L 290.269091 69.67039 
L 326.341818 68.887603 
L 362.414545 68.085151 
L 398.487273 68.085151 
" clip-path="url(#p4f717aec50)" style="fill: none; stroke: #17becf; stroke-width: 1.5; stroke-linecap: square"/>
   </g>
   <g id="line2d_20">
    <path d="M 73.832727 69.581735 
L 109.905455 69.471441 
L 145.978182 69.309729 
L 182.050909 69.102571 
L 218.123636 68.856499 
L 254.196364 68.578171 
L 290.269091 68.274183 
L 326.341818 67.951006 
L 362.414545 67.615004 
L 398.487273 67.615004 
" clip-path="url(#p4f717aec50)" style="fill: none; stroke: #1f77b4; stroke-width: 1.5; stroke-linecap: square"/>
   </g>
   <g id="line2d_21">
    <path d="M 73.832727 69.492225 
L 109.905455 69.488941 
L 145.978182 69.496148 
L 182.050909 69.513196 
L 218.123636 69.539563 
L 254.196364 69.574379 
L 290.269091 69.616063 
L 326.341818 69.661911 
L 362.414545 69.706176 
L 398.487273 69.706176 
" clip-path="url(#p4f717aec50)" style="fill: none; stroke: #ff7f0e; stroke-width: 1.5; stroke-linecap: square"/>
   </g>
   <g id="line2d_22">
    <path d="M 73.832727 69.764957 
L 109.905455 69.750455 
L 145.978182 69.741548 
L 182.050909 69.737 
L 218.123636 69.735823 
L 254.196364 69.737094 
L 290.269091 69.739907 
L 326.341818 69.743067 
L 362.414545 69.742708 
L 398.487273 69.742708 
" clip-path="url(#p4f717aec50)" style="fill: none; stroke: #2ca02c; stroke-width: 1.5; stroke-linecap: square"/>
   </g>
   <g id="patch_5">
    <path d="M 57.6 87.353379 
L 57.6 41.472 
" style="fill: none; stroke: #000000; stroke-width: 0.8; stroke-linejoin: miter; stroke-linecap: square"/>
   </g>
   <g id="patch_6">
    <path d="M 414.72 87.353379 
L 414.72 41.472 
" style="fill: none; stroke: #000000; stroke-width: 0.8; stroke-linejoin: miter; stroke-linecap: square"/>
   </g>
   <g id="patch_7">
    <path d="M 57.6 87.353379 
L 414.72 87.353379 
" style="fill: none; stroke: #000000; stroke-width: 0.8; stroke-linejoin: miter; stroke-linecap: square"/>
   </g>
   <g id="patch_8">
    <path d="M 57.6 41.472 
L 414.72 41.472 
" style="fill: none; stroke: #000000; stroke-width: 0.8; stroke-linejoin: miter; stroke-linecap: square"/>
   </g>
   <g id="text_7">
    <!-- velocity - Container 1  -->
    <g transform="translate(169.779375 38.472)scale(0.12 -0.12)">
     <defs>
      <path id="DejaVuSans-63" d="M 3122 3366 
L 3122 2828 
Q 2878 2963 2633 3030 
Q 2388 3097 2138 3097 
Q 1578 3097 1268 2742 
Q 959 2388 959 1747 
Q 959 1106 1268 751 
Q 1578 397 2138 397 
Q 2388 397 2633 464 
Q 2878 531 3122 666 
L 3122 134 
Q 2881 22 2623 -34 
Q 2366 -91 2075 -91 
Q 1284 -91 818 406 
Q 353 903 353 1747 
Q 353 2603 823 3093 
Q 1294 3584 2113 3584 
Q 2378 3584 2631 3529 
Q 2884 3475 3122 3366 
z
" transform="scale(0.015625)"/>
      <path id="DejaVuSans-74" d="M 1172 4494 
L 1172 3500 
L 2356 3500 
L 2356 3053 
L 1172 3053 
L 1172 1153 
Q 1172 725 1289 603 
Q 1406 481 1766 481 
L 2356 481 
L 2356 0 
L 1766 0 
Q 1100 0 847 248 
Q 594 497 594 1153 
L 594 3053 
L 172 3053 
L 172 3500 
L 594 3500 
L 594 4494 
L 1172 4494 
z
" transform="scale(0.015625)"/>
      <path id="DejaVuSans-79" d="M 2059 -325 
Q 1816 -950 1584 -1140 
Q 1353 -1331 966 -1331 
L 506 -1331 
L 506 -850 
L 844 -850 
Q 1081 -850 1212 -737 
Q 1344 -625 1503 -206 
L 1606 56 
L 191 3500 
L 800 3500 
L 1894 763 
L 2988 3500 
L 3597 3500 
L 2059 -325 
z
" transform="scale(0.015625)"/>
      <path id="DejaVuSans-2d" d="M 313 2009 
L 1997 2009 
L 1997 1497 
L 313 1497 
L 313 2009 
z
" transform="scale(0.015625)"/>
      <path id="DejaVuSans-43" d="M 4122 4306 
L 4122 3641 
Q 3803 3938 3442 4084 
Q 3081 4231 2675 4231 
Q 1875 4231 1450 3742 
Q 1025 3253 1025 2328 
Q 1025 1406 1450 917 
Q 1875 428 2675 428 
Q 3081 428 3442 575 
Q 3803 722 4122 1019 
L 4122 359 
Q 3791 134 3420 21 
Q 3050 -91 2638 -91 
Q 1578 -91 968 557 
Q 359 1206 359 2328 
Q 359 3453 968 4101 
Q 1578 4750 2638 4750 
Q 3056 4750 3426 4639 
Q 3797 4528 4122 4306 
z
" transform="scale(0.015625)"/>
      <path id="DejaVuSans-31" d="M 794 531 
L 1825 531 
L 1825 4091 
L 703 3866 
L 703 4441 
L 1819 4666 
L 2450 4666 
L 2450 531 
L 3481 531 
L 3481 0 
L 794 0 
L 794 531 
z
" transform="scale(0.015625)"/>
     </defs>
     <use xlink:href="#DejaVuSans-76"/>
     <use xlink:href="#DejaVuSans-65" x="59.179688"/>
     <use xlink:href="#DejaVuSans-6c" x="120.703125"/>
     <use xlink:href="#DejaVuSans-6f" x="148.486328"/>
     <use xlink:href="#DejaVuSans-63" x="209.667969"/>
     <use xlink:href="#DejaVuSans-69" x="264.648438"/>
     <use xlink:href="#DejaVuSans-74" x="292.431641"/>
     <use xlink:href="#DejaVuSans-79" x="331.640625"/>
     <use xlink:href="#DejaVuSans-20" x="390.820312"/>
     <use xlink:href="#DejaVuSans-2d" x="422.607422"/>
     <use xlink:href="#DejaVuSans-20" x="458.691406"/>
     <use xlink:href="#DejaVuSans-43" x="490.478516"/>
     <use xlink:href="#DejaVuSans-6f" x="560.302734"/>
     <use xlink:href="#DejaVuSans-6e" x="621.484375"/>
     <use xlink:href="#DejaVuSans-74" x="684.863281"/>
     <use xlink:href="#DejaVuSans-61" x="724.072266"/>
     <use xlink:href="#DejaVuSans-69" x="785.351562"/>
     <use xlink:href="#DejaVuSans-6e" x="813.134766"/>
     <use xlink:href="#DejaVuSans-65" x="876.513672"/>
     <use xlink:href="#DejaVuSans-72" x="938.037109"/>
     <use xlink:href="#DejaVuSans-20" x="979.150391"/>
     <use xlink:href="#DejaVuSans-31" x="1010.9375"/>
     <use xlink:href="#DejaVuSans-20" x="1074.560547"/>
    </g>
   </g>
  </g>
  <g id="axes_3">
   <g id="patch_9">
    <path d="M 57.6 142.411034 
L 414.72 142.411034 
L 414.72 96.529655 
L 57.6 96.529655 
z
" style="fill: #ffffff"/>
   </g>
   <g id="matplotlib.axis_5">
    <g id="xtick_6">
     <g id="line2d_23">
      <g>
       <use xlink:href="#mc64f4afa44" x="73.832727" y="142.411034" style="stroke: #000000; stroke-width: 0.8"/>
      </g>
     </g>
    </g>
    <g id="xtick_7">
     <g id="line2d_24">
      <g>
       <use xlink:href="#mc64f4afa44" x="145.978182" y="142.411034" style="stroke: #000000; stroke-width: 0.8"/>
      </g>
     </g>
    </g>
    <g id="xtick_8">
     <g id="line2d_25">
      <g>
       <use xlink:href="#mc64f4afa44" x="218.123636" y="142.411034" style="stroke: #000000; stroke-width: 0.8"/>
      </g>
     </g>
    </g>
    <g id="xtick_9">
     <g id="line2d_26">
      <g>
       <use xlink:href="#mc64f4afa44" x="290.269091" y="142.411034" style="stroke: #000000; stroke-width: 0.8"/>
      </g>
     </g>
    </g>
    <g id="xtick_10">
     <g id="line2d_27">
      <g>
       <use xlink:href="#mc64f4afa44" x="362.414545" y="142.411034" style="stroke: #000000; stroke-width: 0.8"/>
      </g>
     </g>
    </g>
   </g>
   <g id="matplotlib.axis_6">
    <g id="ytick_5">
     <g id="line2d_28">
      <g>
       <use xlink:href="#mb882660c0f" x="57.6" y="127.098089" style="stroke: #000000; stroke-width: 0.8"/>
      </g>
     </g>
     <g id="text_8">
      <!-- 0.5 -->
      <g transform="translate(34.696875 130.897308)scale(0.1 -0.1)">
       <defs>
        <path id="DejaVuSans-2e" d="M 684 794 
L 1344 794 
L 1344 0 
L 684 0 
L 684 794 
z
" transform="scale(0.015625)"/>
       </defs>
       <use xlink:href="#DejaVuSans-30"/>
       <use xlink:href="#DejaVuSans-2e" x="63.623047"/>
       <use xlink:href="#DejaVuSans-35" x="95.410156"/>
      </g>
     </g>
    </g>
    <g id="ytick_6">
     <g id="line2d_29">
      <g>
       <use xlink:href="#mb882660c0f" x="57.6" y="100.550917" style="stroke: #000000; stroke-width: 0.8"/>
      </g>
     </g>
     <g id="text_9">
      <!-- 1.0 -->
      <g transform="translate(34.696875 104.350136)scale(0.1 -0.1)">
       <use xlink:href="#DejaVuSans-31"/>
       <use xlink:href="#DejaVuSans-2e" x="63.623047"/>
       <use xlink:href="#DejaVuSans-30" x="95.410156"/>
      </g>
     </g>
    </g>
   </g>
   <g id="line2d_30">
    <path d="M 73.832727 140.31825 
L 109.905455 140.212833 
L 145.978182 140.1082 
L 182.050909 140.004193 
L 218.123636 139.900687 
L 254.196364 139.797573 
L 290.269091 139.69476 
L 326.341818 139.592181 
L 362.414545 139.489816 
L 398.487273 139.387829 
" clip-path="url(#pec8f162dbb)" style="fill: none; stroke: #1f77b4; stroke-width: 1.5; stroke-linecap: square"/>
   </g>
   <g id="line2d_31">
    <path d="M 73.832727 100.660948 
L 109.905455 100.739585 
L 145.978182 100.813774 
L 182.050909 100.8822 
L 218.123636 100.943608 
L 254.196364 100.996851 
L 290.269091 101.040932 
L 326.341818 101.074879 
L 362.414545 101.097752 
L 398.487273 101.108969 
" clip-path="url(#pec8f162dbb)" style="fill: none; stroke: #ff7f0e; stroke-width: 1.5; stroke-linecap: square"/>
   </g>
   <g id="line2d_32">
    <path d="M 73.832727 98.615172 
L 109.905455 98.817622 
L 145.978182 99.020282 
L 182.050909 99.223187 
L 218.123636 99.426378 
L 254.196364 99.629895 
L 290.269091 99.833776 
L 326.341818 100.038061 
L 362.414545 100.242781 
L 398.487273 100.447951 
" clip-path="url(#pec8f162dbb)" style="fill: none; stroke: #2ca02c; stroke-width: 1.5; stroke-linecap: square"/>
   </g>
   <g id="line2d_33">
    <path d="M 73.832727 99.574811 
L 109.905455 99.67583 
L 145.978182 99.777254 
L 182.050909 99.879153 
L 218.123636 99.981506 
L 254.196364 100.08428 
L 290.269091 100.187438 
L 326.341818 100.290938 
L 362.414545 100.394736 
L 398.487273 100.498775 
" clip-path="url(#pec8f162dbb)" style="fill: none; stroke: #d62728; stroke-width: 1.5; stroke-linecap: square"/>
   </g>
   <g id="line2d_34">
    <path d="M 73.832727 99.59253 
L 109.905455 99.69322 
L 145.978182 99.793772 
L 182.050909 99.894358 
L 218.123636 99.995027 
L 254.196364 100.095799 
L 290.269091 100.196687 
L 326.341818 100.297703 
L 362.414545 100.39886 
L 398.487273 100.500161 
" clip-path="url(#pec8f162dbb)" style="fill: none; stroke: #9467bd; stroke-width: 1.5; stroke-linecap: square"/>
   </g>
   <g id="line2d_35">
    <path d="M 73.832727 121.7978 
L 109.905455 121.899086 
L 145.978182 122.102019 
L 182.050909 122.407824 
L 218.123636 122.818381 
L 254.196364 123.336157 
L 290.269091 123.964116 
L 326.341818 124.705494 
L 362.414545 125.563339 
L 398.487273 126.539565 
" clip-path="url(#pec8f162dbb)" style="fill: none; stroke: #8c564b; stroke-width: 1.5; stroke-linecap: square"/>
   </g>
   <g id="line2d_36">
    <path d="M 73.832727 126.745775 
L 109.905455 126.75423 
L 145.978182 126.770953 
L 182.050909 126.795606 
L 218.123636 126.82768 
L 254.196364 126.866489 
L 290.269091 126.911182 
L 326.341818 126.960749 
L 362.414545 127.014029 
L 398.487273 127.069721 
" clip-path="url(#pec8f162dbb)" style="fill: none; stroke: #e377c2; stroke-width: 1.5; stroke-linecap: square"/>
   </g>
   <g id="line2d_37">
    <path d="M 73.832727 127.06919 
L 109.905455 127.069902 
L 145.978182 127.071302 
L 182.050909 127.073359 
L 218.123636 127.076026 
L 254.196364 127.079237 
L 290.269091 127.082916 
L 326.341818 127.086972 
L 362.414545 127.091306 
L 398.487273 127.09581 
" clip-path="url(#pec8f162dbb)" style="fill: none; stroke: #7f7f7f; stroke-width: 1.5; stroke-linecap: square"/>
   </g>
   <g id="line2d_38">
    <path d="M 73.832727 139.923097 
L 109.905455 139.182331 
L 145.978182 138.525327 
L 182.050909 137.954392 
L 218.123636 137.469235 
L 254.196364 137.068435 
L 290.269091 136.75024 
L 326.341818 136.513017 
L 362.414545 136.355485 
L 398.487273 136.276855 
" clip-path="url(#pec8f162dbb)" style="fill: none; stroke: #bcbd22; stroke-width: 1.5; stroke-linecap: square"/>
   </g>
   <g id="line2d_39">
    <path d="M 73.832727 140.243155 
L 109.905455 139.998076 
L 145.978182 139.768203 
L 182.050909 139.558378 
L 218.123636 139.372473 
L 254.196364 139.213517 
L 290.269091 139.083825 
L 326.341818 138.985123 
L 362.414545 138.918645 
L 398.487273 138.8852 
" clip-path="url(#pec8f162dbb)" style="fill: none; stroke: #17becf; stroke-width: 1.5; stroke-linecap: square"/>
   </g>
   <g id="line2d_40">
    <path d="M 73.832727 140.32285 
L 109.905455 140.227798 
L 145.978182 140.137287 
L 182.050909 140.053432 
L 218.123636 139.978104 
L 254.196364 139.912907 
L 290.269091 139.859166 
L 326.341818 139.817939 
L 362.414545 139.790016 
L 398.487273 139.775924 
" clip-path="url(#pec8f162dbb)" style="fill: none; stroke: #1f77b4; stroke-width: 1.5; stroke-linecap: square"/>
   </g>
   <g id="line2d_41">
    <path d="M 73.832727 140.325517 
L 109.905455 140.23415 
L 145.978182 140.142918 
L 182.050909 140.051389 
L 218.123636 139.959159 
L 254.196364 139.865843 
L 290.269091 139.771094 
L 326.341818 139.674629 
L 362.414545 139.576276 
L 398.487273 139.476102 
" clip-path="url(#pec8f162dbb)" style="fill: none; stroke: #ff7f0e; stroke-width: 1.5; stroke-linecap: square"/>
   </g>
   <g id="line2d_42">
    <path d="M 73.832727 140.319722 
L 109.905455 140.217128 
L 145.978182 140.11513 
L 182.050909 140.0135 
L 218.123636 139.912057 
L 254.196364 139.810662 
L 290.269091 139.709214 
L 326.341818 139.607651 
L 362.414545 139.505958 
L 398.487273 139.40428 
" clip-path="url(#pec8f162dbb)" style="fill: none; stroke: #2ca02c; stroke-width: 1.5; stroke-linecap: square"/>
   </g>
   <g id="patch_10">
    <path d="M 57.6 142.411034 
L 57.6 96.529655 
" style="fill: none; stroke: #000000; stroke-width: 0.8; stroke-linejoin: miter; stroke-linecap: square"/>
   </g>
   <g id="patch_11">
    <path d="M 414.72 142.411034 
L 414.72 96.529655 
" style="fill: none; stroke: #000000; stroke-width: 0.8; stroke-linejoin: miter; stroke-linecap: square"/>
   </g>
   <g id="patch_12">
    <path d="M 57.6 142.411034 
L 414.72 142.411034 
" style="fill: none; stroke: #000000; stroke-width: 0.8; stroke-linejoin: miter; stroke-linecap: square"/>
   </g>
   <g id="patch_13">
    <path d="M 57.6 96.529655 
L 414.72 96.529655 
" style="fill: none; stroke: #000000; stroke-width: 0.8; stroke-linejoin: miter; stroke-linecap: square"/>
   </g>
   <g id="text_10">
    <!-- Pressure - Container 1 -->
    <g transform="translate(169.523438 93.529655)scale(0.12 -0.12)">
     <defs>
      <path id="DejaVuSans-50" d="M 1259 4147 
L 1259 2394 
L 2053 2394 
Q 2494 2394 2734 2622 
Q 2975 2850 2975 3272 
Q 2975 3691 2734 3919 
Q 2494 4147 2053 4147 
L 1259 4147 
z
M 628 4666 
L 2053 4666 
Q 2838 4666 3239 4311 
Q 3641 3956 3641 3272 
Q 3641 2581 3239 2228 
Q 2838 1875 2053 1875 
L 1259 1875 
L 1259 0 
L 628 0 
L 628 4666 
z
" transform="scale(0.015625)"/>
      <path id="DejaVuSans-75" d="M 544 1381 
L 544 3500 
L 1119 3500 
L 1119 1403 
Q 1119 906 1312 657 
Q 1506 409 1894 409 
Q 2359 409 2629 706 
Q 2900 1003 2900 1516 
L 2900 3500 
L 3475 3500 
L 3475 0 
L 2900 0 
L 2900 538 
Q 2691 219 2414 64 
Q 2138 -91 1772 -91 
Q 1169 -91 856 284 
Q 544 659 544 1381 
z
M 1991 3584 
L 1991 3584 
z
" transform="scale(0.015625)"/>
     </defs>
     <use xlink:href="#DejaVuSans-50"/>
     <use xlink:href="#DejaVuSans-72" x="58.552734"/>
     <use xlink:href="#DejaVuSans-65" x="97.416016"/>
     <use xlink:href="#DejaVuSans-73" x="158.939453"/>
     <use xlink:href="#DejaVuSans-73" x="211.039062"/>
     <use xlink:href="#DejaVuSans-75" x="263.138672"/>
     <use xlink:href="#DejaVuSans-72" x="326.517578"/>
     <use xlink:href="#DejaVuSans-65" x="365.380859"/>
     <use xlink:href="#DejaVuSans-20" x="426.904297"/>
     <use xlink:href="#DejaVuSans-2d" x="458.691406"/>
     <use xlink:href="#DejaVuSans-20" x="494.775391"/>
     <use xlink:href="#DejaVuSans-43" x="526.5625"/>
     <use xlink:href="#DejaVuSans-6f" x="596.386719"/>
     <use xlink:href="#DejaVuSans-6e" x="657.568359"/>
     <use xlink:href="#DejaVuSans-74" x="720.947266"/>
     <use xlink:href="#DejaVuSans-61" x="760.15625"/>
     <use xlink:href="#DejaVuSans-69" x="821.435547"/>
     <use xlink:href="#DejaVuSans-6e" x="849.21875"/>
     <use xlink:href="#DejaVuSans-65" x="912.597656"/>
     <use xlink:href="#DejaVuSans-72" x="974.121094"/>
     <use xlink:href="#DejaVuSans-20" x="1015.234375"/>
     <use xlink:href="#DejaVuSans-31" x="1047.021484"/>
    </g>
   </g>
  </g>
  <g id="axes_4">
   <g id="patch_14">
    <path d="M 57.6 197.46869 
L 414.72 197.46869 
L 414.72 151.58731 
L 57.6 151.58731 
z
" style="fill: #ffffff"/>
   </g>
   <g id="matplotlib.axis_7">
    <g id="xtick_11">
     <g id="line2d_43">
      <g>
       <use xlink:href="#mc64f4afa44" x="73.832727" y="197.46869" style="stroke: #000000; stroke-width: 0.8"/>
      </g>
     </g>
    </g>
    <g id="xtick_12">
     <g id="line2d_44">
      <g>
       <use xlink:href="#mc64f4afa44" x="145.978182" y="197.46869" style="stroke: #000000; stroke-width: 0.8"/>
      </g>
     </g>
    </g>
    <g id="xtick_13">
     <g id="line2d_45">
      <g>
       <use xlink:href="#mc64f4afa44" x="218.123636" y="197.46869" style="stroke: #000000; stroke-width: 0.8"/>
      </g>
     </g>
    </g>
    <g id="xtick_14">
     <g id="line2d_46">
      <g>
       <use xlink:href="#mc64f4afa44" x="290.269091" y="197.46869" style="stroke: #000000; stroke-width: 0.8"/>
      </g>
     </g>
    </g>
    <g id="xtick_15">
     <g id="line2d_47">
      <g>
       <use xlink:href="#mc64f4afa44" x="362.414545" y="197.46869" style="stroke: #000000; stroke-width: 0.8"/>
      </g>
     </g>
    </g>
   </g>
   <g id="matplotlib.axis_8">
    <g id="ytick_7">
     <g id="line2d_48">
      <g>
       <use xlink:href="#mb882660c0f" x="57.6" y="197.267872" style="stroke: #000000; stroke-width: 0.8"/>
      </g>
     </g>
     <g id="text_11">
      <!-- 0.04 -->
      <g transform="translate(28.334375 201.067091)scale(0.1 -0.1)">
       <defs>
        <path id="DejaVuSans-34" d="M 2419 4116 
L 825 1625 
L 2419 1625 
L 2419 4116 
z
M 2253 4666 
L 3047 4666 
L 3047 1625 
L 3713 1625 
L 3713 1100 
L 3047 1100 
L 3047 0 
L 2419 0 
L 2419 1100 
L 313 1100 
L 313 1709 
L 2253 4666 
z
" transform="scale(0.015625)"/>
       </defs>
       <use xlink:href="#DejaVuSans-30"/>
       <use xlink:href="#DejaVuSans-2e" x="63.623047"/>
       <use xlink:href="#DejaVuSans-30" x="95.410156"/>
       <use xlink:href="#DejaVuSans-34" x="159.033203"/>
      </g>
     </g>
    </g>
    <g id="ytick_8">
     <g id="line2d_49">
      <g>
       <use xlink:href="#mb882660c0f" x="57.6" y="159.145354" style="stroke: #000000; stroke-width: 0.8"/>
      </g>
     </g>
     <g id="text_12">
      <!-- 0.06 -->
      <g transform="translate(28.334375 162.944573)scale(0.1 -0.1)">
       <defs>
        <path id="DejaVuSans-36" d="M 2113 2584 
Q 1688 2584 1439 2293 
Q 1191 2003 1191 1497 
Q 1191 994 1439 701 
Q 1688 409 2113 409 
Q 2538 409 2786 701 
Q 3034 994 3034 1497 
Q 3034 2003 2786 2293 
Q 2538 2584 2113 2584 
z
M 3366 4563 
L 3366 3988 
Q 3128 4100 2886 4159 
Q 2644 4219 2406 4219 
Q 1781 4219 1451 3797 
Q 1122 3375 1075 2522 
Q 1259 2794 1537 2939 
Q 1816 3084 2150 3084 
Q 2853 3084 3261 2657 
Q 3669 2231 3669 1497 
Q 3669 778 3244 343 
Q 2819 -91 2113 -91 
Q 1303 -91 875 529 
Q 447 1150 447 2328 
Q 447 3434 972 4092 
Q 1497 4750 2381 4750 
Q 2619 4750 2861 4703 
Q 3103 4656 3366 4563 
z
" transform="scale(0.015625)"/>
       </defs>
       <use xlink:href="#DejaVuSans-30"/>
       <use xlink:href="#DejaVuSans-2e" x="63.623047"/>
       <use xlink:href="#DejaVuSans-30" x="95.410156"/>
       <use xlink:href="#DejaVuSans-36" x="159.033203"/>
      </g>
     </g>
    </g>
   </g>
   <g id="line2d_50">
    <path d="M 73.832727 156.296816 
L 109.905455 159.1924 
L 145.978182 161.305549 
L 182.050909 162.977016 
L 218.123636 164.438459 
L 254.196364 165.800225 
L 290.269091 167.126733 
L 326.341818 168.544728 
L 362.414545 170.70613 
L 398.487273 176.820783 
" clip-path="url(#p37c34b4b90)" style="fill: none; stroke: #1f77b4; stroke-width: 1.5; stroke-linecap: square"/>
   </g>
   <g id="line2d_51">
    <path d="M 73.832727 180.116812 
L 109.905455 182.047552 
L 145.978182 183.833305 
L 182.050909 185.429844 
L 218.123636 186.827242 
L 254.196364 188.034927 
L 290.269091 189.087968 
L 326.341818 190.079975 
L 362.414545 191.407201 
L 398.487273 195.383172 
" clip-path="url(#p37c34b4b90)" style="fill: none; stroke: #ff7f0e; stroke-width: 1.5; stroke-linecap: square"/>
   </g>
   <g id="line2d_52">
    <path d="M 73.832727 179.607654 
L 109.905455 181.429769 
L 145.978182 183.24584 
L 182.050909 184.9134 
L 218.123636 186.390476 
L 254.196364 187.672597 
L 290.269091 188.782667 
L 326.341818 189.791456 
L 362.414545 190.986467 
L 398.487273 193.968806 
" clip-path="url(#p37c34b4b90)" style="fill: none; stroke: #2ca02c; stroke-width: 1.5; stroke-linecap: square"/>
   </g>
   <g id="line2d_53">
    <path d="M 73.832727 174.589142 
L 109.905455 180.094447 
L 145.978182 182.440243 
L 182.050909 184.226524 
L 218.123636 185.786752 
L 254.196364 187.150527 
L 290.269091 188.336096 
L 326.341818 189.400443 
L 362.414545 190.572408 
L 398.487273 193.076428 
" clip-path="url(#p37c34b4b90)" style="fill: none; stroke: #d62728; stroke-width: 1.5; stroke-linecap: square"/>
   </g>
   <g id="line2d_54">
    <path d="M 73.832727 169.71803 
L 109.905455 178.093359 
L 145.978182 181.620523 
L 182.050909 183.706259 
L 218.123636 185.360324 
L 254.196364 186.782525 
L 290.269091 188.017348 
L 326.341818 189.116962 
L 362.414545 190.273409 
L 398.487273 192.475463 
" clip-path="url(#p37c34b4b90)" style="fill: none; stroke: #9467bd; stroke-width: 1.5; stroke-linecap: square"/>
   </g>
   <g id="line2d_55">
    <path d="M 73.832727 160.510867 
L 109.905455 169.277829 
L 145.978182 173.757341 
L 182.050909 176.295283 
L 218.123636 178.046561 
L 254.196364 179.417706 
L 290.269091 180.542489 
L 326.341818 181.488454 
L 362.414545 182.375165 
L 398.487273 183.681406 
" clip-path="url(#p37c34b4b90)" style="fill: none; stroke: #8c564b; stroke-width: 1.5; stroke-linecap: square"/>
   </g>
   <g id="line2d_56">
    <path d="M 73.832727 157.585661 
L 109.905455 166.183386 
L 145.978182 170.838092 
L 182.050909 173.614031 
L 218.123636 175.601188 
L 254.196364 177.226739 
L 290.269091 178.648385 
L 326.341818 179.945306 
L 362.414545 181.229404 
L 398.487273 182.889988 
" clip-path="url(#p37c34b4b90)" style="fill: none; stroke: #e377c2; stroke-width: 1.5; stroke-linecap: square"/>
   </g>
   <g id="line2d_57">
    <path d="M 73.832727 157.373079 
L 109.905455 165.940038 
L 145.978182 170.614124 
L 182.050909 173.413858 
L 218.123636 175.424213 
L 254.196364 177.073711 
L 290.269091 178.521252 
L 326.341818 179.846038 
L 362.414545 181.158666 
L 398.487273 182.837263 
" clip-path="url(#p37c34b4b90)" style="fill: none; stroke: #7f7f7f; stroke-width: 1.5; stroke-linecap: square"/>
   </g>
   <g id="line2d_58">
    <path d="M 73.832727 153.672828 
L 109.905455 158.883494 
L 145.978182 162.495647 
L 182.050909 165.159723 
L 218.123636 167.313778 
L 254.196364 169.161149 
L 290.269091 170.793602 
L 326.341818 172.275002 
L 362.414545 173.708607 
L 398.487273 175.366891 
" clip-path="url(#p37c34b4b90)" style="fill: none; stroke: #bcbd22; stroke-width: 1.5; stroke-linecap: square"/>
   </g>
   <g id="line2d_59">
    <path d="M 73.832727 154.991175 
L 109.905455 158.636805 
L 145.978182 161.217404 
L 182.050909 163.183913 
L 218.123636 164.838496 
L 254.196364 166.318003 
L 290.269091 167.68272 
L 326.341818 168.979931 
L 362.414545 170.298284 
L 398.487273 171.863624 
" clip-path="url(#p37c34b4b90)" style="fill: none; stroke: #17becf; stroke-width: 1.5; stroke-linecap: square"/>
   </g>
   <g id="line2d_60">
    <path d="M 73.832727 155.395195 
L 109.905455 158.556709 
L 145.978182 160.782246 
L 182.050909 162.477732 
L 218.123636 163.915984 
L 254.196364 165.221473 
L 290.269091 166.450286 
L 326.341818 167.648202 
L 362.414545 168.900979 
L 398.487273 170.417327 
" clip-path="url(#p37c34b4b90)" style="fill: none; stroke: #1f77b4; stroke-width: 1.5; stroke-linecap: square"/>
   </g>
   <g id="line2d_61">
    <path d="M 73.832727 155.722722 
L 109.905455 158.768817 
L 145.978182 160.942407 
L 182.050909 162.628006 
L 218.123636 164.085937 
L 254.196364 165.437113 
L 290.269091 166.739905 
L 326.341818 168.054228 
L 362.414545 169.608497 
L 398.487273 173.392794 
" clip-path="url(#p37c34b4b90)" style="fill: none; stroke: #ff7f0e; stroke-width: 1.5; stroke-linecap: square"/>
   </g>
   <g id="line2d_62">
    <path d="M 73.832727 156.104178 
L 109.905455 159.057332 
L 145.978182 161.193927 
L 182.050909 162.871605 
L 218.123636 164.333172 
L 254.196364 165.692504 
L 290.269091 167.010446 
L 326.341818 168.383926 
L 362.414545 170.31033 
L 398.487273 175.758489 
" clip-path="url(#p37c34b4b90)" style="fill: none; stroke: #2ca02c; stroke-width: 1.5; stroke-linecap: square"/>
   </g>
   <g id="patch_15">
    <path d="M 57.6 197.46869 
L 57.6 151.58731 
" style="fill: none; stroke: #000000; stroke-width: 0.8; stroke-linejoin: miter; stroke-linecap: square"/>
   </g>
   <g id="patch_16">
    <path d="M 414.72 197.46869 
L 414.72 151.58731 
" style="fill: none; stroke: #000000; stroke-width: 0.8; stroke-linejoin: miter; stroke-linecap: square"/>
   </g>
   <g id="patch_17">
    <path d="M 57.6 197.46869 
L 414.72 197.46869 
" style="fill: none; stroke: #000000; stroke-width: 0.8; stroke-linejoin: miter; stroke-linecap: square"/>
   </g>
   <g id="patch_18">
    <path d="M 57.6 151.58731 
L 414.72 151.58731 
" style="fill: none; stroke: #000000; stroke-width: 0.8; stroke-linejoin: miter; stroke-linecap: square"/>
   </g>
   <g id="text_13">
    <!-- yA - Container 1 -->
    <g transform="translate(187.48125 148.58731)scale(0.12 -0.12)">
     <defs>
      <path id="DejaVuSans-41" d="M 2188 4044 
L 1331 1722 
L 3047 1722 
L 2188 4044 
z
M 1831 4666 
L 2547 4666 
L 4325 0 
L 3669 0 
L 3244 1197 
L 1141 1197 
L 716 0 
L 50 0 
L 1831 4666 
z
" transform="scale(0.015625)"/>
     </defs>
     <use xlink:href="#DejaVuSans-79"/>
     <use xlink:href="#DejaVuSans-41" x="59.179688"/>
     <use xlink:href="#DejaVuSans-20" x="127.587891"/>
     <use xlink:href="#DejaVuSans-2d" x="159.375"/>
     <use xlink:href="#DejaVuSans-20" x="195.458984"/>
     <use xlink:href="#DejaVuSans-43" x="227.246094"/>
     <use xlink:href="#DejaVuSans-6f" x="297.070312"/>
     <use xlink:href="#DejaVuSans-6e" x="358.251953"/>
     <use xlink:href="#DejaVuSans-74" x="421.630859"/>
     <use xlink:href="#DejaVuSans-61" x="460.839844"/>
     <use xlink:href="#DejaVuSans-69" x="522.119141"/>
     <use xlink:href="#DejaVuSans-6e" x="549.902344"/>
     <use xlink:href="#DejaVuSans-65" x="613.28125"/>
     <use xlink:href="#DejaVuSans-72" x="674.804688"/>
     <use xlink:href="#DejaVuSans-20" x="715.917969"/>
     <use xlink:href="#DejaVuSans-31" x="747.705078"/>
    </g>
   </g>
  </g>
  <g id="axes_5">
   <g id="patch_19">
    <path d="M 57.6 252.526345 
L 414.72 252.526345 
L 414.72 206.644966 
L 57.6 206.644966 
z
" style="fill: #ffffff"/>
   </g>
   <g id="matplotlib.axis_9">
    <g id="xtick_16">
     <g id="line2d_63">
      <g>
       <use xlink:href="#mc64f4afa44" x="73.832727" y="252.526345" style="stroke: #000000; stroke-width: 0.8"/>
      </g>
     </g>
    </g>
    <g id="xtick_17">
     <g id="line2d_64">
      <g>
       <use xlink:href="#mc64f4afa44" x="145.978182" y="252.526345" style="stroke: #000000; stroke-width: 0.8"/>
      </g>
     </g>
    </g>
    <g id="xtick_18">
     <g id="line2d_65">
      <g>
       <use xlink:href="#mc64f4afa44" x="218.123636" y="252.526345" style="stroke: #000000; stroke-width: 0.8"/>
      </g>
     </g>
    </g>
    <g id="xtick_19">
     <g id="line2d_66">
      <g>
       <use xlink:href="#mc64f4afa44" x="290.269091" y="252.526345" style="stroke: #000000; stroke-width: 0.8"/>
      </g>
     </g>
    </g>
    <g id="xtick_20">
     <g id="line2d_67">
      <g>
       <use xlink:href="#mc64f4afa44" x="362.414545" y="252.526345" style="stroke: #000000; stroke-width: 0.8"/>
      </g>
     </g>
    </g>
   </g>
   <g id="matplotlib.axis_10">
    <g id="ytick_9">
     <g id="line2d_68">
      <g>
       <use xlink:href="#mb882660c0f" x="57.6" y="243.446954" style="stroke: #000000; stroke-width: 0.8"/>
      </g>
     </g>
     <g id="text_14">
      <!-- 0.875 -->
      <g transform="translate(21.971875 247.246173)scale(0.1 -0.1)">
       <defs>
        <path id="DejaVuSans-38" d="M 2034 2216 
Q 1584 2216 1326 1975 
Q 1069 1734 1069 1313 
Q 1069 891 1326 650 
Q 1584 409 2034 409 
Q 2484 409 2743 651 
Q 3003 894 3003 1313 
Q 3003 1734 2745 1975 
Q 2488 2216 2034 2216 
z
M 1403 2484 
Q 997 2584 770 2862 
Q 544 3141 544 3541 
Q 544 4100 942 4425 
Q 1341 4750 2034 4750 
Q 2731 4750 3128 4425 
Q 3525 4100 3525 3541 
Q 3525 3141 3298 2862 
Q 3072 2584 2669 2484 
Q 3125 2378 3379 2068 
Q 3634 1759 3634 1313 
Q 3634 634 3220 271 
Q 2806 -91 2034 -91 
Q 1263 -91 848 271 
Q 434 634 434 1313 
Q 434 1759 690 2068 
Q 947 2378 1403 2484 
z
M 1172 3481 
Q 1172 3119 1398 2916 
Q 1625 2713 2034 2713 
Q 2441 2713 2670 2916 
Q 2900 3119 2900 3481 
Q 2900 3844 2670 4047 
Q 2441 4250 2034 4250 
Q 1625 4250 1398 4047 
Q 1172 3844 1172 3481 
z
" transform="scale(0.015625)"/>
        <path id="DejaVuSans-37" d="M 525 4666 
L 3525 4666 
L 3525 4397 
L 1831 0 
L 1172 0 
L 2766 4134 
L 525 4134 
L 525 4666 
z
" transform="scale(0.015625)"/>
       </defs>
       <use xlink:href="#DejaVuSans-30"/>
       <use xlink:href="#DejaVuSans-2e" x="63.623047"/>
       <use xlink:href="#DejaVuSans-38" x="95.410156"/>
       <use xlink:href="#DejaVuSans-37" x="159.033203"/>
       <use xlink:href="#DejaVuSans-35" x="222.65625"/>
      </g>
     </g>
    </g>
    <g id="ytick_10">
     <g id="line2d_69">
      <g>
       <use xlink:href="#mb882660c0f" x="57.6" y="224.880486" style="stroke: #000000; stroke-width: 0.8"/>
      </g>
     </g>
     <g id="text_15">
      <!-- 0.900 -->
      <g transform="translate(21.971875 228.679705)scale(0.1 -0.1)">
       <defs>
        <path id="DejaVuSans-39" d="M 703 97 
L 703 672 
Q 941 559 1184 500 
Q 1428 441 1663 441 
Q 2288 441 2617 861 
Q 2947 1281 2994 2138 
Q 2813 1869 2534 1725 
Q 2256 1581 1919 1581 
Q 1219 1581 811 2004 
Q 403 2428 403 3163 
Q 403 3881 828 4315 
Q 1253 4750 1959 4750 
Q 2769 4750 3195 4129 
Q 3622 3509 3622 2328 
Q 3622 1225 3098 567 
Q 2575 -91 1691 -91 
Q 1453 -91 1209 -44 
Q 966 3 703 97 
z
M 1959 2075 
Q 2384 2075 2632 2365 
Q 2881 2656 2881 3163 
Q 2881 3666 2632 3958 
Q 2384 4250 1959 4250 
Q 1534 4250 1286 3958 
Q 1038 3666 1038 3163 
Q 1038 2656 1286 2365 
Q 1534 2075 1959 2075 
z
" transform="scale(0.015625)"/>
       </defs>
       <use xlink:href="#DejaVuSans-30"/>
       <use xlink:href="#DejaVuSans-2e" x="63.623047"/>
       <use xlink:href="#DejaVuSans-39" x="95.410156"/>
       <use xlink:href="#DejaVuSans-30" x="159.033203"/>
       <use xlink:href="#DejaVuSans-30" x="222.65625"/>
      </g>
     </g>
    </g>
   </g>
   <g id="line2d_70">
    <path d="M 73.832727 248.208388 
L 109.905455 244.416078 
L 145.978182 242.021968 
L 182.050909 240.197397 
L 218.123636 238.614267 
L 254.196364 237.158886 
L 290.269091 235.772 
L 326.341818 234.347018 
L 362.414545 232.381071 
L 398.487273 227.101048 
" clip-path="url(#pc0db6ecbdd)" style="fill: none; stroke: #1f77b4; stroke-width: 1.5; stroke-linecap: square"/>
   </g>
   <g id="line2d_71">
    <path d="M 73.832727 222.838026 
L 109.905455 220.923091 
L 145.978182 219.184729 
L 182.050909 217.647495 
L 218.123636 216.317389 
L 254.196364 215.176053 
L 290.269091 214.180842 
L 326.341818 213.245372 
L 362.414545 212.057053 
L 398.487273 208.730483 
" clip-path="url(#pc0db6ecbdd)" style="fill: none; stroke: #ff7f0e; stroke-width: 1.5; stroke-linecap: square"/>
   </g>
   <g id="line2d_72">
    <path d="M 73.832727 223.21058 
L 109.905455 221.328154 
L 145.978182 219.553814 
L 182.050909 217.963063 
L 218.123636 216.576272 
L 254.196364 215.384962 
L 290.269091 214.35544 
L 326.341818 213.415887 
L 362.414545 212.322533 
L 398.487273 209.674941 
" clip-path="url(#pc0db6ecbdd)" style="fill: none; stroke: #2ca02c; stroke-width: 1.5; stroke-linecap: square"/>
   </g>
   <g id="line2d_73">
    <path d="M 73.832727 227.310468 
L 109.905455 222.339467 
L 145.978182 220.179215 
L 182.050909 218.494538 
L 218.123636 217.037567 
L 254.196364 215.779395 
L 290.269091 214.6903 
L 326.341818 213.707525 
L 362.414545 212.625695 
L 398.487273 210.313016 
" clip-path="url(#pc0db6ecbdd)" style="fill: none; stroke: #d62728; stroke-width: 1.5; stroke-linecap: square"/>
   </g>
   <g id="line2d_74">
    <path d="M 73.832727 231.410474 
L 109.905455 223.765132 
L 145.978182 220.746695 
L 182.050909 218.867715 
L 218.123636 217.345771 
L 254.196364 216.043737 
L 290.269091 214.918389 
L 326.341818 213.911039 
L 362.414545 212.84118 
L 398.487273 210.751181 
" clip-path="url(#pc0db6ecbdd)" style="fill: none; stroke: #9467bd; stroke-width: 1.5; stroke-linecap: square"/>
   </g>
   <g id="line2d_75">
    <path d="M 73.832727 240.514042 
L 109.905455 231.951628 
L 145.978182 228.061181 
L 182.050909 225.845014 
L 218.123636 224.259693 
L 254.196364 223.003234 
L 290.269091 221.977827 
L 326.341818 221.119969 
L 362.414545 220.301836 
L 398.487273 218.960424 
" clip-path="url(#pc0db6ecbdd)" style="fill: none; stroke: #8c564b; stroke-width: 1.5; stroke-linecap: square"/>
   </g>
   <g id="line2d_76">
    <path d="M 73.832727 243.558702 
L 109.905455 234.98445 
L 145.978182 230.867184 
L 182.050909 228.415885 
L 218.123636 226.598068 
L 254.196364 225.084616 
L 290.269091 223.759352 
L 326.341818 222.550539 
L 362.414545 221.335946 
L 398.487273 219.632872 
" clip-path="url(#pc0db6ecbdd)" style="fill: none; stroke: #e377c2; stroke-width: 1.5; stroke-linecap: square"/>
   </g>
   <g id="line2d_77">
    <path d="M 73.832727 243.78439 
L 109.905455 235.222826 
L 145.978182 231.082105 
L 182.050909 228.607508 
L 218.123636 226.766955 
L 254.196364 225.229475 
L 290.269091 223.878166 
L 326.341818 222.641574 
L 362.414545 221.398672 
L 398.487273 219.676712 
" clip-path="url(#pc0db6ecbdd)" style="fill: none; stroke: #7f7f7f; stroke-width: 1.5; stroke-linecap: square"/>
   </g>
   <g id="line2d_78">
    <path d="M 73.832727 250.440828 
L 109.905455 244.188746 
L 145.978182 240.359118 
L 182.050909 237.60135 
L 218.123636 235.368124 
L 254.196364 233.463431 
L 290.269091 231.80092 
L 326.341818 230.308827 
L 362.414545 228.857242 
L 398.487273 227.047417 
" clip-path="url(#pc0db6ecbdd)" style="fill: none; stroke: #bcbd22; stroke-width: 1.5; stroke-linecap: square"/>
   </g>
   <g id="line2d_79">
    <path d="M 73.832727 249.386968 
L 109.905455 244.772154 
L 145.978182 241.929389 
L 182.050909 239.825576 
L 218.123636 238.055564 
L 254.196364 236.484246 
L 290.269091 235.055289 
L 326.341818 233.71349 
L 362.414545 232.34008 
L 398.487273 230.5753 
" clip-path="url(#pc0db6ecbdd)" style="fill: none; stroke: #17becf; stroke-width: 1.5; stroke-linecap: square"/>
   </g>
   <g id="line2d_80">
    <path d="M 73.832727 249.044357 
L 109.905455 244.947761 
L 145.978182 242.455669 
L 182.050909 240.616838 
L 218.123636 239.05772 
L 254.196364 237.653758 
L 290.269091 236.35231 
L 326.341818 235.099667 
L 362.414545 233.778624 
L 398.487273 232.044128 
" clip-path="url(#pc0db6ecbdd)" style="fill: none; stroke: #1f77b4; stroke-width: 1.5; stroke-linecap: square"/>
   </g>
   <g id="line2d_81">
    <path d="M 73.832727 248.742027 
L 109.905455 244.774732 
L 145.978182 242.328386 
L 182.050909 240.494124 
L 218.123636 238.912498 
L 254.196364 237.461361 
L 290.269091 236.085517 
L 326.341818 234.720435 
L 362.414545 233.151959 
L 398.487273 229.695741 
" clip-path="url(#pc0db6ecbdd)" style="fill: none; stroke: #ff7f0e; stroke-width: 1.5; stroke-linecap: square"/>
   </g>
   <g id="line2d_82">
    <path d="M 73.832727 248.386104 
L 109.905455 244.52639 
L 145.978182 242.110684 
L 182.050909 240.279462 
L 218.123636 238.692796 
L 254.196364 237.234278 
L 290.269091 235.846862 
L 326.341818 234.442256 
L 362.414545 232.624285 
L 398.487273 227.872947 
" clip-path="url(#pc0db6ecbdd)" style="fill: none; stroke: #2ca02c; stroke-width: 1.5; stroke-linecap: square"/>
   </g>
   <g id="patch_20">
    <path d="M 57.6 252.526345 
L 57.6 206.644966 
" style="fill: none; stroke: #000000; stroke-width: 0.8; stroke-linejoin: miter; stroke-linecap: square"/>
   </g>
   <g id="patch_21">
    <path d="M 414.72 252.526345 
L 414.72 206.644966 
" style="fill: none; stroke: #000000; stroke-width: 0.8; stroke-linejoin: miter; stroke-linecap: square"/>
   </g>
   <g id="patch_22">
    <path d="M 57.6 252.526345 
L 414.72 252.526345 
" style="fill: none; stroke: #000000; stroke-width: 0.8; stroke-linejoin: miter; stroke-linecap: square"/>
   </g>
   <g id="patch_23">
    <path d="M 57.6 206.644966 
L 414.72 206.644966 
" style="fill: none; stroke: #000000; stroke-width: 0.8; stroke-linejoin: miter; stroke-linecap: square"/>
   </g>
   <g id="text_16">
    <!-- yB - Container 1 -->
    <g transform="translate(187.469063 203.644966)scale(0.12 -0.12)">
     <defs>
      <path id="DejaVuSans-42" d="M 1259 2228 
L 1259 519 
L 2272 519 
Q 2781 519 3026 730 
Q 3272 941 3272 1375 
Q 3272 1813 3026 2020 
Q 2781 2228 2272 2228 
L 1259 2228 
z
M 1259 4147 
L 1259 2741 
L 2194 2741 
Q 2656 2741 2882 2914 
Q 3109 3088 3109 3444 
Q 3109 3797 2882 3972 
Q 2656 4147 2194 4147 
L 1259 4147 
z
M 628 4666 
L 2241 4666 
Q 2963 4666 3353 4366 
Q 3744 4066 3744 3513 
Q 3744 3084 3544 2831 
Q 3344 2578 2956 2516 
Q 3422 2416 3680 2098 
Q 3938 1781 3938 1306 
Q 3938 681 3513 340 
Q 3088 0 2303 0 
L 628 0 
L 628 4666 
z
" transform="scale(0.015625)"/>
     </defs>
     <use xlink:href="#DejaVuSans-79"/>
     <use xlink:href="#DejaVuSans-42" x="59.179688"/>
     <use xlink:href="#DejaVuSans-20" x="127.783203"/>
     <use xlink:href="#DejaVuSans-2d" x="159.570312"/>
     <use xlink:href="#DejaVuSans-20" x="195.654297"/>
     <use xlink:href="#DejaVuSans-43" x="227.441406"/>
     <use xlink:href="#DejaVuSans-6f" x="297.265625"/>
     <use xlink:href="#DejaVuSans-6e" x="358.447266"/>
     <use xlink:href="#DejaVuSans-74" x="421.826172"/>
     <use xlink:href="#DejaVuSans-61" x="461.035156"/>
     <use xlink:href="#DejaVuSans-69" x="522.314453"/>
     <use xlink:href="#DejaVuSans-6e" x="550.097656"/>
     <use xlink:href="#DejaVuSans-65" x="613.476562"/>
     <use xlink:href="#DejaVuSans-72" x="675"/>
     <use xlink:href="#DejaVuSans-20" x="716.113281"/>
     <use xlink:href="#DejaVuSans-31" x="747.900391"/>
    </g>
   </g>
  </g>
  <g id="axes_6">
   <g id="patch_24">
    <path d="M 57.6 307.584 
L 414.72 307.584 
L 414.72 261.702621 
L 57.6 261.702621 
z
" style="fill: #ffffff"/>
   </g>
   <g id="matplotlib.axis_11">
    <g id="xtick_21">
     <g id="line2d_83">
      <g>
       <use xlink:href="#mc64f4afa44" x="73.832727" y="307.584" style="stroke: #000000; stroke-width: 0.8"/>
      </g>
     </g>
     <g id="text_17">
      <!-- 0 -->
      <g transform="translate(70.651477 322.182437)scale(0.1 -0.1)">
       <use xlink:href="#DejaVuSans-30"/>
      </g>
     </g>
    </g>
    <g id="xtick_22">
     <g id="line2d_84">
      <g>
       <use xlink:href="#mc64f4afa44" x="145.978182" y="307.584" style="stroke: #000000; stroke-width: 0.8"/>
      </g>
     </g>
     <g id="text_18">
      <!-- 2 -->
      <g transform="translate(142.796932 322.182437)scale(0.1 -0.1)">
       <defs>
        <path id="DejaVuSans-32" d="M 1228 531 
L 3431 531 
L 3431 0 
L 469 0 
L 469 531 
Q 828 903 1448 1529 
Q 2069 2156 2228 2338 
Q 2531 2678 2651 2914 
Q 2772 3150 2772 3378 
Q 2772 3750 2511 3984 
Q 2250 4219 1831 4219 
Q 1534 4219 1204 4116 
Q 875 4013 500 3803 
L 500 4441 
Q 881 4594 1212 4672 
Q 1544 4750 1819 4750 
Q 2544 4750 2975 4387 
Q 3406 4025 3406 3419 
Q 3406 3131 3298 2873 
Q 3191 2616 2906 2266 
Q 2828 2175 2409 1742 
Q 1991 1309 1228 531 
z
" transform="scale(0.015625)"/>
       </defs>
       <use xlink:href="#DejaVuSans-32"/>
      </g>
     </g>
    </g>
    <g id="xtick_23">
     <g id="line2d_85">
      <g>
       <use xlink:href="#mc64f4afa44" x="218.123636" y="307.584" style="stroke: #000000; stroke-width: 0.8"/>
      </g>
     </g>
     <g id="text_19">
      <!-- 4 -->
      <g transform="translate(214.942386 322.182437)scale(0.1 -0.1)">
       <use xlink:href="#DejaVuSans-34"/>
      </g>
     </g>
    </g>
    <g id="xtick_24">
     <g id="line2d_86">
      <g>
       <use xlink:href="#mc64f4afa44" x="290.269091" y="307.584" style="stroke: #000000; stroke-width: 0.8"/>
      </g>
     </g>
     <g id="text_20">
      <!-- 6 -->
      <g transform="translate(287.087841 322.182437)scale(0.1 -0.1)">
       <use xlink:href="#DejaVuSans-36"/>
      </g>
     </g>
    </g>
    <g id="xtick_25">
     <g id="line2d_87">
      <g>
       <use xlink:href="#mc64f4afa44" x="362.414545" y="307.584" style="stroke: #000000; stroke-width: 0.8"/>
      </g>
     </g>
     <g id="text_21">
      <!-- 8 -->
      <g transform="translate(359.233295 322.182437)scale(0.1 -0.1)">
       <use xlink:href="#DejaVuSans-38"/>
      </g>
     </g>
    </g>
    <g id="text_22">
     <!-- position z -->
     <g transform="translate(212.142031 335.860562)scale(0.1 -0.1)">
      <defs>
       <path id="DejaVuSans-70" d="M 1159 525 
L 1159 -1331 
L 581 -1331 
L 581 3500 
L 1159 3500 
L 1159 2969 
Q 1341 3281 1617 3432 
Q 1894 3584 2278 3584 
Q 2916 3584 3314 3078 
Q 3713 2572 3713 1747 
Q 3713 922 3314 415 
Q 2916 -91 2278 -91 
Q 1894 -91 1617 61 
Q 1341 213 1159 525 
z
M 3116 1747 
Q 3116 2381 2855 2742 
Q 2594 3103 2138 3103 
Q 1681 3103 1420 2742 
Q 1159 2381 1159 1747 
Q 1159 1113 1420 752 
Q 1681 391 2138 391 
Q 2594 391 2855 752 
Q 3116 1113 3116 1747 
z
" transform="scale(0.015625)"/>
      </defs>
      <use xlink:href="#DejaVuSans-70"/>
      <use xlink:href="#DejaVuSans-6f" x="63.476562"/>
      <use xlink:href="#DejaVuSans-73" x="124.658203"/>
      <use xlink:href="#DejaVuSans-69" x="176.757812"/>
      <use xlink:href="#DejaVuSans-74" x="204.541016"/>
      <use xlink:href="#DejaVuSans-69" x="243.75"/>
      <use xlink:href="#DejaVuSans-6f" x="271.533203"/>
      <use xlink:href="#DejaVuSans-6e" x="332.714844"/>
      <use xlink:href="#DejaVuSans-20" x="396.09375"/>
      <use xlink:href="#DejaVuSans-7a" x="427.880859"/>
     </g>
    </g>
   </g>
   <g id="matplotlib.axis_12">
    <g id="ytick_11">
     <g id="line2d_88">
      <g>
       <use xlink:href="#mb882660c0f" x="57.6" y="302.170415" style="stroke: #000000; stroke-width: 0.8"/>
      </g>
     </g>
     <g id="text_23">
      <!-- 0.04 -->
      <g transform="translate(28.334375 305.969634)scale(0.1 -0.1)">
       <use xlink:href="#DejaVuSans-30"/>
       <use xlink:href="#DejaVuSans-2e" x="63.623047"/>
       <use xlink:href="#DejaVuSans-30" x="95.410156"/>
       <use xlink:href="#DejaVuSans-34" x="159.033203"/>
      </g>
     </g>
    </g>
    <g id="ytick_12">
     <g id="line2d_89">
      <g>
       <use xlink:href="#mb882660c0f" x="57.6" y="277.836505" style="stroke: #000000; stroke-width: 0.8"/>
      </g>
     </g>
     <g id="text_24">
      <!-- 0.06 -->
      <g transform="translate(28.334375 281.635724)scale(0.1 -0.1)">
       <use xlink:href="#DejaVuSans-30"/>
       <use xlink:href="#DejaVuSans-2e" x="63.623047"/>
       <use xlink:href="#DejaVuSans-30" x="95.410156"/>
       <use xlink:href="#DejaVuSans-36" x="159.033203"/>
      </g>
     </g>
    </g>
   </g>
   <g id="line2d_90">
    <path d="M 73.832727 265.77063 
L 109.905455 270.135286 
L 145.978182 272.708707 
L 182.050909 274.630987 
L 218.123636 276.291773 
L 254.196364 277.806893 
L 290.269091 279.232304 
L 326.341818 280.661729 
L 362.414545 282.502894 
L 398.487273 287.250106 
" clip-path="url(#p1a9ea15dfe)" style="fill: none; stroke: #1f77b4; stroke-width: 1.5; stroke-linecap: square"/>
   </g>
   <g id="line2d_91">
    <path d="M 73.832727 292.130322 
L 109.905455 294.035146 
L 145.978182 295.74324 
L 182.050909 297.242603 
L 218.123636 298.529738 
L 254.196364 299.628701 
L 290.269091 300.587004 
L 326.341818 301.486373 
L 362.414545 302.585936 
L 398.487273 305.498483 
" clip-path="url(#p1a9ea15dfe)" style="fill: none; stroke: #ff7f0e; stroke-width: 1.5; stroke-linecap: square"/>
   </g>
   <g id="line2d_92">
    <path d="M 73.832727 291.844967 
L 109.905455 293.765868 
L 145.978182 295.513553 
L 182.050909 297.055258 
L 218.123636 298.384403 
L 254.196364 299.517735 
L 290.269091 300.495831 
L 326.341818 301.391179 
L 362.414545 302.419626 
L 398.487273 304.853531 
" clip-path="url(#p1a9ea15dfe)" style="fill: none; stroke: #2ca02c; stroke-width: 1.5; stroke-linecap: square"/>
   </g>
   <g id="line2d_93">
    <path d="M 73.832727 288.331489 
L 109.905455 292.961384 
L 145.978182 295.003178 
L 182.050909 296.622982 
L 218.123636 298.014027 
L 254.196364 299.204778 
L 290.269091 300.23228 
L 326.341818 301.162977 
L 362.414545 302.187261 
L 398.487273 304.37778 
" clip-path="url(#p1a9ea15dfe)" style="fill: none; stroke: #d62728; stroke-width: 1.5; stroke-linecap: square"/>
   </g>
   <g id="line2d_94">
    <path d="M 73.832727 284.723732 
L 109.905455 291.903032 
L 145.978182 294.596712 
L 182.050909 296.343697 
L 218.123636 297.78129 
L 254.196364 299.006605 
L 290.269091 300.062062 
L 326.341818 301.010508 
L 362.414545 302.025085 
L 398.487273 304.043536 
" clip-path="url(#p1a9ea15dfe)" style="fill: none; stroke: #9467bd; stroke-width: 1.5; stroke-linecap: square"/>
   </g>
   <g id="line2d_95">
    <path d="M 73.832727 275.68639 
L 109.905455 284.118145 
L 145.978182 287.632544 
L 182.050909 289.643295 
L 218.123636 291.122666 
L 254.196364 292.305907 
L 290.269091 293.26787 
L 326.341818 294.069479 
L 362.414545 294.843829 
L 398.487273 296.207676 
" clip-path="url(#p1a9ea15dfe)" style="fill: none; stroke: #8c564b; stroke-width: 1.5; stroke-linecap: square"/>
   </g>
   <g id="line2d_96">
    <path d="M 73.832727 272.565517 
L 109.905455 281.12469 
L 145.978182 284.898859 
L 182.050909 287.142909 
L 218.123636 288.852615 
L 254.196364 290.294496 
L 290.269091 291.558225 
L 326.341818 292.710783 
L 362.414545 293.880998 
L 398.487273 295.611175 
" clip-path="url(#p1a9ea15dfe)" style="fill: none; stroke: #e377c2; stroke-width: 1.5; stroke-linecap: square"/>
   </g>
   <g id="line2d_97">
    <path d="M 73.832727 272.331465 
L 109.905455 280.88949 
L 145.978182 284.689714 
L 182.050909 286.956745 
L 218.123636 288.688893 
L 254.196364 290.154853 
L 290.269091 291.444723 
L 326.341818 292.625004 
L 362.414545 293.823386 
L 398.487273 295.573006 
" clip-path="url(#p1a9ea15dfe)" style="fill: none; stroke: #7f7f7f; stroke-width: 1.5; stroke-linecap: square"/>
   </g>
   <g id="line2d_98">
    <path d="M 73.832727 263.788138 
L 109.905455 270.704923 
L 145.978182 274.673297 
L 182.050909 277.490844 
L 218.123636 279.774579 
L 254.196364 281.715841 
L 290.269091 283.397519 
L 326.341818 284.896421 
L 362.414545 286.359466 
L 398.487273 288.266001 
" clip-path="url(#p1a9ea15dfe)" style="fill: none; stroke: #bcbd22; stroke-width: 1.5; stroke-linecap: square"/>
   </g>
   <g id="line2d_99">
    <path d="M 73.832727 264.673204 
L 109.905455 269.906466 
L 145.978182 272.916656 
L 182.050909 275.108074 
L 218.123636 276.951748 
L 254.196364 278.581651 
L 290.269091 280.051598 
L 326.341818 281.421843 
L 362.414545 282.830381 
L 398.487273 284.722446 
" clip-path="url(#p1a9ea15dfe)" style="fill: none; stroke: #17becf; stroke-width: 1.5; stroke-linecap: square"/>
   </g>
   <g id="line2d_100">
    <path d="M 73.832727 264.976617 
L 109.905455 269.669888 
L 145.978182 272.332218 
L 182.050909 274.262514 
L 218.123636 275.898766 
L 254.196364 277.365568 
L 290.269091 278.713365 
L 326.341818 280.000926 
L 362.414545 281.36553 
L 398.487273 283.239252 
" clip-path="url(#p1a9ea15dfe)" style="fill: none; stroke: #1f77b4; stroke-width: 1.5; stroke-linecap: square"/>
   </g>
   <g id="line2d_101">
    <path d="M 73.832727 265.262819 
L 109.905455 269.818081 
L 145.978182 272.438501 
L 182.050909 274.367636 
L 218.123636 276.028199 
L 254.196364 277.543127 
L 290.269091 278.965585 
L 326.341818 280.363052 
L 362.414545 281.940579 
L 398.487273 285.187342 
" clip-path="url(#p1a9ea15dfe)" style="fill: none; stroke: #ff7f0e; stroke-width: 1.5; stroke-linecap: square"/>
   </g>
   <g id="line2d_102">
    <path d="M 73.832727 265.60244 
L 109.905455 270.040777 
L 145.978182 272.634614 
L 182.050909 274.563824 
L 218.123636 276.230325 
L 254.196364 277.752138 
L 290.269091 279.183884 
L 326.341818 280.608343 
L 362.414545 282.35708 
L 398.487273 286.663578 
" clip-path="url(#p1a9ea15dfe)" style="fill: none; stroke: #2ca02c; stroke-width: 1.5; stroke-linecap: square"/>
   </g>
   <g id="patch_25">
    <path d="M 57.6 307.584 
L 57.6 261.702621 
" style="fill: none; stroke: #000000; stroke-width: 0.8; stroke-linejoin: miter; stroke-linecap: square"/>
   </g>
   <g id="patch_26">
    <path d="M 414.72 307.584 
L 414.72 261.702621 
" style="fill: none; stroke: #000000; stroke-width: 0.8; stroke-linejoin: miter; stroke-linecap: square"/>
   </g>
   <g id="patch_27">
    <path d="M 57.6 307.584 
L 414.72 307.584 
" style="fill: none; stroke: #000000; stroke-width: 0.8; stroke-linejoin: miter; stroke-linecap: square"/>
   </g>
   <g id="patch_28">
    <path d="M 57.6 261.702621 
L 414.72 261.702621 
" style="fill: none; stroke: #000000; stroke-width: 0.8; stroke-linejoin: miter; stroke-linecap: square"/>
   </g>
   <g id="text_25">
    <!-- yC - Container 1 -->
    <g transform="translate(187.395938 258.702621)scale(0.12 -0.12)">
     <use xlink:href="#DejaVuSans-79"/>
     <use xlink:href="#DejaVuSans-43" x="59.179688"/>
     <use xlink:href="#DejaVuSans-20" x="129.003906"/>
     <use xlink:href="#DejaVuSans-2d" x="160.791016"/>
     <use xlink:href="#DejaVuSans-20" x="196.875"/>
     <use xlink:href="#DejaVuSans-43" x="228.662109"/>
     <use xlink:href="#DejaVuSans-6f" x="298.486328"/>
     <use xlink:href="#DejaVuSans-6e" x="359.667969"/>
     <use xlink:href="#DejaVuSans-74" x="423.046875"/>
     <use xlink:href="#DejaVuSans-61" x="462.255859"/>
     <use xlink:href="#DejaVuSans-69" x="523.535156"/>
     <use xlink:href="#DejaVuSans-6e" x="551.318359"/>
     <use xlink:href="#DejaVuSans-65" x="614.697266"/>
     <use xlink:href="#DejaVuSans-72" x="676.220703"/>
     <use xlink:href="#DejaVuSans-20" x="717.333984"/>
     <use xlink:href="#DejaVuSans-31" x="749.121094"/>
    </g>
   </g>
  </g>
  <g id="legend_1">
   <g id="patch_29">
    <path d="M 365.784375 269.707812 
L 457.8 269.707812 
Q 459.8 269.707812 459.8 267.707812 
L 459.8 77.892187 
Q 459.8 75.892187 457.8 75.892187 
L 365.784375 75.892187 
Q 363.784375 75.892187 363.784375 77.892187 
L 363.784375 267.707812 
Q 363.784375 269.707812 365.784375 269.707812 
z
" style="fill: #ffffff; opacity: 0.8; stroke: #cccccc; stroke-linejoin: miter"/>
   </g>
   <g id="line2d_103">
    <path d="M 367.784375 83.990625 
L 377.784375 83.990625 
L 387.784375 83.990625 
" style="fill: none; stroke: #1f77b4; stroke-width: 1.5; stroke-linecap: square"/>
   </g>
   <g id="text_26">
    <!-- t=0.0000 -->
    <g transform="translate(395.784375 87.490625)scale(0.1 -0.1)">
     <defs>
      <path id="DejaVuSans-3d" d="M 678 2906 
L 4684 2906 
L 4684 2381 
L 678 2381 
L 678 2906 
z
M 678 1631 
L 4684 1631 
L 4684 1100 
L 678 1100 
L 678 1631 
z
" transform="scale(0.015625)"/>
     </defs>
     <use xlink:href="#DejaVuSans-74"/>
     <use xlink:href="#DejaVuSans-3d" x="39.208984"/>
     <use xlink:href="#DejaVuSans-30" x="122.998047"/>
     <use xlink:href="#DejaVuSans-2e" x="186.621094"/>
     <use xlink:href="#DejaVuSans-30" x="218.408203"/>
     <use xlink:href="#DejaVuSans-30" x="282.03125"/>
     <use xlink:href="#DejaVuSans-30" x="345.654297"/>
     <use xlink:href="#DejaVuSans-30" x="409.277344"/>
    </g>
   </g>
   <g id="line2d_104">
    <path d="M 367.784375 98.66875 
L 377.784375 98.66875 
L 387.784375 98.66875 
" style="fill: none; stroke: #ff7f0e; stroke-width: 1.5; stroke-linecap: square"/>
   </g>
   <g id="text_27">
    <!-- t=12.8000 -->
    <g transform="translate(395.784375 102.16875)scale(0.1 -0.1)">
     <use xlink:href="#DejaVuSans-74"/>
     <use xlink:href="#DejaVuSans-3d" x="39.208984"/>
     <use xlink:href="#DejaVuSans-31" x="122.998047"/>
     <use xlink:href="#DejaVuSans-32" x="186.621094"/>
     <use xlink:href="#DejaVuSans-2e" x="250.244141"/>
     <use xlink:href="#DejaVuSans-38" x="282.03125"/>
     <use xlink:href="#DejaVuSans-30" x="345.654297"/>
     <use xlink:href="#DejaVuSans-30" x="409.277344"/>
     <use xlink:href="#DejaVuSans-30" x="472.900391"/>
    </g>
   </g>
   <g id="line2d_105">
    <path d="M 367.784375 113.346875 
L 377.784375 113.346875 
L 387.784375 113.346875 
" style="fill: none; stroke: #2ca02c; stroke-width: 1.5; stroke-linecap: square"/>
   </g>
   <g id="text_28">
    <!-- t=25.6000 -->
    <g transform="translate(395.784375 116.846875)scale(0.1 -0.1)">
     <use xlink:href="#DejaVuSans-74"/>
     <use xlink:href="#DejaVuSans-3d" x="39.208984"/>
     <use xlink:href="#DejaVuSans-32" x="122.998047"/>
     <use xlink:href="#DejaVuSans-35" x="186.621094"/>
     <use xlink:href="#DejaVuSans-2e" x="250.244141"/>
     <use xlink:href="#DejaVuSans-36" x="282.03125"/>
     <use xlink:href="#DejaVuSans-30" x="345.654297"/>
     <use xlink:href="#DejaVuSans-30" x="409.277344"/>
     <use xlink:href="#DejaVuSans-30" x="472.900391"/>
    </g>
   </g>
   <g id="line2d_106">
    <path d="M 367.784375 128.025 
L 377.784375 128.025 
L 387.784375 128.025 
" style="fill: none; stroke: #d62728; stroke-width: 1.5; stroke-linecap: square"/>
   </g>
   <g id="text_29">
    <!-- t=38.4000 -->
    <g transform="translate(395.784375 131.525)scale(0.1 -0.1)">
     <defs>
      <path id="DejaVuSans-33" d="M 2597 2516 
Q 3050 2419 3304 2112 
Q 3559 1806 3559 1356 
Q 3559 666 3084 287 
Q 2609 -91 1734 -91 
Q 1441 -91 1130 -33 
Q 819 25 488 141 
L 488 750 
Q 750 597 1062 519 
Q 1375 441 1716 441 
Q 2309 441 2620 675 
Q 2931 909 2931 1356 
Q 2931 1769 2642 2001 
Q 2353 2234 1838 2234 
L 1294 2234 
L 1294 2753 
L 1863 2753 
Q 2328 2753 2575 2939 
Q 2822 3125 2822 3475 
Q 2822 3834 2567 4026 
Q 2313 4219 1838 4219 
Q 1578 4219 1281 4162 
Q 984 4106 628 3988 
L 628 4550 
Q 988 4650 1302 4700 
Q 1616 4750 1894 4750 
Q 2613 4750 3031 4423 
Q 3450 4097 3450 3541 
Q 3450 3153 3228 2886 
Q 3006 2619 2597 2516 
z
" transform="scale(0.015625)"/>
     </defs>
     <use xlink:href="#DejaVuSans-74"/>
     <use xlink:href="#DejaVuSans-3d" x="39.208984"/>
     <use xlink:href="#DejaVuSans-33" x="122.998047"/>
     <use xlink:href="#DejaVuSans-38" x="186.621094"/>
     <use xlink:href="#DejaVuSans-2e" x="250.244141"/>
     <use xlink:href="#DejaVuSans-34" x="282.03125"/>
     <use xlink:href="#DejaVuSans-30" x="345.654297"/>
     <use xlink:href="#DejaVuSans-30" x="409.277344"/>
     <use xlink:href="#DejaVuSans-30" x="472.900391"/>
    </g>
   </g>
   <g id="line2d_107">
    <path d="M 367.784375 142.703125 
L 377.784375 142.703125 
L 387.784375 142.703125 
" style="fill: none; stroke: #9467bd; stroke-width: 1.5; stroke-linecap: square"/>
   </g>
   <g id="text_30">
    <!-- t=51.2000 -->
    <g transform="translate(395.784375 146.203125)scale(0.1 -0.1)">
     <use xlink:href="#DejaVuSans-74"/>
     <use xlink:href="#DejaVuSans-3d" x="39.208984"/>
     <use xlink:href="#DejaVuSans-35" x="122.998047"/>
     <use xlink:href="#DejaVuSans-31" x="186.621094"/>
     <use xlink:href="#DejaVuSans-2e" x="250.244141"/>
     <use xlink:href="#DejaVuSans-32" x="282.03125"/>
     <use xlink:href="#DejaVuSans-30" x="345.654297"/>
     <use xlink:href="#DejaVuSans-30" x="409.277344"/>
     <use xlink:href="#DejaVuSans-30" x="472.900391"/>
    </g>
   </g>
   <g id="line2d_108">
    <path d="M 367.784375 157.38125 
L 377.784375 157.38125 
L 387.784375 157.38125 
" style="fill: none; stroke: #8c564b; stroke-width: 1.5; stroke-linecap: square"/>
   </g>
   <g id="text_31">
    <!-- t=64.0000 -->
    <g transform="translate(395.784375 160.88125)scale(0.1 -0.1)">
     <use xlink:href="#DejaVuSans-74"/>
     <use xlink:href="#DejaVuSans-3d" x="39.208984"/>
     <use xlink:href="#DejaVuSans-36" x="122.998047"/>
     <use xlink:href="#DejaVuSans-34" x="186.621094"/>
     <use xlink:href="#DejaVuSans-2e" x="250.244141"/>
     <use xlink:href="#DejaVuSans-30" x="282.03125"/>
     <use xlink:href="#DejaVuSans-30" x="345.654297"/>
     <use xlink:href="#DejaVuSans-30" x="409.277344"/>
     <use xlink:href="#DejaVuSans-30" x="472.900391"/>
    </g>
   </g>
   <g id="line2d_109">
    <path d="M 367.784375 172.059375 
L 377.784375 172.059375 
L 387.784375 172.059375 
" style="fill: none; stroke: #e377c2; stroke-width: 1.5; stroke-linecap: square"/>
   </g>
   <g id="text_32">
    <!-- t=76.8000 -->
    <g transform="translate(395.784375 175.559375)scale(0.1 -0.1)">
     <use xlink:href="#DejaVuSans-74"/>
     <use xlink:href="#DejaVuSans-3d" x="39.208984"/>
     <use xlink:href="#DejaVuSans-37" x="122.998047"/>
     <use xlink:href="#DejaVuSans-36" x="186.621094"/>
     <use xlink:href="#DejaVuSans-2e" x="250.244141"/>
     <use xlink:href="#DejaVuSans-38" x="282.03125"/>
     <use xlink:href="#DejaVuSans-30" x="345.654297"/>
     <use xlink:href="#DejaVuSans-30" x="409.277344"/>
     <use xlink:href="#DejaVuSans-30" x="472.900391"/>
    </g>
   </g>
   <g id="line2d_110">
    <path d="M 367.784375 186.7375 
L 377.784375 186.7375 
L 387.784375 186.7375 
" style="fill: none; stroke: #7f7f7f; stroke-width: 1.5; stroke-linecap: square"/>
   </g>
   <g id="text_33">
    <!-- t=89.6000 -->
    <g transform="translate(395.784375 190.2375)scale(0.1 -0.1)">
     <use xlink:href="#DejaVuSans-74"/>
     <use xlink:href="#DejaVuSans-3d" x="39.208984"/>
     <use xlink:href="#DejaVuSans-38" x="122.998047"/>
     <use xlink:href="#DejaVuSans-39" x="186.621094"/>
     <use xlink:href="#DejaVuSans-2e" x="250.244141"/>
     <use xlink:href="#DejaVuSans-36" x="282.03125"/>
     <use xlink:href="#DejaVuSans-30" x="345.654297"/>
     <use xlink:href="#DejaVuSans-30" x="409.277344"/>
     <use xlink:href="#DejaVuSans-30" x="472.900391"/>
    </g>
   </g>
   <g id="line2d_111">
    <path d="M 367.784375 201.415625 
L 377.784375 201.415625 
L 387.784375 201.415625 
" style="fill: none; stroke: #bcbd22; stroke-width: 1.5; stroke-linecap: square"/>
   </g>
   <g id="text_34">
    <!-- t=102.4000 -->
    <g transform="translate(395.784375 204.915625)scale(0.1 -0.1)">
     <use xlink:href="#DejaVuSans-74"/>
     <use xlink:href="#DejaVuSans-3d" x="39.208984"/>
     <use xlink:href="#DejaVuSans-31" x="122.998047"/>
     <use xlink:href="#DejaVuSans-30" x="186.621094"/>
     <use xlink:href="#DejaVuSans-32" x="250.244141"/>
     <use xlink:href="#DejaVuSans-2e" x="313.867188"/>
     <use xlink:href="#DejaVuSans-34" x="345.654297"/>
     <use xlink:href="#DejaVuSans-30" x="409.277344"/>
     <use xlink:href="#DejaVuSans-30" x="472.900391"/>
     <use xlink:href="#DejaVuSans-30" x="536.523438"/>
    </g>
   </g>
   <g id="line2d_112">
    <path d="M 367.784375 216.09375 
L 377.784375 216.09375 
L 387.784375 216.09375 
" style="fill: none; stroke: #17becf; stroke-width: 1.5; stroke-linecap: square"/>
   </g>
   <g id="text_35">
    <!-- t=115.2000 -->
    <g transform="translate(395.784375 219.59375)scale(0.1 -0.1)">
     <use xlink:href="#DejaVuSans-74"/>
     <use xlink:href="#DejaVuSans-3d" x="39.208984"/>
     <use xlink:href="#DejaVuSans-31" x="122.998047"/>
     <use xlink:href="#DejaVuSans-31" x="186.621094"/>
     <use xlink:href="#DejaVuSans-35" x="250.244141"/>
     <use xlink:href="#DejaVuSans-2e" x="313.867188"/>
     <use xlink:href="#DejaVuSans-32" x="345.654297"/>
     <use xlink:href="#DejaVuSans-30" x="409.277344"/>
     <use xlink:href="#DejaVuSans-30" x="472.900391"/>
     <use xlink:href="#DejaVuSans-30" x="536.523438"/>
    </g>
   </g>
   <g id="line2d_113">
    <path d="M 367.784375 230.771875 
L 377.784375 230.771875 
L 387.784375 230.771875 
" style="fill: none; stroke: #1f77b4; stroke-width: 1.5; stroke-linecap: square"/>
   </g>
   <g id="text_36">
    <!-- t=128.0000 -->
    <g transform="translate(395.784375 234.271875)scale(0.1 -0.1)">
     <use xlink:href="#DejaVuSans-74"/>
     <use xlink:href="#DejaVuSans-3d" x="39.208984"/>
     <use xlink:href="#DejaVuSans-31" x="122.998047"/>
     <use xlink:href="#DejaVuSans-32" x="186.621094"/>
     <use xlink:href="#DejaVuSans-38" x="250.244141"/>
     <use xlink:href="#DejaVuSans-2e" x="313.867188"/>
     <use xlink:href="#DejaVuSans-30" x="345.654297"/>
     <use xlink:href="#DejaVuSans-30" x="409.277344"/>
     <use xlink:href="#DejaVuSans-30" x="472.900391"/>
     <use xlink:href="#DejaVuSans-30" x="536.523438"/>
    </g>
   </g>
   <g id="line2d_114">
    <path d="M 367.784375 245.45 
L 377.784375 245.45 
L 387.784375 245.45 
" style="fill: none; stroke: #ff7f0e; stroke-width: 1.5; stroke-linecap: square"/>
   </g>
   <g id="text_37">
    <!-- t=140.8000 -->
    <g transform="translate(395.784375 248.95)scale(0.1 -0.1)">
     <use xlink:href="#DejaVuSans-74"/>
     <use xlink:href="#DejaVuSans-3d" x="39.208984"/>
     <use xlink:href="#DejaVuSans-31" x="122.998047"/>
     <use xlink:href="#DejaVuSans-34" x="186.621094"/>
     <use xlink:href="#DejaVuSans-30" x="250.244141"/>
     <use xlink:href="#DejaVuSans-2e" x="313.867188"/>
     <use xlink:href="#DejaVuSans-38" x="345.654297"/>
     <use xlink:href="#DejaVuSans-30" x="409.277344"/>
     <use xlink:href="#DejaVuSans-30" x="472.900391"/>
     <use xlink:href="#DejaVuSans-30" x="536.523438"/>
    </g>
   </g>
   <g id="line2d_115">
    <path d="M 367.784375 260.128125 
L 377.784375 260.128125 
L 387.784375 260.128125 
" style="fill: none; stroke: #2ca02c; stroke-width: 1.5; stroke-linecap: square"/>
   </g>
   <g id="text_38">
    <!-- t=153.6000 -->
    <g transform="translate(395.784375 263.628125)scale(0.1 -0.1)">
     <use xlink:href="#DejaVuSans-74"/>
     <use xlink:href="#DejaVuSans-3d" x="39.208984"/>
     <use xlink:href="#DejaVuSans-31" x="122.998047"/>
     <use xlink:href="#DejaVuSans-35" x="186.621094"/>
     <use xlink:href="#DejaVuSans-33" x="250.244141"/>
     <use xlink:href="#DejaVuSans-2e" x="313.867188"/>
     <use xlink:href="#DejaVuSans-36" x="345.654297"/>
     <use xlink:href="#DejaVuSans-30" x="409.277344"/>
     <use xlink:href="#DejaVuSans-30" x="472.900391"/>
     <use xlink:href="#DejaVuSans-30" x="536.523438"/>
    </g>
   </g>
  </g>
 </g>
 <defs>
  <clipPath id="p4f717aec50">
   <rect x="57.6" y="41.472" width="357.12" height="45.881379"/>
  </clipPath>
  <clipPath id="pec8f162dbb">
   <rect x="57.6" y="96.529655" width="357.12" height="45.881379"/>
  </clipPath>
  <clipPath id="p37c34b4b90">
   <rect x="57.6" y="151.58731" width="357.12" height="45.881379"/>
  </clipPath>
  <clipPath id="pc0db6ecbdd">
   <rect x="57.6" y="206.644966" width="357.12" height="45.881379"/>
  </clipPath>
  <clipPath id="p1a9ea15dfe">
   <rect x="57.6" y="261.702621" width="357.12" height="45.881379"/>
  </clipPath>
 </defs>
</svg>
