<?xml version="1.0" encoding="utf-8" standalone="no"?>
<!DOCTYPE svg PUBLIC "-//W3C//DTD SVG 1.1//EN"
  "http://www.w3.org/Graphics/SVG/1.1/DTD/svg11.dtd">
<svg xmlns:xlink="http://www.w3.org/1999/xlink" width="460.8pt" height="345.6pt" viewBox="0 0 460.8 345.6" xmlns="http://www.w3.org/2000/svg" version="1.1">
 <metadata>
  <rdf:RDF xmlns:dc="http://purl.org/dc/elements/1.1/" xmlns:cc="http://creativecommons.org/ns#" xmlns:rdf="http://www.w3.org/1999/02/22-rdf-syntax-ns#">
   <cc:Work>
    <dc:type rdf:resource="http://purl.org/dc/dcmitype/StillImage"/>
    <dc:date>2022-07-10T00:04:51.816000</dc:date>
    <dc:format>image/svg+xml</dc:format>
    <dc:creator>
     <cc:Agent>
      <dc:title>Matplotlib v3.5.2, https://matplotlib.org/</dc:title>
     </cc:Agent>
    </dc:creator>
   </cc:Work>
  </rdf:RDF>
 </metadata>
 <defs>
  <style type="text/css">*{stroke-linejoin: round; stroke-linecap: butt}</style>
 </defs>
 <g id="figure_1">
  <g id="patch_1">
   <path d="M 0 345.6 
L 460.8 345.6 
L 460.8 0 
L 0 0 
z
" style="fill: #ffffff"/>
  </g>
  <g id="axes_1">
   <g id="patch_2">
    <path d="M 57.6 87.353379 
L 414.72 87.353379 
L 414.72 41.472 
L 57.6 41.472 
z
" style="fill: #ffffff"/>
   </g>
   <g id="axes_2">
    <g id="patch_3">
     <path d="M 414.72 87.353379 
L 414.72 87.353379 
L 414.72 41.472 
L 414.72 41.472 
z
" style="fill: #ffffff"/>
    </g>
    <g id="matplotlib.axis_1"/>
    <g id="matplotlib.axis_2">
     <g id="ytick_1">
      <g id="line2d_1">
       <defs>
        <path id="ma5560d76f2" d="M 0 0 
L 3.5 0 
" style="stroke: #000000; stroke-width: 0.8"/>
       </defs>
       <g>
        <use xlink:href="#ma5560d76f2" x="414.72" y="76.260333" style="stroke: #000000; stroke-width: 0.8"/>
       </g>
      </g>
      <g id="text_1">
       <!-- 0 -->
       <g transform="translate(421.72 80.059551)scale(0.1 -0.1)">
        <defs>
         <path id="DejaVuSans-30" d="M 2034 4250 
Q 1547 4250 1301 3770 
Q 1056 3291 1056 2328 
Q 1056 1369 1301 889 
Q 1547 409 2034 409 
Q 2525 409 2770 889 
Q 3016 1369 3016 2328 
Q 3016 3291 2770 3770 
Q 2525 4250 2034 4250 
z
M 2034 4750 
Q 2819 4750 3233 4129 
Q 3647 3509 3647 2328 
Q 3647 1150 3233 529 
Q 2819 -91 2034 -91 
Q 1250 -91 836 529 
Q 422 1150 422 2328 
Q 422 3509 836 4129 
Q 1250 4750 2034 4750 
z
" transform="scale(0.015625)"/>
        </defs>
        <use xlink:href="#DejaVuSans-30"/>
       </g>
      </g>
     </g>
     <g id="ytick_2">
      <g id="line2d_2">
       <g>
        <use xlink:href="#ma5560d76f2" x="414.72" y="43.672713" style="stroke: #000000; stroke-width: 0.8"/>
       </g>
      </g>
      <g id="text_2">
       <!-- 1 -->
       <g transform="translate(421.72 47.471931)scale(0.1 -0.1)">
        <defs>
         <path id="DejaVuSans-31" d="M 794 531 
L 1825 531 
L 1825 4091 
L 703 3866 
L 703 4441 
L 1819 4666 
L 2450 4666 
L 2450 531 
L 3481 531 
L 3481 0 
L 794 0 
L 794 531 
z
" transform="scale(0.015625)"/>
        </defs>
        <use xlink:href="#DejaVuSans-31"/>
       </g>
      </g>
     </g>
     <g id="text_3">
      <!-- vel [m/s] -->
      <g transform="translate(439.680938 86.48769)rotate(-90)scale(0.1 -0.1)">
       <defs>
        <path id="DejaVuSans-76" d="M 191 3500 
L 800 3500 
L 1894 563 
L 2988 3500 
L 3597 3500 
L 2284 0 
L 1503 0 
L 191 3500 
z
" transform="scale(0.015625)"/>
        <path id="DejaVuSans-65" d="M 3597 1894 
L 3597 1613 
L 953 1613 
Q 991 1019 1311 708 
Q 1631 397 2203 397 
Q 2534 397 2845 478 
Q 3156 559 3463 722 
L 3463 178 
Q 3153 47 2828 -22 
Q 2503 -91 2169 -91 
Q 1331 -91 842 396 
Q 353 884 353 1716 
Q 353 2575 817 3079 
Q 1281 3584 2069 3584 
Q 2775 3584 3186 3129 
Q 3597 2675 3597 1894 
z
M 3022 2063 
Q 3016 2534 2758 2815 
Q 2500 3097 2075 3097 
Q 1594 3097 1305 2825 
Q 1016 2553 972 2059 
L 3022 2063 
z
" transform="scale(0.015625)"/>
        <path id="DejaVuSans-6c" d="M 603 4863 
L 1178 4863 
L 1178 0 
L 603 0 
L 603 4863 
z
" transform="scale(0.015625)"/>
        <path id="DejaVuSans-20" transform="scale(0.015625)"/>
        <path id="DejaVuSans-5b" d="M 550 4863 
L 1875 4863 
L 1875 4416 
L 1125 4416 
L 1125 -397 
L 1875 -397 
L 1875 -844 
L 550 -844 
L 550 4863 
z
" transform="scale(0.015625)"/>
        <path id="DejaVuSans-6d" d="M 3328 2828 
Q 3544 3216 3844 3400 
Q 4144 3584 4550 3584 
Q 5097 3584 5394 3201 
Q 5691 2819 5691 2113 
L 5691 0 
L 5113 0 
L 5113 2094 
Q 5113 2597 4934 2840 
Q 4756 3084 4391 3084 
Q 3944 3084 3684 2787 
Q 3425 2491 3425 1978 
L 3425 0 
L 2847 0 
L 2847 2094 
Q 2847 2600 2669 2842 
Q 2491 3084 2119 3084 
Q 1678 3084 1418 2786 
Q 1159 2488 1159 1978 
L 1159 0 
L 581 0 
L 581 3500 
L 1159 3500 
L 1159 2956 
Q 1356 3278 1631 3431 
Q 1906 3584 2284 3584 
Q 2666 3584 2933 3390 
Q 3200 3197 3328 2828 
z
" transform="scale(0.015625)"/>
        <path id="DejaVuSans-2f" d="M 1625 4666 
L 2156 4666 
L 531 -594 
L 0 -594 
L 1625 4666 
z
" transform="scale(0.015625)"/>
        <path id="DejaVuSans-73" d="M 2834 3397 
L 2834 2853 
Q 2591 2978 2328 3040 
Q 2066 3103 1784 3103 
Q 1356 3103 1142 2972 
Q 928 2841 928 2578 
Q 928 2378 1081 2264 
Q 1234 2150 1697 2047 
L 1894 2003 
Q 2506 1872 2764 1633 
Q 3022 1394 3022 966 
Q 3022 478 2636 193 
Q 2250 -91 1575 -91 
Q 1294 -91 989 -36 
Q 684 19 347 128 
L 347 722 
Q 666 556 975 473 
Q 1284 391 1588 391 
Q 1994 391 2212 530 
Q 2431 669 2431 922 
Q 2431 1156 2273 1281 
Q 2116 1406 1581 1522 
L 1381 1569 
Q 847 1681 609 1914 
Q 372 2147 372 2553 
Q 372 3047 722 3315 
Q 1072 3584 1716 3584 
Q 2034 3584 2315 3537 
Q 2597 3491 2834 3397 
z
" transform="scale(0.015625)"/>
        <path id="DejaVuSans-5d" d="M 1947 4863 
L 1947 -844 
L 622 -844 
L 622 -397 
L 1369 -397 
L 1369 4416 
L 622 4416 
L 622 4863 
L 1947 4863 
z
" transform="scale(0.015625)"/>
       </defs>
       <use xlink:href="#DejaVuSans-76"/>
       <use xlink:href="#DejaVuSans-65" x="59.179688"/>
       <use xlink:href="#DejaVuSans-6c" x="120.703125"/>
       <use xlink:href="#DejaVuSans-20" x="148.486328"/>
       <use xlink:href="#DejaVuSans-5b" x="180.273438"/>
       <use xlink:href="#DejaVuSans-6d" x="219.287109"/>
       <use xlink:href="#DejaVuSans-2f" x="316.699219"/>
       <use xlink:href="#DejaVuSans-73" x="350.390625"/>
       <use xlink:href="#DejaVuSans-5d" x="402.490234"/>
      </g>
     </g>
    </g>
    <g id="patch_4">
     <path d="M 414.72 87.353379 
L 414.72 41.472 
" style="fill: none; stroke: #000000; stroke-width: 0.8; stroke-linejoin: miter; stroke-linecap: square"/>
    </g>
   </g>
   <g id="matplotlib.axis_3">
    <g id="xtick_1">
     <g id="line2d_3">
      <defs>
       <path id="m96dc732b2c" d="M 0 0 
L 0 3.5 
" style="stroke: #000000; stroke-width: 0.8"/>
      </defs>
      <g>
       <use xlink:href="#m96dc732b2c" x="73.832727" y="87.353379" style="stroke: #000000; stroke-width: 0.8"/>
      </g>
     </g>
    </g>
    <g id="xtick_2">
     <g id="line2d_4">
      <g>
       <use xlink:href="#m96dc732b2c" x="116.550431" y="87.353379" style="stroke: #000000; stroke-width: 0.8"/>
      </g>
     </g>
    </g>
    <g id="xtick_3">
     <g id="line2d_5">
      <g>
       <use xlink:href="#m96dc732b2c" x="159.268134" y="87.353379" style="stroke: #000000; stroke-width: 0.8"/>
      </g>
     </g>
    </g>
    <g id="xtick_4">
     <g id="line2d_6">
      <g>
       <use xlink:href="#m96dc732b2c" x="201.985837" y="87.353379" style="stroke: #000000; stroke-width: 0.8"/>
      </g>
     </g>
    </g>
    <g id="xtick_5">
     <g id="line2d_7">
      <g>
       <use xlink:href="#m96dc732b2c" x="244.703541" y="87.353379" style="stroke: #000000; stroke-width: 0.8"/>
      </g>
     </g>
    </g>
    <g id="xtick_6">
     <g id="line2d_8">
      <g>
       <use xlink:href="#m96dc732b2c" x="287.421244" y="87.353379" style="stroke: #000000; stroke-width: 0.8"/>
      </g>
     </g>
    </g>
    <g id="xtick_7">
     <g id="line2d_9">
      <g>
       <use xlink:href="#m96dc732b2c" x="330.138947" y="87.353379" style="stroke: #000000; stroke-width: 0.8"/>
      </g>
     </g>
    </g>
    <g id="xtick_8">
     <g id="line2d_10">
      <g>
       <use xlink:href="#m96dc732b2c" x="372.856651" y="87.353379" style="stroke: #000000; stroke-width: 0.8"/>
      </g>
     </g>
    </g>
   </g>
   <g id="matplotlib.axis_4">
    <g id="ytick_3">
     <g id="line2d_11">
      <defs>
       <path id="mdce3ef4d3f" d="M 0 0 
L -3.5 0 
" style="stroke: #000000; stroke-width: 0.8"/>
      </defs>
      <g>
       <use xlink:href="#mdce3ef4d3f" x="57.6" y="76.260333" style="stroke: #000000; stroke-width: 0.8"/>
      </g>
     </g>
     <g id="text_4">
      <!-- 0 -->
      <g transform="translate(44.2375 80.059551)scale(0.1 -0.1)">
       <use xlink:href="#DejaVuSans-30"/>
      </g>
     </g>
    </g>
    <g id="ytick_4">
     <g id="line2d_12">
      <g>
       <use xlink:href="#mdce3ef4d3f" x="57.6" y="43.672713" style="stroke: #000000; stroke-width: 0.8"/>
      </g>
     </g>
     <g id="text_5">
      <!-- 1 -->
      <g transform="translate(44.2375 47.471931)scale(0.1 -0.1)">
       <use xlink:href="#DejaVuSans-31"/>
      </g>
     </g>
    </g>
    <g id="text_6">
     <!-- vel [normalized] -->
     <g transform="translate(38.157812 105.111908)rotate(-90)scale(0.1 -0.1)">
      <defs>
       <path id="DejaVuSans-6e" d="M 3513 2113 
L 3513 0 
L 2938 0 
L 2938 2094 
Q 2938 2591 2744 2837 
Q 2550 3084 2163 3084 
Q 1697 3084 1428 2787 
Q 1159 2491 1159 1978 
L 1159 0 
L 581 0 
L 581 3500 
L 1159 3500 
L 1159 2956 
Q 1366 3272 1645 3428 
Q 1925 3584 2291 3584 
Q 2894 3584 3203 3211 
Q 3513 2838 3513 2113 
z
" transform="scale(0.015625)"/>
       <path id="DejaVuSans-6f" d="M 1959 3097 
Q 1497 3097 1228 2736 
Q 959 2375 959 1747 
Q 959 1119 1226 758 
Q 1494 397 1959 397 
Q 2419 397 2687 759 
Q 2956 1122 2956 1747 
Q 2956 2369 2687 2733 
Q 2419 3097 1959 3097 
z
M 1959 3584 
Q 2709 3584 3137 3096 
Q 3566 2609 3566 1747 
Q 3566 888 3137 398 
Q 2709 -91 1959 -91 
Q 1206 -91 779 398 
Q 353 888 353 1747 
Q 353 2609 779 3096 
Q 1206 3584 1959 3584 
z
" transform="scale(0.015625)"/>
       <path id="DejaVuSans-72" d="M 2631 2963 
Q 2534 3019 2420 3045 
Q 2306 3072 2169 3072 
Q 1681 3072 1420 2755 
Q 1159 2438 1159 1844 
L 1159 0 
L 581 0 
L 581 3500 
L 1159 3500 
L 1159 2956 
Q 1341 3275 1631 3429 
Q 1922 3584 2338 3584 
Q 2397 3584 2469 3576 
Q 2541 3569 2628 3553 
L 2631 2963 
z
" transform="scale(0.015625)"/>
       <path id="DejaVuSans-61" d="M 2194 1759 
Q 1497 1759 1228 1600 
Q 959 1441 959 1056 
Q 959 750 1161 570 
Q 1363 391 1709 391 
Q 2188 391 2477 730 
Q 2766 1069 2766 1631 
L 2766 1759 
L 2194 1759 
z
M 3341 1997 
L 3341 0 
L 2766 0 
L 2766 531 
Q 2569 213 2275 61 
Q 1981 -91 1556 -91 
Q 1019 -91 701 211 
Q 384 513 384 1019 
Q 384 1609 779 1909 
Q 1175 2209 1959 2209 
L 2766 2209 
L 2766 2266 
Q 2766 2663 2505 2880 
Q 2244 3097 1772 3097 
Q 1472 3097 1187 3025 
Q 903 2953 641 2809 
L 641 3341 
Q 956 3463 1253 3523 
Q 1550 3584 1831 3584 
Q 2591 3584 2966 3190 
Q 3341 2797 3341 1997 
z
" transform="scale(0.015625)"/>
       <path id="DejaVuSans-69" d="M 603 3500 
L 1178 3500 
L 1178 0 
L 603 0 
L 603 3500 
z
M 603 4863 
L 1178 4863 
L 1178 4134 
L 603 4134 
L 603 4863 
z
" transform="scale(0.015625)"/>
       <path id="DejaVuSans-7a" d="M 353 3500 
L 3084 3500 
L 3084 2975 
L 922 459 
L 3084 459 
L 3084 0 
L 275 0 
L 275 525 
L 2438 3041 
L 353 3041 
L 353 3500 
z
" transform="scale(0.015625)"/>
       <path id="DejaVuSans-64" d="M 2906 2969 
L 2906 4863 
L 3481 4863 
L 3481 0 
L 2906 0 
L 2906 525 
Q 2725 213 2448 61 
Q 2172 -91 1784 -91 
Q 1150 -91 751 415 
Q 353 922 353 1747 
Q 353 2572 751 3078 
Q 1150 3584 1784 3584 
Q 2172 3584 2448 3432 
Q 2725 3281 2906 2969 
z
M 947 1747 
Q 947 1113 1208 752 
Q 1469 391 1925 391 
Q 2381 391 2643 752 
Q 2906 1113 2906 1747 
Q 2906 2381 2643 2742 
Q 2381 3103 1925 3103 
Q 1469 3103 1208 2742 
Q 947 2381 947 1747 
z
" transform="scale(0.015625)"/>
      </defs>
      <use xlink:href="#DejaVuSans-76"/>
      <use xlink:href="#DejaVuSans-65" x="59.179688"/>
      <use xlink:href="#DejaVuSans-6c" x="120.703125"/>
      <use xlink:href="#DejaVuSans-20" x="148.486328"/>
      <use xlink:href="#DejaVuSans-5b" x="180.273438"/>
      <use xlink:href="#DejaVuSans-6e" x="219.287109"/>
      <use xlink:href="#DejaVuSans-6f" x="282.666016"/>
      <use xlink:href="#DejaVuSans-72" x="343.847656"/>
      <use xlink:href="#DejaVuSans-6d" x="383.210938"/>
      <use xlink:href="#DejaVuSans-61" x="480.623047"/>
      <use xlink:href="#DejaVuSans-6c" x="541.902344"/>
      <use xlink:href="#DejaVuSans-69" x="569.685547"/>
      <use xlink:href="#DejaVuSans-7a" x="597.46875"/>
      <use xlink:href="#DejaVuSans-65" x="649.958984"/>
      <use xlink:href="#DejaVuSans-64" x="711.482422"/>
      <use xlink:href="#DejaVuSans-5d" x="774.958984"/>
     </g>
    </g>
   </g>
   <g id="line2d_13">
    <path d="M 73.832727 76.260352 
L 90.919809 76.260355 
L 108.00689 76.260356 
L 125.093971 76.260356 
L 142.181053 76.260355 
L 159.268134 76.260353 
L 176.355215 76.260352 
L 193.442297 76.26035 
L 210.529378 76.260349 
L 227.616459 76.260347 
L 244.703541 76.260346 
L 261.790622 76.260344 
L 278.877703 76.260343 
L 295.964785 76.260341 
L 313.051866 76.26034 
L 330.138947 76.260338 
L 347.226029 76.260337 
L 364.31311 76.260335 
L 381.400191 76.260334 
L 398.487273 76.260334 
" clip-path="url(#p1c7d56cf9e)" style="fill: none; stroke: #1f77b4; stroke-width: 1.5; stroke-linecap: square"/>
   </g>
   <g id="line2d_14">
    <path d="M 73.832727 75.979296 
L 90.919809 75.99408 
L 108.00689 76.008865 
L 125.093971 76.023651 
L 142.181053 76.038439 
L 159.268134 76.053227 
L 176.355215 76.068016 
L 193.442297 76.082807 
L 210.529378 76.097597 
L 227.616459 76.11239 
L 244.703541 76.127183 
L 261.790622 76.141976 
L 278.877703 76.15677 
L 295.964785 76.171564 
L 313.051866 76.186359 
L 330.138947 76.201154 
L 347.226029 76.21595 
L 364.31311 76.230746 
L 381.400191 76.24554 
L 398.487273 76.24554 
" clip-path="url(#p1c7d56cf9e)" style="fill: none; stroke: #ff7f0e; stroke-width: 1.5; stroke-linecap: square"/>
   </g>
   <g id="line2d_15">
    <path d="M 73.832727 43.669616 
L 90.919809 43.663419 
L 108.00689 43.657219 
L 125.093971 43.651015 
L 142.181053 43.644808 
L 159.268134 43.638597 
L 176.355215 43.632383 
L 193.442297 43.626165 
L 210.529378 43.619944 
L 227.616459 43.61372 
L 244.703541 43.607492 
L 261.790622 43.60126 
L 278.877703 43.595026 
L 295.964785 43.588788 
L 313.051866 43.582546 
L 330.138947 43.576301 
L 347.226029 43.570052 
L 364.31311 43.563799 
L 381.400191 43.557542 
L 398.487273 43.557542 
" clip-path="url(#p1c7d56cf9e)" style="fill: none; stroke: #2ca02c; stroke-width: 1.5; stroke-linecap: square"/>
   </g>
   <g id="line2d_16">
    <path d="M 73.832727 43.669615 
L 90.919809 43.663418 
L 108.00689 43.657217 
L 125.093971 43.651012 
L 142.181053 43.644804 
L 159.268134 43.638592 
L 176.355215 43.632377 
L 193.442297 43.626158 
L 210.529378 43.619936 
L 227.616459 43.61371 
L 244.703541 43.607481 
L 261.790622 43.601248 
L 278.877703 43.595012 
L 295.964785 43.588771 
L 313.051866 43.582528 
L 330.138947 43.576281 
L 347.226029 43.57003 
L 364.31311 43.563775 
L 381.400191 43.557517 
L 398.487273 43.557517 
" clip-path="url(#p1c7d56cf9e)" style="fill: none; stroke: #d62728; stroke-width: 1.5; stroke-linecap: square"/>
   </g>
   <g id="line2d_17">
    <path d="M 73.832727 75.635709 
L 90.919809 75.011075 
L 108.00689 74.386416 
L 125.093971 73.761717 
L 142.181053 73.136961 
L 159.268134 72.512135 
L 176.355215 71.887219 
L 193.442297 71.262203 
L 210.529378 70.637068 
L 227.616459 70.011801 
L 244.703541 69.386384 
L 261.790622 68.760802 
L 278.877703 68.135042 
L 295.964785 67.509085 
L 313.051866 66.882917 
L 330.138947 66.256522 
L 347.226029 65.629884 
L 364.31311 65.002987 
L 381.400191 64.375818 
L 398.487273 64.375818 
" clip-path="url(#p1c7d56cf9e)" style="fill: none; stroke: #9467bd; stroke-width: 1.5; stroke-linecap: square"/>
   </g>
   <g id="line2d_18">
    <path d="M 73.832727 76.211307 
L 90.919809 76.162284 
L 108.00689 76.113264 
L 125.093971 76.06425 
L 142.181053 76.015245 
L 159.268134 75.96625 
L 176.355215 75.917267 
L 193.442297 75.868298 
L 210.529378 75.819345 
L 227.616459 75.770411 
L 244.703541 75.721496 
L 261.790622 75.672605 
L 278.877703 75.623737 
L 295.964785 75.574895 
L 313.051866 75.526082 
L 330.138947 75.4773 
L 347.226029 75.428549 
L 364.31311 75.379833 
L 381.400191 75.331153 
L 398.487273 75.331153 
" clip-path="url(#p1c7d56cf9e)" style="fill: none; stroke: #8c564b; stroke-width: 1.5; stroke-linecap: square"/>
   </g>
   <g id="line2d_19">
    <path d="M 73.832727 76.243802 
L 90.919809 76.22727 
L 108.00689 76.210732 
L 125.093971 76.194192 
L 142.181053 76.177646 
L 159.268134 76.161094 
L 176.355215 76.144535 
L 193.442297 76.127968 
L 210.529378 76.111391 
L 227.616459 76.094805 
L 244.703541 76.078208 
L 261.790622 76.0616 
L 278.877703 76.04498 
L 295.964785 76.028347 
L 313.051866 76.011701 
L 330.138947 75.995043 
L 347.226029 75.97837 
L 364.31311 75.961685 
L 381.400191 75.944986 
L 398.487273 75.944986 
" clip-path="url(#p1c7d56cf9e)" style="fill: none; stroke: #e377c2; stroke-width: 1.5; stroke-linecap: square"/>
   </g>
   <g id="line2d_20">
    <path d="M 73.832727 76.260259 
L 90.919809 76.260185 
L 108.00689 76.260111 
L 125.093971 76.260037 
L 142.181053 76.259963 
L 159.268134 76.259889 
L 176.355215 76.259815 
L 193.442297 76.259741 
L 210.529378 76.259667 
L 227.616459 76.259593 
L 244.703541 76.25952 
L 261.790622 76.259446 
L 278.877703 76.259372 
L 295.964785 76.259299 
L 313.051866 76.259225 
L 330.138947 76.259151 
L 347.226029 76.259078 
L 364.31311 76.259004 
L 381.400191 76.258931 
L 398.487273 76.258931 
" clip-path="url(#p1c7d56cf9e)" style="fill: none; stroke: #7f7f7f; stroke-width: 1.5; stroke-linecap: square"/>
   </g>
   <g id="line2d_21">
    <path d="M 73.832727 85.267862 
L 90.919809 84.775741 
L 108.00689 84.286857 
L 125.093971 83.800942 
L 142.181053 83.317746 
L 159.268134 82.837034 
L 176.355215 82.358583 
L 193.442297 81.882182 
L 210.529378 81.407632 
L 227.616459 80.934743 
L 244.703541 80.463332 
L 261.790622 79.993227 
L 278.877703 79.524259 
L 295.964785 79.056269 
L 313.051866 78.589098 
L 330.138947 78.122596 
L 347.226029 77.656614 
L 364.31311 77.191005 
L 381.400191 76.725625 
L 398.487273 76.725625 
" clip-path="url(#p1c7d56cf9e)" style="fill: none; stroke: #bcbd22; stroke-width: 1.5; stroke-linecap: square"/>
   </g>
   <g id="line2d_22">
    <path d="M 73.832727 76.687813 
L 90.919809 76.666444 
L 108.00689 76.644895 
L 125.093971 76.623175 
L 142.181053 76.601293 
L 159.268134 76.57926 
L 176.355215 76.557085 
L 193.442297 76.534778 
L 210.529378 76.512347 
L 227.616459 76.489803 
L 244.703541 76.467156 
L 261.790622 76.444415 
L 278.877703 76.42159 
L 295.964785 76.398691 
L 313.051866 76.375729 
L 330.138947 76.352714 
L 347.226029 76.329656 
L 364.31311 76.306566 
L 381.400191 76.283455 
L 398.487273 76.283455 
" clip-path="url(#p1c7d56cf9e)" style="fill: none; stroke: #17becf; stroke-width: 1.5; stroke-linecap: square"/>
   </g>
   <g id="line2d_23">
    <path d="M 73.832727 76.269401 
L 90.919809 76.268952 
L 108.00689 76.268496 
L 125.093971 76.268036 
L 142.181053 76.267572 
L 159.268134 76.267105 
L 176.355215 76.266635 
L 193.442297 76.266161 
L 210.529378 76.265685 
L 227.616459 76.265207 
L 244.703541 76.264726 
L 261.790622 76.264243 
L 278.877703 76.263758 
L 295.964785 76.263272 
L 313.051866 76.262784 
L 330.138947 76.262295 
L 347.226029 76.261805 
L 364.31311 76.261315 
L 381.400191 76.260824 
L 398.487273 76.260824 
" clip-path="url(#p1c7d56cf9e)" style="fill: none; stroke: #1f77b4; stroke-width: 1.5; stroke-linecap: square"/>
   </g>
   <g id="line2d_24">
    <path d="M 73.832727 76.260315 
L 90.919809 76.260318 
L 108.00689 76.260318 
L 125.093971 76.260318 
L 142.181053 76.260318 
L 159.268134 76.260317 
L 176.355215 76.260317 
L 193.442297 76.260317 
L 210.529378 76.260318 
L 227.616459 76.260318 
L 244.703541 76.260319 
L 261.790622 76.26032 
L 278.877703 76.260321 
L 295.964785 76.260323 
L 313.051866 76.260324 
L 330.138947 76.260326 
L 347.226029 76.260327 
L 364.31311 76.260329 
L 381.400191 76.260331 
L 398.487273 76.260331 
" clip-path="url(#p1c7d56cf9e)" style="fill: none; stroke: #ff7f0e; stroke-width: 1.5; stroke-linecap: square"/>
   </g>
   <g id="line2d_25">
    <path d="M 73.832727 76.26041 
L 90.919809 76.260411 
L 108.00689 76.260409 
L 125.093971 76.260405 
L 142.181053 76.260401 
L 159.268134 76.260397 
L 176.355215 76.260392 
L 193.442297 76.260387 
L 210.529378 76.260383 
L 227.616459 76.260378 
L 244.703541 76.260374 
L 261.790622 76.260369 
L 278.877703 76.260364 
L 295.964785 76.26036 
L 313.051866 76.260355 
L 330.138947 76.260351 
L 347.226029 76.260346 
L 364.31311 76.260342 
L 381.400191 76.260337 
L 398.487273 76.260337 
" clip-path="url(#p1c7d56cf9e)" style="fill: none; stroke: #2ca02c; stroke-width: 1.5; stroke-linecap: square"/>
   </g>
   <g id="patch_5">
    <path d="M 57.6 87.353379 
L 57.6 41.472 
" style="fill: none; stroke: #000000; stroke-width: 0.8; stroke-linejoin: miter; stroke-linecap: square"/>
   </g>
   <g id="patch_6">
    <path d="M 414.72 87.353379 
L 414.72 41.472 
" style="fill: none; stroke: #000000; stroke-width: 0.8; stroke-linejoin: miter; stroke-linecap: square"/>
   </g>
   <g id="patch_7">
    <path d="M 57.6 87.353379 
L 414.72 87.353379 
" style="fill: none; stroke: #000000; stroke-width: 0.8; stroke-linejoin: miter; stroke-linecap: square"/>
   </g>
   <g id="patch_8">
    <path d="M 57.6 41.472 
L 414.72 41.472 
" style="fill: none; stroke: #000000; stroke-width: 0.8; stroke-linejoin: miter; stroke-linecap: square"/>
   </g>
   <g id="text_7">
    <!-- velocity - Container 1  -->
    <g transform="translate(169.779375 38.472)scale(0.12 -0.12)">
     <defs>
      <path id="DejaVuSans-63" d="M 3122 3366 
L 3122 2828 
Q 2878 2963 2633 3030 
Q 2388 3097 2138 3097 
Q 1578 3097 1268 2742 
Q 959 2388 959 1747 
Q 959 1106 1268 751 
Q 1578 397 2138 397 
Q 2388 397 2633 464 
Q 2878 531 3122 666 
L 3122 134 
Q 2881 22 2623 -34 
Q 2366 -91 2075 -91 
Q 1284 -91 818 406 
Q 353 903 353 1747 
Q 353 2603 823 3093 
Q 1294 3584 2113 3584 
Q 2378 3584 2631 3529 
Q 2884 3475 3122 3366 
z
" transform="scale(0.015625)"/>
      <path id="DejaVuSans-74" d="M 1172 4494 
L 1172 3500 
L 2356 3500 
L 2356 3053 
L 1172 3053 
L 1172 1153 
Q 1172 725 1289 603 
Q 1406 481 1766 481 
L 2356 481 
L 2356 0 
L 1766 0 
Q 1100 0 847 248 
Q 594 497 594 1153 
L 594 3053 
L 172 3053 
L 172 3500 
L 594 3500 
L 594 4494 
L 1172 4494 
z
" transform="scale(0.015625)"/>
      <path id="DejaVuSans-79" d="M 2059 -325 
Q 1816 -950 1584 -1140 
Q 1353 -1331 966 -1331 
L 506 -1331 
L 506 -850 
L 844 -850 
Q 1081 -850 1212 -737 
Q 1344 -625 1503 -206 
L 1606 56 
L 191 3500 
L 800 3500 
L 1894 763 
L 2988 3500 
L 3597 3500 
L 2059 -325 
z
" transform="scale(0.015625)"/>
      <path id="DejaVuSans-2d" d="M 313 2009 
L 1997 2009 
L 1997 1497 
L 313 1497 
L 313 2009 
z
" transform="scale(0.015625)"/>
      <path id="DejaVuSans-43" d="M 4122 4306 
L 4122 3641 
Q 3803 3938 3442 4084 
Q 3081 4231 2675 4231 
Q 1875 4231 1450 3742 
Q 1025 3253 1025 2328 
Q 1025 1406 1450 917 
Q 1875 428 2675 428 
Q 3081 428 3442 575 
Q 3803 722 4122 1019 
L 4122 359 
Q 3791 134 3420 21 
Q 3050 -91 2638 -91 
Q 1578 -91 968 557 
Q 359 1206 359 2328 
Q 359 3453 968 4101 
Q 1578 4750 2638 4750 
Q 3056 4750 3426 4639 
Q 3797 4528 4122 4306 
z
" transform="scale(0.015625)"/>
     </defs>
     <use xlink:href="#DejaVuSans-76"/>
     <use xlink:href="#DejaVuSans-65" x="59.179688"/>
     <use xlink:href="#DejaVuSans-6c" x="120.703125"/>
     <use xlink:href="#DejaVuSans-6f" x="148.486328"/>
     <use xlink:href="#DejaVuSans-63" x="209.667969"/>
     <use xlink:href="#DejaVuSans-69" x="264.648438"/>
     <use xlink:href="#DejaVuSans-74" x="292.431641"/>
     <use xlink:href="#DejaVuSans-79" x="331.640625"/>
     <use xlink:href="#DejaVuSans-20" x="390.820312"/>
     <use xlink:href="#DejaVuSans-2d" x="422.607422"/>
     <use xlink:href="#DejaVuSans-20" x="458.691406"/>
     <use xlink:href="#DejaVuSans-43" x="490.478516"/>
     <use xlink:href="#DejaVuSans-6f" x="560.302734"/>
     <use xlink:href="#DejaVuSans-6e" x="621.484375"/>
     <use xlink:href="#DejaVuSans-74" x="684.863281"/>
     <use xlink:href="#DejaVuSans-61" x="724.072266"/>
     <use xlink:href="#DejaVuSans-69" x="785.351562"/>
     <use xlink:href="#DejaVuSans-6e" x="813.134766"/>
     <use xlink:href="#DejaVuSans-65" x="876.513672"/>
     <use xlink:href="#DejaVuSans-72" x="938.037109"/>
     <use xlink:href="#DejaVuSans-20" x="979.150391"/>
     <use xlink:href="#DejaVuSans-31" x="1010.9375"/>
     <use xlink:href="#DejaVuSans-20" x="1074.560547"/>
    </g>
   </g>
  </g>
  <g id="axes_3">
   <g id="patch_9">
    <path d="M 57.6 142.411034 
L 414.72 142.411034 
L 414.72 96.529655 
L 57.6 96.529655 
z
" style="fill: #ffffff"/>
   </g>
   <g id="matplotlib.axis_5">
    <g id="xtick_9">
     <g id="line2d_26">
      <g>
       <use xlink:href="#m96dc732b2c" x="73.832727" y="142.411034" style="stroke: #000000; stroke-width: 0.8"/>
      </g>
     </g>
    </g>
    <g id="xtick_10">
     <g id="line2d_27">
      <g>
       <use xlink:href="#m96dc732b2c" x="116.550431" y="142.411034" style="stroke: #000000; stroke-width: 0.8"/>
      </g>
     </g>
    </g>
    <g id="xtick_11">
     <g id="line2d_28">
      <g>
       <use xlink:href="#m96dc732b2c" x="159.268134" y="142.411034" style="stroke: #000000; stroke-width: 0.8"/>
      </g>
     </g>
    </g>
    <g id="xtick_12">
     <g id="line2d_29">
      <g>
       <use xlink:href="#m96dc732b2c" x="201.985837" y="142.411034" style="stroke: #000000; stroke-width: 0.8"/>
      </g>
     </g>
    </g>
    <g id="xtick_13">
     <g id="line2d_30">
      <g>
       <use xlink:href="#m96dc732b2c" x="244.703541" y="142.411034" style="stroke: #000000; stroke-width: 0.8"/>
      </g>
     </g>
    </g>
    <g id="xtick_14">
     <g id="line2d_31">
      <g>
       <use xlink:href="#m96dc732b2c" x="287.421244" y="142.411034" style="stroke: #000000; stroke-width: 0.8"/>
      </g>
     </g>
    </g>
    <g id="xtick_15">
     <g id="line2d_32">
      <g>
       <use xlink:href="#m96dc732b2c" x="330.138947" y="142.411034" style="stroke: #000000; stroke-width: 0.8"/>
      </g>
     </g>
    </g>
    <g id="xtick_16">
     <g id="line2d_33">
      <g>
       <use xlink:href="#m96dc732b2c" x="372.856651" y="142.411034" style="stroke: #000000; stroke-width: 0.8"/>
      </g>
     </g>
    </g>
   </g>
   <g id="matplotlib.axis_6">
    <g id="ytick_5">
     <g id="line2d_34">
      <g>
       <use xlink:href="#mdce3ef4d3f" x="57.6" y="140.745253" style="stroke: #000000; stroke-width: 0.8"/>
      </g>
     </g>
     <g id="text_8">
      <!-- 0 -->
      <g transform="translate(44.2375 144.544472)scale(0.1 -0.1)">
       <use xlink:href="#DejaVuSans-30"/>
      </g>
     </g>
    </g>
    <g id="ytick_6">
     <g id="line2d_35">
      <g>
       <use xlink:href="#mdce3ef4d3f" x="57.6" y="98.771642" style="stroke: #000000; stroke-width: 0.8"/>
      </g>
     </g>
     <g id="text_9">
      <!-- 1 -->
      <g transform="translate(44.2375 102.570861)scale(0.1 -0.1)">
       <use xlink:href="#DejaVuSans-31"/>
      </g>
     </g>
    </g>
   </g>
   <g id="line2d_36">
    <path d="M 73.832727 140.325517 
L 90.919809 140.325517 
L 108.00689 140.325517 
L 125.093971 140.325517 
L 142.181053 140.325517 
L 159.268134 140.325517 
L 176.355215 140.325517 
L 193.442297 140.325517 
L 210.529378 140.325517 
L 227.616459 140.325517 
L 244.703541 140.325517 
L 261.790622 140.325517 
L 278.877703 140.325517 
L 295.964785 140.325517 
L 313.051866 140.325517 
L 330.138947 140.325517 
L 347.226029 140.325517 
L 364.31311 140.325517 
L 381.400191 140.325517 
L 398.487273 140.325517 
" clip-path="url(#pecde52a16c)" style="fill: none; stroke: #1f77b4; stroke-width: 1.5; stroke-linecap: square"/>
   </g>
   <g id="line2d_37">
    <path d="M 73.832727 99.531936 
L 90.919809 99.532005 
L 108.00689 99.532071 
L 125.093971 99.532133 
L 142.181053 99.532191 
L 159.268134 99.532245 
L 176.355215 99.532296 
L 193.442297 99.532344 
L 210.529378 99.532387 
L 227.616459 99.532427 
L 244.703541 99.532464 
L 261.790622 99.532496 
L 278.877703 99.532525 
L 295.964785 99.532551 
L 313.051866 99.532573 
L 330.138947 99.532591 
L 347.226029 99.532605 
L 364.31311 99.532616 
L 381.400191 99.532624 
L 398.487273 99.532627 
" clip-path="url(#pecde52a16c)" style="fill: none; stroke: #ff7f0e; stroke-width: 1.5; stroke-linecap: square"/>
   </g>
   <g id="line2d_38">
    <path d="M 73.832727 98.615172 
L 90.919809 98.623182 
L 108.00689 98.631194 
L 125.093971 98.639207 
L 142.181053 98.647221 
L 159.268134 98.655237 
L 176.355215 98.663255 
L 193.442297 98.671274 
L 210.529378 98.679295 
L 227.616459 98.687317 
L 244.703541 98.69534 
L 261.790622 98.703366 
L 278.877703 98.711392 
L 295.964785 98.719421 
L 313.051866 98.72745 
L 330.138947 98.735482 
L 347.226029 98.743515 
L 364.31311 98.751549 
L 381.400191 98.759585 
L 398.487273 98.767622 
" clip-path="url(#pecde52a16c)" style="fill: none; stroke: #2ca02c; stroke-width: 1.5; stroke-linecap: square"/>
   </g>
   <g id="line2d_39">
    <path d="M 73.832727 98.615172 
L 90.919809 98.623182 
L 108.00689 98.631194 
L 125.093971 98.639207 
L 142.181053 98.647221 
L 159.268134 98.655237 
L 176.355215 98.663255 
L 193.442297 98.671274 
L 210.529378 98.679295 
L 227.616459 98.687317 
L 244.703541 98.69534 
L 261.790622 98.703366 
L 278.877703 98.711392 
L 295.964785 98.719421 
L 313.051866 98.72745 
L 330.138947 98.735482 
L 347.226029 98.743515 
L 364.31311 98.751549 
L 381.400191 98.759585 
L 398.487273 98.767622 
" clip-path="url(#pecde52a16c)" style="fill: none; stroke: #d62728; stroke-width: 1.5; stroke-linecap: square"/>
   </g>
   <g id="line2d_40">
    <path d="M 73.832727 122.621727 
L 90.919809 122.621881 
L 108.00689 122.622188 
L 125.093971 122.622648 
L 142.181053 122.623262 
L 159.268134 122.62403 
L 176.355215 122.624951 
L 193.442297 122.626026 
L 210.529378 122.627254 
L 227.616459 122.628637 
L 244.703541 122.630172 
L 261.790622 122.631862 
L 278.877703 122.633705 
L 295.964785 122.635702 
L 313.051866 122.637853 
L 330.138947 122.640157 
L 347.226029 122.642616 
L 364.31311 122.645229 
L 381.400191 122.647995 
L 398.487273 122.650916 
" clip-path="url(#pecde52a16c)" style="fill: none; stroke: #9467bd; stroke-width: 1.5; stroke-linecap: square"/>
   </g>
   <g id="line2d_41">
    <path d="M 73.832727 136.29128 
L 90.919809 136.291292 
L 108.00689 136.291316 
L 125.093971 136.291352 
L 142.181053 136.291401 
L 159.268134 136.291461 
L 176.355215 136.291533 
L 193.442297 136.291617 
L 210.529378 136.291714 
L 227.616459 136.291822 
L 244.703541 136.291942 
L 261.790622 136.292075 
L 278.877703 136.292219 
L 295.964785 136.292376 
L 313.051866 136.292544 
L 330.138947 136.292725 
L 347.226029 136.292917 
L 364.31311 136.293122 
L 381.400191 136.293338 
L 398.487273 136.293566 
" clip-path="url(#pecde52a16c)" style="fill: none; stroke: #8c564b; stroke-width: 1.5; stroke-linecap: square"/>
   </g>
   <g id="line2d_42">
    <path d="M 73.832727 136.546849 
L 90.919809 136.546853 
L 108.00689 136.546861 
L 125.093971 136.546873 
L 142.181053 136.546889 
L 159.268134 136.54691 
L 176.355215 136.546934 
L 193.442297 136.546963 
L 210.529378 136.546995 
L 227.616459 136.547032 
L 244.703541 136.547072 
L 261.790622 136.547117 
L 278.877703 136.547166 
L 295.964785 136.547219 
L 313.051866 136.547276 
L 330.138947 136.547337 
L 347.226029 136.547402 
L 364.31311 136.547472 
L 381.400191 136.547545 
L 398.487273 136.547622 
" clip-path="url(#pecde52a16c)" style="fill: none; stroke: #e377c2; stroke-width: 1.5; stroke-linecap: square"/>
   </g>
   <g id="line2d_43">
    <path d="M 73.832727 136.547767 
L 90.919809 136.547767 
L 108.00689 136.547767 
L 125.093971 136.547767 
L 142.181053 136.547767 
L 159.268134 136.547767 
L 176.355215 136.547767 
L 193.442297 136.547767 
L 210.529378 136.547768 
L 227.616459 136.547768 
L 244.703541 136.547768 
L 261.790622 136.547768 
L 278.877703 136.547768 
L 295.964785 136.547769 
L 313.051866 136.547769 
L 330.138947 136.547769 
L 347.226029 136.547769 
L 364.31311 136.54777 
L 381.400191 136.54777 
L 398.487273 136.54777 
" clip-path="url(#pecde52a16c)" style="fill: none; stroke: #7f7f7f; stroke-width: 1.5; stroke-linecap: square"/>
   </g>
   <g id="line2d_44">
    <path d="M 73.832727 139.813007 
L 90.919809 139.810793 
L 108.00689 139.8087 
L 125.093971 139.806728 
L 142.181053 139.804874 
L 159.268134 139.80314 
L 176.355215 139.801524 
L 193.442297 139.800025 
L 210.529378 139.798643 
L 227.616459 139.797378 
L 244.703541 139.796229 
L 261.790622 139.795196 
L 278.877703 139.794279 
L 295.964785 139.793477 
L 313.051866 139.792789 
L 330.138947 139.792217 
L 347.226029 139.791759 
L 364.31311 139.791416 
L 381.400191 139.791187 
L 398.487273 139.791073 
" clip-path="url(#pecde52a16c)" style="fill: none; stroke: #bcbd22; stroke-width: 1.5; stroke-linecap: square"/>
   </g>
   <g id="line2d_45">
    <path d="M 73.832727 140.316082 
L 90.919809 140.315977 
L 108.00689 140.315877 
L 125.093971 140.315782 
L 142.181053 140.315693 
L 159.268134 140.315609 
L 176.355215 140.315531 
L 193.442297 140.315458 
L 210.529378 140.31539 
L 227.616459 140.315329 
L 244.703541 140.315272 
L 261.790622 140.315221 
L 278.877703 140.315176 
L 295.964785 140.315136 
L 313.051866 140.315102 
L 330.138947 140.315074 
L 347.226029 140.315051 
L 364.31311 140.315034 
L 381.400191 140.315023 
L 398.487273 140.315017 
" clip-path="url(#pecde52a16c)" style="fill: none; stroke: #17becf; stroke-width: 1.5; stroke-linecap: square"/>
   </g>
   <g id="line2d_46">
    <path d="M 73.832727 140.325344 
L 90.919809 140.325341 
L 108.00689 140.325339 
L 125.093971 140.325337 
L 142.181053 140.325335 
L 159.268134 140.325334 
L 176.355215 140.325332 
L 193.442297 140.32533 
L 210.529378 140.325329 
L 227.616459 140.325328 
L 244.703541 140.325327 
L 261.790622 140.325325 
L 278.877703 140.325324 
L 295.964785 140.325324 
L 313.051866 140.325323 
L 330.138947 140.325322 
L 347.226029 140.325322 
L 364.31311 140.325321 
L 381.400191 140.325321 
L 398.487273 140.325321 
" clip-path="url(#pecde52a16c)" style="fill: none; stroke: #1f77b4; stroke-width: 1.5; stroke-linecap: square"/>
   </g>
   <g id="line2d_47">
    <path d="M 73.832727 140.325511 
L 90.919809 140.325511 
L 108.00689 140.325511 
L 125.093971 140.325511 
L 142.181053 140.325511 
L 159.268134 140.325511 
L 176.355215 140.325511 
L 193.442297 140.325511 
L 210.529378 140.325511 
L 227.616459 140.325511 
L 244.703541 140.325511 
L 261.790622 140.325511 
L 278.877703 140.325511 
L 295.964785 140.325511 
L 313.051866 140.325511 
L 330.138947 140.325511 
L 347.226029 140.325511 
L 364.31311 140.325511 
L 381.400191 140.325511 
L 398.487273 140.325511 
" clip-path="url(#pecde52a16c)" style="fill: none; stroke: #ff7f0e; stroke-width: 1.5; stroke-linecap: square"/>
   </g>
   <g id="line2d_48">
    <path d="M 73.832727 140.325517 
L 90.919809 140.325517 
L 108.00689 140.325517 
L 125.093971 140.325517 
L 142.181053 140.325517 
L 159.268134 140.325517 
L 176.355215 140.325517 
L 193.442297 140.325517 
L 210.529378 140.325517 
L 227.616459 140.325517 
L 244.703541 140.325517 
L 261.790622 140.325517 
L 278.877703 140.325517 
L 295.964785 140.325517 
L 313.051866 140.325517 
L 330.138947 140.325517 
L 347.226029 140.325517 
L 364.31311 140.325517 
L 381.400191 140.325517 
L 398.487273 140.325517 
" clip-path="url(#pecde52a16c)" style="fill: none; stroke: #2ca02c; stroke-width: 1.5; stroke-linecap: square"/>
   </g>
   <g id="patch_10">
    <path d="M 57.6 142.411034 
L 57.6 96.529655 
" style="fill: none; stroke: #000000; stroke-width: 0.8; stroke-linejoin: miter; stroke-linecap: square"/>
   </g>
   <g id="patch_11">
    <path d="M 414.72 142.411034 
L 414.72 96.529655 
" style="fill: none; stroke: #000000; stroke-width: 0.8; stroke-linejoin: miter; stroke-linecap: square"/>
   </g>
   <g id="patch_12">
    <path d="M 57.6 142.411034 
L 414.72 142.411034 
" style="fill: none; stroke: #000000; stroke-width: 0.8; stroke-linejoin: miter; stroke-linecap: square"/>
   </g>
   <g id="patch_13">
    <path d="M 57.6 96.529655 
L 414.72 96.529655 
" style="fill: none; stroke: #000000; stroke-width: 0.8; stroke-linejoin: miter; stroke-linecap: square"/>
   </g>
   <g id="text_10">
    <!-- Pressure - Container 1 -->
    <g transform="translate(169.523438 93.529655)scale(0.12 -0.12)">
     <defs>
      <path id="DejaVuSans-50" d="M 1259 4147 
L 1259 2394 
L 2053 2394 
Q 2494 2394 2734 2622 
Q 2975 2850 2975 3272 
Q 2975 3691 2734 3919 
Q 2494 4147 2053 4147 
L 1259 4147 
z
M 628 4666 
L 2053 4666 
Q 2838 4666 3239 4311 
Q 3641 3956 3641 3272 
Q 3641 2581 3239 2228 
Q 2838 1875 2053 1875 
L 1259 1875 
L 1259 0 
L 628 0 
L 628 4666 
z
" transform="scale(0.015625)"/>
      <path id="DejaVuSans-75" d="M 544 1381 
L 544 3500 
L 1119 3500 
L 1119 1403 
Q 1119 906 1312 657 
Q 1506 409 1894 409 
Q 2359 409 2629 706 
Q 2900 1003 2900 1516 
L 2900 3500 
L 3475 3500 
L 3475 0 
L 2900 0 
L 2900 538 
Q 2691 219 2414 64 
Q 2138 -91 1772 -91 
Q 1169 -91 856 284 
Q 544 659 544 1381 
z
M 1991 3584 
L 1991 3584 
z
" transform="scale(0.015625)"/>
     </defs>
     <use xlink:href="#DejaVuSans-50"/>
     <use xlink:href="#DejaVuSans-72" x="58.552734"/>
     <use xlink:href="#DejaVuSans-65" x="97.416016"/>
     <use xlink:href="#DejaVuSans-73" x="158.939453"/>
     <use xlink:href="#DejaVuSans-73" x="211.039062"/>
     <use xlink:href="#DejaVuSans-75" x="263.138672"/>
     <use xlink:href="#DejaVuSans-72" x="326.517578"/>
     <use xlink:href="#DejaVuSans-65" x="365.380859"/>
     <use xlink:href="#DejaVuSans-20" x="426.904297"/>
     <use xlink:href="#DejaVuSans-2d" x="458.691406"/>
     <use xlink:href="#DejaVuSans-20" x="494.775391"/>
     <use xlink:href="#DejaVuSans-43" x="526.5625"/>
     <use xlink:href="#DejaVuSans-6f" x="596.386719"/>
     <use xlink:href="#DejaVuSans-6e" x="657.568359"/>
     <use xlink:href="#DejaVuSans-74" x="720.947266"/>
     <use xlink:href="#DejaVuSans-61" x="760.15625"/>
     <use xlink:href="#DejaVuSans-69" x="821.435547"/>
     <use xlink:href="#DejaVuSans-6e" x="849.21875"/>
     <use xlink:href="#DejaVuSans-65" x="912.597656"/>
     <use xlink:href="#DejaVuSans-72" x="974.121094"/>
     <use xlink:href="#DejaVuSans-20" x="1015.234375"/>
     <use xlink:href="#DejaVuSans-31" x="1047.021484"/>
    </g>
   </g>
  </g>
  <g id="axes_4">
   <g id="patch_14">
    <path d="M 57.6 197.46869 
L 414.72 197.46869 
L 414.72 151.58731 
L 57.6 151.58731 
z
" style="fill: #ffffff"/>
   </g>
   <g id="matplotlib.axis_7">
    <g id="xtick_17">
     <g id="line2d_49">
      <g>
       <use xlink:href="#m96dc732b2c" x="73.832727" y="197.46869" style="stroke: #000000; stroke-width: 0.8"/>
      </g>
     </g>
    </g>
    <g id="xtick_18">
     <g id="line2d_50">
      <g>
       <use xlink:href="#m96dc732b2c" x="116.550431" y="197.46869" style="stroke: #000000; stroke-width: 0.8"/>
      </g>
     </g>
    </g>
    <g id="xtick_19">
     <g id="line2d_51">
      <g>
       <use xlink:href="#m96dc732b2c" x="159.268134" y="197.46869" style="stroke: #000000; stroke-width: 0.8"/>
      </g>
     </g>
    </g>
    <g id="xtick_20">
     <g id="line2d_52">
      <g>
       <use xlink:href="#m96dc732b2c" x="201.985837" y="197.46869" style="stroke: #000000; stroke-width: 0.8"/>
      </g>
     </g>
    </g>
    <g id="xtick_21">
     <g id="line2d_53">
      <g>
       <use xlink:href="#m96dc732b2c" x="244.703541" y="197.46869" style="stroke: #000000; stroke-width: 0.8"/>
      </g>
     </g>
    </g>
    <g id="xtick_22">
     <g id="line2d_54">
      <g>
       <use xlink:href="#m96dc732b2c" x="287.421244" y="197.46869" style="stroke: #000000; stroke-width: 0.8"/>
      </g>
     </g>
    </g>
    <g id="xtick_23">
     <g id="line2d_55">
      <g>
       <use xlink:href="#m96dc732b2c" x="330.138947" y="197.46869" style="stroke: #000000; stroke-width: 0.8"/>
      </g>
     </g>
    </g>
    <g id="xtick_24">
     <g id="line2d_56">
      <g>
       <use xlink:href="#m96dc732b2c" x="372.856651" y="197.46869" style="stroke: #000000; stroke-width: 0.8"/>
      </g>
     </g>
    </g>
   </g>
   <g id="matplotlib.axis_8">
    <g id="ytick_7">
     <g id="line2d_57">
      <g>
       <use xlink:href="#mdce3ef4d3f" x="57.6" y="193.639058" style="stroke: #000000; stroke-width: 0.8"/>
      </g>
     </g>
     <g id="text_11">
      <!-- 0.05 -->
      <g transform="translate(28.334375 197.438276)scale(0.1 -0.1)">
       <defs>
        <path id="DejaVuSans-2e" d="M 684 794 
L 1344 794 
L 1344 0 
L 684 0 
L 684 794 
z
" transform="scale(0.015625)"/>
        <path id="DejaVuSans-35" d="M 691 4666 
L 3169 4666 
L 3169 4134 
L 1269 4134 
L 1269 2991 
Q 1406 3038 1543 3061 
Q 1681 3084 1819 3084 
Q 2600 3084 3056 2656 
Q 3513 2228 3513 1497 
Q 3513 744 3044 326 
Q 2575 -91 1722 -91 
Q 1428 -91 1123 -41 
Q 819 9 494 109 
L 494 744 
Q 775 591 1075 516 
Q 1375 441 1709 441 
Q 2250 441 2565 725 
Q 2881 1009 2881 1497 
Q 2881 1984 2565 2268 
Q 2250 2553 1709 2553 
Q 1456 2553 1204 2497 
Q 953 2441 691 2322 
L 691 4666 
z
" transform="scale(0.015625)"/>
       </defs>
       <use xlink:href="#DejaVuSans-30"/>
       <use xlink:href="#DejaVuSans-2e" x="63.623047"/>
       <use xlink:href="#DejaVuSans-30" x="95.410156"/>
       <use xlink:href="#DejaVuSans-35" x="159.033203"/>
      </g>
     </g>
    </g>
    <g id="ytick_8">
     <g id="line2d_58">
      <g>
       <use xlink:href="#mdce3ef4d3f" x="57.6" y="172.911486" style="stroke: #000000; stroke-width: 0.8"/>
      </g>
     </g>
     <g id="text_12">
      <!-- 0.10 -->
      <g transform="translate(28.334375 176.710705)scale(0.1 -0.1)">
       <use xlink:href="#DejaVuSans-30"/>
       <use xlink:href="#DejaVuSans-2e" x="63.623047"/>
       <use xlink:href="#DejaVuSans-31" x="95.410156"/>
       <use xlink:href="#DejaVuSans-30" x="159.033203"/>
      </g>
     </g>
    </g>
    <g id="ytick_9">
     <g id="line2d_59">
      <g>
       <use xlink:href="#mdce3ef4d3f" x="57.6" y="152.183915" style="stroke: #000000; stroke-width: 0.8"/>
      </g>
     </g>
     <g id="text_13">
      <!-- 0.15 -->
      <g transform="translate(28.334375 155.983133)scale(0.1 -0.1)">
       <use xlink:href="#DejaVuSans-30"/>
       <use xlink:href="#DejaVuSans-2e" x="63.623047"/>
       <use xlink:href="#DejaVuSans-31" x="95.410156"/>
       <use xlink:href="#DejaVuSans-35" x="159.033203"/>
      </g>
     </g>
    </g>
   </g>
   <g id="line2d_60">
    <path d="M 73.832727 153.953396 
L 90.919809 153.942292 
L 108.00689 153.923924 
L 125.093971 153.902303 
L 142.181053 153.880018 
L 159.268134 153.858379 
L 176.355215 153.837957 
L 193.442297 153.818976 
L 210.529378 153.801515 
L 227.616459 153.785596 
L 244.703541 153.771217 
L 261.790622 153.758373 
L 278.877703 153.747052 
L 295.964785 153.737242 
L 313.051866 153.728932 
L 330.138947 153.722105 
L 347.226029 153.716737 
L 364.31311 153.712793 
L 381.400191 153.710221 
L 398.487273 153.708958 
" clip-path="url(#p35c6a8113e)" style="fill: none; stroke: #1f77b4; stroke-width: 1.5; stroke-linecap: square"/>
   </g>
   <g id="line2d_61">
    <path d="M 73.832727 193.68512 
L 90.919809 193.77497 
L 108.00689 193.800281 
L 125.093971 193.843146 
L 142.181053 193.911472 
L 159.268134 193.996354 
L 176.355215 194.091104 
L 193.442297 194.193233 
L 210.529378 194.303077 
L 227.616459 194.422372 
L 244.703541 194.553434 
L 261.790622 194.698855 
L 278.877703 194.861178 
L 295.964785 195.04109 
L 313.051866 195.229611 
L 330.138947 195.383172 
L 347.226029 195.370913 
L 364.31311 194.941778 
L 381.400191 193.924311 
L 398.487273 192.815496 
" clip-path="url(#p35c6a8113e)" style="fill: none; stroke: #ff7f0e; stroke-width: 1.5; stroke-linecap: square"/>
   </g>
   <g id="line2d_62">
    <path d="M 73.832727 193.639068 
L 90.919809 193.639092 
L 108.00689 193.63917 
L 125.093971 193.639254 
L 142.181053 193.639248 
L 159.268134 193.639241 
L 176.355215 193.639568 
L 193.442297 193.640531 
L 210.529378 193.64209 
L 227.616459 193.643866 
L 244.703541 193.645454 
L 261.790622 193.646803 
L 278.877703 193.648385 
L 295.964785 193.651121 
L 313.051866 193.656144 
L 330.138947 193.664573 
L 347.226029 193.677385 
L 364.31311 193.695377 
L 381.400191 193.719218 
L 398.487273 193.749096 
" clip-path="url(#p35c6a8113e)" style="fill: none; stroke: #2ca02c; stroke-width: 1.5; stroke-linecap: square"/>
   </g>
   <g id="line2d_63">
    <path d="M 73.832727 193.639058 
L 90.919809 193.639058 
L 108.00689 193.639058 
L 125.093971 193.639058 
L 142.181053 193.639059 
L 159.268134 193.639059 
L 176.355215 193.63906 
L 193.442297 193.639061 
L 210.529378 193.639061 
L 227.616459 193.639062 
L 244.703541 193.639064 
L 261.790622 193.639065 
L 278.877703 193.639067 
L 295.964785 193.639069 
L 313.051866 193.639071 
L 330.138947 193.639074 
L 347.226029 193.639076 
L 364.31311 193.639079 
L 381.400191 193.639081 
L 398.487273 193.639082 
" clip-path="url(#p35c6a8113e)" style="fill: none; stroke: #d62728; stroke-width: 1.5; stroke-linecap: square"/>
   </g>
   <g id="line2d_64">
    <path d="M 73.832727 193.607054 
L 90.919809 193.607058 
L 108.00689 193.607061 
L 125.093971 193.607064 
L 142.181053 193.607067 
L 159.268134 193.607069 
L 176.355215 193.60707 
L 193.442297 193.607072 
L 210.529378 193.607073 
L 227.616459 193.607073 
L 244.703541 193.607073 
L 261.790622 193.607073 
L 278.877703 193.607072 
L 295.964785 193.60707 
L 313.051866 193.607068 
L 330.138947 193.607066 
L 347.226029 193.607063 
L 364.31311 193.60706 
L 381.400191 193.607056 
L 398.487273 193.607052 
" clip-path="url(#p35c6a8113e)" style="fill: none; stroke: #9467bd; stroke-width: 1.5; stroke-linecap: square"/>
   </g>
   <g id="line2d_65">
    <path d="M 73.832727 192.167595 
L 90.919809 192.167592 
L 108.00689 192.167587 
L 125.093971 192.167578 
L 142.181053 192.167566 
L 159.268134 192.167552 
L 176.355215 192.167534 
L 193.442297 192.167514 
L 210.529378 192.16749 
L 227.616459 192.167464 
L 244.703541 192.167434 
L 261.790622 192.167402 
L 278.877703 192.167366 
L 295.964785 192.167328 
L 313.051866 192.167286 
L 330.138947 192.167241 
L 347.226029 192.167193 
L 364.31311 192.167143 
L 381.400191 192.167093 
L 398.487273 192.167053 
" clip-path="url(#p35c6a8113e)" style="fill: none; stroke: #8c564b; stroke-width: 1.5; stroke-linecap: square"/>
   </g>
   <g id="line2d_66">
    <path d="M 73.832727 191.823181 
L 90.919809 191.823188 
L 108.00689 191.823203 
L 125.093971 191.823224 
L 142.181053 191.823252 
L 159.268134 191.823286 
L 176.355215 191.823329 
L 193.442297 191.823377 
L 210.529378 191.823433 
L 227.616459 191.823495 
L 244.703541 191.823565 
L 261.790622 191.823641 
L 278.877703 191.823724 
L 295.964785 191.823814 
L 313.051866 191.82391 
L 330.138947 191.824014 
L 347.226029 191.824124 
L 364.31311 191.824239 
L 381.400191 191.824351 
L 398.487273 191.824435 
" clip-path="url(#p35c6a8113e)" style="fill: none; stroke: #e377c2; stroke-width: 1.5; stroke-linecap: square"/>
   </g>
   <g id="line2d_67">
    <path d="M 73.832727 191.814705 
L 90.919809 191.814713 
L 108.00689 191.814729 
L 125.093971 191.814752 
L 142.181053 191.814782 
L 159.268134 191.81482 
L 176.355215 191.814866 
L 193.442297 191.81492 
L 210.529378 191.814981 
L 227.616459 191.815049 
L 244.703541 191.815125 
L 261.790622 191.815209 
L 278.877703 191.8153 
L 295.964785 191.815399 
L 313.051866 191.815504 
L 330.138947 191.815615 
L 347.226029 191.815729 
L 364.31311 191.815841 
L 381.400191 191.815938 
L 398.487273 191.815998 
" clip-path="url(#p35c6a8113e)" style="fill: none; stroke: #7f7f7f; stroke-width: 1.5; stroke-linecap: square"/>
   </g>
   <g id="line2d_68">
    <path d="M 73.832727 180.656534 
L 90.919809 180.680876 
L 108.00689 180.704558 
L 125.093971 180.726876 
L 142.181053 180.747823 
L 159.268134 180.767415 
L 176.355215 180.785665 
L 193.442297 180.802584 
L 210.529378 180.818186 
L 227.616459 180.832479 
L 244.703541 180.845475 
L 261.790622 180.85718 
L 278.877703 180.867603 
L 295.964785 180.87675 
L 313.051866 180.884627 
L 330.138947 180.891239 
L 347.226029 180.896588 
L 364.31311 180.900676 
L 381.400191 180.903501 
L 398.487273 180.905039 
" clip-path="url(#p35c6a8113e)" style="fill: none; stroke: #bcbd22; stroke-width: 1.5; stroke-linecap: square"/>
   </g>
   <g id="line2d_69">
    <path d="M 73.832727 155.114952 
L 90.919809 155.099324 
L 108.00689 155.083954 
L 125.093971 155.069724 
L 142.181053 155.05654 
L 159.268134 155.044349 
L 176.355215 155.033123 
L 193.442297 155.022836 
L 210.529378 155.013466 
L 227.616459 155.004999 
L 244.703541 154.997415 
L 261.790622 154.990695 
L 278.877703 154.984829 
L 295.964785 154.9798 
L 313.051866 154.975599 
L 330.138947 154.972214 
L 347.226029 154.969634 
L 364.31311 154.96784 
L 381.400191 154.966798 
L 398.487273 154.966401 
" clip-path="url(#p35c6a8113e)" style="fill: none; stroke: #17becf; stroke-width: 1.5; stroke-linecap: square"/>
   </g>
   <g id="line2d_70">
    <path d="M 73.832727 153.958503 
L 90.919809 153.939603 
L 108.00689 153.915026 
L 125.093971 153.890264 
L 142.181053 153.866774 
L 159.268134 153.844841 
L 176.355215 153.824496 
L 193.442297 153.805726 
L 210.529378 153.788514 
L 227.616459 153.772844 
L 244.703541 153.758701 
L 261.790622 153.746074 
L 278.877703 153.734947 
L 295.964785 153.725311 
L 313.051866 153.717158 
L 330.138947 153.710475 
L 347.226029 153.705246 
L 364.31311 153.701447 
L 381.400191 153.699024 
L 398.487273 153.697876 
" clip-path="url(#p35c6a8113e)" style="fill: none; stroke: #1f77b4; stroke-width: 1.5; stroke-linecap: square"/>
   </g>
   <g id="line2d_71">
    <path d="M 73.832727 153.927464 
L 90.919809 153.91289 
L 108.00689 153.891011 
L 125.093971 153.867195 
L 142.181053 153.843838 
L 159.268134 153.821764 
L 176.355215 153.801207 
L 193.442297 153.782216 
L 210.529378 153.764793 
L 227.616459 153.748929 
L 244.703541 153.734609 
L 261.790622 153.721819 
L 278.877703 153.71055 
L 295.964785 153.700789 
L 313.051866 153.692525 
L 330.138947 153.685745 
L 347.226029 153.68043 
L 364.31311 153.676548 
L 381.400191 153.674042 
L 398.487273 153.672828 
" clip-path="url(#p35c6a8113e)" style="fill: none; stroke: #ff7f0e; stroke-width: 1.5; stroke-linecap: square"/>
   </g>
   <g id="line2d_72">
    <path d="M 73.832727 153.920406 
L 90.919809 153.908345 
L 108.00689 153.888915 
L 125.093971 153.866563 
L 142.181053 153.84389 
L 159.268134 153.822091 
L 176.355215 153.801633 
L 193.442297 153.782674 
L 210.529378 153.765261 
L 227.616459 153.749397 
L 244.703541 153.735075 
L 261.790622 153.722284 
L 278.877703 153.711011 
L 295.964785 153.701246 
L 313.051866 153.692976 
L 330.138947 153.686186 
L 347.226029 153.680854 
L 364.31311 153.676943 
L 381.400191 153.6744 
L 398.487273 153.673156 
" clip-path="url(#p35c6a8113e)" style="fill: none; stroke: #2ca02c; stroke-width: 1.5; stroke-linecap: square"/>
   </g>
   <g id="patch_15">
    <path d="M 57.6 197.46869 
L 57.6 151.58731 
" style="fill: none; stroke: #000000; stroke-width: 0.8; stroke-linejoin: miter; stroke-linecap: square"/>
   </g>
   <g id="patch_16">
    <path d="M 414.72 197.46869 
L 414.72 151.58731 
" style="fill: none; stroke: #000000; stroke-width: 0.8; stroke-linejoin: miter; stroke-linecap: square"/>
   </g>
   <g id="patch_17">
    <path d="M 57.6 197.46869 
L 414.72 197.46869 
" style="fill: none; stroke: #000000; stroke-width: 0.8; stroke-linejoin: miter; stroke-linecap: square"/>
   </g>
   <g id="patch_18">
    <path d="M 57.6 151.58731 
L 414.72 151.58731 
" style="fill: none; stroke: #000000; stroke-width: 0.8; stroke-linejoin: miter; stroke-linecap: square"/>
   </g>
   <g id="text_14">
    <!-- yA - Container 1 -->
    <g transform="translate(187.48125 148.58731)scale(0.12 -0.12)">
     <defs>
      <path id="DejaVuSans-41" d="M 2188 4044 
L 1331 1722 
L 3047 1722 
L 2188 4044 
z
M 1831 4666 
L 2547 4666 
L 4325 0 
L 3669 0 
L 3244 1197 
L 1141 1197 
L 716 0 
L 50 0 
L 1831 4666 
z
" transform="scale(0.015625)"/>
     </defs>
     <use xlink:href="#DejaVuSans-79"/>
     <use xlink:href="#DejaVuSans-41" x="59.179688"/>
     <use xlink:href="#DejaVuSans-20" x="127.587891"/>
     <use xlink:href="#DejaVuSans-2d" x="159.375"/>
     <use xlink:href="#DejaVuSans-20" x="195.458984"/>
     <use xlink:href="#DejaVuSans-43" x="227.246094"/>
     <use xlink:href="#DejaVuSans-6f" x="297.070312"/>
     <use xlink:href="#DejaVuSans-6e" x="358.251953"/>
     <use xlink:href="#DejaVuSans-74" x="421.630859"/>
     <use xlink:href="#DejaVuSans-61" x="460.839844"/>
     <use xlink:href="#DejaVuSans-69" x="522.119141"/>
     <use xlink:href="#DejaVuSans-6e" x="549.902344"/>
     <use xlink:href="#DejaVuSans-65" x="613.28125"/>
     <use xlink:href="#DejaVuSans-72" x="674.804688"/>
     <use xlink:href="#DejaVuSans-20" x="715.917969"/>
     <use xlink:href="#DejaVuSans-31" x="747.705078"/>
    </g>
   </g>
  </g>
  <g id="axes_5">
   <g id="patch_19">
    <path d="M 57.6 252.526345 
L 414.72 252.526345 
L 414.72 206.644966 
L 57.6 206.644966 
z
" style="fill: #ffffff"/>
   </g>
   <g id="matplotlib.axis_9">
    <g id="xtick_25">
     <g id="line2d_73">
      <g>
       <use xlink:href="#m96dc732b2c" x="73.832727" y="252.526345" style="stroke: #000000; stroke-width: 0.8"/>
      </g>
     </g>
    </g>
    <g id="xtick_26">
     <g id="line2d_74">
      <g>
       <use xlink:href="#m96dc732b2c" x="116.550431" y="252.526345" style="stroke: #000000; stroke-width: 0.8"/>
      </g>
     </g>
    </g>
    <g id="xtick_27">
     <g id="line2d_75">
      <g>
       <use xlink:href="#m96dc732b2c" x="159.268134" y="252.526345" style="stroke: #000000; stroke-width: 0.8"/>
      </g>
     </g>
    </g>
    <g id="xtick_28">
     <g id="line2d_76">
      <g>
       <use xlink:href="#m96dc732b2c" x="201.985837" y="252.526345" style="stroke: #000000; stroke-width: 0.8"/>
      </g>
     </g>
    </g>
    <g id="xtick_29">
     <g id="line2d_77">
      <g>
       <use xlink:href="#m96dc732b2c" x="244.703541" y="252.526345" style="stroke: #000000; stroke-width: 0.8"/>
      </g>
     </g>
    </g>
    <g id="xtick_30">
     <g id="line2d_78">
      <g>
       <use xlink:href="#m96dc732b2c" x="287.421244" y="252.526345" style="stroke: #000000; stroke-width: 0.8"/>
      </g>
     </g>
    </g>
    <g id="xtick_31">
     <g id="line2d_79">
      <g>
       <use xlink:href="#m96dc732b2c" x="330.138947" y="252.526345" style="stroke: #000000; stroke-width: 0.8"/>
      </g>
     </g>
    </g>
    <g id="xtick_32">
     <g id="line2d_80">
      <g>
       <use xlink:href="#m96dc732b2c" x="372.856651" y="252.526345" style="stroke: #000000; stroke-width: 0.8"/>
      </g>
     </g>
    </g>
   </g>
   <g id="matplotlib.axis_10">
    <g id="ytick_10">
     <g id="line2d_81">
      <g>
       <use xlink:href="#mdce3ef4d3f" x="57.6" y="232.396754" style="stroke: #000000; stroke-width: 0.8"/>
      </g>
     </g>
     <g id="text_15">
      <!-- 0.85 -->
      <g transform="translate(28.334375 236.195973)scale(0.1 -0.1)">
       <defs>
        <path id="DejaVuSans-38" d="M 2034 2216 
Q 1584 2216 1326 1975 
Q 1069 1734 1069 1313 
Q 1069 891 1326 650 
Q 1584 409 2034 409 
Q 2484 409 2743 651 
Q 3003 894 3003 1313 
Q 3003 1734 2745 1975 
Q 2488 2216 2034 2216 
z
M 1403 2484 
Q 997 2584 770 2862 
Q 544 3141 544 3541 
Q 544 4100 942 4425 
Q 1341 4750 2034 4750 
Q 2731 4750 3128 4425 
Q 3525 4100 3525 3541 
Q 3525 3141 3298 2862 
Q 3072 2584 2669 2484 
Q 3125 2378 3379 2068 
Q 3634 1759 3634 1313 
Q 3634 634 3220 271 
Q 2806 -91 2034 -91 
Q 1263 -91 848 271 
Q 434 634 434 1313 
Q 434 1759 690 2068 
Q 947 2378 1403 2484 
z
M 1172 3481 
Q 1172 3119 1398 2916 
Q 1625 2713 2034 2713 
Q 2441 2713 2670 2916 
Q 2900 3119 2900 3481 
Q 2900 3844 2670 4047 
Q 2441 4250 2034 4250 
Q 1625 4250 1398 4047 
Q 1172 3844 1172 3481 
z
" transform="scale(0.015625)"/>
       </defs>
       <use xlink:href="#DejaVuSans-30"/>
       <use xlink:href="#DejaVuSans-2e" x="63.623047"/>
       <use xlink:href="#DejaVuSans-38" x="95.410156"/>
       <use xlink:href="#DejaVuSans-35" x="159.033203"/>
      </g>
     </g>
    </g>
    <g id="ytick_11">
     <g id="line2d_82">
      <g>
       <use xlink:href="#mdce3ef4d3f" x="57.6" y="210.475453" style="stroke: #000000; stroke-width: 0.8"/>
      </g>
     </g>
     <g id="text_16">
      <!-- 0.90 -->
      <g transform="translate(28.334375 214.274672)scale(0.1 -0.1)">
       <defs>
        <path id="DejaVuSans-39" d="M 703 97 
L 703 672 
Q 941 559 1184 500 
Q 1428 441 1663 441 
Q 2288 441 2617 861 
Q 2947 1281 2994 2138 
Q 2813 1869 2534 1725 
Q 2256 1581 1919 1581 
Q 1219 1581 811 2004 
Q 403 2428 403 3163 
Q 403 3881 828 4315 
Q 1253 4750 1959 4750 
Q 2769 4750 3195 4129 
Q 3622 3509 3622 2328 
Q 3622 1225 3098 567 
Q 2575 -91 1691 -91 
Q 1453 -91 1209 -44 
Q 966 3 703 97 
z
M 1959 2075 
Q 2384 2075 2632 2365 
Q 2881 2656 2881 3163 
Q 2881 3666 2632 3958 
Q 2384 4250 1959 4250 
Q 1534 4250 1286 3958 
Q 1038 3666 1038 3163 
Q 1038 2656 1286 2365 
Q 1534 2075 1959 2075 
z
" transform="scale(0.015625)"/>
       </defs>
       <use xlink:href="#DejaVuSans-30"/>
       <use xlink:href="#DejaVuSans-2e" x="63.623047"/>
       <use xlink:href="#DejaVuSans-39" x="95.410156"/>
       <use xlink:href="#DejaVuSans-30" x="159.033203"/>
      </g>
     </g>
    </g>
   </g>
   <g id="line2d_83">
    <path d="M 73.832727 250.159917 
L 90.919809 250.17104 
L 108.00689 250.189436 
L 125.093971 250.211085 
L 142.181053 250.233396 
L 159.268134 250.255058 
L 176.355215 250.275499 
L 193.442297 250.294496 
L 210.529378 250.311971 
L 227.616459 250.327903 
L 244.703541 250.342292 
L 261.790622 250.355146 
L 278.877703 250.366476 
L 295.964785 250.376292 
L 313.051866 250.384608 
L 330.138947 250.39144 
L 347.226029 250.396812 
L 364.31311 250.400759 
L 381.400191 250.403333 
L 398.487273 250.404596 
" clip-path="url(#pfbddd529a1)" style="fill: none; stroke: #1f77b4; stroke-width: 1.5; stroke-linecap: square"/>
   </g>
   <g id="line2d_84">
    <path d="M 73.832727 210.429345 
L 90.919809 210.339433 
L 108.00689 210.314094 
L 125.093971 210.27119 
L 142.181053 210.202813 
L 159.268134 210.117873 
L 176.355215 210.023061 
L 193.442297 209.920869 
L 210.529378 209.81096 
L 227.616459 209.691599 
L 244.703541 209.560471 
L 261.790622 209.414984 
L 278.877703 209.252599 
L 295.964785 209.072633 
L 313.051866 208.884072 
L 330.138947 208.730483 
L 347.226029 208.74271 
L 364.31311 209.171765 
L 381.400191 210.189095 
L 398.487273 211.297791 
" clip-path="url(#pfbddd529a1)" style="fill: none; stroke: #ff7f0e; stroke-width: 1.5; stroke-linecap: square"/>
   </g>
   <g id="line2d_85">
    <path d="M 73.832727 210.475443 
L 90.919809 210.475418 
L 108.00689 210.47534 
L 125.093971 210.475256 
L 142.181053 210.475261 
L 159.268134 210.475267 
L 176.355215 210.474938 
L 193.442297 210.473974 
L 210.529378 210.472411 
L 227.616459 210.470632 
L 244.703541 210.46904 
L 261.790622 210.467688 
L 278.877703 210.466101 
L 295.964785 210.463359 
L 313.051866 210.458328 
L 330.138947 210.449888 
L 347.226029 210.437063 
L 364.31311 210.419054 
L 381.400191 210.395194 
L 398.487273 210.365294 
" clip-path="url(#pfbddd529a1)" style="fill: none; stroke: #2ca02c; stroke-width: 1.5; stroke-linecap: square"/>
   </g>
   <g id="line2d_86">
    <path d="M 73.832727 210.475453 
L 90.919809 210.475453 
L 108.00689 210.475453 
L 125.093971 210.475453 
L 142.181053 210.475452 
L 159.268134 210.475452 
L 176.355215 210.475451 
L 193.442297 210.47545 
L 210.529378 210.475449 
L 227.616459 210.475448 
L 244.703541 210.475447 
L 261.790622 210.475446 
L 278.877703 210.475444 
L 295.964785 210.475442 
L 313.051866 210.47544 
L 330.138947 210.475437 
L 347.226029 210.475434 
L 364.31311 210.475432 
L 381.400191 210.47543 
L 398.487273 210.475428 
" clip-path="url(#pfbddd529a1)" style="fill: none; stroke: #d62728; stroke-width: 1.5; stroke-linecap: square"/>
   </g>
   <g id="line2d_87">
    <path d="M 73.832727 210.507517 
L 90.919809 210.507513 
L 108.00689 210.50751 
L 125.093971 210.507507 
L 142.181053 210.507504 
L 159.268134 210.507502 
L 176.355215 210.5075 
L 193.442297 210.507499 
L 210.529378 210.507498 
L 227.616459 210.507498 
L 244.703541 210.507498 
L 261.790622 210.507498 
L 278.877703 210.507499 
L 295.964785 210.5075 
L 313.051866 210.507502 
L 330.138947 210.507505 
L 347.226029 210.507507 
L 364.31311 210.507511 
L 381.400191 210.507515 
L 398.487273 210.507519 
" clip-path="url(#pfbddd529a1)" style="fill: none; stroke: #9467bd; stroke-width: 1.5; stroke-linecap: square"/>
   </g>
   <g id="line2d_88">
    <path d="M 73.832727 211.948854 
L 90.919809 211.948857 
L 108.00689 211.948863 
L 125.093971 211.948871 
L 142.181053 211.948883 
L 159.268134 211.948897 
L 176.355215 211.948915 
L 193.442297 211.948935 
L 210.529378 211.948959 
L 227.616459 211.948985 
L 244.703541 211.949015 
L 261.790622 211.949047 
L 278.877703 211.949083 
L 295.964785 211.949122 
L 313.051866 211.949163 
L 330.138947 211.949208 
L 347.226029 211.949256 
L 364.31311 211.949306 
L 381.400191 211.949357 
L 398.487273 211.949396 
" clip-path="url(#pfbddd529a1)" style="fill: none; stroke: #8c564b; stroke-width: 1.5; stroke-linecap: square"/>
   </g>
   <g id="line2d_89">
    <path d="M 73.832727 212.293346 
L 90.919809 212.293339 
L 108.00689 212.293325 
L 125.093971 212.293304 
L 142.181053 212.293276 
L 159.268134 212.293241 
L 176.355215 212.293199 
L 193.442297 212.29315 
L 210.529378 212.293094 
L 227.616459 212.293032 
L 244.703541 212.292962 
L 261.790622 212.292886 
L 278.877703 212.292803 
L 295.964785 212.292713 
L 313.051866 212.292616 
L 330.138947 212.292513 
L 347.226029 212.292403 
L 364.31311 212.292288 
L 381.400191 212.292176 
L 398.487273 212.292091 
" clip-path="url(#pfbddd529a1)" style="fill: none; stroke: #e377c2; stroke-width: 1.5; stroke-linecap: square"/>
   </g>
   <g id="line2d_90">
    <path d="M 73.832727 212.301812 
L 90.919809 212.301804 
L 108.00689 212.301789 
L 125.093971 212.301765 
L 142.181053 212.301735 
L 159.268134 212.301697 
L 176.355215 212.301651 
L 193.442297 212.301597 
L 210.529378 212.301536 
L 227.616459 212.301468 
L 244.703541 212.301391 
L 261.790622 212.301308 
L 278.877703 212.301217 
L 295.964785 212.301118 
L 313.051866 212.301013 
L 330.138947 212.300901 
L 347.226029 212.300787 
L 364.31311 212.300675 
L 381.400191 212.300578 
L 398.487273 212.300518 
" clip-path="url(#pfbddd529a1)" style="fill: none; stroke: #7f7f7f; stroke-width: 1.5; stroke-linecap: square"/>
   </g>
   <g id="line2d_91">
    <path d="M 73.832727 223.46995 
L 90.919809 223.445585 
L 108.00689 223.421881 
L 125.093971 223.399543 
L 142.181053 223.378576 
L 159.268134 223.358966 
L 176.355215 223.3407 
L 193.442297 223.323765 
L 210.529378 223.308149 
L 227.616459 223.293842 
L 244.703541 223.280835 
L 261.790622 223.269119 
L 278.877703 223.258686 
L 295.964785 223.24953 
L 313.051866 223.241646 
L 330.138947 223.235028 
L 347.226029 223.229674 
L 364.31311 223.225582 
L 381.400191 223.222755 
L 398.487273 223.221215 
" clip-path="url(#pfbddd529a1)" style="fill: none; stroke: #bcbd22; stroke-width: 1.5; stroke-linecap: square"/>
   </g>
   <g id="line2d_92">
    <path d="M 73.832727 249.001149 
L 90.919809 249.016801 
L 108.00689 249.032194 
L 125.093971 249.046446 
L 142.181053 249.05965 
L 159.268134 249.071861 
L 176.355215 249.083105 
L 193.442297 249.093409 
L 210.529378 249.102794 
L 227.616459 249.111275 
L 244.703541 249.118871 
L 261.790622 249.125602 
L 278.877703 249.131478 
L 295.964785 249.136516 
L 313.051866 249.140724 
L 330.138947 249.144115 
L 347.226029 249.1467 
L 364.31311 249.148497 
L 381.400191 249.149542 
L 398.487273 249.149939 
" clip-path="url(#pfbddd529a1)" style="fill: none; stroke: #17becf; stroke-width: 1.5; stroke-linecap: square"/>
   </g>
   <g id="line2d_93">
    <path d="M 73.832727 250.155044 
L 90.919809 250.17397 
L 108.00689 250.198571 
L 125.093971 250.223354 
L 142.181053 250.246862 
L 159.268134 250.268811 
L 176.355215 250.289171 
L 193.442297 250.307955 
L 210.529378 250.325179 
L 227.616459 250.34086 
L 244.703541 250.355013 
L 261.790622 250.367649 
L 278.877703 250.378784 
L 295.964785 250.388427 
L 313.051866 250.396586 
L 330.138947 250.403274 
L 347.226029 250.408506 
L 364.31311 250.412308 
L 381.400191 250.414732 
L 398.487273 250.415882 
" clip-path="url(#pfbddd529a1)" style="fill: none; stroke: #1f77b4; stroke-width: 1.5; stroke-linecap: square"/>
   </g>
   <g id="line2d_94">
    <path d="M 73.832727 250.185975 
L 90.919809 250.200571 
L 108.00689 250.222478 
L 125.093971 250.24632 
L 142.181053 250.269697 
L 159.268134 250.291789 
L 176.355215 250.312361 
L 193.442297 250.331365 
L 210.529378 250.3488 
L 227.616459 250.364676 
L 244.703541 250.379005 
L 261.790622 250.391803 
L 278.877703 250.403081 
L 295.964785 250.412848 
L 313.051866 250.421118 
L 330.138947 250.427902 
L 347.226029 250.433221 
L 364.31311 250.437105 
L 381.400191 250.439612 
L 398.487273 250.440828 
" clip-path="url(#pfbddd529a1)" style="fill: none; stroke: #ff7f0e; stroke-width: 1.5; stroke-linecap: square"/>
   </g>
   <g id="line2d_95">
    <path d="M 73.832727 250.19303 
L 90.919809 250.205109 
L 108.00689 250.224567 
L 125.093971 250.246947 
L 142.181053 250.269644 
L 159.268134 250.291462 
L 176.355215 250.311938 
L 193.442297 250.33091 
L 210.529378 250.348336 
L 227.616459 250.364211 
L 244.703541 250.378543 
L 261.790622 250.391343 
L 278.877703 250.402623 
L 295.964785 250.412395 
L 313.051866 250.42067 
L 330.138947 250.427465 
L 347.226029 250.432801 
L 364.31311 250.436714 
L 381.400191 250.439259 
L 398.487273 250.440504 
" clip-path="url(#pfbddd529a1)" style="fill: none; stroke: #2ca02c; stroke-width: 1.5; stroke-linecap: square"/>
   </g>
   <g id="patch_20">
    <path d="M 57.6 252.526345 
L 57.6 206.644966 
" style="fill: none; stroke: #000000; stroke-width: 0.8; stroke-linejoin: miter; stroke-linecap: square"/>
   </g>
   <g id="patch_21">
    <path d="M 414.72 252.526345 
L 414.72 206.644966 
" style="fill: none; stroke: #000000; stroke-width: 0.8; stroke-linejoin: miter; stroke-linecap: square"/>
   </g>
   <g id="patch_22">
    <path d="M 57.6 252.526345 
L 414.72 252.526345 
" style="fill: none; stroke: #000000; stroke-width: 0.8; stroke-linejoin: miter; stroke-linecap: square"/>
   </g>
   <g id="patch_23">
    <path d="M 57.6 206.644966 
L 414.72 206.644966 
" style="fill: none; stroke: #000000; stroke-width: 0.8; stroke-linejoin: miter; stroke-linecap: square"/>
   </g>
   <g id="text_17">
    <!-- yB - Container 1 -->
    <g transform="translate(187.469063 203.644966)scale(0.12 -0.12)">
     <defs>
      <path id="DejaVuSans-42" d="M 1259 2228 
L 1259 519 
L 2272 519 
Q 2781 519 3026 730 
Q 3272 941 3272 1375 
Q 3272 1813 3026 2020 
Q 2781 2228 2272 2228 
L 1259 2228 
z
M 1259 4147 
L 1259 2741 
L 2194 2741 
Q 2656 2741 2882 2914 
Q 3109 3088 3109 3444 
Q 3109 3797 2882 3972 
Q 2656 4147 2194 4147 
L 1259 4147 
z
M 628 4666 
L 2241 4666 
Q 2963 4666 3353 4366 
Q 3744 4066 3744 3513 
Q 3744 3084 3544 2831 
Q 3344 2578 2956 2516 
Q 3422 2416 3680 2098 
Q 3938 1781 3938 1306 
Q 3938 681 3513 340 
Q 3088 0 2303 0 
L 628 0 
L 628 4666 
z
" transform="scale(0.015625)"/>
     </defs>
     <use xlink:href="#DejaVuSans-79"/>
     <use xlink:href="#DejaVuSans-42" x="59.179688"/>
     <use xlink:href="#DejaVuSans-20" x="127.783203"/>
     <use xlink:href="#DejaVuSans-2d" x="159.570312"/>
     <use xlink:href="#DejaVuSans-20" x="195.654297"/>
     <use xlink:href="#DejaVuSans-43" x="227.441406"/>
     <use xlink:href="#DejaVuSans-6f" x="297.265625"/>
     <use xlink:href="#DejaVuSans-6e" x="358.447266"/>
     <use xlink:href="#DejaVuSans-74" x="421.826172"/>
     <use xlink:href="#DejaVuSans-61" x="461.035156"/>
     <use xlink:href="#DejaVuSans-69" x="522.314453"/>
     <use xlink:href="#DejaVuSans-6e" x="550.097656"/>
     <use xlink:href="#DejaVuSans-65" x="613.476562"/>
     <use xlink:href="#DejaVuSans-72" x="675"/>
     <use xlink:href="#DejaVuSans-20" x="716.113281"/>
     <use xlink:href="#DejaVuSans-31" x="747.900391"/>
    </g>
   </g>
  </g>
  <g id="axes_6">
   <g id="patch_24">
    <path d="M 57.6 307.584 
L 414.72 307.584 
L 414.72 261.702621 
L 57.6 261.702621 
z
" style="fill: #ffffff"/>
   </g>
   <g id="matplotlib.axis_11">
    <g id="xtick_33">
     <g id="line2d_96">
      <g>
       <use xlink:href="#m96dc732b2c" x="73.832727" y="307.584" style="stroke: #000000; stroke-width: 0.8"/>
      </g>
     </g>
     <g id="text_18">
      <!-- 0.0 -->
      <g transform="translate(65.881165 322.182437)scale(0.1 -0.1)">
       <use xlink:href="#DejaVuSans-30"/>
       <use xlink:href="#DejaVuSans-2e" x="63.623047"/>
       <use xlink:href="#DejaVuSans-30" x="95.410156"/>
      </g>
     </g>
    </g>
    <g id="xtick_34">
     <g id="line2d_97">
      <g>
       <use xlink:href="#m96dc732b2c" x="116.550431" y="307.584" style="stroke: #000000; stroke-width: 0.8"/>
      </g>
     </g>
     <g id="text_19">
      <!-- 2.5 -->
      <g transform="translate(108.598868 322.182437)scale(0.1 -0.1)">
       <defs>
        <path id="DejaVuSans-32" d="M 1228 531 
L 3431 531 
L 3431 0 
L 469 0 
L 469 531 
Q 828 903 1448 1529 
Q 2069 2156 2228 2338 
Q 2531 2678 2651 2914 
Q 2772 3150 2772 3378 
Q 2772 3750 2511 3984 
Q 2250 4219 1831 4219 
Q 1534 4219 1204 4116 
Q 875 4013 500 3803 
L 500 4441 
Q 881 4594 1212 4672 
Q 1544 4750 1819 4750 
Q 2544 4750 2975 4387 
Q 3406 4025 3406 3419 
Q 3406 3131 3298 2873 
Q 3191 2616 2906 2266 
Q 2828 2175 2409 1742 
Q 1991 1309 1228 531 
z
" transform="scale(0.015625)"/>
       </defs>
       <use xlink:href="#DejaVuSans-32"/>
       <use xlink:href="#DejaVuSans-2e" x="63.623047"/>
       <use xlink:href="#DejaVuSans-35" x="95.410156"/>
      </g>
     </g>
    </g>
    <g id="xtick_35">
     <g id="line2d_98">
      <g>
       <use xlink:href="#m96dc732b2c" x="159.268134" y="307.584" style="stroke: #000000; stroke-width: 0.8"/>
      </g>
     </g>
     <g id="text_20">
      <!-- 5.0 -->
      <g transform="translate(151.316571 322.182437)scale(0.1 -0.1)">
       <use xlink:href="#DejaVuSans-35"/>
       <use xlink:href="#DejaVuSans-2e" x="63.623047"/>
       <use xlink:href="#DejaVuSans-30" x="95.410156"/>
      </g>
     </g>
    </g>
    <g id="xtick_36">
     <g id="line2d_99">
      <g>
       <use xlink:href="#m96dc732b2c" x="201.985837" y="307.584" style="stroke: #000000; stroke-width: 0.8"/>
      </g>
     </g>
     <g id="text_21">
      <!-- 7.5 -->
      <g transform="translate(194.034275 322.182437)scale(0.1 -0.1)">
       <defs>
        <path id="DejaVuSans-37" d="M 525 4666 
L 3525 4666 
L 3525 4397 
L 1831 0 
L 1172 0 
L 2766 4134 
L 525 4134 
L 525 4666 
z
" transform="scale(0.015625)"/>
       </defs>
       <use xlink:href="#DejaVuSans-37"/>
       <use xlink:href="#DejaVuSans-2e" x="63.623047"/>
       <use xlink:href="#DejaVuSans-35" x="95.410156"/>
      </g>
     </g>
    </g>
    <g id="xtick_37">
     <g id="line2d_100">
      <g>
       <use xlink:href="#m96dc732b2c" x="244.703541" y="307.584" style="stroke: #000000; stroke-width: 0.8"/>
      </g>
     </g>
     <g id="text_22">
      <!-- 10.0 -->
      <g transform="translate(233.570728 322.182437)scale(0.1 -0.1)">
       <use xlink:href="#DejaVuSans-31"/>
       <use xlink:href="#DejaVuSans-30" x="63.623047"/>
       <use xlink:href="#DejaVuSans-2e" x="127.246094"/>
       <use xlink:href="#DejaVuSans-30" x="159.033203"/>
      </g>
     </g>
    </g>
    <g id="xtick_38">
     <g id="line2d_101">
      <g>
       <use xlink:href="#m96dc732b2c" x="287.421244" y="307.584" style="stroke: #000000; stroke-width: 0.8"/>
      </g>
     </g>
     <g id="text_23">
      <!-- 12.5 -->
      <g transform="translate(276.288432 322.182437)scale(0.1 -0.1)">
       <use xlink:href="#DejaVuSans-31"/>
       <use xlink:href="#DejaVuSans-32" x="63.623047"/>
       <use xlink:href="#DejaVuSans-2e" x="127.246094"/>
       <use xlink:href="#DejaVuSans-35" x="159.033203"/>
      </g>
     </g>
    </g>
    <g id="xtick_39">
     <g id="line2d_102">
      <g>
       <use xlink:href="#m96dc732b2c" x="330.138947" y="307.584" style="stroke: #000000; stroke-width: 0.8"/>
      </g>
     </g>
     <g id="text_24">
      <!-- 15.0 -->
      <g transform="translate(319.006135 322.182437)scale(0.1 -0.1)">
       <use xlink:href="#DejaVuSans-31"/>
       <use xlink:href="#DejaVuSans-35" x="63.623047"/>
       <use xlink:href="#DejaVuSans-2e" x="127.246094"/>
       <use xlink:href="#DejaVuSans-30" x="159.033203"/>
      </g>
     </g>
    </g>
    <g id="xtick_40">
     <g id="line2d_103">
      <g>
       <use xlink:href="#m96dc732b2c" x="372.856651" y="307.584" style="stroke: #000000; stroke-width: 0.8"/>
      </g>
     </g>
     <g id="text_25">
      <!-- 17.5 -->
      <g transform="translate(361.723838 322.182437)scale(0.1 -0.1)">
       <use xlink:href="#DejaVuSans-31"/>
       <use xlink:href="#DejaVuSans-37" x="63.623047"/>
       <use xlink:href="#DejaVuSans-2e" x="127.246094"/>
       <use xlink:href="#DejaVuSans-35" x="159.033203"/>
      </g>
     </g>
    </g>
    <g id="text_26">
     <!-- position z -->
     <g transform="translate(212.142031 335.860562)scale(0.1 -0.1)">
      <defs>
       <path id="DejaVuSans-70" d="M 1159 525 
L 1159 -1331 
L 581 -1331 
L 581 3500 
L 1159 3500 
L 1159 2969 
Q 1341 3281 1617 3432 
Q 1894 3584 2278 3584 
Q 2916 3584 3314 3078 
Q 3713 2572 3713 1747 
Q 3713 922 3314 415 
Q 2916 -91 2278 -91 
Q 1894 -91 1617 61 
Q 1341 213 1159 525 
z
M 3116 1747 
Q 3116 2381 2855 2742 
Q 2594 3103 2138 3103 
Q 1681 3103 1420 2742 
Q 1159 2381 1159 1747 
Q 1159 1113 1420 752 
Q 1681 391 2138 391 
Q 2594 391 2855 752 
Q 3116 1113 3116 1747 
z
" transform="scale(0.015625)"/>
      </defs>
      <use xlink:href="#DejaVuSans-70"/>
      <use xlink:href="#DejaVuSans-6f" x="63.476562"/>
      <use xlink:href="#DejaVuSans-73" x="124.658203"/>
      <use xlink:href="#DejaVuSans-69" x="176.757812"/>
      <use xlink:href="#DejaVuSans-74" x="204.541016"/>
      <use xlink:href="#DejaVuSans-69" x="243.75"/>
      <use xlink:href="#DejaVuSans-6f" x="271.533203"/>
      <use xlink:href="#DejaVuSans-6e" x="332.714844"/>
      <use xlink:href="#DejaVuSans-20" x="396.09375"/>
      <use xlink:href="#DejaVuSans-7a" x="427.880859"/>
     </g>
    </g>
   </g>
   <g id="matplotlib.axis_12">
    <g id="ytick_12">
     <g id="line2d_104">
      <g>
       <use xlink:href="#mdce3ef4d3f" x="57.6" y="303.58091" style="stroke: #000000; stroke-width: 0.8"/>
      </g>
     </g>
     <g id="text_27">
      <!-- 0.045 -->
      <g transform="translate(21.971875 307.380129)scale(0.1 -0.1)">
       <defs>
        <path id="DejaVuSans-34" d="M 2419 4116 
L 825 1625 
L 2419 1625 
L 2419 4116 
z
M 2253 4666 
L 3047 4666 
L 3047 1625 
L 3713 1625 
L 3713 1100 
L 3047 1100 
L 3047 0 
L 2419 0 
L 2419 1100 
L 313 1100 
L 313 1709 
L 2253 4666 
z
" transform="scale(0.015625)"/>
       </defs>
       <use xlink:href="#DejaVuSans-30"/>
       <use xlink:href="#DejaVuSans-2e" x="63.623047"/>
       <use xlink:href="#DejaVuSans-30" x="95.410156"/>
       <use xlink:href="#DejaVuSans-34" x="159.033203"/>
       <use xlink:href="#DejaVuSans-35" x="222.65625"/>
      </g>
     </g>
    </g>
    <g id="ytick_13">
     <g id="line2d_105">
      <g>
       <use xlink:href="#mdce3ef4d3f" x="57.6" y="265.517393" style="stroke: #000000; stroke-width: 0.8"/>
      </g>
     </g>
     <g id="text_28">
      <!-- 0.050 -->
      <g transform="translate(21.971875 269.316612)scale(0.1 -0.1)">
       <use xlink:href="#DejaVuSans-30"/>
       <use xlink:href="#DejaVuSans-2e" x="63.623047"/>
       <use xlink:href="#DejaVuSans-30" x="95.410156"/>
       <use xlink:href="#DejaVuSans-35" x="159.033203"/>
       <use xlink:href="#DejaVuSans-30" x="222.65625"/>
      </g>
     </g>
    </g>
   </g>
   <g id="line2d_106">
    <path d="M 73.832727 305.22385 
L 90.919809 305.234634 
L 108.00689 305.252519 
L 125.093971 305.273635 
L 142.181053 305.295468 
L 159.268134 305.316721 
L 176.355215 305.336816 
L 193.442297 305.355516 
L 210.529378 305.372732 
L 227.616459 305.388436 
L 244.703541 305.402625 
L 261.790622 305.415303 
L 278.877703 305.426479 
L 295.964785 305.436164 
L 313.051866 305.44437 
L 330.138947 305.451113 
L 347.226029 305.456417 
L 364.31311 305.460316 
L 381.400191 305.462861 
L 398.487273 305.46411 
" clip-path="url(#p95316c21d8)" style="fill: none; stroke: #1f77b4; stroke-width: 1.5; stroke-linecap: square"/>
   </g>
   <g id="line2d_107">
    <path d="M 73.832727 265.472121 
L 90.919809 265.383362 
L 108.00689 265.358534 
L 125.093971 265.316333 
L 142.181053 265.248894 
L 159.268134 265.165023 
L 176.355215 265.071343 
L 193.442297 264.970317 
L 210.529378 264.861599 
L 227.616459 264.743448 
L 244.703541 264.613539 
L 261.790622 264.469255 
L 278.877703 264.308007 
L 295.964785 264.129033 
L 313.051866 263.941222 
L 330.138947 263.788138 
L 347.226029 263.800964 
L 364.31311 264.231467 
L 381.400191 265.251337 
L 398.487273 266.362199 
" clip-path="url(#p95316c21d8)" style="fill: none; stroke: #ff7f0e; stroke-width: 1.5; stroke-linecap: square"/>
   </g>
   <g id="line2d_108">
    <path d="M 73.832727 265.517386 
L 90.919809 265.517366 
L 108.00689 265.517296 
L 125.093971 265.517223 
L 142.181053 265.51724 
L 159.268134 265.517261 
L 176.355215 265.516958 
L 193.442297 265.516034 
L 210.529378 265.514526 
L 227.616459 265.51281 
L 244.703541 265.511286 
L 261.790622 265.510006 
L 278.877703 265.508502 
L 295.964785 265.505867 
L 313.051866 265.500982 
L 330.138947 265.492738 
L 347.226029 265.480165 
L 364.31311 265.462461 
L 381.400191 265.438957 
L 398.487273 265.409465 
" clip-path="url(#p95316c21d8)" style="fill: none; stroke: #2ca02c; stroke-width: 1.5; stroke-linecap: square"/>
   </g>
   <g id="line2d_109">
    <path d="M 73.832727 265.517393 
L 90.919809 265.517393 
L 108.00689 265.517393 
L 125.093971 265.517393 
L 142.181053 265.517393 
L 159.268134 265.517392 
L 176.355215 265.517392 
L 193.442297 265.517391 
L 210.529378 265.517391 
L 227.616459 265.51739 
L 244.703541 265.517389 
L 261.790622 265.517388 
L 278.877703 265.517387 
L 295.964785 265.517386 
L 313.051866 265.517385 
L 330.138947 265.517383 
L 347.226029 265.517381 
L 364.31311 265.517379 
L 381.400191 265.517378 
L 398.487273 265.517377 
" clip-path="url(#p95316c21d8)" style="fill: none; stroke: #d62728; stroke-width: 1.5; stroke-linecap: square"/>
   </g>
   <g id="line2d_110">
    <path d="M 73.832727 265.548359 
L 90.919809 265.548355 
L 108.00689 265.548352 
L 125.093971 265.548349 
L 142.181053 265.548347 
L 159.268134 265.548345 
L 176.355215 265.548343 
L 193.442297 265.548342 
L 210.529378 265.548341 
L 227.616459 265.548341 
L 244.703541 265.548341 
L 261.790622 265.548341 
L 278.877703 265.548342 
L 295.964785 265.548344 
L 313.051866 265.548346 
L 330.138947 265.548348 
L 347.226029 265.548351 
L 364.31311 265.548354 
L 381.400191 265.548358 
L 398.487273 265.548362 
" clip-path="url(#p95316c21d8)" style="fill: none; stroke: #9467bd; stroke-width: 1.5; stroke-linecap: square"/>
   </g>
   <g id="line2d_111">
    <path d="M 73.832727 266.9552 
L 90.919809 266.955203 
L 108.00689 266.955209 
L 125.093971 266.955218 
L 142.181053 266.955229 
L 159.268134 266.955244 
L 176.355215 266.955261 
L 193.442297 266.955282 
L 210.529378 266.955305 
L 227.616459 266.955332 
L 244.703541 266.955361 
L 261.790622 266.955394 
L 278.877703 266.955429 
L 295.964785 266.955467 
L 313.051866 266.955509 
L 330.138947 266.955554 
L 347.226029 266.955601 
L 364.31311 266.955651 
L 381.400191 266.955702 
L 398.487273 266.955741 
" clip-path="url(#p95316c21d8)" style="fill: none; stroke: #8c564b; stroke-width: 1.5; stroke-linecap: square"/>
   </g>
   <g id="line2d_112">
    <path d="M 73.832727 267.29825 
L 90.919809 267.298244 
L 108.00689 267.29823 
L 125.093971 267.298209 
L 142.181053 267.298181 
L 159.268134 267.298148 
L 176.355215 267.298106 
L 193.442297 267.298059 
L 210.529378 267.298004 
L 227.616459 267.297943 
L 244.703541 267.297875 
L 261.790622 267.2978 
L 278.877703 267.297719 
L 295.964785 267.297631 
L 313.051866 267.297536 
L 330.138947 267.297434 
L 347.226029 267.297326 
L 364.31311 267.297214 
L 381.400191 267.297104 
L 398.487273 267.297021 
" clip-path="url(#p95316c21d8)" style="fill: none; stroke: #e377c2; stroke-width: 1.5; stroke-linecap: square"/>
   </g>
   <g id="line2d_113">
    <path d="M 73.832727 267.30691 
L 90.919809 267.306902 
L 108.00689 267.306887 
L 125.093971 267.306864 
L 142.181053 267.306834 
L 159.268134 267.306797 
L 176.355215 267.306752 
L 193.442297 267.306699 
L 210.529378 267.30664 
L 227.616459 267.306573 
L 244.703541 267.306498 
L 261.790622 267.306416 
L 278.877703 267.306327 
L 295.964785 267.30623 
L 313.051866 267.306127 
L 330.138947 267.306018 
L 347.226029 267.305906 
L 364.31311 267.305796 
L 381.400191 267.305701 
L 398.487273 267.305642 
" clip-path="url(#p95316c21d8)" style="fill: none; stroke: #7f7f7f; stroke-width: 1.5; stroke-linecap: square"/>
   </g>
   <g id="line2d_114">
    <path d="M 73.832727 278.292012 
L 90.919809 278.268065 
L 108.00689 278.244765 
L 125.093971 278.222807 
L 142.181053 278.202197 
L 159.268134 278.18292 
L 176.355215 278.164964 
L 193.442297 278.148316 
L 210.529378 278.132965 
L 227.616459 278.118901 
L 244.703541 278.106113 
L 261.790622 278.094596 
L 278.877703 278.084339 
L 295.964785 278.075338 
L 313.051866 278.067587 
L 330.138947 278.06108 
L 347.226029 278.055816 
L 364.31311 278.051792 
L 381.400191 278.049011 
L 398.487273 278.047496 
" clip-path="url(#p95316c21d8)" style="fill: none; stroke: #bcbd22; stroke-width: 1.5; stroke-linecap: square"/>
   </g>
   <g id="line2d_115">
    <path d="M 73.832727 304.013882 
L 90.919809 304.029102 
L 108.00689 304.044069 
L 125.093971 304.057917 
L 142.181053 304.070743 
L 159.268134 304.082599 
L 176.355215 304.093516 
L 193.442297 304.103516 
L 210.529378 304.112622 
L 227.616459 304.12085 
L 244.703541 304.128217 
L 261.790622 304.134743 
L 278.877703 304.140437 
L 295.964785 304.145317 
L 313.051866 304.149391 
L 330.138947 304.152671 
L 347.226029 304.155169 
L 364.31311 304.156902 
L 381.400191 304.157908 
L 398.487273 304.15829 
" clip-path="url(#p95316c21d8)" style="fill: none; stroke: #17becf; stroke-width: 1.5; stroke-linecap: square"/>
   </g>
   <g id="line2d_116">
    <path d="M 73.832727 305.214681 
L 90.919809 305.233148 
L 108.00689 305.257282 
L 125.093971 305.281682 
L 142.181053 305.304863 
L 159.268134 305.32652 
L 176.355215 305.346611 
L 193.442297 305.365148 
L 210.529378 305.382145 
L 227.616459 305.397619 
L 244.703541 305.411585 
L 261.790622 305.424055 
L 278.877703 305.435042 
L 295.964785 305.444558 
L 313.051866 305.452609 
L 330.138947 305.45921 
L 347.226029 305.464374 
L 364.31311 305.468129 
L 381.400191 305.470527 
L 398.487273 305.471665 
" clip-path="url(#p95316c21d8)" style="fill: none; stroke: #1f77b4; stroke-width: 1.5; stroke-linecap: square"/>
   </g>
   <g id="line2d_117">
    <path d="M 73.832727 305.247597 
L 90.919809 305.261785 
L 108.00689 305.283173 
L 125.093971 305.306552 
L 142.181053 305.329549 
L 159.268134 305.351323 
L 176.355215 305.37162 
L 193.442297 305.390378 
L 210.529378 305.407592 
L 227.616459 305.423267 
L 244.703541 305.437416 
L 261.790622 305.450053 
L 278.877703 305.461189 
L 295.964785 305.470834 
L 313.051866 305.479001 
L 330.138947 305.485703 
L 347.226029 305.490957 
L 364.31311 305.494797 
L 381.400191 305.497279 
L 398.487273 305.498483 
" clip-path="url(#p95316c21d8)" style="fill: none; stroke: #ff7f0e; stroke-width: 1.5; stroke-linecap: square"/>
   </g>
   <g id="line2d_118">
    <path d="M 73.832727 305.254719 
L 90.919809 305.266445 
L 108.00689 305.285394 
L 125.093971 305.30727 
L 142.181053 305.32953 
L 159.268134 305.350985 
L 176.355215 305.371155 
L 193.442297 305.389864 
L 210.529378 305.407059 
L 227.616459 305.422729 
L 244.703541 305.436878 
L 261.790622 305.449517 
L 278.877703 305.460656 
L 295.964785 305.470306 
L 313.051866 305.478479 
L 330.138947 305.485192 
L 347.226029 305.490465 
L 364.31311 305.494334 
L 381.400191 305.496852 
L 398.487273 305.498085 
" clip-path="url(#p95316c21d8)" style="fill: none; stroke: #2ca02c; stroke-width: 1.5; stroke-linecap: square"/>
   </g>
   <g id="patch_25">
    <path d="M 57.6 307.584 
L 57.6 261.702621 
" style="fill: none; stroke: #000000; stroke-width: 0.8; stroke-linejoin: miter; stroke-linecap: square"/>
   </g>
   <g id="patch_26">
    <path d="M 414.72 307.584 
L 414.72 261.702621 
" style="fill: none; stroke: #000000; stroke-width: 0.8; stroke-linejoin: miter; stroke-linecap: square"/>
   </g>
   <g id="patch_27">
    <path d="M 57.6 307.584 
L 414.72 307.584 
" style="fill: none; stroke: #000000; stroke-width: 0.8; stroke-linejoin: miter; stroke-linecap: square"/>
   </g>
   <g id="patch_28">
    <path d="M 57.6 261.702621 
L 414.72 261.702621 
" style="fill: none; stroke: #000000; stroke-width: 0.8; stroke-linejoin: miter; stroke-linecap: square"/>
   </g>
   <g id="text_29">
    <!-- yC - Container 1 -->
    <g transform="translate(187.395938 258.702621)scale(0.12 -0.12)">
     <use xlink:href="#DejaVuSans-79"/>
     <use xlink:href="#DejaVuSans-43" x="59.179688"/>
     <use xlink:href="#DejaVuSans-20" x="129.003906"/>
     <use xlink:href="#DejaVuSans-2d" x="160.791016"/>
     <use xlink:href="#DejaVuSans-20" x="196.875"/>
     <use xlink:href="#DejaVuSans-43" x="228.662109"/>
     <use xlink:href="#DejaVuSans-6f" x="298.486328"/>
     <use xlink:href="#DejaVuSans-6e" x="359.667969"/>
     <use xlink:href="#DejaVuSans-74" x="423.046875"/>
     <use xlink:href="#DejaVuSans-61" x="462.255859"/>
     <use xlink:href="#DejaVuSans-69" x="523.535156"/>
     <use xlink:href="#DejaVuSans-6e" x="551.318359"/>
     <use xlink:href="#DejaVuSans-65" x="614.697266"/>
     <use xlink:href="#DejaVuSans-72" x="676.220703"/>
     <use xlink:href="#DejaVuSans-20" x="717.333984"/>
     <use xlink:href="#DejaVuSans-31" x="749.121094"/>
    </g>
   </g>
  </g>
  <g id="legend_1">
   <g id="patch_29">
    <path d="M 372.146875 269.707812 
L 457.8 269.707812 
Q 459.8 269.707812 459.8 267.707812 
L 459.8 77.892187 
Q 459.8 75.892187 457.8 75.892187 
L 372.146875 75.892187 
Q 370.146875 75.892187 370.146875 77.892187 
L 370.146875 267.707812 
Q 370.146875 269.707812 372.146875 269.707812 
z
" style="fill: #ffffff; opacity: 0.8; stroke: #cccccc; stroke-linejoin: miter"/>
   </g>
   <g id="line2d_119">
    <path d="M 374.146875 83.990625 
L 384.146875 83.990625 
L 394.146875 83.990625 
" style="fill: none; stroke: #1f77b4; stroke-width: 1.5; stroke-linecap: square"/>
   </g>
   <g id="text_30">
    <!-- t=0.0000 -->
    <g transform="translate(402.146875 87.490625)scale(0.1 -0.1)">
     <defs>
      <path id="DejaVuSans-3d" d="M 678 2906 
L 4684 2906 
L 4684 2381 
L 678 2381 
L 678 2906 
z
M 678 1631 
L 4684 1631 
L 4684 1100 
L 678 1100 
L 678 1631 
z
" transform="scale(0.015625)"/>
     </defs>
     <use xlink:href="#DejaVuSans-74"/>
     <use xlink:href="#DejaVuSans-3d" x="39.208984"/>
     <use xlink:href="#DejaVuSans-30" x="122.998047"/>
     <use xlink:href="#DejaVuSans-2e" x="186.621094"/>
     <use xlink:href="#DejaVuSans-30" x="218.408203"/>
     <use xlink:href="#DejaVuSans-30" x="282.03125"/>
     <use xlink:href="#DejaVuSans-30" x="345.654297"/>
     <use xlink:href="#DejaVuSans-30" x="409.277344"/>
    </g>
   </g>
   <g id="line2d_120">
    <path d="M 374.146875 98.66875 
L 384.146875 98.66875 
L 394.146875 98.66875 
" style="fill: none; stroke: #ff7f0e; stroke-width: 1.5; stroke-linecap: square"/>
   </g>
   <g id="text_31">
    <!-- t=8.0000 -->
    <g transform="translate(402.146875 102.16875)scale(0.1 -0.1)">
     <use xlink:href="#DejaVuSans-74"/>
     <use xlink:href="#DejaVuSans-3d" x="39.208984"/>
     <use xlink:href="#DejaVuSans-38" x="122.998047"/>
     <use xlink:href="#DejaVuSans-2e" x="186.621094"/>
     <use xlink:href="#DejaVuSans-30" x="218.408203"/>
     <use xlink:href="#DejaVuSans-30" x="282.03125"/>
     <use xlink:href="#DejaVuSans-30" x="345.654297"/>
     <use xlink:href="#DejaVuSans-30" x="409.277344"/>
    </g>
   </g>
   <g id="line2d_121">
    <path d="M 374.146875 113.346875 
L 384.146875 113.346875 
L 394.146875 113.346875 
" style="fill: none; stroke: #2ca02c; stroke-width: 1.5; stroke-linecap: square"/>
   </g>
   <g id="text_32">
    <!-- t=16.0000 -->
    <g transform="translate(402.146875 116.846875)scale(0.1 -0.1)">
     <defs>
      <path id="DejaVuSans-36" d="M 2113 2584 
Q 1688 2584 1439 2293 
Q 1191 2003 1191 1497 
Q 1191 994 1439 701 
Q 1688 409 2113 409 
Q 2538 409 2786 701 
Q 3034 994 3034 1497 
Q 3034 2003 2786 2293 
Q 2538 2584 2113 2584 
z
M 3366 4563 
L 3366 3988 
Q 3128 4100 2886 4159 
Q 2644 4219 2406 4219 
Q 1781 4219 1451 3797 
Q 1122 3375 1075 2522 
Q 1259 2794 1537 2939 
Q 1816 3084 2150 3084 
Q 2853 3084 3261 2657 
Q 3669 2231 3669 1497 
Q 3669 778 3244 343 
Q 2819 -91 2113 -91 
Q 1303 -91 875 529 
Q 447 1150 447 2328 
Q 447 3434 972 4092 
Q 1497 4750 2381 4750 
Q 2619 4750 2861 4703 
Q 3103 4656 3366 4563 
z
" transform="scale(0.015625)"/>
     </defs>
     <use xlink:href="#DejaVuSans-74"/>
     <use xlink:href="#DejaVuSans-3d" x="39.208984"/>
     <use xlink:href="#DejaVuSans-31" x="122.998047"/>
     <use xlink:href="#DejaVuSans-36" x="186.621094"/>
     <use xlink:href="#DejaVuSans-2e" x="250.244141"/>
     <use xlink:href="#DejaVuSans-30" x="282.03125"/>
     <use xlink:href="#DejaVuSans-30" x="345.654297"/>
     <use xlink:href="#DejaVuSans-30" x="409.277344"/>
     <use xlink:href="#DejaVuSans-30" x="472.900391"/>
    </g>
   </g>
   <g id="line2d_122">
    <path d="M 374.146875 128.025 
L 384.146875 128.025 
L 394.146875 128.025 
" style="fill: none; stroke: #d62728; stroke-width: 1.5; stroke-linecap: square"/>
   </g>
   <g id="text_33">
    <!-- t=24.0000 -->
    <g transform="translate(402.146875 131.525)scale(0.1 -0.1)">
     <use xlink:href="#DejaVuSans-74"/>
     <use xlink:href="#DejaVuSans-3d" x="39.208984"/>
     <use xlink:href="#DejaVuSans-32" x="122.998047"/>
     <use xlink:href="#DejaVuSans-34" x="186.621094"/>
     <use xlink:href="#DejaVuSans-2e" x="250.244141"/>
     <use xlink:href="#DejaVuSans-30" x="282.03125"/>
     <use xlink:href="#DejaVuSans-30" x="345.654297"/>
     <use xlink:href="#DejaVuSans-30" x="409.277344"/>
     <use xlink:href="#DejaVuSans-30" x="472.900391"/>
    </g>
   </g>
   <g id="line2d_123">
    <path d="M 374.146875 142.703125 
L 384.146875 142.703125 
L 394.146875 142.703125 
" style="fill: none; stroke: #9467bd; stroke-width: 1.5; stroke-linecap: square"/>
   </g>
   <g id="text_34">
    <!-- t=32.0000 -->
    <g transform="translate(402.146875 146.203125)scale(0.1 -0.1)">
     <defs>
      <path id="DejaVuSans-33" d="M 2597 2516 
Q 3050 2419 3304 2112 
Q 3559 1806 3559 1356 
Q 3559 666 3084 287 
Q 2609 -91 1734 -91 
Q 1441 -91 1130 -33 
Q 819 25 488 141 
L 488 750 
Q 750 597 1062 519 
Q 1375 441 1716 441 
Q 2309 441 2620 675 
Q 2931 909 2931 1356 
Q 2931 1769 2642 2001 
Q 2353 2234 1838 2234 
L 1294 2234 
L 1294 2753 
L 1863 2753 
Q 2328 2753 2575 2939 
Q 2822 3125 2822 3475 
Q 2822 3834 2567 4026 
Q 2313 4219 1838 4219 
Q 1578 4219 1281 4162 
Q 984 4106 628 3988 
L 628 4550 
Q 988 4650 1302 4700 
Q 1616 4750 1894 4750 
Q 2613 4750 3031 4423 
Q 3450 4097 3450 3541 
Q 3450 3153 3228 2886 
Q 3006 2619 2597 2516 
z
" transform="scale(0.015625)"/>
     </defs>
     <use xlink:href="#DejaVuSans-74"/>
     <use xlink:href="#DejaVuSans-3d" x="39.208984"/>
     <use xlink:href="#DejaVuSans-33" x="122.998047"/>
     <use xlink:href="#DejaVuSans-32" x="186.621094"/>
     <use xlink:href="#DejaVuSans-2e" x="250.244141"/>
     <use xlink:href="#DejaVuSans-30" x="282.03125"/>
     <use xlink:href="#DejaVuSans-30" x="345.654297"/>
     <use xlink:href="#DejaVuSans-30" x="409.277344"/>
     <use xlink:href="#DejaVuSans-30" x="472.900391"/>
    </g>
   </g>
   <g id="line2d_124">
    <path d="M 374.146875 157.38125 
L 384.146875 157.38125 
L 394.146875 157.38125 
" style="fill: none; stroke: #8c564b; stroke-width: 1.5; stroke-linecap: square"/>
   </g>
   <g id="text_35">
    <!-- t=40.0000 -->
    <g transform="translate(402.146875 160.88125)scale(0.1 -0.1)">
     <use xlink:href="#DejaVuSans-74"/>
     <use xlink:href="#DejaVuSans-3d" x="39.208984"/>
     <use xlink:href="#DejaVuSans-34" x="122.998047"/>
     <use xlink:href="#DejaVuSans-30" x="186.621094"/>
     <use xlink:href="#DejaVuSans-2e" x="250.244141"/>
     <use xlink:href="#DejaVuSans-30" x="282.03125"/>
     <use xlink:href="#DejaVuSans-30" x="345.654297"/>
     <use xlink:href="#DejaVuSans-30" x="409.277344"/>
     <use xlink:href="#DejaVuSans-30" x="472.900391"/>
    </g>
   </g>
   <g id="line2d_125">
    <path d="M 374.146875 172.059375 
L 384.146875 172.059375 
L 394.146875 172.059375 
" style="fill: none; stroke: #e377c2; stroke-width: 1.5; stroke-linecap: square"/>
   </g>
   <g id="text_36">
    <!-- t=48.0000 -->
    <g transform="translate(402.146875 175.559375)scale(0.1 -0.1)">
     <use xlink:href="#DejaVuSans-74"/>
     <use xlink:href="#DejaVuSans-3d" x="39.208984"/>
     <use xlink:href="#DejaVuSans-34" x="122.998047"/>
     <use xlink:href="#DejaVuSans-38" x="186.621094"/>
     <use xlink:href="#DejaVuSans-2e" x="250.244141"/>
     <use xlink:href="#DejaVuSans-30" x="282.03125"/>
     <use xlink:href="#DejaVuSans-30" x="345.654297"/>
     <use xlink:href="#DejaVuSans-30" x="409.277344"/>
     <use xlink:href="#DejaVuSans-30" x="472.900391"/>
    </g>
   </g>
   <g id="line2d_126">
    <path d="M 374.146875 186.7375 
L 384.146875 186.7375 
L 394.146875 186.7375 
" style="fill: none; stroke: #7f7f7f; stroke-width: 1.5; stroke-linecap: square"/>
   </g>
   <g id="text_37">
    <!-- t=56.0000 -->
    <g transform="translate(402.146875 190.2375)scale(0.1 -0.1)">
     <use xlink:href="#DejaVuSans-74"/>
     <use xlink:href="#DejaVuSans-3d" x="39.208984"/>
     <use xlink:href="#DejaVuSans-35" x="122.998047"/>
     <use xlink:href="#DejaVuSans-36" x="186.621094"/>
     <use xlink:href="#DejaVuSans-2e" x="250.244141"/>
     <use xlink:href="#DejaVuSans-30" x="282.03125"/>
     <use xlink:href="#DejaVuSans-30" x="345.654297"/>
     <use xlink:href="#DejaVuSans-30" x="409.277344"/>
     <use xlink:href="#DejaVuSans-30" x="472.900391"/>
    </g>
   </g>
   <g id="line2d_127">
    <path d="M 374.146875 201.415625 
L 384.146875 201.415625 
L 394.146875 201.415625 
" style="fill: none; stroke: #bcbd22; stroke-width: 1.5; stroke-linecap: square"/>
   </g>
   <g id="text_38">
    <!-- t=64.0000 -->
    <g transform="translate(402.146875 204.915625)scale(0.1 -0.1)">
     <use xlink:href="#DejaVuSans-74"/>
     <use xlink:href="#DejaVuSans-3d" x="39.208984"/>
     <use xlink:href="#DejaVuSans-36" x="122.998047"/>
     <use xlink:href="#DejaVuSans-34" x="186.621094"/>
     <use xlink:href="#DejaVuSans-2e" x="250.244141"/>
     <use xlink:href="#DejaVuSans-30" x="282.03125"/>
     <use xlink:href="#DejaVuSans-30" x="345.654297"/>
     <use xlink:href="#DejaVuSans-30" x="409.277344"/>
     <use xlink:href="#DejaVuSans-30" x="472.900391"/>
    </g>
   </g>
   <g id="line2d_128">
    <path d="M 374.146875 216.09375 
L 384.146875 216.09375 
L 394.146875 216.09375 
" style="fill: none; stroke: #17becf; stroke-width: 1.5; stroke-linecap: square"/>
   </g>
   <g id="text_39">
    <!-- t=72.0000 -->
    <g transform="translate(402.146875 219.59375)scale(0.1 -0.1)">
     <use xlink:href="#DejaVuSans-74"/>
     <use xlink:href="#DejaVuSans-3d" x="39.208984"/>
     <use xlink:href="#DejaVuSans-37" x="122.998047"/>
     <use xlink:href="#DejaVuSans-32" x="186.621094"/>
     <use xlink:href="#DejaVuSans-2e" x="250.244141"/>
     <use xlink:href="#DejaVuSans-30" x="282.03125"/>
     <use xlink:href="#DejaVuSans-30" x="345.654297"/>
     <use xlink:href="#DejaVuSans-30" x="409.277344"/>
     <use xlink:href="#DejaVuSans-30" x="472.900391"/>
    </g>
   </g>
   <g id="line2d_129">
    <path d="M 374.146875 230.771875 
L 384.146875 230.771875 
L 394.146875 230.771875 
" style="fill: none; stroke: #1f77b4; stroke-width: 1.5; stroke-linecap: square"/>
   </g>
   <g id="text_40">
    <!-- t=80.0000 -->
    <g transform="translate(402.146875 234.271875)scale(0.1 -0.1)">
     <use xlink:href="#DejaVuSans-74"/>
     <use xlink:href="#DejaVuSans-3d" x="39.208984"/>
     <use xlink:href="#DejaVuSans-38" x="122.998047"/>
     <use xlink:href="#DejaVuSans-30" x="186.621094"/>
     <use xlink:href="#DejaVuSans-2e" x="250.244141"/>
     <use xlink:href="#DejaVuSans-30" x="282.03125"/>
     <use xlink:href="#DejaVuSans-30" x="345.654297"/>
     <use xlink:href="#DejaVuSans-30" x="409.277344"/>
     <use xlink:href="#DejaVuSans-30" x="472.900391"/>
    </g>
   </g>
   <g id="line2d_130">
    <path d="M 374.146875 245.45 
L 384.146875 245.45 
L 394.146875 245.45 
" style="fill: none; stroke: #ff7f0e; stroke-width: 1.5; stroke-linecap: square"/>
   </g>
   <g id="text_41">
    <!-- t=88.0000 -->
    <g transform="translate(402.146875 248.95)scale(0.1 -0.1)">
     <use xlink:href="#DejaVuSans-74"/>
     <use xlink:href="#DejaVuSans-3d" x="39.208984"/>
     <use xlink:href="#DejaVuSans-38" x="122.998047"/>
     <use xlink:href="#DejaVuSans-38" x="186.621094"/>
     <use xlink:href="#DejaVuSans-2e" x="250.244141"/>
     <use xlink:href="#DejaVuSans-30" x="282.03125"/>
     <use xlink:href="#DejaVuSans-30" x="345.654297"/>
     <use xlink:href="#DejaVuSans-30" x="409.277344"/>
     <use xlink:href="#DejaVuSans-30" x="472.900391"/>
    </g>
   </g>
   <g id="line2d_131">
    <path d="M 374.146875 260.128125 
L 384.146875 260.128125 
L 394.146875 260.128125 
" style="fill: none; stroke: #2ca02c; stroke-width: 1.5; stroke-linecap: square"/>
   </g>
   <g id="text_42">
    <!-- t=96.0000 -->
    <g transform="translate(402.146875 263.628125)scale(0.1 -0.1)">
     <use xlink:href="#DejaVuSans-74"/>
     <use xlink:href="#DejaVuSans-3d" x="39.208984"/>
     <use xlink:href="#DejaVuSans-39" x="122.998047"/>
     <use xlink:href="#DejaVuSans-36" x="186.621094"/>
     <use xlink:href="#DejaVuSans-2e" x="250.244141"/>
     <use xlink:href="#DejaVuSans-30" x="282.03125"/>
     <use xlink:href="#DejaVuSans-30" x="345.654297"/>
     <use xlink:href="#DejaVuSans-30" x="409.277344"/>
     <use xlink:href="#DejaVuSans-30" x="472.900391"/>
    </g>
   </g>
  </g>
 </g>
 <defs>
  <clipPath id="p1c7d56cf9e">
   <rect x="57.6" y="41.472" width="357.12" height="45.881379"/>
  </clipPath>
  <clipPath id="pecde52a16c">
   <rect x="57.6" y="96.529655" width="357.12" height="45.881379"/>
  </clipPath>
  <clipPath id="p35c6a8113e">
   <rect x="57.6" y="151.58731" width="357.12" height="45.881379"/>
  </clipPath>
  <clipPath id="pfbddd529a1">
   <rect x="57.6" y="206.644966" width="357.12" height="45.881379"/>
  </clipPath>
  <clipPath id="p95316c21d8">
   <rect x="57.6" y="261.702621" width="357.12" height="45.881379"/>
  </clipPath>
 </defs>
</svg>
