<?xml version="1.0" encoding="utf-8" standalone="no"?>
<!DOCTYPE svg PUBLIC "-//W3C//DTD SVG 1.1//EN"
  "http://www.w3.org/Graphics/SVG/1.1/DTD/svg11.dtd">
<svg xmlns:xlink="http://www.w3.org/1999/xlink" width="460.8pt" height="345.6pt" viewBox="0 0 460.8 345.6" xmlns="http://www.w3.org/2000/svg" version="1.1">
 <metadata>
  <rdf:RDF xmlns:dc="http://purl.org/dc/elements/1.1/" xmlns:cc="http://creativecommons.org/ns#" xmlns:rdf="http://www.w3.org/1999/02/22-rdf-syntax-ns#">
   <cc:Work>
    <dc:type rdf:resource="http://purl.org/dc/dcmitype/StillImage"/>
    <dc:date>2022-07-10T00:04:55.074120</dc:date>
    <dc:format>image/svg+xml</dc:format>
    <dc:creator>
     <cc:Agent>
      <dc:title>Matplotlib v3.5.2, https://matplotlib.org/</dc:title>
     </cc:Agent>
    </dc:creator>
   </cc:Work>
  </rdf:RDF>
 </metadata>
 <defs>
  <style type="text/css">*{stroke-linejoin: round; stroke-linecap: butt}</style>
 </defs>
 <g id="figure_1">
  <g id="patch_1">
   <path d="M 0 345.6 
L 460.8 345.6 
L 460.8 0 
L 0 0 
z
" style="fill: #ffffff"/>
  </g>
  <g id="axes_1">
   <g id="patch_2">
    <path d="M 57.6 87.353379 
L 414.72 87.353379 
L 414.72 41.472 
L 57.6 41.472 
z
" style="fill: #ffffff"/>
   </g>
   <g id="axes_2">
    <g id="patch_3">
     <path d="M 414.72 87.353379 
L 414.72 87.353379 
L 414.72 41.472 
L 414.72 41.472 
z
" style="fill: #ffffff"/>
    </g>
    <g id="matplotlib.axis_1"/>
    <g id="matplotlib.axis_2">
     <g id="ytick_1">
      <g id="line2d_1">
       <defs>
        <path id="mbb46ef69da" d="M 0 0 
L 3.5 0 
" style="stroke: #000000; stroke-width: 0.8"/>
       </defs>
       <g>
        <use xlink:href="#mbb46ef69da" x="414.72" y="68.425451" style="stroke: #000000; stroke-width: 0.8"/>
       </g>
      </g>
      <g id="text_1">
       <!-- −10 -->
       <g transform="translate(421.72 72.22467)scale(0.1 -0.1)">
        <defs>
         <path id="DejaVuSans-2212" d="M 678 2272 
L 4684 2272 
L 4684 1741 
L 678 1741 
L 678 2272 
z
" transform="scale(0.015625)"/>
         <path id="DejaVuSans-31" d="M 794 531 
L 1825 531 
L 1825 4091 
L 703 3866 
L 703 4441 
L 1819 4666 
L 2450 4666 
L 2450 531 
L 3481 531 
L 3481 0 
L 794 0 
L 794 531 
z
" transform="scale(0.015625)"/>
         <path id="DejaVuSans-30" d="M 2034 4250 
Q 1547 4250 1301 3770 
Q 1056 3291 1056 2328 
Q 1056 1369 1301 889 
Q 1547 409 2034 409 
Q 2525 409 2770 889 
Q 3016 1369 3016 2328 
Q 3016 3291 2770 3770 
Q 2525 4250 2034 4250 
z
M 2034 4750 
Q 2819 4750 3233 4129 
Q 3647 3509 3647 2328 
Q 3647 1150 3233 529 
Q 2819 -91 2034 -91 
Q 1250 -91 836 529 
Q 422 1150 422 2328 
Q 422 3509 836 4129 
Q 1250 4750 2034 4750 
z
" transform="scale(0.015625)"/>
        </defs>
        <use xlink:href="#DejaVuSans-2212"/>
        <use xlink:href="#DejaVuSans-31" x="83.789062"/>
        <use xlink:href="#DejaVuSans-30" x="147.412109"/>
       </g>
      </g>
     </g>
     <g id="ytick_2">
      <g id="line2d_2">
       <g>
        <use xlink:href="#mbb46ef69da" x="414.72" y="47.096276" style="stroke: #000000; stroke-width: 0.8"/>
       </g>
      </g>
      <g id="text_2">
       <!-- 0 -->
       <g transform="translate(421.72 50.895495)scale(0.1 -0.1)">
        <use xlink:href="#DejaVuSans-30"/>
       </g>
      </g>
     </g>
     <g id="text_3">
      <!-- vel [m/s] -->
      <g transform="translate(454.423125 86.48769)rotate(-90)scale(0.1 -0.1)">
       <defs>
        <path id="DejaVuSans-76" d="M 191 3500 
L 800 3500 
L 1894 563 
L 2988 3500 
L 3597 3500 
L 2284 0 
L 1503 0 
L 191 3500 
z
" transform="scale(0.015625)"/>
        <path id="DejaVuSans-65" d="M 3597 1894 
L 3597 1613 
L 953 1613 
Q 991 1019 1311 708 
Q 1631 397 2203 397 
Q 2534 397 2845 478 
Q 3156 559 3463 722 
L 3463 178 
Q 3153 47 2828 -22 
Q 2503 -91 2169 -91 
Q 1331 -91 842 396 
Q 353 884 353 1716 
Q 353 2575 817 3079 
Q 1281 3584 2069 3584 
Q 2775 3584 3186 3129 
Q 3597 2675 3597 1894 
z
M 3022 2063 
Q 3016 2534 2758 2815 
Q 2500 3097 2075 3097 
Q 1594 3097 1305 2825 
Q 1016 2553 972 2059 
L 3022 2063 
z
" transform="scale(0.015625)"/>
        <path id="DejaVuSans-6c" d="M 603 4863 
L 1178 4863 
L 1178 0 
L 603 0 
L 603 4863 
z
" transform="scale(0.015625)"/>
        <path id="DejaVuSans-20" transform="scale(0.015625)"/>
        <path id="DejaVuSans-5b" d="M 550 4863 
L 1875 4863 
L 1875 4416 
L 1125 4416 
L 1125 -397 
L 1875 -397 
L 1875 -844 
L 550 -844 
L 550 4863 
z
" transform="scale(0.015625)"/>
        <path id="DejaVuSans-6d" d="M 3328 2828 
Q 3544 3216 3844 3400 
Q 4144 3584 4550 3584 
Q 5097 3584 5394 3201 
Q 5691 2819 5691 2113 
L 5691 0 
L 5113 0 
L 5113 2094 
Q 5113 2597 4934 2840 
Q 4756 3084 4391 3084 
Q 3944 3084 3684 2787 
Q 3425 2491 3425 1978 
L 3425 0 
L 2847 0 
L 2847 2094 
Q 2847 2600 2669 2842 
Q 2491 3084 2119 3084 
Q 1678 3084 1418 2786 
Q 1159 2488 1159 1978 
L 1159 0 
L 581 0 
L 581 3500 
L 1159 3500 
L 1159 2956 
Q 1356 3278 1631 3431 
Q 1906 3584 2284 3584 
Q 2666 3584 2933 3390 
Q 3200 3197 3328 2828 
z
" transform="scale(0.015625)"/>
        <path id="DejaVuSans-2f" d="M 1625 4666 
L 2156 4666 
L 531 -594 
L 0 -594 
L 1625 4666 
z
" transform="scale(0.015625)"/>
        <path id="DejaVuSans-73" d="M 2834 3397 
L 2834 2853 
Q 2591 2978 2328 3040 
Q 2066 3103 1784 3103 
Q 1356 3103 1142 2972 
Q 928 2841 928 2578 
Q 928 2378 1081 2264 
Q 1234 2150 1697 2047 
L 1894 2003 
Q 2506 1872 2764 1633 
Q 3022 1394 3022 966 
Q 3022 478 2636 193 
Q 2250 -91 1575 -91 
Q 1294 -91 989 -36 
Q 684 19 347 128 
L 347 722 
Q 666 556 975 473 
Q 1284 391 1588 391 
Q 1994 391 2212 530 
Q 2431 669 2431 922 
Q 2431 1156 2273 1281 
Q 2116 1406 1581 1522 
L 1381 1569 
Q 847 1681 609 1914 
Q 372 2147 372 2553 
Q 372 3047 722 3315 
Q 1072 3584 1716 3584 
Q 2034 3584 2315 3537 
Q 2597 3491 2834 3397 
z
" transform="scale(0.015625)"/>
        <path id="DejaVuSans-5d" d="M 1947 4863 
L 1947 -844 
L 622 -844 
L 622 -397 
L 1369 -397 
L 1369 4416 
L 622 4416 
L 622 4863 
L 1947 4863 
z
" transform="scale(0.015625)"/>
       </defs>
       <use xlink:href="#DejaVuSans-76"/>
       <use xlink:href="#DejaVuSans-65" x="59.179688"/>
       <use xlink:href="#DejaVuSans-6c" x="120.703125"/>
       <use xlink:href="#DejaVuSans-20" x="148.486328"/>
       <use xlink:href="#DejaVuSans-5b" x="180.273438"/>
       <use xlink:href="#DejaVuSans-6d" x="219.287109"/>
       <use xlink:href="#DejaVuSans-2f" x="316.699219"/>
       <use xlink:href="#DejaVuSans-73" x="350.390625"/>
       <use xlink:href="#DejaVuSans-5d" x="402.490234"/>
      </g>
     </g>
    </g>
    <g id="patch_4">
     <path d="M 414.72 87.353379 
L 414.72 41.472 
" style="fill: none; stroke: #000000; stroke-width: 0.8; stroke-linejoin: miter; stroke-linecap: square"/>
    </g>
   </g>
   <g id="matplotlib.axis_3">
    <g id="xtick_1">
     <g id="line2d_3">
      <defs>
       <path id="m376018f1e3" d="M 0 0 
L 0 3.5 
" style="stroke: #000000; stroke-width: 0.8"/>
      </defs>
      <g>
       <use xlink:href="#m376018f1e3" x="73.832727" y="87.353379" style="stroke: #000000; stroke-width: 0.8"/>
      </g>
     </g>
    </g>
    <g id="xtick_2">
     <g id="line2d_4">
      <g>
       <use xlink:href="#m376018f1e3" x="116.550431" y="87.353379" style="stroke: #000000; stroke-width: 0.8"/>
      </g>
     </g>
    </g>
    <g id="xtick_3">
     <g id="line2d_5">
      <g>
       <use xlink:href="#m376018f1e3" x="159.268134" y="87.353379" style="stroke: #000000; stroke-width: 0.8"/>
      </g>
     </g>
    </g>
    <g id="xtick_4">
     <g id="line2d_6">
      <g>
       <use xlink:href="#m376018f1e3" x="201.985837" y="87.353379" style="stroke: #000000; stroke-width: 0.8"/>
      </g>
     </g>
    </g>
    <g id="xtick_5">
     <g id="line2d_7">
      <g>
       <use xlink:href="#m376018f1e3" x="244.703541" y="87.353379" style="stroke: #000000; stroke-width: 0.8"/>
      </g>
     </g>
    </g>
    <g id="xtick_6">
     <g id="line2d_8">
      <g>
       <use xlink:href="#m376018f1e3" x="287.421244" y="87.353379" style="stroke: #000000; stroke-width: 0.8"/>
      </g>
     </g>
    </g>
    <g id="xtick_7">
     <g id="line2d_9">
      <g>
       <use xlink:href="#m376018f1e3" x="330.138947" y="87.353379" style="stroke: #000000; stroke-width: 0.8"/>
      </g>
     </g>
    </g>
    <g id="xtick_8">
     <g id="line2d_10">
      <g>
       <use xlink:href="#m376018f1e3" x="372.856651" y="87.353379" style="stroke: #000000; stroke-width: 0.8"/>
      </g>
     </g>
    </g>
   </g>
   <g id="matplotlib.axis_4">
    <g id="ytick_3">
     <g id="line2d_11">
      <defs>
       <path id="m773bfe38ee" d="M 0 0 
L -3.5 0 
" style="stroke: #000000; stroke-width: 0.8"/>
      </defs>
      <g>
       <use xlink:href="#m773bfe38ee" x="57.6" y="68.425451" style="stroke: #000000; stroke-width: 0.8"/>
      </g>
     </g>
     <g id="text_4">
      <!-- −10 -->
      <g transform="translate(29.495313 72.22467)scale(0.1 -0.1)">
       <use xlink:href="#DejaVuSans-2212"/>
       <use xlink:href="#DejaVuSans-31" x="83.789062"/>
       <use xlink:href="#DejaVuSans-30" x="147.412109"/>
      </g>
     </g>
    </g>
    <g id="ytick_4">
     <g id="line2d_12">
      <g>
       <use xlink:href="#m773bfe38ee" x="57.6" y="47.096276" style="stroke: #000000; stroke-width: 0.8"/>
      </g>
     </g>
     <g id="text_5">
      <!-- 0 -->
      <g transform="translate(44.2375 50.895495)scale(0.1 -0.1)">
       <use xlink:href="#DejaVuSans-30"/>
      </g>
     </g>
    </g>
    <g id="text_6">
     <!-- vel [normalized] -->
     <g transform="translate(23.415625 105.111908)rotate(-90)scale(0.1 -0.1)">
      <defs>
       <path id="DejaVuSans-6e" d="M 3513 2113 
L 3513 0 
L 2938 0 
L 2938 2094 
Q 2938 2591 2744 2837 
Q 2550 3084 2163 3084 
Q 1697 3084 1428 2787 
Q 1159 2491 1159 1978 
L 1159 0 
L 581 0 
L 581 3500 
L 1159 3500 
L 1159 2956 
Q 1366 3272 1645 3428 
Q 1925 3584 2291 3584 
Q 2894 3584 3203 3211 
Q 3513 2838 3513 2113 
z
" transform="scale(0.015625)"/>
       <path id="DejaVuSans-6f" d="M 1959 3097 
Q 1497 3097 1228 2736 
Q 959 2375 959 1747 
Q 959 1119 1226 758 
Q 1494 397 1959 397 
Q 2419 397 2687 759 
Q 2956 1122 2956 1747 
Q 2956 2369 2687 2733 
Q 2419 3097 1959 3097 
z
M 1959 3584 
Q 2709 3584 3137 3096 
Q 3566 2609 3566 1747 
Q 3566 888 3137 398 
Q 2709 -91 1959 -91 
Q 1206 -91 779 398 
Q 353 888 353 1747 
Q 353 2609 779 3096 
Q 1206 3584 1959 3584 
z
" transform="scale(0.015625)"/>
       <path id="DejaVuSans-72" d="M 2631 2963 
Q 2534 3019 2420 3045 
Q 2306 3072 2169 3072 
Q 1681 3072 1420 2755 
Q 1159 2438 1159 1844 
L 1159 0 
L 581 0 
L 581 3500 
L 1159 3500 
L 1159 2956 
Q 1341 3275 1631 3429 
Q 1922 3584 2338 3584 
Q 2397 3584 2469 3576 
Q 2541 3569 2628 3553 
L 2631 2963 
z
" transform="scale(0.015625)"/>
       <path id="DejaVuSans-61" d="M 2194 1759 
Q 1497 1759 1228 1600 
Q 959 1441 959 1056 
Q 959 750 1161 570 
Q 1363 391 1709 391 
Q 2188 391 2477 730 
Q 2766 1069 2766 1631 
L 2766 1759 
L 2194 1759 
z
M 3341 1997 
L 3341 0 
L 2766 0 
L 2766 531 
Q 2569 213 2275 61 
Q 1981 -91 1556 -91 
Q 1019 -91 701 211 
Q 384 513 384 1019 
Q 384 1609 779 1909 
Q 1175 2209 1959 2209 
L 2766 2209 
L 2766 2266 
Q 2766 2663 2505 2880 
Q 2244 3097 1772 3097 
Q 1472 3097 1187 3025 
Q 903 2953 641 2809 
L 641 3341 
Q 956 3463 1253 3523 
Q 1550 3584 1831 3584 
Q 2591 3584 2966 3190 
Q 3341 2797 3341 1997 
z
" transform="scale(0.015625)"/>
       <path id="DejaVuSans-69" d="M 603 3500 
L 1178 3500 
L 1178 0 
L 603 0 
L 603 3500 
z
M 603 4863 
L 1178 4863 
L 1178 4134 
L 603 4134 
L 603 4863 
z
" transform="scale(0.015625)"/>
       <path id="DejaVuSans-7a" d="M 353 3500 
L 3084 3500 
L 3084 2975 
L 922 459 
L 3084 459 
L 3084 0 
L 275 0 
L 275 525 
L 2438 3041 
L 353 3041 
L 353 3500 
z
" transform="scale(0.015625)"/>
       <path id="DejaVuSans-64" d="M 2906 2969 
L 2906 4863 
L 3481 4863 
L 3481 0 
L 2906 0 
L 2906 525 
Q 2725 213 2448 61 
Q 2172 -91 1784 -91 
Q 1150 -91 751 415 
Q 353 922 353 1747 
Q 353 2572 751 3078 
Q 1150 3584 1784 3584 
Q 2172 3584 2448 3432 
Q 2725 3281 2906 2969 
z
M 947 1747 
Q 947 1113 1208 752 
Q 1469 391 1925 391 
Q 2381 391 2643 752 
Q 2906 1113 2906 1747 
Q 2906 2381 2643 2742 
Q 2381 3103 1925 3103 
Q 1469 3103 1208 2742 
Q 947 2381 947 1747 
z
" transform="scale(0.015625)"/>
      </defs>
      <use xlink:href="#DejaVuSans-76"/>
      <use xlink:href="#DejaVuSans-65" x="59.179688"/>
      <use xlink:href="#DejaVuSans-6c" x="120.703125"/>
      <use xlink:href="#DejaVuSans-20" x="148.486328"/>
      <use xlink:href="#DejaVuSans-5b" x="180.273438"/>
      <use xlink:href="#DejaVuSans-6e" x="219.287109"/>
      <use xlink:href="#DejaVuSans-6f" x="282.666016"/>
      <use xlink:href="#DejaVuSans-72" x="343.847656"/>
      <use xlink:href="#DejaVuSans-6d" x="383.210938"/>
      <use xlink:href="#DejaVuSans-61" x="480.623047"/>
      <use xlink:href="#DejaVuSans-6c" x="541.902344"/>
      <use xlink:href="#DejaVuSans-69" x="569.685547"/>
      <use xlink:href="#DejaVuSans-7a" x="597.46875"/>
      <use xlink:href="#DejaVuSans-65" x="649.958984"/>
      <use xlink:href="#DejaVuSans-64" x="711.482422"/>
      <use xlink:href="#DejaVuSans-5d" x="774.958984"/>
     </g>
    </g>
   </g>
   <g id="line2d_13">
    <path d="M 73.832727 52.013428 
L 90.919809 51.732432 
L 108.00689 51.451758 
L 125.093971 51.177464 
L 142.181053 50.9107 
L 159.268134 50.6503 
L 176.355215 50.394638 
L 193.442297 50.142344 
L 210.529378 49.892357 
L 227.616459 49.64382 
L 244.703541 49.396009 
L 261.790622 49.148277 
L 278.877703 48.900024 
L 295.964785 48.65067 
L 313.051866 48.399636 
L 330.138947 48.146317 
L 347.226029 47.890065 
L 364.31311 47.630169 
L 381.400191 47.365837 
L 398.487273 47.365837 
" clip-path="url(#pc7547ccf84)" style="fill: none; stroke: #1f77b4; stroke-width: 1.5; stroke-linecap: square"/>
   </g>
   <g id="line2d_14">
    <path d="M 73.832727 46.924387 
L 90.919809 46.931444 
L 108.00689 46.93873 
L 125.093971 46.946253 
L 142.181053 46.954017 
L 159.268134 46.962019 
L 176.355215 46.970251 
L 193.442297 46.978705 
L 210.529378 46.987371 
L 227.616459 46.996246 
L 244.703541 47.005324 
L 261.790622 47.014603 
L 278.877703 47.024081 
L 295.964785 47.033757 
L 313.051866 47.043635 
L 330.138947 47.053716 
L 347.226029 47.064009 
L 364.31311 47.074523 
L 381.400191 47.085272 
L 398.487273 47.085272 
" clip-path="url(#pc7547ccf84)" style="fill: none; stroke: #ff7f0e; stroke-width: 1.5; stroke-linecap: square"/>
   </g>
   <g id="line2d_15">
    <path d="M 73.832727 44.962157 
L 90.919809 44.960889 
L 108.00689 44.959973 
L 125.093971 44.959293 
L 142.181053 44.958733 
L 159.268134 44.958236 
L 176.355215 44.957784 
L 193.442297 44.957369 
L 210.529378 44.956986 
L 227.616459 44.956629 
L 244.703541 44.956293 
L 261.790622 44.955976 
L 278.877703 44.955675 
L 295.964785 44.955388 
L 313.051866 44.955114 
L 330.138947 44.954852 
L 347.226029 44.954605 
L 364.31311 44.954376 
L 381.400191 44.954173 
L 398.487273 44.954173 
" clip-path="url(#pc7547ccf84)" style="fill: none; stroke: #2ca02c; stroke-width: 1.5; stroke-linecap: square"/>
   </g>
   <g id="line2d_16">
    <path d="M 73.832727 44.96275 
L 90.919809 44.961548 
L 108.00689 44.960252 
L 125.093971 44.959109 
L 142.181053 44.958162 
L 159.268134 44.957355 
L 176.355215 44.956631 
L 193.442297 44.955961 
L 210.529378 44.955329 
L 227.616459 44.954726 
L 244.703541 44.954146 
L 261.790622 44.953585 
L 278.877703 44.953039 
L 295.964785 44.952506 
L 313.051866 44.951984 
L 330.138947 44.95147 
L 347.226029 44.950964 
L 364.31311 44.950464 
L 381.400191 44.949968 
L 398.487273 44.949968 
" clip-path="url(#pc7547ccf84)" style="fill: none; stroke: #d62728; stroke-width: 1.5; stroke-linecap: square"/>
   </g>
   <g id="line2d_17">
    <path d="M 73.832727 47.012752 
L 90.919809 46.92687 
L 108.00689 46.837152 
L 125.093971 46.742867 
L 142.181053 46.644184 
L 159.268134 46.541697 
L 176.355215 46.435964 
L 193.442297 46.327376 
L 210.529378 46.21619 
L 227.616459 46.102581 
L 244.703541 45.986674 
L 261.790622 45.868556 
L 278.877703 45.748281 
L 295.964785 45.625877 
L 313.051866 45.501341 
L 330.138947 45.374642 
L 347.226029 45.245715 
L 364.31311 45.114453 
L 381.400191 44.980696 
L 398.487273 44.980696 
" clip-path="url(#pc7547ccf84)" style="fill: none; stroke: #9467bd; stroke-width: 1.5; stroke-linecap: square"/>
   </g>
   <g id="line2d_18">
    <path d="M 73.832727 46.979387 
L 90.919809 46.856811 
L 108.00689 46.725037 
L 125.093971 46.582147 
L 142.181053 46.428306 
L 159.268134 46.264819 
L 176.355215 46.093047 
L 193.442297 45.913987 
L 210.529378 45.728309 
L 227.616459 45.536465 
L 244.703541 45.338772 
L 261.790622 45.135449 
L 278.877703 44.926635 
L 295.964785 44.712403 
L 313.051866 44.492757 
L 330.138947 44.267634 
L 347.226029 44.036893 
L 364.31311 43.800302 
L 381.400191 43.557517 
L 398.487273 43.557517 
" clip-path="url(#pc7547ccf84)" style="fill: none; stroke: #8c564b; stroke-width: 1.5; stroke-linecap: square"/>
   </g>
   <g id="line2d_19">
    <path d="M 73.832727 47.090122 
L 90.919809 47.083695 
L 108.00689 47.076824 
L 125.093971 47.069423 
L 142.181053 47.061514 
L 159.268134 47.053186 
L 176.355215 47.044539 
L 193.442297 47.035657 
L 210.529378 47.026608 
L 227.616459 47.017454 
L 244.703541 47.008248 
L 261.790622 46.999044 
L 278.877703 46.989892 
L 295.964785 46.980841 
L 313.051866 46.97194 
L 330.138947 46.963237 
L 347.226029 46.95478 
L 364.31311 46.946617 
L 381.400191 46.938797 
L 398.487273 46.938797 
" clip-path="url(#pc7547ccf84)" style="fill: none; stroke: #e377c2; stroke-width: 1.5; stroke-linecap: square"/>
   </g>
   <g id="line2d_20">
    <path d="M 73.832727 47.09606 
L 90.919809 47.095849 
L 108.00689 47.095634 
L 125.093971 47.095409 
L 142.181053 47.095171 
L 159.268134 47.09492 
L 176.355215 47.09466 
L 193.442297 47.094393 
L 210.529378 47.094124 
L 227.616459 47.093854 
L 244.703541 47.093588 
L 261.790622 47.093325 
L 278.877703 47.09307 
L 295.964785 47.092823 
L 313.051866 47.092588 
L 330.138947 47.092365 
L 347.226029 47.092157 
L 364.31311 47.091965 
L 381.400191 47.091793 
L 398.487273 47.091793 
" clip-path="url(#pc7547ccf84)" style="fill: none; stroke: #7f7f7f; stroke-width: 1.5; stroke-linecap: square"/>
   </g>
   <g id="line2d_21">
    <path d="M 73.832727 85.267862 
L 90.919809 79.56321 
L 108.00689 75.270524 
L 125.093971 71.853459 
L 142.181053 69.022635 
L 159.268134 66.607436 
L 176.355215 64.499223 
L 193.442297 62.624147 
L 210.529378 60.929515 
L 227.616459 59.376329 
L 244.703541 57.9348 
L 261.790622 56.581483 
L 278.877703 55.297357 
L 295.964785 54.066504 
L 313.051866 52.875155 
L 330.138947 51.710952 
L 347.226029 50.562353 
L 364.31311 49.418093 
L 381.400191 48.266688 
L 398.487273 48.266688 
" clip-path="url(#pc7547ccf84)" style="fill: none; stroke: #bcbd22; stroke-width: 1.5; stroke-linecap: square"/>
   </g>
   <g id="line2d_22">
    <path d="M 73.832727 72.258439 
L 90.919809 68.306939 
L 108.00689 65.450794 
L 125.093971 63.240247 
L 142.181053 61.441277 
L 159.268134 59.919279 
L 176.355215 58.592145 
L 193.442297 57.407189 
L 210.529378 56.328816 
L 227.616459 55.331813 
L 244.703541 54.397563 
L 261.790622 53.511797 
L 278.877703 52.663178 
L 295.964785 51.842369 
L 313.051866 51.041386 
L 330.138947 50.253121 
L 347.226029 49.470965 
L 364.31311 48.688488 
L 381.400191 47.899159 
L 398.487273 47.899159 
" clip-path="url(#pc7547ccf84)" style="fill: none; stroke: #17becf; stroke-width: 1.5; stroke-linecap: square"/>
   </g>
   <g id="line2d_23">
    <path d="M 73.832727 61.038987 
L 90.919809 59.473691 
L 108.00689 58.18835 
L 125.093971 57.103736 
L 142.181053 56.163771 
L 159.268134 55.328707 
L 176.355215 54.571007 
L 193.442297 53.871603 
L 210.529378 53.216909 
L 227.616459 52.596861 
L 244.703541 52.00372 
L 261.790622 51.431331 
L 278.877703 50.874626 
L 295.964785 50.329291 
L 313.051866 49.791514 
L 330.138947 49.257795 
L 347.226029 48.724793 
L 364.31311 48.189177 
L 381.400191 47.647513 
L 398.487273 47.647513 
" clip-path="url(#pc7547ccf84)" style="fill: none; stroke: #1f77b4; stroke-width: 1.5; stroke-linecap: square"/>
   </g>
   <g id="line2d_24">
    <path d="M 73.832727 55.808212 
L 90.919809 55.081589 
L 108.00689 54.425872 
L 125.093971 53.83295 
L 142.181053 53.291113 
L 159.268134 52.78888 
L 176.355215 52.316961 
L 193.442297 51.868405 
L 210.529378 51.438008 
L 227.616459 51.021739 
L 244.703541 50.616366 
L 261.790622 50.219208 
L 278.877703 49.827967 
L 295.964785 49.440609 
L 313.051866 49.055267 
L 330.138947 48.670164 
L 347.226029 48.283549 
L 364.31311 47.893626 
L 381.400191 47.498511 
L 398.487273 47.498511 
" clip-path="url(#pc7547ccf84)" style="fill: none; stroke: #ff7f0e; stroke-width: 1.5; stroke-linecap: square"/>
   </g>
   <g id="line2d_25">
    <path d="M 73.832727 52.938385 
L 90.919809 52.564575 
L 108.00689 52.201751 
L 125.093971 51.854901 
L 142.181053 51.523537 
L 159.268134 51.204899 
L 176.355215 50.896062 
L 193.442297 50.594663 
L 210.529378 50.298874 
L 227.616459 50.007232 
L 244.703541 49.718518 
L 261.790622 49.431674 
L 278.877703 49.14575 
L 295.964785 48.859864 
L 313.051866 48.573163 
L 330.138947 48.284796 
L 347.226029 47.993886 
L 364.31311 47.699501 
L 381.400191 47.400635 
L 398.487273 47.400635 
" clip-path="url(#pc7547ccf84)" style="fill: none; stroke: #2ca02c; stroke-width: 1.5; stroke-linecap: square"/>
   </g>
   <g id="patch_5">
    <path d="M 57.6 87.353379 
L 57.6 41.472 
" style="fill: none; stroke: #000000; stroke-width: 0.8; stroke-linejoin: miter; stroke-linecap: square"/>
   </g>
   <g id="patch_6">
    <path d="M 414.72 87.353379 
L 414.72 41.472 
" style="fill: none; stroke: #000000; stroke-width: 0.8; stroke-linejoin: miter; stroke-linecap: square"/>
   </g>
   <g id="patch_7">
    <path d="M 57.6 87.353379 
L 414.72 87.353379 
" style="fill: none; stroke: #000000; stroke-width: 0.8; stroke-linejoin: miter; stroke-linecap: square"/>
   </g>
   <g id="patch_8">
    <path d="M 57.6 41.472 
L 414.72 41.472 
" style="fill: none; stroke: #000000; stroke-width: 0.8; stroke-linejoin: miter; stroke-linecap: square"/>
   </g>
   <g id="text_7">
    <!-- velocity - Container 1  -->
    <g transform="translate(169.779375 38.472)scale(0.12 -0.12)">
     <defs>
      <path id="DejaVuSans-63" d="M 3122 3366 
L 3122 2828 
Q 2878 2963 2633 3030 
Q 2388 3097 2138 3097 
Q 1578 3097 1268 2742 
Q 959 2388 959 1747 
Q 959 1106 1268 751 
Q 1578 397 2138 397 
Q 2388 397 2633 464 
Q 2878 531 3122 666 
L 3122 134 
Q 2881 22 2623 -34 
Q 2366 -91 2075 -91 
Q 1284 -91 818 406 
Q 353 903 353 1747 
Q 353 2603 823 3093 
Q 1294 3584 2113 3584 
Q 2378 3584 2631 3529 
Q 2884 3475 3122 3366 
z
" transform="scale(0.015625)"/>
      <path id="DejaVuSans-74" d="M 1172 4494 
L 1172 3500 
L 2356 3500 
L 2356 3053 
L 1172 3053 
L 1172 1153 
Q 1172 725 1289 603 
Q 1406 481 1766 481 
L 2356 481 
L 2356 0 
L 1766 0 
Q 1100 0 847 248 
Q 594 497 594 1153 
L 594 3053 
L 172 3053 
L 172 3500 
L 594 3500 
L 594 4494 
L 1172 4494 
z
" transform="scale(0.015625)"/>
      <path id="DejaVuSans-79" d="M 2059 -325 
Q 1816 -950 1584 -1140 
Q 1353 -1331 966 -1331 
L 506 -1331 
L 506 -850 
L 844 -850 
Q 1081 -850 1212 -737 
Q 1344 -625 1503 -206 
L 1606 56 
L 191 3500 
L 800 3500 
L 1894 763 
L 2988 3500 
L 3597 3500 
L 2059 -325 
z
" transform="scale(0.015625)"/>
      <path id="DejaVuSans-2d" d="M 313 2009 
L 1997 2009 
L 1997 1497 
L 313 1497 
L 313 2009 
z
" transform="scale(0.015625)"/>
      <path id="DejaVuSans-43" d="M 4122 4306 
L 4122 3641 
Q 3803 3938 3442 4084 
Q 3081 4231 2675 4231 
Q 1875 4231 1450 3742 
Q 1025 3253 1025 2328 
Q 1025 1406 1450 917 
Q 1875 428 2675 428 
Q 3081 428 3442 575 
Q 3803 722 4122 1019 
L 4122 359 
Q 3791 134 3420 21 
Q 3050 -91 2638 -91 
Q 1578 -91 968 557 
Q 359 1206 359 2328 
Q 359 3453 968 4101 
Q 1578 4750 2638 4750 
Q 3056 4750 3426 4639 
Q 3797 4528 4122 4306 
z
" transform="scale(0.015625)"/>
     </defs>
     <use xlink:href="#DejaVuSans-76"/>
     <use xlink:href="#DejaVuSans-65" x="59.179688"/>
     <use xlink:href="#DejaVuSans-6c" x="120.703125"/>
     <use xlink:href="#DejaVuSans-6f" x="148.486328"/>
     <use xlink:href="#DejaVuSans-63" x="209.667969"/>
     <use xlink:href="#DejaVuSans-69" x="264.648438"/>
     <use xlink:href="#DejaVuSans-74" x="292.431641"/>
     <use xlink:href="#DejaVuSans-79" x="331.640625"/>
     <use xlink:href="#DejaVuSans-20" x="390.820312"/>
     <use xlink:href="#DejaVuSans-2d" x="422.607422"/>
     <use xlink:href="#DejaVuSans-20" x="458.691406"/>
     <use xlink:href="#DejaVuSans-43" x="490.478516"/>
     <use xlink:href="#DejaVuSans-6f" x="560.302734"/>
     <use xlink:href="#DejaVuSans-6e" x="621.484375"/>
     <use xlink:href="#DejaVuSans-74" x="684.863281"/>
     <use xlink:href="#DejaVuSans-61" x="724.072266"/>
     <use xlink:href="#DejaVuSans-69" x="785.351562"/>
     <use xlink:href="#DejaVuSans-6e" x="813.134766"/>
     <use xlink:href="#DejaVuSans-65" x="876.513672"/>
     <use xlink:href="#DejaVuSans-72" x="938.037109"/>
     <use xlink:href="#DejaVuSans-20" x="979.150391"/>
     <use xlink:href="#DejaVuSans-31" x="1010.9375"/>
     <use xlink:href="#DejaVuSans-20" x="1074.560547"/>
    </g>
   </g>
  </g>
  <g id="axes_3">
   <g id="patch_9">
    <path d="M 57.6 142.411034 
L 414.72 142.411034 
L 414.72 96.529655 
L 57.6 96.529655 
z
" style="fill: #ffffff"/>
   </g>
   <g id="matplotlib.axis_5">
    <g id="xtick_9">
     <g id="line2d_26">
      <g>
       <use xlink:href="#m376018f1e3" x="73.832727" y="142.411034" style="stroke: #000000; stroke-width: 0.8"/>
      </g>
     </g>
    </g>
    <g id="xtick_10">
     <g id="line2d_27">
      <g>
       <use xlink:href="#m376018f1e3" x="116.550431" y="142.411034" style="stroke: #000000; stroke-width: 0.8"/>
      </g>
     </g>
    </g>
    <g id="xtick_11">
     <g id="line2d_28">
      <g>
       <use xlink:href="#m376018f1e3" x="159.268134" y="142.411034" style="stroke: #000000; stroke-width: 0.8"/>
      </g>
     </g>
    </g>
    <g id="xtick_12">
     <g id="line2d_29">
      <g>
       <use xlink:href="#m376018f1e3" x="201.985837" y="142.411034" style="stroke: #000000; stroke-width: 0.8"/>
      </g>
     </g>
    </g>
    <g id="xtick_13">
     <g id="line2d_30">
      <g>
       <use xlink:href="#m376018f1e3" x="244.703541" y="142.411034" style="stroke: #000000; stroke-width: 0.8"/>
      </g>
     </g>
    </g>
    <g id="xtick_14">
     <g id="line2d_31">
      <g>
       <use xlink:href="#m376018f1e3" x="287.421244" y="142.411034" style="stroke: #000000; stroke-width: 0.8"/>
      </g>
     </g>
    </g>
    <g id="xtick_15">
     <g id="line2d_32">
      <g>
       <use xlink:href="#m376018f1e3" x="330.138947" y="142.411034" style="stroke: #000000; stroke-width: 0.8"/>
      </g>
     </g>
    </g>
    <g id="xtick_16">
     <g id="line2d_33">
      <g>
       <use xlink:href="#m376018f1e3" x="372.856651" y="142.411034" style="stroke: #000000; stroke-width: 0.8"/>
      </g>
     </g>
    </g>
   </g>
   <g id="matplotlib.axis_6">
    <g id="ytick_5">
     <g id="line2d_34">
      <g>
       <use xlink:href="#m773bfe38ee" x="57.6" y="140.755316" style="stroke: #000000; stroke-width: 0.8"/>
      </g>
     </g>
     <g id="text_8">
      <!-- 0 -->
      <g transform="translate(44.2375 144.554535)scale(0.1 -0.1)">
       <use xlink:href="#DejaVuSans-30"/>
      </g>
     </g>
    </g>
    <g id="ytick_6">
     <g id="line2d_35">
      <g>
       <use xlink:href="#m773bfe38ee" x="57.6" y="98.771992" style="stroke: #000000; stroke-width: 0.8"/>
      </g>
     </g>
     <g id="text_9">
      <!-- 1 -->
      <g transform="translate(44.2375 102.571211)scale(0.1 -0.1)">
       <use xlink:href="#DejaVuSans-31"/>
      </g>
     </g>
    </g>
   </g>
   <g id="line2d_36">
    <path d="M 73.832727 140.325517 
L 90.919809 140.307049 
L 108.00689 140.289636 
L 125.093971 140.273277 
L 142.181053 140.257949 
L 159.268134 140.243622 
L 176.355215 140.230274 
L 193.442297 140.217885 
L 210.529378 140.206444 
L 227.616459 140.195943 
L 244.703541 140.186374 
L 261.790622 140.177737 
L 278.877703 140.17003 
L 295.964785 140.163255 
L 313.051866 140.157417 
L 330.138947 140.152522 
L 347.226029 140.148578 
L 364.31311 140.145596 
L 381.400191 140.143591 
L 398.487273 140.142579 
" clip-path="url(#p11bdd1e0c3)" style="fill: none; stroke: #1f77b4; stroke-width: 1.5; stroke-linecap: square"/>
   </g>
   <g id="line2d_37">
    <path d="M 73.832727 99.53327 
L 90.919809 99.533916 
L 108.00689 99.534535 
L 125.093971 99.535127 
L 142.181053 99.53569 
L 159.268134 99.536225 
L 176.355215 99.536729 
L 193.442297 99.537202 
L 210.529378 99.537644 
L 227.616459 99.538053 
L 244.703541 99.538428 
L 261.790622 99.53877 
L 278.877703 99.539077 
L 295.964785 99.539348 
L 313.051866 99.539583 
L 330.138947 99.53978 
L 347.226029 99.53994 
L 364.31311 99.540062 
L 381.400191 99.540143 
L 398.487273 99.540185 
" clip-path="url(#p11bdd1e0c3)" style="fill: none; stroke: #ff7f0e; stroke-width: 1.5; stroke-linecap: square"/>
   </g>
   <g id="line2d_38">
    <path d="M 73.832727 98.615311 
L 90.919809 98.623326 
L 108.00689 98.631347 
L 125.093971 98.63937 
L 142.181053 98.647397 
L 159.268134 98.655425 
L 176.355215 98.663455 
L 193.442297 98.671487 
L 210.529378 98.679521 
L 227.616459 98.687556 
L 244.703541 98.695592 
L 261.790622 98.70363 
L 278.877703 98.711668 
L 295.964785 98.719708 
L 313.051866 98.727749 
L 330.138947 98.735791 
L 347.226029 98.743834 
L 364.31311 98.751878 
L 381.400191 98.759923 
L 398.487273 98.767968 
" clip-path="url(#p11bdd1e0c3)" style="fill: none; stroke: #2ca02c; stroke-width: 1.5; stroke-linecap: square"/>
   </g>
   <g id="line2d_39">
    <path d="M 73.832727 98.615172 
L 90.919809 98.623186 
L 108.00689 98.631204 
L 125.093971 98.639226 
L 142.181053 98.647253 
L 159.268134 98.655284 
L 176.355215 98.663317 
L 193.442297 98.671354 
L 210.529378 98.679392 
L 227.616459 98.687434 
L 244.703541 98.695477 
L 261.790622 98.703523 
L 278.877703 98.71157 
L 295.964785 98.71962 
L 313.051866 98.727672 
L 330.138947 98.735726 
L 347.226029 98.743781 
L 364.31311 98.751839 
L 381.400191 98.759898 
L 398.487273 98.76796 
" clip-path="url(#p11bdd1e0c3)" style="fill: none; stroke: #d62728; stroke-width: 1.5; stroke-linecap: square"/>
   </g>
   <g id="line2d_40">
    <path d="M 73.832727 122.571056 
L 90.919809 122.57137 
L 108.00689 122.572006 
L 125.093971 122.57298 
L 142.181053 122.574307 
L 159.268134 122.576005 
L 176.355215 122.578088 
L 193.442297 122.580568 
L 210.529378 122.583456 
L 227.616459 122.586761 
L 244.703541 122.590494 
L 261.790622 122.594661 
L 278.877703 122.599272 
L 295.964785 122.604335 
L 313.051866 122.609858 
L 330.138947 122.615848 
L 347.226029 122.622315 
L 364.31311 122.629265 
L 381.400191 122.636709 
L 398.487273 122.644655 
" clip-path="url(#p11bdd1e0c3)" style="fill: none; stroke: #9467bd; stroke-width: 1.5; stroke-linecap: square"/>
   </g>
   <g id="line2d_41">
    <path d="M 73.832727 136.177437 
L 90.919809 136.177876 
L 108.00689 136.178775 
L 125.093971 136.18017 
L 142.181053 136.182101 
L 159.268134 136.184609 
L 176.355215 136.187732 
L 193.442297 136.1915 
L 210.529378 136.195941 
L 227.616459 136.201079 
L 244.703541 136.206937 
L 261.790622 136.213538 
L 278.877703 136.220903 
L 295.964785 136.229052 
L 313.051866 136.238006 
L 330.138947 136.247784 
L 347.226029 136.258408 
L 364.31311 136.269899 
L 381.400191 136.282278 
L 398.487273 136.29557 
" clip-path="url(#p11bdd1e0c3)" style="fill: none; stroke: #8c564b; stroke-width: 1.5; stroke-linecap: square"/>
   </g>
   <g id="line2d_42">
    <path d="M 73.832727 136.546332 
L 90.919809 136.546355 
L 108.00689 136.546402 
L 125.093971 136.546475 
L 142.181053 136.546576 
L 159.268134 136.546706 
L 176.355215 136.546868 
L 193.442297 136.547063 
L 210.529378 136.54729 
L 227.616459 136.547552 
L 244.703541 136.547848 
L 261.790622 136.548179 
L 278.877703 136.548544 
L 295.964785 136.548943 
L 313.051866 136.549377 
L 330.138947 136.549844 
L 347.226029 136.550344 
L 364.31311 136.550875 
L 381.400191 136.551437 
L 398.487273 136.552029 
" clip-path="url(#p11bdd1e0c3)" style="fill: none; stroke: #e377c2; stroke-width: 1.5; stroke-linecap: square"/>
   </g>
   <g id="line2d_43">
    <path d="M 73.832727 136.556712 
L 90.919809 136.556713 
L 108.00689 136.556714 
L 125.093971 136.556717 
L 142.181053 136.55672 
L 159.268134 136.556724 
L 176.355215 136.556729 
L 193.442297 136.556735 
L 210.529378 136.556742 
L 227.616459 136.55675 
L 244.703541 136.556759 
L 261.790622 136.55677 
L 278.877703 136.556781 
L 295.964785 136.556793 
L 313.051866 136.556806 
L 330.138947 136.55682 
L 347.226029 136.556834 
L 364.31311 136.55685 
L 381.400191 136.556866 
L 398.487273 136.556883 
" clip-path="url(#p11bdd1e0c3)" style="fill: none; stroke: #7f7f7f; stroke-width: 1.5; stroke-linecap: square"/>
   </g>
   <g id="line2d_44">
    <path d="M 73.832727 139.725256 
L 90.919809 139.581887 
L 108.00689 139.459945 
L 125.093971 139.354125 
L 142.181053 139.261139 
L 159.268134 139.178786 
L 176.355215 139.105504 
L 193.442297 139.04014 
L 210.529378 138.981819 
L 227.616459 138.929863 
L 244.703541 138.88374 
L 261.790622 138.843032 
L 278.877703 138.807407 
L 295.964785 138.776604 
L 313.051866 138.750425 
L 330.138947 138.72872 
L 347.226029 138.711387 
L 364.31311 138.698369 
L 381.400191 138.689649 
L 398.487273 138.685253 
" clip-path="url(#p11bdd1e0c3)" style="fill: none; stroke: #bcbd22; stroke-width: 1.5; stroke-linecap: square"/>
   </g>
   <g id="line2d_45">
    <path d="M 73.832727 140.258193 
L 90.919809 140.163686 
L 108.00689 140.084021 
L 125.093971 140.015083 
L 142.181053 139.954448 
L 159.268134 139.90057 
L 176.355215 139.852408 
L 193.442297 139.80923 
L 210.529378 139.770504 
L 227.616459 139.735827 
L 244.703541 139.704895 
L 261.790622 139.677472 
L 278.877703 139.653376 
L 295.964785 139.632468 
L 313.051866 139.614642 
L 330.138947 139.599824 
L 347.226029 139.587968 
L 364.31311 139.579048 
L 381.400191 139.573068 
L 398.487273 139.570053 
" clip-path="url(#p11bdd1e0c3)" style="fill: none; stroke: #17becf; stroke-width: 1.5; stroke-linecap: square"/>
   </g>
   <g id="line2d_46">
    <path d="M 73.832727 140.303197 
L 90.919809 140.250829 
L 108.00689 140.204341 
L 125.093971 140.16268 
L 142.181053 140.125093 
L 159.268134 140.091037 
L 176.355215 140.060116 
L 193.442297 140.032042 
L 210.529378 140.006595 
L 227.616459 139.983606 
L 244.703541 139.962946 
L 261.790622 139.944515 
L 278.877703 139.928233 
L 295.964785 139.914041 
L 313.051866 139.901899 
L 330.138947 139.891776 
L 347.226029 139.883657 
L 364.31311 139.877541 
L 381.400191 139.873436 
L 398.487273 139.871365 
" clip-path="url(#p11bdd1e0c3)" style="fill: none; stroke: #1f77b4; stroke-width: 1.5; stroke-linecap: square"/>
   </g>
   <g id="line2d_47">
    <path d="M 73.832727 140.316837 
L 90.919809 140.284116 
L 108.00689 140.254124 
L 125.093971 140.226594 
L 142.181053 140.201292 
L 159.268134 140.178025 
L 176.355215 140.156644 
L 193.442297 140.137036 
L 210.529378 140.119112 
L 227.616459 140.102805 
L 244.703541 140.088061 
L 261.790622 140.07484 
L 278.877703 140.063111 
L 295.964785 140.052851 
L 313.051866 140.044046 
L 330.138947 140.036688 
L 347.226029 140.030777 
L 364.31311 140.026317 
L 381.400191 140.023323 
L 398.487273 140.021812 
" clip-path="url(#p11bdd1e0c3)" style="fill: none; stroke: #ff7f0e; stroke-width: 1.5; stroke-linecap: square"/>
   </g>
   <g id="line2d_48">
    <path d="M 73.832727 140.323486 
L 90.919809 140.301543 
L 108.00689 140.281005 
L 125.093971 140.261829 
L 142.181053 140.243956 
L 159.268134 140.227328 
L 176.355215 140.211896 
L 193.442297 140.197625 
L 210.529378 140.184485 
L 227.616459 140.172457 
L 244.703541 140.161523 
L 261.790622 140.151674 
L 278.877703 140.142903 
L 295.964785 140.135205 
L 313.051866 140.128581 
L 330.138947 140.123034 
L 347.226029 140.11857 
L 364.31311 140.115199 
L 381.400191 140.112933 
L 398.487273 140.11179 
" clip-path="url(#p11bdd1e0c3)" style="fill: none; stroke: #2ca02c; stroke-width: 1.5; stroke-linecap: square"/>
   </g>
   <g id="patch_10">
    <path d="M 57.6 142.411034 
L 57.6 96.529655 
" style="fill: none; stroke: #000000; stroke-width: 0.8; stroke-linejoin: miter; stroke-linecap: square"/>
   </g>
   <g id="patch_11">
    <path d="M 414.72 142.411034 
L 414.72 96.529655 
" style="fill: none; stroke: #000000; stroke-width: 0.8; stroke-linejoin: miter; stroke-linecap: square"/>
   </g>
   <g id="patch_12">
    <path d="M 57.6 142.411034 
L 414.72 142.411034 
" style="fill: none; stroke: #000000; stroke-width: 0.8; stroke-linejoin: miter; stroke-linecap: square"/>
   </g>
   <g id="patch_13">
    <path d="M 57.6 96.529655 
L 414.72 96.529655 
" style="fill: none; stroke: #000000; stroke-width: 0.8; stroke-linejoin: miter; stroke-linecap: square"/>
   </g>
   <g id="text_10">
    <!-- Pressure - Container 1 -->
    <g transform="translate(169.523438 93.529655)scale(0.12 -0.12)">
     <defs>
      <path id="DejaVuSans-50" d="M 1259 4147 
L 1259 2394 
L 2053 2394 
Q 2494 2394 2734 2622 
Q 2975 2850 2975 3272 
Q 2975 3691 2734 3919 
Q 2494 4147 2053 4147 
L 1259 4147 
z
M 628 4666 
L 2053 4666 
Q 2838 4666 3239 4311 
Q 3641 3956 3641 3272 
Q 3641 2581 3239 2228 
Q 2838 1875 2053 1875 
L 1259 1875 
L 1259 0 
L 628 0 
L 628 4666 
z
" transform="scale(0.015625)"/>
      <path id="DejaVuSans-75" d="M 544 1381 
L 544 3500 
L 1119 3500 
L 1119 1403 
Q 1119 906 1312 657 
Q 1506 409 1894 409 
Q 2359 409 2629 706 
Q 2900 1003 2900 1516 
L 2900 3500 
L 3475 3500 
L 3475 0 
L 2900 0 
L 2900 538 
Q 2691 219 2414 64 
Q 2138 -91 1772 -91 
Q 1169 -91 856 284 
Q 544 659 544 1381 
z
M 1991 3584 
L 1991 3584 
z
" transform="scale(0.015625)"/>
     </defs>
     <use xlink:href="#DejaVuSans-50"/>
     <use xlink:href="#DejaVuSans-72" x="58.552734"/>
     <use xlink:href="#DejaVuSans-65" x="97.416016"/>
     <use xlink:href="#DejaVuSans-73" x="158.939453"/>
     <use xlink:href="#DejaVuSans-73" x="211.039062"/>
     <use xlink:href="#DejaVuSans-75" x="263.138672"/>
     <use xlink:href="#DejaVuSans-72" x="326.517578"/>
     <use xlink:href="#DejaVuSans-65" x="365.380859"/>
     <use xlink:href="#DejaVuSans-20" x="426.904297"/>
     <use xlink:href="#DejaVuSans-2d" x="458.691406"/>
     <use xlink:href="#DejaVuSans-20" x="494.775391"/>
     <use xlink:href="#DejaVuSans-43" x="526.5625"/>
     <use xlink:href="#DejaVuSans-6f" x="596.386719"/>
     <use xlink:href="#DejaVuSans-6e" x="657.568359"/>
     <use xlink:href="#DejaVuSans-74" x="720.947266"/>
     <use xlink:href="#DejaVuSans-61" x="760.15625"/>
     <use xlink:href="#DejaVuSans-69" x="821.435547"/>
     <use xlink:href="#DejaVuSans-6e" x="849.21875"/>
     <use xlink:href="#DejaVuSans-65" x="912.597656"/>
     <use xlink:href="#DejaVuSans-72" x="974.121094"/>
     <use xlink:href="#DejaVuSans-20" x="1015.234375"/>
     <use xlink:href="#DejaVuSans-31" x="1047.021484"/>
    </g>
   </g>
  </g>
  <g id="axes_4">
   <g id="patch_14">
    <path d="M 57.6 197.46869 
L 414.72 197.46869 
L 414.72 151.58731 
L 57.6 151.58731 
z
" style="fill: #ffffff"/>
   </g>
   <g id="matplotlib.axis_7">
    <g id="xtick_17">
     <g id="line2d_49">
      <g>
       <use xlink:href="#m376018f1e3" x="73.832727" y="197.46869" style="stroke: #000000; stroke-width: 0.8"/>
      </g>
     </g>
    </g>
    <g id="xtick_18">
     <g id="line2d_50">
      <g>
       <use xlink:href="#m376018f1e3" x="116.550431" y="197.46869" style="stroke: #000000; stroke-width: 0.8"/>
      </g>
     </g>
    </g>
    <g id="xtick_19">
     <g id="line2d_51">
      <g>
       <use xlink:href="#m376018f1e3" x="159.268134" y="197.46869" style="stroke: #000000; stroke-width: 0.8"/>
      </g>
     </g>
    </g>
    <g id="xtick_20">
     <g id="line2d_52">
      <g>
       <use xlink:href="#m376018f1e3" x="201.985837" y="197.46869" style="stroke: #000000; stroke-width: 0.8"/>
      </g>
     </g>
    </g>
    <g id="xtick_21">
     <g id="line2d_53">
      <g>
       <use xlink:href="#m376018f1e3" x="244.703541" y="197.46869" style="stroke: #000000; stroke-width: 0.8"/>
      </g>
     </g>
    </g>
    <g id="xtick_22">
     <g id="line2d_54">
      <g>
       <use xlink:href="#m376018f1e3" x="287.421244" y="197.46869" style="stroke: #000000; stroke-width: 0.8"/>
      </g>
     </g>
    </g>
    <g id="xtick_23">
     <g id="line2d_55">
      <g>
       <use xlink:href="#m376018f1e3" x="330.138947" y="197.46869" style="stroke: #000000; stroke-width: 0.8"/>
      </g>
     </g>
    </g>
    <g id="xtick_24">
     <g id="line2d_56">
      <g>
       <use xlink:href="#m376018f1e3" x="372.856651" y="197.46869" style="stroke: #000000; stroke-width: 0.8"/>
      </g>
     </g>
    </g>
   </g>
   <g id="matplotlib.axis_8">
    <g id="ytick_7">
     <g id="line2d_57">
      <g>
       <use xlink:href="#m773bfe38ee" x="57.6" y="187.123576" style="stroke: #000000; stroke-width: 0.8"/>
      </g>
     </g>
     <g id="text_11">
      <!-- 0.05 -->
      <g transform="translate(28.334375 190.922795)scale(0.1 -0.1)">
       <defs>
        <path id="DejaVuSans-2e" d="M 684 794 
L 1344 794 
L 1344 0 
L 684 0 
L 684 794 
z
" transform="scale(0.015625)"/>
        <path id="DejaVuSans-35" d="M 691 4666 
L 3169 4666 
L 3169 4134 
L 1269 4134 
L 1269 2991 
Q 1406 3038 1543 3061 
Q 1681 3084 1819 3084 
Q 2600 3084 3056 2656 
Q 3513 2228 3513 1497 
Q 3513 744 3044 326 
Q 2575 -91 1722 -91 
Q 1428 -91 1123 -41 
Q 819 9 494 109 
L 494 744 
Q 775 591 1075 516 
Q 1375 441 1709 441 
Q 2250 441 2565 725 
Q 2881 1009 2881 1497 
Q 2881 1984 2565 2268 
Q 2250 2553 1709 2553 
Q 1456 2553 1204 2497 
Q 953 2441 691 2322 
L 691 4666 
z
" transform="scale(0.015625)"/>
       </defs>
       <use xlink:href="#DejaVuSans-30"/>
       <use xlink:href="#DejaVuSans-2e" x="63.623047"/>
       <use xlink:href="#DejaVuSans-30" x="95.410156"/>
       <use xlink:href="#DejaVuSans-35" x="159.033203"/>
      </g>
     </g>
    </g>
    <g id="ytick_8">
     <g id="line2d_58">
      <g>
       <use xlink:href="#m773bfe38ee" x="57.6" y="175.021799" style="stroke: #000000; stroke-width: 0.8"/>
      </g>
     </g>
     <g id="text_12">
      <!-- 0.10 -->
      <g transform="translate(28.334375 178.821018)scale(0.1 -0.1)">
       <use xlink:href="#DejaVuSans-30"/>
       <use xlink:href="#DejaVuSans-2e" x="63.623047"/>
       <use xlink:href="#DejaVuSans-31" x="95.410156"/>
       <use xlink:href="#DejaVuSans-30" x="159.033203"/>
      </g>
     </g>
    </g>
    <g id="ytick_9">
     <g id="line2d_59">
      <g>
       <use xlink:href="#m773bfe38ee" x="57.6" y="162.920023" style="stroke: #000000; stroke-width: 0.8"/>
      </g>
     </g>
     <g id="text_13">
      <!-- 0.15 -->
      <g transform="translate(28.334375 166.719241)scale(0.1 -0.1)">
       <use xlink:href="#DejaVuSans-30"/>
       <use xlink:href="#DejaVuSans-2e" x="63.623047"/>
       <use xlink:href="#DejaVuSans-31" x="95.410156"/>
       <use xlink:href="#DejaVuSans-35" x="159.033203"/>
      </g>
     </g>
    </g>
   </g>
   <g id="line2d_60">
    <path d="M 73.832727 153.672828 
L 90.919809 155.342826 
L 108.00689 157.868826 
L 125.093971 160.62924 
L 142.181053 163.2602 
L 159.268134 165.603787 
L 176.355215 167.647901 
L 193.442297 169.437263 
L 210.529378 171.019288 
L 227.616459 172.430773 
L 244.703541 173.699969 
L 261.790622 174.849839 
L 278.877703 175.899933 
L 295.964785 176.867445 
L 313.051866 177.768018 
L 330.138947 178.616435 
L 347.226029 179.427257 
L 364.31311 180.215304 
L 381.400191 180.995274 
L 398.487273 181.771307 
" clip-path="url(#p0c041f22fd)" style="fill: none; stroke: #1f77b4; stroke-width: 1.5; stroke-linecap: square"/>
   </g>
   <g id="line2d_61">
    <path d="M 73.832727 189.253035 
L 90.919809 190.448012 
L 108.00689 191.178842 
L 125.093971 191.696317 
L 142.181053 192.120333 
L 159.268134 192.490787 
L 176.355215 192.818408 
L 193.442297 193.108889 
L 210.529378 193.368341 
L 227.616459 193.602705 
L 244.703541 193.817021 
L 261.790622 194.015381 
L 278.877703 194.201183 
L 295.964785 194.377381 
L 313.051866 194.546688 
L 330.138947 194.711748 
L 347.226029 194.875271 
L 364.31311 195.04015 
L 381.400191 195.209374 
L 398.487273 195.383172 
" clip-path="url(#p0c041f22fd)" style="fill: none; stroke: #ff7f0e; stroke-width: 1.5; stroke-linecap: square"/>
   </g>
   <g id="line2d_62">
    <path d="M 73.832727 188.669717 
L 90.919809 190.033136 
L 108.00689 190.944839 
L 125.093971 191.55765 
L 142.181053 192.024846 
L 159.268134 192.417422 
L 176.355215 192.759582 
L 193.442297 193.061002 
L 210.529378 193.328847 
L 227.616459 193.56961 
L 244.703541 193.78881 
L 261.790622 193.990923 
L 278.877703 194.179623 
L 295.964785 194.358047 
L 313.051866 194.529034 
L 330.138947 194.695306 
L 347.226029 194.859619 
L 364.31311 195.024883 
L 381.400191 195.19407 
L 398.487273 195.367173 
" clip-path="url(#p0c041f22fd)" style="fill: none; stroke: #2ca02c; stroke-width: 1.5; stroke-linecap: square"/>
   </g>
   <g id="line2d_63">
    <path d="M 73.832727 187.6715 
L 90.919809 188.725741 
L 108.00689 189.897739 
L 125.093971 190.865527 
L 142.181053 191.57601 
L 159.268134 192.104552 
L 176.355215 192.523428 
L 193.442297 192.873392 
L 210.529378 193.17519 
L 227.616459 193.440889 
L 244.703541 193.678807 
L 261.790622 193.895185 
L 278.877703 194.094881 
L 295.964785 194.281835 
L 313.051866 194.459415 
L 330.138947 194.630698 
L 347.226029 194.798674 
L 364.31311 194.966407 
L 381.400191 195.137018 
L 398.487273 195.31095 
" clip-path="url(#p0c041f22fd)" style="fill: none; stroke: #d62728; stroke-width: 1.5; stroke-linecap: square"/>
   </g>
   <g id="line2d_64">
    <path d="M 73.832727 186.663907 
L 90.919809 187.455111 
L 108.00689 188.579631 
L 125.093971 189.714997 
L 142.181053 190.644084 
L 159.268134 191.342341 
L 176.355215 191.872028 
L 193.442297 192.293922 
L 210.529378 192.645958 
L 227.616459 192.9496 
L 244.703541 193.217795 
L 261.790622 193.459232 
L 278.877703 193.680246 
L 295.964785 193.885743 
L 313.051866 194.079769 
L 330.138947 194.26589 
L 347.226029 194.447478 
L 364.31311 194.627919 
L 381.400191 194.810642 
L 398.487273 194.996384 
" clip-path="url(#p0c041f22fd)" style="fill: none; stroke: #9467bd; stroke-width: 1.5; stroke-linecap: square"/>
   </g>
   <g id="line2d_65">
    <path d="M 73.832727 182.637972 
L 90.919809 183.644961 
L 108.00689 185.079568 
L 125.093971 186.546021 
L 142.181053 187.763643 
L 159.268134 188.687872 
L 176.355215 189.391144 
L 193.442297 189.950597 
L 210.529378 190.416341 
L 227.616459 190.81725 
L 244.703541 191.170741 
L 261.790622 191.488422 
L 278.877703 191.778711 
L 295.964785 192.048119 
L 313.051866 192.301999 
L 330.138947 192.545066 
L 347.226029 192.781774 
L 364.31311 193.016595 
L 381.400191 193.254095 
L 398.487273 193.495615 
" clip-path="url(#p0c041f22fd)" style="fill: none; stroke: #8c564b; stroke-width: 1.5; stroke-linecap: square"/>
   </g>
   <g id="line2d_66">
    <path d="M 73.832727 182.171855 
L 90.919809 183.202962 
L 108.00689 184.673428 
L 125.093971 186.178896 
L 142.181053 187.431375 
L 159.268134 188.383675 
L 176.355215 189.109222 
L 193.442297 189.686997 
L 210.529378 190.168525 
L 227.616459 190.583547 
L 244.703541 190.949997 
L 261.790622 191.279816 
L 278.877703 191.581652 
L 295.964785 191.862188 
L 313.051866 192.126911 
L 330.138947 192.380642 
L 347.226029 192.627925 
L 364.31311 192.873312 
L 381.400191 193.121434 
L 398.487273 193.373542 
" clip-path="url(#p0c041f22fd)" style="fill: none; stroke: #e377c2; stroke-width: 1.5; stroke-linecap: square"/>
   </g>
   <g id="line2d_67">
    <path d="M 73.832727 182.15951 
L 90.919809 183.190101 
L 108.00689 184.660956 
L 125.093971 186.16728 
L 142.181053 187.420875 
L 159.268134 188.374208 
L 176.355215 189.100595 
L 193.442297 189.679055 
L 210.529378 190.161171 
L 227.616459 190.576723 
L 244.703541 190.943666 
L 261.790622 191.273952 
L 278.877703 191.57624 
L 295.964785 191.857214 
L 313.051866 192.122367 
L 330.138947 192.37652 
L 347.226029 192.624221 
L 364.31311 192.87002 
L 381.400191 193.118547 
L 398.487273 193.370938 
" clip-path="url(#p0c041f22fd)" style="fill: none; stroke: #7f7f7f; stroke-width: 1.5; stroke-linecap: square"/>
   </g>
   <g id="line2d_68">
    <path d="M 73.832727 168.612561 
L 90.919809 172.336525 
L 108.00689 175.700042 
L 125.093971 178.587503 
L 142.181053 180.892577 
L 159.268134 182.662411 
L 176.355215 184.031658 
L 193.442297 185.125254 
L 210.529378 186.027657 
L 227.616459 186.791473 
L 244.703541 187.450733 
L 261.790622 188.029069 
L 278.877703 188.543863 
L 295.964785 189.008488 
L 313.051866 189.433701 
L 330.138947 189.82859 
L 347.226029 190.201284 
L 364.31311 190.559466 
L 381.400191 190.910533 
L 398.487273 191.257023 
" clip-path="url(#p0c041f22fd)" style="fill: none; stroke: #bcbd22; stroke-width: 1.5; stroke-linecap: square"/>
   </g>
   <g id="line2d_69">
    <path d="M 73.832727 155.523221 
L 90.919809 160.984603 
L 108.00689 165.717612 
L 125.093971 169.712314 
L 142.181053 172.94445 
L 159.268134 175.493614 
L 176.355215 177.513745 
L 193.442297 179.151323 
L 210.529378 180.511626 
L 227.616459 181.664466 
L 244.703541 182.657345 
L 261.790622 183.52438 
L 278.877703 184.291211 
L 295.964785 184.97781 
L 313.051866 185.60032 
L 330.138947 186.172358 
L 347.226029 186.705994 
L 364.31311 187.21248 
L 381.400191 187.702453 
L 398.487273 188.179951 
" clip-path="url(#p0c041f22fd)" style="fill: none; stroke: #17becf; stroke-width: 1.5; stroke-linecap: square"/>
   </g>
   <g id="line2d_70">
    <path d="M 73.832727 154.242214 
L 90.919809 157.855482 
L 108.00689 161.747384 
L 125.093971 165.402048 
L 142.181053 168.566723 
L 159.268134 171.191064 
L 176.355215 173.352061 
L 193.442297 175.155459 
L 210.529378 176.686796 
L 227.616459 178.00663 
L 244.703541 179.158312 
L 261.790622 180.174402 
L 278.877703 181.080342 
L 295.964785 181.896639 
L 313.051866 182.640377 
L 330.138947 183.326367 
L 347.226029 183.968062 
L 364.31311 184.578266 
L 381.400191 185.169238 
L 398.487273 185.745494 
" clip-path="url(#p0c041f22fd)" style="fill: none; stroke: #1f77b4; stroke-width: 1.5; stroke-linecap: square"/>
   </g>
   <g id="line2d_71">
    <path d="M 73.832727 153.898228 
L 90.919809 156.419352 
L 108.00689 159.611694 
L 125.093971 162.849068 
L 142.181053 165.793548 
L 159.268134 168.326136 
L 176.355215 170.472563 
L 193.442297 172.305724 
L 210.529378 173.891823 
L 227.616459 175.280121 
L 244.703541 176.507256 
L 261.790622 177.601795 
L 278.877703 178.586856 
L 295.964785 179.481694 
L 313.051866 180.302844 
L 330.138947 181.065072 
L 347.226029 181.782165 
L 364.31311 182.467573 
L 381.400191 183.13439 
L 398.487273 183.787126 
" clip-path="url(#p0c041f22fd)" style="fill: none; stroke: #ff7f0e; stroke-width: 1.5; stroke-linecap: square"/>
   </g>
   <g id="line2d_72">
    <path d="M 73.832727 153.699933 
L 90.919809 155.579477 
L 108.00689 158.28148 
L 125.093971 161.174998 
L 142.181053 163.898488 
L 159.268134 166.301973 
L 176.355215 168.381947 
L 193.442297 170.189741 
L 210.529378 171.777394 
L 227.616459 173.185011 
L 244.703541 174.443229 
L 261.790622 175.576639 
L 278.877703 176.605747 
L 295.964785 177.548126 
L 313.051866 178.419301 
L 330.138947 179.233522 
L 347.226029 180.004456 
L 364.31311 180.745757 
L 381.400191 181.470935 
L 398.487273 182.184245 
" clip-path="url(#p0c041f22fd)" style="fill: none; stroke: #2ca02c; stroke-width: 1.5; stroke-linecap: square"/>
   </g>
   <g id="patch_15">
    <path d="M 57.6 197.46869 
L 57.6 151.58731 
" style="fill: none; stroke: #000000; stroke-width: 0.8; stroke-linejoin: miter; stroke-linecap: square"/>
   </g>
   <g id="patch_16">
    <path d="M 414.72 197.46869 
L 414.72 151.58731 
" style="fill: none; stroke: #000000; stroke-width: 0.8; stroke-linejoin: miter; stroke-linecap: square"/>
   </g>
   <g id="patch_17">
    <path d="M 57.6 197.46869 
L 414.72 197.46869 
" style="fill: none; stroke: #000000; stroke-width: 0.8; stroke-linejoin: miter; stroke-linecap: square"/>
   </g>
   <g id="patch_18">
    <path d="M 57.6 151.58731 
L 414.72 151.58731 
" style="fill: none; stroke: #000000; stroke-width: 0.8; stroke-linejoin: miter; stroke-linecap: square"/>
   </g>
   <g id="text_14">
    <!-- yA - Container 1 -->
    <g transform="translate(187.48125 148.58731)scale(0.12 -0.12)">
     <defs>
      <path id="DejaVuSans-41" d="M 2188 4044 
L 1331 1722 
L 3047 1722 
L 2188 4044 
z
M 1831 4666 
L 2547 4666 
L 4325 0 
L 3669 0 
L 3244 1197 
L 1141 1197 
L 716 0 
L 50 0 
L 1831 4666 
z
" transform="scale(0.015625)"/>
     </defs>
     <use xlink:href="#DejaVuSans-79"/>
     <use xlink:href="#DejaVuSans-41" x="59.179688"/>
     <use xlink:href="#DejaVuSans-20" x="127.587891"/>
     <use xlink:href="#DejaVuSans-2d" x="159.375"/>
     <use xlink:href="#DejaVuSans-20" x="195.458984"/>
     <use xlink:href="#DejaVuSans-43" x="227.246094"/>
     <use xlink:href="#DejaVuSans-6f" x="297.070312"/>
     <use xlink:href="#DejaVuSans-6e" x="358.251953"/>
     <use xlink:href="#DejaVuSans-74" x="421.630859"/>
     <use xlink:href="#DejaVuSans-61" x="460.839844"/>
     <use xlink:href="#DejaVuSans-69" x="522.119141"/>
     <use xlink:href="#DejaVuSans-6e" x="549.902344"/>
     <use xlink:href="#DejaVuSans-65" x="613.28125"/>
     <use xlink:href="#DejaVuSans-72" x="674.804688"/>
     <use xlink:href="#DejaVuSans-20" x="715.917969"/>
     <use xlink:href="#DejaVuSans-31" x="747.705078"/>
    </g>
   </g>
  </g>
  <g id="axes_5">
   <g id="patch_19">
    <path d="M 57.6 252.526345 
L 414.72 252.526345 
L 414.72 206.644966 
L 57.6 206.644966 
z
" style="fill: #ffffff"/>
   </g>
   <g id="matplotlib.axis_9">
    <g id="xtick_25">
     <g id="line2d_73">
      <g>
       <use xlink:href="#m376018f1e3" x="73.832727" y="252.526345" style="stroke: #000000; stroke-width: 0.8"/>
      </g>
     </g>
    </g>
    <g id="xtick_26">
     <g id="line2d_74">
      <g>
       <use xlink:href="#m376018f1e3" x="116.550431" y="252.526345" style="stroke: #000000; stroke-width: 0.8"/>
      </g>
     </g>
    </g>
    <g id="xtick_27">
     <g id="line2d_75">
      <g>
       <use xlink:href="#m376018f1e3" x="159.268134" y="252.526345" style="stroke: #000000; stroke-width: 0.8"/>
      </g>
     </g>
    </g>
    <g id="xtick_28">
     <g id="line2d_76">
      <g>
       <use xlink:href="#m376018f1e3" x="201.985837" y="252.526345" style="stroke: #000000; stroke-width: 0.8"/>
      </g>
     </g>
    </g>
    <g id="xtick_29">
     <g id="line2d_77">
      <g>
       <use xlink:href="#m376018f1e3" x="244.703541" y="252.526345" style="stroke: #000000; stroke-width: 0.8"/>
      </g>
     </g>
    </g>
    <g id="xtick_30">
     <g id="line2d_78">
      <g>
       <use xlink:href="#m376018f1e3" x="287.421244" y="252.526345" style="stroke: #000000; stroke-width: 0.8"/>
      </g>
     </g>
    </g>
    <g id="xtick_31">
     <g id="line2d_79">
      <g>
       <use xlink:href="#m376018f1e3" x="330.138947" y="252.526345" style="stroke: #000000; stroke-width: 0.8"/>
      </g>
     </g>
    </g>
    <g id="xtick_32">
     <g id="line2d_80">
      <g>
       <use xlink:href="#m376018f1e3" x="372.856651" y="252.526345" style="stroke: #000000; stroke-width: 0.8"/>
      </g>
     </g>
    </g>
   </g>
   <g id="matplotlib.axis_10">
    <g id="ytick_10">
     <g id="line2d_81">
      <g>
       <use xlink:href="#m773bfe38ee" x="57.6" y="244.646474" style="stroke: #000000; stroke-width: 0.8"/>
      </g>
     </g>
     <g id="text_15">
      <!-- 0.8 -->
      <g transform="translate(34.696875 248.445693)scale(0.1 -0.1)">
       <defs>
        <path id="DejaVuSans-38" d="M 2034 2216 
Q 1584 2216 1326 1975 
Q 1069 1734 1069 1313 
Q 1069 891 1326 650 
Q 1584 409 2034 409 
Q 2484 409 2743 651 
Q 3003 894 3003 1313 
Q 3003 1734 2745 1975 
Q 2488 2216 2034 2216 
z
M 1403 2484 
Q 997 2584 770 2862 
Q 544 3141 544 3541 
Q 544 4100 942 4425 
Q 1341 4750 2034 4750 
Q 2731 4750 3128 4425 
Q 3525 4100 3525 3541 
Q 3525 3141 3298 2862 
Q 3072 2584 2669 2484 
Q 3125 2378 3379 2068 
Q 3634 1759 3634 1313 
Q 3634 634 3220 271 
Q 2806 -91 2034 -91 
Q 1263 -91 848 271 
Q 434 634 434 1313 
Q 434 1759 690 2068 
Q 947 2378 1403 2484 
z
M 1172 3481 
Q 1172 3119 1398 2916 
Q 1625 2713 2034 2713 
Q 2441 2713 2670 2916 
Q 2900 3119 2900 3481 
Q 2900 3844 2670 4047 
Q 2441 4250 2034 4250 
Q 1625 4250 1398 4047 
Q 1172 3844 1172 3481 
z
" transform="scale(0.015625)"/>
       </defs>
       <use xlink:href="#DejaVuSans-30"/>
       <use xlink:href="#DejaVuSans-2e" x="63.623047"/>
       <use xlink:href="#DejaVuSans-38" x="95.410156"/>
      </g>
     </g>
    </g>
    <g id="ytick_11">
     <g id="line2d_82">
      <g>
       <use xlink:href="#m773bfe38ee" x="57.6" y="217.251354" style="stroke: #000000; stroke-width: 0.8"/>
      </g>
     </g>
     <g id="text_16">
      <!-- 0.9 -->
      <g transform="translate(34.696875 221.050572)scale(0.1 -0.1)">
       <defs>
        <path id="DejaVuSans-39" d="M 703 97 
L 703 672 
Q 941 559 1184 500 
Q 1428 441 1663 441 
Q 2288 441 2617 861 
Q 2947 1281 2994 2138 
Q 2813 1869 2534 1725 
Q 2256 1581 1919 1581 
Q 1219 1581 811 2004 
Q 403 2428 403 3163 
Q 403 3881 828 4315 
Q 1253 4750 1959 4750 
Q 2769 4750 3195 4129 
Q 3622 3509 3622 2328 
Q 3622 1225 3098 567 
Q 2575 -91 1691 -91 
Q 1453 -91 1209 -44 
Q 966 3 703 97 
z
M 1959 2075 
Q 2384 2075 2632 2365 
Q 2881 2656 2881 3163 
Q 2881 3666 2632 3958 
Q 2384 4250 1959 4250 
Q 1534 4250 1286 3958 
Q 1038 3666 1038 3163 
Q 1038 2656 1286 2365 
Q 1534 2075 1959 2075 
z
" transform="scale(0.015625)"/>
       </defs>
       <use xlink:href="#DejaVuSans-30"/>
       <use xlink:href="#DejaVuSans-2e" x="63.623047"/>
       <use xlink:href="#DejaVuSans-39" x="95.410156"/>
      </g>
     </g>
    </g>
   </g>
   <g id="line2d_83">
    <path d="M 73.832727 250.42433 
L 90.919809 248.580252 
L 108.00689 245.811112 
L 125.093971 242.791265 
L 142.181053 239.915573 
L 159.268134 237.355285 
L 176.355215 235.123179 
L 193.442297 233.170272 
L 210.529378 231.44469 
L 227.616459 229.906147 
L 244.703541 228.52369 
L 261.790622 227.272149 
L 278.877703 226.130103 
L 295.964785 225.078712 
L 313.051866 224.100852 
L 330.138947 223.180351 
L 347.226029 222.301299 
L 364.31311 221.447518 
L 381.400191 220.602963 
L 398.487273 219.763019 
" clip-path="url(#p58b388b9b8)" style="fill: none; stroke: #1f77b4; stroke-width: 1.5; stroke-linecap: square"/>
   </g>
   <g id="line2d_84">
    <path d="M 73.832727 215.028636 
L 90.919809 213.796565 
L 108.00689 213.078091 
L 125.093971 212.597424 
L 142.181053 212.224305 
L 159.268134 211.915736 
L 176.355215 211.6605 
L 193.442297 211.453073 
L 210.529378 211.287756 
L 227.616459 211.15934 
L 244.703541 211.063975 
L 261.790622 210.999349 
L 278.877703 210.96465 
L 295.964785 210.96069 
L 313.051866 210.990384 
L 330.138947 211.05993 
L 347.226029 211.181617 
L 364.31311 211.381145 
L 381.400191 211.716472 
L 398.487273 212.258885 
" clip-path="url(#p58b388b9b8)" style="fill: none; stroke: #ff7f0e; stroke-width: 1.5; stroke-linecap: square"/>
   </g>
   <g id="line2d_85">
    <path d="M 73.832727 215.586226 
L 90.919809 214.126898 
L 108.00689 213.165473 
L 125.093971 212.536952 
L 142.181053 212.075617 
L 159.268134 211.704684 
L 176.355215 211.397933 
L 193.442297 211.144858 
L 210.529378 210.937764 
L 227.616459 210.769852 
L 244.703541 210.635621 
L 261.790622 210.531004 
L 278.877703 210.453226 
L 295.964785 210.400684 
L 313.051866 210.372986 
L 330.138947 210.37129 
L 347.226029 210.399235 
L 364.31311 210.465252 
L 381.400191 210.587133 
L 398.487273 210.782358 
" clip-path="url(#p58b388b9b8)" style="fill: none; stroke: #2ca02c; stroke-width: 1.5; stroke-linecap: square"/>
   </g>
   <g id="line2d_86">
    <path d="M 73.832727 216.657985 
L 90.919809 215.516393 
L 108.00689 214.247665 
L 125.093971 213.200825 
L 142.181053 212.433711 
L 159.268134 211.865085 
L 176.355215 211.417129 
L 193.442297 211.046242 
L 210.529378 210.73056 
L 227.616459 210.457669 
L 244.703541 210.219261 
L 261.790622 210.009323 
L 278.877703 209.823383 
L 295.964785 209.65803 
L 313.051866 209.510554 
L 330.138947 209.378714 
L 347.226029 209.260603 
L 364.31311 209.154683 
L 381.400191 209.060153 
L 398.487273 208.978685 
" clip-path="url(#p58b388b9b8)" style="fill: none; stroke: #d62728; stroke-width: 1.5; stroke-linecap: square"/>
   </g>
   <g id="line2d_87">
    <path d="M 73.832727 217.59763 
L 90.919809 216.739861 
L 108.00689 215.520691 
L 125.093971 214.289799 
L 142.181053 213.282714 
L 159.268134 212.526198 
L 176.355215 211.952884 
L 193.442297 211.496996 
L 210.529378 211.117549 
L 227.616459 210.791453 
L 244.703541 210.504897 
L 261.790622 210.248735 
L 278.877703 210.016427 
L 295.964785 209.803035 
L 313.051866 209.604616 
L 330.138947 209.417822 
L 347.226029 209.239608 
L 364.31311 209.067056 
L 381.400191 208.897407 
L 398.487273 208.730483 
" clip-path="url(#p58b388b9b8)" style="fill: none; stroke: #9467bd; stroke-width: 1.5; stroke-linecap: square"/>
   </g>
   <g id="line2d_88">
    <path d="M 73.832727 221.2487 
L 90.919809 220.156895 
L 108.00689 218.601455 
L 125.093971 217.011365 
L 142.181053 215.690928 
L 159.268134 214.688583 
L 176.355215 213.925935 
L 193.442297 213.319459 
L 210.529378 212.814901 
L 227.616459 212.381026 
L 244.703541 211.999038 
L 261.790622 211.656452 
L 278.877703 211.344267 
L 295.964785 211.055573 
L 313.051866 210.784739 
L 330.138947 210.526858 
L 347.226029 210.277343 
L 364.31311 210.031631 
L 381.400191 209.785126 
L 398.487273 209.53668 
" clip-path="url(#p58b388b9b8)" style="fill: none; stroke: #8c564b; stroke-width: 1.5; stroke-linecap: square"/>
   </g>
   <g id="line2d_89">
    <path d="M 73.832727 221.680058 
L 90.919809 220.562227 
L 108.00689 218.968117 
L 125.093971 217.336014 
L 142.181053 215.978142 
L 159.268134 214.945784 
L 176.355215 214.159485 
L 193.442297 213.533726 
L 210.529378 213.012723 
L 227.616459 212.564304 
L 244.703541 212.169105 
L 261.790622 211.81428 
L 278.877703 211.490566 
L 295.964785 211.19086 
L 313.051866 210.909378 
L 330.138947 210.641084 
L 347.226029 210.381278 
L 364.31311 210.125296 
L 381.400191 209.868444 
L 398.487273 209.60946 
" clip-path="url(#p58b388b9b8)" style="fill: none; stroke: #e377c2; stroke-width: 1.5; stroke-linecap: square"/>
   </g>
   <g id="line2d_90">
    <path d="M 73.832727 221.691109 
L 90.919809 220.573861 
L 108.00689 218.979349 
L 125.093971 217.346342 
L 142.181053 215.987286 
L 159.268134 214.953838 
L 176.355215 214.166662 
L 193.442297 213.5402 
L 210.529378 213.018605 
L 227.616459 212.569664 
L 244.703541 212.173991 
L 261.790622 211.818723 
L 278.877703 211.494592 
L 295.964785 211.194488 
L 313.051866 210.912622 
L 330.138947 210.643956 
L 347.226029 210.383789 
L 364.31311 210.127455 
L 381.400191 209.870253 
L 398.487273 209.610777 
" clip-path="url(#p58b388b9b8)" style="fill: none; stroke: #7f7f7f; stroke-width: 1.5; stroke-linecap: square"/>
   </g>
   <g id="line2d_91">
    <path d="M 73.832727 235.360911 
L 90.919809 231.363388 
L 108.00689 227.751098 
L 125.093971 224.651197 
L 142.181053 222.180038 
L 159.268134 220.286978 
L 176.355215 218.826235 
L 193.442297 217.66251 
L 210.529378 216.704396 
L 227.616459 215.895024 
L 244.703541 215.197659 
L 261.790622 214.586834 
L 278.877703 214.04385 
L 295.964785 213.554346 
L 313.051866 213.106801 
L 330.138947 212.691494 
L 347.226029 212.299744 
L 364.31311 211.923351 
L 381.400191 211.554386 
L 398.487273 211.189955 
" clip-path="url(#p58b388b9b8)" style="fill: none; stroke: #bcbd22; stroke-width: 1.5; stroke-linecap: square"/>
   </g>
   <g id="line2d_92">
    <path d="M 73.832727 249.000892 
L 90.919809 243.086215 
L 108.00689 237.963987 
L 125.093971 233.644018 
L 142.181053 230.152257 
L 159.268134 227.402019 
L 176.355215 225.22593 
L 193.442297 223.464763 
L 210.529378 222.004082 
L 227.616459 220.768001 
L 244.703541 219.704897 
L 261.790622 218.777698 
L 278.877703 217.958559 
L 295.964785 217.2258 
L 313.051866 216.561909 
L 330.138947 215.952122 
L 347.226029 215.38336 
L 364.31311 214.843428 
L 381.400191 214.320773 
L 398.487273 213.810908 
" clip-path="url(#p58b388b9b8)" style="fill: none; stroke: #17becf; stroke-width: 1.5; stroke-linecap: square"/>
   </g>
   <g id="line2d_93">
    <path d="M 73.832727 250.145836 
L 90.919809 246.209038 
L 108.00689 241.976411 
L 125.093971 238.005626 
L 142.181053 234.569971 
L 159.268134 231.723392 
L 176.355215 229.381697 
L 193.442297 227.429568 
L 210.529378 225.773733 
L 227.616459 224.348135 
L 244.703541 223.105472 
L 261.790622 222.010212 
L 278.877703 221.034595 
L 295.964785 220.156249 
L 313.051866 219.356544 
L 330.138947 218.619338 
L 347.226029 217.929975 
L 364.31311 217.274513 
L 381.400191 216.639595 
L 398.487273 216.020206 
" clip-path="url(#p58b388b9b8)" style="fill: none; stroke: #1f77b4; stroke-width: 1.5; stroke-linecap: square"/>
   </g>
   <g id="line2d_94">
    <path d="M 73.832727 250.348606 
L 90.919809 247.58722 
L 108.00689 244.10306 
L 125.093971 240.574456 
L 142.181053 237.367561 
L 159.268134 234.611039 
L 176.355215 232.276412 
L 193.442297 230.284017 
L 210.529378 228.561532 
L 227.616459 227.05512 
L 244.703541 225.724715 
L 261.790622 224.539073 
L 278.877703 223.472905 
L 295.964785 222.505156 
L 313.051866 221.617748 
L 330.138947 220.794552 
L 347.226029 220.020517 
L 364.31311 219.280969 
L 381.400191 218.561622 
L 398.487273 217.857461 
" clip-path="url(#p58b388b9b8)" style="fill: none; stroke: #ff7f0e; stroke-width: 1.5; stroke-linecap: square"/>
   </g>
   <g id="line2d_95">
    <path d="M 73.832727 250.440828 
L 90.919809 248.370668 
L 108.00689 245.412387 
L 125.093971 242.250235 
L 142.181053 239.276398 
L 159.268134 236.653402 
L 176.355215 234.384629 
L 193.442297 232.413885 
L 210.529378 230.684251 
L 227.616459 229.151835 
L 244.703541 227.783083 
L 261.790622 226.551057 
L 278.877703 225.43329 
L 295.964785 224.410536 
L 313.051866 223.465799 
L 330.138947 222.58349 
L 347.226029 221.748675 
L 364.31311 220.946445 
L 381.400191 220.162049 
L 398.487273 219.390746 
" clip-path="url(#p58b388b9b8)" style="fill: none; stroke: #2ca02c; stroke-width: 1.5; stroke-linecap: square"/>
   </g>
   <g id="patch_20">
    <path d="M 57.6 252.526345 
L 57.6 206.644966 
" style="fill: none; stroke: #000000; stroke-width: 0.8; stroke-linejoin: miter; stroke-linecap: square"/>
   </g>
   <g id="patch_21">
    <path d="M 414.72 252.526345 
L 414.72 206.644966 
" style="fill: none; stroke: #000000; stroke-width: 0.8; stroke-linejoin: miter; stroke-linecap: square"/>
   </g>
   <g id="patch_22">
    <path d="M 57.6 252.526345 
L 414.72 252.526345 
" style="fill: none; stroke: #000000; stroke-width: 0.8; stroke-linejoin: miter; stroke-linecap: square"/>
   </g>
   <g id="patch_23">
    <path d="M 57.6 206.644966 
L 414.72 206.644966 
" style="fill: none; stroke: #000000; stroke-width: 0.8; stroke-linejoin: miter; stroke-linecap: square"/>
   </g>
   <g id="text_17">
    <!-- yB - Container 1 -->
    <g transform="translate(187.469063 203.644966)scale(0.12 -0.12)">
     <defs>
      <path id="DejaVuSans-42" d="M 1259 2228 
L 1259 519 
L 2272 519 
Q 2781 519 3026 730 
Q 3272 941 3272 1375 
Q 3272 1813 3026 2020 
Q 2781 2228 2272 2228 
L 1259 2228 
z
M 1259 4147 
L 1259 2741 
L 2194 2741 
Q 2656 2741 2882 2914 
Q 3109 3088 3109 3444 
Q 3109 3797 2882 3972 
Q 2656 4147 2194 4147 
L 1259 4147 
z
M 628 4666 
L 2241 4666 
Q 2963 4666 3353 4366 
Q 3744 4066 3744 3513 
Q 3744 3084 3544 2831 
Q 3344 2578 2956 2516 
Q 3422 2416 3680 2098 
Q 3938 1781 3938 1306 
Q 3938 681 3513 340 
Q 3088 0 2303 0 
L 628 0 
L 628 4666 
z
" transform="scale(0.015625)"/>
     </defs>
     <use xlink:href="#DejaVuSans-79"/>
     <use xlink:href="#DejaVuSans-42" x="59.179688"/>
     <use xlink:href="#DejaVuSans-20" x="127.783203"/>
     <use xlink:href="#DejaVuSans-2d" x="159.570312"/>
     <use xlink:href="#DejaVuSans-20" x="195.654297"/>
     <use xlink:href="#DejaVuSans-43" x="227.441406"/>
     <use xlink:href="#DejaVuSans-6f" x="297.265625"/>
     <use xlink:href="#DejaVuSans-6e" x="358.447266"/>
     <use xlink:href="#DejaVuSans-74" x="421.826172"/>
     <use xlink:href="#DejaVuSans-61" x="461.035156"/>
     <use xlink:href="#DejaVuSans-69" x="522.314453"/>
     <use xlink:href="#DejaVuSans-6e" x="550.097656"/>
     <use xlink:href="#DejaVuSans-65" x="613.476562"/>
     <use xlink:href="#DejaVuSans-72" x="675"/>
     <use xlink:href="#DejaVuSans-20" x="716.113281"/>
     <use xlink:href="#DejaVuSans-31" x="747.900391"/>
    </g>
   </g>
  </g>
  <g id="axes_6">
   <g id="patch_24">
    <path d="M 57.6 307.584 
L 414.72 307.584 
L 414.72 261.702621 
L 57.6 261.702621 
z
" style="fill: #ffffff"/>
   </g>
   <g id="matplotlib.axis_11">
    <g id="xtick_33">
     <g id="line2d_96">
      <g>
       <use xlink:href="#m376018f1e3" x="73.832727" y="307.584" style="stroke: #000000; stroke-width: 0.8"/>
      </g>
     </g>
     <g id="text_18">
      <!-- 0.0 -->
      <g transform="translate(65.881165 322.182437)scale(0.1 -0.1)">
       <use xlink:href="#DejaVuSans-30"/>
       <use xlink:href="#DejaVuSans-2e" x="63.623047"/>
       <use xlink:href="#DejaVuSans-30" x="95.410156"/>
      </g>
     </g>
    </g>
    <g id="xtick_34">
     <g id="line2d_97">
      <g>
       <use xlink:href="#m376018f1e3" x="116.550431" y="307.584" style="stroke: #000000; stroke-width: 0.8"/>
      </g>
     </g>
     <g id="text_19">
      <!-- 2.5 -->
      <g transform="translate(108.598868 322.182437)scale(0.1 -0.1)">
       <defs>
        <path id="DejaVuSans-32" d="M 1228 531 
L 3431 531 
L 3431 0 
L 469 0 
L 469 531 
Q 828 903 1448 1529 
Q 2069 2156 2228 2338 
Q 2531 2678 2651 2914 
Q 2772 3150 2772 3378 
Q 2772 3750 2511 3984 
Q 2250 4219 1831 4219 
Q 1534 4219 1204 4116 
Q 875 4013 500 3803 
L 500 4441 
Q 881 4594 1212 4672 
Q 1544 4750 1819 4750 
Q 2544 4750 2975 4387 
Q 3406 4025 3406 3419 
Q 3406 3131 3298 2873 
Q 3191 2616 2906 2266 
Q 2828 2175 2409 1742 
Q 1991 1309 1228 531 
z
" transform="scale(0.015625)"/>
       </defs>
       <use xlink:href="#DejaVuSans-32"/>
       <use xlink:href="#DejaVuSans-2e" x="63.623047"/>
       <use xlink:href="#DejaVuSans-35" x="95.410156"/>
      </g>
     </g>
    </g>
    <g id="xtick_35">
     <g id="line2d_98">
      <g>
       <use xlink:href="#m376018f1e3" x="159.268134" y="307.584" style="stroke: #000000; stroke-width: 0.8"/>
      </g>
     </g>
     <g id="text_20">
      <!-- 5.0 -->
      <g transform="translate(151.316571 322.182437)scale(0.1 -0.1)">
       <use xlink:href="#DejaVuSans-35"/>
       <use xlink:href="#DejaVuSans-2e" x="63.623047"/>
       <use xlink:href="#DejaVuSans-30" x="95.410156"/>
      </g>
     </g>
    </g>
    <g id="xtick_36">
     <g id="line2d_99">
      <g>
       <use xlink:href="#m376018f1e3" x="201.985837" y="307.584" style="stroke: #000000; stroke-width: 0.8"/>
      </g>
     </g>
     <g id="text_21">
      <!-- 7.5 -->
      <g transform="translate(194.034275 322.182437)scale(0.1 -0.1)">
       <defs>
        <path id="DejaVuSans-37" d="M 525 4666 
L 3525 4666 
L 3525 4397 
L 1831 0 
L 1172 0 
L 2766 4134 
L 525 4134 
L 525 4666 
z
" transform="scale(0.015625)"/>
       </defs>
       <use xlink:href="#DejaVuSans-37"/>
       <use xlink:href="#DejaVuSans-2e" x="63.623047"/>
       <use xlink:href="#DejaVuSans-35" x="95.410156"/>
      </g>
     </g>
    </g>
    <g id="xtick_37">
     <g id="line2d_100">
      <g>
       <use xlink:href="#m376018f1e3" x="244.703541" y="307.584" style="stroke: #000000; stroke-width: 0.8"/>
      </g>
     </g>
     <g id="text_22">
      <!-- 10.0 -->
      <g transform="translate(233.570728 322.182437)scale(0.1 -0.1)">
       <use xlink:href="#DejaVuSans-31"/>
       <use xlink:href="#DejaVuSans-30" x="63.623047"/>
       <use xlink:href="#DejaVuSans-2e" x="127.246094"/>
       <use xlink:href="#DejaVuSans-30" x="159.033203"/>
      </g>
     </g>
    </g>
    <g id="xtick_38">
     <g id="line2d_101">
      <g>
       <use xlink:href="#m376018f1e3" x="287.421244" y="307.584" style="stroke: #000000; stroke-width: 0.8"/>
      </g>
     </g>
     <g id="text_23">
      <!-- 12.5 -->
      <g transform="translate(276.288432 322.182437)scale(0.1 -0.1)">
       <use xlink:href="#DejaVuSans-31"/>
       <use xlink:href="#DejaVuSans-32" x="63.623047"/>
       <use xlink:href="#DejaVuSans-2e" x="127.246094"/>
       <use xlink:href="#DejaVuSans-35" x="159.033203"/>
      </g>
     </g>
    </g>
    <g id="xtick_39">
     <g id="line2d_102">
      <g>
       <use xlink:href="#m376018f1e3" x="330.138947" y="307.584" style="stroke: #000000; stroke-width: 0.8"/>
      </g>
     </g>
     <g id="text_24">
      <!-- 15.0 -->
      <g transform="translate(319.006135 322.182437)scale(0.1 -0.1)">
       <use xlink:href="#DejaVuSans-31"/>
       <use xlink:href="#DejaVuSans-35" x="63.623047"/>
       <use xlink:href="#DejaVuSans-2e" x="127.246094"/>
       <use xlink:href="#DejaVuSans-30" x="159.033203"/>
      </g>
     </g>
    </g>
    <g id="xtick_40">
     <g id="line2d_103">
      <g>
       <use xlink:href="#m376018f1e3" x="372.856651" y="307.584" style="stroke: #000000; stroke-width: 0.8"/>
      </g>
     </g>
     <g id="text_25">
      <!-- 17.5 -->
      <g transform="translate(361.723838 322.182437)scale(0.1 -0.1)">
       <use xlink:href="#DejaVuSans-31"/>
       <use xlink:href="#DejaVuSans-37" x="63.623047"/>
       <use xlink:href="#DejaVuSans-2e" x="127.246094"/>
       <use xlink:href="#DejaVuSans-35" x="159.033203"/>
      </g>
     </g>
    </g>
    <g id="text_26">
     <!-- position z -->
     <g transform="translate(212.142031 335.860562)scale(0.1 -0.1)">
      <defs>
       <path id="DejaVuSans-70" d="M 1159 525 
L 1159 -1331 
L 581 -1331 
L 581 3500 
L 1159 3500 
L 1159 2969 
Q 1341 3281 1617 3432 
Q 1894 3584 2278 3584 
Q 2916 3584 3314 3078 
Q 3713 2572 3713 1747 
Q 3713 922 3314 415 
Q 2916 -91 2278 -91 
Q 1894 -91 1617 61 
Q 1341 213 1159 525 
z
M 3116 1747 
Q 3116 2381 2855 2742 
Q 2594 3103 2138 3103 
Q 1681 3103 1420 2742 
Q 1159 2381 1159 1747 
Q 1159 1113 1420 752 
Q 1681 391 2138 391 
Q 2594 391 2855 752 
Q 3116 1113 3116 1747 
z
" transform="scale(0.015625)"/>
      </defs>
      <use xlink:href="#DejaVuSans-70"/>
      <use xlink:href="#DejaVuSans-6f" x="63.476562"/>
      <use xlink:href="#DejaVuSans-73" x="124.658203"/>
      <use xlink:href="#DejaVuSans-69" x="176.757812"/>
      <use xlink:href="#DejaVuSans-74" x="204.541016"/>
      <use xlink:href="#DejaVuSans-69" x="243.75"/>
      <use xlink:href="#DejaVuSans-6f" x="271.533203"/>
      <use xlink:href="#DejaVuSans-6e" x="332.714844"/>
      <use xlink:href="#DejaVuSans-20" x="396.09375"/>
      <use xlink:href="#DejaVuSans-7a" x="427.880859"/>
     </g>
    </g>
   </g>
   <g id="matplotlib.axis_12">
    <g id="ytick_12">
     <g id="line2d_104">
      <g>
       <use xlink:href="#m773bfe38ee" x="57.6" y="296.509888" style="stroke: #000000; stroke-width: 0.8"/>
      </g>
     </g>
     <g id="text_27">
      <!-- 0.04 -->
      <g transform="translate(28.334375 300.309107)scale(0.1 -0.1)">
       <defs>
        <path id="DejaVuSans-34" d="M 2419 4116 
L 825 1625 
L 2419 1625 
L 2419 4116 
z
M 2253 4666 
L 3047 4666 
L 3047 1625 
L 3713 1625 
L 3713 1100 
L 3047 1100 
L 3047 0 
L 2419 0 
L 2419 1100 
L 313 1100 
L 313 1709 
L 2253 4666 
z
" transform="scale(0.015625)"/>
       </defs>
       <use xlink:href="#DejaVuSans-30"/>
       <use xlink:href="#DejaVuSans-2e" x="63.623047"/>
       <use xlink:href="#DejaVuSans-30" x="95.410156"/>
       <use xlink:href="#DejaVuSans-34" x="159.033203"/>
      </g>
     </g>
    </g>
    <g id="ytick_13">
     <g id="line2d_105">
      <g>
       <use xlink:href="#m773bfe38ee" x="57.6" y="271.243708" style="stroke: #000000; stroke-width: 0.8"/>
      </g>
     </g>
     <g id="text_28">
      <!-- 0.06 -->
      <g transform="translate(28.334375 275.042927)scale(0.1 -0.1)">
       <defs>
        <path id="DejaVuSans-36" d="M 2113 2584 
Q 1688 2584 1439 2293 
Q 1191 2003 1191 1497 
Q 1191 994 1439 701 
Q 1688 409 2113 409 
Q 2538 409 2786 701 
Q 3034 994 3034 1497 
Q 3034 2003 2786 2293 
Q 2538 2584 2113 2584 
z
M 3366 4563 
L 3366 3988 
Q 3128 4100 2886 4159 
Q 2644 4219 2406 4219 
Q 1781 4219 1451 3797 
Q 1122 3375 1075 2522 
Q 1259 2794 1537 2939 
Q 1816 3084 2150 3084 
Q 2853 3084 3261 2657 
Q 3669 2231 3669 1497 
Q 3669 778 3244 343 
Q 2819 -91 2113 -91 
Q 1303 -91 875 529 
Q 447 1150 447 2328 
Q 447 3434 972 4092 
Q 1497 4750 2381 4750 
Q 2619 4750 2861 4703 
Q 3103 4656 3366 4563 
z
" transform="scale(0.015625)"/>
       </defs>
       <use xlink:href="#DejaVuSans-30"/>
       <use xlink:href="#DejaVuSans-2e" x="63.623047"/>
       <use xlink:href="#DejaVuSans-30" x="95.410156"/>
       <use xlink:href="#DejaVuSans-36" x="159.033203"/>
      </g>
     </g>
    </g>
   </g>
   <g id="line2d_106">
    <path d="M 73.832727 305.498483 
L 90.919809 305.285745 
L 108.00689 304.870955 
L 125.093971 304.388764 
L 142.181053 303.917498 
L 159.268134 303.491708 
L 176.355215 303.115634 
L 193.442297 302.781732 
L 210.529378 302.481737 
L 227.616459 302.209363 
L 244.703541 301.959889 
L 261.790622 301.729518 
L 278.877703 301.51501 
L 295.964785 301.313486 
L 313.051866 301.122273 
L 330.138947 300.938777 
L 347.226029 300.760369 
L 364.31311 300.584303 
L 381.400191 300.407846 
L 398.487273 300.23068 
" clip-path="url(#p3642542783)" style="fill: none; stroke: #1f77b4; stroke-width: 1.5; stroke-linecap: square"/>
   </g>
   <g id="line2d_107">
    <path d="M 73.832727 283.011968 
L 90.919809 282.456386 
L 108.00689 281.955003 
L 125.093971 281.470598 
L 142.181053 280.978052 
L 159.268134 280.467411 
L 176.355215 279.934389 
L 193.442297 279.374754 
L 210.529378 278.782893 
L 227.616459 278.151805 
L 244.703541 277.47295 
L 261.790622 276.735625 
L 278.877703 275.925838 
L 295.964785 275.024432 
L 313.051866 274.003799 
L 330.138947 272.82156 
L 347.226029 271.406893 
L 364.31311 269.626197 
L 381.400191 267.196588 
L 398.487273 263.788138 
" clip-path="url(#p3642542783)" style="fill: none; stroke: #ff7f0e; stroke-width: 1.5; stroke-linecap: square"/>
   </g>
   <g id="line2d_108">
    <path d="M 73.832727 283.485321 
L 90.919809 283.098524 
L 108.00689 282.773429 
L 125.093971 282.473232 
L 142.181053 282.162117 
L 159.268134 281.823592 
L 176.355215 281.452247 
L 193.442297 281.046019 
L 210.529378 280.603 
L 227.616459 280.120642 
L 244.703541 279.595525 
L 261.790622 279.023027 
L 278.877703 278.396773 
L 295.964785 277.707777 
L 313.051866 276.943036 
L 330.138947 276.082998 
L 347.226029 275.096494 
L 364.31311 273.929466 
L 381.400191 272.48434 
L 398.487273 270.680558 
" clip-path="url(#p3642542783)" style="fill: none; stroke: #2ca02c; stroke-width: 1.5; stroke-linecap: square"/>
   </g>
   <g id="line2d_109">
    <path d="M 73.832727 283.753179 
L 90.919809 283.51493 
L 108.00689 283.248325 
L 125.093971 283.024375 
L 142.181053 282.853492 
L 159.268134 282.716944 
L 176.355215 282.596335 
L 193.442297 282.48001 
L 210.529378 282.36052 
L 227.616459 282.232122 
L 244.703541 282.089707 
L 261.790622 281.928434 
L 278.877703 281.743561 
L 295.964785 281.530271 
L 313.051866 281.283462 
L 330.138947 280.997426 
L 347.226029 280.665333 
L 364.31311 280.278287 
L 381.400191 279.8237 
L 398.487273 279.29154 
" clip-path="url(#p3642542783)" style="fill: none; stroke: #d62728; stroke-width: 1.5; stroke-linecap: square"/>
   </g>
   <g id="line2d_110">
    <path d="M 73.832727 284.679214 
L 90.919809 284.505061 
L 108.00689 284.257736 
L 125.093971 284.007848 
L 142.181053 283.802575 
L 159.268134 283.646632 
L 176.355215 283.525729 
L 193.442297 283.425941 
L 210.529378 283.338276 
L 227.616459 283.257184 
L 244.703541 283.178773 
L 261.790622 283.099863 
L 278.877703 283.017551 
L 295.964785 282.928999 
L 313.051866 282.831271 
L 330.138947 282.721201 
L 347.226029 282.59522 
L 364.31311 282.449121 
L 381.400191 282.277722 
L 398.487273 282.077994 
" clip-path="url(#p3642542783)" style="fill: none; stroke: #9467bd; stroke-width: 1.5; stroke-linecap: square"/>
   </g>
   <g id="line2d_111">
    <path d="M 73.832727 288.855979 
L 90.919809 288.634772 
L 108.00689 288.319628 
L 125.093971 287.99805 
L 142.181053 287.731761 
L 159.268134 287.529985 
L 176.355215 287.376143 
L 193.442297 287.252795 
L 210.529378 287.148577 
L 227.616459 287.056808 
L 244.703541 286.973272 
L 261.790622 286.894943 
L 278.877703 286.819396 
L 295.964785 286.744513 
L 313.051866 286.668314 
L 330.138947 286.588819 
L 347.226029 286.503942 
L 364.31311 286.411373 
L 381.400191 286.308482 
L 398.487273 286.193556 
" clip-path="url(#p3642542783)" style="fill: none; stroke: #8c564b; stroke-width: 1.5; stroke-linecap: square"/>
   </g>
   <g id="line2d_112">
    <path d="M 73.832727 289.299701 
L 90.919809 289.072629 
L 108.00689 288.748643 
L 125.093971 288.417163 
L 142.181053 288.141573 
L 159.268134 287.931676 
L 176.355215 287.770637 
L 193.442297 287.64058 
L 210.529378 287.529808 
L 227.616459 287.431451 
L 244.703541 287.341191 
L 261.790622 287.255955 
L 278.877703 287.173299 
L 295.964785 287.09111 
L 313.051866 287.007423 
L 330.138947 286.920292 
L 347.226029 286.827672 
L 364.31311 286.727314 
L 381.400191 286.616691 
L 398.487273 286.495099 
" clip-path="url(#p3642542783)" style="fill: none; stroke: #e377c2; stroke-width: 1.5; stroke-linecap: square"/>
   </g>
   <g id="line2d_113">
    <path d="M 73.832727 289.313175 
L 90.919809 289.086108 
L 108.00689 288.761945 
L 125.093971 288.430167 
L 142.181053 288.154211 
L 159.268134 287.943951 
L 176.355215 287.782572 
L 193.442297 287.652181 
L 210.529378 287.541067 
L 227.616459 287.442349 
L 244.703541 287.351709 
L 261.790622 287.266068 
L 278.877703 287.182983 
L 295.964785 287.100342 
L 313.051866 287.016183 
L 330.138947 286.928558 
L 347.226029 286.835427 
L 364.31311 286.734541 
L 381.400191 286.62342 
L 398.487273 286.502621 
" clip-path="url(#p3642542783)" style="fill: none; stroke: #7f7f7f; stroke-width: 1.5; stroke-linecap: square"/>
   </g>
   <g id="line2d_114">
    <path d="M 73.832727 296.984481 
L 90.919809 295.981285 
L 108.00689 295.083227 
L 125.093971 294.307076 
L 142.181053 293.671291 
L 159.268134 293.163338 
L 176.355215 292.752654 
L 193.442297 292.411056 
L 210.529378 292.119229 
L 227.616459 291.864845 
L 244.703541 291.639678 
L 261.790622 291.437825 
L 278.877703 291.25479 
L 295.964785 291.086981 
L 313.051866 290.931404 
L 330.138947 290.785438 
L 347.226029 290.646681 
L 364.31311 290.512857 
L 381.400191 290.381913 
L 398.487273 290.25396 
" clip-path="url(#p3642542783)" style="fill: none; stroke: #bcbd22; stroke-width: 1.5; stroke-linecap: square"/>
   </g>
   <g id="line2d_115">
    <path d="M 73.832727 302.404414 
L 90.919809 301.173799 
L 108.00689 300.090604 
L 125.093971 299.161447 
L 142.181053 298.393294 
L 159.268134 297.770441 
L 176.355215 297.261227 
L 193.442297 296.835367 
L 210.529378 296.471083 
L 227.616459 296.15392 
L 244.703541 295.874013 
L 261.790622 295.624226 
L 278.877703 295.399145 
L 295.964785 295.1945 
L 313.051866 295.006791 
L 330.138947 294.833021 
L 347.226029 294.67051 
L 364.31311 294.516764 
L 381.400191 294.369525 
L 398.487273 294.22843 
" clip-path="url(#p3642542783)" style="fill: none; stroke: #17becf; stroke-width: 1.5; stroke-linecap: square"/>
   </g>
   <g id="line2d_116">
    <path d="M 73.832727 303.810819 
L 90.919809 303.105595 
L 108.00689 302.310237 
L 125.093971 301.545683 
L 142.181053 300.870907 
L 159.268134 300.299933 
L 176.355215 299.81915 
L 193.442297 299.408402 
L 210.529378 299.051343 
L 227.616459 298.736504 
L 244.703541 298.455741 
L 261.790622 298.202959 
L 278.877703 297.973384 
L 295.964785 297.763145 
L 313.051866 297.568982 
L 330.138947 297.388028 
L 347.226029 297.217643 
L 364.31311 297.055291 
L 381.400191 296.898587 
L 398.487273 296.747081 
" clip-path="url(#p3642542783)" style="fill: none; stroke: #1f77b4; stroke-width: 1.5; stroke-linecap: square"/>
   </g>
   <g id="line2d_117">
    <path d="M 73.832727 304.671198 
L 90.919809 304.246105 
L 108.00689 303.650598 
L 125.093971 303.025008 
L 142.181053 302.444639 
L 159.268134 301.937275 
L 176.355215 301.499945 
L 193.442297 301.119536 
L 210.529378 300.783993 
L 227.616459 300.484475 
L 244.703541 300.214498 
L 261.790622 299.969048 
L 278.877703 299.744069 
L 295.964785 299.536162 
L 313.051866 299.342376 
L 330.138947 299.16003 
L 347.226029 298.986566 
L 364.31311 298.819446 
L 381.400191 298.656209 
L 398.487273 298.496431 
" clip-path="url(#p3642542783)" style="fill: none; stroke: #ff7f0e; stroke-width: 1.5; stroke-linecap: square"/>
   </g>
   <g id="line2d_118">
    <path d="M 73.832727 305.280926 
L 90.919809 305.017024 
L 108.00689 304.555799 
L 125.093971 304.035098 
L 142.181053 303.533456 
L 159.268134 303.084203 
L 176.355215 302.690042 
L 193.442297 302.342192 
L 210.529378 302.031508 
L 227.616459 301.751069 
L 244.703541 301.495689 
L 261.790622 301.261247 
L 278.877703 301.04431 
L 295.964785 300.841912 
L 313.051866 300.651394 
L 330.138947 300.470262 
L 347.226029 300.296055 
L 364.31311 300.126257 
L 381.400191 299.958373 
L 398.487273 299.792049 
" clip-path="url(#p3642542783)" style="fill: none; stroke: #2ca02c; stroke-width: 1.5; stroke-linecap: square"/>
   </g>
   <g id="patch_25">
    <path d="M 57.6 307.584 
L 57.6 261.702621 
" style="fill: none; stroke: #000000; stroke-width: 0.8; stroke-linejoin: miter; stroke-linecap: square"/>
   </g>
   <g id="patch_26">
    <path d="M 414.72 307.584 
L 414.72 261.702621 
" style="fill: none; stroke: #000000; stroke-width: 0.8; stroke-linejoin: miter; stroke-linecap: square"/>
   </g>
   <g id="patch_27">
    <path d="M 57.6 307.584 
L 414.72 307.584 
" style="fill: none; stroke: #000000; stroke-width: 0.8; stroke-linejoin: miter; stroke-linecap: square"/>
   </g>
   <g id="patch_28">
    <path d="M 57.6 261.702621 
L 414.72 261.702621 
" style="fill: none; stroke: #000000; stroke-width: 0.8; stroke-linejoin: miter; stroke-linecap: square"/>
   </g>
   <g id="text_29">
    <!-- yC - Container 1 -->
    <g transform="translate(187.395938 258.702621)scale(0.12 -0.12)">
     <use xlink:href="#DejaVuSans-79"/>
     <use xlink:href="#DejaVuSans-43" x="59.179688"/>
     <use xlink:href="#DejaVuSans-20" x="129.003906"/>
     <use xlink:href="#DejaVuSans-2d" x="160.791016"/>
     <use xlink:href="#DejaVuSans-20" x="196.875"/>
     <use xlink:href="#DejaVuSans-43" x="228.662109"/>
     <use xlink:href="#DejaVuSans-6f" x="298.486328"/>
     <use xlink:href="#DejaVuSans-6e" x="359.667969"/>
     <use xlink:href="#DejaVuSans-74" x="423.046875"/>
     <use xlink:href="#DejaVuSans-61" x="462.255859"/>
     <use xlink:href="#DejaVuSans-69" x="523.535156"/>
     <use xlink:href="#DejaVuSans-6e" x="551.318359"/>
     <use xlink:href="#DejaVuSans-65" x="614.697266"/>
     <use xlink:href="#DejaVuSans-72" x="676.220703"/>
     <use xlink:href="#DejaVuSans-20" x="717.333984"/>
     <use xlink:href="#DejaVuSans-31" x="749.121094"/>
    </g>
   </g>
  </g>
  <g id="legend_1">
   <g id="patch_29">
    <path d="M 372.146875 269.707812 
L 457.8 269.707812 
Q 459.8 269.707812 459.8 267.707812 
L 459.8 77.892187 
Q 459.8 75.892187 457.8 75.892187 
L 372.146875 75.892187 
Q 370.146875 75.892187 370.146875 77.892187 
L 370.146875 267.707812 
Q 370.146875 269.707812 372.146875 269.707812 
z
" style="fill: #ffffff; opacity: 0.8; stroke: #cccccc; stroke-linejoin: miter"/>
   </g>
   <g id="line2d_119">
    <path d="M 374.146875 83.990625 
L 384.146875 83.990625 
L 394.146875 83.990625 
" style="fill: none; stroke: #1f77b4; stroke-width: 1.5; stroke-linecap: square"/>
   </g>
   <g id="text_30">
    <!-- t=0.0000 -->
    <g transform="translate(402.146875 87.490625)scale(0.1 -0.1)">
     <defs>
      <path id="DejaVuSans-3d" d="M 678 2906 
L 4684 2906 
L 4684 2381 
L 678 2381 
L 678 2906 
z
M 678 1631 
L 4684 1631 
L 4684 1100 
L 678 1100 
L 678 1631 
z
" transform="scale(0.015625)"/>
     </defs>
     <use xlink:href="#DejaVuSans-74"/>
     <use xlink:href="#DejaVuSans-3d" x="39.208984"/>
     <use xlink:href="#DejaVuSans-30" x="122.998047"/>
     <use xlink:href="#DejaVuSans-2e" x="186.621094"/>
     <use xlink:href="#DejaVuSans-30" x="218.408203"/>
     <use xlink:href="#DejaVuSans-30" x="282.03125"/>
     <use xlink:href="#DejaVuSans-30" x="345.654297"/>
     <use xlink:href="#DejaVuSans-30" x="409.277344"/>
    </g>
   </g>
   <g id="line2d_120">
    <path d="M 374.146875 98.66875 
L 384.146875 98.66875 
L 394.146875 98.66875 
" style="fill: none; stroke: #ff7f0e; stroke-width: 1.5; stroke-linecap: square"/>
   </g>
   <g id="text_31">
    <!-- t=8.0000 -->
    <g transform="translate(402.146875 102.16875)scale(0.1 -0.1)">
     <use xlink:href="#DejaVuSans-74"/>
     <use xlink:href="#DejaVuSans-3d" x="39.208984"/>
     <use xlink:href="#DejaVuSans-38" x="122.998047"/>
     <use xlink:href="#DejaVuSans-2e" x="186.621094"/>
     <use xlink:href="#DejaVuSans-30" x="218.408203"/>
     <use xlink:href="#DejaVuSans-30" x="282.03125"/>
     <use xlink:href="#DejaVuSans-30" x="345.654297"/>
     <use xlink:href="#DejaVuSans-30" x="409.277344"/>
    </g>
   </g>
   <g id="line2d_121">
    <path d="M 374.146875 113.346875 
L 384.146875 113.346875 
L 394.146875 113.346875 
" style="fill: none; stroke: #2ca02c; stroke-width: 1.5; stroke-linecap: square"/>
   </g>
   <g id="text_32">
    <!-- t=16.0000 -->
    <g transform="translate(402.146875 116.846875)scale(0.1 -0.1)">
     <use xlink:href="#DejaVuSans-74"/>
     <use xlink:href="#DejaVuSans-3d" x="39.208984"/>
     <use xlink:href="#DejaVuSans-31" x="122.998047"/>
     <use xlink:href="#DejaVuSans-36" x="186.621094"/>
     <use xlink:href="#DejaVuSans-2e" x="250.244141"/>
     <use xlink:href="#DejaVuSans-30" x="282.03125"/>
     <use xlink:href="#DejaVuSans-30" x="345.654297"/>
     <use xlink:href="#DejaVuSans-30" x="409.277344"/>
     <use xlink:href="#DejaVuSans-30" x="472.900391"/>
    </g>
   </g>
   <g id="line2d_122">
    <path d="M 374.146875 128.025 
L 384.146875 128.025 
L 394.146875 128.025 
" style="fill: none; stroke: #d62728; stroke-width: 1.5; stroke-linecap: square"/>
   </g>
   <g id="text_33">
    <!-- t=24.0000 -->
    <g transform="translate(402.146875 131.525)scale(0.1 -0.1)">
     <use xlink:href="#DejaVuSans-74"/>
     <use xlink:href="#DejaVuSans-3d" x="39.208984"/>
     <use xlink:href="#DejaVuSans-32" x="122.998047"/>
     <use xlink:href="#DejaVuSans-34" x="186.621094"/>
     <use xlink:href="#DejaVuSans-2e" x="250.244141"/>
     <use xlink:href="#DejaVuSans-30" x="282.03125"/>
     <use xlink:href="#DejaVuSans-30" x="345.654297"/>
     <use xlink:href="#DejaVuSans-30" x="409.277344"/>
     <use xlink:href="#DejaVuSans-30" x="472.900391"/>
    </g>
   </g>
   <g id="line2d_123">
    <path d="M 374.146875 142.703125 
L 384.146875 142.703125 
L 394.146875 142.703125 
" style="fill: none; stroke: #9467bd; stroke-width: 1.5; stroke-linecap: square"/>
   </g>
   <g id="text_34">
    <!-- t=32.0000 -->
    <g transform="translate(402.146875 146.203125)scale(0.1 -0.1)">
     <defs>
      <path id="DejaVuSans-33" d="M 2597 2516 
Q 3050 2419 3304 2112 
Q 3559 1806 3559 1356 
Q 3559 666 3084 287 
Q 2609 -91 1734 -91 
Q 1441 -91 1130 -33 
Q 819 25 488 141 
L 488 750 
Q 750 597 1062 519 
Q 1375 441 1716 441 
Q 2309 441 2620 675 
Q 2931 909 2931 1356 
Q 2931 1769 2642 2001 
Q 2353 2234 1838 2234 
L 1294 2234 
L 1294 2753 
L 1863 2753 
Q 2328 2753 2575 2939 
Q 2822 3125 2822 3475 
Q 2822 3834 2567 4026 
Q 2313 4219 1838 4219 
Q 1578 4219 1281 4162 
Q 984 4106 628 3988 
L 628 4550 
Q 988 4650 1302 4700 
Q 1616 4750 1894 4750 
Q 2613 4750 3031 4423 
Q 3450 4097 3450 3541 
Q 3450 3153 3228 2886 
Q 3006 2619 2597 2516 
z
" transform="scale(0.015625)"/>
     </defs>
     <use xlink:href="#DejaVuSans-74"/>
     <use xlink:href="#DejaVuSans-3d" x="39.208984"/>
     <use xlink:href="#DejaVuSans-33" x="122.998047"/>
     <use xlink:href="#DejaVuSans-32" x="186.621094"/>
     <use xlink:href="#DejaVuSans-2e" x="250.244141"/>
     <use xlink:href="#DejaVuSans-30" x="282.03125"/>
     <use xlink:href="#DejaVuSans-30" x="345.654297"/>
     <use xlink:href="#DejaVuSans-30" x="409.277344"/>
     <use xlink:href="#DejaVuSans-30" x="472.900391"/>
    </g>
   </g>
   <g id="line2d_124">
    <path d="M 374.146875 157.38125 
L 384.146875 157.38125 
L 394.146875 157.38125 
" style="fill: none; stroke: #8c564b; stroke-width: 1.5; stroke-linecap: square"/>
   </g>
   <g id="text_35">
    <!-- t=40.0000 -->
    <g transform="translate(402.146875 160.88125)scale(0.1 -0.1)">
     <use xlink:href="#DejaVuSans-74"/>
     <use xlink:href="#DejaVuSans-3d" x="39.208984"/>
     <use xlink:href="#DejaVuSans-34" x="122.998047"/>
     <use xlink:href="#DejaVuSans-30" x="186.621094"/>
     <use xlink:href="#DejaVuSans-2e" x="250.244141"/>
     <use xlink:href="#DejaVuSans-30" x="282.03125"/>
     <use xlink:href="#DejaVuSans-30" x="345.654297"/>
     <use xlink:href="#DejaVuSans-30" x="409.277344"/>
     <use xlink:href="#DejaVuSans-30" x="472.900391"/>
    </g>
   </g>
   <g id="line2d_125">
    <path d="M 374.146875 172.059375 
L 384.146875 172.059375 
L 394.146875 172.059375 
" style="fill: none; stroke: #e377c2; stroke-width: 1.5; stroke-linecap: square"/>
   </g>
   <g id="text_36">
    <!-- t=48.0000 -->
    <g transform="translate(402.146875 175.559375)scale(0.1 -0.1)">
     <use xlink:href="#DejaVuSans-74"/>
     <use xlink:href="#DejaVuSans-3d" x="39.208984"/>
     <use xlink:href="#DejaVuSans-34" x="122.998047"/>
     <use xlink:href="#DejaVuSans-38" x="186.621094"/>
     <use xlink:href="#DejaVuSans-2e" x="250.244141"/>
     <use xlink:href="#DejaVuSans-30" x="282.03125"/>
     <use xlink:href="#DejaVuSans-30" x="345.654297"/>
     <use xlink:href="#DejaVuSans-30" x="409.277344"/>
     <use xlink:href="#DejaVuSans-30" x="472.900391"/>
    </g>
   </g>
   <g id="line2d_126">
    <path d="M 374.146875 186.7375 
L 384.146875 186.7375 
L 394.146875 186.7375 
" style="fill: none; stroke: #7f7f7f; stroke-width: 1.5; stroke-linecap: square"/>
   </g>
   <g id="text_37">
    <!-- t=56.0000 -->
    <g transform="translate(402.146875 190.2375)scale(0.1 -0.1)">
     <use xlink:href="#DejaVuSans-74"/>
     <use xlink:href="#DejaVuSans-3d" x="39.208984"/>
     <use xlink:href="#DejaVuSans-35" x="122.998047"/>
     <use xlink:href="#DejaVuSans-36" x="186.621094"/>
     <use xlink:href="#DejaVuSans-2e" x="250.244141"/>
     <use xlink:href="#DejaVuSans-30" x="282.03125"/>
     <use xlink:href="#DejaVuSans-30" x="345.654297"/>
     <use xlink:href="#DejaVuSans-30" x="409.277344"/>
     <use xlink:href="#DejaVuSans-30" x="472.900391"/>
    </g>
   </g>
   <g id="line2d_127">
    <path d="M 374.146875 201.415625 
L 384.146875 201.415625 
L 394.146875 201.415625 
" style="fill: none; stroke: #bcbd22; stroke-width: 1.5; stroke-linecap: square"/>
   </g>
   <g id="text_38">
    <!-- t=64.0000 -->
    <g transform="translate(402.146875 204.915625)scale(0.1 -0.1)">
     <use xlink:href="#DejaVuSans-74"/>
     <use xlink:href="#DejaVuSans-3d" x="39.208984"/>
     <use xlink:href="#DejaVuSans-36" x="122.998047"/>
     <use xlink:href="#DejaVuSans-34" x="186.621094"/>
     <use xlink:href="#DejaVuSans-2e" x="250.244141"/>
     <use xlink:href="#DejaVuSans-30" x="282.03125"/>
     <use xlink:href="#DejaVuSans-30" x="345.654297"/>
     <use xlink:href="#DejaVuSans-30" x="409.277344"/>
     <use xlink:href="#DejaVuSans-30" x="472.900391"/>
    </g>
   </g>
   <g id="line2d_128">
    <path d="M 374.146875 216.09375 
L 384.146875 216.09375 
L 394.146875 216.09375 
" style="fill: none; stroke: #17becf; stroke-width: 1.5; stroke-linecap: square"/>
   </g>
   <g id="text_39">
    <!-- t=72.0000 -->
    <g transform="translate(402.146875 219.59375)scale(0.1 -0.1)">
     <use xlink:href="#DejaVuSans-74"/>
     <use xlink:href="#DejaVuSans-3d" x="39.208984"/>
     <use xlink:href="#DejaVuSans-37" x="122.998047"/>
     <use xlink:href="#DejaVuSans-32" x="186.621094"/>
     <use xlink:href="#DejaVuSans-2e" x="250.244141"/>
     <use xlink:href="#DejaVuSans-30" x="282.03125"/>
     <use xlink:href="#DejaVuSans-30" x="345.654297"/>
     <use xlink:href="#DejaVuSans-30" x="409.277344"/>
     <use xlink:href="#DejaVuSans-30" x="472.900391"/>
    </g>
   </g>
   <g id="line2d_129">
    <path d="M 374.146875 230.771875 
L 384.146875 230.771875 
L 394.146875 230.771875 
" style="fill: none; stroke: #1f77b4; stroke-width: 1.5; stroke-linecap: square"/>
   </g>
   <g id="text_40">
    <!-- t=80.0000 -->
    <g transform="translate(402.146875 234.271875)scale(0.1 -0.1)">
     <use xlink:href="#DejaVuSans-74"/>
     <use xlink:href="#DejaVuSans-3d" x="39.208984"/>
     <use xlink:href="#DejaVuSans-38" x="122.998047"/>
     <use xlink:href="#DejaVuSans-30" x="186.621094"/>
     <use xlink:href="#DejaVuSans-2e" x="250.244141"/>
     <use xlink:href="#DejaVuSans-30" x="282.03125"/>
     <use xlink:href="#DejaVuSans-30" x="345.654297"/>
     <use xlink:href="#DejaVuSans-30" x="409.277344"/>
     <use xlink:href="#DejaVuSans-30" x="472.900391"/>
    </g>
   </g>
   <g id="line2d_130">
    <path d="M 374.146875 245.45 
L 384.146875 245.45 
L 394.146875 245.45 
" style="fill: none; stroke: #ff7f0e; stroke-width: 1.5; stroke-linecap: square"/>
   </g>
   <g id="text_41">
    <!-- t=88.0000 -->
    <g transform="translate(402.146875 248.95)scale(0.1 -0.1)">
     <use xlink:href="#DejaVuSans-74"/>
     <use xlink:href="#DejaVuSans-3d" x="39.208984"/>
     <use xlink:href="#DejaVuSans-38" x="122.998047"/>
     <use xlink:href="#DejaVuSans-38" x="186.621094"/>
     <use xlink:href="#DejaVuSans-2e" x="250.244141"/>
     <use xlink:href="#DejaVuSans-30" x="282.03125"/>
     <use xlink:href="#DejaVuSans-30" x="345.654297"/>
     <use xlink:href="#DejaVuSans-30" x="409.277344"/>
     <use xlink:href="#DejaVuSans-30" x="472.900391"/>
    </g>
   </g>
   <g id="line2d_131">
    <path d="M 374.146875 260.128125 
L 384.146875 260.128125 
L 394.146875 260.128125 
" style="fill: none; stroke: #2ca02c; stroke-width: 1.5; stroke-linecap: square"/>
   </g>
   <g id="text_42">
    <!-- t=96.0000 -->
    <g transform="translate(402.146875 263.628125)scale(0.1 -0.1)">
     <use xlink:href="#DejaVuSans-74"/>
     <use xlink:href="#DejaVuSans-3d" x="39.208984"/>
     <use xlink:href="#DejaVuSans-39" x="122.998047"/>
     <use xlink:href="#DejaVuSans-36" x="186.621094"/>
     <use xlink:href="#DejaVuSans-2e" x="250.244141"/>
     <use xlink:href="#DejaVuSans-30" x="282.03125"/>
     <use xlink:href="#DejaVuSans-30" x="345.654297"/>
     <use xlink:href="#DejaVuSans-30" x="409.277344"/>
     <use xlink:href="#DejaVuSans-30" x="472.900391"/>
    </g>
   </g>
  </g>
 </g>
 <defs>
  <clipPath id="pc7547ccf84">
   <rect x="57.6" y="41.472" width="357.12" height="45.881379"/>
  </clipPath>
  <clipPath id="p11bdd1e0c3">
   <rect x="57.6" y="96.529655" width="357.12" height="45.881379"/>
  </clipPath>
  <clipPath id="p0c041f22fd">
   <rect x="57.6" y="151.58731" width="357.12" height="45.881379"/>
  </clipPath>
  <clipPath id="p58b388b9b8">
   <rect x="57.6" y="206.644966" width="357.12" height="45.881379"/>
  </clipPath>
  <clipPath id="p3642542783">
   <rect x="57.6" y="261.702621" width="357.12" height="45.881379"/>
  </clipPath>
 </defs>
</svg>
