<?xml version="1.0" encoding="utf-8" standalone="no"?>
<!DOCTYPE svg PUBLIC "-//W3C//DTD SVG 1.1//EN"
  "http://www.w3.org/Graphics/SVG/1.1/DTD/svg11.dtd">
<svg xmlns:xlink="http://www.w3.org/1999/xlink" width="460.8pt" height="345.6pt" viewBox="0 0 460.8 345.6" xmlns="http://www.w3.org/2000/svg" version="1.1">
 <metadata>
  <rdf:RDF xmlns:dc="http://purl.org/dc/elements/1.1/" xmlns:cc="http://creativecommons.org/ns#" xmlns:rdf="http://www.w3.org/1999/02/22-rdf-syntax-ns#">
   <cc:Work>
    <dc:type rdf:resource="http://purl.org/dc/dcmitype/StillImage"/>
    <dc:date>2022-07-10T00:04:54.487188</dc:date>
    <dc:format>image/svg+xml</dc:format>
    <dc:creator>
     <cc:Agent>
      <dc:title>Matplotlib v3.5.2, https://matplotlib.org/</dc:title>
     </cc:Agent>
    </dc:creator>
   </cc:Work>
  </rdf:RDF>
 </metadata>
 <defs>
  <style type="text/css">*{stroke-linejoin: round; stroke-linecap: butt}</style>
 </defs>
 <g id="figure_1">
  <g id="patch_1">
   <path d="M 0 345.6 
L 460.8 345.6 
L 460.8 0 
L 0 0 
z
" style="fill: #ffffff"/>
  </g>
  <g id="axes_1">
   <g id="patch_2">
    <path d="M 57.6 87.353379 
L 414.72 87.353379 
L 414.72 41.472 
L 57.6 41.472 
z
" style="fill: #ffffff"/>
   </g>
   <g id="matplotlib.axis_1">
    <g id="xtick_1">
     <g id="line2d_1">
      <defs>
       <path id="m8c834234b6" d="M 0 0 
L 0 3.5 
" style="stroke: #000000; stroke-width: 0.8"/>
      </defs>
      <g>
       <use xlink:href="#m8c834234b6" x="73.832727" y="87.353379" style="stroke: #000000; stroke-width: 0.8"/>
      </g>
     </g>
    </g>
    <g id="xtick_2">
     <g id="line2d_2">
      <g>
       <use xlink:href="#m8c834234b6" x="138.763636" y="87.353379" style="stroke: #000000; stroke-width: 0.8"/>
      </g>
     </g>
    </g>
    <g id="xtick_3">
     <g id="line2d_3">
      <g>
       <use xlink:href="#m8c834234b6" x="203.694545" y="87.353379" style="stroke: #000000; stroke-width: 0.8"/>
      </g>
     </g>
    </g>
    <g id="xtick_4">
     <g id="line2d_4">
      <g>
       <use xlink:href="#m8c834234b6" x="268.625455" y="87.353379" style="stroke: #000000; stroke-width: 0.8"/>
      </g>
     </g>
    </g>
    <g id="xtick_5">
     <g id="line2d_5">
      <g>
       <use xlink:href="#m8c834234b6" x="333.556364" y="87.353379" style="stroke: #000000; stroke-width: 0.8"/>
      </g>
     </g>
    </g>
    <g id="xtick_6">
     <g id="line2d_6">
      <g>
       <use xlink:href="#m8c834234b6" x="398.487273" y="87.353379" style="stroke: #000000; stroke-width: 0.8"/>
      </g>
     </g>
    </g>
   </g>
   <g id="matplotlib.axis_2">
    <g id="ytick_1">
     <g id="line2d_7">
      <defs>
       <path id="mca98da5e29" d="M 0 0 
L -3.5 0 
" style="stroke: #000000; stroke-width: 0.8"/>
      </defs>
      <g>
       <use xlink:href="#mca98da5e29" x="57.6" y="78.195363" style="stroke: #000000; stroke-width: 0.8"/>
      </g>
     </g>
     <g id="text_1">
      <!-- −10 -->
      <g transform="translate(29.495313 81.994582)scale(0.1 -0.1)">
       <defs>
        <path id="DejaVuSans-2212" d="M 678 2272 
L 4684 2272 
L 4684 1741 
L 678 1741 
L 678 2272 
z
" transform="scale(0.015625)"/>
        <path id="DejaVuSans-31" d="M 794 531 
L 1825 531 
L 1825 4091 
L 703 3866 
L 703 4441 
L 1819 4666 
L 2450 4666 
L 2450 531 
L 3481 531 
L 3481 0 
L 794 0 
L 794 531 
z
" transform="scale(0.015625)"/>
        <path id="DejaVuSans-30" d="M 2034 4250 
Q 1547 4250 1301 3770 
Q 1056 3291 1056 2328 
Q 1056 1369 1301 889 
Q 1547 409 2034 409 
Q 2525 409 2770 889 
Q 3016 1369 3016 2328 
Q 3016 3291 2770 3770 
Q 2525 4250 2034 4250 
z
M 2034 4750 
Q 2819 4750 3233 4129 
Q 3647 3509 3647 2328 
Q 3647 1150 3233 529 
Q 2819 -91 2034 -91 
Q 1250 -91 836 529 
Q 422 1150 422 2328 
Q 422 3509 836 4129 
Q 1250 4750 2034 4750 
z
" transform="scale(0.015625)"/>
       </defs>
       <use xlink:href="#DejaVuSans-2212"/>
       <use xlink:href="#DejaVuSans-31" x="83.789062"/>
       <use xlink:href="#DejaVuSans-30" x="147.412109"/>
      </g>
     </g>
    </g>
    <g id="ytick_2">
     <g id="line2d_8">
      <g>
       <use xlink:href="#mca98da5e29" x="57.6" y="57.358774" style="stroke: #000000; stroke-width: 0.8"/>
      </g>
     </g>
     <g id="text_2">
      <!-- 0 -->
      <g transform="translate(44.2375 61.157992)scale(0.1 -0.1)">
       <use xlink:href="#DejaVuSans-30"/>
      </g>
     </g>
    </g>
    <g id="text_3">
     <!-- flow rate (normalized) -->
     <g transform="translate(23.415625 119.729877)rotate(-90)scale(0.1 -0.1)">
      <defs>
       <path id="DejaVuSans-66" d="M 2375 4863 
L 2375 4384 
L 1825 4384 
Q 1516 4384 1395 4259 
Q 1275 4134 1275 3809 
L 1275 3500 
L 2222 3500 
L 2222 3053 
L 1275 3053 
L 1275 0 
L 697 0 
L 697 3053 
L 147 3053 
L 147 3500 
L 697 3500 
L 697 3744 
Q 697 4328 969 4595 
Q 1241 4863 1831 4863 
L 2375 4863 
z
" transform="scale(0.015625)"/>
       <path id="DejaVuSans-6c" d="M 603 4863 
L 1178 4863 
L 1178 0 
L 603 0 
L 603 4863 
z
" transform="scale(0.015625)"/>
       <path id="DejaVuSans-6f" d="M 1959 3097 
Q 1497 3097 1228 2736 
Q 959 2375 959 1747 
Q 959 1119 1226 758 
Q 1494 397 1959 397 
Q 2419 397 2687 759 
Q 2956 1122 2956 1747 
Q 2956 2369 2687 2733 
Q 2419 3097 1959 3097 
z
M 1959 3584 
Q 2709 3584 3137 3096 
Q 3566 2609 3566 1747 
Q 3566 888 3137 398 
Q 2709 -91 1959 -91 
Q 1206 -91 779 398 
Q 353 888 353 1747 
Q 353 2609 779 3096 
Q 1206 3584 1959 3584 
z
" transform="scale(0.015625)"/>
       <path id="DejaVuSans-77" d="M 269 3500 
L 844 3500 
L 1563 769 
L 2278 3500 
L 2956 3500 
L 3675 769 
L 4391 3500 
L 4966 3500 
L 4050 0 
L 3372 0 
L 2619 2869 
L 1863 0 
L 1184 0 
L 269 3500 
z
" transform="scale(0.015625)"/>
       <path id="DejaVuSans-20" transform="scale(0.015625)"/>
       <path id="DejaVuSans-72" d="M 2631 2963 
Q 2534 3019 2420 3045 
Q 2306 3072 2169 3072 
Q 1681 3072 1420 2755 
Q 1159 2438 1159 1844 
L 1159 0 
L 581 0 
L 581 3500 
L 1159 3500 
L 1159 2956 
Q 1341 3275 1631 3429 
Q 1922 3584 2338 3584 
Q 2397 3584 2469 3576 
Q 2541 3569 2628 3553 
L 2631 2963 
z
" transform="scale(0.015625)"/>
       <path id="DejaVuSans-61" d="M 2194 1759 
Q 1497 1759 1228 1600 
Q 959 1441 959 1056 
Q 959 750 1161 570 
Q 1363 391 1709 391 
Q 2188 391 2477 730 
Q 2766 1069 2766 1631 
L 2766 1759 
L 2194 1759 
z
M 3341 1997 
L 3341 0 
L 2766 0 
L 2766 531 
Q 2569 213 2275 61 
Q 1981 -91 1556 -91 
Q 1019 -91 701 211 
Q 384 513 384 1019 
Q 384 1609 779 1909 
Q 1175 2209 1959 2209 
L 2766 2209 
L 2766 2266 
Q 2766 2663 2505 2880 
Q 2244 3097 1772 3097 
Q 1472 3097 1187 3025 
Q 903 2953 641 2809 
L 641 3341 
Q 956 3463 1253 3523 
Q 1550 3584 1831 3584 
Q 2591 3584 2966 3190 
Q 3341 2797 3341 1997 
z
" transform="scale(0.015625)"/>
       <path id="DejaVuSans-74" d="M 1172 4494 
L 1172 3500 
L 2356 3500 
L 2356 3053 
L 1172 3053 
L 1172 1153 
Q 1172 725 1289 603 
Q 1406 481 1766 481 
L 2356 481 
L 2356 0 
L 1766 0 
Q 1100 0 847 248 
Q 594 497 594 1153 
L 594 3053 
L 172 3053 
L 172 3500 
L 594 3500 
L 594 4494 
L 1172 4494 
z
" transform="scale(0.015625)"/>
       <path id="DejaVuSans-65" d="M 3597 1894 
L 3597 1613 
L 953 1613 
Q 991 1019 1311 708 
Q 1631 397 2203 397 
Q 2534 397 2845 478 
Q 3156 559 3463 722 
L 3463 178 
Q 3153 47 2828 -22 
Q 2503 -91 2169 -91 
Q 1331 -91 842 396 
Q 353 884 353 1716 
Q 353 2575 817 3079 
Q 1281 3584 2069 3584 
Q 2775 3584 3186 3129 
Q 3597 2675 3597 1894 
z
M 3022 2063 
Q 3016 2534 2758 2815 
Q 2500 3097 2075 3097 
Q 1594 3097 1305 2825 
Q 1016 2553 972 2059 
L 3022 2063 
z
" transform="scale(0.015625)"/>
       <path id="DejaVuSans-28" d="M 1984 4856 
Q 1566 4138 1362 3434 
Q 1159 2731 1159 2009 
Q 1159 1288 1364 580 
Q 1569 -128 1984 -844 
L 1484 -844 
Q 1016 -109 783 600 
Q 550 1309 550 2009 
Q 550 2706 781 3412 
Q 1013 4119 1484 4856 
L 1984 4856 
z
" transform="scale(0.015625)"/>
       <path id="DejaVuSans-6e" d="M 3513 2113 
L 3513 0 
L 2938 0 
L 2938 2094 
Q 2938 2591 2744 2837 
Q 2550 3084 2163 3084 
Q 1697 3084 1428 2787 
Q 1159 2491 1159 1978 
L 1159 0 
L 581 0 
L 581 3500 
L 1159 3500 
L 1159 2956 
Q 1366 3272 1645 3428 
Q 1925 3584 2291 3584 
Q 2894 3584 3203 3211 
Q 3513 2838 3513 2113 
z
" transform="scale(0.015625)"/>
       <path id="DejaVuSans-6d" d="M 3328 2828 
Q 3544 3216 3844 3400 
Q 4144 3584 4550 3584 
Q 5097 3584 5394 3201 
Q 5691 2819 5691 2113 
L 5691 0 
L 5113 0 
L 5113 2094 
Q 5113 2597 4934 2840 
Q 4756 3084 4391 3084 
Q 3944 3084 3684 2787 
Q 3425 2491 3425 1978 
L 3425 0 
L 2847 0 
L 2847 2094 
Q 2847 2600 2669 2842 
Q 2491 3084 2119 3084 
Q 1678 3084 1418 2786 
Q 1159 2488 1159 1978 
L 1159 0 
L 581 0 
L 581 3500 
L 1159 3500 
L 1159 2956 
Q 1356 3278 1631 3431 
Q 1906 3584 2284 3584 
Q 2666 3584 2933 3390 
Q 3200 3197 3328 2828 
z
" transform="scale(0.015625)"/>
       <path id="DejaVuSans-69" d="M 603 3500 
L 1178 3500 
L 1178 0 
L 603 0 
L 603 3500 
z
M 603 4863 
L 1178 4863 
L 1178 4134 
L 603 4134 
L 603 4863 
z
" transform="scale(0.015625)"/>
       <path id="DejaVuSans-7a" d="M 353 3500 
L 3084 3500 
L 3084 2975 
L 922 459 
L 3084 459 
L 3084 0 
L 275 0 
L 275 525 
L 2438 3041 
L 353 3041 
L 353 3500 
z
" transform="scale(0.015625)"/>
       <path id="DejaVuSans-64" d="M 2906 2969 
L 2906 4863 
L 3481 4863 
L 3481 0 
L 2906 0 
L 2906 525 
Q 2725 213 2448 61 
Q 2172 -91 1784 -91 
Q 1150 -91 751 415 
Q 353 922 353 1747 
Q 353 2572 751 3078 
Q 1150 3584 1784 3584 
Q 2172 3584 2448 3432 
Q 2725 3281 2906 2969 
z
M 947 1747 
Q 947 1113 1208 752 
Q 1469 391 1925 391 
Q 2381 391 2643 752 
Q 2906 1113 2906 1747 
Q 2906 2381 2643 2742 
Q 2381 3103 1925 3103 
Q 1469 3103 1208 2742 
Q 947 2381 947 1747 
z
" transform="scale(0.015625)"/>
       <path id="DejaVuSans-29" d="M 513 4856 
L 1013 4856 
Q 1481 4119 1714 3412 
Q 1947 2706 1947 2009 
Q 1947 1309 1714 600 
Q 1481 -109 1013 -844 
L 513 -844 
Q 928 -128 1133 580 
Q 1338 1288 1338 2009 
Q 1338 2731 1133 3434 
Q 928 4138 513 4856 
z
" transform="scale(0.015625)"/>
      </defs>
      <use xlink:href="#DejaVuSans-66"/>
      <use xlink:href="#DejaVuSans-6c" x="35.205078"/>
      <use xlink:href="#DejaVuSans-6f" x="62.988281"/>
      <use xlink:href="#DejaVuSans-77" x="124.169922"/>
      <use xlink:href="#DejaVuSans-20" x="205.957031"/>
      <use xlink:href="#DejaVuSans-72" x="237.744141"/>
      <use xlink:href="#DejaVuSans-61" x="278.857422"/>
      <use xlink:href="#DejaVuSans-74" x="340.136719"/>
      <use xlink:href="#DejaVuSans-65" x="379.345703"/>
      <use xlink:href="#DejaVuSans-20" x="440.869141"/>
      <use xlink:href="#DejaVuSans-28" x="472.65625"/>
      <use xlink:href="#DejaVuSans-6e" x="511.669922"/>
      <use xlink:href="#DejaVuSans-6f" x="575.048828"/>
      <use xlink:href="#DejaVuSans-72" x="636.230469"/>
      <use xlink:href="#DejaVuSans-6d" x="675.59375"/>
      <use xlink:href="#DejaVuSans-61" x="773.005859"/>
      <use xlink:href="#DejaVuSans-6c" x="834.285156"/>
      <use xlink:href="#DejaVuSans-69" x="862.068359"/>
      <use xlink:href="#DejaVuSans-7a" x="889.851562"/>
      <use xlink:href="#DejaVuSans-65" x="942.341797"/>
      <use xlink:href="#DejaVuSans-64" x="1003.865234"/>
      <use xlink:href="#DejaVuSans-29" x="1067.341797"/>
     </g>
    </g>
   </g>
   <g id="line2d_9">
    <path d="M 73.832727 60.249606 
L 77.079273 50.565175 
L 80.325818 54.990356 
L 83.572364 56.287669 
L 86.818909 56.82209 
L 90.065455 57.078449 
L 93.312 57.207933 
L 96.558545 57.272948 
L 99.805091 57.312004 
L 103.051636 57.331354 
L 106.298182 57.34384 
L 109.544727 57.349416 
L 112.791273 57.352902 
L 116.037818 57.355093 
L 119.284364 57.356729 
L 122.530909 57.123968 
L 125.777455 55.272056 
L 129.024 55.271562 
L 132.270545 55.271276 
L 135.517091 55.271116 
L 138.763636 55.271022 
L 142.010182 55.270965 
L 145.256727 55.27093 
L 148.503273 55.270909 
L 151.749818 55.270898 
L 154.996364 55.270892 
L 158.242909 55.27089 
L 161.489455 55.270889 
L 164.736 55.270891 
L 167.982545 55.270893 
L 171.229091 56.046039 
L 174.475636 56.81357 
L 177.722182 56.714523 
L 180.968727 56.556885 
L 184.215273 56.319788 
L 187.461818 56.092213 
L 190.708364 55.944131 
L 193.954909 55.943981 
L 197.201455 56.072067 
L 200.448 56.280519 
L 203.694545 56.509261 
L 206.941091 56.722072 
L 210.187636 56.901601 
L 213.434182 57.040397 
L 216.680727 57.141829 
L 219.927273 57.213503 
L 223.173818 57.260376 
L 226.420364 57.293262 
L 229.666909 57.31439 
L 232.913455 57.326481 
L 236.16 57.341028 
L 239.406545 57.345658 
L 242.653091 57.347928 
L 245.899636 57.350079 
L 249.146182 57.352229 
L 252.392727 57.354093 
L 255.639273 57.35494 
L 258.885818 57.355788 
L 262.132364 57.356635 
L 265.378909 57.357412 
L 268.625455 57.388213 
L 271.872 60.85987 
L 275.118545 63.459767 
L 278.365091 64.801676 
L 281.611636 65.24864 
L 284.858182 65.239718 
L 288.104727 65.027833 
L 291.351273 64.770865 
L 294.597818 64.490482 
L 297.844364 64.209564 
L 301.090909 63.937313 
L 304.337455 63.683292 
L 307.584 63.444693 
L 310.830545 63.221085 
L 314.077091 63.012077 
L 317.323636 62.816693 
L 320.570182 62.633516 
L 323.816727 62.461879 
L 327.063273 62.300402 
L 330.309818 62.149767 
L 333.556364 62.007109 
L 336.802909 61.870779 
L 340.049455 61.744253 
L 343.296 61.62477 
L 346.542545 61.511939 
L 349.789091 61.403645 
L 353.035636 61.300809 
L 356.282182 61.203227 
L 359.528727 61.10954 
L 362.775273 61.020441 
L 366.021818 60.935305 
L 369.268364 60.853233 
L 372.514909 60.774813 
L 375.761455 60.699472 
L 379.008 60.627089 
L 382.254545 60.55786 
L 385.501091 60.490364 
L 388.747636 60.425219 
L 391.994182 60.362514 
L 395.240727 60.302926 
L 398.487273 60.247257 
" clip-path="url(#p9a6e9fb1f1)" style="fill: none; stroke: #1f77b4; stroke-width: 1.5; stroke-linecap: square"/>
   </g>
   <g id="line2d_10">
    <path d="M 73.832727 64.270145 
L 77.079273 43.557517 
L 80.325818 52.476355 
L 83.572364 55.147419 
L 86.818909 56.251282 
L 90.065455 56.780853 
L 93.312 57.048191 
L 96.558545 57.182282 
L 99.805091 57.262707 
L 103.051636 57.302577 
L 106.298182 57.328185 
L 109.544727 57.339638 
L 112.791273 57.346777 
L 116.037818 57.351261 
L 119.284364 57.3546 
L 122.530909 55.955123 
L 125.777455 55.274683 
L 129.024 55.274601 
L 132.270545 55.274558 
L 135.517091 55.274537 
L 138.763636 55.274526 
L 142.010182 55.274521 
L 145.256727 55.274519 
L 148.503273 55.274518 
L 151.749818 55.274518 
L 154.996364 55.274518 
L 158.242909 55.274518 
L 161.489455 55.274519 
L 164.736 55.274519 
L 167.982545 55.274519 
L 171.229091 56.78086 
L 174.475636 57.259665 
L 177.722182 57.241758 
L 180.968727 57.213231 
L 184.215273 57.170488 
L 187.461818 57.129675 
L 190.708364 57.103315 
L 193.954909 57.103475 
L 197.201455 57.126447 
L 200.448 57.163715 
L 203.694545 57.204639 
L 206.941091 57.242854 
L 210.187636 57.275224 
L 213.434182 57.300367 
L 216.680727 57.318829 
L 219.927273 57.331934 
L 223.173818 57.340555 
L 226.420364 57.346614 
L 229.666909 57.350538 
L 232.913455 57.352799 
L 236.16 57.355419 
L 239.406545 57.356326 
L 242.653091 57.356749 
L 245.899636 57.357149 
L 249.146182 57.35755 
L 252.392727 57.357897 
L 255.639273 57.358056 
L 258.885818 57.358214 
L 262.132364 57.358372 
L 265.378909 57.358517 
L 268.625455 57.449619 
L 271.872 65.395392 
L 275.118545 73.53951 
L 278.365091 79.992485 
L 281.611636 83.774309 
L 284.858182 85.267862 
L 288.104727 85.115201 
L 291.351273 84.286545 
L 294.597818 83.108558 
L 297.844364 81.791688 
L 301.090909 80.433364 
L 304.337455 79.147553 
L 307.584 77.926077 
L 310.830545 76.787356 
L 314.077091 75.734957 
L 317.323636 74.767077 
L 320.570182 73.877527 
L 323.816727 73.062692 
L 327.063273 72.316582 
L 330.309818 71.634475 
L 333.556364 71.003584 
L 336.802909 70.414722 
L 340.049455 69.875528 
L 343.296 69.374067 
L 346.542545 68.908334 
L 349.789091 68.471057 
L 353.035636 68.062084 
L 356.282182 67.679993 
L 359.528727 67.317557 
L 362.775273 66.97867 
L 366.021818 66.65995 
L 369.268364 66.356513 
L 372.514909 66.071549 
L 375.761455 65.801053 
L 379.008 65.544171 
L 382.254545 65.302281 
L 385.501091 65.068487 
L 388.747636 64.845789 
L 391.994182 64.634617 
L 395.240727 64.435584 
L 398.487273 64.249413 
" clip-path="url(#p9a6e9fb1f1)" style="fill: none; stroke: #ff7f0e; stroke-width: 1.5; stroke-linecap: square"/>
   </g>
   <g id="line2d_11">
    <path d="M 73.832727 57.663591 
L 77.079273 56.608512 
L 80.325818 57.097024 
L 83.572364 57.240384 
L 86.818909 57.299414 
L 90.065455 57.327743 
L 93.312 57.34206 
L 96.558545 57.349254 
L 99.805091 57.353579 
L 103.051636 57.355723 
L 106.298182 57.357108 
L 109.544727 57.357727 
L 112.791273 57.358114 
L 116.037818 57.358358 
L 119.284364 57.35854 
L 122.530909 57.775591 
L 125.777455 55.270346 
L 129.024 55.269406 
L 132.270545 55.268823 
L 135.517091 55.268463 
L 138.763636 55.268228 
L 142.010182 55.268067 
L 145.256727 55.267955 
L 148.503273 55.267875 
L 151.749818 55.26782 
L 154.996364 55.26778 
L 158.242909 55.267751 
L 161.489455 55.26773 
L 164.736 55.267715 
L 167.982545 55.267703 
L 171.229091 55.825887 
L 174.475636 56.416545 
L 177.722182 56.243505 
L 180.968727 55.968569 
L 184.215273 55.551702 
L 187.461818 55.147074 
L 190.708364 54.879569 
L 193.954909 54.875288 
L 197.201455 55.103128 
L 200.448 55.476494 
L 203.694545 55.884996 
L 206.941091 56.262268 
L 210.187636 56.577775 
L 213.434182 56.819269 
L 216.680727 56.993992 
L 219.927273 57.11628 
L 223.173818 57.195262 
L 226.420364 57.250483 
L 229.666909 57.285318 
L 232.913455 57.304983 
L 236.16 57.330654 
L 239.406545 57.337344 
L 242.653091 57.341069 
L 245.899636 57.344594 
L 249.146182 57.348119 
L 252.392727 57.351174 
L 255.639273 57.352559 
L 258.885818 57.353944 
L 262.132364 57.355328 
L 265.378909 57.356597 
L 268.625455 57.360885 
L 271.872 57.732381 
L 275.118545 57.989463 
L 278.365091 58.110681 
L 281.611636 58.146056 
L 284.858182 58.141038 
L 288.104727 58.118953 
L 291.351273 58.093961 
L 294.597818 58.067183 
L 297.844364 58.040596 
L 301.090909 58.014812 
L 304.337455 57.990859 
L 307.584 57.968384 
L 310.830545 57.94734 
L 314.077091 57.927658 
L 317.323636 57.909253 
L 320.570182 57.891985 
L 323.816727 57.875784 
L 327.063273 57.860519 
L 330.309818 57.846259 
L 333.556364 57.832724 
L 336.802909 57.819758 
L 340.049455 57.807721 
L 343.296 57.796343 
L 346.542545 57.785584 
L 349.789091 57.775229 
L 353.035636 57.765386 
L 356.282182 57.756034 
L 359.528727 57.747042 
L 362.775273 57.738475 
L 366.021818 57.730277 
L 369.268364 57.722365 
L 372.514909 57.714791 
L 375.761455 57.707506 
L 379.008 57.700497 
L 382.254545 57.693783 
L 385.501091 57.687226 
L 388.747636 57.680886 
L 391.994182 57.674772 
L 395.240727 57.668958 
L 398.487273 57.663529 
" clip-path="url(#p9a6e9fb1f1)" style="fill: none; stroke: #2ca02c; stroke-width: 1.5; stroke-linecap: square"/>
   </g>
   <g id="patch_3">
    <path d="M 57.6 87.353379 
L 57.6 41.472 
" style="fill: none; stroke: #000000; stroke-width: 0.8; stroke-linejoin: miter; stroke-linecap: square"/>
   </g>
   <g id="patch_4">
    <path d="M 414.72 87.353379 
L 414.72 41.472 
" style="fill: none; stroke: #000000; stroke-width: 0.8; stroke-linejoin: miter; stroke-linecap: square"/>
   </g>
   <g id="patch_5">
    <path d="M 57.6 87.353379 
L 414.72 87.353379 
" style="fill: none; stroke: #000000; stroke-width: 0.8; stroke-linejoin: miter; stroke-linecap: square"/>
   </g>
   <g id="patch_6">
    <path d="M 57.6 41.472 
L 414.72 41.472 
" style="fill: none; stroke: #000000; stroke-width: 0.8; stroke-linejoin: miter; stroke-linecap: square"/>
   </g>
   <g id="text_4">
    <!-- velocity vs time (container 1)   -->
    <g transform="translate(144.106875 35.472)scale(0.12 -0.12)">
     <defs>
      <path id="DejaVuSans-76" d="M 191 3500 
L 800 3500 
L 1894 563 
L 2988 3500 
L 3597 3500 
L 2284 0 
L 1503 0 
L 191 3500 
z
" transform="scale(0.015625)"/>
      <path id="DejaVuSans-63" d="M 3122 3366 
L 3122 2828 
Q 2878 2963 2633 3030 
Q 2388 3097 2138 3097 
Q 1578 3097 1268 2742 
Q 959 2388 959 1747 
Q 959 1106 1268 751 
Q 1578 397 2138 397 
Q 2388 397 2633 464 
Q 2878 531 3122 666 
L 3122 134 
Q 2881 22 2623 -34 
Q 2366 -91 2075 -91 
Q 1284 -91 818 406 
Q 353 903 353 1747 
Q 353 2603 823 3093 
Q 1294 3584 2113 3584 
Q 2378 3584 2631 3529 
Q 2884 3475 3122 3366 
z
" transform="scale(0.015625)"/>
      <path id="DejaVuSans-79" d="M 2059 -325 
Q 1816 -950 1584 -1140 
Q 1353 -1331 966 -1331 
L 506 -1331 
L 506 -850 
L 844 -850 
Q 1081 -850 1212 -737 
Q 1344 -625 1503 -206 
L 1606 56 
L 191 3500 
L 800 3500 
L 1894 763 
L 2988 3500 
L 3597 3500 
L 2059 -325 
z
" transform="scale(0.015625)"/>
      <path id="DejaVuSans-73" d="M 2834 3397 
L 2834 2853 
Q 2591 2978 2328 3040 
Q 2066 3103 1784 3103 
Q 1356 3103 1142 2972 
Q 928 2841 928 2578 
Q 928 2378 1081 2264 
Q 1234 2150 1697 2047 
L 1894 2003 
Q 2506 1872 2764 1633 
Q 3022 1394 3022 966 
Q 3022 478 2636 193 
Q 2250 -91 1575 -91 
Q 1294 -91 989 -36 
Q 684 19 347 128 
L 347 722 
Q 666 556 975 473 
Q 1284 391 1588 391 
Q 1994 391 2212 530 
Q 2431 669 2431 922 
Q 2431 1156 2273 1281 
Q 2116 1406 1581 1522 
L 1381 1569 
Q 847 1681 609 1914 
Q 372 2147 372 2553 
Q 372 3047 722 3315 
Q 1072 3584 1716 3584 
Q 2034 3584 2315 3537 
Q 2597 3491 2834 3397 
z
" transform="scale(0.015625)"/>
     </defs>
     <use xlink:href="#DejaVuSans-76"/>
     <use xlink:href="#DejaVuSans-65" x="59.179688"/>
     <use xlink:href="#DejaVuSans-6c" x="120.703125"/>
     <use xlink:href="#DejaVuSans-6f" x="148.486328"/>
     <use xlink:href="#DejaVuSans-63" x="209.667969"/>
     <use xlink:href="#DejaVuSans-69" x="264.648438"/>
     <use xlink:href="#DejaVuSans-74" x="292.431641"/>
     <use xlink:href="#DejaVuSans-79" x="331.640625"/>
     <use xlink:href="#DejaVuSans-20" x="390.820312"/>
     <use xlink:href="#DejaVuSans-76" x="422.607422"/>
     <use xlink:href="#DejaVuSans-73" x="481.787109"/>
     <use xlink:href="#DejaVuSans-20" x="533.886719"/>
     <use xlink:href="#DejaVuSans-74" x="565.673828"/>
     <use xlink:href="#DejaVuSans-69" x="604.882812"/>
     <use xlink:href="#DejaVuSans-6d" x="632.666016"/>
     <use xlink:href="#DejaVuSans-65" x="730.078125"/>
     <use xlink:href="#DejaVuSans-20" x="791.601562"/>
     <use xlink:href="#DejaVuSans-28" x="823.388672"/>
     <use xlink:href="#DejaVuSans-63" x="862.402344"/>
     <use xlink:href="#DejaVuSans-6f" x="917.382812"/>
     <use xlink:href="#DejaVuSans-6e" x="978.564453"/>
     <use xlink:href="#DejaVuSans-74" x="1041.943359"/>
     <use xlink:href="#DejaVuSans-61" x="1081.152344"/>
     <use xlink:href="#DejaVuSans-69" x="1142.431641"/>
     <use xlink:href="#DejaVuSans-6e" x="1170.214844"/>
     <use xlink:href="#DejaVuSans-65" x="1233.59375"/>
     <use xlink:href="#DejaVuSans-72" x="1295.117188"/>
     <use xlink:href="#DejaVuSans-20" x="1336.230469"/>
     <use xlink:href="#DejaVuSans-31" x="1368.017578"/>
     <use xlink:href="#DejaVuSans-29" x="1431.640625"/>
     <use xlink:href="#DejaVuSans-20" x="1470.654297"/>
     <use xlink:href="#DejaVuSans-20" x="1502.441406"/>
    </g>
   </g>
   <g id="legend_1">
    <g id="patch_7">
     <path d="M 64.6 93.506375 
L 139.240625 93.506375 
Q 141.240625 93.506375 141.240625 91.506375 
L 141.240625 48.472 
Q 141.240625 46.472 139.240625 46.472 
L 64.6 46.472 
Q 62.6 46.472 62.6 48.472 
L 62.6 91.506375 
Q 62.6 93.506375 64.6 93.506375 
z
" style="fill: #ffffff; opacity: 0.8; stroke: #cccccc; stroke-linejoin: miter"/>
    </g>
    <g id="line2d_12">
     <path d="M 66.6 54.570437 
L 76.6 54.570437 
L 86.6 54.570437 
" style="fill: none; stroke: #1f77b4; stroke-width: 1.5; stroke-linecap: square"/>
    </g>
    <g id="text_5">
     <!-- mid flow -->
     <g transform="translate(94.6 58.070437)scale(0.1 -0.1)">
      <use xlink:href="#DejaVuSans-6d"/>
      <use xlink:href="#DejaVuSans-69" x="97.412109"/>
      <use xlink:href="#DejaVuSans-64" x="125.195312"/>
      <use xlink:href="#DejaVuSans-20" x="188.671875"/>
      <use xlink:href="#DejaVuSans-66" x="220.458984"/>
      <use xlink:href="#DejaVuSans-6c" x="255.664062"/>
      <use xlink:href="#DejaVuSans-6f" x="283.447266"/>
      <use xlink:href="#DejaVuSans-77" x="344.628906"/>
     </g>
    </g>
    <g id="line2d_13">
     <path d="M 66.6 69.248562 
L 76.6 69.248562 
L 86.6 69.248562 
" style="fill: none; stroke: #ff7f0e; stroke-width: 1.5; stroke-linecap: square"/>
    </g>
    <g id="text_6">
     <!-- v0 flow -->
     <g transform="translate(94.6 72.748562)scale(0.1 -0.1)">
      <use xlink:href="#DejaVuSans-76"/>
      <use xlink:href="#DejaVuSans-30" x="59.179688"/>
      <use xlink:href="#DejaVuSans-20" x="122.802734"/>
      <use xlink:href="#DejaVuSans-66" x="154.589844"/>
      <use xlink:href="#DejaVuSans-6c" x="189.794922"/>
      <use xlink:href="#DejaVuSans-6f" x="217.578125"/>
      <use xlink:href="#DejaVuSans-77" x="278.759766"/>
     </g>
    </g>
    <g id="line2d_14">
     <path d="M 66.6 83.926687 
L 76.6 83.926687 
L 86.6 83.926687 
" style="fill: none; stroke: #2ca02c; stroke-width: 1.5; stroke-linecap: square"/>
    </g>
    <g id="text_7">
     <!-- vN flow -->
     <g transform="translate(94.6 87.426687)scale(0.1 -0.1)">
      <defs>
       <path id="DejaVuSans-4e" d="M 628 4666 
L 1478 4666 
L 3547 763 
L 3547 4666 
L 4159 4666 
L 4159 0 
L 3309 0 
L 1241 3903 
L 1241 0 
L 628 0 
L 628 4666 
z
" transform="scale(0.015625)"/>
      </defs>
      <use xlink:href="#DejaVuSans-76"/>
      <use xlink:href="#DejaVuSans-4e" x="59.179688"/>
      <use xlink:href="#DejaVuSans-20" x="133.984375"/>
      <use xlink:href="#DejaVuSans-66" x="165.771484"/>
      <use xlink:href="#DejaVuSans-6c" x="200.976562"/>
      <use xlink:href="#DejaVuSans-6f" x="228.759766"/>
      <use xlink:href="#DejaVuSans-77" x="289.941406"/>
     </g>
    </g>
   </g>
  </g>
  <g id="axes_2">
   <g id="patch_8">
    <path d="M 57.6 142.411034 
L 414.72 142.411034 
L 414.72 96.529655 
L 57.6 96.529655 
z
" style="fill: #ffffff"/>
   </g>
   <g id="matplotlib.axis_3">
    <g id="xtick_7">
     <g id="line2d_15">
      <g>
       <use xlink:href="#m8c834234b6" x="73.832727" y="142.411034" style="stroke: #000000; stroke-width: 0.8"/>
      </g>
     </g>
    </g>
    <g id="xtick_8">
     <g id="line2d_16">
      <g>
       <use xlink:href="#m8c834234b6" x="138.763636" y="142.411034" style="stroke: #000000; stroke-width: 0.8"/>
      </g>
     </g>
    </g>
    <g id="xtick_9">
     <g id="line2d_17">
      <g>
       <use xlink:href="#m8c834234b6" x="203.694545" y="142.411034" style="stroke: #000000; stroke-width: 0.8"/>
      </g>
     </g>
    </g>
    <g id="xtick_10">
     <g id="line2d_18">
      <g>
       <use xlink:href="#m8c834234b6" x="268.625455" y="142.411034" style="stroke: #000000; stroke-width: 0.8"/>
      </g>
     </g>
    </g>
    <g id="xtick_11">
     <g id="line2d_19">
      <g>
       <use xlink:href="#m8c834234b6" x="333.556364" y="142.411034" style="stroke: #000000; stroke-width: 0.8"/>
      </g>
     </g>
    </g>
    <g id="xtick_12">
     <g id="line2d_20">
      <g>
       <use xlink:href="#m8c834234b6" x="398.487273" y="142.411034" style="stroke: #000000; stroke-width: 0.8"/>
      </g>
     </g>
    </g>
   </g>
   <g id="matplotlib.axis_4">
    <g id="ytick_3">
     <g id="line2d_21">
      <g>
       <use xlink:href="#mca98da5e29" x="57.6" y="140.761395" style="stroke: #000000; stroke-width: 0.8"/>
      </g>
     </g>
     <g id="text_8">
      <!-- 0 -->
      <g transform="translate(44.2375 144.560613)scale(0.1 -0.1)">
       <use xlink:href="#DejaVuSans-30"/>
      </g>
     </g>
    </g>
    <g id="ytick_4">
     <g id="line2d_22">
      <g>
       <use xlink:href="#mca98da5e29" x="57.6" y="98.771705" style="stroke: #000000; stroke-width: 0.8"/>
      </g>
     </g>
     <g id="text_9">
      <!-- 1 -->
      <g transform="translate(44.2375 102.570924)scale(0.1 -0.1)">
       <use xlink:href="#DejaVuSans-31"/>
      </g>
     </g>
    </g>
   </g>
   <g id="line2d_23">
    <path d="M 73.832727 140.32545 
L 77.079273 124.014873 
L 80.325818 114.074852 
L 83.572364 108.050116 
L 86.818909 104.399876 
L 90.065455 102.183459 
L 93.312 100.842086 
L 96.558545 100.022492 
L 99.805091 99.534168 
L 103.051636 99.234155 
L 106.298182 99.051884 
L 109.544727 98.942957 
L 112.791273 98.877524 
L 116.037818 98.835899 
L 119.284364 98.809643 
L 122.530909 98.744123 
L 125.777455 98.615261 
L 129.024 98.615226 
L 132.270545 98.615205 
L 135.517091 98.615193 
L 138.763636 98.615185 
L 142.010182 98.615181 
L 145.256727 98.615177 
L 148.503273 98.615176 
L 151.749818 98.615174 
L 154.996364 98.615173 
L 158.242909 98.615173 
L 161.489455 98.615173 
L 164.736 98.615172 
L 167.982545 98.615172 
L 171.229091 98.685922 
L 174.475636 113.60221 
L 177.722182 122.615173 
L 180.968727 128.074365 
L 184.215273 131.375505 
L 187.461818 133.3707 
L 190.708364 134.581428 
L 193.954909 135.321508 
L 197.201455 135.779794 
L 200.448 136.06692 
L 203.694545 136.248308 
L 206.941091 136.364136 
L 210.187636 136.43694 
L 213.434182 136.483552 
L 216.680727 136.512986 
L 219.927273 136.531427 
L 223.173818 136.543117 
L 226.420364 136.549639 
L 229.666909 136.554041 
L 232.913455 136.5577 
L 236.16 136.559512 
L 239.406545 136.560483 
L 242.653091 136.560881 
L 245.899636 136.56126 
L 249.146182 136.561639 
L 252.392727 136.561956 
L 255.639273 136.562049 
L 258.885818 136.562143 
L 262.132364 136.562237 
L 265.378909 136.562314 
L 268.625455 136.56629 
L 271.872 138.030933 
L 275.118545 138.91242 
L 278.365091 139.436053 
L 281.611636 139.747685 
L 284.858182 139.935467 
L 288.104727 140.049696 
L 291.351273 140.123317 
L 294.597818 140.17291 
L 297.844364 140.206921 
L 301.090909 140.230688 
L 304.337455 140.248397 
L 307.584 140.261489 
L 310.830545 140.271426 
L 314.077091 140.27922 
L 317.323636 140.285383 
L 320.570182 140.290375 
L 323.816727 140.294498 
L 327.063273 140.297967 
L 330.309818 140.300873 
L 333.556364 140.303438 
L 336.802909 140.305772 
L 340.049455 140.30779 
L 343.296 140.309606 
L 346.542545 140.311234 
L 349.789091 140.31273 
L 353.035636 140.314096 
L 356.282182 140.315341 
L 359.528727 140.316507 
L 362.775273 140.31757 
L 366.021818 140.318551 
L 369.268364 140.319477 
L 372.514909 140.32033 
L 375.761455 140.32113 
L 379.008 140.321881 
L 382.254545 140.322576 
L 385.501091 140.323246 
L 388.747636 140.323879 
L 391.994182 140.324471 
L 395.240727 140.325019 
L 398.487273 140.325517 
" clip-path="url(#p99b3da743f)" style="fill: none; stroke: #1f77b4; stroke-width: 1.5; stroke-linecap: square"/>
   </g>
   <g id="line2d_24">
    <path d="M 73.832727 140.124626 
L 77.079273 124.439433 
L 80.325818 114.224245 
L 83.572364 108.117743 
L 86.818909 104.433751 
L 90.065455 102.201143 
L 93.312 100.851594 
L 96.558545 100.027898 
L 99.805091 99.537112 
L 103.051636 99.235878 
L 106.298182 99.052822 
L 109.544727 98.943545 
L 112.791273 98.877892 
L 116.037818 98.83613 
L 119.284364 98.809771 
L 122.530909 98.777825 
L 125.777455 98.695441 
L 129.024 98.695414 
L 132.270545 98.695399 
L 135.517091 98.695389 
L 138.763636 98.695383 
L 142.010182 98.695379 
L 145.256727 98.695377 
L 148.503273 98.695375 
L 151.749818 98.695374 
L 154.996364 98.695373 
L 158.242909 98.695373 
L 161.489455 98.695372 
L 164.736 98.695372 
L 167.982545 98.695372 
L 171.229091 98.720844 
L 174.475636 113.612691 
L 177.722182 122.627552 
L 180.968727 128.089767 
L 184.215273 131.395443 
L 187.461818 133.394979 
L 190.708364 134.60852 
L 193.954909 135.348593 
L 197.201455 135.804435 
L 200.448 136.087591 
L 203.694545 136.264621 
L 206.941091 136.376386 
L 210.187636 136.445755 
L 213.434182 136.489705 
L 216.680727 136.517187 
L 219.927273 136.534245 
L 223.173818 136.545028 
L 226.420364 136.550913 
L 229.666909 136.554904 
L 232.913455 136.558327 
L 236.16 136.559861 
L 239.406545 136.560739 
L 242.653091 136.561093 
L 245.899636 136.56143 
L 249.146182 136.561767 
L 252.392727 136.562047 
L 255.639273 136.562124 
L 258.885818 136.562201 
L 262.132364 136.562279 
L 265.378909 136.56234 
L 268.625455 136.563849 
L 271.872 137.794247 
L 275.118545 138.460704 
L 278.365091 138.83516 
L 281.611636 139.070203 
L 284.858182 139.233618 
L 288.104727 139.356988 
L 291.351273 139.452205 
L 294.597818 139.529786 
L 297.844364 139.594262 
L 301.090909 139.648961 
L 304.337455 139.695694 
L 307.584 139.736282 
L 310.830545 139.771933 
L 314.077091 139.80352 
L 317.323636 139.831671 
L 320.570182 139.85698 
L 323.816727 139.879836 
L 327.063273 139.900598 
L 330.309818 139.919411 
L 333.556364 139.936796 
L 336.802909 139.953064 
L 340.049455 139.9679 
L 343.296 139.981697 
L 346.542545 139.994514 
L 349.789091 140.006591 
L 353.035636 140.017904 
L 356.282182 140.028493 
L 359.528727 140.038557 
L 362.775273 140.04799 
L 366.021818 140.056885 
L 369.268364 140.065379 
L 372.514909 140.073384 
L 375.761455 140.081001 
L 379.008 140.088252 
L 382.254545 140.095102 
L 385.501091 140.10174 
L 388.747636 140.108082 
L 391.994182 140.114118 
L 395.240727 140.119812 
L 398.487273 140.125122 
" clip-path="url(#p99b3da743f)" style="fill: none; stroke: #ff7f0e; stroke-width: 1.5; stroke-linecap: square"/>
   </g>
   <g id="line2d_25">
    <path d="M 73.832727 140.070381 
L 77.079273 124.569984 
L 80.325818 114.269668 
L 83.572364 108.138283 
L 86.818909 104.444044 
L 90.065455 102.20652 
L 93.312 100.854488 
L 96.558545 100.029545 
L 99.805091 99.53801 
L 103.051636 99.236405 
L 106.298182 99.053109 
L 109.544727 98.943724 
L 112.791273 98.878005 
L 116.037818 98.836201 
L 119.284364 98.809811 
L 122.530909 98.77493 
L 125.777455 98.767689 
L 129.024 98.767687 
L 132.270545 98.767686 
L 135.517091 98.767685 
L 138.763636 98.767685 
L 142.010182 98.767684 
L 145.256727 98.767684 
L 148.503273 98.767684 
L 151.749818 98.767684 
L 154.996364 98.767684 
L 158.242909 98.767684 
L 161.489455 98.767684 
L 164.736 98.767684 
L 167.982545 98.767684 
L 171.229091 98.770878 
L 174.475636 113.638428 
L 177.722182 122.65799 
L 180.968727 128.127682 
L 184.215273 131.444651 
L 187.461818 133.455089 
L 190.708364 134.675782 
L 193.954909 135.415917 
L 197.201455 135.865623 
L 200.448 136.138755 
L 203.694545 136.304802 
L 206.941091 136.406389 
L 210.187636 136.467209 
L 213.434182 136.504583 
L 216.680727 136.527286 
L 219.927273 136.540982 
L 223.173818 136.549581 
L 226.420364 136.553936 
L 229.666909 136.556954 
L 232.913455 136.559823 
L 236.16 136.560663 
L 239.406545 136.56134 
L 242.653091 136.56159 
L 245.899636 136.561828 
L 249.146182 136.562067 
L 252.392727 136.562261 
L 255.639273 136.562299 
L 258.885818 136.562338 
L 262.132364 136.562376 
L 265.378909 136.562402 
L 268.625455 136.563333 
L 271.872 137.728162 
L 275.118545 138.347226 
L 278.365091 138.698203 
L 281.611636 138.925865 
L 284.858182 139.08981 
L 288.104727 139.217148 
L 291.351273 139.317017 
L 294.597818 139.399627 
L 297.844364 139.46912 
L 301.090909 139.528684 
L 304.337455 139.579945 
L 307.584 139.624784 
L 310.830545 139.664417 
L 314.077091 139.699727 
L 317.323636 139.731358 
L 320.570182 139.759932 
L 323.816727 139.785849 
L 327.063273 139.809492 
L 330.309818 139.830995 
L 333.556364 139.85093 
L 336.802909 139.869638 
L 340.049455 139.886738 
L 343.296 139.902674 
L 346.542545 139.917513 
L 349.789091 139.931533 
L 353.035636 139.944692 
L 356.282182 139.957032 
L 359.528727 139.96878 
L 362.775273 139.979816 
L 366.021818 139.990244 
L 369.268364 140.000216 
L 372.514909 140.009634 
L 375.761455 140.018609 
L 379.008 140.027167 
L 382.254545 140.035268 
L 385.501091 140.043125 
L 388.747636 140.050646 
L 391.994182 140.057817 
L 395.240727 140.064591 
L 398.487273 140.070908 
" clip-path="url(#p99b3da743f)" style="fill: none; stroke: #2ca02c; stroke-width: 1.5; stroke-linecap: square"/>
   </g>
   <g id="patch_9">
    <path d="M 57.6 142.411034 
L 57.6 96.529655 
" style="fill: none; stroke: #000000; stroke-width: 0.8; stroke-linejoin: miter; stroke-linecap: square"/>
   </g>
   <g id="patch_10">
    <path d="M 414.72 142.411034 
L 414.72 96.529655 
" style="fill: none; stroke: #000000; stroke-width: 0.8; stroke-linejoin: miter; stroke-linecap: square"/>
   </g>
   <g id="patch_11">
    <path d="M 57.6 142.411034 
L 414.72 142.411034 
" style="fill: none; stroke: #000000; stroke-width: 0.8; stroke-linejoin: miter; stroke-linecap: square"/>
   </g>
   <g id="patch_12">
    <path d="M 57.6 96.529655 
L 414.72 96.529655 
" style="fill: none; stroke: #000000; stroke-width: 0.8; stroke-linejoin: miter; stroke-linecap: square"/>
   </g>
   <g id="text_10">
    <!-- Pressure -->
    <g transform="translate(210.546562 90.529655)scale(0.12 -0.12)">
     <defs>
      <path id="DejaVuSans-50" d="M 1259 4147 
L 1259 2394 
L 2053 2394 
Q 2494 2394 2734 2622 
Q 2975 2850 2975 3272 
Q 2975 3691 2734 3919 
Q 2494 4147 2053 4147 
L 1259 4147 
z
M 628 4666 
L 2053 4666 
Q 2838 4666 3239 4311 
Q 3641 3956 3641 3272 
Q 3641 2581 3239 2228 
Q 2838 1875 2053 1875 
L 1259 1875 
L 1259 0 
L 628 0 
L 628 4666 
z
" transform="scale(0.015625)"/>
      <path id="DejaVuSans-75" d="M 544 1381 
L 544 3500 
L 1119 3500 
L 1119 1403 
Q 1119 906 1312 657 
Q 1506 409 1894 409 
Q 2359 409 2629 706 
Q 2900 1003 2900 1516 
L 2900 3500 
L 3475 3500 
L 3475 0 
L 2900 0 
L 2900 538 
Q 2691 219 2414 64 
Q 2138 -91 1772 -91 
Q 1169 -91 856 284 
Q 544 659 544 1381 
z
M 1991 3584 
L 1991 3584 
z
" transform="scale(0.015625)"/>
     </defs>
     <use xlink:href="#DejaVuSans-50"/>
     <use xlink:href="#DejaVuSans-72" x="58.552734"/>
     <use xlink:href="#DejaVuSans-65" x="97.416016"/>
     <use xlink:href="#DejaVuSans-73" x="158.939453"/>
     <use xlink:href="#DejaVuSans-73" x="211.039062"/>
     <use xlink:href="#DejaVuSans-75" x="263.138672"/>
     <use xlink:href="#DejaVuSans-72" x="326.517578"/>
     <use xlink:href="#DejaVuSans-65" x="365.380859"/>
    </g>
   </g>
   <g id="legend_2">
    <g id="patch_13">
     <path d="M 350.823125 137.411034 
L 407.72 137.411034 
Q 409.72 137.411034 409.72 135.411034 
L 409.72 92.376659 
Q 409.72 90.376659 407.72 90.376659 
L 350.823125 90.376659 
Q 348.823125 90.376659 348.823125 92.376659 
L 348.823125 135.411034 
Q 348.823125 137.411034 350.823125 137.411034 
z
" style="fill: #ffffff; opacity: 0.8; stroke: #cccccc; stroke-linejoin: miter"/>
    </g>
    <g id="line2d_26">
     <path d="M 352.823125 98.475097 
L 362.823125 98.475097 
L 372.823125 98.475097 
" style="fill: none; stroke: #1f77b4; stroke-width: 1.5; stroke-linecap: square"/>
    </g>
    <g id="text_11">
     <!-- P1 -->
     <g transform="translate(380.823125 101.975097)scale(0.1 -0.1)">
      <use xlink:href="#DejaVuSans-50"/>
      <use xlink:href="#DejaVuSans-31" x="60.302734"/>
     </g>
    </g>
    <g id="line2d_27">
     <path d="M 352.823125 113.153222 
L 362.823125 113.153222 
L 372.823125 113.153222 
" style="fill: none; stroke: #ff7f0e; stroke-width: 1.5; stroke-linecap: square"/>
    </g>
    <g id="text_12">
     <!-- Pmid -->
     <g transform="translate(380.823125 116.653222)scale(0.1 -0.1)">
      <use xlink:href="#DejaVuSans-50"/>
      <use xlink:href="#DejaVuSans-6d" x="60.302734"/>
      <use xlink:href="#DejaVuSans-69" x="157.714844"/>
      <use xlink:href="#DejaVuSans-64" x="185.498047"/>
     </g>
    </g>
    <g id="line2d_28">
     <path d="M 352.823125 127.831347 
L 362.823125 127.831347 
L 372.823125 127.831347 
" style="fill: none; stroke: #2ca02c; stroke-width: 1.5; stroke-linecap: square"/>
    </g>
    <g id="text_13">
     <!-- PN -->
     <g transform="translate(380.823125 131.331347)scale(0.1 -0.1)">
      <use xlink:href="#DejaVuSans-50"/>
      <use xlink:href="#DejaVuSans-4e" x="60.302734"/>
     </g>
    </g>
   </g>
  </g>
  <g id="axes_3">
   <g id="patch_14">
    <path d="M 57.6 197.46869 
L 414.72 197.46869 
L 414.72 151.58731 
L 57.6 151.58731 
z
" style="fill: #ffffff"/>
   </g>
   <g id="matplotlib.axis_5">
    <g id="xtick_13">
     <g id="line2d_29">
      <g>
       <use xlink:href="#m8c834234b6" x="73.832727" y="197.46869" style="stroke: #000000; stroke-width: 0.8"/>
      </g>
     </g>
    </g>
    <g id="xtick_14">
     <g id="line2d_30">
      <g>
       <use xlink:href="#m8c834234b6" x="138.763636" y="197.46869" style="stroke: #000000; stroke-width: 0.8"/>
      </g>
     </g>
    </g>
    <g id="xtick_15">
     <g id="line2d_31">
      <g>
       <use xlink:href="#m8c834234b6" x="203.694545" y="197.46869" style="stroke: #000000; stroke-width: 0.8"/>
      </g>
     </g>
    </g>
    <g id="xtick_16">
     <g id="line2d_32">
      <g>
       <use xlink:href="#m8c834234b6" x="268.625455" y="197.46869" style="stroke: #000000; stroke-width: 0.8"/>
      </g>
     </g>
    </g>
    <g id="xtick_17">
     <g id="line2d_33">
      <g>
       <use xlink:href="#m8c834234b6" x="333.556364" y="197.46869" style="stroke: #000000; stroke-width: 0.8"/>
      </g>
     </g>
    </g>
    <g id="xtick_18">
     <g id="line2d_34">
      <g>
       <use xlink:href="#m8c834234b6" x="398.487273" y="197.46869" style="stroke: #000000; stroke-width: 0.8"/>
      </g>
     </g>
    </g>
   </g>
   <g id="matplotlib.axis_6">
    <g id="ytick_5">
     <g id="line2d_35">
      <g>
       <use xlink:href="#mca98da5e29" x="57.6" y="183.91357" style="stroke: #000000; stroke-width: 0.8"/>
      </g>
     </g>
     <g id="text_14">
      <!-- 0.05 -->
      <g transform="translate(28.334375 187.712789)scale(0.1 -0.1)">
       <defs>
        <path id="DejaVuSans-2e" d="M 684 794 
L 1344 794 
L 1344 0 
L 684 0 
L 684 794 
z
" transform="scale(0.015625)"/>
        <path id="DejaVuSans-35" d="M 691 4666 
L 3169 4666 
L 3169 4134 
L 1269 4134 
L 1269 2991 
Q 1406 3038 1543 3061 
Q 1681 3084 1819 3084 
Q 2600 3084 3056 2656 
Q 3513 2228 3513 1497 
Q 3513 744 3044 326 
Q 2575 -91 1722 -91 
Q 1428 -91 1123 -41 
Q 819 9 494 109 
L 494 744 
Q 775 591 1075 516 
Q 1375 441 1709 441 
Q 2250 441 2565 725 
Q 2881 1009 2881 1497 
Q 2881 1984 2565 2268 
Q 2250 2553 1709 2553 
Q 1456 2553 1204 2497 
Q 953 2441 691 2322 
L 691 4666 
z
" transform="scale(0.015625)"/>
       </defs>
       <use xlink:href="#DejaVuSans-30"/>
       <use xlink:href="#DejaVuSans-2e" x="63.623047"/>
       <use xlink:href="#DejaVuSans-30" x="95.410156"/>
       <use xlink:href="#DejaVuSans-35" x="159.033203"/>
      </g>
     </g>
    </g>
    <g id="ytick_6">
     <g id="line2d_36">
      <g>
       <use xlink:href="#mca98da5e29" x="57.6" y="167.244845" style="stroke: #000000; stroke-width: 0.8"/>
      </g>
     </g>
     <g id="text_15">
      <!-- 0.10 -->
      <g transform="translate(28.334375 171.044064)scale(0.1 -0.1)">
       <use xlink:href="#DejaVuSans-30"/>
       <use xlink:href="#DejaVuSans-2e" x="63.623047"/>
       <use xlink:href="#DejaVuSans-31" x="95.410156"/>
       <use xlink:href="#DejaVuSans-30" x="159.033203"/>
      </g>
     </g>
    </g>
    <g id="text_16">
     <!-- fraction -->
     <g transform="translate(22.254687 193.73425)rotate(-90)scale(0.1 -0.1)">
      <use xlink:href="#DejaVuSans-66"/>
      <use xlink:href="#DejaVuSans-72" x="35.205078"/>
      <use xlink:href="#DejaVuSans-61" x="76.318359"/>
      <use xlink:href="#DejaVuSans-63" x="137.597656"/>
      <use xlink:href="#DejaVuSans-74" x="192.578125"/>
      <use xlink:href="#DejaVuSans-69" x="231.787109"/>
      <use xlink:href="#DejaVuSans-6f" x="259.570312"/>
      <use xlink:href="#DejaVuSans-6e" x="320.751953"/>
     </g>
    </g>
   </g>
   <g id="line2d_37">
    <path d="M 73.832727 195.381749 
L 77.079273 183.387307 
L 80.325818 183.375917 
L 83.572364 183.339221 
L 86.818909 183.380103 
L 90.065455 183.374629 
L 93.312 183.36957 
L 96.558545 183.363893 
L 99.805091 183.269098 
L 103.051636 182.989954 
L 106.298182 183.174331 
L 109.544727 183.183563 
L 112.791273 183.175625 
L 116.037818 183.171015 
L 119.284364 183.155038 
L 122.530909 183.152192 
L 125.777455 183.848362 
L 129.024 183.875329 
L 132.270545 183.891263 
L 135.517091 183.900311 
L 138.763636 183.905596 
L 142.010182 183.908791 
L 145.256727 183.91072 
L 148.503273 183.911876 
L 151.749818 183.912547 
L 154.996364 183.912941 
L 158.242909 183.91318 
L 161.489455 183.913328 
L 164.736 183.913424 
L 167.982545 183.913506 
L 171.229091 183.91356 
L 174.475636 184.064727 
L 177.722182 184.338265 
L 180.968727 184.692799 
L 184.215273 185.099096 
L 187.461818 185.509972 
L 190.708364 185.879517 
L 193.954909 186.172125 
L 197.201455 186.397779 
L 200.448 186.559058 
L 203.694545 186.670825 
L 206.941091 186.747257 
L 210.187636 186.797729 
L 213.434182 186.830604 
L 216.680727 186.85195 
L 219.927273 186.86551 
L 223.173818 186.87409 
L 226.420364 186.879431 
L 229.666909 186.882513 
L 232.913455 186.884904 
L 236.16 186.886317 
L 239.406545 186.887256 
L 242.653091 186.887553 
L 245.899636 186.887834 
L 249.146182 186.888116 
L 252.392727 186.888351 
L 255.639273 186.888421 
L 258.885818 186.88849 
L 262.132364 186.888559 
L 265.378909 186.888617 
L 268.625455 186.889263 
L 271.872 188.258913 
L 275.118545 189.599053 
L 278.365091 190.719487 
L 281.611636 191.595663 
L 284.858182 192.254121 
L 288.104727 192.733057 
L 291.351273 193.086253 
L 294.597818 193.352973 
L 297.844364 193.555014 
L 301.090909 193.714091 
L 304.337455 193.843738 
L 307.584 193.951648 
L 310.830545 194.042874 
L 314.077091 194.126027 
L 317.323636 194.201187 
L 320.570182 194.270833 
L 323.816727 194.337 
L 327.063273 194.400525 
L 330.309818 194.462037 
L 333.556364 194.521369 
L 336.802909 194.578036 
L 340.049455 194.633008 
L 343.296 194.686364 
L 346.542545 194.738136 
L 349.789091 194.788249 
L 353.035636 194.836819 
L 356.282182 194.883879 
L 359.528727 194.92958 
L 362.775273 194.973839 
L 366.021818 195.016764 
L 369.268364 195.05851 
L 372.514909 195.098975 
L 375.761455 195.13828 
L 379.008 195.176449 
L 382.254545 195.213442 
L 385.501091 195.249523 
L 388.747636 195.284577 
L 391.994182 195.318588 
L 395.240727 195.351482 
L 398.487273 195.383172 
" clip-path="url(#p93d0a5c91c)" style="fill: none; stroke: #1f77b4; stroke-width: 1.5; stroke-linecap: square"/>
   </g>
   <g id="line2d_38">
    <path d="M 73.832727 195.350004 
L 77.079273 155.076234 
L 80.325818 153.794307 
L 83.572364 153.672828 
L 86.818909 153.742557 
L 90.065455 153.867499 
L 93.312 154.014598 
L 96.558545 154.17074 
L 99.805091 154.325018 
L 103.051636 154.481044 
L 106.298182 154.633136 
L 109.544727 154.781622 
L 112.791273 154.925508 
L 116.037818 155.06571 
L 119.284364 155.203336 
L 122.530909 155.327837 
L 125.777455 171.568182 
L 129.024 174.631144 
L 132.270545 176.955776 
L 135.517091 178.713141 
L 138.763636 180.04156 
L 142.010182 181.044171 
L 145.256727 181.796916 
L 148.503273 182.359146 
L 151.749818 182.775236 
L 154.996364 183.082279 
L 158.242909 183.308367 
L 161.489455 183.474392 
L 164.736 183.596332 
L 167.982545 183.685911 
L 171.229091 183.750923 
L 174.475636 183.851891 
L 177.722182 184.143026 
L 180.968727 184.519037 
L 184.215273 184.949717 
L 187.461818 185.385916 
L 190.708364 185.77913 
L 193.954909 186.088711 
L 197.201455 186.323163 
L 200.448 186.485664 
L 203.694545 186.594282 
L 206.941091 186.665252 
L 210.187636 186.709838 
L 213.434182 186.737629 
L 216.680727 186.754994 
L 219.927273 186.765631 
L 223.173818 186.77229 
L 226.420364 186.776213 
L 229.666909 186.778372 
L 232.913455 186.780359 
L 236.16 186.781312 
L 239.406545 186.782001 
L 242.653091 186.782256 
L 245.899636 186.782502 
L 249.146182 186.782748 
L 252.392727 186.78296 
L 255.639273 186.783051 
L 258.885818 186.783141 
L 262.132364 186.783232 
L 265.378909 186.783313 
L 268.625455 186.783525 
L 271.872 187.854965 
L 275.118545 188.7426 
L 278.365091 189.408291 
L 281.611636 189.939885 
L 284.858182 190.389113 
L 288.104727 190.776518 
L 291.351273 191.129896 
L 294.597818 191.446724 
L 297.844364 191.734367 
L 301.090909 191.992782 
L 304.337455 192.231454 
L 307.584 192.451272 
L 310.830545 192.654693 
L 314.077091 192.843583 
L 317.323636 193.01962 
L 320.570182 193.183671 
L 323.816727 193.337194 
L 327.063273 193.480556 
L 330.309818 193.615972 
L 333.556364 193.743228 
L 336.802909 193.862431 
L 340.049455 193.976302 
L 343.296 194.085054 
L 346.542545 194.18878 
L 349.789091 194.286997 
L 353.035636 194.380857 
L 356.282182 194.470564 
L 359.528727 194.556833 
L 362.775273 194.639237 
L 366.021818 194.718102 
L 369.268364 194.793893 
L 372.514909 194.866305 
L 375.761455 194.936014 
L 379.008 195.003165 
L 382.254545 195.067524 
L 385.501091 195.129837 
L 388.747636 195.189779 
L 391.994182 195.247303 
L 395.240727 195.303019 
L 398.487273 195.357644 
" clip-path="url(#p93d0a5c91c)" style="fill: none; stroke: #ff7f0e; stroke-width: 1.5; stroke-linecap: square"/>
   </g>
   <g id="patch_15">
    <path d="M 57.6 197.46869 
L 57.6 151.58731 
" style="fill: none; stroke: #000000; stroke-width: 0.8; stroke-linejoin: miter; stroke-linecap: square"/>
   </g>
   <g id="patch_16">
    <path d="M 414.72 197.46869 
L 414.72 151.58731 
" style="fill: none; stroke: #000000; stroke-width: 0.8; stroke-linejoin: miter; stroke-linecap: square"/>
   </g>
   <g id="patch_17">
    <path d="M 57.6 197.46869 
L 414.72 197.46869 
" style="fill: none; stroke: #000000; stroke-width: 0.8; stroke-linejoin: miter; stroke-linecap: square"/>
   </g>
   <g id="patch_18">
    <path d="M 57.6 151.58731 
L 414.72 151.58731 
" style="fill: none; stroke: #000000; stroke-width: 0.8; stroke-linejoin: miter; stroke-linecap: square"/>
   </g>
   <g id="text_17">
    <!-- yA -->
    <g transform="translate(228.504375 145.58731)scale(0.12 -0.12)">
     <defs>
      <path id="DejaVuSans-41" d="M 2188 4044 
L 1331 1722 
L 3047 1722 
L 2188 4044 
z
M 1831 4666 
L 2547 4666 
L 4325 0 
L 3669 0 
L 3244 1197 
L 1141 1197 
L 716 0 
L 50 0 
L 1831 4666 
z
" transform="scale(0.015625)"/>
     </defs>
     <use xlink:href="#DejaVuSans-79"/>
     <use xlink:href="#DejaVuSans-41" x="59.179688"/>
    </g>
   </g>
   <g id="legend_3">
    <g id="patch_19">
     <path d="M 330.030938 188.94356 
L 407.72 188.94356 
Q 409.72 188.94356 409.72 186.94356 
L 409.72 158.58731 
Q 409.72 156.58731 407.72 156.58731 
L 330.030938 156.58731 
Q 328.030938 156.58731 328.030938 158.58731 
L 328.030938 186.94356 
Q 328.030938 188.94356 330.030938 188.94356 
z
" style="fill: #ffffff; opacity: 0.8; stroke: #cccccc; stroke-linejoin: miter"/>
    </g>
    <g id="line2d_39">
     <path d="M 332.030938 164.685748 
L 342.030938 164.685748 
L 352.030938 164.685748 
" style="fill: none; stroke: #1f77b4; stroke-width: 1.5; stroke-linecap: square"/>
    </g>
    <g id="text_18">
     <!-- yA0 (in) -->
     <g transform="translate(360.030938 168.185748)scale(0.1 -0.1)">
      <use xlink:href="#DejaVuSans-79"/>
      <use xlink:href="#DejaVuSans-41" x="59.179688"/>
      <use xlink:href="#DejaVuSans-30" x="127.587891"/>
      <use xlink:href="#DejaVuSans-20" x="191.210938"/>
      <use xlink:href="#DejaVuSans-28" x="222.998047"/>
      <use xlink:href="#DejaVuSans-69" x="262.011719"/>
      <use xlink:href="#DejaVuSans-6e" x="289.794922"/>
      <use xlink:href="#DejaVuSans-29" x="353.173828"/>
     </g>
    </g>
    <g id="line2d_40">
     <path d="M 332.030938 179.363873 
L 342.030938 179.363873 
L 352.030938 179.363873 
" style="fill: none; stroke: #ff7f0e; stroke-width: 1.5; stroke-linecap: square"/>
    </g>
    <g id="text_19">
     <!-- yAL (out) -->
     <g transform="translate(360.030938 182.863873)scale(0.1 -0.1)">
      <defs>
       <path id="DejaVuSans-4c" d="M 628 4666 
L 1259 4666 
L 1259 531 
L 3531 531 
L 3531 0 
L 628 0 
L 628 4666 
z
" transform="scale(0.015625)"/>
      </defs>
      <use xlink:href="#DejaVuSans-79"/>
      <use xlink:href="#DejaVuSans-41" x="59.179688"/>
      <use xlink:href="#DejaVuSans-4c" x="127.587891"/>
      <use xlink:href="#DejaVuSans-20" x="183.300781"/>
      <use xlink:href="#DejaVuSans-28" x="215.087891"/>
      <use xlink:href="#DejaVuSans-6f" x="254.101562"/>
      <use xlink:href="#DejaVuSans-75" x="315.283203"/>
      <use xlink:href="#DejaVuSans-74" x="378.662109"/>
      <use xlink:href="#DejaVuSans-29" x="417.871094"/>
     </g>
    </g>
   </g>
  </g>
  <g id="axes_4">
   <g id="patch_20">
    <path d="M 57.6 252.526345 
L 414.72 252.526345 
L 414.72 206.644966 
L 57.6 206.644966 
z
" style="fill: #ffffff"/>
   </g>
   <g id="matplotlib.axis_7">
    <g id="xtick_19">
     <g id="line2d_41">
      <g>
       <use xlink:href="#m8c834234b6" x="73.832727" y="252.526345" style="stroke: #000000; stroke-width: 0.8"/>
      </g>
     </g>
    </g>
    <g id="xtick_20">
     <g id="line2d_42">
      <g>
       <use xlink:href="#m8c834234b6" x="138.763636" y="252.526345" style="stroke: #000000; stroke-width: 0.8"/>
      </g>
     </g>
    </g>
    <g id="xtick_21">
     <g id="line2d_43">
      <g>
       <use xlink:href="#m8c834234b6" x="203.694545" y="252.526345" style="stroke: #000000; stroke-width: 0.8"/>
      </g>
     </g>
    </g>
    <g id="xtick_22">
     <g id="line2d_44">
      <g>
       <use xlink:href="#m8c834234b6" x="268.625455" y="252.526345" style="stroke: #000000; stroke-width: 0.8"/>
      </g>
     </g>
    </g>
    <g id="xtick_23">
     <g id="line2d_45">
      <g>
       <use xlink:href="#m8c834234b6" x="333.556364" y="252.526345" style="stroke: #000000; stroke-width: 0.8"/>
      </g>
     </g>
    </g>
    <g id="xtick_24">
     <g id="line2d_46">
      <g>
       <use xlink:href="#m8c834234b6" x="398.487273" y="252.526345" style="stroke: #000000; stroke-width: 0.8"/>
      </g>
     </g>
    </g>
   </g>
   <g id="matplotlib.axis_8">
    <g id="ytick_7">
     <g id="line2d_47">
      <g>
       <use xlink:href="#mca98da5e29" x="57.6" y="237.100719" style="stroke: #000000; stroke-width: 0.8"/>
      </g>
     </g>
     <g id="text_20">
      <!-- 0.85 -->
      <g transform="translate(28.334375 240.899937)scale(0.1 -0.1)">
       <defs>
        <path id="DejaVuSans-38" d="M 2034 2216 
Q 1584 2216 1326 1975 
Q 1069 1734 1069 1313 
Q 1069 891 1326 650 
Q 1584 409 2034 409 
Q 2484 409 2743 651 
Q 3003 894 3003 1313 
Q 3003 1734 2745 1975 
Q 2488 2216 2034 2216 
z
M 1403 2484 
Q 997 2584 770 2862 
Q 544 3141 544 3541 
Q 544 4100 942 4425 
Q 1341 4750 2034 4750 
Q 2731 4750 3128 4425 
Q 3525 4100 3525 3541 
Q 3525 3141 3298 2862 
Q 3072 2584 2669 2484 
Q 3125 2378 3379 2068 
Q 3634 1759 3634 1313 
Q 3634 634 3220 271 
Q 2806 -91 2034 -91 
Q 1263 -91 848 271 
Q 434 634 434 1313 
Q 434 1759 690 2068 
Q 947 2378 1403 2484 
z
M 1172 3481 
Q 1172 3119 1398 2916 
Q 1625 2713 2034 2713 
Q 2441 2713 2670 2916 
Q 2900 3119 2900 3481 
Q 2900 3844 2670 4047 
Q 2441 4250 2034 4250 
Q 1625 4250 1398 4047 
Q 1172 3844 1172 3481 
z
" transform="scale(0.015625)"/>
       </defs>
       <use xlink:href="#DejaVuSans-30"/>
       <use xlink:href="#DejaVuSans-2e" x="63.623047"/>
       <use xlink:href="#DejaVuSans-38" x="95.410156"/>
       <use xlink:href="#DejaVuSans-35" x="159.033203"/>
      </g>
     </g>
    </g>
    <g id="ytick_8">
     <g id="line2d_48">
      <g>
       <use xlink:href="#mca98da5e29" x="57.6" y="219.127662" style="stroke: #000000; stroke-width: 0.8"/>
      </g>
     </g>
     <g id="text_21">
      <!-- 0.90 -->
      <g transform="translate(28.334375 222.926881)scale(0.1 -0.1)">
       <defs>
        <path id="DejaVuSans-39" d="M 703 97 
L 703 672 
Q 941 559 1184 500 
Q 1428 441 1663 441 
Q 2288 441 2617 861 
Q 2947 1281 2994 2138 
Q 2813 1869 2534 1725 
Q 2256 1581 1919 1581 
Q 1219 1581 811 2004 
Q 403 2428 403 3163 
Q 403 3881 828 4315 
Q 1253 4750 1959 4750 
Q 2769 4750 3195 4129 
Q 3622 3509 3622 2328 
Q 3622 1225 3098 567 
Q 2575 -91 1691 -91 
Q 1453 -91 1209 -44 
Q 966 3 703 97 
z
M 1959 2075 
Q 2384 2075 2632 2365 
Q 2881 2656 2881 3163 
Q 2881 3666 2632 3958 
Q 2384 4250 1959 4250 
Q 1534 4250 1286 3958 
Q 1038 3666 1038 3163 
Q 1038 2656 1286 2365 
Q 1534 2075 1959 2075 
z
" transform="scale(0.015625)"/>
       </defs>
       <use xlink:href="#DejaVuSans-30"/>
       <use xlink:href="#DejaVuSans-2e" x="63.623047"/>
       <use xlink:href="#DejaVuSans-39" x="95.410156"/>
       <use xlink:href="#DejaVuSans-30" x="159.033203"/>
      </g>
     </g>
    </g>
    <g id="text_22">
     <!-- fraction -->
     <g transform="translate(22.254687 248.791905)rotate(-90)scale(0.1 -0.1)">
      <use xlink:href="#DejaVuSans-66"/>
      <use xlink:href="#DejaVuSans-72" x="35.205078"/>
      <use xlink:href="#DejaVuSans-61" x="76.318359"/>
      <use xlink:href="#DejaVuSans-63" x="137.597656"/>
      <use xlink:href="#DejaVuSans-74" x="192.578125"/>
      <use xlink:href="#DejaVuSans-69" x="231.787109"/>
      <use xlink:href="#DejaVuSans-6f" x="259.570312"/>
      <use xlink:href="#DejaVuSans-6e" x="320.751953"/>
     </g>
    </g>
   </g>
   <g id="line2d_49">
    <path d="M 73.832727 209.342198 
L 77.079273 219.545855 
L 80.325818 219.550492 
L 83.572364 219.579965 
L 86.818909 219.542586 
L 90.065455 219.545408 
L 93.312 219.550603 
L 96.558545 219.554119 
L 99.805091 219.63802 
L 103.051636 219.920744 
L 106.298182 219.73852 
L 109.544727 219.728718 
L 112.791273 219.736675 
L 116.037818 219.74132 
L 119.284364 219.757037 
L 122.530909 219.760836 
L 125.777455 219.134093 
L 129.024 219.12148 
L 132.270545 219.116457 
L 135.517091 219.115619 
L 138.763636 219.116529 
L 142.010182 219.118021 
L 145.256727 219.119634 
L 148.503273 219.121153 
L 151.749818 219.122493 
L 154.996364 219.123612 
L 158.242909 219.124516 
L 161.489455 219.125231 
L 164.736 219.125789 
L 167.982545 219.126206 
L 171.229091 219.126508 
L 174.475636 218.98698 
L 177.722182 218.730241 
L 180.968727 218.397416 
L 184.215273 218.016864 
L 187.461818 217.63279 
L 190.708364 217.289589 
L 193.954909 217.016757 
L 197.201455 216.805076 
L 200.448 216.645905 
L 203.694545 216.552077 
L 206.941091 216.481149 
L 210.187636 216.434289 
L 213.434182 216.403765 
L 216.680727 216.383947 
L 219.927273 216.371354 
L 223.173818 216.363387 
L 226.420364 216.35842 
L 229.666909 216.355551 
L 232.913455 216.35334 
L 236.16 216.352039 
L 239.406545 216.351145 
L 242.653091 216.350867 
L 245.899636 216.350603 
L 249.146182 216.350338 
L 252.392727 216.350116 
L 255.639273 216.350049 
L 258.885818 216.349982 
L 262.132364 216.349914 
L 265.378909 216.349858 
L 268.625455 216.349364 
L 271.872 215.1001 
L 275.118545 213.924267 
L 278.365091 212.995566 
L 281.611636 212.314041 
L 284.858182 211.831294 
L 288.104727 211.486123 
L 291.351273 211.248735 
L 294.597818 211.071125 
L 297.844364 210.936198 
L 301.090909 210.819898 
L 304.337455 210.72653 
L 307.584 210.644346 
L 310.830545 210.571699 
L 314.077091 210.502861 
L 317.323636 210.438408 
L 320.570182 210.376913 
L 323.816727 210.317222 
L 327.063273 210.258969 
L 330.309818 210.201884 
L 333.556364 210.146386 
L 336.802909 210.093059 
L 340.049455 210.04119 
L 343.296 209.990675 
L 346.542545 209.941565 
L 349.789091 209.893939 
L 353.035636 209.847736 
L 356.282182 209.802933 
L 359.528727 209.759403 
L 362.775273 209.717213 
L 366.021818 209.676286 
L 369.268364 209.636509 
L 372.514909 209.597954 
L 375.761455 209.560516 
L 379.008 209.52417 
L 382.254545 209.488953 
L 385.501091 209.454635 
L 388.747636 209.421315 
L 391.994182 209.389007 
L 395.240727 209.357744 
L 398.487273 209.327559 
" clip-path="url(#pe8615761bd)" style="fill: none; stroke: #1f77b4; stroke-width: 1.5; stroke-linecap: square"/>
   </g>
   <g id="line2d_50">
    <path d="M 73.832727 209.673239 
L 77.079273 249.051485 
L 80.325818 250.327408 
L 83.572364 250.440828 
L 86.818909 250.364242 
L 90.065455 250.233293 
L 93.312 250.080673 
L 96.558545 249.919306 
L 99.805091 249.760163 
L 103.051636 249.599385 
L 106.298182 249.442745 
L 109.544727 249.289857 
L 112.791273 249.141722 
L 116.037818 248.997382 
L 119.284364 248.855694 
L 122.530909 248.727743 
L 125.777455 231.922719 
L 129.024 228.728204 
L 132.270545 226.294492 
L 135.517091 224.446363 
L 138.763636 223.042035 
L 142.010182 221.975682 
L 145.256727 221.169319 
L 148.503273 220.561938 
L 151.749818 220.107879 
L 154.996364 219.76894 
L 158.242909 219.516147 
L 161.489455 219.327915 
L 164.736 219.187705 
L 167.982545 219.08334 
L 171.229091 219.00684 
L 174.475636 218.927004 
L 177.722182 218.649803 
L 180.968727 218.292562 
L 184.215273 217.884235 
L 187.461818 217.472028 
L 190.708364 217.103015 
L 193.954909 216.811288 
L 197.201455 216.588963 
L 200.448 216.426886 
L 203.694545 216.335091 
L 206.941091 216.268444 
L 210.187636 216.226525 
L 213.434182 216.200382 
L 216.680727 216.184037 
L 219.927273 216.174013 
L 223.173818 216.167734 
L 226.420364 216.164017 
L 229.666909 216.161967 
L 232.913455 216.160092 
L 236.16 216.159184 
L 239.406545 216.158503 
L 242.653091 216.158247 
L 245.899636 216.157999 
L 249.146182 216.15775 
L 252.392727 216.157534 
L 255.639273 216.157432 
L 258.885818 216.157329 
L 262.132364 216.157227 
L 265.378909 216.157134 
L 268.625455 216.156949 
L 271.872 215.170087 
L 275.118545 214.362008 
L 278.365091 213.762667 
L 281.611636 213.288136 
L 284.858182 212.889825 
L 288.104727 212.549645 
L 291.351273 212.23881 
L 294.597818 211.961896 
L 297.844364 211.712125 
L 301.090909 211.48951 
L 304.337455 211.284384 
L 307.584 211.096518 
L 310.830545 210.923459 
L 314.077091 210.76352 
L 317.323636 210.615159 
L 320.570182 210.477537 
L 323.816727 210.349359 
L 327.063273 210.230225 
L 330.309818 210.11831 
L 333.556364 210.013466 
L 336.802909 209.915426 
L 340.049455 209.822364 
L 343.296 209.733984 
L 346.542545 209.650079 
L 349.789091 209.570768 
L 353.035636 209.495344 
L 356.282182 209.423618 
L 359.528727 209.354798 
L 362.775273 209.289331 
L 366.021818 209.22692 
L 369.268364 209.167141 
L 372.514909 209.11027 
L 375.761455 209.055727 
L 379.008 209.003387 
L 382.254545 208.95345 
L 385.501091 208.905185 
L 388.747636 208.858911 
L 391.994182 208.814673 
L 395.240727 208.772035 
L 398.487273 208.730483 
" clip-path="url(#pe8615761bd)" style="fill: none; stroke: #ff7f0e; stroke-width: 1.5; stroke-linecap: square"/>
   </g>
   <g id="patch_21">
    <path d="M 57.6 252.526345 
L 57.6 206.644966 
" style="fill: none; stroke: #000000; stroke-width: 0.8; stroke-linejoin: miter; stroke-linecap: square"/>
   </g>
   <g id="patch_22">
    <path d="M 414.72 252.526345 
L 414.72 206.644966 
" style="fill: none; stroke: #000000; stroke-width: 0.8; stroke-linejoin: miter; stroke-linecap: square"/>
   </g>
   <g id="patch_23">
    <path d="M 57.6 252.526345 
L 414.72 252.526345 
" style="fill: none; stroke: #000000; stroke-width: 0.8; stroke-linejoin: miter; stroke-linecap: square"/>
   </g>
   <g id="patch_24">
    <path d="M 57.6 206.644966 
L 414.72 206.644966 
" style="fill: none; stroke: #000000; stroke-width: 0.8; stroke-linejoin: miter; stroke-linecap: square"/>
   </g>
   <g id="text_23">
    <!-- yB -->
    <g transform="translate(228.492188 200.644966)scale(0.12 -0.12)">
     <defs>
      <path id="DejaVuSans-42" d="M 1259 2228 
L 1259 519 
L 2272 519 
Q 2781 519 3026 730 
Q 3272 941 3272 1375 
Q 3272 1813 3026 2020 
Q 2781 2228 2272 2228 
L 1259 2228 
z
M 1259 4147 
L 1259 2741 
L 2194 2741 
Q 2656 2741 2882 2914 
Q 3109 3088 3109 3444 
Q 3109 3797 2882 3972 
Q 2656 4147 2194 4147 
L 1259 4147 
z
M 628 4666 
L 2241 4666 
Q 2963 4666 3353 4366 
Q 3744 4066 3744 3513 
Q 3744 3084 3544 2831 
Q 3344 2578 2956 2516 
Q 3422 2416 3680 2098 
Q 3938 1781 3938 1306 
Q 3938 681 3513 340 
Q 3088 0 2303 0 
L 628 0 
L 628 4666 
z
" transform="scale(0.015625)"/>
     </defs>
     <use xlink:href="#DejaVuSans-79"/>
     <use xlink:href="#DejaVuSans-42" x="59.179688"/>
    </g>
   </g>
   <g id="legend_4">
    <g id="patch_25">
     <path d="M 330.010625 244.001216 
L 407.72 244.001216 
Q 409.72 244.001216 409.72 242.001216 
L 409.72 213.644966 
Q 409.72 211.644966 407.72 211.644966 
L 330.010625 211.644966 
Q 328.010625 211.644966 328.010625 213.644966 
L 328.010625 242.001216 
Q 328.010625 244.001216 330.010625 244.001216 
z
" style="fill: #ffffff; opacity: 0.8; stroke: #cccccc; stroke-linejoin: miter"/>
    </g>
    <g id="line2d_51">
     <path d="M 332.010625 219.743403 
L 342.010625 219.743403 
L 352.010625 219.743403 
" style="fill: none; stroke: #1f77b4; stroke-width: 1.5; stroke-linecap: square"/>
    </g>
    <g id="text_24">
     <!-- yB0 (in) -->
     <g transform="translate(360.010625 223.243403)scale(0.1 -0.1)">
      <use xlink:href="#DejaVuSans-79"/>
      <use xlink:href="#DejaVuSans-42" x="59.179688"/>
      <use xlink:href="#DejaVuSans-30" x="127.783203"/>
      <use xlink:href="#DejaVuSans-20" x="191.40625"/>
      <use xlink:href="#DejaVuSans-28" x="223.193359"/>
      <use xlink:href="#DejaVuSans-69" x="262.207031"/>
      <use xlink:href="#DejaVuSans-6e" x="289.990234"/>
      <use xlink:href="#DejaVuSans-29" x="353.369141"/>
     </g>
    </g>
    <g id="line2d_52">
     <path d="M 332.010625 234.421528 
L 342.010625 234.421528 
L 352.010625 234.421528 
" style="fill: none; stroke: #ff7f0e; stroke-width: 1.5; stroke-linecap: square"/>
    </g>
    <g id="text_25">
     <!-- yBL (out) -->
     <g transform="translate(360.010625 237.921528)scale(0.1 -0.1)">
      <use xlink:href="#DejaVuSans-79"/>
      <use xlink:href="#DejaVuSans-42" x="59.179688"/>
      <use xlink:href="#DejaVuSans-4c" x="127.783203"/>
      <use xlink:href="#DejaVuSans-20" x="183.496094"/>
      <use xlink:href="#DejaVuSans-28" x="215.283203"/>
      <use xlink:href="#DejaVuSans-6f" x="254.296875"/>
      <use xlink:href="#DejaVuSans-75" x="315.478516"/>
      <use xlink:href="#DejaVuSans-74" x="378.857422"/>
      <use xlink:href="#DejaVuSans-29" x="418.066406"/>
     </g>
    </g>
   </g>
  </g>
  <g id="axes_5">
   <g id="patch_26">
    <path d="M 57.6 307.584 
L 414.72 307.584 
L 414.72 261.702621 
L 57.6 261.702621 
z
" style="fill: #ffffff"/>
   </g>
   <g id="matplotlib.axis_9">
    <g id="xtick_25">
     <g id="line2d_53">
      <g>
       <use xlink:href="#m8c834234b6" x="73.832727" y="307.584" style="stroke: #000000; stroke-width: 0.8"/>
      </g>
     </g>
     <g id="text_26">
      <!-- 0 -->
      <g transform="translate(70.651477 322.182437)scale(0.1 -0.1)">
       <use xlink:href="#DejaVuSans-30"/>
      </g>
     </g>
    </g>
    <g id="xtick_26">
     <g id="line2d_54">
      <g>
       <use xlink:href="#m8c834234b6" x="138.763636" y="307.584" style="stroke: #000000; stroke-width: 0.8"/>
      </g>
     </g>
     <g id="text_27">
      <!-- 20 -->
      <g transform="translate(132.401136 322.182437)scale(0.1 -0.1)">
       <defs>
        <path id="DejaVuSans-32" d="M 1228 531 
L 3431 531 
L 3431 0 
L 469 0 
L 469 531 
Q 828 903 1448 1529 
Q 2069 2156 2228 2338 
Q 2531 2678 2651 2914 
Q 2772 3150 2772 3378 
Q 2772 3750 2511 3984 
Q 2250 4219 1831 4219 
Q 1534 4219 1204 4116 
Q 875 4013 500 3803 
L 500 4441 
Q 881 4594 1212 4672 
Q 1544 4750 1819 4750 
Q 2544 4750 2975 4387 
Q 3406 4025 3406 3419 
Q 3406 3131 3298 2873 
Q 3191 2616 2906 2266 
Q 2828 2175 2409 1742 
Q 1991 1309 1228 531 
z
" transform="scale(0.015625)"/>
       </defs>
       <use xlink:href="#DejaVuSans-32"/>
       <use xlink:href="#DejaVuSans-30" x="63.623047"/>
      </g>
     </g>
    </g>
    <g id="xtick_27">
     <g id="line2d_55">
      <g>
       <use xlink:href="#m8c834234b6" x="203.694545" y="307.584" style="stroke: #000000; stroke-width: 0.8"/>
      </g>
     </g>
     <g id="text_28">
      <!-- 40 -->
      <g transform="translate(197.332045 322.182437)scale(0.1 -0.1)">
       <defs>
        <path id="DejaVuSans-34" d="M 2419 4116 
L 825 1625 
L 2419 1625 
L 2419 4116 
z
M 2253 4666 
L 3047 4666 
L 3047 1625 
L 3713 1625 
L 3713 1100 
L 3047 1100 
L 3047 0 
L 2419 0 
L 2419 1100 
L 313 1100 
L 313 1709 
L 2253 4666 
z
" transform="scale(0.015625)"/>
       </defs>
       <use xlink:href="#DejaVuSans-34"/>
       <use xlink:href="#DejaVuSans-30" x="63.623047"/>
      </g>
     </g>
    </g>
    <g id="xtick_28">
     <g id="line2d_56">
      <g>
       <use xlink:href="#m8c834234b6" x="268.625455" y="307.584" style="stroke: #000000; stroke-width: 0.8"/>
      </g>
     </g>
     <g id="text_29">
      <!-- 60 -->
      <g transform="translate(262.262955 322.182437)scale(0.1 -0.1)">
       <defs>
        <path id="DejaVuSans-36" d="M 2113 2584 
Q 1688 2584 1439 2293 
Q 1191 2003 1191 1497 
Q 1191 994 1439 701 
Q 1688 409 2113 409 
Q 2538 409 2786 701 
Q 3034 994 3034 1497 
Q 3034 2003 2786 2293 
Q 2538 2584 2113 2584 
z
M 3366 4563 
L 3366 3988 
Q 3128 4100 2886 4159 
Q 2644 4219 2406 4219 
Q 1781 4219 1451 3797 
Q 1122 3375 1075 2522 
Q 1259 2794 1537 2939 
Q 1816 3084 2150 3084 
Q 2853 3084 3261 2657 
Q 3669 2231 3669 1497 
Q 3669 778 3244 343 
Q 2819 -91 2113 -91 
Q 1303 -91 875 529 
Q 447 1150 447 2328 
Q 447 3434 972 4092 
Q 1497 4750 2381 4750 
Q 2619 4750 2861 4703 
Q 3103 4656 3366 4563 
z
" transform="scale(0.015625)"/>
       </defs>
       <use xlink:href="#DejaVuSans-36"/>
       <use xlink:href="#DejaVuSans-30" x="63.623047"/>
      </g>
     </g>
    </g>
    <g id="xtick_29">
     <g id="line2d_57">
      <g>
       <use xlink:href="#m8c834234b6" x="333.556364" y="307.584" style="stroke: #000000; stroke-width: 0.8"/>
      </g>
     </g>
     <g id="text_30">
      <!-- 80 -->
      <g transform="translate(327.193864 322.182437)scale(0.1 -0.1)">
       <use xlink:href="#DejaVuSans-38"/>
       <use xlink:href="#DejaVuSans-30" x="63.623047"/>
      </g>
     </g>
    </g>
    <g id="xtick_30">
     <g id="line2d_58">
      <g>
       <use xlink:href="#m8c834234b6" x="398.487273" y="307.584" style="stroke: #000000; stroke-width: 0.8"/>
      </g>
     </g>
     <g id="text_31">
      <!-- 100 -->
      <g transform="translate(388.943523 322.182437)scale(0.1 -0.1)">
       <use xlink:href="#DejaVuSans-31"/>
       <use xlink:href="#DejaVuSans-30" x="63.623047"/>
       <use xlink:href="#DejaVuSans-30" x="127.246094"/>
      </g>
     </g>
    </g>
    <g id="text_32">
     <!-- time (normalized) -->
     <g transform="translate(191.589687 335.860562)scale(0.1 -0.1)">
      <use xlink:href="#DejaVuSans-74"/>
      <use xlink:href="#DejaVuSans-69" x="39.208984"/>
      <use xlink:href="#DejaVuSans-6d" x="66.992188"/>
      <use xlink:href="#DejaVuSans-65" x="164.404297"/>
      <use xlink:href="#DejaVuSans-20" x="225.927734"/>
      <use xlink:href="#DejaVuSans-28" x="257.714844"/>
      <use xlink:href="#DejaVuSans-6e" x="296.728516"/>
      <use xlink:href="#DejaVuSans-6f" x="360.107422"/>
      <use xlink:href="#DejaVuSans-72" x="421.289062"/>
      <use xlink:href="#DejaVuSans-6d" x="460.652344"/>
      <use xlink:href="#DejaVuSans-61" x="558.064453"/>
      <use xlink:href="#DejaVuSans-6c" x="619.34375"/>
      <use xlink:href="#DejaVuSans-69" x="647.126953"/>
      <use xlink:href="#DejaVuSans-7a" x="674.910156"/>
      <use xlink:href="#DejaVuSans-65" x="727.400391"/>
      <use xlink:href="#DejaVuSans-64" x="788.923828"/>
      <use xlink:href="#DejaVuSans-29" x="852.400391"/>
     </g>
    </g>
   </g>
   <g id="matplotlib.axis_10">
    <g id="ytick_9">
     <g id="line2d_59">
      <g>
       <use xlink:href="#mca98da5e29" x="57.6" y="292.548985" style="stroke: #000000; stroke-width: 0.8"/>
      </g>
     </g>
     <g id="text_33">
      <!-- 0.050 -->
      <g transform="translate(21.971875 296.348204)scale(0.1 -0.1)">
       <use xlink:href="#DejaVuSans-30"/>
       <use xlink:href="#DejaVuSans-2e" x="63.623047"/>
       <use xlink:href="#DejaVuSans-30" x="95.410156"/>
       <use xlink:href="#DejaVuSans-35" x="159.033203"/>
       <use xlink:href="#DejaVuSans-30" x="222.65625"/>
      </g>
     </g>
    </g>
    <g id="ytick_10">
     <g id="line2d_60">
      <g>
       <use xlink:href="#mca98da5e29" x="57.6" y="274.581108" style="stroke: #000000; stroke-width: 0.8"/>
      </g>
     </g>
     <g id="text_34">
      <!-- 0.055 -->
      <g transform="translate(21.971875 278.380327)scale(0.1 -0.1)">
       <use xlink:href="#DejaVuSans-30"/>
       <use xlink:href="#DejaVuSans-2e" x="63.623047"/>
       <use xlink:href="#DejaVuSans-30" x="95.410156"/>
       <use xlink:href="#DejaVuSans-35" x="159.033203"/>
       <use xlink:href="#DejaVuSans-35" x="222.65625"/>
      </g>
     </g>
    </g>
    <g id="text_35">
     <!-- fraction -->
     <g transform="translate(15.892187 303.84956)rotate(-90)scale(0.1 -0.1)">
      <use xlink:href="#DejaVuSans-66"/>
      <use xlink:href="#DejaVuSans-72" x="35.205078"/>
      <use xlink:href="#DejaVuSans-61" x="76.318359"/>
      <use xlink:href="#DejaVuSans-63" x="137.597656"/>
      <use xlink:href="#DejaVuSans-74" x="192.578125"/>
      <use xlink:href="#DejaVuSans-69" x="231.787109"/>
      <use xlink:href="#DejaVuSans-6f" x="259.570312"/>
      <use xlink:href="#DejaVuSans-6e" x="320.751953"/>
     </g>
    </g>
   </g>
   <g id="line2d_61">
    <path d="M 73.832727 266.755398 
L 77.079273 294.041058 
L 80.325818 294.117488 
L 83.572364 294.218405 
L 86.818909 294.151401 
L 90.065455 294.182189 
L 93.312 294.184783 
L 96.558545 294.210836 
L 99.805091 294.39389 
L 103.051636 294.576472 
L 106.298182 294.410708 
L 109.544727 294.40919 
L 112.791273 294.415209 
L 116.037818 294.418469 
L 119.284364 294.433566 
L 122.530909 294.426262 
L 125.777455 293.187598 
L 129.024 293.023005 
L 132.270545 292.90146 
L 135.517091 292.812307 
L 138.763636 292.746243 
L 142.010182 292.696886 
L 145.256727 292.659964 
L 148.503273 292.632318 
L 151.749818 292.611695 
L 154.996364 292.596254 
L 158.242909 292.58465 
L 161.489455 292.575906 
L 164.736 292.56929 
L 167.982545 292.564239 
L 171.229091 292.560636 
L 174.475636 292.326025 
L 177.722182 291.944091 
L 180.968727 291.449731 
L 184.215273 290.874508 
L 187.461818 290.285156 
L 190.708364 289.732701 
L 193.954909 289.306102 
L 197.201455 288.989883 
L 200.448 288.842647 
L 203.694545 288.57588 
L 206.941091 288.461062 
L 210.187636 288.385473 
L 213.434182 288.336243 
L 216.680727 288.304273 
L 219.927273 288.283996 
L 223.173818 288.271151 
L 226.420364 288.263238 
L 229.666909 288.258706 
L 232.913455 288.255033 
L 236.16 288.252807 
L 239.406545 288.251613 
L 242.653091 288.2512 
L 245.899636 288.250808 
L 249.146182 288.250417 
L 252.392727 288.250095 
L 255.639273 288.250022 
L 258.885818 288.24995 
L 262.132364 288.249877 
L 265.378909 288.249822 
L 268.625455 288.24779 
L 271.872 285.972833 
L 275.118545 283.281873 
L 278.365091 280.488609 
L 281.611636 277.857245 
L 284.858182 275.585543 
L 288.104727 273.87343 
L 291.351273 272.439493 
L 294.597818 271.340118 
L 297.844364 270.511185 
L 301.090909 269.958968 
L 304.337455 269.494895 
L 307.584 269.15331 
L 310.830545 268.89618 
L 314.077091 268.688034 
L 317.323636 268.522197 
L 320.570182 268.386236 
L 323.816727 268.269731 
L 327.063273 268.167324 
L 330.309818 268.074957 
L 333.556364 267.990205 
L 336.802909 267.912486 
L 340.049455 267.83846 
L 343.296 267.768329 
L 346.542545 267.701215 
L 349.789091 267.637148 
L 353.035636 267.575488 
L 356.282182 267.516116 
L 359.528727 267.45866 
L 362.775273 267.403348 
L 366.021818 267.349799 
L 369.268364 267.297464 
L 372.514909 267.2467 
L 375.761455 267.197299 
L 379.008 267.149214 
L 382.254545 267.102517 
L 385.501091 267.056674 
L 388.747636 267.011916 
L 391.994182 266.968278 
L 395.240727 266.926248 
L 398.487273 266.886405 
" clip-path="url(#p5b41721570)" style="fill: none; stroke: #1f77b4; stroke-width: 1.5; stroke-linecap: square"/>
   </g>
   <g id="line2d_62">
    <path d="M 73.832727 263.788138 
L 77.079273 304.24603 
L 80.325818 305.308875 
L 83.572364 305.484479 
L 86.818909 305.498483 
L 90.065455 305.460783 
L 93.312 305.400915 
L 96.558545 305.330989 
L 99.805091 305.258941 
L 103.051636 305.184394 
L 106.298182 305.110884 
L 109.544727 305.038733 
L 112.791273 304.968659 
L 116.037818 304.900351 
L 119.284364 304.833284 
L 122.530909 304.770382 
L 125.777455 297.711106 
L 129.024 296.630173 
L 132.270545 295.902156 
L 135.517091 295.434779 
L 138.763636 295.154464 
L 142.010182 295.007381 
L 145.256727 294.95456 
L 148.503273 294.96611 
L 151.749818 295.02019 
L 154.996364 295.098873 
L 158.242909 295.188987 
L 161.489455 295.281105 
L 164.736 295.368365 
L 167.982545 295.446108 
L 171.229091 295.5101 
L 174.475636 295.219849 
L 177.722182 294.852808 
L 180.968727 294.371013 
L 184.215273 293.810633 
L 187.461818 293.22956 
L 190.708364 292.680014 
L 193.954909 292.25935 
L 197.201455 291.954712 
L 200.448 291.82335 
L 203.694545 291.57019 
L 206.941091 291.47146 
L 210.187636 291.409917 
L 213.434182 291.371696 
L 216.680727 291.347919 
L 219.927273 291.333467 
L 223.173818 291.324463 
L 226.420364 291.319331 
L 229.666909 291.316566 
L 232.913455 291.313875 
L 236.16 291.312685 
L 239.406545 291.312059 
L 242.653091 291.311879 
L 245.899636 291.31171 
L 249.146182 291.311542 
L 252.392727 291.311421 
L 255.639273 291.311465 
L 258.885818 291.31151 
L 262.132364 291.311554 
L 265.378909 291.311612 
L 268.625455 291.31118 
L 271.872 289.627486 
L 275.118545 288.137777 
L 278.365091 286.953703 
L 281.611636 285.967395 
L 284.858182 285.106947 
L 288.104727 284.331771 
L 291.351273 283.630027 
L 294.597818 282.983154 
L 297.844364 282.379528 
L 301.090909 281.819476 
L 304.337455 281.297412 
L 307.584 280.806028 
L 310.830545 280.343351 
L 314.077091 279.906172 
L 317.323636 279.491774 
L 320.570182 279.099234 
L 323.816727 278.725748 
L 327.063273 278.371404 
L 330.309818 278.030521 
L 333.556364 277.706919 
L 336.802909 277.4021 
L 340.049455 277.104988 
L 343.296 276.816251 
L 346.542545 276.536953 
L 349.789091 276.271119 
L 353.035636 276.013391 
L 356.282182 275.763451 
L 359.528727 275.521532 
L 362.775273 275.287744 
L 366.021818 275.061557 
L 369.268364 274.842202 
L 372.514909 274.630181 
L 375.761455 274.424031 
L 379.008 274.223441 
L 382.254545 274.028914 
L 385.501091 273.83973 
L 388.747636 273.656201 
L 391.994182 273.478373 
L 395.240727 273.304046 
L 398.487273 273.130623 
" clip-path="url(#p5b41721570)" style="fill: none; stroke: #ff7f0e; stroke-width: 1.5; stroke-linecap: square"/>
   </g>
   <g id="patch_27">
    <path d="M 57.6 307.584 
L 57.6 261.702621 
" style="fill: none; stroke: #000000; stroke-width: 0.8; stroke-linejoin: miter; stroke-linecap: square"/>
   </g>
   <g id="patch_28">
    <path d="M 414.72 307.584 
L 414.72 261.702621 
" style="fill: none; stroke: #000000; stroke-width: 0.8; stroke-linejoin: miter; stroke-linecap: square"/>
   </g>
   <g id="patch_29">
    <path d="M 57.6 307.584 
L 414.72 307.584 
" style="fill: none; stroke: #000000; stroke-width: 0.8; stroke-linejoin: miter; stroke-linecap: square"/>
   </g>
   <g id="patch_30">
    <path d="M 57.6 261.702621 
L 414.72 261.702621 
" style="fill: none; stroke: #000000; stroke-width: 0.8; stroke-linejoin: miter; stroke-linecap: square"/>
   </g>
   <g id="text_36">
    <!-- yC -->
    <g transform="translate(228.419062 255.702621)scale(0.12 -0.12)">
     <defs>
      <path id="DejaVuSans-43" d="M 4122 4306 
L 4122 3641 
Q 3803 3938 3442 4084 
Q 3081 4231 2675 4231 
Q 1875 4231 1450 3742 
Q 1025 3253 1025 2328 
Q 1025 1406 1450 917 
Q 1875 428 2675 428 
Q 3081 428 3442 575 
Q 3803 722 4122 1019 
L 4122 359 
Q 3791 134 3420 21 
Q 3050 -91 2638 -91 
Q 1578 -91 968 557 
Q 359 1206 359 2328 
Q 359 3453 968 4101 
Q 1578 4750 2638 4750 
Q 3056 4750 3426 4639 
Q 3797 4528 4122 4306 
z
" transform="scale(0.015625)"/>
     </defs>
     <use xlink:href="#DejaVuSans-79"/>
     <use xlink:href="#DejaVuSans-43" x="59.179688"/>
    </g>
   </g>
   <g id="legend_5">
    <g id="patch_31">
     <path d="M 329.88875 302.584 
L 407.72 302.584 
Q 409.72 302.584 409.72 300.584 
L 409.72 272.22775 
Q 409.72 270.22775 407.72 270.22775 
L 329.88875 270.22775 
Q 327.88875 270.22775 327.88875 272.22775 
L 327.88875 300.584 
Q 327.88875 302.584 329.88875 302.584 
z
" style="fill: #ffffff; opacity: 0.8; stroke: #cccccc; stroke-linejoin: miter"/>
    </g>
    <g id="line2d_63">
     <path d="M 331.88875 278.326187 
L 341.88875 278.326187 
L 351.88875 278.326187 
" style="fill: none; stroke: #1f77b4; stroke-width: 1.5; stroke-linecap: square"/>
    </g>
    <g id="text_37">
     <!-- yC0 (in) -->
     <g transform="translate(359.88875 281.826187)scale(0.1 -0.1)">
      <use xlink:href="#DejaVuSans-79"/>
      <use xlink:href="#DejaVuSans-43" x="59.179688"/>
      <use xlink:href="#DejaVuSans-30" x="129.003906"/>
      <use xlink:href="#DejaVuSans-20" x="192.626953"/>
      <use xlink:href="#DejaVuSans-28" x="224.414062"/>
      <use xlink:href="#DejaVuSans-69" x="263.427734"/>
      <use xlink:href="#DejaVuSans-6e" x="291.210938"/>
      <use xlink:href="#DejaVuSans-29" x="354.589844"/>
     </g>
    </g>
    <g id="line2d_64">
     <path d="M 331.88875 293.004312 
L 341.88875 293.004312 
L 351.88875 293.004312 
" style="fill: none; stroke: #ff7f0e; stroke-width: 1.5; stroke-linecap: square"/>
    </g>
    <g id="text_38">
     <!-- yCL (out) -->
     <g transform="translate(359.88875 296.504312)scale(0.1 -0.1)">
      <use xlink:href="#DejaVuSans-79"/>
      <use xlink:href="#DejaVuSans-43" x="59.179688"/>
      <use xlink:href="#DejaVuSans-4c" x="129.003906"/>
      <use xlink:href="#DejaVuSans-20" x="184.716797"/>
      <use xlink:href="#DejaVuSans-28" x="216.503906"/>
      <use xlink:href="#DejaVuSans-6f" x="255.517578"/>
      <use xlink:href="#DejaVuSans-75" x="316.699219"/>
      <use xlink:href="#DejaVuSans-74" x="380.078125"/>
      <use xlink:href="#DejaVuSans-29" x="419.287109"/>
     </g>
    </g>
   </g>
  </g>
 </g>
 <defs>
  <clipPath id="p9a6e9fb1f1">
   <rect x="57.6" y="41.472" width="357.12" height="45.881379"/>
  </clipPath>
  <clipPath id="p99b3da743f">
   <rect x="57.6" y="96.529655" width="357.12" height="45.881379"/>
  </clipPath>
  <clipPath id="p93d0a5c91c">
   <rect x="57.6" y="151.58731" width="357.12" height="45.881379"/>
  </clipPath>
  <clipPath id="pe8615761bd">
   <rect x="57.6" y="206.644966" width="357.12" height="45.881379"/>
  </clipPath>
  <clipPath id="p5b41721570">
   <rect x="57.6" y="261.702621" width="357.12" height="45.881379"/>
  </clipPath>
 </defs>
</svg>
