<?xml version="1.0" encoding="utf-8" standalone="no"?>
<!DOCTYPE svg PUBLIC "-//W3C//DTD SVG 1.1//EN"
  "http://www.w3.org/Graphics/SVG/1.1/DTD/svg11.dtd">
<svg xmlns:xlink="http://www.w3.org/1999/xlink" width="460.8pt" height="345.6pt" viewBox="0 0 460.8 345.6" xmlns="http://www.w3.org/2000/svg" version="1.1">
 <metadata>
  <rdf:RDF xmlns:dc="http://purl.org/dc/elements/1.1/" xmlns:cc="http://creativecommons.org/ns#" xmlns:rdf="http://www.w3.org/1999/02/22-rdf-syntax-ns#">
   <cc:Work>
    <dc:type rdf:resource="http://purl.org/dc/dcmitype/StillImage"/>
    <dc:date>2022-07-10T00:04:45.458397</dc:date>
    <dc:format>image/svg+xml</dc:format>
    <dc:creator>
     <cc:Agent>
      <dc:title>Matplotlib v3.5.2, https://matplotlib.org/</dc:title>
     </cc:Agent>
    </dc:creator>
   </cc:Work>
  </rdf:RDF>
 </metadata>
 <defs>
  <style type="text/css">*{stroke-linejoin: round; stroke-linecap: butt}</style>
 </defs>
 <g id="figure_1">
  <g id="patch_1">
   <path d="M 0 345.6 
L 460.8 345.6 
L 460.8 0 
L 0 0 
z
" style="fill: #ffffff"/>
  </g>
  <g id="axes_1">
   <g id="patch_2">
    <path d="M 57.6 87.353379 
L 414.72 87.353379 
L 414.72 41.472 
L 57.6 41.472 
z
" style="fill: #ffffff"/>
   </g>
   <g id="axes_2">
    <g id="patch_3">
     <path d="M 414.72 87.353379 
L 414.72 87.353379 
L 414.72 41.472 
L 414.72 41.472 
z
" style="fill: #ffffff"/>
    </g>
    <g id="matplotlib.axis_1"/>
    <g id="matplotlib.axis_2">
     <g id="ytick_1">
      <g id="line2d_1">
       <defs>
        <path id="m780bfc1105" d="M 0 0 
L 3.5 0 
" style="stroke: #000000; stroke-width: 0.8"/>
       </defs>
       <g>
        <use xlink:href="#m780bfc1105" x="414.72" y="75.717341" style="stroke: #000000; stroke-width: 0.8"/>
       </g>
      </g>
      <g id="text_1">
       <!-- −1 -->
       <g transform="translate(421.72 79.51656)scale(0.1 -0.1)">
        <defs>
         <path id="DejaVuSans-2212" d="M 678 2272 
L 4684 2272 
L 4684 1741 
L 678 1741 
L 678 2272 
z
" transform="scale(0.015625)"/>
         <path id="DejaVuSans-31" d="M 794 531 
L 1825 531 
L 1825 4091 
L 703 3866 
L 703 4441 
L 1819 4666 
L 2450 4666 
L 2450 531 
L 3481 531 
L 3481 0 
L 794 0 
L 794 531 
z
" transform="scale(0.015625)"/>
        </defs>
        <use xlink:href="#DejaVuSans-2212"/>
        <use xlink:href="#DejaVuSans-31" x="83.789062"/>
       </g>
      </g>
     </g>
     <g id="ytick_2">
      <g id="line2d_2">
       <g>
        <use xlink:href="#m780bfc1105" x="414.72" y="59.659418" style="stroke: #000000; stroke-width: 0.8"/>
       </g>
      </g>
      <g id="text_2">
       <!-- 0 -->
       <g transform="translate(421.72 63.458636)scale(0.1 -0.1)">
        <defs>
         <path id="DejaVuSans-30" d="M 2034 4250 
Q 1547 4250 1301 3770 
Q 1056 3291 1056 2328 
Q 1056 1369 1301 889 
Q 1547 409 2034 409 
Q 2525 409 2770 889 
Q 3016 1369 3016 2328 
Q 3016 3291 2770 3770 
Q 2525 4250 2034 4250 
z
M 2034 4750 
Q 2819 4750 3233 4129 
Q 3647 3509 3647 2328 
Q 3647 1150 3233 529 
Q 2819 -91 2034 -91 
Q 1250 -91 836 529 
Q 422 1150 422 2328 
Q 422 3509 836 4129 
Q 1250 4750 2034 4750 
z
" transform="scale(0.015625)"/>
        </defs>
        <use xlink:href="#DejaVuSans-30"/>
       </g>
      </g>
     </g>
     <g id="ytick_3">
      <g id="line2d_3">
       <g>
        <use xlink:href="#m780bfc1105" x="414.72" y="43.601494" style="stroke: #000000; stroke-width: 0.8"/>
       </g>
      </g>
      <g id="text_3">
       <!-- 1 -->
       <g transform="translate(421.72 47.400713)scale(0.1 -0.1)">
        <use xlink:href="#DejaVuSans-31"/>
       </g>
      </g>
     </g>
     <g id="text_4">
      <!-- vel [m/s] -->
      <g transform="translate(448.060625 86.48769)rotate(-90)scale(0.1 -0.1)">
       <defs>
        <path id="DejaVuSans-76" d="M 191 3500 
L 800 3500 
L 1894 563 
L 2988 3500 
L 3597 3500 
L 2284 0 
L 1503 0 
L 191 3500 
z
" transform="scale(0.015625)"/>
        <path id="DejaVuSans-65" d="M 3597 1894 
L 3597 1613 
L 953 1613 
Q 991 1019 1311 708 
Q 1631 397 2203 397 
Q 2534 397 2845 478 
Q 3156 559 3463 722 
L 3463 178 
Q 3153 47 2828 -22 
Q 2503 -91 2169 -91 
Q 1331 -91 842 396 
Q 353 884 353 1716 
Q 353 2575 817 3079 
Q 1281 3584 2069 3584 
Q 2775 3584 3186 3129 
Q 3597 2675 3597 1894 
z
M 3022 2063 
Q 3016 2534 2758 2815 
Q 2500 3097 2075 3097 
Q 1594 3097 1305 2825 
Q 1016 2553 972 2059 
L 3022 2063 
z
" transform="scale(0.015625)"/>
        <path id="DejaVuSans-6c" d="M 603 4863 
L 1178 4863 
L 1178 0 
L 603 0 
L 603 4863 
z
" transform="scale(0.015625)"/>
        <path id="DejaVuSans-20" transform="scale(0.015625)"/>
        <path id="DejaVuSans-5b" d="M 550 4863 
L 1875 4863 
L 1875 4416 
L 1125 4416 
L 1125 -397 
L 1875 -397 
L 1875 -844 
L 550 -844 
L 550 4863 
z
" transform="scale(0.015625)"/>
        <path id="DejaVuSans-6d" d="M 3328 2828 
Q 3544 3216 3844 3400 
Q 4144 3584 4550 3584 
Q 5097 3584 5394 3201 
Q 5691 2819 5691 2113 
L 5691 0 
L 5113 0 
L 5113 2094 
Q 5113 2597 4934 2840 
Q 4756 3084 4391 3084 
Q 3944 3084 3684 2787 
Q 3425 2491 3425 1978 
L 3425 0 
L 2847 0 
L 2847 2094 
Q 2847 2600 2669 2842 
Q 2491 3084 2119 3084 
Q 1678 3084 1418 2786 
Q 1159 2488 1159 1978 
L 1159 0 
L 581 0 
L 581 3500 
L 1159 3500 
L 1159 2956 
Q 1356 3278 1631 3431 
Q 1906 3584 2284 3584 
Q 2666 3584 2933 3390 
Q 3200 3197 3328 2828 
z
" transform="scale(0.015625)"/>
        <path id="DejaVuSans-2f" d="M 1625 4666 
L 2156 4666 
L 531 -594 
L 0 -594 
L 1625 4666 
z
" transform="scale(0.015625)"/>
        <path id="DejaVuSans-73" d="M 2834 3397 
L 2834 2853 
Q 2591 2978 2328 3040 
Q 2066 3103 1784 3103 
Q 1356 3103 1142 2972 
Q 928 2841 928 2578 
Q 928 2378 1081 2264 
Q 1234 2150 1697 2047 
L 1894 2003 
Q 2506 1872 2764 1633 
Q 3022 1394 3022 966 
Q 3022 478 2636 193 
Q 2250 -91 1575 -91 
Q 1294 -91 989 -36 
Q 684 19 347 128 
L 347 722 
Q 666 556 975 473 
Q 1284 391 1588 391 
Q 1994 391 2212 530 
Q 2431 669 2431 922 
Q 2431 1156 2273 1281 
Q 2116 1406 1581 1522 
L 1381 1569 
Q 847 1681 609 1914 
Q 372 2147 372 2553 
Q 372 3047 722 3315 
Q 1072 3584 1716 3584 
Q 2034 3584 2315 3537 
Q 2597 3491 2834 3397 
z
" transform="scale(0.015625)"/>
        <path id="DejaVuSans-5d" d="M 1947 4863 
L 1947 -844 
L 622 -844 
L 622 -397 
L 1369 -397 
L 1369 4416 
L 622 4416 
L 622 4863 
L 1947 4863 
z
" transform="scale(0.015625)"/>
       </defs>
       <use xlink:href="#DejaVuSans-76"/>
       <use xlink:href="#DejaVuSans-65" x="59.179688"/>
       <use xlink:href="#DejaVuSans-6c" x="120.703125"/>
       <use xlink:href="#DejaVuSans-20" x="148.486328"/>
       <use xlink:href="#DejaVuSans-5b" x="180.273438"/>
       <use xlink:href="#DejaVuSans-6d" x="219.287109"/>
       <use xlink:href="#DejaVuSans-2f" x="316.699219"/>
       <use xlink:href="#DejaVuSans-73" x="350.390625"/>
       <use xlink:href="#DejaVuSans-5d" x="402.490234"/>
      </g>
     </g>
    </g>
    <g id="patch_4">
     <path d="M 414.72 87.353379 
L 414.72 41.472 
" style="fill: none; stroke: #000000; stroke-width: 0.8; stroke-linejoin: miter; stroke-linecap: square"/>
    </g>
   </g>
   <g id="matplotlib.axis_3">
    <g id="xtick_1">
     <g id="line2d_4">
      <defs>
       <path id="m3690283b8d" d="M 0 0 
L 0 3.5 
" style="stroke: #000000; stroke-width: 0.8"/>
      </defs>
      <g>
       <use xlink:href="#m3690283b8d" x="73.832727" y="87.353379" style="stroke: #000000; stroke-width: 0.8"/>
      </g>
     </g>
    </g>
    <g id="xtick_2">
     <g id="line2d_5">
      <g>
       <use xlink:href="#m3690283b8d" x="116.550431" y="87.353379" style="stroke: #000000; stroke-width: 0.8"/>
      </g>
     </g>
    </g>
    <g id="xtick_3">
     <g id="line2d_6">
      <g>
       <use xlink:href="#m3690283b8d" x="159.268134" y="87.353379" style="stroke: #000000; stroke-width: 0.8"/>
      </g>
     </g>
    </g>
    <g id="xtick_4">
     <g id="line2d_7">
      <g>
       <use xlink:href="#m3690283b8d" x="201.985837" y="87.353379" style="stroke: #000000; stroke-width: 0.8"/>
      </g>
     </g>
    </g>
    <g id="xtick_5">
     <g id="line2d_8">
      <g>
       <use xlink:href="#m3690283b8d" x="244.703541" y="87.353379" style="stroke: #000000; stroke-width: 0.8"/>
      </g>
     </g>
    </g>
    <g id="xtick_6">
     <g id="line2d_9">
      <g>
       <use xlink:href="#m3690283b8d" x="287.421244" y="87.353379" style="stroke: #000000; stroke-width: 0.8"/>
      </g>
     </g>
    </g>
    <g id="xtick_7">
     <g id="line2d_10">
      <g>
       <use xlink:href="#m3690283b8d" x="330.138947" y="87.353379" style="stroke: #000000; stroke-width: 0.8"/>
      </g>
     </g>
    </g>
    <g id="xtick_8">
     <g id="line2d_11">
      <g>
       <use xlink:href="#m3690283b8d" x="372.856651" y="87.353379" style="stroke: #000000; stroke-width: 0.8"/>
      </g>
     </g>
    </g>
   </g>
   <g id="matplotlib.axis_4">
    <g id="ytick_4">
     <g id="line2d_12">
      <defs>
       <path id="m57f09ea672" d="M 0 0 
L -3.5 0 
" style="stroke: #000000; stroke-width: 0.8"/>
      </defs>
      <g>
       <use xlink:href="#m57f09ea672" x="57.6" y="75.717341" style="stroke: #000000; stroke-width: 0.8"/>
      </g>
     </g>
     <g id="text_5">
      <!-- −1 -->
      <g transform="translate(35.857813 79.51656)scale(0.1 -0.1)">
       <use xlink:href="#DejaVuSans-2212"/>
       <use xlink:href="#DejaVuSans-31" x="83.789062"/>
      </g>
     </g>
    </g>
    <g id="ytick_5">
     <g id="line2d_13">
      <g>
       <use xlink:href="#m57f09ea672" x="57.6" y="59.659418" style="stroke: #000000; stroke-width: 0.8"/>
      </g>
     </g>
     <g id="text_6">
      <!-- 0 -->
      <g transform="translate(44.2375 63.458636)scale(0.1 -0.1)">
       <use xlink:href="#DejaVuSans-30"/>
      </g>
     </g>
    </g>
    <g id="ytick_6">
     <g id="line2d_14">
      <g>
       <use xlink:href="#m57f09ea672" x="57.6" y="43.601494" style="stroke: #000000; stroke-width: 0.8"/>
      </g>
     </g>
     <g id="text_7">
      <!-- 1 -->
      <g transform="translate(44.2375 47.400713)scale(0.1 -0.1)">
       <use xlink:href="#DejaVuSans-31"/>
      </g>
     </g>
    </g>
    <g id="text_8">
     <!-- vel [normalized] -->
     <g transform="translate(29.778125 105.111908)rotate(-90)scale(0.1 -0.1)">
      <defs>
       <path id="DejaVuSans-6e" d="M 3513 2113 
L 3513 0 
L 2938 0 
L 2938 2094 
Q 2938 2591 2744 2837 
Q 2550 3084 2163 3084 
Q 1697 3084 1428 2787 
Q 1159 2491 1159 1978 
L 1159 0 
L 581 0 
L 581 3500 
L 1159 3500 
L 1159 2956 
Q 1366 3272 1645 3428 
Q 1925 3584 2291 3584 
Q 2894 3584 3203 3211 
Q 3513 2838 3513 2113 
z
" transform="scale(0.015625)"/>
       <path id="DejaVuSans-6f" d="M 1959 3097 
Q 1497 3097 1228 2736 
Q 959 2375 959 1747 
Q 959 1119 1226 758 
Q 1494 397 1959 397 
Q 2419 397 2687 759 
Q 2956 1122 2956 1747 
Q 2956 2369 2687 2733 
Q 2419 3097 1959 3097 
z
M 1959 3584 
Q 2709 3584 3137 3096 
Q 3566 2609 3566 1747 
Q 3566 888 3137 398 
Q 2709 -91 1959 -91 
Q 1206 -91 779 398 
Q 353 888 353 1747 
Q 353 2609 779 3096 
Q 1206 3584 1959 3584 
z
" transform="scale(0.015625)"/>
       <path id="DejaVuSans-72" d="M 2631 2963 
Q 2534 3019 2420 3045 
Q 2306 3072 2169 3072 
Q 1681 3072 1420 2755 
Q 1159 2438 1159 1844 
L 1159 0 
L 581 0 
L 581 3500 
L 1159 3500 
L 1159 2956 
Q 1341 3275 1631 3429 
Q 1922 3584 2338 3584 
Q 2397 3584 2469 3576 
Q 2541 3569 2628 3553 
L 2631 2963 
z
" transform="scale(0.015625)"/>
       <path id="DejaVuSans-61" d="M 2194 1759 
Q 1497 1759 1228 1600 
Q 959 1441 959 1056 
Q 959 750 1161 570 
Q 1363 391 1709 391 
Q 2188 391 2477 730 
Q 2766 1069 2766 1631 
L 2766 1759 
L 2194 1759 
z
M 3341 1997 
L 3341 0 
L 2766 0 
L 2766 531 
Q 2569 213 2275 61 
Q 1981 -91 1556 -91 
Q 1019 -91 701 211 
Q 384 513 384 1019 
Q 384 1609 779 1909 
Q 1175 2209 1959 2209 
L 2766 2209 
L 2766 2266 
Q 2766 2663 2505 2880 
Q 2244 3097 1772 3097 
Q 1472 3097 1187 3025 
Q 903 2953 641 2809 
L 641 3341 
Q 956 3463 1253 3523 
Q 1550 3584 1831 3584 
Q 2591 3584 2966 3190 
Q 3341 2797 3341 1997 
z
" transform="scale(0.015625)"/>
       <path id="DejaVuSans-69" d="M 603 3500 
L 1178 3500 
L 1178 0 
L 603 0 
L 603 3500 
z
M 603 4863 
L 1178 4863 
L 1178 4134 
L 603 4134 
L 603 4863 
z
" transform="scale(0.015625)"/>
       <path id="DejaVuSans-7a" d="M 353 3500 
L 3084 3500 
L 3084 2975 
L 922 459 
L 3084 459 
L 3084 0 
L 275 0 
L 275 525 
L 2438 3041 
L 353 3041 
L 353 3500 
z
" transform="scale(0.015625)"/>
       <path id="DejaVuSans-64" d="M 2906 2969 
L 2906 4863 
L 3481 4863 
L 3481 0 
L 2906 0 
L 2906 525 
Q 2725 213 2448 61 
Q 2172 -91 1784 -91 
Q 1150 -91 751 415 
Q 353 922 353 1747 
Q 353 2572 751 3078 
Q 1150 3584 1784 3584 
Q 2172 3584 2448 3432 
Q 2725 3281 2906 2969 
z
M 947 1747 
Q 947 1113 1208 752 
Q 1469 391 1925 391 
Q 2381 391 2643 752 
Q 2906 1113 2906 1747 
Q 2906 2381 2643 2742 
Q 2381 3103 1925 3103 
Q 1469 3103 1208 2742 
Q 947 2381 947 1747 
z
" transform="scale(0.015625)"/>
      </defs>
      <use xlink:href="#DejaVuSans-76"/>
      <use xlink:href="#DejaVuSans-65" x="59.179688"/>
      <use xlink:href="#DejaVuSans-6c" x="120.703125"/>
      <use xlink:href="#DejaVuSans-20" x="148.486328"/>
      <use xlink:href="#DejaVuSans-5b" x="180.273438"/>
      <use xlink:href="#DejaVuSans-6e" x="219.287109"/>
      <use xlink:href="#DejaVuSans-6f" x="282.666016"/>
      <use xlink:href="#DejaVuSans-72" x="343.847656"/>
      <use xlink:href="#DejaVuSans-6d" x="383.210938"/>
      <use xlink:href="#DejaVuSans-61" x="480.623047"/>
      <use xlink:href="#DejaVuSans-6c" x="541.902344"/>
      <use xlink:href="#DejaVuSans-69" x="569.685547"/>
      <use xlink:href="#DejaVuSans-7a" x="597.46875"/>
      <use xlink:href="#DejaVuSans-65" x="649.958984"/>
      <use xlink:href="#DejaVuSans-64" x="711.482422"/>
      <use xlink:href="#DejaVuSans-5d" x="774.958984"/>
     </g>
    </g>
   </g>
   <g id="line2d_15">
    <path d="M 73.832727 59.672503 
L 90.919809 59.672414 
L 108.00689 59.672245 
L 125.093971 59.671997 
L 142.181053 59.67167 
L 159.268134 59.671266 
L 176.355215 59.670785 
L 193.442297 59.670231 
L 210.529378 59.669605 
L 227.616459 59.668911 
L 244.703541 59.668153 
L 261.790622 59.667335 
L 278.877703 59.666462 
L 295.964785 59.66554 
L 313.051866 59.664573 
L 330.138947 59.663568 
L 347.226029 59.662532 
L 364.31311 59.66147 
L 381.400191 59.660394 
L 398.487273 59.660394 
" clip-path="url(#p822d67f518)" style="fill: none; stroke: #1f77b4; stroke-width: 1.5; stroke-linecap: square"/>
   </g>
   <g id="line2d_16">
    <path d="M 73.832727 59.496942 
L 90.919809 59.505454 
L 108.00689 59.513953 
L 125.093971 59.522458 
L 142.181053 59.530975 
L 159.268134 59.539501 
L 176.355215 59.548032 
L 193.442297 59.556569 
L 210.529378 59.56511 
L 227.616459 59.573655 
L 244.703541 59.582204 
L 261.790622 59.590757 
L 278.877703 59.599314 
L 295.964785 59.607877 
L 313.051866 59.616444 
L 330.138947 59.625017 
L 347.226029 59.633597 
L 364.31311 59.642183 
L 381.400191 59.65078 
L 398.487273 59.65078 
" clip-path="url(#p822d67f518)" style="fill: none; stroke: #ff7f0e; stroke-width: 1.5; stroke-linecap: square"/>
   </g>
   <g id="line2d_17">
    <path d="M 73.832727 43.60366 
L 90.919809 43.602633 
L 108.00689 43.600331 
L 125.093971 43.597387 
L 142.181053 43.594264 
L 159.268134 43.591192 
L 176.355215 43.588245 
L 193.442297 43.585431 
L 210.529378 43.582731 
L 227.616459 43.580133 
L 244.703541 43.577634 
L 261.790622 43.575245 
L 278.877703 43.572995 
L 295.964785 43.57092 
L 313.051866 43.569067 
L 330.138947 43.567487 
L 347.226029 43.56623 
L 364.31311 43.565342 
L 381.400191 43.56485 
L 398.487273 43.56485 
" clip-path="url(#p822d67f518)" style="fill: none; stroke: #2ca02c; stroke-width: 1.5; stroke-linecap: square"/>
   </g>
   <g id="line2d_18">
    <path d="M 73.832727 43.600402 
L 90.919809 43.598008 
L 108.00689 43.595704 
L 125.093971 43.593395 
L 142.181053 43.591025 
L 159.268134 43.588578 
L 176.355215 43.586056 
L 193.442297 43.583475 
L 210.529378 43.580855 
L 227.616459 43.578218 
L 244.703541 43.575584 
L 261.790622 43.572974 
L 278.877703 43.570409 
L 295.964785 43.567913 
L 313.051866 43.565511 
L 330.138947 43.563235 
L 347.226029 43.561119 
L 364.31311 43.5592 
L 381.400191 43.557517 
L 398.487273 43.557517 
" clip-path="url(#p822d67f518)" style="fill: none; stroke: #d62728; stroke-width: 1.5; stroke-linecap: square"/>
   </g>
   <g id="line2d_19">
    <path d="M 73.832727 59.353141 
L 90.919809 59.046874 
L 108.00689 58.740612 
L 125.093971 58.43435 
L 142.181053 58.128082 
L 159.268134 57.821801 
L 176.355215 57.5155 
L 193.442297 57.209173 
L 210.529378 56.902813 
L 227.616459 56.596416 
L 244.703541 56.289978 
L 261.790622 55.983497 
L 278.877703 55.67697 
L 295.964785 55.370397 
L 313.051866 55.06378 
L 330.138947 54.757121 
L 347.226029 54.450426 
L 364.31311 54.143702 
L 381.400191 53.836959 
L 398.487273 53.836959 
" clip-path="url(#p822d67f518)" style="fill: none; stroke: #9467bd; stroke-width: 1.5; stroke-linecap: square"/>
   </g>
   <g id="line2d_20">
    <path d="M 73.832727 59.61152 
L 90.919809 59.563614 
L 108.00689 59.515696 
L 125.093971 59.467766 
L 142.181053 59.419824 
L 159.268134 59.371871 
L 176.355215 59.323909 
L 193.442297 59.275938 
L 210.529378 59.227962 
L 227.616459 59.179983 
L 244.703541 59.132001 
L 261.790622 59.08402 
L 278.877703 59.036039 
L 295.964785 58.988061 
L 313.051866 58.940086 
L 330.138947 58.892114 
L 347.226029 58.844145 
L 364.31311 58.796176 
L 381.400191 58.748208 
L 398.487273 58.748208 
" clip-path="url(#p822d67f518)" style="fill: none; stroke: #8c564b; stroke-width: 1.5; stroke-linecap: square"/>
   </g>
   <g id="line2d_21">
    <path d="M 73.832727 59.657289 
L 90.919809 59.655161 
L 108.00689 59.653033 
L 125.093971 59.650904 
L 142.181053 59.648772 
L 159.268134 59.646639 
L 176.355215 59.644502 
L 193.442297 59.642363 
L 210.529378 59.64022 
L 227.616459 59.638074 
L 244.703541 59.635923 
L 261.790622 59.633768 
L 278.877703 59.631609 
L 295.964785 59.629444 
L 313.051866 59.627274 
L 330.138947 59.625097 
L 347.226029 59.622914 
L 364.31311 59.620724 
L 381.400191 59.618526 
L 398.487273 59.618526 
" clip-path="url(#p822d67f518)" style="fill: none; stroke: #e377c2; stroke-width: 1.5; stroke-linecap: square"/>
   </g>
   <g id="line2d_22">
    <path d="M 73.832727 59.65939 
L 90.919809 59.659364 
L 108.00689 59.659339 
L 125.093971 59.659314 
L 142.181053 59.65929 
L 159.268134 59.659266 
L 176.355215 59.659241 
L 193.442297 59.659217 
L 210.529378 59.659193 
L 227.616459 59.659169 
L 244.703541 59.659145 
L 261.790622 59.659121 
L 278.877703 59.659097 
L 295.964785 59.659073 
L 313.051866 59.659048 
L 330.138947 59.659024 
L 347.226029 59.658999 
L 364.31311 59.658974 
L 381.400191 59.65895 
L 398.487273 59.65895 
" clip-path="url(#p822d67f518)" style="fill: none; stroke: #7f7f7f; stroke-width: 1.5; stroke-linecap: square"/>
   </g>
   <g id="line2d_23">
    <path d="M 73.832727 85.267862 
L 90.919809 83.507759 
L 108.00689 81.830667 
L 125.093971 80.226713 
L 142.181053 78.687332 
L 159.268134 77.205028 
L 176.355215 75.77319 
L 193.442297 74.385931 
L 210.529378 73.037975 
L 227.616459 71.724546 
L 244.703541 70.441286 
L 261.790622 69.184185 
L 278.877703 67.949518 
L 295.964785 66.733789 
L 313.051866 65.533687 
L 330.138947 64.34604 
L 347.226029 63.167775 
L 364.31311 61.995885 
L 381.400191 60.827399 
L 398.487273 60.827399 
" clip-path="url(#p822d67f518)" style="fill: none; stroke: #bcbd22; stroke-width: 1.5; stroke-linecap: square"/>
   </g>
   <g id="line2d_24">
    <path d="M 73.832727 70.657466 
L 90.919809 70.097823 
L 108.00689 69.5294 
L 125.093971 68.954803 
L 142.181053 68.37604 
L 159.268134 67.794643 
L 176.355215 67.21177 
L 193.442297 66.628277 
L 210.529378 66.044775 
L 227.616459 65.461681 
L 244.703541 64.879251 
L 261.790622 64.297611 
L 278.877703 63.716779 
L 295.964785 63.136683 
L 313.051866 62.557175 
L 330.138947 61.978045 
L 347.226029 61.399027 
L 364.31311 60.819809 
L 381.400191 60.240046 
L 398.487273 60.240046 
" clip-path="url(#p822d67f518)" style="fill: none; stroke: #17becf; stroke-width: 1.5; stroke-linecap: square"/>
   </g>
   <g id="line2d_25">
    <path d="M 73.832727 61.162821 
L 90.919809 61.134752 
L 108.00689 61.098372 
L 125.093971 61.054151 
L 142.181053 61.002559 
L 159.268134 60.944066 
L 176.355215 60.879143 
L 193.442297 60.80826 
L 210.529378 60.731885 
L 227.616459 60.650483 
L 244.703541 60.564517 
L 261.790622 60.474444 
L 278.877703 60.380718 
L 295.964785 60.283788 
L 313.051866 60.184094 
L 330.138947 60.082077 
L 347.226029 59.978168 
L 364.31311 59.872798 
L 381.400191 59.766393 
L 398.487273 59.766393 
" clip-path="url(#p822d67f518)" style="fill: none; stroke: #1f77b4; stroke-width: 1.5; stroke-linecap: square"/>
   </g>
   <g id="line2d_26">
    <path d="M 73.832727 59.883202 
L 90.919809 59.880193 
L 108.00689 59.875873 
L 125.093971 59.870288 
L 142.181053 59.863485 
L 159.268134 59.855516 
L 176.355215 59.846439 
L 193.442297 59.836313 
L 210.529378 59.825204 
L 227.616459 59.81318 
L 244.703541 59.800311 
L 261.790622 59.786671 
L 278.877703 59.772338 
L 295.964785 59.757389 
L 313.051866 59.741906 
L 330.138947 59.72597 
L 347.226029 59.709664 
L 364.31311 59.693073 
L 381.400191 59.676284 
L 398.487273 59.676284 
" clip-path="url(#p822d67f518)" style="fill: none; stroke: #ff7f0e; stroke-width: 1.5; stroke-linecap: square"/>
   </g>
   <g id="line2d_27">
    <path d="M 73.832727 59.699788 
L 90.919809 59.699381 
L 108.00689 59.698726 
L 125.093971 59.697828 
L 142.181053 59.696696 
L 159.268134 59.695335 
L 176.355215 59.693757 
L 193.442297 59.691972 
L 210.529378 59.68999 
L 227.616459 59.687825 
L 244.703541 59.685491 
L 261.790622 59.683001 
L 278.877703 59.68037 
L 295.964785 59.677614 
L 313.051866 59.674749 
L 330.138947 59.671792 
L 347.226029 59.668759 
L 364.31311 59.665667 
L 381.400191 59.662536 
L 398.487273 59.662536 
" clip-path="url(#p822d67f518)" style="fill: none; stroke: #2ca02c; stroke-width: 1.5; stroke-linecap: square"/>
   </g>
   <g id="patch_5">
    <path d="M 57.6 87.353379 
L 57.6 41.472 
" style="fill: none; stroke: #000000; stroke-width: 0.8; stroke-linejoin: miter; stroke-linecap: square"/>
   </g>
   <g id="patch_6">
    <path d="M 414.72 87.353379 
L 414.72 41.472 
" style="fill: none; stroke: #000000; stroke-width: 0.8; stroke-linejoin: miter; stroke-linecap: square"/>
   </g>
   <g id="patch_7">
    <path d="M 57.6 87.353379 
L 414.72 87.353379 
" style="fill: none; stroke: #000000; stroke-width: 0.8; stroke-linejoin: miter; stroke-linecap: square"/>
   </g>
   <g id="patch_8">
    <path d="M 57.6 41.472 
L 414.72 41.472 
" style="fill: none; stroke: #000000; stroke-width: 0.8; stroke-linejoin: miter; stroke-linecap: square"/>
   </g>
   <g id="text_9">
    <!-- velocity - Container 1  -->
    <g transform="translate(169.779375 38.472)scale(0.12 -0.12)">
     <defs>
      <path id="DejaVuSans-63" d="M 3122 3366 
L 3122 2828 
Q 2878 2963 2633 3030 
Q 2388 3097 2138 3097 
Q 1578 3097 1268 2742 
Q 959 2388 959 1747 
Q 959 1106 1268 751 
Q 1578 397 2138 397 
Q 2388 397 2633 464 
Q 2878 531 3122 666 
L 3122 134 
Q 2881 22 2623 -34 
Q 2366 -91 2075 -91 
Q 1284 -91 818 406 
Q 353 903 353 1747 
Q 353 2603 823 3093 
Q 1294 3584 2113 3584 
Q 2378 3584 2631 3529 
Q 2884 3475 3122 3366 
z
" transform="scale(0.015625)"/>
      <path id="DejaVuSans-74" d="M 1172 4494 
L 1172 3500 
L 2356 3500 
L 2356 3053 
L 1172 3053 
L 1172 1153 
Q 1172 725 1289 603 
Q 1406 481 1766 481 
L 2356 481 
L 2356 0 
L 1766 0 
Q 1100 0 847 248 
Q 594 497 594 1153 
L 594 3053 
L 172 3053 
L 172 3500 
L 594 3500 
L 594 4494 
L 1172 4494 
z
" transform="scale(0.015625)"/>
      <path id="DejaVuSans-79" d="M 2059 -325 
Q 1816 -950 1584 -1140 
Q 1353 -1331 966 -1331 
L 506 -1331 
L 506 -850 
L 844 -850 
Q 1081 -850 1212 -737 
Q 1344 -625 1503 -206 
L 1606 56 
L 191 3500 
L 800 3500 
L 1894 763 
L 2988 3500 
L 3597 3500 
L 2059 -325 
z
" transform="scale(0.015625)"/>
      <path id="DejaVuSans-2d" d="M 313 2009 
L 1997 2009 
L 1997 1497 
L 313 1497 
L 313 2009 
z
" transform="scale(0.015625)"/>
      <path id="DejaVuSans-43" d="M 4122 4306 
L 4122 3641 
Q 3803 3938 3442 4084 
Q 3081 4231 2675 4231 
Q 1875 4231 1450 3742 
Q 1025 3253 1025 2328 
Q 1025 1406 1450 917 
Q 1875 428 2675 428 
Q 3081 428 3442 575 
Q 3803 722 4122 1019 
L 4122 359 
Q 3791 134 3420 21 
Q 3050 -91 2638 -91 
Q 1578 -91 968 557 
Q 359 1206 359 2328 
Q 359 3453 968 4101 
Q 1578 4750 2638 4750 
Q 3056 4750 3426 4639 
Q 3797 4528 4122 4306 
z
" transform="scale(0.015625)"/>
     </defs>
     <use xlink:href="#DejaVuSans-76"/>
     <use xlink:href="#DejaVuSans-65" x="59.179688"/>
     <use xlink:href="#DejaVuSans-6c" x="120.703125"/>
     <use xlink:href="#DejaVuSans-6f" x="148.486328"/>
     <use xlink:href="#DejaVuSans-63" x="209.667969"/>
     <use xlink:href="#DejaVuSans-69" x="264.648438"/>
     <use xlink:href="#DejaVuSans-74" x="292.431641"/>
     <use xlink:href="#DejaVuSans-79" x="331.640625"/>
     <use xlink:href="#DejaVuSans-20" x="390.820312"/>
     <use xlink:href="#DejaVuSans-2d" x="422.607422"/>
     <use xlink:href="#DejaVuSans-20" x="458.691406"/>
     <use xlink:href="#DejaVuSans-43" x="490.478516"/>
     <use xlink:href="#DejaVuSans-6f" x="560.302734"/>
     <use xlink:href="#DejaVuSans-6e" x="621.484375"/>
     <use xlink:href="#DejaVuSans-74" x="684.863281"/>
     <use xlink:href="#DejaVuSans-61" x="724.072266"/>
     <use xlink:href="#DejaVuSans-69" x="785.351562"/>
     <use xlink:href="#DejaVuSans-6e" x="813.134766"/>
     <use xlink:href="#DejaVuSans-65" x="876.513672"/>
     <use xlink:href="#DejaVuSans-72" x="938.037109"/>
     <use xlink:href="#DejaVuSans-20" x="979.150391"/>
     <use xlink:href="#DejaVuSans-31" x="1010.9375"/>
     <use xlink:href="#DejaVuSans-20" x="1074.560547"/>
    </g>
   </g>
  </g>
  <g id="axes_3">
   <g id="patch_9">
    <path d="M 57.6 142.411034 
L 414.72 142.411034 
L 414.72 96.529655 
L 57.6 96.529655 
z
" style="fill: #ffffff"/>
   </g>
   <g id="matplotlib.axis_5">
    <g id="xtick_9">
     <g id="line2d_28">
      <g>
       <use xlink:href="#m3690283b8d" x="73.832727" y="142.411034" style="stroke: #000000; stroke-width: 0.8"/>
      </g>
     </g>
    </g>
    <g id="xtick_10">
     <g id="line2d_29">
      <g>
       <use xlink:href="#m3690283b8d" x="116.550431" y="142.411034" style="stroke: #000000; stroke-width: 0.8"/>
      </g>
     </g>
    </g>
    <g id="xtick_11">
     <g id="line2d_30">
      <g>
       <use xlink:href="#m3690283b8d" x="159.268134" y="142.411034" style="stroke: #000000; stroke-width: 0.8"/>
      </g>
     </g>
    </g>
    <g id="xtick_12">
     <g id="line2d_31">
      <g>
       <use xlink:href="#m3690283b8d" x="201.985837" y="142.411034" style="stroke: #000000; stroke-width: 0.8"/>
      </g>
     </g>
    </g>
    <g id="xtick_13">
     <g id="line2d_32">
      <g>
       <use xlink:href="#m3690283b8d" x="244.703541" y="142.411034" style="stroke: #000000; stroke-width: 0.8"/>
      </g>
     </g>
    </g>
    <g id="xtick_14">
     <g id="line2d_33">
      <g>
       <use xlink:href="#m3690283b8d" x="287.421244" y="142.411034" style="stroke: #000000; stroke-width: 0.8"/>
      </g>
     </g>
    </g>
    <g id="xtick_15">
     <g id="line2d_34">
      <g>
       <use xlink:href="#m3690283b8d" x="330.138947" y="142.411034" style="stroke: #000000; stroke-width: 0.8"/>
      </g>
     </g>
    </g>
    <g id="xtick_16">
     <g id="line2d_35">
      <g>
       <use xlink:href="#m3690283b8d" x="372.856651" y="142.411034" style="stroke: #000000; stroke-width: 0.8"/>
      </g>
     </g>
    </g>
   </g>
   <g id="matplotlib.axis_6">
    <g id="ytick_7">
     <g id="line2d_36">
      <g>
       <use xlink:href="#m57f09ea672" x="57.6" y="140.745257" style="stroke: #000000; stroke-width: 0.8"/>
      </g>
     </g>
     <g id="text_10">
      <!-- 0 -->
      <g transform="translate(44.2375 144.544476)scale(0.1 -0.1)">
       <use xlink:href="#DejaVuSans-30"/>
      </g>
     </g>
    </g>
    <g id="ytick_8">
     <g id="line2d_37">
      <g>
       <use xlink:href="#m57f09ea672" x="57.6" y="98.771582" style="stroke: #000000; stroke-width: 0.8"/>
      </g>
     </g>
     <g id="text_11">
      <!-- 1 -->
      <g transform="translate(44.2375 102.570801)scale(0.1 -0.1)">
       <use xlink:href="#DejaVuSans-31"/>
      </g>
     </g>
    </g>
   </g>
   <g id="line2d_38">
    <path d="M 73.832727 140.325517 
L 90.919809 140.325511 
L 108.00689 140.325504 
L 125.093971 140.325498 
L 142.181053 140.325492 
L 159.268134 140.325485 
L 176.355215 140.32548 
L 193.442297 140.325474 
L 210.529378 140.325468 
L 227.616459 140.325463 
L 244.703541 140.325459 
L 261.790622 140.325454 
L 278.877703 140.32545 
L 295.964785 140.325447 
L 313.051866 140.325444 
L 330.138947 140.325441 
L 347.226029 140.325439 
L 364.31311 140.325438 
L 381.400191 140.325437 
L 398.487273 140.325436 
" clip-path="url(#p919c5b8a8e)" style="fill: none; stroke: #1f77b4; stroke-width: 1.5; stroke-linecap: square"/>
   </g>
   <g id="line2d_39">
    <path d="M 73.832727 99.530072 
L 90.919809 99.530153 
L 108.00689 99.53023 
L 125.093971 99.530302 
L 142.181053 99.53037 
L 159.268134 99.530434 
L 176.355215 99.530494 
L 193.442297 99.53055 
L 210.529378 99.530601 
L 227.616459 99.530648 
L 244.703541 99.530691 
L 261.790622 99.530729 
L 278.877703 99.530764 
L 295.964785 99.530794 
L 313.051866 99.530819 
L 330.138947 99.530841 
L 347.226029 99.530858 
L 364.31311 99.530871 
L 381.400191 99.530879 
L 398.487273 99.530884 
" clip-path="url(#p919c5b8a8e)" style="fill: none; stroke: #ff7f0e; stroke-width: 1.5; stroke-linecap: square"/>
   </g>
   <g id="line2d_40">
    <path d="M 73.832727 98.615208 
L 90.919809 98.623216 
L 108.00689 98.631224 
L 125.093971 98.639234 
L 142.181053 98.647245 
L 159.268134 98.655258 
L 176.355215 98.663273 
L 193.442297 98.671288 
L 210.529378 98.679306 
L 227.616459 98.687324 
L 244.703541 98.695344 
L 261.790622 98.703365 
L 278.877703 98.711387 
L 295.964785 98.719411 
L 313.051866 98.727435 
L 330.138947 98.735461 
L 347.226029 98.743487 
L 364.31311 98.751513 
L 381.400191 98.759541 
L 398.487273 98.767568 
" clip-path="url(#p919c5b8a8e)" style="fill: none; stroke: #2ca02c; stroke-width: 1.5; stroke-linecap: square"/>
   </g>
   <g id="line2d_41">
    <path d="M 73.832727 98.615172 
L 90.919809 98.623182 
L 108.00689 98.631193 
L 125.093971 98.639205 
L 142.181053 98.647218 
L 159.268134 98.655233 
L 176.355215 98.663248 
L 193.442297 98.671265 
L 210.529378 98.679283 
L 227.616459 98.687303 
L 244.703541 98.695324 
L 261.790622 98.703346 
L 278.877703 98.711369 
L 295.964785 98.719394 
L 313.051866 98.72742 
L 330.138947 98.735447 
L 347.226029 98.743475 
L 364.31311 98.751505 
L 381.400191 98.759535 
L 398.487273 98.767566 
" clip-path="url(#p919c5b8a8e)" style="fill: none; stroke: #d62728; stroke-width: 1.5; stroke-linecap: square"/>
   </g>
   <g id="line2d_42">
    <path d="M 73.832727 122.620256 
L 90.919809 122.620409 
L 108.00689 122.620714 
L 125.093971 122.621172 
L 142.181053 122.621783 
L 159.268134 122.622547 
L 176.355215 122.623464 
L 193.442297 122.624533 
L 210.529378 122.625755 
L 227.616459 122.62713 
L 244.703541 122.628658 
L 261.790622 122.630338 
L 278.877703 122.632172 
L 295.964785 122.634158 
L 313.051866 122.636297 
L 330.138947 122.638589 
L 347.226029 122.641035 
L 364.31311 122.643633 
L 381.400191 122.646384 
L 398.487273 122.649288 
" clip-path="url(#p919c5b8a8e)" style="fill: none; stroke: #9467bd; stroke-width: 1.5; stroke-linecap: square"/>
   </g>
   <g id="line2d_43">
    <path d="M 73.832727 136.288593 
L 90.919809 136.288617 
L 108.00689 136.288664 
L 125.093971 136.288736 
L 142.181053 136.288832 
L 159.268134 136.288951 
L 176.355215 136.289095 
L 193.442297 136.289262 
L 210.529378 136.289453 
L 227.616459 136.289668 
L 244.703541 136.289908 
L 261.790622 136.290171 
L 278.877703 136.290458 
L 295.964785 136.290769 
L 313.051866 136.291103 
L 330.138947 136.291462 
L 347.226029 136.291845 
L 364.31311 136.292252 
L 381.400191 136.292682 
L 398.487273 136.293137 
" clip-path="url(#p919c5b8a8e)" style="fill: none; stroke: #8c564b; stroke-width: 1.5; stroke-linecap: square"/>
   </g>
   <g id="line2d_44">
    <path d="M 73.832727 136.542878 
L 90.919809 136.542879 
L 108.00689 136.542881 
L 125.093971 136.542884 
L 142.181053 136.542889 
L 159.268134 136.542894 
L 176.355215 136.5429 
L 193.442297 136.542908 
L 210.529378 136.542916 
L 227.616459 136.542926 
L 244.703541 136.542936 
L 261.790622 136.542948 
L 278.877703 136.542961 
L 295.964785 136.542975 
L 313.051866 136.54299 
L 330.138947 136.543006 
L 347.226029 136.543023 
L 364.31311 136.543041 
L 381.400191 136.54306 
L 398.487273 136.543081 
" clip-path="url(#p919c5b8a8e)" style="fill: none; stroke: #e377c2; stroke-width: 1.5; stroke-linecap: square"/>
   </g>
   <g id="line2d_45">
    <path d="M 73.832727 136.547826 
L 90.919809 136.547826 
L 108.00689 136.547826 
L 125.093971 136.547826 
L 142.181053 136.547826 
L 159.268134 136.547826 
L 176.355215 136.547826 
L 193.442297 136.547826 
L 210.529378 136.547826 
L 227.616459 136.547827 
L 244.703541 136.547827 
L 261.790622 136.547827 
L 278.877703 136.547827 
L 295.964785 136.547827 
L 313.051866 136.547827 
L 330.138947 136.547827 
L 347.226029 136.547828 
L 364.31311 136.547828 
L 381.400191 136.547828 
L 398.487273 136.547828 
" clip-path="url(#p919c5b8a8e)" style="fill: none; stroke: #7f7f7f; stroke-width: 1.5; stroke-linecap: square"/>
   </g>
   <g id="line2d_46">
    <path d="M 73.832727 139.807316 
L 90.919809 139.794543 
L 108.00689 139.782648 
L 125.093971 139.77159 
L 142.181053 139.761331 
L 159.268134 139.751841 
L 176.355215 139.74309 
L 193.442297 139.735053 
L 210.529378 139.727708 
L 227.616459 139.721035 
L 244.703541 139.715017 
L 261.790622 139.709639 
L 278.877703 139.704889 
L 295.964785 139.700754 
L 313.051866 139.697225 
L 330.138947 139.694296 
L 347.226029 139.691958 
L 364.31311 139.690208 
L 381.400191 139.689043 
L 398.487273 139.68846 
" clip-path="url(#p919c5b8a8e)" style="fill: none; stroke: #bcbd22; stroke-width: 1.5; stroke-linecap: square"/>
   </g>
   <g id="line2d_47">
    <path d="M 73.832727 140.313355 
L 90.919809 140.30787 
L 108.00689 140.302664 
L 125.093971 140.297741 
L 142.181053 140.293105 
L 159.268134 140.288757 
L 176.355215 140.284699 
L 193.442297 140.280933 
L 210.529378 140.277457 
L 227.616459 140.274272 
L 244.703541 140.271378 
L 261.790622 140.268774 
L 278.877703 140.266461 
L 295.964785 140.264437 
L 313.051866 140.262703 
L 330.138947 140.261258 
L 347.226029 140.260101 
L 364.31311 140.259234 
L 381.400191 140.258655 
L 398.487273 140.258365 
" clip-path="url(#p919c5b8a8e)" style="fill: none; stroke: #17becf; stroke-width: 1.5; stroke-linecap: square"/>
   </g>
   <g id="line2d_48">
    <path d="M 73.832727 140.324968 
L 90.919809 140.324218 
L 108.00689 140.323482 
L 125.093971 140.322765 
L 142.181053 140.322069 
L 159.268134 140.321399 
L 176.355215 140.320758 
L 193.442297 140.32015 
L 210.529378 140.319577 
L 227.616459 140.319042 
L 244.703541 140.318548 
L 261.790622 140.318096 
L 278.877703 140.31769 
L 295.964785 140.31733 
L 313.051866 140.317019 
L 330.138947 140.316757 
L 347.226029 140.316546 
L 364.31311 140.316387 
L 381.400191 140.316281 
L 398.487273 140.316227 
" clip-path="url(#p919c5b8a8e)" style="fill: none; stroke: #1f77b4; stroke-width: 1.5; stroke-linecap: square"/>
   </g>
   <g id="line2d_49">
    <path d="M 73.832727 140.325461 
L 90.919809 140.325349 
L 108.00689 140.325239 
L 125.093971 140.325131 
L 142.181053 140.325026 
L 159.268134 140.324924 
L 176.355215 140.324826 
L 193.442297 140.324733 
L 210.529378 140.324645 
L 227.616459 140.324562 
L 244.703541 140.324485 
L 261.790622 140.324415 
L 278.877703 140.324352 
L 295.964785 140.324295 
L 313.051866 140.324246 
L 330.138947 140.324205 
L 347.226029 140.324172 
L 364.31311 140.324147 
L 381.400191 140.32413 
L 398.487273 140.324122 
" clip-path="url(#p919c5b8a8e)" style="fill: none; stroke: #ff7f0e; stroke-width: 1.5; stroke-linecap: square"/>
   </g>
   <g id="line2d_50">
    <path d="M 73.832727 140.32551 
L 90.919809 140.32549 
L 108.00689 140.32547 
L 125.093971 140.325451 
L 142.181053 140.325431 
L 159.268134 140.325413 
L 176.355215 140.325395 
L 193.442297 140.325378 
L 210.529378 140.325362 
L 227.616459 140.325346 
L 244.703541 140.325332 
L 261.790622 140.325319 
L 278.877703 140.325307 
L 295.964785 140.325297 
L 313.051866 140.325288 
L 330.138947 140.32528 
L 347.226029 140.325274 
L 364.31311 140.325269 
L 381.400191 140.325266 
L 398.487273 140.325265 
" clip-path="url(#p919c5b8a8e)" style="fill: none; stroke: #2ca02c; stroke-width: 1.5; stroke-linecap: square"/>
   </g>
   <g id="patch_10">
    <path d="M 57.6 142.411034 
L 57.6 96.529655 
" style="fill: none; stroke: #000000; stroke-width: 0.8; stroke-linejoin: miter; stroke-linecap: square"/>
   </g>
   <g id="patch_11">
    <path d="M 414.72 142.411034 
L 414.72 96.529655 
" style="fill: none; stroke: #000000; stroke-width: 0.8; stroke-linejoin: miter; stroke-linecap: square"/>
   </g>
   <g id="patch_12">
    <path d="M 57.6 142.411034 
L 414.72 142.411034 
" style="fill: none; stroke: #000000; stroke-width: 0.8; stroke-linejoin: miter; stroke-linecap: square"/>
   </g>
   <g id="patch_13">
    <path d="M 57.6 96.529655 
L 414.72 96.529655 
" style="fill: none; stroke: #000000; stroke-width: 0.8; stroke-linejoin: miter; stroke-linecap: square"/>
   </g>
   <g id="text_12">
    <!-- Pressure - Container 1 -->
    <g transform="translate(169.523438 93.529655)scale(0.12 -0.12)">
     <defs>
      <path id="DejaVuSans-50" d="M 1259 4147 
L 1259 2394 
L 2053 2394 
Q 2494 2394 2734 2622 
Q 2975 2850 2975 3272 
Q 2975 3691 2734 3919 
Q 2494 4147 2053 4147 
L 1259 4147 
z
M 628 4666 
L 2053 4666 
Q 2838 4666 3239 4311 
Q 3641 3956 3641 3272 
Q 3641 2581 3239 2228 
Q 2838 1875 2053 1875 
L 1259 1875 
L 1259 0 
L 628 0 
L 628 4666 
z
" transform="scale(0.015625)"/>
      <path id="DejaVuSans-75" d="M 544 1381 
L 544 3500 
L 1119 3500 
L 1119 1403 
Q 1119 906 1312 657 
Q 1506 409 1894 409 
Q 2359 409 2629 706 
Q 2900 1003 2900 1516 
L 2900 3500 
L 3475 3500 
L 3475 0 
L 2900 0 
L 2900 538 
Q 2691 219 2414 64 
Q 2138 -91 1772 -91 
Q 1169 -91 856 284 
Q 544 659 544 1381 
z
M 1991 3584 
L 1991 3584 
z
" transform="scale(0.015625)"/>
     </defs>
     <use xlink:href="#DejaVuSans-50"/>
     <use xlink:href="#DejaVuSans-72" x="58.552734"/>
     <use xlink:href="#DejaVuSans-65" x="97.416016"/>
     <use xlink:href="#DejaVuSans-73" x="158.939453"/>
     <use xlink:href="#DejaVuSans-73" x="211.039062"/>
     <use xlink:href="#DejaVuSans-75" x="263.138672"/>
     <use xlink:href="#DejaVuSans-72" x="326.517578"/>
     <use xlink:href="#DejaVuSans-65" x="365.380859"/>
     <use xlink:href="#DejaVuSans-20" x="426.904297"/>
     <use xlink:href="#DejaVuSans-2d" x="458.691406"/>
     <use xlink:href="#DejaVuSans-20" x="494.775391"/>
     <use xlink:href="#DejaVuSans-43" x="526.5625"/>
     <use xlink:href="#DejaVuSans-6f" x="596.386719"/>
     <use xlink:href="#DejaVuSans-6e" x="657.568359"/>
     <use xlink:href="#DejaVuSans-74" x="720.947266"/>
     <use xlink:href="#DejaVuSans-61" x="760.15625"/>
     <use xlink:href="#DejaVuSans-69" x="821.435547"/>
     <use xlink:href="#DejaVuSans-6e" x="849.21875"/>
     <use xlink:href="#DejaVuSans-65" x="912.597656"/>
     <use xlink:href="#DejaVuSans-72" x="974.121094"/>
     <use xlink:href="#DejaVuSans-20" x="1015.234375"/>
     <use xlink:href="#DejaVuSans-31" x="1047.021484"/>
    </g>
   </g>
  </g>
  <g id="axes_4">
   <g id="patch_14">
    <path d="M 57.6 197.46869 
L 414.72 197.46869 
L 414.72 151.58731 
L 57.6 151.58731 
z
" style="fill: #ffffff"/>
   </g>
   <g id="matplotlib.axis_7">
    <g id="xtick_17">
     <g id="line2d_51">
      <g>
       <use xlink:href="#m3690283b8d" x="73.832727" y="197.46869" style="stroke: #000000; stroke-width: 0.8"/>
      </g>
     </g>
    </g>
    <g id="xtick_18">
     <g id="line2d_52">
      <g>
       <use xlink:href="#m3690283b8d" x="116.550431" y="197.46869" style="stroke: #000000; stroke-width: 0.8"/>
      </g>
     </g>
    </g>
    <g id="xtick_19">
     <g id="line2d_53">
      <g>
       <use xlink:href="#m3690283b8d" x="159.268134" y="197.46869" style="stroke: #000000; stroke-width: 0.8"/>
      </g>
     </g>
    </g>
    <g id="xtick_20">
     <g id="line2d_54">
      <g>
       <use xlink:href="#m3690283b8d" x="201.985837" y="197.46869" style="stroke: #000000; stroke-width: 0.8"/>
      </g>
     </g>
    </g>
    <g id="xtick_21">
     <g id="line2d_55">
      <g>
       <use xlink:href="#m3690283b8d" x="244.703541" y="197.46869" style="stroke: #000000; stroke-width: 0.8"/>
      </g>
     </g>
    </g>
    <g id="xtick_22">
     <g id="line2d_56">
      <g>
       <use xlink:href="#m3690283b8d" x="287.421244" y="197.46869" style="stroke: #000000; stroke-width: 0.8"/>
      </g>
     </g>
    </g>
    <g id="xtick_23">
     <g id="line2d_57">
      <g>
       <use xlink:href="#m3690283b8d" x="330.138947" y="197.46869" style="stroke: #000000; stroke-width: 0.8"/>
      </g>
     </g>
    </g>
    <g id="xtick_24">
     <g id="line2d_58">
      <g>
       <use xlink:href="#m3690283b8d" x="372.856651" y="197.46869" style="stroke: #000000; stroke-width: 0.8"/>
      </g>
     </g>
    </g>
   </g>
   <g id="matplotlib.axis_8">
    <g id="ytick_9">
     <g id="line2d_59">
      <g>
       <use xlink:href="#m57f09ea672" x="57.6" y="193.835002" style="stroke: #000000; stroke-width: 0.8"/>
      </g>
     </g>
     <g id="text_13">
      <!-- 0.05 -->
      <g transform="translate(28.334375 197.634221)scale(0.1 -0.1)">
       <defs>
        <path id="DejaVuSans-2e" d="M 684 794 
L 1344 794 
L 1344 0 
L 684 0 
L 684 794 
z
" transform="scale(0.015625)"/>
        <path id="DejaVuSans-35" d="M 691 4666 
L 3169 4666 
L 3169 4134 
L 1269 4134 
L 1269 2991 
Q 1406 3038 1543 3061 
Q 1681 3084 1819 3084 
Q 2600 3084 3056 2656 
Q 3513 2228 3513 1497 
Q 3513 744 3044 326 
Q 2575 -91 1722 -91 
Q 1428 -91 1123 -41 
Q 819 9 494 109 
L 494 744 
Q 775 591 1075 516 
Q 1375 441 1709 441 
Q 2250 441 2565 725 
Q 2881 1009 2881 1497 
Q 2881 1984 2565 2268 
Q 2250 2553 1709 2553 
Q 1456 2553 1204 2497 
Q 953 2441 691 2322 
L 691 4666 
z
" transform="scale(0.015625)"/>
       </defs>
       <use xlink:href="#DejaVuSans-30"/>
       <use xlink:href="#DejaVuSans-2e" x="63.623047"/>
       <use xlink:href="#DejaVuSans-30" x="95.410156"/>
       <use xlink:href="#DejaVuSans-35" x="159.033203"/>
      </g>
     </g>
    </g>
    <g id="ytick_10">
     <g id="line2d_60">
      <g>
       <use xlink:href="#m57f09ea672" x="57.6" y="162.712394" style="stroke: #000000; stroke-width: 0.8"/>
      </g>
     </g>
     <g id="text_14">
      <!-- 0.10 -->
      <g transform="translate(28.334375 166.511613)scale(0.1 -0.1)">
       <use xlink:href="#DejaVuSans-30"/>
       <use xlink:href="#DejaVuSans-2e" x="63.623047"/>
       <use xlink:href="#DejaVuSans-31" x="95.410156"/>
       <use xlink:href="#DejaVuSans-30" x="159.033203"/>
      </g>
     </g>
    </g>
   </g>
   <g id="line2d_61">
    <path d="M 73.832727 153.672828 
L 90.919809 153.675006 
L 108.00689 153.698221 
L 125.093971 153.737208 
L 142.181053 153.787635 
L 159.268134 153.845915 
L 176.355215 153.909832 
L 193.442297 153.978811 
L 210.529378 154.053943 
L 227.616459 154.13787 
L 244.703541 154.23459 
L 261.790622 154.349204 
L 278.877703 154.487622 
L 295.964785 154.656206 
L 313.051866 154.861334 
L 330.138947 155.108893 
L 347.226029 155.403702 
L 364.31311 155.748881 
L 381.400191 156.144693 
L 398.487273 156.572348 
" clip-path="url(#p63136012d2)" style="fill: none; stroke: #1f77b4; stroke-width: 1.5; stroke-linecap: square"/>
   </g>
   <g id="line2d_62">
    <path d="M 73.832727 194.356219 
L 90.919809 194.316194 
L 108.00689 194.243519 
L 125.093971 194.198324 
L 142.181053 194.185102 
L 159.268134 194.193483 
L 176.355215 194.214247 
L 193.442297 194.242007 
L 210.529378 194.274463 
L 227.616459 194.311378 
L 244.703541 194.353863 
L 261.790622 194.403938 
L 278.877703 194.464239 
L 295.964785 194.537775 
L 313.051866 194.627678 
L 330.138947 194.736914 
L 347.226029 194.86791 
L 364.31311 195.022077 
L 381.400191 195.198826 
L 398.487273 195.383172 
" clip-path="url(#p63136012d2)" style="fill: none; stroke: #ff7f0e; stroke-width: 1.5; stroke-linecap: square"/>
   </g>
   <g id="line2d_63">
    <path d="M 73.832727 194.039108 
L 90.919809 194.151417 
L 108.00689 194.193894 
L 125.093971 194.200759 
L 142.181053 194.197462 
L 159.268134 194.196771 
L 176.355215 194.203113 
L 193.442297 194.216927 
L 210.529378 194.237377 
L 227.616459 194.263714 
L 244.703541 194.295843 
L 261.790622 194.334478 
L 278.877703 194.381104 
L 295.964785 194.437845 
L 313.051866 194.507284 
L 330.138947 194.592246 
L 347.226029 194.695543 
L 364.31311 194.819662 
L 381.400191 194.965969 
L 398.487273 195.126738 
" clip-path="url(#p63136012d2)" style="fill: none; stroke: #2ca02c; stroke-width: 1.5; stroke-linecap: square"/>
   </g>
   <g id="line2d_64">
    <path d="M 73.832727 193.859296 
L 90.919809 193.895856 
L 108.00689 193.937641 
L 125.093971 193.979253 
L 142.181053 194.017717 
L 159.268134 194.051965 
L 176.355215 194.08217 
L 193.442297 194.109174 
L 210.529378 194.134095 
L 227.616459 194.158113 
L 244.703541 194.182387 
L 261.790622 194.208061 
L 278.877703 194.236324 
L 295.964785 194.268476 
L 313.051866 194.305994 
L 330.138947 194.350572 
L 347.226029 194.404123 
L 364.31311 194.46874 
L 381.400191 194.546539 
L 398.487273 194.637596 
" clip-path="url(#p63136012d2)" style="fill: none; stroke: #d62728; stroke-width: 1.5; stroke-linecap: square"/>
   </g>
   <g id="line2d_65">
    <path d="M 73.832727 193.317387 
L 90.919809 193.335386 
L 108.00689 193.358682 
L 125.093971 193.3853 
L 142.181053 193.413639 
L 159.268134 193.442491 
L 176.355215 193.471067 
L 193.442297 193.498952 
L 210.529378 193.526041 
L 227.616459 193.552471 
L 244.703541 193.578571 
L 261.790622 193.604831 
L 278.877703 193.631889 
L 295.964785 193.660535 
L 313.051866 193.691724 
L 330.138947 193.726588 
L 347.226029 193.766446 
L 364.31311 193.812794 
L 381.400191 193.86725 
L 398.487273 193.930085 
" clip-path="url(#p63136012d2)" style="fill: none; stroke: #9467bd; stroke-width: 1.5; stroke-linecap: square"/>
   </g>
   <g id="line2d_66">
    <path d="M 73.832727 190.397522 
L 90.919809 190.417201 
L 108.00689 190.442653 
L 125.093971 190.471648 
L 142.181053 190.502454 
L 159.268134 190.533769 
L 176.355215 190.564749 
L 193.442297 190.594952 
L 210.529378 190.624269 
L 227.616459 190.652851 
L 244.703541 190.681057 
L 261.790622 190.709414 
L 278.877703 190.73861 
L 295.964785 190.769494 
L 313.051866 190.803093 
L 330.138947 190.840623 
L 347.226029 190.883497 
L 364.31311 190.933326 
L 381.400191 190.991836 
L 398.487273 191.058982 
" clip-path="url(#p63136012d2)" style="fill: none; stroke: #8c564b; stroke-width: 1.5; stroke-linecap: square"/>
   </g>
   <g id="line2d_67">
    <path d="M 73.832727 190.162144 
L 90.919809 190.181895 
L 108.00689 190.207539 
L 125.093971 190.236771 
L 142.181053 190.267848 
L 159.268134 190.299462 
L 176.355215 190.33076 
L 193.442297 190.361298 
L 210.529378 190.390966 
L 227.616459 190.419915 
L 244.703541 190.448505 
L 261.790622 190.477266 
L 278.877703 190.506891 
L 295.964785 190.538234 
L 313.051866 190.572327 
L 330.138947 190.610393 
L 347.226029 190.653854 
L 364.31311 190.704329 
L 381.400191 190.763543 
L 398.487273 190.831068 
" clip-path="url(#p63136012d2)" style="fill: none; stroke: #e377c2; stroke-width: 1.5; stroke-linecap: square"/>
   </g>
   <g id="line2d_68">
    <path d="M 73.832727 190.157734 
L 90.919809 190.177414 
L 108.00689 190.20305 
L 125.093971 190.232279 
L 142.181053 190.263357 
L 159.268134 190.294975 
L 176.355215 190.32628 
L 193.442297 190.356828 
L 210.529378 190.386508 
L 227.616459 190.415471 
L 244.703541 190.444076 
L 261.790622 190.472855 
L 278.877703 190.5025 
L 295.964785 190.533864 
L 313.051866 190.567981 
L 330.138947 190.606073 
L 347.226029 190.649563 
L 364.31311 190.700069 
L 381.400191 190.759303 
L 398.487273 190.826457 
" clip-path="url(#p63136012d2)" style="fill: none; stroke: #7f7f7f; stroke-width: 1.5; stroke-linecap: square"/>
   </g>
   <g id="line2d_69">
    <path d="M 73.832727 175.971787 
L 90.919809 176.240578 
L 108.00689 176.49482 
L 125.093971 176.733307 
L 142.181053 176.955563 
L 159.268134 177.161463 
L 176.355215 177.351274 
L 193.442297 177.52561 
L 210.529378 177.685359 
L 227.616459 177.831609 
L 244.703541 177.965594 
L 261.790622 178.088662 
L 278.877703 178.202278 
L 295.964785 178.308033 
L 313.051866 178.407674 
L 330.138947 178.503129 
L 347.226029 178.59652 
L 364.31311 178.690166 
L 381.400191 178.786418 
L 398.487273 178.88402 
" clip-path="url(#p63136012d2)" style="fill: none; stroke: #bcbd22; stroke-width: 1.5; stroke-linecap: square"/>
   </g>
   <g id="line2d_70">
    <path d="M 73.832727 154.850371 
L 90.919809 155.351722 
L 108.00689 155.832369 
L 125.093971 156.287842 
L 142.181053 156.716079 
L 159.268134 157.115918 
L 176.355215 157.487026 
L 193.442297 157.829761 
L 210.529378 158.145012 
L 227.616459 158.434052 
L 244.703541 158.698434 
L 261.790622 158.939931 
L 278.877703 159.160511 
L 295.964785 159.362345 
L 313.051866 159.547831 
L 330.138947 159.719622 
L 347.226029 159.880643 
L 364.31311 160.034077 
L 381.400191 160.183114 
L 398.487273 160.325907 
" clip-path="url(#p63136012d2)" style="fill: none; stroke: #17becf; stroke-width: 1.5; stroke-linecap: square"/>
   </g>
   <g id="line2d_71">
    <path d="M 73.832727 153.759361 
L 90.919809 153.839641 
L 108.00689 153.934508 
L 125.093971 154.037328 
L 142.181053 154.144008 
L 159.268134 154.251442 
L 176.355215 154.357475 
L 193.442297 154.460791 
L 210.529378 154.560757 
L 227.616459 154.657288 
L 244.703541 154.750736 
L 261.790622 154.841826 
L 278.877703 154.93163 
L 295.964785 155.021568 
L 313.051866 155.113429 
L 330.138947 155.209394 
L 347.226029 155.312049 
L 364.31311 155.424361 
L 381.400191 155.549391 
L 398.487273 155.684779 
" clip-path="url(#p63136012d2)" style="fill: none; stroke: #1f77b4; stroke-width: 1.5; stroke-linecap: square"/>
   </g>
   <g id="line2d_72">
    <path d="M 73.832727 153.711814 
L 90.919809 153.731035 
L 108.00689 153.766266 
L 125.093971 153.811262 
L 142.181053 153.862234 
L 159.268134 153.916341 
L 176.355215 153.97167 
L 193.442297 154.027121 
L 210.529378 154.082257 
L 227.616459 154.13717 
L 244.703541 154.192376 
L 261.790622 154.248744 
L 278.877703 154.307483 
L 295.964785 154.370134 
L 313.051866 154.438597 
L 330.138947 154.515154 
L 347.226029 154.602478 
L 364.31311 154.703618 
L 381.400191 154.821687 
L 398.487273 154.954165 
" clip-path="url(#p63136012d2)" style="fill: none; stroke: #ff7f0e; stroke-width: 1.5; stroke-linecap: square"/>
   </g>
   <g id="line2d_73">
    <path d="M 73.832727 153.706976 
L 90.919809 153.717471 
L 108.00689 153.744052 
L 125.093971 153.780588 
L 142.181053 153.823344 
L 159.268134 153.869525 
L 176.355215 153.917261 
L 193.442297 153.965492 
L 210.529378 154.01382 
L 227.616459 154.062372 
L 244.703541 154.111697 
L 261.790622 154.162697 
L 278.877703 154.216608 
L 295.964785 154.274998 
L 313.051866 154.339793 
L 330.138947 154.413295 
L 347.226029 154.498198 
L 364.31311 154.597566 
L 381.400191 154.714519 
L 398.487273 154.84638 
" clip-path="url(#p63136012d2)" style="fill: none; stroke: #2ca02c; stroke-width: 1.5; stroke-linecap: square"/>
   </g>
   <g id="patch_15">
    <path d="M 57.6 197.46869 
L 57.6 151.58731 
" style="fill: none; stroke: #000000; stroke-width: 0.8; stroke-linejoin: miter; stroke-linecap: square"/>
   </g>
   <g id="patch_16">
    <path d="M 414.72 197.46869 
L 414.72 151.58731 
" style="fill: none; stroke: #000000; stroke-width: 0.8; stroke-linejoin: miter; stroke-linecap: square"/>
   </g>
   <g id="patch_17">
    <path d="M 57.6 197.46869 
L 414.72 197.46869 
" style="fill: none; stroke: #000000; stroke-width: 0.8; stroke-linejoin: miter; stroke-linecap: square"/>
   </g>
   <g id="patch_18">
    <path d="M 57.6 151.58731 
L 414.72 151.58731 
" style="fill: none; stroke: #000000; stroke-width: 0.8; stroke-linejoin: miter; stroke-linecap: square"/>
   </g>
   <g id="text_15">
    <!-- yA - Container 1 -->
    <g transform="translate(187.48125 148.58731)scale(0.12 -0.12)">
     <defs>
      <path id="DejaVuSans-41" d="M 2188 4044 
L 1331 1722 
L 3047 1722 
L 2188 4044 
z
M 1831 4666 
L 2547 4666 
L 4325 0 
L 3669 0 
L 3244 1197 
L 1141 1197 
L 716 0 
L 50 0 
L 1831 4666 
z
" transform="scale(0.015625)"/>
     </defs>
     <use xlink:href="#DejaVuSans-79"/>
     <use xlink:href="#DejaVuSans-41" x="59.179688"/>
     <use xlink:href="#DejaVuSans-20" x="127.587891"/>
     <use xlink:href="#DejaVuSans-2d" x="159.375"/>
     <use xlink:href="#DejaVuSans-20" x="195.458984"/>
     <use xlink:href="#DejaVuSans-43" x="227.246094"/>
     <use xlink:href="#DejaVuSans-6f" x="297.070312"/>
     <use xlink:href="#DejaVuSans-6e" x="358.251953"/>
     <use xlink:href="#DejaVuSans-74" x="421.630859"/>
     <use xlink:href="#DejaVuSans-61" x="460.839844"/>
     <use xlink:href="#DejaVuSans-69" x="522.119141"/>
     <use xlink:href="#DejaVuSans-6e" x="549.902344"/>
     <use xlink:href="#DejaVuSans-65" x="613.28125"/>
     <use xlink:href="#DejaVuSans-72" x="674.804688"/>
     <use xlink:href="#DejaVuSans-20" x="715.917969"/>
     <use xlink:href="#DejaVuSans-31" x="747.705078"/>
    </g>
   </g>
  </g>
  <g id="axes_5">
   <g id="patch_19">
    <path d="M 57.6 252.526345 
L 414.72 252.526345 
L 414.72 206.644966 
L 57.6 206.644966 
z
" style="fill: #ffffff"/>
   </g>
   <g id="matplotlib.axis_9">
    <g id="xtick_25">
     <g id="line2d_74">
      <g>
       <use xlink:href="#m3690283b8d" x="73.832727" y="252.526345" style="stroke: #000000; stroke-width: 0.8"/>
      </g>
     </g>
    </g>
    <g id="xtick_26">
     <g id="line2d_75">
      <g>
       <use xlink:href="#m3690283b8d" x="116.550431" y="252.526345" style="stroke: #000000; stroke-width: 0.8"/>
      </g>
     </g>
    </g>
    <g id="xtick_27">
     <g id="line2d_76">
      <g>
       <use xlink:href="#m3690283b8d" x="159.268134" y="252.526345" style="stroke: #000000; stroke-width: 0.8"/>
      </g>
     </g>
    </g>
    <g id="xtick_28">
     <g id="line2d_77">
      <g>
       <use xlink:href="#m3690283b8d" x="201.985837" y="252.526345" style="stroke: #000000; stroke-width: 0.8"/>
      </g>
     </g>
    </g>
    <g id="xtick_29">
     <g id="line2d_78">
      <g>
       <use xlink:href="#m3690283b8d" x="244.703541" y="252.526345" style="stroke: #000000; stroke-width: 0.8"/>
      </g>
     </g>
    </g>
    <g id="xtick_30">
     <g id="line2d_79">
      <g>
       <use xlink:href="#m3690283b8d" x="287.421244" y="252.526345" style="stroke: #000000; stroke-width: 0.8"/>
      </g>
     </g>
    </g>
    <g id="xtick_31">
     <g id="line2d_80">
      <g>
       <use xlink:href="#m3690283b8d" x="330.138947" y="252.526345" style="stroke: #000000; stroke-width: 0.8"/>
      </g>
     </g>
    </g>
    <g id="xtick_32">
     <g id="line2d_81">
      <g>
       <use xlink:href="#m3690283b8d" x="372.856651" y="252.526345" style="stroke: #000000; stroke-width: 0.8"/>
      </g>
     </g>
    </g>
   </g>
   <g id="matplotlib.axis_10">
    <g id="ytick_11">
     <g id="line2d_82">
      <g>
       <use xlink:href="#m57f09ea672" x="57.6" y="238.901245" style="stroke: #000000; stroke-width: 0.8"/>
      </g>
     </g>
     <g id="text_16">
      <!-- 0.85 -->
      <g transform="translate(28.334375 242.700464)scale(0.1 -0.1)">
       <defs>
        <path id="DejaVuSans-38" d="M 2034 2216 
Q 1584 2216 1326 1975 
Q 1069 1734 1069 1313 
Q 1069 891 1326 650 
Q 1584 409 2034 409 
Q 2484 409 2743 651 
Q 3003 894 3003 1313 
Q 3003 1734 2745 1975 
Q 2488 2216 2034 2216 
z
M 1403 2484 
Q 997 2584 770 2862 
Q 544 3141 544 3541 
Q 544 4100 942 4425 
Q 1341 4750 2034 4750 
Q 2731 4750 3128 4425 
Q 3525 4100 3525 3541 
Q 3525 3141 3298 2862 
Q 3072 2584 2669 2484 
Q 3125 2378 3379 2068 
Q 3634 1759 3634 1313 
Q 3634 634 3220 271 
Q 2806 -91 2034 -91 
Q 1263 -91 848 271 
Q 434 634 434 1313 
Q 434 1759 690 2068 
Q 947 2378 1403 2484 
z
M 1172 3481 
Q 1172 3119 1398 2916 
Q 1625 2713 2034 2713 
Q 2441 2713 2670 2916 
Q 2900 3119 2900 3481 
Q 2900 3844 2670 4047 
Q 2441 4250 2034 4250 
Q 1625 4250 1398 4047 
Q 1172 3844 1172 3481 
z
" transform="scale(0.015625)"/>
       </defs>
       <use xlink:href="#DejaVuSans-30"/>
       <use xlink:href="#DejaVuSans-2e" x="63.623047"/>
       <use xlink:href="#DejaVuSans-38" x="95.410156"/>
       <use xlink:href="#DejaVuSans-35" x="159.033203"/>
      </g>
     </g>
    </g>
    <g id="ytick_12">
     <g id="line2d_83">
      <g>
       <use xlink:href="#m57f09ea672" x="57.6" y="211.380896" style="stroke: #000000; stroke-width: 0.8"/>
      </g>
     </g>
     <g id="text_17">
      <!-- 0.90 -->
      <g transform="translate(28.334375 215.180114)scale(0.1 -0.1)">
       <defs>
        <path id="DejaVuSans-39" d="M 703 97 
L 703 672 
Q 941 559 1184 500 
Q 1428 441 1663 441 
Q 2288 441 2617 861 
Q 2947 1281 2994 2138 
Q 2813 1869 2534 1725 
Q 2256 1581 1919 1581 
Q 1219 1581 811 2004 
Q 403 2428 403 3163 
Q 403 3881 828 4315 
Q 1253 4750 1959 4750 
Q 2769 4750 3195 4129 
Q 3622 3509 3622 2328 
Q 3622 1225 3098 567 
Q 2575 -91 1691 -91 
Q 1453 -91 1209 -44 
Q 966 3 703 97 
z
M 1959 2075 
Q 2384 2075 2632 2365 
Q 2881 2656 2881 3163 
Q 2881 3666 2632 3958 
Q 2384 4250 1959 4250 
Q 1534 4250 1286 3958 
Q 1038 3666 1038 3163 
Q 1038 2656 1286 2365 
Q 1534 2075 1959 2075 
z
" transform="scale(0.015625)"/>
       </defs>
       <use xlink:href="#DejaVuSans-30"/>
       <use xlink:href="#DejaVuSans-2e" x="63.623047"/>
       <use xlink:href="#DejaVuSans-39" x="95.410156"/>
       <use xlink:href="#DejaVuSans-30" x="159.033203"/>
      </g>
     </g>
    </g>
   </g>
   <g id="line2d_84">
    <path d="M 73.832727 250.364685 
L 90.919809 250.40673 
L 108.00689 250.432375 
L 125.093971 250.440828 
L 142.181053 250.435737 
L 159.268134 250.420466 
L 176.355215 250.397194 
L 193.442297 250.366693 
L 210.529378 250.328312 
L 227.616459 250.280078 
L 244.703541 250.218867 
L 261.790622 250.140615 
L 278.877703 250.040567 
L 295.964785 249.913574 
L 313.051866 249.754455 
L 330.138947 249.558417 
L 347.226029 249.321532 
L 364.31311 249.041261 
L 381.400191 248.717427 
L 398.487273 248.365677 
" clip-path="url(#p767c6b8ff0)" style="fill: none; stroke: #1f77b4; stroke-width: 1.5; stroke-linecap: square"/>
   </g>
   <g id="line2d_85">
    <path d="M 73.832727 210.909361 
L 90.919809 210.879657 
L 108.00689 210.871701 
L 125.093971 210.8443 
L 142.181053 210.791894 
L 159.268134 210.720618 
L 176.355215 210.636619 
L 193.442297 210.543619 
L 210.529378 210.443158 
L 227.616459 210.335222 
L 244.703541 210.218754 
L 261.790622 210.091971 
L 278.877703 209.95261 
L 295.964785 209.798199 
L 313.051866 209.626609 
L 330.138947 209.437369 
L 347.226029 209.234771 
L 364.31311 209.033347 
L 381.400191 208.859302 
L 398.487273 208.730483 
" clip-path="url(#p767c6b8ff0)" style="fill: none; stroke: #ff7f0e; stroke-width: 1.5; stroke-linecap: square"/>
   </g>
   <g id="line2d_86">
    <path d="M 73.832727 211.210645 
L 90.919809 211.115545 
L 108.00689 211.077244 
L 125.093971 211.06737 
L 142.181053 211.065044 
L 159.268134 211.060004 
L 176.355215 211.048822 
L 193.442297 211.031171 
L 210.529378 211.007523 
L 227.616459 210.978031 
L 244.703541 210.942119 
L 261.790622 210.898448 
L 278.877703 210.845032 
L 295.964785 210.779435 
L 313.051866 210.698984 
L 330.138947 210.601011 
L 347.226029 210.48314 
L 364.31311 210.343619 
L 381.400191 210.181951 
L 398.487273 210.005669 
" clip-path="url(#p767c6b8ff0)" style="fill: none; stroke: #2ca02c; stroke-width: 1.5; stroke-linecap: square"/>
   </g>
   <g id="line2d_87">
    <path d="M 73.832727 211.360665 
L 90.919809 211.330203 
L 108.00689 211.29537 
L 125.093971 211.260657 
L 142.181053 211.228542 
L 159.268134 211.199908 
L 176.355215 211.17461 
L 193.442297 211.151943 
L 210.529378 211.130971 
L 227.616459 211.110709 
L 244.703541 211.090186 
L 261.790622 211.068444 
L 278.877703 211.044489 
L 295.964785 211.017231 
L 313.051866 210.985436 
L 330.138947 210.947689 
L 347.226029 210.902391 
L 364.31311 210.847801 
L 381.400191 210.782159 
L 398.487273 210.705415 
" clip-path="url(#p767c6b8ff0)" style="fill: none; stroke: #d62728; stroke-width: 1.5; stroke-linecap: square"/>
   </g>
   <g id="line2d_88">
    <path d="M 73.832727 211.857553 
L 90.919809 211.842549 
L 108.00689 211.823136 
L 125.093971 211.800957 
L 142.181053 211.777345 
L 159.268134 211.753302 
L 176.355215 211.729485 
L 193.442297 211.706239 
L 210.529378 211.683651 
L 227.616459 211.661605 
L 244.703541 211.639826 
L 261.790622 211.617909 
L 278.877703 211.595319 
L 295.964785 211.5714 
L 313.051866 211.545357 
L 330.138947 211.516247 
L 347.226029 211.482974 
L 364.31311 211.444291 
L 381.400191 211.398856 
L 398.487273 211.346446 
" clip-path="url(#p767c6b8ff0)" style="fill: none; stroke: #9467bd; stroke-width: 1.5; stroke-linecap: square"/>
   </g>
   <g id="line2d_89">
    <path d="M 73.832727 214.847739 
L 90.919809 214.831385 
L 108.00689 214.810241 
L 125.093971 214.786157 
L 142.181053 214.760571 
L 159.268134 214.734563 
L 176.355215 214.708834 
L 193.442297 214.68375 
L 210.529378 214.659399 
L 227.616459 214.635656 
L 244.703541 214.612222 
L 261.790622 214.588658 
L 278.877703 214.564393 
L 295.964785 214.53872 
L 313.051866 214.510786 
L 330.138947 214.479582 
L 347.226029 214.443932 
L 364.31311 214.402499 
L 381.400191 214.35385 
L 398.487273 214.29802 
" clip-path="url(#p767c6b8ff0)" style="fill: none; stroke: #8c564b; stroke-width: 1.5; stroke-linecap: square"/>
   </g>
   <g id="line2d_90">
    <path d="M 73.832727 215.094184 
L 90.919809 215.077766 
L 108.00689 215.056455 
L 125.093971 215.032162 
L 142.181053 215.006335 
L 159.268134 214.980059 
L 176.355215 214.954041 
L 193.442297 214.928651 
L 210.529378 214.903977 
L 227.616459 214.879893 
L 244.703541 214.8561 
L 261.790622 214.832156 
L 278.877703 214.807486 
L 295.964785 214.78138 
L 313.051866 214.75298 
L 330.138947 214.72127 
L 347.226029 214.685068 
L 364.31311 214.643031 
L 381.400191 214.593725 
L 398.487273 214.537511 
" clip-path="url(#p767c6b8ff0)" style="fill: none; stroke: #e377c2; stroke-width: 1.5; stroke-linecap: square"/>
   </g>
   <g id="line2d_91">
    <path d="M 73.832727 215.09895 
L 90.919809 215.082591 
L 108.00689 215.061285 
L 125.093971 215.036992 
L 142.181053 215.011164 
L 159.268134 214.984883 
L 176.355215 214.958858 
L 193.442297 214.933457 
L 210.529378 214.908772 
L 227.616459 214.884674 
L 244.703541 214.860866 
L 261.790622 214.836906 
L 278.877703 214.812218 
L 295.964785 214.786091 
L 313.051866 214.757669 
L 330.138947 214.725935 
L 347.226029 214.689707 
L 364.31311 214.647641 
L 381.400191 214.598316 
L 398.487273 214.542414 
" clip-path="url(#p767c6b8ff0)" style="fill: none; stroke: #7f7f7f; stroke-width: 1.5; stroke-linecap: square"/>
   </g>
   <g id="line2d_92">
    <path d="M 73.832727 229.160381 
L 90.919809 228.914347 
L 108.00689 228.682065 
L 125.093971 228.464535 
L 142.181053 228.262044 
L 159.268134 228.074601 
L 176.355215 227.901902 
L 193.442297 227.743367 
L 210.529378 227.598198 
L 227.616459 227.465437 
L 244.703541 227.344015 
L 261.790622 227.232771 
L 278.877703 227.130457 
L 295.964785 227.035722 
L 313.051866 226.947093 
L 330.138947 226.862952 
L 347.226029 226.781521 
L 364.31311 226.700867 
L 381.400191 226.619034 
L 398.487273 226.537059 
" clip-path="url(#p767c6b8ff0)" style="fill: none; stroke: #bcbd22; stroke-width: 1.5; stroke-linecap: square"/>
   </g>
   <g id="line2d_93">
    <path d="M 73.832727 249.20468 
L 90.919809 248.7859 
L 108.00689 248.382105 
L 125.093971 247.997722 
L 142.181053 247.634927 
L 159.268134 247.295055 
L 176.355215 246.978681 
L 193.442297 246.685751 
L 210.529378 246.415726 
L 227.616459 246.167712 
L 244.703541 245.940553 
L 261.790622 245.732887 
L 278.877703 245.543173 
L 295.964785 245.369683 
L 313.051866 245.210489 
L 330.138947 245.063443 
L 347.226029 244.92616 
L 364.31311 244.796035 
L 381.400191 244.670455 
L 398.487273 244.550977 
" clip-path="url(#p767c6b8ff0)" style="fill: none; stroke: #17becf; stroke-width: 1.5; stroke-linecap: square"/>
   </g>
   <g id="line2d_94">
    <path d="M 73.832727 250.27854 
L 90.919809 250.25286 
L 108.00689 250.211158 
L 125.093971 250.158436 
L 142.181053 250.098624 
L 159.268134 250.034763 
L 176.355215 249.969034 
L 193.442297 249.902864 
L 210.529378 249.837063 
L 227.616459 249.771948 
L 244.703541 249.70744 
L 261.790622 249.643116 
L 278.877703 249.578245 
L 295.964785 249.511781 
L 313.051866 249.442353 
L 330.138947 249.368247 
L 347.226029 249.287401 
L 364.31311 249.197417 
L 381.400191 249.095815 
L 398.487273 248.984608 
" clip-path="url(#p767c6b8ff0)" style="fill: none; stroke: #1f77b4; stroke-width: 1.5; stroke-linecap: square"/>
   </g>
   <g id="line2d_95">
    <path d="M 73.832727 250.331826 
L 90.919809 250.361426 
L 108.00689 250.37572 
L 125.093971 250.377445 
L 142.181053 250.370133 
L 159.268134 250.356566 
L 176.355215 250.338691 
L 193.442297 250.317724 
L 210.529378 250.294287 
L 227.616459 250.268524 
L 244.703541 250.240198 
L 261.790622 250.208747 
L 278.877703 250.173309 
L 295.964785 250.132722 
L 313.051866 250.085511 
L 330.138947 250.029868 
L 347.226029 249.963646 
L 364.31311 249.884376 
L 381.400191 249.789529 
L 398.487273 249.68127 
" clip-path="url(#p767c6b8ff0)" style="fill: none; stroke: #ff7f0e; stroke-width: 1.5; stroke-linecap: square"/>
   </g>
   <g id="line2d_96">
    <path d="M 73.832727 250.339464 
L 90.919809 250.375076 
L 108.00689 250.397326 
L 125.093971 250.40703 
L 142.181053 250.407483 
L 159.268134 250.40141 
L 176.355215 250.390716 
L 193.442297 250.376582 
L 210.529378 250.359589 
L 227.616459 250.339851 
L 244.703541 250.317097 
L 261.790622 250.290735 
L 278.877703 250.259876 
L 295.964785 250.223334 
L 313.051866 250.179609 
L 330.138947 250.126873 
L 347.226029 250.062962 
L 364.31311 249.985393 
L 381.400191 249.891631 
L 398.487273 249.783989 
" clip-path="url(#p767c6b8ff0)" style="fill: none; stroke: #2ca02c; stroke-width: 1.5; stroke-linecap: square"/>
   </g>
   <g id="patch_20">
    <path d="M 57.6 252.526345 
L 57.6 206.644966 
" style="fill: none; stroke: #000000; stroke-width: 0.8; stroke-linejoin: miter; stroke-linecap: square"/>
   </g>
   <g id="patch_21">
    <path d="M 414.72 252.526345 
L 414.72 206.644966 
" style="fill: none; stroke: #000000; stroke-width: 0.8; stroke-linejoin: miter; stroke-linecap: square"/>
   </g>
   <g id="patch_22">
    <path d="M 57.6 252.526345 
L 414.72 252.526345 
" style="fill: none; stroke: #000000; stroke-width: 0.8; stroke-linejoin: miter; stroke-linecap: square"/>
   </g>
   <g id="patch_23">
    <path d="M 57.6 206.644966 
L 414.72 206.644966 
" style="fill: none; stroke: #000000; stroke-width: 0.8; stroke-linejoin: miter; stroke-linecap: square"/>
   </g>
   <g id="text_18">
    <!-- yB - Container 1 -->
    <g transform="translate(187.469063 203.644966)scale(0.12 -0.12)">
     <defs>
      <path id="DejaVuSans-42" d="M 1259 2228 
L 1259 519 
L 2272 519 
Q 2781 519 3026 730 
Q 3272 941 3272 1375 
Q 3272 1813 3026 2020 
Q 2781 2228 2272 2228 
L 1259 2228 
z
M 1259 4147 
L 1259 2741 
L 2194 2741 
Q 2656 2741 2882 2914 
Q 3109 3088 3109 3444 
Q 3109 3797 2882 3972 
Q 2656 4147 2194 4147 
L 1259 4147 
z
M 628 4666 
L 2241 4666 
Q 2963 4666 3353 4366 
Q 3744 4066 3744 3513 
Q 3744 3084 3544 2831 
Q 3344 2578 2956 2516 
Q 3422 2416 3680 2098 
Q 3938 1781 3938 1306 
Q 3938 681 3513 340 
Q 3088 0 2303 0 
L 628 0 
L 628 4666 
z
" transform="scale(0.015625)"/>
     </defs>
     <use xlink:href="#DejaVuSans-79"/>
     <use xlink:href="#DejaVuSans-42" x="59.179688"/>
     <use xlink:href="#DejaVuSans-20" x="127.783203"/>
     <use xlink:href="#DejaVuSans-2d" x="159.570312"/>
     <use xlink:href="#DejaVuSans-20" x="195.654297"/>
     <use xlink:href="#DejaVuSans-43" x="227.441406"/>
     <use xlink:href="#DejaVuSans-6f" x="297.265625"/>
     <use xlink:href="#DejaVuSans-6e" x="358.447266"/>
     <use xlink:href="#DejaVuSans-74" x="421.826172"/>
     <use xlink:href="#DejaVuSans-61" x="461.035156"/>
     <use xlink:href="#DejaVuSans-69" x="522.314453"/>
     <use xlink:href="#DejaVuSans-6e" x="550.097656"/>
     <use xlink:href="#DejaVuSans-65" x="613.476562"/>
     <use xlink:href="#DejaVuSans-72" x="675"/>
     <use xlink:href="#DejaVuSans-20" x="716.113281"/>
     <use xlink:href="#DejaVuSans-31" x="747.900391"/>
    </g>
   </g>
  </g>
  <g id="axes_6">
   <g id="patch_24">
    <path d="M 57.6 307.584 
L 414.72 307.584 
L 414.72 261.702621 
L 57.6 261.702621 
z
" style="fill: #ffffff"/>
   </g>
   <g id="matplotlib.axis_11">
    <g id="xtick_33">
     <g id="line2d_97">
      <g>
       <use xlink:href="#m3690283b8d" x="73.832727" y="307.584" style="stroke: #000000; stroke-width: 0.8"/>
      </g>
     </g>
     <g id="text_19">
      <!-- 0.0 -->
      <g transform="translate(65.881165 322.182437)scale(0.1 -0.1)">
       <use xlink:href="#DejaVuSans-30"/>
       <use xlink:href="#DejaVuSans-2e" x="63.623047"/>
       <use xlink:href="#DejaVuSans-30" x="95.410156"/>
      </g>
     </g>
    </g>
    <g id="xtick_34">
     <g id="line2d_98">
      <g>
       <use xlink:href="#m3690283b8d" x="116.550431" y="307.584" style="stroke: #000000; stroke-width: 0.8"/>
      </g>
     </g>
     <g id="text_20">
      <!-- 2.5 -->
      <g transform="translate(108.598868 322.182437)scale(0.1 -0.1)">
       <defs>
        <path id="DejaVuSans-32" d="M 1228 531 
L 3431 531 
L 3431 0 
L 469 0 
L 469 531 
Q 828 903 1448 1529 
Q 2069 2156 2228 2338 
Q 2531 2678 2651 2914 
Q 2772 3150 2772 3378 
Q 2772 3750 2511 3984 
Q 2250 4219 1831 4219 
Q 1534 4219 1204 4116 
Q 875 4013 500 3803 
L 500 4441 
Q 881 4594 1212 4672 
Q 1544 4750 1819 4750 
Q 2544 4750 2975 4387 
Q 3406 4025 3406 3419 
Q 3406 3131 3298 2873 
Q 3191 2616 2906 2266 
Q 2828 2175 2409 1742 
Q 1991 1309 1228 531 
z
" transform="scale(0.015625)"/>
       </defs>
       <use xlink:href="#DejaVuSans-32"/>
       <use xlink:href="#DejaVuSans-2e" x="63.623047"/>
       <use xlink:href="#DejaVuSans-35" x="95.410156"/>
      </g>
     </g>
    </g>
    <g id="xtick_35">
     <g id="line2d_99">
      <g>
       <use xlink:href="#m3690283b8d" x="159.268134" y="307.584" style="stroke: #000000; stroke-width: 0.8"/>
      </g>
     </g>
     <g id="text_21">
      <!-- 5.0 -->
      <g transform="translate(151.316571 322.182437)scale(0.1 -0.1)">
       <use xlink:href="#DejaVuSans-35"/>
       <use xlink:href="#DejaVuSans-2e" x="63.623047"/>
       <use xlink:href="#DejaVuSans-30" x="95.410156"/>
      </g>
     </g>
    </g>
    <g id="xtick_36">
     <g id="line2d_100">
      <g>
       <use xlink:href="#m3690283b8d" x="201.985837" y="307.584" style="stroke: #000000; stroke-width: 0.8"/>
      </g>
     </g>
     <g id="text_22">
      <!-- 7.5 -->
      <g transform="translate(194.034275 322.182437)scale(0.1 -0.1)">
       <defs>
        <path id="DejaVuSans-37" d="M 525 4666 
L 3525 4666 
L 3525 4397 
L 1831 0 
L 1172 0 
L 2766 4134 
L 525 4134 
L 525 4666 
z
" transform="scale(0.015625)"/>
       </defs>
       <use xlink:href="#DejaVuSans-37"/>
       <use xlink:href="#DejaVuSans-2e" x="63.623047"/>
       <use xlink:href="#DejaVuSans-35" x="95.410156"/>
      </g>
     </g>
    </g>
    <g id="xtick_37">
     <g id="line2d_101">
      <g>
       <use xlink:href="#m3690283b8d" x="244.703541" y="307.584" style="stroke: #000000; stroke-width: 0.8"/>
      </g>
     </g>
     <g id="text_23">
      <!-- 10.0 -->
      <g transform="translate(233.570728 322.182437)scale(0.1 -0.1)">
       <use xlink:href="#DejaVuSans-31"/>
       <use xlink:href="#DejaVuSans-30" x="63.623047"/>
       <use xlink:href="#DejaVuSans-2e" x="127.246094"/>
       <use xlink:href="#DejaVuSans-30" x="159.033203"/>
      </g>
     </g>
    </g>
    <g id="xtick_38">
     <g id="line2d_102">
      <g>
       <use xlink:href="#m3690283b8d" x="287.421244" y="307.584" style="stroke: #000000; stroke-width: 0.8"/>
      </g>
     </g>
     <g id="text_24">
      <!-- 12.5 -->
      <g transform="translate(276.288432 322.182437)scale(0.1 -0.1)">
       <use xlink:href="#DejaVuSans-31"/>
       <use xlink:href="#DejaVuSans-32" x="63.623047"/>
       <use xlink:href="#DejaVuSans-2e" x="127.246094"/>
       <use xlink:href="#DejaVuSans-35" x="159.033203"/>
      </g>
     </g>
    </g>
    <g id="xtick_39">
     <g id="line2d_103">
      <g>
       <use xlink:href="#m3690283b8d" x="330.138947" y="307.584" style="stroke: #000000; stroke-width: 0.8"/>
      </g>
     </g>
     <g id="text_25">
      <!-- 15.0 -->
      <g transform="translate(319.006135 322.182437)scale(0.1 -0.1)">
       <use xlink:href="#DejaVuSans-31"/>
       <use xlink:href="#DejaVuSans-35" x="63.623047"/>
       <use xlink:href="#DejaVuSans-2e" x="127.246094"/>
       <use xlink:href="#DejaVuSans-30" x="159.033203"/>
      </g>
     </g>
    </g>
    <g id="xtick_40">
     <g id="line2d_104">
      <g>
       <use xlink:href="#m3690283b8d" x="372.856651" y="307.584" style="stroke: #000000; stroke-width: 0.8"/>
      </g>
     </g>
     <g id="text_26">
      <!-- 17.5 -->
      <g transform="translate(361.723838 322.182437)scale(0.1 -0.1)">
       <use xlink:href="#DejaVuSans-31"/>
       <use xlink:href="#DejaVuSans-37" x="63.623047"/>
       <use xlink:href="#DejaVuSans-2e" x="127.246094"/>
       <use xlink:href="#DejaVuSans-35" x="159.033203"/>
      </g>
     </g>
    </g>
    <g id="text_27">
     <!-- position z -->
     <g transform="translate(212.142031 335.860562)scale(0.1 -0.1)">
      <defs>
       <path id="DejaVuSans-70" d="M 1159 525 
L 1159 -1331 
L 581 -1331 
L 581 3500 
L 1159 3500 
L 1159 2969 
Q 1341 3281 1617 3432 
Q 1894 3584 2278 3584 
Q 2916 3584 3314 3078 
Q 3713 2572 3713 1747 
Q 3713 922 3314 415 
Q 2916 -91 2278 -91 
Q 1894 -91 1617 61 
Q 1341 213 1159 525 
z
M 3116 1747 
Q 3116 2381 2855 2742 
Q 2594 3103 2138 3103 
Q 1681 3103 1420 2742 
Q 1159 2381 1159 1747 
Q 1159 1113 1420 752 
Q 1681 391 2138 391 
Q 2594 391 2855 752 
Q 3116 1113 3116 1747 
z
" transform="scale(0.015625)"/>
      </defs>
      <use xlink:href="#DejaVuSans-70"/>
      <use xlink:href="#DejaVuSans-6f" x="63.476562"/>
      <use xlink:href="#DejaVuSans-73" x="124.658203"/>
      <use xlink:href="#DejaVuSans-69" x="176.757812"/>
      <use xlink:href="#DejaVuSans-74" x="204.541016"/>
      <use xlink:href="#DejaVuSans-69" x="243.75"/>
      <use xlink:href="#DejaVuSans-6f" x="271.533203"/>
      <use xlink:href="#DejaVuSans-6e" x="332.714844"/>
      <use xlink:href="#DejaVuSans-20" x="396.09375"/>
      <use xlink:href="#DejaVuSans-7a" x="427.880859"/>
     </g>
    </g>
   </g>
   <g id="matplotlib.axis_12">
    <g id="ytick_13">
     <g id="line2d_105">
      <g>
       <use xlink:href="#m57f09ea672" x="57.6" y="295.242752" style="stroke: #000000; stroke-width: 0.8"/>
      </g>
     </g>
     <g id="text_28">
      <!-- 0.050 -->
      <g transform="translate(21.971875 299.04197)scale(0.1 -0.1)">
       <use xlink:href="#DejaVuSans-30"/>
       <use xlink:href="#DejaVuSans-2e" x="63.623047"/>
       <use xlink:href="#DejaVuSans-30" x="95.410156"/>
       <use xlink:href="#DejaVuSans-35" x="159.033203"/>
       <use xlink:href="#DejaVuSans-30" x="222.65625"/>
      </g>
     </g>
    </g>
    <g id="ytick_14">
     <g id="line2d_106">
      <g>
       <use xlink:href="#m57f09ea672" x="57.6" y="273.789737" style="stroke: #000000; stroke-width: 0.8"/>
      </g>
     </g>
     <g id="text_29">
      <!-- 0.055 -->
      <g transform="translate(21.971875 277.588955)scale(0.1 -0.1)">
       <use xlink:href="#DejaVuSans-30"/>
       <use xlink:href="#DejaVuSans-2e" x="63.623047"/>
       <use xlink:href="#DejaVuSans-30" x="95.410156"/>
       <use xlink:href="#DejaVuSans-35" x="159.033203"/>
       <use xlink:href="#DejaVuSans-35" x="222.65625"/>
      </g>
     </g>
    </g>
   </g>
   <g id="line2d_107">
    <path d="M 73.832727 268.191796 
L 90.919809 267.849021 
L 108.00689 267.489091 
L 125.093971 267.154458 
L 142.181053 266.846542 
L 159.268134 266.563864 
L 176.355215 266.304689 
L 193.442297 266.066973 
L 210.529378 265.848278 
L 227.616459 265.645764 
L 244.703541 265.456231 
L 261.790622 265.276189 
L 278.877703 265.101968 
L 295.964785 264.929857 
L 313.051866 264.756282 
L 330.138947 264.578027 
L 347.226029 264.392488 
L 364.31311 264.197946 
L 381.400191 263.993987 
L 398.487273 263.788138 
" clip-path="url(#p7ee4b60c5c)" style="fill: none; stroke: #1f77b4; stroke-width: 1.5; stroke-linecap: square"/>
   </g>
   <g id="line2d_108">
    <path d="M 73.832727 295.325741 
L 90.919809 295.833185 
L 108.00689 296.396157 
L 125.093971 296.921295 
L 142.181053 297.420948 
L 159.268134 297.918797 
L 176.355215 298.430473 
L 193.442297 298.964083 
L 210.529378 299.523493 
L 227.616459 300.110429 
L 244.703541 300.725489 
L 261.790622 301.368628 
L 278.877703 302.039335 
L 295.964785 302.736131 
L 313.051866 303.454021 
L 330.138947 304.176246 
L 347.226029 304.852596 
L 364.31311 305.360079 
L 381.400191 305.498483 
L 398.487273 305.231953 
" clip-path="url(#p7ee4b60c5c)" style="fill: none; stroke: #ff7f0e; stroke-width: 1.5; stroke-linecap: square"/>
   </g>
   <g id="line2d_109">
    <path d="M 73.832727 295.162998 
L 90.919809 295.13018 
L 108.00689 295.135951 
L 125.093971 295.165608 
L 142.181053 295.20646 
L 159.268134 295.250512 
L 176.355215 295.293965 
L 193.442297 295.336338 
L 210.529378 295.379718 
L 227.616459 295.42808 
L 244.703541 295.486554 
L 261.790622 295.560675 
L 278.877703 295.655674 
L 295.964785 295.775904 
L 313.051866 295.9244 
L 330.138947 296.102481 
L 347.226029 296.309286 
L 364.31311 296.541339 
L 381.400191 296.793087 
L 398.487273 297.05908 
" clip-path="url(#p7ee4b60c5c)" style="fill: none; stroke: #2ca02c; stroke-width: 1.5; stroke-linecap: square"/>
   </g>
   <g id="line2d_110">
    <path d="M 73.832727 295.232993 
L 90.919809 295.21845 
L 108.00689 295.201962 
L 125.093971 295.185718 
L 142.181053 295.170935 
L 159.268134 295.158067 
L 176.355215 295.147068 
L 193.442297 295.137628 
L 210.529378 295.129327 
L 227.616459 295.121724 
L 244.703541 295.114388 
L 261.790622 295.106899 
L 278.877703 295.09882 
L 295.964785 295.089673 
L 313.051866 295.078908 
L 330.138947 295.065885 
L 347.226029 295.049865 
L 364.31311 295.030007 
L 381.400191 295.005434 
L 398.487273 294.97601 
" clip-path="url(#p7ee4b60c5c)" style="fill: none; stroke: #d62728; stroke-width: 1.5; stroke-linecap: square"/>
   </g>
   <g id="line2d_111">
    <path d="M 73.832727 295.09501 
L 90.919809 295.087899 
L 108.00689 295.078649 
L 125.093971 295.06806 
L 142.181053 295.056787 
L 159.268134 295.045328 
L 176.355215 295.034009 
L 193.442297 295.023007 
L 210.529378 295.012368 
L 227.616459 295.002042 
L 244.703541 294.991898 
L 261.790622 294.981744 
L 278.877703 294.971323 
L 295.964785 294.960318 
L 313.051866 294.948346 
L 330.138947 294.934947 
L 347.226029 294.919585 
L 364.31311 294.901645 
L 381.400191 294.88046 
L 398.487273 294.855889 
" clip-path="url(#p7ee4b60c5c)" style="fill: none; stroke: #9467bd; stroke-width: 1.5; stroke-linecap: square"/>
   </g>
   <g id="line2d_112">
    <path d="M 73.832727 291.91235 
L 90.919809 291.90418 
L 108.00689 291.893565 
L 125.093971 291.881442 
L 142.181053 291.868545 
L 159.268134 291.855425 
L 176.355215 291.842445 
L 193.442297 291.829798 
L 210.529378 291.817536 
L 227.616459 291.805603 
L 244.703541 291.793854 
L 261.790622 291.782075 
L 278.877703 291.769981 
L 295.964785 291.757223 
L 313.051866 291.743373 
L 330.138947 291.727928 
L 347.226029 291.710296 
L 364.31311 291.689803 
L 381.400191 291.665726 
L 398.487273 291.638097 
" clip-path="url(#p7ee4b60c5c)" style="fill: none; stroke: #8c564b; stroke-width: 1.5; stroke-linecap: square"/>
   </g>
   <g id="line2d_113">
    <path d="M 73.832727 291.6137 
L 90.919809 291.605534 
L 108.00689 291.594903 
L 125.093971 291.582775 
L 142.181053 291.56989 
L 159.268134 291.556802 
L 176.355215 291.543876 
L 193.442297 291.531306 
L 210.529378 291.519147 
L 227.616459 291.507341 
L 244.703541 291.495745 
L 261.790622 291.48414 
L 278.877703 291.472242 
L 295.964785 291.459698 
L 313.051866 291.446079 
L 330.138947 291.430878 
L 347.226029 291.4135 
L 364.31311 291.393268 
L 381.400191 291.369459 
L 398.487273 291.342212 
" clip-path="url(#p7ee4b60c5c)" style="fill: none; stroke: #e377c2; stroke-width: 1.5; stroke-linecap: square"/>
   </g>
   <g id="line2d_114">
    <path d="M 73.832727 291.606942 
L 90.919809 291.598815 
L 108.00689 291.588196 
L 125.093971 291.57608 
L 142.181053 291.563205 
L 159.268134 291.550126 
L 176.355215 291.537209 
L 193.442297 291.524648 
L 210.529378 291.512497 
L 227.616459 291.5007 
L 244.703541 291.489111 
L 261.790622 291.477515 
L 278.877703 291.465626 
L 295.964785 291.453091 
L 313.051866 291.439482 
L 330.138947 291.42429 
L 347.226029 291.406921 
L 364.31311 291.386697 
L 381.400191 291.362894 
L 398.487273 291.335773 
" clip-path="url(#p7ee4b60c5c)" style="fill: none; stroke: #7f7f7f; stroke-width: 1.5; stroke-linecap: square"/>
   </g>
   <g id="line2d_115">
    <path d="M 73.832727 279.778131 
L 90.919809 279.843255 
L 108.00689 279.901456 
L 125.093971 279.953265 
L 142.181053 279.999727 
L 159.268134 280.041628 
L 176.355215 280.079493 
L 193.442297 280.113613 
L 210.529378 280.144096 
L 227.616459 280.170898 
L 244.703541 280.19386 
L 261.790622 280.212723 
L 278.877703 280.227135 
L 295.964785 280.236647 
L 313.051866 280.240705 
L 330.138947 280.23864 
L 347.226029 280.229667 
L 364.31311 280.212879 
L 381.400191 280.187325 
L 398.487273 280.153574 
" clip-path="url(#p7ee4b60c5c)" style="fill: none; stroke: #bcbd22; stroke-width: 1.5; stroke-linecap: square"/>
   </g>
   <g id="line2d_116">
    <path d="M 73.832727 269.117525 
L 90.919809 268.926208 
L 108.00689 268.760792 
L 125.093971 268.617583 
L 142.181053 268.493825 
L 159.268134 268.387124 
L 176.355215 268.295289 
L 193.442297 268.216276 
L 210.529378 268.148163 
L 227.616459 268.089144 
L 244.703541 268.037522 
L 261.790622 267.991689 
L 278.877703 267.950104 
L 295.964785 267.911262 
L 313.051866 267.87366 
L 330.138947 267.835768 
L 347.226029 267.796006 
L 364.31311 267.752737 
L 381.400191 267.704357 
L 398.487273 267.651448 
" clip-path="url(#p7ee4b60c5c)" style="fill: none; stroke: #17becf; stroke-width: 1.5; stroke-linecap: square"/>
   </g>
   <g id="line2d_117">
    <path d="M 73.832727 268.266846 
L 90.919809 267.913644 
L 108.00689 267.584806 
L 125.093971 267.287044 
L 142.181053 267.017948 
L 159.268134 266.775218 
L 176.355215 266.556705 
L 193.442297 266.360362 
L 210.529378 266.184226 
L 227.616459 266.026417 
L 244.703541 265.885142 
L 261.790622 265.758674 
L 278.877703 265.645345 
L 295.964785 265.543509 
L 313.051866 265.451519 
L 330.138947 265.367698 
L 347.226029 265.290317 
L 364.31311 265.217592 
L 381.400191 265.14778 
L 398.487273 265.081437 
" clip-path="url(#p7ee4b60c5c)" style="fill: none; stroke: #1f77b4; stroke-width: 1.5; stroke-linecap: square"/>
   </g>
   <g id="line2d_118">
    <path d="M 73.832727 268.1792 
L 90.919809 267.815967 
L 108.00689 267.461696 
L 125.093971 267.138087 
L 142.181053 266.843731 
L 159.268134 266.576528 
L 176.355215 266.334486 
L 193.442297 266.115702 
L 210.529378 265.918345 
L 227.616459 265.740651 
L 244.703541 265.580929 
L 261.790622 265.437546 
L 278.877703 265.308909 
L 295.964785 265.19344 
L 313.051866 265.089547 
L 330.138947 264.995593 
L 347.226029 264.909883 
L 364.31311 264.830654 
L 381.400191 264.756158 
L 398.487273 264.686898 
" clip-path="url(#p7ee4b60c5c)" style="fill: none; stroke: #ff7f0e; stroke-width: 1.5; stroke-linecap: square"/>
   </g>
   <g id="line2d_119">
    <path d="M 73.832727 268.153016 
L 90.919809 267.803064 
L 108.00689 267.446395 
L 125.093971 267.118896 
L 142.181053 266.820649 
L 159.268134 266.549663 
L 176.355215 266.303975 
L 193.442297 266.081703 
L 210.529378 265.881035 
L 227.616459 265.700228 
L 244.703541 265.537608 
L 261.790622 265.391559 
L 278.877703 265.260503 
L 295.964785 265.142874 
L 313.051866 265.03709 
L 330.138947 264.941525 
L 347.226029 264.854489 
L 364.31311 264.774222 
L 381.400191 264.698958 
L 398.487273 264.629139 
" clip-path="url(#p7ee4b60c5c)" style="fill: none; stroke: #2ca02c; stroke-width: 1.5; stroke-linecap: square"/>
   </g>
   <g id="patch_25">
    <path d="M 57.6 307.584 
L 57.6 261.702621 
" style="fill: none; stroke: #000000; stroke-width: 0.8; stroke-linejoin: miter; stroke-linecap: square"/>
   </g>
   <g id="patch_26">
    <path d="M 414.72 307.584 
L 414.72 261.702621 
" style="fill: none; stroke: #000000; stroke-width: 0.8; stroke-linejoin: miter; stroke-linecap: square"/>
   </g>
   <g id="patch_27">
    <path d="M 57.6 307.584 
L 414.72 307.584 
" style="fill: none; stroke: #000000; stroke-width: 0.8; stroke-linejoin: miter; stroke-linecap: square"/>
   </g>
   <g id="patch_28">
    <path d="M 57.6 261.702621 
L 414.72 261.702621 
" style="fill: none; stroke: #000000; stroke-width: 0.8; stroke-linejoin: miter; stroke-linecap: square"/>
   </g>
   <g id="text_30">
    <!-- yC - Container 1 -->
    <g transform="translate(187.395938 258.702621)scale(0.12 -0.12)">
     <use xlink:href="#DejaVuSans-79"/>
     <use xlink:href="#DejaVuSans-43" x="59.179688"/>
     <use xlink:href="#DejaVuSans-20" x="129.003906"/>
     <use xlink:href="#DejaVuSans-2d" x="160.791016"/>
     <use xlink:href="#DejaVuSans-20" x="196.875"/>
     <use xlink:href="#DejaVuSans-43" x="228.662109"/>
     <use xlink:href="#DejaVuSans-6f" x="298.486328"/>
     <use xlink:href="#DejaVuSans-6e" x="359.667969"/>
     <use xlink:href="#DejaVuSans-74" x="423.046875"/>
     <use xlink:href="#DejaVuSans-61" x="462.255859"/>
     <use xlink:href="#DejaVuSans-69" x="523.535156"/>
     <use xlink:href="#DejaVuSans-6e" x="551.318359"/>
     <use xlink:href="#DejaVuSans-65" x="614.697266"/>
     <use xlink:href="#DejaVuSans-72" x="676.220703"/>
     <use xlink:href="#DejaVuSans-20" x="717.333984"/>
     <use xlink:href="#DejaVuSans-31" x="749.121094"/>
    </g>
   </g>
  </g>
  <g id="legend_1">
   <g id="patch_29">
    <path d="M 372.146875 269.707812 
L 457.8 269.707812 
Q 459.8 269.707812 459.8 267.707812 
L 459.8 77.892187 
Q 459.8 75.892187 457.8 75.892187 
L 372.146875 75.892187 
Q 370.146875 75.892187 370.146875 77.892187 
L 370.146875 267.707812 
Q 370.146875 269.707812 372.146875 269.707812 
z
" style="fill: #ffffff; opacity: 0.8; stroke: #cccccc; stroke-linejoin: miter"/>
   </g>
   <g id="line2d_120">
    <path d="M 374.146875 83.990625 
L 384.146875 83.990625 
L 394.146875 83.990625 
" style="fill: none; stroke: #1f77b4; stroke-width: 1.5; stroke-linecap: square"/>
   </g>
   <g id="text_31">
    <!-- t=0.0000 -->
    <g transform="translate(402.146875 87.490625)scale(0.1 -0.1)">
     <defs>
      <path id="DejaVuSans-3d" d="M 678 2906 
L 4684 2906 
L 4684 2381 
L 678 2381 
L 678 2906 
z
M 678 1631 
L 4684 1631 
L 4684 1100 
L 678 1100 
L 678 1631 
z
" transform="scale(0.015625)"/>
     </defs>
     <use xlink:href="#DejaVuSans-74"/>
     <use xlink:href="#DejaVuSans-3d" x="39.208984"/>
     <use xlink:href="#DejaVuSans-30" x="122.998047"/>
     <use xlink:href="#DejaVuSans-2e" x="186.621094"/>
     <use xlink:href="#DejaVuSans-30" x="218.408203"/>
     <use xlink:href="#DejaVuSans-30" x="282.03125"/>
     <use xlink:href="#DejaVuSans-30" x="345.654297"/>
     <use xlink:href="#DejaVuSans-30" x="409.277344"/>
    </g>
   </g>
   <g id="line2d_121">
    <path d="M 374.146875 98.66875 
L 384.146875 98.66875 
L 394.146875 98.66875 
" style="fill: none; stroke: #ff7f0e; stroke-width: 1.5; stroke-linecap: square"/>
   </g>
   <g id="text_32">
    <!-- t=8.0000 -->
    <g transform="translate(402.146875 102.16875)scale(0.1 -0.1)">
     <use xlink:href="#DejaVuSans-74"/>
     <use xlink:href="#DejaVuSans-3d" x="39.208984"/>
     <use xlink:href="#DejaVuSans-38" x="122.998047"/>
     <use xlink:href="#DejaVuSans-2e" x="186.621094"/>
     <use xlink:href="#DejaVuSans-30" x="218.408203"/>
     <use xlink:href="#DejaVuSans-30" x="282.03125"/>
     <use xlink:href="#DejaVuSans-30" x="345.654297"/>
     <use xlink:href="#DejaVuSans-30" x="409.277344"/>
    </g>
   </g>
   <g id="line2d_122">
    <path d="M 374.146875 113.346875 
L 384.146875 113.346875 
L 394.146875 113.346875 
" style="fill: none; stroke: #2ca02c; stroke-width: 1.5; stroke-linecap: square"/>
   </g>
   <g id="text_33">
    <!-- t=16.0000 -->
    <g transform="translate(402.146875 116.846875)scale(0.1 -0.1)">
     <defs>
      <path id="DejaVuSans-36" d="M 2113 2584 
Q 1688 2584 1439 2293 
Q 1191 2003 1191 1497 
Q 1191 994 1439 701 
Q 1688 409 2113 409 
Q 2538 409 2786 701 
Q 3034 994 3034 1497 
Q 3034 2003 2786 2293 
Q 2538 2584 2113 2584 
z
M 3366 4563 
L 3366 3988 
Q 3128 4100 2886 4159 
Q 2644 4219 2406 4219 
Q 1781 4219 1451 3797 
Q 1122 3375 1075 2522 
Q 1259 2794 1537 2939 
Q 1816 3084 2150 3084 
Q 2853 3084 3261 2657 
Q 3669 2231 3669 1497 
Q 3669 778 3244 343 
Q 2819 -91 2113 -91 
Q 1303 -91 875 529 
Q 447 1150 447 2328 
Q 447 3434 972 4092 
Q 1497 4750 2381 4750 
Q 2619 4750 2861 4703 
Q 3103 4656 3366 4563 
z
" transform="scale(0.015625)"/>
     </defs>
     <use xlink:href="#DejaVuSans-74"/>
     <use xlink:href="#DejaVuSans-3d" x="39.208984"/>
     <use xlink:href="#DejaVuSans-31" x="122.998047"/>
     <use xlink:href="#DejaVuSans-36" x="186.621094"/>
     <use xlink:href="#DejaVuSans-2e" x="250.244141"/>
     <use xlink:href="#DejaVuSans-30" x="282.03125"/>
     <use xlink:href="#DejaVuSans-30" x="345.654297"/>
     <use xlink:href="#DejaVuSans-30" x="409.277344"/>
     <use xlink:href="#DejaVuSans-30" x="472.900391"/>
    </g>
   </g>
   <g id="line2d_123">
    <path d="M 374.146875 128.025 
L 384.146875 128.025 
L 394.146875 128.025 
" style="fill: none; stroke: #d62728; stroke-width: 1.5; stroke-linecap: square"/>
   </g>
   <g id="text_34">
    <!-- t=24.0000 -->
    <g transform="translate(402.146875 131.525)scale(0.1 -0.1)">
     <defs>
      <path id="DejaVuSans-34" d="M 2419 4116 
L 825 1625 
L 2419 1625 
L 2419 4116 
z
M 2253 4666 
L 3047 4666 
L 3047 1625 
L 3713 1625 
L 3713 1100 
L 3047 1100 
L 3047 0 
L 2419 0 
L 2419 1100 
L 313 1100 
L 313 1709 
L 2253 4666 
z
" transform="scale(0.015625)"/>
     </defs>
     <use xlink:href="#DejaVuSans-74"/>
     <use xlink:href="#DejaVuSans-3d" x="39.208984"/>
     <use xlink:href="#DejaVuSans-32" x="122.998047"/>
     <use xlink:href="#DejaVuSans-34" x="186.621094"/>
     <use xlink:href="#DejaVuSans-2e" x="250.244141"/>
     <use xlink:href="#DejaVuSans-30" x="282.03125"/>
     <use xlink:href="#DejaVuSans-30" x="345.654297"/>
     <use xlink:href="#DejaVuSans-30" x="409.277344"/>
     <use xlink:href="#DejaVuSans-30" x="472.900391"/>
    </g>
   </g>
   <g id="line2d_124">
    <path d="M 374.146875 142.703125 
L 384.146875 142.703125 
L 394.146875 142.703125 
" style="fill: none; stroke: #9467bd; stroke-width: 1.5; stroke-linecap: square"/>
   </g>
   <g id="text_35">
    <!-- t=32.0000 -->
    <g transform="translate(402.146875 146.203125)scale(0.1 -0.1)">
     <defs>
      <path id="DejaVuSans-33" d="M 2597 2516 
Q 3050 2419 3304 2112 
Q 3559 1806 3559 1356 
Q 3559 666 3084 287 
Q 2609 -91 1734 -91 
Q 1441 -91 1130 -33 
Q 819 25 488 141 
L 488 750 
Q 750 597 1062 519 
Q 1375 441 1716 441 
Q 2309 441 2620 675 
Q 2931 909 2931 1356 
Q 2931 1769 2642 2001 
Q 2353 2234 1838 2234 
L 1294 2234 
L 1294 2753 
L 1863 2753 
Q 2328 2753 2575 2939 
Q 2822 3125 2822 3475 
Q 2822 3834 2567 4026 
Q 2313 4219 1838 4219 
Q 1578 4219 1281 4162 
Q 984 4106 628 3988 
L 628 4550 
Q 988 4650 1302 4700 
Q 1616 4750 1894 4750 
Q 2613 4750 3031 4423 
Q 3450 4097 3450 3541 
Q 3450 3153 3228 2886 
Q 3006 2619 2597 2516 
z
" transform="scale(0.015625)"/>
     </defs>
     <use xlink:href="#DejaVuSans-74"/>
     <use xlink:href="#DejaVuSans-3d" x="39.208984"/>
     <use xlink:href="#DejaVuSans-33" x="122.998047"/>
     <use xlink:href="#DejaVuSans-32" x="186.621094"/>
     <use xlink:href="#DejaVuSans-2e" x="250.244141"/>
     <use xlink:href="#DejaVuSans-30" x="282.03125"/>
     <use xlink:href="#DejaVuSans-30" x="345.654297"/>
     <use xlink:href="#DejaVuSans-30" x="409.277344"/>
     <use xlink:href="#DejaVuSans-30" x="472.900391"/>
    </g>
   </g>
   <g id="line2d_125">
    <path d="M 374.146875 157.38125 
L 384.146875 157.38125 
L 394.146875 157.38125 
" style="fill: none; stroke: #8c564b; stroke-width: 1.5; stroke-linecap: square"/>
   </g>
   <g id="text_36">
    <!-- t=40.0000 -->
    <g transform="translate(402.146875 160.88125)scale(0.1 -0.1)">
     <use xlink:href="#DejaVuSans-74"/>
     <use xlink:href="#DejaVuSans-3d" x="39.208984"/>
     <use xlink:href="#DejaVuSans-34" x="122.998047"/>
     <use xlink:href="#DejaVuSans-30" x="186.621094"/>
     <use xlink:href="#DejaVuSans-2e" x="250.244141"/>
     <use xlink:href="#DejaVuSans-30" x="282.03125"/>
     <use xlink:href="#DejaVuSans-30" x="345.654297"/>
     <use xlink:href="#DejaVuSans-30" x="409.277344"/>
     <use xlink:href="#DejaVuSans-30" x="472.900391"/>
    </g>
   </g>
   <g id="line2d_126">
    <path d="M 374.146875 172.059375 
L 384.146875 172.059375 
L 394.146875 172.059375 
" style="fill: none; stroke: #e377c2; stroke-width: 1.5; stroke-linecap: square"/>
   </g>
   <g id="text_37">
    <!-- t=48.0000 -->
    <g transform="translate(402.146875 175.559375)scale(0.1 -0.1)">
     <use xlink:href="#DejaVuSans-74"/>
     <use xlink:href="#DejaVuSans-3d" x="39.208984"/>
     <use xlink:href="#DejaVuSans-34" x="122.998047"/>
     <use xlink:href="#DejaVuSans-38" x="186.621094"/>
     <use xlink:href="#DejaVuSans-2e" x="250.244141"/>
     <use xlink:href="#DejaVuSans-30" x="282.03125"/>
     <use xlink:href="#DejaVuSans-30" x="345.654297"/>
     <use xlink:href="#DejaVuSans-30" x="409.277344"/>
     <use xlink:href="#DejaVuSans-30" x="472.900391"/>
    </g>
   </g>
   <g id="line2d_127">
    <path d="M 374.146875 186.7375 
L 384.146875 186.7375 
L 394.146875 186.7375 
" style="fill: none; stroke: #7f7f7f; stroke-width: 1.5; stroke-linecap: square"/>
   </g>
   <g id="text_38">
    <!-- t=56.0000 -->
    <g transform="translate(402.146875 190.2375)scale(0.1 -0.1)">
     <use xlink:href="#DejaVuSans-74"/>
     <use xlink:href="#DejaVuSans-3d" x="39.208984"/>
     <use xlink:href="#DejaVuSans-35" x="122.998047"/>
     <use xlink:href="#DejaVuSans-36" x="186.621094"/>
     <use xlink:href="#DejaVuSans-2e" x="250.244141"/>
     <use xlink:href="#DejaVuSans-30" x="282.03125"/>
     <use xlink:href="#DejaVuSans-30" x="345.654297"/>
     <use xlink:href="#DejaVuSans-30" x="409.277344"/>
     <use xlink:href="#DejaVuSans-30" x="472.900391"/>
    </g>
   </g>
   <g id="line2d_128">
    <path d="M 374.146875 201.415625 
L 384.146875 201.415625 
L 394.146875 201.415625 
" style="fill: none; stroke: #bcbd22; stroke-width: 1.5; stroke-linecap: square"/>
   </g>
   <g id="text_39">
    <!-- t=64.0000 -->
    <g transform="translate(402.146875 204.915625)scale(0.1 -0.1)">
     <use xlink:href="#DejaVuSans-74"/>
     <use xlink:href="#DejaVuSans-3d" x="39.208984"/>
     <use xlink:href="#DejaVuSans-36" x="122.998047"/>
     <use xlink:href="#DejaVuSans-34" x="186.621094"/>
     <use xlink:href="#DejaVuSans-2e" x="250.244141"/>
     <use xlink:href="#DejaVuSans-30" x="282.03125"/>
     <use xlink:href="#DejaVuSans-30" x="345.654297"/>
     <use xlink:href="#DejaVuSans-30" x="409.277344"/>
     <use xlink:href="#DejaVuSans-30" x="472.900391"/>
    </g>
   </g>
   <g id="line2d_129">
    <path d="M 374.146875 216.09375 
L 384.146875 216.09375 
L 394.146875 216.09375 
" style="fill: none; stroke: #17becf; stroke-width: 1.5; stroke-linecap: square"/>
   </g>
   <g id="text_40">
    <!-- t=72.0000 -->
    <g transform="translate(402.146875 219.59375)scale(0.1 -0.1)">
     <use xlink:href="#DejaVuSans-74"/>
     <use xlink:href="#DejaVuSans-3d" x="39.208984"/>
     <use xlink:href="#DejaVuSans-37" x="122.998047"/>
     <use xlink:href="#DejaVuSans-32" x="186.621094"/>
     <use xlink:href="#DejaVuSans-2e" x="250.244141"/>
     <use xlink:href="#DejaVuSans-30" x="282.03125"/>
     <use xlink:href="#DejaVuSans-30" x="345.654297"/>
     <use xlink:href="#DejaVuSans-30" x="409.277344"/>
     <use xlink:href="#DejaVuSans-30" x="472.900391"/>
    </g>
   </g>
   <g id="line2d_130">
    <path d="M 374.146875 230.771875 
L 384.146875 230.771875 
L 394.146875 230.771875 
" style="fill: none; stroke: #1f77b4; stroke-width: 1.5; stroke-linecap: square"/>
   </g>
   <g id="text_41">
    <!-- t=80.0000 -->
    <g transform="translate(402.146875 234.271875)scale(0.1 -0.1)">
     <use xlink:href="#DejaVuSans-74"/>
     <use xlink:href="#DejaVuSans-3d" x="39.208984"/>
     <use xlink:href="#DejaVuSans-38" x="122.998047"/>
     <use xlink:href="#DejaVuSans-30" x="186.621094"/>
     <use xlink:href="#DejaVuSans-2e" x="250.244141"/>
     <use xlink:href="#DejaVuSans-30" x="282.03125"/>
     <use xlink:href="#DejaVuSans-30" x="345.654297"/>
     <use xlink:href="#DejaVuSans-30" x="409.277344"/>
     <use xlink:href="#DejaVuSans-30" x="472.900391"/>
    </g>
   </g>
   <g id="line2d_131">
    <path d="M 374.146875 245.45 
L 384.146875 245.45 
L 394.146875 245.45 
" style="fill: none; stroke: #ff7f0e; stroke-width: 1.5; stroke-linecap: square"/>
   </g>
   <g id="text_42">
    <!-- t=88.0000 -->
    <g transform="translate(402.146875 248.95)scale(0.1 -0.1)">
     <use xlink:href="#DejaVuSans-74"/>
     <use xlink:href="#DejaVuSans-3d" x="39.208984"/>
     <use xlink:href="#DejaVuSans-38" x="122.998047"/>
     <use xlink:href="#DejaVuSans-38" x="186.621094"/>
     <use xlink:href="#DejaVuSans-2e" x="250.244141"/>
     <use xlink:href="#DejaVuSans-30" x="282.03125"/>
     <use xlink:href="#DejaVuSans-30" x="345.654297"/>
     <use xlink:href="#DejaVuSans-30" x="409.277344"/>
     <use xlink:href="#DejaVuSans-30" x="472.900391"/>
    </g>
   </g>
   <g id="line2d_132">
    <path d="M 374.146875 260.128125 
L 384.146875 260.128125 
L 394.146875 260.128125 
" style="fill: none; stroke: #2ca02c; stroke-width: 1.5; stroke-linecap: square"/>
   </g>
   <g id="text_43">
    <!-- t=96.0000 -->
    <g transform="translate(402.146875 263.628125)scale(0.1 -0.1)">
     <use xlink:href="#DejaVuSans-74"/>
     <use xlink:href="#DejaVuSans-3d" x="39.208984"/>
     <use xlink:href="#DejaVuSans-39" x="122.998047"/>
     <use xlink:href="#DejaVuSans-36" x="186.621094"/>
     <use xlink:href="#DejaVuSans-2e" x="250.244141"/>
     <use xlink:href="#DejaVuSans-30" x="282.03125"/>
     <use xlink:href="#DejaVuSans-30" x="345.654297"/>
     <use xlink:href="#DejaVuSans-30" x="409.277344"/>
     <use xlink:href="#DejaVuSans-30" x="472.900391"/>
    </g>
   </g>
  </g>
 </g>
 <defs>
  <clipPath id="p822d67f518">
   <rect x="57.6" y="41.472" width="357.12" height="45.881379"/>
  </clipPath>
  <clipPath id="p919c5b8a8e">
   <rect x="57.6" y="96.529655" width="357.12" height="45.881379"/>
  </clipPath>
  <clipPath id="p63136012d2">
   <rect x="57.6" y="151.58731" width="357.12" height="45.881379"/>
  </clipPath>
  <clipPath id="p767c6b8ff0">
   <rect x="57.6" y="206.644966" width="357.12" height="45.881379"/>
  </clipPath>
  <clipPath id="p7ee4b60c5c">
   <rect x="57.6" y="261.702621" width="357.12" height="45.881379"/>
  </clipPath>
 </defs>
</svg>
