<?xml version="1.0" encoding="utf-8" standalone="no"?>
<!DOCTYPE svg PUBLIC "-//W3C//DTD SVG 1.1//EN"
  "http://www.w3.org/Graphics/SVG/1.1/DTD/svg11.dtd">
<svg xmlns:xlink="http://www.w3.org/1999/xlink" width="460.8pt" height="345.6pt" viewBox="0 0 460.8 345.6" xmlns="http://www.w3.org/2000/svg" version="1.1">
 <metadata>
  <rdf:RDF xmlns:dc="http://purl.org/dc/elements/1.1/" xmlns:cc="http://creativecommons.org/ns#" xmlns:rdf="http://www.w3.org/1999/02/22-rdf-syntax-ns#">
   <cc:Work>
    <dc:type rdf:resource="http://purl.org/dc/dcmitype/StillImage"/>
    <dc:date>2022-07-10T00:04:45.953178</dc:date>
    <dc:format>image/svg+xml</dc:format>
    <dc:creator>
     <cc:Agent>
      <dc:title>Matplotlib v3.5.2, https://matplotlib.org/</dc:title>
     </cc:Agent>
    </dc:creator>
   </cc:Work>
  </rdf:RDF>
 </metadata>
 <defs>
  <style type="text/css">*{stroke-linejoin: round; stroke-linecap: butt}</style>
 </defs>
 <g id="figure_1">
  <g id="patch_1">
   <path d="M 0 345.6 
L 460.8 345.6 
L 460.8 0 
L 0 0 
z
" style="fill: #ffffff"/>
  </g>
  <g id="axes_1">
   <g id="patch_2">
    <path d="M 57.6 87.353379 
L 414.72 87.353379 
L 414.72 41.472 
L 57.6 41.472 
z
" style="fill: #ffffff"/>
   </g>
   <g id="matplotlib.axis_1">
    <g id="xtick_1">
     <g id="line2d_1">
      <defs>
       <path id="ma32f7b01cc" d="M 0 0 
L 0 3.5 
" style="stroke: #000000; stroke-width: 0.8"/>
      </defs>
      <g>
       <use xlink:href="#ma32f7b01cc" x="73.832727" y="87.353379" style="stroke: #000000; stroke-width: 0.8"/>
      </g>
     </g>
    </g>
    <g id="xtick_2">
     <g id="line2d_2">
      <g>
       <use xlink:href="#ma32f7b01cc" x="138.763636" y="87.353379" style="stroke: #000000; stroke-width: 0.8"/>
      </g>
     </g>
    </g>
    <g id="xtick_3">
     <g id="line2d_3">
      <g>
       <use xlink:href="#ma32f7b01cc" x="203.694545" y="87.353379" style="stroke: #000000; stroke-width: 0.8"/>
      </g>
     </g>
    </g>
    <g id="xtick_4">
     <g id="line2d_4">
      <g>
       <use xlink:href="#ma32f7b01cc" x="268.625455" y="87.353379" style="stroke: #000000; stroke-width: 0.8"/>
      </g>
     </g>
    </g>
    <g id="xtick_5">
     <g id="line2d_5">
      <g>
       <use xlink:href="#ma32f7b01cc" x="333.556364" y="87.353379" style="stroke: #000000; stroke-width: 0.8"/>
      </g>
     </g>
    </g>
    <g id="xtick_6">
     <g id="line2d_6">
      <g>
       <use xlink:href="#ma32f7b01cc" x="398.487273" y="87.353379" style="stroke: #000000; stroke-width: 0.8"/>
      </g>
     </g>
    </g>
   </g>
   <g id="matplotlib.axis_2">
    <g id="ytick_1">
     <g id="line2d_7">
      <defs>
       <path id="macc1f7d844" d="M 0 0 
L -3.5 0 
" style="stroke: #000000; stroke-width: 0.8"/>
      </defs>
      <g>
       <use xlink:href="#macc1f7d844" x="57.6" y="74.375994" style="stroke: #000000; stroke-width: 0.8"/>
      </g>
     </g>
     <g id="text_1">
      <!-- −1 -->
      <g transform="translate(35.857813 78.175213)scale(0.1 -0.1)">
       <defs>
        <path id="DejaVuSans-2212" d="M 678 2272 
L 4684 2272 
L 4684 1741 
L 678 1741 
L 678 2272 
z
" transform="scale(0.015625)"/>
        <path id="DejaVuSans-31" d="M 794 531 
L 1825 531 
L 1825 4091 
L 703 3866 
L 703 4441 
L 1819 4666 
L 2450 4666 
L 2450 531 
L 3481 531 
L 3481 0 
L 794 0 
L 794 531 
z
" transform="scale(0.015625)"/>
       </defs>
       <use xlink:href="#DejaVuSans-2212"/>
       <use xlink:href="#DejaVuSans-31" x="83.789062"/>
      </g>
     </g>
    </g>
    <g id="ytick_2">
     <g id="line2d_8">
      <g>
       <use xlink:href="#macc1f7d844" x="57.6" y="58.989135" style="stroke: #000000; stroke-width: 0.8"/>
      </g>
     </g>
     <g id="text_2">
      <!-- 0 -->
      <g transform="translate(44.2375 62.788353)scale(0.1 -0.1)">
       <defs>
        <path id="DejaVuSans-30" d="M 2034 4250 
Q 1547 4250 1301 3770 
Q 1056 3291 1056 2328 
Q 1056 1369 1301 889 
Q 1547 409 2034 409 
Q 2525 409 2770 889 
Q 3016 1369 3016 2328 
Q 3016 3291 2770 3770 
Q 2525 4250 2034 4250 
z
M 2034 4750 
Q 2819 4750 3233 4129 
Q 3647 3509 3647 2328 
Q 3647 1150 3233 529 
Q 2819 -91 2034 -91 
Q 1250 -91 836 529 
Q 422 1150 422 2328 
Q 422 3509 836 4129 
Q 1250 4750 2034 4750 
z
" transform="scale(0.015625)"/>
       </defs>
       <use xlink:href="#DejaVuSans-30"/>
      </g>
     </g>
    </g>
    <g id="ytick_3">
     <g id="line2d_9">
      <g>
       <use xlink:href="#macc1f7d844" x="57.6" y="43.602275" style="stroke: #000000; stroke-width: 0.8"/>
      </g>
     </g>
     <g id="text_3">
      <!-- 1 -->
      <g transform="translate(44.2375 47.401494)scale(0.1 -0.1)">
       <use xlink:href="#DejaVuSans-31"/>
      </g>
     </g>
    </g>
    <g id="text_4">
     <!-- flow rate (normalized) -->
     <g transform="translate(29.778125 119.729877)rotate(-90)scale(0.1 -0.1)">
      <defs>
       <path id="DejaVuSans-66" d="M 2375 4863 
L 2375 4384 
L 1825 4384 
Q 1516 4384 1395 4259 
Q 1275 4134 1275 3809 
L 1275 3500 
L 2222 3500 
L 2222 3053 
L 1275 3053 
L 1275 0 
L 697 0 
L 697 3053 
L 147 3053 
L 147 3500 
L 697 3500 
L 697 3744 
Q 697 4328 969 4595 
Q 1241 4863 1831 4863 
L 2375 4863 
z
" transform="scale(0.015625)"/>
       <path id="DejaVuSans-6c" d="M 603 4863 
L 1178 4863 
L 1178 0 
L 603 0 
L 603 4863 
z
" transform="scale(0.015625)"/>
       <path id="DejaVuSans-6f" d="M 1959 3097 
Q 1497 3097 1228 2736 
Q 959 2375 959 1747 
Q 959 1119 1226 758 
Q 1494 397 1959 397 
Q 2419 397 2687 759 
Q 2956 1122 2956 1747 
Q 2956 2369 2687 2733 
Q 2419 3097 1959 3097 
z
M 1959 3584 
Q 2709 3584 3137 3096 
Q 3566 2609 3566 1747 
Q 3566 888 3137 398 
Q 2709 -91 1959 -91 
Q 1206 -91 779 398 
Q 353 888 353 1747 
Q 353 2609 779 3096 
Q 1206 3584 1959 3584 
z
" transform="scale(0.015625)"/>
       <path id="DejaVuSans-77" d="M 269 3500 
L 844 3500 
L 1563 769 
L 2278 3500 
L 2956 3500 
L 3675 769 
L 4391 3500 
L 4966 3500 
L 4050 0 
L 3372 0 
L 2619 2869 
L 1863 0 
L 1184 0 
L 269 3500 
z
" transform="scale(0.015625)"/>
       <path id="DejaVuSans-20" transform="scale(0.015625)"/>
       <path id="DejaVuSans-72" d="M 2631 2963 
Q 2534 3019 2420 3045 
Q 2306 3072 2169 3072 
Q 1681 3072 1420 2755 
Q 1159 2438 1159 1844 
L 1159 0 
L 581 0 
L 581 3500 
L 1159 3500 
L 1159 2956 
Q 1341 3275 1631 3429 
Q 1922 3584 2338 3584 
Q 2397 3584 2469 3576 
Q 2541 3569 2628 3553 
L 2631 2963 
z
" transform="scale(0.015625)"/>
       <path id="DejaVuSans-61" d="M 2194 1759 
Q 1497 1759 1228 1600 
Q 959 1441 959 1056 
Q 959 750 1161 570 
Q 1363 391 1709 391 
Q 2188 391 2477 730 
Q 2766 1069 2766 1631 
L 2766 1759 
L 2194 1759 
z
M 3341 1997 
L 3341 0 
L 2766 0 
L 2766 531 
Q 2569 213 2275 61 
Q 1981 -91 1556 -91 
Q 1019 -91 701 211 
Q 384 513 384 1019 
Q 384 1609 779 1909 
Q 1175 2209 1959 2209 
L 2766 2209 
L 2766 2266 
Q 2766 2663 2505 2880 
Q 2244 3097 1772 3097 
Q 1472 3097 1187 3025 
Q 903 2953 641 2809 
L 641 3341 
Q 956 3463 1253 3523 
Q 1550 3584 1831 3584 
Q 2591 3584 2966 3190 
Q 3341 2797 3341 1997 
z
" transform="scale(0.015625)"/>
       <path id="DejaVuSans-74" d="M 1172 4494 
L 1172 3500 
L 2356 3500 
L 2356 3053 
L 1172 3053 
L 1172 1153 
Q 1172 725 1289 603 
Q 1406 481 1766 481 
L 2356 481 
L 2356 0 
L 1766 0 
Q 1100 0 847 248 
Q 594 497 594 1153 
L 594 3053 
L 172 3053 
L 172 3500 
L 594 3500 
L 594 4494 
L 1172 4494 
z
" transform="scale(0.015625)"/>
       <path id="DejaVuSans-65" d="M 3597 1894 
L 3597 1613 
L 953 1613 
Q 991 1019 1311 708 
Q 1631 397 2203 397 
Q 2534 397 2845 478 
Q 3156 559 3463 722 
L 3463 178 
Q 3153 47 2828 -22 
Q 2503 -91 2169 -91 
Q 1331 -91 842 396 
Q 353 884 353 1716 
Q 353 2575 817 3079 
Q 1281 3584 2069 3584 
Q 2775 3584 3186 3129 
Q 3597 2675 3597 1894 
z
M 3022 2063 
Q 3016 2534 2758 2815 
Q 2500 3097 2075 3097 
Q 1594 3097 1305 2825 
Q 1016 2553 972 2059 
L 3022 2063 
z
" transform="scale(0.015625)"/>
       <path id="DejaVuSans-28" d="M 1984 4856 
Q 1566 4138 1362 3434 
Q 1159 2731 1159 2009 
Q 1159 1288 1364 580 
Q 1569 -128 1984 -844 
L 1484 -844 
Q 1016 -109 783 600 
Q 550 1309 550 2009 
Q 550 2706 781 3412 
Q 1013 4119 1484 4856 
L 1984 4856 
z
" transform="scale(0.015625)"/>
       <path id="DejaVuSans-6e" d="M 3513 2113 
L 3513 0 
L 2938 0 
L 2938 2094 
Q 2938 2591 2744 2837 
Q 2550 3084 2163 3084 
Q 1697 3084 1428 2787 
Q 1159 2491 1159 1978 
L 1159 0 
L 581 0 
L 581 3500 
L 1159 3500 
L 1159 2956 
Q 1366 3272 1645 3428 
Q 1925 3584 2291 3584 
Q 2894 3584 3203 3211 
Q 3513 2838 3513 2113 
z
" transform="scale(0.015625)"/>
       <path id="DejaVuSans-6d" d="M 3328 2828 
Q 3544 3216 3844 3400 
Q 4144 3584 4550 3584 
Q 5097 3584 5394 3201 
Q 5691 2819 5691 2113 
L 5691 0 
L 5113 0 
L 5113 2094 
Q 5113 2597 4934 2840 
Q 4756 3084 4391 3084 
Q 3944 3084 3684 2787 
Q 3425 2491 3425 1978 
L 3425 0 
L 2847 0 
L 2847 2094 
Q 2847 2600 2669 2842 
Q 2491 3084 2119 3084 
Q 1678 3084 1418 2786 
Q 1159 2488 1159 1978 
L 1159 0 
L 581 0 
L 581 3500 
L 1159 3500 
L 1159 2956 
Q 1356 3278 1631 3431 
Q 1906 3584 2284 3584 
Q 2666 3584 2933 3390 
Q 3200 3197 3328 2828 
z
" transform="scale(0.015625)"/>
       <path id="DejaVuSans-69" d="M 603 3500 
L 1178 3500 
L 1178 0 
L 603 0 
L 603 3500 
z
M 603 4863 
L 1178 4863 
L 1178 4134 
L 603 4134 
L 603 4863 
z
" transform="scale(0.015625)"/>
       <path id="DejaVuSans-7a" d="M 353 3500 
L 3084 3500 
L 3084 2975 
L 922 459 
L 3084 459 
L 3084 0 
L 275 0 
L 275 525 
L 2438 3041 
L 353 3041 
L 353 3500 
z
" transform="scale(0.015625)"/>
       <path id="DejaVuSans-64" d="M 2906 2969 
L 2906 4863 
L 3481 4863 
L 3481 0 
L 2906 0 
L 2906 525 
Q 2725 213 2448 61 
Q 2172 -91 1784 -91 
Q 1150 -91 751 415 
Q 353 922 353 1747 
Q 353 2572 751 3078 
Q 1150 3584 1784 3584 
Q 2172 3584 2448 3432 
Q 2725 3281 2906 2969 
z
M 947 1747 
Q 947 1113 1208 752 
Q 1469 391 1925 391 
Q 2381 391 2643 752 
Q 2906 1113 2906 1747 
Q 2906 2381 2643 2742 
Q 2381 3103 1925 3103 
Q 1469 3103 1208 2742 
Q 947 2381 947 1747 
z
" transform="scale(0.015625)"/>
       <path id="DejaVuSans-29" d="M 513 4856 
L 1013 4856 
Q 1481 4119 1714 3412 
Q 1947 2706 1947 2009 
Q 1947 1309 1714 600 
Q 1481 -109 1013 -844 
L 513 -844 
Q 928 -128 1133 580 
Q 1338 1288 1338 2009 
Q 1338 2731 1133 3434 
Q 928 4138 513 4856 
z
" transform="scale(0.015625)"/>
      </defs>
      <use xlink:href="#DejaVuSans-66"/>
      <use xlink:href="#DejaVuSans-6c" x="35.205078"/>
      <use xlink:href="#DejaVuSans-6f" x="62.988281"/>
      <use xlink:href="#DejaVuSans-77" x="124.169922"/>
      <use xlink:href="#DejaVuSans-20" x="205.957031"/>
      <use xlink:href="#DejaVuSans-72" x="237.744141"/>
      <use xlink:href="#DejaVuSans-61" x="278.857422"/>
      <use xlink:href="#DejaVuSans-74" x="340.136719"/>
      <use xlink:href="#DejaVuSans-65" x="379.345703"/>
      <use xlink:href="#DejaVuSans-20" x="440.869141"/>
      <use xlink:href="#DejaVuSans-28" x="472.65625"/>
      <use xlink:href="#DejaVuSans-6e" x="511.669922"/>
      <use xlink:href="#DejaVuSans-6f" x="575.048828"/>
      <use xlink:href="#DejaVuSans-72" x="636.230469"/>
      <use xlink:href="#DejaVuSans-6d" x="675.59375"/>
      <use xlink:href="#DejaVuSans-61" x="773.005859"/>
      <use xlink:href="#DejaVuSans-6c" x="834.285156"/>
      <use xlink:href="#DejaVuSans-69" x="862.068359"/>
      <use xlink:href="#DejaVuSans-7a" x="889.851562"/>
      <use xlink:href="#DejaVuSans-65" x="942.341797"/>
      <use xlink:href="#DejaVuSans-64" x="1003.865234"/>
      <use xlink:href="#DejaVuSans-29" x="1067.341797"/>
     </g>
    </g>
   </g>
   <g id="line2d_10">
    <path d="M 73.832727 58.997505 
L 77.079273 51.756339 
L 80.325818 56.295529 
L 83.572364 57.695316 
L 86.818909 58.295043 
L 90.065455 58.602917 
L 93.312 58.769063 
L 96.558545 58.860688 
L 99.805091 58.915148 
L 103.051636 58.946194 
L 106.298182 58.963909 
L 109.544727 58.974142 
L 112.791273 58.980308 
L 116.037818 58.984536 
L 119.284364 58.986478 
L 122.530909 59.104731 
L 125.777455 43.579412 
L 129.024 43.579146 
L 132.270545 43.578893 
L 135.517091 43.57866 
L 138.763636 43.578434 
L 142.010182 43.578204 
L 145.256727 43.577958 
L 148.503273 43.577707 
L 151.749818 43.577448 
L 154.996364 43.577179 
L 158.242909 43.576909 
L 161.489455 43.576633 
L 164.736 43.576357 
L 167.982545 43.576081 
L 171.229091 45.324829 
L 174.475636 55.42535 
L 177.722182 55.760505 
L 180.968727 56.053787 
L 184.215273 56.433321 
L 187.461818 56.818913 
L 190.708364 57.258944 
L 193.954909 57.631049 
L 197.201455 57.975775 
L 200.448 58.247009 
L 203.694545 58.483759 
L 206.941091 58.646529 
L 210.187636 58.761256 
L 213.434182 58.828035 
L 216.680727 58.887325 
L 219.927273 58.92143 
L 223.173818 58.950688 
L 226.420364 58.958977 
L 229.666909 58.966622 
L 232.913455 58.977101 
L 236.16 58.981097 
L 239.406545 58.983472 
L 242.653091 58.985497 
L 245.899636 58.986647 
L 249.146182 58.987653 
L 252.392727 58.988415 
L 255.639273 58.988874 
L 258.885818 58.98908 
L 262.132364 58.989421 
L 265.378909 58.989305 
L 268.625455 59.033003 
L 271.872 63.302374 
L 275.118545 65.190836 
L 278.365091 67.424713 
L 281.611636 69.320426 
L 284.858182 70.25537 
L 288.104727 70.231732 
L 291.351273 69.550892 
L 294.597818 68.496296 
L 297.844364 67.316547 
L 301.090909 66.121962 
L 304.337455 64.995837 
L 307.584 63.99083 
L 310.830545 63.097692 
L 314.077091 62.337952 
L 317.323636 61.691488 
L 320.570182 61.161345 
L 323.816727 60.728152 
L 327.063273 60.362965 
L 330.309818 60.084138 
L 333.556364 59.856409 
L 336.802909 59.673608 
L 340.049455 59.528417 
L 343.296 59.414405 
L 346.542545 59.325674 
L 349.789091 59.255501 
L 353.035636 59.201642 
L 356.282182 59.157812 
L 359.528727 59.12414 
L 362.775273 59.096997 
L 366.021818 59.075181 
L 369.268364 59.058005 
L 372.514909 59.044172 
L 375.761455 59.034283 
L 379.008 59.02619 
L 382.254545 59.018917 
L 385.501091 59.014118 
L 388.747636 59.010108 
L 391.994182 59.006311 
L 395.240727 59.002857 
L 398.487273 58.999957 
" clip-path="url(#peffa36f883)" style="fill: none; stroke: #1f77b4; stroke-width: 1.5; stroke-linecap: square"/>
   </g>
   <g id="line2d_11">
    <path d="M 73.832727 59.001588 
L 77.079273 44.632365 
L 80.325818 53.630971 
L 83.572364 56.412959 
L 86.818909 57.606524 
L 90.065455 58.219524 
L 93.312 58.550485 
L 96.558545 58.733048 
L 99.805091 58.841605 
L 103.051636 58.903498 
L 106.298182 58.938827 
L 109.544727 58.959237 
L 112.791273 58.971542 
L 116.037818 58.979982 
L 119.284364 58.983855 
L 122.530909 55.621096 
L 125.777455 43.603367 
L 129.024 43.602324 
L 132.270545 43.601446 
L 135.517091 43.60072 
L 138.763636 43.600194 
L 142.010182 43.599758 
L 145.256727 43.599444 
L 148.503273 43.59917 
L 151.749818 43.598934 
L 154.996364 43.598758 
L 158.242909 43.598586 
L 161.489455 43.59849 
L 164.736 43.598393 
L 167.982545 43.598296 
L 171.229091 51.980832 
L 174.475636 58.341271 
L 177.722182 58.402189 
L 180.968727 58.455649 
L 184.215273 58.524512 
L 187.461818 58.594924 
L 190.708364 58.674822 
L 193.954909 58.742491 
L 197.201455 58.805168 
L 200.448 58.854405 
L 203.694545 58.897334 
L 206.941091 58.926889 
L 210.187636 58.94773 
L 213.434182 58.959871 
L 216.680727 58.97063 
L 219.927273 58.976833 
L 223.173818 58.982098 
L 226.420364 58.983653 
L 229.666909 58.985056 
L 232.913455 58.986937 
L 236.16 58.987667 
L 239.406545 58.988103 
L 242.653091 58.98847 
L 245.899636 58.988681 
L 249.146182 58.988862 
L 252.392727 58.989 
L 255.639273 58.989083 
L 258.885818 58.989121 
L 262.132364 58.989183 
L 265.378909 58.989162 
L 268.625455 59.215509 
L 271.872 67.743489 
L 275.118545 71.792676 
L 278.365091 76.93699 
L 281.611636 81.840849 
L 284.858182 84.825507 
L 288.104727 85.267862 
L 291.351273 83.701745 
L 294.597818 80.871979 
L 297.844364 77.639223 
L 301.090909 74.39994 
L 304.337455 71.465334 
L 307.584 68.991316 
L 310.830545 66.898839 
L 314.077091 65.226718 
L 317.323636 63.865448 
L 320.570182 62.809379 
L 323.816727 61.968845 
L 327.063273 61.301887 
L 330.309818 60.799541 
L 333.556364 60.402814 
L 336.802909 60.092527 
L 340.049455 59.850339 
L 343.296 59.662871 
L 346.542545 59.520413 
L 349.789091 59.407616 
L 353.035636 59.323019 
L 356.282182 59.25354 
L 359.528727 59.200683 
L 362.775273 59.157902 
L 366.021818 59.123359 
L 369.268364 59.096286 
L 372.514909 59.074448 
L 375.761455 59.058925 
L 379.008 59.046247 
L 382.254545 59.034876 
L 385.501091 59.027428 
L 388.747636 59.021242 
L 391.994182 59.015413 
L 395.240727 59.010118 
L 398.487273 59.00566 
" clip-path="url(#peffa36f883)" style="fill: none; stroke: #ff7f0e; stroke-width: 1.5; stroke-linecap: square"/>
   </g>
   <g id="line2d_12">
    <path d="M 73.832727 58.990071 
L 77.079273 58.187008 
L 80.325818 58.688139 
L 83.572364 58.844633 
L 86.818909 58.911634 
L 90.065455 58.946012 
L 93.312 58.964559 
L 96.558545 58.974783 
L 99.805091 58.980858 
L 103.051636 58.984321 
L 106.298182 58.986295 
L 109.544727 58.987436 
L 112.791273 58.988123 
L 116.037818 58.988594 
L 119.284364 58.98881 
L 122.530909 62.704998 
L 125.777455 43.567162 
L 129.024 43.566026 
L 132.270545 43.564924 
L 135.517091 43.563913 
L 138.763636 43.563023 
L 142.010182 43.562197 
L 145.256727 43.561473 
L 148.503273 43.560785 
L 151.749818 43.560136 
L 154.996364 43.559548 
L 158.242909 43.558967 
L 161.489455 43.558484 
L 164.736 43.558 
L 167.982545 43.557517 
L 171.229091 44.003655 
L 174.475636 52.830813 
L 177.722182 53.409997 
L 180.968727 53.916229 
L 184.215273 54.572874 
L 187.461818 55.234326 
L 190.708364 55.995655 
L 193.954909 56.640111 
L 197.201455 57.23616 
L 200.448 57.705621 
L 203.694545 58.116004 
L 206.941091 58.397538 
L 210.187636 58.595726 
L 213.434182 58.710813 
L 216.680727 58.813461 
L 219.927273 58.872197 
L 223.173818 58.923752 
L 226.420364 58.937052 
L 229.666909 58.949952 
L 232.913455 58.968512 
L 236.16 58.975335 
L 239.406545 58.979337 
L 242.653091 58.982847 
L 245.899636 58.984809 
L 249.146182 58.986562 
L 252.392727 58.987896 
L 255.639273 58.988686 
L 258.885818 58.989039 
L 262.132364 58.989626 
L 265.378909 58.989425 
L 268.625455 58.992499 
L 271.872 59.466784 
L 275.118545 59.673144 
L 278.365091 59.912162 
L 281.611636 60.108306 
L 284.858182 60.198902 
L 288.104727 60.191495 
L 291.351273 60.118836 
L 294.597818 60.010161 
L 297.844364 59.889374 
L 301.090909 59.767017 
L 304.337455 59.650702 
L 307.584 59.545499 
L 310.830545 59.450835 
L 314.077091 59.369023 
L 317.323636 59.29845 
L 320.570182 59.239736 
L 323.816727 59.191372 
L 327.063273 59.149755 
L 330.309818 59.117941 
L 333.556364 59.091639 
L 336.802909 59.070332 
L 340.049455 59.053309 
L 343.296 59.039884 
L 346.542545 59.029347 
L 349.789091 59.02101 
L 353.035636 59.014563 
L 356.282182 59.00933 
L 359.528727 59.005296 
L 362.775273 59.002048 
L 366.021818 58.999441 
L 369.268364 58.997385 
L 372.514909 58.995729 
L 375.761455 58.994543 
L 379.008 58.993572 
L 382.254545 58.9927 
L 385.501091 58.992123 
L 388.747636 58.991639 
L 391.994182 58.991182 
L 395.240727 58.990765 
L 398.487273 58.990415 
" clip-path="url(#peffa36f883)" style="fill: none; stroke: #2ca02c; stroke-width: 1.5; stroke-linecap: square"/>
   </g>
   <g id="patch_3">
    <path d="M 57.6 87.353379 
L 57.6 41.472 
" style="fill: none; stroke: #000000; stroke-width: 0.8; stroke-linejoin: miter; stroke-linecap: square"/>
   </g>
   <g id="patch_4">
    <path d="M 414.72 87.353379 
L 414.72 41.472 
" style="fill: none; stroke: #000000; stroke-width: 0.8; stroke-linejoin: miter; stroke-linecap: square"/>
   </g>
   <g id="patch_5">
    <path d="M 57.6 87.353379 
L 414.72 87.353379 
" style="fill: none; stroke: #000000; stroke-width: 0.8; stroke-linejoin: miter; stroke-linecap: square"/>
   </g>
   <g id="patch_6">
    <path d="M 57.6 41.472 
L 414.72 41.472 
" style="fill: none; stroke: #000000; stroke-width: 0.8; stroke-linejoin: miter; stroke-linecap: square"/>
   </g>
   <g id="text_5">
    <!-- velocity vs time (container 1)   -->
    <g transform="translate(144.106875 35.472)scale(0.12 -0.12)">
     <defs>
      <path id="DejaVuSans-76" d="M 191 3500 
L 800 3500 
L 1894 563 
L 2988 3500 
L 3597 3500 
L 2284 0 
L 1503 0 
L 191 3500 
z
" transform="scale(0.015625)"/>
      <path id="DejaVuSans-63" d="M 3122 3366 
L 3122 2828 
Q 2878 2963 2633 3030 
Q 2388 3097 2138 3097 
Q 1578 3097 1268 2742 
Q 959 2388 959 1747 
Q 959 1106 1268 751 
Q 1578 397 2138 397 
Q 2388 397 2633 464 
Q 2878 531 3122 666 
L 3122 134 
Q 2881 22 2623 -34 
Q 2366 -91 2075 -91 
Q 1284 -91 818 406 
Q 353 903 353 1747 
Q 353 2603 823 3093 
Q 1294 3584 2113 3584 
Q 2378 3584 2631 3529 
Q 2884 3475 3122 3366 
z
" transform="scale(0.015625)"/>
      <path id="DejaVuSans-79" d="M 2059 -325 
Q 1816 -950 1584 -1140 
Q 1353 -1331 966 -1331 
L 506 -1331 
L 506 -850 
L 844 -850 
Q 1081 -850 1212 -737 
Q 1344 -625 1503 -206 
L 1606 56 
L 191 3500 
L 800 3500 
L 1894 763 
L 2988 3500 
L 3597 3500 
L 2059 -325 
z
" transform="scale(0.015625)"/>
      <path id="DejaVuSans-73" d="M 2834 3397 
L 2834 2853 
Q 2591 2978 2328 3040 
Q 2066 3103 1784 3103 
Q 1356 3103 1142 2972 
Q 928 2841 928 2578 
Q 928 2378 1081 2264 
Q 1234 2150 1697 2047 
L 1894 2003 
Q 2506 1872 2764 1633 
Q 3022 1394 3022 966 
Q 3022 478 2636 193 
Q 2250 -91 1575 -91 
Q 1294 -91 989 -36 
Q 684 19 347 128 
L 347 722 
Q 666 556 975 473 
Q 1284 391 1588 391 
Q 1994 391 2212 530 
Q 2431 669 2431 922 
Q 2431 1156 2273 1281 
Q 2116 1406 1581 1522 
L 1381 1569 
Q 847 1681 609 1914 
Q 372 2147 372 2553 
Q 372 3047 722 3315 
Q 1072 3584 1716 3584 
Q 2034 3584 2315 3537 
Q 2597 3491 2834 3397 
z
" transform="scale(0.015625)"/>
     </defs>
     <use xlink:href="#DejaVuSans-76"/>
     <use xlink:href="#DejaVuSans-65" x="59.179688"/>
     <use xlink:href="#DejaVuSans-6c" x="120.703125"/>
     <use xlink:href="#DejaVuSans-6f" x="148.486328"/>
     <use xlink:href="#DejaVuSans-63" x="209.667969"/>
     <use xlink:href="#DejaVuSans-69" x="264.648438"/>
     <use xlink:href="#DejaVuSans-74" x="292.431641"/>
     <use xlink:href="#DejaVuSans-79" x="331.640625"/>
     <use xlink:href="#DejaVuSans-20" x="390.820312"/>
     <use xlink:href="#DejaVuSans-76" x="422.607422"/>
     <use xlink:href="#DejaVuSans-73" x="481.787109"/>
     <use xlink:href="#DejaVuSans-20" x="533.886719"/>
     <use xlink:href="#DejaVuSans-74" x="565.673828"/>
     <use xlink:href="#DejaVuSans-69" x="604.882812"/>
     <use xlink:href="#DejaVuSans-6d" x="632.666016"/>
     <use xlink:href="#DejaVuSans-65" x="730.078125"/>
     <use xlink:href="#DejaVuSans-20" x="791.601562"/>
     <use xlink:href="#DejaVuSans-28" x="823.388672"/>
     <use xlink:href="#DejaVuSans-63" x="862.402344"/>
     <use xlink:href="#DejaVuSans-6f" x="917.382812"/>
     <use xlink:href="#DejaVuSans-6e" x="978.564453"/>
     <use xlink:href="#DejaVuSans-74" x="1041.943359"/>
     <use xlink:href="#DejaVuSans-61" x="1081.152344"/>
     <use xlink:href="#DejaVuSans-69" x="1142.431641"/>
     <use xlink:href="#DejaVuSans-6e" x="1170.214844"/>
     <use xlink:href="#DejaVuSans-65" x="1233.59375"/>
     <use xlink:href="#DejaVuSans-72" x="1295.117188"/>
     <use xlink:href="#DejaVuSans-20" x="1336.230469"/>
     <use xlink:href="#DejaVuSans-31" x="1368.017578"/>
     <use xlink:href="#DejaVuSans-29" x="1431.640625"/>
     <use xlink:href="#DejaVuSans-20" x="1470.654297"/>
     <use xlink:href="#DejaVuSans-20" x="1502.441406"/>
    </g>
   </g>
   <g id="legend_1">
    <g id="patch_7">
     <path d="M 64.6 93.506375 
L 139.240625 93.506375 
Q 141.240625 93.506375 141.240625 91.506375 
L 141.240625 48.472 
Q 141.240625 46.472 139.240625 46.472 
L 64.6 46.472 
Q 62.6 46.472 62.6 48.472 
L 62.6 91.506375 
Q 62.6 93.506375 64.6 93.506375 
z
" style="fill: #ffffff; opacity: 0.8; stroke: #cccccc; stroke-linejoin: miter"/>
    </g>
    <g id="line2d_13">
     <path d="M 66.6 54.570437 
L 76.6 54.570437 
L 86.6 54.570437 
" style="fill: none; stroke: #1f77b4; stroke-width: 1.5; stroke-linecap: square"/>
    </g>
    <g id="text_6">
     <!-- mid flow -->
     <g transform="translate(94.6 58.070437)scale(0.1 -0.1)">
      <use xlink:href="#DejaVuSans-6d"/>
      <use xlink:href="#DejaVuSans-69" x="97.412109"/>
      <use xlink:href="#DejaVuSans-64" x="125.195312"/>
      <use xlink:href="#DejaVuSans-20" x="188.671875"/>
      <use xlink:href="#DejaVuSans-66" x="220.458984"/>
      <use xlink:href="#DejaVuSans-6c" x="255.664062"/>
      <use xlink:href="#DejaVuSans-6f" x="283.447266"/>
      <use xlink:href="#DejaVuSans-77" x="344.628906"/>
     </g>
    </g>
    <g id="line2d_14">
     <path d="M 66.6 69.248562 
L 76.6 69.248562 
L 86.6 69.248562 
" style="fill: none; stroke: #ff7f0e; stroke-width: 1.5; stroke-linecap: square"/>
    </g>
    <g id="text_7">
     <!-- v0 flow -->
     <g transform="translate(94.6 72.748562)scale(0.1 -0.1)">
      <use xlink:href="#DejaVuSans-76"/>
      <use xlink:href="#DejaVuSans-30" x="59.179688"/>
      <use xlink:href="#DejaVuSans-20" x="122.802734"/>
      <use xlink:href="#DejaVuSans-66" x="154.589844"/>
      <use xlink:href="#DejaVuSans-6c" x="189.794922"/>
      <use xlink:href="#DejaVuSans-6f" x="217.578125"/>
      <use xlink:href="#DejaVuSans-77" x="278.759766"/>
     </g>
    </g>
    <g id="line2d_15">
     <path d="M 66.6 83.926687 
L 76.6 83.926687 
L 86.6 83.926687 
" style="fill: none; stroke: #2ca02c; stroke-width: 1.5; stroke-linecap: square"/>
    </g>
    <g id="text_8">
     <!-- vN flow -->
     <g transform="translate(94.6 87.426687)scale(0.1 -0.1)">
      <defs>
       <path id="DejaVuSans-4e" d="M 628 4666 
L 1478 4666 
L 3547 763 
L 3547 4666 
L 4159 4666 
L 4159 0 
L 3309 0 
L 1241 3903 
L 1241 0 
L 628 0 
L 628 4666 
z
" transform="scale(0.015625)"/>
      </defs>
      <use xlink:href="#DejaVuSans-76"/>
      <use xlink:href="#DejaVuSans-4e" x="59.179688"/>
      <use xlink:href="#DejaVuSans-20" x="133.984375"/>
      <use xlink:href="#DejaVuSans-66" x="165.771484"/>
      <use xlink:href="#DejaVuSans-6c" x="200.976562"/>
      <use xlink:href="#DejaVuSans-6f" x="228.759766"/>
      <use xlink:href="#DejaVuSans-77" x="289.941406"/>
     </g>
    </g>
   </g>
  </g>
  <g id="axes_2">
   <g id="patch_8">
    <path d="M 57.6 142.411034 
L 414.72 142.411034 
L 414.72 96.529655 
L 57.6 96.529655 
z
" style="fill: #ffffff"/>
   </g>
   <g id="matplotlib.axis_3">
    <g id="xtick_7">
     <g id="line2d_16">
      <g>
       <use xlink:href="#ma32f7b01cc" x="73.832727" y="142.411034" style="stroke: #000000; stroke-width: 0.8"/>
      </g>
     </g>
    </g>
    <g id="xtick_8">
     <g id="line2d_17">
      <g>
       <use xlink:href="#ma32f7b01cc" x="138.763636" y="142.411034" style="stroke: #000000; stroke-width: 0.8"/>
      </g>
     </g>
    </g>
    <g id="xtick_9">
     <g id="line2d_18">
      <g>
       <use xlink:href="#ma32f7b01cc" x="203.694545" y="142.411034" style="stroke: #000000; stroke-width: 0.8"/>
      </g>
     </g>
    </g>
    <g id="xtick_10">
     <g id="line2d_19">
      <g>
       <use xlink:href="#ma32f7b01cc" x="268.625455" y="142.411034" style="stroke: #000000; stroke-width: 0.8"/>
      </g>
     </g>
    </g>
    <g id="xtick_11">
     <g id="line2d_20">
      <g>
       <use xlink:href="#ma32f7b01cc" x="333.556364" y="142.411034" style="stroke: #000000; stroke-width: 0.8"/>
      </g>
     </g>
    </g>
    <g id="xtick_12">
     <g id="line2d_21">
      <g>
       <use xlink:href="#ma32f7b01cc" x="398.487273" y="142.411034" style="stroke: #000000; stroke-width: 0.8"/>
      </g>
     </g>
    </g>
   </g>
   <g id="matplotlib.axis_4">
    <g id="ytick_4">
     <g id="line2d_22">
      <g>
       <use xlink:href="#macc1f7d844" x="57.6" y="140.745257" style="stroke: #000000; stroke-width: 0.8"/>
      </g>
     </g>
     <g id="text_9">
      <!-- 0 -->
      <g transform="translate(44.2375 144.544476)scale(0.1 -0.1)">
       <use xlink:href="#DejaVuSans-30"/>
      </g>
     </g>
    </g>
    <g id="ytick_5">
     <g id="line2d_23">
      <g>
       <use xlink:href="#macc1f7d844" x="57.6" y="98.771597" style="stroke: #000000; stroke-width: 0.8"/>
      </g>
     </g>
     <g id="text_10">
      <!-- 1 -->
      <g transform="translate(44.2375 102.570816)scale(0.1 -0.1)">
       <use xlink:href="#DejaVuSans-31"/>
      </g>
     </g>
    </g>
   </g>
   <g id="line2d_24">
    <path d="M 73.832727 140.325517 
L 77.079273 123.979231 
L 80.325818 114.058914 
L 83.572364 108.039864 
L 86.818909 104.396058 
L 90.065455 102.182367 
L 93.312 100.839772 
L 96.558545 100.025816 
L 99.805091 99.530087 
L 103.051636 99.233011 
L 106.298182 99.050747 
L 109.544727 98.94092 
L 112.791273 98.87385 
L 116.037818 98.834029 
L 119.284364 98.809102 
L 122.530909 98.785197 
L 125.777455 98.615223 
L 129.024 98.615217 
L 132.270545 98.615212 
L 135.517091 98.615207 
L 138.763636 98.615203 
L 142.010182 98.615199 
L 145.256727 98.615195 
L 148.503273 98.615191 
L 151.749818 98.615188 
L 154.996364 98.615184 
L 158.242909 98.615181 
L 161.489455 98.615178 
L 164.736 98.615175 
L 167.982545 98.615172 
L 171.229091 98.64763 
L 174.475636 113.596117 
L 177.722182 122.620262 
L 180.968727 128.091305 
L 184.215273 131.412585 
L 187.461818 133.426562 
L 190.708364 134.651012 
L 193.954909 135.394243 
L 197.201455 135.845939 
L 200.448 136.121264 
L 203.694545 136.288594 
L 206.941091 136.390371 
L 210.187636 136.452049 
L 213.434182 136.490305 
L 216.680727 136.512651 
L 219.927273 136.525929 
L 223.173818 136.534368 
L 226.420364 136.539916 
L 229.666909 136.542879 
L 232.913455 136.544902 
L 236.16 136.546056 
L 239.406545 136.546795 
L 242.653091 136.547216 
L 245.899636 136.547457 
L 249.146182 136.547636 
L 252.392727 136.547758 
L 255.639273 136.547827 
L 258.885818 136.54784 
L 262.132364 136.547888 
L 265.378909 136.547882 
L 268.625455 136.548746 
L 271.872 138.031786 
L 275.118545 138.931209 
L 278.365091 139.476894 
L 281.611636 139.807316 
L 284.858182 140.007322 
L 288.104727 140.129326 
L 291.351273 140.203786 
L 294.597818 140.249448 
L 297.844364 140.277865 
L 301.090909 140.295445 
L 304.337455 140.306418 
L 307.584 140.313355 
L 310.830545 140.317585 
L 314.077091 140.320319 
L 317.323636 140.322078 
L 320.570182 140.323197 
L 323.816727 140.323937 
L 327.063273 140.324423 
L 330.309818 140.324748 
L 333.556364 140.324968 
L 336.802909 140.32512 
L 340.049455 140.325227 
L 343.296 140.325301 
L 346.542545 140.325351 
L 349.789091 140.325395 
L 353.035636 140.325422 
L 356.282182 140.325445 
L 359.528727 140.325461 
L 362.775273 140.325473 
L 366.021818 140.325484 
L 369.268364 140.325491 
L 372.514909 140.325497 
L 375.761455 140.325501 
L 379.008 140.325505 
L 382.254545 140.325508 
L 385.501091 140.32551 
L 388.747636 140.325512 
L 391.994182 140.325514 
L 395.240727 140.325515 
L 398.487273 140.325516 
" clip-path="url(#pddc1c25ae3)" style="fill: none; stroke: #1f77b4; stroke-width: 1.5; stroke-linecap: square"/>
   </g>
   <g id="line2d_25">
    <path d="M 73.832727 140.325459 
L 77.079273 124.039645 
L 80.325818 114.081421 
L 83.572364 108.050682 
L 86.818909 104.401863 
L 90.065455 102.185598 
L 93.312 100.841613 
L 96.558545 100.026891 
L 99.805091 99.530706 
L 103.051636 99.23337 
L 106.298182 99.050958 
L 109.544727 98.941045 
L 112.791273 98.873924 
L 116.037818 98.834068 
L 119.284364 98.809125 
L 122.530909 98.793525 
L 125.777455 98.695359 
L 129.024 98.695356 
L 132.270545 98.695353 
L 135.517091 98.69535 
L 138.763636 98.695347 
L 142.010182 98.695345 
L 145.256727 98.695343 
L 148.503273 98.695341 
L 151.749818 98.695339 
L 154.996364 98.695337 
L 158.242909 98.695335 
L 161.489455 98.695333 
L 164.736 98.695332 
L 167.982545 98.69533 
L 171.229091 98.700995 
L 174.475636 113.605391 
L 177.722182 122.628664 
L 180.968727 128.098943 
L 184.215273 131.419236 
L 187.461818 133.432207 
L 190.708364 134.655512 
L 193.954909 135.397776 
L 197.201455 135.848575 
L 200.448 136.123194 
L 203.694545 136.289909 
L 206.941091 136.391262 
L 210.187636 136.452642 
L 213.434182 136.490724 
L 216.680727 136.512916 
L 219.927273 136.526105 
L 223.173818 136.534468 
L 226.420364 136.539995 
L 229.666909 136.542938 
L 232.913455 136.544934 
L 236.16 136.546077 
L 239.406545 136.54681 
L 242.653091 136.547226 
L 245.899636 136.547464 
L 249.146182 136.54764 
L 252.392727 136.54776 
L 255.639273 136.547828 
L 258.885818 136.547841 
L 262.132364 136.547887 
L 265.378909 136.547882 
L 268.625455 136.548031 
L 271.872 137.995279 
L 275.118545 138.878153 
L 278.365091 139.403347 
L 281.611636 139.715017 
L 284.858182 139.904364 
L 288.104727 140.025361 
L 291.351273 140.106063 
L 294.597818 140.162385 
L 297.844364 140.202898 
L 301.090909 140.23265 
L 304.337455 140.254811 
L 307.584 140.271378 
L 310.830545 140.2839 
L 314.077091 140.293416 
L 317.323636 140.300785 
L 320.570182 140.30635 
L 323.816727 140.310663 
L 327.063273 140.314049 
L 330.309818 140.316571 
L 333.556364 140.318548 
L 336.802909 140.320087 
L 340.049455 140.321284 
L 343.296 140.322207 
L 346.542545 140.322909 
L 349.789091 140.323467 
L 353.035636 140.323884 
L 356.282182 140.324226 
L 359.528727 140.324485 
L 362.775273 140.324695 
L 366.021818 140.324864 
L 369.268364 140.324996 
L 372.514909 140.325102 
L 375.761455 140.325178 
L 379.008 140.32524 
L 382.254545 140.325296 
L 385.501091 140.325332 
L 388.747636 140.325363 
L 391.994182 140.325391 
L 395.240727 140.325417 
L 398.487273 140.325439 
" clip-path="url(#pddc1c25ae3)" style="fill: none; stroke: #ff7f0e; stroke-width: 1.5; stroke-linecap: square"/>
   </g>
   <g id="line2d_26">
    <path d="M 73.832727 140.325436 
L 77.079273 124.058504 
L 80.325818 114.088444 
L 83.572364 108.054055 
L 86.818909 104.403672 
L 90.065455 102.186605 
L 93.312 100.842187 
L 96.558545 100.027225 
L 99.805091 99.530899 
L 103.051636 99.233482 
L 106.298182 99.051024 
L 109.544727 98.941084 
L 112.791273 98.873947 
L 116.037818 98.83408 
L 119.284364 98.809132 
L 122.530909 98.786852 
L 125.777455 98.767583 
L 129.024 98.767583 
L 132.270545 98.767583 
L 135.517091 98.767582 
L 138.763636 98.767582 
L 142.010182 98.767582 
L 145.256727 98.767581 
L 148.503273 98.767581 
L 151.749818 98.767581 
L 154.996364 98.767581 
L 158.242909 98.767581 
L 161.489455 98.767581 
L 164.736 98.76758 
L 167.982545 98.76758 
L 171.229091 98.768715 
L 174.475636 113.628162 
L 177.722182 122.649294 
L 180.968727 128.1177 
L 184.215273 131.435567 
L 187.461818 133.446083 
L 190.708364 134.666575 
L 193.954909 135.406458 
L 197.201455 135.855054 
L 200.448 136.127939 
L 203.694545 136.293138 
L 206.941091 136.393451 
L 210.187636 136.454098 
L 213.434182 136.491753 
L 216.680727 136.513566 
L 219.927273 136.526538 
L 223.173818 136.534712 
L 226.420364 136.540187 
L 229.666909 136.543082 
L 232.913455 136.54501 
L 236.16 136.546128 
L 239.406545 136.546846 
L 242.653091 136.547249 
L 245.899636 136.54748 
L 249.146182 136.547649 
L 252.392727 136.547765 
L 255.639273 136.54783 
L 258.885818 136.547841 
L 262.132364 136.547886 
L 265.378909 136.547881 
L 268.625455 136.547934 
L 271.872 137.984073 
L 275.118545 138.862075 
L 278.365091 139.381561 
L 281.611636 139.68846 
L 284.858182 139.875523 
L 288.104727 139.996635 
L 291.351273 140.079076 
L 294.597818 140.138048 
L 297.844364 140.181516 
L 301.090909 140.214261 
L 304.337455 140.239255 
L 307.584 140.258365 
L 310.830545 140.27316 
L 314.077091 140.284625 
L 317.323636 140.293661 
L 320.570182 140.300603 
L 323.816727 140.306045 
L 327.063273 140.310392 
L 330.309818 140.313648 
L 333.556364 140.316227 
L 336.802909 140.318253 
L 340.049455 140.319837 
L 343.296 140.321064 
L 346.542545 140.322004 
L 349.789091 140.32275 
L 353.035636 140.323312 
L 356.282182 140.323772 
L 359.528727 140.324122 
L 362.775273 140.324404 
L 366.021818 140.324632 
L 369.268364 140.32481 
L 372.514909 140.324954 
L 375.761455 140.325056 
L 379.008 140.32514 
L 382.254545 140.325215 
L 385.501091 140.325265 
L 388.747636 140.325306 
L 391.994182 140.325345 
L 395.240727 140.32538 
L 398.487273 140.32541 
" clip-path="url(#pddc1c25ae3)" style="fill: none; stroke: #2ca02c; stroke-width: 1.5; stroke-linecap: square"/>
   </g>
   <g id="patch_9">
    <path d="M 57.6 142.411034 
L 57.6 96.529655 
" style="fill: none; stroke: #000000; stroke-width: 0.8; stroke-linejoin: miter; stroke-linecap: square"/>
   </g>
   <g id="patch_10">
    <path d="M 414.72 142.411034 
L 414.72 96.529655 
" style="fill: none; stroke: #000000; stroke-width: 0.8; stroke-linejoin: miter; stroke-linecap: square"/>
   </g>
   <g id="patch_11">
    <path d="M 57.6 142.411034 
L 414.72 142.411034 
" style="fill: none; stroke: #000000; stroke-width: 0.8; stroke-linejoin: miter; stroke-linecap: square"/>
   </g>
   <g id="patch_12">
    <path d="M 57.6 96.529655 
L 414.72 96.529655 
" style="fill: none; stroke: #000000; stroke-width: 0.8; stroke-linejoin: miter; stroke-linecap: square"/>
   </g>
   <g id="text_11">
    <!-- Pressure -->
    <g transform="translate(210.546562 90.529655)scale(0.12 -0.12)">
     <defs>
      <path id="DejaVuSans-50" d="M 1259 4147 
L 1259 2394 
L 2053 2394 
Q 2494 2394 2734 2622 
Q 2975 2850 2975 3272 
Q 2975 3691 2734 3919 
Q 2494 4147 2053 4147 
L 1259 4147 
z
M 628 4666 
L 2053 4666 
Q 2838 4666 3239 4311 
Q 3641 3956 3641 3272 
Q 3641 2581 3239 2228 
Q 2838 1875 2053 1875 
L 1259 1875 
L 1259 0 
L 628 0 
L 628 4666 
z
" transform="scale(0.015625)"/>
      <path id="DejaVuSans-75" d="M 544 1381 
L 544 3500 
L 1119 3500 
L 1119 1403 
Q 1119 906 1312 657 
Q 1506 409 1894 409 
Q 2359 409 2629 706 
Q 2900 1003 2900 1516 
L 2900 3500 
L 3475 3500 
L 3475 0 
L 2900 0 
L 2900 538 
Q 2691 219 2414 64 
Q 2138 -91 1772 -91 
Q 1169 -91 856 284 
Q 544 659 544 1381 
z
M 1991 3584 
L 1991 3584 
z
" transform="scale(0.015625)"/>
     </defs>
     <use xlink:href="#DejaVuSans-50"/>
     <use xlink:href="#DejaVuSans-72" x="58.552734"/>
     <use xlink:href="#DejaVuSans-65" x="97.416016"/>
     <use xlink:href="#DejaVuSans-73" x="158.939453"/>
     <use xlink:href="#DejaVuSans-73" x="211.039062"/>
     <use xlink:href="#DejaVuSans-75" x="263.138672"/>
     <use xlink:href="#DejaVuSans-72" x="326.517578"/>
     <use xlink:href="#DejaVuSans-65" x="365.380859"/>
    </g>
   </g>
   <g id="legend_2">
    <g id="patch_13">
     <path d="M 350.823125 137.411034 
L 407.72 137.411034 
Q 409.72 137.411034 409.72 135.411034 
L 409.72 92.376659 
Q 409.72 90.376659 407.72 90.376659 
L 350.823125 90.376659 
Q 348.823125 90.376659 348.823125 92.376659 
L 348.823125 135.411034 
Q 348.823125 137.411034 350.823125 137.411034 
z
" style="fill: #ffffff; opacity: 0.8; stroke: #cccccc; stroke-linejoin: miter"/>
    </g>
    <g id="line2d_27">
     <path d="M 352.823125 98.475097 
L 362.823125 98.475097 
L 372.823125 98.475097 
" style="fill: none; stroke: #1f77b4; stroke-width: 1.5; stroke-linecap: square"/>
    </g>
    <g id="text_12">
     <!-- P1 -->
     <g transform="translate(380.823125 101.975097)scale(0.1 -0.1)">
      <use xlink:href="#DejaVuSans-50"/>
      <use xlink:href="#DejaVuSans-31" x="60.302734"/>
     </g>
    </g>
    <g id="line2d_28">
     <path d="M 352.823125 113.153222 
L 362.823125 113.153222 
L 372.823125 113.153222 
" style="fill: none; stroke: #ff7f0e; stroke-width: 1.5; stroke-linecap: square"/>
    </g>
    <g id="text_13">
     <!-- Pmid -->
     <g transform="translate(380.823125 116.653222)scale(0.1 -0.1)">
      <use xlink:href="#DejaVuSans-50"/>
      <use xlink:href="#DejaVuSans-6d" x="60.302734"/>
      <use xlink:href="#DejaVuSans-69" x="157.714844"/>
      <use xlink:href="#DejaVuSans-64" x="185.498047"/>
     </g>
    </g>
    <g id="line2d_29">
     <path d="M 352.823125 127.831347 
L 362.823125 127.831347 
L 372.823125 127.831347 
" style="fill: none; stroke: #2ca02c; stroke-width: 1.5; stroke-linecap: square"/>
    </g>
    <g id="text_14">
     <!-- PN -->
     <g transform="translate(380.823125 131.331347)scale(0.1 -0.1)">
      <use xlink:href="#DejaVuSans-50"/>
      <use xlink:href="#DejaVuSans-4e" x="60.302734"/>
     </g>
    </g>
   </g>
  </g>
  <g id="axes_3">
   <g id="patch_14">
    <path d="M 57.6 197.46869 
L 414.72 197.46869 
L 414.72 151.58731 
L 57.6 151.58731 
z
" style="fill: #ffffff"/>
   </g>
   <g id="matplotlib.axis_5">
    <g id="xtick_13">
     <g id="line2d_30">
      <g>
       <use xlink:href="#ma32f7b01cc" x="73.832727" y="197.46869" style="stroke: #000000; stroke-width: 0.8"/>
      </g>
     </g>
    </g>
    <g id="xtick_14">
     <g id="line2d_31">
      <g>
       <use xlink:href="#ma32f7b01cc" x="138.763636" y="197.46869" style="stroke: #000000; stroke-width: 0.8"/>
      </g>
     </g>
    </g>
    <g id="xtick_15">
     <g id="line2d_32">
      <g>
       <use xlink:href="#ma32f7b01cc" x="203.694545" y="197.46869" style="stroke: #000000; stroke-width: 0.8"/>
      </g>
     </g>
    </g>
    <g id="xtick_16">
     <g id="line2d_33">
      <g>
       <use xlink:href="#ma32f7b01cc" x="268.625455" y="197.46869" style="stroke: #000000; stroke-width: 0.8"/>
      </g>
     </g>
    </g>
    <g id="xtick_17">
     <g id="line2d_34">
      <g>
       <use xlink:href="#ma32f7b01cc" x="333.556364" y="197.46869" style="stroke: #000000; stroke-width: 0.8"/>
      </g>
     </g>
    </g>
    <g id="xtick_18">
     <g id="line2d_35">
      <g>
       <use xlink:href="#ma32f7b01cc" x="398.487273" y="197.46869" style="stroke: #000000; stroke-width: 0.8"/>
      </g>
     </g>
    </g>
   </g>
   <g id="matplotlib.axis_6">
    <g id="ytick_6">
     <g id="line2d_36">
      <g>
       <use xlink:href="#macc1f7d844" x="57.6" y="193.832326" style="stroke: #000000; stroke-width: 0.8"/>
      </g>
     </g>
     <g id="text_15">
      <!-- 0.05 -->
      <g transform="translate(28.334375 197.631544)scale(0.1 -0.1)">
       <defs>
        <path id="DejaVuSans-2e" d="M 684 794 
L 1344 794 
L 1344 0 
L 684 0 
L 684 794 
z
" transform="scale(0.015625)"/>
        <path id="DejaVuSans-35" d="M 691 4666 
L 3169 4666 
L 3169 4134 
L 1269 4134 
L 1269 2991 
Q 1406 3038 1543 3061 
Q 1681 3084 1819 3084 
Q 2600 3084 3056 2656 
Q 3513 2228 3513 1497 
Q 3513 744 3044 326 
Q 2575 -91 1722 -91 
Q 1428 -91 1123 -41 
Q 819 9 494 109 
L 494 744 
Q 775 591 1075 516 
Q 1375 441 1709 441 
Q 2250 441 2565 725 
Q 2881 1009 2881 1497 
Q 2881 1984 2565 2268 
Q 2250 2553 1709 2553 
Q 1456 2553 1204 2497 
Q 953 2441 691 2322 
L 691 4666 
z
" transform="scale(0.015625)"/>
       </defs>
       <use xlink:href="#DejaVuSans-30"/>
       <use xlink:href="#DejaVuSans-2e" x="63.623047"/>
       <use xlink:href="#DejaVuSans-30" x="95.410156"/>
       <use xlink:href="#DejaVuSans-35" x="159.033203"/>
      </g>
     </g>
    </g>
    <g id="ytick_7">
     <g id="line2d_37">
      <g>
       <use xlink:href="#macc1f7d844" x="57.6" y="162.711792" style="stroke: #000000; stroke-width: 0.8"/>
      </g>
     </g>
     <g id="text_16">
      <!-- 0.10 -->
      <g transform="translate(28.334375 166.51101)scale(0.1 -0.1)">
       <use xlink:href="#DejaVuSans-30"/>
       <use xlink:href="#DejaVuSans-2e" x="63.623047"/>
       <use xlink:href="#DejaVuSans-31" x="95.410156"/>
       <use xlink:href="#DejaVuSans-30" x="159.033203"/>
      </g>
     </g>
    </g>
    <g id="text_17">
     <!-- fraction -->
     <g transform="translate(22.254687 193.73425)rotate(-90)scale(0.1 -0.1)">
      <use xlink:href="#DejaVuSans-66"/>
      <use xlink:href="#DejaVuSans-72" x="35.205078"/>
      <use xlink:href="#DejaVuSans-61" x="76.318359"/>
      <use xlink:href="#DejaVuSans-63" x="137.597656"/>
      <use xlink:href="#DejaVuSans-74" x="192.578125"/>
      <use xlink:href="#DejaVuSans-69" x="231.787109"/>
      <use xlink:href="#DejaVuSans-6f" x="259.570312"/>
      <use xlink:href="#DejaVuSans-6e" x="320.751953"/>
     </g>
    </g>
   </g>
   <g id="line2d_38">
    <path d="M 73.832727 153.672828 
L 77.079273 193.860594 
L 80.325818 194.137335 
L 83.572364 194.219695 
L 86.818909 194.271018 
L 90.065455 194.304261 
L 93.312 194.339878 
L 96.558545 194.353464 
L 99.805091 194.353508 
L 103.051636 194.363111 
L 106.298182 194.346656 
L 109.544727 194.351655 
L 112.791273 194.365197 
L 116.037818 194.378737 
L 119.284364 194.377844 
L 122.530909 194.369317 
L 125.777455 194.036418 
L 129.024 193.98259 
L 132.270545 193.94296 
L 135.517091 193.913663 
L 138.763636 193.895184 
L 142.010182 193.880829 
L 145.256727 193.87128 
L 148.503273 193.863291 
L 151.749818 193.856618 
L 154.996364 193.851954 
L 158.242909 193.847444 
L 161.489455 193.845152 
L 164.736 193.842859 
L 167.982545 193.840567 
L 171.229091 193.83848 
L 174.475636 193.632075 
L 177.722182 193.314745 
L 180.968727 192.915284 
L 184.215273 192.420728 
L 187.461818 191.913953 
L 190.708364 191.430996 
L 193.954909 191.042972 
L 197.201455 190.74596 
L 200.448 190.53522 
L 203.694545 190.395074 
L 206.941091 190.304219 
L 210.187636 190.247177 
L 213.434182 190.211192 
L 216.680727 190.189714 
L 219.927273 190.176337 
L 223.173818 190.169122 
L 226.420364 190.162916 
L 229.666909 190.159712 
L 232.913455 190.158092 
L 236.16 190.157002 
L 239.406545 190.156272 
L 242.653091 190.155854 
L 245.899636 190.15564 
L 249.146182 190.155471 
L 252.392727 190.155357 
L 255.639273 190.155303 
L 258.885818 190.155305 
L 262.132364 190.155272 
L 265.378909 190.155292 
L 268.625455 190.155026 
L 271.872 187.922084 
L 275.118545 184.784689 
L 278.365091 180.712982 
L 281.611636 175.970301 
L 284.858182 171.071769 
L 288.104727 166.522455 
L 291.351273 162.774366 
L 294.597818 159.891671 
L 297.844364 157.814074 
L 301.090909 156.40162 
L 304.337455 155.465229 
L 307.584 154.850293 
L 310.830545 154.45577 
L 314.077091 154.201115 
L 317.323636 154.033851 
L 320.570182 153.929051 
L 323.816727 153.857923 
L 327.063273 153.811432 
L 330.309818 153.780521 
L 333.556364 153.759355 
L 336.802909 153.744728 
L 340.049455 153.734445 
L 343.296 153.72729 
L 346.542545 153.722403 
L 349.789091 153.718197 
L 353.035636 153.715604 
L 356.282182 153.713367 
L 359.528727 153.711812 
L 362.775273 153.710577 
L 366.021818 153.709587 
L 369.268364 153.708845 
L 372.514909 153.708246 
L 375.761455 153.707848 
L 379.008 153.707508 
L 382.254545 153.70717 
L 385.501091 153.706974 
L 388.747636 153.70681 
L 391.994182 153.706651 
L 395.240727 153.706506 
L 398.487273 153.706388 
" clip-path="url(#pb5fa0fc81e)" style="fill: none; stroke: #1f77b4; stroke-width: 1.5; stroke-linecap: square"/>
   </g>
   <g id="line2d_39">
    <path d="M 73.832727 156.572154 
L 77.079273 194.784599 
L 80.325818 195.16513 
L 83.572364 195.280114 
L 86.818909 195.330261 
L 90.065455 195.35559 
L 93.312 195.369111 
L 96.558545 195.376452 
L 99.805091 195.380393 
L 103.051636 195.38231 
L 106.298182 195.38309 
L 109.544727 195.383172 
L 112.791273 195.382842 
L 116.037818 195.382253 
L 119.284364 195.381521 
L 122.530909 195.380785 
L 125.777455 195.123975 
L 129.024 195.040881 
L 132.270545 194.965165 
L 135.517091 194.895598 
L 138.763636 194.834196 
L 142.010182 194.777149 
L 145.256727 194.727181 
L 148.503273 194.679614 
L 151.749818 194.634866 
L 154.996364 194.59442 
L 158.242909 194.554477 
L 161.489455 194.521719 
L 164.736 194.488962 
L 167.982545 194.456205 
L 171.229091 194.42401 
L 174.475636 194.243456 
L 177.722182 193.927402 
L 180.968727 193.539137 
L 184.215273 193.045137 
L 187.461818 192.546633 
L 190.708364 192.06661 
L 193.954909 191.688751 
L 197.201455 191.399096 
L 200.448 191.192376 
L 203.694545 191.056491 
L 206.941091 190.968327 
L 210.187636 190.913123 
L 213.434182 190.878253 
L 216.680727 190.857617 
L 219.927273 190.844698 
L 223.173818 190.837765 
L 226.420364 190.831718 
L 229.666909 190.828591 
L 232.913455 190.827022 
L 236.16 190.825923 
L 239.406545 190.825169 
L 242.653091 190.824723 
L 245.899636 190.824464 
L 249.146182 190.82425 
L 252.392727 190.824087 
L 255.639273 190.823981 
L 258.885818 190.823927 
L 262.132364 190.823841 
L 265.378909 190.823802 
L 268.625455 190.823741 
L 271.872 188.737182 
L 275.118545 185.888487 
L 278.365091 182.470644 
L 281.611636 178.882339 
L 284.858182 175.474988 
L 288.104727 172.340202 
L 291.351273 169.577246 
L 294.597818 167.140177 
L 297.844364 164.997273 
L 301.090909 163.166858 
L 304.337455 161.615254 
L 307.584 160.325463 
L 310.830545 159.239707 
L 314.077091 158.356651 
L 317.323636 157.631099 
L 320.570182 157.050013 
L 323.816727 156.591594 
L 327.063273 156.205688 
L 330.309818 155.917382 
L 333.556364 155.684645 
L 336.802909 155.49927 
L 340.049455 155.353121 
L 343.296 155.239813 
L 346.542545 155.152177 
L 349.789091 155.083137 
L 353.035636 155.030411 
L 356.282182 154.987157 
L 359.528727 154.954079 
L 362.775273 154.927422 
L 366.021818 154.905983 
L 369.268364 154.889142 
L 372.514909 154.87559 
L 375.761455 154.86593 
L 379.008 154.858043 
L 382.254545 154.850971 
L 385.501091 154.846302 
L 388.747636 154.842389 
L 391.994182 154.838658 
L 395.240727 154.835263 
L 398.487273 154.832439 
" clip-path="url(#pb5fa0fc81e)" style="fill: none; stroke: #ff7f0e; stroke-width: 1.5; stroke-linecap: square"/>
   </g>
   <g id="patch_15">
    <path d="M 57.6 197.46869 
L 57.6 151.58731 
" style="fill: none; stroke: #000000; stroke-width: 0.8; stroke-linejoin: miter; stroke-linecap: square"/>
   </g>
   <g id="patch_16">
    <path d="M 414.72 197.46869 
L 414.72 151.58731 
" style="fill: none; stroke: #000000; stroke-width: 0.8; stroke-linejoin: miter; stroke-linecap: square"/>
   </g>
   <g id="patch_17">
    <path d="M 57.6 197.46869 
L 414.72 197.46869 
" style="fill: none; stroke: #000000; stroke-width: 0.8; stroke-linejoin: miter; stroke-linecap: square"/>
   </g>
   <g id="patch_18">
    <path d="M 57.6 151.58731 
L 414.72 151.58731 
" style="fill: none; stroke: #000000; stroke-width: 0.8; stroke-linejoin: miter; stroke-linecap: square"/>
   </g>
   <g id="text_18">
    <!-- yA -->
    <g transform="translate(228.504375 145.58731)scale(0.12 -0.12)">
     <defs>
      <path id="DejaVuSans-41" d="M 2188 4044 
L 1331 1722 
L 3047 1722 
L 2188 4044 
z
M 1831 4666 
L 2547 4666 
L 4325 0 
L 3669 0 
L 3244 1197 
L 1141 1197 
L 716 0 
L 50 0 
L 1831 4666 
z
" transform="scale(0.015625)"/>
     </defs>
     <use xlink:href="#DejaVuSans-79"/>
     <use xlink:href="#DejaVuSans-41" x="59.179688"/>
    </g>
   </g>
   <g id="legend_3">
    <g id="patch_19">
     <path d="M 330.030938 188.94356 
L 407.72 188.94356 
Q 409.72 188.94356 409.72 186.94356 
L 409.72 158.58731 
Q 409.72 156.58731 407.72 156.58731 
L 330.030938 156.58731 
Q 328.030938 156.58731 328.030938 158.58731 
L 328.030938 186.94356 
Q 328.030938 188.94356 330.030938 188.94356 
z
" style="fill: #ffffff; opacity: 0.8; stroke: #cccccc; stroke-linejoin: miter"/>
    </g>
    <g id="line2d_40">
     <path d="M 332.030938 164.685748 
L 342.030938 164.685748 
L 352.030938 164.685748 
" style="fill: none; stroke: #1f77b4; stroke-width: 1.5; stroke-linecap: square"/>
    </g>
    <g id="text_19">
     <!-- yA0 (in) -->
     <g transform="translate(360.030938 168.185748)scale(0.1 -0.1)">
      <use xlink:href="#DejaVuSans-79"/>
      <use xlink:href="#DejaVuSans-41" x="59.179688"/>
      <use xlink:href="#DejaVuSans-30" x="127.587891"/>
      <use xlink:href="#DejaVuSans-20" x="191.210938"/>
      <use xlink:href="#DejaVuSans-28" x="222.998047"/>
      <use xlink:href="#DejaVuSans-69" x="262.011719"/>
      <use xlink:href="#DejaVuSans-6e" x="289.794922"/>
      <use xlink:href="#DejaVuSans-29" x="353.173828"/>
     </g>
    </g>
    <g id="line2d_41">
     <path d="M 332.030938 179.363873 
L 342.030938 179.363873 
L 352.030938 179.363873 
" style="fill: none; stroke: #ff7f0e; stroke-width: 1.5; stroke-linecap: square"/>
    </g>
    <g id="text_20">
     <!-- yAL (out) -->
     <g transform="translate(360.030938 182.863873)scale(0.1 -0.1)">
      <defs>
       <path id="DejaVuSans-4c" d="M 628 4666 
L 1259 4666 
L 1259 531 
L 3531 531 
L 3531 0 
L 628 0 
L 628 4666 
z
" transform="scale(0.015625)"/>
      </defs>
      <use xlink:href="#DejaVuSans-79"/>
      <use xlink:href="#DejaVuSans-41" x="59.179688"/>
      <use xlink:href="#DejaVuSans-4c" x="127.587891"/>
      <use xlink:href="#DejaVuSans-20" x="183.300781"/>
      <use xlink:href="#DejaVuSans-28" x="215.087891"/>
      <use xlink:href="#DejaVuSans-6f" x="254.101562"/>
      <use xlink:href="#DejaVuSans-75" x="315.283203"/>
      <use xlink:href="#DejaVuSans-74" x="378.662109"/>
      <use xlink:href="#DejaVuSans-29" x="417.871094"/>
     </g>
    </g>
   </g>
  </g>
  <g id="axes_4">
   <g id="patch_20">
    <path d="M 57.6 252.526345 
L 414.72 252.526345 
L 414.72 206.644966 
L 57.6 206.644966 
z
" style="fill: #ffffff"/>
   </g>
   <g id="matplotlib.axis_7">
    <g id="xtick_19">
     <g id="line2d_42">
      <g>
       <use xlink:href="#ma32f7b01cc" x="73.832727" y="252.526345" style="stroke: #000000; stroke-width: 0.8"/>
      </g>
     </g>
    </g>
    <g id="xtick_20">
     <g id="line2d_43">
      <g>
       <use xlink:href="#ma32f7b01cc" x="138.763636" y="252.526345" style="stroke: #000000; stroke-width: 0.8"/>
      </g>
     </g>
    </g>
    <g id="xtick_21">
     <g id="line2d_44">
      <g>
       <use xlink:href="#ma32f7b01cc" x="203.694545" y="252.526345" style="stroke: #000000; stroke-width: 0.8"/>
      </g>
     </g>
    </g>
    <g id="xtick_22">
     <g id="line2d_45">
      <g>
       <use xlink:href="#ma32f7b01cc" x="268.625455" y="252.526345" style="stroke: #000000; stroke-width: 0.8"/>
      </g>
     </g>
    </g>
    <g id="xtick_23">
     <g id="line2d_46">
      <g>
       <use xlink:href="#ma32f7b01cc" x="333.556364" y="252.526345" style="stroke: #000000; stroke-width: 0.8"/>
      </g>
     </g>
    </g>
    <g id="xtick_24">
     <g id="line2d_47">
      <g>
       <use xlink:href="#ma32f7b01cc" x="398.487273" y="252.526345" style="stroke: #000000; stroke-width: 0.8"/>
      </g>
     </g>
    </g>
   </g>
   <g id="matplotlib.axis_8">
    <g id="ytick_8">
     <g id="line2d_48">
      <g>
       <use xlink:href="#macc1f7d844" x="57.6" y="238.958469" style="stroke: #000000; stroke-width: 0.8"/>
      </g>
     </g>
     <g id="text_21">
      <!-- 0.85 -->
      <g transform="translate(28.334375 242.757687)scale(0.1 -0.1)">
       <defs>
        <path id="DejaVuSans-38" d="M 2034 2216 
Q 1584 2216 1326 1975 
Q 1069 1734 1069 1313 
Q 1069 891 1326 650 
Q 1584 409 2034 409 
Q 2484 409 2743 651 
Q 3003 894 3003 1313 
Q 3003 1734 2745 1975 
Q 2488 2216 2034 2216 
z
M 1403 2484 
Q 997 2584 770 2862 
Q 544 3141 544 3541 
Q 544 4100 942 4425 
Q 1341 4750 2034 4750 
Q 2731 4750 3128 4425 
Q 3525 4100 3525 3541 
Q 3525 3141 3298 2862 
Q 3072 2584 2669 2484 
Q 3125 2378 3379 2068 
Q 3634 1759 3634 1313 
Q 3634 634 3220 271 
Q 2806 -91 2034 -91 
Q 1263 -91 848 271 
Q 434 634 434 1313 
Q 434 1759 690 2068 
Q 947 2378 1403 2484 
z
M 1172 3481 
Q 1172 3119 1398 2916 
Q 1625 2713 2034 2713 
Q 2441 2713 2670 2916 
Q 2900 3119 2900 3481 
Q 2900 3844 2670 4047 
Q 2441 4250 2034 4250 
Q 1625 4250 1398 4047 
Q 1172 3844 1172 3481 
z
" transform="scale(0.015625)"/>
       </defs>
       <use xlink:href="#DejaVuSans-30"/>
       <use xlink:href="#DejaVuSans-2e" x="63.623047"/>
       <use xlink:href="#DejaVuSans-38" x="95.410156"/>
       <use xlink:href="#DejaVuSans-35" x="159.033203"/>
      </g>
     </g>
    </g>
    <g id="ytick_9">
     <g id="line2d_49">
      <g>
       <use xlink:href="#macc1f7d844" x="57.6" y="211.3927" style="stroke: #000000; stroke-width: 0.8"/>
      </g>
     </g>
     <g id="text_22">
      <!-- 0.90 -->
      <g transform="translate(28.334375 215.191918)scale(0.1 -0.1)">
       <defs>
        <path id="DejaVuSans-39" d="M 703 97 
L 703 672 
Q 941 559 1184 500 
Q 1428 441 1663 441 
Q 2288 441 2617 861 
Q 2947 1281 2994 2138 
Q 2813 1869 2534 1725 
Q 2256 1581 1919 1581 
Q 1219 1581 811 2004 
Q 403 2428 403 3163 
Q 403 3881 828 4315 
Q 1253 4750 1959 4750 
Q 2769 4750 3195 4129 
Q 3622 3509 3622 2328 
Q 3622 1225 3098 567 
Q 2575 -91 1691 -91 
Q 1453 -91 1209 -44 
Q 966 3 703 97 
z
M 1959 2075 
Q 2384 2075 2632 2365 
Q 2881 2656 2881 3163 
Q 2881 3666 2632 3958 
Q 2384 4250 1959 4250 
Q 1534 4250 1286 3958 
Q 1038 3666 1038 3163 
Q 1038 2656 1286 2365 
Q 1534 2075 1959 2075 
z
" transform="scale(0.015625)"/>
       </defs>
       <use xlink:href="#DejaVuSans-30"/>
       <use xlink:href="#DejaVuSans-2e" x="63.623047"/>
       <use xlink:href="#DejaVuSans-39" x="95.410156"/>
       <use xlink:href="#DejaVuSans-30" x="159.033203"/>
      </g>
     </g>
    </g>
    <g id="text_23">
     <!-- fraction -->
     <g transform="translate(22.254687 248.791905)rotate(-90)scale(0.1 -0.1)">
      <use xlink:href="#DejaVuSans-66"/>
      <use xlink:href="#DejaVuSans-72" x="35.205078"/>
      <use xlink:href="#DejaVuSans-61" x="76.318359"/>
      <use xlink:href="#DejaVuSans-63" x="137.597656"/>
      <use xlink:href="#DejaVuSans-74" x="192.578125"/>
      <use xlink:href="#DejaVuSans-69" x="231.787109"/>
      <use xlink:href="#DejaVuSans-6f" x="259.570312"/>
      <use xlink:href="#DejaVuSans-6e" x="320.751953"/>
     </g>
    </g>
   </g>
   <g id="line2d_50">
    <path d="M 73.832727 250.440828 
L 77.079273 211.306832 
L 80.325818 211.076774 
L 83.572364 210.994051 
L 86.818909 210.944094 
L 90.065455 210.929468 
L 93.312 210.941347 
L 96.558545 210.937169 
L 99.805091 210.920386 
L 103.051636 210.918959 
L 106.298182 210.908424 
L 109.544727 210.910637 
L 112.791273 210.921121 
L 116.037818 210.939494 
L 119.284364 210.934911 
L 122.530909 210.919555 
L 125.777455 211.222168 
L 129.024 211.267258 
L 132.270545 211.300362 
L 135.517091 211.32483 
L 138.763636 211.340254 
L 142.010182 211.352235 
L 145.256727 211.360202 
L 148.503273 211.366868 
L 151.749818 211.372436 
L 154.996364 211.376327 
L 158.242909 211.380089 
L 161.489455 211.382002 
L 164.736 211.383914 
L 167.982545 211.385826 
L 171.229091 211.387567 
L 174.475636 211.57046 
L 177.722182 211.870143 
L 180.968727 212.265404 
L 184.215273 212.763557 
L 187.461818 213.284279 
L 190.708364 213.782765 
L 193.954909 214.187786 
L 197.201455 214.498241 
L 200.448 214.718704 
L 203.694545 214.865264 
L 206.941091 214.960579 
L 210.187636 215.020435 
L 213.434182 215.058074 
L 216.680727 215.080654 
L 219.927273 215.094701 
L 223.173818 215.10247 
L 226.420364 215.1088 
L 229.666909 215.112117 
L 232.913455 215.113913 
L 236.16 215.115077 
L 239.406545 215.115849 
L 242.653091 215.116291 
L 245.899636 215.116525 
L 249.146182 215.116706 
L 252.392727 215.116829 
L 255.639273 215.116891 
L 258.885818 215.116893 
L 262.132364 215.116932 
L 265.378909 215.116913 
L 268.625455 215.117135 
L 271.872 217.326473 
L 275.118545 220.508161 
L 278.365091 224.566806 
L 281.611636 229.201528 
L 284.858182 233.907849 
L 288.104727 238.230573 
L 291.351273 241.769224 
L 294.597818 244.484863 
L 297.844364 246.45112 
L 301.090909 247.792572 
L 304.337455 248.687619 
L 307.584 249.278909 
L 310.830545 249.661638 
L 314.077091 249.910621 
L 317.323636 250.076003 
L 320.570182 250.180814 
L 323.816727 250.252295 
L 327.063273 250.300257 
L 330.309818 250.332213 
L 333.556364 250.35454 
L 336.802909 250.370247 
L 340.049455 250.381469 
L 343.296 250.38946 
L 346.542545 250.395095 
L 349.789091 250.399953 
L 353.035636 250.403131 
L 356.282182 250.405889 
L 359.528727 250.407915 
L 362.775273 250.40958 
L 366.021818 250.410967 
L 369.268364 250.412082 
L 372.514909 250.413032 
L 375.761455 250.41376 
L 379.008 250.414419 
L 382.254545 250.41507 
L 385.501091 250.415565 
L 388.747636 250.416022 
L 391.994182 250.416472 
L 395.240727 250.416905 
L 398.487273 250.417306 
" clip-path="url(#pd327849fda)" style="fill: none; stroke: #1f77b4; stroke-width: 1.5; stroke-linecap: square"/>
   </g>
   <g id="line2d_51">
    <path d="M 73.832727 248.438521 
L 77.079273 209.685259 
L 80.325818 209.051945 
L 83.572364 208.879579 
L 86.818909 208.810357 
L 90.065455 208.775657 
L 93.312 208.756152 
L 96.558545 208.744756 
L 99.805091 208.737912 
L 103.051636 208.733904 
L 106.298182 208.731671 
L 109.544727 208.730661 
L 112.791273 208.730483 
L 116.037818 208.730908 
L 119.284364 208.731772 
L 122.530909 208.73293 
L 125.777455 210.015203 
L 129.024 210.234 
L 132.270545 210.37182 
L 135.517091 210.459177 
L 138.763636 210.52581 
L 142.010182 210.583918 
L 145.256727 210.631403 
L 148.503273 210.675405 
L 151.749818 210.716104 
L 154.996364 210.751762 
L 158.242909 210.78692 
L 161.489455 210.814922 
L 164.736 210.842925 
L 167.982545 210.870927 
L 171.229091 210.898373 
L 174.475636 211.059262 
L 177.722182 211.358193 
L 180.968727 211.744711 
L 184.215273 212.243061 
L 187.461818 212.757513 
L 190.708364 213.253922 
L 193.954909 213.650668 
L 197.201455 213.954934 
L 200.448 214.171919 
L 203.694545 214.314638 
L 206.941091 214.407488 
L 210.187636 214.465639 
L 213.434182 214.502233 
L 216.680727 214.524015 
L 219.927273 214.537616 
L 223.173818 214.545121 
L 226.420364 214.551291 
L 229.666909 214.554525 
L 232.913455 214.556265 
L 236.16 214.55743 
L 239.406545 214.558218 
L 242.653091 214.558681 
L 245.899636 214.558951 
L 249.146182 214.559169 
L 252.392727 214.559331 
L 255.639273 214.559436 
L 258.885818 214.559485 
L 262.132364 214.559568 
L 265.378909 214.5596 
L 268.625455 214.55965 
L 271.872 216.633514 
L 275.118545 219.546162 
L 278.365091 222.997211 
L 281.611636 226.573877 
L 284.858182 229.936749 
L 288.104727 233.005003 
L 291.351273 235.693364 
L 294.597818 238.053459 
L 297.844364 240.123404 
L 301.090909 241.886309 
L 304.337455 243.378704 
L 307.584 244.617525 
L 310.830545 245.657647 
L 314.077091 246.503796 
L 317.323636 247.197025 
L 320.570182 247.753551 
L 323.816727 248.192317 
L 327.063273 248.559417 
L 330.309818 248.836149 
L 333.556364 249.058473 
L 336.802909 249.235431 
L 340.049455 249.375138 
L 343.296 249.483417 
L 346.542545 249.56714 
L 349.789091 249.633069 
L 353.035636 249.683414 
L 356.282182 249.724706 
L 359.528727 249.756285 
L 362.775273 249.781746 
L 366.021818 249.802226 
L 369.268364 249.818306 
L 372.514909 249.83124 
L 375.761455 249.840459 
L 379.008 249.847982 
L 382.254545 249.854724 
L 385.501091 249.859173 
L 388.747636 249.862902 
L 391.994182 249.866457 
L 395.240727 249.869692 
L 398.487273 249.87238 
" clip-path="url(#pd327849fda)" style="fill: none; stroke: #ff7f0e; stroke-width: 1.5; stroke-linecap: square"/>
   </g>
   <g id="patch_21">
    <path d="M 57.6 252.526345 
L 57.6 206.644966 
" style="fill: none; stroke: #000000; stroke-width: 0.8; stroke-linejoin: miter; stroke-linecap: square"/>
   </g>
   <g id="patch_22">
    <path d="M 414.72 252.526345 
L 414.72 206.644966 
" style="fill: none; stroke: #000000; stroke-width: 0.8; stroke-linejoin: miter; stroke-linecap: square"/>
   </g>
   <g id="patch_23">
    <path d="M 57.6 252.526345 
L 414.72 252.526345 
" style="fill: none; stroke: #000000; stroke-width: 0.8; stroke-linejoin: miter; stroke-linecap: square"/>
   </g>
   <g id="patch_24">
    <path d="M 57.6 206.644966 
L 414.72 206.644966 
" style="fill: none; stroke: #000000; stroke-width: 0.8; stroke-linejoin: miter; stroke-linecap: square"/>
   </g>
   <g id="text_24">
    <!-- yB -->
    <g transform="translate(228.492188 200.644966)scale(0.12 -0.12)">
     <defs>
      <path id="DejaVuSans-42" d="M 1259 2228 
L 1259 519 
L 2272 519 
Q 2781 519 3026 730 
Q 3272 941 3272 1375 
Q 3272 1813 3026 2020 
Q 2781 2228 2272 2228 
L 1259 2228 
z
M 1259 4147 
L 1259 2741 
L 2194 2741 
Q 2656 2741 2882 2914 
Q 3109 3088 3109 3444 
Q 3109 3797 2882 3972 
Q 2656 4147 2194 4147 
L 1259 4147 
z
M 628 4666 
L 2241 4666 
Q 2963 4666 3353 4366 
Q 3744 4066 3744 3513 
Q 3744 3084 3544 2831 
Q 3344 2578 2956 2516 
Q 3422 2416 3680 2098 
Q 3938 1781 3938 1306 
Q 3938 681 3513 340 
Q 3088 0 2303 0 
L 628 0 
L 628 4666 
z
" transform="scale(0.015625)"/>
     </defs>
     <use xlink:href="#DejaVuSans-79"/>
     <use xlink:href="#DejaVuSans-42" x="59.179688"/>
    </g>
   </g>
   <g id="legend_4">
    <g id="patch_25">
     <path d="M 330.010625 244.001216 
L 407.72 244.001216 
Q 409.72 244.001216 409.72 242.001216 
L 409.72 213.644966 
Q 409.72 211.644966 407.72 211.644966 
L 330.010625 211.644966 
Q 328.010625 211.644966 328.010625 213.644966 
L 328.010625 242.001216 
Q 328.010625 244.001216 330.010625 244.001216 
z
" style="fill: #ffffff; opacity: 0.8; stroke: #cccccc; stroke-linejoin: miter"/>
    </g>
    <g id="line2d_52">
     <path d="M 332.010625 219.743403 
L 342.010625 219.743403 
L 352.010625 219.743403 
" style="fill: none; stroke: #1f77b4; stroke-width: 1.5; stroke-linecap: square"/>
    </g>
    <g id="text_25">
     <!-- yB0 (in) -->
     <g transform="translate(360.010625 223.243403)scale(0.1 -0.1)">
      <use xlink:href="#DejaVuSans-79"/>
      <use xlink:href="#DejaVuSans-42" x="59.179688"/>
      <use xlink:href="#DejaVuSans-30" x="127.783203"/>
      <use xlink:href="#DejaVuSans-20" x="191.40625"/>
      <use xlink:href="#DejaVuSans-28" x="223.193359"/>
      <use xlink:href="#DejaVuSans-69" x="262.207031"/>
      <use xlink:href="#DejaVuSans-6e" x="289.990234"/>
      <use xlink:href="#DejaVuSans-29" x="353.369141"/>
     </g>
    </g>
    <g id="line2d_53">
     <path d="M 332.010625 234.421528 
L 342.010625 234.421528 
L 352.010625 234.421528 
" style="fill: none; stroke: #ff7f0e; stroke-width: 1.5; stroke-linecap: square"/>
    </g>
    <g id="text_26">
     <!-- yBL (out) -->
     <g transform="translate(360.010625 237.921528)scale(0.1 -0.1)">
      <use xlink:href="#DejaVuSans-79"/>
      <use xlink:href="#DejaVuSans-42" x="59.179688"/>
      <use xlink:href="#DejaVuSans-4c" x="127.783203"/>
      <use xlink:href="#DejaVuSans-20" x="183.496094"/>
      <use xlink:href="#DejaVuSans-28" x="215.283203"/>
      <use xlink:href="#DejaVuSans-6f" x="254.296875"/>
      <use xlink:href="#DejaVuSans-75" x="315.478516"/>
      <use xlink:href="#DejaVuSans-74" x="378.857422"/>
      <use xlink:href="#DejaVuSans-29" x="418.066406"/>
     </g>
    </g>
   </g>
  </g>
  <g id="axes_5">
   <g id="patch_26">
    <path d="M 57.6 307.584 
L 414.72 307.584 
L 414.72 261.702621 
L 57.6 261.702621 
z
" style="fill: #ffffff"/>
   </g>
   <g id="matplotlib.axis_9">
    <g id="xtick_25">
     <g id="line2d_54">
      <g>
       <use xlink:href="#ma32f7b01cc" x="73.832727" y="307.584" style="stroke: #000000; stroke-width: 0.8"/>
      </g>
     </g>
     <g id="text_27">
      <!-- 0 -->
      <g transform="translate(70.651477 322.182437)scale(0.1 -0.1)">
       <use xlink:href="#DejaVuSans-30"/>
      </g>
     </g>
    </g>
    <g id="xtick_26">
     <g id="line2d_55">
      <g>
       <use xlink:href="#ma32f7b01cc" x="138.763636" y="307.584" style="stroke: #000000; stroke-width: 0.8"/>
      </g>
     </g>
     <g id="text_28">
      <!-- 20 -->
      <g transform="translate(132.401136 322.182437)scale(0.1 -0.1)">
       <defs>
        <path id="DejaVuSans-32" d="M 1228 531 
L 3431 531 
L 3431 0 
L 469 0 
L 469 531 
Q 828 903 1448 1529 
Q 2069 2156 2228 2338 
Q 2531 2678 2651 2914 
Q 2772 3150 2772 3378 
Q 2772 3750 2511 3984 
Q 2250 4219 1831 4219 
Q 1534 4219 1204 4116 
Q 875 4013 500 3803 
L 500 4441 
Q 881 4594 1212 4672 
Q 1544 4750 1819 4750 
Q 2544 4750 2975 4387 
Q 3406 4025 3406 3419 
Q 3406 3131 3298 2873 
Q 3191 2616 2906 2266 
Q 2828 2175 2409 1742 
Q 1991 1309 1228 531 
z
" transform="scale(0.015625)"/>
       </defs>
       <use xlink:href="#DejaVuSans-32"/>
       <use xlink:href="#DejaVuSans-30" x="63.623047"/>
      </g>
     </g>
    </g>
    <g id="xtick_27">
     <g id="line2d_56">
      <g>
       <use xlink:href="#ma32f7b01cc" x="203.694545" y="307.584" style="stroke: #000000; stroke-width: 0.8"/>
      </g>
     </g>
     <g id="text_29">
      <!-- 40 -->
      <g transform="translate(197.332045 322.182437)scale(0.1 -0.1)">
       <defs>
        <path id="DejaVuSans-34" d="M 2419 4116 
L 825 1625 
L 2419 1625 
L 2419 4116 
z
M 2253 4666 
L 3047 4666 
L 3047 1625 
L 3713 1625 
L 3713 1100 
L 3047 1100 
L 3047 0 
L 2419 0 
L 2419 1100 
L 313 1100 
L 313 1709 
L 2253 4666 
z
" transform="scale(0.015625)"/>
       </defs>
       <use xlink:href="#DejaVuSans-34"/>
       <use xlink:href="#DejaVuSans-30" x="63.623047"/>
      </g>
     </g>
    </g>
    <g id="xtick_28">
     <g id="line2d_57">
      <g>
       <use xlink:href="#ma32f7b01cc" x="268.625455" y="307.584" style="stroke: #000000; stroke-width: 0.8"/>
      </g>
     </g>
     <g id="text_30">
      <!-- 60 -->
      <g transform="translate(262.262955 322.182437)scale(0.1 -0.1)">
       <defs>
        <path id="DejaVuSans-36" d="M 2113 2584 
Q 1688 2584 1439 2293 
Q 1191 2003 1191 1497 
Q 1191 994 1439 701 
Q 1688 409 2113 409 
Q 2538 409 2786 701 
Q 3034 994 3034 1497 
Q 3034 2003 2786 2293 
Q 2538 2584 2113 2584 
z
M 3366 4563 
L 3366 3988 
Q 3128 4100 2886 4159 
Q 2644 4219 2406 4219 
Q 1781 4219 1451 3797 
Q 1122 3375 1075 2522 
Q 1259 2794 1537 2939 
Q 1816 3084 2150 3084 
Q 2853 3084 3261 2657 
Q 3669 2231 3669 1497 
Q 3669 778 3244 343 
Q 2819 -91 2113 -91 
Q 1303 -91 875 529 
Q 447 1150 447 2328 
Q 447 3434 972 4092 
Q 1497 4750 2381 4750 
Q 2619 4750 2861 4703 
Q 3103 4656 3366 4563 
z
" transform="scale(0.015625)"/>
       </defs>
       <use xlink:href="#DejaVuSans-36"/>
       <use xlink:href="#DejaVuSans-30" x="63.623047"/>
      </g>
     </g>
    </g>
    <g id="xtick_29">
     <g id="line2d_58">
      <g>
       <use xlink:href="#ma32f7b01cc" x="333.556364" y="307.584" style="stroke: #000000; stroke-width: 0.8"/>
      </g>
     </g>
     <g id="text_31">
      <!-- 80 -->
      <g transform="translate(327.193864 322.182437)scale(0.1 -0.1)">
       <use xlink:href="#DejaVuSans-38"/>
       <use xlink:href="#DejaVuSans-30" x="63.623047"/>
      </g>
     </g>
    </g>
    <g id="xtick_30">
     <g id="line2d_59">
      <g>
       <use xlink:href="#ma32f7b01cc" x="398.487273" y="307.584" style="stroke: #000000; stroke-width: 0.8"/>
      </g>
     </g>
     <g id="text_32">
      <!-- 100 -->
      <g transform="translate(388.943523 322.182437)scale(0.1 -0.1)">
       <use xlink:href="#DejaVuSans-31"/>
       <use xlink:href="#DejaVuSans-30" x="63.623047"/>
       <use xlink:href="#DejaVuSans-30" x="127.246094"/>
      </g>
     </g>
    </g>
    <g id="text_33">
     <!-- time (normalized) -->
     <g transform="translate(191.589687 335.860562)scale(0.1 -0.1)">
      <use xlink:href="#DejaVuSans-74"/>
      <use xlink:href="#DejaVuSans-69" x="39.208984"/>
      <use xlink:href="#DejaVuSans-6d" x="66.992188"/>
      <use xlink:href="#DejaVuSans-65" x="164.404297"/>
      <use xlink:href="#DejaVuSans-20" x="225.927734"/>
      <use xlink:href="#DejaVuSans-28" x="257.714844"/>
      <use xlink:href="#DejaVuSans-6e" x="296.728516"/>
      <use xlink:href="#DejaVuSans-6f" x="360.107422"/>
      <use xlink:href="#DejaVuSans-72" x="421.289062"/>
      <use xlink:href="#DejaVuSans-6d" x="460.652344"/>
      <use xlink:href="#DejaVuSans-61" x="558.064453"/>
      <use xlink:href="#DejaVuSans-6c" x="619.34375"/>
      <use xlink:href="#DejaVuSans-69" x="647.126953"/>
      <use xlink:href="#DejaVuSans-7a" x="674.910156"/>
      <use xlink:href="#DejaVuSans-65" x="727.400391"/>
      <use xlink:href="#DejaVuSans-64" x="788.923828"/>
      <use xlink:href="#DejaVuSans-29" x="852.400391"/>
     </g>
    </g>
   </g>
   <g id="matplotlib.axis_10">
    <g id="ytick_10">
     <g id="line2d_60">
      <g>
       <use xlink:href="#macc1f7d844" x="57.6" y="295.413228" style="stroke: #000000; stroke-width: 0.8"/>
      </g>
     </g>
     <g id="text_34">
      <!-- 0.050 -->
      <g transform="translate(21.971875 299.212447)scale(0.1 -0.1)">
       <use xlink:href="#DejaVuSans-30"/>
       <use xlink:href="#DejaVuSans-2e" x="63.623047"/>
       <use xlink:href="#DejaVuSans-30" x="95.410156"/>
       <use xlink:href="#DejaVuSans-35" x="159.033203"/>
       <use xlink:href="#DejaVuSans-30" x="222.65625"/>
      </g>
     </g>
    </g>
    <g id="ytick_11">
     <g id="line2d_61">
      <g>
       <use xlink:href="#macc1f7d844" x="57.6" y="273.843943" style="stroke: #000000; stroke-width: 0.8"/>
      </g>
     </g>
     <g id="text_35">
      <!-- 0.055 -->
      <g transform="translate(21.971875 277.643162)scale(0.1 -0.1)">
       <use xlink:href="#DejaVuSans-30"/>
       <use xlink:href="#DejaVuSans-2e" x="63.623047"/>
       <use xlink:href="#DejaVuSans-30" x="95.410156"/>
       <use xlink:href="#DejaVuSans-35" x="159.033203"/>
       <use xlink:href="#DejaVuSans-35" x="222.65625"/>
      </g>
     </g>
    </g>
    <g id="text_36">
     <!-- fraction -->
     <g transform="translate(15.892187 303.84956)rotate(-90)scale(0.1 -0.1)">
      <use xlink:href="#DejaVuSans-66"/>
      <use xlink:href="#DejaVuSans-72" x="35.205078"/>
      <use xlink:href="#DejaVuSans-61" x="76.318359"/>
      <use xlink:href="#DejaVuSans-63" x="137.597656"/>
      <use xlink:href="#DejaVuSans-74" x="192.578125"/>
      <use xlink:href="#DejaVuSans-69" x="231.787109"/>
      <use xlink:href="#DejaVuSans-6f" x="259.570312"/>
      <use xlink:href="#DejaVuSans-6e" x="320.751953"/>
     </g>
    </g>
   </g>
   <g id="line2d_62">
    <path d="M 73.832727 268.215663 
L 77.079273 295.889185 
L 80.325818 295.771248 
L 83.572364 295.847709 
L 86.818909 295.882891 
L 90.065455 295.766929 
L 93.312 295.427126 
L 96.558545 295.365652 
L 99.805091 295.496667 
L 103.051636 295.441273 
L 106.298182 295.63776 
L 109.544727 295.585794 
L 112.791273 295.409905 
L 116.037818 295.172291 
L 119.284364 295.214341 
L 122.530909 295.393601 
L 125.777455 295.333042 
L 129.024 295.3533 
L 132.270545 295.368942 
L 135.517091 295.380549 
L 138.763636 295.387933 
L 142.010182 295.393683 
L 145.256727 295.397518 
L 148.503273 295.400731 
L 151.749818 295.403417 
L 154.996364 295.405297 
L 158.242909 295.407115 
L 161.489455 295.408041 
L 164.736 295.408967 
L 167.982545 295.409893 
L 171.229091 295.410736 
L 174.475636 295.41023 
L 177.722182 295.264686 
L 180.968727 294.94052 
L 184.215273 294.470356 
L 187.461818 293.908279 
L 190.708364 293.355115 
L 193.954909 292.875306 
L 197.201455 292.504666 
L 200.448 292.240226 
L 203.694545 292.064777 
L 206.941091 291.948677 
L 210.187636 291.87567 
L 213.434182 291.830575 
L 216.680727 291.802748 
L 219.927273 291.785556 
L 223.173818 291.774774 
L 226.420364 291.768252 
L 229.666909 291.764508 
L 232.913455 291.761682 
L 236.16 291.76013 
L 239.406545 291.759147 
L 242.653091 291.758581 
L 245.899636 291.758237 
L 249.146182 291.75799 
L 252.392727 291.75782 
L 255.639273 291.757713 
L 258.885818 291.757682 
L 262.132364 291.757605 
L 265.378909 291.757614 
L 268.625455 291.757718 
L 271.872 289.946659 
L 275.118545 286.795952 
L 278.365091 283.258954 
L 281.611636 279.864793 
L 284.858182 276.99058 
L 288.104727 274.697491 
L 291.351273 272.986313 
L 294.597818 271.716987 
L 297.844364 270.731281 
L 301.090909 270.024416 
L 304.337455 269.510997 
L 307.584 269.146409 
L 310.830545 268.886068 
L 314.077091 268.702851 
L 317.323636 268.568078 
L 320.570182 268.474324 
L 323.816727 268.407987 
L 327.063273 268.35493 
L 330.309818 268.319125 
L 333.556364 268.29112 
L 336.802909 268.2696 
L 340.049455 268.253058 
L 343.296 268.240124 
L 346.542545 268.229902 
L 349.789091 268.22104 
L 353.035636 268.214145 
L 356.282182 268.208067 
L 359.528727 268.202998 
L 362.775273 268.19853 
L 366.021818 268.194534 
L 369.268364 268.190958 
L 372.514909 268.187668 
L 375.761455 268.184732 
L 379.008 268.181934 
L 382.254545 268.179184 
L 385.501091 268.176673 
L 388.747636 268.174231 
L 391.994182 268.17181 
L 395.240727 268.169428 
L 398.487273 268.167114 
" clip-path="url(#pbfb01003c9)" style="fill: none; stroke: #1f77b4; stroke-width: 1.5; stroke-linecap: square"/>
   </g>
   <g id="line2d_63">
    <path d="M 73.832727 263.788138 
L 77.079273 302.173274 
L 80.325818 304.491329 
L 83.572364 305.04309 
L 86.818909 305.237172 
L 90.065455 305.33313 
L 93.312 305.392043 
L 96.558545 305.430332 
L 99.805091 305.456568 
L 103.051636 305.474644 
L 106.298182 305.486711 
L 109.544727 305.494046 
L 112.791273 305.497728 
L 116.037818 305.498483 
L 119.284364 305.496795 
L 122.530909 305.492834 
L 125.777455 297.239401 
L 129.024 296.103301 
L 132.270545 295.549689 
L 135.517091 295.348307 
L 138.763636 295.252505 
L 142.010182 295.193207 
L 145.256727 295.167978 
L 148.503273 295.153354 
L 151.749818 295.145041 
L 154.996364 295.146358 
L 158.242909 295.148108 
L 161.489455 295.156034 
L 164.736 295.16396 
L 167.982545 295.171887 
L 171.229091 295.18027 
L 174.475636 295.172772 
L 177.722182 295.024268 
L 180.968727 294.690916 
L 184.215273 294.215351 
L 187.461818 293.645011 
L 190.708364 293.087766 
L 193.954909 292.602257 
L 197.201455 292.229046 
L 200.448 291.96396 
L 203.694545 291.789037 
L 206.941091 291.673573 
L 210.187636 291.601176 
L 213.434182 291.556516 
L 216.680727 291.529102 
L 219.927273 291.512217 
L 223.173818 291.501549 
L 226.420364 291.49518 
L 229.666909 291.491548 
L 232.913455 291.488801 
L 236.16 291.487307 
L 239.406545 291.486367 
L 242.653091 291.485834 
L 245.899636 291.485521 
L 249.146182 291.485302 
L 252.392727 291.485158 
L 255.639273 291.485075 
L 258.885818 291.485064 
L 262.132364 291.485009 
L 265.378909 291.485035 
L 268.625455 291.485064 
L 271.872 289.719474 
L 275.118545 286.672972 
L 278.365091 283.358354 
L 281.611636 280.24227 
L 284.858182 277.544893 
L 288.104727 275.263679 
L 291.351273 273.377894 
L 294.597818 271.801997 
L 297.844364 270.457592 
L 301.090909 269.349856 
L 304.337455 268.426351 
L 307.584 267.672386 
L 310.830545 267.059037 
L 314.077091 266.558561 
L 317.323636 266.162997 
L 320.570182 265.835812 
L 323.816727 265.579864 
L 327.063273 265.382099 
L 330.309818 265.214983 
L 333.556364 265.088446 
L 336.802909 264.988623 
L 340.049455 264.908405 
L 343.296 264.846481 
L 346.542545 264.798776 
L 349.789091 264.761411 
L 353.035636 264.73291 
L 356.282182 264.709607 
L 359.528727 264.691769 
L 362.775273 264.677303 
L 366.021818 264.665644 
L 369.268364 264.656555 
L 372.514909 264.649276 
L 375.761455 264.64409 
L 379.008 264.639887 
L 382.254545 264.636153 
L 385.501091 264.633697 
L 388.747636 264.631647 
L 391.994182 264.629687 
L 395.240727 264.627906 
L 398.487273 264.62644 
" clip-path="url(#pbfb01003c9)" style="fill: none; stroke: #ff7f0e; stroke-width: 1.5; stroke-linecap: square"/>
   </g>
   <g id="patch_27">
    <path d="M 57.6 307.584 
L 57.6 261.702621 
" style="fill: none; stroke: #000000; stroke-width: 0.8; stroke-linejoin: miter; stroke-linecap: square"/>
   </g>
   <g id="patch_28">
    <path d="M 414.72 307.584 
L 414.72 261.702621 
" style="fill: none; stroke: #000000; stroke-width: 0.8; stroke-linejoin: miter; stroke-linecap: square"/>
   </g>
   <g id="patch_29">
    <path d="M 57.6 307.584 
L 414.72 307.584 
" style="fill: none; stroke: #000000; stroke-width: 0.8; stroke-linejoin: miter; stroke-linecap: square"/>
   </g>
   <g id="patch_30">
    <path d="M 57.6 261.702621 
L 414.72 261.702621 
" style="fill: none; stroke: #000000; stroke-width: 0.8; stroke-linejoin: miter; stroke-linecap: square"/>
   </g>
   <g id="text_37">
    <!-- yC -->
    <g transform="translate(228.419062 255.702621)scale(0.12 -0.12)">
     <defs>
      <path id="DejaVuSans-43" d="M 4122 4306 
L 4122 3641 
Q 3803 3938 3442 4084 
Q 3081 4231 2675 4231 
Q 1875 4231 1450 3742 
Q 1025 3253 1025 2328 
Q 1025 1406 1450 917 
Q 1875 428 2675 428 
Q 3081 428 3442 575 
Q 3803 722 4122 1019 
L 4122 359 
Q 3791 134 3420 21 
Q 3050 -91 2638 -91 
Q 1578 -91 968 557 
Q 359 1206 359 2328 
Q 359 3453 968 4101 
Q 1578 4750 2638 4750 
Q 3056 4750 3426 4639 
Q 3797 4528 4122 4306 
z
" transform="scale(0.015625)"/>
     </defs>
     <use xlink:href="#DejaVuSans-79"/>
     <use xlink:href="#DejaVuSans-43" x="59.179688"/>
    </g>
   </g>
   <g id="legend_5">
    <g id="patch_31">
     <path d="M 329.88875 302.584 
L 407.72 302.584 
Q 409.72 302.584 409.72 300.584 
L 409.72 272.22775 
Q 409.72 270.22775 407.72 270.22775 
L 329.88875 270.22775 
Q 327.88875 270.22775 327.88875 272.22775 
L 327.88875 300.584 
Q 327.88875 302.584 329.88875 302.584 
z
" style="fill: #ffffff; opacity: 0.8; stroke: #cccccc; stroke-linejoin: miter"/>
    </g>
    <g id="line2d_64">
     <path d="M 331.88875 278.326187 
L 341.88875 278.326187 
L 351.88875 278.326187 
" style="fill: none; stroke: #1f77b4; stroke-width: 1.5; stroke-linecap: square"/>
    </g>
    <g id="text_38">
     <!-- yC0 (in) -->
     <g transform="translate(359.88875 281.826187)scale(0.1 -0.1)">
      <use xlink:href="#DejaVuSans-79"/>
      <use xlink:href="#DejaVuSans-43" x="59.179688"/>
      <use xlink:href="#DejaVuSans-30" x="129.003906"/>
      <use xlink:href="#DejaVuSans-20" x="192.626953"/>
      <use xlink:href="#DejaVuSans-28" x="224.414062"/>
      <use xlink:href="#DejaVuSans-69" x="263.427734"/>
      <use xlink:href="#DejaVuSans-6e" x="291.210938"/>
      <use xlink:href="#DejaVuSans-29" x="354.589844"/>
     </g>
    </g>
    <g id="line2d_65">
     <path d="M 331.88875 293.004312 
L 341.88875 293.004312 
L 351.88875 293.004312 
" style="fill: none; stroke: #ff7f0e; stroke-width: 1.5; stroke-linecap: square"/>
    </g>
    <g id="text_39">
     <!-- yCL (out) -->
     <g transform="translate(359.88875 296.504312)scale(0.1 -0.1)">
      <use xlink:href="#DejaVuSans-79"/>
      <use xlink:href="#DejaVuSans-43" x="59.179688"/>
      <use xlink:href="#DejaVuSans-4c" x="129.003906"/>
      <use xlink:href="#DejaVuSans-20" x="184.716797"/>
      <use xlink:href="#DejaVuSans-28" x="216.503906"/>
      <use xlink:href="#DejaVuSans-6f" x="255.517578"/>
      <use xlink:href="#DejaVuSans-75" x="316.699219"/>
      <use xlink:href="#DejaVuSans-74" x="380.078125"/>
      <use xlink:href="#DejaVuSans-29" x="419.287109"/>
     </g>
    </g>
   </g>
  </g>
 </g>
 <defs>
  <clipPath id="peffa36f883">
   <rect x="57.6" y="41.472" width="357.12" height="45.881379"/>
  </clipPath>
  <clipPath id="pddc1c25ae3">
   <rect x="57.6" y="96.529655" width="357.12" height="45.881379"/>
  </clipPath>
  <clipPath id="pb5fa0fc81e">
   <rect x="57.6" y="151.58731" width="357.12" height="45.881379"/>
  </clipPath>
  <clipPath id="pd327849fda">
   <rect x="57.6" y="206.644966" width="357.12" height="45.881379"/>
  </clipPath>
  <clipPath id="pbfb01003c9">
   <rect x="57.6" y="261.702621" width="357.12" height="45.881379"/>
  </clipPath>
 </defs>
</svg>
