<?xml version="1.0" encoding="utf-8" standalone="no"?>
<!DOCTYPE svg PUBLIC "-//W3C//DTD SVG 1.1//EN"
  "http://www.w3.org/Graphics/SVG/1.1/DTD/svg11.dtd">
<svg xmlns:xlink="http://www.w3.org/1999/xlink" width="460.8pt" height="345.6pt" viewBox="0 0 460.8 345.6" xmlns="http://www.w3.org/2000/svg" version="1.1">
 <metadata>
  <rdf:RDF xmlns:dc="http://purl.org/dc/elements/1.1/" xmlns:cc="http://creativecommons.org/ns#" xmlns:rdf="http://www.w3.org/1999/02/22-rdf-syntax-ns#">
   <cc:Work>
    <dc:type rdf:resource="http://purl.org/dc/dcmitype/StillImage"/>
    <dc:date>2022-07-05T01:43:44.863576</dc:date>
    <dc:format>image/svg+xml</dc:format>
    <dc:creator>
     <cc:Agent>
      <dc:title>Matplotlib v3.5.2, https://matplotlib.org/</dc:title>
     </cc:Agent>
    </dc:creator>
   </cc:Work>
  </rdf:RDF>
 </metadata>
 <defs>
  <style type="text/css">*{stroke-linejoin: round; stroke-linecap: butt}</style>
 </defs>
 <g id="figure_1">
  <g id="patch_1">
   <path d="M 0 345.6 
L 460.8 345.6 
L 460.8 0 
L 0 0 
z
" style="fill: #ffffff"/>
  </g>
  <g id="axes_1">
   <g id="patch_2">
    <path d="M 57.6 87.353379 
L 414.72 87.353379 
L 414.72 41.472 
L 57.6 41.472 
z
" style="fill: #ffffff"/>
   </g>
   <g id="matplotlib.axis_1">
    <g id="xtick_1">
     <g id="line2d_1">
      <defs>
       <path id="mc7d4d77d5d" d="M 0 0 
L 0 3.5 
" style="stroke: #000000; stroke-width: 0.8"/>
      </defs>
      <g>
       <use xlink:href="#mc7d4d77d5d" x="73.832727" y="87.353379" style="stroke: #000000; stroke-width: 0.8"/>
      </g>
     </g>
    </g>
    <g id="xtick_2">
     <g id="line2d_2">
      <g>
       <use xlink:href="#mc7d4d77d5d" x="138.763636" y="87.353379" style="stroke: #000000; stroke-width: 0.8"/>
      </g>
     </g>
    </g>
    <g id="xtick_3">
     <g id="line2d_3">
      <g>
       <use xlink:href="#mc7d4d77d5d" x="203.694545" y="87.353379" style="stroke: #000000; stroke-width: 0.8"/>
      </g>
     </g>
    </g>
    <g id="xtick_4">
     <g id="line2d_4">
      <g>
       <use xlink:href="#mc7d4d77d5d" x="268.625455" y="87.353379" style="stroke: #000000; stroke-width: 0.8"/>
      </g>
     </g>
    </g>
    <g id="xtick_5">
     <g id="line2d_5">
      <g>
       <use xlink:href="#mc7d4d77d5d" x="333.556364" y="87.353379" style="stroke: #000000; stroke-width: 0.8"/>
      </g>
     </g>
    </g>
    <g id="xtick_6">
     <g id="line2d_6">
      <g>
       <use xlink:href="#mc7d4d77d5d" x="398.487273" y="87.353379" style="stroke: #000000; stroke-width: 0.8"/>
      </g>
     </g>
    </g>
   </g>
   <g id="matplotlib.axis_2">
    <g id="ytick_1">
     <g id="line2d_7">
      <defs>
       <path id="m4ab1a3c406" d="M 0 0 
L -3.5 0 
" style="stroke: #000000; stroke-width: 0.8"/>
      </defs>
      <g>
       <use xlink:href="#m4ab1a3c406" x="57.6" y="71.257164" style="stroke: #000000; stroke-width: 0.8"/>
      </g>
     </g>
     <g id="text_1">
      <!-- 0 -->
      <g transform="translate(44.2375 75.056383)scale(0.1 -0.1)">
       <defs>
        <path id="DejaVuSans-30" d="M 2034 4250 
Q 1547 4250 1301 3770 
Q 1056 3291 1056 2328 
Q 1056 1369 1301 889 
Q 1547 409 2034 409 
Q 2525 409 2770 889 
Q 3016 1369 3016 2328 
Q 3016 3291 2770 3770 
Q 2525 4250 2034 4250 
z
M 2034 4750 
Q 2819 4750 3233 4129 
Q 3647 3509 3647 2328 
Q 3647 1150 3233 529 
Q 2819 -91 2034 -91 
Q 1250 -91 836 529 
Q 422 1150 422 2328 
Q 422 3509 836 4129 
Q 1250 4750 2034 4750 
z
" transform="scale(0.015625)"/>
       </defs>
       <use xlink:href="#DejaVuSans-30"/>
      </g>
     </g>
    </g>
    <g id="ytick_2">
     <g id="line2d_8">
      <g>
       <use xlink:href="#m4ab1a3c406" x="57.6" y="52.971496" style="stroke: #000000; stroke-width: 0.8"/>
      </g>
     </g>
     <g id="text_2">
      <!-- 10 -->
      <g transform="translate(37.875 56.770715)scale(0.1 -0.1)">
       <defs>
        <path id="DejaVuSans-31" d="M 794 531 
L 1825 531 
L 1825 4091 
L 703 3866 
L 703 4441 
L 1819 4666 
L 2450 4666 
L 2450 531 
L 3481 531 
L 3481 0 
L 794 0 
L 794 531 
z
" transform="scale(0.015625)"/>
       </defs>
       <use xlink:href="#DejaVuSans-31"/>
       <use xlink:href="#DejaVuSans-30" x="63.623047"/>
      </g>
     </g>
    </g>
    <g id="text_3">
     <!-- flow rate (normalized) -->
     <g transform="translate(31.795312 119.729877)rotate(-90)scale(0.1 -0.1)">
      <defs>
       <path id="DejaVuSans-66" d="M 2375 4863 
L 2375 4384 
L 1825 4384 
Q 1516 4384 1395 4259 
Q 1275 4134 1275 3809 
L 1275 3500 
L 2222 3500 
L 2222 3053 
L 1275 3053 
L 1275 0 
L 697 0 
L 697 3053 
L 147 3053 
L 147 3500 
L 697 3500 
L 697 3744 
Q 697 4328 969 4595 
Q 1241 4863 1831 4863 
L 2375 4863 
z
" transform="scale(0.015625)"/>
       <path id="DejaVuSans-6c" d="M 603 4863 
L 1178 4863 
L 1178 0 
L 603 0 
L 603 4863 
z
" transform="scale(0.015625)"/>
       <path id="DejaVuSans-6f" d="M 1959 3097 
Q 1497 3097 1228 2736 
Q 959 2375 959 1747 
Q 959 1119 1226 758 
Q 1494 397 1959 397 
Q 2419 397 2687 759 
Q 2956 1122 2956 1747 
Q 2956 2369 2687 2733 
Q 2419 3097 1959 3097 
z
M 1959 3584 
Q 2709 3584 3137 3096 
Q 3566 2609 3566 1747 
Q 3566 888 3137 398 
Q 2709 -91 1959 -91 
Q 1206 -91 779 398 
Q 353 888 353 1747 
Q 353 2609 779 3096 
Q 1206 3584 1959 3584 
z
" transform="scale(0.015625)"/>
       <path id="DejaVuSans-77" d="M 269 3500 
L 844 3500 
L 1563 769 
L 2278 3500 
L 2956 3500 
L 3675 769 
L 4391 3500 
L 4966 3500 
L 4050 0 
L 3372 0 
L 2619 2869 
L 1863 0 
L 1184 0 
L 269 3500 
z
" transform="scale(0.015625)"/>
       <path id="DejaVuSans-20" transform="scale(0.015625)"/>
       <path id="DejaVuSans-72" d="M 2631 2963 
Q 2534 3019 2420 3045 
Q 2306 3072 2169 3072 
Q 1681 3072 1420 2755 
Q 1159 2438 1159 1844 
L 1159 0 
L 581 0 
L 581 3500 
L 1159 3500 
L 1159 2956 
Q 1341 3275 1631 3429 
Q 1922 3584 2338 3584 
Q 2397 3584 2469 3576 
Q 2541 3569 2628 3553 
L 2631 2963 
z
" transform="scale(0.015625)"/>
       <path id="DejaVuSans-61" d="M 2194 1759 
Q 1497 1759 1228 1600 
Q 959 1441 959 1056 
Q 959 750 1161 570 
Q 1363 391 1709 391 
Q 2188 391 2477 730 
Q 2766 1069 2766 1631 
L 2766 1759 
L 2194 1759 
z
M 3341 1997 
L 3341 0 
L 2766 0 
L 2766 531 
Q 2569 213 2275 61 
Q 1981 -91 1556 -91 
Q 1019 -91 701 211 
Q 384 513 384 1019 
Q 384 1609 779 1909 
Q 1175 2209 1959 2209 
L 2766 2209 
L 2766 2266 
Q 2766 2663 2505 2880 
Q 2244 3097 1772 3097 
Q 1472 3097 1187 3025 
Q 903 2953 641 2809 
L 641 3341 
Q 956 3463 1253 3523 
Q 1550 3584 1831 3584 
Q 2591 3584 2966 3190 
Q 3341 2797 3341 1997 
z
" transform="scale(0.015625)"/>
       <path id="DejaVuSans-74" d="M 1172 4494 
L 1172 3500 
L 2356 3500 
L 2356 3053 
L 1172 3053 
L 1172 1153 
Q 1172 725 1289 603 
Q 1406 481 1766 481 
L 2356 481 
L 2356 0 
L 1766 0 
Q 1100 0 847 248 
Q 594 497 594 1153 
L 594 3053 
L 172 3053 
L 172 3500 
L 594 3500 
L 594 4494 
L 1172 4494 
z
" transform="scale(0.015625)"/>
       <path id="DejaVuSans-65" d="M 3597 1894 
L 3597 1613 
L 953 1613 
Q 991 1019 1311 708 
Q 1631 397 2203 397 
Q 2534 397 2845 478 
Q 3156 559 3463 722 
L 3463 178 
Q 3153 47 2828 -22 
Q 2503 -91 2169 -91 
Q 1331 -91 842 396 
Q 353 884 353 1716 
Q 353 2575 817 3079 
Q 1281 3584 2069 3584 
Q 2775 3584 3186 3129 
Q 3597 2675 3597 1894 
z
M 3022 2063 
Q 3016 2534 2758 2815 
Q 2500 3097 2075 3097 
Q 1594 3097 1305 2825 
Q 1016 2553 972 2059 
L 3022 2063 
z
" transform="scale(0.015625)"/>
       <path id="DejaVuSans-28" d="M 1984 4856 
Q 1566 4138 1362 3434 
Q 1159 2731 1159 2009 
Q 1159 1288 1364 580 
Q 1569 -128 1984 -844 
L 1484 -844 
Q 1016 -109 783 600 
Q 550 1309 550 2009 
Q 550 2706 781 3412 
Q 1013 4119 1484 4856 
L 1984 4856 
z
" transform="scale(0.015625)"/>
       <path id="DejaVuSans-6e" d="M 3513 2113 
L 3513 0 
L 2938 0 
L 2938 2094 
Q 2938 2591 2744 2837 
Q 2550 3084 2163 3084 
Q 1697 3084 1428 2787 
Q 1159 2491 1159 1978 
L 1159 0 
L 581 0 
L 581 3500 
L 1159 3500 
L 1159 2956 
Q 1366 3272 1645 3428 
Q 1925 3584 2291 3584 
Q 2894 3584 3203 3211 
Q 3513 2838 3513 2113 
z
" transform="scale(0.015625)"/>
       <path id="DejaVuSans-6d" d="M 3328 2828 
Q 3544 3216 3844 3400 
Q 4144 3584 4550 3584 
Q 5097 3584 5394 3201 
Q 5691 2819 5691 2113 
L 5691 0 
L 5113 0 
L 5113 2094 
Q 5113 2597 4934 2840 
Q 4756 3084 4391 3084 
Q 3944 3084 3684 2787 
Q 3425 2491 3425 1978 
L 3425 0 
L 2847 0 
L 2847 2094 
Q 2847 2600 2669 2842 
Q 2491 3084 2119 3084 
Q 1678 3084 1418 2786 
Q 1159 2488 1159 1978 
L 1159 0 
L 581 0 
L 581 3500 
L 1159 3500 
L 1159 2956 
Q 1356 3278 1631 3431 
Q 1906 3584 2284 3584 
Q 2666 3584 2933 3390 
Q 3200 3197 3328 2828 
z
" transform="scale(0.015625)"/>
       <path id="DejaVuSans-69" d="M 603 3500 
L 1178 3500 
L 1178 0 
L 603 0 
L 603 3500 
z
M 603 4863 
L 1178 4863 
L 1178 4134 
L 603 4134 
L 603 4863 
z
" transform="scale(0.015625)"/>
       <path id="DejaVuSans-7a" d="M 353 3500 
L 3084 3500 
L 3084 2975 
L 922 459 
L 3084 459 
L 3084 0 
L 275 0 
L 275 525 
L 2438 3041 
L 353 3041 
L 353 3500 
z
" transform="scale(0.015625)"/>
       <path id="DejaVuSans-64" d="M 2906 2969 
L 2906 4863 
L 3481 4863 
L 3481 0 
L 2906 0 
L 2906 525 
Q 2725 213 2448 61 
Q 2172 -91 1784 -91 
Q 1150 -91 751 415 
Q 353 922 353 1747 
Q 353 2572 751 3078 
Q 1150 3584 1784 3584 
Q 2172 3584 2448 3432 
Q 2725 3281 2906 2969 
z
M 947 1747 
Q 947 1113 1208 752 
Q 1469 391 1925 391 
Q 2381 391 2643 752 
Q 2906 1113 2906 1747 
Q 2906 2381 2643 2742 
Q 2381 3103 1925 3103 
Q 1469 3103 1208 2742 
Q 947 2381 947 1747 
z
" transform="scale(0.015625)"/>
       <path id="DejaVuSans-29" d="M 513 4856 
L 1013 4856 
Q 1481 4119 1714 3412 
Q 1947 2706 1947 2009 
Q 1947 1309 1714 600 
Q 1481 -109 1013 -844 
L 513 -844 
Q 928 -128 1133 580 
Q 1338 1288 1338 2009 
Q 1338 2731 1133 3434 
Q 928 4138 513 4856 
z
" transform="scale(0.015625)"/>
      </defs>
      <use xlink:href="#DejaVuSans-66"/>
      <use xlink:href="#DejaVuSans-6c" x="35.205078"/>
      <use xlink:href="#DejaVuSans-6f" x="62.988281"/>
      <use xlink:href="#DejaVuSans-77" x="124.169922"/>
      <use xlink:href="#DejaVuSans-20" x="205.957031"/>
      <use xlink:href="#DejaVuSans-72" x="237.744141"/>
      <use xlink:href="#DejaVuSans-61" x="278.857422"/>
      <use xlink:href="#DejaVuSans-74" x="340.136719"/>
      <use xlink:href="#DejaVuSans-65" x="379.345703"/>
      <use xlink:href="#DejaVuSans-20" x="440.869141"/>
      <use xlink:href="#DejaVuSans-28" x="472.65625"/>
      <use xlink:href="#DejaVuSans-6e" x="511.669922"/>
      <use xlink:href="#DejaVuSans-6f" x="575.048828"/>
      <use xlink:href="#DejaVuSans-72" x="636.230469"/>
      <use xlink:href="#DejaVuSans-6d" x="675.59375"/>
      <use xlink:href="#DejaVuSans-61" x="773.005859"/>
      <use xlink:href="#DejaVuSans-6c" x="834.285156"/>
      <use xlink:href="#DejaVuSans-69" x="862.068359"/>
      <use xlink:href="#DejaVuSans-7a" x="889.851562"/>
      <use xlink:href="#DejaVuSans-65" x="942.341797"/>
      <use xlink:href="#DejaVuSans-64" x="1003.865234"/>
      <use xlink:href="#DejaVuSans-29" x="1067.341797"/>
     </g>
    </g>
   </g>
   <g id="line2d_9">
    <path d="M 73.832727 71.728238 
L 77.079273 61.47368 
L 80.325818 54.795614 
L 83.572364 54.818883 
L 86.818909 57.905621 
L 90.065455 61.552354 
L 93.312 64.477644 
L 96.558545 66.636396 
L 99.805091 68.159364 
L 103.051636 69.188503 
L 106.298182 69.871608 
L 109.544727 70.324641 
L 112.791273 70.633667 
L 116.037818 70.839165 
L 119.284364 70.976451 
L 122.530909 71.072097 
L 125.777455 69.821222 
L 129.024 69.708471 
L 132.270545 69.599607 
L 135.517091 69.523773 
L 138.763636 69.474401 
L 142.010182 69.446175 
L 145.256727 69.424231 
L 148.503273 69.415819 
L 151.749818 69.413552 
L 154.996364 69.411523 
L 158.242909 69.414518 
L 161.489455 69.415079 
L 164.736 69.410982 
L 167.982545 69.407748 
L 171.229091 69.405926 
L 174.475636 67.464846 
L 177.722182 65.95478 
L 180.968727 65.509746 
L 184.215273 65.638726 
L 187.461818 66.061216 
L 190.708364 66.617227 
L 193.954909 67.206782 
L 197.201455 67.77992 
L 200.448 68.309068 
L 203.694545 68.77992 
L 206.941091 69.189441 
L 210.187636 69.540961 
L 213.434182 69.838785 
L 216.680727 70.088072 
L 219.927273 70.295561 
L 223.173818 70.46726 
L 226.420364 70.609235 
L 229.666909 70.726138 
L 232.913455 70.822207 
L 236.16 70.900007 
L 239.406545 70.964308 
L 242.653091 71.016022 
L 245.899636 71.05878 
L 249.146182 71.0939 
L 252.392727 71.122513 
L 255.639273 71.146542 
L 258.885818 71.165883 
L 262.132364 71.182277 
L 265.378909 71.196059 
L 268.625455 71.20924 
L 271.872 73.713565 
L 275.118545 74.978807 
L 278.365091 75.610676 
L 281.611636 75.883715 
L 284.858182 75.942999 
L 288.104727 75.870738 
L 291.351273 75.72077 
L 294.597818 75.523185 
L 297.844364 75.300458 
L 301.090909 75.068386 
L 304.337455 74.834557 
L 307.584 74.605702 
L 310.830545 74.385102 
L 314.077091 74.174359 
L 317.323636 73.975494 
L 320.570182 73.788334 
L 323.816727 73.613936 
L 327.063273 73.451767 
L 330.309818 73.296855 
L 333.556364 73.158248 
L 336.802909 73.029775 
L 340.049455 72.907299 
L 343.296 72.79361 
L 346.542545 72.687512 
L 349.789091 72.589269 
L 353.035636 72.497386 
L 356.282182 72.412415 
L 359.528727 72.333603 
L 362.775273 72.260509 
L 366.021818 72.192528 
L 369.268364 72.129776 
L 372.514909 72.07146 
L 375.761455 72.017088 
L 379.008 71.966426 
L 382.254545 71.919545 
L 385.501091 71.875812 
L 388.747636 71.834873 
L 391.994182 71.796688 
L 395.240727 71.761043 
L 398.487273 71.727638 
" clip-path="url(#p18049712a0)" style="fill: none; stroke: #1f77b4; stroke-width: 1.5; stroke-linecap: square"/>
   </g>
   <g id="line2d_10">
    <path d="M 73.832727 72.00499 
L 77.079273 46.74281 
L 80.325818 43.557517 
L 83.572364 46.490003 
L 86.818909 51.444962 
L 90.065455 56.510323 
L 93.312 60.743672 
L 96.558545 63.979693 
L 99.805091 66.323882 
L 103.051636 67.934294 
L 106.298182 69.018056 
L 109.544727 69.752978 
L 112.791273 70.246353 
L 116.037818 70.578629 
L 119.284364 70.800141 
L 122.530909 70.946077 
L 125.777455 69.510354 
L 129.024 69.487453 
L 132.270545 69.465343 
L 135.517091 69.449954 
L 138.763636 69.439953 
L 142.010182 69.434261 
L 145.256727 69.429819 
L 148.503273 69.428126 
L 151.749818 69.42767 
L 154.996364 69.42724 
L 158.242909 69.427825 
L 161.489455 69.427897 
L 164.736 69.427009 
L 167.982545 69.426307 
L 171.229091 69.7224 
L 174.475636 70.592536 
L 177.722182 70.353738 
L 180.968727 70.283117 
L 184.215273 70.300746 
L 187.461818 70.363615 
L 190.708364 70.448293 
L 193.954909 70.540246 
L 197.201455 70.631906 
L 200.448 70.718693 
L 203.694545 70.797947 
L 206.941091 70.868572 
L 210.187636 70.930559 
L 213.434182 70.984203 
L 216.680727 71.03001 
L 219.927273 71.068799 
L 223.173818 71.101314 
L 226.420364 71.128535 
L 229.666909 71.151183 
L 232.913455 71.169963 
L 236.16 71.185352 
L 239.406545 71.198107 
L 242.653091 71.208464 
L 245.899636 71.217032 
L 249.146182 71.22408 
L 252.392727 71.229846 
L 255.639273 71.234679 
L 258.885818 71.238587 
L 262.132364 71.241896 
L 265.378909 71.244677 
L 268.625455 71.328608 
L 271.872 79.297636 
L 275.118545 83.389638 
L 278.365091 85.033266 
L 281.611636 85.267862 
L 284.858182 84.736877 
L 288.104727 83.838244 
L 291.351273 82.820964 
L 294.597818 81.77156 
L 297.844364 80.770341 
L 301.090909 79.860213 
L 304.337455 79.035503 
L 307.584 78.298177 
L 310.830545 77.64056 
L 314.077091 77.053978 
L 317.323636 76.532426 
L 320.570182 76.072536 
L 323.816727 75.658545 
L 327.063273 75.282985 
L 330.309818 74.955323 
L 333.556364 74.652944 
L 336.802909 74.386872 
L 340.049455 74.136922 
L 343.296 73.910678 
L 346.542545 73.703498 
L 349.789091 73.516399 
L 353.035636 73.343428 
L 356.282182 73.187155 
L 359.528727 73.04484 
L 362.775273 72.914677 
L 366.021818 72.794371 
L 369.268364 72.685861 
L 372.514909 72.585752 
L 375.761455 72.4924 
L 379.008 72.40553 
L 382.254545 72.326456 
L 385.501091 72.25281 
L 388.747636 72.183678 
L 391.994182 72.119401 
L 395.240727 72.05963 
L 398.487273 72.003662 
" clip-path="url(#p18049712a0)" style="fill: none; stroke: #ff7f0e; stroke-width: 1.5; stroke-linecap: square"/>
   </g>
   <g id="line2d_11">
    <path d="M 73.832727 71.313049 
L 77.079273 70.378836 
L 80.325818 69.293449 
L 83.572364 69.142966 
L 86.818909 69.618373 
L 90.065455 70.043271 
L 93.312 70.420683 
L 96.558545 70.692708 
L 99.805091 70.881832 
L 103.051636 71.008018 
L 106.298182 71.091093 
L 109.544727 71.145093 
L 112.791273 71.183116 
L 116.037818 71.207242 
L 119.284364 71.223674 
L 122.530909 71.331735 
L 125.777455 70.019182 
L 129.024 69.842228 
L 132.270545 69.671614 
L 135.517091 69.554556 
L 138.763636 69.479994 
L 142.010182 69.438892 
L 145.256727 69.406539 
L 148.503273 69.395416 
L 151.749818 69.39346 
L 154.996364 69.390924 
L 158.242909 69.396311 
L 161.489455 69.397345 
L 164.736 69.390631 
L 167.982545 69.385499 
L 171.229091 69.378183 
L 174.475636 63.817842 
L 177.722182 60.359531 
L 180.968727 59.350211 
L 184.215273 59.794312 
L 187.461818 60.974616 
L 190.708364 62.43015 
L 193.954909 63.873943 
L 197.201455 65.18377 
L 200.448 66.312463 
L 203.694545 67.251663 
L 206.941091 68.021637 
L 210.187636 68.647749 
L 213.434182 69.152297 
L 216.680727 69.556536 
L 219.927273 69.880362 
L 223.173818 70.142113 
L 226.420364 70.353067 
L 229.666909 70.52347 
L 232.913455 70.6613 
L 236.16 70.770286 
L 239.406545 70.860218 
L 242.653091 70.931084 
L 245.899636 70.989607 
L 249.146182 71.037581 
L 252.392727 71.07639 
L 255.639273 71.109159 
L 258.885818 71.135309 
L 262.132364 71.157511 
L 265.378909 71.176207 
L 268.625455 71.212648 
L 271.872 71.488719 
L 275.118545 71.615608 
L 278.365091 71.684046 
L 281.611636 71.717945 
L 284.858182 71.730565 
L 288.104727 71.729374 
L 291.351273 71.719414 
L 294.597818 71.703831 
L 297.844364 71.684844 
L 301.090909 71.664075 
L 304.337455 71.642436 
L 307.584 71.620684 
L 310.830545 71.599262 
L 314.077091 71.578415 
L 317.323636 71.558427 
L 320.570182 71.539318 
L 323.816727 71.521299 
L 327.063273 71.504365 
L 330.309818 71.487925 
L 333.556364 71.473187 
L 336.802909 71.459335 
L 340.049455 71.446076 
L 343.296 71.433682 
L 346.542545 71.422041 
L 349.789091 71.41118 
L 353.035636 71.400976 
L 356.282182 71.391471 
L 359.528727 71.382601 
L 362.775273 71.37433 
L 366.021818 71.366607 
L 369.268364 71.359432 
L 372.514909 71.352742 
L 375.761455 71.346492 
L 379.008 71.340658 
L 382.254545 71.335235 
L 385.501091 71.330169 
L 388.747636 71.325428 
L 391.994182 71.320999 
L 395.240727 71.316857 
L 398.487273 71.312972 
" clip-path="url(#p18049712a0)" style="fill: none; stroke: #2ca02c; stroke-width: 1.5; stroke-linecap: square"/>
   </g>
   <g id="patch_3">
    <path d="M 57.6 87.353379 
L 57.6 41.472 
" style="fill: none; stroke: #000000; stroke-width: 0.8; stroke-linejoin: miter; stroke-linecap: square"/>
   </g>
   <g id="patch_4">
    <path d="M 414.72 87.353379 
L 414.72 41.472 
" style="fill: none; stroke: #000000; stroke-width: 0.8; stroke-linejoin: miter; stroke-linecap: square"/>
   </g>
   <g id="patch_5">
    <path d="M 57.6 87.353379 
L 414.72 87.353379 
" style="fill: none; stroke: #000000; stroke-width: 0.8; stroke-linejoin: miter; stroke-linecap: square"/>
   </g>
   <g id="patch_6">
    <path d="M 57.6 41.472 
L 414.72 41.472 
" style="fill: none; stroke: #000000; stroke-width: 0.8; stroke-linejoin: miter; stroke-linecap: square"/>
   </g>
   <g id="text_4">
    <!-- velocity vs time (container 1)   -->
    <g transform="translate(144.106875 35.472)scale(0.12 -0.12)">
     <defs>
      <path id="DejaVuSans-76" d="M 191 3500 
L 800 3500 
L 1894 563 
L 2988 3500 
L 3597 3500 
L 2284 0 
L 1503 0 
L 191 3500 
z
" transform="scale(0.015625)"/>
      <path id="DejaVuSans-63" d="M 3122 3366 
L 3122 2828 
Q 2878 2963 2633 3030 
Q 2388 3097 2138 3097 
Q 1578 3097 1268 2742 
Q 959 2388 959 1747 
Q 959 1106 1268 751 
Q 1578 397 2138 397 
Q 2388 397 2633 464 
Q 2878 531 3122 666 
L 3122 134 
Q 2881 22 2623 -34 
Q 2366 -91 2075 -91 
Q 1284 -91 818 406 
Q 353 903 353 1747 
Q 353 2603 823 3093 
Q 1294 3584 2113 3584 
Q 2378 3584 2631 3529 
Q 2884 3475 3122 3366 
z
" transform="scale(0.015625)"/>
      <path id="DejaVuSans-79" d="M 2059 -325 
Q 1816 -950 1584 -1140 
Q 1353 -1331 966 -1331 
L 506 -1331 
L 506 -850 
L 844 -850 
Q 1081 -850 1212 -737 
Q 1344 -625 1503 -206 
L 1606 56 
L 191 3500 
L 800 3500 
L 1894 763 
L 2988 3500 
L 3597 3500 
L 2059 -325 
z
" transform="scale(0.015625)"/>
      <path id="DejaVuSans-73" d="M 2834 3397 
L 2834 2853 
Q 2591 2978 2328 3040 
Q 2066 3103 1784 3103 
Q 1356 3103 1142 2972 
Q 928 2841 928 2578 
Q 928 2378 1081 2264 
Q 1234 2150 1697 2047 
L 1894 2003 
Q 2506 1872 2764 1633 
Q 3022 1394 3022 966 
Q 3022 478 2636 193 
Q 2250 -91 1575 -91 
Q 1294 -91 989 -36 
Q 684 19 347 128 
L 347 722 
Q 666 556 975 473 
Q 1284 391 1588 391 
Q 1994 391 2212 530 
Q 2431 669 2431 922 
Q 2431 1156 2273 1281 
Q 2116 1406 1581 1522 
L 1381 1569 
Q 847 1681 609 1914 
Q 372 2147 372 2553 
Q 372 3047 722 3315 
Q 1072 3584 1716 3584 
Q 2034 3584 2315 3537 
Q 2597 3491 2834 3397 
z
" transform="scale(0.015625)"/>
     </defs>
     <use xlink:href="#DejaVuSans-76"/>
     <use xlink:href="#DejaVuSans-65" x="59.179688"/>
     <use xlink:href="#DejaVuSans-6c" x="120.703125"/>
     <use xlink:href="#DejaVuSans-6f" x="148.486328"/>
     <use xlink:href="#DejaVuSans-63" x="209.667969"/>
     <use xlink:href="#DejaVuSans-69" x="264.648438"/>
     <use xlink:href="#DejaVuSans-74" x="292.431641"/>
     <use xlink:href="#DejaVuSans-79" x="331.640625"/>
     <use xlink:href="#DejaVuSans-20" x="390.820312"/>
     <use xlink:href="#DejaVuSans-76" x="422.607422"/>
     <use xlink:href="#DejaVuSans-73" x="481.787109"/>
     <use xlink:href="#DejaVuSans-20" x="533.886719"/>
     <use xlink:href="#DejaVuSans-74" x="565.673828"/>
     <use xlink:href="#DejaVuSans-69" x="604.882812"/>
     <use xlink:href="#DejaVuSans-6d" x="632.666016"/>
     <use xlink:href="#DejaVuSans-65" x="730.078125"/>
     <use xlink:href="#DejaVuSans-20" x="791.601562"/>
     <use xlink:href="#DejaVuSans-28" x="823.388672"/>
     <use xlink:href="#DejaVuSans-63" x="862.402344"/>
     <use xlink:href="#DejaVuSans-6f" x="917.382812"/>
     <use xlink:href="#DejaVuSans-6e" x="978.564453"/>
     <use xlink:href="#DejaVuSans-74" x="1041.943359"/>
     <use xlink:href="#DejaVuSans-61" x="1081.152344"/>
     <use xlink:href="#DejaVuSans-69" x="1142.431641"/>
     <use xlink:href="#DejaVuSans-6e" x="1170.214844"/>
     <use xlink:href="#DejaVuSans-65" x="1233.59375"/>
     <use xlink:href="#DejaVuSans-72" x="1295.117188"/>
     <use xlink:href="#DejaVuSans-20" x="1336.230469"/>
     <use xlink:href="#DejaVuSans-31" x="1368.017578"/>
     <use xlink:href="#DejaVuSans-29" x="1431.640625"/>
     <use xlink:href="#DejaVuSans-20" x="1470.654297"/>
     <use xlink:href="#DejaVuSans-20" x="1502.441406"/>
    </g>
   </g>
   <g id="legend_1">
    <g id="patch_7">
     <path d="M 64.6 93.506375 
L 139.240625 93.506375 
Q 141.240625 93.506375 141.240625 91.506375 
L 141.240625 48.472 
Q 141.240625 46.472 139.240625 46.472 
L 64.6 46.472 
Q 62.6 46.472 62.6 48.472 
L 62.6 91.506375 
Q 62.6 93.506375 64.6 93.506375 
z
" style="fill: #ffffff; opacity: 0.8; stroke: #cccccc; stroke-linejoin: miter"/>
    </g>
    <g id="line2d_12">
     <path d="M 66.6 54.570437 
L 76.6 54.570437 
L 86.6 54.570437 
" style="fill: none; stroke: #1f77b4; stroke-width: 1.5; stroke-linecap: square"/>
    </g>
    <g id="text_5">
     <!-- mid flow -->
     <g transform="translate(94.6 58.070437)scale(0.1 -0.1)">
      <use xlink:href="#DejaVuSans-6d"/>
      <use xlink:href="#DejaVuSans-69" x="97.412109"/>
      <use xlink:href="#DejaVuSans-64" x="125.195312"/>
      <use xlink:href="#DejaVuSans-20" x="188.671875"/>
      <use xlink:href="#DejaVuSans-66" x="220.458984"/>
      <use xlink:href="#DejaVuSans-6c" x="255.664062"/>
      <use xlink:href="#DejaVuSans-6f" x="283.447266"/>
      <use xlink:href="#DejaVuSans-77" x="344.628906"/>
     </g>
    </g>
    <g id="line2d_13">
     <path d="M 66.6 69.248562 
L 76.6 69.248562 
L 86.6 69.248562 
" style="fill: none; stroke: #ff7f0e; stroke-width: 1.5; stroke-linecap: square"/>
    </g>
    <g id="text_6">
     <!-- v0 flow -->
     <g transform="translate(94.6 72.748562)scale(0.1 -0.1)">
      <use xlink:href="#DejaVuSans-76"/>
      <use xlink:href="#DejaVuSans-30" x="59.179688"/>
      <use xlink:href="#DejaVuSans-20" x="122.802734"/>
      <use xlink:href="#DejaVuSans-66" x="154.589844"/>
      <use xlink:href="#DejaVuSans-6c" x="189.794922"/>
      <use xlink:href="#DejaVuSans-6f" x="217.578125"/>
      <use xlink:href="#DejaVuSans-77" x="278.759766"/>
     </g>
    </g>
    <g id="line2d_14">
     <path d="M 66.6 83.926687 
L 76.6 83.926687 
L 86.6 83.926687 
" style="fill: none; stroke: #2ca02c; stroke-width: 1.5; stroke-linecap: square"/>
    </g>
    <g id="text_7">
     <!-- vN flow -->
     <g transform="translate(94.6 87.426687)scale(0.1 -0.1)">
      <defs>
       <path id="DejaVuSans-4e" d="M 628 4666 
L 1478 4666 
L 3547 763 
L 3547 4666 
L 4159 4666 
L 4159 0 
L 3309 0 
L 1241 3903 
L 1241 0 
L 628 0 
L 628 4666 
z
" transform="scale(0.015625)"/>
      </defs>
      <use xlink:href="#DejaVuSans-76"/>
      <use xlink:href="#DejaVuSans-4e" x="59.179688"/>
      <use xlink:href="#DejaVuSans-20" x="133.984375"/>
      <use xlink:href="#DejaVuSans-66" x="165.771484"/>
      <use xlink:href="#DejaVuSans-6c" x="200.976562"/>
      <use xlink:href="#DejaVuSans-6f" x="228.759766"/>
      <use xlink:href="#DejaVuSans-77" x="289.941406"/>
     </g>
    </g>
   </g>
  </g>
  <g id="axes_2">
   <g id="patch_8">
    <path d="M 57.6 142.411034 
L 414.72 142.411034 
L 414.72 96.529655 
L 57.6 96.529655 
z
" style="fill: #ffffff"/>
   </g>
   <g id="matplotlib.axis_3">
    <g id="xtick_7">
     <g id="line2d_15">
      <g>
       <use xlink:href="#mc7d4d77d5d" x="73.832727" y="142.411034" style="stroke: #000000; stroke-width: 0.8"/>
      </g>
     </g>
    </g>
    <g id="xtick_8">
     <g id="line2d_16">
      <g>
       <use xlink:href="#mc7d4d77d5d" x="138.763636" y="142.411034" style="stroke: #000000; stroke-width: 0.8"/>
      </g>
     </g>
    </g>
    <g id="xtick_9">
     <g id="line2d_17">
      <g>
       <use xlink:href="#mc7d4d77d5d" x="203.694545" y="142.411034" style="stroke: #000000; stroke-width: 0.8"/>
      </g>
     </g>
    </g>
    <g id="xtick_10">
     <g id="line2d_18">
      <g>
       <use xlink:href="#mc7d4d77d5d" x="268.625455" y="142.411034" style="stroke: #000000; stroke-width: 0.8"/>
      </g>
     </g>
    </g>
    <g id="xtick_11">
     <g id="line2d_19">
      <g>
       <use xlink:href="#mc7d4d77d5d" x="333.556364" y="142.411034" style="stroke: #000000; stroke-width: 0.8"/>
      </g>
     </g>
    </g>
    <g id="xtick_12">
     <g id="line2d_20">
      <g>
       <use xlink:href="#mc7d4d77d5d" x="398.487273" y="142.411034" style="stroke: #000000; stroke-width: 0.8"/>
      </g>
     </g>
    </g>
   </g>
   <g id="matplotlib.axis_4">
    <g id="ytick_3">
     <g id="line2d_21">
      <g>
       <use xlink:href="#m4ab1a3c406" x="57.6" y="127.100643" style="stroke: #000000; stroke-width: 0.8"/>
      </g>
     </g>
     <g id="text_8">
      <!-- 0.5 -->
      <g transform="translate(34.696875 130.899862)scale(0.1 -0.1)">
       <defs>
        <path id="DejaVuSans-2e" d="M 684 794 
L 1344 794 
L 1344 0 
L 684 0 
L 684 794 
z
" transform="scale(0.015625)"/>
        <path id="DejaVuSans-35" d="M 691 4666 
L 3169 4666 
L 3169 4134 
L 1269 4134 
L 1269 2991 
Q 1406 3038 1543 3061 
Q 1681 3084 1819 3084 
Q 2600 3084 3056 2656 
Q 3513 2228 3513 1497 
Q 3513 744 3044 326 
Q 2575 -91 1722 -91 
Q 1428 -91 1123 -41 
Q 819 9 494 109 
L 494 744 
Q 775 591 1075 516 
Q 1375 441 1709 441 
Q 2250 441 2565 725 
Q 2881 1009 2881 1497 
Q 2881 1984 2565 2268 
Q 2250 2553 1709 2553 
Q 1456 2553 1204 2497 
Q 953 2441 691 2322 
L 691 4666 
z
" transform="scale(0.015625)"/>
       </defs>
       <use xlink:href="#DejaVuSans-30"/>
       <use xlink:href="#DejaVuSans-2e" x="63.623047"/>
       <use xlink:href="#DejaVuSans-35" x="95.410156"/>
      </g>
     </g>
    </g>
    <g id="ytick_4">
     <g id="line2d_22">
      <g>
       <use xlink:href="#m4ab1a3c406" x="57.6" y="100.608683" style="stroke: #000000; stroke-width: 0.8"/>
      </g>
     </g>
     <g id="text_9">
      <!-- 1.0 -->
      <g transform="translate(34.696875 104.407902)scale(0.1 -0.1)">
       <use xlink:href="#DejaVuSans-31"/>
       <use xlink:href="#DejaVuSans-2e" x="63.623047"/>
       <use xlink:href="#DejaVuSans-30" x="95.410156"/>
      </g>
     </g>
    </g>
   </g>
   <g id="line2d_23">
    <path d="M 73.832727 140.325452 
L 77.079273 125.494581 
L 80.325818 116.055401 
L 83.572364 110.200217 
L 86.818909 106.534756 
L 90.065455 104.295877 
L 93.312 102.890065 
L 96.558545 102.018665 
L 99.805091 101.477218 
L 103.051636 101.144801 
L 106.298182 100.939881 
L 109.544727 100.816648 
L 112.791273 100.737772 
L 116.037818 100.687942 
L 119.284364 100.658115 
L 122.530909 100.636849 
L 125.777455 99.016961 
L 129.024 98.906517 
L 132.270545 98.799933 
L 135.517091 98.726073 
L 138.763636 98.678343 
L 142.010182 98.65139 
L 145.256727 98.630344 
L 148.503273 98.622551 
L 151.749818 98.620673 
L 154.996364 98.618816 
L 158.242909 98.621889 
L 161.489455 98.622457 
L 164.736 98.618367 
L 167.982545 98.615172 
L 171.229091 98.678157 
L 174.475636 107.045866 
L 177.722182 111.68365 
L 180.968727 115.024343 
L 184.215273 117.522858 
L 187.461818 119.447409 
L 190.708364 120.956276 
L 193.954909 122.152066 
L 197.201455 123.105288 
L 200.448 123.868778 
L 203.694545 124.483148 
L 206.941091 124.97796 
L 210.187636 125.377894 
L 213.434182 125.700783 
L 216.680727 125.962549 
L 219.927273 126.173683 
L 223.173818 126.345677 
L 226.420364 126.485281 
L 229.666909 126.598835 
L 232.913455 126.69128 
L 236.16 126.765157 
L 239.406545 126.826459 
L 242.653091 126.875131 
L 245.899636 126.915348 
L 249.146182 126.94835 
L 252.392727 126.975125 
L 255.639273 126.99766 
L 258.885818 127.015723 
L 262.132364 127.031049 
L 265.378909 127.04393 
L 268.625455 127.073886 
L 271.872 132.017437 
L 275.118545 135.011232 
L 278.365091 136.864916 
L 281.611636 138.02587 
L 284.858182 138.762497 
L 288.104727 139.233785 
L 291.351273 139.546567 
L 294.597818 139.74895 
L 297.844364 139.88367 
L 301.090909 139.97928 
L 304.337455 140.045997 
L 307.584 140.094494 
L 310.830545 140.130614 
L 314.077091 140.156913 
L 317.323636 140.178024 
L 320.570182 140.197763 
L 323.816727 140.212081 
L 327.063273 140.222236 
L 330.309818 140.24021 
L 333.556364 140.246699 
L 336.802909 140.255069 
L 340.049455 140.262834 
L 343.296 140.269709 
L 346.542545 140.275965 
L 349.789091 140.281537 
L 353.035636 140.286681 
L 356.282182 140.291273 
L 359.528727 140.295426 
L 362.775273 140.299216 
L 366.021818 140.30274 
L 369.268364 140.305867 
L 372.514909 140.30875 
L 375.761455 140.31145 
L 379.008 140.313969 
L 382.254545 140.31624 
L 385.501091 140.318355 
L 388.747636 140.320342 
L 391.994182 140.32219 
L 395.240727 140.323908 
L 398.487273 140.325517 
" clip-path="url(#p01ba4ad5ff)" style="fill: none; stroke: #1f77b4; stroke-width: 1.5; stroke-linecap: square"/>
   </g>
   <g id="line2d_24">
    <path d="M 73.832727 139.960734 
L 77.079273 135.813909 
L 80.325818 129.195226 
L 83.572364 122.38522 
L 86.818909 116.352033 
L 90.065455 111.545652 
L 93.312 108.025319 
L 96.558545 105.555905 
L 99.805091 103.866902 
L 103.051636 102.750128 
L 106.298182 102.019679 
L 109.544727 101.542612 
L 112.791273 101.225017 
L 116.037818 101.014831 
L 119.284364 100.878033 
L 122.530909 100.784682 
L 125.777455 99.912838 
L 129.024 99.835071 
L 132.270545 99.760041 
L 135.517091 99.708192 
L 138.763636 99.674816 
L 142.010182 99.656075 
L 145.256727 99.641417 
L 148.503273 99.636085 
L 151.749818 99.634882 
L 154.996364 99.633626 
L 158.242909 99.635846 
L 161.489455 99.63627 
L 164.736 99.633387 
L 167.982545 99.631148 
L 171.229091 99.629529 
L 174.475636 108.068244 
L 177.722182 113.093516 
L 180.968727 116.549009 
L 184.215273 119.017642 
L 187.461818 120.838199 
L 190.708364 122.208191 
L 193.954909 123.254639 
L 197.201455 124.060553 
L 200.448 124.686048 
L 203.694545 125.175784 
L 206.941091 125.560679 
L 210.187636 125.865055 
L 213.434182 126.105991 
L 216.680727 126.298376 
L 219.927273 126.451189 
L 223.173818 126.574571 
L 226.420364 126.673693 
L 229.666909 126.753717 
L 232.913455 126.818467 
L 236.16 126.869764 
L 239.406545 126.912377 
L 242.653091 126.945934 
L 245.899636 126.973651 
L 249.146182 126.996377 
L 252.392727 127.014761 
L 255.639273 127.030256 
L 258.885818 127.042639 
L 262.132364 127.053153 
L 265.378909 127.061988 
L 268.625455 127.06935 
L 271.872 128.988938 
L 275.118545 130.453392 
L 278.365091 131.650468 
L 281.611636 132.649536 
L 284.858182 133.499849 
L 288.104727 134.22881 
L 291.351273 134.859996 
L 294.597818 135.408012 
L 297.844364 135.886552 
L 301.090909 136.307001 
L 304.337455 136.677684 
L 307.584 137.005885 
L 310.830545 137.297991 
L 314.077091 137.558065 
L 317.323636 137.791402 
L 320.570182 138.002785 
L 323.816727 138.191607 
L 327.063273 138.36126 
L 330.309818 138.52372 
L 333.556364 138.661356 
L 336.802909 138.787481 
L 340.049455 138.906479 
L 343.296 139.015007 
L 346.542545 139.114991 
L 349.789091 139.206007 
L 353.035636 139.290461 
L 356.282182 139.367341 
L 359.528727 139.437775 
L 362.775273 139.502489 
L 366.021818 139.56242 
L 369.268364 139.616892 
L 372.514909 139.66726 
L 375.761455 139.714212 
L 379.008 139.757912 
L 382.254545 139.797915 
L 385.501091 139.835188 
L 388.747636 139.870138 
L 391.994182 139.902664 
L 395.240727 139.932947 
L 398.487273 139.961309 
" clip-path="url(#p01ba4ad5ff)" style="fill: none; stroke: #ff7f0e; stroke-width: 1.5; stroke-linecap: square"/>
   </g>
   <g id="line2d_25">
    <path d="M 73.832727 139.826531 
L 77.079273 138.295526 
L 80.325818 133.88364 
L 83.572364 127.220772 
L 86.818909 120.226059 
L 90.065455 114.372947 
L 93.312 109.988731 
L 96.558545 106.888254 
L 99.805091 104.757029 
L 103.051636 103.343005 
L 106.298182 102.415982 
L 109.544727 101.809528 
L 112.791273 101.40284 
L 116.037818 101.134188 
L 119.284364 100.958148 
L 122.530909 100.829958 
L 125.777455 100.574937 
L 129.024 100.569851 
L 132.270545 100.564948 
L 135.517091 100.561594 
L 138.763636 100.559466 
L 142.010182 100.558302 
L 145.256727 100.557384 
L 148.503273 100.557076 
L 151.749818 100.557029 
L 154.996364 100.55696 
L 158.242909 100.557119 
L 161.489455 100.557149 
L 164.736 100.556954 
L 167.982545 100.556806 
L 171.229091 100.557091 
L 174.475636 110.812149 
L 177.722182 117.0241 
L 180.968727 120.826319 
L 184.215273 123.166548 
L 187.461818 124.616995 
L 190.708364 125.517093 
L 193.954909 126.082696 
L 197.201455 126.437774 
L 200.448 126.661584 
L 203.694545 126.805999 
L 206.941091 126.899539 
L 210.187636 126.960586 
L 213.434182 127.000516 
L 216.680727 127.028354 
L 219.927273 127.046812 
L 223.173818 127.060363 
L 226.420364 127.069835 
L 229.666909 127.076769 
L 232.913455 127.081947 
L 236.16 127.085571 
L 239.406545 127.088829 
L 242.653091 127.091052 
L 245.899636 127.092874 
L 249.146182 127.094353 
L 252.392727 127.09549 
L 255.639273 127.096465 
L 258.885818 127.097211 
L 262.132364 127.097853 
L 265.378909 127.098382 
L 268.625455 127.095625 
L 271.872 128.356598 
L 275.118545 129.487797 
L 278.365091 130.512678 
L 281.611636 131.432346 
L 284.858182 132.259353 
L 288.104727 133.000358 
L 291.351273 133.665197 
L 294.597818 134.260402 
L 297.844364 134.793795 
L 301.090909 135.272558 
L 304.337455 135.702838 
L 307.584 136.090042 
L 310.830545 136.439561 
L 314.077091 136.754931 
L 317.323636 137.04082 
L 320.570182 137.302014 
L 323.816727 137.537498 
L 327.063273 137.750747 
L 330.309818 137.955156 
L 333.556364 138.130364 
L 336.802909 138.291529 
L 340.049455 138.443995 
L 343.296 138.583689 
L 346.542545 138.712842 
L 349.789091 138.830961 
L 353.035636 138.940815 
L 356.282182 139.041264 
L 359.528727 139.133619 
L 362.775273 139.218714 
L 366.021818 139.297632 
L 369.268364 139.369684 
L 372.514909 139.436414 
L 375.761455 139.498634 
L 379.008 139.556572 
L 382.254545 139.609778 
L 385.501091 139.659373 
L 388.747636 139.705858 
L 391.994182 139.749152 
L 395.240727 139.789493 
L 398.487273 139.827285 
" clip-path="url(#p01ba4ad5ff)" style="fill: none; stroke: #2ca02c; stroke-width: 1.5; stroke-linecap: square"/>
   </g>
   <g id="patch_9">
    <path d="M 57.6 142.411034 
L 57.6 96.529655 
" style="fill: none; stroke: #000000; stroke-width: 0.8; stroke-linejoin: miter; stroke-linecap: square"/>
   </g>
   <g id="patch_10">
    <path d="M 414.72 142.411034 
L 414.72 96.529655 
" style="fill: none; stroke: #000000; stroke-width: 0.8; stroke-linejoin: miter; stroke-linecap: square"/>
   </g>
   <g id="patch_11">
    <path d="M 57.6 142.411034 
L 414.72 142.411034 
" style="fill: none; stroke: #000000; stroke-width: 0.8; stroke-linejoin: miter; stroke-linecap: square"/>
   </g>
   <g id="patch_12">
    <path d="M 57.6 96.529655 
L 414.72 96.529655 
" style="fill: none; stroke: #000000; stroke-width: 0.8; stroke-linejoin: miter; stroke-linecap: square"/>
   </g>
   <g id="text_10">
    <!-- Pressure -->
    <g transform="translate(210.546562 90.529655)scale(0.12 -0.12)">
     <defs>
      <path id="DejaVuSans-50" d="M 1259 4147 
L 1259 2394 
L 2053 2394 
Q 2494 2394 2734 2622 
Q 2975 2850 2975 3272 
Q 2975 3691 2734 3919 
Q 2494 4147 2053 4147 
L 1259 4147 
z
M 628 4666 
L 2053 4666 
Q 2838 4666 3239 4311 
Q 3641 3956 3641 3272 
Q 3641 2581 3239 2228 
Q 2838 1875 2053 1875 
L 1259 1875 
L 1259 0 
L 628 0 
L 628 4666 
z
" transform="scale(0.015625)"/>
      <path id="DejaVuSans-75" d="M 544 1381 
L 544 3500 
L 1119 3500 
L 1119 1403 
Q 1119 906 1312 657 
Q 1506 409 1894 409 
Q 2359 409 2629 706 
Q 2900 1003 2900 1516 
L 2900 3500 
L 3475 3500 
L 3475 0 
L 2900 0 
L 2900 538 
Q 2691 219 2414 64 
Q 2138 -91 1772 -91 
Q 1169 -91 856 284 
Q 544 659 544 1381 
z
M 1991 3584 
L 1991 3584 
z
" transform="scale(0.015625)"/>
     </defs>
     <use xlink:href="#DejaVuSans-50"/>
     <use xlink:href="#DejaVuSans-72" x="58.552734"/>
     <use xlink:href="#DejaVuSans-65" x="97.416016"/>
     <use xlink:href="#DejaVuSans-73" x="158.939453"/>
     <use xlink:href="#DejaVuSans-73" x="211.039062"/>
     <use xlink:href="#DejaVuSans-75" x="263.138672"/>
     <use xlink:href="#DejaVuSans-72" x="326.517578"/>
     <use xlink:href="#DejaVuSans-65" x="365.380859"/>
    </g>
   </g>
   <g id="legend_2">
    <g id="patch_13">
     <path d="M 350.823125 137.411034 
L 407.72 137.411034 
Q 409.72 137.411034 409.72 135.411034 
L 409.72 92.376659 
Q 409.72 90.376659 407.72 90.376659 
L 350.823125 90.376659 
Q 348.823125 90.376659 348.823125 92.376659 
L 348.823125 135.411034 
Q 348.823125 137.411034 350.823125 137.411034 
z
" style="fill: #ffffff; opacity: 0.8; stroke: #cccccc; stroke-linejoin: miter"/>
    </g>
    <g id="line2d_26">
     <path d="M 352.823125 98.475097 
L 362.823125 98.475097 
L 372.823125 98.475097 
" style="fill: none; stroke: #1f77b4; stroke-width: 1.5; stroke-linecap: square"/>
    </g>
    <g id="text_11">
     <!-- P1 -->
     <g transform="translate(380.823125 101.975097)scale(0.1 -0.1)">
      <use xlink:href="#DejaVuSans-50"/>
      <use xlink:href="#DejaVuSans-31" x="60.302734"/>
     </g>
    </g>
    <g id="line2d_27">
     <path d="M 352.823125 113.153222 
L 362.823125 113.153222 
L 372.823125 113.153222 
" style="fill: none; stroke: #ff7f0e; stroke-width: 1.5; stroke-linecap: square"/>
    </g>
    <g id="text_12">
     <!-- Pmid -->
     <g transform="translate(380.823125 116.653222)scale(0.1 -0.1)">
      <use xlink:href="#DejaVuSans-50"/>
      <use xlink:href="#DejaVuSans-6d" x="60.302734"/>
      <use xlink:href="#DejaVuSans-69" x="157.714844"/>
      <use xlink:href="#DejaVuSans-64" x="185.498047"/>
     </g>
    </g>
    <g id="line2d_28">
     <path d="M 352.823125 127.831347 
L 362.823125 127.831347 
L 372.823125 127.831347 
" style="fill: none; stroke: #2ca02c; stroke-width: 1.5; stroke-linecap: square"/>
    </g>
    <g id="text_13">
     <!-- PN -->
     <g transform="translate(380.823125 131.331347)scale(0.1 -0.1)">
      <use xlink:href="#DejaVuSans-50"/>
      <use xlink:href="#DejaVuSans-4e" x="60.302734"/>
     </g>
    </g>
   </g>
  </g>
  <g id="axes_3">
   <g id="patch_14">
    <path d="M 57.6 197.46869 
L 414.72 197.46869 
L 414.72 151.58731 
L 57.6 151.58731 
z
" style="fill: #ffffff"/>
   </g>
   <g id="matplotlib.axis_5">
    <g id="xtick_13">
     <g id="line2d_29">
      <g>
       <use xlink:href="#mc7d4d77d5d" x="73.832727" y="197.46869" style="stroke: #000000; stroke-width: 0.8"/>
      </g>
     </g>
    </g>
    <g id="xtick_14">
     <g id="line2d_30">
      <g>
       <use xlink:href="#mc7d4d77d5d" x="138.763636" y="197.46869" style="stroke: #000000; stroke-width: 0.8"/>
      </g>
     </g>
    </g>
    <g id="xtick_15">
     <g id="line2d_31">
      <g>
       <use xlink:href="#mc7d4d77d5d" x="203.694545" y="197.46869" style="stroke: #000000; stroke-width: 0.8"/>
      </g>
     </g>
    </g>
    <g id="xtick_16">
     <g id="line2d_32">
      <g>
       <use xlink:href="#mc7d4d77d5d" x="268.625455" y="197.46869" style="stroke: #000000; stroke-width: 0.8"/>
      </g>
     </g>
    </g>
    <g id="xtick_17">
     <g id="line2d_33">
      <g>
       <use xlink:href="#mc7d4d77d5d" x="333.556364" y="197.46869" style="stroke: #000000; stroke-width: 0.8"/>
      </g>
     </g>
    </g>
    <g id="xtick_18">
     <g id="line2d_34">
      <g>
       <use xlink:href="#mc7d4d77d5d" x="398.487273" y="197.46869" style="stroke: #000000; stroke-width: 0.8"/>
      </g>
     </g>
    </g>
   </g>
   <g id="matplotlib.axis_6">
    <g id="ytick_5">
     <g id="line2d_35">
      <g>
       <use xlink:href="#m4ab1a3c406" x="57.6" y="174.929458" style="stroke: #000000; stroke-width: 0.8"/>
      </g>
     </g>
     <g id="text_14">
      <!-- 0.05 -->
      <g transform="translate(28.334375 178.728677)scale(0.1 -0.1)">
       <use xlink:href="#DejaVuSans-30"/>
       <use xlink:href="#DejaVuSans-2e" x="63.623047"/>
       <use xlink:href="#DejaVuSans-30" x="95.410156"/>
       <use xlink:href="#DejaVuSans-35" x="159.033203"/>
      </g>
     </g>
    </g>
    <g id="ytick_6">
     <g id="line2d_36">
      <g>
       <use xlink:href="#m4ab1a3c406" x="57.6" y="152.185465" style="stroke: #000000; stroke-width: 0.8"/>
      </g>
     </g>
     <g id="text_15">
      <!-- 0.06 -->
      <g transform="translate(28.334375 155.984684)scale(0.1 -0.1)">
       <defs>
        <path id="DejaVuSans-36" d="M 2113 2584 
Q 1688 2584 1439 2293 
Q 1191 2003 1191 1497 
Q 1191 994 1439 701 
Q 1688 409 2113 409 
Q 2538 409 2786 701 
Q 3034 994 3034 1497 
Q 3034 2003 2786 2293 
Q 2538 2584 2113 2584 
z
M 3366 4563 
L 3366 3988 
Q 3128 4100 2886 4159 
Q 2644 4219 2406 4219 
Q 1781 4219 1451 3797 
Q 1122 3375 1075 2522 
Q 1259 2794 1537 2939 
Q 1816 3084 2150 3084 
Q 2853 3084 3261 2657 
Q 3669 2231 3669 1497 
Q 3669 778 3244 343 
Q 2819 -91 2113 -91 
Q 1303 -91 875 529 
Q 447 1150 447 2328 
Q 447 3434 972 4092 
Q 1497 4750 2381 4750 
Q 2619 4750 2861 4703 
Q 3103 4656 3366 4563 
z
" transform="scale(0.015625)"/>
       </defs>
       <use xlink:href="#DejaVuSans-30"/>
       <use xlink:href="#DejaVuSans-2e" x="63.623047"/>
       <use xlink:href="#DejaVuSans-30" x="95.410156"/>
       <use xlink:href="#DejaVuSans-36" x="159.033203"/>
      </g>
     </g>
    </g>
    <g id="text_16">
     <!-- fraction -->
     <g transform="translate(22.254687 193.73425)rotate(-90)scale(0.1 -0.1)">
      <use xlink:href="#DejaVuSans-66"/>
      <use xlink:href="#DejaVuSans-72" x="35.205078"/>
      <use xlink:href="#DejaVuSans-61" x="76.318359"/>
      <use xlink:href="#DejaVuSans-63" x="137.597656"/>
      <use xlink:href="#DejaVuSans-74" x="192.578125"/>
      <use xlink:href="#DejaVuSans-69" x="231.787109"/>
      <use xlink:href="#DejaVuSans-6f" x="259.570312"/>
      <use xlink:href="#DejaVuSans-6e" x="320.751953"/>
     </g>
    </g>
   </g>
   <g id="line2d_37">
    <path d="M 73.832727 154.79284 
L 77.079273 175.450955 
L 80.325818 176.622775 
L 83.572364 176.676828 
L 86.818909 176.616817 
L 90.065455 176.51774 
L 93.312 176.459912 
L 96.558545 176.413358 
L 99.805091 176.385666 
L 103.051636 176.36707 
L 106.298182 176.343781 
L 109.544727 176.318286 
L 112.791273 176.308884 
L 116.037818 176.30543 
L 119.284364 176.256861 
L 122.530909 176.298348 
L 125.777455 176.359254 
L 129.024 176.277901 
L 132.270545 176.196493 
L 135.517091 176.115117 
L 138.763636 176.034898 
L 142.010182 175.956775 
L 145.256727 175.883074 
L 148.503273 175.812413 
L 151.749818 175.745824 
L 154.996364 175.684167 
L 158.242909 175.626087 
L 161.489455 175.572688 
L 164.736 175.524565 
L 167.982545 175.480972 
L 171.229091 175.440325 
L 174.475636 173.471507 
L 177.722182 172.038516 
L 180.968727 170.818141 
L 184.215273 169.785737 
L 187.461818 168.891232 
L 190.708364 168.123005 
L 193.954909 167.46769 
L 197.201455 166.91226 
L 200.448 166.4432 
L 203.694545 166.050682 
L 206.941091 165.722195 
L 210.187636 165.449736 
L 213.434182 165.224084 
L 216.680727 165.038784 
L 219.927273 164.886362 
L 223.173818 164.760429 
L 226.420364 164.657479 
L 229.666909 164.573126 
L 232.913455 164.503991 
L 236.16 164.448583 
L 239.406545 164.402994 
L 242.653091 164.366439 
L 245.899636 164.336098 
L 249.146182 164.311193 
L 252.392727 164.291108 
L 255.639273 164.274356 
L 258.885818 164.260954 
L 262.132364 164.249668 
L 265.378909 164.240382 
L 268.625455 164.231203 
L 271.872 160.555568 
L 275.118545 157.965014 
L 278.365091 156.209462 
L 281.611636 155.055368 
L 284.858182 154.34214 
L 288.104727 153.947528 
L 291.351273 153.738908 
L 294.597818 153.672828 
L 297.844364 153.686067 
L 301.090909 153.734935 
L 304.337455 153.806237 
L 307.584 153.884898 
L 310.830545 153.966915 
L 314.077091 154.047803 
L 317.323636 154.123477 
L 320.570182 154.193286 
L 323.816727 154.253537 
L 327.063273 154.306492 
L 330.309818 154.372204 
L 333.556364 154.409208 
L 336.802909 154.450271 
L 340.049455 154.489091 
L 343.296 154.524529 
L 346.542545 154.556797 
L 349.789091 154.585877 
L 353.035636 154.61263 
L 356.282182 154.63667 
L 359.528727 154.658379 
L 362.775273 154.678023 
L 366.021818 154.695927 
L 369.268364 154.712026 
L 372.514909 154.726748 
L 375.761455 154.74036 
L 379.008 154.752951 
L 382.254545 154.764404 
L 385.501091 154.77508 
L 388.747636 154.785152 
L 391.994182 154.794472 
L 395.240727 154.803067 
L 398.487273 154.811056 
" clip-path="url(#p2e4f3d386f)" style="fill: none; stroke: #1f77b4; stroke-width: 1.5; stroke-linecap: square"/>
   </g>
   <g id="line2d_38">
    <path d="M 73.832727 169.942105 
L 77.079273 172.75051 
L 80.325818 179.071102 
L 83.572364 185.284542 
L 86.818909 189.453765 
L 90.065455 191.861397 
L 93.312 193.248172 
L 96.558545 194.068568 
L 99.805091 194.571588 
L 103.051636 194.880715 
L 106.298182 195.073421 
L 109.544727 195.191024 
L 112.791273 195.273926 
L 116.037818 195.327554 
L 119.284364 195.36087 
L 122.530909 195.383172 
L 125.777455 195.340789 
L 129.024 195.305221 
L 132.270545 195.26925 
L 135.517091 195.229923 
L 138.763636 195.187727 
L 142.010182 195.143025 
L 145.256727 195.099521 
L 148.503273 195.054562 
L 151.749818 195.009202 
L 154.996364 194.964613 
L 158.242909 194.919623 
L 161.489455 194.875496 
L 164.736 194.832172 
L 167.982545 194.788153 
L 171.229091 194.743993 
L 174.475636 192.19685 
L 177.722182 190.091532 
L 180.968727 188.473557 
L 184.215273 187.298824 
L 187.461818 186.449388 
L 190.708364 185.857355 
L 193.954909 185.446222 
L 197.201455 185.16201 
L 200.448 184.965993 
L 203.694545 184.828183 
L 206.941091 184.728794 
L 210.187636 184.657716 
L 213.434182 184.605875 
L 216.680727 184.566545 
L 219.927273 184.537075 
L 223.173818 184.513811 
L 226.420364 184.496 
L 229.666909 184.481982 
L 232.913455 184.470771 
L 236.16 184.462062 
L 239.406545 184.454568 
L 242.653091 184.448798 
L 245.899636 184.443993 
L 249.146182 184.44001 
L 252.392727 184.436762 
L 255.639273 184.433975 
L 258.885818 184.431703 
L 262.132364 184.429726 
L 265.378909 184.42802 
L 268.625455 184.427146 
L 271.872 183.558466 
L 275.118545 182.713095 
L 278.365091 181.890313 
L 281.611636 181.09555 
L 284.858182 180.332708 
L 288.104727 179.605409 
L 291.351273 178.913815 
L 294.597818 178.260777 
L 297.844364 177.64533 
L 301.090909 177.066791 
L 304.337455 176.52469 
L 307.584 176.01712 
L 310.830545 175.542731 
L 314.077091 175.098501 
L 317.323636 174.683558 
L 320.570182 174.299696 
L 323.816727 173.934474 
L 327.063273 173.590272 
L 330.309818 173.307068 
L 333.556364 172.997337 
L 336.802909 172.72967 
L 340.049455 172.472716 
L 343.296 172.23178 
L 346.542545 172.006642 
L 349.789091 171.797201 
L 353.035636 171.600589 
L 356.282182 171.418021 
L 359.528727 171.248159 
L 362.775273 171.090136 
L 366.021818 170.942839 
L 369.268364 170.806071 
L 372.514909 170.678481 
L 375.761455 170.559096 
L 379.008 170.447396 
L 382.254545 170.34339 
L 385.501091 170.245863 
L 388.747636 170.154081 
L 391.994182 170.068359 
L 395.240727 169.988437 
L 398.487273 169.913758 
" clip-path="url(#p2e4f3d386f)" style="fill: none; stroke: #ff7f0e; stroke-width: 1.5; stroke-linecap: square"/>
   </g>
   <g id="patch_15">
    <path d="M 57.6 197.46869 
L 57.6 151.58731 
" style="fill: none; stroke: #000000; stroke-width: 0.8; stroke-linejoin: miter; stroke-linecap: square"/>
   </g>
   <g id="patch_16">
    <path d="M 414.72 197.46869 
L 414.72 151.58731 
" style="fill: none; stroke: #000000; stroke-width: 0.8; stroke-linejoin: miter; stroke-linecap: square"/>
   </g>
   <g id="patch_17">
    <path d="M 57.6 197.46869 
L 414.72 197.46869 
" style="fill: none; stroke: #000000; stroke-width: 0.8; stroke-linejoin: miter; stroke-linecap: square"/>
   </g>
   <g id="patch_18">
    <path d="M 57.6 151.58731 
L 414.72 151.58731 
" style="fill: none; stroke: #000000; stroke-width: 0.8; stroke-linejoin: miter; stroke-linecap: square"/>
   </g>
   <g id="text_17">
    <!-- yA -->
    <g transform="translate(228.504375 145.58731)scale(0.12 -0.12)">
     <defs>
      <path id="DejaVuSans-41" d="M 2188 4044 
L 1331 1722 
L 3047 1722 
L 2188 4044 
z
M 1831 4666 
L 2547 4666 
L 4325 0 
L 3669 0 
L 3244 1197 
L 1141 1197 
L 716 0 
L 50 0 
L 1831 4666 
z
" transform="scale(0.015625)"/>
     </defs>
     <use xlink:href="#DejaVuSans-79"/>
     <use xlink:href="#DejaVuSans-41" x="59.179688"/>
    </g>
   </g>
   <g id="legend_3">
    <g id="patch_19">
     <path d="M 330.030938 188.94356 
L 407.72 188.94356 
Q 409.72 188.94356 409.72 186.94356 
L 409.72 158.58731 
Q 409.72 156.58731 407.72 156.58731 
L 330.030938 156.58731 
Q 328.030938 156.58731 328.030938 158.58731 
L 328.030938 186.94356 
Q 328.030938 188.94356 330.030938 188.94356 
z
" style="fill: #ffffff; opacity: 0.8; stroke: #cccccc; stroke-linejoin: miter"/>
    </g>
    <g id="line2d_39">
     <path d="M 332.030938 164.685748 
L 342.030938 164.685748 
L 352.030938 164.685748 
" style="fill: none; stroke: #1f77b4; stroke-width: 1.5; stroke-linecap: square"/>
    </g>
    <g id="text_18">
     <!-- yA0 (in) -->
     <g transform="translate(360.030938 168.185748)scale(0.1 -0.1)">
      <use xlink:href="#DejaVuSans-79"/>
      <use xlink:href="#DejaVuSans-41" x="59.179688"/>
      <use xlink:href="#DejaVuSans-30" x="127.587891"/>
      <use xlink:href="#DejaVuSans-20" x="191.210938"/>
      <use xlink:href="#DejaVuSans-28" x="222.998047"/>
      <use xlink:href="#DejaVuSans-69" x="262.011719"/>
      <use xlink:href="#DejaVuSans-6e" x="289.794922"/>
      <use xlink:href="#DejaVuSans-29" x="353.173828"/>
     </g>
    </g>
    <g id="line2d_40">
     <path d="M 332.030938 179.363873 
L 342.030938 179.363873 
L 352.030938 179.363873 
" style="fill: none; stroke: #ff7f0e; stroke-width: 1.5; stroke-linecap: square"/>
    </g>
    <g id="text_19">
     <!-- yAL (out) -->
     <g transform="translate(360.030938 182.863873)scale(0.1 -0.1)">
      <defs>
       <path id="DejaVuSans-4c" d="M 628 4666 
L 1259 4666 
L 1259 531 
L 3531 531 
L 3531 0 
L 628 0 
L 628 4666 
z
" transform="scale(0.015625)"/>
      </defs>
      <use xlink:href="#DejaVuSans-79"/>
      <use xlink:href="#DejaVuSans-41" x="59.179688"/>
      <use xlink:href="#DejaVuSans-4c" x="127.587891"/>
      <use xlink:href="#DejaVuSans-20" x="183.300781"/>
      <use xlink:href="#DejaVuSans-28" x="215.087891"/>
      <use xlink:href="#DejaVuSans-6f" x="254.101562"/>
      <use xlink:href="#DejaVuSans-75" x="315.283203"/>
      <use xlink:href="#DejaVuSans-74" x="378.662109"/>
      <use xlink:href="#DejaVuSans-29" x="417.871094"/>
     </g>
    </g>
   </g>
  </g>
  <g id="axes_4">
   <g id="patch_20">
    <path d="M 57.6 252.526345 
L 414.72 252.526345 
L 414.72 206.644966 
L 57.6 206.644966 
z
" style="fill: #ffffff"/>
   </g>
   <g id="matplotlib.axis_7">
    <g id="xtick_19">
     <g id="line2d_41">
      <g>
       <use xlink:href="#mc7d4d77d5d" x="73.832727" y="252.526345" style="stroke: #000000; stroke-width: 0.8"/>
      </g>
     </g>
    </g>
    <g id="xtick_20">
     <g id="line2d_42">
      <g>
       <use xlink:href="#mc7d4d77d5d" x="138.763636" y="252.526345" style="stroke: #000000; stroke-width: 0.8"/>
      </g>
     </g>
    </g>
    <g id="xtick_21">
     <g id="line2d_43">
      <g>
       <use xlink:href="#mc7d4d77d5d" x="203.694545" y="252.526345" style="stroke: #000000; stroke-width: 0.8"/>
      </g>
     </g>
    </g>
    <g id="xtick_22">
     <g id="line2d_44">
      <g>
       <use xlink:href="#mc7d4d77d5d" x="268.625455" y="252.526345" style="stroke: #000000; stroke-width: 0.8"/>
      </g>
     </g>
    </g>
    <g id="xtick_23">
     <g id="line2d_45">
      <g>
       <use xlink:href="#mc7d4d77d5d" x="333.556364" y="252.526345" style="stroke: #000000; stroke-width: 0.8"/>
      </g>
     </g>
    </g>
    <g id="xtick_24">
     <g id="line2d_46">
      <g>
       <use xlink:href="#mc7d4d77d5d" x="398.487273" y="252.526345" style="stroke: #000000; stroke-width: 0.8"/>
      </g>
     </g>
    </g>
   </g>
   <g id="matplotlib.axis_8">
    <g id="ytick_7">
     <g id="line2d_47">
      <g>
       <use xlink:href="#m4ab1a3c406" x="57.6" y="250.365473" style="stroke: #000000; stroke-width: 0.8"/>
      </g>
     </g>
     <g id="text_20">
      <!-- 0.875 -->
      <g transform="translate(21.971875 254.164692)scale(0.1 -0.1)">
       <defs>
        <path id="DejaVuSans-38" d="M 2034 2216 
Q 1584 2216 1326 1975 
Q 1069 1734 1069 1313 
Q 1069 891 1326 650 
Q 1584 409 2034 409 
Q 2484 409 2743 651 
Q 3003 894 3003 1313 
Q 3003 1734 2745 1975 
Q 2488 2216 2034 2216 
z
M 1403 2484 
Q 997 2584 770 2862 
Q 544 3141 544 3541 
Q 544 4100 942 4425 
Q 1341 4750 2034 4750 
Q 2731 4750 3128 4425 
Q 3525 4100 3525 3541 
Q 3525 3141 3298 2862 
Q 3072 2584 2669 2484 
Q 3125 2378 3379 2068 
Q 3634 1759 3634 1313 
Q 3634 634 3220 271 
Q 2806 -91 2034 -91 
Q 1263 -91 848 271 
Q 434 634 434 1313 
Q 434 1759 690 2068 
Q 947 2378 1403 2484 
z
M 1172 3481 
Q 1172 3119 1398 2916 
Q 1625 2713 2034 2713 
Q 2441 2713 2670 2916 
Q 2900 3119 2900 3481 
Q 2900 3844 2670 4047 
Q 2441 4250 2034 4250 
Q 1625 4250 1398 4047 
Q 1172 3844 1172 3481 
z
" transform="scale(0.015625)"/>
        <path id="DejaVuSans-37" d="M 525 4666 
L 3525 4666 
L 3525 4397 
L 1831 0 
L 1172 0 
L 2766 4134 
L 525 4134 
L 525 4666 
z
" transform="scale(0.015625)"/>
       </defs>
       <use xlink:href="#DejaVuSans-30"/>
       <use xlink:href="#DejaVuSans-2e" x="63.623047"/>
       <use xlink:href="#DejaVuSans-38" x="95.410156"/>
       <use xlink:href="#DejaVuSans-37" x="159.033203"/>
       <use xlink:href="#DejaVuSans-35" x="222.65625"/>
      </g>
     </g>
    </g>
    <g id="ytick_8">
     <g id="line2d_48">
      <g>
       <use xlink:href="#m4ab1a3c406" x="57.6" y="228.690224" style="stroke: #000000; stroke-width: 0.8"/>
      </g>
     </g>
     <g id="text_21">
      <!-- 0.900 -->
      <g transform="translate(21.971875 232.489443)scale(0.1 -0.1)">
       <defs>
        <path id="DejaVuSans-39" d="M 703 97 
L 703 672 
Q 941 559 1184 500 
Q 1428 441 1663 441 
Q 2288 441 2617 861 
Q 2947 1281 2994 2138 
Q 2813 1869 2534 1725 
Q 2256 1581 1919 1581 
Q 1219 1581 811 2004 
Q 403 2428 403 3163 
Q 403 3881 828 4315 
Q 1253 4750 1959 4750 
Q 2769 4750 3195 4129 
Q 3622 3509 3622 2328 
Q 3622 1225 3098 567 
Q 2575 -91 1691 -91 
Q 1453 -91 1209 -44 
Q 966 3 703 97 
z
M 1959 2075 
Q 2384 2075 2632 2365 
Q 2881 2656 2881 3163 
Q 2881 3666 2632 3958 
Q 2384 4250 1959 4250 
Q 1534 4250 1286 3958 
Q 1038 3666 1038 3163 
Q 1038 2656 1286 2365 
Q 1534 2075 1959 2075 
z
" transform="scale(0.015625)"/>
       </defs>
       <use xlink:href="#DejaVuSans-30"/>
       <use xlink:href="#DejaVuSans-2e" x="63.623047"/>
       <use xlink:href="#DejaVuSans-39" x="95.410156"/>
       <use xlink:href="#DejaVuSans-30" x="159.033203"/>
       <use xlink:href="#DejaVuSans-30" x="222.65625"/>
      </g>
     </g>
    </g>
    <g id="ytick_9">
     <g id="line2d_49">
      <g>
       <use xlink:href="#m4ab1a3c406" x="57.6" y="207.014975" style="stroke: #000000; stroke-width: 0.8"/>
      </g>
     </g>
     <g id="text_22">
      <!-- 0.925 -->
      <g transform="translate(21.971875 210.814194)scale(0.1 -0.1)">
       <defs>
        <path id="DejaVuSans-32" d="M 1228 531 
L 3431 531 
L 3431 0 
L 469 0 
L 469 531 
Q 828 903 1448 1529 
Q 2069 2156 2228 2338 
Q 2531 2678 2651 2914 
Q 2772 3150 2772 3378 
Q 2772 3750 2511 3984 
Q 2250 4219 1831 4219 
Q 1534 4219 1204 4116 
Q 875 4013 500 3803 
L 500 4441 
Q 881 4594 1212 4672 
Q 1544 4750 1819 4750 
Q 2544 4750 2975 4387 
Q 3406 4025 3406 3419 
Q 3406 3131 3298 2873 
Q 3191 2616 2906 2266 
Q 2828 2175 2409 1742 
Q 1991 1309 1228 531 
z
" transform="scale(0.015625)"/>
       </defs>
       <use xlink:href="#DejaVuSans-30"/>
       <use xlink:href="#DejaVuSans-2e" x="63.623047"/>
       <use xlink:href="#DejaVuSans-39" x="95.410156"/>
       <use xlink:href="#DejaVuSans-32" x="159.033203"/>
       <use xlink:href="#DejaVuSans-35" x="222.65625"/>
      </g>
     </g>
    </g>
    <g id="text_23">
     <!-- fraction -->
     <g transform="translate(15.892187 248.791905)rotate(-90)scale(0.1 -0.1)">
      <use xlink:href="#DejaVuSans-66"/>
      <use xlink:href="#DejaVuSans-72" x="35.205078"/>
      <use xlink:href="#DejaVuSans-61" x="76.318359"/>
      <use xlink:href="#DejaVuSans-63" x="137.597656"/>
      <use xlink:href="#DejaVuSans-74" x="192.578125"/>
      <use xlink:href="#DejaVuSans-69" x="231.787109"/>
      <use xlink:href="#DejaVuSans-6f" x="259.570312"/>
      <use xlink:href="#DejaVuSans-6e" x="320.751953"/>
     </g>
    </g>
   </g>
   <g id="line2d_50">
    <path d="M 73.832727 249.298444 
L 77.079273 228.530522 
L 80.325818 226.894539 
L 83.572364 226.680018 
L 86.818909 226.683117 
L 90.065455 226.743088 
L 93.312 226.782936 
L 96.558545 226.817625 
L 99.805091 226.839496 
L 103.051636 226.854855 
L 106.298182 226.872521 
L 109.544727 226.891165 
L 112.791273 226.896616 
L 116.037818 226.865638 
L 119.284364 226.540241 
L 122.530909 226.885502 
L 125.777455 226.836522 
L 129.024 226.91414 
L 132.270545 226.991968 
L 135.517091 227.071192 
L 138.763636 227.15063 
L 142.010182 227.229309 
L 145.256727 227.304691 
L 148.503273 227.378187 
L 151.749818 227.448625 
L 154.996364 227.515044 
L 158.242909 227.578682 
L 161.489455 227.638311 
L 164.736 227.69329 
L 167.982545 227.744332 
L 171.229091 227.791932 
L 174.475636 229.701203 
L 177.722182 231.110429 
L 180.968727 232.316824 
L 184.215273 233.340778 
L 187.461818 234.230775 
L 190.708364 234.996913 
L 193.954909 235.651488 
L 197.201455 236.207005 
L 200.448 236.676766 
L 203.694545 237.070152 
L 206.941091 237.399664 
L 210.187636 237.673086 
L 213.434182 237.899684 
L 216.680727 238.08582 
L 219.927273 238.238991 
L 223.173818 238.365574 
L 226.420364 238.46906 
L 229.666909 238.553861 
L 232.913455 238.623374 
L 236.16 238.679094 
L 239.406545 238.724944 
L 242.653091 238.761708 
L 245.899636 238.792219 
L 249.146182 238.817259 
L 252.392727 238.83745 
L 255.639273 238.854286 
L 258.885818 238.867753 
L 262.132364 238.87909 
L 265.378909 238.888418 
L 268.625455 238.898081 
L 271.872 242.690062 
L 275.118545 245.480585 
L 278.365091 247.429721 
L 281.611636 248.744161 
L 284.858182 249.574197 
L 288.104727 250.05199 
L 291.351273 250.320188 
L 294.597818 250.426301 
L 297.844364 250.440828 
L 301.090909 250.412086 
L 304.337455 250.354426 
L 307.584 250.2853 
L 310.830545 250.209963 
L 314.077091 250.133516 
L 317.323636 250.060976 
L 320.570182 249.993546 
L 323.816727 249.934329 
L 327.063273 249.881449 
L 330.309818 249.817469 
L 333.556364 249.779677 
L 336.802909 249.738288 
L 340.049455 249.699057 
L 343.296 249.663076 
L 346.542545 249.630177 
L 349.789091 249.600366 
L 353.035636 249.572859 
L 356.282182 249.548002 
L 359.528727 249.525438 
L 362.775273 249.50493 
L 366.021818 249.486175 
L 369.268364 249.469206 
L 372.514909 249.453636 
L 375.761455 249.439216 
L 379.008 249.425855 
L 382.254545 249.413647 
L 385.501091 249.402259 
L 388.747636 249.391524 
L 391.994182 249.381572 
L 395.240727 249.37237 
L 398.487273 249.363801 
" clip-path="url(#p48bbae0694)" style="fill: none; stroke: #1f77b4; stroke-width: 1.5; stroke-linecap: square"/>
   </g>
   <g id="line2d_51">
    <path d="M 73.832727 232.41203 
L 77.079273 229.554127 
L 80.325818 223.580651 
L 83.572364 217.889283 
L 86.818909 214.137313 
L 90.065455 212.126158 
L 93.312 210.858624 
L 96.558545 210.112152 
L 99.805091 209.657796 
L 103.051636 209.376428 
L 106.298182 209.199183 
L 109.544727 209.090472 
L 112.791273 209.015666 
L 116.037818 208.965454 
L 119.284364 208.932291 
L 122.530909 208.907032 
L 125.777455 208.730483 
L 129.024 208.818099 
L 132.270545 208.90277 
L 135.517091 208.963218 
L 138.763636 209.002558 
L 142.010182 209.023116 
L 145.256727 209.056293 
L 148.503273 209.078648 
L 151.749818 209.09831 
L 154.996364 209.124967 
L 158.242909 209.148984 
L 161.489455 209.180485 
L 164.736 209.21803 
L 167.982545 209.248785 
L 171.229091 209.278546 
L 174.475636 211.541622 
L 177.722182 213.437869 
L 180.968727 214.906663 
L 184.215273 215.972999 
L 187.461818 216.740936 
L 190.708364 217.27175 
L 193.954909 217.636186 
L 197.201455 217.884755 
L 200.448 218.053774 
L 203.694545 218.170803 
L 206.941091 218.253916 
L 210.187636 218.312386 
L 213.434182 218.354367 
L 216.680727 218.385811 
L 219.927273 218.409009 
L 223.173818 218.427174 
L 226.420364 218.440934 
L 229.666909 218.451692 
L 232.913455 218.460252 
L 236.16 218.466828 
L 239.406545 218.472497 
L 242.653091 218.476807 
L 245.899636 218.480379 
L 249.146182 218.483326 
L 252.392727 218.485715 
L 255.639273 218.487766 
L 258.885818 218.489439 
L 262.132364 218.490909 
L 265.378909 218.492213 
L 268.625455 218.492696 
L 271.872 219.302835 
L 275.118545 220.093589 
L 278.365091 220.865997 
L 281.611636 221.614578 
L 284.858182 222.33508 
L 288.104727 223.023735 
L 291.351273 223.680143 
L 294.597818 224.301247 
L 297.844364 224.887753 
L 301.090909 225.440098 
L 304.337455 225.958527 
L 307.584 226.444722 
L 310.830545 226.899752 
L 314.077091 227.326503 
L 317.323636 227.725607 
L 320.570182 228.09496 
L 323.816727 228.447299 
L 327.063273 228.779929 
L 330.309818 229.051034 
L 333.556364 229.351583 
L 336.802909 229.610563 
L 340.049455 229.859257 
L 343.296 230.092621 
L 346.542545 230.310799 
L 349.789091 230.513904 
L 353.035636 230.704658 
L 356.282182 230.881907 
L 359.528727 231.04692 
L 362.775273 231.200517 
L 366.021818 231.343754 
L 369.268364 231.476838 
L 372.514909 231.601044 
L 375.761455 231.717297 
L 379.008 231.826096 
L 382.254545 231.927445 
L 385.501091 232.022498 
L 388.747636 232.111953 
L 391.994182 232.195518 
L 395.240727 232.273441 
L 398.487273 232.346256 
" clip-path="url(#p48bbae0694)" style="fill: none; stroke: #ff7f0e; stroke-width: 1.5; stroke-linecap: square"/>
   </g>
   <g id="patch_21">
    <path d="M 57.6 252.526345 
L 57.6 206.644966 
" style="fill: none; stroke: #000000; stroke-width: 0.8; stroke-linejoin: miter; stroke-linecap: square"/>
   </g>
   <g id="patch_22">
    <path d="M 414.72 252.526345 
L 414.72 206.644966 
" style="fill: none; stroke: #000000; stroke-width: 0.8; stroke-linejoin: miter; stroke-linecap: square"/>
   </g>
   <g id="patch_23">
    <path d="M 57.6 252.526345 
L 414.72 252.526345 
" style="fill: none; stroke: #000000; stroke-width: 0.8; stroke-linejoin: miter; stroke-linecap: square"/>
   </g>
   <g id="patch_24">
    <path d="M 57.6 206.644966 
L 414.72 206.644966 
" style="fill: none; stroke: #000000; stroke-width: 0.8; stroke-linejoin: miter; stroke-linecap: square"/>
   </g>
   <g id="text_24">
    <!-- yB -->
    <g transform="translate(228.492188 200.644966)scale(0.12 -0.12)">
     <defs>
      <path id="DejaVuSans-42" d="M 1259 2228 
L 1259 519 
L 2272 519 
Q 2781 519 3026 730 
Q 3272 941 3272 1375 
Q 3272 1813 3026 2020 
Q 2781 2228 2272 2228 
L 1259 2228 
z
M 1259 4147 
L 1259 2741 
L 2194 2741 
Q 2656 2741 2882 2914 
Q 3109 3088 3109 3444 
Q 3109 3797 2882 3972 
Q 2656 4147 2194 4147 
L 1259 4147 
z
M 628 4666 
L 2241 4666 
Q 2963 4666 3353 4366 
Q 3744 4066 3744 3513 
Q 3744 3084 3544 2831 
Q 3344 2578 2956 2516 
Q 3422 2416 3680 2098 
Q 3938 1781 3938 1306 
Q 3938 681 3513 340 
Q 3088 0 2303 0 
L 628 0 
L 628 4666 
z
" transform="scale(0.015625)"/>
     </defs>
     <use xlink:href="#DejaVuSans-79"/>
     <use xlink:href="#DejaVuSans-42" x="59.179688"/>
    </g>
   </g>
   <g id="legend_4">
    <g id="patch_25">
     <path d="M 330.010625 244.001216 
L 407.72 244.001216 
Q 409.72 244.001216 409.72 242.001216 
L 409.72 213.644966 
Q 409.72 211.644966 407.72 211.644966 
L 330.010625 211.644966 
Q 328.010625 211.644966 328.010625 213.644966 
L 328.010625 242.001216 
Q 328.010625 244.001216 330.010625 244.001216 
z
" style="fill: #ffffff; opacity: 0.8; stroke: #cccccc; stroke-linejoin: miter"/>
    </g>
    <g id="line2d_52">
     <path d="M 332.010625 219.743403 
L 342.010625 219.743403 
L 352.010625 219.743403 
" style="fill: none; stroke: #1f77b4; stroke-width: 1.5; stroke-linecap: square"/>
    </g>
    <g id="text_25">
     <!-- yB0 (in) -->
     <g transform="translate(360.010625 223.243403)scale(0.1 -0.1)">
      <use xlink:href="#DejaVuSans-79"/>
      <use xlink:href="#DejaVuSans-42" x="59.179688"/>
      <use xlink:href="#DejaVuSans-30" x="127.783203"/>
      <use xlink:href="#DejaVuSans-20" x="191.40625"/>
      <use xlink:href="#DejaVuSans-28" x="223.193359"/>
      <use xlink:href="#DejaVuSans-69" x="262.207031"/>
      <use xlink:href="#DejaVuSans-6e" x="289.990234"/>
      <use xlink:href="#DejaVuSans-29" x="353.369141"/>
     </g>
    </g>
    <g id="line2d_53">
     <path d="M 332.010625 234.421528 
L 342.010625 234.421528 
L 352.010625 234.421528 
" style="fill: none; stroke: #ff7f0e; stroke-width: 1.5; stroke-linecap: square"/>
    </g>
    <g id="text_26">
     <!-- yBL (out) -->
     <g transform="translate(360.010625 237.921528)scale(0.1 -0.1)">
      <use xlink:href="#DejaVuSans-79"/>
      <use xlink:href="#DejaVuSans-42" x="59.179688"/>
      <use xlink:href="#DejaVuSans-4c" x="127.783203"/>
      <use xlink:href="#DejaVuSans-20" x="183.496094"/>
      <use xlink:href="#DejaVuSans-28" x="215.283203"/>
      <use xlink:href="#DejaVuSans-6f" x="254.296875"/>
      <use xlink:href="#DejaVuSans-75" x="315.478516"/>
      <use xlink:href="#DejaVuSans-74" x="378.857422"/>
      <use xlink:href="#DejaVuSans-29" x="418.066406"/>
     </g>
    </g>
   </g>
  </g>
  <g id="axes_5">
   <g id="patch_26">
    <path d="M 57.6 307.584 
L 414.72 307.584 
L 414.72 261.702621 
L 57.6 261.702621 
z
" style="fill: #ffffff"/>
   </g>
   <g id="matplotlib.axis_9">
    <g id="xtick_25">
     <g id="line2d_54">
      <g>
       <use xlink:href="#mc7d4d77d5d" x="73.832727" y="307.584" style="stroke: #000000; stroke-width: 0.8"/>
      </g>
     </g>
     <g id="text_27">
      <!-- 0 -->
      <g transform="translate(70.651477 322.182437)scale(0.1 -0.1)">
       <use xlink:href="#DejaVuSans-30"/>
      </g>
     </g>
    </g>
    <g id="xtick_26">
     <g id="line2d_55">
      <g>
       <use xlink:href="#mc7d4d77d5d" x="138.763636" y="307.584" style="stroke: #000000; stroke-width: 0.8"/>
      </g>
     </g>
     <g id="text_28">
      <!-- 20 -->
      <g transform="translate(132.401136 322.182437)scale(0.1 -0.1)">
       <use xlink:href="#DejaVuSans-32"/>
       <use xlink:href="#DejaVuSans-30" x="63.623047"/>
      </g>
     </g>
    </g>
    <g id="xtick_27">
     <g id="line2d_56">
      <g>
       <use xlink:href="#mc7d4d77d5d" x="203.694545" y="307.584" style="stroke: #000000; stroke-width: 0.8"/>
      </g>
     </g>
     <g id="text_29">
      <!-- 40 -->
      <g transform="translate(197.332045 322.182437)scale(0.1 -0.1)">
       <defs>
        <path id="DejaVuSans-34" d="M 2419 4116 
L 825 1625 
L 2419 1625 
L 2419 4116 
z
M 2253 4666 
L 3047 4666 
L 3047 1625 
L 3713 1625 
L 3713 1100 
L 3047 1100 
L 3047 0 
L 2419 0 
L 2419 1100 
L 313 1100 
L 313 1709 
L 2253 4666 
z
" transform="scale(0.015625)"/>
       </defs>
       <use xlink:href="#DejaVuSans-34"/>
       <use xlink:href="#DejaVuSans-30" x="63.623047"/>
      </g>
     </g>
    </g>
    <g id="xtick_28">
     <g id="line2d_57">
      <g>
       <use xlink:href="#mc7d4d77d5d" x="268.625455" y="307.584" style="stroke: #000000; stroke-width: 0.8"/>
      </g>
     </g>
     <g id="text_30">
      <!-- 60 -->
      <g transform="translate(262.262955 322.182437)scale(0.1 -0.1)">
       <use xlink:href="#DejaVuSans-36"/>
       <use xlink:href="#DejaVuSans-30" x="63.623047"/>
      </g>
     </g>
    </g>
    <g id="xtick_29">
     <g id="line2d_58">
      <g>
       <use xlink:href="#mc7d4d77d5d" x="333.556364" y="307.584" style="stroke: #000000; stroke-width: 0.8"/>
      </g>
     </g>
     <g id="text_31">
      <!-- 80 -->
      <g transform="translate(327.193864 322.182437)scale(0.1 -0.1)">
       <use xlink:href="#DejaVuSans-38"/>
       <use xlink:href="#DejaVuSans-30" x="63.623047"/>
      </g>
     </g>
    </g>
    <g id="xtick_30">
     <g id="line2d_59">
      <g>
       <use xlink:href="#mc7d4d77d5d" x="398.487273" y="307.584" style="stroke: #000000; stroke-width: 0.8"/>
      </g>
     </g>
     <g id="text_32">
      <!-- 100 -->
      <g transform="translate(388.943523 322.182437)scale(0.1 -0.1)">
       <use xlink:href="#DejaVuSans-31"/>
       <use xlink:href="#DejaVuSans-30" x="63.623047"/>
       <use xlink:href="#DejaVuSans-30" x="127.246094"/>
      </g>
     </g>
    </g>
    <g id="text_33">
     <!-- time (normalized) -->
     <g transform="translate(191.589687 335.860562)scale(0.1 -0.1)">
      <use xlink:href="#DejaVuSans-74"/>
      <use xlink:href="#DejaVuSans-69" x="39.208984"/>
      <use xlink:href="#DejaVuSans-6d" x="66.992188"/>
      <use xlink:href="#DejaVuSans-65" x="164.404297"/>
      <use xlink:href="#DejaVuSans-20" x="225.927734"/>
      <use xlink:href="#DejaVuSans-28" x="257.714844"/>
      <use xlink:href="#DejaVuSans-6e" x="296.728516"/>
      <use xlink:href="#DejaVuSans-6f" x="360.107422"/>
      <use xlink:href="#DejaVuSans-72" x="421.289062"/>
      <use xlink:href="#DejaVuSans-6d" x="460.652344"/>
      <use xlink:href="#DejaVuSans-61" x="558.064453"/>
      <use xlink:href="#DejaVuSans-6c" x="619.34375"/>
      <use xlink:href="#DejaVuSans-69" x="647.126953"/>
      <use xlink:href="#DejaVuSans-7a" x="674.910156"/>
      <use xlink:href="#DejaVuSans-65" x="727.400391"/>
      <use xlink:href="#DejaVuSans-64" x="788.923828"/>
      <use xlink:href="#DejaVuSans-29" x="852.400391"/>
     </g>
    </g>
   </g>
   <g id="matplotlib.axis_10">
    <g id="ytick_10">
     <g id="line2d_60">
      <g>
       <use xlink:href="#m4ab1a3c406" x="57.6" y="300.043955" style="stroke: #000000; stroke-width: 0.8"/>
      </g>
     </g>
     <g id="text_34">
      <!-- 0.04 -->
      <g transform="translate(28.334375 303.843174)scale(0.1 -0.1)">
       <use xlink:href="#DejaVuSans-30"/>
       <use xlink:href="#DejaVuSans-2e" x="63.623047"/>
       <use xlink:href="#DejaVuSans-30" x="95.410156"/>
       <use xlink:href="#DejaVuSans-34" x="159.033203"/>
      </g>
     </g>
    </g>
    <g id="ytick_11">
     <g id="line2d_61">
      <g>
       <use xlink:href="#m4ab1a3c406" x="57.6" y="271.880507" style="stroke: #000000; stroke-width: 0.8"/>
      </g>
     </g>
     <g id="text_35">
      <!-- 0.06 -->
      <g transform="translate(28.334375 275.679726)scale(0.1 -0.1)">
       <use xlink:href="#DejaVuSans-30"/>
       <use xlink:href="#DejaVuSans-2e" x="63.623047"/>
       <use xlink:href="#DejaVuSans-30" x="95.410156"/>
       <use xlink:href="#DejaVuSans-36" x="159.033203"/>
      </g>
     </g>
    </g>
    <g id="text_36">
     <!-- fraction -->
     <g transform="translate(22.254687 303.84956)rotate(-90)scale(0.1 -0.1)">
      <use xlink:href="#DejaVuSans-66"/>
      <use xlink:href="#DejaVuSans-72" x="35.205078"/>
      <use xlink:href="#DejaVuSans-61" x="76.318359"/>
      <use xlink:href="#DejaVuSans-63" x="137.597656"/>
      <use xlink:href="#DejaVuSans-74" x="192.578125"/>
      <use xlink:href="#DejaVuSans-69" x="231.787109"/>
      <use xlink:href="#DejaVuSans-6f" x="259.570312"/>
      <use xlink:href="#DejaVuSans-6e" x="320.751953"/>
     </g>
    </g>
   </g>
   <g id="line2d_62">
    <path d="M 73.832727 264.827309 
L 77.079273 285.898714 
L 80.325818 287.83033 
L 83.572364 288.145281 
L 86.818909 288.177404 
L 90.065455 288.141344 
L 93.312 288.112427 
L 96.558545 288.08491 
L 99.805091 288.066533 
L 103.051636 288.0531 
L 106.298182 288.038827 
L 109.544727 288.024331 
L 112.791273 288.017743 
L 116.037818 288.013483 
L 119.284364 287.985556 
L 122.530909 288.008239 
L 125.777455 288.087689 
L 129.024 288.012009 
L 132.270545 287.936019 
L 135.517091 287.857731 
L 138.763636 287.778373 
L 142.010182 287.698953 
L 145.256727 287.622151 
L 148.503273 287.54653 
L 151.749818 287.473354 
L 154.996364 287.403654 
L 158.242909 287.336255 
L 161.489455 287.272468 
L 164.736 287.212967 
L 167.982545 287.157057 
L 171.229091 287.104914 
L 174.475636 285.222906 
L 177.722182 283.821304 
L 180.968727 282.617495 
L 184.215273 281.593622 
L 187.461818 280.701939 
L 190.708364 279.933239 
L 193.954909 279.27583 
L 197.201455 278.717464 
L 200.448 278.244906 
L 203.694545 277.849003 
L 206.941091 277.5172 
L 210.187636 277.241806 
L 213.434182 277.013483 
L 216.680727 276.825893 
L 219.927273 276.671487 
L 223.173818 276.543865 
L 226.420364 276.439527 
L 229.666909 276.354023 
L 232.913455 276.283925 
L 236.16 276.227731 
L 239.406545 276.18149 
L 242.653091 276.14441 
L 245.899636 276.113641 
L 249.146182 276.088391 
L 252.392727 276.068032 
L 255.639273 276.05106 
L 258.885818 276.037486 
L 262.132364 276.02606 
L 265.378909 276.01666 
L 268.625455 276.006648 
L 271.872 272.123557 
L 275.118545 269.195186 
L 278.365091 267.116332 
L 281.611636 265.695913 
L 284.858182 264.789569 
L 288.104727 264.257802 
L 291.351273 263.951471 
L 294.597818 263.819967 
L 297.844364 263.788138 
L 301.090909 263.804611 
L 304.337455 263.854098 
L 307.584 263.917629 
L 310.830545 263.989204 
L 314.077091 264.063314 
L 317.323636 264.134346 
L 320.570182 264.200697 
L 323.816727 264.259573 
L 327.063273 264.312596 
L 330.309818 264.375694 
L 333.556364 264.414277 
L 336.802909 264.456068 
L 340.049455 264.495748 
L 343.296 264.532248 
L 346.542545 264.565706 
L 349.789091 264.596121 
L 353.035636 264.624232 
L 356.282182 264.649721 
L 359.528727 264.672926 
L 362.775273 264.694073 
L 366.021818 264.713447 
L 369.268364 264.731039 
L 372.514909 264.74721 
L 375.761455 264.7622 
L 379.008 264.776102 
L 382.254545 264.788836 
L 385.501091 264.800721 
L 388.747636 264.811919 
L 391.994182 264.822314 
L 395.240727 264.83194 
L 398.487273 264.840914 
" clip-path="url(#p49fe9be30b)" style="fill: none; stroke: #1f77b4; stroke-width: 1.5; stroke-linecap: square"/>
   </g>
   <g id="line2d_63">
    <path d="M 73.832727 283.005213 
L 77.079273 285.703919 
L 80.325818 291.51302 
L 83.572364 296.962093 
L 86.818909 300.514054 
L 90.065455 302.535303 
L 93.312 303.700058 
L 96.558545 304.39002 
L 99.805091 304.81357 
L 103.051636 305.073895 
L 106.298182 305.236115 
L 109.544727 305.335673 
L 112.791273 305.405515 
L 116.037818 305.450935 
L 119.284364 305.479319 
L 122.530909 305.498483 
L 125.777455 305.497516 
L 129.024 305.481852 
L 132.270545 305.465968 
L 135.517091 305.448249 
L 138.763636 305.428963 
L 142.010182 305.408314 
L 145.256727 305.388218 
L 148.503273 305.367314 
L 151.749818 305.346156 
L 154.996364 305.325356 
L 158.242909 305.304315 
L 161.489455 305.283694 
L 164.736 305.263462 
L 167.982545 305.242842 
L 171.229091 305.222135 
L 174.475636 303.123554 
L 177.722182 301.347211 
L 180.968727 299.963398 
L 184.215273 298.958802 
L 187.461818 298.237469 
L 190.708364 297.741884 
L 193.954909 297.404523 
L 197.201455 297.176778 
L 200.448 297.023626 
L 203.694545 296.918865 
L 206.941091 296.845409 
L 210.187636 296.794462 
L 213.434182 296.758384 
L 216.680727 296.731653 
L 219.927273 296.712205 
L 223.173818 296.697088 
L 226.420364 296.685766 
L 229.666909 296.676992 
L 232.913455 296.670063 
L 236.16 296.664782 
L 239.406545 296.660198 
L 242.653091 296.656743 
L 245.899636 296.653874 
L 249.146182 296.651503 
L 252.392727 296.649588 
L 255.639273 296.647945 
L 258.885818 296.646619 
L 262.132364 296.645466 
L 265.378909 296.644477 
L 268.625455 296.644294 
L 271.872 295.866373 
L 275.118545 295.105472 
L 278.365091 294.360368 
L 281.611636 293.636614 
L 284.858182 292.938701 
L 288.104727 292.270508 
L 291.351273 291.632584 
L 294.597818 291.028126 
L 297.844364 290.456589 
L 301.090909 289.917683 
L 304.337455 289.411302 
L 307.584 288.935894 
L 310.830545 288.490562 
L 314.077091 288.072486 
L 317.323636 287.681181 
L 320.570182 287.318953 
L 323.816727 286.972818 
L 327.063273 286.645679 
L 330.309818 286.380702 
L 333.556364 286.084326 
L 336.802909 285.829421 
L 340.049455 285.584589 
L 343.296 285.35474 
L 346.542545 285.139775 
L 349.789091 284.939569 
L 353.035636 284.751484 
L 356.282182 284.576636 
L 359.528727 284.413795 
L 362.775273 284.262165 
L 366.021818 284.120721 
L 369.268364 283.989249 
L 372.514909 283.866513 
L 375.761455 283.751615 
L 379.008 283.644065 
L 382.254545 283.543851 
L 385.501091 283.449852 
L 388.747636 283.361386 
L 391.994182 283.278738 
L 395.240727 283.20166 
L 398.487273 283.129632 
" clip-path="url(#p49fe9be30b)" style="fill: none; stroke: #ff7f0e; stroke-width: 1.5; stroke-linecap: square"/>
   </g>
   <g id="patch_27">
    <path d="M 57.6 307.584 
L 57.6 261.702621 
" style="fill: none; stroke: #000000; stroke-width: 0.8; stroke-linejoin: miter; stroke-linecap: square"/>
   </g>
   <g id="patch_28">
    <path d="M 414.72 307.584 
L 414.72 261.702621 
" style="fill: none; stroke: #000000; stroke-width: 0.8; stroke-linejoin: miter; stroke-linecap: square"/>
   </g>
   <g id="patch_29">
    <path d="M 57.6 307.584 
L 414.72 307.584 
" style="fill: none; stroke: #000000; stroke-width: 0.8; stroke-linejoin: miter; stroke-linecap: square"/>
   </g>
   <g id="patch_30">
    <path d="M 57.6 261.702621 
L 414.72 261.702621 
" style="fill: none; stroke: #000000; stroke-width: 0.8; stroke-linejoin: miter; stroke-linecap: square"/>
   </g>
   <g id="text_37">
    <!-- yC -->
    <g transform="translate(228.419062 255.702621)scale(0.12 -0.12)">
     <defs>
      <path id="DejaVuSans-43" d="M 4122 4306 
L 4122 3641 
Q 3803 3938 3442 4084 
Q 3081 4231 2675 4231 
Q 1875 4231 1450 3742 
Q 1025 3253 1025 2328 
Q 1025 1406 1450 917 
Q 1875 428 2675 428 
Q 3081 428 3442 575 
Q 3803 722 4122 1019 
L 4122 359 
Q 3791 134 3420 21 
Q 3050 -91 2638 -91 
Q 1578 -91 968 557 
Q 359 1206 359 2328 
Q 359 3453 968 4101 
Q 1578 4750 2638 4750 
Q 3056 4750 3426 4639 
Q 3797 4528 4122 4306 
z
" transform="scale(0.015625)"/>
     </defs>
     <use xlink:href="#DejaVuSans-79"/>
     <use xlink:href="#DejaVuSans-43" x="59.179688"/>
    </g>
   </g>
   <g id="legend_5">
    <g id="patch_31">
     <path d="M 329.88875 299.058871 
L 407.72 299.058871 
Q 409.72 299.058871 409.72 297.058871 
L 409.72 268.702621 
Q 409.72 266.702621 407.72 266.702621 
L 329.88875 266.702621 
Q 327.88875 266.702621 327.88875 268.702621 
L 327.88875 297.058871 
Q 327.88875 299.058871 329.88875 299.058871 
z
" style="fill: #ffffff; opacity: 0.8; stroke: #cccccc; stroke-linejoin: miter"/>
    </g>
    <g id="line2d_64">
     <path d="M 331.88875 274.801058 
L 341.88875 274.801058 
L 351.88875 274.801058 
" style="fill: none; stroke: #1f77b4; stroke-width: 1.5; stroke-linecap: square"/>
    </g>
    <g id="text_38">
     <!-- yC0 (in) -->
     <g transform="translate(359.88875 278.301058)scale(0.1 -0.1)">
      <use xlink:href="#DejaVuSans-79"/>
      <use xlink:href="#DejaVuSans-43" x="59.179688"/>
      <use xlink:href="#DejaVuSans-30" x="129.003906"/>
      <use xlink:href="#DejaVuSans-20" x="192.626953"/>
      <use xlink:href="#DejaVuSans-28" x="224.414062"/>
      <use xlink:href="#DejaVuSans-69" x="263.427734"/>
      <use xlink:href="#DejaVuSans-6e" x="291.210938"/>
      <use xlink:href="#DejaVuSans-29" x="354.589844"/>
     </g>
    </g>
    <g id="line2d_65">
     <path d="M 331.88875 289.479183 
L 341.88875 289.479183 
L 351.88875 289.479183 
" style="fill: none; stroke: #ff7f0e; stroke-width: 1.5; stroke-linecap: square"/>
    </g>
    <g id="text_39">
     <!-- yCL (out) -->
     <g transform="translate(359.88875 292.979183)scale(0.1 -0.1)">
      <use xlink:href="#DejaVuSans-79"/>
      <use xlink:href="#DejaVuSans-43" x="59.179688"/>
      <use xlink:href="#DejaVuSans-4c" x="129.003906"/>
      <use xlink:href="#DejaVuSans-20" x="184.716797"/>
      <use xlink:href="#DejaVuSans-28" x="216.503906"/>
      <use xlink:href="#DejaVuSans-6f" x="255.517578"/>
      <use xlink:href="#DejaVuSans-75" x="316.699219"/>
      <use xlink:href="#DejaVuSans-74" x="380.078125"/>
      <use xlink:href="#DejaVuSans-29" x="419.287109"/>
     </g>
    </g>
   </g>
  </g>
 </g>
 <defs>
  <clipPath id="p18049712a0">
   <rect x="57.6" y="41.472" width="357.12" height="45.881379"/>
  </clipPath>
  <clipPath id="p01ba4ad5ff">
   <rect x="57.6" y="96.529655" width="357.12" height="45.881379"/>
  </clipPath>
  <clipPath id="p2e4f3d386f">
   <rect x="57.6" y="151.58731" width="357.12" height="45.881379"/>
  </clipPath>
  <clipPath id="p48bbae0694">
   <rect x="57.6" y="206.644966" width="357.12" height="45.881379"/>
  </clipPath>
  <clipPath id="p49fe9be30b">
   <rect x="57.6" y="261.702621" width="357.12" height="45.881379"/>
  </clipPath>
 </defs>
</svg>
