<?xml version="1.0" encoding="utf-8" standalone="no"?>
<!DOCTYPE svg PUBLIC "-//W3C//DTD SVG 1.1//EN"
  "http://www.w3.org/Graphics/SVG/1.1/DTD/svg11.dtd">
<svg xmlns:xlink="http://www.w3.org/1999/xlink" width="460.8pt" height="345.6pt" viewBox="0 0 460.8 345.6" xmlns="http://www.w3.org/2000/svg" version="1.1">
 <metadata>
  <rdf:RDF xmlns:dc="http://purl.org/dc/elements/1.1/" xmlns:cc="http://creativecommons.org/ns#" xmlns:rdf="http://www.w3.org/1999/02/22-rdf-syntax-ns#">
   <cc:Work>
    <dc:type rdf:resource="http://purl.org/dc/dcmitype/StillImage"/>
    <dc:date>2022-07-10T00:04:42.689629</dc:date>
    <dc:format>image/svg+xml</dc:format>
    <dc:creator>
     <cc:Agent>
      <dc:title>Matplotlib v3.5.2, https://matplotlib.org/</dc:title>
     </cc:Agent>
    </dc:creator>
   </cc:Work>
  </rdf:RDF>
 </metadata>
 <defs>
  <style type="text/css">*{stroke-linejoin: round; stroke-linecap: butt}</style>
 </defs>
 <g id="figure_1">
  <g id="patch_1">
   <path d="M 0 345.6 
L 460.8 345.6 
L 460.8 0 
L 0 0 
z
" style="fill: #ffffff"/>
  </g>
  <g id="axes_1">
   <g id="patch_2">
    <path d="M 57.6 87.353379 
L 414.72 87.353379 
L 414.72 41.472 
L 57.6 41.472 
z
" style="fill: #ffffff"/>
   </g>
   <g id="matplotlib.axis_1">
    <g id="xtick_1">
     <g id="line2d_1">
      <defs>
       <path id="m313ea1dd9f" d="M 0 0 
L 0 3.5 
" style="stroke: #000000; stroke-width: 0.8"/>
      </defs>
      <g>
       <use xlink:href="#m313ea1dd9f" x="73.832727" y="87.353379" style="stroke: #000000; stroke-width: 0.8"/>
      </g>
     </g>
    </g>
    <g id="xtick_2">
     <g id="line2d_2">
      <g>
       <use xlink:href="#m313ea1dd9f" x="138.763636" y="87.353379" style="stroke: #000000; stroke-width: 0.8"/>
      </g>
     </g>
    </g>
    <g id="xtick_3">
     <g id="line2d_3">
      <g>
       <use xlink:href="#m313ea1dd9f" x="203.694545" y="87.353379" style="stroke: #000000; stroke-width: 0.8"/>
      </g>
     </g>
    </g>
    <g id="xtick_4">
     <g id="line2d_4">
      <g>
       <use xlink:href="#m313ea1dd9f" x="268.625455" y="87.353379" style="stroke: #000000; stroke-width: 0.8"/>
      </g>
     </g>
    </g>
    <g id="xtick_5">
     <g id="line2d_5">
      <g>
       <use xlink:href="#m313ea1dd9f" x="333.556364" y="87.353379" style="stroke: #000000; stroke-width: 0.8"/>
      </g>
     </g>
    </g>
    <g id="xtick_6">
     <g id="line2d_6">
      <g>
       <use xlink:href="#m313ea1dd9f" x="398.487273" y="87.353379" style="stroke: #000000; stroke-width: 0.8"/>
      </g>
     </g>
    </g>
   </g>
   <g id="matplotlib.axis_2">
    <g id="ytick_1">
     <g id="line2d_7">
      <defs>
       <path id="m5f59d43563" d="M 0 0 
L -3.5 0 
" style="stroke: #000000; stroke-width: 0.8"/>
      </defs>
      <g>
       <use xlink:href="#m5f59d43563" x="57.6" y="73.48167" style="stroke: #000000; stroke-width: 0.8"/>
      </g>
     </g>
     <g id="text_1">
      <!-- 0 -->
      <g transform="translate(44.2375 77.280889)scale(0.1 -0.1)">
       <defs>
        <path id="DejaVuSans-30" d="M 2034 4250 
Q 1547 4250 1301 3770 
Q 1056 3291 1056 2328 
Q 1056 1369 1301 889 
Q 1547 409 2034 409 
Q 2525 409 2770 889 
Q 3016 1369 3016 2328 
Q 3016 3291 2770 3770 
Q 2525 4250 2034 4250 
z
M 2034 4750 
Q 2819 4750 3233 4129 
Q 3647 3509 3647 2328 
Q 3647 1150 3233 529 
Q 2819 -91 2034 -91 
Q 1250 -91 836 529 
Q 422 1150 422 2328 
Q 422 3509 836 4129 
Q 1250 4750 2034 4750 
z
" transform="scale(0.015625)"/>
       </defs>
       <use xlink:href="#DejaVuSans-30"/>
      </g>
     </g>
    </g>
    <g id="ytick_2">
     <g id="line2d_8">
      <g>
       <use xlink:href="#m5f59d43563" x="57.6" y="43.662928" style="stroke: #000000; stroke-width: 0.8"/>
      </g>
     </g>
     <g id="text_2">
      <!-- 1 -->
      <g transform="translate(44.2375 47.462147)scale(0.1 -0.1)">
       <defs>
        <path id="DejaVuSans-31" d="M 794 531 
L 1825 531 
L 1825 4091 
L 703 3866 
L 703 4441 
L 1819 4666 
L 2450 4666 
L 2450 531 
L 3481 531 
L 3481 0 
L 794 0 
L 794 531 
z
" transform="scale(0.015625)"/>
       </defs>
       <use xlink:href="#DejaVuSans-31"/>
      </g>
     </g>
    </g>
    <g id="text_3">
     <!-- flow rate (normalized) -->
     <g transform="translate(38.157812 119.729877)rotate(-90)scale(0.1 -0.1)">
      <defs>
       <path id="DejaVuSans-66" d="M 2375 4863 
L 2375 4384 
L 1825 4384 
Q 1516 4384 1395 4259 
Q 1275 4134 1275 3809 
L 1275 3500 
L 2222 3500 
L 2222 3053 
L 1275 3053 
L 1275 0 
L 697 0 
L 697 3053 
L 147 3053 
L 147 3500 
L 697 3500 
L 697 3744 
Q 697 4328 969 4595 
Q 1241 4863 1831 4863 
L 2375 4863 
z
" transform="scale(0.015625)"/>
       <path id="DejaVuSans-6c" d="M 603 4863 
L 1178 4863 
L 1178 0 
L 603 0 
L 603 4863 
z
" transform="scale(0.015625)"/>
       <path id="DejaVuSans-6f" d="M 1959 3097 
Q 1497 3097 1228 2736 
Q 959 2375 959 1747 
Q 959 1119 1226 758 
Q 1494 397 1959 397 
Q 2419 397 2687 759 
Q 2956 1122 2956 1747 
Q 2956 2369 2687 2733 
Q 2419 3097 1959 3097 
z
M 1959 3584 
Q 2709 3584 3137 3096 
Q 3566 2609 3566 1747 
Q 3566 888 3137 398 
Q 2709 -91 1959 -91 
Q 1206 -91 779 398 
Q 353 888 353 1747 
Q 353 2609 779 3096 
Q 1206 3584 1959 3584 
z
" transform="scale(0.015625)"/>
       <path id="DejaVuSans-77" d="M 269 3500 
L 844 3500 
L 1563 769 
L 2278 3500 
L 2956 3500 
L 3675 769 
L 4391 3500 
L 4966 3500 
L 4050 0 
L 3372 0 
L 2619 2869 
L 1863 0 
L 1184 0 
L 269 3500 
z
" transform="scale(0.015625)"/>
       <path id="DejaVuSans-20" transform="scale(0.015625)"/>
       <path id="DejaVuSans-72" d="M 2631 2963 
Q 2534 3019 2420 3045 
Q 2306 3072 2169 3072 
Q 1681 3072 1420 2755 
Q 1159 2438 1159 1844 
L 1159 0 
L 581 0 
L 581 3500 
L 1159 3500 
L 1159 2956 
Q 1341 3275 1631 3429 
Q 1922 3584 2338 3584 
Q 2397 3584 2469 3576 
Q 2541 3569 2628 3553 
L 2631 2963 
z
" transform="scale(0.015625)"/>
       <path id="DejaVuSans-61" d="M 2194 1759 
Q 1497 1759 1228 1600 
Q 959 1441 959 1056 
Q 959 750 1161 570 
Q 1363 391 1709 391 
Q 2188 391 2477 730 
Q 2766 1069 2766 1631 
L 2766 1759 
L 2194 1759 
z
M 3341 1997 
L 3341 0 
L 2766 0 
L 2766 531 
Q 2569 213 2275 61 
Q 1981 -91 1556 -91 
Q 1019 -91 701 211 
Q 384 513 384 1019 
Q 384 1609 779 1909 
Q 1175 2209 1959 2209 
L 2766 2209 
L 2766 2266 
Q 2766 2663 2505 2880 
Q 2244 3097 1772 3097 
Q 1472 3097 1187 3025 
Q 903 2953 641 2809 
L 641 3341 
Q 956 3463 1253 3523 
Q 1550 3584 1831 3584 
Q 2591 3584 2966 3190 
Q 3341 2797 3341 1997 
z
" transform="scale(0.015625)"/>
       <path id="DejaVuSans-74" d="M 1172 4494 
L 1172 3500 
L 2356 3500 
L 2356 3053 
L 1172 3053 
L 1172 1153 
Q 1172 725 1289 603 
Q 1406 481 1766 481 
L 2356 481 
L 2356 0 
L 1766 0 
Q 1100 0 847 248 
Q 594 497 594 1153 
L 594 3053 
L 172 3053 
L 172 3500 
L 594 3500 
L 594 4494 
L 1172 4494 
z
" transform="scale(0.015625)"/>
       <path id="DejaVuSans-65" d="M 3597 1894 
L 3597 1613 
L 953 1613 
Q 991 1019 1311 708 
Q 1631 397 2203 397 
Q 2534 397 2845 478 
Q 3156 559 3463 722 
L 3463 178 
Q 3153 47 2828 -22 
Q 2503 -91 2169 -91 
Q 1331 -91 842 396 
Q 353 884 353 1716 
Q 353 2575 817 3079 
Q 1281 3584 2069 3584 
Q 2775 3584 3186 3129 
Q 3597 2675 3597 1894 
z
M 3022 2063 
Q 3016 2534 2758 2815 
Q 2500 3097 2075 3097 
Q 1594 3097 1305 2825 
Q 1016 2553 972 2059 
L 3022 2063 
z
" transform="scale(0.015625)"/>
       <path id="DejaVuSans-28" d="M 1984 4856 
Q 1566 4138 1362 3434 
Q 1159 2731 1159 2009 
Q 1159 1288 1364 580 
Q 1569 -128 1984 -844 
L 1484 -844 
Q 1016 -109 783 600 
Q 550 1309 550 2009 
Q 550 2706 781 3412 
Q 1013 4119 1484 4856 
L 1984 4856 
z
" transform="scale(0.015625)"/>
       <path id="DejaVuSans-6e" d="M 3513 2113 
L 3513 0 
L 2938 0 
L 2938 2094 
Q 2938 2591 2744 2837 
Q 2550 3084 2163 3084 
Q 1697 3084 1428 2787 
Q 1159 2491 1159 1978 
L 1159 0 
L 581 0 
L 581 3500 
L 1159 3500 
L 1159 2956 
Q 1366 3272 1645 3428 
Q 1925 3584 2291 3584 
Q 2894 3584 3203 3211 
Q 3513 2838 3513 2113 
z
" transform="scale(0.015625)"/>
       <path id="DejaVuSans-6d" d="M 3328 2828 
Q 3544 3216 3844 3400 
Q 4144 3584 4550 3584 
Q 5097 3584 5394 3201 
Q 5691 2819 5691 2113 
L 5691 0 
L 5113 0 
L 5113 2094 
Q 5113 2597 4934 2840 
Q 4756 3084 4391 3084 
Q 3944 3084 3684 2787 
Q 3425 2491 3425 1978 
L 3425 0 
L 2847 0 
L 2847 2094 
Q 2847 2600 2669 2842 
Q 2491 3084 2119 3084 
Q 1678 3084 1418 2786 
Q 1159 2488 1159 1978 
L 1159 0 
L 581 0 
L 581 3500 
L 1159 3500 
L 1159 2956 
Q 1356 3278 1631 3431 
Q 1906 3584 2284 3584 
Q 2666 3584 2933 3390 
Q 3200 3197 3328 2828 
z
" transform="scale(0.015625)"/>
       <path id="DejaVuSans-69" d="M 603 3500 
L 1178 3500 
L 1178 0 
L 603 0 
L 603 3500 
z
M 603 4863 
L 1178 4863 
L 1178 4134 
L 603 4134 
L 603 4863 
z
" transform="scale(0.015625)"/>
       <path id="DejaVuSans-7a" d="M 353 3500 
L 3084 3500 
L 3084 2975 
L 922 459 
L 3084 459 
L 3084 0 
L 275 0 
L 275 525 
L 2438 3041 
L 353 3041 
L 353 3500 
z
" transform="scale(0.015625)"/>
       <path id="DejaVuSans-64" d="M 2906 2969 
L 2906 4863 
L 3481 4863 
L 3481 0 
L 2906 0 
L 2906 525 
Q 2725 213 2448 61 
Q 2172 -91 1784 -91 
Q 1150 -91 751 415 
Q 353 922 353 1747 
Q 353 2572 751 3078 
Q 1150 3584 1784 3584 
Q 2172 3584 2448 3432 
Q 2725 3281 2906 2969 
z
M 947 1747 
Q 947 1113 1208 752 
Q 1469 391 1925 391 
Q 2381 391 2643 752 
Q 2906 1113 2906 1747 
Q 2906 2381 2643 2742 
Q 2381 3103 1925 3103 
Q 1469 3103 1208 2742 
Q 947 2381 947 1747 
z
" transform="scale(0.015625)"/>
       <path id="DejaVuSans-29" d="M 513 4856 
L 1013 4856 
Q 1481 4119 1714 3412 
Q 1947 2706 1947 2009 
Q 1947 1309 1714 600 
Q 1481 -109 1013 -844 
L 513 -844 
Q 928 -128 1133 580 
Q 1338 1288 1338 2009 
Q 1338 2731 1133 3434 
Q 928 4138 513 4856 
z
" transform="scale(0.015625)"/>
      </defs>
      <use xlink:href="#DejaVuSans-66"/>
      <use xlink:href="#DejaVuSans-6c" x="35.205078"/>
      <use xlink:href="#DejaVuSans-6f" x="62.988281"/>
      <use xlink:href="#DejaVuSans-77" x="124.169922"/>
      <use xlink:href="#DejaVuSans-20" x="205.957031"/>
      <use xlink:href="#DejaVuSans-72" x="237.744141"/>
      <use xlink:href="#DejaVuSans-61" x="278.857422"/>
      <use xlink:href="#DejaVuSans-74" x="340.136719"/>
      <use xlink:href="#DejaVuSans-65" x="379.345703"/>
      <use xlink:href="#DejaVuSans-20" x="440.869141"/>
      <use xlink:href="#DejaVuSans-28" x="472.65625"/>
      <use xlink:href="#DejaVuSans-6e" x="511.669922"/>
      <use xlink:href="#DejaVuSans-6f" x="575.048828"/>
      <use xlink:href="#DejaVuSans-72" x="636.230469"/>
      <use xlink:href="#DejaVuSans-6d" x="675.59375"/>
      <use xlink:href="#DejaVuSans-61" x="773.005859"/>
      <use xlink:href="#DejaVuSans-6c" x="834.285156"/>
      <use xlink:href="#DejaVuSans-69" x="862.068359"/>
      <use xlink:href="#DejaVuSans-7a" x="889.851562"/>
      <use xlink:href="#DejaVuSans-65" x="942.341797"/>
      <use xlink:href="#DejaVuSans-64" x="1003.865234"/>
      <use xlink:href="#DejaVuSans-29" x="1067.341797"/>
     </g>
    </g>
   </g>
   <g id="line2d_9">
    <path d="M 73.832727 73.48168 
L 77.079273 63.217204 
L 80.325818 69.600875 
L 83.572364 71.56145 
L 86.818909 72.43651 
L 90.065455 72.870642 
L 93.312 73.125379 
L 96.558545 73.260139 
L 99.805091 73.339863 
L 103.051636 73.418035 
L 106.298182 73.436505 
L 109.544727 73.452826 
L 112.791273 73.463863 
L 116.037818 73.470339 
L 119.284364 73.474421 
L 122.530909 70.617772 
L 125.777455 43.603361 
L 129.024 43.603305 
L 132.270545 43.603275 
L 135.517091 43.603258 
L 138.763636 43.603249 
L 142.010182 43.603244 
L 145.256727 43.603241 
L 148.503273 43.603239 
L 151.749818 43.603238 
L 154.996364 43.603238 
L 158.242909 43.603238 
L 161.489455 43.603238 
L 164.736 43.603239 
L 167.982545 43.603239 
L 171.229091 46.168006 
L 174.475636 66.566955 
L 177.722182 67.258784 
L 180.968727 67.976439 
L 184.215273 68.943911 
L 187.461818 70.084094 
L 190.708364 70.642943 
L 193.954909 72.008522 
L 197.201455 71.773365 
L 200.448 72.677777 
L 203.694545 72.986486 
L 206.941091 73.22212 
L 210.187636 73.25837 
L 213.434182 73.379967 
L 216.680727 73.426044 
L 219.927273 73.495199 
L 223.173818 73.452803 
L 226.420364 73.430485 
L 229.666909 73.442391 
L 232.913455 73.457732 
L 236.16 73.471268 
L 239.406545 73.479188 
L 242.653091 73.480816 
L 245.899636 73.480057 
L 249.146182 73.479777 
L 252.392727 73.479622 
L 255.639273 73.478628 
L 258.885818 73.479229 
L 262.132364 73.481375 
L 265.378909 73.481744 
L 268.625455 73.559451 
L 271.872 79.344099 
L 275.118545 78.838479 
L 278.365091 78.250904 
L 281.611636 77.669734 
L 284.858182 76.712113 
L 288.104727 76.06859 
L 291.351273 75.356859 
L 294.597818 74.825055 
L 297.844364 74.381827 
L 301.090909 74.060798 
L 304.337455 73.860057 
L 307.584 73.718601 
L 310.830545 73.631253 
L 314.077091 73.574892 
L 317.323636 73.539262 
L 320.570182 73.519222 
L 323.816727 73.505339 
L 327.063273 73.496097 
L 330.309818 73.490455 
L 333.556364 73.487509 
L 336.802909 73.48619 
L 340.049455 73.485286 
L 343.296 73.483879 
L 346.542545 73.483126 
L 349.789091 73.482499 
L 353.035636 73.482154 
L 356.282182 73.481928 
L 359.528727 73.481657 
L 362.775273 73.481494 
L 366.021818 73.481439 
L 369.268364 73.481491 
L 372.514909 73.481652 
L 375.761455 73.481694 
L 379.008 73.481671 
L 382.254545 73.481655 
L 385.501091 73.481647 
L 388.747636 73.481647 
L 391.994182 73.481654 
L 395.240727 73.481665 
L 398.487273 73.481679 
" clip-path="url(#pb47b25c153)" style="fill: none; stroke: #1f77b4; stroke-width: 1.5; stroke-linecap: square"/>
   </g>
   <g id="line2d_10">
    <path d="M 73.832727 73.481687 
L 77.079273 53.024135 
L 80.325818 65.727 
L 83.572364 69.642554 
L 86.818909 71.391761 
L 90.065455 72.259733 
L 93.312 72.769135 
L 96.558545 73.03867 
L 99.805091 73.198089 
L 103.051636 73.354456 
L 106.298182 73.391319 
L 109.544727 73.423992 
L 112.791273 73.446065 
L 116.037818 73.459014 
L 119.284364 73.467178 
L 122.530909 66.456462 
L 125.777455 43.654425 
L 129.024 43.654424 
L 132.270545 43.654423 
L 135.517091 43.654423 
L 138.763636 43.654423 
L 142.010182 43.654423 
L 145.256727 43.654423 
L 148.503273 43.654423 
L 151.749818 43.654423 
L 154.996364 43.654423 
L 158.242909 43.654423 
L 161.489455 43.654423 
L 164.736 43.654423 
L 167.982545 43.654423 
L 171.229091 57.012433 
L 174.475636 72.224785 
L 177.722182 72.350504 
L 180.968727 72.481055 
L 184.215273 72.657634 
L 187.461818 72.863376 
L 190.708364 72.96659 
L 193.954909 73.213486 
L 197.201455 73.170852 
L 200.448 73.335473 
L 203.694545 73.391549 
L 206.941091 73.434429 
L 210.187636 73.4411 
L 213.434182 73.46316 
L 216.680727 73.471484 
L 219.927273 73.483948 
L 223.173818 73.476493 
L 226.420364 73.472536 
L 229.666909 73.474621 
L 232.913455 73.477338 
L 236.16 73.479758 
L 239.406545 73.481217 
L 242.653091 73.48152 
L 245.899636 73.481376 
L 249.146182 73.481327 
L 252.392727 73.4813 
L 255.639273 73.481119 
L 258.885818 73.481227 
L 262.132364 73.481615 
L 265.378909 73.481684 
L 268.625455 73.913211 
L 271.872 85.267862 
L 275.118545 84.278496 
L 278.365091 83.129573 
L 281.611636 81.987148 
L 284.858182 79.946383 
L 288.104727 78.692056 
L 291.351273 77.236974 
L 294.597818 76.163016 
L 297.844364 75.259451 
L 301.090909 74.625305 
L 304.337455 74.222426 
L 307.584 73.944028 
L 310.830545 73.775097 
L 314.077091 73.662806 
L 317.323636 73.593471 
L 320.570182 73.555242 
L 323.816727 73.527557 
L 327.063273 73.509639 
L 330.309818 73.498747 
L 333.556364 73.493134 
L 336.802909 73.490585 
L 340.049455 73.488783 
L 343.296 73.48588 
L 346.542545 73.48439 
L 349.789091 73.483235 
L 353.035636 73.482622 
L 356.282182 73.4822 
L 359.528727 73.481745 
L 362.775273 73.481465 
L 366.021818 73.481362 
L 369.268364 73.481433 
L 372.514909 73.48168 
L 375.761455 73.481739 
L 379.008 73.48169 
L 382.254545 73.481656 
L 385.501091 73.481635 
L 388.747636 73.481629 
L 391.994182 73.481637 
L 395.240727 73.481655 
L 398.487273 73.481686 
" clip-path="url(#pb47b25c153)" style="fill: none; stroke: #ff7f0e; stroke-width: 1.5; stroke-linecap: square"/>
   </g>
   <g id="line2d_11">
    <path d="M 73.832727 73.481671 
L 77.079273 72.33724 
L 80.325818 73.050033 
L 83.572364 73.268228 
L 86.818909 73.365616 
L 90.065455 73.413833 
L 93.312 73.442121 
L 96.558545 73.457082 
L 99.805091 73.465933 
L 103.051636 73.474614 
L 106.298182 73.476663 
L 109.544727 73.478474 
L 112.791273 73.479699 
L 116.037818 73.480417 
L 119.284364 73.48087 
L 122.530909 72.604843 
L 125.777455 43.557915 
L 129.024 43.557738 
L 132.270545 43.557638 
L 135.517091 43.557584 
L 138.763636 43.557553 
L 142.010182 43.557537 
L 145.256727 43.557526 
L 148.503273 43.557522 
L 151.749818 43.557519 
L 154.996364 43.557517 
L 158.242909 43.557518 
L 161.489455 43.557519 
L 164.736 43.557519 
L 167.982545 43.55752 
L 171.229091 43.902512 
L 174.475636 61.53114 
L 177.722182 62.727394 
L 180.968727 63.965578 
L 184.215273 65.623239 
L 187.461818 67.623885 
L 190.708364 68.557361 
L 193.954909 70.942728 
L 197.201455 70.537046 
L 200.448 72.093706 
L 203.694545 72.62803 
L 206.941091 73.034328 
L 210.187636 73.095365 
L 213.434182 73.306359 
L 216.680727 73.387021 
L 219.927273 73.50866 
L 223.173818 73.43039 
L 226.420364 73.389805 
L 229.666909 73.41194 
L 232.913455 73.43993 
L 236.16 73.464155 
L 239.406545 73.47742 
L 242.653091 73.480082 
L 245.899636 73.478912 
L 249.146182 73.478378 
L 252.392727 73.478088 
L 255.639273 73.476401 
L 258.885818 73.477462 
L 262.132364 73.481183 
L 265.378909 73.481793 
L 268.625455 73.487279 
L 271.872 74.132015 
L 275.118545 74.07548 
L 278.365091 74.009769 
L 281.611636 73.944894 
L 284.858182 73.840574 
L 288.104727 73.768554 
L 291.351273 73.689984 
L 294.597818 73.631061 
L 297.844364 73.582112 
L 301.090909 73.546288 
L 304.337455 73.524003 
L 307.584 73.508211 
L 310.830545 73.498396 
L 314.077091 73.492124 
L 317.323636 73.488133 
L 320.570182 73.485871 
L 323.816727 73.484326 
L 327.063273 73.483289 
L 330.309818 73.482655 
L 333.556364 73.482323 
L 336.802909 73.482174 
L 340.049455 73.482074 
L 343.296 73.481919 
L 346.542545 73.481835 
L 349.789091 73.481764 
L 353.035636 73.481724 
L 356.282182 73.481698 
L 359.528727 73.481667 
L 362.775273 73.481648 
L 366.021818 73.481642 
L 369.268364 73.481648 
L 372.514909 73.481667 
L 375.761455 73.481672 
L 379.008 73.48167 
L 382.254545 73.481668 
L 385.501091 73.481667 
L 388.747636 73.481667 
L 391.994182 73.481668 
L 395.240727 73.481669 
L 398.487273 73.481671 
" clip-path="url(#pb47b25c153)" style="fill: none; stroke: #2ca02c; stroke-width: 1.5; stroke-linecap: square"/>
   </g>
   <g id="patch_3">
    <path d="M 57.6 87.353379 
L 57.6 41.472 
" style="fill: none; stroke: #000000; stroke-width: 0.8; stroke-linejoin: miter; stroke-linecap: square"/>
   </g>
   <g id="patch_4">
    <path d="M 414.72 87.353379 
L 414.72 41.472 
" style="fill: none; stroke: #000000; stroke-width: 0.8; stroke-linejoin: miter; stroke-linecap: square"/>
   </g>
   <g id="patch_5">
    <path d="M 57.6 87.353379 
L 414.72 87.353379 
" style="fill: none; stroke: #000000; stroke-width: 0.8; stroke-linejoin: miter; stroke-linecap: square"/>
   </g>
   <g id="patch_6">
    <path d="M 57.6 41.472 
L 414.72 41.472 
" style="fill: none; stroke: #000000; stroke-width: 0.8; stroke-linejoin: miter; stroke-linecap: square"/>
   </g>
   <g id="text_4">
    <!-- velocity vs time (container 1)   -->
    <g transform="translate(144.106875 35.472)scale(0.12 -0.12)">
     <defs>
      <path id="DejaVuSans-76" d="M 191 3500 
L 800 3500 
L 1894 563 
L 2988 3500 
L 3597 3500 
L 2284 0 
L 1503 0 
L 191 3500 
z
" transform="scale(0.015625)"/>
      <path id="DejaVuSans-63" d="M 3122 3366 
L 3122 2828 
Q 2878 2963 2633 3030 
Q 2388 3097 2138 3097 
Q 1578 3097 1268 2742 
Q 959 2388 959 1747 
Q 959 1106 1268 751 
Q 1578 397 2138 397 
Q 2388 397 2633 464 
Q 2878 531 3122 666 
L 3122 134 
Q 2881 22 2623 -34 
Q 2366 -91 2075 -91 
Q 1284 -91 818 406 
Q 353 903 353 1747 
Q 353 2603 823 3093 
Q 1294 3584 2113 3584 
Q 2378 3584 2631 3529 
Q 2884 3475 3122 3366 
z
" transform="scale(0.015625)"/>
      <path id="DejaVuSans-79" d="M 2059 -325 
Q 1816 -950 1584 -1140 
Q 1353 -1331 966 -1331 
L 506 -1331 
L 506 -850 
L 844 -850 
Q 1081 -850 1212 -737 
Q 1344 -625 1503 -206 
L 1606 56 
L 191 3500 
L 800 3500 
L 1894 763 
L 2988 3500 
L 3597 3500 
L 2059 -325 
z
" transform="scale(0.015625)"/>
      <path id="DejaVuSans-73" d="M 2834 3397 
L 2834 2853 
Q 2591 2978 2328 3040 
Q 2066 3103 1784 3103 
Q 1356 3103 1142 2972 
Q 928 2841 928 2578 
Q 928 2378 1081 2264 
Q 1234 2150 1697 2047 
L 1894 2003 
Q 2506 1872 2764 1633 
Q 3022 1394 3022 966 
Q 3022 478 2636 193 
Q 2250 -91 1575 -91 
Q 1294 -91 989 -36 
Q 684 19 347 128 
L 347 722 
Q 666 556 975 473 
Q 1284 391 1588 391 
Q 1994 391 2212 530 
Q 2431 669 2431 922 
Q 2431 1156 2273 1281 
Q 2116 1406 1581 1522 
L 1381 1569 
Q 847 1681 609 1914 
Q 372 2147 372 2553 
Q 372 3047 722 3315 
Q 1072 3584 1716 3584 
Q 2034 3584 2315 3537 
Q 2597 3491 2834 3397 
z
" transform="scale(0.015625)"/>
     </defs>
     <use xlink:href="#DejaVuSans-76"/>
     <use xlink:href="#DejaVuSans-65" x="59.179688"/>
     <use xlink:href="#DejaVuSans-6c" x="120.703125"/>
     <use xlink:href="#DejaVuSans-6f" x="148.486328"/>
     <use xlink:href="#DejaVuSans-63" x="209.667969"/>
     <use xlink:href="#DejaVuSans-69" x="264.648438"/>
     <use xlink:href="#DejaVuSans-74" x="292.431641"/>
     <use xlink:href="#DejaVuSans-79" x="331.640625"/>
     <use xlink:href="#DejaVuSans-20" x="390.820312"/>
     <use xlink:href="#DejaVuSans-76" x="422.607422"/>
     <use xlink:href="#DejaVuSans-73" x="481.787109"/>
     <use xlink:href="#DejaVuSans-20" x="533.886719"/>
     <use xlink:href="#DejaVuSans-74" x="565.673828"/>
     <use xlink:href="#DejaVuSans-69" x="604.882812"/>
     <use xlink:href="#DejaVuSans-6d" x="632.666016"/>
     <use xlink:href="#DejaVuSans-65" x="730.078125"/>
     <use xlink:href="#DejaVuSans-20" x="791.601562"/>
     <use xlink:href="#DejaVuSans-28" x="823.388672"/>
     <use xlink:href="#DejaVuSans-63" x="862.402344"/>
     <use xlink:href="#DejaVuSans-6f" x="917.382812"/>
     <use xlink:href="#DejaVuSans-6e" x="978.564453"/>
     <use xlink:href="#DejaVuSans-74" x="1041.943359"/>
     <use xlink:href="#DejaVuSans-61" x="1081.152344"/>
     <use xlink:href="#DejaVuSans-69" x="1142.431641"/>
     <use xlink:href="#DejaVuSans-6e" x="1170.214844"/>
     <use xlink:href="#DejaVuSans-65" x="1233.59375"/>
     <use xlink:href="#DejaVuSans-72" x="1295.117188"/>
     <use xlink:href="#DejaVuSans-20" x="1336.230469"/>
     <use xlink:href="#DejaVuSans-31" x="1368.017578"/>
     <use xlink:href="#DejaVuSans-29" x="1431.640625"/>
     <use xlink:href="#DejaVuSans-20" x="1470.654297"/>
     <use xlink:href="#DejaVuSans-20" x="1502.441406"/>
    </g>
   </g>
   <g id="legend_1">
    <g id="patch_7">
     <path d="M 64.6 93.506375 
L 139.240625 93.506375 
Q 141.240625 93.506375 141.240625 91.506375 
L 141.240625 48.472 
Q 141.240625 46.472 139.240625 46.472 
L 64.6 46.472 
Q 62.6 46.472 62.6 48.472 
L 62.6 91.506375 
Q 62.6 93.506375 64.6 93.506375 
z
" style="fill: #ffffff; opacity: 0.8; stroke: #cccccc; stroke-linejoin: miter"/>
    </g>
    <g id="line2d_12">
     <path d="M 66.6 54.570437 
L 76.6 54.570437 
L 86.6 54.570437 
" style="fill: none; stroke: #1f77b4; stroke-width: 1.5; stroke-linecap: square"/>
    </g>
    <g id="text_5">
     <!-- mid flow -->
     <g transform="translate(94.6 58.070437)scale(0.1 -0.1)">
      <use xlink:href="#DejaVuSans-6d"/>
      <use xlink:href="#DejaVuSans-69" x="97.412109"/>
      <use xlink:href="#DejaVuSans-64" x="125.195312"/>
      <use xlink:href="#DejaVuSans-20" x="188.671875"/>
      <use xlink:href="#DejaVuSans-66" x="220.458984"/>
      <use xlink:href="#DejaVuSans-6c" x="255.664062"/>
      <use xlink:href="#DejaVuSans-6f" x="283.447266"/>
      <use xlink:href="#DejaVuSans-77" x="344.628906"/>
     </g>
    </g>
    <g id="line2d_13">
     <path d="M 66.6 69.248562 
L 76.6 69.248562 
L 86.6 69.248562 
" style="fill: none; stroke: #ff7f0e; stroke-width: 1.5; stroke-linecap: square"/>
    </g>
    <g id="text_6">
     <!-- v0 flow -->
     <g transform="translate(94.6 72.748562)scale(0.1 -0.1)">
      <use xlink:href="#DejaVuSans-76"/>
      <use xlink:href="#DejaVuSans-30" x="59.179688"/>
      <use xlink:href="#DejaVuSans-20" x="122.802734"/>
      <use xlink:href="#DejaVuSans-66" x="154.589844"/>
      <use xlink:href="#DejaVuSans-6c" x="189.794922"/>
      <use xlink:href="#DejaVuSans-6f" x="217.578125"/>
      <use xlink:href="#DejaVuSans-77" x="278.759766"/>
     </g>
    </g>
    <g id="line2d_14">
     <path d="M 66.6 83.926687 
L 76.6 83.926687 
L 86.6 83.926687 
" style="fill: none; stroke: #2ca02c; stroke-width: 1.5; stroke-linecap: square"/>
    </g>
    <g id="text_7">
     <!-- vN flow -->
     <g transform="translate(94.6 87.426687)scale(0.1 -0.1)">
      <defs>
       <path id="DejaVuSans-4e" d="M 628 4666 
L 1478 4666 
L 3547 763 
L 3547 4666 
L 4159 4666 
L 4159 0 
L 3309 0 
L 1241 3903 
L 1241 0 
L 628 0 
L 628 4666 
z
" transform="scale(0.015625)"/>
      </defs>
      <use xlink:href="#DejaVuSans-76"/>
      <use xlink:href="#DejaVuSans-4e" x="59.179688"/>
      <use xlink:href="#DejaVuSans-20" x="133.984375"/>
      <use xlink:href="#DejaVuSans-66" x="165.771484"/>
      <use xlink:href="#DejaVuSans-6c" x="200.976562"/>
      <use xlink:href="#DejaVuSans-6f" x="228.759766"/>
      <use xlink:href="#DejaVuSans-77" x="289.941406"/>
     </g>
    </g>
   </g>
  </g>
  <g id="axes_2">
   <g id="patch_8">
    <path d="M 57.6 142.411034 
L 414.72 142.411034 
L 414.72 96.529655 
L 57.6 96.529655 
z
" style="fill: #ffffff"/>
   </g>
   <g id="matplotlib.axis_3">
    <g id="xtick_7">
     <g id="line2d_15">
      <g>
       <use xlink:href="#m313ea1dd9f" x="73.832727" y="142.411034" style="stroke: #000000; stroke-width: 0.8"/>
      </g>
     </g>
    </g>
    <g id="xtick_8">
     <g id="line2d_16">
      <g>
       <use xlink:href="#m313ea1dd9f" x="138.763636" y="142.411034" style="stroke: #000000; stroke-width: 0.8"/>
      </g>
     </g>
    </g>
    <g id="xtick_9">
     <g id="line2d_17">
      <g>
       <use xlink:href="#m313ea1dd9f" x="203.694545" y="142.411034" style="stroke: #000000; stroke-width: 0.8"/>
      </g>
     </g>
    </g>
    <g id="xtick_10">
     <g id="line2d_18">
      <g>
       <use xlink:href="#m313ea1dd9f" x="268.625455" y="142.411034" style="stroke: #000000; stroke-width: 0.8"/>
      </g>
     </g>
    </g>
    <g id="xtick_11">
     <g id="line2d_19">
      <g>
       <use xlink:href="#m313ea1dd9f" x="333.556364" y="142.411034" style="stroke: #000000; stroke-width: 0.8"/>
      </g>
     </g>
    </g>
    <g id="xtick_12">
     <g id="line2d_20">
      <g>
       <use xlink:href="#m313ea1dd9f" x="398.487273" y="142.411034" style="stroke: #000000; stroke-width: 0.8"/>
      </g>
     </g>
    </g>
   </g>
   <g id="matplotlib.axis_4">
    <g id="ytick_3">
     <g id="line2d_21">
      <g>
       <use xlink:href="#m5f59d43563" x="57.6" y="140.745253" style="stroke: #000000; stroke-width: 0.8"/>
      </g>
     </g>
     <g id="text_8">
      <!-- 0 -->
      <g transform="translate(44.2375 144.544472)scale(0.1 -0.1)">
       <use xlink:href="#DejaVuSans-30"/>
      </g>
     </g>
    </g>
    <g id="ytick_4">
     <g id="line2d_22">
      <g>
       <use xlink:href="#m5f59d43563" x="57.6" y="98.771642" style="stroke: #000000; stroke-width: 0.8"/>
      </g>
     </g>
     <g id="text_9">
      <!-- 1 -->
      <g transform="translate(44.2375 102.570861)scale(0.1 -0.1)">
       <use xlink:href="#DejaVuSans-31"/>
      </g>
     </g>
    </g>
   </g>
   <g id="line2d_23">
    <path d="M 73.832727 140.325517 
L 77.079273 123.978398 
L 80.325818 114.059172 
L 83.572364 108.040569 
L 86.818909 104.395541 
L 90.065455 102.187542 
L 93.312 100.846732 
L 96.558545 100.031671 
L 99.805091 99.547763 
L 103.051636 99.232984 
L 106.298182 99.052245 
L 109.544727 98.942213 
L 112.791273 98.874871 
L 116.037818 98.834644 
L 119.284364 98.810188 
L 122.530909 98.769707 
L 125.777455 98.615173 
L 129.024 98.615173 
L 132.270545 98.615173 
L 135.517091 98.615173 
L 138.763636 98.615172 
L 142.010182 98.615172 
L 145.256727 98.615172 
L 148.503273 98.615172 
L 151.749818 98.615172 
L 154.996364 98.615172 
L 158.242909 98.615172 
L 161.489455 98.615172 
L 164.736 98.615172 
L 167.982545 98.615172 
L 171.229091 98.64121 
L 174.475636 113.599793 
L 177.722182 122.622719 
L 180.968727 128.095134 
L 184.215273 131.408297 
L 187.461818 133.430025 
L 190.708364 134.657247 
L 193.954909 135.395875 
L 197.201455 135.857149 
L 200.448 136.124037 
L 203.694545 136.292429 
L 206.941091 136.389726 
L 210.187636 136.453185 
L 213.434182 136.491285 
L 216.680727 136.51399 
L 219.927273 136.526878 
L 223.173818 136.534455 
L 226.420364 136.539122 
L 229.666909 136.542268 
L 232.913455 136.544694 
L 236.16 136.546133 
L 239.406545 136.546832 
L 242.653091 136.54716 
L 245.899636 136.547504 
L 249.146182 136.547601 
L 252.392727 136.547682 
L 255.639273 136.547726 
L 258.885818 136.547786 
L 262.132364 136.54786 
L 265.378909 136.547873 
L 268.625455 136.548702 
L 271.872 138.034523 
L 275.118545 138.934252 
L 278.365091 139.480853 
L 281.611636 139.813207 
L 284.858182 140.013941 
L 288.104727 140.136658 
L 291.351273 140.21085 
L 294.597818 140.25589 
L 297.844364 140.283356 
L 301.090909 140.299918 
L 304.337455 140.309995 
L 307.584 140.316087 
L 310.830545 140.319793 
L 314.077091 140.322045 
L 317.323636 140.323395 
L 320.570182 140.324231 
L 323.816727 140.324739 
L 327.063273 140.325046 
L 330.309818 140.325231 
L 333.556364 140.325331 
L 336.802909 140.325411 
L 340.049455 140.325447 
L 343.296 140.325478 
L 346.542545 140.325491 
L 349.789091 140.325505 
L 353.035636 140.325507 
L 356.282182 140.325511 
L 359.528727 140.325511 
L 362.775273 140.325511 
L 366.021818 140.325512 
L 369.268364 140.325514 
L 372.514909 140.325516 
L 375.761455 140.325517 
L 379.008 140.325517 
L 382.254545 140.325517 
L 385.501091 140.325517 
L 388.747636 140.325517 
L 391.994182 140.325517 
L 395.240727 140.325517 
L 398.487273 140.325517 
" clip-path="url(#p888b3d45f4)" style="fill: none; stroke: #1f77b4; stroke-width: 1.5; stroke-linecap: square"/>
   </g>
   <g id="line2d_24">
    <path d="M 73.832727 140.325517 
L 77.079273 124.022719 
L 80.325818 114.075957 
L 83.572364 108.048877 
L 86.818909 104.400063 
L 90.065455 102.190186 
L 93.312 100.848274 
L 96.558545 100.03263 
L 99.805091 99.548376 
L 103.051636 99.23326 
L 106.298182 99.05244 
L 109.544727 98.942338 
L 112.791273 98.874948 
L 116.037818 98.834693 
L 119.284364 98.810219 
L 122.530909 98.783691 
L 125.777455 98.695341 
L 129.024 98.695341 
L 132.270545 98.695341 
L 135.517091 98.695341 
L 138.763636 98.69534 
L 142.010182 98.69534 
L 145.256727 98.69534 
L 148.503273 98.69534 
L 151.749818 98.69534 
L 154.996364 98.69534 
L 158.242909 98.69534 
L 161.489455 98.69534 
L 164.736 98.69534 
L 167.982545 98.69534 
L 171.229091 98.699697 
L 174.475636 113.609078 
L 177.722182 122.631075 
L 180.968727 128.102526 
L 184.215273 131.414387 
L 187.461818 133.43459 
L 190.708364 134.661055 
L 193.954909 135.397855 
L 197.201455 135.859444 
L 200.448 136.125117 
L 203.694545 136.293094 
L 206.941091 136.390074 
L 210.187636 136.453485 
L 213.434182 136.491422 
L 216.680727 136.514065 
L 219.927273 136.526861 
L 223.173818 136.534493 
L 226.420364 136.53919 
L 229.666909 136.54232 
L 232.913455 136.544726 
L 236.16 136.546147 
L 239.406545 136.546835 
L 242.653091 136.547161 
L 245.899636 136.547507 
L 249.146182 136.547604 
L 252.392727 136.547685 
L 255.639273 136.54773 
L 258.885818 136.547789 
L 262.132364 136.54786 
L 265.378909 136.547873 
L 268.625455 136.548011 
L 271.872 138.00907 
L 275.118545 138.910957 
L 278.365091 139.460065 
L 281.611636 139.794907 
L 284.858182 139.999955 
L 288.104727 140.125414 
L 291.351273 140.202729 
L 294.597818 140.250084 
L 297.844364 140.279492 
L 301.090909 140.297432 
L 304.337455 140.30838 
L 307.584 140.315078 
L 310.830545 140.319154 
L 314.077091 140.321649 
L 317.323636 140.32315 
L 320.570182 140.324071 
L 323.816727 140.324639 
L 327.063273 140.324985 
L 330.309818 140.325194 
L 333.556364 140.325306 
L 336.802909 140.325392 
L 340.049455 140.325432 
L 343.296 140.325468 
L 346.542545 140.325485 
L 349.789091 140.325502 
L 353.035636 140.325505 
L 356.282182 140.325509 
L 359.528727 140.325511 
L 362.775273 140.325512 
L 366.021818 140.325513 
L 369.268364 140.325514 
L 372.514909 140.325516 
L 375.761455 140.325516 
L 379.008 140.325517 
L 382.254545 140.325517 
L 385.501091 140.325517 
L 388.747636 140.325517 
L 391.994182 140.325517 
L 395.240727 140.325517 
L 398.487273 140.325517 
" clip-path="url(#p888b3d45f4)" style="fill: none; stroke: #ff7f0e; stroke-width: 1.5; stroke-linecap: square"/>
   </g>
   <g id="line2d_25">
    <path d="M 73.832727 140.325517 
L 77.079273 124.036504 
L 80.325818 114.081168 
L 83.572364 108.051456 
L 86.818909 104.401466 
L 90.065455 102.191006 
L 93.312 100.848753 
L 96.558545 100.032927 
L 99.805091 99.548567 
L 103.051636 99.233345 
L 106.298182 99.052501 
L 109.544727 98.942376 
L 112.791273 98.874972 
L 116.037818 98.834708 
L 119.284364 98.810229 
L 122.530909 98.788047 
L 125.777455 98.767623 
L 129.024 98.767622 
L 132.270545 98.767622 
L 135.517091 98.767622 
L 138.763636 98.767622 
L 142.010182 98.767622 
L 145.256727 98.767622 
L 148.503273 98.767622 
L 151.749818 98.767622 
L 154.996364 98.767622 
L 158.242909 98.767622 
L 161.489455 98.767622 
L 164.736 98.767622 
L 167.982545 98.767622 
L 171.229091 98.768905 
L 174.475636 113.631878 
L 177.722182 122.651594 
L 180.968727 128.12068 
L 184.215273 131.429366 
L 187.461818 133.445779 
L 190.708364 134.670433 
L 193.954909 135.402705 
L 197.201455 135.86507 
L 200.448 136.127766 
L 203.694545 136.294725 
L 206.941091 136.390929 
L 210.187636 136.454221 
L 213.434182 136.491756 
L 216.680727 136.514247 
L 219.927273 136.526813 
L 223.173818 136.53459 
L 226.420364 136.539362 
L 229.666909 136.542452 
L 232.913455 136.544806 
L 236.16 136.546181 
L 239.406545 136.546844 
L 242.653091 136.547164 
L 245.899636 136.547512 
L 249.146182 136.54761 
L 252.392727 136.547692 
L 255.639273 136.54774 
L 258.885818 136.547797 
L 262.132364 136.547861 
L 265.378909 136.547873 
L 268.625455 136.547924 
L 271.872 138.001202 
L 275.118545 138.903771 
L 278.365091 139.453671 
L 281.611636 139.789295 
L 284.858182 139.995617 
L 288.104727 140.121943 
L 291.351273 140.200211 
L 294.597818 140.248279 
L 297.844364 140.27828 
L 301.090909 140.296653 
L 304.337455 140.30787 
L 307.584 140.314758 
L 310.830545 140.318952 
L 314.077091 140.321523 
L 317.323636 140.323072 
L 320.570182 140.32402 
L 323.816727 140.324607 
L 327.063273 140.324966 
L 330.309818 140.325182 
L 333.556364 140.325298 
L 336.802909 140.325386 
L 340.049455 140.325427 
L 343.296 140.325465 
L 346.542545 140.325483 
L 349.789091 140.325501 
L 353.035636 140.325505 
L 356.282182 140.325509 
L 359.528727 140.325511 
L 362.775273 140.325512 
L 366.021818 140.325513 
L 369.268364 140.325515 
L 372.514909 140.325516 
L 375.761455 140.325516 
L 379.008 140.325517 
L 382.254545 140.325517 
L 385.501091 140.325517 
L 388.747636 140.325517 
L 391.994182 140.325517 
L 395.240727 140.325517 
L 398.487273 140.325517 
" clip-path="url(#p888b3d45f4)" style="fill: none; stroke: #2ca02c; stroke-width: 1.5; stroke-linecap: square"/>
   </g>
   <g id="patch_9">
    <path d="M 57.6 142.411034 
L 57.6 96.529655 
" style="fill: none; stroke: #000000; stroke-width: 0.8; stroke-linejoin: miter; stroke-linecap: square"/>
   </g>
   <g id="patch_10">
    <path d="M 414.72 142.411034 
L 414.72 96.529655 
" style="fill: none; stroke: #000000; stroke-width: 0.8; stroke-linejoin: miter; stroke-linecap: square"/>
   </g>
   <g id="patch_11">
    <path d="M 57.6 142.411034 
L 414.72 142.411034 
" style="fill: none; stroke: #000000; stroke-width: 0.8; stroke-linejoin: miter; stroke-linecap: square"/>
   </g>
   <g id="patch_12">
    <path d="M 57.6 96.529655 
L 414.72 96.529655 
" style="fill: none; stroke: #000000; stroke-width: 0.8; stroke-linejoin: miter; stroke-linecap: square"/>
   </g>
   <g id="text_10">
    <!-- Pressure -->
    <g transform="translate(210.546562 90.529655)scale(0.12 -0.12)">
     <defs>
      <path id="DejaVuSans-50" d="M 1259 4147 
L 1259 2394 
L 2053 2394 
Q 2494 2394 2734 2622 
Q 2975 2850 2975 3272 
Q 2975 3691 2734 3919 
Q 2494 4147 2053 4147 
L 1259 4147 
z
M 628 4666 
L 2053 4666 
Q 2838 4666 3239 4311 
Q 3641 3956 3641 3272 
Q 3641 2581 3239 2228 
Q 2838 1875 2053 1875 
L 1259 1875 
L 1259 0 
L 628 0 
L 628 4666 
z
" transform="scale(0.015625)"/>
      <path id="DejaVuSans-75" d="M 544 1381 
L 544 3500 
L 1119 3500 
L 1119 1403 
Q 1119 906 1312 657 
Q 1506 409 1894 409 
Q 2359 409 2629 706 
Q 2900 1003 2900 1516 
L 2900 3500 
L 3475 3500 
L 3475 0 
L 2900 0 
L 2900 538 
Q 2691 219 2414 64 
Q 2138 -91 1772 -91 
Q 1169 -91 856 284 
Q 544 659 544 1381 
z
M 1991 3584 
L 1991 3584 
z
" transform="scale(0.015625)"/>
     </defs>
     <use xlink:href="#DejaVuSans-50"/>
     <use xlink:href="#DejaVuSans-72" x="58.552734"/>
     <use xlink:href="#DejaVuSans-65" x="97.416016"/>
     <use xlink:href="#DejaVuSans-73" x="158.939453"/>
     <use xlink:href="#DejaVuSans-73" x="211.039062"/>
     <use xlink:href="#DejaVuSans-75" x="263.138672"/>
     <use xlink:href="#DejaVuSans-72" x="326.517578"/>
     <use xlink:href="#DejaVuSans-65" x="365.380859"/>
    </g>
   </g>
   <g id="legend_2">
    <g id="patch_13">
     <path d="M 350.823125 137.411034 
L 407.72 137.411034 
Q 409.72 137.411034 409.72 135.411034 
L 409.72 92.376659 
Q 409.72 90.376659 407.72 90.376659 
L 350.823125 90.376659 
Q 348.823125 90.376659 348.823125 92.376659 
L 348.823125 135.411034 
Q 348.823125 137.411034 350.823125 137.411034 
z
" style="fill: #ffffff; opacity: 0.8; stroke: #cccccc; stroke-linejoin: miter"/>
    </g>
    <g id="line2d_26">
     <path d="M 352.823125 98.475097 
L 362.823125 98.475097 
L 372.823125 98.475097 
" style="fill: none; stroke: #1f77b4; stroke-width: 1.5; stroke-linecap: square"/>
    </g>
    <g id="text_11">
     <!-- P1 -->
     <g transform="translate(380.823125 101.975097)scale(0.1 -0.1)">
      <use xlink:href="#DejaVuSans-50"/>
      <use xlink:href="#DejaVuSans-31" x="60.302734"/>
     </g>
    </g>
    <g id="line2d_27">
     <path d="M 352.823125 113.153222 
L 362.823125 113.153222 
L 372.823125 113.153222 
" style="fill: none; stroke: #ff7f0e; stroke-width: 1.5; stroke-linecap: square"/>
    </g>
    <g id="text_12">
     <!-- Pmid -->
     <g transform="translate(380.823125 116.653222)scale(0.1 -0.1)">
      <use xlink:href="#DejaVuSans-50"/>
      <use xlink:href="#DejaVuSans-6d" x="60.302734"/>
      <use xlink:href="#DejaVuSans-69" x="157.714844"/>
      <use xlink:href="#DejaVuSans-64" x="185.498047"/>
     </g>
    </g>
    <g id="line2d_28">
     <path d="M 352.823125 127.831347 
L 362.823125 127.831347 
L 372.823125 127.831347 
" style="fill: none; stroke: #2ca02c; stroke-width: 1.5; stroke-linecap: square"/>
    </g>
    <g id="text_13">
     <!-- PN -->
     <g transform="translate(380.823125 131.331347)scale(0.1 -0.1)">
      <use xlink:href="#DejaVuSans-50"/>
      <use xlink:href="#DejaVuSans-4e" x="60.302734"/>
     </g>
    </g>
   </g>
  </g>
  <g id="axes_3">
   <g id="patch_14">
    <path d="M 57.6 197.46869 
L 414.72 197.46869 
L 414.72 151.58731 
L 57.6 151.58731 
z
" style="fill: #ffffff"/>
   </g>
   <g id="matplotlib.axis_5">
    <g id="xtick_13">
     <g id="line2d_29">
      <g>
       <use xlink:href="#m313ea1dd9f" x="73.832727" y="197.46869" style="stroke: #000000; stroke-width: 0.8"/>
      </g>
     </g>
    </g>
    <g id="xtick_14">
     <g id="line2d_30">
      <g>
       <use xlink:href="#m313ea1dd9f" x="138.763636" y="197.46869" style="stroke: #000000; stroke-width: 0.8"/>
      </g>
     </g>
    </g>
    <g id="xtick_15">
     <g id="line2d_31">
      <g>
       <use xlink:href="#m313ea1dd9f" x="203.694545" y="197.46869" style="stroke: #000000; stroke-width: 0.8"/>
      </g>
     </g>
    </g>
    <g id="xtick_16">
     <g id="line2d_32">
      <g>
       <use xlink:href="#m313ea1dd9f" x="268.625455" y="197.46869" style="stroke: #000000; stroke-width: 0.8"/>
      </g>
     </g>
    </g>
    <g id="xtick_17">
     <g id="line2d_33">
      <g>
       <use xlink:href="#m313ea1dd9f" x="333.556364" y="197.46869" style="stroke: #000000; stroke-width: 0.8"/>
      </g>
     </g>
    </g>
    <g id="xtick_18">
     <g id="line2d_34">
      <g>
       <use xlink:href="#m313ea1dd9f" x="398.487273" y="197.46869" style="stroke: #000000; stroke-width: 0.8"/>
      </g>
     </g>
    </g>
   </g>
   <g id="matplotlib.axis_6">
    <g id="ytick_5">
     <g id="line2d_35">
      <g>
       <use xlink:href="#m5f59d43563" x="57.6" y="181.533265" style="stroke: #000000; stroke-width: 0.8"/>
      </g>
     </g>
     <g id="text_14">
      <!-- 0.1 -->
      <g transform="translate(34.696875 185.332484)scale(0.1 -0.1)">
       <defs>
        <path id="DejaVuSans-2e" d="M 684 794 
L 1344 794 
L 1344 0 
L 684 0 
L 684 794 
z
" transform="scale(0.015625)"/>
       </defs>
       <use xlink:href="#DejaVuSans-30"/>
       <use xlink:href="#DejaVuSans-2e" x="63.623047"/>
       <use xlink:href="#DejaVuSans-31" x="95.410156"/>
      </g>
     </g>
    </g>
    <g id="ytick_6">
     <g id="line2d_36">
      <g>
       <use xlink:href="#m5f59d43563" x="57.6" y="154.581085" style="stroke: #000000; stroke-width: 0.8"/>
      </g>
     </g>
     <g id="text_15">
      <!-- 0.2 -->
      <g transform="translate(34.696875 158.380304)scale(0.1 -0.1)">
       <defs>
        <path id="DejaVuSans-32" d="M 1228 531 
L 3431 531 
L 3431 0 
L 469 0 
L 469 531 
Q 828 903 1448 1529 
Q 2069 2156 2228 2338 
Q 2531 2678 2651 2914 
Q 2772 3150 2772 3378 
Q 2772 3750 2511 3984 
Q 2250 4219 1831 4219 
Q 1534 4219 1204 4116 
Q 875 4013 500 3803 
L 500 4441 
Q 881 4594 1212 4672 
Q 1544 4750 1819 4750 
Q 2544 4750 2975 4387 
Q 3406 4025 3406 3419 
Q 3406 3131 3298 2873 
Q 3191 2616 2906 2266 
Q 2828 2175 2409 1742 
Q 1991 1309 1228 531 
z
" transform="scale(0.015625)"/>
       </defs>
       <use xlink:href="#DejaVuSans-30"/>
       <use xlink:href="#DejaVuSans-2e" x="63.623047"/>
       <use xlink:href="#DejaVuSans-32" x="95.410156"/>
      </g>
     </g>
    </g>
    <g id="text_16">
     <!-- fraction -->
     <g transform="translate(28.617187 193.73425)rotate(-90)scale(0.1 -0.1)">
      <use xlink:href="#DejaVuSans-66"/>
      <use xlink:href="#DejaVuSans-72" x="35.205078"/>
      <use xlink:href="#DejaVuSans-61" x="76.318359"/>
      <use xlink:href="#DejaVuSans-63" x="137.597656"/>
      <use xlink:href="#DejaVuSans-74" x="192.578125"/>
      <use xlink:href="#DejaVuSans-69" x="231.787109"/>
      <use xlink:href="#DejaVuSans-6f" x="259.570312"/>
      <use xlink:href="#DejaVuSans-6e" x="320.751953"/>
     </g>
    </g>
   </g>
   <g id="line2d_37">
    <path d="M 73.832727 153.96788 
L 77.079273 195.100064 
L 80.325818 195.103582 
L 83.572364 195.115222 
L 86.818909 195.088259 
L 90.065455 195.060486 
L 93.312 194.984101 
L 96.558545 194.956902 
L 99.805091 194.957733 
L 103.051636 194.954761 
L 106.298182 194.881785 
L 109.544727 194.865327 
L 112.791273 194.902235 
L 116.037818 194.886134 
L 119.284364 194.882599 
L 122.530909 194.896509 
L 125.777455 195.009241 
L 129.024 195.009294 
L 132.270545 195.009322 
L 135.517091 195.009337 
L 138.763636 195.009346 
L 142.010182 195.00935 
L 145.256727 195.009353 
L 148.503273 195.009355 
L 151.749818 195.009355 
L 154.996364 195.009356 
L 158.242909 195.009355 
L 161.489455 195.009355 
L 164.736 195.009355 
L 167.982545 195.009355 
L 171.229091 195.009355 
L 174.475636 194.994189 
L 177.722182 194.933189 
L 180.968727 194.795027 
L 184.215273 194.550178 
L 187.461818 194.196288 
L 190.708364 193.772247 
L 193.954909 193.346217 
L 197.201455 192.976065 
L 200.448 192.690776 
L 203.694545 192.488628 
L 206.941091 192.347961 
L 210.187636 192.256787 
L 213.434182 192.197515 
L 216.680727 192.161288 
L 219.927273 192.138987 
L 223.173818 192.12634 
L 226.420364 192.1193 
L 229.666909 192.115464 
L 232.913455 192.113005 
L 236.16 192.111501 
L 239.406545 192.109867 
L 242.653091 192.108925 
L 245.899636 192.108051 
L 249.146182 192.107499 
L 252.392727 192.107092 
L 255.639273 192.106824 
L 258.885818 192.106708 
L 262.132364 192.106743 
L 265.378909 192.106788 
L 268.625455 192.106809 
L 271.872 191.113185 
L 275.118545 188.250833 
L 278.365091 183.942011 
L 281.611636 178.723425 
L 284.858182 173.229261 
L 288.104727 168.112267 
L 291.351273 163.828436 
L 294.597818 160.546998 
L 297.844364 158.20697 
L 301.090909 156.636048 
L 304.337455 155.625621 
L 307.584 154.984588 
L 310.830545 154.58772 
L 314.077091 154.339956 
L 317.323636 154.189068 
L 320.570182 154.096517 
L 323.816727 154.038774 
L 327.063273 154.002829 
L 330.309818 153.980682 
L 333.556364 153.968354 
L 336.802909 153.959126 
L 340.049455 153.954281 
L 343.296 153.949679 
L 346.542545 153.947041 
L 349.789091 153.944434 
L 353.035636 153.943125 
L 356.282182 153.941878 
L 359.528727 153.940864 
L 362.775273 153.939925 
L 366.021818 153.93906 
L 369.268364 153.938271 
L 372.514909 153.937556 
L 375.761455 153.936831 
L 379.008 153.936115 
L 382.254545 153.935435 
L 385.501091 153.934793 
L 388.747636 153.934188 
L 391.994182 153.933614 
L 395.240727 153.933021 
L 398.487273 153.932429 
" clip-path="url(#p71b5814118)" style="fill: none; stroke: #1f77b4; stroke-width: 1.5; stroke-linecap: square"/>
   </g>
   <g id="line2d_38">
    <path d="M 73.832727 153.71034 
L 77.079273 183.813048 
L 80.325818 189.531196 
L 83.572364 191.689143 
L 86.818909 192.793009 
L 90.065455 193.460704 
L 93.312 193.909588 
L 96.558545 194.234049 
L 99.805091 194.479791 
L 103.051636 194.687663 
L 106.298182 194.857323 
L 109.544727 194.996886 
L 112.791273 195.114634 
L 116.037818 195.215974 
L 119.284364 195.303579 
L 122.530909 195.383172 
L 125.777455 195.155331 
L 129.024 195.028443 
L 132.270545 195.020864 
L 135.517091 195.014153 
L 138.763636 195.012003 
L 142.010182 195.010819 
L 145.256727 195.009964 
L 148.503273 195.009509 
L 151.749818 195.009254 
L 154.996364 195.009088 
L 158.242909 195.009168 
L 161.489455 195.009238 
L 164.736 195.00928 
L 167.982545 195.009305 
L 171.229091 195.009326 
L 174.475636 194.99422 
L 177.722182 194.933117 
L 180.968727 194.7946 
L 184.215273 194.549062 
L 187.461818 194.19427 
L 190.708364 193.7694 
L 193.954909 193.343953 
L 197.201455 192.972759 
L 200.448 192.689792 
L 203.694545 192.488314 
L 206.941091 192.348481 
L 210.187636 192.257851 
L 213.434182 192.199011 
L 216.680727 192.163059 
L 219.927273 192.140906 
L 223.173818 192.128386 
L 226.420364 192.121399 
L 229.666909 192.117573 
L 232.913455 192.11512 
L 236.16 192.11361 
L 239.406545 192.111966 
L 242.653091 192.111038 
L 245.899636 192.110162 
L 249.146182 192.109537 
L 252.392727 192.109106 
L 255.639273 192.108904 
L 258.885818 192.108847 
L 262.132364 192.108934 
L 265.378909 192.108967 
L 268.625455 192.108965 
L 271.872 191.152506 
L 275.118545 188.347959 
L 278.365091 184.127843 
L 281.611636 179.026368 
L 284.858182 173.619933 
L 288.104727 168.55008 
L 291.351273 164.220789 
L 294.597818 160.837498 
L 297.844364 158.366429 
L 301.090909 156.666378 
L 304.337455 155.558191 
L 307.584 154.844567 
L 310.830545 154.396888 
L 314.077091 154.11701 
L 317.323636 153.945694 
L 320.570182 153.841138 
L 323.816727 153.776067 
L 327.063273 153.735493 
L 330.309818 153.710696 
L 333.556364 153.697356 
L 336.802909 153.688047 
L 340.049455 153.683569 
L 343.296 153.679239 
L 346.542545 153.677099 
L 349.789091 153.674918 
L 353.035636 153.674194 
L 356.282182 153.673588 
L 359.528727 153.67321 
L 362.775273 153.672957 
L 366.021818 153.67283 
L 369.268364 153.672828 
L 372.514909 153.672951 
L 375.761455 153.672986 
L 379.008 153.672982 
L 382.254545 153.673008 
L 385.501091 153.673066 
L 388.747636 153.673154 
L 391.994182 153.673266 
L 395.240727 153.673342 
L 398.487273 153.673404 
" clip-path="url(#p71b5814118)" style="fill: none; stroke: #ff7f0e; stroke-width: 1.5; stroke-linecap: square"/>
   </g>
   <g id="patch_15">
    <path d="M 57.6 197.46869 
L 57.6 151.58731 
" style="fill: none; stroke: #000000; stroke-width: 0.8; stroke-linejoin: miter; stroke-linecap: square"/>
   </g>
   <g id="patch_16">
    <path d="M 414.72 197.46869 
L 414.72 151.58731 
" style="fill: none; stroke: #000000; stroke-width: 0.8; stroke-linejoin: miter; stroke-linecap: square"/>
   </g>
   <g id="patch_17">
    <path d="M 57.6 197.46869 
L 414.72 197.46869 
" style="fill: none; stroke: #000000; stroke-width: 0.8; stroke-linejoin: miter; stroke-linecap: square"/>
   </g>
   <g id="patch_18">
    <path d="M 57.6 151.58731 
L 414.72 151.58731 
" style="fill: none; stroke: #000000; stroke-width: 0.8; stroke-linejoin: miter; stroke-linecap: square"/>
   </g>
   <g id="text_17">
    <!-- yA -->
    <g transform="translate(228.504375 145.58731)scale(0.12 -0.12)">
     <defs>
      <path id="DejaVuSans-41" d="M 2188 4044 
L 1331 1722 
L 3047 1722 
L 2188 4044 
z
M 1831 4666 
L 2547 4666 
L 4325 0 
L 3669 0 
L 3244 1197 
L 1141 1197 
L 716 0 
L 50 0 
L 1831 4666 
z
" transform="scale(0.015625)"/>
     </defs>
     <use xlink:href="#DejaVuSans-79"/>
     <use xlink:href="#DejaVuSans-41" x="59.179688"/>
    </g>
   </g>
   <g id="legend_3">
    <g id="patch_19">
     <path d="M 330.030938 188.94356 
L 407.72 188.94356 
Q 409.72 188.94356 409.72 186.94356 
L 409.72 158.58731 
Q 409.72 156.58731 407.72 156.58731 
L 330.030938 156.58731 
Q 328.030938 156.58731 328.030938 158.58731 
L 328.030938 186.94356 
Q 328.030938 188.94356 330.030938 188.94356 
z
" style="fill: #ffffff; opacity: 0.8; stroke: #cccccc; stroke-linejoin: miter"/>
    </g>
    <g id="line2d_39">
     <path d="M 332.030938 164.685748 
L 342.030938 164.685748 
L 352.030938 164.685748 
" style="fill: none; stroke: #1f77b4; stroke-width: 1.5; stroke-linecap: square"/>
    </g>
    <g id="text_18">
     <!-- yA0 (in) -->
     <g transform="translate(360.030938 168.185748)scale(0.1 -0.1)">
      <use xlink:href="#DejaVuSans-79"/>
      <use xlink:href="#DejaVuSans-41" x="59.179688"/>
      <use xlink:href="#DejaVuSans-30" x="127.587891"/>
      <use xlink:href="#DejaVuSans-20" x="191.210938"/>
      <use xlink:href="#DejaVuSans-28" x="222.998047"/>
      <use xlink:href="#DejaVuSans-69" x="262.011719"/>
      <use xlink:href="#DejaVuSans-6e" x="289.794922"/>
      <use xlink:href="#DejaVuSans-29" x="353.173828"/>
     </g>
    </g>
    <g id="line2d_40">
     <path d="M 332.030938 179.363873 
L 342.030938 179.363873 
L 352.030938 179.363873 
" style="fill: none; stroke: #ff7f0e; stroke-width: 1.5; stroke-linecap: square"/>
    </g>
    <g id="text_19">
     <!-- yAL (out) -->
     <g transform="translate(360.030938 182.863873)scale(0.1 -0.1)">
      <defs>
       <path id="DejaVuSans-4c" d="M 628 4666 
L 1259 4666 
L 1259 531 
L 3531 531 
L 3531 0 
L 628 0 
L 628 4666 
z
" transform="scale(0.015625)"/>
      </defs>
      <use xlink:href="#DejaVuSans-79"/>
      <use xlink:href="#DejaVuSans-41" x="59.179688"/>
      <use xlink:href="#DejaVuSans-4c" x="127.587891"/>
      <use xlink:href="#DejaVuSans-20" x="183.300781"/>
      <use xlink:href="#DejaVuSans-28" x="215.087891"/>
      <use xlink:href="#DejaVuSans-6f" x="254.101562"/>
      <use xlink:href="#DejaVuSans-75" x="315.283203"/>
      <use xlink:href="#DejaVuSans-74" x="378.662109"/>
      <use xlink:href="#DejaVuSans-29" x="417.871094"/>
     </g>
    </g>
   </g>
  </g>
  <g id="axes_4">
   <g id="patch_20">
    <path d="M 57.6 252.526345 
L 414.72 252.526345 
L 414.72 206.644966 
L 57.6 206.644966 
z
" style="fill: #ffffff"/>
   </g>
   <g id="matplotlib.axis_7">
    <g id="xtick_19">
     <g id="line2d_41">
      <g>
       <use xlink:href="#m313ea1dd9f" x="73.832727" y="252.526345" style="stroke: #000000; stroke-width: 0.8"/>
      </g>
     </g>
    </g>
    <g id="xtick_20">
     <g id="line2d_42">
      <g>
       <use xlink:href="#m313ea1dd9f" x="138.763636" y="252.526345" style="stroke: #000000; stroke-width: 0.8"/>
      </g>
     </g>
    </g>
    <g id="xtick_21">
     <g id="line2d_43">
      <g>
       <use xlink:href="#m313ea1dd9f" x="203.694545" y="252.526345" style="stroke: #000000; stroke-width: 0.8"/>
      </g>
     </g>
    </g>
    <g id="xtick_22">
     <g id="line2d_44">
      <g>
       <use xlink:href="#m313ea1dd9f" x="268.625455" y="252.526345" style="stroke: #000000; stroke-width: 0.8"/>
      </g>
     </g>
    </g>
    <g id="xtick_23">
     <g id="line2d_45">
      <g>
       <use xlink:href="#m313ea1dd9f" x="333.556364" y="252.526345" style="stroke: #000000; stroke-width: 0.8"/>
      </g>
     </g>
    </g>
    <g id="xtick_24">
     <g id="line2d_46">
      <g>
       <use xlink:href="#m313ea1dd9f" x="398.487273" y="252.526345" style="stroke: #000000; stroke-width: 0.8"/>
      </g>
     </g>
    </g>
   </g>
   <g id="matplotlib.axis_8">
    <g id="ytick_7">
     <g id="line2d_47">
      <g>
       <use xlink:href="#m5f59d43563" x="57.6" y="237.418783" style="stroke: #000000; stroke-width: 0.8"/>
      </g>
     </g>
     <g id="text_20">
      <!-- 0.8 -->
      <g transform="translate(34.696875 241.218002)scale(0.1 -0.1)">
       <defs>
        <path id="DejaVuSans-38" d="M 2034 2216 
Q 1584 2216 1326 1975 
Q 1069 1734 1069 1313 
Q 1069 891 1326 650 
Q 1584 409 2034 409 
Q 2484 409 2743 651 
Q 3003 894 3003 1313 
Q 3003 1734 2745 1975 
Q 2488 2216 2034 2216 
z
M 1403 2484 
Q 997 2584 770 2862 
Q 544 3141 544 3541 
Q 544 4100 942 4425 
Q 1341 4750 2034 4750 
Q 2731 4750 3128 4425 
Q 3525 4100 3525 3541 
Q 3525 3141 3298 2862 
Q 3072 2584 2669 2484 
Q 3125 2378 3379 2068 
Q 3634 1759 3634 1313 
Q 3634 634 3220 271 
Q 2806 -91 2034 -91 
Q 1263 -91 848 271 
Q 434 634 434 1313 
Q 434 1759 690 2068 
Q 947 2378 1403 2484 
z
M 1172 3481 
Q 1172 3119 1398 2916 
Q 1625 2713 2034 2713 
Q 2441 2713 2670 2916 
Q 2900 3119 2900 3481 
Q 2900 3844 2670 4047 
Q 2441 4250 2034 4250 
Q 1625 4250 1398 4047 
Q 1172 3844 1172 3481 
z
" transform="scale(0.015625)"/>
       </defs>
       <use xlink:href="#DejaVuSans-30"/>
       <use xlink:href="#DejaVuSans-2e" x="63.623047"/>
       <use xlink:href="#DejaVuSans-38" x="95.410156"/>
      </g>
     </g>
    </g>
    <g id="ytick_8">
     <g id="line2d_48">
      <g>
       <use xlink:href="#m5f59d43563" x="57.6" y="209.104671" style="stroke: #000000; stroke-width: 0.8"/>
      </g>
     </g>
     <g id="text_21">
      <!-- 0.9 -->
      <g transform="translate(34.696875 212.90389)scale(0.1 -0.1)">
       <defs>
        <path id="DejaVuSans-39" d="M 703 97 
L 703 672 
Q 941 559 1184 500 
Q 1428 441 1663 441 
Q 2288 441 2617 861 
Q 2947 1281 2994 2138 
Q 2813 1869 2534 1725 
Q 2256 1581 1919 1581 
Q 1219 1581 811 2004 
Q 403 2428 403 3163 
Q 403 3881 828 4315 
Q 1253 4750 1959 4750 
Q 2769 4750 3195 4129 
Q 3622 3509 3622 2328 
Q 3622 1225 3098 567 
Q 2575 -91 1691 -91 
Q 1453 -91 1209 -44 
Q 966 3 703 97 
z
M 1959 2075 
Q 2384 2075 2632 2365 
Q 2881 2656 2881 3163 
Q 2881 3666 2632 3958 
Q 2384 4250 1959 4250 
Q 1534 4250 1286 3958 
Q 1038 3666 1038 3163 
Q 1038 2656 1286 2365 
Q 1534 2075 1959 2075 
z
" transform="scale(0.015625)"/>
       </defs>
       <use xlink:href="#DejaVuSans-30"/>
       <use xlink:href="#DejaVuSans-2e" x="63.623047"/>
       <use xlink:href="#DejaVuSans-39" x="95.410156"/>
      </g>
     </g>
    </g>
    <g id="text_22">
     <!-- fraction -->
     <g transform="translate(28.617187 248.791905)rotate(-90)scale(0.1 -0.1)">
      <use xlink:href="#DejaVuSans-66"/>
      <use xlink:href="#DejaVuSans-72" x="35.205078"/>
      <use xlink:href="#DejaVuSans-61" x="76.318359"/>
      <use xlink:href="#DejaVuSans-63" x="137.597656"/>
      <use xlink:href="#DejaVuSans-74" x="192.578125"/>
      <use xlink:href="#DejaVuSans-69" x="231.787109"/>
      <use xlink:href="#DejaVuSans-6f" x="259.570312"/>
      <use xlink:href="#DejaVuSans-6e" x="320.751953"/>
     </g>
    </g>
   </g>
   <g id="line2d_49">
    <path d="M 73.832727 250.146522 
L 77.079273 209.014105 
L 80.325818 209.010623 
L 83.572364 208.999011 
L 86.818909 209.02595 
L 90.065455 209.053692 
L 93.312 209.129977 
L 96.558545 209.157135 
L 99.805091 209.156307 
L 103.051636 209.159274 
L 106.298182 209.232122 
L 109.544727 209.248574 
L 112.791273 209.211754 
L 116.037818 209.227815 
L 119.284364 209.231342 
L 122.530909 209.21746 
L 125.777455 209.104783 
L 129.024 209.104731 
L 132.270545 209.104703 
L 135.517091 209.104688 
L 138.763636 209.10468 
L 142.010182 209.104675 
L 145.256727 209.104672 
L 148.503273 209.104671 
L 151.749818 209.10467 
L 154.996364 209.10467 
L 158.242909 209.10467 
L 161.489455 209.10467 
L 164.736 209.104671 
L 167.982545 209.104671 
L 171.229091 209.104671 
L 174.475636 209.119767 
L 177.722182 209.180495 
L 180.968727 209.318084 
L 184.215273 209.562005 
L 187.461818 209.914723 
L 190.708364 210.337605 
L 193.954909 210.762767 
L 197.201455 211.13245 
L 200.448 211.417628 
L 203.694545 211.619873 
L 206.941091 211.760724 
L 210.187636 211.852105 
L 213.434182 211.911556 
L 216.680727 211.947929 
L 219.927273 211.970341 
L 223.173818 211.983066 
L 226.420364 211.990159 
L 229.666909 211.994026 
L 232.913455 211.9965 
L 236.16 211.998011 
L 239.406545 211.999649 
L 242.653091 212.000594 
L 245.899636 212.001473 
L 249.146182 212.002028 
L 252.392727 212.002438 
L 255.639273 212.002709 
L 258.885818 212.002826 
L 262.132364 212.002793 
L 265.378909 212.002749 
L 268.625455 212.002729 
L 271.872 212.99241 
L 275.118545 215.846946 
L 278.365091 220.149588 
L 281.611636 225.365729 
L 284.858182 230.86071 
L 288.104727 235.980389 
L 291.351273 240.267685 
L 294.597818 243.552792 
L 297.844364 245.896227 
L 301.090909 247.470082 
L 304.337455 248.482883 
L 307.584 249.12568 
L 310.830545 249.523829 
L 314.077091 249.772468 
L 317.323636 249.923949 
L 320.570182 250.016893 
L 323.816727 250.074894 
L 327.063273 250.111012 
L 330.309818 250.133277 
L 333.556364 250.145677 
L 336.802909 250.154955 
L 340.049455 250.159829 
L 343.296 250.164455 
L 346.542545 250.167111 
L 349.789091 250.169737 
L 353.035636 250.171058 
L 356.282182 250.172316 
L 359.528727 250.173338 
L 362.775273 250.174284 
L 366.021818 250.175155 
L 369.268364 250.175949 
L 372.514909 250.176668 
L 375.761455 250.177397 
L 379.008 250.178117 
L 382.254545 250.178799 
L 385.501091 250.179444 
L 388.747636 250.180051 
L 391.994182 250.180627 
L 395.240727 250.181221 
L 398.487273 250.181814 
" clip-path="url(#p095bf0f9bd)" style="fill: none; stroke: #1f77b4; stroke-width: 1.5; stroke-linecap: square"/>
   </g>
   <g id="line2d_50">
    <path d="M 73.832727 250.403489 
L 77.079273 220.311925 
L 80.325818 214.589641 
L 83.572364 212.429227 
L 86.818909 211.323769 
L 90.065455 210.65502 
L 93.312 210.205433 
L 96.558545 209.880504 
L 99.805091 209.634456 
L 103.051636 209.426353 
L 106.298182 209.256539 
L 109.544727 209.11688 
L 112.791273 208.999074 
L 116.037818 208.897701 
L 119.284364 208.810081 
L 122.530909 208.730483 
L 125.777455 208.959344 
L 129.024 209.085831 
L 132.270545 209.093298 
L 135.517091 209.099945 
L 138.763636 209.10206 
L 142.010182 209.103226 
L 145.256727 209.104069 
L 148.503273 209.104518 
L 151.749818 209.10477 
L 154.996364 209.104934 
L 158.242909 209.104855 
L 161.489455 209.104786 
L 164.736 209.104745 
L 167.982545 209.10472 
L 171.229091 209.104699 
L 174.475636 209.119735 
L 177.722182 209.180567 
L 180.968727 209.318508 
L 184.215273 209.563116 
L 187.461818 209.916732 
L 190.708364 210.340444 
L 193.954909 210.765028 
L 197.201455 211.135749 
L 200.448 211.418615 
L 203.694545 211.620189 
L 206.941091 211.760208 
L 210.187636 211.851046 
L 213.434182 211.910065 
L 216.680727 211.946163 
L 219.927273 211.968426 
L 223.173818 211.981026 
L 226.420364 211.988063 
L 229.666909 211.99192 
L 232.913455 211.994389 
L 236.16 211.995906 
L 239.406545 211.997557 
L 242.653091 211.998492 
L 245.899636 211.99937 
L 249.146182 211.999978 
L 252.392727 212.000407 
L 255.639273 212.000634 
L 258.885818 212.000717 
L 262.132364 212.000657 
L 265.378909 212.000629 
L 268.625455 212.000627 
L 271.872 212.953281 
L 275.118545 215.750154 
L 278.365091 219.964261 
L 281.611636 225.06351 
L 284.858182 230.470871 
L 288.104727 235.543501 
L 291.351273 239.876093 
L 294.597818 243.262781 
L 297.844364 245.73692 
L 301.090909 247.439602 
L 304.337455 248.54999 
L 307.584 249.265271 
L 310.830545 249.714173 
L 314.077091 249.994908 
L 317.323636 250.166811 
L 320.570182 250.271762 
L 323.816727 250.337092 
L 327.063273 250.377836 
L 330.309818 250.402748 
L 333.556364 250.416156 
L 336.802909 250.425513 
L 340.049455 250.430017 
L 343.296 250.434365 
L 346.542545 250.436518 
L 349.789091 250.438713 
L 353.035636 250.439444 
L 356.282182 250.440057 
L 359.528727 250.440438 
L 362.775273 250.440694 
L 366.021818 250.440824 
L 369.268364 250.440828 
L 372.514909 250.440706 
L 375.761455 250.440671 
L 379.008 250.440676 
L 382.254545 250.440649 
L 385.501091 250.440591 
L 388.747636 250.440501 
L 391.994182 250.440387 
L 395.240727 250.440311 
L 398.487273 250.440247 
" clip-path="url(#p095bf0f9bd)" style="fill: none; stroke: #ff7f0e; stroke-width: 1.5; stroke-linecap: square"/>
   </g>
   <g id="patch_21">
    <path d="M 57.6 252.526345 
L 57.6 206.644966 
" style="fill: none; stroke: #000000; stroke-width: 0.8; stroke-linejoin: miter; stroke-linecap: square"/>
   </g>
   <g id="patch_22">
    <path d="M 414.72 252.526345 
L 414.72 206.644966 
" style="fill: none; stroke: #000000; stroke-width: 0.8; stroke-linejoin: miter; stroke-linecap: square"/>
   </g>
   <g id="patch_23">
    <path d="M 57.6 252.526345 
L 414.72 252.526345 
" style="fill: none; stroke: #000000; stroke-width: 0.8; stroke-linejoin: miter; stroke-linecap: square"/>
   </g>
   <g id="patch_24">
    <path d="M 57.6 206.644966 
L 414.72 206.644966 
" style="fill: none; stroke: #000000; stroke-width: 0.8; stroke-linejoin: miter; stroke-linecap: square"/>
   </g>
   <g id="text_23">
    <!-- yB -->
    <g transform="translate(228.492188 200.644966)scale(0.12 -0.12)">
     <defs>
      <path id="DejaVuSans-42" d="M 1259 2228 
L 1259 519 
L 2272 519 
Q 2781 519 3026 730 
Q 3272 941 3272 1375 
Q 3272 1813 3026 2020 
Q 2781 2228 2272 2228 
L 1259 2228 
z
M 1259 4147 
L 1259 2741 
L 2194 2741 
Q 2656 2741 2882 2914 
Q 3109 3088 3109 3444 
Q 3109 3797 2882 3972 
Q 2656 4147 2194 4147 
L 1259 4147 
z
M 628 4666 
L 2241 4666 
Q 2963 4666 3353 4366 
Q 3744 4066 3744 3513 
Q 3744 3084 3544 2831 
Q 3344 2578 2956 2516 
Q 3422 2416 3680 2098 
Q 3938 1781 3938 1306 
Q 3938 681 3513 340 
Q 3088 0 2303 0 
L 628 0 
L 628 4666 
z
" transform="scale(0.015625)"/>
     </defs>
     <use xlink:href="#DejaVuSans-79"/>
     <use xlink:href="#DejaVuSans-42" x="59.179688"/>
    </g>
   </g>
   <g id="legend_4">
    <g id="patch_25">
     <path d="M 330.010625 244.001216 
L 407.72 244.001216 
Q 409.72 244.001216 409.72 242.001216 
L 409.72 213.644966 
Q 409.72 211.644966 407.72 211.644966 
L 330.010625 211.644966 
Q 328.010625 211.644966 328.010625 213.644966 
L 328.010625 242.001216 
Q 328.010625 244.001216 330.010625 244.001216 
z
" style="fill: #ffffff; opacity: 0.8; stroke: #cccccc; stroke-linejoin: miter"/>
    </g>
    <g id="line2d_51">
     <path d="M 332.010625 219.743403 
L 342.010625 219.743403 
L 352.010625 219.743403 
" style="fill: none; stroke: #1f77b4; stroke-width: 1.5; stroke-linecap: square"/>
    </g>
    <g id="text_24">
     <!-- yB0 (in) -->
     <g transform="translate(360.010625 223.243403)scale(0.1 -0.1)">
      <use xlink:href="#DejaVuSans-79"/>
      <use xlink:href="#DejaVuSans-42" x="59.179688"/>
      <use xlink:href="#DejaVuSans-30" x="127.783203"/>
      <use xlink:href="#DejaVuSans-20" x="191.40625"/>
      <use xlink:href="#DejaVuSans-28" x="223.193359"/>
      <use xlink:href="#DejaVuSans-69" x="262.207031"/>
      <use xlink:href="#DejaVuSans-6e" x="289.990234"/>
      <use xlink:href="#DejaVuSans-29" x="353.369141"/>
     </g>
    </g>
    <g id="line2d_52">
     <path d="M 332.010625 234.421528 
L 342.010625 234.421528 
L 352.010625 234.421528 
" style="fill: none; stroke: #ff7f0e; stroke-width: 1.5; stroke-linecap: square"/>
    </g>
    <g id="text_25">
     <!-- yBL (out) -->
     <g transform="translate(360.010625 237.921528)scale(0.1 -0.1)">
      <use xlink:href="#DejaVuSans-79"/>
      <use xlink:href="#DejaVuSans-42" x="59.179688"/>
      <use xlink:href="#DejaVuSans-4c" x="127.783203"/>
      <use xlink:href="#DejaVuSans-20" x="183.496094"/>
      <use xlink:href="#DejaVuSans-28" x="215.283203"/>
      <use xlink:href="#DejaVuSans-6f" x="254.296875"/>
      <use xlink:href="#DejaVuSans-75" x="315.478516"/>
      <use xlink:href="#DejaVuSans-74" x="378.857422"/>
      <use xlink:href="#DejaVuSans-29" x="418.066406"/>
     </g>
    </g>
   </g>
  </g>
  <g id="axes_5">
   <g id="patch_26">
    <path d="M 57.6 307.584 
L 414.72 307.584 
L 414.72 261.702621 
L 57.6 261.702621 
z
" style="fill: #ffffff"/>
   </g>
   <g id="matplotlib.axis_9">
    <g id="xtick_25">
     <g id="line2d_53">
      <g>
       <use xlink:href="#m313ea1dd9f" x="73.832727" y="307.584" style="stroke: #000000; stroke-width: 0.8"/>
      </g>
     </g>
     <g id="text_26">
      <!-- 0 -->
      <g transform="translate(70.651477 322.182437)scale(0.1 -0.1)">
       <use xlink:href="#DejaVuSans-30"/>
      </g>
     </g>
    </g>
    <g id="xtick_26">
     <g id="line2d_54">
      <g>
       <use xlink:href="#m313ea1dd9f" x="138.763636" y="307.584" style="stroke: #000000; stroke-width: 0.8"/>
      </g>
     </g>
     <g id="text_27">
      <!-- 20 -->
      <g transform="translate(132.401136 322.182437)scale(0.1 -0.1)">
       <use xlink:href="#DejaVuSans-32"/>
       <use xlink:href="#DejaVuSans-30" x="63.623047"/>
      </g>
     </g>
    </g>
    <g id="xtick_27">
     <g id="line2d_55">
      <g>
       <use xlink:href="#m313ea1dd9f" x="203.694545" y="307.584" style="stroke: #000000; stroke-width: 0.8"/>
      </g>
     </g>
     <g id="text_28">
      <!-- 40 -->
      <g transform="translate(197.332045 322.182437)scale(0.1 -0.1)">
       <defs>
        <path id="DejaVuSans-34" d="M 2419 4116 
L 825 1625 
L 2419 1625 
L 2419 4116 
z
M 2253 4666 
L 3047 4666 
L 3047 1625 
L 3713 1625 
L 3713 1100 
L 3047 1100 
L 3047 0 
L 2419 0 
L 2419 1100 
L 313 1100 
L 313 1709 
L 2253 4666 
z
" transform="scale(0.015625)"/>
       </defs>
       <use xlink:href="#DejaVuSans-34"/>
       <use xlink:href="#DejaVuSans-30" x="63.623047"/>
      </g>
     </g>
    </g>
    <g id="xtick_28">
     <g id="line2d_56">
      <g>
       <use xlink:href="#m313ea1dd9f" x="268.625455" y="307.584" style="stroke: #000000; stroke-width: 0.8"/>
      </g>
     </g>
     <g id="text_29">
      <!-- 60 -->
      <g transform="translate(262.262955 322.182437)scale(0.1 -0.1)">
       <defs>
        <path id="DejaVuSans-36" d="M 2113 2584 
Q 1688 2584 1439 2293 
Q 1191 2003 1191 1497 
Q 1191 994 1439 701 
Q 1688 409 2113 409 
Q 2538 409 2786 701 
Q 3034 994 3034 1497 
Q 3034 2003 2786 2293 
Q 2538 2584 2113 2584 
z
M 3366 4563 
L 3366 3988 
Q 3128 4100 2886 4159 
Q 2644 4219 2406 4219 
Q 1781 4219 1451 3797 
Q 1122 3375 1075 2522 
Q 1259 2794 1537 2939 
Q 1816 3084 2150 3084 
Q 2853 3084 3261 2657 
Q 3669 2231 3669 1497 
Q 3669 778 3244 343 
Q 2819 -91 2113 -91 
Q 1303 -91 875 529 
Q 447 1150 447 2328 
Q 447 3434 972 4092 
Q 1497 4750 2381 4750 
Q 2619 4750 2861 4703 
Q 3103 4656 3366 4563 
z
" transform="scale(0.015625)"/>
       </defs>
       <use xlink:href="#DejaVuSans-36"/>
       <use xlink:href="#DejaVuSans-30" x="63.623047"/>
      </g>
     </g>
    </g>
    <g id="xtick_29">
     <g id="line2d_57">
      <g>
       <use xlink:href="#m313ea1dd9f" x="333.556364" y="307.584" style="stroke: #000000; stroke-width: 0.8"/>
      </g>
     </g>
     <g id="text_30">
      <!-- 80 -->
      <g transform="translate(327.193864 322.182437)scale(0.1 -0.1)">
       <use xlink:href="#DejaVuSans-38"/>
       <use xlink:href="#DejaVuSans-30" x="63.623047"/>
      </g>
     </g>
    </g>
    <g id="xtick_30">
     <g id="line2d_58">
      <g>
       <use xlink:href="#m313ea1dd9f" x="398.487273" y="307.584" style="stroke: #000000; stroke-width: 0.8"/>
      </g>
     </g>
     <g id="text_31">
      <!-- 100 -->
      <g transform="translate(388.943523 322.182437)scale(0.1 -0.1)">
       <use xlink:href="#DejaVuSans-31"/>
       <use xlink:href="#DejaVuSans-30" x="63.623047"/>
       <use xlink:href="#DejaVuSans-30" x="127.246094"/>
      </g>
     </g>
    </g>
    <g id="text_32">
     <!-- time (normalized) -->
     <g transform="translate(191.589687 335.860562)scale(0.1 -0.1)">
      <use xlink:href="#DejaVuSans-74"/>
      <use xlink:href="#DejaVuSans-69" x="39.208984"/>
      <use xlink:href="#DejaVuSans-6d" x="66.992188"/>
      <use xlink:href="#DejaVuSans-65" x="164.404297"/>
      <use xlink:href="#DejaVuSans-20" x="225.927734"/>
      <use xlink:href="#DejaVuSans-28" x="257.714844"/>
      <use xlink:href="#DejaVuSans-6e" x="296.728516"/>
      <use xlink:href="#DejaVuSans-6f" x="360.107422"/>
      <use xlink:href="#DejaVuSans-72" x="421.289062"/>
      <use xlink:href="#DejaVuSans-6d" x="460.652344"/>
      <use xlink:href="#DejaVuSans-61" x="558.064453"/>
      <use xlink:href="#DejaVuSans-6c" x="619.34375"/>
      <use xlink:href="#DejaVuSans-69" x="647.126953"/>
      <use xlink:href="#DejaVuSans-7a" x="674.910156"/>
      <use xlink:href="#DejaVuSans-65" x="727.400391"/>
      <use xlink:href="#DejaVuSans-64" x="788.923828"/>
      <use xlink:href="#DejaVuSans-29" x="852.400391"/>
     </g>
    </g>
   </g>
   <g id="matplotlib.axis_10">
    <g id="ytick_9">
     <g id="line2d_59">
      <g>
       <use xlink:href="#m5f59d43563" x="57.6" y="292.170502" style="stroke: #000000; stroke-width: 0.8"/>
      </g>
     </g>
     <g id="text_33">
      <!-- 0.045 -->
      <g transform="translate(21.971875 295.969721)scale(0.1 -0.1)">
       <defs>
        <path id="DejaVuSans-35" d="M 691 4666 
L 3169 4666 
L 3169 4134 
L 1269 4134 
L 1269 2991 
Q 1406 3038 1543 3061 
Q 1681 3084 1819 3084 
Q 2600 3084 3056 2656 
Q 3513 2228 3513 1497 
Q 3513 744 3044 326 
Q 2575 -91 1722 -91 
Q 1428 -91 1123 -41 
Q 819 9 494 109 
L 494 744 
Q 775 591 1075 516 
Q 1375 441 1709 441 
Q 2250 441 2565 725 
Q 2881 1009 2881 1497 
Q 2881 1984 2565 2268 
Q 2250 2553 1709 2553 
Q 1456 2553 1204 2497 
Q 953 2441 691 2322 
L 691 4666 
z
" transform="scale(0.015625)"/>
       </defs>
       <use xlink:href="#DejaVuSans-30"/>
       <use xlink:href="#DejaVuSans-2e" x="63.623047"/>
       <use xlink:href="#DejaVuSans-30" x="95.410156"/>
       <use xlink:href="#DejaVuSans-34" x="159.033203"/>
       <use xlink:href="#DejaVuSans-35" x="222.65625"/>
      </g>
     </g>
    </g>
    <g id="ytick_10">
     <g id="line2d_60">
      <g>
       <use xlink:href="#m5f59d43563" x="57.6" y="264.154618" style="stroke: #000000; stroke-width: 0.8"/>
      </g>
     </g>
     <g id="text_34">
      <!-- 0.050 -->
      <g transform="translate(21.971875 267.953837)scale(0.1 -0.1)">
       <use xlink:href="#DejaVuSans-30"/>
       <use xlink:href="#DejaVuSans-2e" x="63.623047"/>
       <use xlink:href="#DejaVuSans-30" x="95.410156"/>
       <use xlink:href="#DejaVuSans-35" x="159.033203"/>
       <use xlink:href="#DejaVuSans-30" x="222.65625"/>
      </g>
     </g>
    </g>
    <g id="text_35">
     <!-- fraction -->
     <g transform="translate(15.892187 303.84956)rotate(-90)scale(0.1 -0.1)">
      <use xlink:href="#DejaVuSans-66"/>
      <use xlink:href="#DejaVuSans-72" x="35.205078"/>
      <use xlink:href="#DejaVuSans-61" x="76.318359"/>
      <use xlink:href="#DejaVuSans-63" x="137.597656"/>
      <use xlink:href="#DejaVuSans-74" x="192.578125"/>
      <use xlink:href="#DejaVuSans-69" x="231.787109"/>
      <use xlink:href="#DejaVuSans-6f" x="259.570312"/>
      <use xlink:href="#DejaVuSans-6e" x="320.751953"/>
     </g>
    </g>
   </g>
   <g id="line2d_61">
    <path d="M 73.832727 305.187972 
L 77.079273 264.061071 
L 80.325818 264.056849 
L 83.572364 264.044657 
L 86.818909 264.072084 
L 90.065455 264.100484 
L 93.312 264.17883 
L 96.558545 264.206851 
L 99.805091 264.205967 
L 103.051636 264.209026 
L 106.298182 264.284538 
L 109.544727 264.301099 
L 112.791273 264.26246 
L 116.037818 264.279365 
L 119.284364 264.283042 
L 122.530909 264.268595 
L 125.777455 264.154763 
L 129.024 264.154696 
L 132.270545 264.15466 
L 135.517091 264.15464 
L 138.763636 264.15463 
L 142.010182 264.154624 
L 145.256727 264.15462 
L 148.503273 264.154618 
L 151.749818 264.154617 
L 154.996364 264.154617 
L 158.242909 264.154617 
L 161.489455 264.154617 
L 164.736 264.154618 
L 167.982545 264.154618 
L 171.229091 264.154618 
L 174.475636 264.171174 
L 177.722182 264.237528 
L 180.968727 264.387051 
L 184.215273 264.650248 
L 187.461818 265.027345 
L 190.708364 265.474294 
L 193.954909 265.917481 
L 197.201455 266.296908 
L 200.448 266.584398 
L 203.694545 266.784646 
L 206.941091 266.921658 
L 210.187636 267.008735 
L 213.434182 267.064459 
L 216.680727 267.097782 
L 219.927273 267.117909 
L 223.173818 267.128992 
L 226.420364 267.134994 
L 229.666909 267.13822 
L 232.913455 267.140376 
L 236.16 267.141754 
L 239.406545 267.1433 
L 242.653091 267.144189 
L 245.899636 267.14497 
L 249.146182 267.145452 
L 252.392727 267.1458 
L 255.639273 267.146025 
L 258.885818 267.146099 
L 262.132364 267.146024 
L 265.378909 267.145953 
L 268.625455 267.14592 
L 271.872 268.217562 
L 275.118545 271.234554 
L 278.365091 275.665589 
L 281.611636 280.932544 
L 284.858182 286.410517 
L 288.104727 291.47436 
L 291.351273 295.689609 
L 294.597818 298.898427 
L 297.844364 301.171021 
L 301.090909 302.683867 
L 304.337455 303.647315 
L 307.584 304.25344 
L 310.830545 304.62496 
L 314.077091 304.8554 
L 317.323636 304.994558 
L 320.570182 305.079335 
L 323.816727 305.131977 
L 327.063273 305.164494 
L 330.309818 305.1843 
L 333.556364 305.195199 
L 336.802909 305.203451 
L 340.049455 305.207718 
L 343.296 305.211831 
L 346.542545 305.214129 
L 349.789091 305.216366 
L 353.035636 305.217434 
L 356.282182 305.218455 
L 359.528727 305.219312 
L 362.775273 305.220114 
L 366.021818 305.220861 
L 369.268364 305.221554 
L 372.514909 305.222193 
L 375.761455 305.222842 
L 379.008 305.223488 
L 382.254545 305.224108 
L 385.501091 305.224703 
L 388.747636 305.225272 
L 391.994182 305.22582 
L 395.240727 305.226384 
L 398.487273 305.22695 
" clip-path="url(#p4ef22ea10c)" style="fill: none; stroke: #1f77b4; stroke-width: 1.5; stroke-linecap: square"/>
   </g>
   <g id="line2d_62">
    <path d="M 73.832727 305.45685 
L 77.079273 275.134097 
L 80.325818 269.49791 
L 83.572364 267.388799 
L 86.818909 266.316464 
L 90.065455 265.669644 
L 93.312 265.234675 
L 96.558545 264.91946 
L 99.805091 264.679794 
L 103.051636 264.476488 
L 106.298182 264.309889 
L 109.544727 264.172224 
L 112.791273 264.05562 
L 116.037818 263.954934 
L 119.284364 263.867627 
L 122.530909 263.788138 
L 125.777455 263.995807 
L 129.024 264.130609 
L 132.270545 264.140425 
L 135.517091 264.148397 
L 138.763636 264.151233 
L 142.010182 264.152782 
L 145.256727 264.153865 
L 148.503273 264.154429 
L 151.749818 264.154745 
L 154.996364 264.154952 
L 158.242909 264.154852 
L 161.489455 264.154764 
L 164.736 264.154712 
L 167.982545 264.15468 
L 171.229091 264.154654 
L 174.475636 264.171147 
L 177.722182 264.237617 
L 180.968727 264.387525 
L 184.215273 264.65146 
L 187.461818 265.02951 
L 190.708364 265.477321 
L 193.954909 265.919835 
L 197.201455 266.300378 
L 200.448 266.585337 
L 203.694545 266.784898 
L 206.941091 266.921046 
L 210.187636 267.007573 
L 213.434182 267.062863 
L 216.680727 267.095916 
L 219.927273 267.115904 
L 223.173818 267.126865 
L 226.420364 267.132817 
L 229.666909 267.136037 
L 232.913455 267.138191 
L 236.16 267.139577 
L 239.406545 267.141134 
L 242.653091 267.142019 
L 245.899636 267.142806 
L 249.146182 267.143335 
L 252.392727 267.143702 
L 255.639273 267.143898 
L 258.885818 267.143948 
L 262.132364 267.143853 
L 265.378909 267.143801 
L 268.625455 267.143787 
L 271.872 268.175434 
L 275.118545 271.131736 
L 278.365091 275.47066 
L 281.611636 280.616047 
L 284.858182 286.004035 
L 288.104727 291.018821 
L 291.351273 295.282685 
L 294.597818 298.598664 
L 297.844364 301.008934 
L 301.090909 302.656883 
L 304.337455 303.721483 
L 307.584 304.402295 
L 310.830545 304.825765 
L 314.077091 305.088677 
L 317.323636 305.248363 
L 320.570182 305.345094 
L 323.816727 305.405048 
L 327.063273 305.442247 
L 330.309818 305.464772 
L 333.556364 305.476755 
L 336.802909 305.485132 
L 340.049455 305.489107 
L 343.296 305.493042 
L 346.542545 305.494939 
L 349.789091 305.496844 
L 353.035636 305.497421 
L 356.282182 305.497886 
L 359.528727 305.498199 
L 362.775273 305.498398 
L 366.021818 305.498483 
L 369.268364 305.498452 
L 372.514909 305.498307 
L 375.761455 305.498258 
L 379.008 305.498256 
L 382.254545 305.498232 
L 385.501091 305.498187 
L 388.747636 305.49812 
L 391.994182 305.498037 
L 395.240727 305.497987 
L 398.487273 305.497953 
" clip-path="url(#p4ef22ea10c)" style="fill: none; stroke: #ff7f0e; stroke-width: 1.5; stroke-linecap: square"/>
   </g>
   <g id="patch_27">
    <path d="M 57.6 307.584 
L 57.6 261.702621 
" style="fill: none; stroke: #000000; stroke-width: 0.8; stroke-linejoin: miter; stroke-linecap: square"/>
   </g>
   <g id="patch_28">
    <path d="M 414.72 307.584 
L 414.72 261.702621 
" style="fill: none; stroke: #000000; stroke-width: 0.8; stroke-linejoin: miter; stroke-linecap: square"/>
   </g>
   <g id="patch_29">
    <path d="M 57.6 307.584 
L 414.72 307.584 
" style="fill: none; stroke: #000000; stroke-width: 0.8; stroke-linejoin: miter; stroke-linecap: square"/>
   </g>
   <g id="patch_30">
    <path d="M 57.6 261.702621 
L 414.72 261.702621 
" style="fill: none; stroke: #000000; stroke-width: 0.8; stroke-linejoin: miter; stroke-linecap: square"/>
   </g>
   <g id="text_36">
    <!-- yC -->
    <g transform="translate(228.419062 255.702621)scale(0.12 -0.12)">
     <defs>
      <path id="DejaVuSans-43" d="M 4122 4306 
L 4122 3641 
Q 3803 3938 3442 4084 
Q 3081 4231 2675 4231 
Q 1875 4231 1450 3742 
Q 1025 3253 1025 2328 
Q 1025 1406 1450 917 
Q 1875 428 2675 428 
Q 3081 428 3442 575 
Q 3803 722 4122 1019 
L 4122 359 
Q 3791 134 3420 21 
Q 3050 -91 2638 -91 
Q 1578 -91 968 557 
Q 359 1206 359 2328 
Q 359 3453 968 4101 
Q 1578 4750 2638 4750 
Q 3056 4750 3426 4639 
Q 3797 4528 4122 4306 
z
" transform="scale(0.015625)"/>
     </defs>
     <use xlink:href="#DejaVuSans-79"/>
     <use xlink:href="#DejaVuSans-43" x="59.179688"/>
    </g>
   </g>
   <g id="legend_5">
    <g id="patch_31">
     <path d="M 329.88875 299.058871 
L 407.72 299.058871 
Q 409.72 299.058871 409.72 297.058871 
L 409.72 268.702621 
Q 409.72 266.702621 407.72 266.702621 
L 329.88875 266.702621 
Q 327.88875 266.702621 327.88875 268.702621 
L 327.88875 297.058871 
Q 327.88875 299.058871 329.88875 299.058871 
z
" style="fill: #ffffff; opacity: 0.8; stroke: #cccccc; stroke-linejoin: miter"/>
    </g>
    <g id="line2d_63">
     <path d="M 331.88875 274.801058 
L 341.88875 274.801058 
L 351.88875 274.801058 
" style="fill: none; stroke: #1f77b4; stroke-width: 1.5; stroke-linecap: square"/>
    </g>
    <g id="text_37">
     <!-- yC0 (in) -->
     <g transform="translate(359.88875 278.301058)scale(0.1 -0.1)">
      <use xlink:href="#DejaVuSans-79"/>
      <use xlink:href="#DejaVuSans-43" x="59.179688"/>
      <use xlink:href="#DejaVuSans-30" x="129.003906"/>
      <use xlink:href="#DejaVuSans-20" x="192.626953"/>
      <use xlink:href="#DejaVuSans-28" x="224.414062"/>
      <use xlink:href="#DejaVuSans-69" x="263.427734"/>
      <use xlink:href="#DejaVuSans-6e" x="291.210938"/>
      <use xlink:href="#DejaVuSans-29" x="354.589844"/>
     </g>
    </g>
    <g id="line2d_64">
     <path d="M 331.88875 289.479183 
L 341.88875 289.479183 
L 351.88875 289.479183 
" style="fill: none; stroke: #ff7f0e; stroke-width: 1.5; stroke-linecap: square"/>
    </g>
    <g id="text_38">
     <!-- yCL (out) -->
     <g transform="translate(359.88875 292.979183)scale(0.1 -0.1)">
      <use xlink:href="#DejaVuSans-79"/>
      <use xlink:href="#DejaVuSans-43" x="59.179688"/>
      <use xlink:href="#DejaVuSans-4c" x="129.003906"/>
      <use xlink:href="#DejaVuSans-20" x="184.716797"/>
      <use xlink:href="#DejaVuSans-28" x="216.503906"/>
      <use xlink:href="#DejaVuSans-6f" x="255.517578"/>
      <use xlink:href="#DejaVuSans-75" x="316.699219"/>
      <use xlink:href="#DejaVuSans-74" x="380.078125"/>
      <use xlink:href="#DejaVuSans-29" x="419.287109"/>
     </g>
    </g>
   </g>
  </g>
 </g>
 <defs>
  <clipPath id="pb47b25c153">
   <rect x="57.6" y="41.472" width="357.12" height="45.881379"/>
  </clipPath>
  <clipPath id="p888b3d45f4">
   <rect x="57.6" y="96.529655" width="357.12" height="45.881379"/>
  </clipPath>
  <clipPath id="p71b5814118">
   <rect x="57.6" y="151.58731" width="357.12" height="45.881379"/>
  </clipPath>
  <clipPath id="p095bf0f9bd">
   <rect x="57.6" y="206.644966" width="357.12" height="45.881379"/>
  </clipPath>
  <clipPath id="p4ef22ea10c">
   <rect x="57.6" y="261.702621" width="357.12" height="45.881379"/>
  </clipPath>
 </defs>
</svg>
