<?xml version="1.0" encoding="utf-8" standalone="no"?>
<!DOCTYPE svg PUBLIC "-//W3C//DTD SVG 1.1//EN"
  "http://www.w3.org/Graphics/SVG/1.1/DTD/svg11.dtd">
<svg xmlns:xlink="http://www.w3.org/1999/xlink" width="460.8pt" height="345.6pt" viewBox="0 0 460.8 345.6" xmlns="http://www.w3.org/2000/svg" version="1.1">
 <metadata>
  <rdf:RDF xmlns:dc="http://purl.org/dc/elements/1.1/" xmlns:cc="http://creativecommons.org/ns#" xmlns:rdf="http://www.w3.org/1999/02/22-rdf-syntax-ns#">
   <cc:Work>
    <dc:type rdf:resource="http://purl.org/dc/dcmitype/StillImage"/>
    <dc:date>2022-07-10T00:04:42.194730</dc:date>
    <dc:format>image/svg+xml</dc:format>
    <dc:creator>
     <cc:Agent>
      <dc:title>Matplotlib v3.5.2, https://matplotlib.org/</dc:title>
     </cc:Agent>
    </dc:creator>
   </cc:Work>
  </rdf:RDF>
 </metadata>
 <defs>
  <style type="text/css">*{stroke-linejoin: round; stroke-linecap: butt}</style>
 </defs>
 <g id="figure_1">
  <g id="patch_1">
   <path d="M 0 345.6 
L 460.8 345.6 
L 460.8 0 
L 0 0 
z
" style="fill: #ffffff"/>
  </g>
  <g id="axes_1">
   <g id="patch_2">
    <path d="M 57.6 87.353379 
L 414.72 87.353379 
L 414.72 41.472 
L 57.6 41.472 
z
" style="fill: #ffffff"/>
   </g>
   <g id="axes_2">
    <g id="patch_3">
     <path d="M 414.72 87.353379 
L 414.72 87.353379 
L 414.72 41.472 
L 414.72 41.472 
z
" style="fill: #ffffff"/>
    </g>
    <g id="matplotlib.axis_1"/>
    <g id="matplotlib.axis_2">
     <g id="ytick_1">
      <g id="line2d_1">
       <defs>
        <path id="ma4e96e4090" d="M 0 0 
L 3.5 0 
" style="stroke: #000000; stroke-width: 0.8"/>
       </defs>
       <g>
        <use xlink:href="#ma4e96e4090" x="414.72" y="75.62383" style="stroke: #000000; stroke-width: 0.8"/>
       </g>
      </g>
      <g id="text_1">
       <!-- 0 -->
       <g transform="translate(421.72 79.423049)scale(0.1 -0.1)">
        <defs>
         <path id="DejaVuSans-30" d="M 2034 4250 
Q 1547 4250 1301 3770 
Q 1056 3291 1056 2328 
Q 1056 1369 1301 889 
Q 1547 409 2034 409 
Q 2525 409 2770 889 
Q 3016 1369 3016 2328 
Q 3016 3291 2770 3770 
Q 2525 4250 2034 4250 
z
M 2034 4750 
Q 2819 4750 3233 4129 
Q 3647 3509 3647 2328 
Q 3647 1150 3233 529 
Q 2819 -91 2034 -91 
Q 1250 -91 836 529 
Q 422 1150 422 2328 
Q 422 3509 836 4129 
Q 1250 4750 2034 4750 
z
" transform="scale(0.015625)"/>
        </defs>
        <use xlink:href="#DejaVuSans-30"/>
       </g>
      </g>
     </g>
     <g id="ytick_2">
      <g id="line2d_2">
       <g>
        <use xlink:href="#ma4e96e4090" x="414.72" y="43.670472" style="stroke: #000000; stroke-width: 0.8"/>
       </g>
      </g>
      <g id="text_2">
       <!-- 1 -->
       <g transform="translate(421.72 47.469691)scale(0.1 -0.1)">
        <defs>
         <path id="DejaVuSans-31" d="M 794 531 
L 1825 531 
L 1825 4091 
L 703 3866 
L 703 4441 
L 1819 4666 
L 2450 4666 
L 2450 531 
L 3481 531 
L 3481 0 
L 794 0 
L 794 531 
z
" transform="scale(0.015625)"/>
        </defs>
        <use xlink:href="#DejaVuSans-31"/>
       </g>
      </g>
     </g>
     <g id="text_3">
      <!-- vel [m/s] -->
      <g transform="translate(439.680938 86.48769)rotate(-90)scale(0.1 -0.1)">
       <defs>
        <path id="DejaVuSans-76" d="M 191 3500 
L 800 3500 
L 1894 563 
L 2988 3500 
L 3597 3500 
L 2284 0 
L 1503 0 
L 191 3500 
z
" transform="scale(0.015625)"/>
        <path id="DejaVuSans-65" d="M 3597 1894 
L 3597 1613 
L 953 1613 
Q 991 1019 1311 708 
Q 1631 397 2203 397 
Q 2534 397 2845 478 
Q 3156 559 3463 722 
L 3463 178 
Q 3153 47 2828 -22 
Q 2503 -91 2169 -91 
Q 1331 -91 842 396 
Q 353 884 353 1716 
Q 353 2575 817 3079 
Q 1281 3584 2069 3584 
Q 2775 3584 3186 3129 
Q 3597 2675 3597 1894 
z
M 3022 2063 
Q 3016 2534 2758 2815 
Q 2500 3097 2075 3097 
Q 1594 3097 1305 2825 
Q 1016 2553 972 2059 
L 3022 2063 
z
" transform="scale(0.015625)"/>
        <path id="DejaVuSans-6c" d="M 603 4863 
L 1178 4863 
L 1178 0 
L 603 0 
L 603 4863 
z
" transform="scale(0.015625)"/>
        <path id="DejaVuSans-20" transform="scale(0.015625)"/>
        <path id="DejaVuSans-5b" d="M 550 4863 
L 1875 4863 
L 1875 4416 
L 1125 4416 
L 1125 -397 
L 1875 -397 
L 1875 -844 
L 550 -844 
L 550 4863 
z
" transform="scale(0.015625)"/>
        <path id="DejaVuSans-6d" d="M 3328 2828 
Q 3544 3216 3844 3400 
Q 4144 3584 4550 3584 
Q 5097 3584 5394 3201 
Q 5691 2819 5691 2113 
L 5691 0 
L 5113 0 
L 5113 2094 
Q 5113 2597 4934 2840 
Q 4756 3084 4391 3084 
Q 3944 3084 3684 2787 
Q 3425 2491 3425 1978 
L 3425 0 
L 2847 0 
L 2847 2094 
Q 2847 2600 2669 2842 
Q 2491 3084 2119 3084 
Q 1678 3084 1418 2786 
Q 1159 2488 1159 1978 
L 1159 0 
L 581 0 
L 581 3500 
L 1159 3500 
L 1159 2956 
Q 1356 3278 1631 3431 
Q 1906 3584 2284 3584 
Q 2666 3584 2933 3390 
Q 3200 3197 3328 2828 
z
" transform="scale(0.015625)"/>
        <path id="DejaVuSans-2f" d="M 1625 4666 
L 2156 4666 
L 531 -594 
L 0 -594 
L 1625 4666 
z
" transform="scale(0.015625)"/>
        <path id="DejaVuSans-73" d="M 2834 3397 
L 2834 2853 
Q 2591 2978 2328 3040 
Q 2066 3103 1784 3103 
Q 1356 3103 1142 2972 
Q 928 2841 928 2578 
Q 928 2378 1081 2264 
Q 1234 2150 1697 2047 
L 1894 2003 
Q 2506 1872 2764 1633 
Q 3022 1394 3022 966 
Q 3022 478 2636 193 
Q 2250 -91 1575 -91 
Q 1294 -91 989 -36 
Q 684 19 347 128 
L 347 722 
Q 666 556 975 473 
Q 1284 391 1588 391 
Q 1994 391 2212 530 
Q 2431 669 2431 922 
Q 2431 1156 2273 1281 
Q 2116 1406 1581 1522 
L 1381 1569 
Q 847 1681 609 1914 
Q 372 2147 372 2553 
Q 372 3047 722 3315 
Q 1072 3584 1716 3584 
Q 2034 3584 2315 3537 
Q 2597 3491 2834 3397 
z
" transform="scale(0.015625)"/>
        <path id="DejaVuSans-5d" d="M 1947 4863 
L 1947 -844 
L 622 -844 
L 622 -397 
L 1369 -397 
L 1369 4416 
L 622 4416 
L 622 4863 
L 1947 4863 
z
" transform="scale(0.015625)"/>
       </defs>
       <use xlink:href="#DejaVuSans-76"/>
       <use xlink:href="#DejaVuSans-65" x="59.179688"/>
       <use xlink:href="#DejaVuSans-6c" x="120.703125"/>
       <use xlink:href="#DejaVuSans-20" x="148.486328"/>
       <use xlink:href="#DejaVuSans-5b" x="180.273438"/>
       <use xlink:href="#DejaVuSans-6d" x="219.287109"/>
       <use xlink:href="#DejaVuSans-2f" x="316.699219"/>
       <use xlink:href="#DejaVuSans-73" x="350.390625"/>
       <use xlink:href="#DejaVuSans-5d" x="402.490234"/>
      </g>
     </g>
    </g>
    <g id="patch_4">
     <path d="M 414.72 87.353379 
L 414.72 41.472 
" style="fill: none; stroke: #000000; stroke-width: 0.8; stroke-linejoin: miter; stroke-linecap: square"/>
    </g>
   </g>
   <g id="matplotlib.axis_3">
    <g id="xtick_1">
     <g id="line2d_3">
      <defs>
       <path id="mbf1df3136e" d="M 0 0 
L 0 3.5 
" style="stroke: #000000; stroke-width: 0.8"/>
      </defs>
      <g>
       <use xlink:href="#mbf1df3136e" x="73.832727" y="87.353379" style="stroke: #000000; stroke-width: 0.8"/>
      </g>
     </g>
    </g>
    <g id="xtick_2">
     <g id="line2d_4">
      <g>
       <use xlink:href="#mbf1df3136e" x="116.550431" y="87.353379" style="stroke: #000000; stroke-width: 0.8"/>
      </g>
     </g>
    </g>
    <g id="xtick_3">
     <g id="line2d_5">
      <g>
       <use xlink:href="#mbf1df3136e" x="159.268134" y="87.353379" style="stroke: #000000; stroke-width: 0.8"/>
      </g>
     </g>
    </g>
    <g id="xtick_4">
     <g id="line2d_6">
      <g>
       <use xlink:href="#mbf1df3136e" x="201.985837" y="87.353379" style="stroke: #000000; stroke-width: 0.8"/>
      </g>
     </g>
    </g>
    <g id="xtick_5">
     <g id="line2d_7">
      <g>
       <use xlink:href="#mbf1df3136e" x="244.703541" y="87.353379" style="stroke: #000000; stroke-width: 0.8"/>
      </g>
     </g>
    </g>
    <g id="xtick_6">
     <g id="line2d_8">
      <g>
       <use xlink:href="#mbf1df3136e" x="287.421244" y="87.353379" style="stroke: #000000; stroke-width: 0.8"/>
      </g>
     </g>
    </g>
    <g id="xtick_7">
     <g id="line2d_9">
      <g>
       <use xlink:href="#mbf1df3136e" x="330.138947" y="87.353379" style="stroke: #000000; stroke-width: 0.8"/>
      </g>
     </g>
    </g>
    <g id="xtick_8">
     <g id="line2d_10">
      <g>
       <use xlink:href="#mbf1df3136e" x="372.856651" y="87.353379" style="stroke: #000000; stroke-width: 0.8"/>
      </g>
     </g>
    </g>
   </g>
   <g id="matplotlib.axis_4">
    <g id="ytick_3">
     <g id="line2d_11">
      <defs>
       <path id="m3ead5267c9" d="M 0 0 
L -3.5 0 
" style="stroke: #000000; stroke-width: 0.8"/>
      </defs>
      <g>
       <use xlink:href="#m3ead5267c9" x="57.6" y="75.62383" style="stroke: #000000; stroke-width: 0.8"/>
      </g>
     </g>
     <g id="text_4">
      <!-- 0 -->
      <g transform="translate(44.2375 79.423049)scale(0.1 -0.1)">
       <use xlink:href="#DejaVuSans-30"/>
      </g>
     </g>
    </g>
    <g id="ytick_4">
     <g id="line2d_12">
      <g>
       <use xlink:href="#m3ead5267c9" x="57.6" y="43.670472" style="stroke: #000000; stroke-width: 0.8"/>
      </g>
     </g>
     <g id="text_5">
      <!-- 1 -->
      <g transform="translate(44.2375 47.469691)scale(0.1 -0.1)">
       <use xlink:href="#DejaVuSans-31"/>
      </g>
     </g>
    </g>
    <g id="text_6">
     <!-- vel [normalized] -->
     <g transform="translate(38.157812 105.111908)rotate(-90)scale(0.1 -0.1)">
      <defs>
       <path id="DejaVuSans-6e" d="M 3513 2113 
L 3513 0 
L 2938 0 
L 2938 2094 
Q 2938 2591 2744 2837 
Q 2550 3084 2163 3084 
Q 1697 3084 1428 2787 
Q 1159 2491 1159 1978 
L 1159 0 
L 581 0 
L 581 3500 
L 1159 3500 
L 1159 2956 
Q 1366 3272 1645 3428 
Q 1925 3584 2291 3584 
Q 2894 3584 3203 3211 
Q 3513 2838 3513 2113 
z
" transform="scale(0.015625)"/>
       <path id="DejaVuSans-6f" d="M 1959 3097 
Q 1497 3097 1228 2736 
Q 959 2375 959 1747 
Q 959 1119 1226 758 
Q 1494 397 1959 397 
Q 2419 397 2687 759 
Q 2956 1122 2956 1747 
Q 2956 2369 2687 2733 
Q 2419 3097 1959 3097 
z
M 1959 3584 
Q 2709 3584 3137 3096 
Q 3566 2609 3566 1747 
Q 3566 888 3137 398 
Q 2709 -91 1959 -91 
Q 1206 -91 779 398 
Q 353 888 353 1747 
Q 353 2609 779 3096 
Q 1206 3584 1959 3584 
z
" transform="scale(0.015625)"/>
       <path id="DejaVuSans-72" d="M 2631 2963 
Q 2534 3019 2420 3045 
Q 2306 3072 2169 3072 
Q 1681 3072 1420 2755 
Q 1159 2438 1159 1844 
L 1159 0 
L 581 0 
L 581 3500 
L 1159 3500 
L 1159 2956 
Q 1341 3275 1631 3429 
Q 1922 3584 2338 3584 
Q 2397 3584 2469 3576 
Q 2541 3569 2628 3553 
L 2631 2963 
z
" transform="scale(0.015625)"/>
       <path id="DejaVuSans-61" d="M 2194 1759 
Q 1497 1759 1228 1600 
Q 959 1441 959 1056 
Q 959 750 1161 570 
Q 1363 391 1709 391 
Q 2188 391 2477 730 
Q 2766 1069 2766 1631 
L 2766 1759 
L 2194 1759 
z
M 3341 1997 
L 3341 0 
L 2766 0 
L 2766 531 
Q 2569 213 2275 61 
Q 1981 -91 1556 -91 
Q 1019 -91 701 211 
Q 384 513 384 1019 
Q 384 1609 779 1909 
Q 1175 2209 1959 2209 
L 2766 2209 
L 2766 2266 
Q 2766 2663 2505 2880 
Q 2244 3097 1772 3097 
Q 1472 3097 1187 3025 
Q 903 2953 641 2809 
L 641 3341 
Q 956 3463 1253 3523 
Q 1550 3584 1831 3584 
Q 2591 3584 2966 3190 
Q 3341 2797 3341 1997 
z
" transform="scale(0.015625)"/>
       <path id="DejaVuSans-69" d="M 603 3500 
L 1178 3500 
L 1178 0 
L 603 0 
L 603 3500 
z
M 603 4863 
L 1178 4863 
L 1178 4134 
L 603 4134 
L 603 4863 
z
" transform="scale(0.015625)"/>
       <path id="DejaVuSans-7a" d="M 353 3500 
L 3084 3500 
L 3084 2975 
L 922 459 
L 3084 459 
L 3084 0 
L 275 0 
L 275 525 
L 2438 3041 
L 353 3041 
L 353 3500 
z
" transform="scale(0.015625)"/>
       <path id="DejaVuSans-64" d="M 2906 2969 
L 2906 4863 
L 3481 4863 
L 3481 0 
L 2906 0 
L 2906 525 
Q 2725 213 2448 61 
Q 2172 -91 1784 -91 
Q 1150 -91 751 415 
Q 353 922 353 1747 
Q 353 2572 751 3078 
Q 1150 3584 1784 3584 
Q 2172 3584 2448 3432 
Q 2725 3281 2906 2969 
z
M 947 1747 
Q 947 1113 1208 752 
Q 1469 391 1925 391 
Q 2381 391 2643 752 
Q 2906 1113 2906 1747 
Q 2906 2381 2643 2742 
Q 2381 3103 1925 3103 
Q 1469 3103 1208 2742 
Q 947 2381 947 1747 
z
" transform="scale(0.015625)"/>
      </defs>
      <use xlink:href="#DejaVuSans-76"/>
      <use xlink:href="#DejaVuSans-65" x="59.179688"/>
      <use xlink:href="#DejaVuSans-6c" x="120.703125"/>
      <use xlink:href="#DejaVuSans-20" x="148.486328"/>
      <use xlink:href="#DejaVuSans-5b" x="180.273438"/>
      <use xlink:href="#DejaVuSans-6e" x="219.287109"/>
      <use xlink:href="#DejaVuSans-6f" x="282.666016"/>
      <use xlink:href="#DejaVuSans-72" x="343.847656"/>
      <use xlink:href="#DejaVuSans-6d" x="383.210938"/>
      <use xlink:href="#DejaVuSans-61" x="480.623047"/>
      <use xlink:href="#DejaVuSans-6c" x="541.902344"/>
      <use xlink:href="#DejaVuSans-69" x="569.685547"/>
      <use xlink:href="#DejaVuSans-7a" x="597.46875"/>
      <use xlink:href="#DejaVuSans-65" x="649.958984"/>
      <use xlink:href="#DejaVuSans-64" x="711.482422"/>
      <use xlink:href="#DejaVuSans-5d" x="774.958984"/>
     </g>
    </g>
   </g>
   <g id="line2d_13">
    <path d="M 73.832727 75.62384 
L 90.919809 75.623848 
L 108.00689 75.62385 
L 125.093971 75.62385 
L 142.181053 75.623849 
L 159.268134 75.623847 
L 176.355215 75.623846 
L 193.442297 75.623845 
L 210.529378 75.623843 
L 227.616459 75.623842 
L 244.703541 75.62384 
L 261.790622 75.623839 
L 278.877703 75.623838 
L 295.964785 75.623837 
L 313.051866 75.623835 
L 330.138947 75.623834 
L 347.226029 75.623833 
L 364.31311 75.623832 
L 381.400191 75.623831 
L 398.487273 75.623831 
" clip-path="url(#p943012c143)" style="fill: none; stroke: #1f77b4; stroke-width: 1.5; stroke-linecap: square"/>
   </g>
   <g id="line2d_14">
    <path d="M 73.832727 75.303073 
L 90.919809 75.319948 
L 108.00689 75.336824 
L 125.093971 75.353701 
L 142.181053 75.370579 
L 159.268134 75.387458 
L 176.355215 75.404339 
L 193.442297 75.42122 
L 210.529378 75.438104 
L 227.616459 75.454988 
L 244.703541 75.471872 
L 261.790622 75.488757 
L 278.877703 75.505643 
L 295.964785 75.52253 
L 313.051866 75.539417 
L 330.138947 75.556306 
L 347.226029 75.573195 
L 364.31311 75.590086 
L 381.400191 75.606966 
L 398.487273 75.606966 
" clip-path="url(#p943012c143)" style="fill: none; stroke: #ff7f0e; stroke-width: 1.5; stroke-linecap: square"/>
   </g>
   <g id="line2d_15">
    <path d="M 73.832727 43.667435 
L 90.919809 43.66136 
L 108.00689 43.655284 
L 125.093971 43.649207 
L 142.181053 43.643129 
L 159.268134 43.637049 
L 176.355215 43.630969 
L 193.442297 43.624887 
L 210.529378 43.618805 
L 227.616459 43.612723 
L 244.703541 43.606641 
L 261.790622 43.60056 
L 278.877703 43.594479 
L 295.964785 43.5884 
L 313.051866 43.582321 
L 330.138947 43.57624 
L 347.226029 43.570154 
L 364.31311 43.564056 
L 381.400191 43.557942 
L 398.487273 43.557942 
" clip-path="url(#p943012c143)" style="fill: none; stroke: #2ca02c; stroke-width: 1.5; stroke-linecap: square"/>
   </g>
   <g id="line2d_16">
    <path d="M 73.832727 43.667435 
L 90.919809 43.661358 
L 108.00689 43.655278 
L 125.093971 43.649194 
L 142.181053 43.643107 
L 159.268134 43.637016 
L 176.355215 43.630922 
L 193.442297 43.624824 
L 210.529378 43.618723 
L 227.616459 43.612618 
L 244.703541 43.60651 
L 261.790622 43.600398 
L 278.877703 43.594283 
L 295.964785 43.588164 
L 313.051866 43.582041 
L 330.138947 43.575916 
L 347.226029 43.569786 
L 364.31311 43.563654 
L 381.400191 43.557517 
L 398.487273 43.557517 
" clip-path="url(#p943012c143)" style="fill: none; stroke: #d62728; stroke-width: 1.5; stroke-linecap: square"/>
   </g>
   <g id="line2d_17">
    <path d="M 73.832727 75.017761 
L 90.919809 74.411688 
L 108.00689 73.805604 
L 125.093971 73.199499 
L 142.181053 72.593365 
L 159.268134 71.987193 
L 176.355215 71.380975 
L 193.442297 70.774702 
L 210.529378 70.168366 
L 227.616459 69.561959 
L 244.703541 68.95547 
L 261.790622 68.348894 
L 278.877703 67.742222 
L 295.964785 67.135443 
L 313.051866 66.528552 
L 330.138947 65.92154 
L 347.226029 65.314398 
L 364.31311 64.707119 
L 381.400191 64.099694 
L 398.487273 64.099694 
" clip-path="url(#p943012c143)" style="fill: none; stroke: #9467bd; stroke-width: 1.5; stroke-linecap: square"/>
   </g>
   <g id="line2d_18">
    <path d="M 73.832727 75.575543 
L 90.919809 75.527257 
L 108.00689 75.478977 
L 125.093971 75.430704 
L 142.181053 75.382441 
L 159.268134 75.33419 
L 176.355215 75.285953 
L 193.442297 75.237733 
L 210.529378 75.189532 
L 227.616459 75.141353 
L 244.703541 75.093197 
L 261.790622 75.045067 
L 278.877703 74.996966 
L 295.964785 74.948896 
L 313.051866 74.900858 
L 330.138947 74.852856 
L 347.226029 74.804891 
L 364.31311 74.756965 
L 381.400191 74.709081 
L 398.487273 74.709081 
" clip-path="url(#p943012c143)" style="fill: none; stroke: #8c564b; stroke-width: 1.5; stroke-linecap: square"/>
   </g>
   <g id="line2d_19">
    <path d="M 73.832727 75.620054 
L 90.919809 75.616276 
L 108.00689 75.612494 
L 125.093971 75.608704 
L 142.181053 75.604903 
L 159.268134 75.60109 
L 176.355215 75.597261 
L 193.442297 75.593415 
L 210.529378 75.589547 
L 227.616459 75.585656 
L 244.703541 75.581739 
L 261.790622 75.577793 
L 278.877703 75.573815 
L 295.964785 75.569802 
L 313.051866 75.565751 
L 330.138947 75.561659 
L 347.226029 75.557524 
L 364.31311 75.553341 
L 381.400191 75.549108 
L 398.487273 75.549108 
" clip-path="url(#p943012c143)" style="fill: none; stroke: #e377c2; stroke-width: 1.5; stroke-linecap: square"/>
   </g>
   <g id="line2d_20">
    <path d="M 73.832727 75.623534 
L 90.919809 75.623239 
L 108.00689 75.622943 
L 125.093971 75.622647 
L 142.181053 75.622351 
L 159.268134 75.622055 
L 176.355215 75.621758 
L 193.442297 75.621462 
L 210.529378 75.621165 
L 227.616459 75.620868 
L 244.703541 75.62057 
L 261.790622 75.620273 
L 278.877703 75.619975 
L 295.964785 75.619677 
L 313.051866 75.619378 
L 330.138947 75.61908 
L 347.226029 75.618781 
L 364.31311 75.618482 
L 381.400191 75.618184 
L 398.487273 75.618184 
" clip-path="url(#p943012c143)" style="fill: none; stroke: #7f7f7f; stroke-width: 1.5; stroke-linecap: square"/>
   </g>
   <g id="line2d_21">
    <path d="M 73.832727 85.267862 
L 90.919809 84.738184 
L 108.00689 84.212303 
L 125.093971 83.689952 
L 142.181053 83.170871 
L 159.268134 82.654813 
L 176.355215 82.141537 
L 193.442297 81.63081 
L 210.529378 81.122408 
L 227.616459 80.61611 
L 244.703541 80.111702 
L 261.790622 79.608977 
L 278.877703 79.107729 
L 295.964785 78.607757 
L 313.051866 78.108864 
L 330.138947 77.610855 
L 347.226029 77.113537 
L 364.31311 76.61672 
L 381.400191 76.120214 
L 398.487273 76.120214 
" clip-path="url(#p943012c143)" style="fill: none; stroke: #bcbd22; stroke-width: 1.5; stroke-linecap: square"/>
   </g>
   <g id="line2d_22">
    <path d="M 73.832727 76.144868 
L 90.919809 76.119286 
L 108.00689 76.093413 
L 125.093971 76.067264 
L 142.181053 76.040853 
L 159.268134 76.014194 
L 176.355215 75.987303 
L 193.442297 75.960194 
L 210.529378 75.932884 
L 227.616459 75.905388 
L 244.703541 75.877722 
L 261.790622 75.849902 
L 278.877703 75.821945 
L 295.964785 75.793868 
L 313.051866 75.765687 
L 330.138947 75.73742 
L 347.226029 75.709083 
L 364.31311 75.680694 
L 381.400191 75.652271 
L 398.487273 75.652271 
" clip-path="url(#p943012c143)" style="fill: none; stroke: #17becf; stroke-width: 1.5; stroke-linecap: square"/>
   </g>
   <g id="line2d_23">
    <path d="M 73.832727 75.636757 
L 90.919809 75.636115 
L 108.00689 75.635463 
L 125.093971 75.634805 
L 142.181053 75.634143 
L 159.268134 75.633477 
L 176.355215 75.632806 
L 193.442297 75.632132 
L 210.529378 75.631453 
L 227.616459 75.630772 
L 244.703541 75.630087 
L 261.790622 75.629399 
L 278.877703 75.628709 
L 295.964785 75.628016 
L 313.051866 75.627321 
L 330.138947 75.626625 
L 347.226029 75.625927 
L 364.31311 75.625229 
L 381.400191 75.624529 
L 398.487273 75.624529 
" clip-path="url(#p943012c143)" style="fill: none; stroke: #1f77b4; stroke-width: 1.5; stroke-linecap: square"/>
   </g>
   <g id="line2d_24">
    <path d="M 73.832727 75.623925 
L 90.919809 75.62391 
L 108.00689 75.623892 
L 125.093971 75.623875 
L 142.181053 75.62386 
L 159.268134 75.623848 
L 176.355215 75.623838 
L 193.442297 75.62383 
L 210.529378 75.623823 
L 227.616459 75.623819 
L 244.703541 75.623816 
L 261.790622 75.623814 
L 278.877703 75.623813 
L 295.964785 75.623814 
L 313.051866 75.623815 
L 330.138947 75.623817 
L 347.226029 75.62382 
L 364.31311 75.623823 
L 381.400191 75.623826 
L 398.487273 75.623826 
" clip-path="url(#p943012c143)" style="fill: none; stroke: #ff7f0e; stroke-width: 1.5; stroke-linecap: square"/>
   </g>
   <g id="line2d_25">
    <path d="M 73.832727 75.623784 
L 90.919809 75.623793 
L 108.00689 75.623796 
L 125.093971 75.623797 
L 142.181053 75.623797 
L 159.268134 75.623798 
L 176.355215 75.623799 
L 193.442297 75.6238 
L 210.529378 75.623801 
L 227.616459 75.623803 
L 244.703541 75.623805 
L 261.790622 75.623807 
L 278.877703 75.623809 
L 295.964785 75.623812 
L 313.051866 75.623815 
L 330.138947 75.623817 
L 347.226029 75.62382 
L 364.31311 75.623823 
L 381.400191 75.623827 
L 398.487273 75.623827 
" clip-path="url(#p943012c143)" style="fill: none; stroke: #2ca02c; stroke-width: 1.5; stroke-linecap: square"/>
   </g>
   <g id="patch_5">
    <path d="M 57.6 87.353379 
L 57.6 41.472 
" style="fill: none; stroke: #000000; stroke-width: 0.8; stroke-linejoin: miter; stroke-linecap: square"/>
   </g>
   <g id="patch_6">
    <path d="M 414.72 87.353379 
L 414.72 41.472 
" style="fill: none; stroke: #000000; stroke-width: 0.8; stroke-linejoin: miter; stroke-linecap: square"/>
   </g>
   <g id="patch_7">
    <path d="M 57.6 87.353379 
L 414.72 87.353379 
" style="fill: none; stroke: #000000; stroke-width: 0.8; stroke-linejoin: miter; stroke-linecap: square"/>
   </g>
   <g id="patch_8">
    <path d="M 57.6 41.472 
L 414.72 41.472 
" style="fill: none; stroke: #000000; stroke-width: 0.8; stroke-linejoin: miter; stroke-linecap: square"/>
   </g>
   <g id="text_7">
    <!-- velocity - Container 1  -->
    <g transform="translate(169.779375 38.472)scale(0.12 -0.12)">
     <defs>
      <path id="DejaVuSans-63" d="M 3122 3366 
L 3122 2828 
Q 2878 2963 2633 3030 
Q 2388 3097 2138 3097 
Q 1578 3097 1268 2742 
Q 959 2388 959 1747 
Q 959 1106 1268 751 
Q 1578 397 2138 397 
Q 2388 397 2633 464 
Q 2878 531 3122 666 
L 3122 134 
Q 2881 22 2623 -34 
Q 2366 -91 2075 -91 
Q 1284 -91 818 406 
Q 353 903 353 1747 
Q 353 2603 823 3093 
Q 1294 3584 2113 3584 
Q 2378 3584 2631 3529 
Q 2884 3475 3122 3366 
z
" transform="scale(0.015625)"/>
      <path id="DejaVuSans-74" d="M 1172 4494 
L 1172 3500 
L 2356 3500 
L 2356 3053 
L 1172 3053 
L 1172 1153 
Q 1172 725 1289 603 
Q 1406 481 1766 481 
L 2356 481 
L 2356 0 
L 1766 0 
Q 1100 0 847 248 
Q 594 497 594 1153 
L 594 3053 
L 172 3053 
L 172 3500 
L 594 3500 
L 594 4494 
L 1172 4494 
z
" transform="scale(0.015625)"/>
      <path id="DejaVuSans-79" d="M 2059 -325 
Q 1816 -950 1584 -1140 
Q 1353 -1331 966 -1331 
L 506 -1331 
L 506 -850 
L 844 -850 
Q 1081 -850 1212 -737 
Q 1344 -625 1503 -206 
L 1606 56 
L 191 3500 
L 800 3500 
L 1894 763 
L 2988 3500 
L 3597 3500 
L 2059 -325 
z
" transform="scale(0.015625)"/>
      <path id="DejaVuSans-2d" d="M 313 2009 
L 1997 2009 
L 1997 1497 
L 313 1497 
L 313 2009 
z
" transform="scale(0.015625)"/>
      <path id="DejaVuSans-43" d="M 4122 4306 
L 4122 3641 
Q 3803 3938 3442 4084 
Q 3081 4231 2675 4231 
Q 1875 4231 1450 3742 
Q 1025 3253 1025 2328 
Q 1025 1406 1450 917 
Q 1875 428 2675 428 
Q 3081 428 3442 575 
Q 3803 722 4122 1019 
L 4122 359 
Q 3791 134 3420 21 
Q 3050 -91 2638 -91 
Q 1578 -91 968 557 
Q 359 1206 359 2328 
Q 359 3453 968 4101 
Q 1578 4750 2638 4750 
Q 3056 4750 3426 4639 
Q 3797 4528 4122 4306 
z
" transform="scale(0.015625)"/>
     </defs>
     <use xlink:href="#DejaVuSans-76"/>
     <use xlink:href="#DejaVuSans-65" x="59.179688"/>
     <use xlink:href="#DejaVuSans-6c" x="120.703125"/>
     <use xlink:href="#DejaVuSans-6f" x="148.486328"/>
     <use xlink:href="#DejaVuSans-63" x="209.667969"/>
     <use xlink:href="#DejaVuSans-69" x="264.648438"/>
     <use xlink:href="#DejaVuSans-74" x="292.431641"/>
     <use xlink:href="#DejaVuSans-79" x="331.640625"/>
     <use xlink:href="#DejaVuSans-20" x="390.820312"/>
     <use xlink:href="#DejaVuSans-2d" x="422.607422"/>
     <use xlink:href="#DejaVuSans-20" x="458.691406"/>
     <use xlink:href="#DejaVuSans-43" x="490.478516"/>
     <use xlink:href="#DejaVuSans-6f" x="560.302734"/>
     <use xlink:href="#DejaVuSans-6e" x="621.484375"/>
     <use xlink:href="#DejaVuSans-74" x="684.863281"/>
     <use xlink:href="#DejaVuSans-61" x="724.072266"/>
     <use xlink:href="#DejaVuSans-69" x="785.351562"/>
     <use xlink:href="#DejaVuSans-6e" x="813.134766"/>
     <use xlink:href="#DejaVuSans-65" x="876.513672"/>
     <use xlink:href="#DejaVuSans-72" x="938.037109"/>
     <use xlink:href="#DejaVuSans-20" x="979.150391"/>
     <use xlink:href="#DejaVuSans-31" x="1010.9375"/>
     <use xlink:href="#DejaVuSans-20" x="1074.560547"/>
    </g>
   </g>
  </g>
  <g id="axes_3">
   <g id="patch_9">
    <path d="M 57.6 142.411034 
L 414.72 142.411034 
L 414.72 96.529655 
L 57.6 96.529655 
z
" style="fill: #ffffff"/>
   </g>
   <g id="matplotlib.axis_5">
    <g id="xtick_9">
     <g id="line2d_26">
      <g>
       <use xlink:href="#mbf1df3136e" x="73.832727" y="142.411034" style="stroke: #000000; stroke-width: 0.8"/>
      </g>
     </g>
    </g>
    <g id="xtick_10">
     <g id="line2d_27">
      <g>
       <use xlink:href="#mbf1df3136e" x="116.550431" y="142.411034" style="stroke: #000000; stroke-width: 0.8"/>
      </g>
     </g>
    </g>
    <g id="xtick_11">
     <g id="line2d_28">
      <g>
       <use xlink:href="#mbf1df3136e" x="159.268134" y="142.411034" style="stroke: #000000; stroke-width: 0.8"/>
      </g>
     </g>
    </g>
    <g id="xtick_12">
     <g id="line2d_29">
      <g>
       <use xlink:href="#mbf1df3136e" x="201.985837" y="142.411034" style="stroke: #000000; stroke-width: 0.8"/>
      </g>
     </g>
    </g>
    <g id="xtick_13">
     <g id="line2d_30">
      <g>
       <use xlink:href="#mbf1df3136e" x="244.703541" y="142.411034" style="stroke: #000000; stroke-width: 0.8"/>
      </g>
     </g>
    </g>
    <g id="xtick_14">
     <g id="line2d_31">
      <g>
       <use xlink:href="#mbf1df3136e" x="287.421244" y="142.411034" style="stroke: #000000; stroke-width: 0.8"/>
      </g>
     </g>
    </g>
    <g id="xtick_15">
     <g id="line2d_32">
      <g>
       <use xlink:href="#mbf1df3136e" x="330.138947" y="142.411034" style="stroke: #000000; stroke-width: 0.8"/>
      </g>
     </g>
    </g>
    <g id="xtick_16">
     <g id="line2d_33">
      <g>
       <use xlink:href="#mbf1df3136e" x="372.856651" y="142.411034" style="stroke: #000000; stroke-width: 0.8"/>
      </g>
     </g>
    </g>
   </g>
   <g id="matplotlib.axis_6">
    <g id="ytick_5">
     <g id="line2d_34">
      <g>
       <use xlink:href="#m3ead5267c9" x="57.6" y="140.745253" style="stroke: #000000; stroke-width: 0.8"/>
      </g>
     </g>
     <g id="text_8">
      <!-- 0 -->
      <g transform="translate(44.2375 144.544472)scale(0.1 -0.1)">
       <use xlink:href="#DejaVuSans-30"/>
      </g>
     </g>
    </g>
    <g id="ytick_6">
     <g id="line2d_35">
      <g>
       <use xlink:href="#m3ead5267c9" x="57.6" y="98.771642" style="stroke: #000000; stroke-width: 0.8"/>
      </g>
     </g>
     <g id="text_9">
      <!-- 1 -->
      <g transform="translate(44.2375 102.570861)scale(0.1 -0.1)">
       <use xlink:href="#DejaVuSans-31"/>
      </g>
     </g>
    </g>
   </g>
   <g id="line2d_36">
    <path d="M 73.832727 140.325517 
L 90.919809 140.325517 
L 108.00689 140.325517 
L 125.093971 140.325517 
L 142.181053 140.325517 
L 159.268134 140.325517 
L 176.355215 140.325517 
L 193.442297 140.325517 
L 210.529378 140.325517 
L 227.616459 140.325517 
L 244.703541 140.325517 
L 261.790622 140.325517 
L 278.877703 140.325517 
L 295.964785 140.325517 
L 313.051866 140.325517 
L 330.138947 140.325517 
L 347.226029 140.325517 
L 364.31311 140.325517 
L 381.400191 140.325517 
L 398.487273 140.325517 
" clip-path="url(#p111fad15ac)" style="fill: none; stroke: #1f77b4; stroke-width: 1.5; stroke-linecap: square"/>
   </g>
   <g id="line2d_37">
    <path d="M 73.832727 99.547763 
L 90.919809 99.547843 
L 108.00689 99.547919 
L 125.093971 99.547991 
L 142.181053 99.548059 
L 159.268134 99.548122 
L 176.355215 99.548182 
L 193.442297 99.548237 
L 210.529378 99.548287 
L 227.616459 99.548334 
L 244.703541 99.548376 
L 261.790622 99.548414 
L 278.877703 99.548448 
L 295.964785 99.548478 
L 313.051866 99.548503 
L 330.138947 99.548524 
L 347.226029 99.548541 
L 364.31311 99.548554 
L 381.400191 99.548562 
L 398.487273 99.548567 
" clip-path="url(#p111fad15ac)" style="fill: none; stroke: #ff7f0e; stroke-width: 1.5; stroke-linecap: square"/>
   </g>
   <g id="line2d_38">
    <path d="M 73.832727 98.615173 
L 90.919809 98.623183 
L 108.00689 98.631195 
L 125.093971 98.639208 
L 142.181053 98.647222 
L 159.268134 98.655238 
L 176.355215 98.663256 
L 193.442297 98.671275 
L 210.529378 98.679295 
L 227.616459 98.687317 
L 244.703541 98.695341 
L 261.790622 98.703366 
L 278.877703 98.711393 
L 295.964785 98.719421 
L 313.051866 98.727451 
L 330.138947 98.735482 
L 347.226029 98.743515 
L 364.31311 98.751549 
L 381.400191 98.759585 
L 398.487273 98.767623 
" clip-path="url(#p111fad15ac)" style="fill: none; stroke: #2ca02c; stroke-width: 1.5; stroke-linecap: square"/>
   </g>
   <g id="line2d_39">
    <path d="M 73.832727 98.615172 
L 90.919809 98.623182 
L 108.00689 98.631194 
L 125.093971 98.639207 
L 142.181053 98.647221 
L 159.268134 98.655237 
L 176.355215 98.663255 
L 193.442297 98.671274 
L 210.529378 98.679295 
L 227.616459 98.687317 
L 244.703541 98.69534 
L 261.790622 98.703366 
L 278.877703 98.711392 
L 295.964785 98.719421 
L 313.051866 98.72745 
L 330.138947 98.735482 
L 347.226029 98.743515 
L 364.31311 98.751549 
L 381.400191 98.759585 
L 398.487273 98.767622 
" clip-path="url(#p111fad15ac)" style="fill: none; stroke: #d62728; stroke-width: 1.5; stroke-linecap: square"/>
   </g>
   <g id="line2d_40">
    <path d="M 73.832727 122.622719 
L 90.919809 122.622871 
L 108.00689 122.623175 
L 125.093971 122.623631 
L 142.181053 122.624238 
L 159.268134 122.624998 
L 176.355215 122.625909 
L 193.442297 122.626973 
L 210.529378 122.628188 
L 227.616459 122.629556 
L 244.703541 122.631075 
L 261.790622 122.632747 
L 278.877703 122.63457 
L 295.964785 122.636546 
L 313.051866 122.638673 
L 330.138947 122.640953 
L 347.226029 122.643385 
L 364.31311 122.645969 
L 381.400191 122.648705 
L 398.487273 122.651594 
" clip-path="url(#p111fad15ac)" style="fill: none; stroke: #9467bd; stroke-width: 1.5; stroke-linecap: square"/>
   </g>
   <g id="line2d_41">
    <path d="M 73.832727 136.292429 
L 90.919809 136.292441 
L 108.00689 136.292465 
L 125.093971 136.292501 
L 142.181053 136.29255 
L 159.268134 136.29261 
L 176.355215 136.292683 
L 193.442297 136.292767 
L 210.529378 136.292864 
L 227.616459 136.292973 
L 244.703541 136.293094 
L 261.790622 136.293227 
L 278.877703 136.293372 
L 295.964785 136.293529 
L 313.051866 136.293698 
L 330.138947 136.29388 
L 347.226029 136.294073 
L 364.31311 136.294278 
L 381.400191 136.294495 
L 398.487273 136.294725 
" clip-path="url(#p111fad15ac)" style="fill: none; stroke: #8c564b; stroke-width: 1.5; stroke-linecap: square"/>
   </g>
   <g id="line2d_42">
    <path d="M 73.832727 136.542268 
L 90.919809 136.542269 
L 108.00689 136.542271 
L 125.093971 136.542274 
L 142.181053 136.542278 
L 159.268134 136.542282 
L 176.355215 136.542288 
L 193.442297 136.542295 
L 210.529378 136.542302 
L 227.616459 136.542311 
L 244.703541 136.54232 
L 261.790622 136.542331 
L 278.877703 136.542342 
L 295.964785 136.542355 
L 313.051866 136.542369 
L 330.138947 136.542383 
L 347.226029 136.542399 
L 364.31311 136.542415 
L 381.400191 136.542433 
L 398.487273 136.542452 
" clip-path="url(#p111fad15ac)" style="fill: none; stroke: #e377c2; stroke-width: 1.5; stroke-linecap: square"/>
   </g>
   <g id="line2d_43">
    <path d="M 73.832727 136.547726 
L 90.919809 136.547726 
L 108.00689 136.547726 
L 125.093971 136.547726 
L 142.181053 136.547727 
L 159.268134 136.547727 
L 176.355215 136.547728 
L 193.442297 136.547728 
L 210.529378 136.547729 
L 227.616459 136.547729 
L 244.703541 136.54773 
L 261.790622 136.547731 
L 278.877703 136.547732 
L 295.964785 136.547733 
L 313.051866 136.547734 
L 330.138947 136.547735 
L 347.226029 136.547736 
L 364.31311 136.547737 
L 381.400191 136.547739 
L 398.487273 136.54774 
" clip-path="url(#p111fad15ac)" style="fill: none; stroke: #7f7f7f; stroke-width: 1.5; stroke-linecap: square"/>
   </g>
   <g id="line2d_44">
    <path d="M 73.832727 139.813207 
L 90.919809 139.810789 
L 108.00689 139.808505 
L 125.093971 139.806352 
L 142.181053 139.80433 
L 159.268134 139.802439 
L 176.355215 139.800676 
L 193.442297 139.799043 
L 210.529378 139.797537 
L 227.616459 139.796159 
L 244.703541 139.794907 
L 261.790622 139.793782 
L 278.877703 139.792784 
L 295.964785 139.79191 
L 313.051866 139.791162 
L 330.138947 139.79054 
L 347.226029 139.790041 
L 364.31311 139.789668 
L 381.400191 139.789419 
L 398.487273 139.789295 
" clip-path="url(#p111fad15ac)" style="fill: none; stroke: #bcbd22; stroke-width: 1.5; stroke-linecap: square"/>
   </g>
   <g id="line2d_45">
    <path d="M 73.832727 140.316087 
L 90.919809 140.315957 
L 108.00689 140.315832 
L 125.093971 140.315715 
L 142.181053 140.315604 
L 159.268134 140.315499 
L 176.355215 140.315401 
L 193.442297 140.31531 
L 210.529378 140.315226 
L 227.616459 140.315148 
L 244.703541 140.315078 
L 261.790622 140.315014 
L 278.877703 140.314957 
L 295.964785 140.314908 
L 313.051866 140.314865 
L 330.138947 140.31483 
L 347.226029 140.314801 
L 364.31311 140.31478 
L 381.400191 140.314766 
L 398.487273 140.314758 
" clip-path="url(#p111fad15ac)" style="fill: none; stroke: #17becf; stroke-width: 1.5; stroke-linecap: square"/>
   </g>
   <g id="line2d_46">
    <path d="M 73.832727 140.325331 
L 90.919809 140.325328 
L 108.00689 140.325325 
L 125.093971 140.325322 
L 142.181053 140.325319 
L 159.268134 140.325316 
L 176.355215 140.325314 
L 193.442297 140.325312 
L 210.529378 140.32531 
L 227.616459 140.325308 
L 244.703541 140.325306 
L 261.790622 140.325304 
L 278.877703 140.325303 
L 295.964785 140.325302 
L 313.051866 140.325301 
L 330.138947 140.3253 
L 347.226029 140.325299 
L 364.31311 140.325299 
L 381.400191 140.325298 
L 398.487273 140.325298 
" clip-path="url(#p111fad15ac)" style="fill: none; stroke: #1f77b4; stroke-width: 1.5; stroke-linecap: square"/>
   </g>
   <g id="line2d_47">
    <path d="M 73.832727 140.325511 
L 90.919809 140.325511 
L 108.00689 140.325511 
L 125.093971 140.325511 
L 142.181053 140.325511 
L 159.268134 140.325511 
L 176.355215 140.325511 
L 193.442297 140.325511 
L 210.529378 140.325511 
L 227.616459 140.325511 
L 244.703541 140.325511 
L 261.790622 140.325511 
L 278.877703 140.325511 
L 295.964785 140.325511 
L 313.051866 140.325511 
L 330.138947 140.325511 
L 347.226029 140.325511 
L 364.31311 140.325511 
L 381.400191 140.325511 
L 398.487273 140.325511 
" clip-path="url(#p111fad15ac)" style="fill: none; stroke: #ff7f0e; stroke-width: 1.5; stroke-linecap: square"/>
   </g>
   <g id="line2d_48">
    <path d="M 73.832727 140.325517 
L 90.919809 140.325517 
L 108.00689 140.325517 
L 125.093971 140.325517 
L 142.181053 140.325517 
L 159.268134 140.325517 
L 176.355215 140.325517 
L 193.442297 140.325517 
L 210.529378 140.325517 
L 227.616459 140.325517 
L 244.703541 140.325517 
L 261.790622 140.325517 
L 278.877703 140.325517 
L 295.964785 140.325517 
L 313.051866 140.325517 
L 330.138947 140.325517 
L 347.226029 140.325517 
L 364.31311 140.325517 
L 381.400191 140.325517 
L 398.487273 140.325517 
" clip-path="url(#p111fad15ac)" style="fill: none; stroke: #2ca02c; stroke-width: 1.5; stroke-linecap: square"/>
   </g>
   <g id="patch_10">
    <path d="M 57.6 142.411034 
L 57.6 96.529655 
" style="fill: none; stroke: #000000; stroke-width: 0.8; stroke-linejoin: miter; stroke-linecap: square"/>
   </g>
   <g id="patch_11">
    <path d="M 414.72 142.411034 
L 414.72 96.529655 
" style="fill: none; stroke: #000000; stroke-width: 0.8; stroke-linejoin: miter; stroke-linecap: square"/>
   </g>
   <g id="patch_12">
    <path d="M 57.6 142.411034 
L 414.72 142.411034 
" style="fill: none; stroke: #000000; stroke-width: 0.8; stroke-linejoin: miter; stroke-linecap: square"/>
   </g>
   <g id="patch_13">
    <path d="M 57.6 96.529655 
L 414.72 96.529655 
" style="fill: none; stroke: #000000; stroke-width: 0.8; stroke-linejoin: miter; stroke-linecap: square"/>
   </g>
   <g id="text_10">
    <!-- Pressure - Container 1 -->
    <g transform="translate(169.523438 93.529655)scale(0.12 -0.12)">
     <defs>
      <path id="DejaVuSans-50" d="M 1259 4147 
L 1259 2394 
L 2053 2394 
Q 2494 2394 2734 2622 
Q 2975 2850 2975 3272 
Q 2975 3691 2734 3919 
Q 2494 4147 2053 4147 
L 1259 4147 
z
M 628 4666 
L 2053 4666 
Q 2838 4666 3239 4311 
Q 3641 3956 3641 3272 
Q 3641 2581 3239 2228 
Q 2838 1875 2053 1875 
L 1259 1875 
L 1259 0 
L 628 0 
L 628 4666 
z
" transform="scale(0.015625)"/>
      <path id="DejaVuSans-75" d="M 544 1381 
L 544 3500 
L 1119 3500 
L 1119 1403 
Q 1119 906 1312 657 
Q 1506 409 1894 409 
Q 2359 409 2629 706 
Q 2900 1003 2900 1516 
L 2900 3500 
L 3475 3500 
L 3475 0 
L 2900 0 
L 2900 538 
Q 2691 219 2414 64 
Q 2138 -91 1772 -91 
Q 1169 -91 856 284 
Q 544 659 544 1381 
z
M 1991 3584 
L 1991 3584 
z
" transform="scale(0.015625)"/>
     </defs>
     <use xlink:href="#DejaVuSans-50"/>
     <use xlink:href="#DejaVuSans-72" x="58.552734"/>
     <use xlink:href="#DejaVuSans-65" x="97.416016"/>
     <use xlink:href="#DejaVuSans-73" x="158.939453"/>
     <use xlink:href="#DejaVuSans-73" x="211.039062"/>
     <use xlink:href="#DejaVuSans-75" x="263.138672"/>
     <use xlink:href="#DejaVuSans-72" x="326.517578"/>
     <use xlink:href="#DejaVuSans-65" x="365.380859"/>
     <use xlink:href="#DejaVuSans-20" x="426.904297"/>
     <use xlink:href="#DejaVuSans-2d" x="458.691406"/>
     <use xlink:href="#DejaVuSans-20" x="494.775391"/>
     <use xlink:href="#DejaVuSans-43" x="526.5625"/>
     <use xlink:href="#DejaVuSans-6f" x="596.386719"/>
     <use xlink:href="#DejaVuSans-6e" x="657.568359"/>
     <use xlink:href="#DejaVuSans-74" x="720.947266"/>
     <use xlink:href="#DejaVuSans-61" x="760.15625"/>
     <use xlink:href="#DejaVuSans-69" x="821.435547"/>
     <use xlink:href="#DejaVuSans-6e" x="849.21875"/>
     <use xlink:href="#DejaVuSans-65" x="912.597656"/>
     <use xlink:href="#DejaVuSans-72" x="974.121094"/>
     <use xlink:href="#DejaVuSans-20" x="1015.234375"/>
     <use xlink:href="#DejaVuSans-31" x="1047.021484"/>
    </g>
   </g>
  </g>
  <g id="axes_4">
   <g id="patch_14">
    <path d="M 57.6 197.46869 
L 414.72 197.46869 
L 414.72 151.58731 
L 57.6 151.58731 
z
" style="fill: #ffffff"/>
   </g>
   <g id="matplotlib.axis_7">
    <g id="xtick_17">
     <g id="line2d_49">
      <g>
       <use xlink:href="#mbf1df3136e" x="73.832727" y="197.46869" style="stroke: #000000; stroke-width: 0.8"/>
      </g>
     </g>
    </g>
    <g id="xtick_18">
     <g id="line2d_50">
      <g>
       <use xlink:href="#mbf1df3136e" x="116.550431" y="197.46869" style="stroke: #000000; stroke-width: 0.8"/>
      </g>
     </g>
    </g>
    <g id="xtick_19">
     <g id="line2d_51">
      <g>
       <use xlink:href="#mbf1df3136e" x="159.268134" y="197.46869" style="stroke: #000000; stroke-width: 0.8"/>
      </g>
     </g>
    </g>
    <g id="xtick_20">
     <g id="line2d_52">
      <g>
       <use xlink:href="#mbf1df3136e" x="201.985837" y="197.46869" style="stroke: #000000; stroke-width: 0.8"/>
      </g>
     </g>
    </g>
    <g id="xtick_21">
     <g id="line2d_53">
      <g>
       <use xlink:href="#mbf1df3136e" x="244.703541" y="197.46869" style="stroke: #000000; stroke-width: 0.8"/>
      </g>
     </g>
    </g>
    <g id="xtick_22">
     <g id="line2d_54">
      <g>
       <use xlink:href="#mbf1df3136e" x="287.421244" y="197.46869" style="stroke: #000000; stroke-width: 0.8"/>
      </g>
     </g>
    </g>
    <g id="xtick_23">
     <g id="line2d_55">
      <g>
       <use xlink:href="#mbf1df3136e" x="330.138947" y="197.46869" style="stroke: #000000; stroke-width: 0.8"/>
      </g>
     </g>
    </g>
    <g id="xtick_24">
     <g id="line2d_56">
      <g>
       <use xlink:href="#mbf1df3136e" x="372.856651" y="197.46869" style="stroke: #000000; stroke-width: 0.8"/>
      </g>
     </g>
    </g>
   </g>
   <g id="matplotlib.axis_8">
    <g id="ytick_7">
     <g id="line2d_57">
      <g>
       <use xlink:href="#m3ead5267c9" x="57.6" y="180.372089" style="stroke: #000000; stroke-width: 0.8"/>
      </g>
     </g>
     <g id="text_11">
      <!-- 0.1 -->
      <g transform="translate(34.696875 184.171308)scale(0.1 -0.1)">
       <defs>
        <path id="DejaVuSans-2e" d="M 684 794 
L 1344 794 
L 1344 0 
L 684 0 
L 684 794 
z
" transform="scale(0.015625)"/>
       </defs>
       <use xlink:href="#DejaVuSans-30"/>
       <use xlink:href="#DejaVuSans-2e" x="63.623047"/>
       <use xlink:href="#DejaVuSans-31" x="95.410156"/>
      </g>
     </g>
    </g>
    <g id="ytick_8">
     <g id="line2d_58">
      <g>
       <use xlink:href="#m3ead5267c9" x="57.6" y="154.54301" style="stroke: #000000; stroke-width: 0.8"/>
      </g>
     </g>
     <g id="text_12">
      <!-- 0.2 -->
      <g transform="translate(34.696875 158.342229)scale(0.1 -0.1)">
       <defs>
        <path id="DejaVuSans-32" d="M 1228 531 
L 3431 531 
L 3431 0 
L 469 0 
L 469 531 
Q 828 903 1448 1529 
Q 2069 2156 2228 2338 
Q 2531 2678 2651 2914 
Q 2772 3150 2772 3378 
Q 2772 3750 2511 3984 
Q 2250 4219 1831 4219 
Q 1534 4219 1204 4116 
Q 875 4013 500 3803 
L 500 4441 
Q 881 4594 1212 4672 
Q 1544 4750 1819 4750 
Q 2544 4750 2975 4387 
Q 3406 4025 3406 3419 
Q 3406 3131 3298 2873 
Q 3191 2616 2906 2266 
Q 2828 2175 2409 1742 
Q 1991 1309 1228 531 
z
" transform="scale(0.015625)"/>
       </defs>
       <use xlink:href="#DejaVuSans-30"/>
       <use xlink:href="#DejaVuSans-2e" x="63.623047"/>
       <use xlink:href="#DejaVuSans-32" x="95.410156"/>
      </g>
     </g>
    </g>
   </g>
   <g id="line2d_59">
    <path d="M 73.832727 153.955357 
L 90.919809 153.94161 
L 108.00689 153.920599 
L 125.093971 153.897488 
L 142.181053 153.874717 
L 159.268134 153.853166 
L 176.355215 153.833097 
L 193.442297 153.81457 
L 210.529378 153.797588 
L 227.616459 153.78214 
L 244.703541 153.768211 
L 261.790622 153.755788 
L 278.877703 153.744856 
L 295.964785 153.735404 
L 313.051866 153.727418 
L 330.138947 153.720884 
L 347.226029 153.715781 
L 364.31311 153.712072 
L 381.400191 153.709693 
L 398.487273 153.708549 
" clip-path="url(#p7d13c1396e)" style="fill: none; stroke: #1f77b4; stroke-width: 1.5; stroke-linecap: square"/>
   </g>
   <g id="line2d_60">
    <path d="M 73.832727 193.237158 
L 90.919809 193.356389 
L 108.00689 193.479813 
L 125.093971 193.596379 
L 142.181053 193.708618 
L 159.268134 193.821665 
L 176.355215 193.939637 
L 193.442297 194.06533 
L 210.529378 194.200601 
L 227.616459 194.346747 
L 244.703541 194.50478 
L 261.790622 194.675473 
L 278.877703 194.858869 
L 295.964785 195.052132 
L 313.051866 195.242057 
L 330.138947 195.383172 
L 347.226029 195.351951 
L 364.31311 194.914413 
L 381.400191 193.899703 
L 398.487273 192.779132 
" clip-path="url(#p7d13c1396e)" style="fill: none; stroke: #ff7f0e; stroke-width: 1.5; stroke-linecap: square"/>
   </g>
   <g id="line2d_61">
    <path d="M 73.832727 193.28652 
L 90.919809 193.28656 
L 108.00689 193.286739 
L 125.093971 193.287069 
L 142.181053 193.287585 
L 159.268134 193.288262 
L 176.355215 193.289045 
L 193.442297 193.290038 
L 210.529378 193.291599 
L 227.616459 193.294135 
L 244.703541 193.297767 
L 261.790622 193.30221 
L 278.877703 193.307025 
L 295.964785 193.312123 
L 313.051866 193.318177 
L 330.138947 193.326698 
L 347.226029 193.339753 
L 364.31311 193.359537 
L 381.400191 193.388074 
L 398.487273 193.426522 
" clip-path="url(#p7d13c1396e)" style="fill: none; stroke: #2ca02c; stroke-width: 1.5; stroke-linecap: square"/>
   </g>
   <g id="line2d_62">
    <path d="M 73.832727 193.28663 
L 90.919809 193.286629 
L 108.00689 193.286629 
L 125.093971 193.286628 
L 142.181053 193.286626 
L 159.268134 193.286624 
L 176.355215 193.286621 
L 193.442297 193.286618 
L 210.529378 193.286613 
L 227.616459 193.286609 
L 244.703541 193.286603 
L 261.790622 193.286596 
L 278.877703 193.286588 
L 295.964785 193.286578 
L 313.051866 193.286568 
L 330.138947 193.286557 
L 347.226029 193.286546 
L 364.31311 193.286538 
L 381.400191 193.286534 
L 398.487273 193.286533 
" clip-path="url(#p7d13c1396e)" style="fill: none; stroke: #d62728; stroke-width: 1.5; stroke-linecap: square"/>
   </g>
   <g id="line2d_63">
    <path d="M 73.832727 193.213638 
L 90.919809 193.213643 
L 108.00689 193.213648 
L 125.093971 193.213652 
L 142.181053 193.213655 
L 159.268134 193.213658 
L 176.355215 193.213659 
L 193.442297 193.213658 
L 210.529378 193.213657 
L 227.616459 193.213654 
L 244.703541 193.21365 
L 261.790622 193.213645 
L 278.877703 193.213638 
L 295.964785 193.21363 
L 313.051866 193.213621 
L 330.138947 193.213611 
L 347.226029 193.2136 
L 364.31311 193.213589 
L 381.400191 193.213579 
L 398.487273 193.213568 
" clip-path="url(#p7d13c1396e)" style="fill: none; stroke: #9467bd; stroke-width: 1.5; stroke-linecap: square"/>
   </g>
   <g id="line2d_64">
    <path d="M 73.832727 190.870941 
L 90.919809 190.87094 
L 108.00689 190.870938 
L 125.093971 190.870934 
L 142.181053 190.870928 
L 159.268134 190.87092 
L 176.355215 190.870911 
L 193.442297 190.870899 
L 210.529378 190.870885 
L 227.616459 190.870869 
L 244.703541 190.870852 
L 261.790622 190.870832 
L 278.877703 190.87081 
L 295.964785 190.870787 
L 313.051866 190.870762 
L 330.138947 190.870735 
L 347.226029 190.870708 
L 364.31311 190.870679 
L 381.400191 190.870653 
L 398.487273 190.87064 
" clip-path="url(#p7d13c1396e)" style="fill: none; stroke: #8c564b; stroke-width: 1.5; stroke-linecap: square"/>
   </g>
   <g id="line2d_65">
    <path d="M 73.832727 190.513327 
L 90.919809 190.513339 
L 108.00689 190.513362 
L 125.093971 190.513397 
L 142.181053 190.513443 
L 159.268134 190.5135 
L 176.355215 190.513567 
L 193.442297 190.513646 
L 210.529378 190.513735 
L 227.616459 190.513835 
L 244.703541 190.513945 
L 261.790622 190.514067 
L 278.877703 190.514199 
L 295.964785 190.514342 
L 313.051866 190.514495 
L 330.138947 190.51466 
L 347.226029 190.514835 
L 364.31311 190.51502 
L 381.400191 190.515204 
L 398.487273 190.515348 
" clip-path="url(#p7d13c1396e)" style="fill: none; stroke: #e377c2; stroke-width: 1.5; stroke-linecap: square"/>
   </g>
   <g id="line2d_66">
    <path d="M 73.832727 190.505047 
L 90.919809 190.505059 
L 108.00689 190.505083 
L 125.093971 190.505118 
L 142.181053 190.505166 
L 159.268134 190.505224 
L 176.355215 190.505294 
L 193.442297 190.505374 
L 210.529378 190.505466 
L 227.616459 190.50557 
L 244.703541 190.505683 
L 261.790622 190.505809 
L 278.877703 190.505945 
L 295.964785 190.506092 
L 313.051866 190.50625 
L 330.138947 190.506419 
L 347.226029 190.506595 
L 364.31311 190.50677 
L 381.400191 190.506934 
L 398.487273 190.50704 
" clip-path="url(#p7d13c1396e)" style="fill: none; stroke: #7f7f7f; stroke-width: 1.5; stroke-linecap: square"/>
   </g>
   <g id="line2d_67">
    <path d="M 73.832727 177.679336 
L 90.919809 177.707971 
L 108.00689 177.735706 
L 125.093971 177.761816 
L 142.181053 177.786305 
L 159.268134 177.809192 
L 176.355215 177.830498 
L 193.442297 177.85024 
L 210.529378 177.868435 
L 227.616459 177.885097 
L 244.703541 177.90024 
L 261.790622 177.913876 
L 278.877703 177.926016 
L 295.964785 177.93667 
L 313.051866 177.945845 
L 330.138947 177.953547 
L 347.226029 177.959782 
L 364.31311 177.964551 
L 381.400191 177.967854 
L 398.487273 177.969655 
" clip-path="url(#p7d13c1396e)" style="fill: none; stroke: #bcbd22; stroke-width: 1.5; stroke-linecap: square"/>
   </g>
   <g id="line2d_68">
    <path d="M 73.832727 154.929698 
L 90.919809 154.914469 
L 108.00689 154.90029 
L 125.093971 154.887273 
L 142.181053 154.875258 
L 159.268134 154.864191 
L 176.355215 154.85404 
L 193.442297 154.844778 
L 210.529378 154.83638 
L 227.616459 154.828823 
L 244.703541 154.822085 
L 261.790622 154.816147 
L 278.877703 154.810993 
L 295.964785 154.806608 
L 313.051866 154.802977 
L 330.138947 154.800088 
L 347.226029 154.797929 
L 364.31311 154.796484 
L 381.400191 154.795718 
L 398.487273 154.795512 
" clip-path="url(#p7d13c1396e)" style="fill: none; stroke: #17becf; stroke-width: 1.5; stroke-linecap: square"/>
   </g>
   <g id="line2d_69">
    <path d="M 73.832727 153.955812 
L 90.919809 153.934256 
L 108.00689 153.908788 
L 125.093971 153.884087 
L 142.181053 153.860917 
L 159.268134 153.839348 
L 176.355215 153.819365 
L 193.442297 153.800948 
L 210.529378 153.784078 
L 227.616459 153.768735 
L 244.703541 153.754906 
L 261.790622 153.742574 
L 278.877703 153.731726 
L 295.964785 153.722352 
L 313.051866 153.714439 
L 330.138947 153.707979 
L 347.226029 153.702958 
L 364.31311 153.699354 
L 381.400191 153.697115 
L 398.487273 153.696106 
" clip-path="url(#p7d13c1396e)" style="fill: none; stroke: #1f77b4; stroke-width: 1.5; stroke-linecap: square"/>
   </g>
   <g id="line2d_70">
    <path d="M 73.832727 153.929467 
L 90.919809 153.912019 
L 108.00689 153.888135 
L 125.093971 153.863615 
L 142.181053 153.840237 
L 159.268134 153.818395 
L 176.355215 153.798143 
L 193.442297 153.779474 
L 210.529378 153.762369 
L 227.616459 153.746811 
L 244.703541 153.732785 
L 261.790622 153.720277 
L 278.877703 153.709271 
L 295.964785 153.699759 
L 313.051866 153.691727 
L 330.138947 153.685166 
L 347.226029 153.680058 
L 364.31311 153.676375 
L 381.400191 153.674053 
L 398.487273 153.672966 
" clip-path="url(#p7d13c1396e)" style="fill: none; stroke: #ff7f0e; stroke-width: 1.5; stroke-linecap: square"/>
   </g>
   <g id="line2d_71">
    <path d="M 73.832727 153.923649 
L 90.919809 153.909113 
L 108.00689 153.887157 
L 125.093971 153.863384 
L 142.181053 153.840222 
L 159.268134 153.818426 
L 176.355215 153.798177 
L 193.442297 153.779502 
L 210.529378 153.76239 
L 227.616459 153.746826 
L 244.703541 153.732793 
L 261.790622 153.720278 
L 278.877703 153.709268 
L 295.964785 153.69975 
L 313.051866 153.691714 
L 330.138947 153.685145 
L 347.226029 153.680025 
L 364.31311 153.676319 
L 381.400191 153.673956 
L 398.487273 153.672828 
" clip-path="url(#p7d13c1396e)" style="fill: none; stroke: #2ca02c; stroke-width: 1.5; stroke-linecap: square"/>
   </g>
   <g id="patch_15">
    <path d="M 57.6 197.46869 
L 57.6 151.58731 
" style="fill: none; stroke: #000000; stroke-width: 0.8; stroke-linejoin: miter; stroke-linecap: square"/>
   </g>
   <g id="patch_16">
    <path d="M 414.72 197.46869 
L 414.72 151.58731 
" style="fill: none; stroke: #000000; stroke-width: 0.8; stroke-linejoin: miter; stroke-linecap: square"/>
   </g>
   <g id="patch_17">
    <path d="M 57.6 197.46869 
L 414.72 197.46869 
" style="fill: none; stroke: #000000; stroke-width: 0.8; stroke-linejoin: miter; stroke-linecap: square"/>
   </g>
   <g id="patch_18">
    <path d="M 57.6 151.58731 
L 414.72 151.58731 
" style="fill: none; stroke: #000000; stroke-width: 0.8; stroke-linejoin: miter; stroke-linecap: square"/>
   </g>
   <g id="text_13">
    <!-- yA - Container 1 -->
    <g transform="translate(187.48125 148.58731)scale(0.12 -0.12)">
     <defs>
      <path id="DejaVuSans-41" d="M 2188 4044 
L 1331 1722 
L 3047 1722 
L 2188 4044 
z
M 1831 4666 
L 2547 4666 
L 4325 0 
L 3669 0 
L 3244 1197 
L 1141 1197 
L 716 0 
L 50 0 
L 1831 4666 
z
" transform="scale(0.015625)"/>
     </defs>
     <use xlink:href="#DejaVuSans-79"/>
     <use xlink:href="#DejaVuSans-41" x="59.179688"/>
     <use xlink:href="#DejaVuSans-20" x="127.587891"/>
     <use xlink:href="#DejaVuSans-2d" x="159.375"/>
     <use xlink:href="#DejaVuSans-20" x="195.458984"/>
     <use xlink:href="#DejaVuSans-43" x="227.246094"/>
     <use xlink:href="#DejaVuSans-6f" x="297.070312"/>
     <use xlink:href="#DejaVuSans-6e" x="358.251953"/>
     <use xlink:href="#DejaVuSans-74" x="421.630859"/>
     <use xlink:href="#DejaVuSans-61" x="460.839844"/>
     <use xlink:href="#DejaVuSans-69" x="522.119141"/>
     <use xlink:href="#DejaVuSans-6e" x="549.902344"/>
     <use xlink:href="#DejaVuSans-65" x="613.28125"/>
     <use xlink:href="#DejaVuSans-72" x="674.804688"/>
     <use xlink:href="#DejaVuSans-20" x="715.917969"/>
     <use xlink:href="#DejaVuSans-31" x="747.705078"/>
    </g>
   </g>
  </g>
  <g id="axes_5">
   <g id="patch_19">
    <path d="M 57.6 252.526345 
L 414.72 252.526345 
L 414.72 206.644966 
L 57.6 206.644966 
z
" style="fill: #ffffff"/>
   </g>
   <g id="matplotlib.axis_9">
    <g id="xtick_25">
     <g id="line2d_72">
      <g>
       <use xlink:href="#mbf1df3136e" x="73.832727" y="252.526345" style="stroke: #000000; stroke-width: 0.8"/>
      </g>
     </g>
    </g>
    <g id="xtick_26">
     <g id="line2d_73">
      <g>
       <use xlink:href="#mbf1df3136e" x="116.550431" y="252.526345" style="stroke: #000000; stroke-width: 0.8"/>
      </g>
     </g>
    </g>
    <g id="xtick_27">
     <g id="line2d_74">
      <g>
       <use xlink:href="#mbf1df3136e" x="159.268134" y="252.526345" style="stroke: #000000; stroke-width: 0.8"/>
      </g>
     </g>
    </g>
    <g id="xtick_28">
     <g id="line2d_75">
      <g>
       <use xlink:href="#mbf1df3136e" x="201.985837" y="252.526345" style="stroke: #000000; stroke-width: 0.8"/>
      </g>
     </g>
    </g>
    <g id="xtick_29">
     <g id="line2d_76">
      <g>
       <use xlink:href="#mbf1df3136e" x="244.703541" y="252.526345" style="stroke: #000000; stroke-width: 0.8"/>
      </g>
     </g>
    </g>
    <g id="xtick_30">
     <g id="line2d_77">
      <g>
       <use xlink:href="#mbf1df3136e" x="287.421244" y="252.526345" style="stroke: #000000; stroke-width: 0.8"/>
      </g>
     </g>
    </g>
    <g id="xtick_31">
     <g id="line2d_78">
      <g>
       <use xlink:href="#mbf1df3136e" x="330.138947" y="252.526345" style="stroke: #000000; stroke-width: 0.8"/>
      </g>
     </g>
    </g>
    <g id="xtick_32">
     <g id="line2d_79">
      <g>
       <use xlink:href="#mbf1df3136e" x="372.856651" y="252.526345" style="stroke: #000000; stroke-width: 0.8"/>
      </g>
     </g>
    </g>
   </g>
   <g id="matplotlib.axis_10">
    <g id="ytick_9">
     <g id="line2d_80">
      <g>
       <use xlink:href="#m3ead5267c9" x="57.6" y="237.961265" style="stroke: #000000; stroke-width: 0.8"/>
      </g>
     </g>
     <g id="text_14">
      <!-- 0.8 -->
      <g transform="translate(34.696875 241.760484)scale(0.1 -0.1)">
       <defs>
        <path id="DejaVuSans-38" d="M 2034 2216 
Q 1584 2216 1326 1975 
Q 1069 1734 1069 1313 
Q 1069 891 1326 650 
Q 1584 409 2034 409 
Q 2484 409 2743 651 
Q 3003 894 3003 1313 
Q 3003 1734 2745 1975 
Q 2488 2216 2034 2216 
z
M 1403 2484 
Q 997 2584 770 2862 
Q 544 3141 544 3541 
Q 544 4100 942 4425 
Q 1341 4750 2034 4750 
Q 2731 4750 3128 4425 
Q 3525 4100 3525 3541 
Q 3525 3141 3298 2862 
Q 3072 2584 2669 2484 
Q 3125 2378 3379 2068 
Q 3634 1759 3634 1313 
Q 3634 634 3220 271 
Q 2806 -91 2034 -91 
Q 1263 -91 848 271 
Q 434 634 434 1313 
Q 434 1759 690 2068 
Q 947 2378 1403 2484 
z
M 1172 3481 
Q 1172 3119 1398 2916 
Q 1625 2713 2034 2713 
Q 2441 2713 2670 2916 
Q 2900 3119 2900 3481 
Q 2900 3844 2670 4047 
Q 2441 4250 2034 4250 
Q 1625 4250 1398 4047 
Q 1172 3844 1172 3481 
z
" transform="scale(0.015625)"/>
       </defs>
       <use xlink:href="#DejaVuSans-30"/>
       <use xlink:href="#DejaVuSans-2e" x="63.623047"/>
       <use xlink:href="#DejaVuSans-38" x="95.410156"/>
      </g>
     </g>
    </g>
    <g id="ytick_10">
     <g id="line2d_81">
      <g>
       <use xlink:href="#m3ead5267c9" x="57.6" y="210.82619" style="stroke: #000000; stroke-width: 0.8"/>
      </g>
     </g>
     <g id="text_15">
      <!-- 0.9 -->
      <g transform="translate(34.696875 214.625409)scale(0.1 -0.1)">
       <defs>
        <path id="DejaVuSans-39" d="M 703 97 
L 703 672 
Q 941 559 1184 500 
Q 1428 441 1663 441 
Q 2288 441 2617 861 
Q 2947 1281 2994 2138 
Q 2813 1869 2534 1725 
Q 2256 1581 1919 1581 
Q 1219 1581 811 2004 
Q 403 2428 403 3163 
Q 403 3881 828 4315 
Q 1253 4750 1959 4750 
Q 2769 4750 3195 4129 
Q 3622 3509 3622 2328 
Q 3622 1225 3098 567 
Q 2575 -91 1691 -91 
Q 1453 -91 1209 -44 
Q 966 3 703 97 
z
M 1959 2075 
Q 2384 2075 2632 2365 
Q 2881 2656 2881 3163 
Q 2881 3666 2632 3958 
Q 2384 4250 1959 4250 
Q 1534 4250 1286 3958 
Q 1038 3666 1038 3163 
Q 1038 2656 1286 2365 
Q 1534 2075 1959 2075 
z
" transform="scale(0.015625)"/>
       </defs>
       <use xlink:href="#DejaVuSans-30"/>
       <use xlink:href="#DejaVuSans-2e" x="63.623047"/>
       <use xlink:href="#DejaVuSans-39" x="95.410156"/>
      </g>
     </g>
    </g>
   </g>
   <g id="line2d_82">
    <path d="M 73.832727 250.159004 
L 90.919809 250.172693 
L 108.00689 250.193626 
L 125.093971 250.216663 
L 142.181053 250.239374 
L 159.268134 250.260877 
L 176.355215 250.280909 
L 193.442297 250.299404 
L 210.529378 250.316358 
L 227.616459 250.331782 
L 244.703541 250.34569 
L 261.790622 250.358095 
L 278.877703 250.369011 
L 295.964785 250.37845 
L 313.051866 250.386424 
L 330.138947 250.39295 
L 347.226029 250.398046 
L 364.31311 250.401751 
L 381.400191 250.404127 
L 398.487273 250.405271 
" clip-path="url(#p6ace984c00)" style="fill: none; stroke: #1f77b4; stroke-width: 1.5; stroke-linecap: square"/>
   </g>
   <g id="line2d_83">
    <path d="M 73.832727 210.875676 
L 90.919809 210.756695 
L 108.00689 210.6335 
L 125.093971 210.517137 
L 142.181053 210.405087 
L 159.268134 210.292221 
L 176.355215 210.174425 
L 193.442297 210.048898 
L 210.529378 209.913779 
L 227.616459 209.767762 
L 244.703541 209.609822 
L 261.790622 209.439169 
L 278.877703 209.255735 
L 295.964785 209.062316 
L 313.051866 208.872076 
L 330.138947 208.730483 
L 347.226029 208.761171 
L 364.31311 209.198374 
L 381.400191 210.213119 
L 398.487273 211.333915 
" clip-path="url(#p6ace984c00)" style="fill: none; stroke: #ff7f0e; stroke-width: 1.5; stroke-linecap: square"/>
   </g>
   <g id="line2d_84">
    <path d="M 73.832727 210.826298 
L 90.919809 210.826259 
L 108.00689 210.826081 
L 125.093971 210.825756 
L 142.181053 210.825247 
L 159.268134 210.824578 
L 176.355215 210.823806 
L 193.442297 210.822827 
L 210.529378 210.821284 
L 227.616459 210.818771 
L 244.703541 210.815165 
L 261.790622 210.810754 
L 278.877703 210.805976 
L 295.964785 210.800921 
L 313.051866 210.794917 
L 330.138947 210.786454 
L 347.226029 210.773464 
L 364.31311 210.75375 
L 381.400191 210.725286 
L 398.487273 210.686915 
" clip-path="url(#p6ace984c00)" style="fill: none; stroke: #2ca02c; stroke-width: 1.5; stroke-linecap: square"/>
   </g>
   <g id="line2d_85">
    <path d="M 73.832727 210.82619 
L 90.919809 210.82619 
L 108.00689 210.826191 
L 125.093971 210.826192 
L 142.181053 210.826193 
L 159.268134 210.826196 
L 176.355215 210.826198 
L 193.442297 210.826202 
L 210.529378 210.826206 
L 227.616459 210.826211 
L 244.703541 210.826216 
L 261.790622 210.826223 
L 278.877703 210.826231 
L 295.964785 210.82624 
L 313.051866 210.826251 
L 330.138947 210.826262 
L 347.226029 210.826272 
L 364.31311 210.82628 
L 381.400191 210.826284 
L 398.487273 210.826285 
" clip-path="url(#p6ace984c00)" style="fill: none; stroke: #d62728; stroke-width: 1.5; stroke-linecap: square"/>
   </g>
   <g id="line2d_86">
    <path d="M 73.832727 210.898857 
L 90.919809 210.898852 
L 108.00689 210.898847 
L 125.093971 210.898843 
L 142.181053 210.898839 
L 159.268134 210.898837 
L 176.355215 210.898836 
L 193.442297 210.898836 
L 210.529378 210.898838 
L 227.616459 210.898841 
L 244.703541 210.898845 
L 261.790622 210.89885 
L 278.877703 210.898856 
L 295.964785 210.898864 
L 313.051866 210.898874 
L 330.138947 210.898884 
L 347.226029 210.898894 
L 364.31311 210.898905 
L 381.400191 210.898915 
L 398.487273 210.898926 
" clip-path="url(#p6ace984c00)" style="fill: none; stroke: #9467bd; stroke-width: 1.5; stroke-linecap: square"/>
   </g>
   <g id="line2d_87">
    <path d="M 73.832727 213.236656 
L 90.919809 213.236657 
L 108.00689 213.236659 
L 125.093971 213.236663 
L 142.181053 213.236669 
L 159.268134 213.236677 
L 176.355215 213.236686 
L 193.442297 213.236698 
L 210.529378 213.236712 
L 227.616459 213.236728 
L 244.703541 213.236746 
L 261.790622 213.236766 
L 278.877703 213.236788 
L 295.964785 213.236811 
L 313.051866 213.236837 
L 330.138947 213.236863 
L 347.226029 213.236891 
L 364.31311 213.23692 
L 381.400191 213.236946 
L 398.487273 213.236959 
" clip-path="url(#p6ace984c00)" style="fill: none; stroke: #8c564b; stroke-width: 1.5; stroke-linecap: square"/>
   </g>
   <g id="line2d_88">
    <path d="M 73.832727 213.595229 
L 90.919809 213.595217 
L 108.00689 213.595194 
L 125.093971 213.595159 
L 142.181053 213.595113 
L 159.268134 213.595056 
L 176.355215 213.594989 
L 193.442297 213.594911 
L 210.529378 213.594821 
L 227.616459 213.594722 
L 244.703541 213.594612 
L 261.790622 213.59449 
L 278.877703 213.594359 
L 295.964785 213.594216 
L 313.051866 213.594063 
L 330.138947 213.593898 
L 347.226029 213.593723 
L 364.31311 213.593538 
L 381.400191 213.593355 
L 398.487273 213.593211 
" clip-path="url(#p6ace984c00)" style="fill: none; stroke: #e377c2; stroke-width: 1.5; stroke-linecap: square"/>
   </g>
   <g id="line2d_89">
    <path d="M 73.832727 213.60355 
L 90.919809 213.603538 
L 108.00689 213.603514 
L 125.093971 213.603478 
L 142.181053 213.603431 
L 159.268134 213.603373 
L 176.355215 213.603303 
L 193.442297 213.603223 
L 210.529378 213.603131 
L 227.616459 213.603028 
L 244.703541 213.602914 
L 261.790622 213.602789 
L 278.877703 213.602653 
L 295.964785 213.602506 
L 313.051866 213.602348 
L 330.138947 213.602179 
L 347.226029 213.602003 
L 364.31311 213.601828 
L 381.400191 213.601668 
L 398.487273 213.601562 
" clip-path="url(#p6ace984c00)" style="fill: none; stroke: #7f7f7f; stroke-width: 1.5; stroke-linecap: square"/>
   </g>
   <g id="line2d_90">
    <path d="M 73.832727 226.410116 
L 90.919809 226.381546 
L 108.00689 226.353875 
L 125.093971 226.327824 
L 142.181053 226.303391 
L 159.268134 226.280556 
L 176.355215 226.259299 
L 193.442297 226.239603 
L 210.529378 226.22145 
L 227.616459 226.204827 
L 244.703541 226.189719 
L 261.790622 226.176116 
L 278.877703 226.164004 
L 295.964785 226.153377 
L 313.051866 226.144225 
L 330.138947 226.136543 
L 347.226029 226.130325 
L 364.31311 226.125569 
L 381.400191 226.122278 
L 398.487273 226.120483 
" clip-path="url(#p6ace984c00)" style="fill: none; stroke: #bcbd22; stroke-width: 1.5; stroke-linecap: square"/>
   </g>
   <g id="line2d_91">
    <path d="M 73.832727 249.180672 
L 90.919809 249.195851 
L 108.00689 249.209987 
L 125.093971 249.222964 
L 142.181053 249.234943 
L 159.268134 249.245977 
L 176.355215 249.256096 
L 193.442297 249.26533 
L 210.529378 249.273703 
L 227.616459 249.281238 
L 244.703541 249.287955 
L 261.790622 249.293875 
L 278.877703 249.299013 
L 295.964785 249.303386 
L 313.051866 249.307006 
L 330.138947 249.309886 
L 347.226029 249.312039 
L 364.31311 249.31348 
L 381.400191 249.314245 
L 398.487273 249.31445 
" clip-path="url(#p6ace984c00)" style="fill: none; stroke: #17becf; stroke-width: 1.5; stroke-linecap: square"/>
   </g>
   <g id="line2d_92">
    <path d="M 73.832727 250.158194 
L 90.919809 250.179676 
L 108.00689 250.205079 
L 125.093971 250.22973 
L 142.181053 250.252859 
L 159.268134 250.274392 
L 176.355215 250.294341 
L 193.442297 250.312728 
L 210.529378 250.329571 
L 227.616459 250.344889 
L 244.703541 250.358696 
L 261.790622 250.371009 
L 278.877703 250.381839 
L 295.964785 250.391199 
L 313.051866 250.3991 
L 330.138947 250.405551 
L 347.226029 250.410566 
L 364.31311 250.414165 
L 381.400191 250.416402 
L 398.487273 250.417411 
" clip-path="url(#p6ace984c00)" style="fill: none; stroke: #1f77b4; stroke-width: 1.5; stroke-linecap: square"/>
   </g>
   <g id="line2d_93">
    <path d="M 73.832727 250.184704 
L 90.919809 250.202082 
L 108.00689 250.225886 
L 125.093971 250.250342 
L 142.181053 250.27367 
L 159.268134 250.295473 
L 176.355215 250.315691 
L 193.442297 250.33433 
L 210.529378 250.351408 
L 227.616459 250.366941 
L 244.703541 250.380945 
L 261.790622 250.393435 
L 278.877703 250.404424 
L 295.964785 250.413922 
L 313.051866 250.421942 
L 330.138947 250.428495 
L 347.226029 250.433596 
L 364.31311 250.437275 
L 381.400191 250.439596 
L 398.487273 250.440682 
" clip-path="url(#p6ace984c00)" style="fill: none; stroke: #ff7f0e; stroke-width: 1.5; stroke-linecap: square"/>
   </g>
   <g id="line2d_94">
    <path d="M 73.832727 250.190555 
L 90.919809 250.205028 
L 108.00689 250.226902 
L 125.093971 250.2506 
L 142.181053 250.273704 
L 159.268134 250.295454 
L 176.355215 250.315665 
L 193.442297 250.334309 
L 210.529378 250.351394 
L 227.616459 250.366934 
L 244.703541 250.380944 
L 261.790622 250.39344 
L 278.877703 250.404434 
L 295.964785 250.413938 
L 313.051866 250.421963 
L 330.138947 250.428523 
L 347.226029 250.433637 
L 364.31311 250.437339 
L 381.400191 250.4397 
L 398.487273 250.440828 
" clip-path="url(#p6ace984c00)" style="fill: none; stroke: #2ca02c; stroke-width: 1.5; stroke-linecap: square"/>
   </g>
   <g id="patch_20">
    <path d="M 57.6 252.526345 
L 57.6 206.644966 
" style="fill: none; stroke: #000000; stroke-width: 0.8; stroke-linejoin: miter; stroke-linecap: square"/>
   </g>
   <g id="patch_21">
    <path d="M 414.72 252.526345 
L 414.72 206.644966 
" style="fill: none; stroke: #000000; stroke-width: 0.8; stroke-linejoin: miter; stroke-linecap: square"/>
   </g>
   <g id="patch_22">
    <path d="M 57.6 252.526345 
L 414.72 252.526345 
" style="fill: none; stroke: #000000; stroke-width: 0.8; stroke-linejoin: miter; stroke-linecap: square"/>
   </g>
   <g id="patch_23">
    <path d="M 57.6 206.644966 
L 414.72 206.644966 
" style="fill: none; stroke: #000000; stroke-width: 0.8; stroke-linejoin: miter; stroke-linecap: square"/>
   </g>
   <g id="text_16">
    <!-- yB - Container 1 -->
    <g transform="translate(187.469063 203.644966)scale(0.12 -0.12)">
     <defs>
      <path id="DejaVuSans-42" d="M 1259 2228 
L 1259 519 
L 2272 519 
Q 2781 519 3026 730 
Q 3272 941 3272 1375 
Q 3272 1813 3026 2020 
Q 2781 2228 2272 2228 
L 1259 2228 
z
M 1259 4147 
L 1259 2741 
L 2194 2741 
Q 2656 2741 2882 2914 
Q 3109 3088 3109 3444 
Q 3109 3797 2882 3972 
Q 2656 4147 2194 4147 
L 1259 4147 
z
M 628 4666 
L 2241 4666 
Q 2963 4666 3353 4366 
Q 3744 4066 3744 3513 
Q 3744 3084 3544 2831 
Q 3344 2578 2956 2516 
Q 3422 2416 3680 2098 
Q 3938 1781 3938 1306 
Q 3938 681 3513 340 
Q 3088 0 2303 0 
L 628 0 
L 628 4666 
z
" transform="scale(0.015625)"/>
     </defs>
     <use xlink:href="#DejaVuSans-79"/>
     <use xlink:href="#DejaVuSans-42" x="59.179688"/>
     <use xlink:href="#DejaVuSans-20" x="127.783203"/>
     <use xlink:href="#DejaVuSans-2d" x="159.570312"/>
     <use xlink:href="#DejaVuSans-20" x="195.654297"/>
     <use xlink:href="#DejaVuSans-43" x="227.441406"/>
     <use xlink:href="#DejaVuSans-6f" x="297.265625"/>
     <use xlink:href="#DejaVuSans-6e" x="358.447266"/>
     <use xlink:href="#DejaVuSans-74" x="421.826172"/>
     <use xlink:href="#DejaVuSans-61" x="461.035156"/>
     <use xlink:href="#DejaVuSans-69" x="522.314453"/>
     <use xlink:href="#DejaVuSans-6e" x="550.097656"/>
     <use xlink:href="#DejaVuSans-65" x="613.476562"/>
     <use xlink:href="#DejaVuSans-72" x="675"/>
     <use xlink:href="#DejaVuSans-20" x="716.113281"/>
     <use xlink:href="#DejaVuSans-31" x="747.900391"/>
    </g>
   </g>
  </g>
  <g id="axes_6">
   <g id="patch_24">
    <path d="M 57.6 307.584 
L 414.72 307.584 
L 414.72 261.702621 
L 57.6 261.702621 
z
" style="fill: #ffffff"/>
   </g>
   <g id="matplotlib.axis_11">
    <g id="xtick_33">
     <g id="line2d_95">
      <g>
       <use xlink:href="#mbf1df3136e" x="73.832727" y="307.584" style="stroke: #000000; stroke-width: 0.8"/>
      </g>
     </g>
     <g id="text_17">
      <!-- 0.0 -->
      <g transform="translate(65.881165 322.182437)scale(0.1 -0.1)">
       <use xlink:href="#DejaVuSans-30"/>
       <use xlink:href="#DejaVuSans-2e" x="63.623047"/>
       <use xlink:href="#DejaVuSans-30" x="95.410156"/>
      </g>
     </g>
    </g>
    <g id="xtick_34">
     <g id="line2d_96">
      <g>
       <use xlink:href="#mbf1df3136e" x="116.550431" y="307.584" style="stroke: #000000; stroke-width: 0.8"/>
      </g>
     </g>
     <g id="text_18">
      <!-- 2.5 -->
      <g transform="translate(108.598868 322.182437)scale(0.1 -0.1)">
       <defs>
        <path id="DejaVuSans-35" d="M 691 4666 
L 3169 4666 
L 3169 4134 
L 1269 4134 
L 1269 2991 
Q 1406 3038 1543 3061 
Q 1681 3084 1819 3084 
Q 2600 3084 3056 2656 
Q 3513 2228 3513 1497 
Q 3513 744 3044 326 
Q 2575 -91 1722 -91 
Q 1428 -91 1123 -41 
Q 819 9 494 109 
L 494 744 
Q 775 591 1075 516 
Q 1375 441 1709 441 
Q 2250 441 2565 725 
Q 2881 1009 2881 1497 
Q 2881 1984 2565 2268 
Q 2250 2553 1709 2553 
Q 1456 2553 1204 2497 
Q 953 2441 691 2322 
L 691 4666 
z
" transform="scale(0.015625)"/>
       </defs>
       <use xlink:href="#DejaVuSans-32"/>
       <use xlink:href="#DejaVuSans-2e" x="63.623047"/>
       <use xlink:href="#DejaVuSans-35" x="95.410156"/>
      </g>
     </g>
    </g>
    <g id="xtick_35">
     <g id="line2d_97">
      <g>
       <use xlink:href="#mbf1df3136e" x="159.268134" y="307.584" style="stroke: #000000; stroke-width: 0.8"/>
      </g>
     </g>
     <g id="text_19">
      <!-- 5.0 -->
      <g transform="translate(151.316571 322.182437)scale(0.1 -0.1)">
       <use xlink:href="#DejaVuSans-35"/>
       <use xlink:href="#DejaVuSans-2e" x="63.623047"/>
       <use xlink:href="#DejaVuSans-30" x="95.410156"/>
      </g>
     </g>
    </g>
    <g id="xtick_36">
     <g id="line2d_98">
      <g>
       <use xlink:href="#mbf1df3136e" x="201.985837" y="307.584" style="stroke: #000000; stroke-width: 0.8"/>
      </g>
     </g>
     <g id="text_20">
      <!-- 7.5 -->
      <g transform="translate(194.034275 322.182437)scale(0.1 -0.1)">
       <defs>
        <path id="DejaVuSans-37" d="M 525 4666 
L 3525 4666 
L 3525 4397 
L 1831 0 
L 1172 0 
L 2766 4134 
L 525 4134 
L 525 4666 
z
" transform="scale(0.015625)"/>
       </defs>
       <use xlink:href="#DejaVuSans-37"/>
       <use xlink:href="#DejaVuSans-2e" x="63.623047"/>
       <use xlink:href="#DejaVuSans-35" x="95.410156"/>
      </g>
     </g>
    </g>
    <g id="xtick_37">
     <g id="line2d_99">
      <g>
       <use xlink:href="#mbf1df3136e" x="244.703541" y="307.584" style="stroke: #000000; stroke-width: 0.8"/>
      </g>
     </g>
     <g id="text_21">
      <!-- 10.0 -->
      <g transform="translate(233.570728 322.182437)scale(0.1 -0.1)">
       <use xlink:href="#DejaVuSans-31"/>
       <use xlink:href="#DejaVuSans-30" x="63.623047"/>
       <use xlink:href="#DejaVuSans-2e" x="127.246094"/>
       <use xlink:href="#DejaVuSans-30" x="159.033203"/>
      </g>
     </g>
    </g>
    <g id="xtick_38">
     <g id="line2d_100">
      <g>
       <use xlink:href="#mbf1df3136e" x="287.421244" y="307.584" style="stroke: #000000; stroke-width: 0.8"/>
      </g>
     </g>
     <g id="text_22">
      <!-- 12.5 -->
      <g transform="translate(276.288432 322.182437)scale(0.1 -0.1)">
       <use xlink:href="#DejaVuSans-31"/>
       <use xlink:href="#DejaVuSans-32" x="63.623047"/>
       <use xlink:href="#DejaVuSans-2e" x="127.246094"/>
       <use xlink:href="#DejaVuSans-35" x="159.033203"/>
      </g>
     </g>
    </g>
    <g id="xtick_39">
     <g id="line2d_101">
      <g>
       <use xlink:href="#mbf1df3136e" x="330.138947" y="307.584" style="stroke: #000000; stroke-width: 0.8"/>
      </g>
     </g>
     <g id="text_23">
      <!-- 15.0 -->
      <g transform="translate(319.006135 322.182437)scale(0.1 -0.1)">
       <use xlink:href="#DejaVuSans-31"/>
       <use xlink:href="#DejaVuSans-35" x="63.623047"/>
       <use xlink:href="#DejaVuSans-2e" x="127.246094"/>
       <use xlink:href="#DejaVuSans-30" x="159.033203"/>
      </g>
     </g>
    </g>
    <g id="xtick_40">
     <g id="line2d_102">
      <g>
       <use xlink:href="#mbf1df3136e" x="372.856651" y="307.584" style="stroke: #000000; stroke-width: 0.8"/>
      </g>
     </g>
     <g id="text_24">
      <!-- 17.5 -->
      <g transform="translate(361.723838 322.182437)scale(0.1 -0.1)">
       <use xlink:href="#DejaVuSans-31"/>
       <use xlink:href="#DejaVuSans-37" x="63.623047"/>
       <use xlink:href="#DejaVuSans-2e" x="127.246094"/>
       <use xlink:href="#DejaVuSans-35" x="159.033203"/>
      </g>
     </g>
    </g>
    <g id="text_25">
     <!-- position z -->
     <g transform="translate(212.142031 335.860562)scale(0.1 -0.1)">
      <defs>
       <path id="DejaVuSans-70" d="M 1159 525 
L 1159 -1331 
L 581 -1331 
L 581 3500 
L 1159 3500 
L 1159 2969 
Q 1341 3281 1617 3432 
Q 1894 3584 2278 3584 
Q 2916 3584 3314 3078 
Q 3713 2572 3713 1747 
Q 3713 922 3314 415 
Q 2916 -91 2278 -91 
Q 1894 -91 1617 61 
Q 1341 213 1159 525 
z
M 3116 1747 
Q 3116 2381 2855 2742 
Q 2594 3103 2138 3103 
Q 1681 3103 1420 2742 
Q 1159 2381 1159 1747 
Q 1159 1113 1420 752 
Q 1681 391 2138 391 
Q 2594 391 2855 752 
Q 3116 1113 3116 1747 
z
" transform="scale(0.015625)"/>
      </defs>
      <use xlink:href="#DejaVuSans-70"/>
      <use xlink:href="#DejaVuSans-6f" x="63.476562"/>
      <use xlink:href="#DejaVuSans-73" x="124.658203"/>
      <use xlink:href="#DejaVuSans-69" x="176.757812"/>
      <use xlink:href="#DejaVuSans-74" x="204.541016"/>
      <use xlink:href="#DejaVuSans-69" x="243.75"/>
      <use xlink:href="#DejaVuSans-6f" x="271.533203"/>
      <use xlink:href="#DejaVuSans-6e" x="332.714844"/>
      <use xlink:href="#DejaVuSans-20" x="396.09375"/>
      <use xlink:href="#DejaVuSans-7a" x="427.880859"/>
     </g>
    </g>
   </g>
   <g id="matplotlib.axis_12">
    <g id="ytick_11">
     <g id="line2d_103">
      <g>
       <use xlink:href="#m3ead5267c9" x="57.6" y="292.733723" style="stroke: #000000; stroke-width: 0.8"/>
      </g>
     </g>
     <g id="text_26">
      <!-- 0.045 -->
      <g transform="translate(21.971875 296.532942)scale(0.1 -0.1)">
       <defs>
        <path id="DejaVuSans-34" d="M 2419 4116 
L 825 1625 
L 2419 1625 
L 2419 4116 
z
M 2253 4666 
L 3047 4666 
L 3047 1625 
L 3713 1625 
L 3713 1100 
L 3047 1100 
L 3047 0 
L 2419 0 
L 2419 1100 
L 313 1100 
L 313 1709 
L 2253 4666 
z
" transform="scale(0.015625)"/>
       </defs>
       <use xlink:href="#DejaVuSans-30"/>
       <use xlink:href="#DejaVuSans-2e" x="63.623047"/>
       <use xlink:href="#DejaVuSans-30" x="95.410156"/>
       <use xlink:href="#DejaVuSans-34" x="159.033203"/>
       <use xlink:href="#DejaVuSans-35" x="222.65625"/>
      </g>
     </g>
    </g>
    <g id="ytick_12">
     <g id="line2d_104">
      <g>
       <use xlink:href="#m3ead5267c9" x="57.6" y="265.90118" style="stroke: #000000; stroke-width: 0.8"/>
      </g>
     </g>
     <g id="text_27">
      <!-- 0.050 -->
      <g transform="translate(21.971875 269.700399)scale(0.1 -0.1)">
       <use xlink:href="#DejaVuSans-30"/>
       <use xlink:href="#DejaVuSans-2e" x="63.623047"/>
       <use xlink:href="#DejaVuSans-30" x="95.410156"/>
       <use xlink:href="#DejaVuSans-35" x="159.033203"/>
       <use xlink:href="#DejaVuSans-30" x="222.65625"/>
      </g>
     </g>
    </g>
   </g>
   <g id="line2d_105">
    <path d="M 73.832727 305.201359 
L 90.919809 305.216262 
L 108.00689 305.238835 
L 125.093971 305.263395 
L 142.181053 305.287348 
L 159.268134 305.309836 
L 176.355215 305.330662 
L 193.442297 305.34982 
L 210.529378 305.367344 
L 227.616459 305.383265 
L 244.703541 305.397609 
L 261.790622 305.410396 
L 278.877703 305.421643 
L 295.964785 305.431362 
L 313.051866 305.439568 
L 330.138947 305.446275 
L 347.226029 305.451505 
L 364.31311 305.455296 
L 381.400191 305.457719 
L 398.487273 305.45888 
" clip-path="url(#p48ccf70c39)" style="fill: none; stroke: #1f77b4; stroke-width: 1.5; stroke-linecap: square"/>
   </g>
   <g id="line2d_106">
    <path d="M 73.832727 265.95036 
L 90.919809 265.82619 
L 108.00689 265.698251 
L 125.093971 265.577657 
L 142.181053 265.461678 
L 159.268134 265.345044 
L 176.355215 265.223611 
L 193.442297 265.094634 
L 210.529378 264.956366 
L 227.616459 264.807676 
L 244.703541 264.647791 
L 261.790622 264.476296 
L 278.877703 264.293677 
L 295.964785 264.10351 
L 313.051866 263.919802 
L 330.138947 263.788138 
L 347.226029 263.82989 
L 364.31311 264.274062 
L 381.400191 265.288073 
L 398.487273 266.404173 
" clip-path="url(#p48ccf70c39)" style="fill: none; stroke: #ff7f0e; stroke-width: 1.5; stroke-linecap: square"/>
   </g>
   <g id="line2d_107">
    <path d="M 73.832727 265.901319 
L 90.919809 265.901272 
L 108.00689 265.901046 
L 125.093971 265.90063 
L 142.181053 265.899988 
L 159.268134 265.89914 
L 176.355215 265.898138 
L 193.442297 265.896868 
L 210.529378 265.894955 
L 227.616459 265.891979 
L 244.703541 265.887809 
L 261.790622 265.882733 
L 278.877703 265.877184 
L 295.964785 265.871238 
L 313.051866 265.864197 
L 330.138947 265.854531 
L 347.226029 265.840187 
L 364.31311 265.81902 
L 381.400191 265.789041 
L 398.487273 265.749077 
" clip-path="url(#p48ccf70c39)" style="fill: none; stroke: #2ca02c; stroke-width: 1.5; stroke-linecap: square"/>
   </g>
   <g id="line2d_108">
    <path d="M 73.832727 265.901179 
L 90.919809 265.90118 
L 108.00689 265.90118 
L 125.093971 265.901182 
L 142.181053 265.901184 
L 159.268134 265.901187 
L 176.355215 265.90119 
L 193.442297 265.901194 
L 210.529378 265.9012 
L 227.616459 265.901206 
L 244.703541 265.901213 
L 261.790622 265.901222 
L 278.877703 265.901232 
L 295.964785 265.901244 
L 313.051866 265.901257 
L 330.138947 265.901271 
L 347.226029 265.901284 
L 364.31311 265.901294 
L 381.400191 265.9013 
L 398.487273 265.901302 
" clip-path="url(#p48ccf70c39)" style="fill: none; stroke: #d62728; stroke-width: 1.5; stroke-linecap: square"/>
   </g>
   <g id="line2d_109">
    <path d="M 73.832727 265.980588 
L 90.919809 265.980583 
L 108.00689 265.980577 
L 125.093971 265.980573 
L 142.181053 265.98057 
L 159.268134 265.980568 
L 176.355215 265.980568 
L 193.442297 265.980568 
L 210.529378 265.98057 
L 227.616459 265.980574 
L 244.703541 265.980579 
L 261.790622 265.980585 
L 278.877703 265.980593 
L 295.964785 265.980603 
L 313.051866 265.980614 
L 330.138947 265.980625 
L 347.226029 265.980638 
L 364.31311 265.98065 
L 381.400191 265.980662 
L 398.487273 265.980673 
" clip-path="url(#p48ccf70c39)" style="fill: none; stroke: #9467bd; stroke-width: 1.5; stroke-linecap: square"/>
   </g>
   <g id="line2d_110">
    <path d="M 73.832727 268.42012 
L 90.919809 268.420121 
L 108.00689 268.420122 
L 125.093971 268.420125 
L 142.181053 268.420129 
L 159.268134 268.420135 
L 176.355215 268.420143 
L 193.442297 268.420152 
L 210.529378 268.420164 
L 227.616459 268.420177 
L 244.703541 268.420191 
L 261.790622 268.420208 
L 278.877703 268.420226 
L 295.964785 268.420245 
L 313.051866 268.420266 
L 330.138947 268.420288 
L 347.226029 268.420311 
L 364.31311 268.420334 
L 381.400191 268.420354 
L 398.487273 268.420361 
" clip-path="url(#p48ccf70c39)" style="fill: none; stroke: #8c564b; stroke-width: 1.5; stroke-linecap: square"/>
   </g>
   <g id="line2d_111">
    <path d="M 73.832727 268.75876 
L 90.919809 268.758748 
L 108.00689 268.758724 
L 125.093971 268.758687 
L 142.181053 268.75864 
L 159.268134 268.758581 
L 176.355215 268.758511 
L 193.442297 268.75843 
L 210.529378 268.758338 
L 227.616459 268.758235 
L 244.703541 268.758121 
L 261.790622 268.757996 
L 278.877703 268.757859 
L 295.964785 268.757712 
L 313.051866 268.757554 
L 330.138947 268.757384 
L 347.226029 268.757202 
L 364.31311 268.757011 
L 381.400191 268.75682 
L 398.487273 268.756669 
" clip-path="url(#p48ccf70c39)" style="fill: none; stroke: #e377c2; stroke-width: 1.5; stroke-linecap: square"/>
   </g>
   <g id="line2d_112">
    <path d="M 73.832727 268.766235 
L 90.919809 268.766223 
L 108.00689 268.766198 
L 125.093971 268.766161 
L 142.181053 268.766112 
L 159.268134 268.766052 
L 176.355215 268.765981 
L 193.442297 268.765897 
L 210.529378 268.765803 
L 227.616459 268.765697 
L 244.703541 268.765579 
L 261.790622 268.765451 
L 278.877703 268.76531 
L 295.964785 268.765159 
L 313.051866 268.764996 
L 330.138947 268.764822 
L 347.226029 268.76464 
L 364.31311 268.76446 
L 381.400191 268.764298 
L 398.487273 268.764198 
" clip-path="url(#p48ccf70c39)" style="fill: none; stroke: #7f7f7f; stroke-width: 1.5; stroke-linecap: square"/>
   </g>
   <g id="line2d_113">
    <path d="M 73.832727 281.970437 
L 90.919809 281.940512 
L 108.00689 281.911539 
L 125.093971 281.884266 
L 142.181053 281.85869 
L 159.268134 281.834788 
L 176.355215 281.81254 
L 193.442297 281.791927 
L 210.529378 281.772931 
L 227.616459 281.755537 
L 244.703541 281.73973 
L 261.790622 281.725497 
L 278.877703 281.712827 
L 295.964785 281.70171 
L 313.051866 281.692136 
L 330.138947 281.684101 
L 347.226029 281.677598 
L 364.31311 281.672625 
L 381.400191 281.669183 
L 398.487273 281.667308 
" clip-path="url(#p48ccf70c39)" style="fill: none; stroke: #bcbd22; stroke-width: 1.5; stroke-linecap: square"/>
   </g>
   <g id="line2d_114">
    <path d="M 73.832727 304.3063 
L 90.919809 304.32253 
L 108.00689 304.337572 
L 125.093971 304.351384 
L 142.181053 304.364137 
L 159.268134 304.375887 
L 176.355215 304.386665 
L 193.442297 304.396501 
L 210.529378 304.405421 
L 227.616459 304.41345 
L 244.703541 304.42061 
L 261.790622 304.42692 
L 278.877703 304.4324 
L 295.964785 304.437064 
L 313.051866 304.440927 
L 330.138947 304.444002 
L 347.226029 304.446301 
L 364.31311 304.447841 
L 381.400191 304.448654 
L 398.487273 304.448867 
" clip-path="url(#p48ccf70c39)" style="fill: none; stroke: #17becf; stroke-width: 1.5; stroke-linecap: square"/>
   </g>
   <g id="line2d_115">
    <path d="M 73.832727 305.208281 
L 90.919809 305.231314 
L 108.00689 305.258081 
L 125.093971 305.283774 
L 142.181053 305.30777 
L 159.268134 305.330074 
L 176.355215 305.350729 
L 193.442297 305.369761 
L 210.529378 305.387194 
L 227.616459 305.403045 
L 244.703541 305.417331 
L 261.790622 305.430068 
L 278.877703 305.441269 
L 295.964785 305.450945 
L 313.051866 305.459109 
L 330.138947 305.46577 
L 347.226029 305.47094 
L 364.31311 305.474639 
L 381.400191 305.476925 
L 398.487273 305.477944 
" clip-path="url(#p48ccf70c39)" style="fill: none; stroke: #1f77b4; stroke-width: 1.5; stroke-linecap: square"/>
   </g>
   <g id="line2d_116">
    <path d="M 73.832727 305.231375 
L 90.919809 305.250219 
L 108.00689 305.27568 
L 125.093971 305.301482 
L 142.181053 305.325848 
L 159.268134 305.348491 
L 176.355215 305.369431 
L 193.442297 305.388714 
L 210.529378 305.406372 
L 227.616459 305.422428 
L 244.703541 305.4369 
L 261.790622 305.449805 
L 278.877703 305.461155 
L 295.964785 305.470961 
L 313.051866 305.479237 
L 330.138947 305.485992 
L 347.226029 305.491241 
L 364.31311 305.495014 
L 381.400191 305.497382 
L 398.487273 305.498483 
" clip-path="url(#p48ccf70c39)" style="fill: none; stroke: #ff7f0e; stroke-width: 1.5; stroke-linecap: square"/>
   </g>
   <g id="line2d_117">
    <path d="M 73.832727 305.236538 
L 90.919809 305.252309 
L 108.00689 305.275908 
L 125.093971 305.301159 
L 142.181053 305.325498 
L 159.268134 305.348219 
L 176.355215 305.369222 
L 193.442297 305.388541 
L 210.529378 305.406217 
L 227.616459 305.422282 
L 244.703541 305.436759 
L 261.790622 305.449667 
L 278.877703 305.461018 
L 295.964785 305.470827 
L 313.051866 305.479104 
L 330.138947 305.485862 
L 347.226029 305.49112 
L 364.31311 305.494915 
L 381.400191 305.497325 
L 398.487273 305.498471 
" clip-path="url(#p48ccf70c39)" style="fill: none; stroke: #2ca02c; stroke-width: 1.5; stroke-linecap: square"/>
   </g>
   <g id="patch_25">
    <path d="M 57.6 307.584 
L 57.6 261.702621 
" style="fill: none; stroke: #000000; stroke-width: 0.8; stroke-linejoin: miter; stroke-linecap: square"/>
   </g>
   <g id="patch_26">
    <path d="M 414.72 307.584 
L 414.72 261.702621 
" style="fill: none; stroke: #000000; stroke-width: 0.8; stroke-linejoin: miter; stroke-linecap: square"/>
   </g>
   <g id="patch_27">
    <path d="M 57.6 307.584 
L 414.72 307.584 
" style="fill: none; stroke: #000000; stroke-width: 0.8; stroke-linejoin: miter; stroke-linecap: square"/>
   </g>
   <g id="patch_28">
    <path d="M 57.6 261.702621 
L 414.72 261.702621 
" style="fill: none; stroke: #000000; stroke-width: 0.8; stroke-linejoin: miter; stroke-linecap: square"/>
   </g>
   <g id="text_28">
    <!-- yC - Container 1 -->
    <g transform="translate(187.395938 258.702621)scale(0.12 -0.12)">
     <use xlink:href="#DejaVuSans-79"/>
     <use xlink:href="#DejaVuSans-43" x="59.179688"/>
     <use xlink:href="#DejaVuSans-20" x="129.003906"/>
     <use xlink:href="#DejaVuSans-2d" x="160.791016"/>
     <use xlink:href="#DejaVuSans-20" x="196.875"/>
     <use xlink:href="#DejaVuSans-43" x="228.662109"/>
     <use xlink:href="#DejaVuSans-6f" x="298.486328"/>
     <use xlink:href="#DejaVuSans-6e" x="359.667969"/>
     <use xlink:href="#DejaVuSans-74" x="423.046875"/>
     <use xlink:href="#DejaVuSans-61" x="462.255859"/>
     <use xlink:href="#DejaVuSans-69" x="523.535156"/>
     <use xlink:href="#DejaVuSans-6e" x="551.318359"/>
     <use xlink:href="#DejaVuSans-65" x="614.697266"/>
     <use xlink:href="#DejaVuSans-72" x="676.220703"/>
     <use xlink:href="#DejaVuSans-20" x="717.333984"/>
     <use xlink:href="#DejaVuSans-31" x="749.121094"/>
    </g>
   </g>
  </g>
  <g id="legend_1">
   <g id="patch_29">
    <path d="M 372.146875 269.707812 
L 457.8 269.707812 
Q 459.8 269.707812 459.8 267.707812 
L 459.8 77.892187 
Q 459.8 75.892187 457.8 75.892187 
L 372.146875 75.892187 
Q 370.146875 75.892187 370.146875 77.892187 
L 370.146875 267.707812 
Q 370.146875 269.707812 372.146875 269.707812 
z
" style="fill: #ffffff; opacity: 0.8; stroke: #cccccc; stroke-linejoin: miter"/>
   </g>
   <g id="line2d_118">
    <path d="M 374.146875 83.990625 
L 384.146875 83.990625 
L 394.146875 83.990625 
" style="fill: none; stroke: #1f77b4; stroke-width: 1.5; stroke-linecap: square"/>
   </g>
   <g id="text_29">
    <!-- t=0.0000 -->
    <g transform="translate(402.146875 87.490625)scale(0.1 -0.1)">
     <defs>
      <path id="DejaVuSans-3d" d="M 678 2906 
L 4684 2906 
L 4684 2381 
L 678 2381 
L 678 2906 
z
M 678 1631 
L 4684 1631 
L 4684 1100 
L 678 1100 
L 678 1631 
z
" transform="scale(0.015625)"/>
     </defs>
     <use xlink:href="#DejaVuSans-74"/>
     <use xlink:href="#DejaVuSans-3d" x="39.208984"/>
     <use xlink:href="#DejaVuSans-30" x="122.998047"/>
     <use xlink:href="#DejaVuSans-2e" x="186.621094"/>
     <use xlink:href="#DejaVuSans-30" x="218.408203"/>
     <use xlink:href="#DejaVuSans-30" x="282.03125"/>
     <use xlink:href="#DejaVuSans-30" x="345.654297"/>
     <use xlink:href="#DejaVuSans-30" x="409.277344"/>
    </g>
   </g>
   <g id="line2d_119">
    <path d="M 374.146875 98.66875 
L 384.146875 98.66875 
L 394.146875 98.66875 
" style="fill: none; stroke: #ff7f0e; stroke-width: 1.5; stroke-linecap: square"/>
   </g>
   <g id="text_30">
    <!-- t=8.0000 -->
    <g transform="translate(402.146875 102.16875)scale(0.1 -0.1)">
     <use xlink:href="#DejaVuSans-74"/>
     <use xlink:href="#DejaVuSans-3d" x="39.208984"/>
     <use xlink:href="#DejaVuSans-38" x="122.998047"/>
     <use xlink:href="#DejaVuSans-2e" x="186.621094"/>
     <use xlink:href="#DejaVuSans-30" x="218.408203"/>
     <use xlink:href="#DejaVuSans-30" x="282.03125"/>
     <use xlink:href="#DejaVuSans-30" x="345.654297"/>
     <use xlink:href="#DejaVuSans-30" x="409.277344"/>
    </g>
   </g>
   <g id="line2d_120">
    <path d="M 374.146875 113.346875 
L 384.146875 113.346875 
L 394.146875 113.346875 
" style="fill: none; stroke: #2ca02c; stroke-width: 1.5; stroke-linecap: square"/>
   </g>
   <g id="text_31">
    <!-- t=16.0000 -->
    <g transform="translate(402.146875 116.846875)scale(0.1 -0.1)">
     <defs>
      <path id="DejaVuSans-36" d="M 2113 2584 
Q 1688 2584 1439 2293 
Q 1191 2003 1191 1497 
Q 1191 994 1439 701 
Q 1688 409 2113 409 
Q 2538 409 2786 701 
Q 3034 994 3034 1497 
Q 3034 2003 2786 2293 
Q 2538 2584 2113 2584 
z
M 3366 4563 
L 3366 3988 
Q 3128 4100 2886 4159 
Q 2644 4219 2406 4219 
Q 1781 4219 1451 3797 
Q 1122 3375 1075 2522 
Q 1259 2794 1537 2939 
Q 1816 3084 2150 3084 
Q 2853 3084 3261 2657 
Q 3669 2231 3669 1497 
Q 3669 778 3244 343 
Q 2819 -91 2113 -91 
Q 1303 -91 875 529 
Q 447 1150 447 2328 
Q 447 3434 972 4092 
Q 1497 4750 2381 4750 
Q 2619 4750 2861 4703 
Q 3103 4656 3366 4563 
z
" transform="scale(0.015625)"/>
     </defs>
     <use xlink:href="#DejaVuSans-74"/>
     <use xlink:href="#DejaVuSans-3d" x="39.208984"/>
     <use xlink:href="#DejaVuSans-31" x="122.998047"/>
     <use xlink:href="#DejaVuSans-36" x="186.621094"/>
     <use xlink:href="#DejaVuSans-2e" x="250.244141"/>
     <use xlink:href="#DejaVuSans-30" x="282.03125"/>
     <use xlink:href="#DejaVuSans-30" x="345.654297"/>
     <use xlink:href="#DejaVuSans-30" x="409.277344"/>
     <use xlink:href="#DejaVuSans-30" x="472.900391"/>
    </g>
   </g>
   <g id="line2d_121">
    <path d="M 374.146875 128.025 
L 384.146875 128.025 
L 394.146875 128.025 
" style="fill: none; stroke: #d62728; stroke-width: 1.5; stroke-linecap: square"/>
   </g>
   <g id="text_32">
    <!-- t=24.0000 -->
    <g transform="translate(402.146875 131.525)scale(0.1 -0.1)">
     <use xlink:href="#DejaVuSans-74"/>
     <use xlink:href="#DejaVuSans-3d" x="39.208984"/>
     <use xlink:href="#DejaVuSans-32" x="122.998047"/>
     <use xlink:href="#DejaVuSans-34" x="186.621094"/>
     <use xlink:href="#DejaVuSans-2e" x="250.244141"/>
     <use xlink:href="#DejaVuSans-30" x="282.03125"/>
     <use xlink:href="#DejaVuSans-30" x="345.654297"/>
     <use xlink:href="#DejaVuSans-30" x="409.277344"/>
     <use xlink:href="#DejaVuSans-30" x="472.900391"/>
    </g>
   </g>
   <g id="line2d_122">
    <path d="M 374.146875 142.703125 
L 384.146875 142.703125 
L 394.146875 142.703125 
" style="fill: none; stroke: #9467bd; stroke-width: 1.5; stroke-linecap: square"/>
   </g>
   <g id="text_33">
    <!-- t=32.0000 -->
    <g transform="translate(402.146875 146.203125)scale(0.1 -0.1)">
     <defs>
      <path id="DejaVuSans-33" d="M 2597 2516 
Q 3050 2419 3304 2112 
Q 3559 1806 3559 1356 
Q 3559 666 3084 287 
Q 2609 -91 1734 -91 
Q 1441 -91 1130 -33 
Q 819 25 488 141 
L 488 750 
Q 750 597 1062 519 
Q 1375 441 1716 441 
Q 2309 441 2620 675 
Q 2931 909 2931 1356 
Q 2931 1769 2642 2001 
Q 2353 2234 1838 2234 
L 1294 2234 
L 1294 2753 
L 1863 2753 
Q 2328 2753 2575 2939 
Q 2822 3125 2822 3475 
Q 2822 3834 2567 4026 
Q 2313 4219 1838 4219 
Q 1578 4219 1281 4162 
Q 984 4106 628 3988 
L 628 4550 
Q 988 4650 1302 4700 
Q 1616 4750 1894 4750 
Q 2613 4750 3031 4423 
Q 3450 4097 3450 3541 
Q 3450 3153 3228 2886 
Q 3006 2619 2597 2516 
z
" transform="scale(0.015625)"/>
     </defs>
     <use xlink:href="#DejaVuSans-74"/>
     <use xlink:href="#DejaVuSans-3d" x="39.208984"/>
     <use xlink:href="#DejaVuSans-33" x="122.998047"/>
     <use xlink:href="#DejaVuSans-32" x="186.621094"/>
     <use xlink:href="#DejaVuSans-2e" x="250.244141"/>
     <use xlink:href="#DejaVuSans-30" x="282.03125"/>
     <use xlink:href="#DejaVuSans-30" x="345.654297"/>
     <use xlink:href="#DejaVuSans-30" x="409.277344"/>
     <use xlink:href="#DejaVuSans-30" x="472.900391"/>
    </g>
   </g>
   <g id="line2d_123">
    <path d="M 374.146875 157.38125 
L 384.146875 157.38125 
L 394.146875 157.38125 
" style="fill: none; stroke: #8c564b; stroke-width: 1.5; stroke-linecap: square"/>
   </g>
   <g id="text_34">
    <!-- t=40.0000 -->
    <g transform="translate(402.146875 160.88125)scale(0.1 -0.1)">
     <use xlink:href="#DejaVuSans-74"/>
     <use xlink:href="#DejaVuSans-3d" x="39.208984"/>
     <use xlink:href="#DejaVuSans-34" x="122.998047"/>
     <use xlink:href="#DejaVuSans-30" x="186.621094"/>
     <use xlink:href="#DejaVuSans-2e" x="250.244141"/>
     <use xlink:href="#DejaVuSans-30" x="282.03125"/>
     <use xlink:href="#DejaVuSans-30" x="345.654297"/>
     <use xlink:href="#DejaVuSans-30" x="409.277344"/>
     <use xlink:href="#DejaVuSans-30" x="472.900391"/>
    </g>
   </g>
   <g id="line2d_124">
    <path d="M 374.146875 172.059375 
L 384.146875 172.059375 
L 394.146875 172.059375 
" style="fill: none; stroke: #e377c2; stroke-width: 1.5; stroke-linecap: square"/>
   </g>
   <g id="text_35">
    <!-- t=48.0000 -->
    <g transform="translate(402.146875 175.559375)scale(0.1 -0.1)">
     <use xlink:href="#DejaVuSans-74"/>
     <use xlink:href="#DejaVuSans-3d" x="39.208984"/>
     <use xlink:href="#DejaVuSans-34" x="122.998047"/>
     <use xlink:href="#DejaVuSans-38" x="186.621094"/>
     <use xlink:href="#DejaVuSans-2e" x="250.244141"/>
     <use xlink:href="#DejaVuSans-30" x="282.03125"/>
     <use xlink:href="#DejaVuSans-30" x="345.654297"/>
     <use xlink:href="#DejaVuSans-30" x="409.277344"/>
     <use xlink:href="#DejaVuSans-30" x="472.900391"/>
    </g>
   </g>
   <g id="line2d_125">
    <path d="M 374.146875 186.7375 
L 384.146875 186.7375 
L 394.146875 186.7375 
" style="fill: none; stroke: #7f7f7f; stroke-width: 1.5; stroke-linecap: square"/>
   </g>
   <g id="text_36">
    <!-- t=56.0000 -->
    <g transform="translate(402.146875 190.2375)scale(0.1 -0.1)">
     <use xlink:href="#DejaVuSans-74"/>
     <use xlink:href="#DejaVuSans-3d" x="39.208984"/>
     <use xlink:href="#DejaVuSans-35" x="122.998047"/>
     <use xlink:href="#DejaVuSans-36" x="186.621094"/>
     <use xlink:href="#DejaVuSans-2e" x="250.244141"/>
     <use xlink:href="#DejaVuSans-30" x="282.03125"/>
     <use xlink:href="#DejaVuSans-30" x="345.654297"/>
     <use xlink:href="#DejaVuSans-30" x="409.277344"/>
     <use xlink:href="#DejaVuSans-30" x="472.900391"/>
    </g>
   </g>
   <g id="line2d_126">
    <path d="M 374.146875 201.415625 
L 384.146875 201.415625 
L 394.146875 201.415625 
" style="fill: none; stroke: #bcbd22; stroke-width: 1.5; stroke-linecap: square"/>
   </g>
   <g id="text_37">
    <!-- t=64.0000 -->
    <g transform="translate(402.146875 204.915625)scale(0.1 -0.1)">
     <use xlink:href="#DejaVuSans-74"/>
     <use xlink:href="#DejaVuSans-3d" x="39.208984"/>
     <use xlink:href="#DejaVuSans-36" x="122.998047"/>
     <use xlink:href="#DejaVuSans-34" x="186.621094"/>
     <use xlink:href="#DejaVuSans-2e" x="250.244141"/>
     <use xlink:href="#DejaVuSans-30" x="282.03125"/>
     <use xlink:href="#DejaVuSans-30" x="345.654297"/>
     <use xlink:href="#DejaVuSans-30" x="409.277344"/>
     <use xlink:href="#DejaVuSans-30" x="472.900391"/>
    </g>
   </g>
   <g id="line2d_127">
    <path d="M 374.146875 216.09375 
L 384.146875 216.09375 
L 394.146875 216.09375 
" style="fill: none; stroke: #17becf; stroke-width: 1.5; stroke-linecap: square"/>
   </g>
   <g id="text_38">
    <!-- t=72.0000 -->
    <g transform="translate(402.146875 219.59375)scale(0.1 -0.1)">
     <use xlink:href="#DejaVuSans-74"/>
     <use xlink:href="#DejaVuSans-3d" x="39.208984"/>
     <use xlink:href="#DejaVuSans-37" x="122.998047"/>
     <use xlink:href="#DejaVuSans-32" x="186.621094"/>
     <use xlink:href="#DejaVuSans-2e" x="250.244141"/>
     <use xlink:href="#DejaVuSans-30" x="282.03125"/>
     <use xlink:href="#DejaVuSans-30" x="345.654297"/>
     <use xlink:href="#DejaVuSans-30" x="409.277344"/>
     <use xlink:href="#DejaVuSans-30" x="472.900391"/>
    </g>
   </g>
   <g id="line2d_128">
    <path d="M 374.146875 230.771875 
L 384.146875 230.771875 
L 394.146875 230.771875 
" style="fill: none; stroke: #1f77b4; stroke-width: 1.5; stroke-linecap: square"/>
   </g>
   <g id="text_39">
    <!-- t=80.0000 -->
    <g transform="translate(402.146875 234.271875)scale(0.1 -0.1)">
     <use xlink:href="#DejaVuSans-74"/>
     <use xlink:href="#DejaVuSans-3d" x="39.208984"/>
     <use xlink:href="#DejaVuSans-38" x="122.998047"/>
     <use xlink:href="#DejaVuSans-30" x="186.621094"/>
     <use xlink:href="#DejaVuSans-2e" x="250.244141"/>
     <use xlink:href="#DejaVuSans-30" x="282.03125"/>
     <use xlink:href="#DejaVuSans-30" x="345.654297"/>
     <use xlink:href="#DejaVuSans-30" x="409.277344"/>
     <use xlink:href="#DejaVuSans-30" x="472.900391"/>
    </g>
   </g>
   <g id="line2d_129">
    <path d="M 374.146875 245.45 
L 384.146875 245.45 
L 394.146875 245.45 
" style="fill: none; stroke: #ff7f0e; stroke-width: 1.5; stroke-linecap: square"/>
   </g>
   <g id="text_40">
    <!-- t=88.0000 -->
    <g transform="translate(402.146875 248.95)scale(0.1 -0.1)">
     <use xlink:href="#DejaVuSans-74"/>
     <use xlink:href="#DejaVuSans-3d" x="39.208984"/>
     <use xlink:href="#DejaVuSans-38" x="122.998047"/>
     <use xlink:href="#DejaVuSans-38" x="186.621094"/>
     <use xlink:href="#DejaVuSans-2e" x="250.244141"/>
     <use xlink:href="#DejaVuSans-30" x="282.03125"/>
     <use xlink:href="#DejaVuSans-30" x="345.654297"/>
     <use xlink:href="#DejaVuSans-30" x="409.277344"/>
     <use xlink:href="#DejaVuSans-30" x="472.900391"/>
    </g>
   </g>
   <g id="line2d_130">
    <path d="M 374.146875 260.128125 
L 384.146875 260.128125 
L 394.146875 260.128125 
" style="fill: none; stroke: #2ca02c; stroke-width: 1.5; stroke-linecap: square"/>
   </g>
   <g id="text_41">
    <!-- t=96.0000 -->
    <g transform="translate(402.146875 263.628125)scale(0.1 -0.1)">
     <use xlink:href="#DejaVuSans-74"/>
     <use xlink:href="#DejaVuSans-3d" x="39.208984"/>
     <use xlink:href="#DejaVuSans-39" x="122.998047"/>
     <use xlink:href="#DejaVuSans-36" x="186.621094"/>
     <use xlink:href="#DejaVuSans-2e" x="250.244141"/>
     <use xlink:href="#DejaVuSans-30" x="282.03125"/>
     <use xlink:href="#DejaVuSans-30" x="345.654297"/>
     <use xlink:href="#DejaVuSans-30" x="409.277344"/>
     <use xlink:href="#DejaVuSans-30" x="472.900391"/>
    </g>
   </g>
  </g>
 </g>
 <defs>
  <clipPath id="p943012c143">
   <rect x="57.6" y="41.472" width="357.12" height="45.881379"/>
  </clipPath>
  <clipPath id="p111fad15ac">
   <rect x="57.6" y="96.529655" width="357.12" height="45.881379"/>
  </clipPath>
  <clipPath id="p7d13c1396e">
   <rect x="57.6" y="151.58731" width="357.12" height="45.881379"/>
  </clipPath>
  <clipPath id="p6ace984c00">
   <rect x="57.6" y="206.644966" width="357.12" height="45.881379"/>
  </clipPath>
  <clipPath id="p48ccf70c39">
   <rect x="57.6" y="261.702621" width="357.12" height="45.881379"/>
  </clipPath>
 </defs>
</svg>
