<?xml version="1.0" encoding="utf-8" standalone="no"?>
<!DOCTYPE svg PUBLIC "-//W3C//DTD SVG 1.1//EN"
  "http://www.w3.org/Graphics/SVG/1.1/DTD/svg11.dtd">
<svg xmlns:xlink="http://www.w3.org/1999/xlink" width="460.8pt" height="345.6pt" viewBox="0 0 460.8 345.6" xmlns="http://www.w3.org/2000/svg" version="1.1">
 <metadata>
  <rdf:RDF xmlns:dc="http://purl.org/dc/elements/1.1/" xmlns:cc="http://creativecommons.org/ns#" xmlns:rdf="http://www.w3.org/1999/02/22-rdf-syntax-ns#">
   <cc:Work>
    <dc:type rdf:resource="http://purl.org/dc/dcmitype/StillImage"/>
    <dc:date>2022-07-10T00:05:04.291914</dc:date>
    <dc:format>image/svg+xml</dc:format>
    <dc:creator>
     <cc:Agent>
      <dc:title>Matplotlib v3.5.2, https://matplotlib.org/</dc:title>
     </cc:Agent>
    </dc:creator>
   </cc:Work>
  </rdf:RDF>
 </metadata>
 <defs>
  <style type="text/css">*{stroke-linejoin: round; stroke-linecap: butt}</style>
 </defs>
 <g id="figure_1">
  <g id="patch_1">
   <path d="M 0 345.6 
L 460.8 345.6 
L 460.8 0 
L 0 0 
z
" style="fill: #ffffff"/>
  </g>
  <g id="axes_1">
   <g id="patch_2">
    <path d="M 57.6 87.353379 
L 414.72 87.353379 
L 414.72 41.472 
L 57.6 41.472 
z
" style="fill: #ffffff"/>
   </g>
   <g id="matplotlib.axis_1">
    <g id="xtick_1">
     <g id="line2d_1">
      <defs>
       <path id="m9f64107b0a" d="M 0 0 
L 0 3.5 
" style="stroke: #000000; stroke-width: 0.8"/>
      </defs>
      <g>
       <use xlink:href="#m9f64107b0a" x="73.832727" y="87.353379" style="stroke: #000000; stroke-width: 0.8"/>
      </g>
     </g>
    </g>
    <g id="xtick_2">
     <g id="line2d_2">
      <g>
       <use xlink:href="#m9f64107b0a" x="138.763636" y="87.353379" style="stroke: #000000; stroke-width: 0.8"/>
      </g>
     </g>
    </g>
    <g id="xtick_3">
     <g id="line2d_3">
      <g>
       <use xlink:href="#m9f64107b0a" x="203.694545" y="87.353379" style="stroke: #000000; stroke-width: 0.8"/>
      </g>
     </g>
    </g>
    <g id="xtick_4">
     <g id="line2d_4">
      <g>
       <use xlink:href="#m9f64107b0a" x="268.625455" y="87.353379" style="stroke: #000000; stroke-width: 0.8"/>
      </g>
     </g>
    </g>
    <g id="xtick_5">
     <g id="line2d_5">
      <g>
       <use xlink:href="#m9f64107b0a" x="333.556364" y="87.353379" style="stroke: #000000; stroke-width: 0.8"/>
      </g>
     </g>
    </g>
    <g id="xtick_6">
     <g id="line2d_6">
      <g>
       <use xlink:href="#m9f64107b0a" x="398.487273" y="87.353379" style="stroke: #000000; stroke-width: 0.8"/>
      </g>
     </g>
    </g>
   </g>
   <g id="matplotlib.axis_2">
    <g id="ytick_1">
     <g id="line2d_7">
      <defs>
       <path id="m5405d910f2" d="M 0 0 
L -3.5 0 
" style="stroke: #000000; stroke-width: 0.8"/>
      </defs>
      <g>
       <use xlink:href="#m5405d910f2" x="57.6" y="80.116368" style="stroke: #000000; stroke-width: 0.8"/>
      </g>
     </g>
     <g id="text_1">
      <!-- −1 -->
      <g transform="translate(35.857813 83.915587)scale(0.1 -0.1)">
       <defs>
        <path id="DejaVuSans-2212" d="M 678 2272 
L 4684 2272 
L 4684 1741 
L 678 1741 
L 678 2272 
z
" transform="scale(0.015625)"/>
        <path id="DejaVuSans-31" d="M 794 531 
L 1825 531 
L 1825 4091 
L 703 3866 
L 703 4441 
L 1819 4666 
L 2450 4666 
L 2450 531 
L 3481 531 
L 3481 0 
L 794 0 
L 794 531 
z
" transform="scale(0.015625)"/>
       </defs>
       <use xlink:href="#DejaVuSans-2212"/>
       <use xlink:href="#DejaVuSans-31" x="83.789062"/>
      </g>
     </g>
    </g>
    <g id="ytick_2">
     <g id="line2d_8">
      <g>
       <use xlink:href="#m5405d910f2" x="57.6" y="61.869533" style="stroke: #000000; stroke-width: 0.8"/>
      </g>
     </g>
     <g id="text_2">
      <!-- 0 -->
      <g transform="translate(44.2375 65.668752)scale(0.1 -0.1)">
       <defs>
        <path id="DejaVuSans-30" d="M 2034 4250 
Q 1547 4250 1301 3770 
Q 1056 3291 1056 2328 
Q 1056 1369 1301 889 
Q 1547 409 2034 409 
Q 2525 409 2770 889 
Q 3016 1369 3016 2328 
Q 3016 3291 2770 3770 
Q 2525 4250 2034 4250 
z
M 2034 4750 
Q 2819 4750 3233 4129 
Q 3647 3509 3647 2328 
Q 3647 1150 3233 529 
Q 2819 -91 2034 -91 
Q 1250 -91 836 529 
Q 422 1150 422 2328 
Q 422 3509 836 4129 
Q 1250 4750 2034 4750 
z
" transform="scale(0.015625)"/>
       </defs>
       <use xlink:href="#DejaVuSans-30"/>
      </g>
     </g>
    </g>
    <g id="ytick_3">
     <g id="line2d_9">
      <g>
       <use xlink:href="#m5405d910f2" x="57.6" y="43.622698" style="stroke: #000000; stroke-width: 0.8"/>
      </g>
     </g>
     <g id="text_3">
      <!-- 1 -->
      <g transform="translate(44.2375 47.421917)scale(0.1 -0.1)">
       <use xlink:href="#DejaVuSans-31"/>
      </g>
     </g>
    </g>
    <g id="text_4">
     <!-- flow rate (normalized) -->
     <g transform="translate(29.778125 119.729877)rotate(-90)scale(0.1 -0.1)">
      <defs>
       <path id="DejaVuSans-66" d="M 2375 4863 
L 2375 4384 
L 1825 4384 
Q 1516 4384 1395 4259 
Q 1275 4134 1275 3809 
L 1275 3500 
L 2222 3500 
L 2222 3053 
L 1275 3053 
L 1275 0 
L 697 0 
L 697 3053 
L 147 3053 
L 147 3500 
L 697 3500 
L 697 3744 
Q 697 4328 969 4595 
Q 1241 4863 1831 4863 
L 2375 4863 
z
" transform="scale(0.015625)"/>
       <path id="DejaVuSans-6c" d="M 603 4863 
L 1178 4863 
L 1178 0 
L 603 0 
L 603 4863 
z
" transform="scale(0.015625)"/>
       <path id="DejaVuSans-6f" d="M 1959 3097 
Q 1497 3097 1228 2736 
Q 959 2375 959 1747 
Q 959 1119 1226 758 
Q 1494 397 1959 397 
Q 2419 397 2687 759 
Q 2956 1122 2956 1747 
Q 2956 2369 2687 2733 
Q 2419 3097 1959 3097 
z
M 1959 3584 
Q 2709 3584 3137 3096 
Q 3566 2609 3566 1747 
Q 3566 888 3137 398 
Q 2709 -91 1959 -91 
Q 1206 -91 779 398 
Q 353 888 353 1747 
Q 353 2609 779 3096 
Q 1206 3584 1959 3584 
z
" transform="scale(0.015625)"/>
       <path id="DejaVuSans-77" d="M 269 3500 
L 844 3500 
L 1563 769 
L 2278 3500 
L 2956 3500 
L 3675 769 
L 4391 3500 
L 4966 3500 
L 4050 0 
L 3372 0 
L 2619 2869 
L 1863 0 
L 1184 0 
L 269 3500 
z
" transform="scale(0.015625)"/>
       <path id="DejaVuSans-20" transform="scale(0.015625)"/>
       <path id="DejaVuSans-72" d="M 2631 2963 
Q 2534 3019 2420 3045 
Q 2306 3072 2169 3072 
Q 1681 3072 1420 2755 
Q 1159 2438 1159 1844 
L 1159 0 
L 581 0 
L 581 3500 
L 1159 3500 
L 1159 2956 
Q 1341 3275 1631 3429 
Q 1922 3584 2338 3584 
Q 2397 3584 2469 3576 
Q 2541 3569 2628 3553 
L 2631 2963 
z
" transform="scale(0.015625)"/>
       <path id="DejaVuSans-61" d="M 2194 1759 
Q 1497 1759 1228 1600 
Q 959 1441 959 1056 
Q 959 750 1161 570 
Q 1363 391 1709 391 
Q 2188 391 2477 730 
Q 2766 1069 2766 1631 
L 2766 1759 
L 2194 1759 
z
M 3341 1997 
L 3341 0 
L 2766 0 
L 2766 531 
Q 2569 213 2275 61 
Q 1981 -91 1556 -91 
Q 1019 -91 701 211 
Q 384 513 384 1019 
Q 384 1609 779 1909 
Q 1175 2209 1959 2209 
L 2766 2209 
L 2766 2266 
Q 2766 2663 2505 2880 
Q 2244 3097 1772 3097 
Q 1472 3097 1187 3025 
Q 903 2953 641 2809 
L 641 3341 
Q 956 3463 1253 3523 
Q 1550 3584 1831 3584 
Q 2591 3584 2966 3190 
Q 3341 2797 3341 1997 
z
" transform="scale(0.015625)"/>
       <path id="DejaVuSans-74" d="M 1172 4494 
L 1172 3500 
L 2356 3500 
L 2356 3053 
L 1172 3053 
L 1172 1153 
Q 1172 725 1289 603 
Q 1406 481 1766 481 
L 2356 481 
L 2356 0 
L 1766 0 
Q 1100 0 847 248 
Q 594 497 594 1153 
L 594 3053 
L 172 3053 
L 172 3500 
L 594 3500 
L 594 4494 
L 1172 4494 
z
" transform="scale(0.015625)"/>
       <path id="DejaVuSans-65" d="M 3597 1894 
L 3597 1613 
L 953 1613 
Q 991 1019 1311 708 
Q 1631 397 2203 397 
Q 2534 397 2845 478 
Q 3156 559 3463 722 
L 3463 178 
Q 3153 47 2828 -22 
Q 2503 -91 2169 -91 
Q 1331 -91 842 396 
Q 353 884 353 1716 
Q 353 2575 817 3079 
Q 1281 3584 2069 3584 
Q 2775 3584 3186 3129 
Q 3597 2675 3597 1894 
z
M 3022 2063 
Q 3016 2534 2758 2815 
Q 2500 3097 2075 3097 
Q 1594 3097 1305 2825 
Q 1016 2553 972 2059 
L 3022 2063 
z
" transform="scale(0.015625)"/>
       <path id="DejaVuSans-28" d="M 1984 4856 
Q 1566 4138 1362 3434 
Q 1159 2731 1159 2009 
Q 1159 1288 1364 580 
Q 1569 -128 1984 -844 
L 1484 -844 
Q 1016 -109 783 600 
Q 550 1309 550 2009 
Q 550 2706 781 3412 
Q 1013 4119 1484 4856 
L 1984 4856 
z
" transform="scale(0.015625)"/>
       <path id="DejaVuSans-6e" d="M 3513 2113 
L 3513 0 
L 2938 0 
L 2938 2094 
Q 2938 2591 2744 2837 
Q 2550 3084 2163 3084 
Q 1697 3084 1428 2787 
Q 1159 2491 1159 1978 
L 1159 0 
L 581 0 
L 581 3500 
L 1159 3500 
L 1159 2956 
Q 1366 3272 1645 3428 
Q 1925 3584 2291 3584 
Q 2894 3584 3203 3211 
Q 3513 2838 3513 2113 
z
" transform="scale(0.015625)"/>
       <path id="DejaVuSans-6d" d="M 3328 2828 
Q 3544 3216 3844 3400 
Q 4144 3584 4550 3584 
Q 5097 3584 5394 3201 
Q 5691 2819 5691 2113 
L 5691 0 
L 5113 0 
L 5113 2094 
Q 5113 2597 4934 2840 
Q 4756 3084 4391 3084 
Q 3944 3084 3684 2787 
Q 3425 2491 3425 1978 
L 3425 0 
L 2847 0 
L 2847 2094 
Q 2847 2600 2669 2842 
Q 2491 3084 2119 3084 
Q 1678 3084 1418 2786 
Q 1159 2488 1159 1978 
L 1159 0 
L 581 0 
L 581 3500 
L 1159 3500 
L 1159 2956 
Q 1356 3278 1631 3431 
Q 1906 3584 2284 3584 
Q 2666 3584 2933 3390 
Q 3200 3197 3328 2828 
z
" transform="scale(0.015625)"/>
       <path id="DejaVuSans-69" d="M 603 3500 
L 1178 3500 
L 1178 0 
L 603 0 
L 603 3500 
z
M 603 4863 
L 1178 4863 
L 1178 4134 
L 603 4134 
L 603 4863 
z
" transform="scale(0.015625)"/>
       <path id="DejaVuSans-7a" d="M 353 3500 
L 3084 3500 
L 3084 2975 
L 922 459 
L 3084 459 
L 3084 0 
L 275 0 
L 275 525 
L 2438 3041 
L 353 3041 
L 353 3500 
z
" transform="scale(0.015625)"/>
       <path id="DejaVuSans-64" d="M 2906 2969 
L 2906 4863 
L 3481 4863 
L 3481 0 
L 2906 0 
L 2906 525 
Q 2725 213 2448 61 
Q 2172 -91 1784 -91 
Q 1150 -91 751 415 
Q 353 922 353 1747 
Q 353 2572 751 3078 
Q 1150 3584 1784 3584 
Q 2172 3584 2448 3432 
Q 2725 3281 2906 2969 
z
M 947 1747 
Q 947 1113 1208 752 
Q 1469 391 1925 391 
Q 2381 391 2643 752 
Q 2906 1113 2906 1747 
Q 2906 2381 2643 2742 
Q 2381 3103 1925 3103 
Q 1469 3103 1208 2742 
Q 947 2381 947 1747 
z
" transform="scale(0.015625)"/>
       <path id="DejaVuSans-29" d="M 513 4856 
L 1013 4856 
Q 1481 4119 1714 3412 
Q 1947 2706 1947 2009 
Q 1947 1309 1714 600 
Q 1481 -109 1013 -844 
L 513 -844 
Q 928 -128 1133 580 
Q 1338 1288 1338 2009 
Q 1338 2731 1133 3434 
Q 928 4138 513 4856 
z
" transform="scale(0.015625)"/>
      </defs>
      <use xlink:href="#DejaVuSans-66"/>
      <use xlink:href="#DejaVuSans-6c" x="35.205078"/>
      <use xlink:href="#DejaVuSans-6f" x="62.988281"/>
      <use xlink:href="#DejaVuSans-77" x="124.169922"/>
      <use xlink:href="#DejaVuSans-20" x="205.957031"/>
      <use xlink:href="#DejaVuSans-72" x="237.744141"/>
      <use xlink:href="#DejaVuSans-61" x="278.857422"/>
      <use xlink:href="#DejaVuSans-74" x="340.136719"/>
      <use xlink:href="#DejaVuSans-65" x="379.345703"/>
      <use xlink:href="#DejaVuSans-20" x="440.869141"/>
      <use xlink:href="#DejaVuSans-28" x="472.65625"/>
      <use xlink:href="#DejaVuSans-6e" x="511.669922"/>
      <use xlink:href="#DejaVuSans-6f" x="575.048828"/>
      <use xlink:href="#DejaVuSans-72" x="636.230469"/>
      <use xlink:href="#DejaVuSans-6d" x="675.59375"/>
      <use xlink:href="#DejaVuSans-61" x="773.005859"/>
      <use xlink:href="#DejaVuSans-6c" x="834.285156"/>
      <use xlink:href="#DejaVuSans-69" x="862.068359"/>
      <use xlink:href="#DejaVuSans-7a" x="889.851562"/>
      <use xlink:href="#DejaVuSans-65" x="942.341797"/>
      <use xlink:href="#DejaVuSans-64" x="1003.865234"/>
      <use xlink:href="#DejaVuSans-29" x="1067.341797"/>
     </g>
    </g>
   </g>
   <g id="line2d_10">
    <path d="M 73.832727 61.902026 
L 77.079273 54.154277 
L 80.325818 59.008738 
L 83.572364 60.44382 
L 86.818909 61.089785 
L 90.065455 61.446364 
L 93.312 61.626829 
L 96.558545 61.727723 
L 99.805091 61.785896 
L 103.051636 61.823135 
L 106.298182 61.841275 
L 109.544727 61.852826 
L 112.791273 61.859456 
L 116.037818 61.863818 
L 119.284364 61.86677 
L 122.530909 61.733925 
L 125.777455 43.586236 
L 129.024 43.586215 
L 132.270545 43.586206 
L 135.517091 43.586198 
L 138.763636 43.586198 
L 142.010182 43.586192 
L 145.256727 43.586189 
L 148.503273 43.586186 
L 151.749818 43.586184 
L 154.996364 43.586183 
L 158.242909 43.586184 
L 161.489455 43.586183 
L 164.736 43.586183 
L 167.982545 43.586183 
L 171.229091 43.58869 
L 174.475636 57.452505 
L 177.722182 57.98868 
L 180.968727 58.481985 
L 184.215273 59.037852 
L 187.461818 59.534543 
L 190.708364 60.453819 
L 193.954909 60.511693 
L 197.201455 61.137034 
L 200.448 61.337936 
L 203.694545 61.395368 
L 206.941091 61.782009 
L 210.187636 61.716444 
L 213.434182 61.698862 
L 216.680727 61.959918 
L 219.927273 61.787633 
L 223.173818 61.843738 
L 226.420364 61.855194 
L 229.666909 61.860338 
L 232.913455 61.86452 
L 236.16 61.867037 
L 239.406545 61.86753 
L 242.653091 61.867826 
L 245.899636 61.868121 
L 249.146182 61.86843 
L 252.392727 61.868748 
L 255.639273 61.869066 
L 258.885818 61.869224 
L 262.132364 61.869351 
L 265.378909 61.869441 
L 268.625455 61.956585 
L 271.872 65.958308 
L 275.118545 66.802175 
L 278.365091 68.284317 
L 281.611636 70.001899 
L 284.858182 71.373742 
L 288.104727 71.995644 
L 291.351273 71.872147 
L 294.597818 71.266386 
L 297.844364 70.408748 
L 301.090909 69.443941 
L 304.337455 68.474587 
L 307.584 67.551489 
L 310.830545 66.708195 
L 314.077091 65.958147 
L 317.323636 65.301212 
L 320.570182 64.734178 
L 323.816727 64.251802 
L 327.063273 63.844996 
L 330.309818 63.503095 
L 333.556364 63.217547 
L 336.802909 62.980471 
L 340.049455 62.784806 
L 343.296 62.623279 
L 346.542545 62.490849 
L 349.789091 62.381382 
L 353.035636 62.291724 
L 356.282182 62.217078 
L 359.528727 62.156154 
L 362.775273 62.105723 
L 366.021818 62.065836 
L 369.268364 62.032646 
L 372.514909 62.004528 
L 375.761455 61.982764 
L 379.008 61.964365 
L 382.254545 61.948288 
L 385.501091 61.935909 
L 388.747636 61.92529 
L 391.994182 61.915729 
L 395.240727 61.907749 
L 398.487273 61.900707 
" clip-path="url(#pc7201d7bbd)" style="fill: none; stroke: #1f77b4; stroke-width: 1.5; stroke-linecap: square"/>
   </g>
   <g id="line2d_11">
    <path d="M 73.832727 61.919277 
L 77.079273 46.516565 
L 80.325818 56.161294 
L 83.572364 59.02336 
L 86.818909 60.312185 
L 90.065455 61.024218 
L 93.312 61.384645 
L 96.558545 61.586183 
L 99.805091 61.702396 
L 103.051636 61.776818 
L 106.298182 61.813051 
L 109.544727 61.836138 
L 112.791273 61.849388 
L 116.037818 61.858107 
L 119.284364 61.864009 
L 122.530909 60.922236 
L 125.777455 43.617534 
L 129.024 43.617524 
L 132.270545 43.617518 
L 135.517091 43.617512 
L 138.763636 43.61751 
L 142.010182 43.617506 
L 145.256727 43.617502 
L 148.503273 43.617499 
L 151.749818 43.617497 
L 154.996364 43.617495 
L 158.242909 43.617494 
L 161.489455 43.617493 
L 164.736 43.617493 
L 167.982545 43.617492 
L 171.229091 43.623771 
L 174.475636 61.066471 
L 177.722182 61.164185 
L 180.968727 61.253911 
L 184.215273 61.354855 
L 187.461818 61.445351 
L 190.708364 61.61129 
L 193.954909 61.622961 
L 197.201455 61.735995 
L 200.448 61.771836 
L 203.694545 61.784453 
L 206.941091 61.851475 
L 210.187636 61.84231 
L 213.434182 61.838006 
L 216.680727 61.885369 
L 219.927273 61.854798 
L 223.173818 61.864941 
L 226.420364 61.867111 
L 229.666909 61.867861 
L 232.913455 61.868619 
L 236.16 61.869075 
L 239.406545 61.869167 
L 242.653091 61.869221 
L 245.899636 61.869276 
L 249.146182 61.869332 
L 252.392727 61.86939 
L 255.639273 61.869448 
L 258.885818 61.869477 
L 262.132364 61.8695 
L 265.378909 61.869516 
L 268.625455 62.101668 
L 271.872 70.11285 
L 275.118545 71.92015 
L 278.365091 75.236698 
L 281.611636 79.409942 
L 284.858182 83.112961 
L 288.104727 85.262693 
L 291.351273 85.267862 
L 294.597818 83.708517 
L 297.844364 81.363673 
L 301.090909 78.669001 
L 304.337455 76.016835 
L 307.584 73.589092 
L 310.830545 71.482047 
L 314.077091 69.706889 
L 317.323636 68.2335 
L 320.570182 67.027882 
L 323.816727 66.051969 
L 327.063273 65.26124 
L 330.309818 64.621291 
L 333.556364 64.103452 
L 336.802909 63.686256 
L 340.049455 63.351934 
L 343.296 63.080307 
L 346.542545 62.862097 
L 349.789091 62.682068 
L 353.035636 62.536995 
L 356.282182 62.416023 
L 359.528727 62.318442 
L 362.775273 62.237864 
L 366.021818 62.175063 
L 369.268364 62.122901 
L 372.514909 62.078607 
L 375.761455 62.044834 
L 379.008 62.016268 
L 382.254545 61.991169 
L 385.501091 61.972053 
L 388.747636 61.955608 
L 391.994182 61.940691 
L 395.240727 61.928237 
L 398.487273 61.917201 
" clip-path="url(#pc7201d7bbd)" style="fill: none; stroke: #ff7f0e; stroke-width: 1.5; stroke-linecap: square"/>
   </g>
   <g id="line2d_12">
    <path d="M 73.832727 61.873448 
L 77.079273 61.010381 
L 80.325818 61.552325 
L 83.572364 61.716394 
L 86.818909 61.782846 
L 90.065455 61.822493 
L 93.312 61.842557 
L 96.558545 61.853774 
L 99.805091 61.86024 
L 103.051636 61.86438 
L 106.298182 61.866396 
L 109.544727 61.86768 
L 112.791273 61.868417 
L 116.037818 61.868901 
L 119.284364 61.869229 
L 122.530909 62.199029 
L 125.777455 43.557517 
L 129.024 43.557597 
L 132.270545 43.55767 
L 135.517091 43.557743 
L 138.763636 43.557791 
L 142.010182 43.557855 
L 145.256727 43.557913 
L 148.503273 43.557964 
L 151.749818 43.558009 
L 154.996364 43.558048 
L 158.242909 43.558081 
L 161.489455 43.55811 
L 164.736 43.558134 
L 167.982545 43.558154 
L 171.229091 43.558968 
L 174.475636 54.239317 
L 177.722182 55.160829 
L 180.968727 56.012166 
L 184.215273 56.974738 
L 187.461818 57.82898 
L 190.708364 59.440623 
L 193.954909 59.51802 
L 197.201455 60.610871 
L 200.448 60.972254 
L 203.694545 61.027545 
L 206.941091 61.76115 
L 210.187636 61.591933 
L 213.434182 61.586325 
L 216.680727 62.034967 
L 219.927273 61.725862 
L 223.173818 61.822413 
L 226.420364 61.84061 
L 229.666909 61.85365 
L 232.913455 61.8609 
L 236.16 61.865299 
L 239.406545 61.866113 
L 242.653091 61.866609 
L 245.899636 61.867105 
L 249.146182 61.867633 
L 252.392727 61.868182 
L 255.639273 61.86873 
L 258.885818 61.869003 
L 262.132364 61.86922 
L 265.378909 61.869376 
L 268.625455 61.87826 
L 271.872 62.32272 
L 275.118545 62.414495 
L 278.365091 62.573514 
L 281.611636 62.753351 
L 284.858182 62.892732 
L 288.104727 62.951236 
L 291.351273 62.934911 
L 294.597818 62.871815 
L 297.844364 62.784329 
L 301.090909 62.686572 
L 304.337455 62.588062 
L 307.584 62.493481 
L 310.830545 62.406056 
L 314.077091 62.327239 
L 317.323636 62.257246 
L 320.570182 62.195969 
L 323.816727 62.143101 
L 327.063273 62.097967 
L 330.309818 62.059603 
L 333.556364 62.027236 
L 336.802909 62.000102 
L 340.049455 61.977493 
L 343.296 61.958707 
L 346.542545 61.943206 
L 349.789091 61.930367 
L 353.035636 61.919793 
L 356.282182 61.910986 
L 359.528727 61.903767 
L 362.775273 61.897784 
L 366.021818 61.893026 
L 369.268364 61.889065 
L 372.514909 61.885713 
L 375.761455 61.883104 
L 379.008 61.880902 
L 382.254545 61.878982 
L 385.501091 61.877498 
L 388.747636 61.876226 
L 391.994182 61.875083 
L 395.240727 61.874129 
L 398.487273 61.873288 
" clip-path="url(#pc7201d7bbd)" style="fill: none; stroke: #2ca02c; stroke-width: 1.5; stroke-linecap: square"/>
   </g>
   <g id="patch_3">
    <path d="M 57.6 87.353379 
L 57.6 41.472 
" style="fill: none; stroke: #000000; stroke-width: 0.8; stroke-linejoin: miter; stroke-linecap: square"/>
   </g>
   <g id="patch_4">
    <path d="M 414.72 87.353379 
L 414.72 41.472 
" style="fill: none; stroke: #000000; stroke-width: 0.8; stroke-linejoin: miter; stroke-linecap: square"/>
   </g>
   <g id="patch_5">
    <path d="M 57.6 87.353379 
L 414.72 87.353379 
" style="fill: none; stroke: #000000; stroke-width: 0.8; stroke-linejoin: miter; stroke-linecap: square"/>
   </g>
   <g id="patch_6">
    <path d="M 57.6 41.472 
L 414.72 41.472 
" style="fill: none; stroke: #000000; stroke-width: 0.8; stroke-linejoin: miter; stroke-linecap: square"/>
   </g>
   <g id="text_5">
    <!-- velocity vs time (container 1)   -->
    <g transform="translate(144.106875 35.472)scale(0.12 -0.12)">
     <defs>
      <path id="DejaVuSans-76" d="M 191 3500 
L 800 3500 
L 1894 563 
L 2988 3500 
L 3597 3500 
L 2284 0 
L 1503 0 
L 191 3500 
z
" transform="scale(0.015625)"/>
      <path id="DejaVuSans-63" d="M 3122 3366 
L 3122 2828 
Q 2878 2963 2633 3030 
Q 2388 3097 2138 3097 
Q 1578 3097 1268 2742 
Q 959 2388 959 1747 
Q 959 1106 1268 751 
Q 1578 397 2138 397 
Q 2388 397 2633 464 
Q 2878 531 3122 666 
L 3122 134 
Q 2881 22 2623 -34 
Q 2366 -91 2075 -91 
Q 1284 -91 818 406 
Q 353 903 353 1747 
Q 353 2603 823 3093 
Q 1294 3584 2113 3584 
Q 2378 3584 2631 3529 
Q 2884 3475 3122 3366 
z
" transform="scale(0.015625)"/>
      <path id="DejaVuSans-79" d="M 2059 -325 
Q 1816 -950 1584 -1140 
Q 1353 -1331 966 -1331 
L 506 -1331 
L 506 -850 
L 844 -850 
Q 1081 -850 1212 -737 
Q 1344 -625 1503 -206 
L 1606 56 
L 191 3500 
L 800 3500 
L 1894 763 
L 2988 3500 
L 3597 3500 
L 2059 -325 
z
" transform="scale(0.015625)"/>
      <path id="DejaVuSans-73" d="M 2834 3397 
L 2834 2853 
Q 2591 2978 2328 3040 
Q 2066 3103 1784 3103 
Q 1356 3103 1142 2972 
Q 928 2841 928 2578 
Q 928 2378 1081 2264 
Q 1234 2150 1697 2047 
L 1894 2003 
Q 2506 1872 2764 1633 
Q 3022 1394 3022 966 
Q 3022 478 2636 193 
Q 2250 -91 1575 -91 
Q 1294 -91 989 -36 
Q 684 19 347 128 
L 347 722 
Q 666 556 975 473 
Q 1284 391 1588 391 
Q 1994 391 2212 530 
Q 2431 669 2431 922 
Q 2431 1156 2273 1281 
Q 2116 1406 1581 1522 
L 1381 1569 
Q 847 1681 609 1914 
Q 372 2147 372 2553 
Q 372 3047 722 3315 
Q 1072 3584 1716 3584 
Q 2034 3584 2315 3537 
Q 2597 3491 2834 3397 
z
" transform="scale(0.015625)"/>
     </defs>
     <use xlink:href="#DejaVuSans-76"/>
     <use xlink:href="#DejaVuSans-65" x="59.179688"/>
     <use xlink:href="#DejaVuSans-6c" x="120.703125"/>
     <use xlink:href="#DejaVuSans-6f" x="148.486328"/>
     <use xlink:href="#DejaVuSans-63" x="209.667969"/>
     <use xlink:href="#DejaVuSans-69" x="264.648438"/>
     <use xlink:href="#DejaVuSans-74" x="292.431641"/>
     <use xlink:href="#DejaVuSans-79" x="331.640625"/>
     <use xlink:href="#DejaVuSans-20" x="390.820312"/>
     <use xlink:href="#DejaVuSans-76" x="422.607422"/>
     <use xlink:href="#DejaVuSans-73" x="481.787109"/>
     <use xlink:href="#DejaVuSans-20" x="533.886719"/>
     <use xlink:href="#DejaVuSans-74" x="565.673828"/>
     <use xlink:href="#DejaVuSans-69" x="604.882812"/>
     <use xlink:href="#DejaVuSans-6d" x="632.666016"/>
     <use xlink:href="#DejaVuSans-65" x="730.078125"/>
     <use xlink:href="#DejaVuSans-20" x="791.601562"/>
     <use xlink:href="#DejaVuSans-28" x="823.388672"/>
     <use xlink:href="#DejaVuSans-63" x="862.402344"/>
     <use xlink:href="#DejaVuSans-6f" x="917.382812"/>
     <use xlink:href="#DejaVuSans-6e" x="978.564453"/>
     <use xlink:href="#DejaVuSans-74" x="1041.943359"/>
     <use xlink:href="#DejaVuSans-61" x="1081.152344"/>
     <use xlink:href="#DejaVuSans-69" x="1142.431641"/>
     <use xlink:href="#DejaVuSans-6e" x="1170.214844"/>
     <use xlink:href="#DejaVuSans-65" x="1233.59375"/>
     <use xlink:href="#DejaVuSans-72" x="1295.117188"/>
     <use xlink:href="#DejaVuSans-20" x="1336.230469"/>
     <use xlink:href="#DejaVuSans-31" x="1368.017578"/>
     <use xlink:href="#DejaVuSans-29" x="1431.640625"/>
     <use xlink:href="#DejaVuSans-20" x="1470.654297"/>
     <use xlink:href="#DejaVuSans-20" x="1502.441406"/>
    </g>
   </g>
   <g id="legend_1">
    <g id="patch_7">
     <path d="M 64.6 93.506375 
L 139.240625 93.506375 
Q 141.240625 93.506375 141.240625 91.506375 
L 141.240625 48.472 
Q 141.240625 46.472 139.240625 46.472 
L 64.6 46.472 
Q 62.6 46.472 62.6 48.472 
L 62.6 91.506375 
Q 62.6 93.506375 64.6 93.506375 
z
" style="fill: #ffffff; opacity: 0.8; stroke: #cccccc; stroke-linejoin: miter"/>
    </g>
    <g id="line2d_13">
     <path d="M 66.6 54.570437 
L 76.6 54.570437 
L 86.6 54.570437 
" style="fill: none; stroke: #1f77b4; stroke-width: 1.5; stroke-linecap: square"/>
    </g>
    <g id="text_6">
     <!-- mid flow -->
     <g transform="translate(94.6 58.070437)scale(0.1 -0.1)">
      <use xlink:href="#DejaVuSans-6d"/>
      <use xlink:href="#DejaVuSans-69" x="97.412109"/>
      <use xlink:href="#DejaVuSans-64" x="125.195312"/>
      <use xlink:href="#DejaVuSans-20" x="188.671875"/>
      <use xlink:href="#DejaVuSans-66" x="220.458984"/>
      <use xlink:href="#DejaVuSans-6c" x="255.664062"/>
      <use xlink:href="#DejaVuSans-6f" x="283.447266"/>
      <use xlink:href="#DejaVuSans-77" x="344.628906"/>
     </g>
    </g>
    <g id="line2d_14">
     <path d="M 66.6 69.248562 
L 76.6 69.248562 
L 86.6 69.248562 
" style="fill: none; stroke: #ff7f0e; stroke-width: 1.5; stroke-linecap: square"/>
    </g>
    <g id="text_7">
     <!-- v0 flow -->
     <g transform="translate(94.6 72.748562)scale(0.1 -0.1)">
      <use xlink:href="#DejaVuSans-76"/>
      <use xlink:href="#DejaVuSans-30" x="59.179688"/>
      <use xlink:href="#DejaVuSans-20" x="122.802734"/>
      <use xlink:href="#DejaVuSans-66" x="154.589844"/>
      <use xlink:href="#DejaVuSans-6c" x="189.794922"/>
      <use xlink:href="#DejaVuSans-6f" x="217.578125"/>
      <use xlink:href="#DejaVuSans-77" x="278.759766"/>
     </g>
    </g>
    <g id="line2d_15">
     <path d="M 66.6 83.926687 
L 76.6 83.926687 
L 86.6 83.926687 
" style="fill: none; stroke: #2ca02c; stroke-width: 1.5; stroke-linecap: square"/>
    </g>
    <g id="text_8">
     <!-- vN flow -->
     <g transform="translate(94.6 87.426687)scale(0.1 -0.1)">
      <defs>
       <path id="DejaVuSans-4e" d="M 628 4666 
L 1478 4666 
L 3547 763 
L 3547 4666 
L 4159 4666 
L 4159 0 
L 3309 0 
L 1241 3903 
L 1241 0 
L 628 0 
L 628 4666 
z
" transform="scale(0.015625)"/>
      </defs>
      <use xlink:href="#DejaVuSans-76"/>
      <use xlink:href="#DejaVuSans-4e" x="59.179688"/>
      <use xlink:href="#DejaVuSans-20" x="133.984375"/>
      <use xlink:href="#DejaVuSans-66" x="165.771484"/>
      <use xlink:href="#DejaVuSans-6c" x="200.976562"/>
      <use xlink:href="#DejaVuSans-6f" x="228.759766"/>
      <use xlink:href="#DejaVuSans-77" x="289.941406"/>
     </g>
    </g>
   </g>
  </g>
  <g id="axes_2">
   <g id="patch_8">
    <path d="M 57.6 142.411034 
L 414.72 142.411034 
L 414.72 96.529655 
L 57.6 96.529655 
z
" style="fill: #ffffff"/>
   </g>
   <g id="matplotlib.axis_3">
    <g id="xtick_7">
     <g id="line2d_16">
      <g>
       <use xlink:href="#m9f64107b0a" x="73.832727" y="142.411034" style="stroke: #000000; stroke-width: 0.8"/>
      </g>
     </g>
    </g>
    <g id="xtick_8">
     <g id="line2d_17">
      <g>
       <use xlink:href="#m9f64107b0a" x="138.763636" y="142.411034" style="stroke: #000000; stroke-width: 0.8"/>
      </g>
     </g>
    </g>
    <g id="xtick_9">
     <g id="line2d_18">
      <g>
       <use xlink:href="#m9f64107b0a" x="203.694545" y="142.411034" style="stroke: #000000; stroke-width: 0.8"/>
      </g>
     </g>
    </g>
    <g id="xtick_10">
     <g id="line2d_19">
      <g>
       <use xlink:href="#m9f64107b0a" x="268.625455" y="142.411034" style="stroke: #000000; stroke-width: 0.8"/>
      </g>
     </g>
    </g>
    <g id="xtick_11">
     <g id="line2d_20">
      <g>
       <use xlink:href="#m9f64107b0a" x="333.556364" y="142.411034" style="stroke: #000000; stroke-width: 0.8"/>
      </g>
     </g>
    </g>
    <g id="xtick_12">
     <g id="line2d_21">
      <g>
       <use xlink:href="#m9f64107b0a" x="398.487273" y="142.411034" style="stroke: #000000; stroke-width: 0.8"/>
      </g>
     </g>
    </g>
   </g>
   <g id="matplotlib.axis_4">
    <g id="ytick_4">
     <g id="line2d_22">
      <g>
       <use xlink:href="#m5405d910f2" x="57.6" y="140.745264" style="stroke: #000000; stroke-width: 0.8"/>
      </g>
     </g>
     <g id="text_9">
      <!-- 0 -->
      <g transform="translate(44.2375 144.544483)scale(0.1 -0.1)">
       <use xlink:href="#DejaVuSans-30"/>
      </g>
     </g>
    </g>
    <g id="ytick_5">
     <g id="line2d_23">
      <g>
       <use xlink:href="#m5405d910f2" x="57.6" y="98.771643" style="stroke: #000000; stroke-width: 0.8"/>
      </g>
     </g>
     <g id="text_10">
      <!-- 1 -->
      <g transform="translate(44.2375 102.570862)scale(0.1 -0.1)">
       <use xlink:href="#DejaVuSans-31"/>
      </g>
     </g>
    </g>
   </g>
   <g id="line2d_24">
    <path d="M 73.832727 140.325517 
L 77.079273 123.977918 
L 80.325818 114.054012 
L 83.572364 108.066129 
L 86.818909 104.398408 
L 90.065455 102.182809 
L 93.312 100.840577 
L 96.558545 100.026348 
L 99.805091 99.531346 
L 103.051636 99.232654 
L 106.298182 99.050524 
L 109.544727 98.941024 
L 112.791273 98.874363 
L 116.037818 98.832915 
L 119.284364 98.809556 
L 122.530909 98.790923 
L 125.777455 98.615172 
L 129.024 98.615172 
L 132.270545 98.615172 
L 135.517091 98.615173 
L 138.763636 98.615173 
L 142.010182 98.615173 
L 145.256727 98.615173 
L 148.503273 98.615173 
L 151.749818 98.615173 
L 154.996364 98.615173 
L 158.242909 98.615173 
L 161.489455 98.615173 
L 164.736 98.615173 
L 167.982545 98.615173 
L 171.229091 98.615208 
L 174.475636 113.647588 
L 177.722182 122.620316 
L 180.968727 128.087935 
L 184.215273 131.420267 
L 187.461818 133.429103 
L 190.708364 134.653446 
L 193.954909 135.398213 
L 197.201455 135.849307 
L 200.448 136.122872 
L 203.694545 136.290973 
L 206.941091 136.390924 
L 210.187636 136.45333 
L 213.434182 136.489918 
L 216.680727 136.513293 
L 219.927273 136.526567 
L 223.173818 136.535053 
L 226.420364 136.540149 
L 229.666909 136.543189 
L 232.913455 136.545101 
L 236.16 136.546347 
L 239.406545 136.546761 
L 242.653091 136.547101 
L 245.899636 136.547441 
L 249.146182 136.547631 
L 252.392727 136.547718 
L 255.639273 136.547805 
L 258.885818 136.547842 
L 262.132364 136.547867 
L 265.378909 136.547882 
L 268.625455 136.549307 
L 271.872 138.032471 
L 275.118545 138.933029 
L 278.365091 139.47939 
L 281.611636 139.809924 
L 284.858182 140.010292 
L 288.104727 140.131725 
L 291.351273 140.205474 
L 294.597818 140.250622 
L 297.844364 140.278522 
L 301.090909 140.295775 
L 304.337455 140.306548 
L 307.584 140.313257 
L 310.830545 140.317499 
L 314.077091 140.320202 
L 317.323636 140.321932 
L 320.570182 140.323034 
L 323.816727 140.323781 
L 327.063273 140.32428 
L 330.309818 140.324613 
L 333.556364 140.324845 
L 336.802909 140.325007 
L 340.049455 140.325121 
L 343.296 140.325215 
L 346.542545 140.325278 
L 349.789091 140.325331 
L 353.035636 140.325368 
L 356.282182 140.3254 
L 359.528727 140.325424 
L 362.775273 140.325443 
L 366.021818 140.325457 
L 369.268364 140.32547 
L 372.514909 140.325481 
L 375.761455 140.325488 
L 379.008 140.325495 
L 382.254545 140.3255 
L 385.501091 140.325505 
L 388.747636 140.325508 
L 391.994182 140.325512 
L 395.240727 140.325515 
L 398.487273 140.325517 
" clip-path="url(#p899c3cdb91)" style="fill: none; stroke: #1f77b4; stroke-width: 1.5; stroke-linecap: square"/>
   </g>
   <g id="line2d_25">
    <path d="M 73.832727 140.325322 
L 77.079273 124.032302 
L 80.325818 114.074212 
L 83.572364 108.076198 
L 86.818909 104.403917 
L 90.065455 102.185799 
L 93.312 100.842292 
L 96.558545 100.02735 
L 99.805091 99.531937 
L 103.051636 99.232982 
L 106.298182 99.050724 
L 109.544727 98.941142 
L 112.791273 98.874434 
L 116.037818 98.832956 
L 119.284364 98.809576 
L 122.530909 98.793465 
L 125.777455 98.69534 
L 129.024 98.69534 
L 132.270545 98.69534 
L 135.517091 98.69534 
L 138.763636 98.695341 
L 142.010182 98.695341 
L 145.256727 98.695341 
L 148.503273 98.695341 
L 151.749818 98.695341 
L 154.996364 98.695341 
L 158.242909 98.695341 
L 161.489455 98.695341 
L 164.736 98.695341 
L 167.982545 98.695341 
L 171.229091 98.695356 
L 174.475636 113.657282 
L 177.722182 122.628831 
L 180.968727 128.095367 
L 184.215273 131.42648 
L 187.461818 133.434225 
L 190.708364 134.656559 
L 193.954909 135.401191 
L 197.201455 135.850917 
L 200.448 136.124046 
L 203.694545 136.292006 
L 206.941091 136.391131 
L 210.187636 136.453662 
L 213.434182 136.490296 
L 216.680727 136.513098 
L 219.927273 136.526745 
L 223.173818 136.535109 
L 226.420364 136.54018 
L 229.666909 136.543209 
L 232.913455 136.545112 
L 236.16 136.546352 
L 239.406545 136.546766 
L 242.653091 136.547105 
L 245.899636 136.547445 
L 249.146182 136.547633 
L 252.392727 136.54772 
L 255.639273 136.547806 
L 258.885818 136.547842 
L 262.132364 136.547868 
L 265.378909 136.547882 
L 268.625455 136.548564 
L 271.872 138.003409 
L 275.118545 138.897734 
L 278.365091 139.432835 
L 281.611636 139.749609 
L 284.858182 139.938203 
L 288.104727 140.05332 
L 291.351273 140.127416 
L 294.597818 140.177584 
L 297.844364 140.21289 
L 301.090909 140.238596 
L 304.337455 140.257752 
L 307.584 140.272247 
L 310.830545 140.283373 
L 314.077091 140.291991 
L 317.323636 140.298729 
L 320.570182 140.304011 
L 323.816727 140.308206 
L 327.063273 140.31154 
L 330.309818 140.314201 
L 333.556364 140.316339 
L 336.802909 140.318054 
L 340.049455 140.319427 
L 343.296 140.32055 
L 346.542545 140.321446 
L 349.789091 140.322186 
L 353.035636 140.322781 
L 356.282182 140.323277 
L 359.528727 140.323677 
L 362.775273 140.324008 
L 366.021818 140.324266 
L 369.268364 140.324481 
L 372.514909 140.324664 
L 375.761455 140.324803 
L 379.008 140.324921 
L 382.254545 140.325025 
L 385.501091 140.325104 
L 388.747636 140.325172 
L 391.994182 140.325233 
L 395.240727 140.325285 
L 398.487273 140.32533 
" clip-path="url(#p899c3cdb91)" style="fill: none; stroke: #ff7f0e; stroke-width: 1.5; stroke-linecap: square"/>
   </g>
   <g id="line2d_26">
    <path d="M 73.832727 140.325248 
L 77.079273 124.049249 
L 80.325818 114.080492 
L 83.572364 108.079323 
L 86.818909 104.405629 
L 90.065455 102.186728 
L 93.312 100.842825 
L 96.558545 100.027662 
L 99.805091 99.532121 
L 103.051636 99.233084 
L 106.298182 99.050786 
L 109.544727 98.941178 
L 112.791273 98.874456 
L 116.037818 98.832968 
L 119.284364 98.809582 
L 122.530909 98.793117 
L 125.777455 98.767623 
L 129.024 98.767623 
L 132.270545 98.767623 
L 135.517091 98.767623 
L 138.763636 98.767623 
L 142.010182 98.767623 
L 145.256727 98.767623 
L 148.503273 98.767623 
L 151.749818 98.767623 
L 154.996364 98.767623 
L 158.242909 98.767623 
L 161.489455 98.767623 
L 164.736 98.767623 
L 167.982545 98.767623 
L 171.229091 98.767631 
L 174.475636 113.681078 
L 177.722182 122.649746 
L 180.968727 128.113626 
L 184.215273 131.44174 
L 187.461818 133.446815 
L 190.708364 134.664159 
L 193.954909 135.408515 
L 197.201455 135.854852 
L 200.448 136.126876 
L 203.694545 136.294597 
L 206.941091 136.391534 
L 210.187636 136.454507 
L 213.434182 136.491197 
L 216.680727 136.512596 
L 219.927273 136.52719 
L 223.173818 136.535252 
L 226.420364 136.540263 
L 229.666909 136.543259 
L 232.913455 136.545139 
L 236.16 136.546365 
L 239.406545 136.546776 
L 242.653091 136.547114 
L 245.899636 136.547452 
L 249.146182 136.547639 
L 252.392727 136.547724 
L 255.639273 136.547809 
L 258.885818 136.547844 
L 262.132364 136.547869 
L 265.378909 136.547883 
L 268.625455 136.548381 
L 271.872 137.994446 
L 275.118545 138.886937 
L 278.365091 139.418836 
L 281.611636 139.731941 
L 284.858182 139.917644 
L 288.104727 140.031496 
L 291.351273 140.105887 
L 294.597818 140.157346 
L 297.844364 140.194462 
L 301.090909 140.222198 
L 304.337455 140.243398 
L 307.584 140.259844 
L 310.830545 140.272764 
L 314.077091 140.282987 
L 317.323636 140.29114 
L 320.570182 140.297651 
L 323.816727 140.302898 
L 327.063273 140.307125 
L 330.309818 140.310539 
L 333.556364 140.31331 
L 336.802909 140.315552 
L 340.049455 140.317363 
L 343.296 140.318847 
L 346.542545 140.320041 
L 349.789091 140.321027 
L 353.035636 140.321825 
L 356.282182 140.322489 
L 359.528727 140.323027 
L 362.775273 140.323472 
L 366.021818 140.32382 
L 369.268364 140.32411 
L 372.514909 140.324357 
L 375.761455 140.324546 
L 379.008 140.324706 
L 382.254545 140.324846 
L 385.501091 140.324953 
L 388.747636 140.325045 
L 391.994182 140.325128 
L 395.240727 140.325198 
L 398.487273 140.325259 
" clip-path="url(#p899c3cdb91)" style="fill: none; stroke: #2ca02c; stroke-width: 1.5; stroke-linecap: square"/>
   </g>
   <g id="patch_9">
    <path d="M 57.6 142.411034 
L 57.6 96.529655 
" style="fill: none; stroke: #000000; stroke-width: 0.8; stroke-linejoin: miter; stroke-linecap: square"/>
   </g>
   <g id="patch_10">
    <path d="M 414.72 142.411034 
L 414.72 96.529655 
" style="fill: none; stroke: #000000; stroke-width: 0.8; stroke-linejoin: miter; stroke-linecap: square"/>
   </g>
   <g id="patch_11">
    <path d="M 57.6 142.411034 
L 414.72 142.411034 
" style="fill: none; stroke: #000000; stroke-width: 0.8; stroke-linejoin: miter; stroke-linecap: square"/>
   </g>
   <g id="patch_12">
    <path d="M 57.6 96.529655 
L 414.72 96.529655 
" style="fill: none; stroke: #000000; stroke-width: 0.8; stroke-linejoin: miter; stroke-linecap: square"/>
   </g>
   <g id="text_11">
    <!-- Pressure -->
    <g transform="translate(210.546562 90.529655)scale(0.12 -0.12)">
     <defs>
      <path id="DejaVuSans-50" d="M 1259 4147 
L 1259 2394 
L 2053 2394 
Q 2494 2394 2734 2622 
Q 2975 2850 2975 3272 
Q 2975 3691 2734 3919 
Q 2494 4147 2053 4147 
L 1259 4147 
z
M 628 4666 
L 2053 4666 
Q 2838 4666 3239 4311 
Q 3641 3956 3641 3272 
Q 3641 2581 3239 2228 
Q 2838 1875 2053 1875 
L 1259 1875 
L 1259 0 
L 628 0 
L 628 4666 
z
" transform="scale(0.015625)"/>
      <path id="DejaVuSans-75" d="M 544 1381 
L 544 3500 
L 1119 3500 
L 1119 1403 
Q 1119 906 1312 657 
Q 1506 409 1894 409 
Q 2359 409 2629 706 
Q 2900 1003 2900 1516 
L 2900 3500 
L 3475 3500 
L 3475 0 
L 2900 0 
L 2900 538 
Q 2691 219 2414 64 
Q 2138 -91 1772 -91 
Q 1169 -91 856 284 
Q 544 659 544 1381 
z
M 1991 3584 
L 1991 3584 
z
" transform="scale(0.015625)"/>
     </defs>
     <use xlink:href="#DejaVuSans-50"/>
     <use xlink:href="#DejaVuSans-72" x="58.552734"/>
     <use xlink:href="#DejaVuSans-65" x="97.416016"/>
     <use xlink:href="#DejaVuSans-73" x="158.939453"/>
     <use xlink:href="#DejaVuSans-73" x="211.039062"/>
     <use xlink:href="#DejaVuSans-75" x="263.138672"/>
     <use xlink:href="#DejaVuSans-72" x="326.517578"/>
     <use xlink:href="#DejaVuSans-65" x="365.380859"/>
    </g>
   </g>
   <g id="legend_2">
    <g id="patch_13">
     <path d="M 350.823125 137.411034 
L 407.72 137.411034 
Q 409.72 137.411034 409.72 135.411034 
L 409.72 92.376659 
Q 409.72 90.376659 407.72 90.376659 
L 350.823125 90.376659 
Q 348.823125 90.376659 348.823125 92.376659 
L 348.823125 135.411034 
Q 348.823125 137.411034 350.823125 137.411034 
z
" style="fill: #ffffff; opacity: 0.8; stroke: #cccccc; stroke-linejoin: miter"/>
    </g>
    <g id="line2d_27">
     <path d="M 352.823125 98.475097 
L 362.823125 98.475097 
L 372.823125 98.475097 
" style="fill: none; stroke: #1f77b4; stroke-width: 1.5; stroke-linecap: square"/>
    </g>
    <g id="text_12">
     <!-- P1 -->
     <g transform="translate(380.823125 101.975097)scale(0.1 -0.1)">
      <use xlink:href="#DejaVuSans-50"/>
      <use xlink:href="#DejaVuSans-31" x="60.302734"/>
     </g>
    </g>
    <g id="line2d_28">
     <path d="M 352.823125 113.153222 
L 362.823125 113.153222 
L 372.823125 113.153222 
" style="fill: none; stroke: #ff7f0e; stroke-width: 1.5; stroke-linecap: square"/>
    </g>
    <g id="text_13">
     <!-- Pmid -->
     <g transform="translate(380.823125 116.653222)scale(0.1 -0.1)">
      <use xlink:href="#DejaVuSans-50"/>
      <use xlink:href="#DejaVuSans-6d" x="60.302734"/>
      <use xlink:href="#DejaVuSans-69" x="157.714844"/>
      <use xlink:href="#DejaVuSans-64" x="185.498047"/>
     </g>
    </g>
    <g id="line2d_29">
     <path d="M 352.823125 127.831347 
L 362.823125 127.831347 
L 372.823125 127.831347 
" style="fill: none; stroke: #2ca02c; stroke-width: 1.5; stroke-linecap: square"/>
    </g>
    <g id="text_14">
     <!-- PN -->
     <g transform="translate(380.823125 131.331347)scale(0.1 -0.1)">
      <use xlink:href="#DejaVuSans-50"/>
      <use xlink:href="#DejaVuSans-4e" x="60.302734"/>
     </g>
    </g>
   </g>
  </g>
  <g id="axes_3">
   <g id="patch_14">
    <path d="M 57.6 197.46869 
L 414.72 197.46869 
L 414.72 151.58731 
L 57.6 151.58731 
z
" style="fill: #ffffff"/>
   </g>
   <g id="matplotlib.axis_5">
    <g id="xtick_13">
     <g id="line2d_30">
      <g>
       <use xlink:href="#m9f64107b0a" x="73.832727" y="197.46869" style="stroke: #000000; stroke-width: 0.8"/>
      </g>
     </g>
    </g>
    <g id="xtick_14">
     <g id="line2d_31">
      <g>
       <use xlink:href="#m9f64107b0a" x="138.763636" y="197.46869" style="stroke: #000000; stroke-width: 0.8"/>
      </g>
     </g>
    </g>
    <g id="xtick_15">
     <g id="line2d_32">
      <g>
       <use xlink:href="#m9f64107b0a" x="203.694545" y="197.46869" style="stroke: #000000; stroke-width: 0.8"/>
      </g>
     </g>
    </g>
    <g id="xtick_16">
     <g id="line2d_33">
      <g>
       <use xlink:href="#m9f64107b0a" x="268.625455" y="197.46869" style="stroke: #000000; stroke-width: 0.8"/>
      </g>
     </g>
    </g>
    <g id="xtick_17">
     <g id="line2d_34">
      <g>
       <use xlink:href="#m9f64107b0a" x="333.556364" y="197.46869" style="stroke: #000000; stroke-width: 0.8"/>
      </g>
     </g>
    </g>
    <g id="xtick_18">
     <g id="line2d_35">
      <g>
       <use xlink:href="#m9f64107b0a" x="398.487273" y="197.46869" style="stroke: #000000; stroke-width: 0.8"/>
      </g>
     </g>
    </g>
   </g>
   <g id="matplotlib.axis_6">
    <g id="ytick_6">
     <g id="line2d_36">
      <g>
       <use xlink:href="#m5405d910f2" x="57.6" y="192.416715" style="stroke: #000000; stroke-width: 0.8"/>
      </g>
     </g>
     <g id="text_15">
      <!-- 0.050 -->
      <g transform="translate(21.971875 196.215933)scale(0.1 -0.1)">
       <defs>
        <path id="DejaVuSans-2e" d="M 684 794 
L 1344 794 
L 1344 0 
L 684 0 
L 684 794 
z
" transform="scale(0.015625)"/>
        <path id="DejaVuSans-35" d="M 691 4666 
L 3169 4666 
L 3169 4134 
L 1269 4134 
L 1269 2991 
Q 1406 3038 1543 3061 
Q 1681 3084 1819 3084 
Q 2600 3084 3056 2656 
Q 3513 2228 3513 1497 
Q 3513 744 3044 326 
Q 2575 -91 1722 -91 
Q 1428 -91 1123 -41 
Q 819 9 494 109 
L 494 744 
Q 775 591 1075 516 
Q 1375 441 1709 441 
Q 2250 441 2565 725 
Q 2881 1009 2881 1497 
Q 2881 1984 2565 2268 
Q 2250 2553 1709 2553 
Q 1456 2553 1204 2497 
Q 953 2441 691 2322 
L 691 4666 
z
" transform="scale(0.015625)"/>
       </defs>
       <use xlink:href="#DejaVuSans-30"/>
       <use xlink:href="#DejaVuSans-2e" x="63.623047"/>
       <use xlink:href="#DejaVuSans-30" x="95.410156"/>
       <use xlink:href="#DejaVuSans-35" x="159.033203"/>
       <use xlink:href="#DejaVuSans-30" x="222.65625"/>
      </g>
     </g>
    </g>
    <g id="ytick_7">
     <g id="line2d_37">
      <g>
       <use xlink:href="#m5405d910f2" x="57.6" y="164.840003" style="stroke: #000000; stroke-width: 0.8"/>
      </g>
     </g>
     <g id="text_16">
      <!-- 0.051 -->
      <g transform="translate(21.971875 168.639222)scale(0.1 -0.1)">
       <use xlink:href="#DejaVuSans-30"/>
       <use xlink:href="#DejaVuSans-2e" x="63.623047"/>
       <use xlink:href="#DejaVuSans-30" x="95.410156"/>
       <use xlink:href="#DejaVuSans-35" x="159.033203"/>
       <use xlink:href="#DejaVuSans-31" x="222.65625"/>
      </g>
     </g>
    </g>
    <g id="text_17">
     <!-- fraction -->
     <g transform="translate(15.892187 193.73425)rotate(-90)scale(0.1 -0.1)">
      <use xlink:href="#DejaVuSans-66"/>
      <use xlink:href="#DejaVuSans-72" x="35.205078"/>
      <use xlink:href="#DejaVuSans-61" x="76.318359"/>
      <use xlink:href="#DejaVuSans-63" x="137.597656"/>
      <use xlink:href="#DejaVuSans-74" x="192.578125"/>
      <use xlink:href="#DejaVuSans-69" x="231.787109"/>
      <use xlink:href="#DejaVuSans-6f" x="259.570312"/>
      <use xlink:href="#DejaVuSans-6e" x="320.751953"/>
     </g>
    </g>
   </g>
   <g id="line2d_38">
    <path d="M 73.832727 171.222222 
L 77.079273 192.444919 
L 80.325818 192.494538 
L 83.572364 195.383172 
L 86.818909 194.537582 
L 90.065455 195.166392 
L 93.312 195.239876 
L 96.558545 194.051978 
L 99.805091 193.821516 
L 103.051636 193.480686 
L 106.298182 193.498206 
L 109.544727 193.237429 
L 112.791273 193.905459 
L 116.037818 193.450399 
L 119.284364 192.159774 
L 122.530909 193.119516 
L 125.777455 192.612589 
L 129.024 192.563049 
L 132.270545 192.533649 
L 135.517091 192.504249 
L 138.763636 192.494593 
L 142.010182 192.472203 
L 145.256727 192.454741 
L 148.503273 192.43956 
L 151.749818 192.428512 
L 154.996364 192.421597 
L 158.242909 192.418145 
L 161.489455 192.4134 
L 164.736 192.410507 
L 167.982545 192.409468 
L 171.229091 192.410329 
L 174.475636 192.292496 
L 177.722182 192.13047 
L 180.968727 191.917413 
L 184.215273 191.654822 
L 187.461818 191.396321 
L 190.708364 191.174342 
L 193.954909 190.948354 
L 197.201455 190.792845 
L 200.448 190.684135 
L 203.694545 190.610114 
L 206.941091 190.564268 
L 210.187636 190.534087 
L 213.434182 190.516122 
L 216.680727 190.504948 
L 219.927273 190.49769 
L 223.173818 190.493487 
L 226.420364 190.49088 
L 229.666909 190.489323 
L 232.913455 190.488346 
L 236.16 190.48771 
L 239.406545 190.487503 
L 242.653091 190.487333 
L 245.899636 190.487164 
L 249.146182 190.487071 
L 252.392727 190.487031 
L 255.639273 190.486991 
L 258.885818 190.486977 
L 262.132364 190.486969 
L 265.378909 190.486966 
L 268.625455 190.486521 
L 271.872 189.319897 
L 275.118545 187.666994 
L 278.365091 185.518947 
L 281.611636 183.008478 
L 284.858182 180.40491 
L 288.104727 178.25244 
L 291.351273 175.957989 
L 294.597818 173.996059 
L 297.844364 173.374241 
L 301.090909 172.638616 
L 304.337455 172.149188 
L 307.584 171.832902 
L 310.830545 171.628256 
L 314.077091 171.494799 
L 317.323636 171.408981 
L 320.570182 171.353917 
L 323.816727 171.316581 
L 327.063273 171.291296 
L 330.309818 171.274472 
L 333.556364 171.262755 
L 336.802909 171.25458 
L 340.049455 171.248803 
L 343.296 171.244046 
L 346.542545 171.240836 
L 349.789091 171.238166 
L 353.035636 171.236249 
L 356.282182 171.234643 
L 359.528727 171.233434 
L 362.775273 171.232441 
L 366.021818 171.231722 
L 369.268364 171.231102 
L 372.514909 171.230537 
L 375.761455 171.230151 
L 379.008 171.229822 
L 382.254545 171.229525 
L 385.501091 171.229309 
L 388.747636 171.229121 
L 391.994182 171.228948 
L 395.240727 171.228804 
L 398.487273 171.228674 
" clip-path="url(#p67b8a2ae60)" style="fill: none; stroke: #1f77b4; stroke-width: 1.5; stroke-linecap: square"/>
   </g>
   <g id="line2d_39">
    <path d="M 73.832727 153.672828 
L 77.079273 175.129056 
L 80.325818 175.375769 
L 83.572364 175.47885 
L 86.818909 175.543218 
L 90.065455 175.591877 
L 93.312 175.633924 
L 96.558545 175.672048 
L 99.805091 175.707839 
L 103.051636 175.742049 
L 106.298182 175.775395 
L 109.544727 175.80801 
L 112.791273 175.840096 
L 116.037818 175.871746 
L 119.284364 175.902998 
L 122.530909 175.933407 
L 125.777455 182.054832 
L 129.024 183.575024 
L 132.270545 184.739409 
L 135.517091 185.903794 
L 138.763636 186.575614 
L 142.010182 187.565115 
L 145.256727 188.425312 
L 148.503273 189.195464 
L 151.749818 189.848113 
L 154.996364 190.383257 
L 158.242909 190.812835 
L 161.489455 191.221774 
L 164.736 191.553911 
L 167.982545 191.809246 
L 171.229091 191.987323 
L 174.475636 191.73177 
L 177.722182 191.587175 
L 180.968727 191.379633 
L 184.215273 191.122584 
L 187.461818 190.865208 
L 190.708364 190.6384 
L 193.954909 190.418324 
L 197.201455 190.264774 
L 200.448 190.157059 
L 203.694545 190.083684 
L 206.941091 190.039402 
L 210.187636 190.009106 
L 213.434182 189.991315 
L 216.680727 189.981224 
L 219.927273 189.973508 
L 223.173818 189.969757 
L 226.420364 189.967451 
L 229.666909 189.966143 
L 232.913455 189.965418 
L 236.16 189.965026 
L 239.406545 189.965051 
L 242.653091 189.965111 
L 245.899636 189.965172 
L 249.146182 189.965308 
L 252.392727 189.965496 
L 255.639273 189.965683 
L 258.885818 189.965896 
L 262.132364 189.966114 
L 265.378909 189.966338 
L 268.625455 189.966407 
L 271.872 188.843819 
L 275.118545 187.26344 
L 278.365091 185.309829 
L 281.611636 183.213699 
L 284.858182 181.279523 
L 288.104727 180.128673 
L 291.351273 177.994043 
L 294.597818 175.999493 
L 297.844364 175.753058 
L 301.090909 174.888182 
L 304.337455 174.162046 
L 307.584 173.556407 
L 310.830545 173.05079 
L 314.077091 172.630034 
L 317.323636 172.281424 
L 320.570182 171.993728 
L 323.816727 171.756826 
L 327.063273 171.560454 
L 330.309818 171.399606 
L 333.556364 171.26727 
L 336.802909 171.158596 
L 340.049455 171.070449 
L 343.296 170.998082 
L 346.542545 170.938877 
L 349.789091 170.889604 
L 353.035636 170.849723 
L 356.282182 170.816611 
L 359.528727 170.789581 
L 362.775273 170.767187 
L 366.021818 170.749636 
L 369.268364 170.73508 
L 372.514909 170.722772 
L 375.761455 170.713245 
L 379.008 170.705149 
L 382.254545 170.698016 
L 385.501091 170.692578 
L 388.747636 170.687923 
L 391.994182 170.683747 
L 395.240727 170.680272 
L 398.487273 170.677217 
" clip-path="url(#p67b8a2ae60)" style="fill: none; stroke: #ff7f0e; stroke-width: 1.5; stroke-linecap: square"/>
   </g>
   <g id="patch_15">
    <path d="M 57.6 197.46869 
L 57.6 151.58731 
" style="fill: none; stroke: #000000; stroke-width: 0.8; stroke-linejoin: miter; stroke-linecap: square"/>
   </g>
   <g id="patch_16">
    <path d="M 414.72 197.46869 
L 414.72 151.58731 
" style="fill: none; stroke: #000000; stroke-width: 0.8; stroke-linejoin: miter; stroke-linecap: square"/>
   </g>
   <g id="patch_17">
    <path d="M 57.6 197.46869 
L 414.72 197.46869 
" style="fill: none; stroke: #000000; stroke-width: 0.8; stroke-linejoin: miter; stroke-linecap: square"/>
   </g>
   <g id="patch_18">
    <path d="M 57.6 151.58731 
L 414.72 151.58731 
" style="fill: none; stroke: #000000; stroke-width: 0.8; stroke-linejoin: miter; stroke-linecap: square"/>
   </g>
   <g id="text_18">
    <!-- yA -->
    <g transform="translate(228.504375 145.58731)scale(0.12 -0.12)">
     <defs>
      <path id="DejaVuSans-41" d="M 2188 4044 
L 1331 1722 
L 3047 1722 
L 2188 4044 
z
M 1831 4666 
L 2547 4666 
L 4325 0 
L 3669 0 
L 3244 1197 
L 1141 1197 
L 716 0 
L 50 0 
L 1831 4666 
z
" transform="scale(0.015625)"/>
     </defs>
     <use xlink:href="#DejaVuSans-79"/>
     <use xlink:href="#DejaVuSans-41" x="59.179688"/>
    </g>
   </g>
   <g id="legend_3">
    <g id="patch_19">
     <path d="M 197.315469 188.94356 
L 275.004531 188.94356 
Q 277.004531 188.94356 277.004531 186.94356 
L 277.004531 158.58731 
Q 277.004531 156.58731 275.004531 156.58731 
L 197.315469 156.58731 
Q 195.315469 156.58731 195.315469 158.58731 
L 195.315469 186.94356 
Q 195.315469 188.94356 197.315469 188.94356 
z
" style="fill: #ffffff; opacity: 0.8; stroke: #cccccc; stroke-linejoin: miter"/>
    </g>
    <g id="line2d_40">
     <path d="M 199.315469 164.685748 
L 209.315469 164.685748 
L 219.315469 164.685748 
" style="fill: none; stroke: #1f77b4; stroke-width: 1.5; stroke-linecap: square"/>
    </g>
    <g id="text_19">
     <!-- yA0 (in) -->
     <g transform="translate(227.315469 168.185748)scale(0.1 -0.1)">
      <use xlink:href="#DejaVuSans-79"/>
      <use xlink:href="#DejaVuSans-41" x="59.179688"/>
      <use xlink:href="#DejaVuSans-30" x="127.587891"/>
      <use xlink:href="#DejaVuSans-20" x="191.210938"/>
      <use xlink:href="#DejaVuSans-28" x="222.998047"/>
      <use xlink:href="#DejaVuSans-69" x="262.011719"/>
      <use xlink:href="#DejaVuSans-6e" x="289.794922"/>
      <use xlink:href="#DejaVuSans-29" x="353.173828"/>
     </g>
    </g>
    <g id="line2d_41">
     <path d="M 199.315469 179.363873 
L 209.315469 179.363873 
L 219.315469 179.363873 
" style="fill: none; stroke: #ff7f0e; stroke-width: 1.5; stroke-linecap: square"/>
    </g>
    <g id="text_20">
     <!-- yAL (out) -->
     <g transform="translate(227.315469 182.863873)scale(0.1 -0.1)">
      <defs>
       <path id="DejaVuSans-4c" d="M 628 4666 
L 1259 4666 
L 1259 531 
L 3531 531 
L 3531 0 
L 628 0 
L 628 4666 
z
" transform="scale(0.015625)"/>
      </defs>
      <use xlink:href="#DejaVuSans-79"/>
      <use xlink:href="#DejaVuSans-41" x="59.179688"/>
      <use xlink:href="#DejaVuSans-4c" x="127.587891"/>
      <use xlink:href="#DejaVuSans-20" x="183.300781"/>
      <use xlink:href="#DejaVuSans-28" x="215.087891"/>
      <use xlink:href="#DejaVuSans-6f" x="254.101562"/>
      <use xlink:href="#DejaVuSans-75" x="315.283203"/>
      <use xlink:href="#DejaVuSans-74" x="378.662109"/>
      <use xlink:href="#DejaVuSans-29" x="417.871094"/>
     </g>
    </g>
   </g>
  </g>
  <g id="axes_4">
   <g id="patch_20">
    <path d="M 57.6 252.526345 
L 414.72 252.526345 
L 414.72 206.644966 
L 57.6 206.644966 
z
" style="fill: #ffffff"/>
   </g>
   <g id="matplotlib.axis_7">
    <g id="xtick_19">
     <g id="line2d_42">
      <g>
       <use xlink:href="#m9f64107b0a" x="73.832727" y="252.526345" style="stroke: #000000; stroke-width: 0.8"/>
      </g>
     </g>
    </g>
    <g id="xtick_20">
     <g id="line2d_43">
      <g>
       <use xlink:href="#m9f64107b0a" x="138.763636" y="252.526345" style="stroke: #000000; stroke-width: 0.8"/>
      </g>
     </g>
    </g>
    <g id="xtick_21">
     <g id="line2d_44">
      <g>
       <use xlink:href="#m9f64107b0a" x="203.694545" y="252.526345" style="stroke: #000000; stroke-width: 0.8"/>
      </g>
     </g>
    </g>
    <g id="xtick_22">
     <g id="line2d_45">
      <g>
       <use xlink:href="#m9f64107b0a" x="268.625455" y="252.526345" style="stroke: #000000; stroke-width: 0.8"/>
      </g>
     </g>
    </g>
    <g id="xtick_23">
     <g id="line2d_46">
      <g>
       <use xlink:href="#m9f64107b0a" x="333.556364" y="252.526345" style="stroke: #000000; stroke-width: 0.8"/>
      </g>
     </g>
    </g>
    <g id="xtick_24">
     <g id="line2d_47">
      <g>
       <use xlink:href="#m9f64107b0a" x="398.487273" y="252.526345" style="stroke: #000000; stroke-width: 0.8"/>
      </g>
     </g>
    </g>
   </g>
   <g id="matplotlib.axis_8">
    <g id="ytick_8">
     <g id="line2d_48">
      <g>
       <use xlink:href="#m5405d910f2" x="57.6" y="238.401231" style="stroke: #000000; stroke-width: 0.8"/>
      </g>
     </g>
     <g id="text_21">
      <!-- 0.899 -->
      <g transform="translate(21.971875 242.20045)scale(0.1 -0.1)">
       <defs>
        <path id="DejaVuSans-38" d="M 2034 2216 
Q 1584 2216 1326 1975 
Q 1069 1734 1069 1313 
Q 1069 891 1326 650 
Q 1584 409 2034 409 
Q 2484 409 2743 651 
Q 3003 894 3003 1313 
Q 3003 1734 2745 1975 
Q 2488 2216 2034 2216 
z
M 1403 2484 
Q 997 2584 770 2862 
Q 544 3141 544 3541 
Q 544 4100 942 4425 
Q 1341 4750 2034 4750 
Q 2731 4750 3128 4425 
Q 3525 4100 3525 3541 
Q 3525 3141 3298 2862 
Q 3072 2584 2669 2484 
Q 3125 2378 3379 2068 
Q 3634 1759 3634 1313 
Q 3634 634 3220 271 
Q 2806 -91 2034 -91 
Q 1263 -91 848 271 
Q 434 634 434 1313 
Q 434 1759 690 2068 
Q 947 2378 1403 2484 
z
M 1172 3481 
Q 1172 3119 1398 2916 
Q 1625 2713 2034 2713 
Q 2441 2713 2670 2916 
Q 2900 3119 2900 3481 
Q 2900 3844 2670 4047 
Q 2441 4250 2034 4250 
Q 1625 4250 1398 4047 
Q 1172 3844 1172 3481 
z
" transform="scale(0.015625)"/>
        <path id="DejaVuSans-39" d="M 703 97 
L 703 672 
Q 941 559 1184 500 
Q 1428 441 1663 441 
Q 2288 441 2617 861 
Q 2947 1281 2994 2138 
Q 2813 1869 2534 1725 
Q 2256 1581 1919 1581 
Q 1219 1581 811 2004 
Q 403 2428 403 3163 
Q 403 3881 828 4315 
Q 1253 4750 1959 4750 
Q 2769 4750 3195 4129 
Q 3622 3509 3622 2328 
Q 3622 1225 3098 567 
Q 2575 -91 1691 -91 
Q 1453 -91 1209 -44 
Q 966 3 703 97 
z
M 1959 2075 
Q 2384 2075 2632 2365 
Q 2881 2656 2881 3163 
Q 2881 3666 2632 3958 
Q 2384 4250 1959 4250 
Q 1534 4250 1286 3958 
Q 1038 3666 1038 3163 
Q 1038 2656 1286 2365 
Q 1534 2075 1959 2075 
z
" transform="scale(0.015625)"/>
       </defs>
       <use xlink:href="#DejaVuSans-30"/>
       <use xlink:href="#DejaVuSans-2e" x="63.623047"/>
       <use xlink:href="#DejaVuSans-38" x="95.410156"/>
       <use xlink:href="#DejaVuSans-39" x="159.033203"/>
       <use xlink:href="#DejaVuSans-39" x="222.65625"/>
      </g>
     </g>
    </g>
    <g id="ytick_9">
     <g id="line2d_49">
      <g>
       <use xlink:href="#m5405d910f2" x="57.6" y="211.811494" style="stroke: #000000; stroke-width: 0.8"/>
      </g>
     </g>
     <g id="text_22">
      <!-- 0.900 -->
      <g transform="translate(21.971875 215.610713)scale(0.1 -0.1)">
       <use xlink:href="#DejaVuSans-30"/>
       <use xlink:href="#DejaVuSans-2e" x="63.623047"/>
       <use xlink:href="#DejaVuSans-39" x="95.410156"/>
       <use xlink:href="#DejaVuSans-30" x="159.033203"/>
       <use xlink:href="#DejaVuSans-30" x="222.65625"/>
      </g>
     </g>
    </g>
    <g id="text_23">
     <!-- fraction -->
     <g transform="translate(15.892187 248.791905)rotate(-90)scale(0.1 -0.1)">
      <use xlink:href="#DejaVuSans-66"/>
      <use xlink:href="#DejaVuSans-72" x="35.205078"/>
      <use xlink:href="#DejaVuSans-61" x="76.318359"/>
      <use xlink:href="#DejaVuSans-63" x="137.597656"/>
      <use xlink:href="#DejaVuSans-74" x="192.578125"/>
      <use xlink:href="#DejaVuSans-69" x="231.787109"/>
      <use xlink:href="#DejaVuSans-6f" x="259.570312"/>
      <use xlink:href="#DejaVuSans-6e" x="320.751953"/>
     </g>
    </g>
   </g>
   <g id="line2d_50">
    <path d="M 73.832727 234.544415 
L 77.079273 211.752982 
L 80.325818 211.691615 
L 83.572364 208.922409 
L 86.818909 209.709005 
L 90.065455 208.794886 
L 93.312 208.730483 
L 96.558545 209.759716 
L 99.805091 209.947162 
L 103.051636 210.215173 
L 106.298182 210.200284 
L 109.544727 210.399766 
L 112.791273 209.907175 
L 116.037818 210.246404 
L 119.284364 211.189011 
L 122.530909 210.486268 
L 125.777455 211.526225 
L 129.024 211.604022 
L 132.270545 211.647927 
L 135.517091 211.691832 
L 138.763636 211.704662 
L 142.010182 211.737535 
L 145.256727 211.762708 
L 148.503273 211.78459 
L 151.749818 211.800098 
L 154.996364 211.809231 
L 158.242909 211.813072 
L 161.489455 211.819316 
L 164.736 211.822874 
L 167.982545 211.823746 
L 171.229091 211.821842 
L 174.475636 211.958727 
L 177.722182 212.132222 
L 180.968727 212.360832 
L 184.215273 212.641944 
L 187.461818 212.920251 
L 190.708364 213.162732 
L 193.954909 213.403071 
L 197.201455 213.570255 
L 200.448 213.68724 
L 203.694545 213.766841 
L 206.941091 213.816154 
L 210.187636 213.848612 
L 213.434182 213.867961 
L 216.680727 213.879925 
L 219.927273 213.887729 
L 223.173818 213.89223 
L 226.420364 213.895016 
L 229.666909 213.896675 
L 232.913455 213.89771 
L 236.16 213.898376 
L 239.406545 213.898582 
L 242.653091 213.898747 
L 245.899636 213.898913 
L 249.146182 213.898995 
L 252.392727 213.899022 
L 255.639273 213.899049 
L 258.885818 213.899047 
L 262.132364 213.899039 
L 265.378909 213.899025 
L 268.625455 213.899446 
L 271.872 215.150822 
L 275.118545 216.927406 
L 278.365091 219.235799 
L 281.611636 221.933115 
L 284.858182 224.73148 
L 288.104727 227.067934 
L 291.351273 229.500679 
L 294.597818 231.562649 
L 297.844364 232.273796 
L 301.090909 233.063181 
L 304.337455 233.58839 
L 307.584 233.927807 
L 310.830545 234.147412 
L 314.077091 234.290628 
L 317.323636 234.38272 
L 320.570182 234.441806 
L 323.816727 234.481866 
L 327.063273 234.508999 
L 330.309818 234.527049 
L 333.556364 234.539619 
L 336.802909 234.548388 
L 340.049455 234.554584 
L 343.296 234.559687 
L 346.542545 234.563128 
L 349.789091 234.565991 
L 353.035636 234.568045 
L 356.282182 234.569766 
L 359.528727 234.571062 
L 362.775273 234.572127 
L 366.021818 234.572898 
L 369.268364 234.573563 
L 372.514909 234.574168 
L 375.761455 234.574581 
L 379.008 234.574933 
L 382.254545 234.57525 
L 385.501091 234.575481 
L 388.747636 234.575681 
L 391.994182 234.575865 
L 395.240727 234.57602 
L 398.487273 234.576158 
" clip-path="url(#pad4afa5b27)" style="fill: none; stroke: #1f77b4; stroke-width: 1.5; stroke-linecap: square"/>
   </g>
   <g id="line2d_51">
    <path d="M 73.832727 250.440828 
L 77.079273 227.446738 
L 80.325818 227.187373 
L 83.572364 227.083089 
L 86.818909 227.019866 
L 90.065455 226.97322 
L 93.312 226.933686 
L 96.558545 226.898279 
L 99.805091 226.865303 
L 103.051636 226.833944 
L 106.298182 226.803477 
L 109.544727 226.773738 
L 112.791273 226.744519 
L 116.037818 226.715719 
L 119.284364 226.687296 
L 122.530909 226.659648 
L 125.777455 221.109192 
L 129.024 219.73105 
L 132.270545 218.676772 
L 135.517091 217.622493 
L 138.763636 217.01747 
L 142.010182 216.122699 
L 145.256727 215.345858 
L 148.503273 214.651125 
L 151.749818 214.063554 
L 154.996364 213.583147 
L 158.242909 213.198978 
L 161.489455 212.833308 
L 164.736 212.537547 
L 167.982545 212.311693 
L 171.229091 212.156154 
L 174.475636 212.399638 
L 177.722182 212.557824 
L 180.968727 212.781716 
L 184.215273 213.058025 
L 187.461818 213.335569 
L 190.708364 213.582426 
L 193.954909 213.817617 
L 197.201455 213.982772 
L 200.448 214.098908 
L 203.694545 214.177939 
L 206.941091 214.225617 
L 210.187636 214.258293 
L 213.434182 214.277732 
L 216.680727 214.28836 
L 219.927273 214.296847 
L 223.173818 214.300883 
L 226.420364 214.303403 
L 229.666909 214.304864 
L 232.913455 214.305688 
L 236.16 214.306155 
L 239.406545 214.306174 
L 242.653091 214.306153 
L 245.899636 214.306133 
L 249.146182 214.306031 
L 252.392727 214.305874 
L 255.639273 214.305716 
L 258.885818 214.305532 
L 262.132364 214.305341 
L 265.378909 214.305145 
L 268.625455 214.305106 
L 271.872 215.510437 
L 275.118545 217.209277 
L 278.365091 219.308845 
L 281.611636 221.561926 
L 284.858182 223.64538 
L 288.104727 224.924498 
L 291.351273 227.168435 
L 294.597818 229.248872 
L 297.844364 229.576745 
L 301.090909 230.505693 
L 304.337455 231.285587 
L 307.584 231.936044 
L 310.830545 232.479047 
L 314.077091 232.930908 
L 317.323636 233.305282 
L 320.570182 233.614236 
L 323.816727 233.86864 
L 327.063273 234.079517 
L 330.309818 234.252247 
L 333.556364 234.394358 
L 336.802909 234.511058 
L 340.049455 234.605715 
L 343.296 234.683429 
L 346.542545 234.747008 
L 349.789091 234.799921 
L 353.035636 234.84275 
L 356.282182 234.87831 
L 359.528727 234.90734 
L 362.775273 234.93139 
L 366.021818 234.950242 
L 369.268364 234.965876 
L 372.514909 234.979097 
L 375.761455 234.989331 
L 379.008 234.998029 
L 382.254545 235.005693 
L 385.501091 235.011537 
L 388.747636 235.01654 
L 391.994182 235.021028 
L 395.240727 235.024764 
L 398.487273 235.028049 
" clip-path="url(#pad4afa5b27)" style="fill: none; stroke: #ff7f0e; stroke-width: 1.5; stroke-linecap: square"/>
   </g>
   <g id="patch_21">
    <path d="M 57.6 252.526345 
L 57.6 206.644966 
" style="fill: none; stroke: #000000; stroke-width: 0.8; stroke-linejoin: miter; stroke-linecap: square"/>
   </g>
   <g id="patch_22">
    <path d="M 414.72 252.526345 
L 414.72 206.644966 
" style="fill: none; stroke: #000000; stroke-width: 0.8; stroke-linejoin: miter; stroke-linecap: square"/>
   </g>
   <g id="patch_23">
    <path d="M 57.6 252.526345 
L 414.72 252.526345 
" style="fill: none; stroke: #000000; stroke-width: 0.8; stroke-linejoin: miter; stroke-linecap: square"/>
   </g>
   <g id="patch_24">
    <path d="M 57.6 206.644966 
L 414.72 206.644966 
" style="fill: none; stroke: #000000; stroke-width: 0.8; stroke-linejoin: miter; stroke-linecap: square"/>
   </g>
   <g id="text_24">
    <!-- yB -->
    <g transform="translate(228.492188 200.644966)scale(0.12 -0.12)">
     <defs>
      <path id="DejaVuSans-42" d="M 1259 2228 
L 1259 519 
L 2272 519 
Q 2781 519 3026 730 
Q 3272 941 3272 1375 
Q 3272 1813 3026 2020 
Q 2781 2228 2272 2228 
L 1259 2228 
z
M 1259 4147 
L 1259 2741 
L 2194 2741 
Q 2656 2741 2882 2914 
Q 3109 3088 3109 3444 
Q 3109 3797 2882 3972 
Q 2656 4147 2194 4147 
L 1259 4147 
z
M 628 4666 
L 2241 4666 
Q 2963 4666 3353 4366 
Q 3744 4066 3744 3513 
Q 3744 3084 3544 2831 
Q 3344 2578 2956 2516 
Q 3422 2416 3680 2098 
Q 3938 1781 3938 1306 
Q 3938 681 3513 340 
Q 3088 0 2303 0 
L 628 0 
L 628 4666 
z
" transform="scale(0.015625)"/>
     </defs>
     <use xlink:href="#DejaVuSans-79"/>
     <use xlink:href="#DejaVuSans-42" x="59.179688"/>
    </g>
   </g>
   <g id="legend_4">
    <g id="patch_25">
     <path d="M 197.305312 247.526345 
L 275.014687 247.526345 
Q 277.014687 247.526345 277.014687 245.526345 
L 277.014687 217.170095 
Q 277.014687 215.170095 275.014687 215.170095 
L 197.305312 215.170095 
Q 195.305312 215.170095 195.305312 217.170095 
L 195.305312 245.526345 
Q 195.305312 247.526345 197.305312 247.526345 
z
" style="fill: #ffffff; opacity: 0.8; stroke: #cccccc; stroke-linejoin: miter"/>
    </g>
    <g id="line2d_52">
     <path d="M 199.305312 223.268532 
L 209.305312 223.268532 
L 219.305312 223.268532 
" style="fill: none; stroke: #1f77b4; stroke-width: 1.5; stroke-linecap: square"/>
    </g>
    <g id="text_25">
     <!-- yB0 (in) -->
     <g transform="translate(227.305312 226.768532)scale(0.1 -0.1)">
      <use xlink:href="#DejaVuSans-79"/>
      <use xlink:href="#DejaVuSans-42" x="59.179688"/>
      <use xlink:href="#DejaVuSans-30" x="127.783203"/>
      <use xlink:href="#DejaVuSans-20" x="191.40625"/>
      <use xlink:href="#DejaVuSans-28" x="223.193359"/>
      <use xlink:href="#DejaVuSans-69" x="262.207031"/>
      <use xlink:href="#DejaVuSans-6e" x="289.990234"/>
      <use xlink:href="#DejaVuSans-29" x="353.369141"/>
     </g>
    </g>
    <g id="line2d_53">
     <path d="M 199.305312 237.946657 
L 209.305312 237.946657 
L 219.305312 237.946657 
" style="fill: none; stroke: #ff7f0e; stroke-width: 1.5; stroke-linecap: square"/>
    </g>
    <g id="text_26">
     <!-- yBL (out) -->
     <g transform="translate(227.305312 241.446657)scale(0.1 -0.1)">
      <use xlink:href="#DejaVuSans-79"/>
      <use xlink:href="#DejaVuSans-42" x="59.179688"/>
      <use xlink:href="#DejaVuSans-4c" x="127.783203"/>
      <use xlink:href="#DejaVuSans-20" x="183.496094"/>
      <use xlink:href="#DejaVuSans-28" x="215.283203"/>
      <use xlink:href="#DejaVuSans-6f" x="254.296875"/>
      <use xlink:href="#DejaVuSans-75" x="315.478516"/>
      <use xlink:href="#DejaVuSans-74" x="378.857422"/>
      <use xlink:href="#DejaVuSans-29" x="418.066406"/>
     </g>
    </g>
   </g>
  </g>
  <g id="axes_5">
   <g id="patch_26">
    <path d="M 57.6 307.584 
L 414.72 307.584 
L 414.72 261.702621 
L 57.6 261.702621 
z
" style="fill: #ffffff"/>
   </g>
   <g id="matplotlib.axis_9">
    <g id="xtick_25">
     <g id="line2d_54">
      <g>
       <use xlink:href="#m9f64107b0a" x="73.832727" y="307.584" style="stroke: #000000; stroke-width: 0.8"/>
      </g>
     </g>
     <g id="text_27">
      <!-- 0 -->
      <g transform="translate(70.651477 322.182437)scale(0.1 -0.1)">
       <use xlink:href="#DejaVuSans-30"/>
      </g>
     </g>
    </g>
    <g id="xtick_26">
     <g id="line2d_55">
      <g>
       <use xlink:href="#m9f64107b0a" x="138.763636" y="307.584" style="stroke: #000000; stroke-width: 0.8"/>
      </g>
     </g>
     <g id="text_28">
      <!-- 20 -->
      <g transform="translate(132.401136 322.182437)scale(0.1 -0.1)">
       <defs>
        <path id="DejaVuSans-32" d="M 1228 531 
L 3431 531 
L 3431 0 
L 469 0 
L 469 531 
Q 828 903 1448 1529 
Q 2069 2156 2228 2338 
Q 2531 2678 2651 2914 
Q 2772 3150 2772 3378 
Q 2772 3750 2511 3984 
Q 2250 4219 1831 4219 
Q 1534 4219 1204 4116 
Q 875 4013 500 3803 
L 500 4441 
Q 881 4594 1212 4672 
Q 1544 4750 1819 4750 
Q 2544 4750 2975 4387 
Q 3406 4025 3406 3419 
Q 3406 3131 3298 2873 
Q 3191 2616 2906 2266 
Q 2828 2175 2409 1742 
Q 1991 1309 1228 531 
z
" transform="scale(0.015625)"/>
       </defs>
       <use xlink:href="#DejaVuSans-32"/>
       <use xlink:href="#DejaVuSans-30" x="63.623047"/>
      </g>
     </g>
    </g>
    <g id="xtick_27">
     <g id="line2d_56">
      <g>
       <use xlink:href="#m9f64107b0a" x="203.694545" y="307.584" style="stroke: #000000; stroke-width: 0.8"/>
      </g>
     </g>
     <g id="text_29">
      <!-- 40 -->
      <g transform="translate(197.332045 322.182437)scale(0.1 -0.1)">
       <defs>
        <path id="DejaVuSans-34" d="M 2419 4116 
L 825 1625 
L 2419 1625 
L 2419 4116 
z
M 2253 4666 
L 3047 4666 
L 3047 1625 
L 3713 1625 
L 3713 1100 
L 3047 1100 
L 3047 0 
L 2419 0 
L 2419 1100 
L 313 1100 
L 313 1709 
L 2253 4666 
z
" transform="scale(0.015625)"/>
       </defs>
       <use xlink:href="#DejaVuSans-34"/>
       <use xlink:href="#DejaVuSans-30" x="63.623047"/>
      </g>
     </g>
    </g>
    <g id="xtick_28">
     <g id="line2d_57">
      <g>
       <use xlink:href="#m9f64107b0a" x="268.625455" y="307.584" style="stroke: #000000; stroke-width: 0.8"/>
      </g>
     </g>
     <g id="text_30">
      <!-- 60 -->
      <g transform="translate(262.262955 322.182437)scale(0.1 -0.1)">
       <defs>
        <path id="DejaVuSans-36" d="M 2113 2584 
Q 1688 2584 1439 2293 
Q 1191 2003 1191 1497 
Q 1191 994 1439 701 
Q 1688 409 2113 409 
Q 2538 409 2786 701 
Q 3034 994 3034 1497 
Q 3034 2003 2786 2293 
Q 2538 2584 2113 2584 
z
M 3366 4563 
L 3366 3988 
Q 3128 4100 2886 4159 
Q 2644 4219 2406 4219 
Q 1781 4219 1451 3797 
Q 1122 3375 1075 2522 
Q 1259 2794 1537 2939 
Q 1816 3084 2150 3084 
Q 2853 3084 3261 2657 
Q 3669 2231 3669 1497 
Q 3669 778 3244 343 
Q 2819 -91 2113 -91 
Q 1303 -91 875 529 
Q 447 1150 447 2328 
Q 447 3434 972 4092 
Q 1497 4750 2381 4750 
Q 2619 4750 2861 4703 
Q 3103 4656 3366 4563 
z
" transform="scale(0.015625)"/>
       </defs>
       <use xlink:href="#DejaVuSans-36"/>
       <use xlink:href="#DejaVuSans-30" x="63.623047"/>
      </g>
     </g>
    </g>
    <g id="xtick_29">
     <g id="line2d_58">
      <g>
       <use xlink:href="#m9f64107b0a" x="333.556364" y="307.584" style="stroke: #000000; stroke-width: 0.8"/>
      </g>
     </g>
     <g id="text_31">
      <!-- 80 -->
      <g transform="translate(327.193864 322.182437)scale(0.1 -0.1)">
       <use xlink:href="#DejaVuSans-38"/>
       <use xlink:href="#DejaVuSans-30" x="63.623047"/>
      </g>
     </g>
    </g>
    <g id="xtick_30">
     <g id="line2d_59">
      <g>
       <use xlink:href="#m9f64107b0a" x="398.487273" y="307.584" style="stroke: #000000; stroke-width: 0.8"/>
      </g>
     </g>
     <g id="text_32">
      <!-- 100 -->
      <g transform="translate(388.943523 322.182437)scale(0.1 -0.1)">
       <use xlink:href="#DejaVuSans-31"/>
       <use xlink:href="#DejaVuSans-30" x="63.623047"/>
       <use xlink:href="#DejaVuSans-30" x="127.246094"/>
      </g>
     </g>
    </g>
    <g id="text_33">
     <!-- time (normalized) -->
     <g transform="translate(191.589687 335.860562)scale(0.1 -0.1)">
      <use xlink:href="#DejaVuSans-74"/>
      <use xlink:href="#DejaVuSans-69" x="39.208984"/>
      <use xlink:href="#DejaVuSans-6d" x="66.992188"/>
      <use xlink:href="#DejaVuSans-65" x="164.404297"/>
      <use xlink:href="#DejaVuSans-20" x="225.927734"/>
      <use xlink:href="#DejaVuSans-28" x="257.714844"/>
      <use xlink:href="#DejaVuSans-6e" x="296.728516"/>
      <use xlink:href="#DejaVuSans-6f" x="360.107422"/>
      <use xlink:href="#DejaVuSans-72" x="421.289062"/>
      <use xlink:href="#DejaVuSans-6d" x="460.652344"/>
      <use xlink:href="#DejaVuSans-61" x="558.064453"/>
      <use xlink:href="#DejaVuSans-6c" x="619.34375"/>
      <use xlink:href="#DejaVuSans-69" x="647.126953"/>
      <use xlink:href="#DejaVuSans-7a" x="674.910156"/>
      <use xlink:href="#DejaVuSans-65" x="727.400391"/>
      <use xlink:href="#DejaVuSans-64" x="788.923828"/>
      <use xlink:href="#DejaVuSans-29" x="852.400391"/>
     </g>
    </g>
   </g>
   <g id="matplotlib.axis_10">
    <g id="ytick_10">
     <g id="line2d_60">
      <g>
       <use xlink:href="#m5405d910f2" x="57.6" y="292.46503" style="stroke: #000000; stroke-width: 0.8"/>
      </g>
     </g>
     <g id="text_34">
      <!-- 0.05000 -->
      <g transform="translate(9.246875 296.264249)scale(0.1 -0.1)">
       <use xlink:href="#DejaVuSans-30"/>
       <use xlink:href="#DejaVuSans-2e" x="63.623047"/>
       <use xlink:href="#DejaVuSans-30" x="95.410156"/>
       <use xlink:href="#DejaVuSans-35" x="159.033203"/>
       <use xlink:href="#DejaVuSans-30" x="222.65625"/>
       <use xlink:href="#DejaVuSans-30" x="286.279297"/>
       <use xlink:href="#DejaVuSans-30" x="349.902344"/>
      </g>
     </g>
    </g>
    <g id="ytick_11">
     <g id="line2d_61">
      <g>
       <use xlink:href="#m5405d910f2" x="57.6" y="276.136816" style="stroke: #000000; stroke-width: 0.8"/>
      </g>
     </g>
     <g id="text_35">
      <!-- 0.05005 -->
      <g transform="translate(9.246875 279.936034)scale(0.1 -0.1)">
       <use xlink:href="#DejaVuSans-30"/>
       <use xlink:href="#DejaVuSans-2e" x="63.623047"/>
       <use xlink:href="#DejaVuSans-30" x="95.410156"/>
       <use xlink:href="#DejaVuSans-35" x="159.033203"/>
       <use xlink:href="#DejaVuSans-30" x="222.65625"/>
       <use xlink:href="#DejaVuSans-30" x="286.279297"/>
       <use xlink:href="#DejaVuSans-35" x="349.902344"/>
      </g>
     </g>
    </g>
    <g id="text_36">
     <!-- fraction -->
     <g transform="translate(3.167187 303.84956)rotate(-90)scale(0.1 -0.1)">
      <use xlink:href="#DejaVuSans-66"/>
      <use xlink:href="#DejaVuSans-72" x="35.205078"/>
      <use xlink:href="#DejaVuSans-61" x="76.318359"/>
      <use xlink:href="#DejaVuSans-63" x="137.597656"/>
      <use xlink:href="#DejaVuSans-74" x="192.578125"/>
      <use xlink:href="#DejaVuSans-69" x="231.787109"/>
      <use xlink:href="#DejaVuSans-6f" x="259.570312"/>
      <use xlink:href="#DejaVuSans-6e" x="320.751953"/>
     </g>
    </g>
   </g>
   <g id="line2d_62">
    <path d="M 73.832727 264.254446 
L 77.079273 292.849653 
L 80.325818 293.015744 
L 83.572364 292.818649 
L 86.818909 293.171457 
L 90.065455 296.950295 
L 93.312 296.871974 
L 96.558545 298.299194 
L 99.805091 298.72629 
L 103.051636 299.470514 
L 106.298182 299.445953 
L 109.544727 300.083726 
L 112.791273 298.224271 
L 116.037818 299.445893 
L 119.284364 303.149563 
L 122.530909 300.413471 
L 125.777455 293.649029 
L 129.024 293.280221 
L 132.270545 293.089154 
L 135.517091 292.898086 
L 138.763636 292.854853 
L 142.010182 292.716274 
L 145.256727 292.613885 
L 148.503273 292.524914 
L 151.749818 292.465288 
L 154.996364 292.435009 
L 158.242909 292.42871 
L 161.489455 292.408215 
L 164.736 292.398769 
L 167.982545 292.400374 
L 171.229091 292.413557 
L 174.475636 292.127774 
L 177.722182 291.915697 
L 180.968727 291.631024 
L 184.215273 291.288136 
L 187.461818 290.931261 
L 190.708364 290.581894 
L 193.954909 290.306296 
L 197.201455 290.094559 
L 200.448 289.945148 
L 203.694545 289.844069 
L 206.941091 289.781341 
L 210.187636 289.740111 
L 213.434182 289.715219 
L 216.680727 289.700598 
L 219.927273 289.690708 
L 223.173818 289.685194 
L 226.420364 289.681852 
L 229.666909 289.679914 
L 232.913455 289.678786 
L 236.16 289.678126 
L 239.406545 289.678051 
L 242.653091 289.678027 
L 245.899636 289.678003 
L 249.146182 289.678082 
L 252.392727 289.678232 
L 255.639273 289.678381 
L 258.885818 289.678566 
L 262.132364 289.678758 
L 265.378909 289.678958 
L 268.625455 289.679059 
L 271.872 288.125371 
L 275.118545 285.879828 
L 278.365091 282.966323 
L 281.611636 279.568049 
L 284.858182 276.031204 
L 288.104727 272.825459 
L 291.351273 270.118445 
L 294.597818 268.027383 
L 297.844364 266.656976 
L 301.090909 265.673359 
L 304.337455 265.018785 
L 307.584 264.595668 
L 310.830545 264.321993 
L 314.077091 264.143462 
L 317.323636 264.028701 
L 320.570182 263.955102 
L 323.816727 263.905218 
L 327.063273 263.871425 
L 330.309818 263.848974 
L 333.556364 263.833358 
L 336.802909 263.822469 
L 340.049455 263.814774 
L 343.296 263.80843 
L 346.542545 263.804159 
L 349.789091 263.80061 
L 353.035636 263.798067 
L 356.282182 263.795942 
L 359.528727 263.794346 
L 362.775273 263.793036 
L 366.021818 263.792091 
L 369.268364 263.791276 
L 372.514909 263.790532 
L 375.761455 263.79003 
L 379.008 263.789602 
L 382.254545 263.789219 
L 385.501091 263.788942 
L 388.747636 263.788703 
L 391.994182 263.788483 
L 395.240727 263.788301 
L 398.487273 263.788138 
" clip-path="url(#p84bbb5c976)" style="fill: none; stroke: #1f77b4; stroke-width: 1.5; stroke-linecap: square"/>
   </g>
   <g id="line2d_63">
    <path d="M 73.832727 276.841666 
L 77.079273 305.16035 
L 80.325818 305.424181 
L 83.572364 305.484262 
L 86.818909 305.498483 
L 90.065455 305.495151 
L 93.312 305.482773 
L 96.558545 305.466164 
L 99.805091 305.447327 
L 103.051636 305.427351 
L 106.298182 305.406649 
L 109.544727 305.385652 
L 112.791273 305.36455 
L 116.037818 305.343466 
L 119.284364 305.32245 
L 122.530909 305.301909 
L 125.777455 300.979944 
L 129.024 299.903662 
L 132.270545 299.063268 
L 135.517091 298.222873 
L 138.763636 297.697795 
L 142.010182 296.969352 
L 145.256727 296.323735 
L 148.503273 295.736022 
L 151.749818 295.223645 
L 154.996364 294.786602 
L 158.242909 294.417731 
L 161.489455 294.066066 
L 164.736 293.76531 
L 167.982545 293.515463 
L 171.229091 293.316928 
L 174.475636 293.352407 
L 177.722182 293.122359 
L 180.968727 292.830375 
L 184.215273 292.480689 
L 187.461818 292.119974 
L 190.708364 291.774056 
L 193.954909 291.49166 
L 197.201455 291.281437 
L 200.448 291.130947 
L 203.694545 291.028896 
L 206.941091 290.968062 
L 210.187636 290.92521 
L 213.434182 290.89761 
L 216.680727 290.886727 
L 219.927273 290.87362 
L 223.173818 290.868321 
L 226.420364 290.864681 
L 229.666909 290.862215 
L 232.913455 290.860661 
L 236.16 290.859567 
L 239.406545 290.859052 
L 242.653091 290.858586 
L 245.899636 290.858121 
L 249.146182 290.857761 
L 252.392727 290.857474 
L 255.639273 290.857187 
L 258.885818 290.856936 
L 262.132364 290.856692 
L 265.378909 290.856456 
L 268.625455 290.85612 
L 271.872 289.346451 
L 275.118545 287.196891 
L 278.365091 284.545589 
L 281.611636 281.696608 
L 284.858182 279.013049 
L 288.104727 276.931835 
L 291.351273 274.65109 
L 294.597818 272.719528 
L 297.844364 271.611026 
L 301.090909 270.443945 
L 304.337455 269.464529 
L 307.584 268.647893 
L 310.830545 267.966474 
L 314.077091 267.399503 
L 317.323636 266.929844 
L 320.570182 266.542303 
L 323.816727 266.22322 
L 327.063273 265.95876 
L 330.309818 265.742134 
L 333.556364 265.563913 
L 336.802909 265.417569 
L 340.049455 265.298858 
L 343.296 265.20139 
L 346.542545 265.121648 
L 349.789091 265.055276 
L 353.035636 265.001543 
L 356.282182 264.956917 
L 359.528727 264.920482 
L 362.775273 264.890287 
L 366.021818 264.86661 
L 369.268364 264.846965 
L 372.514909 264.830345 
L 375.761455 264.817469 
L 379.008 264.806518 
L 382.254545 264.796863 
L 385.501091 264.789489 
L 388.747636 264.78317 
L 391.994182 264.777495 
L 395.240727 264.772763 
L 398.487273 264.768596 
" clip-path="url(#p84bbb5c976)" style="fill: none; stroke: #ff7f0e; stroke-width: 1.5; stroke-linecap: square"/>
   </g>
   <g id="patch_27">
    <path d="M 57.6 307.584 
L 57.6 261.702621 
" style="fill: none; stroke: #000000; stroke-width: 0.8; stroke-linejoin: miter; stroke-linecap: square"/>
   </g>
   <g id="patch_28">
    <path d="M 414.72 307.584 
L 414.72 261.702621 
" style="fill: none; stroke: #000000; stroke-width: 0.8; stroke-linejoin: miter; stroke-linecap: square"/>
   </g>
   <g id="patch_29">
    <path d="M 57.6 307.584 
L 414.72 307.584 
" style="fill: none; stroke: #000000; stroke-width: 0.8; stroke-linejoin: miter; stroke-linecap: square"/>
   </g>
   <g id="patch_30">
    <path d="M 57.6 261.702621 
L 414.72 261.702621 
" style="fill: none; stroke: #000000; stroke-width: 0.8; stroke-linejoin: miter; stroke-linecap: square"/>
   </g>
   <g id="text_37">
    <!-- yC -->
    <g transform="translate(228.419062 255.702621)scale(0.12 -0.12)">
     <defs>
      <path id="DejaVuSans-43" d="M 4122 4306 
L 4122 3641 
Q 3803 3938 3442 4084 
Q 3081 4231 2675 4231 
Q 1875 4231 1450 3742 
Q 1025 3253 1025 2328 
Q 1025 1406 1450 917 
Q 1875 428 2675 428 
Q 3081 428 3442 575 
Q 3803 722 4122 1019 
L 4122 359 
Q 3791 134 3420 21 
Q 3050 -91 2638 -91 
Q 1578 -91 968 557 
Q 359 1206 359 2328 
Q 359 3453 968 4101 
Q 1578 4750 2638 4750 
Q 3056 4750 3426 4639 
Q 3797 4528 4122 4306 
z
" transform="scale(0.015625)"/>
     </defs>
     <use xlink:href="#DejaVuSans-79"/>
     <use xlink:href="#DejaVuSans-43" x="59.179688"/>
    </g>
   </g>
   <g id="legend_5">
    <g id="patch_31">
     <path d="M 329.88875 299.058871 
L 407.72 299.058871 
Q 409.72 299.058871 409.72 297.058871 
L 409.72 268.702621 
Q 409.72 266.702621 407.72 266.702621 
L 329.88875 266.702621 
Q 327.88875 266.702621 327.88875 268.702621 
L 327.88875 297.058871 
Q 327.88875 299.058871 329.88875 299.058871 
z
" style="fill: #ffffff; opacity: 0.8; stroke: #cccccc; stroke-linejoin: miter"/>
    </g>
    <g id="line2d_64">
     <path d="M 331.88875 274.801058 
L 341.88875 274.801058 
L 351.88875 274.801058 
" style="fill: none; stroke: #1f77b4; stroke-width: 1.5; stroke-linecap: square"/>
    </g>
    <g id="text_38">
     <!-- yC0 (in) -->
     <g transform="translate(359.88875 278.301058)scale(0.1 -0.1)">
      <use xlink:href="#DejaVuSans-79"/>
      <use xlink:href="#DejaVuSans-43" x="59.179688"/>
      <use xlink:href="#DejaVuSans-30" x="129.003906"/>
      <use xlink:href="#DejaVuSans-20" x="192.626953"/>
      <use xlink:href="#DejaVuSans-28" x="224.414062"/>
      <use xlink:href="#DejaVuSans-69" x="263.427734"/>
      <use xlink:href="#DejaVuSans-6e" x="291.210938"/>
      <use xlink:href="#DejaVuSans-29" x="354.589844"/>
     </g>
    </g>
    <g id="line2d_65">
     <path d="M 331.88875 289.479183 
L 341.88875 289.479183 
L 351.88875 289.479183 
" style="fill: none; stroke: #ff7f0e; stroke-width: 1.5; stroke-linecap: square"/>
    </g>
    <g id="text_39">
     <!-- yCL (out) -->
     <g transform="translate(359.88875 292.979183)scale(0.1 -0.1)">
      <use xlink:href="#DejaVuSans-79"/>
      <use xlink:href="#DejaVuSans-43" x="59.179688"/>
      <use xlink:href="#DejaVuSans-4c" x="129.003906"/>
      <use xlink:href="#DejaVuSans-20" x="184.716797"/>
      <use xlink:href="#DejaVuSans-28" x="216.503906"/>
      <use xlink:href="#DejaVuSans-6f" x="255.517578"/>
      <use xlink:href="#DejaVuSans-75" x="316.699219"/>
      <use xlink:href="#DejaVuSans-74" x="380.078125"/>
      <use xlink:href="#DejaVuSans-29" x="419.287109"/>
     </g>
    </g>
   </g>
  </g>
 </g>
 <defs>
  <clipPath id="pc7201d7bbd">
   <rect x="57.6" y="41.472" width="357.12" height="45.881379"/>
  </clipPath>
  <clipPath id="p899c3cdb91">
   <rect x="57.6" y="96.529655" width="357.12" height="45.881379"/>
  </clipPath>
  <clipPath id="p67b8a2ae60">
   <rect x="57.6" y="151.58731" width="357.12" height="45.881379"/>
  </clipPath>
  <clipPath id="pad4afa5b27">
   <rect x="57.6" y="206.644966" width="357.12" height="45.881379"/>
  </clipPath>
  <clipPath id="p84bbb5c976">
   <rect x="57.6" y="261.702621" width="357.12" height="45.881379"/>
  </clipPath>
 </defs>
</svg>
