<?xml version="1.0" encoding="utf-8" standalone="no"?>
<!DOCTYPE svg PUBLIC "-//W3C//DTD SVG 1.1//EN"
  "http://www.w3.org/Graphics/SVG/1.1/DTD/svg11.dtd">
<svg xmlns:xlink="http://www.w3.org/1999/xlink" width="460.8pt" height="345.6pt" viewBox="0 0 460.8 345.6" xmlns="http://www.w3.org/2000/svg" version="1.1">
 <metadata>
  <rdf:RDF xmlns:dc="http://purl.org/dc/elements/1.1/" xmlns:cc="http://creativecommons.org/ns#" xmlns:rdf="http://www.w3.org/1999/02/22-rdf-syntax-ns#">
   <cc:Work>
    <dc:type rdf:resource="http://purl.org/dc/dcmitype/StillImage"/>
    <dc:date>2022-07-10T00:04:40.557707</dc:date>
    <dc:format>image/svg+xml</dc:format>
    <dc:creator>
     <cc:Agent>
      <dc:title>Matplotlib v3.5.2, https://matplotlib.org/</dc:title>
     </cc:Agent>
    </dc:creator>
   </cc:Work>
  </rdf:RDF>
 </metadata>
 <defs>
  <style type="text/css">*{stroke-linejoin: round; stroke-linecap: butt}</style>
 </defs>
 <g id="figure_1">
  <g id="patch_1">
   <path d="M 0 345.6 
L 460.8 345.6 
L 460.8 0 
L 0 0 
z
" style="fill: #ffffff"/>
  </g>
  <g id="axes_1">
   <g id="patch_2">
    <path d="M 57.6 87.353379 
L 414.72 87.353379 
L 414.72 41.472 
L 57.6 41.472 
z
" style="fill: #ffffff"/>
   </g>
   <g id="matplotlib.axis_1">
    <g id="xtick_1">
     <g id="line2d_1">
      <defs>
       <path id="m09316b1810" d="M 0 0 
L 0 3.5 
" style="stroke: #000000; stroke-width: 0.8"/>
      </defs>
      <g>
       <use xlink:href="#m09316b1810" x="73.832727" y="87.353379" style="stroke: #000000; stroke-width: 0.8"/>
      </g>
     </g>
    </g>
    <g id="xtick_2">
     <g id="line2d_2">
      <g>
       <use xlink:href="#m09316b1810" x="138.763636" y="87.353379" style="stroke: #000000; stroke-width: 0.8"/>
      </g>
     </g>
    </g>
    <g id="xtick_3">
     <g id="line2d_3">
      <g>
       <use xlink:href="#m09316b1810" x="203.694545" y="87.353379" style="stroke: #000000; stroke-width: 0.8"/>
      </g>
     </g>
    </g>
    <g id="xtick_4">
     <g id="line2d_4">
      <g>
       <use xlink:href="#m09316b1810" x="268.625455" y="87.353379" style="stroke: #000000; stroke-width: 0.8"/>
      </g>
     </g>
    </g>
    <g id="xtick_5">
     <g id="line2d_5">
      <g>
       <use xlink:href="#m09316b1810" x="333.556364" y="87.353379" style="stroke: #000000; stroke-width: 0.8"/>
      </g>
     </g>
    </g>
    <g id="xtick_6">
     <g id="line2d_6">
      <g>
       <use xlink:href="#m09316b1810" x="398.487273" y="87.353379" style="stroke: #000000; stroke-width: 0.8"/>
      </g>
     </g>
    </g>
   </g>
   <g id="matplotlib.axis_2">
    <g id="ytick_1">
     <g id="line2d_7">
      <defs>
       <path id="m4c01103a5a" d="M 0 0 
L -3.5 0 
" style="stroke: #000000; stroke-width: 0.8"/>
      </defs>
      <g>
       <use xlink:href="#m4c01103a5a" x="57.6" y="73.924393" style="stroke: #000000; stroke-width: 0.8"/>
      </g>
     </g>
     <g id="text_1">
      <!-- −2.5 -->
      <g transform="translate(26.317187 77.723611)scale(0.1 -0.1)">
       <defs>
        <path id="DejaVuSans-2212" d="M 678 2272 
L 4684 2272 
L 4684 1741 
L 678 1741 
L 678 2272 
z
" transform="scale(0.015625)"/>
        <path id="DejaVuSans-32" d="M 1228 531 
L 3431 531 
L 3431 0 
L 469 0 
L 469 531 
Q 828 903 1448 1529 
Q 2069 2156 2228 2338 
Q 2531 2678 2651 2914 
Q 2772 3150 2772 3378 
Q 2772 3750 2511 3984 
Q 2250 4219 1831 4219 
Q 1534 4219 1204 4116 
Q 875 4013 500 3803 
L 500 4441 
Q 881 4594 1212 4672 
Q 1544 4750 1819 4750 
Q 2544 4750 2975 4387 
Q 3406 4025 3406 3419 
Q 3406 3131 3298 2873 
Q 3191 2616 2906 2266 
Q 2828 2175 2409 1742 
Q 1991 1309 1228 531 
z
" transform="scale(0.015625)"/>
        <path id="DejaVuSans-2e" d="M 684 794 
L 1344 794 
L 1344 0 
L 684 0 
L 684 794 
z
" transform="scale(0.015625)"/>
        <path id="DejaVuSans-35" d="M 691 4666 
L 3169 4666 
L 3169 4134 
L 1269 4134 
L 1269 2991 
Q 1406 3038 1543 3061 
Q 1681 3084 1819 3084 
Q 2600 3084 3056 2656 
Q 3513 2228 3513 1497 
Q 3513 744 3044 326 
Q 2575 -91 1722 -91 
Q 1428 -91 1123 -41 
Q 819 9 494 109 
L 494 744 
Q 775 591 1075 516 
Q 1375 441 1709 441 
Q 2250 441 2565 725 
Q 2881 1009 2881 1497 
Q 2881 1984 2565 2268 
Q 2250 2553 1709 2553 
Q 1456 2553 1204 2497 
Q 953 2441 691 2322 
L 691 4666 
z
" transform="scale(0.015625)"/>
       </defs>
       <use xlink:href="#DejaVuSans-2212"/>
       <use xlink:href="#DejaVuSans-32" x="83.789062"/>
       <use xlink:href="#DejaVuSans-2e" x="147.412109"/>
       <use xlink:href="#DejaVuSans-35" x="179.199219"/>
      </g>
     </g>
    </g>
    <g id="ytick_2">
     <g id="line2d_8">
      <g>
       <use xlink:href="#m4c01103a5a" x="57.6" y="55.017581" style="stroke: #000000; stroke-width: 0.8"/>
      </g>
     </g>
     <g id="text_2">
      <!-- 0.0 -->
      <g transform="translate(34.696875 58.8168)scale(0.1 -0.1)">
       <defs>
        <path id="DejaVuSans-30" d="M 2034 4250 
Q 1547 4250 1301 3770 
Q 1056 3291 1056 2328 
Q 1056 1369 1301 889 
Q 1547 409 2034 409 
Q 2525 409 2770 889 
Q 3016 1369 3016 2328 
Q 3016 3291 2770 3770 
Q 2525 4250 2034 4250 
z
M 2034 4750 
Q 2819 4750 3233 4129 
Q 3647 3509 3647 2328 
Q 3647 1150 3233 529 
Q 2819 -91 2034 -91 
Q 1250 -91 836 529 
Q 422 1150 422 2328 
Q 422 3509 836 4129 
Q 1250 4750 2034 4750 
z
" transform="scale(0.015625)"/>
       </defs>
       <use xlink:href="#DejaVuSans-30"/>
       <use xlink:href="#DejaVuSans-2e" x="63.623047"/>
       <use xlink:href="#DejaVuSans-30" x="95.410156"/>
      </g>
     </g>
    </g>
    <g id="text_3">
     <!-- flow rate (normalized) -->
     <g transform="translate(20.2375 119.729877)rotate(-90)scale(0.1 -0.1)">
      <defs>
       <path id="DejaVuSans-66" d="M 2375 4863 
L 2375 4384 
L 1825 4384 
Q 1516 4384 1395 4259 
Q 1275 4134 1275 3809 
L 1275 3500 
L 2222 3500 
L 2222 3053 
L 1275 3053 
L 1275 0 
L 697 0 
L 697 3053 
L 147 3053 
L 147 3500 
L 697 3500 
L 697 3744 
Q 697 4328 969 4595 
Q 1241 4863 1831 4863 
L 2375 4863 
z
" transform="scale(0.015625)"/>
       <path id="DejaVuSans-6c" d="M 603 4863 
L 1178 4863 
L 1178 0 
L 603 0 
L 603 4863 
z
" transform="scale(0.015625)"/>
       <path id="DejaVuSans-6f" d="M 1959 3097 
Q 1497 3097 1228 2736 
Q 959 2375 959 1747 
Q 959 1119 1226 758 
Q 1494 397 1959 397 
Q 2419 397 2687 759 
Q 2956 1122 2956 1747 
Q 2956 2369 2687 2733 
Q 2419 3097 1959 3097 
z
M 1959 3584 
Q 2709 3584 3137 3096 
Q 3566 2609 3566 1747 
Q 3566 888 3137 398 
Q 2709 -91 1959 -91 
Q 1206 -91 779 398 
Q 353 888 353 1747 
Q 353 2609 779 3096 
Q 1206 3584 1959 3584 
z
" transform="scale(0.015625)"/>
       <path id="DejaVuSans-77" d="M 269 3500 
L 844 3500 
L 1563 769 
L 2278 3500 
L 2956 3500 
L 3675 769 
L 4391 3500 
L 4966 3500 
L 4050 0 
L 3372 0 
L 2619 2869 
L 1863 0 
L 1184 0 
L 269 3500 
z
" transform="scale(0.015625)"/>
       <path id="DejaVuSans-20" transform="scale(0.015625)"/>
       <path id="DejaVuSans-72" d="M 2631 2963 
Q 2534 3019 2420 3045 
Q 2306 3072 2169 3072 
Q 1681 3072 1420 2755 
Q 1159 2438 1159 1844 
L 1159 0 
L 581 0 
L 581 3500 
L 1159 3500 
L 1159 2956 
Q 1341 3275 1631 3429 
Q 1922 3584 2338 3584 
Q 2397 3584 2469 3576 
Q 2541 3569 2628 3553 
L 2631 2963 
z
" transform="scale(0.015625)"/>
       <path id="DejaVuSans-61" d="M 2194 1759 
Q 1497 1759 1228 1600 
Q 959 1441 959 1056 
Q 959 750 1161 570 
Q 1363 391 1709 391 
Q 2188 391 2477 730 
Q 2766 1069 2766 1631 
L 2766 1759 
L 2194 1759 
z
M 3341 1997 
L 3341 0 
L 2766 0 
L 2766 531 
Q 2569 213 2275 61 
Q 1981 -91 1556 -91 
Q 1019 -91 701 211 
Q 384 513 384 1019 
Q 384 1609 779 1909 
Q 1175 2209 1959 2209 
L 2766 2209 
L 2766 2266 
Q 2766 2663 2505 2880 
Q 2244 3097 1772 3097 
Q 1472 3097 1187 3025 
Q 903 2953 641 2809 
L 641 3341 
Q 956 3463 1253 3523 
Q 1550 3584 1831 3584 
Q 2591 3584 2966 3190 
Q 3341 2797 3341 1997 
z
" transform="scale(0.015625)"/>
       <path id="DejaVuSans-74" d="M 1172 4494 
L 1172 3500 
L 2356 3500 
L 2356 3053 
L 1172 3053 
L 1172 1153 
Q 1172 725 1289 603 
Q 1406 481 1766 481 
L 2356 481 
L 2356 0 
L 1766 0 
Q 1100 0 847 248 
Q 594 497 594 1153 
L 594 3053 
L 172 3053 
L 172 3500 
L 594 3500 
L 594 4494 
L 1172 4494 
z
" transform="scale(0.015625)"/>
       <path id="DejaVuSans-65" d="M 3597 1894 
L 3597 1613 
L 953 1613 
Q 991 1019 1311 708 
Q 1631 397 2203 397 
Q 2534 397 2845 478 
Q 3156 559 3463 722 
L 3463 178 
Q 3153 47 2828 -22 
Q 2503 -91 2169 -91 
Q 1331 -91 842 396 
Q 353 884 353 1716 
Q 353 2575 817 3079 
Q 1281 3584 2069 3584 
Q 2775 3584 3186 3129 
Q 3597 2675 3597 1894 
z
M 3022 2063 
Q 3016 2534 2758 2815 
Q 2500 3097 2075 3097 
Q 1594 3097 1305 2825 
Q 1016 2553 972 2059 
L 3022 2063 
z
" transform="scale(0.015625)"/>
       <path id="DejaVuSans-28" d="M 1984 4856 
Q 1566 4138 1362 3434 
Q 1159 2731 1159 2009 
Q 1159 1288 1364 580 
Q 1569 -128 1984 -844 
L 1484 -844 
Q 1016 -109 783 600 
Q 550 1309 550 2009 
Q 550 2706 781 3412 
Q 1013 4119 1484 4856 
L 1984 4856 
z
" transform="scale(0.015625)"/>
       <path id="DejaVuSans-6e" d="M 3513 2113 
L 3513 0 
L 2938 0 
L 2938 2094 
Q 2938 2591 2744 2837 
Q 2550 3084 2163 3084 
Q 1697 3084 1428 2787 
Q 1159 2491 1159 1978 
L 1159 0 
L 581 0 
L 581 3500 
L 1159 3500 
L 1159 2956 
Q 1366 3272 1645 3428 
Q 1925 3584 2291 3584 
Q 2894 3584 3203 3211 
Q 3513 2838 3513 2113 
z
" transform="scale(0.015625)"/>
       <path id="DejaVuSans-6d" d="M 3328 2828 
Q 3544 3216 3844 3400 
Q 4144 3584 4550 3584 
Q 5097 3584 5394 3201 
Q 5691 2819 5691 2113 
L 5691 0 
L 5113 0 
L 5113 2094 
Q 5113 2597 4934 2840 
Q 4756 3084 4391 3084 
Q 3944 3084 3684 2787 
Q 3425 2491 3425 1978 
L 3425 0 
L 2847 0 
L 2847 2094 
Q 2847 2600 2669 2842 
Q 2491 3084 2119 3084 
Q 1678 3084 1418 2786 
Q 1159 2488 1159 1978 
L 1159 0 
L 581 0 
L 581 3500 
L 1159 3500 
L 1159 2956 
Q 1356 3278 1631 3431 
Q 1906 3584 2284 3584 
Q 2666 3584 2933 3390 
Q 3200 3197 3328 2828 
z
" transform="scale(0.015625)"/>
       <path id="DejaVuSans-69" d="M 603 3500 
L 1178 3500 
L 1178 0 
L 603 0 
L 603 3500 
z
M 603 4863 
L 1178 4863 
L 1178 4134 
L 603 4134 
L 603 4863 
z
" transform="scale(0.015625)"/>
       <path id="DejaVuSans-7a" d="M 353 3500 
L 3084 3500 
L 3084 2975 
L 922 459 
L 3084 459 
L 3084 0 
L 275 0 
L 275 525 
L 2438 3041 
L 353 3041 
L 353 3500 
z
" transform="scale(0.015625)"/>
       <path id="DejaVuSans-64" d="M 2906 2969 
L 2906 4863 
L 3481 4863 
L 3481 0 
L 2906 0 
L 2906 525 
Q 2725 213 2448 61 
Q 2172 -91 1784 -91 
Q 1150 -91 751 415 
Q 353 922 353 1747 
Q 353 2572 751 3078 
Q 1150 3584 1784 3584 
Q 2172 3584 2448 3432 
Q 2725 3281 2906 2969 
z
M 947 1747 
Q 947 1113 1208 752 
Q 1469 391 1925 391 
Q 2381 391 2643 752 
Q 2906 1113 2906 1747 
Q 2906 2381 2643 2742 
Q 2381 3103 1925 3103 
Q 1469 3103 1208 2742 
Q 947 2381 947 1747 
z
" transform="scale(0.015625)"/>
       <path id="DejaVuSans-29" d="M 513 4856 
L 1013 4856 
Q 1481 4119 1714 3412 
Q 1947 2706 1947 2009 
Q 1947 1309 1714 600 
Q 1481 -109 1013 -844 
L 513 -844 
Q 928 -128 1133 580 
Q 1338 1288 1338 2009 
Q 1338 2731 1133 3434 
Q 928 4138 513 4856 
z
" transform="scale(0.015625)"/>
      </defs>
      <use xlink:href="#DejaVuSans-66"/>
      <use xlink:href="#DejaVuSans-6c" x="35.205078"/>
      <use xlink:href="#DejaVuSans-6f" x="62.988281"/>
      <use xlink:href="#DejaVuSans-77" x="124.169922"/>
      <use xlink:href="#DejaVuSans-20" x="205.957031"/>
      <use xlink:href="#DejaVuSans-72" x="237.744141"/>
      <use xlink:href="#DejaVuSans-61" x="278.857422"/>
      <use xlink:href="#DejaVuSans-74" x="340.136719"/>
      <use xlink:href="#DejaVuSans-65" x="379.345703"/>
      <use xlink:href="#DejaVuSans-20" x="440.869141"/>
      <use xlink:href="#DejaVuSans-28" x="472.65625"/>
      <use xlink:href="#DejaVuSans-6e" x="511.669922"/>
      <use xlink:href="#DejaVuSans-6f" x="575.048828"/>
      <use xlink:href="#DejaVuSans-72" x="636.230469"/>
      <use xlink:href="#DejaVuSans-6d" x="675.59375"/>
      <use xlink:href="#DejaVuSans-61" x="773.005859"/>
      <use xlink:href="#DejaVuSans-6c" x="834.285156"/>
      <use xlink:href="#DejaVuSans-69" x="862.068359"/>
      <use xlink:href="#DejaVuSans-7a" x="889.851562"/>
      <use xlink:href="#DejaVuSans-65" x="942.341797"/>
      <use xlink:href="#DejaVuSans-64" x="1003.865234"/>
      <use xlink:href="#DejaVuSans-29" x="1067.341797"/>
     </g>
    </g>
   </g>
   <g id="line2d_9">
    <path d="M 73.832727 56.14765 
L 77.079273 49.265622 
L 80.325818 52.936445 
L 83.572364 54.021415 
L 86.818909 54.503284 
L 90.065455 54.749201 
L 93.312 54.854495 
L 96.558545 54.918841 
L 99.805091 54.96227 
L 103.051636 54.987465 
L 106.298182 54.998142 
L 109.544727 55.006241 
L 112.791273 55.01032 
L 116.037818 55.012645 
L 119.284364 55.014263 
L 122.530909 54.69428 
L 125.777455 47.440378 
L 129.024 47.44007 
L 132.270545 47.439893 
L 135.517091 47.439792 
L 138.763636 47.439735 
L 142.010182 47.439705 
L 145.256727 47.439691 
L 148.503273 47.439687 
L 151.749818 47.439688 
L 154.996364 47.43969 
L 158.242909 47.439691 
L 161.489455 47.439693 
L 164.736 47.439695 
L 167.982545 47.439697 
L 171.229091 48.83113 
L 174.475636 53.202897 
L 177.722182 53.37016 
L 180.968727 53.510027 
L 184.215273 53.664962 
L 187.461818 53.799013 
L 190.708364 53.97435 
L 193.954909 54.162064 
L 197.201455 54.330147 
L 200.448 54.481169 
L 203.694545 54.674169 
L 206.941091 54.718419 
L 210.187636 54.82808 
L 213.434182 54.891544 
L 216.680727 54.942789 
L 219.927273 54.967542 
L 223.173818 54.986224 
L 226.420364 54.998919 
L 229.666909 55.006358 
L 232.913455 55.011367 
L 236.16 55.014423 
L 239.406545 55.016318 
L 242.653091 55.017581 
L 245.899636 55.017536 
L 249.146182 55.017511 
L 252.392727 55.017504 
L 255.639273 55.017497 
L 258.885818 55.01749 
L 262.132364 55.017482 
L 265.378909 55.017503 
L 268.625455 55.094411 
L 271.872 57.932716 
L 275.118545 60.088573 
L 278.365091 62.674441 
L 281.611636 64.656011 
L 284.858182 65.647791 
L 288.104727 65.826077 
L 291.351273 65.562463 
L 294.597818 65.071705 
L 297.844364 64.49219 
L 301.090909 63.891969 
L 304.337455 63.298883 
L 307.584 62.727444 
L 310.830545 62.175022 
L 314.077091 61.679086 
L 317.323636 61.213464 
L 320.570182 60.772989 
L 323.816727 60.36567 
L 327.063273 59.988493 
L 330.309818 59.638254 
L 333.556364 59.314759 
L 336.802909 59.016796 
L 340.049455 58.740993 
L 343.296 58.486771 
L 346.542545 58.253049 
L 349.789091 58.037073 
L 353.035636 57.837406 
L 356.282182 57.652759 
L 359.528727 57.481089 
L 362.775273 57.321951 
L 366.021818 57.174939 
L 369.268364 57.038486 
L 372.514909 56.911127 
L 375.761455 56.791949 
L 379.008 56.682093 
L 382.254545 56.57963 
L 385.501091 56.483721 
L 388.747636 56.393761 
L 391.994182 56.310088 
L 395.240727 56.231647 
L 398.487273 56.157868 
" clip-path="url(#pa1b5cb7865)" style="fill: none; stroke: #1f77b4; stroke-width: 1.5; stroke-linecap: square"/>
   </g>
   <g id="line2d_10">
    <path d="M 73.832727 56.858504 
L 77.079273 43.557517 
L 80.325818 50.856303 
L 83.572364 53.024291 
L 86.818909 53.988217 
L 90.065455 54.480406 
L 93.312 54.691171 
L 96.558545 54.819946 
L 99.805091 54.906892 
L 103.051636 54.957295 
L 106.298182 54.97868 
L 109.544727 54.994891 
L 112.791273 55.003053 
L 116.037818 55.007706 
L 119.284364 55.010944 
L 122.530909 50.524118 
L 125.777455 47.452767 
L 129.024 47.452731 
L 132.270545 47.452712 
L 135.517091 47.452703 
L 138.763636 47.452699 
L 142.010182 47.452697 
L 145.256727 47.452697 
L 148.503273 47.452698 
L 151.749818 47.452699 
L 154.996364 47.452699 
L 158.242909 47.452699 
L 161.489455 47.452699 
L 164.736 47.452699 
L 167.982545 47.452699 
L 171.229091 51.050982 
L 174.475636 54.687687 
L 177.722182 54.718151 
L 180.968727 54.743649 
L 184.215273 54.771799 
L 187.461818 54.796262 
L 190.708364 54.828077 
L 193.954909 54.862134 
L 197.201455 54.89265 
L 200.448 54.920058 
L 203.694545 54.955063 
L 206.941091 54.963258 
L 210.187636 54.983086 
L 213.434182 54.994624 
L 216.680727 55.003945 
L 219.927273 55.008461 
L 223.173818 55.011863 
L 226.420364 55.014176 
L 229.666909 55.015533 
L 232.913455 55.016447 
L 236.16 55.017004 
L 239.406545 55.01735 
L 242.653091 55.017581 
L 245.899636 55.017573 
L 249.146182 55.017568 
L 252.392727 55.017567 
L 255.639273 55.017566 
L 258.885818 55.017565 
L 262.132364 55.017563 
L 265.378909 55.017567 
L 268.625455 55.257097 
L 271.872 61.000577 
L 275.118545 65.825829 
L 278.365091 72.480811 
L 281.611636 78.920234 
L 284.858182 83.397665 
L 288.104727 85.267862 
L 291.351273 85.120707 
L 294.597818 83.624341 
L 297.844364 81.464363 
L 301.090909 79.083326 
L 304.337455 76.708387 
L 307.584 74.46389 
L 310.830545 72.38984 
L 314.077091 70.626939 
L 317.323636 69.072979 
L 320.570182 67.637961 
L 323.816727 66.37342 
L 327.063273 65.271859 
L 330.309818 64.304849 
L 333.556364 63.450643 
L 336.802909 62.702637 
L 340.049455 62.035806 
L 343.296 61.445748 
L 346.542545 60.925564 
L 349.789091 60.462104 
L 353.035636 60.04517 
L 356.282182 59.671987 
L 359.528727 59.330572 
L 362.775273 59.018551 
L 366.021818 58.733969 
L 369.268364 58.471054 
L 372.514909 58.229793 
L 375.761455 58.006018 
L 379.008 57.803371 
L 382.254545 57.616495 
L 385.501091 57.443229 
L 388.747636 57.282047 
L 391.994182 57.133974 
L 395.240727 56.996267 
L 398.487273 56.867492 
" clip-path="url(#pa1b5cb7865)" style="fill: none; stroke: #ff7f0e; stroke-width: 1.5; stroke-linecap: square"/>
   </g>
   <g id="line2d_11">
    <path d="M 73.832727 55.149913 
L 77.079273 54.380535 
L 80.325818 54.786218 
L 83.572364 54.906867 
L 86.818909 54.960428 
L 90.065455 54.987757 
L 93.312 54.999458 
L 96.558545 55.006608 
L 99.805091 55.011433 
L 103.051636 55.014234 
L 106.298182 55.01542 
L 109.544727 55.01632 
L 112.791273 55.016773 
L 116.037818 55.017032 
L 119.284364 55.017211 
L 122.530909 57.351472 
L 125.777455 47.429765 
L 129.024 47.42913 
L 132.270545 47.428733 
L 135.517091 47.428487 
L 138.763636 47.428332 
L 142.010182 47.428237 
L 145.256727 47.42818 
L 148.503273 47.428147 
L 151.749818 47.428129 
L 154.996364 47.428117 
L 158.242909 47.428107 
L 161.489455 47.428099 
L 164.736 47.428093 
L 167.982545 47.428089 
L 171.229091 48.105447 
L 174.475636 51.882112 
L 177.722182 52.169916 
L 180.968727 52.410157 
L 184.215273 52.678162 
L 187.461818 52.907925 
L 190.708364 53.212272 
L 193.954909 53.5378 
L 197.201455 53.829013 
L 200.448 54.090904 
L 203.694545 54.425967 
L 206.941091 54.499443 
L 210.187636 54.691055 
L 213.434182 54.800684 
L 216.680727 54.889142 
L 219.927273 54.931595 
L 223.173818 54.963751 
L 226.420364 54.985588 
L 229.666909 54.998345 
L 232.913455 55.006941 
L 236.16 55.012186 
L 239.406545 55.015431 
L 242.653091 55.017584 
L 245.899636 55.017507 
L 249.146182 55.017463 
L 252.392727 55.01745 
L 255.639273 55.017437 
L 258.885818 55.017424 
L 262.132364 55.017412 
L 265.378909 55.017446 
L 268.625455 55.024814 
L 271.872 55.338908 
L 275.118545 55.570407 
L 278.365091 55.837518 
L 281.611636 56.030095 
L 284.858182 56.118169 
L 288.104727 56.127698 
L 291.351273 56.09754 
L 294.597818 56.048232 
L 297.844364 55.992034 
L 301.090909 55.93465 
L 304.337455 55.878268 
L 307.584 55.824002 
L 310.830545 55.771283 
L 314.077091 55.723694 
L 317.323636 55.67853 
L 320.570182 55.635713 
L 323.816727 55.59585 
L 327.063273 55.558558 
L 330.309818 55.52357 
L 333.556364 55.490946 
L 336.802909 55.460584 
L 340.049455 55.432221 
L 343.296 55.405844 
L 346.542545 55.38137 
L 349.789091 55.358529 
L 353.035636 55.337228 
L 356.282182 55.317356 
L 359.528727 55.298756 
L 362.775273 55.281409 
L 366.021818 55.265297 
L 369.268364 55.250282 
L 372.514909 55.236187 
L 375.761455 55.222945 
L 379.008 55.210666 
L 382.254545 55.199169 
L 385.501091 55.188375 
L 388.747636 55.178226 
L 391.994182 55.168743 
L 395.240727 55.15983 
L 398.487273 55.151432 
" clip-path="url(#pa1b5cb7865)" style="fill: none; stroke: #2ca02c; stroke-width: 1.5; stroke-linecap: square"/>
   </g>
   <g id="patch_3">
    <path d="M 57.6 87.353379 
L 57.6 41.472 
" style="fill: none; stroke: #000000; stroke-width: 0.8; stroke-linejoin: miter; stroke-linecap: square"/>
   </g>
   <g id="patch_4">
    <path d="M 414.72 87.353379 
L 414.72 41.472 
" style="fill: none; stroke: #000000; stroke-width: 0.8; stroke-linejoin: miter; stroke-linecap: square"/>
   </g>
   <g id="patch_5">
    <path d="M 57.6 87.353379 
L 414.72 87.353379 
" style="fill: none; stroke: #000000; stroke-width: 0.8; stroke-linejoin: miter; stroke-linecap: square"/>
   </g>
   <g id="patch_6">
    <path d="M 57.6 41.472 
L 414.72 41.472 
" style="fill: none; stroke: #000000; stroke-width: 0.8; stroke-linejoin: miter; stroke-linecap: square"/>
   </g>
   <g id="text_4">
    <!-- velocity vs time (container 1)   -->
    <g transform="translate(144.106875 35.472)scale(0.12 -0.12)">
     <defs>
      <path id="DejaVuSans-76" d="M 191 3500 
L 800 3500 
L 1894 563 
L 2988 3500 
L 3597 3500 
L 2284 0 
L 1503 0 
L 191 3500 
z
" transform="scale(0.015625)"/>
      <path id="DejaVuSans-63" d="M 3122 3366 
L 3122 2828 
Q 2878 2963 2633 3030 
Q 2388 3097 2138 3097 
Q 1578 3097 1268 2742 
Q 959 2388 959 1747 
Q 959 1106 1268 751 
Q 1578 397 2138 397 
Q 2388 397 2633 464 
Q 2878 531 3122 666 
L 3122 134 
Q 2881 22 2623 -34 
Q 2366 -91 2075 -91 
Q 1284 -91 818 406 
Q 353 903 353 1747 
Q 353 2603 823 3093 
Q 1294 3584 2113 3584 
Q 2378 3584 2631 3529 
Q 2884 3475 3122 3366 
z
" transform="scale(0.015625)"/>
      <path id="DejaVuSans-79" d="M 2059 -325 
Q 1816 -950 1584 -1140 
Q 1353 -1331 966 -1331 
L 506 -1331 
L 506 -850 
L 844 -850 
Q 1081 -850 1212 -737 
Q 1344 -625 1503 -206 
L 1606 56 
L 191 3500 
L 800 3500 
L 1894 763 
L 2988 3500 
L 3597 3500 
L 2059 -325 
z
" transform="scale(0.015625)"/>
      <path id="DejaVuSans-73" d="M 2834 3397 
L 2834 2853 
Q 2591 2978 2328 3040 
Q 2066 3103 1784 3103 
Q 1356 3103 1142 2972 
Q 928 2841 928 2578 
Q 928 2378 1081 2264 
Q 1234 2150 1697 2047 
L 1894 2003 
Q 2506 1872 2764 1633 
Q 3022 1394 3022 966 
Q 3022 478 2636 193 
Q 2250 -91 1575 -91 
Q 1294 -91 989 -36 
Q 684 19 347 128 
L 347 722 
Q 666 556 975 473 
Q 1284 391 1588 391 
Q 1994 391 2212 530 
Q 2431 669 2431 922 
Q 2431 1156 2273 1281 
Q 2116 1406 1581 1522 
L 1381 1569 
Q 847 1681 609 1914 
Q 372 2147 372 2553 
Q 372 3047 722 3315 
Q 1072 3584 1716 3584 
Q 2034 3584 2315 3537 
Q 2597 3491 2834 3397 
z
" transform="scale(0.015625)"/>
      <path id="DejaVuSans-31" d="M 794 531 
L 1825 531 
L 1825 4091 
L 703 3866 
L 703 4441 
L 1819 4666 
L 2450 4666 
L 2450 531 
L 3481 531 
L 3481 0 
L 794 0 
L 794 531 
z
" transform="scale(0.015625)"/>
     </defs>
     <use xlink:href="#DejaVuSans-76"/>
     <use xlink:href="#DejaVuSans-65" x="59.179688"/>
     <use xlink:href="#DejaVuSans-6c" x="120.703125"/>
     <use xlink:href="#DejaVuSans-6f" x="148.486328"/>
     <use xlink:href="#DejaVuSans-63" x="209.667969"/>
     <use xlink:href="#DejaVuSans-69" x="264.648438"/>
     <use xlink:href="#DejaVuSans-74" x="292.431641"/>
     <use xlink:href="#DejaVuSans-79" x="331.640625"/>
     <use xlink:href="#DejaVuSans-20" x="390.820312"/>
     <use xlink:href="#DejaVuSans-76" x="422.607422"/>
     <use xlink:href="#DejaVuSans-73" x="481.787109"/>
     <use xlink:href="#DejaVuSans-20" x="533.886719"/>
     <use xlink:href="#DejaVuSans-74" x="565.673828"/>
     <use xlink:href="#DejaVuSans-69" x="604.882812"/>
     <use xlink:href="#DejaVuSans-6d" x="632.666016"/>
     <use xlink:href="#DejaVuSans-65" x="730.078125"/>
     <use xlink:href="#DejaVuSans-20" x="791.601562"/>
     <use xlink:href="#DejaVuSans-28" x="823.388672"/>
     <use xlink:href="#DejaVuSans-63" x="862.402344"/>
     <use xlink:href="#DejaVuSans-6f" x="917.382812"/>
     <use xlink:href="#DejaVuSans-6e" x="978.564453"/>
     <use xlink:href="#DejaVuSans-74" x="1041.943359"/>
     <use xlink:href="#DejaVuSans-61" x="1081.152344"/>
     <use xlink:href="#DejaVuSans-69" x="1142.431641"/>
     <use xlink:href="#DejaVuSans-6e" x="1170.214844"/>
     <use xlink:href="#DejaVuSans-65" x="1233.59375"/>
     <use xlink:href="#DejaVuSans-72" x="1295.117188"/>
     <use xlink:href="#DejaVuSans-20" x="1336.230469"/>
     <use xlink:href="#DejaVuSans-31" x="1368.017578"/>
     <use xlink:href="#DejaVuSans-29" x="1431.640625"/>
     <use xlink:href="#DejaVuSans-20" x="1470.654297"/>
     <use xlink:href="#DejaVuSans-20" x="1502.441406"/>
    </g>
   </g>
   <g id="legend_1">
    <g id="patch_7">
     <path d="M 64.6 93.506375 
L 139.240625 93.506375 
Q 141.240625 93.506375 141.240625 91.506375 
L 141.240625 48.472 
Q 141.240625 46.472 139.240625 46.472 
L 64.6 46.472 
Q 62.6 46.472 62.6 48.472 
L 62.6 91.506375 
Q 62.6 93.506375 64.6 93.506375 
z
" style="fill: #ffffff; opacity: 0.8; stroke: #cccccc; stroke-linejoin: miter"/>
    </g>
    <g id="line2d_12">
     <path d="M 66.6 54.570437 
L 76.6 54.570437 
L 86.6 54.570437 
" style="fill: none; stroke: #1f77b4; stroke-width: 1.5; stroke-linecap: square"/>
    </g>
    <g id="text_5">
     <!-- mid flow -->
     <g transform="translate(94.6 58.070437)scale(0.1 -0.1)">
      <use xlink:href="#DejaVuSans-6d"/>
      <use xlink:href="#DejaVuSans-69" x="97.412109"/>
      <use xlink:href="#DejaVuSans-64" x="125.195312"/>
      <use xlink:href="#DejaVuSans-20" x="188.671875"/>
      <use xlink:href="#DejaVuSans-66" x="220.458984"/>
      <use xlink:href="#DejaVuSans-6c" x="255.664062"/>
      <use xlink:href="#DejaVuSans-6f" x="283.447266"/>
      <use xlink:href="#DejaVuSans-77" x="344.628906"/>
     </g>
    </g>
    <g id="line2d_13">
     <path d="M 66.6 69.248562 
L 76.6 69.248562 
L 86.6 69.248562 
" style="fill: none; stroke: #ff7f0e; stroke-width: 1.5; stroke-linecap: square"/>
    </g>
    <g id="text_6">
     <!-- v0 flow -->
     <g transform="translate(94.6 72.748562)scale(0.1 -0.1)">
      <use xlink:href="#DejaVuSans-76"/>
      <use xlink:href="#DejaVuSans-30" x="59.179688"/>
      <use xlink:href="#DejaVuSans-20" x="122.802734"/>
      <use xlink:href="#DejaVuSans-66" x="154.589844"/>
      <use xlink:href="#DejaVuSans-6c" x="189.794922"/>
      <use xlink:href="#DejaVuSans-6f" x="217.578125"/>
      <use xlink:href="#DejaVuSans-77" x="278.759766"/>
     </g>
    </g>
    <g id="line2d_14">
     <path d="M 66.6 83.926687 
L 76.6 83.926687 
L 86.6 83.926687 
" style="fill: none; stroke: #2ca02c; stroke-width: 1.5; stroke-linecap: square"/>
    </g>
    <g id="text_7">
     <!-- vN flow -->
     <g transform="translate(94.6 87.426687)scale(0.1 -0.1)">
      <defs>
       <path id="DejaVuSans-4e" d="M 628 4666 
L 1478 4666 
L 3547 763 
L 3547 4666 
L 4159 4666 
L 4159 0 
L 3309 0 
L 1241 3903 
L 1241 0 
L 628 0 
L 628 4666 
z
" transform="scale(0.015625)"/>
      </defs>
      <use xlink:href="#DejaVuSans-76"/>
      <use xlink:href="#DejaVuSans-4e" x="59.179688"/>
      <use xlink:href="#DejaVuSans-20" x="133.984375"/>
      <use xlink:href="#DejaVuSans-66" x="165.771484"/>
      <use xlink:href="#DejaVuSans-6c" x="200.976562"/>
      <use xlink:href="#DejaVuSans-6f" x="228.759766"/>
      <use xlink:href="#DejaVuSans-77" x="289.941406"/>
     </g>
    </g>
   </g>
  </g>
  <g id="axes_2">
   <g id="patch_8">
    <path d="M 57.6 142.411034 
L 414.72 142.411034 
L 414.72 96.529655 
L 57.6 96.529655 
z
" style="fill: #ffffff"/>
   </g>
   <g id="matplotlib.axis_3">
    <g id="xtick_7">
     <g id="line2d_15">
      <g>
       <use xlink:href="#m09316b1810" x="73.832727" y="142.411034" style="stroke: #000000; stroke-width: 0.8"/>
      </g>
     </g>
    </g>
    <g id="xtick_8">
     <g id="line2d_16">
      <g>
       <use xlink:href="#m09316b1810" x="138.763636" y="142.411034" style="stroke: #000000; stroke-width: 0.8"/>
      </g>
     </g>
    </g>
    <g id="xtick_9">
     <g id="line2d_17">
      <g>
       <use xlink:href="#m09316b1810" x="203.694545" y="142.411034" style="stroke: #000000; stroke-width: 0.8"/>
      </g>
     </g>
    </g>
    <g id="xtick_10">
     <g id="line2d_18">
      <g>
       <use xlink:href="#m09316b1810" x="268.625455" y="142.411034" style="stroke: #000000; stroke-width: 0.8"/>
      </g>
     </g>
    </g>
    <g id="xtick_11">
     <g id="line2d_19">
      <g>
       <use xlink:href="#m09316b1810" x="333.556364" y="142.411034" style="stroke: #000000; stroke-width: 0.8"/>
      </g>
     </g>
    </g>
    <g id="xtick_12">
     <g id="line2d_20">
      <g>
       <use xlink:href="#m09316b1810" x="398.487273" y="142.411034" style="stroke: #000000; stroke-width: 0.8"/>
      </g>
     </g>
    </g>
   </g>
   <g id="matplotlib.axis_4">
    <g id="ytick_3">
     <g id="line2d_21">
      <g>
       <use xlink:href="#m4c01103a5a" x="57.6" y="140.746258" style="stroke: #000000; stroke-width: 0.8"/>
      </g>
     </g>
     <g id="text_8">
      <!-- 0 -->
      <g transform="translate(44.2375 144.545477)scale(0.1 -0.1)">
       <use xlink:href="#DejaVuSans-30"/>
      </g>
     </g>
    </g>
    <g id="ytick_4">
     <g id="line2d_22">
      <g>
       <use xlink:href="#m4c01103a5a" x="57.6" y="98.771646" style="stroke: #000000; stroke-width: 0.8"/>
      </g>
     </g>
     <g id="text_9">
      <!-- 1 -->
      <g transform="translate(44.2375 102.570865)scale(0.1 -0.1)">
       <use xlink:href="#DejaVuSans-31"/>
      </g>
     </g>
    </g>
   </g>
   <g id="line2d_23">
    <path d="M 73.832727 140.325517 
L 77.079273 123.982151 
L 80.325818 114.06183 
L 83.572364 108.044874 
L 86.818909 104.396266 
L 90.065455 102.186377 
L 93.312 100.841642 
L 96.558545 100.030604 
L 99.805091 99.527069 
L 103.051636 99.233294 
L 106.298182 99.051968 
L 109.544727 98.943945 
L 112.791273 98.875483 
L 116.037818 98.83712 
L 119.284364 98.81454 
L 122.530909 98.757794 
L 125.777455 98.615187 
L 129.024 98.615181 
L 132.270545 98.615177 
L 135.517091 98.615175 
L 138.763636 98.615174 
L 142.010182 98.615173 
L 145.256727 98.615173 
L 148.503273 98.615173 
L 151.749818 98.615172 
L 154.996364 98.615172 
L 158.242909 98.615172 
L 161.489455 98.615172 
L 164.736 98.615172 
L 167.982545 98.615172 
L 171.229091 98.655988 
L 174.475636 113.62587 
L 177.722182 122.620041 
L 180.968727 128.087746 
L 184.215273 131.412253 
L 187.461818 133.425861 
L 190.708364 134.647918 
L 193.954909 135.391892 
L 197.201455 135.84229 
L 200.448 136.12488 
L 203.694545 136.286525 
L 206.941091 136.388411 
L 210.187636 136.451116 
L 213.434182 136.490314 
L 216.680727 136.512553 
L 219.927273 136.526692 
L 223.173818 136.535606 
L 226.420364 136.540849 
L 229.666909 136.543971 
L 232.913455 136.546 
L 236.16 136.54703 
L 239.406545 136.547798 
L 242.653091 136.548387 
L 245.899636 136.54846 
L 249.146182 136.548524 
L 252.392727 136.548579 
L 255.639273 136.548633 
L 258.885818 136.548688 
L 262.132364 136.548743 
L 265.378909 136.548775 
L 268.625455 136.551533 
L 271.872 138.034504 
L 275.118545 138.930153 
L 278.365091 139.472819 
L 281.611636 139.799391 
L 284.858182 139.996855 
L 288.104727 140.116755 
L 291.351273 140.190661 
L 294.597818 140.236599 
L 297.844364 140.265589 
L 301.090909 140.284237 
L 304.337455 140.296363 
L 307.584 140.304267 
L 310.830545 140.30961 
L 314.077091 140.313236 
L 317.323636 140.315753 
L 320.570182 140.317677 
L 323.816727 140.319014 
L 327.063273 140.320042 
L 330.309818 140.320851 
L 333.556364 140.321526 
L 336.802909 140.322065 
L 340.049455 140.322493 
L 343.296 140.322866 
L 346.542545 140.323201 
L 349.789091 140.323467 
L 353.035636 140.323704 
L 356.282182 140.323909 
L 359.528727 140.32411 
L 362.775273 140.324297 
L 366.021818 140.324459 
L 369.268364 140.324608 
L 372.514909 140.324745 
L 375.761455 140.324872 
L 379.008 140.324986 
L 382.254545 140.325091 
L 385.501091 140.325188 
L 388.747636 140.325278 
L 391.994182 140.32536 
L 395.240727 140.325436 
L 398.487273 140.325507 
" clip-path="url(#p8b2dd5b648)" style="fill: none; stroke: #1f77b4; stroke-width: 1.5; stroke-linecap: square"/>
   </g>
   <g id="line2d_24">
    <path d="M 73.832727 140.308464 
L 77.079273 124.080074 
L 80.325818 114.09733 
L 83.572364 108.061875 
L 86.818909 104.405045 
L 90.065455 102.190959 
L 93.312 100.844426 
L 96.558545 100.03229 
L 99.805091 99.528013 
L 103.051636 99.233808 
L 106.298182 99.052299 
L 109.544727 98.944139 
L 112.791273 98.875607 
L 116.037818 98.837204 
L 119.284364 98.814597 
L 122.530909 98.784911 
L 125.777455 98.695354 
L 129.024 98.695349 
L 132.270545 98.695346 
L 135.517091 98.695345 
L 138.763636 98.695344 
L 142.010182 98.695343 
L 145.256727 98.695343 
L 148.503273 98.695343 
L 151.749818 98.695342 
L 154.996364 98.695342 
L 158.242909 98.695342 
L 161.489455 98.695342 
L 164.736 98.695342 
L 167.982545 98.695342 
L 171.229091 98.708681 
L 174.475636 113.635478 
L 177.722182 122.628762 
L 180.968727 128.095726 
L 184.215273 131.419413 
L 187.461818 133.43231 
L 190.708364 134.653439 
L 193.954909 135.39642 
L 197.201455 135.845929 
L 200.448 136.127721 
L 203.694545 136.288345 
L 206.941091 136.389994 
L 210.187636 136.45212 
L 213.434182 136.490982 
L 216.680727 136.51295 
L 219.927273 136.526957 
L 223.173818 136.535772 
L 226.420364 136.540948 
L 229.666909 136.54403 
L 232.913455 136.546033 
L 236.16 136.547047 
L 239.406545 136.547805 
L 242.653091 136.548387 
L 245.899636 136.54846 
L 249.146182 136.548524 
L 252.392727 136.548579 
L 255.639273 136.548634 
L 258.885818 136.548689 
L 262.132364 136.548743 
L 265.378909 136.548776 
L 268.625455 136.54977 
L 271.872 137.983944 
L 275.118545 138.840081 
L 278.365091 139.330895 
L 281.611636 139.611095 
L 284.858182 139.779345 
L 288.104727 139.888951 
L 291.351273 139.965644 
L 294.597818 140.022526 
L 297.844364 140.066276 
L 301.090909 140.100891 
L 304.337455 140.128914 
L 307.584 140.151953 
L 310.830545 140.171498 
L 314.077091 140.18743 
L 317.323636 140.20103 
L 320.570182 140.213283 
L 323.816727 140.223882 
L 327.063273 140.233158 
L 330.309818 140.241359 
L 333.556364 140.24867 
L 336.802909 140.25513 
L 340.049455 140.260911 
L 343.296 140.266093 
L 346.542545 140.270737 
L 349.789091 140.274893 
L 353.035636 140.278665 
L 356.282182 140.282073 
L 359.528727 140.285219 
L 362.775273 140.28811 
L 366.021818 140.29075 
L 369.268364 140.293189 
L 372.514909 140.295441 
L 375.761455 140.297536 
L 379.008 140.299443 
L 382.254545 140.301208 
L 385.501091 140.302851 
L 388.747636 140.304383 
L 391.994182 140.305796 
L 395.240727 140.307114 
L 398.487273 140.308349 
" clip-path="url(#p8b2dd5b648)" style="fill: none; stroke: #ff7f0e; stroke-width: 1.5; stroke-linecap: square"/>
   </g>
   <g id="line2d_25">
    <path d="M 73.832727 140.302334 
L 77.079273 124.110589 
L 80.325818 114.108353 
L 83.572364 108.067151 
L 86.818909 104.407768 
L 90.065455 102.19238 
L 93.312 100.845289 
L 96.558545 100.032813 
L 99.805091 99.528306 
L 103.051636 99.233967 
L 106.298182 99.052402 
L 109.544727 98.944199 
L 112.791273 98.875646 
L 116.037818 98.83723 
L 119.284364 98.814614 
L 122.530909 98.77648 
L 125.777455 98.767627 
L 129.024 98.767627 
L 132.270545 98.767627 
L 135.517091 98.767627 
L 138.763636 98.767627 
L 142.010182 98.767627 
L 145.256727 98.767627 
L 148.503273 98.767627 
L 151.749818 98.767626 
L 154.996364 98.767626 
L 158.242909 98.767626 
L 161.489455 98.767626 
L 164.736 98.767626 
L 167.982545 98.767626 
L 171.229091 98.771613 
L 174.475636 113.659069 
L 177.722182 122.650183 
L 180.968727 128.115334 
L 184.215273 131.437006 
L 187.461818 133.448167 
L 190.708364 134.667012 
L 193.954909 135.407548 
L 197.201455 135.854869 
L 200.448 136.134693 
L 203.694545 136.292802 
L 206.941091 136.393888 
L 210.187636 136.45458 
L 213.434182 136.492617 
L 216.680727 136.513919 
L 219.927273 136.527606 
L 223.173818 136.536178 
L 226.420364 136.54119 
L 229.666909 136.544175 
L 232.913455 136.546113 
L 236.16 136.547088 
L 239.406545 136.547821 
L 242.653091 136.548387 
L 245.899636 136.548461 
L 249.146182 136.548525 
L 252.392727 136.54858 
L 255.639273 136.548635 
L 258.885818 136.54869 
L 262.132364 136.548745 
L 265.378909 136.548777 
L 268.625455 136.549391 
L 271.872 137.968564 
L 275.118545 138.813461 
L 278.365091 139.291031 
L 281.611636 139.561358 
L 284.858182 139.72486 
L 288.104727 139.83376 
L 291.351273 139.911871 
L 294.597818 139.971235 
L 297.844364 140.017869 
L 301.090909 140.055451 
L 304.337455 140.086398 
L 307.584 140.112253 
L 310.830545 140.134527 
L 314.077091 140.152916 
L 317.323636 140.168834 
L 320.570182 140.183281 
L 323.816727 140.195916 
L 327.063273 140.207086 
L 330.309818 140.217054 
L 333.556364 140.226005 
L 336.802909 140.233982 
L 340.049455 140.241173 
L 343.296 140.24766 
L 346.542545 140.25351 
L 349.789091 140.258784 
L 353.035636 140.263594 
L 356.282182 140.267966 
L 359.528727 140.272012 
L 362.775273 140.275739 
L 366.021818 140.279152 
L 369.268364 140.282311 
L 372.514909 140.285237 
L 375.761455 140.287962 
L 379.008 140.290453 
L 382.254545 140.292764 
L 385.501091 140.294917 
L 388.747636 140.296929 
L 391.994182 140.298789 
L 395.240727 140.300527 
L 398.487273 140.302157 
" clip-path="url(#p8b2dd5b648)" style="fill: none; stroke: #2ca02c; stroke-width: 1.5; stroke-linecap: square"/>
   </g>
   <g id="patch_9">
    <path d="M 57.6 142.411034 
L 57.6 96.529655 
" style="fill: none; stroke: #000000; stroke-width: 0.8; stroke-linejoin: miter; stroke-linecap: square"/>
   </g>
   <g id="patch_10">
    <path d="M 414.72 142.411034 
L 414.72 96.529655 
" style="fill: none; stroke: #000000; stroke-width: 0.8; stroke-linejoin: miter; stroke-linecap: square"/>
   </g>
   <g id="patch_11">
    <path d="M 57.6 142.411034 
L 414.72 142.411034 
" style="fill: none; stroke: #000000; stroke-width: 0.8; stroke-linejoin: miter; stroke-linecap: square"/>
   </g>
   <g id="patch_12">
    <path d="M 57.6 96.529655 
L 414.72 96.529655 
" style="fill: none; stroke: #000000; stroke-width: 0.8; stroke-linejoin: miter; stroke-linecap: square"/>
   </g>
   <g id="text_10">
    <!-- Pressure -->
    <g transform="translate(210.546562 90.529655)scale(0.12 -0.12)">
     <defs>
      <path id="DejaVuSans-50" d="M 1259 4147 
L 1259 2394 
L 2053 2394 
Q 2494 2394 2734 2622 
Q 2975 2850 2975 3272 
Q 2975 3691 2734 3919 
Q 2494 4147 2053 4147 
L 1259 4147 
z
M 628 4666 
L 2053 4666 
Q 2838 4666 3239 4311 
Q 3641 3956 3641 3272 
Q 3641 2581 3239 2228 
Q 2838 1875 2053 1875 
L 1259 1875 
L 1259 0 
L 628 0 
L 628 4666 
z
" transform="scale(0.015625)"/>
      <path id="DejaVuSans-75" d="M 544 1381 
L 544 3500 
L 1119 3500 
L 1119 1403 
Q 1119 906 1312 657 
Q 1506 409 1894 409 
Q 2359 409 2629 706 
Q 2900 1003 2900 1516 
L 2900 3500 
L 3475 3500 
L 3475 0 
L 2900 0 
L 2900 538 
Q 2691 219 2414 64 
Q 2138 -91 1772 -91 
Q 1169 -91 856 284 
Q 544 659 544 1381 
z
M 1991 3584 
L 1991 3584 
z
" transform="scale(0.015625)"/>
     </defs>
     <use xlink:href="#DejaVuSans-50"/>
     <use xlink:href="#DejaVuSans-72" x="58.552734"/>
     <use xlink:href="#DejaVuSans-65" x="97.416016"/>
     <use xlink:href="#DejaVuSans-73" x="158.939453"/>
     <use xlink:href="#DejaVuSans-73" x="211.039062"/>
     <use xlink:href="#DejaVuSans-75" x="263.138672"/>
     <use xlink:href="#DejaVuSans-72" x="326.517578"/>
     <use xlink:href="#DejaVuSans-65" x="365.380859"/>
    </g>
   </g>
   <g id="legend_2">
    <g id="patch_13">
     <path d="M 350.823125 137.411034 
L 407.72 137.411034 
Q 409.72 137.411034 409.72 135.411034 
L 409.72 92.376659 
Q 409.72 90.376659 407.72 90.376659 
L 350.823125 90.376659 
Q 348.823125 90.376659 348.823125 92.376659 
L 348.823125 135.411034 
Q 348.823125 137.411034 350.823125 137.411034 
z
" style="fill: #ffffff; opacity: 0.8; stroke: #cccccc; stroke-linejoin: miter"/>
    </g>
    <g id="line2d_26">
     <path d="M 352.823125 98.475097 
L 362.823125 98.475097 
L 372.823125 98.475097 
" style="fill: none; stroke: #1f77b4; stroke-width: 1.5; stroke-linecap: square"/>
    </g>
    <g id="text_11">
     <!-- P1 -->
     <g transform="translate(380.823125 101.975097)scale(0.1 -0.1)">
      <use xlink:href="#DejaVuSans-50"/>
      <use xlink:href="#DejaVuSans-31" x="60.302734"/>
     </g>
    </g>
    <g id="line2d_27">
     <path d="M 352.823125 113.153222 
L 362.823125 113.153222 
L 372.823125 113.153222 
" style="fill: none; stroke: #ff7f0e; stroke-width: 1.5; stroke-linecap: square"/>
    </g>
    <g id="text_12">
     <!-- Pmid -->
     <g transform="translate(380.823125 116.653222)scale(0.1 -0.1)">
      <use xlink:href="#DejaVuSans-50"/>
      <use xlink:href="#DejaVuSans-6d" x="60.302734"/>
      <use xlink:href="#DejaVuSans-69" x="157.714844"/>
      <use xlink:href="#DejaVuSans-64" x="185.498047"/>
     </g>
    </g>
    <g id="line2d_28">
     <path d="M 352.823125 127.831347 
L 362.823125 127.831347 
L 372.823125 127.831347 
" style="fill: none; stroke: #2ca02c; stroke-width: 1.5; stroke-linecap: square"/>
    </g>
    <g id="text_13">
     <!-- PN -->
     <g transform="translate(380.823125 131.331347)scale(0.1 -0.1)">
      <use xlink:href="#DejaVuSans-50"/>
      <use xlink:href="#DejaVuSans-4e" x="60.302734"/>
     </g>
    </g>
   </g>
  </g>
  <g id="axes_3">
   <g id="patch_14">
    <path d="M 57.6 197.46869 
L 414.72 197.46869 
L 414.72 151.58731 
L 57.6 151.58731 
z
" style="fill: #ffffff"/>
   </g>
   <g id="matplotlib.axis_5">
    <g id="xtick_13">
     <g id="line2d_29">
      <g>
       <use xlink:href="#m09316b1810" x="73.832727" y="197.46869" style="stroke: #000000; stroke-width: 0.8"/>
      </g>
     </g>
    </g>
    <g id="xtick_14">
     <g id="line2d_30">
      <g>
       <use xlink:href="#m09316b1810" x="138.763636" y="197.46869" style="stroke: #000000; stroke-width: 0.8"/>
      </g>
     </g>
    </g>
    <g id="xtick_15">
     <g id="line2d_31">
      <g>
       <use xlink:href="#m09316b1810" x="203.694545" y="197.46869" style="stroke: #000000; stroke-width: 0.8"/>
      </g>
     </g>
    </g>
    <g id="xtick_16">
     <g id="line2d_32">
      <g>
       <use xlink:href="#m09316b1810" x="268.625455" y="197.46869" style="stroke: #000000; stroke-width: 0.8"/>
      </g>
     </g>
    </g>
    <g id="xtick_17">
     <g id="line2d_33">
      <g>
       <use xlink:href="#m09316b1810" x="333.556364" y="197.46869" style="stroke: #000000; stroke-width: 0.8"/>
      </g>
     </g>
    </g>
    <g id="xtick_18">
     <g id="line2d_34">
      <g>
       <use xlink:href="#m09316b1810" x="398.487273" y="197.46869" style="stroke: #000000; stroke-width: 0.8"/>
      </g>
     </g>
    </g>
   </g>
   <g id="matplotlib.axis_6">
    <g id="ytick_5">
     <g id="line2d_35">
      <g>
       <use xlink:href="#m4c01103a5a" x="57.6" y="181.845403" style="stroke: #000000; stroke-width: 0.8"/>
      </g>
     </g>
     <g id="text_14">
      <!-- 0.04 -->
      <g transform="translate(28.334375 185.644622)scale(0.1 -0.1)">
       <defs>
        <path id="DejaVuSans-34" d="M 2419 4116 
L 825 1625 
L 2419 1625 
L 2419 4116 
z
M 2253 4666 
L 3047 4666 
L 3047 1625 
L 3713 1625 
L 3713 1100 
L 3047 1100 
L 3047 0 
L 2419 0 
L 2419 1100 
L 313 1100 
L 313 1709 
L 2253 4666 
z
" transform="scale(0.015625)"/>
       </defs>
       <use xlink:href="#DejaVuSans-30"/>
       <use xlink:href="#DejaVuSans-2e" x="63.623047"/>
       <use xlink:href="#DejaVuSans-30" x="95.410156"/>
       <use xlink:href="#DejaVuSans-34" x="159.033203"/>
      </g>
     </g>
    </g>
    <g id="ytick_6">
     <g id="line2d_36">
      <g>
       <use xlink:href="#m4c01103a5a" x="57.6" y="153.609167" style="stroke: #000000; stroke-width: 0.8"/>
      </g>
     </g>
     <g id="text_15">
      <!-- 0.06 -->
      <g transform="translate(28.334375 157.408386)scale(0.1 -0.1)">
       <defs>
        <path id="DejaVuSans-36" d="M 2113 2584 
Q 1688 2584 1439 2293 
Q 1191 2003 1191 1497 
Q 1191 994 1439 701 
Q 1688 409 2113 409 
Q 2538 409 2786 701 
Q 3034 994 3034 1497 
Q 3034 2003 2786 2293 
Q 2538 2584 2113 2584 
z
M 3366 4563 
L 3366 3988 
Q 3128 4100 2886 4159 
Q 2644 4219 2406 4219 
Q 1781 4219 1451 3797 
Q 1122 3375 1075 2522 
Q 1259 2794 1537 2939 
Q 1816 3084 2150 3084 
Q 2853 3084 3261 2657 
Q 3669 2231 3669 1497 
Q 3669 778 3244 343 
Q 2819 -91 2113 -91 
Q 1303 -91 875 529 
Q 447 1150 447 2328 
Q 447 3434 972 4092 
Q 1497 4750 2381 4750 
Q 2619 4750 2861 4703 
Q 3103 4656 3366 4563 
z
" transform="scale(0.015625)"/>
       </defs>
       <use xlink:href="#DejaVuSans-30"/>
       <use xlink:href="#DejaVuSans-2e" x="63.623047"/>
       <use xlink:href="#DejaVuSans-30" x="95.410156"/>
       <use xlink:href="#DejaVuSans-36" x="159.033203"/>
      </g>
     </g>
    </g>
    <g id="text_16">
     <!-- fraction -->
     <g transform="translate(22.254687 193.73425)rotate(-90)scale(0.1 -0.1)">
      <use xlink:href="#DejaVuSans-66"/>
      <use xlink:href="#DejaVuSans-72" x="35.205078"/>
      <use xlink:href="#DejaVuSans-61" x="76.318359"/>
      <use xlink:href="#DejaVuSans-63" x="137.597656"/>
      <use xlink:href="#DejaVuSans-74" x="192.578125"/>
      <use xlink:href="#DejaVuSans-69" x="231.787109"/>
      <use xlink:href="#DejaVuSans-6f" x="259.570312"/>
      <use xlink:href="#DejaVuSans-6e" x="320.751953"/>
     </g>
    </g>
   </g>
   <g id="line2d_37">
    <path d="M 73.832727 193.517257 
L 77.079273 167.089575 
L 80.325818 167.041902 
L 83.572364 166.963726 
L 86.818909 167.027374 
L 90.065455 166.913215 
L 93.312 166.957555 
L 96.558545 166.962305 
L 99.805091 166.957842 
L 103.051636 167.008481 
L 106.298182 166.699965 
L 109.544727 166.755549 
L 112.791273 166.751027 
L 116.037818 166.757904 
L 119.284364 166.760426 
L 122.530909 166.765557 
L 125.777455 167.69713 
L 129.024 167.71049 
L 132.270545 167.718035 
L 135.517091 167.722258 
L 138.763636 167.724655 
L 142.010182 167.725934 
L 145.256727 167.726547 
L 148.503273 167.726809 
L 151.749818 167.726884 
L 154.996364 167.726928 
L 158.242909 167.727003 
L 161.489455 167.727079 
L 164.736 167.727148 
L 167.982545 167.727207 
L 171.229091 167.727244 
L 174.475636 167.818534 
L 177.722182 168.053113 
L 180.968727 168.401331 
L 184.215273 168.836302 
L 187.461818 169.304766 
L 190.708364 169.741776 
L 193.954909 170.109778 
L 197.201455 170.388235 
L 200.448 170.588261 
L 203.694545 170.720344 
L 206.941091 170.801563 
L 210.187636 170.858615 
L 213.434182 170.893777 
L 216.680727 170.914578 
L 219.927273 170.927348 
L 223.173818 170.935373 
L 226.420364 170.940182 
L 229.666909 170.943066 
L 232.913455 170.944941 
L 236.16 170.945911 
L 239.406545 170.946616 
L 242.653091 170.947143 
L 245.899636 170.947206 
L 249.146182 170.94726 
L 252.392727 170.947307 
L 255.639273 170.947354 
L 258.885818 170.9474 
L 262.132364 170.947447 
L 265.378909 170.947475 
L 268.625455 170.947679 
L 271.872 172.813208 
L 275.118545 175.424826 
L 278.365091 178.46074 
L 281.611636 181.518861 
L 284.858182 184.282092 
L 288.104727 186.537406 
L 291.351273 188.298975 
L 294.597818 189.591331 
L 297.844364 190.519165 
L 301.090909 191.177678 
L 304.337455 191.64276 
L 307.584 191.970373 
L 310.830545 192.194223 
L 314.077091 192.372154 
L 317.323636 192.506706 
L 320.570182 192.615393 
L 323.816727 192.699916 
L 327.063273 192.772673 
L 330.309818 192.83703 
L 333.556364 192.89643 
L 336.802909 192.950198 
L 340.049455 192.99808 
L 343.296 193.042909 
L 346.542545 193.085469 
L 349.789091 193.124273 
L 353.035636 193.16117 
L 356.282182 193.195788 
L 359.528727 193.229311 
L 362.775273 193.261119 
L 366.021818 193.290521 
L 369.268364 193.318003 
L 372.514909 193.343872 
L 375.761455 193.368135 
L 379.008 193.391034 
L 382.254545 193.412615 
L 385.501091 193.432993 
L 388.747636 193.452246 
L 391.994182 193.470302 
L 395.240727 193.487311 
L 398.487273 193.503346 
" clip-path="url(#p1ddfe04424)" style="fill: none; stroke: #1f77b4; stroke-width: 1.5; stroke-linecap: square"/>
   </g>
   <g id="line2d_38">
    <path d="M 73.832727 195.360898 
L 77.079273 154.769724 
L 80.325818 153.861061 
L 83.572364 153.709995 
L 86.818909 153.672828 
L 90.065455 153.677028 
L 93.312 153.696595 
L 96.558545 153.722178 
L 99.805091 153.750423 
L 103.051636 153.779529 
L 106.298182 153.809647 
L 109.544727 153.839618 
L 112.791273 153.869188 
L 116.037818 153.898054 
L 119.284364 153.926328 
L 122.530909 153.953752 
L 125.777455 162.713194 
L 129.024 164.59354 
L 132.270545 165.684807 
L 135.517091 166.404876 
L 138.763636 166.886847 
L 142.010182 167.198403 
L 145.256727 167.391579 
L 148.503273 167.507164 
L 151.749818 167.573994 
L 154.996364 167.616037 
L 158.242909 167.647104 
L 161.489455 167.669784 
L 164.736 167.686272 
L 167.982545 167.699441 
L 171.229091 167.708786 
L 174.475636 167.791401 
L 177.722182 168.026688 
L 180.968727 168.376836 
L 184.215273 168.814206 
L 187.461818 169.285358 
L 190.708364 169.724247 
L 193.954909 170.093267 
L 197.201455 170.37172 
L 200.448 170.571027 
L 203.694545 170.701115 
L 206.941091 170.781644 
L 210.187636 170.837493 
L 213.434182 170.871768 
L 216.680727 170.89181 
L 219.927273 170.904192 
L 223.173818 170.911946 
L 226.420364 170.91658 
L 229.666909 170.919367 
L 232.913455 170.921187 
L 236.16 170.922133 
L 239.406545 170.922832 
L 242.653091 170.923364 
L 245.899636 170.923453 
L 249.146182 170.923533 
L 252.392727 170.923604 
L 255.639273 170.923675 
L 258.885818 170.923746 
L 262.132364 170.923818 
L 265.378909 170.923869 
L 268.625455 170.923944 
L 271.872 172.677497 
L 275.118545 175.010846 
L 278.365091 177.401456 
L 281.611636 179.498682 
L 284.858182 181.246278 
L 288.104727 182.706538 
L 291.351273 183.964051 
L 294.597818 185.063977 
L 297.844364 186.03625 
L 301.090909 186.901768 
L 304.337455 187.678265 
L 307.584 188.379261 
L 310.830545 188.98783 
L 314.077091 189.565283 
L 317.323636 190.068955 
L 320.570182 190.544998 
L 323.816727 190.981858 
L 327.063273 191.381178 
L 330.309818 191.746016 
L 333.556364 192.083275 
L 336.802909 192.392969 
L 340.049455 192.677384 
L 343.296 192.941272 
L 346.542545 193.186307 
L 349.789091 193.410246 
L 353.035636 193.616819 
L 356.282182 193.807465 
L 359.528727 193.985124 
L 362.775273 194.15066 
L 366.021818 194.304867 
L 369.268364 194.449153 
L 372.514909 194.583104 
L 375.761455 194.708017 
L 379.008 194.824507 
L 382.254545 194.933398 
L 385.501091 195.035439 
L 388.747636 195.131199 
L 391.994182 195.220528 
L 395.240727 195.304337 
L 398.487273 195.383172 
" clip-path="url(#p1ddfe04424)" style="fill: none; stroke: #ff7f0e; stroke-width: 1.5; stroke-linecap: square"/>
   </g>
   <g id="patch_15">
    <path d="M 57.6 197.46869 
L 57.6 151.58731 
" style="fill: none; stroke: #000000; stroke-width: 0.8; stroke-linejoin: miter; stroke-linecap: square"/>
   </g>
   <g id="patch_16">
    <path d="M 414.72 197.46869 
L 414.72 151.58731 
" style="fill: none; stroke: #000000; stroke-width: 0.8; stroke-linejoin: miter; stroke-linecap: square"/>
   </g>
   <g id="patch_17">
    <path d="M 57.6 197.46869 
L 414.72 197.46869 
" style="fill: none; stroke: #000000; stroke-width: 0.8; stroke-linejoin: miter; stroke-linecap: square"/>
   </g>
   <g id="patch_18">
    <path d="M 57.6 151.58731 
L 414.72 151.58731 
" style="fill: none; stroke: #000000; stroke-width: 0.8; stroke-linejoin: miter; stroke-linecap: square"/>
   </g>
   <g id="text_17">
    <!-- yA -->
    <g transform="translate(228.504375 145.58731)scale(0.12 -0.12)">
     <defs>
      <path id="DejaVuSans-41" d="M 2188 4044 
L 1331 1722 
L 3047 1722 
L 2188 4044 
z
M 1831 4666 
L 2547 4666 
L 4325 0 
L 3669 0 
L 3244 1197 
L 1141 1197 
L 716 0 
L 50 0 
L 1831 4666 
z
" transform="scale(0.015625)"/>
     </defs>
     <use xlink:href="#DejaVuSans-79"/>
     <use xlink:href="#DejaVuSans-41" x="59.179688"/>
    </g>
   </g>
   <g id="legend_3">
    <g id="patch_19">
     <path d="M 330.030938 188.94356 
L 407.72 188.94356 
Q 409.72 188.94356 409.72 186.94356 
L 409.72 158.58731 
Q 409.72 156.58731 407.72 156.58731 
L 330.030938 156.58731 
Q 328.030938 156.58731 328.030938 158.58731 
L 328.030938 186.94356 
Q 328.030938 188.94356 330.030938 188.94356 
z
" style="fill: #ffffff; opacity: 0.8; stroke: #cccccc; stroke-linejoin: miter"/>
    </g>
    <g id="line2d_39">
     <path d="M 332.030938 164.685748 
L 342.030938 164.685748 
L 352.030938 164.685748 
" style="fill: none; stroke: #1f77b4; stroke-width: 1.5; stroke-linecap: square"/>
    </g>
    <g id="text_18">
     <!-- yA0 (in) -->
     <g transform="translate(360.030938 168.185748)scale(0.1 -0.1)">
      <use xlink:href="#DejaVuSans-79"/>
      <use xlink:href="#DejaVuSans-41" x="59.179688"/>
      <use xlink:href="#DejaVuSans-30" x="127.587891"/>
      <use xlink:href="#DejaVuSans-20" x="191.210938"/>
      <use xlink:href="#DejaVuSans-28" x="222.998047"/>
      <use xlink:href="#DejaVuSans-69" x="262.011719"/>
      <use xlink:href="#DejaVuSans-6e" x="289.794922"/>
      <use xlink:href="#DejaVuSans-29" x="353.173828"/>
     </g>
    </g>
    <g id="line2d_40">
     <path d="M 332.030938 179.363873 
L 342.030938 179.363873 
L 352.030938 179.363873 
" style="fill: none; stroke: #ff7f0e; stroke-width: 1.5; stroke-linecap: square"/>
    </g>
    <g id="text_19">
     <!-- yAL (out) -->
     <g transform="translate(360.030938 182.863873)scale(0.1 -0.1)">
      <defs>
       <path id="DejaVuSans-4c" d="M 628 4666 
L 1259 4666 
L 1259 531 
L 3531 531 
L 3531 0 
L 628 0 
L 628 4666 
z
" transform="scale(0.015625)"/>
      </defs>
      <use xlink:href="#DejaVuSans-79"/>
      <use xlink:href="#DejaVuSans-41" x="59.179688"/>
      <use xlink:href="#DejaVuSans-4c" x="127.587891"/>
      <use xlink:href="#DejaVuSans-20" x="183.300781"/>
      <use xlink:href="#DejaVuSans-28" x="215.087891"/>
      <use xlink:href="#DejaVuSans-6f" x="254.101562"/>
      <use xlink:href="#DejaVuSans-75" x="315.283203"/>
      <use xlink:href="#DejaVuSans-74" x="378.662109"/>
      <use xlink:href="#DejaVuSans-29" x="417.871094"/>
     </g>
    </g>
   </g>
  </g>
  <g id="axes_4">
   <g id="patch_20">
    <path d="M 57.6 252.526345 
L 414.72 252.526345 
L 414.72 206.644966 
L 57.6 206.644966 
z
" style="fill: #ffffff"/>
   </g>
   <g id="matplotlib.axis_7">
    <g id="xtick_19">
     <g id="line2d_41">
      <g>
       <use xlink:href="#m09316b1810" x="73.832727" y="252.526345" style="stroke: #000000; stroke-width: 0.8"/>
      </g>
     </g>
    </g>
    <g id="xtick_20">
     <g id="line2d_42">
      <g>
       <use xlink:href="#m09316b1810" x="138.763636" y="252.526345" style="stroke: #000000; stroke-width: 0.8"/>
      </g>
     </g>
    </g>
    <g id="xtick_21">
     <g id="line2d_43">
      <g>
       <use xlink:href="#m09316b1810" x="203.694545" y="252.526345" style="stroke: #000000; stroke-width: 0.8"/>
      </g>
     </g>
    </g>
    <g id="xtick_22">
     <g id="line2d_44">
      <g>
       <use xlink:href="#m09316b1810" x="268.625455" y="252.526345" style="stroke: #000000; stroke-width: 0.8"/>
      </g>
     </g>
    </g>
    <g id="xtick_23">
     <g id="line2d_45">
      <g>
       <use xlink:href="#m09316b1810" x="333.556364" y="252.526345" style="stroke: #000000; stroke-width: 0.8"/>
      </g>
     </g>
    </g>
    <g id="xtick_24">
     <g id="line2d_46">
      <g>
       <use xlink:href="#m09316b1810" x="398.487273" y="252.526345" style="stroke: #000000; stroke-width: 0.8"/>
      </g>
     </g>
    </g>
   </g>
   <g id="matplotlib.axis_8">
    <g id="ytick_7">
     <g id="line2d_47">
      <g>
       <use xlink:href="#m4c01103a5a" x="57.6" y="250.515685" style="stroke: #000000; stroke-width: 0.8"/>
      </g>
     </g>
     <g id="text_20">
      <!-- 0.89 -->
      <g transform="translate(28.334375 254.314904)scale(0.1 -0.1)">
       <defs>
        <path id="DejaVuSans-38" d="M 2034 2216 
Q 1584 2216 1326 1975 
Q 1069 1734 1069 1313 
Q 1069 891 1326 650 
Q 1584 409 2034 409 
Q 2484 409 2743 651 
Q 3003 894 3003 1313 
Q 3003 1734 2745 1975 
Q 2488 2216 2034 2216 
z
M 1403 2484 
Q 997 2584 770 2862 
Q 544 3141 544 3541 
Q 544 4100 942 4425 
Q 1341 4750 2034 4750 
Q 2731 4750 3128 4425 
Q 3525 4100 3525 3541 
Q 3525 3141 3298 2862 
Q 3072 2584 2669 2484 
Q 3125 2378 3379 2068 
Q 3634 1759 3634 1313 
Q 3634 634 3220 271 
Q 2806 -91 2034 -91 
Q 1263 -91 848 271 
Q 434 634 434 1313 
Q 434 1759 690 2068 
Q 947 2378 1403 2484 
z
M 1172 3481 
Q 1172 3119 1398 2916 
Q 1625 2713 2034 2713 
Q 2441 2713 2670 2916 
Q 2900 3119 2900 3481 
Q 2900 3844 2670 4047 
Q 2441 4250 2034 4250 
Q 1625 4250 1398 4047 
Q 1172 3844 1172 3481 
z
" transform="scale(0.015625)"/>
        <path id="DejaVuSans-39" d="M 703 97 
L 703 672 
Q 941 559 1184 500 
Q 1428 441 1663 441 
Q 2288 441 2617 861 
Q 2947 1281 2994 2138 
Q 2813 1869 2534 1725 
Q 2256 1581 1919 1581 
Q 1219 1581 811 2004 
Q 403 2428 403 3163 
Q 403 3881 828 4315 
Q 1253 4750 1959 4750 
Q 2769 4750 3195 4129 
Q 3622 3509 3622 2328 
Q 3622 1225 3098 567 
Q 2575 -91 1691 -91 
Q 1453 -91 1209 -44 
Q 966 3 703 97 
z
M 1959 2075 
Q 2384 2075 2632 2365 
Q 2881 2656 2881 3163 
Q 2881 3666 2632 3958 
Q 2384 4250 1959 4250 
Q 1534 4250 1286 3958 
Q 1038 3666 1038 3163 
Q 1038 2656 1286 2365 
Q 1534 2075 1959 2075 
z
" transform="scale(0.015625)"/>
       </defs>
       <use xlink:href="#DejaVuSans-30"/>
       <use xlink:href="#DejaVuSans-2e" x="63.623047"/>
       <use xlink:href="#DejaVuSans-38" x="95.410156"/>
       <use xlink:href="#DejaVuSans-39" x="159.033203"/>
      </g>
     </g>
    </g>
    <g id="ytick_8">
     <g id="line2d_48">
      <g>
       <use xlink:href="#m4c01103a5a" x="57.6" y="234.46407" style="stroke: #000000; stroke-width: 0.8"/>
      </g>
     </g>
     <g id="text_21">
      <!-- 0.90 -->
      <g transform="translate(28.334375 238.263289)scale(0.1 -0.1)">
       <use xlink:href="#DejaVuSans-30"/>
       <use xlink:href="#DejaVuSans-2e" x="63.623047"/>
       <use xlink:href="#DejaVuSans-39" x="95.410156"/>
       <use xlink:href="#DejaVuSans-30" x="159.033203"/>
      </g>
     </g>
    </g>
    <g id="ytick_9">
     <g id="line2d_49">
      <g>
       <use xlink:href="#m4c01103a5a" x="57.6" y="218.412455" style="stroke: #000000; stroke-width: 0.8"/>
      </g>
     </g>
     <g id="text_22">
      <!-- 0.91 -->
      <g transform="translate(28.334375 222.211673)scale(0.1 -0.1)">
       <use xlink:href="#DejaVuSans-30"/>
       <use xlink:href="#DejaVuSans-2e" x="63.623047"/>
       <use xlink:href="#DejaVuSans-39" x="95.410156"/>
       <use xlink:href="#DejaVuSans-31" x="159.033203"/>
      </g>
     </g>
    </g>
    <g id="text_23">
     <!-- fraction -->
     <g transform="translate(22.254687 248.791905)rotate(-90)scale(0.1 -0.1)">
      <use xlink:href="#DejaVuSans-66"/>
      <use xlink:href="#DejaVuSans-72" x="35.205078"/>
      <use xlink:href="#DejaVuSans-61" x="76.318359"/>
      <use xlink:href="#DejaVuSans-63" x="137.597656"/>
      <use xlink:href="#DejaVuSans-74" x="192.578125"/>
      <use xlink:href="#DejaVuSans-69" x="231.787109"/>
      <use xlink:href="#DejaVuSans-6f" x="259.570312"/>
      <use xlink:href="#DejaVuSans-6e" x="320.751953"/>
     </g>
    </g>
   </g>
   <g id="line2d_50">
    <path d="M 73.832727 210.981533 
L 77.079273 235.065026 
L 80.325818 235.09261 
L 83.572364 235.15827 
L 86.818909 235.088633 
L 90.065455 235.379037 
L 93.312 235.176829 
L 96.558545 235.157892 
L 99.805091 235.157714 
L 103.051636 235.079588 
L 106.298182 235.480974 
L 109.544727 235.390427 
L 112.791273 235.395648 
L 116.037818 235.38655 
L 119.284364 235.383157 
L 122.530909 235.377609 
L 125.777455 234.459215 
L 129.024 234.456111 
L 132.270545 234.455901 
L 135.517091 234.456896 
L 138.763636 234.458222 
L 142.010182 234.459549 
L 145.256727 234.460719 
L 148.503273 234.461655 
L 151.749818 234.462381 
L 154.996364 234.462893 
L 158.242909 234.46323 
L 161.489455 234.463457 
L 164.736 234.463609 
L 167.982545 234.463717 
L 171.229091 234.463801 
L 174.475636 234.388545 
L 177.722182 234.170497 
L 180.968727 233.840489 
L 184.215273 233.42556 
L 187.461818 232.97779 
L 190.708364 232.556243 
L 193.954909 232.203159 
L 197.201455 231.935856 
L 200.448 231.743918 
L 203.694545 231.61685 
L 206.941091 231.53899 
L 210.187636 231.484174 
L 213.434182 231.450365 
L 216.680727 231.430323 
L 219.927273 231.418079 
L 223.173818 231.410372 
L 226.420364 231.405747 
L 229.666909 231.402977 
L 232.913455 231.401174 
L 236.16 231.40024 
L 239.406545 231.399562 
L 242.653091 231.399055 
L 245.899636 231.398995 
L 249.146182 231.398942 
L 252.392727 231.398896 
L 255.639273 231.398851 
L 258.885818 231.398805 
L 262.132364 231.398759 
L 265.378909 231.398732 
L 268.625455 231.398664 
L 271.872 229.635806 
L 275.118545 227.16533 
L 278.365091 224.335089 
L 281.611636 221.5417 
L 284.858182 219.076642 
L 288.104727 217.10837 
L 291.351273 215.591135 
L 294.597818 214.488894 
L 297.844364 213.699719 
L 301.090909 213.139472 
L 304.337455 212.741983 
L 307.584 212.459593 
L 310.830545 212.262485 
L 314.077091 212.105975 
L 317.323636 211.98413 
L 320.570182 211.88463 
L 323.816727 211.805727 
L 327.063273 211.736651 
L 330.309818 211.674594 
L 333.556364 211.6167 
L 336.802909 211.563641 
L 340.049455 211.515896 
L 343.296 211.470949 
L 346.542545 211.428128 
L 349.789091 211.388725 
L 353.035636 211.351156 
L 356.282182 211.315748 
L 359.528727 211.281493 
L 362.775273 211.248969 
L 366.021818 211.218814 
L 369.268364 211.190604 
L 372.514909 211.164021 
L 375.761455 211.139075 
L 379.008 211.115487 
L 382.254545 211.093236 
L 385.501091 211.072211 
L 388.747636 211.052334 
L 391.994182 211.033675 
L 395.240727 211.016089 
L 398.487273 210.999504 
" clip-path="url(#p2a06567260)" style="fill: none; stroke: #1f77b4; stroke-width: 1.5; stroke-linecap: square"/>
   </g>
   <g id="line2d_51">
    <path d="M 73.832727 209.826966 
L 77.079273 249.32795 
L 80.325818 250.261883 
L 83.572364 250.408891 
L 86.818909 250.440828 
L 90.065455 250.431146 
L 93.312 250.406238 
L 96.558545 250.375652 
L 99.805091 250.342625 
L 103.051636 250.308953 
L 106.298182 250.274318 
L 109.544727 250.239959 
L 112.791273 250.206094 
L 116.037818 250.17305 
L 119.284364 250.140683 
L 122.530909 250.109643 
L 125.777455 240.28297 
L 129.024 238.153255 
L 132.270545 236.891801 
L 135.517091 236.044589 
L 138.763636 235.465911 
L 142.010182 235.081291 
L 145.256727 234.833283 
L 148.503273 234.676695 
L 151.749818 234.579227 
L 154.996364 234.514018 
L 158.242909 234.465306 
L 161.489455 234.429631 
L 164.736 234.404163 
L 167.982545 234.385215 
L 171.229091 234.372853 
L 174.475636 234.31002 
L 177.722182 234.090892 
L 180.968727 233.758599 
L 184.215273 233.340951 
L 187.461818 232.890126 
L 190.708364 232.46678 
L 193.954909 232.112449 
L 197.201455 231.844951 
L 200.448 231.653553 
L 203.694545 231.528297 
L 206.941091 231.451064 
L 210.187636 231.397331 
L 213.434182 231.36434 
L 216.680727 231.345004 
L 219.927273 231.333116 
L 223.173818 231.325654 
L 226.420364 231.321186 
L 229.666909 231.318497 
L 232.913455 231.316738 
L 236.16 231.315817 
L 239.406545 231.315134 
L 242.653091 231.314614 
L 245.899636 231.314519 
L 249.146182 231.314432 
L 252.392727 231.314354 
L 255.639273 231.314276 
L 258.885818 231.314198 
L 262.132364 231.31412 
L 265.378909 231.31406 
L 268.625455 231.314007 
L 271.872 229.655077 
L 275.118545 227.438343 
L 278.365091 225.183202 
L 281.611636 223.217859 
L 284.858182 221.589607 
L 288.104727 220.235238 
L 291.351273 219.073129 
L 294.597818 218.059898 
L 297.844364 217.166804 
L 301.090909 216.373991 
L 304.337455 215.664545 
L 307.584 215.025746 
L 310.830545 214.470438 
L 314.077091 213.947648 
L 317.323636 213.491558 
L 320.570182 213.060865 
L 323.816727 212.666221 
L 327.063273 212.306056 
L 330.309818 211.977428 
L 333.556364 211.67411 
L 336.802909 211.395978 
L 340.049455 211.14067 
L 343.296 210.904243 
L 346.542545 210.685183 
L 349.789091 210.484965 
L 353.035636 210.300348 
L 356.282182 210.130216 
L 359.528727 209.971934 
L 362.775273 209.824596 
L 366.021818 209.687368 
L 369.268364 209.559009 
L 372.514909 209.439945 
L 375.761455 209.328972 
L 379.008 209.225565 
L 382.254545 209.128961 
L 385.501091 209.03848 
L 388.747636 208.953607 
L 391.994182 208.874479 
L 395.240727 208.800268 
L 398.487273 208.730483 
" clip-path="url(#p2a06567260)" style="fill: none; stroke: #ff7f0e; stroke-width: 1.5; stroke-linecap: square"/>
   </g>
   <g id="patch_21">
    <path d="M 57.6 252.526345 
L 57.6 206.644966 
" style="fill: none; stroke: #000000; stroke-width: 0.8; stroke-linejoin: miter; stroke-linecap: square"/>
   </g>
   <g id="patch_22">
    <path d="M 414.72 252.526345 
L 414.72 206.644966 
" style="fill: none; stroke: #000000; stroke-width: 0.8; stroke-linejoin: miter; stroke-linecap: square"/>
   </g>
   <g id="patch_23">
    <path d="M 57.6 252.526345 
L 414.72 252.526345 
" style="fill: none; stroke: #000000; stroke-width: 0.8; stroke-linejoin: miter; stroke-linecap: square"/>
   </g>
   <g id="patch_24">
    <path d="M 57.6 206.644966 
L 414.72 206.644966 
" style="fill: none; stroke: #000000; stroke-width: 0.8; stroke-linejoin: miter; stroke-linecap: square"/>
   </g>
   <g id="text_24">
    <!-- yB -->
    <g transform="translate(228.492188 200.644966)scale(0.12 -0.12)">
     <defs>
      <path id="DejaVuSans-42" d="M 1259 2228 
L 1259 519 
L 2272 519 
Q 2781 519 3026 730 
Q 3272 941 3272 1375 
Q 3272 1813 3026 2020 
Q 2781 2228 2272 2228 
L 1259 2228 
z
M 1259 4147 
L 1259 2741 
L 2194 2741 
Q 2656 2741 2882 2914 
Q 3109 3088 3109 3444 
Q 3109 3797 2882 3972 
Q 2656 4147 2194 4147 
L 1259 4147 
z
M 628 4666 
L 2241 4666 
Q 2963 4666 3353 4366 
Q 3744 4066 3744 3513 
Q 3744 3084 3544 2831 
Q 3344 2578 2956 2516 
Q 3422 2416 3680 2098 
Q 3938 1781 3938 1306 
Q 3938 681 3513 340 
Q 3088 0 2303 0 
L 628 0 
L 628 4666 
z
" transform="scale(0.015625)"/>
     </defs>
     <use xlink:href="#DejaVuSans-79"/>
     <use xlink:href="#DejaVuSans-42" x="59.179688"/>
    </g>
   </g>
   <g id="legend_4">
    <g id="patch_25">
     <path d="M 330.010625 247.526345 
L 407.72 247.526345 
Q 409.72 247.526345 409.72 245.526345 
L 409.72 217.170095 
Q 409.72 215.170095 407.72 215.170095 
L 330.010625 215.170095 
Q 328.010625 215.170095 328.010625 217.170095 
L 328.010625 245.526345 
Q 328.010625 247.526345 330.010625 247.526345 
z
" style="fill: #ffffff; opacity: 0.8; stroke: #cccccc; stroke-linejoin: miter"/>
    </g>
    <g id="line2d_52">
     <path d="M 332.010625 223.268532 
L 342.010625 223.268532 
L 352.010625 223.268532 
" style="fill: none; stroke: #1f77b4; stroke-width: 1.5; stroke-linecap: square"/>
    </g>
    <g id="text_25">
     <!-- yB0 (in) -->
     <g transform="translate(360.010625 226.768532)scale(0.1 -0.1)">
      <use xlink:href="#DejaVuSans-79"/>
      <use xlink:href="#DejaVuSans-42" x="59.179688"/>
      <use xlink:href="#DejaVuSans-30" x="127.783203"/>
      <use xlink:href="#DejaVuSans-20" x="191.40625"/>
      <use xlink:href="#DejaVuSans-28" x="223.193359"/>
      <use xlink:href="#DejaVuSans-69" x="262.207031"/>
      <use xlink:href="#DejaVuSans-6e" x="289.990234"/>
      <use xlink:href="#DejaVuSans-29" x="353.369141"/>
     </g>
    </g>
    <g id="line2d_53">
     <path d="M 332.010625 237.946657 
L 342.010625 237.946657 
L 352.010625 237.946657 
" style="fill: none; stroke: #ff7f0e; stroke-width: 1.5; stroke-linecap: square"/>
    </g>
    <g id="text_26">
     <!-- yBL (out) -->
     <g transform="translate(360.010625 241.446657)scale(0.1 -0.1)">
      <use xlink:href="#DejaVuSans-79"/>
      <use xlink:href="#DejaVuSans-42" x="59.179688"/>
      <use xlink:href="#DejaVuSans-4c" x="127.783203"/>
      <use xlink:href="#DejaVuSans-20" x="183.496094"/>
      <use xlink:href="#DejaVuSans-28" x="215.283203"/>
      <use xlink:href="#DejaVuSans-6f" x="254.296875"/>
      <use xlink:href="#DejaVuSans-75" x="315.478516"/>
      <use xlink:href="#DejaVuSans-74" x="378.857422"/>
      <use xlink:href="#DejaVuSans-29" x="418.066406"/>
     </g>
    </g>
   </g>
  </g>
  <g id="axes_5">
   <g id="patch_26">
    <path d="M 57.6 307.584 
L 414.72 307.584 
L 414.72 261.702621 
L 57.6 261.702621 
z
" style="fill: #ffffff"/>
   </g>
   <g id="matplotlib.axis_9">
    <g id="xtick_25">
     <g id="line2d_54">
      <g>
       <use xlink:href="#m09316b1810" x="73.832727" y="307.584" style="stroke: #000000; stroke-width: 0.8"/>
      </g>
     </g>
     <g id="text_27">
      <!-- 0 -->
      <g transform="translate(70.651477 322.182437)scale(0.1 -0.1)">
       <use xlink:href="#DejaVuSans-30"/>
      </g>
     </g>
    </g>
    <g id="xtick_26">
     <g id="line2d_55">
      <g>
       <use xlink:href="#m09316b1810" x="138.763636" y="307.584" style="stroke: #000000; stroke-width: 0.8"/>
      </g>
     </g>
     <g id="text_28">
      <!-- 20 -->
      <g transform="translate(132.401136 322.182437)scale(0.1 -0.1)">
       <use xlink:href="#DejaVuSans-32"/>
       <use xlink:href="#DejaVuSans-30" x="63.623047"/>
      </g>
     </g>
    </g>
    <g id="xtick_27">
     <g id="line2d_56">
      <g>
       <use xlink:href="#m09316b1810" x="203.694545" y="307.584" style="stroke: #000000; stroke-width: 0.8"/>
      </g>
     </g>
     <g id="text_29">
      <!-- 40 -->
      <g transform="translate(197.332045 322.182437)scale(0.1 -0.1)">
       <use xlink:href="#DejaVuSans-34"/>
       <use xlink:href="#DejaVuSans-30" x="63.623047"/>
      </g>
     </g>
    </g>
    <g id="xtick_28">
     <g id="line2d_57">
      <g>
       <use xlink:href="#m09316b1810" x="268.625455" y="307.584" style="stroke: #000000; stroke-width: 0.8"/>
      </g>
     </g>
     <g id="text_30">
      <!-- 60 -->
      <g transform="translate(262.262955 322.182437)scale(0.1 -0.1)">
       <use xlink:href="#DejaVuSans-36"/>
       <use xlink:href="#DejaVuSans-30" x="63.623047"/>
      </g>
     </g>
    </g>
    <g id="xtick_29">
     <g id="line2d_58">
      <g>
       <use xlink:href="#m09316b1810" x="333.556364" y="307.584" style="stroke: #000000; stroke-width: 0.8"/>
      </g>
     </g>
     <g id="text_31">
      <!-- 80 -->
      <g transform="translate(327.193864 322.182437)scale(0.1 -0.1)">
       <use xlink:href="#DejaVuSans-38"/>
       <use xlink:href="#DejaVuSans-30" x="63.623047"/>
      </g>
     </g>
    </g>
    <g id="xtick_30">
     <g id="line2d_59">
      <g>
       <use xlink:href="#m09316b1810" x="398.487273" y="307.584" style="stroke: #000000; stroke-width: 0.8"/>
      </g>
     </g>
     <g id="text_32">
      <!-- 100 -->
      <g transform="translate(388.943523 322.182437)scale(0.1 -0.1)">
       <use xlink:href="#DejaVuSans-31"/>
       <use xlink:href="#DejaVuSans-30" x="63.623047"/>
       <use xlink:href="#DejaVuSans-30" x="127.246094"/>
      </g>
     </g>
    </g>
    <g id="text_33">
     <!-- time (normalized) -->
     <g transform="translate(191.589687 335.860562)scale(0.1 -0.1)">
      <use xlink:href="#DejaVuSans-74"/>
      <use xlink:href="#DejaVuSans-69" x="39.208984"/>
      <use xlink:href="#DejaVuSans-6d" x="66.992188"/>
      <use xlink:href="#DejaVuSans-65" x="164.404297"/>
      <use xlink:href="#DejaVuSans-20" x="225.927734"/>
      <use xlink:href="#DejaVuSans-28" x="257.714844"/>
      <use xlink:href="#DejaVuSans-6e" x="296.728516"/>
      <use xlink:href="#DejaVuSans-6f" x="360.107422"/>
      <use xlink:href="#DejaVuSans-72" x="421.289062"/>
      <use xlink:href="#DejaVuSans-6d" x="460.652344"/>
      <use xlink:href="#DejaVuSans-61" x="558.064453"/>
      <use xlink:href="#DejaVuSans-6c" x="619.34375"/>
      <use xlink:href="#DejaVuSans-69" x="647.126953"/>
      <use xlink:href="#DejaVuSans-7a" x="674.910156"/>
      <use xlink:href="#DejaVuSans-65" x="727.400391"/>
      <use xlink:href="#DejaVuSans-64" x="788.923828"/>
      <use xlink:href="#DejaVuSans-29" x="852.400391"/>
     </g>
    </g>
   </g>
   <g id="matplotlib.axis_10">
    <g id="ytick_10">
     <g id="line2d_60">
      <g>
       <use xlink:href="#m4c01103a5a" x="57.6" y="304.293489" style="stroke: #000000; stroke-width: 0.8"/>
      </g>
     </g>
     <g id="text_34">
      <!-- 0.0500 -->
      <g transform="translate(15.609375 308.092708)scale(0.1 -0.1)">
       <use xlink:href="#DejaVuSans-30"/>
       <use xlink:href="#DejaVuSans-2e" x="63.623047"/>
       <use xlink:href="#DejaVuSans-30" x="95.410156"/>
       <use xlink:href="#DejaVuSans-35" x="159.033203"/>
       <use xlink:href="#DejaVuSans-30" x="222.65625"/>
       <use xlink:href="#DejaVuSans-30" x="286.279297"/>
      </g>
     </g>
    </g>
    <g id="ytick_11">
     <g id="line2d_61">
      <g>
       <use xlink:href="#m4c01103a5a" x="57.6" y="280.322876" style="stroke: #000000; stroke-width: 0.8"/>
      </g>
     </g>
     <g id="text_35">
      <!-- 0.0525 -->
      <g transform="translate(15.609375 284.122094)scale(0.1 -0.1)">
       <use xlink:href="#DejaVuSans-30"/>
       <use xlink:href="#DejaVuSans-2e" x="63.623047"/>
       <use xlink:href="#DejaVuSans-30" x="95.410156"/>
       <use xlink:href="#DejaVuSans-35" x="159.033203"/>
       <use xlink:href="#DejaVuSans-32" x="222.65625"/>
       <use xlink:href="#DejaVuSans-35" x="286.279297"/>
      </g>
     </g>
    </g>
    <g id="text_36">
     <!-- fraction -->
     <g transform="translate(9.529687 303.84956)rotate(-90)scale(0.1 -0.1)">
      <use xlink:href="#DejaVuSans-66"/>
      <use xlink:href="#DejaVuSans-72" x="35.205078"/>
      <use xlink:href="#DejaVuSans-61" x="76.318359"/>
      <use xlink:href="#DejaVuSans-63" x="137.597656"/>
      <use xlink:href="#DejaVuSans-74" x="192.578125"/>
      <use xlink:href="#DejaVuSans-69" x="231.787109"/>
      <use xlink:href="#DejaVuSans-6f" x="259.570312"/>
      <use xlink:href="#DejaVuSans-6e" x="320.751953"/>
     </g>
    </g>
   </g>
   <g id="line2d_62">
    <path d="M 73.832727 269.412454 
L 77.079273 305.034716 
L 80.325818 305.193725 
L 83.572364 305.33244 
L 86.818909 305.316139 
L 90.065455 304.356751 
L 93.312 305.263487 
L 96.558545 305.344346 
L 99.805091 305.375717 
L 103.051636 305.498483 
L 106.298182 305.196117 
L 109.544727 305.359495 
L 112.791273 305.359016 
L 116.037818 305.366658 
L 119.284364 305.3698 
L 122.530909 305.368093 
L 125.777455 304.527286 
L 129.024 304.455097 
L 132.270545 304.405107 
L 135.517091 304.370484 
L 138.763636 304.346281 
L 142.010182 304.329668 
L 145.256727 304.318519 
L 148.503273 304.311148 
L 151.749818 304.306303 
L 154.996364 304.302941 
L 158.242909 304.30042 
L 161.489455 304.298546 
L 164.736 304.297177 
L 167.982545 304.29613 
L 171.229091 304.295378 
L 174.475636 304.124916 
L 177.722182 303.83427 
L 180.968727 303.440625 
L 184.215273 302.965076 
L 187.461818 302.458228 
L 190.708364 302.008365 
L 193.954909 301.618203 
L 197.201455 301.323781 
L 200.448 301.111833 
L 203.694545 300.973828 
L 206.941091 300.887315 
L 210.187636 300.827288 
L 213.434182 300.790439 
L 216.680727 300.768891 
L 219.927273 300.755303 
L 223.173818 300.746843 
L 226.420364 300.741801 
L 229.666909 300.738767 
L 232.913455 300.7368 
L 236.16 300.735793 
L 239.406545 300.735055 
L 242.653091 300.734498 
L 245.899636 300.734435 
L 249.146182 300.734382 
L 252.392727 300.734338 
L 255.639273 300.734294 
L 258.885818 300.73425 
L 262.132364 300.734206 
L 265.378909 300.734183 
L 268.625455 300.733197 
L 271.872 298.593786 
L 275.118545 295.614219 
L 278.365091 291.902079 
L 281.611636 287.818996 
L 284.858182 283.777394 
L 288.104727 280.217795 
L 291.351273 277.31722 
L 294.597818 275.124356 
L 297.844364 273.537074 
L 301.090909 272.411384 
L 304.337455 271.627159 
L 307.584 271.089013 
L 310.830545 270.746158 
L 314.077091 270.472634 
L 317.323636 270.286662 
L 320.570182 270.142872 
L 323.816727 270.040156 
L 327.063273 269.958649 
L 330.309818 269.892261 
L 333.556364 269.834669 
L 336.802909 269.786451 
L 340.049455 269.746461 
L 343.296 269.710497 
L 346.542545 269.677238 
L 349.789091 269.649068 
L 353.035636 269.622906 
L 356.282182 269.5993 
L 359.528727 269.576245 
L 362.775273 269.554502 
L 366.021818 269.534946 
L 369.268364 269.516816 
L 372.514909 269.499917 
L 375.761455 269.484151 
L 379.008 269.469531 
L 382.254545 269.455876 
L 385.501091 269.443074 
L 388.747636 269.43105 
L 391.994182 269.419878 
L 395.240727 269.409412 
L 398.487273 269.399583 
" clip-path="url(#pf6b96ea96d)" style="fill: none; stroke: #1f77b4; stroke-width: 1.5; stroke-linecap: square"/>
   </g>
   <g id="line2d_63">
    <path d="M 73.832727 263.788138 
L 77.079273 303.506423 
L 80.325818 304.098822 
L 83.572364 304.246649 
L 86.818909 304.308295 
L 90.065455 304.337601 
L 93.312 304.353496 
L 96.558545 304.36245 
L 99.805091 304.367916 
L 103.051636 304.371375 
L 106.298182 304.373718 
L 109.544727 304.375416 
L 112.791273 304.376879 
L 116.037818 304.378224 
L 119.284364 304.379543 
L 122.530909 304.378701 
L 125.777455 303.587904 
L 129.024 303.539237 
L 132.270545 303.663108 
L 135.517091 303.833513 
L 138.763636 304.0169 
L 142.010182 304.198467 
L 145.256727 304.367963 
L 148.503273 304.518343 
L 151.749818 304.646683 
L 154.996364 304.750667 
L 158.242909 304.83065 
L 161.489455 304.88972 
L 164.736 304.929875 
L 167.982545 304.953625 
L 171.229091 304.964 
L 174.475636 304.778245 
L 177.722182 304.489246 
L 180.968727 304.09615 
L 184.215273 303.620543 
L 187.461818 303.11369 
L 190.708364 302.661804 
L 193.954909 302.272181 
L 197.201455 301.978947 
L 200.448 301.768666 
L 203.694545 301.633379 
L 206.941091 301.54781 
L 210.187636 301.489486 
L 213.434182 301.453775 
L 216.680727 301.433158 
L 219.927273 301.42008 
L 223.173818 301.411994 
L 226.420364 301.407212 
L 229.666909 301.404345 
L 232.913455 301.402499 
L 236.16 301.401576 
L 239.406545 301.400901 
L 242.653091 301.400396 
L 245.899636 301.40036 
L 249.146182 301.400334 
L 252.392727 301.400318 
L 255.639273 301.400301 
L 258.885818 301.400285 
L 262.132364 301.400268 
L 265.378909 301.400273 
L 268.625455 301.400078 
L 271.872 299.400341 
L 275.118545 296.794928 
L 278.365091 294.030054 
L 281.611636 291.526598 
L 284.858182 289.384068 
L 288.104727 287.556953 
L 291.351273 285.95834 
L 294.597818 284.540671 
L 297.844364 283.272323 
L 301.090909 282.129983 
L 304.337455 281.094232 
L 307.584 280.149253 
L 310.830545 279.333249 
L 314.077091 278.534337 
L 317.323636 277.838073 
L 320.570182 277.177749 
L 323.816727 276.568194 
L 327.063273 276.007639 
L 330.309818 275.49288 
L 333.556364 275.014237 
L 336.802909 274.57236 
L 340.049455 274.165816 
L 343.296 273.785906 
L 346.542545 273.430296 
L 349.789091 273.105401 
L 353.035636 272.80526 
L 356.282182 272.526768 
L 359.528727 272.265686 
L 362.775273 272.021555 
L 366.021818 271.793985 
L 369.268364 271.580811 
L 372.514909 271.382306 
L 375.761455 271.196852 
L 379.008 271.023403 
L 382.254545 270.860932 
L 385.501091 270.708403 
L 388.747636 270.565031 
L 391.994182 270.431025 
L 395.240727 270.305122 
L 398.487273 270.186574 
" clip-path="url(#pf6b96ea96d)" style="fill: none; stroke: #ff7f0e; stroke-width: 1.5; stroke-linecap: square"/>
   </g>
   <g id="patch_27">
    <path d="M 57.6 307.584 
L 57.6 261.702621 
" style="fill: none; stroke: #000000; stroke-width: 0.8; stroke-linejoin: miter; stroke-linecap: square"/>
   </g>
   <g id="patch_28">
    <path d="M 414.72 307.584 
L 414.72 261.702621 
" style="fill: none; stroke: #000000; stroke-width: 0.8; stroke-linejoin: miter; stroke-linecap: square"/>
   </g>
   <g id="patch_29">
    <path d="M 57.6 307.584 
L 414.72 307.584 
" style="fill: none; stroke: #000000; stroke-width: 0.8; stroke-linejoin: miter; stroke-linecap: square"/>
   </g>
   <g id="patch_30">
    <path d="M 57.6 261.702621 
L 414.72 261.702621 
" style="fill: none; stroke: #000000; stroke-width: 0.8; stroke-linejoin: miter; stroke-linecap: square"/>
   </g>
   <g id="text_37">
    <!-- yC -->
    <g transform="translate(228.419062 255.702621)scale(0.12 -0.12)">
     <defs>
      <path id="DejaVuSans-43" d="M 4122 4306 
L 4122 3641 
Q 3803 3938 3442 4084 
Q 3081 4231 2675 4231 
Q 1875 4231 1450 3742 
Q 1025 3253 1025 2328 
Q 1025 1406 1450 917 
Q 1875 428 2675 428 
Q 3081 428 3442 575 
Q 3803 722 4122 1019 
L 4122 359 
Q 3791 134 3420 21 
Q 3050 -91 2638 -91 
Q 1578 -91 968 557 
Q 359 1206 359 2328 
Q 359 3453 968 4101 
Q 1578 4750 2638 4750 
Q 3056 4750 3426 4639 
Q 3797 4528 4122 4306 
z
" transform="scale(0.015625)"/>
     </defs>
     <use xlink:href="#DejaVuSans-79"/>
     <use xlink:href="#DejaVuSans-43" x="59.179688"/>
    </g>
   </g>
   <g id="legend_5">
    <g id="patch_31">
     <path d="M 64.6 302.584 
L 142.43125 302.584 
Q 144.43125 302.584 144.43125 300.584 
L 144.43125 272.22775 
Q 144.43125 270.22775 142.43125 270.22775 
L 64.6 270.22775 
Q 62.6 270.22775 62.6 272.22775 
L 62.6 300.584 
Q 62.6 302.584 64.6 302.584 
z
" style="fill: #ffffff; opacity: 0.8; stroke: #cccccc; stroke-linejoin: miter"/>
    </g>
    <g id="line2d_64">
     <path d="M 66.6 278.326187 
L 76.6 278.326187 
L 86.6 278.326187 
" style="fill: none; stroke: #1f77b4; stroke-width: 1.5; stroke-linecap: square"/>
    </g>
    <g id="text_38">
     <!-- yC0 (in) -->
     <g transform="translate(94.6 281.826187)scale(0.1 -0.1)">
      <use xlink:href="#DejaVuSans-79"/>
      <use xlink:href="#DejaVuSans-43" x="59.179688"/>
      <use xlink:href="#DejaVuSans-30" x="129.003906"/>
      <use xlink:href="#DejaVuSans-20" x="192.626953"/>
      <use xlink:href="#DejaVuSans-28" x="224.414062"/>
      <use xlink:href="#DejaVuSans-69" x="263.427734"/>
      <use xlink:href="#DejaVuSans-6e" x="291.210938"/>
      <use xlink:href="#DejaVuSans-29" x="354.589844"/>
     </g>
    </g>
    <g id="line2d_65">
     <path d="M 66.6 293.004312 
L 76.6 293.004312 
L 86.6 293.004312 
" style="fill: none; stroke: #ff7f0e; stroke-width: 1.5; stroke-linecap: square"/>
    </g>
    <g id="text_39">
     <!-- yCL (out) -->
     <g transform="translate(94.6 296.504312)scale(0.1 -0.1)">
      <use xlink:href="#DejaVuSans-79"/>
      <use xlink:href="#DejaVuSans-43" x="59.179688"/>
      <use xlink:href="#DejaVuSans-4c" x="129.003906"/>
      <use xlink:href="#DejaVuSans-20" x="184.716797"/>
      <use xlink:href="#DejaVuSans-28" x="216.503906"/>
      <use xlink:href="#DejaVuSans-6f" x="255.517578"/>
      <use xlink:href="#DejaVuSans-75" x="316.699219"/>
      <use xlink:href="#DejaVuSans-74" x="380.078125"/>
      <use xlink:href="#DejaVuSans-29" x="419.287109"/>
     </g>
    </g>
   </g>
  </g>
 </g>
 <defs>
  <clipPath id="pa1b5cb7865">
   <rect x="57.6" y="41.472" width="357.12" height="45.881379"/>
  </clipPath>
  <clipPath id="p8b2dd5b648">
   <rect x="57.6" y="96.529655" width="357.12" height="45.881379"/>
  </clipPath>
  <clipPath id="p1ddfe04424">
   <rect x="57.6" y="151.58731" width="357.12" height="45.881379"/>
  </clipPath>
  <clipPath id="p2a06567260">
   <rect x="57.6" y="206.644966" width="357.12" height="45.881379"/>
  </clipPath>
  <clipPath id="pf6b96ea96d">
   <rect x="57.6" y="261.702621" width="357.12" height="45.881379"/>
  </clipPath>
 </defs>
</svg>
