<?xml version="1.0" encoding="utf-8" standalone="no"?>
<!DOCTYPE svg PUBLIC "-//W3C//DTD SVG 1.1//EN"
  "http://www.w3.org/Graphics/SVG/1.1/DTD/svg11.dtd">
<svg xmlns:xlink="http://www.w3.org/1999/xlink" width="460.8pt" height="345.6pt" viewBox="0 0 460.8 345.6" xmlns="http://www.w3.org/2000/svg" version="1.1">
 <metadata>
  <rdf:RDF xmlns:dc="http://purl.org/dc/elements/1.1/" xmlns:cc="http://creativecommons.org/ns#" xmlns:rdf="http://www.w3.org/1999/02/22-rdf-syntax-ns#">
   <cc:Work>
    <dc:type rdf:resource="http://purl.org/dc/dcmitype/StillImage"/>
    <dc:date>2022-07-10T00:04:58.850988</dc:date>
    <dc:format>image/svg+xml</dc:format>
    <dc:creator>
     <cc:Agent>
      <dc:title>Matplotlib v3.5.2, https://matplotlib.org/</dc:title>
     </cc:Agent>
    </dc:creator>
   </cc:Work>
  </rdf:RDF>
 </metadata>
 <defs>
  <style type="text/css">*{stroke-linejoin: round; stroke-linecap: butt}</style>
 </defs>
 <g id="figure_1">
  <g id="patch_1">
   <path d="M 0 345.6 
L 460.8 345.6 
L 460.8 0 
L 0 0 
z
" style="fill: #ffffff"/>
  </g>
  <g id="axes_1">
   <g id="patch_2">
    <path d="M 57.6 87.353379 
L 414.72 87.353379 
L 414.72 41.472 
L 57.6 41.472 
z
" style="fill: #ffffff"/>
   </g>
   <g id="matplotlib.axis_1">
    <g id="xtick_1">
     <g id="line2d_1">
      <defs>
       <path id="m7d2335643a" d="M 0 0 
L 0 3.5 
" style="stroke: #000000; stroke-width: 0.8"/>
      </defs>
      <g>
       <use xlink:href="#m7d2335643a" x="73.832727" y="87.353379" style="stroke: #000000; stroke-width: 0.8"/>
      </g>
     </g>
    </g>
    <g id="xtick_2">
     <g id="line2d_2">
      <g>
       <use xlink:href="#m7d2335643a" x="138.763636" y="87.353379" style="stroke: #000000; stroke-width: 0.8"/>
      </g>
     </g>
    </g>
    <g id="xtick_3">
     <g id="line2d_3">
      <g>
       <use xlink:href="#m7d2335643a" x="203.694545" y="87.353379" style="stroke: #000000; stroke-width: 0.8"/>
      </g>
     </g>
    </g>
    <g id="xtick_4">
     <g id="line2d_4">
      <g>
       <use xlink:href="#m7d2335643a" x="268.625455" y="87.353379" style="stroke: #000000; stroke-width: 0.8"/>
      </g>
     </g>
    </g>
    <g id="xtick_5">
     <g id="line2d_5">
      <g>
       <use xlink:href="#m7d2335643a" x="333.556364" y="87.353379" style="stroke: #000000; stroke-width: 0.8"/>
      </g>
     </g>
    </g>
    <g id="xtick_6">
     <g id="line2d_6">
      <g>
       <use xlink:href="#m7d2335643a" x="398.487273" y="87.353379" style="stroke: #000000; stroke-width: 0.8"/>
      </g>
     </g>
    </g>
   </g>
   <g id="matplotlib.axis_2">
    <g id="ytick_1">
     <g id="line2d_7">
      <defs>
       <path id="m796a2615be" d="M 0 0 
L -3.5 0 
" style="stroke: #000000; stroke-width: 0.8"/>
      </defs>
      <g>
       <use xlink:href="#m796a2615be" x="57.6" y="76.35103" style="stroke: #000000; stroke-width: 0.8"/>
      </g>
     </g>
     <g id="text_1">
      <!-- −2.5 -->
      <g transform="translate(26.317187 80.150249)scale(0.1 -0.1)">
       <defs>
        <path id="DejaVuSans-2212" d="M 678 2272 
L 4684 2272 
L 4684 1741 
L 678 1741 
L 678 2272 
z
" transform="scale(0.015625)"/>
        <path id="DejaVuSans-32" d="M 1228 531 
L 3431 531 
L 3431 0 
L 469 0 
L 469 531 
Q 828 903 1448 1529 
Q 2069 2156 2228 2338 
Q 2531 2678 2651 2914 
Q 2772 3150 2772 3378 
Q 2772 3750 2511 3984 
Q 2250 4219 1831 4219 
Q 1534 4219 1204 4116 
Q 875 4013 500 3803 
L 500 4441 
Q 881 4594 1212 4672 
Q 1544 4750 1819 4750 
Q 2544 4750 2975 4387 
Q 3406 4025 3406 3419 
Q 3406 3131 3298 2873 
Q 3191 2616 2906 2266 
Q 2828 2175 2409 1742 
Q 1991 1309 1228 531 
z
" transform="scale(0.015625)"/>
        <path id="DejaVuSans-2e" d="M 684 794 
L 1344 794 
L 1344 0 
L 684 0 
L 684 794 
z
" transform="scale(0.015625)"/>
        <path id="DejaVuSans-35" d="M 691 4666 
L 3169 4666 
L 3169 4134 
L 1269 4134 
L 1269 2991 
Q 1406 3038 1543 3061 
Q 1681 3084 1819 3084 
Q 2600 3084 3056 2656 
Q 3513 2228 3513 1497 
Q 3513 744 3044 326 
Q 2575 -91 1722 -91 
Q 1428 -91 1123 -41 
Q 819 9 494 109 
L 494 744 
Q 775 591 1075 516 
Q 1375 441 1709 441 
Q 2250 441 2565 725 
Q 2881 1009 2881 1497 
Q 2881 1984 2565 2268 
Q 2250 2553 1709 2553 
Q 1456 2553 1204 2497 
Q 953 2441 691 2322 
L 691 4666 
z
" transform="scale(0.015625)"/>
       </defs>
       <use xlink:href="#DejaVuSans-2212"/>
       <use xlink:href="#DejaVuSans-32" x="83.789062"/>
       <use xlink:href="#DejaVuSans-2e" x="147.412109"/>
       <use xlink:href="#DejaVuSans-35" x="179.199219"/>
      </g>
     </g>
    </g>
    <g id="ytick_2">
     <g id="line2d_8">
      <g>
       <use xlink:href="#m796a2615be" x="57.6" y="55.254322" style="stroke: #000000; stroke-width: 0.8"/>
      </g>
     </g>
     <g id="text_2">
      <!-- 0.0 -->
      <g transform="translate(34.696875 59.053541)scale(0.1 -0.1)">
       <defs>
        <path id="DejaVuSans-30" d="M 2034 4250 
Q 1547 4250 1301 3770 
Q 1056 3291 1056 2328 
Q 1056 1369 1301 889 
Q 1547 409 2034 409 
Q 2525 409 2770 889 
Q 3016 1369 3016 2328 
Q 3016 3291 2770 3770 
Q 2525 4250 2034 4250 
z
M 2034 4750 
Q 2819 4750 3233 4129 
Q 3647 3509 3647 2328 
Q 3647 1150 3233 529 
Q 2819 -91 2034 -91 
Q 1250 -91 836 529 
Q 422 1150 422 2328 
Q 422 3509 836 4129 
Q 1250 4750 2034 4750 
z
" transform="scale(0.015625)"/>
       </defs>
       <use xlink:href="#DejaVuSans-30"/>
       <use xlink:href="#DejaVuSans-2e" x="63.623047"/>
       <use xlink:href="#DejaVuSans-30" x="95.410156"/>
      </g>
     </g>
    </g>
    <g id="text_3">
     <!-- flow rate (normalized) -->
     <g transform="translate(20.2375 119.729877)rotate(-90)scale(0.1 -0.1)">
      <defs>
       <path id="DejaVuSans-66" d="M 2375 4863 
L 2375 4384 
L 1825 4384 
Q 1516 4384 1395 4259 
Q 1275 4134 1275 3809 
L 1275 3500 
L 2222 3500 
L 2222 3053 
L 1275 3053 
L 1275 0 
L 697 0 
L 697 3053 
L 147 3053 
L 147 3500 
L 697 3500 
L 697 3744 
Q 697 4328 969 4595 
Q 1241 4863 1831 4863 
L 2375 4863 
z
" transform="scale(0.015625)"/>
       <path id="DejaVuSans-6c" d="M 603 4863 
L 1178 4863 
L 1178 0 
L 603 0 
L 603 4863 
z
" transform="scale(0.015625)"/>
       <path id="DejaVuSans-6f" d="M 1959 3097 
Q 1497 3097 1228 2736 
Q 959 2375 959 1747 
Q 959 1119 1226 758 
Q 1494 397 1959 397 
Q 2419 397 2687 759 
Q 2956 1122 2956 1747 
Q 2956 2369 2687 2733 
Q 2419 3097 1959 3097 
z
M 1959 3584 
Q 2709 3584 3137 3096 
Q 3566 2609 3566 1747 
Q 3566 888 3137 398 
Q 2709 -91 1959 -91 
Q 1206 -91 779 398 
Q 353 888 353 1747 
Q 353 2609 779 3096 
Q 1206 3584 1959 3584 
z
" transform="scale(0.015625)"/>
       <path id="DejaVuSans-77" d="M 269 3500 
L 844 3500 
L 1563 769 
L 2278 3500 
L 2956 3500 
L 3675 769 
L 4391 3500 
L 4966 3500 
L 4050 0 
L 3372 0 
L 2619 2869 
L 1863 0 
L 1184 0 
L 269 3500 
z
" transform="scale(0.015625)"/>
       <path id="DejaVuSans-20" transform="scale(0.015625)"/>
       <path id="DejaVuSans-72" d="M 2631 2963 
Q 2534 3019 2420 3045 
Q 2306 3072 2169 3072 
Q 1681 3072 1420 2755 
Q 1159 2438 1159 1844 
L 1159 0 
L 581 0 
L 581 3500 
L 1159 3500 
L 1159 2956 
Q 1341 3275 1631 3429 
Q 1922 3584 2338 3584 
Q 2397 3584 2469 3576 
Q 2541 3569 2628 3553 
L 2631 2963 
z
" transform="scale(0.015625)"/>
       <path id="DejaVuSans-61" d="M 2194 1759 
Q 1497 1759 1228 1600 
Q 959 1441 959 1056 
Q 959 750 1161 570 
Q 1363 391 1709 391 
Q 2188 391 2477 730 
Q 2766 1069 2766 1631 
L 2766 1759 
L 2194 1759 
z
M 3341 1997 
L 3341 0 
L 2766 0 
L 2766 531 
Q 2569 213 2275 61 
Q 1981 -91 1556 -91 
Q 1019 -91 701 211 
Q 384 513 384 1019 
Q 384 1609 779 1909 
Q 1175 2209 1959 2209 
L 2766 2209 
L 2766 2266 
Q 2766 2663 2505 2880 
Q 2244 3097 1772 3097 
Q 1472 3097 1187 3025 
Q 903 2953 641 2809 
L 641 3341 
Q 956 3463 1253 3523 
Q 1550 3584 1831 3584 
Q 2591 3584 2966 3190 
Q 3341 2797 3341 1997 
z
" transform="scale(0.015625)"/>
       <path id="DejaVuSans-74" d="M 1172 4494 
L 1172 3500 
L 2356 3500 
L 2356 3053 
L 1172 3053 
L 1172 1153 
Q 1172 725 1289 603 
Q 1406 481 1766 481 
L 2356 481 
L 2356 0 
L 1766 0 
Q 1100 0 847 248 
Q 594 497 594 1153 
L 594 3053 
L 172 3053 
L 172 3500 
L 594 3500 
L 594 4494 
L 1172 4494 
z
" transform="scale(0.015625)"/>
       <path id="DejaVuSans-65" d="M 3597 1894 
L 3597 1613 
L 953 1613 
Q 991 1019 1311 708 
Q 1631 397 2203 397 
Q 2534 397 2845 478 
Q 3156 559 3463 722 
L 3463 178 
Q 3153 47 2828 -22 
Q 2503 -91 2169 -91 
Q 1331 -91 842 396 
Q 353 884 353 1716 
Q 353 2575 817 3079 
Q 1281 3584 2069 3584 
Q 2775 3584 3186 3129 
Q 3597 2675 3597 1894 
z
M 3022 2063 
Q 3016 2534 2758 2815 
Q 2500 3097 2075 3097 
Q 1594 3097 1305 2825 
Q 1016 2553 972 2059 
L 3022 2063 
z
" transform="scale(0.015625)"/>
       <path id="DejaVuSans-28" d="M 1984 4856 
Q 1566 4138 1362 3434 
Q 1159 2731 1159 2009 
Q 1159 1288 1364 580 
Q 1569 -128 1984 -844 
L 1484 -844 
Q 1016 -109 783 600 
Q 550 1309 550 2009 
Q 550 2706 781 3412 
Q 1013 4119 1484 4856 
L 1984 4856 
z
" transform="scale(0.015625)"/>
       <path id="DejaVuSans-6e" d="M 3513 2113 
L 3513 0 
L 2938 0 
L 2938 2094 
Q 2938 2591 2744 2837 
Q 2550 3084 2163 3084 
Q 1697 3084 1428 2787 
Q 1159 2491 1159 1978 
L 1159 0 
L 581 0 
L 581 3500 
L 1159 3500 
L 1159 2956 
Q 1366 3272 1645 3428 
Q 1925 3584 2291 3584 
Q 2894 3584 3203 3211 
Q 3513 2838 3513 2113 
z
" transform="scale(0.015625)"/>
       <path id="DejaVuSans-6d" d="M 3328 2828 
Q 3544 3216 3844 3400 
Q 4144 3584 4550 3584 
Q 5097 3584 5394 3201 
Q 5691 2819 5691 2113 
L 5691 0 
L 5113 0 
L 5113 2094 
Q 5113 2597 4934 2840 
Q 4756 3084 4391 3084 
Q 3944 3084 3684 2787 
Q 3425 2491 3425 1978 
L 3425 0 
L 2847 0 
L 2847 2094 
Q 2847 2600 2669 2842 
Q 2491 3084 2119 3084 
Q 1678 3084 1418 2786 
Q 1159 2488 1159 1978 
L 1159 0 
L 581 0 
L 581 3500 
L 1159 3500 
L 1159 2956 
Q 1356 3278 1631 3431 
Q 1906 3584 2284 3584 
Q 2666 3584 2933 3390 
Q 3200 3197 3328 2828 
z
" transform="scale(0.015625)"/>
       <path id="DejaVuSans-69" d="M 603 3500 
L 1178 3500 
L 1178 0 
L 603 0 
L 603 3500 
z
M 603 4863 
L 1178 4863 
L 1178 4134 
L 603 4134 
L 603 4863 
z
" transform="scale(0.015625)"/>
       <path id="DejaVuSans-7a" d="M 353 3500 
L 3084 3500 
L 3084 2975 
L 922 459 
L 3084 459 
L 3084 0 
L 275 0 
L 275 525 
L 2438 3041 
L 353 3041 
L 353 3500 
z
" transform="scale(0.015625)"/>
       <path id="DejaVuSans-64" d="M 2906 2969 
L 2906 4863 
L 3481 4863 
L 3481 0 
L 2906 0 
L 2906 525 
Q 2725 213 2448 61 
Q 2172 -91 1784 -91 
Q 1150 -91 751 415 
Q 353 922 353 1747 
Q 353 2572 751 3078 
Q 1150 3584 1784 3584 
Q 2172 3584 2448 3432 
Q 2725 3281 2906 2969 
z
M 947 1747 
Q 947 1113 1208 752 
Q 1469 391 1925 391 
Q 2381 391 2643 752 
Q 2906 1113 2906 1747 
Q 2906 2381 2643 2742 
Q 2381 3103 1925 3103 
Q 1469 3103 1208 2742 
Q 947 2381 947 1747 
z
" transform="scale(0.015625)"/>
       <path id="DejaVuSans-29" d="M 513 4856 
L 1013 4856 
Q 1481 4119 1714 3412 
Q 1947 2706 1947 2009 
Q 1947 1309 1714 600 
Q 1481 -109 1013 -844 
L 513 -844 
Q 928 -128 1133 580 
Q 1338 1288 1338 2009 
Q 1338 2731 1133 3434 
Q 928 4138 513 4856 
z
" transform="scale(0.015625)"/>
      </defs>
      <use xlink:href="#DejaVuSans-66"/>
      <use xlink:href="#DejaVuSans-6c" x="35.205078"/>
      <use xlink:href="#DejaVuSans-6f" x="62.988281"/>
      <use xlink:href="#DejaVuSans-77" x="124.169922"/>
      <use xlink:href="#DejaVuSans-20" x="205.957031"/>
      <use xlink:href="#DejaVuSans-72" x="237.744141"/>
      <use xlink:href="#DejaVuSans-61" x="278.857422"/>
      <use xlink:href="#DejaVuSans-74" x="340.136719"/>
      <use xlink:href="#DejaVuSans-65" x="379.345703"/>
      <use xlink:href="#DejaVuSans-20" x="440.869141"/>
      <use xlink:href="#DejaVuSans-28" x="472.65625"/>
      <use xlink:href="#DejaVuSans-6e" x="511.669922"/>
      <use xlink:href="#DejaVuSans-6f" x="575.048828"/>
      <use xlink:href="#DejaVuSans-72" x="636.230469"/>
      <use xlink:href="#DejaVuSans-6d" x="675.59375"/>
      <use xlink:href="#DejaVuSans-61" x="773.005859"/>
      <use xlink:href="#DejaVuSans-6c" x="834.285156"/>
      <use xlink:href="#DejaVuSans-69" x="862.068359"/>
      <use xlink:href="#DejaVuSans-7a" x="889.851562"/>
      <use xlink:href="#DejaVuSans-65" x="942.341797"/>
      <use xlink:href="#DejaVuSans-64" x="1003.865234"/>
      <use xlink:href="#DejaVuSans-29" x="1067.341797"/>
     </g>
    </g>
   </g>
   <g id="line2d_9">
    <path d="M 73.832727 56.239824 
L 77.079273 49.372748 
L 80.325818 53.129358 
L 83.572364 54.262739 
L 86.818909 54.735243 
L 90.065455 54.974127 
L 93.312 55.099228 
L 96.558545 55.165584 
L 99.805091 55.210888 
L 103.051636 55.241455 
L 106.298182 55.251972 
L 109.544727 55.245089 
L 112.791273 55.248006 
L 116.037818 55.249591 
L 119.284364 55.25114 
L 122.530909 53.225849 
L 125.777455 46.799207 
L 129.024 46.799065 
L 132.270545 46.798961 
L 135.517091 46.798895 
L 138.763636 46.798849 
L 142.010182 46.798804 
L 145.256727 46.798774 
L 148.503273 46.798751 
L 151.749818 46.798728 
L 154.996364 46.798718 
L 158.242909 46.79871 
L 161.489455 46.798702 
L 164.736 46.798694 
L 167.982545 46.798686 
L 171.229091 47.255213 
L 174.475636 53.285771 
L 177.722182 53.424743 
L 180.968727 53.630263 
L 184.215273 53.727734 
L 187.461818 53.957654 
L 190.708364 54.035602 
L 193.954909 54.387708 
L 197.201455 54.577775 
L 200.448 54.748516 
L 203.694545 54.890726 
L 206.941091 54.99931 
L 210.187636 55.082134 
L 213.434182 55.139136 
L 216.680727 55.177742 
L 219.927273 55.204788 
L 223.173818 55.222495 
L 226.420364 55.233473 
L 229.666909 55.240205 
L 232.913455 55.244979 
L 236.16 55.248328 
L 239.406545 55.25053 
L 242.653091 55.251776 
L 245.899636 55.252702 
L 249.146182 55.253356 
L 252.392727 55.253764 
L 255.639273 55.254112 
L 258.885818 55.254314 
L 262.132364 55.254345 
L 265.378909 55.254316 
L 268.625455 55.306978 
L 271.872 58.189492 
L 275.118545 60.189913 
L 278.365091 62.728408 
L 281.611636 64.84135 
L 284.858182 65.944691 
L 288.104727 66.216463 
L 291.351273 65.973198 
L 294.597818 65.488491 
L 297.844364 64.892523 
L 301.090909 64.260412 
L 304.337455 63.629919 
L 307.584 63.020788 
L 310.830545 62.444521 
L 314.077091 61.904785 
L 317.323636 61.403724 
L 320.570182 60.93461 
L 323.816727 60.508906 
L 327.063273 60.112336 
L 330.309818 59.749065 
L 333.556364 59.414642 
L 336.802909 59.105774 
L 340.049455 58.823057 
L 343.296 58.563108 
L 346.542545 58.324431 
L 349.789091 58.104803 
L 353.035636 57.902654 
L 356.282182 57.71601 
L 359.528727 57.543906 
L 362.775273 57.384948 
L 366.021818 57.238033 
L 369.268364 57.102146 
L 372.514909 56.975822 
L 375.761455 56.858675 
L 379.008 56.750739 
L 382.254545 56.650638 
L 385.501091 56.557677 
L 388.747636 56.47132 
L 391.994182 56.39072 
L 395.240727 56.315274 
L 398.487273 56.245146 
" clip-path="url(#p74a867e52b)" style="fill: none; stroke: #1f77b4; stroke-width: 1.5; stroke-linecap: square"/>
   </g>
   <g id="line2d_10">
    <path d="M 73.832727 56.835946 
L 77.079273 43.557517 
L 80.325818 51.013789 
L 83.572364 53.281267 
L 86.818909 54.216232 
L 90.065455 54.693886 
L 93.312 54.944095 
L 96.558545 55.076813 
L 99.805091 55.167464 
L 103.051636 55.22873 
L 106.298182 55.249864 
L 109.544727 55.235977 
L 112.791273 55.241689 
L 116.037818 55.244859 
L 119.284364 55.247959 
L 122.530909 49.375257 
L 125.777455 46.813267 
L 129.024 46.813238 
L 132.270545 46.813221 
L 135.517091 46.813213 
L 138.763636 46.81321 
L 142.010182 46.813207 
L 145.256727 46.813207 
L 148.503273 46.813208 
L 151.749818 46.813208 
L 154.996364 46.81321 
L 158.242909 46.813211 
L 161.489455 46.813213 
L 164.736 46.813214 
L 167.982545 46.813216 
L 171.229091 49.841556 
L 174.475636 54.896506 
L 177.722182 54.921821 
L 180.968727 54.959161 
L 184.215273 54.977036 
L 187.461818 55.018918 
L 190.708364 55.033854 
L 193.954909 55.096829 
L 197.201455 55.131347 
L 200.448 55.162351 
L 203.694545 55.188188 
L 206.941091 55.207917 
L 210.187636 55.222978 
L 213.434182 55.233349 
L 216.680727 55.240374 
L 219.927273 55.245297 
L 223.173818 55.248522 
L 226.420364 55.250523 
L 229.666909 55.251749 
L 232.913455 55.252619 
L 236.16 55.253229 
L 239.406545 55.253631 
L 242.653091 55.253858 
L 245.899636 55.254027 
L 249.146182 55.254146 
L 252.392727 55.25422 
L 255.639273 55.254284 
L 258.885818 55.254321 
L 262.132364 55.254326 
L 265.378909 55.254321 
L 268.625455 55.363755 
L 271.872 61.256856 
L 275.118545 65.683726 
L 278.365091 72.030098 
L 281.611636 78.545462 
L 284.858182 83.134957 
L 288.104727 85.267862 
L 291.351273 85.229359 
L 294.597818 83.709214 
L 297.844364 81.636968 
L 301.090909 79.200942 
L 304.337455 76.745774 
L 307.584 74.427083 
L 310.830545 72.336463 
L 314.077091 70.470329 
L 317.323636 68.833878 
L 320.570182 67.38717 
L 323.816727 66.147238 
L 327.063273 65.052687 
L 330.309818 64.098676 
L 333.556364 63.260818 
L 336.802909 62.521459 
L 340.049455 61.872213 
L 343.296 61.294634 
L 346.542545 60.782622 
L 349.789091 60.320972 
L 353.035636 59.908754 
L 356.282182 59.534393 
L 359.528727 59.196352 
L 362.775273 58.88966 
L 366.021818 58.611276 
L 369.268364 58.358858 
L 372.514909 58.126906 
L 375.761455 57.914363 
L 379.008 57.721627 
L 382.254545 57.544225 
L 385.501091 57.380685 
L 388.747636 57.230901 
L 391.994182 57.092048 
L 395.240727 56.962643 
L 398.487273 56.843149 
" clip-path="url(#p74a867e52b)" style="fill: none; stroke: #ff7f0e; stroke-width: 1.5; stroke-linecap: square"/>
   </g>
   <g id="line2d_11">
    <path d="M 73.832727 55.370276 
L 77.079273 54.599149 
L 80.325818 55.017628 
L 83.572364 55.142704 
L 86.818909 55.196669 
L 90.065455 55.223201 
L 93.312 55.237094 
L 96.558545 55.244463 
L 99.805091 55.249493 
L 103.051636 55.252884 
L 106.298182 55.254051 
L 109.544727 55.25329 
L 112.791273 55.253616 
L 116.037818 55.253792 
L 119.284364 55.253964 
L 122.530909 55.120448 
L 125.777455 46.78749 
L 129.024 46.787237 
L 132.270545 46.787038 
L 135.517091 46.786893 
L 138.763636 46.786778 
L 142.010182 46.786662 
L 145.256727 46.786571 
L 148.503273 46.78649 
L 151.749818 46.786409 
L 154.996364 46.786353 
L 158.242909 46.786303 
L 161.489455 46.786253 
L 164.736 46.786203 
L 167.982545 46.786153 
L 171.229091 46.755529 
L 174.475636 51.852123 
L 177.722182 52.0912 
L 180.968727 52.446734 
L 184.215273 52.612087 
L 187.461818 53.007694 
L 190.708364 53.126666 
L 193.954909 53.755889 
L 197.201455 54.085215 
L 200.448 54.380924 
L 203.694545 54.626901 
L 206.941091 54.814705 
L 210.187636 54.957699 
L 213.434182 55.055993 
L 216.680727 55.12256 
L 219.927273 55.169155 
L 223.173818 55.199616 
L 226.420364 55.21849 
L 229.666909 55.230061 
L 232.913455 55.238276 
L 236.16 55.244036 
L 239.406545 55.247812 
L 242.653091 55.249951 
L 245.899636 55.251537 
L 249.146182 55.25266 
L 252.392727 55.253364 
L 255.639273 55.253961 
L 258.885818 55.254307 
L 262.132364 55.254359 
L 265.378909 55.254311 
L 268.625455 55.260096 
L 271.872 55.578073 
L 275.118545 55.793373 
L 278.365091 56.057341 
L 281.611636 56.265153 
L 284.858182 56.36529 
L 288.104727 56.383574 
L 291.351273 56.354818 
L 294.597818 56.306257 
L 297.844364 56.247987 
L 301.090909 56.187419 
L 304.337455 56.127377 
L 307.584 56.069372 
L 310.830545 56.014217 
L 314.077091 55.962239 
L 317.323636 55.913587 
L 320.570182 55.867619 
L 323.816727 55.825534 
L 327.063273 55.785878 
L 330.309818 55.749208 
L 333.556364 55.715093 
L 336.802909 55.683239 
L 340.049455 55.653818 
L 343.296 55.626515 
L 346.542545 55.601217 
L 349.789091 55.577752 
L 353.035636 55.55598 
L 356.282182 55.535748 
L 359.528727 55.516967 
L 362.775273 55.499519 
L 366.021818 55.483294 
L 369.268364 55.468188 
L 372.514909 55.454079 
L 375.761455 55.440935 
L 379.008 55.428763 
L 382.254545 55.417439 
L 385.501091 55.406891 
L 388.747636 55.397043 
L 391.994182 55.387825 
L 395.240727 55.379177 
L 398.487273 55.371119 
" clip-path="url(#p74a867e52b)" style="fill: none; stroke: #2ca02c; stroke-width: 1.5; stroke-linecap: square"/>
   </g>
   <g id="patch_3">
    <path d="M 57.6 87.353379 
L 57.6 41.472 
" style="fill: none; stroke: #000000; stroke-width: 0.8; stroke-linejoin: miter; stroke-linecap: square"/>
   </g>
   <g id="patch_4">
    <path d="M 414.72 87.353379 
L 414.72 41.472 
" style="fill: none; stroke: #000000; stroke-width: 0.8; stroke-linejoin: miter; stroke-linecap: square"/>
   </g>
   <g id="patch_5">
    <path d="M 57.6 87.353379 
L 414.72 87.353379 
" style="fill: none; stroke: #000000; stroke-width: 0.8; stroke-linejoin: miter; stroke-linecap: square"/>
   </g>
   <g id="patch_6">
    <path d="M 57.6 41.472 
L 414.72 41.472 
" style="fill: none; stroke: #000000; stroke-width: 0.8; stroke-linejoin: miter; stroke-linecap: square"/>
   </g>
   <g id="text_4">
    <!-- velocity vs time (container 1)   -->
    <g transform="translate(144.106875 35.472)scale(0.12 -0.12)">
     <defs>
      <path id="DejaVuSans-76" d="M 191 3500 
L 800 3500 
L 1894 563 
L 2988 3500 
L 3597 3500 
L 2284 0 
L 1503 0 
L 191 3500 
z
" transform="scale(0.015625)"/>
      <path id="DejaVuSans-63" d="M 3122 3366 
L 3122 2828 
Q 2878 2963 2633 3030 
Q 2388 3097 2138 3097 
Q 1578 3097 1268 2742 
Q 959 2388 959 1747 
Q 959 1106 1268 751 
Q 1578 397 2138 397 
Q 2388 397 2633 464 
Q 2878 531 3122 666 
L 3122 134 
Q 2881 22 2623 -34 
Q 2366 -91 2075 -91 
Q 1284 -91 818 406 
Q 353 903 353 1747 
Q 353 2603 823 3093 
Q 1294 3584 2113 3584 
Q 2378 3584 2631 3529 
Q 2884 3475 3122 3366 
z
" transform="scale(0.015625)"/>
      <path id="DejaVuSans-79" d="M 2059 -325 
Q 1816 -950 1584 -1140 
Q 1353 -1331 966 -1331 
L 506 -1331 
L 506 -850 
L 844 -850 
Q 1081 -850 1212 -737 
Q 1344 -625 1503 -206 
L 1606 56 
L 191 3500 
L 800 3500 
L 1894 763 
L 2988 3500 
L 3597 3500 
L 2059 -325 
z
" transform="scale(0.015625)"/>
      <path id="DejaVuSans-73" d="M 2834 3397 
L 2834 2853 
Q 2591 2978 2328 3040 
Q 2066 3103 1784 3103 
Q 1356 3103 1142 2972 
Q 928 2841 928 2578 
Q 928 2378 1081 2264 
Q 1234 2150 1697 2047 
L 1894 2003 
Q 2506 1872 2764 1633 
Q 3022 1394 3022 966 
Q 3022 478 2636 193 
Q 2250 -91 1575 -91 
Q 1294 -91 989 -36 
Q 684 19 347 128 
L 347 722 
Q 666 556 975 473 
Q 1284 391 1588 391 
Q 1994 391 2212 530 
Q 2431 669 2431 922 
Q 2431 1156 2273 1281 
Q 2116 1406 1581 1522 
L 1381 1569 
Q 847 1681 609 1914 
Q 372 2147 372 2553 
Q 372 3047 722 3315 
Q 1072 3584 1716 3584 
Q 2034 3584 2315 3537 
Q 2597 3491 2834 3397 
z
" transform="scale(0.015625)"/>
      <path id="DejaVuSans-31" d="M 794 531 
L 1825 531 
L 1825 4091 
L 703 3866 
L 703 4441 
L 1819 4666 
L 2450 4666 
L 2450 531 
L 3481 531 
L 3481 0 
L 794 0 
L 794 531 
z
" transform="scale(0.015625)"/>
     </defs>
     <use xlink:href="#DejaVuSans-76"/>
     <use xlink:href="#DejaVuSans-65" x="59.179688"/>
     <use xlink:href="#DejaVuSans-6c" x="120.703125"/>
     <use xlink:href="#DejaVuSans-6f" x="148.486328"/>
     <use xlink:href="#DejaVuSans-63" x="209.667969"/>
     <use xlink:href="#DejaVuSans-69" x="264.648438"/>
     <use xlink:href="#DejaVuSans-74" x="292.431641"/>
     <use xlink:href="#DejaVuSans-79" x="331.640625"/>
     <use xlink:href="#DejaVuSans-20" x="390.820312"/>
     <use xlink:href="#DejaVuSans-76" x="422.607422"/>
     <use xlink:href="#DejaVuSans-73" x="481.787109"/>
     <use xlink:href="#DejaVuSans-20" x="533.886719"/>
     <use xlink:href="#DejaVuSans-74" x="565.673828"/>
     <use xlink:href="#DejaVuSans-69" x="604.882812"/>
     <use xlink:href="#DejaVuSans-6d" x="632.666016"/>
     <use xlink:href="#DejaVuSans-65" x="730.078125"/>
     <use xlink:href="#DejaVuSans-20" x="791.601562"/>
     <use xlink:href="#DejaVuSans-28" x="823.388672"/>
     <use xlink:href="#DejaVuSans-63" x="862.402344"/>
     <use xlink:href="#DejaVuSans-6f" x="917.382812"/>
     <use xlink:href="#DejaVuSans-6e" x="978.564453"/>
     <use xlink:href="#DejaVuSans-74" x="1041.943359"/>
     <use xlink:href="#DejaVuSans-61" x="1081.152344"/>
     <use xlink:href="#DejaVuSans-69" x="1142.431641"/>
     <use xlink:href="#DejaVuSans-6e" x="1170.214844"/>
     <use xlink:href="#DejaVuSans-65" x="1233.59375"/>
     <use xlink:href="#DejaVuSans-72" x="1295.117188"/>
     <use xlink:href="#DejaVuSans-20" x="1336.230469"/>
     <use xlink:href="#DejaVuSans-31" x="1368.017578"/>
     <use xlink:href="#DejaVuSans-29" x="1431.640625"/>
     <use xlink:href="#DejaVuSans-20" x="1470.654297"/>
     <use xlink:href="#DejaVuSans-20" x="1502.441406"/>
    </g>
   </g>
   <g id="legend_1">
    <g id="patch_7">
     <path d="M 64.6 93.506375 
L 139.240625 93.506375 
Q 141.240625 93.506375 141.240625 91.506375 
L 141.240625 48.472 
Q 141.240625 46.472 139.240625 46.472 
L 64.6 46.472 
Q 62.6 46.472 62.6 48.472 
L 62.6 91.506375 
Q 62.6 93.506375 64.6 93.506375 
z
" style="fill: #ffffff; opacity: 0.8; stroke: #cccccc; stroke-linejoin: miter"/>
    </g>
    <g id="line2d_12">
     <path d="M 66.6 54.570437 
L 76.6 54.570437 
L 86.6 54.570437 
" style="fill: none; stroke: #1f77b4; stroke-width: 1.5; stroke-linecap: square"/>
    </g>
    <g id="text_5">
     <!-- mid flow -->
     <g transform="translate(94.6 58.070437)scale(0.1 -0.1)">
      <use xlink:href="#DejaVuSans-6d"/>
      <use xlink:href="#DejaVuSans-69" x="97.412109"/>
      <use xlink:href="#DejaVuSans-64" x="125.195312"/>
      <use xlink:href="#DejaVuSans-20" x="188.671875"/>
      <use xlink:href="#DejaVuSans-66" x="220.458984"/>
      <use xlink:href="#DejaVuSans-6c" x="255.664062"/>
      <use xlink:href="#DejaVuSans-6f" x="283.447266"/>
      <use xlink:href="#DejaVuSans-77" x="344.628906"/>
     </g>
    </g>
    <g id="line2d_13">
     <path d="M 66.6 69.248562 
L 76.6 69.248562 
L 86.6 69.248562 
" style="fill: none; stroke: #ff7f0e; stroke-width: 1.5; stroke-linecap: square"/>
    </g>
    <g id="text_6">
     <!-- v0 flow -->
     <g transform="translate(94.6 72.748562)scale(0.1 -0.1)">
      <use xlink:href="#DejaVuSans-76"/>
      <use xlink:href="#DejaVuSans-30" x="59.179688"/>
      <use xlink:href="#DejaVuSans-20" x="122.802734"/>
      <use xlink:href="#DejaVuSans-66" x="154.589844"/>
      <use xlink:href="#DejaVuSans-6c" x="189.794922"/>
      <use xlink:href="#DejaVuSans-6f" x="217.578125"/>
      <use xlink:href="#DejaVuSans-77" x="278.759766"/>
     </g>
    </g>
    <g id="line2d_14">
     <path d="M 66.6 83.926687 
L 76.6 83.926687 
L 86.6 83.926687 
" style="fill: none; stroke: #2ca02c; stroke-width: 1.5; stroke-linecap: square"/>
    </g>
    <g id="text_7">
     <!-- vN flow -->
     <g transform="translate(94.6 87.426687)scale(0.1 -0.1)">
      <defs>
       <path id="DejaVuSans-4e" d="M 628 4666 
L 1478 4666 
L 3547 763 
L 3547 4666 
L 4159 4666 
L 4159 0 
L 3309 0 
L 1241 3903 
L 1241 0 
L 628 0 
L 628 4666 
z
" transform="scale(0.015625)"/>
      </defs>
      <use xlink:href="#DejaVuSans-76"/>
      <use xlink:href="#DejaVuSans-4e" x="59.179688"/>
      <use xlink:href="#DejaVuSans-20" x="133.984375"/>
      <use xlink:href="#DejaVuSans-66" x="165.771484"/>
      <use xlink:href="#DejaVuSans-6c" x="200.976562"/>
      <use xlink:href="#DejaVuSans-6f" x="228.759766"/>
      <use xlink:href="#DejaVuSans-77" x="289.941406"/>
     </g>
    </g>
   </g>
  </g>
  <g id="axes_2">
   <g id="patch_8">
    <path d="M 57.6 142.411034 
L 414.72 142.411034 
L 414.72 96.529655 
L 57.6 96.529655 
z
" style="fill: #ffffff"/>
   </g>
   <g id="matplotlib.axis_3">
    <g id="xtick_7">
     <g id="line2d_15">
      <g>
       <use xlink:href="#m7d2335643a" x="73.832727" y="142.411034" style="stroke: #000000; stroke-width: 0.8"/>
      </g>
     </g>
    </g>
    <g id="xtick_8">
     <g id="line2d_16">
      <g>
       <use xlink:href="#m7d2335643a" x="138.763636" y="142.411034" style="stroke: #000000; stroke-width: 0.8"/>
      </g>
     </g>
    </g>
    <g id="xtick_9">
     <g id="line2d_17">
      <g>
       <use xlink:href="#m7d2335643a" x="203.694545" y="142.411034" style="stroke: #000000; stroke-width: 0.8"/>
      </g>
     </g>
    </g>
    <g id="xtick_10">
     <g id="line2d_18">
      <g>
       <use xlink:href="#m7d2335643a" x="268.625455" y="142.411034" style="stroke: #000000; stroke-width: 0.8"/>
      </g>
     </g>
    </g>
    <g id="xtick_11">
     <g id="line2d_19">
      <g>
       <use xlink:href="#m7d2335643a" x="333.556364" y="142.411034" style="stroke: #000000; stroke-width: 0.8"/>
      </g>
     </g>
    </g>
    <g id="xtick_12">
     <g id="line2d_20">
      <g>
       <use xlink:href="#m7d2335643a" x="398.487273" y="142.411034" style="stroke: #000000; stroke-width: 0.8"/>
      </g>
     </g>
    </g>
   </g>
   <g id="matplotlib.axis_4">
    <g id="ytick_3">
     <g id="line2d_21">
      <g>
       <use xlink:href="#m796a2615be" x="57.6" y="140.74603" style="stroke: #000000; stroke-width: 0.8"/>
      </g>
     </g>
     <g id="text_8">
      <!-- 0 -->
      <g transform="translate(44.2375 144.545248)scale(0.1 -0.1)">
       <use xlink:href="#DejaVuSans-30"/>
      </g>
     </g>
    </g>
    <g id="ytick_4">
     <g id="line2d_22">
      <g>
       <use xlink:href="#m796a2615be" x="57.6" y="98.771645" style="stroke: #000000; stroke-width: 0.8"/>
      </g>
     </g>
     <g id="text_9">
      <!-- 1 -->
      <g transform="translate(44.2375 102.570864)scale(0.1 -0.1)">
       <use xlink:href="#DejaVuSans-31"/>
      </g>
     </g>
    </g>
   </g>
   <g id="line2d_23">
    <path d="M 73.832727 140.325517 
L 77.079273 123.981438 
L 80.325818 114.061221 
L 83.572364 108.044573 
L 86.818909 104.395235 
L 90.065455 102.182438 
L 93.312 100.839684 
L 96.558545 100.013152 
L 99.805091 99.530754 
L 103.051636 99.231352 
L 106.298182 99.048905 
L 109.544727 98.941229 
L 112.791273 98.876772 
L 116.037818 98.836625 
L 119.284364 98.814736 
L 122.530909 98.726367 
L 125.777455 98.615183 
L 129.024 98.61518 
L 132.270545 98.615178 
L 135.517091 98.615177 
L 138.763636 98.615176 
L 142.010182 98.615175 
L 145.256727 98.615175 
L 148.503273 98.615174 
L 151.749818 98.615174 
L 154.996364 98.615173 
L 158.242909 98.615173 
L 161.489455 98.615173 
L 164.736 98.615173 
L 167.982545 98.615172 
L 171.229091 98.634264 
L 174.475636 113.6019 
L 177.722182 122.612706 
L 180.968727 128.090407 
L 184.215273 131.415867 
L 187.461818 133.424024 
L 190.708364 134.651642 
L 193.954909 135.392875 
L 197.201455 135.844839 
L 200.448 136.120336 
L 203.694545 136.287548 
L 206.941091 136.389882 
L 210.187636 136.452014 
L 213.434182 136.489615 
L 216.680727 136.512689 
L 219.927273 136.526797 
L 223.173818 136.53534 
L 226.420364 136.540378 
L 229.666909 136.543653 
L 232.913455 136.545552 
L 236.16 136.546737 
L 239.406545 136.547537 
L 242.653091 136.547908 
L 245.899636 136.548162 
L 249.146182 136.548333 
L 252.392727 136.548441 
L 255.639273 136.548523 
L 258.885818 136.548561 
L 262.132364 136.54856 
L 265.378909 136.548572 
L 268.625455 136.55539 
L 271.872 138.033938 
L 275.118545 138.930949 
L 278.365091 139.47395 
L 281.611636 139.801982 
L 284.858182 139.999397 
L 288.104727 140.119606 
L 291.351273 140.193261 
L 294.597818 140.238576 
L 297.844364 140.267703 
L 301.090909 140.286099 
L 304.337455 140.298 
L 307.584 140.305734 
L 310.830545 140.310938 
L 314.077091 140.314379 
L 317.323636 140.316771 
L 320.570182 140.318501 
L 323.816727 140.319771 
L 327.063273 140.320714 
L 330.309818 140.321436 
L 333.556364 140.322016 
L 336.802909 140.322484 
L 340.049455 140.322867 
L 343.296 140.32321 
L 346.542545 140.32349 
L 349.789091 140.323744 
L 353.035636 140.323961 
L 356.282182 140.324158 
L 359.528727 140.324333 
L 362.775273 140.32449 
L 366.021818 140.324632 
L 369.268364 140.324759 
L 372.514909 140.324876 
L 375.761455 140.324984 
L 379.008 140.32508 
L 382.254545 140.325168 
L 385.501091 140.325249 
L 388.747636 140.325323 
L 391.994182 140.325391 
L 395.240727 140.325455 
L 398.487273 140.325514 
" clip-path="url(#pa2ed0e596c)" style="fill: none; stroke: #1f77b4; stroke-width: 1.5; stroke-linecap: square"/>
   </g>
   <g id="line2d_24">
    <path d="M 73.832727 140.31232 
L 77.079273 124.07104 
L 80.325818 114.093663 
L 83.572364 108.059675 
L 86.818909 104.403171 
L 90.065455 102.186722 
L 93.312 100.842056 
L 96.558545 100.014509 
L 99.805091 99.531418 
L 103.051636 99.231548 
L 106.298182 99.04894 
L 109.544727 98.941369 
L 112.791273 98.876868 
L 116.037818 98.836697 
L 119.284364 98.814785 
L 122.530909 98.766095 
L 125.777455 98.69535 
L 129.024 98.695348 
L 132.270545 98.695347 
L 135.517091 98.695346 
L 138.763636 98.695345 
L 142.010182 98.695345 
L 145.256727 98.695344 
L 148.503273 98.695344 
L 151.749818 98.695343 
L 154.996364 98.695343 
L 158.242909 98.695343 
L 161.489455 98.695343 
L 164.736 98.695342 
L 167.982545 98.695342 
L 171.229091 98.697905 
L 174.475636 113.611241 
L 177.722182 122.621386 
L 180.968727 128.098113 
L 184.215273 131.423108 
L 187.461818 133.430172 
L 190.708364 134.657409 
L 193.954909 135.396987 
L 197.201455 135.84805 
L 200.448 136.122737 
L 203.694545 136.289274 
L 206.941091 136.391093 
L 210.187636 136.452832 
L 213.434182 136.490162 
L 216.680727 136.513053 
L 219.927273 136.527033 
L 223.173818 136.535491 
L 226.420364 136.540477 
L 229.666909 136.54372 
L 232.913455 136.545596 
L 236.16 136.546766 
L 239.406545 136.547555 
L 242.653091 136.54792 
L 245.899636 136.54817 
L 249.146182 136.548338 
L 252.392727 136.548443 
L 255.639273 136.548524 
L 258.885818 136.548561 
L 262.132364 136.54856 
L 265.378909 136.548572 
L 268.625455 136.554565 
L 271.872 137.988418 
L 275.118545 138.852807 
L 278.365091 139.351035 
L 281.611636 139.636283 
L 284.858182 139.80623 
L 288.104727 139.915391 
L 291.351273 139.99091 
L 294.597818 140.046085 
L 297.844364 140.088209 
L 301.090909 140.121387 
L 304.337455 140.148156 
L 307.584 140.170052 
L 310.830545 140.188238 
L 314.077091 140.203464 
L 317.323636 140.216402 
L 320.570182 140.227647 
L 323.816727 140.237245 
L 327.063273 140.245682 
L 330.309818 140.253058 
L 333.556364 140.259583 
L 336.802909 140.265386 
L 340.049455 140.270528 
L 343.296 140.275155 
L 346.542545 140.279283 
L 349.789091 140.28303 
L 353.035636 140.286402 
L 356.282182 140.289481 
L 359.528727 140.292278 
L 362.775273 140.29483 
L 366.021818 140.297159 
L 369.268364 140.299285 
L 372.514909 140.301245 
L 375.761455 140.303049 
L 379.008 140.304693 
L 382.254545 140.30621 
L 385.501091 140.307611 
L 388.747636 140.308901 
L 391.994182 140.310099 
L 395.240727 140.311218 
L 398.487273 140.312252 
" clip-path="url(#pa2ed0e596c)" style="fill: none; stroke: #ff7f0e; stroke-width: 1.5; stroke-linecap: square"/>
   </g>
   <g id="line2d_25">
    <path d="M 73.832727 140.307516 
L 77.079273 124.098986 
L 80.325818 114.103757 
L 83.572364 108.064402 
L 86.818909 104.405635 
L 90.065455 102.188052 
L 93.312 100.842792 
L 96.558545 100.01493 
L 99.805091 99.531624 
L 103.051636 99.231609 
L 106.298182 99.048951 
L 109.544727 98.941413 
L 112.791273 98.876898 
L 116.037818 98.836719 
L 119.284364 98.8148 
L 122.530909 98.774927 
L 125.777455 98.767626 
L 129.024 98.767626 
L 132.270545 98.767626 
L 135.517091 98.767626 
L 138.763636 98.767626 
L 142.010182 98.767625 
L 145.256727 98.767625 
L 148.503273 98.767625 
L 151.749818 98.767625 
L 154.996364 98.767625 
L 158.242909 98.767625 
L 161.489455 98.767625 
L 164.736 98.767625 
L 167.982545 98.767625 
L 171.229091 98.768649 
L 174.475636 113.634178 
L 177.722182 122.642708 
L 180.968727 128.117039 
L 184.215273 131.440909 
L 187.461818 133.4453 
L 190.708364 134.671684 
L 193.954909 135.407087 
L 197.201455 135.855932 
L 200.448 136.128628 
L 203.694545 136.293507 
L 206.941091 136.394061 
L 210.187636 136.454835 
L 213.434182 136.491502 
L 216.680727 136.513943 
L 219.927273 136.527608 
L 223.173818 136.535861 
L 226.420364 136.540719 
L 229.666909 136.543884 
L 232.913455 136.545705 
L 236.16 136.546835 
L 239.406545 136.547599 
L 242.653091 136.54795 
L 245.899636 136.548188 
L 249.146182 136.548349 
L 252.392727 136.54845 
L 255.639273 136.548526 
L 258.885818 136.548561 
L 262.132364 136.54856 
L 265.378909 136.548572 
L 268.625455 136.554317 
L 271.872 137.974534 
L 275.118545 138.829565 
L 278.365091 139.316102 
L 281.611636 139.591862 
L 284.858182 139.757028 
L 288.104727 139.865145 
L 291.351273 139.941856 
L 294.597818 139.999226 
L 297.844364 140.044018 
L 301.090909 140.08 
L 304.337455 140.109558 
L 307.584 140.134148 
L 310.830545 140.15489 
L 314.077091 140.172517 
L 317.323636 140.187691 
L 320.570182 140.201039 
L 323.816727 140.212554 
L 327.063273 140.222785 
L 330.309818 140.231812 
L 333.556364 140.239864 
L 336.802909 140.247085 
L 340.049455 140.25353 
L 343.296 140.25936 
L 346.542545 140.264597 
L 349.789091 140.269369 
L 353.035636 140.273687 
L 356.282182 140.277642 
L 359.528727 140.28125 
L 362.775273 140.284552 
L 366.021818 140.287577 
L 369.268364 140.290348 
L 372.514909 140.29291 
L 375.761455 140.295272 
L 379.008 140.297432 
L 382.254545 140.299428 
L 385.501091 140.301275 
L 388.747636 140.30298 
L 391.994182 140.304566 
L 395.240727 140.306047 
L 398.487273 140.30742 
" clip-path="url(#pa2ed0e596c)" style="fill: none; stroke: #2ca02c; stroke-width: 1.5; stroke-linecap: square"/>
   </g>
   <g id="patch_9">
    <path d="M 57.6 142.411034 
L 57.6 96.529655 
" style="fill: none; stroke: #000000; stroke-width: 0.8; stroke-linejoin: miter; stroke-linecap: square"/>
   </g>
   <g id="patch_10">
    <path d="M 414.72 142.411034 
L 414.72 96.529655 
" style="fill: none; stroke: #000000; stroke-width: 0.8; stroke-linejoin: miter; stroke-linecap: square"/>
   </g>
   <g id="patch_11">
    <path d="M 57.6 142.411034 
L 414.72 142.411034 
" style="fill: none; stroke: #000000; stroke-width: 0.8; stroke-linejoin: miter; stroke-linecap: square"/>
   </g>
   <g id="patch_12">
    <path d="M 57.6 96.529655 
L 414.72 96.529655 
" style="fill: none; stroke: #000000; stroke-width: 0.8; stroke-linejoin: miter; stroke-linecap: square"/>
   </g>
   <g id="text_10">
    <!-- Pressure -->
    <g transform="translate(210.546562 90.529655)scale(0.12 -0.12)">
     <defs>
      <path id="DejaVuSans-50" d="M 1259 4147 
L 1259 2394 
L 2053 2394 
Q 2494 2394 2734 2622 
Q 2975 2850 2975 3272 
Q 2975 3691 2734 3919 
Q 2494 4147 2053 4147 
L 1259 4147 
z
M 628 4666 
L 2053 4666 
Q 2838 4666 3239 4311 
Q 3641 3956 3641 3272 
Q 3641 2581 3239 2228 
Q 2838 1875 2053 1875 
L 1259 1875 
L 1259 0 
L 628 0 
L 628 4666 
z
" transform="scale(0.015625)"/>
      <path id="DejaVuSans-75" d="M 544 1381 
L 544 3500 
L 1119 3500 
L 1119 1403 
Q 1119 906 1312 657 
Q 1506 409 1894 409 
Q 2359 409 2629 706 
Q 2900 1003 2900 1516 
L 2900 3500 
L 3475 3500 
L 3475 0 
L 2900 0 
L 2900 538 
Q 2691 219 2414 64 
Q 2138 -91 1772 -91 
Q 1169 -91 856 284 
Q 544 659 544 1381 
z
M 1991 3584 
L 1991 3584 
z
" transform="scale(0.015625)"/>
     </defs>
     <use xlink:href="#DejaVuSans-50"/>
     <use xlink:href="#DejaVuSans-72" x="58.552734"/>
     <use xlink:href="#DejaVuSans-65" x="97.416016"/>
     <use xlink:href="#DejaVuSans-73" x="158.939453"/>
     <use xlink:href="#DejaVuSans-73" x="211.039062"/>
     <use xlink:href="#DejaVuSans-75" x="263.138672"/>
     <use xlink:href="#DejaVuSans-72" x="326.517578"/>
     <use xlink:href="#DejaVuSans-65" x="365.380859"/>
    </g>
   </g>
   <g id="legend_2">
    <g id="patch_13">
     <path d="M 350.823125 137.411034 
L 407.72 137.411034 
Q 409.72 137.411034 409.72 135.411034 
L 409.72 92.376659 
Q 409.72 90.376659 407.72 90.376659 
L 350.823125 90.376659 
Q 348.823125 90.376659 348.823125 92.376659 
L 348.823125 135.411034 
Q 348.823125 137.411034 350.823125 137.411034 
z
" style="fill: #ffffff; opacity: 0.8; stroke: #cccccc; stroke-linejoin: miter"/>
    </g>
    <g id="line2d_26">
     <path d="M 352.823125 98.475097 
L 362.823125 98.475097 
L 372.823125 98.475097 
" style="fill: none; stroke: #1f77b4; stroke-width: 1.5; stroke-linecap: square"/>
    </g>
    <g id="text_11">
     <!-- P1 -->
     <g transform="translate(380.823125 101.975097)scale(0.1 -0.1)">
      <use xlink:href="#DejaVuSans-50"/>
      <use xlink:href="#DejaVuSans-31" x="60.302734"/>
     </g>
    </g>
    <g id="line2d_27">
     <path d="M 352.823125 113.153222 
L 362.823125 113.153222 
L 372.823125 113.153222 
" style="fill: none; stroke: #ff7f0e; stroke-width: 1.5; stroke-linecap: square"/>
    </g>
    <g id="text_12">
     <!-- Pmid -->
     <g transform="translate(380.823125 116.653222)scale(0.1 -0.1)">
      <use xlink:href="#DejaVuSans-50"/>
      <use xlink:href="#DejaVuSans-6d" x="60.302734"/>
      <use xlink:href="#DejaVuSans-69" x="157.714844"/>
      <use xlink:href="#DejaVuSans-64" x="185.498047"/>
     </g>
    </g>
    <g id="line2d_28">
     <path d="M 352.823125 127.831347 
L 362.823125 127.831347 
L 372.823125 127.831347 
" style="fill: none; stroke: #2ca02c; stroke-width: 1.5; stroke-linecap: square"/>
    </g>
    <g id="text_13">
     <!-- PN -->
     <g transform="translate(380.823125 131.331347)scale(0.1 -0.1)">
      <use xlink:href="#DejaVuSans-50"/>
      <use xlink:href="#DejaVuSans-4e" x="60.302734"/>
     </g>
    </g>
   </g>
  </g>
  <g id="axes_3">
   <g id="patch_14">
    <path d="M 57.6 197.46869 
L 414.72 197.46869 
L 414.72 151.58731 
L 57.6 151.58731 
z
" style="fill: #ffffff"/>
   </g>
   <g id="matplotlib.axis_5">
    <g id="xtick_13">
     <g id="line2d_29">
      <g>
       <use xlink:href="#m7d2335643a" x="73.832727" y="197.46869" style="stroke: #000000; stroke-width: 0.8"/>
      </g>
     </g>
    </g>
    <g id="xtick_14">
     <g id="line2d_30">
      <g>
       <use xlink:href="#m7d2335643a" x="138.763636" y="197.46869" style="stroke: #000000; stroke-width: 0.8"/>
      </g>
     </g>
    </g>
    <g id="xtick_15">
     <g id="line2d_31">
      <g>
       <use xlink:href="#m7d2335643a" x="203.694545" y="197.46869" style="stroke: #000000; stroke-width: 0.8"/>
      </g>
     </g>
    </g>
    <g id="xtick_16">
     <g id="line2d_32">
      <g>
       <use xlink:href="#m7d2335643a" x="268.625455" y="197.46869" style="stroke: #000000; stroke-width: 0.8"/>
      </g>
     </g>
    </g>
    <g id="xtick_17">
     <g id="line2d_33">
      <g>
       <use xlink:href="#m7d2335643a" x="333.556364" y="197.46869" style="stroke: #000000; stroke-width: 0.8"/>
      </g>
     </g>
    </g>
    <g id="xtick_18">
     <g id="line2d_34">
      <g>
       <use xlink:href="#m7d2335643a" x="398.487273" y="197.46869" style="stroke: #000000; stroke-width: 0.8"/>
      </g>
     </g>
    </g>
   </g>
   <g id="matplotlib.axis_6">
    <g id="ytick_5">
     <g id="line2d_35">
      <g>
       <use xlink:href="#m796a2615be" x="57.6" y="182.797544" style="stroke: #000000; stroke-width: 0.8"/>
      </g>
     </g>
     <g id="text_14">
      <!-- 0.048 -->
      <g transform="translate(21.971875 186.596763)scale(0.1 -0.1)">
       <defs>
        <path id="DejaVuSans-34" d="M 2419 4116 
L 825 1625 
L 2419 1625 
L 2419 4116 
z
M 2253 4666 
L 3047 4666 
L 3047 1625 
L 3713 1625 
L 3713 1100 
L 3047 1100 
L 3047 0 
L 2419 0 
L 2419 1100 
L 313 1100 
L 313 1709 
L 2253 4666 
z
" transform="scale(0.015625)"/>
        <path id="DejaVuSans-38" d="M 2034 2216 
Q 1584 2216 1326 1975 
Q 1069 1734 1069 1313 
Q 1069 891 1326 650 
Q 1584 409 2034 409 
Q 2484 409 2743 651 
Q 3003 894 3003 1313 
Q 3003 1734 2745 1975 
Q 2488 2216 2034 2216 
z
M 1403 2484 
Q 997 2584 770 2862 
Q 544 3141 544 3541 
Q 544 4100 942 4425 
Q 1341 4750 2034 4750 
Q 2731 4750 3128 4425 
Q 3525 4100 3525 3541 
Q 3525 3141 3298 2862 
Q 3072 2584 2669 2484 
Q 3125 2378 3379 2068 
Q 3634 1759 3634 1313 
Q 3634 634 3220 271 
Q 2806 -91 2034 -91 
Q 1263 -91 848 271 
Q 434 634 434 1313 
Q 434 1759 690 2068 
Q 947 2378 1403 2484 
z
M 1172 3481 
Q 1172 3119 1398 2916 
Q 1625 2713 2034 2713 
Q 2441 2713 2670 2916 
Q 2900 3119 2900 3481 
Q 2900 3844 2670 4047 
Q 2441 4250 2034 4250 
Q 1625 4250 1398 4047 
Q 1172 3844 1172 3481 
z
" transform="scale(0.015625)"/>
       </defs>
       <use xlink:href="#DejaVuSans-30"/>
       <use xlink:href="#DejaVuSans-2e" x="63.623047"/>
       <use xlink:href="#DejaVuSans-30" x="95.410156"/>
       <use xlink:href="#DejaVuSans-34" x="159.033203"/>
       <use xlink:href="#DejaVuSans-38" x="222.65625"/>
      </g>
     </g>
    </g>
    <g id="ytick_6">
     <g id="line2d_36">
      <g>
       <use xlink:href="#m796a2615be" x="57.6" y="156.455355" style="stroke: #000000; stroke-width: 0.8"/>
      </g>
     </g>
     <g id="text_15">
      <!-- 0.050 -->
      <g transform="translate(21.971875 160.254573)scale(0.1 -0.1)">
       <use xlink:href="#DejaVuSans-30"/>
       <use xlink:href="#DejaVuSans-2e" x="63.623047"/>
       <use xlink:href="#DejaVuSans-30" x="95.410156"/>
       <use xlink:href="#DejaVuSans-35" x="159.033203"/>
       <use xlink:href="#DejaVuSans-30" x="222.65625"/>
      </g>
     </g>
    </g>
    <g id="text_16">
     <!-- fraction -->
     <g transform="translate(15.892187 193.73425)rotate(-90)scale(0.1 -0.1)">
      <use xlink:href="#DejaVuSans-66"/>
      <use xlink:href="#DejaVuSans-72" x="35.205078"/>
      <use xlink:href="#DejaVuSans-61" x="76.318359"/>
      <use xlink:href="#DejaVuSans-63" x="137.597656"/>
      <use xlink:href="#DejaVuSans-74" x="192.578125"/>
      <use xlink:href="#DejaVuSans-69" x="231.787109"/>
      <use xlink:href="#DejaVuSans-6f" x="259.570312"/>
      <use xlink:href="#DejaVuSans-6e" x="320.751953"/>
     </g>
    </g>
   </g>
   <g id="line2d_37">
    <path d="M 73.832727 195.383172 
L 77.079273 155.526536 
L 80.325818 155.439745 
L 83.572364 154.462217 
L 86.818909 155.244262 
L 90.065455 155.01426 
L 93.312 155.011459 
L 96.558545 154.998865 
L 99.805091 155.012482 
L 103.051636 155.18178 
L 106.298182 154.933339 
L 109.544727 154.40447 
L 112.791273 154.820384 
L 116.037818 154.879555 
L 119.284364 154.873504 
L 122.530909 154.903549 
L 125.777455 156.243803 
L 129.024 156.310147 
L 132.270545 156.355909 
L 135.517091 156.382442 
L 138.763636 156.398939 
L 142.010182 156.415437 
L 145.256727 156.425289 
L 148.503273 156.432229 
L 151.749818 156.439168 
L 154.996364 156.442066 
L 158.242909 156.444123 
L 161.489455 156.44618 
L 164.736 156.448237 
L 167.982545 156.450294 
L 171.229091 156.452036 
L 174.475636 156.631877 
L 177.722182 156.952755 
L 180.968727 157.380159 
L 184.215273 157.890348 
L 187.461818 158.423862 
L 190.708364 158.92494 
L 193.954909 159.340349 
L 197.201455 159.655491 
L 200.448 159.878367 
L 203.694545 160.026723 
L 206.941091 160.123211 
L 210.187636 160.184133 
L 213.434182 160.221738 
L 216.680727 160.244994 
L 219.927273 160.259533 
L 223.173818 160.268296 
L 226.420364 160.273474 
L 229.666909 160.276809 
L 232.913455 160.278761 
L 236.16 160.27998 
L 239.406545 160.280783 
L 242.653091 160.281143 
L 245.899636 160.281381 
L 249.146182 160.281534 
L 252.392727 160.28162 
L 255.639273 160.28168 
L 258.885818 160.281695 
L 262.132364 160.281668 
L 265.378909 160.281654 
L 268.625455 160.287502 
L 271.872 162.602433 
L 275.118545 165.852729 
L 278.365091 169.96545 
L 281.611636 174.613002 
L 284.858182 178.709189 
L 288.104727 183.154322 
L 291.351273 186.579049 
L 294.597818 189.135831 
L 297.844364 190.953254 
L 301.090909 192.223746 
L 304.337455 193.095579 
L 307.584 193.68262 
L 310.830545 194.084125 
L 314.077091 194.355883 
L 317.323636 194.550152 
L 320.570182 194.681541 
L 323.816727 194.78538 
L 327.063273 194.860649 
L 330.309818 194.919144 
L 333.556364 194.966765 
L 336.802909 195.005842 
L 340.049455 195.038609 
L 343.296 195.068516 
L 346.542545 195.093577 
L 349.789091 195.116727 
L 353.035636 195.13692 
L 356.282182 195.155441 
L 359.528727 195.172233 
L 362.775273 195.187581 
L 366.021818 195.201651 
L 369.268364 195.214536 
L 372.514909 195.226572 
L 375.761455 195.237732 
L 379.008 195.247873 
L 382.254545 195.257253 
L 385.501091 195.265947 
L 388.747636 195.274004 
L 391.994182 195.281527 
L 395.240727 195.288582 
L 398.487273 195.295134 
" clip-path="url(#p891528f401)" style="fill: none; stroke: #1f77b4; stroke-width: 1.5; stroke-linecap: square"/>
   </g>
   <g id="line2d_38">
    <path d="M 73.832727 195.307236 
L 77.079273 154.422604 
L 80.325818 153.958186 
L 83.572364 153.822427 
L 86.818909 153.764436 
L 90.065455 153.735222 
L 93.312 153.719532 
L 96.558545 153.710634 
L 99.805091 153.705743 
L 103.051636 153.702991 
L 106.298182 153.701484 
L 109.544727 153.700763 
L 112.791273 153.700456 
L 116.037818 153.700387 
L 119.284364 153.700476 
L 122.530909 153.700565 
L 125.777455 153.672828 
L 129.024 153.809527 
L 132.270545 153.98213 
L 135.517091 154.177637 
L 138.763636 154.382285 
L 142.010182 154.586933 
L 145.256727 154.776121 
L 148.503273 154.958531 
L 151.749818 155.140941 
L 154.996364 155.270544 
L 158.242909 155.389173 
L 161.489455 155.507802 
L 164.736 155.626432 
L 167.982545 155.745061 
L 171.229091 155.858818 
L 174.475636 155.958064 
L 177.722182 156.286782 
L 180.968727 156.72022 
L 184.215273 157.237041 
L 187.461818 157.775344 
L 190.708364 158.281932 
L 193.954909 158.698374 
L 197.201455 159.014462 
L 200.448 159.237108 
L 203.694545 159.384658 
L 206.941091 159.480262 
L 210.187636 159.540338 
L 213.434182 159.57736 
L 216.680727 159.600242 
L 219.927273 159.614536 
L 223.173818 159.623183 
L 226.420364 159.628344 
L 229.666909 159.631727 
L 232.913455 159.633751 
L 236.16 159.635061 
L 239.406545 159.635974 
L 242.653091 159.636458 
L 245.899636 159.636825 
L 249.146182 159.637111 
L 252.392727 159.637333 
L 255.639273 159.63753 
L 258.885818 159.637684 
L 262.132364 159.637799 
L 265.378909 159.637927 
L 268.625455 159.643039 
L 271.872 161.82663 
L 275.118545 164.721536 
L 278.365091 167.886379 
L 281.611636 170.84535 
L 284.858182 173.128924 
L 288.104727 175.460419 
L 291.351273 177.413749 
L 294.597818 178.991817 
L 297.844364 180.490124 
L 301.090909 181.808941 
L 304.337455 183.000443 
L 307.584 184.07666 
L 310.830545 185.048033 
L 314.077091 185.932236 
L 317.323636 186.739742 
L 320.570182 187.463349 
L 323.816727 188.149457 
L 327.063273 188.76091 
L 330.309818 189.331141 
L 333.556364 189.853556 
L 336.802909 190.326651 
L 340.049455 190.769018 
L 343.296 191.177665 
L 346.542545 191.553999 
L 349.789091 191.901391 
L 353.035636 192.223133 
L 356.282182 192.522065 
L 359.528727 192.799056 
L 362.775273 193.055979 
L 366.021818 193.294247 
L 369.268364 193.51506 
L 372.514909 193.720442 
L 375.761455 193.911587 
L 379.008 194.089465 
L 382.254545 194.255791 
L 385.501091 194.411174 
L 388.747636 194.555183 
L 391.994182 194.68946 
L 395.240727 194.814918 
L 398.487273 194.932677 
" clip-path="url(#p891528f401)" style="fill: none; stroke: #ff7f0e; stroke-width: 1.5; stroke-linecap: square"/>
   </g>
   <g id="patch_15">
    <path d="M 57.6 197.46869 
L 57.6 151.58731 
" style="fill: none; stroke: #000000; stroke-width: 0.8; stroke-linejoin: miter; stroke-linecap: square"/>
   </g>
   <g id="patch_16">
    <path d="M 414.72 197.46869 
L 414.72 151.58731 
" style="fill: none; stroke: #000000; stroke-width: 0.8; stroke-linejoin: miter; stroke-linecap: square"/>
   </g>
   <g id="patch_17">
    <path d="M 57.6 197.46869 
L 414.72 197.46869 
" style="fill: none; stroke: #000000; stroke-width: 0.8; stroke-linejoin: miter; stroke-linecap: square"/>
   </g>
   <g id="patch_18">
    <path d="M 57.6 151.58731 
L 414.72 151.58731 
" style="fill: none; stroke: #000000; stroke-width: 0.8; stroke-linejoin: miter; stroke-linecap: square"/>
   </g>
   <g id="text_17">
    <!-- yA -->
    <g transform="translate(228.504375 145.58731)scale(0.12 -0.12)">
     <defs>
      <path id="DejaVuSans-41" d="M 2188 4044 
L 1331 1722 
L 3047 1722 
L 2188 4044 
z
M 1831 4666 
L 2547 4666 
L 4325 0 
L 3669 0 
L 3244 1197 
L 1141 1197 
L 716 0 
L 50 0 
L 1831 4666 
z
" transform="scale(0.015625)"/>
     </defs>
     <use xlink:href="#DejaVuSans-79"/>
     <use xlink:href="#DejaVuSans-41" x="59.179688"/>
    </g>
   </g>
   <g id="legend_3">
    <g id="patch_19">
     <path d="M 330.030938 188.94356 
L 407.72 188.94356 
Q 409.72 188.94356 409.72 186.94356 
L 409.72 158.58731 
Q 409.72 156.58731 407.72 156.58731 
L 330.030938 156.58731 
Q 328.030938 156.58731 328.030938 158.58731 
L 328.030938 186.94356 
Q 328.030938 188.94356 330.030938 188.94356 
z
" style="fill: #ffffff; opacity: 0.8; stroke: #cccccc; stroke-linejoin: miter"/>
    </g>
    <g id="line2d_39">
     <path d="M 332.030938 164.685748 
L 342.030938 164.685748 
L 352.030938 164.685748 
" style="fill: none; stroke: #1f77b4; stroke-width: 1.5; stroke-linecap: square"/>
    </g>
    <g id="text_18">
     <!-- yA0 (in) -->
     <g transform="translate(360.030938 168.185748)scale(0.1 -0.1)">
      <use xlink:href="#DejaVuSans-79"/>
      <use xlink:href="#DejaVuSans-41" x="59.179688"/>
      <use xlink:href="#DejaVuSans-30" x="127.587891"/>
      <use xlink:href="#DejaVuSans-20" x="191.210938"/>
      <use xlink:href="#DejaVuSans-28" x="222.998047"/>
      <use xlink:href="#DejaVuSans-69" x="262.011719"/>
      <use xlink:href="#DejaVuSans-6e" x="289.794922"/>
      <use xlink:href="#DejaVuSans-29" x="353.173828"/>
     </g>
    </g>
    <g id="line2d_40">
     <path d="M 332.030938 179.363873 
L 342.030938 179.363873 
L 352.030938 179.363873 
" style="fill: none; stroke: #ff7f0e; stroke-width: 1.5; stroke-linecap: square"/>
    </g>
    <g id="text_19">
     <!-- yAL (out) -->
     <g transform="translate(360.030938 182.863873)scale(0.1 -0.1)">
      <defs>
       <path id="DejaVuSans-4c" d="M 628 4666 
L 1259 4666 
L 1259 531 
L 3531 531 
L 3531 0 
L 628 0 
L 628 4666 
z
" transform="scale(0.015625)"/>
      </defs>
      <use xlink:href="#DejaVuSans-79"/>
      <use xlink:href="#DejaVuSans-41" x="59.179688"/>
      <use xlink:href="#DejaVuSans-4c" x="127.587891"/>
      <use xlink:href="#DejaVuSans-20" x="183.300781"/>
      <use xlink:href="#DejaVuSans-28" x="215.087891"/>
      <use xlink:href="#DejaVuSans-6f" x="254.101562"/>
      <use xlink:href="#DejaVuSans-75" x="315.283203"/>
      <use xlink:href="#DejaVuSans-74" x="378.662109"/>
      <use xlink:href="#DejaVuSans-29" x="417.871094"/>
     </g>
    </g>
   </g>
  </g>
  <g id="axes_4">
   <g id="patch_20">
    <path d="M 57.6 252.526345 
L 414.72 252.526345 
L 414.72 206.644966 
L 57.6 206.644966 
z
" style="fill: #ffffff"/>
   </g>
   <g id="matplotlib.axis_7">
    <g id="xtick_19">
     <g id="line2d_41">
      <g>
       <use xlink:href="#m7d2335643a" x="73.832727" y="252.526345" style="stroke: #000000; stroke-width: 0.8"/>
      </g>
     </g>
    </g>
    <g id="xtick_20">
     <g id="line2d_42">
      <g>
       <use xlink:href="#m7d2335643a" x="138.763636" y="252.526345" style="stroke: #000000; stroke-width: 0.8"/>
      </g>
     </g>
    </g>
    <g id="xtick_21">
     <g id="line2d_43">
      <g>
       <use xlink:href="#m7d2335643a" x="203.694545" y="252.526345" style="stroke: #000000; stroke-width: 0.8"/>
      </g>
     </g>
    </g>
    <g id="xtick_22">
     <g id="line2d_44">
      <g>
       <use xlink:href="#m7d2335643a" x="268.625455" y="252.526345" style="stroke: #000000; stroke-width: 0.8"/>
      </g>
     </g>
    </g>
    <g id="xtick_23">
     <g id="line2d_45">
      <g>
       <use xlink:href="#m7d2335643a" x="333.556364" y="252.526345" style="stroke: #000000; stroke-width: 0.8"/>
      </g>
     </g>
    </g>
    <g id="xtick_24">
     <g id="line2d_46">
      <g>
       <use xlink:href="#m7d2335643a" x="398.487273" y="252.526345" style="stroke: #000000; stroke-width: 0.8"/>
      </g>
     </g>
    </g>
   </g>
   <g id="matplotlib.axis_8">
    <g id="ytick_7">
     <g id="line2d_47">
      <g>
       <use xlink:href="#m796a2615be" x="57.6" y="248.498621" style="stroke: #000000; stroke-width: 0.8"/>
      </g>
     </g>
     <g id="text_20">
      <!-- 0.899 -->
      <g transform="translate(21.971875 252.29784)scale(0.1 -0.1)">
       <defs>
        <path id="DejaVuSans-39" d="M 703 97 
L 703 672 
Q 941 559 1184 500 
Q 1428 441 1663 441 
Q 2288 441 2617 861 
Q 2947 1281 2994 2138 
Q 2813 1869 2534 1725 
Q 2256 1581 1919 1581 
Q 1219 1581 811 2004 
Q 403 2428 403 3163 
Q 403 3881 828 4315 
Q 1253 4750 1959 4750 
Q 2769 4750 3195 4129 
Q 3622 3509 3622 2328 
Q 3622 1225 3098 567 
Q 2575 -91 1691 -91 
Q 1453 -91 1209 -44 
Q 966 3 703 97 
z
M 1959 2075 
Q 2384 2075 2632 2365 
Q 2881 2656 2881 3163 
Q 2881 3666 2632 3958 
Q 2384 4250 1959 4250 
Q 1534 4250 1286 3958 
Q 1038 3666 1038 3163 
Q 1038 2656 1286 2365 
Q 1534 2075 1959 2075 
z
" transform="scale(0.015625)"/>
       </defs>
       <use xlink:href="#DejaVuSans-30"/>
       <use xlink:href="#DejaVuSans-2e" x="63.623047"/>
       <use xlink:href="#DejaVuSans-38" x="95.410156"/>
       <use xlink:href="#DejaVuSans-39" x="159.033203"/>
       <use xlink:href="#DejaVuSans-39" x="222.65625"/>
      </g>
     </g>
    </g>
    <g id="ytick_8">
     <g id="line2d_48">
      <g>
       <use xlink:href="#m796a2615be" x="57.6" y="222.674241" style="stroke: #000000; stroke-width: 0.8"/>
      </g>
     </g>
     <g id="text_21">
      <!-- 0.900 -->
      <g transform="translate(21.971875 226.47346)scale(0.1 -0.1)">
       <use xlink:href="#DejaVuSans-30"/>
       <use xlink:href="#DejaVuSans-2e" x="63.623047"/>
       <use xlink:href="#DejaVuSans-39" x="95.410156"/>
       <use xlink:href="#DejaVuSans-30" x="159.033203"/>
       <use xlink:href="#DejaVuSans-30" x="222.65625"/>
      </g>
     </g>
    </g>
    <g id="text_22">
     <!-- fraction -->
     <g transform="translate(15.892187 248.791905)rotate(-90)scale(0.1 -0.1)">
      <use xlink:href="#DejaVuSans-66"/>
      <use xlink:href="#DejaVuSans-72" x="35.205078"/>
      <use xlink:href="#DejaVuSans-61" x="76.318359"/>
      <use xlink:href="#DejaVuSans-63" x="137.597656"/>
      <use xlink:href="#DejaVuSans-74" x="192.578125"/>
      <use xlink:href="#DejaVuSans-69" x="231.787109"/>
      <use xlink:href="#DejaVuSans-6f" x="259.570312"/>
      <use xlink:href="#DejaVuSans-6e" x="320.751953"/>
     </g>
    </g>
   </g>
   <g id="line2d_49">
    <path d="M 73.832727 208.730483 
L 77.079273 224.147234 
L 80.325818 223.725882 
L 83.572364 225.883081 
L 86.818909 223.993035 
L 90.065455 223.986439 
L 93.312 223.957159 
L 96.558545 223.954383 
L 99.805091 223.947857 
L 103.051636 223.958755 
L 106.298182 223.979817 
L 109.544727 225.807942 
L 112.791273 224.436117 
L 116.037818 224.31595 
L 119.284364 224.329838 
L 122.530909 224.295375 
L 125.777455 222.314964 
L 129.024 222.31268 
L 132.270545 222.329806 
L 135.517091 222.357088 
L 138.763636 222.387892 
L 142.010182 222.418696 
L 145.256727 222.446413 
L 148.503273 222.472778 
L 151.749818 222.499142 
L 154.996364 222.516796 
L 158.242909 222.532639 
L 161.489455 222.548482 
L 164.736 222.564326 
L 167.982545 222.580169 
L 171.229091 222.595034 
L 174.475636 222.543089 
L 177.722182 222.404167 
L 180.968727 222.208602 
L 184.215273 221.96998 
L 187.461818 221.715233 
L 190.708364 221.472852 
L 193.954909 221.268868 
L 197.201455 221.115738 
L 200.448 221.00734 
L 203.694545 220.935006 
L 206.941091 220.88803 
L 210.187636 220.858249 
L 213.434182 220.839903 
L 216.680727 220.828542 
L 219.927273 220.82144 
L 223.173818 220.817132 
L 226.420364 220.814602 
L 229.666909 220.812977 
L 232.913455 220.812014 
L 236.16 220.811407 
L 239.406545 220.811006 
L 242.653091 220.810824 
L 245.899636 220.8107 
L 249.146182 220.81062 
L 252.392727 220.810573 
L 255.639273 220.810538 
L 258.885818 220.810525 
L 262.132364 220.810533 
L 265.378909 220.810535 
L 268.625455 220.809091 
L 271.872 219.76212 
L 275.118545 218.282775 
L 278.365091 216.517785 
L 281.611636 214.698487 
L 284.858182 212.993943 
L 288.104727 211.766763 
L 291.351273 210.869569 
L 294.597818 210.319791 
L 297.844364 209.845902 
L 301.090909 209.542685 
L 304.337455 209.340553 
L 307.584 209.21054 
L 310.830545 209.126126 
L 314.077091 209.071505 
L 317.323636 209.032704 
L 320.570182 209.008527 
L 323.816727 208.988735 
L 327.063273 208.973653 
L 330.309818 208.961374 
L 333.556364 208.95049 
L 336.802909 208.940414 
L 340.049455 208.930875 
L 343.296 208.921168 
L 346.542545 208.91222 
L 349.789091 208.903469 
L 353.035636 208.895184 
L 356.282182 208.887274 
L 359.528727 208.879701 
L 362.775273 208.87245 
L 366.021818 208.86549 
L 369.268364 208.858786 
L 372.514909 208.852325 
L 375.761455 208.846161 
L 379.008 208.840384 
L 382.254545 208.834962 
L 385.501091 208.829861 
L 388.747636 208.824984 
L 391.994182 208.820362 
L 395.240727 208.815981 
L 398.487273 208.811851 
" clip-path="url(#p3a7f62c9ba)" style="fill: none; stroke: #1f77b4; stroke-width: 1.5; stroke-linecap: square"/>
   </g>
   <g id="line2d_50">
    <path d="M 73.832727 231.107707 
L 77.079273 250.125106 
L 80.325818 250.378429 
L 83.572364 250.432436 
L 86.818909 250.440828 
L 90.065455 250.434593 
L 93.312 250.421674 
L 96.558545 250.40549 
L 99.805091 250.388259 
L 103.051636 250.369866 
L 106.298182 250.350722 
L 109.544727 250.331146 
L 112.791273 250.311836 
L 116.037818 250.292487 
L 119.284364 250.27324 
L 122.530909 250.252136 
L 125.777455 245.949018 
L 129.024 244.280278 
L 132.270545 242.629581 
L 135.517091 241.086664 
L 138.763636 239.6217 
L 142.010182 238.156737 
L 145.256727 236.851558 
L 148.503273 235.616436 
L 151.749818 234.381313 
L 154.996364 233.453633 
L 158.242909 232.589838 
L 161.489455 231.726043 
L 164.736 230.862248 
L 167.982545 229.998454 
L 171.229091 229.162332 
L 174.475636 229.839117 
L 177.722182 229.654026 
L 180.968727 229.428577 
L 184.215273 229.160911 
L 187.461818 228.890003 
L 190.708364 228.627223 
L 193.954909 228.416693 
L 197.201455 228.255929 
L 200.448 228.142457 
L 203.694545 228.066903 
L 206.941091 228.01766 
L 210.187636 227.986346 
L 213.434182 227.96674 
L 216.680727 227.954265 
L 219.927273 227.946185 
L 223.173818 227.940928 
L 226.420364 227.937452 
L 229.666909 227.934872 
L 232.913455 227.932988 
L 236.16 227.931467 
L 239.406545 227.930143 
L 242.653091 227.929039 
L 245.899636 227.927993 
L 249.146182 227.92699 
L 252.392727 227.926019 
L 255.639273 227.925062 
L 258.885818 227.924127 
L 262.132364 227.923212 
L 265.378909 227.922291 
L 268.625455 227.920183 
L 271.872 226.93952 
L 275.118545 225.611872 
L 278.365091 224.198109 
L 281.611636 222.911332 
L 284.858182 221.859836 
L 288.104727 220.928922 
L 291.351273 220.160378 
L 294.597818 219.49741 
L 297.844364 218.912985 
L 301.090909 218.390441 
L 304.337455 217.922627 
L 307.584 217.503748 
L 310.830545 217.128829 
L 314.077091 216.790203 
L 317.323636 216.483139 
L 320.570182 216.208433 
L 323.816727 215.952282 
L 327.063273 215.72305 
L 330.309818 215.511818 
L 333.556364 215.318874 
L 336.802909 215.14377 
L 340.049455 214.981968 
L 343.296 214.833152 
L 346.542545 214.69646 
L 349.789091 214.570367 
L 353.035636 214.454165 
L 356.282182 214.346574 
L 359.528727 214.247088 
L 362.775273 214.154905 
L 366.021818 214.069605 
L 369.268364 213.990816 
L 372.514909 213.917684 
L 375.761455 213.849754 
L 379.008 213.786659 
L 382.254545 213.727738 
L 385.501091 213.672753 
L 388.747636 213.621865 
L 391.994182 213.574446 
L 395.240727 213.530157 
L 398.487273 213.488666 
" clip-path="url(#p3a7f62c9ba)" style="fill: none; stroke: #ff7f0e; stroke-width: 1.5; stroke-linecap: square"/>
   </g>
   <g id="patch_21">
    <path d="M 57.6 252.526345 
L 57.6 206.644966 
" style="fill: none; stroke: #000000; stroke-width: 0.8; stroke-linejoin: miter; stroke-linecap: square"/>
   </g>
   <g id="patch_22">
    <path d="M 414.72 252.526345 
L 414.72 206.644966 
" style="fill: none; stroke: #000000; stroke-width: 0.8; stroke-linejoin: miter; stroke-linecap: square"/>
   </g>
   <g id="patch_23">
    <path d="M 57.6 252.526345 
L 414.72 252.526345 
" style="fill: none; stroke: #000000; stroke-width: 0.8; stroke-linejoin: miter; stroke-linecap: square"/>
   </g>
   <g id="patch_24">
    <path d="M 57.6 206.644966 
L 414.72 206.644966 
" style="fill: none; stroke: #000000; stroke-width: 0.8; stroke-linejoin: miter; stroke-linecap: square"/>
   </g>
   <g id="text_23">
    <!-- yB -->
    <g transform="translate(228.492188 200.644966)scale(0.12 -0.12)">
     <defs>
      <path id="DejaVuSans-42" d="M 1259 2228 
L 1259 519 
L 2272 519 
Q 2781 519 3026 730 
Q 3272 941 3272 1375 
Q 3272 1813 3026 2020 
Q 2781 2228 2272 2228 
L 1259 2228 
z
M 1259 4147 
L 1259 2741 
L 2194 2741 
Q 2656 2741 2882 2914 
Q 3109 3088 3109 3444 
Q 3109 3797 2882 3972 
Q 2656 4147 2194 4147 
L 1259 4147 
z
M 628 4666 
L 2241 4666 
Q 2963 4666 3353 4366 
Q 3744 4066 3744 3513 
Q 3744 3084 3544 2831 
Q 3344 2578 2956 2516 
Q 3422 2416 3680 2098 
Q 3938 1781 3938 1306 
Q 3938 681 3513 340 
Q 3088 0 2303 0 
L 628 0 
L 628 4666 
z
" transform="scale(0.015625)"/>
     </defs>
     <use xlink:href="#DejaVuSans-79"/>
     <use xlink:href="#DejaVuSans-42" x="59.179688"/>
    </g>
   </g>
   <g id="legend_4">
    <g id="patch_25">
     <path d="M 330.010625 247.526345 
L 407.72 247.526345 
Q 409.72 247.526345 409.72 245.526345 
L 409.72 217.170095 
Q 409.72 215.170095 407.72 215.170095 
L 330.010625 215.170095 
Q 328.010625 215.170095 328.010625 217.170095 
L 328.010625 245.526345 
Q 328.010625 247.526345 330.010625 247.526345 
z
" style="fill: #ffffff; opacity: 0.8; stroke: #cccccc; stroke-linejoin: miter"/>
    </g>
    <g id="line2d_51">
     <path d="M 332.010625 223.268532 
L 342.010625 223.268532 
L 352.010625 223.268532 
" style="fill: none; stroke: #1f77b4; stroke-width: 1.5; stroke-linecap: square"/>
    </g>
    <g id="text_24">
     <!-- yB0 (in) -->
     <g transform="translate(360.010625 226.768532)scale(0.1 -0.1)">
      <use xlink:href="#DejaVuSans-79"/>
      <use xlink:href="#DejaVuSans-42" x="59.179688"/>
      <use xlink:href="#DejaVuSans-30" x="127.783203"/>
      <use xlink:href="#DejaVuSans-20" x="191.40625"/>
      <use xlink:href="#DejaVuSans-28" x="223.193359"/>
      <use xlink:href="#DejaVuSans-69" x="262.207031"/>
      <use xlink:href="#DejaVuSans-6e" x="289.990234"/>
      <use xlink:href="#DejaVuSans-29" x="353.369141"/>
     </g>
    </g>
    <g id="line2d_52">
     <path d="M 332.010625 237.946657 
L 342.010625 237.946657 
L 352.010625 237.946657 
" style="fill: none; stroke: #ff7f0e; stroke-width: 1.5; stroke-linecap: square"/>
    </g>
    <g id="text_25">
     <!-- yBL (out) -->
     <g transform="translate(360.010625 241.446657)scale(0.1 -0.1)">
      <use xlink:href="#DejaVuSans-79"/>
      <use xlink:href="#DejaVuSans-42" x="59.179688"/>
      <use xlink:href="#DejaVuSans-4c" x="127.783203"/>
      <use xlink:href="#DejaVuSans-20" x="183.496094"/>
      <use xlink:href="#DejaVuSans-28" x="215.283203"/>
      <use xlink:href="#DejaVuSans-6f" x="254.296875"/>
      <use xlink:href="#DejaVuSans-75" x="315.478516"/>
      <use xlink:href="#DejaVuSans-74" x="378.857422"/>
      <use xlink:href="#DejaVuSans-29" x="418.066406"/>
     </g>
    </g>
   </g>
  </g>
  <g id="axes_5">
   <g id="patch_26">
    <path d="M 57.6 307.584 
L 414.72 307.584 
L 414.72 261.702621 
L 57.6 261.702621 
z
" style="fill: #ffffff"/>
   </g>
   <g id="matplotlib.axis_9">
    <g id="xtick_25">
     <g id="line2d_53">
      <g>
       <use xlink:href="#m7d2335643a" x="73.832727" y="307.584" style="stroke: #000000; stroke-width: 0.8"/>
      </g>
     </g>
     <g id="text_26">
      <!-- 0 -->
      <g transform="translate(70.651477 322.182437)scale(0.1 -0.1)">
       <use xlink:href="#DejaVuSans-30"/>
      </g>
     </g>
    </g>
    <g id="xtick_26">
     <g id="line2d_54">
      <g>
       <use xlink:href="#m7d2335643a" x="138.763636" y="307.584" style="stroke: #000000; stroke-width: 0.8"/>
      </g>
     </g>
     <g id="text_27">
      <!-- 20 -->
      <g transform="translate(132.401136 322.182437)scale(0.1 -0.1)">
       <use xlink:href="#DejaVuSans-32"/>
       <use xlink:href="#DejaVuSans-30" x="63.623047"/>
      </g>
     </g>
    </g>
    <g id="xtick_27">
     <g id="line2d_55">
      <g>
       <use xlink:href="#m7d2335643a" x="203.694545" y="307.584" style="stroke: #000000; stroke-width: 0.8"/>
      </g>
     </g>
     <g id="text_28">
      <!-- 40 -->
      <g transform="translate(197.332045 322.182437)scale(0.1 -0.1)">
       <use xlink:href="#DejaVuSans-34"/>
       <use xlink:href="#DejaVuSans-30" x="63.623047"/>
      </g>
     </g>
    </g>
    <g id="xtick_28">
     <g id="line2d_56">
      <g>
       <use xlink:href="#m7d2335643a" x="268.625455" y="307.584" style="stroke: #000000; stroke-width: 0.8"/>
      </g>
     </g>
     <g id="text_29">
      <!-- 60 -->
      <g transform="translate(262.262955 322.182437)scale(0.1 -0.1)">
       <defs>
        <path id="DejaVuSans-36" d="M 2113 2584 
Q 1688 2584 1439 2293 
Q 1191 2003 1191 1497 
Q 1191 994 1439 701 
Q 1688 409 2113 409 
Q 2538 409 2786 701 
Q 3034 994 3034 1497 
Q 3034 2003 2786 2293 
Q 2538 2584 2113 2584 
z
M 3366 4563 
L 3366 3988 
Q 3128 4100 2886 4159 
Q 2644 4219 2406 4219 
Q 1781 4219 1451 3797 
Q 1122 3375 1075 2522 
Q 1259 2794 1537 2939 
Q 1816 3084 2150 3084 
Q 2853 3084 3261 2657 
Q 3669 2231 3669 1497 
Q 3669 778 3244 343 
Q 2819 -91 2113 -91 
Q 1303 -91 875 529 
Q 447 1150 447 2328 
Q 447 3434 972 4092 
Q 1497 4750 2381 4750 
Q 2619 4750 2861 4703 
Q 3103 4656 3366 4563 
z
" transform="scale(0.015625)"/>
       </defs>
       <use xlink:href="#DejaVuSans-36"/>
       <use xlink:href="#DejaVuSans-30" x="63.623047"/>
      </g>
     </g>
    </g>
    <g id="xtick_29">
     <g id="line2d_57">
      <g>
       <use xlink:href="#m7d2335643a" x="333.556364" y="307.584" style="stroke: #000000; stroke-width: 0.8"/>
      </g>
     </g>
     <g id="text_30">
      <!-- 80 -->
      <g transform="translate(327.193864 322.182437)scale(0.1 -0.1)">
       <use xlink:href="#DejaVuSans-38"/>
       <use xlink:href="#DejaVuSans-30" x="63.623047"/>
      </g>
     </g>
    </g>
    <g id="xtick_30">
     <g id="line2d_58">
      <g>
       <use xlink:href="#m7d2335643a" x="398.487273" y="307.584" style="stroke: #000000; stroke-width: 0.8"/>
      </g>
     </g>
     <g id="text_31">
      <!-- 100 -->
      <g transform="translate(388.943523 322.182437)scale(0.1 -0.1)">
       <use xlink:href="#DejaVuSans-31"/>
       <use xlink:href="#DejaVuSans-30" x="63.623047"/>
       <use xlink:href="#DejaVuSans-30" x="127.246094"/>
      </g>
     </g>
    </g>
    <g id="text_32">
     <!-- time (normalized) -->
     <g transform="translate(191.589687 335.860562)scale(0.1 -0.1)">
      <use xlink:href="#DejaVuSans-74"/>
      <use xlink:href="#DejaVuSans-69" x="39.208984"/>
      <use xlink:href="#DejaVuSans-6d" x="66.992188"/>
      <use xlink:href="#DejaVuSans-65" x="164.404297"/>
      <use xlink:href="#DejaVuSans-20" x="225.927734"/>
      <use xlink:href="#DejaVuSans-28" x="257.714844"/>
      <use xlink:href="#DejaVuSans-6e" x="296.728516"/>
      <use xlink:href="#DejaVuSans-6f" x="360.107422"/>
      <use xlink:href="#DejaVuSans-72" x="421.289062"/>
      <use xlink:href="#DejaVuSans-6d" x="460.652344"/>
      <use xlink:href="#DejaVuSans-61" x="558.064453"/>
      <use xlink:href="#DejaVuSans-6c" x="619.34375"/>
      <use xlink:href="#DejaVuSans-69" x="647.126953"/>
      <use xlink:href="#DejaVuSans-7a" x="674.910156"/>
      <use xlink:href="#DejaVuSans-65" x="727.400391"/>
      <use xlink:href="#DejaVuSans-64" x="788.923828"/>
      <use xlink:href="#DejaVuSans-29" x="852.400391"/>
     </g>
    </g>
   </g>
   <g id="matplotlib.axis_10">
    <g id="ytick_9">
     <g id="line2d_59">
      <g>
       <use xlink:href="#m796a2615be" x="57.6" y="304.687065" style="stroke: #000000; stroke-width: 0.8"/>
      </g>
     </g>
     <g id="text_33">
      <!-- 0.050 -->
      <g transform="translate(21.971875 308.486284)scale(0.1 -0.1)">
       <use xlink:href="#DejaVuSans-30"/>
       <use xlink:href="#DejaVuSans-2e" x="63.623047"/>
       <use xlink:href="#DejaVuSans-30" x="95.410156"/>
       <use xlink:href="#DejaVuSans-35" x="159.033203"/>
       <use xlink:href="#DejaVuSans-30" x="222.65625"/>
      </g>
     </g>
    </g>
    <g id="ytick_10">
     <g id="line2d_60">
      <g>
       <use xlink:href="#m796a2615be" x="57.6" y="279.720941" style="stroke: #000000; stroke-width: 0.8"/>
      </g>
     </g>
     <g id="text_34">
      <!-- 0.052 -->
      <g transform="translate(21.971875 283.520159)scale(0.1 -0.1)">
       <use xlink:href="#DejaVuSans-30"/>
       <use xlink:href="#DejaVuSans-2e" x="63.623047"/>
       <use xlink:href="#DejaVuSans-30" x="95.410156"/>
       <use xlink:href="#DejaVuSans-35" x="159.033203"/>
       <use xlink:href="#DejaVuSans-32" x="222.65625"/>
      </g>
     </g>
    </g>
    <g id="text_35">
     <!-- fraction -->
     <g transform="translate(15.892187 303.84956)rotate(-90)scale(0.1 -0.1)">
      <use xlink:href="#DejaVuSans-66"/>
      <use xlink:href="#DejaVuSans-72" x="35.205078"/>
      <use xlink:href="#DejaVuSans-61" x="76.318359"/>
      <use xlink:href="#DejaVuSans-63" x="137.597656"/>
      <use xlink:href="#DejaVuSans-74" x="192.578125"/>
      <use xlink:href="#DejaVuSans-69" x="231.787109"/>
      <use xlink:href="#DejaVuSans-6f" x="259.570312"/>
      <use xlink:href="#DejaVuSans-6e" x="320.751953"/>
     </g>
    </g>
   </g>
   <g id="line2d_61">
    <path d="M 73.832727 274.532934 
L 77.079273 304.855344 
L 80.325818 305.141276 
L 83.572364 305.02499 
L 86.818909 305.197412 
L 90.065455 305.418586 
L 93.312 305.435394 
L 96.558545 305.448672 
L 99.805091 305.438921 
L 103.051636 305.273193 
L 106.298182 305.498483 
L 109.544727 305.116069 
L 112.791273 305.384992 
L 116.037818 305.386987 
L 119.284364 305.386009 
L 122.530909 305.374194 
L 125.777455 305.061234 
L 129.024 304.99946 
L 132.270545 304.94781 
L 135.517091 304.909475 
L 138.763636 304.87895 
L 142.010182 304.848424 
L 145.256727 304.825688 
L 148.503273 304.806367 
L 151.749818 304.787046 
L 154.996364 304.775767 
L 158.242909 304.766158 
L 161.489455 304.75655 
L 164.736 304.746942 
L 167.982545 304.737334 
L 171.229091 304.728497 
L 174.475636 304.583161 
L 177.722182 304.346197 
L 180.968727 304.035653 
L 184.215273 303.667461 
L 187.461818 303.284957 
L 190.708364 302.927217 
L 193.954909 302.632111 
L 197.201455 302.407451 
L 200.448 302.248615 
L 203.694545 302.142974 
L 206.941091 302.074235 
L 210.187636 302.030891 
L 213.434182 302.004118 
L 216.680727 301.987568 
L 219.927273 301.977222 
L 223.173818 301.970999 
L 226.420364 301.967315 
L 229.666909 301.96494 
L 232.913455 301.963554 
L 236.16 301.962693 
L 239.406545 301.962126 
L 242.653091 301.961873 
L 245.899636 301.961706 
L 249.146182 301.9616 
L 252.392727 301.961542 
L 255.639273 301.961502 
L 258.885818 301.961494 
L 262.132364 301.961516 
L 265.378909 301.961528 
L 268.625455 301.956683 
L 271.872 300.268768 
L 275.118545 297.903351 
L 278.365091 294.858636 
L 281.611636 291.333281 
L 284.858182 288.275021 
L 288.104727 284.655289 
L 291.351273 281.843149 
L 294.597818 279.685684 
L 297.844364 278.192269 
L 301.090909 277.134715 
L 304.337455 276.406132 
L 307.584 275.912603 
L 310.830545 275.572876 
L 314.077091 275.341716 
L 317.323636 275.176351 
L 320.570182 275.063513 
L 323.816727 274.974665 
L 327.063273 274.910618 
L 330.309818 274.861114 
L 333.556364 274.821242 
L 336.802909 274.789077 
L 340.049455 274.762633 
L 343.296 274.73898 
L 346.542545 274.719554 
L 349.789091 274.701843 
L 353.035636 274.68671 
L 356.282182 274.67298 
L 359.528727 274.660726 
L 362.775273 274.649685 
L 366.021818 274.639714 
L 369.268364 274.630742 
L 372.514909 274.622459 
L 375.761455 274.614861 
L 379.008 274.608042 
L 382.254545 274.601774 
L 385.501091 274.595999 
L 388.747636 274.590721 
L 391.994182 274.585825 
L 395.240727 274.581256 
L 398.487273 274.577043 
" clip-path="url(#p81755d0444)" style="fill: none; stroke: #1f77b4; stroke-width: 1.5; stroke-linecap: square"/>
   </g>
   <g id="line2d_62">
    <path d="M 73.832727 263.788138 
L 77.079273 293.344352 
L 80.325818 293.662057 
L 83.572364 293.764619 
L 86.818909 293.815524 
L 90.065455 293.846225 
L 93.312 293.86734 
L 96.558545 293.883597 
L 99.805091 293.896561 
L 103.051636 293.908061 
L 106.298182 293.918743 
L 109.544727 293.928889 
L 112.791273 293.938515 
L 116.037818 293.947932 
L 119.284364 293.957152 
L 122.530909 293.967269 
L 125.777455 296.073612 
L 129.024 296.750693 
L 132.270545 297.385025 
L 135.517091 297.94555 
L 138.763636 298.45973 
L 142.010182 298.973911 
L 145.256727 299.425507 
L 148.503273 299.849663 
L 151.749818 300.273818 
L 154.996364 300.599411 
L 158.242909 300.904522 
L 161.489455 301.209633 
L 164.736 301.514744 
L 167.982545 301.819855 
L 171.229091 302.116208 
L 174.475636 301.695 
L 177.722182 301.472921 
L 180.968727 301.171104 
L 184.215273 300.810669 
L 187.461818 300.431413 
L 190.708364 300.078339 
L 193.954909 299.785409 
L 197.201455 299.563547 
L 200.448 299.407383 
L 203.694545 299.304063 
L 206.941091 299.237254 
L 210.187636 299.195451 
L 213.434182 299.169839 
L 216.680727 299.154185 
L 219.927273 299.144545 
L 223.173818 299.138892 
L 226.420364 299.135681 
L 229.666909 299.133722 
L 232.913455 299.132715 
L 236.16 299.13221 
L 239.406545 299.131985 
L 242.653091 299.13206 
L 245.899636 299.132218 
L 249.146182 299.132432 
L 252.392727 299.13269 
L 255.639273 299.132966 
L 258.885818 299.133272 
L 262.132364 299.133605 
L 265.378909 299.133928 
L 268.625455 299.130103 
L 271.872 297.534614 
L 275.118545 295.432694 
L 278.365091 293.116564 
L 281.611636 290.93417 
L 284.858182 289.278161 
L 288.104727 287.518446 
L 291.351273 286.038655 
L 294.597818 284.86349 
L 297.844364 283.725953 
L 301.090909 282.728617 
L 304.337455 281.82549 
L 307.584 281.007971 
L 310.830545 280.26857 
L 314.077091 279.594243 
L 317.323636 278.977348 
L 320.570182 278.424329 
L 323.816727 277.897881 
L 327.063273 277.429177 
L 330.309818 276.990838 
L 333.556364 276.588979 
L 336.802909 276.225241 
L 340.049455 275.884194 
L 343.296 275.568829 
L 346.542545 275.278228 
L 349.789091 275.009935 
L 353.035636 274.76117 
L 356.282182 274.529862 
L 359.528727 274.315431 
L 362.775273 274.116488 
L 366.021818 273.931899 
L 369.268364 273.760707 
L 372.514909 273.601404 
L 375.761455 273.453079 
L 379.008 273.314993 
L 382.254545 273.185837 
L 385.501091 273.065149 
L 388.747636 272.953261 
L 391.994182 272.84892 
L 395.240727 272.751425 
L 398.487273 272.659873 
" clip-path="url(#p81755d0444)" style="fill: none; stroke: #ff7f0e; stroke-width: 1.5; stroke-linecap: square"/>
   </g>
   <g id="patch_27">
    <path d="M 57.6 307.584 
L 57.6 261.702621 
" style="fill: none; stroke: #000000; stroke-width: 0.8; stroke-linejoin: miter; stroke-linecap: square"/>
   </g>
   <g id="patch_28">
    <path d="M 414.72 307.584 
L 414.72 261.702621 
" style="fill: none; stroke: #000000; stroke-width: 0.8; stroke-linejoin: miter; stroke-linecap: square"/>
   </g>
   <g id="patch_29">
    <path d="M 57.6 307.584 
L 414.72 307.584 
" style="fill: none; stroke: #000000; stroke-width: 0.8; stroke-linejoin: miter; stroke-linecap: square"/>
   </g>
   <g id="patch_30">
    <path d="M 57.6 261.702621 
L 414.72 261.702621 
" style="fill: none; stroke: #000000; stroke-width: 0.8; stroke-linejoin: miter; stroke-linecap: square"/>
   </g>
   <g id="text_36">
    <!-- yC -->
    <g transform="translate(228.419062 255.702621)scale(0.12 -0.12)">
     <defs>
      <path id="DejaVuSans-43" d="M 4122 4306 
L 4122 3641 
Q 3803 3938 3442 4084 
Q 3081 4231 2675 4231 
Q 1875 4231 1450 3742 
Q 1025 3253 1025 2328 
Q 1025 1406 1450 917 
Q 1875 428 2675 428 
Q 3081 428 3442 575 
Q 3803 722 4122 1019 
L 4122 359 
Q 3791 134 3420 21 
Q 3050 -91 2638 -91 
Q 1578 -91 968 557 
Q 359 1206 359 2328 
Q 359 3453 968 4101 
Q 1578 4750 2638 4750 
Q 3056 4750 3426 4639 
Q 3797 4528 4122 4306 
z
" transform="scale(0.015625)"/>
     </defs>
     <use xlink:href="#DejaVuSans-79"/>
     <use xlink:href="#DejaVuSans-43" x="59.179688"/>
    </g>
   </g>
   <g id="legend_5">
    <g id="patch_31">
     <path d="M 197.244375 299.058871 
L 275.075625 299.058871 
Q 277.075625 299.058871 277.075625 297.058871 
L 277.075625 268.702621 
Q 277.075625 266.702621 275.075625 266.702621 
L 197.244375 266.702621 
Q 195.244375 266.702621 195.244375 268.702621 
L 195.244375 297.058871 
Q 195.244375 299.058871 197.244375 299.058871 
z
" style="fill: #ffffff; opacity: 0.8; stroke: #cccccc; stroke-linejoin: miter"/>
    </g>
    <g id="line2d_63">
     <path d="M 199.244375 274.801058 
L 209.244375 274.801058 
L 219.244375 274.801058 
" style="fill: none; stroke: #1f77b4; stroke-width: 1.5; stroke-linecap: square"/>
    </g>
    <g id="text_37">
     <!-- yC0 (in) -->
     <g transform="translate(227.244375 278.301058)scale(0.1 -0.1)">
      <use xlink:href="#DejaVuSans-79"/>
      <use xlink:href="#DejaVuSans-43" x="59.179688"/>
      <use xlink:href="#DejaVuSans-30" x="129.003906"/>
      <use xlink:href="#DejaVuSans-20" x="192.626953"/>
      <use xlink:href="#DejaVuSans-28" x="224.414062"/>
      <use xlink:href="#DejaVuSans-69" x="263.427734"/>
      <use xlink:href="#DejaVuSans-6e" x="291.210938"/>
      <use xlink:href="#DejaVuSans-29" x="354.589844"/>
     </g>
    </g>
    <g id="line2d_64">
     <path d="M 199.244375 289.479183 
L 209.244375 289.479183 
L 219.244375 289.479183 
" style="fill: none; stroke: #ff7f0e; stroke-width: 1.5; stroke-linecap: square"/>
    </g>
    <g id="text_38">
     <!-- yCL (out) -->
     <g transform="translate(227.244375 292.979183)scale(0.1 -0.1)">
      <use xlink:href="#DejaVuSans-79"/>
      <use xlink:href="#DejaVuSans-43" x="59.179688"/>
      <use xlink:href="#DejaVuSans-4c" x="129.003906"/>
      <use xlink:href="#DejaVuSans-20" x="184.716797"/>
      <use xlink:href="#DejaVuSans-28" x="216.503906"/>
      <use xlink:href="#DejaVuSans-6f" x="255.517578"/>
      <use xlink:href="#DejaVuSans-75" x="316.699219"/>
      <use xlink:href="#DejaVuSans-74" x="380.078125"/>
      <use xlink:href="#DejaVuSans-29" x="419.287109"/>
     </g>
    </g>
   </g>
  </g>
 </g>
 <defs>
  <clipPath id="p74a867e52b">
   <rect x="57.6" y="41.472" width="357.12" height="45.881379"/>
  </clipPath>
  <clipPath id="pa2ed0e596c">
   <rect x="57.6" y="96.529655" width="357.12" height="45.881379"/>
  </clipPath>
  <clipPath id="p891528f401">
   <rect x="57.6" y="151.58731" width="357.12" height="45.881379"/>
  </clipPath>
  <clipPath id="p3a7f62c9ba">
   <rect x="57.6" y="206.644966" width="357.12" height="45.881379"/>
  </clipPath>
  <clipPath id="p81755d0444">
   <rect x="57.6" y="261.702621" width="357.12" height="45.881379"/>
  </clipPath>
 </defs>
</svg>
