<?xml version="1.0" encoding="utf-8" standalone="no"?>
<!DOCTYPE svg PUBLIC "-//W3C//DTD SVG 1.1//EN"
  "http://www.w3.org/Graphics/SVG/1.1/DTD/svg11.dtd">
<svg xmlns:xlink="http://www.w3.org/1999/xlink" width="460.8pt" height="345.6pt" viewBox="0 0 460.8 345.6" xmlns="http://www.w3.org/2000/svg" version="1.1">
 <metadata>
  <rdf:RDF xmlns:dc="http://purl.org/dc/elements/1.1/" xmlns:cc="http://creativecommons.org/ns#" xmlns:rdf="http://www.w3.org/1999/02/22-rdf-syntax-ns#">
   <cc:Work>
    <dc:type rdf:resource="http://purl.org/dc/dcmitype/StillImage"/>
    <dc:date>2022-07-10T00:04:41.656190</dc:date>
    <dc:format>image/svg+xml</dc:format>
    <dc:creator>
     <cc:Agent>
      <dc:title>Matplotlib v3.5.2, https://matplotlib.org/</dc:title>
     </cc:Agent>
    </dc:creator>
   </cc:Work>
  </rdf:RDF>
 </metadata>
 <defs>
  <style type="text/css">*{stroke-linejoin: round; stroke-linecap: butt}</style>
 </defs>
 <g id="figure_1">
  <g id="patch_1">
   <path d="M 0 345.6 
L 460.8 345.6 
L 460.8 0 
L 0 0 
z
" style="fill: #ffffff"/>
  </g>
  <g id="axes_1">
   <g id="patch_2">
    <path d="M 57.6 87.353379 
L 414.72 87.353379 
L 414.72 41.472 
L 57.6 41.472 
z
" style="fill: #ffffff"/>
   </g>
   <g id="matplotlib.axis_1">
    <g id="xtick_1">
     <g id="line2d_1">
      <defs>
       <path id="mb0e1abfe1d" d="M 0 0 
L 0 3.5 
" style="stroke: #000000; stroke-width: 0.8"/>
      </defs>
      <g>
       <use xlink:href="#mb0e1abfe1d" x="73.832727" y="87.353379" style="stroke: #000000; stroke-width: 0.8"/>
      </g>
     </g>
    </g>
    <g id="xtick_2">
     <g id="line2d_2">
      <g>
       <use xlink:href="#mb0e1abfe1d" x="138.763636" y="87.353379" style="stroke: #000000; stroke-width: 0.8"/>
      </g>
     </g>
    </g>
    <g id="xtick_3">
     <g id="line2d_3">
      <g>
       <use xlink:href="#mb0e1abfe1d" x="203.694545" y="87.353379" style="stroke: #000000; stroke-width: 0.8"/>
      </g>
     </g>
    </g>
    <g id="xtick_4">
     <g id="line2d_4">
      <g>
       <use xlink:href="#mb0e1abfe1d" x="268.625455" y="87.353379" style="stroke: #000000; stroke-width: 0.8"/>
      </g>
     </g>
    </g>
    <g id="xtick_5">
     <g id="line2d_5">
      <g>
       <use xlink:href="#mb0e1abfe1d" x="333.556364" y="87.353379" style="stroke: #000000; stroke-width: 0.8"/>
      </g>
     </g>
    </g>
    <g id="xtick_6">
     <g id="line2d_6">
      <g>
       <use xlink:href="#mb0e1abfe1d" x="398.487273" y="87.353379" style="stroke: #000000; stroke-width: 0.8"/>
      </g>
     </g>
    </g>
   </g>
   <g id="matplotlib.axis_2">
    <g id="ytick_1">
     <g id="line2d_7">
      <defs>
       <path id="m5682f19ad9" d="M 0 0 
L -3.5 0 
" style="stroke: #000000; stroke-width: 0.8"/>
      </defs>
      <g>
       <use xlink:href="#m5682f19ad9" x="57.6" y="75.467" style="stroke: #000000; stroke-width: 0.8"/>
      </g>
     </g>
     <g id="text_1">
      <!-- −2.5 -->
      <g transform="translate(26.317187 79.266219)scale(0.1 -0.1)">
       <defs>
        <path id="DejaVuSans-2212" d="M 678 2272 
L 4684 2272 
L 4684 1741 
L 678 1741 
L 678 2272 
z
" transform="scale(0.015625)"/>
        <path id="DejaVuSans-32" d="M 1228 531 
L 3431 531 
L 3431 0 
L 469 0 
L 469 531 
Q 828 903 1448 1529 
Q 2069 2156 2228 2338 
Q 2531 2678 2651 2914 
Q 2772 3150 2772 3378 
Q 2772 3750 2511 3984 
Q 2250 4219 1831 4219 
Q 1534 4219 1204 4116 
Q 875 4013 500 3803 
L 500 4441 
Q 881 4594 1212 4672 
Q 1544 4750 1819 4750 
Q 2544 4750 2975 4387 
Q 3406 4025 3406 3419 
Q 3406 3131 3298 2873 
Q 3191 2616 2906 2266 
Q 2828 2175 2409 1742 
Q 1991 1309 1228 531 
z
" transform="scale(0.015625)"/>
        <path id="DejaVuSans-2e" d="M 684 794 
L 1344 794 
L 1344 0 
L 684 0 
L 684 794 
z
" transform="scale(0.015625)"/>
        <path id="DejaVuSans-35" d="M 691 4666 
L 3169 4666 
L 3169 4134 
L 1269 4134 
L 1269 2991 
Q 1406 3038 1543 3061 
Q 1681 3084 1819 3084 
Q 2600 3084 3056 2656 
Q 3513 2228 3513 1497 
Q 3513 744 3044 326 
Q 2575 -91 1722 -91 
Q 1428 -91 1123 -41 
Q 819 9 494 109 
L 494 744 
Q 775 591 1075 516 
Q 1375 441 1709 441 
Q 2250 441 2565 725 
Q 2881 1009 2881 1497 
Q 2881 1984 2565 2268 
Q 2250 2553 1709 2553 
Q 1456 2553 1204 2497 
Q 953 2441 691 2322 
L 691 4666 
z
" transform="scale(0.015625)"/>
       </defs>
       <use xlink:href="#DejaVuSans-2212"/>
       <use xlink:href="#DejaVuSans-32" x="83.789062"/>
       <use xlink:href="#DejaVuSans-2e" x="147.412109"/>
       <use xlink:href="#DejaVuSans-35" x="179.199219"/>
      </g>
     </g>
    </g>
    <g id="ytick_2">
     <g id="line2d_8">
      <g>
       <use xlink:href="#m5682f19ad9" x="57.6" y="55.158372" style="stroke: #000000; stroke-width: 0.8"/>
      </g>
     </g>
     <g id="text_2">
      <!-- 0.0 -->
      <g transform="translate(34.696875 58.957591)scale(0.1 -0.1)">
       <defs>
        <path id="DejaVuSans-30" d="M 2034 4250 
Q 1547 4250 1301 3770 
Q 1056 3291 1056 2328 
Q 1056 1369 1301 889 
Q 1547 409 2034 409 
Q 2525 409 2770 889 
Q 3016 1369 3016 2328 
Q 3016 3291 2770 3770 
Q 2525 4250 2034 4250 
z
M 2034 4750 
Q 2819 4750 3233 4129 
Q 3647 3509 3647 2328 
Q 3647 1150 3233 529 
Q 2819 -91 2034 -91 
Q 1250 -91 836 529 
Q 422 1150 422 2328 
Q 422 3509 836 4129 
Q 1250 4750 2034 4750 
z
" transform="scale(0.015625)"/>
       </defs>
       <use xlink:href="#DejaVuSans-30"/>
       <use xlink:href="#DejaVuSans-2e" x="63.623047"/>
       <use xlink:href="#DejaVuSans-30" x="95.410156"/>
      </g>
     </g>
    </g>
    <g id="text_3">
     <!-- flow rate (normalized) -->
     <g transform="translate(20.2375 119.729877)rotate(-90)scale(0.1 -0.1)">
      <defs>
       <path id="DejaVuSans-66" d="M 2375 4863 
L 2375 4384 
L 1825 4384 
Q 1516 4384 1395 4259 
Q 1275 4134 1275 3809 
L 1275 3500 
L 2222 3500 
L 2222 3053 
L 1275 3053 
L 1275 0 
L 697 0 
L 697 3053 
L 147 3053 
L 147 3500 
L 697 3500 
L 697 3744 
Q 697 4328 969 4595 
Q 1241 4863 1831 4863 
L 2375 4863 
z
" transform="scale(0.015625)"/>
       <path id="DejaVuSans-6c" d="M 603 4863 
L 1178 4863 
L 1178 0 
L 603 0 
L 603 4863 
z
" transform="scale(0.015625)"/>
       <path id="DejaVuSans-6f" d="M 1959 3097 
Q 1497 3097 1228 2736 
Q 959 2375 959 1747 
Q 959 1119 1226 758 
Q 1494 397 1959 397 
Q 2419 397 2687 759 
Q 2956 1122 2956 1747 
Q 2956 2369 2687 2733 
Q 2419 3097 1959 3097 
z
M 1959 3584 
Q 2709 3584 3137 3096 
Q 3566 2609 3566 1747 
Q 3566 888 3137 398 
Q 2709 -91 1959 -91 
Q 1206 -91 779 398 
Q 353 888 353 1747 
Q 353 2609 779 3096 
Q 1206 3584 1959 3584 
z
" transform="scale(0.015625)"/>
       <path id="DejaVuSans-77" d="M 269 3500 
L 844 3500 
L 1563 769 
L 2278 3500 
L 2956 3500 
L 3675 769 
L 4391 3500 
L 4966 3500 
L 4050 0 
L 3372 0 
L 2619 2869 
L 1863 0 
L 1184 0 
L 269 3500 
z
" transform="scale(0.015625)"/>
       <path id="DejaVuSans-20" transform="scale(0.015625)"/>
       <path id="DejaVuSans-72" d="M 2631 2963 
Q 2534 3019 2420 3045 
Q 2306 3072 2169 3072 
Q 1681 3072 1420 2755 
Q 1159 2438 1159 1844 
L 1159 0 
L 581 0 
L 581 3500 
L 1159 3500 
L 1159 2956 
Q 1341 3275 1631 3429 
Q 1922 3584 2338 3584 
Q 2397 3584 2469 3576 
Q 2541 3569 2628 3553 
L 2631 2963 
z
" transform="scale(0.015625)"/>
       <path id="DejaVuSans-61" d="M 2194 1759 
Q 1497 1759 1228 1600 
Q 959 1441 959 1056 
Q 959 750 1161 570 
Q 1363 391 1709 391 
Q 2188 391 2477 730 
Q 2766 1069 2766 1631 
L 2766 1759 
L 2194 1759 
z
M 3341 1997 
L 3341 0 
L 2766 0 
L 2766 531 
Q 2569 213 2275 61 
Q 1981 -91 1556 -91 
Q 1019 -91 701 211 
Q 384 513 384 1019 
Q 384 1609 779 1909 
Q 1175 2209 1959 2209 
L 2766 2209 
L 2766 2266 
Q 2766 2663 2505 2880 
Q 2244 3097 1772 3097 
Q 1472 3097 1187 3025 
Q 903 2953 641 2809 
L 641 3341 
Q 956 3463 1253 3523 
Q 1550 3584 1831 3584 
Q 2591 3584 2966 3190 
Q 3341 2797 3341 1997 
z
" transform="scale(0.015625)"/>
       <path id="DejaVuSans-74" d="M 1172 4494 
L 1172 3500 
L 2356 3500 
L 2356 3053 
L 1172 3053 
L 1172 1153 
Q 1172 725 1289 603 
Q 1406 481 1766 481 
L 2356 481 
L 2356 0 
L 1766 0 
Q 1100 0 847 248 
Q 594 497 594 1153 
L 594 3053 
L 172 3053 
L 172 3500 
L 594 3500 
L 594 4494 
L 1172 4494 
z
" transform="scale(0.015625)"/>
       <path id="DejaVuSans-65" d="M 3597 1894 
L 3597 1613 
L 953 1613 
Q 991 1019 1311 708 
Q 1631 397 2203 397 
Q 2534 397 2845 478 
Q 3156 559 3463 722 
L 3463 178 
Q 3153 47 2828 -22 
Q 2503 -91 2169 -91 
Q 1331 -91 842 396 
Q 353 884 353 1716 
Q 353 2575 817 3079 
Q 1281 3584 2069 3584 
Q 2775 3584 3186 3129 
Q 3597 2675 3597 1894 
z
M 3022 2063 
Q 3016 2534 2758 2815 
Q 2500 3097 2075 3097 
Q 1594 3097 1305 2825 
Q 1016 2553 972 2059 
L 3022 2063 
z
" transform="scale(0.015625)"/>
       <path id="DejaVuSans-28" d="M 1984 4856 
Q 1566 4138 1362 3434 
Q 1159 2731 1159 2009 
Q 1159 1288 1364 580 
Q 1569 -128 1984 -844 
L 1484 -844 
Q 1016 -109 783 600 
Q 550 1309 550 2009 
Q 550 2706 781 3412 
Q 1013 4119 1484 4856 
L 1984 4856 
z
" transform="scale(0.015625)"/>
       <path id="DejaVuSans-6e" d="M 3513 2113 
L 3513 0 
L 2938 0 
L 2938 2094 
Q 2938 2591 2744 2837 
Q 2550 3084 2163 3084 
Q 1697 3084 1428 2787 
Q 1159 2491 1159 1978 
L 1159 0 
L 581 0 
L 581 3500 
L 1159 3500 
L 1159 2956 
Q 1366 3272 1645 3428 
Q 1925 3584 2291 3584 
Q 2894 3584 3203 3211 
Q 3513 2838 3513 2113 
z
" transform="scale(0.015625)"/>
       <path id="DejaVuSans-6d" d="M 3328 2828 
Q 3544 3216 3844 3400 
Q 4144 3584 4550 3584 
Q 5097 3584 5394 3201 
Q 5691 2819 5691 2113 
L 5691 0 
L 5113 0 
L 5113 2094 
Q 5113 2597 4934 2840 
Q 4756 3084 4391 3084 
Q 3944 3084 3684 2787 
Q 3425 2491 3425 1978 
L 3425 0 
L 2847 0 
L 2847 2094 
Q 2847 2600 2669 2842 
Q 2491 3084 2119 3084 
Q 1678 3084 1418 2786 
Q 1159 2488 1159 1978 
L 1159 0 
L 581 0 
L 581 3500 
L 1159 3500 
L 1159 2956 
Q 1356 3278 1631 3431 
Q 1906 3584 2284 3584 
Q 2666 3584 2933 3390 
Q 3200 3197 3328 2828 
z
" transform="scale(0.015625)"/>
       <path id="DejaVuSans-69" d="M 603 3500 
L 1178 3500 
L 1178 0 
L 603 0 
L 603 3500 
z
M 603 4863 
L 1178 4863 
L 1178 4134 
L 603 4134 
L 603 4863 
z
" transform="scale(0.015625)"/>
       <path id="DejaVuSans-7a" d="M 353 3500 
L 3084 3500 
L 3084 2975 
L 922 459 
L 3084 459 
L 3084 0 
L 275 0 
L 275 525 
L 2438 3041 
L 353 3041 
L 353 3500 
z
" transform="scale(0.015625)"/>
       <path id="DejaVuSans-64" d="M 2906 2969 
L 2906 4863 
L 3481 4863 
L 3481 0 
L 2906 0 
L 2906 525 
Q 2725 213 2448 61 
Q 2172 -91 1784 -91 
Q 1150 -91 751 415 
Q 353 922 353 1747 
Q 353 2572 751 3078 
Q 1150 3584 1784 3584 
Q 2172 3584 2448 3432 
Q 2725 3281 2906 2969 
z
M 947 1747 
Q 947 1113 1208 752 
Q 1469 391 1925 391 
Q 2381 391 2643 752 
Q 2906 1113 2906 1747 
Q 2906 2381 2643 2742 
Q 2381 3103 1925 3103 
Q 1469 3103 1208 2742 
Q 947 2381 947 1747 
z
" transform="scale(0.015625)"/>
       <path id="DejaVuSans-29" d="M 513 4856 
L 1013 4856 
Q 1481 4119 1714 3412 
Q 1947 2706 1947 2009 
Q 1947 1309 1714 600 
Q 1481 -109 1013 -844 
L 513 -844 
Q 928 -128 1133 580 
Q 1338 1288 1338 2009 
Q 1338 2731 1133 3434 
Q 928 4138 513 4856 
z
" transform="scale(0.015625)"/>
      </defs>
      <use xlink:href="#DejaVuSans-66"/>
      <use xlink:href="#DejaVuSans-6c" x="35.205078"/>
      <use xlink:href="#DejaVuSans-6f" x="62.988281"/>
      <use xlink:href="#DejaVuSans-77" x="124.169922"/>
      <use xlink:href="#DejaVuSans-20" x="205.957031"/>
      <use xlink:href="#DejaVuSans-72" x="237.744141"/>
      <use xlink:href="#DejaVuSans-61" x="278.857422"/>
      <use xlink:href="#DejaVuSans-74" x="340.136719"/>
      <use xlink:href="#DejaVuSans-65" x="379.345703"/>
      <use xlink:href="#DejaVuSans-20" x="440.869141"/>
      <use xlink:href="#DejaVuSans-28" x="472.65625"/>
      <use xlink:href="#DejaVuSans-6e" x="511.669922"/>
      <use xlink:href="#DejaVuSans-6f" x="575.048828"/>
      <use xlink:href="#DejaVuSans-72" x="636.230469"/>
      <use xlink:href="#DejaVuSans-6d" x="675.59375"/>
      <use xlink:href="#DejaVuSans-61" x="773.005859"/>
      <use xlink:href="#DejaVuSans-6c" x="834.285156"/>
      <use xlink:href="#DejaVuSans-69" x="862.068359"/>
      <use xlink:href="#DejaVuSans-7a" x="889.851562"/>
      <use xlink:href="#DejaVuSans-65" x="942.341797"/>
      <use xlink:href="#DejaVuSans-64" x="1003.865234"/>
      <use xlink:href="#DejaVuSans-29" x="1067.341797"/>
     </g>
    </g>
   </g>
   <g id="line2d_9">
    <path d="M 73.832727 56.174444 
L 77.079273 49.326811 
L 80.325818 53.064363 
L 83.572364 54.175486 
L 86.818909 54.637886 
L 90.065455 54.870786 
L 93.312 54.996158 
L 96.558545 55.067234 
L 99.805091 55.103013 
L 103.051636 55.125373 
L 106.298182 55.137414 
L 109.544727 55.145832 
L 112.791273 55.150676 
L 116.037818 55.154704 
L 119.284364 55.157153 
L 122.530909 54.655245 
L 125.777455 47.01886 
L 129.024 47.018765 
L 132.270545 47.018713 
L 135.517091 47.018685 
L 138.763636 47.01867 
L 142.010182 47.018662 
L 145.256727 47.01866 
L 148.503273 47.018659 
L 151.749818 47.018659 
L 154.996364 47.018658 
L 158.242909 47.018658 
L 161.489455 47.018658 
L 164.736 47.018657 
L 167.982545 47.018657 
L 171.229091 48.134263 
L 174.475636 53.268376 
L 177.722182 53.431326 
L 180.968727 53.52544 
L 184.215273 53.773227 
L 187.461818 53.90633 
L 190.708364 54.099388 
L 193.954909 54.288177 
L 197.201455 54.478651 
L 200.448 54.645508 
L 203.694545 54.796358 
L 206.941091 54.897938 
L 210.187636 54.967378 
L 213.434182 55.050067 
L 216.680727 55.100113 
L 219.927273 55.085276 
L 223.173818 55.114092 
L 226.420364 55.17304 
L 229.666909 55.135445 
L 232.913455 55.122919 
L 236.16 55.145107 
L 239.406545 55.154757 
L 242.653091 55.155647 
L 245.899636 55.156035 
L 249.146182 55.156422 
L 252.392727 55.156809 
L 255.639273 55.157197 
L 258.885818 55.157584 
L 262.132364 55.157884 
L 265.378909 55.158068 
L 268.625455 55.169139 
L 271.872 58.035872 
L 275.118545 60.163839 
L 278.365091 62.707119 
L 281.611636 64.752154 
L 284.858182 65.817815 
L 288.104727 66.066515 
L 291.351273 65.812701 
L 294.597818 65.323015 
L 297.844364 64.734385 
L 301.090909 64.110862 
L 304.337455 63.493092 
L 307.584 62.897111 
L 310.830545 62.333858 
L 314.077091 61.804208 
L 317.323636 61.317147 
L 320.570182 60.854162 
L 323.816727 60.435968 
L 327.063273 60.046781 
L 330.309818 59.69026 
L 333.556364 59.359629 
L 336.802909 59.056398 
L 340.049455 58.777433 
L 343.296 58.520384 
L 346.542545 58.283676 
L 349.789091 58.065416 
L 353.035636 57.863898 
L 356.282182 57.678152 
L 359.528727 57.506339 
L 362.775273 57.34685 
L 366.021818 57.200052 
L 369.268364 57.064103 
L 372.514909 56.937859 
L 375.761455 56.820994 
L 379.008 56.712237 
L 382.254545 56.610978 
L 385.501091 56.516734 
L 388.747636 56.429087 
L 391.994182 56.347235 
L 395.240727 56.270658 
L 398.487273 56.198858 
" clip-path="url(#p6cd1c6905c)" style="fill: none; stroke: #1f77b4; stroke-width: 1.5; stroke-linecap: square"/>
   </g>
   <g id="line2d_10">
    <path d="M 73.832727 56.783551 
L 77.079273 43.557517 
L 80.325818 50.974441 
L 83.572364 53.193103 
L 86.818909 54.117484 
L 90.065455 54.583258 
L 93.312 54.833948 
L 96.558545 54.976084 
L 99.805091 55.047645 
L 103.051636 55.092374 
L 106.298182 55.116454 
L 109.544727 55.133292 
L 112.791273 55.14298 
L 116.037818 55.151036 
L 119.284364 55.155934 
L 122.530909 52.628838 
L 125.777455 47.032641 
L 129.024 47.032623 
L 132.270545 47.032613 
L 135.517091 47.032608 
L 138.763636 47.032606 
L 142.010182 47.032604 
L 145.256727 47.032604 
L 148.503273 47.032604 
L 151.749818 47.032604 
L 154.996364 47.032604 
L 158.242909 47.032604 
L 161.489455 47.032604 
L 164.736 47.032604 
L 167.982545 47.032604 
L 171.229091 50.438679 
L 174.475636 54.814838 
L 177.722182 54.844454 
L 180.968727 54.861635 
L 184.215273 54.90678 
L 187.461818 54.930591 
L 190.708364 54.966787 
L 193.954909 54.999941 
L 197.201455 55.035077 
L 200.448 55.064638 
L 203.694545 55.093232 
L 206.941091 55.111054 
L 210.187636 55.122558 
L 213.434182 55.138985 
L 216.680727 55.148688 
L 219.927273 55.144166 
L 223.173818 55.14978 
L 226.420364 55.162158 
L 229.666909 55.153874 
L 232.913455 55.151061 
L 236.16 55.155705 
L 239.406545 55.157708 
L 242.653091 55.157875 
L 245.899636 55.157946 
L 249.146182 55.158016 
L 252.392727 55.158087 
L 255.639273 55.158158 
L 258.885818 55.158228 
L 262.132364 55.158283 
L 265.378909 55.158317 
L 268.625455 55.20986 
L 271.872 61.050065 
L 275.118545 65.768408 
L 278.365091 72.216879 
L 281.611636 78.62612 
L 284.858182 83.190494 
L 288.104727 85.267862 
L 291.351273 85.130128 
L 294.597818 83.696786 
L 297.844364 81.563334 
L 301.090909 79.121188 
L 304.337455 76.694392 
L 307.584 74.402976 
L 310.830545 72.336439 
L 314.077091 70.480952 
L 317.323636 68.869894 
L 320.570182 67.423497 
L 323.816727 66.186033 
L 327.063273 65.095622 
L 330.309818 64.144584 
L 333.556364 63.304769 
L 336.802909 62.567448 
L 340.049455 61.915192 
L 343.296 61.334464 
L 346.542545 60.816823 
L 349.789091 60.352199 
L 353.035636 59.934081 
L 356.282182 59.560112 
L 359.528727 59.221545 
L 362.775273 58.911419 
L 366.021818 58.63322 
L 369.268364 58.378824 
L 372.514909 58.143851 
L 375.761455 57.930901 
L 379.008 57.734496 
L 382.254545 57.553132 
L 385.501091 57.385811 
L 388.747636 57.231794 
L 391.994182 57.088837 
L 395.240727 56.956153 
L 398.487273 56.832894 
" clip-path="url(#p6cd1c6905c)" style="fill: none; stroke: #ff7f0e; stroke-width: 1.5; stroke-linecap: square"/>
   </g>
   <g id="line2d_11">
    <path d="M 73.832727 55.278346 
L 77.079273 54.508617 
L 80.325818 54.925477 
L 83.572364 55.049084 
L 86.818909 55.100505 
L 90.065455 55.1264 
L 93.312 55.140339 
L 96.558545 55.148241 
L 99.805091 55.152219 
L 103.051636 55.154704 
L 106.298182 55.156043 
L 109.544727 55.156978 
L 112.791273 55.157517 
L 116.037818 55.157964 
L 119.284364 55.158237 
L 122.530909 55.749369 
L 125.777455 47.006537 
L 129.024 47.006381 
L 132.270545 47.006297 
L 135.517091 47.006251 
L 138.763636 47.006226 
L 142.010182 47.006214 
L 145.256727 47.006209 
L 148.503273 47.006207 
L 151.749818 47.006206 
L 154.996364 47.006205 
L 158.242909 47.006204 
L 161.489455 47.006203 
L 164.736 47.006202 
L 167.982545 47.006201 
L 171.229091 47.420484 
L 174.475636 51.891695 
L 177.722182 52.173367 
L 180.968727 52.334563 
L 184.215273 52.760646 
L 187.461818 52.998432 
L 190.708364 53.309831 
L 193.954909 53.659592 
L 197.201455 53.978359 
L 200.448 54.282508 
L 203.694545 54.518846 
L 206.941091 54.70788 
L 210.187636 54.851104 
L 213.434182 54.964713 
L 216.680727 55.038859 
L 219.927273 55.051493 
L 223.173818 55.092959 
L 226.420364 55.160056 
L 229.666909 55.126015 
L 232.913455 55.115568 
L 236.16 55.140865 
L 239.406545 55.152245 
L 242.653091 55.153702 
L 245.899636 55.154366 
L 249.146182 55.15503 
L 252.392727 55.155694 
L 255.639273 55.156358 
L 258.885818 55.157022 
L 262.132364 55.157537 
L 265.378909 55.157853 
L 268.625455 55.15895 
L 271.872 55.475772 
L 275.118545 55.704916 
L 278.365091 55.96862 
L 281.611636 56.169303 
L 284.858182 56.265143 
L 288.104727 56.281328 
L 291.351273 56.252002 
L 294.597818 56.202579 
L 297.844364 56.145295 
L 301.090909 56.085598 
L 304.337455 56.026766 
L 307.584 55.970024 
L 310.830545 55.916148 
L 314.077091 55.86521 
L 317.323636 55.817978 
L 320.570182 55.772677 
L 323.816727 55.7314 
L 327.063273 55.692572 
L 330.309818 55.656679 
L 333.556364 55.623017 
L 336.802909 55.591861 
L 340.049455 55.562928 
L 343.296 55.536018 
L 346.542545 55.511026 
L 349.789091 55.487797 
L 353.035636 55.466186 
L 356.282182 55.446101 
L 359.528727 55.427392 
L 362.775273 55.409926 
L 366.021818 55.393735 
L 369.268364 55.378663 
L 372.514909 55.364616 
L 375.761455 55.35153 
L 379.008 55.339304 
L 382.254545 55.327879 
L 385.501091 55.317208 
L 388.747636 55.307249 
L 391.994182 55.297926 
L 395.240727 55.289174 
L 398.487273 55.280935 
" clip-path="url(#p6cd1c6905c)" style="fill: none; stroke: #2ca02c; stroke-width: 1.5; stroke-linecap: square"/>
   </g>
   <g id="patch_3">
    <path d="M 57.6 87.353379 
L 57.6 41.472 
" style="fill: none; stroke: #000000; stroke-width: 0.8; stroke-linejoin: miter; stroke-linecap: square"/>
   </g>
   <g id="patch_4">
    <path d="M 414.72 87.353379 
L 414.72 41.472 
" style="fill: none; stroke: #000000; stroke-width: 0.8; stroke-linejoin: miter; stroke-linecap: square"/>
   </g>
   <g id="patch_5">
    <path d="M 57.6 87.353379 
L 414.72 87.353379 
" style="fill: none; stroke: #000000; stroke-width: 0.8; stroke-linejoin: miter; stroke-linecap: square"/>
   </g>
   <g id="patch_6">
    <path d="M 57.6 41.472 
L 414.72 41.472 
" style="fill: none; stroke: #000000; stroke-width: 0.8; stroke-linejoin: miter; stroke-linecap: square"/>
   </g>
   <g id="text_4">
    <!-- velocity vs time (container 1)   -->
    <g transform="translate(144.106875 35.472)scale(0.12 -0.12)">
     <defs>
      <path id="DejaVuSans-76" d="M 191 3500 
L 800 3500 
L 1894 563 
L 2988 3500 
L 3597 3500 
L 2284 0 
L 1503 0 
L 191 3500 
z
" transform="scale(0.015625)"/>
      <path id="DejaVuSans-63" d="M 3122 3366 
L 3122 2828 
Q 2878 2963 2633 3030 
Q 2388 3097 2138 3097 
Q 1578 3097 1268 2742 
Q 959 2388 959 1747 
Q 959 1106 1268 751 
Q 1578 397 2138 397 
Q 2388 397 2633 464 
Q 2878 531 3122 666 
L 3122 134 
Q 2881 22 2623 -34 
Q 2366 -91 2075 -91 
Q 1284 -91 818 406 
Q 353 903 353 1747 
Q 353 2603 823 3093 
Q 1294 3584 2113 3584 
Q 2378 3584 2631 3529 
Q 2884 3475 3122 3366 
z
" transform="scale(0.015625)"/>
      <path id="DejaVuSans-79" d="M 2059 -325 
Q 1816 -950 1584 -1140 
Q 1353 -1331 966 -1331 
L 506 -1331 
L 506 -850 
L 844 -850 
Q 1081 -850 1212 -737 
Q 1344 -625 1503 -206 
L 1606 56 
L 191 3500 
L 800 3500 
L 1894 763 
L 2988 3500 
L 3597 3500 
L 2059 -325 
z
" transform="scale(0.015625)"/>
      <path id="DejaVuSans-73" d="M 2834 3397 
L 2834 2853 
Q 2591 2978 2328 3040 
Q 2066 3103 1784 3103 
Q 1356 3103 1142 2972 
Q 928 2841 928 2578 
Q 928 2378 1081 2264 
Q 1234 2150 1697 2047 
L 1894 2003 
Q 2506 1872 2764 1633 
Q 3022 1394 3022 966 
Q 3022 478 2636 193 
Q 2250 -91 1575 -91 
Q 1294 -91 989 -36 
Q 684 19 347 128 
L 347 722 
Q 666 556 975 473 
Q 1284 391 1588 391 
Q 1994 391 2212 530 
Q 2431 669 2431 922 
Q 2431 1156 2273 1281 
Q 2116 1406 1581 1522 
L 1381 1569 
Q 847 1681 609 1914 
Q 372 2147 372 2553 
Q 372 3047 722 3315 
Q 1072 3584 1716 3584 
Q 2034 3584 2315 3537 
Q 2597 3491 2834 3397 
z
" transform="scale(0.015625)"/>
      <path id="DejaVuSans-31" d="M 794 531 
L 1825 531 
L 1825 4091 
L 703 3866 
L 703 4441 
L 1819 4666 
L 2450 4666 
L 2450 531 
L 3481 531 
L 3481 0 
L 794 0 
L 794 531 
z
" transform="scale(0.015625)"/>
     </defs>
     <use xlink:href="#DejaVuSans-76"/>
     <use xlink:href="#DejaVuSans-65" x="59.179688"/>
     <use xlink:href="#DejaVuSans-6c" x="120.703125"/>
     <use xlink:href="#DejaVuSans-6f" x="148.486328"/>
     <use xlink:href="#DejaVuSans-63" x="209.667969"/>
     <use xlink:href="#DejaVuSans-69" x="264.648438"/>
     <use xlink:href="#DejaVuSans-74" x="292.431641"/>
     <use xlink:href="#DejaVuSans-79" x="331.640625"/>
     <use xlink:href="#DejaVuSans-20" x="390.820312"/>
     <use xlink:href="#DejaVuSans-76" x="422.607422"/>
     <use xlink:href="#DejaVuSans-73" x="481.787109"/>
     <use xlink:href="#DejaVuSans-20" x="533.886719"/>
     <use xlink:href="#DejaVuSans-74" x="565.673828"/>
     <use xlink:href="#DejaVuSans-69" x="604.882812"/>
     <use xlink:href="#DejaVuSans-6d" x="632.666016"/>
     <use xlink:href="#DejaVuSans-65" x="730.078125"/>
     <use xlink:href="#DejaVuSans-20" x="791.601562"/>
     <use xlink:href="#DejaVuSans-28" x="823.388672"/>
     <use xlink:href="#DejaVuSans-63" x="862.402344"/>
     <use xlink:href="#DejaVuSans-6f" x="917.382812"/>
     <use xlink:href="#DejaVuSans-6e" x="978.564453"/>
     <use xlink:href="#DejaVuSans-74" x="1041.943359"/>
     <use xlink:href="#DejaVuSans-61" x="1081.152344"/>
     <use xlink:href="#DejaVuSans-69" x="1142.431641"/>
     <use xlink:href="#DejaVuSans-6e" x="1170.214844"/>
     <use xlink:href="#DejaVuSans-65" x="1233.59375"/>
     <use xlink:href="#DejaVuSans-72" x="1295.117188"/>
     <use xlink:href="#DejaVuSans-20" x="1336.230469"/>
     <use xlink:href="#DejaVuSans-31" x="1368.017578"/>
     <use xlink:href="#DejaVuSans-29" x="1431.640625"/>
     <use xlink:href="#DejaVuSans-20" x="1470.654297"/>
     <use xlink:href="#DejaVuSans-20" x="1502.441406"/>
    </g>
   </g>
   <g id="legend_1">
    <g id="patch_7">
     <path d="M 64.6 93.506375 
L 139.240625 93.506375 
Q 141.240625 93.506375 141.240625 91.506375 
L 141.240625 48.472 
Q 141.240625 46.472 139.240625 46.472 
L 64.6 46.472 
Q 62.6 46.472 62.6 48.472 
L 62.6 91.506375 
Q 62.6 93.506375 64.6 93.506375 
z
" style="fill: #ffffff; opacity: 0.8; stroke: #cccccc; stroke-linejoin: miter"/>
    </g>
    <g id="line2d_12">
     <path d="M 66.6 54.570437 
L 76.6 54.570437 
L 86.6 54.570437 
" style="fill: none; stroke: #1f77b4; stroke-width: 1.5; stroke-linecap: square"/>
    </g>
    <g id="text_5">
     <!-- mid flow -->
     <g transform="translate(94.6 58.070437)scale(0.1 -0.1)">
      <use xlink:href="#DejaVuSans-6d"/>
      <use xlink:href="#DejaVuSans-69" x="97.412109"/>
      <use xlink:href="#DejaVuSans-64" x="125.195312"/>
      <use xlink:href="#DejaVuSans-20" x="188.671875"/>
      <use xlink:href="#DejaVuSans-66" x="220.458984"/>
      <use xlink:href="#DejaVuSans-6c" x="255.664062"/>
      <use xlink:href="#DejaVuSans-6f" x="283.447266"/>
      <use xlink:href="#DejaVuSans-77" x="344.628906"/>
     </g>
    </g>
    <g id="line2d_13">
     <path d="M 66.6 69.248562 
L 76.6 69.248562 
L 86.6 69.248562 
" style="fill: none; stroke: #ff7f0e; stroke-width: 1.5; stroke-linecap: square"/>
    </g>
    <g id="text_6">
     <!-- v0 flow -->
     <g transform="translate(94.6 72.748562)scale(0.1 -0.1)">
      <use xlink:href="#DejaVuSans-76"/>
      <use xlink:href="#DejaVuSans-30" x="59.179688"/>
      <use xlink:href="#DejaVuSans-20" x="122.802734"/>
      <use xlink:href="#DejaVuSans-66" x="154.589844"/>
      <use xlink:href="#DejaVuSans-6c" x="189.794922"/>
      <use xlink:href="#DejaVuSans-6f" x="217.578125"/>
      <use xlink:href="#DejaVuSans-77" x="278.759766"/>
     </g>
    </g>
    <g id="line2d_14">
     <path d="M 66.6 83.926687 
L 76.6 83.926687 
L 86.6 83.926687 
" style="fill: none; stroke: #2ca02c; stroke-width: 1.5; stroke-linecap: square"/>
    </g>
    <g id="text_7">
     <!-- vN flow -->
     <g transform="translate(94.6 87.426687)scale(0.1 -0.1)">
      <defs>
       <path id="DejaVuSans-4e" d="M 628 4666 
L 1478 4666 
L 3547 763 
L 3547 4666 
L 4159 4666 
L 4159 0 
L 3309 0 
L 1241 3903 
L 1241 0 
L 628 0 
L 628 4666 
z
" transform="scale(0.015625)"/>
      </defs>
      <use xlink:href="#DejaVuSans-76"/>
      <use xlink:href="#DejaVuSans-4e" x="59.179688"/>
      <use xlink:href="#DejaVuSans-20" x="133.984375"/>
      <use xlink:href="#DejaVuSans-66" x="165.771484"/>
      <use xlink:href="#DejaVuSans-6c" x="200.976562"/>
      <use xlink:href="#DejaVuSans-6f" x="228.759766"/>
      <use xlink:href="#DejaVuSans-77" x="289.941406"/>
     </g>
    </g>
   </g>
  </g>
  <g id="axes_2">
   <g id="patch_8">
    <path d="M 57.6 142.411034 
L 414.72 142.411034 
L 414.72 96.529655 
L 57.6 96.529655 
z
" style="fill: #ffffff"/>
   </g>
   <g id="matplotlib.axis_3">
    <g id="xtick_7">
     <g id="line2d_15">
      <g>
       <use xlink:href="#mb0e1abfe1d" x="73.832727" y="142.411034" style="stroke: #000000; stroke-width: 0.8"/>
      </g>
     </g>
    </g>
    <g id="xtick_8">
     <g id="line2d_16">
      <g>
       <use xlink:href="#mb0e1abfe1d" x="138.763636" y="142.411034" style="stroke: #000000; stroke-width: 0.8"/>
      </g>
     </g>
    </g>
    <g id="xtick_9">
     <g id="line2d_17">
      <g>
       <use xlink:href="#mb0e1abfe1d" x="203.694545" y="142.411034" style="stroke: #000000; stroke-width: 0.8"/>
      </g>
     </g>
    </g>
    <g id="xtick_10">
     <g id="line2d_18">
      <g>
       <use xlink:href="#mb0e1abfe1d" x="268.625455" y="142.411034" style="stroke: #000000; stroke-width: 0.8"/>
      </g>
     </g>
    </g>
    <g id="xtick_11">
     <g id="line2d_19">
      <g>
       <use xlink:href="#mb0e1abfe1d" x="333.556364" y="142.411034" style="stroke: #000000; stroke-width: 0.8"/>
      </g>
     </g>
    </g>
    <g id="xtick_12">
     <g id="line2d_20">
      <g>
       <use xlink:href="#mb0e1abfe1d" x="398.487273" y="142.411034" style="stroke: #000000; stroke-width: 0.8"/>
      </g>
     </g>
    </g>
   </g>
   <g id="matplotlib.axis_4">
    <g id="ytick_3">
     <g id="line2d_21">
      <g>
       <use xlink:href="#m5682f19ad9" x="57.6" y="140.746081" style="stroke: #000000; stroke-width: 0.8"/>
      </g>
     </g>
     <g id="text_8">
      <!-- 0 -->
      <g transform="translate(44.2375 144.5453)scale(0.1 -0.1)">
       <use xlink:href="#DejaVuSans-30"/>
      </g>
     </g>
    </g>
    <g id="ytick_4">
     <g id="line2d_22">
      <g>
       <use xlink:href="#m5682f19ad9" x="57.6" y="98.771645" style="stroke: #000000; stroke-width: 0.8"/>
      </g>
     </g>
     <g id="text_9">
      <!-- 1 -->
      <g transform="translate(44.2375 102.570864)scale(0.1 -0.1)">
       <use xlink:href="#DejaVuSans-31"/>
      </g>
     </g>
    </g>
   </g>
   <g id="line2d_23">
    <path d="M 73.832727 140.325517 
L 77.079273 123.981653 
L 80.325818 114.06156 
L 83.572364 108.0458 
L 86.818909 104.396931 
L 90.065455 102.183871 
L 93.312 100.833989 
L 96.558545 100.026559 
L 99.805091 99.537549 
L 103.051636 99.234194 
L 106.298182 99.054083 
L 109.544727 98.942015 
L 112.791273 98.87673 
L 116.037818 98.830889 
L 119.284364 98.808899 
L 122.530909 98.76997 
L 125.777455 98.615176 
L 129.024 98.615174 
L 132.270545 98.615173 
L 135.517091 98.615173 
L 138.763636 98.615173 
L 142.010182 98.615173 
L 145.256727 98.615172 
L 148.503273 98.615172 
L 151.749818 98.615172 
L 154.996364 98.615172 
L 158.242909 98.615172 
L 161.489455 98.615172 
L 164.736 98.615172 
L 167.982545 98.615172 
L 171.229091 98.647754 
L 174.475636 113.59441 
L 177.722182 122.623608 
L 180.968727 128.092482 
L 184.215273 131.411654 
L 187.461818 133.428809 
L 190.708364 134.650433 
L 193.954909 135.392723 
L 197.201455 135.845473 
L 200.448 136.121344 
L 203.694545 136.287994 
L 206.941091 136.38946 
L 210.187636 136.455124 
L 213.434182 136.492021 
L 216.680727 136.510985 
L 219.927273 136.527392 
L 223.173818 136.537954 
L 226.420364 136.539766 
L 229.666909 136.543306 
L 232.913455 136.546322 
L 236.16 136.546985 
L 239.406545 136.547482 
L 242.653091 136.54792 
L 245.899636 136.54805 
L 249.146182 136.54818 
L 252.392727 136.54831 
L 255.639273 136.54844 
L 258.885818 136.548571 
L 262.132364 136.548596 
L 265.378909 136.548612 
L 268.625455 136.549015 
L 271.872 138.031899 
L 275.118545 138.931044 
L 278.365091 139.474018 
L 281.611636 139.800995 
L 284.858182 139.998595 
L 288.104727 140.118634 
L 291.351273 140.192245 
L 294.597818 140.238124 
L 297.844364 140.267087 
L 301.090909 140.285492 
L 304.337455 140.297437 
L 307.584 140.305267 
L 310.830545 140.310554 
L 314.077091 140.314048 
L 317.323636 140.316426 
L 320.570182 140.318232 
L 323.816727 140.319504 
L 327.063273 140.320475 
L 330.309818 140.321225 
L 333.556364 140.321825 
L 336.802909 140.322311 
L 340.049455 140.322721 
L 343.296 140.323069 
L 346.542545 140.323367 
L 349.789091 140.323629 
L 353.035636 140.32386 
L 356.282182 140.324061 
L 359.528727 140.324242 
L 362.775273 140.32441 
L 366.021818 140.324557 
L 369.268364 140.32469 
L 372.514909 140.324814 
L 375.761455 140.324924 
L 379.008 140.325026 
L 382.254545 140.32512 
L 385.501091 140.325207 
L 388.747636 140.325286 
L 391.994182 140.32536 
L 395.240727 140.325428 
L 398.487273 140.325492 
" clip-path="url(#pf38fbd5455)" style="fill: none; stroke: #1f77b4; stroke-width: 1.5; stroke-linecap: square"/>
   </g>
   <g id="line2d_24">
    <path d="M 73.832727 140.311413 
L 77.079273 124.07396 
L 80.325818 114.094799 
L 83.572364 108.061409 
L 86.818909 104.405197 
L 90.065455 102.188438 
L 93.312 100.836566 
L 96.558545 100.028006 
L 99.805091 99.538429 
L 103.051636 99.234718 
L 106.298182 99.054416 
L 109.544727 98.942215 
L 112.791273 98.876853 
L 116.037818 98.830948 
L 119.284364 98.808918 
L 122.530909 98.785951 
L 125.777455 98.695345 
L 129.024 98.695343 
L 132.270545 98.695343 
L 135.517091 98.695342 
L 138.763636 98.695342 
L 142.010182 98.695342 
L 145.256727 98.695342 
L 148.503273 98.695342 
L 151.749818 98.695342 
L 154.996364 98.695342 
L 158.242909 98.695342 
L 161.489455 98.695342 
L 164.736 98.695342 
L 167.982545 98.695342 
L 171.229091 98.704761 
L 174.475636 113.603726 
L 177.722182 122.63212 
L 180.968727 128.100529 
L 184.215273 131.418478 
L 187.461818 133.434983 
L 190.708364 134.655639 
L 193.954909 135.397016 
L 197.201455 135.848819 
L 200.448 136.12388 
L 203.694545 136.289768 
L 206.941091 136.390743 
L 210.187636 136.456082 
L 213.434182 136.49255 
L 216.680727 136.511259 
L 219.927273 136.527766 
L 223.173818 136.538181 
L 226.420364 136.539677 
L 229.666909 136.543424 
L 232.913455 136.54651 
L 236.16 136.547055 
L 239.406545 136.5475 
L 242.653091 136.547933 
L 245.899636 136.548061 
L 249.146182 136.54819 
L 252.392727 136.548318 
L 255.639273 136.548446 
L 258.885818 136.548575 
L 262.132364 136.548599 
L 265.378909 136.548614 
L 268.625455 136.548701 
L 271.872 137.985507 
L 275.118545 138.84856 
L 278.365091 139.34451 
L 281.611636 139.628013 
L 284.858182 139.79746 
L 288.104727 139.906456 
L 291.351273 139.982529 
L 294.597818 140.038321 
L 297.844364 140.080986 
L 301.090909 140.114702 
L 304.337455 140.141868 
L 307.584 140.164185 
L 310.830545 140.182752 
L 314.077091 140.198364 
L 317.323636 140.211478 
L 320.570182 140.223122 
L 323.816727 140.232977 
L 327.063273 140.241663 
L 330.309818 140.249264 
L 333.556364 140.256023 
L 336.802909 140.262005 
L 340.049455 140.267347 
L 343.296 140.272142 
L 346.542545 140.276452 
L 349.789091 140.280351 
L 353.035636 140.283886 
L 356.282182 140.287075 
L 359.528727 140.289983 
L 362.775273 140.292659 
L 366.021818 140.295078 
L 369.268364 140.297298 
L 372.514909 140.299353 
L 375.761455 140.301227 
L 379.008 140.302961 
L 382.254545 140.304566 
L 385.501091 140.306051 
L 388.747636 140.307423 
L 391.994182 140.308698 
L 395.240727 140.309885 
L 398.487273 140.310991 
" clip-path="url(#pf38fbd5455)" style="fill: none; stroke: #ff7f0e; stroke-width: 1.5; stroke-linecap: square"/>
   </g>
   <g id="line2d_25">
    <path d="M 73.832727 140.306262 
L 77.079273 124.102742 
L 80.325818 114.105126 
L 83.572364 108.066255 
L 86.818909 104.407764 
L 90.065455 102.189856 
L 93.312 100.837366 
L 96.558545 100.028456 
L 99.805091 99.538702 
L 103.051636 99.234881 
L 106.298182 99.054519 
L 109.544727 98.942276 
L 112.791273 98.87689 
L 116.037818 98.830966 
L 119.284364 98.808924 
L 122.530909 98.785589 
L 125.777455 98.767626 
L 129.024 98.767626 
L 132.270545 98.767626 
L 135.517091 98.767626 
L 138.763636 98.767626 
L 142.010182 98.767625 
L 145.256727 98.767625 
L 148.503273 98.767625 
L 151.749818 98.767625 
L 154.996364 98.767625 
L 158.242909 98.767625 
L 161.489455 98.767625 
L 164.736 98.767625 
L 167.982545 98.767625 
L 171.229091 98.7707 
L 174.475636 113.626603 
L 177.722182 122.653025 
L 180.968727 128.1203 
L 184.215273 131.435257 
L 187.461818 133.450124 
L 190.708364 134.668523 
L 193.954909 135.40753 
L 197.201455 135.857066 
L 200.448 136.13005 
L 203.694545 136.2942 
L 206.941091 136.393897 
L 210.187636 136.458312 
L 213.434182 136.493884 
L 216.680727 136.512031 
L 219.927273 136.528581 
L 223.173818 136.538677 
L 226.420364 136.539584 
L 229.666909 136.543676 
L 232.913455 136.546873 
L 236.16 136.547196 
L 239.406545 136.547544 
L 242.653091 136.547966 
L 245.899636 136.54809 
L 249.146182 136.548213 
L 252.392727 136.548337 
L 255.639273 136.54846 
L 258.885818 136.548584 
L 262.132364 136.548605 
L 265.378909 136.548618 
L 268.625455 136.548656 
L 271.872 137.971369 
L 275.118545 138.824081 
L 278.365091 139.307883 
L 281.611636 139.581858 
L 284.858182 139.746529 
L 288.104727 139.854544 
L 291.351273 139.931896 
L 294.597818 139.989997 
L 297.844364 140.035394 
L 301.090909 140.071981 
L 304.337455 140.101985 
L 307.584 140.127041 
L 310.830545 140.1482 
L 314.077091 140.166257 
L 317.323636 140.181628 
L 320.570182 140.195426 
L 323.816727 140.207235 
L 327.063273 140.217748 
L 330.309818 140.22703 
L 333.556364 140.235355 
L 336.802909 140.24278 
L 340.049455 140.249455 
L 343.296 140.255485 
L 346.542545 140.260935 
L 349.789091 140.265889 
L 353.035636 140.270402 
L 356.282182 140.274496 
L 359.528727 140.278243 
L 362.775273 140.281701 
L 366.021818 140.284841 
L 369.268364 140.287731 
L 372.514909 140.290409 
L 375.761455 140.292862 
L 379.008 140.295135 
L 382.254545 140.297242 
L 385.501091 140.299196 
L 388.747636 140.301004 
L 391.994182 140.302688 
L 395.240727 140.304258 
L 398.487273 140.305723 
" clip-path="url(#pf38fbd5455)" style="fill: none; stroke: #2ca02c; stroke-width: 1.5; stroke-linecap: square"/>
   </g>
   <g id="patch_9">
    <path d="M 57.6 142.411034 
L 57.6 96.529655 
" style="fill: none; stroke: #000000; stroke-width: 0.8; stroke-linejoin: miter; stroke-linecap: square"/>
   </g>
   <g id="patch_10">
    <path d="M 414.72 142.411034 
L 414.72 96.529655 
" style="fill: none; stroke: #000000; stroke-width: 0.8; stroke-linejoin: miter; stroke-linecap: square"/>
   </g>
   <g id="patch_11">
    <path d="M 57.6 142.411034 
L 414.72 142.411034 
" style="fill: none; stroke: #000000; stroke-width: 0.8; stroke-linejoin: miter; stroke-linecap: square"/>
   </g>
   <g id="patch_12">
    <path d="M 57.6 96.529655 
L 414.72 96.529655 
" style="fill: none; stroke: #000000; stroke-width: 0.8; stroke-linejoin: miter; stroke-linecap: square"/>
   </g>
   <g id="text_10">
    <!-- Pressure -->
    <g transform="translate(210.546562 90.529655)scale(0.12 -0.12)">
     <defs>
      <path id="DejaVuSans-50" d="M 1259 4147 
L 1259 2394 
L 2053 2394 
Q 2494 2394 2734 2622 
Q 2975 2850 2975 3272 
Q 2975 3691 2734 3919 
Q 2494 4147 2053 4147 
L 1259 4147 
z
M 628 4666 
L 2053 4666 
Q 2838 4666 3239 4311 
Q 3641 3956 3641 3272 
Q 3641 2581 3239 2228 
Q 2838 1875 2053 1875 
L 1259 1875 
L 1259 0 
L 628 0 
L 628 4666 
z
" transform="scale(0.015625)"/>
      <path id="DejaVuSans-75" d="M 544 1381 
L 544 3500 
L 1119 3500 
L 1119 1403 
Q 1119 906 1312 657 
Q 1506 409 1894 409 
Q 2359 409 2629 706 
Q 2900 1003 2900 1516 
L 2900 3500 
L 3475 3500 
L 3475 0 
L 2900 0 
L 2900 538 
Q 2691 219 2414 64 
Q 2138 -91 1772 -91 
Q 1169 -91 856 284 
Q 544 659 544 1381 
z
M 1991 3584 
L 1991 3584 
z
" transform="scale(0.015625)"/>
     </defs>
     <use xlink:href="#DejaVuSans-50"/>
     <use xlink:href="#DejaVuSans-72" x="58.552734"/>
     <use xlink:href="#DejaVuSans-65" x="97.416016"/>
     <use xlink:href="#DejaVuSans-73" x="158.939453"/>
     <use xlink:href="#DejaVuSans-73" x="211.039062"/>
     <use xlink:href="#DejaVuSans-75" x="263.138672"/>
     <use xlink:href="#DejaVuSans-72" x="326.517578"/>
     <use xlink:href="#DejaVuSans-65" x="365.380859"/>
    </g>
   </g>
   <g id="legend_2">
    <g id="patch_13">
     <path d="M 350.823125 137.411034 
L 407.72 137.411034 
Q 409.72 137.411034 409.72 135.411034 
L 409.72 92.376659 
Q 409.72 90.376659 407.72 90.376659 
L 350.823125 90.376659 
Q 348.823125 90.376659 348.823125 92.376659 
L 348.823125 135.411034 
Q 348.823125 137.411034 350.823125 137.411034 
z
" style="fill: #ffffff; opacity: 0.8; stroke: #cccccc; stroke-linejoin: miter"/>
    </g>
    <g id="line2d_26">
     <path d="M 352.823125 98.475097 
L 362.823125 98.475097 
L 372.823125 98.475097 
" style="fill: none; stroke: #1f77b4; stroke-width: 1.5; stroke-linecap: square"/>
    </g>
    <g id="text_11">
     <!-- P1 -->
     <g transform="translate(380.823125 101.975097)scale(0.1 -0.1)">
      <use xlink:href="#DejaVuSans-50"/>
      <use xlink:href="#DejaVuSans-31" x="60.302734"/>
     </g>
    </g>
    <g id="line2d_27">
     <path d="M 352.823125 113.153222 
L 362.823125 113.153222 
L 372.823125 113.153222 
" style="fill: none; stroke: #ff7f0e; stroke-width: 1.5; stroke-linecap: square"/>
    </g>
    <g id="text_12">
     <!-- Pmid -->
     <g transform="translate(380.823125 116.653222)scale(0.1 -0.1)">
      <use xlink:href="#DejaVuSans-50"/>
      <use xlink:href="#DejaVuSans-6d" x="60.302734"/>
      <use xlink:href="#DejaVuSans-69" x="157.714844"/>
      <use xlink:href="#DejaVuSans-64" x="185.498047"/>
     </g>
    </g>
    <g id="line2d_28">
     <path d="M 352.823125 127.831347 
L 362.823125 127.831347 
L 372.823125 127.831347 
" style="fill: none; stroke: #2ca02c; stroke-width: 1.5; stroke-linecap: square"/>
    </g>
    <g id="text_13">
     <!-- PN -->
     <g transform="translate(380.823125 131.331347)scale(0.1 -0.1)">
      <use xlink:href="#DejaVuSans-50"/>
      <use xlink:href="#DejaVuSans-4e" x="60.302734"/>
     </g>
    </g>
   </g>
  </g>
  <g id="axes_3">
   <g id="patch_14">
    <path d="M 57.6 197.46869 
L 414.72 197.46869 
L 414.72 151.58731 
L 57.6 151.58731 
z
" style="fill: #ffffff"/>
   </g>
   <g id="matplotlib.axis_5">
    <g id="xtick_13">
     <g id="line2d_29">
      <g>
       <use xlink:href="#mb0e1abfe1d" x="73.832727" y="197.46869" style="stroke: #000000; stroke-width: 0.8"/>
      </g>
     </g>
    </g>
    <g id="xtick_14">
     <g id="line2d_30">
      <g>
       <use xlink:href="#mb0e1abfe1d" x="138.763636" y="197.46869" style="stroke: #000000; stroke-width: 0.8"/>
      </g>
     </g>
    </g>
    <g id="xtick_15">
     <g id="line2d_31">
      <g>
       <use xlink:href="#mb0e1abfe1d" x="203.694545" y="197.46869" style="stroke: #000000; stroke-width: 0.8"/>
      </g>
     </g>
    </g>
    <g id="xtick_16">
     <g id="line2d_32">
      <g>
       <use xlink:href="#mb0e1abfe1d" x="268.625455" y="197.46869" style="stroke: #000000; stroke-width: 0.8"/>
      </g>
     </g>
    </g>
    <g id="xtick_17">
     <g id="line2d_33">
      <g>
       <use xlink:href="#mb0e1abfe1d" x="333.556364" y="197.46869" style="stroke: #000000; stroke-width: 0.8"/>
      </g>
     </g>
    </g>
    <g id="xtick_18">
     <g id="line2d_34">
      <g>
       <use xlink:href="#mb0e1abfe1d" x="398.487273" y="197.46869" style="stroke: #000000; stroke-width: 0.8"/>
      </g>
     </g>
    </g>
   </g>
   <g id="matplotlib.axis_6">
    <g id="ytick_5">
     <g id="line2d_35">
      <g>
       <use xlink:href="#m5682f19ad9" x="57.6" y="182.5661" style="stroke: #000000; stroke-width: 0.8"/>
      </g>
     </g>
     <g id="text_14">
      <!-- 0.04 -->
      <g transform="translate(28.334375 186.365318)scale(0.1 -0.1)">
       <defs>
        <path id="DejaVuSans-34" d="M 2419 4116 
L 825 1625 
L 2419 1625 
L 2419 4116 
z
M 2253 4666 
L 3047 4666 
L 3047 1625 
L 3713 1625 
L 3713 1100 
L 3047 1100 
L 3047 0 
L 2419 0 
L 2419 1100 
L 313 1100 
L 313 1709 
L 2253 4666 
z
" transform="scale(0.015625)"/>
       </defs>
       <use xlink:href="#DejaVuSans-30"/>
       <use xlink:href="#DejaVuSans-2e" x="63.623047"/>
       <use xlink:href="#DejaVuSans-30" x="95.410156"/>
       <use xlink:href="#DejaVuSans-34" x="159.033203"/>
      </g>
     </g>
    </g>
    <g id="ytick_6">
     <g id="line2d_36">
      <g>
       <use xlink:href="#m5682f19ad9" x="57.6" y="165.587316" style="stroke: #000000; stroke-width: 0.8"/>
      </g>
     </g>
     <g id="text_15">
      <!-- 0.05 -->
      <g transform="translate(28.334375 169.386535)scale(0.1 -0.1)">
       <use xlink:href="#DejaVuSans-30"/>
       <use xlink:href="#DejaVuSans-2e" x="63.623047"/>
       <use xlink:href="#DejaVuSans-30" x="95.410156"/>
       <use xlink:href="#DejaVuSans-35" x="159.033203"/>
      </g>
     </g>
    </g>
    <g id="text_16">
     <!-- fraction -->
     <g transform="translate(22.254687 193.73425)rotate(-90)scale(0.1 -0.1)">
      <use xlink:href="#DejaVuSans-66"/>
      <use xlink:href="#DejaVuSans-72" x="35.205078"/>
      <use xlink:href="#DejaVuSans-61" x="76.318359"/>
      <use xlink:href="#DejaVuSans-63" x="137.597656"/>
      <use xlink:href="#DejaVuSans-74" x="192.578125"/>
      <use xlink:href="#DejaVuSans-69" x="231.787109"/>
      <use xlink:href="#DejaVuSans-6f" x="259.570312"/>
      <use xlink:href="#DejaVuSans-6e" x="320.751953"/>
     </g>
    </g>
   </g>
   <g id="line2d_37">
    <path d="M 73.832727 193.459915 
L 77.079273 164.878908 
L 80.325818 164.728622 
L 83.572364 164.917993 
L 86.818909 164.884876 
L 90.065455 164.898701 
L 93.312 164.880718 
L 96.558545 165.108433 
L 99.805091 164.988724 
L 103.051636 164.9815 
L 106.298182 164.98338 
L 109.544727 164.98125 
L 112.791273 164.980696 
L 116.037818 164.974953 
L 119.284364 164.961855 
L 122.530909 164.943342 
L 125.777455 165.565915 
L 129.024 165.575501 
L 132.270545 165.58075 
L 135.517091 165.583774 
L 138.763636 165.585451 
L 142.010182 165.586349 
L 145.256727 165.586717 
L 148.503273 165.586862 
L 151.749818 165.586965 
L 154.996364 165.587029 
L 158.242909 165.587117 
L 161.489455 165.58719 
L 164.736 165.58724 
L 167.982545 165.58727 
L 171.229091 165.587288 
L 174.475636 165.68284 
L 177.722182 165.926298 
L 180.968727 166.282465 
L 184.215273 166.725774 
L 187.461818 167.203907 
L 190.708364 167.654506 
L 193.954909 168.027861 
L 197.201455 168.314511 
L 200.448 168.516344 
L 203.694545 168.651044 
L 206.941091 168.737727 
L 210.187636 168.79385 
L 213.434182 168.829592 
L 216.680727 168.849174 
L 219.927273 168.861645 
L 223.173818 168.87214 
L 226.420364 168.87647 
L 229.666909 168.877543 
L 232.913455 168.879386 
L 236.16 168.880934 
L 239.406545 168.881811 
L 242.653091 168.882245 
L 245.899636 168.882366 
L 249.146182 168.882488 
L 252.392727 168.88261 
L 255.639273 168.882732 
L 258.885818 168.882853 
L 262.132364 168.88288 
L 265.378909 168.882894 
L 268.625455 168.882917 
L 271.872 170.802819 
L 275.118545 173.551894 
L 278.365091 176.795925 
L 281.611636 180.161958 
L 284.858182 183.241265 
L 288.104727 185.829102 
L 291.351273 187.794394 
L 294.597818 189.290172 
L 297.844364 190.380123 
L 301.090909 191.103677 
L 304.337455 191.624343 
L 307.584 191.986277 
L 310.830545 192.243597 
L 314.077091 192.423059 
L 317.323636 192.56654 
L 320.570182 192.667294 
L 323.816727 192.754319 
L 327.063273 192.825381 
L 330.309818 192.886472 
L 333.556364 192.940278 
L 336.802909 192.988606 
L 340.049455 193.03289 
L 343.296 193.073575 
L 346.542545 193.11106 
L 349.789091 193.145915 
L 353.035636 193.178398 
L 356.282182 193.208673 
L 359.528727 193.237144 
L 362.775273 193.26414 
L 366.021818 193.289123 
L 369.268364 193.312527 
L 372.514909 193.334487 
L 375.761455 193.355021 
L 379.008 193.374279 
L 382.254545 193.392342 
L 385.501091 193.409278 
L 388.747636 193.425153 
L 391.994182 193.440063 
L 395.240727 193.454086 
L 398.487273 193.467297 
" clip-path="url(#paf93102319)" style="fill: none; stroke: #1f77b4; stroke-width: 1.5; stroke-linecap: square"/>
   </g>
   <g id="line2d_38">
    <path d="M 73.832727 195.383172 
L 77.079273 154.736762 
L 80.325818 153.914779 
L 83.572364 153.75116 
L 86.818909 153.695577 
L 90.065455 153.67637 
L 93.312 153.672828 
L 96.558545 153.675978 
L 99.805091 153.683779 
L 103.051636 153.693743 
L 106.298182 153.704921 
L 109.544727 153.716751 
L 112.791273 153.729023 
L 116.037818 153.741439 
L 119.284364 153.754051 
L 122.530909 153.766614 
L 125.777455 160.720661 
L 129.024 162.485189 
L 132.270545 163.525129 
L 135.517091 164.239434 
L 138.763636 164.71837 
L 142.010182 165.032529 
L 145.256727 165.223123 
L 148.503273 165.338162 
L 151.749818 165.413951 
L 154.996364 165.461903 
L 158.242909 165.498766 
L 161.489455 165.525857 
L 164.736 165.543385 
L 167.982545 165.557144 
L 171.229091 165.566918 
L 174.475636 165.65266 
L 177.722182 165.897172 
L 180.968727 166.255287 
L 184.215273 166.70078 
L 187.461818 167.181485 
L 190.708364 167.634018 
L 193.954909 168.008346 
L 197.201455 168.294837 
L 200.448 168.495697 
L 203.694545 168.629058 
L 206.941091 168.714564 
L 210.187636 168.769774 
L 213.434182 168.804514 
L 216.680727 168.823357 
L 219.927273 168.835906 
L 223.173818 168.846183 
L 226.420364 168.849741 
L 229.666909 168.851094 
L 232.913455 168.853174 
L 236.16 168.854532 
L 239.406545 168.855314 
L 242.653091 168.855752 
L 245.899636 168.855893 
L 249.146182 168.856034 
L 252.392727 168.856176 
L 255.639273 168.856317 
L 258.885818 168.856458 
L 262.132364 168.856506 
L 265.378909 168.856542 
L 268.625455 168.856575 
L 271.872 170.668947 
L 275.118545 173.140687 
L 278.365091 175.719897 
L 281.611636 178.038128 
L 284.858182 179.974096 
L 288.104727 181.598377 
L 291.351273 182.981213 
L 294.597818 184.199686 
L 297.844364 185.275793 
L 301.090909 186.225235 
L 304.337455 187.077754 
L 307.584 187.844256 
L 310.830545 188.533262 
L 314.077091 189.154165 
L 317.323636 189.726618 
L 320.570182 190.226553 
L 323.816727 190.703084 
L 327.063273 191.127609 
L 330.309818 191.521925 
L 333.556364 191.8776 
L 336.802909 192.207309 
L 340.049455 192.510983 
L 343.296 192.789594 
L 346.542545 193.047033 
L 349.789091 193.285157 
L 353.035636 193.504862 
L 356.282182 193.707832 
L 359.528727 193.895735 
L 362.775273 194.070176 
L 366.021818 194.231705 
L 369.268364 194.382056 
L 372.514909 194.522553 
L 375.761455 194.652562 
L 379.008 194.773717 
L 382.254545 194.88673 
L 385.501091 194.992243 
L 388.747636 195.090859 
L 391.994182 195.183355 
L 395.240727 195.269588 
L 398.487273 195.349734 
" clip-path="url(#paf93102319)" style="fill: none; stroke: #ff7f0e; stroke-width: 1.5; stroke-linecap: square"/>
   </g>
   <g id="patch_15">
    <path d="M 57.6 197.46869 
L 57.6 151.58731 
" style="fill: none; stroke: #000000; stroke-width: 0.8; stroke-linejoin: miter; stroke-linecap: square"/>
   </g>
   <g id="patch_16">
    <path d="M 414.72 197.46869 
L 414.72 151.58731 
" style="fill: none; stroke: #000000; stroke-width: 0.8; stroke-linejoin: miter; stroke-linecap: square"/>
   </g>
   <g id="patch_17">
    <path d="M 57.6 197.46869 
L 414.72 197.46869 
" style="fill: none; stroke: #000000; stroke-width: 0.8; stroke-linejoin: miter; stroke-linecap: square"/>
   </g>
   <g id="patch_18">
    <path d="M 57.6 151.58731 
L 414.72 151.58731 
" style="fill: none; stroke: #000000; stroke-width: 0.8; stroke-linejoin: miter; stroke-linecap: square"/>
   </g>
   <g id="text_17">
    <!-- yA -->
    <g transform="translate(228.504375 145.58731)scale(0.12 -0.12)">
     <defs>
      <path id="DejaVuSans-41" d="M 2188 4044 
L 1331 1722 
L 3047 1722 
L 2188 4044 
z
M 1831 4666 
L 2547 4666 
L 4325 0 
L 3669 0 
L 3244 1197 
L 1141 1197 
L 716 0 
L 50 0 
L 1831 4666 
z
" transform="scale(0.015625)"/>
     </defs>
     <use xlink:href="#DejaVuSans-79"/>
     <use xlink:href="#DejaVuSans-41" x="59.179688"/>
    </g>
   </g>
   <g id="legend_3">
    <g id="patch_19">
     <path d="M 330.030938 188.94356 
L 407.72 188.94356 
Q 409.72 188.94356 409.72 186.94356 
L 409.72 158.58731 
Q 409.72 156.58731 407.72 156.58731 
L 330.030938 156.58731 
Q 328.030938 156.58731 328.030938 158.58731 
L 328.030938 186.94356 
Q 328.030938 188.94356 330.030938 188.94356 
z
" style="fill: #ffffff; opacity: 0.8; stroke: #cccccc; stroke-linejoin: miter"/>
    </g>
    <g id="line2d_39">
     <path d="M 332.030938 164.685748 
L 342.030938 164.685748 
L 352.030938 164.685748 
" style="fill: none; stroke: #1f77b4; stroke-width: 1.5; stroke-linecap: square"/>
    </g>
    <g id="text_18">
     <!-- yA0 (in) -->
     <g transform="translate(360.030938 168.185748)scale(0.1 -0.1)">
      <use xlink:href="#DejaVuSans-79"/>
      <use xlink:href="#DejaVuSans-41" x="59.179688"/>
      <use xlink:href="#DejaVuSans-30" x="127.587891"/>
      <use xlink:href="#DejaVuSans-20" x="191.210938"/>
      <use xlink:href="#DejaVuSans-28" x="222.998047"/>
      <use xlink:href="#DejaVuSans-69" x="262.011719"/>
      <use xlink:href="#DejaVuSans-6e" x="289.794922"/>
      <use xlink:href="#DejaVuSans-29" x="353.173828"/>
     </g>
    </g>
    <g id="line2d_40">
     <path d="M 332.030938 179.363873 
L 342.030938 179.363873 
L 352.030938 179.363873 
" style="fill: none; stroke: #ff7f0e; stroke-width: 1.5; stroke-linecap: square"/>
    </g>
    <g id="text_19">
     <!-- yAL (out) -->
     <g transform="translate(360.030938 182.863873)scale(0.1 -0.1)">
      <defs>
       <path id="DejaVuSans-4c" d="M 628 4666 
L 1259 4666 
L 1259 531 
L 3531 531 
L 3531 0 
L 628 0 
L 628 4666 
z
" transform="scale(0.015625)"/>
      </defs>
      <use xlink:href="#DejaVuSans-79"/>
      <use xlink:href="#DejaVuSans-41" x="59.179688"/>
      <use xlink:href="#DejaVuSans-4c" x="127.587891"/>
      <use xlink:href="#DejaVuSans-20" x="183.300781"/>
      <use xlink:href="#DejaVuSans-28" x="215.087891"/>
      <use xlink:href="#DejaVuSans-6f" x="254.101562"/>
      <use xlink:href="#DejaVuSans-75" x="315.283203"/>
      <use xlink:href="#DejaVuSans-74" x="378.662109"/>
      <use xlink:href="#DejaVuSans-29" x="417.871094"/>
     </g>
    </g>
   </g>
  </g>
  <g id="axes_4">
   <g id="patch_20">
    <path d="M 57.6 252.526345 
L 414.72 252.526345 
L 414.72 206.644966 
L 57.6 206.644966 
z
" style="fill: #ffffff"/>
   </g>
   <g id="matplotlib.axis_7">
    <g id="xtick_19">
     <g id="line2d_41">
      <g>
       <use xlink:href="#mb0e1abfe1d" x="73.832727" y="252.526345" style="stroke: #000000; stroke-width: 0.8"/>
      </g>
     </g>
    </g>
    <g id="xtick_20">
     <g id="line2d_42">
      <g>
       <use xlink:href="#mb0e1abfe1d" x="138.763636" y="252.526345" style="stroke: #000000; stroke-width: 0.8"/>
      </g>
     </g>
    </g>
    <g id="xtick_21">
     <g id="line2d_43">
      <g>
       <use xlink:href="#mb0e1abfe1d" x="203.694545" y="252.526345" style="stroke: #000000; stroke-width: 0.8"/>
      </g>
     </g>
    </g>
    <g id="xtick_22">
     <g id="line2d_44">
      <g>
       <use xlink:href="#mb0e1abfe1d" x="268.625455" y="252.526345" style="stroke: #000000; stroke-width: 0.8"/>
      </g>
     </g>
    </g>
    <g id="xtick_23">
     <g id="line2d_45">
      <g>
       <use xlink:href="#mb0e1abfe1d" x="333.556364" y="252.526345" style="stroke: #000000; stroke-width: 0.8"/>
      </g>
     </g>
    </g>
    <g id="xtick_24">
     <g id="line2d_46">
      <g>
       <use xlink:href="#mb0e1abfe1d" x="398.487273" y="252.526345" style="stroke: #000000; stroke-width: 0.8"/>
      </g>
     </g>
    </g>
   </g>
   <g id="matplotlib.axis_8">
    <g id="ytick_7">
     <g id="line2d_47">
      <g>
       <use xlink:href="#m5682f19ad9" x="57.6" y="237.603966" style="stroke: #000000; stroke-width: 0.8"/>
      </g>
     </g>
     <g id="text_20">
      <!-- 0.90 -->
      <g transform="translate(28.334375 241.403185)scale(0.1 -0.1)">
       <defs>
        <path id="DejaVuSans-39" d="M 703 97 
L 703 672 
Q 941 559 1184 500 
Q 1428 441 1663 441 
Q 2288 441 2617 861 
Q 2947 1281 2994 2138 
Q 2813 1869 2534 1725 
Q 2256 1581 1919 1581 
Q 1219 1581 811 2004 
Q 403 2428 403 3163 
Q 403 3881 828 4315 
Q 1253 4750 1959 4750 
Q 2769 4750 3195 4129 
Q 3622 3509 3622 2328 
Q 3622 1225 3098 567 
Q 2575 -91 1691 -91 
Q 1453 -91 1209 -44 
Q 966 3 703 97 
z
M 1959 2075 
Q 2384 2075 2632 2365 
Q 2881 2656 2881 3163 
Q 2881 3666 2632 3958 
Q 2384 4250 1959 4250 
Q 1534 4250 1286 3958 
Q 1038 3666 1038 3163 
Q 1038 2656 1286 2365 
Q 1534 2075 1959 2075 
z
" transform="scale(0.015625)"/>
       </defs>
       <use xlink:href="#DejaVuSans-30"/>
       <use xlink:href="#DejaVuSans-2e" x="63.623047"/>
       <use xlink:href="#DejaVuSans-39" x="95.410156"/>
       <use xlink:href="#DejaVuSans-30" x="159.033203"/>
      </g>
     </g>
    </g>
    <g id="ytick_8">
     <g id="line2d_48">
      <g>
       <use xlink:href="#m5682f19ad9" x="57.6" y="218.782185" style="stroke: #000000; stroke-width: 0.8"/>
      </g>
     </g>
     <g id="text_21">
      <!-- 0.91 -->
      <g transform="translate(28.334375 222.581404)scale(0.1 -0.1)">
       <use xlink:href="#DejaVuSans-30"/>
       <use xlink:href="#DejaVuSans-2e" x="63.623047"/>
       <use xlink:href="#DejaVuSans-39" x="95.410156"/>
       <use xlink:href="#DejaVuSans-31" x="159.033203"/>
      </g>
     </g>
    </g>
    <g id="text_22">
     <!-- fraction -->
     <g transform="translate(22.254687 248.791905)rotate(-90)scale(0.1 -0.1)">
      <use xlink:href="#DejaVuSans-66"/>
      <use xlink:href="#DejaVuSans-72" x="35.205078"/>
      <use xlink:href="#DejaVuSans-61" x="76.318359"/>
      <use xlink:href="#DejaVuSans-63" x="137.597656"/>
      <use xlink:href="#DejaVuSans-74" x="192.578125"/>
      <use xlink:href="#DejaVuSans-69" x="231.787109"/>
      <use xlink:href="#DejaVuSans-6f" x="259.570312"/>
      <use xlink:href="#DejaVuSans-6e" x="320.751953"/>
     </g>
    </g>
   </g>
   <g id="line2d_49">
    <path d="M 73.832727 210.855414 
L 77.079273 238.309932 
L 80.325818 238.450972 
L 83.572364 238.244879 
L 86.818909 238.275435 
L 90.065455 238.315359 
L 93.312 238.337794 
L 96.558545 238.204842 
L 99.805091 238.325683 
L 103.051636 238.210989 
L 106.298182 238.070039 
L 109.544727 238.098962 
L 112.791273 238.100836 
L 116.037818 238.110198 
L 119.284364 238.129294 
L 122.530909 238.154116 
L 125.777455 237.582265 
L 129.024 237.584623 
L 132.270545 237.588062 
L 135.517091 237.591393 
L 138.763636 237.594312 
L 142.010182 237.596714 
L 145.256727 237.598623 
L 148.503273 237.600057 
L 151.749818 237.601098 
L 154.996364 237.601851 
L 158.242909 237.602388 
L 161.489455 237.602783 
L 164.736 237.603067 
L 167.982545 237.603293 
L 171.229091 237.603459 
L 174.475636 237.516235 
L 177.722182 237.280658 
L 180.968727 236.932705 
L 184.215273 236.497982 
L 187.461818 236.028375 
L 190.708364 235.585938 
L 193.954909 235.218073 
L 197.201455 234.936176 
L 200.448 234.737504 
L 203.694545 234.604944 
L 206.941091 234.519623 
L 210.187636 234.464377 
L 213.434182 234.429201 
L 216.680727 234.409888 
L 219.927273 234.397624 
L 223.173818 234.387335 
L 226.420364 234.383008 
L 229.666909 234.381936 
L 232.913455 234.380164 
L 236.16 234.378639 
L 239.406545 234.377767 
L 242.653091 234.377338 
L 245.899636 234.377217 
L 249.146182 234.377096 
L 252.392727 234.376975 
L 255.639273 234.376854 
L 258.885818 234.376733 
L 262.132364 234.376706 
L 265.378909 234.37669 
L 268.625455 234.376675 
L 271.872 232.502504 
L 275.118545 229.815552 
L 278.365091 226.663551 
L 281.611636 223.42407 
L 284.858182 220.489577 
L 288.104727 218.047153 
L 291.351273 216.20255 
L 294.597818 214.807346 
L 297.844364 213.781866 
L 301.090909 213.116937 
L 304.337455 212.631107 
L 307.584 212.292158 
L 310.830545 212.050566 
L 314.077091 211.88065 
L 317.323636 211.744988 
L 320.570182 211.64724 
L 323.816727 211.563426 
L 327.063273 211.494026 
L 330.309818 211.433978 
L 333.556364 211.380733 
L 336.802909 211.332619 
L 340.049455 211.288335 
L 343.296 211.247499 
L 346.542545 211.20975 
L 349.789091 211.174569 
L 353.035636 211.141713 
L 356.282182 211.111014 
L 359.528727 211.082104 
L 362.775273 211.054675 
L 366.021818 211.029241 
L 369.268364 211.005395 
L 372.514909 210.983016 
L 375.761455 210.962062 
L 379.008 210.942401 
L 382.254545 210.923953 
L 385.501091 210.906647 
L 388.747636 210.890416 
L 391.994182 210.875167 
L 395.240727 210.86082 
L 398.487273 210.847298 
" clip-path="url(#p5a8ddbbc5d)" style="fill: none; stroke: #1f77b4; stroke-width: 1.5; stroke-linecap: square"/>
   </g>
   <g id="line2d_50">
    <path d="M 73.832727 209.121483 
L 77.079273 249.365867 
L 80.325818 250.203754 
L 83.572364 250.367116 
L 86.818909 250.421256 
L 90.065455 250.438872 
L 93.312 250.440828 
L 96.558545 250.436194 
L 99.805091 250.426901 
L 103.051636 250.415473 
L 106.298182 250.402857 
L 109.544727 250.389609 
L 112.791273 250.375933 
L 116.037818 250.362121 
L 119.284364 250.348126 
L 122.530909 250.334273 
L 125.777455 242.8746 
L 129.024 240.979137 
L 132.270545 239.852298 
L 135.517091 239.073125 
L 138.763636 238.546001 
L 142.010182 238.196052 
L 145.256727 237.979488 
L 148.503273 237.845285 
L 151.749818 237.754755 
L 154.996364 237.695574 
L 158.242909 237.649786 
L 161.489455 237.615792 
L 164.736 237.593203 
L 167.982545 237.575774 
L 171.229091 237.563665 
L 174.475636 237.489353 
L 177.722182 237.252511 
L 180.968727 236.902409 
L 184.215273 236.465369 
L 187.461818 235.993027 
L 190.708364 235.548332 
L 193.954909 235.179591 
L 197.201455 234.89772 
L 200.448 234.699957 
L 203.694545 234.568657 
L 206.941091 234.484467 
L 210.187636 234.430104 
L 213.434182 234.395881 
L 216.680727 234.377284 
L 219.927273 234.364959 
L 223.173818 234.354865 
L 226.420364 234.351271 
L 229.666909 234.349941 
L 232.913455 234.347931 
L 236.16 234.346579 
L 239.406545 234.345794 
L 242.653091 234.345357 
L 245.899636 234.345212 
L 249.146182 234.345068 
L 252.392727 234.344924 
L 255.639273 234.344779 
L 258.885818 234.344635 
L 262.132364 234.344583 
L 265.378909 234.344541 
L 268.625455 234.344505 
L 271.872 232.574524 
L 275.118545 230.154242 
L 278.365091 227.635411 
L 281.611636 225.379785 
L 284.858182 223.500592 
L 288.104727 221.927293 
L 291.351273 220.589563 
L 294.597818 219.413166 
L 297.844364 218.375864 
L 301.090909 217.460952 
L 304.337455 216.640518 
L 307.584 215.903594 
L 310.830545 215.241818 
L 314.077091 214.645979 
L 317.323636 214.09719 
L 320.570182 213.617849 
L 323.816727 213.161892 
L 327.063273 212.755495 
L 330.309818 212.378631 
L 333.556364 212.038481 
L 336.802909 211.723582 
L 340.049455 211.433719 
L 343.296 211.167792 
L 346.542545 210.922231 
L 349.789091 210.695199 
L 353.035636 210.485746 
L 356.282182 210.292365 
L 359.528727 210.113401 
L 362.775273 209.947298 
L 366.021818 209.793553 
L 369.268364 209.650485 
L 372.514909 209.516818 
L 375.761455 209.393165 
L 379.008 209.277951 
L 382.254545 209.170496 
L 385.501091 209.070193 
L 388.747636 208.97647 
L 391.994182 208.88858 
L 395.240727 208.806643 
L 398.487273 208.730483 
" clip-path="url(#p5a8ddbbc5d)" style="fill: none; stroke: #ff7f0e; stroke-width: 1.5; stroke-linecap: square"/>
   </g>
   <g id="patch_21">
    <path d="M 57.6 252.526345 
L 57.6 206.644966 
" style="fill: none; stroke: #000000; stroke-width: 0.8; stroke-linejoin: miter; stroke-linecap: square"/>
   </g>
   <g id="patch_22">
    <path d="M 414.72 252.526345 
L 414.72 206.644966 
" style="fill: none; stroke: #000000; stroke-width: 0.8; stroke-linejoin: miter; stroke-linecap: square"/>
   </g>
   <g id="patch_23">
    <path d="M 57.6 252.526345 
L 414.72 252.526345 
" style="fill: none; stroke: #000000; stroke-width: 0.8; stroke-linejoin: miter; stroke-linecap: square"/>
   </g>
   <g id="patch_24">
    <path d="M 57.6 206.644966 
L 414.72 206.644966 
" style="fill: none; stroke: #000000; stroke-width: 0.8; stroke-linejoin: miter; stroke-linecap: square"/>
   </g>
   <g id="text_23">
    <!-- yB -->
    <g transform="translate(228.492188 200.644966)scale(0.12 -0.12)">
     <defs>
      <path id="DejaVuSans-42" d="M 1259 2228 
L 1259 519 
L 2272 519 
Q 2781 519 3026 730 
Q 3272 941 3272 1375 
Q 3272 1813 3026 2020 
Q 2781 2228 2272 2228 
L 1259 2228 
z
M 1259 4147 
L 1259 2741 
L 2194 2741 
Q 2656 2741 2882 2914 
Q 3109 3088 3109 3444 
Q 3109 3797 2882 3972 
Q 2656 4147 2194 4147 
L 1259 4147 
z
M 628 4666 
L 2241 4666 
Q 2963 4666 3353 4366 
Q 3744 4066 3744 3513 
Q 3744 3084 3544 2831 
Q 3344 2578 2956 2516 
Q 3422 2416 3680 2098 
Q 3938 1781 3938 1306 
Q 3938 681 3513 340 
Q 3088 0 2303 0 
L 628 0 
L 628 4666 
z
" transform="scale(0.015625)"/>
     </defs>
     <use xlink:href="#DejaVuSans-79"/>
     <use xlink:href="#DejaVuSans-42" x="59.179688"/>
    </g>
   </g>
   <g id="legend_4">
    <g id="patch_25">
     <path d="M 330.010625 247.526345 
L 407.72 247.526345 
Q 409.72 247.526345 409.72 245.526345 
L 409.72 217.170095 
Q 409.72 215.170095 407.72 215.170095 
L 330.010625 215.170095 
Q 328.010625 215.170095 328.010625 217.170095 
L 328.010625 245.526345 
Q 328.010625 247.526345 330.010625 247.526345 
z
" style="fill: #ffffff; opacity: 0.8; stroke: #cccccc; stroke-linejoin: miter"/>
    </g>
    <g id="line2d_51">
     <path d="M 332.010625 223.268532 
L 342.010625 223.268532 
L 352.010625 223.268532 
" style="fill: none; stroke: #1f77b4; stroke-width: 1.5; stroke-linecap: square"/>
    </g>
    <g id="text_24">
     <!-- yB0 (in) -->
     <g transform="translate(360.010625 226.768532)scale(0.1 -0.1)">
      <use xlink:href="#DejaVuSans-79"/>
      <use xlink:href="#DejaVuSans-42" x="59.179688"/>
      <use xlink:href="#DejaVuSans-30" x="127.783203"/>
      <use xlink:href="#DejaVuSans-20" x="191.40625"/>
      <use xlink:href="#DejaVuSans-28" x="223.193359"/>
      <use xlink:href="#DejaVuSans-69" x="262.207031"/>
      <use xlink:href="#DejaVuSans-6e" x="289.990234"/>
      <use xlink:href="#DejaVuSans-29" x="353.369141"/>
     </g>
    </g>
    <g id="line2d_52">
     <path d="M 332.010625 237.946657 
L 342.010625 237.946657 
L 352.010625 237.946657 
" style="fill: none; stroke: #ff7f0e; stroke-width: 1.5; stroke-linecap: square"/>
    </g>
    <g id="text_25">
     <!-- yBL (out) -->
     <g transform="translate(360.010625 241.446657)scale(0.1 -0.1)">
      <use xlink:href="#DejaVuSans-79"/>
      <use xlink:href="#DejaVuSans-42" x="59.179688"/>
      <use xlink:href="#DejaVuSans-4c" x="127.783203"/>
      <use xlink:href="#DejaVuSans-20" x="183.496094"/>
      <use xlink:href="#DejaVuSans-28" x="215.283203"/>
      <use xlink:href="#DejaVuSans-6f" x="254.296875"/>
      <use xlink:href="#DejaVuSans-75" x="315.478516"/>
      <use xlink:href="#DejaVuSans-74" x="378.857422"/>
      <use xlink:href="#DejaVuSans-29" x="418.066406"/>
     </g>
    </g>
   </g>
  </g>
  <g id="axes_5">
   <g id="patch_26">
    <path d="M 57.6 307.584 
L 414.72 307.584 
L 414.72 261.702621 
L 57.6 261.702621 
z
" style="fill: #ffffff"/>
   </g>
   <g id="matplotlib.axis_9">
    <g id="xtick_25">
     <g id="line2d_53">
      <g>
       <use xlink:href="#mb0e1abfe1d" x="73.832727" y="307.584" style="stroke: #000000; stroke-width: 0.8"/>
      </g>
     </g>
     <g id="text_26">
      <!-- 0 -->
      <g transform="translate(70.651477 322.182437)scale(0.1 -0.1)">
       <use xlink:href="#DejaVuSans-30"/>
      </g>
     </g>
    </g>
    <g id="xtick_26">
     <g id="line2d_54">
      <g>
       <use xlink:href="#mb0e1abfe1d" x="138.763636" y="307.584" style="stroke: #000000; stroke-width: 0.8"/>
      </g>
     </g>
     <g id="text_27">
      <!-- 20 -->
      <g transform="translate(132.401136 322.182437)scale(0.1 -0.1)">
       <use xlink:href="#DejaVuSans-32"/>
       <use xlink:href="#DejaVuSans-30" x="63.623047"/>
      </g>
     </g>
    </g>
    <g id="xtick_27">
     <g id="line2d_55">
      <g>
       <use xlink:href="#mb0e1abfe1d" x="203.694545" y="307.584" style="stroke: #000000; stroke-width: 0.8"/>
      </g>
     </g>
     <g id="text_28">
      <!-- 40 -->
      <g transform="translate(197.332045 322.182437)scale(0.1 -0.1)">
       <use xlink:href="#DejaVuSans-34"/>
       <use xlink:href="#DejaVuSans-30" x="63.623047"/>
      </g>
     </g>
    </g>
    <g id="xtick_28">
     <g id="line2d_56">
      <g>
       <use xlink:href="#mb0e1abfe1d" x="268.625455" y="307.584" style="stroke: #000000; stroke-width: 0.8"/>
      </g>
     </g>
     <g id="text_29">
      <!-- 60 -->
      <g transform="translate(262.262955 322.182437)scale(0.1 -0.1)">
       <defs>
        <path id="DejaVuSans-36" d="M 2113 2584 
Q 1688 2584 1439 2293 
Q 1191 2003 1191 1497 
Q 1191 994 1439 701 
Q 1688 409 2113 409 
Q 2538 409 2786 701 
Q 3034 994 3034 1497 
Q 3034 2003 2786 2293 
Q 2538 2584 2113 2584 
z
M 3366 4563 
L 3366 3988 
Q 3128 4100 2886 4159 
Q 2644 4219 2406 4219 
Q 1781 4219 1451 3797 
Q 1122 3375 1075 2522 
Q 1259 2794 1537 2939 
Q 1816 3084 2150 3084 
Q 2853 3084 3261 2657 
Q 3669 2231 3669 1497 
Q 3669 778 3244 343 
Q 2819 -91 2113 -91 
Q 1303 -91 875 529 
Q 447 1150 447 2328 
Q 447 3434 972 4092 
Q 1497 4750 2381 4750 
Q 2619 4750 2861 4703 
Q 3103 4656 3366 4563 
z
" transform="scale(0.015625)"/>
       </defs>
       <use xlink:href="#DejaVuSans-36"/>
       <use xlink:href="#DejaVuSans-30" x="63.623047"/>
      </g>
     </g>
    </g>
    <g id="xtick_29">
     <g id="line2d_57">
      <g>
       <use xlink:href="#mb0e1abfe1d" x="333.556364" y="307.584" style="stroke: #000000; stroke-width: 0.8"/>
      </g>
     </g>
     <g id="text_30">
      <!-- 80 -->
      <g transform="translate(327.193864 322.182437)scale(0.1 -0.1)">
       <defs>
        <path id="DejaVuSans-38" d="M 2034 2216 
Q 1584 2216 1326 1975 
Q 1069 1734 1069 1313 
Q 1069 891 1326 650 
Q 1584 409 2034 409 
Q 2484 409 2743 651 
Q 3003 894 3003 1313 
Q 3003 1734 2745 1975 
Q 2488 2216 2034 2216 
z
M 1403 2484 
Q 997 2584 770 2862 
Q 544 3141 544 3541 
Q 544 4100 942 4425 
Q 1341 4750 2034 4750 
Q 2731 4750 3128 4425 
Q 3525 4100 3525 3541 
Q 3525 3141 3298 2862 
Q 3072 2584 2669 2484 
Q 3125 2378 3379 2068 
Q 3634 1759 3634 1313 
Q 3634 634 3220 271 
Q 2806 -91 2034 -91 
Q 1263 -91 848 271 
Q 434 634 434 1313 
Q 434 1759 690 2068 
Q 947 2378 1403 2484 
z
M 1172 3481 
Q 1172 3119 1398 2916 
Q 1625 2713 2034 2713 
Q 2441 2713 2670 2916 
Q 2900 3119 2900 3481 
Q 2900 3844 2670 4047 
Q 2441 4250 2034 4250 
Q 1625 4250 1398 4047 
Q 1172 3844 1172 3481 
z
" transform="scale(0.015625)"/>
       </defs>
       <use xlink:href="#DejaVuSans-38"/>
       <use xlink:href="#DejaVuSans-30" x="63.623047"/>
      </g>
     </g>
    </g>
    <g id="xtick_30">
     <g id="line2d_58">
      <g>
       <use xlink:href="#mb0e1abfe1d" x="398.487273" y="307.584" style="stroke: #000000; stroke-width: 0.8"/>
      </g>
     </g>
     <g id="text_31">
      <!-- 100 -->
      <g transform="translate(388.943523 322.182437)scale(0.1 -0.1)">
       <use xlink:href="#DejaVuSans-31"/>
       <use xlink:href="#DejaVuSans-30" x="63.623047"/>
       <use xlink:href="#DejaVuSans-30" x="127.246094"/>
      </g>
     </g>
    </g>
    <g id="text_32">
     <!-- time (normalized) -->
     <g transform="translate(191.589687 335.860562)scale(0.1 -0.1)">
      <use xlink:href="#DejaVuSans-74"/>
      <use xlink:href="#DejaVuSans-69" x="39.208984"/>
      <use xlink:href="#DejaVuSans-6d" x="66.992188"/>
      <use xlink:href="#DejaVuSans-65" x="164.404297"/>
      <use xlink:href="#DejaVuSans-20" x="225.927734"/>
      <use xlink:href="#DejaVuSans-28" x="257.714844"/>
      <use xlink:href="#DejaVuSans-6e" x="296.728516"/>
      <use xlink:href="#DejaVuSans-6f" x="360.107422"/>
      <use xlink:href="#DejaVuSans-72" x="421.289062"/>
      <use xlink:href="#DejaVuSans-6d" x="460.652344"/>
      <use xlink:href="#DejaVuSans-61" x="558.064453"/>
      <use xlink:href="#DejaVuSans-6c" x="619.34375"/>
      <use xlink:href="#DejaVuSans-69" x="647.126953"/>
      <use xlink:href="#DejaVuSans-7a" x="674.910156"/>
      <use xlink:href="#DejaVuSans-65" x="727.400391"/>
      <use xlink:href="#DejaVuSans-64" x="788.923828"/>
      <use xlink:href="#DejaVuSans-29" x="852.400391"/>
     </g>
    </g>
   </g>
   <g id="matplotlib.axis_10">
    <g id="ytick_9">
     <g id="line2d_59">
      <g>
       <use xlink:href="#m5682f19ad9" x="57.6" y="302.332212" style="stroke: #000000; stroke-width: 0.8"/>
      </g>
     </g>
     <g id="text_33">
      <!-- 0.050 -->
      <g transform="translate(21.971875 306.131431)scale(0.1 -0.1)">
       <use xlink:href="#DejaVuSans-30"/>
       <use xlink:href="#DejaVuSans-2e" x="63.623047"/>
       <use xlink:href="#DejaVuSans-30" x="95.410156"/>
       <use xlink:href="#DejaVuSans-35" x="159.033203"/>
       <use xlink:href="#DejaVuSans-30" x="222.65625"/>
      </g>
     </g>
    </g>
    <g id="ytick_10">
     <g id="line2d_60">
      <g>
       <use xlink:href="#m5682f19ad9" x="57.6" y="270.426865" style="stroke: #000000; stroke-width: 0.8"/>
      </g>
     </g>
     <g id="text_34">
      <!-- 0.052 -->
      <g transform="translate(21.971875 274.226084)scale(0.1 -0.1)">
       <use xlink:href="#DejaVuSans-30"/>
       <use xlink:href="#DejaVuSans-2e" x="63.623047"/>
       <use xlink:href="#DejaVuSans-30" x="95.410156"/>
       <use xlink:href="#DejaVuSans-35" x="159.033203"/>
       <use xlink:href="#DejaVuSans-32" x="222.65625"/>
      </g>
     </g>
    </g>
    <g id="text_35">
     <!-- fraction -->
     <g transform="translate(15.892187 303.84956)rotate(-90)scale(0.1 -0.1)">
      <use xlink:href="#DejaVuSans-66"/>
      <use xlink:href="#DejaVuSans-72" x="35.205078"/>
      <use xlink:href="#DejaVuSans-61" x="76.318359"/>
      <use xlink:href="#DejaVuSans-63" x="137.597656"/>
      <use xlink:href="#DejaVuSans-74" x="192.578125"/>
      <use xlink:href="#DejaVuSans-69" x="231.787109"/>
      <use xlink:href="#DejaVuSans-6f" x="259.570312"/>
      <use xlink:href="#DejaVuSans-6e" x="320.751953"/>
     </g>
    </g>
   </g>
   <g id="line2d_61">
    <path d="M 73.832727 267.162214 
L 77.079273 303.004655 
L 80.325818 303.221281 
L 83.572364 303.188785 
L 86.818909 303.240966 
L 90.065455 302.772685 
L 93.312 302.751499 
L 96.558545 301.738816 
L 99.805091 301.839358 
L 103.051636 302.879337 
L 106.298182 304.056321 
L 109.544727 303.831187 
L 112.791273 303.820513 
L 116.037818 303.795119 
L 119.284364 303.756332 
L 122.530909 303.719891 
L 125.777455 302.717224 
L 129.024 302.607169 
L 132.270545 302.528699 
L 135.517091 302.47206 
L 138.763636 302.43157 
L 142.010182 302.40277 
L 145.256727 302.383127 
L 148.503273 302.369608 
L 151.749818 302.359815 
L 154.996364 302.352838 
L 158.242909 302.347467 
L 161.489455 302.343428 
L 164.736 302.340555 
L 167.982545 302.338352 
L 171.229091 302.336778 
L 174.475636 302.178281 
L 177.722182 301.887503 
L 180.968727 301.490204 
L 184.215273 301.009592 
L 187.461818 300.497446 
L 190.708364 300.013704 
L 193.954909 299.623688 
L 197.201455 299.319688 
L 200.448 299.107206 
L 203.694545 298.965141 
L 206.941091 298.873849 
L 210.187636 298.814779 
L 213.434182 298.777099 
L 216.680727 298.756803 
L 219.927273 298.743577 
L 223.173818 298.732184 
L 226.420364 298.728167 
L 229.666909 298.72717 
L 232.913455 298.724871 
L 236.16 298.723255 
L 239.406545 298.722406 
L 242.653091 298.72197 
L 245.899636 298.721851 
L 249.146182 298.721732 
L 252.392727 298.721613 
L 255.639273 298.721494 
L 258.885818 298.721375 
L 262.132364 298.721359 
L 265.378909 298.721353 
L 268.625455 298.721271 
L 271.872 296.567345 
L 275.118545 293.511643 
L 278.365091 289.747102 
L 281.611636 285.577716 
L 284.858182 281.517351 
L 288.104727 277.904052 
L 291.351273 275.073044 
L 294.597818 272.844495 
L 297.844364 271.295297 
L 301.090909 270.132742 
L 304.337455 269.358468 
L 307.584 268.830668 
L 310.830545 268.460635 
L 314.077091 268.214615 
L 317.323636 268.016341 
L 320.570182 267.898168 
L 323.816727 267.790889 
L 327.063273 267.711432 
L 330.309818 267.646384 
L 333.556364 267.592131 
L 336.802909 267.545846 
L 340.049455 267.505111 
L 343.296 267.46896 
L 346.542545 267.436713 
L 349.789091 267.407405 
L 353.035636 267.38068 
L 356.282182 267.356419 
L 359.528727 267.333955 
L 362.775273 267.312784 
L 366.021818 267.293624 
L 369.268364 267.275829 
L 372.514909 267.259185 
L 375.761455 267.243847 
L 379.008 267.229543 
L 382.254545 267.216195 
L 385.501091 267.203749 
L 388.747636 267.19216 
L 391.994182 267.181319 
L 395.240727 267.171167 
L 398.487273 267.161644 
" clip-path="url(#p59c0152df1)" style="fill: none; stroke: #1f77b4; stroke-width: 1.5; stroke-linecap: square"/>
   </g>
   <g id="line2d_62">
    <path d="M 73.832727 263.788138 
L 77.079273 304.590549 
L 80.325818 305.211979 
L 83.572364 305.364696 
L 86.818909 305.428051 
L 90.065455 305.459211 
L 93.312 305.475919 
L 96.558545 305.485592 
L 99.805091 305.491057 
L 103.051636 305.494305 
L 106.298182 305.496203 
L 109.544727 305.497341 
L 112.791273 305.497955 
L 116.037818 305.498356 
L 119.284364 305.498483 
L 122.530909 305.497857 
L 125.777455 303.385586 
L 129.024 302.871963 
L 132.270545 302.651743 
L 135.517091 302.544378 
L 138.763636 302.512179 
L 142.010182 302.526498 
L 145.256727 302.571255 
L 148.503273 302.627844 
L 151.749818 302.68306 
L 154.996364 302.734118 
L 158.242909 302.775841 
L 161.489455 302.80943 
L 164.736 302.836201 
L 167.982545 302.854641 
L 171.229091 302.865441 
L 174.475636 302.689686 
L 177.722182 302.399728 
L 180.968727 302.002347 
L 184.215273 301.520841 
L 187.461818 301.007704 
L 190.708364 300.524938 
L 193.954909 300.133213 
L 197.201455 299.830481 
L 200.448 299.619432 
L 203.694545 299.479272 
L 206.941091 299.389455 
L 210.187636 299.33144 
L 213.434182 299.295057 
L 216.680727 299.275653 
L 219.927273 299.26227 
L 223.173818 299.251263 
L 226.420364 299.248227 
L 229.666909 299.246772 
L 232.913455 299.244242 
L 236.16 299.242957 
L 239.406545 299.242276 
L 242.653091 299.241873 
L 245.899636 299.241773 
L 249.146182 299.241673 
L 252.392727 299.241572 
L 255.639273 299.241472 
L 258.885818 299.241371 
L 262.132364 299.241371 
L 265.378909 299.241381 
L 268.625455 299.241388 
L 271.872 297.214708 
L 275.118545 294.504564 
L 278.365091 291.619941 
L 281.611636 288.956534 
L 284.858182 286.694231 
L 288.104727 284.767778 
L 291.351273 283.113259 
L 294.597818 281.635638 
L 297.844364 280.316705 
L 301.090909 279.150554 
L 304.337455 278.094292 
L 307.584 277.138408 
L 310.830545 276.273724 
L 314.077091 275.490061 
L 317.323636 274.762825 
L 320.570182 274.128338 
L 323.816727 273.515549 
L 327.063273 272.971333 
L 330.309818 272.460646 
L 333.556364 272.001837 
L 336.802909 271.572978 
L 340.049455 271.176544 
L 343.296 270.812704 
L 346.542545 270.475193 
L 349.789091 270.162105 
L 353.035636 269.873086 
L 356.282182 269.605078 
L 359.528727 269.356439 
L 362.775273 269.125287 
L 366.021818 268.910702 
L 369.268364 268.710649 
L 372.514909 268.523498 
L 375.761455 268.350023 
L 379.008 268.188208 
L 382.254545 268.037119 
L 385.501091 267.89589 
L 388.747636 267.763696 
L 391.994182 267.63956 
L 395.240727 267.523815 
L 398.487273 267.416299 
" clip-path="url(#p59c0152df1)" style="fill: none; stroke: #ff7f0e; stroke-width: 1.5; stroke-linecap: square"/>
   </g>
   <g id="patch_27">
    <path d="M 57.6 307.584 
L 57.6 261.702621 
" style="fill: none; stroke: #000000; stroke-width: 0.8; stroke-linejoin: miter; stroke-linecap: square"/>
   </g>
   <g id="patch_28">
    <path d="M 414.72 307.584 
L 414.72 261.702621 
" style="fill: none; stroke: #000000; stroke-width: 0.8; stroke-linejoin: miter; stroke-linecap: square"/>
   </g>
   <g id="patch_29">
    <path d="M 57.6 307.584 
L 414.72 307.584 
" style="fill: none; stroke: #000000; stroke-width: 0.8; stroke-linejoin: miter; stroke-linecap: square"/>
   </g>
   <g id="patch_30">
    <path d="M 57.6 261.702621 
L 414.72 261.702621 
" style="fill: none; stroke: #000000; stroke-width: 0.8; stroke-linejoin: miter; stroke-linecap: square"/>
   </g>
   <g id="text_36">
    <!-- yC -->
    <g transform="translate(228.419062 255.702621)scale(0.12 -0.12)">
     <defs>
      <path id="DejaVuSans-43" d="M 4122 4306 
L 4122 3641 
Q 3803 3938 3442 4084 
Q 3081 4231 2675 4231 
Q 1875 4231 1450 3742 
Q 1025 3253 1025 2328 
Q 1025 1406 1450 917 
Q 1875 428 2675 428 
Q 3081 428 3442 575 
Q 3803 722 4122 1019 
L 4122 359 
Q 3791 134 3420 21 
Q 3050 -91 2638 -91 
Q 1578 -91 968 557 
Q 359 1206 359 2328 
Q 359 3453 968 4101 
Q 1578 4750 2638 4750 
Q 3056 4750 3426 4639 
Q 3797 4528 4122 4306 
z
" transform="scale(0.015625)"/>
     </defs>
     <use xlink:href="#DejaVuSans-79"/>
     <use xlink:href="#DejaVuSans-43" x="59.179688"/>
    </g>
   </g>
   <g id="legend_5">
    <g id="patch_31">
     <path d="M 64.6 300.821435 
L 142.43125 300.821435 
Q 144.43125 300.821435 144.43125 298.821435 
L 144.43125 270.465185 
Q 144.43125 268.465185 142.43125 268.465185 
L 64.6 268.465185 
Q 62.6 268.465185 62.6 270.465185 
L 62.6 298.821435 
Q 62.6 300.821435 64.6 300.821435 
z
" style="fill: #ffffff; opacity: 0.8; stroke: #cccccc; stroke-linejoin: miter"/>
    </g>
    <g id="line2d_63">
     <path d="M 66.6 276.563623 
L 76.6 276.563623 
L 86.6 276.563623 
" style="fill: none; stroke: #1f77b4; stroke-width: 1.5; stroke-linecap: square"/>
    </g>
    <g id="text_37">
     <!-- yC0 (in) -->
     <g transform="translate(94.6 280.063623)scale(0.1 -0.1)">
      <use xlink:href="#DejaVuSans-79"/>
      <use xlink:href="#DejaVuSans-43" x="59.179688"/>
      <use xlink:href="#DejaVuSans-30" x="129.003906"/>
      <use xlink:href="#DejaVuSans-20" x="192.626953"/>
      <use xlink:href="#DejaVuSans-28" x="224.414062"/>
      <use xlink:href="#DejaVuSans-69" x="263.427734"/>
      <use xlink:href="#DejaVuSans-6e" x="291.210938"/>
      <use xlink:href="#DejaVuSans-29" x="354.589844"/>
     </g>
    </g>
    <g id="line2d_64">
     <path d="M 66.6 291.241748 
L 76.6 291.241748 
L 86.6 291.241748 
" style="fill: none; stroke: #ff7f0e; stroke-width: 1.5; stroke-linecap: square"/>
    </g>
    <g id="text_38">
     <!-- yCL (out) -->
     <g transform="translate(94.6 294.741748)scale(0.1 -0.1)">
      <use xlink:href="#DejaVuSans-79"/>
      <use xlink:href="#DejaVuSans-43" x="59.179688"/>
      <use xlink:href="#DejaVuSans-4c" x="129.003906"/>
      <use xlink:href="#DejaVuSans-20" x="184.716797"/>
      <use xlink:href="#DejaVuSans-28" x="216.503906"/>
      <use xlink:href="#DejaVuSans-6f" x="255.517578"/>
      <use xlink:href="#DejaVuSans-75" x="316.699219"/>
      <use xlink:href="#DejaVuSans-74" x="380.078125"/>
      <use xlink:href="#DejaVuSans-29" x="419.287109"/>
     </g>
    </g>
   </g>
  </g>
 </g>
 <defs>
  <clipPath id="p6cd1c6905c">
   <rect x="57.6" y="41.472" width="357.12" height="45.881379"/>
  </clipPath>
  <clipPath id="pf38fbd5455">
   <rect x="57.6" y="96.529655" width="357.12" height="45.881379"/>
  </clipPath>
  <clipPath id="paf93102319">
   <rect x="57.6" y="151.58731" width="357.12" height="45.881379"/>
  </clipPath>
  <clipPath id="p5a8ddbbc5d">
   <rect x="57.6" y="206.644966" width="357.12" height="45.881379"/>
  </clipPath>
  <clipPath id="p59c0152df1">
   <rect x="57.6" y="261.702621" width="357.12" height="45.881379"/>
  </clipPath>
 </defs>
</svg>
