<?xml version="1.0" encoding="utf-8" standalone="no"?>
<!DOCTYPE svg PUBLIC "-//W3C//DTD SVG 1.1//EN"
  "http://www.w3.org/Graphics/SVG/1.1/DTD/svg11.dtd">
<svg xmlns:xlink="http://www.w3.org/1999/xlink" width="460.8pt" height="345.6pt" viewBox="0 0 460.8 345.6" xmlns="http://www.w3.org/2000/svg" version="1.1">
 <metadata>
  <rdf:RDF xmlns:dc="http://purl.org/dc/elements/1.1/" xmlns:cc="http://creativecommons.org/ns#" xmlns:rdf="http://www.w3.org/1999/02/22-rdf-syntax-ns#">
   <cc:Work>
    <dc:type rdf:resource="http://purl.org/dc/dcmitype/StillImage"/>
    <dc:date>2022-07-10T00:04:41.113051</dc:date>
    <dc:format>image/svg+xml</dc:format>
    <dc:creator>
     <cc:Agent>
      <dc:title>Matplotlib v3.5.2, https://matplotlib.org/</dc:title>
     </cc:Agent>
    </dc:creator>
   </cc:Work>
  </rdf:RDF>
 </metadata>
 <defs>
  <style type="text/css">*{stroke-linejoin: round; stroke-linecap: butt}</style>
 </defs>
 <g id="figure_1">
  <g id="patch_1">
   <path d="M 0 345.6 
L 460.8 345.6 
L 460.8 0 
L 0 0 
z
" style="fill: #ffffff"/>
  </g>
  <g id="axes_1">
   <g id="patch_2">
    <path d="M 57.6 87.353379 
L 414.72 87.353379 
L 414.72 41.472 
L 57.6 41.472 
z
" style="fill: #ffffff"/>
   </g>
   <g id="axes_2">
    <g id="patch_3">
     <path d="M 414.72 87.353379 
L 414.72 87.353379 
L 414.72 41.472 
L 414.72 41.472 
z
" style="fill: #ffffff"/>
    </g>
    <g id="matplotlib.axis_1"/>
    <g id="matplotlib.axis_2">
     <g id="ytick_1">
      <g id="line2d_1">
       <defs>
        <path id="m8ce4e5009e" d="M 0 0 
L 3.5 0 
" style="stroke: #000000; stroke-width: 0.8"/>
       </defs>
       <g>
        <use xlink:href="#m8ce4e5009e" x="414.72" y="78.621468" style="stroke: #000000; stroke-width: 0.8"/>
       </g>
      </g>
      <g id="text_1">
       <!-- −2.5 -->
       <g transform="translate(421.72 82.420687)scale(0.1 -0.1)">
        <defs>
         <path id="DejaVuSans-2212" d="M 678 2272 
L 4684 2272 
L 4684 1741 
L 678 1741 
L 678 2272 
z
" transform="scale(0.015625)"/>
         <path id="DejaVuSans-32" d="M 1228 531 
L 3431 531 
L 3431 0 
L 469 0 
L 469 531 
Q 828 903 1448 1529 
Q 2069 2156 2228 2338 
Q 2531 2678 2651 2914 
Q 2772 3150 2772 3378 
Q 2772 3750 2511 3984 
Q 2250 4219 1831 4219 
Q 1534 4219 1204 4116 
Q 875 4013 500 3803 
L 500 4441 
Q 881 4594 1212 4672 
Q 1544 4750 1819 4750 
Q 2544 4750 2975 4387 
Q 3406 4025 3406 3419 
Q 3406 3131 3298 2873 
Q 3191 2616 2906 2266 
Q 2828 2175 2409 1742 
Q 1991 1309 1228 531 
z
" transform="scale(0.015625)"/>
         <path id="DejaVuSans-2e" d="M 684 794 
L 1344 794 
L 1344 0 
L 684 0 
L 684 794 
z
" transform="scale(0.015625)"/>
         <path id="DejaVuSans-35" d="M 691 4666 
L 3169 4666 
L 3169 4134 
L 1269 4134 
L 1269 2991 
Q 1406 3038 1543 3061 
Q 1681 3084 1819 3084 
Q 2600 3084 3056 2656 
Q 3513 2228 3513 1497 
Q 3513 744 3044 326 
Q 2575 -91 1722 -91 
Q 1428 -91 1123 -41 
Q 819 9 494 109 
L 494 744 
Q 775 591 1075 516 
Q 1375 441 1709 441 
Q 2250 441 2565 725 
Q 2881 1009 2881 1497 
Q 2881 1984 2565 2268 
Q 2250 2553 1709 2553 
Q 1456 2553 1204 2497 
Q 953 2441 691 2322 
L 691 4666 
z
" transform="scale(0.015625)"/>
        </defs>
        <use xlink:href="#DejaVuSans-2212"/>
        <use xlink:href="#DejaVuSans-32" x="83.789062"/>
        <use xlink:href="#DejaVuSans-2e" x="147.412109"/>
        <use xlink:href="#DejaVuSans-35" x="179.199219"/>
       </g>
      </g>
     </g>
     <g id="ytick_2">
      <g id="line2d_2">
       <g>
        <use xlink:href="#m8ce4e5009e" x="414.72" y="53.601058" style="stroke: #000000; stroke-width: 0.8"/>
       </g>
      </g>
      <g id="text_2">
       <!-- 0.0 -->
       <g transform="translate(421.72 57.400277)scale(0.1 -0.1)">
        <defs>
         <path id="DejaVuSans-30" d="M 2034 4250 
Q 1547 4250 1301 3770 
Q 1056 3291 1056 2328 
Q 1056 1369 1301 889 
Q 1547 409 2034 409 
Q 2525 409 2770 889 
Q 3016 1369 3016 2328 
Q 3016 3291 2770 3770 
Q 2525 4250 2034 4250 
z
M 2034 4750 
Q 2819 4750 3233 4129 
Q 3647 3509 3647 2328 
Q 3647 1150 3233 529 
Q 2819 -91 2034 -91 
Q 1250 -91 836 529 
Q 422 1150 422 2328 
Q 422 3509 836 4129 
Q 1250 4750 2034 4750 
z
" transform="scale(0.015625)"/>
        </defs>
        <use xlink:href="#DejaVuSans-30"/>
        <use xlink:href="#DejaVuSans-2e" x="63.623047"/>
        <use xlink:href="#DejaVuSans-30" x="95.410156"/>
       </g>
      </g>
     </g>
     <g id="text_3">
      <!-- vel [m/s] -->
      <g transform="translate(457.60125 86.48769)rotate(-90)scale(0.1 -0.1)">
       <defs>
        <path id="DejaVuSans-76" d="M 191 3500 
L 800 3500 
L 1894 563 
L 2988 3500 
L 3597 3500 
L 2284 0 
L 1503 0 
L 191 3500 
z
" transform="scale(0.015625)"/>
        <path id="DejaVuSans-65" d="M 3597 1894 
L 3597 1613 
L 953 1613 
Q 991 1019 1311 708 
Q 1631 397 2203 397 
Q 2534 397 2845 478 
Q 3156 559 3463 722 
L 3463 178 
Q 3153 47 2828 -22 
Q 2503 -91 2169 -91 
Q 1331 -91 842 396 
Q 353 884 353 1716 
Q 353 2575 817 3079 
Q 1281 3584 2069 3584 
Q 2775 3584 3186 3129 
Q 3597 2675 3597 1894 
z
M 3022 2063 
Q 3016 2534 2758 2815 
Q 2500 3097 2075 3097 
Q 1594 3097 1305 2825 
Q 1016 2553 972 2059 
L 3022 2063 
z
" transform="scale(0.015625)"/>
        <path id="DejaVuSans-6c" d="M 603 4863 
L 1178 4863 
L 1178 0 
L 603 0 
L 603 4863 
z
" transform="scale(0.015625)"/>
        <path id="DejaVuSans-20" transform="scale(0.015625)"/>
        <path id="DejaVuSans-5b" d="M 550 4863 
L 1875 4863 
L 1875 4416 
L 1125 4416 
L 1125 -397 
L 1875 -397 
L 1875 -844 
L 550 -844 
L 550 4863 
z
" transform="scale(0.015625)"/>
        <path id="DejaVuSans-6d" d="M 3328 2828 
Q 3544 3216 3844 3400 
Q 4144 3584 4550 3584 
Q 5097 3584 5394 3201 
Q 5691 2819 5691 2113 
L 5691 0 
L 5113 0 
L 5113 2094 
Q 5113 2597 4934 2840 
Q 4756 3084 4391 3084 
Q 3944 3084 3684 2787 
Q 3425 2491 3425 1978 
L 3425 0 
L 2847 0 
L 2847 2094 
Q 2847 2600 2669 2842 
Q 2491 3084 2119 3084 
Q 1678 3084 1418 2786 
Q 1159 2488 1159 1978 
L 1159 0 
L 581 0 
L 581 3500 
L 1159 3500 
L 1159 2956 
Q 1356 3278 1631 3431 
Q 1906 3584 2284 3584 
Q 2666 3584 2933 3390 
Q 3200 3197 3328 2828 
z
" transform="scale(0.015625)"/>
        <path id="DejaVuSans-2f" d="M 1625 4666 
L 2156 4666 
L 531 -594 
L 0 -594 
L 1625 4666 
z
" transform="scale(0.015625)"/>
        <path id="DejaVuSans-73" d="M 2834 3397 
L 2834 2853 
Q 2591 2978 2328 3040 
Q 2066 3103 1784 3103 
Q 1356 3103 1142 2972 
Q 928 2841 928 2578 
Q 928 2378 1081 2264 
Q 1234 2150 1697 2047 
L 1894 2003 
Q 2506 1872 2764 1633 
Q 3022 1394 3022 966 
Q 3022 478 2636 193 
Q 2250 -91 1575 -91 
Q 1294 -91 989 -36 
Q 684 19 347 128 
L 347 722 
Q 666 556 975 473 
Q 1284 391 1588 391 
Q 1994 391 2212 530 
Q 2431 669 2431 922 
Q 2431 1156 2273 1281 
Q 2116 1406 1581 1522 
L 1381 1569 
Q 847 1681 609 1914 
Q 372 2147 372 2553 
Q 372 3047 722 3315 
Q 1072 3584 1716 3584 
Q 2034 3584 2315 3537 
Q 2597 3491 2834 3397 
z
" transform="scale(0.015625)"/>
        <path id="DejaVuSans-5d" d="M 1947 4863 
L 1947 -844 
L 622 -844 
L 622 -397 
L 1369 -397 
L 1369 4416 
L 622 4416 
L 622 4863 
L 1947 4863 
z
" transform="scale(0.015625)"/>
       </defs>
       <use xlink:href="#DejaVuSans-76"/>
       <use xlink:href="#DejaVuSans-65" x="59.179688"/>
       <use xlink:href="#DejaVuSans-6c" x="120.703125"/>
       <use xlink:href="#DejaVuSans-20" x="148.486328"/>
       <use xlink:href="#DejaVuSans-5b" x="180.273438"/>
       <use xlink:href="#DejaVuSans-6d" x="219.287109"/>
       <use xlink:href="#DejaVuSans-2f" x="316.699219"/>
       <use xlink:href="#DejaVuSans-73" x="350.390625"/>
       <use xlink:href="#DejaVuSans-5d" x="402.490234"/>
      </g>
     </g>
    </g>
    <g id="patch_4">
     <path d="M 414.72 87.353379 
L 414.72 41.472 
" style="fill: none; stroke: #000000; stroke-width: 0.8; stroke-linejoin: miter; stroke-linecap: square"/>
    </g>
   </g>
   <g id="matplotlib.axis_3">
    <g id="xtick_1">
     <g id="line2d_3">
      <defs>
       <path id="md971c27a60" d="M 0 0 
L 0 3.5 
" style="stroke: #000000; stroke-width: 0.8"/>
      </defs>
      <g>
       <use xlink:href="#md971c27a60" x="73.832727" y="87.353379" style="stroke: #000000; stroke-width: 0.8"/>
      </g>
     </g>
    </g>
    <g id="xtick_2">
     <g id="line2d_4">
      <g>
       <use xlink:href="#md971c27a60" x="116.550431" y="87.353379" style="stroke: #000000; stroke-width: 0.8"/>
      </g>
     </g>
    </g>
    <g id="xtick_3">
     <g id="line2d_5">
      <g>
       <use xlink:href="#md971c27a60" x="159.268134" y="87.353379" style="stroke: #000000; stroke-width: 0.8"/>
      </g>
     </g>
    </g>
    <g id="xtick_4">
     <g id="line2d_6">
      <g>
       <use xlink:href="#md971c27a60" x="201.985837" y="87.353379" style="stroke: #000000; stroke-width: 0.8"/>
      </g>
     </g>
    </g>
    <g id="xtick_5">
     <g id="line2d_7">
      <g>
       <use xlink:href="#md971c27a60" x="244.703541" y="87.353379" style="stroke: #000000; stroke-width: 0.8"/>
      </g>
     </g>
    </g>
    <g id="xtick_6">
     <g id="line2d_8">
      <g>
       <use xlink:href="#md971c27a60" x="287.421244" y="87.353379" style="stroke: #000000; stroke-width: 0.8"/>
      </g>
     </g>
    </g>
    <g id="xtick_7">
     <g id="line2d_9">
      <g>
       <use xlink:href="#md971c27a60" x="330.138947" y="87.353379" style="stroke: #000000; stroke-width: 0.8"/>
      </g>
     </g>
    </g>
    <g id="xtick_8">
     <g id="line2d_10">
      <g>
       <use xlink:href="#md971c27a60" x="372.856651" y="87.353379" style="stroke: #000000; stroke-width: 0.8"/>
      </g>
     </g>
    </g>
   </g>
   <g id="matplotlib.axis_4">
    <g id="ytick_3">
     <g id="line2d_11">
      <defs>
       <path id="m95ad8a004b" d="M 0 0 
L -3.5 0 
" style="stroke: #000000; stroke-width: 0.8"/>
      </defs>
      <g>
       <use xlink:href="#m95ad8a004b" x="57.6" y="78.621468" style="stroke: #000000; stroke-width: 0.8"/>
      </g>
     </g>
     <g id="text_4">
      <!-- −2.5 -->
      <g transform="translate(26.317187 82.420687)scale(0.1 -0.1)">
       <use xlink:href="#DejaVuSans-2212"/>
       <use xlink:href="#DejaVuSans-32" x="83.789062"/>
       <use xlink:href="#DejaVuSans-2e" x="147.412109"/>
       <use xlink:href="#DejaVuSans-35" x="179.199219"/>
      </g>
     </g>
    </g>
    <g id="ytick_4">
     <g id="line2d_12">
      <g>
       <use xlink:href="#m95ad8a004b" x="57.6" y="53.601058" style="stroke: #000000; stroke-width: 0.8"/>
      </g>
     </g>
     <g id="text_5">
      <!-- 0.0 -->
      <g transform="translate(34.696875 57.400277)scale(0.1 -0.1)">
       <use xlink:href="#DejaVuSans-30"/>
       <use xlink:href="#DejaVuSans-2e" x="63.623047"/>
       <use xlink:href="#DejaVuSans-30" x="95.410156"/>
      </g>
     </g>
    </g>
    <g id="text_6">
     <!-- vel [normalized] -->
     <g transform="translate(20.2375 105.111908)rotate(-90)scale(0.1 -0.1)">
      <defs>
       <path id="DejaVuSans-6e" d="M 3513 2113 
L 3513 0 
L 2938 0 
L 2938 2094 
Q 2938 2591 2744 2837 
Q 2550 3084 2163 3084 
Q 1697 3084 1428 2787 
Q 1159 2491 1159 1978 
L 1159 0 
L 581 0 
L 581 3500 
L 1159 3500 
L 1159 2956 
Q 1366 3272 1645 3428 
Q 1925 3584 2291 3584 
Q 2894 3584 3203 3211 
Q 3513 2838 3513 2113 
z
" transform="scale(0.015625)"/>
       <path id="DejaVuSans-6f" d="M 1959 3097 
Q 1497 3097 1228 2736 
Q 959 2375 959 1747 
Q 959 1119 1226 758 
Q 1494 397 1959 397 
Q 2419 397 2687 759 
Q 2956 1122 2956 1747 
Q 2956 2369 2687 2733 
Q 2419 3097 1959 3097 
z
M 1959 3584 
Q 2709 3584 3137 3096 
Q 3566 2609 3566 1747 
Q 3566 888 3137 398 
Q 2709 -91 1959 -91 
Q 1206 -91 779 398 
Q 353 888 353 1747 
Q 353 2609 779 3096 
Q 1206 3584 1959 3584 
z
" transform="scale(0.015625)"/>
       <path id="DejaVuSans-72" d="M 2631 2963 
Q 2534 3019 2420 3045 
Q 2306 3072 2169 3072 
Q 1681 3072 1420 2755 
Q 1159 2438 1159 1844 
L 1159 0 
L 581 0 
L 581 3500 
L 1159 3500 
L 1159 2956 
Q 1341 3275 1631 3429 
Q 1922 3584 2338 3584 
Q 2397 3584 2469 3576 
Q 2541 3569 2628 3553 
L 2631 2963 
z
" transform="scale(0.015625)"/>
       <path id="DejaVuSans-61" d="M 2194 1759 
Q 1497 1759 1228 1600 
Q 959 1441 959 1056 
Q 959 750 1161 570 
Q 1363 391 1709 391 
Q 2188 391 2477 730 
Q 2766 1069 2766 1631 
L 2766 1759 
L 2194 1759 
z
M 3341 1997 
L 3341 0 
L 2766 0 
L 2766 531 
Q 2569 213 2275 61 
Q 1981 -91 1556 -91 
Q 1019 -91 701 211 
Q 384 513 384 1019 
Q 384 1609 779 1909 
Q 1175 2209 1959 2209 
L 2766 2209 
L 2766 2266 
Q 2766 2663 2505 2880 
Q 2244 3097 1772 3097 
Q 1472 3097 1187 3025 
Q 903 2953 641 2809 
L 641 3341 
Q 956 3463 1253 3523 
Q 1550 3584 1831 3584 
Q 2591 3584 2966 3190 
Q 3341 2797 3341 1997 
z
" transform="scale(0.015625)"/>
       <path id="DejaVuSans-69" d="M 603 3500 
L 1178 3500 
L 1178 0 
L 603 0 
L 603 3500 
z
M 603 4863 
L 1178 4863 
L 1178 4134 
L 603 4134 
L 603 4863 
z
" transform="scale(0.015625)"/>
       <path id="DejaVuSans-7a" d="M 353 3500 
L 3084 3500 
L 3084 2975 
L 922 459 
L 3084 459 
L 3084 0 
L 275 0 
L 275 525 
L 2438 3041 
L 353 3041 
L 353 3500 
z
" transform="scale(0.015625)"/>
       <path id="DejaVuSans-64" d="M 2906 2969 
L 2906 4863 
L 3481 4863 
L 3481 0 
L 2906 0 
L 2906 525 
Q 2725 213 2448 61 
Q 2172 -91 1784 -91 
Q 1150 -91 751 415 
Q 353 922 353 1747 
Q 353 2572 751 3078 
Q 1150 3584 1784 3584 
Q 2172 3584 2448 3432 
Q 2725 3281 2906 2969 
z
M 947 1747 
Q 947 1113 1208 752 
Q 1469 391 1925 391 
Q 2381 391 2643 752 
Q 2906 1113 2906 1747 
Q 2906 2381 2643 2742 
Q 2381 3103 1925 3103 
Q 1469 3103 1208 2742 
Q 947 2381 947 1747 
z
" transform="scale(0.015625)"/>
      </defs>
      <use xlink:href="#DejaVuSans-76"/>
      <use xlink:href="#DejaVuSans-65" x="59.179688"/>
      <use xlink:href="#DejaVuSans-6c" x="120.703125"/>
      <use xlink:href="#DejaVuSans-20" x="148.486328"/>
      <use xlink:href="#DejaVuSans-5b" x="180.273438"/>
      <use xlink:href="#DejaVuSans-6e" x="219.287109"/>
      <use xlink:href="#DejaVuSans-6f" x="282.666016"/>
      <use xlink:href="#DejaVuSans-72" x="343.847656"/>
      <use xlink:href="#DejaVuSans-6d" x="383.210938"/>
      <use xlink:href="#DejaVuSans-61" x="480.623047"/>
      <use xlink:href="#DejaVuSans-6c" x="541.902344"/>
      <use xlink:href="#DejaVuSans-69" x="569.685547"/>
      <use xlink:href="#DejaVuSans-7a" x="597.46875"/>
      <use xlink:href="#DejaVuSans-65" x="649.958984"/>
      <use xlink:href="#DejaVuSans-64" x="711.482422"/>
      <use xlink:href="#DejaVuSans-5d" x="774.958984"/>
     </g>
    </g>
   </g>
   <g id="line2d_13">
    <path d="M 73.832727 55.631573 
L 90.919809 55.603293 
L 108.00689 55.561961 
L 125.093971 55.508295 
L 142.181053 55.443052 
L 159.268134 55.367017 
L 176.355215 55.280987 
L 193.442297 55.185766 
L 210.529378 55.082149 
L 227.616459 54.970926 
L 244.703541 54.852867 
L 261.790622 54.728728 
L 278.877703 54.599241 
L 295.964785 54.465124 
L 313.051866 54.32707 
L 330.138947 54.18576 
L 347.226029 54.041857 
L 364.31311 53.896012 
L 381.400191 53.748867 
L 398.487273 53.748867 
" clip-path="url(#p5a3ec160f6)" style="fill: none; stroke: #1f77b4; stroke-width: 1.5; stroke-linecap: square"/>
   </g>
   <g id="line2d_14">
    <path d="M 73.832727 53.45705 
L 90.919809 53.464641 
L 108.00689 53.47223 
L 125.093971 53.479815 
L 142.181053 53.487397 
L 159.268134 53.494977 
L 176.355215 53.502555 
L 193.442297 53.510131 
L 210.529378 53.517706 
L 227.616459 53.525281 
L 244.703541 53.532856 
L 261.790622 53.54043 
L 278.877703 53.548005 
L 295.964785 53.555581 
L 313.051866 53.563158 
L 330.138947 53.570736 
L 347.226029 53.578316 
L 364.31311 53.585896 
L 381.400191 53.593477 
L 398.487273 53.593477 
" clip-path="url(#p5a3ec160f6)" style="fill: none; stroke: #ff7f0e; stroke-width: 1.5; stroke-linecap: square"/>
   </g>
   <g id="line2d_15">
    <path d="M 73.832727 43.591965 
L 90.919809 43.590085 
L 108.00689 43.588205 
L 125.093971 43.586323 
L 142.181053 43.584439 
L 159.268134 43.582554 
L 176.355215 43.580668 
L 193.442297 43.57878 
L 210.529378 43.576891 
L 227.616459 43.575 
L 244.703541 43.573107 
L 261.790622 43.571213 
L 278.877703 43.569318 
L 295.964785 43.567421 
L 313.051866 43.565523 
L 330.138947 43.563625 
L 347.226029 43.561725 
L 364.31311 43.559825 
L 381.400191 43.557925 
L 398.487273 43.557925 
" clip-path="url(#p5a3ec160f6)" style="fill: none; stroke: #2ca02c; stroke-width: 1.5; stroke-linecap: square"/>
   </g>
   <g id="line2d_16">
    <path d="M 73.832727 43.591943 
L 90.919809 43.59004 
L 108.00689 43.588135 
L 125.093971 43.586229 
L 142.181053 43.584322 
L 159.268134 43.582415 
L 176.355215 43.580505 
L 193.442297 43.578595 
L 210.529378 43.576684 
L 227.616459 43.574772 
L 244.703541 43.572859 
L 261.790622 43.570945 
L 278.877703 43.569029 
L 295.964785 43.567113 
L 313.051866 43.565196 
L 330.138947 43.563277 
L 347.226029 43.561358 
L 364.31311 43.559438 
L 381.400191 43.557517 
L 398.487273 43.557517 
" clip-path="url(#p5a3ec160f6)" style="fill: none; stroke: #d62728; stroke-width: 1.5; stroke-linecap: square"/>
   </g>
   <g id="line2d_17">
    <path d="M 73.832727 53.407684 
L 90.919809 53.214308 
L 108.00689 53.020929 
L 125.093971 52.82754 
L 142.181053 52.634142 
L 159.268134 52.440727 
L 176.355215 52.247294 
L 193.442297 52.053843 
L 210.529378 51.860364 
L 227.616459 51.66686 
L 244.703541 51.473321 
L 261.790622 51.279752 
L 278.877703 51.086142 
L 295.964785 50.892492 
L 313.051866 50.698797 
L 330.138947 50.505054 
L 347.226029 50.311261 
L 364.31311 50.117412 
L 381.400191 49.923505 
L 398.487273 49.923505 
" clip-path="url(#p5a3ec160f6)" style="fill: none; stroke: #9467bd; stroke-width: 1.5; stroke-linecap: square"/>
   </g>
   <g id="line2d_18">
    <path d="M 73.832727 53.560911 
L 90.919809 53.520805 
L 108.00689 53.480606 
L 125.093971 53.440394 
L 142.181053 53.400045 
L 159.268134 53.359621 
L 176.355215 53.319073 
L 193.442297 53.27834 
L 210.529378 53.23746 
L 227.616459 53.196354 
L 244.703541 53.155054 
L 261.790622 53.113459 
L 278.877703 53.071624 
L 295.964785 53.029471 
L 313.051866 52.986989 
L 330.138947 52.944157 
L 347.226029 52.90092 
L 364.31311 52.857263 
L 381.400191 52.813157 
L 398.487273 52.813157 
" clip-path="url(#p5a3ec160f6)" style="fill: none; stroke: #8c564b; stroke-width: 1.5; stroke-linecap: square"/>
   </g>
   <g id="line2d_19">
    <path d="M 73.832727 53.598299 
L 90.919809 53.595516 
L 108.00689 53.592781 
L 125.093971 53.590049 
L 142.181053 53.587386 
L 159.268134 53.584757 
L 176.355215 53.582187 
L 193.442297 53.579711 
L 210.529378 53.577304 
L 227.616459 53.57501 
L 244.703541 53.572811 
L 261.790622 53.570764 
L 278.877703 53.568836 
L 295.964785 53.567073 
L 313.051866 53.56548 
L 330.138947 53.564072 
L 347.226029 53.56288 
L 364.31311 53.561914 
L 381.400191 53.561194 
L 398.487273 53.561194 
" clip-path="url(#p5a3ec160f6)" style="fill: none; stroke: #e377c2; stroke-width: 1.5; stroke-linecap: square"/>
   </g>
   <g id="line2d_20">
    <path d="M 73.832727 53.600926 
L 90.919809 53.600794 
L 108.00689 53.600662 
L 125.093971 53.60053 
L 142.181053 53.600398 
L 159.268134 53.600266 
L 176.355215 53.600134 
L 193.442297 53.600003 
L 210.529378 53.599872 
L 227.616459 53.599741 
L 244.703541 53.59961 
L 261.790622 53.599479 
L 278.877703 53.599349 
L 295.964785 53.599219 
L 313.051866 53.59909 
L 330.138947 53.598961 
L 347.226029 53.598832 
L 364.31311 53.598704 
L 381.400191 53.598576 
L 398.487273 53.598576 
" clip-path="url(#p5a3ec160f6)" style="fill: none; stroke: #7f7f7f; stroke-width: 1.5; stroke-linecap: square"/>
   </g>
   <g id="line2d_21">
    <path d="M 73.832727 85.267862 
L 90.919809 82.513531 
L 108.00689 80.017436 
L 125.093971 77.733974 
L 142.181053 75.627398 
L 159.268134 73.669198 
L 176.355215 71.836268 
L 193.442297 70.109611 
L 210.529378 68.473388 
L 227.616459 66.914226 
L 244.703541 65.420682 
L 261.790622 63.982845 
L 278.877703 62.592019 
L 295.964785 61.240473 
L 313.051866 59.921244 
L 330.138947 58.627971 
L 347.226029 57.354755 
L 364.31311 56.096046 
L 381.400191 54.846534 
L 398.487273 54.846534 
" clip-path="url(#p5a3ec160f6)" style="fill: none; stroke: #bcbd22; stroke-width: 1.5; stroke-linecap: square"/>
   </g>
   <g id="line2d_22">
    <path d="M 73.832727 79.592773 
L 90.919809 77.310581 
L 108.00689 75.226885 
L 125.093971 73.317073 
L 142.181053 71.557322 
L 159.268134 69.926267 
L 176.355215 68.405323 
L 193.442297 66.978517 
L 210.529378 65.632154 
L 227.616459 64.35446 
L 244.703541 63.135253 
L 261.790622 61.96566 
L 278.877703 60.837872 
L 295.964785 59.744946 
L 313.051866 58.680627 
L 330.138947 57.63921 
L 347.226029 56.615411 
L 364.31311 55.604265 
L 381.400191 54.601021 
L 398.487273 54.601021 
" clip-path="url(#p5a3ec160f6)" style="fill: none; stroke: #17becf; stroke-width: 1.5; stroke-linecap: square"/>
   </g>
   <g id="line2d_23">
    <path d="M 73.832727 64.02565 
L 90.919809 63.637491 
L 108.00689 63.189952 
L 125.093971 62.699164 
L 142.181053 62.177383 
L 159.268134 61.633847 
L 176.355215 61.075464 
L 193.442297 60.50735 
L 210.529378 59.933248 
L 227.616459 59.35585 
L 244.703541 58.777044 
L 261.790622 58.198105 
L 278.877703 57.619836 
L 295.964785 57.042684 
L 313.051866 56.466822 
L 330.138947 55.892214 
L 347.226029 55.318674 
L 364.31311 54.745898 
L 381.400191 54.173504 
L 398.487273 54.173504 
" clip-path="url(#p5a3ec160f6)" style="fill: none; stroke: #1f77b4; stroke-width: 1.5; stroke-linecap: square"/>
   </g>
   <g id="line2d_24">
    <path d="M 73.832727 58.72087 
L 90.919809 58.606923 
L 108.00689 58.458938 
L 125.093971 58.281352 
L 142.181053 58.078159 
L 159.268134 57.852925 
L 176.355215 57.608801 
L 193.442297 57.348558 
L 210.529378 57.074616 
L 227.616459 56.789079 
L 244.703541 56.493774 
L 261.790622 56.190283 
L 278.877703 55.879977 
L 295.964785 55.564047 
L 313.051866 55.243531 
L 330.138947 54.919342 
L 347.226029 54.592294 
L 364.31311 54.263118 
L 381.400191 53.932493 
L 398.487273 53.932493 
" clip-path="url(#p5a3ec160f6)" style="fill: none; stroke: #ff7f0e; stroke-width: 1.5; stroke-linecap: square"/>
   </g>
   <g id="line2d_25">
    <path d="M 73.832727 56.391177 
L 90.919809 56.345283 
L 108.00689 56.281085 
L 125.093971 56.200051 
L 142.181053 56.103611 
L 159.268134 55.993147 
L 176.355215 55.869985 
L 193.442297 55.735385 
L 210.529378 55.590543 
L 227.616459 55.436585 
L 244.703541 55.274572 
L 261.790622 55.105498 
L 278.877703 54.930299 
L 295.964785 54.749857 
L 313.051866 54.565002 
L 330.138947 54.376523 
L 347.226029 54.185175 
L 364.31311 53.991681 
L 381.400191 53.796745 
L 398.487273 53.796745 
" clip-path="url(#p5a3ec160f6)" style="fill: none; stroke: #2ca02c; stroke-width: 1.5; stroke-linecap: square"/>
   </g>
   <g id="patch_5">
    <path d="M 57.6 87.353379 
L 57.6 41.472 
" style="fill: none; stroke: #000000; stroke-width: 0.8; stroke-linejoin: miter; stroke-linecap: square"/>
   </g>
   <g id="patch_6">
    <path d="M 414.72 87.353379 
L 414.72 41.472 
" style="fill: none; stroke: #000000; stroke-width: 0.8; stroke-linejoin: miter; stroke-linecap: square"/>
   </g>
   <g id="patch_7">
    <path d="M 57.6 87.353379 
L 414.72 87.353379 
" style="fill: none; stroke: #000000; stroke-width: 0.8; stroke-linejoin: miter; stroke-linecap: square"/>
   </g>
   <g id="patch_8">
    <path d="M 57.6 41.472 
L 414.72 41.472 
" style="fill: none; stroke: #000000; stroke-width: 0.8; stroke-linejoin: miter; stroke-linecap: square"/>
   </g>
   <g id="text_7">
    <!-- velocity - Container 1  -->
    <g transform="translate(169.779375 38.472)scale(0.12 -0.12)">
     <defs>
      <path id="DejaVuSans-63" d="M 3122 3366 
L 3122 2828 
Q 2878 2963 2633 3030 
Q 2388 3097 2138 3097 
Q 1578 3097 1268 2742 
Q 959 2388 959 1747 
Q 959 1106 1268 751 
Q 1578 397 2138 397 
Q 2388 397 2633 464 
Q 2878 531 3122 666 
L 3122 134 
Q 2881 22 2623 -34 
Q 2366 -91 2075 -91 
Q 1284 -91 818 406 
Q 353 903 353 1747 
Q 353 2603 823 3093 
Q 1294 3584 2113 3584 
Q 2378 3584 2631 3529 
Q 2884 3475 3122 3366 
z
" transform="scale(0.015625)"/>
      <path id="DejaVuSans-74" d="M 1172 4494 
L 1172 3500 
L 2356 3500 
L 2356 3053 
L 1172 3053 
L 1172 1153 
Q 1172 725 1289 603 
Q 1406 481 1766 481 
L 2356 481 
L 2356 0 
L 1766 0 
Q 1100 0 847 248 
Q 594 497 594 1153 
L 594 3053 
L 172 3053 
L 172 3500 
L 594 3500 
L 594 4494 
L 1172 4494 
z
" transform="scale(0.015625)"/>
      <path id="DejaVuSans-79" d="M 2059 -325 
Q 1816 -950 1584 -1140 
Q 1353 -1331 966 -1331 
L 506 -1331 
L 506 -850 
L 844 -850 
Q 1081 -850 1212 -737 
Q 1344 -625 1503 -206 
L 1606 56 
L 191 3500 
L 800 3500 
L 1894 763 
L 2988 3500 
L 3597 3500 
L 2059 -325 
z
" transform="scale(0.015625)"/>
      <path id="DejaVuSans-2d" d="M 313 2009 
L 1997 2009 
L 1997 1497 
L 313 1497 
L 313 2009 
z
" transform="scale(0.015625)"/>
      <path id="DejaVuSans-43" d="M 4122 4306 
L 4122 3641 
Q 3803 3938 3442 4084 
Q 3081 4231 2675 4231 
Q 1875 4231 1450 3742 
Q 1025 3253 1025 2328 
Q 1025 1406 1450 917 
Q 1875 428 2675 428 
Q 3081 428 3442 575 
Q 3803 722 4122 1019 
L 4122 359 
Q 3791 134 3420 21 
Q 3050 -91 2638 -91 
Q 1578 -91 968 557 
Q 359 1206 359 2328 
Q 359 3453 968 4101 
Q 1578 4750 2638 4750 
Q 3056 4750 3426 4639 
Q 3797 4528 4122 4306 
z
" transform="scale(0.015625)"/>
      <path id="DejaVuSans-31" d="M 794 531 
L 1825 531 
L 1825 4091 
L 703 3866 
L 703 4441 
L 1819 4666 
L 2450 4666 
L 2450 531 
L 3481 531 
L 3481 0 
L 794 0 
L 794 531 
z
" transform="scale(0.015625)"/>
     </defs>
     <use xlink:href="#DejaVuSans-76"/>
     <use xlink:href="#DejaVuSans-65" x="59.179688"/>
     <use xlink:href="#DejaVuSans-6c" x="120.703125"/>
     <use xlink:href="#DejaVuSans-6f" x="148.486328"/>
     <use xlink:href="#DejaVuSans-63" x="209.667969"/>
     <use xlink:href="#DejaVuSans-69" x="264.648438"/>
     <use xlink:href="#DejaVuSans-74" x="292.431641"/>
     <use xlink:href="#DejaVuSans-79" x="331.640625"/>
     <use xlink:href="#DejaVuSans-20" x="390.820312"/>
     <use xlink:href="#DejaVuSans-2d" x="422.607422"/>
     <use xlink:href="#DejaVuSans-20" x="458.691406"/>
     <use xlink:href="#DejaVuSans-43" x="490.478516"/>
     <use xlink:href="#DejaVuSans-6f" x="560.302734"/>
     <use xlink:href="#DejaVuSans-6e" x="621.484375"/>
     <use xlink:href="#DejaVuSans-74" x="684.863281"/>
     <use xlink:href="#DejaVuSans-61" x="724.072266"/>
     <use xlink:href="#DejaVuSans-69" x="785.351562"/>
     <use xlink:href="#DejaVuSans-6e" x="813.134766"/>
     <use xlink:href="#DejaVuSans-65" x="876.513672"/>
     <use xlink:href="#DejaVuSans-72" x="938.037109"/>
     <use xlink:href="#DejaVuSans-20" x="979.150391"/>
     <use xlink:href="#DejaVuSans-31" x="1010.9375"/>
     <use xlink:href="#DejaVuSans-20" x="1074.560547"/>
    </g>
   </g>
  </g>
  <g id="axes_3">
   <g id="patch_9">
    <path d="M 57.6 142.411034 
L 414.72 142.411034 
L 414.72 96.529655 
L 57.6 96.529655 
z
" style="fill: #ffffff"/>
   </g>
   <g id="matplotlib.axis_5">
    <g id="xtick_9">
     <g id="line2d_26">
      <g>
       <use xlink:href="#md971c27a60" x="73.832727" y="142.411034" style="stroke: #000000; stroke-width: 0.8"/>
      </g>
     </g>
    </g>
    <g id="xtick_10">
     <g id="line2d_27">
      <g>
       <use xlink:href="#md971c27a60" x="116.550431" y="142.411034" style="stroke: #000000; stroke-width: 0.8"/>
      </g>
     </g>
    </g>
    <g id="xtick_11">
     <g id="line2d_28">
      <g>
       <use xlink:href="#md971c27a60" x="159.268134" y="142.411034" style="stroke: #000000; stroke-width: 0.8"/>
      </g>
     </g>
    </g>
    <g id="xtick_12">
     <g id="line2d_29">
      <g>
       <use xlink:href="#md971c27a60" x="201.985837" y="142.411034" style="stroke: #000000; stroke-width: 0.8"/>
      </g>
     </g>
    </g>
    <g id="xtick_13">
     <g id="line2d_30">
      <g>
       <use xlink:href="#md971c27a60" x="244.703541" y="142.411034" style="stroke: #000000; stroke-width: 0.8"/>
      </g>
     </g>
    </g>
    <g id="xtick_14">
     <g id="line2d_31">
      <g>
       <use xlink:href="#md971c27a60" x="287.421244" y="142.411034" style="stroke: #000000; stroke-width: 0.8"/>
      </g>
     </g>
    </g>
    <g id="xtick_15">
     <g id="line2d_32">
      <g>
       <use xlink:href="#md971c27a60" x="330.138947" y="142.411034" style="stroke: #000000; stroke-width: 0.8"/>
      </g>
     </g>
    </g>
    <g id="xtick_16">
     <g id="line2d_33">
      <g>
       <use xlink:href="#md971c27a60" x="372.856651" y="142.411034" style="stroke: #000000; stroke-width: 0.8"/>
      </g>
     </g>
    </g>
   </g>
   <g id="matplotlib.axis_6">
    <g id="ytick_5">
     <g id="line2d_34">
      <g>
       <use xlink:href="#m95ad8a004b" x="57.6" y="140.746081" style="stroke: #000000; stroke-width: 0.8"/>
      </g>
     </g>
     <g id="text_8">
      <!-- 0 -->
      <g transform="translate(44.2375 144.5453)scale(0.1 -0.1)">
       <use xlink:href="#DejaVuSans-30"/>
      </g>
     </g>
    </g>
    <g id="ytick_6">
     <g id="line2d_35">
      <g>
       <use xlink:href="#m95ad8a004b" x="57.6" y="98.771645" style="stroke: #000000; stroke-width: 0.8"/>
      </g>
     </g>
     <g id="text_9">
      <!-- 1 -->
      <g transform="translate(44.2375 102.570864)scale(0.1 -0.1)">
       <use xlink:href="#DejaVuSans-31"/>
      </g>
     </g>
    </g>
   </g>
   <g id="line2d_36">
    <path d="M 73.832727 140.325517 
L 90.919809 140.323892 
L 108.00689 140.32229 
L 125.093971 140.320721 
L 142.181053 140.319194 
L 159.268134 140.31772 
L 176.355215 140.316307 
L 193.442297 140.314963 
L 210.529378 140.313694 
L 227.616459 140.312509 
L 244.703541 140.311413 
L 261.790622 140.310411 
L 278.877703 140.309509 
L 295.964785 140.30871 
L 313.051866 140.308018 
L 330.138947 140.307437 
L 347.226029 140.306969 
L 364.31311 140.306616 
L 381.400191 140.30638 
L 398.487273 140.306262 
" clip-path="url(#p44ec542bdf)" style="fill: none; stroke: #1f77b4; stroke-width: 1.5; stroke-linecap: square"/>
   </g>
   <g id="line2d_37">
    <path d="M 73.832727 99.537549 
L 90.919809 99.537664 
L 108.00689 99.537774 
L 125.093971 99.537877 
L 142.181053 99.537974 
L 159.268134 99.538065 
L 176.355215 99.53815 
L 193.442297 99.538228 
L 210.529378 99.538301 
L 227.616459 99.538368 
L 244.703541 99.538429 
L 261.790622 99.538483 
L 278.877703 99.538532 
L 295.964785 99.538574 
L 313.051866 99.53861 
L 330.138947 99.538641 
L 347.226029 99.538665 
L 364.31311 99.538683 
L 381.400191 99.538695 
L 398.487273 99.538701 
" clip-path="url(#p44ec542bdf)" style="fill: none; stroke: #ff7f0e; stroke-width: 1.5; stroke-linecap: square"/>
   </g>
   <g id="line2d_38">
    <path d="M 73.832727 98.615176 
L 90.919809 98.623186 
L 108.00689 98.631198 
L 125.093971 98.639211 
L 142.181053 98.647225 
L 159.268134 98.655241 
L 176.355215 98.663259 
L 193.442297 98.671278 
L 210.529378 98.679299 
L 227.616459 98.687321 
L 244.703541 98.695345 
L 261.790622 98.70337 
L 278.877703 98.711396 
L 295.964785 98.719425 
L 313.051866 98.727454 
L 330.138947 98.735485 
L 347.226029 98.743518 
L 364.31311 98.751553 
L 381.400191 98.759588 
L 398.487273 98.767626 
" clip-path="url(#p44ec542bdf)" style="fill: none; stroke: #2ca02c; stroke-width: 1.5; stroke-linecap: square"/>
   </g>
   <g id="line2d_39">
    <path d="M 73.832727 98.615172 
L 90.919809 98.623183 
L 108.00689 98.631194 
L 125.093971 98.639207 
L 142.181053 98.647222 
L 159.268134 98.655238 
L 176.355215 98.663256 
L 193.442297 98.671275 
L 210.529378 98.679296 
L 227.616459 98.687318 
L 244.703541 98.695342 
L 261.790622 98.703367 
L 278.877703 98.711394 
L 295.964785 98.719423 
L 313.051866 98.727453 
L 330.138947 98.735484 
L 347.226029 98.743517 
L 364.31311 98.751552 
L 381.400191 98.759588 
L 398.487273 98.767625 
" clip-path="url(#p44ec542bdf)" style="fill: none; stroke: #d62728; stroke-width: 1.5; stroke-linecap: square"/>
   </g>
   <g id="line2d_40">
    <path d="M 73.832727 122.623608 
L 90.919809 122.623763 
L 108.00689 122.624072 
L 125.093971 122.624536 
L 142.181053 122.625155 
L 159.268134 122.625929 
L 176.355215 122.626858 
L 193.442297 122.627941 
L 210.529378 122.629179 
L 227.616459 122.630572 
L 244.703541 122.63212 
L 261.790622 122.633823 
L 278.877703 122.635681 
L 295.964785 122.637693 
L 313.051866 122.639861 
L 330.138947 122.642184 
L 347.226029 122.644661 
L 364.31311 122.647294 
L 381.400191 122.650082 
L 398.487273 122.653025 
" clip-path="url(#p44ec542bdf)" style="fill: none; stroke: #9467bd; stroke-width: 1.5; stroke-linecap: square"/>
   </g>
   <g id="line2d_41">
    <path d="M 73.832727 136.287994 
L 90.919809 136.288026 
L 108.00689 136.28809 
L 125.093971 136.288187 
L 142.181053 136.288315 
L 159.268134 136.288476 
L 176.355215 136.28867 
L 193.442297 136.288895 
L 210.529378 136.289153 
L 227.616459 136.289444 
L 244.703541 136.289768 
L 261.790622 136.290125 
L 278.877703 136.290515 
L 295.964785 136.290939 
L 313.051866 136.291397 
L 330.138947 136.291888 
L 347.226029 136.292414 
L 364.31311 136.292974 
L 381.400191 136.293569 
L 398.487273 136.2942 
" clip-path="url(#p44ec542bdf)" style="fill: none; stroke: #8c564b; stroke-width: 1.5; stroke-linecap: square"/>
   </g>
   <g id="line2d_42">
    <path d="M 73.832727 136.543306 
L 90.919809 136.543308 
L 108.00689 136.543313 
L 125.093971 136.543319 
L 142.181053 136.543328 
L 159.268134 136.543339 
L 176.355215 136.543352 
L 193.442297 136.543367 
L 210.529378 136.543384 
L 227.616459 136.543403 
L 244.703541 136.543424 
L 261.790622 136.543447 
L 278.877703 136.543471 
L 295.964785 136.543497 
L 313.051866 136.543524 
L 330.138947 136.543553 
L 347.226029 136.543582 
L 364.31311 136.543613 
L 381.400191 136.543644 
L 398.487273 136.543676 
" clip-path="url(#p44ec542bdf)" style="fill: none; stroke: #e377c2; stroke-width: 1.5; stroke-linecap: square"/>
   </g>
   <g id="line2d_43">
    <path d="M 73.832727 136.54844 
L 90.919809 136.548441 
L 108.00689 136.548441 
L 125.093971 136.548441 
L 142.181053 136.548442 
L 159.268134 136.548442 
L 176.355215 136.548443 
L 193.442297 136.548443 
L 210.529378 136.548444 
L 227.616459 136.548445 
L 244.703541 136.548446 
L 261.790622 136.548447 
L 278.877703 136.548449 
L 295.964785 136.54845 
L 313.051866 136.548452 
L 330.138947 136.548453 
L 347.226029 136.548455 
L 364.31311 136.548457 
L 381.400191 136.548458 
L 398.487273 136.54846 
" clip-path="url(#p44ec542bdf)" style="fill: none; stroke: #7f7f7f; stroke-width: 1.5; stroke-linecap: square"/>
   </g>
   <g id="line2d_44">
    <path d="M 73.832727 139.800995 
L 90.919809 139.775653 
L 108.00689 139.752515 
L 125.093971 139.731374 
L 142.181053 139.712061 
L 159.268134 139.694434 
L 176.355215 139.678374 
L 193.442297 139.66378 
L 210.529378 139.650569 
L 227.616459 139.638667 
L 244.703541 139.628013 
L 261.790622 139.618554 
L 278.877703 139.610245 
L 295.964785 139.60305 
L 313.051866 139.596936 
L 330.138947 139.591878 
L 347.226029 139.587856 
L 364.31311 139.584852 
L 381.400191 139.582855 
L 398.487273 139.581858 
" clip-path="url(#p44ec542bdf)" style="fill: none; stroke: #bcbd22; stroke-width: 1.5; stroke-linecap: square"/>
   </g>
   <g id="line2d_45">
    <path d="M 73.832727 140.305267 
L 90.919809 140.284467 
L 108.00689 140.265492 
L 125.093971 140.248186 
L 142.181053 140.232407 
L 159.268134 140.218037 
L 176.355215 140.204973 
L 193.442297 140.193125 
L 210.529378 140.182419 
L 227.616459 140.172791 
L 244.703541 140.164185 
L 261.790622 140.156555 
L 278.877703 140.149861 
L 295.964785 140.14407 
L 313.051866 140.139153 
L 330.138947 140.135088 
L 347.226029 140.131856 
L 364.31311 140.129444 
L 381.400191 140.127841 
L 398.487273 140.127041 
" clip-path="url(#p44ec542bdf)" style="fill: none; stroke: #17becf; stroke-width: 1.5; stroke-linecap: square"/>
   </g>
   <g id="line2d_46">
    <path d="M 73.832727 140.321825 
L 90.919809 140.313483 
L 108.00689 140.305451 
L 125.093971 140.297777 
L 142.181053 140.290496 
L 159.268134 140.283633 
L 176.355215 140.277204 
L 193.442297 140.271223 
L 210.529378 140.265696 
L 227.616459 140.260628 
L 244.703541 140.256023 
L 261.790622 140.25188 
L 278.877703 140.248201 
L 295.964785 140.244985 
L 313.051866 140.242231 
L 330.138947 140.239938 
L 347.226029 140.238104 
L 364.31311 140.236729 
L 381.400191 140.235813 
L 398.487273 140.235355 
" clip-path="url(#p44ec542bdf)" style="fill: none; stroke: #1f77b4; stroke-width: 1.5; stroke-linecap: square"/>
   </g>
   <g id="line2d_47">
    <path d="M 73.832727 140.324242 
L 90.919809 140.320145 
L 108.00689 140.316139 
L 125.093971 140.312251 
L 142.181053 140.308506 
L 159.268134 140.304923 
L 176.355215 140.30152 
L 193.442297 140.298313 
L 210.529378 140.295314 
L 227.616459 140.292534 
L 244.703541 140.289983 
L 261.790622 140.287668 
L 278.877703 140.285596 
L 295.964785 140.283772 
L 313.051866 140.282201 
L 330.138947 140.280886 
L 347.226029 140.279831 
L 364.31311 140.279038 
L 381.400191 140.278508 
L 398.487273 140.278243 
" clip-path="url(#p44ec542bdf)" style="fill: none; stroke: #ff7f0e; stroke-width: 1.5; stroke-linecap: square"/>
   </g>
   <g id="line2d_48">
    <path d="M 73.832727 140.325207 
L 90.919809 140.322974 
L 108.00689 140.320778 
L 125.093971 140.318633 
L 142.181053 140.316553 
L 159.268134 140.314551 
L 176.355215 140.312636 
L 193.442297 140.31082 
L 210.529378 140.309112 
L 227.616459 140.30752 
L 244.703541 140.306051 
L 261.790622 140.304712 
L 278.877703 140.303508 
L 295.964785 140.302444 
L 313.051866 140.301525 
L 330.138947 140.300753 
L 347.226029 140.300133 
L 364.31311 140.299665 
L 381.400191 140.299353 
L 398.487273 140.299196 
" clip-path="url(#p44ec542bdf)" style="fill: none; stroke: #2ca02c; stroke-width: 1.5; stroke-linecap: square"/>
   </g>
   <g id="patch_10">
    <path d="M 57.6 142.411034 
L 57.6 96.529655 
" style="fill: none; stroke: #000000; stroke-width: 0.8; stroke-linejoin: miter; stroke-linecap: square"/>
   </g>
   <g id="patch_11">
    <path d="M 414.72 142.411034 
L 414.72 96.529655 
" style="fill: none; stroke: #000000; stroke-width: 0.8; stroke-linejoin: miter; stroke-linecap: square"/>
   </g>
   <g id="patch_12">
    <path d="M 57.6 142.411034 
L 414.72 142.411034 
" style="fill: none; stroke: #000000; stroke-width: 0.8; stroke-linejoin: miter; stroke-linecap: square"/>
   </g>
   <g id="patch_13">
    <path d="M 57.6 96.529655 
L 414.72 96.529655 
" style="fill: none; stroke: #000000; stroke-width: 0.8; stroke-linejoin: miter; stroke-linecap: square"/>
   </g>
   <g id="text_10">
    <!-- Pressure - Container 1 -->
    <g transform="translate(169.523438 93.529655)scale(0.12 -0.12)">
     <defs>
      <path id="DejaVuSans-50" d="M 1259 4147 
L 1259 2394 
L 2053 2394 
Q 2494 2394 2734 2622 
Q 2975 2850 2975 3272 
Q 2975 3691 2734 3919 
Q 2494 4147 2053 4147 
L 1259 4147 
z
M 628 4666 
L 2053 4666 
Q 2838 4666 3239 4311 
Q 3641 3956 3641 3272 
Q 3641 2581 3239 2228 
Q 2838 1875 2053 1875 
L 1259 1875 
L 1259 0 
L 628 0 
L 628 4666 
z
" transform="scale(0.015625)"/>
      <path id="DejaVuSans-75" d="M 544 1381 
L 544 3500 
L 1119 3500 
L 1119 1403 
Q 1119 906 1312 657 
Q 1506 409 1894 409 
Q 2359 409 2629 706 
Q 2900 1003 2900 1516 
L 2900 3500 
L 3475 3500 
L 3475 0 
L 2900 0 
L 2900 538 
Q 2691 219 2414 64 
Q 2138 -91 1772 -91 
Q 1169 -91 856 284 
Q 544 659 544 1381 
z
M 1991 3584 
L 1991 3584 
z
" transform="scale(0.015625)"/>
     </defs>
     <use xlink:href="#DejaVuSans-50"/>
     <use xlink:href="#DejaVuSans-72" x="58.552734"/>
     <use xlink:href="#DejaVuSans-65" x="97.416016"/>
     <use xlink:href="#DejaVuSans-73" x="158.939453"/>
     <use xlink:href="#DejaVuSans-73" x="211.039062"/>
     <use xlink:href="#DejaVuSans-75" x="263.138672"/>
     <use xlink:href="#DejaVuSans-72" x="326.517578"/>
     <use xlink:href="#DejaVuSans-65" x="365.380859"/>
     <use xlink:href="#DejaVuSans-20" x="426.904297"/>
     <use xlink:href="#DejaVuSans-2d" x="458.691406"/>
     <use xlink:href="#DejaVuSans-20" x="494.775391"/>
     <use xlink:href="#DejaVuSans-43" x="526.5625"/>
     <use xlink:href="#DejaVuSans-6f" x="596.386719"/>
     <use xlink:href="#DejaVuSans-6e" x="657.568359"/>
     <use xlink:href="#DejaVuSans-74" x="720.947266"/>
     <use xlink:href="#DejaVuSans-61" x="760.15625"/>
     <use xlink:href="#DejaVuSans-69" x="821.435547"/>
     <use xlink:href="#DejaVuSans-6e" x="849.21875"/>
     <use xlink:href="#DejaVuSans-65" x="912.597656"/>
     <use xlink:href="#DejaVuSans-72" x="974.121094"/>
     <use xlink:href="#DejaVuSans-20" x="1015.234375"/>
     <use xlink:href="#DejaVuSans-31" x="1047.021484"/>
    </g>
   </g>
  </g>
  <g id="axes_4">
   <g id="patch_14">
    <path d="M 57.6 197.46869 
L 414.72 197.46869 
L 414.72 151.58731 
L 57.6 151.58731 
z
" style="fill: #ffffff"/>
   </g>
   <g id="matplotlib.axis_7">
    <g id="xtick_17">
     <g id="line2d_49">
      <g>
       <use xlink:href="#md971c27a60" x="73.832727" y="197.46869" style="stroke: #000000; stroke-width: 0.8"/>
      </g>
     </g>
    </g>
    <g id="xtick_18">
     <g id="line2d_50">
      <g>
       <use xlink:href="#md971c27a60" x="116.550431" y="197.46869" style="stroke: #000000; stroke-width: 0.8"/>
      </g>
     </g>
    </g>
    <g id="xtick_19">
     <g id="line2d_51">
      <g>
       <use xlink:href="#md971c27a60" x="159.268134" y="197.46869" style="stroke: #000000; stroke-width: 0.8"/>
      </g>
     </g>
    </g>
    <g id="xtick_20">
     <g id="line2d_52">
      <g>
       <use xlink:href="#md971c27a60" x="201.985837" y="197.46869" style="stroke: #000000; stroke-width: 0.8"/>
      </g>
     </g>
    </g>
    <g id="xtick_21">
     <g id="line2d_53">
      <g>
       <use xlink:href="#md971c27a60" x="244.703541" y="197.46869" style="stroke: #000000; stroke-width: 0.8"/>
      </g>
     </g>
    </g>
    <g id="xtick_22">
     <g id="line2d_54">
      <g>
       <use xlink:href="#md971c27a60" x="287.421244" y="197.46869" style="stroke: #000000; stroke-width: 0.8"/>
      </g>
     </g>
    </g>
    <g id="xtick_23">
     <g id="line2d_55">
      <g>
       <use xlink:href="#md971c27a60" x="330.138947" y="197.46869" style="stroke: #000000; stroke-width: 0.8"/>
      </g>
     </g>
    </g>
    <g id="xtick_24">
     <g id="line2d_56">
      <g>
       <use xlink:href="#md971c27a60" x="372.856651" y="197.46869" style="stroke: #000000; stroke-width: 0.8"/>
      </g>
     </g>
    </g>
   </g>
   <g id="matplotlib.axis_8">
    <g id="ytick_7">
     <g id="line2d_57">
      <g>
       <use xlink:href="#m95ad8a004b" x="57.6" y="182.562226" style="stroke: #000000; stroke-width: 0.8"/>
      </g>
     </g>
     <g id="text_11">
      <!-- 0.04 -->
      <g transform="translate(28.334375 186.361445)scale(0.1 -0.1)">
       <defs>
        <path id="DejaVuSans-34" d="M 2419 4116 
L 825 1625 
L 2419 1625 
L 2419 4116 
z
M 2253 4666 
L 3047 4666 
L 3047 1625 
L 3713 1625 
L 3713 1100 
L 3047 1100 
L 3047 0 
L 2419 0 
L 2419 1100 
L 313 1100 
L 313 1709 
L 2253 4666 
z
" transform="scale(0.015625)"/>
       </defs>
       <use xlink:href="#DejaVuSans-30"/>
       <use xlink:href="#DejaVuSans-2e" x="63.623047"/>
       <use xlink:href="#DejaVuSans-30" x="95.410156"/>
       <use xlink:href="#DejaVuSans-34" x="159.033203"/>
      </g>
     </g>
    </g>
    <g id="ytick_8">
     <g id="line2d_58">
      <g>
       <use xlink:href="#m95ad8a004b" x="57.6" y="165.579282" style="stroke: #000000; stroke-width: 0.8"/>
      </g>
     </g>
     <g id="text_12">
      <!-- 0.05 -->
      <g transform="translate(28.334375 169.378501)scale(0.1 -0.1)">
       <use xlink:href="#DejaVuSans-30"/>
       <use xlink:href="#DejaVuSans-2e" x="63.623047"/>
       <use xlink:href="#DejaVuSans-30" x="95.410156"/>
       <use xlink:href="#DejaVuSans-35" x="159.033203"/>
      </g>
     </g>
    </g>
   </g>
   <g id="line2d_59">
    <path d="M 73.832727 193.458711 
L 90.919809 193.857949 
L 108.00689 194.175181 
L 125.093971 194.42625 
L 142.181053 194.626671 
L 159.268134 194.787576 
L 176.355215 194.917181 
L 193.442297 195.021705 
L 210.529378 195.105948 
L 227.616459 195.173675 
L 244.703541 195.227876 
L 261.790622 195.270944 
L 278.877703 195.304808 
L 295.964785 195.331022 
L 313.051866 195.350838 
L 330.138947 195.365255 
L 347.226029 195.375064 
L 364.31311 195.380877 
L 381.400191 195.383172 
L 398.487273 195.38244 
" clip-path="url(#pfb4820316e)" style="fill: none; stroke: #1f77b4; stroke-width: 1.5; stroke-linecap: square"/>
   </g>
   <g id="line2d_60">
    <path d="M 73.832727 164.980543 
L 90.919809 164.317634 
L 108.00689 163.649501 
L 125.093971 162.995389 
L 142.181053 162.349195 
L 159.268134 161.707639 
L 176.355215 161.070394 
L 193.442297 160.436996 
L 210.529378 159.806078 
L 227.616459 159.175884 
L 244.703541 158.544985 
L 261.790622 157.912734 
L 278.877703 157.279481 
L 295.964785 156.646791 
L 313.051866 156.01803 
L 330.138947 155.400007 
L 347.226029 154.807345 
L 364.31311 154.272909 
L 381.400191 153.864487 
L 398.487273 153.672828 
" clip-path="url(#pfb4820316e)" style="fill: none; stroke: #ff7f0e; stroke-width: 1.5; stroke-linecap: square"/>
   </g>
   <g id="line2d_61">
    <path d="M 73.832727 165.557876 
L 90.919809 165.514783 
L 108.00689 165.449705 
L 125.093971 165.363498 
L 142.181053 165.255133 
L 159.268134 165.121464 
L 176.355215 164.959434 
L 193.442297 164.768466 
L 210.529378 164.551104 
L 227.616459 164.311658 
L 244.703541 164.053985 
L 261.790622 163.779698 
L 278.877703 163.48757 
L 295.964785 163.174119 
L 313.051866 162.834916 
L 330.138947 162.466096 
L 347.226029 162.065727 
L 364.31311 161.634977 
L 381.400191 161.179044 
L 398.487273 160.711435 
" clip-path="url(#pfb4820316e)" style="fill: none; stroke: #2ca02c; stroke-width: 1.5; stroke-linecap: square"/>
   </g>
   <g id="line2d_62">
    <path d="M 73.832727 165.578931 
L 90.919809 165.578187 
L 108.00689 165.57698 
L 125.093971 165.575248 
L 142.181053 165.572928 
L 159.268134 165.569948 
L 176.355215 165.566232 
L 193.442297 165.561698 
L 210.529378 165.556256 
L 227.616459 165.549812 
L 244.703541 165.542261 
L 261.790622 165.533495 
L 278.877703 165.523399 
L 295.964785 165.511852 
L 313.051866 165.498729 
L 330.138947 165.483905 
L 347.226029 165.467263 
L 364.31311 165.448703 
L 381.400191 165.428163 
L 398.487273 165.405874 
" clip-path="url(#pfb4820316e)" style="fill: none; stroke: #d62728; stroke-width: 1.5; stroke-linecap: square"/>
   </g>
   <g id="line2d_63">
    <path d="M 73.832727 165.918347 
L 90.919809 165.91798 
L 108.00689 165.917508 
L 125.093971 165.916944 
L 142.181053 165.916287 
L 159.268134 165.915529 
L 176.355215 165.914662 
L 193.442297 165.91368 
L 210.529378 165.912572 
L 227.616459 165.91133 
L 244.703541 165.909944 
L 261.790622 165.908401 
L 278.877703 165.906692 
L 295.964785 165.904803 
L 313.051866 165.902724 
L 330.138947 165.900442 
L 347.226029 165.897948 
L 364.31311 165.895232 
L 381.400191 165.892293 
L 398.487273 165.889214 
" clip-path="url(#pfb4820316e)" style="fill: none; stroke: #9467bd; stroke-width: 1.5; stroke-linecap: square"/>
   </g>
   <g id="line2d_64">
    <path d="M 73.832727 168.643761 
L 90.919809 168.643461 
L 108.00689 168.64307 
L 125.093971 168.642612 
L 142.181053 168.642087 
L 159.268134 168.641491 
L 176.355215 168.640818 
L 193.442297 168.640062 
L 210.529378 168.639216 
L 227.616459 168.638273 
L 244.703541 168.637224 
L 261.790622 168.636062 
L 278.877703 168.634778 
L 295.964785 168.633362 
L 313.051866 168.631804 
L 330.138947 168.630097 
L 347.226029 168.628231 
L 364.31311 168.6262 
L 381.400191 168.624005 
L 398.487273 168.621769 
" clip-path="url(#pfb4820316e)" style="fill: none; stroke: #8c564b; stroke-width: 1.5; stroke-linecap: square"/>
   </g>
   <g id="line2d_65">
    <path d="M 73.832727 168.870315 
L 90.919809 168.870006 
L 108.00689 168.86957 
L 125.093971 168.869039 
L 142.181053 168.868416 
L 159.268134 168.867697 
L 176.355215 168.866876 
L 193.442297 168.865948 
L 210.529378 168.864905 
L 227.616459 168.863741 
L 244.703541 168.862446 
L 261.790622 168.861014 
L 278.877703 168.859434 
L 295.964785 168.857698 
L 313.051866 168.855796 
L 330.138947 168.85372 
L 347.226029 168.85146 
L 364.31311 168.84901 
L 381.400191 168.846388 
L 398.487273 168.843859 
" clip-path="url(#pfb4820316e)" style="fill: none; stroke: #e377c2; stroke-width: 1.5; stroke-linecap: square"/>
   </g>
   <g id="line2d_66">
    <path d="M 73.832727 168.875505 
L 90.919809 168.875208 
L 108.00689 168.874773 
L 125.093971 168.874239 
L 142.181053 168.873612 
L 159.268134 168.872889 
L 176.355215 168.872062 
L 193.442297 168.871127 
L 210.529378 168.870077 
L 227.616459 168.868903 
L 244.703541 168.867599 
L 261.790622 168.866156 
L 278.877703 168.864564 
L 295.964785 168.862815 
L 313.051866 168.8609 
L 330.138947 168.858808 
L 347.226029 168.856533 
L 364.31311 168.85407 
L 381.400191 168.85146 
L 398.487273 168.849084 
" clip-path="url(#pfb4820316e)" style="fill: none; stroke: #7f7f7f; stroke-width: 1.5; stroke-linecap: square"/>
   </g>
   <g id="line2d_67">
    <path d="M 73.832727 180.157496 
L 90.919809 179.886524 
L 108.00689 179.645547 
L 125.093971 179.430968 
L 142.181053 179.239413 
L 159.268134 179.068153 
L 176.355215 178.91496 
L 193.442297 178.778001 
L 210.529378 178.655753 
L 227.616459 178.546948 
L 244.703541 178.450523 
L 261.790622 178.365588 
L 278.877703 178.291396 
L 295.964785 178.227325 
L 313.051866 178.172859 
L 330.138947 178.127575 
L 347.226029 178.091137 
L 364.31311 178.063298 
L 381.400191 178.043924 
L 398.487273 178.033145 
" clip-path="url(#pfb4820316e)" style="fill: none; stroke: #bcbd22; stroke-width: 1.5; stroke-linecap: square"/>
   </g>
   <g id="line2d_68">
    <path d="M 73.832727 191.984712 
L 90.919809 191.513998 
L 108.00689 191.069857 
L 125.093971 190.659861 
L 142.181053 190.285167 
L 159.268134 189.944857 
L 176.355215 189.637158 
L 193.442297 189.360024 
L 210.529378 189.111407 
L 227.616459 188.889384 
L 244.703541 188.692214 
L 261.790622 188.518351 
L 278.877703 188.366448 
L 295.964785 188.235344 
L 313.051866 188.124053 
L 330.138947 188.031757 
L 347.226029 187.957791 
L 364.31311 187.901642 
L 381.400191 187.862966 
L 398.487273 187.841676 
" clip-path="url(#pfb4820316e)" style="fill: none; stroke: #17becf; stroke-width: 1.5; stroke-linecap: square"/>
   </g>
   <g id="line2d_69">
    <path d="M 73.832727 192.938946 
L 90.919809 193.030429 
L 108.00689 193.044222 
L 125.093971 193.008343 
L 142.181053 192.941026 
L 159.268134 192.85455 
L 176.355215 192.757384 
L 193.442297 192.655476 
L 210.529378 192.553056 
L 227.616459 192.453164 
L 244.703541 192.357996 
L 261.790622 192.269148 
L 278.877703 192.187783 
L 295.964785 192.114741 
L 313.051866 192.050635 
L 330.138947 191.995903 
L 347.226029 191.95086 
L 364.31311 191.915732 
L 381.400191 191.8907 
L 398.487273 191.876008 
" clip-path="url(#pfb4820316e)" style="fill: none; stroke: #1f77b4; stroke-width: 1.5; stroke-linecap: square"/>
   </g>
   <g id="line2d_70">
    <path d="M 73.832727 193.235885 
L 90.919809 193.524732 
L 108.00689 193.726796 
L 125.093971 193.865242 
L 142.181053 193.957431 
L 159.268134 194.015651 
L 176.355215 194.048855 
L 193.442297 194.063714 
L 210.529378 194.065291 
L 227.616459 194.057483 
L 244.703541 194.043317 
L 261.790622 194.025166 
L 278.877703 194.004899 
L 295.964785 193.983986 
L 313.051866 193.963587 
L 330.138947 193.944605 
L 347.226029 193.927737 
L 364.31311 193.913516 
L 381.400191 193.902347 
L 398.487273 193.894638 
" clip-path="url(#pfb4820316e)" style="fill: none; stroke: #ff7f0e; stroke-width: 1.5; stroke-linecap: square"/>
   </g>
   <g id="line2d_71">
    <path d="M 73.832727 193.408061 
L 90.919809 193.779506 
L 108.00689 194.06678 
L 125.093971 194.288211 
L 142.181053 194.459889 
L 159.268134 194.593318 
L 176.355215 194.696958 
L 193.442297 194.777189 
L 210.529378 194.838917 
L 227.616459 194.885973 
L 244.703541 194.921383 
L 261.790622 194.947558 
L 278.877703 194.966432 
L 295.964785 194.979553 
L 313.051866 194.988163 
L 330.138947 194.993245 
L 347.226029 194.995573 
L 364.31311 194.995738 
L 381.400191 194.994199 
L 398.487273 194.991415 
" clip-path="url(#pfb4820316e)" style="fill: none; stroke: #2ca02c; stroke-width: 1.5; stroke-linecap: square"/>
   </g>
   <g id="patch_15">
    <path d="M 57.6 197.46869 
L 57.6 151.58731 
" style="fill: none; stroke: #000000; stroke-width: 0.8; stroke-linejoin: miter; stroke-linecap: square"/>
   </g>
   <g id="patch_16">
    <path d="M 414.72 197.46869 
L 414.72 151.58731 
" style="fill: none; stroke: #000000; stroke-width: 0.8; stroke-linejoin: miter; stroke-linecap: square"/>
   </g>
   <g id="patch_17">
    <path d="M 57.6 197.46869 
L 414.72 197.46869 
" style="fill: none; stroke: #000000; stroke-width: 0.8; stroke-linejoin: miter; stroke-linecap: square"/>
   </g>
   <g id="patch_18">
    <path d="M 57.6 151.58731 
L 414.72 151.58731 
" style="fill: none; stroke: #000000; stroke-width: 0.8; stroke-linejoin: miter; stroke-linecap: square"/>
   </g>
   <g id="text_13">
    <!-- yA - Container 1 -->
    <g transform="translate(187.48125 148.58731)scale(0.12 -0.12)">
     <defs>
      <path id="DejaVuSans-41" d="M 2188 4044 
L 1331 1722 
L 3047 1722 
L 2188 4044 
z
M 1831 4666 
L 2547 4666 
L 4325 0 
L 3669 0 
L 3244 1197 
L 1141 1197 
L 716 0 
L 50 0 
L 1831 4666 
z
" transform="scale(0.015625)"/>
     </defs>
     <use xlink:href="#DejaVuSans-79"/>
     <use xlink:href="#DejaVuSans-41" x="59.179688"/>
     <use xlink:href="#DejaVuSans-20" x="127.587891"/>
     <use xlink:href="#DejaVuSans-2d" x="159.375"/>
     <use xlink:href="#DejaVuSans-20" x="195.458984"/>
     <use xlink:href="#DejaVuSans-43" x="227.246094"/>
     <use xlink:href="#DejaVuSans-6f" x="297.070312"/>
     <use xlink:href="#DejaVuSans-6e" x="358.251953"/>
     <use xlink:href="#DejaVuSans-74" x="421.630859"/>
     <use xlink:href="#DejaVuSans-61" x="460.839844"/>
     <use xlink:href="#DejaVuSans-69" x="522.119141"/>
     <use xlink:href="#DejaVuSans-6e" x="549.902344"/>
     <use xlink:href="#DejaVuSans-65" x="613.28125"/>
     <use xlink:href="#DejaVuSans-72" x="674.804688"/>
     <use xlink:href="#DejaVuSans-20" x="715.917969"/>
     <use xlink:href="#DejaVuSans-31" x="747.705078"/>
    </g>
   </g>
  </g>
  <g id="axes_5">
   <g id="patch_19">
    <path d="M 57.6 252.526345 
L 414.72 252.526345 
L 414.72 206.644966 
L 57.6 206.644966 
z
" style="fill: #ffffff"/>
   </g>
   <g id="matplotlib.axis_9">
    <g id="xtick_25">
     <g id="line2d_72">
      <g>
       <use xlink:href="#md971c27a60" x="73.832727" y="252.526345" style="stroke: #000000; stroke-width: 0.8"/>
      </g>
     </g>
    </g>
    <g id="xtick_26">
     <g id="line2d_73">
      <g>
       <use xlink:href="#md971c27a60" x="116.550431" y="252.526345" style="stroke: #000000; stroke-width: 0.8"/>
      </g>
     </g>
    </g>
    <g id="xtick_27">
     <g id="line2d_74">
      <g>
       <use xlink:href="#md971c27a60" x="159.268134" y="252.526345" style="stroke: #000000; stroke-width: 0.8"/>
      </g>
     </g>
    </g>
    <g id="xtick_28">
     <g id="line2d_75">
      <g>
       <use xlink:href="#md971c27a60" x="201.985837" y="252.526345" style="stroke: #000000; stroke-width: 0.8"/>
      </g>
     </g>
    </g>
    <g id="xtick_29">
     <g id="line2d_76">
      <g>
       <use xlink:href="#md971c27a60" x="244.703541" y="252.526345" style="stroke: #000000; stroke-width: 0.8"/>
      </g>
     </g>
    </g>
    <g id="xtick_30">
     <g id="line2d_77">
      <g>
       <use xlink:href="#md971c27a60" x="287.421244" y="252.526345" style="stroke: #000000; stroke-width: 0.8"/>
      </g>
     </g>
    </g>
    <g id="xtick_31">
     <g id="line2d_78">
      <g>
       <use xlink:href="#md971c27a60" x="330.138947" y="252.526345" style="stroke: #000000; stroke-width: 0.8"/>
      </g>
     </g>
    </g>
    <g id="xtick_32">
     <g id="line2d_79">
      <g>
       <use xlink:href="#md971c27a60" x="372.856651" y="252.526345" style="stroke: #000000; stroke-width: 0.8"/>
      </g>
     </g>
    </g>
   </g>
   <g id="matplotlib.axis_10">
    <g id="ytick_9">
     <g id="line2d_80">
      <g>
       <use xlink:href="#m95ad8a004b" x="57.6" y="237.589383" style="stroke: #000000; stroke-width: 0.8"/>
      </g>
     </g>
     <g id="text_14">
      <!-- 0.90 -->
      <g transform="translate(28.334375 241.388602)scale(0.1 -0.1)">
       <defs>
        <path id="DejaVuSans-39" d="M 703 97 
L 703 672 
Q 941 559 1184 500 
Q 1428 441 1663 441 
Q 2288 441 2617 861 
Q 2947 1281 2994 2138 
Q 2813 1869 2534 1725 
Q 2256 1581 1919 1581 
Q 1219 1581 811 2004 
Q 403 2428 403 3163 
Q 403 3881 828 4315 
Q 1253 4750 1959 4750 
Q 2769 4750 3195 4129 
Q 3622 3509 3622 2328 
Q 3622 1225 3098 567 
Q 2575 -91 1691 -91 
Q 1453 -91 1209 -44 
Q 966 3 703 97 
z
M 1959 2075 
Q 2384 2075 2632 2365 
Q 2881 2656 2881 3163 
Q 2881 3666 2632 3958 
Q 2384 4250 1959 4250 
Q 1534 4250 1286 3958 
Q 1038 3666 1038 3163 
Q 1038 2656 1286 2365 
Q 1534 2075 1959 2075 
z
" transform="scale(0.015625)"/>
       </defs>
       <use xlink:href="#DejaVuSans-30"/>
       <use xlink:href="#DejaVuSans-2e" x="63.623047"/>
       <use xlink:href="#DejaVuSans-39" x="95.410156"/>
       <use xlink:href="#DejaVuSans-30" x="159.033203"/>
      </g>
     </g>
    </g>
    <g id="ytick_10">
     <g id="line2d_81">
      <g>
       <use xlink:href="#m95ad8a004b" x="57.6" y="218.725755" style="stroke: #000000; stroke-width: 0.8"/>
      </g>
     </g>
     <g id="text_15">
      <!-- 0.91 -->
      <g transform="translate(28.334375 222.524974)scale(0.1 -0.1)">
       <use xlink:href="#DejaVuSans-30"/>
       <use xlink:href="#DejaVuSans-2e" x="63.623047"/>
       <use xlink:href="#DejaVuSans-39" x="95.410156"/>
       <use xlink:href="#DejaVuSans-31" x="159.033203"/>
      </g>
     </g>
    </g>
   </g>
   <g id="line2d_82">
    <path d="M 73.832727 210.78136 
L 90.919809 210.357809 
L 108.00689 210.017619 
L 125.093971 209.745065 
L 142.181053 209.524417 
L 159.268134 209.344483 
L 176.355215 209.197131 
L 193.442297 209.076358 
L 210.529378 208.977709 
L 227.616459 208.897914 
L 244.703541 208.834674 
L 261.790622 208.786542 
L 278.877703 208.752878 
L 295.964785 208.733852 
L 313.051866 208.730483 
L 330.138947 208.7447 
L 347.226029 208.779409 
L 364.31311 208.838534 
L 381.400191 208.926701 
L 398.487273 209.043574 
" clip-path="url(#p890f5ac4b6)" style="fill: none; stroke: #1f77b4; stroke-width: 1.5; stroke-linecap: square"/>
   </g>
   <g id="line2d_83">
    <path d="M 73.832727 238.312704 
L 90.919809 238.848118 
L 108.00689 239.53669 
L 125.093971 240.227954 
L 142.181053 240.912589 
L 159.268134 241.591464 
L 176.355215 242.264492 
L 193.442297 242.932401 
L 210.529378 243.597164 
L 227.616459 244.261335 
L 244.703541 244.927281 
L 261.790622 245.596757 
L 278.877703 246.270768 
L 295.964785 246.949461 
L 313.051866 247.631639 
L 330.138947 248.313192 
L 347.226029 248.982637 
L 364.31311 249.610226 
L 381.400191 250.129765 
L 398.487273 250.440828 
" clip-path="url(#p890f5ac4b6)" style="fill: none; stroke: #ff7f0e; stroke-width: 1.5; stroke-linecap: square"/>
   </g>
   <g id="line2d_84">
    <path d="M 73.832727 237.567633 
L 90.919809 237.599788 
L 108.00689 237.656609 
L 125.093971 237.74013 
L 142.181053 237.850639 
L 159.268134 237.989967 
L 176.355215 238.160145 
L 193.442297 238.361057 
L 210.529378 238.589728 
L 227.616459 238.841667 
L 244.703541 239.113159 
L 261.790622 239.403115 
L 278.877703 239.713723 
L 295.964785 240.049879 
L 313.051866 240.417883 
L 330.138947 240.823962 
L 347.226029 241.272944 
L 364.31311 241.767138 
L 381.400191 242.305056 
L 398.487273 242.871735 
" clip-path="url(#p890f5ac4b6)" style="fill: none; stroke: #2ca02c; stroke-width: 1.5; stroke-linecap: square"/>
   </g>
   <g id="line2d_85">
    <path d="M 73.832727 237.586509 
L 90.919809 237.582579 
L 108.00689 237.577425 
L 125.093971 237.571681 
L 142.181053 237.566026 
L 159.268134 237.561074 
L 176.355215 237.557317 
L 193.442297 237.5551 
L 210.529378 237.554645 
L 227.616459 237.556084 
L 244.703541 237.559514 
L 261.790622 237.565048 
L 278.877703 237.57286 
L 295.964785 237.583239 
L 313.051866 237.59663 
L 330.138947 237.613684 
L 347.226029 237.635312 
L 364.31311 237.662727 
L 381.400191 237.697467 
L 398.487273 237.740507 
" clip-path="url(#p890f5ac4b6)" style="fill: none; stroke: #d62728; stroke-width: 1.5; stroke-linecap: square"/>
   </g>
   <g id="line2d_86">
    <path d="M 73.832727 237.265356 
L 90.919809 237.264069 
L 108.00689 237.261867 
L 125.093971 237.258773 
L 142.181053 237.254882 
L 159.268134 237.250376 
L 176.355215 237.245481 
L 193.442297 237.240438 
L 210.529378 237.235474 
L 227.616459 237.230785 
L 244.703541 237.226532 
L 261.790622 237.22285 
L 278.877703 237.21986 
L 295.964785 237.217688 
L 313.051866 237.216498 
L 330.138947 237.216517 
L 347.226029 237.218071 
L 364.31311 237.221627 
L 381.400191 237.22782 
L 398.487273 237.237146 
" clip-path="url(#p890f5ac4b6)" style="fill: none; stroke: #9467bd; stroke-width: 1.5; stroke-linecap: square"/>
   </g>
   <g id="line2d_87">
    <path d="M 73.832727 234.583692 
L 90.919809 234.582343 
L 108.00689 234.580068 
L 125.093971 234.576882 
L 142.181053 234.572879 
L 159.268134 234.568232 
L 176.355215 234.563164 
L 193.442297 234.557911 
L 210.529378 234.552693 
L 227.616459 234.547704 
L 244.703541 234.543102 
L 261.790622 234.53902 
L 278.877703 234.535573 
L 295.964785 234.532886 
L 313.051866 234.531114 
L 330.138947 234.530477 
L 347.226029 234.531287 
L 364.31311 234.533996 
L 381.400191 234.539209 
L 398.487273 234.547326 
" clip-path="url(#p890f5ac4b6)" style="fill: none; stroke: #8c564b; stroke-width: 1.5; stroke-linecap: square"/>
   </g>
   <g id="line2d_88">
    <path d="M 73.832727 234.360189 
L 90.919809 234.358851 
L 108.00689 234.356621 
L 125.093971 234.353509 
L 142.181053 234.349603 
L 159.268134 234.345079 
L 176.355215 234.340159 
L 193.442297 234.335077 
L 210.529378 234.330054 
L 227.616459 234.325284 
L 244.703541 234.320925 
L 261.790622 234.317108 
L 278.877703 234.313951 
L 295.964785 234.311577 
L 313.051866 234.310144 
L 330.138947 234.309867 
L 347.226029 234.311063 
L 364.31311 234.314178 
L 381.400191 234.319803 
L 398.487273 234.328123 
" clip-path="url(#p890f5ac4b6)" style="fill: none; stroke: #e377c2; stroke-width: 1.5; stroke-linecap: square"/>
   </g>
   <g id="line2d_89">
    <path d="M 73.832727 234.355096 
L 90.919809 234.353749 
L 108.00689 234.351517 
L 125.093971 234.348407 
L 142.181053 234.344506 
L 159.268134 234.339988 
L 176.355215 234.335075 
L 193.442297 234.33 
L 210.529378 234.324986 
L 227.616459 234.320224 
L 244.703541 234.315875 
L 261.790622 234.312068 
L 278.877703 234.308923 
L 295.964785 234.306562 
L 313.051866 234.305142 
L 330.138947 234.304881 
L 347.226029 234.306093 
L 364.31311 234.309223 
L 381.400191 234.314835 
L 398.487273 234.32295 
" clip-path="url(#p890f5ac4b6)" style="fill: none; stroke: #7f7f7f; stroke-width: 1.5; stroke-linecap: square"/>
   </g>
   <g id="line2d_90">
    <path d="M 73.832727 223.37796 
L 90.919809 223.631474 
L 108.00689 223.856291 
L 125.093971 224.055626 
L 142.181053 224.23264 
L 159.268134 224.389986 
L 176.355215 224.529912 
L 193.442297 224.654319 
L 210.529378 224.76481 
L 227.616459 224.862733 
L 244.703541 224.949214 
L 261.790622 225.025196 
L 278.877703 225.091479 
L 295.964785 225.148757 
L 313.051866 225.197657 
L 330.138947 225.238781 
L 347.226029 225.272746 
L 364.31311 225.300217 
L 381.400191 225.321899 
L 398.487273 225.338024 
" clip-path="url(#p890f5ac4b6)" style="fill: none; stroke: #bcbd22; stroke-width: 1.5; stroke-linecap: square"/>
   </g>
   <g id="line2d_91">
    <path d="M 73.832727 212.221298 
L 90.919809 212.611042 
L 108.00689 212.987689 
L 125.093971 213.340415 
L 142.181053 213.665779 
L 159.268134 213.96312 
L 176.355215 214.233108 
L 193.442297 214.477015 
L 210.529378 214.696323 
L 227.616459 214.892531 
L 244.703541 215.067054 
L 261.790622 215.221185 
L 278.877703 215.356084 
L 295.964785 215.472793 
L 313.051866 215.572257 
L 330.138947 215.65536 
L 347.226029 215.722952 
L 364.31311 215.775889 
L 381.400191 215.815023 
L 398.487273 215.840764 
" clip-path="url(#p890f5ac4b6)" style="fill: none; stroke: #17becf; stroke-width: 1.5; stroke-linecap: square"/>
   </g>
   <g id="line2d_92">
    <path d="M 73.832727 211.307847 
L 90.919809 211.168021 
L 108.00689 211.110345 
L 125.093971 211.106211 
L 142.181053 211.136866 
L 159.268134 211.189692 
L 176.355215 211.256006 
L 193.442297 211.329724 
L 210.529378 211.406519 
L 227.616459 211.483274 
L 244.703541 211.557722 
L 261.790622 211.628208 
L 278.877703 211.693532 
L 295.964785 211.752841 
L 313.051866 211.805573 
L 330.138947 211.851412 
L 347.226029 211.890281 
L 364.31311 211.922325 
L 381.400191 211.94789 
L 398.487273 211.967057 
" clip-path="url(#p890f5ac4b6)" style="fill: none; stroke: #1f77b4; stroke-width: 1.5; stroke-linecap: square"/>
   </g>
   <g id="line2d_93">
    <path d="M 73.832727 211.008554 
L 90.919809 210.685638 
L 108.00689 210.451875 
L 125.093971 210.283913 
L 142.181053 210.164094 
L 159.268134 210.079982 
L 176.355215 210.022579 
L 193.442297 209.985221 
L 210.529378 209.962876 
L 227.616459 209.95168 
L 244.703541 209.94863 
L 261.790622 209.951376 
L 278.877703 209.958076 
L 295.964785 209.96731 
L 313.051866 209.978016 
L 330.138947 209.989452 
L 347.226029 210.001187 
L 364.31311 210.013086 
L 381.400191 210.025283 
L 398.487273 210.037697 
" clip-path="url(#p890f5ac4b6)" style="fill: none; stroke: #ff7f0e; stroke-width: 1.5; stroke-linecap: square"/>
   </g>
   <g id="line2d_94">
    <path d="M 73.832727 210.832707 
L 90.919809 210.433999 
L 108.00689 210.121055 
L 125.093971 209.875585 
L 142.181053 209.681249 
L 159.268134 209.526434 
L 176.355215 209.402661 
L 193.442297 209.303587 
L 210.529378 209.224363 
L 227.616459 209.161213 
L 244.703541 209.111158 
L 261.790622 209.07183 
L 278.877703 209.041343 
L 295.964785 209.018214 
L 313.051866 209.001315 
L 330.138947 208.989837 
L 347.226029 208.983284 
L 364.31311 208.981468 
L 381.400191 208.984475 
L 398.487273 208.99217 
" clip-path="url(#p890f5ac4b6)" style="fill: none; stroke: #2ca02c; stroke-width: 1.5; stroke-linecap: square"/>
   </g>
   <g id="patch_20">
    <path d="M 57.6 252.526345 
L 57.6 206.644966 
" style="fill: none; stroke: #000000; stroke-width: 0.8; stroke-linejoin: miter; stroke-linecap: square"/>
   </g>
   <g id="patch_21">
    <path d="M 414.72 252.526345 
L 414.72 206.644966 
" style="fill: none; stroke: #000000; stroke-width: 0.8; stroke-linejoin: miter; stroke-linecap: square"/>
   </g>
   <g id="patch_22">
    <path d="M 57.6 252.526345 
L 414.72 252.526345 
" style="fill: none; stroke: #000000; stroke-width: 0.8; stroke-linejoin: miter; stroke-linecap: square"/>
   </g>
   <g id="patch_23">
    <path d="M 57.6 206.644966 
L 414.72 206.644966 
" style="fill: none; stroke: #000000; stroke-width: 0.8; stroke-linejoin: miter; stroke-linecap: square"/>
   </g>
   <g id="text_16">
    <!-- yB - Container 1 -->
    <g transform="translate(187.469063 203.644966)scale(0.12 -0.12)">
     <defs>
      <path id="DejaVuSans-42" d="M 1259 2228 
L 1259 519 
L 2272 519 
Q 2781 519 3026 730 
Q 3272 941 3272 1375 
Q 3272 1813 3026 2020 
Q 2781 2228 2272 2228 
L 1259 2228 
z
M 1259 4147 
L 1259 2741 
L 2194 2741 
Q 2656 2741 2882 2914 
Q 3109 3088 3109 3444 
Q 3109 3797 2882 3972 
Q 2656 4147 2194 4147 
L 1259 4147 
z
M 628 4666 
L 2241 4666 
Q 2963 4666 3353 4366 
Q 3744 4066 3744 3513 
Q 3744 3084 3544 2831 
Q 3344 2578 2956 2516 
Q 3422 2416 3680 2098 
Q 3938 1781 3938 1306 
Q 3938 681 3513 340 
Q 3088 0 2303 0 
L 628 0 
L 628 4666 
z
" transform="scale(0.015625)"/>
     </defs>
     <use xlink:href="#DejaVuSans-79"/>
     <use xlink:href="#DejaVuSans-42" x="59.179688"/>
     <use xlink:href="#DejaVuSans-20" x="127.783203"/>
     <use xlink:href="#DejaVuSans-2d" x="159.570312"/>
     <use xlink:href="#DejaVuSans-20" x="195.654297"/>
     <use xlink:href="#DejaVuSans-43" x="227.441406"/>
     <use xlink:href="#DejaVuSans-6f" x="297.265625"/>
     <use xlink:href="#DejaVuSans-6e" x="358.447266"/>
     <use xlink:href="#DejaVuSans-74" x="421.826172"/>
     <use xlink:href="#DejaVuSans-61" x="461.035156"/>
     <use xlink:href="#DejaVuSans-69" x="522.314453"/>
     <use xlink:href="#DejaVuSans-6e" x="550.097656"/>
     <use xlink:href="#DejaVuSans-65" x="613.476562"/>
     <use xlink:href="#DejaVuSans-72" x="675"/>
     <use xlink:href="#DejaVuSans-20" x="716.113281"/>
     <use xlink:href="#DejaVuSans-31" x="747.900391"/>
    </g>
   </g>
  </g>
  <g id="axes_6">
   <g id="patch_24">
    <path d="M 57.6 307.584 
L 414.72 307.584 
L 414.72 261.702621 
L 57.6 261.702621 
z
" style="fill: #ffffff"/>
   </g>
   <g id="matplotlib.axis_11">
    <g id="xtick_33">
     <g id="line2d_95">
      <g>
       <use xlink:href="#md971c27a60" x="73.832727" y="307.584" style="stroke: #000000; stroke-width: 0.8"/>
      </g>
     </g>
     <g id="text_17">
      <!-- 0.0 -->
      <g transform="translate(65.881165 322.182437)scale(0.1 -0.1)">
       <use xlink:href="#DejaVuSans-30"/>
       <use xlink:href="#DejaVuSans-2e" x="63.623047"/>
       <use xlink:href="#DejaVuSans-30" x="95.410156"/>
      </g>
     </g>
    </g>
    <g id="xtick_34">
     <g id="line2d_96">
      <g>
       <use xlink:href="#md971c27a60" x="116.550431" y="307.584" style="stroke: #000000; stroke-width: 0.8"/>
      </g>
     </g>
     <g id="text_18">
      <!-- 2.5 -->
      <g transform="translate(108.598868 322.182437)scale(0.1 -0.1)">
       <use xlink:href="#DejaVuSans-32"/>
       <use xlink:href="#DejaVuSans-2e" x="63.623047"/>
       <use xlink:href="#DejaVuSans-35" x="95.410156"/>
      </g>
     </g>
    </g>
    <g id="xtick_35">
     <g id="line2d_97">
      <g>
       <use xlink:href="#md971c27a60" x="159.268134" y="307.584" style="stroke: #000000; stroke-width: 0.8"/>
      </g>
     </g>
     <g id="text_19">
      <!-- 5.0 -->
      <g transform="translate(151.316571 322.182437)scale(0.1 -0.1)">
       <use xlink:href="#DejaVuSans-35"/>
       <use xlink:href="#DejaVuSans-2e" x="63.623047"/>
       <use xlink:href="#DejaVuSans-30" x="95.410156"/>
      </g>
     </g>
    </g>
    <g id="xtick_36">
     <g id="line2d_98">
      <g>
       <use xlink:href="#md971c27a60" x="201.985837" y="307.584" style="stroke: #000000; stroke-width: 0.8"/>
      </g>
     </g>
     <g id="text_20">
      <!-- 7.5 -->
      <g transform="translate(194.034275 322.182437)scale(0.1 -0.1)">
       <defs>
        <path id="DejaVuSans-37" d="M 525 4666 
L 3525 4666 
L 3525 4397 
L 1831 0 
L 1172 0 
L 2766 4134 
L 525 4134 
L 525 4666 
z
" transform="scale(0.015625)"/>
       </defs>
       <use xlink:href="#DejaVuSans-37"/>
       <use xlink:href="#DejaVuSans-2e" x="63.623047"/>
       <use xlink:href="#DejaVuSans-35" x="95.410156"/>
      </g>
     </g>
    </g>
    <g id="xtick_37">
     <g id="line2d_99">
      <g>
       <use xlink:href="#md971c27a60" x="244.703541" y="307.584" style="stroke: #000000; stroke-width: 0.8"/>
      </g>
     </g>
     <g id="text_21">
      <!-- 10.0 -->
      <g transform="translate(233.570728 322.182437)scale(0.1 -0.1)">
       <use xlink:href="#DejaVuSans-31"/>
       <use xlink:href="#DejaVuSans-30" x="63.623047"/>
       <use xlink:href="#DejaVuSans-2e" x="127.246094"/>
       <use xlink:href="#DejaVuSans-30" x="159.033203"/>
      </g>
     </g>
    </g>
    <g id="xtick_38">
     <g id="line2d_100">
      <g>
       <use xlink:href="#md971c27a60" x="287.421244" y="307.584" style="stroke: #000000; stroke-width: 0.8"/>
      </g>
     </g>
     <g id="text_22">
      <!-- 12.5 -->
      <g transform="translate(276.288432 322.182437)scale(0.1 -0.1)">
       <use xlink:href="#DejaVuSans-31"/>
       <use xlink:href="#DejaVuSans-32" x="63.623047"/>
       <use xlink:href="#DejaVuSans-2e" x="127.246094"/>
       <use xlink:href="#DejaVuSans-35" x="159.033203"/>
      </g>
     </g>
    </g>
    <g id="xtick_39">
     <g id="line2d_101">
      <g>
       <use xlink:href="#md971c27a60" x="330.138947" y="307.584" style="stroke: #000000; stroke-width: 0.8"/>
      </g>
     </g>
     <g id="text_23">
      <!-- 15.0 -->
      <g transform="translate(319.006135 322.182437)scale(0.1 -0.1)">
       <use xlink:href="#DejaVuSans-31"/>
       <use xlink:href="#DejaVuSans-35" x="63.623047"/>
       <use xlink:href="#DejaVuSans-2e" x="127.246094"/>
       <use xlink:href="#DejaVuSans-30" x="159.033203"/>
      </g>
     </g>
    </g>
    <g id="xtick_40">
     <g id="line2d_102">
      <g>
       <use xlink:href="#md971c27a60" x="372.856651" y="307.584" style="stroke: #000000; stroke-width: 0.8"/>
      </g>
     </g>
     <g id="text_24">
      <!-- 17.5 -->
      <g transform="translate(361.723838 322.182437)scale(0.1 -0.1)">
       <use xlink:href="#DejaVuSans-31"/>
       <use xlink:href="#DejaVuSans-37" x="63.623047"/>
       <use xlink:href="#DejaVuSans-2e" x="127.246094"/>
       <use xlink:href="#DejaVuSans-35" x="159.033203"/>
      </g>
     </g>
    </g>
    <g id="text_25">
     <!-- position z -->
     <g transform="translate(212.142031 335.860562)scale(0.1 -0.1)">
      <defs>
       <path id="DejaVuSans-70" d="M 1159 525 
L 1159 -1331 
L 581 -1331 
L 581 3500 
L 1159 3500 
L 1159 2969 
Q 1341 3281 1617 3432 
Q 1894 3584 2278 3584 
Q 2916 3584 3314 3078 
Q 3713 2572 3713 1747 
Q 3713 922 3314 415 
Q 2916 -91 2278 -91 
Q 1894 -91 1617 61 
Q 1341 213 1159 525 
z
M 3116 1747 
Q 3116 2381 2855 2742 
Q 2594 3103 2138 3103 
Q 1681 3103 1420 2742 
Q 1159 2381 1159 1747 
Q 1159 1113 1420 752 
Q 1681 391 2138 391 
Q 2594 391 2855 752 
Q 3116 1113 3116 1747 
z
" transform="scale(0.015625)"/>
      </defs>
      <use xlink:href="#DejaVuSans-70"/>
      <use xlink:href="#DejaVuSans-6f" x="63.476562"/>
      <use xlink:href="#DejaVuSans-73" x="124.658203"/>
      <use xlink:href="#DejaVuSans-69" x="176.757812"/>
      <use xlink:href="#DejaVuSans-74" x="204.541016"/>
      <use xlink:href="#DejaVuSans-69" x="243.75"/>
      <use xlink:href="#DejaVuSans-6f" x="271.533203"/>
      <use xlink:href="#DejaVuSans-6e" x="332.714844"/>
      <use xlink:href="#DejaVuSans-20" x="396.09375"/>
      <use xlink:href="#DejaVuSans-7a" x="427.880859"/>
     </g>
    </g>
   </g>
   <g id="matplotlib.axis_12">
    <g id="ytick_11">
     <g id="line2d_103">
      <g>
       <use xlink:href="#m95ad8a004b" x="57.6" y="300.770252" style="stroke: #000000; stroke-width: 0.8"/>
      </g>
     </g>
     <g id="text_26">
      <!-- 0.050 -->
      <g transform="translate(21.971875 304.569471)scale(0.1 -0.1)">
       <use xlink:href="#DejaVuSans-30"/>
       <use xlink:href="#DejaVuSans-2e" x="63.623047"/>
       <use xlink:href="#DejaVuSans-30" x="95.410156"/>
       <use xlink:href="#DejaVuSans-35" x="159.033203"/>
       <use xlink:href="#DejaVuSans-30" x="222.65625"/>
      </g>
     </g>
    </g>
    <g id="ytick_12">
     <g id="line2d_104">
      <g>
       <use xlink:href="#m95ad8a004b" x="57.6" y="270.157837" style="stroke: #000000; stroke-width: 0.8"/>
      </g>
     </g>
     <g id="text_27">
      <!-- 0.052 -->
      <g transform="translate(21.971875 273.957056)scale(0.1 -0.1)">
       <use xlink:href="#DejaVuSans-30"/>
       <use xlink:href="#DejaVuSans-2e" x="63.623047"/>
       <use xlink:href="#DejaVuSans-30" x="95.410156"/>
       <use xlink:href="#DejaVuSans-35" x="159.033203"/>
       <use xlink:href="#DejaVuSans-32" x="222.65625"/>
      </g>
     </g>
    </g>
   </g>
   <g id="line2d_105">
    <path d="M 73.832727 267.025483 
L 90.919809 266.864019 
L 108.00689 266.76526 
L 125.093971 266.713982 
L 142.181053 266.698023 
L 159.268134 266.707853 
L 176.355215 266.735395 
L 193.442297 266.77332 
L 210.529378 266.814517 
L 227.616459 266.851579 
L 244.703541 266.876222 
L 261.790622 266.878607 
L 278.877703 266.846557 
L 295.964785 266.764679 
L 313.051866 266.613423 
L 330.138947 266.368124 
L 347.226029 265.998086 
L 364.31311 265.465948 
L 381.400191 264.729861 
L 398.487273 263.788138 
" clip-path="url(#pc9194c4fc3)" style="fill: none; stroke: #1f77b4; stroke-width: 1.5; stroke-linecap: square"/>
   </g>
   <g id="line2d_106">
    <path d="M 73.832727 300.29737 
L 90.919809 301.927546 
L 108.00689 302.362058 
L 125.093971 302.648364 
L 142.181053 302.917086 
L 159.268134 303.190748 
L 176.355215 303.472996 
L 193.442297 303.762112 
L 210.529378 304.054407 
L 227.616459 304.344981 
L 244.703541 304.627507 
L 261.790622 304.893572 
L 278.877703 305.131858 
L 295.964785 305.327093 
L 313.051866 305.458638 
L 330.138947 305.498483 
L 347.226029 305.40799 
L 364.31311 305.132352 
L 381.400191 304.597719 
L 398.487273 303.801088 
" clip-path="url(#pc9194c4fc3)" style="fill: none; stroke: #ff7f0e; stroke-width: 1.5; stroke-linecap: square"/>
   </g>
   <g id="line2d_107">
    <path d="M 73.832727 301.139661 
L 90.919809 301.267133 
L 108.00689 301.392613 
L 125.093971 301.491862 
L 142.181053 301.57184 
L 159.268134 301.646034 
L 176.355215 301.72551 
L 193.442297 301.816413 
L 210.529378 301.919972 
L 227.616459 302.03375 
L 244.703541 302.15316 
L 261.790622 302.272482 
L 278.877703 302.385022 
L 295.964785 302.48245 
L 313.051866 302.553543 
L 330.138947 302.582625 
L 347.226029 302.547924 
L 364.31311 302.420187 
L 381.400191 302.164633 
L 398.487273 301.780938 
" clip-path="url(#pc9194c4fc3)" style="fill: none; stroke: #2ca02c; stroke-width: 1.5; stroke-linecap: square"/>
   </g>
   <g id="line2d_108">
    <path d="M 73.832727 300.796736 
L 90.919809 300.835326 
L 108.00689 300.888027 
L 125.093971 300.950238 
L 142.181053 301.017045 
L 159.268134 301.084082 
L 176.355215 301.148057 
L 193.442297 301.206904 
L 210.529378 301.259642 
L 227.616459 301.306051 
L 244.703541 301.346267 
L 261.790622 301.38037 
L 278.877703 301.407974 
L 295.964785 301.427834 
L 313.051866 301.437454 
L 330.138947 301.432668 
L 347.226029 301.407171 
L 364.31311 301.351995 
L 381.400191 301.255229 
L 398.487273 301.106881 
" clip-path="url(#pc9194c4fc3)" style="fill: none; stroke: #d62728; stroke-width: 1.5; stroke-linecap: square"/>
   </g>
   <g id="line2d_109">
    <path d="M 73.832727 300.343564 
L 90.919809 300.357308 
L 108.00689 300.379432 
L 125.093971 300.409619 
L 142.181053 300.447115 
L 159.268134 300.490516 
L 176.355215 300.538041 
L 193.442297 300.58781 
L 210.529378 300.63807 
L 227.616459 300.687315 
L 244.703541 300.73432 
L 261.790622 300.778098 
L 278.877703 300.817772 
L 295.964785 300.85241 
L 313.051866 300.880804 
L 330.138947 300.901217 
L 347.226029 300.911089 
L 364.31311 300.906713 
L 381.400191 300.882953 
L 398.487273 300.835032 
" clip-path="url(#pc9194c4fc3)" style="fill: none; stroke: #9467bd; stroke-width: 1.5; stroke-linecap: square"/>
   </g>
   <g id="line2d_110">
    <path d="M 73.832727 297.539627 
L 90.919809 297.553277 
L 108.00689 297.575266 
L 125.093971 297.605242 
L 142.181053 297.642459 
L 159.268134 297.685537 
L 176.355215 297.732722 
L 193.442297 297.782163 
L 210.529378 297.832123 
L 227.616459 297.881106 
L 244.703541 297.927893 
L 261.790622 297.971495 
L 278.877703 298.01104 
L 295.964785 298.045606 
L 313.051866 298.074013 
L 330.138947 298.094574 
L 347.226029 298.104812 
L 364.31311 298.101145 
L 381.400191 298.078619 
L 398.487273 298.032924 
" clip-path="url(#pc9194c4fc3)" style="fill: none; stroke: #8c564b; stroke-width: 1.5; stroke-linecap: square"/>
   </g>
   <g id="line2d_111">
    <path d="M 73.832727 297.3113 
L 90.919809 297.324938 
L 108.00689 297.346971 
L 125.093971 297.377013 
L 142.181053 297.414315 
L 159.268134 297.457501 
L 176.355215 297.50482 
L 193.442297 297.554422 
L 210.529378 297.604573 
L 227.616459 297.653777 
L 244.703541 297.700815 
L 261.790622 297.744698 
L 278.877703 297.784552 
L 295.964785 297.819457 
L 313.051866 297.848231 
L 330.138947 297.869189 
L 347.226029 297.879856 
L 364.31311 297.876652 
L 381.400191 297.854639 
L 398.487273 297.809846 
" clip-path="url(#pc9194c4fc3)" style="fill: none; stroke: #e377c2; stroke-width: 1.5; stroke-linecap: square"/>
   </g>
   <g id="line2d_112">
    <path d="M 73.832727 297.305855 
L 90.919809 297.31946 
L 108.00689 297.341492 
L 125.093971 297.371534 
L 142.181053 297.408835 
L 159.268134 297.452019 
L 176.355215 297.499337 
L 193.442297 297.548941 
L 210.529378 297.599096 
L 227.616459 297.648307 
L 244.703541 297.695354 
L 261.790622 297.739248 
L 278.877703 297.779115 
L 295.964785 297.814031 
L 313.051866 297.842816 
L 330.138947 297.86378 
L 347.226029 297.874448 
L 364.31311 297.871237 
L 381.400191 297.849215 
L 398.487273 297.804761 
" clip-path="url(#pc9194c4fc3)" style="fill: none; stroke: #7f7f7f; stroke-width: 1.5; stroke-linecap: square"/>
   </g>
   <g id="line2d_113">
    <path d="M 73.832727 284.694715 
L 90.919809 285.079857 
L 108.00689 285.427511 
L 125.093971 285.744006 
L 142.181053 286.034124 
L 159.268134 286.30091 
L 176.355215 286.546213 
L 193.442297 286.771134 
L 210.529378 286.976372 
L 227.616459 287.162439 
L 244.703541 287.32977 
L 261.790622 287.478734 
L 278.877703 287.609569 
L 295.964785 287.722262 
L 313.051866 287.816372 
L 330.138947 287.890817 
L 347.226029 287.94362 
L 364.31311 287.971622 
L 381.400191 287.970308 
L 398.487273 287.93661 
" clip-path="url(#pc9194c4fc3)" style="fill: none; stroke: #bcbd22; stroke-width: 1.5; stroke-linecap: square"/>
   </g>
   <g id="line2d_114">
    <path d="M 73.832727 268.626325 
L 90.919809 269.70629 
L 108.00689 270.653034 
L 125.093971 271.486136 
L 142.181053 272.223087 
L 159.268134 272.877538 
L 176.355215 273.460005 
L 193.442297 273.978638 
L 210.529378 274.439856 
L 227.616459 274.848822 
L 244.703541 275.20975 
L 261.790622 275.52608 
L 278.877703 275.800548 
L 295.964785 276.035163 
L 313.051866 276.23112 
L 330.138947 276.388652 
L 347.226029 276.506835 
L 364.31311 276.583349 
L 381.400191 276.61438 
L 398.487273 276.597401 
" clip-path="url(#pc9194c4fc3)" style="fill: none; stroke: #17becf; stroke-width: 1.5; stroke-linecap: square"/>
   </g>
   <g id="line2d_115">
    <path d="M 73.832727 267.437978 
L 90.919809 267.748036 
L 108.00689 268.091715 
L 125.093971 268.448624 
L 142.181053 268.806594 
L 159.268134 269.157339 
L 176.355215 269.49498 
L 193.442297 269.815287 
L 210.529378 270.115244 
L 227.616459 270.392749 
L 244.703541 270.646386 
L 261.790622 270.875201 
L 278.877703 271.078485 
L 295.964785 271.255539 
L 313.051866 271.405439 
L 330.138947 271.526768 
L 347.226029 271.617346 
L 364.31311 271.673931 
L 381.400191 271.6921 
L 398.487273 271.668985 
" clip-path="url(#pc9194c4fc3)" style="fill: none; stroke: #1f77b4; stroke-width: 1.5; stroke-linecap: square"/>
   </g>
   <g id="line2d_116">
    <path d="M 73.832727 267.190264 
L 90.919809 267.207157 
L 108.00689 267.282799 
L 125.093971 267.397895 
L 142.181053 267.539257 
L 159.268134 267.697034 
L 176.355215 267.863557 
L 193.442297 268.032761 
L 210.529378 268.199853 
L 227.616459 268.361074 
L 244.703541 268.513493 
L 261.790622 268.654803 
L 278.877703 268.783099 
L 295.964785 268.896648 
L 313.051866 268.99364 
L 330.138947 269.071924 
L 347.226029 269.128724 
L 364.31311 269.160342 
L 381.400191 269.162043 
L 398.487273 269.130789 
" clip-path="url(#pc9194c4fc3)" style="fill: none; stroke: #ff7f0e; stroke-width: 1.5; stroke-linecap: square"/>
   </g>
   <g id="line2d_117">
    <path d="M 73.832727 267.065335 
L 90.919809 266.952789 
L 108.00689 266.902945 
L 125.093971 266.899034 
L 142.181053 266.92862 
L 159.268134 266.982266 
L 176.355215 267.052498 
L 193.442297 267.133293 
L 210.529378 267.219792 
L 227.616459 267.308103 
L 244.703541 267.395116 
L 261.790622 267.478321 
L 278.877703 267.555598 
L 295.964785 267.625006 
L 313.051866 267.684536 
L 330.138947 267.731862 
L 347.226029 267.764053 
L 364.31311 267.777294 
L 381.400191 267.766771 
L 398.487273 267.729428 
" clip-path="url(#pc9194c4fc3)" style="fill: none; stroke: #2ca02c; stroke-width: 1.5; stroke-linecap: square"/>
   </g>
   <g id="patch_25">
    <path d="M 57.6 307.584 
L 57.6 261.702621 
" style="fill: none; stroke: #000000; stroke-width: 0.8; stroke-linejoin: miter; stroke-linecap: square"/>
   </g>
   <g id="patch_26">
    <path d="M 414.72 307.584 
L 414.72 261.702621 
" style="fill: none; stroke: #000000; stroke-width: 0.8; stroke-linejoin: miter; stroke-linecap: square"/>
   </g>
   <g id="patch_27">
    <path d="M 57.6 307.584 
L 414.72 307.584 
" style="fill: none; stroke: #000000; stroke-width: 0.8; stroke-linejoin: miter; stroke-linecap: square"/>
   </g>
   <g id="patch_28">
    <path d="M 57.6 261.702621 
L 414.72 261.702621 
" style="fill: none; stroke: #000000; stroke-width: 0.8; stroke-linejoin: miter; stroke-linecap: square"/>
   </g>
   <g id="text_28">
    <!-- yC - Container 1 -->
    <g transform="translate(187.395938 258.702621)scale(0.12 -0.12)">
     <use xlink:href="#DejaVuSans-79"/>
     <use xlink:href="#DejaVuSans-43" x="59.179688"/>
     <use xlink:href="#DejaVuSans-20" x="129.003906"/>
     <use xlink:href="#DejaVuSans-2d" x="160.791016"/>
     <use xlink:href="#DejaVuSans-20" x="196.875"/>
     <use xlink:href="#DejaVuSans-43" x="228.662109"/>
     <use xlink:href="#DejaVuSans-6f" x="298.486328"/>
     <use xlink:href="#DejaVuSans-6e" x="359.667969"/>
     <use xlink:href="#DejaVuSans-74" x="423.046875"/>
     <use xlink:href="#DejaVuSans-61" x="462.255859"/>
     <use xlink:href="#DejaVuSans-69" x="523.535156"/>
     <use xlink:href="#DejaVuSans-6e" x="551.318359"/>
     <use xlink:href="#DejaVuSans-65" x="614.697266"/>
     <use xlink:href="#DejaVuSans-72" x="676.220703"/>
     <use xlink:href="#DejaVuSans-20" x="717.333984"/>
     <use xlink:href="#DejaVuSans-31" x="749.121094"/>
    </g>
   </g>
  </g>
  <g id="legend_1">
   <g id="patch_29">
    <path d="M 372.146875 269.707812 
L 457.8 269.707812 
Q 459.8 269.707812 459.8 267.707812 
L 459.8 77.892187 
Q 459.8 75.892187 457.8 75.892187 
L 372.146875 75.892187 
Q 370.146875 75.892187 370.146875 77.892187 
L 370.146875 267.707812 
Q 370.146875 269.707812 372.146875 269.707812 
z
" style="fill: #ffffff; opacity: 0.8; stroke: #cccccc; stroke-linejoin: miter"/>
   </g>
   <g id="line2d_118">
    <path d="M 374.146875 83.990625 
L 384.146875 83.990625 
L 394.146875 83.990625 
" style="fill: none; stroke: #1f77b4; stroke-width: 1.5; stroke-linecap: square"/>
   </g>
   <g id="text_29">
    <!-- t=0.0000 -->
    <g transform="translate(402.146875 87.490625)scale(0.1 -0.1)">
     <defs>
      <path id="DejaVuSans-3d" d="M 678 2906 
L 4684 2906 
L 4684 2381 
L 678 2381 
L 678 2906 
z
M 678 1631 
L 4684 1631 
L 4684 1100 
L 678 1100 
L 678 1631 
z
" transform="scale(0.015625)"/>
     </defs>
     <use xlink:href="#DejaVuSans-74"/>
     <use xlink:href="#DejaVuSans-3d" x="39.208984"/>
     <use xlink:href="#DejaVuSans-30" x="122.998047"/>
     <use xlink:href="#DejaVuSans-2e" x="186.621094"/>
     <use xlink:href="#DejaVuSans-30" x="218.408203"/>
     <use xlink:href="#DejaVuSans-30" x="282.03125"/>
     <use xlink:href="#DejaVuSans-30" x="345.654297"/>
     <use xlink:href="#DejaVuSans-30" x="409.277344"/>
    </g>
   </g>
   <g id="line2d_119">
    <path d="M 374.146875 98.66875 
L 384.146875 98.66875 
L 394.146875 98.66875 
" style="fill: none; stroke: #ff7f0e; stroke-width: 1.5; stroke-linecap: square"/>
   </g>
   <g id="text_30">
    <!-- t=8.0000 -->
    <g transform="translate(402.146875 102.16875)scale(0.1 -0.1)">
     <defs>
      <path id="DejaVuSans-38" d="M 2034 2216 
Q 1584 2216 1326 1975 
Q 1069 1734 1069 1313 
Q 1069 891 1326 650 
Q 1584 409 2034 409 
Q 2484 409 2743 651 
Q 3003 894 3003 1313 
Q 3003 1734 2745 1975 
Q 2488 2216 2034 2216 
z
M 1403 2484 
Q 997 2584 770 2862 
Q 544 3141 544 3541 
Q 544 4100 942 4425 
Q 1341 4750 2034 4750 
Q 2731 4750 3128 4425 
Q 3525 4100 3525 3541 
Q 3525 3141 3298 2862 
Q 3072 2584 2669 2484 
Q 3125 2378 3379 2068 
Q 3634 1759 3634 1313 
Q 3634 634 3220 271 
Q 2806 -91 2034 -91 
Q 1263 -91 848 271 
Q 434 634 434 1313 
Q 434 1759 690 2068 
Q 947 2378 1403 2484 
z
M 1172 3481 
Q 1172 3119 1398 2916 
Q 1625 2713 2034 2713 
Q 2441 2713 2670 2916 
Q 2900 3119 2900 3481 
Q 2900 3844 2670 4047 
Q 2441 4250 2034 4250 
Q 1625 4250 1398 4047 
Q 1172 3844 1172 3481 
z
" transform="scale(0.015625)"/>
     </defs>
     <use xlink:href="#DejaVuSans-74"/>
     <use xlink:href="#DejaVuSans-3d" x="39.208984"/>
     <use xlink:href="#DejaVuSans-38" x="122.998047"/>
     <use xlink:href="#DejaVuSans-2e" x="186.621094"/>
     <use xlink:href="#DejaVuSans-30" x="218.408203"/>
     <use xlink:href="#DejaVuSans-30" x="282.03125"/>
     <use xlink:href="#DejaVuSans-30" x="345.654297"/>
     <use xlink:href="#DejaVuSans-30" x="409.277344"/>
    </g>
   </g>
   <g id="line2d_120">
    <path d="M 374.146875 113.346875 
L 384.146875 113.346875 
L 394.146875 113.346875 
" style="fill: none; stroke: #2ca02c; stroke-width: 1.5; stroke-linecap: square"/>
   </g>
   <g id="text_31">
    <!-- t=16.0000 -->
    <g transform="translate(402.146875 116.846875)scale(0.1 -0.1)">
     <defs>
      <path id="DejaVuSans-36" d="M 2113 2584 
Q 1688 2584 1439 2293 
Q 1191 2003 1191 1497 
Q 1191 994 1439 701 
Q 1688 409 2113 409 
Q 2538 409 2786 701 
Q 3034 994 3034 1497 
Q 3034 2003 2786 2293 
Q 2538 2584 2113 2584 
z
M 3366 4563 
L 3366 3988 
Q 3128 4100 2886 4159 
Q 2644 4219 2406 4219 
Q 1781 4219 1451 3797 
Q 1122 3375 1075 2522 
Q 1259 2794 1537 2939 
Q 1816 3084 2150 3084 
Q 2853 3084 3261 2657 
Q 3669 2231 3669 1497 
Q 3669 778 3244 343 
Q 2819 -91 2113 -91 
Q 1303 -91 875 529 
Q 447 1150 447 2328 
Q 447 3434 972 4092 
Q 1497 4750 2381 4750 
Q 2619 4750 2861 4703 
Q 3103 4656 3366 4563 
z
" transform="scale(0.015625)"/>
     </defs>
     <use xlink:href="#DejaVuSans-74"/>
     <use xlink:href="#DejaVuSans-3d" x="39.208984"/>
     <use xlink:href="#DejaVuSans-31" x="122.998047"/>
     <use xlink:href="#DejaVuSans-36" x="186.621094"/>
     <use xlink:href="#DejaVuSans-2e" x="250.244141"/>
     <use xlink:href="#DejaVuSans-30" x="282.03125"/>
     <use xlink:href="#DejaVuSans-30" x="345.654297"/>
     <use xlink:href="#DejaVuSans-30" x="409.277344"/>
     <use xlink:href="#DejaVuSans-30" x="472.900391"/>
    </g>
   </g>
   <g id="line2d_121">
    <path d="M 374.146875 128.025 
L 384.146875 128.025 
L 394.146875 128.025 
" style="fill: none; stroke: #d62728; stroke-width: 1.5; stroke-linecap: square"/>
   </g>
   <g id="text_32">
    <!-- t=24.0000 -->
    <g transform="translate(402.146875 131.525)scale(0.1 -0.1)">
     <use xlink:href="#DejaVuSans-74"/>
     <use xlink:href="#DejaVuSans-3d" x="39.208984"/>
     <use xlink:href="#DejaVuSans-32" x="122.998047"/>
     <use xlink:href="#DejaVuSans-34" x="186.621094"/>
     <use xlink:href="#DejaVuSans-2e" x="250.244141"/>
     <use xlink:href="#DejaVuSans-30" x="282.03125"/>
     <use xlink:href="#DejaVuSans-30" x="345.654297"/>
     <use xlink:href="#DejaVuSans-30" x="409.277344"/>
     <use xlink:href="#DejaVuSans-30" x="472.900391"/>
    </g>
   </g>
   <g id="line2d_122">
    <path d="M 374.146875 142.703125 
L 384.146875 142.703125 
L 394.146875 142.703125 
" style="fill: none; stroke: #9467bd; stroke-width: 1.5; stroke-linecap: square"/>
   </g>
   <g id="text_33">
    <!-- t=32.0000 -->
    <g transform="translate(402.146875 146.203125)scale(0.1 -0.1)">
     <defs>
      <path id="DejaVuSans-33" d="M 2597 2516 
Q 3050 2419 3304 2112 
Q 3559 1806 3559 1356 
Q 3559 666 3084 287 
Q 2609 -91 1734 -91 
Q 1441 -91 1130 -33 
Q 819 25 488 141 
L 488 750 
Q 750 597 1062 519 
Q 1375 441 1716 441 
Q 2309 441 2620 675 
Q 2931 909 2931 1356 
Q 2931 1769 2642 2001 
Q 2353 2234 1838 2234 
L 1294 2234 
L 1294 2753 
L 1863 2753 
Q 2328 2753 2575 2939 
Q 2822 3125 2822 3475 
Q 2822 3834 2567 4026 
Q 2313 4219 1838 4219 
Q 1578 4219 1281 4162 
Q 984 4106 628 3988 
L 628 4550 
Q 988 4650 1302 4700 
Q 1616 4750 1894 4750 
Q 2613 4750 3031 4423 
Q 3450 4097 3450 3541 
Q 3450 3153 3228 2886 
Q 3006 2619 2597 2516 
z
" transform="scale(0.015625)"/>
     </defs>
     <use xlink:href="#DejaVuSans-74"/>
     <use xlink:href="#DejaVuSans-3d" x="39.208984"/>
     <use xlink:href="#DejaVuSans-33" x="122.998047"/>
     <use xlink:href="#DejaVuSans-32" x="186.621094"/>
     <use xlink:href="#DejaVuSans-2e" x="250.244141"/>
     <use xlink:href="#DejaVuSans-30" x="282.03125"/>
     <use xlink:href="#DejaVuSans-30" x="345.654297"/>
     <use xlink:href="#DejaVuSans-30" x="409.277344"/>
     <use xlink:href="#DejaVuSans-30" x="472.900391"/>
    </g>
   </g>
   <g id="line2d_123">
    <path d="M 374.146875 157.38125 
L 384.146875 157.38125 
L 394.146875 157.38125 
" style="fill: none; stroke: #8c564b; stroke-width: 1.5; stroke-linecap: square"/>
   </g>
   <g id="text_34">
    <!-- t=40.0000 -->
    <g transform="translate(402.146875 160.88125)scale(0.1 -0.1)">
     <use xlink:href="#DejaVuSans-74"/>
     <use xlink:href="#DejaVuSans-3d" x="39.208984"/>
     <use xlink:href="#DejaVuSans-34" x="122.998047"/>
     <use xlink:href="#DejaVuSans-30" x="186.621094"/>
     <use xlink:href="#DejaVuSans-2e" x="250.244141"/>
     <use xlink:href="#DejaVuSans-30" x="282.03125"/>
     <use xlink:href="#DejaVuSans-30" x="345.654297"/>
     <use xlink:href="#DejaVuSans-30" x="409.277344"/>
     <use xlink:href="#DejaVuSans-30" x="472.900391"/>
    </g>
   </g>
   <g id="line2d_124">
    <path d="M 374.146875 172.059375 
L 384.146875 172.059375 
L 394.146875 172.059375 
" style="fill: none; stroke: #e377c2; stroke-width: 1.5; stroke-linecap: square"/>
   </g>
   <g id="text_35">
    <!-- t=48.0000 -->
    <g transform="translate(402.146875 175.559375)scale(0.1 -0.1)">
     <use xlink:href="#DejaVuSans-74"/>
     <use xlink:href="#DejaVuSans-3d" x="39.208984"/>
     <use xlink:href="#DejaVuSans-34" x="122.998047"/>
     <use xlink:href="#DejaVuSans-38" x="186.621094"/>
     <use xlink:href="#DejaVuSans-2e" x="250.244141"/>
     <use xlink:href="#DejaVuSans-30" x="282.03125"/>
     <use xlink:href="#DejaVuSans-30" x="345.654297"/>
     <use xlink:href="#DejaVuSans-30" x="409.277344"/>
     <use xlink:href="#DejaVuSans-30" x="472.900391"/>
    </g>
   </g>
   <g id="line2d_125">
    <path d="M 374.146875 186.7375 
L 384.146875 186.7375 
L 394.146875 186.7375 
" style="fill: none; stroke: #7f7f7f; stroke-width: 1.5; stroke-linecap: square"/>
   </g>
   <g id="text_36">
    <!-- t=56.0000 -->
    <g transform="translate(402.146875 190.2375)scale(0.1 -0.1)">
     <use xlink:href="#DejaVuSans-74"/>
     <use xlink:href="#DejaVuSans-3d" x="39.208984"/>
     <use xlink:href="#DejaVuSans-35" x="122.998047"/>
     <use xlink:href="#DejaVuSans-36" x="186.621094"/>
     <use xlink:href="#DejaVuSans-2e" x="250.244141"/>
     <use xlink:href="#DejaVuSans-30" x="282.03125"/>
     <use xlink:href="#DejaVuSans-30" x="345.654297"/>
     <use xlink:href="#DejaVuSans-30" x="409.277344"/>
     <use xlink:href="#DejaVuSans-30" x="472.900391"/>
    </g>
   </g>
   <g id="line2d_126">
    <path d="M 374.146875 201.415625 
L 384.146875 201.415625 
L 394.146875 201.415625 
" style="fill: none; stroke: #bcbd22; stroke-width: 1.5; stroke-linecap: square"/>
   </g>
   <g id="text_37">
    <!-- t=64.0000 -->
    <g transform="translate(402.146875 204.915625)scale(0.1 -0.1)">
     <use xlink:href="#DejaVuSans-74"/>
     <use xlink:href="#DejaVuSans-3d" x="39.208984"/>
     <use xlink:href="#DejaVuSans-36" x="122.998047"/>
     <use xlink:href="#DejaVuSans-34" x="186.621094"/>
     <use xlink:href="#DejaVuSans-2e" x="250.244141"/>
     <use xlink:href="#DejaVuSans-30" x="282.03125"/>
     <use xlink:href="#DejaVuSans-30" x="345.654297"/>
     <use xlink:href="#DejaVuSans-30" x="409.277344"/>
     <use xlink:href="#DejaVuSans-30" x="472.900391"/>
    </g>
   </g>
   <g id="line2d_127">
    <path d="M 374.146875 216.09375 
L 384.146875 216.09375 
L 394.146875 216.09375 
" style="fill: none; stroke: #17becf; stroke-width: 1.5; stroke-linecap: square"/>
   </g>
   <g id="text_38">
    <!-- t=72.0000 -->
    <g transform="translate(402.146875 219.59375)scale(0.1 -0.1)">
     <use xlink:href="#DejaVuSans-74"/>
     <use xlink:href="#DejaVuSans-3d" x="39.208984"/>
     <use xlink:href="#DejaVuSans-37" x="122.998047"/>
     <use xlink:href="#DejaVuSans-32" x="186.621094"/>
     <use xlink:href="#DejaVuSans-2e" x="250.244141"/>
     <use xlink:href="#DejaVuSans-30" x="282.03125"/>
     <use xlink:href="#DejaVuSans-30" x="345.654297"/>
     <use xlink:href="#DejaVuSans-30" x="409.277344"/>
     <use xlink:href="#DejaVuSans-30" x="472.900391"/>
    </g>
   </g>
   <g id="line2d_128">
    <path d="M 374.146875 230.771875 
L 384.146875 230.771875 
L 394.146875 230.771875 
" style="fill: none; stroke: #1f77b4; stroke-width: 1.5; stroke-linecap: square"/>
   </g>
   <g id="text_39">
    <!-- t=80.0000 -->
    <g transform="translate(402.146875 234.271875)scale(0.1 -0.1)">
     <use xlink:href="#DejaVuSans-74"/>
     <use xlink:href="#DejaVuSans-3d" x="39.208984"/>
     <use xlink:href="#DejaVuSans-38" x="122.998047"/>
     <use xlink:href="#DejaVuSans-30" x="186.621094"/>
     <use xlink:href="#DejaVuSans-2e" x="250.244141"/>
     <use xlink:href="#DejaVuSans-30" x="282.03125"/>
     <use xlink:href="#DejaVuSans-30" x="345.654297"/>
     <use xlink:href="#DejaVuSans-30" x="409.277344"/>
     <use xlink:href="#DejaVuSans-30" x="472.900391"/>
    </g>
   </g>
   <g id="line2d_129">
    <path d="M 374.146875 245.45 
L 384.146875 245.45 
L 394.146875 245.45 
" style="fill: none; stroke: #ff7f0e; stroke-width: 1.5; stroke-linecap: square"/>
   </g>
   <g id="text_40">
    <!-- t=88.0000 -->
    <g transform="translate(402.146875 248.95)scale(0.1 -0.1)">
     <use xlink:href="#DejaVuSans-74"/>
     <use xlink:href="#DejaVuSans-3d" x="39.208984"/>
     <use xlink:href="#DejaVuSans-38" x="122.998047"/>
     <use xlink:href="#DejaVuSans-38" x="186.621094"/>
     <use xlink:href="#DejaVuSans-2e" x="250.244141"/>
     <use xlink:href="#DejaVuSans-30" x="282.03125"/>
     <use xlink:href="#DejaVuSans-30" x="345.654297"/>
     <use xlink:href="#DejaVuSans-30" x="409.277344"/>
     <use xlink:href="#DejaVuSans-30" x="472.900391"/>
    </g>
   </g>
   <g id="line2d_130">
    <path d="M 374.146875 260.128125 
L 384.146875 260.128125 
L 394.146875 260.128125 
" style="fill: none; stroke: #2ca02c; stroke-width: 1.5; stroke-linecap: square"/>
   </g>
   <g id="text_41">
    <!-- t=96.0000 -->
    <g transform="translate(402.146875 263.628125)scale(0.1 -0.1)">
     <use xlink:href="#DejaVuSans-74"/>
     <use xlink:href="#DejaVuSans-3d" x="39.208984"/>
     <use xlink:href="#DejaVuSans-39" x="122.998047"/>
     <use xlink:href="#DejaVuSans-36" x="186.621094"/>
     <use xlink:href="#DejaVuSans-2e" x="250.244141"/>
     <use xlink:href="#DejaVuSans-30" x="282.03125"/>
     <use xlink:href="#DejaVuSans-30" x="345.654297"/>
     <use xlink:href="#DejaVuSans-30" x="409.277344"/>
     <use xlink:href="#DejaVuSans-30" x="472.900391"/>
    </g>
   </g>
  </g>
 </g>
 <defs>
  <clipPath id="p5a3ec160f6">
   <rect x="57.6" y="41.472" width="357.12" height="45.881379"/>
  </clipPath>
  <clipPath id="p44ec542bdf">
   <rect x="57.6" y="96.529655" width="357.12" height="45.881379"/>
  </clipPath>
  <clipPath id="pfb4820316e">
   <rect x="57.6" y="151.58731" width="357.12" height="45.881379"/>
  </clipPath>
  <clipPath id="p890f5ac4b6">
   <rect x="57.6" y="206.644966" width="357.12" height="45.881379"/>
  </clipPath>
  <clipPath id="pc9194c4fc3">
   <rect x="57.6" y="261.702621" width="357.12" height="45.881379"/>
  </clipPath>
 </defs>
</svg>
