<?xml version="1.0" encoding="utf-8" standalone="no"?>
<!DOCTYPE svg PUBLIC "-//W3C//DTD SVG 1.1//EN"
  "http://www.w3.org/Graphics/SVG/1.1/DTD/svg11.dtd">
<svg xmlns:xlink="http://www.w3.org/1999/xlink" width="460.8pt" height="345.6pt" viewBox="0 0 460.8 345.6" xmlns="http://www.w3.org/2000/svg" version="1.1">
 <metadata>
  <rdf:RDF xmlns:dc="http://purl.org/dc/elements/1.1/" xmlns:cc="http://creativecommons.org/ns#" xmlns:rdf="http://www.w3.org/1999/02/22-rdf-syntax-ns#">
   <cc:Work>
    <dc:type rdf:resource="http://purl.org/dc/dcmitype/StillImage"/>
    <dc:date>2022-07-10T00:04:46.474297</dc:date>
    <dc:format>image/svg+xml</dc:format>
    <dc:creator>
     <cc:Agent>
      <dc:title>Matplotlib v3.5.2, https://matplotlib.org/</dc:title>
     </cc:Agent>
    </dc:creator>
   </cc:Work>
  </rdf:RDF>
 </metadata>
 <defs>
  <style type="text/css">*{stroke-linejoin: round; stroke-linecap: butt}</style>
 </defs>
 <g id="figure_1">
  <g id="patch_1">
   <path d="M 0 345.6 
L 460.8 345.6 
L 460.8 0 
L 0 0 
z
" style="fill: #ffffff"/>
  </g>
  <g id="axes_1">
   <g id="patch_2">
    <path d="M 57.6 87.353379 
L 414.72 87.353379 
L 414.72 41.472 
L 57.6 41.472 
z
" style="fill: #ffffff"/>
   </g>
   <g id="axes_2">
    <g id="patch_3">
     <path d="M 414.72 87.353379 
L 414.72 87.353379 
L 414.72 41.472 
L 414.72 41.472 
z
" style="fill: #ffffff"/>
    </g>
    <g id="matplotlib.axis_1"/>
    <g id="matplotlib.axis_2">
     <g id="ytick_1">
      <g id="line2d_1">
       <defs>
        <path id="m27ff34d2e9" d="M 0 0 
L 3.5 0 
" style="stroke: #000000; stroke-width: 0.8"/>
       </defs>
       <g>
        <use xlink:href="#m27ff34d2e9" x="414.72" y="73.421262" style="stroke: #000000; stroke-width: 0.8"/>
       </g>
      </g>
      <g id="text_1">
       <!-- −2.5 -->
       <g transform="translate(421.72 77.220481)scale(0.1 -0.1)">
        <defs>
         <path id="DejaVuSans-2212" d="M 678 2272 
L 4684 2272 
L 4684 1741 
L 678 1741 
L 678 2272 
z
" transform="scale(0.015625)"/>
         <path id="DejaVuSans-32" d="M 1228 531 
L 3431 531 
L 3431 0 
L 469 0 
L 469 531 
Q 828 903 1448 1529 
Q 2069 2156 2228 2338 
Q 2531 2678 2651 2914 
Q 2772 3150 2772 3378 
Q 2772 3750 2511 3984 
Q 2250 4219 1831 4219 
Q 1534 4219 1204 4116 
Q 875 4013 500 3803 
L 500 4441 
Q 881 4594 1212 4672 
Q 1544 4750 1819 4750 
Q 2544 4750 2975 4387 
Q 3406 4025 3406 3419 
Q 3406 3131 3298 2873 
Q 3191 2616 2906 2266 
Q 2828 2175 2409 1742 
Q 1991 1309 1228 531 
z
" transform="scale(0.015625)"/>
         <path id="DejaVuSans-2e" d="M 684 794 
L 1344 794 
L 1344 0 
L 684 0 
L 684 794 
z
" transform="scale(0.015625)"/>
         <path id="DejaVuSans-35" d="M 691 4666 
L 3169 4666 
L 3169 4134 
L 1269 4134 
L 1269 2991 
Q 1406 3038 1543 3061 
Q 1681 3084 1819 3084 
Q 2600 3084 3056 2656 
Q 3513 2228 3513 1497 
Q 3513 744 3044 326 
Q 2575 -91 1722 -91 
Q 1428 -91 1123 -41 
Q 819 9 494 109 
L 494 744 
Q 775 591 1075 516 
Q 1375 441 1709 441 
Q 2250 441 2565 725 
Q 2881 1009 2881 1497 
Q 2881 1984 2565 2268 
Q 2250 2553 1709 2553 
Q 1456 2553 1204 2497 
Q 953 2441 691 2322 
L 691 4666 
z
" transform="scale(0.015625)"/>
        </defs>
        <use xlink:href="#DejaVuSans-2212"/>
        <use xlink:href="#DejaVuSans-32" x="83.789062"/>
        <use xlink:href="#DejaVuSans-2e" x="147.412109"/>
        <use xlink:href="#DejaVuSans-35" x="179.199219"/>
       </g>
      </g>
     </g>
     <g id="ytick_2">
      <g id="line2d_2">
       <g>
        <use xlink:href="#m27ff34d2e9" x="414.72" y="52.111533" style="stroke: #000000; stroke-width: 0.8"/>
       </g>
      </g>
      <g id="text_2">
       <!-- 0.0 -->
       <g transform="translate(421.72 55.910751)scale(0.1 -0.1)">
        <defs>
         <path id="DejaVuSans-30" d="M 2034 4250 
Q 1547 4250 1301 3770 
Q 1056 3291 1056 2328 
Q 1056 1369 1301 889 
Q 1547 409 2034 409 
Q 2525 409 2770 889 
Q 3016 1369 3016 2328 
Q 3016 3291 2770 3770 
Q 2525 4250 2034 4250 
z
M 2034 4750 
Q 2819 4750 3233 4129 
Q 3647 3509 3647 2328 
Q 3647 1150 3233 529 
Q 2819 -91 2034 -91 
Q 1250 -91 836 529 
Q 422 1150 422 2328 
Q 422 3509 836 4129 
Q 1250 4750 2034 4750 
z
" transform="scale(0.015625)"/>
        </defs>
        <use xlink:href="#DejaVuSans-30"/>
        <use xlink:href="#DejaVuSans-2e" x="63.623047"/>
        <use xlink:href="#DejaVuSans-30" x="95.410156"/>
       </g>
      </g>
     </g>
     <g id="text_3">
      <!-- vel [m/s] -->
      <g transform="translate(457.60125 86.48769)rotate(-90)scale(0.1 -0.1)">
       <defs>
        <path id="DejaVuSans-76" d="M 191 3500 
L 800 3500 
L 1894 563 
L 2988 3500 
L 3597 3500 
L 2284 0 
L 1503 0 
L 191 3500 
z
" transform="scale(0.015625)"/>
        <path id="DejaVuSans-65" d="M 3597 1894 
L 3597 1613 
L 953 1613 
Q 991 1019 1311 708 
Q 1631 397 2203 397 
Q 2534 397 2845 478 
Q 3156 559 3463 722 
L 3463 178 
Q 3153 47 2828 -22 
Q 2503 -91 2169 -91 
Q 1331 -91 842 396 
Q 353 884 353 1716 
Q 353 2575 817 3079 
Q 1281 3584 2069 3584 
Q 2775 3584 3186 3129 
Q 3597 2675 3597 1894 
z
M 3022 2063 
Q 3016 2534 2758 2815 
Q 2500 3097 2075 3097 
Q 1594 3097 1305 2825 
Q 1016 2553 972 2059 
L 3022 2063 
z
" transform="scale(0.015625)"/>
        <path id="DejaVuSans-6c" d="M 603 4863 
L 1178 4863 
L 1178 0 
L 603 0 
L 603 4863 
z
" transform="scale(0.015625)"/>
        <path id="DejaVuSans-20" transform="scale(0.015625)"/>
        <path id="DejaVuSans-5b" d="M 550 4863 
L 1875 4863 
L 1875 4416 
L 1125 4416 
L 1125 -397 
L 1875 -397 
L 1875 -844 
L 550 -844 
L 550 4863 
z
" transform="scale(0.015625)"/>
        <path id="DejaVuSans-6d" d="M 3328 2828 
Q 3544 3216 3844 3400 
Q 4144 3584 4550 3584 
Q 5097 3584 5394 3201 
Q 5691 2819 5691 2113 
L 5691 0 
L 5113 0 
L 5113 2094 
Q 5113 2597 4934 2840 
Q 4756 3084 4391 3084 
Q 3944 3084 3684 2787 
Q 3425 2491 3425 1978 
L 3425 0 
L 2847 0 
L 2847 2094 
Q 2847 2600 2669 2842 
Q 2491 3084 2119 3084 
Q 1678 3084 1418 2786 
Q 1159 2488 1159 1978 
L 1159 0 
L 581 0 
L 581 3500 
L 1159 3500 
L 1159 2956 
Q 1356 3278 1631 3431 
Q 1906 3584 2284 3584 
Q 2666 3584 2933 3390 
Q 3200 3197 3328 2828 
z
" transform="scale(0.015625)"/>
        <path id="DejaVuSans-2f" d="M 1625 4666 
L 2156 4666 
L 531 -594 
L 0 -594 
L 1625 4666 
z
" transform="scale(0.015625)"/>
        <path id="DejaVuSans-73" d="M 2834 3397 
L 2834 2853 
Q 2591 2978 2328 3040 
Q 2066 3103 1784 3103 
Q 1356 3103 1142 2972 
Q 928 2841 928 2578 
Q 928 2378 1081 2264 
Q 1234 2150 1697 2047 
L 1894 2003 
Q 2506 1872 2764 1633 
Q 3022 1394 3022 966 
Q 3022 478 2636 193 
Q 2250 -91 1575 -91 
Q 1294 -91 989 -36 
Q 684 19 347 128 
L 347 722 
Q 666 556 975 473 
Q 1284 391 1588 391 
Q 1994 391 2212 530 
Q 2431 669 2431 922 
Q 2431 1156 2273 1281 
Q 2116 1406 1581 1522 
L 1381 1569 
Q 847 1681 609 1914 
Q 372 2147 372 2553 
Q 372 3047 722 3315 
Q 1072 3584 1716 3584 
Q 2034 3584 2315 3537 
Q 2597 3491 2834 3397 
z
" transform="scale(0.015625)"/>
        <path id="DejaVuSans-5d" d="M 1947 4863 
L 1947 -844 
L 622 -844 
L 622 -397 
L 1369 -397 
L 1369 4416 
L 622 4416 
L 622 4863 
L 1947 4863 
z
" transform="scale(0.015625)"/>
       </defs>
       <use xlink:href="#DejaVuSans-76"/>
       <use xlink:href="#DejaVuSans-65" x="59.179688"/>
       <use xlink:href="#DejaVuSans-6c" x="120.703125"/>
       <use xlink:href="#DejaVuSans-20" x="148.486328"/>
       <use xlink:href="#DejaVuSans-5b" x="180.273438"/>
       <use xlink:href="#DejaVuSans-6d" x="219.287109"/>
       <use xlink:href="#DejaVuSans-2f" x="316.699219"/>
       <use xlink:href="#DejaVuSans-73" x="350.390625"/>
       <use xlink:href="#DejaVuSans-5d" x="402.490234"/>
      </g>
     </g>
    </g>
    <g id="patch_4">
     <path d="M 414.72 87.353379 
L 414.72 41.472 
" style="fill: none; stroke: #000000; stroke-width: 0.8; stroke-linejoin: miter; stroke-linecap: square"/>
    </g>
   </g>
   <g id="matplotlib.axis_3">
    <g id="xtick_1">
     <g id="line2d_3">
      <defs>
       <path id="m029b3b661e" d="M 0 0 
L 0 3.5 
" style="stroke: #000000; stroke-width: 0.8"/>
      </defs>
      <g>
       <use xlink:href="#m029b3b661e" x="73.832727" y="87.353379" style="stroke: #000000; stroke-width: 0.8"/>
      </g>
     </g>
    </g>
    <g id="xtick_2">
     <g id="line2d_4">
      <g>
       <use xlink:href="#m029b3b661e" x="116.550431" y="87.353379" style="stroke: #000000; stroke-width: 0.8"/>
      </g>
     </g>
    </g>
    <g id="xtick_3">
     <g id="line2d_5">
      <g>
       <use xlink:href="#m029b3b661e" x="159.268134" y="87.353379" style="stroke: #000000; stroke-width: 0.8"/>
      </g>
     </g>
    </g>
    <g id="xtick_4">
     <g id="line2d_6">
      <g>
       <use xlink:href="#m029b3b661e" x="201.985837" y="87.353379" style="stroke: #000000; stroke-width: 0.8"/>
      </g>
     </g>
    </g>
    <g id="xtick_5">
     <g id="line2d_7">
      <g>
       <use xlink:href="#m029b3b661e" x="244.703541" y="87.353379" style="stroke: #000000; stroke-width: 0.8"/>
      </g>
     </g>
    </g>
    <g id="xtick_6">
     <g id="line2d_8">
      <g>
       <use xlink:href="#m029b3b661e" x="287.421244" y="87.353379" style="stroke: #000000; stroke-width: 0.8"/>
      </g>
     </g>
    </g>
    <g id="xtick_7">
     <g id="line2d_9">
      <g>
       <use xlink:href="#m029b3b661e" x="330.138947" y="87.353379" style="stroke: #000000; stroke-width: 0.8"/>
      </g>
     </g>
    </g>
    <g id="xtick_8">
     <g id="line2d_10">
      <g>
       <use xlink:href="#m029b3b661e" x="372.856651" y="87.353379" style="stroke: #000000; stroke-width: 0.8"/>
      </g>
     </g>
    </g>
   </g>
   <g id="matplotlib.axis_4">
    <g id="ytick_3">
     <g id="line2d_11">
      <defs>
       <path id="mfdabaa9900" d="M 0 0 
L -3.5 0 
" style="stroke: #000000; stroke-width: 0.8"/>
      </defs>
      <g>
       <use xlink:href="#mfdabaa9900" x="57.6" y="73.421262" style="stroke: #000000; stroke-width: 0.8"/>
      </g>
     </g>
     <g id="text_4">
      <!-- −2.5 -->
      <g transform="translate(26.317187 77.220481)scale(0.1 -0.1)">
       <use xlink:href="#DejaVuSans-2212"/>
       <use xlink:href="#DejaVuSans-32" x="83.789062"/>
       <use xlink:href="#DejaVuSans-2e" x="147.412109"/>
       <use xlink:href="#DejaVuSans-35" x="179.199219"/>
      </g>
     </g>
    </g>
    <g id="ytick_4">
     <g id="line2d_12">
      <g>
       <use xlink:href="#mfdabaa9900" x="57.6" y="52.111533" style="stroke: #000000; stroke-width: 0.8"/>
      </g>
     </g>
     <g id="text_5">
      <!-- 0.0 -->
      <g transform="translate(34.696875 55.910751)scale(0.1 -0.1)">
       <use xlink:href="#DejaVuSans-30"/>
       <use xlink:href="#DejaVuSans-2e" x="63.623047"/>
       <use xlink:href="#DejaVuSans-30" x="95.410156"/>
      </g>
     </g>
    </g>
    <g id="text_6">
     <!-- vel [normalized] -->
     <g transform="translate(20.2375 105.111908)rotate(-90)scale(0.1 -0.1)">
      <defs>
       <path id="DejaVuSans-6e" d="M 3513 2113 
L 3513 0 
L 2938 0 
L 2938 2094 
Q 2938 2591 2744 2837 
Q 2550 3084 2163 3084 
Q 1697 3084 1428 2787 
Q 1159 2491 1159 1978 
L 1159 0 
L 581 0 
L 581 3500 
L 1159 3500 
L 1159 2956 
Q 1366 3272 1645 3428 
Q 1925 3584 2291 3584 
Q 2894 3584 3203 3211 
Q 3513 2838 3513 2113 
z
" transform="scale(0.015625)"/>
       <path id="DejaVuSans-6f" d="M 1959 3097 
Q 1497 3097 1228 2736 
Q 959 2375 959 1747 
Q 959 1119 1226 758 
Q 1494 397 1959 397 
Q 2419 397 2687 759 
Q 2956 1122 2956 1747 
Q 2956 2369 2687 2733 
Q 2419 3097 1959 3097 
z
M 1959 3584 
Q 2709 3584 3137 3096 
Q 3566 2609 3566 1747 
Q 3566 888 3137 398 
Q 2709 -91 1959 -91 
Q 1206 -91 779 398 
Q 353 888 353 1747 
Q 353 2609 779 3096 
Q 1206 3584 1959 3584 
z
" transform="scale(0.015625)"/>
       <path id="DejaVuSans-72" d="M 2631 2963 
Q 2534 3019 2420 3045 
Q 2306 3072 2169 3072 
Q 1681 3072 1420 2755 
Q 1159 2438 1159 1844 
L 1159 0 
L 581 0 
L 581 3500 
L 1159 3500 
L 1159 2956 
Q 1341 3275 1631 3429 
Q 1922 3584 2338 3584 
Q 2397 3584 2469 3576 
Q 2541 3569 2628 3553 
L 2631 2963 
z
" transform="scale(0.015625)"/>
       <path id="DejaVuSans-61" d="M 2194 1759 
Q 1497 1759 1228 1600 
Q 959 1441 959 1056 
Q 959 750 1161 570 
Q 1363 391 1709 391 
Q 2188 391 2477 730 
Q 2766 1069 2766 1631 
L 2766 1759 
L 2194 1759 
z
M 3341 1997 
L 3341 0 
L 2766 0 
L 2766 531 
Q 2569 213 2275 61 
Q 1981 -91 1556 -91 
Q 1019 -91 701 211 
Q 384 513 384 1019 
Q 384 1609 779 1909 
Q 1175 2209 1959 2209 
L 2766 2209 
L 2766 2266 
Q 2766 2663 2505 2880 
Q 2244 3097 1772 3097 
Q 1472 3097 1187 3025 
Q 903 2953 641 2809 
L 641 3341 
Q 956 3463 1253 3523 
Q 1550 3584 1831 3584 
Q 2591 3584 2966 3190 
Q 3341 2797 3341 1997 
z
" transform="scale(0.015625)"/>
       <path id="DejaVuSans-69" d="M 603 3500 
L 1178 3500 
L 1178 0 
L 603 0 
L 603 3500 
z
M 603 4863 
L 1178 4863 
L 1178 4134 
L 603 4134 
L 603 4863 
z
" transform="scale(0.015625)"/>
       <path id="DejaVuSans-7a" d="M 353 3500 
L 3084 3500 
L 3084 2975 
L 922 459 
L 3084 459 
L 3084 0 
L 275 0 
L 275 525 
L 2438 3041 
L 353 3041 
L 353 3500 
z
" transform="scale(0.015625)"/>
       <path id="DejaVuSans-64" d="M 2906 2969 
L 2906 4863 
L 3481 4863 
L 3481 0 
L 2906 0 
L 2906 525 
Q 2725 213 2448 61 
Q 2172 -91 1784 -91 
Q 1150 -91 751 415 
Q 353 922 353 1747 
Q 353 2572 751 3078 
Q 1150 3584 1784 3584 
Q 2172 3584 2448 3432 
Q 2725 3281 2906 2969 
z
M 947 1747 
Q 947 1113 1208 752 
Q 1469 391 1925 391 
Q 2381 391 2643 752 
Q 2906 1113 2906 1747 
Q 2906 2381 2643 2742 
Q 2381 3103 1925 3103 
Q 1469 3103 1208 2742 
Q 947 2381 947 1747 
z
" transform="scale(0.015625)"/>
      </defs>
      <use xlink:href="#DejaVuSans-76"/>
      <use xlink:href="#DejaVuSans-65" x="59.179688"/>
      <use xlink:href="#DejaVuSans-6c" x="120.703125"/>
      <use xlink:href="#DejaVuSans-20" x="148.486328"/>
      <use xlink:href="#DejaVuSans-5b" x="180.273438"/>
      <use xlink:href="#DejaVuSans-6e" x="219.287109"/>
      <use xlink:href="#DejaVuSans-6f" x="282.666016"/>
      <use xlink:href="#DejaVuSans-72" x="343.847656"/>
      <use xlink:href="#DejaVuSans-6d" x="383.210938"/>
      <use xlink:href="#DejaVuSans-61" x="480.623047"/>
      <use xlink:href="#DejaVuSans-6c" x="541.902344"/>
      <use xlink:href="#DejaVuSans-69" x="569.685547"/>
      <use xlink:href="#DejaVuSans-7a" x="597.46875"/>
      <use xlink:href="#DejaVuSans-65" x="649.958984"/>
      <use xlink:href="#DejaVuSans-64" x="711.482422"/>
      <use xlink:href="#DejaVuSans-5d" x="774.958984"/>
     </g>
    </g>
   </g>
   <g id="line2d_13">
    <path d="M 73.832727 55.020599 
L 90.919809 54.969806 
L 108.00689 54.899778 
L 125.093971 54.812214 
L 142.181053 54.708764 
L 159.268134 54.591001 
L 176.355215 54.460415 
L 193.442297 54.318401 
L 210.529378 54.166255 
L 227.616459 54.005181 
L 244.703541 53.836289 
L 261.790622 53.660605 
L 278.877703 53.479076 
L 295.964785 53.292576 
L 313.051866 53.101919 
L 330.138947 52.907866 
L 347.226029 52.711132 
L 364.31311 52.512398 
L 381.400191 52.312319 
L 398.487273 52.312319 
" clip-path="url(#p2587e62956)" style="fill: none; stroke: #1f77b4; stroke-width: 1.5; stroke-linecap: square"/>
   </g>
   <g id="line2d_14">
    <path d="M 73.832727 51.98433 
L 90.919809 51.991072 
L 108.00689 51.997804 
L 125.093971 52.004527 
L 142.181053 52.011242 
L 159.268134 52.01795 
L 176.355215 52.024652 
L 193.442297 52.031348 
L 210.529378 52.03804 
L 227.616459 52.044727 
L 244.703541 52.051412 
L 261.790622 52.058094 
L 278.877703 52.064775 
L 295.964785 52.071454 
L 313.051866 52.078134 
L 330.138947 52.084813 
L 347.226029 52.091492 
L 364.31311 52.098172 
L 381.400191 52.104852 
L 398.487273 52.104852 
" clip-path="url(#p2587e62956)" style="fill: none; stroke: #ff7f0e; stroke-width: 1.5; stroke-linecap: square"/>
   </g>
   <g id="line2d_15">
    <path d="M 73.832727 43.586873 
L 90.919809 43.585293 
L 108.00689 43.583712 
L 125.093971 43.582131 
L 142.181053 43.580549 
L 159.268134 43.578965 
L 176.355215 43.577381 
L 193.442297 43.575796 
L 210.529378 43.574209 
L 227.616459 43.572622 
L 244.703541 43.571034 
L 261.790622 43.569444 
L 278.877703 43.567854 
L 295.964785 43.566262 
L 313.051866 43.56467 
L 330.138947 43.563077 
L 347.226029 43.561483 
L 364.31311 43.559888 
L 381.400191 43.558293 
L 398.487273 43.558293 
" clip-path="url(#p2587e62956)" style="fill: none; stroke: #2ca02c; stroke-width: 1.5; stroke-linecap: square"/>
   </g>
   <g id="line2d_16">
    <path d="M 73.832727 43.586831 
L 90.919809 43.585211 
L 108.00689 43.583589 
L 125.093971 43.581966 
L 142.181053 43.580343 
L 159.268134 43.578718 
L 176.355215 43.577093 
L 193.442297 43.575466 
L 210.529378 43.573839 
L 227.616459 43.572211 
L 244.703541 43.570582 
L 261.790622 43.568952 
L 278.877703 43.567321 
L 295.964785 43.565689 
L 313.051866 43.564056 
L 330.138947 43.562423 
L 347.226029 43.560788 
L 364.31311 43.559153 
L 381.400191 43.557517 
L 398.487273 43.557517 
" clip-path="url(#p2587e62956)" style="fill: none; stroke: #d62728; stroke-width: 1.5; stroke-linecap: square"/>
   </g>
   <g id="line2d_17">
    <path d="M 73.832727 51.941431 
L 90.919809 51.771326 
L 108.00689 51.601214 
L 125.093971 51.431089 
L 142.181053 51.260946 
L 159.268134 51.090781 
L 176.355215 50.920588 
L 193.442297 50.750362 
L 210.529378 50.580099 
L 227.616459 50.409794 
L 244.703541 50.239441 
L 261.790622 50.069036 
L 278.877703 49.898573 
L 295.964785 49.728047 
L 313.051866 49.557454 
L 330.138947 49.386789 
L 347.226029 49.216045 
L 364.31311 49.045219 
L 381.400191 48.874304 
L 398.487273 48.874304 
" clip-path="url(#p2587e62956)" style="fill: none; stroke: #9467bd; stroke-width: 1.5; stroke-linecap: square"/>
   </g>
   <g id="line2d_18">
    <path d="M 73.832727 52.068775 
L 90.919809 52.026018 
L 108.00689 51.983264 
L 125.093971 51.940512 
L 142.181053 51.897765 
L 159.268134 51.855021 
L 176.355215 51.812284 
L 193.442297 51.769552 
L 210.529378 51.726828 
L 227.616459 51.684112 
L 244.703541 51.641405 
L 261.790622 51.598708 
L 278.877703 51.556022 
L 295.964785 51.513348 
L 313.051866 51.470686 
L 330.138947 51.428038 
L 347.226029 51.385405 
L 364.31311 51.342788 
L 381.400191 51.300187 
L 398.487273 51.300187 
" clip-path="url(#p2587e62956)" style="fill: none; stroke: #8c564b; stroke-width: 1.5; stroke-linecap: square"/>
   </g>
   <g id="line2d_19">
    <path d="M 73.832727 52.109803 
L 90.919809 52.108073 
L 108.00689 52.106344 
L 125.093971 52.104615 
L 142.181053 52.102888 
L 159.268134 52.101162 
L 176.355215 52.099438 
L 193.442297 52.097716 
L 210.529378 52.095996 
L 227.616459 52.094279 
L 244.703541 52.092564 
L 261.790622 52.090853 
L 278.877703 52.089145 
L 295.964785 52.087441 
L 313.051866 52.085741 
L 330.138947 52.084045 
L 347.226029 52.082354 
L 364.31311 52.080667 
L 381.400191 52.078986 
L 398.487273 52.078986 
" clip-path="url(#p2587e62956)" style="fill: none; stroke: #e377c2; stroke-width: 1.5; stroke-linecap: square"/>
   </g>
   <g id="line2d_20">
    <path d="M 73.832727 52.11149 
L 90.919809 52.111448 
L 108.00689 52.111406 
L 125.093971 52.111364 
L 142.181053 52.111322 
L 159.268134 52.11128 
L 176.355215 52.111238 
L 193.442297 52.111196 
L 210.529378 52.111154 
L 227.616459 52.111112 
L 244.703541 52.111071 
L 261.790622 52.11103 
L 278.877703 52.110988 
L 295.964785 52.110947 
L 313.051866 52.110906 
L 330.138947 52.110865 
L 347.226029 52.110825 
L 364.31311 52.110785 
L 381.400191 52.110744 
L 398.487273 52.110744 
" clip-path="url(#p2587e62956)" style="fill: none; stroke: #7f7f7f; stroke-width: 1.5; stroke-linecap: square"/>
   </g>
   <g id="line2d_21">
    <path d="M 73.832727 85.267862 
L 90.919809 82.158281 
L 108.00689 79.38958 
L 125.093971 76.895394 
L 142.181053 74.625192 
L 159.268134 72.539708 
L 176.355215 70.60787 
L 193.442297 68.804677 
L 210.529378 67.109703 
L 227.616459 65.506013 
L 244.703541 63.979366 
L 261.790622 62.517623 
L 278.877703 61.110287 
L 295.964785 59.748154 
L 313.051866 58.423033 
L 330.138947 57.127523 
L 347.226029 55.854824 
L 364.31311 54.598588 
L 381.400191 53.352773 
L 398.487273 53.352773 
" clip-path="url(#p2587e62956)" style="fill: none; stroke: #bcbd22; stroke-width: 1.5; stroke-linecap: square"/>
   </g>
   <g id="line2d_22">
    <path d="M 73.832727 79.500596 
L 90.919809 76.836313 
L 108.00689 74.469003 
L 125.093971 72.347886 
L 142.181053 70.430254 
L 159.268134 68.681182 
L 176.355215 67.07229 
L 193.442297 65.580453 
L 210.529378 64.186693 
L 227.616459 62.875281 
L 244.703541 61.633036 
L 261.790622 60.44878 
L 278.877703 59.31291 
L 295.964785 58.21706 
L 313.051866 57.153833 
L 330.138947 56.116584 
L 347.226029 55.099245 
L 364.31311 54.096167 
L 381.400191 53.101991 
L 398.487273 53.101991 
" clip-path="url(#p2587e62956)" style="fill: none; stroke: #17becf; stroke-width: 1.5; stroke-linecap: square"/>
   </g>
   <g id="line2d_23">
    <path d="M 73.832727 64.005842 
L 90.919809 63.476367 
L 108.00689 62.889771 
L 125.093971 62.266954 
L 142.181053 61.622604 
L 159.268134 60.966912 
L 176.355215 60.306839 
L 193.442297 59.647032 
L 210.529378 58.99048 
L 227.616459 58.338988 
L 244.703541 57.693508 
L 261.790622 57.054386 
L 278.877703 56.42153 
L 295.964785 55.794535 
L 313.051866 55.172773 
L 330.138947 54.555456 
L 347.226029 53.941683 
L 364.31311 53.330469 
L 381.400191 52.720777 
L 398.487273 52.720777 
" clip-path="url(#p2587e62956)" style="fill: none; stroke: #1f77b4; stroke-width: 1.5; stroke-linecap: square"/>
   </g>
   <g id="line2d_24">
    <path d="M 73.832727 58.41948 
L 90.919809 58.248841 
L 108.00689 58.036772 
L 125.093971 57.790438 
L 142.181053 57.515972 
L 159.268134 57.218553 
L 176.355215 56.902517 
L 193.442297 56.57146 
L 210.529378 56.228347 
L 227.616459 55.875606 
L 244.703541 55.515212 
L 261.790622 55.148767 
L 278.877703 54.77756 
L 295.964785 54.402628 
L 313.051866 54.0248 
L 330.138947 53.644739 
L 347.226029 53.26298 
L 364.31311 52.879958 
L 381.400191 52.496036 
L 398.487273 52.496036 
" clip-path="url(#p2587e62956)" style="fill: none; stroke: #ff7f0e; stroke-width: 1.5; stroke-linecap: square"/>
   </g>
   <g id="line2d_25">
    <path d="M 73.832727 55.826645 
L 90.919809 55.75299 
L 108.00689 55.654612 
L 125.093971 55.534224 
L 142.181053 55.394348 
L 159.268134 55.237302 
L 176.355215 55.065197 
L 193.442297 54.879944 
L 210.529378 54.683263 
L 227.616459 54.476696 
L 244.703541 54.261625 
L 261.790622 54.039283 
L 278.877703 53.810776 
L 295.964785 53.577094 
L 313.051866 53.339134 
L 330.138947 53.097706 
L 347.226029 52.853556 
L 364.31311 52.607379 
L 381.400191 52.359827 
L 398.487273 52.359827 
" clip-path="url(#p2587e62956)" style="fill: none; stroke: #2ca02c; stroke-width: 1.5; stroke-linecap: square"/>
   </g>
   <g id="patch_5">
    <path d="M 57.6 87.353379 
L 57.6 41.472 
" style="fill: none; stroke: #000000; stroke-width: 0.8; stroke-linejoin: miter; stroke-linecap: square"/>
   </g>
   <g id="patch_6">
    <path d="M 414.72 87.353379 
L 414.72 41.472 
" style="fill: none; stroke: #000000; stroke-width: 0.8; stroke-linejoin: miter; stroke-linecap: square"/>
   </g>
   <g id="patch_7">
    <path d="M 57.6 87.353379 
L 414.72 87.353379 
" style="fill: none; stroke: #000000; stroke-width: 0.8; stroke-linejoin: miter; stroke-linecap: square"/>
   </g>
   <g id="patch_8">
    <path d="M 57.6 41.472 
L 414.72 41.472 
" style="fill: none; stroke: #000000; stroke-width: 0.8; stroke-linejoin: miter; stroke-linecap: square"/>
   </g>
   <g id="text_7">
    <!-- velocity - Container 1  -->
    <g transform="translate(169.779375 38.472)scale(0.12 -0.12)">
     <defs>
      <path id="DejaVuSans-63" d="M 3122 3366 
L 3122 2828 
Q 2878 2963 2633 3030 
Q 2388 3097 2138 3097 
Q 1578 3097 1268 2742 
Q 959 2388 959 1747 
Q 959 1106 1268 751 
Q 1578 397 2138 397 
Q 2388 397 2633 464 
Q 2878 531 3122 666 
L 3122 134 
Q 2881 22 2623 -34 
Q 2366 -91 2075 -91 
Q 1284 -91 818 406 
Q 353 903 353 1747 
Q 353 2603 823 3093 
Q 1294 3584 2113 3584 
Q 2378 3584 2631 3529 
Q 2884 3475 3122 3366 
z
" transform="scale(0.015625)"/>
      <path id="DejaVuSans-74" d="M 1172 4494 
L 1172 3500 
L 2356 3500 
L 2356 3053 
L 1172 3053 
L 1172 1153 
Q 1172 725 1289 603 
Q 1406 481 1766 481 
L 2356 481 
L 2356 0 
L 1766 0 
Q 1100 0 847 248 
Q 594 497 594 1153 
L 594 3053 
L 172 3053 
L 172 3500 
L 594 3500 
L 594 4494 
L 1172 4494 
z
" transform="scale(0.015625)"/>
      <path id="DejaVuSans-79" d="M 2059 -325 
Q 1816 -950 1584 -1140 
Q 1353 -1331 966 -1331 
L 506 -1331 
L 506 -850 
L 844 -850 
Q 1081 -850 1212 -737 
Q 1344 -625 1503 -206 
L 1606 56 
L 191 3500 
L 800 3500 
L 1894 763 
L 2988 3500 
L 3597 3500 
L 2059 -325 
z
" transform="scale(0.015625)"/>
      <path id="DejaVuSans-2d" d="M 313 2009 
L 1997 2009 
L 1997 1497 
L 313 1497 
L 313 2009 
z
" transform="scale(0.015625)"/>
      <path id="DejaVuSans-43" d="M 4122 4306 
L 4122 3641 
Q 3803 3938 3442 4084 
Q 3081 4231 2675 4231 
Q 1875 4231 1450 3742 
Q 1025 3253 1025 2328 
Q 1025 1406 1450 917 
Q 1875 428 2675 428 
Q 3081 428 3442 575 
Q 3803 722 4122 1019 
L 4122 359 
Q 3791 134 3420 21 
Q 3050 -91 2638 -91 
Q 1578 -91 968 557 
Q 359 1206 359 2328 
Q 359 3453 968 4101 
Q 1578 4750 2638 4750 
Q 3056 4750 3426 4639 
Q 3797 4528 4122 4306 
z
" transform="scale(0.015625)"/>
      <path id="DejaVuSans-31" d="M 794 531 
L 1825 531 
L 1825 4091 
L 703 3866 
L 703 4441 
L 1819 4666 
L 2450 4666 
L 2450 531 
L 3481 531 
L 3481 0 
L 794 0 
L 794 531 
z
" transform="scale(0.015625)"/>
     </defs>
     <use xlink:href="#DejaVuSans-76"/>
     <use xlink:href="#DejaVuSans-65" x="59.179688"/>
     <use xlink:href="#DejaVuSans-6c" x="120.703125"/>
     <use xlink:href="#DejaVuSans-6f" x="148.486328"/>
     <use xlink:href="#DejaVuSans-63" x="209.667969"/>
     <use xlink:href="#DejaVuSans-69" x="264.648438"/>
     <use xlink:href="#DejaVuSans-74" x="292.431641"/>
     <use xlink:href="#DejaVuSans-79" x="331.640625"/>
     <use xlink:href="#DejaVuSans-20" x="390.820312"/>
     <use xlink:href="#DejaVuSans-2d" x="422.607422"/>
     <use xlink:href="#DejaVuSans-20" x="458.691406"/>
     <use xlink:href="#DejaVuSans-43" x="490.478516"/>
     <use xlink:href="#DejaVuSans-6f" x="560.302734"/>
     <use xlink:href="#DejaVuSans-6e" x="621.484375"/>
     <use xlink:href="#DejaVuSans-74" x="684.863281"/>
     <use xlink:href="#DejaVuSans-61" x="724.072266"/>
     <use xlink:href="#DejaVuSans-69" x="785.351562"/>
     <use xlink:href="#DejaVuSans-6e" x="813.134766"/>
     <use xlink:href="#DejaVuSans-65" x="876.513672"/>
     <use xlink:href="#DejaVuSans-72" x="938.037109"/>
     <use xlink:href="#DejaVuSans-20" x="979.150391"/>
     <use xlink:href="#DejaVuSans-31" x="1010.9375"/>
     <use xlink:href="#DejaVuSans-20" x="1074.560547"/>
    </g>
   </g>
  </g>
  <g id="axes_3">
   <g id="patch_9">
    <path d="M 57.6 142.411034 
L 414.72 142.411034 
L 414.72 96.529655 
L 57.6 96.529655 
z
" style="fill: #ffffff"/>
   </g>
   <g id="matplotlib.axis_5">
    <g id="xtick_9">
     <g id="line2d_26">
      <g>
       <use xlink:href="#m029b3b661e" x="73.832727" y="142.411034" style="stroke: #000000; stroke-width: 0.8"/>
      </g>
     </g>
    </g>
    <g id="xtick_10">
     <g id="line2d_27">
      <g>
       <use xlink:href="#m029b3b661e" x="116.550431" y="142.411034" style="stroke: #000000; stroke-width: 0.8"/>
      </g>
     </g>
    </g>
    <g id="xtick_11">
     <g id="line2d_28">
      <g>
       <use xlink:href="#m029b3b661e" x="159.268134" y="142.411034" style="stroke: #000000; stroke-width: 0.8"/>
      </g>
     </g>
    </g>
    <g id="xtick_12">
     <g id="line2d_29">
      <g>
       <use xlink:href="#m029b3b661e" x="201.985837" y="142.411034" style="stroke: #000000; stroke-width: 0.8"/>
      </g>
     </g>
    </g>
    <g id="xtick_13">
     <g id="line2d_30">
      <g>
       <use xlink:href="#m029b3b661e" x="244.703541" y="142.411034" style="stroke: #000000; stroke-width: 0.8"/>
      </g>
     </g>
    </g>
    <g id="xtick_14">
     <g id="line2d_31">
      <g>
       <use xlink:href="#m029b3b661e" x="287.421244" y="142.411034" style="stroke: #000000; stroke-width: 0.8"/>
      </g>
     </g>
    </g>
    <g id="xtick_15">
     <g id="line2d_32">
      <g>
       <use xlink:href="#m029b3b661e" x="330.138947" y="142.411034" style="stroke: #000000; stroke-width: 0.8"/>
      </g>
     </g>
    </g>
    <g id="xtick_16">
     <g id="line2d_33">
      <g>
       <use xlink:href="#m029b3b661e" x="372.856651" y="142.411034" style="stroke: #000000; stroke-width: 0.8"/>
      </g>
     </g>
    </g>
   </g>
   <g id="matplotlib.axis_6">
    <g id="ytick_5">
     <g id="line2d_34">
      <g>
       <use xlink:href="#mfdabaa9900" x="57.6" y="140.746653" style="stroke: #000000; stroke-width: 0.8"/>
      </g>
     </g>
     <g id="text_8">
      <!-- 0 -->
      <g transform="translate(44.2375 144.545871)scale(0.1 -0.1)">
       <use xlink:href="#DejaVuSans-30"/>
      </g>
     </g>
    </g>
    <g id="ytick_6">
     <g id="line2d_35">
      <g>
       <use xlink:href="#mfdabaa9900" x="57.6" y="98.771647" style="stroke: #000000; stroke-width: 0.8"/>
      </g>
     </g>
     <g id="text_9">
      <!-- 1 -->
      <g transform="translate(44.2375 102.570866)scale(0.1 -0.1)">
       <use xlink:href="#DejaVuSans-31"/>
      </g>
     </g>
    </g>
   </g>
   <g id="line2d_36">
    <path d="M 73.832727 140.325517 
L 90.919809 140.322784 
L 108.00689 140.320098 
L 125.093971 140.317478 
L 142.181053 140.31494 
L 159.268134 140.3125 
L 176.355215 140.31017 
L 193.442297 140.307963 
L 210.529378 140.305889 
L 227.616459 140.303959 
L 244.703541 140.302179 
L 261.790622 140.300559 
L 278.877703 140.299103 
L 295.964785 140.297818 
L 313.051866 140.296708 
L 330.138947 140.295778 
L 347.226029 140.295029 
L 364.31311 140.294466 
L 381.400191 140.294089 
L 398.487273 140.293901 
" clip-path="url(#p861ac38bb3)" style="fill: none; stroke: #1f77b4; stroke-width: 1.5; stroke-linecap: square"/>
   </g>
   <g id="line2d_37">
    <path d="M 73.832727 99.533081 
L 90.919809 99.5332 
L 108.00689 99.533313 
L 125.093971 99.53342 
L 142.181053 99.533521 
L 159.268134 99.533615 
L 176.355215 99.533703 
L 193.442297 99.533784 
L 210.529378 99.53386 
L 227.616459 99.533929 
L 244.703541 99.533992 
L 261.790622 99.534048 
L 278.877703 99.534098 
L 295.964785 99.534142 
L 313.051866 99.53418 
L 330.138947 99.534211 
L 347.226029 99.534236 
L 364.31311 99.534255 
L 381.400191 99.534268 
L 398.487273 99.534274 
" clip-path="url(#p861ac38bb3)" style="fill: none; stroke: #ff7f0e; stroke-width: 1.5; stroke-linecap: square"/>
   </g>
   <g id="line2d_38">
    <path d="M 73.832727 98.61518 
L 90.919809 98.62319 
L 108.00689 98.631202 
L 125.093971 98.639215 
L 142.181053 98.64723 
L 159.268134 98.655246 
L 176.355215 98.663263 
L 193.442297 98.671282 
L 210.529378 98.679303 
L 227.616459 98.687325 
L 244.703541 98.695349 
L 261.790622 98.703374 
L 278.877703 98.7114 
L 295.964785 98.719428 
L 313.051866 98.727458 
L 330.138947 98.735489 
L 347.226029 98.743521 
L 364.31311 98.751555 
L 381.400191 98.759591 
L 398.487273 98.767628 
" clip-path="url(#p861ac38bb3)" style="fill: none; stroke: #2ca02c; stroke-width: 1.5; stroke-linecap: square"/>
   </g>
   <g id="line2d_39">
    <path d="M 73.832727 98.615172 
L 90.919809 98.623183 
L 108.00689 98.631194 
L 125.093971 98.639208 
L 142.181053 98.647222 
L 159.268134 98.655239 
L 176.355215 98.663256 
L 193.442297 98.671276 
L 210.529378 98.679297 
L 227.616459 98.687319 
L 244.703541 98.695343 
L 261.790622 98.703369 
L 278.877703 98.711396 
L 295.964785 98.719424 
L 313.051866 98.727454 
L 330.138947 98.735486 
L 347.226029 98.743519 
L 364.31311 98.751554 
L 381.400191 98.75959 
L 398.487273 98.767627 
" clip-path="url(#p861ac38bb3)" style="fill: none; stroke: #d62728; stroke-width: 1.5; stroke-linecap: square"/>
   </g>
   <g id="line2d_40">
    <path d="M 73.832727 122.619088 
L 90.919809 122.619248 
L 108.00689 122.619568 
L 125.093971 122.620047 
L 142.181053 122.620686 
L 159.268134 122.621486 
L 176.355215 122.622445 
L 193.442297 122.623564 
L 210.529378 122.624843 
L 227.616459 122.626282 
L 244.703541 122.627881 
L 261.790622 122.62964 
L 278.877703 122.631559 
L 295.964785 122.633639 
L 313.051866 122.635878 
L 330.138947 122.638278 
L 347.226029 122.640839 
L 364.31311 122.643559 
L 381.400191 122.646441 
L 398.487273 122.649482 
" clip-path="url(#p861ac38bb3)" style="fill: none; stroke: #9467bd; stroke-width: 1.5; stroke-linecap: square"/>
   </g>
   <g id="line2d_41">
    <path d="M 73.832727 136.286573 
L 90.919809 136.286613 
L 108.00689 136.286694 
L 125.093971 136.286814 
L 142.181053 136.286975 
L 159.268134 136.287176 
L 176.355215 136.287417 
L 193.442297 136.287698 
L 210.529378 136.288019 
L 227.616459 136.288381 
L 244.703541 136.288782 
L 261.790622 136.289224 
L 278.877703 136.289706 
L 295.964785 136.290228 
L 313.051866 136.29079 
L 330.138947 136.291392 
L 347.226029 136.292035 
L 364.31311 136.292717 
L 381.400191 136.293439 
L 398.487273 136.294202 
" clip-path="url(#p861ac38bb3)" style="fill: none; stroke: #8c564b; stroke-width: 1.5; stroke-linecap: square"/>
   </g>
   <g id="line2d_42">
    <path d="M 73.832727 136.544124 
L 90.919809 136.544126 
L 108.00689 136.544129 
L 125.093971 136.544134 
L 142.181053 136.544141 
L 159.268134 136.544149 
L 176.355215 136.544159 
L 193.442297 136.54417 
L 210.529378 136.544183 
L 227.616459 136.544197 
L 244.703541 136.544214 
L 261.790622 136.544232 
L 278.877703 136.544251 
L 295.964785 136.544272 
L 313.051866 136.544295 
L 330.138947 136.544319 
L 347.226029 136.544345 
L 364.31311 136.544372 
L 381.400191 136.544401 
L 398.487273 136.544432 
" clip-path="url(#p861ac38bb3)" style="fill: none; stroke: #e377c2; stroke-width: 1.5; stroke-linecap: square"/>
   </g>
   <g id="line2d_43">
    <path d="M 73.832727 136.549066 
L 90.919809 136.549066 
L 108.00689 136.549066 
L 125.093971 136.549066 
L 142.181053 136.549066 
L 159.268134 136.549067 
L 176.355215 136.549067 
L 193.442297 136.549067 
L 210.529378 136.549067 
L 227.616459 136.549068 
L 244.703541 136.549068 
L 261.790622 136.549069 
L 278.877703 136.549069 
L 295.964785 136.54907 
L 313.051866 136.54907 
L 330.138947 136.549071 
L 347.226029 136.549071 
L 364.31311 136.549072 
L 381.400191 136.549073 
L 398.487273 136.549074 
" clip-path="url(#p861ac38bb3)" style="fill: none; stroke: #7f7f7f; stroke-width: 1.5; stroke-linecap: square"/>
   </g>
   <g id="line2d_44">
    <path d="M 73.832727 139.798484 
L 90.919809 139.767329 
L 108.00689 139.739096 
L 125.093971 139.713464 
L 142.181053 139.690176 
L 159.268134 139.669021 
L 176.355215 139.649826 
L 193.442297 139.632446 
L 210.529378 139.61676 
L 227.616459 139.602667 
L 244.703541 139.590081 
L 261.790622 139.57893 
L 278.877703 139.569152 
L 295.964785 139.560696 
L 313.051866 139.55352 
L 330.138947 139.54759 
L 347.226029 139.542876 
L 364.31311 139.539359 
L 381.400191 139.537022 
L 398.487273 139.535856 
" clip-path="url(#p861ac38bb3)" style="fill: none; stroke: #bcbd22; stroke-width: 1.5; stroke-linecap: square"/>
   </g>
   <g id="line2d_45">
    <path d="M 73.832727 140.302749 
L 90.919809 140.277013 
L 108.00689 140.25378 
L 125.093971 140.232772 
L 142.181053 140.213757 
L 159.268134 140.196544 
L 176.355215 140.180974 
L 193.442297 140.166916 
L 210.529378 140.15426 
L 227.616459 140.142914 
L 244.703541 140.1328 
L 261.790622 140.123853 
L 278.877703 140.116019 
L 295.964785 140.109252 
L 313.051866 140.103515 
L 330.138947 140.098777 
L 347.226029 140.095014 
L 364.31311 140.092207 
L 381.400191 140.090342 
L 398.487273 140.089411 
" clip-path="url(#p861ac38bb3)" style="fill: none; stroke: #17becf; stroke-width: 1.5; stroke-linecap: square"/>
   </g>
   <g id="line2d_46">
    <path d="M 73.832727 140.320867 
L 90.919809 140.309691 
L 108.00689 140.299012 
L 125.093971 140.288884 
L 142.181053 140.279341 
L 159.268134 140.270404 
L 176.355215 140.262084 
L 193.442297 140.254383 
L 210.529378 140.247302 
L 227.616459 140.240838 
L 244.703541 140.234987 
L 261.790622 140.229742 
L 278.877703 140.225097 
L 295.964785 140.221047 
L 313.051866 140.217587 
L 330.138947 140.21471 
L 347.226029 140.212414 
L 364.31311 140.210694 
L 381.400191 140.209549 
L 398.487273 140.208976 
" clip-path="url(#p861ac38bb3)" style="fill: none; stroke: #1f77b4; stroke-width: 1.5; stroke-linecap: square"/>
   </g>
   <g id="line2d_47">
    <path d="M 73.832727 140.323857 
L 90.919809 140.31793 
L 108.00689 140.312163 
L 125.093971 140.306595 
L 142.181053 140.301259 
L 159.268134 140.296181 
L 176.355215 140.291382 
L 193.442297 140.28688 
L 210.529378 140.282689 
L 227.616459 140.278821 
L 244.703541 140.275284 
L 261.790622 140.272086 
L 278.877703 140.269232 
L 295.964785 140.266727 
L 313.051866 140.264574 
L 330.138947 140.262776 
L 347.226029 140.261336 
L 364.31311 140.260254 
L 381.400191 140.259532 
L 398.487273 140.25917 
" clip-path="url(#p861ac38bb3)" style="fill: none; stroke: #ff7f0e; stroke-width: 1.5; stroke-linecap: square"/>
   </g>
   <g id="line2d_48">
    <path d="M 73.832727 140.325128 
L 90.919809 140.321637 
L 108.00689 140.318215 
L 125.093971 140.314886 
L 142.181053 140.31167 
L 159.268134 140.308585 
L 176.355215 140.305648 
L 193.442297 140.302873 
L 210.529378 140.300271 
L 227.616459 140.297855 
L 244.703541 140.295632 
L 261.790622 140.293612 
L 278.877703 140.291801 
L 295.964785 140.290204 
L 313.051866 140.288827 
L 330.138947 140.287673 
L 347.226029 140.286747 
L 364.31311 140.28605 
L 381.400191 140.285584 
L 398.487273 140.28535 
" clip-path="url(#p861ac38bb3)" style="fill: none; stroke: #2ca02c; stroke-width: 1.5; stroke-linecap: square"/>
   </g>
   <g id="patch_10">
    <path d="M 57.6 142.411034 
L 57.6 96.529655 
" style="fill: none; stroke: #000000; stroke-width: 0.8; stroke-linejoin: miter; stroke-linecap: square"/>
   </g>
   <g id="patch_11">
    <path d="M 414.72 142.411034 
L 414.72 96.529655 
" style="fill: none; stroke: #000000; stroke-width: 0.8; stroke-linejoin: miter; stroke-linecap: square"/>
   </g>
   <g id="patch_12">
    <path d="M 57.6 142.411034 
L 414.72 142.411034 
" style="fill: none; stroke: #000000; stroke-width: 0.8; stroke-linejoin: miter; stroke-linecap: square"/>
   </g>
   <g id="patch_13">
    <path d="M 57.6 96.529655 
L 414.72 96.529655 
" style="fill: none; stroke: #000000; stroke-width: 0.8; stroke-linejoin: miter; stroke-linecap: square"/>
   </g>
   <g id="text_10">
    <!-- Pressure - Container 1 -->
    <g transform="translate(169.523438 93.529655)scale(0.12 -0.12)">
     <defs>
      <path id="DejaVuSans-50" d="M 1259 4147 
L 1259 2394 
L 2053 2394 
Q 2494 2394 2734 2622 
Q 2975 2850 2975 3272 
Q 2975 3691 2734 3919 
Q 2494 4147 2053 4147 
L 1259 4147 
z
M 628 4666 
L 2053 4666 
Q 2838 4666 3239 4311 
Q 3641 3956 3641 3272 
Q 3641 2581 3239 2228 
Q 2838 1875 2053 1875 
L 1259 1875 
L 1259 0 
L 628 0 
L 628 4666 
z
" transform="scale(0.015625)"/>
      <path id="DejaVuSans-75" d="M 544 1381 
L 544 3500 
L 1119 3500 
L 1119 1403 
Q 1119 906 1312 657 
Q 1506 409 1894 409 
Q 2359 409 2629 706 
Q 2900 1003 2900 1516 
L 2900 3500 
L 3475 3500 
L 3475 0 
L 2900 0 
L 2900 538 
Q 2691 219 2414 64 
Q 2138 -91 1772 -91 
Q 1169 -91 856 284 
Q 544 659 544 1381 
z
M 1991 3584 
L 1991 3584 
z
" transform="scale(0.015625)"/>
     </defs>
     <use xlink:href="#DejaVuSans-50"/>
     <use xlink:href="#DejaVuSans-72" x="58.552734"/>
     <use xlink:href="#DejaVuSans-65" x="97.416016"/>
     <use xlink:href="#DejaVuSans-73" x="158.939453"/>
     <use xlink:href="#DejaVuSans-73" x="211.039062"/>
     <use xlink:href="#DejaVuSans-75" x="263.138672"/>
     <use xlink:href="#DejaVuSans-72" x="326.517578"/>
     <use xlink:href="#DejaVuSans-65" x="365.380859"/>
     <use xlink:href="#DejaVuSans-20" x="426.904297"/>
     <use xlink:href="#DejaVuSans-2d" x="458.691406"/>
     <use xlink:href="#DejaVuSans-20" x="494.775391"/>
     <use xlink:href="#DejaVuSans-43" x="526.5625"/>
     <use xlink:href="#DejaVuSans-6f" x="596.386719"/>
     <use xlink:href="#DejaVuSans-6e" x="657.568359"/>
     <use xlink:href="#DejaVuSans-74" x="720.947266"/>
     <use xlink:href="#DejaVuSans-61" x="760.15625"/>
     <use xlink:href="#DejaVuSans-69" x="821.435547"/>
     <use xlink:href="#DejaVuSans-6e" x="849.21875"/>
     <use xlink:href="#DejaVuSans-65" x="912.597656"/>
     <use xlink:href="#DejaVuSans-72" x="974.121094"/>
     <use xlink:href="#DejaVuSans-20" x="1015.234375"/>
     <use xlink:href="#DejaVuSans-31" x="1047.021484"/>
    </g>
   </g>
  </g>
  <g id="axes_4">
   <g id="patch_14">
    <path d="M 57.6 197.46869 
L 414.72 197.46869 
L 414.72 151.58731 
L 57.6 151.58731 
z
" style="fill: #ffffff"/>
   </g>
   <g id="matplotlib.axis_7">
    <g id="xtick_17">
     <g id="line2d_49">
      <g>
       <use xlink:href="#m029b3b661e" x="73.832727" y="197.46869" style="stroke: #000000; stroke-width: 0.8"/>
      </g>
     </g>
    </g>
    <g id="xtick_18">
     <g id="line2d_50">
      <g>
       <use xlink:href="#m029b3b661e" x="116.550431" y="197.46869" style="stroke: #000000; stroke-width: 0.8"/>
      </g>
     </g>
    </g>
    <g id="xtick_19">
     <g id="line2d_51">
      <g>
       <use xlink:href="#m029b3b661e" x="159.268134" y="197.46869" style="stroke: #000000; stroke-width: 0.8"/>
      </g>
     </g>
    </g>
    <g id="xtick_20">
     <g id="line2d_52">
      <g>
       <use xlink:href="#m029b3b661e" x="201.985837" y="197.46869" style="stroke: #000000; stroke-width: 0.8"/>
      </g>
     </g>
    </g>
    <g id="xtick_21">
     <g id="line2d_53">
      <g>
       <use xlink:href="#m029b3b661e" x="244.703541" y="197.46869" style="stroke: #000000; stroke-width: 0.8"/>
      </g>
     </g>
    </g>
    <g id="xtick_22">
     <g id="line2d_54">
      <g>
       <use xlink:href="#m029b3b661e" x="287.421244" y="197.46869" style="stroke: #000000; stroke-width: 0.8"/>
      </g>
     </g>
    </g>
    <g id="xtick_23">
     <g id="line2d_55">
      <g>
       <use xlink:href="#m029b3b661e" x="330.138947" y="197.46869" style="stroke: #000000; stroke-width: 0.8"/>
      </g>
     </g>
    </g>
    <g id="xtick_24">
     <g id="line2d_56">
      <g>
       <use xlink:href="#m029b3b661e" x="372.856651" y="197.46869" style="stroke: #000000; stroke-width: 0.8"/>
      </g>
     </g>
    </g>
   </g>
   <g id="matplotlib.axis_8">
    <g id="ytick_7">
     <g id="line2d_57">
      <g>
       <use xlink:href="#mfdabaa9900" x="57.6" y="181.329755" style="stroke: #000000; stroke-width: 0.8"/>
      </g>
     </g>
     <g id="text_11">
      <!-- 0.04 -->
      <g transform="translate(28.334375 185.128974)scale(0.1 -0.1)">
       <defs>
        <path id="DejaVuSans-34" d="M 2419 4116 
L 825 1625 
L 2419 1625 
L 2419 4116 
z
M 2253 4666 
L 3047 4666 
L 3047 1625 
L 3713 1625 
L 3713 1100 
L 3047 1100 
L 3047 0 
L 2419 0 
L 2419 1100 
L 313 1100 
L 313 1709 
L 2253 4666 
z
" transform="scale(0.015625)"/>
       </defs>
       <use xlink:href="#DejaVuSans-30"/>
       <use xlink:href="#DejaVuSans-2e" x="63.623047"/>
       <use xlink:href="#DejaVuSans-30" x="95.410156"/>
       <use xlink:href="#DejaVuSans-34" x="159.033203"/>
      </g>
     </g>
    </g>
    <g id="ytick_8">
     <g id="line2d_58">
      <g>
       <use xlink:href="#mfdabaa9900" x="57.6" y="156.990824" style="stroke: #000000; stroke-width: 0.8"/>
      </g>
     </g>
     <g id="text_12">
      <!-- 0.06 -->
      <g transform="translate(28.334375 160.790043)scale(0.1 -0.1)">
       <defs>
        <path id="DejaVuSans-36" d="M 2113 2584 
Q 1688 2584 1439 2293 
Q 1191 2003 1191 1497 
Q 1191 994 1439 701 
Q 1688 409 2113 409 
Q 2538 409 2786 701 
Q 3034 994 3034 1497 
Q 3034 2003 2786 2293 
Q 2538 2584 2113 2584 
z
M 3366 4563 
L 3366 3988 
Q 3128 4100 2886 4159 
Q 2644 4219 2406 4219 
Q 1781 4219 1451 3797 
Q 1122 3375 1075 2522 
Q 1259 2794 1537 2939 
Q 1816 3084 2150 3084 
Q 2853 3084 3261 2657 
Q 3669 2231 3669 1497 
Q 3669 778 3244 343 
Q 2819 -91 2113 -91 
Q 1303 -91 875 529 
Q 447 1150 447 2328 
Q 447 3434 972 4092 
Q 1497 4750 2381 4750 
Q 2619 4750 2861 4703 
Q 3103 4656 3366 4563 
z
" transform="scale(0.015625)"/>
       </defs>
       <use xlink:href="#DejaVuSans-30"/>
       <use xlink:href="#DejaVuSans-2e" x="63.623047"/>
       <use xlink:href="#DejaVuSans-30" x="95.410156"/>
       <use xlink:href="#DejaVuSans-36" x="159.033203"/>
      </g>
     </g>
    </g>
   </g>
   <g id="line2d_59">
    <path d="M 73.832727 193.712905 
L 90.919809 194.088877 
L 108.00689 194.381366 
L 125.093971 194.60828 
L 142.181053 194.785715 
L 159.268134 194.925094 
L 176.355215 195.034773 
L 193.442297 195.121028 
L 210.529378 195.188667 
L 227.616459 195.241435 
L 244.703541 195.282286 
L 261.790622 195.313568 
L 278.877703 195.337161 
L 295.964785 195.35457 
L 313.051866 195.367 
L 330.138947 195.375408 
L 347.226029 195.380544 
L 364.31311 195.382986 
L 381.400191 195.383172 
L 398.487273 195.381525 
" clip-path="url(#p211d60c1e1)" style="fill: none; stroke: #1f77b4; stroke-width: 1.5; stroke-linecap: square"/>
   </g>
   <g id="line2d_60">
    <path d="M 73.832727 168.892366 
L 90.919809 167.79269 
L 108.00689 167.202094 
L 125.093971 166.59441 
L 142.181053 165.950626 
L 159.268134 165.283926 
L 176.355215 164.5997 
L 193.442297 163.898483 
L 210.529378 163.178971 
L 227.616459 162.439197 
L 244.703541 161.676773 
L 261.790622 160.888743 
L 278.877703 160.071323 
L 295.964785 159.21968 
L 313.051866 158.327883 
L 330.138947 157.389459 
L 347.226029 156.400491 
L 364.31311 155.373046 
L 381.400191 154.382226 
L 398.487273 153.672828 
" clip-path="url(#p211d60c1e1)" style="fill: none; stroke: #ff7f0e; stroke-width: 1.5; stroke-linecap: square"/>
   </g>
   <g id="line2d_61">
    <path d="M 73.832727 169.138816 
L 90.919809 169.096269 
L 108.00689 169.031362 
L 125.093971 168.944197 
L 142.181053 168.834631 
L 159.268134 168.701482 
L 176.355215 168.542352 
L 193.442297 168.354794 
L 210.529378 168.137816 
L 227.616459 167.892323 
L 244.703541 167.62015 
L 261.790622 167.322438 
L 278.877703 166.998376 
L 295.964785 166.644882 
L 313.051866 166.257207 
L 330.138947 165.830057 
L 347.226029 165.358907 
L 364.31311 164.841601 
L 381.400191 164.281052 
L 398.487273 163.695018 
" clip-path="url(#p211d60c1e1)" style="fill: none; stroke: #2ca02c; stroke-width: 1.5; stroke-linecap: square"/>
   </g>
   <g id="line2d_62">
    <path d="M 73.832727 169.159961 
L 90.919809 169.159266 
L 108.00689 169.158137 
L 125.093971 169.156512 
L 142.181053 169.15432 
L 159.268134 169.151476 
L 176.355215 169.14789 
L 193.442297 169.143465 
L 210.529378 169.138093 
L 227.616459 169.131659 
L 244.703541 169.124036 
L 261.790622 169.115089 
L 278.877703 169.104669 
L 295.964785 169.092617 
L 313.051866 169.07876 
L 330.138947 169.062912 
L 347.226029 169.044877 
L 364.31311 169.024462 
L 381.400191 169.00152 
L 398.487273 168.9763 
" clip-path="url(#p211d60c1e1)" style="fill: none; stroke: #d62728; stroke-width: 1.5; stroke-linecap: square"/>
   </g>
   <g id="line2d_63">
    <path d="M 73.832727 169.489569 
L 90.919809 169.489329 
L 108.00689 169.489015 
L 125.093971 169.488632 
L 142.181053 169.488173 
L 159.268134 169.48763 
L 176.355215 169.486993 
L 193.442297 169.486252 
L 210.529378 169.485396 
L 227.616459 169.484414 
L 244.703541 169.483294 
L 261.790622 169.482022 
L 278.877703 169.480583 
L 295.964785 169.47896 
L 313.051866 169.477138 
L 330.138947 169.475096 
L 347.226029 169.472816 
L 364.31311 169.470277 
L 381.400191 169.467466 
L 398.487273 169.464455 
" clip-path="url(#p211d60c1e1)" style="fill: none; stroke: #9467bd; stroke-width: 1.5; stroke-linecap: square"/>
   </g>
   <g id="line2d_64">
    <path d="M 73.832727 172.120666 
L 90.919809 172.120485 
L 108.00689 172.120252 
L 125.093971 172.119979 
L 142.181053 172.119661 
L 159.268134 172.119293 
L 176.355215 172.118867 
L 193.442297 172.118376 
L 210.529378 172.117812 
L 227.616459 172.117167 
L 244.703541 172.11643 
L 261.790622 172.115593 
L 278.877703 172.114643 
L 295.964785 172.11357 
L 313.051866 172.112359 
L 330.138947 172.110998 
L 347.226029 172.109471 
L 364.31311 172.107764 
L 381.400191 172.105869 
L 398.487273 172.103881 
" clip-path="url(#p211d60c1e1)" style="fill: none; stroke: #8c564b; stroke-width: 1.5; stroke-linecap: square"/>
   </g>
   <g id="line2d_65">
    <path d="M 73.832727 172.340919 
L 90.919809 172.340719 
L 108.00689 172.340429 
L 125.093971 172.340068 
L 142.181053 172.339633 
L 159.268134 172.339119 
L 176.355215 172.338518 
L 193.442297 172.337822 
L 210.529378 172.337025 
L 227.616459 172.336118 
L 244.703541 172.335092 
L 261.790622 172.333936 
L 278.877703 172.33264 
L 295.964785 172.331192 
L 313.051866 172.329579 
L 330.138947 172.327788 
L 347.226029 172.325805 
L 364.31311 172.323617 
L 381.400191 172.321227 
L 398.487273 172.318871 
" clip-path="url(#p211d60c1e1)" style="fill: none; stroke: #e377c2; stroke-width: 1.5; stroke-linecap: square"/>
   </g>
   <g id="line2d_66">
    <path d="M 73.832727 172.345441 
L 90.919809 172.345248 
L 108.00689 172.344957 
L 125.093971 172.344592 
L 142.181053 172.344151 
L 159.268134 172.343629 
L 176.355215 172.343018 
L 193.442297 172.342313 
L 210.529378 172.341504 
L 227.616459 172.340583 
L 244.703541 172.339542 
L 261.790622 172.33837 
L 278.877703 172.337056 
L 295.964785 172.335589 
L 313.051866 172.333956 
L 330.138947 172.332143 
L 347.226029 172.330137 
L 364.31311 172.327927 
L 381.400191 172.325538 
L 398.487273 172.323325 
" clip-path="url(#p211d60c1e1)" style="fill: none; stroke: #7f7f7f; stroke-width: 1.5; stroke-linecap: square"/>
   </g>
   <g id="line2d_67">
    <path d="M 73.832727 182.517708 
L 90.919809 182.2461 
L 108.00689 182.006831 
L 125.093971 181.795405 
L 142.181053 181.607889 
L 159.268134 181.441169 
L 176.355215 181.292747 
L 193.442297 181.160598 
L 210.529378 181.043063 
L 227.616459 180.938776 
L 244.703541 180.846603 
L 261.790622 180.765603 
L 278.877703 180.694994 
L 295.964785 180.634123 
L 313.051866 180.582456 
L 330.138947 180.539554 
L 347.226029 180.505069 
L 364.31311 180.478741 
L 381.400191 180.460422 
L 398.487273 180.450199 
" clip-path="url(#p211d60c1e1)" style="fill: none; stroke: #bcbd22; stroke-width: 1.5; stroke-linecap: square"/>
   </g>
   <g id="line2d_68">
    <path d="M 73.832727 192.118734 
L 90.919809 191.714234 
L 108.00689 191.33139 
L 125.093971 190.978238 
L 142.181053 190.656152 
L 159.268134 190.364288 
L 176.355215 190.100954 
L 193.442297 189.864216 
L 210.529378 189.652166 
L 227.616459 189.463037 
L 244.703541 189.295243 
L 261.790622 189.147391 
L 278.877703 189.018274 
L 295.964785 188.90686 
L 313.051866 188.812278 
L 330.138947 188.733803 
L 347.226029 188.67085 
L 364.31311 188.622968 
L 381.400191 188.58985 
L 398.487273 188.571402 
" clip-path="url(#p211d60c1e1)" style="fill: none; stroke: #17becf; stroke-width: 1.5; stroke-linecap: square"/>
   </g>
   <g id="line2d_69">
    <path d="M 73.832727 193.024928 
L 90.919809 193.123133 
L 108.00689 193.140366 
L 125.093971 193.107492 
L 142.181053 193.043965 
L 159.268134 192.962401 
L 176.355215 192.871209 
L 193.442297 192.776113 
L 210.529378 192.681065 
L 227.616459 192.588827 
L 244.703541 192.501339 
L 261.790622 192.419973 
L 278.877703 192.345698 
L 295.964785 192.279197 
L 313.051866 192.220952 
L 330.138947 192.171295 
L 347.226029 192.130457 
L 364.31311 192.098601 
L 381.400191 192.075851 
L 398.487273 192.062389 
" clip-path="url(#p211d60c1e1)" style="fill: none; stroke: #1f77b4; stroke-width: 1.5; stroke-linecap: square"/>
   </g>
   <g id="line2d_70">
    <path d="M 73.832727 193.390698 
L 90.919809 193.667641 
L 108.00689 193.855069 
L 125.093971 193.978528 
L 142.181053 194.056502 
L 159.268134 194.101799 
L 176.355215 194.123572 
L 193.442297 194.12852 
L 210.529378 194.121641 
L 227.616459 194.106719 
L 244.703541 194.086648 
L 261.790622 194.063662 
L 278.877703 194.039492 
L 295.964785 194.015484 
L 313.051866 193.992685 
L 330.138947 193.971902 
L 347.226029 193.953749 
L 364.31311 193.938691 
L 381.400191 193.927077 
L 398.487273 193.919247 
" clip-path="url(#p211d60c1e1)" style="fill: none; stroke: #ff7f0e; stroke-width: 1.5; stroke-linecap: square"/>
   </g>
   <g id="line2d_71">
    <path d="M 73.832727 193.624647 
L 90.919809 193.977936 
L 108.00689 194.245314 
L 125.093971 194.447015 
L 142.181053 194.5998 
L 159.268134 194.715508 
L 176.355215 194.802767 
L 193.442297 194.868025 
L 210.529378 194.916199 
L 227.616459 194.951102 
L 244.703541 194.97572 
L 261.790622 194.992416 
L 278.877703 195.003069 
L 295.964785 195.009175 
L 313.051866 195.011924 
L 330.138947 195.012254 
L 347.226029 195.010898 
L 364.31311 195.008412 
L 381.400191 195.005222 
L 398.487273 195.001733 
" clip-path="url(#p211d60c1e1)" style="fill: none; stroke: #2ca02c; stroke-width: 1.5; stroke-linecap: square"/>
   </g>
   <g id="patch_15">
    <path d="M 57.6 197.46869 
L 57.6 151.58731 
" style="fill: none; stroke: #000000; stroke-width: 0.8; stroke-linejoin: miter; stroke-linecap: square"/>
   </g>
   <g id="patch_16">
    <path d="M 414.72 197.46869 
L 414.72 151.58731 
" style="fill: none; stroke: #000000; stroke-width: 0.8; stroke-linejoin: miter; stroke-linecap: square"/>
   </g>
   <g id="patch_17">
    <path d="M 57.6 197.46869 
L 414.72 197.46869 
" style="fill: none; stroke: #000000; stroke-width: 0.8; stroke-linejoin: miter; stroke-linecap: square"/>
   </g>
   <g id="patch_18">
    <path d="M 57.6 151.58731 
L 414.72 151.58731 
" style="fill: none; stroke: #000000; stroke-width: 0.8; stroke-linejoin: miter; stroke-linecap: square"/>
   </g>
   <g id="text_13">
    <!-- yA - Container 1 -->
    <g transform="translate(187.48125 148.58731)scale(0.12 -0.12)">
     <defs>
      <path id="DejaVuSans-41" d="M 2188 4044 
L 1331 1722 
L 3047 1722 
L 2188 4044 
z
M 1831 4666 
L 2547 4666 
L 4325 0 
L 3669 0 
L 3244 1197 
L 1141 1197 
L 716 0 
L 50 0 
L 1831 4666 
z
" transform="scale(0.015625)"/>
     </defs>
     <use xlink:href="#DejaVuSans-79"/>
     <use xlink:href="#DejaVuSans-41" x="59.179688"/>
     <use xlink:href="#DejaVuSans-20" x="127.587891"/>
     <use xlink:href="#DejaVuSans-2d" x="159.375"/>
     <use xlink:href="#DejaVuSans-20" x="195.458984"/>
     <use xlink:href="#DejaVuSans-43" x="227.246094"/>
     <use xlink:href="#DejaVuSans-6f" x="297.070312"/>
     <use xlink:href="#DejaVuSans-6e" x="358.251953"/>
     <use xlink:href="#DejaVuSans-74" x="421.630859"/>
     <use xlink:href="#DejaVuSans-61" x="460.839844"/>
     <use xlink:href="#DejaVuSans-69" x="522.119141"/>
     <use xlink:href="#DejaVuSans-6e" x="549.902344"/>
     <use xlink:href="#DejaVuSans-65" x="613.28125"/>
     <use xlink:href="#DejaVuSans-72" x="674.804688"/>
     <use xlink:href="#DejaVuSans-20" x="715.917969"/>
     <use xlink:href="#DejaVuSans-31" x="747.705078"/>
    </g>
   </g>
  </g>
  <g id="axes_5">
   <g id="patch_19">
    <path d="M 57.6 252.526345 
L 414.72 252.526345 
L 414.72 206.644966 
L 57.6 206.644966 
z
" style="fill: #ffffff"/>
   </g>
   <g id="matplotlib.axis_9">
    <g id="xtick_25">
     <g id="line2d_72">
      <g>
       <use xlink:href="#m029b3b661e" x="73.832727" y="252.526345" style="stroke: #000000; stroke-width: 0.8"/>
      </g>
     </g>
    </g>
    <g id="xtick_26">
     <g id="line2d_73">
      <g>
       <use xlink:href="#m029b3b661e" x="116.550431" y="252.526345" style="stroke: #000000; stroke-width: 0.8"/>
      </g>
     </g>
    </g>
    <g id="xtick_27">
     <g id="line2d_74">
      <g>
       <use xlink:href="#m029b3b661e" x="159.268134" y="252.526345" style="stroke: #000000; stroke-width: 0.8"/>
      </g>
     </g>
    </g>
    <g id="xtick_28">
     <g id="line2d_75">
      <g>
       <use xlink:href="#m029b3b661e" x="201.985837" y="252.526345" style="stroke: #000000; stroke-width: 0.8"/>
      </g>
     </g>
    </g>
    <g id="xtick_29">
     <g id="line2d_76">
      <g>
       <use xlink:href="#m029b3b661e" x="244.703541" y="252.526345" style="stroke: #000000; stroke-width: 0.8"/>
      </g>
     </g>
    </g>
    <g id="xtick_30">
     <g id="line2d_77">
      <g>
       <use xlink:href="#m029b3b661e" x="287.421244" y="252.526345" style="stroke: #000000; stroke-width: 0.8"/>
      </g>
     </g>
    </g>
    <g id="xtick_31">
     <g id="line2d_78">
      <g>
       <use xlink:href="#m029b3b661e" x="330.138947" y="252.526345" style="stroke: #000000; stroke-width: 0.8"/>
      </g>
     </g>
    </g>
    <g id="xtick_32">
     <g id="line2d_79">
      <g>
       <use xlink:href="#m029b3b661e" x="372.856651" y="252.526345" style="stroke: #000000; stroke-width: 0.8"/>
      </g>
     </g>
    </g>
   </g>
   <g id="matplotlib.axis_10">
    <g id="ytick_9">
     <g id="line2d_80">
      <g>
       <use xlink:href="#mfdabaa9900" x="57.6" y="234.042089" style="stroke: #000000; stroke-width: 0.8"/>
      </g>
     </g>
     <g id="text_14">
      <!-- 0.90 -->
      <g transform="translate(28.334375 237.841308)scale(0.1 -0.1)">
       <defs>
        <path id="DejaVuSans-39" d="M 703 97 
L 703 672 
Q 941 559 1184 500 
Q 1428 441 1663 441 
Q 2288 441 2617 861 
Q 2947 1281 2994 2138 
Q 2813 1869 2534 1725 
Q 2256 1581 1919 1581 
Q 1219 1581 811 2004 
Q 403 2428 403 3163 
Q 403 3881 828 4315 
Q 1253 4750 1959 4750 
Q 2769 4750 3195 4129 
Q 3622 3509 3622 2328 
Q 3622 1225 3098 567 
Q 2575 -91 1691 -91 
Q 1453 -91 1209 -44 
Q 966 3 703 97 
z
M 1959 2075 
Q 2384 2075 2632 2365 
Q 2881 2656 2881 3163 
Q 2881 3666 2632 3958 
Q 2384 4250 1959 4250 
Q 1534 4250 1286 3958 
Q 1038 3666 1038 3163 
Q 1038 2656 1286 2365 
Q 1534 2075 1959 2075 
z
" transform="scale(0.015625)"/>
       </defs>
       <use xlink:href="#DejaVuSans-30"/>
       <use xlink:href="#DejaVuSans-2e" x="63.623047"/>
       <use xlink:href="#DejaVuSans-39" x="95.410156"/>
       <use xlink:href="#DejaVuSans-30" x="159.033203"/>
      </g>
     </g>
    </g>
    <g id="ytick_10">
     <g id="line2d_81">
      <g>
       <use xlink:href="#mfdabaa9900" x="57.6" y="207.03268" style="stroke: #000000; stroke-width: 0.8"/>
      </g>
     </g>
     <g id="text_15">
      <!-- 0.92 -->
      <g transform="translate(28.334375 210.831899)scale(0.1 -0.1)">
       <use xlink:href="#DejaVuSans-30"/>
       <use xlink:href="#DejaVuSans-2e" x="63.623047"/>
       <use xlink:href="#DejaVuSans-39" x="95.410156"/>
       <use xlink:href="#DejaVuSans-32" x="159.033203"/>
      </g>
     </g>
    </g>
   </g>
   <g id="line2d_82">
    <path d="M 73.832727 210.604802 
L 90.919809 210.206005 
L 108.00689 209.890426 
L 125.093971 209.640883 
L 142.181053 209.441406 
L 159.268134 209.280691 
L 176.355215 209.150551 
L 193.442297 209.044936 
L 210.529378 208.959326 
L 227.616459 208.890333 
L 244.703541 208.835449 
L 261.790622 208.792885 
L 278.877703 208.761485 
L 295.964785 208.74068 
L 313.051866 208.730483 
L 330.138947 208.731506 
L 347.226029 208.744992 
L 364.31311 208.772837 
L 381.400191 208.817412 
L 398.487273 208.878647 
" clip-path="url(#p7662a56011)" style="fill: none; stroke: #1f77b4; stroke-width: 1.5; stroke-linecap: square"/>
   </g>
   <g id="line2d_83">
    <path d="M 73.832727 234.293743 
L 90.919809 235.386303 
L 108.00689 235.998503 
L 125.093971 236.639326 
L 142.181053 237.320899 
L 159.268134 238.026582 
L 176.355215 238.749635 
L 193.442297 239.489271 
L 210.529378 240.247081 
L 227.616459 241.025594 
L 244.703541 241.827926 
L 261.790622 242.657914 
L 278.877703 243.520407 
L 295.964785 244.421553 
L 313.051866 245.368932 
L 330.138947 246.371053 
L 347.226029 247.434201 
L 364.31311 248.548351 
L 381.400191 249.637291 
L 398.487273 250.440828 
" clip-path="url(#p7662a56011)" style="fill: none; stroke: #ff7f0e; stroke-width: 1.5; stroke-linecap: square"/>
   </g>
   <g id="line2d_84">
    <path d="M 73.832727 234.050351 
L 90.919809 234.067492 
L 108.00689 234.112848 
L 125.093971 234.18905 
L 142.181053 234.295098 
L 159.268134 234.430308 
L 176.355215 234.595427 
L 193.442297 234.791706 
L 210.529378 235.019358 
L 227.616459 235.277031 
L 244.703541 235.562742 
L 261.790622 235.875516 
L 278.877703 236.216674 
L 295.964785 236.590141 
L 313.051866 237.001841 
L 330.138947 237.458545 
L 347.226029 237.966564 
L 364.31311 238.530117 
L 381.400191 239.148353 
L 398.487273 239.802412 
" clip-path="url(#p7662a56011)" style="fill: none; stroke: #2ca02c; stroke-width: 1.5; stroke-linecap: square"/>
   </g>
   <g id="line2d_85">
    <path d="M 73.832727 234.041391 
L 90.919809 234.03897 
L 108.00689 234.034834 
L 125.093971 234.029331 
L 142.181053 234.023078 
L 159.268134 234.016801 
L 176.355215 234.011188 
L 193.442297 234.006815 
L 210.529378 234.004111 
L 227.616459 234.003369 
L 244.703541 234.00478 
L 261.790622 234.008483 
L 278.877703 234.01461 
L 295.964785 234.023333 
L 313.051866 234.034911 
L 330.138947 234.049724 
L 347.226029 234.068312 
L 364.31311 234.091399 
L 381.400191 234.119868 
L 398.487273 234.154108 
" clip-path="url(#p7662a56011)" style="fill: none; stroke: #d62728; stroke-width: 1.5; stroke-linecap: square"/>
   </g>
   <g id="line2d_86">
    <path d="M 73.832727 233.72785 
L 90.919809 233.727057 
L 108.00689 233.725436 
L 125.093971 233.722826 
L 142.181053 233.719195 
L 159.268134 233.71463 
L 176.355215 233.709307 
L 193.442297 233.703462 
L 210.529378 233.697353 
L 227.616459 233.691232 
L 244.703541 233.685323 
L 261.790622 233.679815 
L 278.877703 233.674864 
L 295.964785 233.6706 
L 313.051866 233.667144 
L 330.138947 233.664629 
L 347.226029 233.663224 
L 364.31311 233.663158 
L 381.400191 233.664738 
L 398.487273 233.668204 
" clip-path="url(#p7662a56011)" style="fill: none; stroke: #9467bd; stroke-width: 1.5; stroke-linecap: square"/>
   </g>
   <g id="line2d_87">
    <path d="M 73.832727 231.138272 
L 90.919809 231.137422 
L 108.00689 231.135725 
L 125.093971 231.133021 
L 142.181053 231.129274 
L 159.268134 231.124564 
L 176.355215 231.119062 
L 193.442297 231.112997 
L 210.529378 231.106621 
L 227.616459 231.100178 
L 244.703541 231.093889 
L 261.790622 231.087938 
L 278.877703 231.082477 
L 295.964785 231.077631 
L 313.051866 231.073517 
L 330.138947 231.070262 
L 347.226029 231.068023 
L 364.31311 231.067018 
L 381.400191 231.067538 
L 398.487273 231.069777 
" clip-path="url(#p7662a56011)" style="fill: none; stroke: #8c564b; stroke-width: 1.5; stroke-linecap: square"/>
   </g>
   <g id="line2d_88">
    <path d="M 73.832727 230.921117 
L 90.919809 230.920285 
L 108.00689 230.918643 
L 125.093971 230.916025 
L 142.181053 230.912395 
L 159.268134 230.907831 
L 176.355215 230.902504 
L 193.442297 230.896642 
L 210.529378 230.890497 
L 227.616459 230.884313 
L 244.703541 230.878309 
L 261.790622 230.87267 
L 278.877703 230.867548 
L 295.964785 230.863068 
L 313.051866 230.859346 
L 330.138947 230.856509 
L 347.226029 230.854713 
L 364.31311 230.854176 
L 381.400191 230.855173 
L 398.487273 230.85774 
" clip-path="url(#p7662a56011)" style="fill: none; stroke: #e377c2; stroke-width: 1.5; stroke-linecap: square"/>
   </g>
   <g id="line2d_89">
    <path d="M 73.832727 230.91665 
L 90.919809 230.915812 
L 108.00689 230.91417 
L 125.093971 230.911556 
L 142.181053 230.907932 
L 159.268134 230.903376 
L 176.355215 230.89806 
L 193.442297 230.89221 
L 210.529378 230.886078 
L 227.616459 230.879908 
L 244.703541 230.87392 
L 261.790622 230.868298 
L 278.877703 230.863194 
L 295.964785 230.858733 
L 313.051866 230.855032 
L 330.138947 230.852217 
L 347.226029 230.850446 
L 364.31311 230.849931 
L 381.400191 230.850927 
L 398.487273 230.853332 
" clip-path="url(#p7662a56011)" style="fill: none; stroke: #7f7f7f; stroke-width: 1.5; stroke-linecap: square"/>
   </g>
   <g id="line2d_90">
    <path d="M 73.832727 221.067393 
L 90.919809 221.317818 
L 108.00689 221.538195 
L 125.093971 221.732239 
L 142.181053 221.903384 
L 159.268134 222.05447 
L 176.355215 222.187885 
L 193.442297 222.305655 
L 210.529378 222.4095 
L 227.616459 222.500876 
L 244.703541 222.581007 
L 261.790622 222.650912 
L 278.877703 222.711438 
L 295.964785 222.763286 
L 313.051866 222.807048 
L 330.138947 222.843237 
L 347.226029 222.872313 
L 364.31311 222.894711 
L 381.400191 222.910836 
L 398.487273 222.920833 
" clip-path="url(#p7662a56011)" style="fill: none; stroke: #bcbd22; stroke-width: 1.5; stroke-linecap: square"/>
   </g>
   <g id="line2d_91">
    <path d="M 73.832727 212.169974 
L 90.919809 212.478113 
L 108.00689 212.782751 
L 125.093971 213.07085 
L 142.181053 213.337674 
L 159.268134 213.581806 
L 176.355215 213.803401 
L 193.442297 214.003343 
L 210.529378 214.182812 
L 227.616459 214.343063 
L 244.703541 214.485308 
L 261.790622 214.610655 
L 278.877703 214.720092 
L 295.964785 214.814483 
L 313.051866 214.894583 
L 330.138947 214.961056 
L 347.226029 215.014495 
L 364.31311 215.055449 
L 381.400191 215.084417 
L 398.487273 215.101687 
" clip-path="url(#p7662a56011)" style="fill: none; stroke: #17becf; stroke-width: 1.5; stroke-linecap: square"/>
   </g>
   <g id="line2d_92">
    <path d="M 73.832727 211.306802 
L 90.919809 211.152336 
L 108.00689 211.08426 
L 125.093971 211.07095 
L 142.181053 211.092273 
L 159.268134 211.135133 
L 176.355215 211.190791 
L 193.442297 211.253306 
L 210.529378 211.31858 
L 227.616459 211.383752 
L 244.703541 211.446799 
L 261.790622 211.506283 
L 278.877703 211.561171 
L 295.964785 211.610727 
L 313.051866 211.654439 
L 330.138947 211.691975 
L 347.226029 211.723161 
L 364.31311 211.747963 
L 381.400191 211.766464 
L 398.487273 211.77869 
" clip-path="url(#p7662a56011)" style="fill: none; stroke: #1f77b4; stroke-width: 1.5; stroke-linecap: square"/>
   </g>
   <g id="line2d_93">
    <path d="M 73.832727 210.936903 
L 90.919809 210.622703 
L 108.00689 210.400096 
L 125.093971 210.243455 
L 142.181053 210.134067 
L 159.268134 210.059019 
L 176.355215 210.009138 
L 193.442297 209.977763 
L 210.529378 209.959965 
L 227.616459 209.952035 
L 244.703541 209.951143 
L 261.790622 209.955106 
L 278.877703 209.962227 
L 295.964785 209.971185 
L 313.051866 209.98097 
L 330.138947 209.990828 
L 347.226029 210.000238 
L 364.31311 210.008895 
L 381.400191 210.01668 
L 398.487273 210.023468 
" clip-path="url(#p7662a56011)" style="fill: none; stroke: #ff7f0e; stroke-width: 1.5; stroke-linecap: square"/>
   </g>
   <g id="line2d_94">
    <path d="M 73.832727 210.697314 
L 90.919809 210.316364 
L 108.00689 210.022173 
L 125.093971 209.794696 
L 142.181053 209.617055 
L 159.268134 209.477392 
L 176.355215 209.367136 
L 193.442297 209.279947 
L 210.529378 209.211034 
L 227.616459 209.156713 
L 244.703541 209.11411 
L 261.790622 209.080956 
L 278.877703 209.055442 
L 295.964785 209.036134 
L 313.051866 209.021902 
L 330.138947 209.011886 
L 347.226029 209.005469 
L 364.31311 209.002263 
L 381.400191 209.002085 
L 398.487273 209.00475 
" clip-path="url(#p7662a56011)" style="fill: none; stroke: #2ca02c; stroke-width: 1.5; stroke-linecap: square"/>
   </g>
   <g id="patch_20">
    <path d="M 57.6 252.526345 
L 57.6 206.644966 
" style="fill: none; stroke: #000000; stroke-width: 0.8; stroke-linejoin: miter; stroke-linecap: square"/>
   </g>
   <g id="patch_21">
    <path d="M 414.72 252.526345 
L 414.72 206.644966 
" style="fill: none; stroke: #000000; stroke-width: 0.8; stroke-linejoin: miter; stroke-linecap: square"/>
   </g>
   <g id="patch_22">
    <path d="M 57.6 252.526345 
L 414.72 252.526345 
" style="fill: none; stroke: #000000; stroke-width: 0.8; stroke-linejoin: miter; stroke-linecap: square"/>
   </g>
   <g id="patch_23">
    <path d="M 57.6 206.644966 
L 414.72 206.644966 
" style="fill: none; stroke: #000000; stroke-width: 0.8; stroke-linejoin: miter; stroke-linecap: square"/>
   </g>
   <g id="text_16">
    <!-- yB - Container 1 -->
    <g transform="translate(187.469063 203.644966)scale(0.12 -0.12)">
     <defs>
      <path id="DejaVuSans-42" d="M 1259 2228 
L 1259 519 
L 2272 519 
Q 2781 519 3026 730 
Q 3272 941 3272 1375 
Q 3272 1813 3026 2020 
Q 2781 2228 2272 2228 
L 1259 2228 
z
M 1259 4147 
L 1259 2741 
L 2194 2741 
Q 2656 2741 2882 2914 
Q 3109 3088 3109 3444 
Q 3109 3797 2882 3972 
Q 2656 4147 2194 4147 
L 1259 4147 
z
M 628 4666 
L 2241 4666 
Q 2963 4666 3353 4366 
Q 3744 4066 3744 3513 
Q 3744 3084 3544 2831 
Q 3344 2578 2956 2516 
Q 3422 2416 3680 2098 
Q 3938 1781 3938 1306 
Q 3938 681 3513 340 
Q 3088 0 2303 0 
L 628 0 
L 628 4666 
z
" transform="scale(0.015625)"/>
     </defs>
     <use xlink:href="#DejaVuSans-79"/>
     <use xlink:href="#DejaVuSans-42" x="59.179688"/>
     <use xlink:href="#DejaVuSans-20" x="127.783203"/>
     <use xlink:href="#DejaVuSans-2d" x="159.570312"/>
     <use xlink:href="#DejaVuSans-20" x="195.654297"/>
     <use xlink:href="#DejaVuSans-43" x="227.441406"/>
     <use xlink:href="#DejaVuSans-6f" x="297.265625"/>
     <use xlink:href="#DejaVuSans-6e" x="358.447266"/>
     <use xlink:href="#DejaVuSans-74" x="421.826172"/>
     <use xlink:href="#DejaVuSans-61" x="461.035156"/>
     <use xlink:href="#DejaVuSans-69" x="522.314453"/>
     <use xlink:href="#DejaVuSans-6e" x="550.097656"/>
     <use xlink:href="#DejaVuSans-65" x="613.476562"/>
     <use xlink:href="#DejaVuSans-72" x="675"/>
     <use xlink:href="#DejaVuSans-20" x="716.113281"/>
     <use xlink:href="#DejaVuSans-31" x="747.900391"/>
    </g>
   </g>
  </g>
  <g id="axes_6">
   <g id="patch_24">
    <path d="M 57.6 307.584 
L 414.72 307.584 
L 414.72 261.702621 
L 57.6 261.702621 
z
" style="fill: #ffffff"/>
   </g>
   <g id="matplotlib.axis_11">
    <g id="xtick_33">
     <g id="line2d_95">
      <g>
       <use xlink:href="#m029b3b661e" x="73.832727" y="307.584" style="stroke: #000000; stroke-width: 0.8"/>
      </g>
     </g>
     <g id="text_17">
      <!-- 0.0 -->
      <g transform="translate(65.881165 322.182437)scale(0.1 -0.1)">
       <use xlink:href="#DejaVuSans-30"/>
       <use xlink:href="#DejaVuSans-2e" x="63.623047"/>
       <use xlink:href="#DejaVuSans-30" x="95.410156"/>
      </g>
     </g>
    </g>
    <g id="xtick_34">
     <g id="line2d_96">
      <g>
       <use xlink:href="#m029b3b661e" x="116.550431" y="307.584" style="stroke: #000000; stroke-width: 0.8"/>
      </g>
     </g>
     <g id="text_18">
      <!-- 2.5 -->
      <g transform="translate(108.598868 322.182437)scale(0.1 -0.1)">
       <use xlink:href="#DejaVuSans-32"/>
       <use xlink:href="#DejaVuSans-2e" x="63.623047"/>
       <use xlink:href="#DejaVuSans-35" x="95.410156"/>
      </g>
     </g>
    </g>
    <g id="xtick_35">
     <g id="line2d_97">
      <g>
       <use xlink:href="#m029b3b661e" x="159.268134" y="307.584" style="stroke: #000000; stroke-width: 0.8"/>
      </g>
     </g>
     <g id="text_19">
      <!-- 5.0 -->
      <g transform="translate(151.316571 322.182437)scale(0.1 -0.1)">
       <use xlink:href="#DejaVuSans-35"/>
       <use xlink:href="#DejaVuSans-2e" x="63.623047"/>
       <use xlink:href="#DejaVuSans-30" x="95.410156"/>
      </g>
     </g>
    </g>
    <g id="xtick_36">
     <g id="line2d_98">
      <g>
       <use xlink:href="#m029b3b661e" x="201.985837" y="307.584" style="stroke: #000000; stroke-width: 0.8"/>
      </g>
     </g>
     <g id="text_20">
      <!-- 7.5 -->
      <g transform="translate(194.034275 322.182437)scale(0.1 -0.1)">
       <defs>
        <path id="DejaVuSans-37" d="M 525 4666 
L 3525 4666 
L 3525 4397 
L 1831 0 
L 1172 0 
L 2766 4134 
L 525 4134 
L 525 4666 
z
" transform="scale(0.015625)"/>
       </defs>
       <use xlink:href="#DejaVuSans-37"/>
       <use xlink:href="#DejaVuSans-2e" x="63.623047"/>
       <use xlink:href="#DejaVuSans-35" x="95.410156"/>
      </g>
     </g>
    </g>
    <g id="xtick_37">
     <g id="line2d_99">
      <g>
       <use xlink:href="#m029b3b661e" x="244.703541" y="307.584" style="stroke: #000000; stroke-width: 0.8"/>
      </g>
     </g>
     <g id="text_21">
      <!-- 10.0 -->
      <g transform="translate(233.570728 322.182437)scale(0.1 -0.1)">
       <use xlink:href="#DejaVuSans-31"/>
       <use xlink:href="#DejaVuSans-30" x="63.623047"/>
       <use xlink:href="#DejaVuSans-2e" x="127.246094"/>
       <use xlink:href="#DejaVuSans-30" x="159.033203"/>
      </g>
     </g>
    </g>
    <g id="xtick_38">
     <g id="line2d_100">
      <g>
       <use xlink:href="#m029b3b661e" x="287.421244" y="307.584" style="stroke: #000000; stroke-width: 0.8"/>
      </g>
     </g>
     <g id="text_22">
      <!-- 12.5 -->
      <g transform="translate(276.288432 322.182437)scale(0.1 -0.1)">
       <use xlink:href="#DejaVuSans-31"/>
       <use xlink:href="#DejaVuSans-32" x="63.623047"/>
       <use xlink:href="#DejaVuSans-2e" x="127.246094"/>
       <use xlink:href="#DejaVuSans-35" x="159.033203"/>
      </g>
     </g>
    </g>
    <g id="xtick_39">
     <g id="line2d_101">
      <g>
       <use xlink:href="#m029b3b661e" x="330.138947" y="307.584" style="stroke: #000000; stroke-width: 0.8"/>
      </g>
     </g>
     <g id="text_23">
      <!-- 15.0 -->
      <g transform="translate(319.006135 322.182437)scale(0.1 -0.1)">
       <use xlink:href="#DejaVuSans-31"/>
       <use xlink:href="#DejaVuSans-35" x="63.623047"/>
       <use xlink:href="#DejaVuSans-2e" x="127.246094"/>
       <use xlink:href="#DejaVuSans-30" x="159.033203"/>
      </g>
     </g>
    </g>
    <g id="xtick_40">
     <g id="line2d_102">
      <g>
       <use xlink:href="#m029b3b661e" x="372.856651" y="307.584" style="stroke: #000000; stroke-width: 0.8"/>
      </g>
     </g>
     <g id="text_24">
      <!-- 17.5 -->
      <g transform="translate(361.723838 322.182437)scale(0.1 -0.1)">
       <use xlink:href="#DejaVuSans-31"/>
       <use xlink:href="#DejaVuSans-37" x="63.623047"/>
       <use xlink:href="#DejaVuSans-2e" x="127.246094"/>
       <use xlink:href="#DejaVuSans-35" x="159.033203"/>
      </g>
     </g>
    </g>
    <g id="text_25">
     <!-- position z -->
     <g transform="translate(212.142031 335.860562)scale(0.1 -0.1)">
      <defs>
       <path id="DejaVuSans-70" d="M 1159 525 
L 1159 -1331 
L 581 -1331 
L 581 3500 
L 1159 3500 
L 1159 2969 
Q 1341 3281 1617 3432 
Q 1894 3584 2278 3584 
Q 2916 3584 3314 3078 
Q 3713 2572 3713 1747 
Q 3713 922 3314 415 
Q 2916 -91 2278 -91 
Q 1894 -91 1617 61 
Q 1341 213 1159 525 
z
M 3116 1747 
Q 3116 2381 2855 2742 
Q 2594 3103 2138 3103 
Q 1681 3103 1420 2742 
Q 1159 2381 1159 1747 
Q 1159 1113 1420 752 
Q 1681 391 2138 391 
Q 2594 391 2855 752 
Q 3116 1113 3116 1747 
z
" transform="scale(0.015625)"/>
      </defs>
      <use xlink:href="#DejaVuSans-70"/>
      <use xlink:href="#DejaVuSans-6f" x="63.476562"/>
      <use xlink:href="#DejaVuSans-73" x="124.658203"/>
      <use xlink:href="#DejaVuSans-69" x="176.757812"/>
      <use xlink:href="#DejaVuSans-74" x="204.541016"/>
      <use xlink:href="#DejaVuSans-69" x="243.75"/>
      <use xlink:href="#DejaVuSans-6f" x="271.533203"/>
      <use xlink:href="#DejaVuSans-6e" x="332.714844"/>
      <use xlink:href="#DejaVuSans-20" x="396.09375"/>
      <use xlink:href="#DejaVuSans-7a" x="427.880859"/>
     </g>
    </g>
   </g>
   <g id="matplotlib.axis_12">
    <g id="ytick_11">
     <g id="line2d_103">
      <g>
       <use xlink:href="#mfdabaa9900" x="57.6" y="298.419455" style="stroke: #000000; stroke-width: 0.8"/>
      </g>
     </g>
     <g id="text_26">
      <!-- 0.050 -->
      <g transform="translate(21.971875 302.218674)scale(0.1 -0.1)">
       <use xlink:href="#DejaVuSans-30"/>
       <use xlink:href="#DejaVuSans-2e" x="63.623047"/>
       <use xlink:href="#DejaVuSans-30" x="95.410156"/>
       <use xlink:href="#DejaVuSans-35" x="159.033203"/>
       <use xlink:href="#DejaVuSans-30" x="222.65625"/>
      </g>
     </g>
    </g>
    <g id="ytick_12">
     <g id="line2d_104">
      <g>
       <use xlink:href="#mfdabaa9900" x="57.6" y="274.647679" style="stroke: #000000; stroke-width: 0.8"/>
      </g>
     </g>
     <g id="text_27">
      <!-- 0.052 -->
      <g transform="translate(21.971875 278.446898)scale(0.1 -0.1)">
       <use xlink:href="#DejaVuSans-30"/>
       <use xlink:href="#DejaVuSans-2e" x="63.623047"/>
       <use xlink:href="#DejaVuSans-30" x="95.410156"/>
       <use xlink:href="#DejaVuSans-35" x="159.033203"/>
       <use xlink:href="#DejaVuSans-32" x="222.65625"/>
      </g>
     </g>
    </g>
   </g>
   <g id="line2d_105">
    <path d="M 73.832727 264.893107 
L 90.919809 264.730929 
L 108.00689 264.651706 
L 125.093971 264.631736 
L 142.181053 264.654389 
L 159.268134 264.707573 
L 176.355215 264.781742 
L 193.442297 264.868845 
L 210.529378 264.961698 
L 227.616459 265.053539 
L 244.703541 265.137604 
L 261.790622 265.206685 
L 278.877703 265.252616 
L 295.964785 265.265694 
L 313.051866 265.234036 
L 330.138947 265.142909 
L 347.226029 264.974046 
L 364.31311 264.705133 
L 381.400191 264.310991 
L 398.487273 263.788138 
" clip-path="url(#pefbd2fdd3d)" style="fill: none; stroke: #1f77b4; stroke-width: 1.5; stroke-linecap: square"/>
   </g>
   <g id="line2d_106">
    <path d="M 73.832727 298.821354 
L 90.919809 299.945948 
L 108.00689 300.32613 
L 125.093971 300.621286 
L 142.181053 300.910387 
L 159.268134 301.211104 
L 176.355215 301.530118 
L 193.442297 301.869137 
L 210.529378 302.226887 
L 227.616459 302.600322 
L 244.703541 302.985333 
L 261.790622 303.377035 
L 278.877703 303.769705 
L 295.964785 304.156427 
L 313.051866 304.528435 
L 330.138947 304.874031 
L 347.226029 305.176179 
L 364.31311 305.405255 
L 381.400191 305.498483 
L 398.487273 305.354998 
" clip-path="url(#pefbd2fdd3d)" style="fill: none; stroke: #ff7f0e; stroke-width: 1.5; stroke-linecap: square"/>
   </g>
   <g id="line2d_107">
    <path d="M 73.832727 298.556473 
L 90.919809 298.82116 
L 108.00689 299.055911 
L 125.093971 299.236574 
L 142.181053 299.373342 
L 159.268134 299.483789 
L 176.355215 299.584749 
L 193.442297 299.689109 
L 210.529378 299.804692 
L 227.616459 299.934566 
L 244.703541 300.078253 
L 261.790622 300.233169 
L 278.877703 300.395649 
L 295.964785 300.561218 
L 313.051866 300.724148 
L 330.138947 300.876518 
L 347.226029 301.007003 
L 364.31311 301.099524 
L 381.400191 301.133111 
L 398.487273 301.100323 
" clip-path="url(#pefbd2fdd3d)" style="fill: none; stroke: #2ca02c; stroke-width: 1.5; stroke-linecap: square"/>
   </g>
   <g id="line2d_108">
    <path d="M 73.832727 298.428801 
L 90.919809 298.456904 
L 108.00689 298.504336 
L 125.093971 298.568633 
L 142.181053 298.645077 
L 159.268134 298.728108 
L 176.355215 298.812526 
L 193.442297 298.894234 
L 210.529378 298.9705 
L 227.616459 299.039879 
L 244.703541 299.101907 
L 261.790622 299.156706 
L 278.877703 299.204555 
L 295.964785 299.24549 
L 313.051866 299.278932 
L 330.138947 299.303343 
L 347.226029 299.315886 
L 364.31311 299.312085 
L 381.400191 299.285599 
L 398.487273 299.230564 
" clip-path="url(#pefbd2fdd3d)" style="fill: none; stroke: #d62728; stroke-width: 1.5; stroke-linecap: square"/>
   </g>
   <g id="line2d_109">
    <path d="M 73.832727 297.969105 
L 90.919809 297.97842 
L 108.00689 297.995764 
L 125.093971 298.022472 
L 142.181053 298.058902 
L 159.268134 298.10439 
L 176.355215 298.157465 
L 193.442297 298.216147 
L 210.529378 298.278269 
L 227.616459 298.341731 
L 244.703541 298.404679 
L 261.790622 298.46558 
L 278.877703 298.523212 
L 295.964785 298.576587 
L 313.051866 298.624806 
L 330.138947 298.666881 
L 347.226029 298.701522 
L 364.31311 298.726904 
L 381.400191 298.740446 
L 398.487273 298.73935 
" clip-path="url(#pefbd2fdd3d)" style="fill: none; stroke: #9467bd; stroke-width: 1.5; stroke-linecap: square"/>
   </g>
   <g id="line2d_110">
    <path d="M 73.832727 295.062872 
L 90.919809 295.072123 
L 108.00689 295.089337 
L 125.093971 295.115807 
L 142.181053 295.151888 
L 159.268134 295.19694 
L 176.355215 295.249521 
L 193.442297 295.307693 
L 210.529378 295.369319 
L 227.616459 295.432327 
L 244.703541 295.494873 
L 261.790622 295.555428 
L 278.877703 295.612769 
L 295.964785 295.665903 
L 313.051866 295.713932 
L 330.138947 295.755884 
L 347.226029 295.790501 
L 364.31311 295.816019 
L 381.400191 295.829952 
L 398.487273 295.829659 
" clip-path="url(#pefbd2fdd3d)" style="fill: none; stroke: #8c564b; stroke-width: 1.5; stroke-linecap: square"/>
   </g>
   <g id="line2d_111">
    <path d="M 73.832727 294.822919 
L 90.919809 294.832191 
L 108.00689 294.849475 
L 125.093971 294.87604 
L 142.181053 294.91224 
L 159.268134 294.957436 
L 176.355215 295.010192 
L 193.442297 295.068571 
L 210.529378 295.130442 
L 227.616459 295.193732 
L 244.703541 295.2566 
L 261.790622 295.317517 
L 278.877703 295.375259 
L 295.964785 295.428831 
L 313.051866 295.477336 
L 330.138947 295.5198 
L 347.226029 295.554967 
L 364.31311 295.581073 
L 381.400191 295.595637 
L 398.487273 295.596053 
" clip-path="url(#pefbd2fdd3d)" style="fill: none; stroke: #e377c2; stroke-width: 1.5; stroke-linecap: square"/>
   </g>
   <g id="line2d_112">
    <path d="M 73.832727 294.818064 
L 90.919809 294.827327 
L 108.00689 294.84462 
L 125.093971 294.871192 
L 142.181053 294.907395 
L 159.268134 294.952591 
L 176.355215 295.005345 
L 193.442297 295.063722 
L 210.529378 295.125593 
L 227.616459 295.188887 
L 244.703541 295.251762 
L 261.790622 295.312689 
L 278.877703 295.370444 
L 295.964785 295.424032 
L 313.051866 295.472554 
L 330.138947 295.515035 
L 347.226029 295.550217 
L 364.31311 295.576335 
L 381.400191 295.590901 
L 398.487273 295.591352 
" clip-path="url(#pefbd2fdd3d)" style="fill: none; stroke: #7f7f7f; stroke-width: 1.5; stroke-linecap: square"/>
   </g>
   <g id="line2d_113">
    <path d="M 73.832727 282.15198 
L 90.919809 282.600713 
L 108.00689 282.998045 
L 125.093971 283.355202 
L 142.181053 283.680364 
L 159.268134 283.978959 
L 176.355215 284.254367 
L 193.442297 284.508543 
L 210.529378 284.742533 
L 227.616459 284.956873 
L 244.703541 285.151863 
L 261.790622 285.327728 
L 278.877703 285.484673 
L 295.964785 285.622862 
L 313.051866 285.742329 
L 330.138947 285.842848 
L 347.226029 285.923755 
L 364.31311 285.983758 
L 381.400191 286.020766 
L 398.487273 286.032627 
" clip-path="url(#pefbd2fdd3d)" style="fill: none; stroke: #bcbd22; stroke-width: 1.5; stroke-linecap: square"/>
   </g>
   <g id="line2d_114">
    <path d="M 73.832727 266.687802 
L 90.919809 267.926522 
L 108.00689 268.98453 
L 125.093971 269.898122 
L 142.181053 270.695528 
L 159.268134 271.397479 
L 176.355215 272.019134 
L 193.442297 272.571606 
L 210.529378 273.063129 
L 227.616459 273.499929 
L 244.703541 273.886834 
L 261.790622 274.227684 
L 278.877703 274.525577 
L 295.964785 274.782987 
L 313.051866 275.001788 
L 330.138947 275.183209 
L 347.226029 275.32773 
L 364.31311 275.434945 
L 381.400191 275.503457 
L 398.487273 275.531629 
" clip-path="url(#pefbd2fdd3d)" style="fill: none; stroke: #17becf; stroke-width: 1.5; stroke-linecap: square"/>
   </g>
   <g id="line2d_115">
    <path d="M 73.832727 265.434045 
L 90.919809 265.834388 
L 108.00689 266.265228 
L 125.093971 266.703458 
L 142.181053 267.136251 
L 159.268134 267.555661 
L 176.355215 267.956465 
L 193.442297 268.335056 
L 210.529378 268.688889 
L 227.616459 269.016188 
L 244.703541 269.315777 
L 261.790622 269.586942 
L 278.877703 269.829302 
L 295.964785 270.042656 
L 313.051866 270.226819 
L 330.138947 270.381444 
L 347.226029 270.505824 
L 364.31311 270.598686 
L 381.400191 270.658045 
L 398.487273 270.68192 
" clip-path="url(#pefbd2fdd3d)" style="fill: none; stroke: #1f77b4; stroke-width: 1.5; stroke-linecap: square"/>
   </g>
   <g id="line2d_116">
    <path d="M 73.832727 265.117169 
L 90.919809 265.177657 
L 108.00689 265.306269 
L 125.093971 265.479102 
L 142.181053 265.680281 
L 159.268134 265.898388 
L 176.355215 266.124753 
L 193.442297 266.352562 
L 210.529378 266.576389 
L 227.616459 266.791927 
L 244.703541 266.995808 
L 261.790622 267.185438 
L 278.877703 267.358839 
L 295.964785 267.514469 
L 313.051866 267.651029 
L 330.138947 267.767261 
L 347.226029 267.86173 
L 364.31311 267.932611 
L 381.400191 267.97753 
L 398.487273 267.994264 
" clip-path="url(#pefbd2fdd3d)" style="fill: none; stroke: #ff7f0e; stroke-width: 1.5; stroke-linecap: square"/>
   </g>
   <g id="line2d_117">
    <path d="M 73.832727 264.940895 
L 90.919809 264.84319 
L 108.00689 264.820968 
L 125.093971 264.853057 
L 142.181053 264.924281 
L 159.268134 265.023376 
L 176.355215 265.14151 
L 193.442297 265.27152 
L 210.529378 265.407528 
L 227.616459 265.544729 
L 244.703541 265.679242 
L 261.790622 265.807975 
L 278.877703 265.928479 
L 295.964785 266.038778 
L 313.051866 266.137187 
L 330.138947 266.222114 
L 347.226029 266.291847 
L 364.31311 266.344338 
L 381.400191 266.377059 
L 398.487273 266.38769 
" clip-path="url(#pefbd2fdd3d)" style="fill: none; stroke: #2ca02c; stroke-width: 1.5; stroke-linecap: square"/>
   </g>
   <g id="patch_25">
    <path d="M 57.6 307.584 
L 57.6 261.702621 
" style="fill: none; stroke: #000000; stroke-width: 0.8; stroke-linejoin: miter; stroke-linecap: square"/>
   </g>
   <g id="patch_26">
    <path d="M 414.72 307.584 
L 414.72 261.702621 
" style="fill: none; stroke: #000000; stroke-width: 0.8; stroke-linejoin: miter; stroke-linecap: square"/>
   </g>
   <g id="patch_27">
    <path d="M 57.6 307.584 
L 414.72 307.584 
" style="fill: none; stroke: #000000; stroke-width: 0.8; stroke-linejoin: miter; stroke-linecap: square"/>
   </g>
   <g id="patch_28">
    <path d="M 57.6 261.702621 
L 414.72 261.702621 
" style="fill: none; stroke: #000000; stroke-width: 0.8; stroke-linejoin: miter; stroke-linecap: square"/>
   </g>
   <g id="text_28">
    <!-- yC - Container 1 -->
    <g transform="translate(187.395938 258.702621)scale(0.12 -0.12)">
     <use xlink:href="#DejaVuSans-79"/>
     <use xlink:href="#DejaVuSans-43" x="59.179688"/>
     <use xlink:href="#DejaVuSans-20" x="129.003906"/>
     <use xlink:href="#DejaVuSans-2d" x="160.791016"/>
     <use xlink:href="#DejaVuSans-20" x="196.875"/>
     <use xlink:href="#DejaVuSans-43" x="228.662109"/>
     <use xlink:href="#DejaVuSans-6f" x="298.486328"/>
     <use xlink:href="#DejaVuSans-6e" x="359.667969"/>
     <use xlink:href="#DejaVuSans-74" x="423.046875"/>
     <use xlink:href="#DejaVuSans-61" x="462.255859"/>
     <use xlink:href="#DejaVuSans-69" x="523.535156"/>
     <use xlink:href="#DejaVuSans-6e" x="551.318359"/>
     <use xlink:href="#DejaVuSans-65" x="614.697266"/>
     <use xlink:href="#DejaVuSans-72" x="676.220703"/>
     <use xlink:href="#DejaVuSans-20" x="717.333984"/>
     <use xlink:href="#DejaVuSans-31" x="749.121094"/>
    </g>
   </g>
  </g>
  <g id="legend_1">
   <g id="patch_29">
    <path d="M 372.146875 269.707812 
L 457.8 269.707812 
Q 459.8 269.707812 459.8 267.707812 
L 459.8 77.892187 
Q 459.8 75.892187 457.8 75.892187 
L 372.146875 75.892187 
Q 370.146875 75.892187 370.146875 77.892187 
L 370.146875 267.707812 
Q 370.146875 269.707812 372.146875 269.707812 
z
" style="fill: #ffffff; opacity: 0.8; stroke: #cccccc; stroke-linejoin: miter"/>
   </g>
   <g id="line2d_118">
    <path d="M 374.146875 83.990625 
L 384.146875 83.990625 
L 394.146875 83.990625 
" style="fill: none; stroke: #1f77b4; stroke-width: 1.5; stroke-linecap: square"/>
   </g>
   <g id="text_29">
    <!-- t=0.0000 -->
    <g transform="translate(402.146875 87.490625)scale(0.1 -0.1)">
     <defs>
      <path id="DejaVuSans-3d" d="M 678 2906 
L 4684 2906 
L 4684 2381 
L 678 2381 
L 678 2906 
z
M 678 1631 
L 4684 1631 
L 4684 1100 
L 678 1100 
L 678 1631 
z
" transform="scale(0.015625)"/>
     </defs>
     <use xlink:href="#DejaVuSans-74"/>
     <use xlink:href="#DejaVuSans-3d" x="39.208984"/>
     <use xlink:href="#DejaVuSans-30" x="122.998047"/>
     <use xlink:href="#DejaVuSans-2e" x="186.621094"/>
     <use xlink:href="#DejaVuSans-30" x="218.408203"/>
     <use xlink:href="#DejaVuSans-30" x="282.03125"/>
     <use xlink:href="#DejaVuSans-30" x="345.654297"/>
     <use xlink:href="#DejaVuSans-30" x="409.277344"/>
    </g>
   </g>
   <g id="line2d_119">
    <path d="M 374.146875 98.66875 
L 384.146875 98.66875 
L 394.146875 98.66875 
" style="fill: none; stroke: #ff7f0e; stroke-width: 1.5; stroke-linecap: square"/>
   </g>
   <g id="text_30">
    <!-- t=8.0000 -->
    <g transform="translate(402.146875 102.16875)scale(0.1 -0.1)">
     <defs>
      <path id="DejaVuSans-38" d="M 2034 2216 
Q 1584 2216 1326 1975 
Q 1069 1734 1069 1313 
Q 1069 891 1326 650 
Q 1584 409 2034 409 
Q 2484 409 2743 651 
Q 3003 894 3003 1313 
Q 3003 1734 2745 1975 
Q 2488 2216 2034 2216 
z
M 1403 2484 
Q 997 2584 770 2862 
Q 544 3141 544 3541 
Q 544 4100 942 4425 
Q 1341 4750 2034 4750 
Q 2731 4750 3128 4425 
Q 3525 4100 3525 3541 
Q 3525 3141 3298 2862 
Q 3072 2584 2669 2484 
Q 3125 2378 3379 2068 
Q 3634 1759 3634 1313 
Q 3634 634 3220 271 
Q 2806 -91 2034 -91 
Q 1263 -91 848 271 
Q 434 634 434 1313 
Q 434 1759 690 2068 
Q 947 2378 1403 2484 
z
M 1172 3481 
Q 1172 3119 1398 2916 
Q 1625 2713 2034 2713 
Q 2441 2713 2670 2916 
Q 2900 3119 2900 3481 
Q 2900 3844 2670 4047 
Q 2441 4250 2034 4250 
Q 1625 4250 1398 4047 
Q 1172 3844 1172 3481 
z
" transform="scale(0.015625)"/>
     </defs>
     <use xlink:href="#DejaVuSans-74"/>
     <use xlink:href="#DejaVuSans-3d" x="39.208984"/>
     <use xlink:href="#DejaVuSans-38" x="122.998047"/>
     <use xlink:href="#DejaVuSans-2e" x="186.621094"/>
     <use xlink:href="#DejaVuSans-30" x="218.408203"/>
     <use xlink:href="#DejaVuSans-30" x="282.03125"/>
     <use xlink:href="#DejaVuSans-30" x="345.654297"/>
     <use xlink:href="#DejaVuSans-30" x="409.277344"/>
    </g>
   </g>
   <g id="line2d_120">
    <path d="M 374.146875 113.346875 
L 384.146875 113.346875 
L 394.146875 113.346875 
" style="fill: none; stroke: #2ca02c; stroke-width: 1.5; stroke-linecap: square"/>
   </g>
   <g id="text_31">
    <!-- t=16.0000 -->
    <g transform="translate(402.146875 116.846875)scale(0.1 -0.1)">
     <use xlink:href="#DejaVuSans-74"/>
     <use xlink:href="#DejaVuSans-3d" x="39.208984"/>
     <use xlink:href="#DejaVuSans-31" x="122.998047"/>
     <use xlink:href="#DejaVuSans-36" x="186.621094"/>
     <use xlink:href="#DejaVuSans-2e" x="250.244141"/>
     <use xlink:href="#DejaVuSans-30" x="282.03125"/>
     <use xlink:href="#DejaVuSans-30" x="345.654297"/>
     <use xlink:href="#DejaVuSans-30" x="409.277344"/>
     <use xlink:href="#DejaVuSans-30" x="472.900391"/>
    </g>
   </g>
   <g id="line2d_121">
    <path d="M 374.146875 128.025 
L 384.146875 128.025 
L 394.146875 128.025 
" style="fill: none; stroke: #d62728; stroke-width: 1.5; stroke-linecap: square"/>
   </g>
   <g id="text_32">
    <!-- t=24.0000 -->
    <g transform="translate(402.146875 131.525)scale(0.1 -0.1)">
     <use xlink:href="#DejaVuSans-74"/>
     <use xlink:href="#DejaVuSans-3d" x="39.208984"/>
     <use xlink:href="#DejaVuSans-32" x="122.998047"/>
     <use xlink:href="#DejaVuSans-34" x="186.621094"/>
     <use xlink:href="#DejaVuSans-2e" x="250.244141"/>
     <use xlink:href="#DejaVuSans-30" x="282.03125"/>
     <use xlink:href="#DejaVuSans-30" x="345.654297"/>
     <use xlink:href="#DejaVuSans-30" x="409.277344"/>
     <use xlink:href="#DejaVuSans-30" x="472.900391"/>
    </g>
   </g>
   <g id="line2d_122">
    <path d="M 374.146875 142.703125 
L 384.146875 142.703125 
L 394.146875 142.703125 
" style="fill: none; stroke: #9467bd; stroke-width: 1.5; stroke-linecap: square"/>
   </g>
   <g id="text_33">
    <!-- t=32.0000 -->
    <g transform="translate(402.146875 146.203125)scale(0.1 -0.1)">
     <defs>
      <path id="DejaVuSans-33" d="M 2597 2516 
Q 3050 2419 3304 2112 
Q 3559 1806 3559 1356 
Q 3559 666 3084 287 
Q 2609 -91 1734 -91 
Q 1441 -91 1130 -33 
Q 819 25 488 141 
L 488 750 
Q 750 597 1062 519 
Q 1375 441 1716 441 
Q 2309 441 2620 675 
Q 2931 909 2931 1356 
Q 2931 1769 2642 2001 
Q 2353 2234 1838 2234 
L 1294 2234 
L 1294 2753 
L 1863 2753 
Q 2328 2753 2575 2939 
Q 2822 3125 2822 3475 
Q 2822 3834 2567 4026 
Q 2313 4219 1838 4219 
Q 1578 4219 1281 4162 
Q 984 4106 628 3988 
L 628 4550 
Q 988 4650 1302 4700 
Q 1616 4750 1894 4750 
Q 2613 4750 3031 4423 
Q 3450 4097 3450 3541 
Q 3450 3153 3228 2886 
Q 3006 2619 2597 2516 
z
" transform="scale(0.015625)"/>
     </defs>
     <use xlink:href="#DejaVuSans-74"/>
     <use xlink:href="#DejaVuSans-3d" x="39.208984"/>
     <use xlink:href="#DejaVuSans-33" x="122.998047"/>
     <use xlink:href="#DejaVuSans-32" x="186.621094"/>
     <use xlink:href="#DejaVuSans-2e" x="250.244141"/>
     <use xlink:href="#DejaVuSans-30" x="282.03125"/>
     <use xlink:href="#DejaVuSans-30" x="345.654297"/>
     <use xlink:href="#DejaVuSans-30" x="409.277344"/>
     <use xlink:href="#DejaVuSans-30" x="472.900391"/>
    </g>
   </g>
   <g id="line2d_123">
    <path d="M 374.146875 157.38125 
L 384.146875 157.38125 
L 394.146875 157.38125 
" style="fill: none; stroke: #8c564b; stroke-width: 1.5; stroke-linecap: square"/>
   </g>
   <g id="text_34">
    <!-- t=40.0000 -->
    <g transform="translate(402.146875 160.88125)scale(0.1 -0.1)">
     <use xlink:href="#DejaVuSans-74"/>
     <use xlink:href="#DejaVuSans-3d" x="39.208984"/>
     <use xlink:href="#DejaVuSans-34" x="122.998047"/>
     <use xlink:href="#DejaVuSans-30" x="186.621094"/>
     <use xlink:href="#DejaVuSans-2e" x="250.244141"/>
     <use xlink:href="#DejaVuSans-30" x="282.03125"/>
     <use xlink:href="#DejaVuSans-30" x="345.654297"/>
     <use xlink:href="#DejaVuSans-30" x="409.277344"/>
     <use xlink:href="#DejaVuSans-30" x="472.900391"/>
    </g>
   </g>
   <g id="line2d_124">
    <path d="M 374.146875 172.059375 
L 384.146875 172.059375 
L 394.146875 172.059375 
" style="fill: none; stroke: #e377c2; stroke-width: 1.5; stroke-linecap: square"/>
   </g>
   <g id="text_35">
    <!-- t=48.0000 -->
    <g transform="translate(402.146875 175.559375)scale(0.1 -0.1)">
     <use xlink:href="#DejaVuSans-74"/>
     <use xlink:href="#DejaVuSans-3d" x="39.208984"/>
     <use xlink:href="#DejaVuSans-34" x="122.998047"/>
     <use xlink:href="#DejaVuSans-38" x="186.621094"/>
     <use xlink:href="#DejaVuSans-2e" x="250.244141"/>
     <use xlink:href="#DejaVuSans-30" x="282.03125"/>
     <use xlink:href="#DejaVuSans-30" x="345.654297"/>
     <use xlink:href="#DejaVuSans-30" x="409.277344"/>
     <use xlink:href="#DejaVuSans-30" x="472.900391"/>
    </g>
   </g>
   <g id="line2d_125">
    <path d="M 374.146875 186.7375 
L 384.146875 186.7375 
L 394.146875 186.7375 
" style="fill: none; stroke: #7f7f7f; stroke-width: 1.5; stroke-linecap: square"/>
   </g>
   <g id="text_36">
    <!-- t=56.0000 -->
    <g transform="translate(402.146875 190.2375)scale(0.1 -0.1)">
     <use xlink:href="#DejaVuSans-74"/>
     <use xlink:href="#DejaVuSans-3d" x="39.208984"/>
     <use xlink:href="#DejaVuSans-35" x="122.998047"/>
     <use xlink:href="#DejaVuSans-36" x="186.621094"/>
     <use xlink:href="#DejaVuSans-2e" x="250.244141"/>
     <use xlink:href="#DejaVuSans-30" x="282.03125"/>
     <use xlink:href="#DejaVuSans-30" x="345.654297"/>
     <use xlink:href="#DejaVuSans-30" x="409.277344"/>
     <use xlink:href="#DejaVuSans-30" x="472.900391"/>
    </g>
   </g>
   <g id="line2d_126">
    <path d="M 374.146875 201.415625 
L 384.146875 201.415625 
L 394.146875 201.415625 
" style="fill: none; stroke: #bcbd22; stroke-width: 1.5; stroke-linecap: square"/>
   </g>
   <g id="text_37">
    <!-- t=64.0000 -->
    <g transform="translate(402.146875 204.915625)scale(0.1 -0.1)">
     <use xlink:href="#DejaVuSans-74"/>
     <use xlink:href="#DejaVuSans-3d" x="39.208984"/>
     <use xlink:href="#DejaVuSans-36" x="122.998047"/>
     <use xlink:href="#DejaVuSans-34" x="186.621094"/>
     <use xlink:href="#DejaVuSans-2e" x="250.244141"/>
     <use xlink:href="#DejaVuSans-30" x="282.03125"/>
     <use xlink:href="#DejaVuSans-30" x="345.654297"/>
     <use xlink:href="#DejaVuSans-30" x="409.277344"/>
     <use xlink:href="#DejaVuSans-30" x="472.900391"/>
    </g>
   </g>
   <g id="line2d_127">
    <path d="M 374.146875 216.09375 
L 384.146875 216.09375 
L 394.146875 216.09375 
" style="fill: none; stroke: #17becf; stroke-width: 1.5; stroke-linecap: square"/>
   </g>
   <g id="text_38">
    <!-- t=72.0000 -->
    <g transform="translate(402.146875 219.59375)scale(0.1 -0.1)">
     <use xlink:href="#DejaVuSans-74"/>
     <use xlink:href="#DejaVuSans-3d" x="39.208984"/>
     <use xlink:href="#DejaVuSans-37" x="122.998047"/>
     <use xlink:href="#DejaVuSans-32" x="186.621094"/>
     <use xlink:href="#DejaVuSans-2e" x="250.244141"/>
     <use xlink:href="#DejaVuSans-30" x="282.03125"/>
     <use xlink:href="#DejaVuSans-30" x="345.654297"/>
     <use xlink:href="#DejaVuSans-30" x="409.277344"/>
     <use xlink:href="#DejaVuSans-30" x="472.900391"/>
    </g>
   </g>
   <g id="line2d_128">
    <path d="M 374.146875 230.771875 
L 384.146875 230.771875 
L 394.146875 230.771875 
" style="fill: none; stroke: #1f77b4; stroke-width: 1.5; stroke-linecap: square"/>
   </g>
   <g id="text_39">
    <!-- t=80.0000 -->
    <g transform="translate(402.146875 234.271875)scale(0.1 -0.1)">
     <use xlink:href="#DejaVuSans-74"/>
     <use xlink:href="#DejaVuSans-3d" x="39.208984"/>
     <use xlink:href="#DejaVuSans-38" x="122.998047"/>
     <use xlink:href="#DejaVuSans-30" x="186.621094"/>
     <use xlink:href="#DejaVuSans-2e" x="250.244141"/>
     <use xlink:href="#DejaVuSans-30" x="282.03125"/>
     <use xlink:href="#DejaVuSans-30" x="345.654297"/>
     <use xlink:href="#DejaVuSans-30" x="409.277344"/>
     <use xlink:href="#DejaVuSans-30" x="472.900391"/>
    </g>
   </g>
   <g id="line2d_129">
    <path d="M 374.146875 245.45 
L 384.146875 245.45 
L 394.146875 245.45 
" style="fill: none; stroke: #ff7f0e; stroke-width: 1.5; stroke-linecap: square"/>
   </g>
   <g id="text_40">
    <!-- t=88.0000 -->
    <g transform="translate(402.146875 248.95)scale(0.1 -0.1)">
     <use xlink:href="#DejaVuSans-74"/>
     <use xlink:href="#DejaVuSans-3d" x="39.208984"/>
     <use xlink:href="#DejaVuSans-38" x="122.998047"/>
     <use xlink:href="#DejaVuSans-38" x="186.621094"/>
     <use xlink:href="#DejaVuSans-2e" x="250.244141"/>
     <use xlink:href="#DejaVuSans-30" x="282.03125"/>
     <use xlink:href="#DejaVuSans-30" x="345.654297"/>
     <use xlink:href="#DejaVuSans-30" x="409.277344"/>
     <use xlink:href="#DejaVuSans-30" x="472.900391"/>
    </g>
   </g>
   <g id="line2d_130">
    <path d="M 374.146875 260.128125 
L 384.146875 260.128125 
L 394.146875 260.128125 
" style="fill: none; stroke: #2ca02c; stroke-width: 1.5; stroke-linecap: square"/>
   </g>
   <g id="text_41">
    <!-- t=96.0000 -->
    <g transform="translate(402.146875 263.628125)scale(0.1 -0.1)">
     <use xlink:href="#DejaVuSans-74"/>
     <use xlink:href="#DejaVuSans-3d" x="39.208984"/>
     <use xlink:href="#DejaVuSans-39" x="122.998047"/>
     <use xlink:href="#DejaVuSans-36" x="186.621094"/>
     <use xlink:href="#DejaVuSans-2e" x="250.244141"/>
     <use xlink:href="#DejaVuSans-30" x="282.03125"/>
     <use xlink:href="#DejaVuSans-30" x="345.654297"/>
     <use xlink:href="#DejaVuSans-30" x="409.277344"/>
     <use xlink:href="#DejaVuSans-30" x="472.900391"/>
    </g>
   </g>
  </g>
 </g>
 <defs>
  <clipPath id="p2587e62956">
   <rect x="57.6" y="41.472" width="357.12" height="45.881379"/>
  </clipPath>
  <clipPath id="p861ac38bb3">
   <rect x="57.6" y="96.529655" width="357.12" height="45.881379"/>
  </clipPath>
  <clipPath id="p211d60c1e1">
   <rect x="57.6" y="151.58731" width="357.12" height="45.881379"/>
  </clipPath>
  <clipPath id="p7662a56011">
   <rect x="57.6" y="206.644966" width="357.12" height="45.881379"/>
  </clipPath>
  <clipPath id="pefbd2fdd3d">
   <rect x="57.6" y="261.702621" width="357.12" height="45.881379"/>
  </clipPath>
 </defs>
</svg>
