<?xml version="1.0" encoding="utf-8" standalone="no"?>
<!DOCTYPE svg PUBLIC "-//W3C//DTD SVG 1.1//EN"
  "http://www.w3.org/Graphics/SVG/1.1/DTD/svg11.dtd">
<svg xmlns:xlink="http://www.w3.org/1999/xlink" width="460.8pt" height="345.6pt" viewBox="0 0 460.8 345.6" xmlns="http://www.w3.org/2000/svg" version="1.1">
 <metadata>
  <rdf:RDF xmlns:dc="http://purl.org/dc/elements/1.1/" xmlns:cc="http://creativecommons.org/ns#" xmlns:rdf="http://www.w3.org/1999/02/22-rdf-syntax-ns#">
   <cc:Work>
    <dc:type rdf:resource="http://purl.org/dc/dcmitype/StillImage"/>
    <dc:date>2022-07-10T00:04:49.734095</dc:date>
    <dc:format>image/svg+xml</dc:format>
    <dc:creator>
     <cc:Agent>
      <dc:title>Matplotlib v3.5.2, https://matplotlib.org/</dc:title>
     </cc:Agent>
    </dc:creator>
   </cc:Work>
  </rdf:RDF>
 </metadata>
 <defs>
  <style type="text/css">*{stroke-linejoin: round; stroke-linecap: butt}</style>
 </defs>
 <g id="figure_1">
  <g id="patch_1">
   <path d="M 0 345.6 
L 460.8 345.6 
L 460.8 0 
L 0 0 
z
" style="fill: #ffffff"/>
  </g>
  <g id="axes_1">
   <g id="patch_2">
    <path d="M 57.6 87.353379 
L 414.72 87.353379 
L 414.72 41.472 
L 57.6 41.472 
z
" style="fill: #ffffff"/>
   </g>
   <g id="axes_2">
    <g id="patch_3">
     <path d="M 414.72 87.353379 
L 414.72 87.353379 
L 414.72 41.472 
L 414.72 41.472 
z
" style="fill: #ffffff"/>
    </g>
    <g id="matplotlib.axis_1"/>
    <g id="matplotlib.axis_2">
     <g id="ytick_1">
      <g id="line2d_1">
       <defs>
        <path id="m8c5307f6ef" d="M 0 0 
L 3.5 0 
" style="stroke: #000000; stroke-width: 0.8"/>
       </defs>
       <g>
        <use xlink:href="#m8c5307f6ef" x="414.72" y="76.673076" style="stroke: #000000; stroke-width: 0.8"/>
       </g>
      </g>
      <g id="text_1">
       <!-- 0 -->
       <g transform="translate(421.72 80.472294)scale(0.1 -0.1)">
        <defs>
         <path id="DejaVuSans-30" d="M 2034 4250 
Q 1547 4250 1301 3770 
Q 1056 3291 1056 2328 
Q 1056 1369 1301 889 
Q 1547 409 2034 409 
Q 2525 409 2770 889 
Q 3016 1369 3016 2328 
Q 3016 3291 2770 3770 
Q 2525 4250 2034 4250 
z
M 2034 4750 
Q 2819 4750 3233 4129 
Q 3647 3509 3647 2328 
Q 3647 1150 3233 529 
Q 2819 -91 2034 -91 
Q 1250 -91 836 529 
Q 422 1150 422 2328 
Q 422 3509 836 4129 
Q 1250 4750 2034 4750 
z
" transform="scale(0.015625)"/>
        </defs>
        <use xlink:href="#DejaVuSans-30"/>
       </g>
      </g>
     </g>
     <g id="ytick_2">
      <g id="line2d_2">
       <g>
        <use xlink:href="#m8c5307f6ef" x="414.72" y="43.674167" style="stroke: #000000; stroke-width: 0.8"/>
       </g>
      </g>
      <g id="text_2">
       <!-- 1 -->
       <g transform="translate(421.72 47.473385)scale(0.1 -0.1)">
        <defs>
         <path id="DejaVuSans-31" d="M 794 531 
L 1825 531 
L 1825 4091 
L 703 3866 
L 703 4441 
L 1819 4666 
L 2450 4666 
L 2450 531 
L 3481 531 
L 3481 0 
L 794 0 
L 794 531 
z
" transform="scale(0.015625)"/>
        </defs>
        <use xlink:href="#DejaVuSans-31"/>
       </g>
      </g>
     </g>
     <g id="text_3">
      <!-- vel [m/s] -->
      <g transform="translate(439.680938 86.48769)rotate(-90)scale(0.1 -0.1)">
       <defs>
        <path id="DejaVuSans-76" d="M 191 3500 
L 800 3500 
L 1894 563 
L 2988 3500 
L 3597 3500 
L 2284 0 
L 1503 0 
L 191 3500 
z
" transform="scale(0.015625)"/>
        <path id="DejaVuSans-65" d="M 3597 1894 
L 3597 1613 
L 953 1613 
Q 991 1019 1311 708 
Q 1631 397 2203 397 
Q 2534 397 2845 478 
Q 3156 559 3463 722 
L 3463 178 
Q 3153 47 2828 -22 
Q 2503 -91 2169 -91 
Q 1331 -91 842 396 
Q 353 884 353 1716 
Q 353 2575 817 3079 
Q 1281 3584 2069 3584 
Q 2775 3584 3186 3129 
Q 3597 2675 3597 1894 
z
M 3022 2063 
Q 3016 2534 2758 2815 
Q 2500 3097 2075 3097 
Q 1594 3097 1305 2825 
Q 1016 2553 972 2059 
L 3022 2063 
z
" transform="scale(0.015625)"/>
        <path id="DejaVuSans-6c" d="M 603 4863 
L 1178 4863 
L 1178 0 
L 603 0 
L 603 4863 
z
" transform="scale(0.015625)"/>
        <path id="DejaVuSans-20" transform="scale(0.015625)"/>
        <path id="DejaVuSans-5b" d="M 550 4863 
L 1875 4863 
L 1875 4416 
L 1125 4416 
L 1125 -397 
L 1875 -397 
L 1875 -844 
L 550 -844 
L 550 4863 
z
" transform="scale(0.015625)"/>
        <path id="DejaVuSans-6d" d="M 3328 2828 
Q 3544 3216 3844 3400 
Q 4144 3584 4550 3584 
Q 5097 3584 5394 3201 
Q 5691 2819 5691 2113 
L 5691 0 
L 5113 0 
L 5113 2094 
Q 5113 2597 4934 2840 
Q 4756 3084 4391 3084 
Q 3944 3084 3684 2787 
Q 3425 2491 3425 1978 
L 3425 0 
L 2847 0 
L 2847 2094 
Q 2847 2600 2669 2842 
Q 2491 3084 2119 3084 
Q 1678 3084 1418 2786 
Q 1159 2488 1159 1978 
L 1159 0 
L 581 0 
L 581 3500 
L 1159 3500 
L 1159 2956 
Q 1356 3278 1631 3431 
Q 1906 3584 2284 3584 
Q 2666 3584 2933 3390 
Q 3200 3197 3328 2828 
z
" transform="scale(0.015625)"/>
        <path id="DejaVuSans-2f" d="M 1625 4666 
L 2156 4666 
L 531 -594 
L 0 -594 
L 1625 4666 
z
" transform="scale(0.015625)"/>
        <path id="DejaVuSans-73" d="M 2834 3397 
L 2834 2853 
Q 2591 2978 2328 3040 
Q 2066 3103 1784 3103 
Q 1356 3103 1142 2972 
Q 928 2841 928 2578 
Q 928 2378 1081 2264 
Q 1234 2150 1697 2047 
L 1894 2003 
Q 2506 1872 2764 1633 
Q 3022 1394 3022 966 
Q 3022 478 2636 193 
Q 2250 -91 1575 -91 
Q 1294 -91 989 -36 
Q 684 19 347 128 
L 347 722 
Q 666 556 975 473 
Q 1284 391 1588 391 
Q 1994 391 2212 530 
Q 2431 669 2431 922 
Q 2431 1156 2273 1281 
Q 2116 1406 1581 1522 
L 1381 1569 
Q 847 1681 609 1914 
Q 372 2147 372 2553 
Q 372 3047 722 3315 
Q 1072 3584 1716 3584 
Q 2034 3584 2315 3537 
Q 2597 3491 2834 3397 
z
" transform="scale(0.015625)"/>
        <path id="DejaVuSans-5d" d="M 1947 4863 
L 1947 -844 
L 622 -844 
L 622 -397 
L 1369 -397 
L 1369 4416 
L 622 4416 
L 622 4863 
L 1947 4863 
z
" transform="scale(0.015625)"/>
       </defs>
       <use xlink:href="#DejaVuSans-76"/>
       <use xlink:href="#DejaVuSans-65" x="59.179688"/>
       <use xlink:href="#DejaVuSans-6c" x="120.703125"/>
       <use xlink:href="#DejaVuSans-20" x="148.486328"/>
       <use xlink:href="#DejaVuSans-5b" x="180.273438"/>
       <use xlink:href="#DejaVuSans-6d" x="219.287109"/>
       <use xlink:href="#DejaVuSans-2f" x="316.699219"/>
       <use xlink:href="#DejaVuSans-73" x="350.390625"/>
       <use xlink:href="#DejaVuSans-5d" x="402.490234"/>
      </g>
     </g>
    </g>
    <g id="patch_4">
     <path d="M 414.72 87.353379 
L 414.72 41.472 
" style="fill: none; stroke: #000000; stroke-width: 0.8; stroke-linejoin: miter; stroke-linecap: square"/>
    </g>
   </g>
   <g id="matplotlib.axis_3">
    <g id="xtick_1">
     <g id="line2d_3">
      <defs>
       <path id="mc7a26f3762" d="M 0 0 
L 0 3.5 
" style="stroke: #000000; stroke-width: 0.8"/>
      </defs>
      <g>
       <use xlink:href="#mc7a26f3762" x="73.832727" y="87.353379" style="stroke: #000000; stroke-width: 0.8"/>
      </g>
     </g>
    </g>
    <g id="xtick_2">
     <g id="line2d_4">
      <g>
       <use xlink:href="#mc7a26f3762" x="116.550431" y="87.353379" style="stroke: #000000; stroke-width: 0.8"/>
      </g>
     </g>
    </g>
    <g id="xtick_3">
     <g id="line2d_5">
      <g>
       <use xlink:href="#mc7a26f3762" x="159.268134" y="87.353379" style="stroke: #000000; stroke-width: 0.8"/>
      </g>
     </g>
    </g>
    <g id="xtick_4">
     <g id="line2d_6">
      <g>
       <use xlink:href="#mc7a26f3762" x="201.985837" y="87.353379" style="stroke: #000000; stroke-width: 0.8"/>
      </g>
     </g>
    </g>
    <g id="xtick_5">
     <g id="line2d_7">
      <g>
       <use xlink:href="#mc7a26f3762" x="244.703541" y="87.353379" style="stroke: #000000; stroke-width: 0.8"/>
      </g>
     </g>
    </g>
    <g id="xtick_6">
     <g id="line2d_8">
      <g>
       <use xlink:href="#mc7a26f3762" x="287.421244" y="87.353379" style="stroke: #000000; stroke-width: 0.8"/>
      </g>
     </g>
    </g>
    <g id="xtick_7">
     <g id="line2d_9">
      <g>
       <use xlink:href="#mc7a26f3762" x="330.138947" y="87.353379" style="stroke: #000000; stroke-width: 0.8"/>
      </g>
     </g>
    </g>
    <g id="xtick_8">
     <g id="line2d_10">
      <g>
       <use xlink:href="#mc7a26f3762" x="372.856651" y="87.353379" style="stroke: #000000; stroke-width: 0.8"/>
      </g>
     </g>
    </g>
   </g>
   <g id="matplotlib.axis_4">
    <g id="ytick_3">
     <g id="line2d_11">
      <defs>
       <path id="mcc8841f06a" d="M 0 0 
L -3.5 0 
" style="stroke: #000000; stroke-width: 0.8"/>
      </defs>
      <g>
       <use xlink:href="#mcc8841f06a" x="57.6" y="76.673076" style="stroke: #000000; stroke-width: 0.8"/>
      </g>
     </g>
     <g id="text_4">
      <!-- 0 -->
      <g transform="translate(44.2375 80.472294)scale(0.1 -0.1)">
       <use xlink:href="#DejaVuSans-30"/>
      </g>
     </g>
    </g>
    <g id="ytick_4">
     <g id="line2d_12">
      <g>
       <use xlink:href="#mcc8841f06a" x="57.6" y="43.674167" style="stroke: #000000; stroke-width: 0.8"/>
      </g>
     </g>
     <g id="text_5">
      <!-- 1 -->
      <g transform="translate(44.2375 47.473385)scale(0.1 -0.1)">
       <use xlink:href="#DejaVuSans-31"/>
      </g>
     </g>
    </g>
    <g id="text_6">
     <!-- vel [normalized] -->
     <g transform="translate(38.157812 105.111908)rotate(-90)scale(0.1 -0.1)">
      <defs>
       <path id="DejaVuSans-6e" d="M 3513 2113 
L 3513 0 
L 2938 0 
L 2938 2094 
Q 2938 2591 2744 2837 
Q 2550 3084 2163 3084 
Q 1697 3084 1428 2787 
Q 1159 2491 1159 1978 
L 1159 0 
L 581 0 
L 581 3500 
L 1159 3500 
L 1159 2956 
Q 1366 3272 1645 3428 
Q 1925 3584 2291 3584 
Q 2894 3584 3203 3211 
Q 3513 2838 3513 2113 
z
" transform="scale(0.015625)"/>
       <path id="DejaVuSans-6f" d="M 1959 3097 
Q 1497 3097 1228 2736 
Q 959 2375 959 1747 
Q 959 1119 1226 758 
Q 1494 397 1959 397 
Q 2419 397 2687 759 
Q 2956 1122 2956 1747 
Q 2956 2369 2687 2733 
Q 2419 3097 1959 3097 
z
M 1959 3584 
Q 2709 3584 3137 3096 
Q 3566 2609 3566 1747 
Q 3566 888 3137 398 
Q 2709 -91 1959 -91 
Q 1206 -91 779 398 
Q 353 888 353 1747 
Q 353 2609 779 3096 
Q 1206 3584 1959 3584 
z
" transform="scale(0.015625)"/>
       <path id="DejaVuSans-72" d="M 2631 2963 
Q 2534 3019 2420 3045 
Q 2306 3072 2169 3072 
Q 1681 3072 1420 2755 
Q 1159 2438 1159 1844 
L 1159 0 
L 581 0 
L 581 3500 
L 1159 3500 
L 1159 2956 
Q 1341 3275 1631 3429 
Q 1922 3584 2338 3584 
Q 2397 3584 2469 3576 
Q 2541 3569 2628 3553 
L 2631 2963 
z
" transform="scale(0.015625)"/>
       <path id="DejaVuSans-61" d="M 2194 1759 
Q 1497 1759 1228 1600 
Q 959 1441 959 1056 
Q 959 750 1161 570 
Q 1363 391 1709 391 
Q 2188 391 2477 730 
Q 2766 1069 2766 1631 
L 2766 1759 
L 2194 1759 
z
M 3341 1997 
L 3341 0 
L 2766 0 
L 2766 531 
Q 2569 213 2275 61 
Q 1981 -91 1556 -91 
Q 1019 -91 701 211 
Q 384 513 384 1019 
Q 384 1609 779 1909 
Q 1175 2209 1959 2209 
L 2766 2209 
L 2766 2266 
Q 2766 2663 2505 2880 
Q 2244 3097 1772 3097 
Q 1472 3097 1187 3025 
Q 903 2953 641 2809 
L 641 3341 
Q 956 3463 1253 3523 
Q 1550 3584 1831 3584 
Q 2591 3584 2966 3190 
Q 3341 2797 3341 1997 
z
" transform="scale(0.015625)"/>
       <path id="DejaVuSans-69" d="M 603 3500 
L 1178 3500 
L 1178 0 
L 603 0 
L 603 3500 
z
M 603 4863 
L 1178 4863 
L 1178 4134 
L 603 4134 
L 603 4863 
z
" transform="scale(0.015625)"/>
       <path id="DejaVuSans-7a" d="M 353 3500 
L 3084 3500 
L 3084 2975 
L 922 459 
L 3084 459 
L 3084 0 
L 275 0 
L 275 525 
L 2438 3041 
L 353 3041 
L 353 3500 
z
" transform="scale(0.015625)"/>
       <path id="DejaVuSans-64" d="M 2906 2969 
L 2906 4863 
L 3481 4863 
L 3481 0 
L 2906 0 
L 2906 525 
Q 2725 213 2448 61 
Q 2172 -91 1784 -91 
Q 1150 -91 751 415 
Q 353 922 353 1747 
Q 353 2572 751 3078 
Q 1150 3584 1784 3584 
Q 2172 3584 2448 3432 
Q 2725 3281 2906 2969 
z
M 947 1747 
Q 947 1113 1208 752 
Q 1469 391 1925 391 
Q 2381 391 2643 752 
Q 2906 1113 2906 1747 
Q 2906 2381 2643 2742 
Q 2381 3103 1925 3103 
Q 1469 3103 1208 2742 
Q 947 2381 947 1747 
z
" transform="scale(0.015625)"/>
      </defs>
      <use xlink:href="#DejaVuSans-76"/>
      <use xlink:href="#DejaVuSans-65" x="59.179688"/>
      <use xlink:href="#DejaVuSans-6c" x="120.703125"/>
      <use xlink:href="#DejaVuSans-20" x="148.486328"/>
      <use xlink:href="#DejaVuSans-5b" x="180.273438"/>
      <use xlink:href="#DejaVuSans-6e" x="219.287109"/>
      <use xlink:href="#DejaVuSans-6f" x="282.666016"/>
      <use xlink:href="#DejaVuSans-72" x="343.847656"/>
      <use xlink:href="#DejaVuSans-6d" x="383.210938"/>
      <use xlink:href="#DejaVuSans-61" x="480.623047"/>
      <use xlink:href="#DejaVuSans-6c" x="541.902344"/>
      <use xlink:href="#DejaVuSans-69" x="569.685547"/>
      <use xlink:href="#DejaVuSans-7a" x="597.46875"/>
      <use xlink:href="#DejaVuSans-65" x="649.958984"/>
      <use xlink:href="#DejaVuSans-64" x="711.482422"/>
      <use xlink:href="#DejaVuSans-5d" x="774.958984"/>
     </g>
    </g>
   </g>
   <g id="line2d_13">
    <path d="M 73.832727 76.673077 
L 90.919809 76.673077 
L 108.00689 76.673077 
L 125.093971 76.673077 
L 142.181053 76.673077 
L 159.268134 76.673077 
L 176.355215 76.673076 
L 193.442297 76.673076 
L 210.529378 76.673076 
L 227.616459 76.673076 
L 244.703541 76.673076 
L 261.790622 76.673076 
L 278.877703 76.673076 
L 295.964785 76.673076 
L 313.051866 76.673076 
L 330.138947 76.673076 
L 347.226029 76.673076 
L 364.31311 76.673076 
L 381.400191 76.673076 
L 398.487273 76.673076 
" clip-path="url(#p6e5adb44d6)" style="fill: none; stroke: #1f77b4; stroke-width: 1.5; stroke-linecap: square"/>
   </g>
   <g id="line2d_14">
    <path d="M 73.832727 76.376298 
L 90.919809 76.391922 
L 108.00689 76.407544 
L 125.093971 76.423166 
L 142.181053 76.438788 
L 159.268134 76.45441 
L 176.355215 76.470031 
L 193.442297 76.485651 
L 210.529378 76.501271 
L 227.616459 76.516892 
L 244.703541 76.532511 
L 261.790622 76.548129 
L 278.877703 76.563749 
L 295.964785 76.579367 
L 313.051866 76.594986 
L 330.138947 76.610604 
L 347.226029 76.626222 
L 364.31311 76.641842 
L 381.400191 76.657459 
L 398.487273 76.657459 
" clip-path="url(#p6e5adb44d6)" style="fill: none; stroke: #ff7f0e; stroke-width: 1.5; stroke-linecap: square"/>
   </g>
   <g id="line2d_15">
    <path d="M 73.832727 43.67103 
L 90.919809 43.664754 
L 108.00689 43.658475 
L 125.093971 43.652192 
L 142.181053 43.645906 
L 159.268134 43.639616 
L 176.355215 43.633322 
L 193.442297 43.627025 
L 210.529378 43.620724 
L 227.616459 43.61442 
L 244.703541 43.608112 
L 261.790622 43.6018 
L 278.877703 43.595485 
L 295.964785 43.589166 
L 313.051866 43.582844 
L 330.138947 43.576517 
L 347.226029 43.570188 
L 364.31311 43.563854 
L 381.400191 43.557517 
L 398.487273 43.557517 
" clip-path="url(#p6e5adb44d6)" style="fill: none; stroke: #2ca02c; stroke-width: 1.5; stroke-linecap: square"/>
   </g>
   <g id="line2d_16">
    <path d="M 73.832727 43.67103 
L 90.919809 43.664754 
L 108.00689 43.658475 
L 125.093971 43.652192 
L 142.181053 43.645906 
L 159.268134 43.639616 
L 176.355215 43.633322 
L 193.442297 43.627025 
L 210.529378 43.620724 
L 227.616459 43.61442 
L 244.703541 43.608112 
L 261.790622 43.6018 
L 278.877703 43.595485 
L 295.964785 43.589166 
L 313.051866 43.582844 
L 330.138947 43.576517 
L 347.226029 43.570188 
L 364.31311 43.563854 
L 381.400191 43.557517 
L 398.487273 43.557517 
" clip-path="url(#p6e5adb44d6)" style="fill: none; stroke: #d62728; stroke-width: 1.5; stroke-linecap: square"/>
   </g>
   <g id="line2d_17">
    <path d="M 73.832727 76.042091 
L 90.919809 75.411098 
L 108.00689 74.780093 
L 125.093971 74.149066 
L 142.181053 73.518006 
L 159.268134 72.886906 
L 176.355215 72.255756 
L 193.442297 71.624544 
L 210.529378 70.993265 
L 227.616459 70.361908 
L 244.703541 69.730462 
L 261.790622 69.09892 
L 278.877703 68.46727 
L 295.964785 67.835505 
L 313.051866 67.203616 
L 330.138947 66.571591 
L 347.226029 65.939424 
L 364.31311 65.307102 
L 381.400191 64.674618 
L 398.487273 64.674618 
" clip-path="url(#p6e5adb44d6)" style="fill: none; stroke: #9467bd; stroke-width: 1.5; stroke-linecap: square"/>
   </g>
   <g id="line2d_18">
    <path d="M 73.832727 76.627354 
L 90.919809 76.581634 
L 108.00689 76.535914 
L 125.093971 76.490197 
L 142.181053 76.444481 
L 159.268134 76.398768 
L 176.355215 76.353058 
L 193.442297 76.307351 
L 210.529378 76.261649 
L 227.616459 76.215951 
L 244.703541 76.170258 
L 261.790622 76.12457 
L 278.877703 76.078888 
L 295.964785 76.033213 
L 313.051866 75.987545 
L 330.138947 75.941884 
L 347.226029 75.896231 
L 364.31311 75.850586 
L 381.400191 75.804951 
L 398.487273 75.804951 
" clip-path="url(#p6e5adb44d6)" style="fill: none; stroke: #8c564b; stroke-width: 1.5; stroke-linecap: square"/>
   </g>
   <g id="line2d_19">
    <path d="M 73.832727 76.685899 
L 90.919809 76.698743 
L 108.00689 76.711617 
L 125.093971 76.724531 
L 142.181053 76.737507 
L 159.268134 76.75055 
L 176.355215 76.763677 
L 193.442297 76.7769 
L 210.529378 76.790235 
L 227.616459 76.803689 
L 244.703541 76.81728 
L 261.790622 76.831014 
L 278.877703 76.844911 
L 295.964785 76.858967 
L 313.051866 76.873211 
L 330.138947 76.88764 
L 347.226029 76.902264 
L 364.31311 76.917098 
L 381.400191 76.932145 
L 398.487273 76.932145 
" clip-path="url(#p6e5adb44d6)" style="fill: none; stroke: #e377c2; stroke-width: 1.5; stroke-linecap: square"/>
   </g>
   <g id="line2d_20">
    <path d="M 73.832727 76.673053 
L 90.919809 76.67303 
L 108.00689 76.673007 
L 125.093971 76.672984 
L 142.181053 76.672961 
L 159.268134 76.672938 
L 176.355215 76.672915 
L 193.442297 76.672892 
L 210.529378 76.672869 
L 227.616459 76.672846 
L 244.703541 76.672822 
L 261.790622 76.672799 
L 278.877703 76.672775 
L 295.964785 76.672752 
L 313.051866 76.672729 
L 330.138947 76.672706 
L 347.226029 76.672683 
L 364.31311 76.67266 
L 381.400191 76.672638 
L 398.487273 76.672638 
" clip-path="url(#p6e5adb44d6)" style="fill: none; stroke: #7f7f7f; stroke-width: 1.5; stroke-linecap: square"/>
   </g>
   <g id="line2d_21">
    <path d="M 73.832727 85.267862 
L 90.919809 84.800405 
L 108.00689 84.335724 
L 125.093971 83.873573 
L 142.181053 83.413722 
L 159.268134 82.955957 
L 176.355215 82.50008 
L 193.442297 82.045904 
L 210.529378 81.593254 
L 227.616459 81.141965 
L 244.703541 80.691881 
L 261.790622 80.242858 
L 278.877703 79.794752 
L 295.964785 79.347432 
L 313.051866 78.900769 
L 330.138947 78.454638 
L 347.226029 78.00892 
L 364.31311 77.563497 
L 381.400191 77.118253 
L 398.487273 77.118253 
" clip-path="url(#p6e5adb44d6)" style="fill: none; stroke: #bcbd22; stroke-width: 1.5; stroke-linecap: square"/>
   </g>
   <g id="line2d_22">
    <path d="M 73.832727 77.034499 
L 90.919809 77.019286 
L 108.00689 77.003075 
L 125.093971 76.986052 
L 142.181053 76.968367 
L 159.268134 76.950144 
L 176.355215 76.931483 
L 193.442297 76.91247 
L 210.529378 76.893172 
L 227.616459 76.873649 
L 244.703541 76.853946 
L 261.790622 76.834104 
L 278.877703 76.814152 
L 295.964785 76.794118 
L 313.051866 76.774022 
L 330.138947 76.753879 
L 347.226029 76.733704 
L 364.31311 76.713506 
L 381.400191 76.693294 
L 398.487273 76.693294 
" clip-path="url(#p6e5adb44d6)" style="fill: none; stroke: #17becf; stroke-width: 1.5; stroke-linecap: square"/>
   </g>
   <g id="line2d_23">
    <path d="M 73.832727 76.682122 
L 90.919809 76.681701 
L 108.00689 76.681271 
L 125.093971 76.680832 
L 142.181053 76.680386 
L 159.268134 76.679932 
L 176.355215 76.679471 
L 193.442297 76.679004 
L 210.529378 76.678531 
L 227.616459 76.678052 
L 244.703541 76.677569 
L 261.790622 76.677081 
L 278.877703 76.676589 
L 295.964785 76.676093 
L 313.051866 76.675595 
L 330.138947 76.675094 
L 347.226029 76.674591 
L 364.31311 76.674087 
L 381.400191 76.673582 
L 398.487273 76.673582 
" clip-path="url(#p6e5adb44d6)" style="fill: none; stroke: #1f77b4; stroke-width: 1.5; stroke-linecap: square"/>
   </g>
   <g id="line2d_24">
    <path d="M 73.832727 76.672868 
L 90.919809 76.672878 
L 108.00689 76.672888 
L 125.093971 76.672898 
L 142.181053 76.672909 
L 159.268134 76.672919 
L 176.355215 76.67293 
L 193.442297 76.672941 
L 210.529378 76.672951 
L 227.616459 76.672962 
L 244.703541 76.672973 
L 261.790622 76.672985 
L 278.877703 76.672996 
L 295.964785 76.673007 
L 313.051866 76.673018 
L 330.138947 76.67303 
L 347.226029 76.673041 
L 364.31311 76.673053 
L 381.400191 76.673064 
L 398.487273 76.673064 
" clip-path="url(#p6e5adb44d6)" style="fill: none; stroke: #ff7f0e; stroke-width: 1.5; stroke-linecap: square"/>
   </g>
   <g id="line2d_25">
    <path d="M 73.832727 76.67305 
L 90.919809 76.673051 
L 108.00689 76.673052 
L 125.093971 76.673053 
L 142.181053 76.673054 
L 159.268134 76.673055 
L 176.355215 76.673056 
L 193.442297 76.673058 
L 210.529378 76.673059 
L 227.616459 76.67306 
L 244.703541 76.673062 
L 261.790622 76.673063 
L 278.877703 76.673065 
L 295.964785 76.673066 
L 313.051866 76.673068 
L 330.138947 76.673069 
L 347.226029 76.673071 
L 364.31311 76.673072 
L 381.400191 76.673074 
L 398.487273 76.673074 
" clip-path="url(#p6e5adb44d6)" style="fill: none; stroke: #2ca02c; stroke-width: 1.5; stroke-linecap: square"/>
   </g>
   <g id="patch_5">
    <path d="M 57.6 87.353379 
L 57.6 41.472 
" style="fill: none; stroke: #000000; stroke-width: 0.8; stroke-linejoin: miter; stroke-linecap: square"/>
   </g>
   <g id="patch_6">
    <path d="M 414.72 87.353379 
L 414.72 41.472 
" style="fill: none; stroke: #000000; stroke-width: 0.8; stroke-linejoin: miter; stroke-linecap: square"/>
   </g>
   <g id="patch_7">
    <path d="M 57.6 87.353379 
L 414.72 87.353379 
" style="fill: none; stroke: #000000; stroke-width: 0.8; stroke-linejoin: miter; stroke-linecap: square"/>
   </g>
   <g id="patch_8">
    <path d="M 57.6 41.472 
L 414.72 41.472 
" style="fill: none; stroke: #000000; stroke-width: 0.8; stroke-linejoin: miter; stroke-linecap: square"/>
   </g>
   <g id="text_7">
    <!-- velocity - Container 1  -->
    <g transform="translate(169.779375 38.472)scale(0.12 -0.12)">
     <defs>
      <path id="DejaVuSans-63" d="M 3122 3366 
L 3122 2828 
Q 2878 2963 2633 3030 
Q 2388 3097 2138 3097 
Q 1578 3097 1268 2742 
Q 959 2388 959 1747 
Q 959 1106 1268 751 
Q 1578 397 2138 397 
Q 2388 397 2633 464 
Q 2878 531 3122 666 
L 3122 134 
Q 2881 22 2623 -34 
Q 2366 -91 2075 -91 
Q 1284 -91 818 406 
Q 353 903 353 1747 
Q 353 2603 823 3093 
Q 1294 3584 2113 3584 
Q 2378 3584 2631 3529 
Q 2884 3475 3122 3366 
z
" transform="scale(0.015625)"/>
      <path id="DejaVuSans-74" d="M 1172 4494 
L 1172 3500 
L 2356 3500 
L 2356 3053 
L 1172 3053 
L 1172 1153 
Q 1172 725 1289 603 
Q 1406 481 1766 481 
L 2356 481 
L 2356 0 
L 1766 0 
Q 1100 0 847 248 
Q 594 497 594 1153 
L 594 3053 
L 172 3053 
L 172 3500 
L 594 3500 
L 594 4494 
L 1172 4494 
z
" transform="scale(0.015625)"/>
      <path id="DejaVuSans-79" d="M 2059 -325 
Q 1816 -950 1584 -1140 
Q 1353 -1331 966 -1331 
L 506 -1331 
L 506 -850 
L 844 -850 
Q 1081 -850 1212 -737 
Q 1344 -625 1503 -206 
L 1606 56 
L 191 3500 
L 800 3500 
L 1894 763 
L 2988 3500 
L 3597 3500 
L 2059 -325 
z
" transform="scale(0.015625)"/>
      <path id="DejaVuSans-2d" d="M 313 2009 
L 1997 2009 
L 1997 1497 
L 313 1497 
L 313 2009 
z
" transform="scale(0.015625)"/>
      <path id="DejaVuSans-43" d="M 4122 4306 
L 4122 3641 
Q 3803 3938 3442 4084 
Q 3081 4231 2675 4231 
Q 1875 4231 1450 3742 
Q 1025 3253 1025 2328 
Q 1025 1406 1450 917 
Q 1875 428 2675 428 
Q 3081 428 3442 575 
Q 3803 722 4122 1019 
L 4122 359 
Q 3791 134 3420 21 
Q 3050 -91 2638 -91 
Q 1578 -91 968 557 
Q 359 1206 359 2328 
Q 359 3453 968 4101 
Q 1578 4750 2638 4750 
Q 3056 4750 3426 4639 
Q 3797 4528 4122 4306 
z
" transform="scale(0.015625)"/>
     </defs>
     <use xlink:href="#DejaVuSans-76"/>
     <use xlink:href="#DejaVuSans-65" x="59.179688"/>
     <use xlink:href="#DejaVuSans-6c" x="120.703125"/>
     <use xlink:href="#DejaVuSans-6f" x="148.486328"/>
     <use xlink:href="#DejaVuSans-63" x="209.667969"/>
     <use xlink:href="#DejaVuSans-69" x="264.648438"/>
     <use xlink:href="#DejaVuSans-74" x="292.431641"/>
     <use xlink:href="#DejaVuSans-79" x="331.640625"/>
     <use xlink:href="#DejaVuSans-20" x="390.820312"/>
     <use xlink:href="#DejaVuSans-2d" x="422.607422"/>
     <use xlink:href="#DejaVuSans-20" x="458.691406"/>
     <use xlink:href="#DejaVuSans-43" x="490.478516"/>
     <use xlink:href="#DejaVuSans-6f" x="560.302734"/>
     <use xlink:href="#DejaVuSans-6e" x="621.484375"/>
     <use xlink:href="#DejaVuSans-74" x="684.863281"/>
     <use xlink:href="#DejaVuSans-61" x="724.072266"/>
     <use xlink:href="#DejaVuSans-69" x="785.351562"/>
     <use xlink:href="#DejaVuSans-6e" x="813.134766"/>
     <use xlink:href="#DejaVuSans-65" x="876.513672"/>
     <use xlink:href="#DejaVuSans-72" x="938.037109"/>
     <use xlink:href="#DejaVuSans-20" x="979.150391"/>
     <use xlink:href="#DejaVuSans-31" x="1010.9375"/>
     <use xlink:href="#DejaVuSans-20" x="1074.560547"/>
    </g>
   </g>
  </g>
  <g id="axes_3">
   <g id="patch_9">
    <path d="M 57.6 142.411034 
L 414.72 142.411034 
L 414.72 96.529655 
L 57.6 96.529655 
z
" style="fill: #ffffff"/>
   </g>
   <g id="matplotlib.axis_5">
    <g id="xtick_9">
     <g id="line2d_26">
      <g>
       <use xlink:href="#mc7a26f3762" x="73.832727" y="142.411034" style="stroke: #000000; stroke-width: 0.8"/>
      </g>
     </g>
    </g>
    <g id="xtick_10">
     <g id="line2d_27">
      <g>
       <use xlink:href="#mc7a26f3762" x="116.550431" y="142.411034" style="stroke: #000000; stroke-width: 0.8"/>
      </g>
     </g>
    </g>
    <g id="xtick_11">
     <g id="line2d_28">
      <g>
       <use xlink:href="#mc7a26f3762" x="159.268134" y="142.411034" style="stroke: #000000; stroke-width: 0.8"/>
      </g>
     </g>
    </g>
    <g id="xtick_12">
     <g id="line2d_29">
      <g>
       <use xlink:href="#mc7a26f3762" x="201.985837" y="142.411034" style="stroke: #000000; stroke-width: 0.8"/>
      </g>
     </g>
    </g>
    <g id="xtick_13">
     <g id="line2d_30">
      <g>
       <use xlink:href="#mc7a26f3762" x="244.703541" y="142.411034" style="stroke: #000000; stroke-width: 0.8"/>
      </g>
     </g>
    </g>
    <g id="xtick_14">
     <g id="line2d_31">
      <g>
       <use xlink:href="#mc7a26f3762" x="287.421244" y="142.411034" style="stroke: #000000; stroke-width: 0.8"/>
      </g>
     </g>
    </g>
    <g id="xtick_15">
     <g id="line2d_32">
      <g>
       <use xlink:href="#mc7a26f3762" x="330.138947" y="142.411034" style="stroke: #000000; stroke-width: 0.8"/>
      </g>
     </g>
    </g>
    <g id="xtick_16">
     <g id="line2d_33">
      <g>
       <use xlink:href="#mc7a26f3762" x="372.856651" y="142.411034" style="stroke: #000000; stroke-width: 0.8"/>
      </g>
     </g>
    </g>
   </g>
   <g id="matplotlib.axis_6">
    <g id="ytick_5">
     <g id="line2d_34">
      <g>
       <use xlink:href="#mcc8841f06a" x="57.6" y="140.745253" style="stroke: #000000; stroke-width: 0.8"/>
      </g>
     </g>
     <g id="text_8">
      <!-- 0 -->
      <g transform="translate(44.2375 144.544472)scale(0.1 -0.1)">
       <use xlink:href="#DejaVuSans-30"/>
      </g>
     </g>
    </g>
    <g id="ytick_6">
     <g id="line2d_35">
      <g>
       <use xlink:href="#mcc8841f06a" x="57.6" y="98.771642" style="stroke: #000000; stroke-width: 0.8"/>
      </g>
     </g>
     <g id="text_9">
      <!-- 1 -->
      <g transform="translate(44.2375 102.570861)scale(0.1 -0.1)">
       <use xlink:href="#DejaVuSans-31"/>
      </g>
     </g>
    </g>
   </g>
   <g id="line2d_36">
    <path d="M 73.832727 140.325517 
L 90.919809 140.325517 
L 108.00689 140.325517 
L 125.093971 140.325517 
L 142.181053 140.325517 
L 159.268134 140.325517 
L 176.355215 140.325517 
L 193.442297 140.325517 
L 210.529378 140.325517 
L 227.616459 140.325517 
L 244.703541 140.325517 
L 261.790622 140.325517 
L 278.877703 140.325517 
L 295.964785 140.325517 
L 313.051866 140.325517 
L 330.138947 140.325517 
L 347.226029 140.325517 
L 364.31311 140.325517 
L 381.400191 140.325517 
L 398.487273 140.325517 
" clip-path="url(#p4ef6bb420b)" style="fill: none; stroke: #1f77b4; stroke-width: 1.5; stroke-linecap: square"/>
   </g>
   <g id="line2d_37">
    <path d="M 73.832727 99.531191 
L 90.919809 99.531263 
L 108.00689 99.531332 
L 125.093971 99.531396 
L 142.181053 99.531457 
L 159.268134 99.531514 
L 176.355215 99.531567 
L 193.442297 99.531616 
L 210.529378 99.531661 
L 227.616459 99.531703 
L 244.703541 99.531741 
L 261.790622 99.531775 
L 278.877703 99.531805 
L 295.964785 99.531832 
L 313.051866 99.531855 
L 330.138947 99.531874 
L 347.226029 99.531889 
L 364.31311 99.5319 
L 381.400191 99.531908 
L 398.487273 99.531912 
" clip-path="url(#p4ef6bb420b)" style="fill: none; stroke: #ff7f0e; stroke-width: 1.5; stroke-linecap: square"/>
   </g>
   <g id="line2d_38">
    <path d="M 73.832727 98.615172 
L 90.919809 98.623182 
L 108.00689 98.631194 
L 125.093971 98.639207 
L 142.181053 98.647221 
L 159.268134 98.655237 
L 176.355215 98.663255 
L 193.442297 98.671274 
L 210.529378 98.679295 
L 227.616459 98.687317 
L 244.703541 98.69534 
L 261.790622 98.703366 
L 278.877703 98.711392 
L 295.964785 98.719421 
L 313.051866 98.72745 
L 330.138947 98.735482 
L 347.226029 98.743515 
L 364.31311 98.751549 
L 381.400191 98.759585 
L 398.487273 98.767622 
" clip-path="url(#p4ef6bb420b)" style="fill: none; stroke: #2ca02c; stroke-width: 1.5; stroke-linecap: square"/>
   </g>
   <g id="line2d_39">
    <path d="M 73.832727 98.615172 
L 90.919809 98.623182 
L 108.00689 98.631194 
L 125.093971 98.639207 
L 142.181053 98.647221 
L 159.268134 98.655237 
L 176.355215 98.663255 
L 193.442297 98.671274 
L 210.529378 98.679295 
L 227.616459 98.687317 
L 244.703541 98.69534 
L 261.790622 98.703366 
L 278.877703 98.711392 
L 295.964785 98.719421 
L 313.051866 98.72745 
L 330.138947 98.735482 
L 347.226029 98.743515 
L 364.31311 98.751549 
L 381.400191 98.759585 
L 398.487273 98.767622 
" clip-path="url(#p4ef6bb420b)" style="fill: none; stroke: #d62728; stroke-width: 1.5; stroke-linecap: square"/>
   </g>
   <g id="line2d_40">
    <path d="M 73.832727 122.621606 
L 90.919809 122.62176 
L 108.00689 122.622066 
L 125.093971 122.622525 
L 142.181053 122.623138 
L 159.268134 122.623904 
L 176.355215 122.624823 
L 193.442297 122.625895 
L 210.529378 122.62712 
L 227.616459 122.628499 
L 244.703541 122.63003 
L 261.790622 122.631715 
L 278.877703 122.633554 
L 295.964785 122.635545 
L 313.051866 122.63769 
L 330.138947 122.639989 
L 347.226029 122.64244 
L 364.31311 122.645046 
L 381.400191 122.647804 
L 398.487273 122.650716 
" clip-path="url(#p4ef6bb420b)" style="fill: none; stroke: #9467bd; stroke-width: 1.5; stroke-linecap: square"/>
   </g>
   <g id="line2d_41">
    <path d="M 73.832727 136.291167 
L 90.919809 136.291178 
L 108.00689 136.2912 
L 125.093971 136.291233 
L 142.181053 136.291278 
L 159.268134 136.291333 
L 176.355215 136.2914 
L 193.442297 136.291477 
L 210.529378 136.291566 
L 227.616459 136.291666 
L 244.703541 136.291777 
L 261.790622 136.291899 
L 278.877703 136.292032 
L 295.964785 136.292176 
L 313.051866 136.292332 
L 330.138947 136.292498 
L 347.226029 136.292676 
L 364.31311 136.292864 
L 381.400191 136.293064 
L 398.487273 136.293274 
" clip-path="url(#p4ef6bb420b)" style="fill: none; stroke: #8c564b; stroke-width: 1.5; stroke-linecap: square"/>
   </g>
   <g id="line2d_42">
    <path d="M 73.832727 136.543314 
L 90.919809 136.543311 
L 108.00689 136.543305 
L 125.093971 136.543296 
L 142.181053 136.543283 
L 159.268134 136.543267 
L 176.355215 136.543249 
L 193.442297 136.543227 
L 210.529378 136.543201 
L 227.616459 136.543173 
L 244.703541 136.543141 
L 261.790622 136.543106 
L 278.877703 136.543068 
L 295.964785 136.543026 
L 313.051866 136.542981 
L 330.138947 136.542933 
L 347.226029 136.54288 
L 364.31311 136.542825 
L 381.400191 136.542766 
L 398.487273 136.542703 
" clip-path="url(#p4ef6bb420b)" style="fill: none; stroke: #e377c2; stroke-width: 1.5; stroke-linecap: square"/>
   </g>
   <g id="line2d_43">
    <path d="M 73.832727 136.547804 
L 90.919809 136.547804 
L 108.00689 136.547804 
L 125.093971 136.547804 
L 142.181053 136.547804 
L 159.268134 136.547804 
L 176.355215 136.547804 
L 193.442297 136.547804 
L 210.529378 136.547804 
L 227.616459 136.547804 
L 244.703541 136.547804 
L 261.790622 136.547804 
L 278.877703 136.547804 
L 295.964785 136.547804 
L 313.051866 136.547804 
L 330.138947 136.547804 
L 347.226029 136.547805 
L 364.31311 136.547805 
L 381.400191 136.547805 
L 398.487273 136.547805 
" clip-path="url(#p4ef6bb420b)" style="fill: none; stroke: #7f7f7f; stroke-width: 1.5; stroke-linecap: square"/>
   </g>
   <g id="line2d_44">
    <path d="M 73.832727 139.813692 
L 90.919809 139.811606 
L 108.00689 139.809633 
L 125.093971 139.807774 
L 142.181053 139.806026 
L 159.268134 139.80439 
L 176.355215 139.802865 
L 193.442297 139.801451 
L 210.529378 139.800147 
L 227.616459 139.798952 
L 244.703541 139.797868 
L 261.790622 139.796892 
L 278.877703 139.796026 
L 295.964785 139.795268 
L 313.051866 139.794619 
L 330.138947 139.794079 
L 347.226029 139.793646 
L 364.31311 139.793322 
L 381.400191 139.793106 
L 398.487273 139.792998 
" clip-path="url(#p4ef6bb420b)" style="fill: none; stroke: #bcbd22; stroke-width: 1.5; stroke-linecap: square"/>
   </g>
   <g id="line2d_45">
    <path d="M 73.832727 140.316101 
L 90.919809 140.316013 
L 108.00689 140.315929 
L 125.093971 140.315849 
L 142.181053 140.315773 
L 159.268134 140.315701 
L 176.355215 140.315634 
L 193.442297 140.315571 
L 210.529378 140.315513 
L 227.616459 140.31546 
L 244.703541 140.315411 
L 261.790622 140.315367 
L 278.877703 140.315328 
L 295.964785 140.315294 
L 313.051866 140.315264 
L 330.138947 140.31524 
L 347.226029 140.31522 
L 364.31311 140.315206 
L 381.400191 140.315196 
L 398.487273 140.315191 
" clip-path="url(#p4ef6bb420b)" style="fill: none; stroke: #17becf; stroke-width: 1.5; stroke-linecap: square"/>
   </g>
   <g id="line2d_46">
    <path d="M 73.832727 140.325341 
L 90.919809 140.325339 
L 108.00689 140.325337 
L 125.093971 140.325335 
L 142.181053 140.325333 
L 159.268134 140.325331 
L 176.355215 140.32533 
L 193.442297 140.325328 
L 210.529378 140.325327 
L 227.616459 140.325325 
L 244.703541 140.325324 
L 261.790622 140.325323 
L 278.877703 140.325322 
L 295.964785 140.325321 
L 313.051866 140.325321 
L 330.138947 140.32532 
L 347.226029 140.325319 
L 364.31311 140.325319 
L 381.400191 140.325319 
L 398.487273 140.325319 
" clip-path="url(#p4ef6bb420b)" style="fill: none; stroke: #1f77b4; stroke-width: 1.5; stroke-linecap: square"/>
   </g>
   <g id="line2d_47">
    <path d="M 73.832727 140.325515 
L 90.919809 140.325515 
L 108.00689 140.325515 
L 125.093971 140.325515 
L 142.181053 140.325515 
L 159.268134 140.325515 
L 176.355215 140.325515 
L 193.442297 140.325515 
L 210.529378 140.325515 
L 227.616459 140.325515 
L 244.703541 140.325515 
L 261.790622 140.325515 
L 278.877703 140.325515 
L 295.964785 140.325515 
L 313.051866 140.325515 
L 330.138947 140.325515 
L 347.226029 140.325515 
L 364.31311 140.325515 
L 381.400191 140.325515 
L 398.487273 140.325515 
" clip-path="url(#p4ef6bb420b)" style="fill: none; stroke: #ff7f0e; stroke-width: 1.5; stroke-linecap: square"/>
   </g>
   <g id="line2d_48">
    <path d="M 73.832727 140.325517 
L 90.919809 140.325517 
L 108.00689 140.325517 
L 125.093971 140.325517 
L 142.181053 140.325517 
L 159.268134 140.325517 
L 176.355215 140.325517 
L 193.442297 140.325517 
L 210.529378 140.325517 
L 227.616459 140.325517 
L 244.703541 140.325517 
L 261.790622 140.325517 
L 278.877703 140.325517 
L 295.964785 140.325517 
L 313.051866 140.325517 
L 330.138947 140.325517 
L 347.226029 140.325517 
L 364.31311 140.325517 
L 381.400191 140.325517 
L 398.487273 140.325517 
" clip-path="url(#p4ef6bb420b)" style="fill: none; stroke: #2ca02c; stroke-width: 1.5; stroke-linecap: square"/>
   </g>
   <g id="patch_10">
    <path d="M 57.6 142.411034 
L 57.6 96.529655 
" style="fill: none; stroke: #000000; stroke-width: 0.8; stroke-linejoin: miter; stroke-linecap: square"/>
   </g>
   <g id="patch_11">
    <path d="M 414.72 142.411034 
L 414.72 96.529655 
" style="fill: none; stroke: #000000; stroke-width: 0.8; stroke-linejoin: miter; stroke-linecap: square"/>
   </g>
   <g id="patch_12">
    <path d="M 57.6 142.411034 
L 414.72 142.411034 
" style="fill: none; stroke: #000000; stroke-width: 0.8; stroke-linejoin: miter; stroke-linecap: square"/>
   </g>
   <g id="patch_13">
    <path d="M 57.6 96.529655 
L 414.72 96.529655 
" style="fill: none; stroke: #000000; stroke-width: 0.8; stroke-linejoin: miter; stroke-linecap: square"/>
   </g>
   <g id="text_10">
    <!-- Pressure - Container 1 -->
    <g transform="translate(169.523438 93.529655)scale(0.12 -0.12)">
     <defs>
      <path id="DejaVuSans-50" d="M 1259 4147 
L 1259 2394 
L 2053 2394 
Q 2494 2394 2734 2622 
Q 2975 2850 2975 3272 
Q 2975 3691 2734 3919 
Q 2494 4147 2053 4147 
L 1259 4147 
z
M 628 4666 
L 2053 4666 
Q 2838 4666 3239 4311 
Q 3641 3956 3641 3272 
Q 3641 2581 3239 2228 
Q 2838 1875 2053 1875 
L 1259 1875 
L 1259 0 
L 628 0 
L 628 4666 
z
" transform="scale(0.015625)"/>
      <path id="DejaVuSans-75" d="M 544 1381 
L 544 3500 
L 1119 3500 
L 1119 1403 
Q 1119 906 1312 657 
Q 1506 409 1894 409 
Q 2359 409 2629 706 
Q 2900 1003 2900 1516 
L 2900 3500 
L 3475 3500 
L 3475 0 
L 2900 0 
L 2900 538 
Q 2691 219 2414 64 
Q 2138 -91 1772 -91 
Q 1169 -91 856 284 
Q 544 659 544 1381 
z
M 1991 3584 
L 1991 3584 
z
" transform="scale(0.015625)"/>
     </defs>
     <use xlink:href="#DejaVuSans-50"/>
     <use xlink:href="#DejaVuSans-72" x="58.552734"/>
     <use xlink:href="#DejaVuSans-65" x="97.416016"/>
     <use xlink:href="#DejaVuSans-73" x="158.939453"/>
     <use xlink:href="#DejaVuSans-73" x="211.039062"/>
     <use xlink:href="#DejaVuSans-75" x="263.138672"/>
     <use xlink:href="#DejaVuSans-72" x="326.517578"/>
     <use xlink:href="#DejaVuSans-65" x="365.380859"/>
     <use xlink:href="#DejaVuSans-20" x="426.904297"/>
     <use xlink:href="#DejaVuSans-2d" x="458.691406"/>
     <use xlink:href="#DejaVuSans-20" x="494.775391"/>
     <use xlink:href="#DejaVuSans-43" x="526.5625"/>
     <use xlink:href="#DejaVuSans-6f" x="596.386719"/>
     <use xlink:href="#DejaVuSans-6e" x="657.568359"/>
     <use xlink:href="#DejaVuSans-74" x="720.947266"/>
     <use xlink:href="#DejaVuSans-61" x="760.15625"/>
     <use xlink:href="#DejaVuSans-69" x="821.435547"/>
     <use xlink:href="#DejaVuSans-6e" x="849.21875"/>
     <use xlink:href="#DejaVuSans-65" x="912.597656"/>
     <use xlink:href="#DejaVuSans-72" x="974.121094"/>
     <use xlink:href="#DejaVuSans-20" x="1015.234375"/>
     <use xlink:href="#DejaVuSans-31" x="1047.021484"/>
    </g>
   </g>
  </g>
  <g id="axes_4">
   <g id="patch_14">
    <path d="M 57.6 197.46869 
L 414.72 197.46869 
L 414.72 151.58731 
L 57.6 151.58731 
z
" style="fill: #ffffff"/>
   </g>
   <g id="matplotlib.axis_7">
    <g id="xtick_17">
     <g id="line2d_49">
      <g>
       <use xlink:href="#mc7a26f3762" x="73.832727" y="197.46869" style="stroke: #000000; stroke-width: 0.8"/>
      </g>
     </g>
    </g>
    <g id="xtick_18">
     <g id="line2d_50">
      <g>
       <use xlink:href="#mc7a26f3762" x="116.550431" y="197.46869" style="stroke: #000000; stroke-width: 0.8"/>
      </g>
     </g>
    </g>
    <g id="xtick_19">
     <g id="line2d_51">
      <g>
       <use xlink:href="#mc7a26f3762" x="159.268134" y="197.46869" style="stroke: #000000; stroke-width: 0.8"/>
      </g>
     </g>
    </g>
    <g id="xtick_20">
     <g id="line2d_52">
      <g>
       <use xlink:href="#mc7a26f3762" x="201.985837" y="197.46869" style="stroke: #000000; stroke-width: 0.8"/>
      </g>
     </g>
    </g>
    <g id="xtick_21">
     <g id="line2d_53">
      <g>
       <use xlink:href="#mc7a26f3762" x="244.703541" y="197.46869" style="stroke: #000000; stroke-width: 0.8"/>
      </g>
     </g>
    </g>
    <g id="xtick_22">
     <g id="line2d_54">
      <g>
       <use xlink:href="#mc7a26f3762" x="287.421244" y="197.46869" style="stroke: #000000; stroke-width: 0.8"/>
      </g>
     </g>
    </g>
    <g id="xtick_23">
     <g id="line2d_55">
      <g>
       <use xlink:href="#mc7a26f3762" x="330.138947" y="197.46869" style="stroke: #000000; stroke-width: 0.8"/>
      </g>
     </g>
    </g>
    <g id="xtick_24">
     <g id="line2d_56">
      <g>
       <use xlink:href="#mc7a26f3762" x="372.856651" y="197.46869" style="stroke: #000000; stroke-width: 0.8"/>
      </g>
     </g>
    </g>
   </g>
   <g id="matplotlib.axis_8">
    <g id="ytick_7">
     <g id="line2d_57">
      <g>
       <use xlink:href="#mcc8841f06a" x="57.6" y="190.513719" style="stroke: #000000; stroke-width: 0.8"/>
      </g>
     </g>
     <g id="text_11">
      <!-- 0.0495 -->
      <g transform="translate(15.609375 194.312938)scale(0.1 -0.1)">
       <defs>
        <path id="DejaVuSans-2e" d="M 684 794 
L 1344 794 
L 1344 0 
L 684 0 
L 684 794 
z
" transform="scale(0.015625)"/>
        <path id="DejaVuSans-34" d="M 2419 4116 
L 825 1625 
L 2419 1625 
L 2419 4116 
z
M 2253 4666 
L 3047 4666 
L 3047 1625 
L 3713 1625 
L 3713 1100 
L 3047 1100 
L 3047 0 
L 2419 0 
L 2419 1100 
L 313 1100 
L 313 1709 
L 2253 4666 
z
" transform="scale(0.015625)"/>
        <path id="DejaVuSans-39" d="M 703 97 
L 703 672 
Q 941 559 1184 500 
Q 1428 441 1663 441 
Q 2288 441 2617 861 
Q 2947 1281 2994 2138 
Q 2813 1869 2534 1725 
Q 2256 1581 1919 1581 
Q 1219 1581 811 2004 
Q 403 2428 403 3163 
Q 403 3881 828 4315 
Q 1253 4750 1959 4750 
Q 2769 4750 3195 4129 
Q 3622 3509 3622 2328 
Q 3622 1225 3098 567 
Q 2575 -91 1691 -91 
Q 1453 -91 1209 -44 
Q 966 3 703 97 
z
M 1959 2075 
Q 2384 2075 2632 2365 
Q 2881 2656 2881 3163 
Q 2881 3666 2632 3958 
Q 2384 4250 1959 4250 
Q 1534 4250 1286 3958 
Q 1038 3666 1038 3163 
Q 1038 2656 1286 2365 
Q 1534 2075 1959 2075 
z
" transform="scale(0.015625)"/>
        <path id="DejaVuSans-35" d="M 691 4666 
L 3169 4666 
L 3169 4134 
L 1269 4134 
L 1269 2991 
Q 1406 3038 1543 3061 
Q 1681 3084 1819 3084 
Q 2600 3084 3056 2656 
Q 3513 2228 3513 1497 
Q 3513 744 3044 326 
Q 2575 -91 1722 -91 
Q 1428 -91 1123 -41 
Q 819 9 494 109 
L 494 744 
Q 775 591 1075 516 
Q 1375 441 1709 441 
Q 2250 441 2565 725 
Q 2881 1009 2881 1497 
Q 2881 1984 2565 2268 
Q 2250 2553 1709 2553 
Q 1456 2553 1204 2497 
Q 953 2441 691 2322 
L 691 4666 
z
" transform="scale(0.015625)"/>
       </defs>
       <use xlink:href="#DejaVuSans-30"/>
       <use xlink:href="#DejaVuSans-2e" x="63.623047"/>
       <use xlink:href="#DejaVuSans-30" x="95.410156"/>
       <use xlink:href="#DejaVuSans-34" x="159.033203"/>
       <use xlink:href="#DejaVuSans-39" x="222.65625"/>
       <use xlink:href="#DejaVuSans-35" x="286.279297"/>
      </g>
     </g>
    </g>
    <g id="ytick_8">
     <g id="line2d_58">
      <g>
       <use xlink:href="#mcc8841f06a" x="57.6" y="154.696709" style="stroke: #000000; stroke-width: 0.8"/>
      </g>
     </g>
     <g id="text_12">
      <!-- 0.0500 -->
      <g transform="translate(15.609375 158.495927)scale(0.1 -0.1)">
       <use xlink:href="#DejaVuSans-30"/>
       <use xlink:href="#DejaVuSans-2e" x="63.623047"/>
       <use xlink:href="#DejaVuSans-30" x="95.410156"/>
       <use xlink:href="#DejaVuSans-35" x="159.033203"/>
       <use xlink:href="#DejaVuSans-30" x="222.65625"/>
       <use xlink:href="#DejaVuSans-30" x="286.279297"/>
      </g>
     </g>
    </g>
   </g>
   <g id="line2d_59">
    <path d="M 73.832727 154.435464 
L 90.919809 154.435453 
L 108.00689 154.435451 
L 125.093971 154.435474 
L 142.181053 154.435487 
L 159.268134 154.435537 
L 176.355215 154.435593 
L 193.442297 154.435658 
L 210.529378 154.435735 
L 227.616459 154.435839 
L 244.703541 154.435955 
L 261.790622 154.436077 
L 278.877703 154.436194 
L 295.964785 154.436344 
L 313.051866 154.436487 
L 330.138947 154.43665 
L 347.226029 154.436817 
L 364.31311 154.436981 
L 381.400191 154.437133 
L 398.487273 154.437198 
" clip-path="url(#p94d88d3662)" style="fill: none; stroke: #1f77b4; stroke-width: 1.5; stroke-linecap: square"/>
   </g>
   <g id="line2d_60">
    <path d="M 73.832727 195.383172 
L 90.919809 177.49863 
L 108.00689 165.869931 
L 125.093971 157.833147 
L 142.181053 154.210443 
L 159.268134 153.672828 
L 176.355215 154.362139 
L 193.442297 155.068365 
L 210.529378 155.37054 
L 227.616459 155.326588 
L 244.703541 155.135504 
L 261.790622 154.946938 
L 278.877703 154.819301 
L 295.964785 154.751375 
L 313.051866 154.721892 
L 330.138947 154.71136 
L 347.226029 154.707586 
L 364.31311 154.703931 
L 381.400191 154.697504 
L 398.487273 154.690578 
" clip-path="url(#p94d88d3662)" style="fill: none; stroke: #ff7f0e; stroke-width: 1.5; stroke-linecap: square"/>
   </g>
   <g id="line2d_61">
    <path d="M 73.832727 154.826432 
L 90.919809 154.918168 
L 108.00689 154.985707 
L 125.093971 155.029289 
L 142.181053 155.014433 
L 159.268134 154.88389 
L 176.355215 154.609551 
L 193.442297 154.250478 
L 210.529378 153.971093 
L 227.616459 153.999704 
L 244.703541 154.546586 
L 261.790622 155.722823 
L 278.877703 157.495976 
L 295.964785 159.696324 
L 313.051866 162.064095 
L 330.138947 164.315099 
L 347.226029 166.201528 
L 364.31311 167.552558 
L 381.400191 168.289873 
L 398.487273 168.428819 
" clip-path="url(#p94d88d3662)" style="fill: none; stroke: #2ca02c; stroke-width: 1.5; stroke-linecap: square"/>
   </g>
   <g id="line2d_62">
    <path d="M 73.832727 154.700479 
L 90.919809 154.703078 
L 108.00689 154.704783 
L 125.093971 154.705926 
L 142.181053 154.706778 
L 159.268134 154.70752 
L 176.355215 154.708253 
L 193.442297 154.70902 
L 210.529378 154.709829 
L 227.616459 154.710679 
L 244.703541 154.711564 
L 261.790622 154.712484 
L 278.877703 154.713439 
L 295.964785 154.714433 
L 313.051866 154.71547 
L 330.138947 154.71655 
L 347.226029 154.717678 
L 364.31311 154.718855 
L 381.400191 154.720084 
L 398.487273 154.721352 
" clip-path="url(#p94d88d3662)" style="fill: none; stroke: #d62728; stroke-width: 1.5; stroke-linecap: square"/>
   </g>
   <g id="line2d_63">
    <path d="M 73.832727 154.704047 
L 90.919809 154.702687 
L 108.00689 154.701396 
L 125.093971 154.700371 
L 142.181053 154.699616 
L 159.268134 154.699095 
L 176.355215 154.698752 
L 193.442297 154.698538 
L 210.529378 154.69841 
L 227.616459 154.698343 
L 244.703541 154.698314 
L 261.790622 154.698312 
L 278.877703 154.698326 
L 295.964785 154.698354 
L 313.051866 154.698389 
L 330.138947 154.698431 
L 347.226029 154.698478 
L 364.31311 154.698529 
L 381.400191 154.698583 
L 398.487273 154.698639 
" clip-path="url(#p94d88d3662)" style="fill: none; stroke: #9467bd; stroke-width: 1.5; stroke-linecap: square"/>
   </g>
   <g id="line2d_64">
    <path d="M 73.832727 154.698329 
L 90.919809 154.697425 
L 108.00689 154.696315 
L 125.093971 154.695147 
L 142.181053 154.69426 
L 159.268134 154.693461 
L 176.355215 154.692867 
L 193.442297 154.692304 
L 210.529378 154.691868 
L 227.616459 154.691499 
L 244.703541 154.69121 
L 261.790622 154.690984 
L 278.877703 154.690795 
L 295.964785 154.690617 
L 313.051866 154.690489 
L 330.138947 154.690404 
L 347.226029 154.690289 
L 364.31311 154.690218 
L 381.400191 154.69017 
L 398.487273 154.690037 
" clip-path="url(#p94d88d3662)" style="fill: none; stroke: #8c564b; stroke-width: 1.5; stroke-linecap: square"/>
   </g>
   <g id="line2d_65">
    <path d="M 73.832727 154.696257 
L 90.919809 154.695653 
L 108.00689 154.694805 
L 125.093971 154.693671 
L 142.181053 154.692958 
L 159.268134 154.692118 
L 176.355215 154.69157 
L 193.442297 154.691021 
L 210.529378 154.690372 
L 227.616459 154.690029 
L 244.703541 154.689676 
L 261.790622 154.68957 
L 278.877703 154.689454 
L 295.964785 154.689194 
L 313.051866 154.688963 
L 330.138947 154.688902 
L 347.226029 154.688904 
L 364.31311 154.688187 
L 381.400191 154.689415 
L 398.487273 154.688804 
" clip-path="url(#p94d88d3662)" style="fill: none; stroke: #e377c2; stroke-width: 1.5; stroke-linecap: square"/>
   </g>
   <g id="line2d_66">
    <path d="M 73.832727 154.695832 
L 90.919809 154.695393 
L 108.00689 154.694652 
L 125.093971 154.693771 
L 142.181053 154.692958 
L 159.268134 154.692267 
L 176.355215 154.691565 
L 193.442297 154.691472 
L 210.529378 154.690027 
L 227.616459 154.691037 
L 244.703541 154.688334 
L 261.790622 154.690638 
L 278.877703 154.688406 
L 295.964785 154.687946 
L 313.051866 154.690233 
L 330.138947 154.692992 
L 347.226029 154.679778 
L 364.31311 154.67124 
L 381.400191 154.721294 
L 398.487273 154.233993 
" clip-path="url(#p94d88d3662)" style="fill: none; stroke: #7f7f7f; stroke-width: 1.5; stroke-linecap: square"/>
   </g>
   <g id="line2d_67">
    <path d="M 73.832727 154.614769 
L 90.919809 154.614543 
L 108.00689 154.614249 
L 125.093971 154.613908 
L 142.181053 154.613529 
L 159.268134 154.613078 
L 176.355215 154.612495 
L 193.442297 154.611812 
L 210.529378 154.61085 
L 227.616459 154.609604 
L 244.703541 154.607867 
L 261.790622 154.605465 
L 278.877703 154.601822 
L 295.964785 154.596438 
L 313.051866 154.588178 
L 330.138947 154.575068 
L 347.226029 154.553702 
L 364.31311 154.518941 
L 381.400191 154.457141 
L 398.487273 154.336094 
" clip-path="url(#p94d88d3662)" style="fill: none; stroke: #bcbd22; stroke-width: 1.5; stroke-linecap: square"/>
   </g>
   <g id="line2d_68">
    <path d="M 73.832727 154.446859 
L 90.919809 154.446577 
L 108.00689 154.446015 
L 125.093971 154.445495 
L 142.181053 154.444888 
L 159.268134 154.44421 
L 176.355215 154.443415 
L 193.442297 154.442464 
L 210.529378 154.441296 
L 227.616459 154.439732 
L 244.703541 154.437626 
L 261.790622 154.434749 
L 278.877703 154.430637 
L 295.964785 154.424631 
L 313.051866 154.41552 
L 330.138947 154.401285 
L 347.226029 154.378432 
L 364.31311 154.341508 
L 381.400191 154.278719 
L 398.487273 154.181686 
" clip-path="url(#p94d88d3662)" style="fill: none; stroke: #17becf; stroke-width: 1.5; stroke-linecap: square"/>
   </g>
   <g id="line2d_69">
    <path d="M 73.832727 154.439629 
L 90.919809 154.439198 
L 108.00689 154.438653 
L 125.093971 154.438039 
L 142.181053 154.437368 
L 159.268134 154.436585 
L 176.355215 154.435754 
L 193.442297 154.434781 
L 210.529378 154.433542 
L 227.616459 154.431822 
L 244.703541 154.429647 
L 261.790622 154.42679 
L 278.877703 154.422489 
L 295.964785 154.416205 
L 313.051866 154.406832 
L 330.138947 154.392166 
L 347.226029 154.368438 
L 364.31311 154.329989 
L 381.400191 154.267537 
L 398.487273 154.185959 
" clip-path="url(#p94d88d3662)" style="fill: none; stroke: #1f77b4; stroke-width: 1.5; stroke-linecap: square"/>
   </g>
   <g id="line2d_70">
    <path d="M 73.832727 154.439488 
L 90.919809 154.439049 
L 108.00689 154.438471 
L 125.093971 154.437853 
L 142.181053 154.437174 
L 159.268134 154.436432 
L 176.355215 154.435586 
L 193.442297 154.43456 
L 210.529378 154.433292 
L 227.616459 154.431643 
L 244.703541 154.429428 
L 261.790622 154.42636 
L 278.877703 154.422003 
L 295.964785 154.415625 
L 313.051866 154.405889 
L 330.138947 154.39057 
L 347.226029 154.366068 
L 364.31311 154.326608 
L 381.400191 154.265633 
L 398.487273 154.196289 
" clip-path="url(#p94d88d3662)" style="fill: none; stroke: #ff7f0e; stroke-width: 1.5; stroke-linecap: square"/>
   </g>
   <g id="line2d_71">
    <path d="M 73.832727 154.439436 
L 90.919809 154.439024 
L 108.00689 154.438464 
L 125.093971 154.437847 
L 142.181053 154.437162 
L 159.268134 154.436414 
L 176.355215 154.435557 
L 193.442297 154.434522 
L 210.529378 154.433231 
L 227.616459 154.431554 
L 244.703541 154.429297 
L 261.790622 154.426164 
L 278.877703 154.421694 
L 295.964785 154.415116 
L 313.051866 154.405055 
L 330.138947 154.389219 
L 347.226029 154.36398 
L 364.31311 154.324027 
L 381.400191 154.265458 
L 398.487273 154.204788 
" clip-path="url(#p94d88d3662)" style="fill: none; stroke: #2ca02c; stroke-width: 1.5; stroke-linecap: square"/>
   </g>
   <g id="patch_15">
    <path d="M 57.6 197.46869 
L 57.6 151.58731 
" style="fill: none; stroke: #000000; stroke-width: 0.8; stroke-linejoin: miter; stroke-linecap: square"/>
   </g>
   <g id="patch_16">
    <path d="M 414.72 197.46869 
L 414.72 151.58731 
" style="fill: none; stroke: #000000; stroke-width: 0.8; stroke-linejoin: miter; stroke-linecap: square"/>
   </g>
   <g id="patch_17">
    <path d="M 57.6 197.46869 
L 414.72 197.46869 
" style="fill: none; stroke: #000000; stroke-width: 0.8; stroke-linejoin: miter; stroke-linecap: square"/>
   </g>
   <g id="patch_18">
    <path d="M 57.6 151.58731 
L 414.72 151.58731 
" style="fill: none; stroke: #000000; stroke-width: 0.8; stroke-linejoin: miter; stroke-linecap: square"/>
   </g>
   <g id="text_13">
    <!-- yA - Container 1 -->
    <g transform="translate(187.48125 148.58731)scale(0.12 -0.12)">
     <defs>
      <path id="DejaVuSans-41" d="M 2188 4044 
L 1331 1722 
L 3047 1722 
L 2188 4044 
z
M 1831 4666 
L 2547 4666 
L 4325 0 
L 3669 0 
L 3244 1197 
L 1141 1197 
L 716 0 
L 50 0 
L 1831 4666 
z
" transform="scale(0.015625)"/>
     </defs>
     <use xlink:href="#DejaVuSans-79"/>
     <use xlink:href="#DejaVuSans-41" x="59.179688"/>
     <use xlink:href="#DejaVuSans-20" x="127.587891"/>
     <use xlink:href="#DejaVuSans-2d" x="159.375"/>
     <use xlink:href="#DejaVuSans-20" x="195.458984"/>
     <use xlink:href="#DejaVuSans-43" x="227.246094"/>
     <use xlink:href="#DejaVuSans-6f" x="297.070312"/>
     <use xlink:href="#DejaVuSans-6e" x="358.251953"/>
     <use xlink:href="#DejaVuSans-74" x="421.630859"/>
     <use xlink:href="#DejaVuSans-61" x="460.839844"/>
     <use xlink:href="#DejaVuSans-69" x="522.119141"/>
     <use xlink:href="#DejaVuSans-6e" x="549.902344"/>
     <use xlink:href="#DejaVuSans-65" x="613.28125"/>
     <use xlink:href="#DejaVuSans-72" x="674.804688"/>
     <use xlink:href="#DejaVuSans-20" x="715.917969"/>
     <use xlink:href="#DejaVuSans-31" x="747.705078"/>
    </g>
   </g>
  </g>
  <g id="axes_5">
   <g id="patch_19">
    <path d="M 57.6 252.526345 
L 414.72 252.526345 
L 414.72 206.644966 
L 57.6 206.644966 
z
" style="fill: #ffffff"/>
   </g>
   <g id="matplotlib.axis_9">
    <g id="xtick_25">
     <g id="line2d_72">
      <g>
       <use xlink:href="#mc7a26f3762" x="73.832727" y="252.526345" style="stroke: #000000; stroke-width: 0.8"/>
      </g>
     </g>
    </g>
    <g id="xtick_26">
     <g id="line2d_73">
      <g>
       <use xlink:href="#mc7a26f3762" x="116.550431" y="252.526345" style="stroke: #000000; stroke-width: 0.8"/>
      </g>
     </g>
    </g>
    <g id="xtick_27">
     <g id="line2d_74">
      <g>
       <use xlink:href="#mc7a26f3762" x="159.268134" y="252.526345" style="stroke: #000000; stroke-width: 0.8"/>
      </g>
     </g>
    </g>
    <g id="xtick_28">
     <g id="line2d_75">
      <g>
       <use xlink:href="#mc7a26f3762" x="201.985837" y="252.526345" style="stroke: #000000; stroke-width: 0.8"/>
      </g>
     </g>
    </g>
    <g id="xtick_29">
     <g id="line2d_76">
      <g>
       <use xlink:href="#mc7a26f3762" x="244.703541" y="252.526345" style="stroke: #000000; stroke-width: 0.8"/>
      </g>
     </g>
    </g>
    <g id="xtick_30">
     <g id="line2d_77">
      <g>
       <use xlink:href="#mc7a26f3762" x="287.421244" y="252.526345" style="stroke: #000000; stroke-width: 0.8"/>
      </g>
     </g>
    </g>
    <g id="xtick_31">
     <g id="line2d_78">
      <g>
       <use xlink:href="#mc7a26f3762" x="330.138947" y="252.526345" style="stroke: #000000; stroke-width: 0.8"/>
      </g>
     </g>
    </g>
    <g id="xtick_32">
     <g id="line2d_79">
      <g>
       <use xlink:href="#mc7a26f3762" x="372.856651" y="252.526345" style="stroke: #000000; stroke-width: 0.8"/>
      </g>
     </g>
    </g>
   </g>
   <g id="matplotlib.axis_10">
    <g id="ytick_9">
     <g id="line2d_80">
      <g>
       <use xlink:href="#mcc8841f06a" x="57.6" y="249.372025" style="stroke: #000000; stroke-width: 0.8"/>
      </g>
     </g>
     <g id="text_14">
      <!-- 0.9000 -->
      <g transform="translate(15.609375 253.171243)scale(0.1 -0.1)">
       <use xlink:href="#DejaVuSans-30"/>
       <use xlink:href="#DejaVuSans-2e" x="63.623047"/>
       <use xlink:href="#DejaVuSans-39" x="95.410156"/>
       <use xlink:href="#DejaVuSans-30" x="159.033203"/>
       <use xlink:href="#DejaVuSans-30" x="222.65625"/>
       <use xlink:href="#DejaVuSans-30" x="286.279297"/>
      </g>
     </g>
    </g>
    <g id="ytick_10">
     <g id="line2d_81">
      <g>
       <use xlink:href="#mcc8841f06a" x="57.6" y="216.764564" style="stroke: #000000; stroke-width: 0.8"/>
      </g>
     </g>
     <g id="text_15">
      <!-- 0.9005 -->
      <g transform="translate(15.609375 220.563783)scale(0.1 -0.1)">
       <use xlink:href="#DejaVuSans-30"/>
       <use xlink:href="#DejaVuSans-2e" x="63.623047"/>
       <use xlink:href="#DejaVuSans-39" x="95.410156"/>
       <use xlink:href="#DejaVuSans-30" x="159.033203"/>
       <use xlink:href="#DejaVuSans-30" x="222.65625"/>
       <use xlink:href="#DejaVuSans-35" x="286.279297"/>
      </g>
     </g>
    </g>
   </g>
   <g id="line2d_82">
    <path d="M 73.832727 249.646435 
L 90.919809 249.646457 
L 108.00689 249.646484 
L 125.093971 249.646497 
L 142.181053 249.64652 
L 159.268134 249.646511 
L 176.355215 249.646498 
L 193.442297 249.646477 
L 210.529378 249.646444 
L 227.616459 249.646384 
L 244.703541 249.646311 
L 261.790622 249.646231 
L 278.877703 249.646155 
L 295.964785 249.64605 
L 313.051866 249.645948 
L 330.138947 249.645826 
L 347.226029 249.645699 
L 364.31311 249.645571 
L 381.400191 249.64545 
L 398.487273 249.645399 
" clip-path="url(#p212c209aa3)" style="fill: none; stroke: #1f77b4; stroke-width: 1.5; stroke-linecap: square"/>
   </g>
   <g id="line2d_83">
    <path d="M 73.832727 208.730483 
L 90.919809 226.389199 
L 108.00689 238.0699 
L 125.093971 246.216495 
L 142.181053 249.903026 
L 159.268134 250.440828 
L 176.355215 249.717875 
L 193.442297 248.978413 
L 210.529378 248.660576 
L 227.616459 248.705981 
L 244.703541 248.907102 
L 261.790622 249.106478 
L 278.877703 249.241959 
L 295.964785 249.314347 
L 313.051866 249.345911 
L 330.138947 249.357259 
L 347.226029 249.361376 
L 364.31311 249.365396 
L 381.400191 249.37243 
L 398.487273 249.379953 
" clip-path="url(#p212c209aa3)" style="fill: none; stroke: #ff7f0e; stroke-width: 1.5; stroke-linecap: square"/>
   </g>
   <g id="line2d_84">
    <path d="M 73.832727 249.264901 
L 90.919809 249.188495 
L 108.00689 249.13078 
L 125.093971 249.093607 
L 142.181053 249.113247 
L 159.268134 249.2483 
L 176.355215 249.527764 
L 193.442297 249.892825 
L 210.529378 250.178424 
L 227.616459 250.154657 
L 244.703541 249.609011 
L 261.790622 248.428187 
L 278.877703 246.643182 
L 295.964785 244.42359 
L 313.051866 242.030474 
L 330.138947 239.750418 
L 347.226029 237.834157 
L 364.31311 236.455338 
L 381.400191 235.694527 
L 398.487273 235.53784 
" clip-path="url(#p212c209aa3)" style="fill: none; stroke: #2ca02c; stroke-width: 1.5; stroke-linecap: square"/>
   </g>
   <g id="line2d_85">
    <path d="M 73.832727 249.368913 
L 90.919809 249.366768 
L 108.00689 249.36536 
L 125.093971 249.364417 
L 142.181053 249.363714 
L 159.268134 249.363102 
L 176.355215 249.362498 
L 193.442297 249.361866 
L 210.529378 249.361199 
L 227.616459 249.360498 
L 244.703541 249.359768 
L 261.790622 249.35901 
L 278.877703 249.358223 
L 295.964785 249.357403 
L 313.051866 249.356549 
L 330.138947 249.355657 
L 347.226029 249.354727 
L 364.31311 249.353756 
L 381.400191 249.352741 
L 398.487273 249.351694 
" clip-path="url(#p212c209aa3)" style="fill: none; stroke: #d62728; stroke-width: 1.5; stroke-linecap: square"/>
   </g>
   <g id="line2d_86">
    <path d="M 73.832727 249.365973 
L 90.919809 249.367096 
L 108.00689 249.368163 
L 125.093971 249.36901 
L 142.181053 249.369635 
L 159.268134 249.370066 
L 176.355215 249.37035 
L 193.442297 249.370528 
L 210.529378 249.370634 
L 227.616459 249.370691 
L 244.703541 249.370715 
L 261.790622 249.370717 
L 278.877703 249.370706 
L 295.964785 249.370683 
L 313.051866 249.370654 
L 330.138947 249.37062 
L 347.226029 249.370582 
L 364.31311 249.37054 
L 381.400191 249.370495 
L 398.487273 249.370453 
" clip-path="url(#p212c209aa3)" style="fill: none; stroke: #9467bd; stroke-width: 1.5; stroke-linecap: square"/>
   </g>
   <g id="line2d_87">
    <path d="M 73.832727 249.371273 
L 90.919809 249.372018 
L 108.00689 249.372932 
L 125.093971 249.3739 
L 142.181053 249.374632 
L 159.268134 249.375295 
L 176.355215 249.375785 
L 193.442297 249.376254 
L 210.529378 249.376618 
L 227.616459 249.376927 
L 244.703541 249.377167 
L 261.790622 249.377356 
L 278.877703 249.377514 
L 295.964785 249.377663 
L 313.051866 249.377771 
L 330.138947 249.377841 
L 347.226029 249.377941 
L 364.31311 249.378001 
L 381.400191 249.378043 
L 398.487273 249.378187 
" clip-path="url(#p212c209aa3)" style="fill: none; stroke: #8c564b; stroke-width: 1.5; stroke-linecap: square"/>
   </g>
   <g id="line2d_88">
    <path d="M 73.832727 249.373174 
L 90.919809 249.37367 
L 108.00689 249.374366 
L 125.093971 249.375304 
L 142.181053 249.375889 
L 159.268134 249.376585 
L 176.355215 249.37704 
L 193.442297 249.377495 
L 210.529378 249.378039 
L 227.616459 249.37832 
L 244.703541 249.378615 
L 261.790622 249.378699 
L 278.877703 249.378805 
L 295.964785 249.379022 
L 313.051866 249.37922 
L 330.138947 249.379267 
L 347.226029 249.379223 
L 364.31311 249.379982 
L 381.400191 249.378728 
L 398.487273 249.379113 
" clip-path="url(#p212c209aa3)" style="fill: none; stroke: #e377c2; stroke-width: 1.5; stroke-linecap: square"/>
   </g>
   <g id="line2d_89">
    <path d="M 73.832727 249.373532 
L 90.919809 249.373893 
L 108.00689 249.374502 
L 125.093971 249.375226 
L 142.181053 249.375898 
L 159.268134 249.376463 
L 176.355215 249.377059 
L 193.442297 249.37709 
L 210.529378 249.378388 
L 227.616459 249.377399 
L 244.703541 249.379849 
L 261.790622 249.377663 
L 278.877703 249.379843 
L 295.964785 249.379928 
L 313.051866 249.378508 
L 330.138947 249.375339 
L 347.226029 249.388148 
L 364.31311 249.405749 
L 381.400191 249.34274 
L 398.487273 249.868462 
" clip-path="url(#p212c209aa3)" style="fill: none; stroke: #7f7f7f; stroke-width: 1.5; stroke-linecap: square"/>
   </g>
   <g id="line2d_90">
    <path d="M 73.832727 249.452775 
L 90.919809 249.453618 
L 108.00689 249.454648 
L 125.093971 249.455847 
L 142.181053 249.457221 
L 159.268134 249.45881 
L 176.355215 249.460687 
L 193.442297 249.462841 
L 210.529378 249.465447 
L 227.616459 249.468519 
L 244.703541 249.472253 
L 261.790622 249.476811 
L 278.877703 249.482689 
L 295.964785 249.490308 
L 313.051866 249.500604 
L 330.138947 249.515181 
L 347.226029 249.536796 
L 364.31311 249.569559 
L 381.400191 249.624351 
L 398.487273 249.72671 
" clip-path="url(#p212c209aa3)" style="fill: none; stroke: #bcbd22; stroke-width: 1.5; stroke-linecap: square"/>
   </g>
   <g id="line2d_91">
    <path d="M 73.832727 249.649586 
L 90.919809 249.650627 
L 108.00689 249.652182 
L 125.093971 249.6538 
L 142.181053 249.655575 
L 159.268134 249.657479 
L 176.355215 249.659562 
L 193.442297 249.661862 
L 210.529378 249.664431 
L 227.616459 249.66743 
L 244.703541 249.670982 
L 261.790622 249.67528 
L 278.877703 249.680706 
L 295.964785 249.687809 
L 313.051866 249.697576 
L 330.138947 249.711633 
L 347.226029 249.732798 
L 364.31311 249.765389 
L 381.400191 249.818733 
L 398.487273 249.899042 
" clip-path="url(#p212c209aa3)" style="fill: none; stroke: #17becf; stroke-width: 1.5; stroke-linecap: square"/>
   </g>
   <g id="line2d_92">
    <path d="M 73.832727 249.659742 
L 90.919809 249.660638 
L 108.00689 249.661992 
L 125.093971 249.663622 
L 142.181053 249.665433 
L 159.268134 249.667435 
L 176.355215 249.669554 
L 193.442297 249.671874 
L 210.529378 249.674508 
L 227.616459 249.677659 
L 244.703541 249.681267 
L 261.790622 249.685526 
L 278.877703 249.691109 
L 295.964785 249.698435 
L 313.051866 249.708368 
L 330.138947 249.722692 
L 347.226029 249.744431 
L 364.31311 249.777991 
L 381.400191 249.830584 
L 398.487273 249.897858 
" clip-path="url(#p212c209aa3)" style="fill: none; stroke: #1f77b4; stroke-width: 1.5; stroke-linecap: square"/>
   </g>
   <g id="line2d_93">
    <path d="M 73.832727 249.660463 
L 90.919809 249.661253 
L 108.00689 249.662506 
L 125.093971 249.664041 
L 142.181053 249.665802 
L 159.268134 249.667736 
L 176.355215 249.669862 
L 193.442297 249.672234 
L 210.529378 249.674899 
L 227.616459 249.67797 
L 244.703541 249.681614 
L 261.790622 249.686075 
L 278.877703 249.691689 
L 295.964785 249.699057 
L 313.051866 249.709262 
L 330.138947 249.724064 
L 347.226029 249.746269 
L 364.31311 249.780395 
L 381.400191 249.831485 
L 398.487273 249.888562 
" clip-path="url(#p212c209aa3)" style="fill: none; stroke: #ff7f0e; stroke-width: 1.5; stroke-linecap: square"/>
   </g>
   <g id="line2d_94">
    <path d="M 73.832727 249.660926 
L 90.919809 249.661642 
L 108.00689 249.662802 
L 125.093971 249.664263 
L 142.181053 249.665973 
L 159.268134 249.667879 
L 176.355215 249.669993 
L 193.442297 249.672361 
L 210.529378 249.67504 
L 227.616459 249.678135 
L 244.703541 249.681812 
L 261.790622 249.686315 
L 278.877703 249.69201 
L 295.964785 249.699515 
L 313.051866 249.709929 
L 330.138947 249.72505 
L 347.226029 249.747708 
L 364.31311 249.782036 
L 381.400191 249.830967 
L 398.487273 249.880891 
" clip-path="url(#p212c209aa3)" style="fill: none; stroke: #2ca02c; stroke-width: 1.5; stroke-linecap: square"/>
   </g>
   <g id="patch_20">
    <path d="M 57.6 252.526345 
L 57.6 206.644966 
" style="fill: none; stroke: #000000; stroke-width: 0.8; stroke-linejoin: miter; stroke-linecap: square"/>
   </g>
   <g id="patch_21">
    <path d="M 414.72 252.526345 
L 414.72 206.644966 
" style="fill: none; stroke: #000000; stroke-width: 0.8; stroke-linejoin: miter; stroke-linecap: square"/>
   </g>
   <g id="patch_22">
    <path d="M 57.6 252.526345 
L 414.72 252.526345 
" style="fill: none; stroke: #000000; stroke-width: 0.8; stroke-linejoin: miter; stroke-linecap: square"/>
   </g>
   <g id="patch_23">
    <path d="M 57.6 206.644966 
L 414.72 206.644966 
" style="fill: none; stroke: #000000; stroke-width: 0.8; stroke-linejoin: miter; stroke-linecap: square"/>
   </g>
   <g id="text_16">
    <!-- yB - Container 1 -->
    <g transform="translate(187.469063 203.644966)scale(0.12 -0.12)">
     <defs>
      <path id="DejaVuSans-42" d="M 1259 2228 
L 1259 519 
L 2272 519 
Q 2781 519 3026 730 
Q 3272 941 3272 1375 
Q 3272 1813 3026 2020 
Q 2781 2228 2272 2228 
L 1259 2228 
z
M 1259 4147 
L 1259 2741 
L 2194 2741 
Q 2656 2741 2882 2914 
Q 3109 3088 3109 3444 
Q 3109 3797 2882 3972 
Q 2656 4147 2194 4147 
L 1259 4147 
z
M 628 4666 
L 2241 4666 
Q 2963 4666 3353 4366 
Q 3744 4066 3744 3513 
Q 3744 3084 3544 2831 
Q 3344 2578 2956 2516 
Q 3422 2416 3680 2098 
Q 3938 1781 3938 1306 
Q 3938 681 3513 340 
Q 3088 0 2303 0 
L 628 0 
L 628 4666 
z
" transform="scale(0.015625)"/>
     </defs>
     <use xlink:href="#DejaVuSans-79"/>
     <use xlink:href="#DejaVuSans-42" x="59.179688"/>
     <use xlink:href="#DejaVuSans-20" x="127.783203"/>
     <use xlink:href="#DejaVuSans-2d" x="159.570312"/>
     <use xlink:href="#DejaVuSans-20" x="195.654297"/>
     <use xlink:href="#DejaVuSans-43" x="227.441406"/>
     <use xlink:href="#DejaVuSans-6f" x="297.265625"/>
     <use xlink:href="#DejaVuSans-6e" x="358.447266"/>
     <use xlink:href="#DejaVuSans-74" x="421.826172"/>
     <use xlink:href="#DejaVuSans-61" x="461.035156"/>
     <use xlink:href="#DejaVuSans-69" x="522.314453"/>
     <use xlink:href="#DejaVuSans-6e" x="550.097656"/>
     <use xlink:href="#DejaVuSans-65" x="613.476562"/>
     <use xlink:href="#DejaVuSans-72" x="675"/>
     <use xlink:href="#DejaVuSans-20" x="716.113281"/>
     <use xlink:href="#DejaVuSans-31" x="747.900391"/>
    </g>
   </g>
  </g>
  <g id="axes_6">
   <g id="patch_24">
    <path d="M 57.6 307.584 
L 414.72 307.584 
L 414.72 261.702621 
L 57.6 261.702621 
z
" style="fill: #ffffff"/>
   </g>
   <g id="matplotlib.axis_11">
    <g id="xtick_33">
     <g id="line2d_95">
      <g>
       <use xlink:href="#mc7a26f3762" x="73.832727" y="307.584" style="stroke: #000000; stroke-width: 0.8"/>
      </g>
     </g>
     <g id="text_17">
      <!-- 0.0 -->
      <g transform="translate(65.881165 322.182437)scale(0.1 -0.1)">
       <use xlink:href="#DejaVuSans-30"/>
       <use xlink:href="#DejaVuSans-2e" x="63.623047"/>
       <use xlink:href="#DejaVuSans-30" x="95.410156"/>
      </g>
     </g>
    </g>
    <g id="xtick_34">
     <g id="line2d_96">
      <g>
       <use xlink:href="#mc7a26f3762" x="116.550431" y="307.584" style="stroke: #000000; stroke-width: 0.8"/>
      </g>
     </g>
     <g id="text_18">
      <!-- 2.5 -->
      <g transform="translate(108.598868 322.182437)scale(0.1 -0.1)">
       <defs>
        <path id="DejaVuSans-32" d="M 1228 531 
L 3431 531 
L 3431 0 
L 469 0 
L 469 531 
Q 828 903 1448 1529 
Q 2069 2156 2228 2338 
Q 2531 2678 2651 2914 
Q 2772 3150 2772 3378 
Q 2772 3750 2511 3984 
Q 2250 4219 1831 4219 
Q 1534 4219 1204 4116 
Q 875 4013 500 3803 
L 500 4441 
Q 881 4594 1212 4672 
Q 1544 4750 1819 4750 
Q 2544 4750 2975 4387 
Q 3406 4025 3406 3419 
Q 3406 3131 3298 2873 
Q 3191 2616 2906 2266 
Q 2828 2175 2409 1742 
Q 1991 1309 1228 531 
z
" transform="scale(0.015625)"/>
       </defs>
       <use xlink:href="#DejaVuSans-32"/>
       <use xlink:href="#DejaVuSans-2e" x="63.623047"/>
       <use xlink:href="#DejaVuSans-35" x="95.410156"/>
      </g>
     </g>
    </g>
    <g id="xtick_35">
     <g id="line2d_97">
      <g>
       <use xlink:href="#mc7a26f3762" x="159.268134" y="307.584" style="stroke: #000000; stroke-width: 0.8"/>
      </g>
     </g>
     <g id="text_19">
      <!-- 5.0 -->
      <g transform="translate(151.316571 322.182437)scale(0.1 -0.1)">
       <use xlink:href="#DejaVuSans-35"/>
       <use xlink:href="#DejaVuSans-2e" x="63.623047"/>
       <use xlink:href="#DejaVuSans-30" x="95.410156"/>
      </g>
     </g>
    </g>
    <g id="xtick_36">
     <g id="line2d_98">
      <g>
       <use xlink:href="#mc7a26f3762" x="201.985837" y="307.584" style="stroke: #000000; stroke-width: 0.8"/>
      </g>
     </g>
     <g id="text_20">
      <!-- 7.5 -->
      <g transform="translate(194.034275 322.182437)scale(0.1 -0.1)">
       <defs>
        <path id="DejaVuSans-37" d="M 525 4666 
L 3525 4666 
L 3525 4397 
L 1831 0 
L 1172 0 
L 2766 4134 
L 525 4134 
L 525 4666 
z
" transform="scale(0.015625)"/>
       </defs>
       <use xlink:href="#DejaVuSans-37"/>
       <use xlink:href="#DejaVuSans-2e" x="63.623047"/>
       <use xlink:href="#DejaVuSans-35" x="95.410156"/>
      </g>
     </g>
    </g>
    <g id="xtick_37">
     <g id="line2d_99">
      <g>
       <use xlink:href="#mc7a26f3762" x="244.703541" y="307.584" style="stroke: #000000; stroke-width: 0.8"/>
      </g>
     </g>
     <g id="text_21">
      <!-- 10.0 -->
      <g transform="translate(233.570728 322.182437)scale(0.1 -0.1)">
       <use xlink:href="#DejaVuSans-31"/>
       <use xlink:href="#DejaVuSans-30" x="63.623047"/>
       <use xlink:href="#DejaVuSans-2e" x="127.246094"/>
       <use xlink:href="#DejaVuSans-30" x="159.033203"/>
      </g>
     </g>
    </g>
    <g id="xtick_38">
     <g id="line2d_100">
      <g>
       <use xlink:href="#mc7a26f3762" x="287.421244" y="307.584" style="stroke: #000000; stroke-width: 0.8"/>
      </g>
     </g>
     <g id="text_22">
      <!-- 12.5 -->
      <g transform="translate(276.288432 322.182437)scale(0.1 -0.1)">
       <use xlink:href="#DejaVuSans-31"/>
       <use xlink:href="#DejaVuSans-32" x="63.623047"/>
       <use xlink:href="#DejaVuSans-2e" x="127.246094"/>
       <use xlink:href="#DejaVuSans-35" x="159.033203"/>
      </g>
     </g>
    </g>
    <g id="xtick_39">
     <g id="line2d_101">
      <g>
       <use xlink:href="#mc7a26f3762" x="330.138947" y="307.584" style="stroke: #000000; stroke-width: 0.8"/>
      </g>
     </g>
     <g id="text_23">
      <!-- 15.0 -->
      <g transform="translate(319.006135 322.182437)scale(0.1 -0.1)">
       <use xlink:href="#DejaVuSans-31"/>
       <use xlink:href="#DejaVuSans-35" x="63.623047"/>
       <use xlink:href="#DejaVuSans-2e" x="127.246094"/>
       <use xlink:href="#DejaVuSans-30" x="159.033203"/>
      </g>
     </g>
    </g>
    <g id="xtick_40">
     <g id="line2d_102">
      <g>
       <use xlink:href="#mc7a26f3762" x="372.856651" y="307.584" style="stroke: #000000; stroke-width: 0.8"/>
      </g>
     </g>
     <g id="text_24">
      <!-- 17.5 -->
      <g transform="translate(361.723838 322.182437)scale(0.1 -0.1)">
       <use xlink:href="#DejaVuSans-31"/>
       <use xlink:href="#DejaVuSans-37" x="63.623047"/>
       <use xlink:href="#DejaVuSans-2e" x="127.246094"/>
       <use xlink:href="#DejaVuSans-35" x="159.033203"/>
      </g>
     </g>
    </g>
    <g id="text_25">
     <!-- position z -->
     <g transform="translate(212.142031 335.860562)scale(0.1 -0.1)">
      <defs>
       <path id="DejaVuSans-70" d="M 1159 525 
L 1159 -1331 
L 581 -1331 
L 581 3500 
L 1159 3500 
L 1159 2969 
Q 1341 3281 1617 3432 
Q 1894 3584 2278 3584 
Q 2916 3584 3314 3078 
Q 3713 2572 3713 1747 
Q 3713 922 3314 415 
Q 2916 -91 2278 -91 
Q 1894 -91 1617 61 
Q 1341 213 1159 525 
z
M 3116 1747 
Q 3116 2381 2855 2742 
Q 2594 3103 2138 3103 
Q 1681 3103 1420 2742 
Q 1159 2381 1159 1747 
Q 1159 1113 1420 752 
Q 1681 391 2138 391 
Q 2594 391 2855 752 
Q 3116 1113 3116 1747 
z
" transform="scale(0.015625)"/>
      </defs>
      <use xlink:href="#DejaVuSans-70"/>
      <use xlink:href="#DejaVuSans-6f" x="63.476562"/>
      <use xlink:href="#DejaVuSans-73" x="124.658203"/>
      <use xlink:href="#DejaVuSans-69" x="176.757812"/>
      <use xlink:href="#DejaVuSans-74" x="204.541016"/>
      <use xlink:href="#DejaVuSans-69" x="243.75"/>
      <use xlink:href="#DejaVuSans-6f" x="271.533203"/>
      <use xlink:href="#DejaVuSans-6e" x="332.714844"/>
      <use xlink:href="#DejaVuSans-20" x="396.09375"/>
      <use xlink:href="#DejaVuSans-7a" x="427.880859"/>
     </g>
    </g>
   </g>
   <g id="matplotlib.axis_12">
    <g id="ytick_11">
     <g id="line2d_103">
      <g>
       <use xlink:href="#mcc8841f06a" x="57.6" y="287.016064" style="stroke: #000000; stroke-width: 0.8"/>
      </g>
     </g>
     <g id="text_26">
      <!-- 0.049975 -->
      <g transform="translate(2.884375 290.815283)scale(0.1 -0.1)">
       <use xlink:href="#DejaVuSans-30"/>
       <use xlink:href="#DejaVuSans-2e" x="63.623047"/>
       <use xlink:href="#DejaVuSans-30" x="95.410156"/>
       <use xlink:href="#DejaVuSans-34" x="159.033203"/>
       <use xlink:href="#DejaVuSans-39" x="222.65625"/>
       <use xlink:href="#DejaVuSans-39" x="286.279297"/>
       <use xlink:href="#DejaVuSans-37" x="349.902344"/>
       <use xlink:href="#DejaVuSans-35" x="413.525391"/>
      </g>
     </g>
    </g>
    <g id="ytick_12">
     <g id="line2d_104">
      <g>
       <use xlink:href="#mcc8841f06a" x="57.6" y="265.519951" style="stroke: #000000; stroke-width: 0.8"/>
      </g>
     </g>
     <g id="text_27">
      <!-- 0.050000 -->
      <g transform="translate(2.884375 269.31917)scale(0.1 -0.1)">
       <use xlink:href="#DejaVuSans-30"/>
       <use xlink:href="#DejaVuSans-2e" x="63.623047"/>
       <use xlink:href="#DejaVuSans-30" x="95.410156"/>
       <use xlink:href="#DejaVuSans-35" x="159.033203"/>
       <use xlink:href="#DejaVuSans-30" x="222.65625"/>
       <use xlink:href="#DejaVuSans-30" x="286.279297"/>
       <use xlink:href="#DejaVuSans-30" x="349.902344"/>
       <use xlink:href="#DejaVuSans-30" x="413.525391"/>
      </g>
     </g>
    </g>
   </g>
   <g id="line2d_105">
    <path d="M 73.832727 265.038099 
L 90.919809 265.03793 
L 108.00689 265.037583 
L 125.093971 265.037145 
L 142.181053 265.03668 
L 159.268134 265.036208 
L 176.355215 265.035721 
L 193.442297 265.035218 
L 210.529378 265.034752 
L 227.616459 265.034311 
L 244.703541 265.033881 
L 261.790622 265.033473 
L 278.877703 265.033085 
L 295.964785 265.032676 
L 313.051866 265.032312 
L 330.138947 265.031966 
L 347.226029 265.031657 
L 364.31311 265.031374 
L 381.400191 265.031134 
L 398.487273 265.031034 
" clip-path="url(#p6b6f7232bf)" style="fill: none; stroke: #1f77b4; stroke-width: 1.5; stroke-linecap: square"/>
   </g>
   <g id="line2d_106">
    <path d="M 73.832727 305.498483 
L 90.919809 290.422457 
L 108.00689 278.210371 
L 125.093971 268.87557 
L 142.181053 264.494277 
L 159.268134 263.956561 
L 176.355215 265.050532 
L 193.442297 266.156449 
L 210.529378 266.647122 
L 227.616459 266.585868 
L 244.703541 266.27415 
L 261.790622 265.955621 
L 278.877703 265.73371 
L 295.964785 265.612238 
L 313.051866 265.557872 
L 330.138947 265.53762 
L 347.226029 265.529548 
L 364.31311 265.520642 
L 381.400191 265.505087 
L 398.487273 265.489054 
" clip-path="url(#p6b6f7232bf)" style="fill: none; stroke: #ff7f0e; stroke-width: 1.5; stroke-linecap: square"/>
   </g>
   <g id="line2d_107">
    <path d="M 73.832727 265.375184 
L 90.919809 265.280759 
L 108.00689 265.228996 
L 125.093971 265.194755 
L 142.181053 265.121993 
L 159.268134 264.937333 
L 176.355215 264.602016 
L 193.442297 264.171838 
L 210.529378 263.818305 
L 227.616459 263.788138 
L 244.703541 264.317879 
L 261.790622 265.545021 
L 278.877703 267.454696 
L 295.964785 269.879418 
L 313.051866 272.544808 
L 330.138947 275.13878 
L 347.226029 277.379104 
L 364.31311 279.061393 
L 381.400191 280.080422 
L 398.487273 280.433761 
" clip-path="url(#p6b6f7232bf)" style="fill: none; stroke: #2ca02c; stroke-width: 1.5; stroke-linecap: square"/>
   </g>
   <g id="line2d_108">
    <path d="M 73.832727 265.515715 
L 90.919809 265.512806 
L 108.00689 265.510901 
L 125.093971 265.509622 
L 142.181053 265.508662 
L 159.268134 265.507821 
L 176.355215 265.506988 
L 193.442297 265.506118 
L 210.529378 265.505199 
L 227.616459 265.504236 
L 244.703541 265.503232 
L 261.790622 265.502189 
L 278.877703 265.501106 
L 295.964785 265.499979 
L 313.051866 265.498806 
L 330.138947 265.497584 
L 347.226029 265.496312 
L 364.31311 265.494988 
L 381.400191 265.493611 
L 398.487273 265.492193 
" clip-path="url(#p6b6f7232bf)" style="fill: none; stroke: #d62728; stroke-width: 1.5; stroke-linecap: square"/>
   </g>
   <g id="line2d_109">
    <path d="M 73.832727 265.511656 
L 90.919809 265.513174 
L 108.00689 265.514605 
L 125.093971 265.515736 
L 142.181053 265.516561 
L 159.268134 265.517127 
L 176.355215 265.517497 
L 193.442297 265.517725 
L 210.529378 265.517858 
L 227.616459 265.517927 
L 244.703541 265.517953 
L 261.790622 265.51795 
L 278.877703 265.517929 
L 295.964785 265.517894 
L 313.051866 265.517849 
L 330.138947 265.517798 
L 347.226029 265.517741 
L 364.31311 265.517679 
L 381.400191 265.517614 
L 398.487273 265.517546 
" clip-path="url(#p6b6f7232bf)" style="fill: none; stroke: #9467bd; stroke-width: 1.5; stroke-linecap: square"/>
   </g>
   <g id="line2d_110">
    <path d="M 73.832727 265.510424 
L 90.919809 265.511448 
L 108.00689 265.512715 
L 125.093971 265.513963 
L 142.181053 265.514968 
L 159.268134 265.515825 
L 176.355215 265.516488 
L 193.442297 265.517055 
L 210.529378 265.517498 
L 227.616459 265.517862 
L 244.703541 265.51815 
L 261.790622 265.518379 
L 278.877703 265.518561 
L 295.964785 265.518721 
L 313.051866 265.518843 
L 330.138947 265.518929 
L 347.226029 265.51902 
L 364.31311 265.519075 
L 381.400191 265.519111 
L 398.487273 265.519184 
" clip-path="url(#p6b6f7232bf)" style="fill: none; stroke: #8c564b; stroke-width: 1.5; stroke-linecap: square"/>
   </g>
   <g id="line2d_111">
    <path d="M 73.832727 265.510227 
L 90.919809 265.510931 
L 108.00689 265.511928 
L 125.093971 265.513177 
L 142.181053 265.514018 
L 159.268134 265.514927 
L 176.355215 265.515507 
L 193.442297 265.516102 
L 210.529378 265.516723 
L 227.616459 265.517139 
L 244.703541 265.517463 
L 261.790622 265.517618 
L 278.877703 265.517675 
L 295.964785 265.517842 
L 313.051866 265.518081 
L 330.138947 265.518241 
L 347.226029 265.518369 
L 364.31311 265.518092 
L 381.400191 265.518104 
L 398.487273 265.51882 
" clip-path="url(#p6b6f7232bf)" style="fill: none; stroke: #e377c2; stroke-width: 1.5; stroke-linecap: square"/>
   </g>
   <g id="line2d_112">
    <path d="M 73.832727 265.5106 
L 90.919809 265.511118 
L 108.00689 265.511983 
L 125.093971 265.513003 
L 142.181053 265.513901 
L 159.268134 265.514743 
L 176.355215 265.515313 
L 193.442297 265.516012 
L 210.529378 265.516307 
L 227.616459 265.51719 
L 244.703541 265.517106 
L 261.790622 265.518795 
L 278.877703 265.516809 
L 295.964785 265.518665 
L 313.051866 265.518151 
L 330.138947 265.516284 
L 347.226029 265.515408 
L 364.31311 265.477663 
L 381.400191 265.523414 
L 398.487273 265.269481 
" clip-path="url(#p6b6f7232bf)" style="fill: none; stroke: #7f7f7f; stroke-width: 1.5; stroke-linecap: square"/>
   </g>
   <g id="line2d_113">
    <path d="M 73.832727 265.4711 
L 90.919809 265.467695 
L 108.00689 265.46354 
L 125.093971 265.458607 
L 142.181053 265.452783 
L 159.268134 265.44597 
L 176.355215 265.438083 
L 193.442297 265.428976 
L 210.529378 265.418609 
L 227.616459 265.406852 
L 244.703541 265.393719 
L 261.790622 265.379161 
L 278.877703 265.363576 
L 295.964785 265.347323 
L 313.051866 265.331543 
L 330.138947 265.318505 
L 347.226029 265.312274 
L 364.31311 265.31953 
L 381.400191 265.359214 
L 398.487273 265.478125 
" clip-path="url(#p6b6f7232bf)" style="fill: none; stroke: #bcbd22; stroke-width: 1.5; stroke-linecap: square"/>
   </g>
   <g id="line2d_114">
    <path d="M 73.832727 265.001759 
L 90.919809 264.996912 
L 108.00689 264.990565 
L 125.093971 264.983451 
L 142.181053 264.975603 
L 159.268134 264.967107 
L 176.355215 264.957862 
L 193.442297 264.947864 
L 210.529378 264.93708 
L 227.616459 264.925541 
L 244.703541 264.913356 
L 261.790622 264.900669 
L 278.877703 264.887922 
L 295.964785 264.875737 
L 313.051866 264.865498 
L 330.138947 264.859862 
L 347.226029 264.86336 
L 364.31311 264.884138 
L 381.400191 264.940206 
L 398.487273 265.049396 
" clip-path="url(#p6b6f7232bf)" style="fill: none; stroke: #17becf; stroke-width: 1.5; stroke-linecap: square"/>
   </g>
   <g id="line2d_115">
    <path d="M 73.832727 264.963449 
L 90.919809 264.960065 
L 108.00689 264.954392 
L 125.093971 264.947321 
L 142.181053 264.939321 
L 159.268134 264.930558 
L 176.355215 264.921086 
L 193.442297 264.910875 
L 210.529378 264.899876 
L 227.616459 264.887979 
L 244.703541 264.875585 
L 261.790622 264.862845 
L 278.877703 264.849918 
L 295.964785 264.837677 
L 313.051866 264.827851 
L 330.138947 264.823182 
L 347.226029 264.828741 
L 364.31311 264.853966 
L 381.400191 264.914724 
L 398.487273 265.009358 
" clip-path="url(#p6b6f7232bf)" style="fill: none; stroke: #1f77b4; stroke-width: 1.5; stroke-linecap: square"/>
   </g>
   <g id="line2d_116">
    <path d="M 73.832727 264.960041 
L 90.919809 264.957321 
L 108.00689 264.952266 
L 125.093971 264.945563 
L 142.181053 264.937716 
L 159.268134 264.929015 
L 176.355215 264.919465 
L 193.442297 264.909114 
L 210.529378 264.89798 
L 227.616459 264.886192 
L 244.703541 264.873697 
L 261.790622 264.860689 
L 278.877703 264.847853 
L 295.964785 264.835935 
L 313.051866 264.82654 
L 330.138947 264.822945 
L 347.226029 264.831056 
L 364.31311 264.86031 
L 381.400191 264.922553 
L 398.487273 265.004434 
" clip-path="url(#p6b6f7232bf)" style="fill: none; stroke: #ff7f0e; stroke-width: 1.5; stroke-linecap: square"/>
   </g>
   <g id="line2d_117">
    <path d="M 73.832727 264.957876 
L 90.919809 264.95547 
L 108.00689 264.950864 
L 125.093971 264.944513 
L 142.181053 264.936859 
L 159.268134 264.928207 
L 176.355215 264.918649 
L 193.442297 264.908263 
L 210.529378 264.897068 
L 227.616459 264.885175 
L 244.703541 264.872627 
L 261.790622 264.859666 
L 278.877703 264.846909 
L 295.964785 264.835299 
L 313.051866 264.826711 
L 330.138947 264.824682 
L 347.226029 264.835234 
L 364.31311 264.867284 
L 381.400191 264.928759 
L 398.487273 265.000613 
" clip-path="url(#p6b6f7232bf)" style="fill: none; stroke: #2ca02c; stroke-width: 1.5; stroke-linecap: square"/>
   </g>
   <g id="patch_25">
    <path d="M 57.6 307.584 
L 57.6 261.702621 
" style="fill: none; stroke: #000000; stroke-width: 0.8; stroke-linejoin: miter; stroke-linecap: square"/>
   </g>
   <g id="patch_26">
    <path d="M 414.72 307.584 
L 414.72 261.702621 
" style="fill: none; stroke: #000000; stroke-width: 0.8; stroke-linejoin: miter; stroke-linecap: square"/>
   </g>
   <g id="patch_27">
    <path d="M 57.6 307.584 
L 414.72 307.584 
" style="fill: none; stroke: #000000; stroke-width: 0.8; stroke-linejoin: miter; stroke-linecap: square"/>
   </g>
   <g id="patch_28">
    <path d="M 57.6 261.702621 
L 414.72 261.702621 
" style="fill: none; stroke: #000000; stroke-width: 0.8; stroke-linejoin: miter; stroke-linecap: square"/>
   </g>
   <g id="text_28">
    <!-- yC - Container 1 -->
    <g transform="translate(187.395938 258.702621)scale(0.12 -0.12)">
     <use xlink:href="#DejaVuSans-79"/>
     <use xlink:href="#DejaVuSans-43" x="59.179688"/>
     <use xlink:href="#DejaVuSans-20" x="129.003906"/>
     <use xlink:href="#DejaVuSans-2d" x="160.791016"/>
     <use xlink:href="#DejaVuSans-20" x="196.875"/>
     <use xlink:href="#DejaVuSans-43" x="228.662109"/>
     <use xlink:href="#DejaVuSans-6f" x="298.486328"/>
     <use xlink:href="#DejaVuSans-6e" x="359.667969"/>
     <use xlink:href="#DejaVuSans-74" x="423.046875"/>
     <use xlink:href="#DejaVuSans-61" x="462.255859"/>
     <use xlink:href="#DejaVuSans-69" x="523.535156"/>
     <use xlink:href="#DejaVuSans-6e" x="551.318359"/>
     <use xlink:href="#DejaVuSans-65" x="614.697266"/>
     <use xlink:href="#DejaVuSans-72" x="676.220703"/>
     <use xlink:href="#DejaVuSans-20" x="717.333984"/>
     <use xlink:href="#DejaVuSans-31" x="749.121094"/>
    </g>
   </g>
  </g>
  <g id="legend_1">
   <g id="patch_29">
    <path d="M 372.146875 269.707812 
L 457.8 269.707812 
Q 459.8 269.707812 459.8 267.707812 
L 459.8 77.892187 
Q 459.8 75.892187 457.8 75.892187 
L 372.146875 75.892187 
Q 370.146875 75.892187 370.146875 77.892187 
L 370.146875 267.707812 
Q 370.146875 269.707812 372.146875 269.707812 
z
" style="fill: #ffffff; opacity: 0.8; stroke: #cccccc; stroke-linejoin: miter"/>
   </g>
   <g id="line2d_118">
    <path d="M 374.146875 83.990625 
L 384.146875 83.990625 
L 394.146875 83.990625 
" style="fill: none; stroke: #1f77b4; stroke-width: 1.5; stroke-linecap: square"/>
   </g>
   <g id="text_29">
    <!-- t=0.0000 -->
    <g transform="translate(402.146875 87.490625)scale(0.1 -0.1)">
     <defs>
      <path id="DejaVuSans-3d" d="M 678 2906 
L 4684 2906 
L 4684 2381 
L 678 2381 
L 678 2906 
z
M 678 1631 
L 4684 1631 
L 4684 1100 
L 678 1100 
L 678 1631 
z
" transform="scale(0.015625)"/>
     </defs>
     <use xlink:href="#DejaVuSans-74"/>
     <use xlink:href="#DejaVuSans-3d" x="39.208984"/>
     <use xlink:href="#DejaVuSans-30" x="122.998047"/>
     <use xlink:href="#DejaVuSans-2e" x="186.621094"/>
     <use xlink:href="#DejaVuSans-30" x="218.408203"/>
     <use xlink:href="#DejaVuSans-30" x="282.03125"/>
     <use xlink:href="#DejaVuSans-30" x="345.654297"/>
     <use xlink:href="#DejaVuSans-30" x="409.277344"/>
    </g>
   </g>
   <g id="line2d_119">
    <path d="M 374.146875 98.66875 
L 384.146875 98.66875 
L 394.146875 98.66875 
" style="fill: none; stroke: #ff7f0e; stroke-width: 1.5; stroke-linecap: square"/>
   </g>
   <g id="text_30">
    <!-- t=8.0000 -->
    <g transform="translate(402.146875 102.16875)scale(0.1 -0.1)">
     <defs>
      <path id="DejaVuSans-38" d="M 2034 2216 
Q 1584 2216 1326 1975 
Q 1069 1734 1069 1313 
Q 1069 891 1326 650 
Q 1584 409 2034 409 
Q 2484 409 2743 651 
Q 3003 894 3003 1313 
Q 3003 1734 2745 1975 
Q 2488 2216 2034 2216 
z
M 1403 2484 
Q 997 2584 770 2862 
Q 544 3141 544 3541 
Q 544 4100 942 4425 
Q 1341 4750 2034 4750 
Q 2731 4750 3128 4425 
Q 3525 4100 3525 3541 
Q 3525 3141 3298 2862 
Q 3072 2584 2669 2484 
Q 3125 2378 3379 2068 
Q 3634 1759 3634 1313 
Q 3634 634 3220 271 
Q 2806 -91 2034 -91 
Q 1263 -91 848 271 
Q 434 634 434 1313 
Q 434 1759 690 2068 
Q 947 2378 1403 2484 
z
M 1172 3481 
Q 1172 3119 1398 2916 
Q 1625 2713 2034 2713 
Q 2441 2713 2670 2916 
Q 2900 3119 2900 3481 
Q 2900 3844 2670 4047 
Q 2441 4250 2034 4250 
Q 1625 4250 1398 4047 
Q 1172 3844 1172 3481 
z
" transform="scale(0.015625)"/>
     </defs>
     <use xlink:href="#DejaVuSans-74"/>
     <use xlink:href="#DejaVuSans-3d" x="39.208984"/>
     <use xlink:href="#DejaVuSans-38" x="122.998047"/>
     <use xlink:href="#DejaVuSans-2e" x="186.621094"/>
     <use xlink:href="#DejaVuSans-30" x="218.408203"/>
     <use xlink:href="#DejaVuSans-30" x="282.03125"/>
     <use xlink:href="#DejaVuSans-30" x="345.654297"/>
     <use xlink:href="#DejaVuSans-30" x="409.277344"/>
    </g>
   </g>
   <g id="line2d_120">
    <path d="M 374.146875 113.346875 
L 384.146875 113.346875 
L 394.146875 113.346875 
" style="fill: none; stroke: #2ca02c; stroke-width: 1.5; stroke-linecap: square"/>
   </g>
   <g id="text_31">
    <!-- t=16.0000 -->
    <g transform="translate(402.146875 116.846875)scale(0.1 -0.1)">
     <defs>
      <path id="DejaVuSans-36" d="M 2113 2584 
Q 1688 2584 1439 2293 
Q 1191 2003 1191 1497 
Q 1191 994 1439 701 
Q 1688 409 2113 409 
Q 2538 409 2786 701 
Q 3034 994 3034 1497 
Q 3034 2003 2786 2293 
Q 2538 2584 2113 2584 
z
M 3366 4563 
L 3366 3988 
Q 3128 4100 2886 4159 
Q 2644 4219 2406 4219 
Q 1781 4219 1451 3797 
Q 1122 3375 1075 2522 
Q 1259 2794 1537 2939 
Q 1816 3084 2150 3084 
Q 2853 3084 3261 2657 
Q 3669 2231 3669 1497 
Q 3669 778 3244 343 
Q 2819 -91 2113 -91 
Q 1303 -91 875 529 
Q 447 1150 447 2328 
Q 447 3434 972 4092 
Q 1497 4750 2381 4750 
Q 2619 4750 2861 4703 
Q 3103 4656 3366 4563 
z
" transform="scale(0.015625)"/>
     </defs>
     <use xlink:href="#DejaVuSans-74"/>
     <use xlink:href="#DejaVuSans-3d" x="39.208984"/>
     <use xlink:href="#DejaVuSans-31" x="122.998047"/>
     <use xlink:href="#DejaVuSans-36" x="186.621094"/>
     <use xlink:href="#DejaVuSans-2e" x="250.244141"/>
     <use xlink:href="#DejaVuSans-30" x="282.03125"/>
     <use xlink:href="#DejaVuSans-30" x="345.654297"/>
     <use xlink:href="#DejaVuSans-30" x="409.277344"/>
     <use xlink:href="#DejaVuSans-30" x="472.900391"/>
    </g>
   </g>
   <g id="line2d_121">
    <path d="M 374.146875 128.025 
L 384.146875 128.025 
L 394.146875 128.025 
" style="fill: none; stroke: #d62728; stroke-width: 1.5; stroke-linecap: square"/>
   </g>
   <g id="text_32">
    <!-- t=24.0000 -->
    <g transform="translate(402.146875 131.525)scale(0.1 -0.1)">
     <use xlink:href="#DejaVuSans-74"/>
     <use xlink:href="#DejaVuSans-3d" x="39.208984"/>
     <use xlink:href="#DejaVuSans-32" x="122.998047"/>
     <use xlink:href="#DejaVuSans-34" x="186.621094"/>
     <use xlink:href="#DejaVuSans-2e" x="250.244141"/>
     <use xlink:href="#DejaVuSans-30" x="282.03125"/>
     <use xlink:href="#DejaVuSans-30" x="345.654297"/>
     <use xlink:href="#DejaVuSans-30" x="409.277344"/>
     <use xlink:href="#DejaVuSans-30" x="472.900391"/>
    </g>
   </g>
   <g id="line2d_122">
    <path d="M 374.146875 142.703125 
L 384.146875 142.703125 
L 394.146875 142.703125 
" style="fill: none; stroke: #9467bd; stroke-width: 1.5; stroke-linecap: square"/>
   </g>
   <g id="text_33">
    <!-- t=32.0000 -->
    <g transform="translate(402.146875 146.203125)scale(0.1 -0.1)">
     <defs>
      <path id="DejaVuSans-33" d="M 2597 2516 
Q 3050 2419 3304 2112 
Q 3559 1806 3559 1356 
Q 3559 666 3084 287 
Q 2609 -91 1734 -91 
Q 1441 -91 1130 -33 
Q 819 25 488 141 
L 488 750 
Q 750 597 1062 519 
Q 1375 441 1716 441 
Q 2309 441 2620 675 
Q 2931 909 2931 1356 
Q 2931 1769 2642 2001 
Q 2353 2234 1838 2234 
L 1294 2234 
L 1294 2753 
L 1863 2753 
Q 2328 2753 2575 2939 
Q 2822 3125 2822 3475 
Q 2822 3834 2567 4026 
Q 2313 4219 1838 4219 
Q 1578 4219 1281 4162 
Q 984 4106 628 3988 
L 628 4550 
Q 988 4650 1302 4700 
Q 1616 4750 1894 4750 
Q 2613 4750 3031 4423 
Q 3450 4097 3450 3541 
Q 3450 3153 3228 2886 
Q 3006 2619 2597 2516 
z
" transform="scale(0.015625)"/>
     </defs>
     <use xlink:href="#DejaVuSans-74"/>
     <use xlink:href="#DejaVuSans-3d" x="39.208984"/>
     <use xlink:href="#DejaVuSans-33" x="122.998047"/>
     <use xlink:href="#DejaVuSans-32" x="186.621094"/>
     <use xlink:href="#DejaVuSans-2e" x="250.244141"/>
     <use xlink:href="#DejaVuSans-30" x="282.03125"/>
     <use xlink:href="#DejaVuSans-30" x="345.654297"/>
     <use xlink:href="#DejaVuSans-30" x="409.277344"/>
     <use xlink:href="#DejaVuSans-30" x="472.900391"/>
    </g>
   </g>
   <g id="line2d_123">
    <path d="M 374.146875 157.38125 
L 384.146875 157.38125 
L 394.146875 157.38125 
" style="fill: none; stroke: #8c564b; stroke-width: 1.5; stroke-linecap: square"/>
   </g>
   <g id="text_34">
    <!-- t=40.0000 -->
    <g transform="translate(402.146875 160.88125)scale(0.1 -0.1)">
     <use xlink:href="#DejaVuSans-74"/>
     <use xlink:href="#DejaVuSans-3d" x="39.208984"/>
     <use xlink:href="#DejaVuSans-34" x="122.998047"/>
     <use xlink:href="#DejaVuSans-30" x="186.621094"/>
     <use xlink:href="#DejaVuSans-2e" x="250.244141"/>
     <use xlink:href="#DejaVuSans-30" x="282.03125"/>
     <use xlink:href="#DejaVuSans-30" x="345.654297"/>
     <use xlink:href="#DejaVuSans-30" x="409.277344"/>
     <use xlink:href="#DejaVuSans-30" x="472.900391"/>
    </g>
   </g>
   <g id="line2d_124">
    <path d="M 374.146875 172.059375 
L 384.146875 172.059375 
L 394.146875 172.059375 
" style="fill: none; stroke: #e377c2; stroke-width: 1.5; stroke-linecap: square"/>
   </g>
   <g id="text_35">
    <!-- t=48.0000 -->
    <g transform="translate(402.146875 175.559375)scale(0.1 -0.1)">
     <use xlink:href="#DejaVuSans-74"/>
     <use xlink:href="#DejaVuSans-3d" x="39.208984"/>
     <use xlink:href="#DejaVuSans-34" x="122.998047"/>
     <use xlink:href="#DejaVuSans-38" x="186.621094"/>
     <use xlink:href="#DejaVuSans-2e" x="250.244141"/>
     <use xlink:href="#DejaVuSans-30" x="282.03125"/>
     <use xlink:href="#DejaVuSans-30" x="345.654297"/>
     <use xlink:href="#DejaVuSans-30" x="409.277344"/>
     <use xlink:href="#DejaVuSans-30" x="472.900391"/>
    </g>
   </g>
   <g id="line2d_125">
    <path d="M 374.146875 186.7375 
L 384.146875 186.7375 
L 394.146875 186.7375 
" style="fill: none; stroke: #7f7f7f; stroke-width: 1.5; stroke-linecap: square"/>
   </g>
   <g id="text_36">
    <!-- t=56.0000 -->
    <g transform="translate(402.146875 190.2375)scale(0.1 -0.1)">
     <use xlink:href="#DejaVuSans-74"/>
     <use xlink:href="#DejaVuSans-3d" x="39.208984"/>
     <use xlink:href="#DejaVuSans-35" x="122.998047"/>
     <use xlink:href="#DejaVuSans-36" x="186.621094"/>
     <use xlink:href="#DejaVuSans-2e" x="250.244141"/>
     <use xlink:href="#DejaVuSans-30" x="282.03125"/>
     <use xlink:href="#DejaVuSans-30" x="345.654297"/>
     <use xlink:href="#DejaVuSans-30" x="409.277344"/>
     <use xlink:href="#DejaVuSans-30" x="472.900391"/>
    </g>
   </g>
   <g id="line2d_126">
    <path d="M 374.146875 201.415625 
L 384.146875 201.415625 
L 394.146875 201.415625 
" style="fill: none; stroke: #bcbd22; stroke-width: 1.5; stroke-linecap: square"/>
   </g>
   <g id="text_37">
    <!-- t=64.0000 -->
    <g transform="translate(402.146875 204.915625)scale(0.1 -0.1)">
     <use xlink:href="#DejaVuSans-74"/>
     <use xlink:href="#DejaVuSans-3d" x="39.208984"/>
     <use xlink:href="#DejaVuSans-36" x="122.998047"/>
     <use xlink:href="#DejaVuSans-34" x="186.621094"/>
     <use xlink:href="#DejaVuSans-2e" x="250.244141"/>
     <use xlink:href="#DejaVuSans-30" x="282.03125"/>
     <use xlink:href="#DejaVuSans-30" x="345.654297"/>
     <use xlink:href="#DejaVuSans-30" x="409.277344"/>
     <use xlink:href="#DejaVuSans-30" x="472.900391"/>
    </g>
   </g>
   <g id="line2d_127">
    <path d="M 374.146875 216.09375 
L 384.146875 216.09375 
L 394.146875 216.09375 
" style="fill: none; stroke: #17becf; stroke-width: 1.5; stroke-linecap: square"/>
   </g>
   <g id="text_38">
    <!-- t=72.0000 -->
    <g transform="translate(402.146875 219.59375)scale(0.1 -0.1)">
     <use xlink:href="#DejaVuSans-74"/>
     <use xlink:href="#DejaVuSans-3d" x="39.208984"/>
     <use xlink:href="#DejaVuSans-37" x="122.998047"/>
     <use xlink:href="#DejaVuSans-32" x="186.621094"/>
     <use xlink:href="#DejaVuSans-2e" x="250.244141"/>
     <use xlink:href="#DejaVuSans-30" x="282.03125"/>
     <use xlink:href="#DejaVuSans-30" x="345.654297"/>
     <use xlink:href="#DejaVuSans-30" x="409.277344"/>
     <use xlink:href="#DejaVuSans-30" x="472.900391"/>
    </g>
   </g>
   <g id="line2d_128">
    <path d="M 374.146875 230.771875 
L 384.146875 230.771875 
L 394.146875 230.771875 
" style="fill: none; stroke: #1f77b4; stroke-width: 1.5; stroke-linecap: square"/>
   </g>
   <g id="text_39">
    <!-- t=80.0000 -->
    <g transform="translate(402.146875 234.271875)scale(0.1 -0.1)">
     <use xlink:href="#DejaVuSans-74"/>
     <use xlink:href="#DejaVuSans-3d" x="39.208984"/>
     <use xlink:href="#DejaVuSans-38" x="122.998047"/>
     <use xlink:href="#DejaVuSans-30" x="186.621094"/>
     <use xlink:href="#DejaVuSans-2e" x="250.244141"/>
     <use xlink:href="#DejaVuSans-30" x="282.03125"/>
     <use xlink:href="#DejaVuSans-30" x="345.654297"/>
     <use xlink:href="#DejaVuSans-30" x="409.277344"/>
     <use xlink:href="#DejaVuSans-30" x="472.900391"/>
    </g>
   </g>
   <g id="line2d_129">
    <path d="M 374.146875 245.45 
L 384.146875 245.45 
L 394.146875 245.45 
" style="fill: none; stroke: #ff7f0e; stroke-width: 1.5; stroke-linecap: square"/>
   </g>
   <g id="text_40">
    <!-- t=88.0000 -->
    <g transform="translate(402.146875 248.95)scale(0.1 -0.1)">
     <use xlink:href="#DejaVuSans-74"/>
     <use xlink:href="#DejaVuSans-3d" x="39.208984"/>
     <use xlink:href="#DejaVuSans-38" x="122.998047"/>
     <use xlink:href="#DejaVuSans-38" x="186.621094"/>
     <use xlink:href="#DejaVuSans-2e" x="250.244141"/>
     <use xlink:href="#DejaVuSans-30" x="282.03125"/>
     <use xlink:href="#DejaVuSans-30" x="345.654297"/>
     <use xlink:href="#DejaVuSans-30" x="409.277344"/>
     <use xlink:href="#DejaVuSans-30" x="472.900391"/>
    </g>
   </g>
   <g id="line2d_130">
    <path d="M 374.146875 260.128125 
L 384.146875 260.128125 
L 394.146875 260.128125 
" style="fill: none; stroke: #2ca02c; stroke-width: 1.5; stroke-linecap: square"/>
   </g>
   <g id="text_41">
    <!-- t=96.0000 -->
    <g transform="translate(402.146875 263.628125)scale(0.1 -0.1)">
     <use xlink:href="#DejaVuSans-74"/>
     <use xlink:href="#DejaVuSans-3d" x="39.208984"/>
     <use xlink:href="#DejaVuSans-39" x="122.998047"/>
     <use xlink:href="#DejaVuSans-36" x="186.621094"/>
     <use xlink:href="#DejaVuSans-2e" x="250.244141"/>
     <use xlink:href="#DejaVuSans-30" x="282.03125"/>
     <use xlink:href="#DejaVuSans-30" x="345.654297"/>
     <use xlink:href="#DejaVuSans-30" x="409.277344"/>
     <use xlink:href="#DejaVuSans-30" x="472.900391"/>
    </g>
   </g>
  </g>
 </g>
 <defs>
  <clipPath id="p6e5adb44d6">
   <rect x="57.6" y="41.472" width="357.12" height="45.881379"/>
  </clipPath>
  <clipPath id="p4ef6bb420b">
   <rect x="57.6" y="96.529655" width="357.12" height="45.881379"/>
  </clipPath>
  <clipPath id="p94d88d3662">
   <rect x="57.6" y="151.58731" width="357.12" height="45.881379"/>
  </clipPath>
  <clipPath id="p212c209aa3">
   <rect x="57.6" y="206.644966" width="357.12" height="45.881379"/>
  </clipPath>
  <clipPath id="p6b6f7232bf">
   <rect x="57.6" y="261.702621" width="357.12" height="45.881379"/>
  </clipPath>
 </defs>
</svg>
