<?xml version="1.0" encoding="utf-8" standalone="no"?>
<!DOCTYPE svg PUBLIC "-//W3C//DTD SVG 1.1//EN"
  "http://www.w3.org/Graphics/SVG/1.1/DTD/svg11.dtd">
<svg xmlns:xlink="http://www.w3.org/1999/xlink" width="460.8pt" height="345.6pt" viewBox="0 0 460.8 345.6" xmlns="http://www.w3.org/2000/svg" version="1.1">
 <metadata>
  <rdf:RDF xmlns:dc="http://purl.org/dc/elements/1.1/" xmlns:cc="http://creativecommons.org/ns#" xmlns:rdf="http://www.w3.org/1999/02/22-rdf-syntax-ns#">
   <cc:Work>
    <dc:type rdf:resource="http://purl.org/dc/dcmitype/StillImage"/>
    <dc:date>2022-06-26T23:37:46.921065</dc:date>
    <dc:format>image/svg+xml</dc:format>
    <dc:creator>
     <cc:Agent>
      <dc:title>Matplotlib v3.5.2, https://matplotlib.org/</dc:title>
     </cc:Agent>
    </dc:creator>
   </cc:Work>
  </rdf:RDF>
 </metadata>
 <defs>
  <style type="text/css">*{stroke-linejoin: round; stroke-linecap: butt}</style>
 </defs>
 <g id="figure_1">
  <g id="patch_1">
   <path d="M 0 345.6 
L 460.8 345.6 
L 460.8 0 
L 0 0 
z
" style="fill: #ffffff"/>
  </g>
  <g id="axes_1">
   <g id="patch_2">
    <path d="M 57.6 87.353379 
L 414.72 87.353379 
L 414.72 41.472 
L 57.6 41.472 
z
" style="fill: #ffffff"/>
   </g>
   <g id="matplotlib.axis_1">
    <g id="xtick_1">
     <g id="line2d_1">
      <defs>
       <path id="ma030135721" d="M 0 0 
L 0 3.5 
" style="stroke: #000000; stroke-width: 0.8"/>
      </defs>
      <g>
       <use xlink:href="#ma030135721" x="73.832727" y="87.353379" style="stroke: #000000; stroke-width: 0.8"/>
      </g>
     </g>
    </g>
    <g id="xtick_2">
     <g id="line2d_2">
      <g>
       <use xlink:href="#ma030135721" x="139.419504" y="87.353379" style="stroke: #000000; stroke-width: 0.8"/>
      </g>
     </g>
    </g>
    <g id="xtick_3">
     <g id="line2d_3">
      <g>
       <use xlink:href="#ma030135721" x="205.006281" y="87.353379" style="stroke: #000000; stroke-width: 0.8"/>
      </g>
     </g>
    </g>
    <g id="xtick_4">
     <g id="line2d_4">
      <g>
       <use xlink:href="#ma030135721" x="270.593058" y="87.353379" style="stroke: #000000; stroke-width: 0.8"/>
      </g>
     </g>
    </g>
    <g id="xtick_5">
     <g id="line2d_5">
      <g>
       <use xlink:href="#ma030135721" x="336.179835" y="87.353379" style="stroke: #000000; stroke-width: 0.8"/>
      </g>
     </g>
    </g>
    <g id="xtick_6">
     <g id="line2d_6">
      <g>
       <use xlink:href="#ma030135721" x="401.766612" y="87.353379" style="stroke: #000000; stroke-width: 0.8"/>
      </g>
     </g>
    </g>
   </g>
   <g id="matplotlib.axis_2">
    <g id="ytick_1">
     <g id="line2d_7">
      <defs>
       <path id="m19eb9d32a2" d="M 0 0 
L -3.5 0 
" style="stroke: #000000; stroke-width: 0.8"/>
      </defs>
      <g>
       <use xlink:href="#m19eb9d32a2" x="57.6" y="71.178424" style="stroke: #000000; stroke-width: 0.8"/>
      </g>
     </g>
     <g id="text_1">
      <!-- 0 -->
      <g transform="translate(44.2375 74.977643)scale(0.1 -0.1)">
       <defs>
        <path id="DejaVuSans-30" d="M 2034 4250 
Q 1547 4250 1301 3770 
Q 1056 3291 1056 2328 
Q 1056 1369 1301 889 
Q 1547 409 2034 409 
Q 2525 409 2770 889 
Q 3016 1369 3016 2328 
Q 3016 3291 2770 3770 
Q 2525 4250 2034 4250 
z
M 2034 4750 
Q 2819 4750 3233 4129 
Q 3647 3509 3647 2328 
Q 3647 1150 3233 529 
Q 2819 -91 2034 -91 
Q 1250 -91 836 529 
Q 422 1150 422 2328 
Q 422 3509 836 4129 
Q 1250 4750 2034 4750 
z
" transform="scale(0.015625)"/>
       </defs>
       <use xlink:href="#DejaVuSans-30"/>
      </g>
     </g>
    </g>
    <g id="ytick_2">
     <g id="line2d_8">
      <g>
       <use xlink:href="#m19eb9d32a2" x="57.6" y="52.582936" style="stroke: #000000; stroke-width: 0.8"/>
      </g>
     </g>
     <g id="text_2">
      <!-- 10 -->
      <g transform="translate(37.875 56.382155)scale(0.1 -0.1)">
       <defs>
        <path id="DejaVuSans-31" d="M 794 531 
L 1825 531 
L 1825 4091 
L 703 3866 
L 703 4441 
L 1819 4666 
L 2450 4666 
L 2450 531 
L 3481 531 
L 3481 0 
L 794 0 
L 794 531 
z
" transform="scale(0.015625)"/>
       </defs>
       <use xlink:href="#DejaVuSans-31"/>
       <use xlink:href="#DejaVuSans-30" x="63.623047"/>
      </g>
     </g>
    </g>
    <g id="text_3">
     <!-- flow rate (normalized) -->
     <g transform="translate(31.795312 119.729877)rotate(-90)scale(0.1 -0.1)">
      <defs>
       <path id="DejaVuSans-66" d="M 2375 4863 
L 2375 4384 
L 1825 4384 
Q 1516 4384 1395 4259 
Q 1275 4134 1275 3809 
L 1275 3500 
L 2222 3500 
L 2222 3053 
L 1275 3053 
L 1275 0 
L 697 0 
L 697 3053 
L 147 3053 
L 147 3500 
L 697 3500 
L 697 3744 
Q 697 4328 969 4595 
Q 1241 4863 1831 4863 
L 2375 4863 
z
" transform="scale(0.015625)"/>
       <path id="DejaVuSans-6c" d="M 603 4863 
L 1178 4863 
L 1178 0 
L 603 0 
L 603 4863 
z
" transform="scale(0.015625)"/>
       <path id="DejaVuSans-6f" d="M 1959 3097 
Q 1497 3097 1228 2736 
Q 959 2375 959 1747 
Q 959 1119 1226 758 
Q 1494 397 1959 397 
Q 2419 397 2687 759 
Q 2956 1122 2956 1747 
Q 2956 2369 2687 2733 
Q 2419 3097 1959 3097 
z
M 1959 3584 
Q 2709 3584 3137 3096 
Q 3566 2609 3566 1747 
Q 3566 888 3137 398 
Q 2709 -91 1959 -91 
Q 1206 -91 779 398 
Q 353 888 353 1747 
Q 353 2609 779 3096 
Q 1206 3584 1959 3584 
z
" transform="scale(0.015625)"/>
       <path id="DejaVuSans-77" d="M 269 3500 
L 844 3500 
L 1563 769 
L 2278 3500 
L 2956 3500 
L 3675 769 
L 4391 3500 
L 4966 3500 
L 4050 0 
L 3372 0 
L 2619 2869 
L 1863 0 
L 1184 0 
L 269 3500 
z
" transform="scale(0.015625)"/>
       <path id="DejaVuSans-20" transform="scale(0.015625)"/>
       <path id="DejaVuSans-72" d="M 2631 2963 
Q 2534 3019 2420 3045 
Q 2306 3072 2169 3072 
Q 1681 3072 1420 2755 
Q 1159 2438 1159 1844 
L 1159 0 
L 581 0 
L 581 3500 
L 1159 3500 
L 1159 2956 
Q 1341 3275 1631 3429 
Q 1922 3584 2338 3584 
Q 2397 3584 2469 3576 
Q 2541 3569 2628 3553 
L 2631 2963 
z
" transform="scale(0.015625)"/>
       <path id="DejaVuSans-61" d="M 2194 1759 
Q 1497 1759 1228 1600 
Q 959 1441 959 1056 
Q 959 750 1161 570 
Q 1363 391 1709 391 
Q 2188 391 2477 730 
Q 2766 1069 2766 1631 
L 2766 1759 
L 2194 1759 
z
M 3341 1997 
L 3341 0 
L 2766 0 
L 2766 531 
Q 2569 213 2275 61 
Q 1981 -91 1556 -91 
Q 1019 -91 701 211 
Q 384 513 384 1019 
Q 384 1609 779 1909 
Q 1175 2209 1959 2209 
L 2766 2209 
L 2766 2266 
Q 2766 2663 2505 2880 
Q 2244 3097 1772 3097 
Q 1472 3097 1187 3025 
Q 903 2953 641 2809 
L 641 3341 
Q 956 3463 1253 3523 
Q 1550 3584 1831 3584 
Q 2591 3584 2966 3190 
Q 3341 2797 3341 1997 
z
" transform="scale(0.015625)"/>
       <path id="DejaVuSans-74" d="M 1172 4494 
L 1172 3500 
L 2356 3500 
L 2356 3053 
L 1172 3053 
L 1172 1153 
Q 1172 725 1289 603 
Q 1406 481 1766 481 
L 2356 481 
L 2356 0 
L 1766 0 
Q 1100 0 847 248 
Q 594 497 594 1153 
L 594 3053 
L 172 3053 
L 172 3500 
L 594 3500 
L 594 4494 
L 1172 4494 
z
" transform="scale(0.015625)"/>
       <path id="DejaVuSans-65" d="M 3597 1894 
L 3597 1613 
L 953 1613 
Q 991 1019 1311 708 
Q 1631 397 2203 397 
Q 2534 397 2845 478 
Q 3156 559 3463 722 
L 3463 178 
Q 3153 47 2828 -22 
Q 2503 -91 2169 -91 
Q 1331 -91 842 396 
Q 353 884 353 1716 
Q 353 2575 817 3079 
Q 1281 3584 2069 3584 
Q 2775 3584 3186 3129 
Q 3597 2675 3597 1894 
z
M 3022 2063 
Q 3016 2534 2758 2815 
Q 2500 3097 2075 3097 
Q 1594 3097 1305 2825 
Q 1016 2553 972 2059 
L 3022 2063 
z
" transform="scale(0.015625)"/>
       <path id="DejaVuSans-28" d="M 1984 4856 
Q 1566 4138 1362 3434 
Q 1159 2731 1159 2009 
Q 1159 1288 1364 580 
Q 1569 -128 1984 -844 
L 1484 -844 
Q 1016 -109 783 600 
Q 550 1309 550 2009 
Q 550 2706 781 3412 
Q 1013 4119 1484 4856 
L 1984 4856 
z
" transform="scale(0.015625)"/>
       <path id="DejaVuSans-6e" d="M 3513 2113 
L 3513 0 
L 2938 0 
L 2938 2094 
Q 2938 2591 2744 2837 
Q 2550 3084 2163 3084 
Q 1697 3084 1428 2787 
Q 1159 2491 1159 1978 
L 1159 0 
L 581 0 
L 581 3500 
L 1159 3500 
L 1159 2956 
Q 1366 3272 1645 3428 
Q 1925 3584 2291 3584 
Q 2894 3584 3203 3211 
Q 3513 2838 3513 2113 
z
" transform="scale(0.015625)"/>
       <path id="DejaVuSans-6d" d="M 3328 2828 
Q 3544 3216 3844 3400 
Q 4144 3584 4550 3584 
Q 5097 3584 5394 3201 
Q 5691 2819 5691 2113 
L 5691 0 
L 5113 0 
L 5113 2094 
Q 5113 2597 4934 2840 
Q 4756 3084 4391 3084 
Q 3944 3084 3684 2787 
Q 3425 2491 3425 1978 
L 3425 0 
L 2847 0 
L 2847 2094 
Q 2847 2600 2669 2842 
Q 2491 3084 2119 3084 
Q 1678 3084 1418 2786 
Q 1159 2488 1159 1978 
L 1159 0 
L 581 0 
L 581 3500 
L 1159 3500 
L 1159 2956 
Q 1356 3278 1631 3431 
Q 1906 3584 2284 3584 
Q 2666 3584 2933 3390 
Q 3200 3197 3328 2828 
z
" transform="scale(0.015625)"/>
       <path id="DejaVuSans-69" d="M 603 3500 
L 1178 3500 
L 1178 0 
L 603 0 
L 603 3500 
z
M 603 4863 
L 1178 4863 
L 1178 4134 
L 603 4134 
L 603 4863 
z
" transform="scale(0.015625)"/>
       <path id="DejaVuSans-7a" d="M 353 3500 
L 3084 3500 
L 3084 2975 
L 922 459 
L 3084 459 
L 3084 0 
L 275 0 
L 275 525 
L 2438 3041 
L 353 3041 
L 353 3500 
z
" transform="scale(0.015625)"/>
       <path id="DejaVuSans-64" d="M 2906 2969 
L 2906 4863 
L 3481 4863 
L 3481 0 
L 2906 0 
L 2906 525 
Q 2725 213 2448 61 
Q 2172 -91 1784 -91 
Q 1150 -91 751 415 
Q 353 922 353 1747 
Q 353 2572 751 3078 
Q 1150 3584 1784 3584 
Q 2172 3584 2448 3432 
Q 2725 3281 2906 2969 
z
M 947 1747 
Q 947 1113 1208 752 
Q 1469 391 1925 391 
Q 2381 391 2643 752 
Q 2906 1113 2906 1747 
Q 2906 2381 2643 2742 
Q 2381 3103 1925 3103 
Q 1469 3103 1208 2742 
Q 947 2381 947 1747 
z
" transform="scale(0.015625)"/>
       <path id="DejaVuSans-29" d="M 513 4856 
L 1013 4856 
Q 1481 4119 1714 3412 
Q 1947 2706 1947 2009 
Q 1947 1309 1714 600 
Q 1481 -109 1013 -844 
L 513 -844 
Q 928 -128 1133 580 
Q 1338 1288 1338 2009 
Q 1338 2731 1133 3434 
Q 928 4138 513 4856 
z
" transform="scale(0.015625)"/>
      </defs>
      <use xlink:href="#DejaVuSans-66"/>
      <use xlink:href="#DejaVuSans-6c" x="35.205078"/>
      <use xlink:href="#DejaVuSans-6f" x="62.988281"/>
      <use xlink:href="#DejaVuSans-77" x="124.169922"/>
      <use xlink:href="#DejaVuSans-20" x="205.957031"/>
      <use xlink:href="#DejaVuSans-72" x="237.744141"/>
      <use xlink:href="#DejaVuSans-61" x="278.857422"/>
      <use xlink:href="#DejaVuSans-74" x="340.136719"/>
      <use xlink:href="#DejaVuSans-65" x="379.345703"/>
      <use xlink:href="#DejaVuSans-20" x="440.869141"/>
      <use xlink:href="#DejaVuSans-28" x="472.65625"/>
      <use xlink:href="#DejaVuSans-6e" x="511.669922"/>
      <use xlink:href="#DejaVuSans-6f" x="575.048828"/>
      <use xlink:href="#DejaVuSans-72" x="636.230469"/>
      <use xlink:href="#DejaVuSans-6d" x="675.59375"/>
      <use xlink:href="#DejaVuSans-61" x="773.005859"/>
      <use xlink:href="#DejaVuSans-6c" x="834.285156"/>
      <use xlink:href="#DejaVuSans-69" x="862.068359"/>
      <use xlink:href="#DejaVuSans-7a" x="889.851562"/>
      <use xlink:href="#DejaVuSans-65" x="942.341797"/>
      <use xlink:href="#DejaVuSans-64" x="1003.865234"/>
      <use xlink:href="#DejaVuSans-29" x="1067.341797"/>
     </g>
    </g>
   </g>
   <g id="line2d_9">
    <path d="M 73.832727 71.673563 
L 77.112066 61.237596 
L 80.391405 54.795857 
L 83.670744 55.053299 
L 86.950083 58.283767 
L 90.229421 61.755758 
L 93.50876 64.585432 
L 96.788099 66.668699 
L 100.067438 68.125235 
L 103.346777 69.125608 
L 106.626116 69.801726 
L 109.905455 70.265617 
L 113.184793 70.579049 
L 116.464132 70.792806 
L 119.743471 70.933346 
L 123.02281 71.008228 
L 126.302149 69.717451 
L 129.581488 69.587848 
L 132.860826 69.482435 
L 136.140165 69.413376 
L 139.419504 69.371699 
L 142.698843 69.342508 
L 145.978182 69.330002 
L 149.257521 69.32485 
L 152.53686 69.32251 
L 155.816198 69.324352 
L 159.095537 69.321472 
L 162.374876 69.321245 
L 165.654215 69.31924 
L 168.933554 69.314526 
L 172.212893 69.310585 
L 175.492231 67.500382 
L 178.77157 66.011567 
L 182.050909 65.539543 
L 185.330248 65.654067 
L 188.609587 66.062913 
L 191.888926 66.615643 
L 195.168264 67.197974 
L 198.447603 67.764828 
L 201.726942 68.287082 
L 205.006281 68.751739 
L 208.28562 69.156632 
L 211.564959 69.503587 
L 214.844298 69.796366 
L 218.123636 70.041608 
L 221.402975 70.245166 
L 224.682314 70.413932 
L 227.961653 70.553042 
L 231.240992 70.666664 
L 234.520331 70.759533 
L 237.799669 70.835295 
L 241.079008 70.897003 
L 244.358347 70.947851 
L 247.637686 70.989028 
L 250.917025 71.02336 
L 254.196364 71.051024 
L 257.475702 71.074132 
L 260.755041 71.091953 
L 264.03438 71.106614 
L 267.313719 71.119299 
L 270.593058 71.131916 
L 273.872397 73.65928 
L 277.151736 74.927544 
L 280.431074 75.560846 
L 283.710413 75.822524 
L 286.989752 75.877764 
L 290.269091 75.803275 
L 293.54843 75.650795 
L 296.827769 75.452922 
L 300.107107 75.230059 
L 303.386446 74.996133 
L 306.665785 74.761072 
L 309.945124 74.531409 
L 313.224463 74.313171 
L 316.503802 74.099699 
L 319.78314 73.900966 
L 323.062479 73.713603 
L 326.341818 73.538162 
L 329.621157 73.37424 
L 332.900496 73.221169 
L 336.179835 73.078557 
L 339.459174 72.946141 
L 342.738512 72.823215 
L 346.017851 72.709374 
L 349.29719 72.603886 
L 352.576529 72.506091 
L 355.855868 72.415394 
L 359.135207 72.331317 
L 362.414545 72.253209 
L 365.693884 72.180662 
L 368.973223 72.113159 
L 372.252562 72.050309 
L 375.531901 71.992086 
L 378.81124 71.937823 
L 382.090579 71.887097 
L 385.369917 71.839868 
L 388.649256 71.796061 
L 391.928595 71.755165 
L 395.207934 71.716878 
L 398.487273 71.681078 
" clip-path="url(#p85d8f44b7d)" style="fill: none; stroke: #1f77b4; stroke-width: 1.5; stroke-linecap: square"/>
   </g>
   <g id="line2d_10">
    <path d="M 73.832727 71.970179 
L 77.112066 46.694443 
L 80.391405 43.557517 
L 83.670744 46.562107 
L 86.950083 51.586047 
L 90.229421 56.61236 
L 93.50876 60.794828 
L 96.788099 63.972104 
L 100.067438 66.244631 
L 103.346777 67.836141 
L 106.626116 68.929134 
L 109.905455 69.682756 
L 113.184793 70.197606 
L 116.464132 70.547143 
L 119.743471 70.780011 
L 123.02281 70.856145 
L 126.302149 69.401012 
L 129.581488 69.374452 
L 132.860826 69.352879 
L 136.140165 69.338801 
L 139.419504 69.330329 
L 142.698843 69.324379 
L 145.978182 69.321836 
L 149.257521 69.320763 
L 152.53686 69.320229 
L 155.816198 69.320542 
L 159.095537 69.319859 
L 162.374876 69.319723 
L 165.654215 69.319227 
L 168.933554 69.318179 
L 172.212893 69.356627 
L 175.492231 70.53343 
L 178.77157 70.297347 
L 182.050909 70.222979 
L 185.330248 70.238405 
L 188.609587 70.299278 
L 191.888926 70.383544 
L 195.168264 70.474386 
L 198.447603 70.565011 
L 201.726942 70.650684 
L 205.006281 70.728849 
L 208.28562 70.798613 
L 211.564959 70.859779 
L 214.844298 70.912539 
L 218.123636 70.957577 
L 221.402975 70.995561 
L 224.682314 71.027491 
L 227.961653 71.054155 
L 231.240992 71.076226 
L 234.520331 71.094444 
L 237.799669 71.10942 
L 241.079008 71.1217 
L 244.358347 71.131827 
L 247.637686 71.140085 
L 250.917025 71.14696 
L 254.196364 71.15253 
L 257.475702 71.157182 
L 260.755041 71.160794 
L 264.03438 71.163768 
L 267.313719 71.166335 
L 270.593058 71.191081 
L 273.872397 79.193712 
L 277.151736 83.336173 
L 280.431074 85.041836 
L 283.710413 85.267862 
L 286.989752 84.75449 
L 290.269091 83.865285 
L 293.54843 82.828768 
L 296.827769 81.77981 
L 300.107107 80.778873 
L 303.386446 79.86294 
L 306.665785 79.028911 
L 309.945124 78.285316 
L 313.224463 77.628393 
L 316.503802 77.028481 
L 319.78314 76.500313 
L 323.062479 76.029048 
L 326.341818 75.60566 
L 329.621157 75.228284 
L 332.900496 74.88927 
L 336.179835 74.583536 
L 339.459174 74.309238 
L 342.738512 74.062835 
L 346.017851 73.839457 
L 349.29719 73.637633 
L 352.576529 73.45326 
L 355.855868 73.282995 
L 359.135207 73.12811 
L 362.414545 72.984603 
L 365.693884 72.852723 
L 368.973223 72.73124 
L 372.252562 72.619 
L 375.531901 72.516369 
L 378.81124 72.421525 
L 382.090579 72.333484 
L 385.369917 72.252205 
L 388.649256 72.177561 
L 391.928595 72.108347 
L 395.207934 72.043877 
L 398.487273 71.983916 
" clip-path="url(#p85d8f44b7d)" style="fill: none; stroke: #ff7f0e; stroke-width: 1.5; stroke-linecap: square"/>
   </g>
   <g id="line2d_11">
    <path d="M 73.832727 71.237154 
L 77.112066 70.269029 
L 80.391405 69.216632 
L 83.670744 69.119498 
L 86.950083 69.547968 
L 90.229421 70.005551 
L 93.50876 70.369889 
L 96.788099 70.631215 
L 100.067438 70.810259 
L 103.346777 70.932213 
L 106.626116 71.013315 
L 109.905455 71.069851 
L 113.184793 71.107187 
L 116.464132 71.13263 
L 119.743471 71.149385 
L 123.02281 71.735126 
L 126.302149 69.909632 
L 129.581488 69.707905 
L 132.860826 69.544808 
L 136.140165 69.439663 
L 139.419504 69.37772 
L 142.698843 69.334616 
L 145.978182 69.317615 
L 149.257521 69.311503 
L 152.53686 69.309075 
L 155.816198 69.312978 
L 159.095537 69.308783 
L 162.374876 69.308655 
L 165.654215 69.305563 
L 168.933554 69.298201 
L 172.212893 69.291403 
L 175.492231 63.995924 
L 178.77157 60.607677 
L 182.050909 59.519551 
L 185.330248 59.915921 
L 188.609587 61.048744 
L 191.888926 62.484421 
L 195.168264 63.905031 
L 198.447603 65.198473 
L 201.726942 66.312039 
L 205.006281 67.241818 
L 208.28562 68.005186 
L 211.564959 68.62413 
L 214.844298 69.120927 
L 218.123636 69.519634 
L 221.402975 69.840224 
L 224.682314 70.098477 
L 227.961653 70.305878 
L 231.240992 70.470759 
L 234.520331 70.603156 
L 237.799669 70.709786 
L 241.079008 70.795373 
L 244.358347 70.865972 
L 247.637686 70.922409 
L 250.917025 70.969735 
L 254.196364 71.007478 
L 257.475702 71.039046 
L 260.755041 71.063102 
L 264.03438 71.082846 
L 267.313719 71.099978 
L 270.593058 71.120834 
L 273.872397 71.413159 
L 277.151736 71.539684 
L 280.431074 71.607566 
L 283.710413 71.640269 
L 286.989752 71.652218 
L 290.269091 71.650663 
L 293.54843 71.640508 
L 296.827769 71.624883 
L 300.107107 71.605882 
L 303.386446 71.584931 
L 306.665785 71.56316 
L 309.945124 71.541392 
L 313.224463 71.520285 
L 316.503802 71.499233 
L 319.78314 71.479334 
L 323.062479 71.460289 
L 326.341818 71.442255 
L 329.621157 71.425192 
L 332.900496 71.409078 
L 336.179835 71.393918 
L 339.459174 71.379698 
L 342.738512 71.366367 
L 346.017851 71.353924 
L 349.29719 71.342301 
L 352.576529 71.331462 
L 355.855868 71.321368 
L 359.135207 71.311958 
L 362.414545 71.303195 
L 365.693884 71.295022 
L 368.973223 71.287391 
L 372.252562 71.280264 
L 375.531901 71.27363 
L 378.81124 71.267427 
L 382.090579 71.261614 
L 385.369917 71.256186 
L 388.649256 71.251135 
L 391.928595 71.246409 
L 395.207934 71.241979 
L 398.487273 71.237829 
" clip-path="url(#p85d8f44b7d)" style="fill: none; stroke: #2ca02c; stroke-width: 1.5; stroke-linecap: square"/>
   </g>
   <g id="patch_3">
    <path d="M 57.6 87.353379 
L 57.6 41.472 
" style="fill: none; stroke: #000000; stroke-width: 0.8; stroke-linejoin: miter; stroke-linecap: square"/>
   </g>
   <g id="patch_4">
    <path d="M 414.72 87.353379 
L 414.72 41.472 
" style="fill: none; stroke: #000000; stroke-width: 0.8; stroke-linejoin: miter; stroke-linecap: square"/>
   </g>
   <g id="patch_5">
    <path d="M 57.6 87.353379 
L 414.72 87.353379 
" style="fill: none; stroke: #000000; stroke-width: 0.8; stroke-linejoin: miter; stroke-linecap: square"/>
   </g>
   <g id="patch_6">
    <path d="M 57.6 41.472 
L 414.72 41.472 
" style="fill: none; stroke: #000000; stroke-width: 0.8; stroke-linejoin: miter; stroke-linecap: square"/>
   </g>
   <g id="text_4">
    <!-- velocity vs time (container 1)   -->
    <g transform="translate(144.106875 35.472)scale(0.12 -0.12)">
     <defs>
      <path id="DejaVuSans-76" d="M 191 3500 
L 800 3500 
L 1894 563 
L 2988 3500 
L 3597 3500 
L 2284 0 
L 1503 0 
L 191 3500 
z
" transform="scale(0.015625)"/>
      <path id="DejaVuSans-63" d="M 3122 3366 
L 3122 2828 
Q 2878 2963 2633 3030 
Q 2388 3097 2138 3097 
Q 1578 3097 1268 2742 
Q 959 2388 959 1747 
Q 959 1106 1268 751 
Q 1578 397 2138 397 
Q 2388 397 2633 464 
Q 2878 531 3122 666 
L 3122 134 
Q 2881 22 2623 -34 
Q 2366 -91 2075 -91 
Q 1284 -91 818 406 
Q 353 903 353 1747 
Q 353 2603 823 3093 
Q 1294 3584 2113 3584 
Q 2378 3584 2631 3529 
Q 2884 3475 3122 3366 
z
" transform="scale(0.015625)"/>
      <path id="DejaVuSans-79" d="M 2059 -325 
Q 1816 -950 1584 -1140 
Q 1353 -1331 966 -1331 
L 506 -1331 
L 506 -850 
L 844 -850 
Q 1081 -850 1212 -737 
Q 1344 -625 1503 -206 
L 1606 56 
L 191 3500 
L 800 3500 
L 1894 763 
L 2988 3500 
L 3597 3500 
L 2059 -325 
z
" transform="scale(0.015625)"/>
      <path id="DejaVuSans-73" d="M 2834 3397 
L 2834 2853 
Q 2591 2978 2328 3040 
Q 2066 3103 1784 3103 
Q 1356 3103 1142 2972 
Q 928 2841 928 2578 
Q 928 2378 1081 2264 
Q 1234 2150 1697 2047 
L 1894 2003 
Q 2506 1872 2764 1633 
Q 3022 1394 3022 966 
Q 3022 478 2636 193 
Q 2250 -91 1575 -91 
Q 1294 -91 989 -36 
Q 684 19 347 128 
L 347 722 
Q 666 556 975 473 
Q 1284 391 1588 391 
Q 1994 391 2212 530 
Q 2431 669 2431 922 
Q 2431 1156 2273 1281 
Q 2116 1406 1581 1522 
L 1381 1569 
Q 847 1681 609 1914 
Q 372 2147 372 2553 
Q 372 3047 722 3315 
Q 1072 3584 1716 3584 
Q 2034 3584 2315 3537 
Q 2597 3491 2834 3397 
z
" transform="scale(0.015625)"/>
     </defs>
     <use xlink:href="#DejaVuSans-76"/>
     <use xlink:href="#DejaVuSans-65" x="59.179688"/>
     <use xlink:href="#DejaVuSans-6c" x="120.703125"/>
     <use xlink:href="#DejaVuSans-6f" x="148.486328"/>
     <use xlink:href="#DejaVuSans-63" x="209.667969"/>
     <use xlink:href="#DejaVuSans-69" x="264.648438"/>
     <use xlink:href="#DejaVuSans-74" x="292.431641"/>
     <use xlink:href="#DejaVuSans-79" x="331.640625"/>
     <use xlink:href="#DejaVuSans-20" x="390.820312"/>
     <use xlink:href="#DejaVuSans-76" x="422.607422"/>
     <use xlink:href="#DejaVuSans-73" x="481.787109"/>
     <use xlink:href="#DejaVuSans-20" x="533.886719"/>
     <use xlink:href="#DejaVuSans-74" x="565.673828"/>
     <use xlink:href="#DejaVuSans-69" x="604.882812"/>
     <use xlink:href="#DejaVuSans-6d" x="632.666016"/>
     <use xlink:href="#DejaVuSans-65" x="730.078125"/>
     <use xlink:href="#DejaVuSans-20" x="791.601562"/>
     <use xlink:href="#DejaVuSans-28" x="823.388672"/>
     <use xlink:href="#DejaVuSans-63" x="862.402344"/>
     <use xlink:href="#DejaVuSans-6f" x="917.382812"/>
     <use xlink:href="#DejaVuSans-6e" x="978.564453"/>
     <use xlink:href="#DejaVuSans-74" x="1041.943359"/>
     <use xlink:href="#DejaVuSans-61" x="1081.152344"/>
     <use xlink:href="#DejaVuSans-69" x="1142.431641"/>
     <use xlink:href="#DejaVuSans-6e" x="1170.214844"/>
     <use xlink:href="#DejaVuSans-65" x="1233.59375"/>
     <use xlink:href="#DejaVuSans-72" x="1295.117188"/>
     <use xlink:href="#DejaVuSans-20" x="1336.230469"/>
     <use xlink:href="#DejaVuSans-31" x="1368.017578"/>
     <use xlink:href="#DejaVuSans-29" x="1431.640625"/>
     <use xlink:href="#DejaVuSans-20" x="1470.654297"/>
     <use xlink:href="#DejaVuSans-20" x="1502.441406"/>
    </g>
   </g>
   <g id="legend_1">
    <g id="patch_7">
     <path d="M 64.6 93.506375 
L 139.240625 93.506375 
Q 141.240625 93.506375 141.240625 91.506375 
L 141.240625 48.472 
Q 141.240625 46.472 139.240625 46.472 
L 64.6 46.472 
Q 62.6 46.472 62.6 48.472 
L 62.6 91.506375 
Q 62.6 93.506375 64.6 93.506375 
z
" style="fill: #ffffff; opacity: 0.8; stroke: #cccccc; stroke-linejoin: miter"/>
    </g>
    <g id="line2d_12">
     <path d="M 66.6 54.570437 
L 76.6 54.570437 
L 86.6 54.570437 
" style="fill: none; stroke: #1f77b4; stroke-width: 1.5; stroke-linecap: square"/>
    </g>
    <g id="text_5">
     <!-- mid flow -->
     <g transform="translate(94.6 58.070437)scale(0.1 -0.1)">
      <use xlink:href="#DejaVuSans-6d"/>
      <use xlink:href="#DejaVuSans-69" x="97.412109"/>
      <use xlink:href="#DejaVuSans-64" x="125.195312"/>
      <use xlink:href="#DejaVuSans-20" x="188.671875"/>
      <use xlink:href="#DejaVuSans-66" x="220.458984"/>
      <use xlink:href="#DejaVuSans-6c" x="255.664062"/>
      <use xlink:href="#DejaVuSans-6f" x="283.447266"/>
      <use xlink:href="#DejaVuSans-77" x="344.628906"/>
     </g>
    </g>
    <g id="line2d_13">
     <path d="M 66.6 69.248562 
L 76.6 69.248562 
L 86.6 69.248562 
" style="fill: none; stroke: #ff7f0e; stroke-width: 1.5; stroke-linecap: square"/>
    </g>
    <g id="text_6">
     <!-- v0 flow -->
     <g transform="translate(94.6 72.748562)scale(0.1 -0.1)">
      <use xlink:href="#DejaVuSans-76"/>
      <use xlink:href="#DejaVuSans-30" x="59.179688"/>
      <use xlink:href="#DejaVuSans-20" x="122.802734"/>
      <use xlink:href="#DejaVuSans-66" x="154.589844"/>
      <use xlink:href="#DejaVuSans-6c" x="189.794922"/>
      <use xlink:href="#DejaVuSans-6f" x="217.578125"/>
      <use xlink:href="#DejaVuSans-77" x="278.759766"/>
     </g>
    </g>
    <g id="line2d_14">
     <path d="M 66.6 83.926687 
L 76.6 83.926687 
L 86.6 83.926687 
" style="fill: none; stroke: #2ca02c; stroke-width: 1.5; stroke-linecap: square"/>
    </g>
    <g id="text_7">
     <!-- vN flow -->
     <g transform="translate(94.6 87.426687)scale(0.1 -0.1)">
      <defs>
       <path id="DejaVuSans-4e" d="M 628 4666 
L 1478 4666 
L 3547 763 
L 3547 4666 
L 4159 4666 
L 4159 0 
L 3309 0 
L 1241 3903 
L 1241 0 
L 628 0 
L 628 4666 
z
" transform="scale(0.015625)"/>
      </defs>
      <use xlink:href="#DejaVuSans-76"/>
      <use xlink:href="#DejaVuSans-4e" x="59.179688"/>
      <use xlink:href="#DejaVuSans-20" x="133.984375"/>
      <use xlink:href="#DejaVuSans-66" x="165.771484"/>
      <use xlink:href="#DejaVuSans-6c" x="200.976562"/>
      <use xlink:href="#DejaVuSans-6f" x="228.759766"/>
      <use xlink:href="#DejaVuSans-77" x="289.941406"/>
     </g>
    </g>
   </g>
  </g>
  <g id="axes_2">
   <g id="patch_8">
    <path d="M 57.6 142.411034 
L 414.72 142.411034 
L 414.72 96.529655 
L 57.6 96.529655 
z
" style="fill: #ffffff"/>
   </g>
   <g id="matplotlib.axis_3">
    <g id="xtick_7">
     <g id="line2d_15">
      <g>
       <use xlink:href="#ma030135721" x="73.832727" y="142.411034" style="stroke: #000000; stroke-width: 0.8"/>
      </g>
     </g>
    </g>
    <g id="xtick_8">
     <g id="line2d_16">
      <g>
       <use xlink:href="#ma030135721" x="139.419504" y="142.411034" style="stroke: #000000; stroke-width: 0.8"/>
      </g>
     </g>
    </g>
    <g id="xtick_9">
     <g id="line2d_17">
      <g>
       <use xlink:href="#ma030135721" x="205.006281" y="142.411034" style="stroke: #000000; stroke-width: 0.8"/>
      </g>
     </g>
    </g>
    <g id="xtick_10">
     <g id="line2d_18">
      <g>
       <use xlink:href="#ma030135721" x="270.593058" y="142.411034" style="stroke: #000000; stroke-width: 0.8"/>
      </g>
     </g>
    </g>
    <g id="xtick_11">
     <g id="line2d_19">
      <g>
       <use xlink:href="#ma030135721" x="336.179835" y="142.411034" style="stroke: #000000; stroke-width: 0.8"/>
      </g>
     </g>
    </g>
    <g id="xtick_12">
     <g id="line2d_20">
      <g>
       <use xlink:href="#ma030135721" x="401.766612" y="142.411034" style="stroke: #000000; stroke-width: 0.8"/>
      </g>
     </g>
    </g>
   </g>
   <g id="matplotlib.axis_4">
    <g id="ytick_3">
     <g id="line2d_21">
      <g>
       <use xlink:href="#m19eb9d32a2" x="57.6" y="127.096586" style="stroke: #000000; stroke-width: 0.8"/>
      </g>
     </g>
     <g id="text_8">
      <!-- 0.5 -->
      <g transform="translate(34.696875 130.895805)scale(0.1 -0.1)">
       <defs>
        <path id="DejaVuSans-2e" d="M 684 794 
L 1344 794 
L 1344 0 
L 684 0 
L 684 794 
z
" transform="scale(0.015625)"/>
        <path id="DejaVuSans-35" d="M 691 4666 
L 3169 4666 
L 3169 4134 
L 1269 4134 
L 1269 2991 
Q 1406 3038 1543 3061 
Q 1681 3084 1819 3084 
Q 2600 3084 3056 2656 
Q 3513 2228 3513 1497 
Q 3513 744 3044 326 
Q 2575 -91 1722 -91 
Q 1428 -91 1123 -41 
Q 819 9 494 109 
L 494 744 
Q 775 591 1075 516 
Q 1375 441 1709 441 
Q 2250 441 2565 725 
Q 2881 1009 2881 1497 
Q 2881 1984 2565 2268 
Q 2250 2553 1709 2553 
Q 1456 2553 1204 2497 
Q 953 2441 691 2322 
L 691 4666 
z
" transform="scale(0.015625)"/>
       </defs>
       <use xlink:href="#DejaVuSans-30"/>
       <use xlink:href="#DejaVuSans-2e" x="63.623047"/>
       <use xlink:href="#DejaVuSans-35" x="95.410156"/>
      </g>
     </g>
    </g>
    <g id="ytick_4">
     <g id="line2d_22">
      <g>
       <use xlink:href="#m19eb9d32a2" x="57.6" y="100.594544" style="stroke: #000000; stroke-width: 0.8"/>
      </g>
     </g>
     <g id="text_9">
      <!-- 1.0 -->
      <g transform="translate(34.696875 104.393763)scale(0.1 -0.1)">
       <use xlink:href="#DejaVuSans-31"/>
       <use xlink:href="#DejaVuSans-2e" x="63.623047"/>
       <use xlink:href="#DejaVuSans-30" x="95.410156"/>
      </g>
     </g>
    </g>
   </g>
   <g id="line2d_23">
    <path d="M 73.832727 140.325517 
L 77.112066 125.473886 
L 80.391405 116.030237 
L 83.670744 110.173992 
L 86.950083 106.535635 
L 90.229421 104.271376 
L 93.50876 102.867126 
L 96.788099 102.000338 
L 100.067438 101.466402 
L 103.346777 101.131007 
L 106.626116 100.934145 
L 109.905455 100.797694 
L 113.184793 100.720874 
L 116.464132 100.66897 
L 119.743471 100.641697 
L 123.02281 100.610586 
L 126.302149 98.999331 
L 129.581488 98.874737 
L 132.860826 98.77361 
L 136.140165 98.707732 
L 139.419504 98.668297 
L 142.698843 98.640731 
L 145.978182 98.629229 
L 149.257521 98.624669 
L 152.53686 98.622657 
L 155.816198 98.624623 
L 159.095537 98.621886 
L 162.374876 98.621686 
L 165.654215 98.619737 
L 168.933554 98.615172 
L 172.212893 98.62136 
L 175.492231 107.228219 
L 178.77157 111.92185 
L 182.050909 115.236686 
L 185.330248 117.721213 
L 188.609587 119.612862 
L 191.888926 121.107516 
L 195.168264 122.282182 
L 198.447603 123.217108 
L 201.726942 123.965439 
L 205.006281 124.565768 
L 208.28562 125.048963 
L 211.564959 125.438042 
L 214.844298 125.752505 
L 218.123636 126.005538 
L 221.402975 126.210736 
L 224.682314 126.37726 
L 227.961653 126.512033 
L 231.240992 126.620275 
L 234.520331 126.70812 
L 237.799669 126.779453 
L 241.079008 126.836932 
L 244.358347 126.884337 
L 247.637686 126.922424 
L 250.917025 126.954256 
L 254.196364 126.979766 
L 257.475702 127.00109 
L 260.755041 127.017439 
L 264.03438 127.03089 
L 267.313719 127.042572 
L 270.593058 127.058736 
L 273.872397 132.023297 
L 277.151736 135.018513 
L 280.431074 136.881748 
L 283.710413 138.032103 
L 286.989752 138.768892 
L 290.269091 139.240659 
L 293.54843 139.547605 
L 296.827769 139.751391 
L 300.107107 139.887976 
L 303.386446 139.982895 
L 306.665785 140.046261 
L 309.945124 140.096921 
L 313.224463 140.130776 
L 316.503802 140.160626 
L 319.78314 140.182554 
L 323.062479 140.200587 
L 326.341818 140.215836 
L 329.621157 140.228492 
L 332.900496 140.239486 
L 336.179835 140.249121 
L 339.459174 140.257519 
L 342.738512 140.264876 
L 346.017851 140.271579 
L 349.29719 140.277514 
L 352.576529 140.282899 
L 355.855868 140.287926 
L 359.135207 140.292415 
L 362.414545 140.296579 
L 365.693884 140.300391 
L 368.973223 140.303891 
L 372.252562 140.307119 
L 375.531901 140.310055 
L 378.81124 140.312763 
L 382.090579 140.315273 
L 385.369917 140.317584 
L 388.649256 140.319697 
L 391.928595 140.321651 
L 395.207934 140.323467 
L 398.487273 140.325154 
" clip-path="url(#p9d744d60a3)" style="fill: none; stroke: #1f77b4; stroke-width: 1.5; stroke-linecap: square"/>
   </g>
   <g id="line2d_24">
    <path d="M 73.832727 139.946844 
L 77.112066 135.654836 
L 80.391405 128.905258 
L 83.670744 122.034097 
L 86.950083 116.002799 
L 90.229421 111.273517 
L 93.50876 107.829568 
L 96.788099 105.428533 
L 100.067438 103.804797 
L 103.346777 102.71155 
L 106.626116 101.995896 
L 109.905455 101.504055 
L 113.184793 101.184437 
L 116.464132 100.967369 
L 119.743471 100.830672 
L 123.02281 100.755454 
L 126.302149 99.89589 
L 129.581488 99.808423 
L 132.860826 99.737493 
L 136.140165 99.691395 
L 139.419504 99.663906 
L 142.698843 99.644717 
L 145.978182 99.636819 
L 149.257521 99.633767 
L 152.53686 99.632464 
L 155.816198 99.633945 
L 159.095537 99.632078 
L 162.374876 99.631987 
L 165.654215 99.630653 
L 168.933554 99.627477 
L 172.212893 99.624861 
L 175.492231 108.204244 
L 178.77157 113.274227 
L 182.050909 116.708294 
L 185.330248 119.166911 
L 188.609587 120.959481 
L 191.888926 122.31819 
L 195.168264 123.347693 
L 198.447603 124.139294 
L 201.726942 124.753611 
L 205.006281 125.232979 
L 208.28562 125.609317 
L 211.564959 125.905622 
L 214.844298 126.140813 
L 218.123636 126.326723 
L 221.402975 126.475702 
L 224.682314 126.595247 
L 227.961653 126.691009 
L 231.240992 126.767146 
L 234.520331 126.828602 
L 237.799669 126.878316 
L 241.079008 126.918118 
L 244.358347 126.950951 
L 247.637686 126.977191 
L 250.917025 126.999155 
L 254.196364 127.016688 
L 257.475702 127.031351 
L 260.755041 127.042542 
L 264.03438 127.051748 
L 267.313719 127.059762 
L 270.593058 127.066829 
L 273.872397 129.040786 
L 277.151736 130.516843 
L 280.431074 131.717338 
L 283.710413 132.71562 
L 286.989752 133.56139 
L 290.269091 134.285087 
L 293.54843 134.91088 
L 296.827769 135.45463 
L 300.107107 135.929394 
L 303.386446 136.345994 
L 306.665785 136.71095 
L 309.945124 137.038746 
L 313.224463 137.323467 
L 316.503802 137.587693 
L 319.78314 137.82004 
L 323.062479 138.029505 
L 326.341818 138.219315 
L 329.621157 138.390268 
L 332.900496 138.545469 
L 336.179835 138.686699 
L 339.459174 138.814662 
L 342.738512 138.930748 
L 346.017851 139.036757 
L 349.29719 139.133261 
L 352.576529 139.221801 
L 355.855868 139.303674 
L 359.135207 139.378574 
L 362.414545 139.448011 
L 365.693884 139.512036 
L 368.973223 139.571206 
L 372.252562 139.62601 
L 375.531901 139.67633 
L 378.81124 139.722962 
L 382.090579 139.766354 
L 385.369917 139.806528 
L 388.649256 139.843545 
L 391.928595 139.877951 
L 395.207934 139.910059 
L 398.487273 139.939974 
" clip-path="url(#p9d744d60a3)" style="fill: none; stroke: #ff7f0e; stroke-width: 1.5; stroke-linecap: square"/>
   </g>
   <g id="line2d_25">
    <path d="M 73.832727 139.808126 
L 77.112066 138.153708 
L 80.391405 133.501297 
L 83.670744 126.685337 
L 86.950083 119.711301 
L 90.229421 113.966151 
L 93.50876 109.702132 
L 96.788099 106.703743 
L 100.067438 104.665764 
L 103.346777 103.289076 
L 106.626116 102.383394 
L 109.905455 101.759995 
L 113.184793 101.352455 
L 116.464132 101.075436 
L 119.743471 100.89929 
L 123.02281 100.761975 
L 126.302149 100.560472 
L 129.581488 100.554771 
L 132.860826 100.550168 
L 136.140165 100.547211 
L 139.419504 100.545478 
L 142.698843 100.544273 
L 145.978182 100.543806 
L 149.257521 100.543644 
L 152.53686 100.543582 
L 155.816198 100.543698 
L 159.095537 100.54358 
L 162.374876 100.543577 
L 165.654215 100.543488 
L 168.933554 100.543279 
L 172.212893 100.543174 
L 175.492231 110.816275 
L 178.77157 117.033461 
L 182.050909 120.832745 
L 185.330248 123.178685 
L 188.609587 124.62044 
L 191.888926 125.521525 
L 195.168264 126.084735 
L 198.447603 126.438049 
L 201.726942 126.66252 
L 205.006281 126.806219 
L 208.28562 126.898816 
L 211.564959 126.958713 
L 214.844298 126.999423 
L 218.123636 127.0259 
L 221.402975 127.044688 
L 224.682314 127.057855 
L 227.961653 127.067085 
L 231.240992 127.073499 
L 234.520331 127.078483 
L 237.799669 127.082434 
L 241.079008 127.085226 
L 244.358347 127.087555 
L 247.637686 127.089254 
L 250.917025 127.090704 
L 254.196364 127.091792 
L 257.475702 127.092711 
L 260.755041 127.093367 
L 264.03438 127.093915 
L 267.313719 127.094426 
L 270.593058 127.093678 
L 273.872397 128.411552 
L 277.151736 129.559715 
L 280.431074 130.591233 
L 283.710413 131.514415 
L 286.989752 132.338607 
L 290.269091 133.074895 
L 293.54843 133.73438 
L 296.827769 134.324645 
L 300.107107 134.85341 
L 303.386446 135.327856 
L 306.665785 135.751769 
L 309.945124 136.137745 
L 313.224463 136.478245 
L 316.503802 136.797503 
L 319.78314 137.081427 
L 323.062479 137.339849 
L 326.341818 137.575731 
L 329.621157 137.789976 
L 332.900496 137.985809 
L 336.179835 138.165063 
L 339.459174 138.328494 
L 342.738512 138.477652 
L 346.017851 138.6144 
L 349.29719 138.739489 
L 352.576529 138.854602 
L 355.855868 138.961163 
L 359.135207 139.059009 
L 362.414545 139.149786 
L 365.693884 139.233667 
L 368.973223 139.311343 
L 372.252562 139.383402 
L 375.531901 139.449741 
L 378.81124 139.511325 
L 382.090579 139.568709 
L 385.369917 139.621929 
L 388.649256 139.671064 
L 391.928595 139.716794 
L 395.207934 139.75951 
L 398.487273 139.799353 
" clip-path="url(#p9d744d60a3)" style="fill: none; stroke: #2ca02c; stroke-width: 1.5; stroke-linecap: square"/>
   </g>
   <g id="patch_9">
    <path d="M 57.6 142.411034 
L 57.6 96.529655 
" style="fill: none; stroke: #000000; stroke-width: 0.8; stroke-linejoin: miter; stroke-linecap: square"/>
   </g>
   <g id="patch_10">
    <path d="M 414.72 142.411034 
L 414.72 96.529655 
" style="fill: none; stroke: #000000; stroke-width: 0.8; stroke-linejoin: miter; stroke-linecap: square"/>
   </g>
   <g id="patch_11">
    <path d="M 57.6 142.411034 
L 414.72 142.411034 
" style="fill: none; stroke: #000000; stroke-width: 0.8; stroke-linejoin: miter; stroke-linecap: square"/>
   </g>
   <g id="patch_12">
    <path d="M 57.6 96.529655 
L 414.72 96.529655 
" style="fill: none; stroke: #000000; stroke-width: 0.8; stroke-linejoin: miter; stroke-linecap: square"/>
   </g>
   <g id="text_10">
    <!-- Pressure -->
    <g transform="translate(210.546562 90.529655)scale(0.12 -0.12)">
     <defs>
      <path id="DejaVuSans-50" d="M 1259 4147 
L 1259 2394 
L 2053 2394 
Q 2494 2394 2734 2622 
Q 2975 2850 2975 3272 
Q 2975 3691 2734 3919 
Q 2494 4147 2053 4147 
L 1259 4147 
z
M 628 4666 
L 2053 4666 
Q 2838 4666 3239 4311 
Q 3641 3956 3641 3272 
Q 3641 2581 3239 2228 
Q 2838 1875 2053 1875 
L 1259 1875 
L 1259 0 
L 628 0 
L 628 4666 
z
" transform="scale(0.015625)"/>
      <path id="DejaVuSans-75" d="M 544 1381 
L 544 3500 
L 1119 3500 
L 1119 1403 
Q 1119 906 1312 657 
Q 1506 409 1894 409 
Q 2359 409 2629 706 
Q 2900 1003 2900 1516 
L 2900 3500 
L 3475 3500 
L 3475 0 
L 2900 0 
L 2900 538 
Q 2691 219 2414 64 
Q 2138 -91 1772 -91 
Q 1169 -91 856 284 
Q 544 659 544 1381 
z
M 1991 3584 
L 1991 3584 
z
" transform="scale(0.015625)"/>
     </defs>
     <use xlink:href="#DejaVuSans-50"/>
     <use xlink:href="#DejaVuSans-72" x="58.552734"/>
     <use xlink:href="#DejaVuSans-65" x="97.416016"/>
     <use xlink:href="#DejaVuSans-73" x="158.939453"/>
     <use xlink:href="#DejaVuSans-73" x="211.039062"/>
     <use xlink:href="#DejaVuSans-75" x="263.138672"/>
     <use xlink:href="#DejaVuSans-72" x="326.517578"/>
     <use xlink:href="#DejaVuSans-65" x="365.380859"/>
    </g>
   </g>
   <g id="legend_2">
    <g id="patch_13">
     <path d="M 350.823125 137.411034 
L 407.72 137.411034 
Q 409.72 137.411034 409.72 135.411034 
L 409.72 92.376659 
Q 409.72 90.376659 407.72 90.376659 
L 350.823125 90.376659 
Q 348.823125 90.376659 348.823125 92.376659 
L 348.823125 135.411034 
Q 348.823125 137.411034 350.823125 137.411034 
z
" style="fill: #ffffff; opacity: 0.8; stroke: #cccccc; stroke-linejoin: miter"/>
    </g>
    <g id="line2d_26">
     <path d="M 352.823125 98.475097 
L 362.823125 98.475097 
L 372.823125 98.475097 
" style="fill: none; stroke: #1f77b4; stroke-width: 1.5; stroke-linecap: square"/>
    </g>
    <g id="text_11">
     <!-- P1 -->
     <g transform="translate(380.823125 101.975097)scale(0.1 -0.1)">
      <use xlink:href="#DejaVuSans-50"/>
      <use xlink:href="#DejaVuSans-31" x="60.302734"/>
     </g>
    </g>
    <g id="line2d_27">
     <path d="M 352.823125 113.153222 
L 362.823125 113.153222 
L 372.823125 113.153222 
" style="fill: none; stroke: #ff7f0e; stroke-width: 1.5; stroke-linecap: square"/>
    </g>
    <g id="text_12">
     <!-- Pmid -->
     <g transform="translate(380.823125 116.653222)scale(0.1 -0.1)">
      <use xlink:href="#DejaVuSans-50"/>
      <use xlink:href="#DejaVuSans-6d" x="60.302734"/>
      <use xlink:href="#DejaVuSans-69" x="157.714844"/>
      <use xlink:href="#DejaVuSans-64" x="185.498047"/>
     </g>
    </g>
    <g id="line2d_28">
     <path d="M 352.823125 127.831347 
L 362.823125 127.831347 
L 372.823125 127.831347 
" style="fill: none; stroke: #2ca02c; stroke-width: 1.5; stroke-linecap: square"/>
    </g>
    <g id="text_13">
     <!-- PN -->
     <g transform="translate(380.823125 131.331347)scale(0.1 -0.1)">
      <use xlink:href="#DejaVuSans-50"/>
      <use xlink:href="#DejaVuSans-4e" x="60.302734"/>
     </g>
    </g>
   </g>
  </g>
  <g id="axes_3">
   <g id="patch_14">
    <path d="M 57.6 197.46869 
L 414.72 197.46869 
L 414.72 151.58731 
L 57.6 151.58731 
z
" style="fill: #ffffff"/>
   </g>
   <g id="matplotlib.axis_5">
    <g id="xtick_13">
     <g id="line2d_29">
      <g>
       <use xlink:href="#ma030135721" x="73.832727" y="197.46869" style="stroke: #000000; stroke-width: 0.8"/>
      </g>
     </g>
    </g>
    <g id="xtick_14">
     <g id="line2d_30">
      <g>
       <use xlink:href="#ma030135721" x="139.419504" y="197.46869" style="stroke: #000000; stroke-width: 0.8"/>
      </g>
     </g>
    </g>
    <g id="xtick_15">
     <g id="line2d_31">
      <g>
       <use xlink:href="#ma030135721" x="205.006281" y="197.46869" style="stroke: #000000; stroke-width: 0.8"/>
      </g>
     </g>
    </g>
    <g id="xtick_16">
     <g id="line2d_32">
      <g>
       <use xlink:href="#ma030135721" x="270.593058" y="197.46869" style="stroke: #000000; stroke-width: 0.8"/>
      </g>
     </g>
    </g>
    <g id="xtick_17">
     <g id="line2d_33">
      <g>
       <use xlink:href="#ma030135721" x="336.179835" y="197.46869" style="stroke: #000000; stroke-width: 0.8"/>
      </g>
     </g>
    </g>
    <g id="xtick_18">
     <g id="line2d_34">
      <g>
       <use xlink:href="#ma030135721" x="401.766612" y="197.46869" style="stroke: #000000; stroke-width: 0.8"/>
      </g>
     </g>
    </g>
   </g>
   <g id="matplotlib.axis_6">
    <g id="ytick_5">
     <g id="line2d_35">
      <g>
       <use xlink:href="#m19eb9d32a2" x="57.6" y="197.198756" style="stroke: #000000; stroke-width: 0.8"/>
      </g>
     </g>
     <g id="text_14">
      <!-- 0.075 -->
      <g transform="translate(21.971875 200.997975)scale(0.1 -0.1)">
       <defs>
        <path id="DejaVuSans-37" d="M 525 4666 
L 3525 4666 
L 3525 4397 
L 1831 0 
L 1172 0 
L 2766 4134 
L 525 4134 
L 525 4666 
z
" transform="scale(0.015625)"/>
       </defs>
       <use xlink:href="#DejaVuSans-30"/>
       <use xlink:href="#DejaVuSans-2e" x="63.623047"/>
       <use xlink:href="#DejaVuSans-30" x="95.410156"/>
       <use xlink:href="#DejaVuSans-37" x="159.033203"/>
       <use xlink:href="#DejaVuSans-35" x="222.65625"/>
      </g>
     </g>
    </g>
    <g id="ytick_6">
     <g id="line2d_36">
      <g>
       <use xlink:href="#m19eb9d32a2" x="57.6" y="170.491685" style="stroke: #000000; stroke-width: 0.8"/>
      </g>
     </g>
     <g id="text_15">
      <!-- 0.100 -->
      <g transform="translate(21.971875 174.290904)scale(0.1 -0.1)">
       <use xlink:href="#DejaVuSans-30"/>
       <use xlink:href="#DejaVuSans-2e" x="63.623047"/>
       <use xlink:href="#DejaVuSans-31" x="95.410156"/>
       <use xlink:href="#DejaVuSans-30" x="159.033203"/>
       <use xlink:href="#DejaVuSans-30" x="222.65625"/>
      </g>
     </g>
    </g>
    <g id="text_16">
     <!-- fraction -->
     <g transform="translate(15.892187 193.73425)rotate(-90)scale(0.1 -0.1)">
      <use xlink:href="#DejaVuSans-66"/>
      <use xlink:href="#DejaVuSans-72" x="35.205078"/>
      <use xlink:href="#DejaVuSans-61" x="76.318359"/>
      <use xlink:href="#DejaVuSans-63" x="137.597656"/>
      <use xlink:href="#DejaVuSans-74" x="192.578125"/>
      <use xlink:href="#DejaVuSans-69" x="231.787109"/>
      <use xlink:href="#DejaVuSans-6f" x="259.570312"/>
      <use xlink:href="#DejaVuSans-6e" x="320.751953"/>
     </g>
    </g>
   </g>
   <g id="line2d_37">
    <path d="M 73.832727 156.96124 
L 77.112066 171.550872 
L 80.391405 172.03227 
L 83.670744 171.930554 
L 86.950083 171.794206 
L 90.229421 171.713767 
L 93.50876 171.649711 
L 96.788099 171.61195 
L 100.067438 171.569632 
L 103.346777 171.520691 
L 106.626116 171.511852 
L 109.905455 171.512268 
L 113.184793 171.501941 
L 116.464132 171.495471 
L 119.743471 171.490738 
L 123.02281 171.488734 
L 126.302149 171.506492 
L 129.581488 171.432822 
L 132.860826 171.359654 
L 136.140165 171.287598 
L 139.419504 171.217871 
L 142.698843 171.152308 
L 145.978182 171.090046 
L 149.257521 171.032206 
L 152.53686 170.979077 
L 155.816198 170.929971 
L 159.095537 170.885861 
L 162.374876 170.845416 
L 165.654215 170.808909 
L 168.933554 170.775964 
L 172.212893 170.745871 
L 175.492231 169.069662 
L 178.77157 167.868945 
L 182.050909 166.87028 
L 185.330248 166.020886 
L 188.609587 165.282797 
L 191.888926 164.666897 
L 195.168264 164.137129 
L 198.447603 163.68954 
L 201.726942 163.314443 
L 205.006281 162.999706 
L 208.28562 162.738319 
L 211.564959 162.521566 
L 214.844298 162.343375 
L 218.123636 162.196634 
L 221.402975 162.075783 
L 224.682314 161.976923 
L 227.961653 161.895972 
L 231.240992 161.83049 
L 234.520331 161.777398 
L 237.799669 161.734246 
L 241.079008 161.6991 
L 244.358347 161.670038 
L 247.637686 161.64674 
L 250.917025 161.627405 
L 254.196364 161.611899 
L 257.475702 161.599007 
L 260.755041 161.58921 
L 264.03438 161.581257 
L 267.313719 161.574469 
L 270.593058 161.567906 
L 273.872397 158.661007 
L 277.151736 156.679985 
L 280.431074 155.343248 
L 283.710413 154.538577 
L 286.989752 154.048798 
L 290.269091 153.789228 
L 293.54843 153.686085 
L 296.827769 153.672828 
L 300.107107 153.715234 
L 303.386446 153.786043 
L 306.665785 153.86437 
L 309.945124 153.962077 
L 313.224463 154.034373 
L 316.503802 154.133049 
L 319.78314 154.211259 
L 323.062479 154.284918 
L 326.341818 154.352501 
L 329.621157 154.414146 
L 332.900496 154.469939 
L 336.179835 154.520609 
L 339.459174 154.566336 
L 342.738512 154.607466 
L 346.017851 154.644481 
L 349.29719 154.677908 
L 352.576529 154.708304 
L 355.855868 154.73614 
L 359.135207 154.761609 
L 362.414545 154.78526 
L 365.693884 154.806974 
L 368.973223 154.826951 
L 372.252562 154.845397 
L 375.531901 154.862235 
L 378.81124 154.877773 
L 382.090579 154.892171 
L 385.369917 154.905482 
L 388.649256 154.91777 
L 391.928595 154.929222 
L 395.207934 154.939962 
L 398.487273 154.949965 
" clip-path="url(#p4794f79f23)" style="fill: none; stroke: #1f77b4; stroke-width: 1.5; stroke-linecap: square"/>
   </g>
   <g id="line2d_38">
    <path d="M 73.832727 174.684292 
L 77.112066 177.081425 
L 80.391405 182.326351 
L 83.670744 187.35478 
L 86.950083 190.681355 
L 90.229421 192.555323 
L 93.50876 193.649804 
L 96.788099 194.294774 
L 100.067438 194.690333 
L 103.346777 194.940895 
L 106.626116 195.096812 
L 109.905455 195.204403 
L 113.184793 195.270058 
L 116.464132 195.314928 
L 119.743471 195.342055 
L 123.02281 195.357077 
L 126.302149 195.383172 
L 129.581488 195.376 
L 132.860826 195.367848 
L 136.140165 195.358196 
L 139.419504 195.347159 
L 142.698843 195.334767 
L 145.978182 195.32105 
L 149.257521 195.30605 
L 152.53686 195.289808 
L 155.816198 195.272356 
L 159.095537 195.253742 
L 162.374876 195.233566 
L 165.654215 195.211836 
L 168.933554 195.189006 
L 172.212893 195.165054 
L 175.492231 193.138493 
L 178.77157 191.438109 
L 182.050909 190.11659 
L 185.330248 189.133941 
L 188.609587 188.402325 
L 191.888926 187.899722 
L 195.168264 187.537788 
L 198.447603 187.283489 
L 201.726942 187.103352 
L 205.006281 186.973064 
L 208.28562 186.878949 
L 211.564959 186.809912 
L 214.844298 186.757782 
L 218.123636 186.718496 
L 221.402975 186.687766 
L 224.682314 186.664067 
L 227.961653 186.645477 
L 231.240992 186.630951 
L 234.520331 186.61913 
L 237.799669 186.609465 
L 241.079008 186.601821 
L 244.358347 186.595446 
L 247.637686 186.590341 
L 250.917025 186.586014 
L 254.196364 186.582505 
L 257.475702 186.579505 
L 260.755041 186.577138 
L 264.03438 186.575113 
L 267.313719 186.573275 
L 270.593058 186.571937 
L 273.872397 185.843876 
L 277.151736 185.154837 
L 280.431074 184.488911 
L 283.710413 183.851069 
L 286.989752 183.242581 
L 290.269091 182.664671 
L 293.54843 182.11707 
L 296.827769 181.600294 
L 300.107107 181.114201 
L 303.386446 180.658865 
L 306.665785 180.230269 
L 309.945124 179.83373 
L 313.224463 179.444631 
L 316.503802 179.108414 
L 319.78314 178.779749 
L 323.062479 178.477536 
L 326.341818 178.192278 
L 329.621157 177.925774 
L 332.900496 177.678406 
L 336.179835 177.447442 
L 339.459174 177.23244 
L 342.738512 177.032887 
L 346.017851 176.847132 
L 349.29719 176.674539 
L 352.576529 176.513789 
L 355.855868 176.363612 
L 359.135207 176.223516 
L 362.414545 176.09219 
L 365.693884 175.969647 
L 368.973223 175.855289 
L 372.252562 175.748482 
L 375.531901 175.649068 
L 378.81124 175.55627 
L 382.090579 175.469548 
L 385.369917 175.388535 
L 388.649256 175.312853 
L 391.928595 175.241918 
L 395.207934 175.175247 
L 398.487273 175.112875 
" clip-path="url(#p4794f79f23)" style="fill: none; stroke: #ff7f0e; stroke-width: 1.5; stroke-linecap: square"/>
   </g>
   <g id="patch_15">
    <path d="M 57.6 197.46869 
L 57.6 151.58731 
" style="fill: none; stroke: #000000; stroke-width: 0.8; stroke-linejoin: miter; stroke-linecap: square"/>
   </g>
   <g id="patch_16">
    <path d="M 414.72 197.46869 
L 414.72 151.58731 
" style="fill: none; stroke: #000000; stroke-width: 0.8; stroke-linejoin: miter; stroke-linecap: square"/>
   </g>
   <g id="patch_17">
    <path d="M 57.6 197.46869 
L 414.72 197.46869 
" style="fill: none; stroke: #000000; stroke-width: 0.8; stroke-linejoin: miter; stroke-linecap: square"/>
   </g>
   <g id="patch_18">
    <path d="M 57.6 151.58731 
L 414.72 151.58731 
" style="fill: none; stroke: #000000; stroke-width: 0.8; stroke-linejoin: miter; stroke-linecap: square"/>
   </g>
   <g id="text_17">
    <!-- yA -->
    <g transform="translate(228.504375 145.58731)scale(0.12 -0.12)">
     <defs>
      <path id="DejaVuSans-41" d="M 2188 4044 
L 1331 1722 
L 3047 1722 
L 2188 4044 
z
M 1831 4666 
L 2547 4666 
L 4325 0 
L 3669 0 
L 3244 1197 
L 1141 1197 
L 716 0 
L 50 0 
L 1831 4666 
z
" transform="scale(0.015625)"/>
     </defs>
     <use xlink:href="#DejaVuSans-79"/>
     <use xlink:href="#DejaVuSans-41" x="59.179688"/>
    </g>
   </g>
   <g id="legend_3">
    <g id="patch_19">
     <path d="M 330.030938 188.94356 
L 407.72 188.94356 
Q 409.72 188.94356 409.72 186.94356 
L 409.72 158.58731 
Q 409.72 156.58731 407.72 156.58731 
L 330.030938 156.58731 
Q 328.030938 156.58731 328.030938 158.58731 
L 328.030938 186.94356 
Q 328.030938 188.94356 330.030938 188.94356 
z
" style="fill: #ffffff; opacity: 0.8; stroke: #cccccc; stroke-linejoin: miter"/>
    </g>
    <g id="line2d_39">
     <path d="M 332.030938 164.685748 
L 342.030938 164.685748 
L 352.030938 164.685748 
" style="fill: none; stroke: #1f77b4; stroke-width: 1.5; stroke-linecap: square"/>
    </g>
    <g id="text_18">
     <!-- yA0 (in) -->
     <g transform="translate(360.030938 168.185748)scale(0.1 -0.1)">
      <use xlink:href="#DejaVuSans-79"/>
      <use xlink:href="#DejaVuSans-41" x="59.179688"/>
      <use xlink:href="#DejaVuSans-30" x="127.587891"/>
      <use xlink:href="#DejaVuSans-20" x="191.210938"/>
      <use xlink:href="#DejaVuSans-28" x="222.998047"/>
      <use xlink:href="#DejaVuSans-69" x="262.011719"/>
      <use xlink:href="#DejaVuSans-6e" x="289.794922"/>
      <use xlink:href="#DejaVuSans-29" x="353.173828"/>
     </g>
    </g>
    <g id="line2d_40">
     <path d="M 332.030938 179.363873 
L 342.030938 179.363873 
L 352.030938 179.363873 
" style="fill: none; stroke: #ff7f0e; stroke-width: 1.5; stroke-linecap: square"/>
    </g>
    <g id="text_19">
     <!-- yAL (out) -->
     <g transform="translate(360.030938 182.863873)scale(0.1 -0.1)">
      <defs>
       <path id="DejaVuSans-4c" d="M 628 4666 
L 1259 4666 
L 1259 531 
L 3531 531 
L 3531 0 
L 628 0 
L 628 4666 
z
" transform="scale(0.015625)"/>
      </defs>
      <use xlink:href="#DejaVuSans-79"/>
      <use xlink:href="#DejaVuSans-41" x="59.179688"/>
      <use xlink:href="#DejaVuSans-4c" x="127.587891"/>
      <use xlink:href="#DejaVuSans-20" x="183.300781"/>
      <use xlink:href="#DejaVuSans-28" x="215.087891"/>
      <use xlink:href="#DejaVuSans-6f" x="254.101562"/>
      <use xlink:href="#DejaVuSans-75" x="315.283203"/>
      <use xlink:href="#DejaVuSans-74" x="378.662109"/>
      <use xlink:href="#DejaVuSans-29" x="417.871094"/>
     </g>
    </g>
   </g>
  </g>
  <g id="axes_4">
   <g id="patch_20">
    <path d="M 57.6 252.526345 
L 414.72 252.526345 
L 414.72 206.644966 
L 57.6 206.644966 
z
" style="fill: #ffffff"/>
   </g>
   <g id="matplotlib.axis_7">
    <g id="xtick_19">
     <g id="line2d_41">
      <g>
       <use xlink:href="#ma030135721" x="73.832727" y="252.526345" style="stroke: #000000; stroke-width: 0.8"/>
      </g>
     </g>
    </g>
    <g id="xtick_20">
     <g id="line2d_42">
      <g>
       <use xlink:href="#ma030135721" x="139.419504" y="252.526345" style="stroke: #000000; stroke-width: 0.8"/>
      </g>
     </g>
    </g>
    <g id="xtick_21">
     <g id="line2d_43">
      <g>
       <use xlink:href="#ma030135721" x="205.006281" y="252.526345" style="stroke: #000000; stroke-width: 0.8"/>
      </g>
     </g>
    </g>
    <g id="xtick_22">
     <g id="line2d_44">
      <g>
       <use xlink:href="#ma030135721" x="270.593058" y="252.526345" style="stroke: #000000; stroke-width: 0.8"/>
      </g>
     </g>
    </g>
    <g id="xtick_23">
     <g id="line2d_45">
      <g>
       <use xlink:href="#ma030135721" x="336.179835" y="252.526345" style="stroke: #000000; stroke-width: 0.8"/>
      </g>
     </g>
    </g>
    <g id="xtick_24">
     <g id="line2d_46">
      <g>
       <use xlink:href="#ma030135721" x="401.766612" y="252.526345" style="stroke: #000000; stroke-width: 0.8"/>
      </g>
     </g>
    </g>
   </g>
   <g id="matplotlib.axis_8">
    <g id="ytick_7">
     <g id="line2d_47">
      <g>
       <use xlink:href="#m19eb9d32a2" x="57.6" y="232.331249" style="stroke: #000000; stroke-width: 0.8"/>
      </g>
     </g>
     <g id="text_20">
      <!-- 0.80 -->
      <g transform="translate(28.334375 236.130468)scale(0.1 -0.1)">
       <defs>
        <path id="DejaVuSans-38" d="M 2034 2216 
Q 1584 2216 1326 1975 
Q 1069 1734 1069 1313 
Q 1069 891 1326 650 
Q 1584 409 2034 409 
Q 2484 409 2743 651 
Q 3003 894 3003 1313 
Q 3003 1734 2745 1975 
Q 2488 2216 2034 2216 
z
M 1403 2484 
Q 997 2584 770 2862 
Q 544 3141 544 3541 
Q 544 4100 942 4425 
Q 1341 4750 2034 4750 
Q 2731 4750 3128 4425 
Q 3525 4100 3525 3541 
Q 3525 3141 3298 2862 
Q 3072 2584 2669 2484 
Q 3125 2378 3379 2068 
Q 3634 1759 3634 1313 
Q 3634 634 3220 271 
Q 2806 -91 2034 -91 
Q 1263 -91 848 271 
Q 434 634 434 1313 
Q 434 1759 690 2068 
Q 947 2378 1403 2484 
z
M 1172 3481 
Q 1172 3119 1398 2916 
Q 1625 2713 2034 2713 
Q 2441 2713 2670 2916 
Q 2900 3119 2900 3481 
Q 2900 3844 2670 4047 
Q 2441 4250 2034 4250 
Q 1625 4250 1398 4047 
Q 1172 3844 1172 3481 
z
" transform="scale(0.015625)"/>
       </defs>
       <use xlink:href="#DejaVuSans-30"/>
       <use xlink:href="#DejaVuSans-2e" x="63.623047"/>
       <use xlink:href="#DejaVuSans-38" x="95.410156"/>
       <use xlink:href="#DejaVuSans-30" x="159.033203"/>
      </g>
     </g>
    </g>
    <g id="ytick_8">
     <g id="line2d_48">
      <g>
       <use xlink:href="#m19eb9d32a2" x="57.6" y="211.332517" style="stroke: #000000; stroke-width: 0.8"/>
      </g>
     </g>
     <g id="text_21">
      <!-- 0.85 -->
      <g transform="translate(28.334375 215.131736)scale(0.1 -0.1)">
       <use xlink:href="#DejaVuSans-30"/>
       <use xlink:href="#DejaVuSans-2e" x="63.623047"/>
       <use xlink:href="#DejaVuSans-38" x="95.410156"/>
       <use xlink:href="#DejaVuSans-35" x="159.033203"/>
      </g>
     </g>
    </g>
    <g id="text_22">
     <!-- fraction -->
     <g transform="translate(22.254687 248.791905)rotate(-90)scale(0.1 -0.1)">
      <use xlink:href="#DejaVuSans-66"/>
      <use xlink:href="#DejaVuSans-72" x="35.205078"/>
      <use xlink:href="#DejaVuSans-61" x="76.318359"/>
      <use xlink:href="#DejaVuSans-63" x="137.597656"/>
      <use xlink:href="#DejaVuSans-74" x="192.578125"/>
      <use xlink:href="#DejaVuSans-69" x="231.787109"/>
      <use xlink:href="#DejaVuSans-6f" x="259.570312"/>
      <use xlink:href="#DejaVuSans-6e" x="320.751953"/>
     </g>
    </g>
   </g>
   <g id="line2d_49">
    <path d="M 73.832727 246.276792 
L 77.112066 230.947512 
L 80.391405 230.188009 
L 83.670744 230.24637 
L 86.950083 230.384595 
L 90.229421 230.473319 
L 93.50876 230.544233 
L 96.788099 230.58713 
L 100.067438 230.633066 
L 103.346777 230.679656 
L 106.626116 230.688896 
L 109.905455 230.696089 
L 113.184793 230.706535 
L 116.464132 230.712286 
L 119.743471 230.716811 
L 123.02281 230.719186 
L 126.302149 230.702506 
L 129.581488 230.783294 
L 132.860826 230.864463 
L 136.140165 230.945884 
L 139.419504 231.026179 
L 142.698843 231.10319 
L 145.978182 231.17779 
L 149.257521 231.248651 
L 152.53686 231.31532 
L 155.816198 231.378393 
L 159.095537 231.436673 
L 162.374876 231.491522 
L 165.654215 231.542501 
L 168.933554 231.589898 
L 172.212893 231.634298 
L 175.492231 233.363297 
L 178.77157 234.628392 
L 182.050909 235.687494 
L 185.330248 236.592221 
L 188.609587 237.382185 
L 191.888926 238.041497 
L 195.168264 238.610582 
L 198.447603 239.092163 
L 201.726942 239.496045 
L 205.006281 239.835459 
L 208.28562 240.117477 
L 211.564959 240.351557 
L 214.844298 240.544049 
L 218.123636 240.702649 
L 221.402975 240.833299 
L 224.682314 240.940161 
L 227.961653 241.027681 
L 231.240992 241.098479 
L 234.520331 241.155878 
L 237.799669 241.202522 
L 241.079008 241.240498 
L 244.358347 241.271882 
L 247.637686 241.297024 
L 250.917025 241.317869 
L 254.196364 241.33457 
L 257.475702 241.34844 
L 260.755041 241.358959 
L 264.03438 241.367482 
L 267.313719 241.374745 
L 270.593058 241.381876 
L 273.872397 244.554549 
L 277.151736 246.825667 
L 280.431074 248.406103 
L 283.710413 249.374489 
L 286.989752 249.970069 
L 290.269091 250.289305 
L 293.54843 250.419875 
L 296.827769 250.440828 
L 300.107107 250.393216 
L 303.386446 250.310145 
L 306.665785 250.215048 
L 309.945124 250.098298 
L 313.224463 250.009963 
L 316.503802 249.889718 
L 319.78314 249.793363 
L 323.062479 249.702172 
L 326.341818 249.618002 
L 329.621157 249.540709 
L 332.900496 249.470253 
L 336.179835 249.405859 
L 339.459174 249.347328 
L 342.738512 249.294268 
L 346.017851 249.246174 
L 349.29719 249.202433 
L 352.576529 249.16243 
L 355.855868 249.12565 
L 359.135207 249.091852 
L 362.414545 249.060434 
L 365.693884 249.031481 
L 368.973223 249.004751 
L 372.252562 248.980004 
L 375.531901 248.957306 
L 378.81124 248.936297 
L 382.090579 248.916779 
L 385.369917 248.89869 
L 388.649256 248.881955 
L 391.928595 248.866345 
L 395.207934 248.851706 
L 398.487273 248.838051 
" clip-path="url(#pda82553806)" style="fill: none; stroke: #1f77b4; stroke-width: 1.5; stroke-linecap: square"/>
   </g>
   <g id="line2d_50">
    <path d="M 73.832727 228.86334 
L 77.112066 226.397386 
L 80.391405 221.169023 
L 83.670744 216.316242 
L 86.950083 213.160822 
L 90.229421 211.400443 
L 93.50876 210.372079 
L 96.788099 209.765682 
L 100.067438 209.393781 
L 103.346777 209.158146 
L 106.626116 209.011287 
L 109.905455 208.910113 
L 113.184793 208.848126 
L 116.464132 208.805788 
L 119.743471 208.780102 
L 123.02281 208.765876 
L 126.302149 208.730548 
L 129.581488 208.730483 
L 132.860826 208.730865 
L 136.140165 208.731929 
L 139.419504 208.733616 
L 142.698843 208.735882 
L 145.978182 208.738729 
L 149.257521 208.742121 
L 152.53686 208.746034 
L 155.816198 208.750463 
L 159.095537 208.755369 
L 162.374876 208.760939 
L 165.654215 208.767163 
L 168.933554 208.77385 
L 172.212893 208.781021 
L 175.492231 210.610914 
L 178.77157 212.136761 
L 182.050909 213.317163 
L 185.330248 214.182561 
L 188.609587 214.817689 
L 191.888926 215.237811 
L 195.168264 215.532977 
L 198.447603 215.732729 
L 201.726942 215.868668 
L 205.006281 215.963194 
L 208.28562 216.028565 
L 211.564959 216.074501 
L 214.844298 216.107964 
L 218.123636 216.132163 
L 221.402975 216.150617 
L 224.682314 216.164418 
L 227.961653 216.17497 
L 231.240992 216.183005 
L 234.520331 216.189494 
L 237.799669 216.194771 
L 241.079008 216.198841 
L 244.358347 216.202226 
L 247.637686 216.204891 
L 250.917025 216.207149 
L 254.196364 216.208961 
L 257.475702 216.210514 
L 260.755041 216.21172 
L 264.03438 216.212752 
L 267.313719 216.213699 
L 270.593058 216.214257 
L 273.872397 216.921497 
L 277.151736 217.592556 
L 280.431074 218.243922 
L 283.710413 218.869987 
L 286.989752 219.469196 
L 290.269091 220.039921 
L 293.54843 220.582086 
L 296.827769 221.094971 
L 300.107107 221.57848 
L 303.386446 222.032342 
L 306.665785 222.460512 
L 309.945124 222.857076 
L 313.224463 223.248158 
L 316.503802 223.584625 
L 319.78314 223.915068 
L 323.062479 224.219004 
L 326.341818 224.506329 
L 329.621157 224.775104 
L 332.900496 225.024786 
L 336.179835 225.258143 
L 339.459174 225.475602 
L 342.738512 225.677626 
L 346.017851 225.865854 
L 349.29719 226.040895 
L 352.576529 226.204041 
L 355.855868 226.356543 
L 359.135207 226.498897 
L 362.414545 226.632389 
L 365.693884 226.757007 
L 368.973223 226.873341 
L 372.252562 226.982027 
L 375.531901 227.083247 
L 378.81124 227.177762 
L 382.090579 227.266108 
L 385.369917 227.348659 
L 388.649256 227.425799 
L 391.928595 227.498108 
L 395.207934 227.566071 
L 398.487273 227.629652 
" clip-path="url(#pda82553806)" style="fill: none; stroke: #ff7f0e; stroke-width: 1.5; stroke-linecap: square"/>
   </g>
   <g id="patch_21">
    <path d="M 57.6 252.526345 
L 57.6 206.644966 
" style="fill: none; stroke: #000000; stroke-width: 0.8; stroke-linejoin: miter; stroke-linecap: square"/>
   </g>
   <g id="patch_22">
    <path d="M 414.72 252.526345 
L 414.72 206.644966 
" style="fill: none; stroke: #000000; stroke-width: 0.8; stroke-linejoin: miter; stroke-linecap: square"/>
   </g>
   <g id="patch_23">
    <path d="M 57.6 252.526345 
L 414.72 252.526345 
" style="fill: none; stroke: #000000; stroke-width: 0.8; stroke-linejoin: miter; stroke-linecap: square"/>
   </g>
   <g id="patch_24">
    <path d="M 57.6 206.644966 
L 414.72 206.644966 
" style="fill: none; stroke: #000000; stroke-width: 0.8; stroke-linejoin: miter; stroke-linecap: square"/>
   </g>
   <g id="text_23">
    <!-- yB -->
    <g transform="translate(228.492188 200.644966)scale(0.12 -0.12)">
     <defs>
      <path id="DejaVuSans-42" d="M 1259 2228 
L 1259 519 
L 2272 519 
Q 2781 519 3026 730 
Q 3272 941 3272 1375 
Q 3272 1813 3026 2020 
Q 2781 2228 2272 2228 
L 1259 2228 
z
M 1259 4147 
L 1259 2741 
L 2194 2741 
Q 2656 2741 2882 2914 
Q 3109 3088 3109 3444 
Q 3109 3797 2882 3972 
Q 2656 4147 2194 4147 
L 1259 4147 
z
M 628 4666 
L 2241 4666 
Q 2963 4666 3353 4366 
Q 3744 4066 3744 3513 
Q 3744 3084 3544 2831 
Q 3344 2578 2956 2516 
Q 3422 2416 3680 2098 
Q 3938 1781 3938 1306 
Q 3938 681 3513 340 
Q 3088 0 2303 0 
L 628 0 
L 628 4666 
z
" transform="scale(0.015625)"/>
     </defs>
     <use xlink:href="#DejaVuSans-79"/>
     <use xlink:href="#DejaVuSans-42" x="59.179688"/>
    </g>
   </g>
   <g id="legend_4">
    <g id="patch_25">
     <path d="M 330.010625 244.001216 
L 407.72 244.001216 
Q 409.72 244.001216 409.72 242.001216 
L 409.72 213.644966 
Q 409.72 211.644966 407.72 211.644966 
L 330.010625 211.644966 
Q 328.010625 211.644966 328.010625 213.644966 
L 328.010625 242.001216 
Q 328.010625 244.001216 330.010625 244.001216 
z
" style="fill: #ffffff; opacity: 0.8; stroke: #cccccc; stroke-linejoin: miter"/>
    </g>
    <g id="line2d_51">
     <path d="M 332.010625 219.743403 
L 342.010625 219.743403 
L 352.010625 219.743403 
" style="fill: none; stroke: #1f77b4; stroke-width: 1.5; stroke-linecap: square"/>
    </g>
    <g id="text_24">
     <!-- yB0 (in) -->
     <g transform="translate(360.010625 223.243403)scale(0.1 -0.1)">
      <use xlink:href="#DejaVuSans-79"/>
      <use xlink:href="#DejaVuSans-42" x="59.179688"/>
      <use xlink:href="#DejaVuSans-30" x="127.783203"/>
      <use xlink:href="#DejaVuSans-20" x="191.40625"/>
      <use xlink:href="#DejaVuSans-28" x="223.193359"/>
      <use xlink:href="#DejaVuSans-69" x="262.207031"/>
      <use xlink:href="#DejaVuSans-6e" x="289.990234"/>
      <use xlink:href="#DejaVuSans-29" x="353.369141"/>
     </g>
    </g>
    <g id="line2d_52">
     <path d="M 332.010625 234.421528 
L 342.010625 234.421528 
L 352.010625 234.421528 
" style="fill: none; stroke: #ff7f0e; stroke-width: 1.5; stroke-linecap: square"/>
    </g>
    <g id="text_25">
     <!-- yBL (out) -->
     <g transform="translate(360.010625 237.921528)scale(0.1 -0.1)">
      <use xlink:href="#DejaVuSans-79"/>
      <use xlink:href="#DejaVuSans-42" x="59.179688"/>
      <use xlink:href="#DejaVuSans-4c" x="127.783203"/>
      <use xlink:href="#DejaVuSans-20" x="183.496094"/>
      <use xlink:href="#DejaVuSans-28" x="215.283203"/>
      <use xlink:href="#DejaVuSans-6f" x="254.296875"/>
      <use xlink:href="#DejaVuSans-75" x="315.478516"/>
      <use xlink:href="#DejaVuSans-74" x="378.857422"/>
      <use xlink:href="#DejaVuSans-29" x="418.066406"/>
     </g>
    </g>
   </g>
  </g>
  <g id="axes_5">
   <g id="patch_26">
    <path d="M 57.6 307.584 
L 414.72 307.584 
L 414.72 261.702621 
L 57.6 261.702621 
z
" style="fill: #ffffff"/>
   </g>
   <g id="matplotlib.axis_9">
    <g id="xtick_25">
     <g id="line2d_53">
      <g>
       <use xlink:href="#ma030135721" x="73.832727" y="307.584" style="stroke: #000000; stroke-width: 0.8"/>
      </g>
     </g>
     <g id="text_26">
      <!-- 0 -->
      <g transform="translate(70.651477 322.182437)scale(0.1 -0.1)">
       <use xlink:href="#DejaVuSans-30"/>
      </g>
     </g>
    </g>
    <g id="xtick_26">
     <g id="line2d_54">
      <g>
       <use xlink:href="#ma030135721" x="139.419504" y="307.584" style="stroke: #000000; stroke-width: 0.8"/>
      </g>
     </g>
     <g id="text_27">
      <!-- 20 -->
      <g transform="translate(133.057004 322.182437)scale(0.1 -0.1)">
       <defs>
        <path id="DejaVuSans-32" d="M 1228 531 
L 3431 531 
L 3431 0 
L 469 0 
L 469 531 
Q 828 903 1448 1529 
Q 2069 2156 2228 2338 
Q 2531 2678 2651 2914 
Q 2772 3150 2772 3378 
Q 2772 3750 2511 3984 
Q 2250 4219 1831 4219 
Q 1534 4219 1204 4116 
Q 875 4013 500 3803 
L 500 4441 
Q 881 4594 1212 4672 
Q 1544 4750 1819 4750 
Q 2544 4750 2975 4387 
Q 3406 4025 3406 3419 
Q 3406 3131 3298 2873 
Q 3191 2616 2906 2266 
Q 2828 2175 2409 1742 
Q 1991 1309 1228 531 
z
" transform="scale(0.015625)"/>
       </defs>
       <use xlink:href="#DejaVuSans-32"/>
       <use xlink:href="#DejaVuSans-30" x="63.623047"/>
      </g>
     </g>
    </g>
    <g id="xtick_27">
     <g id="line2d_55">
      <g>
       <use xlink:href="#ma030135721" x="205.006281" y="307.584" style="stroke: #000000; stroke-width: 0.8"/>
      </g>
     </g>
     <g id="text_28">
      <!-- 40 -->
      <g transform="translate(198.643781 322.182437)scale(0.1 -0.1)">
       <defs>
        <path id="DejaVuSans-34" d="M 2419 4116 
L 825 1625 
L 2419 1625 
L 2419 4116 
z
M 2253 4666 
L 3047 4666 
L 3047 1625 
L 3713 1625 
L 3713 1100 
L 3047 1100 
L 3047 0 
L 2419 0 
L 2419 1100 
L 313 1100 
L 313 1709 
L 2253 4666 
z
" transform="scale(0.015625)"/>
       </defs>
       <use xlink:href="#DejaVuSans-34"/>
       <use xlink:href="#DejaVuSans-30" x="63.623047"/>
      </g>
     </g>
    </g>
    <g id="xtick_28">
     <g id="line2d_56">
      <g>
       <use xlink:href="#ma030135721" x="270.593058" y="307.584" style="stroke: #000000; stroke-width: 0.8"/>
      </g>
     </g>
     <g id="text_29">
      <!-- 60 -->
      <g transform="translate(264.230558 322.182437)scale(0.1 -0.1)">
       <defs>
        <path id="DejaVuSans-36" d="M 2113 2584 
Q 1688 2584 1439 2293 
Q 1191 2003 1191 1497 
Q 1191 994 1439 701 
Q 1688 409 2113 409 
Q 2538 409 2786 701 
Q 3034 994 3034 1497 
Q 3034 2003 2786 2293 
Q 2538 2584 2113 2584 
z
M 3366 4563 
L 3366 3988 
Q 3128 4100 2886 4159 
Q 2644 4219 2406 4219 
Q 1781 4219 1451 3797 
Q 1122 3375 1075 2522 
Q 1259 2794 1537 2939 
Q 1816 3084 2150 3084 
Q 2853 3084 3261 2657 
Q 3669 2231 3669 1497 
Q 3669 778 3244 343 
Q 2819 -91 2113 -91 
Q 1303 -91 875 529 
Q 447 1150 447 2328 
Q 447 3434 972 4092 
Q 1497 4750 2381 4750 
Q 2619 4750 2861 4703 
Q 3103 4656 3366 4563 
z
" transform="scale(0.015625)"/>
       </defs>
       <use xlink:href="#DejaVuSans-36"/>
       <use xlink:href="#DejaVuSans-30" x="63.623047"/>
      </g>
     </g>
    </g>
    <g id="xtick_29">
     <g id="line2d_57">
      <g>
       <use xlink:href="#ma030135721" x="336.179835" y="307.584" style="stroke: #000000; stroke-width: 0.8"/>
      </g>
     </g>
     <g id="text_30">
      <!-- 80 -->
      <g transform="translate(329.817335 322.182437)scale(0.1 -0.1)">
       <use xlink:href="#DejaVuSans-38"/>
       <use xlink:href="#DejaVuSans-30" x="63.623047"/>
      </g>
     </g>
    </g>
    <g id="xtick_30">
     <g id="line2d_58">
      <g>
       <use xlink:href="#ma030135721" x="401.766612" y="307.584" style="stroke: #000000; stroke-width: 0.8"/>
      </g>
     </g>
     <g id="text_31">
      <!-- 100 -->
      <g transform="translate(392.222862 322.182437)scale(0.1 -0.1)">
       <use xlink:href="#DejaVuSans-31"/>
       <use xlink:href="#DejaVuSans-30" x="63.623047"/>
       <use xlink:href="#DejaVuSans-30" x="127.246094"/>
      </g>
     </g>
    </g>
    <g id="text_32">
     <!-- time (normalized) -->
     <g transform="translate(191.589687 335.860562)scale(0.1 -0.1)">
      <use xlink:href="#DejaVuSans-74"/>
      <use xlink:href="#DejaVuSans-69" x="39.208984"/>
      <use xlink:href="#DejaVuSans-6d" x="66.992188"/>
      <use xlink:href="#DejaVuSans-65" x="164.404297"/>
      <use xlink:href="#DejaVuSans-20" x="225.927734"/>
      <use xlink:href="#DejaVuSans-28" x="257.714844"/>
      <use xlink:href="#DejaVuSans-6e" x="296.728516"/>
      <use xlink:href="#DejaVuSans-6f" x="360.107422"/>
      <use xlink:href="#DejaVuSans-72" x="421.289062"/>
      <use xlink:href="#DejaVuSans-6d" x="460.652344"/>
      <use xlink:href="#DejaVuSans-61" x="558.064453"/>
      <use xlink:href="#DejaVuSans-6c" x="619.34375"/>
      <use xlink:href="#DejaVuSans-69" x="647.126953"/>
      <use xlink:href="#DejaVuSans-7a" x="674.910156"/>
      <use xlink:href="#DejaVuSans-65" x="727.400391"/>
      <use xlink:href="#DejaVuSans-64" x="788.923828"/>
      <use xlink:href="#DejaVuSans-29" x="852.400391"/>
     </g>
    </g>
   </g>
   <g id="matplotlib.axis_10">
    <g id="ytick_9">
     <g id="line2d_59">
      <g>
       <use xlink:href="#m19eb9d32a2" x="57.6" y="299.984361" style="stroke: #000000; stroke-width: 0.8"/>
      </g>
     </g>
     <g id="text_33">
      <!-- 0.075 -->
      <g transform="translate(21.971875 303.78358)scale(0.1 -0.1)">
       <use xlink:href="#DejaVuSans-30"/>
       <use xlink:href="#DejaVuSans-2e" x="63.623047"/>
       <use xlink:href="#DejaVuSans-30" x="95.410156"/>
       <use xlink:href="#DejaVuSans-37" x="159.033203"/>
       <use xlink:href="#DejaVuSans-35" x="222.65625"/>
      </g>
     </g>
    </g>
    <g id="ytick_10">
     <g id="line2d_60">
      <g>
       <use xlink:href="#m19eb9d32a2" x="57.6" y="282.707529" style="stroke: #000000; stroke-width: 0.8"/>
      </g>
     </g>
     <g id="text_34">
      <!-- 0.100 -->
      <g transform="translate(21.971875 286.506748)scale(0.1 -0.1)">
       <use xlink:href="#DejaVuSans-30"/>
       <use xlink:href="#DejaVuSans-2e" x="63.623047"/>
       <use xlink:href="#DejaVuSans-31" x="95.410156"/>
       <use xlink:href="#DejaVuSans-30" x="159.033203"/>
       <use xlink:href="#DejaVuSans-30" x="222.65625"/>
      </g>
     </g>
    </g>
    <g id="ytick_11">
     <g id="line2d_61">
      <g>
       <use xlink:href="#m19eb9d32a2" x="57.6" y="265.430698" style="stroke: #000000; stroke-width: 0.8"/>
      </g>
     </g>
     <g id="text_35">
      <!-- 0.125 -->
      <g transform="translate(21.971875 269.229916)scale(0.1 -0.1)">
       <use xlink:href="#DejaVuSans-30"/>
       <use xlink:href="#DejaVuSans-2e" x="63.623047"/>
       <use xlink:href="#DejaVuSans-31" x="95.410156"/>
       <use xlink:href="#DejaVuSans-32" x="159.033203"/>
       <use xlink:href="#DejaVuSans-35" x="222.65625"/>
      </g>
     </g>
    </g>
    <g id="text_36">
     <!-- fraction -->
     <g transform="translate(15.892187 303.84956)rotate(-90)scale(0.1 -0.1)">
      <use xlink:href="#DejaVuSans-66"/>
      <use xlink:href="#DejaVuSans-72" x="35.205078"/>
      <use xlink:href="#DejaVuSans-61" x="76.318359"/>
      <use xlink:href="#DejaVuSans-63" x="137.597656"/>
      <use xlink:href="#DejaVuSans-74" x="192.578125"/>
      <use xlink:href="#DejaVuSans-69" x="231.787109"/>
      <use xlink:href="#DejaVuSans-6f" x="259.570312"/>
      <use xlink:href="#DejaVuSans-6e" x="320.751953"/>
     </g>
    </g>
   </g>
   <g id="line2d_62">
    <path d="M 73.832727 268.51283 
L 77.112066 284.299296 
L 80.391405 285.23765 
L 83.670744 285.207417 
L 86.950083 285.06817 
L 90.229421 284.974209 
L 93.50876 284.898957 
L 96.788099 284.852798 
L 100.067438 284.804585 
L 103.346777 284.75958 
L 106.626116 284.750094 
L 109.905455 284.737989 
L 113.184793 284.727481 
L 116.464132 284.722203 
L 119.743471 284.717819 
L 123.02281 284.715207 
L 126.302149 284.731166 
L 129.581488 284.645885 
L 132.860826 284.559653 
L 136.140165 284.472287 
L 139.419504 284.385267 
L 142.698843 284.300957 
L 145.978182 284.218479 
L 149.257521 284.139294 
L 152.53686 284.063958 
L 155.816198 283.991938 
L 159.095537 283.924571 
L 162.374876 283.860482 
L 165.654215 283.800211 
L 168.933554 283.743531 
L 172.212893 283.689938 
L 175.492231 281.92919 
L 178.77157 280.624206 
L 182.050909 279.527479 
L 185.330248 278.588214 
L 188.609587 277.765789 
L 191.888926 277.079311 
L 195.168264 276.485581 
L 198.447603 275.982679 
L 201.726942 275.560737 
L 205.006281 275.205832 
L 208.28562 274.910859 
L 211.564959 274.665896 
L 214.844298 274.464419 
L 218.123636 274.298368 
L 221.402975 274.161561 
L 224.682314 274.04967 
L 227.961653 273.958022 
L 231.240992 273.883884 
L 234.520331 273.823779 
L 237.799669 273.77494 
L 241.079008 273.735186 
L 244.358347 273.702344 
L 247.637686 273.676044 
L 250.917025 273.65425 
L 254.196364 273.6368 
L 257.475702 273.622316 
L 260.755041 273.611345 
L 264.03438 273.602465 
L 267.313719 273.594905 
L 270.593058 273.587416 
L 273.872397 270.24722 
L 277.151736 267.791595 
L 280.431074 266.055705 
L 283.710413 264.982758 
L 286.989752 264.319562 
L 290.269091 263.96217 
L 293.54843 263.814039 
L 296.827769 263.788138 
L 300.107107 263.839051 
L 303.386446 263.929939 
L 306.665785 264.035752 
L 309.945124 264.164659 
L 313.224463 264.263246 
L 316.503802 264.397278 
L 319.78314 264.505236 
L 323.062479 264.607642 
L 326.341818 264.702426 
L 329.621157 264.789735 
L 332.900496 264.869578 
L 336.179835 264.942761 
L 339.459174 265.009493 
L 342.738512 265.070198 
L 346.017851 265.125391 
L 349.29719 265.175744 
L 352.576529 265.221905 
L 355.855868 265.264421 
L 359.135207 265.30356 
L 362.414545 265.339959 
L 365.693884 265.373554 
L 368.973223 265.404615 
L 372.252562 265.433405 
L 375.531901 265.459861 
L 378.81124 265.48438 
L 382.090579 265.507183 
L 385.369917 265.528338 
L 388.649256 265.547926 
L 391.928595 265.566205 
L 395.207934 265.583347 
L 398.487273 265.599344 
" clip-path="url(#p4a5239c114)" style="fill: none; stroke: #1f77b4; stroke-width: 1.5; stroke-linecap: square"/>
   </g>
   <g id="line2d_63">
    <path d="M 73.832727 285.701813 
L 77.112066 288.208862 
L 80.391405 293.419248 
L 83.670744 298.151663 
L 86.950083 301.191979 
L 90.229421 302.876431 
L 93.50876 303.860596 
L 96.788099 304.441197 
L 100.067438 304.797279 
L 103.346777 305.02293 
L 106.626116 305.163723 
L 109.905455 305.260605 
L 113.184793 305.320134 
L 116.464132 305.360774 
L 119.743471 305.385493 
L 123.02281 305.399183 
L 126.302149 305.440436 
L 129.581488 305.445183 
L 132.860826 305.449828 
L 136.140165 305.454321 
L 139.419504 305.458683 
L 142.698843 305.462972 
L 145.978182 305.467161 
L 149.257521 305.471283 
L 152.53686 305.47535 
L 155.816198 305.479353 
L 159.095537 305.483321 
L 162.374876 305.487207 
L 165.654215 305.491023 
L 168.933554 305.494788 
L 172.212893 305.498483 
L 175.492231 303.798356 
L 178.77157 302.387547 
L 182.050909 301.300062 
L 185.330248 300.511714 
L 188.609587 299.939885 
L 191.888926 299.573708 
L 195.168264 299.322144 
L 198.447603 299.157958 
L 201.726942 299.050798 
L 205.006281 298.979535 
L 208.28562 298.932854 
L 211.564959 298.90193 
L 214.844298 298.880584 
L 218.123636 298.866173 
L 221.402975 298.855681 
L 224.682314 298.848305 
L 227.961653 298.84298 
L 231.240992 298.839163 
L 234.520331 298.836127 
L 237.799669 298.833684 
L 241.079008 298.831915 
L 244.358347 298.830448 
L 247.637686 298.829349 
L 250.917025 298.82842 
L 254.196364 298.827707 
L 257.475702 298.827105 
L 260.755041 298.82666 
L 264.03438 298.826284 
L 267.313719 298.825932 
L 270.593058 298.825893 
L 273.872397 298.133111 
L 277.151736 297.474616 
L 280.431074 296.833575 
L 283.710413 296.215998 
L 286.989752 295.623623 
L 290.269091 295.058339 
L 293.54843 294.520444 
L 296.827769 294.010788 
L 300.107107 293.529623 
L 303.386446 293.077345 
L 306.665785 292.650045 
L 309.945124 292.254015 
L 313.224463 291.862194 
L 316.503802 291.526034 
L 319.78314 291.194899 
L 323.062479 290.89027 
L 326.341818 290.602007 
L 329.621157 290.332136 
L 332.900496 290.081304 
L 336.179835 289.846723 
L 339.459174 289.627978 
L 342.738512 289.424636 
L 346.017851 289.23507 
L 349.29719 289.058688 
L 352.576529 288.894218 
L 355.855868 288.740424 
L 359.135207 288.596806 
L 362.414545 288.462099 
L 365.693884 288.336312 
L 368.973223 288.21886 
L 372.252562 288.109111 
L 375.531901 288.006862 
L 378.81124 287.911369 
L 382.090579 287.822094 
L 385.369917 287.738664 
L 388.649256 287.660687 
L 391.928595 287.58759 
L 395.207934 287.518886 
L 398.487273 287.45461 
" clip-path="url(#p4a5239c114)" style="fill: none; stroke: #ff7f0e; stroke-width: 1.5; stroke-linecap: square"/>
   </g>
   <g id="patch_27">
    <path d="M 57.6 307.584 
L 57.6 261.702621 
" style="fill: none; stroke: #000000; stroke-width: 0.8; stroke-linejoin: miter; stroke-linecap: square"/>
   </g>
   <g id="patch_28">
    <path d="M 414.72 307.584 
L 414.72 261.702621 
" style="fill: none; stroke: #000000; stroke-width: 0.8; stroke-linejoin: miter; stroke-linecap: square"/>
   </g>
   <g id="patch_29">
    <path d="M 57.6 307.584 
L 414.72 307.584 
" style="fill: none; stroke: #000000; stroke-width: 0.8; stroke-linejoin: miter; stroke-linecap: square"/>
   </g>
   <g id="patch_30">
    <path d="M 57.6 261.702621 
L 414.72 261.702621 
" style="fill: none; stroke: #000000; stroke-width: 0.8; stroke-linejoin: miter; stroke-linecap: square"/>
   </g>
   <g id="text_37">
    <!-- yC -->
    <g transform="translate(228.419062 255.702621)scale(0.12 -0.12)">
     <defs>
      <path id="DejaVuSans-43" d="M 4122 4306 
L 4122 3641 
Q 3803 3938 3442 4084 
Q 3081 4231 2675 4231 
Q 1875 4231 1450 3742 
Q 1025 3253 1025 2328 
Q 1025 1406 1450 917 
Q 1875 428 2675 428 
Q 3081 428 3442 575 
Q 3803 722 4122 1019 
L 4122 359 
Q 3791 134 3420 21 
Q 3050 -91 2638 -91 
Q 1578 -91 968 557 
Q 359 1206 359 2328 
Q 359 3453 968 4101 
Q 1578 4750 2638 4750 
Q 3056 4750 3426 4639 
Q 3797 4528 4122 4306 
z
" transform="scale(0.015625)"/>
     </defs>
     <use xlink:href="#DejaVuSans-79"/>
     <use xlink:href="#DejaVuSans-43" x="59.179688"/>
    </g>
   </g>
   <g id="legend_5">
    <g id="patch_31">
     <path d="M 329.88875 299.058871 
L 407.72 299.058871 
Q 409.72 299.058871 409.72 297.058871 
L 409.72 268.702621 
Q 409.72 266.702621 407.72 266.702621 
L 329.88875 266.702621 
Q 327.88875 266.702621 327.88875 268.702621 
L 327.88875 297.058871 
Q 327.88875 299.058871 329.88875 299.058871 
z
" style="fill: #ffffff; opacity: 0.8; stroke: #cccccc; stroke-linejoin: miter"/>
    </g>
    <g id="line2d_64">
     <path d="M 331.88875 274.801058 
L 341.88875 274.801058 
L 351.88875 274.801058 
" style="fill: none; stroke: #1f77b4; stroke-width: 1.5; stroke-linecap: square"/>
    </g>
    <g id="text_38">
     <!-- yC0 (in) -->
     <g transform="translate(359.88875 278.301058)scale(0.1 -0.1)">
      <use xlink:href="#DejaVuSans-79"/>
      <use xlink:href="#DejaVuSans-43" x="59.179688"/>
      <use xlink:href="#DejaVuSans-30" x="129.003906"/>
      <use xlink:href="#DejaVuSans-20" x="192.626953"/>
      <use xlink:href="#DejaVuSans-28" x="224.414062"/>
      <use xlink:href="#DejaVuSans-69" x="263.427734"/>
      <use xlink:href="#DejaVuSans-6e" x="291.210938"/>
      <use xlink:href="#DejaVuSans-29" x="354.589844"/>
     </g>
    </g>
    <g id="line2d_65">
     <path d="M 331.88875 289.479183 
L 341.88875 289.479183 
L 351.88875 289.479183 
" style="fill: none; stroke: #ff7f0e; stroke-width: 1.5; stroke-linecap: square"/>
    </g>
    <g id="text_39">
     <!-- yCL (out) -->
     <g transform="translate(359.88875 292.979183)scale(0.1 -0.1)">
      <use xlink:href="#DejaVuSans-79"/>
      <use xlink:href="#DejaVuSans-43" x="59.179688"/>
      <use xlink:href="#DejaVuSans-4c" x="129.003906"/>
      <use xlink:href="#DejaVuSans-20" x="184.716797"/>
      <use xlink:href="#DejaVuSans-28" x="216.503906"/>
      <use xlink:href="#DejaVuSans-6f" x="255.517578"/>
      <use xlink:href="#DejaVuSans-75" x="316.699219"/>
      <use xlink:href="#DejaVuSans-74" x="380.078125"/>
      <use xlink:href="#DejaVuSans-29" x="419.287109"/>
     </g>
    </g>
   </g>
  </g>
 </g>
 <defs>
  <clipPath id="p85d8f44b7d">
   <rect x="57.6" y="41.472" width="357.12" height="45.881379"/>
  </clipPath>
  <clipPath id="p9d744d60a3">
   <rect x="57.6" y="96.529655" width="357.12" height="45.881379"/>
  </clipPath>
  <clipPath id="p4794f79f23">
   <rect x="57.6" y="151.58731" width="357.12" height="45.881379"/>
  </clipPath>
  <clipPath id="pda82553806">
   <rect x="57.6" y="206.644966" width="357.12" height="45.881379"/>
  </clipPath>
  <clipPath id="p4a5239c114">
   <rect x="57.6" y="261.702621" width="357.12" height="45.881379"/>
  </clipPath>
 </defs>
</svg>
