<?xml version="1.0" encoding="utf-8" standalone="no"?>
<!DOCTYPE svg PUBLIC "-//W3C//DTD SVG 1.1//EN"
  "http://www.w3.org/Graphics/SVG/1.1/DTD/svg11.dtd">
<svg xmlns:xlink="http://www.w3.org/1999/xlink" width="460.8pt" height="345.6pt" viewBox="0 0 460.8 345.6" xmlns="http://www.w3.org/2000/svg" version="1.1">
 <metadata>
  <rdf:RDF xmlns:dc="http://purl.org/dc/elements/1.1/" xmlns:cc="http://creativecommons.org/ns#" xmlns:rdf="http://www.w3.org/1999/02/22-rdf-syntax-ns#">
   <cc:Work>
    <dc:type rdf:resource="http://purl.org/dc/dcmitype/StillImage"/>
    <dc:date>2022-06-20T02:54:03.125030</dc:date>
    <dc:format>image/svg+xml</dc:format>
    <dc:creator>
     <cc:Agent>
      <dc:title>Matplotlib v3.5.2, https://matplotlib.org/</dc:title>
     </cc:Agent>
    </dc:creator>
   </cc:Work>
  </rdf:RDF>
 </metadata>
 <defs>
  <style type="text/css">*{stroke-linejoin: round; stroke-linecap: butt}</style>
 </defs>
 <g id="figure_1">
  <g id="patch_1">
   <path d="M 0 345.6 
L 460.8 345.6 
L 460.8 0 
L 0 0 
z
" style="fill: #ffffff"/>
  </g>
  <g id="axes_1">
   <g id="patch_2">
    <path d="M 57.6 119.740235 
L 414.72 119.740235 
L 414.72 41.472 
L 57.6 41.472 
z
" style="fill: #ffffff"/>
   </g>
   <g id="matplotlib.axis_1">
    <g id="xtick_1">
     <g id="line2d_1">
      <defs>
       <path id="m122661c03b" d="M 0 0 
L 0 3.5 
" style="stroke: #000000; stroke-width: 0.8"/>
      </defs>
      <g>
       <use xlink:href="#m122661c03b" x="73.832727" y="119.740235" style="stroke: #000000; stroke-width: 0.8"/>
      </g>
     </g>
    </g>
    <g id="xtick_2">
     <g id="line2d_2">
      <g>
       <use xlink:href="#m122661c03b" x="131.60044" y="119.740235" style="stroke: #000000; stroke-width: 0.8"/>
      </g>
     </g>
    </g>
    <g id="xtick_3">
     <g id="line2d_3">
      <g>
       <use xlink:href="#m122661c03b" x="189.368153" y="119.740235" style="stroke: #000000; stroke-width: 0.8"/>
      </g>
     </g>
    </g>
    <g id="xtick_4">
     <g id="line2d_4">
      <g>
       <use xlink:href="#m122661c03b" x="247.135865" y="119.740235" style="stroke: #000000; stroke-width: 0.8"/>
      </g>
     </g>
    </g>
    <g id="xtick_5">
     <g id="line2d_5">
      <g>
       <use xlink:href="#m122661c03b" x="304.903578" y="119.740235" style="stroke: #000000; stroke-width: 0.8"/>
      </g>
     </g>
    </g>
    <g id="xtick_6">
     <g id="line2d_6">
      <g>
       <use xlink:href="#m122661c03b" x="362.671291" y="119.740235" style="stroke: #000000; stroke-width: 0.8"/>
      </g>
     </g>
    </g>
   </g>
   <g id="matplotlib.axis_2">
    <g id="ytick_1">
     <g id="line2d_7">
      <defs>
       <path id="m7e9d17e8d3" d="M 0 0 
L -3.5 0 
" style="stroke: #000000; stroke-width: 0.8"/>
      </defs>
      <g>
       <use xlink:href="#m7e9d17e8d3" x="57.6" y="98.564432" style="stroke: #000000; stroke-width: 0.8"/>
      </g>
     </g>
     <g id="text_1">
      <!-- −1 -->
      <g transform="translate(35.857813 102.363651)scale(0.1 -0.1)">
       <defs>
        <path id="DejaVuSans-2212" d="M 678 2272 
L 4684 2272 
L 4684 1741 
L 678 1741 
L 678 2272 
z
" transform="scale(0.015625)"/>
        <path id="DejaVuSans-31" d="M 794 531 
L 1825 531 
L 1825 4091 
L 703 3866 
L 703 4441 
L 1819 4666 
L 2450 4666 
L 2450 531 
L 3481 531 
L 3481 0 
L 794 0 
L 794 531 
z
" transform="scale(0.015625)"/>
       </defs>
       <use xlink:href="#DejaVuSans-2212"/>
       <use xlink:href="#DejaVuSans-31" x="83.789062"/>
      </g>
     </g>
    </g>
    <g id="ytick_2">
     <g id="line2d_8">
      <g>
       <use xlink:href="#m7e9d17e8d3" x="57.6" y="71.790791" style="stroke: #000000; stroke-width: 0.8"/>
      </g>
     </g>
     <g id="text_2">
      <!-- 0 -->
      <g transform="translate(44.2375 75.59001)scale(0.1 -0.1)">
       <defs>
        <path id="DejaVuSans-30" d="M 2034 4250 
Q 1547 4250 1301 3770 
Q 1056 3291 1056 2328 
Q 1056 1369 1301 889 
Q 1547 409 2034 409 
Q 2525 409 2770 889 
Q 3016 1369 3016 2328 
Q 3016 3291 2770 3770 
Q 2525 4250 2034 4250 
z
M 2034 4750 
Q 2819 4750 3233 4129 
Q 3647 3509 3647 2328 
Q 3647 1150 3233 529 
Q 2819 -91 2034 -91 
Q 1250 -91 836 529 
Q 422 1150 422 2328 
Q 422 3509 836 4129 
Q 1250 4750 2034 4750 
z
" transform="scale(0.015625)"/>
       </defs>
       <use xlink:href="#DejaVuSans-30"/>
      </g>
     </g>
    </g>
    <g id="ytick_3">
     <g id="line2d_9">
      <g>
       <use xlink:href="#m7e9d17e8d3" x="57.6" y="45.01715" style="stroke: #000000; stroke-width: 0.8"/>
      </g>
     </g>
     <g id="text_3">
      <!-- 1 -->
      <g transform="translate(44.2375 48.816369)scale(0.1 -0.1)">
       <use xlink:href="#DejaVuSans-31"/>
      </g>
     </g>
    </g>
    <g id="text_4">
     <!-- flow rate (normalized) -->
     <g transform="translate(29.778125 135.923305)rotate(-90)scale(0.1 -0.1)">
      <defs>
       <path id="DejaVuSans-66" d="M 2375 4863 
L 2375 4384 
L 1825 4384 
Q 1516 4384 1395 4259 
Q 1275 4134 1275 3809 
L 1275 3500 
L 2222 3500 
L 2222 3053 
L 1275 3053 
L 1275 0 
L 697 0 
L 697 3053 
L 147 3053 
L 147 3500 
L 697 3500 
L 697 3744 
Q 697 4328 969 4595 
Q 1241 4863 1831 4863 
L 2375 4863 
z
" transform="scale(0.015625)"/>
       <path id="DejaVuSans-6c" d="M 603 4863 
L 1178 4863 
L 1178 0 
L 603 0 
L 603 4863 
z
" transform="scale(0.015625)"/>
       <path id="DejaVuSans-6f" d="M 1959 3097 
Q 1497 3097 1228 2736 
Q 959 2375 959 1747 
Q 959 1119 1226 758 
Q 1494 397 1959 397 
Q 2419 397 2687 759 
Q 2956 1122 2956 1747 
Q 2956 2369 2687 2733 
Q 2419 3097 1959 3097 
z
M 1959 3584 
Q 2709 3584 3137 3096 
Q 3566 2609 3566 1747 
Q 3566 888 3137 398 
Q 2709 -91 1959 -91 
Q 1206 -91 779 398 
Q 353 888 353 1747 
Q 353 2609 779 3096 
Q 1206 3584 1959 3584 
z
" transform="scale(0.015625)"/>
       <path id="DejaVuSans-77" d="M 269 3500 
L 844 3500 
L 1563 769 
L 2278 3500 
L 2956 3500 
L 3675 769 
L 4391 3500 
L 4966 3500 
L 4050 0 
L 3372 0 
L 2619 2869 
L 1863 0 
L 1184 0 
L 269 3500 
z
" transform="scale(0.015625)"/>
       <path id="DejaVuSans-20" transform="scale(0.015625)"/>
       <path id="DejaVuSans-72" d="M 2631 2963 
Q 2534 3019 2420 3045 
Q 2306 3072 2169 3072 
Q 1681 3072 1420 2755 
Q 1159 2438 1159 1844 
L 1159 0 
L 581 0 
L 581 3500 
L 1159 3500 
L 1159 2956 
Q 1341 3275 1631 3429 
Q 1922 3584 2338 3584 
Q 2397 3584 2469 3576 
Q 2541 3569 2628 3553 
L 2631 2963 
z
" transform="scale(0.015625)"/>
       <path id="DejaVuSans-61" d="M 2194 1759 
Q 1497 1759 1228 1600 
Q 959 1441 959 1056 
Q 959 750 1161 570 
Q 1363 391 1709 391 
Q 2188 391 2477 730 
Q 2766 1069 2766 1631 
L 2766 1759 
L 2194 1759 
z
M 3341 1997 
L 3341 0 
L 2766 0 
L 2766 531 
Q 2569 213 2275 61 
Q 1981 -91 1556 -91 
Q 1019 -91 701 211 
Q 384 513 384 1019 
Q 384 1609 779 1909 
Q 1175 2209 1959 2209 
L 2766 2209 
L 2766 2266 
Q 2766 2663 2505 2880 
Q 2244 3097 1772 3097 
Q 1472 3097 1187 3025 
Q 903 2953 641 2809 
L 641 3341 
Q 956 3463 1253 3523 
Q 1550 3584 1831 3584 
Q 2591 3584 2966 3190 
Q 3341 2797 3341 1997 
z
" transform="scale(0.015625)"/>
       <path id="DejaVuSans-74" d="M 1172 4494 
L 1172 3500 
L 2356 3500 
L 2356 3053 
L 1172 3053 
L 1172 1153 
Q 1172 725 1289 603 
Q 1406 481 1766 481 
L 2356 481 
L 2356 0 
L 1766 0 
Q 1100 0 847 248 
Q 594 497 594 1153 
L 594 3053 
L 172 3053 
L 172 3500 
L 594 3500 
L 594 4494 
L 1172 4494 
z
" transform="scale(0.015625)"/>
       <path id="DejaVuSans-65" d="M 3597 1894 
L 3597 1613 
L 953 1613 
Q 991 1019 1311 708 
Q 1631 397 2203 397 
Q 2534 397 2845 478 
Q 3156 559 3463 722 
L 3463 178 
Q 3153 47 2828 -22 
Q 2503 -91 2169 -91 
Q 1331 -91 842 396 
Q 353 884 353 1716 
Q 353 2575 817 3079 
Q 1281 3584 2069 3584 
Q 2775 3584 3186 3129 
Q 3597 2675 3597 1894 
z
M 3022 2063 
Q 3016 2534 2758 2815 
Q 2500 3097 2075 3097 
Q 1594 3097 1305 2825 
Q 1016 2553 972 2059 
L 3022 2063 
z
" transform="scale(0.015625)"/>
       <path id="DejaVuSans-28" d="M 1984 4856 
Q 1566 4138 1362 3434 
Q 1159 2731 1159 2009 
Q 1159 1288 1364 580 
Q 1569 -128 1984 -844 
L 1484 -844 
Q 1016 -109 783 600 
Q 550 1309 550 2009 
Q 550 2706 781 3412 
Q 1013 4119 1484 4856 
L 1984 4856 
z
" transform="scale(0.015625)"/>
       <path id="DejaVuSans-6e" d="M 3513 2113 
L 3513 0 
L 2938 0 
L 2938 2094 
Q 2938 2591 2744 2837 
Q 2550 3084 2163 3084 
Q 1697 3084 1428 2787 
Q 1159 2491 1159 1978 
L 1159 0 
L 581 0 
L 581 3500 
L 1159 3500 
L 1159 2956 
Q 1366 3272 1645 3428 
Q 1925 3584 2291 3584 
Q 2894 3584 3203 3211 
Q 3513 2838 3513 2113 
z
" transform="scale(0.015625)"/>
       <path id="DejaVuSans-6d" d="M 3328 2828 
Q 3544 3216 3844 3400 
Q 4144 3584 4550 3584 
Q 5097 3584 5394 3201 
Q 5691 2819 5691 2113 
L 5691 0 
L 5113 0 
L 5113 2094 
Q 5113 2597 4934 2840 
Q 4756 3084 4391 3084 
Q 3944 3084 3684 2787 
Q 3425 2491 3425 1978 
L 3425 0 
L 2847 0 
L 2847 2094 
Q 2847 2600 2669 2842 
Q 2491 3084 2119 3084 
Q 1678 3084 1418 2786 
Q 1159 2488 1159 1978 
L 1159 0 
L 581 0 
L 581 3500 
L 1159 3500 
L 1159 2956 
Q 1356 3278 1631 3431 
Q 1906 3584 2284 3584 
Q 2666 3584 2933 3390 
Q 3200 3197 3328 2828 
z
" transform="scale(0.015625)"/>
       <path id="DejaVuSans-69" d="M 603 3500 
L 1178 3500 
L 1178 0 
L 603 0 
L 603 3500 
z
M 603 4863 
L 1178 4863 
L 1178 4134 
L 603 4134 
L 603 4863 
z
" transform="scale(0.015625)"/>
       <path id="DejaVuSans-7a" d="M 353 3500 
L 3084 3500 
L 3084 2975 
L 922 459 
L 3084 459 
L 3084 0 
L 275 0 
L 275 525 
L 2438 3041 
L 353 3041 
L 353 3500 
z
" transform="scale(0.015625)"/>
       <path id="DejaVuSans-64" d="M 2906 2969 
L 2906 4863 
L 3481 4863 
L 3481 0 
L 2906 0 
L 2906 525 
Q 2725 213 2448 61 
Q 2172 -91 1784 -91 
Q 1150 -91 751 415 
Q 353 922 353 1747 
Q 353 2572 751 3078 
Q 1150 3584 1784 3584 
Q 2172 3584 2448 3432 
Q 2725 3281 2906 2969 
z
M 947 1747 
Q 947 1113 1208 752 
Q 1469 391 1925 391 
Q 2381 391 2643 752 
Q 2906 1113 2906 1747 
Q 2906 2381 2643 2742 
Q 2381 3103 1925 3103 
Q 1469 3103 1208 2742 
Q 947 2381 947 1747 
z
" transform="scale(0.015625)"/>
       <path id="DejaVuSans-29" d="M 513 4856 
L 1013 4856 
Q 1481 4119 1714 3412 
Q 1947 2706 1947 2009 
Q 1947 1309 1714 600 
Q 1481 -109 1013 -844 
L 513 -844 
Q 928 -128 1133 580 
Q 1338 1288 1338 2009 
Q 1338 2731 1133 3434 
Q 928 4138 513 4856 
z
" transform="scale(0.015625)"/>
      </defs>
      <use xlink:href="#DejaVuSans-66"/>
      <use xlink:href="#DejaVuSans-6c" x="35.205078"/>
      <use xlink:href="#DejaVuSans-6f" x="62.988281"/>
      <use xlink:href="#DejaVuSans-77" x="124.169922"/>
      <use xlink:href="#DejaVuSans-20" x="205.957031"/>
      <use xlink:href="#DejaVuSans-72" x="237.744141"/>
      <use xlink:href="#DejaVuSans-61" x="278.857422"/>
      <use xlink:href="#DejaVuSans-74" x="340.136719"/>
      <use xlink:href="#DejaVuSans-65" x="379.345703"/>
      <use xlink:href="#DejaVuSans-20" x="440.869141"/>
      <use xlink:href="#DejaVuSans-28" x="472.65625"/>
      <use xlink:href="#DejaVuSans-6e" x="511.669922"/>
      <use xlink:href="#DejaVuSans-6f" x="575.048828"/>
      <use xlink:href="#DejaVuSans-72" x="636.230469"/>
      <use xlink:href="#DejaVuSans-6d" x="675.59375"/>
      <use xlink:href="#DejaVuSans-61" x="773.005859"/>
      <use xlink:href="#DejaVuSans-6c" x="834.285156"/>
      <use xlink:href="#DejaVuSans-69" x="862.068359"/>
      <use xlink:href="#DejaVuSans-7a" x="889.851562"/>
      <use xlink:href="#DejaVuSans-65" x="942.341797"/>
      <use xlink:href="#DejaVuSans-64" x="1003.865234"/>
      <use xlink:href="#DejaVuSans-29" x="1067.341797"/>
     </g>
    </g>
   </g>
   <g id="line2d_10">
    <path d="M 73.832727 71.790791 
L 74.988082 70.209899 
L 76.143436 65.8718 
L 77.29879 63.141203 
L 79.609499 63.854208 
L 80.764853 64.75856 
L 81.920207 66.12691 
L 84.230916 68.289564 
L 85.38627 69.053052 
L 86.541624 69.635005 
L 88.852333 70.429422 
L 91.163041 70.905169 
L 94.629104 71.297416 
L 99.250521 71.541168 
L 107.338001 71.708341 
L 122.357606 71.771088 
L 123.51296 47.930367 
L 125.823669 47.707335 
L 135.066503 46.684212 
L 143.153983 46.060417 
L 152.396817 45.609809 
L 163.950359 45.29487 
L 170.882485 45.185681 
L 172.037839 69.559791 
L 174.348547 67.650052 
L 176.659256 65.997079 
L 178.969964 64.531981 
L 181.280673 63.312155 
L 183.591381 62.454737 
L 185.90209 62.01247 
L 188.212798 61.971336 
L 190.523507 62.293126 
L 192.834215 62.795173 
L 198.610987 64.558068 
L 204.387758 66.332958 
L 209.009175 67.537493 
L 213.630592 68.514562 
L 218.252009 69.284633 
L 224.02878 70.007791 
L 230.960906 70.610635 
L 239.048386 71.062685 
L 249.446574 71.400484 
L 264.466179 71.631931 
L 267.932242 71.661872 
L 269.087596 72.125643 
L 270.242951 75.131102 
L 272.553659 78.625193 
L 273.709013 82.428629 
L 274.864368 85.653449 
L 276.019722 87.400902 
L 277.175076 89.979211 
L 278.33043 90.879576 
L 280.641139 92.289969 
L 281.796493 93.763263 
L 282.951847 94.258862 
L 284.107202 94.053557 
L 285.262556 93.682636 
L 287.573264 92.571303 
L 289.883973 91.164383 
L 294.50539 87.851392 
L 299.126807 84.622478 
L 302.59287 82.481802 
L 306.058932 80.631468 
L 309.524995 79.065428 
L 312.991058 77.757307 
L 316.457121 76.673698 
L 321.078538 75.504494 
L 325.699955 74.626347 
L 330.321372 73.952586 
L 336.098143 73.331801 
L 343.030269 72.816976 
L 349.962394 72.474127 
L 351.117748 71.280224 
L 352.273103 70.699258 
L 353.428457 70.545872 
L 356.89452 70.617071 
L 374.224833 71.316713 
L 388.089084 71.579642 
L 398.487273 71.676751 
L 398.487273 71.676751 
" clip-path="url(#p570d66f34b)" style="fill: none; stroke: #1f77b4; stroke-width: 1.5; stroke-linecap: square"/>
   </g>
   <g id="line2d_11">
    <path d="M 73.832727 71.790791 
L 74.988082 70.000896 
L 76.143436 63.513568 
L 77.29879 59.439357 
L 78.454144 56.143425 
L 79.609499 57.392226 
L 80.764853 59.338823 
L 83.075561 62.541844 
L 84.230916 63.944555 
L 85.38627 65.082303 
L 86.541624 66.025492 
L 88.852333 67.494569 
L 91.163041 68.566238 
L 93.47375 69.361061 
L 95.784458 69.964324 
L 99.250521 70.586808 
L 103.871938 71.11675 
L 108.493355 71.410893 
L 117.736189 71.649354 
L 122.357606 71.692844 
L 123.51296 45.317985 
L 147.7754 45.089056 
L 170.882485 45.029647 
L 172.037839 71.365032 
L 177.81461 70.575641 
L 182.436027 70.135137 
L 185.90209 69.987827 
L 190.523507 70.042523 
L 196.300278 70.323539 
L 211.319884 71.103621 
L 222.873426 71.439525 
L 239.048386 71.65674 
L 266.776888 71.765308 
L 267.932242 71.767027 
L 269.087596 72.529754 
L 270.242951 78.503951 
L 271.398305 82.207492 
L 273.709013 98.192067 
L 274.864368 100.692935 
L 276.019722 105.879539 
L 277.175076 109.696533 
L 278.33043 111.461194 
L 279.485785 112.830153 
L 280.641139 113.942219 
L 281.796493 115.647388 
L 282.951847 116.182588 
L 284.107202 115.799401 
L 285.262556 115.085979 
L 286.41791 114.100643 
L 287.573264 112.893091 
L 288.728619 111.397989 
L 289.883973 107.766615 
L 293.350036 103.339394 
L 297.971453 97.139774 
L 301.437515 92.944812 
L 303.748224 90.446141 
L 306.058932 88.195461 
L 308.369641 86.185477 
L 310.680349 84.401702 
L 312.991058 82.82583 
L 315.301766 81.43805 
L 318.767829 79.664154 
L 319.923183 81.496118 
L 323.389246 79.699112 
L 326.855309 78.22754 
L 330.321372 77.029477 
L 333.787434 76.056564 
L 338.408852 75.035571 
L 343.030269 74.258236 
L 348.80704 73.542352 
L 349.962394 73.42663 
L 351.117748 72.189616 
L 352.273103 71.543536 
L 353.428457 71.331398 
L 355.739165 71.24947 
L 364.981999 71.384998 
L 385.778376 71.657992 
L 398.487273 71.726944 
L 398.487273 71.726944 
" clip-path="url(#p570d66f34b)" style="fill: none; stroke: #ff7f0e; stroke-width: 1.5; stroke-linecap: square"/>
   </g>
   <g id="line2d_12">
    <path d="M 73.832727 71.790791 
L 74.988082 71.105055 
L 76.143436 70.89949 
L 78.454144 70.900845 
L 84.230916 71.198186 
L 87.696978 71.574033 
L 92.318395 71.720219 
L 106.182646 71.788854 
L 122.357606 71.795853 
L 123.51296 49.787297 
L 124.668314 50.5912 
L 137.377211 48.058606 
L 143.153983 47.224329 
L 148.930754 46.598165 
L 155.862879 46.061619 
L 165.105713 45.600519 
L 170.882485 45.413214 
L 172.037839 68.045212 
L 174.348547 64.746231 
L 176.659256 61.9066 
L 178.969964 59.388492 
L 181.280673 57.284299 
L 182.436027 56.452054 
L 183.591381 55.797276 
L 184.746736 55.31973 
L 185.90209 55.022519 
L 187.057444 54.898471 
L 188.212798 54.939962 
L 189.368153 55.147054 
L 191.678861 55.83754 
L 193.98957 56.922011 
L 196.300278 58.09018 
L 203.232404 61.848218 
L 206.698467 63.509939 
L 210.164529 64.952017 
L 213.630592 66.174758 
L 217.096655 67.196925 
L 221.718072 68.289718 
L 226.339489 69.130262 
L 232.11626 69.906163 
L 237.893031 70.456404 
L 244.825157 70.910618 
L 254.067991 71.285249 
L 266.776888 71.555043 
L 267.932242 71.570981 
L 269.087596 71.776825 
L 270.242951 72.16129 
L 277.175076 73.219809 
L 280.641139 73.544124 
L 285.262556 73.670855 
L 289.883973 73.554355 
L 302.59287 72.844605 
L 312.991058 72.397377 
L 325.699955 72.085482 
L 344.185623 71.89326 
L 378.84625 71.80361 
L 398.487273 71.794296 
L 398.487273 71.794296 
" clip-path="url(#p570d66f34b)" style="fill: none; stroke: #2ca02c; stroke-width: 1.5; stroke-linecap: square"/>
   </g>
   <g id="patch_3">
    <path d="M 57.6 119.740235 
L 57.6 41.472 
" style="fill: none; stroke: #000000; stroke-width: 0.8; stroke-linejoin: miter; stroke-linecap: square"/>
   </g>
   <g id="patch_4">
    <path d="M 414.72 119.740235 
L 414.72 41.472 
" style="fill: none; stroke: #000000; stroke-width: 0.8; stroke-linejoin: miter; stroke-linecap: square"/>
   </g>
   <g id="patch_5">
    <path d="M 57.6 119.740235 
L 414.72 119.740235 
" style="fill: none; stroke: #000000; stroke-width: 0.8; stroke-linejoin: miter; stroke-linecap: square"/>
   </g>
   <g id="patch_6">
    <path d="M 57.6 41.472 
L 414.72 41.472 
" style="fill: none; stroke: #000000; stroke-width: 0.8; stroke-linejoin: miter; stroke-linecap: square"/>
   </g>
   <g id="text_5">
    <!-- velocity vs time (container 1)   -->
    <g transform="translate(144.106875 35.472)scale(0.12 -0.12)">
     <defs>
      <path id="DejaVuSans-76" d="M 191 3500 
L 800 3500 
L 1894 563 
L 2988 3500 
L 3597 3500 
L 2284 0 
L 1503 0 
L 191 3500 
z
" transform="scale(0.015625)"/>
      <path id="DejaVuSans-63" d="M 3122 3366 
L 3122 2828 
Q 2878 2963 2633 3030 
Q 2388 3097 2138 3097 
Q 1578 3097 1268 2742 
Q 959 2388 959 1747 
Q 959 1106 1268 751 
Q 1578 397 2138 397 
Q 2388 397 2633 464 
Q 2878 531 3122 666 
L 3122 134 
Q 2881 22 2623 -34 
Q 2366 -91 2075 -91 
Q 1284 -91 818 406 
Q 353 903 353 1747 
Q 353 2603 823 3093 
Q 1294 3584 2113 3584 
Q 2378 3584 2631 3529 
Q 2884 3475 3122 3366 
z
" transform="scale(0.015625)"/>
      <path id="DejaVuSans-79" d="M 2059 -325 
Q 1816 -950 1584 -1140 
Q 1353 -1331 966 -1331 
L 506 -1331 
L 506 -850 
L 844 -850 
Q 1081 -850 1212 -737 
Q 1344 -625 1503 -206 
L 1606 56 
L 191 3500 
L 800 3500 
L 1894 763 
L 2988 3500 
L 3597 3500 
L 2059 -325 
z
" transform="scale(0.015625)"/>
      <path id="DejaVuSans-73" d="M 2834 3397 
L 2834 2853 
Q 2591 2978 2328 3040 
Q 2066 3103 1784 3103 
Q 1356 3103 1142 2972 
Q 928 2841 928 2578 
Q 928 2378 1081 2264 
Q 1234 2150 1697 2047 
L 1894 2003 
Q 2506 1872 2764 1633 
Q 3022 1394 3022 966 
Q 3022 478 2636 193 
Q 2250 -91 1575 -91 
Q 1294 -91 989 -36 
Q 684 19 347 128 
L 347 722 
Q 666 556 975 473 
Q 1284 391 1588 391 
Q 1994 391 2212 530 
Q 2431 669 2431 922 
Q 2431 1156 2273 1281 
Q 2116 1406 1581 1522 
L 1381 1569 
Q 847 1681 609 1914 
Q 372 2147 372 2553 
Q 372 3047 722 3315 
Q 1072 3584 1716 3584 
Q 2034 3584 2315 3537 
Q 2597 3491 2834 3397 
z
" transform="scale(0.015625)"/>
     </defs>
     <use xlink:href="#DejaVuSans-76"/>
     <use xlink:href="#DejaVuSans-65" x="59.179688"/>
     <use xlink:href="#DejaVuSans-6c" x="120.703125"/>
     <use xlink:href="#DejaVuSans-6f" x="148.486328"/>
     <use xlink:href="#DejaVuSans-63" x="209.667969"/>
     <use xlink:href="#DejaVuSans-69" x="264.648438"/>
     <use xlink:href="#DejaVuSans-74" x="292.431641"/>
     <use xlink:href="#DejaVuSans-79" x="331.640625"/>
     <use xlink:href="#DejaVuSans-20" x="390.820312"/>
     <use xlink:href="#DejaVuSans-76" x="422.607422"/>
     <use xlink:href="#DejaVuSans-73" x="481.787109"/>
     <use xlink:href="#DejaVuSans-20" x="533.886719"/>
     <use xlink:href="#DejaVuSans-74" x="565.673828"/>
     <use xlink:href="#DejaVuSans-69" x="604.882812"/>
     <use xlink:href="#DejaVuSans-6d" x="632.666016"/>
     <use xlink:href="#DejaVuSans-65" x="730.078125"/>
     <use xlink:href="#DejaVuSans-20" x="791.601562"/>
     <use xlink:href="#DejaVuSans-28" x="823.388672"/>
     <use xlink:href="#DejaVuSans-63" x="862.402344"/>
     <use xlink:href="#DejaVuSans-6f" x="917.382812"/>
     <use xlink:href="#DejaVuSans-6e" x="978.564453"/>
     <use xlink:href="#DejaVuSans-74" x="1041.943359"/>
     <use xlink:href="#DejaVuSans-61" x="1081.152344"/>
     <use xlink:href="#DejaVuSans-69" x="1142.431641"/>
     <use xlink:href="#DejaVuSans-6e" x="1170.214844"/>
     <use xlink:href="#DejaVuSans-65" x="1233.59375"/>
     <use xlink:href="#DejaVuSans-72" x="1295.117188"/>
     <use xlink:href="#DejaVuSans-20" x="1336.230469"/>
     <use xlink:href="#DejaVuSans-31" x="1368.017578"/>
     <use xlink:href="#DejaVuSans-29" x="1431.640625"/>
     <use xlink:href="#DejaVuSans-20" x="1470.654297"/>
     <use xlink:href="#DejaVuSans-20" x="1502.441406"/>
    </g>
   </g>
   <g id="legend_1">
    <g id="patch_7">
     <path d="M 64.6 114.740235 
L 139.240625 114.740235 
Q 141.240625 114.740235 141.240625 112.740235 
L 141.240625 69.70586 
Q 141.240625 67.70586 139.240625 67.70586 
L 64.6 67.70586 
Q 62.6 67.70586 62.6 69.70586 
L 62.6 112.740235 
Q 62.6 114.740235 64.6 114.740235 
z
" style="fill: #ffffff; opacity: 0.8; stroke: #cccccc; stroke-linejoin: miter"/>
    </g>
    <g id="line2d_13">
     <path d="M 66.6 75.804298 
L 76.6 75.804298 
L 86.6 75.804298 
" style="fill: none; stroke: #1f77b4; stroke-width: 1.5; stroke-linecap: square"/>
    </g>
    <g id="text_6">
     <!-- mid flow -->
     <g transform="translate(94.6 79.304298)scale(0.1 -0.1)">
      <use xlink:href="#DejaVuSans-6d"/>
      <use xlink:href="#DejaVuSans-69" x="97.412109"/>
      <use xlink:href="#DejaVuSans-64" x="125.195312"/>
      <use xlink:href="#DejaVuSans-20" x="188.671875"/>
      <use xlink:href="#DejaVuSans-66" x="220.458984"/>
      <use xlink:href="#DejaVuSans-6c" x="255.664062"/>
      <use xlink:href="#DejaVuSans-6f" x="283.447266"/>
      <use xlink:href="#DejaVuSans-77" x="344.628906"/>
     </g>
    </g>
    <g id="line2d_14">
     <path d="M 66.6 90.482423 
L 76.6 90.482423 
L 86.6 90.482423 
" style="fill: none; stroke: #ff7f0e; stroke-width: 1.5; stroke-linecap: square"/>
    </g>
    <g id="text_7">
     <!-- V1 flow -->
     <g transform="translate(94.6 93.982423)scale(0.1 -0.1)">
      <defs>
       <path id="DejaVuSans-56" d="M 1831 0 
L 50 4666 
L 709 4666 
L 2188 738 
L 3669 4666 
L 4325 4666 
L 2547 0 
L 1831 0 
z
" transform="scale(0.015625)"/>
      </defs>
      <use xlink:href="#DejaVuSans-56"/>
      <use xlink:href="#DejaVuSans-31" x="68.408203"/>
      <use xlink:href="#DejaVuSans-20" x="132.03125"/>
      <use xlink:href="#DejaVuSans-66" x="163.818359"/>
      <use xlink:href="#DejaVuSans-6c" x="199.023438"/>
      <use xlink:href="#DejaVuSans-6f" x="226.806641"/>
      <use xlink:href="#DejaVuSans-77" x="287.988281"/>
     </g>
    </g>
    <g id="line2d_15">
     <path d="M 66.6 105.160548 
L 76.6 105.160548 
L 86.6 105.160548 
" style="fill: none; stroke: #2ca02c; stroke-width: 1.5; stroke-linecap: square"/>
    </g>
    <g id="text_8">
     <!-- VN flow -->
     <g transform="translate(94.6 108.660548)scale(0.1 -0.1)">
      <defs>
       <path id="DejaVuSans-4e" d="M 628 4666 
L 1478 4666 
L 3547 763 
L 3547 4666 
L 4159 4666 
L 4159 0 
L 3309 0 
L 1241 3903 
L 1241 0 
L 628 0 
L 628 4666 
z
" transform="scale(0.015625)"/>
      </defs>
      <use xlink:href="#DejaVuSans-56"/>
      <use xlink:href="#DejaVuSans-4e" x="68.408203"/>
      <use xlink:href="#DejaVuSans-20" x="143.212891"/>
      <use xlink:href="#DejaVuSans-66" x="175"/>
      <use xlink:href="#DejaVuSans-6c" x="210.205078"/>
      <use xlink:href="#DejaVuSans-6f" x="237.988281"/>
      <use xlink:href="#DejaVuSans-77" x="299.169922"/>
     </g>
    </g>
   </g>
  </g>
  <g id="axes_2">
   <g id="patch_8">
    <path d="M 57.6 213.662118 
L 414.72 213.662118 
L 414.72 135.393882 
L 57.6 135.393882 
z
" style="fill: #ffffff"/>
   </g>
   <g id="matplotlib.axis_3">
    <g id="xtick_7">
     <g id="line2d_16">
      <g>
       <use xlink:href="#m122661c03b" x="73.832727" y="213.662118" style="stroke: #000000; stroke-width: 0.8"/>
      </g>
     </g>
    </g>
    <g id="xtick_8">
     <g id="line2d_17">
      <g>
       <use xlink:href="#m122661c03b" x="131.60044" y="213.662118" style="stroke: #000000; stroke-width: 0.8"/>
      </g>
     </g>
    </g>
    <g id="xtick_9">
     <g id="line2d_18">
      <g>
       <use xlink:href="#m122661c03b" x="189.368153" y="213.662118" style="stroke: #000000; stroke-width: 0.8"/>
      </g>
     </g>
    </g>
    <g id="xtick_10">
     <g id="line2d_19">
      <g>
       <use xlink:href="#m122661c03b" x="247.135865" y="213.662118" style="stroke: #000000; stroke-width: 0.8"/>
      </g>
     </g>
    </g>
    <g id="xtick_11">
     <g id="line2d_20">
      <g>
       <use xlink:href="#m122661c03b" x="304.903578" y="213.662118" style="stroke: #000000; stroke-width: 0.8"/>
      </g>
     </g>
    </g>
    <g id="xtick_12">
     <g id="line2d_21">
      <g>
       <use xlink:href="#m122661c03b" x="362.671291" y="213.662118" style="stroke: #000000; stroke-width: 0.8"/>
      </g>
     </g>
    </g>
   </g>
   <g id="matplotlib.axis_4">
    <g id="ytick_4">
     <g id="line2d_22">
      <g>
       <use xlink:href="#m7e9d17e8d3" x="57.6" y="177.391283" style="stroke: #000000; stroke-width: 0.8"/>
      </g>
     </g>
     <g id="text_9">
      <!-- 0.5 -->
      <g transform="translate(34.696875 181.190501)scale(0.1 -0.1)">
       <defs>
        <path id="DejaVuSans-2e" d="M 684 794 
L 1344 794 
L 1344 0 
L 684 0 
L 684 794 
z
" transform="scale(0.015625)"/>
        <path id="DejaVuSans-35" d="M 691 4666 
L 3169 4666 
L 3169 4134 
L 1269 4134 
L 1269 2991 
Q 1406 3038 1543 3061 
Q 1681 3084 1819 3084 
Q 2600 3084 3056 2656 
Q 3513 2228 3513 1497 
Q 3513 744 3044 326 
Q 2575 -91 1722 -91 
Q 1428 -91 1123 -41 
Q 819 9 494 109 
L 494 744 
Q 775 591 1075 516 
Q 1375 441 1709 441 
Q 2250 441 2565 725 
Q 2881 1009 2881 1497 
Q 2881 1984 2565 2268 
Q 2250 2553 1709 2553 
Q 1456 2553 1204 2497 
Q 953 2441 691 2322 
L 691 4666 
z
" transform="scale(0.015625)"/>
       </defs>
       <use xlink:href="#DejaVuSans-30"/>
       <use xlink:href="#DejaVuSans-2e" x="63.623047"/>
       <use xlink:href="#DejaVuSans-35" x="95.410156"/>
      </g>
     </g>
    </g>
    <g id="ytick_5">
     <g id="line2d_23">
      <g>
       <use xlink:href="#m7e9d17e8d3" x="57.6" y="139.237665" style="stroke: #000000; stroke-width: 0.8"/>
      </g>
     </g>
     <g id="text_10">
      <!-- 1.0 -->
      <g transform="translate(34.696875 143.036884)scale(0.1 -0.1)">
       <use xlink:href="#DejaVuSans-31"/>
       <use xlink:href="#DejaVuSans-2e" x="63.623047"/>
       <use xlink:href="#DejaVuSans-30" x="95.410156"/>
      </g>
     </g>
    </g>
   </g>
   <g id="line2d_24">
    <path d="M 73.832727 193.742833 
L 74.988082 198.570773 
L 76.143436 188.922897 
L 77.29879 180.843693 
L 78.454144 174.078429 
L 79.609499 168.412604 
L 80.764853 163.667776 
L 81.920207 159.694619 
L 83.075561 156.367626 
L 84.230916 153.581693 
L 85.38627 151.248874 
L 86.541624 149.295453 
L 87.696978 147.659734 
L 88.852333 146.288357 
L 90.007687 145.141354 
L 91.163041 144.182864 
L 93.47375 142.705043 
L 95.784458 141.66858 
L 98.095167 140.942348 
L 100.405875 140.433397 
L 103.871938 139.938568 
L 108.493355 139.582827 
L 115.42548 139.355692 
L 122.357606 139.278698 
L 123.51296 138.977594 
L 170.882485 138.951529 
L 172.037839 143.782341 
L 173.193193 151.896406 
L 174.348547 158.68249 
L 175.503902 164.374074 
L 176.659256 169.139035 
L 177.81461 173.118695 
L 178.969964 176.454966 
L 180.125319 179.248762 
L 181.280673 181.586986 
L 182.436027 183.545466 
L 183.591381 185.185345 
L 184.746736 186.556579 
L 185.90209 187.709336 
L 187.057444 188.682608 
L 188.212798 189.497528 
L 190.523507 190.724393 
L 192.834215 191.607416 
L 195.144924 192.224784 
L 198.610987 192.828208 
L 202.077049 193.186926 
L 206.698467 193.451426 
L 214.785946 193.642067 
L 230.960906 193.725046 
L 269.087596 193.82007 
L 270.242951 196.365904 
L 271.398305 198.597208 
L 272.553659 200.463771 
L 273.709013 202.026681 
L 274.864368 203.336668 
L 276.019722 204.432745 
L 277.175076 205.3507 
L 279.485785 206.763776 
L 281.796493 207.754444 
L 284.107202 208.449656 
L 286.41791 208.9376 
L 289.883973 209.411714 
L 294.50539 209.755123 
L 301.437515 209.974026 
L 314.146412 210.075007 
L 367.292708 210.094416 
L 398.487273 210.094366 
L 398.487273 210.094366 
" clip-path="url(#p0e347f35ba)" style="fill: none; stroke: #1f77b4; stroke-width: 1.5; stroke-linecap: square"/>
   </g>
   <g id="line2d_25">
    <path d="M 73.832727 193.742833 
L 74.988082 198.579651 
L 76.143436 188.963018 
L 77.29879 180.904632 
L 78.454144 174.150759 
L 79.609499 168.47953 
L 80.764853 163.724323 
L 81.920207 159.742515 
L 83.075561 156.407971 
L 84.230916 153.615069 
L 85.38627 151.276726 
L 86.541624 149.318827 
L 87.696978 147.679433 
L 88.852333 146.304997 
L 90.007687 145.155444 
L 91.163041 144.194837 
L 93.47375 142.713737 
L 95.784458 141.674909 
L 98.095167 140.947042 
L 100.405875 140.436872 
L 103.871938 139.940761 
L 108.493355 139.584058 
L 115.42548 139.356289 
L 137.377211 139.109482 
L 170.882485 139.098875 
L 172.037839 143.788625 
L 173.193193 151.90538 
L 174.348547 158.694043 
L 175.503902 164.387997 
L 176.659256 169.155166 
L 177.81461 173.136913 
L 178.969964 176.475154 
L 180.125319 179.270729 
L 181.280673 181.610544 
L 182.436027 183.570349 
L 183.591381 185.211265 
L 184.746736 186.58325 
L 185.90209 187.736467 
L 187.057444 188.709922 
L 188.212798 189.524761 
L 190.523507 190.750726 
L 192.834215 191.632351 
L 195.144924 192.24788 
L 198.610987 192.848252 
L 202.077049 193.203943 
L 206.698467 193.464804 
L 214.785946 193.650564 
L 230.960906 193.728319 
L 269.087596 193.816866 
L 270.242951 196.336129 
L 271.398305 198.551447 
L 272.553659 200.388609 
L 273.709013 201.915545 
L 274.864368 203.207623 
L 276.019722 204.282777 
L 278.33043 205.943961 
L 280.641139 207.116205 
L 282.951847 207.934331 
L 285.262556 208.521942 
L 288.728619 209.103473 
L 292.194681 209.464541 
L 297.971453 209.778702 
L 306.058932 209.959405 
L 322.233892 210.052499 
L 377.690896 210.095975 
L 398.487273 210.094839 
L 398.487273 210.094839 
" clip-path="url(#p0e347f35ba)" style="fill: none; stroke: #ff7f0e; stroke-width: 1.5; stroke-linecap: square"/>
   </g>
   <g id="line2d_26">
    <path d="M 73.832727 193.742833 
L 74.988082 198.58927 
L 76.143436 188.983616 
L 77.29879 180.928142 
L 78.454144 174.173429 
L 79.609499 168.501106 
L 80.764853 163.74437 
L 81.920207 159.759744 
L 83.075561 156.421888 
L 84.230916 153.625542 
L 85.38627 151.284606 
L 86.541624 149.324805 
L 87.696978 147.684026 
L 88.852333 146.308566 
L 90.007687 145.158255 
L 91.163041 144.19709 
L 93.47375 142.715235 
L 95.784458 141.675928 
L 98.095167 140.947764 
L 100.405875 140.43738 
L 103.871938 139.941053 
L 108.493355 139.584198 
L 115.42548 139.356334 
L 129.289731 139.231617 
L 170.882485 139.230398 
L 172.037839 143.803469 
L 173.193193 151.926835 
L 174.348547 158.721815 
L 175.503902 164.421547 
L 176.659256 169.194091 
L 177.81461 173.180922 
L 178.969964 176.523966 
L 180.125319 179.32389 
L 181.280673 181.667606 
L 182.436027 183.630669 
L 183.591381 185.274144 
L 184.746736 186.647992 
L 185.90209 187.802364 
L 187.057444 188.776296 
L 188.212798 189.590963 
L 190.523507 190.814773 
L 192.834215 191.693022 
L 195.144924 192.304086 
L 198.610987 192.897033 
L 202.077049 193.245353 
L 207.853821 193.53704 
L 217.096655 193.692436 
L 239.048386 193.74077 
L 269.087596 193.816072 
L 270.242951 196.326923 
L 271.398305 198.537452 
L 272.553659 200.369855 
L 273.709013 201.890953 
L 274.864368 203.17552 
L 276.019722 204.245569 
L 278.33043 205.896535 
L 280.641139 207.06391 
L 282.951847 207.874109 
L 285.262556 208.46289 
L 288.728619 209.048759 
L 292.194681 209.416057 
L 297.971453 209.741289 
L 306.058932 209.934945 
L 322.233892 210.04283 
L 371.914125 210.098885 
L 398.487273 210.095317 
L 398.487273 210.095317 
" clip-path="url(#p0e347f35ba)" style="fill: none; stroke: #2ca02c; stroke-width: 1.5; stroke-linecap: square"/>
   </g>
   <g id="patch_9">
    <path d="M 57.6 213.662118 
L 57.6 135.393882 
" style="fill: none; stroke: #000000; stroke-width: 0.8; stroke-linejoin: miter; stroke-linecap: square"/>
   </g>
   <g id="patch_10">
    <path d="M 414.72 213.662118 
L 414.72 135.393882 
" style="fill: none; stroke: #000000; stroke-width: 0.8; stroke-linejoin: miter; stroke-linecap: square"/>
   </g>
   <g id="patch_11">
    <path d="M 57.6 213.662118 
L 414.72 213.662118 
" style="fill: none; stroke: #000000; stroke-width: 0.8; stroke-linejoin: miter; stroke-linecap: square"/>
   </g>
   <g id="patch_12">
    <path d="M 57.6 135.393882 
L 414.72 135.393882 
" style="fill: none; stroke: #000000; stroke-width: 0.8; stroke-linejoin: miter; stroke-linecap: square"/>
   </g>
   <g id="text_11">
    <!-- Pressure -->
    <g transform="translate(210.546562 129.393882)scale(0.12 -0.12)">
     <defs>
      <path id="DejaVuSans-50" d="M 1259 4147 
L 1259 2394 
L 2053 2394 
Q 2494 2394 2734 2622 
Q 2975 2850 2975 3272 
Q 2975 3691 2734 3919 
Q 2494 4147 2053 4147 
L 1259 4147 
z
M 628 4666 
L 2053 4666 
Q 2838 4666 3239 4311 
Q 3641 3956 3641 3272 
Q 3641 2581 3239 2228 
Q 2838 1875 2053 1875 
L 1259 1875 
L 1259 0 
L 628 0 
L 628 4666 
z
" transform="scale(0.015625)"/>
      <path id="DejaVuSans-75" d="M 544 1381 
L 544 3500 
L 1119 3500 
L 1119 1403 
Q 1119 906 1312 657 
Q 1506 409 1894 409 
Q 2359 409 2629 706 
Q 2900 1003 2900 1516 
L 2900 3500 
L 3475 3500 
L 3475 0 
L 2900 0 
L 2900 538 
Q 2691 219 2414 64 
Q 2138 -91 1772 -91 
Q 1169 -91 856 284 
Q 544 659 544 1381 
z
M 1991 3584 
L 1991 3584 
z
" transform="scale(0.015625)"/>
     </defs>
     <use xlink:href="#DejaVuSans-50"/>
     <use xlink:href="#DejaVuSans-72" x="58.552734"/>
     <use xlink:href="#DejaVuSans-65" x="97.416016"/>
     <use xlink:href="#DejaVuSans-73" x="158.939453"/>
     <use xlink:href="#DejaVuSans-73" x="211.039062"/>
     <use xlink:href="#DejaVuSans-75" x="263.138672"/>
     <use xlink:href="#DejaVuSans-72" x="326.517578"/>
     <use xlink:href="#DejaVuSans-65" x="365.380859"/>
    </g>
   </g>
   <g id="legend_2">
    <g id="patch_13">
     <path d="M 350.823125 187.428257 
L 407.72 187.428257 
Q 409.72 187.428257 409.72 185.428257 
L 409.72 142.393882 
Q 409.72 140.393882 407.72 140.393882 
L 350.823125 140.393882 
Q 348.823125 140.393882 348.823125 142.393882 
L 348.823125 185.428257 
Q 348.823125 187.428257 350.823125 187.428257 
z
" style="fill: #ffffff; opacity: 0.8; stroke: #cccccc; stroke-linejoin: miter"/>
    </g>
    <g id="line2d_27">
     <path d="M 352.823125 148.49232 
L 362.823125 148.49232 
L 372.823125 148.49232 
" style="fill: none; stroke: #1f77b4; stroke-width: 1.5; stroke-linecap: square"/>
    </g>
    <g id="text_12">
     <!-- P1 -->
     <g transform="translate(380.823125 151.99232)scale(0.1 -0.1)">
      <use xlink:href="#DejaVuSans-50"/>
      <use xlink:href="#DejaVuSans-31" x="60.302734"/>
     </g>
    </g>
    <g id="line2d_28">
     <path d="M 352.823125 163.170445 
L 362.823125 163.170445 
L 372.823125 163.170445 
" style="fill: none; stroke: #ff7f0e; stroke-width: 1.5; stroke-linecap: square"/>
    </g>
    <g id="text_13">
     <!-- Pmid -->
     <g transform="translate(380.823125 166.670445)scale(0.1 -0.1)">
      <use xlink:href="#DejaVuSans-50"/>
      <use xlink:href="#DejaVuSans-6d" x="60.302734"/>
      <use xlink:href="#DejaVuSans-69" x="157.714844"/>
      <use xlink:href="#DejaVuSans-64" x="185.498047"/>
     </g>
    </g>
    <g id="line2d_29">
     <path d="M 352.823125 177.84857 
L 362.823125 177.84857 
L 372.823125 177.84857 
" style="fill: none; stroke: #2ca02c; stroke-width: 1.5; stroke-linecap: square"/>
    </g>
    <g id="text_14">
     <!-- PN -->
     <g transform="translate(380.823125 181.34857)scale(0.1 -0.1)">
      <use xlink:href="#DejaVuSans-50"/>
      <use xlink:href="#DejaVuSans-4e" x="60.302734"/>
     </g>
    </g>
   </g>
  </g>
  <g id="axes_3">
   <g id="patch_14">
    <path d="M 57.6 307.584 
L 414.72 307.584 
L 414.72 229.315765 
L 57.6 229.315765 
z
" style="fill: #ffffff"/>
   </g>
   <g id="matplotlib.axis_5">
    <g id="xtick_13">
     <g id="line2d_30">
      <g>
       <use xlink:href="#m122661c03b" x="73.832727" y="307.584" style="stroke: #000000; stroke-width: 0.8"/>
      </g>
     </g>
     <g id="text_15">
      <!-- 0 -->
      <g transform="translate(70.651477 322.182437)scale(0.1 -0.1)">
       <use xlink:href="#DejaVuSans-30"/>
      </g>
     </g>
    </g>
    <g id="xtick_14">
     <g id="line2d_31">
      <g>
       <use xlink:href="#m122661c03b" x="131.60044" y="307.584" style="stroke: #000000; stroke-width: 0.8"/>
      </g>
     </g>
     <g id="text_16">
      <!-- 50 -->
      <g transform="translate(125.23794 322.182437)scale(0.1 -0.1)">
       <use xlink:href="#DejaVuSans-35"/>
       <use xlink:href="#DejaVuSans-30" x="63.623047"/>
      </g>
     </g>
    </g>
    <g id="xtick_15">
     <g id="line2d_32">
      <g>
       <use xlink:href="#m122661c03b" x="189.368153" y="307.584" style="stroke: #000000; stroke-width: 0.8"/>
      </g>
     </g>
     <g id="text_17">
      <!-- 100 -->
      <g transform="translate(179.824403 322.182437)scale(0.1 -0.1)">
       <use xlink:href="#DejaVuSans-31"/>
       <use xlink:href="#DejaVuSans-30" x="63.623047"/>
       <use xlink:href="#DejaVuSans-30" x="127.246094"/>
      </g>
     </g>
    </g>
    <g id="xtick_16">
     <g id="line2d_33">
      <g>
       <use xlink:href="#m122661c03b" x="247.135865" y="307.584" style="stroke: #000000; stroke-width: 0.8"/>
      </g>
     </g>
     <g id="text_18">
      <!-- 150 -->
      <g transform="translate(237.592115 322.182437)scale(0.1 -0.1)">
       <use xlink:href="#DejaVuSans-31"/>
       <use xlink:href="#DejaVuSans-35" x="63.623047"/>
       <use xlink:href="#DejaVuSans-30" x="127.246094"/>
      </g>
     </g>
    </g>
    <g id="xtick_17">
     <g id="line2d_34">
      <g>
       <use xlink:href="#m122661c03b" x="304.903578" y="307.584" style="stroke: #000000; stroke-width: 0.8"/>
      </g>
     </g>
     <g id="text_19">
      <!-- 200 -->
      <g transform="translate(295.359828 322.182437)scale(0.1 -0.1)">
       <defs>
        <path id="DejaVuSans-32" d="M 1228 531 
L 3431 531 
L 3431 0 
L 469 0 
L 469 531 
Q 828 903 1448 1529 
Q 2069 2156 2228 2338 
Q 2531 2678 2651 2914 
Q 2772 3150 2772 3378 
Q 2772 3750 2511 3984 
Q 2250 4219 1831 4219 
Q 1534 4219 1204 4116 
Q 875 4013 500 3803 
L 500 4441 
Q 881 4594 1212 4672 
Q 1544 4750 1819 4750 
Q 2544 4750 2975 4387 
Q 3406 4025 3406 3419 
Q 3406 3131 3298 2873 
Q 3191 2616 2906 2266 
Q 2828 2175 2409 1742 
Q 1991 1309 1228 531 
z
" transform="scale(0.015625)"/>
       </defs>
       <use xlink:href="#DejaVuSans-32"/>
       <use xlink:href="#DejaVuSans-30" x="63.623047"/>
       <use xlink:href="#DejaVuSans-30" x="127.246094"/>
      </g>
     </g>
    </g>
    <g id="xtick_18">
     <g id="line2d_35">
      <g>
       <use xlink:href="#m122661c03b" x="362.671291" y="307.584" style="stroke: #000000; stroke-width: 0.8"/>
      </g>
     </g>
     <g id="text_20">
      <!-- 250 -->
      <g transform="translate(353.127541 322.182437)scale(0.1 -0.1)">
       <use xlink:href="#DejaVuSans-32"/>
       <use xlink:href="#DejaVuSans-35" x="63.623047"/>
       <use xlink:href="#DejaVuSans-30" x="127.246094"/>
      </g>
     </g>
    </g>
    <g id="text_21">
     <!-- time (normalized) -->
     <g transform="translate(191.589687 335.860562)scale(0.1 -0.1)">
      <use xlink:href="#DejaVuSans-74"/>
      <use xlink:href="#DejaVuSans-69" x="39.208984"/>
      <use xlink:href="#DejaVuSans-6d" x="66.992188"/>
      <use xlink:href="#DejaVuSans-65" x="164.404297"/>
      <use xlink:href="#DejaVuSans-20" x="225.927734"/>
      <use xlink:href="#DejaVuSans-28" x="257.714844"/>
      <use xlink:href="#DejaVuSans-6e" x="296.728516"/>
      <use xlink:href="#DejaVuSans-6f" x="360.107422"/>
      <use xlink:href="#DejaVuSans-72" x="421.289062"/>
      <use xlink:href="#DejaVuSans-6d" x="460.652344"/>
      <use xlink:href="#DejaVuSans-61" x="558.064453"/>
      <use xlink:href="#DejaVuSans-6c" x="619.34375"/>
      <use xlink:href="#DejaVuSans-69" x="647.126953"/>
      <use xlink:href="#DejaVuSans-7a" x="674.910156"/>
      <use xlink:href="#DejaVuSans-65" x="727.400391"/>
      <use xlink:href="#DejaVuSans-64" x="788.923828"/>
      <use xlink:href="#DejaVuSans-29" x="852.400391"/>
     </g>
    </g>
   </g>
   <g id="matplotlib.axis_6">
    <g id="ytick_6">
     <g id="line2d_36">
      <g>
       <use xlink:href="#m7e9d17e8d3" x="57.6" y="278.503086" style="stroke: #000000; stroke-width: 0.8"/>
      </g>
     </g>
     <g id="text_22">
      <!-- −5 -->
      <g transform="translate(35.857813 282.302305)scale(0.1 -0.1)">
       <use xlink:href="#DejaVuSans-2212"/>
       <use xlink:href="#DejaVuSans-35" x="83.789062"/>
      </g>
     </g>
    </g>
    <g id="ytick_7">
     <g id="line2d_37">
      <g>
       <use xlink:href="#m7e9d17e8d3" x="57.6" y="239.522918" style="stroke: #000000; stroke-width: 0.8"/>
      </g>
     </g>
     <g id="text_23">
      <!-- 0 -->
      <g transform="translate(44.2375 243.322137)scale(0.1 -0.1)">
       <use xlink:href="#DejaVuSans-30"/>
      </g>
     </g>
    </g>
    <g id="text_24">
     <!-- fraction -->
     <g transform="translate(29.778125 287.656132)rotate(-90)scale(0.1 -0.1)">
      <use xlink:href="#DejaVuSans-66"/>
      <use xlink:href="#DejaVuSans-72" x="35.205078"/>
      <use xlink:href="#DejaVuSans-61" x="76.318359"/>
      <use xlink:href="#DejaVuSans-63" x="137.597656"/>
      <use xlink:href="#DejaVuSans-74" x="192.578125"/>
      <use xlink:href="#DejaVuSans-69" x="231.787109"/>
      <use xlink:href="#DejaVuSans-6f" x="259.570312"/>
      <use xlink:href="#DejaVuSans-6e" x="320.751953"/>
     </g>
    </g>
   </g>
   <g id="line2d_38">
    <path d="M 73.832727 237.963712 
L 74.988082 304.026353 
L 76.143436 293.052442 
L 77.29879 276.086463 
L 78.454144 254.765255 
L 79.609499 237.930352 
L 107.338001 237.352227 
L 122.357606 236.928177 
L 123.51296 237.951765 
L 173.193193 238.064047 
L 182.436027 239.230244 
L 188.212798 239.411311 
L 200.921695 239.498168 
L 258.689408 239.520862 
L 271.398305 239.521419 
L 272.553659 239.182803 
L 273.709013 237.28564 
L 274.864368 237.036514 
L 285.262556 237.45796 
L 291.039327 237.313722 
L 299.126807 236.87287 
L 333.787434 234.701175 
L 349.962394 234.025769 
L 369.603416 233.438899 
L 393.865856 232.946561 
L 398.487273 232.873412 
L 398.487273 232.873412 
" clip-path="url(#p989f68a8ce)" style="fill: none; stroke: #1f77b4; stroke-width: 1.5; stroke-linecap: square"/>
   </g>
   <g id="line2d_39">
    <path d="M 73.832727 237.963712 
L 74.988082 238.890704 
L 76.143436 239.234876 
L 78.454144 239.376537 
L 83.075561 239.299191 
L 84.230916 238.625072 
L 85.38627 237.608564 
L 86.541624 236.789365 
L 87.696978 236.247455 
L 88.852333 235.894788 
L 91.163041 235.52077 
L 94.629104 235.289008 
L 101.561229 235.118305 
L 117.736189 235.016982 
L 122.357606 235.005597 
L 123.51296 235.490547 
L 124.668314 237.219515 
L 128.134377 237.443076 
L 136.221857 237.688443 
L 151.241462 237.859967 
L 173.193193 238.001076 
L 176.659256 238.544931 
L 180.125319 239.030363 
L 183.591381 239.27473 
L 189.368153 239.423582 
L 204.387758 239.504408 
L 285.262556 239.522743 
L 398.487273 239.522918 
L 398.487273 239.522918 
" clip-path="url(#p989f68a8ce)" style="fill: none; stroke: #ff7f0e; stroke-width: 1.5; stroke-linecap: square"/>
   </g>
   <g id="patch_15">
    <path d="M 57.6 307.584 
L 57.6 229.315765 
" style="fill: none; stroke: #000000; stroke-width: 0.8; stroke-linejoin: miter; stroke-linecap: square"/>
   </g>
   <g id="patch_16">
    <path d="M 414.72 307.584 
L 414.72 229.315765 
" style="fill: none; stroke: #000000; stroke-width: 0.8; stroke-linejoin: miter; stroke-linecap: square"/>
   </g>
   <g id="patch_17">
    <path d="M 57.6 307.584 
L 414.72 307.584 
" style="fill: none; stroke: #000000; stroke-width: 0.8; stroke-linejoin: miter; stroke-linecap: square"/>
   </g>
   <g id="patch_18">
    <path d="M 57.6 229.315765 
L 414.72 229.315765 
" style="fill: none; stroke: #000000; stroke-width: 0.8; stroke-linejoin: miter; stroke-linecap: square"/>
   </g>
   <g id="text_25">
    <!-- yA - fraction O2 -->
    <g transform="translate(189.030937 223.315765)scale(0.12 -0.12)">
     <defs>
      <path id="DejaVuSans-41" d="M 2188 4044 
L 1331 1722 
L 3047 1722 
L 2188 4044 
z
M 1831 4666 
L 2547 4666 
L 4325 0 
L 3669 0 
L 3244 1197 
L 1141 1197 
L 716 0 
L 50 0 
L 1831 4666 
z
" transform="scale(0.015625)"/>
      <path id="DejaVuSans-2d" d="M 313 2009 
L 1997 2009 
L 1997 1497 
L 313 1497 
L 313 2009 
z
" transform="scale(0.015625)"/>
      <path id="DejaVuSans-4f" d="M 2522 4238 
Q 1834 4238 1429 3725 
Q 1025 3213 1025 2328 
Q 1025 1447 1429 934 
Q 1834 422 2522 422 
Q 3209 422 3611 934 
Q 4013 1447 4013 2328 
Q 4013 3213 3611 3725 
Q 3209 4238 2522 4238 
z
M 2522 4750 
Q 3503 4750 4090 4092 
Q 4678 3434 4678 2328 
Q 4678 1225 4090 567 
Q 3503 -91 2522 -91 
Q 1538 -91 948 565 
Q 359 1222 359 2328 
Q 359 3434 948 4092 
Q 1538 4750 2522 4750 
z
" transform="scale(0.015625)"/>
     </defs>
     <use xlink:href="#DejaVuSans-79"/>
     <use xlink:href="#DejaVuSans-41" x="59.179688"/>
     <use xlink:href="#DejaVuSans-20" x="127.587891"/>
     <use xlink:href="#DejaVuSans-2d" x="159.375"/>
     <use xlink:href="#DejaVuSans-20" x="195.458984"/>
     <use xlink:href="#DejaVuSans-66" x="227.246094"/>
     <use xlink:href="#DejaVuSans-72" x="262.451172"/>
     <use xlink:href="#DejaVuSans-61" x="303.564453"/>
     <use xlink:href="#DejaVuSans-63" x="364.84375"/>
     <use xlink:href="#DejaVuSans-74" x="419.824219"/>
     <use xlink:href="#DejaVuSans-69" x="459.033203"/>
     <use xlink:href="#DejaVuSans-6f" x="486.816406"/>
     <use xlink:href="#DejaVuSans-6e" x="547.998047"/>
     <use xlink:href="#DejaVuSans-20" x="611.376953"/>
     <use xlink:href="#DejaVuSans-4f" x="643.164062"/>
     <use xlink:href="#DejaVuSans-32" x="721.875"/>
    </g>
   </g>
   <g id="legend_3">
    <g id="patch_19">
     <path d="M 328.121563 302.584 
L 407.72 302.584 
Q 409.72 302.584 409.72 300.584 
L 409.72 272.22775 
Q 409.72 270.22775 407.72 270.22775 
L 328.121563 270.22775 
Q 326.121563 270.22775 326.121563 272.22775 
L 326.121563 300.584 
Q 326.121563 302.584 328.121563 302.584 
z
" style="fill: #ffffff; opacity: 0.8; stroke: #cccccc; stroke-linejoin: miter"/>
    </g>
    <g id="line2d_40">
     <path d="M 330.121563 278.326187 
L 340.121563 278.326187 
L 350.121563 278.326187 
" style="fill: none; stroke: #1f77b4; stroke-width: 1.5; stroke-linecap: square"/>
    </g>
    <g id="text_26">
     <!-- yA1 (in) -->
     <g transform="translate(358.121563 281.826187)scale(0.1 -0.1)">
      <use xlink:href="#DejaVuSans-79"/>
      <use xlink:href="#DejaVuSans-41" x="59.179688"/>
      <use xlink:href="#DejaVuSans-31" x="127.587891"/>
      <use xlink:href="#DejaVuSans-20" x="191.210938"/>
      <use xlink:href="#DejaVuSans-28" x="222.998047"/>
      <use xlink:href="#DejaVuSans-69" x="262.011719"/>
      <use xlink:href="#DejaVuSans-6e" x="289.794922"/>
      <use xlink:href="#DejaVuSans-29" x="353.173828"/>
     </g>
    </g>
    <g id="line2d_41">
     <path d="M 330.121563 293.004312 
L 340.121563 293.004312 
L 350.121563 293.004312 
" style="fill: none; stroke: #ff7f0e; stroke-width: 1.5; stroke-linecap: square"/>
    </g>
    <g id="text_27">
     <!-- yAN (out) -->
     <g transform="translate(358.121563 296.504312)scale(0.1 -0.1)">
      <use xlink:href="#DejaVuSans-79"/>
      <use xlink:href="#DejaVuSans-41" x="59.179688"/>
      <use xlink:href="#DejaVuSans-4e" x="127.587891"/>
      <use xlink:href="#DejaVuSans-20" x="202.392578"/>
      <use xlink:href="#DejaVuSans-28" x="234.179688"/>
      <use xlink:href="#DejaVuSans-6f" x="273.193359"/>
      <use xlink:href="#DejaVuSans-75" x="334.375"/>
      <use xlink:href="#DejaVuSans-74" x="397.753906"/>
      <use xlink:href="#DejaVuSans-29" x="436.962891"/>
     </g>
    </g>
   </g>
  </g>
 </g>
 <defs>
  <clipPath id="p570d66f34b">
   <rect x="57.6" y="41.472" width="357.12" height="78.268235"/>
  </clipPath>
  <clipPath id="p0e347f35ba">
   <rect x="57.6" y="135.393882" width="357.12" height="78.268235"/>
  </clipPath>
  <clipPath id="p989f68a8ce">
   <rect x="57.6" y="229.315765" width="357.12" height="78.268235"/>
  </clipPath>
 </defs>
</svg>
