<?xml version="1.0" encoding="utf-8" standalone="no"?>
<!DOCTYPE svg PUBLIC "-//W3C//DTD SVG 1.1//EN"
  "http://www.w3.org/Graphics/SVG/1.1/DTD/svg11.dtd">
<svg xmlns:xlink="http://www.w3.org/1999/xlink" width="460.8pt" height="345.6pt" viewBox="0 0 460.8 345.6" xmlns="http://www.w3.org/2000/svg" version="1.1">
 <metadata>
  <rdf:RDF xmlns:dc="http://purl.org/dc/elements/1.1/" xmlns:cc="http://creativecommons.org/ns#" xmlns:rdf="http://www.w3.org/1999/02/22-rdf-syntax-ns#">
   <cc:Work>
    <dc:type rdf:resource="http://purl.org/dc/dcmitype/StillImage"/>
    <dc:date>2022-07-04T22:31:11.545233</dc:date>
    <dc:format>image/svg+xml</dc:format>
    <dc:creator>
     <cc:Agent>
      <dc:title>Matplotlib v3.5.2, https://matplotlib.org/</dc:title>
     </cc:Agent>
    </dc:creator>
   </cc:Work>
  </rdf:RDF>
 </metadata>
 <defs>
  <style type="text/css">*{stroke-linejoin: round; stroke-linecap: butt}</style>
 </defs>
 <g id="figure_1">
  <g id="patch_1">
   <path d="M 0 345.6 
L 460.8 345.6 
L 460.8 0 
L 0 0 
z
" style="fill: #ffffff"/>
  </g>
  <g id="axes_1">
   <g id="patch_2">
    <path d="M 57.6 87.353379 
L 414.72 87.353379 
L 414.72 41.472 
L 57.6 41.472 
z
" style="fill: #ffffff"/>
   </g>
   <g id="matplotlib.axis_1">
    <g id="xtick_1">
     <g id="line2d_1">
      <defs>
       <path id="m6fda7bd230" d="M 0 0 
L 0 3.5 
" style="stroke: #000000; stroke-width: 0.8"/>
      </defs>
      <g>
       <use xlink:href="#m6fda7bd230" x="73.832727" y="87.353379" style="stroke: #000000; stroke-width: 0.8"/>
      </g>
     </g>
    </g>
    <g id="xtick_2">
     <g id="line2d_2">
      <g>
       <use xlink:href="#m6fda7bd230" x="138.763636" y="87.353379" style="stroke: #000000; stroke-width: 0.8"/>
      </g>
     </g>
    </g>
    <g id="xtick_3">
     <g id="line2d_3">
      <g>
       <use xlink:href="#m6fda7bd230" x="203.694545" y="87.353379" style="stroke: #000000; stroke-width: 0.8"/>
      </g>
     </g>
    </g>
    <g id="xtick_4">
     <g id="line2d_4">
      <g>
       <use xlink:href="#m6fda7bd230" x="268.625455" y="87.353379" style="stroke: #000000; stroke-width: 0.8"/>
      </g>
     </g>
    </g>
    <g id="xtick_5">
     <g id="line2d_5">
      <g>
       <use xlink:href="#m6fda7bd230" x="333.556364" y="87.353379" style="stroke: #000000; stroke-width: 0.8"/>
      </g>
     </g>
    </g>
    <g id="xtick_6">
     <g id="line2d_6">
      <g>
       <use xlink:href="#m6fda7bd230" x="398.487273" y="87.353379" style="stroke: #000000; stroke-width: 0.8"/>
      </g>
     </g>
    </g>
   </g>
   <g id="matplotlib.axis_2">
    <g id="ytick_1">
     <g id="line2d_7">
      <defs>
       <path id="mb6c9116008" d="M 0 0 
L -3.5 0 
" style="stroke: #000000; stroke-width: 0.8"/>
      </defs>
      <g>
       <use xlink:href="#mb6c9116008" x="57.6" y="70.894865" style="stroke: #000000; stroke-width: 0.8"/>
      </g>
     </g>
     <g id="text_1">
      <!-- 0 -->
      <g transform="translate(44.2375 74.694084)scale(0.1 -0.1)">
       <defs>
        <path id="DejaVuSans-30" d="M 2034 4250 
Q 1547 4250 1301 3770 
Q 1056 3291 1056 2328 
Q 1056 1369 1301 889 
Q 1547 409 2034 409 
Q 2525 409 2770 889 
Q 3016 1369 3016 2328 
Q 3016 3291 2770 3770 
Q 2525 4250 2034 4250 
z
M 2034 4750 
Q 2819 4750 3233 4129 
Q 3647 3509 3647 2328 
Q 3647 1150 3233 529 
Q 2819 -91 2034 -91 
Q 1250 -91 836 529 
Q 422 1150 422 2328 
Q 422 3509 836 4129 
Q 1250 4750 2034 4750 
z
" transform="scale(0.015625)"/>
       </defs>
       <use xlink:href="#DejaVuSans-30"/>
      </g>
     </g>
    </g>
    <g id="ytick_2">
     <g id="line2d_8">
      <g>
       <use xlink:href="#mb6c9116008" x="57.6" y="51.376675" style="stroke: #000000; stroke-width: 0.8"/>
      </g>
     </g>
     <g id="text_2">
      <!-- 10 -->
      <g transform="translate(37.875 55.175893)scale(0.1 -0.1)">
       <defs>
        <path id="DejaVuSans-31" d="M 794 531 
L 1825 531 
L 1825 4091 
L 703 3866 
L 703 4441 
L 1819 4666 
L 2450 4666 
L 2450 531 
L 3481 531 
L 3481 0 
L 794 0 
L 794 531 
z
" transform="scale(0.015625)"/>
       </defs>
       <use xlink:href="#DejaVuSans-31"/>
       <use xlink:href="#DejaVuSans-30" x="63.623047"/>
      </g>
     </g>
    </g>
    <g id="text_3">
     <!-- flow rate (normalized) -->
     <g transform="translate(31.795312 119.729877)rotate(-90)scale(0.1 -0.1)">
      <defs>
       <path id="DejaVuSans-66" d="M 2375 4863 
L 2375 4384 
L 1825 4384 
Q 1516 4384 1395 4259 
Q 1275 4134 1275 3809 
L 1275 3500 
L 2222 3500 
L 2222 3053 
L 1275 3053 
L 1275 0 
L 697 0 
L 697 3053 
L 147 3053 
L 147 3500 
L 697 3500 
L 697 3744 
Q 697 4328 969 4595 
Q 1241 4863 1831 4863 
L 2375 4863 
z
" transform="scale(0.015625)"/>
       <path id="DejaVuSans-6c" d="M 603 4863 
L 1178 4863 
L 1178 0 
L 603 0 
L 603 4863 
z
" transform="scale(0.015625)"/>
       <path id="DejaVuSans-6f" d="M 1959 3097 
Q 1497 3097 1228 2736 
Q 959 2375 959 1747 
Q 959 1119 1226 758 
Q 1494 397 1959 397 
Q 2419 397 2687 759 
Q 2956 1122 2956 1747 
Q 2956 2369 2687 2733 
Q 2419 3097 1959 3097 
z
M 1959 3584 
Q 2709 3584 3137 3096 
Q 3566 2609 3566 1747 
Q 3566 888 3137 398 
Q 2709 -91 1959 -91 
Q 1206 -91 779 398 
Q 353 888 353 1747 
Q 353 2609 779 3096 
Q 1206 3584 1959 3584 
z
" transform="scale(0.015625)"/>
       <path id="DejaVuSans-77" d="M 269 3500 
L 844 3500 
L 1563 769 
L 2278 3500 
L 2956 3500 
L 3675 769 
L 4391 3500 
L 4966 3500 
L 4050 0 
L 3372 0 
L 2619 2869 
L 1863 0 
L 1184 0 
L 269 3500 
z
" transform="scale(0.015625)"/>
       <path id="DejaVuSans-20" transform="scale(0.015625)"/>
       <path id="DejaVuSans-72" d="M 2631 2963 
Q 2534 3019 2420 3045 
Q 2306 3072 2169 3072 
Q 1681 3072 1420 2755 
Q 1159 2438 1159 1844 
L 1159 0 
L 581 0 
L 581 3500 
L 1159 3500 
L 1159 2956 
Q 1341 3275 1631 3429 
Q 1922 3584 2338 3584 
Q 2397 3584 2469 3576 
Q 2541 3569 2628 3553 
L 2631 2963 
z
" transform="scale(0.015625)"/>
       <path id="DejaVuSans-61" d="M 2194 1759 
Q 1497 1759 1228 1600 
Q 959 1441 959 1056 
Q 959 750 1161 570 
Q 1363 391 1709 391 
Q 2188 391 2477 730 
Q 2766 1069 2766 1631 
L 2766 1759 
L 2194 1759 
z
M 3341 1997 
L 3341 0 
L 2766 0 
L 2766 531 
Q 2569 213 2275 61 
Q 1981 -91 1556 -91 
Q 1019 -91 701 211 
Q 384 513 384 1019 
Q 384 1609 779 1909 
Q 1175 2209 1959 2209 
L 2766 2209 
L 2766 2266 
Q 2766 2663 2505 2880 
Q 2244 3097 1772 3097 
Q 1472 3097 1187 3025 
Q 903 2953 641 2809 
L 641 3341 
Q 956 3463 1253 3523 
Q 1550 3584 1831 3584 
Q 2591 3584 2966 3190 
Q 3341 2797 3341 1997 
z
" transform="scale(0.015625)"/>
       <path id="DejaVuSans-74" d="M 1172 4494 
L 1172 3500 
L 2356 3500 
L 2356 3053 
L 1172 3053 
L 1172 1153 
Q 1172 725 1289 603 
Q 1406 481 1766 481 
L 2356 481 
L 2356 0 
L 1766 0 
Q 1100 0 847 248 
Q 594 497 594 1153 
L 594 3053 
L 172 3053 
L 172 3500 
L 594 3500 
L 594 4494 
L 1172 4494 
z
" transform="scale(0.015625)"/>
       <path id="DejaVuSans-65" d="M 3597 1894 
L 3597 1613 
L 953 1613 
Q 991 1019 1311 708 
Q 1631 397 2203 397 
Q 2534 397 2845 478 
Q 3156 559 3463 722 
L 3463 178 
Q 3153 47 2828 -22 
Q 2503 -91 2169 -91 
Q 1331 -91 842 396 
Q 353 884 353 1716 
Q 353 2575 817 3079 
Q 1281 3584 2069 3584 
Q 2775 3584 3186 3129 
Q 3597 2675 3597 1894 
z
M 3022 2063 
Q 3016 2534 2758 2815 
Q 2500 3097 2075 3097 
Q 1594 3097 1305 2825 
Q 1016 2553 972 2059 
L 3022 2063 
z
" transform="scale(0.015625)"/>
       <path id="DejaVuSans-28" d="M 1984 4856 
Q 1566 4138 1362 3434 
Q 1159 2731 1159 2009 
Q 1159 1288 1364 580 
Q 1569 -128 1984 -844 
L 1484 -844 
Q 1016 -109 783 600 
Q 550 1309 550 2009 
Q 550 2706 781 3412 
Q 1013 4119 1484 4856 
L 1984 4856 
z
" transform="scale(0.015625)"/>
       <path id="DejaVuSans-6e" d="M 3513 2113 
L 3513 0 
L 2938 0 
L 2938 2094 
Q 2938 2591 2744 2837 
Q 2550 3084 2163 3084 
Q 1697 3084 1428 2787 
Q 1159 2491 1159 1978 
L 1159 0 
L 581 0 
L 581 3500 
L 1159 3500 
L 1159 2956 
Q 1366 3272 1645 3428 
Q 1925 3584 2291 3584 
Q 2894 3584 3203 3211 
Q 3513 2838 3513 2113 
z
" transform="scale(0.015625)"/>
       <path id="DejaVuSans-6d" d="M 3328 2828 
Q 3544 3216 3844 3400 
Q 4144 3584 4550 3584 
Q 5097 3584 5394 3201 
Q 5691 2819 5691 2113 
L 5691 0 
L 5113 0 
L 5113 2094 
Q 5113 2597 4934 2840 
Q 4756 3084 4391 3084 
Q 3944 3084 3684 2787 
Q 3425 2491 3425 1978 
L 3425 0 
L 2847 0 
L 2847 2094 
Q 2847 2600 2669 2842 
Q 2491 3084 2119 3084 
Q 1678 3084 1418 2786 
Q 1159 2488 1159 1978 
L 1159 0 
L 581 0 
L 581 3500 
L 1159 3500 
L 1159 2956 
Q 1356 3278 1631 3431 
Q 1906 3584 2284 3584 
Q 2666 3584 2933 3390 
Q 3200 3197 3328 2828 
z
" transform="scale(0.015625)"/>
       <path id="DejaVuSans-69" d="M 603 3500 
L 1178 3500 
L 1178 0 
L 603 0 
L 603 3500 
z
M 603 4863 
L 1178 4863 
L 1178 4134 
L 603 4134 
L 603 4863 
z
" transform="scale(0.015625)"/>
       <path id="DejaVuSans-7a" d="M 353 3500 
L 3084 3500 
L 3084 2975 
L 922 459 
L 3084 459 
L 3084 0 
L 275 0 
L 275 525 
L 2438 3041 
L 353 3041 
L 353 3500 
z
" transform="scale(0.015625)"/>
       <path id="DejaVuSans-64" d="M 2906 2969 
L 2906 4863 
L 3481 4863 
L 3481 0 
L 2906 0 
L 2906 525 
Q 2725 213 2448 61 
Q 2172 -91 1784 -91 
Q 1150 -91 751 415 
Q 353 922 353 1747 
Q 353 2572 751 3078 
Q 1150 3584 1784 3584 
Q 2172 3584 2448 3432 
Q 2725 3281 2906 2969 
z
M 947 1747 
Q 947 1113 1208 752 
Q 1469 391 1925 391 
Q 2381 391 2643 752 
Q 2906 1113 2906 1747 
Q 2906 2381 2643 2742 
Q 2381 3103 1925 3103 
Q 1469 3103 1208 2742 
Q 947 2381 947 1747 
z
" transform="scale(0.015625)"/>
       <path id="DejaVuSans-29" d="M 513 4856 
L 1013 4856 
Q 1481 4119 1714 3412 
Q 1947 2706 1947 2009 
Q 1947 1309 1714 600 
Q 1481 -109 1013 -844 
L 513 -844 
Q 928 -128 1133 580 
Q 1338 1288 1338 2009 
Q 1338 2731 1133 3434 
Q 928 4138 513 4856 
z
" transform="scale(0.015625)"/>
      </defs>
      <use xlink:href="#DejaVuSans-66"/>
      <use xlink:href="#DejaVuSans-6c" x="35.205078"/>
      <use xlink:href="#DejaVuSans-6f" x="62.988281"/>
      <use xlink:href="#DejaVuSans-77" x="124.169922"/>
      <use xlink:href="#DejaVuSans-20" x="205.957031"/>
      <use xlink:href="#DejaVuSans-72" x="237.744141"/>
      <use xlink:href="#DejaVuSans-61" x="278.857422"/>
      <use xlink:href="#DejaVuSans-74" x="340.136719"/>
      <use xlink:href="#DejaVuSans-65" x="379.345703"/>
      <use xlink:href="#DejaVuSans-20" x="440.869141"/>
      <use xlink:href="#DejaVuSans-28" x="472.65625"/>
      <use xlink:href="#DejaVuSans-6e" x="511.669922"/>
      <use xlink:href="#DejaVuSans-6f" x="575.048828"/>
      <use xlink:href="#DejaVuSans-72" x="636.230469"/>
      <use xlink:href="#DejaVuSans-6d" x="675.59375"/>
      <use xlink:href="#DejaVuSans-61" x="773.005859"/>
      <use xlink:href="#DejaVuSans-6c" x="834.285156"/>
      <use xlink:href="#DejaVuSans-69" x="862.068359"/>
      <use xlink:href="#DejaVuSans-7a" x="889.851562"/>
      <use xlink:href="#DejaVuSans-65" x="942.341797"/>
      <use xlink:href="#DejaVuSans-64" x="1003.865234"/>
      <use xlink:href="#DejaVuSans-29" x="1067.341797"/>
     </g>
    </g>
   </g>
   <g id="line2d_9">
    <path d="M 73.832727 71.130743 
L 77.079273 60.433203 
L 80.325818 55.19787 
L 83.572364 55.440322 
L 86.818909 57.905582 
L 90.065455 60.759028 
L 93.312 63.309905 
L 96.558545 65.344779 
L 99.805091 66.894086 
L 103.051636 68.039532 
L 106.298182 68.870367 
L 109.544727 69.465142 
L 112.791273 69.887345 
L 116.037818 70.185904 
L 119.284364 70.396858 
L 122.530909 70.548132 
L 125.777455 69.598599 
L 129.024 69.386217 
L 132.270545 69.235993 
L 135.517091 69.13262 
L 138.763636 69.063097 
L 142.010182 69.019768 
L 145.256727 68.992485 
L 148.503273 68.974909 
L 151.749818 68.962264 
L 154.996364 68.952495 
L 158.242909 68.944809 
L 161.489455 68.938603 
L 164.736 68.933461 
L 167.982545 68.929979 
L 171.229091 68.927618 
L 174.475636 65.843147 
L 177.722182 63.952211 
L 180.968727 63.414906 
L 184.215273 63.612391 
L 187.461818 64.174248 
L 190.708364 64.898196 
L 193.954909 65.6616 
L 197.201455 66.404633 
L 200.448 67.084432 
L 203.694545 67.695827 
L 206.941091 68.228378 
L 210.187636 68.687148 
L 213.434182 69.076272 
L 216.680727 69.402692 
L 219.927273 69.67122 
L 223.173818 69.890458 
L 226.420364 70.073557 
L 229.666909 70.221878 
L 232.913455 70.338617 
L 236.16 70.444223 
L 239.406545 70.532258 
L 242.653091 70.593392 
L 245.899636 70.645698 
L 249.146182 70.690327 
L 252.392727 70.726773 
L 255.639273 70.758454 
L 258.885818 70.785548 
L 262.132364 70.807797 
L 265.378909 70.825187 
L 268.625455 70.854366 
L 271.872 73.519193 
L 275.118545 74.872227 
L 278.365091 75.534465 
L 281.611636 75.793264 
L 284.858182 75.816402 
L 288.104727 75.691823 
L 291.351273 75.481449 
L 294.597818 75.223671 
L 297.844364 74.94079 
L 301.090909 74.649712 
L 304.337455 74.363368 
L 307.584 74.08517 
L 310.830545 73.821707 
L 314.077091 73.575109 
L 317.323636 73.345036 
L 320.570182 73.132259 
L 323.816727 72.935864 
L 327.063273 72.755922 
L 330.309818 72.591856 
L 333.556364 72.441063 
L 336.802909 72.301505 
L 340.049455 72.175555 
L 343.296 72.063651 
L 346.542545 71.961507 
L 349.789091 71.867558 
L 353.035636 71.781607 
L 356.282182 71.702321 
L 359.528727 71.630088 
L 362.775273 71.563612 
L 366.021818 71.503986 
L 369.268364 71.449413 
L 372.514909 71.399728 
L 375.761455 71.355006 
L 379.008 71.313951 
L 382.254545 71.276067 
L 385.501091 71.241722 
L 388.747636 71.210159 
L 391.994182 71.181733 
L 395.240727 71.155945 
L 398.487273 71.1326 
" clip-path="url(#p3d30088a36)" style="fill: none; stroke: #1f77b4; stroke-width: 1.5; stroke-linecap: square"/>
   </g>
   <g id="line2d_10">
    <path d="M 73.832727 71.262485 
L 77.079273 47.101499 
L 80.325818 43.557517 
L 83.572364 45.952726 
L 86.818909 50.251713 
L 90.065455 54.741491 
L 93.312 58.703055 
L 96.558545 61.91493 
L 99.805091 64.391574 
L 103.051636 66.241964 
L 106.298182 67.594581 
L 109.544727 68.565286 
L 112.791273 69.255519 
L 116.037818 69.743947 
L 119.284364 70.088896 
L 122.530909 70.335246 
L 125.777455 69.069831 
L 129.024 69.032315 
L 132.270545 69.005693 
L 135.517091 68.9873 
L 138.763636 68.974873 
L 142.010182 68.967072 
L 145.256727 68.962123 
L 148.503273 68.958912 
L 151.749818 68.956599 
L 154.996364 68.954815 
L 158.242909 68.953412 
L 161.489455 68.952282 
L 164.736 68.951341 
L 167.982545 68.95069 
L 171.229091 69.110644 
L 174.475636 70.088186 
L 177.722182 69.816785 
L 180.968727 69.736685 
L 184.215273 69.758917 
L 187.461818 69.83339 
L 190.708364 69.933139 
L 193.954909 70.041772 
L 197.201455 70.150623 
L 200.448 70.253123 
L 203.694545 70.347717 
L 206.941091 70.432252 
L 210.187636 70.506728 
L 213.434182 70.571307 
L 216.680727 70.626595 
L 219.927273 70.673072 
L 223.173818 70.711671 
L 226.420364 70.744281 
L 229.666909 70.771004 
L 232.913455 70.79233 
L 236.16 70.81141 
L 239.406545 70.827309 
L 242.653091 70.838696 
L 245.899636 70.848392 
L 249.146182 70.856616 
L 252.392727 70.863304 
L 255.639273 70.869189 
L 258.885818 70.874227 
L 262.132364 70.878379 
L 265.378909 70.881643 
L 268.625455 70.954275 
L 271.872 79.416313 
L 275.118545 83.612249 
L 278.365091 85.188751 
L 281.611636 85.267862 
L 284.858182 84.558907 
L 288.104727 83.493337 
L 291.351273 82.303827 
L 294.597818 81.131279 
L 297.844364 80.022271 
L 301.090909 79.002865 
L 304.337455 78.120612 
L 307.584 77.314953 
L 310.830545 76.613743 
L 314.077091 75.995465 
L 317.323636 75.448612 
L 320.570182 74.972443 
L 323.816727 74.545091 
L 327.063273 74.174129 
L 330.309818 73.847326 
L 333.556364 73.557028 
L 336.802909 73.294131 
L 340.049455 73.060855 
L 343.296 72.854562 
L 346.542545 72.669088 
L 349.789091 72.500448 
L 353.035636 72.348326 
L 356.282182 72.209827 
L 359.528727 72.086897 
L 362.775273 71.974802 
L 366.021818 71.876797 
L 369.268364 71.78328 
L 372.514909 71.700762 
L 375.761455 71.626324 
L 379.008 71.558454 
L 382.254545 71.496568 
L 385.501091 71.440969 
L 388.747636 71.389961 
L 391.994182 71.34434 
L 395.240727 71.303152 
L 398.487273 71.26602 
" clip-path="url(#p3d30088a36)" style="fill: none; stroke: #ff7f0e; stroke-width: 1.5; stroke-linecap: square"/>
   </g>
   <g id="line2d_11">
    <path d="M 73.832727 70.923126 
L 77.079273 69.837232 
L 80.325818 69.015467 
L 83.572364 68.977576 
L 86.818909 69.292911 
L 90.065455 69.670697 
L 93.312 69.973671 
L 96.558545 70.223843 
L 99.805091 70.41487 
L 103.051636 70.553913 
L 106.298182 70.653866 
L 109.544727 70.724677 
L 112.791273 70.775027 
L 116.037818 70.810564 
L 119.284364 70.835633 
L 122.530909 70.901987 
L 125.777455 69.990877 
L 129.024 69.621209 
L 132.270545 69.369482 
L 135.517091 69.203227 
L 138.763636 69.095991 
L 142.010182 69.033379 
L 145.256727 68.995624 
L 148.503273 68.971935 
L 151.749818 68.95386 
L 154.996364 68.938929 
L 158.242909 68.926679 
L 161.489455 68.916521 
L 164.736 68.90838 
L 167.982545 68.902979 
L 171.229091 68.895348 
L 174.475636 60.577253 
L 177.722182 56.121175 
L 180.968727 54.973252 
L 184.215273 55.754468 
L 187.461818 57.433972 
L 190.708364 59.407313 
L 193.954909 61.315593 
L 197.201455 63.043277 
L 200.448 64.501563 
L 203.694545 65.732643 
L 206.941091 66.737214 
L 210.187636 67.556845 
L 213.434182 68.21721 
L 216.680727 68.746082 
L 219.927273 69.159825 
L 223.173818 69.485906 
L 226.420364 69.750998 
L 229.666909 69.961093 
L 232.913455 70.122787 
L 236.16 70.278062 
L 239.406545 70.408829 
L 242.653091 70.489005 
L 245.899636 70.55736 
L 249.146182 70.617195 
L 252.392727 70.669834 
L 255.639273 70.712222 
L 258.885818 70.749628 
L 262.132364 70.779962 
L 265.378909 70.80311 
L 268.625455 70.846611 
L 271.872 71.142436 
L 275.118545 71.279303 
L 278.365091 71.35216 
L 281.611636 71.386148 
L 284.858182 71.396228 
L 288.104727 71.390526 
L 291.351273 71.375001 
L 294.597818 71.353443 
L 297.844364 71.328227 
L 301.090909 71.301205 
L 304.337455 71.273654 
L 307.584 71.246322 
L 310.830545 71.219837 
L 314.077091 71.194613 
L 317.323636 71.170733 
L 320.570182 71.148281 
L 323.816727 71.127357 
L 327.063273 71.107899 
L 330.309818 71.089955 
L 333.556364 71.073299 
L 336.802909 71.057784 
L 340.049455 71.043676 
L 343.296 71.031057 
L 346.542545 71.01949 
L 349.789091 71.008834 
L 353.035636 70.999024 
L 356.282182 70.98992 
L 359.528727 70.981559 
L 362.775273 70.973845 
L 366.021818 70.966869 
L 369.268364 70.960566 
L 372.514909 70.954763 
L 375.761455 70.94954 
L 379.008 70.944734 
L 382.254545 70.940285 
L 385.501091 70.93624 
L 388.747636 70.932516 
L 391.994182 70.929152 
L 395.240727 70.926095 
L 398.487273 70.923324 
" clip-path="url(#p3d30088a36)" style="fill: none; stroke: #2ca02c; stroke-width: 1.5; stroke-linecap: square"/>
   </g>
   <g id="patch_3">
    <path d="M 57.6 87.353379 
L 57.6 41.472 
" style="fill: none; stroke: #000000; stroke-width: 0.8; stroke-linejoin: miter; stroke-linecap: square"/>
   </g>
   <g id="patch_4">
    <path d="M 414.72 87.353379 
L 414.72 41.472 
" style="fill: none; stroke: #000000; stroke-width: 0.8; stroke-linejoin: miter; stroke-linecap: square"/>
   </g>
   <g id="patch_5">
    <path d="M 57.6 87.353379 
L 414.72 87.353379 
" style="fill: none; stroke: #000000; stroke-width: 0.8; stroke-linejoin: miter; stroke-linecap: square"/>
   </g>
   <g id="patch_6">
    <path d="M 57.6 41.472 
L 414.72 41.472 
" style="fill: none; stroke: #000000; stroke-width: 0.8; stroke-linejoin: miter; stroke-linecap: square"/>
   </g>
   <g id="text_4">
    <!-- velocity vs time (container 1)   -->
    <g transform="translate(144.106875 35.472)scale(0.12 -0.12)">
     <defs>
      <path id="DejaVuSans-76" d="M 191 3500 
L 800 3500 
L 1894 563 
L 2988 3500 
L 3597 3500 
L 2284 0 
L 1503 0 
L 191 3500 
z
" transform="scale(0.015625)"/>
      <path id="DejaVuSans-63" d="M 3122 3366 
L 3122 2828 
Q 2878 2963 2633 3030 
Q 2388 3097 2138 3097 
Q 1578 3097 1268 2742 
Q 959 2388 959 1747 
Q 959 1106 1268 751 
Q 1578 397 2138 397 
Q 2388 397 2633 464 
Q 2878 531 3122 666 
L 3122 134 
Q 2881 22 2623 -34 
Q 2366 -91 2075 -91 
Q 1284 -91 818 406 
Q 353 903 353 1747 
Q 353 2603 823 3093 
Q 1294 3584 2113 3584 
Q 2378 3584 2631 3529 
Q 2884 3475 3122 3366 
z
" transform="scale(0.015625)"/>
      <path id="DejaVuSans-79" d="M 2059 -325 
Q 1816 -950 1584 -1140 
Q 1353 -1331 966 -1331 
L 506 -1331 
L 506 -850 
L 844 -850 
Q 1081 -850 1212 -737 
Q 1344 -625 1503 -206 
L 1606 56 
L 191 3500 
L 800 3500 
L 1894 763 
L 2988 3500 
L 3597 3500 
L 2059 -325 
z
" transform="scale(0.015625)"/>
      <path id="DejaVuSans-73" d="M 2834 3397 
L 2834 2853 
Q 2591 2978 2328 3040 
Q 2066 3103 1784 3103 
Q 1356 3103 1142 2972 
Q 928 2841 928 2578 
Q 928 2378 1081 2264 
Q 1234 2150 1697 2047 
L 1894 2003 
Q 2506 1872 2764 1633 
Q 3022 1394 3022 966 
Q 3022 478 2636 193 
Q 2250 -91 1575 -91 
Q 1294 -91 989 -36 
Q 684 19 347 128 
L 347 722 
Q 666 556 975 473 
Q 1284 391 1588 391 
Q 1994 391 2212 530 
Q 2431 669 2431 922 
Q 2431 1156 2273 1281 
Q 2116 1406 1581 1522 
L 1381 1569 
Q 847 1681 609 1914 
Q 372 2147 372 2553 
Q 372 3047 722 3315 
Q 1072 3584 1716 3584 
Q 2034 3584 2315 3537 
Q 2597 3491 2834 3397 
z
" transform="scale(0.015625)"/>
     </defs>
     <use xlink:href="#DejaVuSans-76"/>
     <use xlink:href="#DejaVuSans-65" x="59.179688"/>
     <use xlink:href="#DejaVuSans-6c" x="120.703125"/>
     <use xlink:href="#DejaVuSans-6f" x="148.486328"/>
     <use xlink:href="#DejaVuSans-63" x="209.667969"/>
     <use xlink:href="#DejaVuSans-69" x="264.648438"/>
     <use xlink:href="#DejaVuSans-74" x="292.431641"/>
     <use xlink:href="#DejaVuSans-79" x="331.640625"/>
     <use xlink:href="#DejaVuSans-20" x="390.820312"/>
     <use xlink:href="#DejaVuSans-76" x="422.607422"/>
     <use xlink:href="#DejaVuSans-73" x="481.787109"/>
     <use xlink:href="#DejaVuSans-20" x="533.886719"/>
     <use xlink:href="#DejaVuSans-74" x="565.673828"/>
     <use xlink:href="#DejaVuSans-69" x="604.882812"/>
     <use xlink:href="#DejaVuSans-6d" x="632.666016"/>
     <use xlink:href="#DejaVuSans-65" x="730.078125"/>
     <use xlink:href="#DejaVuSans-20" x="791.601562"/>
     <use xlink:href="#DejaVuSans-28" x="823.388672"/>
     <use xlink:href="#DejaVuSans-63" x="862.402344"/>
     <use xlink:href="#DejaVuSans-6f" x="917.382812"/>
     <use xlink:href="#DejaVuSans-6e" x="978.564453"/>
     <use xlink:href="#DejaVuSans-74" x="1041.943359"/>
     <use xlink:href="#DejaVuSans-61" x="1081.152344"/>
     <use xlink:href="#DejaVuSans-69" x="1142.431641"/>
     <use xlink:href="#DejaVuSans-6e" x="1170.214844"/>
     <use xlink:href="#DejaVuSans-65" x="1233.59375"/>
     <use xlink:href="#DejaVuSans-72" x="1295.117188"/>
     <use xlink:href="#DejaVuSans-20" x="1336.230469"/>
     <use xlink:href="#DejaVuSans-31" x="1368.017578"/>
     <use xlink:href="#DejaVuSans-29" x="1431.640625"/>
     <use xlink:href="#DejaVuSans-20" x="1470.654297"/>
     <use xlink:href="#DejaVuSans-20" x="1502.441406"/>
    </g>
   </g>
   <g id="legend_1">
    <g id="patch_7">
     <path d="M 64.6 93.506375 
L 139.240625 93.506375 
Q 141.240625 93.506375 141.240625 91.506375 
L 141.240625 48.472 
Q 141.240625 46.472 139.240625 46.472 
L 64.6 46.472 
Q 62.6 46.472 62.6 48.472 
L 62.6 91.506375 
Q 62.6 93.506375 64.6 93.506375 
z
" style="fill: #ffffff; opacity: 0.8; stroke: #cccccc; stroke-linejoin: miter"/>
    </g>
    <g id="line2d_12">
     <path d="M 66.6 54.570437 
L 76.6 54.570437 
L 86.6 54.570437 
" style="fill: none; stroke: #1f77b4; stroke-width: 1.5; stroke-linecap: square"/>
    </g>
    <g id="text_5">
     <!-- mid flow -->
     <g transform="translate(94.6 58.070437)scale(0.1 -0.1)">
      <use xlink:href="#DejaVuSans-6d"/>
      <use xlink:href="#DejaVuSans-69" x="97.412109"/>
      <use xlink:href="#DejaVuSans-64" x="125.195312"/>
      <use xlink:href="#DejaVuSans-20" x="188.671875"/>
      <use xlink:href="#DejaVuSans-66" x="220.458984"/>
      <use xlink:href="#DejaVuSans-6c" x="255.664062"/>
      <use xlink:href="#DejaVuSans-6f" x="283.447266"/>
      <use xlink:href="#DejaVuSans-77" x="344.628906"/>
     </g>
    </g>
    <g id="line2d_13">
     <path d="M 66.6 69.248562 
L 76.6 69.248562 
L 86.6 69.248562 
" style="fill: none; stroke: #ff7f0e; stroke-width: 1.5; stroke-linecap: square"/>
    </g>
    <g id="text_6">
     <!-- v0 flow -->
     <g transform="translate(94.6 72.748562)scale(0.1 -0.1)">
      <use xlink:href="#DejaVuSans-76"/>
      <use xlink:href="#DejaVuSans-30" x="59.179688"/>
      <use xlink:href="#DejaVuSans-20" x="122.802734"/>
      <use xlink:href="#DejaVuSans-66" x="154.589844"/>
      <use xlink:href="#DejaVuSans-6c" x="189.794922"/>
      <use xlink:href="#DejaVuSans-6f" x="217.578125"/>
      <use xlink:href="#DejaVuSans-77" x="278.759766"/>
     </g>
    </g>
    <g id="line2d_14">
     <path d="M 66.6 83.926687 
L 76.6 83.926687 
L 86.6 83.926687 
" style="fill: none; stroke: #2ca02c; stroke-width: 1.5; stroke-linecap: square"/>
    </g>
    <g id="text_7">
     <!-- vN flow -->
     <g transform="translate(94.6 87.426687)scale(0.1 -0.1)">
      <defs>
       <path id="DejaVuSans-4e" d="M 628 4666 
L 1478 4666 
L 3547 763 
L 3547 4666 
L 4159 4666 
L 4159 0 
L 3309 0 
L 1241 3903 
L 1241 0 
L 628 0 
L 628 4666 
z
" transform="scale(0.015625)"/>
      </defs>
      <use xlink:href="#DejaVuSans-76"/>
      <use xlink:href="#DejaVuSans-4e" x="59.179688"/>
      <use xlink:href="#DejaVuSans-20" x="133.984375"/>
      <use xlink:href="#DejaVuSans-66" x="165.771484"/>
      <use xlink:href="#DejaVuSans-6c" x="200.976562"/>
      <use xlink:href="#DejaVuSans-6f" x="228.759766"/>
      <use xlink:href="#DejaVuSans-77" x="289.941406"/>
     </g>
    </g>
   </g>
  </g>
  <g id="axes_2">
   <g id="patch_8">
    <path d="M 57.6 142.411034 
L 414.72 142.411034 
L 414.72 96.529655 
L 57.6 96.529655 
z
" style="fill: #ffffff"/>
   </g>
   <g id="matplotlib.axis_3">
    <g id="xtick_7">
     <g id="line2d_15">
      <g>
       <use xlink:href="#m6fda7bd230" x="73.832727" y="142.411034" style="stroke: #000000; stroke-width: 0.8"/>
      </g>
     </g>
    </g>
    <g id="xtick_8">
     <g id="line2d_16">
      <g>
       <use xlink:href="#m6fda7bd230" x="138.763636" y="142.411034" style="stroke: #000000; stroke-width: 0.8"/>
      </g>
     </g>
    </g>
    <g id="xtick_9">
     <g id="line2d_17">
      <g>
       <use xlink:href="#m6fda7bd230" x="203.694545" y="142.411034" style="stroke: #000000; stroke-width: 0.8"/>
      </g>
     </g>
    </g>
    <g id="xtick_10">
     <g id="line2d_18">
      <g>
       <use xlink:href="#m6fda7bd230" x="268.625455" y="142.411034" style="stroke: #000000; stroke-width: 0.8"/>
      </g>
     </g>
    </g>
    <g id="xtick_11">
     <g id="line2d_19">
      <g>
       <use xlink:href="#m6fda7bd230" x="333.556364" y="142.411034" style="stroke: #000000; stroke-width: 0.8"/>
      </g>
     </g>
    </g>
    <g id="xtick_12">
     <g id="line2d_20">
      <g>
       <use xlink:href="#m6fda7bd230" x="398.487273" y="142.411034" style="stroke: #000000; stroke-width: 0.8"/>
      </g>
     </g>
    </g>
   </g>
   <g id="matplotlib.axis_4">
    <g id="ytick_3">
     <g id="line2d_21">
      <g>
       <use xlink:href="#mb6c9116008" x="57.6" y="127.090005" style="stroke: #000000; stroke-width: 0.8"/>
      </g>
     </g>
     <g id="text_8">
      <!-- 0.5 -->
      <g transform="translate(34.696875 130.889224)scale(0.1 -0.1)">
       <defs>
        <path id="DejaVuSans-2e" d="M 684 794 
L 1344 794 
L 1344 0 
L 684 0 
L 684 794 
z
" transform="scale(0.015625)"/>
        <path id="DejaVuSans-35" d="M 691 4666 
L 3169 4666 
L 3169 4134 
L 1269 4134 
L 1269 2991 
Q 1406 3038 1543 3061 
Q 1681 3084 1819 3084 
Q 2600 3084 3056 2656 
Q 3513 2228 3513 1497 
Q 3513 744 3044 326 
Q 2575 -91 1722 -91 
Q 1428 -91 1123 -41 
Q 819 9 494 109 
L 494 744 
Q 775 591 1075 516 
Q 1375 441 1709 441 
Q 2250 441 2565 725 
Q 2881 1009 2881 1497 
Q 2881 1984 2565 2268 
Q 2250 2553 1709 2553 
Q 1456 2553 1204 2497 
Q 953 2441 691 2322 
L 691 4666 
z
" transform="scale(0.015625)"/>
       </defs>
       <use xlink:href="#DejaVuSans-30"/>
       <use xlink:href="#DejaVuSans-2e" x="63.623047"/>
       <use xlink:href="#DejaVuSans-35" x="95.410156"/>
      </g>
     </g>
    </g>
    <g id="ytick_4">
     <g id="line2d_22">
      <g>
       <use xlink:href="#mb6c9116008" x="57.6" y="100.599412" style="stroke: #000000; stroke-width: 0.8"/>
      </g>
     </g>
     <g id="text_9">
      <!-- 1.0 -->
      <g transform="translate(34.696875 104.398631)scale(0.1 -0.1)">
       <use xlink:href="#DejaVuSans-31"/>
       <use xlink:href="#DejaVuSans-2e" x="63.623047"/>
       <use xlink:href="#DejaVuSans-30" x="95.410156"/>
      </g>
     </g>
    </g>
   </g>
   <g id="line2d_23">
    <path d="M 73.832727 140.325517 
L 77.079273 125.399511 
L 80.325818 115.985357 
L 83.572364 110.155207 
L 86.818909 106.544017 
L 90.065455 104.302385 
L 93.312 102.910017 
L 96.558545 102.043789 
L 99.805091 101.503941 
L 103.051636 101.167349 
L 106.298182 100.956773 
L 109.544727 100.82478 
L 112.791273 100.742324 
L 116.037818 100.690404 
L 119.284364 100.657517 
L 122.530909 100.63611 
L 125.777455 99.231084 
L 129.024 99.030792 
L 132.270545 98.89101 
L 135.517091 98.79617 
L 138.763636 98.733271 
L 142.010182 98.694885 
L 145.256727 98.671034 
L 148.503273 98.65579 
L 151.749818 98.64462 
L 154.996364 98.635802 
L 158.242909 98.628766 
L 161.489455 98.623033 
L 164.736 98.618335 
L 167.982545 98.615172 
L 171.229091 98.645992 
L 174.475636 105.992112 
L 177.722182 110.324059 
L 180.968727 113.620021 
L 184.215273 116.205591 
L 187.461818 118.274138 
L 190.708364 119.939177 
L 193.954909 121.285662 
L 197.201455 122.375734 
L 200.448 123.257149 
L 203.694545 123.978757 
L 206.941091 124.563671 
L 210.187636 125.041335 
L 213.434182 125.430082 
L 216.680727 125.745434 
L 219.927273 125.996978 
L 223.173818 126.199376 
L 226.420364 126.362107 
L 229.666909 126.494483 
L 232.913455 126.603153 
L 236.16 126.69331 
L 239.406545 126.76772 
L 242.653091 126.826963 
L 245.899636 126.8746 
L 249.146182 126.913747 
L 252.392727 126.946223 
L 255.639273 126.973296 
L 258.885818 126.995808 
L 262.132364 127.014588 
L 265.378909 127.029681 
L 268.625455 127.065031 
L 271.872 132.014087 
L 275.118545 135.019935 
L 278.365091 136.880379 
L 281.611636 138.044409 
L 284.858182 138.78518 
L 288.104727 139.260663 
L 291.351273 139.569724 
L 294.597818 139.776616 
L 297.844364 139.912641 
L 301.090909 140.003279 
L 304.337455 140.071345 
L 307.584 140.116774 
L 310.830545 140.152077 
L 314.077091 140.179384 
L 317.323636 140.200312 
L 320.570182 140.217037 
L 323.816727 140.231629 
L 327.063273 140.24327 
L 330.309818 140.253424 
L 333.556364 140.261752 
L 336.802909 140.268446 
L 340.049455 140.274795 
L 343.296 140.281592 
L 346.542545 140.287334 
L 349.789091 140.291821 
L 353.035636 140.295933 
L 356.282182 140.299704 
L 359.528727 140.303071 
L 362.775273 140.306213 
L 366.021818 140.308969 
L 369.268364 140.311551 
L 372.514909 140.313794 
L 375.761455 140.315771 
L 379.008 140.317574 
L 382.254545 140.319238 
L 385.501091 140.320735 
L 388.747636 140.322104 
L 391.994182 140.323326 
L 395.240727 140.324428 
L 398.487273 140.32542 
" clip-path="url(#pd9eb3d9b36)" style="fill: none; stroke: #1f77b4; stroke-width: 1.5; stroke-linecap: square"/>
   </g>
   <g id="line2d_24">
    <path d="M 73.832727 140.156504 
L 77.079273 134.984371 
L 80.325818 127.959905 
L 83.572364 121.377114 
L 86.818909 115.895421 
L 90.065455 111.619587 
L 93.312 108.422136 
L 96.558545 106.097167 
L 99.805091 104.436192 
L 103.051636 103.264489 
L 106.298182 102.444773 
L 109.544727 101.87571 
L 112.791273 101.482495 
L 116.037818 101.21064 
L 119.284364 101.022347 
L 122.530909 100.889947 
L 125.777455 100.067331 
L 129.024 99.921796 
L 132.270545 99.820947 
L 135.517091 99.75305 
L 138.763636 99.708376 
L 142.010182 99.681446 
L 145.256727 99.664855 
L 148.503273 99.654309 
L 151.749818 99.646502 
L 154.996364 99.640263 
L 158.242909 99.635245 
L 161.489455 99.631134 
L 164.736 99.627786 
L 167.982545 99.625543 
L 171.229091 99.623867 
L 174.475636 107.233603 
L 177.722182 112.008657 
L 180.968727 115.433724 
L 184.215273 117.979491 
L 187.461818 119.923162 
L 190.708364 121.423593 
L 193.954909 122.593264 
L 197.201455 123.508434 
L 200.448 124.227163 
L 203.694545 124.800334 
L 206.941091 125.254059 
L 210.187636 125.617267 
L 213.434182 125.907717 
L 216.680727 126.139657 
L 219.927273 126.321738 
L 223.173818 126.466877 
L 226.420364 126.581475 
L 229.666909 126.674603 
L 232.913455 126.752132 
L 236.16 126.814345 
L 239.406545 126.865475 
L 242.653091 126.908212 
L 245.899636 126.941768 
L 249.146182 126.968944 
L 252.392727 126.991675 
L 255.639273 127.010223 
L 258.885818 127.025454 
L 262.132364 127.038238 
L 265.378909 127.048625 
L 268.625455 127.058579 
L 271.872 128.995455 
L 275.118545 130.510082 
L 278.365091 131.760202 
L 281.611636 132.816786 
L 284.858182 133.721718 
L 288.104727 134.499977 
L 291.351273 135.172664 
L 294.597818 135.756746 
L 297.844364 136.264085 
L 301.090909 136.707519 
L 304.337455 137.093939 
L 307.584 137.435846 
L 310.830545 137.736828 
L 314.077091 138.003295 
L 317.323636 138.239849 
L 320.570182 138.448495 
L 323.816727 138.63701 
L 327.063273 138.802703 
L 330.309818 138.950263 
L 333.556364 139.082235 
L 336.802909 139.201838 
L 340.049455 139.308919 
L 343.296 139.404764 
L 346.542545 139.491052 
L 349.789091 139.569181 
L 353.035636 139.640032 
L 356.282182 139.704829 
L 359.528727 139.762923 
L 362.775273 139.816152 
L 366.021818 139.863135 
L 369.268364 139.907206 
L 372.514909 139.946519 
L 375.761455 139.9819 
L 379.008 140.014238 
L 382.254545 140.043876 
L 385.501091 140.070592 
L 388.747636 140.095106 
L 391.994182 140.11708 
L 395.240727 140.136952 
L 398.487273 140.154893 
" clip-path="url(#pd9eb3d9b36)" style="fill: none; stroke: #ff7f0e; stroke-width: 1.5; stroke-linecap: square"/>
   </g>
   <g id="line2d_25">
    <path d="M 73.832727 140.093293 
L 77.079273 137.586136 
L 80.325818 132.14903 
L 83.572364 125.568566 
L 86.818909 119.414274 
L 90.065455 114.35059 
L 93.312 110.46344 
L 96.558545 107.586067 
L 99.805091 105.507578 
L 103.051636 104.028088 
L 106.298182 102.985711 
L 109.544727 102.257478 
L 112.791273 101.751453 
L 116.037818 101.399888 
L 119.284364 101.155299 
L 122.530909 100.979836 
L 125.777455 100.577077 
L 129.024 100.56697 
L 132.270545 100.560133 
L 135.517091 100.555651 
L 138.763636 100.552784 
L 142.010182 100.551132 
L 145.256727 100.550144 
L 148.503273 100.549529 
L 151.749818 100.549052 
L 154.996364 100.548652 
L 158.242909 100.548322 
L 161.489455 100.548047 
L 164.736 100.547828 
L 167.982545 100.547683 
L 171.229091 100.547939 
L 174.475636 110.732496 
L 177.722182 116.920767 
L 180.968727 120.725529 
L 184.215273 123.069953 
L 187.461818 124.53391 
L 190.708364 125.447711 
L 193.954909 126.026825 
L 197.201455 126.388967 
L 200.448 126.622255 
L 203.694545 126.772959 
L 206.941091 126.870715 
L 210.187636 126.935609 
L 213.434182 126.979535 
L 216.680727 127.009441 
L 219.927273 127.029406 
L 223.173818 127.044516 
L 226.420364 127.051922 
L 229.666909 127.059197 
L 232.913455 127.06999 
L 236.16 127.070185 
L 239.406545 127.069396 
L 242.653091 127.078092 
L 245.899636 127.082474 
L 249.146182 127.084487 
L 252.392727 127.086124 
L 255.639273 127.086826 
L 258.885818 127.086599 
L 262.132364 127.086773 
L 265.378909 127.087421 
L 268.625455 127.081706 
L 271.872 128.362626 
L 275.118545 129.542254 
L 278.365091 130.622146 
L 281.611636 131.606272 
L 284.858182 132.497136 
L 288.104727 133.298822 
L 291.351273 134.017428 
L 294.597818 134.66053 
L 297.844364 135.234333 
L 301.090909 135.747336 
L 304.337455 136.203258 
L 307.584 136.613311 
L 310.830545 136.979488 
L 314.077091 137.307452 
L 317.323636 137.601759 
L 320.570182 137.864217 
L 323.816727 138.102616 
L 327.063273 138.314326 
L 330.309818 138.504058 
L 333.556364 138.674967 
L 336.802909 138.830712 
L 340.049455 138.970523 
L 343.296 139.095534 
L 346.542545 139.208497 
L 349.789091 139.311179 
L 353.035636 139.404557 
L 356.282182 139.490189 
L 359.528727 139.567335 
L 362.775273 139.638119 
L 366.021818 139.700908 
L 369.268364 139.759361 
L 372.514909 139.811832 
L 375.761455 139.859059 
L 379.008 139.902283 
L 382.254545 139.94198 
L 385.501091 139.977828 
L 388.747636 140.01074 
L 391.994182 140.04029 
L 395.240727 140.067038 
L 398.487273 140.091208 
" clip-path="url(#pd9eb3d9b36)" style="fill: none; stroke: #2ca02c; stroke-width: 1.5; stroke-linecap: square"/>
   </g>
   <g id="patch_9">
    <path d="M 57.6 142.411034 
L 57.6 96.529655 
" style="fill: none; stroke: #000000; stroke-width: 0.8; stroke-linejoin: miter; stroke-linecap: square"/>
   </g>
   <g id="patch_10">
    <path d="M 414.72 142.411034 
L 414.72 96.529655 
" style="fill: none; stroke: #000000; stroke-width: 0.8; stroke-linejoin: miter; stroke-linecap: square"/>
   </g>
   <g id="patch_11">
    <path d="M 57.6 142.411034 
L 414.72 142.411034 
" style="fill: none; stroke: #000000; stroke-width: 0.8; stroke-linejoin: miter; stroke-linecap: square"/>
   </g>
   <g id="patch_12">
    <path d="M 57.6 96.529655 
L 414.72 96.529655 
" style="fill: none; stroke: #000000; stroke-width: 0.8; stroke-linejoin: miter; stroke-linecap: square"/>
   </g>
   <g id="text_10">
    <!-- Pressure -->
    <g transform="translate(210.546562 90.529655)scale(0.12 -0.12)">
     <defs>
      <path id="DejaVuSans-50" d="M 1259 4147 
L 1259 2394 
L 2053 2394 
Q 2494 2394 2734 2622 
Q 2975 2850 2975 3272 
Q 2975 3691 2734 3919 
Q 2494 4147 2053 4147 
L 1259 4147 
z
M 628 4666 
L 2053 4666 
Q 2838 4666 3239 4311 
Q 3641 3956 3641 3272 
Q 3641 2581 3239 2228 
Q 2838 1875 2053 1875 
L 1259 1875 
L 1259 0 
L 628 0 
L 628 4666 
z
" transform="scale(0.015625)"/>
      <path id="DejaVuSans-75" d="M 544 1381 
L 544 3500 
L 1119 3500 
L 1119 1403 
Q 1119 906 1312 657 
Q 1506 409 1894 409 
Q 2359 409 2629 706 
Q 2900 1003 2900 1516 
L 2900 3500 
L 3475 3500 
L 3475 0 
L 2900 0 
L 2900 538 
Q 2691 219 2414 64 
Q 2138 -91 1772 -91 
Q 1169 -91 856 284 
Q 544 659 544 1381 
z
M 1991 3584 
L 1991 3584 
z
" transform="scale(0.015625)"/>
     </defs>
     <use xlink:href="#DejaVuSans-50"/>
     <use xlink:href="#DejaVuSans-72" x="58.552734"/>
     <use xlink:href="#DejaVuSans-65" x="97.416016"/>
     <use xlink:href="#DejaVuSans-73" x="158.939453"/>
     <use xlink:href="#DejaVuSans-73" x="211.039062"/>
     <use xlink:href="#DejaVuSans-75" x="263.138672"/>
     <use xlink:href="#DejaVuSans-72" x="326.517578"/>
     <use xlink:href="#DejaVuSans-65" x="365.380859"/>
    </g>
   </g>
   <g id="legend_2">
    <g id="patch_13">
     <path d="M 350.823125 137.411034 
L 407.72 137.411034 
Q 409.72 137.411034 409.72 135.411034 
L 409.72 92.376659 
Q 409.72 90.376659 407.72 90.376659 
L 350.823125 90.376659 
Q 348.823125 90.376659 348.823125 92.376659 
L 348.823125 135.411034 
Q 348.823125 137.411034 350.823125 137.411034 
z
" style="fill: #ffffff; opacity: 0.8; stroke: #cccccc; stroke-linejoin: miter"/>
    </g>
    <g id="line2d_26">
     <path d="M 352.823125 98.475097 
L 362.823125 98.475097 
L 372.823125 98.475097 
" style="fill: none; stroke: #1f77b4; stroke-width: 1.5; stroke-linecap: square"/>
    </g>
    <g id="text_11">
     <!-- P1 -->
     <g transform="translate(380.823125 101.975097)scale(0.1 -0.1)">
      <use xlink:href="#DejaVuSans-50"/>
      <use xlink:href="#DejaVuSans-31" x="60.302734"/>
     </g>
    </g>
    <g id="line2d_27">
     <path d="M 352.823125 113.153222 
L 362.823125 113.153222 
L 372.823125 113.153222 
" style="fill: none; stroke: #ff7f0e; stroke-width: 1.5; stroke-linecap: square"/>
    </g>
    <g id="text_12">
     <!-- Pmid -->
     <g transform="translate(380.823125 116.653222)scale(0.1 -0.1)">
      <use xlink:href="#DejaVuSans-50"/>
      <use xlink:href="#DejaVuSans-6d" x="60.302734"/>
      <use xlink:href="#DejaVuSans-69" x="157.714844"/>
      <use xlink:href="#DejaVuSans-64" x="185.498047"/>
     </g>
    </g>
    <g id="line2d_28">
     <path d="M 352.823125 127.831347 
L 362.823125 127.831347 
L 372.823125 127.831347 
" style="fill: none; stroke: #2ca02c; stroke-width: 1.5; stroke-linecap: square"/>
    </g>
    <g id="text_13">
     <!-- PN -->
     <g transform="translate(380.823125 131.331347)scale(0.1 -0.1)">
      <use xlink:href="#DejaVuSans-50"/>
      <use xlink:href="#DejaVuSans-4e" x="60.302734"/>
     </g>
    </g>
   </g>
  </g>
  <g id="axes_3">
   <g id="patch_14">
    <path d="M 57.6 197.46869 
L 414.72 197.46869 
L 414.72 151.58731 
L 57.6 151.58731 
z
" style="fill: #ffffff"/>
   </g>
   <g id="matplotlib.axis_5">
    <g id="xtick_13">
     <g id="line2d_29">
      <g>
       <use xlink:href="#m6fda7bd230" x="73.832727" y="197.46869" style="stroke: #000000; stroke-width: 0.8"/>
      </g>
     </g>
    </g>
    <g id="xtick_14">
     <g id="line2d_30">
      <g>
       <use xlink:href="#m6fda7bd230" x="138.763636" y="197.46869" style="stroke: #000000; stroke-width: 0.8"/>
      </g>
     </g>
    </g>
    <g id="xtick_15">
     <g id="line2d_31">
      <g>
       <use xlink:href="#m6fda7bd230" x="203.694545" y="197.46869" style="stroke: #000000; stroke-width: 0.8"/>
      </g>
     </g>
    </g>
    <g id="xtick_16">
     <g id="line2d_32">
      <g>
       <use xlink:href="#m6fda7bd230" x="268.625455" y="197.46869" style="stroke: #000000; stroke-width: 0.8"/>
      </g>
     </g>
    </g>
    <g id="xtick_17">
     <g id="line2d_33">
      <g>
       <use xlink:href="#m6fda7bd230" x="333.556364" y="197.46869" style="stroke: #000000; stroke-width: 0.8"/>
      </g>
     </g>
    </g>
    <g id="xtick_18">
     <g id="line2d_34">
      <g>
       <use xlink:href="#m6fda7bd230" x="398.487273" y="197.46869" style="stroke: #000000; stroke-width: 0.8"/>
      </g>
     </g>
    </g>
   </g>
   <g id="matplotlib.axis_6">
    <g id="ytick_5">
     <g id="line2d_35">
      <g>
       <use xlink:href="#mb6c9116008" x="57.6" y="186.403594" style="stroke: #000000; stroke-width: 0.8"/>
      </g>
     </g>
     <g id="text_14">
      <!-- 0.05 -->
      <g transform="translate(28.334375 190.202813)scale(0.1 -0.1)">
       <use xlink:href="#DejaVuSans-30"/>
       <use xlink:href="#DejaVuSans-2e" x="63.623047"/>
       <use xlink:href="#DejaVuSans-30" x="95.410156"/>
       <use xlink:href="#DejaVuSans-35" x="159.033203"/>
      </g>
     </g>
    </g>
    <g id="ytick_6">
     <g id="line2d_36">
      <g>
       <use xlink:href="#mb6c9116008" x="57.6" y="157.501702" style="stroke: #000000; stroke-width: 0.8"/>
      </g>
     </g>
     <g id="text_15">
      <!-- 0.10 -->
      <g transform="translate(28.334375 161.30092)scale(0.1 -0.1)">
       <use xlink:href="#DejaVuSans-30"/>
       <use xlink:href="#DejaVuSans-2e" x="63.623047"/>
       <use xlink:href="#DejaVuSans-31" x="95.410156"/>
       <use xlink:href="#DejaVuSans-30" x="159.033203"/>
      </g>
     </g>
    </g>
    <g id="text_16">
     <!-- fraction -->
     <g transform="translate(22.254687 193.73425)rotate(-90)scale(0.1 -0.1)">
      <use xlink:href="#DejaVuSans-66"/>
      <use xlink:href="#DejaVuSans-72" x="35.205078"/>
      <use xlink:href="#DejaVuSans-61" x="76.318359"/>
      <use xlink:href="#DejaVuSans-63" x="137.597656"/>
      <use xlink:href="#DejaVuSans-74" x="192.578125"/>
      <use xlink:href="#DejaVuSans-69" x="231.787109"/>
      <use xlink:href="#DejaVuSans-6f" x="259.570312"/>
      <use xlink:href="#DejaVuSans-6e" x="320.751953"/>
     </g>
    </g>
   </g>
   <g id="line2d_37">
    <path d="M 73.832727 153.672828 
L 77.079273 181.823429 
L 80.325818 187.26203 
L 83.572364 189.23414 
L 86.818909 190.123267 
L 90.065455 190.57135 
L 93.312 190.810406 
L 96.558545 190.941682 
L 99.805091 191.014542 
L 103.051636 191.054911 
L 106.298182 191.077103 
L 109.544727 191.089049 
L 112.791273 191.095251 
L 116.037818 191.098353 
L 119.284364 191.099803 
L 122.530909 191.100364 
L 125.777455 191.372565 
L 129.024 191.384049 
L 132.270545 191.38062 
L 135.517091 191.366318 
L 138.763636 191.344376 
L 142.010182 191.316652 
L 145.256727 191.28562 
L 148.503273 191.252718 
L 151.749818 191.21906 
L 154.996364 191.185047 
L 158.242909 191.150806 
L 161.489455 191.11645 
L 164.736 191.082108 
L 167.982545 191.047677 
L 171.229091 191.015673 
L 174.475636 188.993211 
L 177.722182 187.450039 
L 180.968727 186.057244 
L 184.215273 184.789021 
L 187.461818 183.647764 
L 190.708364 182.625558 
L 193.954909 181.730847 
L 197.201455 180.935999 
L 200.448 180.265168 
L 203.694545 179.677473 
L 206.941091 179.184036 
L 210.187636 178.764874 
L 213.434182 178.414762 
L 216.680727 178.123516 
L 219.927273 177.886162 
L 223.173818 177.692565 
L 226.420364 177.528674 
L 229.666909 177.397233 
L 232.913455 177.298011 
L 236.16 177.199064 
L 239.406545 177.115844 
L 242.653091 177.067878 
L 245.899636 177.023379 
L 249.146182 176.984524 
L 252.392727 176.954968 
L 255.639273 176.926023 
L 258.885818 176.900073 
L 262.132364 176.879474 
L 265.378909 176.864357 
L 268.625455 176.831891 
L 271.872 170.909998 
L 275.118545 165.951521 
L 278.365091 162.113401 
L 281.611636 159.355162 
L 284.858182 157.377302 
L 288.104727 156.06638 
L 291.351273 155.21123 
L 294.597818 154.651251 
L 297.844364 154.303083 
L 301.090909 154.072327 
L 304.337455 153.952805 
L 307.584 153.858545 
L 310.830545 153.803435 
L 314.077091 153.766076 
L 317.323636 153.746143 
L 320.570182 153.735239 
L 323.816727 153.72644 
L 327.063273 153.722896 
L 330.309818 153.720149 
L 333.556364 153.720125 
L 336.802909 153.722874 
L 340.049455 153.723695 
L 343.296 153.720011 
L 346.542545 153.718314 
L 349.789091 153.719942 
L 353.035636 153.720976 
L 356.282182 153.721498 
L 359.528727 153.722395 
L 362.775273 153.723057 
L 366.021818 153.723759 
L 369.268364 153.72363 
L 372.514909 153.724314 
L 375.761455 153.725074 
L 379.008 153.725788 
L 382.254545 153.726409 
L 385.501091 153.726989 
L 388.747636 153.727561 
L 391.994182 153.72811 
L 395.240727 153.728637 
L 398.487273 153.729145 
" clip-path="url(#p1b53011160)" style="fill: none; stroke: #1f77b4; stroke-width: 1.5; stroke-linecap: square"/>
   </g>
   <g id="line2d_38">
    <path d="M 73.832727 162.672288 
L 77.079273 169.451607 
L 80.325818 178.79773 
L 83.572364 185.313648 
L 86.818909 189.152199 
L 90.065455 191.414777 
L 93.312 192.787038 
L 96.558545 193.656052 
L 99.805091 194.218935 
L 103.051636 194.590953 
L 106.298182 194.840006 
L 109.544727 195.008248 
L 112.791273 195.122052 
L 116.037818 195.19982 
L 119.284364 195.253402 
L 122.530909 195.291224 
L 125.777455 195.378078 
L 129.024 195.380103 
L 132.270545 195.381444 
L 135.517091 195.382287 
L 138.763636 195.382792 
L 142.010182 195.383039 
L 145.256727 195.383145 
L 148.503273 195.383172 
L 151.749818 195.383171 
L 154.996364 195.383157 
L 158.242909 195.383127 
L 161.489455 195.383085 
L 164.736 195.38303 
L 167.982545 195.382959 
L 171.229091 195.382858 
L 174.475636 192.720693 
L 177.722182 190.410339 
L 180.968727 188.578733 
L 184.215273 187.20946 
L 187.461818 186.251596 
L 190.708364 185.598865 
L 193.954909 185.176387 
L 197.201455 184.880226 
L 200.448 184.702867 
L 203.694545 184.576617 
L 206.941091 184.497216 
L 210.187636 184.443727 
L 213.434182 184.407427 
L 216.680727 184.382564 
L 219.927273 184.365856 
L 223.173818 184.35314 
L 226.420364 184.346621 
L 229.666909 184.340512 
L 232.913455 184.331975 
L 236.16 184.330782 
L 239.406545 184.330454 
L 242.653091 184.324092 
L 245.899636 184.321087 
L 249.146182 184.319641 
L 252.392727 184.31789 
L 255.639273 184.317361 
L 258.885818 184.317368 
L 262.132364 184.317117 
L 265.378909 184.316566 
L 268.625455 184.321077 
L 271.872 183.198695 
L 275.118545 182.061068 
L 278.365091 180.918573 
L 281.611636 179.783279 
L 284.858182 178.661884 
L 288.104727 177.571974 
L 291.351273 176.520045 
L 294.597818 175.513134 
L 297.844364 174.555254 
L 301.090909 173.644938 
L 304.337455 172.794662 
L 307.584 171.986922 
L 310.830545 171.235936 
L 314.077091 170.535021 
L 317.323636 169.880373 
L 320.570182 169.275253 
L 323.816727 168.712424 
L 327.063273 168.195682 
L 330.309818 167.72272 
L 333.556364 167.280941 
L 336.802909 166.860728 
L 340.049455 166.483261 
L 343.296 166.156286 
L 346.542545 165.850332 
L 349.789091 165.55732 
L 353.035636 165.289685 
L 356.282182 165.044242 
L 359.528727 164.812973 
L 362.775273 164.599601 
L 366.021818 164.404882 
L 369.268364 164.241408 
L 372.514909 164.080338 
L 375.761455 163.934598 
L 379.008 163.801034 
L 382.254545 163.678434 
L 385.501091 163.567465 
L 388.747636 163.464862 
L 391.994182 163.372153 
L 395.240727 163.287828 
L 398.487273 163.211289 
" clip-path="url(#p1b53011160)" style="fill: none; stroke: #ff7f0e; stroke-width: 1.5; stroke-linecap: square"/>
   </g>
   <g id="patch_15">
    <path d="M 57.6 197.46869 
L 57.6 151.58731 
" style="fill: none; stroke: #000000; stroke-width: 0.8; stroke-linejoin: miter; stroke-linecap: square"/>
   </g>
   <g id="patch_16">
    <path d="M 414.72 197.46869 
L 414.72 151.58731 
" style="fill: none; stroke: #000000; stroke-width: 0.8; stroke-linejoin: miter; stroke-linecap: square"/>
   </g>
   <g id="patch_17">
    <path d="M 57.6 197.46869 
L 414.72 197.46869 
" style="fill: none; stroke: #000000; stroke-width: 0.8; stroke-linejoin: miter; stroke-linecap: square"/>
   </g>
   <g id="patch_18">
    <path d="M 57.6 151.58731 
L 414.72 151.58731 
" style="fill: none; stroke: #000000; stroke-width: 0.8; stroke-linejoin: miter; stroke-linecap: square"/>
   </g>
   <g id="text_17">
    <!-- yA -->
    <g transform="translate(228.504375 145.58731)scale(0.12 -0.12)">
     <defs>
      <path id="DejaVuSans-41" d="M 2188 4044 
L 1331 1722 
L 3047 1722 
L 2188 4044 
z
M 1831 4666 
L 2547 4666 
L 4325 0 
L 3669 0 
L 3244 1197 
L 1141 1197 
L 716 0 
L 50 0 
L 1831 4666 
z
" transform="scale(0.015625)"/>
     </defs>
     <use xlink:href="#DejaVuSans-79"/>
     <use xlink:href="#DejaVuSans-41" x="59.179688"/>
    </g>
   </g>
   <g id="legend_3">
    <g id="patch_19">
     <path d="M 64.6 188.94356 
L 142.289062 188.94356 
Q 144.289062 188.94356 144.289062 186.94356 
L 144.289062 158.58731 
Q 144.289062 156.58731 142.289062 156.58731 
L 64.6 156.58731 
Q 62.6 156.58731 62.6 158.58731 
L 62.6 186.94356 
Q 62.6 188.94356 64.6 188.94356 
z
" style="fill: #ffffff; opacity: 0.8; stroke: #cccccc; stroke-linejoin: miter"/>
    </g>
    <g id="line2d_39">
     <path d="M 66.6 164.685748 
L 76.6 164.685748 
L 86.6 164.685748 
" style="fill: none; stroke: #1f77b4; stroke-width: 1.5; stroke-linecap: square"/>
    </g>
    <g id="text_18">
     <!-- yA0 (in) -->
     <g transform="translate(94.6 168.185748)scale(0.1 -0.1)">
      <use xlink:href="#DejaVuSans-79"/>
      <use xlink:href="#DejaVuSans-41" x="59.179688"/>
      <use xlink:href="#DejaVuSans-30" x="127.587891"/>
      <use xlink:href="#DejaVuSans-20" x="191.210938"/>
      <use xlink:href="#DejaVuSans-28" x="222.998047"/>
      <use xlink:href="#DejaVuSans-69" x="262.011719"/>
      <use xlink:href="#DejaVuSans-6e" x="289.794922"/>
      <use xlink:href="#DejaVuSans-29" x="353.173828"/>
     </g>
    </g>
    <g id="line2d_40">
     <path d="M 66.6 179.363873 
L 76.6 179.363873 
L 86.6 179.363873 
" style="fill: none; stroke: #ff7f0e; stroke-width: 1.5; stroke-linecap: square"/>
    </g>
    <g id="text_19">
     <!-- yAL (out) -->
     <g transform="translate(94.6 182.863873)scale(0.1 -0.1)">
      <defs>
       <path id="DejaVuSans-4c" d="M 628 4666 
L 1259 4666 
L 1259 531 
L 3531 531 
L 3531 0 
L 628 0 
L 628 4666 
z
" transform="scale(0.015625)"/>
      </defs>
      <use xlink:href="#DejaVuSans-79"/>
      <use xlink:href="#DejaVuSans-41" x="59.179688"/>
      <use xlink:href="#DejaVuSans-4c" x="127.587891"/>
      <use xlink:href="#DejaVuSans-20" x="183.300781"/>
      <use xlink:href="#DejaVuSans-28" x="215.087891"/>
      <use xlink:href="#DejaVuSans-6f" x="254.101562"/>
      <use xlink:href="#DejaVuSans-75" x="315.283203"/>
      <use xlink:href="#DejaVuSans-74" x="378.662109"/>
      <use xlink:href="#DejaVuSans-29" x="417.871094"/>
     </g>
    </g>
   </g>
  </g>
  <g id="axes_4">
   <g id="patch_20">
    <path d="M 57.6 252.526345 
L 414.72 252.526345 
L 414.72 206.644966 
L 57.6 206.644966 
z
" style="fill: #ffffff"/>
   </g>
   <g id="matplotlib.axis_7">
    <g id="xtick_19">
     <g id="line2d_41">
      <g>
       <use xlink:href="#m6fda7bd230" x="73.832727" y="252.526345" style="stroke: #000000; stroke-width: 0.8"/>
      </g>
     </g>
    </g>
    <g id="xtick_20">
     <g id="line2d_42">
      <g>
       <use xlink:href="#m6fda7bd230" x="138.763636" y="252.526345" style="stroke: #000000; stroke-width: 0.8"/>
      </g>
     </g>
    </g>
    <g id="xtick_21">
     <g id="line2d_43">
      <g>
       <use xlink:href="#m6fda7bd230" x="203.694545" y="252.526345" style="stroke: #000000; stroke-width: 0.8"/>
      </g>
     </g>
    </g>
    <g id="xtick_22">
     <g id="line2d_44">
      <g>
       <use xlink:href="#m6fda7bd230" x="268.625455" y="252.526345" style="stroke: #000000; stroke-width: 0.8"/>
      </g>
     </g>
    </g>
    <g id="xtick_23">
     <g id="line2d_45">
      <g>
       <use xlink:href="#m6fda7bd230" x="333.556364" y="252.526345" style="stroke: #000000; stroke-width: 0.8"/>
      </g>
     </g>
    </g>
    <g id="xtick_24">
     <g id="line2d_46">
      <g>
       <use xlink:href="#m6fda7bd230" x="398.487273" y="252.526345" style="stroke: #000000; stroke-width: 0.8"/>
      </g>
     </g>
    </g>
   </g>
   <g id="matplotlib.axis_8">
    <g id="ytick_7">
     <g id="line2d_47">
      <g>
       <use xlink:href="#mb6c9116008" x="57.6" y="244.855833" style="stroke: #000000; stroke-width: 0.8"/>
      </g>
     </g>
     <g id="text_20">
      <!-- 0.85 -->
      <g transform="translate(28.334375 248.655051)scale(0.1 -0.1)">
       <defs>
        <path id="DejaVuSans-38" d="M 2034 2216 
Q 1584 2216 1326 1975 
Q 1069 1734 1069 1313 
Q 1069 891 1326 650 
Q 1584 409 2034 409 
Q 2484 409 2743 651 
Q 3003 894 3003 1313 
Q 3003 1734 2745 1975 
Q 2488 2216 2034 2216 
z
M 1403 2484 
Q 997 2584 770 2862 
Q 544 3141 544 3541 
Q 544 4100 942 4425 
Q 1341 4750 2034 4750 
Q 2731 4750 3128 4425 
Q 3525 4100 3525 3541 
Q 3525 3141 3298 2862 
Q 3072 2584 2669 2484 
Q 3125 2378 3379 2068 
Q 3634 1759 3634 1313 
Q 3634 634 3220 271 
Q 2806 -91 2034 -91 
Q 1263 -91 848 271 
Q 434 634 434 1313 
Q 434 1759 690 2068 
Q 947 2378 1403 2484 
z
M 1172 3481 
Q 1172 3119 1398 2916 
Q 1625 2713 2034 2713 
Q 2441 2713 2670 2916 
Q 2900 3119 2900 3481 
Q 2900 3844 2670 4047 
Q 2441 4250 2034 4250 
Q 1625 4250 1398 4047 
Q 1172 3844 1172 3481 
z
" transform="scale(0.015625)"/>
       </defs>
       <use xlink:href="#DejaVuSans-30"/>
       <use xlink:href="#DejaVuSans-2e" x="63.623047"/>
       <use xlink:href="#DejaVuSans-38" x="95.410156"/>
       <use xlink:href="#DejaVuSans-35" x="159.033203"/>
      </g>
     </g>
    </g>
    <g id="ytick_8">
     <g id="line2d_48">
      <g>
       <use xlink:href="#mb6c9116008" x="57.6" y="219.769439" style="stroke: #000000; stroke-width: 0.8"/>
      </g>
     </g>
     <g id="text_21">
      <!-- 0.90 -->
      <g transform="translate(28.334375 223.568658)scale(0.1 -0.1)">
       <defs>
        <path id="DejaVuSans-39" d="M 703 97 
L 703 672 
Q 941 559 1184 500 
Q 1428 441 1663 441 
Q 2288 441 2617 861 
Q 2947 1281 2994 2138 
Q 2813 1869 2534 1725 
Q 2256 1581 1919 1581 
Q 1219 1581 811 2004 
Q 403 2428 403 3163 
Q 403 3881 828 4315 
Q 1253 4750 1959 4750 
Q 2769 4750 3195 4129 
Q 3622 3509 3622 2328 
Q 3622 1225 3098 567 
Q 2575 -91 1691 -91 
Q 1453 -91 1209 -44 
Q 966 3 703 97 
z
M 1959 2075 
Q 2384 2075 2632 2365 
Q 2881 2656 2881 3163 
Q 2881 3666 2632 3958 
Q 2384 4250 1959 4250 
Q 1534 4250 1286 3958 
Q 1038 3666 1038 3163 
Q 1038 2656 1286 2365 
Q 1534 2075 1959 2075 
z
" transform="scale(0.015625)"/>
       </defs>
       <use xlink:href="#DejaVuSans-30"/>
       <use xlink:href="#DejaVuSans-2e" x="63.623047"/>
       <use xlink:href="#DejaVuSans-39" x="95.410156"/>
       <use xlink:href="#DejaVuSans-30" x="159.033203"/>
      </g>
     </g>
    </g>
    <g id="text_22">
     <!-- fraction -->
     <g transform="translate(22.254687 248.791905)rotate(-90)scale(0.1 -0.1)">
      <use xlink:href="#DejaVuSans-66"/>
      <use xlink:href="#DejaVuSans-72" x="35.205078"/>
      <use xlink:href="#DejaVuSans-61" x="76.318359"/>
      <use xlink:href="#DejaVuSans-63" x="137.597656"/>
      <use xlink:href="#DejaVuSans-74" x="192.578125"/>
      <use xlink:href="#DejaVuSans-69" x="231.787109"/>
      <use xlink:href="#DejaVuSans-6f" x="259.570312"/>
      <use xlink:href="#DejaVuSans-6e" x="320.751953"/>
     </g>
    </g>
   </g>
   <g id="line2d_49">
    <path d="M 73.832727 250.440828 
L 77.079273 223.410666 
L 80.325818 218.843948 
L 83.572364 217.236993 
L 86.818909 216.528579 
L 90.065455 216.179802 
L 93.312 215.99914 
L 96.558545 215.904066 
L 99.805091 215.854058 
L 103.051636 215.829189 
L 106.298182 215.817449 
L 109.544727 215.811797 
L 112.791273 215.810301 
L 116.037818 215.811076 
L 119.284364 215.812238 
L 122.530909 215.812397 
L 125.777455 215.565768 
L 129.024 215.566697 
L 132.270545 215.580999 
L 135.517091 215.604616 
L 138.763636 215.634328 
L 142.010182 215.668343 
L 145.256727 215.704251 
L 148.503273 215.740737 
L 151.749818 215.77679 
L 154.996364 215.812133 
L 158.242909 215.846798 
L 161.489455 215.880736 
L 164.736 215.913828 
L 167.982545 215.946344 
L 171.229091 215.976482 
L 174.475636 218.056413 
L 177.722182 219.617727 
L 180.968727 221.013219 
L 184.215273 222.274505 
L 187.461818 223.404129 
L 190.708364 224.411431 
L 193.954909 225.290928 
L 197.201455 226.068668 
L 200.448 226.72574 
L 203.694545 227.298866 
L 206.941091 227.78011 
L 210.187636 228.188516 
L 213.434182 228.529369 
L 216.680727 228.812667 
L 219.927273 229.043311 
L 223.173818 229.231252 
L 226.420364 229.390235 
L 229.666909 229.51785 
L 232.913455 229.614374 
L 236.16 229.709492 
L 239.406545 229.789324 
L 242.653091 229.836284 
L 245.899636 229.87991 
L 249.146182 229.917917 
L 252.392727 229.946476 
L 255.639273 229.974566 
L 258.885818 229.999465 
L 262.132364 230.019279 
L 265.378909 230.033904 
L 268.625455 230.06324 
L 271.872 235.555087 
L 275.118545 239.98443 
L 278.365091 243.346971 
L 281.611636 245.736744 
L 284.858182 247.430373 
L 288.104727 248.542451 
L 291.351273 249.25828 
L 294.597818 249.719811 
L 297.844364 249.999825 
L 301.090909 250.181603 
L 304.337455 250.268144 
L 307.584 250.336985 
L 310.830545 250.373755 
L 314.077091 250.396677 
L 317.323636 250.40612 
L 320.570182 250.409325 
L 323.816727 250.411795 
L 327.063273 250.410964 
L 330.309818 250.410423 
L 333.556364 250.408068 
L 336.802909 250.403463 
L 340.049455 250.401326 
L 343.296 250.404085 
L 346.542545 250.405022 
L 349.789091 250.402625 
L 353.035636 250.401105 
L 356.282182 250.400354 
L 359.528727 250.399081 
L 362.775273 250.398053 
L 366.021818 250.397042 
L 369.268364 250.397397 
L 372.514909 250.396623 
L 375.761455 250.395837 
L 379.008 250.395124 
L 382.254545 250.394515 
L 385.501091 250.393971 
L 388.747636 250.393437 
L 391.994182 250.392938 
L 395.240727 250.392467 
L 398.487273 250.39202 
" clip-path="url(#p4127ee31b6)" style="fill: none; stroke: #1f77b4; stroke-width: 1.5; stroke-linecap: square"/>
   </g>
   <g id="line2d_50">
    <path d="M 73.832727 241.30596 
L 77.079273 234.953237 
L 80.325818 225.862593 
L 83.572364 219.26794 
L 86.818909 215.282111 
L 90.065455 212.904326 
L 93.312 211.455124 
L 96.558545 210.53545 
L 99.805091 209.939625 
L 103.051636 209.545898 
L 106.298182 209.282452 
L 109.544727 209.104491 
L 112.791273 208.984198 
L 116.037818 208.902067 
L 119.284364 208.845558 
L 122.530909 208.805721 
L 125.777455 208.730483 
L 129.024 208.740741 
L 132.270545 208.752028 
L 135.517091 208.764128 
L 138.763636 208.776768 
L 142.010182 208.789877 
L 145.256727 208.803271 
L 148.503273 208.816877 
L 151.749818 208.830602 
L 154.996364 208.844413 
L 158.242909 208.858415 
L 161.489455 208.872636 
L 164.736 208.887134 
L 167.982545 208.901941 
L 171.229091 208.916988 
L 174.475636 211.774604 
L 177.722182 214.179999 
L 180.968727 216.06564 
L 184.215273 217.477884 
L 187.461818 218.482058 
L 190.708364 219.181226 
L 193.954909 219.649867 
L 197.201455 219.985277 
L 200.448 220.200875 
L 203.694545 220.357459 
L 206.941091 220.463276 
L 210.187636 220.538796 
L 213.434182 220.593277 
L 216.680727 220.633128 
L 219.927273 220.662043 
L 223.173818 220.684791 
L 226.420364 220.699478 
L 229.666909 220.712112 
L 232.913455 220.725814 
L 236.16 220.732327 
L 239.406545 220.737188 
L 242.653091 220.746024 
L 245.899636 220.751092 
L 249.146182 220.754354 
L 252.392727 220.757832 
L 255.639273 220.759867 
L 258.885818 220.761387 
L 262.132364 220.762865 
L 265.378909 220.764324 
L 268.625455 220.760829 
L 271.872 221.865416 
L 275.118545 222.979648 
L 278.365091 224.091936 
L 281.611636 225.191901 
L 284.858182 226.27338 
L 288.104727 227.320739 
L 291.351273 228.328268 
L 294.597818 229.289848 
L 297.844364 230.202244 
L 301.090909 231.0669 
L 304.337455 231.873696 
L 307.584 232.637539 
L 310.830545 233.3468 
L 314.077091 234.007949 
L 317.323636 234.624569 
L 320.570182 235.193778 
L 323.816727 235.722677 
L 327.063273 236.207619 
L 330.309818 236.650985 
L 333.556364 237.064453 
L 336.802909 237.457009 
L 340.049455 237.809573 
L 343.296 238.11531 
L 346.542545 238.401179 
L 349.789091 238.674713 
L 353.035636 238.924265 
L 356.282182 239.152747 
L 359.528727 239.367978 
L 362.775273 239.566558 
L 366.021818 239.747599 
L 369.268364 239.899586 
L 372.514909 240.049578 
L 375.761455 240.185448 
L 379.008 240.309916 
L 382.254545 240.424028 
L 385.501091 240.527258 
L 388.747636 240.622732 
L 391.994182 240.708986 
L 395.240727 240.787453 
L 398.487273 240.8587 
" clip-path="url(#p4127ee31b6)" style="fill: none; stroke: #ff7f0e; stroke-width: 1.5; stroke-linecap: square"/>
   </g>
   <g id="patch_21">
    <path d="M 57.6 252.526345 
L 57.6 206.644966 
" style="fill: none; stroke: #000000; stroke-width: 0.8; stroke-linejoin: miter; stroke-linecap: square"/>
   </g>
   <g id="patch_22">
    <path d="M 414.72 252.526345 
L 414.72 206.644966 
" style="fill: none; stroke: #000000; stroke-width: 0.8; stroke-linejoin: miter; stroke-linecap: square"/>
   </g>
   <g id="patch_23">
    <path d="M 57.6 252.526345 
L 414.72 252.526345 
" style="fill: none; stroke: #000000; stroke-width: 0.8; stroke-linejoin: miter; stroke-linecap: square"/>
   </g>
   <g id="patch_24">
    <path d="M 57.6 206.644966 
L 414.72 206.644966 
" style="fill: none; stroke: #000000; stroke-width: 0.8; stroke-linejoin: miter; stroke-linecap: square"/>
   </g>
   <g id="text_23">
    <!-- yB -->
    <g transform="translate(228.492188 200.644966)scale(0.12 -0.12)">
     <defs>
      <path id="DejaVuSans-42" d="M 1259 2228 
L 1259 519 
L 2272 519 
Q 2781 519 3026 730 
Q 3272 941 3272 1375 
Q 3272 1813 3026 2020 
Q 2781 2228 2272 2228 
L 1259 2228 
z
M 1259 4147 
L 1259 2741 
L 2194 2741 
Q 2656 2741 2882 2914 
Q 3109 3088 3109 3444 
Q 3109 3797 2882 3972 
Q 2656 4147 2194 4147 
L 1259 4147 
z
M 628 4666 
L 2241 4666 
Q 2963 4666 3353 4366 
Q 3744 4066 3744 3513 
Q 3744 3084 3544 2831 
Q 3344 2578 2956 2516 
Q 3422 2416 3680 2098 
Q 3938 1781 3938 1306 
Q 3938 681 3513 340 
Q 3088 0 2303 0 
L 628 0 
L 628 4666 
z
" transform="scale(0.015625)"/>
     </defs>
     <use xlink:href="#DejaVuSans-79"/>
     <use xlink:href="#DejaVuSans-42" x="59.179688"/>
    </g>
   </g>
   <g id="legend_4">
    <g id="patch_25">
     <path d="M 330.010625 244.001216 
L 407.72 244.001216 
Q 409.72 244.001216 409.72 242.001216 
L 409.72 213.644966 
Q 409.72 211.644966 407.72 211.644966 
L 330.010625 211.644966 
Q 328.010625 211.644966 328.010625 213.644966 
L 328.010625 242.001216 
Q 328.010625 244.001216 330.010625 244.001216 
z
" style="fill: #ffffff; opacity: 0.8; stroke: #cccccc; stroke-linejoin: miter"/>
    </g>
    <g id="line2d_51">
     <path d="M 332.010625 219.743403 
L 342.010625 219.743403 
L 352.010625 219.743403 
" style="fill: none; stroke: #1f77b4; stroke-width: 1.5; stroke-linecap: square"/>
    </g>
    <g id="text_24">
     <!-- yB0 (in) -->
     <g transform="translate(360.010625 223.243403)scale(0.1 -0.1)">
      <use xlink:href="#DejaVuSans-79"/>
      <use xlink:href="#DejaVuSans-42" x="59.179688"/>
      <use xlink:href="#DejaVuSans-30" x="127.783203"/>
      <use xlink:href="#DejaVuSans-20" x="191.40625"/>
      <use xlink:href="#DejaVuSans-28" x="223.193359"/>
      <use xlink:href="#DejaVuSans-69" x="262.207031"/>
      <use xlink:href="#DejaVuSans-6e" x="289.990234"/>
      <use xlink:href="#DejaVuSans-29" x="353.369141"/>
     </g>
    </g>
    <g id="line2d_52">
     <path d="M 332.010625 234.421528 
L 342.010625 234.421528 
L 352.010625 234.421528 
" style="fill: none; stroke: #ff7f0e; stroke-width: 1.5; stroke-linecap: square"/>
    </g>
    <g id="text_25">
     <!-- yBL (out) -->
     <g transform="translate(360.010625 237.921528)scale(0.1 -0.1)">
      <use xlink:href="#DejaVuSans-79"/>
      <use xlink:href="#DejaVuSans-42" x="59.179688"/>
      <use xlink:href="#DejaVuSans-4c" x="127.783203"/>
      <use xlink:href="#DejaVuSans-20" x="183.496094"/>
      <use xlink:href="#DejaVuSans-28" x="215.283203"/>
      <use xlink:href="#DejaVuSans-6f" x="254.296875"/>
      <use xlink:href="#DejaVuSans-75" x="315.478516"/>
      <use xlink:href="#DejaVuSans-74" x="378.857422"/>
      <use xlink:href="#DejaVuSans-29" x="418.066406"/>
     </g>
    </g>
   </g>
  </g>
  <g id="axes_5">
   <g id="patch_26">
    <path d="M 57.6 307.584 
L 414.72 307.584 
L 414.72 261.702621 
L 57.6 261.702621 
z
" style="fill: #ffffff"/>
   </g>
   <g id="matplotlib.axis_9">
    <g id="xtick_25">
     <g id="line2d_53">
      <g>
       <use xlink:href="#m6fda7bd230" x="73.832727" y="307.584" style="stroke: #000000; stroke-width: 0.8"/>
      </g>
     </g>
     <g id="text_26">
      <!-- 0 -->
      <g transform="translate(70.651477 322.182437)scale(0.1 -0.1)">
       <use xlink:href="#DejaVuSans-30"/>
      </g>
     </g>
    </g>
    <g id="xtick_26">
     <g id="line2d_54">
      <g>
       <use xlink:href="#m6fda7bd230" x="138.763636" y="307.584" style="stroke: #000000; stroke-width: 0.8"/>
      </g>
     </g>
     <g id="text_27">
      <!-- 20 -->
      <g transform="translate(132.401136 322.182437)scale(0.1 -0.1)">
       <defs>
        <path id="DejaVuSans-32" d="M 1228 531 
L 3431 531 
L 3431 0 
L 469 0 
L 469 531 
Q 828 903 1448 1529 
Q 2069 2156 2228 2338 
Q 2531 2678 2651 2914 
Q 2772 3150 2772 3378 
Q 2772 3750 2511 3984 
Q 2250 4219 1831 4219 
Q 1534 4219 1204 4116 
Q 875 4013 500 3803 
L 500 4441 
Q 881 4594 1212 4672 
Q 1544 4750 1819 4750 
Q 2544 4750 2975 4387 
Q 3406 4025 3406 3419 
Q 3406 3131 3298 2873 
Q 3191 2616 2906 2266 
Q 2828 2175 2409 1742 
Q 1991 1309 1228 531 
z
" transform="scale(0.015625)"/>
       </defs>
       <use xlink:href="#DejaVuSans-32"/>
       <use xlink:href="#DejaVuSans-30" x="63.623047"/>
      </g>
     </g>
    </g>
    <g id="xtick_27">
     <g id="line2d_55">
      <g>
       <use xlink:href="#m6fda7bd230" x="203.694545" y="307.584" style="stroke: #000000; stroke-width: 0.8"/>
      </g>
     </g>
     <g id="text_28">
      <!-- 40 -->
      <g transform="translate(197.332045 322.182437)scale(0.1 -0.1)">
       <defs>
        <path id="DejaVuSans-34" d="M 2419 4116 
L 825 1625 
L 2419 1625 
L 2419 4116 
z
M 2253 4666 
L 3047 4666 
L 3047 1625 
L 3713 1625 
L 3713 1100 
L 3047 1100 
L 3047 0 
L 2419 0 
L 2419 1100 
L 313 1100 
L 313 1709 
L 2253 4666 
z
" transform="scale(0.015625)"/>
       </defs>
       <use xlink:href="#DejaVuSans-34"/>
       <use xlink:href="#DejaVuSans-30" x="63.623047"/>
      </g>
     </g>
    </g>
    <g id="xtick_28">
     <g id="line2d_56">
      <g>
       <use xlink:href="#m6fda7bd230" x="268.625455" y="307.584" style="stroke: #000000; stroke-width: 0.8"/>
      </g>
     </g>
     <g id="text_29">
      <!-- 60 -->
      <g transform="translate(262.262955 322.182437)scale(0.1 -0.1)">
       <defs>
        <path id="DejaVuSans-36" d="M 2113 2584 
Q 1688 2584 1439 2293 
Q 1191 2003 1191 1497 
Q 1191 994 1439 701 
Q 1688 409 2113 409 
Q 2538 409 2786 701 
Q 3034 994 3034 1497 
Q 3034 2003 2786 2293 
Q 2538 2584 2113 2584 
z
M 3366 4563 
L 3366 3988 
Q 3128 4100 2886 4159 
Q 2644 4219 2406 4219 
Q 1781 4219 1451 3797 
Q 1122 3375 1075 2522 
Q 1259 2794 1537 2939 
Q 1816 3084 2150 3084 
Q 2853 3084 3261 2657 
Q 3669 2231 3669 1497 
Q 3669 778 3244 343 
Q 2819 -91 2113 -91 
Q 1303 -91 875 529 
Q 447 1150 447 2328 
Q 447 3434 972 4092 
Q 1497 4750 2381 4750 
Q 2619 4750 2861 4703 
Q 3103 4656 3366 4563 
z
" transform="scale(0.015625)"/>
       </defs>
       <use xlink:href="#DejaVuSans-36"/>
       <use xlink:href="#DejaVuSans-30" x="63.623047"/>
      </g>
     </g>
    </g>
    <g id="xtick_29">
     <g id="line2d_57">
      <g>
       <use xlink:href="#m6fda7bd230" x="333.556364" y="307.584" style="stroke: #000000; stroke-width: 0.8"/>
      </g>
     </g>
     <g id="text_30">
      <!-- 80 -->
      <g transform="translate(327.193864 322.182437)scale(0.1 -0.1)">
       <use xlink:href="#DejaVuSans-38"/>
       <use xlink:href="#DejaVuSans-30" x="63.623047"/>
      </g>
     </g>
    </g>
    <g id="xtick_30">
     <g id="line2d_58">
      <g>
       <use xlink:href="#m6fda7bd230" x="398.487273" y="307.584" style="stroke: #000000; stroke-width: 0.8"/>
      </g>
     </g>
     <g id="text_31">
      <!-- 100 -->
      <g transform="translate(388.943523 322.182437)scale(0.1 -0.1)">
       <use xlink:href="#DejaVuSans-31"/>
       <use xlink:href="#DejaVuSans-30" x="63.623047"/>
       <use xlink:href="#DejaVuSans-30" x="127.246094"/>
      </g>
     </g>
    </g>
    <g id="text_32">
     <!-- time (normalized) -->
     <g transform="translate(191.589687 335.860562)scale(0.1 -0.1)">
      <use xlink:href="#DejaVuSans-74"/>
      <use xlink:href="#DejaVuSans-69" x="39.208984"/>
      <use xlink:href="#DejaVuSans-6d" x="66.992188"/>
      <use xlink:href="#DejaVuSans-65" x="164.404297"/>
      <use xlink:href="#DejaVuSans-20" x="225.927734"/>
      <use xlink:href="#DejaVuSans-28" x="257.714844"/>
      <use xlink:href="#DejaVuSans-6e" x="296.728516"/>
      <use xlink:href="#DejaVuSans-6f" x="360.107422"/>
      <use xlink:href="#DejaVuSans-72" x="421.289062"/>
      <use xlink:href="#DejaVuSans-6d" x="460.652344"/>
      <use xlink:href="#DejaVuSans-61" x="558.064453"/>
      <use xlink:href="#DejaVuSans-6c" x="619.34375"/>
      <use xlink:href="#DejaVuSans-69" x="647.126953"/>
      <use xlink:href="#DejaVuSans-7a" x="674.910156"/>
      <use xlink:href="#DejaVuSans-65" x="727.400391"/>
      <use xlink:href="#DejaVuSans-64" x="788.923828"/>
      <use xlink:href="#DejaVuSans-29" x="852.400391"/>
     </g>
    </g>
   </g>
   <g id="matplotlib.axis_10">
    <g id="ytick_9">
     <g id="line2d_59">
      <g>
       <use xlink:href="#mb6c9116008" x="57.6" y="300.119003" style="stroke: #000000; stroke-width: 0.8"/>
      </g>
     </g>
     <g id="text_33">
      <!-- 0.045 -->
      <g transform="translate(21.971875 303.918222)scale(0.1 -0.1)">
       <use xlink:href="#DejaVuSans-30"/>
       <use xlink:href="#DejaVuSans-2e" x="63.623047"/>
       <use xlink:href="#DejaVuSans-30" x="95.410156"/>
       <use xlink:href="#DejaVuSans-34" x="159.033203"/>
       <use xlink:href="#DejaVuSans-35" x="222.65625"/>
      </g>
     </g>
    </g>
    <g id="ytick_10">
     <g id="line2d_60">
      <g>
       <use xlink:href="#mb6c9116008" x="57.6" y="281.900716" style="stroke: #000000; stroke-width: 0.8"/>
      </g>
     </g>
     <g id="text_34">
      <!-- 0.050 -->
      <g transform="translate(21.971875 285.699935)scale(0.1 -0.1)">
       <use xlink:href="#DejaVuSans-30"/>
       <use xlink:href="#DejaVuSans-2e" x="63.623047"/>
       <use xlink:href="#DejaVuSans-30" x="95.410156"/>
       <use xlink:href="#DejaVuSans-35" x="159.033203"/>
       <use xlink:href="#DejaVuSans-30" x="222.65625"/>
      </g>
     </g>
    </g>
    <g id="ytick_11">
     <g id="line2d_61">
      <g>
       <use xlink:href="#mb6c9116008" x="57.6" y="263.682429" style="stroke: #000000; stroke-width: 0.8"/>
      </g>
     </g>
     <g id="text_35">
      <!-- 0.055 -->
      <g transform="translate(21.971875 267.481648)scale(0.1 -0.1)">
       <use xlink:href="#DejaVuSans-30"/>
       <use xlink:href="#DejaVuSans-2e" x="63.623047"/>
       <use xlink:href="#DejaVuSans-30" x="95.410156"/>
       <use xlink:href="#DejaVuSans-35" x="159.033203"/>
       <use xlink:href="#DejaVuSans-35" x="222.65625"/>
      </g>
     </g>
    </g>
    <g id="text_36">
     <!-- fraction -->
     <g transform="translate(15.892187 303.84956)rotate(-90)scale(0.1 -0.1)">
      <use xlink:href="#DejaVuSans-66"/>
      <use xlink:href="#DejaVuSans-72" x="35.205078"/>
      <use xlink:href="#DejaVuSans-61" x="76.318359"/>
      <use xlink:href="#DejaVuSans-63" x="137.597656"/>
      <use xlink:href="#DejaVuSans-74" x="192.578125"/>
      <use xlink:href="#DejaVuSans-69" x="231.787109"/>
      <use xlink:href="#DejaVuSans-6f" x="259.570312"/>
      <use xlink:href="#DejaVuSans-6e" x="320.751953"/>
     </g>
    </g>
   </g>
   <g id="line2d_62">
    <path d="M 73.832727 265.476439 
L 77.079273 284.328364 
L 80.325818 283.21069 
L 83.572364 282.449568 
L 86.818909 281.989615 
L 90.065455 281.698026 
L 93.312 281.503151 
L 96.558545 281.366097 
L 99.805091 281.269996 
L 103.051636 281.196133 
L 106.298182 281.141501 
L 109.544727 281.107251 
L 112.791273 281.079022 
L 116.037818 281.053836 
L 119.284364 281.036261 
L 122.530909 281.031565 
L 125.777455 281.10682 
L 129.024 281.027693 
L 132.270545 280.945438 
L 135.517091 280.864079 
L 138.763636 280.786612 
L 142.010182 280.714345 
L 145.256727 280.649186 
L 148.503273 280.591614 
L 151.749818 280.541955 
L 154.996364 280.499684 
L 158.242909 280.463781 
L 161.489455 280.433879 
L 164.736 280.410027 
L 167.982545 280.390929 
L 171.229091 280.373796 
L 174.475636 278.017459 
L 177.722182 276.406225 
L 180.968727 275.051331 
L 184.215273 273.885833 
L 187.461818 272.876164 
L 190.708364 272.004381 
L 193.954909 271.257091 
L 197.201455 270.619284 
L 200.448 270.076064 
L 203.694545 269.61843 
L 206.941091 269.23391 
L 210.187636 268.910158 
L 213.434182 268.641742 
L 216.680727 268.420232 
L 219.927273 268.241406 
L 223.173818 268.096871 
L 226.420364 267.975394 
L 229.666909 267.877155 
L 232.913455 267.801626 
L 236.16 267.73457 
L 239.406545 267.679386 
L 242.653091 267.640709 
L 245.899636 267.604384 
L 249.146182 267.573292 
L 252.392727 267.552196 
L 255.639273 267.530659 
L 258.885818 267.513414 
L 262.132364 267.49936 
L 265.378909 267.488437 
L 268.625455 267.48005 
L 271.872 264.925658 
L 275.118545 264.014593 
L 278.365091 263.788138 
L 281.611636 263.81982 
L 284.858182 263.987188 
L 288.104727 264.175208 
L 291.351273 264.367015 
L 294.597818 264.545199 
L 297.844364 264.706331 
L 301.090909 264.8409 
L 304.337455 264.965752 
L 307.584 265.059994 
L 310.830545 265.140362 
L 314.077091 265.209403 
L 317.323636 265.266454 
L 320.570182 265.311901 
L 323.816727 265.349432 
L 327.063273 265.377817 
L 330.309818 265.399067 
L 333.556364 265.416325 
L 336.802909 265.432434 
L 340.049455 265.442768 
L 343.296 265.445948 
L 346.542545 265.449837 
L 349.789091 265.456983 
L 353.035636 265.461511 
L 356.282182 265.46369 
L 359.528727 265.467302 
L 362.775273 265.470612 
L 366.021818 265.473542 
L 369.268364 265.471768 
L 372.514909 265.473069 
L 375.761455 265.473958 
L 379.008 265.474616 
L 382.254545 265.47511 
L 385.501091 265.475402 
L 388.747636 265.475675 
L 391.994182 265.475843 
L 395.240727 265.475944 
L 398.487273 265.475992 
" clip-path="url(#p5672abade9)" style="fill: none; stroke: #1f77b4; stroke-width: 1.5; stroke-linecap: square"/>
   </g>
   <g id="line2d_63">
    <path d="M 73.832727 275.087914 
L 77.079273 278.48918 
L 80.325818 285.594321 
L 83.572364 292.413119 
L 86.818909 297.162808 
L 90.065455 300.168664 
L 93.312 302.043051 
L 96.558545 303.244108 
L 99.805091 304.02298 
L 103.051636 304.537297 
L 106.298182 304.880595 
L 109.544727 305.112476 
L 112.791273 305.26871 
L 116.037818 305.374952 
L 119.284364 305.44758 
L 122.530909 305.498483 
L 125.777455 305.497427 
L 129.024 305.410175 
L 132.270545 305.319757 
L 135.517091 305.226562 
L 138.763636 305.131607 
L 142.010182 305.034837 
L 145.256727 304.936882 
L 148.503273 304.837905 
L 151.749818 304.738244 
L 154.996364 304.638032 
L 158.242909 304.53653 
L 161.489455 304.433531 
L 164.736 304.328587 
L 167.982545 304.221501 
L 171.229091 304.112866 
L 174.475636 300.141165 
L 177.722182 297.235963 
L 180.968727 295.087533 
L 184.215273 293.462728 
L 187.461818 292.208076 
L 190.708364 291.245058 
L 193.954909 290.50477 
L 197.201455 289.935793 
L 200.448 289.488056 
L 203.694545 289.146726 
L 206.941091 288.878761 
L 210.187636 288.667486 
L 213.434182 288.500652 
L 216.680727 288.36797 
L 219.927273 288.263296 
L 223.173818 288.178257 
L 226.420364 288.112688 
L 229.666909 288.059445 
L 232.913455 288.013748 
L 236.16 287.97397 
L 239.406545 287.940741 
L 242.653091 287.916671 
L 245.899636 287.898805 
L 249.146182 287.884235 
L 252.392727 287.870015 
L 255.639273 287.858571 
L 258.885818 287.847486 
L 262.132364 287.838338 
L 265.378909 287.831212 
L 268.625455 287.828159 
L 271.872 286.881334 
L 275.118545 285.960564 
L 278.365091 285.084595 
L 281.611636 284.252723 
L 284.858182 283.467495 
L 288.104727 282.731577 
L 291.351273 282.045512 
L 294.597818 281.409366 
L 297.844364 280.821336 
L 301.090909 280.280183 
L 304.337455 279.780765 
L 307.584 279.325158 
L 310.830545 278.908181 
L 314.077091 278.524981 
L 317.323636 278.173522 
L 320.570182 277.854174 
L 323.816727 277.560985 
L 327.063273 277.296507 
L 330.309818 277.057994 
L 333.556364 276.840052 
L 336.802909 276.638036 
L 340.049455 276.456994 
L 343.296 276.297751 
L 346.542545 276.150285 
L 349.789091 276.01082 
L 353.035636 275.885555 
L 356.282182 275.773418 
L 359.528727 275.668172 
L 362.775273 275.571027 
L 366.021818 275.483678 
L 369.268364 275.410372 
L 372.514909 275.3364 
L 375.761455 275.268354 
L 379.008 275.206359 
L 382.254545 275.150462 
L 385.501091 275.100274 
L 388.747636 275.053682 
L 391.994182 275.011676 
L 395.240727 274.973372 
L 398.487273 274.938421 
" clip-path="url(#p5672abade9)" style="fill: none; stroke: #ff7f0e; stroke-width: 1.5; stroke-linecap: square"/>
   </g>
   <g id="patch_27">
    <path d="M 57.6 307.584 
L 57.6 261.702621 
" style="fill: none; stroke: #000000; stroke-width: 0.8; stroke-linejoin: miter; stroke-linecap: square"/>
   </g>
   <g id="patch_28">
    <path d="M 414.72 307.584 
L 414.72 261.702621 
" style="fill: none; stroke: #000000; stroke-width: 0.8; stroke-linejoin: miter; stroke-linecap: square"/>
   </g>
   <g id="patch_29">
    <path d="M 57.6 307.584 
L 414.72 307.584 
" style="fill: none; stroke: #000000; stroke-width: 0.8; stroke-linejoin: miter; stroke-linecap: square"/>
   </g>
   <g id="patch_30">
    <path d="M 57.6 261.702621 
L 414.72 261.702621 
" style="fill: none; stroke: #000000; stroke-width: 0.8; stroke-linejoin: miter; stroke-linecap: square"/>
   </g>
   <g id="text_37">
    <!-- yC -->
    <g transform="translate(228.419062 255.702621)scale(0.12 -0.12)">
     <defs>
      <path id="DejaVuSans-43" d="M 4122 4306 
L 4122 3641 
Q 3803 3938 3442 4084 
Q 3081 4231 2675 4231 
Q 1875 4231 1450 3742 
Q 1025 3253 1025 2328 
Q 1025 1406 1450 917 
Q 1875 428 2675 428 
Q 3081 428 3442 575 
Q 3803 722 4122 1019 
L 4122 359 
Q 3791 134 3420 21 
Q 3050 -91 2638 -91 
Q 1578 -91 968 557 
Q 359 1206 359 2328 
Q 359 3453 968 4101 
Q 1578 4750 2638 4750 
Q 3056 4750 3426 4639 
Q 3797 4528 4122 4306 
z
" transform="scale(0.015625)"/>
     </defs>
     <use xlink:href="#DejaVuSans-79"/>
     <use xlink:href="#DejaVuSans-43" x="59.179688"/>
    </g>
   </g>
   <g id="legend_5">
    <g id="patch_31">
     <path d="M 329.88875 299.058871 
L 407.72 299.058871 
Q 409.72 299.058871 409.72 297.058871 
L 409.72 268.702621 
Q 409.72 266.702621 407.72 266.702621 
L 329.88875 266.702621 
Q 327.88875 266.702621 327.88875 268.702621 
L 327.88875 297.058871 
Q 327.88875 299.058871 329.88875 299.058871 
z
" style="fill: #ffffff; opacity: 0.8; stroke: #cccccc; stroke-linejoin: miter"/>
    </g>
    <g id="line2d_64">
     <path d="M 331.88875 274.801058 
L 341.88875 274.801058 
L 351.88875 274.801058 
" style="fill: none; stroke: #1f77b4; stroke-width: 1.5; stroke-linecap: square"/>
    </g>
    <g id="text_38">
     <!-- yC0 (in) -->
     <g transform="translate(359.88875 278.301058)scale(0.1 -0.1)">
      <use xlink:href="#DejaVuSans-79"/>
      <use xlink:href="#DejaVuSans-43" x="59.179688"/>
      <use xlink:href="#DejaVuSans-30" x="129.003906"/>
      <use xlink:href="#DejaVuSans-20" x="192.626953"/>
      <use xlink:href="#DejaVuSans-28" x="224.414062"/>
      <use xlink:href="#DejaVuSans-69" x="263.427734"/>
      <use xlink:href="#DejaVuSans-6e" x="291.210938"/>
      <use xlink:href="#DejaVuSans-29" x="354.589844"/>
     </g>
    </g>
    <g id="line2d_65">
     <path d="M 331.88875 289.479183 
L 341.88875 289.479183 
L 351.88875 289.479183 
" style="fill: none; stroke: #ff7f0e; stroke-width: 1.5; stroke-linecap: square"/>
    </g>
    <g id="text_39">
     <!-- yCL (out) -->
     <g transform="translate(359.88875 292.979183)scale(0.1 -0.1)">
      <use xlink:href="#DejaVuSans-79"/>
      <use xlink:href="#DejaVuSans-43" x="59.179688"/>
      <use xlink:href="#DejaVuSans-4c" x="129.003906"/>
      <use xlink:href="#DejaVuSans-20" x="184.716797"/>
      <use xlink:href="#DejaVuSans-28" x="216.503906"/>
      <use xlink:href="#DejaVuSans-6f" x="255.517578"/>
      <use xlink:href="#DejaVuSans-75" x="316.699219"/>
      <use xlink:href="#DejaVuSans-74" x="380.078125"/>
      <use xlink:href="#DejaVuSans-29" x="419.287109"/>
     </g>
    </g>
   </g>
  </g>
 </g>
 <defs>
  <clipPath id="p3d30088a36">
   <rect x="57.6" y="41.472" width="357.12" height="45.881379"/>
  </clipPath>
  <clipPath id="pd9eb3d9b36">
   <rect x="57.6" y="96.529655" width="357.12" height="45.881379"/>
  </clipPath>
  <clipPath id="p1b53011160">
   <rect x="57.6" y="151.58731" width="357.12" height="45.881379"/>
  </clipPath>
  <clipPath id="p4127ee31b6">
   <rect x="57.6" y="206.644966" width="357.12" height="45.881379"/>
  </clipPath>
  <clipPath id="p5672abade9">
   <rect x="57.6" y="261.702621" width="357.12" height="45.881379"/>
  </clipPath>
 </defs>
</svg>
