<?xml version="1.0" encoding="utf-8" standalone="no"?>
<!DOCTYPE svg PUBLIC "-//W3C//DTD SVG 1.1//EN"
  "http://www.w3.org/Graphics/SVG/1.1/DTD/svg11.dtd">
<svg xmlns:xlink="http://www.w3.org/1999/xlink" width="460.8pt" height="345.6pt" viewBox="0 0 460.8 345.6" xmlns="http://www.w3.org/2000/svg" version="1.1">
 <metadata>
  <rdf:RDF xmlns:dc="http://purl.org/dc/elements/1.1/" xmlns:cc="http://creativecommons.org/ns#" xmlns:rdf="http://www.w3.org/1999/02/22-rdf-syntax-ns#">
   <cc:Work>
    <dc:type rdf:resource="http://purl.org/dc/dcmitype/StillImage"/>
    <dc:date>2022-06-26T03:53:16.845881</dc:date>
    <dc:format>image/svg+xml</dc:format>
    <dc:creator>
     <cc:Agent>
      <dc:title>Matplotlib v3.5.2, https://matplotlib.org/</dc:title>
     </cc:Agent>
    </dc:creator>
   </cc:Work>
  </rdf:RDF>
 </metadata>
 <defs>
  <style type="text/css">*{stroke-linejoin: round; stroke-linecap: butt}</style>
 </defs>
 <g id="figure_1">
  <g id="patch_1">
   <path d="M 0 345.6 
L 460.8 345.6 
L 460.8 0 
L 0 0 
z
" style="fill: #ffffff"/>
  </g>
  <g id="axes_1">
   <g id="patch_2">
    <path d="M 57.6 87.353379 
L 414.72 87.353379 
L 414.72 41.472 
L 57.6 41.472 
z
" style="fill: #ffffff"/>
   </g>
   <g id="axes_2">
    <g id="patch_3">
     <path d="M 414.72 87.353379 
L 414.72 87.353379 
L 414.72 41.472 
L 414.72 41.472 
z
" style="fill: #ffffff"/>
    </g>
    <g id="matplotlib.axis_1"/>
    <g id="matplotlib.axis_2">
     <g id="ytick_1">
      <g id="line2d_1">
       <defs>
        <path id="m615adeb0f5" d="M 0 0 
L 3.5 0 
" style="stroke: #000000; stroke-width: 0.8"/>
       </defs>
       <g>
        <use xlink:href="#m615adeb0f5" x="414.72" y="74.087451" style="stroke: #000000; stroke-width: 0.8"/>
       </g>
      </g>
      <g id="text_1">
       <!-- −2.5 -->
       <g transform="translate(421.72 77.886669)scale(0.1 -0.1)">
        <defs>
         <path id="DejaVuSans-2212" d="M 678 2272 
L 4684 2272 
L 4684 1741 
L 678 1741 
L 678 2272 
z
" transform="scale(0.015625)"/>
         <path id="DejaVuSans-32" d="M 1228 531 
L 3431 531 
L 3431 0 
L 469 0 
L 469 531 
Q 828 903 1448 1529 
Q 2069 2156 2228 2338 
Q 2531 2678 2651 2914 
Q 2772 3150 2772 3378 
Q 2772 3750 2511 3984 
Q 2250 4219 1831 4219 
Q 1534 4219 1204 4116 
Q 875 4013 500 3803 
L 500 4441 
Q 881 4594 1212 4672 
Q 1544 4750 1819 4750 
Q 2544 4750 2975 4387 
Q 3406 4025 3406 3419 
Q 3406 3131 3298 2873 
Q 3191 2616 2906 2266 
Q 2828 2175 2409 1742 
Q 1991 1309 1228 531 
z
" transform="scale(0.015625)"/>
         <path id="DejaVuSans-2e" d="M 684 794 
L 1344 794 
L 1344 0 
L 684 0 
L 684 794 
z
" transform="scale(0.015625)"/>
         <path id="DejaVuSans-35" d="M 691 4666 
L 3169 4666 
L 3169 4134 
L 1269 4134 
L 1269 2991 
Q 1406 3038 1543 3061 
Q 1681 3084 1819 3084 
Q 2600 3084 3056 2656 
Q 3513 2228 3513 1497 
Q 3513 744 3044 326 
Q 2575 -91 1722 -91 
Q 1428 -91 1123 -41 
Q 819 9 494 109 
L 494 744 
Q 775 591 1075 516 
Q 1375 441 1709 441 
Q 2250 441 2565 725 
Q 2881 1009 2881 1497 
Q 2881 1984 2565 2268 
Q 2250 2553 1709 2553 
Q 1456 2553 1204 2497 
Q 953 2441 691 2322 
L 691 4666 
z
" transform="scale(0.015625)"/>
        </defs>
        <use xlink:href="#DejaVuSans-2212"/>
        <use xlink:href="#DejaVuSans-32" x="83.789062"/>
        <use xlink:href="#DejaVuSans-2e" x="147.412109"/>
        <use xlink:href="#DejaVuSans-35" x="179.199219"/>
       </g>
      </g>
     </g>
     <g id="ytick_2">
      <g id="line2d_2">
       <g>
        <use xlink:href="#m615adeb0f5" x="414.72" y="52.182613" style="stroke: #000000; stroke-width: 0.8"/>
       </g>
      </g>
      <g id="text_2">
       <!-- 0.0 -->
       <g transform="translate(421.72 55.981832)scale(0.1 -0.1)">
        <defs>
         <path id="DejaVuSans-30" d="M 2034 4250 
Q 1547 4250 1301 3770 
Q 1056 3291 1056 2328 
Q 1056 1369 1301 889 
Q 1547 409 2034 409 
Q 2525 409 2770 889 
Q 3016 1369 3016 2328 
Q 3016 3291 2770 3770 
Q 2525 4250 2034 4250 
z
M 2034 4750 
Q 2819 4750 3233 4129 
Q 3647 3509 3647 2328 
Q 3647 1150 3233 529 
Q 2819 -91 2034 -91 
Q 1250 -91 836 529 
Q 422 1150 422 2328 
Q 422 3509 836 4129 
Q 1250 4750 2034 4750 
z
" transform="scale(0.015625)"/>
        </defs>
        <use xlink:href="#DejaVuSans-30"/>
        <use xlink:href="#DejaVuSans-2e" x="63.623047"/>
        <use xlink:href="#DejaVuSans-30" x="95.410156"/>
       </g>
      </g>
     </g>
     <g id="text_3">
      <!-- vel [m/s] -->
      <g transform="translate(457.60125 86.48769)rotate(-90)scale(0.1 -0.1)">
       <defs>
        <path id="DejaVuSans-76" d="M 191 3500 
L 800 3500 
L 1894 563 
L 2988 3500 
L 3597 3500 
L 2284 0 
L 1503 0 
L 191 3500 
z
" transform="scale(0.015625)"/>
        <path id="DejaVuSans-65" d="M 3597 1894 
L 3597 1613 
L 953 1613 
Q 991 1019 1311 708 
Q 1631 397 2203 397 
Q 2534 397 2845 478 
Q 3156 559 3463 722 
L 3463 178 
Q 3153 47 2828 -22 
Q 2503 -91 2169 -91 
Q 1331 -91 842 396 
Q 353 884 353 1716 
Q 353 2575 817 3079 
Q 1281 3584 2069 3584 
Q 2775 3584 3186 3129 
Q 3597 2675 3597 1894 
z
M 3022 2063 
Q 3016 2534 2758 2815 
Q 2500 3097 2075 3097 
Q 1594 3097 1305 2825 
Q 1016 2553 972 2059 
L 3022 2063 
z
" transform="scale(0.015625)"/>
        <path id="DejaVuSans-6c" d="M 603 4863 
L 1178 4863 
L 1178 0 
L 603 0 
L 603 4863 
z
" transform="scale(0.015625)"/>
        <path id="DejaVuSans-20" transform="scale(0.015625)"/>
        <path id="DejaVuSans-5b" d="M 550 4863 
L 1875 4863 
L 1875 4416 
L 1125 4416 
L 1125 -397 
L 1875 -397 
L 1875 -844 
L 550 -844 
L 550 4863 
z
" transform="scale(0.015625)"/>
        <path id="DejaVuSans-6d" d="M 3328 2828 
Q 3544 3216 3844 3400 
Q 4144 3584 4550 3584 
Q 5097 3584 5394 3201 
Q 5691 2819 5691 2113 
L 5691 0 
L 5113 0 
L 5113 2094 
Q 5113 2597 4934 2840 
Q 4756 3084 4391 3084 
Q 3944 3084 3684 2787 
Q 3425 2491 3425 1978 
L 3425 0 
L 2847 0 
L 2847 2094 
Q 2847 2600 2669 2842 
Q 2491 3084 2119 3084 
Q 1678 3084 1418 2786 
Q 1159 2488 1159 1978 
L 1159 0 
L 581 0 
L 581 3500 
L 1159 3500 
L 1159 2956 
Q 1356 3278 1631 3431 
Q 1906 3584 2284 3584 
Q 2666 3584 2933 3390 
Q 3200 3197 3328 2828 
z
" transform="scale(0.015625)"/>
        <path id="DejaVuSans-2f" d="M 1625 4666 
L 2156 4666 
L 531 -594 
L 0 -594 
L 1625 4666 
z
" transform="scale(0.015625)"/>
        <path id="DejaVuSans-73" d="M 2834 3397 
L 2834 2853 
Q 2591 2978 2328 3040 
Q 2066 3103 1784 3103 
Q 1356 3103 1142 2972 
Q 928 2841 928 2578 
Q 928 2378 1081 2264 
Q 1234 2150 1697 2047 
L 1894 2003 
Q 2506 1872 2764 1633 
Q 3022 1394 3022 966 
Q 3022 478 2636 193 
Q 2250 -91 1575 -91 
Q 1294 -91 989 -36 
Q 684 19 347 128 
L 347 722 
Q 666 556 975 473 
Q 1284 391 1588 391 
Q 1994 391 2212 530 
Q 2431 669 2431 922 
Q 2431 1156 2273 1281 
Q 2116 1406 1581 1522 
L 1381 1569 
Q 847 1681 609 1914 
Q 372 2147 372 2553 
Q 372 3047 722 3315 
Q 1072 3584 1716 3584 
Q 2034 3584 2315 3537 
Q 2597 3491 2834 3397 
z
" transform="scale(0.015625)"/>
        <path id="DejaVuSans-5d" d="M 1947 4863 
L 1947 -844 
L 622 -844 
L 622 -397 
L 1369 -397 
L 1369 4416 
L 622 4416 
L 622 4863 
L 1947 4863 
z
" transform="scale(0.015625)"/>
       </defs>
       <use xlink:href="#DejaVuSans-76"/>
       <use xlink:href="#DejaVuSans-65" x="59.179688"/>
       <use xlink:href="#DejaVuSans-6c" x="120.703125"/>
       <use xlink:href="#DejaVuSans-20" x="148.486328"/>
       <use xlink:href="#DejaVuSans-5b" x="180.273438"/>
       <use xlink:href="#DejaVuSans-6d" x="219.287109"/>
       <use xlink:href="#DejaVuSans-2f" x="316.699219"/>
       <use xlink:href="#DejaVuSans-73" x="350.390625"/>
       <use xlink:href="#DejaVuSans-5d" x="402.490234"/>
      </g>
     </g>
    </g>
    <g id="patch_4">
     <path d="M 414.72 87.353379 
L 414.72 41.472 
" style="fill: none; stroke: #000000; stroke-width: 0.8; stroke-linejoin: miter; stroke-linecap: square"/>
    </g>
   </g>
   <g id="matplotlib.axis_3">
    <g id="xtick_1">
     <g id="line2d_3">
      <defs>
       <path id="mfd78edcf46" d="M 0 0 
L 0 3.5 
" style="stroke: #000000; stroke-width: 0.8"/>
      </defs>
      <g>
       <use xlink:href="#mfd78edcf46" x="73.832727" y="87.353379" style="stroke: #000000; stroke-width: 0.8"/>
      </g>
     </g>
    </g>
    <g id="xtick_2">
     <g id="line2d_4">
      <g>
       <use xlink:href="#mfd78edcf46" x="116.550431" y="87.353379" style="stroke: #000000; stroke-width: 0.8"/>
      </g>
     </g>
    </g>
    <g id="xtick_3">
     <g id="line2d_5">
      <g>
       <use xlink:href="#mfd78edcf46" x="159.268134" y="87.353379" style="stroke: #000000; stroke-width: 0.8"/>
      </g>
     </g>
    </g>
    <g id="xtick_4">
     <g id="line2d_6">
      <g>
       <use xlink:href="#mfd78edcf46" x="201.985837" y="87.353379" style="stroke: #000000; stroke-width: 0.8"/>
      </g>
     </g>
    </g>
    <g id="xtick_5">
     <g id="line2d_7">
      <g>
       <use xlink:href="#mfd78edcf46" x="244.703541" y="87.353379" style="stroke: #000000; stroke-width: 0.8"/>
      </g>
     </g>
    </g>
    <g id="xtick_6">
     <g id="line2d_8">
      <g>
       <use xlink:href="#mfd78edcf46" x="287.421244" y="87.353379" style="stroke: #000000; stroke-width: 0.8"/>
      </g>
     </g>
    </g>
    <g id="xtick_7">
     <g id="line2d_9">
      <g>
       <use xlink:href="#mfd78edcf46" x="330.138947" y="87.353379" style="stroke: #000000; stroke-width: 0.8"/>
      </g>
     </g>
    </g>
    <g id="xtick_8">
     <g id="line2d_10">
      <g>
       <use xlink:href="#mfd78edcf46" x="372.856651" y="87.353379" style="stroke: #000000; stroke-width: 0.8"/>
      </g>
     </g>
    </g>
   </g>
   <g id="matplotlib.axis_4">
    <g id="ytick_3">
     <g id="line2d_11">
      <defs>
       <path id="m12d9c56a75" d="M 0 0 
L -3.5 0 
" style="stroke: #000000; stroke-width: 0.8"/>
      </defs>
      <g>
       <use xlink:href="#m12d9c56a75" x="57.6" y="74.087451" style="stroke: #000000; stroke-width: 0.8"/>
      </g>
     </g>
     <g id="text_4">
      <!-- −2.5 -->
      <g transform="translate(26.317187 77.886669)scale(0.1 -0.1)">
       <use xlink:href="#DejaVuSans-2212"/>
       <use xlink:href="#DejaVuSans-32" x="83.789062"/>
       <use xlink:href="#DejaVuSans-2e" x="147.412109"/>
       <use xlink:href="#DejaVuSans-35" x="179.199219"/>
      </g>
     </g>
    </g>
    <g id="ytick_4">
     <g id="line2d_12">
      <g>
       <use xlink:href="#m12d9c56a75" x="57.6" y="52.182613" style="stroke: #000000; stroke-width: 0.8"/>
      </g>
     </g>
     <g id="text_5">
      <!-- 0.0 -->
      <g transform="translate(34.696875 55.981832)scale(0.1 -0.1)">
       <use xlink:href="#DejaVuSans-30"/>
       <use xlink:href="#DejaVuSans-2e" x="63.623047"/>
       <use xlink:href="#DejaVuSans-30" x="95.410156"/>
      </g>
     </g>
    </g>
    <g id="text_6">
     <!-- vel [normalized] -->
     <g transform="translate(20.2375 105.111908)rotate(-90)scale(0.1 -0.1)">
      <defs>
       <path id="DejaVuSans-6e" d="M 3513 2113 
L 3513 0 
L 2938 0 
L 2938 2094 
Q 2938 2591 2744 2837 
Q 2550 3084 2163 3084 
Q 1697 3084 1428 2787 
Q 1159 2491 1159 1978 
L 1159 0 
L 581 0 
L 581 3500 
L 1159 3500 
L 1159 2956 
Q 1366 3272 1645 3428 
Q 1925 3584 2291 3584 
Q 2894 3584 3203 3211 
Q 3513 2838 3513 2113 
z
" transform="scale(0.015625)"/>
       <path id="DejaVuSans-6f" d="M 1959 3097 
Q 1497 3097 1228 2736 
Q 959 2375 959 1747 
Q 959 1119 1226 758 
Q 1494 397 1959 397 
Q 2419 397 2687 759 
Q 2956 1122 2956 1747 
Q 2956 2369 2687 2733 
Q 2419 3097 1959 3097 
z
M 1959 3584 
Q 2709 3584 3137 3096 
Q 3566 2609 3566 1747 
Q 3566 888 3137 398 
Q 2709 -91 1959 -91 
Q 1206 -91 779 398 
Q 353 888 353 1747 
Q 353 2609 779 3096 
Q 1206 3584 1959 3584 
z
" transform="scale(0.015625)"/>
       <path id="DejaVuSans-72" d="M 2631 2963 
Q 2534 3019 2420 3045 
Q 2306 3072 2169 3072 
Q 1681 3072 1420 2755 
Q 1159 2438 1159 1844 
L 1159 0 
L 581 0 
L 581 3500 
L 1159 3500 
L 1159 2956 
Q 1341 3275 1631 3429 
Q 1922 3584 2338 3584 
Q 2397 3584 2469 3576 
Q 2541 3569 2628 3553 
L 2631 2963 
z
" transform="scale(0.015625)"/>
       <path id="DejaVuSans-61" d="M 2194 1759 
Q 1497 1759 1228 1600 
Q 959 1441 959 1056 
Q 959 750 1161 570 
Q 1363 391 1709 391 
Q 2188 391 2477 730 
Q 2766 1069 2766 1631 
L 2766 1759 
L 2194 1759 
z
M 3341 1997 
L 3341 0 
L 2766 0 
L 2766 531 
Q 2569 213 2275 61 
Q 1981 -91 1556 -91 
Q 1019 -91 701 211 
Q 384 513 384 1019 
Q 384 1609 779 1909 
Q 1175 2209 1959 2209 
L 2766 2209 
L 2766 2266 
Q 2766 2663 2505 2880 
Q 2244 3097 1772 3097 
Q 1472 3097 1187 3025 
Q 903 2953 641 2809 
L 641 3341 
Q 956 3463 1253 3523 
Q 1550 3584 1831 3584 
Q 2591 3584 2966 3190 
Q 3341 2797 3341 1997 
z
" transform="scale(0.015625)"/>
       <path id="DejaVuSans-69" d="M 603 3500 
L 1178 3500 
L 1178 0 
L 603 0 
L 603 3500 
z
M 603 4863 
L 1178 4863 
L 1178 4134 
L 603 4134 
L 603 4863 
z
" transform="scale(0.015625)"/>
       <path id="DejaVuSans-7a" d="M 353 3500 
L 3084 3500 
L 3084 2975 
L 922 459 
L 3084 459 
L 3084 0 
L 275 0 
L 275 525 
L 2438 3041 
L 353 3041 
L 353 3500 
z
" transform="scale(0.015625)"/>
       <path id="DejaVuSans-64" d="M 2906 2969 
L 2906 4863 
L 3481 4863 
L 3481 0 
L 2906 0 
L 2906 525 
Q 2725 213 2448 61 
Q 2172 -91 1784 -91 
Q 1150 -91 751 415 
Q 353 922 353 1747 
Q 353 2572 751 3078 
Q 1150 3584 1784 3584 
Q 2172 3584 2448 3432 
Q 2725 3281 2906 2969 
z
M 947 1747 
Q 947 1113 1208 752 
Q 1469 391 1925 391 
Q 2381 391 2643 752 
Q 2906 1113 2906 1747 
Q 2906 2381 2643 2742 
Q 2381 3103 1925 3103 
Q 1469 3103 1208 2742 
Q 947 2381 947 1747 
z
" transform="scale(0.015625)"/>
      </defs>
      <use xlink:href="#DejaVuSans-76"/>
      <use xlink:href="#DejaVuSans-65" x="59.179688"/>
      <use xlink:href="#DejaVuSans-6c" x="120.703125"/>
      <use xlink:href="#DejaVuSans-20" x="148.486328"/>
      <use xlink:href="#DejaVuSans-5b" x="180.273438"/>
      <use xlink:href="#DejaVuSans-6e" x="219.287109"/>
      <use xlink:href="#DejaVuSans-6f" x="282.666016"/>
      <use xlink:href="#DejaVuSans-72" x="343.847656"/>
      <use xlink:href="#DejaVuSans-6d" x="383.210938"/>
      <use xlink:href="#DejaVuSans-61" x="480.623047"/>
      <use xlink:href="#DejaVuSans-6c" x="541.902344"/>
      <use xlink:href="#DejaVuSans-69" x="569.685547"/>
      <use xlink:href="#DejaVuSans-7a" x="597.46875"/>
      <use xlink:href="#DejaVuSans-65" x="649.958984"/>
      <use xlink:href="#DejaVuSans-64" x="711.482422"/>
      <use xlink:href="#DejaVuSans-5d" x="774.958984"/>
     </g>
    </g>
   </g>
   <g id="line2d_13">
    <path d="M 73.832727 52.67885 
L 90.919809 52.669323 
L 108.00689 52.656565 
L 125.093971 52.640731 
L 142.181053 52.621988 
L 159.268134 52.60051 
L 176.355215 52.576479 
L 193.442297 52.550082 
L 210.529378 52.521513 
L 227.616459 52.490969 
L 244.703541 52.45865 
L 261.790622 52.424758 
L 278.877703 52.389495 
L 295.964785 52.353064 
L 313.051866 52.315669 
L 330.138947 52.277548 
L 347.226029 52.239124 
L 364.31311 52.201804 
L 381.400191 52.172409 
L 398.487273 52.172409 
" clip-path="url(#p79a0adb78b)" style="fill: none; stroke: #1f77b4; stroke-width: 1.5; stroke-linecap: square"/>
   </g>
   <g id="line2d_14">
    <path d="M 73.832727 50.980558 
L 90.919809 51.359198 
L 108.00689 51.570057 
L 125.093971 51.689487 
L 142.181053 51.765129 
L 159.268134 51.818956 
L 176.355215 51.860759 
L 193.442297 51.895374 
L 210.529378 51.925484 
L 227.616459 51.952705 
L 244.703541 51.978054 
L 261.790622 52.002187 
L 278.877703 52.025538 
L 295.964785 52.048394 
L 313.051866 52.070948 
L 330.138947 52.093331 
L 347.226029 52.115622 
L 364.31311 52.137843 
L 381.400191 52.159924 
L 398.487273 52.159924 
" clip-path="url(#p79a0adb78b)" style="fill: none; stroke: #ff7f0e; stroke-width: 1.5; stroke-linecap: square"/>
   </g>
   <g id="line2d_15">
    <path d="M 73.832727 43.960421 
L 90.919809 44.692804 
L 108.00689 45.541133 
L 125.093971 46.410199 
L 142.181053 47.207307 
L 159.268134 47.860252 
L 176.355215 48.338802 
L 193.442297 48.65804 
L 210.529378 48.857779 
L 227.616459 48.978808 
L 244.703541 49.051614 
L 261.790622 49.095664 
L 278.877703 49.122468 
L 295.964785 49.138637 
L 313.051866 49.147984 
L 330.138947 49.152767 
L 347.226029 49.154427 
L 364.31311 49.154137 
L 381.400191 49.153765 
L 398.487273 49.153765 
" clip-path="url(#p79a0adb78b)" style="fill: none; stroke: #2ca02c; stroke-width: 1.5; stroke-linecap: square"/>
   </g>
   <g id="line2d_16">
    <path d="M 73.832727 43.557517 
L 90.919809 43.764111 
L 108.00689 44.046811 
L 125.093971 44.405095 
L 142.181053 44.840528 
L 159.268134 45.354185 
L 176.355215 45.941162 
L 193.442297 46.582823 
L 210.529378 47.239683 
L 227.616459 47.853235 
L 244.703541 48.365066 
L 261.790622 48.743895 
L 278.877703 48.995871 
L 295.964785 49.150354 
L 313.051866 49.239891 
L 330.138947 49.289729 
L 347.226029 49.31639 
L 364.31311 49.329892 
L 381.400191 49.336597 
L 398.487273 49.336597 
" clip-path="url(#p79a0adb78b)" style="fill: none; stroke: #d62728; stroke-width: 1.5; stroke-linecap: square"/>
   </g>
   <g id="line2d_17">
    <path d="M 73.832727 51.369248 
L 90.919809 50.595235 
L 108.00689 49.864603 
L 125.093971 49.183395 
L 142.181053 48.560825 
L 159.268134 48.009861 
L 176.355215 47.547357 
L 193.442297 47.19347 
L 210.529378 46.969928 
L 227.616459 46.89634 
L 244.703541 46.982972 
L 261.790622 47.219122 
L 278.877703 47.561059 
L 295.964785 47.932066 
L 313.051866 48.247375 
L 330.138947 48.451811 
L 347.226029 48.53542 
L 364.31311 48.518429 
L 381.400191 48.42965 
L 398.487273 48.42965 
" clip-path="url(#p79a0adb78b)" style="fill: none; stroke: #9467bd; stroke-width: 1.5; stroke-linecap: square"/>
   </g>
   <g id="line2d_18">
    <path d="M 73.832727 51.562899 
L 90.919809 50.958668 
L 108.00689 50.37205 
L 125.093971 49.805875 
L 142.181053 49.264207 
L 159.268134 48.752718 
L 176.355215 48.278996 
L 193.442297 47.852806 
L 210.529378 47.486257 
L 227.616459 47.193772 
L 244.703541 46.99147 
L 261.790622 46.895456 
L 278.877703 46.918941 
L 295.964785 47.069266 
L 313.051866 47.34703 
L 330.138947 47.748468 
L 347.226029 48.268988 
L 364.31311 48.904197 
L 381.400191 49.642923 
L 398.487273 49.642923 
" clip-path="url(#p79a0adb78b)" style="fill: none; stroke: #8c564b; stroke-width: 1.5; stroke-linecap: square"/>
   </g>
   <g id="line2d_19">
    <path d="M 73.832727 52.002096 
L 90.919809 51.825401 
L 108.00689 51.653431 
L 125.093971 51.487216 
L 142.181053 51.328042 
L 159.268134 51.177513 
L 176.355215 51.037629 
L 193.442297 50.910825 
L 210.529378 50.800012 
L 227.616459 50.708563 
L 244.703541 50.640193 
L 261.790622 50.598613 
L 278.877703 50.586966 
L 295.964785 50.607277 
L 313.051866 50.660424 
L 330.138947 50.74695 
L 347.226029 50.868461 
L 364.31311 51.02944 
L 381.400191 51.240282 
L 398.487273 51.240282 
" clip-path="url(#p79a0adb78b)" style="fill: none; stroke: #e377c2; stroke-width: 1.5; stroke-linecap: square"/>
   </g>
   <g id="line2d_20">
    <path d="M 73.832727 52.131808 
L 90.919809 52.08193 
L 108.00689 52.033283 
L 125.093971 51.986197 
L 142.181053 51.941048 
L 159.268134 51.898278 
L 176.355215 51.858405 
L 193.442297 51.822029 
L 210.529378 51.789844 
L 227.616459 51.762632 
L 244.703541 51.741237 
L 261.790622 51.726491 
L 278.877703 51.719104 
L 295.964785 51.719551 
L 313.051866 51.728084 
L 330.138947 51.744927 
L 347.226029 51.770625 
L 364.31311 51.806643 
L 381.400191 51.856936 
L 398.487273 51.856936 
" clip-path="url(#p79a0adb78b)" style="fill: none; stroke: #7f7f7f; stroke-width: 1.5; stroke-linecap: square"/>
   </g>
   <g id="line2d_21">
    <path d="M 73.832727 85.267862 
L 90.919809 82.454995 
L 108.00689 79.878641 
L 125.093971 77.502181 
L 142.181053 75.295955 
L 159.268134 73.235598 
L 176.355215 71.300847 
L 193.442297 69.474644 
L 210.529378 67.742474 
L 227.616459 66.091853 
L 244.703541 64.511927 
L 261.790622 62.993143 
L 278.877703 61.526971 
L 295.964785 60.105687 
L 313.051866 58.72223 
L 330.138947 57.370167 
L 347.226029 56.043785 
L 364.31311 54.738422 
L 381.400191 53.451401 
L 398.487273 53.451401 
" clip-path="url(#p79a0adb78b)" style="fill: none; stroke: #bcbd22; stroke-width: 1.5; stroke-linecap: square"/>
   </g>
   <g id="line2d_22">
    <path d="M 73.832727 68.623369 
L 90.919809 67.641893 
L 108.00689 66.678668 
L 125.093971 65.732914 
L 142.181053 64.803739 
L 159.268134 63.890186 
L 176.355215 62.991254 
L 193.442297 62.105927 
L 210.529378 61.233179 
L 227.616459 60.371991 
L 244.703541 59.521353 
L 261.790622 58.680261 
L 278.877703 57.847718 
L 295.964785 57.022722 
L 313.051866 56.204278 
L 330.138947 55.391423 
L 347.226029 54.583276 
L 364.31311 53.779149 
L 381.400191 52.978805 
L 398.487273 52.978805 
" clip-path="url(#p79a0adb78b)" style="fill: none; stroke: #17becf; stroke-width: 1.5; stroke-linecap: square"/>
   </g>
   <g id="line2d_23">
    <path d="M 73.832727 58.425857 
L 90.919809 58.193997 
L 108.00689 57.943096 
L 125.093971 57.6752 
L 142.181053 57.392156 
L 159.268134 57.095634 
L 176.355215 56.787146 
L 193.442297 56.468064 
L 210.529378 56.139639 
L 227.616459 55.803011 
L 244.703541 55.459225 
L 261.790622 55.109243 
L 278.877703 54.753949 
L 295.964785 54.394163 
L 313.051866 54.030648 
L 330.138947 53.664129 
L 347.226029 53.295306 
L 364.31311 52.924896 
L 381.400191 52.553694 
L 398.487273 52.553694 
" clip-path="url(#p79a0adb78b)" style="fill: none; stroke: #1f77b4; stroke-width: 1.5; stroke-linecap: square"/>
   </g>
   <g id="line2d_24">
    <path d="M 73.832727 54.587459 
L 90.919809 54.530463 
L 108.00689 54.461502 
L 125.093971 54.381423 
L 142.181053 54.291042 
L 159.268134 54.191149 
L 176.355215 54.082505 
L 193.442297 53.96585 
L 210.529378 53.841897 
L 227.616459 53.711339 
L 244.703541 53.574848 
L 261.790622 53.433077 
L 278.877703 53.286663 
L 295.964785 53.136224 
L 313.051866 52.982368 
L 330.138947 52.825689 
L 347.226029 52.666776 
L 364.31311 52.50622 
L 381.400191 52.344623 
L 398.487273 52.344623 
" clip-path="url(#p79a0adb78b)" style="fill: none; stroke: #ff7f0e; stroke-width: 1.5; stroke-linecap: square"/>
   </g>
   <g id="line2d_25">
    <path d="M 73.832727 53.137632 
L 90.919809 53.120977 
L 108.00689 53.098977 
L 125.093971 53.071893 
L 142.181053 53.039993 
L 159.268134 53.003554 
L 176.355215 52.96286 
L 193.442297 52.918199 
L 210.529378 52.869866 
L 227.616459 52.818158 
L 244.703541 52.763376 
L 261.790622 52.705823 
L 278.877703 52.645805 
L 295.964785 52.583628 
L 313.051866 52.519601 
L 330.138947 52.454032 
L 347.226029 52.387234 
L 364.31311 52.319518 
L 381.400191 52.251202 
L 398.487273 52.251202 
" clip-path="url(#p79a0adb78b)" style="fill: none; stroke: #2ca02c; stroke-width: 1.5; stroke-linecap: square"/>
   </g>
   <g id="patch_5">
    <path d="M 57.6 87.353379 
L 57.6 41.472 
" style="fill: none; stroke: #000000; stroke-width: 0.8; stroke-linejoin: miter; stroke-linecap: square"/>
   </g>
   <g id="patch_6">
    <path d="M 414.72 87.353379 
L 414.72 41.472 
" style="fill: none; stroke: #000000; stroke-width: 0.8; stroke-linejoin: miter; stroke-linecap: square"/>
   </g>
   <g id="patch_7">
    <path d="M 57.6 87.353379 
L 414.72 87.353379 
" style="fill: none; stroke: #000000; stroke-width: 0.8; stroke-linejoin: miter; stroke-linecap: square"/>
   </g>
   <g id="patch_8">
    <path d="M 57.6 41.472 
L 414.72 41.472 
" style="fill: none; stroke: #000000; stroke-width: 0.8; stroke-linejoin: miter; stroke-linecap: square"/>
   </g>
   <g id="text_7">
    <!-- velocity - Container 1  -->
    <g transform="translate(169.779375 38.472)scale(0.12 -0.12)">
     <defs>
      <path id="DejaVuSans-63" d="M 3122 3366 
L 3122 2828 
Q 2878 2963 2633 3030 
Q 2388 3097 2138 3097 
Q 1578 3097 1268 2742 
Q 959 2388 959 1747 
Q 959 1106 1268 751 
Q 1578 397 2138 397 
Q 2388 397 2633 464 
Q 2878 531 3122 666 
L 3122 134 
Q 2881 22 2623 -34 
Q 2366 -91 2075 -91 
Q 1284 -91 818 406 
Q 353 903 353 1747 
Q 353 2603 823 3093 
Q 1294 3584 2113 3584 
Q 2378 3584 2631 3529 
Q 2884 3475 3122 3366 
z
" transform="scale(0.015625)"/>
      <path id="DejaVuSans-74" d="M 1172 4494 
L 1172 3500 
L 2356 3500 
L 2356 3053 
L 1172 3053 
L 1172 1153 
Q 1172 725 1289 603 
Q 1406 481 1766 481 
L 2356 481 
L 2356 0 
L 1766 0 
Q 1100 0 847 248 
Q 594 497 594 1153 
L 594 3053 
L 172 3053 
L 172 3500 
L 594 3500 
L 594 4494 
L 1172 4494 
z
" transform="scale(0.015625)"/>
      <path id="DejaVuSans-79" d="M 2059 -325 
Q 1816 -950 1584 -1140 
Q 1353 -1331 966 -1331 
L 506 -1331 
L 506 -850 
L 844 -850 
Q 1081 -850 1212 -737 
Q 1344 -625 1503 -206 
L 1606 56 
L 191 3500 
L 800 3500 
L 1894 763 
L 2988 3500 
L 3597 3500 
L 2059 -325 
z
" transform="scale(0.015625)"/>
      <path id="DejaVuSans-2d" d="M 313 2009 
L 1997 2009 
L 1997 1497 
L 313 1497 
L 313 2009 
z
" transform="scale(0.015625)"/>
      <path id="DejaVuSans-43" d="M 4122 4306 
L 4122 3641 
Q 3803 3938 3442 4084 
Q 3081 4231 2675 4231 
Q 1875 4231 1450 3742 
Q 1025 3253 1025 2328 
Q 1025 1406 1450 917 
Q 1875 428 2675 428 
Q 3081 428 3442 575 
Q 3803 722 4122 1019 
L 4122 359 
Q 3791 134 3420 21 
Q 3050 -91 2638 -91 
Q 1578 -91 968 557 
Q 359 1206 359 2328 
Q 359 3453 968 4101 
Q 1578 4750 2638 4750 
Q 3056 4750 3426 4639 
Q 3797 4528 4122 4306 
z
" transform="scale(0.015625)"/>
      <path id="DejaVuSans-31" d="M 794 531 
L 1825 531 
L 1825 4091 
L 703 3866 
L 703 4441 
L 1819 4666 
L 2450 4666 
L 2450 531 
L 3481 531 
L 3481 0 
L 794 0 
L 794 531 
z
" transform="scale(0.015625)"/>
     </defs>
     <use xlink:href="#DejaVuSans-76"/>
     <use xlink:href="#DejaVuSans-65" x="59.179688"/>
     <use xlink:href="#DejaVuSans-6c" x="120.703125"/>
     <use xlink:href="#DejaVuSans-6f" x="148.486328"/>
     <use xlink:href="#DejaVuSans-63" x="209.667969"/>
     <use xlink:href="#DejaVuSans-69" x="264.648438"/>
     <use xlink:href="#DejaVuSans-74" x="292.431641"/>
     <use xlink:href="#DejaVuSans-79" x="331.640625"/>
     <use xlink:href="#DejaVuSans-20" x="390.820312"/>
     <use xlink:href="#DejaVuSans-2d" x="422.607422"/>
     <use xlink:href="#DejaVuSans-20" x="458.691406"/>
     <use xlink:href="#DejaVuSans-43" x="490.478516"/>
     <use xlink:href="#DejaVuSans-6f" x="560.302734"/>
     <use xlink:href="#DejaVuSans-6e" x="621.484375"/>
     <use xlink:href="#DejaVuSans-74" x="684.863281"/>
     <use xlink:href="#DejaVuSans-61" x="724.072266"/>
     <use xlink:href="#DejaVuSans-69" x="785.351562"/>
     <use xlink:href="#DejaVuSans-6e" x="813.134766"/>
     <use xlink:href="#DejaVuSans-65" x="876.513672"/>
     <use xlink:href="#DejaVuSans-72" x="938.037109"/>
     <use xlink:href="#DejaVuSans-20" x="979.150391"/>
     <use xlink:href="#DejaVuSans-31" x="1010.9375"/>
     <use xlink:href="#DejaVuSans-20" x="1074.560547"/>
    </g>
   </g>
  </g>
  <g id="axes_3">
   <g id="patch_9">
    <path d="M 57.6 142.411034 
L 414.72 142.411034 
L 414.72 96.529655 
L 57.6 96.529655 
z
" style="fill: #ffffff"/>
   </g>
   <g id="matplotlib.axis_5">
    <g id="xtick_9">
     <g id="line2d_26">
      <g>
       <use xlink:href="#mfd78edcf46" x="73.832727" y="142.411034" style="stroke: #000000; stroke-width: 0.8"/>
      </g>
     </g>
    </g>
    <g id="xtick_10">
     <g id="line2d_27">
      <g>
       <use xlink:href="#mfd78edcf46" x="116.550431" y="142.411034" style="stroke: #000000; stroke-width: 0.8"/>
      </g>
     </g>
    </g>
    <g id="xtick_11">
     <g id="line2d_28">
      <g>
       <use xlink:href="#mfd78edcf46" x="159.268134" y="142.411034" style="stroke: #000000; stroke-width: 0.8"/>
      </g>
     </g>
    </g>
    <g id="xtick_12">
     <g id="line2d_29">
      <g>
       <use xlink:href="#mfd78edcf46" x="201.985837" y="142.411034" style="stroke: #000000; stroke-width: 0.8"/>
      </g>
     </g>
    </g>
    <g id="xtick_13">
     <g id="line2d_30">
      <g>
       <use xlink:href="#mfd78edcf46" x="244.703541" y="142.411034" style="stroke: #000000; stroke-width: 0.8"/>
      </g>
     </g>
    </g>
    <g id="xtick_14">
     <g id="line2d_31">
      <g>
       <use xlink:href="#mfd78edcf46" x="287.421244" y="142.411034" style="stroke: #000000; stroke-width: 0.8"/>
      </g>
     </g>
    </g>
    <g id="xtick_15">
     <g id="line2d_32">
      <g>
       <use xlink:href="#mfd78edcf46" x="330.138947" y="142.411034" style="stroke: #000000; stroke-width: 0.8"/>
      </g>
     </g>
    </g>
    <g id="xtick_16">
     <g id="line2d_33">
      <g>
       <use xlink:href="#mfd78edcf46" x="372.856651" y="142.411034" style="stroke: #000000; stroke-width: 0.8"/>
      </g>
     </g>
    </g>
   </g>
   <g id="matplotlib.axis_6">
    <g id="ytick_5">
     <g id="line2d_34">
      <g>
       <use xlink:href="#m12d9c56a75" x="57.6" y="126.806996" style="stroke: #000000; stroke-width: 0.8"/>
      </g>
     </g>
     <g id="text_8">
      <!-- 0.5 -->
      <g transform="translate(34.696875 130.606214)scale(0.1 -0.1)">
       <use xlink:href="#DejaVuSans-30"/>
       <use xlink:href="#DejaVuSans-2e" x="63.623047"/>
       <use xlink:href="#DejaVuSans-35" x="95.410156"/>
      </g>
     </g>
    </g>
    <g id="ytick_6">
     <g id="line2d_35">
      <g>
       <use xlink:href="#m12d9c56a75" x="57.6" y="99.764033" style="stroke: #000000; stroke-width: 0.8"/>
      </g>
     </g>
     <g id="text_9">
      <!-- 1.0 -->
      <g transform="translate(34.696875 103.563252)scale(0.1 -0.1)">
       <use xlink:href="#DejaVuSans-31"/>
       <use xlink:href="#DejaVuSans-2e" x="63.623047"/>
       <use xlink:href="#DejaVuSans-30" x="95.410156"/>
      </g>
     </g>
    </g>
   </g>
   <g id="line2d_36">
    <path d="M 73.832727 140.325517 
L 90.919809 140.319672 
L 108.00689 140.313939 
L 125.093971 140.308357 
L 142.181053 140.302961 
L 159.268134 140.297786 
L 176.355215 140.292863 
L 193.442297 140.288224 
L 210.529378 140.283896 
L 227.616459 140.279904 
L 244.703541 140.276272 
L 261.790622 140.273021 
L 278.877703 140.270169 
L 295.964785 140.267732 
L 313.051866 140.265724 
L 330.138947 140.264157 
L 347.226029 140.263039 
L 364.31311 140.262373 
L 381.400191 140.262147 
L 398.487273 140.262267 
" clip-path="url(#p4114db0639)" style="fill: none; stroke: #1f77b4; stroke-width: 1.5; stroke-linecap: square"/>
   </g>
   <g id="line2d_37">
    <path d="M 73.832727 100.5176 
L 90.919809 100.531759 
L 108.00689 100.541457 
L 125.093971 100.548673 
L 142.181053 100.554481 
L 159.268134 100.559398 
L 176.355215 100.563682 
L 193.442297 100.567473 
L 210.529378 100.570856 
L 227.616459 100.573885 
L 244.703541 100.576593 
L 261.790622 100.579002 
L 278.877703 100.581127 
L 295.964785 100.582977 
L 313.051866 100.584558 
L 330.138947 100.585873 
L 347.226029 100.586925 
L 364.31311 100.587714 
L 381.400191 100.588242 
L 398.487273 100.588509 
" clip-path="url(#p4114db0639)" style="fill: none; stroke: #ff7f0e; stroke-width: 1.5; stroke-linecap: square"/>
   </g>
   <g id="line2d_38">
    <path d="M 73.832727 98.818142 
L 90.919809 98.914989 
L 108.00689 99.003208 
L 125.093971 99.081436 
L 142.181053 99.149427 
L 159.268134 99.20803 
L 176.355215 99.258941 
L 193.442297 99.304216 
L 210.529378 99.345731 
L 227.616459 99.384893 
L 244.703541 99.422629 
L 261.790622 99.459508 
L 278.877703 99.495869 
L 295.964785 99.531913 
L 313.051866 99.567767 
L 330.138947 99.603511 
L 347.226029 99.639198 
L 364.31311 99.674866 
L 381.400191 99.710537 
L 398.487273 99.746213 
" clip-path="url(#p4114db0639)" style="fill: none; stroke: #2ca02c; stroke-width: 1.5; stroke-linecap: square"/>
   </g>
   <g id="line2d_39">
    <path d="M 73.832727 98.615172 
L 90.919809 98.716764 
L 108.00689 98.815923 
L 125.093971 98.911752 
L 142.181053 99.00336 
L 159.268134 99.08984 
L 176.355215 99.17027 
L 193.442297 99.243786 
L 210.529378 99.309744 
L 227.616459 99.367965 
L 244.703541 99.418959 
L 261.790622 99.463925 
L 278.877703 99.504428 
L 295.964785 99.541964 
L 313.051866 99.577679 
L 330.138947 99.612341 
L 347.226029 99.646415 
L 364.31311 99.680175 
L 381.400191 99.713776 
L 398.487273 99.747299 
" clip-path="url(#p4114db0639)" style="fill: none; stroke: #d62728; stroke-width: 1.5; stroke-linecap: square"/>
   </g>
   <g id="line2d_40">
    <path d="M 73.832727 115.970986 
L 90.919809 115.980566 
L 108.00689 115.999263 
L 125.093971 116.026566 
L 142.181053 116.061893 
L 159.268134 116.104553 
L 176.355215 116.153702 
L 193.442297 116.208299 
L 210.529378 116.267065 
L 227.616459 116.328463 
L 244.703541 116.390728 
L 261.790622 116.451973 
L 278.877703 116.510436 
L 295.964785 116.564872 
L 313.051866 116.614938 
L 330.138947 116.661289 
L 347.226029 116.705233 
L 364.31311 116.748192 
L 381.400191 116.791351 
L 398.487273 116.835556 
" clip-path="url(#p4114db0639)" style="fill: none; stroke: #9467bd; stroke-width: 1.5; stroke-linecap: square"/>
   </g>
   <g id="line2d_41">
    <path d="M 73.832727 125.788234 
L 90.919809 125.795534 
L 108.00689 125.80995 
L 125.093971 125.831276 
L 142.181053 125.859271 
L 159.268134 125.893646 
L 176.355215 125.934045 
L 193.442297 125.980024 
L 210.529378 126.031024 
L 227.616459 126.08634 
L 244.703541 126.145102 
L 261.790622 126.206247 
L 278.877703 126.268522 
L 295.964785 126.330521 
L 313.051866 126.39075 
L 330.138947 126.447706 
L 347.226029 126.499935 
L 364.31311 126.546032 
L 381.400191 126.584647 
L 398.487273 126.614561 
" clip-path="url(#p4114db0639)" style="fill: none; stroke: #8c564b; stroke-width: 1.5; stroke-linecap: square"/>
   </g>
   <g id="line2d_42">
    <path d="M 73.832727 126.545815 
L 90.919809 126.547941 
L 108.00689 126.552149 
L 125.093971 126.558382 
L 142.181053 126.566573 
L 159.268134 126.576638 
L 176.355215 126.588477 
L 193.442297 126.601963 
L 210.529378 126.616943 
L 227.616459 126.633228 
L 244.703541 126.650591 
L 261.790622 126.668758 
L 278.877703 126.687416 
L 295.964785 126.70621 
L 313.051866 126.724766 
L 330.138947 126.742695 
L 347.226029 126.759605 
L 364.31311 126.775084 
L 381.400191 126.788667 
L 398.487273 126.799766 
" clip-path="url(#p4114db0639)" style="fill: none; stroke: #e377c2; stroke-width: 1.5; stroke-linecap: square"/>
   </g>
   <g id="line2d_43">
    <path d="M 73.832727 126.730653 
L 90.919809 126.731251 
L 108.00689 126.732437 
L 125.093971 126.734196 
L 142.181053 126.73651 
L 159.268134 126.739355 
L 176.355215 126.742704 
L 193.442297 126.746523 
L 210.529378 126.75077 
L 227.616459 126.755396 
L 244.703541 126.760343 
L 261.790622 126.765542 
L 278.877703 126.770914 
L 295.964785 126.776374 
L 313.051866 126.781828 
L 330.138947 126.787182 
L 347.226029 126.792337 
L 364.31311 126.79719 
L 381.400191 126.801618 
L 398.487273 126.805454 
" clip-path="url(#p4114db0639)" style="fill: none; stroke: #7f7f7f; stroke-width: 1.5; stroke-linecap: square"/>
   </g>
   <g id="line2d_44">
    <path d="M 73.832727 138.282468 
L 90.919809 137.892768 
L 108.00689 137.5362 
L 125.093971 137.209979 
L 142.181053 136.911748 
L 159.268134 136.639504 
L 176.355215 136.391528 
L 193.442297 136.166341 
L 210.529378 135.962665 
L 227.616459 135.779391 
L 244.703541 135.615558 
L 261.790622 135.470336 
L 278.877703 135.343002 
L 295.964785 135.232938 
L 313.051866 135.139615 
L 330.138947 135.062587 
L 347.226029 135.001485 
L 364.31311 134.956006 
L 381.400191 134.925902 
L 398.487273 134.910957 
" clip-path="url(#p4114db0639)" style="fill: none; stroke: #bcbd22; stroke-width: 1.5; stroke-linecap: square"/>
   </g>
   <g id="line2d_45">
    <path d="M 73.832727 140.191378 
L 90.919809 139.997728 
L 108.00689 139.815639 
L 125.093971 139.644895 
L 142.181053 139.485291 
L 159.268134 139.336631 
L 176.355215 139.198731 
L 193.442297 139.07142 
L 210.529378 138.954537 
L 227.616459 138.847933 
L 244.703541 138.751474 
L 261.790622 138.665033 
L 278.877703 138.5885 
L 295.964785 138.521772 
L 313.051866 138.464762 
L 330.138947 138.417393 
L 347.226029 138.379597 
L 364.31311 138.351321 
L 381.400191 138.332516 
L 398.487273 138.323138 
" clip-path="url(#p4114db0639)" style="fill: none; stroke: #17becf; stroke-width: 1.5; stroke-linecap: square"/>
   </g>
   <g id="line2d_46">
    <path d="M 73.832727 140.289754 
L 90.919809 140.216217 
L 108.00689 140.145411 
L 125.093971 140.07756 
L 142.181053 140.012865 
L 159.268134 139.951504 
L 176.355215 139.893635 
L 193.442297 139.8394 
L 210.529378 139.788923 
L 227.616459 139.742314 
L 244.703541 139.699671 
L 261.790622 139.661077 
L 278.877703 139.626605 
L 295.964785 139.596318 
L 313.051866 139.570269 
L 330.138947 139.548502 
L 347.226029 139.531052 
L 364.31311 139.517946 
L 381.400191 139.509203 
L 398.487273 139.504832 
" clip-path="url(#p4114db0639)" style="fill: none; stroke: #1f77b4; stroke-width: 1.5; stroke-linecap: square"/>
   </g>
   <g id="line2d_47">
    <path d="M 73.832727 140.314034 
L 90.919809 140.285708 
L 108.00689 140.258054 
L 125.093971 140.231211 
L 142.181053 140.205312 
L 159.268134 140.180478 
L 176.355215 140.15682 
L 193.442297 140.134442 
L 210.529378 140.113438 
L 227.616459 140.093894 
L 244.703541 140.075887 
L 261.790622 140.059489 
L 278.877703 140.04476 
L 295.964785 140.031756 
L 313.051866 140.020524 
L 330.138947 140.011103 
L 347.226029 140.003529 
L 364.31311 139.997826 
L 381.400191 139.994014 
L 398.487273 139.992106 
" clip-path="url(#p4114db0639)" style="fill: none; stroke: #ff7f0e; stroke-width: 1.5; stroke-linecap: square"/>
   </g>
   <g id="line2d_48">
    <path d="M 73.832727 140.322785 
L 90.919809 140.311536 
L 108.00689 140.300483 
L 125.093971 140.28969 
L 142.181053 140.279215 
L 159.268134 140.269116 
L 176.355215 140.259447 
L 193.442297 140.250257 
L 210.529378 140.241592 
L 227.616459 140.233497 
L 244.703541 140.226012 
L 261.790622 140.219171 
L 278.877703 140.213008 
L 295.964785 140.207552 
L 313.051866 140.202829 
L 330.138947 140.19886 
L 347.226029 140.195663 
L 364.31311 140.193253 
L 381.400191 140.19164 
L 398.487273 140.190832 
" clip-path="url(#p4114db0639)" style="fill: none; stroke: #2ca02c; stroke-width: 1.5; stroke-linecap: square"/>
   </g>
   <g id="patch_10">
    <path d="M 57.6 142.411034 
L 57.6 96.529655 
" style="fill: none; stroke: #000000; stroke-width: 0.8; stroke-linejoin: miter; stroke-linecap: square"/>
   </g>
   <g id="patch_11">
    <path d="M 414.72 142.411034 
L 414.72 96.529655 
" style="fill: none; stroke: #000000; stroke-width: 0.8; stroke-linejoin: miter; stroke-linecap: square"/>
   </g>
   <g id="patch_12">
    <path d="M 57.6 142.411034 
L 414.72 142.411034 
" style="fill: none; stroke: #000000; stroke-width: 0.8; stroke-linejoin: miter; stroke-linecap: square"/>
   </g>
   <g id="patch_13">
    <path d="M 57.6 96.529655 
L 414.72 96.529655 
" style="fill: none; stroke: #000000; stroke-width: 0.8; stroke-linejoin: miter; stroke-linecap: square"/>
   </g>
   <g id="text_10">
    <!-- Pressure - Container 1 -->
    <g transform="translate(169.523438 93.529655)scale(0.12 -0.12)">
     <defs>
      <path id="DejaVuSans-50" d="M 1259 4147 
L 1259 2394 
L 2053 2394 
Q 2494 2394 2734 2622 
Q 2975 2850 2975 3272 
Q 2975 3691 2734 3919 
Q 2494 4147 2053 4147 
L 1259 4147 
z
M 628 4666 
L 2053 4666 
Q 2838 4666 3239 4311 
Q 3641 3956 3641 3272 
Q 3641 2581 3239 2228 
Q 2838 1875 2053 1875 
L 1259 1875 
L 1259 0 
L 628 0 
L 628 4666 
z
" transform="scale(0.015625)"/>
      <path id="DejaVuSans-75" d="M 544 1381 
L 544 3500 
L 1119 3500 
L 1119 1403 
Q 1119 906 1312 657 
Q 1506 409 1894 409 
Q 2359 409 2629 706 
Q 2900 1003 2900 1516 
L 2900 3500 
L 3475 3500 
L 3475 0 
L 2900 0 
L 2900 538 
Q 2691 219 2414 64 
Q 2138 -91 1772 -91 
Q 1169 -91 856 284 
Q 544 659 544 1381 
z
M 1991 3584 
L 1991 3584 
z
" transform="scale(0.015625)"/>
     </defs>
     <use xlink:href="#DejaVuSans-50"/>
     <use xlink:href="#DejaVuSans-72" x="58.552734"/>
     <use xlink:href="#DejaVuSans-65" x="97.416016"/>
     <use xlink:href="#DejaVuSans-73" x="158.939453"/>
     <use xlink:href="#DejaVuSans-73" x="211.039062"/>
     <use xlink:href="#DejaVuSans-75" x="263.138672"/>
     <use xlink:href="#DejaVuSans-72" x="326.517578"/>
     <use xlink:href="#DejaVuSans-65" x="365.380859"/>
     <use xlink:href="#DejaVuSans-20" x="426.904297"/>
     <use xlink:href="#DejaVuSans-2d" x="458.691406"/>
     <use xlink:href="#DejaVuSans-20" x="494.775391"/>
     <use xlink:href="#DejaVuSans-43" x="526.5625"/>
     <use xlink:href="#DejaVuSans-6f" x="596.386719"/>
     <use xlink:href="#DejaVuSans-6e" x="657.568359"/>
     <use xlink:href="#DejaVuSans-74" x="720.947266"/>
     <use xlink:href="#DejaVuSans-61" x="760.15625"/>
     <use xlink:href="#DejaVuSans-69" x="821.435547"/>
     <use xlink:href="#DejaVuSans-6e" x="849.21875"/>
     <use xlink:href="#DejaVuSans-65" x="912.597656"/>
     <use xlink:href="#DejaVuSans-72" x="974.121094"/>
     <use xlink:href="#DejaVuSans-20" x="1015.234375"/>
     <use xlink:href="#DejaVuSans-31" x="1047.021484"/>
    </g>
   </g>
  </g>
  <g id="axes_4">
   <g id="patch_14">
    <path d="M 57.6 197.46869 
L 414.72 197.46869 
L 414.72 151.58731 
L 57.6 151.58731 
z
" style="fill: #ffffff"/>
   </g>
   <g id="matplotlib.axis_7">
    <g id="xtick_17">
     <g id="line2d_49">
      <g>
       <use xlink:href="#mfd78edcf46" x="73.832727" y="197.46869" style="stroke: #000000; stroke-width: 0.8"/>
      </g>
     </g>
    </g>
    <g id="xtick_18">
     <g id="line2d_50">
      <g>
       <use xlink:href="#mfd78edcf46" x="116.550431" y="197.46869" style="stroke: #000000; stroke-width: 0.8"/>
      </g>
     </g>
    </g>
    <g id="xtick_19">
     <g id="line2d_51">
      <g>
       <use xlink:href="#mfd78edcf46" x="159.268134" y="197.46869" style="stroke: #000000; stroke-width: 0.8"/>
      </g>
     </g>
    </g>
    <g id="xtick_20">
     <g id="line2d_52">
      <g>
       <use xlink:href="#mfd78edcf46" x="201.985837" y="197.46869" style="stroke: #000000; stroke-width: 0.8"/>
      </g>
     </g>
    </g>
    <g id="xtick_21">
     <g id="line2d_53">
      <g>
       <use xlink:href="#mfd78edcf46" x="244.703541" y="197.46869" style="stroke: #000000; stroke-width: 0.8"/>
      </g>
     </g>
    </g>
    <g id="xtick_22">
     <g id="line2d_54">
      <g>
       <use xlink:href="#mfd78edcf46" x="287.421244" y="197.46869" style="stroke: #000000; stroke-width: 0.8"/>
      </g>
     </g>
    </g>
    <g id="xtick_23">
     <g id="line2d_55">
      <g>
       <use xlink:href="#mfd78edcf46" x="330.138947" y="197.46869" style="stroke: #000000; stroke-width: 0.8"/>
      </g>
     </g>
    </g>
    <g id="xtick_24">
     <g id="line2d_56">
      <g>
       <use xlink:href="#mfd78edcf46" x="372.856651" y="197.46869" style="stroke: #000000; stroke-width: 0.8"/>
      </g>
     </g>
    </g>
   </g>
   <g id="matplotlib.axis_8">
    <g id="ytick_7">
     <g id="line2d_57">
      <g>
       <use xlink:href="#m12d9c56a75" x="57.6" y="195.383186" style="stroke: #000000; stroke-width: 0.8"/>
      </g>
     </g>
     <g id="text_11">
      <!-- 0.0 -->
      <g transform="translate(34.696875 199.182405)scale(0.1 -0.1)">
       <use xlink:href="#DejaVuSans-30"/>
       <use xlink:href="#DejaVuSans-2e" x="63.623047"/>
       <use xlink:href="#DejaVuSans-30" x="95.410156"/>
      </g>
     </g>
    </g>
    <g id="ytick_8">
     <g id="line2d_58">
      <g>
       <use xlink:href="#m12d9c56a75" x="57.6" y="172.287821" style="stroke: #000000; stroke-width: 0.8"/>
      </g>
     </g>
     <g id="text_12">
      <!-- 0.2 -->
      <g transform="translate(34.696875 176.08704)scale(0.1 -0.1)">
       <use xlink:href="#DejaVuSans-30"/>
       <use xlink:href="#DejaVuSans-2e" x="63.623047"/>
       <use xlink:href="#DejaVuSans-32" x="95.410156"/>
      </g>
     </g>
    </g>
   </g>
   <g id="line2d_59">
    <path d="M 73.832727 195.273461 
L 90.919809 195.271829 
L 108.00689 195.269307 
L 125.093971 195.265929 
L 142.181053 195.261604 
L 159.268134 195.256185 
L 176.355215 195.249465 
L 193.442297 195.241157 
L 210.529378 195.230854 
L 227.616459 195.217977 
L 244.703541 195.201672 
L 261.790622 195.180644 
L 278.877703 195.152844 
L 295.964785 195.114861 
L 313.051866 195.060649 
L 330.138947 194.978621 
L 347.226029 194.844343 
L 364.31311 194.600383 
L 381.400191 194.101463 
L 398.487273 193.122264 
" clip-path="url(#p2172b4b44d)" style="fill: none; stroke: #1f77b4; stroke-width: 1.5; stroke-linecap: square"/>
   </g>
   <g id="line2d_60">
    <path d="M 73.832727 178.44611 
L 90.919809 172.578482 
L 108.00689 167.471564 
L 125.093971 163.6988 
L 142.181053 160.994579 
L 159.268134 159.021705 
L 176.355215 157.568227 
L 193.442297 156.500451 
L 210.529378 155.722845 
L 227.616459 155.162939 
L 244.703541 154.765433 
L 261.790622 154.48855 
L 278.877703 154.30111 
L 295.964785 154.180088 
L 313.051866 154.108568 
L 330.138947 154.07386 
L 347.226029 154.06511 
L 364.31311 154.067502 
L 381.400191 154.041315 
L 398.487273 153.884042 
" clip-path="url(#p2172b4b44d)" style="fill: none; stroke: #ff7f0e; stroke-width: 1.5; stroke-linecap: square"/>
   </g>
   <g id="line2d_61">
    <path d="M 73.832727 182.884313 
L 90.919809 181.331609 
L 108.00689 179.064591 
L 125.093971 175.99601 
L 142.181053 172.170313 
L 159.268134 167.918083 
L 176.355215 163.836914 
L 193.442297 160.475371 
L 210.529378 158.037282 
L 227.616459 156.412132 
L 244.703541 155.375127 
L 261.790622 154.723807 
L 278.877703 154.316294 
L 295.964785 154.063135 
L 313.051866 153.909965 
L 330.138947 153.82353 
L 347.226029 153.782188 
L 364.31311 153.767844 
L 381.400191 153.751557 
L 398.487273 153.672828 
" clip-path="url(#p2172b4b44d)" style="fill: none; stroke: #2ca02c; stroke-width: 1.5; stroke-linecap: square"/>
   </g>
   <g id="line2d_62">
    <path d="M 73.832727 183.632967 
L 90.919809 183.307506 
L 108.00689 182.837797 
L 125.093971 182.190714 
L 142.181053 181.310971 
L 159.268134 180.112562 
L 176.355215 178.473103 
L 193.442297 176.246038 
L 210.529378 173.30777 
L 227.616459 169.684776 
L 244.703541 165.708404 
L 261.790622 161.962362 
L 278.877703 158.954569 
L 295.964785 156.849031 
L 313.051866 155.515573 
L 330.138947 154.725538 
L 347.226029 154.278651 
L 364.31311 154.034809 
L 381.400191 153.897872 
L 398.487273 153.787623 
" clip-path="url(#p2172b4b44d)" style="fill: none; stroke: #d62728; stroke-width: 1.5; stroke-linecap: square"/>
   </g>
   <g id="line2d_63">
    <path d="M 73.832727 191.415379 
L 90.919809 191.26983 
L 108.00689 191.093622 
L 125.093971 190.881981 
L 142.181053 190.622867 
L 159.268134 190.297513 
L 176.355215 189.877904 
L 193.442297 189.322116 
L 210.529378 188.566698 
L 227.616459 187.515438 
L 244.703541 186.027357 
L 261.790622 183.918664 
L 278.877703 181.018119 
L 295.964785 177.322562 
L 313.051866 173.18104 
L 330.138947 169.233605 
L 347.226029 166.030344 
L 364.31311 163.748185 
L 381.400191 162.256251 
L 398.487273 161.318414 
" clip-path="url(#p2172b4b44d)" style="fill: none; stroke: #9467bd; stroke-width: 1.5; stroke-linecap: square"/>
   </g>
   <g id="line2d_64">
    <path d="M 73.832727 195.224898 
L 90.919809 195.220847 
L 108.00689 195.215988 
L 125.093971 195.210291 
L 142.181053 195.203547 
L 159.268134 195.195421 
L 176.355215 195.185428 
L 193.442297 195.17287 
L 210.529378 195.156733 
L 227.616459 195.135505 
L 244.703541 195.106912 
L 261.790622 195.067507 
L 278.877703 195.012014 
L 295.964785 194.932167 
L 313.051866 194.814269 
L 330.138947 194.633598 
L 347.226029 194.340569 
L 364.31311 193.822556 
L 381.400191 192.790679 
L 398.487273 190.630465 
" clip-path="url(#p2172b4b44d)" style="fill: none; stroke: #8c564b; stroke-width: 1.5; stroke-linecap: square"/>
   </g>
   <g id="line2d_65">
    <path d="M 73.832727 195.351093 
L 90.919809 195.35044 
L 108.00689 195.349594 
L 125.093971 195.34858 
L 142.181053 195.347376 
L 159.268134 195.345934 
L 176.355215 195.344187 
L 193.442297 195.342036 
L 210.529378 195.339342 
L 227.616459 195.3359 
L 244.703541 195.33141 
L 261.790622 195.325421 
L 278.877703 195.31725 
L 295.964785 195.305792 
L 313.051866 195.289176 
L 330.138947 195.264015 
L 347.226029 195.223069 
L 364.31311 195.147403 
L 381.400191 194.978848 
L 398.487273 194.588836 
" clip-path="url(#p2172b4b44d)" style="fill: none; stroke: #e377c2; stroke-width: 1.5; stroke-linecap: square"/>
   </g>
   <g id="line2d_66">
    <path d="M 73.832727 195.365968 
L 90.919809 195.365701 
L 108.00689 195.365305 
L 125.093971 195.364808 
L 142.181053 195.364206 
L 159.268134 195.363481 
L 176.355215 195.362604 
L 193.442297 195.361532 
L 210.529378 195.360204 
L 227.616459 195.358534 
L 244.703541 195.356394 
L 261.790622 195.353599 
L 278.877703 195.34987 
L 295.964785 195.344777 
L 313.051866 195.33754 
L 330.138947 195.326589 
L 347.226029 195.308588 
L 364.31311 195.2752 
L 381.400191 195.206078 
L 398.487273 195.083047 
" clip-path="url(#p2172b4b44d)" style="fill: none; stroke: #7f7f7f; stroke-width: 1.5; stroke-linecap: square"/>
   </g>
   <g id="line2d_67">
    <path d="M 73.832727 195.378579 
L 90.919809 195.378358 
L 108.00689 195.378121 
L 125.093971 195.377868 
L 142.181053 195.377597 
L 159.268134 195.377304 
L 176.355215 195.376985 
L 193.442297 195.376637 
L 210.529378 195.376254 
L 227.616459 195.375828 
L 244.703541 195.375351 
L 261.790622 195.374811 
L 278.877703 195.374192 
L 295.964785 195.373472 
L 313.051866 195.372619 
L 330.138947 195.371587 
L 347.226029 195.370304 
L 364.31311 195.368665 
L 381.400191 195.36653 
L 398.487273 195.363875 
" clip-path="url(#p2172b4b44d)" style="fill: none; stroke: #bcbd22; stroke-width: 1.5; stroke-linecap: square"/>
   </g>
   <g id="line2d_68">
    <path d="M 73.832727 195.382782 
L 90.919809 195.382774 
L 108.00689 195.382764 
L 125.093971 195.382754 
L 142.181053 195.382743 
L 159.268134 195.382731 
L 176.355215 195.382718 
L 193.442297 195.382704 
L 210.529378 195.382688 
L 227.616459 195.382671 
L 244.703541 195.382652 
L 261.790622 195.382631 
L 278.877703 195.382607 
L 295.964785 195.38258 
L 313.051866 195.382549 
L 330.138947 195.382513 
L 347.226029 195.38247 
L 364.31311 195.382418 
L 381.400191 195.382354 
L 398.487273 195.382279 
" clip-path="url(#p2172b4b44d)" style="fill: none; stroke: #17becf; stroke-width: 1.5; stroke-linecap: square"/>
   </g>
   <g id="line2d_69">
    <path d="M 73.832727 195.383102 
L 90.919809 195.383103 
L 108.00689 195.383103 
L 125.093971 195.383103 
L 142.181053 195.383103 
L 159.268134 195.383103 
L 176.355215 195.383102 
L 193.442297 195.383102 
L 210.529378 195.383101 
L 227.616459 195.3831 
L 244.703541 195.383098 
L 261.790622 195.383097 
L 278.877703 195.383095 
L 295.964785 195.383093 
L 313.051866 195.383091 
L 330.138947 195.383088 
L 347.226029 195.383086 
L 364.31311 195.383083 
L 381.400191 195.383079 
L 398.487273 195.383076 
" clip-path="url(#p2172b4b44d)" style="fill: none; stroke: #1f77b4; stroke-width: 1.5; stroke-linecap: square"/>
   </g>
   <g id="line2d_70">
    <path d="M 73.832727 195.383168 
L 90.919809 195.383168 
L 108.00689 195.383169 
L 125.093971 195.38317 
L 142.181053 195.38317 
L 159.268134 195.38317 
L 176.355215 195.383171 
L 193.442297 195.383171 
L 210.529378 195.383172 
L 227.616459 195.383172 
L 244.703541 195.383172 
L 261.790622 195.383172 
L 278.877703 195.383172 
L 295.964785 195.383172 
L 313.051866 195.383172 
L 330.138947 195.383172 
L 347.226029 195.383172 
L 364.31311 195.383171 
L 381.400191 195.383171 
L 398.487273 195.38317 
" clip-path="url(#p2172b4b44d)" style="fill: none; stroke: #ff7f0e; stroke-width: 1.5; stroke-linecap: square"/>
   </g>
   <g id="line2d_71">
    <path d="M 73.832727 195.38317 
L 90.919809 195.38317 
L 108.00689 195.38317 
L 125.093971 195.38317 
L 142.181053 195.38317 
L 159.268134 195.38317 
L 176.355215 195.383169 
L 193.442297 195.383168 
L 210.529378 195.383168 
L 227.616459 195.383167 
L 244.703541 195.383166 
L 261.790622 195.383165 
L 278.877703 195.383164 
L 295.964785 195.383162 
L 313.051866 195.383161 
L 330.138947 195.383159 
L 347.226029 195.383158 
L 364.31311 195.383156 
L 381.400191 195.383155 
L 398.487273 195.383154 
" clip-path="url(#p2172b4b44d)" style="fill: none; stroke: #2ca02c; stroke-width: 1.5; stroke-linecap: square"/>
   </g>
   <g id="patch_15">
    <path d="M 57.6 197.46869 
L 57.6 151.58731 
" style="fill: none; stroke: #000000; stroke-width: 0.8; stroke-linejoin: miter; stroke-linecap: square"/>
   </g>
   <g id="patch_16">
    <path d="M 414.72 197.46869 
L 414.72 151.58731 
" style="fill: none; stroke: #000000; stroke-width: 0.8; stroke-linejoin: miter; stroke-linecap: square"/>
   </g>
   <g id="patch_17">
    <path d="M 57.6 197.46869 
L 414.72 197.46869 
" style="fill: none; stroke: #000000; stroke-width: 0.8; stroke-linejoin: miter; stroke-linecap: square"/>
   </g>
   <g id="patch_18">
    <path d="M 57.6 151.58731 
L 414.72 151.58731 
" style="fill: none; stroke: #000000; stroke-width: 0.8; stroke-linejoin: miter; stroke-linecap: square"/>
   </g>
   <g id="text_13">
    <!-- yA - Container 1 -->
    <g transform="translate(187.48125 148.58731)scale(0.12 -0.12)">
     <defs>
      <path id="DejaVuSans-41" d="M 2188 4044 
L 1331 1722 
L 3047 1722 
L 2188 4044 
z
M 1831 4666 
L 2547 4666 
L 4325 0 
L 3669 0 
L 3244 1197 
L 1141 1197 
L 716 0 
L 50 0 
L 1831 4666 
z
" transform="scale(0.015625)"/>
     </defs>
     <use xlink:href="#DejaVuSans-79"/>
     <use xlink:href="#DejaVuSans-41" x="59.179688"/>
     <use xlink:href="#DejaVuSans-20" x="127.587891"/>
     <use xlink:href="#DejaVuSans-2d" x="159.375"/>
     <use xlink:href="#DejaVuSans-20" x="195.458984"/>
     <use xlink:href="#DejaVuSans-43" x="227.246094"/>
     <use xlink:href="#DejaVuSans-6f" x="297.070312"/>
     <use xlink:href="#DejaVuSans-6e" x="358.251953"/>
     <use xlink:href="#DejaVuSans-74" x="421.630859"/>
     <use xlink:href="#DejaVuSans-61" x="460.839844"/>
     <use xlink:href="#DejaVuSans-69" x="522.119141"/>
     <use xlink:href="#DejaVuSans-6e" x="549.902344"/>
     <use xlink:href="#DejaVuSans-65" x="613.28125"/>
     <use xlink:href="#DejaVuSans-72" x="674.804688"/>
     <use xlink:href="#DejaVuSans-20" x="715.917969"/>
     <use xlink:href="#DejaVuSans-31" x="747.705078"/>
    </g>
   </g>
  </g>
  <g id="axes_5">
   <g id="patch_19">
    <path d="M 57.6 252.526345 
L 414.72 252.526345 
L 414.72 206.644966 
L 57.6 206.644966 
z
" style="fill: #ffffff"/>
   </g>
   <g id="matplotlib.axis_9">
    <g id="xtick_25">
     <g id="line2d_72">
      <g>
       <use xlink:href="#mfd78edcf46" x="73.832727" y="252.526345" style="stroke: #000000; stroke-width: 0.8"/>
      </g>
     </g>
    </g>
    <g id="xtick_26">
     <g id="line2d_73">
      <g>
       <use xlink:href="#mfd78edcf46" x="116.550431" y="252.526345" style="stroke: #000000; stroke-width: 0.8"/>
      </g>
     </g>
    </g>
    <g id="xtick_27">
     <g id="line2d_74">
      <g>
       <use xlink:href="#mfd78edcf46" x="159.268134" y="252.526345" style="stroke: #000000; stroke-width: 0.8"/>
      </g>
     </g>
    </g>
    <g id="xtick_28">
     <g id="line2d_75">
      <g>
       <use xlink:href="#mfd78edcf46" x="201.985837" y="252.526345" style="stroke: #000000; stroke-width: 0.8"/>
      </g>
     </g>
    </g>
    <g id="xtick_29">
     <g id="line2d_76">
      <g>
       <use xlink:href="#mfd78edcf46" x="244.703541" y="252.526345" style="stroke: #000000; stroke-width: 0.8"/>
      </g>
     </g>
    </g>
    <g id="xtick_30">
     <g id="line2d_77">
      <g>
       <use xlink:href="#mfd78edcf46" x="287.421244" y="252.526345" style="stroke: #000000; stroke-width: 0.8"/>
      </g>
     </g>
    </g>
    <g id="xtick_31">
     <g id="line2d_78">
      <g>
       <use xlink:href="#mfd78edcf46" x="330.138947" y="252.526345" style="stroke: #000000; stroke-width: 0.8"/>
      </g>
     </g>
    </g>
    <g id="xtick_32">
     <g id="line2d_79">
      <g>
       <use xlink:href="#mfd78edcf46" x="372.856651" y="252.526345" style="stroke: #000000; stroke-width: 0.8"/>
      </g>
     </g>
    </g>
   </g>
   <g id="matplotlib.axis_10">
    <g id="ytick_9">
     <g id="line2d_80">
      <g>
       <use xlink:href="#m12d9c56a75" x="57.6" y="237.599675" style="stroke: #000000; stroke-width: 0.8"/>
      </g>
     </g>
     <g id="text_14">
      <!-- 0.5 -->
      <g transform="translate(34.696875 241.398894)scale(0.1 -0.1)">
       <use xlink:href="#DejaVuSans-30"/>
       <use xlink:href="#DejaVuSans-2e" x="63.623047"/>
       <use xlink:href="#DejaVuSans-35" x="95.410156"/>
      </g>
     </g>
    </g>
    <g id="ytick_10">
     <g id="line2d_81">
      <g>
       <use xlink:href="#m12d9c56a75" x="57.6" y="208.730469" style="stroke: #000000; stroke-width: 0.8"/>
      </g>
     </g>
     <g id="text_15">
      <!-- 1.0 -->
      <g transform="translate(34.696875 212.529687)scale(0.1 -0.1)">
       <use xlink:href="#DejaVuSans-31"/>
       <use xlink:href="#DejaVuSans-2e" x="63.623047"/>
       <use xlink:href="#DejaVuSans-30" x="95.410156"/>
      </g>
     </g>
    </g>
   </g>
   <g id="line2d_82">
    <path d="M 73.832727 208.840194 
L 90.919809 208.841826 
L 108.00689 208.844348 
L 125.093971 208.847726 
L 142.181053 208.852051 
L 159.268134 208.85747 
L 176.355215 208.86419 
L 193.442297 208.872498 
L 210.529378 208.882801 
L 227.616459 208.895678 
L 244.703541 208.911983 
L 261.790622 208.933011 
L 278.877703 208.960811 
L 295.964785 208.998794 
L 313.051866 209.053006 
L 330.138947 209.135034 
L 347.226029 209.269312 
L 364.31311 209.513272 
L 381.400191 210.012192 
L 398.487273 210.991391 
" clip-path="url(#pbcdf60b291)" style="fill: none; stroke: #1f77b4; stroke-width: 1.5; stroke-linecap: square"/>
   </g>
   <g id="line2d_83">
    <path d="M 73.832727 225.667545 
L 90.919809 231.535173 
L 108.00689 236.642091 
L 125.093971 240.414855 
L 142.181053 243.119076 
L 159.268134 245.091951 
L 176.355215 246.545428 
L 193.442297 247.613204 
L 210.529378 248.39081 
L 227.616459 248.950716 
L 244.703541 249.348223 
L 261.790622 249.625105 
L 278.877703 249.812545 
L 295.964785 249.933567 
L 313.051866 250.005087 
L 330.138947 250.039795 
L 347.226029 250.048545 
L 364.31311 250.046153 
L 381.400191 250.07234 
L 398.487273 250.229613 
" clip-path="url(#pbcdf60b291)" style="fill: none; stroke: #ff7f0e; stroke-width: 1.5; stroke-linecap: square"/>
   </g>
   <g id="line2d_84">
    <path d="M 73.832727 221.229342 
L 90.919809 222.782046 
L 108.00689 225.049064 
L 125.093971 228.117646 
L 142.181053 231.943342 
L 159.268134 236.195572 
L 176.355215 240.276741 
L 193.442297 243.638284 
L 210.529378 246.076373 
L 227.616459 247.701523 
L 244.703541 248.738528 
L 261.790622 249.389848 
L 278.877703 249.797361 
L 295.964785 250.05052 
L 313.051866 250.20369 
L 330.138947 250.290126 
L 347.226029 250.331467 
L 364.31311 250.345811 
L 381.400191 250.362099 
L 398.487273 250.440828 
" clip-path="url(#pbcdf60b291)" style="fill: none; stroke: #2ca02c; stroke-width: 1.5; stroke-linecap: square"/>
   </g>
   <g id="line2d_85">
    <path d="M 73.832727 220.480688 
L 90.919809 220.806149 
L 108.00689 221.275858 
L 125.093971 221.922941 
L 142.181053 222.802684 
L 159.268134 224.001093 
L 176.355215 225.640552 
L 193.442297 227.867618 
L 210.529378 230.805885 
L 227.616459 234.428879 
L 244.703541 238.405252 
L 261.790622 242.151294 
L 278.877703 245.159086 
L 295.964785 247.264625 
L 313.051866 248.598082 
L 330.138947 249.388117 
L 347.226029 249.835004 
L 364.31311 250.078847 
L 381.400191 250.215783 
L 398.487273 250.326032 
" clip-path="url(#pbcdf60b291)" style="fill: none; stroke: #d62728; stroke-width: 1.5; stroke-linecap: square"/>
   </g>
   <g id="line2d_86">
    <path d="M 73.832727 212.698276 
L 90.919809 212.843825 
L 108.00689 213.020033 
L 125.093971 213.231674 
L 142.181053 213.490788 
L 159.268134 213.816142 
L 176.355215 214.235751 
L 193.442297 214.791539 
L 210.529378 215.546957 
L 227.616459 216.598217 
L 244.703541 218.086298 
L 261.790622 220.194991 
L 278.877703 223.095536 
L 295.964785 226.791093 
L 313.051866 230.932616 
L 330.138947 234.88005 
L 347.226029 238.083311 
L 364.31311 240.365471 
L 381.400191 241.857404 
L 398.487273 242.795241 
" clip-path="url(#pbcdf60b291)" style="fill: none; stroke: #9467bd; stroke-width: 1.5; stroke-linecap: square"/>
   </g>
   <g id="line2d_87">
    <path d="M 73.832727 208.888757 
L 90.919809 208.892808 
L 108.00689 208.897667 
L 125.093971 208.903364 
L 142.181053 208.910108 
L 159.268134 208.918234 
L 176.355215 208.928227 
L 193.442297 208.940785 
L 210.529378 208.956922 
L 227.616459 208.97815 
L 244.703541 209.006743 
L 261.790622 209.046148 
L 278.877703 209.101641 
L 295.964785 209.181488 
L 313.051866 209.299386 
L 330.138947 209.480057 
L 347.226029 209.773086 
L 364.31311 210.291099 
L 381.400191 211.322976 
L 398.487273 213.48319 
" clip-path="url(#pbcdf60b291)" style="fill: none; stroke: #8c564b; stroke-width: 1.5; stroke-linecap: square"/>
   </g>
   <g id="line2d_88">
    <path d="M 73.832727 208.762562 
L 90.919809 208.763215 
L 108.00689 208.764061 
L 125.093971 208.765075 
L 142.181053 208.766279 
L 159.268134 208.767721 
L 176.355215 208.769468 
L 193.442297 208.771619 
L 210.529378 208.774313 
L 227.616459 208.777755 
L 244.703541 208.782245 
L 261.790622 208.788234 
L 278.877703 208.796405 
L 295.964785 208.807863 
L 313.051866 208.824479 
L 330.138947 208.84964 
L 347.226029 208.890586 
L 364.31311 208.966252 
L 381.400191 209.134807 
L 398.487273 209.524819 
" clip-path="url(#pbcdf60b291)" style="fill: none; stroke: #e377c2; stroke-width: 1.5; stroke-linecap: square"/>
   </g>
   <g id="line2d_89">
    <path d="M 73.832727 208.747687 
L 90.919809 208.747954 
L 108.00689 208.74835 
L 125.093971 208.748847 
L 142.181053 208.749449 
L 159.268134 208.750174 
L 176.355215 208.751051 
L 193.442297 208.752123 
L 210.529378 208.753451 
L 227.616459 208.755121 
L 244.703541 208.757261 
L 261.790622 208.760056 
L 278.877703 208.763785 
L 295.964785 208.768878 
L 313.051866 208.776115 
L 330.138947 208.787066 
L 347.226029 208.805067 
L 364.31311 208.838455 
L 381.400191 208.907577 
L 398.487273 209.030608 
" clip-path="url(#pbcdf60b291)" style="fill: none; stroke: #7f7f7f; stroke-width: 1.5; stroke-linecap: square"/>
   </g>
   <g id="line2d_90">
    <path d="M 73.832727 208.735076 
L 90.919809 208.735297 
L 108.00689 208.735534 
L 125.093971 208.735787 
L 142.181053 208.736058 
L 159.268134 208.736351 
L 176.355215 208.73667 
L 193.442297 208.737018 
L 210.529378 208.737401 
L 227.616459 208.737827 
L 244.703541 208.738304 
L 261.790622 208.738844 
L 278.877703 208.739463 
L 295.964785 208.740183 
L 313.051866 208.741036 
L 330.138947 208.742068 
L 347.226029 208.743351 
L 364.31311 208.74499 
L 381.400191 208.747125 
L 398.487273 208.74978 
" clip-path="url(#pbcdf60b291)" style="fill: none; stroke: #bcbd22; stroke-width: 1.5; stroke-linecap: square"/>
   </g>
   <g id="line2d_91">
    <path d="M 73.832727 208.730873 
L 90.919809 208.730881 
L 108.00689 208.730891 
L 125.093971 208.730901 
L 142.181053 208.730912 
L 159.268134 208.730924 
L 176.355215 208.730937 
L 193.442297 208.730951 
L 210.529378 208.730967 
L 227.616459 208.730984 
L 244.703541 208.731003 
L 261.790622 208.731024 
L 278.877703 208.731048 
L 295.964785 208.731075 
L 313.051866 208.731106 
L 330.138947 208.731142 
L 347.226029 208.731185 
L 364.31311 208.731237 
L 381.400191 208.731301 
L 398.487273 208.731376 
" clip-path="url(#pbcdf60b291)" style="fill: none; stroke: #17becf; stroke-width: 1.5; stroke-linecap: square"/>
   </g>
   <g id="line2d_92">
    <path d="M 73.832727 208.730553 
L 90.919809 208.730552 
L 108.00689 208.730552 
L 125.093971 208.730552 
L 142.181053 208.730552 
L 159.268134 208.730552 
L 176.355215 208.730553 
L 193.442297 208.730553 
L 210.529378 208.730554 
L 227.616459 208.730555 
L 244.703541 208.730557 
L 261.790622 208.730558 
L 278.877703 208.73056 
L 295.964785 208.730562 
L 313.051866 208.730564 
L 330.138947 208.730566 
L 347.226029 208.730569 
L 364.31311 208.730572 
L 381.400191 208.730576 
L 398.487273 208.730579 
" clip-path="url(#pbcdf60b291)" style="fill: none; stroke: #1f77b4; stroke-width: 1.5; stroke-linecap: square"/>
   </g>
   <g id="line2d_93">
    <path d="M 73.832727 208.730488 
L 90.919809 208.730487 
L 108.00689 208.730486 
L 125.093971 208.730486 
L 142.181053 208.730485 
L 159.268134 208.730485 
L 176.355215 208.730484 
L 193.442297 208.730484 
L 210.529378 208.730484 
L 227.616459 208.730483 
L 244.703541 208.730483 
L 261.790622 208.730483 
L 278.877703 208.730483 
L 295.964785 208.730483 
L 313.051866 208.730483 
L 330.138947 208.730483 
L 347.226029 208.730483 
L 364.31311 208.730484 
L 381.400191 208.730484 
L 398.487273 208.730485 
" clip-path="url(#pbcdf60b291)" style="fill: none; stroke: #ff7f0e; stroke-width: 1.5; stroke-linecap: square"/>
   </g>
   <g id="line2d_94">
    <path d="M 73.832727 208.730485 
L 90.919809 208.730485 
L 108.00689 208.730485 
L 125.093971 208.730485 
L 142.181053 208.730485 
L 159.268134 208.730486 
L 176.355215 208.730486 
L 193.442297 208.730487 
L 210.529378 208.730487 
L 227.616459 208.730488 
L 244.703541 208.730489 
L 261.790622 208.73049 
L 278.877703 208.730491 
L 295.964785 208.730493 
L 313.051866 208.730494 
L 330.138947 208.730496 
L 347.226029 208.730497 
L 364.31311 208.730499 
L 381.400191 208.7305 
L 398.487273 208.730501 
" clip-path="url(#pbcdf60b291)" style="fill: none; stroke: #2ca02c; stroke-width: 1.5; stroke-linecap: square"/>
   </g>
   <g id="patch_20">
    <path d="M 57.6 252.526345 
L 57.6 206.644966 
" style="fill: none; stroke: #000000; stroke-width: 0.8; stroke-linejoin: miter; stroke-linecap: square"/>
   </g>
   <g id="patch_21">
    <path d="M 414.72 252.526345 
L 414.72 206.644966 
" style="fill: none; stroke: #000000; stroke-width: 0.8; stroke-linejoin: miter; stroke-linecap: square"/>
   </g>
   <g id="patch_22">
    <path d="M 57.6 252.526345 
L 414.72 252.526345 
" style="fill: none; stroke: #000000; stroke-width: 0.8; stroke-linejoin: miter; stroke-linecap: square"/>
   </g>
   <g id="patch_23">
    <path d="M 57.6 206.644966 
L 414.72 206.644966 
" style="fill: none; stroke: #000000; stroke-width: 0.8; stroke-linejoin: miter; stroke-linecap: square"/>
   </g>
   <g id="text_16">
    <!-- yB - Container 1 -->
    <g transform="translate(187.469063 203.644966)scale(0.12 -0.12)">
     <defs>
      <path id="DejaVuSans-42" d="M 1259 2228 
L 1259 519 
L 2272 519 
Q 2781 519 3026 730 
Q 3272 941 3272 1375 
Q 3272 1813 3026 2020 
Q 2781 2228 2272 2228 
L 1259 2228 
z
M 1259 4147 
L 1259 2741 
L 2194 2741 
Q 2656 2741 2882 2914 
Q 3109 3088 3109 3444 
Q 3109 3797 2882 3972 
Q 2656 4147 2194 4147 
L 1259 4147 
z
M 628 4666 
L 2241 4666 
Q 2963 4666 3353 4366 
Q 3744 4066 3744 3513 
Q 3744 3084 3544 2831 
Q 3344 2578 2956 2516 
Q 3422 2416 3680 2098 
Q 3938 1781 3938 1306 
Q 3938 681 3513 340 
Q 3088 0 2303 0 
L 628 0 
L 628 4666 
z
" transform="scale(0.015625)"/>
     </defs>
     <use xlink:href="#DejaVuSans-79"/>
     <use xlink:href="#DejaVuSans-42" x="59.179688"/>
     <use xlink:href="#DejaVuSans-20" x="127.783203"/>
     <use xlink:href="#DejaVuSans-2d" x="159.570312"/>
     <use xlink:href="#DejaVuSans-20" x="195.654297"/>
     <use xlink:href="#DejaVuSans-43" x="227.441406"/>
     <use xlink:href="#DejaVuSans-6f" x="297.265625"/>
     <use xlink:href="#DejaVuSans-6e" x="358.447266"/>
     <use xlink:href="#DejaVuSans-74" x="421.826172"/>
     <use xlink:href="#DejaVuSans-61" x="461.035156"/>
     <use xlink:href="#DejaVuSans-69" x="522.314453"/>
     <use xlink:href="#DejaVuSans-6e" x="550.097656"/>
     <use xlink:href="#DejaVuSans-65" x="613.476562"/>
     <use xlink:href="#DejaVuSans-72" x="675"/>
     <use xlink:href="#DejaVuSans-20" x="716.113281"/>
     <use xlink:href="#DejaVuSans-31" x="747.900391"/>
    </g>
   </g>
  </g>
  <g id="axes_6">
   <g id="patch_24">
    <path d="M 57.6 307.584 
L 414.72 307.584 
L 414.72 261.702621 
L 57.6 261.702621 
z
" style="fill: #ffffff"/>
   </g>
   <g id="matplotlib.axis_11">
    <g id="xtick_33">
     <g id="line2d_95">
      <g>
       <use xlink:href="#mfd78edcf46" x="73.832727" y="307.584" style="stroke: #000000; stroke-width: 0.8"/>
      </g>
     </g>
     <g id="text_17">
      <!-- 0.0 -->
      <g transform="translate(65.881165 322.182437)scale(0.1 -0.1)">
       <use xlink:href="#DejaVuSans-30"/>
       <use xlink:href="#DejaVuSans-2e" x="63.623047"/>
       <use xlink:href="#DejaVuSans-30" x="95.410156"/>
      </g>
     </g>
    </g>
    <g id="xtick_34">
     <g id="line2d_96">
      <g>
       <use xlink:href="#mfd78edcf46" x="116.550431" y="307.584" style="stroke: #000000; stroke-width: 0.8"/>
      </g>
     </g>
     <g id="text_18">
      <!-- 2.5 -->
      <g transform="translate(108.598868 322.182437)scale(0.1 -0.1)">
       <use xlink:href="#DejaVuSans-32"/>
       <use xlink:href="#DejaVuSans-2e" x="63.623047"/>
       <use xlink:href="#DejaVuSans-35" x="95.410156"/>
      </g>
     </g>
    </g>
    <g id="xtick_35">
     <g id="line2d_97">
      <g>
       <use xlink:href="#mfd78edcf46" x="159.268134" y="307.584" style="stroke: #000000; stroke-width: 0.8"/>
      </g>
     </g>
     <g id="text_19">
      <!-- 5.0 -->
      <g transform="translate(151.316571 322.182437)scale(0.1 -0.1)">
       <use xlink:href="#DejaVuSans-35"/>
       <use xlink:href="#DejaVuSans-2e" x="63.623047"/>
       <use xlink:href="#DejaVuSans-30" x="95.410156"/>
      </g>
     </g>
    </g>
    <g id="xtick_36">
     <g id="line2d_98">
      <g>
       <use xlink:href="#mfd78edcf46" x="201.985837" y="307.584" style="stroke: #000000; stroke-width: 0.8"/>
      </g>
     </g>
     <g id="text_20">
      <!-- 7.5 -->
      <g transform="translate(194.034275 322.182437)scale(0.1 -0.1)">
       <defs>
        <path id="DejaVuSans-37" d="M 525 4666 
L 3525 4666 
L 3525 4397 
L 1831 0 
L 1172 0 
L 2766 4134 
L 525 4134 
L 525 4666 
z
" transform="scale(0.015625)"/>
       </defs>
       <use xlink:href="#DejaVuSans-37"/>
       <use xlink:href="#DejaVuSans-2e" x="63.623047"/>
       <use xlink:href="#DejaVuSans-35" x="95.410156"/>
      </g>
     </g>
    </g>
    <g id="xtick_37">
     <g id="line2d_99">
      <g>
       <use xlink:href="#mfd78edcf46" x="244.703541" y="307.584" style="stroke: #000000; stroke-width: 0.8"/>
      </g>
     </g>
     <g id="text_21">
      <!-- 10.0 -->
      <g transform="translate(233.570728 322.182437)scale(0.1 -0.1)">
       <use xlink:href="#DejaVuSans-31"/>
       <use xlink:href="#DejaVuSans-30" x="63.623047"/>
       <use xlink:href="#DejaVuSans-2e" x="127.246094"/>
       <use xlink:href="#DejaVuSans-30" x="159.033203"/>
      </g>
     </g>
    </g>
    <g id="xtick_38">
     <g id="line2d_100">
      <g>
       <use xlink:href="#mfd78edcf46" x="287.421244" y="307.584" style="stroke: #000000; stroke-width: 0.8"/>
      </g>
     </g>
     <g id="text_22">
      <!-- 12.5 -->
      <g transform="translate(276.288432 322.182437)scale(0.1 -0.1)">
       <use xlink:href="#DejaVuSans-31"/>
       <use xlink:href="#DejaVuSans-32" x="63.623047"/>
       <use xlink:href="#DejaVuSans-2e" x="127.246094"/>
       <use xlink:href="#DejaVuSans-35" x="159.033203"/>
      </g>
     </g>
    </g>
    <g id="xtick_39">
     <g id="line2d_101">
      <g>
       <use xlink:href="#mfd78edcf46" x="330.138947" y="307.584" style="stroke: #000000; stroke-width: 0.8"/>
      </g>
     </g>
     <g id="text_23">
      <!-- 15.0 -->
      <g transform="translate(319.006135 322.182437)scale(0.1 -0.1)">
       <use xlink:href="#DejaVuSans-31"/>
       <use xlink:href="#DejaVuSans-35" x="63.623047"/>
       <use xlink:href="#DejaVuSans-2e" x="127.246094"/>
       <use xlink:href="#DejaVuSans-30" x="159.033203"/>
      </g>
     </g>
    </g>
    <g id="xtick_40">
     <g id="line2d_102">
      <g>
       <use xlink:href="#mfd78edcf46" x="372.856651" y="307.584" style="stroke: #000000; stroke-width: 0.8"/>
      </g>
     </g>
     <g id="text_24">
      <!-- 17.5 -->
      <g transform="translate(361.723838 322.182437)scale(0.1 -0.1)">
       <use xlink:href="#DejaVuSans-31"/>
       <use xlink:href="#DejaVuSans-37" x="63.623047"/>
       <use xlink:href="#DejaVuSans-2e" x="127.246094"/>
       <use xlink:href="#DejaVuSans-35" x="159.033203"/>
      </g>
     </g>
    </g>
    <g id="text_25">
     <!-- position z -->
     <g transform="translate(212.142031 335.860562)scale(0.1 -0.1)">
      <defs>
       <path id="DejaVuSans-70" d="M 1159 525 
L 1159 -1331 
L 581 -1331 
L 581 3500 
L 1159 3500 
L 1159 2969 
Q 1341 3281 1617 3432 
Q 1894 3584 2278 3584 
Q 2916 3584 3314 3078 
Q 3713 2572 3713 1747 
Q 3713 922 3314 415 
Q 2916 -91 2278 -91 
Q 1894 -91 1617 61 
Q 1341 213 1159 525 
z
M 3116 1747 
Q 3116 2381 2855 2742 
Q 2594 3103 2138 3103 
Q 1681 3103 1420 2742 
Q 1159 2381 1159 1747 
Q 1159 1113 1420 752 
Q 1681 391 2138 391 
Q 2594 391 2855 752 
Q 3116 1113 3116 1747 
z
" transform="scale(0.015625)"/>
      </defs>
      <use xlink:href="#DejaVuSans-70"/>
      <use xlink:href="#DejaVuSans-6f" x="63.476562"/>
      <use xlink:href="#DejaVuSans-73" x="124.658203"/>
      <use xlink:href="#DejaVuSans-69" x="176.757812"/>
      <use xlink:href="#DejaVuSans-74" x="204.541016"/>
      <use xlink:href="#DejaVuSans-69" x="243.75"/>
      <use xlink:href="#DejaVuSans-6f" x="271.533203"/>
      <use xlink:href="#DejaVuSans-6e" x="332.714844"/>
      <use xlink:href="#DejaVuSans-20" x="396.09375"/>
      <use xlink:href="#DejaVuSans-7a" x="427.880859"/>
     </g>
    </g>
   </g>
   <g id="matplotlib.axis_12">
    <g id="ytick_11">
     <g id="line2d_103">
      <g>
       <use xlink:href="#m12d9c56a75" x="57.6" y="305.498497" style="stroke: #000000; stroke-width: 0.8"/>
      </g>
     </g>
     <g id="text_26">
      <!-- 0.0 -->
      <g transform="translate(34.696875 309.297715)scale(0.1 -0.1)">
       <use xlink:href="#DejaVuSans-30"/>
       <use xlink:href="#DejaVuSans-2e" x="63.623047"/>
       <use xlink:href="#DejaVuSans-30" x="95.410156"/>
      </g>
     </g>
    </g>
    <g id="ytick_12">
     <g id="line2d_104">
      <g>
       <use xlink:href="#m12d9c56a75" x="57.6" y="282.403131" style="stroke: #000000; stroke-width: 0.8"/>
      </g>
     </g>
     <g id="text_27">
      <!-- 0.2 -->
      <g transform="translate(34.696875 286.20235)scale(0.1 -0.1)">
       <use xlink:href="#DejaVuSans-30"/>
       <use xlink:href="#DejaVuSans-2e" x="63.623047"/>
       <use xlink:href="#DejaVuSans-32" x="95.410156"/>
      </g>
     </g>
    </g>
   </g>
   <g id="line2d_105">
    <path d="M 73.832727 305.388772 
L 90.919809 305.38714 
L 108.00689 305.384617 
L 125.093971 305.38124 
L 142.181053 305.376914 
L 159.268134 305.371495 
L 176.355215 305.364775 
L 193.442297 305.356467 
L 210.529378 305.346164 
L 227.616459 305.333287 
L 244.703541 305.316982 
L 261.790622 305.295954 
L 278.877703 305.268154 
L 295.964785 305.230171 
L 313.051866 305.17596 
L 330.138947 305.093932 
L 347.226029 304.959654 
L 364.31311 304.715694 
L 381.400191 304.216773 
L 398.487273 303.237574 
" clip-path="url(#p96d25b3272)" style="fill: none; stroke: #1f77b4; stroke-width: 1.5; stroke-linecap: square"/>
   </g>
   <g id="line2d_106">
    <path d="M 73.832727 288.56142 
L 90.919809 282.693792 
L 108.00689 277.586875 
L 125.093971 273.814111 
L 142.181053 271.10989 
L 159.268134 269.137015 
L 176.355215 267.683538 
L 193.442297 266.615761 
L 210.529378 265.838155 
L 227.616459 265.278249 
L 244.703541 264.880743 
L 261.790622 264.60386 
L 278.877703 264.41642 
L 295.964785 264.295398 
L 313.051866 264.223878 
L 330.138947 264.18917 
L 347.226029 264.180421 
L 364.31311 264.182813 
L 381.400191 264.156625 
L 398.487273 263.999353 
" clip-path="url(#p96d25b3272)" style="fill: none; stroke: #ff7f0e; stroke-width: 1.5; stroke-linecap: square"/>
   </g>
   <g id="line2d_107">
    <path d="M 73.832727 292.999624 
L 90.919809 291.44692 
L 108.00689 289.179901 
L 125.093971 286.11132 
L 142.181053 282.285623 
L 159.268134 278.033393 
L 176.355215 273.952224 
L 193.442297 270.590681 
L 210.529378 268.152592 
L 227.616459 266.527442 
L 244.703541 265.490438 
L 261.790622 264.839118 
L 278.877703 264.431604 
L 295.964785 264.178445 
L 313.051866 264.025275 
L 330.138947 263.93884 
L 347.226029 263.897498 
L 364.31311 263.883154 
L 381.400191 263.866867 
L 398.487273 263.788138 
" clip-path="url(#p96d25b3272)" style="fill: none; stroke: #2ca02c; stroke-width: 1.5; stroke-linecap: square"/>
   </g>
   <g id="line2d_108">
    <path d="M 73.832727 293.748278 
L 90.919809 293.422816 
L 108.00689 292.953107 
L 125.093971 292.306025 
L 142.181053 291.426282 
L 159.268134 290.227872 
L 176.355215 288.588414 
L 193.442297 286.361348 
L 210.529378 283.42308 
L 227.616459 279.800087 
L 244.703541 275.823714 
L 261.790622 272.077672 
L 278.877703 269.069879 
L 295.964785 266.964341 
L 313.051866 265.630883 
L 330.138947 264.840849 
L 347.226029 264.393961 
L 364.31311 264.150119 
L 381.400191 264.013183 
L 398.487273 263.902934 
" clip-path="url(#p96d25b3272)" style="fill: none; stroke: #d62728; stroke-width: 1.5; stroke-linecap: square"/>
   </g>
   <g id="line2d_109">
    <path d="M 73.832727 301.53069 
L 90.919809 301.38514 
L 108.00689 301.208932 
L 125.093971 300.997291 
L 142.181053 300.738177 
L 159.268134 300.412824 
L 176.355215 299.993215 
L 193.442297 299.437426 
L 210.529378 298.682008 
L 227.616459 297.630749 
L 244.703541 296.142668 
L 261.790622 294.033975 
L 278.877703 291.133429 
L 295.964785 287.437873 
L 313.051866 283.29635 
L 330.138947 279.348915 
L 347.226029 276.145654 
L 364.31311 273.863495 
L 381.400191 272.371562 
L 398.487273 271.433724 
" clip-path="url(#p96d25b3272)" style="fill: none; stroke: #9467bd; stroke-width: 1.5; stroke-linecap: square"/>
   </g>
   <g id="line2d_110">
    <path d="M 73.832727 305.340208 
L 90.919809 305.336157 
L 108.00689 305.331298 
L 125.093971 305.325602 
L 142.181053 305.318858 
L 159.268134 305.310731 
L 176.355215 305.300738 
L 193.442297 305.288181 
L 210.529378 305.272043 
L 227.616459 305.250815 
L 244.703541 305.222223 
L 261.790622 305.182817 
L 278.877703 305.127325 
L 295.964785 305.047478 
L 313.051866 304.929579 
L 330.138947 304.748908 
L 347.226029 304.455879 
L 364.31311 303.937867 
L 381.400191 302.905989 
L 398.487273 300.745776 
" clip-path="url(#p96d25b3272)" style="fill: none; stroke: #8c564b; stroke-width: 1.5; stroke-linecap: square"/>
   </g>
   <g id="line2d_111">
    <path d="M 73.832727 305.466403 
L 90.919809 305.465751 
L 108.00689 305.464905 
L 125.093971 305.463891 
L 142.181053 305.462686 
L 159.268134 305.461244 
L 176.355215 305.459497 
L 193.442297 305.457347 
L 210.529378 305.454652 
L 227.616459 305.45121 
L 244.703541 305.44672 
L 261.790622 305.440731 
L 278.877703 305.43256 
L 295.964785 305.421102 
L 313.051866 305.404486 
L 330.138947 305.379326 
L 347.226029 305.338379 
L 364.31311 305.262714 
L 381.400191 305.094158 
L 398.487273 304.704146 
" clip-path="url(#p96d25b3272)" style="fill: none; stroke: #e377c2; stroke-width: 1.5; stroke-linecap: square"/>
   </g>
   <g id="line2d_112">
    <path d="M 73.832727 305.481279 
L 90.919809 305.481011 
L 108.00689 305.480616 
L 125.093971 305.480119 
L 142.181053 305.479517 
L 159.268134 305.478792 
L 176.355215 305.477914 
L 193.442297 305.476842 
L 210.529378 305.475514 
L 227.616459 305.473844 
L 244.703541 305.471705 
L 261.790622 305.468909 
L 278.877703 305.465181 
L 295.964785 305.460088 
L 313.051866 305.452851 
L 330.138947 305.4419 
L 347.226029 305.423898 
L 364.31311 305.390511 
L 381.400191 305.321388 
L 398.487273 305.198357 
" clip-path="url(#p96d25b3272)" style="fill: none; stroke: #7f7f7f; stroke-width: 1.5; stroke-linecap: square"/>
   </g>
   <g id="line2d_113">
    <path d="M 73.832727 305.493889 
L 90.919809 305.493668 
L 108.00689 305.493432 
L 125.093971 305.493179 
L 142.181053 305.492907 
L 159.268134 305.492614 
L 176.355215 305.492295 
L 193.442297 305.491947 
L 210.529378 305.491564 
L 227.616459 305.491138 
L 244.703541 305.490661 
L 261.790622 305.490121 
L 278.877703 305.489502 
L 295.964785 305.488782 
L 313.051866 305.487929 
L 330.138947 305.486897 
L 347.226029 305.485615 
L 364.31311 305.483976 
L 381.400191 305.48184 
L 398.487273 305.479186 
" clip-path="url(#p96d25b3272)" style="fill: none; stroke: #bcbd22; stroke-width: 1.5; stroke-linecap: square"/>
   </g>
   <g id="line2d_114">
    <path d="M 73.832727 305.498092 
L 90.919809 305.498084 
L 108.00689 305.498075 
L 125.093971 305.498064 
L 142.181053 305.498053 
L 159.268134 305.498041 
L 176.355215 305.498028 
L 193.442297 305.498014 
L 210.529378 305.497999 
L 227.616459 305.497981 
L 244.703541 305.497962 
L 261.790622 305.497941 
L 278.877703 305.497917 
L 295.964785 305.49789 
L 313.051866 305.497859 
L 330.138947 305.497823 
L 347.226029 305.49778 
L 364.31311 305.497728 
L 381.400191 305.497664 
L 398.487273 305.49759 
" clip-path="url(#p96d25b3272)" style="fill: none; stroke: #17becf; stroke-width: 1.5; stroke-linecap: square"/>
   </g>
   <g id="line2d_115">
    <path d="M 73.832727 305.498412 
L 90.919809 305.498413 
L 108.00689 305.498413 
L 125.093971 305.498413 
L 142.181053 305.498413 
L 159.268134 305.498413 
L 176.355215 305.498413 
L 193.442297 305.498412 
L 210.529378 305.498411 
L 227.616459 305.49841 
L 244.703541 305.498409 
L 261.790622 305.498407 
L 278.877703 305.498406 
L 295.964785 305.498404 
L 313.051866 305.498401 
L 330.138947 305.498399 
L 347.226029 305.498396 
L 364.31311 305.498393 
L 381.400191 305.49839 
L 398.487273 305.498387 
" clip-path="url(#p96d25b3272)" style="fill: none; stroke: #1f77b4; stroke-width: 1.5; stroke-linecap: square"/>
   </g>
   <g id="line2d_116">
    <path d="M 73.832727 305.498478 
L 90.919809 305.498479 
L 108.00689 305.498479 
L 125.093971 305.49848 
L 142.181053 305.49848 
L 159.268134 305.498481 
L 176.355215 305.498481 
L 193.442297 305.498482 
L 210.529378 305.498482 
L 227.616459 305.498482 
L 244.703541 305.498482 
L 261.790622 305.498483 
L 278.877703 305.498483 
L 295.964785 305.498483 
L 313.051866 305.498483 
L 330.138947 305.498482 
L 347.226029 305.498482 
L 364.31311 305.498482 
L 381.400191 305.498481 
L 398.487273 305.49848 
" clip-path="url(#p96d25b3272)" style="fill: none; stroke: #ff7f0e; stroke-width: 1.5; stroke-linecap: square"/>
   </g>
   <g id="line2d_117">
    <path d="M 73.832727 305.498481 
L 90.919809 305.498481 
L 108.00689 305.498481 
L 125.093971 305.498481 
L 142.181053 305.49848 
L 159.268134 305.49848 
L 176.355215 305.498479 
L 193.442297 305.498479 
L 210.529378 305.498478 
L 227.616459 305.498477 
L 244.703541 305.498476 
L 261.790622 305.498475 
L 278.877703 305.498474 
L 295.964785 305.498473 
L 313.051866 305.498471 
L 330.138947 305.49847 
L 347.226029 305.498468 
L 364.31311 305.498467 
L 381.400191 305.498465 
L 398.487273 305.498464 
" clip-path="url(#p96d25b3272)" style="fill: none; stroke: #2ca02c; stroke-width: 1.5; stroke-linecap: square"/>
   </g>
   <g id="patch_25">
    <path d="M 57.6 307.584 
L 57.6 261.702621 
" style="fill: none; stroke: #000000; stroke-width: 0.8; stroke-linejoin: miter; stroke-linecap: square"/>
   </g>
   <g id="patch_26">
    <path d="M 414.72 307.584 
L 414.72 261.702621 
" style="fill: none; stroke: #000000; stroke-width: 0.8; stroke-linejoin: miter; stroke-linecap: square"/>
   </g>
   <g id="patch_27">
    <path d="M 57.6 307.584 
L 414.72 307.584 
" style="fill: none; stroke: #000000; stroke-width: 0.8; stroke-linejoin: miter; stroke-linecap: square"/>
   </g>
   <g id="patch_28">
    <path d="M 57.6 261.702621 
L 414.72 261.702621 
" style="fill: none; stroke: #000000; stroke-width: 0.8; stroke-linejoin: miter; stroke-linecap: square"/>
   </g>
   <g id="text_28">
    <!-- yC - Container 1 -->
    <g transform="translate(187.395938 258.702621)scale(0.12 -0.12)">
     <use xlink:href="#DejaVuSans-79"/>
     <use xlink:href="#DejaVuSans-43" x="59.179688"/>
     <use xlink:href="#DejaVuSans-20" x="129.003906"/>
     <use xlink:href="#DejaVuSans-2d" x="160.791016"/>
     <use xlink:href="#DejaVuSans-20" x="196.875"/>
     <use xlink:href="#DejaVuSans-43" x="228.662109"/>
     <use xlink:href="#DejaVuSans-6f" x="298.486328"/>
     <use xlink:href="#DejaVuSans-6e" x="359.667969"/>
     <use xlink:href="#DejaVuSans-74" x="423.046875"/>
     <use xlink:href="#DejaVuSans-61" x="462.255859"/>
     <use xlink:href="#DejaVuSans-69" x="523.535156"/>
     <use xlink:href="#DejaVuSans-6e" x="551.318359"/>
     <use xlink:href="#DejaVuSans-65" x="614.697266"/>
     <use xlink:href="#DejaVuSans-72" x="676.220703"/>
     <use xlink:href="#DejaVuSans-20" x="717.333984"/>
     <use xlink:href="#DejaVuSans-31" x="749.121094"/>
    </g>
   </g>
  </g>
  <g id="legend_1">
   <g id="patch_29">
    <path d="M 372.146875 269.707812 
L 457.8 269.707812 
Q 459.8 269.707812 459.8 267.707812 
L 459.8 77.892187 
Q 459.8 75.892187 457.8 75.892187 
L 372.146875 75.892187 
Q 370.146875 75.892187 370.146875 77.892187 
L 370.146875 267.707812 
Q 370.146875 269.707812 372.146875 269.707812 
z
" style="fill: #ffffff; opacity: 0.8; stroke: #cccccc; stroke-linejoin: miter"/>
   </g>
   <g id="line2d_118">
    <path d="M 374.146875 83.990625 
L 384.146875 83.990625 
L 394.146875 83.990625 
" style="fill: none; stroke: #1f77b4; stroke-width: 1.5; stroke-linecap: square"/>
   </g>
   <g id="text_29">
    <!-- t=0.0000 -->
    <g transform="translate(402.146875 87.490625)scale(0.1 -0.1)">
     <defs>
      <path id="DejaVuSans-3d" d="M 678 2906 
L 4684 2906 
L 4684 2381 
L 678 2381 
L 678 2906 
z
M 678 1631 
L 4684 1631 
L 4684 1100 
L 678 1100 
L 678 1631 
z
" transform="scale(0.015625)"/>
     </defs>
     <use xlink:href="#DejaVuSans-74"/>
     <use xlink:href="#DejaVuSans-3d" x="39.208984"/>
     <use xlink:href="#DejaVuSans-30" x="122.998047"/>
     <use xlink:href="#DejaVuSans-2e" x="186.621094"/>
     <use xlink:href="#DejaVuSans-30" x="218.408203"/>
     <use xlink:href="#DejaVuSans-30" x="282.03125"/>
     <use xlink:href="#DejaVuSans-30" x="345.654297"/>
     <use xlink:href="#DejaVuSans-30" x="409.277344"/>
    </g>
   </g>
   <g id="line2d_119">
    <path d="M 374.146875 98.66875 
L 384.146875 98.66875 
L 394.146875 98.66875 
" style="fill: none; stroke: #ff7f0e; stroke-width: 1.5; stroke-linecap: square"/>
   </g>
   <g id="text_30">
    <!-- t=8.0000 -->
    <g transform="translate(402.146875 102.16875)scale(0.1 -0.1)">
     <defs>
      <path id="DejaVuSans-38" d="M 2034 2216 
Q 1584 2216 1326 1975 
Q 1069 1734 1069 1313 
Q 1069 891 1326 650 
Q 1584 409 2034 409 
Q 2484 409 2743 651 
Q 3003 894 3003 1313 
Q 3003 1734 2745 1975 
Q 2488 2216 2034 2216 
z
M 1403 2484 
Q 997 2584 770 2862 
Q 544 3141 544 3541 
Q 544 4100 942 4425 
Q 1341 4750 2034 4750 
Q 2731 4750 3128 4425 
Q 3525 4100 3525 3541 
Q 3525 3141 3298 2862 
Q 3072 2584 2669 2484 
Q 3125 2378 3379 2068 
Q 3634 1759 3634 1313 
Q 3634 634 3220 271 
Q 2806 -91 2034 -91 
Q 1263 -91 848 271 
Q 434 634 434 1313 
Q 434 1759 690 2068 
Q 947 2378 1403 2484 
z
M 1172 3481 
Q 1172 3119 1398 2916 
Q 1625 2713 2034 2713 
Q 2441 2713 2670 2916 
Q 2900 3119 2900 3481 
Q 2900 3844 2670 4047 
Q 2441 4250 2034 4250 
Q 1625 4250 1398 4047 
Q 1172 3844 1172 3481 
z
" transform="scale(0.015625)"/>
     </defs>
     <use xlink:href="#DejaVuSans-74"/>
     <use xlink:href="#DejaVuSans-3d" x="39.208984"/>
     <use xlink:href="#DejaVuSans-38" x="122.998047"/>
     <use xlink:href="#DejaVuSans-2e" x="186.621094"/>
     <use xlink:href="#DejaVuSans-30" x="218.408203"/>
     <use xlink:href="#DejaVuSans-30" x="282.03125"/>
     <use xlink:href="#DejaVuSans-30" x="345.654297"/>
     <use xlink:href="#DejaVuSans-30" x="409.277344"/>
    </g>
   </g>
   <g id="line2d_120">
    <path d="M 374.146875 113.346875 
L 384.146875 113.346875 
L 394.146875 113.346875 
" style="fill: none; stroke: #2ca02c; stroke-width: 1.5; stroke-linecap: square"/>
   </g>
   <g id="text_31">
    <!-- t=16.0000 -->
    <g transform="translate(402.146875 116.846875)scale(0.1 -0.1)">
     <defs>
      <path id="DejaVuSans-36" d="M 2113 2584 
Q 1688 2584 1439 2293 
Q 1191 2003 1191 1497 
Q 1191 994 1439 701 
Q 1688 409 2113 409 
Q 2538 409 2786 701 
Q 3034 994 3034 1497 
Q 3034 2003 2786 2293 
Q 2538 2584 2113 2584 
z
M 3366 4563 
L 3366 3988 
Q 3128 4100 2886 4159 
Q 2644 4219 2406 4219 
Q 1781 4219 1451 3797 
Q 1122 3375 1075 2522 
Q 1259 2794 1537 2939 
Q 1816 3084 2150 3084 
Q 2853 3084 3261 2657 
Q 3669 2231 3669 1497 
Q 3669 778 3244 343 
Q 2819 -91 2113 -91 
Q 1303 -91 875 529 
Q 447 1150 447 2328 
Q 447 3434 972 4092 
Q 1497 4750 2381 4750 
Q 2619 4750 2861 4703 
Q 3103 4656 3366 4563 
z
" transform="scale(0.015625)"/>
     </defs>
     <use xlink:href="#DejaVuSans-74"/>
     <use xlink:href="#DejaVuSans-3d" x="39.208984"/>
     <use xlink:href="#DejaVuSans-31" x="122.998047"/>
     <use xlink:href="#DejaVuSans-36" x="186.621094"/>
     <use xlink:href="#DejaVuSans-2e" x="250.244141"/>
     <use xlink:href="#DejaVuSans-30" x="282.03125"/>
     <use xlink:href="#DejaVuSans-30" x="345.654297"/>
     <use xlink:href="#DejaVuSans-30" x="409.277344"/>
     <use xlink:href="#DejaVuSans-30" x="472.900391"/>
    </g>
   </g>
   <g id="line2d_121">
    <path d="M 374.146875 128.025 
L 384.146875 128.025 
L 394.146875 128.025 
" style="fill: none; stroke: #d62728; stroke-width: 1.5; stroke-linecap: square"/>
   </g>
   <g id="text_32">
    <!-- t=24.0000 -->
    <g transform="translate(402.146875 131.525)scale(0.1 -0.1)">
     <defs>
      <path id="DejaVuSans-34" d="M 2419 4116 
L 825 1625 
L 2419 1625 
L 2419 4116 
z
M 2253 4666 
L 3047 4666 
L 3047 1625 
L 3713 1625 
L 3713 1100 
L 3047 1100 
L 3047 0 
L 2419 0 
L 2419 1100 
L 313 1100 
L 313 1709 
L 2253 4666 
z
" transform="scale(0.015625)"/>
     </defs>
     <use xlink:href="#DejaVuSans-74"/>
     <use xlink:href="#DejaVuSans-3d" x="39.208984"/>
     <use xlink:href="#DejaVuSans-32" x="122.998047"/>
     <use xlink:href="#DejaVuSans-34" x="186.621094"/>
     <use xlink:href="#DejaVuSans-2e" x="250.244141"/>
     <use xlink:href="#DejaVuSans-30" x="282.03125"/>
     <use xlink:href="#DejaVuSans-30" x="345.654297"/>
     <use xlink:href="#DejaVuSans-30" x="409.277344"/>
     <use xlink:href="#DejaVuSans-30" x="472.900391"/>
    </g>
   </g>
   <g id="line2d_122">
    <path d="M 374.146875 142.703125 
L 384.146875 142.703125 
L 394.146875 142.703125 
" style="fill: none; stroke: #9467bd; stroke-width: 1.5; stroke-linecap: square"/>
   </g>
   <g id="text_33">
    <!-- t=32.0000 -->
    <g transform="translate(402.146875 146.203125)scale(0.1 -0.1)">
     <defs>
      <path id="DejaVuSans-33" d="M 2597 2516 
Q 3050 2419 3304 2112 
Q 3559 1806 3559 1356 
Q 3559 666 3084 287 
Q 2609 -91 1734 -91 
Q 1441 -91 1130 -33 
Q 819 25 488 141 
L 488 750 
Q 750 597 1062 519 
Q 1375 441 1716 441 
Q 2309 441 2620 675 
Q 2931 909 2931 1356 
Q 2931 1769 2642 2001 
Q 2353 2234 1838 2234 
L 1294 2234 
L 1294 2753 
L 1863 2753 
Q 2328 2753 2575 2939 
Q 2822 3125 2822 3475 
Q 2822 3834 2567 4026 
Q 2313 4219 1838 4219 
Q 1578 4219 1281 4162 
Q 984 4106 628 3988 
L 628 4550 
Q 988 4650 1302 4700 
Q 1616 4750 1894 4750 
Q 2613 4750 3031 4423 
Q 3450 4097 3450 3541 
Q 3450 3153 3228 2886 
Q 3006 2619 2597 2516 
z
" transform="scale(0.015625)"/>
     </defs>
     <use xlink:href="#DejaVuSans-74"/>
     <use xlink:href="#DejaVuSans-3d" x="39.208984"/>
     <use xlink:href="#DejaVuSans-33" x="122.998047"/>
     <use xlink:href="#DejaVuSans-32" x="186.621094"/>
     <use xlink:href="#DejaVuSans-2e" x="250.244141"/>
     <use xlink:href="#DejaVuSans-30" x="282.03125"/>
     <use xlink:href="#DejaVuSans-30" x="345.654297"/>
     <use xlink:href="#DejaVuSans-30" x="409.277344"/>
     <use xlink:href="#DejaVuSans-30" x="472.900391"/>
    </g>
   </g>
   <g id="line2d_123">
    <path d="M 374.146875 157.38125 
L 384.146875 157.38125 
L 394.146875 157.38125 
" style="fill: none; stroke: #8c564b; stroke-width: 1.5; stroke-linecap: square"/>
   </g>
   <g id="text_34">
    <!-- t=40.0000 -->
    <g transform="translate(402.146875 160.88125)scale(0.1 -0.1)">
     <use xlink:href="#DejaVuSans-74"/>
     <use xlink:href="#DejaVuSans-3d" x="39.208984"/>
     <use xlink:href="#DejaVuSans-34" x="122.998047"/>
     <use xlink:href="#DejaVuSans-30" x="186.621094"/>
     <use xlink:href="#DejaVuSans-2e" x="250.244141"/>
     <use xlink:href="#DejaVuSans-30" x="282.03125"/>
     <use xlink:href="#DejaVuSans-30" x="345.654297"/>
     <use xlink:href="#DejaVuSans-30" x="409.277344"/>
     <use xlink:href="#DejaVuSans-30" x="472.900391"/>
    </g>
   </g>
   <g id="line2d_124">
    <path d="M 374.146875 172.059375 
L 384.146875 172.059375 
L 394.146875 172.059375 
" style="fill: none; stroke: #e377c2; stroke-width: 1.5; stroke-linecap: square"/>
   </g>
   <g id="text_35">
    <!-- t=48.0000 -->
    <g transform="translate(402.146875 175.559375)scale(0.1 -0.1)">
     <use xlink:href="#DejaVuSans-74"/>
     <use xlink:href="#DejaVuSans-3d" x="39.208984"/>
     <use xlink:href="#DejaVuSans-34" x="122.998047"/>
     <use xlink:href="#DejaVuSans-38" x="186.621094"/>
     <use xlink:href="#DejaVuSans-2e" x="250.244141"/>
     <use xlink:href="#DejaVuSans-30" x="282.03125"/>
     <use xlink:href="#DejaVuSans-30" x="345.654297"/>
     <use xlink:href="#DejaVuSans-30" x="409.277344"/>
     <use xlink:href="#DejaVuSans-30" x="472.900391"/>
    </g>
   </g>
   <g id="line2d_125">
    <path d="M 374.146875 186.7375 
L 384.146875 186.7375 
L 394.146875 186.7375 
" style="fill: none; stroke: #7f7f7f; stroke-width: 1.5; stroke-linecap: square"/>
   </g>
   <g id="text_36">
    <!-- t=56.0000 -->
    <g transform="translate(402.146875 190.2375)scale(0.1 -0.1)">
     <use xlink:href="#DejaVuSans-74"/>
     <use xlink:href="#DejaVuSans-3d" x="39.208984"/>
     <use xlink:href="#DejaVuSans-35" x="122.998047"/>
     <use xlink:href="#DejaVuSans-36" x="186.621094"/>
     <use xlink:href="#DejaVuSans-2e" x="250.244141"/>
     <use xlink:href="#DejaVuSans-30" x="282.03125"/>
     <use xlink:href="#DejaVuSans-30" x="345.654297"/>
     <use xlink:href="#DejaVuSans-30" x="409.277344"/>
     <use xlink:href="#DejaVuSans-30" x="472.900391"/>
    </g>
   </g>
   <g id="line2d_126">
    <path d="M 374.146875 201.415625 
L 384.146875 201.415625 
L 394.146875 201.415625 
" style="fill: none; stroke: #bcbd22; stroke-width: 1.5; stroke-linecap: square"/>
   </g>
   <g id="text_37">
    <!-- t=64.0000 -->
    <g transform="translate(402.146875 204.915625)scale(0.1 -0.1)">
     <use xlink:href="#DejaVuSans-74"/>
     <use xlink:href="#DejaVuSans-3d" x="39.208984"/>
     <use xlink:href="#DejaVuSans-36" x="122.998047"/>
     <use xlink:href="#DejaVuSans-34" x="186.621094"/>
     <use xlink:href="#DejaVuSans-2e" x="250.244141"/>
     <use xlink:href="#DejaVuSans-30" x="282.03125"/>
     <use xlink:href="#DejaVuSans-30" x="345.654297"/>
     <use xlink:href="#DejaVuSans-30" x="409.277344"/>
     <use xlink:href="#DejaVuSans-30" x="472.900391"/>
    </g>
   </g>
   <g id="line2d_127">
    <path d="M 374.146875 216.09375 
L 384.146875 216.09375 
L 394.146875 216.09375 
" style="fill: none; stroke: #17becf; stroke-width: 1.5; stroke-linecap: square"/>
   </g>
   <g id="text_38">
    <!-- t=72.0000 -->
    <g transform="translate(402.146875 219.59375)scale(0.1 -0.1)">
     <use xlink:href="#DejaVuSans-74"/>
     <use xlink:href="#DejaVuSans-3d" x="39.208984"/>
     <use xlink:href="#DejaVuSans-37" x="122.998047"/>
     <use xlink:href="#DejaVuSans-32" x="186.621094"/>
     <use xlink:href="#DejaVuSans-2e" x="250.244141"/>
     <use xlink:href="#DejaVuSans-30" x="282.03125"/>
     <use xlink:href="#DejaVuSans-30" x="345.654297"/>
     <use xlink:href="#DejaVuSans-30" x="409.277344"/>
     <use xlink:href="#DejaVuSans-30" x="472.900391"/>
    </g>
   </g>
   <g id="line2d_128">
    <path d="M 374.146875 230.771875 
L 384.146875 230.771875 
L 394.146875 230.771875 
" style="fill: none; stroke: #1f77b4; stroke-width: 1.5; stroke-linecap: square"/>
   </g>
   <g id="text_39">
    <!-- t=80.0000 -->
    <g transform="translate(402.146875 234.271875)scale(0.1 -0.1)">
     <use xlink:href="#DejaVuSans-74"/>
     <use xlink:href="#DejaVuSans-3d" x="39.208984"/>
     <use xlink:href="#DejaVuSans-38" x="122.998047"/>
     <use xlink:href="#DejaVuSans-30" x="186.621094"/>
     <use xlink:href="#DejaVuSans-2e" x="250.244141"/>
     <use xlink:href="#DejaVuSans-30" x="282.03125"/>
     <use xlink:href="#DejaVuSans-30" x="345.654297"/>
     <use xlink:href="#DejaVuSans-30" x="409.277344"/>
     <use xlink:href="#DejaVuSans-30" x="472.900391"/>
    </g>
   </g>
   <g id="line2d_129">
    <path d="M 374.146875 245.45 
L 384.146875 245.45 
L 394.146875 245.45 
" style="fill: none; stroke: #ff7f0e; stroke-width: 1.5; stroke-linecap: square"/>
   </g>
   <g id="text_40">
    <!-- t=88.0000 -->
    <g transform="translate(402.146875 248.95)scale(0.1 -0.1)">
     <use xlink:href="#DejaVuSans-74"/>
     <use xlink:href="#DejaVuSans-3d" x="39.208984"/>
     <use xlink:href="#DejaVuSans-38" x="122.998047"/>
     <use xlink:href="#DejaVuSans-38" x="186.621094"/>
     <use xlink:href="#DejaVuSans-2e" x="250.244141"/>
     <use xlink:href="#DejaVuSans-30" x="282.03125"/>
     <use xlink:href="#DejaVuSans-30" x="345.654297"/>
     <use xlink:href="#DejaVuSans-30" x="409.277344"/>
     <use xlink:href="#DejaVuSans-30" x="472.900391"/>
    </g>
   </g>
   <g id="line2d_130">
    <path d="M 374.146875 260.128125 
L 384.146875 260.128125 
L 394.146875 260.128125 
" style="fill: none; stroke: #2ca02c; stroke-width: 1.5; stroke-linecap: square"/>
   </g>
   <g id="text_41">
    <!-- t=96.0000 -->
    <g transform="translate(402.146875 263.628125)scale(0.1 -0.1)">
     <defs>
      <path id="DejaVuSans-39" d="M 703 97 
L 703 672 
Q 941 559 1184 500 
Q 1428 441 1663 441 
Q 2288 441 2617 861 
Q 2947 1281 2994 2138 
Q 2813 1869 2534 1725 
Q 2256 1581 1919 1581 
Q 1219 1581 811 2004 
Q 403 2428 403 3163 
Q 403 3881 828 4315 
Q 1253 4750 1959 4750 
Q 2769 4750 3195 4129 
Q 3622 3509 3622 2328 
Q 3622 1225 3098 567 
Q 2575 -91 1691 -91 
Q 1453 -91 1209 -44 
Q 966 3 703 97 
z
M 1959 2075 
Q 2384 2075 2632 2365 
Q 2881 2656 2881 3163 
Q 2881 3666 2632 3958 
Q 2384 4250 1959 4250 
Q 1534 4250 1286 3958 
Q 1038 3666 1038 3163 
Q 1038 2656 1286 2365 
Q 1534 2075 1959 2075 
z
" transform="scale(0.015625)"/>
     </defs>
     <use xlink:href="#DejaVuSans-74"/>
     <use xlink:href="#DejaVuSans-3d" x="39.208984"/>
     <use xlink:href="#DejaVuSans-39" x="122.998047"/>
     <use xlink:href="#DejaVuSans-36" x="186.621094"/>
     <use xlink:href="#DejaVuSans-2e" x="250.244141"/>
     <use xlink:href="#DejaVuSans-30" x="282.03125"/>
     <use xlink:href="#DejaVuSans-30" x="345.654297"/>
     <use xlink:href="#DejaVuSans-30" x="409.277344"/>
     <use xlink:href="#DejaVuSans-30" x="472.900391"/>
    </g>
   </g>
  </g>
 </g>
 <defs>
  <clipPath id="p79a0adb78b">
   <rect x="57.6" y="41.472" width="357.12" height="45.881379"/>
  </clipPath>
  <clipPath id="p4114db0639">
   <rect x="57.6" y="96.529655" width="357.12" height="45.881379"/>
  </clipPath>
  <clipPath id="p2172b4b44d">
   <rect x="57.6" y="151.58731" width="357.12" height="45.881379"/>
  </clipPath>
  <clipPath id="pbcdf60b291">
   <rect x="57.6" y="206.644966" width="357.12" height="45.881379"/>
  </clipPath>
  <clipPath id="p96d25b3272">
   <rect x="57.6" y="261.702621" width="357.12" height="45.881379"/>
  </clipPath>
 </defs>
</svg>
