<?xml version="1.0" encoding="utf-8" standalone="no"?>
<!DOCTYPE svg PUBLIC "-//W3C//DTD SVG 1.1//EN"
  "http://www.w3.org/Graphics/SVG/1.1/DTD/svg11.dtd">
<svg xmlns:xlink="http://www.w3.org/1999/xlink" width="460.8pt" height="345.6pt" viewBox="0 0 460.8 345.6" xmlns="http://www.w3.org/2000/svg" version="1.1">
 <metadata>
  <rdf:RDF xmlns:dc="http://purl.org/dc/elements/1.1/" xmlns:cc="http://creativecommons.org/ns#" xmlns:rdf="http://www.w3.org/1999/02/22-rdf-syntax-ns#">
   <cc:Work>
    <dc:type rdf:resource="http://purl.org/dc/dcmitype/StillImage"/>
    <dc:date>2022-06-26T03:53:17.298216</dc:date>
    <dc:format>image/svg+xml</dc:format>
    <dc:creator>
     <cc:Agent>
      <dc:title>Matplotlib v3.5.2, https://matplotlib.org/</dc:title>
     </cc:Agent>
    </dc:creator>
   </cc:Work>
  </rdf:RDF>
 </metadata>
 <defs>
  <style type="text/css">*{stroke-linejoin: round; stroke-linecap: butt}</style>
 </defs>
 <g id="figure_1">
  <g id="patch_1">
   <path d="M 0 345.6 
L 460.8 345.6 
L 460.8 0 
L 0 0 
z
" style="fill: #ffffff"/>
  </g>
  <g id="axes_1">
   <g id="patch_2">
    <path d="M 57.6 87.353379 
L 414.72 87.353379 
L 414.72 41.472 
L 57.6 41.472 
z
" style="fill: #ffffff"/>
   </g>
   <g id="matplotlib.axis_1">
    <g id="xtick_1">
     <g id="line2d_1">
      <defs>
       <path id="m571b22c5d6" d="M 0 0 
L 0 3.5 
" style="stroke: #000000; stroke-width: 0.8"/>
      </defs>
      <g>
       <use xlink:href="#m571b22c5d6" x="73.832727" y="87.353379" style="stroke: #000000; stroke-width: 0.8"/>
      </g>
     </g>
    </g>
    <g id="xtick_2">
     <g id="line2d_2">
      <g>
       <use xlink:href="#m571b22c5d6" x="139.419504" y="87.353379" style="stroke: #000000; stroke-width: 0.8"/>
      </g>
     </g>
    </g>
    <g id="xtick_3">
     <g id="line2d_3">
      <g>
       <use xlink:href="#m571b22c5d6" x="205.006281" y="87.353379" style="stroke: #000000; stroke-width: 0.8"/>
      </g>
     </g>
    </g>
    <g id="xtick_4">
     <g id="line2d_4">
      <g>
       <use xlink:href="#m571b22c5d6" x="270.593058" y="87.353379" style="stroke: #000000; stroke-width: 0.8"/>
      </g>
     </g>
    </g>
    <g id="xtick_5">
     <g id="line2d_5">
      <g>
       <use xlink:href="#m571b22c5d6" x="336.179835" y="87.353379" style="stroke: #000000; stroke-width: 0.8"/>
      </g>
     </g>
    </g>
    <g id="xtick_6">
     <g id="line2d_6">
      <g>
       <use xlink:href="#m571b22c5d6" x="401.766612" y="87.353379" style="stroke: #000000; stroke-width: 0.8"/>
      </g>
     </g>
    </g>
   </g>
   <g id="matplotlib.axis_2">
    <g id="ytick_1">
     <g id="line2d_7">
      <defs>
       <path id="mccffa79937" d="M 0 0 
L -3.5 0 
" style="stroke: #000000; stroke-width: 0.8"/>
      </defs>
      <g>
       <use xlink:href="#mccffa79937" x="57.6" y="78.281154" style="stroke: #000000; stroke-width: 0.8"/>
      </g>
     </g>
     <g id="text_1">
      <!-- −2.5 -->
      <g transform="translate(26.317187 82.080372)scale(0.1 -0.1)">
       <defs>
        <path id="DejaVuSans-2212" d="M 678 2272 
L 4684 2272 
L 4684 1741 
L 678 1741 
L 678 2272 
z
" transform="scale(0.015625)"/>
        <path id="DejaVuSans-32" d="M 1228 531 
L 3431 531 
L 3431 0 
L 469 0 
L 469 531 
Q 828 903 1448 1529 
Q 2069 2156 2228 2338 
Q 2531 2678 2651 2914 
Q 2772 3150 2772 3378 
Q 2772 3750 2511 3984 
Q 2250 4219 1831 4219 
Q 1534 4219 1204 4116 
Q 875 4013 500 3803 
L 500 4441 
Q 881 4594 1212 4672 
Q 1544 4750 1819 4750 
Q 2544 4750 2975 4387 
Q 3406 4025 3406 3419 
Q 3406 3131 3298 2873 
Q 3191 2616 2906 2266 
Q 2828 2175 2409 1742 
Q 1991 1309 1228 531 
z
" transform="scale(0.015625)"/>
        <path id="DejaVuSans-2e" d="M 684 794 
L 1344 794 
L 1344 0 
L 684 0 
L 684 794 
z
" transform="scale(0.015625)"/>
        <path id="DejaVuSans-35" d="M 691 4666 
L 3169 4666 
L 3169 4134 
L 1269 4134 
L 1269 2991 
Q 1406 3038 1543 3061 
Q 1681 3084 1819 3084 
Q 2600 3084 3056 2656 
Q 3513 2228 3513 1497 
Q 3513 744 3044 326 
Q 2575 -91 1722 -91 
Q 1428 -91 1123 -41 
Q 819 9 494 109 
L 494 744 
Q 775 591 1075 516 
Q 1375 441 1709 441 
Q 2250 441 2565 725 
Q 2881 1009 2881 1497 
Q 2881 1984 2565 2268 
Q 2250 2553 1709 2553 
Q 1456 2553 1204 2497 
Q 953 2441 691 2322 
L 691 4666 
z
" transform="scale(0.015625)"/>
       </defs>
       <use xlink:href="#DejaVuSans-2212"/>
       <use xlink:href="#DejaVuSans-32" x="83.789062"/>
       <use xlink:href="#DejaVuSans-2e" x="147.412109"/>
       <use xlink:href="#DejaVuSans-35" x="179.199219"/>
      </g>
     </g>
    </g>
    <g id="ytick_2">
     <g id="line2d_8">
      <g>
       <use xlink:href="#mccffa79937" x="57.6" y="59.991115" style="stroke: #000000; stroke-width: 0.8"/>
      </g>
     </g>
     <g id="text_2">
      <!-- 0.0 -->
      <g transform="translate(34.696875 63.790334)scale(0.1 -0.1)">
       <defs>
        <path id="DejaVuSans-30" d="M 2034 4250 
Q 1547 4250 1301 3770 
Q 1056 3291 1056 2328 
Q 1056 1369 1301 889 
Q 1547 409 2034 409 
Q 2525 409 2770 889 
Q 3016 1369 3016 2328 
Q 3016 3291 2770 3770 
Q 2525 4250 2034 4250 
z
M 2034 4750 
Q 2819 4750 3233 4129 
Q 3647 3509 3647 2328 
Q 3647 1150 3233 529 
Q 2819 -91 2034 -91 
Q 1250 -91 836 529 
Q 422 1150 422 2328 
Q 422 3509 836 4129 
Q 1250 4750 2034 4750 
z
" transform="scale(0.015625)"/>
       </defs>
       <use xlink:href="#DejaVuSans-30"/>
       <use xlink:href="#DejaVuSans-2e" x="63.623047"/>
       <use xlink:href="#DejaVuSans-30" x="95.410156"/>
      </g>
     </g>
    </g>
    <g id="ytick_3">
     <g id="line2d_9">
      <g>
       <use xlink:href="#mccffa79937" x="57.6" y="41.701076" style="stroke: #000000; stroke-width: 0.8"/>
      </g>
     </g>
     <g id="text_3">
      <!-- 2.5 -->
      <g transform="translate(34.696875 45.500295)scale(0.1 -0.1)">
       <use xlink:href="#DejaVuSans-32"/>
       <use xlink:href="#DejaVuSans-2e" x="63.623047"/>
       <use xlink:href="#DejaVuSans-35" x="95.410156"/>
      </g>
     </g>
    </g>
    <g id="text_4">
     <!-- flow rate (normalized) -->
     <g transform="translate(20.2375 119.729877)rotate(-90)scale(0.1 -0.1)">
      <defs>
       <path id="DejaVuSans-66" d="M 2375 4863 
L 2375 4384 
L 1825 4384 
Q 1516 4384 1395 4259 
Q 1275 4134 1275 3809 
L 1275 3500 
L 2222 3500 
L 2222 3053 
L 1275 3053 
L 1275 0 
L 697 0 
L 697 3053 
L 147 3053 
L 147 3500 
L 697 3500 
L 697 3744 
Q 697 4328 969 4595 
Q 1241 4863 1831 4863 
L 2375 4863 
z
" transform="scale(0.015625)"/>
       <path id="DejaVuSans-6c" d="M 603 4863 
L 1178 4863 
L 1178 0 
L 603 0 
L 603 4863 
z
" transform="scale(0.015625)"/>
       <path id="DejaVuSans-6f" d="M 1959 3097 
Q 1497 3097 1228 2736 
Q 959 2375 959 1747 
Q 959 1119 1226 758 
Q 1494 397 1959 397 
Q 2419 397 2687 759 
Q 2956 1122 2956 1747 
Q 2956 2369 2687 2733 
Q 2419 3097 1959 3097 
z
M 1959 3584 
Q 2709 3584 3137 3096 
Q 3566 2609 3566 1747 
Q 3566 888 3137 398 
Q 2709 -91 1959 -91 
Q 1206 -91 779 398 
Q 353 888 353 1747 
Q 353 2609 779 3096 
Q 1206 3584 1959 3584 
z
" transform="scale(0.015625)"/>
       <path id="DejaVuSans-77" d="M 269 3500 
L 844 3500 
L 1563 769 
L 2278 3500 
L 2956 3500 
L 3675 769 
L 4391 3500 
L 4966 3500 
L 4050 0 
L 3372 0 
L 2619 2869 
L 1863 0 
L 1184 0 
L 269 3500 
z
" transform="scale(0.015625)"/>
       <path id="DejaVuSans-20" transform="scale(0.015625)"/>
       <path id="DejaVuSans-72" d="M 2631 2963 
Q 2534 3019 2420 3045 
Q 2306 3072 2169 3072 
Q 1681 3072 1420 2755 
Q 1159 2438 1159 1844 
L 1159 0 
L 581 0 
L 581 3500 
L 1159 3500 
L 1159 2956 
Q 1341 3275 1631 3429 
Q 1922 3584 2338 3584 
Q 2397 3584 2469 3576 
Q 2541 3569 2628 3553 
L 2631 2963 
z
" transform="scale(0.015625)"/>
       <path id="DejaVuSans-61" d="M 2194 1759 
Q 1497 1759 1228 1600 
Q 959 1441 959 1056 
Q 959 750 1161 570 
Q 1363 391 1709 391 
Q 2188 391 2477 730 
Q 2766 1069 2766 1631 
L 2766 1759 
L 2194 1759 
z
M 3341 1997 
L 3341 0 
L 2766 0 
L 2766 531 
Q 2569 213 2275 61 
Q 1981 -91 1556 -91 
Q 1019 -91 701 211 
Q 384 513 384 1019 
Q 384 1609 779 1909 
Q 1175 2209 1959 2209 
L 2766 2209 
L 2766 2266 
Q 2766 2663 2505 2880 
Q 2244 3097 1772 3097 
Q 1472 3097 1187 3025 
Q 903 2953 641 2809 
L 641 3341 
Q 956 3463 1253 3523 
Q 1550 3584 1831 3584 
Q 2591 3584 2966 3190 
Q 3341 2797 3341 1997 
z
" transform="scale(0.015625)"/>
       <path id="DejaVuSans-74" d="M 1172 4494 
L 1172 3500 
L 2356 3500 
L 2356 3053 
L 1172 3053 
L 1172 1153 
Q 1172 725 1289 603 
Q 1406 481 1766 481 
L 2356 481 
L 2356 0 
L 1766 0 
Q 1100 0 847 248 
Q 594 497 594 1153 
L 594 3053 
L 172 3053 
L 172 3500 
L 594 3500 
L 594 4494 
L 1172 4494 
z
" transform="scale(0.015625)"/>
       <path id="DejaVuSans-65" d="M 3597 1894 
L 3597 1613 
L 953 1613 
Q 991 1019 1311 708 
Q 1631 397 2203 397 
Q 2534 397 2845 478 
Q 3156 559 3463 722 
L 3463 178 
Q 3153 47 2828 -22 
Q 2503 -91 2169 -91 
Q 1331 -91 842 396 
Q 353 884 353 1716 
Q 353 2575 817 3079 
Q 1281 3584 2069 3584 
Q 2775 3584 3186 3129 
Q 3597 2675 3597 1894 
z
M 3022 2063 
Q 3016 2534 2758 2815 
Q 2500 3097 2075 3097 
Q 1594 3097 1305 2825 
Q 1016 2553 972 2059 
L 3022 2063 
z
" transform="scale(0.015625)"/>
       <path id="DejaVuSans-28" d="M 1984 4856 
Q 1566 4138 1362 3434 
Q 1159 2731 1159 2009 
Q 1159 1288 1364 580 
Q 1569 -128 1984 -844 
L 1484 -844 
Q 1016 -109 783 600 
Q 550 1309 550 2009 
Q 550 2706 781 3412 
Q 1013 4119 1484 4856 
L 1984 4856 
z
" transform="scale(0.015625)"/>
       <path id="DejaVuSans-6e" d="M 3513 2113 
L 3513 0 
L 2938 0 
L 2938 2094 
Q 2938 2591 2744 2837 
Q 2550 3084 2163 3084 
Q 1697 3084 1428 2787 
Q 1159 2491 1159 1978 
L 1159 0 
L 581 0 
L 581 3500 
L 1159 3500 
L 1159 2956 
Q 1366 3272 1645 3428 
Q 1925 3584 2291 3584 
Q 2894 3584 3203 3211 
Q 3513 2838 3513 2113 
z
" transform="scale(0.015625)"/>
       <path id="DejaVuSans-6d" d="M 3328 2828 
Q 3544 3216 3844 3400 
Q 4144 3584 4550 3584 
Q 5097 3584 5394 3201 
Q 5691 2819 5691 2113 
L 5691 0 
L 5113 0 
L 5113 2094 
Q 5113 2597 4934 2840 
Q 4756 3084 4391 3084 
Q 3944 3084 3684 2787 
Q 3425 2491 3425 1978 
L 3425 0 
L 2847 0 
L 2847 2094 
Q 2847 2600 2669 2842 
Q 2491 3084 2119 3084 
Q 1678 3084 1418 2786 
Q 1159 2488 1159 1978 
L 1159 0 
L 581 0 
L 581 3500 
L 1159 3500 
L 1159 2956 
Q 1356 3278 1631 3431 
Q 1906 3584 2284 3584 
Q 2666 3584 2933 3390 
Q 3200 3197 3328 2828 
z
" transform="scale(0.015625)"/>
       <path id="DejaVuSans-69" d="M 603 3500 
L 1178 3500 
L 1178 0 
L 603 0 
L 603 3500 
z
M 603 4863 
L 1178 4863 
L 1178 4134 
L 603 4134 
L 603 4863 
z
" transform="scale(0.015625)"/>
       <path id="DejaVuSans-7a" d="M 353 3500 
L 3084 3500 
L 3084 2975 
L 922 459 
L 3084 459 
L 3084 0 
L 275 0 
L 275 525 
L 2438 3041 
L 353 3041 
L 353 3500 
z
" transform="scale(0.015625)"/>
       <path id="DejaVuSans-64" d="M 2906 2969 
L 2906 4863 
L 3481 4863 
L 3481 0 
L 2906 0 
L 2906 525 
Q 2725 213 2448 61 
Q 2172 -91 1784 -91 
Q 1150 -91 751 415 
Q 353 922 353 1747 
Q 353 2572 751 3078 
Q 1150 3584 1784 3584 
Q 2172 3584 2448 3432 
Q 2725 3281 2906 2969 
z
M 947 1747 
Q 947 1113 1208 752 
Q 1469 391 1925 391 
Q 2381 391 2643 752 
Q 2906 1113 2906 1747 
Q 2906 2381 2643 2742 
Q 2381 3103 1925 3103 
Q 1469 3103 1208 2742 
Q 947 2381 947 1747 
z
" transform="scale(0.015625)"/>
       <path id="DejaVuSans-29" d="M 513 4856 
L 1013 4856 
Q 1481 4119 1714 3412 
Q 1947 2706 1947 2009 
Q 1947 1309 1714 600 
Q 1481 -109 1013 -844 
L 513 -844 
Q 928 -128 1133 580 
Q 1338 1288 1338 2009 
Q 1338 2731 1133 3434 
Q 928 4138 513 4856 
z
" transform="scale(0.015625)"/>
      </defs>
      <use xlink:href="#DejaVuSans-66"/>
      <use xlink:href="#DejaVuSans-6c" x="35.205078"/>
      <use xlink:href="#DejaVuSans-6f" x="62.988281"/>
      <use xlink:href="#DejaVuSans-77" x="124.169922"/>
      <use xlink:href="#DejaVuSans-20" x="205.957031"/>
      <use xlink:href="#DejaVuSans-72" x="237.744141"/>
      <use xlink:href="#DejaVuSans-61" x="278.857422"/>
      <use xlink:href="#DejaVuSans-74" x="340.136719"/>
      <use xlink:href="#DejaVuSans-65" x="379.345703"/>
      <use xlink:href="#DejaVuSans-20" x="440.869141"/>
      <use xlink:href="#DejaVuSans-28" x="472.65625"/>
      <use xlink:href="#DejaVuSans-6e" x="511.669922"/>
      <use xlink:href="#DejaVuSans-6f" x="575.048828"/>
      <use xlink:href="#DejaVuSans-72" x="636.230469"/>
      <use xlink:href="#DejaVuSans-6d" x="675.59375"/>
      <use xlink:href="#DejaVuSans-61" x="773.005859"/>
      <use xlink:href="#DejaVuSans-6c" x="834.285156"/>
      <use xlink:href="#DejaVuSans-69" x="862.068359"/>
      <use xlink:href="#DejaVuSans-7a" x="889.851562"/>
      <use xlink:href="#DejaVuSans-65" x="942.341797"/>
      <use xlink:href="#DejaVuSans-64" x="1003.865234"/>
      <use xlink:href="#DejaVuSans-29" x="1067.341797"/>
     </g>
    </g>
   </g>
   <g id="line2d_10">
    <path d="M 73.832727 60.221599 
L 77.112066 52.610895 
L 80.391405 56.983766 
L 83.670744 58.355115 
L 86.950083 58.98076 
L 90.229421 59.34589 
L 93.50876 59.57745 
L 96.788099 59.72502 
L 100.067438 59.820313 
L 103.346777 59.882284 
L 106.626116 59.921698 
L 109.905455 59.947062 
L 113.184793 59.96339 
L 116.464132 59.973766 
L 119.743471 59.98003 
L 123.02281 59.984145 
L 126.302149 57.376802 
L 129.581488 57.429354 
L 132.860826 57.434162 
L 136.140165 57.404506 
L 139.419504 57.345637 
L 142.698843 57.257556 
L 145.978182 57.138892 
L 149.257521 56.987788 
L 152.53686 56.803551 
L 155.816198 56.587978 
L 159.095537 56.345429 
L 162.374876 56.082183 
L 165.654215 55.806045 
L 168.933554 55.526365 
L 172.212893 55.250532 
L 175.492231 57.204767 
L 178.77157 55.649534 
L 182.050909 54.18166 
L 185.330248 53.281463 
L 188.609587 53.045591 
L 191.888926 53.280308 
L 195.168264 53.77869 
L 198.447603 54.394034 
L 201.726942 55.036775 
L 205.006281 55.656629 
L 208.28562 56.228668 
L 211.564959 56.74231 
L 214.844298 57.195801 
L 218.123636 57.591706 
L 221.402975 57.934957 
L 224.682314 58.230863 
L 227.961653 58.48515 
L 231.240992 58.703229 
L 234.520331 58.889972 
L 237.799669 59.049708 
L 241.079008 59.186246 
L 244.358347 59.302946 
L 247.637686 59.402667 
L 250.917025 59.487863 
L 254.196364 59.560241 
L 257.475702 59.622576 
L 260.755041 59.675966 
L 264.03438 59.721687 
L 267.313719 59.760753 
L 270.593058 59.795419 
L 273.872397 65.323386 
L 277.151736 68.275128 
L 280.431074 69.755783 
L 283.710413 70.28581 
L 286.989752 70.2413 
L 290.269091 69.867204 
L 293.54843 69.315225 
L 296.827769 68.678825 
L 300.107107 68.014416 
L 303.386446 67.354488 
L 306.665785 66.719274 
L 309.945124 66.118795 
L 313.224463 65.557998 
L 316.503802 65.038276 
L 319.78314 64.560885 
L 323.062479 64.123012 
L 326.341818 63.723189 
L 329.621157 63.358855 
L 332.900496 63.027613 
L 336.179835 62.727011 
L 339.459174 62.454538 
L 342.738512 62.207709 
L 346.017851 61.984413 
L 349.29719 61.782013 
L 352.576529 61.59955 
L 355.855868 61.435073 
L 359.135207 61.28691 
L 362.414545 61.153599 
L 365.693884 61.033709 
L 368.973223 60.925926 
L 372.252562 60.829044 
L 375.531901 60.742278 
L 378.81124 60.664404 
L 382.090579 60.594362 
L 385.369917 60.531755 
L 388.649256 60.476038 
L 391.928595 60.426036 
L 395.207934 60.380888 
L 398.487273 60.340341 
" clip-path="url(#p2b2a0a68f0)" style="fill: none; stroke: #1f77b4; stroke-width: 1.5; stroke-linecap: square"/>
   </g>
   <g id="line2d_11">
    <path d="M 73.832727 60.397507 
L 77.112066 43.557517 
L 80.391405 49.012482 
L 83.670744 52.846739 
L 86.950083 55.386435 
L 90.229421 57.077093 
L 93.50876 58.182209 
L 96.788099 58.878058 
L 100.067438 59.303582 
L 103.346777 59.56475 
L 106.626116 59.722561 
L 109.905455 59.820237 
L 113.184793 59.881324 
L 116.464132 59.919621 
L 119.743471 59.942612 
L 123.02281 59.015862 
L 126.302149 53.737295 
L 129.581488 53.593616 
L 132.860826 53.461814 
L 136.140165 53.344712 
L 139.419504 53.242705 
L 142.698843 53.154822 
L 145.978182 53.079742 
L 149.257521 53.015941 
L 152.53686 52.961858 
L 155.816198 52.916111 
L 159.095537 52.877489 
L 162.374876 52.844925 
L 165.654215 52.817497 
L 168.933554 52.794395 
L 172.212893 53.149904 
L 175.492231 59.114463 
L 178.77157 58.66569 
L 182.050909 58.352764 
L 185.330248 58.222154 
L 188.609587 58.238011 
L 191.888926 58.342665 
L 195.168264 58.491131 
L 198.447603 58.654725 
L 201.726942 58.816971 
L 205.006281 58.969149 
L 208.28562 59.107307 
L 211.564959 59.230123 
L 214.844298 59.337854 
L 218.123636 59.431499 
L 221.402975 59.512426 
L 224.682314 59.582033 
L 227.961653 59.641737 
L 231.240992 59.692851 
L 234.520331 59.73655 
L 237.799669 59.773872 
L 241.079008 59.805725 
L 244.358347 59.832905 
L 247.637686 59.856089 
L 250.917025 59.875862 
L 254.196364 59.892631 
L 257.475702 59.907047 
L 260.755041 59.919371 
L 264.03438 59.929905 
L 267.313719 59.938888 
L 270.593058 59.966938 
L 273.872397 72.519652 
L 277.151736 79.963304 
L 280.431074 83.903788 
L 283.710413 85.267862 
L 286.989752 84.965997 
L 290.269091 83.702802 
L 293.54843 81.954036 
L 296.827769 80.017979 
L 300.107107 78.072076 
L 303.386446 76.209305 
L 306.665785 74.478709 
L 309.945124 72.89926 
L 313.224463 71.474225 
L 316.503802 70.196468 
L 319.78314 69.059206 
L 323.062479 68.045616 
L 326.341818 67.145514 
L 329.621157 66.34698 
L 332.900496 65.638671 
L 336.179835 65.010483 
L 339.459174 64.45297 
L 342.738512 63.957129 
L 346.017851 63.516465 
L 349.29719 63.124281 
L 352.576529 62.776043 
L 355.855868 62.467846 
L 359.135207 62.194304 
L 362.414545 61.951516 
L 365.693884 61.736071 
L 368.973223 61.545105 
L 372.252562 61.375543 
L 375.531901 61.225029 
L 378.81124 61.091461 
L 382.090579 60.97264 
L 385.369917 60.867475 
L 388.649256 60.774627 
L 391.928595 60.691704 
L 395.207934 60.616843 
L 398.487273 60.549879 
" clip-path="url(#p2b2a0a68f0)" style="fill: none; stroke: #ff7f0e; stroke-width: 1.5; stroke-linecap: square"/>
   </g>
   <g id="line2d_12">
    <path d="M 73.832727 59.982595 
L 77.112066 58.84495 
L 80.391405 59.678015 
L 83.670744 59.813522 
L 86.950083 59.880184 
L 90.229421 59.92009 
L 93.50876 59.945497 
L 96.788099 59.961705 
L 100.067438 59.97217 
L 103.346777 59.978975 
L 106.626116 59.983302 
L 109.905455 59.986086 
L 113.184793 59.987879 
L 116.464132 59.989019 
L 119.743471 59.989707 
L 123.02281 60.443261 
L 126.302149 57.462096 
L 129.581488 57.538254 
L 132.860826 57.578738 
L 136.140165 57.599962 
L 139.419504 57.610889 
L 142.698843 57.61582 
L 145.978182 57.617389 
L 149.257521 57.616891 
L 152.53686 57.614756 
L 155.816198 57.611301 
L 159.095537 57.606251 
L 162.374876 57.599395 
L 165.654215 57.590044 
L 168.933554 57.577624 
L 172.212893 57.555781 
L 175.492231 57.179309 
L 178.77157 56.857476 
L 182.050909 56.923034 
L 185.330248 57.052428 
L 188.609587 57.118594 
L 191.888926 57.174684 
L 195.168264 57.280971 
L 198.447603 57.445191 
L 201.726942 57.649322 
L 205.006281 57.870532 
L 208.28562 58.092252 
L 211.564959 58.302381 
L 214.844298 58.496707 
L 218.123636 58.672635 
L 221.402975 58.830361 
L 224.682314 58.970599 
L 227.961653 59.094709 
L 231.240992 59.20429 
L 234.520331 59.300942 
L 237.799669 59.38605 
L 241.079008 59.460909 
L 244.358347 59.526751 
L 247.637686 59.584651 
L 250.917025 59.635525 
L 254.196364 59.679942 
L 257.475702 59.719182 
L 260.755041 59.753662 
L 264.03438 59.783934 
L 267.313719 59.810449 
L 270.593058 59.836256 
L 273.872397 60.529485 
L 277.151736 60.836423 
L 280.431074 60.991715 
L 283.710413 61.050523 
L 286.989752 61.051502 
L 290.269091 61.019079 
L 293.54843 60.968148 
L 296.827769 60.907864 
L 300.107107 60.843786 
L 303.386446 60.77919 
L 306.665785 60.716196 
L 309.945124 60.655917 
L 313.224463 60.598966 
L 316.503802 60.545605 
L 319.78314 60.496078 
L 323.062479 60.450217 
L 326.341818 60.407958 
L 329.621157 60.369115 
L 332.900496 60.333513 
L 336.179835 60.300959 
L 339.459174 60.271244 
L 342.738512 60.244159 
L 346.017851 60.219513 
L 349.29719 60.197045 
L 352.576529 60.176682 
L 355.855868 60.158217 
L 359.135207 60.1415 
L 362.414545 60.12639 
L 365.693884 60.11274 
L 368.973223 60.100416 
L 372.252562 60.089296 
L 375.531901 60.0793 
L 378.81124 60.070297 
L 382.090579 60.062174 
L 385.369917 60.054889 
L 388.649256 60.048385 
L 391.928595 60.042538 
L 395.207934 60.037256 
L 398.487273 60.032505 
" clip-path="url(#p2b2a0a68f0)" style="fill: none; stroke: #2ca02c; stroke-width: 1.5; stroke-linecap: square"/>
   </g>
   <g id="patch_3">
    <path d="M 57.6 87.353379 
L 57.6 41.472 
" style="fill: none; stroke: #000000; stroke-width: 0.8; stroke-linejoin: miter; stroke-linecap: square"/>
   </g>
   <g id="patch_4">
    <path d="M 414.72 87.353379 
L 414.72 41.472 
" style="fill: none; stroke: #000000; stroke-width: 0.8; stroke-linejoin: miter; stroke-linecap: square"/>
   </g>
   <g id="patch_5">
    <path d="M 57.6 87.353379 
L 414.72 87.353379 
" style="fill: none; stroke: #000000; stroke-width: 0.8; stroke-linejoin: miter; stroke-linecap: square"/>
   </g>
   <g id="patch_6">
    <path d="M 57.6 41.472 
L 414.72 41.472 
" style="fill: none; stroke: #000000; stroke-width: 0.8; stroke-linejoin: miter; stroke-linecap: square"/>
   </g>
   <g id="text_5">
    <!-- velocity vs time (container 1)   -->
    <g transform="translate(144.106875 35.472)scale(0.12 -0.12)">
     <defs>
      <path id="DejaVuSans-76" d="M 191 3500 
L 800 3500 
L 1894 563 
L 2988 3500 
L 3597 3500 
L 2284 0 
L 1503 0 
L 191 3500 
z
" transform="scale(0.015625)"/>
      <path id="DejaVuSans-63" d="M 3122 3366 
L 3122 2828 
Q 2878 2963 2633 3030 
Q 2388 3097 2138 3097 
Q 1578 3097 1268 2742 
Q 959 2388 959 1747 
Q 959 1106 1268 751 
Q 1578 397 2138 397 
Q 2388 397 2633 464 
Q 2878 531 3122 666 
L 3122 134 
Q 2881 22 2623 -34 
Q 2366 -91 2075 -91 
Q 1284 -91 818 406 
Q 353 903 353 1747 
Q 353 2603 823 3093 
Q 1294 3584 2113 3584 
Q 2378 3584 2631 3529 
Q 2884 3475 3122 3366 
z
" transform="scale(0.015625)"/>
      <path id="DejaVuSans-79" d="M 2059 -325 
Q 1816 -950 1584 -1140 
Q 1353 -1331 966 -1331 
L 506 -1331 
L 506 -850 
L 844 -850 
Q 1081 -850 1212 -737 
Q 1344 -625 1503 -206 
L 1606 56 
L 191 3500 
L 800 3500 
L 1894 763 
L 2988 3500 
L 3597 3500 
L 2059 -325 
z
" transform="scale(0.015625)"/>
      <path id="DejaVuSans-73" d="M 2834 3397 
L 2834 2853 
Q 2591 2978 2328 3040 
Q 2066 3103 1784 3103 
Q 1356 3103 1142 2972 
Q 928 2841 928 2578 
Q 928 2378 1081 2264 
Q 1234 2150 1697 2047 
L 1894 2003 
Q 2506 1872 2764 1633 
Q 3022 1394 3022 966 
Q 3022 478 2636 193 
Q 2250 -91 1575 -91 
Q 1294 -91 989 -36 
Q 684 19 347 128 
L 347 722 
Q 666 556 975 473 
Q 1284 391 1588 391 
Q 1994 391 2212 530 
Q 2431 669 2431 922 
Q 2431 1156 2273 1281 
Q 2116 1406 1581 1522 
L 1381 1569 
Q 847 1681 609 1914 
Q 372 2147 372 2553 
Q 372 3047 722 3315 
Q 1072 3584 1716 3584 
Q 2034 3584 2315 3537 
Q 2597 3491 2834 3397 
z
" transform="scale(0.015625)"/>
      <path id="DejaVuSans-31" d="M 794 531 
L 1825 531 
L 1825 4091 
L 703 3866 
L 703 4441 
L 1819 4666 
L 2450 4666 
L 2450 531 
L 3481 531 
L 3481 0 
L 794 0 
L 794 531 
z
" transform="scale(0.015625)"/>
     </defs>
     <use xlink:href="#DejaVuSans-76"/>
     <use xlink:href="#DejaVuSans-65" x="59.179688"/>
     <use xlink:href="#DejaVuSans-6c" x="120.703125"/>
     <use xlink:href="#DejaVuSans-6f" x="148.486328"/>
     <use xlink:href="#DejaVuSans-63" x="209.667969"/>
     <use xlink:href="#DejaVuSans-69" x="264.648438"/>
     <use xlink:href="#DejaVuSans-74" x="292.431641"/>
     <use xlink:href="#DejaVuSans-79" x="331.640625"/>
     <use xlink:href="#DejaVuSans-20" x="390.820312"/>
     <use xlink:href="#DejaVuSans-76" x="422.607422"/>
     <use xlink:href="#DejaVuSans-73" x="481.787109"/>
     <use xlink:href="#DejaVuSans-20" x="533.886719"/>
     <use xlink:href="#DejaVuSans-74" x="565.673828"/>
     <use xlink:href="#DejaVuSans-69" x="604.882812"/>
     <use xlink:href="#DejaVuSans-6d" x="632.666016"/>
     <use xlink:href="#DejaVuSans-65" x="730.078125"/>
     <use xlink:href="#DejaVuSans-20" x="791.601562"/>
     <use xlink:href="#DejaVuSans-28" x="823.388672"/>
     <use xlink:href="#DejaVuSans-63" x="862.402344"/>
     <use xlink:href="#DejaVuSans-6f" x="917.382812"/>
     <use xlink:href="#DejaVuSans-6e" x="978.564453"/>
     <use xlink:href="#DejaVuSans-74" x="1041.943359"/>
     <use xlink:href="#DejaVuSans-61" x="1081.152344"/>
     <use xlink:href="#DejaVuSans-69" x="1142.431641"/>
     <use xlink:href="#DejaVuSans-6e" x="1170.214844"/>
     <use xlink:href="#DejaVuSans-65" x="1233.59375"/>
     <use xlink:href="#DejaVuSans-72" x="1295.117188"/>
     <use xlink:href="#DejaVuSans-20" x="1336.230469"/>
     <use xlink:href="#DejaVuSans-31" x="1368.017578"/>
     <use xlink:href="#DejaVuSans-29" x="1431.640625"/>
     <use xlink:href="#DejaVuSans-20" x="1470.654297"/>
     <use xlink:href="#DejaVuSans-20" x="1502.441406"/>
    </g>
   </g>
   <g id="legend_1">
    <g id="patch_7">
     <path d="M 64.6 93.506375 
L 139.240625 93.506375 
Q 141.240625 93.506375 141.240625 91.506375 
L 141.240625 48.472 
Q 141.240625 46.472 139.240625 46.472 
L 64.6 46.472 
Q 62.6 46.472 62.6 48.472 
L 62.6 91.506375 
Q 62.6 93.506375 64.6 93.506375 
z
" style="fill: #ffffff; opacity: 0.8; stroke: #cccccc; stroke-linejoin: miter"/>
    </g>
    <g id="line2d_13">
     <path d="M 66.6 54.570437 
L 76.6 54.570437 
L 86.6 54.570437 
" style="fill: none; stroke: #1f77b4; stroke-width: 1.5; stroke-linecap: square"/>
    </g>
    <g id="text_6">
     <!-- mid flow -->
     <g transform="translate(94.6 58.070437)scale(0.1 -0.1)">
      <use xlink:href="#DejaVuSans-6d"/>
      <use xlink:href="#DejaVuSans-69" x="97.412109"/>
      <use xlink:href="#DejaVuSans-64" x="125.195312"/>
      <use xlink:href="#DejaVuSans-20" x="188.671875"/>
      <use xlink:href="#DejaVuSans-66" x="220.458984"/>
      <use xlink:href="#DejaVuSans-6c" x="255.664062"/>
      <use xlink:href="#DejaVuSans-6f" x="283.447266"/>
      <use xlink:href="#DejaVuSans-77" x="344.628906"/>
     </g>
    </g>
    <g id="line2d_14">
     <path d="M 66.6 69.248562 
L 76.6 69.248562 
L 86.6 69.248562 
" style="fill: none; stroke: #ff7f0e; stroke-width: 1.5; stroke-linecap: square"/>
    </g>
    <g id="text_7">
     <!-- v0 flow -->
     <g transform="translate(94.6 72.748562)scale(0.1 -0.1)">
      <use xlink:href="#DejaVuSans-76"/>
      <use xlink:href="#DejaVuSans-30" x="59.179688"/>
      <use xlink:href="#DejaVuSans-20" x="122.802734"/>
      <use xlink:href="#DejaVuSans-66" x="154.589844"/>
      <use xlink:href="#DejaVuSans-6c" x="189.794922"/>
      <use xlink:href="#DejaVuSans-6f" x="217.578125"/>
      <use xlink:href="#DejaVuSans-77" x="278.759766"/>
     </g>
    </g>
    <g id="line2d_15">
     <path d="M 66.6 83.926687 
L 76.6 83.926687 
L 86.6 83.926687 
" style="fill: none; stroke: #2ca02c; stroke-width: 1.5; stroke-linecap: square"/>
    </g>
    <g id="text_8">
     <!-- vN flow -->
     <g transform="translate(94.6 87.426687)scale(0.1 -0.1)">
      <defs>
       <path id="DejaVuSans-4e" d="M 628 4666 
L 1478 4666 
L 3547 763 
L 3547 4666 
L 4159 4666 
L 4159 0 
L 3309 0 
L 1241 3903 
L 1241 0 
L 628 0 
L 628 4666 
z
" transform="scale(0.015625)"/>
      </defs>
      <use xlink:href="#DejaVuSans-76"/>
      <use xlink:href="#DejaVuSans-4e" x="59.179688"/>
      <use xlink:href="#DejaVuSans-20" x="133.984375"/>
      <use xlink:href="#DejaVuSans-66" x="165.771484"/>
      <use xlink:href="#DejaVuSans-6c" x="200.976562"/>
      <use xlink:href="#DejaVuSans-6f" x="228.759766"/>
      <use xlink:href="#DejaVuSans-77" x="289.941406"/>
     </g>
    </g>
   </g>
  </g>
  <g id="axes_2">
   <g id="patch_8">
    <path d="M 57.6 142.411034 
L 414.72 142.411034 
L 414.72 96.529655 
L 57.6 96.529655 
z
" style="fill: #ffffff"/>
   </g>
   <g id="matplotlib.axis_3">
    <g id="xtick_7">
     <g id="line2d_16">
      <g>
       <use xlink:href="#m571b22c5d6" x="73.832727" y="142.411034" style="stroke: #000000; stroke-width: 0.8"/>
      </g>
     </g>
    </g>
    <g id="xtick_8">
     <g id="line2d_17">
      <g>
       <use xlink:href="#m571b22c5d6" x="139.419504" y="142.411034" style="stroke: #000000; stroke-width: 0.8"/>
      </g>
     </g>
    </g>
    <g id="xtick_9">
     <g id="line2d_18">
      <g>
       <use xlink:href="#m571b22c5d6" x="205.006281" y="142.411034" style="stroke: #000000; stroke-width: 0.8"/>
      </g>
     </g>
    </g>
    <g id="xtick_10">
     <g id="line2d_19">
      <g>
       <use xlink:href="#m571b22c5d6" x="270.593058" y="142.411034" style="stroke: #000000; stroke-width: 0.8"/>
      </g>
     </g>
    </g>
    <g id="xtick_11">
     <g id="line2d_20">
      <g>
       <use xlink:href="#m571b22c5d6" x="336.179835" y="142.411034" style="stroke: #000000; stroke-width: 0.8"/>
      </g>
     </g>
    </g>
    <g id="xtick_12">
     <g id="line2d_21">
      <g>
       <use xlink:href="#m571b22c5d6" x="401.766612" y="142.411034" style="stroke: #000000; stroke-width: 0.8"/>
      </g>
     </g>
    </g>
   </g>
   <g id="matplotlib.axis_4">
    <g id="ytick_4">
     <g id="line2d_22">
      <g>
       <use xlink:href="#mccffa79937" x="57.6" y="126.864278" style="stroke: #000000; stroke-width: 0.8"/>
      </g>
     </g>
     <g id="text_9">
      <!-- 0.5 -->
      <g transform="translate(34.696875 130.663497)scale(0.1 -0.1)">
       <use xlink:href="#DejaVuSans-30"/>
       <use xlink:href="#DejaVuSans-2e" x="63.623047"/>
       <use xlink:href="#DejaVuSans-35" x="95.410156"/>
      </g>
     </g>
    </g>
    <g id="ytick_5">
     <g id="line2d_23">
      <g>
       <use xlink:href="#mccffa79937" x="57.6" y="99.935907" style="stroke: #000000; stroke-width: 0.8"/>
      </g>
     </g>
     <g id="text_10">
      <!-- 1.0 -->
      <g transform="translate(34.696875 103.735126)scale(0.1 -0.1)">
       <use xlink:href="#DejaVuSans-31"/>
       <use xlink:href="#DejaVuSans-2e" x="63.623047"/>
       <use xlink:href="#DejaVuSans-30" x="95.410156"/>
      </g>
     </g>
    </g>
   </g>
   <g id="line2d_24">
    <path d="M 73.832727 140.325517 
L 77.112066 124.56887 
L 80.391405 114.892888 
L 83.670744 109.017526 
L 86.950083 105.450763 
L 90.229421 103.285077 
L 93.50876 101.969836 
L 96.788099 101.171963 
L 100.067438 100.68628 
L 103.346777 100.391547 
L 106.626116 100.212757 
L 109.905455 100.104059 
L 113.184793 100.038024 
L 116.464132 99.998004 
L 119.743471 99.973615 
L 123.02281 99.904787 
L 126.302149 98.994024 
L 129.581488 98.985606 
L 132.860826 98.967351 
L 136.140165 98.943373 
L 139.419504 98.916064 
L 142.698843 98.886638 
L 145.978182 98.855873 
L 149.257521 98.824212 
L 152.53686 98.791914 
L 155.816198 98.759163 
L 159.095537 98.72603 
L 162.374876 98.692609 
L 165.654215 98.658944 
L 168.933554 98.625123 
L 172.212893 98.615172 
L 175.492231 109.906179 
L 178.77157 116.074185 
L 182.050909 119.755793 
L 185.330248 121.97987 
L 188.609587 123.368857 
L 191.888926 124.271686 
L 195.168264 124.88163 
L 198.447603 125.308975 
L 201.726942 125.618678 
L 205.006281 125.849834 
L 208.28562 126.027316 
L 211.564959 126.166792 
L 214.844298 126.278588 
L 218.123636 126.369685 
L 221.402975 126.444774 
L 224.682314 126.507337 
L 227.961653 126.559864 
L 231.240992 126.604205 
L 234.520331 126.641789 
L 237.799669 126.673758 
L 241.079008 126.701007 
L 244.358347 126.724279 
L 247.637686 126.744178 
L 250.917025 126.761212 
L 254.196364 126.775725 
L 257.475702 126.788259 
L 260.755041 126.799031 
L 264.03438 126.808288 
L 267.313719 126.816229 
L 270.593058 126.824472 
L 273.872397 132.058925 
L 277.151736 135.207966 
L 280.431074 137.121569 
L 283.710413 138.291125 
L 286.989752 139.010927 
L 290.269091 139.457759 
L 293.54843 139.737727 
L 296.827769 139.91551 
L 300.107107 140.030342 
L 303.386446 140.105627 
L 306.665785 140.156572 
L 309.945124 140.191947 
L 313.224463 140.217267 
L 316.503802 140.235683 
L 319.78314 140.250278 
L 323.062479 140.261508 
L 326.341818 140.270642 
L 329.621157 140.278177 
L 332.900496 140.284501 
L 336.179835 140.289905 
L 339.459174 140.294563 
L 342.738512 140.298595 
L 346.017851 140.302219 
L 349.29719 140.305104 
L 352.576529 140.307825 
L 355.855868 140.310175 
L 359.135207 140.31225 
L 362.414545 140.314083 
L 365.693884 140.315695 
L 368.973223 140.317119 
L 372.252562 140.318379 
L 375.531901 140.319495 
L 378.81124 140.320481 
L 382.090579 140.321351 
L 385.369917 140.322119 
L 388.649256 140.322796 
L 391.928595 140.323401 
L 395.207934 140.323946 
L 398.487273 140.324434 
" clip-path="url(#pac51290979)" style="fill: none; stroke: #1f77b4; stroke-width: 1.5; stroke-linecap: square"/>
   </g>
   <g id="line2d_25">
    <path d="M 73.832727 140.276481 
L 77.112066 126.346689 
L 80.391405 115.914712 
L 83.670744 109.627639 
L 86.950083 105.827548 
L 90.229421 103.52076 
L 93.50876 102.117531 
L 96.788099 101.26493 
L 100.067438 100.745023 
L 103.346777 100.428618 
L 106.626116 100.236317 
L 109.905455 100.119072 
L 113.184793 100.047621 
L 116.464132 100.004185 
L 119.743471 99.977737 
L 123.02281 99.961571 
L 126.302149 99.59595 
L 129.581488 99.605447 
L 132.860826 99.609782 
L 136.140165 99.611059 
L 139.419504 99.610344 
L 142.698843 99.60804 
L 145.978182 99.604306 
L 149.257521 99.599106 
L 152.53686 99.592295 
L 155.816198 99.58374 
L 159.095537 99.573295 
L 162.374876 99.56088 
L 165.654215 99.546456 
L 168.933554 99.53007 
L 172.212893 99.511792 
L 175.492231 110.176353 
L 178.77157 116.492148 
L 182.050909 120.289258 
L 185.330248 122.57041 
L 188.609587 123.96353 
L 191.888926 124.836459 
L 195.168264 125.398779 
L 198.447603 125.771591 
L 201.726942 126.026212 
L 205.006281 126.20519 
L 208.28562 126.335023 
L 211.564959 126.431991 
L 214.844298 126.506417 
L 218.123636 126.564982 
L 221.402975 126.611928 
L 224.682314 126.650267 
L 227.961653 126.682004 
L 231.240992 126.708536 
L 234.520331 126.730889 
L 237.799669 126.749842 
L 241.079008 126.765978 
L 244.358347 126.779761 
L 247.637686 126.791562 
L 250.917025 126.801685 
L 254.196364 126.810334 
L 257.475702 126.817824 
L 260.755041 126.82428 
L 264.03438 126.829846 
L 267.313719 126.834637 
L 270.593058 126.838796 
L 273.872397 130.718664 
L 277.151736 133.093517 
L 280.431074 134.605805 
L 283.710413 135.635516 
L 286.989752 136.380482 
L 290.269091 136.947433 
L 293.54843 137.39656 
L 296.827769 137.763917 
L 300.107107 138.071621 
L 303.386446 138.333801 
L 306.665785 138.56046 
L 309.945124 138.758143 
L 313.224463 138.931665 
L 316.503802 139.084512 
L 319.78314 139.220096 
L 323.062479 139.340264 
L 326.341818 139.447111 
L 329.621157 139.542181 
L 332.900496 139.626849 
L 336.179835 139.702323 
L 339.459174 139.769652 
L 342.738512 139.829803 
L 346.017851 139.883632 
L 349.29719 139.931511 
L 352.576529 139.974407 
L 355.855868 140.012564 
L 359.135207 140.046598 
L 362.414545 140.076945 
L 365.693884 140.103992 
L 368.973223 140.128086 
L 372.252562 140.149571 
L 375.531901 140.1687 
L 378.81124 140.185741 
L 382.090579 140.200956 
L 385.369917 140.214469 
L 388.649256 140.226433 
L 391.928595 140.237136 
L 395.207934 140.246798 
L 398.487273 140.255452 
" clip-path="url(#pac51290979)" style="fill: none; stroke: #ff7f0e; stroke-width: 1.5; stroke-linecap: square"/>
   </g>
   <g id="line2d_26">
    <path d="M 73.832727 140.262535 
L 77.112066 126.891984 
L 80.391405 116.116259 
L 83.670744 109.740064 
L 86.950083 105.897551 
L 90.229421 103.565556 
L 93.50876 102.146268 
L 96.788099 101.283418 
L 100.067438 100.756889 
L 103.346777 100.436175 
L 106.626116 100.241134 
L 109.905455 100.122125 
L 113.184793 100.049538 
L 116.464132 100.00538 
L 119.743471 99.978497 
L 123.02281 99.950943 
L 126.302149 99.918162 
L 129.581488 99.918695 
L 132.860826 99.918978 
L 136.140165 99.919126 
L 139.419504 99.919203 
L 142.698843 99.919239 
L 145.978182 99.919252 
L 149.257521 99.919252 
L 152.53686 99.919243 
L 155.816198 99.919228 
L 159.095537 99.919205 
L 162.374876 99.919175 
L 165.654215 99.919135 
L 168.933554 99.919084 
L 172.212893 99.919124 
L 175.492231 110.510664 
L 178.77157 116.935092 
L 182.050909 120.834051 
L 185.330248 123.200379 
L 188.609587 124.636313 
L 191.888926 125.507759 
L 195.168264 126.03672 
L 198.447603 126.358154 
L 201.726942 126.553729 
L 205.006281 126.67266 
L 208.28562 126.74518 
L 211.564959 126.789532 
L 214.844298 126.816714 
L 218.123636 126.833508 
L 221.402975 126.843835 
L 224.682314 126.850309 
L 227.961653 126.854428 
L 231.240992 126.85708 
L 234.520331 126.858815 
L 237.799669 126.859996 
L 241.079008 126.860827 
L 244.358347 126.861428 
L 247.637686 126.861874 
L 250.917025 126.862224 
L 254.196364 126.862509 
L 257.475702 126.862744 
L 260.755041 126.862941 
L 264.03438 126.86311 
L 267.313719 126.863256 
L 270.593058 126.863249 
L 273.872397 130.355746 
L 277.151736 132.529435 
L 280.431074 133.940884 
L 283.710413 134.933901 
L 286.989752 135.680732 
L 290.269091 136.271699 
L 293.54843 136.756914 
L 296.827769 137.166231 
L 300.107107 137.518017 
L 303.386446 137.824225 
L 306.665785 138.093479 
L 309.945124 138.331622 
L 313.224463 138.543109 
L 316.503802 138.7313 
L 319.78314 138.899489 
L 323.062479 139.049683 
L 326.341818 139.184052 
L 329.621157 139.304294 
L 332.900496 139.411927 
L 336.179835 139.508309 
L 339.459174 139.594647 
L 342.738512 139.672064 
L 346.017851 139.741552 
L 349.29719 139.80366 
L 352.576529 139.859414 
L 355.855868 139.90919 
L 359.135207 139.953714 
L 362.414545 139.993519 
L 365.693884 140.029087 
L 368.973223 140.060856 
L 372.252562 140.089253 
L 375.531901 140.114581 
L 378.81124 140.137194 
L 382.090579 140.157429 
L 385.369917 140.175435 
L 388.649256 140.191403 
L 391.928595 140.205702 
L 395.207934 140.218612 
L 398.487273 140.230185 
" clip-path="url(#pac51290979)" style="fill: none; stroke: #2ca02c; stroke-width: 1.5; stroke-linecap: square"/>
   </g>
   <g id="patch_9">
    <path d="M 57.6 142.411034 
L 57.6 96.529655 
" style="fill: none; stroke: #000000; stroke-width: 0.8; stroke-linejoin: miter; stroke-linecap: square"/>
   </g>
   <g id="patch_10">
    <path d="M 414.72 142.411034 
L 414.72 96.529655 
" style="fill: none; stroke: #000000; stroke-width: 0.8; stroke-linejoin: miter; stroke-linecap: square"/>
   </g>
   <g id="patch_11">
    <path d="M 57.6 142.411034 
L 414.72 142.411034 
" style="fill: none; stroke: #000000; stroke-width: 0.8; stroke-linejoin: miter; stroke-linecap: square"/>
   </g>
   <g id="patch_12">
    <path d="M 57.6 96.529655 
L 414.72 96.529655 
" style="fill: none; stroke: #000000; stroke-width: 0.8; stroke-linejoin: miter; stroke-linecap: square"/>
   </g>
   <g id="text_11">
    <!-- Pressure -->
    <g transform="translate(210.546562 90.529655)scale(0.12 -0.12)">
     <defs>
      <path id="DejaVuSans-50" d="M 1259 4147 
L 1259 2394 
L 2053 2394 
Q 2494 2394 2734 2622 
Q 2975 2850 2975 3272 
Q 2975 3691 2734 3919 
Q 2494 4147 2053 4147 
L 1259 4147 
z
M 628 4666 
L 2053 4666 
Q 2838 4666 3239 4311 
Q 3641 3956 3641 3272 
Q 3641 2581 3239 2228 
Q 2838 1875 2053 1875 
L 1259 1875 
L 1259 0 
L 628 0 
L 628 4666 
z
" transform="scale(0.015625)"/>
      <path id="DejaVuSans-75" d="M 544 1381 
L 544 3500 
L 1119 3500 
L 1119 1403 
Q 1119 906 1312 657 
Q 1506 409 1894 409 
Q 2359 409 2629 706 
Q 2900 1003 2900 1516 
L 2900 3500 
L 3475 3500 
L 3475 0 
L 2900 0 
L 2900 538 
Q 2691 219 2414 64 
Q 2138 -91 1772 -91 
Q 1169 -91 856 284 
Q 544 659 544 1381 
z
M 1991 3584 
L 1991 3584 
z
" transform="scale(0.015625)"/>
     </defs>
     <use xlink:href="#DejaVuSans-50"/>
     <use xlink:href="#DejaVuSans-72" x="58.552734"/>
     <use xlink:href="#DejaVuSans-65" x="97.416016"/>
     <use xlink:href="#DejaVuSans-73" x="158.939453"/>
     <use xlink:href="#DejaVuSans-73" x="211.039062"/>
     <use xlink:href="#DejaVuSans-75" x="263.138672"/>
     <use xlink:href="#DejaVuSans-72" x="326.517578"/>
     <use xlink:href="#DejaVuSans-65" x="365.380859"/>
    </g>
   </g>
   <g id="legend_2">
    <g id="patch_13">
     <path d="M 350.823125 137.411034 
L 407.72 137.411034 
Q 409.72 137.411034 409.72 135.411034 
L 409.72 92.376659 
Q 409.72 90.376659 407.72 90.376659 
L 350.823125 90.376659 
Q 348.823125 90.376659 348.823125 92.376659 
L 348.823125 135.411034 
Q 348.823125 137.411034 350.823125 137.411034 
z
" style="fill: #ffffff; opacity: 0.8; stroke: #cccccc; stroke-linejoin: miter"/>
    </g>
    <g id="line2d_27">
     <path d="M 352.823125 98.475097 
L 362.823125 98.475097 
L 372.823125 98.475097 
" style="fill: none; stroke: #1f77b4; stroke-width: 1.5; stroke-linecap: square"/>
    </g>
    <g id="text_12">
     <!-- P1 -->
     <g transform="translate(380.823125 101.975097)scale(0.1 -0.1)">
      <use xlink:href="#DejaVuSans-50"/>
      <use xlink:href="#DejaVuSans-31" x="60.302734"/>
     </g>
    </g>
    <g id="line2d_28">
     <path d="M 352.823125 113.153222 
L 362.823125 113.153222 
L 372.823125 113.153222 
" style="fill: none; stroke: #ff7f0e; stroke-width: 1.5; stroke-linecap: square"/>
    </g>
    <g id="text_13">
     <!-- Pmid -->
     <g transform="translate(380.823125 116.653222)scale(0.1 -0.1)">
      <use xlink:href="#DejaVuSans-50"/>
      <use xlink:href="#DejaVuSans-6d" x="60.302734"/>
      <use xlink:href="#DejaVuSans-69" x="157.714844"/>
      <use xlink:href="#DejaVuSans-64" x="185.498047"/>
     </g>
    </g>
    <g id="line2d_29">
     <path d="M 352.823125 127.831347 
L 362.823125 127.831347 
L 372.823125 127.831347 
" style="fill: none; stroke: #2ca02c; stroke-width: 1.5; stroke-linecap: square"/>
    </g>
    <g id="text_14">
     <!-- PN -->
     <g transform="translate(380.823125 131.331347)scale(0.1 -0.1)">
      <use xlink:href="#DejaVuSans-50"/>
      <use xlink:href="#DejaVuSans-4e" x="60.302734"/>
     </g>
    </g>
   </g>
  </g>
  <g id="axes_3">
   <g id="patch_14">
    <path d="M 57.6 197.46869 
L 414.72 197.46869 
L 414.72 151.58731 
L 57.6 151.58731 
z
" style="fill: #ffffff"/>
   </g>
   <g id="matplotlib.axis_5">
    <g id="xtick_13">
     <g id="line2d_30">
      <g>
       <use xlink:href="#m571b22c5d6" x="73.832727" y="197.46869" style="stroke: #000000; stroke-width: 0.8"/>
      </g>
     </g>
    </g>
    <g id="xtick_14">
     <g id="line2d_31">
      <g>
       <use xlink:href="#m571b22c5d6" x="139.419504" y="197.46869" style="stroke: #000000; stroke-width: 0.8"/>
      </g>
     </g>
    </g>
    <g id="xtick_15">
     <g id="line2d_32">
      <g>
       <use xlink:href="#m571b22c5d6" x="205.006281" y="197.46869" style="stroke: #000000; stroke-width: 0.8"/>
      </g>
     </g>
    </g>
    <g id="xtick_16">
     <g id="line2d_33">
      <g>
       <use xlink:href="#m571b22c5d6" x="270.593058" y="197.46869" style="stroke: #000000; stroke-width: 0.8"/>
      </g>
     </g>
    </g>
    <g id="xtick_17">
     <g id="line2d_34">
      <g>
       <use xlink:href="#m571b22c5d6" x="336.179835" y="197.46869" style="stroke: #000000; stroke-width: 0.8"/>
      </g>
     </g>
    </g>
    <g id="xtick_18">
     <g id="line2d_35">
      <g>
       <use xlink:href="#m571b22c5d6" x="401.766612" y="197.46869" style="stroke: #000000; stroke-width: 0.8"/>
      </g>
     </g>
    </g>
   </g>
   <g id="matplotlib.axis_6">
    <g id="ytick_6">
     <g id="line2d_36">
      <g>
       <use xlink:href="#mccffa79937" x="57.6" y="195.383187" style="stroke: #000000; stroke-width: 0.8"/>
      </g>
     </g>
     <g id="text_15">
      <!-- 0.0 -->
      <g transform="translate(34.696875 199.182405)scale(0.1 -0.1)">
       <use xlink:href="#DejaVuSans-30"/>
       <use xlink:href="#DejaVuSans-2e" x="63.623047"/>
       <use xlink:href="#DejaVuSans-30" x="95.410156"/>
      </g>
     </g>
    </g>
    <g id="ytick_7">
     <g id="line2d_37">
      <g>
       <use xlink:href="#mccffa79937" x="57.6" y="172.321654" style="stroke: #000000; stroke-width: 0.8"/>
      </g>
     </g>
     <g id="text_16">
      <!-- 0.2 -->
      <g transform="translate(34.696875 176.120873)scale(0.1 -0.1)">
       <use xlink:href="#DejaVuSans-30"/>
       <use xlink:href="#DejaVuSans-2e" x="63.623047"/>
       <use xlink:href="#DejaVuSans-32" x="95.410156"/>
      </g>
     </g>
    </g>
    <g id="text_17">
     <!-- fraction -->
     <g transform="translate(28.617187 193.73425)rotate(-90)scale(0.1 -0.1)">
      <use xlink:href="#DejaVuSans-66"/>
      <use xlink:href="#DejaVuSans-72" x="35.205078"/>
      <use xlink:href="#DejaVuSans-61" x="76.318359"/>
      <use xlink:href="#DejaVuSans-63" x="137.597656"/>
      <use xlink:href="#DejaVuSans-74" x="192.578125"/>
      <use xlink:href="#DejaVuSans-69" x="231.787109"/>
      <use xlink:href="#DejaVuSans-6f" x="259.570312"/>
      <use xlink:href="#DejaVuSans-6e" x="320.751953"/>
     </g>
    </g>
   </g>
   <g id="line2d_38">
    <path d="M 73.832727 195.273622 
L 77.112066 183.138954 
L 80.391405 182.623187 
L 83.670744 182.132734 
L 86.950083 181.594492 
L 90.229421 180.964982 
L 93.50876 180.223665 
L 96.788099 179.366437 
L 100.067438 178.470922 
L 103.346777 177.643387 
L 106.626116 176.773283 
L 109.905455 176.084193 
L 113.184793 175.542569 
L 116.464132 175.195914 
L 119.743471 174.897382 
L 123.02281 174.666 
L 126.302149 182.902624 
L 129.581488 183.094027 
L 132.860826 183.237979 
L 136.140165 183.349216 
L 139.419504 183.43714 
L 142.698843 183.507567 
L 145.978182 183.564759 
L 149.257521 183.611636 
L 152.53686 183.650181 
L 155.816198 183.681989 
L 159.095537 183.708299 
L 162.374876 183.730111 
L 165.654215 183.748252 
L 168.933554 183.763332 
L 172.212893 183.775862 
L 175.492231 187.813527 
L 178.77157 191.421192 
L 182.050909 193.203533 
L 185.330248 194.065947 
L 188.609587 194.531017 
L 191.888926 194.807121 
L 195.168264 194.981147 
L 198.447603 195.095214 
L 201.726942 195.172092 
L 205.006281 195.22513 
L 208.28562 195.262457 
L 211.564959 195.28903 
L 214.844298 195.308228 
L 218.123636 195.322261 
L 221.402975 195.332694 
L 224.682314 195.340553 
L 227.961653 195.346532 
L 231.240992 195.35114 
L 234.520331 195.354732 
L 237.799669 195.357563 
L 241.079008 195.35981 
L 244.358347 195.361611 
L 247.637686 195.363064 
L 250.917025 195.364244 
L 254.196364 195.365201 
L 257.475702 195.365994 
L 260.755041 195.366652 
L 264.03438 195.367199 
L 267.313719 195.367653 
L 270.593058 195.368028 
L 273.872397 195.37073 
L 277.151736 195.371261 
L 280.431074 195.376177 
L 283.710413 195.378586 
L 286.989752 195.380005 
L 290.269091 195.380927 
L 293.54843 195.381551 
L 296.827769 195.381983 
L 300.107107 195.382291 
L 303.386446 195.382509 
L 306.665785 195.382667 
L 309.945124 195.382783 
L 313.224463 195.38287 
L 316.503802 195.382935 
L 319.78314 195.382982 
L 323.062479 195.383019 
L 326.341818 195.383047 
L 329.621157 195.383069 
L 332.900496 195.383087 
L 336.179835 195.383103 
L 339.459174 195.383115 
L 342.738512 195.383126 
L 346.017851 195.383137 
L 349.29719 195.383145 
L 352.576529 195.383153 
L 355.855868 195.383159 
L 359.135207 195.383164 
L 362.414545 195.383168 
L 365.693884 195.38317 
L 368.973223 195.383172 
L 372.252562 195.383172 
L 375.531901 195.383172 
L 378.81124 195.383172 
L 382.090579 195.383172 
L 385.369917 195.383172 
L 388.649256 195.383171 
L 391.928595 195.38317 
L 395.207934 195.38317 
L 398.487273 195.38317 
" clip-path="url(#pd4898fb67b)" style="fill: none; stroke: #1f77b4; stroke-width: 1.5; stroke-linecap: square"/>
   </g>
   <g id="line2d_39">
    <path d="M 73.832727 193.125576 
L 77.112066 179.63879 
L 80.391405 161.598847 
L 83.670744 157.66021 
L 86.950083 155.892926 
L 90.229421 154.961721 
L 93.50876 154.435216 
L 96.788099 154.128298 
L 100.067438 153.944836 
L 103.346777 153.834048 
L 106.626116 153.767177 
L 109.905455 153.726456 
L 113.184793 153.701727 
L 116.464132 153.686829 
L 119.743471 153.678041 
L 123.02281 153.672828 
L 126.302149 153.733931 
L 129.581488 153.74151 
L 132.860826 153.750153 
L 136.140165 153.759894 
L 139.419504 153.771103 
L 142.698843 153.784433 
L 145.978182 153.800818 
L 149.257521 153.821576 
L 152.53686 153.848558 
L 155.816198 153.884286 
L 159.095537 153.932288 
L 162.374876 153.997311 
L 165.654215 154.085633 
L 168.933554 154.205931 
L 172.212893 154.369218 
L 175.492231 157.563597 
L 178.77157 161.368317 
L 182.050909 165.327039 
L 185.330248 170.008388 
L 188.609587 175.224377 
L 191.888926 180.083455 
L 195.168264 184.010906 
L 198.447603 186.95294 
L 201.726942 189.091239 
L 205.006281 190.637428 
L 208.28562 191.762265 
L 211.564959 192.582566 
L 214.844298 193.188229 
L 218.123636 193.641221 
L 221.402975 193.981528 
L 224.682314 194.238591 
L 227.961653 194.436343 
L 231.240992 194.59 
L 234.520331 194.709066 
L 237.799669 194.802492 
L 241.079008 194.877027 
L 244.358347 194.936955 
L 247.637686 194.985473 
L 250.917025 195.024746 
L 254.196364 195.056652 
L 257.475702 195.083487 
L 260.755041 195.105942 
L 264.03438 195.124894 
L 267.313719 195.140944 
L 270.593058 195.154511 
L 273.872397 195.242688 
L 277.151736 195.322818 
L 280.431074 195.351195 
L 283.710413 195.363904 
L 286.989752 195.370951 
L 290.269091 195.375195 
L 293.54843 195.377852 
L 296.827769 195.379561 
L 300.107107 195.380694 
L 303.386446 195.381434 
L 306.665785 195.381933 
L 309.945124 195.382281 
L 313.224463 195.382528 
L 316.503802 195.382695 
L 319.78314 195.382807 
L 323.062479 195.382888 
L 326.341818 195.382951 
L 329.621157 195.383003 
L 332.900496 195.383044 
L 336.179835 195.383077 
L 339.459174 195.383102 
L 342.738512 195.38312 
L 346.017851 195.383138 
L 349.29719 195.38315 
L 352.576529 195.383161 
L 355.855868 195.383166 
L 359.135207 195.38317 
L 362.414545 195.383171 
L 365.693884 195.38317 
L 368.973223 195.383169 
L 372.252562 195.383168 
L 375.531901 195.383165 
L 378.81124 195.383161 
L 382.090579 195.383159 
L 385.369917 195.383156 
L 388.649256 195.383154 
L 391.928595 195.383153 
L 395.207934 195.383153 
L 398.487273 195.383154 
" clip-path="url(#pd4898fb67b)" style="fill: none; stroke: #ff7f0e; stroke-width: 1.5; stroke-linecap: square"/>
   </g>
   <g id="patch_15">
    <path d="M 57.6 197.46869 
L 57.6 151.58731 
" style="fill: none; stroke: #000000; stroke-width: 0.8; stroke-linejoin: miter; stroke-linecap: square"/>
   </g>
   <g id="patch_16">
    <path d="M 414.72 197.46869 
L 414.72 151.58731 
" style="fill: none; stroke: #000000; stroke-width: 0.8; stroke-linejoin: miter; stroke-linecap: square"/>
   </g>
   <g id="patch_17">
    <path d="M 57.6 197.46869 
L 414.72 197.46869 
" style="fill: none; stroke: #000000; stroke-width: 0.8; stroke-linejoin: miter; stroke-linecap: square"/>
   </g>
   <g id="patch_18">
    <path d="M 57.6 151.58731 
L 414.72 151.58731 
" style="fill: none; stroke: #000000; stroke-width: 0.8; stroke-linejoin: miter; stroke-linecap: square"/>
   </g>
   <g id="text_18">
    <!-- yA -->
    <g transform="translate(228.504375 145.58731)scale(0.12 -0.12)">
     <defs>
      <path id="DejaVuSans-41" d="M 2188 4044 
L 1331 1722 
L 3047 1722 
L 2188 4044 
z
M 1831 4666 
L 2547 4666 
L 4325 0 
L 3669 0 
L 3244 1197 
L 1141 1197 
L 716 0 
L 50 0 
L 1831 4666 
z
" transform="scale(0.015625)"/>
     </defs>
     <use xlink:href="#DejaVuSans-79"/>
     <use xlink:href="#DejaVuSans-41" x="59.179688"/>
    </g>
   </g>
   <g id="legend_3">
    <g id="patch_19">
     <path d="M 330.030938 188.94356 
L 407.72 188.94356 
Q 409.72 188.94356 409.72 186.94356 
L 409.72 158.58731 
Q 409.72 156.58731 407.72 156.58731 
L 330.030938 156.58731 
Q 328.030938 156.58731 328.030938 158.58731 
L 328.030938 186.94356 
Q 328.030938 188.94356 330.030938 188.94356 
z
" style="fill: #ffffff; opacity: 0.8; stroke: #cccccc; stroke-linejoin: miter"/>
    </g>
    <g id="line2d_40">
     <path d="M 332.030938 164.685748 
L 342.030938 164.685748 
L 352.030938 164.685748 
" style="fill: none; stroke: #1f77b4; stroke-width: 1.5; stroke-linecap: square"/>
    </g>
    <g id="text_19">
     <!-- yA0 (in) -->
     <g transform="translate(360.030938 168.185748)scale(0.1 -0.1)">
      <use xlink:href="#DejaVuSans-79"/>
      <use xlink:href="#DejaVuSans-41" x="59.179688"/>
      <use xlink:href="#DejaVuSans-30" x="127.587891"/>
      <use xlink:href="#DejaVuSans-20" x="191.210938"/>
      <use xlink:href="#DejaVuSans-28" x="222.998047"/>
      <use xlink:href="#DejaVuSans-69" x="262.011719"/>
      <use xlink:href="#DejaVuSans-6e" x="289.794922"/>
      <use xlink:href="#DejaVuSans-29" x="353.173828"/>
     </g>
    </g>
    <g id="line2d_41">
     <path d="M 332.030938 179.363873 
L 342.030938 179.363873 
L 352.030938 179.363873 
" style="fill: none; stroke: #ff7f0e; stroke-width: 1.5; stroke-linecap: square"/>
    </g>
    <g id="text_20">
     <!-- yAL (out) -->
     <g transform="translate(360.030938 182.863873)scale(0.1 -0.1)">
      <defs>
       <path id="DejaVuSans-4c" d="M 628 4666 
L 1259 4666 
L 1259 531 
L 3531 531 
L 3531 0 
L 628 0 
L 628 4666 
z
" transform="scale(0.015625)"/>
      </defs>
      <use xlink:href="#DejaVuSans-79"/>
      <use xlink:href="#DejaVuSans-41" x="59.179688"/>
      <use xlink:href="#DejaVuSans-4c" x="127.587891"/>
      <use xlink:href="#DejaVuSans-20" x="183.300781"/>
      <use xlink:href="#DejaVuSans-28" x="215.087891"/>
      <use xlink:href="#DejaVuSans-6f" x="254.101562"/>
      <use xlink:href="#DejaVuSans-75" x="315.283203"/>
      <use xlink:href="#DejaVuSans-74" x="378.662109"/>
      <use xlink:href="#DejaVuSans-29" x="417.871094"/>
     </g>
    </g>
   </g>
  </g>
  <g id="axes_4">
   <g id="patch_20">
    <path d="M 57.6 252.526345 
L 414.72 252.526345 
L 414.72 206.644966 
L 57.6 206.644966 
z
" style="fill: #ffffff"/>
   </g>
   <g id="matplotlib.axis_7">
    <g id="xtick_19">
     <g id="line2d_42">
      <g>
       <use xlink:href="#m571b22c5d6" x="73.832727" y="252.526345" style="stroke: #000000; stroke-width: 0.8"/>
      </g>
     </g>
    </g>
    <g id="xtick_20">
     <g id="line2d_43">
      <g>
       <use xlink:href="#m571b22c5d6" x="139.419504" y="252.526345" style="stroke: #000000; stroke-width: 0.8"/>
      </g>
     </g>
    </g>
    <g id="xtick_21">
     <g id="line2d_44">
      <g>
       <use xlink:href="#m571b22c5d6" x="205.006281" y="252.526345" style="stroke: #000000; stroke-width: 0.8"/>
      </g>
     </g>
    </g>
    <g id="xtick_22">
     <g id="line2d_45">
      <g>
       <use xlink:href="#m571b22c5d6" x="270.593058" y="252.526345" style="stroke: #000000; stroke-width: 0.8"/>
      </g>
     </g>
    </g>
    <g id="xtick_23">
     <g id="line2d_46">
      <g>
       <use xlink:href="#m571b22c5d6" x="336.179835" y="252.526345" style="stroke: #000000; stroke-width: 0.8"/>
      </g>
     </g>
    </g>
    <g id="xtick_24">
     <g id="line2d_47">
      <g>
       <use xlink:href="#m571b22c5d6" x="401.766612" y="252.526345" style="stroke: #000000; stroke-width: 0.8"/>
      </g>
     </g>
    </g>
   </g>
   <g id="matplotlib.axis_8">
    <g id="ytick_8">
     <g id="line2d_48">
      <g>
       <use xlink:href="#mccffa79937" x="57.6" y="237.557384" style="stroke: #000000; stroke-width: 0.8"/>
      </g>
     </g>
     <g id="text_21">
      <!-- 0.5 -->
      <g transform="translate(34.696875 241.356602)scale(0.1 -0.1)">
       <use xlink:href="#DejaVuSans-30"/>
       <use xlink:href="#DejaVuSans-2e" x="63.623047"/>
       <use xlink:href="#DejaVuSans-35" x="95.410156"/>
      </g>
     </g>
    </g>
    <g id="ytick_9">
     <g id="line2d_49">
      <g>
       <use xlink:href="#mccffa79937" x="57.6" y="208.730468" style="stroke: #000000; stroke-width: 0.8"/>
      </g>
     </g>
     <g id="text_22">
      <!-- 1.0 -->
      <g transform="translate(34.696875 212.529687)scale(0.1 -0.1)">
       <use xlink:href="#DejaVuSans-31"/>
       <use xlink:href="#DejaVuSans-2e" x="63.623047"/>
       <use xlink:href="#DejaVuSans-30" x="95.410156"/>
      </g>
     </g>
    </g>
    <g id="text_23">
     <!-- fraction -->
     <g transform="translate(28.617187 248.791905)rotate(-90)scale(0.1 -0.1)">
      <use xlink:href="#DejaVuSans-66"/>
      <use xlink:href="#DejaVuSans-72" x="35.205078"/>
      <use xlink:href="#DejaVuSans-61" x="76.318359"/>
      <use xlink:href="#DejaVuSans-63" x="137.597656"/>
      <use xlink:href="#DejaVuSans-74" x="192.578125"/>
      <use xlink:href="#DejaVuSans-69" x="231.787109"/>
      <use xlink:href="#DejaVuSans-6f" x="259.570312"/>
      <use xlink:href="#DejaVuSans-6e" x="320.751953"/>
     </g>
    </g>
   </g>
   <g id="line2d_50">
    <path d="M 73.832727 208.840033 
L 77.112066 220.974701 
L 80.391405 221.490468 
L 83.670744 221.980921 
L 86.950083 222.519163 
L 90.229421 223.148673 
L 93.50876 223.88999 
L 96.788099 224.747219 
L 100.067438 225.642733 
L 103.346777 226.470268 
L 106.626116 227.340372 
L 109.905455 228.029462 
L 113.184793 228.571086 
L 116.464132 228.917741 
L 119.743471 229.216273 
L 123.02281 229.447655 
L 126.302149 221.211031 
L 129.581488 221.019628 
L 132.860826 220.875676 
L 136.140165 220.764439 
L 139.419504 220.676516 
L 142.698843 220.606088 
L 145.978182 220.548896 
L 149.257521 220.502019 
L 152.53686 220.463474 
L 155.816198 220.431666 
L 159.095537 220.405356 
L 162.374876 220.383544 
L 165.654215 220.365403 
L 168.933554 220.350323 
L 172.212893 220.337793 
L 175.492231 216.300128 
L 178.77157 212.692463 
L 182.050909 210.910122 
L 185.330248 210.047708 
L 188.609587 209.582638 
L 191.888926 209.306534 
L 195.168264 209.132508 
L 198.447603 209.018441 
L 201.726942 208.941563 
L 205.006281 208.888525 
L 208.28562 208.851198 
L 211.564959 208.824625 
L 214.844298 208.805427 
L 218.123636 208.791394 
L 221.402975 208.780961 
L 224.682314 208.773102 
L 227.961653 208.767123 
L 231.240992 208.762515 
L 234.520331 208.758923 
L 237.799669 208.756092 
L 241.079008 208.753845 
L 244.358347 208.752044 
L 247.637686 208.750592 
L 250.917025 208.749411 
L 254.196364 208.748455 
L 257.475702 208.747661 
L 260.755041 208.747003 
L 264.03438 208.746456 
L 267.313719 208.746002 
L 270.593058 208.745627 
L 273.872397 208.742925 
L 277.151736 208.742394 
L 280.431074 208.737478 
L 283.710413 208.735069 
L 286.989752 208.73365 
L 290.269091 208.732728 
L 293.54843 208.732104 
L 296.827769 208.731672 
L 300.107107 208.731364 
L 303.386446 208.731146 
L 306.665785 208.730988 
L 309.945124 208.730872 
L 313.224463 208.730785 
L 316.503802 208.730721 
L 319.78314 208.730673 
L 323.062479 208.730637 
L 326.341818 208.730608 
L 329.621157 208.730586 
L 332.900496 208.730568 
L 336.179835 208.730553 
L 339.459174 208.73054 
L 342.738512 208.730529 
L 346.017851 208.730518 
L 349.29719 208.73051 
L 352.576529 208.730502 
L 355.855868 208.730496 
L 359.135207 208.730491 
L 362.414545 208.730487 
L 365.693884 208.730485 
L 368.973223 208.730483 
L 372.252562 208.730483 
L 375.531901 208.730483 
L 378.81124 208.730483 
L 382.090579 208.730483 
L 385.369917 208.730484 
L 388.649256 208.730484 
L 391.928595 208.730485 
L 395.207934 208.730485 
L 398.487273 208.730485 
" clip-path="url(#p8c7d8bb519)" style="fill: none; stroke: #1f77b4; stroke-width: 1.5; stroke-linecap: square"/>
   </g>
   <g id="line2d_51">
    <path d="M 73.832727 210.988079 
L 77.112066 224.474865 
L 80.391405 242.514808 
L 83.670744 246.453445 
L 86.950083 248.22073 
L 90.229421 249.151934 
L 93.50876 249.67844 
L 96.788099 249.985357 
L 100.067438 250.168819 
L 103.346777 250.279607 
L 106.626116 250.346478 
L 109.905455 250.387199 
L 113.184793 250.411928 
L 116.464132 250.426826 
L 119.743471 250.435614 
L 123.02281 250.440828 
L 126.302149 250.379724 
L 129.581488 250.372145 
L 132.860826 250.363502 
L 136.140165 250.353762 
L 139.419504 250.342552 
L 142.698843 250.329222 
L 145.978182 250.312838 
L 149.257521 250.29208 
L 152.53686 250.265097 
L 155.816198 250.22937 
L 159.095537 250.181367 
L 162.374876 250.116344 
L 165.654215 250.028022 
L 168.933554 249.907724 
L 172.212893 249.744437 
L 175.492231 246.550058 
L 178.77157 242.745339 
L 182.050909 238.786616 
L 185.330248 234.105267 
L 188.609587 228.889278 
L 191.888926 224.0302 
L 195.168264 220.10275 
L 198.447603 217.160715 
L 201.726942 215.022416 
L 205.006281 213.476227 
L 208.28562 212.35139 
L 211.564959 211.531089 
L 214.844298 210.925426 
L 218.123636 210.472434 
L 221.402975 210.132127 
L 224.682314 209.875064 
L 227.961653 209.677312 
L 231.240992 209.523655 
L 234.520331 209.404589 
L 237.799669 209.311163 
L 241.079008 209.236628 
L 244.358347 209.1767 
L 247.637686 209.128182 
L 250.917025 209.088909 
L 254.196364 209.057003 
L 257.475702 209.030168 
L 260.755041 209.007713 
L 264.03438 208.988761 
L 267.313719 208.972711 
L 270.593058 208.959144 
L 273.872397 208.870967 
L 277.151736 208.790837 
L 280.431074 208.762461 
L 283.710413 208.749751 
L 286.989752 208.742704 
L 290.269091 208.738461 
L 293.54843 208.735803 
L 296.827769 208.734094 
L 300.107107 208.732961 
L 303.386446 208.732221 
L 306.665785 208.731722 
L 309.945124 208.731374 
L 313.224463 208.731127 
L 316.503802 208.73096 
L 319.78314 208.730848 
L 323.062479 208.730767 
L 326.341818 208.730704 
L 329.621157 208.730652 
L 332.900496 208.730611 
L 336.179835 208.730578 
L 339.459174 208.730553 
L 342.738512 208.730535 
L 346.017851 208.730517 
L 349.29719 208.730505 
L 352.576529 208.730494 
L 355.855868 208.730488 
L 359.135207 208.730485 
L 362.414545 208.730484 
L 365.693884 208.730485 
L 368.973223 208.730486 
L 372.252562 208.730487 
L 375.531901 208.73049 
L 378.81124 208.730494 
L 382.090579 208.730497 
L 385.369917 208.730499 
L 388.649256 208.730501 
L 391.928595 208.730502 
L 395.207934 208.730502 
L 398.487273 208.730501 
" clip-path="url(#p8c7d8bb519)" style="fill: none; stroke: #ff7f0e; stroke-width: 1.5; stroke-linecap: square"/>
   </g>
   <g id="patch_21">
    <path d="M 57.6 252.526345 
L 57.6 206.644966 
" style="fill: none; stroke: #000000; stroke-width: 0.8; stroke-linejoin: miter; stroke-linecap: square"/>
   </g>
   <g id="patch_22">
    <path d="M 414.72 252.526345 
L 414.72 206.644966 
" style="fill: none; stroke: #000000; stroke-width: 0.8; stroke-linejoin: miter; stroke-linecap: square"/>
   </g>
   <g id="patch_23">
    <path d="M 57.6 252.526345 
L 414.72 252.526345 
" style="fill: none; stroke: #000000; stroke-width: 0.8; stroke-linejoin: miter; stroke-linecap: square"/>
   </g>
   <g id="patch_24">
    <path d="M 57.6 206.644966 
L 414.72 206.644966 
" style="fill: none; stroke: #000000; stroke-width: 0.8; stroke-linejoin: miter; stroke-linecap: square"/>
   </g>
   <g id="text_24">
    <!-- yB -->
    <g transform="translate(228.492188 200.644966)scale(0.12 -0.12)">
     <defs>
      <path id="DejaVuSans-42" d="M 1259 2228 
L 1259 519 
L 2272 519 
Q 2781 519 3026 730 
Q 3272 941 3272 1375 
Q 3272 1813 3026 2020 
Q 2781 2228 2272 2228 
L 1259 2228 
z
M 1259 4147 
L 1259 2741 
L 2194 2741 
Q 2656 2741 2882 2914 
Q 3109 3088 3109 3444 
Q 3109 3797 2882 3972 
Q 2656 4147 2194 4147 
L 1259 4147 
z
M 628 4666 
L 2241 4666 
Q 2963 4666 3353 4366 
Q 3744 4066 3744 3513 
Q 3744 3084 3544 2831 
Q 3344 2578 2956 2516 
Q 3422 2416 3680 2098 
Q 3938 1781 3938 1306 
Q 3938 681 3513 340 
Q 3088 0 2303 0 
L 628 0 
L 628 4666 
z
" transform="scale(0.015625)"/>
     </defs>
     <use xlink:href="#DejaVuSans-79"/>
     <use xlink:href="#DejaVuSans-42" x="59.179688"/>
    </g>
   </g>
   <g id="legend_4">
    <g id="patch_25">
     <path d="M 330.010625 244.001216 
L 407.72 244.001216 
Q 409.72 244.001216 409.72 242.001216 
L 409.72 213.644966 
Q 409.72 211.644966 407.72 211.644966 
L 330.010625 211.644966 
Q 328.010625 211.644966 328.010625 213.644966 
L 328.010625 242.001216 
Q 328.010625 244.001216 330.010625 244.001216 
z
" style="fill: #ffffff; opacity: 0.8; stroke: #cccccc; stroke-linejoin: miter"/>
    </g>
    <g id="line2d_52">
     <path d="M 332.010625 219.743403 
L 342.010625 219.743403 
L 352.010625 219.743403 
" style="fill: none; stroke: #1f77b4; stroke-width: 1.5; stroke-linecap: square"/>
    </g>
    <g id="text_25">
     <!-- yB0 (in) -->
     <g transform="translate(360.010625 223.243403)scale(0.1 -0.1)">
      <use xlink:href="#DejaVuSans-79"/>
      <use xlink:href="#DejaVuSans-42" x="59.179688"/>
      <use xlink:href="#DejaVuSans-30" x="127.783203"/>
      <use xlink:href="#DejaVuSans-20" x="191.40625"/>
      <use xlink:href="#DejaVuSans-28" x="223.193359"/>
      <use xlink:href="#DejaVuSans-69" x="262.207031"/>
      <use xlink:href="#DejaVuSans-6e" x="289.990234"/>
      <use xlink:href="#DejaVuSans-29" x="353.369141"/>
     </g>
    </g>
    <g id="line2d_53">
     <path d="M 332.010625 234.421528 
L 342.010625 234.421528 
L 352.010625 234.421528 
" style="fill: none; stroke: #ff7f0e; stroke-width: 1.5; stroke-linecap: square"/>
    </g>
    <g id="text_26">
     <!-- yBL (out) -->
     <g transform="translate(360.010625 237.921528)scale(0.1 -0.1)">
      <use xlink:href="#DejaVuSans-79"/>
      <use xlink:href="#DejaVuSans-42" x="59.179688"/>
      <use xlink:href="#DejaVuSans-4c" x="127.783203"/>
      <use xlink:href="#DejaVuSans-20" x="183.496094"/>
      <use xlink:href="#DejaVuSans-28" x="215.283203"/>
      <use xlink:href="#DejaVuSans-6f" x="254.296875"/>
      <use xlink:href="#DejaVuSans-75" x="315.478516"/>
      <use xlink:href="#DejaVuSans-74" x="378.857422"/>
      <use xlink:href="#DejaVuSans-29" x="418.066406"/>
     </g>
    </g>
   </g>
  </g>
  <g id="axes_5">
   <g id="patch_26">
    <path d="M 57.6 307.584 
L 414.72 307.584 
L 414.72 261.702621 
L 57.6 261.702621 
z
" style="fill: #ffffff"/>
   </g>
   <g id="matplotlib.axis_9">
    <g id="xtick_25">
     <g id="line2d_54">
      <g>
       <use xlink:href="#m571b22c5d6" x="73.832727" y="307.584" style="stroke: #000000; stroke-width: 0.8"/>
      </g>
     </g>
     <g id="text_27">
      <!-- 0 -->
      <g transform="translate(70.651477 322.182437)scale(0.1 -0.1)">
       <use xlink:href="#DejaVuSans-30"/>
      </g>
     </g>
    </g>
    <g id="xtick_26">
     <g id="line2d_55">
      <g>
       <use xlink:href="#m571b22c5d6" x="139.419504" y="307.584" style="stroke: #000000; stroke-width: 0.8"/>
      </g>
     </g>
     <g id="text_28">
      <!-- 20 -->
      <g transform="translate(133.057004 322.182437)scale(0.1 -0.1)">
       <use xlink:href="#DejaVuSans-32"/>
       <use xlink:href="#DejaVuSans-30" x="63.623047"/>
      </g>
     </g>
    </g>
    <g id="xtick_27">
     <g id="line2d_56">
      <g>
       <use xlink:href="#m571b22c5d6" x="205.006281" y="307.584" style="stroke: #000000; stroke-width: 0.8"/>
      </g>
     </g>
     <g id="text_29">
      <!-- 40 -->
      <g transform="translate(198.643781 322.182437)scale(0.1 -0.1)">
       <defs>
        <path id="DejaVuSans-34" d="M 2419 4116 
L 825 1625 
L 2419 1625 
L 2419 4116 
z
M 2253 4666 
L 3047 4666 
L 3047 1625 
L 3713 1625 
L 3713 1100 
L 3047 1100 
L 3047 0 
L 2419 0 
L 2419 1100 
L 313 1100 
L 313 1709 
L 2253 4666 
z
" transform="scale(0.015625)"/>
       </defs>
       <use xlink:href="#DejaVuSans-34"/>
       <use xlink:href="#DejaVuSans-30" x="63.623047"/>
      </g>
     </g>
    </g>
    <g id="xtick_28">
     <g id="line2d_57">
      <g>
       <use xlink:href="#m571b22c5d6" x="270.593058" y="307.584" style="stroke: #000000; stroke-width: 0.8"/>
      </g>
     </g>
     <g id="text_30">
      <!-- 60 -->
      <g transform="translate(264.230558 322.182437)scale(0.1 -0.1)">
       <defs>
        <path id="DejaVuSans-36" d="M 2113 2584 
Q 1688 2584 1439 2293 
Q 1191 2003 1191 1497 
Q 1191 994 1439 701 
Q 1688 409 2113 409 
Q 2538 409 2786 701 
Q 3034 994 3034 1497 
Q 3034 2003 2786 2293 
Q 2538 2584 2113 2584 
z
M 3366 4563 
L 3366 3988 
Q 3128 4100 2886 4159 
Q 2644 4219 2406 4219 
Q 1781 4219 1451 3797 
Q 1122 3375 1075 2522 
Q 1259 2794 1537 2939 
Q 1816 3084 2150 3084 
Q 2853 3084 3261 2657 
Q 3669 2231 3669 1497 
Q 3669 778 3244 343 
Q 2819 -91 2113 -91 
Q 1303 -91 875 529 
Q 447 1150 447 2328 
Q 447 3434 972 4092 
Q 1497 4750 2381 4750 
Q 2619 4750 2861 4703 
Q 3103 4656 3366 4563 
z
" transform="scale(0.015625)"/>
       </defs>
       <use xlink:href="#DejaVuSans-36"/>
       <use xlink:href="#DejaVuSans-30" x="63.623047"/>
      </g>
     </g>
    </g>
    <g id="xtick_29">
     <g id="line2d_58">
      <g>
       <use xlink:href="#m571b22c5d6" x="336.179835" y="307.584" style="stroke: #000000; stroke-width: 0.8"/>
      </g>
     </g>
     <g id="text_31">
      <!-- 80 -->
      <g transform="translate(329.817335 322.182437)scale(0.1 -0.1)">
       <defs>
        <path id="DejaVuSans-38" d="M 2034 2216 
Q 1584 2216 1326 1975 
Q 1069 1734 1069 1313 
Q 1069 891 1326 650 
Q 1584 409 2034 409 
Q 2484 409 2743 651 
Q 3003 894 3003 1313 
Q 3003 1734 2745 1975 
Q 2488 2216 2034 2216 
z
M 1403 2484 
Q 997 2584 770 2862 
Q 544 3141 544 3541 
Q 544 4100 942 4425 
Q 1341 4750 2034 4750 
Q 2731 4750 3128 4425 
Q 3525 4100 3525 3541 
Q 3525 3141 3298 2862 
Q 3072 2584 2669 2484 
Q 3125 2378 3379 2068 
Q 3634 1759 3634 1313 
Q 3634 634 3220 271 
Q 2806 -91 2034 -91 
Q 1263 -91 848 271 
Q 434 634 434 1313 
Q 434 1759 690 2068 
Q 947 2378 1403 2484 
z
M 1172 3481 
Q 1172 3119 1398 2916 
Q 1625 2713 2034 2713 
Q 2441 2713 2670 2916 
Q 2900 3119 2900 3481 
Q 2900 3844 2670 4047 
Q 2441 4250 2034 4250 
Q 1625 4250 1398 4047 
Q 1172 3844 1172 3481 
z
" transform="scale(0.015625)"/>
       </defs>
       <use xlink:href="#DejaVuSans-38"/>
       <use xlink:href="#DejaVuSans-30" x="63.623047"/>
      </g>
     </g>
    </g>
    <g id="xtick_30">
     <g id="line2d_59">
      <g>
       <use xlink:href="#m571b22c5d6" x="401.766612" y="307.584" style="stroke: #000000; stroke-width: 0.8"/>
      </g>
     </g>
     <g id="text_32">
      <!-- 100 -->
      <g transform="translate(392.222862 322.182437)scale(0.1 -0.1)">
       <use xlink:href="#DejaVuSans-31"/>
       <use xlink:href="#DejaVuSans-30" x="63.623047"/>
       <use xlink:href="#DejaVuSans-30" x="127.246094"/>
      </g>
     </g>
    </g>
    <g id="text_33">
     <!-- time (normalized) -->
     <g transform="translate(191.589687 335.860562)scale(0.1 -0.1)">
      <use xlink:href="#DejaVuSans-74"/>
      <use xlink:href="#DejaVuSans-69" x="39.208984"/>
      <use xlink:href="#DejaVuSans-6d" x="66.992188"/>
      <use xlink:href="#DejaVuSans-65" x="164.404297"/>
      <use xlink:href="#DejaVuSans-20" x="225.927734"/>
      <use xlink:href="#DejaVuSans-28" x="257.714844"/>
      <use xlink:href="#DejaVuSans-6e" x="296.728516"/>
      <use xlink:href="#DejaVuSans-6f" x="360.107422"/>
      <use xlink:href="#DejaVuSans-72" x="421.289062"/>
      <use xlink:href="#DejaVuSans-6d" x="460.652344"/>
      <use xlink:href="#DejaVuSans-61" x="558.064453"/>
      <use xlink:href="#DejaVuSans-6c" x="619.34375"/>
      <use xlink:href="#DejaVuSans-69" x="647.126953"/>
      <use xlink:href="#DejaVuSans-7a" x="674.910156"/>
      <use xlink:href="#DejaVuSans-65" x="727.400391"/>
      <use xlink:href="#DejaVuSans-64" x="788.923828"/>
      <use xlink:href="#DejaVuSans-29" x="852.400391"/>
     </g>
    </g>
   </g>
   <g id="matplotlib.axis_10">
    <g id="ytick_10">
     <g id="line2d_60">
      <g>
       <use xlink:href="#mccffa79937" x="57.6" y="305.498497" style="stroke: #000000; stroke-width: 0.8"/>
      </g>
     </g>
     <g id="text_34">
      <!-- 0.0 -->
      <g transform="translate(34.696875 309.297716)scale(0.1 -0.1)">
       <use xlink:href="#DejaVuSans-30"/>
       <use xlink:href="#DejaVuSans-2e" x="63.623047"/>
       <use xlink:href="#DejaVuSans-30" x="95.410156"/>
      </g>
     </g>
    </g>
    <g id="ytick_11">
     <g id="line2d_61">
      <g>
       <use xlink:href="#mccffa79937" x="57.6" y="282.436965" style="stroke: #000000; stroke-width: 0.8"/>
      </g>
     </g>
     <g id="text_35">
      <!-- 0.2 -->
      <g transform="translate(34.696875 286.236184)scale(0.1 -0.1)">
       <use xlink:href="#DejaVuSans-30"/>
       <use xlink:href="#DejaVuSans-2e" x="63.623047"/>
       <use xlink:href="#DejaVuSans-32" x="95.410156"/>
      </g>
     </g>
    </g>
    <g id="text_36">
     <!-- fraction -->
     <g transform="translate(28.617187 303.84956)rotate(-90)scale(0.1 -0.1)">
      <use xlink:href="#DejaVuSans-66"/>
      <use xlink:href="#DejaVuSans-72" x="35.205078"/>
      <use xlink:href="#DejaVuSans-61" x="76.318359"/>
      <use xlink:href="#DejaVuSans-63" x="137.597656"/>
      <use xlink:href="#DejaVuSans-74" x="192.578125"/>
      <use xlink:href="#DejaVuSans-69" x="231.787109"/>
      <use xlink:href="#DejaVuSans-6f" x="259.570312"/>
      <use xlink:href="#DejaVuSans-6e" x="320.751953"/>
     </g>
    </g>
   </g>
   <g id="line2d_62">
    <path d="M 73.832727 305.388933 
L 77.112066 293.254265 
L 80.391405 292.738497 
L 83.670744 292.248044 
L 86.950083 291.709802 
L 90.229421 291.080292 
L 93.50876 290.338976 
L 96.788099 289.481747 
L 100.067438 288.586232 
L 103.346777 287.758697 
L 106.626116 286.888593 
L 109.905455 286.199504 
L 113.184793 285.657879 
L 116.464132 285.311225 
L 119.743471 285.012693 
L 123.02281 284.78131 
L 126.302149 293.017934 
L 129.581488 293.209337 
L 132.860826 293.35329 
L 136.140165 293.464527 
L 139.419504 293.55245 
L 142.698843 293.622878 
L 145.978182 293.680069 
L 149.257521 293.726947 
L 152.53686 293.765491 
L 155.816198 293.797299 
L 159.095537 293.823609 
L 162.374876 293.845422 
L 165.654215 293.863563 
L 168.933554 293.878643 
L 172.212893 293.891172 
L 175.492231 297.928838 
L 178.77157 301.536503 
L 182.050909 303.318843 
L 185.330248 304.181257 
L 188.609587 304.646327 
L 191.888926 304.922431 
L 195.168264 305.096458 
L 198.447603 305.210524 
L 201.726942 305.287402 
L 205.006281 305.340441 
L 208.28562 305.377768 
L 211.564959 305.40434 
L 214.844298 305.423538 
L 218.123636 305.437571 
L 221.402975 305.448004 
L 224.682314 305.455864 
L 227.961653 305.461843 
L 231.240992 305.46645 
L 234.520331 305.470043 
L 237.799669 305.472873 
L 241.079008 305.475121 
L 244.358347 305.476921 
L 247.637686 305.478374 
L 250.917025 305.479554 
L 254.196364 305.480511 
L 257.475702 305.481304 
L 260.755041 305.481962 
L 264.03438 305.482509 
L 267.313719 305.482964 
L 270.593058 305.483338 
L 273.872397 305.486041 
L 277.151736 305.486572 
L 280.431074 305.491488 
L 283.710413 305.493897 
L 286.989752 305.495315 
L 290.269091 305.496237 
L 293.54843 305.496861 
L 296.827769 305.497294 
L 300.107107 305.497601 
L 303.386446 305.49782 
L 306.665785 305.497977 
L 309.945124 305.498093 
L 313.224463 305.498181 
L 316.503802 305.498245 
L 319.78314 305.498293 
L 323.062479 305.498329 
L 326.341818 305.498357 
L 329.621157 305.498379 
L 332.900496 305.498398 
L 336.179835 305.498413 
L 339.459174 305.498426 
L 342.738512 305.498437 
L 346.017851 305.498447 
L 349.29719 305.498456 
L 352.576529 305.498464 
L 355.855868 305.49847 
L 359.135207 305.498475 
L 362.414545 305.498478 
L 365.693884 305.498481 
L 368.973223 305.498482 
L 372.252562 305.498483 
L 375.531901 305.498483 
L 378.81124 305.498482 
L 382.090579 305.498482 
L 385.369917 305.498482 
L 388.649256 305.498481 
L 391.928595 305.498481 
L 395.207934 305.49848 
L 398.487273 305.49848 
" clip-path="url(#pcdb257547c)" style="fill: none; stroke: #1f77b4; stroke-width: 1.5; stroke-linecap: square"/>
   </g>
   <g id="line2d_63">
    <path d="M 73.832727 303.240887 
L 77.112066 289.7541 
L 80.391405 271.714158 
L 83.670744 267.77552 
L 86.950083 266.008236 
L 90.229421 265.077032 
L 93.50876 264.550526 
L 96.788099 264.243608 
L 100.067438 264.060147 
L 103.346777 263.949358 
L 106.626116 263.882487 
L 109.905455 263.841766 
L 113.184793 263.817038 
L 116.464132 263.802139 
L 119.743471 263.793351 
L 123.02281 263.788138 
L 126.302149 263.849241 
L 129.581488 263.856821 
L 132.860826 263.865463 
L 136.140165 263.875204 
L 139.419504 263.886413 
L 142.698843 263.899743 
L 145.978182 263.916128 
L 149.257521 263.936886 
L 152.53686 263.963869 
L 155.816198 263.999596 
L 159.095537 264.047598 
L 162.374876 264.112622 
L 165.654215 264.200943 
L 168.933554 264.321242 
L 172.212893 264.484529 
L 175.492231 267.678907 
L 178.77157 271.483627 
L 182.050909 275.442349 
L 185.330248 280.123698 
L 188.609587 285.339687 
L 191.888926 290.198765 
L 195.168264 294.126216 
L 198.447603 297.068251 
L 201.726942 299.20655 
L 205.006281 300.752739 
L 208.28562 301.877576 
L 211.564959 302.697876 
L 214.844298 303.303539 
L 218.123636 303.756532 
L 221.402975 304.096839 
L 224.682314 304.353901 
L 227.961653 304.551654 
L 231.240992 304.70531 
L 234.520331 304.824376 
L 237.799669 304.917803 
L 241.079008 304.992338 
L 244.358347 305.052265 
L 247.637686 305.100784 
L 250.917025 305.140056 
L 254.196364 305.171962 
L 257.475702 305.198797 
L 260.755041 305.221252 
L 264.03438 305.240205 
L 267.313719 305.256254 
L 270.593058 305.269822 
L 273.872397 305.357998 
L 277.151736 305.438128 
L 280.431074 305.466505 
L 283.710413 305.479215 
L 286.989752 305.486261 
L 290.269091 305.490505 
L 293.54843 305.493162 
L 296.827769 305.494872 
L 300.107107 305.496004 
L 303.386446 305.496745 
L 306.665785 305.497243 
L 309.945124 305.497591 
L 313.224463 305.497839 
L 316.503802 305.498005 
L 319.78314 305.498117 
L 323.062479 305.498198 
L 326.341818 305.498261 
L 329.621157 305.498313 
L 332.900496 305.498354 
L 336.179835 305.498387 
L 339.459174 305.498412 
L 342.738512 305.49843 
L 346.017851 305.498449 
L 349.29719 305.49846 
L 352.576529 305.498471 
L 355.855868 305.498477 
L 359.135207 305.49848 
L 362.414545 305.498481 
L 365.693884 305.49848 
L 368.973223 305.498479 
L 372.252562 305.498479 
L 375.531901 305.498475 
L 378.81124 305.498471 
L 382.090579 305.498469 
L 385.369917 305.498467 
L 388.649256 305.498464 
L 391.928595 305.498463 
L 395.207934 305.498464 
L 398.487273 305.498465 
" clip-path="url(#pcdb257547c)" style="fill: none; stroke: #ff7f0e; stroke-width: 1.5; stroke-linecap: square"/>
   </g>
   <g id="patch_27">
    <path d="M 57.6 307.584 
L 57.6 261.702621 
" style="fill: none; stroke: #000000; stroke-width: 0.8; stroke-linejoin: miter; stroke-linecap: square"/>
   </g>
   <g id="patch_28">
    <path d="M 414.72 307.584 
L 414.72 261.702621 
" style="fill: none; stroke: #000000; stroke-width: 0.8; stroke-linejoin: miter; stroke-linecap: square"/>
   </g>
   <g id="patch_29">
    <path d="M 57.6 307.584 
L 414.72 307.584 
" style="fill: none; stroke: #000000; stroke-width: 0.8; stroke-linejoin: miter; stroke-linecap: square"/>
   </g>
   <g id="patch_30">
    <path d="M 57.6 261.702621 
L 414.72 261.702621 
" style="fill: none; stroke: #000000; stroke-width: 0.8; stroke-linejoin: miter; stroke-linecap: square"/>
   </g>
   <g id="text_37">
    <!-- yC -->
    <g transform="translate(228.419062 255.702621)scale(0.12 -0.12)">
     <defs>
      <path id="DejaVuSans-43" d="M 4122 4306 
L 4122 3641 
Q 3803 3938 3442 4084 
Q 3081 4231 2675 4231 
Q 1875 4231 1450 3742 
Q 1025 3253 1025 2328 
Q 1025 1406 1450 917 
Q 1875 428 2675 428 
Q 3081 428 3442 575 
Q 3803 722 4122 1019 
L 4122 359 
Q 3791 134 3420 21 
Q 3050 -91 2638 -91 
Q 1578 -91 968 557 
Q 359 1206 359 2328 
Q 359 3453 968 4101 
Q 1578 4750 2638 4750 
Q 3056 4750 3426 4639 
Q 3797 4528 4122 4306 
z
" transform="scale(0.015625)"/>
     </defs>
     <use xlink:href="#DejaVuSans-79"/>
     <use xlink:href="#DejaVuSans-43" x="59.179688"/>
    </g>
   </g>
   <g id="legend_5">
    <g id="patch_31">
     <path d="M 329.88875 299.058871 
L 407.72 299.058871 
Q 409.72 299.058871 409.72 297.058871 
L 409.72 268.702621 
Q 409.72 266.702621 407.72 266.702621 
L 329.88875 266.702621 
Q 327.88875 266.702621 327.88875 268.702621 
L 327.88875 297.058871 
Q 327.88875 299.058871 329.88875 299.058871 
z
" style="fill: #ffffff; opacity: 0.8; stroke: #cccccc; stroke-linejoin: miter"/>
    </g>
    <g id="line2d_64">
     <path d="M 331.88875 274.801058 
L 341.88875 274.801058 
L 351.88875 274.801058 
" style="fill: none; stroke: #1f77b4; stroke-width: 1.5; stroke-linecap: square"/>
    </g>
    <g id="text_38">
     <!-- yC0 (in) -->
     <g transform="translate(359.88875 278.301058)scale(0.1 -0.1)">
      <use xlink:href="#DejaVuSans-79"/>
      <use xlink:href="#DejaVuSans-43" x="59.179688"/>
      <use xlink:href="#DejaVuSans-30" x="129.003906"/>
      <use xlink:href="#DejaVuSans-20" x="192.626953"/>
      <use xlink:href="#DejaVuSans-28" x="224.414062"/>
      <use xlink:href="#DejaVuSans-69" x="263.427734"/>
      <use xlink:href="#DejaVuSans-6e" x="291.210938"/>
      <use xlink:href="#DejaVuSans-29" x="354.589844"/>
     </g>
    </g>
    <g id="line2d_65">
     <path d="M 331.88875 289.479183 
L 341.88875 289.479183 
L 351.88875 289.479183 
" style="fill: none; stroke: #ff7f0e; stroke-width: 1.5; stroke-linecap: square"/>
    </g>
    <g id="text_39">
     <!-- yCL (out) -->
     <g transform="translate(359.88875 292.979183)scale(0.1 -0.1)">
      <use xlink:href="#DejaVuSans-79"/>
      <use xlink:href="#DejaVuSans-43" x="59.179688"/>
      <use xlink:href="#DejaVuSans-4c" x="129.003906"/>
      <use xlink:href="#DejaVuSans-20" x="184.716797"/>
      <use xlink:href="#DejaVuSans-28" x="216.503906"/>
      <use xlink:href="#DejaVuSans-6f" x="255.517578"/>
      <use xlink:href="#DejaVuSans-75" x="316.699219"/>
      <use xlink:href="#DejaVuSans-74" x="380.078125"/>
      <use xlink:href="#DejaVuSans-29" x="419.287109"/>
     </g>
    </g>
   </g>
  </g>
 </g>
 <defs>
  <clipPath id="p2b2a0a68f0">
   <rect x="57.6" y="41.472" width="357.12" height="45.881379"/>
  </clipPath>
  <clipPath id="pac51290979">
   <rect x="57.6" y="96.529655" width="357.12" height="45.881379"/>
  </clipPath>
  <clipPath id="pd4898fb67b">
   <rect x="57.6" y="151.58731" width="357.12" height="45.881379"/>
  </clipPath>
  <clipPath id="p8c7d8bb519">
   <rect x="57.6" y="206.644966" width="357.12" height="45.881379"/>
  </clipPath>
  <clipPath id="pcdb257547c">
   <rect x="57.6" y="261.702621" width="357.12" height="45.881379"/>
  </clipPath>
 </defs>
</svg>
