<?xml version="1.0" encoding="utf-8" standalone="no"?>
<!DOCTYPE svg PUBLIC "-//W3C//DTD SVG 1.1//EN"
  "http://www.w3.org/Graphics/SVG/1.1/DTD/svg11.dtd">
<svg xmlns:xlink="http://www.w3.org/1999/xlink" width="460.8pt" height="345.6pt" viewBox="0 0 460.8 345.6" xmlns="http://www.w3.org/2000/svg" version="1.1">
 <metadata>
  <rdf:RDF xmlns:dc="http://purl.org/dc/elements/1.1/" xmlns:cc="http://creativecommons.org/ns#" xmlns:rdf="http://www.w3.org/1999/02/22-rdf-syntax-ns#">
   <cc:Work>
    <dc:type rdf:resource="http://purl.org/dc/dcmitype/StillImage"/>
    <dc:date>2022-07-10T00:04:53.436738</dc:date>
    <dc:format>image/svg+xml</dc:format>
    <dc:creator>
     <cc:Agent>
      <dc:title>Matplotlib v3.5.2, https://matplotlib.org/</dc:title>
     </cc:Agent>
    </dc:creator>
   </cc:Work>
  </rdf:RDF>
 </metadata>
 <defs>
  <style type="text/css">*{stroke-linejoin: round; stroke-linecap: butt}</style>
 </defs>
 <g id="figure_1">
  <g id="patch_1">
   <path d="M 0 345.6 
L 460.8 345.6 
L 460.8 0 
L 0 0 
z
" style="fill: #ffffff"/>
  </g>
  <g id="axes_1">
   <g id="patch_2">
    <path d="M 57.6 87.353379 
L 414.72 87.353379 
L 414.72 41.472 
L 57.6 41.472 
z
" style="fill: #ffffff"/>
   </g>
   <g id="matplotlib.axis_1">
    <g id="xtick_1">
     <g id="line2d_1">
      <defs>
       <path id="m8b95c0c034" d="M 0 0 
L 0 3.5 
" style="stroke: #000000; stroke-width: 0.8"/>
      </defs>
      <g>
       <use xlink:href="#m8b95c0c034" x="73.832727" y="87.353379" style="stroke: #000000; stroke-width: 0.8"/>
      </g>
     </g>
    </g>
    <g id="xtick_2">
     <g id="line2d_2">
      <g>
       <use xlink:href="#m8b95c0c034" x="138.763636" y="87.353379" style="stroke: #000000; stroke-width: 0.8"/>
      </g>
     </g>
    </g>
    <g id="xtick_3">
     <g id="line2d_3">
      <g>
       <use xlink:href="#m8b95c0c034" x="203.694545" y="87.353379" style="stroke: #000000; stroke-width: 0.8"/>
      </g>
     </g>
    </g>
    <g id="xtick_4">
     <g id="line2d_4">
      <g>
       <use xlink:href="#m8b95c0c034" x="268.625455" y="87.353379" style="stroke: #000000; stroke-width: 0.8"/>
      </g>
     </g>
    </g>
    <g id="xtick_5">
     <g id="line2d_5">
      <g>
       <use xlink:href="#m8b95c0c034" x="333.556364" y="87.353379" style="stroke: #000000; stroke-width: 0.8"/>
      </g>
     </g>
    </g>
    <g id="xtick_6">
     <g id="line2d_6">
      <g>
       <use xlink:href="#m8b95c0c034" x="398.487273" y="87.353379" style="stroke: #000000; stroke-width: 0.8"/>
      </g>
     </g>
    </g>
   </g>
   <g id="matplotlib.axis_2">
    <g id="ytick_1">
     <g id="line2d_7">
      <defs>
       <path id="m74b3c2973e" d="M 0 0 
L -3.5 0 
" style="stroke: #000000; stroke-width: 0.8"/>
      </defs>
      <g>
       <use xlink:href="#m74b3c2973e" x="57.6" y="83.711083" style="stroke: #000000; stroke-width: 0.8"/>
      </g>
     </g>
     <g id="text_1">
      <!-- −20 -->
      <g transform="translate(29.495313 87.510302)scale(0.1 -0.1)">
       <defs>
        <path id="DejaVuSans-2212" d="M 678 2272 
L 4684 2272 
L 4684 1741 
L 678 1741 
L 678 2272 
z
" transform="scale(0.015625)"/>
        <path id="DejaVuSans-32" d="M 1228 531 
L 3431 531 
L 3431 0 
L 469 0 
L 469 531 
Q 828 903 1448 1529 
Q 2069 2156 2228 2338 
Q 2531 2678 2651 2914 
Q 2772 3150 2772 3378 
Q 2772 3750 2511 3984 
Q 2250 4219 1831 4219 
Q 1534 4219 1204 4116 
Q 875 4013 500 3803 
L 500 4441 
Q 881 4594 1212 4672 
Q 1544 4750 1819 4750 
Q 2544 4750 2975 4387 
Q 3406 4025 3406 3419 
Q 3406 3131 3298 2873 
Q 3191 2616 2906 2266 
Q 2828 2175 2409 1742 
Q 1991 1309 1228 531 
z
" transform="scale(0.015625)"/>
        <path id="DejaVuSans-30" d="M 2034 4250 
Q 1547 4250 1301 3770 
Q 1056 3291 1056 2328 
Q 1056 1369 1301 889 
Q 1547 409 2034 409 
Q 2525 409 2770 889 
Q 3016 1369 3016 2328 
Q 3016 3291 2770 3770 
Q 2525 4250 2034 4250 
z
M 2034 4750 
Q 2819 4750 3233 4129 
Q 3647 3509 3647 2328 
Q 3647 1150 3233 529 
Q 2819 -91 2034 -91 
Q 1250 -91 836 529 
Q 422 1150 422 2328 
Q 422 3509 836 4129 
Q 1250 4750 2034 4750 
z
" transform="scale(0.015625)"/>
       </defs>
       <use xlink:href="#DejaVuSans-2212"/>
       <use xlink:href="#DejaVuSans-32" x="83.789062"/>
       <use xlink:href="#DejaVuSans-30" x="147.412109"/>
      </g>
     </g>
    </g>
    <g id="ytick_2">
     <g id="line2d_8">
      <g>
       <use xlink:href="#m74b3c2973e" x="57.6" y="64.575368" style="stroke: #000000; stroke-width: 0.8"/>
      </g>
     </g>
     <g id="text_2">
      <!-- 0 -->
      <g transform="translate(44.2375 68.374587)scale(0.1 -0.1)">
       <use xlink:href="#DejaVuSans-30"/>
      </g>
     </g>
    </g>
    <g id="ytick_3">
     <g id="line2d_9">
      <g>
       <use xlink:href="#m74b3c2973e" x="57.6" y="45.439653" style="stroke: #000000; stroke-width: 0.8"/>
      </g>
     </g>
     <g id="text_3">
      <!-- 20 -->
      <g transform="translate(37.875 49.238872)scale(0.1 -0.1)">
       <use xlink:href="#DejaVuSans-32"/>
       <use xlink:href="#DejaVuSans-30" x="63.623047"/>
      </g>
     </g>
    </g>
    <g id="text_4">
     <!-- flow rate (normalized) -->
     <g transform="translate(23.415625 119.729877)rotate(-90)scale(0.1 -0.1)">
      <defs>
       <path id="DejaVuSans-66" d="M 2375 4863 
L 2375 4384 
L 1825 4384 
Q 1516 4384 1395 4259 
Q 1275 4134 1275 3809 
L 1275 3500 
L 2222 3500 
L 2222 3053 
L 1275 3053 
L 1275 0 
L 697 0 
L 697 3053 
L 147 3053 
L 147 3500 
L 697 3500 
L 697 3744 
Q 697 4328 969 4595 
Q 1241 4863 1831 4863 
L 2375 4863 
z
" transform="scale(0.015625)"/>
       <path id="DejaVuSans-6c" d="M 603 4863 
L 1178 4863 
L 1178 0 
L 603 0 
L 603 4863 
z
" transform="scale(0.015625)"/>
       <path id="DejaVuSans-6f" d="M 1959 3097 
Q 1497 3097 1228 2736 
Q 959 2375 959 1747 
Q 959 1119 1226 758 
Q 1494 397 1959 397 
Q 2419 397 2687 759 
Q 2956 1122 2956 1747 
Q 2956 2369 2687 2733 
Q 2419 3097 1959 3097 
z
M 1959 3584 
Q 2709 3584 3137 3096 
Q 3566 2609 3566 1747 
Q 3566 888 3137 398 
Q 2709 -91 1959 -91 
Q 1206 -91 779 398 
Q 353 888 353 1747 
Q 353 2609 779 3096 
Q 1206 3584 1959 3584 
z
" transform="scale(0.015625)"/>
       <path id="DejaVuSans-77" d="M 269 3500 
L 844 3500 
L 1563 769 
L 2278 3500 
L 2956 3500 
L 3675 769 
L 4391 3500 
L 4966 3500 
L 4050 0 
L 3372 0 
L 2619 2869 
L 1863 0 
L 1184 0 
L 269 3500 
z
" transform="scale(0.015625)"/>
       <path id="DejaVuSans-20" transform="scale(0.015625)"/>
       <path id="DejaVuSans-72" d="M 2631 2963 
Q 2534 3019 2420 3045 
Q 2306 3072 2169 3072 
Q 1681 3072 1420 2755 
Q 1159 2438 1159 1844 
L 1159 0 
L 581 0 
L 581 3500 
L 1159 3500 
L 1159 2956 
Q 1341 3275 1631 3429 
Q 1922 3584 2338 3584 
Q 2397 3584 2469 3576 
Q 2541 3569 2628 3553 
L 2631 2963 
z
" transform="scale(0.015625)"/>
       <path id="DejaVuSans-61" d="M 2194 1759 
Q 1497 1759 1228 1600 
Q 959 1441 959 1056 
Q 959 750 1161 570 
Q 1363 391 1709 391 
Q 2188 391 2477 730 
Q 2766 1069 2766 1631 
L 2766 1759 
L 2194 1759 
z
M 3341 1997 
L 3341 0 
L 2766 0 
L 2766 531 
Q 2569 213 2275 61 
Q 1981 -91 1556 -91 
Q 1019 -91 701 211 
Q 384 513 384 1019 
Q 384 1609 779 1909 
Q 1175 2209 1959 2209 
L 2766 2209 
L 2766 2266 
Q 2766 2663 2505 2880 
Q 2244 3097 1772 3097 
Q 1472 3097 1187 3025 
Q 903 2953 641 2809 
L 641 3341 
Q 956 3463 1253 3523 
Q 1550 3584 1831 3584 
Q 2591 3584 2966 3190 
Q 3341 2797 3341 1997 
z
" transform="scale(0.015625)"/>
       <path id="DejaVuSans-74" d="M 1172 4494 
L 1172 3500 
L 2356 3500 
L 2356 3053 
L 1172 3053 
L 1172 1153 
Q 1172 725 1289 603 
Q 1406 481 1766 481 
L 2356 481 
L 2356 0 
L 1766 0 
Q 1100 0 847 248 
Q 594 497 594 1153 
L 594 3053 
L 172 3053 
L 172 3500 
L 594 3500 
L 594 4494 
L 1172 4494 
z
" transform="scale(0.015625)"/>
       <path id="DejaVuSans-65" d="M 3597 1894 
L 3597 1613 
L 953 1613 
Q 991 1019 1311 708 
Q 1631 397 2203 397 
Q 2534 397 2845 478 
Q 3156 559 3463 722 
L 3463 178 
Q 3153 47 2828 -22 
Q 2503 -91 2169 -91 
Q 1331 -91 842 396 
Q 353 884 353 1716 
Q 353 2575 817 3079 
Q 1281 3584 2069 3584 
Q 2775 3584 3186 3129 
Q 3597 2675 3597 1894 
z
M 3022 2063 
Q 3016 2534 2758 2815 
Q 2500 3097 2075 3097 
Q 1594 3097 1305 2825 
Q 1016 2553 972 2059 
L 3022 2063 
z
" transform="scale(0.015625)"/>
       <path id="DejaVuSans-28" d="M 1984 4856 
Q 1566 4138 1362 3434 
Q 1159 2731 1159 2009 
Q 1159 1288 1364 580 
Q 1569 -128 1984 -844 
L 1484 -844 
Q 1016 -109 783 600 
Q 550 1309 550 2009 
Q 550 2706 781 3412 
Q 1013 4119 1484 4856 
L 1984 4856 
z
" transform="scale(0.015625)"/>
       <path id="DejaVuSans-6e" d="M 3513 2113 
L 3513 0 
L 2938 0 
L 2938 2094 
Q 2938 2591 2744 2837 
Q 2550 3084 2163 3084 
Q 1697 3084 1428 2787 
Q 1159 2491 1159 1978 
L 1159 0 
L 581 0 
L 581 3500 
L 1159 3500 
L 1159 2956 
Q 1366 3272 1645 3428 
Q 1925 3584 2291 3584 
Q 2894 3584 3203 3211 
Q 3513 2838 3513 2113 
z
" transform="scale(0.015625)"/>
       <path id="DejaVuSans-6d" d="M 3328 2828 
Q 3544 3216 3844 3400 
Q 4144 3584 4550 3584 
Q 5097 3584 5394 3201 
Q 5691 2819 5691 2113 
L 5691 0 
L 5113 0 
L 5113 2094 
Q 5113 2597 4934 2840 
Q 4756 3084 4391 3084 
Q 3944 3084 3684 2787 
Q 3425 2491 3425 1978 
L 3425 0 
L 2847 0 
L 2847 2094 
Q 2847 2600 2669 2842 
Q 2491 3084 2119 3084 
Q 1678 3084 1418 2786 
Q 1159 2488 1159 1978 
L 1159 0 
L 581 0 
L 581 3500 
L 1159 3500 
L 1159 2956 
Q 1356 3278 1631 3431 
Q 1906 3584 2284 3584 
Q 2666 3584 2933 3390 
Q 3200 3197 3328 2828 
z
" transform="scale(0.015625)"/>
       <path id="DejaVuSans-69" d="M 603 3500 
L 1178 3500 
L 1178 0 
L 603 0 
L 603 3500 
z
M 603 4863 
L 1178 4863 
L 1178 4134 
L 603 4134 
L 603 4863 
z
" transform="scale(0.015625)"/>
       <path id="DejaVuSans-7a" d="M 353 3500 
L 3084 3500 
L 3084 2975 
L 922 459 
L 3084 459 
L 3084 0 
L 275 0 
L 275 525 
L 2438 3041 
L 353 3041 
L 353 3500 
z
" transform="scale(0.015625)"/>
       <path id="DejaVuSans-64" d="M 2906 2969 
L 2906 4863 
L 3481 4863 
L 3481 0 
L 2906 0 
L 2906 525 
Q 2725 213 2448 61 
Q 2172 -91 1784 -91 
Q 1150 -91 751 415 
Q 353 922 353 1747 
Q 353 2572 751 3078 
Q 1150 3584 1784 3584 
Q 2172 3584 2448 3432 
Q 2725 3281 2906 2969 
z
M 947 1747 
Q 947 1113 1208 752 
Q 1469 391 1925 391 
Q 2381 391 2643 752 
Q 2906 1113 2906 1747 
Q 2906 2381 2643 2742 
Q 2381 3103 1925 3103 
Q 1469 3103 1208 2742 
Q 947 2381 947 1747 
z
" transform="scale(0.015625)"/>
       <path id="DejaVuSans-29" d="M 513 4856 
L 1013 4856 
Q 1481 4119 1714 3412 
Q 1947 2706 1947 2009 
Q 1947 1309 1714 600 
Q 1481 -109 1013 -844 
L 513 -844 
Q 928 -128 1133 580 
Q 1338 1288 1338 2009 
Q 1338 2731 1133 3434 
Q 928 4138 513 4856 
z
" transform="scale(0.015625)"/>
      </defs>
      <use xlink:href="#DejaVuSans-66"/>
      <use xlink:href="#DejaVuSans-6c" x="35.205078"/>
      <use xlink:href="#DejaVuSans-6f" x="62.988281"/>
      <use xlink:href="#DejaVuSans-77" x="124.169922"/>
      <use xlink:href="#DejaVuSans-20" x="205.957031"/>
      <use xlink:href="#DejaVuSans-72" x="237.744141"/>
      <use xlink:href="#DejaVuSans-61" x="278.857422"/>
      <use xlink:href="#DejaVuSans-74" x="340.136719"/>
      <use xlink:href="#DejaVuSans-65" x="379.345703"/>
      <use xlink:href="#DejaVuSans-20" x="440.869141"/>
      <use xlink:href="#DejaVuSans-28" x="472.65625"/>
      <use xlink:href="#DejaVuSans-6e" x="511.669922"/>
      <use xlink:href="#DejaVuSans-6f" x="575.048828"/>
      <use xlink:href="#DejaVuSans-72" x="636.230469"/>
      <use xlink:href="#DejaVuSans-6d" x="675.59375"/>
      <use xlink:href="#DejaVuSans-61" x="773.005859"/>
      <use xlink:href="#DejaVuSans-6c" x="834.285156"/>
      <use xlink:href="#DejaVuSans-69" x="862.068359"/>
      <use xlink:href="#DejaVuSans-7a" x="889.851562"/>
      <use xlink:href="#DejaVuSans-65" x="942.341797"/>
      <use xlink:href="#DejaVuSans-64" x="1003.865234"/>
      <use xlink:href="#DejaVuSans-29" x="1067.341797"/>
     </g>
    </g>
   </g>
   <g id="line2d_10">
    <path d="M 73.832727 65.606372 
L 77.079273 52.947799 
L 80.325818 59.375771 
L 83.572364 61.879179 
L 86.818909 63.090649 
L 90.065455 63.720633 
L 93.312 64.074657 
L 96.558545 64.278825 
L 99.805091 64.397891 
L 103.051636 64.468211 
L 106.298182 64.509832 
L 109.544727 64.535251 
L 112.791273 64.550978 
L 116.037818 64.560036 
L 119.284364 64.56536 
L 122.530909 64.567584 
L 125.777455 63.628145 
L 129.024 63.62545 
L 132.270545 63.62317 
L 135.517091 63.621855 
L 138.763636 63.621144 
L 142.010182 63.620781 
L 145.256727 63.620572 
L 148.503273 63.620482 
L 151.749818 63.62049 
L 154.996364 63.620499 
L 158.242909 63.620578 
L 161.489455 63.620583 
L 164.736 63.620618 
L 167.982545 63.620653 
L 171.229091 63.684099 
L 174.475636 63.349701 
L 177.722182 61.972499 
L 180.968727 60.480532 
L 184.215273 59.33429 
L 187.461818 58.805438 
L 190.708364 58.893846 
L 193.954909 59.399911 
L 197.201455 60.122894 
L 200.448 60.894037 
L 203.694545 61.630075 
L 206.941091 62.276114 
L 210.187636 62.81674 
L 213.434182 63.252546 
L 216.680727 63.593271 
L 219.927273 63.852582 
L 223.173818 64.047548 
L 226.420364 64.192858 
L 229.666909 64.299805 
L 232.913455 64.377476 
L 236.16 64.431953 
L 239.406545 64.475094 
L 242.653091 64.5006 
L 245.899636 64.5198 
L 249.146182 64.538894 
L 252.392727 64.550898 
L 255.639273 64.558734 
L 258.885818 64.564314 
L 262.132364 64.568966 
L 265.378909 64.57179 
L 268.625455 64.575385 
L 271.872 68.218035 
L 275.118545 69.850763 
L 278.365091 70.419799 
L 281.611636 70.48166 
L 284.858182 70.317155 
L 288.104727 70.058443 
L 291.351273 69.766898 
L 294.597818 69.471682 
L 297.844364 69.185625 
L 301.090909 68.914383 
L 304.337455 68.660127 
L 307.584 68.4233 
L 310.830545 68.203542 
L 314.077091 68.000066 
L 317.323636 67.811656 
L 320.570182 67.637158 
L 323.816727 67.475486 
L 327.063273 67.32554 
L 330.309818 67.186187 
L 333.556364 67.056475 
L 336.802909 66.935596 
L 340.049455 66.822721 
L 343.296 66.717142 
L 346.542545 66.618234 
L 349.789091 66.525342 
L 353.035636 66.437991 
L 356.282182 66.355767 
L 359.528727 66.2783 
L 362.775273 66.205074 
L 366.021818 66.135928 
L 369.268364 66.070391 
L 372.514909 66.008237 
L 375.761455 65.949294 
L 379.008 65.893214 
L 382.254545 65.839926 
L 385.501091 65.789145 
L 388.747636 65.740772 
L 391.994182 65.694751 
L 395.240727 65.650827 
L 398.487273 65.60883 
" clip-path="url(#p55b4b78f83)" style="fill: none; stroke: #1f77b4; stroke-width: 1.5; stroke-linecap: square"/>
   </g>
   <g id="line2d_11">
    <path d="M 73.832727 66.934116 
L 77.079273 43.557517 
L 80.325818 54.75748 
L 83.572364 59.43741 
L 86.818909 61.737612 
L 90.065455 62.940088 
L 93.312 63.617162 
L 96.558545 64.007889 
L 99.805091 64.235751 
L 103.051636 64.370451 
L 106.298182 64.450335 
L 109.544727 64.499138 
L 112.791273 64.529127 
L 116.037818 64.546315 
L 119.284364 64.556407 
L 122.530909 64.524162 
L 125.777455 63.621491 
L 129.024 63.620986 
L 132.270545 63.62055 
L 135.517091 63.620273 
L 138.763636 63.620092 
L 142.010182 63.619967 
L 145.256727 63.619866 
L 148.503273 63.619785 
L 151.749818 63.61972 
L 154.996364 63.619656 
L 158.242909 63.619604 
L 161.489455 63.619542 
L 164.736 63.619486 
L 167.982545 63.619431 
L 171.229091 63.87282 
L 174.475636 64.398782 
L 177.722182 64.212893 
L 180.968727 64.012753 
L 184.215273 63.860496 
L 187.461818 63.79071 
L 190.708364 63.799768 
L 193.954909 63.862638 
L 197.201455 63.95433 
L 200.448 64.054 
L 203.694545 64.15135 
L 206.941091 64.238939 
L 210.187636 64.314029 
L 213.434182 64.375896 
L 216.680727 64.425323 
L 219.927273 64.463702 
L 223.173818 64.493027 
L 226.420364 64.515168 
L 229.666909 64.531673 
L 232.913455 64.543787 
L 236.16 64.552369 
L 239.406545 64.55914 
L 242.653091 64.563252 
L 245.899636 64.566344 
L 249.146182 64.569315 
L 252.392727 64.571234 
L 255.639273 64.572506 
L 258.885818 64.573405 
L 262.132364 64.574159 
L 265.378909 64.574621 
L 268.625455 64.592795 
L 271.872 74.61418 
L 275.118545 81.060174 
L 278.365091 84.311152 
L 281.611636 85.267862 
L 284.858182 84.912957 
L 288.104727 83.963808 
L 291.351273 82.723871 
L 294.597818 81.473671 
L 297.844364 80.264493 
L 301.090909 79.127015 
L 304.337455 78.070891 
L 307.584 77.09667 
L 310.830545 76.202992 
L 314.077091 75.384376 
L 317.323636 74.635513 
L 320.570182 73.951224 
L 323.816727 73.32529 
L 327.063273 72.751805 
L 330.309818 72.226038 
L 333.556364 71.743206 
L 336.802909 71.299608 
L 340.049455 70.890925 
L 343.296 70.513184 
L 346.542545 70.164149 
L 349.789091 69.840813 
L 353.035636 69.540903 
L 356.282182 69.262546 
L 359.528727 69.004043 
L 362.775273 68.763018 
L 366.021818 68.538457 
L 369.268364 68.328213 
L 372.514909 68.131431 
L 375.761455 67.947604 
L 379.008 67.775102 
L 382.254545 67.613483 
L 385.501091 67.461521 
L 388.747636 67.318755 
L 391.994182 67.184887 
L 395.240727 67.058795 
L 398.487273 66.939696 
" clip-path="url(#p55b4b78f83)" style="fill: none; stroke: #ff7f0e; stroke-width: 1.5; stroke-linecap: square"/>
   </g>
   <g id="line2d_12">
    <path d="M 73.832727 64.68822 
L 77.079273 63.225057 
L 80.325818 63.986988 
L 83.572364 64.271462 
L 86.818909 64.408267 
L 90.065455 64.479235 
L 93.312 64.519074 
L 96.558545 64.542034 
L 99.805091 64.555422 
L 103.051636 64.563328 
L 106.298182 64.568007 
L 109.544727 64.570863 
L 112.791273 64.572629 
L 116.037818 64.573646 
L 119.284364 64.574244 
L 122.530909 64.599335 
L 125.777455 63.630589 
L 129.024 63.626552 
L 132.270545 63.62309 
L 135.517091 63.621003 
L 138.763636 63.619859 
L 142.010182 63.619271 
L 145.256727 63.618934 
L 148.503273 63.618793 
L 151.749818 63.61881 
L 154.996364 63.618829 
L 158.242909 63.618962 
L 161.489455 63.618977 
L 164.736 63.619038 
L 167.982545 63.6191 
L 171.229091 63.62656 
L 174.475636 62.307082 
L 177.722182 59.65899 
L 180.968727 56.648872 
L 184.215273 54.144346 
L 187.461818 52.792999 
L 190.708364 52.868582 
L 193.954909 53.978182 
L 197.201455 55.618966 
L 200.448 57.374683 
L 203.694545 58.9935 
L 206.941091 60.358488 
L 210.187636 61.448515 
L 213.434182 62.291674 
L 216.680727 62.923841 
L 219.927273 63.386501 
L 223.173818 63.723618 
L 226.420364 63.968411 
L 229.666909 64.14409 
L 232.913455 64.26894 
L 236.16 64.354101 
L 239.406545 64.424729 
L 242.653091 64.46009 
L 245.899636 64.487277 
L 249.146182 64.521382 
L 252.392727 64.539951 
L 255.639273 64.551178 
L 258.885818 64.559608 
L 262.132364 64.566524 
L 265.378909 64.570601 
L 268.625455 64.574011 
L 271.872 64.94501 
L 275.118545 65.10329 
L 278.365091 65.158494 
L 281.611636 65.166157 
L 284.858182 65.15234 
L 288.104727 65.129109 
L 291.351273 65.102203 
L 294.597818 65.074386 
L 297.844364 65.047036 
L 301.090909 65.020812 
L 304.337455 64.996019 
L 307.584 64.97277 
L 310.830545 64.951075 
L 314.077091 64.930898 
L 317.323636 64.912143 
L 320.570182 64.894712 
L 323.816727 64.878515 
L 327.063273 64.863458 
L 330.309818 64.849431 
L 333.556364 64.836348 
L 336.802909 64.824131 
L 340.049455 64.812703 
L 343.296 64.802001 
L 346.542545 64.791958 
L 349.789091 64.782512 
L 353.035636 64.773617 
L 356.282182 64.76523 
L 359.528727 64.757316 
L 362.775273 64.749823 
L 366.021818 64.742741 
L 369.268364 64.736022 
L 372.514909 64.729642 
L 375.761455 64.723579 
L 379.008 64.7178 
L 382.254545 64.712299 
L 385.501091 64.707046 
L 388.747636 64.702033 
L 391.994182 64.697254 
L 395.240727 64.692685 
L 398.487273 64.688307 
" clip-path="url(#p55b4b78f83)" style="fill: none; stroke: #2ca02c; stroke-width: 1.5; stroke-linecap: square"/>
   </g>
   <g id="patch_3">
    <path d="M 57.6 87.353379 
L 57.6 41.472 
" style="fill: none; stroke: #000000; stroke-width: 0.8; stroke-linejoin: miter; stroke-linecap: square"/>
   </g>
   <g id="patch_4">
    <path d="M 414.72 87.353379 
L 414.72 41.472 
" style="fill: none; stroke: #000000; stroke-width: 0.8; stroke-linejoin: miter; stroke-linecap: square"/>
   </g>
   <g id="patch_5">
    <path d="M 57.6 87.353379 
L 414.72 87.353379 
" style="fill: none; stroke: #000000; stroke-width: 0.8; stroke-linejoin: miter; stroke-linecap: square"/>
   </g>
   <g id="patch_6">
    <path d="M 57.6 41.472 
L 414.72 41.472 
" style="fill: none; stroke: #000000; stroke-width: 0.8; stroke-linejoin: miter; stroke-linecap: square"/>
   </g>
   <g id="text_5">
    <!-- velocity vs time (container 1)   -->
    <g transform="translate(144.106875 35.472)scale(0.12 -0.12)">
     <defs>
      <path id="DejaVuSans-76" d="M 191 3500 
L 800 3500 
L 1894 563 
L 2988 3500 
L 3597 3500 
L 2284 0 
L 1503 0 
L 191 3500 
z
" transform="scale(0.015625)"/>
      <path id="DejaVuSans-63" d="M 3122 3366 
L 3122 2828 
Q 2878 2963 2633 3030 
Q 2388 3097 2138 3097 
Q 1578 3097 1268 2742 
Q 959 2388 959 1747 
Q 959 1106 1268 751 
Q 1578 397 2138 397 
Q 2388 397 2633 464 
Q 2878 531 3122 666 
L 3122 134 
Q 2881 22 2623 -34 
Q 2366 -91 2075 -91 
Q 1284 -91 818 406 
Q 353 903 353 1747 
Q 353 2603 823 3093 
Q 1294 3584 2113 3584 
Q 2378 3584 2631 3529 
Q 2884 3475 3122 3366 
z
" transform="scale(0.015625)"/>
      <path id="DejaVuSans-79" d="M 2059 -325 
Q 1816 -950 1584 -1140 
Q 1353 -1331 966 -1331 
L 506 -1331 
L 506 -850 
L 844 -850 
Q 1081 -850 1212 -737 
Q 1344 -625 1503 -206 
L 1606 56 
L 191 3500 
L 800 3500 
L 1894 763 
L 2988 3500 
L 3597 3500 
L 2059 -325 
z
" transform="scale(0.015625)"/>
      <path id="DejaVuSans-73" d="M 2834 3397 
L 2834 2853 
Q 2591 2978 2328 3040 
Q 2066 3103 1784 3103 
Q 1356 3103 1142 2972 
Q 928 2841 928 2578 
Q 928 2378 1081 2264 
Q 1234 2150 1697 2047 
L 1894 2003 
Q 2506 1872 2764 1633 
Q 3022 1394 3022 966 
Q 3022 478 2636 193 
Q 2250 -91 1575 -91 
Q 1294 -91 989 -36 
Q 684 19 347 128 
L 347 722 
Q 666 556 975 473 
Q 1284 391 1588 391 
Q 1994 391 2212 530 
Q 2431 669 2431 922 
Q 2431 1156 2273 1281 
Q 2116 1406 1581 1522 
L 1381 1569 
Q 847 1681 609 1914 
Q 372 2147 372 2553 
Q 372 3047 722 3315 
Q 1072 3584 1716 3584 
Q 2034 3584 2315 3537 
Q 2597 3491 2834 3397 
z
" transform="scale(0.015625)"/>
      <path id="DejaVuSans-31" d="M 794 531 
L 1825 531 
L 1825 4091 
L 703 3866 
L 703 4441 
L 1819 4666 
L 2450 4666 
L 2450 531 
L 3481 531 
L 3481 0 
L 794 0 
L 794 531 
z
" transform="scale(0.015625)"/>
     </defs>
     <use xlink:href="#DejaVuSans-76"/>
     <use xlink:href="#DejaVuSans-65" x="59.179688"/>
     <use xlink:href="#DejaVuSans-6c" x="120.703125"/>
     <use xlink:href="#DejaVuSans-6f" x="148.486328"/>
     <use xlink:href="#DejaVuSans-63" x="209.667969"/>
     <use xlink:href="#DejaVuSans-69" x="264.648438"/>
     <use xlink:href="#DejaVuSans-74" x="292.431641"/>
     <use xlink:href="#DejaVuSans-79" x="331.640625"/>
     <use xlink:href="#DejaVuSans-20" x="390.820312"/>
     <use xlink:href="#DejaVuSans-76" x="422.607422"/>
     <use xlink:href="#DejaVuSans-73" x="481.787109"/>
     <use xlink:href="#DejaVuSans-20" x="533.886719"/>
     <use xlink:href="#DejaVuSans-74" x="565.673828"/>
     <use xlink:href="#DejaVuSans-69" x="604.882812"/>
     <use xlink:href="#DejaVuSans-6d" x="632.666016"/>
     <use xlink:href="#DejaVuSans-65" x="730.078125"/>
     <use xlink:href="#DejaVuSans-20" x="791.601562"/>
     <use xlink:href="#DejaVuSans-28" x="823.388672"/>
     <use xlink:href="#DejaVuSans-63" x="862.402344"/>
     <use xlink:href="#DejaVuSans-6f" x="917.382812"/>
     <use xlink:href="#DejaVuSans-6e" x="978.564453"/>
     <use xlink:href="#DejaVuSans-74" x="1041.943359"/>
     <use xlink:href="#DejaVuSans-61" x="1081.152344"/>
     <use xlink:href="#DejaVuSans-69" x="1142.431641"/>
     <use xlink:href="#DejaVuSans-6e" x="1170.214844"/>
     <use xlink:href="#DejaVuSans-65" x="1233.59375"/>
     <use xlink:href="#DejaVuSans-72" x="1295.117188"/>
     <use xlink:href="#DejaVuSans-20" x="1336.230469"/>
     <use xlink:href="#DejaVuSans-31" x="1368.017578"/>
     <use xlink:href="#DejaVuSans-29" x="1431.640625"/>
     <use xlink:href="#DejaVuSans-20" x="1470.654297"/>
     <use xlink:href="#DejaVuSans-20" x="1502.441406"/>
    </g>
   </g>
   <g id="legend_1">
    <g id="patch_7">
     <path d="M 64.6 93.506375 
L 139.240625 93.506375 
Q 141.240625 93.506375 141.240625 91.506375 
L 141.240625 48.472 
Q 141.240625 46.472 139.240625 46.472 
L 64.6 46.472 
Q 62.6 46.472 62.6 48.472 
L 62.6 91.506375 
Q 62.6 93.506375 64.6 93.506375 
z
" style="fill: #ffffff; opacity: 0.8; stroke: #cccccc; stroke-linejoin: miter"/>
    </g>
    <g id="line2d_13">
     <path d="M 66.6 54.570437 
L 76.6 54.570437 
L 86.6 54.570437 
" style="fill: none; stroke: #1f77b4; stroke-width: 1.5; stroke-linecap: square"/>
    </g>
    <g id="text_6">
     <!-- mid flow -->
     <g transform="translate(94.6 58.070437)scale(0.1 -0.1)">
      <use xlink:href="#DejaVuSans-6d"/>
      <use xlink:href="#DejaVuSans-69" x="97.412109"/>
      <use xlink:href="#DejaVuSans-64" x="125.195312"/>
      <use xlink:href="#DejaVuSans-20" x="188.671875"/>
      <use xlink:href="#DejaVuSans-66" x="220.458984"/>
      <use xlink:href="#DejaVuSans-6c" x="255.664062"/>
      <use xlink:href="#DejaVuSans-6f" x="283.447266"/>
      <use xlink:href="#DejaVuSans-77" x="344.628906"/>
     </g>
    </g>
    <g id="line2d_14">
     <path d="M 66.6 69.248562 
L 76.6 69.248562 
L 86.6 69.248562 
" style="fill: none; stroke: #ff7f0e; stroke-width: 1.5; stroke-linecap: square"/>
    </g>
    <g id="text_7">
     <!-- v0 flow -->
     <g transform="translate(94.6 72.748562)scale(0.1 -0.1)">
      <use xlink:href="#DejaVuSans-76"/>
      <use xlink:href="#DejaVuSans-30" x="59.179688"/>
      <use xlink:href="#DejaVuSans-20" x="122.802734"/>
      <use xlink:href="#DejaVuSans-66" x="154.589844"/>
      <use xlink:href="#DejaVuSans-6c" x="189.794922"/>
      <use xlink:href="#DejaVuSans-6f" x="217.578125"/>
      <use xlink:href="#DejaVuSans-77" x="278.759766"/>
     </g>
    </g>
    <g id="line2d_15">
     <path d="M 66.6 83.926687 
L 76.6 83.926687 
L 86.6 83.926687 
" style="fill: none; stroke: #2ca02c; stroke-width: 1.5; stroke-linecap: square"/>
    </g>
    <g id="text_8">
     <!-- vN flow -->
     <g transform="translate(94.6 87.426687)scale(0.1 -0.1)">
      <defs>
       <path id="DejaVuSans-4e" d="M 628 4666 
L 1478 4666 
L 3547 763 
L 3547 4666 
L 4159 4666 
L 4159 0 
L 3309 0 
L 1241 3903 
L 1241 0 
L 628 0 
L 628 4666 
z
" transform="scale(0.015625)"/>
      </defs>
      <use xlink:href="#DejaVuSans-76"/>
      <use xlink:href="#DejaVuSans-4e" x="59.179688"/>
      <use xlink:href="#DejaVuSans-20" x="133.984375"/>
      <use xlink:href="#DejaVuSans-66" x="165.771484"/>
      <use xlink:href="#DejaVuSans-6c" x="200.976562"/>
      <use xlink:href="#DejaVuSans-6f" x="228.759766"/>
      <use xlink:href="#DejaVuSans-77" x="289.941406"/>
     </g>
    </g>
   </g>
  </g>
  <g id="axes_2">
   <g id="patch_8">
    <path d="M 57.6 142.411034 
L 414.72 142.411034 
L 414.72 96.529655 
L 57.6 96.529655 
z
" style="fill: #ffffff"/>
   </g>
   <g id="matplotlib.axis_3">
    <g id="xtick_7">
     <g id="line2d_16">
      <g>
       <use xlink:href="#m8b95c0c034" x="73.832727" y="142.411034" style="stroke: #000000; stroke-width: 0.8"/>
      </g>
     </g>
    </g>
    <g id="xtick_8">
     <g id="line2d_17">
      <g>
       <use xlink:href="#m8b95c0c034" x="138.763636" y="142.411034" style="stroke: #000000; stroke-width: 0.8"/>
      </g>
     </g>
    </g>
    <g id="xtick_9">
     <g id="line2d_18">
      <g>
       <use xlink:href="#m8b95c0c034" x="203.694545" y="142.411034" style="stroke: #000000; stroke-width: 0.8"/>
      </g>
     </g>
    </g>
    <g id="xtick_10">
     <g id="line2d_19">
      <g>
       <use xlink:href="#m8b95c0c034" x="268.625455" y="142.411034" style="stroke: #000000; stroke-width: 0.8"/>
      </g>
     </g>
    </g>
    <g id="xtick_11">
     <g id="line2d_20">
      <g>
       <use xlink:href="#m8b95c0c034" x="333.556364" y="142.411034" style="stroke: #000000; stroke-width: 0.8"/>
      </g>
     </g>
    </g>
    <g id="xtick_12">
     <g id="line2d_21">
      <g>
       <use xlink:href="#m8b95c0c034" x="398.487273" y="142.411034" style="stroke: #000000; stroke-width: 0.8"/>
      </g>
     </g>
    </g>
   </g>
   <g id="matplotlib.axis_4">
    <g id="ytick_4">
     <g id="line2d_22">
      <g>
       <use xlink:href="#m74b3c2973e" x="57.6" y="140.757168" style="stroke: #000000; stroke-width: 0.8"/>
      </g>
     </g>
     <g id="text_9">
      <!-- 0 -->
      <g transform="translate(44.2375 144.556387)scale(0.1 -0.1)">
       <use xlink:href="#DejaVuSans-30"/>
      </g>
     </g>
    </g>
    <g id="ytick_5">
     <g id="line2d_23">
      <g>
       <use xlink:href="#m74b3c2973e" x="57.6" y="98.771152" style="stroke: #000000; stroke-width: 0.8"/>
      </g>
     </g>
     <g id="text_10">
      <!-- 1 -->
      <g transform="translate(44.2375 102.570371)scale(0.1 -0.1)">
       <use xlink:href="#DejaVuSans-31"/>
      </g>
     </g>
    </g>
   </g>
   <g id="line2d_24">
    <path d="M 73.832727 140.325517 
L 77.079273 124.07822 
L 80.325818 114.106868 
L 83.572364 108.068956 
L 86.818909 104.408234 
L 90.065455 102.191589 
L 93.312 100.845264 
L 96.558545 100.029102 
L 99.805091 99.534078 
L 103.051636 99.233882 
L 106.298182 99.051958 
L 109.544727 98.941414 
L 112.791273 98.87468 
L 116.037818 98.833937 
L 119.284364 98.810078 
L 122.530909 98.791746 
L 125.777455 98.616299 
L 129.024 98.61591 
L 132.270545 98.615579 
L 135.517091 98.615384 
L 138.763636 98.615277 
L 142.010182 98.615222 
L 145.256727 98.615189 
L 148.503273 98.615174 
L 151.749818 98.615173 
L 154.996364 98.615172 
L 158.242909 98.615182 
L 161.489455 98.615181 
L 164.736 98.615184 
L 167.982545 98.615188 
L 171.229091 98.63325 
L 174.475636 113.450739 
L 177.722182 122.249531 
L 180.968727 127.486442 
L 184.215273 130.612836 
L 187.461818 132.535587 
L 190.708364 133.766107 
L 193.954909 134.589354 
L 197.201455 135.15881 
L 200.448 135.55995 
L 203.694545 135.845355 
L 206.941091 136.050424 
L 210.187636 136.197455 
L 213.434182 136.302618 
L 216.680727 136.377552 
L 219.927273 136.430558 
L 223.173818 136.468188 
L 226.420364 136.494877 
L 229.666909 136.513503 
L 232.913455 136.526622 
L 236.16 136.535999 
L 239.406545 136.542452 
L 242.653091 136.547223 
L 245.899636 136.550726 
L 249.146182 136.553073 
L 252.392727 136.554863 
L 255.639273 136.556111 
L 258.885818 136.556946 
L 262.132364 136.557639 
L 265.378909 136.55805 
L 268.625455 136.559126 
L 271.872 137.99168 
L 275.118545 138.84617 
L 278.365091 139.354132 
L 281.611636 139.657545 
L 284.858182 139.843827 
L 288.104727 139.964601 
L 291.351273 140.044485 
L 294.597818 140.102119 
L 297.844364 140.144644 
L 301.090909 140.176813 
L 304.337455 140.201583 
L 307.584 140.220949 
L 310.830545 140.23636 
L 314.077091 140.24881 
L 317.323636 140.259016 
L 320.570182 140.267483 
L 323.816727 140.274622 
L 327.063273 140.28071 
L 330.309818 140.285951 
L 333.556364 140.290506 
L 336.802909 140.294484 
L 340.049455 140.297999 
L 343.296 140.301117 
L 346.542545 140.303891 
L 349.789091 140.306381 
L 353.035636 140.30862 
L 356.282182 140.31064 
L 359.528727 140.312465 
L 362.775273 140.314136 
L 366.021818 140.315646 
L 369.268364 140.317031 
L 372.514909 140.318302 
L 375.761455 140.319465 
L 379.008 140.320541 
L 382.254545 140.321529 
L 385.501091 140.322447 
L 388.747636 140.323297 
L 391.994182 140.324079 
L 395.240727 140.324808 
L 398.487273 140.325491 
" clip-path="url(#p53f01c101f)" style="fill: none; stroke: #1f77b4; stroke-width: 1.5; stroke-linecap: square"/>
   </g>
   <g id="line2d_25">
    <path d="M 73.832727 140.175222 
L 77.079273 125.549037 
L 80.325818 114.783485 
L 83.572364 108.421945 
L 86.818909 104.603016 
L 90.065455 102.303809 
L 93.312 100.911023 
L 96.558545 100.068051 
L 99.805091 99.557389 
L 103.051636 99.247954 
L 106.298182 99.060554 
L 109.544727 98.946664 
L 112.791273 98.877866 
L 116.037818 98.835937 
L 119.284364 98.811383 
L 122.530909 98.794379 
L 125.777455 98.695917 
L 129.024 98.695642 
L 132.270545 98.695408 
L 135.517091 98.69527 
L 138.763636 98.695194 
L 142.010182 98.695156 
L 145.256727 98.695133 
L 148.503273 98.695124 
L 151.749818 98.695125 
L 154.996364 98.695126 
L 158.242909 98.695135 
L 161.489455 98.695136 
L 164.736 98.695139 
L 167.982545 98.695143 
L 171.229091 98.699481 
L 174.475636 113.498236 
L 177.722182 122.349181 
L 180.968727 127.642108 
L 184.215273 130.81095 
L 187.461818 132.752805 
L 190.708364 133.979907 
L 193.954909 134.784603 
L 197.201455 135.32763 
L 200.448 135.700474 
L 203.694545 135.958646 
L 206.941091 136.139563 
L 210.187636 136.266159 
L 213.434182 136.354676 
L 216.680727 136.416457 
L 219.927273 136.459353 
L 223.173818 136.48932 
L 226.420364 136.510259 
L 229.666909 136.524625 
L 232.913455 136.534633 
L 236.16 136.541815 
L 239.406545 136.546537 
L 242.653091 136.550265 
L 245.899636 136.552984 
L 249.146182 136.554569 
L 252.392727 136.555872 
L 255.639273 136.5568 
L 258.885818 136.557407 
L 262.132364 136.55791 
L 265.378909 136.558205 
L 268.625455 136.558404 
L 271.872 137.388537 
L 275.118545 137.901878 
L 278.365091 138.256456 
L 281.611636 138.522983 
L 284.858182 138.734224 
L 288.104727 138.907277 
L 291.351273 139.051834 
L 294.597818 139.174553 
L 297.844364 139.279913 
L 301.090909 139.37122 
L 304.337455 139.450968 
L 307.584 139.521121 
L 310.830545 139.583225 
L 314.077091 139.638538 
L 317.323636 139.688064 
L 320.570182 139.732581 
L 323.816727 139.772805 
L 327.063273 139.809307 
L 330.309818 139.84254 
L 333.556364 139.872906 
L 336.802909 139.900701 
L 340.049455 139.926252 
L 343.296 139.94982 
L 346.542545 139.971575 
L 349.789091 139.991731 
L 353.035636 140.010434 
L 356.282182 140.02781 
L 359.528727 140.043968 
L 362.775273 140.059069 
L 366.021818 140.073154 
L 369.268364 140.086367 
L 372.514909 140.098763 
L 375.761455 140.110375 
L 379.008 140.121306 
L 382.254545 140.131577 
L 385.501091 140.141265 
L 388.747636 140.150396 
L 391.994182 140.158988 
L 395.240727 140.167108 
L 398.487273 140.174805 
" clip-path="url(#p53f01c101f)" style="fill: none; stroke: #ff7f0e; stroke-width: 1.5; stroke-linecap: square"/>
   </g>
   <g id="line2d_26">
    <path d="M 73.832727 140.132403 
L 77.079273 126.04405 
L 80.325818 115.002956 
L 83.572364 108.535546 
L 86.818909 104.665531 
L 90.065455 102.339786 
L 93.312 100.932095 
L 96.558545 100.08053 
L 99.805091 99.564857 
L 103.051636 99.252462 
L 106.298182 99.063311 
L 109.544727 98.948352 
L 112.791273 98.878892 
L 116.037818 98.836582 
L 119.284364 98.811804 
L 122.530909 98.793885 
L 125.777455 98.767197 
L 129.024 98.767179 
L 132.270545 98.767164 
L 135.517091 98.767155 
L 138.763636 98.76715 
L 142.010182 98.767148 
L 145.256727 98.767146 
L 148.503273 98.767146 
L 151.749818 98.767146 
L 154.996364 98.767146 
L 158.242909 98.767146 
L 161.489455 98.767146 
L 164.736 98.767147 
L 167.982545 98.767147 
L 171.229091 98.76905 
L 174.475636 113.629636 
L 177.722182 122.631423 
L 180.968727 128.091872 
L 184.215273 131.394862 
L 187.461818 133.403994 
L 190.708364 134.623983 
L 193.954909 135.369413 
L 197.201455 135.826144 
L 200.448 136.10685 
L 203.694545 136.278601 
L 206.941091 136.385223 
L 210.187636 136.451125 
L 213.434182 136.491752 
L 216.680727 136.516888 
L 219.927273 136.532448 
L 223.173818 136.542187 
L 226.420364 136.548249 
L 229.666909 136.551806 
L 232.913455 136.554047 
L 236.16 136.555857 
L 239.406545 136.556234 
L 242.653091 136.557576 
L 245.899636 136.558485 
L 249.146182 136.55807 
L 252.392727 136.558196 
L 255.639273 136.558382 
L 258.885818 136.558448 
L 262.132364 136.558504 
L 265.378909 136.558532 
L 268.625455 136.558492 
L 271.872 137.242176 
L 275.118545 137.691369 
L 278.365091 138.023656 
L 281.611636 138.28752 
L 284.858182 138.504888 
L 288.104727 138.687805 
L 291.351273 138.843593 
L 294.597818 138.977782 
L 297.844364 139.094323 
L 301.090909 139.196282 
L 304.337455 139.286049 
L 307.584 139.365563 
L 310.830545 139.436373 
L 314.077091 139.499763 
L 317.323636 139.556779 
L 320.570182 139.608244 
L 323.816727 139.654914 
L 327.063273 139.697401 
L 330.309818 139.736201 
L 333.556364 139.771754 
L 336.802909 139.804387 
L 340.049455 139.83446 
L 343.296 139.862259 
L 346.542545 139.887981 
L 349.789091 139.911865 
L 353.035636 139.934077 
L 356.282182 139.954757 
L 359.528727 139.974031 
L 362.775273 139.992079 
L 366.021818 140.008949 
L 369.268364 140.024802 
L 372.514909 140.039704 
L 375.761455 140.053695 
L 379.008 140.066891 
L 382.254545 140.079315 
L 385.501091 140.091058 
L 388.747636 140.102148 
L 391.994182 140.112605 
L 395.240727 140.122507 
L 398.487273 140.131909 
" clip-path="url(#p53f01c101f)" style="fill: none; stroke: #2ca02c; stroke-width: 1.5; stroke-linecap: square"/>
   </g>
   <g id="patch_9">
    <path d="M 57.6 142.411034 
L 57.6 96.529655 
" style="fill: none; stroke: #000000; stroke-width: 0.8; stroke-linejoin: miter; stroke-linecap: square"/>
   </g>
   <g id="patch_10">
    <path d="M 414.72 142.411034 
L 414.72 96.529655 
" style="fill: none; stroke: #000000; stroke-width: 0.8; stroke-linejoin: miter; stroke-linecap: square"/>
   </g>
   <g id="patch_11">
    <path d="M 57.6 142.411034 
L 414.72 142.411034 
" style="fill: none; stroke: #000000; stroke-width: 0.8; stroke-linejoin: miter; stroke-linecap: square"/>
   </g>
   <g id="patch_12">
    <path d="M 57.6 96.529655 
L 414.72 96.529655 
" style="fill: none; stroke: #000000; stroke-width: 0.8; stroke-linejoin: miter; stroke-linecap: square"/>
   </g>
   <g id="text_11">
    <!-- Pressure -->
    <g transform="translate(210.546562 90.529655)scale(0.12 -0.12)">
     <defs>
      <path id="DejaVuSans-50" d="M 1259 4147 
L 1259 2394 
L 2053 2394 
Q 2494 2394 2734 2622 
Q 2975 2850 2975 3272 
Q 2975 3691 2734 3919 
Q 2494 4147 2053 4147 
L 1259 4147 
z
M 628 4666 
L 2053 4666 
Q 2838 4666 3239 4311 
Q 3641 3956 3641 3272 
Q 3641 2581 3239 2228 
Q 2838 1875 2053 1875 
L 1259 1875 
L 1259 0 
L 628 0 
L 628 4666 
z
" transform="scale(0.015625)"/>
      <path id="DejaVuSans-75" d="M 544 1381 
L 544 3500 
L 1119 3500 
L 1119 1403 
Q 1119 906 1312 657 
Q 1506 409 1894 409 
Q 2359 409 2629 706 
Q 2900 1003 2900 1516 
L 2900 3500 
L 3475 3500 
L 3475 0 
L 2900 0 
L 2900 538 
Q 2691 219 2414 64 
Q 2138 -91 1772 -91 
Q 1169 -91 856 284 
Q 544 659 544 1381 
z
M 1991 3584 
L 1991 3584 
z
" transform="scale(0.015625)"/>
     </defs>
     <use xlink:href="#DejaVuSans-50"/>
     <use xlink:href="#DejaVuSans-72" x="58.552734"/>
     <use xlink:href="#DejaVuSans-65" x="97.416016"/>
     <use xlink:href="#DejaVuSans-73" x="158.939453"/>
     <use xlink:href="#DejaVuSans-73" x="211.039062"/>
     <use xlink:href="#DejaVuSans-75" x="263.138672"/>
     <use xlink:href="#DejaVuSans-72" x="326.517578"/>
     <use xlink:href="#DejaVuSans-65" x="365.380859"/>
    </g>
   </g>
   <g id="legend_2">
    <g id="patch_13">
     <path d="M 350.823125 137.411034 
L 407.72 137.411034 
Q 409.72 137.411034 409.72 135.411034 
L 409.72 92.376659 
Q 409.72 90.376659 407.72 90.376659 
L 350.823125 90.376659 
Q 348.823125 90.376659 348.823125 92.376659 
L 348.823125 135.411034 
Q 348.823125 137.411034 350.823125 137.411034 
z
" style="fill: #ffffff; opacity: 0.8; stroke: #cccccc; stroke-linejoin: miter"/>
    </g>
    <g id="line2d_27">
     <path d="M 352.823125 98.475097 
L 362.823125 98.475097 
L 372.823125 98.475097 
" style="fill: none; stroke: #1f77b4; stroke-width: 1.5; stroke-linecap: square"/>
    </g>
    <g id="text_12">
     <!-- P1 -->
     <g transform="translate(380.823125 101.975097)scale(0.1 -0.1)">
      <use xlink:href="#DejaVuSans-50"/>
      <use xlink:href="#DejaVuSans-31" x="60.302734"/>
     </g>
    </g>
    <g id="line2d_28">
     <path d="M 352.823125 113.153222 
L 362.823125 113.153222 
L 372.823125 113.153222 
" style="fill: none; stroke: #ff7f0e; stroke-width: 1.5; stroke-linecap: square"/>
    </g>
    <g id="text_13">
     <!-- Pmid -->
     <g transform="translate(380.823125 116.653222)scale(0.1 -0.1)">
      <use xlink:href="#DejaVuSans-50"/>
      <use xlink:href="#DejaVuSans-6d" x="60.302734"/>
      <use xlink:href="#DejaVuSans-69" x="157.714844"/>
      <use xlink:href="#DejaVuSans-64" x="185.498047"/>
     </g>
    </g>
    <g id="line2d_29">
     <path d="M 352.823125 127.831347 
L 362.823125 127.831347 
L 372.823125 127.831347 
" style="fill: none; stroke: #2ca02c; stroke-width: 1.5; stroke-linecap: square"/>
    </g>
    <g id="text_14">
     <!-- PN -->
     <g transform="translate(380.823125 131.331347)scale(0.1 -0.1)">
      <use xlink:href="#DejaVuSans-50"/>
      <use xlink:href="#DejaVuSans-4e" x="60.302734"/>
     </g>
    </g>
   </g>
  </g>
  <g id="axes_3">
   <g id="patch_14">
    <path d="M 57.6 197.46869 
L 414.72 197.46869 
L 414.72 151.58731 
L 57.6 151.58731 
z
" style="fill: #ffffff"/>
   </g>
   <g id="matplotlib.axis_5">
    <g id="xtick_13">
     <g id="line2d_30">
      <g>
       <use xlink:href="#m8b95c0c034" x="73.832727" y="197.46869" style="stroke: #000000; stroke-width: 0.8"/>
      </g>
     </g>
    </g>
    <g id="xtick_14">
     <g id="line2d_31">
      <g>
       <use xlink:href="#m8b95c0c034" x="138.763636" y="197.46869" style="stroke: #000000; stroke-width: 0.8"/>
      </g>
     </g>
    </g>
    <g id="xtick_15">
     <g id="line2d_32">
      <g>
       <use xlink:href="#m8b95c0c034" x="203.694545" y="197.46869" style="stroke: #000000; stroke-width: 0.8"/>
      </g>
     </g>
    </g>
    <g id="xtick_16">
     <g id="line2d_33">
      <g>
       <use xlink:href="#m8b95c0c034" x="268.625455" y="197.46869" style="stroke: #000000; stroke-width: 0.8"/>
      </g>
     </g>
    </g>
    <g id="xtick_17">
     <g id="line2d_34">
      <g>
       <use xlink:href="#m8b95c0c034" x="333.556364" y="197.46869" style="stroke: #000000; stroke-width: 0.8"/>
      </g>
     </g>
    </g>
    <g id="xtick_18">
     <g id="line2d_35">
      <g>
       <use xlink:href="#m8b95c0c034" x="398.487273" y="197.46869" style="stroke: #000000; stroke-width: 0.8"/>
      </g>
     </g>
    </g>
   </g>
   <g id="matplotlib.axis_6">
    <g id="ytick_6">
     <g id="line2d_36">
      <g>
       <use xlink:href="#m74b3c2973e" x="57.6" y="195.887079" style="stroke: #000000; stroke-width: 0.8"/>
      </g>
     </g>
     <g id="text_15">
      <!-- 0.0 -->
      <g transform="translate(34.696875 199.686298)scale(0.1 -0.1)">
       <defs>
        <path id="DejaVuSans-2e" d="M 684 794 
L 1344 794 
L 1344 0 
L 684 0 
L 684 794 
z
" transform="scale(0.015625)"/>
       </defs>
       <use xlink:href="#DejaVuSans-30"/>
       <use xlink:href="#DejaVuSans-2e" x="63.623047"/>
       <use xlink:href="#DejaVuSans-30" x="95.410156"/>
      </g>
     </g>
    </g>
    <g id="ytick_7">
     <g id="line2d_37">
      <g>
       <use xlink:href="#m74b3c2973e" x="57.6" y="158.938506" style="stroke: #000000; stroke-width: 0.8"/>
      </g>
     </g>
     <g id="text_16">
      <!-- 0.2 -->
      <g transform="translate(34.696875 162.737725)scale(0.1 -0.1)">
       <use xlink:href="#DejaVuSans-30"/>
       <use xlink:href="#DejaVuSans-2e" x="63.623047"/>
       <use xlink:href="#DejaVuSans-32" x="95.410156"/>
      </g>
     </g>
    </g>
    <g id="text_17">
     <!-- fraction -->
     <g transform="translate(28.617187 193.73425)rotate(-90)scale(0.1 -0.1)">
      <use xlink:href="#DejaVuSans-66"/>
      <use xlink:href="#DejaVuSans-72" x="35.205078"/>
      <use xlink:href="#DejaVuSans-61" x="76.318359"/>
      <use xlink:href="#DejaVuSans-63" x="137.597656"/>
      <use xlink:href="#DejaVuSans-74" x="192.578125"/>
      <use xlink:href="#DejaVuSans-69" x="231.787109"/>
      <use xlink:href="#DejaVuSans-6f" x="259.570312"/>
      <use xlink:href="#DejaVuSans-6e" x="320.751953"/>
     </g>
    </g>
   </g>
   <g id="line2d_38">
    <path d="M 73.832727 155.845273 
L 77.079273 189.096149 
L 80.325818 189.120381 
L 83.572364 189.120623 
L 86.818909 189.13735 
L 90.065455 189.125199 
L 93.312 189.126448 
L 96.558545 189.127687 
L 99.805091 189.128202 
L 103.051636 189.131168 
L 106.298182 189.13774 
L 109.544727 189.138582 
L 112.791273 189.13507 
L 116.037818 189.138679 
L 119.284364 189.139929 
L 122.530909 189.140209 
L 125.777455 188.708087 
L 129.024 188.568389 
L 132.270545 188.431679 
L 135.517091 188.30261 
L 138.763636 188.181645 
L 142.010182 188.068348 
L 145.256727 187.962138 
L 148.503273 187.862894 
L 151.749818 187.770408 
L 154.996364 187.684202 
L 158.242909 187.604789 
L 161.489455 187.529907 
L 164.736 187.461163 
L 167.982545 187.397857 
L 171.229091 187.341442 
L 174.475636 186.612594 
L 177.722182 185.502058 
L 180.968727 184.163959 
L 184.215273 182.733966 
L 187.461818 181.32878 
L 190.708364 180.047975 
L 193.954909 178.912174 
L 197.201455 177.93529 
L 200.448 177.122063 
L 203.694545 176.46105 
L 206.941091 175.939382 
L 210.187636 175.543009 
L 213.434182 175.23947 
L 216.680727 175.014972 
L 219.927273 174.851766 
L 223.173818 174.733401 
L 226.420364 174.648593 
L 229.666909 174.588411 
L 232.913455 174.5461 
L 236.16 174.51826 
L 239.406545 174.493438 
L 242.653091 174.484091 
L 245.899636 174.477067 
L 249.146182 174.464817 
L 252.392727 174.459366 
L 255.639273 174.456757 
L 258.885818 174.454966 
L 262.132364 174.453574 
L 265.378909 174.453105 
L 268.625455 174.453701 
L 271.872 170.199235 
L 275.118545 165.880949 
L 278.365091 162.035327 
L 281.611636 159.031225 
L 284.858182 156.893443 
L 288.104727 155.4675 
L 291.351273 154.632539 
L 294.597818 154.107792 
L 297.844364 153.818242 
L 301.090909 153.691714 
L 304.337455 153.672828 
L 307.584 153.730793 
L 310.830545 153.831581 
L 314.077091 153.955959 
L 317.323636 154.092365 
L 320.570182 154.23071 
L 323.816727 154.364067 
L 327.063273 154.489761 
L 330.309818 154.607601 
L 333.556364 154.715497 
L 336.802909 154.813855 
L 340.049455 154.902808 
L 343.296 154.983664 
L 346.542545 155.05751 
L 349.789091 155.125098 
L 353.035636 155.186171 
L 356.282182 155.241498 
L 359.528727 155.291665 
L 362.775273 155.337109 
L 366.021818 155.378815 
L 369.268364 155.41726 
L 372.514909 155.452819 
L 375.761455 155.485775 
L 379.008 155.516691 
L 382.254545 155.54497 
L 385.501091 155.57109 
L 388.747636 155.595276 
L 391.994182 155.617766 
L 395.240727 155.638715 
L 398.487273 155.658369 
" clip-path="url(#p45f8de151b)" style="fill: none; stroke: #1f77b4; stroke-width: 1.5; stroke-linecap: square"/>
   </g>
   <g id="line2d_39">
    <path d="M 73.832727 189.033366 
L 77.079273 195.198192 
L 80.325818 195.320931 
L 83.572364 195.353431 
L 86.818909 195.36723 
L 90.065455 195.374151 
L 93.312 195.37794 
L 96.558545 195.380101 
L 99.805091 195.381364 
L 103.051636 195.382113 
L 106.298182 195.382559 
L 109.544727 195.382828 
L 112.791273 195.382987 
L 116.037818 195.383083 
L 119.284364 195.383137 
L 122.530909 195.383172 
L 125.777455 195.382424 
L 129.024 195.381997 
L 132.270545 195.381591 
L 135.517091 195.381233 
L 138.763636 195.380891 
L 142.010182 195.380549 
L 145.256727 195.380206 
L 148.503273 195.379862 
L 151.749818 195.379517 
L 154.996364 195.379171 
L 158.242909 195.378823 
L 161.489455 195.378475 
L 164.736 195.378125 
L 167.982545 195.377774 
L 171.229091 195.377421 
L 174.475636 195.322989 
L 177.722182 195.246822 
L 180.968727 195.148781 
L 184.215273 195.03551 
L 187.461818 194.918305 
L 190.708364 194.810408 
L 193.954909 194.720546 
L 197.201455 194.651945 
L 200.448 194.60264 
L 203.694545 194.568932 
L 206.941091 194.54673 
L 210.187636 194.532827 
L 213.434182 194.523636 
L 216.680727 194.517849 
L 219.927273 194.514204 
L 223.173818 194.511883 
L 226.420364 194.510426 
L 229.666909 194.509548 
L 232.913455 194.508989 
L 236.16 194.508595 
L 239.406545 194.508361 
L 242.653091 194.508197 
L 245.899636 194.508074 
L 249.146182 194.507989 
L 252.392727 194.507937 
L 255.639273 194.507907 
L 258.885818 194.507889 
L 262.132364 194.50787 
L 265.378909 194.507859 
L 268.625455 194.507862 
L 271.872 194.326871 
L 275.118545 194.165591 
L 278.365091 194.013315 
L 281.611636 193.864087 
L 284.858182 193.715534 
L 288.104727 193.567158 
L 291.351273 193.418788 
L 294.597818 193.270777 
L 297.844364 193.12334 
L 301.090909 192.976762 
L 304.337455 192.831293 
L 307.584 192.687189 
L 310.830545 192.544632 
L 314.077091 192.403672 
L 317.323636 192.264545 
L 320.570182 192.12745 
L 323.816727 191.992299 
L 327.063273 191.859076 
L 330.309818 191.728028 
L 333.556364 191.59919 
L 336.802909 191.472707 
L 340.049455 191.348461 
L 343.296 191.226179 
L 346.542545 191.106159 
L 349.789091 190.98845 
L 353.035636 190.873078 
L 356.282182 190.7601 
L 359.528727 190.649568 
L 362.775273 190.541503 
L 366.021818 190.435357 
L 369.268364 190.331185 
L 372.514909 190.229114 
L 375.761455 190.129358 
L 379.008 190.031839 
L 382.254545 189.936626 
L 385.501091 189.843749 
L 388.747636 189.753153 
L 391.994182 189.664752 
L 395.240727 189.578609 
L 398.487273 189.494668 
" clip-path="url(#p45f8de151b)" style="fill: none; stroke: #ff7f0e; stroke-width: 1.5; stroke-linecap: square"/>
   </g>
   <g id="patch_15">
    <path d="M 57.6 197.46869 
L 57.6 151.58731 
" style="fill: none; stroke: #000000; stroke-width: 0.8; stroke-linejoin: miter; stroke-linecap: square"/>
   </g>
   <g id="patch_16">
    <path d="M 414.72 197.46869 
L 414.72 151.58731 
" style="fill: none; stroke: #000000; stroke-width: 0.8; stroke-linejoin: miter; stroke-linecap: square"/>
   </g>
   <g id="patch_17">
    <path d="M 57.6 197.46869 
L 414.72 197.46869 
" style="fill: none; stroke: #000000; stroke-width: 0.8; stroke-linejoin: miter; stroke-linecap: square"/>
   </g>
   <g id="patch_18">
    <path d="M 57.6 151.58731 
L 414.72 151.58731 
" style="fill: none; stroke: #000000; stroke-width: 0.8; stroke-linejoin: miter; stroke-linecap: square"/>
   </g>
   <g id="text_18">
    <!-- yA -->
    <g transform="translate(228.504375 145.58731)scale(0.12 -0.12)">
     <defs>
      <path id="DejaVuSans-41" d="M 2188 4044 
L 1331 1722 
L 3047 1722 
L 2188 4044 
z
M 1831 4666 
L 2547 4666 
L 4325 0 
L 3669 0 
L 3244 1197 
L 1141 1197 
L 716 0 
L 50 0 
L 1831 4666 
z
" transform="scale(0.015625)"/>
     </defs>
     <use xlink:href="#DejaVuSans-79"/>
     <use xlink:href="#DejaVuSans-41" x="59.179688"/>
    </g>
   </g>
   <g id="legend_3">
    <g id="patch_19">
     <path d="M 330.030938 188.94356 
L 407.72 188.94356 
Q 409.72 188.94356 409.72 186.94356 
L 409.72 158.58731 
Q 409.72 156.58731 407.72 156.58731 
L 330.030938 156.58731 
Q 328.030938 156.58731 328.030938 158.58731 
L 328.030938 186.94356 
Q 328.030938 188.94356 330.030938 188.94356 
z
" style="fill: #ffffff; opacity: 0.8; stroke: #cccccc; stroke-linejoin: miter"/>
    </g>
    <g id="line2d_40">
     <path d="M 332.030938 164.685748 
L 342.030938 164.685748 
L 352.030938 164.685748 
" style="fill: none; stroke: #1f77b4; stroke-width: 1.5; stroke-linecap: square"/>
    </g>
    <g id="text_19">
     <!-- yA0 (in) -->
     <g transform="translate(360.030938 168.185748)scale(0.1 -0.1)">
      <use xlink:href="#DejaVuSans-79"/>
      <use xlink:href="#DejaVuSans-41" x="59.179688"/>
      <use xlink:href="#DejaVuSans-30" x="127.587891"/>
      <use xlink:href="#DejaVuSans-20" x="191.210938"/>
      <use xlink:href="#DejaVuSans-28" x="222.998047"/>
      <use xlink:href="#DejaVuSans-69" x="262.011719"/>
      <use xlink:href="#DejaVuSans-6e" x="289.794922"/>
      <use xlink:href="#DejaVuSans-29" x="353.173828"/>
     </g>
    </g>
    <g id="line2d_41">
     <path d="M 332.030938 179.363873 
L 342.030938 179.363873 
L 352.030938 179.363873 
" style="fill: none; stroke: #ff7f0e; stroke-width: 1.5; stroke-linecap: square"/>
    </g>
    <g id="text_20">
     <!-- yAL (out) -->
     <g transform="translate(360.030938 182.863873)scale(0.1 -0.1)">
      <defs>
       <path id="DejaVuSans-4c" d="M 628 4666 
L 1259 4666 
L 1259 531 
L 3531 531 
L 3531 0 
L 628 0 
L 628 4666 
z
" transform="scale(0.015625)"/>
      </defs>
      <use xlink:href="#DejaVuSans-79"/>
      <use xlink:href="#DejaVuSans-41" x="59.179688"/>
      <use xlink:href="#DejaVuSans-4c" x="127.587891"/>
      <use xlink:href="#DejaVuSans-20" x="183.300781"/>
      <use xlink:href="#DejaVuSans-28" x="215.087891"/>
      <use xlink:href="#DejaVuSans-6f" x="254.101562"/>
      <use xlink:href="#DejaVuSans-75" x="315.283203"/>
      <use xlink:href="#DejaVuSans-74" x="378.662109"/>
      <use xlink:href="#DejaVuSans-29" x="417.871094"/>
     </g>
    </g>
   </g>
  </g>
  <g id="axes_4">
   <g id="patch_20">
    <path d="M 57.6 252.526345 
L 414.72 252.526345 
L 414.72 206.644966 
L 57.6 206.644966 
z
" style="fill: #ffffff"/>
   </g>
   <g id="matplotlib.axis_7">
    <g id="xtick_19">
     <g id="line2d_42">
      <g>
       <use xlink:href="#m8b95c0c034" x="73.832727" y="252.526345" style="stroke: #000000; stroke-width: 0.8"/>
      </g>
     </g>
    </g>
    <g id="xtick_20">
     <g id="line2d_43">
      <g>
       <use xlink:href="#m8b95c0c034" x="138.763636" y="252.526345" style="stroke: #000000; stroke-width: 0.8"/>
      </g>
     </g>
    </g>
    <g id="xtick_21">
     <g id="line2d_44">
      <g>
       <use xlink:href="#m8b95c0c034" x="203.694545" y="252.526345" style="stroke: #000000; stroke-width: 0.8"/>
      </g>
     </g>
    </g>
    <g id="xtick_22">
     <g id="line2d_45">
      <g>
       <use xlink:href="#m8b95c0c034" x="268.625455" y="252.526345" style="stroke: #000000; stroke-width: 0.8"/>
      </g>
     </g>
    </g>
    <g id="xtick_23">
     <g id="line2d_46">
      <g>
       <use xlink:href="#m8b95c0c034" x="333.556364" y="252.526345" style="stroke: #000000; stroke-width: 0.8"/>
      </g>
     </g>
    </g>
    <g id="xtick_24">
     <g id="line2d_47">
      <g>
       <use xlink:href="#m8b95c0c034" x="398.487273" y="252.526345" style="stroke: #000000; stroke-width: 0.8"/>
      </g>
     </g>
    </g>
   </g>
   <g id="matplotlib.axis_8">
    <g id="ytick_8">
     <g id="line2d_48">
      <g>
       <use xlink:href="#m74b3c2973e" x="57.6" y="236.125629" style="stroke: #000000; stroke-width: 0.8"/>
      </g>
     </g>
     <g id="text_21">
      <!-- 0.8 -->
      <g transform="translate(34.696875 239.924847)scale(0.1 -0.1)">
       <defs>
        <path id="DejaVuSans-38" d="M 2034 2216 
Q 1584 2216 1326 1975 
Q 1069 1734 1069 1313 
Q 1069 891 1326 650 
Q 1584 409 2034 409 
Q 2484 409 2743 651 
Q 3003 894 3003 1313 
Q 3003 1734 2745 1975 
Q 2488 2216 2034 2216 
z
M 1403 2484 
Q 997 2584 770 2862 
Q 544 3141 544 3541 
Q 544 4100 942 4425 
Q 1341 4750 2034 4750 
Q 2731 4750 3128 4425 
Q 3525 4100 3525 3541 
Q 3525 3141 3298 2862 
Q 3072 2584 2669 2484 
Q 3125 2378 3379 2068 
Q 3634 1759 3634 1313 
Q 3634 634 3220 271 
Q 2806 -91 2034 -91 
Q 1263 -91 848 271 
Q 434 634 434 1313 
Q 434 1759 690 2068 
Q 947 2378 1403 2484 
z
M 1172 3481 
Q 1172 3119 1398 2916 
Q 1625 2713 2034 2713 
Q 2441 2713 2670 2916 
Q 2900 3119 2900 3481 
Q 2900 3844 2670 4047 
Q 2441 4250 2034 4250 
Q 1625 4250 1398 4047 
Q 1172 3844 1172 3481 
z
" transform="scale(0.015625)"/>
       </defs>
       <use xlink:href="#DejaVuSans-30"/>
       <use xlink:href="#DejaVuSans-2e" x="63.623047"/>
       <use xlink:href="#DejaVuSans-38" x="95.410156"/>
      </g>
     </g>
    </g>
    <g id="ytick_9">
     <g id="line2d_49">
      <g>
       <use xlink:href="#m74b3c2973e" x="57.6" y="219.328616" style="stroke: #000000; stroke-width: 0.8"/>
      </g>
     </g>
     <g id="text_22">
      <!-- 0.9 -->
      <g transform="translate(34.696875 223.127835)scale(0.1 -0.1)">
       <defs>
        <path id="DejaVuSans-39" d="M 703 97 
L 703 672 
Q 941 559 1184 500 
Q 1428 441 1663 441 
Q 2288 441 2617 861 
Q 2947 1281 2994 2138 
Q 2813 1869 2534 1725 
Q 2256 1581 1919 1581 
Q 1219 1581 811 2004 
Q 403 2428 403 3163 
Q 403 3881 828 4315 
Q 1253 4750 1959 4750 
Q 2769 4750 3195 4129 
Q 3622 3509 3622 2328 
Q 3622 1225 3098 567 
Q 2575 -91 1691 -91 
Q 1453 -91 1209 -44 
Q 966 3 703 97 
z
M 1959 2075 
Q 2384 2075 2632 2365 
Q 2881 2656 2881 3163 
Q 2881 3666 2632 3958 
Q 2384 4250 1959 4250 
Q 1534 4250 1286 3958 
Q 1038 3666 1038 3163 
Q 1038 2656 1286 2365 
Q 1534 2075 1959 2075 
z
" transform="scale(0.015625)"/>
       </defs>
       <use xlink:href="#DejaVuSans-30"/>
       <use xlink:href="#DejaVuSans-2e" x="63.623047"/>
       <use xlink:href="#DejaVuSans-39" x="95.410156"/>
      </g>
     </g>
    </g>
    <g id="text_23">
     <!-- fraction -->
     <g transform="translate(28.617187 248.791905)rotate(-90)scale(0.1 -0.1)">
      <use xlink:href="#DejaVuSans-66"/>
      <use xlink:href="#DejaVuSans-72" x="35.205078"/>
      <use xlink:href="#DejaVuSans-61" x="76.318359"/>
      <use xlink:href="#DejaVuSans-63" x="137.597656"/>
      <use xlink:href="#DejaVuSans-74" x="192.578125"/>
      <use xlink:href="#DejaVuSans-69" x="231.787109"/>
      <use xlink:href="#DejaVuSans-6f" x="259.570312"/>
      <use xlink:href="#DejaVuSans-6e" x="320.751953"/>
     </g>
    </g>
   </g>
   <g id="line2d_50">
    <path d="M 73.832727 249.484796 
L 77.079273 217.163753 
L 80.325818 217.146418 
L 83.572364 217.148159 
L 86.818909 217.133486 
L 90.065455 217.145852 
L 93.312 217.145669 
L 96.558545 217.144857 
L 99.805091 217.123024 
L 103.051636 217.166874 
L 106.298182 217.306471 
L 109.544727 217.299476 
L 112.791273 217.158621 
L 116.037818 217.214042 
L 119.284364 217.209361 
L 122.530909 217.195946 
L 125.777455 217.552672 
L 129.024 217.677954 
L 132.270545 217.800033 
L 135.517091 217.914016 
L 138.763636 218.019897 
L 142.010182 218.118379 
L 145.256727 218.210288 
L 148.503273 218.295791 
L 151.749818 218.37514 
L 154.996364 218.448958 
L 158.242909 218.516632 
L 161.489455 218.5806 
L 164.736 218.639129 
L 167.982545 218.692948 
L 171.229091 218.740897 
L 174.475636 219.521122 
L 177.722182 220.664034 
L 180.968727 222.011668 
L 184.215273 223.426297 
L 187.461818 224.797341 
L 190.708364 226.035999 
L 193.954909 227.127304 
L 197.201455 228.061798 
L 200.448 228.837584 
L 203.694545 229.46705 
L 206.941091 229.962907 
L 210.187636 230.33982 
L 213.434182 230.628244 
L 216.680727 230.841568 
L 219.927273 230.996617 
L 223.173818 231.109071 
L 226.420364 231.189689 
L 229.666909 231.246923 
L 232.913455 231.287195 
L 236.16 231.313765 
L 239.406545 231.337236 
L 242.653091 231.346469 
L 245.899636 231.35338 
L 249.146182 231.364799 
L 252.392727 231.370042 
L 255.639273 231.37264 
L 258.885818 231.374418 
L 262.132364 231.37582 
L 265.378909 231.376345 
L 268.625455 231.375907 
L 271.872 235.408095 
L 275.118545 239.332604 
L 278.365091 242.771398 
L 281.611636 245.440404 
L 284.858182 247.346086 
L 288.104727 248.63129 
L 291.351273 249.40465 
L 294.597818 249.909872 
L 297.844364 250.211984 
L 301.090909 250.372988 
L 304.337455 250.440599 
L 307.584 250.440828 
L 310.830545 250.402934 
L 314.077091 250.34347 
L 317.323636 250.272086 
L 320.570182 250.197431 
L 323.816727 250.125537 
L 327.063273 250.058748 
L 330.309818 249.997124 
L 333.556364 249.942454 
L 336.802909 249.894478 
L 340.049455 249.853139 
L 343.296 249.817427 
L 346.542545 249.786359 
L 349.789091 249.75932 
L 353.035636 249.736597 
L 356.282182 249.717585 
L 359.528727 249.701842 
L 362.775273 249.689042 
L 366.021818 249.678408 
L 369.268364 249.669585 
L 372.514909 249.662263 
L 375.761455 249.656192 
L 379.008 249.650938 
L 382.254545 249.647102 
L 385.501091 249.6443 
L 388.747636 249.642375 
L 391.994182 249.64115 
L 395.240727 249.64054 
L 398.487273 249.640375 
" clip-path="url(#p94e6a8f8fc)" style="fill: none; stroke: #1f77b4; stroke-width: 1.5; stroke-linecap: square"/>
   </g>
   <g id="line2d_51">
    <path d="M 73.832727 221.696901 
L 77.079273 209.277347 
L 80.325818 208.888109 
L 83.572364 208.795787 
L 86.818909 208.759866 
L 90.065455 208.743374 
L 93.312 208.735341 
L 96.558545 208.731619 
L 99.805091 208.730483 
L 103.051636 208.731003 
L 106.298182 208.732234 
L 109.544727 208.733697 
L 112.791273 208.735255 
L 116.037818 208.736827 
L 119.284364 208.738405 
L 122.530909 208.739939 
L 125.777455 209.177783 
L 129.024 209.277031 
L 132.270545 209.381769 
L 135.517091 209.498222 
L 138.763636 209.613978 
L 142.010182 209.724415 
L 145.256727 209.829645 
L 148.503273 209.929896 
L 151.749818 210.025679 
L 154.996364 210.117691 
L 158.242909 210.205269 
L 161.489455 210.290928 
L 164.736 210.372881 
L 167.982545 210.451768 
L 171.229091 210.528041 
L 174.475636 210.841042 
L 177.722182 211.272786 
L 180.968727 211.718566 
L 184.215273 212.144462 
L 187.461818 212.526617 
L 190.708364 212.848737 
L 193.954909 213.106731 
L 197.201455 213.30369 
L 200.448 213.448811 
L 203.694545 213.552069 
L 206.941091 213.623508 
L 210.187636 213.670763 
L 213.434182 213.703565 
L 216.680727 213.725349 
L 219.927273 213.739746 
L 223.173818 213.749397 
L 226.420364 213.755797 
L 229.666909 213.759972 
L 232.913455 213.762777 
L 236.16 213.764659 
L 239.406545 213.766257 
L 242.653091 213.766899 
L 245.899636 213.767422 
L 249.146182 213.768294 
L 252.392727 213.768719 
L 255.639273 213.768968 
L 258.885818 213.769174 
L 262.132364 213.769374 
L 265.378909 213.769528 
L 268.625455 213.769632 
L 271.872 214.161971 
L 275.118545 214.485612 
L 278.365091 214.775447 
L 281.611636 215.048738 
L 284.858182 215.312325 
L 288.104727 215.568554 
L 291.351273 215.818647 
L 294.597818 216.06267 
L 297.844364 216.300894 
L 301.090909 216.533345 
L 304.337455 216.76011 
L 307.584 216.981168 
L 310.830545 217.196602 
L 314.077091 217.4067 
L 317.323636 217.611391 
L 320.570182 217.810612 
L 323.816727 218.00477 
L 327.063273 218.194142 
L 330.309818 218.378552 
L 333.556364 218.558127 
L 336.802909 218.732787 
L 340.049455 218.902887 
L 343.296 219.069005 
L 346.542545 219.230814 
L 349.789091 219.388381 
L 353.035636 219.54177 
L 356.282182 219.690975 
L 359.528727 219.835991 
L 362.775273 219.976895 
L 366.021818 220.114551 
L 369.268364 220.24897 
L 372.514909 220.380037 
L 375.761455 220.507502 
L 379.008 220.631557 
L 382.254545 220.752147 
L 385.501091 220.869299 
L 388.747636 220.9831 
L 391.994182 221.093661 
L 395.240727 221.200967 
L 398.487273 221.305135 
" clip-path="url(#p94e6a8f8fc)" style="fill: none; stroke: #ff7f0e; stroke-width: 1.5; stroke-linecap: square"/>
   </g>
   <g id="patch_21">
    <path d="M 57.6 252.526345 
L 57.6 206.644966 
" style="fill: none; stroke: #000000; stroke-width: 0.8; stroke-linejoin: miter; stroke-linecap: square"/>
   </g>
   <g id="patch_22">
    <path d="M 414.72 252.526345 
L 414.72 206.644966 
" style="fill: none; stroke: #000000; stroke-width: 0.8; stroke-linejoin: miter; stroke-linecap: square"/>
   </g>
   <g id="patch_23">
    <path d="M 57.6 252.526345 
L 414.72 252.526345 
" style="fill: none; stroke: #000000; stroke-width: 0.8; stroke-linejoin: miter; stroke-linecap: square"/>
   </g>
   <g id="patch_24">
    <path d="M 57.6 206.644966 
L 414.72 206.644966 
" style="fill: none; stroke: #000000; stroke-width: 0.8; stroke-linejoin: miter; stroke-linecap: square"/>
   </g>
   <g id="text_24">
    <!-- yB -->
    <g transform="translate(228.492188 200.644966)scale(0.12 -0.12)">
     <defs>
      <path id="DejaVuSans-42" d="M 1259 2228 
L 1259 519 
L 2272 519 
Q 2781 519 3026 730 
Q 3272 941 3272 1375 
Q 3272 1813 3026 2020 
Q 2781 2228 2272 2228 
L 1259 2228 
z
M 1259 4147 
L 1259 2741 
L 2194 2741 
Q 2656 2741 2882 2914 
Q 3109 3088 3109 3444 
Q 3109 3797 2882 3972 
Q 2656 4147 2194 4147 
L 1259 4147 
z
M 628 4666 
L 2241 4666 
Q 2963 4666 3353 4366 
Q 3744 4066 3744 3513 
Q 3744 3084 3544 2831 
Q 3344 2578 2956 2516 
Q 3422 2416 3680 2098 
Q 3938 1781 3938 1306 
Q 3938 681 3513 340 
Q 3088 0 2303 0 
L 628 0 
L 628 4666 
z
" transform="scale(0.015625)"/>
     </defs>
     <use xlink:href="#DejaVuSans-79"/>
     <use xlink:href="#DejaVuSans-42" x="59.179688"/>
    </g>
   </g>
   <g id="legend_4">
    <g id="patch_25">
     <path d="M 330.010625 244.001216 
L 407.72 244.001216 
Q 409.72 244.001216 409.72 242.001216 
L 409.72 213.644966 
Q 409.72 211.644966 407.72 211.644966 
L 330.010625 211.644966 
Q 328.010625 211.644966 328.010625 213.644966 
L 328.010625 242.001216 
Q 328.010625 244.001216 330.010625 244.001216 
z
" style="fill: #ffffff; opacity: 0.8; stroke: #cccccc; stroke-linejoin: miter"/>
    </g>
    <g id="line2d_52">
     <path d="M 332.010625 219.743403 
L 342.010625 219.743403 
L 352.010625 219.743403 
" style="fill: none; stroke: #1f77b4; stroke-width: 1.5; stroke-linecap: square"/>
    </g>
    <g id="text_25">
     <!-- yB0 (in) -->
     <g transform="translate(360.010625 223.243403)scale(0.1 -0.1)">
      <use xlink:href="#DejaVuSans-79"/>
      <use xlink:href="#DejaVuSans-42" x="59.179688"/>
      <use xlink:href="#DejaVuSans-30" x="127.783203"/>
      <use xlink:href="#DejaVuSans-20" x="191.40625"/>
      <use xlink:href="#DejaVuSans-28" x="223.193359"/>
      <use xlink:href="#DejaVuSans-69" x="262.207031"/>
      <use xlink:href="#DejaVuSans-6e" x="289.990234"/>
      <use xlink:href="#DejaVuSans-29" x="353.369141"/>
     </g>
    </g>
    <g id="line2d_53">
     <path d="M 332.010625 234.421528 
L 342.010625 234.421528 
L 352.010625 234.421528 
" style="fill: none; stroke: #ff7f0e; stroke-width: 1.5; stroke-linecap: square"/>
    </g>
    <g id="text_26">
     <!-- yBL (out) -->
     <g transform="translate(360.010625 237.921528)scale(0.1 -0.1)">
      <use xlink:href="#DejaVuSans-79"/>
      <use xlink:href="#DejaVuSans-42" x="59.179688"/>
      <use xlink:href="#DejaVuSans-4c" x="127.783203"/>
      <use xlink:href="#DejaVuSans-20" x="183.496094"/>
      <use xlink:href="#DejaVuSans-28" x="215.283203"/>
      <use xlink:href="#DejaVuSans-6f" x="254.296875"/>
      <use xlink:href="#DejaVuSans-75" x="315.478516"/>
      <use xlink:href="#DejaVuSans-74" x="378.857422"/>
      <use xlink:href="#DejaVuSans-29" x="418.066406"/>
     </g>
    </g>
   </g>
  </g>
  <g id="axes_5">
   <g id="patch_26">
    <path d="M 57.6 307.584 
L 414.72 307.584 
L 414.72 261.702621 
L 57.6 261.702621 
z
" style="fill: #ffffff"/>
   </g>
   <g id="matplotlib.axis_9">
    <g id="xtick_25">
     <g id="line2d_54">
      <g>
       <use xlink:href="#m8b95c0c034" x="73.832727" y="307.584" style="stroke: #000000; stroke-width: 0.8"/>
      </g>
     </g>
     <g id="text_27">
      <!-- 0 -->
      <g transform="translate(70.651477 322.182437)scale(0.1 -0.1)">
       <use xlink:href="#DejaVuSans-30"/>
      </g>
     </g>
    </g>
    <g id="xtick_26">
     <g id="line2d_55">
      <g>
       <use xlink:href="#m8b95c0c034" x="138.763636" y="307.584" style="stroke: #000000; stroke-width: 0.8"/>
      </g>
     </g>
     <g id="text_28">
      <!-- 20 -->
      <g transform="translate(132.401136 322.182437)scale(0.1 -0.1)">
       <use xlink:href="#DejaVuSans-32"/>
       <use xlink:href="#DejaVuSans-30" x="63.623047"/>
      </g>
     </g>
    </g>
    <g id="xtick_27">
     <g id="line2d_56">
      <g>
       <use xlink:href="#m8b95c0c034" x="203.694545" y="307.584" style="stroke: #000000; stroke-width: 0.8"/>
      </g>
     </g>
     <g id="text_29">
      <!-- 40 -->
      <g transform="translate(197.332045 322.182437)scale(0.1 -0.1)">
       <defs>
        <path id="DejaVuSans-34" d="M 2419 4116 
L 825 1625 
L 2419 1625 
L 2419 4116 
z
M 2253 4666 
L 3047 4666 
L 3047 1625 
L 3713 1625 
L 3713 1100 
L 3047 1100 
L 3047 0 
L 2419 0 
L 2419 1100 
L 313 1100 
L 313 1709 
L 2253 4666 
z
" transform="scale(0.015625)"/>
       </defs>
       <use xlink:href="#DejaVuSans-34"/>
       <use xlink:href="#DejaVuSans-30" x="63.623047"/>
      </g>
     </g>
    </g>
    <g id="xtick_28">
     <g id="line2d_57">
      <g>
       <use xlink:href="#m8b95c0c034" x="268.625455" y="307.584" style="stroke: #000000; stroke-width: 0.8"/>
      </g>
     </g>
     <g id="text_30">
      <!-- 60 -->
      <g transform="translate(262.262955 322.182437)scale(0.1 -0.1)">
       <defs>
        <path id="DejaVuSans-36" d="M 2113 2584 
Q 1688 2584 1439 2293 
Q 1191 2003 1191 1497 
Q 1191 994 1439 701 
Q 1688 409 2113 409 
Q 2538 409 2786 701 
Q 3034 994 3034 1497 
Q 3034 2003 2786 2293 
Q 2538 2584 2113 2584 
z
M 3366 4563 
L 3366 3988 
Q 3128 4100 2886 4159 
Q 2644 4219 2406 4219 
Q 1781 4219 1451 3797 
Q 1122 3375 1075 2522 
Q 1259 2794 1537 2939 
Q 1816 3084 2150 3084 
Q 2853 3084 3261 2657 
Q 3669 2231 3669 1497 
Q 3669 778 3244 343 
Q 2819 -91 2113 -91 
Q 1303 -91 875 529 
Q 447 1150 447 2328 
Q 447 3434 972 4092 
Q 1497 4750 2381 4750 
Q 2619 4750 2861 4703 
Q 3103 4656 3366 4563 
z
" transform="scale(0.015625)"/>
       </defs>
       <use xlink:href="#DejaVuSans-36"/>
       <use xlink:href="#DejaVuSans-30" x="63.623047"/>
      </g>
     </g>
    </g>
    <g id="xtick_29">
     <g id="line2d_58">
      <g>
       <use xlink:href="#m8b95c0c034" x="333.556364" y="307.584" style="stroke: #000000; stroke-width: 0.8"/>
      </g>
     </g>
     <g id="text_31">
      <!-- 80 -->
      <g transform="translate(327.193864 322.182437)scale(0.1 -0.1)">
       <use xlink:href="#DejaVuSans-38"/>
       <use xlink:href="#DejaVuSans-30" x="63.623047"/>
      </g>
     </g>
    </g>
    <g id="xtick_30">
     <g id="line2d_59">
      <g>
       <use xlink:href="#m8b95c0c034" x="398.487273" y="307.584" style="stroke: #000000; stroke-width: 0.8"/>
      </g>
     </g>
     <g id="text_32">
      <!-- 100 -->
      <g transform="translate(388.943523 322.182437)scale(0.1 -0.1)">
       <use xlink:href="#DejaVuSans-31"/>
       <use xlink:href="#DejaVuSans-30" x="63.623047"/>
       <use xlink:href="#DejaVuSans-30" x="127.246094"/>
      </g>
     </g>
    </g>
    <g id="text_33">
     <!-- time (normalized) -->
     <g transform="translate(191.589687 335.860562)scale(0.1 -0.1)">
      <use xlink:href="#DejaVuSans-74"/>
      <use xlink:href="#DejaVuSans-69" x="39.208984"/>
      <use xlink:href="#DejaVuSans-6d" x="66.992188"/>
      <use xlink:href="#DejaVuSans-65" x="164.404297"/>
      <use xlink:href="#DejaVuSans-20" x="225.927734"/>
      <use xlink:href="#DejaVuSans-28" x="257.714844"/>
      <use xlink:href="#DejaVuSans-6e" x="296.728516"/>
      <use xlink:href="#DejaVuSans-6f" x="360.107422"/>
      <use xlink:href="#DejaVuSans-72" x="421.289062"/>
      <use xlink:href="#DejaVuSans-6d" x="460.652344"/>
      <use xlink:href="#DejaVuSans-61" x="558.064453"/>
      <use xlink:href="#DejaVuSans-6c" x="619.34375"/>
      <use xlink:href="#DejaVuSans-69" x="647.126953"/>
      <use xlink:href="#DejaVuSans-7a" x="674.910156"/>
      <use xlink:href="#DejaVuSans-65" x="727.400391"/>
      <use xlink:href="#DejaVuSans-64" x="788.923828"/>
      <use xlink:href="#DejaVuSans-29" x="852.400391"/>
     </g>
    </g>
   </g>
   <g id="matplotlib.axis_10">
    <g id="ytick_10">
     <g id="line2d_60">
      <g>
       <use xlink:href="#m74b3c2973e" x="57.6" y="290.13881" style="stroke: #000000; stroke-width: 0.8"/>
      </g>
     </g>
     <g id="text_34">
      <!-- 0.050 -->
      <g transform="translate(21.971875 293.938029)scale(0.1 -0.1)">
       <defs>
        <path id="DejaVuSans-35" d="M 691 4666 
L 3169 4666 
L 3169 4134 
L 1269 4134 
L 1269 2991 
Q 1406 3038 1543 3061 
Q 1681 3084 1819 3084 
Q 2600 3084 3056 2656 
Q 3513 2228 3513 1497 
Q 3513 744 3044 326 
Q 2575 -91 1722 -91 
Q 1428 -91 1123 -41 
Q 819 9 494 109 
L 494 744 
Q 775 591 1075 516 
Q 1375 441 1709 441 
Q 2250 441 2565 725 
Q 2881 1009 2881 1497 
Q 2881 1984 2565 2268 
Q 2250 2553 1709 2553 
Q 1456 2553 1204 2497 
Q 953 2441 691 2322 
L 691 4666 
z
" transform="scale(0.015625)"/>
       </defs>
       <use xlink:href="#DejaVuSans-30"/>
       <use xlink:href="#DejaVuSans-2e" x="63.623047"/>
       <use xlink:href="#DejaVuSans-30" x="95.410156"/>
       <use xlink:href="#DejaVuSans-35" x="159.033203"/>
       <use xlink:href="#DejaVuSans-30" x="222.65625"/>
      </g>
     </g>
    </g>
    <g id="ytick_11">
     <g id="line2d_61">
      <g>
       <use xlink:href="#m74b3c2973e" x="57.6" y="265.888609" style="stroke: #000000; stroke-width: 0.8"/>
      </g>
     </g>
     <g id="text_35">
      <!-- 0.075 -->
      <g transform="translate(21.971875 269.687828)scale(0.1 -0.1)">
       <defs>
        <path id="DejaVuSans-37" d="M 525 4666 
L 3525 4666 
L 3525 4397 
L 1831 0 
L 1172 0 
L 2766 4134 
L 525 4134 
L 525 4666 
z
" transform="scale(0.015625)"/>
       </defs>
       <use xlink:href="#DejaVuSans-30"/>
       <use xlink:href="#DejaVuSans-2e" x="63.623047"/>
       <use xlink:href="#DejaVuSans-30" x="95.410156"/>
       <use xlink:href="#DejaVuSans-37" x="159.033203"/>
       <use xlink:href="#DejaVuSans-35" x="222.65625"/>
      </g>
     </g>
    </g>
    <g id="text_36">
     <!-- fraction -->
     <g transform="translate(15.892187 303.84956)rotate(-90)scale(0.1 -0.1)">
      <use xlink:href="#DejaVuSans-66"/>
      <use xlink:href="#DejaVuSans-72" x="35.205078"/>
      <use xlink:href="#DejaVuSans-61" x="76.318359"/>
      <use xlink:href="#DejaVuSans-63" x="137.597656"/>
      <use xlink:href="#DejaVuSans-74" x="192.578125"/>
      <use xlink:href="#DejaVuSans-69" x="231.787109"/>
      <use xlink:href="#DejaVuSans-6f" x="259.570312"/>
      <use xlink:href="#DejaVuSans-6e" x="320.751953"/>
     </g>
    </g>
   </g>
   <g id="line2d_62">
    <path d="M 73.832727 277.732852 
L 77.079273 289.796599 
L 80.325818 289.769476 
L 83.572364 289.758151 
L 86.818909 289.755063 
L 90.065455 289.747448 
L 93.312 289.747189 
L 96.558545 289.742916 
L 99.805091 289.731271 
L 103.051636 289.751912 
L 106.298182 289.795504 
L 109.544727 289.795392 
L 112.791273 289.755687 
L 116.037818 289.780003 
L 119.284364 289.761276 
L 122.530909 289.764428 
L 125.777455 289.588203 
L 129.024 289.598197 
L 132.270545 289.611009 
L 135.517091 289.630461 
L 138.763636 289.654147 
L 142.010182 289.680301 
L 145.256727 289.707202 
L 148.503273 289.734523 
L 151.749818 289.761898 
L 154.996364 289.788238 
L 158.242909 289.814388 
L 161.489455 289.838157 
L 164.736 289.861103 
L 167.982545 289.882697 
L 171.229091 289.902008 
L 174.475636 289.223184 
L 177.722182 288.453955 
L 180.968727 287.697327 
L 184.215273 287.036307 
L 187.461818 286.496741 
L 190.708364 286.06861 
L 193.954909 285.730069 
L 197.201455 285.462685 
L 200.448 285.252529 
L 203.694545 285.08814 
L 206.941091 284.963681 
L 210.187636 284.868242 
L 213.434182 284.796385 
L 216.680727 284.743209 
L 219.927273 284.704745 
L 223.173818 284.676819 
L 226.420364 284.656553 
L 229.666909 284.642027 
L 232.913455 284.631619 
L 236.16 284.624357 
L 239.406545 284.619142 
L 242.653091 284.614897 
L 245.899636 284.61187 
L 249.146182 284.610244 
L 252.392727 284.608586 
L 255.639273 284.607284 
L 258.885818 284.606423 
L 262.132364 284.605635 
L 265.378909 284.605065 
L 268.625455 284.604463 
L 271.872 283.656766 
L 275.118545 283.667452 
L 278.365091 284.001393 
L 281.611636 284.360647 
L 284.858182 284.580072 
L 288.104727 284.64554 
L 291.351273 284.563246 
L 294.597818 284.400873 
L 297.844364 284.176522 
L 301.090909 283.911084 
L 304.337455 283.619802 
L 307.584 283.314134 
L 310.830545 283.003766 
L 314.077091 282.694108 
L 317.323636 282.390135 
L 320.570182 282.094863 
L 323.816727 281.809839 
L 327.063273 281.535571 
L 330.309818 281.272713 
L 333.556364 281.021911 
L 336.802909 280.782528 
L 340.049455 280.554202 
L 343.296 280.335893 
L 346.542545 280.127573 
L 349.789091 279.928845 
L 353.035636 279.739397 
L 356.282182 279.558692 
L 359.528727 279.386195 
L 362.775273 279.221514 
L 366.021818 279.063938 
L 369.268364 278.913028 
L 372.514909 278.768611 
L 375.761455 278.630636 
L 379.008 278.498646 
L 382.254545 278.372318 
L 385.501091 278.251348 
L 388.747636 278.135478 
L 391.994182 278.024466 
L 395.240727 277.917992 
L 398.487273 277.815757 
" clip-path="url(#p418debadae)" style="fill: none; stroke: #1f77b4; stroke-width: 1.5; stroke-linecap: square"/>
   </g>
   <g id="line2d_63">
    <path d="M 73.832727 263.947843 
L 77.079273 303.300386 
L 80.325818 304.903741 
L 83.572364 305.266249 
L 86.818909 305.401232 
L 90.065455 305.460139 
L 93.312 305.486638 
L 96.558545 305.496896 
L 99.805091 305.498483 
L 103.051636 305.495233 
L 106.298182 305.489111 
L 109.544727 305.481355 
L 112.791273 305.472568 
L 116.037818 305.463203 
L 119.284364 305.453508 
L 122.530909 305.443967 
L 125.777455 303.205803 
L 129.024 302.456288 
L 132.270545 301.723363 
L 135.517091 301.031961 
L 138.763636 300.375752 
L 142.010182 299.750101 
L 145.256727 299.150869 
L 148.503273 298.577282 
L 151.749818 298.027716 
L 154.996364 297.498577 
L 158.242909 296.992968 
L 161.489455 296.500751 
L 164.736 296.029132 
L 167.982545 295.575284 
L 171.229091 295.136715 
L 174.475636 293.61497 
L 177.722182 291.521623 
L 180.968727 289.462068 
L 184.215273 287.597306 
L 187.461818 286.005832 
L 190.708364 284.712125 
L 193.954909 283.694057 
L 197.201455 282.91684 
L 200.448 282.337662 
L 203.694545 281.918351 
L 206.941091 281.62237 
L 210.187636 281.422475 
L 213.434182 281.281305 
L 216.680727 281.185891 
L 219.927273 281.12189 
L 223.173818 281.078343 
L 226.420364 281.049031 
L 229.666909 281.029534 
L 232.913455 281.016265 
L 236.16 281.007466 
L 239.406545 280.999465 
L 242.653091 280.996623 
L 245.899636 280.994245 
L 249.146182 280.989661 
L 252.392727 280.987476 
L 255.639273 280.9862 
L 258.885818 280.985108 
L 262.132364 280.984052 
L 265.378909 280.983217 
L 268.625455 280.982608 
L 271.872 279.667198 
L 275.118545 278.645022 
L 278.365091 277.770798 
L 281.611636 276.976108 
L 284.858182 276.233911 
L 288.104727 275.533277 
L 291.351273 274.868049 
L 294.597818 274.235989 
L 297.844364 273.634407 
L 301.090909 273.061645 
L 304.337455 272.5159 
L 307.584 271.99595 
L 310.830545 271.500347 
L 314.077091 271.027178 
L 317.323636 270.57561 
L 320.570182 270.144963 
L 323.816727 269.733344 
L 327.063273 269.339241 
L 330.309818 268.962369 
L 333.556364 268.601822 
L 336.802909 268.257291 
L 340.049455 267.927349 
L 343.296 267.610087 
L 346.542545 267.30583 
L 349.789091 267.013942 
L 353.035636 266.733909 
L 356.282182 266.465466 
L 359.528727 266.208373 
L 362.775273 265.962073 
L 366.021818 265.724457 
L 369.268364 265.495165 
L 372.514909 265.274201 
L 375.761455 265.061887 
L 379.008 264.85751 
L 382.254545 264.661045 
L 385.501091 264.472161 
L 388.747636 264.290656 
L 391.994182 264.11634 
L 395.240727 263.94896 
L 398.487273 263.788138 
" clip-path="url(#p418debadae)" style="fill: none; stroke: #ff7f0e; stroke-width: 1.5; stroke-linecap: square"/>
   </g>
   <g id="patch_27">
    <path d="M 57.6 307.584 
L 57.6 261.702621 
" style="fill: none; stroke: #000000; stroke-width: 0.8; stroke-linejoin: miter; stroke-linecap: square"/>
   </g>
   <g id="patch_28">
    <path d="M 414.72 307.584 
L 414.72 261.702621 
" style="fill: none; stroke: #000000; stroke-width: 0.8; stroke-linejoin: miter; stroke-linecap: square"/>
   </g>
   <g id="patch_29">
    <path d="M 57.6 307.584 
L 414.72 307.584 
" style="fill: none; stroke: #000000; stroke-width: 0.8; stroke-linejoin: miter; stroke-linecap: square"/>
   </g>
   <g id="patch_30">
    <path d="M 57.6 261.702621 
L 414.72 261.702621 
" style="fill: none; stroke: #000000; stroke-width: 0.8; stroke-linejoin: miter; stroke-linecap: square"/>
   </g>
   <g id="text_37">
    <!-- yC -->
    <g transform="translate(228.419062 255.702621)scale(0.12 -0.12)">
     <defs>
      <path id="DejaVuSans-43" d="M 4122 4306 
L 4122 3641 
Q 3803 3938 3442 4084 
Q 3081 4231 2675 4231 
Q 1875 4231 1450 3742 
Q 1025 3253 1025 2328 
Q 1025 1406 1450 917 
Q 1875 428 2675 428 
Q 3081 428 3442 575 
Q 3803 722 4122 1019 
L 4122 359 
Q 3791 134 3420 21 
Q 3050 -91 2638 -91 
Q 1578 -91 968 557 
Q 359 1206 359 2328 
Q 359 3453 968 4101 
Q 1578 4750 2638 4750 
Q 3056 4750 3426 4639 
Q 3797 4528 4122 4306 
z
" transform="scale(0.015625)"/>
     </defs>
     <use xlink:href="#DejaVuSans-79"/>
     <use xlink:href="#DejaVuSans-43" x="59.179688"/>
    </g>
   </g>
   <g id="legend_5">
    <g id="patch_31">
     <path d="M 329.88875 302.584 
L 407.72 302.584 
Q 409.72 302.584 409.72 300.584 
L 409.72 272.22775 
Q 409.72 270.22775 407.72 270.22775 
L 329.88875 270.22775 
Q 327.88875 270.22775 327.88875 272.22775 
L 327.88875 300.584 
Q 327.88875 302.584 329.88875 302.584 
z
" style="fill: #ffffff; opacity: 0.8; stroke: #cccccc; stroke-linejoin: miter"/>
    </g>
    <g id="line2d_64">
     <path d="M 331.88875 278.326187 
L 341.88875 278.326187 
L 351.88875 278.326187 
" style="fill: none; stroke: #1f77b4; stroke-width: 1.5; stroke-linecap: square"/>
    </g>
    <g id="text_38">
     <!-- yC0 (in) -->
     <g transform="translate(359.88875 281.826187)scale(0.1 -0.1)">
      <use xlink:href="#DejaVuSans-79"/>
      <use xlink:href="#DejaVuSans-43" x="59.179688"/>
      <use xlink:href="#DejaVuSans-30" x="129.003906"/>
      <use xlink:href="#DejaVuSans-20" x="192.626953"/>
      <use xlink:href="#DejaVuSans-28" x="224.414062"/>
      <use xlink:href="#DejaVuSans-69" x="263.427734"/>
      <use xlink:href="#DejaVuSans-6e" x="291.210938"/>
      <use xlink:href="#DejaVuSans-29" x="354.589844"/>
     </g>
    </g>
    <g id="line2d_65">
     <path d="M 331.88875 293.004312 
L 341.88875 293.004312 
L 351.88875 293.004312 
" style="fill: none; stroke: #ff7f0e; stroke-width: 1.5; stroke-linecap: square"/>
    </g>
    <g id="text_39">
     <!-- yCL (out) -->
     <g transform="translate(359.88875 296.504312)scale(0.1 -0.1)">
      <use xlink:href="#DejaVuSans-79"/>
      <use xlink:href="#DejaVuSans-43" x="59.179688"/>
      <use xlink:href="#DejaVuSans-4c" x="129.003906"/>
      <use xlink:href="#DejaVuSans-20" x="184.716797"/>
      <use xlink:href="#DejaVuSans-28" x="216.503906"/>
      <use xlink:href="#DejaVuSans-6f" x="255.517578"/>
      <use xlink:href="#DejaVuSans-75" x="316.699219"/>
      <use xlink:href="#DejaVuSans-74" x="380.078125"/>
      <use xlink:href="#DejaVuSans-29" x="419.287109"/>
     </g>
    </g>
   </g>
  </g>
 </g>
 <defs>
  <clipPath id="p55b4b78f83">
   <rect x="57.6" y="41.472" width="357.12" height="45.881379"/>
  </clipPath>
  <clipPath id="p53f01c101f">
   <rect x="57.6" y="96.529655" width="357.12" height="45.881379"/>
  </clipPath>
  <clipPath id="p45f8de151b">
   <rect x="57.6" y="151.58731" width="357.12" height="45.881379"/>
  </clipPath>
  <clipPath id="p94e6a8f8fc">
   <rect x="57.6" y="206.644966" width="357.12" height="45.881379"/>
  </clipPath>
  <clipPath id="p418debadae">
   <rect x="57.6" y="261.702621" width="357.12" height="45.881379"/>
  </clipPath>
 </defs>
</svg>
