<?xml version="1.0" encoding="utf-8" standalone="no"?>
<!DOCTYPE svg PUBLIC "-//W3C//DTD SVG 1.1//EN"
  "http://www.w3.org/Graphics/SVG/1.1/DTD/svg11.dtd">
<svg xmlns:xlink="http://www.w3.org/1999/xlink" width="460.8pt" height="345.6pt" viewBox="0 0 460.8 345.6" xmlns="http://www.w3.org/2000/svg" version="1.1">
 <metadata>
  <rdf:RDF xmlns:dc="http://purl.org/dc/elements/1.1/" xmlns:cc="http://creativecommons.org/ns#" xmlns:rdf="http://www.w3.org/1999/02/22-rdf-syntax-ns#">
   <cc:Work>
    <dc:type rdf:resource="http://purl.org/dc/dcmitype/StillImage"/>
    <dc:date>2022-07-10T00:04:52.897103</dc:date>
    <dc:format>image/svg+xml</dc:format>
    <dc:creator>
     <cc:Agent>
      <dc:title>Matplotlib v3.5.2, https://matplotlib.org/</dc:title>
     </cc:Agent>
    </dc:creator>
   </cc:Work>
  </rdf:RDF>
 </metadata>
 <defs>
  <style type="text/css">*{stroke-linejoin: round; stroke-linecap: butt}</style>
 </defs>
 <g id="figure_1">
  <g id="patch_1">
   <path d="M 0 345.6 
L 460.8 345.6 
L 460.8 0 
L 0 0 
z
" style="fill: #ffffff"/>
  </g>
  <g id="axes_1">
   <g id="patch_2">
    <path d="M 57.6 87.353379 
L 414.72 87.353379 
L 414.72 41.472 
L 57.6 41.472 
z
" style="fill: #ffffff"/>
   </g>
   <g id="axes_2">
    <g id="patch_3">
     <path d="M 414.72 87.353379 
L 414.72 87.353379 
L 414.72 41.472 
L 414.72 41.472 
z
" style="fill: #ffffff"/>
    </g>
    <g id="matplotlib.axis_1"/>
    <g id="matplotlib.axis_2">
     <g id="ytick_1">
      <g id="line2d_1">
       <defs>
        <path id="mcb5fcf6f1d" d="M 0 0 
L 3.5 0 
" style="stroke: #000000; stroke-width: 0.8"/>
       </defs>
       <g>
        <use xlink:href="#mcb5fcf6f1d" x="414.72" y="76.528603" style="stroke: #000000; stroke-width: 0.8"/>
       </g>
      </g>
      <g id="text_1">
       <!-- −20 -->
       <g transform="translate(421.72 80.327822)scale(0.1 -0.1)">
        <defs>
         <path id="DejaVuSans-2212" d="M 678 2272 
L 4684 2272 
L 4684 1741 
L 678 1741 
L 678 2272 
z
" transform="scale(0.015625)"/>
         <path id="DejaVuSans-32" d="M 1228 531 
L 3431 531 
L 3431 0 
L 469 0 
L 469 531 
Q 828 903 1448 1529 
Q 2069 2156 2228 2338 
Q 2531 2678 2651 2914 
Q 2772 3150 2772 3378 
Q 2772 3750 2511 3984 
Q 2250 4219 1831 4219 
Q 1534 4219 1204 4116 
Q 875 4013 500 3803 
L 500 4441 
Q 881 4594 1212 4672 
Q 1544 4750 1819 4750 
Q 2544 4750 2975 4387 
Q 3406 4025 3406 3419 
Q 3406 3131 3298 2873 
Q 3191 2616 2906 2266 
Q 2828 2175 2409 1742 
Q 1991 1309 1228 531 
z
" transform="scale(0.015625)"/>
         <path id="DejaVuSans-30" d="M 2034 4250 
Q 1547 4250 1301 3770 
Q 1056 3291 1056 2328 
Q 1056 1369 1301 889 
Q 1547 409 2034 409 
Q 2525 409 2770 889 
Q 3016 1369 3016 2328 
Q 3016 3291 2770 3770 
Q 2525 4250 2034 4250 
z
M 2034 4750 
Q 2819 4750 3233 4129 
Q 3647 3509 3647 2328 
Q 3647 1150 3233 529 
Q 2819 -91 2034 -91 
Q 1250 -91 836 529 
Q 422 1150 422 2328 
Q 422 3509 836 4129 
Q 1250 4750 2034 4750 
z
" transform="scale(0.015625)"/>
        </defs>
        <use xlink:href="#DejaVuSans-2212"/>
        <use xlink:href="#DejaVuSans-32" x="83.789062"/>
        <use xlink:href="#DejaVuSans-30" x="147.412109"/>
       </g>
      </g>
     </g>
     <g id="ytick_2">
      <g id="line2d_2">
       <g>
        <use xlink:href="#mcb5fcf6f1d" x="414.72" y="51.003239" style="stroke: #000000; stroke-width: 0.8"/>
       </g>
      </g>
      <g id="text_2">
       <!-- 0 -->
       <g transform="translate(421.72 54.802457)scale(0.1 -0.1)">
        <use xlink:href="#DejaVuSans-30"/>
       </g>
      </g>
     </g>
     <g id="text_3">
      <!-- vel [m/s] -->
      <g transform="translate(454.423125 86.48769)rotate(-90)scale(0.1 -0.1)">
       <defs>
        <path id="DejaVuSans-76" d="M 191 3500 
L 800 3500 
L 1894 563 
L 2988 3500 
L 3597 3500 
L 2284 0 
L 1503 0 
L 191 3500 
z
" transform="scale(0.015625)"/>
        <path id="DejaVuSans-65" d="M 3597 1894 
L 3597 1613 
L 953 1613 
Q 991 1019 1311 708 
Q 1631 397 2203 397 
Q 2534 397 2845 478 
Q 3156 559 3463 722 
L 3463 178 
Q 3153 47 2828 -22 
Q 2503 -91 2169 -91 
Q 1331 -91 842 396 
Q 353 884 353 1716 
Q 353 2575 817 3079 
Q 1281 3584 2069 3584 
Q 2775 3584 3186 3129 
Q 3597 2675 3597 1894 
z
M 3022 2063 
Q 3016 2534 2758 2815 
Q 2500 3097 2075 3097 
Q 1594 3097 1305 2825 
Q 1016 2553 972 2059 
L 3022 2063 
z
" transform="scale(0.015625)"/>
        <path id="DejaVuSans-6c" d="M 603 4863 
L 1178 4863 
L 1178 0 
L 603 0 
L 603 4863 
z
" transform="scale(0.015625)"/>
        <path id="DejaVuSans-20" transform="scale(0.015625)"/>
        <path id="DejaVuSans-5b" d="M 550 4863 
L 1875 4863 
L 1875 4416 
L 1125 4416 
L 1125 -397 
L 1875 -397 
L 1875 -844 
L 550 -844 
L 550 4863 
z
" transform="scale(0.015625)"/>
        <path id="DejaVuSans-6d" d="M 3328 2828 
Q 3544 3216 3844 3400 
Q 4144 3584 4550 3584 
Q 5097 3584 5394 3201 
Q 5691 2819 5691 2113 
L 5691 0 
L 5113 0 
L 5113 2094 
Q 5113 2597 4934 2840 
Q 4756 3084 4391 3084 
Q 3944 3084 3684 2787 
Q 3425 2491 3425 1978 
L 3425 0 
L 2847 0 
L 2847 2094 
Q 2847 2600 2669 2842 
Q 2491 3084 2119 3084 
Q 1678 3084 1418 2786 
Q 1159 2488 1159 1978 
L 1159 0 
L 581 0 
L 581 3500 
L 1159 3500 
L 1159 2956 
Q 1356 3278 1631 3431 
Q 1906 3584 2284 3584 
Q 2666 3584 2933 3390 
Q 3200 3197 3328 2828 
z
" transform="scale(0.015625)"/>
        <path id="DejaVuSans-2f" d="M 1625 4666 
L 2156 4666 
L 531 -594 
L 0 -594 
L 1625 4666 
z
" transform="scale(0.015625)"/>
        <path id="DejaVuSans-73" d="M 2834 3397 
L 2834 2853 
Q 2591 2978 2328 3040 
Q 2066 3103 1784 3103 
Q 1356 3103 1142 2972 
Q 928 2841 928 2578 
Q 928 2378 1081 2264 
Q 1234 2150 1697 2047 
L 1894 2003 
Q 2506 1872 2764 1633 
Q 3022 1394 3022 966 
Q 3022 478 2636 193 
Q 2250 -91 1575 -91 
Q 1294 -91 989 -36 
Q 684 19 347 128 
L 347 722 
Q 666 556 975 473 
Q 1284 391 1588 391 
Q 1994 391 2212 530 
Q 2431 669 2431 922 
Q 2431 1156 2273 1281 
Q 2116 1406 1581 1522 
L 1381 1569 
Q 847 1681 609 1914 
Q 372 2147 372 2553 
Q 372 3047 722 3315 
Q 1072 3584 1716 3584 
Q 2034 3584 2315 3537 
Q 2597 3491 2834 3397 
z
" transform="scale(0.015625)"/>
        <path id="DejaVuSans-5d" d="M 1947 4863 
L 1947 -844 
L 622 -844 
L 622 -397 
L 1369 -397 
L 1369 4416 
L 622 4416 
L 622 4863 
L 1947 4863 
z
" transform="scale(0.015625)"/>
       </defs>
       <use xlink:href="#DejaVuSans-76"/>
       <use xlink:href="#DejaVuSans-65" x="59.179688"/>
       <use xlink:href="#DejaVuSans-6c" x="120.703125"/>
       <use xlink:href="#DejaVuSans-20" x="148.486328"/>
       <use xlink:href="#DejaVuSans-5b" x="180.273438"/>
       <use xlink:href="#DejaVuSans-6d" x="219.287109"/>
       <use xlink:href="#DejaVuSans-2f" x="316.699219"/>
       <use xlink:href="#DejaVuSans-73" x="350.390625"/>
       <use xlink:href="#DejaVuSans-5d" x="402.490234"/>
      </g>
     </g>
    </g>
    <g id="patch_4">
     <path d="M 414.72 87.353379 
L 414.72 41.472 
" style="fill: none; stroke: #000000; stroke-width: 0.8; stroke-linejoin: miter; stroke-linecap: square"/>
    </g>
   </g>
   <g id="matplotlib.axis_3">
    <g id="xtick_1">
     <g id="line2d_3">
      <defs>
       <path id="me45828e446" d="M 0 0 
L 0 3.5 
" style="stroke: #000000; stroke-width: 0.8"/>
      </defs>
      <g>
       <use xlink:href="#me45828e446" x="73.832727" y="87.353379" style="stroke: #000000; stroke-width: 0.8"/>
      </g>
     </g>
    </g>
    <g id="xtick_2">
     <g id="line2d_4">
      <g>
       <use xlink:href="#me45828e446" x="116.550431" y="87.353379" style="stroke: #000000; stroke-width: 0.8"/>
      </g>
     </g>
    </g>
    <g id="xtick_3">
     <g id="line2d_5">
      <g>
       <use xlink:href="#me45828e446" x="159.268134" y="87.353379" style="stroke: #000000; stroke-width: 0.8"/>
      </g>
     </g>
    </g>
    <g id="xtick_4">
     <g id="line2d_6">
      <g>
       <use xlink:href="#me45828e446" x="201.985837" y="87.353379" style="stroke: #000000; stroke-width: 0.8"/>
      </g>
     </g>
    </g>
    <g id="xtick_5">
     <g id="line2d_7">
      <g>
       <use xlink:href="#me45828e446" x="244.703541" y="87.353379" style="stroke: #000000; stroke-width: 0.8"/>
      </g>
     </g>
    </g>
    <g id="xtick_6">
     <g id="line2d_8">
      <g>
       <use xlink:href="#me45828e446" x="287.421244" y="87.353379" style="stroke: #000000; stroke-width: 0.8"/>
      </g>
     </g>
    </g>
    <g id="xtick_7">
     <g id="line2d_9">
      <g>
       <use xlink:href="#me45828e446" x="330.138947" y="87.353379" style="stroke: #000000; stroke-width: 0.8"/>
      </g>
     </g>
    </g>
    <g id="xtick_8">
     <g id="line2d_10">
      <g>
       <use xlink:href="#me45828e446" x="372.856651" y="87.353379" style="stroke: #000000; stroke-width: 0.8"/>
      </g>
     </g>
    </g>
   </g>
   <g id="matplotlib.axis_4">
    <g id="ytick_3">
     <g id="line2d_11">
      <defs>
       <path id="mf6de628d41" d="M 0 0 
L -3.5 0 
" style="stroke: #000000; stroke-width: 0.8"/>
      </defs>
      <g>
       <use xlink:href="#mf6de628d41" x="57.6" y="76.528603" style="stroke: #000000; stroke-width: 0.8"/>
      </g>
     </g>
     <g id="text_4">
      <!-- −20 -->
      <g transform="translate(29.495313 80.327822)scale(0.1 -0.1)">
       <use xlink:href="#DejaVuSans-2212"/>
       <use xlink:href="#DejaVuSans-32" x="83.789062"/>
       <use xlink:href="#DejaVuSans-30" x="147.412109"/>
      </g>
     </g>
    </g>
    <g id="ytick_4">
     <g id="line2d_12">
      <g>
       <use xlink:href="#mf6de628d41" x="57.6" y="51.003239" style="stroke: #000000; stroke-width: 0.8"/>
      </g>
     </g>
     <g id="text_5">
      <!-- 0 -->
      <g transform="translate(44.2375 54.802457)scale(0.1 -0.1)">
       <use xlink:href="#DejaVuSans-30"/>
      </g>
     </g>
    </g>
    <g id="text_6">
     <!-- vel [normalized] -->
     <g transform="translate(23.415625 105.111908)rotate(-90)scale(0.1 -0.1)">
      <defs>
       <path id="DejaVuSans-6e" d="M 3513 2113 
L 3513 0 
L 2938 0 
L 2938 2094 
Q 2938 2591 2744 2837 
Q 2550 3084 2163 3084 
Q 1697 3084 1428 2787 
Q 1159 2491 1159 1978 
L 1159 0 
L 581 0 
L 581 3500 
L 1159 3500 
L 1159 2956 
Q 1366 3272 1645 3428 
Q 1925 3584 2291 3584 
Q 2894 3584 3203 3211 
Q 3513 2838 3513 2113 
z
" transform="scale(0.015625)"/>
       <path id="DejaVuSans-6f" d="M 1959 3097 
Q 1497 3097 1228 2736 
Q 959 2375 959 1747 
Q 959 1119 1226 758 
Q 1494 397 1959 397 
Q 2419 397 2687 759 
Q 2956 1122 2956 1747 
Q 2956 2369 2687 2733 
Q 2419 3097 1959 3097 
z
M 1959 3584 
Q 2709 3584 3137 3096 
Q 3566 2609 3566 1747 
Q 3566 888 3137 398 
Q 2709 -91 1959 -91 
Q 1206 -91 779 398 
Q 353 888 353 1747 
Q 353 2609 779 3096 
Q 1206 3584 1959 3584 
z
" transform="scale(0.015625)"/>
       <path id="DejaVuSans-72" d="M 2631 2963 
Q 2534 3019 2420 3045 
Q 2306 3072 2169 3072 
Q 1681 3072 1420 2755 
Q 1159 2438 1159 1844 
L 1159 0 
L 581 0 
L 581 3500 
L 1159 3500 
L 1159 2956 
Q 1341 3275 1631 3429 
Q 1922 3584 2338 3584 
Q 2397 3584 2469 3576 
Q 2541 3569 2628 3553 
L 2631 2963 
z
" transform="scale(0.015625)"/>
       <path id="DejaVuSans-61" d="M 2194 1759 
Q 1497 1759 1228 1600 
Q 959 1441 959 1056 
Q 959 750 1161 570 
Q 1363 391 1709 391 
Q 2188 391 2477 730 
Q 2766 1069 2766 1631 
L 2766 1759 
L 2194 1759 
z
M 3341 1997 
L 3341 0 
L 2766 0 
L 2766 531 
Q 2569 213 2275 61 
Q 1981 -91 1556 -91 
Q 1019 -91 701 211 
Q 384 513 384 1019 
Q 384 1609 779 1909 
Q 1175 2209 1959 2209 
L 2766 2209 
L 2766 2266 
Q 2766 2663 2505 2880 
Q 2244 3097 1772 3097 
Q 1472 3097 1187 3025 
Q 903 2953 641 2809 
L 641 3341 
Q 956 3463 1253 3523 
Q 1550 3584 1831 3584 
Q 2591 3584 2966 3190 
Q 3341 2797 3341 1997 
z
" transform="scale(0.015625)"/>
       <path id="DejaVuSans-69" d="M 603 3500 
L 1178 3500 
L 1178 0 
L 603 0 
L 603 3500 
z
M 603 4863 
L 1178 4863 
L 1178 4134 
L 603 4134 
L 603 4863 
z
" transform="scale(0.015625)"/>
       <path id="DejaVuSans-7a" d="M 353 3500 
L 3084 3500 
L 3084 2975 
L 922 459 
L 3084 459 
L 3084 0 
L 275 0 
L 275 525 
L 2438 3041 
L 353 3041 
L 353 3500 
z
" transform="scale(0.015625)"/>
       <path id="DejaVuSans-64" d="M 2906 2969 
L 2906 4863 
L 3481 4863 
L 3481 0 
L 2906 0 
L 2906 525 
Q 2725 213 2448 61 
Q 2172 -91 1784 -91 
Q 1150 -91 751 415 
Q 353 922 353 1747 
Q 353 2572 751 3078 
Q 1150 3584 1784 3584 
Q 2172 3584 2448 3432 
Q 2725 3281 2906 2969 
z
M 947 1747 
Q 947 1113 1208 752 
Q 1469 391 1925 391 
Q 2381 391 2643 752 
Q 2906 1113 2906 1747 
Q 2906 2381 2643 2742 
Q 2381 3103 1925 3103 
Q 1469 3103 1208 2742 
Q 947 2381 947 1747 
z
" transform="scale(0.015625)"/>
      </defs>
      <use xlink:href="#DejaVuSans-76"/>
      <use xlink:href="#DejaVuSans-65" x="59.179688"/>
      <use xlink:href="#DejaVuSans-6c" x="120.703125"/>
      <use xlink:href="#DejaVuSans-20" x="148.486328"/>
      <use xlink:href="#DejaVuSans-5b" x="180.273438"/>
      <use xlink:href="#DejaVuSans-6e" x="219.287109"/>
      <use xlink:href="#DejaVuSans-6f" x="282.666016"/>
      <use xlink:href="#DejaVuSans-72" x="343.847656"/>
      <use xlink:href="#DejaVuSans-6d" x="383.210938"/>
      <use xlink:href="#DejaVuSans-61" x="480.623047"/>
      <use xlink:href="#DejaVuSans-6c" x="541.902344"/>
      <use xlink:href="#DejaVuSans-69" x="569.685547"/>
      <use xlink:href="#DejaVuSans-7a" x="597.46875"/>
      <use xlink:href="#DejaVuSans-65" x="649.958984"/>
      <use xlink:href="#DejaVuSans-64" x="711.482422"/>
      <use xlink:href="#DejaVuSans-5d" x="774.958984"/>
     </g>
    </g>
   </g>
   <g id="line2d_13">
    <path d="M 73.832727 54.411692 
L 90.919809 54.149602 
L 108.00689 53.895231 
L 125.093971 53.658904 
L 142.181053 53.442049 
L 159.268134 53.241764 
L 176.355215 53.054239 
L 193.442297 52.876243 
L 210.529378 52.705373 
L 227.616459 52.539887 
L 244.703541 52.378507 
L 261.790622 52.22027 
L 278.877703 52.064434 
L 295.964785 51.910412 
L 313.051866 51.757734 
L 330.138947 51.60602 
L 347.226029 51.454957 
L 364.31311 51.304282 
L 381.400191 51.153773 
L 398.487273 51.153773 
" clip-path="url(#p306e936b17)" style="fill: none; stroke: #1f77b4; stroke-width: 1.5; stroke-linecap: square"/>
   </g>
   <g id="line2d_14">
    <path d="M 73.832727 50.529189 
L 90.919809 50.550219 
L 108.00689 50.57208 
L 125.093971 50.594671 
L 142.181053 50.617897 
L 159.268134 50.641673 
L 176.355215 50.665925 
L 193.442297 50.690586 
L 210.529378 50.7156 
L 227.616459 50.740919 
L 244.703541 50.766499 
L 261.790622 50.792301 
L 278.877703 50.81829 
L 295.964785 50.844434 
L 313.051866 50.870705 
L 330.138947 50.89708 
L 347.226029 50.923538 
L 364.31311 50.950061 
L 381.400191 50.976632 
L 398.487273 50.976632 
" clip-path="url(#p306e936b17)" style="fill: none; stroke: #ff7f0e; stroke-width: 1.5; stroke-linecap: square"/>
   </g>
   <g id="line2d_15">
    <path d="M 73.832727 49.72896 
L 90.919809 49.73085 
L 108.00689 49.732452 
L 125.093971 49.733782 
L 142.181053 49.734922 
L 159.268134 49.735929 
L 176.355215 49.736837 
L 193.442297 49.737663 
L 210.529378 49.738415 
L 227.616459 49.739101 
L 244.703541 49.739726 
L 261.790622 49.740295 
L 278.877703 49.740813 
L 295.964785 49.741283 
L 313.051866 49.741708 
L 330.138947 49.74209 
L 347.226029 49.742432 
L 364.31311 49.742731 
L 381.400191 49.742986 
L 398.487273 49.742986 
" clip-path="url(#p306e936b17)" style="fill: none; stroke: #2ca02c; stroke-width: 1.5; stroke-linecap: square"/>
   </g>
   <g id="line2d_16">
    <path d="M 73.832727 49.727555 
L 90.919809 49.728488 
L 108.00689 49.729362 
L 125.093971 49.729918 
L 142.181053 49.730183 
L 159.268134 49.730255 
L 176.355215 49.73021 
L 193.442297 49.730094 
L 210.529378 49.729931 
L 227.616459 49.729736 
L 244.703541 49.729516 
L 261.790622 49.729277 
L 278.877703 49.729023 
L 295.964785 49.728756 
L 313.051866 49.728478 
L 330.138947 49.72819 
L 347.226029 49.727893 
L 364.31311 49.727588 
L 381.400191 49.727275 
L 398.487273 49.727275 
" clip-path="url(#p306e936b17)" style="fill: none; stroke: #d62728; stroke-width: 1.5; stroke-linecap: square"/>
   </g>
   <g id="line2d_17">
    <path d="M 73.832727 50.770029 
L 90.919809 50.519729 
L 108.00689 50.246191 
L 125.093971 49.949466 
L 142.181053 49.633778 
L 159.268134 49.303885 
L 176.355215 48.963375 
L 193.442297 48.614598 
L 210.529378 48.259053 
L 227.616459 47.897715 
L 244.703541 47.53124 
L 261.790622 47.160076 
L 278.877703 46.784532 
L 295.964785 46.404808 
L 313.051866 46.021022 
L 330.138947 45.633219 
L 347.226029 45.24138 
L 364.31311 44.845425 
L 381.400191 44.445222 
L 398.487273 44.445222 
" clip-path="url(#p306e936b17)" style="fill: none; stroke: #9467bd; stroke-width: 1.5; stroke-linecap: square"/>
   </g>
   <g id="line2d_18">
    <path d="M 73.832727 50.727659 
L 90.919809 50.437636 
L 108.00689 50.127703 
L 125.093971 49.795682 
L 142.181053 49.443249 
L 159.268134 49.074089 
L 176.355215 48.691829 
L 193.442297 48.299197 
L 210.529378 47.898031 
L 227.616459 47.48953 
L 244.703541 47.074477 
L 261.790622 46.65339 
L 278.877703 46.226624 
L 295.964785 45.794424 
L 313.051866 45.356969 
L 330.138947 44.914402 
L 347.226029 44.466859 
L 364.31311 44.014495 
L 381.400191 43.557517 
L 398.487273 43.557517 
" clip-path="url(#p306e936b17)" style="fill: none; stroke: #8c564b; stroke-width: 1.5; stroke-linecap: square"/>
   </g>
   <g id="line2d_19">
    <path d="M 73.832727 50.97462 
L 90.919809 50.944954 
L 108.00689 50.913781 
L 125.093971 50.880918 
L 142.181053 50.846571 
L 159.268134 50.81122 
L 176.355215 50.775401 
L 193.442297 50.739581 
L 210.529378 50.704145 
L 227.616459 50.669413 
L 244.703541 50.635662 
L 261.790622 50.603143 
L 278.877703 50.572085 
L 295.964785 50.542708 
L 313.051866 50.515216 
L 330.138947 50.489808 
L 347.226029 50.466674 
L 364.31311 50.445997 
L 381.400191 50.427951 
L 398.487273 50.427951 
" clip-path="url(#p306e936b17)" style="fill: none; stroke: #e377c2; stroke-width: 1.5; stroke-linecap: square"/>
   </g>
   <g id="line2d_20">
    <path d="M 73.832727 51.001294 
L 90.919809 50.999421 
L 108.00689 50.997511 
L 125.093971 50.995524 
L 142.181053 50.993451 
L 159.268134 50.991321 
L 176.355215 50.989174 
L 193.442297 50.987046 
L 210.529378 50.984967 
L 227.616459 50.982961 
L 244.703541 50.98105 
L 261.790622 50.979252 
L 278.877703 50.977581 
L 295.964785 50.976054 
L 313.051866 50.974683 
L 330.138947 50.97348 
L 347.226029 50.972455 
L 364.31311 50.971616 
L 381.400191 50.970972 
L 398.487273 50.970972 
" clip-path="url(#p306e936b17)" style="fill: none; stroke: #7f7f7f; stroke-width: 1.5; stroke-linecap: square"/>
   </g>
   <g id="line2d_21">
    <path d="M 73.832727 85.267862 
L 90.919809 78.605209 
L 108.00689 74.053976 
L 125.093971 70.705479 
L 142.181053 68.097853 
L 159.268134 65.97303 
L 176.355215 64.180003 
L 193.442297 62.625959 
L 210.529378 61.250557 
L 227.616459 60.012396 
L 244.703541 58.881713 
L 261.790622 57.836256 
L 278.877703 56.858812 
L 295.964785 55.93565 
L 313.051866 55.055504 
L 330.138947 54.208857 
L 347.226029 53.387444 
L 364.31311 52.583866 
L 381.400191 51.791299 
L 398.487273 51.791299 
" clip-path="url(#p306e936b17)" style="fill: none; stroke: #bcbd22; stroke-width: 1.5; stroke-linecap: square"/>
   </g>
   <g id="line2d_22">
    <path d="M 73.832727 71.654657 
L 90.919809 67.705556 
L 108.00689 65.03569 
L 125.093971 63.086932 
L 142.181053 61.577772 
L 159.268134 60.348972 
L 176.355215 59.306869 
L 193.442297 58.394755 
L 210.529378 57.576845 
L 227.616459 56.829433 
L 244.703541 56.136043 
L 261.790622 55.484725 
L 278.877703 54.86647 
L 295.964785 54.27425 
L 313.051866 53.702399 
L 330.138947 53.146207 
L 347.226029 52.601635 
L 364.31311 52.065104 
L 381.400191 51.533338 
L 398.487273 51.533338 
" clip-path="url(#p306e936b17)" style="fill: none; stroke: #17becf; stroke-width: 1.5; stroke-linecap: square"/>
   </g>
   <g id="line2d_23">
    <path d="M 73.832727 62.194435 
L 90.919809 60.564505 
L 108.00689 59.309585 
L 125.093971 58.316592 
L 142.181053 57.505655 
L 159.268134 56.82023 
L 176.355215 56.222169 
L 193.442297 55.686469 
L 210.529378 55.196618 
L 227.616459 54.741383 
L 244.703541 54.312818 
L 261.790622 53.905087 
L 278.877703 53.513748 
L 295.964785 53.13531 
L 313.051866 52.766941 
L 330.138947 52.40628 
L 347.226029 52.051299 
L 364.31311 51.700206 
L 381.400191 51.351364 
L 398.487273 51.351364 
" clip-path="url(#p306e936b17)" style="fill: none; stroke: #1f77b4; stroke-width: 1.5; stroke-linecap: square"/>
   </g>
   <g id="line2d_24">
    <path d="M 73.832727 57.645819 
L 90.919809 56.910702 
L 108.00689 56.278876 
L 125.093971 55.740327 
L 142.181053 55.276844 
L 159.268134 54.869635 
L 176.355215 54.503499 
L 193.442297 54.167493 
L 210.529378 53.854016 
L 227.616459 53.557735 
L 244.703541 53.2748 
L 261.790622 53.00234 
L 278.877703 52.738137 
L 295.964785 52.480433 
L 313.051866 52.227789 
L 330.138947 51.978998 
L 347.226029 51.733022 
L 364.31311 51.488947 
L 381.400191 51.245941 
L 398.487273 51.245941 
" clip-path="url(#p306e936b17)" style="fill: none; stroke: #ff7f0e; stroke-width: 1.5; stroke-linecap: square"/>
   </g>
   <g id="line2d_25">
    <path d="M 73.832727 55.21592 
L 90.919809 54.853113 
L 108.00689 54.513437 
L 125.093971 54.205799 
L 142.181053 53.928844 
L 159.268134 53.676859 
L 176.355215 53.443802 
L 193.442297 53.224853 
L 210.529378 53.016512 
L 227.616459 52.816273 
L 244.703541 52.62231 
L 261.790622 52.433251 
L 278.877703 52.248035 
L 295.964785 52.065816 
L 313.051866 51.885902 
L 330.138947 51.707716 
L 347.226029 51.530762 
L 364.31311 51.354613 
L 381.400191 51.178885 
L 398.487273 51.178885 
" clip-path="url(#p306e936b17)" style="fill: none; stroke: #2ca02c; stroke-width: 1.5; stroke-linecap: square"/>
   </g>
   <g id="patch_5">
    <path d="M 57.6 87.353379 
L 57.6 41.472 
" style="fill: none; stroke: #000000; stroke-width: 0.8; stroke-linejoin: miter; stroke-linecap: square"/>
   </g>
   <g id="patch_6">
    <path d="M 414.72 87.353379 
L 414.72 41.472 
" style="fill: none; stroke: #000000; stroke-width: 0.8; stroke-linejoin: miter; stroke-linecap: square"/>
   </g>
   <g id="patch_7">
    <path d="M 57.6 87.353379 
L 414.72 87.353379 
" style="fill: none; stroke: #000000; stroke-width: 0.8; stroke-linejoin: miter; stroke-linecap: square"/>
   </g>
   <g id="patch_8">
    <path d="M 57.6 41.472 
L 414.72 41.472 
" style="fill: none; stroke: #000000; stroke-width: 0.8; stroke-linejoin: miter; stroke-linecap: square"/>
   </g>
   <g id="text_7">
    <!-- velocity - Container 1  -->
    <g transform="translate(169.779375 38.472)scale(0.12 -0.12)">
     <defs>
      <path id="DejaVuSans-63" d="M 3122 3366 
L 3122 2828 
Q 2878 2963 2633 3030 
Q 2388 3097 2138 3097 
Q 1578 3097 1268 2742 
Q 959 2388 959 1747 
Q 959 1106 1268 751 
Q 1578 397 2138 397 
Q 2388 397 2633 464 
Q 2878 531 3122 666 
L 3122 134 
Q 2881 22 2623 -34 
Q 2366 -91 2075 -91 
Q 1284 -91 818 406 
Q 353 903 353 1747 
Q 353 2603 823 3093 
Q 1294 3584 2113 3584 
Q 2378 3584 2631 3529 
Q 2884 3475 3122 3366 
z
" transform="scale(0.015625)"/>
      <path id="DejaVuSans-74" d="M 1172 4494 
L 1172 3500 
L 2356 3500 
L 2356 3053 
L 1172 3053 
L 1172 1153 
Q 1172 725 1289 603 
Q 1406 481 1766 481 
L 2356 481 
L 2356 0 
L 1766 0 
Q 1100 0 847 248 
Q 594 497 594 1153 
L 594 3053 
L 172 3053 
L 172 3500 
L 594 3500 
L 594 4494 
L 1172 4494 
z
" transform="scale(0.015625)"/>
      <path id="DejaVuSans-79" d="M 2059 -325 
Q 1816 -950 1584 -1140 
Q 1353 -1331 966 -1331 
L 506 -1331 
L 506 -850 
L 844 -850 
Q 1081 -850 1212 -737 
Q 1344 -625 1503 -206 
L 1606 56 
L 191 3500 
L 800 3500 
L 1894 763 
L 2988 3500 
L 3597 3500 
L 2059 -325 
z
" transform="scale(0.015625)"/>
      <path id="DejaVuSans-2d" d="M 313 2009 
L 1997 2009 
L 1997 1497 
L 313 1497 
L 313 2009 
z
" transform="scale(0.015625)"/>
      <path id="DejaVuSans-43" d="M 4122 4306 
L 4122 3641 
Q 3803 3938 3442 4084 
Q 3081 4231 2675 4231 
Q 1875 4231 1450 3742 
Q 1025 3253 1025 2328 
Q 1025 1406 1450 917 
Q 1875 428 2675 428 
Q 3081 428 3442 575 
Q 3803 722 4122 1019 
L 4122 359 
Q 3791 134 3420 21 
Q 3050 -91 2638 -91 
Q 1578 -91 968 557 
Q 359 1206 359 2328 
Q 359 3453 968 4101 
Q 1578 4750 2638 4750 
Q 3056 4750 3426 4639 
Q 3797 4528 4122 4306 
z
" transform="scale(0.015625)"/>
      <path id="DejaVuSans-31" d="M 794 531 
L 1825 531 
L 1825 4091 
L 703 3866 
L 703 4441 
L 1819 4666 
L 2450 4666 
L 2450 531 
L 3481 531 
L 3481 0 
L 794 0 
L 794 531 
z
" transform="scale(0.015625)"/>
     </defs>
     <use xlink:href="#DejaVuSans-76"/>
     <use xlink:href="#DejaVuSans-65" x="59.179688"/>
     <use xlink:href="#DejaVuSans-6c" x="120.703125"/>
     <use xlink:href="#DejaVuSans-6f" x="148.486328"/>
     <use xlink:href="#DejaVuSans-63" x="209.667969"/>
     <use xlink:href="#DejaVuSans-69" x="264.648438"/>
     <use xlink:href="#DejaVuSans-74" x="292.431641"/>
     <use xlink:href="#DejaVuSans-79" x="331.640625"/>
     <use xlink:href="#DejaVuSans-20" x="390.820312"/>
     <use xlink:href="#DejaVuSans-2d" x="422.607422"/>
     <use xlink:href="#DejaVuSans-20" x="458.691406"/>
     <use xlink:href="#DejaVuSans-43" x="490.478516"/>
     <use xlink:href="#DejaVuSans-6f" x="560.302734"/>
     <use xlink:href="#DejaVuSans-6e" x="621.484375"/>
     <use xlink:href="#DejaVuSans-74" x="684.863281"/>
     <use xlink:href="#DejaVuSans-61" x="724.072266"/>
     <use xlink:href="#DejaVuSans-69" x="785.351562"/>
     <use xlink:href="#DejaVuSans-6e" x="813.134766"/>
     <use xlink:href="#DejaVuSans-65" x="876.513672"/>
     <use xlink:href="#DejaVuSans-72" x="938.037109"/>
     <use xlink:href="#DejaVuSans-20" x="979.150391"/>
     <use xlink:href="#DejaVuSans-31" x="1010.9375"/>
     <use xlink:href="#DejaVuSans-20" x="1074.560547"/>
    </g>
   </g>
  </g>
  <g id="axes_3">
   <g id="patch_9">
    <path d="M 57.6 142.411034 
L 414.72 142.411034 
L 414.72 96.529655 
L 57.6 96.529655 
z
" style="fill: #ffffff"/>
   </g>
   <g id="matplotlib.axis_5">
    <g id="xtick_9">
     <g id="line2d_26">
      <g>
       <use xlink:href="#me45828e446" x="73.832727" y="142.411034" style="stroke: #000000; stroke-width: 0.8"/>
      </g>
     </g>
    </g>
    <g id="xtick_10">
     <g id="line2d_27">
      <g>
       <use xlink:href="#me45828e446" x="116.550431" y="142.411034" style="stroke: #000000; stroke-width: 0.8"/>
      </g>
     </g>
    </g>
    <g id="xtick_11">
     <g id="line2d_28">
      <g>
       <use xlink:href="#me45828e446" x="159.268134" y="142.411034" style="stroke: #000000; stroke-width: 0.8"/>
      </g>
     </g>
    </g>
    <g id="xtick_12">
     <g id="line2d_29">
      <g>
       <use xlink:href="#me45828e446" x="201.985837" y="142.411034" style="stroke: #000000; stroke-width: 0.8"/>
      </g>
     </g>
    </g>
    <g id="xtick_13">
     <g id="line2d_30">
      <g>
       <use xlink:href="#me45828e446" x="244.703541" y="142.411034" style="stroke: #000000; stroke-width: 0.8"/>
      </g>
     </g>
    </g>
    <g id="xtick_14">
     <g id="line2d_31">
      <g>
       <use xlink:href="#me45828e446" x="287.421244" y="142.411034" style="stroke: #000000; stroke-width: 0.8"/>
      </g>
     </g>
    </g>
    <g id="xtick_15">
     <g id="line2d_32">
      <g>
       <use xlink:href="#me45828e446" x="330.138947" y="142.411034" style="stroke: #000000; stroke-width: 0.8"/>
      </g>
     </g>
    </g>
    <g id="xtick_16">
     <g id="line2d_33">
      <g>
       <use xlink:href="#me45828e446" x="372.856651" y="142.411034" style="stroke: #000000; stroke-width: 0.8"/>
      </g>
     </g>
    </g>
   </g>
   <g id="matplotlib.axis_6">
    <g id="ytick_5">
     <g id="line2d_34">
      <g>
       <use xlink:href="#mf6de628d41" x="57.6" y="140.757168" style="stroke: #000000; stroke-width: 0.8"/>
      </g>
     </g>
     <g id="text_8">
      <!-- 0 -->
      <g transform="translate(44.2375 144.556387)scale(0.1 -0.1)">
       <use xlink:href="#DejaVuSans-30"/>
      </g>
     </g>
    </g>
    <g id="ytick_6">
     <g id="line2d_35">
      <g>
       <use xlink:href="#mf6de628d41" x="57.6" y="98.771151" style="stroke: #000000; stroke-width: 0.8"/>
      </g>
     </g>
     <g id="text_9">
      <!-- 1 -->
      <g transform="translate(44.2375 102.57037)scale(0.1 -0.1)">
       <use xlink:href="#DejaVuSans-31"/>
      </g>
     </g>
    </g>
   </g>
   <g id="line2d_36">
    <path d="M 73.832727 140.325517 
L 90.919809 140.304121 
L 108.00689 140.284371 
L 125.093971 140.266217 
L 142.181053 140.249546 
L 159.268134 140.234237 
L 176.355215 140.220185 
L 193.442297 140.20731 
L 210.529378 140.195553 
L 227.616459 140.184868 
L 244.703541 140.175222 
L 261.790622 140.166589 
L 278.877703 140.158949 
L 295.964785 140.152288 
L 313.051866 140.146593 
L 330.138947 140.141857 
L 347.226029 140.138073 
L 364.31311 140.135238 
L 381.400191 140.133348 
L 398.487273 140.132403 
" clip-path="url(#pd85fc0323e)" style="fill: none; stroke: #1f77b4; stroke-width: 1.5; stroke-linecap: square"/>
   </g>
   <g id="line2d_37">
    <path d="M 73.832727 99.534077 
L 90.919809 99.537053 
L 108.00689 99.539897 
L 125.093971 99.542603 
L 142.181053 99.545168 
L 159.268134 99.547587 
L 176.355215 99.549857 
L 193.442297 99.551974 
L 210.529378 99.553937 
L 227.616459 99.555742 
L 244.703541 99.557389 
L 261.790622 99.558875 
L 278.877703 99.560199 
L 295.964785 99.56136 
L 313.051866 99.562357 
L 330.138947 99.563189 
L 347.226029 99.563855 
L 364.31311 99.564356 
L 381.400191 99.564689 
L 398.487273 99.564856 
" clip-path="url(#pd85fc0323e)" style="fill: none; stroke: #ff7f0e; stroke-width: 1.5; stroke-linecap: square"/>
   </g>
   <g id="line2d_38">
    <path d="M 73.832727 98.616298 
L 90.919809 98.624297 
L 108.00689 98.632285 
L 125.093971 98.640262 
L 142.181053 98.648231 
L 159.268134 98.656192 
L 176.355215 98.664147 
L 193.442297 98.672097 
L 210.529378 98.680041 
L 227.616459 98.687981 
L 244.703541 98.695917 
L 261.790622 98.703848 
L 278.877703 98.711776 
L 295.964785 98.719701 
L 313.051866 98.727622 
L 330.138947 98.735541 
L 347.226029 98.743458 
L 364.31311 98.751372 
L 381.400191 98.759285 
L 398.487273 98.767196 
" clip-path="url(#pd85fc0323e)" style="fill: none; stroke: #2ca02c; stroke-width: 1.5; stroke-linecap: square"/>
   </g>
   <g id="line2d_39">
    <path d="M 73.832727 98.615172 
L 90.919809 98.62318 
L 108.00689 98.631182 
L 125.093971 98.639179 
L 142.181053 98.647172 
L 159.268134 98.655163 
L 176.355215 98.663154 
L 193.442297 98.671145 
L 210.529378 98.679137 
L 227.616459 98.68713 
L 244.703541 98.695124 
L 261.790622 98.70312 
L 278.877703 98.711117 
L 295.964785 98.719116 
L 313.051866 98.727116 
L 330.138947 98.735118 
L 347.226029 98.743122 
L 364.31311 98.751128 
L 381.400191 98.759135 
L 398.487273 98.767145 
" clip-path="url(#pd85fc0323e)" style="fill: none; stroke: #d62728; stroke-width: 1.5; stroke-linecap: square"/>
   </g>
   <g id="line2d_40">
    <path d="M 73.832727 122.249531 
L 90.919809 122.250995 
L 108.00689 122.25403 
L 125.093971 122.258782 
L 142.181053 122.265397 
L 159.268134 122.273994 
L 176.355215 122.284661 
L 193.442297 122.297466 
L 210.529378 122.31246 
L 227.616459 122.329686 
L 244.703541 122.349181 
L 261.790622 122.370975 
L 278.877703 122.3951 
L 295.964785 122.421582 
L 313.051866 122.450448 
L 330.138947 122.481723 
L 347.226029 122.515432 
L 364.31311 122.551601 
L 381.400191 122.590256 
L 398.487273 122.631423 
" clip-path="url(#pd85fc0323e)" style="fill: none; stroke: #9467bd; stroke-width: 1.5; stroke-linecap: square"/>
   </g>
   <g id="line2d_41">
    <path d="M 73.832727 135.845354 
L 90.919809 135.847084 
L 108.00689 135.850635 
L 125.093971 135.856131 
L 142.181053 135.863711 
L 159.268134 135.873504 
L 176.355215 135.885614 
L 193.442297 135.900123 
L 210.529378 135.917097 
L 227.616459 135.936589 
L 244.703541 135.958646 
L 261.790622 135.983308 
L 278.877703 136.010614 
L 295.964785 136.040598 
L 313.051866 136.073295 
L 330.138947 136.108739 
L 347.226029 136.14696 
L 364.31311 136.187991 
L 381.400191 136.231862 
L 398.487273 136.278601 
" clip-path="url(#pd85fc0323e)" style="fill: none; stroke: #8c564b; stroke-width: 1.5; stroke-linecap: square"/>
   </g>
   <g id="line2d_42">
    <path d="M 73.832727 136.513503 
L 90.919809 136.513683 
L 108.00689 136.514049 
L 125.093971 136.51461 
L 142.181053 136.515378 
L 159.268134 136.516362 
L 176.355215 136.517567 
L 193.442297 136.518997 
L 210.529378 136.520652 
L 227.616459 136.52253 
L 244.703541 136.524625 
L 261.790622 136.526933 
L 278.877703 136.529444 
L 295.964785 136.532151 
L 313.051866 136.535042 
L 330.138947 136.538105 
L 347.226029 136.541328 
L 364.31311 136.544696 
L 381.400191 136.548194 
L 398.487273 136.551806 
" clip-path="url(#pd85fc0323e)" style="fill: none; stroke: #e377c2; stroke-width: 1.5; stroke-linecap: square"/>
   </g>
   <g id="line2d_43">
    <path d="M 73.832727 136.556111 
L 90.919809 136.556123 
L 108.00689 136.556147 
L 125.093971 136.556183 
L 142.181053 136.556232 
L 159.268134 136.556293 
L 176.355215 136.556368 
L 193.442297 136.556456 
L 210.529378 136.556558 
L 227.616459 136.556673 
L 244.703541 136.5568 
L 261.790622 136.556939 
L 278.877703 136.55709 
L 295.964785 136.557251 
L 313.051866 136.557421 
L 330.138947 136.557601 
L 347.226029 136.557787 
L 364.31311 136.557981 
L 381.400191 136.558179 
L 398.487273 136.558382 
" clip-path="url(#pd85fc0323e)" style="fill: none; stroke: #7f7f7f; stroke-width: 1.5; stroke-linecap: square"/>
   </g>
   <g id="line2d_44">
    <path d="M 73.832727 139.657545 
L 90.919809 139.442455 
L 108.00689 139.269189 
L 125.093971 139.124492 
L 142.181053 139.000815 
L 159.268134 138.893507 
L 176.355215 138.799537 
L 193.442297 138.716822 
L 210.529378 138.643862 
L 227.616459 138.579537 
L 244.703541 138.522983 
L 261.790622 138.473528 
L 278.877703 138.430635 
L 295.964785 138.393877 
L 313.051866 138.362915 
L 330.138947 138.337478 
L 347.226029 138.317355 
L 364.31311 138.302389 
L 381.400191 138.292467 
L 398.487273 138.28752 
" clip-path="url(#pd85fc0323e)" style="fill: none; stroke: #bcbd22; stroke-width: 1.5; stroke-linecap: square"/>
   </g>
   <g id="line2d_45">
    <path d="M 73.832727 140.220949 
L 90.919809 140.091313 
L 108.00689 139.986467 
L 125.093971 139.898381 
L 142.181053 139.822528 
L 159.268134 139.756148 
L 176.355215 139.697482 
L 193.442297 139.645358 
L 210.529378 139.598959 
L 227.616459 139.557694 
L 244.703541 139.521121 
L 261.790622 139.488901 
L 278.877703 139.460769 
L 295.964785 139.436519 
L 313.051866 139.415986 
L 330.138947 139.399042 
L 347.226029 139.38559 
L 364.31311 139.375556 
L 381.400191 139.368891 
L 398.487273 139.365563 
" clip-path="url(#pd85fc0323e)" style="fill: none; stroke: #17becf; stroke-width: 1.5; stroke-linecap: square"/>
   </g>
   <g id="line2d_46">
    <path d="M 73.832727 140.290506 
L 90.919809 140.220255 
L 108.00689 140.160236 
L 125.093971 140.108094 
L 142.181053 140.062186 
L 159.268134 140.021368 
L 176.355215 139.984853 
L 193.442297 139.952093 
L 210.529378 139.922694 
L 227.616459 139.896371 
L 244.703541 139.872906 
L 261.790622 139.85213 
L 278.877703 139.833915 
L 295.964785 139.818155 
L 313.051866 139.804772 
L 330.138947 139.7937 
L 347.226029 139.784893 
L 364.31311 139.778314 
L 381.400191 139.773939 
L 398.487273 139.771754 
" clip-path="url(#pd85fc0323e)" style="fill: none; stroke: #1f77b4; stroke-width: 1.5; stroke-linecap: square"/>
   </g>
   <g id="line2d_47">
    <path d="M 73.832727 140.312465 
L 90.919809 140.270768 
L 108.00689 140.233685 
L 125.093971 140.200568 
L 142.181053 140.170831 
L 159.268134 140.144005 
L 176.355215 140.119734 
L 193.442297 140.097762 
L 210.529378 140.077899 
L 227.616459 140.060004 
L 244.703541 140.043968 
L 261.790622 140.029709 
L 278.877703 140.01716 
L 295.964785 140.006269 
L 313.051866 139.996997 
L 330.138947 139.98931 
L 347.226029 139.983185 
L 364.31311 139.978603 
L 381.400191 139.975555 
L 398.487273 139.974031 
" clip-path="url(#pd85fc0323e)" style="fill: none; stroke: #ff7f0e; stroke-width: 1.5; stroke-linecap: square"/>
   </g>
   <g id="line2d_48">
    <path d="M 73.832727 140.322447 
L 90.919809 140.296003 
L 108.00689 140.271836 
L 125.093971 140.249801 
L 142.181053 140.229698 
L 159.268134 140.211333 
L 176.355215 140.194549 
L 193.442297 140.179229 
L 210.529378 140.165283 
L 227.616459 140.152645 
L 244.703541 140.141265 
L 261.790622 140.131101 
L 278.877703 140.122124 
L 295.964785 140.11431 
L 313.051866 140.10764 
L 330.138947 140.1021 
L 347.226029 140.097677 
L 364.31311 140.094366 
L 381.400191 140.09216 
L 398.487273 140.091058 
" clip-path="url(#pd85fc0323e)" style="fill: none; stroke: #2ca02c; stroke-width: 1.5; stroke-linecap: square"/>
   </g>
   <g id="patch_10">
    <path d="M 57.6 142.411034 
L 57.6 96.529655 
" style="fill: none; stroke: #000000; stroke-width: 0.8; stroke-linejoin: miter; stroke-linecap: square"/>
   </g>
   <g id="patch_11">
    <path d="M 414.72 142.411034 
L 414.72 96.529655 
" style="fill: none; stroke: #000000; stroke-width: 0.8; stroke-linejoin: miter; stroke-linecap: square"/>
   </g>
   <g id="patch_12">
    <path d="M 57.6 142.411034 
L 414.72 142.411034 
" style="fill: none; stroke: #000000; stroke-width: 0.8; stroke-linejoin: miter; stroke-linecap: square"/>
   </g>
   <g id="patch_13">
    <path d="M 57.6 96.529655 
L 414.72 96.529655 
" style="fill: none; stroke: #000000; stroke-width: 0.8; stroke-linejoin: miter; stroke-linecap: square"/>
   </g>
   <g id="text_10">
    <!-- Pressure - Container 1 -->
    <g transform="translate(169.523438 93.529655)scale(0.12 -0.12)">
     <defs>
      <path id="DejaVuSans-50" d="M 1259 4147 
L 1259 2394 
L 2053 2394 
Q 2494 2394 2734 2622 
Q 2975 2850 2975 3272 
Q 2975 3691 2734 3919 
Q 2494 4147 2053 4147 
L 1259 4147 
z
M 628 4666 
L 2053 4666 
Q 2838 4666 3239 4311 
Q 3641 3956 3641 3272 
Q 3641 2581 3239 2228 
Q 2838 1875 2053 1875 
L 1259 1875 
L 1259 0 
L 628 0 
L 628 4666 
z
" transform="scale(0.015625)"/>
      <path id="DejaVuSans-75" d="M 544 1381 
L 544 3500 
L 1119 3500 
L 1119 1403 
Q 1119 906 1312 657 
Q 1506 409 1894 409 
Q 2359 409 2629 706 
Q 2900 1003 2900 1516 
L 2900 3500 
L 3475 3500 
L 3475 0 
L 2900 0 
L 2900 538 
Q 2691 219 2414 64 
Q 2138 -91 1772 -91 
Q 1169 -91 856 284 
Q 544 659 544 1381 
z
M 1991 3584 
L 1991 3584 
z
" transform="scale(0.015625)"/>
     </defs>
     <use xlink:href="#DejaVuSans-50"/>
     <use xlink:href="#DejaVuSans-72" x="58.552734"/>
     <use xlink:href="#DejaVuSans-65" x="97.416016"/>
     <use xlink:href="#DejaVuSans-73" x="158.939453"/>
     <use xlink:href="#DejaVuSans-73" x="211.039062"/>
     <use xlink:href="#DejaVuSans-75" x="263.138672"/>
     <use xlink:href="#DejaVuSans-72" x="326.517578"/>
     <use xlink:href="#DejaVuSans-65" x="365.380859"/>
     <use xlink:href="#DejaVuSans-20" x="426.904297"/>
     <use xlink:href="#DejaVuSans-2d" x="458.691406"/>
     <use xlink:href="#DejaVuSans-20" x="494.775391"/>
     <use xlink:href="#DejaVuSans-43" x="526.5625"/>
     <use xlink:href="#DejaVuSans-6f" x="596.386719"/>
     <use xlink:href="#DejaVuSans-6e" x="657.568359"/>
     <use xlink:href="#DejaVuSans-74" x="720.947266"/>
     <use xlink:href="#DejaVuSans-61" x="760.15625"/>
     <use xlink:href="#DejaVuSans-69" x="821.435547"/>
     <use xlink:href="#DejaVuSans-6e" x="849.21875"/>
     <use xlink:href="#DejaVuSans-65" x="912.597656"/>
     <use xlink:href="#DejaVuSans-72" x="974.121094"/>
     <use xlink:href="#DejaVuSans-20" x="1015.234375"/>
     <use xlink:href="#DejaVuSans-31" x="1047.021484"/>
    </g>
   </g>
  </g>
  <g id="axes_4">
   <g id="patch_14">
    <path d="M 57.6 197.46869 
L 414.72 197.46869 
L 414.72 151.58731 
L 57.6 151.58731 
z
" style="fill: #ffffff"/>
   </g>
   <g id="matplotlib.axis_7">
    <g id="xtick_17">
     <g id="line2d_49">
      <g>
       <use xlink:href="#me45828e446" x="73.832727" y="197.46869" style="stroke: #000000; stroke-width: 0.8"/>
      </g>
     </g>
    </g>
    <g id="xtick_18">
     <g id="line2d_50">
      <g>
       <use xlink:href="#me45828e446" x="116.550431" y="197.46869" style="stroke: #000000; stroke-width: 0.8"/>
      </g>
     </g>
    </g>
    <g id="xtick_19">
     <g id="line2d_51">
      <g>
       <use xlink:href="#me45828e446" x="159.268134" y="197.46869" style="stroke: #000000; stroke-width: 0.8"/>
      </g>
     </g>
    </g>
    <g id="xtick_20">
     <g id="line2d_52">
      <g>
       <use xlink:href="#me45828e446" x="201.985837" y="197.46869" style="stroke: #000000; stroke-width: 0.8"/>
      </g>
     </g>
    </g>
    <g id="xtick_21">
     <g id="line2d_53">
      <g>
       <use xlink:href="#me45828e446" x="244.703541" y="197.46869" style="stroke: #000000; stroke-width: 0.8"/>
      </g>
     </g>
    </g>
    <g id="xtick_22">
     <g id="line2d_54">
      <g>
       <use xlink:href="#me45828e446" x="287.421244" y="197.46869" style="stroke: #000000; stroke-width: 0.8"/>
      </g>
     </g>
    </g>
    <g id="xtick_23">
     <g id="line2d_55">
      <g>
       <use xlink:href="#me45828e446" x="330.138947" y="197.46869" style="stroke: #000000; stroke-width: 0.8"/>
      </g>
     </g>
    </g>
    <g id="xtick_24">
     <g id="line2d_56">
      <g>
       <use xlink:href="#me45828e446" x="372.856651" y="197.46869" style="stroke: #000000; stroke-width: 0.8"/>
      </g>
     </g>
    </g>
   </g>
   <g id="matplotlib.axis_8">
    <g id="ytick_7">
     <g id="line2d_57">
      <g>
       <use xlink:href="#mf6de628d41" x="57.6" y="195.888539" style="stroke: #000000; stroke-width: 0.8"/>
      </g>
     </g>
     <g id="text_11">
      <!-- 0.0 -->
      <g transform="translate(34.696875 199.687758)scale(0.1 -0.1)">
       <defs>
        <path id="DejaVuSans-2e" d="M 684 794 
L 1344 794 
L 1344 0 
L 684 0 
L 684 794 
z
" transform="scale(0.015625)"/>
       </defs>
       <use xlink:href="#DejaVuSans-30"/>
       <use xlink:href="#DejaVuSans-2e" x="63.623047"/>
       <use xlink:href="#DejaVuSans-30" x="95.410156"/>
      </g>
     </g>
    </g>
    <g id="ytick_8">
     <g id="line2d_58">
      <g>
       <use xlink:href="#mf6de628d41" x="57.6" y="158.887882" style="stroke: #000000; stroke-width: 0.8"/>
      </g>
     </g>
     <g id="text_12">
      <!-- 0.2 -->
      <g transform="translate(34.696875 162.687101)scale(0.1 -0.1)">
       <use xlink:href="#DejaVuSans-30"/>
       <use xlink:href="#DejaVuSans-2e" x="63.623047"/>
       <use xlink:href="#DejaVuSans-32" x="95.410156"/>
      </g>
     </g>
    </g>
   </g>
   <g id="line2d_59">
    <path d="M 73.832727 155.790288 
L 90.919809 158.476198 
L 108.00689 162.569888 
L 125.093971 167.070691 
L 142.181053 171.31338 
L 159.268134 174.969754 
L 176.355215 177.979551 
L 193.442297 180.412863 
L 210.529378 182.369534 
L 227.616459 183.938989 
L 244.703541 185.192781 
L 261.790622 186.187435 
L 278.877703 186.968579 
L 295.964785 187.574082 
L 313.051866 188.036033 
L 330.138947 188.381915 
L 347.226029 188.635293 
L 364.31311 188.816229 
L 381.400191 188.941599 
L 398.487273 189.025164 
" clip-path="url(#pfc7cea76e5)" style="fill: none; stroke: #1f77b4; stroke-width: 1.5; stroke-linecap: square"/>
   </g>
   <g id="line2d_60">
    <path d="M 73.832727 189.120134 
L 90.919809 190.998034 
L 108.00689 192.306035 
L 125.093971 193.177597 
L 142.181053 193.761127 
L 159.268134 194.165441 
L 176.355215 194.457585 
L 193.442297 194.676381 
L 210.529378 194.844435 
L 227.616459 194.975476 
L 244.703541 195.078313 
L 261.790622 195.15894 
L 278.877703 195.22169 
L 295.964785 195.269897 
L 313.051866 195.306275 
L 330.138947 195.333137 
L 347.226029 195.352495 
L 364.31311 195.36612 
L 381.400191 195.375557 
L 398.487273 195.38211 
" clip-path="url(#pfc7cea76e5)" style="fill: none; stroke: #ff7f0e; stroke-width: 1.5; stroke-linecap: square"/>
   </g>
   <g id="line2d_61">
    <path d="M 73.832727 188.699427 
L 90.919809 190.671356 
L 108.00689 192.109775 
L 125.093971 193.065375 
L 142.181053 193.695423 
L 159.268134 194.124861 
L 176.355215 194.431012 
L 193.442297 194.658112 
L 210.529378 194.831449 
L 227.616459 194.966084 
L 244.703541 195.071508 
L 261.790622 195.154083 
L 278.877703 195.218347 
L 295.964785 195.267756 
L 313.051866 195.305095 
L 330.138947 195.332718 
L 347.226029 195.352669 
L 364.31311 195.366734 
L 381.400191 195.376469 
L 398.487273 195.383172 
" clip-path="url(#pfc7cea76e5)" style="fill: none; stroke: #2ca02c; stroke-width: 1.5; stroke-linecap: square"/>
   </g>
   <g id="line2d_62">
    <path d="M 73.832727 187.760426 
L 90.919809 189.590734 
L 108.00689 191.33132 
L 125.093971 192.594238 
L 142.181053 193.418611 
L 159.268134 193.955104 
L 176.355215 194.319737 
L 193.442297 194.580508 
L 210.529378 194.774743 
L 227.616459 194.923342 
L 244.703541 195.038694 
L 261.790622 195.128674 
L 278.877703 195.198651 
L 295.964785 195.252559 
L 313.051866 195.293473 
L 330.138947 195.323926 
L 347.226029 195.346082 
L 364.31311 195.361817 
L 381.400191 195.372758 
L 398.487273 195.380261 
" clip-path="url(#pfc7cea76e5)" style="fill: none; stroke: #d62728; stroke-width: 1.5; stroke-linecap: square"/>
   </g>
   <g id="line2d_63">
    <path d="M 73.832727 185.488879 
L 90.919809 187.399438 
L 108.00689 189.557355 
L 125.093971 191.311124 
L 142.181053 192.510569 
L 159.268134 193.289892 
L 176.355215 193.807537 
L 193.442297 194.168622 
L 210.529378 194.432569 
L 227.616459 194.632166 
L 244.703541 194.786207 
L 261.790622 194.906194 
L 278.877703 194.999697 
L 295.964785 195.072084 
L 313.051866 195.127427 
L 330.138947 195.16901 
L 347.226029 195.199588 
L 364.31311 195.221531 
L 381.400191 195.236888 
L 398.487273 195.247379 
" clip-path="url(#pfc7cea76e5)" style="fill: none; stroke: #9467bd; stroke-width: 1.5; stroke-linecap: square"/>
   </g>
   <g id="line2d_64">
    <path d="M 73.832727 176.435126 
L 90.919809 179.680552 
L 108.00689 183.439883 
L 125.093971 186.664339 
L 142.181053 188.989018 
L 159.268134 190.554188 
L 176.355215 191.610716 
L 193.442297 192.349906 
L 210.529378 192.889075 
L 227.616459 193.295956 
L 244.703541 193.610064 
L 261.790622 193.855515 
L 278.877703 194.047946 
L 295.964785 194.198185 
L 313.051866 194.314239 
L 330.138947 194.402389 
L 347.226029 194.467802 
L 364.31311 194.514866 
L 381.400191 194.547366 
L 398.487273 194.568533 
" clip-path="url(#pfc7cea76e5)" style="fill: none; stroke: #8c564b; stroke-width: 1.5; stroke-linecap: square"/>
   </g>
   <g id="line2d_65">
    <path d="M 73.832727 174.559847 
L 90.919809 178.069091 
L 108.00689 182.153872 
L 125.093971 185.684997 
L 142.181053 188.25019 
L 159.268134 189.986668 
L 176.355215 191.162474 
L 193.442297 191.986466 
L 210.529378 192.588203 
L 227.616459 193.042964 
L 244.703541 193.394816 
L 261.790622 193.670691 
L 278.877703 193.888072 
L 295.964785 194.059079 
L 313.051866 194.192683 
L 330.138947 194.295927 
L 347.226029 194.374607 
L 364.31311 194.433638 
L 381.400191 194.477258 
L 398.487273 194.509065 
" clip-path="url(#pfc7cea76e5)" style="fill: none; stroke: #e377c2; stroke-width: 1.5; stroke-linecap: square"/>
   </g>
   <g id="line2d_66">
    <path d="M 73.832727 174.428008 
L 90.919809 177.951049 
L 108.00689 182.058445 
L 125.093971 185.612202 
L 142.181053 188.195725 
L 159.268134 189.945404 
L 176.355215 191.13042 
L 193.442297 191.960959 
L 210.529378 192.56753 
L 227.616459 193.025998 
L 244.703541 193.380781 
L 261.790622 193.659028 
L 278.877703 193.878366 
L 295.964785 194.051013 
L 313.051866 194.186016 
L 330.138947 194.290476 
L 347.226029 194.370234 
L 364.31311 194.430244 
L 381.400191 194.474772 
L 398.487273 194.507423 
" clip-path="url(#pfc7cea76e5)" style="fill: none; stroke: #7f7f7f; stroke-width: 1.5; stroke-linecap: square"/>
   </g>
   <g id="line2d_67">
    <path d="M 73.832727 158.980732 
L 90.919809 166.957093 
L 108.00689 173.880368 
L 125.093971 179.427363 
L 142.181053 183.490132 
L 159.268134 186.318106 
L 176.355215 188.278245 
L 193.442297 189.669388 
L 210.529378 190.688051 
L 227.616459 191.45472 
L 244.703541 192.043291 
L 261.790622 192.500647 
L 278.877703 192.857977 
L 295.964785 193.1371 
L 313.051866 193.354053 
L 330.138947 193.521153 
L 347.226029 193.648214 
L 364.31311 193.743257 
L 381.400191 193.812941 
L 398.487273 193.862695 
" clip-path="url(#pfc7cea76e5)" style="fill: none; stroke: #bcbd22; stroke-width: 1.5; stroke-linecap: square"/>
   </g>
   <g id="line2d_68">
    <path d="M 73.832727 153.672828 
L 90.919809 160.761923 
L 108.00689 167.64886 
L 125.093971 173.623735 
L 142.181053 178.359707 
L 159.268134 181.905507 
L 176.355215 184.513197 
L 193.442297 186.447278 
L 210.529378 187.908265 
L 227.616459 189.031756 
L 244.703541 189.907257 
L 261.790622 190.594889 
L 278.877703 191.136468 
L 295.964785 191.56227 
L 313.051866 191.895113 
L 330.138947 192.152827 
L 347.226029 192.349766 
L 364.31311 192.497729 
L 381.400191 192.606525 
L 398.487273 192.684138 
" clip-path="url(#pfc7cea76e5)" style="fill: none; stroke: #17becf; stroke-width: 1.5; stroke-linecap: square"/>
   </g>
   <g id="line2d_69">
    <path d="M 73.832727 154.65892 
L 90.919809 159.371797 
L 108.00689 165.027104 
L 125.093971 170.488926 
L 142.181053 175.161268 
L 159.268134 178.879374 
L 176.355215 181.749487 
L 193.442297 183.959187 
L 210.529378 185.67627 
L 227.616459 187.025285 
L 244.703541 188.093905 
L 261.790622 188.944008 
L 278.877703 189.620404 
L 295.964785 190.156664 
L 313.051866 190.578834 
L 330.138947 190.907774 
L 347.226029 191.160618 
L 364.31311 191.35169 
L 381.400191 191.493055 
L 398.487273 191.594605 
" clip-path="url(#pfc7cea76e5)" style="fill: none; stroke: #1f77b4; stroke-width: 1.5; stroke-linecap: square"/>
   </g>
   <g id="line2d_70">
    <path d="M 73.832727 155.235901 
L 90.919809 158.739535 
L 108.00689 163.543046 
L 125.093971 168.521116 
L 142.181053 173.004861 
L 159.268134 176.725956 
L 176.355215 179.698519 
L 193.442297 182.050501 
L 210.529378 183.91788 
L 227.616459 185.41 
L 244.703541 186.607932 
L 261.790622 187.571202 
L 278.877703 188.344371 
L 295.964785 188.961812 
L 313.051866 189.450896 
L 330.138947 189.834055 
L 347.226029 190.130092 
L 364.31311 190.354991 
L 381.400191 190.522413 
L 398.487273 190.643645 
" clip-path="url(#pfc7cea76e5)" style="fill: none; stroke: #ff7f0e; stroke-width: 1.5; stroke-linecap: square"/>
   </g>
   <g id="line2d_71">
    <path d="M 73.832727 155.51572 
L 90.919809 158.376515 
L 108.00689 162.627487 
L 125.093971 167.231573 
L 142.181053 171.52106 
L 159.268134 175.184089 
L 176.355215 178.181571 
L 193.442297 180.600781 
L 210.529378 182.552745 
L 227.616459 184.132961 
L 244.703541 185.415175 
L 261.790622 186.455231 
L 278.877703 187.296058 
L 295.964785 187.971584 
L 313.051866 188.509442 
L 330.138947 188.932749 
L 347.226029 189.261239 
L 364.31311 189.511963 
L 381.400191 189.699685 
L 398.487273 189.83669 
" clip-path="url(#pfc7cea76e5)" style="fill: none; stroke: #2ca02c; stroke-width: 1.5; stroke-linecap: square"/>
   </g>
   <g id="patch_15">
    <path d="M 57.6 197.46869 
L 57.6 151.58731 
" style="fill: none; stroke: #000000; stroke-width: 0.8; stroke-linejoin: miter; stroke-linecap: square"/>
   </g>
   <g id="patch_16">
    <path d="M 414.72 197.46869 
L 414.72 151.58731 
" style="fill: none; stroke: #000000; stroke-width: 0.8; stroke-linejoin: miter; stroke-linecap: square"/>
   </g>
   <g id="patch_17">
    <path d="M 57.6 197.46869 
L 414.72 197.46869 
" style="fill: none; stroke: #000000; stroke-width: 0.8; stroke-linejoin: miter; stroke-linecap: square"/>
   </g>
   <g id="patch_18">
    <path d="M 57.6 151.58731 
L 414.72 151.58731 
" style="fill: none; stroke: #000000; stroke-width: 0.8; stroke-linejoin: miter; stroke-linecap: square"/>
   </g>
   <g id="text_13">
    <!-- yA - Container 1 -->
    <g transform="translate(187.48125 148.58731)scale(0.12 -0.12)">
     <defs>
      <path id="DejaVuSans-41" d="M 2188 4044 
L 1331 1722 
L 3047 1722 
L 2188 4044 
z
M 1831 4666 
L 2547 4666 
L 4325 0 
L 3669 0 
L 3244 1197 
L 1141 1197 
L 716 0 
L 50 0 
L 1831 4666 
z
" transform="scale(0.015625)"/>
     </defs>
     <use xlink:href="#DejaVuSans-79"/>
     <use xlink:href="#DejaVuSans-41" x="59.179688"/>
     <use xlink:href="#DejaVuSans-20" x="127.587891"/>
     <use xlink:href="#DejaVuSans-2d" x="159.375"/>
     <use xlink:href="#DejaVuSans-20" x="195.458984"/>
     <use xlink:href="#DejaVuSans-43" x="227.246094"/>
     <use xlink:href="#DejaVuSans-6f" x="297.070312"/>
     <use xlink:href="#DejaVuSans-6e" x="358.251953"/>
     <use xlink:href="#DejaVuSans-74" x="421.630859"/>
     <use xlink:href="#DejaVuSans-61" x="460.839844"/>
     <use xlink:href="#DejaVuSans-69" x="522.119141"/>
     <use xlink:href="#DejaVuSans-6e" x="549.902344"/>
     <use xlink:href="#DejaVuSans-65" x="613.28125"/>
     <use xlink:href="#DejaVuSans-72" x="674.804688"/>
     <use xlink:href="#DejaVuSans-20" x="715.917969"/>
     <use xlink:href="#DejaVuSans-31" x="747.705078"/>
    </g>
   </g>
  </g>
  <g id="axes_5">
   <g id="patch_19">
    <path d="M 57.6 252.526345 
L 414.72 252.526345 
L 414.72 206.644966 
L 57.6 206.644966 
z
" style="fill: #ffffff"/>
   </g>
   <g id="matplotlib.axis_9">
    <g id="xtick_25">
     <g id="line2d_72">
      <g>
       <use xlink:href="#me45828e446" x="73.832727" y="252.526345" style="stroke: #000000; stroke-width: 0.8"/>
      </g>
     </g>
    </g>
    <g id="xtick_26">
     <g id="line2d_73">
      <g>
       <use xlink:href="#me45828e446" x="116.550431" y="252.526345" style="stroke: #000000; stroke-width: 0.8"/>
      </g>
     </g>
    </g>
    <g id="xtick_27">
     <g id="line2d_74">
      <g>
       <use xlink:href="#me45828e446" x="159.268134" y="252.526345" style="stroke: #000000; stroke-width: 0.8"/>
      </g>
     </g>
    </g>
    <g id="xtick_28">
     <g id="line2d_75">
      <g>
       <use xlink:href="#me45828e446" x="201.985837" y="252.526345" style="stroke: #000000; stroke-width: 0.8"/>
      </g>
     </g>
    </g>
    <g id="xtick_29">
     <g id="line2d_76">
      <g>
       <use xlink:href="#me45828e446" x="244.703541" y="252.526345" style="stroke: #000000; stroke-width: 0.8"/>
      </g>
     </g>
    </g>
    <g id="xtick_30">
     <g id="line2d_77">
      <g>
       <use xlink:href="#me45828e446" x="287.421244" y="252.526345" style="stroke: #000000; stroke-width: 0.8"/>
      </g>
     </g>
    </g>
    <g id="xtick_31">
     <g id="line2d_78">
      <g>
       <use xlink:href="#me45828e446" x="330.138947" y="252.526345" style="stroke: #000000; stroke-width: 0.8"/>
      </g>
     </g>
    </g>
    <g id="xtick_32">
     <g id="line2d_79">
      <g>
       <use xlink:href="#me45828e446" x="372.856651" y="252.526345" style="stroke: #000000; stroke-width: 0.8"/>
      </g>
     </g>
    </g>
   </g>
   <g id="matplotlib.axis_10">
    <g id="ytick_9">
     <g id="line2d_80">
      <g>
       <use xlink:href="#mf6de628d41" x="57.6" y="236.125629" style="stroke: #000000; stroke-width: 0.8"/>
      </g>
     </g>
     <g id="text_14">
      <!-- 0.8 -->
      <g transform="translate(34.696875 239.924847)scale(0.1 -0.1)">
       <defs>
        <path id="DejaVuSans-38" d="M 2034 2216 
Q 1584 2216 1326 1975 
Q 1069 1734 1069 1313 
Q 1069 891 1326 650 
Q 1584 409 2034 409 
Q 2484 409 2743 651 
Q 3003 894 3003 1313 
Q 3003 1734 2745 1975 
Q 2488 2216 2034 2216 
z
M 1403 2484 
Q 997 2584 770 2862 
Q 544 3141 544 3541 
Q 544 4100 942 4425 
Q 1341 4750 2034 4750 
Q 2731 4750 3128 4425 
Q 3525 4100 3525 3541 
Q 3525 3141 3298 2862 
Q 3072 2584 2669 2484 
Q 3125 2378 3379 2068 
Q 3634 1759 3634 1313 
Q 3634 634 3220 271 
Q 2806 -91 2034 -91 
Q 1263 -91 848 271 
Q 434 634 434 1313 
Q 434 1759 690 2068 
Q 947 2378 1403 2484 
z
M 1172 3481 
Q 1172 3119 1398 2916 
Q 1625 2713 2034 2713 
Q 2441 2713 2670 2916 
Q 2900 3119 2900 3481 
Q 2900 3844 2670 4047 
Q 2441 4250 2034 4250 
Q 1625 4250 1398 4047 
Q 1172 3844 1172 3481 
z
" transform="scale(0.015625)"/>
       </defs>
       <use xlink:href="#DejaVuSans-30"/>
       <use xlink:href="#DejaVuSans-2e" x="63.623047"/>
       <use xlink:href="#DejaVuSans-38" x="95.410156"/>
      </g>
     </g>
    </g>
    <g id="ytick_10">
     <g id="line2d_81">
      <g>
       <use xlink:href="#mf6de628d41" x="57.6" y="219.328616" style="stroke: #000000; stroke-width: 0.8"/>
      </g>
     </g>
     <g id="text_15">
      <!-- 0.9 -->
      <g transform="translate(34.696875 223.127835)scale(0.1 -0.1)">
       <defs>
        <path id="DejaVuSans-39" d="M 703 97 
L 703 672 
Q 941 559 1184 500 
Q 1428 441 1663 441 
Q 2288 441 2617 861 
Q 2947 1281 2994 2138 
Q 2813 1869 2534 1725 
Q 2256 1581 1919 1581 
Q 1219 1581 811 2004 
Q 403 2428 403 3163 
Q 403 3881 828 4315 
Q 1253 4750 1959 4750 
Q 2769 4750 3195 4129 
Q 3622 3509 3622 2328 
Q 3622 1225 3098 567 
Q 2575 -91 1691 -91 
Q 1453 -91 1209 -44 
Q 966 3 703 97 
z
M 1959 2075 
Q 2384 2075 2632 2365 
Q 2881 2656 2881 3163 
Q 2881 3666 2632 3958 
Q 2384 4250 1959 4250 
Q 1534 4250 1286 3958 
Q 1038 3666 1038 3163 
Q 1038 2656 1286 2365 
Q 1534 2075 1959 2075 
z
" transform="scale(0.015625)"/>
       </defs>
       <use xlink:href="#DejaVuSans-30"/>
       <use xlink:href="#DejaVuSans-2e" x="63.623047"/>
       <use xlink:href="#DejaVuSans-39" x="95.410156"/>
      </g>
     </g>
    </g>
   </g>
   <g id="line2d_82">
    <path d="M 73.832727 249.484796 
L 90.919809 247.284989 
L 108.00689 243.901705 
L 125.093971 240.171393 
L 142.181053 236.649713 
L 159.268134 233.610951 
L 176.355215 231.105991 
L 193.442297 229.077051 
L 210.529378 227.44151 
L 227.616459 226.125361 
L 244.703541 225.069422 
L 261.790622 224.226976 
L 278.877703 223.560324 
L 295.964785 223.03819 
L 313.051866 222.634071 
L 330.138947 222.325263 
L 347.226029 222.09231 
L 364.31311 221.918664 
L 381.400191 221.790487 
L 398.487273 221.696901 
" clip-path="url(#p378c9b3a19)" style="fill: none; stroke: #1f77b4; stroke-width: 1.5; stroke-linecap: square"/>
   </g>
   <g id="line2d_83">
    <path d="M 73.832727 217.123024 
L 90.919809 215.438035 
L 108.00689 214.239428 
L 125.093971 213.408675 
L 142.181053 212.817237 
L 159.268134 212.371793 
L 176.355215 212.015099 
L 193.442297 211.714066 
L 210.529378 211.449397 
L 227.616459 211.209264 
L 244.703541 210.985822 
L 261.790622 210.773272 
L 278.877703 210.566693 
L 295.964785 210.361303 
L 313.051866 210.151954 
L 330.138947 209.932696 
L 347.226029 209.696038 
L 364.31311 209.431126 
L 381.400191 209.118657 
L 398.487273 208.730483 
" clip-path="url(#p378c9b3a19)" style="fill: none; stroke: #ff7f0e; stroke-width: 1.5; stroke-linecap: square"/>
   </g>
   <g id="line2d_84">
    <path d="M 73.832727 217.552672 
L 90.919809 215.829338 
L 108.00689 214.539813 
L 125.093971 213.646124 
L 142.181053 213.018941 
L 159.268134 212.554945 
L 176.355215 212.190038 
L 193.442297 211.887372 
L 210.529378 211.625609 
L 227.616459 211.39167 
L 244.703541 211.176861 
L 261.790622 210.974824 
L 278.877703 210.780425 
L 295.964785 210.589075 
L 313.051866 210.396255 
L 330.138947 210.197065 
L 347.226029 209.985605 
L 364.31311 209.75377 
L 381.400191 209.488647 
L 398.487273 209.177783 
" clip-path="url(#p378c9b3a19)" style="fill: none; stroke: #2ca02c; stroke-width: 1.5; stroke-linecap: square"/>
   </g>
   <g id="line2d_85">
    <path d="M 73.832727 218.37514 
L 90.919809 216.816412 
L 108.00689 215.325867 
L 125.093971 214.229575 
L 142.181053 213.492585 
L 159.268134 212.986627 
L 176.355215 212.613761 
L 193.442297 212.317317 
L 210.529378 212.066827 
L 227.616459 211.845702 
L 244.703541 211.644369 
L 261.790622 211.456799 
L 278.877703 211.278766 
L 295.964785 211.10692 
L 313.051866 210.938271 
L 330.138947 210.769864 
L 347.226029 210.598515 
L 364.31311 210.420481 
L 381.400191 210.230895 
L 398.487273 210.025679 
" clip-path="url(#p378c9b3a19)" style="fill: none; stroke: #d62728; stroke-width: 1.5; stroke-linecap: square"/>
   </g>
   <g id="line2d_86">
    <path d="M 73.832727 220.664034 
L 90.919809 219.042679 
L 108.00689 217.209205 
L 125.093971 215.714441 
L 142.181053 214.684101 
L 159.268134 214.003083 
L 176.355215 213.536165 
L 193.442297 213.193764 
L 210.529378 212.92539 
L 227.616459 212.703398 
L 244.703541 212.512182 
L 261.790622 212.342402 
L 278.877703 212.188071 
L 295.964785 212.045024 
L 313.051866 211.910103 
L 330.138947 211.780689 
L 347.226029 211.654441 
L 364.31311 211.529125 
L 381.400191 211.402489 
L 398.487273 211.272786 
" clip-path="url(#p378c9b3a19)" style="fill: none; stroke: #9467bd; stroke-width: 1.5; stroke-linecap: square"/>
   </g>
   <g id="line2d_87">
    <path d="M 73.832727 229.46705 
L 90.919809 226.717004 
L 108.00689 223.530421 
L 125.093971 220.794787 
L 142.181053 218.818549 
L 159.268134 217.482466 
L 176.355215 216.57372 
L 193.442297 215.930024 
L 210.529378 215.451855 
L 227.616459 215.081782 
L 244.703541 214.786358 
L 261.790622 214.54524 
L 278.877703 214.345309 
L 295.964785 214.177537 
L 313.051866 214.035288 
L 330.138947 213.913371 
L 347.226029 213.807513 
L 364.31311 213.714058 
L 381.400191 213.629804 
L 398.487273 213.552069 
" clip-path="url(#p378c9b3a19)" style="fill: none; stroke: #8c564b; stroke-width: 1.5; stroke-linecap: square"/>
   </g>
   <g id="line2d_88">
    <path d="M 73.832727 231.246923 
L 90.919809 228.274161 
L 108.00689 224.812507 
L 125.093971 221.817203 
L 142.181053 219.636806 
L 159.268134 218.154853 
L 176.355215 217.144149 
L 193.442297 216.427619 
L 210.529378 215.895382 
L 227.616459 215.483583 
L 244.703541 215.154867 
L 261.790622 214.886441 
L 278.877703 214.663554 
L 295.964785 214.476017 
L 313.051866 214.316313 
L 330.138947 214.178549 
L 347.226029 214.057869 
L 364.31311 213.950127 
L 381.400191 213.85171 
L 398.487273 213.759972 
" clip-path="url(#p378c9b3a19)" style="fill: none; stroke: #e377c2; stroke-width: 1.5; stroke-linecap: square"/>
   </g>
   <g id="line2d_89">
    <path d="M 73.832727 231.37264 
L 90.919809 228.388293 
L 108.00689 224.907492 
L 125.093971 221.892947 
L 142.181053 219.696877 
L 159.268134 218.203539 
L 176.355215 217.184792 
L 193.442297 216.462441 
L 210.529378 215.925802 
L 227.616459 215.510523 
L 244.703541 215.178948 
L 261.790622 214.908098 
L 278.877703 214.683097 
L 295.964785 214.493671 
L 313.051866 214.332238 
L 330.138947 214.192854 
L 347.226029 214.070626 
L 364.31311 213.961377 
L 381.400191 213.861482 
L 398.487273 213.768968 
" clip-path="url(#p378c9b3a19)" style="fill: none; stroke: #7f7f7f; stroke-width: 1.5; stroke-linecap: square"/>
   </g>
   <g id="line2d_90">
    <path d="M 73.832727 245.440404 
L 90.919809 238.663828 
L 108.00689 232.777439 
L 125.093971 228.051143 
L 142.181053 224.575244 
L 159.268134 222.139787 
L 176.355215 220.435858 
L 193.442297 219.211742 
L 210.529378 218.301782 
L 227.616459 217.60432 
L 244.703541 217.056944 
L 261.790622 216.620019 
L 278.877703 216.267163 
L 295.964785 215.979906 
L 313.051866 215.744676 
L 330.138947 215.551047 
L 347.226029 215.390722 
L 364.31311 215.256937 
L 381.400191 215.144197 
L 398.487273 215.048738 
" clip-path="url(#p378c9b3a19)" style="fill: none; stroke: #bcbd22; stroke-width: 1.5; stroke-linecap: square"/>
   </g>
   <g id="line2d_91">
    <path d="M 73.832727 250.440828 
L 90.919809 244.475412 
L 108.00689 238.672643 
L 125.093971 233.63 
L 142.181053 229.622828 
L 159.268134 226.611269 
L 176.355215 224.384718 
L 193.442297 222.721911 
L 210.529378 221.455056 
L 227.616459 220.470687 
L 244.703541 219.693914 
L 261.790622 219.074446 
L 278.877703 218.577313 
L 295.964785 218.177202 
L 313.051866 217.855043 
L 330.138947 217.595939 
L 347.226029 217.387916 
L 364.31311 217.221161 
L 381.400191 217.08762 
L 398.487273 216.981168 
" clip-path="url(#p378c9b3a19)" style="fill: none; stroke: #17becf; stroke-width: 1.5; stroke-linecap: square"/>
   </g>
   <g id="line2d_92">
    <path d="M 73.832727 249.942454 
L 90.919809 246.009247 
L 108.00689 241.27625 
L 125.093971 236.697422 
L 142.181053 232.773214 
L 159.268134 229.642731 
L 176.355215 227.218094 
L 193.442297 225.343175 
L 210.529378 223.878209 
L 227.616459 222.719476 
L 244.703541 221.793996 
L 261.790622 221.050297 
L 278.877703 220.451125 
L 295.964785 219.968587 
L 313.051866 219.581053 
L 330.138947 219.271209 
L 347.226029 219.024846 
L 364.31311 218.830115 
L 381.400191 218.677125 
L 398.487273 218.558127 
" clip-path="url(#p378c9b3a19)" style="fill: none; stroke: #1f77b4; stroke-width: 1.5; stroke-linecap: square"/>
   </g>
   <g id="line2d_93">
    <path d="M 73.832727 249.701842 
L 90.919809 246.801041 
L 108.00689 242.803404 
L 125.093971 238.65185 
L 142.181053 234.906581 
L 159.268134 231.792763 
L 176.355215 229.299521 
L 193.442297 227.320796 
L 210.529378 225.743696 
L 227.616459 224.477452 
L 244.703541 223.454806 
L 261.790622 222.626411 
L 278.877703 221.955358 
L 295.964785 221.413192 
L 313.051866 220.977266 
L 330.138947 220.629028 
L 347.226029 220.352939 
L 364.31311 220.135811 
L 381.400191 219.966456 
L 398.487273 219.835991 
" clip-path="url(#p378c9b3a19)" style="fill: none; stroke: #ff7f0e; stroke-width: 1.5; stroke-linecap: square"/>
   </g>
   <g id="line2d_94">
    <path d="M 73.832727 249.6443 
L 90.919809 247.293538 
L 108.00689 243.772894 
L 125.093971 239.949859 
L 142.181053 236.382597 
L 159.268134 233.332033 
L 176.355215 230.831505 
L 193.442297 228.808925 
L 210.529378 227.17233 
L 227.616459 225.842618 
L 244.703541 224.758749 
L 261.790622 223.874541 
L 278.877703 223.154522 
L 295.964785 222.570676 
L 313.051866 222.100198 
L 330.138947 221.724012 
L 347.226029 221.425845 
L 364.31311 221.191655 
L 381.400191 221.00936 
L 398.487273 220.869299 
" clip-path="url(#p378c9b3a19)" style="fill: none; stroke: #2ca02c; stroke-width: 1.5; stroke-linecap: square"/>
   </g>
   <g id="patch_20">
    <path d="M 57.6 252.526345 
L 57.6 206.644966 
" style="fill: none; stroke: #000000; stroke-width: 0.8; stroke-linejoin: miter; stroke-linecap: square"/>
   </g>
   <g id="patch_21">
    <path d="M 414.72 252.526345 
L 414.72 206.644966 
" style="fill: none; stroke: #000000; stroke-width: 0.8; stroke-linejoin: miter; stroke-linecap: square"/>
   </g>
   <g id="patch_22">
    <path d="M 57.6 252.526345 
L 414.72 252.526345 
" style="fill: none; stroke: #000000; stroke-width: 0.8; stroke-linejoin: miter; stroke-linecap: square"/>
   </g>
   <g id="patch_23">
    <path d="M 57.6 206.644966 
L 414.72 206.644966 
" style="fill: none; stroke: #000000; stroke-width: 0.8; stroke-linejoin: miter; stroke-linecap: square"/>
   </g>
   <g id="text_16">
    <!-- yB - Container 1 -->
    <g transform="translate(187.469063 203.644966)scale(0.12 -0.12)">
     <defs>
      <path id="DejaVuSans-42" d="M 1259 2228 
L 1259 519 
L 2272 519 
Q 2781 519 3026 730 
Q 3272 941 3272 1375 
Q 3272 1813 3026 2020 
Q 2781 2228 2272 2228 
L 1259 2228 
z
M 1259 4147 
L 1259 2741 
L 2194 2741 
Q 2656 2741 2882 2914 
Q 3109 3088 3109 3444 
Q 3109 3797 2882 3972 
Q 2656 4147 2194 4147 
L 1259 4147 
z
M 628 4666 
L 2241 4666 
Q 2963 4666 3353 4366 
Q 3744 4066 3744 3513 
Q 3744 3084 3544 2831 
Q 3344 2578 2956 2516 
Q 3422 2416 3680 2098 
Q 3938 1781 3938 1306 
Q 3938 681 3513 340 
Q 3088 0 2303 0 
L 628 0 
L 628 4666 
z
" transform="scale(0.015625)"/>
     </defs>
     <use xlink:href="#DejaVuSans-79"/>
     <use xlink:href="#DejaVuSans-42" x="59.179688"/>
     <use xlink:href="#DejaVuSans-20" x="127.783203"/>
     <use xlink:href="#DejaVuSans-2d" x="159.570312"/>
     <use xlink:href="#DejaVuSans-20" x="195.654297"/>
     <use xlink:href="#DejaVuSans-43" x="227.441406"/>
     <use xlink:href="#DejaVuSans-6f" x="297.265625"/>
     <use xlink:href="#DejaVuSans-6e" x="358.447266"/>
     <use xlink:href="#DejaVuSans-74" x="421.826172"/>
     <use xlink:href="#DejaVuSans-61" x="461.035156"/>
     <use xlink:href="#DejaVuSans-69" x="522.314453"/>
     <use xlink:href="#DejaVuSans-6e" x="550.097656"/>
     <use xlink:href="#DejaVuSans-65" x="613.476562"/>
     <use xlink:href="#DejaVuSans-72" x="675"/>
     <use xlink:href="#DejaVuSans-20" x="716.113281"/>
     <use xlink:href="#DejaVuSans-31" x="747.900391"/>
    </g>
   </g>
  </g>
  <g id="axes_6">
   <g id="patch_24">
    <path d="M 57.6 307.584 
L 414.72 307.584 
L 414.72 261.702621 
L 57.6 261.702621 
z
" style="fill: #ffffff"/>
   </g>
   <g id="matplotlib.axis_11">
    <g id="xtick_33">
     <g id="line2d_95">
      <g>
       <use xlink:href="#me45828e446" x="73.832727" y="307.584" style="stroke: #000000; stroke-width: 0.8"/>
      </g>
     </g>
     <g id="text_17">
      <!-- 0.0 -->
      <g transform="translate(65.881165 322.182437)scale(0.1 -0.1)">
       <use xlink:href="#DejaVuSans-30"/>
       <use xlink:href="#DejaVuSans-2e" x="63.623047"/>
       <use xlink:href="#DejaVuSans-30" x="95.410156"/>
      </g>
     </g>
    </g>
    <g id="xtick_34">
     <g id="line2d_96">
      <g>
       <use xlink:href="#me45828e446" x="116.550431" y="307.584" style="stroke: #000000; stroke-width: 0.8"/>
      </g>
     </g>
     <g id="text_18">
      <!-- 2.5 -->
      <g transform="translate(108.598868 322.182437)scale(0.1 -0.1)">
       <defs>
        <path id="DejaVuSans-35" d="M 691 4666 
L 3169 4666 
L 3169 4134 
L 1269 4134 
L 1269 2991 
Q 1406 3038 1543 3061 
Q 1681 3084 1819 3084 
Q 2600 3084 3056 2656 
Q 3513 2228 3513 1497 
Q 3513 744 3044 326 
Q 2575 -91 1722 -91 
Q 1428 -91 1123 -41 
Q 819 9 494 109 
L 494 744 
Q 775 591 1075 516 
Q 1375 441 1709 441 
Q 2250 441 2565 725 
Q 2881 1009 2881 1497 
Q 2881 1984 2565 2268 
Q 2250 2553 1709 2553 
Q 1456 2553 1204 2497 
Q 953 2441 691 2322 
L 691 4666 
z
" transform="scale(0.015625)"/>
       </defs>
       <use xlink:href="#DejaVuSans-32"/>
       <use xlink:href="#DejaVuSans-2e" x="63.623047"/>
       <use xlink:href="#DejaVuSans-35" x="95.410156"/>
      </g>
     </g>
    </g>
    <g id="xtick_35">
     <g id="line2d_97">
      <g>
       <use xlink:href="#me45828e446" x="159.268134" y="307.584" style="stroke: #000000; stroke-width: 0.8"/>
      </g>
     </g>
     <g id="text_19">
      <!-- 5.0 -->
      <g transform="translate(151.316571 322.182437)scale(0.1 -0.1)">
       <use xlink:href="#DejaVuSans-35"/>
       <use xlink:href="#DejaVuSans-2e" x="63.623047"/>
       <use xlink:href="#DejaVuSans-30" x="95.410156"/>
      </g>
     </g>
    </g>
    <g id="xtick_36">
     <g id="line2d_98">
      <g>
       <use xlink:href="#me45828e446" x="201.985837" y="307.584" style="stroke: #000000; stroke-width: 0.8"/>
      </g>
     </g>
     <g id="text_20">
      <!-- 7.5 -->
      <g transform="translate(194.034275 322.182437)scale(0.1 -0.1)">
       <defs>
        <path id="DejaVuSans-37" d="M 525 4666 
L 3525 4666 
L 3525 4397 
L 1831 0 
L 1172 0 
L 2766 4134 
L 525 4134 
L 525 4666 
z
" transform="scale(0.015625)"/>
       </defs>
       <use xlink:href="#DejaVuSans-37"/>
       <use xlink:href="#DejaVuSans-2e" x="63.623047"/>
       <use xlink:href="#DejaVuSans-35" x="95.410156"/>
      </g>
     </g>
    </g>
    <g id="xtick_37">
     <g id="line2d_99">
      <g>
       <use xlink:href="#me45828e446" x="244.703541" y="307.584" style="stroke: #000000; stroke-width: 0.8"/>
      </g>
     </g>
     <g id="text_21">
      <!-- 10.0 -->
      <g transform="translate(233.570728 322.182437)scale(0.1 -0.1)">
       <use xlink:href="#DejaVuSans-31"/>
       <use xlink:href="#DejaVuSans-30" x="63.623047"/>
       <use xlink:href="#DejaVuSans-2e" x="127.246094"/>
       <use xlink:href="#DejaVuSans-30" x="159.033203"/>
      </g>
     </g>
    </g>
    <g id="xtick_38">
     <g id="line2d_100">
      <g>
       <use xlink:href="#me45828e446" x="287.421244" y="307.584" style="stroke: #000000; stroke-width: 0.8"/>
      </g>
     </g>
     <g id="text_22">
      <!-- 12.5 -->
      <g transform="translate(276.288432 322.182437)scale(0.1 -0.1)">
       <use xlink:href="#DejaVuSans-31"/>
       <use xlink:href="#DejaVuSans-32" x="63.623047"/>
       <use xlink:href="#DejaVuSans-2e" x="127.246094"/>
       <use xlink:href="#DejaVuSans-35" x="159.033203"/>
      </g>
     </g>
    </g>
    <g id="xtick_39">
     <g id="line2d_101">
      <g>
       <use xlink:href="#me45828e446" x="330.138947" y="307.584" style="stroke: #000000; stroke-width: 0.8"/>
      </g>
     </g>
     <g id="text_23">
      <!-- 15.0 -->
      <g transform="translate(319.006135 322.182437)scale(0.1 -0.1)">
       <use xlink:href="#DejaVuSans-31"/>
       <use xlink:href="#DejaVuSans-35" x="63.623047"/>
       <use xlink:href="#DejaVuSans-2e" x="127.246094"/>
       <use xlink:href="#DejaVuSans-30" x="159.033203"/>
      </g>
     </g>
    </g>
    <g id="xtick_40">
     <g id="line2d_102">
      <g>
       <use xlink:href="#me45828e446" x="372.856651" y="307.584" style="stroke: #000000; stroke-width: 0.8"/>
      </g>
     </g>
     <g id="text_24">
      <!-- 17.5 -->
      <g transform="translate(361.723838 322.182437)scale(0.1 -0.1)">
       <use xlink:href="#DejaVuSans-31"/>
       <use xlink:href="#DejaVuSans-37" x="63.623047"/>
       <use xlink:href="#DejaVuSans-2e" x="127.246094"/>
       <use xlink:href="#DejaVuSans-35" x="159.033203"/>
      </g>
     </g>
    </g>
    <g id="text_25">
     <!-- position z -->
     <g transform="translate(212.142031 335.860562)scale(0.1 -0.1)">
      <defs>
       <path id="DejaVuSans-70" d="M 1159 525 
L 1159 -1331 
L 581 -1331 
L 581 3500 
L 1159 3500 
L 1159 2969 
Q 1341 3281 1617 3432 
Q 1894 3584 2278 3584 
Q 2916 3584 3314 3078 
Q 3713 2572 3713 1747 
Q 3713 922 3314 415 
Q 2916 -91 2278 -91 
Q 1894 -91 1617 61 
Q 1341 213 1159 525 
z
M 3116 1747 
Q 3116 2381 2855 2742 
Q 2594 3103 2138 3103 
Q 1681 3103 1420 2742 
Q 1159 2381 1159 1747 
Q 1159 1113 1420 752 
Q 1681 391 2138 391 
Q 2594 391 2855 752 
Q 3116 1113 3116 1747 
z
" transform="scale(0.015625)"/>
      </defs>
      <use xlink:href="#DejaVuSans-70"/>
      <use xlink:href="#DejaVuSans-6f" x="63.476562"/>
      <use xlink:href="#DejaVuSans-73" x="124.658203"/>
      <use xlink:href="#DejaVuSans-69" x="176.757812"/>
      <use xlink:href="#DejaVuSans-74" x="204.541016"/>
      <use xlink:href="#DejaVuSans-69" x="243.75"/>
      <use xlink:href="#DejaVuSans-6f" x="271.533203"/>
      <use xlink:href="#DejaVuSans-6e" x="332.714844"/>
      <use xlink:href="#DejaVuSans-20" x="396.09375"/>
      <use xlink:href="#DejaVuSans-7a" x="427.880859"/>
     </g>
    </g>
   </g>
   <g id="matplotlib.axis_12">
    <g id="ytick_11">
     <g id="line2d_103">
      <g>
       <use xlink:href="#mf6de628d41" x="57.6" y="290.174204" style="stroke: #000000; stroke-width: 0.8"/>
      </g>
     </g>
     <g id="text_26">
      <!-- 0.050 -->
      <g transform="translate(21.971875 293.973422)scale(0.1 -0.1)">
       <use xlink:href="#DejaVuSans-30"/>
       <use xlink:href="#DejaVuSans-2e" x="63.623047"/>
       <use xlink:href="#DejaVuSans-30" x="95.410156"/>
       <use xlink:href="#DejaVuSans-35" x="159.033203"/>
       <use xlink:href="#DejaVuSans-30" x="222.65625"/>
      </g>
     </g>
    </g>
    <g id="ytick_12">
     <g id="line2d_104">
      <g>
       <use xlink:href="#mf6de628d41" x="57.6" y="265.979883" style="stroke: #000000; stroke-width: 0.8"/>
      </g>
     </g>
     <g id="text_27">
      <!-- 0.075 -->
      <g transform="translate(21.971875 269.779101)scale(0.1 -0.1)">
       <use xlink:href="#DejaVuSans-30"/>
       <use xlink:href="#DejaVuSans-2e" x="63.623047"/>
       <use xlink:href="#DejaVuSans-30" x="95.410156"/>
       <use xlink:href="#DejaVuSans-37" x="159.033203"/>
       <use xlink:href="#DejaVuSans-35" x="222.65625"/>
      </g>
     </g>
    </g>
   </g>
   <g id="line2d_105">
    <path d="M 73.832727 277.796833 
L 90.919809 276.420893 
L 108.00689 274.499396 
L 125.093971 272.447672 
L 142.181053 270.544127 
L 159.268134 268.925287 
L 176.355215 267.613224 
L 193.442297 266.574188 
L 210.529378 265.761921 
L 227.616459 265.135025 
L 244.703541 264.660169 
L 261.790622 264.310848 
L 278.877703 264.065558 
L 295.964785 263.906418 
L 313.051866 263.81827 
L 330.138947 263.788138 
L 347.226029 263.804869 
L 364.31311 263.858844 
L 381.400191 263.941523 
L 398.487273 264.043589 
" clip-path="url(#p6cf0b4b333)" style="fill: none; stroke: #1f77b4; stroke-width: 1.5; stroke-linecap: square"/>
   </g>
   <g id="line2d_106">
    <path d="M 73.832727 289.767604 
L 90.919809 289.615 
L 108.00689 289.69716 
L 125.093971 289.959387 
L 142.181053 290.347919 
L 159.268134 290.825398 
L 176.355215 291.370101 
L 193.442297 291.97078 
L 210.529378 292.622441 
L 227.616459 293.323922 
L 244.703541 294.076723 
L 261.790622 294.884595 
L 278.877703 295.75364 
L 295.964785 296.692914 
L 313.051866 297.715696 
L 330.138947 298.841957 
L 347.226029 300.10329 
L 364.31311 301.554004 
L 381.400191 303.299782 
L 398.487273 305.498483 
" clip-path="url(#p6cf0b4b333)" style="fill: none; stroke: #ff7f0e; stroke-width: 1.5; stroke-linecap: square"/>
   </g>
   <g id="line2d_107">
    <path d="M 73.832727 289.624865 
L 90.919809 289.238724 
L 108.00689 289.144386 
L 125.093971 289.295986 
L 142.181053 289.616798 
L 159.268134 290.049494 
L 176.355215 290.559869 
L 193.442297 291.129619 
L 210.529378 291.749795 
L 227.616459 292.416821 
L 244.703541 293.130429 
L 261.790622 293.89273 
L 278.877703 294.707963 
L 295.964785 295.582753 
L 313.051866 296.526875 
L 330.138947 297.554802 
L 347.226029 298.68879 
L 364.31311 299.965581 
L 381.400191 301.451269 
L 398.487273 303.211086 
" clip-path="url(#p6cf0b4b333)" style="fill: none; stroke: #2ca02c; stroke-width: 1.5; stroke-linecap: square"/>
   </g>
   <g id="line2d_108">
    <path d="M 73.832727 289.79816 
L 90.919809 289.204343 
L 108.00689 288.687037 
L 125.093971 288.396942 
L 142.181053 288.330779 
L 159.268134 288.439453 
L 176.355215 288.680327 
L 193.442297 289.024216 
L 210.529378 289.451407 
L 227.616459 289.94815 
L 244.703541 290.504795 
L 261.790622 291.114884 
L 278.877703 291.774671 
L 295.964785 292.482878 
L 313.051866 293.240644 
L 330.138947 294.051733 
L 347.226029 294.923163 
L 364.31311 295.866676 
L 381.400191 296.901798 
L 398.487273 298.044931 
" clip-path="url(#p6cf0b4b333)" style="fill: none; stroke: #d62728; stroke-width: 1.5; stroke-linecap: square"/>
   </g>
   <g id="line2d_109">
    <path d="M 73.832727 288.493231 
L 90.919809 287.84045 
L 108.00689 287.115845 
L 125.093971 286.553884 
L 142.181053 286.215836 
L 159.268134 286.062849 
L 176.355215 286.045171 
L 193.442297 286.129066 
L 210.529378 286.294589 
L 227.616459 286.529496 
L 244.703541 286.8254 
L 261.790622 287.175933 
L 278.877703 287.575997 
L 295.964785 288.021511 
L 313.051866 288.509361 
L 330.138947 289.037465 
L 347.226029 289.604899 
L 364.31311 290.21213 
L 381.400191 290.861417 
L 398.487273 291.55383 
" clip-path="url(#p6cf0b4b333)" style="fill: none; stroke: #9467bd; stroke-width: 1.5; stroke-linecap: square"/>
   </g>
   <g id="line2d_110">
    <path d="M 73.832727 285.135172 
L 90.919809 284.002584 
L 108.00689 282.696853 
L 125.093971 281.590927 
L 142.181053 280.816521 
L 159.268134 280.326888 
L 176.355215 280.035884 
L 193.442297 279.8778 
L 210.529378 279.812353 
L 227.616459 279.816117 
L 244.703541 279.875092 
L 261.790622 279.980328 
L 278.877703 280.125619 
L 295.964785 280.306334 
L 313.051866 280.518825 
L 330.138947 280.760134 
L 347.226029 281.027859 
L 364.31311 281.32011 
L 381.400191 281.635538 
L 398.487273 281.972687 
" clip-path="url(#p6cf0b4b333)" style="fill: none; stroke: #8c564b; stroke-width: 1.5; stroke-linecap: square"/>
   </g>
   <g id="line2d_111">
    <path d="M 73.832727 284.690087 
L 90.919809 283.460637 
L 108.00689 282.037278 
L 125.093971 280.823247 
L 142.181053 279.966963 
L 159.268134 279.421636 
L 176.355215 279.094113 
L 193.442297 278.912059 
L 210.529378 278.830833 
L 227.616459 278.824539 
L 244.703541 278.877888 
L 261.790622 278.981312 
L 278.877703 279.128348 
L 295.964785 279.3143 
L 313.051866 279.53555 
L 330.138947 279.789203 
L 347.226029 280.072928 
L 364.31311 280.384892 
L 381.400191 280.723752 
L 398.487273 281.085919 
" clip-path="url(#p6cf0b4b333)" style="fill: none; stroke: #e377c2; stroke-width: 1.5; stroke-linecap: square"/>
   </g>
   <g id="line2d_112">
    <path d="M 73.832727 284.655424 
L 90.919809 283.42055 
L 108.00689 281.989205 
L 125.093971 280.767642 
L 142.181053 279.905773 
L 159.268134 279.356983 
L 176.355215 279.027627 
L 193.442297 278.844863 
L 210.529378 278.76371 
L 227.616459 278.758074 
L 244.703541 278.81256 
L 261.790622 278.917541 
L 278.877703 279.066519 
L 295.964785 279.254776 
L 313.051866 279.478673 
L 330.138947 279.7353 
L 347.226029 280.022305 
L 364.31311 280.337833 
L 381.400191 280.680454 
L 398.487273 281.042684 
" clip-path="url(#p6cf0b4b333)" style="fill: none; stroke: #7f7f7f; stroke-width: 1.5; stroke-linecap: square"/>
   </g>
   <g id="line2d_113">
    <path d="M 73.832727 284.409356 
L 90.919809 281.727873 
L 108.00689 279.42633 
L 125.093971 277.640297 
L 142.181053 276.414157 
L 159.268134 275.652789 
L 176.355215 275.216405 
L 193.442297 274.99202 
L 210.529378 274.90608 
L 227.616459 274.91403 
L 244.703541 274.988901 
L 261.790622 275.113793 
L 278.877703 275.277574 
L 295.964785 275.472499 
L 313.051866 275.692891 
L 330.138947 275.934376 
L 347.226029 276.193438 
L 364.31311 276.467065 
L 381.400191 276.752107 
L 398.487273 277.041832 
" clip-path="url(#p6cf0b4b333)" style="fill: none; stroke: #bcbd22; stroke-width: 1.5; stroke-linecap: square"/>
   </g>
   <g id="line2d_114">
    <path d="M 73.832727 283.365254 
L 90.919809 280.651606 
L 108.00689 278.058372 
L 125.093971 275.85671 
L 142.181053 274.169939 
L 159.268134 272.972801 
L 176.355215 272.160126 
L 193.442297 271.623127 
L 210.529378 271.27962 
L 227.616459 271.074033 
L 244.703541 270.969626 
L 261.790622 270.941657 
L 278.877703 270.972869 
L 295.964785 271.050722 
L 313.051866 271.165731 
L 330.138947 271.310442 
L 347.226029 271.478776 
L 364.31311 271.665539 
L 381.400191 271.865818 
L 398.487273 272.07315 
" clip-path="url(#p6cf0b4b333)" style="fill: none; stroke: #17becf; stroke-width: 1.5; stroke-linecap: square"/>
   </g>
   <g id="line2d_115">
    <path d="M 73.832727 281.078313 
L 90.919809 279.086202 
L 108.00689 276.772185 
L 125.093971 274.582062 
L 142.181053 272.750141 
L 159.268134 271.336837 
L 176.355215 270.292685 
L 193.442297 269.535994 
L 210.529378 268.994251 
L 227.616459 268.613534 
L 244.703541 268.355683 
L 261.790622 268.193581 
L 278.877703 268.107454 
L 295.964785 268.082398 
L 313.051866 268.106787 
L 330.138947 268.171258 
L 347.226029 268.268044 
L 364.31311 268.390479 
L 381.400191 268.532448 
L 398.487273 268.686844 
" clip-path="url(#p6cf0b4b333)" style="fill: none; stroke: #1f77b4; stroke-width: 1.5; stroke-linecap: square"/>
   </g>
   <g id="line2d_116">
    <path d="M 73.832727 279.446366 
L 90.919809 277.831653 
L 108.00689 275.736645 
L 125.093971 273.615306 
L 142.181053 271.738992 
L 159.268134 270.21403 
L 176.355215 269.029227 
L 193.442297 268.126324 
L 210.529378 267.444439 
L 227.616459 266.934556 
L 244.703541 266.560097 
L 261.790622 266.293982 
L 278.877703 266.115774 
L 295.964785 266.009605 
L 313.051866 265.962773 
L 330.138947 265.964822 
L 347.226029 266.006931 
L 364.31311 266.081452 
L 381.400191 266.181403 
L 398.487273 266.29891 
" clip-path="url(#p6cf0b4b333)" style="fill: none; stroke: #ff7f0e; stroke-width: 1.5; stroke-linecap: square"/>
   </g>
   <g id="line2d_117">
    <path d="M 73.832727 278.314134 
L 90.919809 276.893096 
L 108.00689 274.940246 
L 125.093971 272.882472 
L 142.181053 270.996737 
L 159.268134 269.411087 
L 176.355215 268.137912 
L 193.442297 267.136002 
L 210.529378 266.354431 
L 227.616459 265.74938 
L 244.703541 265.286769 
L 261.790622 264.940554 
L 278.877703 264.69054 
L 295.964785 264.520659 
L 313.051866 264.417763 
L 330.138947 264.370819 
L 347.226029 264.370365 
L 364.31311 264.408103 
L 381.400191 264.476414 
L 398.487273 264.566699 
" clip-path="url(#p6cf0b4b333)" style="fill: none; stroke: #2ca02c; stroke-width: 1.5; stroke-linecap: square"/>
   </g>
   <g id="patch_25">
    <path d="M 57.6 307.584 
L 57.6 261.702621 
" style="fill: none; stroke: #000000; stroke-width: 0.8; stroke-linejoin: miter; stroke-linecap: square"/>
   </g>
   <g id="patch_26">
    <path d="M 414.72 307.584 
L 414.72 261.702621 
" style="fill: none; stroke: #000000; stroke-width: 0.8; stroke-linejoin: miter; stroke-linecap: square"/>
   </g>
   <g id="patch_27">
    <path d="M 57.6 307.584 
L 414.72 307.584 
" style="fill: none; stroke: #000000; stroke-width: 0.8; stroke-linejoin: miter; stroke-linecap: square"/>
   </g>
   <g id="patch_28">
    <path d="M 57.6 261.702621 
L 414.72 261.702621 
" style="fill: none; stroke: #000000; stroke-width: 0.8; stroke-linejoin: miter; stroke-linecap: square"/>
   </g>
   <g id="text_28">
    <!-- yC - Container 1 -->
    <g transform="translate(187.395938 258.702621)scale(0.12 -0.12)">
     <use xlink:href="#DejaVuSans-79"/>
     <use xlink:href="#DejaVuSans-43" x="59.179688"/>
     <use xlink:href="#DejaVuSans-20" x="129.003906"/>
     <use xlink:href="#DejaVuSans-2d" x="160.791016"/>
     <use xlink:href="#DejaVuSans-20" x="196.875"/>
     <use xlink:href="#DejaVuSans-43" x="228.662109"/>
     <use xlink:href="#DejaVuSans-6f" x="298.486328"/>
     <use xlink:href="#DejaVuSans-6e" x="359.667969"/>
     <use xlink:href="#DejaVuSans-74" x="423.046875"/>
     <use xlink:href="#DejaVuSans-61" x="462.255859"/>
     <use xlink:href="#DejaVuSans-69" x="523.535156"/>
     <use xlink:href="#DejaVuSans-6e" x="551.318359"/>
     <use xlink:href="#DejaVuSans-65" x="614.697266"/>
     <use xlink:href="#DejaVuSans-72" x="676.220703"/>
     <use xlink:href="#DejaVuSans-20" x="717.333984"/>
     <use xlink:href="#DejaVuSans-31" x="749.121094"/>
    </g>
   </g>
  </g>
  <g id="legend_1">
   <g id="patch_29">
    <path d="M 372.146875 269.707812 
L 457.8 269.707812 
Q 459.8 269.707812 459.8 267.707812 
L 459.8 77.892187 
Q 459.8 75.892187 457.8 75.892187 
L 372.146875 75.892187 
Q 370.146875 75.892187 370.146875 77.892187 
L 370.146875 267.707812 
Q 370.146875 269.707812 372.146875 269.707812 
z
" style="fill: #ffffff; opacity: 0.8; stroke: #cccccc; stroke-linejoin: miter"/>
   </g>
   <g id="line2d_118">
    <path d="M 374.146875 83.990625 
L 384.146875 83.990625 
L 394.146875 83.990625 
" style="fill: none; stroke: #1f77b4; stroke-width: 1.5; stroke-linecap: square"/>
   </g>
   <g id="text_29">
    <!-- t=0.0000 -->
    <g transform="translate(402.146875 87.490625)scale(0.1 -0.1)">
     <defs>
      <path id="DejaVuSans-3d" d="M 678 2906 
L 4684 2906 
L 4684 2381 
L 678 2381 
L 678 2906 
z
M 678 1631 
L 4684 1631 
L 4684 1100 
L 678 1100 
L 678 1631 
z
" transform="scale(0.015625)"/>
     </defs>
     <use xlink:href="#DejaVuSans-74"/>
     <use xlink:href="#DejaVuSans-3d" x="39.208984"/>
     <use xlink:href="#DejaVuSans-30" x="122.998047"/>
     <use xlink:href="#DejaVuSans-2e" x="186.621094"/>
     <use xlink:href="#DejaVuSans-30" x="218.408203"/>
     <use xlink:href="#DejaVuSans-30" x="282.03125"/>
     <use xlink:href="#DejaVuSans-30" x="345.654297"/>
     <use xlink:href="#DejaVuSans-30" x="409.277344"/>
    </g>
   </g>
   <g id="line2d_119">
    <path d="M 374.146875 98.66875 
L 384.146875 98.66875 
L 394.146875 98.66875 
" style="fill: none; stroke: #ff7f0e; stroke-width: 1.5; stroke-linecap: square"/>
   </g>
   <g id="text_30">
    <!-- t=8.0000 -->
    <g transform="translate(402.146875 102.16875)scale(0.1 -0.1)">
     <use xlink:href="#DejaVuSans-74"/>
     <use xlink:href="#DejaVuSans-3d" x="39.208984"/>
     <use xlink:href="#DejaVuSans-38" x="122.998047"/>
     <use xlink:href="#DejaVuSans-2e" x="186.621094"/>
     <use xlink:href="#DejaVuSans-30" x="218.408203"/>
     <use xlink:href="#DejaVuSans-30" x="282.03125"/>
     <use xlink:href="#DejaVuSans-30" x="345.654297"/>
     <use xlink:href="#DejaVuSans-30" x="409.277344"/>
    </g>
   </g>
   <g id="line2d_120">
    <path d="M 374.146875 113.346875 
L 384.146875 113.346875 
L 394.146875 113.346875 
" style="fill: none; stroke: #2ca02c; stroke-width: 1.5; stroke-linecap: square"/>
   </g>
   <g id="text_31">
    <!-- t=16.0000 -->
    <g transform="translate(402.146875 116.846875)scale(0.1 -0.1)">
     <defs>
      <path id="DejaVuSans-36" d="M 2113 2584 
Q 1688 2584 1439 2293 
Q 1191 2003 1191 1497 
Q 1191 994 1439 701 
Q 1688 409 2113 409 
Q 2538 409 2786 701 
Q 3034 994 3034 1497 
Q 3034 2003 2786 2293 
Q 2538 2584 2113 2584 
z
M 3366 4563 
L 3366 3988 
Q 3128 4100 2886 4159 
Q 2644 4219 2406 4219 
Q 1781 4219 1451 3797 
Q 1122 3375 1075 2522 
Q 1259 2794 1537 2939 
Q 1816 3084 2150 3084 
Q 2853 3084 3261 2657 
Q 3669 2231 3669 1497 
Q 3669 778 3244 343 
Q 2819 -91 2113 -91 
Q 1303 -91 875 529 
Q 447 1150 447 2328 
Q 447 3434 972 4092 
Q 1497 4750 2381 4750 
Q 2619 4750 2861 4703 
Q 3103 4656 3366 4563 
z
" transform="scale(0.015625)"/>
     </defs>
     <use xlink:href="#DejaVuSans-74"/>
     <use xlink:href="#DejaVuSans-3d" x="39.208984"/>
     <use xlink:href="#DejaVuSans-31" x="122.998047"/>
     <use xlink:href="#DejaVuSans-36" x="186.621094"/>
     <use xlink:href="#DejaVuSans-2e" x="250.244141"/>
     <use xlink:href="#DejaVuSans-30" x="282.03125"/>
     <use xlink:href="#DejaVuSans-30" x="345.654297"/>
     <use xlink:href="#DejaVuSans-30" x="409.277344"/>
     <use xlink:href="#DejaVuSans-30" x="472.900391"/>
    </g>
   </g>
   <g id="line2d_121">
    <path d="M 374.146875 128.025 
L 384.146875 128.025 
L 394.146875 128.025 
" style="fill: none; stroke: #d62728; stroke-width: 1.5; stroke-linecap: square"/>
   </g>
   <g id="text_32">
    <!-- t=24.0000 -->
    <g transform="translate(402.146875 131.525)scale(0.1 -0.1)">
     <defs>
      <path id="DejaVuSans-34" d="M 2419 4116 
L 825 1625 
L 2419 1625 
L 2419 4116 
z
M 2253 4666 
L 3047 4666 
L 3047 1625 
L 3713 1625 
L 3713 1100 
L 3047 1100 
L 3047 0 
L 2419 0 
L 2419 1100 
L 313 1100 
L 313 1709 
L 2253 4666 
z
" transform="scale(0.015625)"/>
     </defs>
     <use xlink:href="#DejaVuSans-74"/>
     <use xlink:href="#DejaVuSans-3d" x="39.208984"/>
     <use xlink:href="#DejaVuSans-32" x="122.998047"/>
     <use xlink:href="#DejaVuSans-34" x="186.621094"/>
     <use xlink:href="#DejaVuSans-2e" x="250.244141"/>
     <use xlink:href="#DejaVuSans-30" x="282.03125"/>
     <use xlink:href="#DejaVuSans-30" x="345.654297"/>
     <use xlink:href="#DejaVuSans-30" x="409.277344"/>
     <use xlink:href="#DejaVuSans-30" x="472.900391"/>
    </g>
   </g>
   <g id="line2d_122">
    <path d="M 374.146875 142.703125 
L 384.146875 142.703125 
L 394.146875 142.703125 
" style="fill: none; stroke: #9467bd; stroke-width: 1.5; stroke-linecap: square"/>
   </g>
   <g id="text_33">
    <!-- t=32.0000 -->
    <g transform="translate(402.146875 146.203125)scale(0.1 -0.1)">
     <defs>
      <path id="DejaVuSans-33" d="M 2597 2516 
Q 3050 2419 3304 2112 
Q 3559 1806 3559 1356 
Q 3559 666 3084 287 
Q 2609 -91 1734 -91 
Q 1441 -91 1130 -33 
Q 819 25 488 141 
L 488 750 
Q 750 597 1062 519 
Q 1375 441 1716 441 
Q 2309 441 2620 675 
Q 2931 909 2931 1356 
Q 2931 1769 2642 2001 
Q 2353 2234 1838 2234 
L 1294 2234 
L 1294 2753 
L 1863 2753 
Q 2328 2753 2575 2939 
Q 2822 3125 2822 3475 
Q 2822 3834 2567 4026 
Q 2313 4219 1838 4219 
Q 1578 4219 1281 4162 
Q 984 4106 628 3988 
L 628 4550 
Q 988 4650 1302 4700 
Q 1616 4750 1894 4750 
Q 2613 4750 3031 4423 
Q 3450 4097 3450 3541 
Q 3450 3153 3228 2886 
Q 3006 2619 2597 2516 
z
" transform="scale(0.015625)"/>
     </defs>
     <use xlink:href="#DejaVuSans-74"/>
     <use xlink:href="#DejaVuSans-3d" x="39.208984"/>
     <use xlink:href="#DejaVuSans-33" x="122.998047"/>
     <use xlink:href="#DejaVuSans-32" x="186.621094"/>
     <use xlink:href="#DejaVuSans-2e" x="250.244141"/>
     <use xlink:href="#DejaVuSans-30" x="282.03125"/>
     <use xlink:href="#DejaVuSans-30" x="345.654297"/>
     <use xlink:href="#DejaVuSans-30" x="409.277344"/>
     <use xlink:href="#DejaVuSans-30" x="472.900391"/>
    </g>
   </g>
   <g id="line2d_123">
    <path d="M 374.146875 157.38125 
L 384.146875 157.38125 
L 394.146875 157.38125 
" style="fill: none; stroke: #8c564b; stroke-width: 1.5; stroke-linecap: square"/>
   </g>
   <g id="text_34">
    <!-- t=40.0000 -->
    <g transform="translate(402.146875 160.88125)scale(0.1 -0.1)">
     <use xlink:href="#DejaVuSans-74"/>
     <use xlink:href="#DejaVuSans-3d" x="39.208984"/>
     <use xlink:href="#DejaVuSans-34" x="122.998047"/>
     <use xlink:href="#DejaVuSans-30" x="186.621094"/>
     <use xlink:href="#DejaVuSans-2e" x="250.244141"/>
     <use xlink:href="#DejaVuSans-30" x="282.03125"/>
     <use xlink:href="#DejaVuSans-30" x="345.654297"/>
     <use xlink:href="#DejaVuSans-30" x="409.277344"/>
     <use xlink:href="#DejaVuSans-30" x="472.900391"/>
    </g>
   </g>
   <g id="line2d_124">
    <path d="M 374.146875 172.059375 
L 384.146875 172.059375 
L 394.146875 172.059375 
" style="fill: none; stroke: #e377c2; stroke-width: 1.5; stroke-linecap: square"/>
   </g>
   <g id="text_35">
    <!-- t=48.0000 -->
    <g transform="translate(402.146875 175.559375)scale(0.1 -0.1)">
     <use xlink:href="#DejaVuSans-74"/>
     <use xlink:href="#DejaVuSans-3d" x="39.208984"/>
     <use xlink:href="#DejaVuSans-34" x="122.998047"/>
     <use xlink:href="#DejaVuSans-38" x="186.621094"/>
     <use xlink:href="#DejaVuSans-2e" x="250.244141"/>
     <use xlink:href="#DejaVuSans-30" x="282.03125"/>
     <use xlink:href="#DejaVuSans-30" x="345.654297"/>
     <use xlink:href="#DejaVuSans-30" x="409.277344"/>
     <use xlink:href="#DejaVuSans-30" x="472.900391"/>
    </g>
   </g>
   <g id="line2d_125">
    <path d="M 374.146875 186.7375 
L 384.146875 186.7375 
L 394.146875 186.7375 
" style="fill: none; stroke: #7f7f7f; stroke-width: 1.5; stroke-linecap: square"/>
   </g>
   <g id="text_36">
    <!-- t=56.0000 -->
    <g transform="translate(402.146875 190.2375)scale(0.1 -0.1)">
     <use xlink:href="#DejaVuSans-74"/>
     <use xlink:href="#DejaVuSans-3d" x="39.208984"/>
     <use xlink:href="#DejaVuSans-35" x="122.998047"/>
     <use xlink:href="#DejaVuSans-36" x="186.621094"/>
     <use xlink:href="#DejaVuSans-2e" x="250.244141"/>
     <use xlink:href="#DejaVuSans-30" x="282.03125"/>
     <use xlink:href="#DejaVuSans-30" x="345.654297"/>
     <use xlink:href="#DejaVuSans-30" x="409.277344"/>
     <use xlink:href="#DejaVuSans-30" x="472.900391"/>
    </g>
   </g>
   <g id="line2d_126">
    <path d="M 374.146875 201.415625 
L 384.146875 201.415625 
L 394.146875 201.415625 
" style="fill: none; stroke: #bcbd22; stroke-width: 1.5; stroke-linecap: square"/>
   </g>
   <g id="text_37">
    <!-- t=64.0000 -->
    <g transform="translate(402.146875 204.915625)scale(0.1 -0.1)">
     <use xlink:href="#DejaVuSans-74"/>
     <use xlink:href="#DejaVuSans-3d" x="39.208984"/>
     <use xlink:href="#DejaVuSans-36" x="122.998047"/>
     <use xlink:href="#DejaVuSans-34" x="186.621094"/>
     <use xlink:href="#DejaVuSans-2e" x="250.244141"/>
     <use xlink:href="#DejaVuSans-30" x="282.03125"/>
     <use xlink:href="#DejaVuSans-30" x="345.654297"/>
     <use xlink:href="#DejaVuSans-30" x="409.277344"/>
     <use xlink:href="#DejaVuSans-30" x="472.900391"/>
    </g>
   </g>
   <g id="line2d_127">
    <path d="M 374.146875 216.09375 
L 384.146875 216.09375 
L 394.146875 216.09375 
" style="fill: none; stroke: #17becf; stroke-width: 1.5; stroke-linecap: square"/>
   </g>
   <g id="text_38">
    <!-- t=72.0000 -->
    <g transform="translate(402.146875 219.59375)scale(0.1 -0.1)">
     <use xlink:href="#DejaVuSans-74"/>
     <use xlink:href="#DejaVuSans-3d" x="39.208984"/>
     <use xlink:href="#DejaVuSans-37" x="122.998047"/>
     <use xlink:href="#DejaVuSans-32" x="186.621094"/>
     <use xlink:href="#DejaVuSans-2e" x="250.244141"/>
     <use xlink:href="#DejaVuSans-30" x="282.03125"/>
     <use xlink:href="#DejaVuSans-30" x="345.654297"/>
     <use xlink:href="#DejaVuSans-30" x="409.277344"/>
     <use xlink:href="#DejaVuSans-30" x="472.900391"/>
    </g>
   </g>
   <g id="line2d_128">
    <path d="M 374.146875 230.771875 
L 384.146875 230.771875 
L 394.146875 230.771875 
" style="fill: none; stroke: #1f77b4; stroke-width: 1.5; stroke-linecap: square"/>
   </g>
   <g id="text_39">
    <!-- t=80.0000 -->
    <g transform="translate(402.146875 234.271875)scale(0.1 -0.1)">
     <use xlink:href="#DejaVuSans-74"/>
     <use xlink:href="#DejaVuSans-3d" x="39.208984"/>
     <use xlink:href="#DejaVuSans-38" x="122.998047"/>
     <use xlink:href="#DejaVuSans-30" x="186.621094"/>
     <use xlink:href="#DejaVuSans-2e" x="250.244141"/>
     <use xlink:href="#DejaVuSans-30" x="282.03125"/>
     <use xlink:href="#DejaVuSans-30" x="345.654297"/>
     <use xlink:href="#DejaVuSans-30" x="409.277344"/>
     <use xlink:href="#DejaVuSans-30" x="472.900391"/>
    </g>
   </g>
   <g id="line2d_129">
    <path d="M 374.146875 245.45 
L 384.146875 245.45 
L 394.146875 245.45 
" style="fill: none; stroke: #ff7f0e; stroke-width: 1.5; stroke-linecap: square"/>
   </g>
   <g id="text_40">
    <!-- t=88.0000 -->
    <g transform="translate(402.146875 248.95)scale(0.1 -0.1)">
     <use xlink:href="#DejaVuSans-74"/>
     <use xlink:href="#DejaVuSans-3d" x="39.208984"/>
     <use xlink:href="#DejaVuSans-38" x="122.998047"/>
     <use xlink:href="#DejaVuSans-38" x="186.621094"/>
     <use xlink:href="#DejaVuSans-2e" x="250.244141"/>
     <use xlink:href="#DejaVuSans-30" x="282.03125"/>
     <use xlink:href="#DejaVuSans-30" x="345.654297"/>
     <use xlink:href="#DejaVuSans-30" x="409.277344"/>
     <use xlink:href="#DejaVuSans-30" x="472.900391"/>
    </g>
   </g>
   <g id="line2d_130">
    <path d="M 374.146875 260.128125 
L 384.146875 260.128125 
L 394.146875 260.128125 
" style="fill: none; stroke: #2ca02c; stroke-width: 1.5; stroke-linecap: square"/>
   </g>
   <g id="text_41">
    <!-- t=96.0000 -->
    <g transform="translate(402.146875 263.628125)scale(0.1 -0.1)">
     <use xlink:href="#DejaVuSans-74"/>
     <use xlink:href="#DejaVuSans-3d" x="39.208984"/>
     <use xlink:href="#DejaVuSans-39" x="122.998047"/>
     <use xlink:href="#DejaVuSans-36" x="186.621094"/>
     <use xlink:href="#DejaVuSans-2e" x="250.244141"/>
     <use xlink:href="#DejaVuSans-30" x="282.03125"/>
     <use xlink:href="#DejaVuSans-30" x="345.654297"/>
     <use xlink:href="#DejaVuSans-30" x="409.277344"/>
     <use xlink:href="#DejaVuSans-30" x="472.900391"/>
    </g>
   </g>
  </g>
 </g>
 <defs>
  <clipPath id="p306e936b17">
   <rect x="57.6" y="41.472" width="357.12" height="45.881379"/>
  </clipPath>
  <clipPath id="pd85fc0323e">
   <rect x="57.6" y="96.529655" width="357.12" height="45.881379"/>
  </clipPath>
  <clipPath id="pfc7cea76e5">
   <rect x="57.6" y="151.58731" width="357.12" height="45.881379"/>
  </clipPath>
  <clipPath id="p378c9b3a19">
   <rect x="57.6" y="206.644966" width="357.12" height="45.881379"/>
  </clipPath>
  <clipPath id="p6cf0b4b333">
   <rect x="57.6" y="261.702621" width="357.12" height="45.881379"/>
  </clipPath>
 </defs>
</svg>
