<?xml version="1.0" encoding="utf-8" standalone="no"?>
<!DOCTYPE svg PUBLIC "-//W3C//DTD SVG 1.1//EN"
  "http://www.w3.org/Graphics/SVG/1.1/DTD/svg11.dtd">
<svg xmlns:xlink="http://www.w3.org/1999/xlink" width="460.8pt" height="345.6pt" viewBox="0 0 460.8 345.6" xmlns="http://www.w3.org/2000/svg" version="1.1">
 <metadata>
  <rdf:RDF xmlns:dc="http://purl.org/dc/elements/1.1/" xmlns:cc="http://creativecommons.org/ns#" xmlns:rdf="http://www.w3.org/1999/02/22-rdf-syntax-ns#">
   <cc:Work>
    <dc:type rdf:resource="http://purl.org/dc/dcmitype/StillImage"/>
    <dc:date>2022-07-10T00:04:37.535851</dc:date>
    <dc:format>image/svg+xml</dc:format>
    <dc:creator>
     <cc:Agent>
      <dc:title>Matplotlib v3.5.2, https://matplotlib.org/</dc:title>
     </cc:Agent>
    </dc:creator>
   </cc:Work>
  </rdf:RDF>
 </metadata>
 <defs>
  <style type="text/css">*{stroke-linejoin: round; stroke-linecap: butt}</style>
 </defs>
 <g id="figure_1">
  <g id="patch_1">
   <path d="M 0 345.6 
L 460.8 345.6 
L 460.8 0 
L 0 0 
z
" style="fill: #ffffff"/>
  </g>
  <g id="axes_1">
   <g id="patch_2">
    <path d="M 57.6 87.353379 
L 414.72 87.353379 
L 414.72 41.472 
L 57.6 41.472 
z
" style="fill: #ffffff"/>
   </g>
   <g id="matplotlib.axis_1">
    <g id="xtick_1">
     <g id="line2d_1">
      <defs>
       <path id="m25cc07dc44" d="M 0 0 
L 0 3.5 
" style="stroke: #000000; stroke-width: 0.8"/>
      </defs>
      <g>
       <use xlink:href="#m25cc07dc44" x="73.832727" y="87.353379" style="stroke: #000000; stroke-width: 0.8"/>
      </g>
     </g>
    </g>
    <g id="xtick_2">
     <g id="line2d_2">
      <g>
       <use xlink:href="#m25cc07dc44" x="138.763636" y="87.353379" style="stroke: #000000; stroke-width: 0.8"/>
      </g>
     </g>
    </g>
    <g id="xtick_3">
     <g id="line2d_3">
      <g>
       <use xlink:href="#m25cc07dc44" x="203.694545" y="87.353379" style="stroke: #000000; stroke-width: 0.8"/>
      </g>
     </g>
    </g>
    <g id="xtick_4">
     <g id="line2d_4">
      <g>
       <use xlink:href="#m25cc07dc44" x="268.625455" y="87.353379" style="stroke: #000000; stroke-width: 0.8"/>
      </g>
     </g>
    </g>
    <g id="xtick_5">
     <g id="line2d_5">
      <g>
       <use xlink:href="#m25cc07dc44" x="333.556364" y="87.353379" style="stroke: #000000; stroke-width: 0.8"/>
      </g>
     </g>
    </g>
    <g id="xtick_6">
     <g id="line2d_6">
      <g>
       <use xlink:href="#m25cc07dc44" x="398.487273" y="87.353379" style="stroke: #000000; stroke-width: 0.8"/>
      </g>
     </g>
    </g>
   </g>
   <g id="matplotlib.axis_2">
    <g id="ytick_1">
     <g id="line2d_7">
      <defs>
       <path id="mc6533ffa0b" d="M 0 0 
L -3.5 0 
" style="stroke: #000000; stroke-width: 0.8"/>
      </defs>
      <g>
       <use xlink:href="#mc6533ffa0b" x="57.6" y="80.312747" style="stroke: #000000; stroke-width: 0.8"/>
      </g>
     </g>
     <g id="text_1">
      <!-- −10 -->
      <g transform="translate(29.495313 84.111966)scale(0.1 -0.1)">
       <defs>
        <path id="DejaVuSans-2212" d="M 678 2272 
L 4684 2272 
L 4684 1741 
L 678 1741 
L 678 2272 
z
" transform="scale(0.015625)"/>
        <path id="DejaVuSans-31" d="M 794 531 
L 1825 531 
L 1825 4091 
L 703 3866 
L 703 4441 
L 1819 4666 
L 2450 4666 
L 2450 531 
L 3481 531 
L 3481 0 
L 794 0 
L 794 531 
z
" transform="scale(0.015625)"/>
        <path id="DejaVuSans-30" d="M 2034 4250 
Q 1547 4250 1301 3770 
Q 1056 3291 1056 2328 
Q 1056 1369 1301 889 
Q 1547 409 2034 409 
Q 2525 409 2770 889 
Q 3016 1369 3016 2328 
Q 3016 3291 2770 3770 
Q 2525 4250 2034 4250 
z
M 2034 4750 
Q 2819 4750 3233 4129 
Q 3647 3509 3647 2328 
Q 3647 1150 3233 529 
Q 2819 -91 2034 -91 
Q 1250 -91 836 529 
Q 422 1150 422 2328 
Q 422 3509 836 4129 
Q 1250 4750 2034 4750 
z
" transform="scale(0.015625)"/>
       </defs>
       <use xlink:href="#DejaVuSans-2212"/>
       <use xlink:href="#DejaVuSans-31" x="83.789062"/>
       <use xlink:href="#DejaVuSans-30" x="147.412109"/>
      </g>
     </g>
    </g>
    <g id="ytick_2">
     <g id="line2d_8">
      <g>
       <use xlink:href="#mc6533ffa0b" x="57.6" y="60.931021" style="stroke: #000000; stroke-width: 0.8"/>
      </g>
     </g>
     <g id="text_2">
      <!-- 0 -->
      <g transform="translate(44.2375 64.73024)scale(0.1 -0.1)">
       <use xlink:href="#DejaVuSans-30"/>
      </g>
     </g>
    </g>
    <g id="ytick_3">
     <g id="line2d_9">
      <g>
       <use xlink:href="#mc6533ffa0b" x="57.6" y="41.549296" style="stroke: #000000; stroke-width: 0.8"/>
      </g>
     </g>
     <g id="text_3">
      <!-- 10 -->
      <g transform="translate(37.875 45.348514)scale(0.1 -0.1)">
       <use xlink:href="#DejaVuSans-31"/>
       <use xlink:href="#DejaVuSans-30" x="63.623047"/>
      </g>
     </g>
    </g>
    <g id="text_4">
     <!-- flow rate (normalized) -->
     <g transform="translate(23.415625 119.729877)rotate(-90)scale(0.1 -0.1)">
      <defs>
       <path id="DejaVuSans-66" d="M 2375 4863 
L 2375 4384 
L 1825 4384 
Q 1516 4384 1395 4259 
Q 1275 4134 1275 3809 
L 1275 3500 
L 2222 3500 
L 2222 3053 
L 1275 3053 
L 1275 0 
L 697 0 
L 697 3053 
L 147 3053 
L 147 3500 
L 697 3500 
L 697 3744 
Q 697 4328 969 4595 
Q 1241 4863 1831 4863 
L 2375 4863 
z
" transform="scale(0.015625)"/>
       <path id="DejaVuSans-6c" d="M 603 4863 
L 1178 4863 
L 1178 0 
L 603 0 
L 603 4863 
z
" transform="scale(0.015625)"/>
       <path id="DejaVuSans-6f" d="M 1959 3097 
Q 1497 3097 1228 2736 
Q 959 2375 959 1747 
Q 959 1119 1226 758 
Q 1494 397 1959 397 
Q 2419 397 2687 759 
Q 2956 1122 2956 1747 
Q 2956 2369 2687 2733 
Q 2419 3097 1959 3097 
z
M 1959 3584 
Q 2709 3584 3137 3096 
Q 3566 2609 3566 1747 
Q 3566 888 3137 398 
Q 2709 -91 1959 -91 
Q 1206 -91 779 398 
Q 353 888 353 1747 
Q 353 2609 779 3096 
Q 1206 3584 1959 3584 
z
" transform="scale(0.015625)"/>
       <path id="DejaVuSans-77" d="M 269 3500 
L 844 3500 
L 1563 769 
L 2278 3500 
L 2956 3500 
L 3675 769 
L 4391 3500 
L 4966 3500 
L 4050 0 
L 3372 0 
L 2619 2869 
L 1863 0 
L 1184 0 
L 269 3500 
z
" transform="scale(0.015625)"/>
       <path id="DejaVuSans-20" transform="scale(0.015625)"/>
       <path id="DejaVuSans-72" d="M 2631 2963 
Q 2534 3019 2420 3045 
Q 2306 3072 2169 3072 
Q 1681 3072 1420 2755 
Q 1159 2438 1159 1844 
L 1159 0 
L 581 0 
L 581 3500 
L 1159 3500 
L 1159 2956 
Q 1341 3275 1631 3429 
Q 1922 3584 2338 3584 
Q 2397 3584 2469 3576 
Q 2541 3569 2628 3553 
L 2631 2963 
z
" transform="scale(0.015625)"/>
       <path id="DejaVuSans-61" d="M 2194 1759 
Q 1497 1759 1228 1600 
Q 959 1441 959 1056 
Q 959 750 1161 570 
Q 1363 391 1709 391 
Q 2188 391 2477 730 
Q 2766 1069 2766 1631 
L 2766 1759 
L 2194 1759 
z
M 3341 1997 
L 3341 0 
L 2766 0 
L 2766 531 
Q 2569 213 2275 61 
Q 1981 -91 1556 -91 
Q 1019 -91 701 211 
Q 384 513 384 1019 
Q 384 1609 779 1909 
Q 1175 2209 1959 2209 
L 2766 2209 
L 2766 2266 
Q 2766 2663 2505 2880 
Q 2244 3097 1772 3097 
Q 1472 3097 1187 3025 
Q 903 2953 641 2809 
L 641 3341 
Q 956 3463 1253 3523 
Q 1550 3584 1831 3584 
Q 2591 3584 2966 3190 
Q 3341 2797 3341 1997 
z
" transform="scale(0.015625)"/>
       <path id="DejaVuSans-74" d="M 1172 4494 
L 1172 3500 
L 2356 3500 
L 2356 3053 
L 1172 3053 
L 1172 1153 
Q 1172 725 1289 603 
Q 1406 481 1766 481 
L 2356 481 
L 2356 0 
L 1766 0 
Q 1100 0 847 248 
Q 594 497 594 1153 
L 594 3053 
L 172 3053 
L 172 3500 
L 594 3500 
L 594 4494 
L 1172 4494 
z
" transform="scale(0.015625)"/>
       <path id="DejaVuSans-65" d="M 3597 1894 
L 3597 1613 
L 953 1613 
Q 991 1019 1311 708 
Q 1631 397 2203 397 
Q 2534 397 2845 478 
Q 3156 559 3463 722 
L 3463 178 
Q 3153 47 2828 -22 
Q 2503 -91 2169 -91 
Q 1331 -91 842 396 
Q 353 884 353 1716 
Q 353 2575 817 3079 
Q 1281 3584 2069 3584 
Q 2775 3584 3186 3129 
Q 3597 2675 3597 1894 
z
M 3022 2063 
Q 3016 2534 2758 2815 
Q 2500 3097 2075 3097 
Q 1594 3097 1305 2825 
Q 1016 2553 972 2059 
L 3022 2063 
z
" transform="scale(0.015625)"/>
       <path id="DejaVuSans-28" d="M 1984 4856 
Q 1566 4138 1362 3434 
Q 1159 2731 1159 2009 
Q 1159 1288 1364 580 
Q 1569 -128 1984 -844 
L 1484 -844 
Q 1016 -109 783 600 
Q 550 1309 550 2009 
Q 550 2706 781 3412 
Q 1013 4119 1484 4856 
L 1984 4856 
z
" transform="scale(0.015625)"/>
       <path id="DejaVuSans-6e" d="M 3513 2113 
L 3513 0 
L 2938 0 
L 2938 2094 
Q 2938 2591 2744 2837 
Q 2550 3084 2163 3084 
Q 1697 3084 1428 2787 
Q 1159 2491 1159 1978 
L 1159 0 
L 581 0 
L 581 3500 
L 1159 3500 
L 1159 2956 
Q 1366 3272 1645 3428 
Q 1925 3584 2291 3584 
Q 2894 3584 3203 3211 
Q 3513 2838 3513 2113 
z
" transform="scale(0.015625)"/>
       <path id="DejaVuSans-6d" d="M 3328 2828 
Q 3544 3216 3844 3400 
Q 4144 3584 4550 3584 
Q 5097 3584 5394 3201 
Q 5691 2819 5691 2113 
L 5691 0 
L 5113 0 
L 5113 2094 
Q 5113 2597 4934 2840 
Q 4756 3084 4391 3084 
Q 3944 3084 3684 2787 
Q 3425 2491 3425 1978 
L 3425 0 
L 2847 0 
L 2847 2094 
Q 2847 2600 2669 2842 
Q 2491 3084 2119 3084 
Q 1678 3084 1418 2786 
Q 1159 2488 1159 1978 
L 1159 0 
L 581 0 
L 581 3500 
L 1159 3500 
L 1159 2956 
Q 1356 3278 1631 3431 
Q 1906 3584 2284 3584 
Q 2666 3584 2933 3390 
Q 3200 3197 3328 2828 
z
" transform="scale(0.015625)"/>
       <path id="DejaVuSans-69" d="M 603 3500 
L 1178 3500 
L 1178 0 
L 603 0 
L 603 3500 
z
M 603 4863 
L 1178 4863 
L 1178 4134 
L 603 4134 
L 603 4863 
z
" transform="scale(0.015625)"/>
       <path id="DejaVuSans-7a" d="M 353 3500 
L 3084 3500 
L 3084 2975 
L 922 459 
L 3084 459 
L 3084 0 
L 275 0 
L 275 525 
L 2438 3041 
L 353 3041 
L 353 3500 
z
" transform="scale(0.015625)"/>
       <path id="DejaVuSans-64" d="M 2906 2969 
L 2906 4863 
L 3481 4863 
L 3481 0 
L 2906 0 
L 2906 525 
Q 2725 213 2448 61 
Q 2172 -91 1784 -91 
Q 1150 -91 751 415 
Q 353 922 353 1747 
Q 353 2572 751 3078 
Q 1150 3584 1784 3584 
Q 2172 3584 2448 3432 
Q 2725 3281 2906 2969 
z
M 947 1747 
Q 947 1113 1208 752 
Q 1469 391 1925 391 
Q 2381 391 2643 752 
Q 2906 1113 2906 1747 
Q 2906 2381 2643 2742 
Q 2381 3103 1925 3103 
Q 1469 3103 1208 2742 
Q 947 2381 947 1747 
z
" transform="scale(0.015625)"/>
       <path id="DejaVuSans-29" d="M 513 4856 
L 1013 4856 
Q 1481 4119 1714 3412 
Q 1947 2706 1947 2009 
Q 1947 1309 1714 600 
Q 1481 -109 1013 -844 
L 513 -844 
Q 928 -128 1133 580 
Q 1338 1288 1338 2009 
Q 1338 2731 1133 3434 
Q 928 4138 513 4856 
z
" transform="scale(0.015625)"/>
      </defs>
      <use xlink:href="#DejaVuSans-66"/>
      <use xlink:href="#DejaVuSans-6c" x="35.205078"/>
      <use xlink:href="#DejaVuSans-6f" x="62.988281"/>
      <use xlink:href="#DejaVuSans-77" x="124.169922"/>
      <use xlink:href="#DejaVuSans-20" x="205.957031"/>
      <use xlink:href="#DejaVuSans-72" x="237.744141"/>
      <use xlink:href="#DejaVuSans-61" x="278.857422"/>
      <use xlink:href="#DejaVuSans-74" x="340.136719"/>
      <use xlink:href="#DejaVuSans-65" x="379.345703"/>
      <use xlink:href="#DejaVuSans-20" x="440.869141"/>
      <use xlink:href="#DejaVuSans-28" x="472.65625"/>
      <use xlink:href="#DejaVuSans-6e" x="511.669922"/>
      <use xlink:href="#DejaVuSans-6f" x="575.048828"/>
      <use xlink:href="#DejaVuSans-72" x="636.230469"/>
      <use xlink:href="#DejaVuSans-6d" x="675.59375"/>
      <use xlink:href="#DejaVuSans-61" x="773.005859"/>
      <use xlink:href="#DejaVuSans-6c" x="834.285156"/>
      <use xlink:href="#DejaVuSans-69" x="862.068359"/>
      <use xlink:href="#DejaVuSans-7a" x="889.851562"/>
      <use xlink:href="#DejaVuSans-65" x="942.341797"/>
      <use xlink:href="#DejaVuSans-64" x="1003.865234"/>
      <use xlink:href="#DejaVuSans-29" x="1067.341797"/>
     </g>
    </g>
   </g>
   <g id="line2d_10">
    <path d="M 73.832727 61.448975 
L 77.079273 48.999617 
L 80.325818 55.384432 
L 83.572364 57.983216 
L 86.818909 59.281183 
L 90.065455 59.986136 
L 93.312 60.378034 
L 96.558545 60.602121 
L 99.805091 60.734489 
L 103.051636 60.810109 
L 106.298182 60.85581 
L 109.544727 60.882344 
L 112.791273 60.899536 
L 116.037818 60.909622 
L 119.284364 60.916959 
L 122.530909 60.947242 
L 125.777455 59.011363 
L 129.024 59.009549 
L 132.270545 59.008538 
L 135.517091 59.008008 
L 138.763636 59.007739 
L 142.010182 59.007636 
L 145.256727 59.007595 
L 148.503273 59.007561 
L 151.749818 59.007531 
L 154.996364 59.007509 
L 158.242909 59.007496 
L 161.489455 59.007488 
L 164.736 59.007484 
L 167.982545 59.007479 
L 171.229091 59.234936 
L 174.475636 60.000727 
L 177.722182 59.376724 
L 180.968727 58.695937 
L 184.215273 58.154846 
L 187.461818 57.924033 
L 190.708364 58.089729 
L 193.954909 58.40342 
L 197.201455 58.877445 
L 200.448 59.354453 
L 203.694545 59.760107 
L 206.941091 60.098643 
L 210.187636 60.351911 
L 213.434182 60.534748 
L 216.680727 60.663342 
L 219.927273 60.752414 
L 223.173818 60.812229 
L 226.420364 60.852431 
L 229.666909 60.879222 
L 232.913455 60.897064 
L 236.16 60.908437 
L 239.406545 60.915871 
L 242.653091 60.920613 
L 245.899636 60.923932 
L 249.146182 60.926474 
L 252.392727 60.927762 
L 255.639273 60.928846 
L 258.885818 60.929604 
L 262.132364 60.93014 
L 265.378909 60.930479 
L 268.625455 60.934722 
L 271.872 66.737169 
L 275.118545 69.643389 
L 278.365091 70.621436 
L 281.611636 70.551637 
L 284.858182 70.023603 
L 288.104727 69.327431 
L 291.351273 68.605362 
L 294.597818 67.914737 
L 297.844364 67.278294 
L 301.090909 66.702336 
L 304.337455 66.179509 
L 307.584 65.71042 
L 310.830545 65.293598 
L 314.077091 64.916134 
L 317.323636 64.576501 
L 320.570182 64.273948 
L 323.816727 63.999359 
L 327.063273 63.744296 
L 330.309818 63.521777 
L 333.556364 63.317246 
L 336.802909 63.131 
L 340.049455 62.963366 
L 343.296 62.808782 
L 346.542545 62.664065 
L 349.789091 62.532358 
L 353.035636 62.41319 
L 356.282182 62.303824 
L 359.528727 62.201448 
L 362.775273 62.10764 
L 366.021818 62.023077 
L 369.268364 61.944938 
L 372.514909 61.872632 
L 375.761455 61.803767 
L 379.008 61.73982 
L 382.254545 61.682814 
L 385.501091 61.63268 
L 388.747636 61.590468 
L 391.994182 61.536804 
L 395.240727 61.495015 
L 398.487273 61.455835 
" clip-path="url(#pdbd30fbb5b)" style="fill: none; stroke: #1f77b4; stroke-width: 1.5; stroke-linecap: square"/>
   </g>
   <g id="line2d_11">
    <path d="M 73.832727 61.947721 
L 77.079273 43.557517 
L 80.325818 52.743743 
L 83.572364 56.571873 
L 86.818909 58.491773 
L 90.065455 59.534867 
L 93.312 60.113976 
L 96.558545 60.445508 
L 99.805091 60.641094 
L 103.051636 60.752605 
L 106.298182 60.820147 
L 109.544727 60.859239 
L 112.791273 60.884653 
L 116.037818 60.899454 
L 119.284364 60.910306 
L 122.530909 60.310798 
L 125.777455 58.999624 
L 129.024 58.998534 
L 132.270545 58.997544 
L 135.517091 58.996658 
L 138.763636 58.995875 
L 142.010182 58.995203 
L 145.256727 58.994641 
L 148.503273 58.994174 
L 151.749818 58.99378 
L 154.996364 58.993456 
L 158.242909 58.993206 
L 161.489455 58.993019 
L 164.736 58.992861 
L 167.982545 58.992729 
L 171.229091 59.939461 
L 174.475636 60.824336 
L 177.722182 60.797078 
L 180.968727 60.767739 
L 184.215273 60.744948 
L 187.461818 60.738102 
L 190.708364 60.756876 
L 193.954909 60.77294 
L 197.201455 60.802551 
L 200.448 60.831973 
L 203.694545 60.856805 
L 206.941091 60.87824 
L 210.187636 60.894137 
L 213.434182 60.905649 
L 216.680727 60.913808 
L 219.927273 60.919477 
L 223.173818 60.923276 
L 226.420364 60.925844 
L 229.666909 60.92756 
L 232.913455 60.928702 
L 236.16 60.929428 
L 239.406545 60.929902 
L 242.653091 60.930207 
L 245.899636 60.930422 
L 249.146182 60.930585 
L 252.392727 60.930667 
L 255.639273 60.930737 
L 258.885818 60.930785 
L 262.132364 60.930819 
L 265.378909 60.930841 
L 268.625455 60.939742 
L 271.872 71.545106 
L 275.118545 79.0032 
L 278.365091 83.485839 
L 281.611636 85.267862 
L 284.858182 85.208282 
L 288.104727 84.039724 
L 291.351273 82.352341 
L 294.597818 80.488168 
L 297.844364 78.635467 
L 301.090909 76.886763 
L 304.337455 75.259523 
L 307.584 73.792379 
L 310.830545 72.483961 
L 314.077091 71.309237 
L 317.323636 70.261588 
L 320.570182 69.342092 
L 323.816727 68.522102 
L 327.063273 67.776231 
L 330.309818 67.134393 
L 333.556364 66.558376 
L 336.802909 66.043493 
L 340.049455 65.586476 
L 343.296 65.175169 
L 346.542545 64.79918 
L 349.789091 64.462157 
L 353.035636 64.161406 
L 356.282182 63.890227 
L 359.528727 63.641525 
L 362.775273 63.417316 
L 366.021818 63.216705 
L 369.268364 63.033833 
L 372.514909 62.867306 
L 375.761455 62.712496 
L 379.008 62.571473 
L 382.254545 62.445653 
L 385.501091 62.334132 
L 388.747636 62.236238 
L 391.994182 62.129556 
L 395.240727 62.041984 
L 398.487273 61.960131 
" clip-path="url(#pdbd30fbb5b)" style="fill: none; stroke: #ff7f0e; stroke-width: 1.5; stroke-linecap: square"/>
   </g>
   <g id="line2d_12">
    <path d="M 73.832727 60.99176 
L 77.079273 59.552258 
L 80.325818 60.295722 
L 83.572364 60.594082 
L 86.818909 60.742594 
L 90.065455 60.82315 
L 93.312 60.867908 
L 96.558545 60.893489 
L 99.805091 60.908596 
L 103.051636 60.917227 
L 106.298182 60.922441 
L 109.544727 60.925469 
L 112.791273 60.927429 
L 116.037818 60.928581 
L 119.284364 60.929417 
L 122.530909 61.648188 
L 125.777455 59.014693 
L 129.024 59.010252 
L 132.270545 59.007785 
L 135.517091 59.006488 
L 138.763636 59.005836 
L 142.010182 59.005588 
L 145.256727 59.005491 
L 148.503273 59.005414 
L 151.749818 59.005347 
L 154.996364 59.0053 
L 158.242909 59.005274 
L 161.489455 59.005261 
L 164.736 59.005256 
L 167.982545 59.005251 
L 171.229091 59.065234 
L 174.475636 58.59438 
L 177.722182 56.492622 
L 180.968727 54.145821 
L 184.215273 52.204409 
L 187.461818 51.27479 
L 190.708364 51.66847 
L 193.954909 52.729587 
L 197.201455 54.314734 
L 200.448 55.911411 
L 203.694545 57.251728 
L 206.941091 58.349882 
L 210.187636 59.158351 
L 213.434182 59.732169 
L 216.680727 60.129419 
L 219.927273 60.401073 
L 223.173818 60.581459 
L 226.420364 60.701373 
L 229.666909 60.780594 
L 232.913455 60.833041 
L 236.16 60.866193 
L 239.406545 60.887741 
L 242.653091 60.901355 
L 245.899636 60.910877 
L 249.146182 60.918198 
L 252.392727 60.921889 
L 255.639273 60.924994 
L 258.885818 60.927153 
L 262.132364 60.928675 
L 265.378909 60.929628 
L 268.625455 60.93121 
L 271.872 61.55115 
L 275.118545 61.840216 
L 278.365091 61.930077 
L 281.611636 61.919707 
L 284.858182 61.867129 
L 288.104727 61.799373 
L 291.351273 61.729154 
L 294.597818 61.661684 
L 297.844364 61.599002 
L 301.090909 61.541798 
L 304.337455 61.48956 
L 307.584 61.442343 
L 310.830545 61.400037 
L 314.077091 61.361582 
L 317.323636 61.326772 
L 320.570182 61.295554 
L 323.816727 61.267085 
L 327.063273 61.240542 
L 330.309818 61.217212 
L 333.556364 61.195667 
L 336.802909 61.175955 
L 340.049455 61.158186 
L 343.296 61.141671 
L 346.542545 61.126126 
L 349.789091 61.111922 
L 353.035636 61.099018 
L 356.282182 61.087122 
L 359.528727 61.075933 
L 362.775273 61.065642 
L 366.021818 61.056349 
L 369.268364 61.047734 
L 372.514909 61.039729 
L 375.761455 61.032006 
L 379.008 61.024777 
L 382.254545 61.018364 
L 385.501091 61.012814 
L 388.747636 61.008394 
L 391.994182 61.001911 
L 395.240727 60.997126 
L 398.487273 60.992625 
" clip-path="url(#pdbd30fbb5b)" style="fill: none; stroke: #2ca02c; stroke-width: 1.5; stroke-linecap: square"/>
   </g>
   <g id="patch_3">
    <path d="M 57.6 87.353379 
L 57.6 41.472 
" style="fill: none; stroke: #000000; stroke-width: 0.8; stroke-linejoin: miter; stroke-linecap: square"/>
   </g>
   <g id="patch_4">
    <path d="M 414.72 87.353379 
L 414.72 41.472 
" style="fill: none; stroke: #000000; stroke-width: 0.8; stroke-linejoin: miter; stroke-linecap: square"/>
   </g>
   <g id="patch_5">
    <path d="M 57.6 87.353379 
L 414.72 87.353379 
" style="fill: none; stroke: #000000; stroke-width: 0.8; stroke-linejoin: miter; stroke-linecap: square"/>
   </g>
   <g id="patch_6">
    <path d="M 57.6 41.472 
L 414.72 41.472 
" style="fill: none; stroke: #000000; stroke-width: 0.8; stroke-linejoin: miter; stroke-linecap: square"/>
   </g>
   <g id="text_5">
    <!-- velocity vs time (container 1)   -->
    <g transform="translate(144.106875 35.472)scale(0.12 -0.12)">
     <defs>
      <path id="DejaVuSans-76" d="M 191 3500 
L 800 3500 
L 1894 563 
L 2988 3500 
L 3597 3500 
L 2284 0 
L 1503 0 
L 191 3500 
z
" transform="scale(0.015625)"/>
      <path id="DejaVuSans-63" d="M 3122 3366 
L 3122 2828 
Q 2878 2963 2633 3030 
Q 2388 3097 2138 3097 
Q 1578 3097 1268 2742 
Q 959 2388 959 1747 
Q 959 1106 1268 751 
Q 1578 397 2138 397 
Q 2388 397 2633 464 
Q 2878 531 3122 666 
L 3122 134 
Q 2881 22 2623 -34 
Q 2366 -91 2075 -91 
Q 1284 -91 818 406 
Q 353 903 353 1747 
Q 353 2603 823 3093 
Q 1294 3584 2113 3584 
Q 2378 3584 2631 3529 
Q 2884 3475 3122 3366 
z
" transform="scale(0.015625)"/>
      <path id="DejaVuSans-79" d="M 2059 -325 
Q 1816 -950 1584 -1140 
Q 1353 -1331 966 -1331 
L 506 -1331 
L 506 -850 
L 844 -850 
Q 1081 -850 1212 -737 
Q 1344 -625 1503 -206 
L 1606 56 
L 191 3500 
L 800 3500 
L 1894 763 
L 2988 3500 
L 3597 3500 
L 2059 -325 
z
" transform="scale(0.015625)"/>
      <path id="DejaVuSans-73" d="M 2834 3397 
L 2834 2853 
Q 2591 2978 2328 3040 
Q 2066 3103 1784 3103 
Q 1356 3103 1142 2972 
Q 928 2841 928 2578 
Q 928 2378 1081 2264 
Q 1234 2150 1697 2047 
L 1894 2003 
Q 2506 1872 2764 1633 
Q 3022 1394 3022 966 
Q 3022 478 2636 193 
Q 2250 -91 1575 -91 
Q 1294 -91 989 -36 
Q 684 19 347 128 
L 347 722 
Q 666 556 975 473 
Q 1284 391 1588 391 
Q 1994 391 2212 530 
Q 2431 669 2431 922 
Q 2431 1156 2273 1281 
Q 2116 1406 1581 1522 
L 1381 1569 
Q 847 1681 609 1914 
Q 372 2147 372 2553 
Q 372 3047 722 3315 
Q 1072 3584 1716 3584 
Q 2034 3584 2315 3537 
Q 2597 3491 2834 3397 
z
" transform="scale(0.015625)"/>
     </defs>
     <use xlink:href="#DejaVuSans-76"/>
     <use xlink:href="#DejaVuSans-65" x="59.179688"/>
     <use xlink:href="#DejaVuSans-6c" x="120.703125"/>
     <use xlink:href="#DejaVuSans-6f" x="148.486328"/>
     <use xlink:href="#DejaVuSans-63" x="209.667969"/>
     <use xlink:href="#DejaVuSans-69" x="264.648438"/>
     <use xlink:href="#DejaVuSans-74" x="292.431641"/>
     <use xlink:href="#DejaVuSans-79" x="331.640625"/>
     <use xlink:href="#DejaVuSans-20" x="390.820312"/>
     <use xlink:href="#DejaVuSans-76" x="422.607422"/>
     <use xlink:href="#DejaVuSans-73" x="481.787109"/>
     <use xlink:href="#DejaVuSans-20" x="533.886719"/>
     <use xlink:href="#DejaVuSans-74" x="565.673828"/>
     <use xlink:href="#DejaVuSans-69" x="604.882812"/>
     <use xlink:href="#DejaVuSans-6d" x="632.666016"/>
     <use xlink:href="#DejaVuSans-65" x="730.078125"/>
     <use xlink:href="#DejaVuSans-20" x="791.601562"/>
     <use xlink:href="#DejaVuSans-28" x="823.388672"/>
     <use xlink:href="#DejaVuSans-63" x="862.402344"/>
     <use xlink:href="#DejaVuSans-6f" x="917.382812"/>
     <use xlink:href="#DejaVuSans-6e" x="978.564453"/>
     <use xlink:href="#DejaVuSans-74" x="1041.943359"/>
     <use xlink:href="#DejaVuSans-61" x="1081.152344"/>
     <use xlink:href="#DejaVuSans-69" x="1142.431641"/>
     <use xlink:href="#DejaVuSans-6e" x="1170.214844"/>
     <use xlink:href="#DejaVuSans-65" x="1233.59375"/>
     <use xlink:href="#DejaVuSans-72" x="1295.117188"/>
     <use xlink:href="#DejaVuSans-20" x="1336.230469"/>
     <use xlink:href="#DejaVuSans-31" x="1368.017578"/>
     <use xlink:href="#DejaVuSans-29" x="1431.640625"/>
     <use xlink:href="#DejaVuSans-20" x="1470.654297"/>
     <use xlink:href="#DejaVuSans-20" x="1502.441406"/>
    </g>
   </g>
   <g id="legend_1">
    <g id="patch_7">
     <path d="M 64.6 93.506375 
L 139.240625 93.506375 
Q 141.240625 93.506375 141.240625 91.506375 
L 141.240625 48.472 
Q 141.240625 46.472 139.240625 46.472 
L 64.6 46.472 
Q 62.6 46.472 62.6 48.472 
L 62.6 91.506375 
Q 62.6 93.506375 64.6 93.506375 
z
" style="fill: #ffffff; opacity: 0.8; stroke: #cccccc; stroke-linejoin: miter"/>
    </g>
    <g id="line2d_13">
     <path d="M 66.6 54.570437 
L 76.6 54.570437 
L 86.6 54.570437 
" style="fill: none; stroke: #1f77b4; stroke-width: 1.5; stroke-linecap: square"/>
    </g>
    <g id="text_6">
     <!-- mid flow -->
     <g transform="translate(94.6 58.070437)scale(0.1 -0.1)">
      <use xlink:href="#DejaVuSans-6d"/>
      <use xlink:href="#DejaVuSans-69" x="97.412109"/>
      <use xlink:href="#DejaVuSans-64" x="125.195312"/>
      <use xlink:href="#DejaVuSans-20" x="188.671875"/>
      <use xlink:href="#DejaVuSans-66" x="220.458984"/>
      <use xlink:href="#DejaVuSans-6c" x="255.664062"/>
      <use xlink:href="#DejaVuSans-6f" x="283.447266"/>
      <use xlink:href="#DejaVuSans-77" x="344.628906"/>
     </g>
    </g>
    <g id="line2d_14">
     <path d="M 66.6 69.248562 
L 76.6 69.248562 
L 86.6 69.248562 
" style="fill: none; stroke: #ff7f0e; stroke-width: 1.5; stroke-linecap: square"/>
    </g>
    <g id="text_7">
     <!-- v0 flow -->
     <g transform="translate(94.6 72.748562)scale(0.1 -0.1)">
      <use xlink:href="#DejaVuSans-76"/>
      <use xlink:href="#DejaVuSans-30" x="59.179688"/>
      <use xlink:href="#DejaVuSans-20" x="122.802734"/>
      <use xlink:href="#DejaVuSans-66" x="154.589844"/>
      <use xlink:href="#DejaVuSans-6c" x="189.794922"/>
      <use xlink:href="#DejaVuSans-6f" x="217.578125"/>
      <use xlink:href="#DejaVuSans-77" x="278.759766"/>
     </g>
    </g>
    <g id="line2d_15">
     <path d="M 66.6 83.926687 
L 76.6 83.926687 
L 86.6 83.926687 
" style="fill: none; stroke: #2ca02c; stroke-width: 1.5; stroke-linecap: square"/>
    </g>
    <g id="text_8">
     <!-- vN flow -->
     <g transform="translate(94.6 87.426687)scale(0.1 -0.1)">
      <defs>
       <path id="DejaVuSans-4e" d="M 628 4666 
L 1478 4666 
L 3547 763 
L 3547 4666 
L 4159 4666 
L 4159 0 
L 3309 0 
L 1241 3903 
L 1241 0 
L 628 0 
L 628 4666 
z
" transform="scale(0.015625)"/>
      </defs>
      <use xlink:href="#DejaVuSans-76"/>
      <use xlink:href="#DejaVuSans-4e" x="59.179688"/>
      <use xlink:href="#DejaVuSans-20" x="133.984375"/>
      <use xlink:href="#DejaVuSans-66" x="165.771484"/>
      <use xlink:href="#DejaVuSans-6c" x="200.976562"/>
      <use xlink:href="#DejaVuSans-6f" x="228.759766"/>
      <use xlink:href="#DejaVuSans-77" x="289.941406"/>
     </g>
    </g>
   </g>
  </g>
  <g id="axes_2">
   <g id="patch_8">
    <path d="M 57.6 142.411034 
L 414.72 142.411034 
L 414.72 96.529655 
L 57.6 96.529655 
z
" style="fill: #ffffff"/>
   </g>
   <g id="matplotlib.axis_3">
    <g id="xtick_7">
     <g id="line2d_16">
      <g>
       <use xlink:href="#m25cc07dc44" x="73.832727" y="142.411034" style="stroke: #000000; stroke-width: 0.8"/>
      </g>
     </g>
    </g>
    <g id="xtick_8">
     <g id="line2d_17">
      <g>
       <use xlink:href="#m25cc07dc44" x="138.763636" y="142.411034" style="stroke: #000000; stroke-width: 0.8"/>
      </g>
     </g>
    </g>
    <g id="xtick_9">
     <g id="line2d_18">
      <g>
       <use xlink:href="#m25cc07dc44" x="203.694545" y="142.411034" style="stroke: #000000; stroke-width: 0.8"/>
      </g>
     </g>
    </g>
    <g id="xtick_10">
     <g id="line2d_19">
      <g>
       <use xlink:href="#m25cc07dc44" x="268.625455" y="142.411034" style="stroke: #000000; stroke-width: 0.8"/>
      </g>
     </g>
    </g>
    <g id="xtick_11">
     <g id="line2d_20">
      <g>
       <use xlink:href="#m25cc07dc44" x="333.556364" y="142.411034" style="stroke: #000000; stroke-width: 0.8"/>
      </g>
     </g>
    </g>
    <g id="xtick_12">
     <g id="line2d_21">
      <g>
       <use xlink:href="#m25cc07dc44" x="398.487273" y="142.411034" style="stroke: #000000; stroke-width: 0.8"/>
      </g>
     </g>
    </g>
   </g>
   <g id="matplotlib.axis_4">
    <g id="ytick_4">
     <g id="line2d_22">
      <g>
       <use xlink:href="#mc6533ffa0b" x="57.6" y="140.747547" style="stroke: #000000; stroke-width: 0.8"/>
      </g>
     </g>
     <g id="text_9">
      <!-- 0 -->
      <g transform="translate(44.2375 144.546766)scale(0.1 -0.1)">
       <use xlink:href="#DejaVuSans-30"/>
      </g>
     </g>
    </g>
    <g id="ytick_5">
     <g id="line2d_23">
      <g>
       <use xlink:href="#mc6533ffa0b" x="57.6" y="98.770494" style="stroke: #000000; stroke-width: 0.8"/>
      </g>
     </g>
     <g id="text_10">
      <!-- 1 -->
      <g transform="translate(44.2375 102.569713)scale(0.1 -0.1)">
       <use xlink:href="#DejaVuSans-31"/>
      </g>
     </g>
    </g>
   </g>
   <g id="line2d_24">
    <path d="M 73.832727 140.325517 
L 77.079273 124.013546 
L 80.325818 114.077452 
L 83.572364 108.05347 
L 86.818909 104.399581 
L 90.065455 102.183449 
L 93.312 100.842084 
L 96.558545 100.023558 
L 99.805091 99.533624 
L 103.051636 99.235947 
L 106.298182 99.051688 
L 109.544727 98.942142 
L 112.791273 98.877976 
L 116.037818 98.836578 
L 119.284364 98.808471 
L 122.530909 98.780238 
L 125.777455 98.615637 
L 129.024 98.615472 
L 132.270545 98.615375 
L 135.517091 98.61532 
L 138.763636 98.615286 
L 142.010182 98.615267 
L 145.256727 98.615253 
L 148.503273 98.61524 
L 151.749818 98.615227 
L 154.996364 98.615215 
L 158.242909 98.615204 
L 161.489455 98.615193 
L 164.736 98.615183 
L 167.982545 98.615172 
L 171.229091 98.646555 
L 174.475636 113.55591 
L 177.722182 122.509813 
L 180.968727 127.907051 
L 184.215273 131.163674 
L 187.461818 133.162877 
L 190.708364 134.387372 
L 193.954909 135.163125 
L 197.201455 135.659472 
L 200.448 135.976906 
L 203.694545 136.185508 
L 206.941091 136.316306 
L 210.187636 136.401472 
L 213.434182 136.45569 
L 216.680727 136.490368 
L 219.927273 136.512299 
L 223.173818 136.526147 
L 226.420364 136.534891 
L 229.666909 136.540392 
L 232.913455 136.543879 
L 236.16 136.545997 
L 239.406545 136.547403 
L 242.653091 136.548235 
L 245.899636 136.548797 
L 249.146182 136.549216 
L 252.392727 136.549395 
L 255.639273 136.549549 
L 258.885818 136.549651 
L 262.132364 136.549724 
L 265.378909 136.549769 
L 268.625455 136.550375 
L 271.872 138.011911 
L 275.118545 138.892868 
L 278.365091 139.424256 
L 281.611636 139.743225 
L 284.858182 139.938029 
L 288.104727 140.059386 
L 291.351273 140.137246 
L 294.597818 140.1888 
L 297.844364 140.223794 
L 301.090909 140.247967 
L 304.337455 140.265173 
L 307.584 140.277561 
L 310.830545 140.286665 
L 314.077091 140.293537 
L 317.323636 140.298853 
L 320.570182 140.302973 
L 323.816727 140.306288 
L 327.063273 140.309038 
L 330.309818 140.311255 
L 333.556364 140.313136 
L 336.802909 140.314745 
L 340.049455 140.316108 
L 343.296 140.317299 
L 346.542545 140.318346 
L 349.789091 140.319263 
L 353.035636 140.320067 
L 356.282182 140.320777 
L 359.528727 140.321417 
L 362.775273 140.321984 
L 366.021818 140.322486 
L 369.268364 140.322939 
L 372.514909 140.323346 
L 375.761455 140.323721 
L 379.008 140.324058 
L 382.254545 140.324356 
L 385.501091 140.324618 
L 388.747636 140.324849 
L 391.994182 140.325096 
L 395.240727 140.325299 
L 398.487273 140.325487 
" clip-path="url(#pa79bcea676)" style="fill: none; stroke: #1f77b4; stroke-width: 1.5; stroke-linecap: square"/>
   </g>
   <g id="line2d_25">
    <path d="M 73.832727 140.292101 
L 77.079273 124.663148 
L 80.325818 114.382001 
L 83.572364 108.215523 
L 86.818909 104.490276 
L 90.065455 102.235377 
L 93.312 100.872475 
L 96.558545 100.041625 
L 99.805091 99.544416 
L 103.051636 99.242588 
L 106.298182 99.055816 
L 109.544727 98.944814 
L 112.791273 98.879704 
L 116.037818 98.837753 
L 119.284364 98.809243 
L 122.530909 98.792503 
L 125.777455 98.695206 
L 129.024 98.695079 
L 132.270545 98.695008 
L 135.517091 98.694971 
L 138.763636 98.694952 
L 142.010182 98.694945 
L 145.256727 98.694943 
L 148.503273 98.69494 
L 151.749818 98.694939 
L 154.996364 98.694937 
L 158.242909 98.694936 
L 161.489455 98.694936 
L 164.736 98.694936 
L 167.982545 98.694936 
L 171.229091 98.701438 
L 174.475636 113.570914 
L 177.722182 122.531894 
L 180.968727 127.936788 
L 184.215273 131.19941 
L 187.461818 133.200918 
L 190.708364 134.422709 
L 193.954909 135.194716 
L 197.201455 135.685115 
L 200.448 135.99661 
L 203.694545 136.200178 
L 206.941091 136.326738 
L 210.187636 136.408742 
L 213.434182 136.460674 
L 216.680727 136.49374 
L 219.927273 136.514553 
L 223.173818 136.52765 
L 226.420364 136.535889 
L 229.666909 136.541053 
L 232.913455 136.544315 
L 236.16 136.54629 
L 239.406545 136.547602 
L 242.653091 136.548374 
L 245.899636 136.548894 
L 249.146182 136.549281 
L 252.392727 136.549444 
L 255.639273 136.549585 
L 258.885818 136.549677 
L 262.132364 136.549743 
L 265.378909 136.549784 
L 268.625455 136.550106 
L 271.872 137.650173 
L 275.118545 138.307618 
L 278.365091 138.727639 
L 281.611636 139.016987 
L 284.858182 139.229593 
L 288.104727 139.39367 
L 291.351273 139.524103 
L 294.597818 139.63024 
L 297.844364 139.717777 
L 301.090909 139.790655 
L 304.337455 139.852731 
L 307.584 139.905419 
L 310.830545 139.950358 
L 314.077091 139.989485 
L 317.323636 140.023646 
L 320.570182 140.053192 
L 323.816727 140.079331 
L 327.063273 140.10302 
L 330.309818 140.123328 
L 333.556364 140.141594 
L 336.802909 140.157957 
L 340.049455 140.172495 
L 343.296 140.185648 
L 346.542545 140.197737 
L 349.789091 140.208614 
L 353.035636 140.218354 
L 356.282182 140.22718 
L 359.528727 140.235323 
L 362.775273 140.2427 
L 366.021818 140.249317 
L 369.268364 140.255374 
L 372.514909 140.260919 
L 375.761455 140.266108 
L 379.008 140.270863 
L 382.254545 140.275109 
L 385.501091 140.27887 
L 388.747636 140.282143 
L 391.994182 140.285848 
L 395.240727 140.288852 
L 398.487273 140.291663 
" clip-path="url(#pa79bcea676)" style="fill: none; stroke: #ff7f0e; stroke-width: 1.5; stroke-linecap: square"/>
   </g>
   <g id="line2d_26">
    <path d="M 73.832727 140.281109 
L 77.079273 124.91576 
L 80.325818 114.499007 
L 83.572364 108.277657 
L 86.818909 104.525041 
L 90.065455 102.255284 
L 93.312 100.884124 
L 96.558545 100.048553 
L 99.805091 99.548556 
L 103.051636 99.245135 
L 106.298182 99.0574 
L 109.544727 98.945839 
L 112.791273 98.880367 
L 116.037818 98.838203 
L 119.284364 98.809539 
L 122.530909 98.782523 
L 125.777455 98.766535 
L 129.024 98.766525 
L 132.270545 98.76652 
L 135.517091 98.766517 
L 138.763636 98.766515 
L 142.010182 98.766515 
L 145.256727 98.766515 
L 148.503273 98.766514 
L 151.749818 98.766514 
L 154.996364 98.766514 
L 158.242909 98.766514 
L 161.489455 98.766514 
L 164.736 98.766514 
L 167.982545 98.766514 
L 171.229091 98.768207 
L 174.475636 113.631166 
L 177.722182 122.642035 
L 180.968727 128.102105 
L 184.215273 131.409626 
L 187.461818 133.43181 
L 190.708364 134.643193 
L 193.954909 135.390279 
L 197.201455 135.84347 
L 200.448 136.117439 
L 203.694545 136.289295 
L 206.941091 136.389657 
L 210.187636 136.452218 
L 213.434182 136.490239 
L 216.680727 136.513604 
L 219.927273 136.527743 
L 223.173818 136.536383 
L 226.420364 136.541645 
L 229.666909 136.544834 
L 232.913455 136.546785 
L 236.16 136.547928 
L 239.406545 136.548698 
L 242.653091 136.549126 
L 245.899636 136.549405 
L 249.146182 136.549607 
L 252.392727 136.549677 
L 255.639273 136.549739 
L 258.885818 136.549777 
L 262.132364 136.549804 
L 265.378909 136.54982 
L 268.625455 136.550036 
L 271.872 137.531459 
L 275.118545 138.131448 
L 278.365091 138.532895 
L 281.611636 138.824032 
L 284.858182 139.04716 
L 288.104727 139.224919 
L 291.351273 139.369516 
L 294.597818 139.489216 
L 297.844364 139.589289 
L 301.090909 139.67355 
L 304.337455 139.74598 
L 307.584 139.807987 
L 310.830545 139.861236 
L 314.077091 139.9079 
L 317.323636 139.948858 
L 320.570182 139.984479 
L 323.816727 140.016141 
L 327.063273 140.044967 
L 330.309818 140.069773 
L 333.556364 140.092181 
L 336.802909 140.112323 
L 340.049455 140.130265 
L 343.296 140.146568 
L 346.542545 140.161613 
L 349.789091 140.175183 
L 353.035636 140.187366 
L 356.282182 140.198438 
L 359.528727 140.208688 
L 362.775273 140.217998 
L 366.021818 140.226359 
L 369.268364 140.234031 
L 372.514909 140.241072 
L 375.761455 140.247694 
L 379.008 140.253785 
L 382.254545 140.259218 
L 385.501091 140.264017 
L 388.747636 140.268146 
L 391.994182 140.273003 
L 395.240727 140.276884 
L 398.487273 140.280519 
" clip-path="url(#pa79bcea676)" style="fill: none; stroke: #2ca02c; stroke-width: 1.5; stroke-linecap: square"/>
   </g>
   <g id="patch_9">
    <path d="M 57.6 142.411034 
L 57.6 96.529655 
" style="fill: none; stroke: #000000; stroke-width: 0.8; stroke-linejoin: miter; stroke-linecap: square"/>
   </g>
   <g id="patch_10">
    <path d="M 414.72 142.411034 
L 414.72 96.529655 
" style="fill: none; stroke: #000000; stroke-width: 0.8; stroke-linejoin: miter; stroke-linecap: square"/>
   </g>
   <g id="patch_11">
    <path d="M 57.6 142.411034 
L 414.72 142.411034 
" style="fill: none; stroke: #000000; stroke-width: 0.8; stroke-linejoin: miter; stroke-linecap: square"/>
   </g>
   <g id="patch_12">
    <path d="M 57.6 96.529655 
L 414.72 96.529655 
" style="fill: none; stroke: #000000; stroke-width: 0.8; stroke-linejoin: miter; stroke-linecap: square"/>
   </g>
   <g id="text_11">
    <!-- Pressure -->
    <g transform="translate(210.546562 90.529655)scale(0.12 -0.12)">
     <defs>
      <path id="DejaVuSans-50" d="M 1259 4147 
L 1259 2394 
L 2053 2394 
Q 2494 2394 2734 2622 
Q 2975 2850 2975 3272 
Q 2975 3691 2734 3919 
Q 2494 4147 2053 4147 
L 1259 4147 
z
M 628 4666 
L 2053 4666 
Q 2838 4666 3239 4311 
Q 3641 3956 3641 3272 
Q 3641 2581 3239 2228 
Q 2838 1875 2053 1875 
L 1259 1875 
L 1259 0 
L 628 0 
L 628 4666 
z
" transform="scale(0.015625)"/>
      <path id="DejaVuSans-75" d="M 544 1381 
L 544 3500 
L 1119 3500 
L 1119 1403 
Q 1119 906 1312 657 
Q 1506 409 1894 409 
Q 2359 409 2629 706 
Q 2900 1003 2900 1516 
L 2900 3500 
L 3475 3500 
L 3475 0 
L 2900 0 
L 2900 538 
Q 2691 219 2414 64 
Q 2138 -91 1772 -91 
Q 1169 -91 856 284 
Q 544 659 544 1381 
z
M 1991 3584 
L 1991 3584 
z
" transform="scale(0.015625)"/>
     </defs>
     <use xlink:href="#DejaVuSans-50"/>
     <use xlink:href="#DejaVuSans-72" x="58.552734"/>
     <use xlink:href="#DejaVuSans-65" x="97.416016"/>
     <use xlink:href="#DejaVuSans-73" x="158.939453"/>
     <use xlink:href="#DejaVuSans-73" x="211.039062"/>
     <use xlink:href="#DejaVuSans-75" x="263.138672"/>
     <use xlink:href="#DejaVuSans-72" x="326.517578"/>
     <use xlink:href="#DejaVuSans-65" x="365.380859"/>
    </g>
   </g>
   <g id="legend_2">
    <g id="patch_13">
     <path d="M 350.823125 137.411034 
L 407.72 137.411034 
Q 409.72 137.411034 409.72 135.411034 
L 409.72 92.376659 
Q 409.72 90.376659 407.72 90.376659 
L 350.823125 90.376659 
Q 348.823125 90.376659 348.823125 92.376659 
L 348.823125 135.411034 
Q 348.823125 137.411034 350.823125 137.411034 
z
" style="fill: #ffffff; opacity: 0.8; stroke: #cccccc; stroke-linejoin: miter"/>
    </g>
    <g id="line2d_27">
     <path d="M 352.823125 98.475097 
L 362.823125 98.475097 
L 372.823125 98.475097 
" style="fill: none; stroke: #1f77b4; stroke-width: 1.5; stroke-linecap: square"/>
    </g>
    <g id="text_12">
     <!-- P1 -->
     <g transform="translate(380.823125 101.975097)scale(0.1 -0.1)">
      <use xlink:href="#DejaVuSans-50"/>
      <use xlink:href="#DejaVuSans-31" x="60.302734"/>
     </g>
    </g>
    <g id="line2d_28">
     <path d="M 352.823125 113.153222 
L 362.823125 113.153222 
L 372.823125 113.153222 
" style="fill: none; stroke: #ff7f0e; stroke-width: 1.5; stroke-linecap: square"/>
    </g>
    <g id="text_13">
     <!-- Pmid -->
     <g transform="translate(380.823125 116.653222)scale(0.1 -0.1)">
      <use xlink:href="#DejaVuSans-50"/>
      <use xlink:href="#DejaVuSans-6d" x="60.302734"/>
      <use xlink:href="#DejaVuSans-69" x="157.714844"/>
      <use xlink:href="#DejaVuSans-64" x="185.498047"/>
     </g>
    </g>
    <g id="line2d_29">
     <path d="M 352.823125 127.831347 
L 362.823125 127.831347 
L 372.823125 127.831347 
" style="fill: none; stroke: #2ca02c; stroke-width: 1.5; stroke-linecap: square"/>
    </g>
    <g id="text_14">
     <!-- PN -->
     <g transform="translate(380.823125 131.331347)scale(0.1 -0.1)">
      <use xlink:href="#DejaVuSans-50"/>
      <use xlink:href="#DejaVuSans-4e" x="60.302734"/>
     </g>
    </g>
   </g>
  </g>
  <g id="axes_3">
   <g id="patch_14">
    <path d="M 57.6 197.46869 
L 414.72 197.46869 
L 414.72 151.58731 
L 57.6 151.58731 
z
" style="fill: #ffffff"/>
   </g>
   <g id="matplotlib.axis_5">
    <g id="xtick_13">
     <g id="line2d_30">
      <g>
       <use xlink:href="#m25cc07dc44" x="73.832727" y="197.46869" style="stroke: #000000; stroke-width: 0.8"/>
      </g>
     </g>
    </g>
    <g id="xtick_14">
     <g id="line2d_31">
      <g>
       <use xlink:href="#m25cc07dc44" x="138.763636" y="197.46869" style="stroke: #000000; stroke-width: 0.8"/>
      </g>
     </g>
    </g>
    <g id="xtick_15">
     <g id="line2d_32">
      <g>
       <use xlink:href="#m25cc07dc44" x="203.694545" y="197.46869" style="stroke: #000000; stroke-width: 0.8"/>
      </g>
     </g>
    </g>
    <g id="xtick_16">
     <g id="line2d_33">
      <g>
       <use xlink:href="#m25cc07dc44" x="268.625455" y="197.46869" style="stroke: #000000; stroke-width: 0.8"/>
      </g>
     </g>
    </g>
    <g id="xtick_17">
     <g id="line2d_34">
      <g>
       <use xlink:href="#m25cc07dc44" x="333.556364" y="197.46869" style="stroke: #000000; stroke-width: 0.8"/>
      </g>
     </g>
    </g>
    <g id="xtick_18">
     <g id="line2d_35">
      <g>
       <use xlink:href="#m25cc07dc44" x="398.487273" y="197.46869" style="stroke: #000000; stroke-width: 0.8"/>
      </g>
     </g>
    </g>
   </g>
   <g id="matplotlib.axis_6">
    <g id="ytick_6">
     <g id="line2d_36">
      <g>
       <use xlink:href="#mc6533ffa0b" x="57.6" y="195.674828" style="stroke: #000000; stroke-width: 0.8"/>
      </g>
     </g>
     <g id="text_15">
      <!-- 0.00 -->
      <g transform="translate(28.334375 199.474046)scale(0.1 -0.1)">
       <defs>
        <path id="DejaVuSans-2e" d="M 684 794 
L 1344 794 
L 1344 0 
L 684 0 
L 684 794 
z
" transform="scale(0.015625)"/>
       </defs>
       <use xlink:href="#DejaVuSans-30"/>
       <use xlink:href="#DejaVuSans-2e" x="63.623047"/>
       <use xlink:href="#DejaVuSans-30" x="95.410156"/>
       <use xlink:href="#DejaVuSans-30" x="159.033203"/>
      </g>
     </g>
    </g>
    <g id="ytick_7">
     <g id="line2d_37">
      <g>
       <use xlink:href="#mc6533ffa0b" x="57.6" y="168.810296" style="stroke: #000000; stroke-width: 0.8"/>
      </g>
     </g>
     <g id="text_16">
      <!-- 0.25 -->
      <g transform="translate(28.334375 172.609515)scale(0.1 -0.1)">
       <defs>
        <path id="DejaVuSans-32" d="M 1228 531 
L 3431 531 
L 3431 0 
L 469 0 
L 469 531 
Q 828 903 1448 1529 
Q 2069 2156 2228 2338 
Q 2531 2678 2651 2914 
Q 2772 3150 2772 3378 
Q 2772 3750 2511 3984 
Q 2250 4219 1831 4219 
Q 1534 4219 1204 4116 
Q 875 4013 500 3803 
L 500 4441 
Q 881 4594 1212 4672 
Q 1544 4750 1819 4750 
Q 2544 4750 2975 4387 
Q 3406 4025 3406 3419 
Q 3406 3131 3298 2873 
Q 3191 2616 2906 2266 
Q 2828 2175 2409 1742 
Q 1991 1309 1228 531 
z
" transform="scale(0.015625)"/>
        <path id="DejaVuSans-35" d="M 691 4666 
L 3169 4666 
L 3169 4134 
L 1269 4134 
L 1269 2991 
Q 1406 3038 1543 3061 
Q 1681 3084 1819 3084 
Q 2600 3084 3056 2656 
Q 3513 2228 3513 1497 
Q 3513 744 3044 326 
Q 2575 -91 1722 -91 
Q 1428 -91 1123 -41 
Q 819 9 494 109 
L 494 744 
Q 775 591 1075 516 
Q 1375 441 1709 441 
Q 2250 441 2565 725 
Q 2881 1009 2881 1497 
Q 2881 1984 2565 2268 
Q 2250 2553 1709 2553 
Q 1456 2553 1204 2497 
Q 953 2441 691 2322 
L 691 4666 
z
" transform="scale(0.015625)"/>
       </defs>
       <use xlink:href="#DejaVuSans-30"/>
       <use xlink:href="#DejaVuSans-2e" x="63.623047"/>
       <use xlink:href="#DejaVuSans-32" x="95.410156"/>
       <use xlink:href="#DejaVuSans-35" x="159.033203"/>
      </g>
     </g>
    </g>
    <g id="text_17">
     <!-- fraction -->
     <g transform="translate(22.254687 193.73425)rotate(-90)scale(0.1 -0.1)">
      <use xlink:href="#DejaVuSans-66"/>
      <use xlink:href="#DejaVuSans-72" x="35.205078"/>
      <use xlink:href="#DejaVuSans-61" x="76.318359"/>
      <use xlink:href="#DejaVuSans-63" x="137.597656"/>
      <use xlink:href="#DejaVuSans-74" x="192.578125"/>
      <use xlink:href="#DejaVuSans-69" x="231.787109"/>
      <use xlink:href="#DejaVuSans-6f" x="259.570312"/>
      <use xlink:href="#DejaVuSans-6e" x="320.751953"/>
     </g>
    </g>
   </g>
   <g id="line2d_38">
    <path d="M 73.832727 153.691882 
L 77.079273 191.66964 
L 80.325818 191.692554 
L 83.572364 191.678166 
L 86.818909 191.666987 
L 90.065455 191.660426 
L 93.312 191.655295 
L 96.558545 191.64276 
L 99.805091 191.682583 
L 103.051636 191.654156 
L 106.298182 191.656673 
L 109.544727 191.659487 
L 112.791273 191.66381 
L 116.037818 191.666876 
L 119.284364 191.6696 
L 122.530909 191.671028 
L 125.777455 191.006144 
L 129.024 190.850318 
L 132.270545 190.72453 
L 135.517091 190.625082 
L 138.763636 190.547734 
L 142.010182 190.489147 
L 145.256727 190.444849 
L 148.503273 190.410887 
L 151.749818 190.384737 
L 154.996364 190.364757 
L 158.242909 190.349597 
L 161.489455 190.338061 
L 164.736 190.329265 
L 167.982545 190.322611 
L 171.229091 190.317632 
L 174.475636 189.699648 
L 177.722182 188.799066 
L 180.968727 187.661401 
L 184.215273 186.368907 
L 187.461818 185.025025 
L 190.708364 183.800873 
L 193.954909 182.752175 
L 197.201455 181.916362 
L 200.448 181.291204 
L 203.694545 180.826955 
L 206.941091 180.521324 
L 210.187636 180.309816 
L 213.434182 180.170858 
L 216.680727 180.080302 
L 219.927273 180.02248 
L 223.173818 179.986006 
L 226.420364 179.962908 
L 229.666909 179.948517 
L 232.913455 179.939592 
L 236.16 179.934371 
L 239.406545 179.931097 
L 242.653091 179.92936 
L 245.899636 179.92835 
L 249.146182 179.927741 
L 252.392727 179.927781 
L 255.639273 179.927893 
L 258.885818 179.928146 
L 262.132364 179.928481 
L 265.378909 179.928892 
L 268.625455 179.928634 
L 271.872 176.287971 
L 275.118545 172.647921 
L 278.365091 168.927438 
L 281.611636 165.494096 
L 284.858182 162.560326 
L 288.104727 160.217941 
L 291.351273 158.432675 
L 294.597818 157.094354 
L 297.844364 156.145928 
L 301.090909 155.483959 
L 304.337455 154.996735 
L 307.584 154.675209 
L 310.830545 154.460117 
L 314.077091 154.311874 
L 317.323636 154.207462 
L 320.570182 154.139638 
L 323.816727 154.085805 
L 327.063273 154.034401 
L 330.309818 153.999846 
L 333.556364 153.967548 
L 336.802909 153.938363 
L 340.049455 153.914225 
L 343.296 153.890731 
L 346.542545 153.868568 
L 349.789091 153.848027 
L 353.035636 153.829174 
L 356.282182 153.8118 
L 359.528727 153.79533 
L 362.775273 153.780229 
L 366.021818 153.76686 
L 369.268364 153.754191 
L 372.514909 153.742046 
L 375.761455 153.730296 
L 379.008 153.719393 
L 382.254545 153.710437 
L 385.501091 153.702969 
L 388.747636 153.696861 
L 391.994182 153.68693 
L 395.240727 153.679729 
L 398.487273 153.672828 
" clip-path="url(#peb75b20c4e)" style="fill: none; stroke: #1f77b4; stroke-width: 1.5; stroke-linecap: square"/>
   </g>
   <g id="line2d_39">
    <path d="M 73.832727 189.176142 
L 77.079273 195.267588 
L 80.325818 195.341205 
L 83.572364 195.362637 
L 86.818909 195.372002 
L 90.065455 195.376778 
L 93.312 195.379396 
L 96.558545 195.380913 
L 99.805091 195.381779 
L 103.051636 195.382303 
L 106.298182 195.382621 
L 109.544727 195.382809 
L 112.791273 195.382919 
L 116.037818 195.38299 
L 119.284364 195.383037 
L 122.530909 195.383067 
L 125.777455 195.383123 
L 129.024 195.383127 
L 132.270545 195.383131 
L 135.517091 195.383135 
L 138.763636 195.383139 
L 142.010182 195.383143 
L 145.256727 195.383147 
L 148.503273 195.38315 
L 151.749818 195.383154 
L 154.996364 195.383157 
L 158.242909 195.383161 
L 161.489455 195.383164 
L 164.736 195.383168 
L 167.982545 195.383171 
L 171.229091 195.383172 
L 174.475636 195.344949 
L 177.722182 195.291207 
L 180.968727 195.221614 
L 184.215273 195.140075 
L 187.461818 195.053212 
L 190.708364 194.974488 
L 193.954909 194.907589 
L 197.201455 194.85743 
L 200.448 194.822344 
L 203.694545 194.797659 
L 206.941091 194.782886 
L 210.187636 194.773142 
L 213.434182 194.767076 
L 216.680727 194.763294 
L 219.927273 194.760989 
L 223.173818 194.759577 
L 226.420364 194.75871 
L 229.666909 194.758183 
L 232.913455 194.757862 
L 236.16 194.757673 
L 239.406545 194.757546 
L 242.653091 194.757476 
L 245.899636 194.757429 
L 249.146182 194.757396 
L 252.392727 194.757385 
L 255.639273 194.757374 
L 258.885818 194.757368 
L 262.132364 194.757364 
L 265.378909 194.757361 
L 268.625455 194.757325 
L 271.872 194.545668 
L 275.118545 194.33809 
L 278.365091 194.136531 
L 281.611636 193.938118 
L 284.858182 193.740021 
L 288.104727 193.540794 
L 291.351273 193.340981 
L 294.597818 193.140554 
L 297.844364 192.941707 
L 301.090909 192.745865 
L 304.337455 192.550068 
L 307.584 192.358695 
L 310.830545 192.173685 
L 314.077091 191.992069 
L 317.323636 191.815335 
L 320.570182 191.646402 
L 323.816727 191.482518 
L 327.063273 191.31943 
L 330.309818 191.168636 
L 333.556364 191.022817 
L 336.802909 190.88294 
L 340.049455 190.750835 
L 343.296 190.624692 
L 346.542545 190.500304 
L 349.789091 190.382989 
L 353.035636 190.273369 
L 356.282182 190.169462 
L 359.528727 190.069231 
L 362.775273 189.974573 
L 366.021818 189.887007 
L 369.268364 189.804562 
L 372.514909 189.726878 
L 375.761455 189.651544 
L 379.008 189.579932 
L 382.254545 189.513909 
L 385.501091 189.454391 
L 388.747636 189.403959 
L 391.994182 189.342808 
L 395.240727 189.292523 
L 398.487273 189.244763 
" clip-path="url(#peb75b20c4e)" style="fill: none; stroke: #ff7f0e; stroke-width: 1.5; stroke-linecap: square"/>
   </g>
   <g id="patch_15">
    <path d="M 57.6 197.46869 
L 57.6 151.58731 
" style="fill: none; stroke: #000000; stroke-width: 0.8; stroke-linejoin: miter; stroke-linecap: square"/>
   </g>
   <g id="patch_16">
    <path d="M 414.72 197.46869 
L 414.72 151.58731 
" style="fill: none; stroke: #000000; stroke-width: 0.8; stroke-linejoin: miter; stroke-linecap: square"/>
   </g>
   <g id="patch_17">
    <path d="M 57.6 197.46869 
L 414.72 197.46869 
" style="fill: none; stroke: #000000; stroke-width: 0.8; stroke-linejoin: miter; stroke-linecap: square"/>
   </g>
   <g id="patch_18">
    <path d="M 57.6 151.58731 
L 414.72 151.58731 
" style="fill: none; stroke: #000000; stroke-width: 0.8; stroke-linejoin: miter; stroke-linecap: square"/>
   </g>
   <g id="text_18">
    <!-- yA -->
    <g transform="translate(228.504375 145.58731)scale(0.12 -0.12)">
     <defs>
      <path id="DejaVuSans-41" d="M 2188 4044 
L 1331 1722 
L 3047 1722 
L 2188 4044 
z
M 1831 4666 
L 2547 4666 
L 4325 0 
L 3669 0 
L 3244 1197 
L 1141 1197 
L 716 0 
L 50 0 
L 1831 4666 
z
" transform="scale(0.015625)"/>
     </defs>
     <use xlink:href="#DejaVuSans-79"/>
     <use xlink:href="#DejaVuSans-41" x="59.179688"/>
    </g>
   </g>
   <g id="legend_3">
    <g id="patch_19">
     <path d="M 330.030938 188.94356 
L 407.72 188.94356 
Q 409.72 188.94356 409.72 186.94356 
L 409.72 158.58731 
Q 409.72 156.58731 407.72 156.58731 
L 330.030938 156.58731 
Q 328.030938 156.58731 328.030938 158.58731 
L 328.030938 186.94356 
Q 328.030938 188.94356 330.030938 188.94356 
z
" style="fill: #ffffff; opacity: 0.8; stroke: #cccccc; stroke-linejoin: miter"/>
    </g>
    <g id="line2d_40">
     <path d="M 332.030938 164.685748 
L 342.030938 164.685748 
L 352.030938 164.685748 
" style="fill: none; stroke: #1f77b4; stroke-width: 1.5; stroke-linecap: square"/>
    </g>
    <g id="text_19">
     <!-- yA0 (in) -->
     <g transform="translate(360.030938 168.185748)scale(0.1 -0.1)">
      <use xlink:href="#DejaVuSans-79"/>
      <use xlink:href="#DejaVuSans-41" x="59.179688"/>
      <use xlink:href="#DejaVuSans-30" x="127.587891"/>
      <use xlink:href="#DejaVuSans-20" x="191.210938"/>
      <use xlink:href="#DejaVuSans-28" x="222.998047"/>
      <use xlink:href="#DejaVuSans-69" x="262.011719"/>
      <use xlink:href="#DejaVuSans-6e" x="289.794922"/>
      <use xlink:href="#DejaVuSans-29" x="353.173828"/>
     </g>
    </g>
    <g id="line2d_41">
     <path d="M 332.030938 179.363873 
L 342.030938 179.363873 
L 352.030938 179.363873 
" style="fill: none; stroke: #ff7f0e; stroke-width: 1.5; stroke-linecap: square"/>
    </g>
    <g id="text_20">
     <!-- yAL (out) -->
     <g transform="translate(360.030938 182.863873)scale(0.1 -0.1)">
      <defs>
       <path id="DejaVuSans-4c" d="M 628 4666 
L 1259 4666 
L 1259 531 
L 3531 531 
L 3531 0 
L 628 0 
L 628 4666 
z
" transform="scale(0.015625)"/>
      </defs>
      <use xlink:href="#DejaVuSans-79"/>
      <use xlink:href="#DejaVuSans-41" x="59.179688"/>
      <use xlink:href="#DejaVuSans-4c" x="127.587891"/>
      <use xlink:href="#DejaVuSans-20" x="183.300781"/>
      <use xlink:href="#DejaVuSans-28" x="215.087891"/>
      <use xlink:href="#DejaVuSans-6f" x="254.101562"/>
      <use xlink:href="#DejaVuSans-75" x="315.283203"/>
      <use xlink:href="#DejaVuSans-74" x="378.662109"/>
      <use xlink:href="#DejaVuSans-29" x="417.871094"/>
     </g>
    </g>
   </g>
  </g>
  <g id="axes_4">
   <g id="patch_20">
    <path d="M 57.6 252.526345 
L 414.72 252.526345 
L 414.72 206.644966 
L 57.6 206.644966 
z
" style="fill: #ffffff"/>
   </g>
   <g id="matplotlib.axis_7">
    <g id="xtick_19">
     <g id="line2d_42">
      <g>
       <use xlink:href="#m25cc07dc44" x="73.832727" y="252.526345" style="stroke: #000000; stroke-width: 0.8"/>
      </g>
     </g>
    </g>
    <g id="xtick_20">
     <g id="line2d_43">
      <g>
       <use xlink:href="#m25cc07dc44" x="138.763636" y="252.526345" style="stroke: #000000; stroke-width: 0.8"/>
      </g>
     </g>
    </g>
    <g id="xtick_21">
     <g id="line2d_44">
      <g>
       <use xlink:href="#m25cc07dc44" x="203.694545" y="252.526345" style="stroke: #000000; stroke-width: 0.8"/>
      </g>
     </g>
    </g>
    <g id="xtick_22">
     <g id="line2d_45">
      <g>
       <use xlink:href="#m25cc07dc44" x="268.625455" y="252.526345" style="stroke: #000000; stroke-width: 0.8"/>
      </g>
     </g>
    </g>
    <g id="xtick_23">
     <g id="line2d_46">
      <g>
       <use xlink:href="#m25cc07dc44" x="333.556364" y="252.526345" style="stroke: #000000; stroke-width: 0.8"/>
      </g>
     </g>
    </g>
    <g id="xtick_24">
     <g id="line2d_47">
      <g>
       <use xlink:href="#m25cc07dc44" x="398.487273" y="252.526345" style="stroke: #000000; stroke-width: 0.8"/>
      </g>
     </g>
    </g>
   </g>
   <g id="matplotlib.axis_8">
    <g id="ytick_8">
     <g id="line2d_48">
      <g>
       <use xlink:href="#mc6533ffa0b" x="57.6" y="247.887466" style="stroke: #000000; stroke-width: 0.8"/>
      </g>
     </g>
     <g id="text_21">
      <!-- 0.6 -->
      <g transform="translate(34.696875 251.686685)scale(0.1 -0.1)">
       <defs>
        <path id="DejaVuSans-36" d="M 2113 2584 
Q 1688 2584 1439 2293 
Q 1191 2003 1191 1497 
Q 1191 994 1439 701 
Q 1688 409 2113 409 
Q 2538 409 2786 701 
Q 3034 994 3034 1497 
Q 3034 2003 2786 2293 
Q 2538 2584 2113 2584 
z
M 3366 4563 
L 3366 3988 
Q 3128 4100 2886 4159 
Q 2644 4219 2406 4219 
Q 1781 4219 1451 3797 
Q 1122 3375 1075 2522 
Q 1259 2794 1537 2939 
Q 1816 3084 2150 3084 
Q 2853 3084 3261 2657 
Q 3669 2231 3669 1497 
Q 3669 778 3244 343 
Q 2819 -91 2113 -91 
Q 1303 -91 875 529 
Q 447 1150 447 2328 
Q 447 3434 972 4092 
Q 1497 4750 2381 4750 
Q 2619 4750 2861 4703 
Q 3103 4656 3366 4563 
z
" transform="scale(0.015625)"/>
       </defs>
       <use xlink:href="#DejaVuSans-30"/>
       <use xlink:href="#DejaVuSans-2e" x="63.623047"/>
       <use xlink:href="#DejaVuSans-36" x="95.410156"/>
      </g>
     </g>
    </g>
    <g id="ytick_9">
     <g id="line2d_49">
      <g>
       <use xlink:href="#mc6533ffa0b" x="57.6" y="225.172911" style="stroke: #000000; stroke-width: 0.8"/>
      </g>
     </g>
     <g id="text_22">
      <!-- 0.8 -->
      <g transform="translate(34.696875 228.97213)scale(0.1 -0.1)">
       <defs>
        <path id="DejaVuSans-38" d="M 2034 2216 
Q 1584 2216 1326 1975 
Q 1069 1734 1069 1313 
Q 1069 891 1326 650 
Q 1584 409 2034 409 
Q 2484 409 2743 651 
Q 3003 894 3003 1313 
Q 3003 1734 2745 1975 
Q 2488 2216 2034 2216 
z
M 1403 2484 
Q 997 2584 770 2862 
Q 544 3141 544 3541 
Q 544 4100 942 4425 
Q 1341 4750 2034 4750 
Q 2731 4750 3128 4425 
Q 3525 4100 3525 3541 
Q 3525 3141 3298 2862 
Q 3072 2584 2669 2484 
Q 3125 2378 3379 2068 
Q 3634 1759 3634 1313 
Q 3634 634 3220 271 
Q 2806 -91 2034 -91 
Q 1263 -91 848 271 
Q 434 634 434 1313 
Q 434 1759 690 2068 
Q 947 2378 1403 2484 
z
M 1172 3481 
Q 1172 3119 1398 2916 
Q 1625 2713 2034 2713 
Q 2441 2713 2670 2916 
Q 2900 3119 2900 3481 
Q 2900 3844 2670 4047 
Q 2441 4250 2034 4250 
Q 1625 4250 1398 4047 
Q 1172 3844 1172 3481 
z
" transform="scale(0.015625)"/>
       </defs>
       <use xlink:href="#DejaVuSans-30"/>
       <use xlink:href="#DejaVuSans-2e" x="63.623047"/>
       <use xlink:href="#DejaVuSans-38" x="95.410156"/>
      </g>
     </g>
    </g>
    <g id="text_23">
     <!-- fraction -->
     <g transform="translate(28.617187 248.791905)rotate(-90)scale(0.1 -0.1)">
      <use xlink:href="#DejaVuSans-66"/>
      <use xlink:href="#DejaVuSans-72" x="35.205078"/>
      <use xlink:href="#DejaVuSans-61" x="76.318359"/>
      <use xlink:href="#DejaVuSans-63" x="137.597656"/>
      <use xlink:href="#DejaVuSans-74" x="192.578125"/>
      <use xlink:href="#DejaVuSans-69" x="231.787109"/>
      <use xlink:href="#DejaVuSans-6f" x="259.570312"/>
      <use xlink:href="#DejaVuSans-6e" x="320.751953"/>
     </g>
    </g>
   </g>
   <g id="line2d_50">
    <path d="M 73.832727 250.421727 
L 77.079273 212.446423 
L 80.325818 212.423415 
L 83.572364 212.437791 
L 86.818909 212.449045 
L 90.065455 212.455334 
L 93.312 212.46003 
L 96.558545 212.473058 
L 99.805091 212.433748 
L 103.051636 212.461587 
L 106.298182 212.460436 
L 109.544727 212.459726 
L 112.791273 212.456652 
L 116.037818 212.454131 
L 119.284364 212.452002 
L 122.530909 212.450379 
L 125.777455 213.110535 
L 129.024 213.266509 
L 132.270545 213.392437 
L 135.517091 213.492008 
L 138.763636 213.56946 
L 142.010182 213.62813 
L 145.256727 213.672493 
L 148.503273 213.706505 
L 151.749818 213.732694 
L 154.996364 213.752702 
L 158.242909 213.767885 
L 161.489455 213.779439 
L 164.736 213.788248 
L 167.982545 213.794913 
L 171.229091 213.799899 
L 174.475636 214.417434 
L 177.722182 215.316242 
L 180.968727 216.451855 
L 184.215273 217.742606 
L 187.461818 219.085233 
L 190.708364 220.308558 
L 193.954909 221.356746 
L 197.201455 222.19222 
L 200.448 222.817148 
L 203.694545 223.281257 
L 206.941091 223.586765 
L 210.187636 223.798199 
L 213.434182 223.937102 
L 216.680727 224.027623 
L 219.927273 224.08542 
L 223.173818 224.121878 
L 226.420364 224.144965 
L 229.666909 224.159348 
L 232.913455 224.168267 
L 236.16 224.173483 
L 239.406545 224.176754 
L 242.653091 224.178488 
L 245.899636 224.179496 
L 249.146182 224.180102 
L 252.392727 224.18006 
L 255.639273 224.179946 
L 258.885818 224.179691 
L 262.132364 224.179354 
L 265.378909 224.178941 
L 268.625455 224.179198 
L 271.872 227.817876 
L 275.118545 231.459225 
L 278.365091 235.182715 
L 281.611636 238.619507 
L 284.858182 241.556401 
L 288.104727 243.901228 
L 291.351273 245.688198 
L 294.597818 247.027604 
L 297.844364 247.976555 
L 301.090909 248.638641 
L 304.337455 249.125769 
L 307.584 249.446974 
L 310.830545 249.661616 
L 314.077091 249.809344 
L 317.323636 249.913218 
L 320.570182 249.980483 
L 323.816727 250.033783 
L 327.063273 250.084698 
L 330.309818 250.118773 
L 333.556364 250.150628 
L 336.802909 250.1794 
L 340.049455 250.203148 
L 343.296 250.226283 
L 346.542545 250.248112 
L 349.789091 250.268342 
L 353.035636 250.286907 
L 356.282182 250.304014 
L 359.528727 250.320235 
L 362.775273 250.335105 
L 366.021818 250.348259 
L 369.268364 250.360727 
L 372.514909 250.372688 
L 375.761455 250.384266 
L 379.008 250.39501 
L 382.254545 250.403815 
L 385.501091 250.411143 
L 388.747636 250.417121 
L 391.994182 250.426934 
L 395.240727 250.434027 
L 398.487273 250.440828 
" clip-path="url(#p88297747fb)" style="fill: none; stroke: #1f77b4; stroke-width: 1.5; stroke-linecap: square"/>
   </g>
   <g id="line2d_51">
    <path d="M 73.832727 214.861639 
L 77.079273 208.91172 
L 80.325818 208.842577 
L 83.572364 208.822137 
L 86.818909 208.813058 
L 90.065455 208.808322 
L 93.312 208.805637 
L 96.558545 208.804004 
L 99.805091 208.802991 
L 103.051636 208.802303 
L 106.298182 208.801815 
L 109.544727 208.801454 
L 112.791273 208.80117 
L 116.037818 208.800925 
L 119.284364 208.800705 
L 122.530909 208.800516 
L 125.777455 208.773286 
L 129.024 208.766338 
L 132.270545 208.760397 
L 135.517091 208.755289 
L 138.763636 208.750899 
L 142.010182 208.747148 
L 145.256727 208.743934 
L 148.503273 208.741173 
L 151.749818 208.738803 
L 154.996364 208.736779 
L 158.242909 208.735058 
L 161.489455 208.733601 
L 164.736 208.732374 
L 167.982545 208.731343 
L 171.229091 208.730483 
L 174.475636 208.765183 
L 177.722182 208.813996 
L 180.968727 208.878756 
L 184.215273 208.955892 
L 187.461818 209.038959 
L 190.708364 209.114685 
L 193.954909 209.17928 
L 197.201455 209.227729 
L 200.448 209.261611 
L 203.694545 209.28546 
L 206.941091 209.299704 
L 210.187636 209.309095 
L 213.434182 209.31494 
L 216.680727 209.318582 
L 219.927273 209.320801 
L 223.173818 209.322161 
L 226.420364 209.322995 
L 229.666909 209.3235 
L 232.913455 209.323809 
L 236.16 209.32399 
L 239.406545 209.324111 
L 242.653091 209.324178 
L 245.899636 209.324222 
L 249.146182 209.324254 
L 252.392727 209.324264 
L 255.639273 209.324273 
L 258.885818 209.324278 
L 262.132364 209.324282 
L 265.378909 209.324283 
L 268.625455 209.324318 
L 271.872 209.53036 
L 275.118545 209.733801 
L 278.365091 209.932113 
L 281.611636 210.127785 
L 284.858182 210.32346 
L 288.104727 210.520487 
L 291.351273 210.718287 
L 294.597818 210.916862 
L 297.844364 211.114012 
L 301.090909 211.308293 
L 304.337455 211.502667 
L 307.584 211.692739 
L 310.830545 211.876542 
L 314.077091 212.057048 
L 317.323636 212.232756 
L 320.570182 212.40074 
L 323.816727 212.563755 
L 327.063273 212.726055 
L 330.309818 212.876116 
L 333.556364 213.021267 
L 336.802909 213.160531 
L 340.049455 213.292062 
L 343.296 213.417682 
L 346.542545 213.541588 
L 349.789091 213.658457 
L 353.035636 213.767666 
L 356.282182 213.871194 
L 359.528727 213.971074 
L 362.775273 214.065407 
L 366.021818 214.152667 
L 369.268364 214.234832 
L 372.514909 214.312257 
L 375.761455 214.387358 
L 379.008 214.458756 
L 382.254545 214.52457 
L 385.501091 214.583885 
L 388.747636 214.634109 
L 391.994182 214.695122 
L 395.240727 214.745265 
L 398.487273 214.792892 
" clip-path="url(#p88297747fb)" style="fill: none; stroke: #ff7f0e; stroke-width: 1.5; stroke-linecap: square"/>
   </g>
   <g id="patch_21">
    <path d="M 57.6 252.526345 
L 57.6 206.644966 
" style="fill: none; stroke: #000000; stroke-width: 0.8; stroke-linejoin: miter; stroke-linecap: square"/>
   </g>
   <g id="patch_22">
    <path d="M 414.72 252.526345 
L 414.72 206.644966 
" style="fill: none; stroke: #000000; stroke-width: 0.8; stroke-linejoin: miter; stroke-linecap: square"/>
   </g>
   <g id="patch_23">
    <path d="M 57.6 252.526345 
L 414.72 252.526345 
" style="fill: none; stroke: #000000; stroke-width: 0.8; stroke-linejoin: miter; stroke-linecap: square"/>
   </g>
   <g id="patch_24">
    <path d="M 57.6 206.644966 
L 414.72 206.644966 
" style="fill: none; stroke: #000000; stroke-width: 0.8; stroke-linejoin: miter; stroke-linecap: square"/>
   </g>
   <g id="text_24">
    <!-- yB -->
    <g transform="translate(228.492188 200.644966)scale(0.12 -0.12)">
     <defs>
      <path id="DejaVuSans-42" d="M 1259 2228 
L 1259 519 
L 2272 519 
Q 2781 519 3026 730 
Q 3272 941 3272 1375 
Q 3272 1813 3026 2020 
Q 2781 2228 2272 2228 
L 1259 2228 
z
M 1259 4147 
L 1259 2741 
L 2194 2741 
Q 2656 2741 2882 2914 
Q 3109 3088 3109 3444 
Q 3109 3797 2882 3972 
Q 2656 4147 2194 4147 
L 1259 4147 
z
M 628 4666 
L 2241 4666 
Q 2963 4666 3353 4366 
Q 3744 4066 3744 3513 
Q 3744 3084 3544 2831 
Q 3344 2578 2956 2516 
Q 3422 2416 3680 2098 
Q 3938 1781 3938 1306 
Q 3938 681 3513 340 
Q 3088 0 2303 0 
L 628 0 
L 628 4666 
z
" transform="scale(0.015625)"/>
     </defs>
     <use xlink:href="#DejaVuSans-79"/>
     <use xlink:href="#DejaVuSans-42" x="59.179688"/>
    </g>
   </g>
   <g id="legend_4">
    <g id="patch_25">
     <path d="M 330.010625 247.526345 
L 407.72 247.526345 
Q 409.72 247.526345 409.72 245.526345 
L 409.72 217.170095 
Q 409.72 215.170095 407.72 215.170095 
L 330.010625 215.170095 
Q 328.010625 215.170095 328.010625 217.170095 
L 328.010625 245.526345 
Q 328.010625 247.526345 330.010625 247.526345 
z
" style="fill: #ffffff; opacity: 0.8; stroke: #cccccc; stroke-linejoin: miter"/>
    </g>
    <g id="line2d_52">
     <path d="M 332.010625 223.268532 
L 342.010625 223.268532 
L 352.010625 223.268532 
" style="fill: none; stroke: #1f77b4; stroke-width: 1.5; stroke-linecap: square"/>
    </g>
    <g id="text_25">
     <!-- yB0 (in) -->
     <g transform="translate(360.010625 226.768532)scale(0.1 -0.1)">
      <use xlink:href="#DejaVuSans-79"/>
      <use xlink:href="#DejaVuSans-42" x="59.179688"/>
      <use xlink:href="#DejaVuSans-30" x="127.783203"/>
      <use xlink:href="#DejaVuSans-20" x="191.40625"/>
      <use xlink:href="#DejaVuSans-28" x="223.193359"/>
      <use xlink:href="#DejaVuSans-69" x="262.207031"/>
      <use xlink:href="#DejaVuSans-6e" x="289.990234"/>
      <use xlink:href="#DejaVuSans-29" x="353.369141"/>
     </g>
    </g>
    <g id="line2d_53">
     <path d="M 332.010625 237.946657 
L 342.010625 237.946657 
L 352.010625 237.946657 
" style="fill: none; stroke: #ff7f0e; stroke-width: 1.5; stroke-linecap: square"/>
    </g>
    <g id="text_26">
     <!-- yBL (out) -->
     <g transform="translate(360.010625 241.446657)scale(0.1 -0.1)">
      <use xlink:href="#DejaVuSans-79"/>
      <use xlink:href="#DejaVuSans-42" x="59.179688"/>
      <use xlink:href="#DejaVuSans-4c" x="127.783203"/>
      <use xlink:href="#DejaVuSans-20" x="183.496094"/>
      <use xlink:href="#DejaVuSans-28" x="215.283203"/>
      <use xlink:href="#DejaVuSans-6f" x="254.296875"/>
      <use xlink:href="#DejaVuSans-75" x="315.478516"/>
      <use xlink:href="#DejaVuSans-74" x="378.857422"/>
      <use xlink:href="#DejaVuSans-29" x="418.066406"/>
     </g>
    </g>
   </g>
  </g>
  <g id="axes_5">
   <g id="patch_26">
    <path d="M 57.6 307.584 
L 414.72 307.584 
L 414.72 261.702621 
L 57.6 261.702621 
z
" style="fill: #ffffff"/>
   </g>
   <g id="matplotlib.axis_9">
    <g id="xtick_25">
     <g id="line2d_54">
      <g>
       <use xlink:href="#m25cc07dc44" x="73.832727" y="307.584" style="stroke: #000000; stroke-width: 0.8"/>
      </g>
     </g>
     <g id="text_27">
      <!-- 0 -->
      <g transform="translate(70.651477 322.182437)scale(0.1 -0.1)">
       <use xlink:href="#DejaVuSans-30"/>
      </g>
     </g>
    </g>
    <g id="xtick_26">
     <g id="line2d_55">
      <g>
       <use xlink:href="#m25cc07dc44" x="138.763636" y="307.584" style="stroke: #000000; stroke-width: 0.8"/>
      </g>
     </g>
     <g id="text_28">
      <!-- 20 -->
      <g transform="translate(132.401136 322.182437)scale(0.1 -0.1)">
       <use xlink:href="#DejaVuSans-32"/>
       <use xlink:href="#DejaVuSans-30" x="63.623047"/>
      </g>
     </g>
    </g>
    <g id="xtick_27">
     <g id="line2d_56">
      <g>
       <use xlink:href="#m25cc07dc44" x="203.694545" y="307.584" style="stroke: #000000; stroke-width: 0.8"/>
      </g>
     </g>
     <g id="text_29">
      <!-- 40 -->
      <g transform="translate(197.332045 322.182437)scale(0.1 -0.1)">
       <defs>
        <path id="DejaVuSans-34" d="M 2419 4116 
L 825 1625 
L 2419 1625 
L 2419 4116 
z
M 2253 4666 
L 3047 4666 
L 3047 1625 
L 3713 1625 
L 3713 1100 
L 3047 1100 
L 3047 0 
L 2419 0 
L 2419 1100 
L 313 1100 
L 313 1709 
L 2253 4666 
z
" transform="scale(0.015625)"/>
       </defs>
       <use xlink:href="#DejaVuSans-34"/>
       <use xlink:href="#DejaVuSans-30" x="63.623047"/>
      </g>
     </g>
    </g>
    <g id="xtick_28">
     <g id="line2d_57">
      <g>
       <use xlink:href="#m25cc07dc44" x="268.625455" y="307.584" style="stroke: #000000; stroke-width: 0.8"/>
      </g>
     </g>
     <g id="text_30">
      <!-- 60 -->
      <g transform="translate(262.262955 322.182437)scale(0.1 -0.1)">
       <use xlink:href="#DejaVuSans-36"/>
       <use xlink:href="#DejaVuSans-30" x="63.623047"/>
      </g>
     </g>
    </g>
    <g id="xtick_29">
     <g id="line2d_58">
      <g>
       <use xlink:href="#m25cc07dc44" x="333.556364" y="307.584" style="stroke: #000000; stroke-width: 0.8"/>
      </g>
     </g>
     <g id="text_31">
      <!-- 80 -->
      <g transform="translate(327.193864 322.182437)scale(0.1 -0.1)">
       <use xlink:href="#DejaVuSans-38"/>
       <use xlink:href="#DejaVuSans-30" x="63.623047"/>
      </g>
     </g>
    </g>
    <g id="xtick_30">
     <g id="line2d_59">
      <g>
       <use xlink:href="#m25cc07dc44" x="398.487273" y="307.584" style="stroke: #000000; stroke-width: 0.8"/>
      </g>
     </g>
     <g id="text_32">
      <!-- 100 -->
      <g transform="translate(388.943523 322.182437)scale(0.1 -0.1)">
       <use xlink:href="#DejaVuSans-31"/>
       <use xlink:href="#DejaVuSans-30" x="63.623047"/>
       <use xlink:href="#DejaVuSans-30" x="127.246094"/>
      </g>
     </g>
    </g>
    <g id="text_33">
     <!-- time (normalized) -->
     <g transform="translate(191.589687 335.860562)scale(0.1 -0.1)">
      <use xlink:href="#DejaVuSans-74"/>
      <use xlink:href="#DejaVuSans-69" x="39.208984"/>
      <use xlink:href="#DejaVuSans-6d" x="66.992188"/>
      <use xlink:href="#DejaVuSans-65" x="164.404297"/>
      <use xlink:href="#DejaVuSans-20" x="225.927734"/>
      <use xlink:href="#DejaVuSans-28" x="257.714844"/>
      <use xlink:href="#DejaVuSans-6e" x="296.728516"/>
      <use xlink:href="#DejaVuSans-6f" x="360.107422"/>
      <use xlink:href="#DejaVuSans-72" x="421.289062"/>
      <use xlink:href="#DejaVuSans-6d" x="460.652344"/>
      <use xlink:href="#DejaVuSans-61" x="558.064453"/>
      <use xlink:href="#DejaVuSans-6c" x="619.34375"/>
      <use xlink:href="#DejaVuSans-69" x="647.126953"/>
      <use xlink:href="#DejaVuSans-7a" x="674.910156"/>
      <use xlink:href="#DejaVuSans-65" x="727.400391"/>
      <use xlink:href="#DejaVuSans-64" x="788.923828"/>
      <use xlink:href="#DejaVuSans-29" x="852.400391"/>
     </g>
    </g>
   </g>
   <g id="matplotlib.axis_10">
    <g id="ytick_10">
     <g id="line2d_60">
      <g>
       <use xlink:href="#mc6533ffa0b" x="57.6" y="289.247216" style="stroke: #000000; stroke-width: 0.8"/>
      </g>
     </g>
     <g id="text_34">
      <!-- 0.04 -->
      <g transform="translate(28.334375 293.046435)scale(0.1 -0.1)">
       <use xlink:href="#DejaVuSans-30"/>
       <use xlink:href="#DejaVuSans-2e" x="63.623047"/>
       <use xlink:href="#DejaVuSans-30" x="95.410156"/>
       <use xlink:href="#DejaVuSans-34" x="159.033203"/>
      </g>
     </g>
    </g>
    <g id="ytick_11">
     <g id="line2d_61">
      <g>
       <use xlink:href="#mc6533ffa0b" x="57.6" y="269.869025" style="stroke: #000000; stroke-width: 0.8"/>
      </g>
     </g>
     <g id="text_35">
      <!-- 0.05 -->
      <g transform="translate(28.334375 273.668244)scale(0.1 -0.1)">
       <use xlink:href="#DejaVuSans-30"/>
       <use xlink:href="#DejaVuSans-2e" x="63.623047"/>
       <use xlink:href="#DejaVuSans-30" x="95.410156"/>
       <use xlink:href="#DejaVuSans-35" x="159.033203"/>
      </g>
     </g>
    </g>
    <g id="text_36">
     <!-- fraction -->
     <g transform="translate(22.254687 303.84956)rotate(-90)scale(0.1 -0.1)">
      <use xlink:href="#DejaVuSans-66"/>
      <use xlink:href="#DejaVuSans-72" x="35.205078"/>
      <use xlink:href="#DejaVuSans-61" x="76.318359"/>
      <use xlink:href="#DejaVuSans-63" x="137.597656"/>
      <use xlink:href="#DejaVuSans-74" x="192.578125"/>
      <use xlink:href="#DejaVuSans-69" x="231.787109"/>
      <use xlink:href="#DejaVuSans-6f" x="259.570312"/>
      <use xlink:href="#DejaVuSans-6e" x="320.751953"/>
     </g>
    </g>
   </g>
   <g id="line2d_62">
    <path d="M 73.832727 305.480776 
L 77.079273 268.566571 
L 80.325818 268.545923 
L 83.572364 268.560095 
L 86.818909 268.569669 
L 90.065455 268.5807 
L 93.312 268.593141 
L 96.558545 268.59686 
L 99.805091 268.549406 
L 103.051636 268.587051 
L 106.298182 268.561312 
L 109.544727 268.522635 
L 112.791273 268.497128 
L 116.037818 268.484843 
L 119.284364 268.47203 
L 122.530909 268.47398 
L 125.777455 269.200228 
L 129.024 269.349002 
L 132.270545 269.468743 
L 135.517091 269.563188 
L 138.763636 269.636521 
L 142.010182 269.691981 
L 145.256727 269.733882 
L 148.503273 269.766004 
L 151.749818 269.790737 
L 154.996364 269.809632 
L 158.242909 269.823967 
L 161.489455 269.834872 
L 164.736 269.843185 
L 167.982545 269.849475 
L 171.229091 269.85418 
L 174.475636 270.461818 
L 177.722182 271.366472 
L 180.968727 272.506027 
L 184.215273 273.790639 
L 187.461818 275.11682 
L 190.708364 276.319458 
L 193.954909 277.34633 
L 197.201455 278.163585 
L 200.448 278.77449 
L 203.694545 279.227609 
L 206.941091 279.526433 
L 210.187636 279.733067 
L 213.434182 279.868909 
L 216.680727 279.957427 
L 219.927273 280.013985 
L 223.173818 280.049681 
L 226.420364 280.072299 
L 229.666909 280.086409 
L 232.913455 280.095176 
L 236.16 280.100317 
L 239.406545 280.103553 
L 242.653091 280.105287 
L 245.899636 280.106311 
L 249.146182 280.106943 
L 252.392727 280.10694 
L 255.639273 280.106867 
L 258.885818 280.106655 
L 262.132364 280.106365 
L 265.378909 280.105998 
L 268.625455 280.106267 
L 271.872 283.674831 
L 275.118545 287.186763 
L 278.365091 290.747655 
L 281.611636 294.022191 
L 284.858182 296.817261 
L 288.104727 299.049799 
L 291.351273 300.75402 
L 294.597818 302.034888 
L 297.844364 302.946739 
L 301.090909 303.587463 
L 304.337455 304.062129 
L 307.584 304.379763 
L 310.830545 304.596296 
L 314.077091 304.748982 
L 317.323636 304.859561 
L 320.570182 304.934939 
L 323.816727 304.996303 
L 327.063273 305.054554 
L 330.309818 305.09628 
L 333.556364 305.135195 
L 336.802909 305.170585 
L 340.049455 305.200664 
L 343.296 305.229606 
L 346.542545 305.256832 
L 349.789091 305.282071 
L 353.035636 305.305288 
L 356.282182 305.32672 
L 359.528727 305.346955 
L 362.775273 305.36556 
L 366.021818 305.382223 
L 369.268364 305.397936 
L 372.514909 305.412875 
L 375.761455 305.427213 
L 379.008 305.440518 
L 382.254545 305.45178 
L 385.501091 305.461427 
L 388.747636 305.469586 
L 391.994182 305.481228 
L 395.240727 305.490061 
L 398.487273 305.498483 
" clip-path="url(#p0d71dfcc7c)" style="fill: none; stroke: #1f77b4; stroke-width: 1.5; stroke-linecap: square"/>
   </g>
   <g id="line2d_63">
    <path d="M 73.832727 272.323162 
L 77.079273 263.994247 
L 80.325818 263.846426 
L 83.572364 263.808679 
L 86.818909 263.794726 
L 90.065455 263.789455 
L 93.312 263.788138 
L 96.558545 263.788702 
L 99.805091 263.790373 
L 103.051636 263.792653 
L 106.298182 263.795233 
L 109.544727 263.798006 
L 112.791273 263.800868 
L 116.037818 263.80376 
L 119.284364 263.806653 
L 122.530909 263.809334 
L 125.777455 264.272777 
L 129.024 264.391242 
L 132.270545 264.492533 
L 135.517091 264.579619 
L 138.763636 264.654456 
L 142.010182 264.71839 
L 145.256727 264.77315 
L 148.503273 264.820205 
L 151.749818 264.860574 
L 154.996364 264.895052 
L 158.242909 264.924352 
L 161.489455 264.949143 
L 164.736 264.970035 
L 167.982545 264.987565 
L 171.229091 265.002207 
L 174.475636 265.099427 
L 177.722182 265.235698 
L 180.968727 265.385744 
L 184.215273 265.540016 
L 187.461818 265.689136 
L 190.708364 265.816718 
L 193.954909 265.920979 
L 197.201455 265.998864 
L 200.448 266.053453 
L 203.694545 266.091704 
L 206.941091 266.11508 
L 210.187636 266.130547 
L 213.434182 266.140212 
L 216.680727 266.146258 
L 219.927273 266.149967 
L 223.173818 266.152241 
L 226.420364 266.153648 
L 229.666909 266.154509 
L 232.913455 266.155041 
L 236.16 266.155358 
L 239.406545 266.155576 
L 242.653091 266.155703 
L 245.899636 266.155792 
L 249.146182 266.155858 
L 252.392727 266.15589 
L 255.639273 266.15592 
L 258.885818 266.155943 
L 262.132364 266.155963 
L 265.378909 266.15598 
L 268.625455 266.156035 
L 271.872 266.457348 
L 275.118545 266.729466 
L 278.365091 266.980571 
L 281.611636 267.219965 
L 284.858182 267.453625 
L 288.104727 267.684594 
L 291.351273 267.912923 
L 294.597818 268.13912 
L 297.844364 268.361128 
L 301.090909 268.577903 
L 304.337455 268.792302 
L 307.584 269.000288 
L 310.830545 269.200517 
L 314.077091 269.395771 
L 317.323636 269.584878 
L 320.570182 269.765088 
L 323.816727 269.93902 
L 327.063273 270.110799 
L 330.309818 270.269722 
L 333.556364 270.42268 
L 336.802909 270.568958 
L 340.049455 270.707016 
L 343.296 270.838404 
L 346.542545 270.967403 
L 349.789091 271.088904 
L 353.035636 271.202351 
L 356.282182 271.309706 
L 359.528727 271.413006 
L 362.775273 271.510456 
L 366.021818 271.600675 
L 369.268364 271.685528 
L 372.514909 271.76536 
L 375.761455 271.842483 
L 379.008 271.915657 
L 382.254545 271.983315 
L 385.501091 272.044573 
L 388.747636 272.097076 
L 391.994182 272.158797 
L 395.240727 272.210051 
L 398.487273 272.258691 
" clip-path="url(#p0d71dfcc7c)" style="fill: none; stroke: #ff7f0e; stroke-width: 1.5; stroke-linecap: square"/>
   </g>
   <g id="patch_27">
    <path d="M 57.6 307.584 
L 57.6 261.702621 
" style="fill: none; stroke: #000000; stroke-width: 0.8; stroke-linejoin: miter; stroke-linecap: square"/>
   </g>
   <g id="patch_28">
    <path d="M 414.72 307.584 
L 414.72 261.702621 
" style="fill: none; stroke: #000000; stroke-width: 0.8; stroke-linejoin: miter; stroke-linecap: square"/>
   </g>
   <g id="patch_29">
    <path d="M 57.6 307.584 
L 414.72 307.584 
" style="fill: none; stroke: #000000; stroke-width: 0.8; stroke-linejoin: miter; stroke-linecap: square"/>
   </g>
   <g id="patch_30">
    <path d="M 57.6 261.702621 
L 414.72 261.702621 
" style="fill: none; stroke: #000000; stroke-width: 0.8; stroke-linejoin: miter; stroke-linecap: square"/>
   </g>
   <g id="text_37">
    <!-- yC -->
    <g transform="translate(228.419062 255.702621)scale(0.12 -0.12)">
     <defs>
      <path id="DejaVuSans-43" d="M 4122 4306 
L 4122 3641 
Q 3803 3938 3442 4084 
Q 3081 4231 2675 4231 
Q 1875 4231 1450 3742 
Q 1025 3253 1025 2328 
Q 1025 1406 1450 917 
Q 1875 428 2675 428 
Q 3081 428 3442 575 
Q 3803 722 4122 1019 
L 4122 359 
Q 3791 134 3420 21 
Q 3050 -91 2638 -91 
Q 1578 -91 968 557 
Q 359 1206 359 2328 
Q 359 3453 968 4101 
Q 1578 4750 2638 4750 
Q 3056 4750 3426 4639 
Q 3797 4528 4122 4306 
z
" transform="scale(0.015625)"/>
     </defs>
     <use xlink:href="#DejaVuSans-79"/>
     <use xlink:href="#DejaVuSans-43" x="59.179688"/>
    </g>
   </g>
   <g id="legend_5">
    <g id="patch_31">
     <path d="M 64.6 302.584 
L 142.43125 302.584 
Q 144.43125 302.584 144.43125 300.584 
L 144.43125 272.22775 
Q 144.43125 270.22775 142.43125 270.22775 
L 64.6 270.22775 
Q 62.6 270.22775 62.6 272.22775 
L 62.6 300.584 
Q 62.6 302.584 64.6 302.584 
z
" style="fill: #ffffff; opacity: 0.8; stroke: #cccccc; stroke-linejoin: miter"/>
    </g>
    <g id="line2d_64">
     <path d="M 66.6 278.326187 
L 76.6 278.326187 
L 86.6 278.326187 
" style="fill: none; stroke: #1f77b4; stroke-width: 1.5; stroke-linecap: square"/>
    </g>
    <g id="text_38">
     <!-- yC0 (in) -->
     <g transform="translate(94.6 281.826187)scale(0.1 -0.1)">
      <use xlink:href="#DejaVuSans-79"/>
      <use xlink:href="#DejaVuSans-43" x="59.179688"/>
      <use xlink:href="#DejaVuSans-30" x="129.003906"/>
      <use xlink:href="#DejaVuSans-20" x="192.626953"/>
      <use xlink:href="#DejaVuSans-28" x="224.414062"/>
      <use xlink:href="#DejaVuSans-69" x="263.427734"/>
      <use xlink:href="#DejaVuSans-6e" x="291.210938"/>
      <use xlink:href="#DejaVuSans-29" x="354.589844"/>
     </g>
    </g>
    <g id="line2d_65">
     <path d="M 66.6 293.004312 
L 76.6 293.004312 
L 86.6 293.004312 
" style="fill: none; stroke: #ff7f0e; stroke-width: 1.5; stroke-linecap: square"/>
    </g>
    <g id="text_39">
     <!-- yCL (out) -->
     <g transform="translate(94.6 296.504312)scale(0.1 -0.1)">
      <use xlink:href="#DejaVuSans-79"/>
      <use xlink:href="#DejaVuSans-43" x="59.179688"/>
      <use xlink:href="#DejaVuSans-4c" x="129.003906"/>
      <use xlink:href="#DejaVuSans-20" x="184.716797"/>
      <use xlink:href="#DejaVuSans-28" x="216.503906"/>
      <use xlink:href="#DejaVuSans-6f" x="255.517578"/>
      <use xlink:href="#DejaVuSans-75" x="316.699219"/>
      <use xlink:href="#DejaVuSans-74" x="380.078125"/>
      <use xlink:href="#DejaVuSans-29" x="419.287109"/>
     </g>
    </g>
   </g>
  </g>
 </g>
 <defs>
  <clipPath id="pdbd30fbb5b">
   <rect x="57.6" y="41.472" width="357.12" height="45.881379"/>
  </clipPath>
  <clipPath id="pa79bcea676">
   <rect x="57.6" y="96.529655" width="357.12" height="45.881379"/>
  </clipPath>
  <clipPath id="peb75b20c4e">
   <rect x="57.6" y="151.58731" width="357.12" height="45.881379"/>
  </clipPath>
  <clipPath id="p88297747fb">
   <rect x="57.6" y="206.644966" width="357.12" height="45.881379"/>
  </clipPath>
  <clipPath id="p0d71dfcc7c">
   <rect x="57.6" y="261.702621" width="357.12" height="45.881379"/>
  </clipPath>
 </defs>
</svg>
