<?xml version="1.0" encoding="utf-8" standalone="no"?>
<!DOCTYPE svg PUBLIC "-//W3C//DTD SVG 1.1//EN"
  "http://www.w3.org/Graphics/SVG/1.1/DTD/svg11.dtd">
<svg xmlns:xlink="http://www.w3.org/1999/xlink" width="460.8pt" height="345.6pt" viewBox="0 0 460.8 345.6" xmlns="http://www.w3.org/2000/svg" version="1.1">
 <metadata>
  <rdf:RDF xmlns:dc="http://purl.org/dc/elements/1.1/" xmlns:cc="http://creativecommons.org/ns#" xmlns:rdf="http://www.w3.org/1999/02/22-rdf-syntax-ns#">
   <cc:Work>
    <dc:type rdf:resource="http://purl.org/dc/dcmitype/StillImage"/>
    <dc:date>2022-07-10T00:04:37.055925</dc:date>
    <dc:format>image/svg+xml</dc:format>
    <dc:creator>
     <cc:Agent>
      <dc:title>Matplotlib v3.5.2, https://matplotlib.org/</dc:title>
     </cc:Agent>
    </dc:creator>
   </cc:Work>
  </rdf:RDF>
 </metadata>
 <defs>
  <style type="text/css">*{stroke-linejoin: round; stroke-linecap: butt}</style>
 </defs>
 <g id="figure_1">
  <g id="patch_1">
   <path d="M 0 345.6 
L 460.8 345.6 
L 460.8 0 
L 0 0 
z
" style="fill: #ffffff"/>
  </g>
  <g id="axes_1">
   <g id="patch_2">
    <path d="M 57.6 87.353379 
L 414.72 87.353379 
L 414.72 41.472 
L 57.6 41.472 
z
" style="fill: #ffffff"/>
   </g>
   <g id="axes_2">
    <g id="patch_3">
     <path d="M 414.72 87.353379 
L 414.72 87.353379 
L 414.72 41.472 
L 414.72 41.472 
z
" style="fill: #ffffff"/>
    </g>
    <g id="matplotlib.axis_1"/>
    <g id="matplotlib.axis_2">
     <g id="ytick_1">
      <g id="line2d_1">
       <defs>
        <path id="m58fe33e7fb" d="M 0 0 
L 3.5 0 
" style="stroke: #000000; stroke-width: 0.8"/>
       </defs>
       <g>
        <use xlink:href="#m58fe33e7fb" x="414.72" y="74.229659" style="stroke: #000000; stroke-width: 0.8"/>
       </g>
      </g>
      <g id="text_1">
       <!-- −10 -->
       <g transform="translate(421.72 78.028878)scale(0.1 -0.1)">
        <defs>
         <path id="DejaVuSans-2212" d="M 678 2272 
L 4684 2272 
L 4684 1741 
L 678 1741 
L 678 2272 
z
" transform="scale(0.015625)"/>
         <path id="DejaVuSans-31" d="M 794 531 
L 1825 531 
L 1825 4091 
L 703 3866 
L 703 4441 
L 1819 4666 
L 2450 4666 
L 2450 531 
L 3481 531 
L 3481 0 
L 794 0 
L 794 531 
z
" transform="scale(0.015625)"/>
         <path id="DejaVuSans-30" d="M 2034 4250 
Q 1547 4250 1301 3770 
Q 1056 3291 1056 2328 
Q 1056 1369 1301 889 
Q 1547 409 2034 409 
Q 2525 409 2770 889 
Q 3016 1369 3016 2328 
Q 3016 3291 2770 3770 
Q 2525 4250 2034 4250 
z
M 2034 4750 
Q 2819 4750 3233 4129 
Q 3647 3509 3647 2328 
Q 3647 1150 3233 529 
Q 2819 -91 2034 -91 
Q 1250 -91 836 529 
Q 422 1150 422 2328 
Q 422 3509 836 4129 
Q 1250 4750 2034 4750 
z
" transform="scale(0.015625)"/>
        </defs>
        <use xlink:href="#DejaVuSans-2212"/>
        <use xlink:href="#DejaVuSans-31" x="83.789062"/>
        <use xlink:href="#DejaVuSans-30" x="147.412109"/>
       </g>
      </g>
     </g>
     <g id="ytick_2">
      <g id="line2d_2">
       <g>
        <use xlink:href="#m58fe33e7fb" x="414.72" y="49.272652" style="stroke: #000000; stroke-width: 0.8"/>
       </g>
      </g>
      <g id="text_2">
       <!-- 0 -->
       <g transform="translate(421.72 53.07187)scale(0.1 -0.1)">
        <use xlink:href="#DejaVuSans-30"/>
       </g>
      </g>
     </g>
     <g id="text_3">
      <!-- vel [m/s] -->
      <g transform="translate(454.423125 86.48769)rotate(-90)scale(0.1 -0.1)">
       <defs>
        <path id="DejaVuSans-76" d="M 191 3500 
L 800 3500 
L 1894 563 
L 2988 3500 
L 3597 3500 
L 2284 0 
L 1503 0 
L 191 3500 
z
" transform="scale(0.015625)"/>
        <path id="DejaVuSans-65" d="M 3597 1894 
L 3597 1613 
L 953 1613 
Q 991 1019 1311 708 
Q 1631 397 2203 397 
Q 2534 397 2845 478 
Q 3156 559 3463 722 
L 3463 178 
Q 3153 47 2828 -22 
Q 2503 -91 2169 -91 
Q 1331 -91 842 396 
Q 353 884 353 1716 
Q 353 2575 817 3079 
Q 1281 3584 2069 3584 
Q 2775 3584 3186 3129 
Q 3597 2675 3597 1894 
z
M 3022 2063 
Q 3016 2534 2758 2815 
Q 2500 3097 2075 3097 
Q 1594 3097 1305 2825 
Q 1016 2553 972 2059 
L 3022 2063 
z
" transform="scale(0.015625)"/>
        <path id="DejaVuSans-6c" d="M 603 4863 
L 1178 4863 
L 1178 0 
L 603 0 
L 603 4863 
z
" transform="scale(0.015625)"/>
        <path id="DejaVuSans-20" transform="scale(0.015625)"/>
        <path id="DejaVuSans-5b" d="M 550 4863 
L 1875 4863 
L 1875 4416 
L 1125 4416 
L 1125 -397 
L 1875 -397 
L 1875 -844 
L 550 -844 
L 550 4863 
z
" transform="scale(0.015625)"/>
        <path id="DejaVuSans-6d" d="M 3328 2828 
Q 3544 3216 3844 3400 
Q 4144 3584 4550 3584 
Q 5097 3584 5394 3201 
Q 5691 2819 5691 2113 
L 5691 0 
L 5113 0 
L 5113 2094 
Q 5113 2597 4934 2840 
Q 4756 3084 4391 3084 
Q 3944 3084 3684 2787 
Q 3425 2491 3425 1978 
L 3425 0 
L 2847 0 
L 2847 2094 
Q 2847 2600 2669 2842 
Q 2491 3084 2119 3084 
Q 1678 3084 1418 2786 
Q 1159 2488 1159 1978 
L 1159 0 
L 581 0 
L 581 3500 
L 1159 3500 
L 1159 2956 
Q 1356 3278 1631 3431 
Q 1906 3584 2284 3584 
Q 2666 3584 2933 3390 
Q 3200 3197 3328 2828 
z
" transform="scale(0.015625)"/>
        <path id="DejaVuSans-2f" d="M 1625 4666 
L 2156 4666 
L 531 -594 
L 0 -594 
L 1625 4666 
z
" transform="scale(0.015625)"/>
        <path id="DejaVuSans-73" d="M 2834 3397 
L 2834 2853 
Q 2591 2978 2328 3040 
Q 2066 3103 1784 3103 
Q 1356 3103 1142 2972 
Q 928 2841 928 2578 
Q 928 2378 1081 2264 
Q 1234 2150 1697 2047 
L 1894 2003 
Q 2506 1872 2764 1633 
Q 3022 1394 3022 966 
Q 3022 478 2636 193 
Q 2250 -91 1575 -91 
Q 1294 -91 989 -36 
Q 684 19 347 128 
L 347 722 
Q 666 556 975 473 
Q 1284 391 1588 391 
Q 1994 391 2212 530 
Q 2431 669 2431 922 
Q 2431 1156 2273 1281 
Q 2116 1406 1581 1522 
L 1381 1569 
Q 847 1681 609 1914 
Q 372 2147 372 2553 
Q 372 3047 722 3315 
Q 1072 3584 1716 3584 
Q 2034 3584 2315 3537 
Q 2597 3491 2834 3397 
z
" transform="scale(0.015625)"/>
        <path id="DejaVuSans-5d" d="M 1947 4863 
L 1947 -844 
L 622 -844 
L 622 -397 
L 1369 -397 
L 1369 4416 
L 622 4416 
L 622 4863 
L 1947 4863 
z
" transform="scale(0.015625)"/>
       </defs>
       <use xlink:href="#DejaVuSans-76"/>
       <use xlink:href="#DejaVuSans-65" x="59.179688"/>
       <use xlink:href="#DejaVuSans-6c" x="120.703125"/>
       <use xlink:href="#DejaVuSans-20" x="148.486328"/>
       <use xlink:href="#DejaVuSans-5b" x="180.273438"/>
       <use xlink:href="#DejaVuSans-6d" x="219.287109"/>
       <use xlink:href="#DejaVuSans-2f" x="316.699219"/>
       <use xlink:href="#DejaVuSans-73" x="350.390625"/>
       <use xlink:href="#DejaVuSans-5d" x="402.490234"/>
      </g>
     </g>
    </g>
    <g id="patch_4">
     <path d="M 414.72 87.353379 
L 414.72 41.472 
" style="fill: none; stroke: #000000; stroke-width: 0.8; stroke-linejoin: miter; stroke-linecap: square"/>
    </g>
   </g>
   <g id="matplotlib.axis_3">
    <g id="xtick_1">
     <g id="line2d_3">
      <defs>
       <path id="m1336698fd8" d="M 0 0 
L 0 3.5 
" style="stroke: #000000; stroke-width: 0.8"/>
      </defs>
      <g>
       <use xlink:href="#m1336698fd8" x="73.832727" y="87.353379" style="stroke: #000000; stroke-width: 0.8"/>
      </g>
     </g>
    </g>
    <g id="xtick_2">
     <g id="line2d_4">
      <g>
       <use xlink:href="#m1336698fd8" x="116.550431" y="87.353379" style="stroke: #000000; stroke-width: 0.8"/>
      </g>
     </g>
    </g>
    <g id="xtick_3">
     <g id="line2d_5">
      <g>
       <use xlink:href="#m1336698fd8" x="159.268134" y="87.353379" style="stroke: #000000; stroke-width: 0.8"/>
      </g>
     </g>
    </g>
    <g id="xtick_4">
     <g id="line2d_6">
      <g>
       <use xlink:href="#m1336698fd8" x="201.985837" y="87.353379" style="stroke: #000000; stroke-width: 0.8"/>
      </g>
     </g>
    </g>
    <g id="xtick_5">
     <g id="line2d_7">
      <g>
       <use xlink:href="#m1336698fd8" x="244.703541" y="87.353379" style="stroke: #000000; stroke-width: 0.8"/>
      </g>
     </g>
    </g>
    <g id="xtick_6">
     <g id="line2d_8">
      <g>
       <use xlink:href="#m1336698fd8" x="287.421244" y="87.353379" style="stroke: #000000; stroke-width: 0.8"/>
      </g>
     </g>
    </g>
    <g id="xtick_7">
     <g id="line2d_9">
      <g>
       <use xlink:href="#m1336698fd8" x="330.138947" y="87.353379" style="stroke: #000000; stroke-width: 0.8"/>
      </g>
     </g>
    </g>
    <g id="xtick_8">
     <g id="line2d_10">
      <g>
       <use xlink:href="#m1336698fd8" x="372.856651" y="87.353379" style="stroke: #000000; stroke-width: 0.8"/>
      </g>
     </g>
    </g>
   </g>
   <g id="matplotlib.axis_4">
    <g id="ytick_3">
     <g id="line2d_11">
      <defs>
       <path id="mebfa7ba70d" d="M 0 0 
L -3.5 0 
" style="stroke: #000000; stroke-width: 0.8"/>
      </defs>
      <g>
       <use xlink:href="#mebfa7ba70d" x="57.6" y="74.229659" style="stroke: #000000; stroke-width: 0.8"/>
      </g>
     </g>
     <g id="text_4">
      <!-- −10 -->
      <g transform="translate(29.495313 78.028878)scale(0.1 -0.1)">
       <use xlink:href="#DejaVuSans-2212"/>
       <use xlink:href="#DejaVuSans-31" x="83.789062"/>
       <use xlink:href="#DejaVuSans-30" x="147.412109"/>
      </g>
     </g>
    </g>
    <g id="ytick_4">
     <g id="line2d_12">
      <g>
       <use xlink:href="#mebfa7ba70d" x="57.6" y="49.272652" style="stroke: #000000; stroke-width: 0.8"/>
      </g>
     </g>
     <g id="text_5">
      <!-- 0 -->
      <g transform="translate(44.2375 53.07187)scale(0.1 -0.1)">
       <use xlink:href="#DejaVuSans-30"/>
      </g>
     </g>
    </g>
    <g id="text_6">
     <!-- vel [normalized] -->
     <g transform="translate(23.415625 105.111908)rotate(-90)scale(0.1 -0.1)">
      <defs>
       <path id="DejaVuSans-6e" d="M 3513 2113 
L 3513 0 
L 2938 0 
L 2938 2094 
Q 2938 2591 2744 2837 
Q 2550 3084 2163 3084 
Q 1697 3084 1428 2787 
Q 1159 2491 1159 1978 
L 1159 0 
L 581 0 
L 581 3500 
L 1159 3500 
L 1159 2956 
Q 1366 3272 1645 3428 
Q 1925 3584 2291 3584 
Q 2894 3584 3203 3211 
Q 3513 2838 3513 2113 
z
" transform="scale(0.015625)"/>
       <path id="DejaVuSans-6f" d="M 1959 3097 
Q 1497 3097 1228 2736 
Q 959 2375 959 1747 
Q 959 1119 1226 758 
Q 1494 397 1959 397 
Q 2419 397 2687 759 
Q 2956 1122 2956 1747 
Q 2956 2369 2687 2733 
Q 2419 3097 1959 3097 
z
M 1959 3584 
Q 2709 3584 3137 3096 
Q 3566 2609 3566 1747 
Q 3566 888 3137 398 
Q 2709 -91 1959 -91 
Q 1206 -91 779 398 
Q 353 888 353 1747 
Q 353 2609 779 3096 
Q 1206 3584 1959 3584 
z
" transform="scale(0.015625)"/>
       <path id="DejaVuSans-72" d="M 2631 2963 
Q 2534 3019 2420 3045 
Q 2306 3072 2169 3072 
Q 1681 3072 1420 2755 
Q 1159 2438 1159 1844 
L 1159 0 
L 581 0 
L 581 3500 
L 1159 3500 
L 1159 2956 
Q 1341 3275 1631 3429 
Q 1922 3584 2338 3584 
Q 2397 3584 2469 3576 
Q 2541 3569 2628 3553 
L 2631 2963 
z
" transform="scale(0.015625)"/>
       <path id="DejaVuSans-61" d="M 2194 1759 
Q 1497 1759 1228 1600 
Q 959 1441 959 1056 
Q 959 750 1161 570 
Q 1363 391 1709 391 
Q 2188 391 2477 730 
Q 2766 1069 2766 1631 
L 2766 1759 
L 2194 1759 
z
M 3341 1997 
L 3341 0 
L 2766 0 
L 2766 531 
Q 2569 213 2275 61 
Q 1981 -91 1556 -91 
Q 1019 -91 701 211 
Q 384 513 384 1019 
Q 384 1609 779 1909 
Q 1175 2209 1959 2209 
L 2766 2209 
L 2766 2266 
Q 2766 2663 2505 2880 
Q 2244 3097 1772 3097 
Q 1472 3097 1187 3025 
Q 903 2953 641 2809 
L 641 3341 
Q 956 3463 1253 3523 
Q 1550 3584 1831 3584 
Q 2591 3584 2966 3190 
Q 3341 2797 3341 1997 
z
" transform="scale(0.015625)"/>
       <path id="DejaVuSans-69" d="M 603 3500 
L 1178 3500 
L 1178 0 
L 603 0 
L 603 3500 
z
M 603 4863 
L 1178 4863 
L 1178 4134 
L 603 4134 
L 603 4863 
z
" transform="scale(0.015625)"/>
       <path id="DejaVuSans-7a" d="M 353 3500 
L 3084 3500 
L 3084 2975 
L 922 459 
L 3084 459 
L 3084 0 
L 275 0 
L 275 525 
L 2438 3041 
L 353 3041 
L 353 3500 
z
" transform="scale(0.015625)"/>
       <path id="DejaVuSans-64" d="M 2906 2969 
L 2906 4863 
L 3481 4863 
L 3481 0 
L 2906 0 
L 2906 525 
Q 2725 213 2448 61 
Q 2172 -91 1784 -91 
Q 1150 -91 751 415 
Q 353 922 353 1747 
Q 353 2572 751 3078 
Q 1150 3584 1784 3584 
Q 2172 3584 2448 3432 
Q 2725 3281 2906 2969 
z
M 947 1747 
Q 947 1113 1208 752 
Q 1469 391 1925 391 
Q 2381 391 2643 752 
Q 2906 1113 2906 1747 
Q 2906 2381 2643 2742 
Q 2381 3103 1925 3103 
Q 1469 3103 1208 2742 
Q 947 2381 947 1747 
z
" transform="scale(0.015625)"/>
      </defs>
      <use xlink:href="#DejaVuSans-76"/>
      <use xlink:href="#DejaVuSans-65" x="59.179688"/>
      <use xlink:href="#DejaVuSans-6c" x="120.703125"/>
      <use xlink:href="#DejaVuSans-20" x="148.486328"/>
      <use xlink:href="#DejaVuSans-5b" x="180.273438"/>
      <use xlink:href="#DejaVuSans-6e" x="219.287109"/>
      <use xlink:href="#DejaVuSans-6f" x="282.666016"/>
      <use xlink:href="#DejaVuSans-72" x="343.847656"/>
      <use xlink:href="#DejaVuSans-6d" x="383.210938"/>
      <use xlink:href="#DejaVuSans-61" x="480.623047"/>
      <use xlink:href="#DejaVuSans-6c" x="541.902344"/>
      <use xlink:href="#DejaVuSans-69" x="569.685547"/>
      <use xlink:href="#DejaVuSans-7a" x="597.46875"/>
      <use xlink:href="#DejaVuSans-65" x="649.958984"/>
      <use xlink:href="#DejaVuSans-64" x="711.482422"/>
      <use xlink:href="#DejaVuSans-5d" x="774.958984"/>
     </g>
    </g>
   </g>
   <g id="line2d_13">
    <path d="M 73.832727 50.639707 
L 90.919809 50.581811 
L 108.00689 50.50726 
L 125.093971 50.423006 
L 142.181053 50.337549 
L 159.268134 50.260307 
L 176.355215 50.191994 
L 193.442297 50.128008 
L 210.529378 50.065625 
L 227.616459 50.003213 
L 244.703541 49.939599 
L 261.790622 49.873648 
L 278.877703 49.804653 
L 295.964785 49.732808 
L 313.051866 49.658758 
L 330.138947 49.58312 
L 347.226029 49.506365 
L 364.31311 49.428849 
L 381.400191 49.350861 
L 398.487273 49.350861 
" clip-path="url(#p3b3aefe054)" style="fill: none; stroke: #1f77b4; stroke-width: 1.5; stroke-linecap: square"/>
   </g>
   <g id="line2d_14">
    <path d="M 73.832727 48.891729 
L 90.919809 48.899325 
L 108.00689 48.907429 
L 125.093971 48.916093 
L 142.181053 48.925573 
L 159.268134 48.936246 
L 176.355215 48.948474 
L 193.442297 48.96255 
L 210.529378 48.978828 
L 227.616459 48.997729 
L 244.703541 49.019585 
L 261.790622 49.044304 
L 278.877703 49.071187 
L 295.964785 49.099321 
L 313.051866 49.128031 
L 330.138947 49.156951 
L 347.226029 49.185917 
L 364.31311 49.214864 
L 381.400191 49.243775 
L 398.487273 49.243775 
" clip-path="url(#p3b3aefe054)" style="fill: none; stroke: #ff7f0e; stroke-width: 1.5; stroke-linecap: square"/>
   </g>
   <g id="line2d_15">
    <path d="M 73.832727 46.780265 
L 90.919809 46.785675 
L 108.00689 46.790559 
L 125.093971 46.793289 
L 142.181053 46.794775 
L 159.268134 46.795933 
L 176.355215 46.797032 
L 193.442297 46.79805 
L 210.529378 46.798998 
L 227.616459 46.79991 
L 244.703541 46.800791 
L 261.790622 46.801607 
L 278.877703 46.802319 
L 295.964785 46.802926 
L 313.051866 46.803453 
L 330.138947 46.80392 
L 347.226029 46.804342 
L 364.31311 46.804727 
L 381.400191 46.805079 
L 398.487273 46.805079 
" clip-path="url(#p3b3aefe054)" style="fill: none; stroke: #2ca02c; stroke-width: 1.5; stroke-linecap: square"/>
   </g>
   <g id="line2d_16">
    <path d="M 73.832727 46.777102 
L 90.919809 46.77815 
L 108.00689 46.781647 
L 125.093971 46.787332 
L 142.181053 46.791588 
L 159.268134 46.793505 
L 176.355215 46.794467 
L 193.442297 46.795083 
L 210.529378 46.795492 
L 227.616459 46.795745 
L 244.703541 46.795856 
L 261.790622 46.795809 
L 278.877703 46.795599 
L 295.964785 46.795267 
L 313.051866 46.794862 
L 330.138947 46.794422 
L 347.226029 46.793967 
L 364.31311 46.793506 
L 381.400191 46.793044 
L 398.487273 46.793044 
" clip-path="url(#p3b3aefe054)" style="fill: none; stroke: #d62728; stroke-width: 1.5; stroke-linecap: square"/>
   </g>
   <g id="line2d_17">
    <path d="M 73.832727 49.186817 
L 90.919809 49.100179 
L 108.00689 49.010804 
L 125.093971 48.912735 
L 142.181053 48.791193 
L 159.268134 48.632067 
L 176.355215 48.43663 
L 193.442297 48.206897 
L 210.529378 47.939747 
L 227.616459 47.629557 
L 244.703541 47.271251 
L 261.790622 46.865843 
L 278.877703 46.423941 
L 295.964785 45.960099 
L 313.051866 45.485429 
L 330.138947 45.00599 
L 347.226029 44.524414 
L 364.31311 44.041567 
L 381.400191 43.557517 
L 398.487273 43.557517 
" clip-path="url(#p3b3aefe054)" style="fill: none; stroke: #9467bd; stroke-width: 1.5; stroke-linecap: square"/>
   </g>
   <g id="line2d_18">
    <path d="M 73.832727 49.225228 
L 90.919809 49.177086 
L 108.00689 49.126736 
L 125.093971 49.069803 
L 142.181053 48.993432 
L 159.268134 48.881094 
L 176.355215 48.732018 
L 193.442297 48.549177 
L 210.529378 48.330383 
L 227.616459 48.070547 
L 244.703541 47.764916 
L 261.790622 47.414435 
L 278.877703 47.029222 
L 295.964785 46.62341 
L 313.051866 46.208045 
L 330.138947 45.789373 
L 347.226029 45.370313 
L 364.31311 44.952049 
L 381.400191 44.534986 
L 398.487273 44.534986 
" clip-path="url(#p3b3aefe054)" style="fill: none; stroke: #8c564b; stroke-width: 1.5; stroke-linecap: square"/>
   </g>
   <g id="line2d_19">
    <path d="M 73.832727 49.27047 
L 90.919809 49.268195 
L 108.00689 49.265686 
L 125.093971 49.262918 
L 142.181053 49.259725 
L 159.268134 49.254992 
L 176.355215 49.248446 
L 193.442297 49.240341 
L 210.529378 49.230666 
L 227.616459 49.219251 
L 244.703541 49.205951 
L 261.790622 49.190888 
L 278.877703 49.17459 
L 295.964785 49.157759 
L 313.051866 49.140953 
L 330.138947 49.124512 
L 347.226029 49.108629 
L 364.31311 49.093417 
L 381.400191 49.078953 
L 398.487273 49.078953 
" clip-path="url(#p3b3aefe054)" style="fill: none; stroke: #e377c2; stroke-width: 1.5; stroke-linecap: square"/>
   </g>
   <g id="line2d_20">
    <path d="M 73.832727 49.272502 
L 90.919809 49.272285 
L 108.00689 49.271922 
L 125.093971 49.271567 
L 142.181053 49.271615 
L 159.268134 49.271681 
L 176.355215 49.271513 
L 193.442297 49.271214 
L 210.529378 49.270834 
L 227.616459 49.27038 
L 244.703541 49.26985 
L 261.790622 49.269252 
L 278.877703 49.268603 
L 295.964785 49.267932 
L 313.051866 49.267266 
L 330.138947 49.266621 
L 347.226029 49.266006 
L 364.31311 49.265428 
L 381.400191 49.264891 
L 398.487273 49.264891 
" clip-path="url(#p3b3aefe054)" style="fill: none; stroke: #7f7f7f; stroke-width: 1.5; stroke-linecap: square"/>
   </g>
   <g id="line2d_21">
    <path d="M 73.832727 85.267862 
L 90.919809 80.610145 
L 108.00689 76.932009 
L 125.093971 73.898877 
L 142.181053 71.407362 
L 159.268134 69.397879 
L 176.355215 67.671941 
L 193.442297 66.095038 
L 210.529378 64.59679 
L 227.616459 63.12953 
L 244.703541 61.660701 
L 261.790622 60.178865 
L 278.877703 58.698303 
L 295.964785 57.24356 
L 313.051866 55.83007 
L 330.138947 54.460462 
L 347.226029 53.129356 
L 364.31311 51.827824 
L 381.400191 50.545739 
L 398.487273 50.545739 
" clip-path="url(#p3b3aefe054)" style="fill: none; stroke: #bcbd22; stroke-width: 1.5; stroke-linecap: square"/>
   </g>
   <g id="line2d_22">
    <path d="M 73.832727 68.655112 
L 90.919809 65.833663 
L 108.00689 63.640111 
L 125.093971 61.868987 
L 142.181053 60.435623 
L 159.268134 59.308527 
L 176.355215 58.388235 
L 193.442297 57.581789 
L 210.529378 56.838749 
L 227.616459 56.12758 
L 244.703541 55.426875 
L 261.790622 54.724022 
L 278.877703 54.017353 
L 295.964785 53.313069 
L 313.051866 52.617264 
L 330.138947 51.9324 
L 347.226029 51.257949 
L 364.31311 50.591781 
L 381.400191 49.931059 
L 398.487273 49.931059 
" clip-path="url(#p3b3aefe054)" style="fill: none; stroke: #17becf; stroke-width: 1.5; stroke-linecap: square"/>
   </g>
   <g id="line2d_23">
    <path d="M 73.832727 57.253882 
L 90.919809 56.518752 
L 108.00689 55.816847 
L 125.093971 55.166205 
L 142.181053 54.588653 
L 159.268134 54.108095 
L 176.355215 53.704216 
L 193.442297 53.342442 
L 210.529378 53.002976 
L 227.616459 52.673444 
L 244.703541 52.345289 
L 261.790622 52.012611 
L 278.877703 51.6734 
L 295.964785 51.329702 
L 313.051866 50.984553 
L 330.138947 50.639924 
L 347.226029 50.296584 
L 364.31311 49.954544 
L 381.400191 49.613424 
L 398.487273 49.613424 
" clip-path="url(#p3b3aefe054)" style="fill: none; stroke: #1f77b4; stroke-width: 1.5; stroke-linecap: square"/>
   </g>
   <g id="line2d_24">
    <path d="M 73.832727 52.994175 
L 90.919809 52.762849 
L 108.00689 52.505405 
L 125.093971 52.240371 
L 142.181053 51.987687 
L 159.268134 51.767785 
L 176.355215 51.57794 
L 193.442297 51.404027 
L 210.529378 51.237685 
L 227.616459 51.073729 
L 244.703541 50.908525 
L 261.790622 50.739212 
L 278.877703 50.564379 
L 295.964785 50.384769 
L 313.051866 50.202002 
L 330.138947 50.017412 
L 347.226029 49.831821 
L 364.31311 49.645684 
L 381.400191 49.459248 
L 398.487273 49.459248 
" clip-path="url(#p3b3aefe054)" style="fill: none; stroke: #ff7f0e; stroke-width: 1.5; stroke-linecap: square"/>
   </g>
   <g id="line2d_25">
    <path d="M 73.832727 51.168859 
L 90.919809 51.079377 
L 108.00689 50.969057 
L 125.093971 50.847657 
L 142.181053 50.726646 
L 159.268134 50.618426 
L 176.355215 50.523389 
L 193.442297 50.434916 
L 210.529378 50.349045 
L 227.616459 50.263353 
L 244.703541 50.176147 
L 261.790622 50.085951 
L 278.877703 49.991862 
L 295.964785 49.894141 
L 313.051866 49.793668 
L 330.138947 49.691279 
L 347.226029 49.587591 
L 364.31311 49.483045 
L 381.400191 49.377973 
L 398.487273 49.377973 
" clip-path="url(#p3b3aefe054)" style="fill: none; stroke: #2ca02c; stroke-width: 1.5; stroke-linecap: square"/>
   </g>
   <g id="patch_5">
    <path d="M 57.6 87.353379 
L 57.6 41.472 
" style="fill: none; stroke: #000000; stroke-width: 0.8; stroke-linejoin: miter; stroke-linecap: square"/>
   </g>
   <g id="patch_6">
    <path d="M 414.72 87.353379 
L 414.72 41.472 
" style="fill: none; stroke: #000000; stroke-width: 0.8; stroke-linejoin: miter; stroke-linecap: square"/>
   </g>
   <g id="patch_7">
    <path d="M 57.6 87.353379 
L 414.72 87.353379 
" style="fill: none; stroke: #000000; stroke-width: 0.8; stroke-linejoin: miter; stroke-linecap: square"/>
   </g>
   <g id="patch_8">
    <path d="M 57.6 41.472 
L 414.72 41.472 
" style="fill: none; stroke: #000000; stroke-width: 0.8; stroke-linejoin: miter; stroke-linecap: square"/>
   </g>
   <g id="text_7">
    <!-- velocity - Container 1  -->
    <g transform="translate(169.779375 38.472)scale(0.12 -0.12)">
     <defs>
      <path id="DejaVuSans-63" d="M 3122 3366 
L 3122 2828 
Q 2878 2963 2633 3030 
Q 2388 3097 2138 3097 
Q 1578 3097 1268 2742 
Q 959 2388 959 1747 
Q 959 1106 1268 751 
Q 1578 397 2138 397 
Q 2388 397 2633 464 
Q 2878 531 3122 666 
L 3122 134 
Q 2881 22 2623 -34 
Q 2366 -91 2075 -91 
Q 1284 -91 818 406 
Q 353 903 353 1747 
Q 353 2603 823 3093 
Q 1294 3584 2113 3584 
Q 2378 3584 2631 3529 
Q 2884 3475 3122 3366 
z
" transform="scale(0.015625)"/>
      <path id="DejaVuSans-74" d="M 1172 4494 
L 1172 3500 
L 2356 3500 
L 2356 3053 
L 1172 3053 
L 1172 1153 
Q 1172 725 1289 603 
Q 1406 481 1766 481 
L 2356 481 
L 2356 0 
L 1766 0 
Q 1100 0 847 248 
Q 594 497 594 1153 
L 594 3053 
L 172 3053 
L 172 3500 
L 594 3500 
L 594 4494 
L 1172 4494 
z
" transform="scale(0.015625)"/>
      <path id="DejaVuSans-79" d="M 2059 -325 
Q 1816 -950 1584 -1140 
Q 1353 -1331 966 -1331 
L 506 -1331 
L 506 -850 
L 844 -850 
Q 1081 -850 1212 -737 
Q 1344 -625 1503 -206 
L 1606 56 
L 191 3500 
L 800 3500 
L 1894 763 
L 2988 3500 
L 3597 3500 
L 2059 -325 
z
" transform="scale(0.015625)"/>
      <path id="DejaVuSans-2d" d="M 313 2009 
L 1997 2009 
L 1997 1497 
L 313 1497 
L 313 2009 
z
" transform="scale(0.015625)"/>
      <path id="DejaVuSans-43" d="M 4122 4306 
L 4122 3641 
Q 3803 3938 3442 4084 
Q 3081 4231 2675 4231 
Q 1875 4231 1450 3742 
Q 1025 3253 1025 2328 
Q 1025 1406 1450 917 
Q 1875 428 2675 428 
Q 3081 428 3442 575 
Q 3803 722 4122 1019 
L 4122 359 
Q 3791 134 3420 21 
Q 3050 -91 2638 -91 
Q 1578 -91 968 557 
Q 359 1206 359 2328 
Q 359 3453 968 4101 
Q 1578 4750 2638 4750 
Q 3056 4750 3426 4639 
Q 3797 4528 4122 4306 
z
" transform="scale(0.015625)"/>
     </defs>
     <use xlink:href="#DejaVuSans-76"/>
     <use xlink:href="#DejaVuSans-65" x="59.179688"/>
     <use xlink:href="#DejaVuSans-6c" x="120.703125"/>
     <use xlink:href="#DejaVuSans-6f" x="148.486328"/>
     <use xlink:href="#DejaVuSans-63" x="209.667969"/>
     <use xlink:href="#DejaVuSans-69" x="264.648438"/>
     <use xlink:href="#DejaVuSans-74" x="292.431641"/>
     <use xlink:href="#DejaVuSans-79" x="331.640625"/>
     <use xlink:href="#DejaVuSans-20" x="390.820312"/>
     <use xlink:href="#DejaVuSans-2d" x="422.607422"/>
     <use xlink:href="#DejaVuSans-20" x="458.691406"/>
     <use xlink:href="#DejaVuSans-43" x="490.478516"/>
     <use xlink:href="#DejaVuSans-6f" x="560.302734"/>
     <use xlink:href="#DejaVuSans-6e" x="621.484375"/>
     <use xlink:href="#DejaVuSans-74" x="684.863281"/>
     <use xlink:href="#DejaVuSans-61" x="724.072266"/>
     <use xlink:href="#DejaVuSans-69" x="785.351562"/>
     <use xlink:href="#DejaVuSans-6e" x="813.134766"/>
     <use xlink:href="#DejaVuSans-65" x="876.513672"/>
     <use xlink:href="#DejaVuSans-72" x="938.037109"/>
     <use xlink:href="#DejaVuSans-20" x="979.150391"/>
     <use xlink:href="#DejaVuSans-31" x="1010.9375"/>
     <use xlink:href="#DejaVuSans-20" x="1074.560547"/>
    </g>
   </g>
  </g>
  <g id="axes_3">
   <g id="patch_9">
    <path d="M 57.6 142.411034 
L 414.72 142.411034 
L 414.72 96.529655 
L 57.6 96.529655 
z
" style="fill: #ffffff"/>
   </g>
   <g id="matplotlib.axis_5">
    <g id="xtick_9">
     <g id="line2d_26">
      <g>
       <use xlink:href="#m1336698fd8" x="73.832727" y="142.411034" style="stroke: #000000; stroke-width: 0.8"/>
      </g>
     </g>
    </g>
    <g id="xtick_10">
     <g id="line2d_27">
      <g>
       <use xlink:href="#m1336698fd8" x="116.550431" y="142.411034" style="stroke: #000000; stroke-width: 0.8"/>
      </g>
     </g>
    </g>
    <g id="xtick_11">
     <g id="line2d_28">
      <g>
       <use xlink:href="#m1336698fd8" x="159.268134" y="142.411034" style="stroke: #000000; stroke-width: 0.8"/>
      </g>
     </g>
    </g>
    <g id="xtick_12">
     <g id="line2d_29">
      <g>
       <use xlink:href="#m1336698fd8" x="201.985837" y="142.411034" style="stroke: #000000; stroke-width: 0.8"/>
      </g>
     </g>
    </g>
    <g id="xtick_13">
     <g id="line2d_30">
      <g>
       <use xlink:href="#m1336698fd8" x="244.703541" y="142.411034" style="stroke: #000000; stroke-width: 0.8"/>
      </g>
     </g>
    </g>
    <g id="xtick_14">
     <g id="line2d_31">
      <g>
       <use xlink:href="#m1336698fd8" x="287.421244" y="142.411034" style="stroke: #000000; stroke-width: 0.8"/>
      </g>
     </g>
    </g>
    <g id="xtick_15">
     <g id="line2d_32">
      <g>
       <use xlink:href="#m1336698fd8" x="330.138947" y="142.411034" style="stroke: #000000; stroke-width: 0.8"/>
      </g>
     </g>
    </g>
    <g id="xtick_16">
     <g id="line2d_33">
      <g>
       <use xlink:href="#m1336698fd8" x="372.856651" y="142.411034" style="stroke: #000000; stroke-width: 0.8"/>
      </g>
     </g>
    </g>
   </g>
   <g id="matplotlib.axis_6">
    <g id="ytick_5">
     <g id="line2d_34">
      <g>
       <use xlink:href="#mebfa7ba70d" x="57.6" y="140.747548" style="stroke: #000000; stroke-width: 0.8"/>
      </g>
     </g>
     <g id="text_8">
      <!-- 0 -->
      <g transform="translate(44.2375 144.546766)scale(0.1 -0.1)">
       <use xlink:href="#DejaVuSans-30"/>
      </g>
     </g>
    </g>
    <g id="ytick_6">
     <g id="line2d_35">
      <g>
       <use xlink:href="#mebfa7ba70d" x="57.6" y="98.77044" style="stroke: #000000; stroke-width: 0.8"/>
      </g>
     </g>
     <g id="text_9">
      <!-- 1 -->
      <g transform="translate(44.2375 102.569658)scale(0.1 -0.1)">
       <use xlink:href="#DejaVuSans-31"/>
      </g>
     </g>
    </g>
   </g>
   <g id="line2d_36">
    <path d="M 73.832727 140.325517 
L 90.919809 140.32113 
L 108.00689 140.316928 
L 125.093971 140.312966 
L 142.181053 140.309274 
L 159.268134 140.305856 
L 176.355215 140.302686 
L 193.442297 140.299735 
L 210.529378 140.29699 
L 227.616459 140.294445 
L 244.703541 140.292101 
L 261.790622 140.28996 
L 278.877703 140.288031 
L 295.964785 140.286324 
L 313.051866 140.284847 
L 330.138947 140.283608 
L 347.226029 140.282611 
L 364.31311 140.281861 
L 381.400191 140.28136 
L 398.487273 140.281109 
" clip-path="url(#p82a97cfdbd)" style="fill: none; stroke: #1f77b4; stroke-width: 1.5; stroke-linecap: square"/>
   </g>
   <g id="line2d_37">
    <path d="M 73.832727 99.53357 
L 90.919809 99.534793 
L 108.00689 99.535991 
L 125.093971 99.537163 
L 142.181053 99.538307 
L 159.268134 99.539421 
L 176.355215 99.540501 
L 193.442297 99.541541 
L 210.529378 99.542537 
L 227.616459 99.54348 
L 244.703541 99.544362 
L 261.790622 99.545174 
L 278.877703 99.545907 
L 295.964785 99.546554 
L 313.051866 99.54711 
L 330.138947 99.547574 
L 347.226029 99.547945 
L 364.31311 99.548224 
L 381.400191 99.548409 
L 398.487273 99.548502 
" clip-path="url(#p82a97cfdbd)" style="fill: none; stroke: #ff7f0e; stroke-width: 1.5; stroke-linecap: square"/>
   </g>
   <g id="line2d_38">
    <path d="M 73.832727 98.615582 
L 90.919809 98.623581 
L 108.00689 98.631563 
L 125.093971 98.639529 
L 142.181053 98.647487 
L 159.268134 98.655439 
L 176.355215 98.663388 
L 193.442297 98.671334 
L 210.529378 98.679276 
L 227.616459 98.687215 
L 244.703541 98.695151 
L 261.790622 98.703084 
L 278.877703 98.711015 
L 295.964785 98.718943 
L 313.051866 98.72687 
L 330.138947 98.734795 
L 347.226029 98.742718 
L 364.31311 98.75064 
L 381.400191 98.758561 
L 398.487273 98.76648 
" clip-path="url(#p82a97cfdbd)" style="fill: none; stroke: #2ca02c; stroke-width: 1.5; stroke-linecap: square"/>
   </g>
   <g id="line2d_39">
    <path d="M 73.832727 98.615172 
L 90.919809 98.623182 
L 108.00689 98.631188 
L 125.093971 98.639183 
L 142.181053 98.647159 
L 159.268134 98.655122 
L 176.355215 98.663079 
L 193.442297 98.671032 
L 210.529378 98.678984 
L 227.616459 98.686934 
L 244.703541 98.694884 
L 261.790622 98.702833 
L 278.877703 98.710782 
L 295.964785 98.718732 
L 313.051866 98.726683 
L 330.138947 98.734636 
L 347.226029 98.742589 
L 364.31311 98.750545 
L 381.400191 98.758501 
L 398.487273 98.766459 
" clip-path="url(#p82a97cfdbd)" style="fill: none; stroke: #d62728; stroke-width: 1.5; stroke-linecap: square"/>
   </g>
   <g id="line2d_40">
    <path d="M 73.832727 122.50979 
L 90.919809 122.510065 
L 108.00689 122.510619 
L 125.093971 122.511459 
L 142.181053 122.512615 
L 159.268134 122.51416 
L 176.355215 122.516216 
L 193.442297 122.518899 
L 210.529378 122.522319 
L 227.616459 122.526597 
L 244.703541 122.531871 
L 261.790622 122.538294 
L 278.877703 122.546019 
L 295.964785 122.555161 
L 313.051866 122.565793 
L 330.138947 122.577948 
L 347.226029 122.591642 
L 364.31311 122.606881 
L 381.400191 122.62367 
L 398.487273 122.642012 
" clip-path="url(#p82a97cfdbd)" style="fill: none; stroke: #9467bd; stroke-width: 1.5; stroke-linecap: square"/>
   </g>
   <g id="line2d_41">
    <path d="M 73.832727 136.185502 
L 90.919809 136.185654 
L 108.00689 136.185961 
L 125.093971 136.186429 
L 142.181053 136.187081 
L 159.268134 136.187977 
L 176.355215 136.189233 
L 193.442297 136.190968 
L 210.529378 136.19329 
L 227.616459 136.196315 
L 244.703541 136.200173 
L 261.790622 136.205012 
L 278.877703 136.210976 
L 295.964785 136.218176 
L 313.051866 136.226678 
L 330.138947 136.236514 
L 347.226029 136.247694 
L 364.31311 136.260218 
L 381.400191 136.274085 
L 398.487273 136.28929 
" clip-path="url(#p82a97cfdbd)" style="fill: none; stroke: #8c564b; stroke-width: 1.5; stroke-linecap: square"/>
   </g>
   <g id="line2d_42">
    <path d="M 73.832727 136.540387 
L 90.919809 136.540394 
L 108.00689 136.540409 
L 125.093971 136.540431 
L 142.181053 136.540462 
L 159.268134 136.540504 
L 176.355215 136.54056 
L 193.442297 136.540638 
L 210.529378 136.540742 
L 227.616459 136.540876 
L 244.703541 136.541048 
L 261.790622 136.541262 
L 278.877703 136.541524 
L 295.964785 136.541839 
L 313.051866 136.542208 
L 330.138947 136.54263 
L 347.226029 136.543106 
L 364.31311 136.543632 
L 381.400191 136.544208 
L 398.487273 136.544829 
" clip-path="url(#p82a97cfdbd)" style="fill: none; stroke: #e377c2; stroke-width: 1.5; stroke-linecap: square"/>
   </g>
   <g id="line2d_43">
    <path d="M 73.832727 136.549544 
L 90.919809 136.549545 
L 108.00689 136.549546 
L 125.093971 136.549548 
L 142.181053 136.549552 
L 159.268134 136.549555 
L 176.355215 136.549558 
L 193.442297 136.549562 
L 210.529378 136.549566 
L 227.616459 136.549572 
L 244.703541 136.54958 
L 261.790622 136.549589 
L 278.877703 136.549599 
L 295.964785 136.549612 
L 313.051866 136.549628 
L 330.138947 136.549645 
L 347.226029 136.549664 
L 364.31311 136.549686 
L 381.400191 136.549709 
L 398.487273 136.549734 
" clip-path="url(#p82a97cfdbd)" style="fill: none; stroke: #7f7f7f; stroke-width: 1.5; stroke-linecap: square"/>
   </g>
   <g id="line2d_44">
    <path d="M 73.832727 139.743224 
L 90.919809 139.627699 
L 108.00689 139.527123 
L 125.093971 139.438351 
L 142.181053 139.359315 
L 159.268134 139.288274 
L 176.355215 139.223683 
L 193.442297 139.164632 
L 210.529378 139.110641 
L 227.616459 139.061459 
L 244.703541 139.016986 
L 261.790622 138.977227 
L 278.877703 138.942224 
L 295.964785 138.911973 
L 313.051866 138.88639 
L 330.138947 138.865345 
L 347.226029 138.848695 
L 364.31311 138.836317 
L 381.400191 138.828116 
L 398.487273 138.82403 
" clip-path="url(#p82a97cfdbd)" style="fill: none; stroke: #bcbd22; stroke-width: 1.5; stroke-linecap: square"/>
   </g>
   <g id="line2d_45">
    <path d="M 73.832727 140.277561 
L 90.919809 140.215354 
L 108.00689 140.162202 
L 125.093971 140.11609 
L 142.181053 140.075663 
L 159.268134 140.039836 
L 176.355215 140.007626 
L 193.442297 139.97837 
L 210.529378 139.951702 
L 227.616459 139.927419 
L 244.703541 139.905419 
L 261.790622 139.885667 
L 278.877703 139.868171 
L 295.964785 139.852943 
L 313.051866 139.839975 
L 330.138947 139.829241 
L 347.226029 139.820705 
L 364.31311 139.814333 
L 381.400191 139.810099 
L 398.487273 139.807986 
" clip-path="url(#p82a97cfdbd)" style="fill: none; stroke: #17becf; stroke-width: 1.5; stroke-linecap: square"/>
   </g>
   <g id="line2d_46">
    <path d="M 73.832727 140.313136 
L 90.919809 140.28752 
L 108.00689 140.264264 
L 125.093971 140.243261 
L 142.181053 140.224346 
L 159.268134 140.207284 
L 176.355215 140.191765 
L 193.442297 140.177542 
L 210.529378 140.164481 
L 227.616459 140.152508 
L 244.703541 140.141594 
L 261.790622 140.131732 
L 278.877703 140.122938 
L 295.964785 140.115233 
L 313.051866 140.108631 
L 330.138947 140.103137 
L 347.226029 140.098749 
L 364.31311 140.095463 
L 381.400191 140.093274 
L 398.487273 140.09218 
" clip-path="url(#p82a97cfdbd)" style="fill: none; stroke: #1f77b4; stroke-width: 1.5; stroke-linecap: square"/>
   </g>
   <g id="line2d_47">
    <path d="M 73.832727 140.321417 
L 90.919809 140.309473 
L 108.00689 140.298272 
L 125.093971 140.287896 
L 142.181053 140.278371 
L 159.268134 140.269658 
L 176.355215 140.26165 
L 193.442297 140.254251 
L 210.529378 140.24741 
L 227.616459 140.241104 
L 244.703541 140.235323 
L 261.790622 140.230073 
L 278.877703 140.225366 
L 295.964785 140.22122 
L 313.051866 140.217651 
L 330.138947 140.214668 
L 347.226029 140.212278 
L 364.31311 140.210483 
L 381.400191 140.209286 
L 398.487273 140.208687 
" clip-path="url(#p82a97cfdbd)" style="fill: none; stroke: #ff7f0e; stroke-width: 1.5; stroke-linecap: square"/>
   </g>
   <g id="line2d_48">
    <path d="M 73.832727 140.324618 
L 90.919809 140.318532 
L 108.00689 140.312734 
L 125.093971 140.307289 
L 142.181053 140.302234 
L 159.268134 140.297568 
L 176.355215 140.293248 
L 193.442297 140.289234 
L 210.529378 140.285504 
L 227.616459 140.282049 
L 244.703541 140.27887 
L 261.790622 140.27597 
L 278.877703 140.27336 
L 295.964785 140.271051 
L 313.051866 140.269057 
L 330.138947 140.267385 
L 347.226029 140.266041 
L 364.31311 140.26503 
L 381.400191 140.264355 
L 398.487273 140.264017 
" clip-path="url(#p82a97cfdbd)" style="fill: none; stroke: #2ca02c; stroke-width: 1.5; stroke-linecap: square"/>
   </g>
   <g id="patch_10">
    <path d="M 57.6 142.411034 
L 57.6 96.529655 
" style="fill: none; stroke: #000000; stroke-width: 0.8; stroke-linejoin: miter; stroke-linecap: square"/>
   </g>
   <g id="patch_11">
    <path d="M 414.72 142.411034 
L 414.72 96.529655 
" style="fill: none; stroke: #000000; stroke-width: 0.8; stroke-linejoin: miter; stroke-linecap: square"/>
   </g>
   <g id="patch_12">
    <path d="M 57.6 142.411034 
L 414.72 142.411034 
" style="fill: none; stroke: #000000; stroke-width: 0.8; stroke-linejoin: miter; stroke-linecap: square"/>
   </g>
   <g id="patch_13">
    <path d="M 57.6 96.529655 
L 414.72 96.529655 
" style="fill: none; stroke: #000000; stroke-width: 0.8; stroke-linejoin: miter; stroke-linecap: square"/>
   </g>
   <g id="text_10">
    <!-- Pressure - Container 1 -->
    <g transform="translate(169.523438 93.529655)scale(0.12 -0.12)">
     <defs>
      <path id="DejaVuSans-50" d="M 1259 4147 
L 1259 2394 
L 2053 2394 
Q 2494 2394 2734 2622 
Q 2975 2850 2975 3272 
Q 2975 3691 2734 3919 
Q 2494 4147 2053 4147 
L 1259 4147 
z
M 628 4666 
L 2053 4666 
Q 2838 4666 3239 4311 
Q 3641 3956 3641 3272 
Q 3641 2581 3239 2228 
Q 2838 1875 2053 1875 
L 1259 1875 
L 1259 0 
L 628 0 
L 628 4666 
z
" transform="scale(0.015625)"/>
      <path id="DejaVuSans-75" d="M 544 1381 
L 544 3500 
L 1119 3500 
L 1119 1403 
Q 1119 906 1312 657 
Q 1506 409 1894 409 
Q 2359 409 2629 706 
Q 2900 1003 2900 1516 
L 2900 3500 
L 3475 3500 
L 3475 0 
L 2900 0 
L 2900 538 
Q 2691 219 2414 64 
Q 2138 -91 1772 -91 
Q 1169 -91 856 284 
Q 544 659 544 1381 
z
M 1991 3584 
L 1991 3584 
z
" transform="scale(0.015625)"/>
     </defs>
     <use xlink:href="#DejaVuSans-50"/>
     <use xlink:href="#DejaVuSans-72" x="58.552734"/>
     <use xlink:href="#DejaVuSans-65" x="97.416016"/>
     <use xlink:href="#DejaVuSans-73" x="158.939453"/>
     <use xlink:href="#DejaVuSans-73" x="211.039062"/>
     <use xlink:href="#DejaVuSans-75" x="263.138672"/>
     <use xlink:href="#DejaVuSans-72" x="326.517578"/>
     <use xlink:href="#DejaVuSans-65" x="365.380859"/>
     <use xlink:href="#DejaVuSans-20" x="426.904297"/>
     <use xlink:href="#DejaVuSans-2d" x="458.691406"/>
     <use xlink:href="#DejaVuSans-20" x="494.775391"/>
     <use xlink:href="#DejaVuSans-43" x="526.5625"/>
     <use xlink:href="#DejaVuSans-6f" x="596.386719"/>
     <use xlink:href="#DejaVuSans-6e" x="657.568359"/>
     <use xlink:href="#DejaVuSans-74" x="720.947266"/>
     <use xlink:href="#DejaVuSans-61" x="760.15625"/>
     <use xlink:href="#DejaVuSans-69" x="821.435547"/>
     <use xlink:href="#DejaVuSans-6e" x="849.21875"/>
     <use xlink:href="#DejaVuSans-65" x="912.597656"/>
     <use xlink:href="#DejaVuSans-72" x="974.121094"/>
     <use xlink:href="#DejaVuSans-20" x="1015.234375"/>
     <use xlink:href="#DejaVuSans-31" x="1047.021484"/>
    </g>
   </g>
  </g>
  <g id="axes_4">
   <g id="patch_14">
    <path d="M 57.6 197.46869 
L 414.72 197.46869 
L 414.72 151.58731 
L 57.6 151.58731 
z
" style="fill: #ffffff"/>
   </g>
   <g id="matplotlib.axis_7">
    <g id="xtick_17">
     <g id="line2d_49">
      <g>
       <use xlink:href="#m1336698fd8" x="73.832727" y="197.46869" style="stroke: #000000; stroke-width: 0.8"/>
      </g>
     </g>
    </g>
    <g id="xtick_18">
     <g id="line2d_50">
      <g>
       <use xlink:href="#m1336698fd8" x="116.550431" y="197.46869" style="stroke: #000000; stroke-width: 0.8"/>
      </g>
     </g>
    </g>
    <g id="xtick_19">
     <g id="line2d_51">
      <g>
       <use xlink:href="#m1336698fd8" x="159.268134" y="197.46869" style="stroke: #000000; stroke-width: 0.8"/>
      </g>
     </g>
    </g>
    <g id="xtick_20">
     <g id="line2d_52">
      <g>
       <use xlink:href="#m1336698fd8" x="201.985837" y="197.46869" style="stroke: #000000; stroke-width: 0.8"/>
      </g>
     </g>
    </g>
    <g id="xtick_21">
     <g id="line2d_53">
      <g>
       <use xlink:href="#m1336698fd8" x="244.703541" y="197.46869" style="stroke: #000000; stroke-width: 0.8"/>
      </g>
     </g>
    </g>
    <g id="xtick_22">
     <g id="line2d_54">
      <g>
       <use xlink:href="#m1336698fd8" x="287.421244" y="197.46869" style="stroke: #000000; stroke-width: 0.8"/>
      </g>
     </g>
    </g>
    <g id="xtick_23">
     <g id="line2d_55">
      <g>
       <use xlink:href="#m1336698fd8" x="330.138947" y="197.46869" style="stroke: #000000; stroke-width: 0.8"/>
      </g>
     </g>
    </g>
    <g id="xtick_24">
     <g id="line2d_56">
      <g>
       <use xlink:href="#m1336698fd8" x="372.856651" y="197.46869" style="stroke: #000000; stroke-width: 0.8"/>
      </g>
     </g>
    </g>
   </g>
   <g id="matplotlib.axis_8">
    <g id="ytick_7">
     <g id="line2d_57">
      <g>
       <use xlink:href="#mebfa7ba70d" x="57.6" y="195.672791" style="stroke: #000000; stroke-width: 0.8"/>
      </g>
     </g>
     <g id="text_11">
      <!-- 0.00 -->
      <g transform="translate(28.334375 199.47201)scale(0.1 -0.1)">
       <defs>
        <path id="DejaVuSans-2e" d="M 684 794 
L 1344 794 
L 1344 0 
L 684 0 
L 684 794 
z
" transform="scale(0.015625)"/>
       </defs>
       <use xlink:href="#DejaVuSans-30"/>
       <use xlink:href="#DejaVuSans-2e" x="63.623047"/>
       <use xlink:href="#DejaVuSans-30" x="95.410156"/>
       <use xlink:href="#DejaVuSans-30" x="159.033203"/>
      </g>
     </g>
    </g>
    <g id="ytick_8">
     <g id="line2d_58">
      <g>
       <use xlink:href="#mebfa7ba70d" x="57.6" y="168.79737" style="stroke: #000000; stroke-width: 0.8"/>
      </g>
     </g>
     <g id="text_12">
      <!-- 0.25 -->
      <g transform="translate(28.334375 172.596589)scale(0.1 -0.1)">
       <defs>
        <path id="DejaVuSans-32" d="M 1228 531 
L 3431 531 
L 3431 0 
L 469 0 
L 469 531 
Q 828 903 1448 1529 
Q 2069 2156 2228 2338 
Q 2531 2678 2651 2914 
Q 2772 3150 2772 3378 
Q 2772 3750 2511 3984 
Q 2250 4219 1831 4219 
Q 1534 4219 1204 4116 
Q 875 4013 500 3803 
L 500 4441 
Q 881 4594 1212 4672 
Q 1544 4750 1819 4750 
Q 2544 4750 2975 4387 
Q 3406 4025 3406 3419 
Q 3406 3131 3298 2873 
Q 3191 2616 2906 2266 
Q 2828 2175 2409 1742 
Q 1991 1309 1228 531 
z
" transform="scale(0.015625)"/>
        <path id="DejaVuSans-35" d="M 691 4666 
L 3169 4666 
L 3169 4134 
L 1269 4134 
L 1269 2991 
Q 1406 3038 1543 3061 
Q 1681 3084 1819 3084 
Q 2600 3084 3056 2656 
Q 3513 2228 3513 1497 
Q 3513 744 3044 326 
Q 2575 -91 1722 -91 
Q 1428 -91 1123 -41 
Q 819 9 494 109 
L 494 744 
Q 775 591 1075 516 
Q 1375 441 1709 441 
Q 2250 441 2565 725 
Q 2881 1009 2881 1497 
Q 2881 1984 2565 2268 
Q 2250 2553 1709 2553 
Q 1456 2553 1204 2497 
Q 953 2441 691 2322 
L 691 4666 
z
" transform="scale(0.015625)"/>
       </defs>
       <use xlink:href="#DejaVuSans-30"/>
       <use xlink:href="#DejaVuSans-2e" x="63.623047"/>
       <use xlink:href="#DejaVuSans-32" x="95.410156"/>
       <use xlink:href="#DejaVuSans-35" x="159.033203"/>
      </g>
     </g>
    </g>
   </g>
   <g id="line2d_59">
    <path d="M 73.832727 153.672828 
L 90.919809 154.555123 
L 108.00689 156.664915 
L 125.093971 159.843504 
L 142.181053 163.941461 
L 159.268134 168.575609 
L 176.355215 172.9761 
L 193.442297 176.783776 
L 210.529378 180.133727 
L 227.616459 183.05936 
L 244.703541 185.47604 
L 261.790622 187.239555 
L 278.877703 188.312046 
L 295.964785 188.855855 
L 313.051866 189.092026 
L 330.138947 189.178256 
L 347.226029 189.199472 
L 364.31311 189.195531 
L 381.400191 189.183767 
L 398.487273 189.171471 
" clip-path="url(#p0dbc1fe26b)" style="fill: none; stroke: #1f77b4; stroke-width: 1.5; stroke-linecap: square"/>
   </g>
   <g id="line2d_60">
    <path d="M 73.832727 191.678928 
L 90.919809 192.774974 
L 108.00689 193.496408 
L 125.093971 193.89856 
L 142.181053 194.162817 
L 159.268134 194.395579 
L 176.355215 194.613956 
L 193.442297 194.80375 
L 210.529378 194.965242 
L 227.616459 195.102311 
L 244.703541 195.213816 
L 261.790622 195.294597 
L 278.877703 195.343444 
L 295.964785 195.367873 
L 313.051866 195.378082 
L 330.138947 195.381405 
L 347.226029 195.381817 
L 364.31311 195.381191 
L 381.400191 195.380345 
L 398.487273 195.379624 
" clip-path="url(#p0dbc1fe26b)" style="fill: none; stroke: #ff7f0e; stroke-width: 1.5; stroke-linecap: square"/>
   </g>
   <g id="line2d_61">
    <path d="M 73.832727 191.002215 
L 90.919809 192.166699 
L 108.00689 193.208847 
L 125.093971 193.799345 
L 142.181053 194.126538 
L 159.268134 194.376933 
L 176.355215 194.602834 
L 193.442297 194.7979 
L 210.529378 194.962585 
L 227.616459 195.101391 
L 244.703541 195.213857 
L 261.790622 195.29521 
L 278.877703 195.344414 
L 295.964785 195.369053 
L 313.051866 195.379371 
L 330.138947 195.382743 
L 347.226029 195.383172 
L 364.31311 195.382549 
L 381.400191 195.381698 
L 398.487273 195.380967 
" clip-path="url(#p0dbc1fe26b)" style="fill: none; stroke: #2ca02c; stroke-width: 1.5; stroke-linecap: square"/>
   </g>
   <g id="line2d_62">
    <path d="M 73.832727 190.380555 
L 90.919809 190.699421 
L 108.00689 191.522338 
L 125.093971 192.788077 
L 142.181053 193.757272 
L 159.268134 194.246991 
L 176.355215 194.540614 
L 193.442297 194.762798 
L 210.529378 194.942163 
L 227.616459 195.089359 
L 244.703541 195.206865 
L 261.790622 195.291361 
L 278.877703 195.342474 
L 295.964785 195.368171 
L 313.051866 195.379017 
L 330.138947 195.38263 
L 347.226029 195.38316 
L 364.31311 195.382573 
L 381.400191 195.381731 
L 398.487273 195.380999 
" clip-path="url(#p0dbc1fe26b)" style="fill: none; stroke: #d62728; stroke-width: 1.5; stroke-linecap: square"/>
   </g>
   <g id="line2d_63">
    <path d="M 73.832727 188.794242 
L 90.919809 188.946708 
L 108.00689 189.430037 
L 125.093971 190.608604 
L 142.181053 192.325769 
L 159.268134 193.525246 
L 176.355215 194.104448 
L 193.442297 194.444113 
L 210.529378 194.695366 
L 227.616459 194.896142 
L 244.703541 195.054719 
L 261.790622 195.168354 
L 278.877703 195.237151 
L 295.964785 195.27185 
L 313.051866 195.286558 
L 330.138947 195.291478 
L 347.226029 195.29219 
L 364.31311 195.29135 
L 381.400191 195.290125 
L 398.487273 195.289015 
" clip-path="url(#p0dbc1fe26b)" style="fill: none; stroke: #9467bd; stroke-width: 1.5; stroke-linecap: square"/>
   </g>
   <g id="line2d_64">
    <path d="M 73.832727 180.8189 
L 90.919809 181.121194 
L 108.00689 182.059977 
L 125.093971 184.390878 
L 142.181053 188.047095 
L 159.268134 190.78204 
L 176.355215 192.121166 
L 193.442297 192.893872 
L 210.529378 193.460521 
L 227.616459 193.913053 
L 244.703541 194.271059 
L 261.790622 194.528237 
L 278.877703 194.68435 
L 295.964785 194.763136 
L 313.051866 194.796238 
L 330.138947 194.806716 
L 347.226029 194.807278 
L 364.31311 194.804012 
L 381.400191 194.799622 
L 398.487273 194.795266 
" clip-path="url(#p0dbc1fe26b)" style="fill: none; stroke: #8c564b; stroke-width: 1.5; stroke-linecap: square"/>
   </g>
   <g id="line2d_65">
    <path d="M 73.832727 179.940105 
L 90.919809 180.262884 
L 108.00689 181.258299 
L 125.093971 183.709175 
L 142.181053 187.56598 
L 159.268134 190.474391 
L 176.355215 191.900977 
L 193.442297 192.722937 
L 210.529378 193.325276 
L 227.616459 193.806281 
L 244.703541 194.186864 
L 261.790622 194.460419 
L 278.877703 194.62681 
L 295.964785 194.71133 
L 313.051866 194.747599 
L 330.138947 194.7601 
L 347.226029 194.762315 
L 364.31311 194.760696 
L 381.400191 194.758108 
L 398.487273 194.755775 
" clip-path="url(#p0dbc1fe26b)" style="fill: none; stroke: #e377c2; stroke-width: 1.5; stroke-linecap: square"/>
   </g>
   <g id="line2d_66">
    <path d="M 73.832727 179.919473 
L 90.919809 180.246883 
L 108.00689 181.250958 
L 125.093971 183.6999 
L 142.181053 187.548915 
L 159.268134 190.463489 
L 176.355215 191.894314 
L 193.442297 192.718063 
L 210.529378 193.32149 
L 227.616459 193.803323 
L 244.703541 194.184553 
L 261.790622 194.458579 
L 278.877703 194.625276 
L 295.964785 194.709977 
L 313.051866 194.746359 
L 330.138947 194.758946 
L 347.226029 194.761239 
L 364.31311 194.759702 
L 381.400191 194.757202 
L 398.487273 194.754966 
" clip-path="url(#p0dbc1fe26b)" style="fill: none; stroke: #7f7f7f; stroke-width: 1.5; stroke-linecap: square"/>
   </g>
   <g id="line2d_67">
    <path d="M 73.832727 165.479826 
L 90.919809 169.008269 
L 108.00689 172.674336 
L 125.093971 176.660355 
L 142.181053 180.944811 
L 159.268134 184.860173 
L 176.355215 187.538655 
L 193.442297 189.336778 
L 210.529378 190.69759 
L 227.616459 191.776831 
L 244.703541 192.617274 
L 261.790622 193.215559 
L 278.877703 193.582299 
L 295.964785 193.77616 
L 313.051866 193.868603 
L 330.138947 193.910059 
L 347.226029 193.927781 
L 364.31311 193.934662 
L 381.400191 193.936385 
L 398.487273 193.935377 
" clip-path="url(#p0dbc1fe26b)" style="fill: none; stroke: #bcbd22; stroke-width: 1.5; stroke-linecap: square"/>
   </g>
   <g id="line2d_68">
    <path d="M 73.832727 154.656554 
L 90.919809 158.382621 
L 108.00689 162.551732 
L 125.093971 167.152584 
L 142.181053 172.108429 
L 159.268134 176.977527 
L 176.355215 180.927069 
L 193.442297 183.923621 
L 210.529378 186.326659 
L 227.616459 188.291137 
L 244.703541 189.848583 
L 261.790622 190.971211 
L 278.877703 191.666437 
L 295.964785 192.037622 
L 313.051866 192.217046 
L 330.138947 192.299405 
L 347.226029 192.336118 
L 364.31311 192.351543 
L 381.400191 192.356416 
L 398.487273 192.355314 
" clip-path="url(#p0dbc1fe26b)" style="fill: none; stroke: #17becf; stroke-width: 1.5; stroke-linecap: square"/>
   </g>
   <g id="line2d_69">
    <path d="M 73.832727 153.948606 
L 90.919809 155.944754 
L 108.00689 159.032762 
L 125.093971 162.995916 
L 142.181053 167.648996 
L 159.268134 172.546348 
L 176.355215 176.858471 
L 193.442297 180.355136 
L 210.529378 183.286402 
L 227.616459 185.759604 
L 244.703541 187.765468 
L 261.790622 189.233337 
L 278.877703 190.148384 
L 295.964785 190.63468 
L 313.051866 190.864869 
L 330.138947 190.965648 
L 347.226029 191.006576 
L 364.31311 191.020758 
L 381.400191 191.022792 
L 398.487273 191.018895 
" clip-path="url(#p0dbc1fe26b)" style="fill: none; stroke: #1f77b4; stroke-width: 1.5; stroke-linecap: square"/>
   </g>
   <g id="line2d_70">
    <path d="M 73.832727 153.776318 
L 90.919809 155.051022 
L 108.00689 157.541083 
L 125.093971 161.049132 
L 142.181053 165.397596 
L 159.268134 170.166863 
L 176.355215 174.552785 
L 193.442297 178.241884 
L 210.529378 181.419468 
L 227.616459 184.157034 
L 244.703541 186.412383 
L 261.790622 188.079806 
L 278.877703 189.122521 
L 295.964785 189.672532 
L 313.051866 189.92633 
L 330.138947 190.030935 
L 347.226029 190.06781 
L 364.31311 190.07593 
L 381.400191 190.072519 
L 398.487273 190.064922 
" clip-path="url(#p0dbc1fe26b)" style="fill: none; stroke: #ff7f0e; stroke-width: 1.5; stroke-linecap: square"/>
   </g>
   <g id="line2d_71">
    <path d="M 73.832727 153.683919 
L 90.919809 154.652061 
L 108.00689 156.847154 
L 125.093971 160.099649 
L 142.181053 164.251115 
L 159.268134 168.90748 
L 176.355215 173.290152 
L 193.442297 177.051151 
L 210.529378 180.341706 
L 227.616459 183.212333 
L 244.703541 185.600158 
L 261.790622 187.376478 
L 278.877703 188.488694 
L 295.964785 189.071416 
L 313.051866 189.334513 
L 330.138947 189.437064 
L 347.226029 189.46781 
L 364.31311 189.469389 
L 381.400191 189.460703 
L 398.487273 189.449833 
" clip-path="url(#p0dbc1fe26b)" style="fill: none; stroke: #2ca02c; stroke-width: 1.5; stroke-linecap: square"/>
   </g>
   <g id="patch_15">
    <path d="M 57.6 197.46869 
L 57.6 151.58731 
" style="fill: none; stroke: #000000; stroke-width: 0.8; stroke-linejoin: miter; stroke-linecap: square"/>
   </g>
   <g id="patch_16">
    <path d="M 414.72 197.46869 
L 414.72 151.58731 
" style="fill: none; stroke: #000000; stroke-width: 0.8; stroke-linejoin: miter; stroke-linecap: square"/>
   </g>
   <g id="patch_17">
    <path d="M 57.6 197.46869 
L 414.72 197.46869 
" style="fill: none; stroke: #000000; stroke-width: 0.8; stroke-linejoin: miter; stroke-linecap: square"/>
   </g>
   <g id="patch_18">
    <path d="M 57.6 151.58731 
L 414.72 151.58731 
" style="fill: none; stroke: #000000; stroke-width: 0.8; stroke-linejoin: miter; stroke-linecap: square"/>
   </g>
   <g id="text_13">
    <!-- yA - Container 1 -->
    <g transform="translate(187.48125 148.58731)scale(0.12 -0.12)">
     <defs>
      <path id="DejaVuSans-41" d="M 2188 4044 
L 1331 1722 
L 3047 1722 
L 2188 4044 
z
M 1831 4666 
L 2547 4666 
L 4325 0 
L 3669 0 
L 3244 1197 
L 1141 1197 
L 716 0 
L 50 0 
L 1831 4666 
z
" transform="scale(0.015625)"/>
     </defs>
     <use xlink:href="#DejaVuSans-79"/>
     <use xlink:href="#DejaVuSans-41" x="59.179688"/>
     <use xlink:href="#DejaVuSans-20" x="127.587891"/>
     <use xlink:href="#DejaVuSans-2d" x="159.375"/>
     <use xlink:href="#DejaVuSans-20" x="195.458984"/>
     <use xlink:href="#DejaVuSans-43" x="227.246094"/>
     <use xlink:href="#DejaVuSans-6f" x="297.070312"/>
     <use xlink:href="#DejaVuSans-6e" x="358.251953"/>
     <use xlink:href="#DejaVuSans-74" x="421.630859"/>
     <use xlink:href="#DejaVuSans-61" x="460.839844"/>
     <use xlink:href="#DejaVuSans-69" x="522.119141"/>
     <use xlink:href="#DejaVuSans-6e" x="549.902344"/>
     <use xlink:href="#DejaVuSans-65" x="613.28125"/>
     <use xlink:href="#DejaVuSans-72" x="674.804688"/>
     <use xlink:href="#DejaVuSans-20" x="715.917969"/>
     <use xlink:href="#DejaVuSans-31" x="747.705078"/>
    </g>
   </g>
  </g>
  <g id="axes_5">
   <g id="patch_19">
    <path d="M 57.6 252.526345 
L 414.72 252.526345 
L 414.72 206.644966 
L 57.6 206.644966 
z
" style="fill: #ffffff"/>
   </g>
   <g id="matplotlib.axis_9">
    <g id="xtick_25">
     <g id="line2d_72">
      <g>
       <use xlink:href="#m1336698fd8" x="73.832727" y="252.526345" style="stroke: #000000; stroke-width: 0.8"/>
      </g>
     </g>
    </g>
    <g id="xtick_26">
     <g id="line2d_73">
      <g>
       <use xlink:href="#m1336698fd8" x="116.550431" y="252.526345" style="stroke: #000000; stroke-width: 0.8"/>
      </g>
     </g>
    </g>
    <g id="xtick_27">
     <g id="line2d_74">
      <g>
       <use xlink:href="#m1336698fd8" x="159.268134" y="252.526345" style="stroke: #000000; stroke-width: 0.8"/>
      </g>
     </g>
    </g>
    <g id="xtick_28">
     <g id="line2d_75">
      <g>
       <use xlink:href="#m1336698fd8" x="201.985837" y="252.526345" style="stroke: #000000; stroke-width: 0.8"/>
      </g>
     </g>
    </g>
    <g id="xtick_29">
     <g id="line2d_76">
      <g>
       <use xlink:href="#m1336698fd8" x="244.703541" y="252.526345" style="stroke: #000000; stroke-width: 0.8"/>
      </g>
     </g>
    </g>
    <g id="xtick_30">
     <g id="line2d_77">
      <g>
       <use xlink:href="#m1336698fd8" x="287.421244" y="252.526345" style="stroke: #000000; stroke-width: 0.8"/>
      </g>
     </g>
    </g>
    <g id="xtick_31">
     <g id="line2d_78">
      <g>
       <use xlink:href="#m1336698fd8" x="330.138947" y="252.526345" style="stroke: #000000; stroke-width: 0.8"/>
      </g>
     </g>
    </g>
    <g id="xtick_32">
     <g id="line2d_79">
      <g>
       <use xlink:href="#m1336698fd8" x="372.856651" y="252.526345" style="stroke: #000000; stroke-width: 0.8"/>
      </g>
     </g>
    </g>
   </g>
   <g id="matplotlib.axis_10">
    <g id="ytick_9">
     <g id="line2d_80">
      <g>
       <use xlink:href="#mebfa7ba70d" x="57.6" y="247.905483" style="stroke: #000000; stroke-width: 0.8"/>
      </g>
     </g>
     <g id="text_14">
      <!-- 0.6 -->
      <g transform="translate(34.696875 251.704702)scale(0.1 -0.1)">
       <defs>
        <path id="DejaVuSans-36" d="M 2113 2584 
Q 1688 2584 1439 2293 
Q 1191 2003 1191 1497 
Q 1191 994 1439 701 
Q 1688 409 2113 409 
Q 2538 409 2786 701 
Q 3034 994 3034 1497 
Q 3034 2003 2786 2293 
Q 2538 2584 2113 2584 
z
M 3366 4563 
L 3366 3988 
Q 3128 4100 2886 4159 
Q 2644 4219 2406 4219 
Q 1781 4219 1451 3797 
Q 1122 3375 1075 2522 
Q 1259 2794 1537 2939 
Q 1816 3084 2150 3084 
Q 2853 3084 3261 2657 
Q 3669 2231 3669 1497 
Q 3669 778 3244 343 
Q 2819 -91 2113 -91 
Q 1303 -91 875 529 
Q 447 1150 447 2328 
Q 447 3434 972 4092 
Q 1497 4750 2381 4750 
Q 2619 4750 2861 4703 
Q 3103 4656 3366 4563 
z
" transform="scale(0.015625)"/>
       </defs>
       <use xlink:href="#DejaVuSans-30"/>
       <use xlink:href="#DejaVuSans-2e" x="63.623047"/>
       <use xlink:href="#DejaVuSans-36" x="95.410156"/>
      </g>
     </g>
    </g>
    <g id="ytick_10">
     <g id="line2d_81">
      <g>
       <use xlink:href="#mebfa7ba70d" x="57.6" y="225.181216" style="stroke: #000000; stroke-width: 0.8"/>
      </g>
     </g>
     <g id="text_15">
      <!-- 0.8 -->
      <g transform="translate(34.696875 228.980435)scale(0.1 -0.1)">
       <defs>
        <path id="DejaVuSans-38" d="M 2034 2216 
Q 1584 2216 1326 1975 
Q 1069 1734 1069 1313 
Q 1069 891 1326 650 
Q 1584 409 2034 409 
Q 2484 409 2743 651 
Q 3003 894 3003 1313 
Q 3003 1734 2745 1975 
Q 2488 2216 2034 2216 
z
M 1403 2484 
Q 997 2584 770 2862 
Q 544 3141 544 3541 
Q 544 4100 942 4425 
Q 1341 4750 2034 4750 
Q 2731 4750 3128 4425 
Q 3525 4100 3525 3541 
Q 3525 3141 3298 2862 
Q 3072 2584 2669 2484 
Q 3125 2378 3379 2068 
Q 3634 1759 3634 1313 
Q 3634 634 3220 271 
Q 2806 -91 2034 -91 
Q 1263 -91 848 271 
Q 434 634 434 1313 
Q 434 1759 690 2068 
Q 947 2378 1403 2484 
z
M 1172 3481 
Q 1172 3119 1398 2916 
Q 1625 2713 2034 2713 
Q 2441 2713 2670 2916 
Q 2900 3119 2900 3481 
Q 2900 3844 2670 4047 
Q 2441 4250 2034 4250 
Q 1625 4250 1398 4047 
Q 1172 3844 1172 3481 
z
" transform="scale(0.015625)"/>
       </defs>
       <use xlink:href="#DejaVuSans-30"/>
       <use xlink:href="#DejaVuSans-2e" x="63.623047"/>
       <use xlink:href="#DejaVuSans-38" x="95.410156"/>
      </g>
     </g>
    </g>
   </g>
   <g id="line2d_82">
    <path d="M 73.832727 250.440828 
L 90.919809 249.556504 
L 108.00689 247.442143 
L 125.093971 244.256763 
L 142.181053 240.150094 
L 159.268134 235.506108 
L 176.355215 231.096259 
L 193.442297 227.28046 
L 210.529378 223.923338 
L 227.616459 220.99142 
L 244.703541 218.569515 
L 261.790622 216.802143 
L 278.877703 215.727246 
L 295.964785 215.182152 
L 313.051866 214.945361 
L 330.138947 214.858853 
L 347.226029 214.837522 
L 364.31311 214.84143 
L 381.400191 214.853203 
L 398.487273 214.865535 
" clip-path="url(#p4a1e568df7)" style="fill: none; stroke: #1f77b4; stroke-width: 1.5; stroke-linecap: square"/>
   </g>
   <g id="line2d_83">
    <path d="M 73.832727 212.436606 
L 90.919809 211.33907 
L 108.00689 210.616873 
L 125.093971 210.214626 
L 142.181053 209.950658 
L 159.268134 209.718409 
L 176.355215 209.50076 
L 193.442297 209.311951 
L 210.529378 209.151749 
L 227.616459 209.016333 
L 244.703541 208.906932 
L 261.790622 208.82878 
L 278.877703 208.783122 
L 295.964785 208.762453 
L 313.051866 208.75664 
L 330.138947 208.758512 
L 347.226029 208.76443 
L 364.31311 208.773209 
L 381.400191 208.785654 
L 398.487273 208.804297 
" clip-path="url(#p4a1e568df7)" style="fill: none; stroke: #ff7f0e; stroke-width: 1.5; stroke-linecap: square"/>
   </g>
   <g id="line2d_84">
    <path d="M 73.832727 213.113683 
L 90.919809 211.947536 
L 108.00689 210.903891 
L 125.093971 210.31261 
L 142.181053 209.985107 
L 159.268134 209.734632 
L 176.355215 209.508846 
L 193.442297 209.314134 
L 210.529378 209.150086 
L 227.616459 209.012253 
L 244.703541 208.901174 
L 261.790622 208.821688 
L 278.877703 208.774846 
L 295.964785 208.753039 
L 313.051866 208.746019 
L 330.138947 208.746467 
L 347.226029 208.750524 
L 364.31311 208.756597 
L 381.400191 208.764479 
L 398.487273 208.774579 
" clip-path="url(#p4a1e568df7)" style="fill: none; stroke: #2ca02c; stroke-width: 1.5; stroke-linecap: square"/>
   </g>
   <g id="line2d_85">
    <path d="M 73.832727 213.736108 
L 90.919809 213.41675 
L 108.00689 212.592561 
L 125.093971 211.324867 
L 142.181053 210.354179 
L 159.268134 209.863716 
L 176.355215 209.569663 
L 193.442297 209.347178 
L 210.529378 209.167607 
L 227.616459 209.020309 
L 244.703541 208.902832 
L 261.790622 208.818546 
L 278.877703 208.767866 
L 295.964785 208.742845 
L 313.051866 208.73292 
L 330.138947 208.730483 
L 347.226029 208.731404 
L 364.31311 208.733756 
L 381.400191 208.736745 
L 398.487273 208.740082 
" clip-path="url(#p4a1e568df7)" style="fill: none; stroke: #d62728; stroke-width: 1.5; stroke-linecap: square"/>
   </g>
   <g id="line2d_86">
    <path d="M 73.832727 215.320332 
L 90.919809 215.167592 
L 108.00689 214.683405 
L 125.093971 213.502745 
L 142.181053 211.782428 
L 159.268134 210.580544 
L 176.355215 210.000024 
L 193.442297 209.659539 
L 210.529378 209.407687 
L 227.616459 209.206448 
L 244.703541 209.047523 
L 261.790622 208.933667 
L 278.877703 208.864785 
L 295.964785 208.830129 
L 313.051866 208.815569 
L 330.138947 208.810893 
L 347.226029 208.810516 
L 364.31311 208.811786 
L 381.400191 208.813546 
L 398.487273 208.815307 
" clip-path="url(#p4a1e568df7)" style="fill: none; stroke: #9467bd; stroke-width: 1.5; stroke-linecap: square"/>
   </g>
   <g id="line2d_87">
    <path d="M 73.832727 223.288753 
L 90.919809 222.985938 
L 108.00689 222.045558 
L 125.093971 219.710708 
L 142.181053 216.048207 
L 159.268134 213.308312 
L 176.355215 211.966511 
L 193.442297 211.192129 
L 210.529378 210.624215 
L 227.616459 210.170669 
L 244.703541 209.811858 
L 261.790622 209.554092 
L 278.877703 209.397613 
L 295.964785 209.318637 
L 313.051866 209.285468 
L 330.138947 209.275002 
L 347.226029 209.274507 
L 364.31311 209.277884 
L 381.400191 209.282426 
L 398.487273 209.286972 
" clip-path="url(#p4a1e568df7)" style="fill: none; stroke: #8c564b; stroke-width: 1.5; stroke-linecap: square"/>
   </g>
   <g id="line2d_88">
    <path d="M 73.832727 224.16722 
L 90.919809 223.843884 
L 108.00689 222.846773 
L 125.093971 220.39174 
L 142.181053 216.528329 
L 159.268134 213.614709 
L 176.355215 212.185318 
L 193.442297 211.361604 
L 210.529378 210.757942 
L 227.616459 210.275879 
L 244.703541 209.894461 
L 261.790622 209.620304 
L 278.877703 209.453543 
L 295.964785 209.368846 
L 313.051866 209.332528 
L 330.138947 209.320062 
L 347.226029 209.317942 
L 364.31311 209.319702 
L 381.400191 209.322475 
L 398.487273 209.325029 
" clip-path="url(#p4a1e568df7)" style="fill: none; stroke: #e377c2; stroke-width: 1.5; stroke-linecap: square"/>
   </g>
   <g id="line2d_89">
    <path d="M 73.832727 224.187826 
L 90.919809 223.85985 
L 108.00689 222.854057 
L 125.093971 220.400952 
L 142.181053 216.54535 
L 159.268134 213.625576 
L 176.355215 212.191946 
L 193.442297 211.366441 
L 210.529378 210.761689 
L 227.616459 210.278796 
L 244.703541 209.89673 
L 261.790622 209.622101 
L 278.877703 209.455036 
L 295.964785 209.370157 
L 313.051866 209.333727 
L 330.138947 209.321177 
L 347.226029 209.318981 
L 364.31311 209.320662 
L 381.400191 209.323349 
L 398.487273 209.325802 
" clip-path="url(#p4a1e568df7)" style="fill: none; stroke: #7f7f7f; stroke-width: 1.5; stroke-linecap: square"/>
   </g>
   <g id="line2d_90">
    <path d="M 73.832727 238.633561 
L 90.919809 235.098912 
L 108.00689 231.426377 
L 125.093971 227.433307 
L 142.181053 223.141259 
L 159.268134 219.21897 
L 176.355215 216.535791 
L 193.442297 214.734561 
L 210.529378 213.371435 
L 227.616459 212.290396 
L 244.703541 211.448593 
L 261.790622 210.849395 
L 278.877703 210.482168 
L 295.964785 210.288136 
L 313.051866 210.195707 
L 330.138947 210.154355 
L 347.226029 210.136775 
L 364.31311 210.130053 
L 381.400191 210.128492 
L 398.487273 210.129658 
" clip-path="url(#p4a1e568df7)" style="fill: none; stroke: #bcbd22; stroke-width: 1.5; stroke-linecap: square"/>
   </g>
   <g id="line2d_91">
    <path d="M 73.832727 249.465658 
L 90.919809 245.732399 
L 108.00689 241.55525 
L 125.093971 236.94553 
L 142.181053 231.980135 
L 159.268134 227.101658 
L 176.355215 223.14452 
L 193.442297 220.142221 
L 210.529378 217.734591 
L 227.616459 215.766378 
L 244.703541 214.205992 
L 261.790622 213.081276 
L 278.877703 212.384797 
L 295.964785 212.012991 
L 313.051866 211.833321 
L 330.138947 211.750905 
L 347.226029 211.714222 
L 364.31311 211.698867 
L 381.400191 211.694083 
L 398.487273 211.695281 
" clip-path="url(#p4a1e568df7)" style="fill: none; stroke: #17becf; stroke-width: 1.5; stroke-linecap: square"/>
   </g>
   <g id="line2d_92">
    <path d="M 73.832727 250.169613 
L 90.919809 248.169344 
L 108.00689 245.075047 
L 125.093971 241.103858 
L 142.181053 236.44136 
L 159.268134 231.534101 
L 176.355215 227.213251 
L 193.442297 223.709506 
L 210.529378 220.772303 
L 227.616459 218.294093 
L 244.703541 216.284167 
L 261.790622 214.813326 
L 278.877703 213.896428 
L 295.964785 213.409154 
L 313.051866 213.178513 
L 330.138947 213.077553 
L 347.226029 213.036575 
L 364.31311 213.022406 
L 381.400191 213.020416 
L 398.487273 213.024377 
" clip-path="url(#p4a1e568df7)" style="fill: none; stroke: #1f77b4; stroke-width: 1.5; stroke-linecap: square"/>
   </g>
   <g id="line2d_93">
    <path d="M 73.832727 250.339293 
L 90.919809 249.061815 
L 108.00689 246.566508 
L 125.093971 243.051133 
L 142.181053 238.693619 
L 159.268134 233.914436 
L 176.355215 229.519384 
L 193.442297 225.822589 
L 210.529378 222.638363 
L 227.616459 219.895063 
L 244.703541 217.634974 
L 261.790622 215.964026 
L 278.877703 214.919078 
L 295.964785 214.367861 
L 313.051866 214.113481 
L 330.138947 214.008622 
L 347.226029 213.97165 
L 364.31311 213.963512 
L 381.400191 213.966945 
L 398.487273 213.97459 
" clip-path="url(#p4a1e568df7)" style="fill: none; stroke: #ff7f0e; stroke-width: 1.5; stroke-linecap: square"/>
   </g>
   <g id="line2d_94">
    <path d="M 73.832727 250.43024 
L 90.919809 249.459905 
L 108.00689 247.260091 
L 125.093971 244.000685 
L 142.181053 239.840439 
L 159.268134 235.174237 
L 176.355215 230.782293 
L 193.442297 227.013313 
L 210.529378 223.715754 
L 227.616459 220.838997 
L 244.703541 218.446047 
L 261.790622 216.665878 
L 278.877703 215.551204 
L 295.964785 214.967139 
L 313.051866 214.703387 
L 330.138947 214.600539 
L 347.226029 214.569671 
L 364.31311 214.568057 
L 381.400191 214.576754 
L 398.487273 214.587662 
" clip-path="url(#p4a1e568df7)" style="fill: none; stroke: #2ca02c; stroke-width: 1.5; stroke-linecap: square"/>
   </g>
   <g id="patch_20">
    <path d="M 57.6 252.526345 
L 57.6 206.644966 
" style="fill: none; stroke: #000000; stroke-width: 0.8; stroke-linejoin: miter; stroke-linecap: square"/>
   </g>
   <g id="patch_21">
    <path d="M 414.72 252.526345 
L 414.72 206.644966 
" style="fill: none; stroke: #000000; stroke-width: 0.8; stroke-linejoin: miter; stroke-linecap: square"/>
   </g>
   <g id="patch_22">
    <path d="M 57.6 252.526345 
L 414.72 252.526345 
" style="fill: none; stroke: #000000; stroke-width: 0.8; stroke-linejoin: miter; stroke-linecap: square"/>
   </g>
   <g id="patch_23">
    <path d="M 57.6 206.644966 
L 414.72 206.644966 
" style="fill: none; stroke: #000000; stroke-width: 0.8; stroke-linejoin: miter; stroke-linecap: square"/>
   </g>
   <g id="text_16">
    <!-- yB - Container 1 -->
    <g transform="translate(187.469063 203.644966)scale(0.12 -0.12)">
     <defs>
      <path id="DejaVuSans-42" d="M 1259 2228 
L 1259 519 
L 2272 519 
Q 2781 519 3026 730 
Q 3272 941 3272 1375 
Q 3272 1813 3026 2020 
Q 2781 2228 2272 2228 
L 1259 2228 
z
M 1259 4147 
L 1259 2741 
L 2194 2741 
Q 2656 2741 2882 2914 
Q 3109 3088 3109 3444 
Q 3109 3797 2882 3972 
Q 2656 4147 2194 4147 
L 1259 4147 
z
M 628 4666 
L 2241 4666 
Q 2963 4666 3353 4366 
Q 3744 4066 3744 3513 
Q 3744 3084 3544 2831 
Q 3344 2578 2956 2516 
Q 3422 2416 3680 2098 
Q 3938 1781 3938 1306 
Q 3938 681 3513 340 
Q 3088 0 2303 0 
L 628 0 
L 628 4666 
z
" transform="scale(0.015625)"/>
     </defs>
     <use xlink:href="#DejaVuSans-79"/>
     <use xlink:href="#DejaVuSans-42" x="59.179688"/>
     <use xlink:href="#DejaVuSans-20" x="127.783203"/>
     <use xlink:href="#DejaVuSans-2d" x="159.570312"/>
     <use xlink:href="#DejaVuSans-20" x="195.654297"/>
     <use xlink:href="#DejaVuSans-43" x="227.441406"/>
     <use xlink:href="#DejaVuSans-6f" x="297.265625"/>
     <use xlink:href="#DejaVuSans-6e" x="358.447266"/>
     <use xlink:href="#DejaVuSans-74" x="421.826172"/>
     <use xlink:href="#DejaVuSans-61" x="461.035156"/>
     <use xlink:href="#DejaVuSans-69" x="522.314453"/>
     <use xlink:href="#DejaVuSans-6e" x="550.097656"/>
     <use xlink:href="#DejaVuSans-65" x="613.476562"/>
     <use xlink:href="#DejaVuSans-72" x="675"/>
     <use xlink:href="#DejaVuSans-20" x="716.113281"/>
     <use xlink:href="#DejaVuSans-31" x="747.900391"/>
    </g>
   </g>
  </g>
  <g id="axes_6">
   <g id="patch_24">
    <path d="M 57.6 307.584 
L 414.72 307.584 
L 414.72 261.702621 
L 57.6 261.702621 
z
" style="fill: #ffffff"/>
   </g>
   <g id="matplotlib.axis_11">
    <g id="xtick_33">
     <g id="line2d_95">
      <g>
       <use xlink:href="#m1336698fd8" x="73.832727" y="307.584" style="stroke: #000000; stroke-width: 0.8"/>
      </g>
     </g>
     <g id="text_17">
      <!-- 0.0 -->
      <g transform="translate(65.881165 322.182437)scale(0.1 -0.1)">
       <use xlink:href="#DejaVuSans-30"/>
       <use xlink:href="#DejaVuSans-2e" x="63.623047"/>
       <use xlink:href="#DejaVuSans-30" x="95.410156"/>
      </g>
     </g>
    </g>
    <g id="xtick_34">
     <g id="line2d_96">
      <g>
       <use xlink:href="#m1336698fd8" x="116.550431" y="307.584" style="stroke: #000000; stroke-width: 0.8"/>
      </g>
     </g>
     <g id="text_18">
      <!-- 2.5 -->
      <g transform="translate(108.598868 322.182437)scale(0.1 -0.1)">
       <use xlink:href="#DejaVuSans-32"/>
       <use xlink:href="#DejaVuSans-2e" x="63.623047"/>
       <use xlink:href="#DejaVuSans-35" x="95.410156"/>
      </g>
     </g>
    </g>
    <g id="xtick_35">
     <g id="line2d_97">
      <g>
       <use xlink:href="#m1336698fd8" x="159.268134" y="307.584" style="stroke: #000000; stroke-width: 0.8"/>
      </g>
     </g>
     <g id="text_19">
      <!-- 5.0 -->
      <g transform="translate(151.316571 322.182437)scale(0.1 -0.1)">
       <use xlink:href="#DejaVuSans-35"/>
       <use xlink:href="#DejaVuSans-2e" x="63.623047"/>
       <use xlink:href="#DejaVuSans-30" x="95.410156"/>
      </g>
     </g>
    </g>
    <g id="xtick_36">
     <g id="line2d_98">
      <g>
       <use xlink:href="#m1336698fd8" x="201.985837" y="307.584" style="stroke: #000000; stroke-width: 0.8"/>
      </g>
     </g>
     <g id="text_20">
      <!-- 7.5 -->
      <g transform="translate(194.034275 322.182437)scale(0.1 -0.1)">
       <defs>
        <path id="DejaVuSans-37" d="M 525 4666 
L 3525 4666 
L 3525 4397 
L 1831 0 
L 1172 0 
L 2766 4134 
L 525 4134 
L 525 4666 
z
" transform="scale(0.015625)"/>
       </defs>
       <use xlink:href="#DejaVuSans-37"/>
       <use xlink:href="#DejaVuSans-2e" x="63.623047"/>
       <use xlink:href="#DejaVuSans-35" x="95.410156"/>
      </g>
     </g>
    </g>
    <g id="xtick_37">
     <g id="line2d_99">
      <g>
       <use xlink:href="#m1336698fd8" x="244.703541" y="307.584" style="stroke: #000000; stroke-width: 0.8"/>
      </g>
     </g>
     <g id="text_21">
      <!-- 10.0 -->
      <g transform="translate(233.570728 322.182437)scale(0.1 -0.1)">
       <use xlink:href="#DejaVuSans-31"/>
       <use xlink:href="#DejaVuSans-30" x="63.623047"/>
       <use xlink:href="#DejaVuSans-2e" x="127.246094"/>
       <use xlink:href="#DejaVuSans-30" x="159.033203"/>
      </g>
     </g>
    </g>
    <g id="xtick_38">
     <g id="line2d_100">
      <g>
       <use xlink:href="#m1336698fd8" x="287.421244" y="307.584" style="stroke: #000000; stroke-width: 0.8"/>
      </g>
     </g>
     <g id="text_22">
      <!-- 12.5 -->
      <g transform="translate(276.288432 322.182437)scale(0.1 -0.1)">
       <use xlink:href="#DejaVuSans-31"/>
       <use xlink:href="#DejaVuSans-32" x="63.623047"/>
       <use xlink:href="#DejaVuSans-2e" x="127.246094"/>
       <use xlink:href="#DejaVuSans-35" x="159.033203"/>
      </g>
     </g>
    </g>
    <g id="xtick_39">
     <g id="line2d_101">
      <g>
       <use xlink:href="#m1336698fd8" x="330.138947" y="307.584" style="stroke: #000000; stroke-width: 0.8"/>
      </g>
     </g>
     <g id="text_23">
      <!-- 15.0 -->
      <g transform="translate(319.006135 322.182437)scale(0.1 -0.1)">
       <use xlink:href="#DejaVuSans-31"/>
       <use xlink:href="#DejaVuSans-35" x="63.623047"/>
       <use xlink:href="#DejaVuSans-2e" x="127.246094"/>
       <use xlink:href="#DejaVuSans-30" x="159.033203"/>
      </g>
     </g>
    </g>
    <g id="xtick_40">
     <g id="line2d_102">
      <g>
       <use xlink:href="#m1336698fd8" x="372.856651" y="307.584" style="stroke: #000000; stroke-width: 0.8"/>
      </g>
     </g>
     <g id="text_24">
      <!-- 17.5 -->
      <g transform="translate(361.723838 322.182437)scale(0.1 -0.1)">
       <use xlink:href="#DejaVuSans-31"/>
       <use xlink:href="#DejaVuSans-37" x="63.623047"/>
       <use xlink:href="#DejaVuSans-2e" x="127.246094"/>
       <use xlink:href="#DejaVuSans-35" x="159.033203"/>
      </g>
     </g>
    </g>
    <g id="text_25">
     <!-- position z -->
     <g transform="translate(212.142031 335.860562)scale(0.1 -0.1)">
      <defs>
       <path id="DejaVuSans-70" d="M 1159 525 
L 1159 -1331 
L 581 -1331 
L 581 3500 
L 1159 3500 
L 1159 2969 
Q 1341 3281 1617 3432 
Q 1894 3584 2278 3584 
Q 2916 3584 3314 3078 
Q 3713 2572 3713 1747 
Q 3713 922 3314 415 
Q 2916 -91 2278 -91 
Q 1894 -91 1617 61 
Q 1341 213 1159 525 
z
M 3116 1747 
Q 3116 2381 2855 2742 
Q 2594 3103 2138 3103 
Q 1681 3103 1420 2742 
Q 1159 2381 1159 1747 
Q 1159 1113 1420 752 
Q 1681 391 2138 391 
Q 2594 391 2855 752 
Q 3116 1113 3116 1747 
z
" transform="scale(0.015625)"/>
      </defs>
      <use xlink:href="#DejaVuSans-70"/>
      <use xlink:href="#DejaVuSans-6f" x="63.476562"/>
      <use xlink:href="#DejaVuSans-73" x="124.658203"/>
      <use xlink:href="#DejaVuSans-69" x="176.757812"/>
      <use xlink:href="#DejaVuSans-74" x="204.541016"/>
      <use xlink:href="#DejaVuSans-69" x="243.75"/>
      <use xlink:href="#DejaVuSans-6f" x="271.533203"/>
      <use xlink:href="#DejaVuSans-6e" x="332.714844"/>
      <use xlink:href="#DejaVuSans-20" x="396.09375"/>
      <use xlink:href="#DejaVuSans-7a" x="427.880859"/>
     </g>
    </g>
   </g>
   <g id="matplotlib.axis_12">
    <g id="ytick_11">
     <g id="line2d_103">
      <g>
       <use xlink:href="#mebfa7ba70d" x="57.6" y="289.257158" style="stroke: #000000; stroke-width: 0.8"/>
      </g>
     </g>
     <g id="text_26">
      <!-- 0.04 -->
      <g transform="translate(28.334375 293.056377)scale(0.1 -0.1)">
       <defs>
        <path id="DejaVuSans-34" d="M 2419 4116 
L 825 1625 
L 2419 1625 
L 2419 4116 
z
M 2253 4666 
L 3047 4666 
L 3047 1625 
L 3713 1625 
L 3713 1100 
L 3047 1100 
L 3047 0 
L 2419 0 
L 2419 1100 
L 313 1100 
L 313 1709 
L 2253 4666 
z
" transform="scale(0.015625)"/>
       </defs>
       <use xlink:href="#DejaVuSans-30"/>
       <use xlink:href="#DejaVuSans-2e" x="63.623047"/>
       <use xlink:href="#DejaVuSans-30" x="95.410156"/>
       <use xlink:href="#DejaVuSans-34" x="159.033203"/>
      </g>
     </g>
    </g>
    <g id="ytick_12">
     <g id="line2d_104">
      <g>
       <use xlink:href="#mebfa7ba70d" x="57.6" y="269.869698" style="stroke: #000000; stroke-width: 0.8"/>
      </g>
     </g>
     <g id="text_27">
      <!-- 0.05 -->
      <g transform="translate(28.334375 273.668916)scale(0.1 -0.1)">
       <use xlink:href="#DejaVuSans-30"/>
       <use xlink:href="#DejaVuSans-2e" x="63.623047"/>
       <use xlink:href="#DejaVuSans-30" x="95.410156"/>
       <use xlink:href="#DejaVuSans-35" x="159.033203"/>
      </g>
     </g>
    </g>
   </g>
   <g id="line2d_105">
    <path d="M 73.832727 305.498483 
L 90.919809 304.676067 
L 108.00689 302.704703 
L 125.093971 299.733083 
L 142.181053 295.901211 
L 159.268134 291.567744 
L 176.355215 287.453029 
L 193.442297 283.893079 
L 210.529378 280.761472 
L 227.616459 278.026941 
L 244.703541 275.768658 
L 261.790622 274.12151 
L 278.877703 273.120809 
L 295.964785 272.614514 
L 313.051866 272.395674 
L 330.138947 272.316669 
L 347.226029 272.298013 
L 364.31311 272.302416 
L 381.400191 272.313675 
L 398.487273 272.325008 
" clip-path="url(#pef90cbfd8f)" style="fill: none; stroke: #1f77b4; stroke-width: 1.5; stroke-linecap: square"/>
   </g>
   <g id="line2d_106">
    <path d="M 73.832727 268.549448 
L 90.919809 267.510244 
L 108.00689 266.822524 
L 125.093971 266.433523 
L 142.181053 266.171918 
L 159.268134 265.937084 
L 176.355215 265.712568 
L 193.442297 265.511386 
L 210.529378 265.332536 
L 227.616459 265.171185 
L 244.703541 265.026986 
L 261.790622 264.903652 
L 278.877703 264.801803 
L 295.964785 264.713894 
L 313.051866 264.628955 
L 330.138947 264.537068 
L 347.226029 264.428663 
L 364.31311 264.29016 
L 381.400191 264.093133 
L 398.487273 263.788138 
" clip-path="url(#pef90cbfd8f)" style="fill: none; stroke: #ff7f0e; stroke-width: 1.5; stroke-linecap: square"/>
   </g>
   <g id="line2d_107">
    <path d="M 73.832727 269.200581 
L 90.919809 268.097831 
L 108.00689 267.1111 
L 125.093971 266.550875 
L 142.181053 266.238374 
L 159.268134 265.996512 
L 176.355215 265.775126 
L 193.442297 265.579593 
L 210.529378 265.408761 
L 227.616459 265.257321 
L 244.703541 265.124414 
L 261.790622 265.013537 
L 278.877703 264.92545 
L 295.964785 264.853192 
L 313.051866 264.786886 
L 330.138947 264.718425 
L 347.226029 264.641465 
L 364.31311 264.549091 
L 381.400191 264.429945 
L 398.487273 264.270773 
" clip-path="url(#pef90cbfd8f)" style="fill: none; stroke: #2ca02c; stroke-width: 1.5; stroke-linecap: square"/>
   </g>
   <g id="line2d_108">
    <path d="M 73.832727 269.791373 
L 90.919809 269.490034 
L 108.00689 268.7124 
L 125.093971 267.516307 
L 142.181053 266.600357 
L 159.268134 266.137366 
L 176.355215 265.859493 
L 193.442297 265.648822 
L 210.529378 265.478093 
L 227.616459 265.336874 
L 244.703541 265.222241 
L 261.790622 265.136578 
L 278.877703 265.079525 
L 295.964785 265.043047 
L 313.051866 265.016798 
L 330.138947 264.993228 
L 347.226029 264.967951 
L 364.31311 264.938404 
L 381.400191 264.90258 
L 398.487273 264.858851 
" clip-path="url(#pef90cbfd8f)" style="fill: none; stroke: #d62728; stroke-width: 1.5; stroke-linecap: square"/>
   </g>
   <g id="line2d_109">
    <path d="M 73.832727 271.367862 
L 90.919809 271.224449 
L 108.00689 270.769613 
L 125.093971 269.660532 
L 142.181053 268.046358 
L 159.268134 266.922335 
L 176.355215 266.382215 
L 193.442297 266.066271 
L 210.529378 265.832444 
L 227.616459 265.645326 
L 244.703541 265.497221 
L 261.790622 265.390615 
L 278.877703 265.32523 
L 295.964785 265.29081 
L 313.051866 265.273979 
L 330.138947 265.265047 
L 347.226029 265.258648 
L 364.31311 265.252129 
L 381.400191 265.244178 
L 398.487273 265.234155 
" clip-path="url(#pef90cbfd8f)" style="fill: none; stroke: #9467bd; stroke-width: 1.5; stroke-linecap: square"/>
   </g>
   <g id="line2d_110">
    <path d="M 73.832727 279.232758 
L 90.919809 278.948022 
L 108.00689 278.063381 
L 125.093971 275.866668 
L 142.181053 272.422456 
L 159.268134 269.850338 
L 176.355215 268.595233 
L 193.442297 267.873276 
L 210.529378 267.344443 
L 227.616459 266.922193 
L 244.703541 266.588185 
L 261.790622 266.34839 
L 278.877703 266.203017 
L 295.964785 266.129709 
L 313.051866 266.098702 
L 330.138947 266.088321 
L 347.226029 266.086631 
L 364.31311 266.087905 
L 381.400191 266.089587 
L 398.487273 266.09057 
" clip-path="url(#pef90cbfd8f)" style="fill: none; stroke: #8c564b; stroke-width: 1.5; stroke-linecap: square"/>
   </g>
   <g id="line2d_111">
    <path d="M 73.832727 280.091969 
L 90.919809 279.787936 
L 108.00689 278.849993 
L 125.093971 276.540283 
L 142.181053 272.906721 
L 159.268134 270.17053 
L 176.355215 268.832693 
L 193.442297 268.064224 
L 210.529378 267.501709 
L 227.616459 267.052549 
L 244.703541 266.697127 
L 261.790622 266.441693 
L 278.877703 266.286357 
L 295.964785 266.207306 
L 313.051866 266.17291 
L 330.138947 266.160159 
L 347.226029 266.156391 
L 364.31311 266.155542 
L 381.400191 266.154909 
L 398.487273 266.153406 
" clip-path="url(#pef90cbfd8f)" style="fill: none; stroke: #e377c2; stroke-width: 1.5; stroke-linecap: square"/>
   </g>
   <g id="line2d_112">
    <path d="M 73.832727 280.112437 
L 90.919809 279.804083 
L 108.00689 278.858101 
L 125.093971 276.550358 
L 142.181053 272.924046 
L 159.268134 270.181732 
L 176.355215 268.839758 
L 193.442297 268.069589 
L 210.529378 267.506059 
L 227.616459 267.056125 
L 244.703541 266.70009 
L 261.790622 266.4442 
L 278.877703 266.288562 
L 295.964785 266.20932 
L 313.051866 266.174793 
L 330.138947 266.161932 
L 347.226029 266.158056 
L 364.31311 266.157092 
L 381.400191 266.156339 
L 398.487273 266.154816 
" clip-path="url(#pef90cbfd8f)" style="fill: none; stroke: #7f7f7f; stroke-width: 1.5; stroke-linecap: square"/>
   </g>
   <g id="line2d_113">
    <path d="M 73.832727 294.034416 
L 90.919809 290.71298 
L 108.00689 287.262339 
L 125.093971 283.510875 
L 142.181053 279.478732 
L 159.268134 275.793766 
L 176.355215 273.272197 
L 193.442297 271.57862 
L 210.529378 270.296276 
L 227.616459 269.278654 
L 244.703541 268.485496 
L 261.790622 267.919943 
L 278.877703 267.572025 
L 295.964785 267.38662 
L 313.051866 267.296589 
L 330.138947 267.25455 
L 347.226029 267.234898 
L 364.31311 267.225518 
L 381.400191 267.221078 
L 398.487273 267.219371 
" clip-path="url(#pef90cbfd8f)" style="fill: none; stroke: #bcbd22; stroke-width: 1.5; stroke-linecap: square"/>
   </g>
   <g id="line2d_114">
    <path d="M 73.832727 304.396943 
L 90.919809 300.900372 
L 108.00689 296.987894 
L 125.093971 292.670196 
L 142.181053 288.019327 
L 159.268134 283.449801 
L 176.355215 279.743061 
L 193.442297 276.930445 
L 210.529378 274.674622 
L 227.616459 272.830176 
L 244.703541 271.36751 
L 261.790622 270.312693 
L 278.877703 269.65878 
L 295.964785 269.308821 
L 313.051866 269.138742 
L 330.138947 269.059723 
L 347.226029 269.02354 
L 364.31311 269.007352 
L 381.400191 269.001106 
L 398.487273 269.000545 
" clip-path="url(#pef90cbfd8f)" style="fill: none; stroke: #17becf; stroke-width: 1.5; stroke-linecap: square"/>
   </g>
   <g id="line2d_115">
    <path d="M 73.832727 305.152736 
L 90.919809 303.284099 
L 108.00689 300.391901 
L 125.093971 296.679438 
L 142.181053 292.320396 
L 159.268134 287.73243 
L 176.355215 283.692779 
L 193.442297 280.417136 
L 210.529378 277.671175 
L 227.616459 275.354315 
L 244.703541 273.475239 
L 261.790622 272.100139 
L 278.877703 271.242893 
L 295.964785 270.787223 
L 313.051866 270.571347 
L 330.138947 270.476545 
L 347.226029 270.437653 
L 364.31311 270.423662 
L 381.400191 270.420914 
L 398.487273 270.423618 
" clip-path="url(#pef90cbfd8f)" style="fill: none; stroke: #1f77b4; stroke-width: 1.5; stroke-linecap: square"/>
   </g>
   <g id="line2d_116">
    <path d="M 73.832727 305.364598 
L 90.919809 304.173758 
L 108.00689 301.844568 
L 125.093971 298.562047 
L 142.181053 294.492613 
L 159.268134 290.029228 
L 176.355215 285.924776 
L 193.442297 282.47271 
L 210.529378 279.499518 
L 227.616459 276.938251 
L 244.703541 274.828405 
L 261.790622 273.268926 
L 278.877703 272.294192 
L 295.964785 271.780533 
L 313.051866 271.543915 
L 330.138947 271.446658 
L 347.226029 271.412484 
L 364.31311 271.404915 
L 381.400191 271.407839 
L 398.487273 271.414417 
" clip-path="url(#pef90cbfd8f)" style="fill: none; stroke: #ff7f0e; stroke-width: 1.5; stroke-linecap: square"/>
   </g>
   <g id="line2d_117">
    <path d="M 73.832727 305.479125 
L 90.919809 304.576128 
L 108.00689 302.524504 
L 125.093971 299.483133 
L 142.181053 295.600458 
L 159.268134 291.245377 
L 176.355215 287.146519 
L 193.442297 283.629485 
L 210.529378 280.552727 
L 227.616459 277.868961 
L 244.703541 275.637008 
L 261.790622 273.977272 
L 278.877703 272.938889 
L 295.964785 272.395766 
L 313.051866 272.151398 
L 330.138947 272.056851 
L 347.226029 272.029059 
L 364.31311 272.028126 
L 381.400191 272.036376 
L 398.487273 272.046286 
" clip-path="url(#pef90cbfd8f)" style="fill: none; stroke: #2ca02c; stroke-width: 1.5; stroke-linecap: square"/>
   </g>
   <g id="patch_25">
    <path d="M 57.6 307.584 
L 57.6 261.702621 
" style="fill: none; stroke: #000000; stroke-width: 0.8; stroke-linejoin: miter; stroke-linecap: square"/>
   </g>
   <g id="patch_26">
    <path d="M 414.72 307.584 
L 414.72 261.702621 
" style="fill: none; stroke: #000000; stroke-width: 0.8; stroke-linejoin: miter; stroke-linecap: square"/>
   </g>
   <g id="patch_27">
    <path d="M 57.6 307.584 
L 414.72 307.584 
" style="fill: none; stroke: #000000; stroke-width: 0.8; stroke-linejoin: miter; stroke-linecap: square"/>
   </g>
   <g id="patch_28">
    <path d="M 57.6 261.702621 
L 414.72 261.702621 
" style="fill: none; stroke: #000000; stroke-width: 0.8; stroke-linejoin: miter; stroke-linecap: square"/>
   </g>
   <g id="text_28">
    <!-- yC - Container 1 -->
    <g transform="translate(187.395938 258.702621)scale(0.12 -0.12)">
     <use xlink:href="#DejaVuSans-79"/>
     <use xlink:href="#DejaVuSans-43" x="59.179688"/>
     <use xlink:href="#DejaVuSans-20" x="129.003906"/>
     <use xlink:href="#DejaVuSans-2d" x="160.791016"/>
     <use xlink:href="#DejaVuSans-20" x="196.875"/>
     <use xlink:href="#DejaVuSans-43" x="228.662109"/>
     <use xlink:href="#DejaVuSans-6f" x="298.486328"/>
     <use xlink:href="#DejaVuSans-6e" x="359.667969"/>
     <use xlink:href="#DejaVuSans-74" x="423.046875"/>
     <use xlink:href="#DejaVuSans-61" x="462.255859"/>
     <use xlink:href="#DejaVuSans-69" x="523.535156"/>
     <use xlink:href="#DejaVuSans-6e" x="551.318359"/>
     <use xlink:href="#DejaVuSans-65" x="614.697266"/>
     <use xlink:href="#DejaVuSans-72" x="676.220703"/>
     <use xlink:href="#DejaVuSans-20" x="717.333984"/>
     <use xlink:href="#DejaVuSans-31" x="749.121094"/>
    </g>
   </g>
  </g>
  <g id="legend_1">
   <g id="patch_29">
    <path d="M 372.146875 269.707812 
L 457.8 269.707812 
Q 459.8 269.707812 459.8 267.707812 
L 459.8 77.892187 
Q 459.8 75.892187 457.8 75.892187 
L 372.146875 75.892187 
Q 370.146875 75.892187 370.146875 77.892187 
L 370.146875 267.707812 
Q 370.146875 269.707812 372.146875 269.707812 
z
" style="fill: #ffffff; opacity: 0.8; stroke: #cccccc; stroke-linejoin: miter"/>
   </g>
   <g id="line2d_118">
    <path d="M 374.146875 83.990625 
L 384.146875 83.990625 
L 394.146875 83.990625 
" style="fill: none; stroke: #1f77b4; stroke-width: 1.5; stroke-linecap: square"/>
   </g>
   <g id="text_29">
    <!-- t=0.0000 -->
    <g transform="translate(402.146875 87.490625)scale(0.1 -0.1)">
     <defs>
      <path id="DejaVuSans-3d" d="M 678 2906 
L 4684 2906 
L 4684 2381 
L 678 2381 
L 678 2906 
z
M 678 1631 
L 4684 1631 
L 4684 1100 
L 678 1100 
L 678 1631 
z
" transform="scale(0.015625)"/>
     </defs>
     <use xlink:href="#DejaVuSans-74"/>
     <use xlink:href="#DejaVuSans-3d" x="39.208984"/>
     <use xlink:href="#DejaVuSans-30" x="122.998047"/>
     <use xlink:href="#DejaVuSans-2e" x="186.621094"/>
     <use xlink:href="#DejaVuSans-30" x="218.408203"/>
     <use xlink:href="#DejaVuSans-30" x="282.03125"/>
     <use xlink:href="#DejaVuSans-30" x="345.654297"/>
     <use xlink:href="#DejaVuSans-30" x="409.277344"/>
    </g>
   </g>
   <g id="line2d_119">
    <path d="M 374.146875 98.66875 
L 384.146875 98.66875 
L 394.146875 98.66875 
" style="fill: none; stroke: #ff7f0e; stroke-width: 1.5; stroke-linecap: square"/>
   </g>
   <g id="text_30">
    <!-- t=8.0000 -->
    <g transform="translate(402.146875 102.16875)scale(0.1 -0.1)">
     <use xlink:href="#DejaVuSans-74"/>
     <use xlink:href="#DejaVuSans-3d" x="39.208984"/>
     <use xlink:href="#DejaVuSans-38" x="122.998047"/>
     <use xlink:href="#DejaVuSans-2e" x="186.621094"/>
     <use xlink:href="#DejaVuSans-30" x="218.408203"/>
     <use xlink:href="#DejaVuSans-30" x="282.03125"/>
     <use xlink:href="#DejaVuSans-30" x="345.654297"/>
     <use xlink:href="#DejaVuSans-30" x="409.277344"/>
    </g>
   </g>
   <g id="line2d_120">
    <path d="M 374.146875 113.346875 
L 384.146875 113.346875 
L 394.146875 113.346875 
" style="fill: none; stroke: #2ca02c; stroke-width: 1.5; stroke-linecap: square"/>
   </g>
   <g id="text_31">
    <!-- t=16.0000 -->
    <g transform="translate(402.146875 116.846875)scale(0.1 -0.1)">
     <use xlink:href="#DejaVuSans-74"/>
     <use xlink:href="#DejaVuSans-3d" x="39.208984"/>
     <use xlink:href="#DejaVuSans-31" x="122.998047"/>
     <use xlink:href="#DejaVuSans-36" x="186.621094"/>
     <use xlink:href="#DejaVuSans-2e" x="250.244141"/>
     <use xlink:href="#DejaVuSans-30" x="282.03125"/>
     <use xlink:href="#DejaVuSans-30" x="345.654297"/>
     <use xlink:href="#DejaVuSans-30" x="409.277344"/>
     <use xlink:href="#DejaVuSans-30" x="472.900391"/>
    </g>
   </g>
   <g id="line2d_121">
    <path d="M 374.146875 128.025 
L 384.146875 128.025 
L 394.146875 128.025 
" style="fill: none; stroke: #d62728; stroke-width: 1.5; stroke-linecap: square"/>
   </g>
   <g id="text_32">
    <!-- t=24.0000 -->
    <g transform="translate(402.146875 131.525)scale(0.1 -0.1)">
     <use xlink:href="#DejaVuSans-74"/>
     <use xlink:href="#DejaVuSans-3d" x="39.208984"/>
     <use xlink:href="#DejaVuSans-32" x="122.998047"/>
     <use xlink:href="#DejaVuSans-34" x="186.621094"/>
     <use xlink:href="#DejaVuSans-2e" x="250.244141"/>
     <use xlink:href="#DejaVuSans-30" x="282.03125"/>
     <use xlink:href="#DejaVuSans-30" x="345.654297"/>
     <use xlink:href="#DejaVuSans-30" x="409.277344"/>
     <use xlink:href="#DejaVuSans-30" x="472.900391"/>
    </g>
   </g>
   <g id="line2d_122">
    <path d="M 374.146875 142.703125 
L 384.146875 142.703125 
L 394.146875 142.703125 
" style="fill: none; stroke: #9467bd; stroke-width: 1.5; stroke-linecap: square"/>
   </g>
   <g id="text_33">
    <!-- t=32.0000 -->
    <g transform="translate(402.146875 146.203125)scale(0.1 -0.1)">
     <defs>
      <path id="DejaVuSans-33" d="M 2597 2516 
Q 3050 2419 3304 2112 
Q 3559 1806 3559 1356 
Q 3559 666 3084 287 
Q 2609 -91 1734 -91 
Q 1441 -91 1130 -33 
Q 819 25 488 141 
L 488 750 
Q 750 597 1062 519 
Q 1375 441 1716 441 
Q 2309 441 2620 675 
Q 2931 909 2931 1356 
Q 2931 1769 2642 2001 
Q 2353 2234 1838 2234 
L 1294 2234 
L 1294 2753 
L 1863 2753 
Q 2328 2753 2575 2939 
Q 2822 3125 2822 3475 
Q 2822 3834 2567 4026 
Q 2313 4219 1838 4219 
Q 1578 4219 1281 4162 
Q 984 4106 628 3988 
L 628 4550 
Q 988 4650 1302 4700 
Q 1616 4750 1894 4750 
Q 2613 4750 3031 4423 
Q 3450 4097 3450 3541 
Q 3450 3153 3228 2886 
Q 3006 2619 2597 2516 
z
" transform="scale(0.015625)"/>
     </defs>
     <use xlink:href="#DejaVuSans-74"/>
     <use xlink:href="#DejaVuSans-3d" x="39.208984"/>
     <use xlink:href="#DejaVuSans-33" x="122.998047"/>
     <use xlink:href="#DejaVuSans-32" x="186.621094"/>
     <use xlink:href="#DejaVuSans-2e" x="250.244141"/>
     <use xlink:href="#DejaVuSans-30" x="282.03125"/>
     <use xlink:href="#DejaVuSans-30" x="345.654297"/>
     <use xlink:href="#DejaVuSans-30" x="409.277344"/>
     <use xlink:href="#DejaVuSans-30" x="472.900391"/>
    </g>
   </g>
   <g id="line2d_123">
    <path d="M 374.146875 157.38125 
L 384.146875 157.38125 
L 394.146875 157.38125 
" style="fill: none; stroke: #8c564b; stroke-width: 1.5; stroke-linecap: square"/>
   </g>
   <g id="text_34">
    <!-- t=40.0000 -->
    <g transform="translate(402.146875 160.88125)scale(0.1 -0.1)">
     <use xlink:href="#DejaVuSans-74"/>
     <use xlink:href="#DejaVuSans-3d" x="39.208984"/>
     <use xlink:href="#DejaVuSans-34" x="122.998047"/>
     <use xlink:href="#DejaVuSans-30" x="186.621094"/>
     <use xlink:href="#DejaVuSans-2e" x="250.244141"/>
     <use xlink:href="#DejaVuSans-30" x="282.03125"/>
     <use xlink:href="#DejaVuSans-30" x="345.654297"/>
     <use xlink:href="#DejaVuSans-30" x="409.277344"/>
     <use xlink:href="#DejaVuSans-30" x="472.900391"/>
    </g>
   </g>
   <g id="line2d_124">
    <path d="M 374.146875 172.059375 
L 384.146875 172.059375 
L 394.146875 172.059375 
" style="fill: none; stroke: #e377c2; stroke-width: 1.5; stroke-linecap: square"/>
   </g>
   <g id="text_35">
    <!-- t=48.0000 -->
    <g transform="translate(402.146875 175.559375)scale(0.1 -0.1)">
     <use xlink:href="#DejaVuSans-74"/>
     <use xlink:href="#DejaVuSans-3d" x="39.208984"/>
     <use xlink:href="#DejaVuSans-34" x="122.998047"/>
     <use xlink:href="#DejaVuSans-38" x="186.621094"/>
     <use xlink:href="#DejaVuSans-2e" x="250.244141"/>
     <use xlink:href="#DejaVuSans-30" x="282.03125"/>
     <use xlink:href="#DejaVuSans-30" x="345.654297"/>
     <use xlink:href="#DejaVuSans-30" x="409.277344"/>
     <use xlink:href="#DejaVuSans-30" x="472.900391"/>
    </g>
   </g>
   <g id="line2d_125">
    <path d="M 374.146875 186.7375 
L 384.146875 186.7375 
L 394.146875 186.7375 
" style="fill: none; stroke: #7f7f7f; stroke-width: 1.5; stroke-linecap: square"/>
   </g>
   <g id="text_36">
    <!-- t=56.0000 -->
    <g transform="translate(402.146875 190.2375)scale(0.1 -0.1)">
     <use xlink:href="#DejaVuSans-74"/>
     <use xlink:href="#DejaVuSans-3d" x="39.208984"/>
     <use xlink:href="#DejaVuSans-35" x="122.998047"/>
     <use xlink:href="#DejaVuSans-36" x="186.621094"/>
     <use xlink:href="#DejaVuSans-2e" x="250.244141"/>
     <use xlink:href="#DejaVuSans-30" x="282.03125"/>
     <use xlink:href="#DejaVuSans-30" x="345.654297"/>
     <use xlink:href="#DejaVuSans-30" x="409.277344"/>
     <use xlink:href="#DejaVuSans-30" x="472.900391"/>
    </g>
   </g>
   <g id="line2d_126">
    <path d="M 374.146875 201.415625 
L 384.146875 201.415625 
L 394.146875 201.415625 
" style="fill: none; stroke: #bcbd22; stroke-width: 1.5; stroke-linecap: square"/>
   </g>
   <g id="text_37">
    <!-- t=64.0000 -->
    <g transform="translate(402.146875 204.915625)scale(0.1 -0.1)">
     <use xlink:href="#DejaVuSans-74"/>
     <use xlink:href="#DejaVuSans-3d" x="39.208984"/>
     <use xlink:href="#DejaVuSans-36" x="122.998047"/>
     <use xlink:href="#DejaVuSans-34" x="186.621094"/>
     <use xlink:href="#DejaVuSans-2e" x="250.244141"/>
     <use xlink:href="#DejaVuSans-30" x="282.03125"/>
     <use xlink:href="#DejaVuSans-30" x="345.654297"/>
     <use xlink:href="#DejaVuSans-30" x="409.277344"/>
     <use xlink:href="#DejaVuSans-30" x="472.900391"/>
    </g>
   </g>
   <g id="line2d_127">
    <path d="M 374.146875 216.09375 
L 384.146875 216.09375 
L 394.146875 216.09375 
" style="fill: none; stroke: #17becf; stroke-width: 1.5; stroke-linecap: square"/>
   </g>
   <g id="text_38">
    <!-- t=72.0000 -->
    <g transform="translate(402.146875 219.59375)scale(0.1 -0.1)">
     <use xlink:href="#DejaVuSans-74"/>
     <use xlink:href="#DejaVuSans-3d" x="39.208984"/>
     <use xlink:href="#DejaVuSans-37" x="122.998047"/>
     <use xlink:href="#DejaVuSans-32" x="186.621094"/>
     <use xlink:href="#DejaVuSans-2e" x="250.244141"/>
     <use xlink:href="#DejaVuSans-30" x="282.03125"/>
     <use xlink:href="#DejaVuSans-30" x="345.654297"/>
     <use xlink:href="#DejaVuSans-30" x="409.277344"/>
     <use xlink:href="#DejaVuSans-30" x="472.900391"/>
    </g>
   </g>
   <g id="line2d_128">
    <path d="M 374.146875 230.771875 
L 384.146875 230.771875 
L 394.146875 230.771875 
" style="fill: none; stroke: #1f77b4; stroke-width: 1.5; stroke-linecap: square"/>
   </g>
   <g id="text_39">
    <!-- t=80.0000 -->
    <g transform="translate(402.146875 234.271875)scale(0.1 -0.1)">
     <use xlink:href="#DejaVuSans-74"/>
     <use xlink:href="#DejaVuSans-3d" x="39.208984"/>
     <use xlink:href="#DejaVuSans-38" x="122.998047"/>
     <use xlink:href="#DejaVuSans-30" x="186.621094"/>
     <use xlink:href="#DejaVuSans-2e" x="250.244141"/>
     <use xlink:href="#DejaVuSans-30" x="282.03125"/>
     <use xlink:href="#DejaVuSans-30" x="345.654297"/>
     <use xlink:href="#DejaVuSans-30" x="409.277344"/>
     <use xlink:href="#DejaVuSans-30" x="472.900391"/>
    </g>
   </g>
   <g id="line2d_129">
    <path d="M 374.146875 245.45 
L 384.146875 245.45 
L 394.146875 245.45 
" style="fill: none; stroke: #ff7f0e; stroke-width: 1.5; stroke-linecap: square"/>
   </g>
   <g id="text_40">
    <!-- t=88.0000 -->
    <g transform="translate(402.146875 248.95)scale(0.1 -0.1)">
     <use xlink:href="#DejaVuSans-74"/>
     <use xlink:href="#DejaVuSans-3d" x="39.208984"/>
     <use xlink:href="#DejaVuSans-38" x="122.998047"/>
     <use xlink:href="#DejaVuSans-38" x="186.621094"/>
     <use xlink:href="#DejaVuSans-2e" x="250.244141"/>
     <use xlink:href="#DejaVuSans-30" x="282.03125"/>
     <use xlink:href="#DejaVuSans-30" x="345.654297"/>
     <use xlink:href="#DejaVuSans-30" x="409.277344"/>
     <use xlink:href="#DejaVuSans-30" x="472.900391"/>
    </g>
   </g>
   <g id="line2d_130">
    <path d="M 374.146875 260.128125 
L 384.146875 260.128125 
L 394.146875 260.128125 
" style="fill: none; stroke: #2ca02c; stroke-width: 1.5; stroke-linecap: square"/>
   </g>
   <g id="text_41">
    <!-- t=96.0000 -->
    <g transform="translate(402.146875 263.628125)scale(0.1 -0.1)">
     <defs>
      <path id="DejaVuSans-39" d="M 703 97 
L 703 672 
Q 941 559 1184 500 
Q 1428 441 1663 441 
Q 2288 441 2617 861 
Q 2947 1281 2994 2138 
Q 2813 1869 2534 1725 
Q 2256 1581 1919 1581 
Q 1219 1581 811 2004 
Q 403 2428 403 3163 
Q 403 3881 828 4315 
Q 1253 4750 1959 4750 
Q 2769 4750 3195 4129 
Q 3622 3509 3622 2328 
Q 3622 1225 3098 567 
Q 2575 -91 1691 -91 
Q 1453 -91 1209 -44 
Q 966 3 703 97 
z
M 1959 2075 
Q 2384 2075 2632 2365 
Q 2881 2656 2881 3163 
Q 2881 3666 2632 3958 
Q 2384 4250 1959 4250 
Q 1534 4250 1286 3958 
Q 1038 3666 1038 3163 
Q 1038 2656 1286 2365 
Q 1534 2075 1959 2075 
z
" transform="scale(0.015625)"/>
     </defs>
     <use xlink:href="#DejaVuSans-74"/>
     <use xlink:href="#DejaVuSans-3d" x="39.208984"/>
     <use xlink:href="#DejaVuSans-39" x="122.998047"/>
     <use xlink:href="#DejaVuSans-36" x="186.621094"/>
     <use xlink:href="#DejaVuSans-2e" x="250.244141"/>
     <use xlink:href="#DejaVuSans-30" x="282.03125"/>
     <use xlink:href="#DejaVuSans-30" x="345.654297"/>
     <use xlink:href="#DejaVuSans-30" x="409.277344"/>
     <use xlink:href="#DejaVuSans-30" x="472.900391"/>
    </g>
   </g>
  </g>
 </g>
 <defs>
  <clipPath id="p3b3aefe054">
   <rect x="57.6" y="41.472" width="357.12" height="45.881379"/>
  </clipPath>
  <clipPath id="p82a97cfdbd">
   <rect x="57.6" y="96.529655" width="357.12" height="45.881379"/>
  </clipPath>
  <clipPath id="p0dbc1fe26b">
   <rect x="57.6" y="151.58731" width="357.12" height="45.881379"/>
  </clipPath>
  <clipPath id="p4a1e568df7">
   <rect x="57.6" y="206.644966" width="357.12" height="45.881379"/>
  </clipPath>
  <clipPath id="pef90cbfd8f">
   <rect x="57.6" y="261.702621" width="357.12" height="45.881379"/>
  </clipPath>
 </defs>
</svg>
