<?xml version="1.0" encoding="utf-8" standalone="no"?>
<!DOCTYPE svg PUBLIC "-//W3C//DTD SVG 1.1//EN"
  "http://www.w3.org/Graphics/SVG/1.1/DTD/svg11.dtd">
<svg xmlns:xlink="http://www.w3.org/1999/xlink" width="460.8pt" height="345.6pt" viewBox="0 0 460.8 345.6" xmlns="http://www.w3.org/2000/svg" version="1.1">
 <metadata>
  <rdf:RDF xmlns:dc="http://purl.org/dc/elements/1.1/" xmlns:cc="http://creativecommons.org/ns#" xmlns:rdf="http://www.w3.org/1999/02/22-rdf-syntax-ns#">
   <cc:Work>
    <dc:type rdf:resource="http://purl.org/dc/dcmitype/StillImage"/>
    <dc:date>2022-07-10T00:05:01.037758</dc:date>
    <dc:format>image/svg+xml</dc:format>
    <dc:creator>
     <cc:Agent>
      <dc:title>Matplotlib v3.5.2, https://matplotlib.org/</dc:title>
     </cc:Agent>
    </dc:creator>
   </cc:Work>
  </rdf:RDF>
 </metadata>
 <defs>
  <style type="text/css">*{stroke-linejoin: round; stroke-linecap: butt}</style>
 </defs>
 <g id="figure_1">
  <g id="patch_1">
   <path d="M 0 345.6 
L 460.8 345.6 
L 460.8 0 
L 0 0 
z
" style="fill: #ffffff"/>
  </g>
  <g id="axes_1">
   <g id="patch_2">
    <path d="M 57.6 87.353379 
L 414.72 87.353379 
L 414.72 41.472 
L 57.6 41.472 
z
" style="fill: #ffffff"/>
   </g>
   <g id="matplotlib.axis_1">
    <g id="xtick_1">
     <g id="line2d_1">
      <defs>
       <path id="m466821cf3f" d="M 0 0 
L 0 3.5 
" style="stroke: #000000; stroke-width: 0.8"/>
      </defs>
      <g>
       <use xlink:href="#m466821cf3f" x="73.832727" y="87.353379" style="stroke: #000000; stroke-width: 0.8"/>
      </g>
     </g>
    </g>
    <g id="xtick_2">
     <g id="line2d_2">
      <g>
       <use xlink:href="#m466821cf3f" x="138.763636" y="87.353379" style="stroke: #000000; stroke-width: 0.8"/>
      </g>
     </g>
    </g>
    <g id="xtick_3">
     <g id="line2d_3">
      <g>
       <use xlink:href="#m466821cf3f" x="203.694545" y="87.353379" style="stroke: #000000; stroke-width: 0.8"/>
      </g>
     </g>
    </g>
    <g id="xtick_4">
     <g id="line2d_4">
      <g>
       <use xlink:href="#m466821cf3f" x="268.625455" y="87.353379" style="stroke: #000000; stroke-width: 0.8"/>
      </g>
     </g>
    </g>
    <g id="xtick_5">
     <g id="line2d_5">
      <g>
       <use xlink:href="#m466821cf3f" x="333.556364" y="87.353379" style="stroke: #000000; stroke-width: 0.8"/>
      </g>
     </g>
    </g>
    <g id="xtick_6">
     <g id="line2d_6">
      <g>
       <use xlink:href="#m466821cf3f" x="398.487273" y="87.353379" style="stroke: #000000; stroke-width: 0.8"/>
      </g>
     </g>
    </g>
   </g>
   <g id="matplotlib.axis_2">
    <g id="ytick_1">
     <g id="line2d_7">
      <defs>
       <path id="m16b4ab48ca" d="M 0 0 
L -3.5 0 
" style="stroke: #000000; stroke-width: 0.8"/>
      </defs>
      <g>
       <use xlink:href="#m16b4ab48ca" x="57.6" y="73.803408" style="stroke: #000000; stroke-width: 0.8"/>
      </g>
     </g>
     <g id="text_1">
      <!-- 0 -->
      <g transform="translate(44.2375 77.602627)scale(0.1 -0.1)">
       <defs>
        <path id="DejaVuSans-30" d="M 2034 4250 
Q 1547 4250 1301 3770 
Q 1056 3291 1056 2328 
Q 1056 1369 1301 889 
Q 1547 409 2034 409 
Q 2525 409 2770 889 
Q 3016 1369 3016 2328 
Q 3016 3291 2770 3770 
Q 2525 4250 2034 4250 
z
M 2034 4750 
Q 2819 4750 3233 4129 
Q 3647 3509 3647 2328 
Q 3647 1150 3233 529 
Q 2819 -91 2034 -91 
Q 1250 -91 836 529 
Q 422 1150 422 2328 
Q 422 3509 836 4129 
Q 1250 4750 2034 4750 
z
" transform="scale(0.015625)"/>
       </defs>
       <use xlink:href="#DejaVuSans-30"/>
      </g>
     </g>
    </g>
    <g id="ytick_2">
     <g id="line2d_8">
      <g>
       <use xlink:href="#m16b4ab48ca" x="57.6" y="43.664058" style="stroke: #000000; stroke-width: 0.8"/>
      </g>
     </g>
     <g id="text_2">
      <!-- 1 -->
      <g transform="translate(44.2375 47.463277)scale(0.1 -0.1)">
       <defs>
        <path id="DejaVuSans-31" d="M 794 531 
L 1825 531 
L 1825 4091 
L 703 3866 
L 703 4441 
L 1819 4666 
L 2450 4666 
L 2450 531 
L 3481 531 
L 3481 0 
L 794 0 
L 794 531 
z
" transform="scale(0.015625)"/>
       </defs>
       <use xlink:href="#DejaVuSans-31"/>
      </g>
     </g>
    </g>
    <g id="text_3">
     <!-- flow rate (normalized) -->
     <g transform="translate(38.157812 119.729877)rotate(-90)scale(0.1 -0.1)">
      <defs>
       <path id="DejaVuSans-66" d="M 2375 4863 
L 2375 4384 
L 1825 4384 
Q 1516 4384 1395 4259 
Q 1275 4134 1275 3809 
L 1275 3500 
L 2222 3500 
L 2222 3053 
L 1275 3053 
L 1275 0 
L 697 0 
L 697 3053 
L 147 3053 
L 147 3500 
L 697 3500 
L 697 3744 
Q 697 4328 969 4595 
Q 1241 4863 1831 4863 
L 2375 4863 
z
" transform="scale(0.015625)"/>
       <path id="DejaVuSans-6c" d="M 603 4863 
L 1178 4863 
L 1178 0 
L 603 0 
L 603 4863 
z
" transform="scale(0.015625)"/>
       <path id="DejaVuSans-6f" d="M 1959 3097 
Q 1497 3097 1228 2736 
Q 959 2375 959 1747 
Q 959 1119 1226 758 
Q 1494 397 1959 397 
Q 2419 397 2687 759 
Q 2956 1122 2956 1747 
Q 2956 2369 2687 2733 
Q 2419 3097 1959 3097 
z
M 1959 3584 
Q 2709 3584 3137 3096 
Q 3566 2609 3566 1747 
Q 3566 888 3137 398 
Q 2709 -91 1959 -91 
Q 1206 -91 779 398 
Q 353 888 353 1747 
Q 353 2609 779 3096 
Q 1206 3584 1959 3584 
z
" transform="scale(0.015625)"/>
       <path id="DejaVuSans-77" d="M 269 3500 
L 844 3500 
L 1563 769 
L 2278 3500 
L 2956 3500 
L 3675 769 
L 4391 3500 
L 4966 3500 
L 4050 0 
L 3372 0 
L 2619 2869 
L 1863 0 
L 1184 0 
L 269 3500 
z
" transform="scale(0.015625)"/>
       <path id="DejaVuSans-20" transform="scale(0.015625)"/>
       <path id="DejaVuSans-72" d="M 2631 2963 
Q 2534 3019 2420 3045 
Q 2306 3072 2169 3072 
Q 1681 3072 1420 2755 
Q 1159 2438 1159 1844 
L 1159 0 
L 581 0 
L 581 3500 
L 1159 3500 
L 1159 2956 
Q 1341 3275 1631 3429 
Q 1922 3584 2338 3584 
Q 2397 3584 2469 3576 
Q 2541 3569 2628 3553 
L 2631 2963 
z
" transform="scale(0.015625)"/>
       <path id="DejaVuSans-61" d="M 2194 1759 
Q 1497 1759 1228 1600 
Q 959 1441 959 1056 
Q 959 750 1161 570 
Q 1363 391 1709 391 
Q 2188 391 2477 730 
Q 2766 1069 2766 1631 
L 2766 1759 
L 2194 1759 
z
M 3341 1997 
L 3341 0 
L 2766 0 
L 2766 531 
Q 2569 213 2275 61 
Q 1981 -91 1556 -91 
Q 1019 -91 701 211 
Q 384 513 384 1019 
Q 384 1609 779 1909 
Q 1175 2209 1959 2209 
L 2766 2209 
L 2766 2266 
Q 2766 2663 2505 2880 
Q 2244 3097 1772 3097 
Q 1472 3097 1187 3025 
Q 903 2953 641 2809 
L 641 3341 
Q 956 3463 1253 3523 
Q 1550 3584 1831 3584 
Q 2591 3584 2966 3190 
Q 3341 2797 3341 1997 
z
" transform="scale(0.015625)"/>
       <path id="DejaVuSans-74" d="M 1172 4494 
L 1172 3500 
L 2356 3500 
L 2356 3053 
L 1172 3053 
L 1172 1153 
Q 1172 725 1289 603 
Q 1406 481 1766 481 
L 2356 481 
L 2356 0 
L 1766 0 
Q 1100 0 847 248 
Q 594 497 594 1153 
L 594 3053 
L 172 3053 
L 172 3500 
L 594 3500 
L 594 4494 
L 1172 4494 
z
" transform="scale(0.015625)"/>
       <path id="DejaVuSans-65" d="M 3597 1894 
L 3597 1613 
L 953 1613 
Q 991 1019 1311 708 
Q 1631 397 2203 397 
Q 2534 397 2845 478 
Q 3156 559 3463 722 
L 3463 178 
Q 3153 47 2828 -22 
Q 2503 -91 2169 -91 
Q 1331 -91 842 396 
Q 353 884 353 1716 
Q 353 2575 817 3079 
Q 1281 3584 2069 3584 
Q 2775 3584 3186 3129 
Q 3597 2675 3597 1894 
z
M 3022 2063 
Q 3016 2534 2758 2815 
Q 2500 3097 2075 3097 
Q 1594 3097 1305 2825 
Q 1016 2553 972 2059 
L 3022 2063 
z
" transform="scale(0.015625)"/>
       <path id="DejaVuSans-28" d="M 1984 4856 
Q 1566 4138 1362 3434 
Q 1159 2731 1159 2009 
Q 1159 1288 1364 580 
Q 1569 -128 1984 -844 
L 1484 -844 
Q 1016 -109 783 600 
Q 550 1309 550 2009 
Q 550 2706 781 3412 
Q 1013 4119 1484 4856 
L 1984 4856 
z
" transform="scale(0.015625)"/>
       <path id="DejaVuSans-6e" d="M 3513 2113 
L 3513 0 
L 2938 0 
L 2938 2094 
Q 2938 2591 2744 2837 
Q 2550 3084 2163 3084 
Q 1697 3084 1428 2787 
Q 1159 2491 1159 1978 
L 1159 0 
L 581 0 
L 581 3500 
L 1159 3500 
L 1159 2956 
Q 1366 3272 1645 3428 
Q 1925 3584 2291 3584 
Q 2894 3584 3203 3211 
Q 3513 2838 3513 2113 
z
" transform="scale(0.015625)"/>
       <path id="DejaVuSans-6d" d="M 3328 2828 
Q 3544 3216 3844 3400 
Q 4144 3584 4550 3584 
Q 5097 3584 5394 3201 
Q 5691 2819 5691 2113 
L 5691 0 
L 5113 0 
L 5113 2094 
Q 5113 2597 4934 2840 
Q 4756 3084 4391 3084 
Q 3944 3084 3684 2787 
Q 3425 2491 3425 1978 
L 3425 0 
L 2847 0 
L 2847 2094 
Q 2847 2600 2669 2842 
Q 2491 3084 2119 3084 
Q 1678 3084 1418 2786 
Q 1159 2488 1159 1978 
L 1159 0 
L 581 0 
L 581 3500 
L 1159 3500 
L 1159 2956 
Q 1356 3278 1631 3431 
Q 1906 3584 2284 3584 
Q 2666 3584 2933 3390 
Q 3200 3197 3328 2828 
z
" transform="scale(0.015625)"/>
       <path id="DejaVuSans-69" d="M 603 3500 
L 1178 3500 
L 1178 0 
L 603 0 
L 603 3500 
z
M 603 4863 
L 1178 4863 
L 1178 4134 
L 603 4134 
L 603 4863 
z
" transform="scale(0.015625)"/>
       <path id="DejaVuSans-7a" d="M 353 3500 
L 3084 3500 
L 3084 2975 
L 922 459 
L 3084 459 
L 3084 0 
L 275 0 
L 275 525 
L 2438 3041 
L 353 3041 
L 353 3500 
z
" transform="scale(0.015625)"/>
       <path id="DejaVuSans-64" d="M 2906 2969 
L 2906 4863 
L 3481 4863 
L 3481 0 
L 2906 0 
L 2906 525 
Q 2725 213 2448 61 
Q 2172 -91 1784 -91 
Q 1150 -91 751 415 
Q 353 922 353 1747 
Q 353 2572 751 3078 
Q 1150 3584 1784 3584 
Q 2172 3584 2448 3432 
Q 2725 3281 2906 2969 
z
M 947 1747 
Q 947 1113 1208 752 
Q 1469 391 1925 391 
Q 2381 391 2643 752 
Q 2906 1113 2906 1747 
Q 2906 2381 2643 2742 
Q 2381 3103 1925 3103 
Q 1469 3103 1208 2742 
Q 947 2381 947 1747 
z
" transform="scale(0.015625)"/>
       <path id="DejaVuSans-29" d="M 513 4856 
L 1013 4856 
Q 1481 4119 1714 3412 
Q 1947 2706 1947 2009 
Q 1947 1309 1714 600 
Q 1481 -109 1013 -844 
L 513 -844 
Q 928 -128 1133 580 
Q 1338 1288 1338 2009 
Q 1338 2731 1133 3434 
Q 928 4138 513 4856 
z
" transform="scale(0.015625)"/>
      </defs>
      <use xlink:href="#DejaVuSans-66"/>
      <use xlink:href="#DejaVuSans-6c" x="35.205078"/>
      <use xlink:href="#DejaVuSans-6f" x="62.988281"/>
      <use xlink:href="#DejaVuSans-77" x="124.169922"/>
      <use xlink:href="#DejaVuSans-20" x="205.957031"/>
      <use xlink:href="#DejaVuSans-72" x="237.744141"/>
      <use xlink:href="#DejaVuSans-61" x="278.857422"/>
      <use xlink:href="#DejaVuSans-74" x="340.136719"/>
      <use xlink:href="#DejaVuSans-65" x="379.345703"/>
      <use xlink:href="#DejaVuSans-20" x="440.869141"/>
      <use xlink:href="#DejaVuSans-28" x="472.65625"/>
      <use xlink:href="#DejaVuSans-6e" x="511.669922"/>
      <use xlink:href="#DejaVuSans-6f" x="575.048828"/>
      <use xlink:href="#DejaVuSans-72" x="636.230469"/>
      <use xlink:href="#DejaVuSans-6d" x="675.59375"/>
      <use xlink:href="#DejaVuSans-61" x="773.005859"/>
      <use xlink:href="#DejaVuSans-6c" x="834.285156"/>
      <use xlink:href="#DejaVuSans-69" x="862.068359"/>
      <use xlink:href="#DejaVuSans-7a" x="889.851562"/>
      <use xlink:href="#DejaVuSans-65" x="942.341797"/>
      <use xlink:href="#DejaVuSans-64" x="1003.865234"/>
      <use xlink:href="#DejaVuSans-29" x="1067.341797"/>
     </g>
    </g>
   </g>
   <g id="line2d_9">
    <path d="M 73.832727 73.803412 
L 77.079273 63.567279 
L 80.325818 69.946299 
L 83.572364 71.864861 
L 86.818909 72.777834 
L 90.065455 73.205723 
L 93.312 73.426635 
L 96.558545 73.601042 
L 99.805091 73.686038 
L 103.051636 73.723499 
L 106.298182 73.751271 
L 109.544727 73.769298 
L 112.791273 73.781518 
L 116.037818 73.791941 
L 119.284364 73.796446 
L 122.530909 70.234756 
L 125.777455 43.603727 
L 129.024 43.603727 
L 132.270545 43.603727 
L 135.517091 43.603727 
L 138.763636 43.603727 
L 142.010182 43.603727 
L 145.256727 43.603727 
L 148.503273 43.603727 
L 151.749818 43.603727 
L 154.996364 43.603727 
L 158.242909 43.603727 
L 161.489455 43.603727 
L 164.736 43.603727 
L 167.982545 43.603727 
L 171.229091 48.220359 
L 174.475636 66.861369 
L 177.722182 67.602459 
L 180.968727 68.176455 
L 184.215273 69.410199 
L 187.461818 70.255337 
L 190.708364 71.214898 
L 193.954909 71.989438 
L 197.201455 72.619471 
L 200.448 73.006847 
L 203.694545 73.36741 
L 206.941091 73.536063 
L 210.187636 73.621128 
L 213.434182 73.692799 
L 216.680727 73.732272 
L 219.927273 73.757728 
L 223.173818 73.776547 
L 226.420364 73.787477 
L 229.666909 73.793115 
L 232.913455 73.795335 
L 236.16 73.798634 
L 239.406545 73.800836 
L 242.653091 73.801877 
L 245.899636 73.802413 
L 249.146182 73.802808 
L 252.392727 73.803076 
L 255.639273 73.803223 
L 258.885818 73.803315 
L 262.132364 73.803417 
L 265.378909 73.803472 
L 268.625455 73.84143 
L 271.872 79.506457 
L 275.118545 78.948692 
L 278.365091 78.291011 
L 281.611636 77.499983 
L 284.858182 76.752782 
L 288.104727 75.935743 
L 291.351273 75.336621 
L 294.597818 74.861542 
L 297.844364 74.451138 
L 301.090909 74.265208 
L 304.337455 74.047921 
L 307.584 73.985668 
L 310.830545 73.900914 
L 314.077091 73.859054 
L 317.323636 73.837409 
L 320.570182 73.822697 
L 323.816727 73.815803 
L 327.063273 73.81045 
L 330.309818 73.806612 
L 333.556364 73.80474 
L 336.802909 73.80385 
L 340.049455 73.803919 
L 343.296 73.803913 
L 346.542545 73.803883 
L 349.789091 73.803853 
L 353.035636 73.803822 
L 356.282182 73.803742 
L 359.528727 73.803655 
L 362.775273 73.803569 
L 366.021818 73.803483 
L 369.268364 73.803476 
L 372.514909 73.803469 
L 375.761455 73.803462 
L 379.008 73.803455 
L 382.254545 73.803448 
L 385.501091 73.803441 
L 388.747636 73.803434 
L 391.994182 73.803427 
L 395.240727 73.80342 
L 398.487273 73.803413 
" clip-path="url(#p6a685fe3eb)" style="fill: none; stroke: #1f77b4; stroke-width: 1.5; stroke-linecap: square"/>
   </g>
   <g id="line2d_10">
    <path d="M 73.832727 73.803417 
L 77.079273 53.403476 
L 80.325818 66.097573 
L 83.572364 69.930063 
L 86.818909 71.753254 
L 90.065455 72.608362 
L 93.312 73.050072 
L 96.558545 73.3987 
L 99.805091 73.568796 
L 103.051636 73.643553 
L 106.298182 73.699117 
L 109.544727 73.735209 
L 112.791273 73.759638 
L 116.037818 73.780479 
L 119.284364 73.789487 
L 122.530909 62.602933 
L 125.777455 43.655462 
L 129.024 43.655462 
L 132.270545 43.655462 
L 135.517091 43.655462 
L 138.763636 43.655462 
L 142.010182 43.655462 
L 145.256727 43.655462 
L 148.503273 43.655462 
L 151.749818 43.655462 
L 154.996364 43.655462 
L 158.242909 43.655462 
L 161.489455 43.655462 
L 164.736 43.655462 
L 167.982545 43.655462 
L 171.229091 57.721184 
L 174.475636 72.541592 
L 177.722182 72.676251 
L 180.968727 72.780773 
L 184.215273 73.00532 
L 187.461818 73.157284 
L 190.708364 73.336103 
L 193.954909 73.472268 
L 197.201455 73.589086 
L 200.448 73.656731 
L 203.694545 73.725852 
L 206.941091 73.757214 
L 210.187636 73.77015 
L 213.434182 73.78328 
L 216.680727 73.790462 
L 219.927273 73.795094 
L 223.173818 73.798519 
L 226.420364 73.800509 
L 229.666909 73.801536 
L 232.913455 73.80194 
L 236.16 73.802538 
L 239.406545 73.802939 
L 242.653091 73.803129 
L 245.899636 73.803227 
L 249.146182 73.803299 
L 252.392727 73.803348 
L 255.639273 73.803375 
L 258.885818 73.803391 
L 262.132364 73.80341 
L 265.378909 73.80342 
L 268.625455 74.192848 
L 271.872 85.267862 
L 275.118545 84.170049 
L 278.365091 82.873484 
L 281.611636 81.274344 
L 284.858182 79.736299 
L 288.104727 78.083483 
L 291.351273 76.852143 
L 294.597818 75.967191 
L 297.844364 74.985626 
L 301.090909 74.886475 
L 304.337455 74.229887 
L 307.584 74.162591 
L 310.830545 73.991119 
L 314.077091 73.91352 
L 317.323636 73.869206 
L 320.570182 73.841297 
L 323.816727 73.827926 
L 327.063273 73.817211 
L 330.309818 73.809588 
L 333.556364 73.805986 
L 336.802909 73.804411 
L 340.049455 73.804456 
L 343.296 73.80442 
L 346.542545 73.804358 
L 349.789091 73.804297 
L 353.035636 73.804235 
L 356.282182 73.804073 
L 359.528727 73.803898 
L 362.775273 73.803724 
L 366.021818 73.803551 
L 369.268364 73.803538 
L 372.514909 73.803525 
L 375.761455 73.803511 
L 379.008 73.803498 
L 382.254545 73.803485 
L 385.501091 73.803471 
L 388.747636 73.803458 
L 391.994182 73.803445 
L 395.240727 73.803431 
L 398.487273 73.803418 
" clip-path="url(#p6a685fe3eb)" style="fill: none; stroke: #ff7f0e; stroke-width: 1.5; stroke-linecap: square"/>
   </g>
   <g id="line2d_11">
    <path d="M 73.832727 73.803408 
L 77.079273 72.667756 
L 80.325818 73.375319 
L 83.572364 73.589056 
L 86.818909 73.689394 
L 90.065455 73.736993 
L 93.312 73.761538 
L 96.558545 73.780925 
L 99.805091 73.790364 
L 103.051636 73.79453 
L 106.298182 73.797615 
L 109.544727 73.799617 
L 112.791273 73.800975 
L 116.037818 73.802134 
L 119.284364 73.802634 
L 122.530909 74.038238 
L 125.777455 43.557518 
L 129.024 43.557517 
L 132.270545 43.557517 
L 135.517091 43.557517 
L 138.763636 43.557517 
L 142.010182 43.557517 
L 145.256727 43.557517 
L 148.503273 43.557517 
L 151.749818 43.557517 
L 154.996364 43.557517 
L 158.242909 43.557517 
L 161.489455 43.557517 
L 164.736 43.557517 
L 167.982545 43.557517 
L 171.229091 45.395256 
L 174.475636 61.804894 
L 177.722182 63.086618 
L 180.968727 64.074943 
L 184.215273 66.200915 
L 187.461818 67.695662 
L 190.708364 69.263646 
L 193.954909 70.697419 
L 197.201455 71.73872 
L 200.448 72.466483 
L 203.694545 73.013138 
L 206.941091 73.290372 
L 210.187636 73.490774 
L 213.434182 73.612703 
L 216.680727 73.680765 
L 219.927273 73.724679 
L 223.173818 73.757119 
L 226.420364 73.775932 
L 229.666909 73.785634 
L 232.913455 73.789473 
L 236.16 73.795192 
L 239.406545 73.798996 
L 242.653091 73.800768 
L 245.899636 73.801688 
L 249.146182 73.802358 
L 252.392727 73.802814 
L 255.639273 73.803077 
L 258.885818 73.803248 
L 262.132364 73.803424 
L 265.378909 73.803519 
L 268.625455 73.805358 
L 271.872 74.436105 
L 275.118545 74.373847 
L 278.365091 74.300468 
L 281.611636 74.212874 
L 284.858182 74.130565 
L 288.104727 74.040121 
L 291.351273 73.974137 
L 294.597818 73.920244 
L 297.844364 73.877241 
L 301.090909 73.852316 
L 304.337455 73.83237 
L 307.584 73.823756 
L 310.830545 73.814375 
L 314.077091 73.809615 
L 317.323636 73.807223 
L 320.570182 73.805565 
L 323.816727 73.80479 
L 327.063273 73.804195 
L 330.309818 73.803768 
L 333.556364 73.803557 
L 336.802909 73.803455 
L 340.049455 73.803464 
L 343.296 73.803464 
L 346.542545 73.80346 
L 349.789091 73.803457 
L 353.035636 73.803454 
L 356.282182 73.803445 
L 359.528727 73.803435 
L 362.775273 73.803426 
L 366.021818 73.803416 
L 369.268364 73.803415 
L 372.514909 73.803415 
L 375.761455 73.803414 
L 379.008 73.803413 
L 382.254545 73.803412 
L 385.501091 73.803412 
L 388.747636 73.803411 
L 391.994182 73.80341 
L 395.240727 73.803409 
L 398.487273 73.803408 
" clip-path="url(#p6a685fe3eb)" style="fill: none; stroke: #2ca02c; stroke-width: 1.5; stroke-linecap: square"/>
   </g>
   <g id="patch_3">
    <path d="M 57.6 87.353379 
L 57.6 41.472 
" style="fill: none; stroke: #000000; stroke-width: 0.8; stroke-linejoin: miter; stroke-linecap: square"/>
   </g>
   <g id="patch_4">
    <path d="M 414.72 87.353379 
L 414.72 41.472 
" style="fill: none; stroke: #000000; stroke-width: 0.8; stroke-linejoin: miter; stroke-linecap: square"/>
   </g>
   <g id="patch_5">
    <path d="M 57.6 87.353379 
L 414.72 87.353379 
" style="fill: none; stroke: #000000; stroke-width: 0.8; stroke-linejoin: miter; stroke-linecap: square"/>
   </g>
   <g id="patch_6">
    <path d="M 57.6 41.472 
L 414.72 41.472 
" style="fill: none; stroke: #000000; stroke-width: 0.8; stroke-linejoin: miter; stroke-linecap: square"/>
   </g>
   <g id="text_4">
    <!-- velocity vs time (container 1)   -->
    <g transform="translate(144.106875 35.472)scale(0.12 -0.12)">
     <defs>
      <path id="DejaVuSans-76" d="M 191 3500 
L 800 3500 
L 1894 563 
L 2988 3500 
L 3597 3500 
L 2284 0 
L 1503 0 
L 191 3500 
z
" transform="scale(0.015625)"/>
      <path id="DejaVuSans-63" d="M 3122 3366 
L 3122 2828 
Q 2878 2963 2633 3030 
Q 2388 3097 2138 3097 
Q 1578 3097 1268 2742 
Q 959 2388 959 1747 
Q 959 1106 1268 751 
Q 1578 397 2138 397 
Q 2388 397 2633 464 
Q 2878 531 3122 666 
L 3122 134 
Q 2881 22 2623 -34 
Q 2366 -91 2075 -91 
Q 1284 -91 818 406 
Q 353 903 353 1747 
Q 353 2603 823 3093 
Q 1294 3584 2113 3584 
Q 2378 3584 2631 3529 
Q 2884 3475 3122 3366 
z
" transform="scale(0.015625)"/>
      <path id="DejaVuSans-79" d="M 2059 -325 
Q 1816 -950 1584 -1140 
Q 1353 -1331 966 -1331 
L 506 -1331 
L 506 -850 
L 844 -850 
Q 1081 -850 1212 -737 
Q 1344 -625 1503 -206 
L 1606 56 
L 191 3500 
L 800 3500 
L 1894 763 
L 2988 3500 
L 3597 3500 
L 2059 -325 
z
" transform="scale(0.015625)"/>
      <path id="DejaVuSans-73" d="M 2834 3397 
L 2834 2853 
Q 2591 2978 2328 3040 
Q 2066 3103 1784 3103 
Q 1356 3103 1142 2972 
Q 928 2841 928 2578 
Q 928 2378 1081 2264 
Q 1234 2150 1697 2047 
L 1894 2003 
Q 2506 1872 2764 1633 
Q 3022 1394 3022 966 
Q 3022 478 2636 193 
Q 2250 -91 1575 -91 
Q 1294 -91 989 -36 
Q 684 19 347 128 
L 347 722 
Q 666 556 975 473 
Q 1284 391 1588 391 
Q 1994 391 2212 530 
Q 2431 669 2431 922 
Q 2431 1156 2273 1281 
Q 2116 1406 1581 1522 
L 1381 1569 
Q 847 1681 609 1914 
Q 372 2147 372 2553 
Q 372 3047 722 3315 
Q 1072 3584 1716 3584 
Q 2034 3584 2315 3537 
Q 2597 3491 2834 3397 
z
" transform="scale(0.015625)"/>
     </defs>
     <use xlink:href="#DejaVuSans-76"/>
     <use xlink:href="#DejaVuSans-65" x="59.179688"/>
     <use xlink:href="#DejaVuSans-6c" x="120.703125"/>
     <use xlink:href="#DejaVuSans-6f" x="148.486328"/>
     <use xlink:href="#DejaVuSans-63" x="209.667969"/>
     <use xlink:href="#DejaVuSans-69" x="264.648438"/>
     <use xlink:href="#DejaVuSans-74" x="292.431641"/>
     <use xlink:href="#DejaVuSans-79" x="331.640625"/>
     <use xlink:href="#DejaVuSans-20" x="390.820312"/>
     <use xlink:href="#DejaVuSans-76" x="422.607422"/>
     <use xlink:href="#DejaVuSans-73" x="481.787109"/>
     <use xlink:href="#DejaVuSans-20" x="533.886719"/>
     <use xlink:href="#DejaVuSans-74" x="565.673828"/>
     <use xlink:href="#DejaVuSans-69" x="604.882812"/>
     <use xlink:href="#DejaVuSans-6d" x="632.666016"/>
     <use xlink:href="#DejaVuSans-65" x="730.078125"/>
     <use xlink:href="#DejaVuSans-20" x="791.601562"/>
     <use xlink:href="#DejaVuSans-28" x="823.388672"/>
     <use xlink:href="#DejaVuSans-63" x="862.402344"/>
     <use xlink:href="#DejaVuSans-6f" x="917.382812"/>
     <use xlink:href="#DejaVuSans-6e" x="978.564453"/>
     <use xlink:href="#DejaVuSans-74" x="1041.943359"/>
     <use xlink:href="#DejaVuSans-61" x="1081.152344"/>
     <use xlink:href="#DejaVuSans-69" x="1142.431641"/>
     <use xlink:href="#DejaVuSans-6e" x="1170.214844"/>
     <use xlink:href="#DejaVuSans-65" x="1233.59375"/>
     <use xlink:href="#DejaVuSans-72" x="1295.117188"/>
     <use xlink:href="#DejaVuSans-20" x="1336.230469"/>
     <use xlink:href="#DejaVuSans-31" x="1368.017578"/>
     <use xlink:href="#DejaVuSans-29" x="1431.640625"/>
     <use xlink:href="#DejaVuSans-20" x="1470.654297"/>
     <use xlink:href="#DejaVuSans-20" x="1502.441406"/>
    </g>
   </g>
   <g id="legend_1">
    <g id="patch_7">
     <path d="M 64.6 93.506375 
L 139.240625 93.506375 
Q 141.240625 93.506375 141.240625 91.506375 
L 141.240625 48.472 
Q 141.240625 46.472 139.240625 46.472 
L 64.6 46.472 
Q 62.6 46.472 62.6 48.472 
L 62.6 91.506375 
Q 62.6 93.506375 64.6 93.506375 
z
" style="fill: #ffffff; opacity: 0.8; stroke: #cccccc; stroke-linejoin: miter"/>
    </g>
    <g id="line2d_12">
     <path d="M 66.6 54.570437 
L 76.6 54.570437 
L 86.6 54.570437 
" style="fill: none; stroke: #1f77b4; stroke-width: 1.5; stroke-linecap: square"/>
    </g>
    <g id="text_5">
     <!-- mid flow -->
     <g transform="translate(94.6 58.070437)scale(0.1 -0.1)">
      <use xlink:href="#DejaVuSans-6d"/>
      <use xlink:href="#DejaVuSans-69" x="97.412109"/>
      <use xlink:href="#DejaVuSans-64" x="125.195312"/>
      <use xlink:href="#DejaVuSans-20" x="188.671875"/>
      <use xlink:href="#DejaVuSans-66" x="220.458984"/>
      <use xlink:href="#DejaVuSans-6c" x="255.664062"/>
      <use xlink:href="#DejaVuSans-6f" x="283.447266"/>
      <use xlink:href="#DejaVuSans-77" x="344.628906"/>
     </g>
    </g>
    <g id="line2d_13">
     <path d="M 66.6 69.248562 
L 76.6 69.248562 
L 86.6 69.248562 
" style="fill: none; stroke: #ff7f0e; stroke-width: 1.5; stroke-linecap: square"/>
    </g>
    <g id="text_6">
     <!-- v0 flow -->
     <g transform="translate(94.6 72.748562)scale(0.1 -0.1)">
      <use xlink:href="#DejaVuSans-76"/>
      <use xlink:href="#DejaVuSans-30" x="59.179688"/>
      <use xlink:href="#DejaVuSans-20" x="122.802734"/>
      <use xlink:href="#DejaVuSans-66" x="154.589844"/>
      <use xlink:href="#DejaVuSans-6c" x="189.794922"/>
      <use xlink:href="#DejaVuSans-6f" x="217.578125"/>
      <use xlink:href="#DejaVuSans-77" x="278.759766"/>
     </g>
    </g>
    <g id="line2d_14">
     <path d="M 66.6 83.926687 
L 76.6 83.926687 
L 86.6 83.926687 
" style="fill: none; stroke: #2ca02c; stroke-width: 1.5; stroke-linecap: square"/>
    </g>
    <g id="text_7">
     <!-- vN flow -->
     <g transform="translate(94.6 87.426687)scale(0.1 -0.1)">
      <defs>
       <path id="DejaVuSans-4e" d="M 628 4666 
L 1478 4666 
L 3547 763 
L 3547 4666 
L 4159 4666 
L 4159 0 
L 3309 0 
L 1241 3903 
L 1241 0 
L 628 0 
L 628 4666 
z
" transform="scale(0.015625)"/>
      </defs>
      <use xlink:href="#DejaVuSans-76"/>
      <use xlink:href="#DejaVuSans-4e" x="59.179688"/>
      <use xlink:href="#DejaVuSans-20" x="133.984375"/>
      <use xlink:href="#DejaVuSans-66" x="165.771484"/>
      <use xlink:href="#DejaVuSans-6c" x="200.976562"/>
      <use xlink:href="#DejaVuSans-6f" x="228.759766"/>
      <use xlink:href="#DejaVuSans-77" x="289.941406"/>
     </g>
    </g>
   </g>
  </g>
  <g id="axes_2">
   <g id="patch_8">
    <path d="M 57.6 142.411034 
L 414.72 142.411034 
L 414.72 96.529655 
L 57.6 96.529655 
z
" style="fill: #ffffff"/>
   </g>
   <g id="matplotlib.axis_3">
    <g id="xtick_7">
     <g id="line2d_15">
      <g>
       <use xlink:href="#m466821cf3f" x="73.832727" y="142.411034" style="stroke: #000000; stroke-width: 0.8"/>
      </g>
     </g>
    </g>
    <g id="xtick_8">
     <g id="line2d_16">
      <g>
       <use xlink:href="#m466821cf3f" x="138.763636" y="142.411034" style="stroke: #000000; stroke-width: 0.8"/>
      </g>
     </g>
    </g>
    <g id="xtick_9">
     <g id="line2d_17">
      <g>
       <use xlink:href="#m466821cf3f" x="203.694545" y="142.411034" style="stroke: #000000; stroke-width: 0.8"/>
      </g>
     </g>
    </g>
    <g id="xtick_10">
     <g id="line2d_18">
      <g>
       <use xlink:href="#m466821cf3f" x="268.625455" y="142.411034" style="stroke: #000000; stroke-width: 0.8"/>
      </g>
     </g>
    </g>
    <g id="xtick_11">
     <g id="line2d_19">
      <g>
       <use xlink:href="#m466821cf3f" x="333.556364" y="142.411034" style="stroke: #000000; stroke-width: 0.8"/>
      </g>
     </g>
    </g>
    <g id="xtick_12">
     <g id="line2d_20">
      <g>
       <use xlink:href="#m466821cf3f" x="398.487273" y="142.411034" style="stroke: #000000; stroke-width: 0.8"/>
      </g>
     </g>
    </g>
   </g>
   <g id="matplotlib.axis_4">
    <g id="ytick_3">
     <g id="line2d_21">
      <g>
       <use xlink:href="#m16b4ab48ca" x="57.6" y="140.745253" style="stroke: #000000; stroke-width: 0.8"/>
      </g>
     </g>
     <g id="text_8">
      <!-- 0 -->
      <g transform="translate(44.2375 144.544472)scale(0.1 -0.1)">
       <use xlink:href="#DejaVuSans-30"/>
      </g>
     </g>
    </g>
    <g id="ytick_4">
     <g id="line2d_22">
      <g>
       <use xlink:href="#m16b4ab48ca" x="57.6" y="98.771642" style="stroke: #000000; stroke-width: 0.8"/>
      </g>
     </g>
     <g id="text_9">
      <!-- 1 -->
      <g transform="translate(44.2375 102.570861)scale(0.1 -0.1)">
       <use xlink:href="#DejaVuSans-31"/>
      </g>
     </g>
    </g>
   </g>
   <g id="line2d_23">
    <path d="M 73.832727 140.325517 
L 77.079273 123.977573 
L 80.325818 114.058314 
L 83.572364 108.040638 
L 86.818909 104.396453 
L 90.065455 102.178935 
L 93.312 100.84027 
L 96.558545 100.028785 
L 99.805091 99.534215 
L 103.051636 99.232931 
L 106.298182 99.056437 
L 109.544727 98.943289 
L 112.791273 98.874848 
L 116.037818 98.834374 
L 119.284364 98.809754 
L 122.530909 98.759471 
L 125.777455 98.615172 
L 129.024 98.615172 
L 132.270545 98.615172 
L 135.517091 98.615172 
L 138.763636 98.615172 
L 142.010182 98.615172 
L 145.256727 98.615172 
L 148.503273 98.615172 
L 151.749818 98.615172 
L 154.996364 98.615172 
L 158.242909 98.615172 
L 161.489455 98.615172 
L 164.736 98.615172 
L 167.982545 98.615172 
L 171.229091 98.651112 
L 174.475636 113.594311 
L 177.722182 122.624066 
L 180.968727 128.094011 
L 184.215273 131.414614 
L 187.461818 133.433571 
L 190.708364 134.655836 
L 193.954909 135.398946 
L 197.201455 135.851284 
L 200.448 136.126429 
L 203.694545 136.291544 
L 206.941091 136.39033 
L 210.187636 136.453381 
L 213.434182 136.490564 
L 216.680727 136.513091 
L 219.927273 136.526777 
L 223.173818 136.535106 
L 226.420364 136.540134 
L 229.666909 136.543034 
L 232.913455 136.544983 
L 236.16 136.546134 
L 239.406545 136.546811 
L 242.653091 136.547287 
L 245.899636 136.547498 
L 249.146182 136.547637 
L 252.392727 136.547733 
L 255.639273 136.547801 
L 258.885818 136.547848 
L 262.132364 136.547879 
L 265.378909 136.547889 
L 268.625455 136.548471 
L 271.872 138.032976 
L 275.118545 138.934334 
L 278.365091 139.481234 
L 281.611636 139.812712 
L 284.858182 140.014619 
L 288.104727 140.136506 
L 291.351273 140.211124 
L 294.597818 140.25621 
L 297.844364 140.283226 
L 301.090909 140.300297 
L 304.337455 140.309864 
L 307.584 140.315939 
L 310.830545 140.319814 
L 314.077091 140.322062 
L 317.323636 140.323453 
L 320.570182 140.324252 
L 323.816727 140.324751 
L 327.063273 140.325068 
L 330.309818 140.325234 
L 333.556364 140.325354 
L 336.802909 140.325441 
L 340.049455 140.325457 
L 343.296 140.32547 
L 346.542545 140.325483 
L 349.789091 140.325495 
L 353.035636 140.325508 
L 356.282182 140.325511 
L 359.528727 140.325512 
L 362.775273 140.325514 
L 366.021818 140.325516 
L 369.268364 140.325516 
L 372.514909 140.325516 
L 375.761455 140.325516 
L 379.008 140.325517 
L 382.254545 140.325517 
L 385.501091 140.325517 
L 388.747636 140.325517 
L 391.994182 140.325517 
L 395.240727 140.325517 
L 398.487273 140.325517 
" clip-path="url(#pc29d97f751)" style="fill: none; stroke: #1f77b4; stroke-width: 1.5; stroke-linecap: square"/>
   </g>
   <g id="line2d_24">
    <path d="M 73.832727 140.325517 
L 77.079273 124.021296 
L 80.325818 114.074815 
L 83.572364 108.048931 
L 86.818909 104.400843 
L 90.065455 102.181494 
L 93.312 100.841883 
L 96.558545 100.029651 
L 99.805091 99.534717 
L 103.051636 99.233274 
L 106.298182 99.05666 
L 109.544727 98.943435 
L 112.791273 98.874941 
L 116.037818 98.834423 
L 119.284364 98.809784 
L 122.530909 98.780291 
L 125.777455 98.69534 
L 129.024 98.69534 
L 132.270545 98.69534 
L 135.517091 98.69534 
L 138.763636 98.69534 
L 142.010182 98.69534 
L 145.256727 98.69534 
L 148.503273 98.69534 
L 151.749818 98.69534 
L 154.996364 98.69534 
L 158.242909 98.69534 
L 161.489455 98.69534 
L 164.736 98.69534 
L 167.982545 98.69534 
L 171.229091 98.705518 
L 174.475636 113.603533 
L 177.722182 122.632304 
L 180.968727 128.101486 
L 184.215273 131.420448 
L 187.461818 133.438289 
L 190.708364 134.659261 
L 193.954909 135.401362 
L 197.201455 135.852853 
L 200.448 136.127495 
L 203.694545 136.292116 
L 206.941091 136.390675 
L 210.187636 136.453623 
L 213.434182 136.490711 
L 216.680727 136.513185 
L 219.927273 136.526838 
L 223.173818 136.535141 
L 226.420364 136.540155 
L 229.666909 136.543048 
L 232.913455 136.544994 
L 236.16 136.54614 
L 239.406545 136.546814 
L 242.653091 136.547289 
L 245.899636 136.547499 
L 249.146182 136.547638 
L 252.392727 136.547734 
L 255.639273 136.547801 
L 258.885818 136.547848 
L 262.132364 136.547879 
L 265.378909 136.547889 
L 268.625455 136.547926 
L 271.872 138.00848 
L 275.118545 138.912203 
L 278.365091 139.461894 
L 281.611636 139.796781 
L 284.858182 140.001946 
L 288.104727 140.127357 
L 291.351273 140.204584 
L 294.597818 140.251616 
L 297.844364 140.280604 
L 301.090909 140.298108 
L 304.337455 140.308909 
L 307.584 140.315166 
L 310.830545 140.319407 
L 314.077091 140.321826 
L 317.323636 140.323311 
L 320.570182 140.324171 
L 323.816727 140.324698 
L 327.063273 140.325038 
L 330.309818 140.32522 
L 333.556364 140.325349 
L 336.802909 140.325439 
L 340.049455 140.325455 
L 343.296 140.325468 
L 346.542545 140.325481 
L 349.789091 140.325493 
L 353.035636 140.325506 
L 356.282182 140.325509 
L 359.528727 140.325511 
L 362.775273 140.325514 
L 366.021818 140.325516 
L 369.268364 140.325516 
L 372.514909 140.325516 
L 375.761455 140.325516 
L 379.008 140.325516 
L 382.254545 140.325516 
L 385.501091 140.325517 
L 388.747636 140.325517 
L 391.994182 140.325517 
L 395.240727 140.325517 
L 398.487273 140.325517 
" clip-path="url(#pc29d97f751)" style="fill: none; stroke: #ff7f0e; stroke-width: 1.5; stroke-linecap: square"/>
   </g>
   <g id="line2d_25">
    <path d="M 73.832727 140.325517 
L 77.079273 124.034906 
L 80.325818 114.079941 
L 83.572364 108.051508 
L 86.818909 104.402205 
L 90.065455 102.182288 
L 93.312 100.842383 
L 96.558545 100.02992 
L 99.805091 99.534873 
L 103.051636 99.23338 
L 106.298182 99.056729 
L 109.544727 98.943481 
L 112.791273 98.87497 
L 116.037818 98.834438 
L 119.284364 98.809793 
L 122.530909 98.784088 
L 125.777455 98.767622 
L 129.024 98.767622 
L 132.270545 98.767622 
L 135.517091 98.767622 
L 138.763636 98.767622 
L 142.010182 98.767622 
L 145.256727 98.767622 
L 148.503273 98.767622 
L 151.749818 98.767622 
L 154.996364 98.767622 
L 158.242909 98.767622 
L 161.489455 98.767622 
L 164.736 98.767622 
L 167.982545 98.767622 
L 171.229091 98.770594 
L 174.475636 113.626181 
L 177.722182 122.652534 
L 180.968727 128.119846 
L 184.215273 131.43479 
L 187.461818 133.449841 
L 190.708364 134.66777 
L 193.954909 135.407251 
L 197.201455 135.856734 
L 200.448 136.130055 
L 203.694545 136.293574 
L 206.941091 136.391597 
L 210.187636 136.454216 
L 213.434182 136.491072 
L 216.680727 136.513417 
L 219.927273 136.526987 
L 223.173818 136.535229 
L 226.420364 136.540207 
L 229.666909 136.543081 
L 232.913455 136.54502 
L 236.16 136.546156 
L 239.406545 136.546822 
L 242.653091 136.547294 
L 245.899636 136.547503 
L 249.146182 136.54764 
L 252.392727 136.547735 
L 255.639273 136.547802 
L 258.885818 136.547848 
L 262.132364 136.547879 
L 265.378909 136.547889 
L 268.625455 136.547889 
L 271.872 138.000908 
L 275.118545 138.905373 
L 278.365091 139.45594 
L 281.611636 139.791877 
L 284.858182 139.99803 
L 288.104727 140.124525 
L 291.351273 140.202545 
L 294.597818 140.250214 
L 297.844364 140.279733 
L 301.090909 140.297508 
L 304.337455 140.308575 
L 307.584 140.314923 
L 310.830545 140.319276 
L 314.077091 140.321752 
L 317.323636 140.323265 
L 320.570182 140.324145 
L 323.816727 140.324682 
L 327.063273 140.325028 
L 330.309818 140.325216 
L 333.556364 140.325347 
L 336.802909 140.325438 
L 340.049455 140.325454 
L 343.296 140.325468 
L 346.542545 140.32548 
L 349.789091 140.325493 
L 353.035636 140.325505 
L 356.282182 140.325509 
L 359.528727 140.325511 
L 362.775273 140.325513 
L 366.021818 140.325516 
L 369.268364 140.325516 
L 372.514909 140.325516 
L 375.761455 140.325516 
L 379.008 140.325516 
L 382.254545 140.325516 
L 385.501091 140.325517 
L 388.747636 140.325517 
L 391.994182 140.325517 
L 395.240727 140.325517 
L 398.487273 140.325517 
" clip-path="url(#pc29d97f751)" style="fill: none; stroke: #2ca02c; stroke-width: 1.5; stroke-linecap: square"/>
   </g>
   <g id="patch_9">
    <path d="M 57.6 142.411034 
L 57.6 96.529655 
" style="fill: none; stroke: #000000; stroke-width: 0.8; stroke-linejoin: miter; stroke-linecap: square"/>
   </g>
   <g id="patch_10">
    <path d="M 414.72 142.411034 
L 414.72 96.529655 
" style="fill: none; stroke: #000000; stroke-width: 0.8; stroke-linejoin: miter; stroke-linecap: square"/>
   </g>
   <g id="patch_11">
    <path d="M 57.6 142.411034 
L 414.72 142.411034 
" style="fill: none; stroke: #000000; stroke-width: 0.8; stroke-linejoin: miter; stroke-linecap: square"/>
   </g>
   <g id="patch_12">
    <path d="M 57.6 96.529655 
L 414.72 96.529655 
" style="fill: none; stroke: #000000; stroke-width: 0.8; stroke-linejoin: miter; stroke-linecap: square"/>
   </g>
   <g id="text_10">
    <!-- Pressure -->
    <g transform="translate(210.546562 90.529655)scale(0.12 -0.12)">
     <defs>
      <path id="DejaVuSans-50" d="M 1259 4147 
L 1259 2394 
L 2053 2394 
Q 2494 2394 2734 2622 
Q 2975 2850 2975 3272 
Q 2975 3691 2734 3919 
Q 2494 4147 2053 4147 
L 1259 4147 
z
M 628 4666 
L 2053 4666 
Q 2838 4666 3239 4311 
Q 3641 3956 3641 3272 
Q 3641 2581 3239 2228 
Q 2838 1875 2053 1875 
L 1259 1875 
L 1259 0 
L 628 0 
L 628 4666 
z
" transform="scale(0.015625)"/>
      <path id="DejaVuSans-75" d="M 544 1381 
L 544 3500 
L 1119 3500 
L 1119 1403 
Q 1119 906 1312 657 
Q 1506 409 1894 409 
Q 2359 409 2629 706 
Q 2900 1003 2900 1516 
L 2900 3500 
L 3475 3500 
L 3475 0 
L 2900 0 
L 2900 538 
Q 2691 219 2414 64 
Q 2138 -91 1772 -91 
Q 1169 -91 856 284 
Q 544 659 544 1381 
z
M 1991 3584 
L 1991 3584 
z
" transform="scale(0.015625)"/>
     </defs>
     <use xlink:href="#DejaVuSans-50"/>
     <use xlink:href="#DejaVuSans-72" x="58.552734"/>
     <use xlink:href="#DejaVuSans-65" x="97.416016"/>
     <use xlink:href="#DejaVuSans-73" x="158.939453"/>
     <use xlink:href="#DejaVuSans-73" x="211.039062"/>
     <use xlink:href="#DejaVuSans-75" x="263.138672"/>
     <use xlink:href="#DejaVuSans-72" x="326.517578"/>
     <use xlink:href="#DejaVuSans-65" x="365.380859"/>
    </g>
   </g>
   <g id="legend_2">
    <g id="patch_13">
     <path d="M 350.823125 137.411034 
L 407.72 137.411034 
Q 409.72 137.411034 409.72 135.411034 
L 409.72 92.376659 
Q 409.72 90.376659 407.72 90.376659 
L 350.823125 90.376659 
Q 348.823125 90.376659 348.823125 92.376659 
L 348.823125 135.411034 
Q 348.823125 137.411034 350.823125 137.411034 
z
" style="fill: #ffffff; opacity: 0.8; stroke: #cccccc; stroke-linejoin: miter"/>
    </g>
    <g id="line2d_26">
     <path d="M 352.823125 98.475097 
L 362.823125 98.475097 
L 372.823125 98.475097 
" style="fill: none; stroke: #1f77b4; stroke-width: 1.5; stroke-linecap: square"/>
    </g>
    <g id="text_11">
     <!-- P1 -->
     <g transform="translate(380.823125 101.975097)scale(0.1 -0.1)">
      <use xlink:href="#DejaVuSans-50"/>
      <use xlink:href="#DejaVuSans-31" x="60.302734"/>
     </g>
    </g>
    <g id="line2d_27">
     <path d="M 352.823125 113.153222 
L 362.823125 113.153222 
L 372.823125 113.153222 
" style="fill: none; stroke: #ff7f0e; stroke-width: 1.5; stroke-linecap: square"/>
    </g>
    <g id="text_12">
     <!-- Pmid -->
     <g transform="translate(380.823125 116.653222)scale(0.1 -0.1)">
      <use xlink:href="#DejaVuSans-50"/>
      <use xlink:href="#DejaVuSans-6d" x="60.302734"/>
      <use xlink:href="#DejaVuSans-69" x="157.714844"/>
      <use xlink:href="#DejaVuSans-64" x="185.498047"/>
     </g>
    </g>
    <g id="line2d_28">
     <path d="M 352.823125 127.831347 
L 362.823125 127.831347 
L 372.823125 127.831347 
" style="fill: none; stroke: #2ca02c; stroke-width: 1.5; stroke-linecap: square"/>
    </g>
    <g id="text_13">
     <!-- PN -->
     <g transform="translate(380.823125 131.331347)scale(0.1 -0.1)">
      <use xlink:href="#DejaVuSans-50"/>
      <use xlink:href="#DejaVuSans-4e" x="60.302734"/>
     </g>
    </g>
   </g>
  </g>
  <g id="axes_3">
   <g id="patch_14">
    <path d="M 57.6 197.46869 
L 414.72 197.46869 
L 414.72 151.58731 
L 57.6 151.58731 
z
" style="fill: #ffffff"/>
   </g>
   <g id="matplotlib.axis_5">
    <g id="xtick_13">
     <g id="line2d_29">
      <g>
       <use xlink:href="#m466821cf3f" x="73.832727" y="197.46869" style="stroke: #000000; stroke-width: 0.8"/>
      </g>
     </g>
    </g>
    <g id="xtick_14">
     <g id="line2d_30">
      <g>
       <use xlink:href="#m466821cf3f" x="138.763636" y="197.46869" style="stroke: #000000; stroke-width: 0.8"/>
      </g>
     </g>
    </g>
    <g id="xtick_15">
     <g id="line2d_31">
      <g>
       <use xlink:href="#m466821cf3f" x="203.694545" y="197.46869" style="stroke: #000000; stroke-width: 0.8"/>
      </g>
     </g>
    </g>
    <g id="xtick_16">
     <g id="line2d_32">
      <g>
       <use xlink:href="#m466821cf3f" x="268.625455" y="197.46869" style="stroke: #000000; stroke-width: 0.8"/>
      </g>
     </g>
    </g>
    <g id="xtick_17">
     <g id="line2d_33">
      <g>
       <use xlink:href="#m466821cf3f" x="333.556364" y="197.46869" style="stroke: #000000; stroke-width: 0.8"/>
      </g>
     </g>
    </g>
    <g id="xtick_18">
     <g id="line2d_34">
      <g>
       <use xlink:href="#m466821cf3f" x="398.487273" y="197.46869" style="stroke: #000000; stroke-width: 0.8"/>
      </g>
     </g>
    </g>
   </g>
   <g id="matplotlib.axis_6">
    <g id="ytick_5">
     <g id="line2d_35">
      <g>
       <use xlink:href="#m16b4ab48ca" x="57.6" y="195.325348" style="stroke: #000000; stroke-width: 0.8"/>
      </g>
     </g>
     <g id="text_14">
      <!-- 0.050 -->
      <g transform="translate(21.971875 199.124567)scale(0.1 -0.1)">
       <defs>
        <path id="DejaVuSans-2e" d="M 684 794 
L 1344 794 
L 1344 0 
L 684 0 
L 684 794 
z
" transform="scale(0.015625)"/>
        <path id="DejaVuSans-35" d="M 691 4666 
L 3169 4666 
L 3169 4134 
L 1269 4134 
L 1269 2991 
Q 1406 3038 1543 3061 
Q 1681 3084 1819 3084 
Q 2600 3084 3056 2656 
Q 3513 2228 3513 1497 
Q 3513 744 3044 326 
Q 2575 -91 1722 -91 
Q 1428 -91 1123 -41 
Q 819 9 494 109 
L 494 744 
Q 775 591 1075 516 
Q 1375 441 1709 441 
Q 2250 441 2565 725 
Q 2881 1009 2881 1497 
Q 2881 1984 2565 2268 
Q 2250 2553 1709 2553 
Q 1456 2553 1204 2497 
Q 953 2441 691 2322 
L 691 4666 
z
" transform="scale(0.015625)"/>
       </defs>
       <use xlink:href="#DejaVuSans-30"/>
       <use xlink:href="#DejaVuSans-2e" x="63.623047"/>
       <use xlink:href="#DejaVuSans-30" x="95.410156"/>
       <use xlink:href="#DejaVuSans-35" x="159.033203"/>
       <use xlink:href="#DejaVuSans-30" x="222.65625"/>
      </g>
     </g>
    </g>
    <g id="ytick_6">
     <g id="line2d_36">
      <g>
       <use xlink:href="#m16b4ab48ca" x="57.6" y="171.968321" style="stroke: #000000; stroke-width: 0.8"/>
      </g>
     </g>
     <g id="text_15">
      <!-- 0.055 -->
      <g transform="translate(21.971875 175.76754)scale(0.1 -0.1)">
       <use xlink:href="#DejaVuSans-30"/>
       <use xlink:href="#DejaVuSans-2e" x="63.623047"/>
       <use xlink:href="#DejaVuSans-30" x="95.410156"/>
       <use xlink:href="#DejaVuSans-35" x="159.033203"/>
       <use xlink:href="#DejaVuSans-35" x="222.65625"/>
      </g>
     </g>
    </g>
    <g id="text_16">
     <!-- fraction -->
     <g transform="translate(15.892187 193.73425)rotate(-90)scale(0.1 -0.1)">
      <use xlink:href="#DejaVuSans-66"/>
      <use xlink:href="#DejaVuSans-72" x="35.205078"/>
      <use xlink:href="#DejaVuSans-61" x="76.318359"/>
      <use xlink:href="#DejaVuSans-63" x="137.597656"/>
      <use xlink:href="#DejaVuSans-74" x="192.578125"/>
      <use xlink:href="#DejaVuSans-69" x="231.787109"/>
      <use xlink:href="#DejaVuSans-6f" x="259.570312"/>
      <use xlink:href="#DejaVuSans-6e" x="320.751953"/>
     </g>
    </g>
   </g>
   <g id="line2d_37">
    <path d="M 73.832727 153.936531 
L 77.079273 195.37224 
L 80.325818 195.383172 
L 83.572364 195.35194 
L 86.818909 193.50729 
L 90.065455 193.397296 
L 93.312 195.062937 
L 96.558545 194.967358 
L 99.805091 194.662313 
L 103.051636 194.123281 
L 106.298182 192.644775 
L 109.544727 190.472307 
L 112.791273 188.247975 
L 116.037818 186.469123 
L 119.284364 186.401717 
L 122.530909 186.945435 
L 125.777455 195.325304 
L 129.024 195.32534 
L 132.270545 195.325343 
L 135.517091 195.325345 
L 138.763636 195.325346 
L 142.010182 195.325347 
L 145.256727 195.325347 
L 148.503273 195.325347 
L 151.749818 195.325347 
L 154.996364 195.325348 
L 158.242909 195.325348 
L 161.489455 195.325348 
L 164.736 195.325348 
L 167.982545 195.325348 
L 171.229091 195.325348 
L 174.475636 195.323773 
L 177.722182 195.317316 
L 180.968727 195.302086 
L 184.215273 195.273302 
L 187.461818 195.227808 
L 190.708364 195.167112 
L 193.954909 195.09808 
L 197.201455 195.029322 
L 200.448 194.968195 
L 203.694545 194.918517 
L 206.941091 194.880483 
L 210.187636 194.85345 
L 213.434182 194.834582 
L 216.680727 194.821812 
L 219.927273 194.813405 
L 223.173818 194.807911 
L 226.420364 194.804336 
L 229.666909 194.802132 
L 232.913455 194.800685 
L 236.16 194.79976 
L 239.406545 194.79917 
L 242.653091 194.798727 
L 245.899636 194.798486 
L 249.146182 194.798311 
L 252.392727 194.798187 
L 255.639273 194.798103 
L 258.885818 194.798044 
L 262.132364 194.797998 
L 265.378909 194.797975 
L 268.625455 194.797977 
L 271.872 194.644856 
L 275.118545 194.010895 
L 278.365091 192.531973 
L 281.611636 189.800092 
L 284.858182 185.622512 
L 288.104727 180.258653 
L 291.351273 174.454046 
L 294.597818 169.031234 
L 297.844364 164.522999 
L 301.090909 161.101225 
L 304.337455 158.627321 
L 307.584 157.061909 
L 310.830545 155.904128 
L 314.077091 155.153712 
L 317.323636 154.679493 
L 320.570182 154.389627 
L 323.816727 154.214935 
L 327.063273 154.102139 
L 330.309818 154.037982 
L 333.556364 153.994223 
L 336.802909 153.963492 
L 340.049455 153.959848 
L 343.296 153.956314 
L 346.542545 153.952814 
L 349.789091 153.949313 
L 353.035636 153.945813 
L 356.282182 153.943461 
L 359.528727 153.941253 
L 362.775273 153.939045 
L 366.021818 153.936848 
L 369.268364 153.935511 
L 372.514909 153.934174 
L 375.761455 153.932837 
L 379.008 153.931499 
L 382.254545 153.930162 
L 385.501091 153.928825 
L 388.747636 153.927488 
L 391.994182 153.926151 
L 395.240727 153.924813 
L 398.487273 153.923476 
" clip-path="url(#pad5521cd39)" style="fill: none; stroke: #1f77b4; stroke-width: 1.5; stroke-linecap: square"/>
   </g>
   <g id="line2d_38">
    <path d="M 73.832727 153.684657 
L 77.079273 182.560048 
L 80.325818 188.556865 
L 83.572364 190.764712 
L 86.818909 191.890723 
L 90.065455 192.598528 
L 93.312 193.068354 
L 96.558545 193.424821 
L 99.805091 193.696859 
L 103.051636 193.911317 
L 106.298182 194.081568 
L 109.544727 194.220228 
L 112.791273 194.336977 
L 116.037818 194.441455 
L 119.284364 194.532686 
L 122.530909 194.612761 
L 125.777455 193.855342 
L 129.024 195.293868 
L 132.270545 195.324434 
L 135.517091 195.324942 
L 138.763636 195.325338 
L 142.010182 195.325345 
L 145.256727 195.32535 
L 148.503273 195.325349 
L 151.749818 195.325349 
L 154.996364 195.325349 
L 158.242909 195.325348 
L 161.489455 195.325348 
L 164.736 195.325348 
L 167.982545 195.325348 
L 171.229091 195.325348 
L 174.475636 195.323781 
L 177.722182 195.317315 
L 180.968727 195.302049 
L 184.215273 195.273183 
L 187.461818 195.227553 
L 190.708364 195.166735 
L 193.954909 195.097628 
L 197.201455 195.028883 
L 200.448 194.967862 
L 203.694545 194.918339 
L 206.941091 194.880459 
L 210.187636 194.853554 
L 213.434182 194.834787 
L 216.680727 194.822091 
L 219.927273 194.813734 
L 223.173818 194.808271 
L 226.420364 194.804716 
L 229.666909 194.802522 
L 232.913455 194.801081 
L 236.16 194.800158 
L 239.406545 194.799568 
L 242.653091 194.799125 
L 245.899636 194.79888 
L 249.146182 194.798703 
L 252.392727 194.798575 
L 255.639273 194.798487 
L 258.885818 194.798425 
L 262.132364 194.798376 
L 265.378909 194.798351 
L 268.625455 194.79835 
L 271.872 194.651207 
L 275.118545 194.032939 
L 278.365091 192.593325 
L 281.611636 189.937315 
L 284.858182 185.869138 
L 288.104727 180.605679 
L 291.351273 174.850554 
L 294.597818 169.382487 
L 297.844364 164.782871 
L 301.090909 161.223768 
L 304.337455 158.66308 
L 307.584 156.999435 
L 310.830545 155.762367 
L 314.077091 154.954147 
L 317.323636 154.443459 
L 320.570182 154.130832 
L 323.816727 153.943707 
L 327.063273 153.823878 
L 330.309818 153.756734 
L 333.556364 153.711947 
L 336.802909 153.681392 
L 340.049455 153.680238 
L 343.296 153.678878 
L 346.542545 153.677455 
L 349.789091 153.676033 
L 353.035636 153.67461 
L 356.282182 153.674078 
L 359.528727 153.673659 
L 362.775273 153.67324 
L 366.021818 153.672828 
L 369.268364 153.672964 
L 372.514909 153.673101 
L 375.761455 153.673238 
L 379.008 153.673374 
L 382.254545 153.673511 
L 385.501091 153.673648 
L 388.747636 153.673784 
L 391.994182 153.673921 
L 395.240727 153.674058 
L 398.487273 153.674194 
" clip-path="url(#pad5521cd39)" style="fill: none; stroke: #ff7f0e; stroke-width: 1.5; stroke-linecap: square"/>
   </g>
   <g id="patch_15">
    <path d="M 57.6 197.46869 
L 57.6 151.58731 
" style="fill: none; stroke: #000000; stroke-width: 0.8; stroke-linejoin: miter; stroke-linecap: square"/>
   </g>
   <g id="patch_16">
    <path d="M 414.72 197.46869 
L 414.72 151.58731 
" style="fill: none; stroke: #000000; stroke-width: 0.8; stroke-linejoin: miter; stroke-linecap: square"/>
   </g>
   <g id="patch_17">
    <path d="M 57.6 197.46869 
L 414.72 197.46869 
" style="fill: none; stroke: #000000; stroke-width: 0.8; stroke-linejoin: miter; stroke-linecap: square"/>
   </g>
   <g id="patch_18">
    <path d="M 57.6 151.58731 
L 414.72 151.58731 
" style="fill: none; stroke: #000000; stroke-width: 0.8; stroke-linejoin: miter; stroke-linecap: square"/>
   </g>
   <g id="text_17">
    <!-- yA -->
    <g transform="translate(228.504375 145.58731)scale(0.12 -0.12)">
     <defs>
      <path id="DejaVuSans-41" d="M 2188 4044 
L 1331 1722 
L 3047 1722 
L 2188 4044 
z
M 1831 4666 
L 2547 4666 
L 4325 0 
L 3669 0 
L 3244 1197 
L 1141 1197 
L 716 0 
L 50 0 
L 1831 4666 
z
" transform="scale(0.015625)"/>
     </defs>
     <use xlink:href="#DejaVuSans-79"/>
     <use xlink:href="#DejaVuSans-41" x="59.179688"/>
    </g>
   </g>
   <g id="legend_3">
    <g id="patch_19">
     <path d="M 330.030938 188.94356 
L 407.72 188.94356 
Q 409.72 188.94356 409.72 186.94356 
L 409.72 158.58731 
Q 409.72 156.58731 407.72 156.58731 
L 330.030938 156.58731 
Q 328.030938 156.58731 328.030938 158.58731 
L 328.030938 186.94356 
Q 328.030938 188.94356 330.030938 188.94356 
z
" style="fill: #ffffff; opacity: 0.8; stroke: #cccccc; stroke-linejoin: miter"/>
    </g>
    <g id="line2d_39">
     <path d="M 332.030938 164.685748 
L 342.030938 164.685748 
L 352.030938 164.685748 
" style="fill: none; stroke: #1f77b4; stroke-width: 1.5; stroke-linecap: square"/>
    </g>
    <g id="text_18">
     <!-- yA0 (in) -->
     <g transform="translate(360.030938 168.185748)scale(0.1 -0.1)">
      <use xlink:href="#DejaVuSans-79"/>
      <use xlink:href="#DejaVuSans-41" x="59.179688"/>
      <use xlink:href="#DejaVuSans-30" x="127.587891"/>
      <use xlink:href="#DejaVuSans-20" x="191.210938"/>
      <use xlink:href="#DejaVuSans-28" x="222.998047"/>
      <use xlink:href="#DejaVuSans-69" x="262.011719"/>
      <use xlink:href="#DejaVuSans-6e" x="289.794922"/>
      <use xlink:href="#DejaVuSans-29" x="353.173828"/>
     </g>
    </g>
    <g id="line2d_40">
     <path d="M 332.030938 179.363873 
L 342.030938 179.363873 
L 352.030938 179.363873 
" style="fill: none; stroke: #ff7f0e; stroke-width: 1.5; stroke-linecap: square"/>
    </g>
    <g id="text_19">
     <!-- yAL (out) -->
     <g transform="translate(360.030938 182.863873)scale(0.1 -0.1)">
      <defs>
       <path id="DejaVuSans-4c" d="M 628 4666 
L 1259 4666 
L 1259 531 
L 3531 531 
L 3531 0 
L 628 0 
L 628 4666 
z
" transform="scale(0.015625)"/>
      </defs>
      <use xlink:href="#DejaVuSans-79"/>
      <use xlink:href="#DejaVuSans-41" x="59.179688"/>
      <use xlink:href="#DejaVuSans-4c" x="127.587891"/>
      <use xlink:href="#DejaVuSans-20" x="183.300781"/>
      <use xlink:href="#DejaVuSans-28" x="215.087891"/>
      <use xlink:href="#DejaVuSans-6f" x="254.101562"/>
      <use xlink:href="#DejaVuSans-75" x="315.283203"/>
      <use xlink:href="#DejaVuSans-74" x="378.662109"/>
      <use xlink:href="#DejaVuSans-29" x="417.871094"/>
     </g>
    </g>
   </g>
  </g>
  <g id="axes_4">
   <g id="patch_20">
    <path d="M 57.6 252.526345 
L 414.72 252.526345 
L 414.72 206.644966 
L 57.6 206.644966 
z
" style="fill: #ffffff"/>
   </g>
   <g id="matplotlib.axis_7">
    <g id="xtick_19">
     <g id="line2d_41">
      <g>
       <use xlink:href="#m466821cf3f" x="73.832727" y="252.526345" style="stroke: #000000; stroke-width: 0.8"/>
      </g>
     </g>
    </g>
    <g id="xtick_20">
     <g id="line2d_42">
      <g>
       <use xlink:href="#m466821cf3f" x="138.763636" y="252.526345" style="stroke: #000000; stroke-width: 0.8"/>
      </g>
     </g>
    </g>
    <g id="xtick_21">
     <g id="line2d_43">
      <g>
       <use xlink:href="#m466821cf3f" x="203.694545" y="252.526345" style="stroke: #000000; stroke-width: 0.8"/>
      </g>
     </g>
    </g>
    <g id="xtick_22">
     <g id="line2d_44">
      <g>
       <use xlink:href="#m466821cf3f" x="268.625455" y="252.526345" style="stroke: #000000; stroke-width: 0.8"/>
      </g>
     </g>
    </g>
    <g id="xtick_23">
     <g id="line2d_45">
      <g>
       <use xlink:href="#m466821cf3f" x="333.556364" y="252.526345" style="stroke: #000000; stroke-width: 0.8"/>
      </g>
     </g>
    </g>
    <g id="xtick_24">
     <g id="line2d_46">
      <g>
       <use xlink:href="#m466821cf3f" x="398.487273" y="252.526345" style="stroke: #000000; stroke-width: 0.8"/>
      </g>
     </g>
    </g>
   </g>
   <g id="matplotlib.axis_8">
    <g id="ytick_7">
     <g id="line2d_47">
      <g>
       <use xlink:href="#m16b4ab48ca" x="57.6" y="233.445106" style="stroke: #000000; stroke-width: 0.8"/>
      </g>
     </g>
     <g id="text_20">
      <!-- 0.895 -->
      <g transform="translate(21.971875 237.244324)scale(0.1 -0.1)">
       <defs>
        <path id="DejaVuSans-38" d="M 2034 2216 
Q 1584 2216 1326 1975 
Q 1069 1734 1069 1313 
Q 1069 891 1326 650 
Q 1584 409 2034 409 
Q 2484 409 2743 651 
Q 3003 894 3003 1313 
Q 3003 1734 2745 1975 
Q 2488 2216 2034 2216 
z
M 1403 2484 
Q 997 2584 770 2862 
Q 544 3141 544 3541 
Q 544 4100 942 4425 
Q 1341 4750 2034 4750 
Q 2731 4750 3128 4425 
Q 3525 4100 3525 3541 
Q 3525 3141 3298 2862 
Q 3072 2584 2669 2484 
Q 3125 2378 3379 2068 
Q 3634 1759 3634 1313 
Q 3634 634 3220 271 
Q 2806 -91 2034 -91 
Q 1263 -91 848 271 
Q 434 634 434 1313 
Q 434 1759 690 2068 
Q 947 2378 1403 2484 
z
M 1172 3481 
Q 1172 3119 1398 2916 
Q 1625 2713 2034 2713 
Q 2441 2713 2670 2916 
Q 2900 3119 2900 3481 
Q 2900 3844 2670 4047 
Q 2441 4250 2034 4250 
Q 1625 4250 1398 4047 
Q 1172 3844 1172 3481 
z
" transform="scale(0.015625)"/>
        <path id="DejaVuSans-39" d="M 703 97 
L 703 672 
Q 941 559 1184 500 
Q 1428 441 1663 441 
Q 2288 441 2617 861 
Q 2947 1281 2994 2138 
Q 2813 1869 2534 1725 
Q 2256 1581 1919 1581 
Q 1219 1581 811 2004 
Q 403 2428 403 3163 
Q 403 3881 828 4315 
Q 1253 4750 1959 4750 
Q 2769 4750 3195 4129 
Q 3622 3509 3622 2328 
Q 3622 1225 3098 567 
Q 2575 -91 1691 -91 
Q 1453 -91 1209 -44 
Q 966 3 703 97 
z
M 1959 2075 
Q 2384 2075 2632 2365 
Q 2881 2656 2881 3163 
Q 2881 3666 2632 3958 
Q 2384 4250 1959 4250 
Q 1534 4250 1286 3958 
Q 1038 3666 1038 3163 
Q 1038 2656 1286 2365 
Q 1534 2075 1959 2075 
z
" transform="scale(0.015625)"/>
       </defs>
       <use xlink:href="#DejaVuSans-30"/>
       <use xlink:href="#DejaVuSans-2e" x="63.623047"/>
       <use xlink:href="#DejaVuSans-38" x="95.410156"/>
       <use xlink:href="#DejaVuSans-39" x="159.033203"/>
       <use xlink:href="#DejaVuSans-35" x="222.65625"/>
      </g>
     </g>
    </g>
    <g id="ytick_8">
     <g id="line2d_48">
      <g>
       <use xlink:href="#m16b4ab48ca" x="57.6" y="208.788308" style="stroke: #000000; stroke-width: 0.8"/>
      </g>
     </g>
     <g id="text_21">
      <!-- 0.900 -->
      <g transform="translate(21.971875 212.587527)scale(0.1 -0.1)">
       <use xlink:href="#DejaVuSans-30"/>
       <use xlink:href="#DejaVuSans-2e" x="63.623047"/>
       <use xlink:href="#DejaVuSans-39" x="95.410156"/>
       <use xlink:href="#DejaVuSans-30" x="159.033203"/>
       <use xlink:href="#DejaVuSans-30" x="222.65625"/>
      </g>
     </g>
    </g>
    <g id="text_22">
     <!-- fraction -->
     <g transform="translate(15.892187 248.791905)rotate(-90)scale(0.1 -0.1)">
      <use xlink:href="#DejaVuSans-66"/>
      <use xlink:href="#DejaVuSans-72" x="35.205078"/>
      <use xlink:href="#DejaVuSans-61" x="76.318359"/>
      <use xlink:href="#DejaVuSans-63" x="137.597656"/>
      <use xlink:href="#DejaVuSans-74" x="192.578125"/>
      <use xlink:href="#DejaVuSans-69" x="231.787109"/>
      <use xlink:href="#DejaVuSans-6f" x="259.570312"/>
      <use xlink:href="#DejaVuSans-6e" x="320.751953"/>
     </g>
    </g>
   </g>
   <g id="line2d_49">
    <path d="M 73.832727 250.177116 
L 77.079273 208.741415 
L 80.325818 208.730483 
L 83.572364 208.761716 
L 86.818909 210.606423 
L 90.065455 210.71642 
L 93.312 209.050728 
L 96.558545 209.146314 
L 99.805091 209.451382 
L 103.051636 209.990455 
L 106.298182 211.469072 
L 109.544727 213.641705 
L 112.791273 215.866204 
L 116.037818 217.64519 
L 119.284364 217.712602 
L 122.530909 217.168843 
L 125.777455 208.788353 
L 129.024 208.788316 
L 132.270545 208.788313 
L 135.517091 208.788312 
L 138.763636 208.788311 
L 142.010182 208.78831 
L 145.256727 208.788309 
L 148.503273 208.788309 
L 151.749818 208.788309 
L 154.996364 208.788309 
L 158.242909 208.788309 
L 161.489455 208.788309 
L 164.736 208.788309 
L 167.982545 208.788309 
L 171.229091 208.788309 
L 174.475636 208.789884 
L 177.722182 208.796341 
L 180.968727 208.811572 
L 184.215273 208.840359 
L 187.461818 208.885857 
L 190.708364 208.946558 
L 193.954909 209.015595 
L 197.201455 209.084359 
L 200.448 209.145491 
L 203.694545 209.195172 
L 206.941091 209.233209 
L 210.187636 209.260243 
L 213.434182 209.279113 
L 216.680727 209.291884 
L 219.927273 209.300291 
L 223.173818 209.305785 
L 226.420364 209.30936 
L 229.666909 209.311565 
L 232.913455 209.313012 
L 236.16 209.313937 
L 239.406545 209.314527 
L 242.653091 209.314969 
L 245.899636 209.315211 
L 249.146182 209.315385 
L 252.392727 209.31551 
L 255.639273 209.315594 
L 258.885818 209.315653 
L 262.132364 209.315699 
L 265.378909 209.315722 
L 268.625455 209.31572 
L 271.872 209.468854 
L 275.118545 210.102865 
L 278.365091 211.581895 
L 281.611636 214.31395 
L 284.858182 218.491749 
L 288.104727 223.855812 
L 291.351273 229.660543 
L 294.597818 235.083366 
L 297.844364 239.591517 
L 301.090909 243.013153 
L 304.337455 245.486903 
L 307.584 247.052179 
L 310.830545 248.209841 
L 314.077091 248.960164 
L 317.323636 249.434311 
L 320.570182 249.724126 
L 323.816727 249.898783 
L 327.063273 250.011554 
L 330.309818 250.075695 
L 333.556364 250.119444 
L 336.802909 250.150166 
L 340.049455 250.153808 
L 343.296 250.157342 
L 346.542545 250.160842 
L 349.789091 250.164342 
L 353.035636 250.167842 
L 356.282182 250.170194 
L 359.528727 250.172401 
L 362.775273 250.174609 
L 366.021818 250.176806 
L 369.268364 250.178143 
L 372.514909 250.17948 
L 375.761455 250.180817 
L 379.008 250.182154 
L 382.254545 250.183491 
L 385.501091 250.184828 
L 388.747636 250.186165 
L 391.994182 250.187503 
L 395.240727 250.18884 
L 398.487273 250.190177 
" clip-path="url(#p21aefb4561)" style="fill: none; stroke: #1f77b4; stroke-width: 1.5; stroke-linecap: square"/>
   </g>
   <g id="line2d_50">
    <path d="M 73.832727 250.42899 
L 77.079273 221.553515 
L 80.325818 215.556716 
L 83.572364 213.348878 
L 86.818909 212.222874 
L 90.065455 211.515073 
L 93.312 211.04525 
L 96.558545 210.688785 
L 99.805091 210.416748 
L 103.051636 210.202292 
L 106.298182 210.032041 
L 109.544727 209.893383 
L 112.791273 209.776635 
L 116.037818 209.672157 
L 119.284364 209.580927 
L 122.530909 209.500852 
L 125.777455 210.258417 
L 129.024 208.819791 
L 132.270545 208.789222 
L 135.517091 208.788715 
L 138.763636 208.788318 
L 142.010182 208.788311 
L 145.256727 208.788307 
L 148.503273 208.788307 
L 151.749818 208.788308 
L 154.996364 208.788308 
L 158.242909 208.788308 
L 161.489455 208.788308 
L 164.736 208.788308 
L 167.982545 208.788308 
L 171.229091 208.788308 
L 174.475636 208.789875 
L 177.722182 208.796338 
L 180.968727 208.81161 
L 184.215273 208.840475 
L 187.461818 208.886108 
L 190.708364 208.946936 
L 193.954909 209.016054 
L 197.201455 209.084798 
L 200.448 209.145831 
L 203.694545 209.195364 
L 206.941091 209.233247 
L 210.187636 209.26015 
L 213.434182 209.278916 
L 216.680727 209.291612 
L 219.927273 209.299969 
L 223.173818 209.305431 
L 226.420364 209.308985 
L 229.666909 209.311179 
L 232.913455 209.31262 
L 236.16 209.313543 
L 239.406545 209.314133 
L 242.653091 209.314576 
L 245.899636 209.314821 
L 249.146182 209.314998 
L 252.392727 209.315126 
L 255.639273 209.315214 
L 258.885818 209.315276 
L 262.132364 209.315325 
L 265.378909 209.31535 
L 268.625455 209.31535 
L 271.872 209.462505 
L 275.118545 210.080823 
L 278.365091 211.520541 
L 281.611636 214.17672 
L 284.858182 218.245111 
L 288.104727 223.508773 
L 291.351273 229.264025 
L 294.597818 234.732112 
L 297.844364 239.331652 
L 301.090909 242.890622 
L 304.337455 245.451158 
L 307.584 247.114666 
L 310.830545 248.351615 
L 314.077091 249.159738 
L 317.323636 249.670353 
L 320.570182 249.982926 
L 323.816727 250.170014 
L 327.063273 250.289817 
L 330.309818 250.356944 
L 333.556364 250.40172 
L 336.802909 250.432266 
L 340.049455 250.433419 
L 343.296 250.434778 
L 346.542545 250.436201 
L 349.789091 250.437623 
L 353.035636 250.439046 
L 356.282182 250.439577 
L 359.528727 250.439996 
L 362.775273 250.440415 
L 366.021818 250.440828 
L 369.268364 250.440691 
L 372.514909 250.440554 
L 375.761455 250.440418 
L 379.008 250.440281 
L 382.254545 250.440144 
L 385.501091 250.440008 
L 388.747636 250.439871 
L 391.994182 250.439734 
L 395.240727 250.439598 
L 398.487273 250.439461 
" clip-path="url(#p21aefb4561)" style="fill: none; stroke: #ff7f0e; stroke-width: 1.5; stroke-linecap: square"/>
   </g>
   <g id="patch_21">
    <path d="M 57.6 252.526345 
L 57.6 206.644966 
" style="fill: none; stroke: #000000; stroke-width: 0.8; stroke-linejoin: miter; stroke-linecap: square"/>
   </g>
   <g id="patch_22">
    <path d="M 414.72 252.526345 
L 414.72 206.644966 
" style="fill: none; stroke: #000000; stroke-width: 0.8; stroke-linejoin: miter; stroke-linecap: square"/>
   </g>
   <g id="patch_23">
    <path d="M 57.6 252.526345 
L 414.72 252.526345 
" style="fill: none; stroke: #000000; stroke-width: 0.8; stroke-linejoin: miter; stroke-linecap: square"/>
   </g>
   <g id="patch_24">
    <path d="M 57.6 206.644966 
L 414.72 206.644966 
" style="fill: none; stroke: #000000; stroke-width: 0.8; stroke-linejoin: miter; stroke-linecap: square"/>
   </g>
   <g id="text_23">
    <!-- yB -->
    <g transform="translate(228.492188 200.644966)scale(0.12 -0.12)">
     <defs>
      <path id="DejaVuSans-42" d="M 1259 2228 
L 1259 519 
L 2272 519 
Q 2781 519 3026 730 
Q 3272 941 3272 1375 
Q 3272 1813 3026 2020 
Q 2781 2228 2272 2228 
L 1259 2228 
z
M 1259 4147 
L 1259 2741 
L 2194 2741 
Q 2656 2741 2882 2914 
Q 3109 3088 3109 3444 
Q 3109 3797 2882 3972 
Q 2656 4147 2194 4147 
L 1259 4147 
z
M 628 4666 
L 2241 4666 
Q 2963 4666 3353 4366 
Q 3744 4066 3744 3513 
Q 3744 3084 3544 2831 
Q 3344 2578 2956 2516 
Q 3422 2416 3680 2098 
Q 3938 1781 3938 1306 
Q 3938 681 3513 340 
Q 3088 0 2303 0 
L 628 0 
L 628 4666 
z
" transform="scale(0.015625)"/>
     </defs>
     <use xlink:href="#DejaVuSans-79"/>
     <use xlink:href="#DejaVuSans-42" x="59.179688"/>
    </g>
   </g>
   <g id="legend_4">
    <g id="patch_25">
     <path d="M 330.010625 244.001216 
L 407.72 244.001216 
Q 409.72 244.001216 409.72 242.001216 
L 409.72 213.644966 
Q 409.72 211.644966 407.72 211.644966 
L 330.010625 211.644966 
Q 328.010625 211.644966 328.010625 213.644966 
L 328.010625 242.001216 
Q 328.010625 244.001216 330.010625 244.001216 
z
" style="fill: #ffffff; opacity: 0.8; stroke: #cccccc; stroke-linejoin: miter"/>
    </g>
    <g id="line2d_51">
     <path d="M 332.010625 219.743403 
L 342.010625 219.743403 
L 352.010625 219.743403 
" style="fill: none; stroke: #1f77b4; stroke-width: 1.5; stroke-linecap: square"/>
    </g>
    <g id="text_24">
     <!-- yB0 (in) -->
     <g transform="translate(360.010625 223.243403)scale(0.1 -0.1)">
      <use xlink:href="#DejaVuSans-79"/>
      <use xlink:href="#DejaVuSans-42" x="59.179688"/>
      <use xlink:href="#DejaVuSans-30" x="127.783203"/>
      <use xlink:href="#DejaVuSans-20" x="191.40625"/>
      <use xlink:href="#DejaVuSans-28" x="223.193359"/>
      <use xlink:href="#DejaVuSans-69" x="262.207031"/>
      <use xlink:href="#DejaVuSans-6e" x="289.990234"/>
      <use xlink:href="#DejaVuSans-29" x="353.369141"/>
     </g>
    </g>
    <g id="line2d_52">
     <path d="M 332.010625 234.421528 
L 342.010625 234.421528 
L 352.010625 234.421528 
" style="fill: none; stroke: #ff7f0e; stroke-width: 1.5; stroke-linecap: square"/>
    </g>
    <g id="text_25">
     <!-- yBL (out) -->
     <g transform="translate(360.010625 237.921528)scale(0.1 -0.1)">
      <use xlink:href="#DejaVuSans-79"/>
      <use xlink:href="#DejaVuSans-42" x="59.179688"/>
      <use xlink:href="#DejaVuSans-4c" x="127.783203"/>
      <use xlink:href="#DejaVuSans-20" x="183.496094"/>
      <use xlink:href="#DejaVuSans-28" x="215.283203"/>
      <use xlink:href="#DejaVuSans-6f" x="254.296875"/>
      <use xlink:href="#DejaVuSans-75" x="315.478516"/>
      <use xlink:href="#DejaVuSans-74" x="378.857422"/>
      <use xlink:href="#DejaVuSans-29" x="418.066406"/>
     </g>
    </g>
   </g>
  </g>
  <g id="axes_5">
   <g id="patch_26">
    <path d="M 57.6 307.584 
L 414.72 307.584 
L 414.72 261.702621 
L 57.6 261.702621 
z
" style="fill: #ffffff"/>
   </g>
   <g id="matplotlib.axis_9">
    <g id="xtick_25">
     <g id="line2d_53">
      <g>
       <use xlink:href="#m466821cf3f" x="73.832727" y="307.584" style="stroke: #000000; stroke-width: 0.8"/>
      </g>
     </g>
     <g id="text_26">
      <!-- 0 -->
      <g transform="translate(70.651477 322.182437)scale(0.1 -0.1)">
       <use xlink:href="#DejaVuSans-30"/>
      </g>
     </g>
    </g>
    <g id="xtick_26">
     <g id="line2d_54">
      <g>
       <use xlink:href="#m466821cf3f" x="138.763636" y="307.584" style="stroke: #000000; stroke-width: 0.8"/>
      </g>
     </g>
     <g id="text_27">
      <!-- 20 -->
      <g transform="translate(132.401136 322.182437)scale(0.1 -0.1)">
       <defs>
        <path id="DejaVuSans-32" d="M 1228 531 
L 3431 531 
L 3431 0 
L 469 0 
L 469 531 
Q 828 903 1448 1529 
Q 2069 2156 2228 2338 
Q 2531 2678 2651 2914 
Q 2772 3150 2772 3378 
Q 2772 3750 2511 3984 
Q 2250 4219 1831 4219 
Q 1534 4219 1204 4116 
Q 875 4013 500 3803 
L 500 4441 
Q 881 4594 1212 4672 
Q 1544 4750 1819 4750 
Q 2544 4750 2975 4387 
Q 3406 4025 3406 3419 
Q 3406 3131 3298 2873 
Q 3191 2616 2906 2266 
Q 2828 2175 2409 1742 
Q 1991 1309 1228 531 
z
" transform="scale(0.015625)"/>
       </defs>
       <use xlink:href="#DejaVuSans-32"/>
       <use xlink:href="#DejaVuSans-30" x="63.623047"/>
      </g>
     </g>
    </g>
    <g id="xtick_27">
     <g id="line2d_55">
      <g>
       <use xlink:href="#m466821cf3f" x="203.694545" y="307.584" style="stroke: #000000; stroke-width: 0.8"/>
      </g>
     </g>
     <g id="text_28">
      <!-- 40 -->
      <g transform="translate(197.332045 322.182437)scale(0.1 -0.1)">
       <defs>
        <path id="DejaVuSans-34" d="M 2419 4116 
L 825 1625 
L 2419 1625 
L 2419 4116 
z
M 2253 4666 
L 3047 4666 
L 3047 1625 
L 3713 1625 
L 3713 1100 
L 3047 1100 
L 3047 0 
L 2419 0 
L 2419 1100 
L 313 1100 
L 313 1709 
L 2253 4666 
z
" transform="scale(0.015625)"/>
       </defs>
       <use xlink:href="#DejaVuSans-34"/>
       <use xlink:href="#DejaVuSans-30" x="63.623047"/>
      </g>
     </g>
    </g>
    <g id="xtick_28">
     <g id="line2d_56">
      <g>
       <use xlink:href="#m466821cf3f" x="268.625455" y="307.584" style="stroke: #000000; stroke-width: 0.8"/>
      </g>
     </g>
     <g id="text_29">
      <!-- 60 -->
      <g transform="translate(262.262955 322.182437)scale(0.1 -0.1)">
       <defs>
        <path id="DejaVuSans-36" d="M 2113 2584 
Q 1688 2584 1439 2293 
Q 1191 2003 1191 1497 
Q 1191 994 1439 701 
Q 1688 409 2113 409 
Q 2538 409 2786 701 
Q 3034 994 3034 1497 
Q 3034 2003 2786 2293 
Q 2538 2584 2113 2584 
z
M 3366 4563 
L 3366 3988 
Q 3128 4100 2886 4159 
Q 2644 4219 2406 4219 
Q 1781 4219 1451 3797 
Q 1122 3375 1075 2522 
Q 1259 2794 1537 2939 
Q 1816 3084 2150 3084 
Q 2853 3084 3261 2657 
Q 3669 2231 3669 1497 
Q 3669 778 3244 343 
Q 2819 -91 2113 -91 
Q 1303 -91 875 529 
Q 447 1150 447 2328 
Q 447 3434 972 4092 
Q 1497 4750 2381 4750 
Q 2619 4750 2861 4703 
Q 3103 4656 3366 4563 
z
" transform="scale(0.015625)"/>
       </defs>
       <use xlink:href="#DejaVuSans-36"/>
       <use xlink:href="#DejaVuSans-30" x="63.623047"/>
      </g>
     </g>
    </g>
    <g id="xtick_29">
     <g id="line2d_57">
      <g>
       <use xlink:href="#m466821cf3f" x="333.556364" y="307.584" style="stroke: #000000; stroke-width: 0.8"/>
      </g>
     </g>
     <g id="text_30">
      <!-- 80 -->
      <g transform="translate(327.193864 322.182437)scale(0.1 -0.1)">
       <use xlink:href="#DejaVuSans-38"/>
       <use xlink:href="#DejaVuSans-30" x="63.623047"/>
      </g>
     </g>
    </g>
    <g id="xtick_30">
     <g id="line2d_58">
      <g>
       <use xlink:href="#m466821cf3f" x="398.487273" y="307.584" style="stroke: #000000; stroke-width: 0.8"/>
      </g>
     </g>
     <g id="text_31">
      <!-- 100 -->
      <g transform="translate(388.943523 322.182437)scale(0.1 -0.1)">
       <use xlink:href="#DejaVuSans-31"/>
       <use xlink:href="#DejaVuSans-30" x="63.623047"/>
       <use xlink:href="#DejaVuSans-30" x="127.246094"/>
      </g>
     </g>
    </g>
    <g id="text_32">
     <!-- time (normalized) -->
     <g transform="translate(191.589687 335.860562)scale(0.1 -0.1)">
      <use xlink:href="#DejaVuSans-74"/>
      <use xlink:href="#DejaVuSans-69" x="39.208984"/>
      <use xlink:href="#DejaVuSans-6d" x="66.992188"/>
      <use xlink:href="#DejaVuSans-65" x="164.404297"/>
      <use xlink:href="#DejaVuSans-20" x="225.927734"/>
      <use xlink:href="#DejaVuSans-28" x="257.714844"/>
      <use xlink:href="#DejaVuSans-6e" x="296.728516"/>
      <use xlink:href="#DejaVuSans-6f" x="360.107422"/>
      <use xlink:href="#DejaVuSans-72" x="421.289062"/>
      <use xlink:href="#DejaVuSans-6d" x="460.652344"/>
      <use xlink:href="#DejaVuSans-61" x="558.064453"/>
      <use xlink:href="#DejaVuSans-6c" x="619.34375"/>
      <use xlink:href="#DejaVuSans-69" x="647.126953"/>
      <use xlink:href="#DejaVuSans-7a" x="674.910156"/>
      <use xlink:href="#DejaVuSans-65" x="727.400391"/>
      <use xlink:href="#DejaVuSans-64" x="788.923828"/>
      <use xlink:href="#DejaVuSans-29" x="852.400391"/>
     </g>
    </g>
   </g>
   <g id="matplotlib.axis_10">
    <g id="ytick_9">
     <g id="line2d_59">
      <g>
       <use xlink:href="#m16b4ab48ca" x="57.6" y="286.000187" style="stroke: #000000; stroke-width: 0.8"/>
      </g>
     </g>
     <g id="text_33">
      <!-- 0.04975 -->
      <g transform="translate(9.246875 289.799406)scale(0.1 -0.1)">
       <defs>
        <path id="DejaVuSans-37" d="M 525 4666 
L 3525 4666 
L 3525 4397 
L 1831 0 
L 1172 0 
L 2766 4134 
L 525 4134 
L 525 4666 
z
" transform="scale(0.015625)"/>
       </defs>
       <use xlink:href="#DejaVuSans-30"/>
       <use xlink:href="#DejaVuSans-2e" x="63.623047"/>
       <use xlink:href="#DejaVuSans-30" x="95.410156"/>
       <use xlink:href="#DejaVuSans-34" x="159.033203"/>
       <use xlink:href="#DejaVuSans-39" x="222.65625"/>
       <use xlink:href="#DejaVuSans-37" x="286.279297"/>
       <use xlink:href="#DejaVuSans-35" x="349.902344"/>
      </g>
     </g>
    </g>
    <g id="ytick_10">
     <g id="line2d_60">
      <g>
       <use xlink:href="#m16b4ab48ca" x="57.6" y="263.845935" style="stroke: #000000; stroke-width: 0.8"/>
      </g>
     </g>
     <g id="text_34">
      <!-- 0.05000 -->
      <g transform="translate(9.246875 267.645154)scale(0.1 -0.1)">
       <use xlink:href="#DejaVuSans-30"/>
       <use xlink:href="#DejaVuSans-2e" x="63.623047"/>
       <use xlink:href="#DejaVuSans-30" x="95.410156"/>
       <use xlink:href="#DejaVuSans-35" x="159.033203"/>
       <use xlink:href="#DejaVuSans-30" x="222.65625"/>
       <use xlink:href="#DejaVuSans-30" x="286.279297"/>
       <use xlink:href="#DejaVuSans-30" x="349.902344"/>
      </g>
     </g>
    </g>
    <g id="text_35">
     <!-- fraction -->
     <g transform="translate(3.167187 303.84956)rotate(-90)scale(0.1 -0.1)">
      <use xlink:href="#DejaVuSans-66"/>
      <use xlink:href="#DejaVuSans-72" x="35.205078"/>
      <use xlink:href="#DejaVuSans-61" x="76.318359"/>
      <use xlink:href="#DejaVuSans-63" x="137.597656"/>
      <use xlink:href="#DejaVuSans-74" x="192.578125"/>
      <use xlink:href="#DejaVuSans-69" x="231.787109"/>
      <use xlink:href="#DejaVuSans-6f" x="259.570312"/>
      <use xlink:href="#DejaVuSans-6e" x="320.751953"/>
     </g>
    </g>
   </g>
   <g id="line2d_61">
    <path d="M 73.832727 305.234835 
L 77.079273 263.799064 
L 80.325818 263.788138 
L 83.572364 263.819358 
L 86.818909 265.663261 
L 90.065455 265.773215 
L 93.312 264.108242 
L 96.558545 264.203864 
L 99.805091 264.509059 
L 103.051636 265.04836 
L 106.298182 266.527607 
L 109.544727 268.701165 
L 112.791273 270.926612 
L 116.037818 272.706354 
L 119.284364 272.773794 
L 122.530909 272.229808 
L 125.777455 263.845976 
L 129.024 263.845941 
L 132.270545 263.845939 
L 135.517091 263.845938 
L 138.763636 263.845937 
L 142.010182 263.845936 
L 145.256727 263.845936 
L 148.503273 263.845936 
L 151.749818 263.845936 
L 154.996364 263.845935 
L 158.242909 263.845935 
L 161.489455 263.845935 
L 164.736 263.845935 
L 167.982545 263.845935 
L 171.229091 263.845935 
L 174.475636 263.847508 
L 177.722182 263.853954 
L 180.968727 263.86916 
L 184.215273 263.8979 
L 187.461818 263.943326 
L 190.708364 264.003932 
L 193.954909 264.072864 
L 197.201455 264.141525 
L 200.448 264.202569 
L 203.694545 264.252182 
L 206.941091 264.290167 
L 210.187636 264.317167 
L 213.434182 264.336013 
L 216.680727 264.348769 
L 219.927273 264.357167 
L 223.173818 264.362655 
L 226.420364 264.366226 
L 229.666909 264.368429 
L 232.913455 264.369874 
L 236.16 264.370798 
L 239.406545 264.371388 
L 242.653091 264.37183 
L 245.899636 264.372071 
L 249.146182 264.372245 
L 252.392727 264.37237 
L 255.639273 264.372454 
L 258.885818 264.372513 
L 262.132364 264.372559 
L 265.378909 264.372581 
L 268.625455 264.37258 
L 271.872 264.525469 
L 275.118545 265.158524 
L 278.365091 266.635514 
L 281.611636 269.364273 
L 284.858182 273.537928 
L 288.104727 278.89811 
L 291.351273 284.700495 
L 294.597818 290.123088 
L 297.844364 294.63282 
L 301.090909 298.057084 
L 304.337455 300.533711 
L 307.584 302.101585 
L 310.830545 303.261494 
L 314.077091 304.013607 
L 317.323636 304.489107 
L 320.570182 304.779897 
L 323.816727 304.955226 
L 327.063273 305.068465 
L 330.309818 305.132904 
L 333.556364 305.17686 
L 336.802909 305.207742 
L 340.049455 305.211408 
L 343.296 305.214953 
L 346.542545 305.218462 
L 349.789091 305.221971 
L 353.035636 305.225479 
L 356.282182 305.227836 
L 359.528727 305.230048 
L 362.775273 305.23226 
L 366.021818 305.234461 
L 369.268364 305.2358 
L 372.514909 305.237139 
L 375.761455 305.238478 
L 379.008 305.239818 
L 382.254545 305.241157 
L 385.501091 305.242496 
L 388.747636 305.243835 
L 391.994182 305.245174 
L 395.240727 305.246513 
L 398.487273 305.247852 
" clip-path="url(#p7caedf85aa)" style="fill: none; stroke: #1f77b4; stroke-width: 1.5; stroke-linecap: square"/>
   </g>
   <g id="line2d_62">
    <path d="M 73.832727 305.486691 
L 77.079273 276.612886 
L 80.325818 270.615758 
L 83.572364 268.407739 
L 86.818909 267.281623 
L 90.065455 266.573745 
L 93.312 266.10387 
L 96.558545 265.747364 
L 99.805091 265.475297 
L 103.051636 265.260817 
L 106.298182 265.090547 
L 109.544727 264.951872 
L 112.791273 264.835111 
L 116.037818 264.730621 
L 119.284364 264.63938 
L 122.530909 264.559296 
L 125.777455 265.316554 
L 129.024 263.877421 
L 132.270545 263.846845 
L 135.517091 263.846338 
L 138.763636 263.845943 
L 142.010182 263.845936 
L 145.256727 263.845933 
L 148.503273 263.845933 
L 151.749818 263.845934 
L 154.996364 263.845934 
L 158.242909 263.845935 
L 161.489455 263.845935 
L 164.736 263.845935 
L 167.982545 263.845935 
L 171.229091 263.845935 
L 174.475636 263.847499 
L 177.722182 263.853953 
L 180.968727 263.869193 
L 184.215273 263.898018 
L 187.461818 263.943567 
L 190.708364 264.004313 
L 193.954909 264.073323 
L 197.201455 264.14194 
L 200.448 264.202908 
L 203.694545 264.25238 
L 206.941091 264.290209 
L 210.187636 264.317077 
L 213.434182 264.335819 
L 216.680727 264.3485 
L 219.927273 264.356847 
L 223.173818 264.362303 
L 226.420364 264.365854 
L 229.666909 264.368045 
L 232.913455 264.369485 
L 236.16 264.370407 
L 239.406545 264.370996 
L 242.653091 264.371439 
L 245.899636 264.371684 
L 249.146182 264.371861 
L 252.392727 264.371989 
L 255.639273 264.372076 
L 258.885818 264.372138 
L 262.132364 264.372187 
L 265.378909 264.372212 
L 268.625455 264.372212 
L 271.872 264.519132 
L 275.118545 265.136516 
L 278.365091 266.574248 
L 281.611636 269.227216 
L 284.858182 273.291554 
L 288.104727 278.55136 
L 291.351273 284.304197 
L 294.597818 289.771891 
L 297.844364 294.372871 
L 301.090909 297.93435 
L 304.337455 300.497761 
L 307.584 302.163861 
L 310.830545 303.403076 
L 314.077091 304.213028 
L 317.323636 304.725041 
L 320.570182 305.038629 
L 323.816727 305.226422 
L 327.063273 305.346718 
L 330.309818 305.414158 
L 333.556364 305.459151 
L 336.802909 305.489864 
L 340.049455 305.491039 
L 343.296 305.492408 
L 346.542545 305.493836 
L 349.789091 305.495265 
L 353.035636 305.496693 
L 356.282182 305.497227 
L 359.528727 305.497648 
L 362.775273 305.498069 
L 366.021818 305.498483 
L 369.268364 305.498346 
L 372.514909 305.498209 
L 375.761455 305.498072 
L 379.008 305.497936 
L 382.254545 305.497799 
L 385.501091 305.497662 
L 388.747636 305.497525 
L 391.994182 305.497388 
L 395.240727 305.497252 
L 398.487273 305.497115 
" clip-path="url(#p7caedf85aa)" style="fill: none; stroke: #ff7f0e; stroke-width: 1.5; stroke-linecap: square"/>
   </g>
   <g id="patch_27">
    <path d="M 57.6 307.584 
L 57.6 261.702621 
" style="fill: none; stroke: #000000; stroke-width: 0.8; stroke-linejoin: miter; stroke-linecap: square"/>
   </g>
   <g id="patch_28">
    <path d="M 414.72 307.584 
L 414.72 261.702621 
" style="fill: none; stroke: #000000; stroke-width: 0.8; stroke-linejoin: miter; stroke-linecap: square"/>
   </g>
   <g id="patch_29">
    <path d="M 57.6 307.584 
L 414.72 307.584 
" style="fill: none; stroke: #000000; stroke-width: 0.8; stroke-linejoin: miter; stroke-linecap: square"/>
   </g>
   <g id="patch_30">
    <path d="M 57.6 261.702621 
L 414.72 261.702621 
" style="fill: none; stroke: #000000; stroke-width: 0.8; stroke-linejoin: miter; stroke-linecap: square"/>
   </g>
   <g id="text_36">
    <!-- yC -->
    <g transform="translate(228.419062 255.702621)scale(0.12 -0.12)">
     <defs>
      <path id="DejaVuSans-43" d="M 4122 4306 
L 4122 3641 
Q 3803 3938 3442 4084 
Q 3081 4231 2675 4231 
Q 1875 4231 1450 3742 
Q 1025 3253 1025 2328 
Q 1025 1406 1450 917 
Q 1875 428 2675 428 
Q 3081 428 3442 575 
Q 3803 722 4122 1019 
L 4122 359 
Q 3791 134 3420 21 
Q 3050 -91 2638 -91 
Q 1578 -91 968 557 
Q 359 1206 359 2328 
Q 359 3453 968 4101 
Q 1578 4750 2638 4750 
Q 3056 4750 3426 4639 
Q 3797 4528 4122 4306 
z
" transform="scale(0.015625)"/>
     </defs>
     <use xlink:href="#DejaVuSans-79"/>
     <use xlink:href="#DejaVuSans-43" x="59.179688"/>
    </g>
   </g>
   <g id="legend_5">
    <g id="patch_31">
     <path d="M 329.88875 299.058871 
L 407.72 299.058871 
Q 409.72 299.058871 409.72 297.058871 
L 409.72 268.702621 
Q 409.72 266.702621 407.72 266.702621 
L 329.88875 266.702621 
Q 327.88875 266.702621 327.88875 268.702621 
L 327.88875 297.058871 
Q 327.88875 299.058871 329.88875 299.058871 
z
" style="fill: #ffffff; opacity: 0.8; stroke: #cccccc; stroke-linejoin: miter"/>
    </g>
    <g id="line2d_63">
     <path d="M 331.88875 274.801058 
L 341.88875 274.801058 
L 351.88875 274.801058 
" style="fill: none; stroke: #1f77b4; stroke-width: 1.5; stroke-linecap: square"/>
    </g>
    <g id="text_37">
     <!-- yC0 (in) -->
     <g transform="translate(359.88875 278.301058)scale(0.1 -0.1)">
      <use xlink:href="#DejaVuSans-79"/>
      <use xlink:href="#DejaVuSans-43" x="59.179688"/>
      <use xlink:href="#DejaVuSans-30" x="129.003906"/>
      <use xlink:href="#DejaVuSans-20" x="192.626953"/>
      <use xlink:href="#DejaVuSans-28" x="224.414062"/>
      <use xlink:href="#DejaVuSans-69" x="263.427734"/>
      <use xlink:href="#DejaVuSans-6e" x="291.210938"/>
      <use xlink:href="#DejaVuSans-29" x="354.589844"/>
     </g>
    </g>
    <g id="line2d_64">
     <path d="M 331.88875 289.479183 
L 341.88875 289.479183 
L 351.88875 289.479183 
" style="fill: none; stroke: #ff7f0e; stroke-width: 1.5; stroke-linecap: square"/>
    </g>
    <g id="text_38">
     <!-- yCL (out) -->
     <g transform="translate(359.88875 292.979183)scale(0.1 -0.1)">
      <use xlink:href="#DejaVuSans-79"/>
      <use xlink:href="#DejaVuSans-43" x="59.179688"/>
      <use xlink:href="#DejaVuSans-4c" x="129.003906"/>
      <use xlink:href="#DejaVuSans-20" x="184.716797"/>
      <use xlink:href="#DejaVuSans-28" x="216.503906"/>
      <use xlink:href="#DejaVuSans-6f" x="255.517578"/>
      <use xlink:href="#DejaVuSans-75" x="316.699219"/>
      <use xlink:href="#DejaVuSans-74" x="380.078125"/>
      <use xlink:href="#DejaVuSans-29" x="419.287109"/>
     </g>
    </g>
   </g>
  </g>
 </g>
 <defs>
  <clipPath id="p6a685fe3eb">
   <rect x="57.6" y="41.472" width="357.12" height="45.881379"/>
  </clipPath>
  <clipPath id="pc29d97f751">
   <rect x="57.6" y="96.529655" width="357.12" height="45.881379"/>
  </clipPath>
  <clipPath id="pad5521cd39">
   <rect x="57.6" y="151.58731" width="357.12" height="45.881379"/>
  </clipPath>
  <clipPath id="p21aefb4561">
   <rect x="57.6" y="206.644966" width="357.12" height="45.881379"/>
  </clipPath>
  <clipPath id="p7caedf85aa">
   <rect x="57.6" y="261.702621" width="357.12" height="45.881379"/>
  </clipPath>
 </defs>
</svg>
