<?xml version="1.0" encoding="utf-8" standalone="no"?>
<!DOCTYPE svg PUBLIC "-//W3C//DTD SVG 1.1//EN"
  "http://www.w3.org/Graphics/SVG/1.1/DTD/svg11.dtd">
<svg xmlns:xlink="http://www.w3.org/1999/xlink" width="460.8pt" height="345.6pt" viewBox="0 0 460.8 345.6" xmlns="http://www.w3.org/2000/svg" version="1.1">
 <metadata>
  <rdf:RDF xmlns:dc="http://purl.org/dc/elements/1.1/" xmlns:cc="http://creativecommons.org/ns#" xmlns:rdf="http://www.w3.org/1999/02/22-rdf-syntax-ns#">
   <cc:Work>
    <dc:type rdf:resource="http://purl.org/dc/dcmitype/StillImage"/>
    <dc:date>2022-07-10T00:05:00.490235</dc:date>
    <dc:format>image/svg+xml</dc:format>
    <dc:creator>
     <cc:Agent>
      <dc:title>Matplotlib v3.5.2, https://matplotlib.org/</dc:title>
     </cc:Agent>
    </dc:creator>
   </cc:Work>
  </rdf:RDF>
 </metadata>
 <defs>
  <style type="text/css">*{stroke-linejoin: round; stroke-linecap: butt}</style>
 </defs>
 <g id="figure_1">
  <g id="patch_1">
   <path d="M 0 345.6 
L 460.8 345.6 
L 460.8 0 
L 0 0 
z
" style="fill: #ffffff"/>
  </g>
  <g id="axes_1">
   <g id="patch_2">
    <path d="M 57.6 87.353379 
L 414.72 87.353379 
L 414.72 41.472 
L 57.6 41.472 
z
" style="fill: #ffffff"/>
   </g>
   <g id="axes_2">
    <g id="patch_3">
     <path d="M 414.72 87.353379 
L 414.72 87.353379 
L 414.72 41.472 
L 414.72 41.472 
z
" style="fill: #ffffff"/>
    </g>
    <g id="matplotlib.axis_1"/>
    <g id="matplotlib.axis_2">
     <g id="ytick_1">
      <g id="line2d_1">
       <defs>
        <path id="m06ee63496c" d="M 0 0 
L 3.5 0 
" style="stroke: #000000; stroke-width: 0.8"/>
       </defs>
       <g>
        <use xlink:href="#m06ee63496c" x="414.72" y="76.630546" style="stroke: #000000; stroke-width: 0.8"/>
       </g>
      </g>
      <g id="text_1">
       <!-- 0 -->
       <g transform="translate(421.72 80.429765)scale(0.1 -0.1)">
        <defs>
         <path id="DejaVuSans-30" d="M 2034 4250 
Q 1547 4250 1301 3770 
Q 1056 3291 1056 2328 
Q 1056 1369 1301 889 
Q 1547 409 2034 409 
Q 2525 409 2770 889 
Q 3016 1369 3016 2328 
Q 3016 3291 2770 3770 
Q 2525 4250 2034 4250 
z
M 2034 4750 
Q 2819 4750 3233 4129 
Q 3647 3509 3647 2328 
Q 3647 1150 3233 529 
Q 2819 -91 2034 -91 
Q 1250 -91 836 529 
Q 422 1150 422 2328 
Q 422 3509 836 4129 
Q 1250 4750 2034 4750 
z
" transform="scale(0.015625)"/>
        </defs>
        <use xlink:href="#DejaVuSans-30"/>
       </g>
      </g>
     </g>
     <g id="ytick_2">
      <g id="line2d_2">
       <g>
        <use xlink:href="#m06ee63496c" x="414.72" y="43.674017" style="stroke: #000000; stroke-width: 0.8"/>
       </g>
      </g>
      <g id="text_2">
       <!-- 1 -->
       <g transform="translate(421.72 47.473236)scale(0.1 -0.1)">
        <defs>
         <path id="DejaVuSans-31" d="M 794 531 
L 1825 531 
L 1825 4091 
L 703 3866 
L 703 4441 
L 1819 4666 
L 2450 4666 
L 2450 531 
L 3481 531 
L 3481 0 
L 794 0 
L 794 531 
z
" transform="scale(0.015625)"/>
        </defs>
        <use xlink:href="#DejaVuSans-31"/>
       </g>
      </g>
     </g>
     <g id="text_3">
      <!-- vel [m/s] -->
      <g transform="translate(439.680938 86.48769)rotate(-90)scale(0.1 -0.1)">
       <defs>
        <path id="DejaVuSans-76" d="M 191 3500 
L 800 3500 
L 1894 563 
L 2988 3500 
L 3597 3500 
L 2284 0 
L 1503 0 
L 191 3500 
z
" transform="scale(0.015625)"/>
        <path id="DejaVuSans-65" d="M 3597 1894 
L 3597 1613 
L 953 1613 
Q 991 1019 1311 708 
Q 1631 397 2203 397 
Q 2534 397 2845 478 
Q 3156 559 3463 722 
L 3463 178 
Q 3153 47 2828 -22 
Q 2503 -91 2169 -91 
Q 1331 -91 842 396 
Q 353 884 353 1716 
Q 353 2575 817 3079 
Q 1281 3584 2069 3584 
Q 2775 3584 3186 3129 
Q 3597 2675 3597 1894 
z
M 3022 2063 
Q 3016 2534 2758 2815 
Q 2500 3097 2075 3097 
Q 1594 3097 1305 2825 
Q 1016 2553 972 2059 
L 3022 2063 
z
" transform="scale(0.015625)"/>
        <path id="DejaVuSans-6c" d="M 603 4863 
L 1178 4863 
L 1178 0 
L 603 0 
L 603 4863 
z
" transform="scale(0.015625)"/>
        <path id="DejaVuSans-20" transform="scale(0.015625)"/>
        <path id="DejaVuSans-5b" d="M 550 4863 
L 1875 4863 
L 1875 4416 
L 1125 4416 
L 1125 -397 
L 1875 -397 
L 1875 -844 
L 550 -844 
L 550 4863 
z
" transform="scale(0.015625)"/>
        <path id="DejaVuSans-6d" d="M 3328 2828 
Q 3544 3216 3844 3400 
Q 4144 3584 4550 3584 
Q 5097 3584 5394 3201 
Q 5691 2819 5691 2113 
L 5691 0 
L 5113 0 
L 5113 2094 
Q 5113 2597 4934 2840 
Q 4756 3084 4391 3084 
Q 3944 3084 3684 2787 
Q 3425 2491 3425 1978 
L 3425 0 
L 2847 0 
L 2847 2094 
Q 2847 2600 2669 2842 
Q 2491 3084 2119 3084 
Q 1678 3084 1418 2786 
Q 1159 2488 1159 1978 
L 1159 0 
L 581 0 
L 581 3500 
L 1159 3500 
L 1159 2956 
Q 1356 3278 1631 3431 
Q 1906 3584 2284 3584 
Q 2666 3584 2933 3390 
Q 3200 3197 3328 2828 
z
" transform="scale(0.015625)"/>
        <path id="DejaVuSans-2f" d="M 1625 4666 
L 2156 4666 
L 531 -594 
L 0 -594 
L 1625 4666 
z
" transform="scale(0.015625)"/>
        <path id="DejaVuSans-73" d="M 2834 3397 
L 2834 2853 
Q 2591 2978 2328 3040 
Q 2066 3103 1784 3103 
Q 1356 3103 1142 2972 
Q 928 2841 928 2578 
Q 928 2378 1081 2264 
Q 1234 2150 1697 2047 
L 1894 2003 
Q 2506 1872 2764 1633 
Q 3022 1394 3022 966 
Q 3022 478 2636 193 
Q 2250 -91 1575 -91 
Q 1294 -91 989 -36 
Q 684 19 347 128 
L 347 722 
Q 666 556 975 473 
Q 1284 391 1588 391 
Q 1994 391 2212 530 
Q 2431 669 2431 922 
Q 2431 1156 2273 1281 
Q 2116 1406 1581 1522 
L 1381 1569 
Q 847 1681 609 1914 
Q 372 2147 372 2553 
Q 372 3047 722 3315 
Q 1072 3584 1716 3584 
Q 2034 3584 2315 3537 
Q 2597 3491 2834 3397 
z
" transform="scale(0.015625)"/>
        <path id="DejaVuSans-5d" d="M 1947 4863 
L 1947 -844 
L 622 -844 
L 622 -397 
L 1369 -397 
L 1369 4416 
L 622 4416 
L 622 4863 
L 1947 4863 
z
" transform="scale(0.015625)"/>
       </defs>
       <use xlink:href="#DejaVuSans-76"/>
       <use xlink:href="#DejaVuSans-65" x="59.179688"/>
       <use xlink:href="#DejaVuSans-6c" x="120.703125"/>
       <use xlink:href="#DejaVuSans-20" x="148.486328"/>
       <use xlink:href="#DejaVuSans-5b" x="180.273438"/>
       <use xlink:href="#DejaVuSans-6d" x="219.287109"/>
       <use xlink:href="#DejaVuSans-2f" x="316.699219"/>
       <use xlink:href="#DejaVuSans-73" x="350.390625"/>
       <use xlink:href="#DejaVuSans-5d" x="402.490234"/>
      </g>
     </g>
    </g>
    <g id="patch_4">
     <path d="M 414.72 87.353379 
L 414.72 41.472 
" style="fill: none; stroke: #000000; stroke-width: 0.8; stroke-linejoin: miter; stroke-linecap: square"/>
    </g>
   </g>
   <g id="matplotlib.axis_3">
    <g id="xtick_1">
     <g id="line2d_3">
      <defs>
       <path id="m6deff01747" d="M 0 0 
L 0 3.5 
" style="stroke: #000000; stroke-width: 0.8"/>
      </defs>
      <g>
       <use xlink:href="#m6deff01747" x="73.832727" y="87.353379" style="stroke: #000000; stroke-width: 0.8"/>
      </g>
     </g>
    </g>
    <g id="xtick_2">
     <g id="line2d_4">
      <g>
       <use xlink:href="#m6deff01747" x="116.550431" y="87.353379" style="stroke: #000000; stroke-width: 0.8"/>
      </g>
     </g>
    </g>
    <g id="xtick_3">
     <g id="line2d_5">
      <g>
       <use xlink:href="#m6deff01747" x="159.268134" y="87.353379" style="stroke: #000000; stroke-width: 0.8"/>
      </g>
     </g>
    </g>
    <g id="xtick_4">
     <g id="line2d_6">
      <g>
       <use xlink:href="#m6deff01747" x="201.985837" y="87.353379" style="stroke: #000000; stroke-width: 0.8"/>
      </g>
     </g>
    </g>
    <g id="xtick_5">
     <g id="line2d_7">
      <g>
       <use xlink:href="#m6deff01747" x="244.703541" y="87.353379" style="stroke: #000000; stroke-width: 0.8"/>
      </g>
     </g>
    </g>
    <g id="xtick_6">
     <g id="line2d_8">
      <g>
       <use xlink:href="#m6deff01747" x="287.421244" y="87.353379" style="stroke: #000000; stroke-width: 0.8"/>
      </g>
     </g>
    </g>
    <g id="xtick_7">
     <g id="line2d_9">
      <g>
       <use xlink:href="#m6deff01747" x="330.138947" y="87.353379" style="stroke: #000000; stroke-width: 0.8"/>
      </g>
     </g>
    </g>
    <g id="xtick_8">
     <g id="line2d_10">
      <g>
       <use xlink:href="#m6deff01747" x="372.856651" y="87.353379" style="stroke: #000000; stroke-width: 0.8"/>
      </g>
     </g>
    </g>
   </g>
   <g id="matplotlib.axis_4">
    <g id="ytick_3">
     <g id="line2d_11">
      <defs>
       <path id="m895120be34" d="M 0 0 
L -3.5 0 
" style="stroke: #000000; stroke-width: 0.8"/>
      </defs>
      <g>
       <use xlink:href="#m895120be34" x="57.6" y="76.630546" style="stroke: #000000; stroke-width: 0.8"/>
      </g>
     </g>
     <g id="text_4">
      <!-- 0 -->
      <g transform="translate(44.2375 80.429765)scale(0.1 -0.1)">
       <use xlink:href="#DejaVuSans-30"/>
      </g>
     </g>
    </g>
    <g id="ytick_4">
     <g id="line2d_12">
      <g>
       <use xlink:href="#m895120be34" x="57.6" y="43.674017" style="stroke: #000000; stroke-width: 0.8"/>
      </g>
     </g>
     <g id="text_5">
      <!-- 1 -->
      <g transform="translate(44.2375 47.473236)scale(0.1 -0.1)">
       <use xlink:href="#DejaVuSans-31"/>
      </g>
     </g>
    </g>
    <g id="text_6">
     <!-- vel [normalized] -->
     <g transform="translate(38.157812 105.111908)rotate(-90)scale(0.1 -0.1)">
      <defs>
       <path id="DejaVuSans-6e" d="M 3513 2113 
L 3513 0 
L 2938 0 
L 2938 2094 
Q 2938 2591 2744 2837 
Q 2550 3084 2163 3084 
Q 1697 3084 1428 2787 
Q 1159 2491 1159 1978 
L 1159 0 
L 581 0 
L 581 3500 
L 1159 3500 
L 1159 2956 
Q 1366 3272 1645 3428 
Q 1925 3584 2291 3584 
Q 2894 3584 3203 3211 
Q 3513 2838 3513 2113 
z
" transform="scale(0.015625)"/>
       <path id="DejaVuSans-6f" d="M 1959 3097 
Q 1497 3097 1228 2736 
Q 959 2375 959 1747 
Q 959 1119 1226 758 
Q 1494 397 1959 397 
Q 2419 397 2687 759 
Q 2956 1122 2956 1747 
Q 2956 2369 2687 2733 
Q 2419 3097 1959 3097 
z
M 1959 3584 
Q 2709 3584 3137 3096 
Q 3566 2609 3566 1747 
Q 3566 888 3137 398 
Q 2709 -91 1959 -91 
Q 1206 -91 779 398 
Q 353 888 353 1747 
Q 353 2609 779 3096 
Q 1206 3584 1959 3584 
z
" transform="scale(0.015625)"/>
       <path id="DejaVuSans-72" d="M 2631 2963 
Q 2534 3019 2420 3045 
Q 2306 3072 2169 3072 
Q 1681 3072 1420 2755 
Q 1159 2438 1159 1844 
L 1159 0 
L 581 0 
L 581 3500 
L 1159 3500 
L 1159 2956 
Q 1341 3275 1631 3429 
Q 1922 3584 2338 3584 
Q 2397 3584 2469 3576 
Q 2541 3569 2628 3553 
L 2631 2963 
z
" transform="scale(0.015625)"/>
       <path id="DejaVuSans-61" d="M 2194 1759 
Q 1497 1759 1228 1600 
Q 959 1441 959 1056 
Q 959 750 1161 570 
Q 1363 391 1709 391 
Q 2188 391 2477 730 
Q 2766 1069 2766 1631 
L 2766 1759 
L 2194 1759 
z
M 3341 1997 
L 3341 0 
L 2766 0 
L 2766 531 
Q 2569 213 2275 61 
Q 1981 -91 1556 -91 
Q 1019 -91 701 211 
Q 384 513 384 1019 
Q 384 1609 779 1909 
Q 1175 2209 1959 2209 
L 2766 2209 
L 2766 2266 
Q 2766 2663 2505 2880 
Q 2244 3097 1772 3097 
Q 1472 3097 1187 3025 
Q 903 2953 641 2809 
L 641 3341 
Q 956 3463 1253 3523 
Q 1550 3584 1831 3584 
Q 2591 3584 2966 3190 
Q 3341 2797 3341 1997 
z
" transform="scale(0.015625)"/>
       <path id="DejaVuSans-69" d="M 603 3500 
L 1178 3500 
L 1178 0 
L 603 0 
L 603 3500 
z
M 603 4863 
L 1178 4863 
L 1178 4134 
L 603 4134 
L 603 4863 
z
" transform="scale(0.015625)"/>
       <path id="DejaVuSans-7a" d="M 353 3500 
L 3084 3500 
L 3084 2975 
L 922 459 
L 3084 459 
L 3084 0 
L 275 0 
L 275 525 
L 2438 3041 
L 353 3041 
L 353 3500 
z
" transform="scale(0.015625)"/>
       <path id="DejaVuSans-64" d="M 2906 2969 
L 2906 4863 
L 3481 4863 
L 3481 0 
L 2906 0 
L 2906 525 
Q 2725 213 2448 61 
Q 2172 -91 1784 -91 
Q 1150 -91 751 415 
Q 353 922 353 1747 
Q 353 2572 751 3078 
Q 1150 3584 1784 3584 
Q 2172 3584 2448 3432 
Q 2725 3281 2906 2969 
z
M 947 1747 
Q 947 1113 1208 752 
Q 1469 391 1925 391 
Q 2381 391 2643 752 
Q 2906 1113 2906 1747 
Q 2906 2381 2643 2742 
Q 2381 3103 1925 3103 
Q 1469 3103 1208 2742 
Q 947 2381 947 1747 
z
" transform="scale(0.015625)"/>
      </defs>
      <use xlink:href="#DejaVuSans-76"/>
      <use xlink:href="#DejaVuSans-65" x="59.179688"/>
      <use xlink:href="#DejaVuSans-6c" x="120.703125"/>
      <use xlink:href="#DejaVuSans-20" x="148.486328"/>
      <use xlink:href="#DejaVuSans-5b" x="180.273438"/>
      <use xlink:href="#DejaVuSans-6e" x="219.287109"/>
      <use xlink:href="#DejaVuSans-6f" x="282.666016"/>
      <use xlink:href="#DejaVuSans-72" x="343.847656"/>
      <use xlink:href="#DejaVuSans-6d" x="383.210938"/>
      <use xlink:href="#DejaVuSans-61" x="480.623047"/>
      <use xlink:href="#DejaVuSans-6c" x="541.902344"/>
      <use xlink:href="#DejaVuSans-69" x="569.685547"/>
      <use xlink:href="#DejaVuSans-7a" x="597.46875"/>
      <use xlink:href="#DejaVuSans-65" x="649.958984"/>
      <use xlink:href="#DejaVuSans-64" x="711.482422"/>
      <use xlink:href="#DejaVuSans-5d" x="774.958984"/>
     </g>
    </g>
   </g>
   <g id="line2d_13">
    <path d="M 73.832727 76.630556 
L 90.919809 76.630556 
L 108.00689 76.630555 
L 125.093971 76.630555 
L 142.181053 76.630554 
L 159.268134 76.630554 
L 176.355215 76.630553 
L 193.442297 76.630552 
L 210.529378 76.630552 
L 227.616459 76.630551 
L 244.703541 76.630551 
L 261.790622 76.63055 
L 278.877703 76.63055 
L 295.964785 76.630549 
L 313.051866 76.630549 
L 330.138947 76.630548 
L 347.226029 76.630548 
L 364.31311 76.630547 
L 381.400191 76.630546 
L 398.487273 76.630546 
" clip-path="url(#p18e2a008f0)" style="fill: none; stroke: #1f77b4; stroke-width: 1.5; stroke-linecap: square"/>
   </g>
   <g id="line2d_14">
    <path d="M 73.832727 76.359774 
L 90.919809 76.374005 
L 108.00689 76.388238 
L 125.093971 76.402474 
L 142.181053 76.416714 
L 159.268134 76.430958 
L 176.355215 76.445202 
L 193.442297 76.45945 
L 210.529378 76.4737 
L 227.616459 76.487952 
L 244.703541 76.502206 
L 261.790622 76.516462 
L 278.877703 76.530719 
L 295.964785 76.544978 
L 313.051866 76.559237 
L 330.138947 76.573498 
L 347.226029 76.587759 
L 364.31311 76.602021 
L 381.400191 76.616283 
L 398.487273 76.616283 
" clip-path="url(#p18e2a008f0)" style="fill: none; stroke: #ff7f0e; stroke-width: 1.5; stroke-linecap: square"/>
   </g>
   <g id="line2d_15">
    <path d="M 73.832727 43.670884 
L 90.919809 43.664617 
L 108.00689 43.658345 
L 125.093971 43.652071 
L 142.181053 43.645792 
L 159.268134 43.63951 
L 176.355215 43.633225 
L 193.442297 43.626936 
L 210.529378 43.620643 
L 227.616459 43.614347 
L 244.703541 43.608047 
L 261.790622 43.601743 
L 278.877703 43.595436 
L 295.964785 43.589125 
L 313.051866 43.582811 
L 330.138947 43.576493 
L 347.226029 43.570172 
L 364.31311 43.563846 
L 381.400191 43.557518 
L 398.487273 43.557518 
" clip-path="url(#p18e2a008f0)" style="fill: none; stroke: #2ca02c; stroke-width: 1.5; stroke-linecap: square"/>
   </g>
   <g id="line2d_16">
    <path d="M 73.832727 43.670884 
L 90.919809 43.664617 
L 108.00689 43.658345 
L 125.093971 43.652071 
L 142.181053 43.645792 
L 159.268134 43.63951 
L 176.355215 43.633225 
L 193.442297 43.626936 
L 210.529378 43.620643 
L 227.616459 43.614347 
L 244.703541 43.608047 
L 261.790622 43.601743 
L 278.877703 43.595436 
L 295.964785 43.589125 
L 313.051866 43.582811 
L 330.138947 43.576493 
L 347.226029 43.570171 
L 364.31311 43.563846 
L 381.400191 43.557517 
L 398.487273 43.557517 
" clip-path="url(#p18e2a008f0)" style="fill: none; stroke: #d62728; stroke-width: 1.5; stroke-linecap: square"/>
   </g>
   <g id="line2d_17">
    <path d="M 73.832727 76.014288 
L 90.919809 75.398032 
L 108.00689 74.781757 
L 125.093971 74.16546 
L 142.181053 73.549136 
L 159.268134 72.932764 
L 176.355215 72.316347 
L 193.442297 71.69987 
L 210.529378 71.083322 
L 227.616459 70.466697 
L 244.703541 69.849983 
L 261.790622 69.233177 
L 278.877703 68.61626 
L 295.964785 67.999233 
L 313.051866 67.382081 
L 330.138947 66.764794 
L 347.226029 66.147364 
L 364.31311 65.52978 
L 381.400191 64.912039 
L 398.487273 64.912039 
" clip-path="url(#p18e2a008f0)" style="fill: none; stroke: #9467bd; stroke-width: 1.5; stroke-linecap: square"/>
   </g>
   <g id="line2d_18">
    <path d="M 73.832727 76.588175 
L 90.919809 76.545741 
L 108.00689 76.503243 
L 125.093971 76.460651 
L 142.181053 76.417778 
L 159.268134 76.374743 
L 176.355215 76.331332 
L 193.442297 76.287621 
L 210.529378 76.243458 
L 227.616459 76.198883 
L 244.703541 76.153794 
L 261.790622 76.108054 
L 278.877703 76.061756 
L 295.964785 76.014687 
L 313.051866 75.966847 
L 330.138947 75.918218 
L 347.226029 75.868639 
L 364.31311 75.818071 
L 381.400191 75.766408 
L 398.487273 75.766408 
" clip-path="url(#p18e2a008f0)" style="fill: none; stroke: #8c564b; stroke-width: 1.5; stroke-linecap: square"/>
   </g>
   <g id="line2d_19">
    <path d="M 73.832727 76.629523 
L 90.919809 76.6285 
L 108.00689 76.627476 
L 125.093971 76.626453 
L 142.181053 76.62543 
L 159.268134 76.624407 
L 176.355215 76.623384 
L 193.442297 76.622361 
L 210.529378 76.621337 
L 227.616459 76.620314 
L 244.703541 76.619292 
L 261.790622 76.618269 
L 278.877703 76.617246 
L 295.964785 76.616223 
L 313.051866 76.615201 
L 330.138947 76.614178 
L 347.226029 76.613156 
L 364.31311 76.612133 
L 381.400191 76.611111 
L 398.487273 76.611111 
" clip-path="url(#p18e2a008f0)" style="fill: none; stroke: #e377c2; stroke-width: 1.5; stroke-linecap: square"/>
   </g>
   <g id="line2d_20">
    <path d="M 73.832727 76.630528 
L 90.919809 76.63051 
L 108.00689 76.630492 
L 125.093971 76.630474 
L 142.181053 76.630455 
L 159.268134 76.630437 
L 176.355215 76.630419 
L 193.442297 76.6304 
L 210.529378 76.630382 
L 227.616459 76.630363 
L 244.703541 76.630344 
L 261.790622 76.630325 
L 278.877703 76.630305 
L 295.964785 76.630286 
L 313.051866 76.630266 
L 330.138947 76.630246 
L 347.226029 76.630226 
L 364.31311 76.630205 
L 381.400191 76.630184 
L 398.487273 76.630184 
" clip-path="url(#p18e2a008f0)" style="fill: none; stroke: #7f7f7f; stroke-width: 1.5; stroke-linecap: square"/>
   </g>
   <g id="line2d_21">
    <path d="M 73.832727 85.267862 
L 90.919809 84.799804 
L 108.00689 84.334033 
L 125.093971 83.870396 
L 142.181053 83.408745 
L 159.268134 82.948933 
L 176.355215 82.490821 
L 193.442297 82.034269 
L 210.529378 81.579144 
L 227.616459 81.125313 
L 244.703541 80.672646 
L 261.790622 80.221017 
L 278.877703 79.770299 
L 295.964785 79.320368 
L 313.051866 78.871103 
L 330.138947 78.422381 
L 347.226029 77.974084 
L 364.31311 77.526092 
L 381.400191 77.078285 
L 398.487273 77.078285 
" clip-path="url(#p18e2a008f0)" style="fill: none; stroke: #bcbd22; stroke-width: 1.5; stroke-linecap: square"/>
   </g>
   <g id="line2d_22">
    <path d="M 73.832727 77.044178 
L 90.919809 77.023302 
L 108.00689 77.00228 
L 125.093971 76.981119 
L 142.181053 76.959829 
L 159.268134 76.938419 
L 176.355215 76.916896 
L 193.442297 76.895269 
L 210.529378 76.873545 
L 227.616459 76.851734 
L 244.703541 76.829842 
L 261.790622 76.807879 
L 278.877703 76.785852 
L 295.964785 76.763769 
L 313.051866 76.741639 
L 330.138947 76.719468 
L 347.226029 76.697266 
L 364.31311 76.675039 
L 381.400191 76.652797 
L 398.487273 76.652797 
" clip-path="url(#p18e2a008f0)" style="fill: none; stroke: #17becf; stroke-width: 1.5; stroke-linecap: square"/>
   </g>
   <g id="line2d_23">
    <path d="M 73.832727 76.633507 
L 90.919809 76.633365 
L 108.00689 76.633221 
L 125.093971 76.633075 
L 142.181053 76.632927 
L 159.268134 76.632777 
L 176.355215 76.632625 
L 193.442297 76.632471 
L 210.529378 76.632316 
L 227.616459 76.63216 
L 244.703541 76.632002 
L 261.790622 76.631843 
L 278.877703 76.631683 
L 295.964785 76.631523 
L 313.051866 76.631361 
L 330.138947 76.631199 
L 347.226029 76.631036 
L 364.31311 76.630873 
L 381.400191 76.63071 
L 398.487273 76.63071 
" clip-path="url(#p18e2a008f0)" style="fill: none; stroke: #1f77b4; stroke-width: 1.5; stroke-linecap: square"/>
   </g>
   <g id="line2d_24">
    <path d="M 73.832727 76.631111 
L 90.919809 76.631082 
L 108.00689 76.631053 
L 125.093971 76.631024 
L 142.181053 76.630995 
L 159.268134 76.630965 
L 176.355215 76.630936 
L 193.442297 76.630906 
L 210.529378 76.630876 
L 227.616459 76.630847 
L 244.703541 76.630817 
L 261.790622 76.630787 
L 278.877703 76.630757 
L 295.964785 76.630727 
L 313.051866 76.630697 
L 330.138947 76.630667 
L 347.226029 76.630636 
L 364.31311 76.630606 
L 381.400191 76.630576 
L 398.487273 76.630576 
" clip-path="url(#p18e2a008f0)" style="fill: none; stroke: #ff7f0e; stroke-width: 1.5; stroke-linecap: square"/>
   </g>
   <g id="line2d_25">
    <path d="M 73.832727 76.630619 
L 90.919809 76.630615 
L 108.00689 76.630612 
L 125.093971 76.630609 
L 142.181053 76.630605 
L 159.268134 76.630601 
L 176.355215 76.630598 
L 193.442297 76.630594 
L 210.529378 76.63059 
L 227.616459 76.630586 
L 244.703541 76.630582 
L 261.790622 76.630578 
L 278.877703 76.630574 
L 295.964785 76.63057 
L 313.051866 76.630566 
L 330.138947 76.630562 
L 347.226029 76.630558 
L 364.31311 76.630554 
L 381.400191 76.63055 
L 398.487273 76.63055 
" clip-path="url(#p18e2a008f0)" style="fill: none; stroke: #2ca02c; stroke-width: 1.5; stroke-linecap: square"/>
   </g>
   <g id="patch_5">
    <path d="M 57.6 87.353379 
L 57.6 41.472 
" style="fill: none; stroke: #000000; stroke-width: 0.8; stroke-linejoin: miter; stroke-linecap: square"/>
   </g>
   <g id="patch_6">
    <path d="M 414.72 87.353379 
L 414.72 41.472 
" style="fill: none; stroke: #000000; stroke-width: 0.8; stroke-linejoin: miter; stroke-linecap: square"/>
   </g>
   <g id="patch_7">
    <path d="M 57.6 87.353379 
L 414.72 87.353379 
" style="fill: none; stroke: #000000; stroke-width: 0.8; stroke-linejoin: miter; stroke-linecap: square"/>
   </g>
   <g id="patch_8">
    <path d="M 57.6 41.472 
L 414.72 41.472 
" style="fill: none; stroke: #000000; stroke-width: 0.8; stroke-linejoin: miter; stroke-linecap: square"/>
   </g>
   <g id="text_7">
    <!-- velocity - Container 1  -->
    <g transform="translate(169.779375 38.472)scale(0.12 -0.12)">
     <defs>
      <path id="DejaVuSans-63" d="M 3122 3366 
L 3122 2828 
Q 2878 2963 2633 3030 
Q 2388 3097 2138 3097 
Q 1578 3097 1268 2742 
Q 959 2388 959 1747 
Q 959 1106 1268 751 
Q 1578 397 2138 397 
Q 2388 397 2633 464 
Q 2878 531 3122 666 
L 3122 134 
Q 2881 22 2623 -34 
Q 2366 -91 2075 -91 
Q 1284 -91 818 406 
Q 353 903 353 1747 
Q 353 2603 823 3093 
Q 1294 3584 2113 3584 
Q 2378 3584 2631 3529 
Q 2884 3475 3122 3366 
z
" transform="scale(0.015625)"/>
      <path id="DejaVuSans-74" d="M 1172 4494 
L 1172 3500 
L 2356 3500 
L 2356 3053 
L 1172 3053 
L 1172 1153 
Q 1172 725 1289 603 
Q 1406 481 1766 481 
L 2356 481 
L 2356 0 
L 1766 0 
Q 1100 0 847 248 
Q 594 497 594 1153 
L 594 3053 
L 172 3053 
L 172 3500 
L 594 3500 
L 594 4494 
L 1172 4494 
z
" transform="scale(0.015625)"/>
      <path id="DejaVuSans-79" d="M 2059 -325 
Q 1816 -950 1584 -1140 
Q 1353 -1331 966 -1331 
L 506 -1331 
L 506 -850 
L 844 -850 
Q 1081 -850 1212 -737 
Q 1344 -625 1503 -206 
L 1606 56 
L 191 3500 
L 800 3500 
L 1894 763 
L 2988 3500 
L 3597 3500 
L 2059 -325 
z
" transform="scale(0.015625)"/>
      <path id="DejaVuSans-2d" d="M 313 2009 
L 1997 2009 
L 1997 1497 
L 313 1497 
L 313 2009 
z
" transform="scale(0.015625)"/>
      <path id="DejaVuSans-43" d="M 4122 4306 
L 4122 3641 
Q 3803 3938 3442 4084 
Q 3081 4231 2675 4231 
Q 1875 4231 1450 3742 
Q 1025 3253 1025 2328 
Q 1025 1406 1450 917 
Q 1875 428 2675 428 
Q 3081 428 3442 575 
Q 3803 722 4122 1019 
L 4122 359 
Q 3791 134 3420 21 
Q 3050 -91 2638 -91 
Q 1578 -91 968 557 
Q 359 1206 359 2328 
Q 359 3453 968 4101 
Q 1578 4750 2638 4750 
Q 3056 4750 3426 4639 
Q 3797 4528 4122 4306 
z
" transform="scale(0.015625)"/>
     </defs>
     <use xlink:href="#DejaVuSans-76"/>
     <use xlink:href="#DejaVuSans-65" x="59.179688"/>
     <use xlink:href="#DejaVuSans-6c" x="120.703125"/>
     <use xlink:href="#DejaVuSans-6f" x="148.486328"/>
     <use xlink:href="#DejaVuSans-63" x="209.667969"/>
     <use xlink:href="#DejaVuSans-69" x="264.648438"/>
     <use xlink:href="#DejaVuSans-74" x="292.431641"/>
     <use xlink:href="#DejaVuSans-79" x="331.640625"/>
     <use xlink:href="#DejaVuSans-20" x="390.820312"/>
     <use xlink:href="#DejaVuSans-2d" x="422.607422"/>
     <use xlink:href="#DejaVuSans-20" x="458.691406"/>
     <use xlink:href="#DejaVuSans-43" x="490.478516"/>
     <use xlink:href="#DejaVuSans-6f" x="560.302734"/>
     <use xlink:href="#DejaVuSans-6e" x="621.484375"/>
     <use xlink:href="#DejaVuSans-74" x="684.863281"/>
     <use xlink:href="#DejaVuSans-61" x="724.072266"/>
     <use xlink:href="#DejaVuSans-69" x="785.351562"/>
     <use xlink:href="#DejaVuSans-6e" x="813.134766"/>
     <use xlink:href="#DejaVuSans-65" x="876.513672"/>
     <use xlink:href="#DejaVuSans-72" x="938.037109"/>
     <use xlink:href="#DejaVuSans-20" x="979.150391"/>
     <use xlink:href="#DejaVuSans-31" x="1010.9375"/>
     <use xlink:href="#DejaVuSans-20" x="1074.560547"/>
    </g>
   </g>
  </g>
  <g id="axes_3">
   <g id="patch_9">
    <path d="M 57.6 142.411034 
L 414.72 142.411034 
L 414.72 96.529655 
L 57.6 96.529655 
z
" style="fill: #ffffff"/>
   </g>
   <g id="matplotlib.axis_5">
    <g id="xtick_9">
     <g id="line2d_26">
      <g>
       <use xlink:href="#m6deff01747" x="73.832727" y="142.411034" style="stroke: #000000; stroke-width: 0.8"/>
      </g>
     </g>
    </g>
    <g id="xtick_10">
     <g id="line2d_27">
      <g>
       <use xlink:href="#m6deff01747" x="116.550431" y="142.411034" style="stroke: #000000; stroke-width: 0.8"/>
      </g>
     </g>
    </g>
    <g id="xtick_11">
     <g id="line2d_28">
      <g>
       <use xlink:href="#m6deff01747" x="159.268134" y="142.411034" style="stroke: #000000; stroke-width: 0.8"/>
      </g>
     </g>
    </g>
    <g id="xtick_12">
     <g id="line2d_29">
      <g>
       <use xlink:href="#m6deff01747" x="201.985837" y="142.411034" style="stroke: #000000; stroke-width: 0.8"/>
      </g>
     </g>
    </g>
    <g id="xtick_13">
     <g id="line2d_30">
      <g>
       <use xlink:href="#m6deff01747" x="244.703541" y="142.411034" style="stroke: #000000; stroke-width: 0.8"/>
      </g>
     </g>
    </g>
    <g id="xtick_14">
     <g id="line2d_31">
      <g>
       <use xlink:href="#m6deff01747" x="287.421244" y="142.411034" style="stroke: #000000; stroke-width: 0.8"/>
      </g>
     </g>
    </g>
    <g id="xtick_15">
     <g id="line2d_32">
      <g>
       <use xlink:href="#m6deff01747" x="330.138947" y="142.411034" style="stroke: #000000; stroke-width: 0.8"/>
      </g>
     </g>
    </g>
    <g id="xtick_16">
     <g id="line2d_33">
      <g>
       <use xlink:href="#m6deff01747" x="372.856651" y="142.411034" style="stroke: #000000; stroke-width: 0.8"/>
      </g>
     </g>
    </g>
   </g>
   <g id="matplotlib.axis_6">
    <g id="ytick_5">
     <g id="line2d_34">
      <g>
       <use xlink:href="#m895120be34" x="57.6" y="140.745253" style="stroke: #000000; stroke-width: 0.8"/>
      </g>
     </g>
     <g id="text_8">
      <!-- 0 -->
      <g transform="translate(44.2375 144.544472)scale(0.1 -0.1)">
       <use xlink:href="#DejaVuSans-30"/>
      </g>
     </g>
    </g>
    <g id="ytick_6">
     <g id="line2d_35">
      <g>
       <use xlink:href="#m895120be34" x="57.6" y="98.771642" style="stroke: #000000; stroke-width: 0.8"/>
      </g>
     </g>
     <g id="text_9">
      <!-- 1 -->
      <g transform="translate(44.2375 102.570861)scale(0.1 -0.1)">
       <use xlink:href="#DejaVuSans-31"/>
      </g>
     </g>
    </g>
   </g>
   <g id="line2d_36">
    <path d="M 73.832727 140.325517 
L 90.919809 140.325517 
L 108.00689 140.325517 
L 125.093971 140.325517 
L 142.181053 140.325517 
L 159.268134 140.325517 
L 176.355215 140.325517 
L 193.442297 140.325517 
L 210.529378 140.325517 
L 227.616459 140.325517 
L 244.703541 140.325517 
L 261.790622 140.325517 
L 278.877703 140.325517 
L 295.964785 140.325517 
L 313.051866 140.325517 
L 330.138947 140.325517 
L 347.226029 140.325517 
L 364.31311 140.325517 
L 381.400191 140.325517 
L 398.487273 140.325517 
" clip-path="url(#p56c4a17e5f)" style="fill: none; stroke: #1f77b4; stroke-width: 1.5; stroke-linecap: square"/>
   </g>
   <g id="line2d_37">
    <path d="M 73.832727 99.534215 
L 90.919809 99.534281 
L 108.00689 99.534343 
L 125.093971 99.534402 
L 142.181053 99.534457 
L 159.268134 99.534509 
L 176.355215 99.534558 
L 193.442297 99.534603 
L 210.529378 99.534644 
L 227.616459 99.534683 
L 244.703541 99.534717 
L 261.790622 99.534748 
L 278.877703 99.534776 
L 295.964785 99.5348 
L 313.051866 99.534821 
L 330.138947 99.534839 
L 347.226029 99.534852 
L 364.31311 99.534863 
L 381.400191 99.53487 
L 398.487273 99.534873 
" clip-path="url(#p56c4a17e5f)" style="fill: none; stroke: #ff7f0e; stroke-width: 1.5; stroke-linecap: square"/>
   </g>
   <g id="line2d_38">
    <path d="M 73.832727 98.615172 
L 90.919809 98.623182 
L 108.00689 98.631194 
L 125.093971 98.639207 
L 142.181053 98.647221 
L 159.268134 98.655237 
L 176.355215 98.663255 
L 193.442297 98.671274 
L 210.529378 98.679295 
L 227.616459 98.687317 
L 244.703541 98.69534 
L 261.790622 98.703366 
L 278.877703 98.711392 
L 295.964785 98.719421 
L 313.051866 98.72745 
L 330.138947 98.735482 
L 347.226029 98.743515 
L 364.31311 98.751549 
L 381.400191 98.759585 
L 398.487273 98.767622 
" clip-path="url(#p56c4a17e5f)" style="fill: none; stroke: #2ca02c; stroke-width: 1.5; stroke-linecap: square"/>
   </g>
   <g id="line2d_39">
    <path d="M 73.832727 98.615172 
L 90.919809 98.623182 
L 108.00689 98.631194 
L 125.093971 98.639207 
L 142.181053 98.647221 
L 159.268134 98.655237 
L 176.355215 98.663255 
L 193.442297 98.671274 
L 210.529378 98.679295 
L 227.616459 98.687317 
L 244.703541 98.69534 
L 261.790622 98.703366 
L 278.877703 98.711392 
L 295.964785 98.719421 
L 313.051866 98.72745 
L 330.138947 98.735482 
L 347.226029 98.743515 
L 364.31311 98.751549 
L 381.400191 98.759585 
L 398.487273 98.767622 
" clip-path="url(#p56c4a17e5f)" style="fill: none; stroke: #d62728; stroke-width: 1.5; stroke-linecap: square"/>
   </g>
   <g id="line2d_40">
    <path d="M 73.832727 122.624066 
L 90.919809 122.624216 
L 108.00689 122.624516 
L 125.093971 122.624965 
L 142.181053 122.625564 
L 159.268134 122.626313 
L 176.355215 122.627212 
L 193.442297 122.62826 
L 210.529378 122.629458 
L 227.616459 122.630806 
L 244.703541 122.632304 
L 261.790622 122.633952 
L 278.877703 122.63575 
L 295.964785 122.637698 
L 313.051866 122.639795 
L 330.138947 122.642043 
L 347.226029 122.64444 
L 364.31311 122.646988 
L 381.400191 122.649686 
L 398.487273 122.652534 
" clip-path="url(#p56c4a17e5f)" style="fill: none; stroke: #9467bd; stroke-width: 1.5; stroke-linecap: square"/>
   </g>
   <g id="line2d_41">
    <path d="M 73.832727 136.291544 
L 90.919809 136.291555 
L 108.00689 136.291575 
L 125.093971 136.291606 
L 142.181053 136.291647 
L 159.268134 136.291699 
L 176.355215 136.291761 
L 193.442297 136.291834 
L 210.529378 136.291917 
L 227.616459 136.292011 
L 244.703541 136.292116 
L 261.790622 136.292232 
L 278.877703 136.292359 
L 295.964785 136.292497 
L 313.051866 136.292647 
L 330.138947 136.292808 
L 347.226029 136.292981 
L 364.31311 136.293167 
L 381.400191 136.293364 
L 398.487273 136.293574 
" clip-path="url(#p56c4a17e5f)" style="fill: none; stroke: #8c564b; stroke-width: 1.5; stroke-linecap: square"/>
   </g>
   <g id="line2d_42">
    <path d="M 73.832727 136.543034 
L 90.919809 136.543034 
L 108.00689 136.543035 
L 125.093971 136.543036 
L 142.181053 136.543037 
L 159.268134 136.543038 
L 176.355215 136.543039 
L 193.442297 136.543041 
L 210.529378 136.543043 
L 227.616459 136.543045 
L 244.703541 136.543048 
L 261.790622 136.54305 
L 278.877703 136.543053 
L 295.964785 136.543057 
L 313.051866 136.54306 
L 330.138947 136.543064 
L 347.226029 136.543068 
L 364.31311 136.543072 
L 381.400191 136.543077 
L 398.487273 136.543081 
" clip-path="url(#p56c4a17e5f)" style="fill: none; stroke: #e377c2; stroke-width: 1.5; stroke-linecap: square"/>
   </g>
   <g id="line2d_43">
    <path d="M 73.832727 136.547801 
L 90.919809 136.547801 
L 108.00689 136.547801 
L 125.093971 136.547801 
L 142.181053 136.547801 
L 159.268134 136.547801 
L 176.355215 136.547801 
L 193.442297 136.547801 
L 210.529378 136.547801 
L 227.616459 136.547801 
L 244.703541 136.547801 
L 261.790622 136.547801 
L 278.877703 136.547801 
L 295.964785 136.547802 
L 313.051866 136.547802 
L 330.138947 136.547802 
L 347.226029 136.547802 
L 364.31311 136.547802 
L 381.400191 136.547802 
L 398.487273 136.547802 
" clip-path="url(#p56c4a17e5f)" style="fill: none; stroke: #7f7f7f; stroke-width: 1.5; stroke-linecap: square"/>
   </g>
   <g id="line2d_44">
    <path d="M 73.832727 139.812712 
L 90.919809 139.810613 
L 108.00689 139.808628 
L 125.093971 139.806756 
L 142.181053 139.804996 
L 159.268134 139.803349 
L 176.355215 139.801814 
L 193.442297 139.800389 
L 210.529378 139.799076 
L 227.616459 139.797874 
L 244.703541 139.796781 
L 261.790622 139.795799 
L 278.877703 139.794926 
L 295.964785 139.794163 
L 313.051866 139.79351 
L 330.138947 139.792965 
L 347.226029 139.79253 
L 364.31311 139.792203 
L 381.400191 139.791986 
L 398.487273 139.791877 
" clip-path="url(#p56c4a17e5f)" style="fill: none; stroke: #bcbd22; stroke-width: 1.5; stroke-linecap: square"/>
   </g>
   <g id="line2d_45">
    <path d="M 73.832727 140.315939 
L 90.919809 140.315838 
L 108.00689 140.315743 
L 125.093971 140.315652 
L 142.181053 140.315567 
L 159.268134 140.315487 
L 176.355215 140.315412 
L 193.442297 140.315343 
L 210.529378 140.315279 
L 227.616459 140.315219 
L 244.703541 140.315166 
L 261.790622 140.315117 
L 278.877703 140.315074 
L 295.964785 140.315036 
L 313.051866 140.315004 
L 330.138947 140.314977 
L 347.226029 140.314955 
L 364.31311 140.314939 
L 381.400191 140.314928 
L 398.487273 140.314923 
" clip-path="url(#p56c4a17e5f)" style="fill: none; stroke: #17becf; stroke-width: 1.5; stroke-linecap: square"/>
   </g>
   <g id="line2d_46">
    <path d="M 73.832727 140.325354 
L 90.919809 140.325353 
L 108.00689 140.325353 
L 125.093971 140.325352 
L 142.181053 140.325351 
L 159.268134 140.325351 
L 176.355215 140.32535 
L 193.442297 140.32535 
L 210.529378 140.325349 
L 227.616459 140.325349 
L 244.703541 140.325349 
L 261.790622 140.325348 
L 278.877703 140.325348 
L 295.964785 140.325348 
L 313.051866 140.325347 
L 330.138947 140.325347 
L 347.226029 140.325347 
L 364.31311 140.325347 
L 381.400191 140.325347 
L 398.487273 140.325347 
" clip-path="url(#p56c4a17e5f)" style="fill: none; stroke: #1f77b4; stroke-width: 1.5; stroke-linecap: square"/>
   </g>
   <g id="line2d_47">
    <path d="M 73.832727 140.325512 
L 90.919809 140.325512 
L 108.00689 140.325512 
L 125.093971 140.325512 
L 142.181053 140.325512 
L 159.268134 140.325512 
L 176.355215 140.325512 
L 193.442297 140.325512 
L 210.529378 140.325512 
L 227.616459 140.325511 
L 244.703541 140.325511 
L 261.790622 140.325511 
L 278.877703 140.325511 
L 295.964785 140.325511 
L 313.051866 140.325511 
L 330.138947 140.325511 
L 347.226029 140.325511 
L 364.31311 140.325511 
L 381.400191 140.325511 
L 398.487273 140.325511 
" clip-path="url(#p56c4a17e5f)" style="fill: none; stroke: #ff7f0e; stroke-width: 1.5; stroke-linecap: square"/>
   </g>
   <g id="line2d_48">
    <path d="M 73.832727 140.325517 
L 90.919809 140.325517 
L 108.00689 140.325517 
L 125.093971 140.325517 
L 142.181053 140.325517 
L 159.268134 140.325517 
L 176.355215 140.325517 
L 193.442297 140.325517 
L 210.529378 140.325517 
L 227.616459 140.325517 
L 244.703541 140.325517 
L 261.790622 140.325517 
L 278.877703 140.325517 
L 295.964785 140.325517 
L 313.051866 140.325517 
L 330.138947 140.325517 
L 347.226029 140.325517 
L 364.31311 140.325517 
L 381.400191 140.325517 
L 398.487273 140.325517 
" clip-path="url(#p56c4a17e5f)" style="fill: none; stroke: #2ca02c; stroke-width: 1.5; stroke-linecap: square"/>
   </g>
   <g id="patch_10">
    <path d="M 57.6 142.411034 
L 57.6 96.529655 
" style="fill: none; stroke: #000000; stroke-width: 0.8; stroke-linejoin: miter; stroke-linecap: square"/>
   </g>
   <g id="patch_11">
    <path d="M 414.72 142.411034 
L 414.72 96.529655 
" style="fill: none; stroke: #000000; stroke-width: 0.8; stroke-linejoin: miter; stroke-linecap: square"/>
   </g>
   <g id="patch_12">
    <path d="M 57.6 142.411034 
L 414.72 142.411034 
" style="fill: none; stroke: #000000; stroke-width: 0.8; stroke-linejoin: miter; stroke-linecap: square"/>
   </g>
   <g id="patch_13">
    <path d="M 57.6 96.529655 
L 414.72 96.529655 
" style="fill: none; stroke: #000000; stroke-width: 0.8; stroke-linejoin: miter; stroke-linecap: square"/>
   </g>
   <g id="text_10">
    <!-- Pressure - Container 1 -->
    <g transform="translate(169.523438 93.529655)scale(0.12 -0.12)">
     <defs>
      <path id="DejaVuSans-50" d="M 1259 4147 
L 1259 2394 
L 2053 2394 
Q 2494 2394 2734 2622 
Q 2975 2850 2975 3272 
Q 2975 3691 2734 3919 
Q 2494 4147 2053 4147 
L 1259 4147 
z
M 628 4666 
L 2053 4666 
Q 2838 4666 3239 4311 
Q 3641 3956 3641 3272 
Q 3641 2581 3239 2228 
Q 2838 1875 2053 1875 
L 1259 1875 
L 1259 0 
L 628 0 
L 628 4666 
z
" transform="scale(0.015625)"/>
      <path id="DejaVuSans-75" d="M 544 1381 
L 544 3500 
L 1119 3500 
L 1119 1403 
Q 1119 906 1312 657 
Q 1506 409 1894 409 
Q 2359 409 2629 706 
Q 2900 1003 2900 1516 
L 2900 3500 
L 3475 3500 
L 3475 0 
L 2900 0 
L 2900 538 
Q 2691 219 2414 64 
Q 2138 -91 1772 -91 
Q 1169 -91 856 284 
Q 544 659 544 1381 
z
M 1991 3584 
L 1991 3584 
z
" transform="scale(0.015625)"/>
     </defs>
     <use xlink:href="#DejaVuSans-50"/>
     <use xlink:href="#DejaVuSans-72" x="58.552734"/>
     <use xlink:href="#DejaVuSans-65" x="97.416016"/>
     <use xlink:href="#DejaVuSans-73" x="158.939453"/>
     <use xlink:href="#DejaVuSans-73" x="211.039062"/>
     <use xlink:href="#DejaVuSans-75" x="263.138672"/>
     <use xlink:href="#DejaVuSans-72" x="326.517578"/>
     <use xlink:href="#DejaVuSans-65" x="365.380859"/>
     <use xlink:href="#DejaVuSans-20" x="426.904297"/>
     <use xlink:href="#DejaVuSans-2d" x="458.691406"/>
     <use xlink:href="#DejaVuSans-20" x="494.775391"/>
     <use xlink:href="#DejaVuSans-43" x="526.5625"/>
     <use xlink:href="#DejaVuSans-6f" x="596.386719"/>
     <use xlink:href="#DejaVuSans-6e" x="657.568359"/>
     <use xlink:href="#DejaVuSans-74" x="720.947266"/>
     <use xlink:href="#DejaVuSans-61" x="760.15625"/>
     <use xlink:href="#DejaVuSans-69" x="821.435547"/>
     <use xlink:href="#DejaVuSans-6e" x="849.21875"/>
     <use xlink:href="#DejaVuSans-65" x="912.597656"/>
     <use xlink:href="#DejaVuSans-72" x="974.121094"/>
     <use xlink:href="#DejaVuSans-20" x="1015.234375"/>
     <use xlink:href="#DejaVuSans-31" x="1047.021484"/>
    </g>
   </g>
  </g>
  <g id="axes_4">
   <g id="patch_14">
    <path d="M 57.6 197.46869 
L 414.72 197.46869 
L 414.72 151.58731 
L 57.6 151.58731 
z
" style="fill: #ffffff"/>
   </g>
   <g id="matplotlib.axis_7">
    <g id="xtick_17">
     <g id="line2d_49">
      <g>
       <use xlink:href="#m6deff01747" x="73.832727" y="197.46869" style="stroke: #000000; stroke-width: 0.8"/>
      </g>
     </g>
    </g>
    <g id="xtick_18">
     <g id="line2d_50">
      <g>
       <use xlink:href="#m6deff01747" x="116.550431" y="197.46869" style="stroke: #000000; stroke-width: 0.8"/>
      </g>
     </g>
    </g>
    <g id="xtick_19">
     <g id="line2d_51">
      <g>
       <use xlink:href="#m6deff01747" x="159.268134" y="197.46869" style="stroke: #000000; stroke-width: 0.8"/>
      </g>
     </g>
    </g>
    <g id="xtick_20">
     <g id="line2d_52">
      <g>
       <use xlink:href="#m6deff01747" x="201.985837" y="197.46869" style="stroke: #000000; stroke-width: 0.8"/>
      </g>
     </g>
    </g>
    <g id="xtick_21">
     <g id="line2d_53">
      <g>
       <use xlink:href="#m6deff01747" x="244.703541" y="197.46869" style="stroke: #000000; stroke-width: 0.8"/>
      </g>
     </g>
    </g>
    <g id="xtick_22">
     <g id="line2d_54">
      <g>
       <use xlink:href="#m6deff01747" x="287.421244" y="197.46869" style="stroke: #000000; stroke-width: 0.8"/>
      </g>
     </g>
    </g>
    <g id="xtick_23">
     <g id="line2d_55">
      <g>
       <use xlink:href="#m6deff01747" x="330.138947" y="197.46869" style="stroke: #000000; stroke-width: 0.8"/>
      </g>
     </g>
    </g>
    <g id="xtick_24">
     <g id="line2d_56">
      <g>
       <use xlink:href="#m6deff01747" x="372.856651" y="197.46869" style="stroke: #000000; stroke-width: 0.8"/>
      </g>
     </g>
    </g>
   </g>
   <g id="matplotlib.axis_8">
    <g id="ytick_7">
     <g id="line2d_57">
      <g>
       <use xlink:href="#m895120be34" x="57.6" y="194.296883" style="stroke: #000000; stroke-width: 0.8"/>
      </g>
     </g>
     <g id="text_11">
      <!-- 0.050 -->
      <g transform="translate(21.971875 198.096102)scale(0.1 -0.1)">
       <defs>
        <path id="DejaVuSans-2e" d="M 684 794 
L 1344 794 
L 1344 0 
L 684 0 
L 684 794 
z
" transform="scale(0.015625)"/>
        <path id="DejaVuSans-35" d="M 691 4666 
L 3169 4666 
L 3169 4134 
L 1269 4134 
L 1269 2991 
Q 1406 3038 1543 3061 
Q 1681 3084 1819 3084 
Q 2600 3084 3056 2656 
Q 3513 2228 3513 1497 
Q 3513 744 3044 326 
Q 2575 -91 1722 -91 
Q 1428 -91 1123 -41 
Q 819 9 494 109 
L 494 744 
Q 775 591 1075 516 
Q 1375 441 1709 441 
Q 2250 441 2565 725 
Q 2881 1009 2881 1497 
Q 2881 1984 2565 2268 
Q 2250 2553 1709 2553 
Q 1456 2553 1204 2497 
Q 953 2441 691 2322 
L 691 4666 
z
" transform="scale(0.015625)"/>
       </defs>
       <use xlink:href="#DejaVuSans-30"/>
       <use xlink:href="#DejaVuSans-2e" x="63.623047"/>
       <use xlink:href="#DejaVuSans-30" x="95.410156"/>
       <use xlink:href="#DejaVuSans-35" x="159.033203"/>
       <use xlink:href="#DejaVuSans-30" x="222.65625"/>
      </g>
     </g>
    </g>
    <g id="ytick_8">
     <g id="line2d_58">
      <g>
       <use xlink:href="#m895120be34" x="57.6" y="171.516129" style="stroke: #000000; stroke-width: 0.8"/>
      </g>
     </g>
     <g id="text_12">
      <!-- 0.055 -->
      <g transform="translate(21.971875 175.315347)scale(0.1 -0.1)">
       <use xlink:href="#DejaVuSans-30"/>
       <use xlink:href="#DejaVuSans-2e" x="63.623047"/>
       <use xlink:href="#DejaVuSans-30" x="95.410156"/>
       <use xlink:href="#DejaVuSans-35" x="159.033203"/>
       <use xlink:href="#DejaVuSans-35" x="222.65625"/>
      </g>
     </g>
    </g>
   </g>
   <g id="line2d_59">
    <path d="M 73.832727 153.929225 
L 90.919809 153.921232 
L 108.00689 153.906705 
L 125.093971 153.887836 
L 142.181053 153.866756 
L 159.268134 153.845082 
L 176.355215 153.823859 
L 193.442297 153.803695 
L 210.529378 153.784905 
L 227.616459 153.767661 
L 244.703541 153.752022 
L 261.790622 153.738016 
L 278.877703 153.725656 
L 295.964785 153.714928 
L 313.051866 153.70582 
L 330.138947 153.698307 
L 347.226029 153.692358 
L 364.31311 153.68794 
L 381.400191 153.685017 
L 398.487273 153.683565 
" clip-path="url(#pdec6d6c0ec)" style="fill: none; stroke: #1f77b4; stroke-width: 1.5; stroke-linecap: square"/>
   </g>
   <g id="line2d_60">
    <path d="M 73.832727 193.650207 
L 90.919809 193.616556 
L 108.00689 193.418981 
L 125.093971 193.478311 
L 142.181053 193.777595 
L 159.268134 194.116255 
L 176.355215 194.378093 
L 193.442297 194.553093 
L 210.529378 194.672306 
L 227.616459 194.76627 
L 244.703541 194.854449 
L 261.790622 194.94758 
L 278.877703 195.051607 
L 295.964785 195.168887 
L 313.051866 195.292476 
L 330.138947 195.383172 
L 347.226029 195.318109 
L 364.31311 194.855192 
L 381.400191 193.823555 
L 398.487273 192.708573 
" clip-path="url(#pdec6d6c0ec)" style="fill: none; stroke: #ff7f0e; stroke-width: 1.5; stroke-linecap: square"/>
   </g>
   <g id="line2d_61">
    <path d="M 73.832727 194.29684 
L 90.919809 194.296812 
L 108.00689 194.296455 
L 125.093971 194.295397 
L 142.181053 194.294117 
L 159.268134 194.291342 
L 176.355215 194.282165 
L 193.442297 194.263436 
L 210.529378 194.24065 
L 227.616459 194.225116 
L 244.703541 194.221345 
L 261.790622 194.216622 
L 278.877703 194.183143 
L 295.964785 194.091904 
L 313.051866 193.9287 
L 330.138947 193.702679 
L 347.226029 193.443999 
L 364.31311 193.193575 
L 381.400191 192.990706 
L 398.487273 192.863146 
" clip-path="url(#pdec6d6c0ec)" style="fill: none; stroke: #2ca02c; stroke-width: 1.5; stroke-linecap: square"/>
   </g>
   <g id="line2d_62">
    <path d="M 73.832727 194.296883 
L 90.919809 194.296882 
L 108.00689 194.296882 
L 125.093971 194.296882 
L 142.181053 194.296882 
L 159.268134 194.296882 
L 176.355215 194.296882 
L 193.442297 194.296882 
L 210.529378 194.296882 
L 227.616459 194.296882 
L 244.703541 194.296883 
L 261.790622 194.296883 
L 278.877703 194.296883 
L 295.964785 194.296883 
L 313.051866 194.296883 
L 330.138947 194.296883 
L 347.226029 194.296884 
L 364.31311 194.296884 
L 381.400191 194.296884 
L 398.487273 194.296884 
" clip-path="url(#pdec6d6c0ec)" style="fill: none; stroke: #d62728; stroke-width: 1.5; stroke-linecap: square"/>
   </g>
   <g id="line2d_63">
    <path d="M 73.832727 194.28905 
L 90.919809 194.289051 
L 108.00689 194.289051 
L 125.093971 194.289053 
L 142.181053 194.289053 
L 159.268134 194.289053 
L 176.355215 194.289054 
L 193.442297 194.289055 
L 210.529378 194.289055 
L 227.616459 194.289055 
L 244.703541 194.289055 
L 261.790622 194.289055 
L 278.877703 194.289055 
L 295.964785 194.289054 
L 313.051866 194.289054 
L 330.138947 194.289053 
L 347.226029 194.289052 
L 364.31311 194.289051 
L 381.400191 194.28905 
L 398.487273 194.289049 
" clip-path="url(#pdec6d6c0ec)" style="fill: none; stroke: #9467bd; stroke-width: 1.5; stroke-linecap: square"/>
   </g>
   <g id="line2d_64">
    <path d="M 73.832727 193.90009 
L 90.919809 193.900089 
L 108.00689 193.900087 
L 125.093971 193.900083 
L 142.181053 193.900079 
L 159.268134 193.900076 
L 176.355215 193.90007 
L 193.442297 193.900063 
L 210.529378 193.900054 
L 227.616459 193.900044 
L 244.703541 193.900035 
L 261.790622 193.900024 
L 278.877703 193.900016 
L 295.964785 193.9 
L 313.051866 193.899988 
L 330.138947 193.899975 
L 347.226029 193.89996 
L 364.31311 193.899944 
L 381.400191 193.899927 
L 398.487273 193.899916 
" clip-path="url(#pdec6d6c0ec)" style="fill: none; stroke: #8c564b; stroke-width: 1.5; stroke-linecap: square"/>
   </g>
   <g id="line2d_65">
    <path d="M 73.832727 193.786576 
L 90.919809 193.786575 
L 108.00689 193.786581 
L 125.093971 193.786587 
L 142.181053 193.786596 
L 159.268134 193.786609 
L 176.355215 193.786617 
L 193.442297 193.786633 
L 210.529378 193.786654 
L 227.616459 193.78667 
L 244.703541 193.786692 
L 261.790622 193.78671 
L 278.877703 193.786733 
L 295.964785 193.786756 
L 313.051866 193.786789 
L 330.138947 193.786823 
L 347.226029 193.786856 
L 364.31311 193.786892 
L 381.400191 193.786926 
L 398.487273 193.786957 
" clip-path="url(#pdec6d6c0ec)" style="fill: none; stroke: #e377c2; stroke-width: 1.5; stroke-linecap: square"/>
   </g>
   <g id="line2d_66">
    <path d="M 73.832727 193.782646 
L 90.919809 193.782649 
L 108.00689 193.782656 
L 125.093971 193.782663 
L 142.181053 193.78267 
L 159.268134 193.782681 
L 176.355215 193.782694 
L 193.442297 193.782711 
L 210.529378 193.782728 
L 227.616459 193.782749 
L 244.703541 193.782771 
L 261.790622 193.782795 
L 278.877703 193.782823 
L 295.964785 193.782853 
L 313.051866 193.782882 
L 330.138947 193.782915 
L 347.226029 193.782948 
L 364.31311 193.782981 
L 381.400191 193.783008 
L 398.487273 193.783021 
" clip-path="url(#pdec6d6c0ec)" style="fill: none; stroke: #7f7f7f; stroke-width: 1.5; stroke-linecap: square"/>
   </g>
   <g id="line2d_67">
    <path d="M 73.832727 188.907948 
L 90.919809 188.921086 
L 108.00689 188.933882 
L 125.093971 188.94593 
L 142.181053 188.957223 
L 159.268134 188.967785 
L 176.355215 188.977613 
L 193.442297 188.98672 
L 210.529378 188.995118 
L 227.616459 189.002808 
L 244.703541 189.009803 
L 261.790622 189.016103 
L 278.877703 189.021709 
L 295.964785 189.026625 
L 313.051866 189.030853 
L 330.138947 189.034397 
L 347.226029 189.037257 
L 364.31311 189.03944 
L 381.400191 189.040955 
L 398.487273 189.041786 
" clip-path="url(#pdec6d6c0ec)" style="fill: none; stroke: #bcbd22; stroke-width: 1.5; stroke-linecap: square"/>
   </g>
   <g id="line2d_68">
    <path d="M 73.832727 156.977492 
L 90.919809 156.969168 
L 108.00689 156.961943 
L 125.093971 156.95575 
L 142.181053 156.950181 
L 159.268134 156.945135 
L 176.355215 156.940563 
L 193.442297 156.936423 
L 210.529378 156.932707 
L 227.616459 156.92941 
L 244.703541 156.926501 
L 261.790622 156.923976 
L 278.877703 156.921866 
L 295.964785 156.920121 
L 313.051866 156.918714 
L 330.138947 156.917729 
L 347.226029 156.91701 
L 364.31311 156.916637 
L 381.400191 156.916533 
L 398.487273 156.91656 
" clip-path="url(#pdec6d6c0ec)" style="fill: none; stroke: #17becf; stroke-width: 1.5; stroke-linecap: square"/>
   </g>
   <g id="line2d_69">
    <path d="M 73.832727 153.985493 
L 90.919809 153.968997 
L 108.00689 153.944776 
L 125.093971 153.918814 
L 142.181053 153.893595 
L 159.268134 153.869876 
L 176.355215 153.847854 
L 193.442297 153.827505 
L 210.529378 153.808857 
L 227.616459 153.791876 
L 244.703541 153.77654 
L 261.790622 153.762846 
L 278.877703 153.750753 
L 295.964785 153.740284 
L 313.051866 153.731409 
L 330.138947 153.724136 
L 347.226029 153.718417 
L 364.31311 153.714233 
L 381.400191 153.711504 
L 398.487273 153.710182 
" clip-path="url(#pdec6d6c0ec)" style="fill: none; stroke: #1f77b4; stroke-width: 1.5; stroke-linecap: square"/>
   </g>
   <g id="line2d_70">
    <path d="M 73.832727 153.93383 
L 90.919809 153.922578 
L 108.00689 153.903598 
L 125.093971 153.880849 
L 142.181053 153.85713 
L 159.268134 153.833946 
L 176.355215 153.811989 
L 193.442297 153.79157 
L 210.529378 153.772769 
L 227.616459 153.755641 
L 244.703541 153.740142 
L 261.790622 153.72631 
L 278.877703 153.714115 
L 295.964785 153.703529 
L 313.051866 153.694562 
L 330.138947 153.687178 
L 347.226029 153.681362 
L 364.31311 153.677061 
L 381.400191 153.674246 
L 398.487273 153.672839 
" clip-path="url(#pdec6d6c0ec)" style="fill: none; stroke: #ff7f0e; stroke-width: 1.5; stroke-linecap: square"/>
   </g>
   <g id="line2d_71">
    <path d="M 73.832727 153.921709 
L 90.919809 153.912706 
L 108.00689 153.896814 
L 125.093971 153.876797 
L 142.181053 153.854999 
L 159.268134 153.832989 
L 176.355215 153.811687 
L 193.442297 153.791598 
L 210.529378 153.772953 
L 227.616459 153.755881 
L 244.703541 153.740409 
L 261.790622 153.726571 
L 278.877703 153.714359 
L 295.964785 153.703756 
L 313.051866 153.694758 
L 330.138947 153.687339 
L 347.226029 153.681473 
L 364.31311 153.677123 
L 381.400191 153.674256 
L 398.487273 153.672828 
" clip-path="url(#pdec6d6c0ec)" style="fill: none; stroke: #2ca02c; stroke-width: 1.5; stroke-linecap: square"/>
   </g>
   <g id="patch_15">
    <path d="M 57.6 197.46869 
L 57.6 151.58731 
" style="fill: none; stroke: #000000; stroke-width: 0.8; stroke-linejoin: miter; stroke-linecap: square"/>
   </g>
   <g id="patch_16">
    <path d="M 414.72 197.46869 
L 414.72 151.58731 
" style="fill: none; stroke: #000000; stroke-width: 0.8; stroke-linejoin: miter; stroke-linecap: square"/>
   </g>
   <g id="patch_17">
    <path d="M 57.6 197.46869 
L 414.72 197.46869 
" style="fill: none; stroke: #000000; stroke-width: 0.8; stroke-linejoin: miter; stroke-linecap: square"/>
   </g>
   <g id="patch_18">
    <path d="M 57.6 151.58731 
L 414.72 151.58731 
" style="fill: none; stroke: #000000; stroke-width: 0.8; stroke-linejoin: miter; stroke-linecap: square"/>
   </g>
   <g id="text_13">
    <!-- yA - Container 1 -->
    <g transform="translate(187.48125 148.58731)scale(0.12 -0.12)">
     <defs>
      <path id="DejaVuSans-41" d="M 2188 4044 
L 1331 1722 
L 3047 1722 
L 2188 4044 
z
M 1831 4666 
L 2547 4666 
L 4325 0 
L 3669 0 
L 3244 1197 
L 1141 1197 
L 716 0 
L 50 0 
L 1831 4666 
z
" transform="scale(0.015625)"/>
     </defs>
     <use xlink:href="#DejaVuSans-79"/>
     <use xlink:href="#DejaVuSans-41" x="59.179688"/>
     <use xlink:href="#DejaVuSans-20" x="127.587891"/>
     <use xlink:href="#DejaVuSans-2d" x="159.375"/>
     <use xlink:href="#DejaVuSans-20" x="195.458984"/>
     <use xlink:href="#DejaVuSans-43" x="227.246094"/>
     <use xlink:href="#DejaVuSans-6f" x="297.070312"/>
     <use xlink:href="#DejaVuSans-6e" x="358.251953"/>
     <use xlink:href="#DejaVuSans-74" x="421.630859"/>
     <use xlink:href="#DejaVuSans-61" x="460.839844"/>
     <use xlink:href="#DejaVuSans-69" x="522.119141"/>
     <use xlink:href="#DejaVuSans-6e" x="549.902344"/>
     <use xlink:href="#DejaVuSans-65" x="613.28125"/>
     <use xlink:href="#DejaVuSans-72" x="674.804688"/>
     <use xlink:href="#DejaVuSans-20" x="715.917969"/>
     <use xlink:href="#DejaVuSans-31" x="747.705078"/>
    </g>
   </g>
  </g>
  <g id="axes_5">
   <g id="patch_19">
    <path d="M 57.6 252.526345 
L 414.72 252.526345 
L 414.72 206.644966 
L 57.6 206.644966 
z
" style="fill: #ffffff"/>
   </g>
   <g id="matplotlib.axis_9">
    <g id="xtick_25">
     <g id="line2d_72">
      <g>
       <use xlink:href="#m6deff01747" x="73.832727" y="252.526345" style="stroke: #000000; stroke-width: 0.8"/>
      </g>
     </g>
    </g>
    <g id="xtick_26">
     <g id="line2d_73">
      <g>
       <use xlink:href="#m6deff01747" x="116.550431" y="252.526345" style="stroke: #000000; stroke-width: 0.8"/>
      </g>
     </g>
    </g>
    <g id="xtick_27">
     <g id="line2d_74">
      <g>
       <use xlink:href="#m6deff01747" x="159.268134" y="252.526345" style="stroke: #000000; stroke-width: 0.8"/>
      </g>
     </g>
    </g>
    <g id="xtick_28">
     <g id="line2d_75">
      <g>
       <use xlink:href="#m6deff01747" x="201.985837" y="252.526345" style="stroke: #000000; stroke-width: 0.8"/>
      </g>
     </g>
    </g>
    <g id="xtick_29">
     <g id="line2d_76">
      <g>
       <use xlink:href="#m6deff01747" x="244.703541" y="252.526345" style="stroke: #000000; stroke-width: 0.8"/>
      </g>
     </g>
    </g>
    <g id="xtick_30">
     <g id="line2d_77">
      <g>
       <use xlink:href="#m6deff01747" x="287.421244" y="252.526345" style="stroke: #000000; stroke-width: 0.8"/>
      </g>
     </g>
    </g>
    <g id="xtick_31">
     <g id="line2d_78">
      <g>
       <use xlink:href="#m6deff01747" x="330.138947" y="252.526345" style="stroke: #000000; stroke-width: 0.8"/>
      </g>
     </g>
    </g>
    <g id="xtick_32">
     <g id="line2d_79">
      <g>
       <use xlink:href="#m6deff01747" x="372.856651" y="252.526345" style="stroke: #000000; stroke-width: 0.8"/>
      </g>
     </g>
    </g>
   </g>
   <g id="matplotlib.axis_10">
    <g id="ytick_9">
     <g id="line2d_80">
      <g>
       <use xlink:href="#m895120be34" x="57.6" y="233.86524" style="stroke: #000000; stroke-width: 0.8"/>
      </g>
     </g>
     <g id="text_14">
      <!-- 0.895 -->
      <g transform="translate(21.971875 237.664459)scale(0.1 -0.1)">
       <defs>
        <path id="DejaVuSans-38" d="M 2034 2216 
Q 1584 2216 1326 1975 
Q 1069 1734 1069 1313 
Q 1069 891 1326 650 
Q 1584 409 2034 409 
Q 2484 409 2743 651 
Q 3003 894 3003 1313 
Q 3003 1734 2745 1975 
Q 2488 2216 2034 2216 
z
M 1403 2484 
Q 997 2584 770 2862 
Q 544 3141 544 3541 
Q 544 4100 942 4425 
Q 1341 4750 2034 4750 
Q 2731 4750 3128 4425 
Q 3525 4100 3525 3541 
Q 3525 3141 3298 2862 
Q 3072 2584 2669 2484 
Q 3125 2378 3379 2068 
Q 3634 1759 3634 1313 
Q 3634 634 3220 271 
Q 2806 -91 2034 -91 
Q 1263 -91 848 271 
Q 434 634 434 1313 
Q 434 1759 690 2068 
Q 947 2378 1403 2484 
z
M 1172 3481 
Q 1172 3119 1398 2916 
Q 1625 2713 2034 2713 
Q 2441 2713 2670 2916 
Q 2900 3119 2900 3481 
Q 2900 3844 2670 4047 
Q 2441 4250 2034 4250 
Q 1625 4250 1398 4047 
Q 1172 3844 1172 3481 
z
" transform="scale(0.015625)"/>
        <path id="DejaVuSans-39" d="M 703 97 
L 703 672 
Q 941 559 1184 500 
Q 1428 441 1663 441 
Q 2288 441 2617 861 
Q 2947 1281 2994 2138 
Q 2813 1869 2534 1725 
Q 2256 1581 1919 1581 
Q 1219 1581 811 2004 
Q 403 2428 403 3163 
Q 403 3881 828 4315 
Q 1253 4750 1959 4750 
Q 2769 4750 3195 4129 
Q 3622 3509 3622 2328 
Q 3622 1225 3098 567 
Q 2575 -91 1691 -91 
Q 1453 -91 1209 -44 
Q 966 3 703 97 
z
M 1959 2075 
Q 2384 2075 2632 2365 
Q 2881 2656 2881 3163 
Q 2881 3666 2632 3958 
Q 2384 4250 1959 4250 
Q 1534 4250 1286 3958 
Q 1038 3666 1038 3163 
Q 1038 2656 1286 2365 
Q 1534 2075 1959 2075 
z
" transform="scale(0.015625)"/>
       </defs>
       <use xlink:href="#DejaVuSans-30"/>
       <use xlink:href="#DejaVuSans-2e" x="63.623047"/>
       <use xlink:href="#DejaVuSans-38" x="95.410156"/>
       <use xlink:href="#DejaVuSans-39" x="159.033203"/>
       <use xlink:href="#DejaVuSans-35" x="222.65625"/>
      </g>
     </g>
    </g>
    <g id="ytick_10">
     <g id="line2d_81">
      <g>
       <use xlink:href="#m895120be34" x="57.6" y="209.816799" style="stroke: #000000; stroke-width: 0.8"/>
      </g>
     </g>
     <g id="text_15">
      <!-- 0.900 -->
      <g transform="translate(21.971875 213.616017)scale(0.1 -0.1)">
       <use xlink:href="#DejaVuSans-30"/>
       <use xlink:href="#DejaVuSans-2e" x="63.623047"/>
       <use xlink:href="#DejaVuSans-39" x="95.410156"/>
       <use xlink:href="#DejaVuSans-30" x="159.033203"/>
       <use xlink:href="#DejaVuSans-30" x="222.65625"/>
      </g>
     </g>
    </g>
   </g>
   <g id="line2d_82">
    <path d="M 73.832727 250.184423 
L 90.919809 250.192415 
L 108.00689 250.206943 
L 125.093971 250.225812 
L 142.181053 250.246892 
L 159.268134 250.268567 
L 176.355215 250.28979 
L 193.442297 250.309954 
L 210.529378 250.328743 
L 227.616459 250.345988 
L 244.703541 250.361626 
L 261.790622 250.375633 
L 278.877703 250.387992 
L 295.964785 250.39872 
L 313.051866 250.407828 
L 330.138947 250.41534 
L 347.226029 250.42129 
L 364.31311 250.425707 
L 381.400191 250.42863 
L 398.487273 250.430082 
" clip-path="url(#p52f1957ed0)" style="fill: none; stroke: #1f77b4; stroke-width: 1.5; stroke-linecap: square"/>
   </g>
   <g id="line2d_83">
    <path d="M 73.832727 210.463512 
L 90.919809 210.497151 
L 108.00689 210.694728 
L 125.093971 210.635395 
L 142.181053 210.336102 
L 159.268134 209.997432 
L 176.355215 209.735588 
L 193.442297 209.560582 
L 210.529378 209.441366 
L 227.616459 209.3474 
L 244.703541 209.259219 
L 261.790622 209.166086 
L 278.877703 209.062056 
L 295.964785 208.944774 
L 313.051866 208.821182 
L 330.138947 208.730483 
L 347.226029 208.795542 
L 364.31311 209.258454 
L 381.400191 210.290084 
L 398.487273 211.40506 
" clip-path="url(#p52f1957ed0)" style="fill: none; stroke: #ff7f0e; stroke-width: 1.5; stroke-linecap: square"/>
   </g>
   <g id="line2d_84">
    <path d="M 73.832727 209.816842 
L 90.919809 209.81687 
L 108.00689 209.817227 
L 125.093971 209.818285 
L 142.181053 209.819566 
L 159.268134 209.822341 
L 176.355215 209.831518 
L 193.442297 209.850249 
L 210.529378 209.873036 
L 227.616459 209.888572 
L 244.703541 209.892342 
L 261.790622 209.897066 
L 278.877703 209.930547 
L 295.964785 210.021793 
L 313.051866 210.185009 
L 330.138947 210.411046 
L 347.226029 210.669743 
L 364.31311 210.920184 
L 381.400191 211.123067 
L 398.487273 211.250635 
" clip-path="url(#p52f1957ed0)" style="fill: none; stroke: #2ca02c; stroke-width: 1.5; stroke-linecap: square"/>
   </g>
   <g id="line2d_85">
    <path d="M 73.832727 209.816799 
L 90.919809 209.8168 
L 108.00689 209.8168 
L 125.093971 209.8168 
L 142.181053 209.8168 
L 159.268134 209.8168 
L 176.355215 209.8168 
L 193.442297 209.8168 
L 210.529378 209.8168 
L 227.616459 209.816799 
L 244.703541 209.816799 
L 261.790622 209.816799 
L 278.877703 209.816799 
L 295.964785 209.816799 
L 313.051866 209.816799 
L 330.138947 209.816799 
L 347.226029 209.816798 
L 364.31311 209.816798 
L 381.400191 209.816798 
L 398.487273 209.816798 
" clip-path="url(#p52f1957ed0)" style="fill: none; stroke: #d62728; stroke-width: 1.5; stroke-linecap: square"/>
   </g>
   <g id="line2d_86">
    <path d="M 73.832727 209.824633 
L 90.919809 209.824632 
L 108.00689 209.824631 
L 125.093971 209.82463 
L 142.181053 209.824629 
L 159.268134 209.824629 
L 176.355215 209.824628 
L 193.442297 209.824628 
L 210.529378 209.824628 
L 227.616459 209.824627 
L 244.703541 209.824628 
L 261.790622 209.824628 
L 278.877703 209.824628 
L 295.964785 209.824629 
L 313.051866 209.824629 
L 330.138947 209.824629 
L 347.226029 209.82463 
L 364.31311 209.824632 
L 381.400191 209.824633 
L 398.487273 209.82463 
" clip-path="url(#p52f1957ed0)" style="fill: none; stroke: #9467bd; stroke-width: 1.5; stroke-linecap: square"/>
   </g>
   <g id="line2d_87">
    <path d="M 73.832727 210.213624 
L 90.919809 210.213624 
L 108.00689 210.213626 
L 125.093971 210.21363 
L 142.181053 210.213634 
L 159.268134 210.213638 
L 176.355215 210.213643 
L 193.442297 210.21365 
L 210.529378 210.213659 
L 227.616459 210.213669 
L 244.703541 210.213679 
L 261.790622 210.213689 
L 278.877703 210.213698 
L 295.964785 210.213713 
L 313.051866 210.213725 
L 330.138947 210.213737 
L 347.226029 210.213754 
L 364.31311 210.21377 
L 381.400191 210.213787 
L 398.487273 210.213811 
" clip-path="url(#p52f1957ed0)" style="fill: none; stroke: #8c564b; stroke-width: 1.5; stroke-linecap: square"/>
   </g>
   <g id="line2d_88">
    <path d="M 73.832727 210.327145 
L 90.919809 210.327145 
L 108.00689 210.32714 
L 125.093971 210.327134 
L 142.181053 210.327125 
L 159.268134 210.327112 
L 176.355215 210.327104 
L 193.442297 210.327088 
L 210.529378 210.327067 
L 227.616459 210.327051 
L 244.703541 210.327029 
L 261.790622 210.32701 
L 278.877703 210.326987 
L 295.964785 210.326965 
L 313.051866 210.326932 
L 330.138947 210.326898 
L 347.226029 210.326865 
L 364.31311 210.326831 
L 381.400191 210.326798 
L 398.487273 210.326768 
" clip-path="url(#p52f1957ed0)" style="fill: none; stroke: #e377c2; stroke-width: 1.5; stroke-linecap: square"/>
   </g>
   <g id="line2d_89">
    <path d="M 73.832727 210.331075 
L 90.919809 210.331072 
L 108.00689 210.331065 
L 125.093971 210.331058 
L 142.181053 210.331051 
L 159.268134 210.33104 
L 176.355215 210.331027 
L 193.442297 210.33101 
L 210.529378 210.330993 
L 227.616459 210.330972 
L 244.703541 210.33095 
L 261.790622 210.330926 
L 278.877703 210.330898 
L 295.964785 210.330868 
L 313.051866 210.330839 
L 330.138947 210.330807 
L 347.226029 210.330774 
L 364.31311 210.330742 
L 381.400191 210.330716 
L 398.487273 210.330704 
" clip-path="url(#p52f1957ed0)" style="fill: none; stroke: #7f7f7f; stroke-width: 1.5; stroke-linecap: square"/>
   </g>
   <g id="line2d_90">
    <path d="M 73.832727 215.206107 
L 90.919809 215.192969 
L 108.00689 215.180171 
L 125.093971 215.168122 
L 142.181053 215.156829 
L 159.268134 215.146266 
L 176.355215 215.136437 
L 193.442297 215.12733 
L 210.529378 215.118932 
L 227.616459 215.111241 
L 244.703541 215.104246 
L 261.790622 215.097946 
L 278.877703 215.092339 
L 295.964785 215.087423 
L 313.051866 215.083195 
L 330.138947 215.079651 
L 347.226029 215.076792 
L 364.31311 215.074608 
L 381.400191 215.073093 
L 398.487273 215.072263 
" clip-path="url(#p52f1957ed0)" style="fill: none; stroke: #bcbd22; stroke-width: 1.5; stroke-linecap: square"/>
   </g>
   <g id="line2d_91">
    <path d="M 73.832727 247.136587 
L 90.919809 247.144913 
L 108.00689 247.15214 
L 125.093971 247.158334 
L 142.181053 247.163903 
L 159.268134 247.168951 
L 176.355215 247.173524 
L 193.442297 247.177665 
L 210.529378 247.181381 
L 227.616459 247.184679 
L 244.703541 247.187588 
L 261.790622 247.190114 
L 278.877703 247.192225 
L 295.964785 247.19397 
L 313.051866 247.195377 
L 330.138947 247.196363 
L 347.226029 247.197082 
L 364.31311 247.197455 
L 381.400191 247.197559 
L 398.487273 247.197532 
" clip-path="url(#p52f1957ed0)" style="fill: none; stroke: #17becf; stroke-width: 1.5; stroke-linecap: square"/>
   </g>
   <g id="line2d_92">
    <path d="M 73.832727 250.128173 
L 90.919809 250.14467 
L 108.00689 250.168891 
L 125.093971 250.194853 
L 142.181053 250.220072 
L 159.268134 250.243791 
L 176.355215 250.265813 
L 193.442297 250.286162 
L 210.529378 250.30481 
L 227.616459 250.321791 
L 244.703541 250.337127 
L 261.790622 250.350821 
L 278.877703 250.362914 
L 295.964785 250.373382 
L 313.051866 250.382258 
L 330.138947 250.389531 
L 347.226029 250.39525 
L 364.31311 250.399433 
L 381.400191 250.402162 
L 398.487273 250.403485 
" clip-path="url(#p52f1957ed0)" style="fill: none; stroke: #1f77b4; stroke-width: 1.5; stroke-linecap: square"/>
   </g>
   <g id="line2d_93">
    <path d="M 73.832727 250.179824 
L 90.919809 250.191077 
L 108.00689 250.210057 
L 125.093971 250.232807 
L 142.181053 250.256526 
L 159.268134 250.27971 
L 176.355215 250.301667 
L 193.442297 250.322086 
L 210.529378 250.340887 
L 227.616459 250.358015 
L 244.703541 250.373513 
L 261.790622 250.387346 
L 278.877703 250.399541 
L 295.964785 250.410126 
L 313.051866 250.419094 
L 330.138947 250.426477 
L 347.226029 250.432294 
L 364.31311 250.436595 
L 381.400191 250.439409 
L 398.487273 250.440816 
" clip-path="url(#p52f1957ed0)" style="fill: none; stroke: #ff7f0e; stroke-width: 1.5; stroke-linecap: square"/>
   </g>
   <g id="line2d_94">
    <path d="M 73.832727 250.191944 
L 90.919809 250.200948 
L 108.00689 250.216841 
L 125.093971 250.236859 
L 142.181053 250.258657 
L 159.268134 250.280667 
L 176.355215 250.301968 
L 193.442297 250.322058 
L 210.529378 250.340703 
L 227.616459 250.357775 
L 244.703541 250.373246 
L 261.790622 250.387085 
L 278.877703 250.399297 
L 295.964785 250.409899 
L 313.051866 250.418897 
L 330.138947 250.426317 
L 347.226029 250.432183 
L 364.31311 250.436532 
L 381.400191 250.439399 
L 398.487273 250.440828 
" clip-path="url(#p52f1957ed0)" style="fill: none; stroke: #2ca02c; stroke-width: 1.5; stroke-linecap: square"/>
   </g>
   <g id="patch_20">
    <path d="M 57.6 252.526345 
L 57.6 206.644966 
" style="fill: none; stroke: #000000; stroke-width: 0.8; stroke-linejoin: miter; stroke-linecap: square"/>
   </g>
   <g id="patch_21">
    <path d="M 414.72 252.526345 
L 414.72 206.644966 
" style="fill: none; stroke: #000000; stroke-width: 0.8; stroke-linejoin: miter; stroke-linecap: square"/>
   </g>
   <g id="patch_22">
    <path d="M 57.6 252.526345 
L 414.72 252.526345 
" style="fill: none; stroke: #000000; stroke-width: 0.8; stroke-linejoin: miter; stroke-linecap: square"/>
   </g>
   <g id="patch_23">
    <path d="M 57.6 206.644966 
L 414.72 206.644966 
" style="fill: none; stroke: #000000; stroke-width: 0.8; stroke-linejoin: miter; stroke-linecap: square"/>
   </g>
   <g id="text_16">
    <!-- yB - Container 1 -->
    <g transform="translate(187.469063 203.644966)scale(0.12 -0.12)">
     <defs>
      <path id="DejaVuSans-42" d="M 1259 2228 
L 1259 519 
L 2272 519 
Q 2781 519 3026 730 
Q 3272 941 3272 1375 
Q 3272 1813 3026 2020 
Q 2781 2228 2272 2228 
L 1259 2228 
z
M 1259 4147 
L 1259 2741 
L 2194 2741 
Q 2656 2741 2882 2914 
Q 3109 3088 3109 3444 
Q 3109 3797 2882 3972 
Q 2656 4147 2194 4147 
L 1259 4147 
z
M 628 4666 
L 2241 4666 
Q 2963 4666 3353 4366 
Q 3744 4066 3744 3513 
Q 3744 3084 3544 2831 
Q 3344 2578 2956 2516 
Q 3422 2416 3680 2098 
Q 3938 1781 3938 1306 
Q 3938 681 3513 340 
Q 3088 0 2303 0 
L 628 0 
L 628 4666 
z
" transform="scale(0.015625)"/>
     </defs>
     <use xlink:href="#DejaVuSans-79"/>
     <use xlink:href="#DejaVuSans-42" x="59.179688"/>
     <use xlink:href="#DejaVuSans-20" x="127.783203"/>
     <use xlink:href="#DejaVuSans-2d" x="159.570312"/>
     <use xlink:href="#DejaVuSans-20" x="195.654297"/>
     <use xlink:href="#DejaVuSans-43" x="227.441406"/>
     <use xlink:href="#DejaVuSans-6f" x="297.265625"/>
     <use xlink:href="#DejaVuSans-6e" x="358.447266"/>
     <use xlink:href="#DejaVuSans-74" x="421.826172"/>
     <use xlink:href="#DejaVuSans-61" x="461.035156"/>
     <use xlink:href="#DejaVuSans-69" x="522.314453"/>
     <use xlink:href="#DejaVuSans-6e" x="550.097656"/>
     <use xlink:href="#DejaVuSans-65" x="613.476562"/>
     <use xlink:href="#DejaVuSans-72" x="675"/>
     <use xlink:href="#DejaVuSans-20" x="716.113281"/>
     <use xlink:href="#DejaVuSans-31" x="747.900391"/>
    </g>
   </g>
  </g>
  <g id="axes_6">
   <g id="patch_24">
    <path d="M 57.6 307.584 
L 414.72 307.584 
L 414.72 261.702621 
L 57.6 261.702621 
z
" style="fill: #ffffff"/>
   </g>
   <g id="matplotlib.axis_11">
    <g id="xtick_33">
     <g id="line2d_95">
      <g>
       <use xlink:href="#m6deff01747" x="73.832727" y="307.584" style="stroke: #000000; stroke-width: 0.8"/>
      </g>
     </g>
     <g id="text_17">
      <!-- 0.0 -->
      <g transform="translate(65.881165 322.182437)scale(0.1 -0.1)">
       <use xlink:href="#DejaVuSans-30"/>
       <use xlink:href="#DejaVuSans-2e" x="63.623047"/>
       <use xlink:href="#DejaVuSans-30" x="95.410156"/>
      </g>
     </g>
    </g>
    <g id="xtick_34">
     <g id="line2d_96">
      <g>
       <use xlink:href="#m6deff01747" x="116.550431" y="307.584" style="stroke: #000000; stroke-width: 0.8"/>
      </g>
     </g>
     <g id="text_18">
      <!-- 2.5 -->
      <g transform="translate(108.598868 322.182437)scale(0.1 -0.1)">
       <defs>
        <path id="DejaVuSans-32" d="M 1228 531 
L 3431 531 
L 3431 0 
L 469 0 
L 469 531 
Q 828 903 1448 1529 
Q 2069 2156 2228 2338 
Q 2531 2678 2651 2914 
Q 2772 3150 2772 3378 
Q 2772 3750 2511 3984 
Q 2250 4219 1831 4219 
Q 1534 4219 1204 4116 
Q 875 4013 500 3803 
L 500 4441 
Q 881 4594 1212 4672 
Q 1544 4750 1819 4750 
Q 2544 4750 2975 4387 
Q 3406 4025 3406 3419 
Q 3406 3131 3298 2873 
Q 3191 2616 2906 2266 
Q 2828 2175 2409 1742 
Q 1991 1309 1228 531 
z
" transform="scale(0.015625)"/>
       </defs>
       <use xlink:href="#DejaVuSans-32"/>
       <use xlink:href="#DejaVuSans-2e" x="63.623047"/>
       <use xlink:href="#DejaVuSans-35" x="95.410156"/>
      </g>
     </g>
    </g>
    <g id="xtick_35">
     <g id="line2d_97">
      <g>
       <use xlink:href="#m6deff01747" x="159.268134" y="307.584" style="stroke: #000000; stroke-width: 0.8"/>
      </g>
     </g>
     <g id="text_19">
      <!-- 5.0 -->
      <g transform="translate(151.316571 322.182437)scale(0.1 -0.1)">
       <use xlink:href="#DejaVuSans-35"/>
       <use xlink:href="#DejaVuSans-2e" x="63.623047"/>
       <use xlink:href="#DejaVuSans-30" x="95.410156"/>
      </g>
     </g>
    </g>
    <g id="xtick_36">
     <g id="line2d_98">
      <g>
       <use xlink:href="#m6deff01747" x="201.985837" y="307.584" style="stroke: #000000; stroke-width: 0.8"/>
      </g>
     </g>
     <g id="text_20">
      <!-- 7.5 -->
      <g transform="translate(194.034275 322.182437)scale(0.1 -0.1)">
       <defs>
        <path id="DejaVuSans-37" d="M 525 4666 
L 3525 4666 
L 3525 4397 
L 1831 0 
L 1172 0 
L 2766 4134 
L 525 4134 
L 525 4666 
z
" transform="scale(0.015625)"/>
       </defs>
       <use xlink:href="#DejaVuSans-37"/>
       <use xlink:href="#DejaVuSans-2e" x="63.623047"/>
       <use xlink:href="#DejaVuSans-35" x="95.410156"/>
      </g>
     </g>
    </g>
    <g id="xtick_37">
     <g id="line2d_99">
      <g>
       <use xlink:href="#m6deff01747" x="244.703541" y="307.584" style="stroke: #000000; stroke-width: 0.8"/>
      </g>
     </g>
     <g id="text_21">
      <!-- 10.0 -->
      <g transform="translate(233.570728 322.182437)scale(0.1 -0.1)">
       <use xlink:href="#DejaVuSans-31"/>
       <use xlink:href="#DejaVuSans-30" x="63.623047"/>
       <use xlink:href="#DejaVuSans-2e" x="127.246094"/>
       <use xlink:href="#DejaVuSans-30" x="159.033203"/>
      </g>
     </g>
    </g>
    <g id="xtick_38">
     <g id="line2d_100">
      <g>
       <use xlink:href="#m6deff01747" x="287.421244" y="307.584" style="stroke: #000000; stroke-width: 0.8"/>
      </g>
     </g>
     <g id="text_22">
      <!-- 12.5 -->
      <g transform="translate(276.288432 322.182437)scale(0.1 -0.1)">
       <use xlink:href="#DejaVuSans-31"/>
       <use xlink:href="#DejaVuSans-32" x="63.623047"/>
       <use xlink:href="#DejaVuSans-2e" x="127.246094"/>
       <use xlink:href="#DejaVuSans-35" x="159.033203"/>
      </g>
     </g>
    </g>
    <g id="xtick_39">
     <g id="line2d_101">
      <g>
       <use xlink:href="#m6deff01747" x="330.138947" y="307.584" style="stroke: #000000; stroke-width: 0.8"/>
      </g>
     </g>
     <g id="text_23">
      <!-- 15.0 -->
      <g transform="translate(319.006135 322.182437)scale(0.1 -0.1)">
       <use xlink:href="#DejaVuSans-31"/>
       <use xlink:href="#DejaVuSans-35" x="63.623047"/>
       <use xlink:href="#DejaVuSans-2e" x="127.246094"/>
       <use xlink:href="#DejaVuSans-30" x="159.033203"/>
      </g>
     </g>
    </g>
    <g id="xtick_40">
     <g id="line2d_102">
      <g>
       <use xlink:href="#m6deff01747" x="372.856651" y="307.584" style="stroke: #000000; stroke-width: 0.8"/>
      </g>
     </g>
     <g id="text_24">
      <!-- 17.5 -->
      <g transform="translate(361.723838 322.182437)scale(0.1 -0.1)">
       <use xlink:href="#DejaVuSans-31"/>
       <use xlink:href="#DejaVuSans-37" x="63.623047"/>
       <use xlink:href="#DejaVuSans-2e" x="127.246094"/>
       <use xlink:href="#DejaVuSans-35" x="159.033203"/>
      </g>
     </g>
    </g>
    <g id="text_25">
     <!-- position z -->
     <g transform="translate(212.142031 335.860562)scale(0.1 -0.1)">
      <defs>
       <path id="DejaVuSans-70" d="M 1159 525 
L 1159 -1331 
L 581 -1331 
L 581 3500 
L 1159 3500 
L 1159 2969 
Q 1341 3281 1617 3432 
Q 1894 3584 2278 3584 
Q 2916 3584 3314 3078 
Q 3713 2572 3713 1747 
Q 3713 922 3314 415 
Q 2916 -91 2278 -91 
Q 1894 -91 1617 61 
Q 1341 213 1159 525 
z
M 3116 1747 
Q 3116 2381 2855 2742 
Q 2594 3103 2138 3103 
Q 1681 3103 1420 2742 
Q 1159 2381 1159 1747 
Q 1159 1113 1420 752 
Q 1681 391 2138 391 
Q 2594 391 2855 752 
Q 3116 1113 3116 1747 
z
" transform="scale(0.015625)"/>
      </defs>
      <use xlink:href="#DejaVuSans-70"/>
      <use xlink:href="#DejaVuSans-6f" x="63.476562"/>
      <use xlink:href="#DejaVuSans-73" x="124.658203"/>
      <use xlink:href="#DejaVuSans-69" x="176.757812"/>
      <use xlink:href="#DejaVuSans-74" x="204.541016"/>
      <use xlink:href="#DejaVuSans-69" x="243.75"/>
      <use xlink:href="#DejaVuSans-6f" x="271.533203"/>
      <use xlink:href="#DejaVuSans-6e" x="332.714844"/>
      <use xlink:href="#DejaVuSans-20" x="396.09375"/>
      <use xlink:href="#DejaVuSans-7a" x="427.880859"/>
     </g>
    </g>
   </g>
   <g id="matplotlib.axis_12">
    <g id="ytick_11">
     <g id="line2d_103">
      <g>
       <use xlink:href="#m895120be34" x="57.6" y="286.481843" style="stroke: #000000; stroke-width: 0.8"/>
      </g>
     </g>
     <g id="text_26">
      <!-- 0.04975 -->
      <g transform="translate(9.246875 290.281061)scale(0.1 -0.1)">
       <defs>
        <path id="DejaVuSans-34" d="M 2419 4116 
L 825 1625 
L 2419 1625 
L 2419 4116 
z
M 2253 4666 
L 3047 4666 
L 3047 1625 
L 3713 1625 
L 3713 1100 
L 3047 1100 
L 3047 0 
L 2419 0 
L 2419 1100 
L 313 1100 
L 313 1709 
L 2253 4666 
z
" transform="scale(0.015625)"/>
       </defs>
       <use xlink:href="#DejaVuSans-30"/>
       <use xlink:href="#DejaVuSans-2e" x="63.623047"/>
       <use xlink:href="#DejaVuSans-30" x="95.410156"/>
       <use xlink:href="#DejaVuSans-34" x="159.033203"/>
       <use xlink:href="#DejaVuSans-39" x="222.65625"/>
       <use xlink:href="#DejaVuSans-37" x="286.279297"/>
       <use xlink:href="#DejaVuSans-35" x="349.902344"/>
      </g>
     </g>
    </g>
    <g id="ytick_12">
     <g id="line2d_104">
      <g>
       <use xlink:href="#m895120be34" x="57.6" y="264.873945" style="stroke: #000000; stroke-width: 0.8"/>
      </g>
     </g>
     <g id="text_27">
      <!-- 0.05000 -->
      <g transform="translate(9.246875 268.673163)scale(0.1 -0.1)">
       <use xlink:href="#DejaVuSans-30"/>
       <use xlink:href="#DejaVuSans-2e" x="63.623047"/>
       <use xlink:href="#DejaVuSans-30" x="95.410156"/>
       <use xlink:href="#DejaVuSans-35" x="159.033203"/>
       <use xlink:href="#DejaVuSans-30" x="222.65625"/>
       <use xlink:href="#DejaVuSans-30" x="286.279297"/>
       <use xlink:href="#DejaVuSans-30" x="349.902344"/>
      </g>
     </g>
    </g>
   </g>
   <g id="line2d_105">
    <path d="M 73.832727 305.242137 
L 90.919809 305.250123 
L 108.00689 305.26464 
L 125.093971 305.283499 
L 142.181053 305.304572 
L 159.268134 305.326243 
L 176.355215 305.347465 
L 193.442297 305.36763 
L 210.529378 305.386422 
L 227.616459 305.403669 
L 244.703541 305.41931 
L 261.790622 305.433319 
L 278.877703 305.445681 
L 295.964785 305.456412 
L 313.051866 305.465521 
L 330.138947 305.473036 
L 347.226029 305.478987 
L 364.31311 305.483405 
L 381.400191 305.486329 
L 398.487273 305.487782 
" clip-path="url(#ped4e993333)" style="fill: none; stroke: #1f77b4; stroke-width: 1.5; stroke-linecap: square"/>
   </g>
   <g id="line2d_106">
    <path d="M 73.832727 265.520715 
L 90.919809 265.554088 
L 108.00689 265.751541 
L 125.093971 265.692235 
L 142.181053 265.393069 
L 159.268134 265.054539 
L 176.355215 264.792802 
L 193.442297 264.61787 
L 210.529378 264.498705 
L 227.616459 264.40478 
L 244.703541 264.316637 
L 261.790622 264.223544 
L 278.877703 264.119556 
L 295.964785 264.002319 
L 313.051866 263.878779 
L 330.138947 263.788138 
L 347.226029 263.853272 
L 364.31311 264.316288 
L 381.400191 265.348048 
L 398.487273 266.463124 
" clip-path="url(#ped4e993333)" style="fill: none; stroke: #ff7f0e; stroke-width: 1.5; stroke-linecap: square"/>
   </g>
   <g id="line2d_107">
    <path d="M 73.832727 264.873985 
L 90.919809 264.874012 
L 108.00689 264.874367 
L 125.093971 264.875425 
L 142.181053 264.876705 
L 159.268134 264.879481 
L 176.355215 264.888662 
L 193.442297 264.9074 
L 210.529378 264.930195 
L 227.616459 264.945735 
L 244.703541 264.949505 
L 261.790622 264.95423 
L 278.877703 264.987724 
L 295.964785 265.079009 
L 313.051866 265.242292 
L 330.138947 265.468419 
L 347.226029 265.727215 
L 364.31311 265.977745 
L 381.400191 266.180693 
L 398.487273 266.308296 
" clip-path="url(#ped4e993333)" style="fill: none; stroke: #2ca02c; stroke-width: 1.5; stroke-linecap: square"/>
   </g>
   <g id="line2d_108">
    <path d="M 73.832727 264.873945 
L 90.919809 264.873945 
L 108.00689 264.873945 
L 125.093971 264.873945 
L 142.181053 264.873945 
L 159.268134 264.873945 
L 176.355215 264.873945 
L 193.442297 264.873945 
L 210.529378 264.873945 
L 227.616459 264.873945 
L 244.703541 264.873945 
L 261.790622 264.873945 
L 278.877703 264.873945 
L 295.964785 264.873945 
L 313.051866 264.873944 
L 330.138947 264.873944 
L 347.226029 264.873944 
L 364.31311 264.873943 
L 381.400191 264.873943 
L 398.487273 264.873943 
" clip-path="url(#ped4e993333)" style="fill: none; stroke: #d62728; stroke-width: 1.5; stroke-linecap: square"/>
   </g>
   <g id="line2d_109">
    <path d="M 73.832727 264.881766 
L 90.919809 264.881765 
L 108.00689 264.881764 
L 125.093971 264.881763 
L 142.181053 264.881762 
L 159.268134 264.881762 
L 176.355215 264.881762 
L 193.442297 264.881761 
L 210.529378 264.881761 
L 227.616459 264.881761 
L 244.703541 264.881761 
L 261.790622 264.881761 
L 278.877703 264.881761 
L 295.964785 264.881762 
L 313.051866 264.881762 
L 330.138947 264.881763 
L 347.226029 264.881764 
L 364.31311 264.881765 
L 381.400191 264.881766 
L 398.487273 264.881765 
" clip-path="url(#ped4e993333)" style="fill: none; stroke: #9467bd; stroke-width: 1.5; stroke-linecap: square"/>
   </g>
   <g id="line2d_110">
    <path d="M 73.832727 265.270173 
L 90.919809 265.270173 
L 108.00689 265.270175 
L 125.093971 265.270179 
L 142.181053 265.270183 
L 159.268134 265.270187 
L 176.355215 265.270193 
L 193.442297 265.270199 
L 210.529378 265.270209 
L 227.616459 265.270218 
L 244.703541 265.270228 
L 261.790622 265.270238 
L 278.877703 265.270247 
L 295.964785 265.270262 
L 313.051866 265.270274 
L 330.138947 265.270287 
L 347.226029 265.270303 
L 364.31311 265.270318 
L 381.400191 265.270336 
L 398.487273 265.270366 
" clip-path="url(#ped4e993333)" style="fill: none; stroke: #8c564b; stroke-width: 1.5; stroke-linecap: square"/>
   </g>
   <g id="line2d_111">
    <path d="M 73.832727 265.383553 
L 90.919809 265.383553 
L 108.00689 265.383548 
L 125.093971 265.383542 
L 142.181053 265.383533 
L 159.268134 265.38352 
L 176.355215 265.383512 
L 193.442297 265.383496 
L 210.529378 265.383475 
L 227.616459 265.383459 
L 244.703541 265.383438 
L 261.790622 265.383419 
L 278.877703 265.383396 
L 295.964785 265.383373 
L 313.051866 265.38334 
L 330.138947 265.383307 
L 347.226029 265.383274 
L 364.31311 265.38324 
L 381.400191 265.383208 
L 398.487273 265.383179 
" clip-path="url(#ped4e993333)" style="fill: none; stroke: #e377c2; stroke-width: 1.5; stroke-linecap: square"/>
   </g>
   <g id="line2d_112">
    <path d="M 73.832727 265.387479 
L 90.919809 265.387477 
L 108.00689 265.387469 
L 125.093971 265.387463 
L 142.181053 265.387456 
L 159.268134 265.387444 
L 176.355215 265.387432 
L 193.442297 265.387414 
L 210.529378 265.387397 
L 227.616459 265.387377 
L 244.703541 265.387355 
L 261.790622 265.387331 
L 278.877703 265.387303 
L 295.964785 265.387273 
L 313.051866 265.387244 
L 330.138947 265.387212 
L 347.226029 265.38718 
L 364.31311 265.387148 
L 381.400191 265.387122 
L 398.487273 265.387111 
" clip-path="url(#ped4e993333)" style="fill: none; stroke: #7f7f7f; stroke-width: 1.5; stroke-linecap: square"/>
   </g>
   <g id="line2d_113">
    <path d="M 73.832727 270.256193 
L 90.919809 270.243071 
L 108.00689 270.230289 
L 125.093971 270.218256 
L 142.181053 270.206976 
L 159.268134 270.196427 
L 176.355215 270.18661 
L 193.442297 270.177515 
L 210.529378 270.169127 
L 227.616459 270.161445 
L 244.703541 270.154459 
L 261.790622 270.148167 
L 278.877703 270.142567 
L 295.964785 270.137657 
L 313.051866 270.133435 
L 330.138947 270.129895 
L 347.226029 270.127039 
L 364.31311 270.124859 
L 381.400191 270.123345 
L 398.487273 270.122516 
" clip-path="url(#ped4e993333)" style="fill: none; stroke: #bcbd22; stroke-width: 1.5; stroke-linecap: square"/>
   </g>
   <g id="line2d_114">
    <path d="M 73.832727 302.186158 
L 90.919809 302.194467 
L 108.00689 302.201674 
L 125.093971 302.207849 
L 142.181053 302.213401 
L 159.268134 302.218432 
L 176.355215 302.22299 
L 193.442297 302.227116 
L 210.529378 302.23082 
L 227.616459 302.234105 
L 244.703541 302.237003 
L 261.790622 302.239519 
L 278.877703 302.241621 
L 295.964785 302.243359 
L 313.051866 302.244759 
L 330.138947 302.245739 
L 347.226029 302.246454 
L 364.31311 302.246823 
L 381.400191 302.246926 
L 398.487273 302.246898 
" clip-path="url(#ped4e993333)" style="fill: none; stroke: #17becf; stroke-width: 1.5; stroke-linecap: square"/>
   </g>
   <g id="line2d_115">
    <path d="M 73.832727 305.185592 
L 90.919809 305.202082 
L 108.00689 305.226299 
L 125.093971 305.252262 
L 142.181053 305.277483 
L 159.268134 305.301205 
L 176.355215 305.323229 
L 193.442297 305.343581 
L 210.529378 305.362232 
L 227.616459 305.379216 
L 244.703541 305.394554 
L 261.790622 305.408249 
L 278.877703 305.420344 
L 295.964785 305.430814 
L 313.051866 305.43969 
L 330.138947 305.446964 
L 347.226029 305.452684 
L 364.31311 305.456869 
L 381.400191 305.459598 
L 398.487273 305.460921 
" clip-path="url(#ped4e993333)" style="fill: none; stroke: #1f77b4; stroke-width: 1.5; stroke-linecap: square"/>
   </g>
   <g id="line2d_116">
    <path d="M 73.832727 305.237469 
L 90.919809 305.248714 
L 108.00689 305.267684 
L 125.093971 305.290429 
L 142.181053 305.314147 
L 159.268134 305.337332 
L 176.355215 305.359291 
L 193.442297 305.379714 
L 210.529378 305.398517 
L 227.616459 305.415649 
L 244.703541 305.431151 
L 261.790622 305.444986 
L 278.877703 305.457183 
L 295.964785 305.467771 
L 313.051866 305.476741 
L 330.138947 305.484125 
L 347.226029 305.489943 
L 364.31311 305.494246 
L 381.400191 305.497061 
L 398.487273 305.498469 
" clip-path="url(#ped4e993333)" style="fill: none; stroke: #ff7f0e; stroke-width: 1.5; stroke-linecap: square"/>
   </g>
   <g id="line2d_117">
    <path d="M 73.832727 305.249609 
L 90.919809 305.258606 
L 108.00689 305.274488 
L 125.093971 305.294497 
L 142.181053 305.31629 
L 159.268134 305.338297 
L 176.355215 305.359599 
L 193.442297 305.37969 
L 210.529378 305.398337 
L 227.616459 305.415412 
L 244.703541 305.430886 
L 261.790622 305.444727 
L 278.877703 305.456942 
L 295.964785 305.467546 
L 313.051866 305.476546 
L 330.138947 305.483968 
L 347.226029 305.489835 
L 364.31311 305.494186 
L 381.400191 305.497054 
L 398.487273 305.498483 
" clip-path="url(#ped4e993333)" style="fill: none; stroke: #2ca02c; stroke-width: 1.5; stroke-linecap: square"/>
   </g>
   <g id="patch_25">
    <path d="M 57.6 307.584 
L 57.6 261.702621 
" style="fill: none; stroke: #000000; stroke-width: 0.8; stroke-linejoin: miter; stroke-linecap: square"/>
   </g>
   <g id="patch_26">
    <path d="M 414.72 307.584 
L 414.72 261.702621 
" style="fill: none; stroke: #000000; stroke-width: 0.8; stroke-linejoin: miter; stroke-linecap: square"/>
   </g>
   <g id="patch_27">
    <path d="M 57.6 307.584 
L 414.72 307.584 
" style="fill: none; stroke: #000000; stroke-width: 0.8; stroke-linejoin: miter; stroke-linecap: square"/>
   </g>
   <g id="patch_28">
    <path d="M 57.6 261.702621 
L 414.72 261.702621 
" style="fill: none; stroke: #000000; stroke-width: 0.8; stroke-linejoin: miter; stroke-linecap: square"/>
   </g>
   <g id="text_28">
    <!-- yC - Container 1 -->
    <g transform="translate(187.395938 258.702621)scale(0.12 -0.12)">
     <use xlink:href="#DejaVuSans-79"/>
     <use xlink:href="#DejaVuSans-43" x="59.179688"/>
     <use xlink:href="#DejaVuSans-20" x="129.003906"/>
     <use xlink:href="#DejaVuSans-2d" x="160.791016"/>
     <use xlink:href="#DejaVuSans-20" x="196.875"/>
     <use xlink:href="#DejaVuSans-43" x="228.662109"/>
     <use xlink:href="#DejaVuSans-6f" x="298.486328"/>
     <use xlink:href="#DejaVuSans-6e" x="359.667969"/>
     <use xlink:href="#DejaVuSans-74" x="423.046875"/>
     <use xlink:href="#DejaVuSans-61" x="462.255859"/>
     <use xlink:href="#DejaVuSans-69" x="523.535156"/>
     <use xlink:href="#DejaVuSans-6e" x="551.318359"/>
     <use xlink:href="#DejaVuSans-65" x="614.697266"/>
     <use xlink:href="#DejaVuSans-72" x="676.220703"/>
     <use xlink:href="#DejaVuSans-20" x="717.333984"/>
     <use xlink:href="#DejaVuSans-31" x="749.121094"/>
    </g>
   </g>
  </g>
  <g id="legend_1">
   <g id="patch_29">
    <path d="M 372.146875 269.707812 
L 457.8 269.707812 
Q 459.8 269.707812 459.8 267.707812 
L 459.8 77.892187 
Q 459.8 75.892187 457.8 75.892187 
L 372.146875 75.892187 
Q 370.146875 75.892187 370.146875 77.892187 
L 370.146875 267.707812 
Q 370.146875 269.707812 372.146875 269.707812 
z
" style="fill: #ffffff; opacity: 0.8; stroke: #cccccc; stroke-linejoin: miter"/>
   </g>
   <g id="line2d_118">
    <path d="M 374.146875 83.990625 
L 384.146875 83.990625 
L 394.146875 83.990625 
" style="fill: none; stroke: #1f77b4; stroke-width: 1.5; stroke-linecap: square"/>
   </g>
   <g id="text_29">
    <!-- t=0.0000 -->
    <g transform="translate(402.146875 87.490625)scale(0.1 -0.1)">
     <defs>
      <path id="DejaVuSans-3d" d="M 678 2906 
L 4684 2906 
L 4684 2381 
L 678 2381 
L 678 2906 
z
M 678 1631 
L 4684 1631 
L 4684 1100 
L 678 1100 
L 678 1631 
z
" transform="scale(0.015625)"/>
     </defs>
     <use xlink:href="#DejaVuSans-74"/>
     <use xlink:href="#DejaVuSans-3d" x="39.208984"/>
     <use xlink:href="#DejaVuSans-30" x="122.998047"/>
     <use xlink:href="#DejaVuSans-2e" x="186.621094"/>
     <use xlink:href="#DejaVuSans-30" x="218.408203"/>
     <use xlink:href="#DejaVuSans-30" x="282.03125"/>
     <use xlink:href="#DejaVuSans-30" x="345.654297"/>
     <use xlink:href="#DejaVuSans-30" x="409.277344"/>
    </g>
   </g>
   <g id="line2d_119">
    <path d="M 374.146875 98.66875 
L 384.146875 98.66875 
L 394.146875 98.66875 
" style="fill: none; stroke: #ff7f0e; stroke-width: 1.5; stroke-linecap: square"/>
   </g>
   <g id="text_30">
    <!-- t=8.0000 -->
    <g transform="translate(402.146875 102.16875)scale(0.1 -0.1)">
     <use xlink:href="#DejaVuSans-74"/>
     <use xlink:href="#DejaVuSans-3d" x="39.208984"/>
     <use xlink:href="#DejaVuSans-38" x="122.998047"/>
     <use xlink:href="#DejaVuSans-2e" x="186.621094"/>
     <use xlink:href="#DejaVuSans-30" x="218.408203"/>
     <use xlink:href="#DejaVuSans-30" x="282.03125"/>
     <use xlink:href="#DejaVuSans-30" x="345.654297"/>
     <use xlink:href="#DejaVuSans-30" x="409.277344"/>
    </g>
   </g>
   <g id="line2d_120">
    <path d="M 374.146875 113.346875 
L 384.146875 113.346875 
L 394.146875 113.346875 
" style="fill: none; stroke: #2ca02c; stroke-width: 1.5; stroke-linecap: square"/>
   </g>
   <g id="text_31">
    <!-- t=16.0000 -->
    <g transform="translate(402.146875 116.846875)scale(0.1 -0.1)">
     <defs>
      <path id="DejaVuSans-36" d="M 2113 2584 
Q 1688 2584 1439 2293 
Q 1191 2003 1191 1497 
Q 1191 994 1439 701 
Q 1688 409 2113 409 
Q 2538 409 2786 701 
Q 3034 994 3034 1497 
Q 3034 2003 2786 2293 
Q 2538 2584 2113 2584 
z
M 3366 4563 
L 3366 3988 
Q 3128 4100 2886 4159 
Q 2644 4219 2406 4219 
Q 1781 4219 1451 3797 
Q 1122 3375 1075 2522 
Q 1259 2794 1537 2939 
Q 1816 3084 2150 3084 
Q 2853 3084 3261 2657 
Q 3669 2231 3669 1497 
Q 3669 778 3244 343 
Q 2819 -91 2113 -91 
Q 1303 -91 875 529 
Q 447 1150 447 2328 
Q 447 3434 972 4092 
Q 1497 4750 2381 4750 
Q 2619 4750 2861 4703 
Q 3103 4656 3366 4563 
z
" transform="scale(0.015625)"/>
     </defs>
     <use xlink:href="#DejaVuSans-74"/>
     <use xlink:href="#DejaVuSans-3d" x="39.208984"/>
     <use xlink:href="#DejaVuSans-31" x="122.998047"/>
     <use xlink:href="#DejaVuSans-36" x="186.621094"/>
     <use xlink:href="#DejaVuSans-2e" x="250.244141"/>
     <use xlink:href="#DejaVuSans-30" x="282.03125"/>
     <use xlink:href="#DejaVuSans-30" x="345.654297"/>
     <use xlink:href="#DejaVuSans-30" x="409.277344"/>
     <use xlink:href="#DejaVuSans-30" x="472.900391"/>
    </g>
   </g>
   <g id="line2d_121">
    <path d="M 374.146875 128.025 
L 384.146875 128.025 
L 394.146875 128.025 
" style="fill: none; stroke: #d62728; stroke-width: 1.5; stroke-linecap: square"/>
   </g>
   <g id="text_32">
    <!-- t=24.0000 -->
    <g transform="translate(402.146875 131.525)scale(0.1 -0.1)">
     <use xlink:href="#DejaVuSans-74"/>
     <use xlink:href="#DejaVuSans-3d" x="39.208984"/>
     <use xlink:href="#DejaVuSans-32" x="122.998047"/>
     <use xlink:href="#DejaVuSans-34" x="186.621094"/>
     <use xlink:href="#DejaVuSans-2e" x="250.244141"/>
     <use xlink:href="#DejaVuSans-30" x="282.03125"/>
     <use xlink:href="#DejaVuSans-30" x="345.654297"/>
     <use xlink:href="#DejaVuSans-30" x="409.277344"/>
     <use xlink:href="#DejaVuSans-30" x="472.900391"/>
    </g>
   </g>
   <g id="line2d_122">
    <path d="M 374.146875 142.703125 
L 384.146875 142.703125 
L 394.146875 142.703125 
" style="fill: none; stroke: #9467bd; stroke-width: 1.5; stroke-linecap: square"/>
   </g>
   <g id="text_33">
    <!-- t=32.0000 -->
    <g transform="translate(402.146875 146.203125)scale(0.1 -0.1)">
     <defs>
      <path id="DejaVuSans-33" d="M 2597 2516 
Q 3050 2419 3304 2112 
Q 3559 1806 3559 1356 
Q 3559 666 3084 287 
Q 2609 -91 1734 -91 
Q 1441 -91 1130 -33 
Q 819 25 488 141 
L 488 750 
Q 750 597 1062 519 
Q 1375 441 1716 441 
Q 2309 441 2620 675 
Q 2931 909 2931 1356 
Q 2931 1769 2642 2001 
Q 2353 2234 1838 2234 
L 1294 2234 
L 1294 2753 
L 1863 2753 
Q 2328 2753 2575 2939 
Q 2822 3125 2822 3475 
Q 2822 3834 2567 4026 
Q 2313 4219 1838 4219 
Q 1578 4219 1281 4162 
Q 984 4106 628 3988 
L 628 4550 
Q 988 4650 1302 4700 
Q 1616 4750 1894 4750 
Q 2613 4750 3031 4423 
Q 3450 4097 3450 3541 
Q 3450 3153 3228 2886 
Q 3006 2619 2597 2516 
z
" transform="scale(0.015625)"/>
     </defs>
     <use xlink:href="#DejaVuSans-74"/>
     <use xlink:href="#DejaVuSans-3d" x="39.208984"/>
     <use xlink:href="#DejaVuSans-33" x="122.998047"/>
     <use xlink:href="#DejaVuSans-32" x="186.621094"/>
     <use xlink:href="#DejaVuSans-2e" x="250.244141"/>
     <use xlink:href="#DejaVuSans-30" x="282.03125"/>
     <use xlink:href="#DejaVuSans-30" x="345.654297"/>
     <use xlink:href="#DejaVuSans-30" x="409.277344"/>
     <use xlink:href="#DejaVuSans-30" x="472.900391"/>
    </g>
   </g>
   <g id="line2d_123">
    <path d="M 374.146875 157.38125 
L 384.146875 157.38125 
L 394.146875 157.38125 
" style="fill: none; stroke: #8c564b; stroke-width: 1.5; stroke-linecap: square"/>
   </g>
   <g id="text_34">
    <!-- t=40.0000 -->
    <g transform="translate(402.146875 160.88125)scale(0.1 -0.1)">
     <use xlink:href="#DejaVuSans-74"/>
     <use xlink:href="#DejaVuSans-3d" x="39.208984"/>
     <use xlink:href="#DejaVuSans-34" x="122.998047"/>
     <use xlink:href="#DejaVuSans-30" x="186.621094"/>
     <use xlink:href="#DejaVuSans-2e" x="250.244141"/>
     <use xlink:href="#DejaVuSans-30" x="282.03125"/>
     <use xlink:href="#DejaVuSans-30" x="345.654297"/>
     <use xlink:href="#DejaVuSans-30" x="409.277344"/>
     <use xlink:href="#DejaVuSans-30" x="472.900391"/>
    </g>
   </g>
   <g id="line2d_124">
    <path d="M 374.146875 172.059375 
L 384.146875 172.059375 
L 394.146875 172.059375 
" style="fill: none; stroke: #e377c2; stroke-width: 1.5; stroke-linecap: square"/>
   </g>
   <g id="text_35">
    <!-- t=48.0000 -->
    <g transform="translate(402.146875 175.559375)scale(0.1 -0.1)">
     <use xlink:href="#DejaVuSans-74"/>
     <use xlink:href="#DejaVuSans-3d" x="39.208984"/>
     <use xlink:href="#DejaVuSans-34" x="122.998047"/>
     <use xlink:href="#DejaVuSans-38" x="186.621094"/>
     <use xlink:href="#DejaVuSans-2e" x="250.244141"/>
     <use xlink:href="#DejaVuSans-30" x="282.03125"/>
     <use xlink:href="#DejaVuSans-30" x="345.654297"/>
     <use xlink:href="#DejaVuSans-30" x="409.277344"/>
     <use xlink:href="#DejaVuSans-30" x="472.900391"/>
    </g>
   </g>
   <g id="line2d_125">
    <path d="M 374.146875 186.7375 
L 384.146875 186.7375 
L 394.146875 186.7375 
" style="fill: none; stroke: #7f7f7f; stroke-width: 1.5; stroke-linecap: square"/>
   </g>
   <g id="text_36">
    <!-- t=56.0000 -->
    <g transform="translate(402.146875 190.2375)scale(0.1 -0.1)">
     <use xlink:href="#DejaVuSans-74"/>
     <use xlink:href="#DejaVuSans-3d" x="39.208984"/>
     <use xlink:href="#DejaVuSans-35" x="122.998047"/>
     <use xlink:href="#DejaVuSans-36" x="186.621094"/>
     <use xlink:href="#DejaVuSans-2e" x="250.244141"/>
     <use xlink:href="#DejaVuSans-30" x="282.03125"/>
     <use xlink:href="#DejaVuSans-30" x="345.654297"/>
     <use xlink:href="#DejaVuSans-30" x="409.277344"/>
     <use xlink:href="#DejaVuSans-30" x="472.900391"/>
    </g>
   </g>
   <g id="line2d_126">
    <path d="M 374.146875 201.415625 
L 384.146875 201.415625 
L 394.146875 201.415625 
" style="fill: none; stroke: #bcbd22; stroke-width: 1.5; stroke-linecap: square"/>
   </g>
   <g id="text_37">
    <!-- t=64.0000 -->
    <g transform="translate(402.146875 204.915625)scale(0.1 -0.1)">
     <use xlink:href="#DejaVuSans-74"/>
     <use xlink:href="#DejaVuSans-3d" x="39.208984"/>
     <use xlink:href="#DejaVuSans-36" x="122.998047"/>
     <use xlink:href="#DejaVuSans-34" x="186.621094"/>
     <use xlink:href="#DejaVuSans-2e" x="250.244141"/>
     <use xlink:href="#DejaVuSans-30" x="282.03125"/>
     <use xlink:href="#DejaVuSans-30" x="345.654297"/>
     <use xlink:href="#DejaVuSans-30" x="409.277344"/>
     <use xlink:href="#DejaVuSans-30" x="472.900391"/>
    </g>
   </g>
   <g id="line2d_127">
    <path d="M 374.146875 216.09375 
L 384.146875 216.09375 
L 394.146875 216.09375 
" style="fill: none; stroke: #17becf; stroke-width: 1.5; stroke-linecap: square"/>
   </g>
   <g id="text_38">
    <!-- t=72.0000 -->
    <g transform="translate(402.146875 219.59375)scale(0.1 -0.1)">
     <use xlink:href="#DejaVuSans-74"/>
     <use xlink:href="#DejaVuSans-3d" x="39.208984"/>
     <use xlink:href="#DejaVuSans-37" x="122.998047"/>
     <use xlink:href="#DejaVuSans-32" x="186.621094"/>
     <use xlink:href="#DejaVuSans-2e" x="250.244141"/>
     <use xlink:href="#DejaVuSans-30" x="282.03125"/>
     <use xlink:href="#DejaVuSans-30" x="345.654297"/>
     <use xlink:href="#DejaVuSans-30" x="409.277344"/>
     <use xlink:href="#DejaVuSans-30" x="472.900391"/>
    </g>
   </g>
   <g id="line2d_128">
    <path d="M 374.146875 230.771875 
L 384.146875 230.771875 
L 394.146875 230.771875 
" style="fill: none; stroke: #1f77b4; stroke-width: 1.5; stroke-linecap: square"/>
   </g>
   <g id="text_39">
    <!-- t=80.0000 -->
    <g transform="translate(402.146875 234.271875)scale(0.1 -0.1)">
     <use xlink:href="#DejaVuSans-74"/>
     <use xlink:href="#DejaVuSans-3d" x="39.208984"/>
     <use xlink:href="#DejaVuSans-38" x="122.998047"/>
     <use xlink:href="#DejaVuSans-30" x="186.621094"/>
     <use xlink:href="#DejaVuSans-2e" x="250.244141"/>
     <use xlink:href="#DejaVuSans-30" x="282.03125"/>
     <use xlink:href="#DejaVuSans-30" x="345.654297"/>
     <use xlink:href="#DejaVuSans-30" x="409.277344"/>
     <use xlink:href="#DejaVuSans-30" x="472.900391"/>
    </g>
   </g>
   <g id="line2d_129">
    <path d="M 374.146875 245.45 
L 384.146875 245.45 
L 394.146875 245.45 
" style="fill: none; stroke: #ff7f0e; stroke-width: 1.5; stroke-linecap: square"/>
   </g>
   <g id="text_40">
    <!-- t=88.0000 -->
    <g transform="translate(402.146875 248.95)scale(0.1 -0.1)">
     <use xlink:href="#DejaVuSans-74"/>
     <use xlink:href="#DejaVuSans-3d" x="39.208984"/>
     <use xlink:href="#DejaVuSans-38" x="122.998047"/>
     <use xlink:href="#DejaVuSans-38" x="186.621094"/>
     <use xlink:href="#DejaVuSans-2e" x="250.244141"/>
     <use xlink:href="#DejaVuSans-30" x="282.03125"/>
     <use xlink:href="#DejaVuSans-30" x="345.654297"/>
     <use xlink:href="#DejaVuSans-30" x="409.277344"/>
     <use xlink:href="#DejaVuSans-30" x="472.900391"/>
    </g>
   </g>
   <g id="line2d_130">
    <path d="M 374.146875 260.128125 
L 384.146875 260.128125 
L 394.146875 260.128125 
" style="fill: none; stroke: #2ca02c; stroke-width: 1.5; stroke-linecap: square"/>
   </g>
   <g id="text_41">
    <!-- t=96.0000 -->
    <g transform="translate(402.146875 263.628125)scale(0.1 -0.1)">
     <use xlink:href="#DejaVuSans-74"/>
     <use xlink:href="#DejaVuSans-3d" x="39.208984"/>
     <use xlink:href="#DejaVuSans-39" x="122.998047"/>
     <use xlink:href="#DejaVuSans-36" x="186.621094"/>
     <use xlink:href="#DejaVuSans-2e" x="250.244141"/>
     <use xlink:href="#DejaVuSans-30" x="282.03125"/>
     <use xlink:href="#DejaVuSans-30" x="345.654297"/>
     <use xlink:href="#DejaVuSans-30" x="409.277344"/>
     <use xlink:href="#DejaVuSans-30" x="472.900391"/>
    </g>
   </g>
  </g>
 </g>
 <defs>
  <clipPath id="p18e2a008f0">
   <rect x="57.6" y="41.472" width="357.12" height="45.881379"/>
  </clipPath>
  <clipPath id="p56c4a17e5f">
   <rect x="57.6" y="96.529655" width="357.12" height="45.881379"/>
  </clipPath>
  <clipPath id="pdec6d6c0ec">
   <rect x="57.6" y="151.58731" width="357.12" height="45.881379"/>
  </clipPath>
  <clipPath id="p52f1957ed0">
   <rect x="57.6" y="206.644966" width="357.12" height="45.881379"/>
  </clipPath>
  <clipPath id="ped4e993333">
   <rect x="57.6" y="261.702621" width="357.12" height="45.881379"/>
  </clipPath>
 </defs>
</svg>
