<?xml version="1.0" encoding="utf-8" standalone="no"?>
<!DOCTYPE svg PUBLIC "-//W3C//DTD SVG 1.1//EN"
  "http://www.w3.org/Graphics/SVG/1.1/DTD/svg11.dtd">
<svg xmlns:xlink="http://www.w3.org/1999/xlink" width="460.8pt" height="345.6pt" viewBox="0 0 460.8 345.6" xmlns="http://www.w3.org/2000/svg" version="1.1">
 <metadata>
  <rdf:RDF xmlns:dc="http://purl.org/dc/elements/1.1/" xmlns:cc="http://creativecommons.org/ns#" xmlns:rdf="http://www.w3.org/1999/02/22-rdf-syntax-ns#">
   <cc:Work>
    <dc:type rdf:resource="http://purl.org/dc/dcmitype/StillImage"/>
    <dc:date>2022-07-10T00:04:39.633362</dc:date>
    <dc:format>image/svg+xml</dc:format>
    <dc:creator>
     <cc:Agent>
      <dc:title>Matplotlib v3.5.2, https://matplotlib.org/</dc:title>
     </cc:Agent>
    </dc:creator>
   </cc:Work>
  </rdf:RDF>
 </metadata>
 <defs>
  <style type="text/css">*{stroke-linejoin: round; stroke-linecap: butt}</style>
 </defs>
 <g id="figure_1">
  <g id="patch_1">
   <path d="M 0 345.6 
L 460.8 345.6 
L 460.8 0 
L 0 0 
z
" style="fill: #ffffff"/>
  </g>
  <g id="axes_1">
   <g id="patch_2">
    <path d="M 57.6 87.353379 
L 414.72 87.353379 
L 414.72 41.472 
L 57.6 41.472 
z
" style="fill: #ffffff"/>
   </g>
   <g id="matplotlib.axis_1">
    <g id="xtick_1">
     <g id="line2d_1">
      <defs>
       <path id="m78f9efa891" d="M 0 0 
L 0 3.5 
" style="stroke: #000000; stroke-width: 0.8"/>
      </defs>
      <g>
       <use xlink:href="#m78f9efa891" x="73.832727" y="87.353379" style="stroke: #000000; stroke-width: 0.8"/>
      </g>
     </g>
    </g>
    <g id="xtick_2">
     <g id="line2d_2">
      <g>
       <use xlink:href="#m78f9efa891" x="138.763636" y="87.353379" style="stroke: #000000; stroke-width: 0.8"/>
      </g>
     </g>
    </g>
    <g id="xtick_3">
     <g id="line2d_3">
      <g>
       <use xlink:href="#m78f9efa891" x="203.694545" y="87.353379" style="stroke: #000000; stroke-width: 0.8"/>
      </g>
     </g>
    </g>
    <g id="xtick_4">
     <g id="line2d_4">
      <g>
       <use xlink:href="#m78f9efa891" x="268.625455" y="87.353379" style="stroke: #000000; stroke-width: 0.8"/>
      </g>
     </g>
    </g>
    <g id="xtick_5">
     <g id="line2d_5">
      <g>
       <use xlink:href="#m78f9efa891" x="333.556364" y="87.353379" style="stroke: #000000; stroke-width: 0.8"/>
      </g>
     </g>
    </g>
    <g id="xtick_6">
     <g id="line2d_6">
      <g>
       <use xlink:href="#m78f9efa891" x="398.487273" y="87.353379" style="stroke: #000000; stroke-width: 0.8"/>
      </g>
     </g>
    </g>
   </g>
   <g id="matplotlib.axis_2">
    <g id="ytick_1">
     <g id="line2d_7">
      <defs>
       <path id="m13f5e2542a" d="M 0 0 
L -3.5 0 
" style="stroke: #000000; stroke-width: 0.8"/>
      </defs>
      <g>
       <use xlink:href="#m13f5e2542a" x="57.6" y="73.865469" style="stroke: #000000; stroke-width: 0.8"/>
      </g>
     </g>
     <g id="text_1">
      <!-- 0 -->
      <g transform="translate(44.2375 77.664688)scale(0.1 -0.1)">
       <defs>
        <path id="DejaVuSans-30" d="M 2034 4250 
Q 1547 4250 1301 3770 
Q 1056 3291 1056 2328 
Q 1056 1369 1301 889 
Q 1547 409 2034 409 
Q 2525 409 2770 889 
Q 3016 1369 3016 2328 
Q 3016 3291 2770 3770 
Q 2525 4250 2034 4250 
z
M 2034 4750 
Q 2819 4750 3233 4129 
Q 3647 3509 3647 2328 
Q 3647 1150 3233 529 
Q 2819 -91 2034 -91 
Q 1250 -91 836 529 
Q 422 1150 422 2328 
Q 422 3509 836 4129 
Q 1250 4750 2034 4750 
z
" transform="scale(0.015625)"/>
       </defs>
       <use xlink:href="#DejaVuSans-30"/>
      </g>
     </g>
    </g>
    <g id="ytick_2">
     <g id="line2d_8">
      <g>
       <use xlink:href="#m13f5e2542a" x="57.6" y="43.664277" style="stroke: #000000; stroke-width: 0.8"/>
      </g>
     </g>
     <g id="text_2">
      <!-- 1 -->
      <g transform="translate(44.2375 47.463496)scale(0.1 -0.1)">
       <defs>
        <path id="DejaVuSans-31" d="M 794 531 
L 1825 531 
L 1825 4091 
L 703 3866 
L 703 4441 
L 1819 4666 
L 2450 4666 
L 2450 531 
L 3481 531 
L 3481 0 
L 794 0 
L 794 531 
z
" transform="scale(0.015625)"/>
       </defs>
       <use xlink:href="#DejaVuSans-31"/>
      </g>
     </g>
    </g>
    <g id="text_3">
     <!-- flow rate (normalized) -->
     <g transform="translate(38.157812 119.729877)rotate(-90)scale(0.1 -0.1)">
      <defs>
       <path id="DejaVuSans-66" d="M 2375 4863 
L 2375 4384 
L 1825 4384 
Q 1516 4384 1395 4259 
Q 1275 4134 1275 3809 
L 1275 3500 
L 2222 3500 
L 2222 3053 
L 1275 3053 
L 1275 0 
L 697 0 
L 697 3053 
L 147 3053 
L 147 3500 
L 697 3500 
L 697 3744 
Q 697 4328 969 4595 
Q 1241 4863 1831 4863 
L 2375 4863 
z
" transform="scale(0.015625)"/>
       <path id="DejaVuSans-6c" d="M 603 4863 
L 1178 4863 
L 1178 0 
L 603 0 
L 603 4863 
z
" transform="scale(0.015625)"/>
       <path id="DejaVuSans-6f" d="M 1959 3097 
Q 1497 3097 1228 2736 
Q 959 2375 959 1747 
Q 959 1119 1226 758 
Q 1494 397 1959 397 
Q 2419 397 2687 759 
Q 2956 1122 2956 1747 
Q 2956 2369 2687 2733 
Q 2419 3097 1959 3097 
z
M 1959 3584 
Q 2709 3584 3137 3096 
Q 3566 2609 3566 1747 
Q 3566 888 3137 398 
Q 2709 -91 1959 -91 
Q 1206 -91 779 398 
Q 353 888 353 1747 
Q 353 2609 779 3096 
Q 1206 3584 1959 3584 
z
" transform="scale(0.015625)"/>
       <path id="DejaVuSans-77" d="M 269 3500 
L 844 3500 
L 1563 769 
L 2278 3500 
L 2956 3500 
L 3675 769 
L 4391 3500 
L 4966 3500 
L 4050 0 
L 3372 0 
L 2619 2869 
L 1863 0 
L 1184 0 
L 269 3500 
z
" transform="scale(0.015625)"/>
       <path id="DejaVuSans-20" transform="scale(0.015625)"/>
       <path id="DejaVuSans-72" d="M 2631 2963 
Q 2534 3019 2420 3045 
Q 2306 3072 2169 3072 
Q 1681 3072 1420 2755 
Q 1159 2438 1159 1844 
L 1159 0 
L 581 0 
L 581 3500 
L 1159 3500 
L 1159 2956 
Q 1341 3275 1631 3429 
Q 1922 3584 2338 3584 
Q 2397 3584 2469 3576 
Q 2541 3569 2628 3553 
L 2631 2963 
z
" transform="scale(0.015625)"/>
       <path id="DejaVuSans-61" d="M 2194 1759 
Q 1497 1759 1228 1600 
Q 959 1441 959 1056 
Q 959 750 1161 570 
Q 1363 391 1709 391 
Q 2188 391 2477 730 
Q 2766 1069 2766 1631 
L 2766 1759 
L 2194 1759 
z
M 3341 1997 
L 3341 0 
L 2766 0 
L 2766 531 
Q 2569 213 2275 61 
Q 1981 -91 1556 -91 
Q 1019 -91 701 211 
Q 384 513 384 1019 
Q 384 1609 779 1909 
Q 1175 2209 1959 2209 
L 2766 2209 
L 2766 2266 
Q 2766 2663 2505 2880 
Q 2244 3097 1772 3097 
Q 1472 3097 1187 3025 
Q 903 2953 641 2809 
L 641 3341 
Q 956 3463 1253 3523 
Q 1550 3584 1831 3584 
Q 2591 3584 2966 3190 
Q 3341 2797 3341 1997 
z
" transform="scale(0.015625)"/>
       <path id="DejaVuSans-74" d="M 1172 4494 
L 1172 3500 
L 2356 3500 
L 2356 3053 
L 1172 3053 
L 1172 1153 
Q 1172 725 1289 603 
Q 1406 481 1766 481 
L 2356 481 
L 2356 0 
L 1766 0 
Q 1100 0 847 248 
Q 594 497 594 1153 
L 594 3053 
L 172 3053 
L 172 3500 
L 594 3500 
L 594 4494 
L 1172 4494 
z
" transform="scale(0.015625)"/>
       <path id="DejaVuSans-65" d="M 3597 1894 
L 3597 1613 
L 953 1613 
Q 991 1019 1311 708 
Q 1631 397 2203 397 
Q 2534 397 2845 478 
Q 3156 559 3463 722 
L 3463 178 
Q 3153 47 2828 -22 
Q 2503 -91 2169 -91 
Q 1331 -91 842 396 
Q 353 884 353 1716 
Q 353 2575 817 3079 
Q 1281 3584 2069 3584 
Q 2775 3584 3186 3129 
Q 3597 2675 3597 1894 
z
M 3022 2063 
Q 3016 2534 2758 2815 
Q 2500 3097 2075 3097 
Q 1594 3097 1305 2825 
Q 1016 2553 972 2059 
L 3022 2063 
z
" transform="scale(0.015625)"/>
       <path id="DejaVuSans-28" d="M 1984 4856 
Q 1566 4138 1362 3434 
Q 1159 2731 1159 2009 
Q 1159 1288 1364 580 
Q 1569 -128 1984 -844 
L 1484 -844 
Q 1016 -109 783 600 
Q 550 1309 550 2009 
Q 550 2706 781 3412 
Q 1013 4119 1484 4856 
L 1984 4856 
z
" transform="scale(0.015625)"/>
       <path id="DejaVuSans-6e" d="M 3513 2113 
L 3513 0 
L 2938 0 
L 2938 2094 
Q 2938 2591 2744 2837 
Q 2550 3084 2163 3084 
Q 1697 3084 1428 2787 
Q 1159 2491 1159 1978 
L 1159 0 
L 581 0 
L 581 3500 
L 1159 3500 
L 1159 2956 
Q 1366 3272 1645 3428 
Q 1925 3584 2291 3584 
Q 2894 3584 3203 3211 
Q 3513 2838 3513 2113 
z
" transform="scale(0.015625)"/>
       <path id="DejaVuSans-6d" d="M 3328 2828 
Q 3544 3216 3844 3400 
Q 4144 3584 4550 3584 
Q 5097 3584 5394 3201 
Q 5691 2819 5691 2113 
L 5691 0 
L 5113 0 
L 5113 2094 
Q 5113 2597 4934 2840 
Q 4756 3084 4391 3084 
Q 3944 3084 3684 2787 
Q 3425 2491 3425 1978 
L 3425 0 
L 2847 0 
L 2847 2094 
Q 2847 2600 2669 2842 
Q 2491 3084 2119 3084 
Q 1678 3084 1418 2786 
Q 1159 2488 1159 1978 
L 1159 0 
L 581 0 
L 581 3500 
L 1159 3500 
L 1159 2956 
Q 1356 3278 1631 3431 
Q 1906 3584 2284 3584 
Q 2666 3584 2933 3390 
Q 3200 3197 3328 2828 
z
" transform="scale(0.015625)"/>
       <path id="DejaVuSans-69" d="M 603 3500 
L 1178 3500 
L 1178 0 
L 603 0 
L 603 3500 
z
M 603 4863 
L 1178 4863 
L 1178 4134 
L 603 4134 
L 603 4863 
z
" transform="scale(0.015625)"/>
       <path id="DejaVuSans-7a" d="M 353 3500 
L 3084 3500 
L 3084 2975 
L 922 459 
L 3084 459 
L 3084 0 
L 275 0 
L 275 525 
L 2438 3041 
L 353 3041 
L 353 3500 
z
" transform="scale(0.015625)"/>
       <path id="DejaVuSans-64" d="M 2906 2969 
L 2906 4863 
L 3481 4863 
L 3481 0 
L 2906 0 
L 2906 525 
Q 2725 213 2448 61 
Q 2172 -91 1784 -91 
Q 1150 -91 751 415 
Q 353 922 353 1747 
Q 353 2572 751 3078 
Q 1150 3584 1784 3584 
Q 2172 3584 2448 3432 
Q 2725 3281 2906 2969 
z
M 947 1747 
Q 947 1113 1208 752 
Q 1469 391 1925 391 
Q 2381 391 2643 752 
Q 2906 1113 2906 1747 
Q 2906 2381 2643 2742 
Q 2381 3103 1925 3103 
Q 1469 3103 1208 2742 
Q 947 2381 947 1747 
z
" transform="scale(0.015625)"/>
       <path id="DejaVuSans-29" d="M 513 4856 
L 1013 4856 
Q 1481 4119 1714 3412 
Q 1947 2706 1947 2009 
Q 1947 1309 1714 600 
Q 1481 -109 1013 -844 
L 513 -844 
Q 928 -128 1133 580 
Q 1338 1288 1338 2009 
Q 1338 2731 1133 3434 
Q 928 4138 513 4856 
z
" transform="scale(0.015625)"/>
      </defs>
      <use xlink:href="#DejaVuSans-66"/>
      <use xlink:href="#DejaVuSans-6c" x="35.205078"/>
      <use xlink:href="#DejaVuSans-6f" x="62.988281"/>
      <use xlink:href="#DejaVuSans-77" x="124.169922"/>
      <use xlink:href="#DejaVuSans-20" x="205.957031"/>
      <use xlink:href="#DejaVuSans-72" x="237.744141"/>
      <use xlink:href="#DejaVuSans-61" x="278.857422"/>
      <use xlink:href="#DejaVuSans-74" x="340.136719"/>
      <use xlink:href="#DejaVuSans-65" x="379.345703"/>
      <use xlink:href="#DejaVuSans-20" x="440.869141"/>
      <use xlink:href="#DejaVuSans-28" x="472.65625"/>
      <use xlink:href="#DejaVuSans-6e" x="511.669922"/>
      <use xlink:href="#DejaVuSans-6f" x="575.048828"/>
      <use xlink:href="#DejaVuSans-72" x="636.230469"/>
      <use xlink:href="#DejaVuSans-6d" x="675.59375"/>
      <use xlink:href="#DejaVuSans-61" x="773.005859"/>
      <use xlink:href="#DejaVuSans-6c" x="834.285156"/>
      <use xlink:href="#DejaVuSans-69" x="862.068359"/>
      <use xlink:href="#DejaVuSans-7a" x="889.851562"/>
      <use xlink:href="#DejaVuSans-65" x="942.341797"/>
      <use xlink:href="#DejaVuSans-64" x="1003.865234"/>
      <use xlink:href="#DejaVuSans-29" x="1067.341797"/>
     </g>
    </g>
   </g>
   <g id="line2d_9">
    <path d="M 73.832727 73.865463 
L 77.079273 63.642843 
L 80.325818 69.987407 
L 83.572364 71.944291 
L 86.818909 72.782403 
L 90.065455 72.951592 
L 93.312 73.576697 
L 96.558545 73.632341 
L 99.805091 73.734549 
L 103.051636 73.778295 
L 106.298182 73.816101 
L 109.544727 73.829971 
L 112.791273 73.842971 
L 116.037818 73.85185 
L 119.284364 73.85719 
L 122.530909 73.420972 
L 125.777455 43.603822 
L 129.024 43.603822 
L 132.270545 43.603822 
L 135.517091 43.603823 
L 138.763636 43.603823 
L 142.010182 43.603823 
L 145.256727 43.603823 
L 148.503273 43.603823 
L 151.749818 43.603823 
L 154.996364 43.603823 
L 158.242909 43.603823 
L 161.489455 43.603823 
L 164.736 43.603823 
L 167.982545 43.603823 
L 171.229091 47.441657 
L 174.475636 66.909324 
L 177.722182 67.650434 
L 180.968727 68.226758 
L 184.215273 69.466048 
L 187.461818 70.309879 
L 190.708364 71.269685 
L 193.954909 72.058461 
L 197.201455 72.673197 
L 200.448 73.086187 
L 203.694545 73.410344 
L 206.941091 73.549897 
L 210.187636 73.617688 
L 213.434182 73.792297 
L 216.680727 73.862584 
L 219.927273 73.758478 
L 223.173818 73.810954 
L 226.420364 73.924991 
L 229.666909 73.838266 
L 232.913455 73.821581 
L 236.16 73.88191 
L 239.406545 73.862149 
L 242.653091 73.857513 
L 245.899636 73.867917 
L 249.146182 73.865631 
L 252.392727 73.888895 
L 255.639273 73.887583 
L 258.885818 73.867316 
L 262.132364 73.868221 
L 265.378909 73.865778 
L 268.625455 73.977384 
L 271.872 79.549534 
L 275.118545 78.944261 
L 278.365091 78.342138 
L 281.611636 77.620941 
L 284.858182 76.828777 
L 288.104727 76.042668 
L 291.351273 75.330997 
L 294.597818 74.880826 
L 297.844364 74.527551 
L 301.090909 74.284269 
L 304.337455 74.113829 
L 307.584 74.028435 
L 310.830545 73.965553 
L 314.077091 73.928116 
L 317.323636 73.9052 
L 320.570182 73.89016 
L 323.816727 73.880281 
L 327.063273 73.874363 
L 330.309818 73.871405 
L 333.556364 73.870113 
L 336.802909 73.868781 
L 340.049455 73.867338 
L 343.296 73.866518 
L 346.542545 73.866022 
L 349.789091 73.865789 
L 353.035636 73.86549 
L 356.282182 73.86534 
L 359.528727 73.865339 
L 362.775273 73.865486 
L 366.021818 73.865485 
L 369.268364 73.865454 
L 372.514909 73.865437 
L 375.761455 73.865432 
L 379.008 73.865388 
L 382.254545 73.865407 
L 385.501091 73.865427 
L 388.747636 73.865446 
L 391.994182 73.865463 
L 395.240727 73.86547 
L 398.487273 73.865476 
" clip-path="url(#p083ab583e9)" style="fill: none; stroke: #1f77b4; stroke-width: 1.5; stroke-linecap: square"/>
   </g>
   <g id="line2d_10">
    <path d="M 73.832727 73.865448 
L 77.079273 53.471187 
L 80.325818 66.115089 
L 83.572364 70.021316 
L 86.818909 71.70456 
L 90.065455 72.107025 
L 93.312 73.278181 
L 96.558545 73.402489 
L 99.805091 73.604303 
L 103.051636 73.691134 
L 106.298182 73.766754 
L 109.544727 73.794482 
L 112.791273 73.820484 
L 116.037818 73.838239 
L 119.284364 73.848915 
L 122.530909 65.94426 
L 125.777455 43.655663 
L 129.024 43.655663 
L 132.270545 43.655663 
L 135.517091 43.655663 
L 138.763636 43.655663 
L 142.010182 43.655663 
L 145.256727 43.655663 
L 148.503273 43.655663 
L 151.749818 43.655663 
L 154.996364 43.655663 
L 158.242909 43.655663 
L 161.489455 43.655663 
L 164.736 43.655663 
L 167.982545 43.655663 
L 171.229091 53.00135 
L 174.475636 72.601089 
L 177.722182 72.735752 
L 180.968727 72.840699 
L 184.215273 73.066248 
L 187.461818 73.217976 
L 190.708364 73.39685 
L 193.954909 73.535649 
L 197.201455 73.649642 
L 200.448 73.721761 
L 203.694545 73.785549 
L 206.941091 73.808234 
L 210.187636 73.816253 
L 213.434182 73.853663 
L 216.680727 73.868371 
L 219.927273 73.843654 
L 223.173818 73.8542 
L 226.420364 73.878562 
L 229.666909 73.860257 
L 232.913455 73.856373 
L 236.16 73.868839 
L 239.406545 73.865022 
L 242.653091 73.863925 
L 245.899636 73.865909 
L 249.146182 73.865514 
L 252.392727 73.870032 
L 255.639273 73.869779 
L 258.885818 73.86584 
L 262.132364 73.866016 
L 265.378909 73.865528 
L 268.625455 74.163968 
L 271.872 85.267862 
L 275.118545 84.06973 
L 278.365091 82.811511 
L 281.611636 81.414696 
L 284.858182 79.878741 
L 288.104727 78.393596 
L 291.351273 76.758711 
L 294.597818 75.871791 
L 297.844364 75.11315 
L 301.090909 74.780949 
L 304.337455 74.435896 
L 307.584 74.191125 
L 310.830545 74.059029 
L 314.077091 73.984341 
L 317.323636 73.94358 
L 320.570182 73.913886 
L 323.816727 73.894334 
L 327.063273 73.882872 
L 330.309818 73.877154 
L 333.556364 73.874705 
L 336.802909 73.871983 
L 340.049455 73.869001 
L 343.296 73.867485 
L 346.542545 73.866575 
L 349.789091 73.866124 
L 353.035636 73.865618 
L 356.282182 73.865351 
L 359.528727 73.865325 
L 362.775273 73.865539 
L 366.021818 73.86552 
L 369.268364 73.865456 
L 372.514909 73.865416 
L 375.761455 73.8654 
L 379.008 73.865299 
L 382.254545 73.86534 
L 385.501091 73.865382 
L 388.747636 73.865423 
L 391.994182 73.865459 
L 395.240727 73.865472 
L 398.487273 73.865485 
" clip-path="url(#p083ab583e9)" style="fill: none; stroke: #ff7f0e; stroke-width: 1.5; stroke-linecap: square"/>
   </g>
   <g id="line2d_11">
    <path d="M 73.832727 73.865469 
L 77.079273 72.728954 
L 80.325818 73.434502 
L 83.572364 73.652124 
L 86.818909 73.744933 
L 90.065455 73.761154 
L 93.312 73.833819 
L 96.558545 73.839425 
L 99.805091 73.850895 
L 103.051636 73.855783 
L 106.298182 73.859983 
L 109.544727 73.861525 
L 112.791273 73.862969 
L 116.037818 73.863955 
L 119.284364 73.864548 
L 122.530909 78.349336 
L 125.777455 43.557517 
L 129.024 43.557517 
L 132.270545 43.557517 
L 135.517091 43.557517 
L 138.763636 43.557518 
L 142.010182 43.557518 
L 145.256727 43.557518 
L 148.503273 43.557518 
L 151.749818 43.557518 
L 154.996364 43.557518 
L 158.242909 43.557518 
L 161.489455 43.557518 
L 164.736 43.557518 
L 167.982545 43.557518 
L 171.229091 45.28255 
L 174.475636 61.842586 
L 177.722182 63.124317 
L 180.968727 64.116641 
L 184.215273 66.252363 
L 187.461818 67.744666 
L 190.708364 69.313306 
L 193.954909 70.770172 
L 197.201455 71.786406 
L 200.448 72.561527 
L 203.694545 73.019534 
L 206.941091 73.317798 
L 210.187636 73.525433 
L 213.434182 73.706583 
L 216.680727 73.788376 
L 219.927273 73.731825 
L 223.173818 73.79946 
L 226.420364 73.919628 
L 229.666909 73.825345 
L 232.913455 73.814141 
L 236.16 73.885788 
L 239.406545 73.857615 
L 242.653091 73.85373 
L 245.899636 73.869733 
L 249.146182 73.865434 
L 252.392727 73.899913 
L 255.639273 73.897975 
L 258.885818 73.868022 
L 262.132364 73.869365 
L 265.378909 73.865943 
L 268.625455 73.876695 
L 271.872 74.496467 
L 275.118545 74.429078 
L 278.365091 74.362994 
L 281.611636 74.282052 
L 284.858182 74.193126 
L 288.104727 74.104874 
L 291.351273 74.029552 
L 294.597818 73.979086 
L 297.844364 73.940275 
L 301.090909 73.910639 
L 304.337455 73.893514 
L 307.584 73.883843 
L 310.830545 73.876597 
L 314.077091 73.872506 
L 317.323636 73.869911 
L 320.570182 73.86823 
L 323.816727 73.867127 
L 327.063273 73.866464 
L 330.309818 73.866132 
L 333.556364 73.865986 
L 336.802909 73.865839 
L 340.049455 73.865681 
L 343.296 73.865587 
L 346.542545 73.865531 
L 349.789091 73.865505 
L 353.035636 73.86547 
L 356.282182 73.865452 
L 359.528727 73.865453 
L 362.775273 73.865471 
L 366.021818 73.865471 
L 369.268364 73.865467 
L 372.514909 73.865465 
L 375.761455 73.865465 
L 379.008 73.86546 
L 382.254545 73.865463 
L 385.501091 73.865465 
L 388.747636 73.865467 
L 391.994182 73.865469 
L 395.240727 73.865469 
L 398.487273 73.86547 
" clip-path="url(#p083ab583e9)" style="fill: none; stroke: #2ca02c; stroke-width: 1.5; stroke-linecap: square"/>
   </g>
   <g id="patch_3">
    <path d="M 57.6 87.353379 
L 57.6 41.472 
" style="fill: none; stroke: #000000; stroke-width: 0.8; stroke-linejoin: miter; stroke-linecap: square"/>
   </g>
   <g id="patch_4">
    <path d="M 414.72 87.353379 
L 414.72 41.472 
" style="fill: none; stroke: #000000; stroke-width: 0.8; stroke-linejoin: miter; stroke-linecap: square"/>
   </g>
   <g id="patch_5">
    <path d="M 57.6 87.353379 
L 414.72 87.353379 
" style="fill: none; stroke: #000000; stroke-width: 0.8; stroke-linejoin: miter; stroke-linecap: square"/>
   </g>
   <g id="patch_6">
    <path d="M 57.6 41.472 
L 414.72 41.472 
" style="fill: none; stroke: #000000; stroke-width: 0.8; stroke-linejoin: miter; stroke-linecap: square"/>
   </g>
   <g id="text_4">
    <!-- velocity vs time (container 1)   -->
    <g transform="translate(144.106875 35.472)scale(0.12 -0.12)">
     <defs>
      <path id="DejaVuSans-76" d="M 191 3500 
L 800 3500 
L 1894 563 
L 2988 3500 
L 3597 3500 
L 2284 0 
L 1503 0 
L 191 3500 
z
" transform="scale(0.015625)"/>
      <path id="DejaVuSans-63" d="M 3122 3366 
L 3122 2828 
Q 2878 2963 2633 3030 
Q 2388 3097 2138 3097 
Q 1578 3097 1268 2742 
Q 959 2388 959 1747 
Q 959 1106 1268 751 
Q 1578 397 2138 397 
Q 2388 397 2633 464 
Q 2878 531 3122 666 
L 3122 134 
Q 2881 22 2623 -34 
Q 2366 -91 2075 -91 
Q 1284 -91 818 406 
Q 353 903 353 1747 
Q 353 2603 823 3093 
Q 1294 3584 2113 3584 
Q 2378 3584 2631 3529 
Q 2884 3475 3122 3366 
z
" transform="scale(0.015625)"/>
      <path id="DejaVuSans-79" d="M 2059 -325 
Q 1816 -950 1584 -1140 
Q 1353 -1331 966 -1331 
L 506 -1331 
L 506 -850 
L 844 -850 
Q 1081 -850 1212 -737 
Q 1344 -625 1503 -206 
L 1606 56 
L 191 3500 
L 800 3500 
L 1894 763 
L 2988 3500 
L 3597 3500 
L 2059 -325 
z
" transform="scale(0.015625)"/>
      <path id="DejaVuSans-73" d="M 2834 3397 
L 2834 2853 
Q 2591 2978 2328 3040 
Q 2066 3103 1784 3103 
Q 1356 3103 1142 2972 
Q 928 2841 928 2578 
Q 928 2378 1081 2264 
Q 1234 2150 1697 2047 
L 1894 2003 
Q 2506 1872 2764 1633 
Q 3022 1394 3022 966 
Q 3022 478 2636 193 
Q 2250 -91 1575 -91 
Q 1294 -91 989 -36 
Q 684 19 347 128 
L 347 722 
Q 666 556 975 473 
Q 1284 391 1588 391 
Q 1994 391 2212 530 
Q 2431 669 2431 922 
Q 2431 1156 2273 1281 
Q 2116 1406 1581 1522 
L 1381 1569 
Q 847 1681 609 1914 
Q 372 2147 372 2553 
Q 372 3047 722 3315 
Q 1072 3584 1716 3584 
Q 2034 3584 2315 3537 
Q 2597 3491 2834 3397 
z
" transform="scale(0.015625)"/>
     </defs>
     <use xlink:href="#DejaVuSans-76"/>
     <use xlink:href="#DejaVuSans-65" x="59.179688"/>
     <use xlink:href="#DejaVuSans-6c" x="120.703125"/>
     <use xlink:href="#DejaVuSans-6f" x="148.486328"/>
     <use xlink:href="#DejaVuSans-63" x="209.667969"/>
     <use xlink:href="#DejaVuSans-69" x="264.648438"/>
     <use xlink:href="#DejaVuSans-74" x="292.431641"/>
     <use xlink:href="#DejaVuSans-79" x="331.640625"/>
     <use xlink:href="#DejaVuSans-20" x="390.820312"/>
     <use xlink:href="#DejaVuSans-76" x="422.607422"/>
     <use xlink:href="#DejaVuSans-73" x="481.787109"/>
     <use xlink:href="#DejaVuSans-20" x="533.886719"/>
     <use xlink:href="#DejaVuSans-74" x="565.673828"/>
     <use xlink:href="#DejaVuSans-69" x="604.882812"/>
     <use xlink:href="#DejaVuSans-6d" x="632.666016"/>
     <use xlink:href="#DejaVuSans-65" x="730.078125"/>
     <use xlink:href="#DejaVuSans-20" x="791.601562"/>
     <use xlink:href="#DejaVuSans-28" x="823.388672"/>
     <use xlink:href="#DejaVuSans-63" x="862.402344"/>
     <use xlink:href="#DejaVuSans-6f" x="917.382812"/>
     <use xlink:href="#DejaVuSans-6e" x="978.564453"/>
     <use xlink:href="#DejaVuSans-74" x="1041.943359"/>
     <use xlink:href="#DejaVuSans-61" x="1081.152344"/>
     <use xlink:href="#DejaVuSans-69" x="1142.431641"/>
     <use xlink:href="#DejaVuSans-6e" x="1170.214844"/>
     <use xlink:href="#DejaVuSans-65" x="1233.59375"/>
     <use xlink:href="#DejaVuSans-72" x="1295.117188"/>
     <use xlink:href="#DejaVuSans-20" x="1336.230469"/>
     <use xlink:href="#DejaVuSans-31" x="1368.017578"/>
     <use xlink:href="#DejaVuSans-29" x="1431.640625"/>
     <use xlink:href="#DejaVuSans-20" x="1470.654297"/>
     <use xlink:href="#DejaVuSans-20" x="1502.441406"/>
    </g>
   </g>
   <g id="legend_1">
    <g id="patch_7">
     <path d="M 64.6 93.506375 
L 139.240625 93.506375 
Q 141.240625 93.506375 141.240625 91.506375 
L 141.240625 48.472 
Q 141.240625 46.472 139.240625 46.472 
L 64.6 46.472 
Q 62.6 46.472 62.6 48.472 
L 62.6 91.506375 
Q 62.6 93.506375 64.6 93.506375 
z
" style="fill: #ffffff; opacity: 0.8; stroke: #cccccc; stroke-linejoin: miter"/>
    </g>
    <g id="line2d_12">
     <path d="M 66.6 54.570437 
L 76.6 54.570437 
L 86.6 54.570437 
" style="fill: none; stroke: #1f77b4; stroke-width: 1.5; stroke-linecap: square"/>
    </g>
    <g id="text_5">
     <!-- mid flow -->
     <g transform="translate(94.6 58.070437)scale(0.1 -0.1)">
      <use xlink:href="#DejaVuSans-6d"/>
      <use xlink:href="#DejaVuSans-69" x="97.412109"/>
      <use xlink:href="#DejaVuSans-64" x="125.195312"/>
      <use xlink:href="#DejaVuSans-20" x="188.671875"/>
      <use xlink:href="#DejaVuSans-66" x="220.458984"/>
      <use xlink:href="#DejaVuSans-6c" x="255.664062"/>
      <use xlink:href="#DejaVuSans-6f" x="283.447266"/>
      <use xlink:href="#DejaVuSans-77" x="344.628906"/>
     </g>
    </g>
    <g id="line2d_13">
     <path d="M 66.6 69.248562 
L 76.6 69.248562 
L 86.6 69.248562 
" style="fill: none; stroke: #ff7f0e; stroke-width: 1.5; stroke-linecap: square"/>
    </g>
    <g id="text_6">
     <!-- v0 flow -->
     <g transform="translate(94.6 72.748562)scale(0.1 -0.1)">
      <use xlink:href="#DejaVuSans-76"/>
      <use xlink:href="#DejaVuSans-30" x="59.179688"/>
      <use xlink:href="#DejaVuSans-20" x="122.802734"/>
      <use xlink:href="#DejaVuSans-66" x="154.589844"/>
      <use xlink:href="#DejaVuSans-6c" x="189.794922"/>
      <use xlink:href="#DejaVuSans-6f" x="217.578125"/>
      <use xlink:href="#DejaVuSans-77" x="278.759766"/>
     </g>
    </g>
    <g id="line2d_14">
     <path d="M 66.6 83.926687 
L 76.6 83.926687 
L 86.6 83.926687 
" style="fill: none; stroke: #2ca02c; stroke-width: 1.5; stroke-linecap: square"/>
    </g>
    <g id="text_7">
     <!-- vN flow -->
     <g transform="translate(94.6 87.426687)scale(0.1 -0.1)">
      <defs>
       <path id="DejaVuSans-4e" d="M 628 4666 
L 1478 4666 
L 3547 763 
L 3547 4666 
L 4159 4666 
L 4159 0 
L 3309 0 
L 1241 3903 
L 1241 0 
L 628 0 
L 628 4666 
z
" transform="scale(0.015625)"/>
      </defs>
      <use xlink:href="#DejaVuSans-76"/>
      <use xlink:href="#DejaVuSans-4e" x="59.179688"/>
      <use xlink:href="#DejaVuSans-20" x="133.984375"/>
      <use xlink:href="#DejaVuSans-66" x="165.771484"/>
      <use xlink:href="#DejaVuSans-6c" x="200.976562"/>
      <use xlink:href="#DejaVuSans-6f" x="228.759766"/>
      <use xlink:href="#DejaVuSans-77" x="289.941406"/>
     </g>
    </g>
   </g>
  </g>
  <g id="axes_2">
   <g id="patch_8">
    <path d="M 57.6 142.411034 
L 414.72 142.411034 
L 414.72 96.529655 
L 57.6 96.529655 
z
" style="fill: #ffffff"/>
   </g>
   <g id="matplotlib.axis_3">
    <g id="xtick_7">
     <g id="line2d_15">
      <g>
       <use xlink:href="#m78f9efa891" x="73.832727" y="142.411034" style="stroke: #000000; stroke-width: 0.8"/>
      </g>
     </g>
    </g>
    <g id="xtick_8">
     <g id="line2d_16">
      <g>
       <use xlink:href="#m78f9efa891" x="138.763636" y="142.411034" style="stroke: #000000; stroke-width: 0.8"/>
      </g>
     </g>
    </g>
    <g id="xtick_9">
     <g id="line2d_17">
      <g>
       <use xlink:href="#m78f9efa891" x="203.694545" y="142.411034" style="stroke: #000000; stroke-width: 0.8"/>
      </g>
     </g>
    </g>
    <g id="xtick_10">
     <g id="line2d_18">
      <g>
       <use xlink:href="#m78f9efa891" x="268.625455" y="142.411034" style="stroke: #000000; stroke-width: 0.8"/>
      </g>
     </g>
    </g>
    <g id="xtick_11">
     <g id="line2d_19">
      <g>
       <use xlink:href="#m78f9efa891" x="333.556364" y="142.411034" style="stroke: #000000; stroke-width: 0.8"/>
      </g>
     </g>
    </g>
    <g id="xtick_12">
     <g id="line2d_20">
      <g>
       <use xlink:href="#m78f9efa891" x="398.487273" y="142.411034" style="stroke: #000000; stroke-width: 0.8"/>
      </g>
     </g>
    </g>
   </g>
   <g id="matplotlib.axis_4">
    <g id="ytick_3">
     <g id="line2d_21">
      <g>
       <use xlink:href="#m13f5e2542a" x="57.6" y="140.745252" style="stroke: #000000; stroke-width: 0.8"/>
      </g>
     </g>
     <g id="text_8">
      <!-- 0 -->
      <g transform="translate(44.2375 144.544471)scale(0.1 -0.1)">
       <use xlink:href="#DejaVuSans-30"/>
      </g>
     </g>
    </g>
    <g id="ytick_4">
     <g id="line2d_22">
      <g>
       <use xlink:href="#m13f5e2542a" x="57.6" y="98.771642" style="stroke: #000000; stroke-width: 0.8"/>
      </g>
     </g>
     <g id="text_9">
      <!-- 1 -->
      <g transform="translate(44.2375 102.570861)scale(0.1 -0.1)">
       <use xlink:href="#DejaVuSans-31"/>
      </g>
     </g>
    </g>
   </g>
   <g id="line2d_23">
    <path d="M 73.832727 140.325515 
L 77.079273 123.977625 
L 80.325818 114.057167 
L 83.572364 108.046122 
L 86.818909 104.396628 
L 90.065455 102.172528 
L 93.312 100.842867 
L 96.558545 100.026531 
L 99.805091 99.531196 
L 103.051636 99.233684 
L 106.298182 99.053673 
L 109.544727 98.945801 
L 112.791273 98.877346 
L 116.037818 98.835893 
L 119.284364 98.810683 
L 122.530909 98.778987 
L 125.777455 98.615172 
L 129.024 98.615172 
L 132.270545 98.615172 
L 135.517091 98.615172 
L 138.763636 98.615172 
L 142.010182 98.615172 
L 145.256727 98.615172 
L 148.503273 98.615172 
L 151.749818 98.615172 
L 154.996364 98.615172 
L 158.242909 98.615172 
L 161.489455 98.615172 
L 164.736 98.615172 
L 167.982545 98.615172 
L 171.229091 98.644313 
L 174.475636 113.594424 
L 177.722182 122.624113 
L 180.968727 128.093993 
L 184.215273 131.414639 
L 187.461818 133.433436 
L 190.708364 134.656189 
L 193.954909 135.398899 
L 197.201455 135.85118 
L 200.448 136.126053 
L 203.694545 136.291543 
L 206.941091 136.391925 
L 210.187636 136.456443 
L 213.434182 136.492633 
L 216.680727 136.511452 
L 219.927273 136.526702 
L 223.173818 136.536898 
L 226.420364 136.539712 
L 229.666909 136.542343 
L 232.913455 136.544904 
L 236.16 136.546324 
L 239.406545 136.546619 
L 242.653091 136.547263 
L 245.899636 136.547535 
L 249.146182 136.547657 
L 252.392727 136.547868 
L 255.639273 136.547916 
L 258.885818 136.547846 
L 262.132364 136.547866 
L 265.378909 136.547873 
L 268.625455 136.54898 
L 271.872 138.032794 
L 275.118545 138.933894 
L 278.365091 139.481278 
L 281.611636 139.813225 
L 284.858182 140.014862 
L 288.104727 140.137141 
L 291.351273 140.21076 
L 294.597818 140.256006 
L 297.844364 140.283292 
L 301.090909 140.300048 
L 304.337455 140.310025 
L 307.584 140.316109 
L 310.830545 140.319806 
L 314.077091 140.322041 
L 317.323636 140.323409 
L 320.570182 140.32424 
L 323.816727 140.324743 
L 327.063273 140.325047 
L 330.309818 140.325217 
L 333.556364 140.325341 
L 336.802909 140.325406 
L 340.049455 140.325451 
L 343.296 140.325477 
L 346.542545 140.325493 
L 349.789091 140.325502 
L 353.035636 140.325505 
L 356.282182 140.325508 
L 359.528727 140.325511 
L 362.775273 140.325514 
L 366.021818 140.325516 
L 369.268364 140.325517 
L 372.514909 140.325517 
L 375.761455 140.325517 
L 379.008 140.325517 
L 382.254545 140.325517 
L 385.501091 140.325517 
L 388.747636 140.325516 
L 391.994182 140.325516 
L 395.240727 140.325516 
L 398.487273 140.325516 
" clip-path="url(#p5c925235f5)" style="fill: none; stroke: #1f77b4; stroke-width: 1.5; stroke-linecap: square"/>
   </g>
   <g id="line2d_24">
    <path d="M 73.832727 140.325515 
L 77.079273 124.021234 
L 80.325818 114.073728 
L 83.572364 108.054333 
L 86.818909 104.401248 
L 90.065455 102.176333 
L 93.312 100.844115 
L 96.558545 100.027522 
L 99.805091 99.531754 
L 103.051636 99.234056 
L 106.298182 99.053884 
L 109.544727 98.945953 
L 112.791273 98.877442 
L 116.037818 98.835951 
L 119.284364 98.810718 
L 122.530909 98.790741 
L 125.777455 98.69534 
L 129.024 98.69534 
L 132.270545 98.69534 
L 135.517091 98.69534 
L 138.763636 98.69534 
L 142.010182 98.69534 
L 145.256727 98.69534 
L 148.503273 98.69534 
L 151.749818 98.69534 
L 154.996364 98.69534 
L 158.242909 98.69534 
L 161.489455 98.69534 
L 164.736 98.69534 
L 167.982545 98.69534 
L 171.229091 98.706228 
L 174.475636 113.603646 
L 177.722182 122.632353 
L 180.968727 128.101468 
L 184.215273 131.42047 
L 187.461818 133.438155 
L 190.708364 134.659617 
L 193.954909 135.4013 
L 197.201455 135.852757 
L 200.448 136.127095 
L 203.694545 136.292134 
L 206.941091 136.392342 
L 210.187636 136.456789 
L 213.434182 136.492724 
L 216.680727 136.511441 
L 219.927273 136.526854 
L 223.173818 136.536976 
L 226.420364 136.539624 
L 229.666909 136.54238 
L 232.913455 136.544967 
L 236.16 136.5463 
L 239.406545 136.546622 
L 242.653091 136.547274 
L 245.899636 136.547532 
L 249.146182 136.547657 
L 252.392727 136.547835 
L 255.639273 136.547886 
L 258.885818 136.547843 
L 262.132364 136.547862 
L 265.378909 136.547872 
L 268.625455 136.548402 
L 271.872 138.008462 
L 275.118545 138.912132 
L 278.365091 139.46216 
L 281.611636 139.797127 
L 284.858182 140.002083 
L 288.104727 140.12761 
L 291.351273 140.204556 
L 294.597818 140.251705 
L 297.844364 140.280565 
L 301.090909 140.298154 
L 304.337455 140.308885 
L 307.584 140.315417 
L 310.830545 140.319386 
L 314.077091 140.321783 
L 317.323636 140.323241 
L 320.570182 140.324136 
L 323.816727 140.324681 
L 327.063273 140.32501 
L 330.309818 140.325192 
L 333.556364 140.325321 
L 336.802909 140.325392 
L 340.049455 140.325443 
L 343.296 140.325473 
L 346.542545 140.32549 
L 349.789091 140.3255 
L 353.035636 140.325505 
L 356.282182 140.325509 
L 359.528727 140.325512 
L 362.775273 140.325514 
L 366.021818 140.325516 
L 369.268364 140.325517 
L 372.514909 140.325517 
L 375.761455 140.325517 
L 379.008 140.325517 
L 382.254545 140.325517 
L 385.501091 140.325517 
L 388.747636 140.325517 
L 391.994182 140.325516 
L 395.240727 140.325516 
L 398.487273 140.325516 
" clip-path="url(#p5c925235f5)" style="fill: none; stroke: #ff7f0e; stroke-width: 1.5; stroke-linecap: square"/>
   </g>
   <g id="line2d_25">
    <path d="M 73.832727 140.325515 
L 77.079273 124.034792 
L 80.325818 114.078871 
L 83.572364 108.05688 
L 86.818909 104.402685 
L 90.065455 102.177559 
L 93.312 100.844496 
L 96.558545 100.027832 
L 99.805091 99.531928 
L 103.051636 99.234172 
L 106.298182 99.053949 
L 109.544727 98.946 
L 112.791273 98.877472 
L 116.037818 98.835969 
L 119.284364 98.810729 
L 122.530909 98.786548 
L 125.777455 98.767622 
L 129.024 98.767622 
L 132.270545 98.767622 
L 135.517091 98.767622 
L 138.763636 98.767622 
L 142.010182 98.767622 
L 145.256727 98.767622 
L 148.503273 98.767622 
L 151.749818 98.767622 
L 154.996364 98.767622 
L 158.242909 98.767622 
L 161.489455 98.767622 
L 164.736 98.767622 
L 167.982545 98.767622 
L 171.229091 98.772155 
L 174.475636 113.626293 
L 177.722182 122.652586 
L 180.968727 128.119829 
L 184.215273 131.434802 
L 187.461818 133.449707 
L 190.708364 134.668132 
L 193.954909 135.407156 
L 197.201455 135.856656 
L 200.448 136.12959 
L 203.694545 136.293673 
L 206.941091 136.393372 
L 210.187636 136.457511 
L 213.434182 136.492993 
L 216.680727 136.51152 
L 219.927273 136.527153 
L 223.173818 136.537126 
L 226.420364 136.539477 
L 229.666909 136.542462 
L 232.913455 136.545087 
L 236.16 136.546254 
L 239.406545 136.546636 
L 242.653091 136.547298 
L 245.899636 136.547524 
L 249.146182 136.547657 
L 252.392727 136.547765 
L 255.639273 136.547819 
L 258.885818 136.547838 
L 262.132364 136.547854 
L 265.378909 136.547871 
L 268.625455 136.548261 
L 271.872 138.000929 
L 275.118545 138.905402 
L 278.365091 139.456224 
L 281.611636 139.792152 
L 284.858182 139.998163 
L 288.104727 140.124737 
L 291.351273 140.202606 
L 294.597818 140.250355 
L 297.844364 140.27968 
L 301.090909 140.297606 
L 304.337455 140.308554 
L 307.584 140.315199 
L 310.830545 140.319253 
L 314.077091 140.321699 
L 317.323636 140.323188 
L 320.570182 140.324103 
L 323.816727 140.324661 
L 327.063273 140.324998 
L 330.309818 140.325184 
L 333.556364 140.325315 
L 336.802909 140.325388 
L 340.049455 140.325441 
L 343.296 140.325471 
L 346.542545 140.32549 
L 349.789091 140.3255 
L 353.035636 140.325505 
L 356.282182 140.325509 
L 359.528727 140.325512 
L 362.775273 140.325514 
L 366.021818 140.325516 
L 369.268364 140.325517 
L 372.514909 140.325517 
L 375.761455 140.325517 
L 379.008 140.325517 
L 382.254545 140.325517 
L 385.501091 140.325517 
L 388.747636 140.325517 
L 391.994182 140.325516 
L 395.240727 140.325516 
L 398.487273 140.325516 
" clip-path="url(#p5c925235f5)" style="fill: none; stroke: #2ca02c; stroke-width: 1.5; stroke-linecap: square"/>
   </g>
   <g id="patch_9">
    <path d="M 57.6 142.411034 
L 57.6 96.529655 
" style="fill: none; stroke: #000000; stroke-width: 0.8; stroke-linejoin: miter; stroke-linecap: square"/>
   </g>
   <g id="patch_10">
    <path d="M 414.72 142.411034 
L 414.72 96.529655 
" style="fill: none; stroke: #000000; stroke-width: 0.8; stroke-linejoin: miter; stroke-linecap: square"/>
   </g>
   <g id="patch_11">
    <path d="M 57.6 142.411034 
L 414.72 142.411034 
" style="fill: none; stroke: #000000; stroke-width: 0.8; stroke-linejoin: miter; stroke-linecap: square"/>
   </g>
   <g id="patch_12">
    <path d="M 57.6 96.529655 
L 414.72 96.529655 
" style="fill: none; stroke: #000000; stroke-width: 0.8; stroke-linejoin: miter; stroke-linecap: square"/>
   </g>
   <g id="text_10">
    <!-- Pressure -->
    <g transform="translate(210.546562 90.529655)scale(0.12 -0.12)">
     <defs>
      <path id="DejaVuSans-50" d="M 1259 4147 
L 1259 2394 
L 2053 2394 
Q 2494 2394 2734 2622 
Q 2975 2850 2975 3272 
Q 2975 3691 2734 3919 
Q 2494 4147 2053 4147 
L 1259 4147 
z
M 628 4666 
L 2053 4666 
Q 2838 4666 3239 4311 
Q 3641 3956 3641 3272 
Q 3641 2581 3239 2228 
Q 2838 1875 2053 1875 
L 1259 1875 
L 1259 0 
L 628 0 
L 628 4666 
z
" transform="scale(0.015625)"/>
      <path id="DejaVuSans-75" d="M 544 1381 
L 544 3500 
L 1119 3500 
L 1119 1403 
Q 1119 906 1312 657 
Q 1506 409 1894 409 
Q 2359 409 2629 706 
Q 2900 1003 2900 1516 
L 2900 3500 
L 3475 3500 
L 3475 0 
L 2900 0 
L 2900 538 
Q 2691 219 2414 64 
Q 2138 -91 1772 -91 
Q 1169 -91 856 284 
Q 544 659 544 1381 
z
M 1991 3584 
L 1991 3584 
z
" transform="scale(0.015625)"/>
     </defs>
     <use xlink:href="#DejaVuSans-50"/>
     <use xlink:href="#DejaVuSans-72" x="58.552734"/>
     <use xlink:href="#DejaVuSans-65" x="97.416016"/>
     <use xlink:href="#DejaVuSans-73" x="158.939453"/>
     <use xlink:href="#DejaVuSans-73" x="211.039062"/>
     <use xlink:href="#DejaVuSans-75" x="263.138672"/>
     <use xlink:href="#DejaVuSans-72" x="326.517578"/>
     <use xlink:href="#DejaVuSans-65" x="365.380859"/>
    </g>
   </g>
   <g id="legend_2">
    <g id="patch_13">
     <path d="M 350.823125 137.411034 
L 407.72 137.411034 
Q 409.72 137.411034 409.72 135.411034 
L 409.72 92.376659 
Q 409.72 90.376659 407.72 90.376659 
L 350.823125 90.376659 
Q 348.823125 90.376659 348.823125 92.376659 
L 348.823125 135.411034 
Q 348.823125 137.411034 350.823125 137.411034 
z
" style="fill: #ffffff; opacity: 0.8; stroke: #cccccc; stroke-linejoin: miter"/>
    </g>
    <g id="line2d_26">
     <path d="M 352.823125 98.475097 
L 362.823125 98.475097 
L 372.823125 98.475097 
" style="fill: none; stroke: #1f77b4; stroke-width: 1.5; stroke-linecap: square"/>
    </g>
    <g id="text_11">
     <!-- P1 -->
     <g transform="translate(380.823125 101.975097)scale(0.1 -0.1)">
      <use xlink:href="#DejaVuSans-50"/>
      <use xlink:href="#DejaVuSans-31" x="60.302734"/>
     </g>
    </g>
    <g id="line2d_27">
     <path d="M 352.823125 113.153222 
L 362.823125 113.153222 
L 372.823125 113.153222 
" style="fill: none; stroke: #ff7f0e; stroke-width: 1.5; stroke-linecap: square"/>
    </g>
    <g id="text_12">
     <!-- Pmid -->
     <g transform="translate(380.823125 116.653222)scale(0.1 -0.1)">
      <use xlink:href="#DejaVuSans-50"/>
      <use xlink:href="#DejaVuSans-6d" x="60.302734"/>
      <use xlink:href="#DejaVuSans-69" x="157.714844"/>
      <use xlink:href="#DejaVuSans-64" x="185.498047"/>
     </g>
    </g>
    <g id="line2d_28">
     <path d="M 352.823125 127.831347 
L 362.823125 127.831347 
L 372.823125 127.831347 
" style="fill: none; stroke: #2ca02c; stroke-width: 1.5; stroke-linecap: square"/>
    </g>
    <g id="text_13">
     <!-- PN -->
     <g transform="translate(380.823125 131.331347)scale(0.1 -0.1)">
      <use xlink:href="#DejaVuSans-50"/>
      <use xlink:href="#DejaVuSans-4e" x="60.302734"/>
     </g>
    </g>
   </g>
  </g>
  <g id="axes_3">
   <g id="patch_14">
    <path d="M 57.6 197.46869 
L 414.72 197.46869 
L 414.72 151.58731 
L 57.6 151.58731 
z
" style="fill: #ffffff"/>
   </g>
   <g id="matplotlib.axis_5">
    <g id="xtick_13">
     <g id="line2d_29">
      <g>
       <use xlink:href="#m78f9efa891" x="73.832727" y="197.46869" style="stroke: #000000; stroke-width: 0.8"/>
      </g>
     </g>
    </g>
    <g id="xtick_14">
     <g id="line2d_30">
      <g>
       <use xlink:href="#m78f9efa891" x="138.763636" y="197.46869" style="stroke: #000000; stroke-width: 0.8"/>
      </g>
     </g>
    </g>
    <g id="xtick_15">
     <g id="line2d_31">
      <g>
       <use xlink:href="#m78f9efa891" x="203.694545" y="197.46869" style="stroke: #000000; stroke-width: 0.8"/>
      </g>
     </g>
    </g>
    <g id="xtick_16">
     <g id="line2d_32">
      <g>
       <use xlink:href="#m78f9efa891" x="268.625455" y="197.46869" style="stroke: #000000; stroke-width: 0.8"/>
      </g>
     </g>
    </g>
    <g id="xtick_17">
     <g id="line2d_33">
      <g>
       <use xlink:href="#m78f9efa891" x="333.556364" y="197.46869" style="stroke: #000000; stroke-width: 0.8"/>
      </g>
     </g>
    </g>
    <g id="xtick_18">
     <g id="line2d_34">
      <g>
       <use xlink:href="#m78f9efa891" x="398.487273" y="197.46869" style="stroke: #000000; stroke-width: 0.8"/>
      </g>
     </g>
    </g>
   </g>
   <g id="matplotlib.axis_6">
    <g id="ytick_5">
     <g id="line2d_35">
      <g>
       <use xlink:href="#m13f5e2542a" x="57.6" y="183.254688" style="stroke: #000000; stroke-width: 0.8"/>
      </g>
     </g>
     <g id="text_14">
      <!-- 0.05000 -->
      <g transform="translate(9.246875 187.053907)scale(0.1 -0.1)">
       <defs>
        <path id="DejaVuSans-2e" d="M 684 794 
L 1344 794 
L 1344 0 
L 684 0 
L 684 794 
z
" transform="scale(0.015625)"/>
        <path id="DejaVuSans-35" d="M 691 4666 
L 3169 4666 
L 3169 4134 
L 1269 4134 
L 1269 2991 
Q 1406 3038 1543 3061 
Q 1681 3084 1819 3084 
Q 2600 3084 3056 2656 
Q 3513 2228 3513 1497 
Q 3513 744 3044 326 
Q 2575 -91 1722 -91 
Q 1428 -91 1123 -41 
Q 819 9 494 109 
L 494 744 
Q 775 591 1075 516 
Q 1375 441 1709 441 
Q 2250 441 2565 725 
Q 2881 1009 2881 1497 
Q 2881 1984 2565 2268 
Q 2250 2553 1709 2553 
Q 1456 2553 1204 2497 
Q 953 2441 691 2322 
L 691 4666 
z
" transform="scale(0.015625)"/>
       </defs>
       <use xlink:href="#DejaVuSans-30"/>
       <use xlink:href="#DejaVuSans-2e" x="63.623047"/>
       <use xlink:href="#DejaVuSans-30" x="95.410156"/>
       <use xlink:href="#DejaVuSans-35" x="159.033203"/>
       <use xlink:href="#DejaVuSans-30" x="222.65625"/>
       <use xlink:href="#DejaVuSans-30" x="286.279297"/>
       <use xlink:href="#DejaVuSans-30" x="349.902344"/>
      </g>
     </g>
    </g>
    <g id="ytick_6">
     <g id="line2d_36">
      <g>
       <use xlink:href="#m13f5e2542a" x="57.6" y="161.98324" style="stroke: #000000; stroke-width: 0.8"/>
      </g>
     </g>
     <g id="text_15">
      <!-- 0.05025 -->
      <g transform="translate(9.246875 165.782458)scale(0.1 -0.1)">
       <defs>
        <path id="DejaVuSans-32" d="M 1228 531 
L 3431 531 
L 3431 0 
L 469 0 
L 469 531 
Q 828 903 1448 1529 
Q 2069 2156 2228 2338 
Q 2531 2678 2651 2914 
Q 2772 3150 2772 3378 
Q 2772 3750 2511 3984 
Q 2250 4219 1831 4219 
Q 1534 4219 1204 4116 
Q 875 4013 500 3803 
L 500 4441 
Q 881 4594 1212 4672 
Q 1544 4750 1819 4750 
Q 2544 4750 2975 4387 
Q 3406 4025 3406 3419 
Q 3406 3131 3298 2873 
Q 3191 2616 2906 2266 
Q 2828 2175 2409 1742 
Q 1991 1309 1228 531 
z
" transform="scale(0.015625)"/>
       </defs>
       <use xlink:href="#DejaVuSans-30"/>
       <use xlink:href="#DejaVuSans-2e" x="63.623047"/>
       <use xlink:href="#DejaVuSans-30" x="95.410156"/>
       <use xlink:href="#DejaVuSans-35" x="159.033203"/>
       <use xlink:href="#DejaVuSans-30" x="222.65625"/>
       <use xlink:href="#DejaVuSans-32" x="286.279297"/>
       <use xlink:href="#DejaVuSans-35" x="349.902344"/>
      </g>
     </g>
    </g>
    <g id="text_16">
     <!-- fraction -->
     <g transform="translate(3.167187 193.73425)rotate(-90)scale(0.1 -0.1)">
      <use xlink:href="#DejaVuSans-66"/>
      <use xlink:href="#DejaVuSans-72" x="35.205078"/>
      <use xlink:href="#DejaVuSans-61" x="76.318359"/>
      <use xlink:href="#DejaVuSans-63" x="137.597656"/>
      <use xlink:href="#DejaVuSans-74" x="192.578125"/>
      <use xlink:href="#DejaVuSans-69" x="231.787109"/>
      <use xlink:href="#DejaVuSans-6f" x="259.570312"/>
      <use xlink:href="#DejaVuSans-6e" x="320.751953"/>
     </g>
    </g>
   </g>
   <g id="line2d_37">
    <path d="M 73.832727 182.044362 
L 77.079273 183.256078 
L 80.325818 183.256904 
L 83.572364 183.253348 
L 86.818909 183.266601 
L 90.065455 183.247248 
L 93.312 186.690269 
L 96.558545 195.383172 
L 99.805091 188.047371 
L 103.051636 163.366086 
L 106.298182 153.672828 
L 109.544727 161.303222 
L 112.791273 162.693018 
L 116.037818 162.618236 
L 119.284364 162.690469 
L 122.530909 161.77247 
L 125.777455 183.249945 
L 129.024 183.25338 
L 132.270545 183.253838 
L 135.517091 183.254163 
L 138.763636 183.254328 
L 142.010182 183.254435 
L 145.256727 183.254465 
L 148.503273 183.254496 
L 151.749818 183.254526 
L 154.996364 183.254556 
L 158.242909 183.254586 
L 161.489455 183.254617 
L 164.736 183.254646 
L 167.982545 183.254663 
L 171.229091 183.254674 
L 174.475636 183.254382 
L 177.722182 183.253988 
L 180.968727 183.253344 
L 184.215273 183.252301 
L 187.461818 183.250766 
L 190.708364 183.248779 
L 193.954909 183.246567 
L 197.201455 183.244384 
L 200.448 183.242455 
L 203.694545 183.240901 
L 206.941091 183.239725 
L 210.187636 183.238801 
L 213.434182 183.23813 
L 216.680727 183.237816 
L 219.927273 183.237645 
L 223.173818 183.237433 
L 226.420364 183.237338 
L 229.666909 183.237367 
L 232.913455 183.237352 
L 236.16 183.237299 
L 239.406545 183.237296 
L 242.653091 183.237307 
L 245.899636 183.237285 
L 249.146182 183.237295 
L 252.392727 183.237232 
L 255.639273 183.237206 
L 258.885818 183.237215 
L 262.132364 183.237203 
L 265.378909 183.237221 
L 268.625455 183.237275 
L 271.872 183.232579 
L 275.118545 183.212515 
L 278.365091 183.165973 
L 281.611636 183.081472 
L 284.858182 182.954282 
L 288.104727 182.794226 
L 291.351273 182.623634 
L 294.597818 182.465501 
L 297.844364 182.336516 
L 301.090909 182.239519 
L 304.337455 182.171566 
L 307.584 182.12521 
L 310.830545 182.0951 
L 314.077091 182.076261 
L 317.323636 182.064928 
L 320.570182 182.05782 
L 323.816727 182.053295 
L 327.063273 182.050333 
L 330.309818 182.048567 
L 333.556364 182.04729 
L 336.802909 182.046411 
L 340.049455 182.045733 
L 343.296 182.045392 
L 346.542545 182.045218 
L 349.789091 182.045149 
L 353.035636 182.045067 
L 356.282182 182.045002 
L 359.528727 182.044952 
L 362.775273 182.044917 
L 366.021818 182.044887 
L 369.268364 182.044865 
L 372.514909 182.044853 
L 375.761455 182.044852 
L 379.008 182.044847 
L 382.254545 182.044834 
L 385.501091 182.04482 
L 388.747636 182.044807 
L 391.994182 182.044791 
L 395.240727 182.044767 
L 398.487273 182.044743 
" clip-path="url(#p306ce2b659)" style="fill: none; stroke: #1f77b4; stroke-width: 1.5; stroke-linecap: square"/>
   </g>
   <g id="line2d_38">
    <path d="M 73.832727 182.036947 
L 77.079273 182.884515 
L 80.325818 183.059912 
L 83.572364 183.121024 
L 86.818909 183.15347 
L 90.065455 183.175145 
L 93.312 183.188978 
L 96.558545 183.197932 
L 99.805091 183.205821 
L 103.051636 183.212017 
L 106.298182 183.217082 
L 109.544727 183.221131 
L 112.791273 183.224626 
L 116.037818 183.227675 
L 119.284364 183.230355 
L 122.530909 183.232823 
L 125.777455 181.590937 
L 129.024 182.617896 
L 132.270545 182.976635 
L 135.517091 183.186281 
L 138.763636 183.223473 
L 142.010182 183.245349 
L 145.256727 183.246662 
L 148.503273 183.247975 
L 151.749818 183.249288 
L 154.996364 183.2506 
L 158.242909 183.251913 
L 161.489455 183.253226 
L 164.736 183.254367 
L 167.982545 183.254561 
L 171.229091 183.254619 
L 174.475636 183.254565 
L 177.722182 183.254339 
L 180.968727 183.25385 
L 184.215273 183.252884 
L 187.461818 183.251401 
L 190.708364 183.249388 
L 193.954909 183.247148 
L 197.201455 183.244972 
L 200.448 183.242973 
L 203.694545 183.241417 
L 206.941091 183.240266 
L 210.187636 183.239453 
L 213.434182 183.238881 
L 216.680727 183.238501 
L 219.927273 183.238317 
L 223.173818 183.238194 
L 226.420364 183.237957 
L 229.666909 183.23777 
L 232.913455 183.237749 
L 236.16 183.23775 
L 239.406545 183.237649 
L 242.653091 183.237793 
L 245.899636 183.238256 
L 249.146182 183.238745 
L 252.392727 183.239287 
L 255.639273 183.239289 
L 258.885818 183.238873 
L 262.132364 183.238738 
L 265.378909 183.2385 
L 268.625455 183.238503 
L 271.872 183.2338 
L 275.118545 183.214079 
L 278.365091 183.168821 
L 281.611636 183.086746 
L 284.858182 182.962985 
L 288.104727 182.806003 
L 291.351273 182.636402 
L 294.597818 182.477555 
L 297.844364 182.345101 
L 301.090909 182.244198 
L 304.337455 182.172412 
L 307.584 182.123772 
L 310.830545 182.092029 
L 314.077091 182.071797 
L 317.323636 182.059167 
L 320.570182 182.051397 
L 323.816727 182.046533 
L 327.063273 182.043444 
L 330.309818 182.041689 
L 333.556364 182.040477 
L 336.802909 182.039823 
L 340.049455 182.03937 
L 343.296 182.039043 
L 346.542545 182.038802 
L 349.789091 182.038624 
L 353.035636 182.038539 
L 356.282182 182.038468 
L 359.528727 182.03841 
L 362.775273 182.038366 
L 366.021818 182.03833 
L 369.268364 182.038304 
L 372.514909 182.038289 
L 375.761455 182.038285 
L 379.008 182.038248 
L 382.254545 182.038263 
L 385.501091 182.038279 
L 388.747636 182.038294 
L 391.994182 182.038308 
L 395.240727 182.03832 
L 398.487273 182.038331 
" clip-path="url(#p306ce2b659)" style="fill: none; stroke: #ff7f0e; stroke-width: 1.5; stroke-linecap: square"/>
   </g>
   <g id="patch_15">
    <path d="M 57.6 197.46869 
L 57.6 151.58731 
" style="fill: none; stroke: #000000; stroke-width: 0.8; stroke-linejoin: miter; stroke-linecap: square"/>
   </g>
   <g id="patch_16">
    <path d="M 414.72 197.46869 
L 414.72 151.58731 
" style="fill: none; stroke: #000000; stroke-width: 0.8; stroke-linejoin: miter; stroke-linecap: square"/>
   </g>
   <g id="patch_17">
    <path d="M 57.6 197.46869 
L 414.72 197.46869 
" style="fill: none; stroke: #000000; stroke-width: 0.8; stroke-linejoin: miter; stroke-linecap: square"/>
   </g>
   <g id="patch_18">
    <path d="M 57.6 151.58731 
L 414.72 151.58731 
" style="fill: none; stroke: #000000; stroke-width: 0.8; stroke-linejoin: miter; stroke-linecap: square"/>
   </g>
   <g id="text_17">
    <!-- yA -->
    <g transform="translate(228.504375 145.58731)scale(0.12 -0.12)">
     <defs>
      <path id="DejaVuSans-41" d="M 2188 4044 
L 1331 1722 
L 3047 1722 
L 2188 4044 
z
M 1831 4666 
L 2547 4666 
L 4325 0 
L 3669 0 
L 3244 1197 
L 1141 1197 
L 716 0 
L 50 0 
L 1831 4666 
z
" transform="scale(0.015625)"/>
     </defs>
     <use xlink:href="#DejaVuSans-79"/>
     <use xlink:href="#DejaVuSans-41" x="59.179688"/>
    </g>
   </g>
   <g id="legend_3">
    <g id="patch_19">
     <path d="M 64.6 188.94356 
L 142.289062 188.94356 
Q 144.289062 188.94356 144.289062 186.94356 
L 144.289062 158.58731 
Q 144.289062 156.58731 142.289062 156.58731 
L 64.6 156.58731 
Q 62.6 156.58731 62.6 158.58731 
L 62.6 186.94356 
Q 62.6 188.94356 64.6 188.94356 
z
" style="fill: #ffffff; opacity: 0.8; stroke: #cccccc; stroke-linejoin: miter"/>
    </g>
    <g id="line2d_39">
     <path d="M 66.6 164.685748 
L 76.6 164.685748 
L 86.6 164.685748 
" style="fill: none; stroke: #1f77b4; stroke-width: 1.5; stroke-linecap: square"/>
    </g>
    <g id="text_18">
     <!-- yA0 (in) -->
     <g transform="translate(94.6 168.185748)scale(0.1 -0.1)">
      <use xlink:href="#DejaVuSans-79"/>
      <use xlink:href="#DejaVuSans-41" x="59.179688"/>
      <use xlink:href="#DejaVuSans-30" x="127.587891"/>
      <use xlink:href="#DejaVuSans-20" x="191.210938"/>
      <use xlink:href="#DejaVuSans-28" x="222.998047"/>
      <use xlink:href="#DejaVuSans-69" x="262.011719"/>
      <use xlink:href="#DejaVuSans-6e" x="289.794922"/>
      <use xlink:href="#DejaVuSans-29" x="353.173828"/>
     </g>
    </g>
    <g id="line2d_40">
     <path d="M 66.6 179.363873 
L 76.6 179.363873 
L 86.6 179.363873 
" style="fill: none; stroke: #ff7f0e; stroke-width: 1.5; stroke-linecap: square"/>
    </g>
    <g id="text_19">
     <!-- yAL (out) -->
     <g transform="translate(94.6 182.863873)scale(0.1 -0.1)">
      <defs>
       <path id="DejaVuSans-4c" d="M 628 4666 
L 1259 4666 
L 1259 531 
L 3531 531 
L 3531 0 
L 628 0 
L 628 4666 
z
" transform="scale(0.015625)"/>
      </defs>
      <use xlink:href="#DejaVuSans-79"/>
      <use xlink:href="#DejaVuSans-41" x="59.179688"/>
      <use xlink:href="#DejaVuSans-4c" x="127.587891"/>
      <use xlink:href="#DejaVuSans-20" x="183.300781"/>
      <use xlink:href="#DejaVuSans-28" x="215.087891"/>
      <use xlink:href="#DejaVuSans-6f" x="254.101562"/>
      <use xlink:href="#DejaVuSans-75" x="315.283203"/>
      <use xlink:href="#DejaVuSans-74" x="378.662109"/>
      <use xlink:href="#DejaVuSans-29" x="417.871094"/>
     </g>
    </g>
   </g>
  </g>
  <g id="axes_4">
   <g id="patch_20">
    <path d="M 57.6 252.526345 
L 414.72 252.526345 
L 414.72 206.644966 
L 57.6 206.644966 
z
" style="fill: #ffffff"/>
   </g>
   <g id="matplotlib.axis_7">
    <g id="xtick_19">
     <g id="line2d_41">
      <g>
       <use xlink:href="#m78f9efa891" x="73.832727" y="252.526345" style="stroke: #000000; stroke-width: 0.8"/>
      </g>
     </g>
    </g>
    <g id="xtick_20">
     <g id="line2d_42">
      <g>
       <use xlink:href="#m78f9efa891" x="138.763636" y="252.526345" style="stroke: #000000; stroke-width: 0.8"/>
      </g>
     </g>
    </g>
    <g id="xtick_21">
     <g id="line2d_43">
      <g>
       <use xlink:href="#m78f9efa891" x="203.694545" y="252.526345" style="stroke: #000000; stroke-width: 0.8"/>
      </g>
     </g>
    </g>
    <g id="xtick_22">
     <g id="line2d_44">
      <g>
       <use xlink:href="#m78f9efa891" x="268.625455" y="252.526345" style="stroke: #000000; stroke-width: 0.8"/>
      </g>
     </g>
    </g>
    <g id="xtick_23">
     <g id="line2d_45">
      <g>
       <use xlink:href="#m78f9efa891" x="333.556364" y="252.526345" style="stroke: #000000; stroke-width: 0.8"/>
      </g>
     </g>
    </g>
    <g id="xtick_24">
     <g id="line2d_46">
      <g>
       <use xlink:href="#m78f9efa891" x="398.487273" y="252.526345" style="stroke: #000000; stroke-width: 0.8"/>
      </g>
     </g>
    </g>
   </g>
   <g id="matplotlib.axis_8">
    <g id="ytick_7">
     <g id="line2d_47">
      <g>
       <use xlink:href="#m13f5e2542a" x="57.6" y="243.27078" style="stroke: #000000; stroke-width: 0.8"/>
      </g>
     </g>
     <g id="text_20">
      <!-- 0.89975 -->
      <g transform="translate(9.246875 247.069999)scale(0.1 -0.1)">
       <defs>
        <path id="DejaVuSans-38" d="M 2034 2216 
Q 1584 2216 1326 1975 
Q 1069 1734 1069 1313 
Q 1069 891 1326 650 
Q 1584 409 2034 409 
Q 2484 409 2743 651 
Q 3003 894 3003 1313 
Q 3003 1734 2745 1975 
Q 2488 2216 2034 2216 
z
M 1403 2484 
Q 997 2584 770 2862 
Q 544 3141 544 3541 
Q 544 4100 942 4425 
Q 1341 4750 2034 4750 
Q 2731 4750 3128 4425 
Q 3525 4100 3525 3541 
Q 3525 3141 3298 2862 
Q 3072 2584 2669 2484 
Q 3125 2378 3379 2068 
Q 3634 1759 3634 1313 
Q 3634 634 3220 271 
Q 2806 -91 2034 -91 
Q 1263 -91 848 271 
Q 434 634 434 1313 
Q 434 1759 690 2068 
Q 947 2378 1403 2484 
z
M 1172 3481 
Q 1172 3119 1398 2916 
Q 1625 2713 2034 2713 
Q 2441 2713 2670 2916 
Q 2900 3119 2900 3481 
Q 2900 3844 2670 4047 
Q 2441 4250 2034 4250 
Q 1625 4250 1398 4047 
Q 1172 3844 1172 3481 
z
" transform="scale(0.015625)"/>
        <path id="DejaVuSans-39" d="M 703 97 
L 703 672 
Q 941 559 1184 500 
Q 1428 441 1663 441 
Q 2288 441 2617 861 
Q 2947 1281 2994 2138 
Q 2813 1869 2534 1725 
Q 2256 1581 1919 1581 
Q 1219 1581 811 2004 
Q 403 2428 403 3163 
Q 403 3881 828 4315 
Q 1253 4750 1959 4750 
Q 2769 4750 3195 4129 
Q 3622 3509 3622 2328 
Q 3622 1225 3098 567 
Q 2575 -91 1691 -91 
Q 1453 -91 1209 -44 
Q 966 3 703 97 
z
M 1959 2075 
Q 2384 2075 2632 2365 
Q 2881 2656 2881 3163 
Q 2881 3666 2632 3958 
Q 2384 4250 1959 4250 
Q 1534 4250 1286 3958 
Q 1038 3666 1038 3163 
Q 1038 2656 1286 2365 
Q 1534 2075 1959 2075 
z
" transform="scale(0.015625)"/>
        <path id="DejaVuSans-37" d="M 525 4666 
L 3525 4666 
L 3525 4397 
L 1831 0 
L 1172 0 
L 2766 4134 
L 525 4134 
L 525 4666 
z
" transform="scale(0.015625)"/>
       </defs>
       <use xlink:href="#DejaVuSans-30"/>
       <use xlink:href="#DejaVuSans-2e" x="63.623047"/>
       <use xlink:href="#DejaVuSans-38" x="95.410156"/>
       <use xlink:href="#DejaVuSans-39" x="159.033203"/>
       <use xlink:href="#DejaVuSans-39" x="222.65625"/>
       <use xlink:href="#DejaVuSans-37" x="286.279297"/>
       <use xlink:href="#DejaVuSans-35" x="349.902344"/>
      </g>
     </g>
    </g>
    <g id="ytick_8">
     <g id="line2d_48">
      <g>
       <use xlink:href="#m13f5e2542a" x="57.6" y="220.858999" style="stroke: #000000; stroke-width: 0.8"/>
      </g>
     </g>
     <g id="text_21">
      <!-- 0.90000 -->
      <g transform="translate(9.246875 224.658218)scale(0.1 -0.1)">
       <use xlink:href="#DejaVuSans-30"/>
       <use xlink:href="#DejaVuSans-2e" x="63.623047"/>
       <use xlink:href="#DejaVuSans-39" x="95.410156"/>
       <use xlink:href="#DejaVuSans-30" x="159.033203"/>
       <use xlink:href="#DejaVuSans-30" x="222.65625"/>
       <use xlink:href="#DejaVuSans-30" x="286.279297"/>
       <use xlink:href="#DejaVuSans-30" x="349.902344"/>
      </g>
     </g>
    </g>
    <g id="text_22">
     <!-- fraction -->
     <g transform="translate(3.167187 248.791905)rotate(-90)scale(0.1 -0.1)">
      <use xlink:href="#DejaVuSans-66"/>
      <use xlink:href="#DejaVuSans-72" x="35.205078"/>
      <use xlink:href="#DejaVuSans-61" x="76.318359"/>
      <use xlink:href="#DejaVuSans-63" x="137.597656"/>
      <use xlink:href="#DejaVuSans-74" x="192.578125"/>
      <use xlink:href="#DejaVuSans-69" x="231.787109"/>
      <use xlink:href="#DejaVuSans-6f" x="259.570312"/>
      <use xlink:href="#DejaVuSans-6e" x="320.751953"/>
     </g>
    </g>
   </g>
   <g id="line2d_49">
    <path d="M 73.832727 222.072698 
L 77.079273 220.857607 
L 80.325818 220.856778 
L 83.572364 220.860331 
L 86.818909 220.847077 
L 90.065455 220.866428 
L 93.312 217.4234 
L 96.558545 208.730483 
L 99.805091 216.066299 
L 103.051636 240.747602 
L 106.298182 250.440828 
L 109.544727 242.810493 
L 112.791273 241.420709 
L 116.037818 241.495491 
L 119.284364 241.423258 
L 122.530909 242.341199 
L 125.777455 220.863717 
L 129.024 220.860292 
L 132.270545 220.859839 
L 135.517091 220.859518 
L 138.763636 220.859355 
L 142.010182 220.859249 
L 145.256727 220.859219 
L 148.503273 220.859189 
L 151.749818 220.859159 
L 154.996364 220.85913 
L 158.242909 220.8591 
L 161.489455 220.85907 
L 164.736 220.859041 
L 167.982545 220.859024 
L 171.229091 220.859013 
L 174.475636 220.859302 
L 177.722182 220.859693 
L 180.968727 220.860334 
L 184.215273 220.861374 
L 187.461818 220.862906 
L 190.708364 220.86489 
L 193.954909 220.867099 
L 197.201455 220.869278 
L 200.448 220.871204 
L 203.694545 220.872757 
L 206.941091 220.873932 
L 210.187636 220.874854 
L 213.434182 220.875525 
L 216.680727 220.875839 
L 219.927273 220.87601 
L 223.173818 220.876222 
L 226.420364 220.876316 
L 229.666909 220.876288 
L 232.913455 220.876304 
L 236.16 220.876357 
L 239.406545 220.876359 
L 242.653091 220.876348 
L 245.899636 220.87637 
L 249.146182 220.876361 
L 252.392727 220.876423 
L 255.639273 220.87645 
L 258.885818 220.876441 
L 262.132364 220.876452 
L 265.378909 220.876435 
L 268.625455 220.876381 
L 271.872 220.881071 
L 275.118545 220.901107 
L 278.365091 220.94759 
L 281.611636 221.032001 
L 284.858182 221.159126 
L 288.104727 221.319231 
L 291.351273 221.490049 
L 294.597818 221.648579 
L 297.844364 221.778047 
L 301.090909 221.875543 
L 304.337455 221.943946 
L 307.584 221.990683 
L 310.830545 222.021083 
L 314.077091 222.040132 
L 317.323636 222.051612 
L 320.570182 222.058821 
L 323.816727 222.063414 
L 327.063273 222.066419 
L 330.309818 222.068213 
L 333.556364 222.069508 
L 336.802909 222.070398 
L 340.049455 222.071084 
L 343.296 222.071431 
L 346.542545 222.071609 
L 349.789091 222.07168 
L 353.035636 222.071763 
L 356.282182 222.07183 
L 359.528727 222.071881 
L 362.775273 222.071915 
L 366.021818 222.071946 
L 369.268364 222.071968 
L 372.514909 222.07198 
L 375.761455 222.071981 
L 379.008 222.071986 
L 382.254545 222.071999 
L 385.501091 222.072012 
L 388.747636 222.072025 
L 391.994182 222.07204 
L 395.240727 222.072064 
L 398.487273 222.072087 
" clip-path="url(#p97a15890bd)" style="fill: none; stroke: #1f77b4; stroke-width: 1.5; stroke-linecap: square"/>
   </g>
   <g id="line2d_50">
    <path d="M 73.832727 222.08014 
L 77.079273 221.230376 
L 80.325818 221.054452 
L 83.572364 220.993152 
L 86.818909 220.960603 
L 90.065455 220.93886 
L 93.312 220.924982 
L 96.558545 220.916 
L 99.805091 220.908087 
L 103.051636 220.901871 
L 106.298182 220.89679 
L 109.544727 220.892728 
L 112.791273 220.889222 
L 116.037818 220.886164 
L 119.284364 220.883475 
L 122.530909 220.881 
L 125.777455 222.522795 
L 129.024 221.49577 
L 132.270545 221.137025 
L 135.517091 220.92738 
L 138.763636 220.890195 
L 142.010182 220.868323 
L 145.256727 220.867012 
L 148.503273 220.865701 
L 151.749818 220.86439 
L 154.996364 220.863079 
L 158.242909 220.861768 
L 161.489455 220.860457 
L 164.736 220.859318 
L 167.982545 220.859125 
L 171.229091 220.859068 
L 174.475636 220.859098 
L 177.722182 220.859342 
L 180.968727 220.859894 
L 184.215273 220.860795 
L 187.461818 220.862406 
L 190.708364 220.864237 
L 193.954909 220.86636 
L 197.201455 220.868673 
L 200.448 220.870471 
L 203.694545 220.871967 
L 206.941091 220.873164 
L 210.187636 220.874041 
L 213.434182 220.874647 
L 216.680727 220.875012 
L 219.927273 220.875208 
L 223.173818 220.87543 
L 226.420364 220.875698 
L 229.666909 220.875817 
L 232.913455 220.875881 
L 236.16 220.876214 
L 239.406545 220.876819 
L 242.653091 220.876685 
L 245.899636 220.875667 
L 249.146182 220.874532 
L 252.392727 220.872919 
L 255.639273 220.872467 
L 258.885818 220.873094 
L 262.132364 220.873451 
L 265.378909 220.874563 
L 268.625455 220.874993 
L 271.872 220.879644 
L 275.118545 220.899316 
L 278.365091 220.944512 
L 281.611636 221.026521 
L 284.858182 221.150257 
L 288.104727 221.307324 
L 291.351273 221.47717 
L 294.597818 221.636417 
L 297.844364 221.769367 
L 301.090909 221.870781 
L 304.337455 221.943033 
L 307.584 221.99206 
L 310.830545 222.024102 
L 314.077091 222.044555 
L 317.323636 222.057341 
L 320.570182 222.065217 
L 323.816727 222.070152 
L 327.063273 222.073288 
L 330.309818 222.075072 
L 333.556364 222.076303 
L 336.802909 222.076969 
L 340.049455 222.07743 
L 343.296 222.077764 
L 346.542545 222.078009 
L 349.789091 222.078189 
L 353.035636 222.078275 
L 356.282182 222.078347 
L 359.528727 222.078406 
L 362.775273 222.078451 
L 366.021818 222.078487 
L 369.268364 222.078514 
L 372.514909 222.078529 
L 375.761455 222.078533 
L 379.008 222.07857 
L 382.254545 222.078554 
L 385.501091 222.078538 
L 388.747636 222.078523 
L 391.994182 222.078508 
L 395.240727 222.078496 
L 398.487273 222.078484 
" clip-path="url(#p97a15890bd)" style="fill: none; stroke: #ff7f0e; stroke-width: 1.5; stroke-linecap: square"/>
   </g>
   <g id="patch_21">
    <path d="M 57.6 252.526345 
L 57.6 206.644966 
" style="fill: none; stroke: #000000; stroke-width: 0.8; stroke-linejoin: miter; stroke-linecap: square"/>
   </g>
   <g id="patch_22">
    <path d="M 414.72 252.526345 
L 414.72 206.644966 
" style="fill: none; stroke: #000000; stroke-width: 0.8; stroke-linejoin: miter; stroke-linecap: square"/>
   </g>
   <g id="patch_23">
    <path d="M 57.6 252.526345 
L 414.72 252.526345 
" style="fill: none; stroke: #000000; stroke-width: 0.8; stroke-linejoin: miter; stroke-linecap: square"/>
   </g>
   <g id="patch_24">
    <path d="M 57.6 206.644966 
L 414.72 206.644966 
" style="fill: none; stroke: #000000; stroke-width: 0.8; stroke-linejoin: miter; stroke-linecap: square"/>
   </g>
   <g id="text_23">
    <!-- yB -->
    <g transform="translate(228.492188 200.644966)scale(0.12 -0.12)">
     <defs>
      <path id="DejaVuSans-42" d="M 1259 2228 
L 1259 519 
L 2272 519 
Q 2781 519 3026 730 
Q 3272 941 3272 1375 
Q 3272 1813 3026 2020 
Q 2781 2228 2272 2228 
L 1259 2228 
z
M 1259 4147 
L 1259 2741 
L 2194 2741 
Q 2656 2741 2882 2914 
Q 3109 3088 3109 3444 
Q 3109 3797 2882 3972 
Q 2656 4147 2194 4147 
L 1259 4147 
z
M 628 4666 
L 2241 4666 
Q 2963 4666 3353 4366 
Q 3744 4066 3744 3513 
Q 3744 3084 3544 2831 
Q 3344 2578 2956 2516 
Q 3422 2416 3680 2098 
Q 3938 1781 3938 1306 
Q 3938 681 3513 340 
Q 3088 0 2303 0 
L 628 0 
L 628 4666 
z
" transform="scale(0.015625)"/>
     </defs>
     <use xlink:href="#DejaVuSans-79"/>
     <use xlink:href="#DejaVuSans-42" x="59.179688"/>
    </g>
   </g>
   <g id="legend_4">
    <g id="patch_25">
     <path d="M 64.6 244.001216 
L 142.309375 244.001216 
Q 144.309375 244.001216 144.309375 242.001216 
L 144.309375 213.644966 
Q 144.309375 211.644966 142.309375 211.644966 
L 64.6 211.644966 
Q 62.6 211.644966 62.6 213.644966 
L 62.6 242.001216 
Q 62.6 244.001216 64.6 244.001216 
z
" style="fill: #ffffff; opacity: 0.8; stroke: #cccccc; stroke-linejoin: miter"/>
    </g>
    <g id="line2d_51">
     <path d="M 66.6 219.743403 
L 76.6 219.743403 
L 86.6 219.743403 
" style="fill: none; stroke: #1f77b4; stroke-width: 1.5; stroke-linecap: square"/>
    </g>
    <g id="text_24">
     <!-- yB0 (in) -->
     <g transform="translate(94.6 223.243403)scale(0.1 -0.1)">
      <use xlink:href="#DejaVuSans-79"/>
      <use xlink:href="#DejaVuSans-42" x="59.179688"/>
      <use xlink:href="#DejaVuSans-30" x="127.783203"/>
      <use xlink:href="#DejaVuSans-20" x="191.40625"/>
      <use xlink:href="#DejaVuSans-28" x="223.193359"/>
      <use xlink:href="#DejaVuSans-69" x="262.207031"/>
      <use xlink:href="#DejaVuSans-6e" x="289.990234"/>
      <use xlink:href="#DejaVuSans-29" x="353.369141"/>
     </g>
    </g>
    <g id="line2d_52">
     <path d="M 66.6 234.421528 
L 76.6 234.421528 
L 86.6 234.421528 
" style="fill: none; stroke: #ff7f0e; stroke-width: 1.5; stroke-linecap: square"/>
    </g>
    <g id="text_25">
     <!-- yBL (out) -->
     <g transform="translate(94.6 237.921528)scale(0.1 -0.1)">
      <use xlink:href="#DejaVuSans-79"/>
      <use xlink:href="#DejaVuSans-42" x="59.179688"/>
      <use xlink:href="#DejaVuSans-4c" x="127.783203"/>
      <use xlink:href="#DejaVuSans-20" x="183.496094"/>
      <use xlink:href="#DejaVuSans-28" x="215.283203"/>
      <use xlink:href="#DejaVuSans-6f" x="254.296875"/>
      <use xlink:href="#DejaVuSans-75" x="315.478516"/>
      <use xlink:href="#DejaVuSans-74" x="378.857422"/>
      <use xlink:href="#DejaVuSans-29" x="418.066406"/>
     </g>
    </g>
   </g>
  </g>
  <g id="axes_5">
   <g id="patch_26">
    <path d="M 57.6 307.584 
L 414.72 307.584 
L 414.72 261.702621 
L 57.6 261.702621 
z
" style="fill: #ffffff"/>
   </g>
   <g id="matplotlib.axis_9">
    <g id="xtick_25">
     <g id="line2d_53">
      <g>
       <use xlink:href="#m78f9efa891" x="73.832727" y="307.584" style="stroke: #000000; stroke-width: 0.8"/>
      </g>
     </g>
     <g id="text_26">
      <!-- 0 -->
      <g transform="translate(70.651477 322.182437)scale(0.1 -0.1)">
       <use xlink:href="#DejaVuSans-30"/>
      </g>
     </g>
    </g>
    <g id="xtick_26">
     <g id="line2d_54">
      <g>
       <use xlink:href="#m78f9efa891" x="138.763636" y="307.584" style="stroke: #000000; stroke-width: 0.8"/>
      </g>
     </g>
     <g id="text_27">
      <!-- 20 -->
      <g transform="translate(132.401136 322.182437)scale(0.1 -0.1)">
       <use xlink:href="#DejaVuSans-32"/>
       <use xlink:href="#DejaVuSans-30" x="63.623047"/>
      </g>
     </g>
    </g>
    <g id="xtick_27">
     <g id="line2d_55">
      <g>
       <use xlink:href="#m78f9efa891" x="203.694545" y="307.584" style="stroke: #000000; stroke-width: 0.8"/>
      </g>
     </g>
     <g id="text_28">
      <!-- 40 -->
      <g transform="translate(197.332045 322.182437)scale(0.1 -0.1)">
       <defs>
        <path id="DejaVuSans-34" d="M 2419 4116 
L 825 1625 
L 2419 1625 
L 2419 4116 
z
M 2253 4666 
L 3047 4666 
L 3047 1625 
L 3713 1625 
L 3713 1100 
L 3047 1100 
L 3047 0 
L 2419 0 
L 2419 1100 
L 313 1100 
L 313 1709 
L 2253 4666 
z
" transform="scale(0.015625)"/>
       </defs>
       <use xlink:href="#DejaVuSans-34"/>
       <use xlink:href="#DejaVuSans-30" x="63.623047"/>
      </g>
     </g>
    </g>
    <g id="xtick_28">
     <g id="line2d_56">
      <g>
       <use xlink:href="#m78f9efa891" x="268.625455" y="307.584" style="stroke: #000000; stroke-width: 0.8"/>
      </g>
     </g>
     <g id="text_29">
      <!-- 60 -->
      <g transform="translate(262.262955 322.182437)scale(0.1 -0.1)">
       <defs>
        <path id="DejaVuSans-36" d="M 2113 2584 
Q 1688 2584 1439 2293 
Q 1191 2003 1191 1497 
Q 1191 994 1439 701 
Q 1688 409 2113 409 
Q 2538 409 2786 701 
Q 3034 994 3034 1497 
Q 3034 2003 2786 2293 
Q 2538 2584 2113 2584 
z
M 3366 4563 
L 3366 3988 
Q 3128 4100 2886 4159 
Q 2644 4219 2406 4219 
Q 1781 4219 1451 3797 
Q 1122 3375 1075 2522 
Q 1259 2794 1537 2939 
Q 1816 3084 2150 3084 
Q 2853 3084 3261 2657 
Q 3669 2231 3669 1497 
Q 3669 778 3244 343 
Q 2819 -91 2113 -91 
Q 1303 -91 875 529 
Q 447 1150 447 2328 
Q 447 3434 972 4092 
Q 1497 4750 2381 4750 
Q 2619 4750 2861 4703 
Q 3103 4656 3366 4563 
z
" transform="scale(0.015625)"/>
       </defs>
       <use xlink:href="#DejaVuSans-36"/>
       <use xlink:href="#DejaVuSans-30" x="63.623047"/>
      </g>
     </g>
    </g>
    <g id="xtick_29">
     <g id="line2d_57">
      <g>
       <use xlink:href="#m78f9efa891" x="333.556364" y="307.584" style="stroke: #000000; stroke-width: 0.8"/>
      </g>
     </g>
     <g id="text_30">
      <!-- 80 -->
      <g transform="translate(327.193864 322.182437)scale(0.1 -0.1)">
       <use xlink:href="#DejaVuSans-38"/>
       <use xlink:href="#DejaVuSans-30" x="63.623047"/>
      </g>
     </g>
    </g>
    <g id="xtick_30">
     <g id="line2d_58">
      <g>
       <use xlink:href="#m78f9efa891" x="398.487273" y="307.584" style="stroke: #000000; stroke-width: 0.8"/>
      </g>
     </g>
     <g id="text_31">
      <!-- 100 -->
      <g transform="translate(388.943523 322.182437)scale(0.1 -0.1)">
       <use xlink:href="#DejaVuSans-31"/>
       <use xlink:href="#DejaVuSans-30" x="63.623047"/>
       <use xlink:href="#DejaVuSans-30" x="127.246094"/>
      </g>
     </g>
    </g>
    <g id="text_32">
     <!-- time (normalized) -->
     <g transform="translate(191.589687 335.860562)scale(0.1 -0.1)">
      <use xlink:href="#DejaVuSans-74"/>
      <use xlink:href="#DejaVuSans-69" x="39.208984"/>
      <use xlink:href="#DejaVuSans-6d" x="66.992188"/>
      <use xlink:href="#DejaVuSans-65" x="164.404297"/>
      <use xlink:href="#DejaVuSans-20" x="225.927734"/>
      <use xlink:href="#DejaVuSans-28" x="257.714844"/>
      <use xlink:href="#DejaVuSans-6e" x="296.728516"/>
      <use xlink:href="#DejaVuSans-6f" x="360.107422"/>
      <use xlink:href="#DejaVuSans-72" x="421.289062"/>
      <use xlink:href="#DejaVuSans-6d" x="460.652344"/>
      <use xlink:href="#DejaVuSans-61" x="558.064453"/>
      <use xlink:href="#DejaVuSans-6c" x="619.34375"/>
      <use xlink:href="#DejaVuSans-69" x="647.126953"/>
      <use xlink:href="#DejaVuSans-7a" x="674.910156"/>
      <use xlink:href="#DejaVuSans-65" x="727.400391"/>
      <use xlink:href="#DejaVuSans-64" x="788.923828"/>
      <use xlink:href="#DejaVuSans-29" x="852.400391"/>
     </g>
    </g>
   </g>
   <g id="matplotlib.axis_10">
    <g id="ytick_9">
     <g id="line2d_59">
      <g>
       <use xlink:href="#m13f5e2542a" x="57.6" y="293.221099" style="stroke: #000000; stroke-width: 0.8"/>
      </g>
     </g>
     <g id="text_33">
      <!-- 0 -->
      <g transform="translate(44.2375 297.020318)scale(0.1 -0.1)">
       <use xlink:href="#DejaVuSans-30"/>
      </g>
     </g>
    </g>
    <g id="ytick_10">
     <g id="line2d_60">
      <g>
       <use xlink:href="#m13f5e2542a" x="57.6" y="275.916193" style="stroke: #000000; stroke-width: 0.8"/>
      </g>
     </g>
     <g id="text_34">
      <!-- 1 -->
      <g transform="translate(44.2375 279.715411)scale(0.1 -0.1)">
       <use xlink:href="#DejaVuSans-31"/>
      </g>
     </g>
    </g>
    <g id="text_35">
     <!-- fraction -->
     <g transform="translate(38.157812 303.84956)rotate(-90)scale(0.1 -0.1)">
      <use xlink:href="#DejaVuSans-66"/>
      <use xlink:href="#DejaVuSans-72" x="35.205078"/>
      <use xlink:href="#DejaVuSans-61" x="76.318359"/>
      <use xlink:href="#DejaVuSans-63" x="137.597656"/>
      <use xlink:href="#DejaVuSans-74" x="192.578125"/>
      <use xlink:href="#DejaVuSans-69" x="231.787109"/>
      <use xlink:href="#DejaVuSans-6f" x="259.570312"/>
      <use xlink:href="#DejaVuSans-6e" x="320.751953"/>
     </g>
    </g>
    <g id="text_36">
     <!-- 1e5+4.999e2 -->
     <g transform="translate(57.6 258.702621)scale(0.1 -0.1)">
      <defs>
       <path id="DejaVuSans-2212" d="M 678 2272 
L 4684 2272 
L 4684 1741 
L 678 1741 
L 678 2272 
z
" transform="scale(0.015625)"/>
       <path id="DejaVuSans-2b" d="M 2944 4013 
L 2944 2272 
L 4684 2272 
L 4684 1741 
L 2944 1741 
L 2944 0 
L 2419 0 
L 2419 1741 
L 678 1741 
L 678 2272 
L 2419 2272 
L 2419 4013 
L 2944 4013 
z
" transform="scale(0.015625)"/>
      </defs>
      <use xlink:href="#DejaVuSans-31"/>
      <use xlink:href="#DejaVuSans-65" x="63.623047"/>
      <use xlink:href="#DejaVuSans-2212" x="125.146484"/>
      <use xlink:href="#DejaVuSans-35" x="208.935547"/>
      <use xlink:href="#DejaVuSans-2b" x="272.558594"/>
      <use xlink:href="#DejaVuSans-34" x="356.347656"/>
      <use xlink:href="#DejaVuSans-2e" x="419.970703"/>
      <use xlink:href="#DejaVuSans-39" x="451.757812"/>
      <use xlink:href="#DejaVuSans-39" x="515.380859"/>
      <use xlink:href="#DejaVuSans-39" x="579.003906"/>
      <use xlink:href="#DejaVuSans-65" x="642.626953"/>
      <use xlink:href="#DejaVuSans-2212" x="704.150391"/>
      <use xlink:href="#DejaVuSans-32" x="787.939453"/>
     </g>
    </g>
   </g>
   <g id="line2d_61">
    <path d="M 73.832727 277.103855 
L 77.079273 275.91479 
L 80.325818 275.913957 
L 83.572364 275.917509 
L 86.818909 275.904255 
L 90.065455 275.923604 
L 93.312 272.480768 
L 96.558545 263.788138 
L 99.805091 271.123596 
L 103.051636 295.804521 
L 106.298182 305.498483 
L 109.544727 297.866838 
L 112.791273 296.476805 
L 116.037818 296.551589 
L 119.284364 296.479337 
L 122.530909 297.39862 
L 125.777455 275.921501 
L 129.024 275.917837 
L 132.270545 275.917272 
L 135.517091 275.916861 
L 138.763636 275.916651 
L 142.010182 275.916514 
L 145.256727 275.916476 
L 148.503273 275.916438 
L 151.749818 275.916399 
L 154.996364 275.916361 
L 158.242909 275.916322 
L 161.489455 275.916284 
L 164.736 275.916247 
L 167.982545 275.916224 
L 171.229091 275.916211 
L 174.475636 275.916573 
L 177.722182 275.917031 
L 180.968727 275.917747 
L 184.215273 275.91888 
L 187.461818 275.920531 
L 190.708364 275.922656 
L 193.954909 275.925014 
L 197.201455 275.927334 
L 200.448 275.929379 
L 203.694545 275.931022 
L 206.941091 275.932262 
L 210.187636 275.933234 
L 213.434182 275.933939 
L 216.680727 275.934264 
L 219.927273 275.93444 
L 223.173818 275.934662 
L 226.420364 275.934758 
L 229.666909 275.934725 
L 232.913455 275.934739 
L 236.16 275.934794 
L 239.406545 275.934795 
L 242.653091 275.934782 
L 245.899636 275.934804 
L 249.146182 275.934793 
L 252.392727 275.934859 
L 255.639273 275.934887 
L 258.885818 275.934876 
L 262.132364 275.934887 
L 265.378909 275.934868 
L 268.625455 275.934809 
L 271.872 275.939773 
L 275.118545 275.961085 
L 278.365091 276.010273 
L 281.611636 276.098901 
L 284.858182 276.230937 
L 288.104727 276.394805 
L 291.351273 276.566392 
L 294.597818 276.722121 
L 297.844364 276.845906 
L 301.090909 276.936444 
L 304.337455 276.997921 
L 307.584 277.038647 
L 310.830545 277.064201 
L 314.077091 277.079577 
L 317.323636 277.088423 
L 320.570182 277.093825 
L 323.816727 277.097212 
L 327.063273 277.099422 
L 330.309818 277.100719 
L 333.556364 277.101673 
L 336.802909 277.102351 
L 340.049455 277.102879 
L 343.296 277.103104 
L 346.542545 277.103191 
L 349.789091 277.103197 
L 353.035636 277.103235 
L 356.282182 277.103268 
L 359.528727 277.103295 
L 362.775273 277.103317 
L 366.021818 277.103333 
L 369.268364 277.103344 
L 372.514909 277.103349 
L 375.761455 277.103349 
L 379.008 277.103343 
L 382.254545 277.103358 
L 385.501091 277.103373 
L 388.747636 277.103389 
L 391.994182 277.103406 
L 395.240727 277.10343 
L 398.487273 277.103454 
" clip-path="url(#pd62d345388)" style="fill: none; stroke: #1f77b4; stroke-width: 1.5; stroke-linecap: square"/>
   </g>
   <g id="line2d_62">
    <path d="M 73.832727 277.111029 
L 77.079273 276.276121 
L 80.325818 276.104737 
L 83.572364 276.045145 
L 86.818909 276.01353 
L 90.065455 275.992418 
L 93.312 275.978948 
L 96.558545 275.970228 
L 99.805091 275.962543 
L 103.051636 275.956507 
L 106.298182 275.951573 
L 109.544727 275.947628 
L 112.791273 275.944223 
L 116.037818 275.941254 
L 119.284364 275.938643 
L 122.530909 275.93624 
L 125.777455 277.578688 
L 129.024 276.553403 
L 132.270545 276.194851 
L 135.517091 275.985178 
L 138.763636 275.947833 
L 142.010182 275.925853 
L 145.256727 275.924503 
L 148.503273 275.923152 
L 151.749818 275.921801 
L 154.996364 275.92045 
L 158.242909 275.919099 
L 161.489455 275.917748 
L 164.736 275.91657 
L 167.982545 275.916353 
L 171.229091 275.916281 
L 174.475636 275.916338 
L 177.722182 275.916467 
L 180.968727 275.917166 
L 184.215273 275.91807 
L 187.461818 275.919735 
L 190.708364 275.921862 
L 193.954909 275.924308 
L 197.201455 275.926636 
L 200.448 275.928753 
L 203.694545 275.930425 
L 206.941091 275.931635 
L 210.187636 275.932328 
L 213.434182 275.932697 
L 216.680727 275.933099 
L 219.927273 275.933411 
L 223.173818 275.933463 
L 226.420364 275.933537 
L 229.666909 275.93373 
L 232.913455 275.933783 
L 236.16 275.9336 
L 239.406545 275.93332 
L 242.653091 275.933254 
L 245.899636 275.93326 
L 249.146182 275.933268 
L 252.392727 275.933573 
L 255.639273 275.933923 
L 258.885818 275.934187 
L 262.132364 275.93421 
L 265.378909 275.933878 
L 268.625455 275.933584 
L 271.872 275.938633 
L 275.118545 275.959615 
L 278.365091 276.007473 
L 281.611636 276.093584 
L 284.858182 276.22208 
L 288.104727 276.382857 
L 291.351273 276.553605 
L 294.597818 276.710226 
L 297.844364 276.837719 
L 301.090909 276.932251 
L 304.337455 276.997535 
L 307.584 277.040394 
L 310.830545 277.067448 
L 314.077091 277.08412 
L 317.323636 277.09417 
L 320.570182 277.100142 
L 323.816727 277.103795 
L 327.063273 277.106082 
L 330.309818 277.107336 
L 333.556364 277.108211 
L 336.802909 277.108654 
L 340.049455 277.108956 
L 343.296 277.109181 
L 346.542545 277.10935 
L 349.789091 277.109478 
L 353.035636 277.109531 
L 356.282182 277.109577 
L 359.528727 277.109615 
L 362.775273 277.109645 
L 366.021818 277.109669 
L 369.268364 277.109686 
L 372.514909 277.109697 
L 375.761455 277.109701 
L 379.008 277.109726 
L 382.254545 277.109716 
L 385.501091 277.109706 
L 388.747636 277.109696 
L 391.994182 277.109686 
L 395.240727 277.109679 
L 398.487273 277.109671 
" clip-path="url(#pd62d345388)" style="fill: none; stroke: #ff7f0e; stroke-width: 1.5; stroke-linecap: square"/>
   </g>
   <g id="patch_27">
    <path d="M 57.6 307.584 
L 57.6 261.702621 
" style="fill: none; stroke: #000000; stroke-width: 0.8; stroke-linejoin: miter; stroke-linecap: square"/>
   </g>
   <g id="patch_28">
    <path d="M 414.72 307.584 
L 414.72 261.702621 
" style="fill: none; stroke: #000000; stroke-width: 0.8; stroke-linejoin: miter; stroke-linecap: square"/>
   </g>
   <g id="patch_29">
    <path d="M 57.6 307.584 
L 414.72 307.584 
" style="fill: none; stroke: #000000; stroke-width: 0.8; stroke-linejoin: miter; stroke-linecap: square"/>
   </g>
   <g id="patch_30">
    <path d="M 57.6 261.702621 
L 414.72 261.702621 
" style="fill: none; stroke: #000000; stroke-width: 0.8; stroke-linejoin: miter; stroke-linecap: square"/>
   </g>
   <g id="text_37">
    <!-- yC -->
    <g transform="translate(228.419062 255.702621)scale(0.12 -0.12)">
     <defs>
      <path id="DejaVuSans-43" d="M 4122 4306 
L 4122 3641 
Q 3803 3938 3442 4084 
Q 3081 4231 2675 4231 
Q 1875 4231 1450 3742 
Q 1025 3253 1025 2328 
Q 1025 1406 1450 917 
Q 1875 428 2675 428 
Q 3081 428 3442 575 
Q 3803 722 4122 1019 
L 4122 359 
Q 3791 134 3420 21 
Q 3050 -91 2638 -91 
Q 1578 -91 968 557 
Q 359 1206 359 2328 
Q 359 3453 968 4101 
Q 1578 4750 2638 4750 
Q 3056 4750 3426 4639 
Q 3797 4528 4122 4306 
z
" transform="scale(0.015625)"/>
     </defs>
     <use xlink:href="#DejaVuSans-79"/>
     <use xlink:href="#DejaVuSans-43" x="59.179688"/>
    </g>
   </g>
   <g id="legend_5">
    <g id="patch_31">
     <path d="M 64.6 299.058871 
L 142.43125 299.058871 
Q 144.43125 299.058871 144.43125 297.058871 
L 144.43125 268.702621 
Q 144.43125 266.702621 142.43125 266.702621 
L 64.6 266.702621 
Q 62.6 266.702621 62.6 268.702621 
L 62.6 297.058871 
Q 62.6 299.058871 64.6 299.058871 
z
" style="fill: #ffffff; opacity: 0.8; stroke: #cccccc; stroke-linejoin: miter"/>
    </g>
    <g id="line2d_63">
     <path d="M 66.6 274.801058 
L 76.6 274.801058 
L 86.6 274.801058 
" style="fill: none; stroke: #1f77b4; stroke-width: 1.5; stroke-linecap: square"/>
    </g>
    <g id="text_38">
     <!-- yC0 (in) -->
     <g transform="translate(94.6 278.301058)scale(0.1 -0.1)">
      <use xlink:href="#DejaVuSans-79"/>
      <use xlink:href="#DejaVuSans-43" x="59.179688"/>
      <use xlink:href="#DejaVuSans-30" x="129.003906"/>
      <use xlink:href="#DejaVuSans-20" x="192.626953"/>
      <use xlink:href="#DejaVuSans-28" x="224.414062"/>
      <use xlink:href="#DejaVuSans-69" x="263.427734"/>
      <use xlink:href="#DejaVuSans-6e" x="291.210938"/>
      <use xlink:href="#DejaVuSans-29" x="354.589844"/>
     </g>
    </g>
    <g id="line2d_64">
     <path d="M 66.6 289.479183 
L 76.6 289.479183 
L 86.6 289.479183 
" style="fill: none; stroke: #ff7f0e; stroke-width: 1.5; stroke-linecap: square"/>
    </g>
    <g id="text_39">
     <!-- yCL (out) -->
     <g transform="translate(94.6 292.979183)scale(0.1 -0.1)">
      <use xlink:href="#DejaVuSans-79"/>
      <use xlink:href="#DejaVuSans-43" x="59.179688"/>
      <use xlink:href="#DejaVuSans-4c" x="129.003906"/>
      <use xlink:href="#DejaVuSans-20" x="184.716797"/>
      <use xlink:href="#DejaVuSans-28" x="216.503906"/>
      <use xlink:href="#DejaVuSans-6f" x="255.517578"/>
      <use xlink:href="#DejaVuSans-75" x="316.699219"/>
      <use xlink:href="#DejaVuSans-74" x="380.078125"/>
      <use xlink:href="#DejaVuSans-29" x="419.287109"/>
     </g>
    </g>
   </g>
  </g>
 </g>
 <defs>
  <clipPath id="p083ab583e9">
   <rect x="57.6" y="41.472" width="357.12" height="45.881379"/>
  </clipPath>
  <clipPath id="p5c925235f5">
   <rect x="57.6" y="96.529655" width="357.12" height="45.881379"/>
  </clipPath>
  <clipPath id="p306ce2b659">
   <rect x="57.6" y="151.58731" width="357.12" height="45.881379"/>
  </clipPath>
  <clipPath id="p97a15890bd">
   <rect x="57.6" y="206.644966" width="357.12" height="45.881379"/>
  </clipPath>
  <clipPath id="pd62d345388">
   <rect x="57.6" y="261.702621" width="357.12" height="45.881379"/>
  </clipPath>
 </defs>
</svg>
