<?xml version="1.0" encoding="utf-8" standalone="no"?>
<!DOCTYPE svg PUBLIC "-//W3C//DTD SVG 1.1//EN"
  "http://www.w3.org/Graphics/SVG/1.1/DTD/svg11.dtd">
<svg xmlns:xlink="http://www.w3.org/1999/xlink" width="460.8pt" height="345.6pt" viewBox="0 0 460.8 345.6" xmlns="http://www.w3.org/2000/svg" version="1.1">
 <metadata>
  <rdf:RDF xmlns:dc="http://purl.org/dc/elements/1.1/" xmlns:cc="http://creativecommons.org/ns#" xmlns:rdf="http://www.w3.org/1999/02/22-rdf-syntax-ns#">
   <cc:Work>
    <dc:type rdf:resource="http://purl.org/dc/dcmitype/StillImage"/>
    <dc:date>2022-07-04T23:37:54.220682</dc:date>
    <dc:format>image/svg+xml</dc:format>
    <dc:creator>
     <cc:Agent>
      <dc:title>Matplotlib v3.5.2, https://matplotlib.org/</dc:title>
     </cc:Agent>
    </dc:creator>
   </cc:Work>
  </rdf:RDF>
 </metadata>
 <defs>
  <style type="text/css">*{stroke-linejoin: round; stroke-linecap: butt}</style>
 </defs>
 <g id="figure_1">
  <g id="patch_1">
   <path d="M 0 345.6 
L 460.8 345.6 
L 460.8 0 
L 0 0 
z
" style="fill: #ffffff"/>
  </g>
  <g id="axes_1">
   <g id="patch_2">
    <path d="M 57.6 87.353379 
L 414.72 87.353379 
L 414.72 41.472 
L 57.6 41.472 
z
" style="fill: #ffffff"/>
   </g>
   <g id="matplotlib.axis_1">
    <g id="xtick_1">
     <g id="line2d_1">
      <defs>
       <path id="meaed762734" d="M 0 0 
L 0 3.5 
" style="stroke: #000000; stroke-width: 0.8"/>
      </defs>
      <g>
       <use xlink:href="#meaed762734" x="73.832727" y="87.353379" style="stroke: #000000; stroke-width: 0.8"/>
      </g>
     </g>
    </g>
    <g id="xtick_2">
     <g id="line2d_2">
      <g>
       <use xlink:href="#meaed762734" x="138.763636" y="87.353379" style="stroke: #000000; stroke-width: 0.8"/>
      </g>
     </g>
    </g>
    <g id="xtick_3">
     <g id="line2d_3">
      <g>
       <use xlink:href="#meaed762734" x="203.694545" y="87.353379" style="stroke: #000000; stroke-width: 0.8"/>
      </g>
     </g>
    </g>
    <g id="xtick_4">
     <g id="line2d_4">
      <g>
       <use xlink:href="#meaed762734" x="268.625455" y="87.353379" style="stroke: #000000; stroke-width: 0.8"/>
      </g>
     </g>
    </g>
    <g id="xtick_5">
     <g id="line2d_5">
      <g>
       <use xlink:href="#meaed762734" x="333.556364" y="87.353379" style="stroke: #000000; stroke-width: 0.8"/>
      </g>
     </g>
    </g>
    <g id="xtick_6">
     <g id="line2d_6">
      <g>
       <use xlink:href="#meaed762734" x="398.487273" y="87.353379" style="stroke: #000000; stroke-width: 0.8"/>
      </g>
     </g>
    </g>
   </g>
   <g id="matplotlib.axis_2">
    <g id="ytick_1">
     <g id="line2d_7">
      <defs>
       <path id="m0abc5d1a39" d="M 0 0 
L -3.5 0 
" style="stroke: #000000; stroke-width: 0.8"/>
      </defs>
      <g>
       <use xlink:href="#m0abc5d1a39" x="57.6" y="79.357056" style="stroke: #000000; stroke-width: 0.8"/>
      </g>
     </g>
     <g id="text_1">
      <!-- 0 -->
      <g transform="translate(44.2375 83.156275)scale(0.1 -0.1)">
       <defs>
        <path id="DejaVuSans-30" d="M 2034 4250 
Q 1547 4250 1301 3770 
Q 1056 3291 1056 2328 
Q 1056 1369 1301 889 
Q 1547 409 2034 409 
Q 2525 409 2770 889 
Q 3016 1369 3016 2328 
Q 3016 3291 2770 3770 
Q 2525 4250 2034 4250 
z
M 2034 4750 
Q 2819 4750 3233 4129 
Q 3647 3509 3647 2328 
Q 3647 1150 3233 529 
Q 2819 -91 2034 -91 
Q 1250 -91 836 529 
Q 422 1150 422 2328 
Q 422 3509 836 4129 
Q 1250 4750 2034 4750 
z
" transform="scale(0.015625)"/>
       </defs>
       <use xlink:href="#DejaVuSans-30"/>
      </g>
     </g>
    </g>
    <g id="ytick_2">
     <g id="line2d_8">
      <g>
       <use xlink:href="#m0abc5d1a39" x="57.6" y="44.821494" style="stroke: #000000; stroke-width: 0.8"/>
      </g>
     </g>
     <g id="text_2">
      <!-- 1 -->
      <g transform="translate(44.2375 48.620713)scale(0.1 -0.1)">
       <defs>
        <path id="DejaVuSans-31" d="M 794 531 
L 1825 531 
L 1825 4091 
L 703 3866 
L 703 4441 
L 1819 4666 
L 2450 4666 
L 2450 531 
L 3481 531 
L 3481 0 
L 794 0 
L 794 531 
z
" transform="scale(0.015625)"/>
       </defs>
       <use xlink:href="#DejaVuSans-31"/>
      </g>
     </g>
    </g>
    <g id="text_3">
     <!-- flow rate (normalized) -->
     <g transform="translate(38.157812 119.729877)rotate(-90)scale(0.1 -0.1)">
      <defs>
       <path id="DejaVuSans-66" d="M 2375 4863 
L 2375 4384 
L 1825 4384 
Q 1516 4384 1395 4259 
Q 1275 4134 1275 3809 
L 1275 3500 
L 2222 3500 
L 2222 3053 
L 1275 3053 
L 1275 0 
L 697 0 
L 697 3053 
L 147 3053 
L 147 3500 
L 697 3500 
L 697 3744 
Q 697 4328 969 4595 
Q 1241 4863 1831 4863 
L 2375 4863 
z
" transform="scale(0.015625)"/>
       <path id="DejaVuSans-6c" d="M 603 4863 
L 1178 4863 
L 1178 0 
L 603 0 
L 603 4863 
z
" transform="scale(0.015625)"/>
       <path id="DejaVuSans-6f" d="M 1959 3097 
Q 1497 3097 1228 2736 
Q 959 2375 959 1747 
Q 959 1119 1226 758 
Q 1494 397 1959 397 
Q 2419 397 2687 759 
Q 2956 1122 2956 1747 
Q 2956 2369 2687 2733 
Q 2419 3097 1959 3097 
z
M 1959 3584 
Q 2709 3584 3137 3096 
Q 3566 2609 3566 1747 
Q 3566 888 3137 398 
Q 2709 -91 1959 -91 
Q 1206 -91 779 398 
Q 353 888 353 1747 
Q 353 2609 779 3096 
Q 1206 3584 1959 3584 
z
" transform="scale(0.015625)"/>
       <path id="DejaVuSans-77" d="M 269 3500 
L 844 3500 
L 1563 769 
L 2278 3500 
L 2956 3500 
L 3675 769 
L 4391 3500 
L 4966 3500 
L 4050 0 
L 3372 0 
L 2619 2869 
L 1863 0 
L 1184 0 
L 269 3500 
z
" transform="scale(0.015625)"/>
       <path id="DejaVuSans-20" transform="scale(0.015625)"/>
       <path id="DejaVuSans-72" d="M 2631 2963 
Q 2534 3019 2420 3045 
Q 2306 3072 2169 3072 
Q 1681 3072 1420 2755 
Q 1159 2438 1159 1844 
L 1159 0 
L 581 0 
L 581 3500 
L 1159 3500 
L 1159 2956 
Q 1341 3275 1631 3429 
Q 1922 3584 2338 3584 
Q 2397 3584 2469 3576 
Q 2541 3569 2628 3553 
L 2631 2963 
z
" transform="scale(0.015625)"/>
       <path id="DejaVuSans-61" d="M 2194 1759 
Q 1497 1759 1228 1600 
Q 959 1441 959 1056 
Q 959 750 1161 570 
Q 1363 391 1709 391 
Q 2188 391 2477 730 
Q 2766 1069 2766 1631 
L 2766 1759 
L 2194 1759 
z
M 3341 1997 
L 3341 0 
L 2766 0 
L 2766 531 
Q 2569 213 2275 61 
Q 1981 -91 1556 -91 
Q 1019 -91 701 211 
Q 384 513 384 1019 
Q 384 1609 779 1909 
Q 1175 2209 1959 2209 
L 2766 2209 
L 2766 2266 
Q 2766 2663 2505 2880 
Q 2244 3097 1772 3097 
Q 1472 3097 1187 3025 
Q 903 2953 641 2809 
L 641 3341 
Q 956 3463 1253 3523 
Q 1550 3584 1831 3584 
Q 2591 3584 2966 3190 
Q 3341 2797 3341 1997 
z
" transform="scale(0.015625)"/>
       <path id="DejaVuSans-74" d="M 1172 4494 
L 1172 3500 
L 2356 3500 
L 2356 3053 
L 1172 3053 
L 1172 1153 
Q 1172 725 1289 603 
Q 1406 481 1766 481 
L 2356 481 
L 2356 0 
L 1766 0 
Q 1100 0 847 248 
Q 594 497 594 1153 
L 594 3053 
L 172 3053 
L 172 3500 
L 594 3500 
L 594 4494 
L 1172 4494 
z
" transform="scale(0.015625)"/>
       <path id="DejaVuSans-65" d="M 3597 1894 
L 3597 1613 
L 953 1613 
Q 991 1019 1311 708 
Q 1631 397 2203 397 
Q 2534 397 2845 478 
Q 3156 559 3463 722 
L 3463 178 
Q 3153 47 2828 -22 
Q 2503 -91 2169 -91 
Q 1331 -91 842 396 
Q 353 884 353 1716 
Q 353 2575 817 3079 
Q 1281 3584 2069 3584 
Q 2775 3584 3186 3129 
Q 3597 2675 3597 1894 
z
M 3022 2063 
Q 3016 2534 2758 2815 
Q 2500 3097 2075 3097 
Q 1594 3097 1305 2825 
Q 1016 2553 972 2059 
L 3022 2063 
z
" transform="scale(0.015625)"/>
       <path id="DejaVuSans-28" d="M 1984 4856 
Q 1566 4138 1362 3434 
Q 1159 2731 1159 2009 
Q 1159 1288 1364 580 
Q 1569 -128 1984 -844 
L 1484 -844 
Q 1016 -109 783 600 
Q 550 1309 550 2009 
Q 550 2706 781 3412 
Q 1013 4119 1484 4856 
L 1984 4856 
z
" transform="scale(0.015625)"/>
       <path id="DejaVuSans-6e" d="M 3513 2113 
L 3513 0 
L 2938 0 
L 2938 2094 
Q 2938 2591 2744 2837 
Q 2550 3084 2163 3084 
Q 1697 3084 1428 2787 
Q 1159 2491 1159 1978 
L 1159 0 
L 581 0 
L 581 3500 
L 1159 3500 
L 1159 2956 
Q 1366 3272 1645 3428 
Q 1925 3584 2291 3584 
Q 2894 3584 3203 3211 
Q 3513 2838 3513 2113 
z
" transform="scale(0.015625)"/>
       <path id="DejaVuSans-6d" d="M 3328 2828 
Q 3544 3216 3844 3400 
Q 4144 3584 4550 3584 
Q 5097 3584 5394 3201 
Q 5691 2819 5691 2113 
L 5691 0 
L 5113 0 
L 5113 2094 
Q 5113 2597 4934 2840 
Q 4756 3084 4391 3084 
Q 3944 3084 3684 2787 
Q 3425 2491 3425 1978 
L 3425 0 
L 2847 0 
L 2847 2094 
Q 2847 2600 2669 2842 
Q 2491 3084 2119 3084 
Q 1678 3084 1418 2786 
Q 1159 2488 1159 1978 
L 1159 0 
L 581 0 
L 581 3500 
L 1159 3500 
L 1159 2956 
Q 1356 3278 1631 3431 
Q 1906 3584 2284 3584 
Q 2666 3584 2933 3390 
Q 3200 3197 3328 2828 
z
" transform="scale(0.015625)"/>
       <path id="DejaVuSans-69" d="M 603 3500 
L 1178 3500 
L 1178 0 
L 603 0 
L 603 3500 
z
M 603 4863 
L 1178 4863 
L 1178 4134 
L 603 4134 
L 603 4863 
z
" transform="scale(0.015625)"/>
       <path id="DejaVuSans-7a" d="M 353 3500 
L 3084 3500 
L 3084 2975 
L 922 459 
L 3084 459 
L 3084 0 
L 275 0 
L 275 525 
L 2438 3041 
L 353 3041 
L 353 3500 
z
" transform="scale(0.015625)"/>
       <path id="DejaVuSans-64" d="M 2906 2969 
L 2906 4863 
L 3481 4863 
L 3481 0 
L 2906 0 
L 2906 525 
Q 2725 213 2448 61 
Q 2172 -91 1784 -91 
Q 1150 -91 751 415 
Q 353 922 353 1747 
Q 353 2572 751 3078 
Q 1150 3584 1784 3584 
Q 2172 3584 2448 3432 
Q 2725 3281 2906 2969 
z
M 947 1747 
Q 947 1113 1208 752 
Q 1469 391 1925 391 
Q 2381 391 2643 752 
Q 2906 1113 2906 1747 
Q 2906 2381 2643 2742 
Q 2381 3103 1925 3103 
Q 1469 3103 1208 2742 
Q 947 2381 947 1747 
z
" transform="scale(0.015625)"/>
       <path id="DejaVuSans-29" d="M 513 4856 
L 1013 4856 
Q 1481 4119 1714 3412 
Q 1947 2706 1947 2009 
Q 1947 1309 1714 600 
Q 1481 -109 1013 -844 
L 513 -844 
Q 928 -128 1133 580 
Q 1338 1288 1338 2009 
Q 1338 2731 1133 3434 
Q 928 4138 513 4856 
z
" transform="scale(0.015625)"/>
      </defs>
      <use xlink:href="#DejaVuSans-66"/>
      <use xlink:href="#DejaVuSans-6c" x="35.205078"/>
      <use xlink:href="#DejaVuSans-6f" x="62.988281"/>
      <use xlink:href="#DejaVuSans-77" x="124.169922"/>
      <use xlink:href="#DejaVuSans-20" x="205.957031"/>
      <use xlink:href="#DejaVuSans-72" x="237.744141"/>
      <use xlink:href="#DejaVuSans-61" x="278.857422"/>
      <use xlink:href="#DejaVuSans-74" x="340.136719"/>
      <use xlink:href="#DejaVuSans-65" x="379.345703"/>
      <use xlink:href="#DejaVuSans-20" x="440.869141"/>
      <use xlink:href="#DejaVuSans-28" x="472.65625"/>
      <use xlink:href="#DejaVuSans-6e" x="511.669922"/>
      <use xlink:href="#DejaVuSans-6f" x="575.048828"/>
      <use xlink:href="#DejaVuSans-72" x="636.230469"/>
      <use xlink:href="#DejaVuSans-6d" x="675.59375"/>
      <use xlink:href="#DejaVuSans-61" x="773.005859"/>
      <use xlink:href="#DejaVuSans-6c" x="834.285156"/>
      <use xlink:href="#DejaVuSans-69" x="862.068359"/>
      <use xlink:href="#DejaVuSans-7a" x="889.851562"/>
      <use xlink:href="#DejaVuSans-65" x="942.341797"/>
      <use xlink:href="#DejaVuSans-64" x="1003.865234"/>
      <use xlink:href="#DejaVuSans-29" x="1067.341797"/>
     </g>
    </g>
   </g>
   <g id="line2d_9">
    <path d="M 73.832727 79.357083 
L 77.079273 72.541174 
L 80.325818 76.318535 
L 83.572364 77.775141 
L 86.818909 78.48218 
L 90.065455 78.819471 
L 93.312 79.010199 
L 96.558545 79.243148 
L 99.805091 79.248779 
L 103.051636 79.295679 
L 106.298182 79.322377 
L 109.544727 79.335946 
L 112.791273 79.34259 
L 116.037818 79.352145 
L 119.284364 79.351911 
L 122.530909 79.352219 
L 125.777455 44.136175 
L 129.024 44.13617 
L 132.270545 44.13617 
L 135.517091 44.136171 
L 138.763636 44.136171 
L 142.010182 44.136171 
L 145.256727 44.136171 
L 148.503273 44.136171 
L 151.749818 44.136172 
L 154.996364 44.136172 
L 158.242909 44.136172 
L 161.489455 44.136172 
L 164.736 44.136172 
L 167.982545 44.136172 
L 171.229091 44.13683 
L 174.475636 75.762671 
L 177.722182 76.801917 
L 180.968727 77.520821 
L 184.215273 78.351427 
L 187.461818 78.415232 
L 190.708364 79.101878 
L 193.954909 79.061135 
L 197.201455 79.189594 
L 200.448 79.258951 
L 203.694545 79.296094 
L 206.941091 79.321034 
L 210.187636 79.350059 
L 213.434182 79.330228 
L 216.680727 79.344875 
L 219.927273 79.349398 
L 223.173818 79.351759 
L 226.420364 79.352972 
L 229.666909 79.354186 
L 232.913455 79.355246 
L 236.16 79.355732 
L 239.406545 79.356218 
L 242.653091 79.356641 
L 245.899636 79.356692 
L 249.146182 79.356743 
L 252.392727 79.356794 
L 255.639273 79.356845 
L 258.885818 79.356896 
L 262.132364 79.356946 
L 265.378909 79.356997 
L 268.625455 79.563485 
L 271.872 82.300733 
L 275.118545 81.466385 
L 278.365091 80.813689 
L 281.611636 80.302807 
L 284.858182 79.975041 
L 288.104727 79.732016 
L 291.351273 79.598253 
L 294.597818 79.504119 
L 297.844364 79.446266 
L 301.090909 79.415008 
L 304.337455 79.392302 
L 307.584 79.377872 
L 310.830545 79.37002 
L 314.077091 79.366278 
L 317.323636 79.363853 
L 320.570182 79.360764 
L 323.816727 79.359199 
L 327.063273 79.358301 
L 330.309818 79.357837 
L 333.556364 79.357433 
L 336.802909 79.357217 
L 340.049455 79.357187 
L 343.296 79.357108 
L 346.542545 79.357027 
L 349.789091 79.35699 
L 353.035636 79.35688 
L 356.282182 79.356935 
L 359.528727 79.356989 
L 362.775273 79.35704 
L 366.021818 79.357041 
L 369.268364 79.357043 
L 372.514909 79.357044 
L 375.761455 79.357046 
L 379.008 79.357047 
L 382.254545 79.357049 
L 385.501091 79.35705 
L 388.747636 79.357052 
L 391.994182 79.357054 
L 395.240727 79.357055 
L 398.487273 79.357057 
" clip-path="url(#pfeeb0b4013)" style="fill: none; stroke: #1f77b4; stroke-width: 1.5; stroke-linecap: square"/>
   </g>
   <g id="line2d_10">
    <path d="M 73.832727 79.357111 
L 77.079273 65.961479 
L 80.325818 73.32364 
L 83.572364 76.206515 
L 86.818909 77.612415 
L 90.065455 78.283163 
L 93.312 78.661055 
L 96.558545 79.139223 
L 99.805091 79.14034 
L 103.051636 79.234516 
L 106.298182 79.288443 
L 109.544727 79.314704 
L 112.791273 79.328666 
L 116.037818 79.347241 
L 119.284364 79.346725 
L 122.530909 75.423989 
L 125.777455 44.726021 
L 129.024 44.726021 
L 132.270545 44.726021 
L 135.517091 44.726021 
L 138.763636 44.726021 
L 142.010182 44.726021 
L 145.256727 44.726022 
L 148.503273 44.726022 
L 151.749818 44.726022 
L 154.996364 44.726022 
L 158.242909 44.726022 
L 161.489455 44.726022 
L 164.736 44.726022 
L 167.982545 44.726022 
L 171.229091 45.868156 
L 174.475636 78.703973 
L 177.722182 78.89259 
L 180.968727 79.022869 
L 184.215273 79.173872 
L 187.461818 79.186495 
L 190.708364 79.308548 
L 193.954909 79.30324 
L 197.201455 79.326481 
L 200.448 79.33921 
L 203.694545 79.345962 
L 206.941091 79.350515 
L 210.187636 79.355721 
L 213.434182 79.352249 
L 216.680727 79.354842 
L 219.927273 79.355658 
L 223.173818 79.356091 
L 226.420364 79.356312 
L 229.666909 79.356533 
L 232.913455 79.356726 
L 236.16 79.356815 
L 239.406545 79.356903 
L 242.653091 79.35698 
L 245.899636 79.35699 
L 249.146182 79.356999 
L 252.392727 79.357008 
L 255.639273 79.357017 
L 258.885818 79.357027 
L 262.132364 79.357036 
L 265.378909 79.357045 
L 268.625455 79.885074 
L 271.872 85.267862 
L 275.118545 83.581621 
L 278.365091 82.261965 
L 281.611636 81.243773 
L 284.858182 80.586512 
L 288.104727 80.102189 
L 291.351273 79.83699 
L 294.597818 79.648732 
L 297.844364 79.53454 
L 301.090909 79.472271 
L 304.337455 79.426798 
L 307.584 79.398381 
L 310.830545 79.382874 
L 314.077091 79.375458 
L 317.323636 79.370571 
L 320.570182 79.36433 
L 323.816727 79.361265 
L 327.063273 79.35955 
L 330.309818 79.35862 
L 333.556364 79.357871 
L 336.802909 79.357443 
L 340.049455 79.357338 
L 343.296 79.357164 
L 346.542545 79.357002 
L 349.789091 79.356926 
L 353.035636 79.356702 
L 356.282182 79.356813 
L 359.528727 79.356924 
L 362.775273 79.357025 
L 366.021818 79.357028 
L 369.268364 79.357031 
L 372.514909 79.357034 
L 375.761455 79.357037 
L 379.008 79.35704 
L 382.254545 79.357043 
L 385.501091 79.357046 
L 388.747636 79.357048 
L 391.994182 79.357051 
L 395.240727 79.357054 
L 398.487273 79.357057 
" clip-path="url(#pfeeb0b4013)" style="fill: none; stroke: #ff7f0e; stroke-width: 1.5; stroke-linecap: square"/>
   </g>
   <g id="line2d_11">
    <path d="M 73.832727 79.357059 
L 77.079273 78.595218 
L 80.325818 79.018622 
L 83.572364 79.181038 
L 86.818909 79.259753 
L 90.065455 79.2973 
L 93.312 79.318556 
L 96.558545 79.344221 
L 99.805091 79.345028 
L 103.051636 79.350232 
L 106.298182 79.35319 
L 109.544727 79.354713 
L 112.791273 79.355439 
L 116.037818 79.35651 
L 119.284364 79.356485 
L 122.530909 80.639233 
L 125.777455 43.585775 
L 129.024 43.585765 
L 132.270545 43.585766 
L 135.517091 43.585766 
L 138.763636 43.585766 
L 142.010182 43.585767 
L 145.256727 43.585767 
L 148.503273 43.585767 
L 151.749818 43.585767 
L 154.996364 43.585767 
L 158.242909 43.585767 
L 161.489455 43.585767 
L 164.736 43.585767 
L 167.982545 43.585767 
L 171.229091 43.557517 
L 174.475636 73.139313 
L 177.722182 74.941118 
L 180.968727 76.191728 
L 184.215273 77.626411 
L 187.461818 77.717106 
L 190.708364 78.957837 
L 193.954909 78.846041 
L 197.201455 79.07037 
L 200.448 79.187763 
L 203.694545 79.251945 
L 206.941091 79.294656 
L 210.187636 79.346233 
L 213.434182 79.309293 
L 216.680727 79.336005 
L 219.927273 79.343934 
L 223.173818 79.347937 
L 226.420364 79.350028 
L 229.666909 79.352118 
L 232.913455 79.353945 
L 236.16 79.354781 
L 239.406545 79.355617 
L 242.653091 79.356346 
L 245.899636 79.356433 
L 249.146182 79.35652 
L 252.392727 79.356607 
L 255.639273 79.356694 
L 258.885818 79.356781 
L 262.132364 79.356869 
L 265.378909 79.356956 
L 268.625455 79.378096 
L 271.872 79.683749 
L 275.118545 79.591348 
L 278.365091 79.519066 
L 281.611636 79.462232 
L 284.858182 79.425843 
L 288.104727 79.398806 
L 291.351273 79.383901 
L 294.597818 79.373442 
L 297.844364 79.366986 
L 301.090909 79.363508 
L 304.337455 79.360986 
L 307.584 79.359375 
L 310.830545 79.358498 
L 314.077091 79.358081 
L 317.323636 79.357813 
L 320.570182 79.35747 
L 323.816727 79.357295 
L 327.063273 79.357194 
L 330.309818 79.357143 
L 333.556364 79.357097 
L 336.802909 79.357073 
L 340.049455 79.35707 
L 343.296 79.357062 
L 346.542545 79.357053 
L 349.789091 79.357049 
L 353.035636 79.357036 
L 356.282182 79.357042 
L 359.528727 79.357049 
L 362.775273 79.357054 
L 366.021818 79.357054 
L 369.268364 79.357054 
L 372.514909 79.357055 
L 375.761455 79.357055 
L 379.008 79.357055 
L 382.254545 79.357055 
L 385.501091 79.357055 
L 388.747636 79.357056 
L 391.994182 79.357056 
L 395.240727 79.357056 
L 398.487273 79.357056 
" clip-path="url(#pfeeb0b4013)" style="fill: none; stroke: #2ca02c; stroke-width: 1.5; stroke-linecap: square"/>
   </g>
   <g id="patch_3">
    <path d="M 57.6 87.353379 
L 57.6 41.472 
" style="fill: none; stroke: #000000; stroke-width: 0.8; stroke-linejoin: miter; stroke-linecap: square"/>
   </g>
   <g id="patch_4">
    <path d="M 414.72 87.353379 
L 414.72 41.472 
" style="fill: none; stroke: #000000; stroke-width: 0.8; stroke-linejoin: miter; stroke-linecap: square"/>
   </g>
   <g id="patch_5">
    <path d="M 57.6 87.353379 
L 414.72 87.353379 
" style="fill: none; stroke: #000000; stroke-width: 0.8; stroke-linejoin: miter; stroke-linecap: square"/>
   </g>
   <g id="patch_6">
    <path d="M 57.6 41.472 
L 414.72 41.472 
" style="fill: none; stroke: #000000; stroke-width: 0.8; stroke-linejoin: miter; stroke-linecap: square"/>
   </g>
   <g id="text_4">
    <!-- velocity vs time (container 1)   -->
    <g transform="translate(144.106875 35.472)scale(0.12 -0.12)">
     <defs>
      <path id="DejaVuSans-76" d="M 191 3500 
L 800 3500 
L 1894 563 
L 2988 3500 
L 3597 3500 
L 2284 0 
L 1503 0 
L 191 3500 
z
" transform="scale(0.015625)"/>
      <path id="DejaVuSans-63" d="M 3122 3366 
L 3122 2828 
Q 2878 2963 2633 3030 
Q 2388 3097 2138 3097 
Q 1578 3097 1268 2742 
Q 959 2388 959 1747 
Q 959 1106 1268 751 
Q 1578 397 2138 397 
Q 2388 397 2633 464 
Q 2878 531 3122 666 
L 3122 134 
Q 2881 22 2623 -34 
Q 2366 -91 2075 -91 
Q 1284 -91 818 406 
Q 353 903 353 1747 
Q 353 2603 823 3093 
Q 1294 3584 2113 3584 
Q 2378 3584 2631 3529 
Q 2884 3475 3122 3366 
z
" transform="scale(0.015625)"/>
      <path id="DejaVuSans-79" d="M 2059 -325 
Q 1816 -950 1584 -1140 
Q 1353 -1331 966 -1331 
L 506 -1331 
L 506 -850 
L 844 -850 
Q 1081 -850 1212 -737 
Q 1344 -625 1503 -206 
L 1606 56 
L 191 3500 
L 800 3500 
L 1894 763 
L 2988 3500 
L 3597 3500 
L 2059 -325 
z
" transform="scale(0.015625)"/>
      <path id="DejaVuSans-73" d="M 2834 3397 
L 2834 2853 
Q 2591 2978 2328 3040 
Q 2066 3103 1784 3103 
Q 1356 3103 1142 2972 
Q 928 2841 928 2578 
Q 928 2378 1081 2264 
Q 1234 2150 1697 2047 
L 1894 2003 
Q 2506 1872 2764 1633 
Q 3022 1394 3022 966 
Q 3022 478 2636 193 
Q 2250 -91 1575 -91 
Q 1294 -91 989 -36 
Q 684 19 347 128 
L 347 722 
Q 666 556 975 473 
Q 1284 391 1588 391 
Q 1994 391 2212 530 
Q 2431 669 2431 922 
Q 2431 1156 2273 1281 
Q 2116 1406 1581 1522 
L 1381 1569 
Q 847 1681 609 1914 
Q 372 2147 372 2553 
Q 372 3047 722 3315 
Q 1072 3584 1716 3584 
Q 2034 3584 2315 3537 
Q 2597 3491 2834 3397 
z
" transform="scale(0.015625)"/>
     </defs>
     <use xlink:href="#DejaVuSans-76"/>
     <use xlink:href="#DejaVuSans-65" x="59.179688"/>
     <use xlink:href="#DejaVuSans-6c" x="120.703125"/>
     <use xlink:href="#DejaVuSans-6f" x="148.486328"/>
     <use xlink:href="#DejaVuSans-63" x="209.667969"/>
     <use xlink:href="#DejaVuSans-69" x="264.648438"/>
     <use xlink:href="#DejaVuSans-74" x="292.431641"/>
     <use xlink:href="#DejaVuSans-79" x="331.640625"/>
     <use xlink:href="#DejaVuSans-20" x="390.820312"/>
     <use xlink:href="#DejaVuSans-76" x="422.607422"/>
     <use xlink:href="#DejaVuSans-73" x="481.787109"/>
     <use xlink:href="#DejaVuSans-20" x="533.886719"/>
     <use xlink:href="#DejaVuSans-74" x="565.673828"/>
     <use xlink:href="#DejaVuSans-69" x="604.882812"/>
     <use xlink:href="#DejaVuSans-6d" x="632.666016"/>
     <use xlink:href="#DejaVuSans-65" x="730.078125"/>
     <use xlink:href="#DejaVuSans-20" x="791.601562"/>
     <use xlink:href="#DejaVuSans-28" x="823.388672"/>
     <use xlink:href="#DejaVuSans-63" x="862.402344"/>
     <use xlink:href="#DejaVuSans-6f" x="917.382812"/>
     <use xlink:href="#DejaVuSans-6e" x="978.564453"/>
     <use xlink:href="#DejaVuSans-74" x="1041.943359"/>
     <use xlink:href="#DejaVuSans-61" x="1081.152344"/>
     <use xlink:href="#DejaVuSans-69" x="1142.431641"/>
     <use xlink:href="#DejaVuSans-6e" x="1170.214844"/>
     <use xlink:href="#DejaVuSans-65" x="1233.59375"/>
     <use xlink:href="#DejaVuSans-72" x="1295.117188"/>
     <use xlink:href="#DejaVuSans-20" x="1336.230469"/>
     <use xlink:href="#DejaVuSans-31" x="1368.017578"/>
     <use xlink:href="#DejaVuSans-29" x="1431.640625"/>
     <use xlink:href="#DejaVuSans-20" x="1470.654297"/>
     <use xlink:href="#DejaVuSans-20" x="1502.441406"/>
    </g>
   </g>
   <g id="legend_1">
    <g id="patch_7">
     <path d="M 64.6 93.506375 
L 139.240625 93.506375 
Q 141.240625 93.506375 141.240625 91.506375 
L 141.240625 48.472 
Q 141.240625 46.472 139.240625 46.472 
L 64.6 46.472 
Q 62.6 46.472 62.6 48.472 
L 62.6 91.506375 
Q 62.6 93.506375 64.6 93.506375 
z
" style="fill: #ffffff; opacity: 0.8; stroke: #cccccc; stroke-linejoin: miter"/>
    </g>
    <g id="line2d_12">
     <path d="M 66.6 54.570437 
L 76.6 54.570437 
L 86.6 54.570437 
" style="fill: none; stroke: #1f77b4; stroke-width: 1.5; stroke-linecap: square"/>
    </g>
    <g id="text_5">
     <!-- mid flow -->
     <g transform="translate(94.6 58.070437)scale(0.1 -0.1)">
      <use xlink:href="#DejaVuSans-6d"/>
      <use xlink:href="#DejaVuSans-69" x="97.412109"/>
      <use xlink:href="#DejaVuSans-64" x="125.195312"/>
      <use xlink:href="#DejaVuSans-20" x="188.671875"/>
      <use xlink:href="#DejaVuSans-66" x="220.458984"/>
      <use xlink:href="#DejaVuSans-6c" x="255.664062"/>
      <use xlink:href="#DejaVuSans-6f" x="283.447266"/>
      <use xlink:href="#DejaVuSans-77" x="344.628906"/>
     </g>
    </g>
    <g id="line2d_13">
     <path d="M 66.6 69.248562 
L 76.6 69.248562 
L 86.6 69.248562 
" style="fill: none; stroke: #ff7f0e; stroke-width: 1.5; stroke-linecap: square"/>
    </g>
    <g id="text_6">
     <!-- v0 flow -->
     <g transform="translate(94.6 72.748562)scale(0.1 -0.1)">
      <use xlink:href="#DejaVuSans-76"/>
      <use xlink:href="#DejaVuSans-30" x="59.179688"/>
      <use xlink:href="#DejaVuSans-20" x="122.802734"/>
      <use xlink:href="#DejaVuSans-66" x="154.589844"/>
      <use xlink:href="#DejaVuSans-6c" x="189.794922"/>
      <use xlink:href="#DejaVuSans-6f" x="217.578125"/>
      <use xlink:href="#DejaVuSans-77" x="278.759766"/>
     </g>
    </g>
    <g id="line2d_14">
     <path d="M 66.6 83.926687 
L 76.6 83.926687 
L 86.6 83.926687 
" style="fill: none; stroke: #2ca02c; stroke-width: 1.5; stroke-linecap: square"/>
    </g>
    <g id="text_7">
     <!-- vN flow -->
     <g transform="translate(94.6 87.426687)scale(0.1 -0.1)">
      <defs>
       <path id="DejaVuSans-4e" d="M 628 4666 
L 1478 4666 
L 3547 763 
L 3547 4666 
L 4159 4666 
L 4159 0 
L 3309 0 
L 1241 3903 
L 1241 0 
L 628 0 
L 628 4666 
z
" transform="scale(0.015625)"/>
      </defs>
      <use xlink:href="#DejaVuSans-76"/>
      <use xlink:href="#DejaVuSans-4e" x="59.179688"/>
      <use xlink:href="#DejaVuSans-20" x="133.984375"/>
      <use xlink:href="#DejaVuSans-66" x="165.771484"/>
      <use xlink:href="#DejaVuSans-6c" x="200.976562"/>
      <use xlink:href="#DejaVuSans-6f" x="228.759766"/>
      <use xlink:href="#DejaVuSans-77" x="289.941406"/>
     </g>
    </g>
   </g>
  </g>
  <g id="axes_2">
   <g id="patch_8">
    <path d="M 57.6 142.411034 
L 414.72 142.411034 
L 414.72 96.529655 
L 57.6 96.529655 
z
" style="fill: #ffffff"/>
   </g>
   <g id="matplotlib.axis_3">
    <g id="xtick_7">
     <g id="line2d_15">
      <g>
       <use xlink:href="#meaed762734" x="73.832727" y="142.411034" style="stroke: #000000; stroke-width: 0.8"/>
      </g>
     </g>
    </g>
    <g id="xtick_8">
     <g id="line2d_16">
      <g>
       <use xlink:href="#meaed762734" x="138.763636" y="142.411034" style="stroke: #000000; stroke-width: 0.8"/>
      </g>
     </g>
    </g>
    <g id="xtick_9">
     <g id="line2d_17">
      <g>
       <use xlink:href="#meaed762734" x="203.694545" y="142.411034" style="stroke: #000000; stroke-width: 0.8"/>
      </g>
     </g>
    </g>
    <g id="xtick_10">
     <g id="line2d_18">
      <g>
       <use xlink:href="#meaed762734" x="268.625455" y="142.411034" style="stroke: #000000; stroke-width: 0.8"/>
      </g>
     </g>
    </g>
    <g id="xtick_11">
     <g id="line2d_19">
      <g>
       <use xlink:href="#meaed762734" x="333.556364" y="142.411034" style="stroke: #000000; stroke-width: 0.8"/>
      </g>
     </g>
    </g>
    <g id="xtick_12">
     <g id="line2d_20">
      <g>
       <use xlink:href="#meaed762734" x="398.487273" y="142.411034" style="stroke: #000000; stroke-width: 0.8"/>
      </g>
     </g>
    </g>
   </g>
   <g id="matplotlib.axis_4">
    <g id="ytick_3">
     <g id="line2d_21">
      <g>
       <use xlink:href="#m0abc5d1a39" x="57.6" y="127.090852" style="stroke: #000000; stroke-width: 0.8"/>
      </g>
     </g>
     <g id="text_8">
      <!-- 0.5 -->
      <g transform="translate(34.696875 130.890071)scale(0.1 -0.1)">
       <defs>
        <path id="DejaVuSans-2e" d="M 684 794 
L 1344 794 
L 1344 0 
L 684 0 
L 684 794 
z
" transform="scale(0.015625)"/>
        <path id="DejaVuSans-35" d="M 691 4666 
L 3169 4666 
L 3169 4134 
L 1269 4134 
L 1269 2991 
Q 1406 3038 1543 3061 
Q 1681 3084 1819 3084 
Q 2600 3084 3056 2656 
Q 3513 2228 3513 1497 
Q 3513 744 3044 326 
Q 2575 -91 1722 -91 
Q 1428 -91 1123 -41 
Q 819 9 494 109 
L 494 744 
Q 775 591 1075 516 
Q 1375 441 1709 441 
Q 2250 441 2565 725 
Q 2881 1009 2881 1497 
Q 2881 1984 2565 2268 
Q 2250 2553 1709 2553 
Q 1456 2553 1204 2497 
Q 953 2441 691 2322 
L 691 4666 
z
" transform="scale(0.015625)"/>
       </defs>
       <use xlink:href="#DejaVuSans-30"/>
       <use xlink:href="#DejaVuSans-2e" x="63.623047"/>
       <use xlink:href="#DejaVuSans-35" x="95.410156"/>
      </g>
     </g>
    </g>
    <g id="ytick_4">
     <g id="line2d_22">
      <g>
       <use xlink:href="#m0abc5d1a39" x="57.6" y="100.621593" style="stroke: #000000; stroke-width: 0.8"/>
      </g>
     </g>
     <g id="text_9">
      <!-- 1.0 -->
      <g transform="translate(34.696875 104.420812)scale(0.1 -0.1)">
       <use xlink:href="#DejaVuSans-31"/>
       <use xlink:href="#DejaVuSans-2e" x="63.623047"/>
       <use xlink:href="#DejaVuSans-30" x="95.410156"/>
      </g>
     </g>
    </g>
   </g>
   <g id="line2d_23">
    <path d="M 73.832727 140.325474 
L 77.079273 124.72523 
L 80.325818 115.238603 
L 83.572364 109.485528 
L 86.818909 105.995966 
L 90.065455 103.872739 
L 93.312 102.599144 
L 96.558545 101.829936 
L 99.805091 101.346792 
L 103.051636 101.060726 
L 106.298182 100.882181 
L 109.544727 100.779853 
L 112.791273 100.715107 
L 116.037818 100.681148 
L 119.284364 100.657449 
L 122.530909 100.597539 
L 125.777455 98.615173 
L 129.024 98.615172 
L 132.270545 98.615172 
L 135.517091 98.615172 
L 138.763636 98.615172 
L 142.010182 98.615172 
L 145.256727 98.615172 
L 148.503273 98.615172 
L 151.749818 98.615172 
L 154.996364 98.615173 
L 158.242909 98.615173 
L 161.489455 98.615173 
L 164.736 98.615173 
L 167.982545 98.615173 
L 171.229091 98.628726 
L 174.475636 110.845215 
L 177.722182 117.212527 
L 180.968727 121.116527 
L 184.215273 123.451189 
L 187.461818 124.88258 
L 190.708364 125.77278 
L 193.954909 126.274567 
L 197.201455 126.599882 
L 200.448 126.7919 
L 203.694545 126.911447 
L 206.941091 126.986294 
L 210.187636 127.028575 
L 213.434182 127.051729 
L 216.680727 127.065826 
L 219.927273 127.074638 
L 223.173818 127.081098 
L 226.420364 127.083769 
L 229.666909 127.08644 
L 232.913455 127.088674 
L 236.16 127.089262 
L 239.406545 127.089851 
L 242.653091 127.090365 
L 245.899636 127.09043 
L 249.146182 127.090496 
L 252.392727 127.090561 
L 255.639273 127.090627 
L 258.885818 127.090692 
L 262.132364 127.090758 
L 265.378909 127.090823 
L 268.625455 127.114526 
L 271.872 132.288354 
L 275.118545 135.447715 
L 278.365091 137.368625 
L 281.611636 138.531955 
L 284.858182 139.237785 
L 288.104727 139.665395 
L 291.351273 139.924594 
L 294.597818 140.082757 
L 297.844364 140.177765 
L 301.090909 140.235813 
L 304.337455 140.271166 
L 307.584 140.29254 
L 310.830545 140.305256 
L 314.077091 140.313142 
L 317.323636 140.317914 
L 320.570182 140.320994 
L 323.816727 140.32271 
L 327.063273 140.32385 
L 330.309818 140.32447 
L 333.556364 140.324807 
L 336.802909 140.325069 
L 340.049455 140.325253 
L 343.296 140.325384 
L 346.542545 140.325457 
L 349.789091 140.325467 
L 353.035636 140.325506 
L 356.282182 140.325496 
L 359.528727 140.325485 
L 362.775273 140.325475 
L 366.021818 140.325476 
L 369.268364 140.325476 
L 372.514909 140.325477 
L 375.761455 140.325477 
L 379.008 140.325478 
L 382.254545 140.325479 
L 385.501091 140.325479 
L 388.747636 140.32548 
L 391.994182 140.325481 
L 395.240727 140.325481 
L 398.487273 140.325482 
" clip-path="url(#p54a99ae6da)" style="fill: none; stroke: #1f77b4; stroke-width: 1.5; stroke-linecap: square"/>
   </g>
   <g id="line2d_24">
    <path d="M 73.832727 140.325473 
L 77.079273 125.042912 
L 80.325818 115.381138 
L 83.572364 109.559876 
L 86.818909 106.037117 
L 90.065455 103.898053 
L 93.312 102.615523 
L 96.558545 101.835155 
L 99.805091 101.351896 
L 103.051636 101.063615 
L 106.298182 100.883805 
L 109.544727 100.78085 
L 112.791273 100.71578 
L 116.037818 100.681379 
L 119.284364 100.657692 
L 122.530909 100.643682 
L 125.777455 99.634759 
L 129.024 99.634758 
L 132.270545 99.634758 
L 135.517091 99.634758 
L 138.763636 99.634758 
L 142.010182 99.634758 
L 145.256727 99.634758 
L 148.503273 99.634758 
L 151.749818 99.634758 
L 154.996364 99.634758 
L 158.242909 99.634758 
L 161.489455 99.634759 
L 164.736 99.634759 
L 167.982545 99.634759 
L 171.229091 99.634762 
L 174.475636 110.897761 
L 177.722182 117.24989 
L 180.968727 121.143396 
L 184.215273 123.465911 
L 187.461818 124.896323 
L 190.708364 125.776608 
L 193.954909 126.278895 
L 197.201455 126.602337 
L 200.448 126.793335 
L 203.694545 126.912339 
L 206.941091 126.986821 
L 210.187636 127.02868 
L 213.434182 127.052118 
L 216.680727 127.066004 
L 219.927273 127.07475 
L 223.173818 127.081176 
L 226.420364 127.083829 
L 229.666909 127.086482 
L 232.913455 127.0887 
L 236.16 127.089282 
L 239.406545 127.089863 
L 242.653091 127.090371 
L 245.899636 127.090436 
L 249.146182 127.0905 
L 252.392727 127.090565 
L 255.639273 127.09063 
L 258.885818 127.090695 
L 262.132364 127.090759 
L 265.378909 127.090824 
L 268.625455 127.103103 
L 271.872 132.149288 
L 275.118545 135.348228 
L 278.365091 137.300108 
L 281.611636 138.487459 
L 284.858182 139.20876 
L 288.104727 139.647797 
L 291.351273 139.913264 
L 294.597818 140.075864 
L 297.844364 140.173575 
L 301.090909 140.233093 
L 304.337455 140.269516 
L 307.584 140.291563 
L 310.830545 140.304647 
L 314.077091 140.312708 
L 317.323636 140.317595 
L 320.570182 140.320821 
L 323.816727 140.32261 
L 327.063273 140.323792 
L 330.309818 140.324433 
L 333.556364 140.324789 
L 336.802909 140.32506 
L 340.049455 140.325247 
L 343.296 140.325382 
L 346.542545 140.325458 
L 349.789091 140.32547 
L 353.035636 140.325515 
L 356.282182 140.325501 
L 359.528727 140.325488 
L 362.775273 140.325476 
L 366.021818 140.325476 
L 369.268364 140.325477 
L 372.514909 140.325477 
L 375.761455 140.325478 
L 379.008 140.325478 
L 382.254545 140.325479 
L 385.501091 140.32548 
L 388.747636 140.32548 
L 391.994182 140.325481 
L 395.240727 140.325481 
L 398.487273 140.325482 
" clip-path="url(#p54a99ae6da)" style="fill: none; stroke: #ff7f0e; stroke-width: 1.5; stroke-linecap: square"/>
   </g>
   <g id="line2d_25">
    <path d="M 73.832727 140.325472 
L 77.079273 125.142853 
L 80.325818 115.425624 
L 83.572364 109.583025 
L 86.818909 106.049918 
L 90.065455 103.905916 
L 93.312 102.620593 
L 96.558545 101.836832 
L 99.805091 101.35348 
L 103.051636 101.064513 
L 106.298182 100.884313 
L 109.544727 100.781158 
L 112.791273 100.715992 
L 116.037818 100.681451 
L 119.284364 100.657768 
L 122.530909 100.636607 
L 125.777455 100.569124 
L 129.024 100.569124 
L 132.270545 100.569124 
L 135.517091 100.569124 
L 138.763636 100.569124 
L 142.010182 100.569124 
L 145.256727 100.569124 
L 148.503273 100.569124 
L 151.749818 100.569124 
L 154.996364 100.569124 
L 158.242909 100.569124 
L 161.489455 100.569124 
L 164.736 100.569124 
L 167.982545 100.569124 
L 171.229091 100.56927 
L 174.475636 111.026888 
L 177.722182 117.341638 
L 180.968727 121.209243 
L 184.215273 123.501942 
L 187.461818 124.930273 
L 190.708364 125.785322 
L 193.954909 126.289516 
L 197.201455 126.608321 
L 200.448 126.796855 
L 203.694545 126.914525 
L 206.941091 126.988116 
L 210.187636 127.028918 
L 213.434182 127.053096 
L 216.680727 127.066441 
L 219.927273 127.075024 
L 223.173818 127.081366 
L 226.420364 127.083975 
L 229.666909 127.086585 
L 232.913455 127.088765 
L 236.16 127.089329 
L 239.406545 127.089893 
L 242.653091 127.090386 
L 245.899636 127.090449 
L 249.146182 127.090512 
L 252.392727 127.090575 
L 255.639273 127.090637 
L 258.885818 127.0907 
L 262.132364 127.090763 
L 265.378909 127.090826 
L 268.625455 127.100197 
L 271.872 132.106262 
L 275.118545 135.317385 
L 278.365091 137.278795 
L 281.611636 138.473623 
L 284.858182 139.199715 
L 288.104727 139.642308 
L 291.351273 139.909734 
L 294.597818 140.07371 
L 297.844364 140.17227 
L 301.090909 140.232244 
L 304.337455 140.269 
L 307.584 140.291258 
L 310.830545 140.304457 
L 314.077091 140.312573 
L 317.323636 140.317495 
L 320.570182 140.320767 
L 323.816727 140.322578 
L 327.063273 140.323773 
L 330.309818 140.324422 
L 333.556364 140.324783 
L 336.802909 140.325058 
L 340.049455 140.325245 
L 343.296 140.325381 
L 346.542545 140.325459 
L 349.789091 140.325471 
L 353.035636 140.325517 
L 356.282182 140.325503 
L 359.528727 140.325489 
L 362.775273 140.325476 
L 366.021818 140.325476 
L 369.268364 140.325477 
L 372.514909 140.325477 
L 375.761455 140.325478 
L 379.008 140.325479 
L 382.254545 140.325479 
L 385.501091 140.32548 
L 388.747636 140.32548 
L 391.994182 140.325481 
L 395.240727 140.325481 
L 398.487273 140.325482 
" clip-path="url(#p54a99ae6da)" style="fill: none; stroke: #2ca02c; stroke-width: 1.5; stroke-linecap: square"/>
   </g>
   <g id="patch_9">
    <path d="M 57.6 142.411034 
L 57.6 96.529655 
" style="fill: none; stroke: #000000; stroke-width: 0.8; stroke-linejoin: miter; stroke-linecap: square"/>
   </g>
   <g id="patch_10">
    <path d="M 414.72 142.411034 
L 414.72 96.529655 
" style="fill: none; stroke: #000000; stroke-width: 0.8; stroke-linejoin: miter; stroke-linecap: square"/>
   </g>
   <g id="patch_11">
    <path d="M 57.6 142.411034 
L 414.72 142.411034 
" style="fill: none; stroke: #000000; stroke-width: 0.8; stroke-linejoin: miter; stroke-linecap: square"/>
   </g>
   <g id="patch_12">
    <path d="M 57.6 96.529655 
L 414.72 96.529655 
" style="fill: none; stroke: #000000; stroke-width: 0.8; stroke-linejoin: miter; stroke-linecap: square"/>
   </g>
   <g id="text_10">
    <!-- Pressure -->
    <g transform="translate(210.546562 90.529655)scale(0.12 -0.12)">
     <defs>
      <path id="DejaVuSans-50" d="M 1259 4147 
L 1259 2394 
L 2053 2394 
Q 2494 2394 2734 2622 
Q 2975 2850 2975 3272 
Q 2975 3691 2734 3919 
Q 2494 4147 2053 4147 
L 1259 4147 
z
M 628 4666 
L 2053 4666 
Q 2838 4666 3239 4311 
Q 3641 3956 3641 3272 
Q 3641 2581 3239 2228 
Q 2838 1875 2053 1875 
L 1259 1875 
L 1259 0 
L 628 0 
L 628 4666 
z
" transform="scale(0.015625)"/>
      <path id="DejaVuSans-75" d="M 544 1381 
L 544 3500 
L 1119 3500 
L 1119 1403 
Q 1119 906 1312 657 
Q 1506 409 1894 409 
Q 2359 409 2629 706 
Q 2900 1003 2900 1516 
L 2900 3500 
L 3475 3500 
L 3475 0 
L 2900 0 
L 2900 538 
Q 2691 219 2414 64 
Q 2138 -91 1772 -91 
Q 1169 -91 856 284 
Q 544 659 544 1381 
z
M 1991 3584 
L 1991 3584 
z
" transform="scale(0.015625)"/>
     </defs>
     <use xlink:href="#DejaVuSans-50"/>
     <use xlink:href="#DejaVuSans-72" x="58.552734"/>
     <use xlink:href="#DejaVuSans-65" x="97.416016"/>
     <use xlink:href="#DejaVuSans-73" x="158.939453"/>
     <use xlink:href="#DejaVuSans-73" x="211.039062"/>
     <use xlink:href="#DejaVuSans-75" x="263.138672"/>
     <use xlink:href="#DejaVuSans-72" x="326.517578"/>
     <use xlink:href="#DejaVuSans-65" x="365.380859"/>
    </g>
   </g>
   <g id="legend_2">
    <g id="patch_13">
     <path d="M 350.823125 137.411034 
L 407.72 137.411034 
Q 409.72 137.411034 409.72 135.411034 
L 409.72 92.376659 
Q 409.72 90.376659 407.72 90.376659 
L 350.823125 90.376659 
Q 348.823125 90.376659 348.823125 92.376659 
L 348.823125 135.411034 
Q 348.823125 137.411034 350.823125 137.411034 
z
" style="fill: #ffffff; opacity: 0.8; stroke: #cccccc; stroke-linejoin: miter"/>
    </g>
    <g id="line2d_26">
     <path d="M 352.823125 98.475097 
L 362.823125 98.475097 
L 372.823125 98.475097 
" style="fill: none; stroke: #1f77b4; stroke-width: 1.5; stroke-linecap: square"/>
    </g>
    <g id="text_11">
     <!-- P1 -->
     <g transform="translate(380.823125 101.975097)scale(0.1 -0.1)">
      <use xlink:href="#DejaVuSans-50"/>
      <use xlink:href="#DejaVuSans-31" x="60.302734"/>
     </g>
    </g>
    <g id="line2d_27">
     <path d="M 352.823125 113.153222 
L 362.823125 113.153222 
L 372.823125 113.153222 
" style="fill: none; stroke: #ff7f0e; stroke-width: 1.5; stroke-linecap: square"/>
    </g>
    <g id="text_12">
     <!-- Pmid -->
     <g transform="translate(380.823125 116.653222)scale(0.1 -0.1)">
      <use xlink:href="#DejaVuSans-50"/>
      <use xlink:href="#DejaVuSans-6d" x="60.302734"/>
      <use xlink:href="#DejaVuSans-69" x="157.714844"/>
      <use xlink:href="#DejaVuSans-64" x="185.498047"/>
     </g>
    </g>
    <g id="line2d_28">
     <path d="M 352.823125 127.831347 
L 362.823125 127.831347 
L 372.823125 127.831347 
" style="fill: none; stroke: #2ca02c; stroke-width: 1.5; stroke-linecap: square"/>
    </g>
    <g id="text_13">
     <!-- PN -->
     <g transform="translate(380.823125 131.331347)scale(0.1 -0.1)">
      <use xlink:href="#DejaVuSans-50"/>
      <use xlink:href="#DejaVuSans-4e" x="60.302734"/>
     </g>
    </g>
   </g>
  </g>
  <g id="axes_3">
   <g id="patch_14">
    <path d="M 57.6 197.46869 
L 414.72 197.46869 
L 414.72 151.58731 
L 57.6 151.58731 
z
" style="fill: #ffffff"/>
   </g>
   <g id="matplotlib.axis_5">
    <g id="xtick_13">
     <g id="line2d_29">
      <g>
       <use xlink:href="#meaed762734" x="73.832727" y="197.46869" style="stroke: #000000; stroke-width: 0.8"/>
      </g>
     </g>
    </g>
    <g id="xtick_14">
     <g id="line2d_30">
      <g>
       <use xlink:href="#meaed762734" x="138.763636" y="197.46869" style="stroke: #000000; stroke-width: 0.8"/>
      </g>
     </g>
    </g>
    <g id="xtick_15">
     <g id="line2d_31">
      <g>
       <use xlink:href="#meaed762734" x="203.694545" y="197.46869" style="stroke: #000000; stroke-width: 0.8"/>
      </g>
     </g>
    </g>
    <g id="xtick_16">
     <g id="line2d_32">
      <g>
       <use xlink:href="#meaed762734" x="268.625455" y="197.46869" style="stroke: #000000; stroke-width: 0.8"/>
      </g>
     </g>
    </g>
    <g id="xtick_17">
     <g id="line2d_33">
      <g>
       <use xlink:href="#meaed762734" x="333.556364" y="197.46869" style="stroke: #000000; stroke-width: 0.8"/>
      </g>
     </g>
    </g>
    <g id="xtick_18">
     <g id="line2d_34">
      <g>
       <use xlink:href="#meaed762734" x="398.487273" y="197.46869" style="stroke: #000000; stroke-width: 0.8"/>
      </g>
     </g>
    </g>
   </g>
   <g id="matplotlib.axis_6">
    <g id="ytick_5">
     <g id="line2d_35">
      <g>
       <use xlink:href="#m0abc5d1a39" x="57.6" y="193.143102" style="stroke: #000000; stroke-width: 0.8"/>
      </g>
     </g>
     <g id="text_14">
      <!-- 0.0500 -->
      <g transform="translate(15.609375 196.942321)scale(0.1 -0.1)">
       <use xlink:href="#DejaVuSans-30"/>
       <use xlink:href="#DejaVuSans-2e" x="63.623047"/>
       <use xlink:href="#DejaVuSans-30" x="95.410156"/>
       <use xlink:href="#DejaVuSans-35" x="159.033203"/>
       <use xlink:href="#DejaVuSans-30" x="222.65625"/>
       <use xlink:href="#DejaVuSans-30" x="286.279297"/>
      </g>
     </g>
    </g>
    <g id="ytick_6">
     <g id="line2d_36">
      <g>
       <use xlink:href="#m0abc5d1a39" x="57.6" y="163.19161" style="stroke: #000000; stroke-width: 0.8"/>
      </g>
     </g>
     <g id="text_15">
      <!-- 0.0501 -->
      <g transform="translate(15.609375 166.990828)scale(0.1 -0.1)">
       <use xlink:href="#DejaVuSans-30"/>
       <use xlink:href="#DejaVuSans-2e" x="63.623047"/>
       <use xlink:href="#DejaVuSans-30" x="95.410156"/>
       <use xlink:href="#DejaVuSans-35" x="159.033203"/>
       <use xlink:href="#DejaVuSans-30" x="222.65625"/>
       <use xlink:href="#DejaVuSans-31" x="286.279297"/>
      </g>
     </g>
    </g>
    <g id="text_16">
     <!-- fraction -->
     <g transform="translate(9.529687 193.73425)rotate(-90)scale(0.1 -0.1)">
      <use xlink:href="#DejaVuSans-66"/>
      <use xlink:href="#DejaVuSans-72" x="35.205078"/>
      <use xlink:href="#DejaVuSans-61" x="76.318359"/>
      <use xlink:href="#DejaVuSans-63" x="137.597656"/>
      <use xlink:href="#DejaVuSans-74" x="192.578125"/>
      <use xlink:href="#DejaVuSans-69" x="231.787109"/>
      <use xlink:href="#DejaVuSans-6f" x="259.570312"/>
      <use xlink:href="#DejaVuSans-6e" x="320.751953"/>
     </g>
    </g>
   </g>
   <g id="line2d_37">
    <path d="M 73.832727 192.299738 
L 77.079273 193.159776 
L 80.325818 193.590252 
L 83.572364 192.024734 
L 86.818909 192.447762 
L 90.065455 193.061055 
L 93.312 195.383172 
L 96.558545 176.116935 
L 99.805091 153.672828 
L 103.051636 168.701462 
L 106.298182 179.201679 
L 109.544727 177.866815 
L 112.791273 170.609699 
L 116.037818 169.470585 
L 119.284364 171.340672 
L 122.530909 174.851892 
L 125.777455 193.131284 
L 129.024 193.131264 
L 132.270545 193.135519 
L 135.517091 193.137406 
L 138.763636 193.138444 
L 142.010182 193.139481 
L 145.256727 193.140518 
L 148.503273 193.141459 
L 151.749818 193.14173 
L 154.996364 193.142001 
L 158.242909 193.142271 
L 161.489455 193.142542 
L 164.736 193.142779 
L 167.982545 193.142909 
L 171.229091 193.142992 
L 174.475636 193.132329 
L 177.722182 193.111993 
L 180.968727 193.086075 
L 184.215273 193.060019 
L 187.461818 193.037959 
L 190.708364 193.019888 
L 193.954909 193.007235 
L 197.201455 192.9981 
L 200.448 192.991778 
L 203.694545 192.987632 
L 206.941091 192.984887 
L 210.187636 192.982989 
L 213.434182 192.982286 
L 216.680727 192.981724 
L 219.927273 192.981488 
L 223.173818 192.981324 
L 226.420364 192.981209 
L 229.666909 192.981093 
L 232.913455 192.981002 
L 236.16 192.981008 
L 239.406545 192.981014 
L 242.653091 192.981019 
L 245.899636 192.981023 
L 249.146182 192.981026 
L 252.392727 192.98103 
L 255.639273 192.981034 
L 258.885818 192.981037 
L 262.132364 192.981041 
L 265.378909 192.981045 
L 268.625455 192.981076 
L 271.872 192.953639 
L 275.118545 192.882456 
L 278.365091 192.789336 
L 281.611636 192.696323 
L 284.858182 192.615218 
L 288.104727 192.552485 
L 291.351273 192.506864 
L 294.597818 192.475357 
L 297.844364 192.454471 
L 301.090909 192.441138 
L 304.337455 192.432379 
L 307.584 192.42688 
L 310.830545 192.423633 
L 314.077091 192.421756 
L 317.323636 192.420571 
L 320.570182 192.41957 
L 323.816727 192.419025 
L 327.063273 192.418714 
L 330.309818 192.418591 
L 333.556364 192.418437 
L 336.802909 192.418324 
L 340.049455 192.418252 
L 343.296 192.418203 
L 346.542545 192.41818 
L 349.789091 192.418186 
L 353.035636 192.418184 
L 356.282182 192.418191 
L 359.528727 192.418198 
L 362.775273 192.418204 
L 366.021818 192.418199 
L 369.268364 192.418194 
L 372.514909 192.418189 
L 375.761455 192.418184 
L 379.008 192.418179 
L 382.254545 192.418174 
L 385.501091 192.418169 
L 388.747636 192.418164 
L 391.994182 192.418159 
L 395.240727 192.418153 
L 398.487273 192.418148 
" clip-path="url(#pa21bb78a7f)" style="fill: none; stroke: #1f77b4; stroke-width: 1.5; stroke-linecap: square"/>
   </g>
   <g id="line2d_38">
    <path d="M 73.832727 191.985104 
L 77.079273 192.154539 
L 80.325818 192.294734 
L 83.572364 192.37699 
L 86.818909 192.428804 
L 90.065455 192.463158 
L 93.312 192.487507 
L 96.558545 192.506458 
L 99.805091 192.522041 
L 103.051636 192.535396 
L 106.298182 192.547384 
L 109.544727 192.558276 
L 112.791273 192.568472 
L 116.037818 192.578074 
L 119.284364 192.587287 
L 122.530909 192.596166 
L 125.777455 190.950415 
L 129.024 192.180348 
L 132.270545 192.866298 
L 135.517091 193.017262 
L 138.763636 193.045902 
L 142.010182 193.074541 
L 145.256727 193.103181 
L 148.503273 193.128562 
L 151.749818 193.131156 
L 154.996364 193.133749 
L 158.242909 193.136343 
L 161.489455 193.138937 
L 164.736 193.140961 
L 167.982545 193.14182 
L 171.229091 193.142362 
L 174.475636 193.134622 
L 177.722182 193.115799 
L 180.968727 193.090385 
L 184.215273 193.064658 
L 187.461818 193.043202 
L 190.708364 193.025422 
L 193.954909 193.012932 
L 197.201455 193.003555 
L 200.448 192.997238 
L 203.694545 192.993133 
L 206.941091 192.990422 
L 210.187636 192.988525 
L 213.434182 192.987749 
L 216.680727 192.98715 
L 219.927273 192.986722 
L 223.173818 192.986402 
L 226.420364 192.986292 
L 229.666909 192.986181 
L 232.913455 192.986081 
L 236.16 192.986019 
L 239.406545 192.985957 
L 242.653091 192.985902 
L 245.899636 192.985888 
L 249.146182 192.985874 
L 252.392727 192.98586 
L 255.639273 192.985846 
L 258.885818 192.985832 
L 262.132364 192.985818 
L 265.378909 192.985805 
L 268.625455 192.985814 
L 271.872 192.958889 
L 275.118545 192.888036 
L 278.365091 192.794785 
L 281.611636 192.700551 
L 284.858182 192.619383 
L 288.104727 192.555768 
L 291.351273 192.509661 
L 294.597818 192.477645 
L 297.844364 192.456235 
L 301.090909 192.44255 
L 304.337455 192.433966 
L 307.584 192.428438 
L 310.830545 192.424874 
L 314.077091 192.422591 
L 317.323636 192.42116 
L 320.570182 192.420233 
L 323.816727 192.419586 
L 327.063273 192.419066 
L 330.309818 192.418701 
L 333.556364 192.418485 
L 336.802909 192.418334 
L 340.049455 192.418248 
L 343.296 192.418176 
L 346.542545 192.418129 
L 349.789091 192.418115 
L 353.035636 192.418062 
L 356.282182 192.418095 
L 359.528727 192.418128 
L 362.775273 192.418159 
L 366.021818 192.418168 
L 369.268364 192.418176 
L 372.514909 192.418185 
L 375.761455 192.418194 
L 379.008 192.418202 
L 382.254545 192.418211 
L 385.501091 192.41822 
L 388.747636 192.418228 
L 391.994182 192.418237 
L 395.240727 192.418246 
L 398.487273 192.418254 
" clip-path="url(#pa21bb78a7f)" style="fill: none; stroke: #ff7f0e; stroke-width: 1.5; stroke-linecap: square"/>
   </g>
   <g id="patch_15">
    <path d="M 57.6 197.46869 
L 57.6 151.58731 
" style="fill: none; stroke: #000000; stroke-width: 0.8; stroke-linejoin: miter; stroke-linecap: square"/>
   </g>
   <g id="patch_16">
    <path d="M 414.72 197.46869 
L 414.72 151.58731 
" style="fill: none; stroke: #000000; stroke-width: 0.8; stroke-linejoin: miter; stroke-linecap: square"/>
   </g>
   <g id="patch_17">
    <path d="M 57.6 197.46869 
L 414.72 197.46869 
" style="fill: none; stroke: #000000; stroke-width: 0.8; stroke-linejoin: miter; stroke-linecap: square"/>
   </g>
   <g id="patch_18">
    <path d="M 57.6 151.58731 
L 414.72 151.58731 
" style="fill: none; stroke: #000000; stroke-width: 0.8; stroke-linejoin: miter; stroke-linecap: square"/>
   </g>
   <g id="text_17">
    <!-- yA -->
    <g transform="translate(228.504375 145.58731)scale(0.12 -0.12)">
     <defs>
      <path id="DejaVuSans-41" d="M 2188 4044 
L 1331 1722 
L 3047 1722 
L 2188 4044 
z
M 1831 4666 
L 2547 4666 
L 4325 0 
L 3669 0 
L 3244 1197 
L 1141 1197 
L 716 0 
L 50 0 
L 1831 4666 
z
" transform="scale(0.015625)"/>
     </defs>
     <use xlink:href="#DejaVuSans-79"/>
     <use xlink:href="#DejaVuSans-41" x="59.179688"/>
    </g>
   </g>
   <g id="legend_3">
    <g id="patch_19">
     <path d="M 330.030938 188.94356 
L 407.72 188.94356 
Q 409.72 188.94356 409.72 186.94356 
L 409.72 158.58731 
Q 409.72 156.58731 407.72 156.58731 
L 330.030938 156.58731 
Q 328.030938 156.58731 328.030938 158.58731 
L 328.030938 186.94356 
Q 328.030938 188.94356 330.030938 188.94356 
z
" style="fill: #ffffff; opacity: 0.8; stroke: #cccccc; stroke-linejoin: miter"/>
    </g>
    <g id="line2d_39">
     <path d="M 332.030938 164.685748 
L 342.030938 164.685748 
L 352.030938 164.685748 
" style="fill: none; stroke: #1f77b4; stroke-width: 1.5; stroke-linecap: square"/>
    </g>
    <g id="text_18">
     <!-- yA0 (in) -->
     <g transform="translate(360.030938 168.185748)scale(0.1 -0.1)">
      <use xlink:href="#DejaVuSans-79"/>
      <use xlink:href="#DejaVuSans-41" x="59.179688"/>
      <use xlink:href="#DejaVuSans-30" x="127.587891"/>
      <use xlink:href="#DejaVuSans-20" x="191.210938"/>
      <use xlink:href="#DejaVuSans-28" x="222.998047"/>
      <use xlink:href="#DejaVuSans-69" x="262.011719"/>
      <use xlink:href="#DejaVuSans-6e" x="289.794922"/>
      <use xlink:href="#DejaVuSans-29" x="353.173828"/>
     </g>
    </g>
    <g id="line2d_40">
     <path d="M 332.030938 179.363873 
L 342.030938 179.363873 
L 352.030938 179.363873 
" style="fill: none; stroke: #ff7f0e; stroke-width: 1.5; stroke-linecap: square"/>
    </g>
    <g id="text_19">
     <!-- yAL (out) -->
     <g transform="translate(360.030938 182.863873)scale(0.1 -0.1)">
      <defs>
       <path id="DejaVuSans-4c" d="M 628 4666 
L 1259 4666 
L 1259 531 
L 3531 531 
L 3531 0 
L 628 0 
L 628 4666 
z
" transform="scale(0.015625)"/>
      </defs>
      <use xlink:href="#DejaVuSans-79"/>
      <use xlink:href="#DejaVuSans-41" x="59.179688"/>
      <use xlink:href="#DejaVuSans-4c" x="127.587891"/>
      <use xlink:href="#DejaVuSans-20" x="183.300781"/>
      <use xlink:href="#DejaVuSans-28" x="215.087891"/>
      <use xlink:href="#DejaVuSans-6f" x="254.101562"/>
      <use xlink:href="#DejaVuSans-75" x="315.283203"/>
      <use xlink:href="#DejaVuSans-74" x="378.662109"/>
      <use xlink:href="#DejaVuSans-29" x="417.871094"/>
     </g>
    </g>
   </g>
  </g>
  <g id="axes_4">
   <g id="patch_20">
    <path d="M 57.6 252.526345 
L 414.72 252.526345 
L 414.72 206.644966 
L 57.6 206.644966 
z
" style="fill: #ffffff"/>
   </g>
   <g id="matplotlib.axis_7">
    <g id="xtick_19">
     <g id="line2d_41">
      <g>
       <use xlink:href="#meaed762734" x="73.832727" y="252.526345" style="stroke: #000000; stroke-width: 0.8"/>
      </g>
     </g>
    </g>
    <g id="xtick_20">
     <g id="line2d_42">
      <g>
       <use xlink:href="#meaed762734" x="138.763636" y="252.526345" style="stroke: #000000; stroke-width: 0.8"/>
      </g>
     </g>
    </g>
    <g id="xtick_21">
     <g id="line2d_43">
      <g>
       <use xlink:href="#meaed762734" x="203.694545" y="252.526345" style="stroke: #000000; stroke-width: 0.8"/>
      </g>
     </g>
    </g>
    <g id="xtick_22">
     <g id="line2d_44">
      <g>
       <use xlink:href="#meaed762734" x="268.625455" y="252.526345" style="stroke: #000000; stroke-width: 0.8"/>
      </g>
     </g>
    </g>
    <g id="xtick_23">
     <g id="line2d_45">
      <g>
       <use xlink:href="#meaed762734" x="333.556364" y="252.526345" style="stroke: #000000; stroke-width: 0.8"/>
      </g>
     </g>
    </g>
    <g id="xtick_24">
     <g id="line2d_46">
      <g>
       <use xlink:href="#meaed762734" x="398.487273" y="252.526345" style="stroke: #000000; stroke-width: 0.8"/>
      </g>
     </g>
    </g>
   </g>
   <g id="matplotlib.axis_8">
    <g id="ytick_7">
     <g id="line2d_47">
      <g>
       <use xlink:href="#m0abc5d1a39" x="57.6" y="242.399183" style="stroke: #000000; stroke-width: 0.8"/>
      </g>
     </g>
     <g id="text_20">
      <!-- 0.0000 -->
      <g transform="translate(15.609375 246.198402)scale(0.1 -0.1)">
       <use xlink:href="#DejaVuSans-30"/>
       <use xlink:href="#DejaVuSans-2e" x="63.623047"/>
       <use xlink:href="#DejaVuSans-30" x="95.410156"/>
       <use xlink:href="#DejaVuSans-30" x="159.033203"/>
       <use xlink:href="#DejaVuSans-30" x="222.65625"/>
       <use xlink:href="#DejaVuSans-30" x="286.279297"/>
      </g>
     </g>
    </g>
    <g id="ytick_8">
     <g id="line2d_48">
      <g>
       <use xlink:href="#m0abc5d1a39" x="57.6" y="210.970898" style="stroke: #000000; stroke-width: 0.8"/>
      </g>
     </g>
     <g id="text_21">
      <!-- 0.0001 -->
      <g transform="translate(15.609375 214.770117)scale(0.1 -0.1)">
       <use xlink:href="#DejaVuSans-30"/>
       <use xlink:href="#DejaVuSans-2e" x="63.623047"/>
       <use xlink:href="#DejaVuSans-30" x="95.410156"/>
       <use xlink:href="#DejaVuSans-30" x="159.033203"/>
       <use xlink:href="#DejaVuSans-30" x="222.65625"/>
       <use xlink:href="#DejaVuSans-31" x="286.279297"/>
      </g>
     </g>
    </g>
    <g id="text_22">
     <!-- fraction -->
     <g transform="translate(9.529687 248.791905)rotate(-90)scale(0.1 -0.1)">
      <use xlink:href="#DejaVuSans-66"/>
      <use xlink:href="#DejaVuSans-72" x="35.205078"/>
      <use xlink:href="#DejaVuSans-61" x="76.318359"/>
      <use xlink:href="#DejaVuSans-63" x="137.597656"/>
      <use xlink:href="#DejaVuSans-74" x="192.578125"/>
      <use xlink:href="#DejaVuSans-69" x="231.787109"/>
      <use xlink:href="#DejaVuSans-6f" x="259.570312"/>
      <use xlink:href="#DejaVuSans-6e" x="320.751953"/>
     </g>
    </g>
    <g id="text_23">
     <!-- +8.999e1 -->
     <g transform="translate(57.6 203.644966)scale(0.1 -0.1)">
      <defs>
       <path id="DejaVuSans-2b" d="M 2944 4013 
L 2944 2272 
L 4684 2272 
L 4684 1741 
L 2944 1741 
L 2944 0 
L 2419 0 
L 2419 1741 
L 678 1741 
L 678 2272 
L 2419 2272 
L 2419 4013 
L 2944 4013 
z
" transform="scale(0.015625)"/>
       <path id="DejaVuSans-38" d="M 2034 2216 
Q 1584 2216 1326 1975 
Q 1069 1734 1069 1313 
Q 1069 891 1326 650 
Q 1584 409 2034 409 
Q 2484 409 2743 651 
Q 3003 894 3003 1313 
Q 3003 1734 2745 1975 
Q 2488 2216 2034 2216 
z
M 1403 2484 
Q 997 2584 770 2862 
Q 544 3141 544 3541 
Q 544 4100 942 4425 
Q 1341 4750 2034 4750 
Q 2731 4750 3128 4425 
Q 3525 4100 3525 3541 
Q 3525 3141 3298 2862 
Q 3072 2584 2669 2484 
Q 3125 2378 3379 2068 
Q 3634 1759 3634 1313 
Q 3634 634 3220 271 
Q 2806 -91 2034 -91 
Q 1263 -91 848 271 
Q 434 634 434 1313 
Q 434 1759 690 2068 
Q 947 2378 1403 2484 
z
M 1172 3481 
Q 1172 3119 1398 2916 
Q 1625 2713 2034 2713 
Q 2441 2713 2670 2916 
Q 2900 3119 2900 3481 
Q 2900 3844 2670 4047 
Q 2441 4250 2034 4250 
Q 1625 4250 1398 4047 
Q 1172 3844 1172 3481 
z
" transform="scale(0.015625)"/>
       <path id="DejaVuSans-39" d="M 703 97 
L 703 672 
Q 941 559 1184 500 
Q 1428 441 1663 441 
Q 2288 441 2617 861 
Q 2947 1281 2994 2138 
Q 2813 1869 2534 1725 
Q 2256 1581 1919 1581 
Q 1219 1581 811 2004 
Q 403 2428 403 3163 
Q 403 3881 828 4315 
Q 1253 4750 1959 4750 
Q 2769 4750 3195 4129 
Q 3622 3509 3622 2328 
Q 3622 1225 3098 567 
Q 2575 -91 1691 -91 
Q 1453 -91 1209 -44 
Q 966 3 703 97 
z
M 1959 2075 
Q 2384 2075 2632 2365 
Q 2881 2656 2881 3163 
Q 2881 3666 2632 3958 
Q 2384 4250 1959 4250 
Q 1534 4250 1286 3958 
Q 1038 3666 1038 3163 
Q 1038 2656 1286 2365 
Q 1534 2075 1959 2075 
z
" transform="scale(0.015625)"/>
       <path id="DejaVuSans-2212" d="M 678 2272 
L 4684 2272 
L 4684 1741 
L 678 1741 
L 678 2272 
z
" transform="scale(0.015625)"/>
      </defs>
      <use xlink:href="#DejaVuSans-2b"/>
      <use xlink:href="#DejaVuSans-38" x="83.789062"/>
      <use xlink:href="#DejaVuSans-2e" x="147.412109"/>
      <use xlink:href="#DejaVuSans-39" x="179.199219"/>
      <use xlink:href="#DejaVuSans-39" x="242.822266"/>
      <use xlink:href="#DejaVuSans-39" x="306.445312"/>
      <use xlink:href="#DejaVuSans-65" x="370.068359"/>
      <use xlink:href="#DejaVuSans-2212" x="431.591797"/>
      <use xlink:href="#DejaVuSans-31" x="515.380859"/>
     </g>
    </g>
   </g>
   <g id="line2d_49">
    <path d="M 73.832727 211.813646 
L 77.079273 210.954277 
L 80.325818 210.523584 
L 83.572364 212.090362 
L 86.818909 211.666971 
L 90.065455 211.053738 
L 93.312 208.730483 
L 96.558545 227.99429 
L 99.805091 250.440828 
L 103.051636 235.426064 
L 106.298182 224.930319 
L 109.544727 226.261311 
L 112.791273 233.515065 
L 116.037818 234.655168 
L 119.284364 232.788615 
L 122.530909 229.281148 
L 125.777455 210.982386 
L 129.024 210.982537 
L 132.270545 210.978358 
L 135.517091 210.976501 
L 138.763636 210.975481 
L 142.010182 210.974461 
L 145.256727 210.97344 
L 148.503273 210.972515 
L 151.749818 210.972248 
L 154.996364 210.971982 
L 158.242909 210.971716 
L 161.489455 210.971449 
L 164.736 210.971216 
L 167.982545 210.971088 
L 171.229091 210.971006 
L 174.475636 210.98159 
L 177.722182 211.001801 
L 180.968727 211.027574 
L 184.215273 211.053494 
L 187.461818 211.075446 
L 190.708364 211.093433 
L 193.954909 211.106031 
L 197.201455 211.115129 
L 200.448 211.121426 
L 203.694545 211.125559 
L 206.941091 211.128295 
L 210.187636 211.130187 
L 213.434182 211.130889 
L 216.680727 211.13145 
L 219.927273 211.131687 
L 223.173818 211.13185 
L 226.420364 211.131966 
L 229.666909 211.132082 
L 232.913455 211.132172 
L 236.16 211.132167 
L 239.406545 211.132162 
L 242.653091 211.132157 
L 245.899636 211.132154 
L 249.146182 211.13215 
L 252.392727 211.132147 
L 255.639273 211.132143 
L 258.885818 211.13214 
L 262.132364 211.132137 
L 265.378909 211.132133 
L 268.625455 211.132102 
L 271.872 211.159394 
L 275.118545 211.230203 
L 278.365091 211.322889 
L 281.611636 211.415538 
L 284.858182 211.4963 
L 288.104727 211.558841 
L 291.351273 211.60433 
L 294.597818 211.635753 
L 297.844364 211.656594 
L 301.090909 211.669911 
L 304.337455 211.67866 
L 307.584 211.684156 
L 310.830545 211.687404 
L 314.077091 211.689285 
L 317.323636 211.690474 
L 320.570182 211.691483 
L 323.816727 211.692033 
L 327.063273 211.692349 
L 330.309818 211.692474 
L 333.556364 211.692631 
L 336.802909 211.692745 
L 340.049455 211.692815 
L 343.296 211.692864 
L 346.542545 211.692888 
L 349.789091 211.692881 
L 353.035636 211.692882 
L 356.282182 211.692875 
L 359.528727 211.692867 
L 362.775273 211.69286 
L 366.021818 211.692865 
L 369.268364 211.69287 
L 372.514909 211.692875 
L 375.761455 211.692879 
L 379.008 211.692884 
L 382.254545 211.692889 
L 385.501091 211.692894 
L 388.747636 211.692898 
L 391.994182 211.692903 
L 395.240727 211.692908 
L 398.487273 211.692913 
" clip-path="url(#p6c866494c7)" style="fill: none; stroke: #1f77b4; stroke-width: 1.5; stroke-linecap: square"/>
   </g>
   <g id="line2d_50">
    <path d="M 73.832727 212.133808 
L 77.079273 211.965048 
L 80.325818 211.825224 
L 83.572364 211.743041 
L 86.818909 211.691176 
L 90.065455 211.656715 
L 93.312 211.632236 
L 96.558545 211.613153 
L 99.805091 211.59744 
L 103.051636 211.58396 
L 106.298182 211.571853 
L 109.544727 211.560849 
L 112.791273 211.550547 
L 116.037818 211.540846 
L 119.284364 211.531539 
L 122.530909 211.522572 
L 125.777455 213.166852 
L 129.024 211.934314 
L 132.270545 211.247392 
L 135.517091 211.096332 
L 138.763636 211.067754 
L 142.010182 211.039176 
L 145.256727 211.010598 
L 148.503273 210.985275 
L 151.749818 210.982707 
L 154.996364 210.98014 
L 158.242909 210.977572 
L 161.489455 210.975005 
L 164.736 210.973005 
L 167.982545 210.97216 
L 171.229091 210.971626 
L 174.475636 210.979319 
L 177.722182 210.998038 
L 180.968727 211.023283 
L 184.215273 211.048817 
L 187.461818 211.070289 
L 190.708364 211.08782 
L 193.954909 211.100176 
L 197.201455 211.109587 
L 200.448 211.115916 
L 203.694545 211.12003 
L 206.941091 211.122748 
L 210.187636 211.124648 
L 213.434182 211.125437 
L 216.680727 211.126045 
L 219.927273 211.126499 
L 223.173818 211.126838 
L 226.420364 211.126945 
L 229.666909 211.127052 
L 232.913455 211.127148 
L 236.16 211.127205 
L 239.406545 211.127262 
L 242.653091 211.127313 
L 245.899636 211.127326 
L 249.146182 211.127339 
L 252.392727 211.127352 
L 255.639273 211.127366 
L 258.885818 211.127379 
L 262.132364 211.127392 
L 265.378909 211.127405 
L 268.625455 211.127396 
L 271.872 211.154169 
L 275.118545 211.224646 
L 278.365091 211.317441 
L 281.611636 211.41126 
L 284.858182 211.492113 
L 288.104727 211.555517 
L 291.351273 211.601498 
L 294.597818 211.633444 
L 297.844364 211.65482 
L 301.090909 211.668491 
L 304.337455 211.677072 
L 307.584 211.6826 
L 310.830545 211.686165 
L 314.077091 211.68845 
L 317.323636 211.689881 
L 320.570182 211.69081 
L 323.816727 211.691458 
L 327.063273 211.691978 
L 330.309818 211.692343 
L 333.556364 211.692559 
L 336.802909 211.69271 
L 340.049455 211.692797 
L 343.296 211.692869 
L 346.542545 211.692916 
L 349.789091 211.692929 
L 353.035636 211.692983 
L 356.282182 211.69295 
L 359.528727 211.692917 
L 362.775273 211.692886 
L 366.021818 211.692877 
L 369.268364 211.692869 
L 372.514909 211.69286 
L 375.761455 211.692852 
L 379.008 211.692843 
L 382.254545 211.692834 
L 385.501091 211.692826 
L 388.747636 211.692817 
L 391.994182 211.692809 
L 395.240727 211.6928 
L 398.487273 211.692791 
" clip-path="url(#p6c866494c7)" style="fill: none; stroke: #ff7f0e; stroke-width: 1.5; stroke-linecap: square"/>
   </g>
   <g id="patch_21">
    <path d="M 57.6 252.526345 
L 57.6 206.644966 
" style="fill: none; stroke: #000000; stroke-width: 0.8; stroke-linejoin: miter; stroke-linecap: square"/>
   </g>
   <g id="patch_22">
    <path d="M 414.72 252.526345 
L 414.72 206.644966 
" style="fill: none; stroke: #000000; stroke-width: 0.8; stroke-linejoin: miter; stroke-linecap: square"/>
   </g>
   <g id="patch_23">
    <path d="M 57.6 252.526345 
L 414.72 252.526345 
" style="fill: none; stroke: #000000; stroke-width: 0.8; stroke-linejoin: miter; stroke-linecap: square"/>
   </g>
   <g id="patch_24">
    <path d="M 57.6 206.644966 
L 414.72 206.644966 
" style="fill: none; stroke: #000000; stroke-width: 0.8; stroke-linejoin: miter; stroke-linecap: square"/>
   </g>
   <g id="text_24">
    <!-- yB -->
    <g transform="translate(228.492188 200.644966)scale(0.12 -0.12)">
     <defs>
      <path id="DejaVuSans-42" d="M 1259 2228 
L 1259 519 
L 2272 519 
Q 2781 519 3026 730 
Q 3272 941 3272 1375 
Q 3272 1813 3026 2020 
Q 2781 2228 2272 2228 
L 1259 2228 
z
M 1259 4147 
L 1259 2741 
L 2194 2741 
Q 2656 2741 2882 2914 
Q 3109 3088 3109 3444 
Q 3109 3797 2882 3972 
Q 2656 4147 2194 4147 
L 1259 4147 
z
M 628 4666 
L 2241 4666 
Q 2963 4666 3353 4366 
Q 3744 4066 3744 3513 
Q 3744 3084 3544 2831 
Q 3344 2578 2956 2516 
Q 3422 2416 3680 2098 
Q 3938 1781 3938 1306 
Q 3938 681 3513 340 
Q 3088 0 2303 0 
L 628 0 
L 628 4666 
z
" transform="scale(0.015625)"/>
     </defs>
     <use xlink:href="#DejaVuSans-79"/>
     <use xlink:href="#DejaVuSans-42" x="59.179688"/>
    </g>
   </g>
   <g id="legend_4">
    <g id="patch_25">
     <path d="M 330.010625 247.526345 
L 407.72 247.526345 
Q 409.72 247.526345 409.72 245.526345 
L 409.72 217.170095 
Q 409.72 215.170095 407.72 215.170095 
L 330.010625 215.170095 
Q 328.010625 215.170095 328.010625 217.170095 
L 328.010625 245.526345 
Q 328.010625 247.526345 330.010625 247.526345 
z
" style="fill: #ffffff; opacity: 0.8; stroke: #cccccc; stroke-linejoin: miter"/>
    </g>
    <g id="line2d_51">
     <path d="M 332.010625 223.268532 
L 342.010625 223.268532 
L 352.010625 223.268532 
" style="fill: none; stroke: #1f77b4; stroke-width: 1.5; stroke-linecap: square"/>
    </g>
    <g id="text_25">
     <!-- yB0 (in) -->
     <g transform="translate(360.010625 226.768532)scale(0.1 -0.1)">
      <use xlink:href="#DejaVuSans-79"/>
      <use xlink:href="#DejaVuSans-42" x="59.179688"/>
      <use xlink:href="#DejaVuSans-30" x="127.783203"/>
      <use xlink:href="#DejaVuSans-20" x="191.40625"/>
      <use xlink:href="#DejaVuSans-28" x="223.193359"/>
      <use xlink:href="#DejaVuSans-69" x="262.207031"/>
      <use xlink:href="#DejaVuSans-6e" x="289.990234"/>
      <use xlink:href="#DejaVuSans-29" x="353.369141"/>
     </g>
    </g>
    <g id="line2d_52">
     <path d="M 332.010625 237.946657 
L 342.010625 237.946657 
L 352.010625 237.946657 
" style="fill: none; stroke: #ff7f0e; stroke-width: 1.5; stroke-linecap: square"/>
    </g>
    <g id="text_26">
     <!-- yBL (out) -->
     <g transform="translate(360.010625 241.446657)scale(0.1 -0.1)">
      <use xlink:href="#DejaVuSans-79"/>
      <use xlink:href="#DejaVuSans-42" x="59.179688"/>
      <use xlink:href="#DejaVuSans-4c" x="127.783203"/>
      <use xlink:href="#DejaVuSans-20" x="183.496094"/>
      <use xlink:href="#DejaVuSans-28" x="215.283203"/>
      <use xlink:href="#DejaVuSans-6f" x="254.296875"/>
      <use xlink:href="#DejaVuSans-75" x="315.478516"/>
      <use xlink:href="#DejaVuSans-74" x="378.857422"/>
      <use xlink:href="#DejaVuSans-29" x="418.066406"/>
     </g>
    </g>
   </g>
  </g>
  <g id="axes_5">
   <g id="patch_26">
    <path d="M 57.6 307.584 
L 414.72 307.584 
L 414.72 261.702621 
L 57.6 261.702621 
z
" style="fill: #ffffff"/>
   </g>
   <g id="matplotlib.axis_9">
    <g id="xtick_25">
     <g id="line2d_53">
      <g>
       <use xlink:href="#meaed762734" x="73.832727" y="307.584" style="stroke: #000000; stroke-width: 0.8"/>
      </g>
     </g>
     <g id="text_27">
      <!-- 0 -->
      <g transform="translate(70.651477 322.182437)scale(0.1 -0.1)">
       <use xlink:href="#DejaVuSans-30"/>
      </g>
     </g>
    </g>
    <g id="xtick_26">
     <g id="line2d_54">
      <g>
       <use xlink:href="#meaed762734" x="138.763636" y="307.584" style="stroke: #000000; stroke-width: 0.8"/>
      </g>
     </g>
     <g id="text_28">
      <!-- 20 -->
      <g transform="translate(132.401136 322.182437)scale(0.1 -0.1)">
       <defs>
        <path id="DejaVuSans-32" d="M 1228 531 
L 3431 531 
L 3431 0 
L 469 0 
L 469 531 
Q 828 903 1448 1529 
Q 2069 2156 2228 2338 
Q 2531 2678 2651 2914 
Q 2772 3150 2772 3378 
Q 2772 3750 2511 3984 
Q 2250 4219 1831 4219 
Q 1534 4219 1204 4116 
Q 875 4013 500 3803 
L 500 4441 
Q 881 4594 1212 4672 
Q 1544 4750 1819 4750 
Q 2544 4750 2975 4387 
Q 3406 4025 3406 3419 
Q 3406 3131 3298 2873 
Q 3191 2616 2906 2266 
Q 2828 2175 2409 1742 
Q 1991 1309 1228 531 
z
" transform="scale(0.015625)"/>
       </defs>
       <use xlink:href="#DejaVuSans-32"/>
       <use xlink:href="#DejaVuSans-30" x="63.623047"/>
      </g>
     </g>
    </g>
    <g id="xtick_27">
     <g id="line2d_55">
      <g>
       <use xlink:href="#meaed762734" x="203.694545" y="307.584" style="stroke: #000000; stroke-width: 0.8"/>
      </g>
     </g>
     <g id="text_29">
      <!-- 40 -->
      <g transform="translate(197.332045 322.182437)scale(0.1 -0.1)">
       <defs>
        <path id="DejaVuSans-34" d="M 2419 4116 
L 825 1625 
L 2419 1625 
L 2419 4116 
z
M 2253 4666 
L 3047 4666 
L 3047 1625 
L 3713 1625 
L 3713 1100 
L 3047 1100 
L 3047 0 
L 2419 0 
L 2419 1100 
L 313 1100 
L 313 1709 
L 2253 4666 
z
" transform="scale(0.015625)"/>
       </defs>
       <use xlink:href="#DejaVuSans-34"/>
       <use xlink:href="#DejaVuSans-30" x="63.623047"/>
      </g>
     </g>
    </g>
    <g id="xtick_28">
     <g id="line2d_56">
      <g>
       <use xlink:href="#meaed762734" x="268.625455" y="307.584" style="stroke: #000000; stroke-width: 0.8"/>
      </g>
     </g>
     <g id="text_30">
      <!-- 60 -->
      <g transform="translate(262.262955 322.182437)scale(0.1 -0.1)">
       <defs>
        <path id="DejaVuSans-36" d="M 2113 2584 
Q 1688 2584 1439 2293 
Q 1191 2003 1191 1497 
Q 1191 994 1439 701 
Q 1688 409 2113 409 
Q 2538 409 2786 701 
Q 3034 994 3034 1497 
Q 3034 2003 2786 2293 
Q 2538 2584 2113 2584 
z
M 3366 4563 
L 3366 3988 
Q 3128 4100 2886 4159 
Q 2644 4219 2406 4219 
Q 1781 4219 1451 3797 
Q 1122 3375 1075 2522 
Q 1259 2794 1537 2939 
Q 1816 3084 2150 3084 
Q 2853 3084 3261 2657 
Q 3669 2231 3669 1497 
Q 3669 778 3244 343 
Q 2819 -91 2113 -91 
Q 1303 -91 875 529 
Q 447 1150 447 2328 
Q 447 3434 972 4092 
Q 1497 4750 2381 4750 
Q 2619 4750 2861 4703 
Q 3103 4656 3366 4563 
z
" transform="scale(0.015625)"/>
       </defs>
       <use xlink:href="#DejaVuSans-36"/>
       <use xlink:href="#DejaVuSans-30" x="63.623047"/>
      </g>
     </g>
    </g>
    <g id="xtick_29">
     <g id="line2d_57">
      <g>
       <use xlink:href="#meaed762734" x="333.556364" y="307.584" style="stroke: #000000; stroke-width: 0.8"/>
      </g>
     </g>
     <g id="text_31">
      <!-- 80 -->
      <g transform="translate(327.193864 322.182437)scale(0.1 -0.1)">
       <use xlink:href="#DejaVuSans-38"/>
       <use xlink:href="#DejaVuSans-30" x="63.623047"/>
      </g>
     </g>
    </g>
    <g id="xtick_30">
     <g id="line2d_58">
      <g>
       <use xlink:href="#meaed762734" x="398.487273" y="307.584" style="stroke: #000000; stroke-width: 0.8"/>
      </g>
     </g>
     <g id="text_32">
      <!-- 100 -->
      <g transform="translate(388.943523 322.182437)scale(0.1 -0.1)">
       <use xlink:href="#DejaVuSans-31"/>
       <use xlink:href="#DejaVuSans-30" x="63.623047"/>
       <use xlink:href="#DejaVuSans-30" x="127.246094"/>
      </g>
     </g>
    </g>
    <g id="text_33">
     <!-- time (normalized) -->
     <g transform="translate(191.589687 335.860562)scale(0.1 -0.1)">
      <use xlink:href="#DejaVuSans-74"/>
      <use xlink:href="#DejaVuSans-69" x="39.208984"/>
      <use xlink:href="#DejaVuSans-6d" x="66.992188"/>
      <use xlink:href="#DejaVuSans-65" x="164.404297"/>
      <use xlink:href="#DejaVuSans-20" x="225.927734"/>
      <use xlink:href="#DejaVuSans-28" x="257.714844"/>
      <use xlink:href="#DejaVuSans-6e" x="296.728516"/>
      <use xlink:href="#DejaVuSans-6f" x="360.107422"/>
      <use xlink:href="#DejaVuSans-72" x="421.289062"/>
      <use xlink:href="#DejaVuSans-6d" x="460.652344"/>
      <use xlink:href="#DejaVuSans-61" x="558.064453"/>
      <use xlink:href="#DejaVuSans-6c" x="619.34375"/>
      <use xlink:href="#DejaVuSans-69" x="647.126953"/>
      <use xlink:href="#DejaVuSans-7a" x="674.910156"/>
      <use xlink:href="#DejaVuSans-65" x="727.400391"/>
      <use xlink:href="#DejaVuSans-64" x="788.923828"/>
      <use xlink:href="#DejaVuSans-29" x="852.400391"/>
     </g>
    </g>
   </g>
   <g id="matplotlib.axis_10">
    <g id="ytick_9">
     <g id="line2d_59">
      <g>
       <use xlink:href="#m0abc5d1a39" x="57.6" y="297.463266" style="stroke: #000000; stroke-width: 0.8"/>
      </g>
     </g>
     <g id="text_34">
      <!-- 5 -->
      <g transform="translate(44.2375 301.262485)scale(0.1 -0.1)">
       <use xlink:href="#DejaVuSans-35"/>
      </g>
     </g>
    </g>
    <g id="ytick_10">
     <g id="line2d_60">
      <g>
       <use xlink:href="#m0abc5d1a39" x="57.6" y="266.021233" style="stroke: #000000; stroke-width: 0.8"/>
      </g>
     </g>
     <g id="text_35">
      <!-- 10 -->
      <g transform="translate(37.875 269.820452)scale(0.1 -0.1)">
       <use xlink:href="#DejaVuSans-31"/>
       <use xlink:href="#DejaVuSans-30" x="63.623047"/>
      </g>
     </g>
    </g>
    <g id="text_36">
     <!-- fraction -->
     <g transform="translate(31.795312 303.84956)rotate(-90)scale(0.1 -0.1)">
      <use xlink:href="#DejaVuSans-66"/>
      <use xlink:href="#DejaVuSans-72" x="35.205078"/>
      <use xlink:href="#DejaVuSans-61" x="76.318359"/>
      <use xlink:href="#DejaVuSans-63" x="137.597656"/>
      <use xlink:href="#DejaVuSans-74" x="192.578125"/>
      <use xlink:href="#DejaVuSans-69" x="231.787109"/>
      <use xlink:href="#DejaVuSans-6f" x="259.570312"/>
      <use xlink:href="#DejaVuSans-6e" x="320.751953"/>
     </g>
    </g>
    <g id="text_37">
     <!-- 1e6+4.999e2 -->
     <g transform="translate(57.6 258.702621)scale(0.1 -0.1)">
      <use xlink:href="#DejaVuSans-31"/>
      <use xlink:href="#DejaVuSans-65" x="63.623047"/>
      <use xlink:href="#DejaVuSans-2212" x="125.146484"/>
      <use xlink:href="#DejaVuSans-36" x="208.935547"/>
      <use xlink:href="#DejaVuSans-2b" x="272.558594"/>
      <use xlink:href="#DejaVuSans-34" x="356.347656"/>
      <use xlink:href="#DejaVuSans-2e" x="419.970703"/>
      <use xlink:href="#DejaVuSans-39" x="451.757812"/>
      <use xlink:href="#DejaVuSans-39" x="515.380859"/>
      <use xlink:href="#DejaVuSans-39" x="579.003906"/>
      <use xlink:href="#DejaVuSans-65" x="642.626953"/>
      <use xlink:href="#DejaVuSans-2212" x="704.150391"/>
      <use xlink:href="#DejaVuSans-32" x="787.939453"/>
     </g>
    </g>
   </g>
   <g id="line2d_61">
    <path d="M 73.832727 266.865105 
L 77.079273 266.003694 
L 80.325818 265.57745 
L 83.572364 267.118991 
L 86.818909 266.702813 
L 90.065455 266.088396 
L 93.312 263.788138 
L 96.558545 283.10078 
L 99.805091 305.498483 
L 103.051636 290.203726 
L 106.298182 279.617623 
L 109.544727 281.026733 
L 112.791273 288.348399 
L 116.037818 289.468626 
L 119.284364 287.53084 
L 122.530909 283.947695 
L 125.777455 266.039404 
L 129.024 266.03691 
L 132.270545 266.031192 
L 135.517091 266.028708 
L 138.763636 266.027347 
L 142.010182 266.025986 
L 145.256727 266.024624 
L 148.503273 266.023389 
L 151.749818 266.023034 
L 154.996364 266.022679 
L 158.242909 266.022323 
L 161.489455 266.021968 
L 164.736 266.021656 
L 167.982545 266.021486 
L 171.229091 266.021377 
L 174.475636 266.033493 
L 177.722182 266.056048 
L 180.968727 266.08453 
L 184.215273 266.112977 
L 187.461818 266.136917 
L 190.708364 266.15643 
L 193.954909 266.170002 
L 197.201455 266.179754 
L 200.448 266.186465 
L 203.694545 266.190838 
L 206.941091 266.193716 
L 210.187636 266.195695 
L 213.434182 266.19641 
L 216.680727 266.196983 
L 219.927273 266.197213 
L 223.173818 266.197367 
L 226.420364 266.197479 
L 229.666909 266.197591 
L 232.913455 266.197675 
L 236.16 266.19766 
L 239.406545 266.197644 
L 242.653091 266.197629 
L 245.899636 266.197619 
L 249.146182 266.19761 
L 252.392727 266.1976 
L 255.639273 266.19759 
L 258.885818 266.197581 
L 262.132364 266.197571 
L 265.378909 266.197562 
L 268.625455 266.197522 
L 271.872 266.227534 
L 275.118545 266.305221 
L 278.365091 266.406143 
L 281.611636 266.50603 
L 284.858182 266.592314 
L 288.104727 266.658335 
L 291.351273 266.705835 
L 294.597818 266.738284 
L 297.844364 266.759546 
L 301.090909 266.772957 
L 304.337455 266.781721 
L 307.584 266.78717 
L 310.830545 266.790335 
L 314.077091 266.792128 
L 317.323636 266.793259 
L 320.570182 266.794254 
L 323.816727 266.794784 
L 327.063273 266.795074 
L 330.309818 266.795172 
L 333.556364 266.795317 
L 336.802909 266.795418 
L 340.049455 266.795476 
L 343.296 266.795513 
L 346.542545 266.795526 
L 349.789091 266.79551 
L 353.035636 266.795497 
L 356.282182 266.795488 
L 359.528727 266.795479 
L 362.775273 266.795471 
L 366.021818 266.795475 
L 369.268364 266.795478 
L 372.514909 266.795482 
L 375.761455 266.795486 
L 379.008 266.79549 
L 382.254545 266.795493 
L 385.501091 266.795497 
L 388.747636 266.795501 
L 391.994182 266.795505 
L 395.240727 266.795508 
L 398.487273 266.795512 
" clip-path="url(#pd424199f86)" style="fill: none; stroke: #1f77b4; stroke-width: 1.5; stroke-linecap: square"/>
   </g>
   <g id="line2d_62">
    <path d="M 73.832727 267.064609 
L 77.079273 266.884005 
L 80.325818 266.73828 
L 83.572364 266.655717 
L 86.818909 266.605647 
L 90.065455 266.573929 
L 93.312 266.552529 
L 96.558545 266.536488 
L 99.805091 266.523738 
L 103.051636 266.513084 
L 106.298182 266.503641 
L 109.544727 266.495155 
L 112.791273 266.487225 
L 116.037818 266.479759 
L 119.284364 266.472556 
L 122.530909 266.465566 
L 125.777455 268.15223 
L 129.024 266.971509 
L 132.270545 266.30404 
L 135.517091 266.154866 
L 138.763636 266.125045 
L 142.010182 266.095223 
L 145.256727 266.065402 
L 148.503273 266.038923 
L 151.749818 266.035822 
L 154.996364 266.032721 
L 158.242909 266.02962 
L 161.489455 266.026519 
L 164.736 266.024039 
L 167.982545 266.022917 
L 171.229091 266.022205 
L 174.475636 266.030771 
L 177.722182 266.051449 
L 180.968727 266.079154 
L 184.215273 266.106915 
L 187.461818 266.13066 
L 190.708364 266.149201 
L 193.954909 266.162456 
L 197.201455 266.172708 
L 200.448 266.179539 
L 203.694545 266.183949 
L 206.941091 266.186852 
L 210.187636 266.188871 
L 213.434182 266.189706 
L 216.680727 266.19034 
L 219.927273 266.190797 
L 223.173818 266.191138 
L 226.420364 266.191256 
L 229.666909 266.191374 
L 232.913455 266.191481 
L 236.16 266.191546 
L 239.406545 266.191611 
L 242.653091 266.191669 
L 245.899636 266.191686 
L 249.146182 266.191703 
L 252.392727 266.191721 
L 255.639273 266.191738 
L 258.885818 266.191755 
L 262.132364 266.191772 
L 265.378909 266.19179 
L 268.625455 266.191781 
L 271.872 266.221397 
L 275.118545 266.298836 
L 278.365091 266.399959 
L 281.611636 266.501223 
L 284.858182 266.587585 
L 288.104727 266.654574 
L 291.351273 266.702591 
L 294.597818 266.735581 
L 297.844364 266.757401 
L 301.090909 266.771173 
L 304.337455 266.779709 
L 307.584 266.785167 
L 310.830545 266.788668 
L 314.077091 266.7909 
L 317.323636 266.79229 
L 320.570182 266.793182 
L 323.816727 266.793809 
L 327.063273 266.794319 
L 330.309818 266.794679 
L 333.556364 266.794888 
L 336.802909 266.795033 
L 340.049455 266.795114 
L 343.296 266.795182 
L 346.542545 266.795228 
L 349.789091 266.795241 
L 353.035636 266.795293 
L 356.282182 266.795261 
L 359.528727 266.79523 
L 362.775273 266.7952 
L 366.021818 266.795192 
L 369.268364 266.795184 
L 372.514909 266.795175 
L 375.761455 266.795167 
L 379.008 266.795159 
L 382.254545 266.795151 
L 385.501091 266.795143 
L 388.747636 266.795135 
L 391.994182 266.795126 
L 395.240727 266.795118 
L 398.487273 266.79511 
" clip-path="url(#pd424199f86)" style="fill: none; stroke: #ff7f0e; stroke-width: 1.5; stroke-linecap: square"/>
   </g>
   <g id="patch_27">
    <path d="M 57.6 307.584 
L 57.6 261.702621 
" style="fill: none; stroke: #000000; stroke-width: 0.8; stroke-linejoin: miter; stroke-linecap: square"/>
   </g>
   <g id="patch_28">
    <path d="M 414.72 307.584 
L 414.72 261.702621 
" style="fill: none; stroke: #000000; stroke-width: 0.8; stroke-linejoin: miter; stroke-linecap: square"/>
   </g>
   <g id="patch_29">
    <path d="M 57.6 307.584 
L 414.72 307.584 
" style="fill: none; stroke: #000000; stroke-width: 0.8; stroke-linejoin: miter; stroke-linecap: square"/>
   </g>
   <g id="patch_30">
    <path d="M 57.6 261.702621 
L 414.72 261.702621 
" style="fill: none; stroke: #000000; stroke-width: 0.8; stroke-linejoin: miter; stroke-linecap: square"/>
   </g>
   <g id="text_38">
    <!-- yC -->
    <g transform="translate(228.419062 255.702621)scale(0.12 -0.12)">
     <defs>
      <path id="DejaVuSans-43" d="M 4122 4306 
L 4122 3641 
Q 3803 3938 3442 4084 
Q 3081 4231 2675 4231 
Q 1875 4231 1450 3742 
Q 1025 3253 1025 2328 
Q 1025 1406 1450 917 
Q 1875 428 2675 428 
Q 3081 428 3442 575 
Q 3803 722 4122 1019 
L 4122 359 
Q 3791 134 3420 21 
Q 3050 -91 2638 -91 
Q 1578 -91 968 557 
Q 359 1206 359 2328 
Q 359 3453 968 4101 
Q 1578 4750 2638 4750 
Q 3056 4750 3426 4639 
Q 3797 4528 4122 4306 
z
" transform="scale(0.015625)"/>
     </defs>
     <use xlink:href="#DejaVuSans-79"/>
     <use xlink:href="#DejaVuSans-43" x="59.179688"/>
    </g>
   </g>
   <g id="legend_5">
    <g id="patch_31">
     <path d="M 329.88875 302.584 
L 407.72 302.584 
Q 409.72 302.584 409.72 300.584 
L 409.72 272.22775 
Q 409.72 270.22775 407.72 270.22775 
L 329.88875 270.22775 
Q 327.88875 270.22775 327.88875 272.22775 
L 327.88875 300.584 
Q 327.88875 302.584 329.88875 302.584 
z
" style="fill: #ffffff; opacity: 0.8; stroke: #cccccc; stroke-linejoin: miter"/>
    </g>
    <g id="line2d_63">
     <path d="M 331.88875 278.326187 
L 341.88875 278.326187 
L 351.88875 278.326187 
" style="fill: none; stroke: #1f77b4; stroke-width: 1.5; stroke-linecap: square"/>
    </g>
    <g id="text_39">
     <!-- yC0 (in) -->
     <g transform="translate(359.88875 281.826187)scale(0.1 -0.1)">
      <use xlink:href="#DejaVuSans-79"/>
      <use xlink:href="#DejaVuSans-43" x="59.179688"/>
      <use xlink:href="#DejaVuSans-30" x="129.003906"/>
      <use xlink:href="#DejaVuSans-20" x="192.626953"/>
      <use xlink:href="#DejaVuSans-28" x="224.414062"/>
      <use xlink:href="#DejaVuSans-69" x="263.427734"/>
      <use xlink:href="#DejaVuSans-6e" x="291.210938"/>
      <use xlink:href="#DejaVuSans-29" x="354.589844"/>
     </g>
    </g>
    <g id="line2d_64">
     <path d="M 331.88875 293.004312 
L 341.88875 293.004312 
L 351.88875 293.004312 
" style="fill: none; stroke: #ff7f0e; stroke-width: 1.5; stroke-linecap: square"/>
    </g>
    <g id="text_40">
     <!-- yCL (out) -->
     <g transform="translate(359.88875 296.504312)scale(0.1 -0.1)">
      <use xlink:href="#DejaVuSans-79"/>
      <use xlink:href="#DejaVuSans-43" x="59.179688"/>
      <use xlink:href="#DejaVuSans-4c" x="129.003906"/>
      <use xlink:href="#DejaVuSans-20" x="184.716797"/>
      <use xlink:href="#DejaVuSans-28" x="216.503906"/>
      <use xlink:href="#DejaVuSans-6f" x="255.517578"/>
      <use xlink:href="#DejaVuSans-75" x="316.699219"/>
      <use xlink:href="#DejaVuSans-74" x="380.078125"/>
      <use xlink:href="#DejaVuSans-29" x="419.287109"/>
     </g>
    </g>
   </g>
  </g>
 </g>
 <defs>
  <clipPath id="pfeeb0b4013">
   <rect x="57.6" y="41.472" width="357.12" height="45.881379"/>
  </clipPath>
  <clipPath id="p54a99ae6da">
   <rect x="57.6" y="96.529655" width="357.12" height="45.881379"/>
  </clipPath>
  <clipPath id="pa21bb78a7f">
   <rect x="57.6" y="151.58731" width="357.12" height="45.881379"/>
  </clipPath>
  <clipPath id="p6c866494c7">
   <rect x="57.6" y="206.644966" width="357.12" height="45.881379"/>
  </clipPath>
  <clipPath id="pd424199f86">
   <rect x="57.6" y="261.702621" width="357.12" height="45.881379"/>
  </clipPath>
 </defs>
</svg>
