<?xml version="1.0" encoding="utf-8" standalone="no"?>
<!DOCTYPE svg PUBLIC "-//W3C//DTD SVG 1.1//EN"
  "http://www.w3.org/Graphics/SVG/1.1/DTD/svg11.dtd">
<svg xmlns:xlink="http://www.w3.org/1999/xlink" width="460.8pt" height="345.6pt" viewBox="0 0 460.8 345.6" xmlns="http://www.w3.org/2000/svg" version="1.1">
 <metadata>
  <rdf:RDF xmlns:dc="http://purl.org/dc/elements/1.1/" xmlns:cc="http://creativecommons.org/ns#" xmlns:rdf="http://www.w3.org/1999/02/22-rdf-syntax-ns#">
   <cc:Work>
    <dc:type rdf:resource="http://purl.org/dc/dcmitype/StillImage"/>
    <dc:date>2022-07-10T00:05:01.555475</dc:date>
    <dc:format>image/svg+xml</dc:format>
    <dc:creator>
     <cc:Agent>
      <dc:title>Matplotlib v3.5.2, https://matplotlib.org/</dc:title>
     </cc:Agent>
    </dc:creator>
   </cc:Work>
  </rdf:RDF>
 </metadata>
 <defs>
  <style type="text/css">*{stroke-linejoin: round; stroke-linecap: butt}</style>
 </defs>
 <g id="figure_1">
  <g id="patch_1">
   <path d="M 0 345.6 
L 460.8 345.6 
L 460.8 0 
L 0 0 
z
" style="fill: #ffffff"/>
  </g>
  <g id="axes_1">
   <g id="patch_2">
    <path d="M 57.6 87.353379 
L 414.72 87.353379 
L 414.72 41.472 
L 57.6 41.472 
z
" style="fill: #ffffff"/>
   </g>
   <g id="axes_2">
    <g id="patch_3">
     <path d="M 414.72 87.353379 
L 414.72 87.353379 
L 414.72 41.472 
L 414.72 41.472 
z
" style="fill: #ffffff"/>
    </g>
    <g id="matplotlib.axis_1"/>
    <g id="matplotlib.axis_2">
     <g id="ytick_1">
      <g id="line2d_1">
       <defs>
        <path id="m16e4fefc5c" d="M 0 0 
L 3.5 0 
" style="stroke: #000000; stroke-width: 0.8"/>
       </defs>
       <g>
        <use xlink:href="#m16e4fefc5c" x="414.72" y="69.917835" style="stroke: #000000; stroke-width: 0.8"/>
       </g>
      </g>
      <g id="text_1">
       <!-- 0 -->
       <g transform="translate(421.72 73.717054)scale(0.1 -0.1)">
        <defs>
         <path id="DejaVuSans-30" d="M 2034 4250 
Q 1547 4250 1301 3770 
Q 1056 3291 1056 2328 
Q 1056 1369 1301 889 
Q 1547 409 2034 409 
Q 2525 409 2770 889 
Q 3016 1369 3016 2328 
Q 3016 3291 2770 3770 
Q 2525 4250 2034 4250 
z
M 2034 4750 
Q 2819 4750 3233 4129 
Q 3647 3509 3647 2328 
Q 3647 1150 3233 529 
Q 2819 -91 2034 -91 
Q 1250 -91 836 529 
Q 422 1150 422 2328 
Q 422 3509 836 4129 
Q 1250 4750 2034 4750 
z
" transform="scale(0.015625)"/>
        </defs>
        <use xlink:href="#DejaVuSans-30"/>
       </g>
      </g>
     </g>
     <g id="ytick_2">
      <g id="line2d_2">
       <g>
        <use xlink:href="#m16e4fefc5c" x="414.72" y="43.640765" style="stroke: #000000; stroke-width: 0.8"/>
       </g>
      </g>
      <g id="text_2">
       <!-- 1 -->
       <g transform="translate(421.72 47.439984)scale(0.1 -0.1)">
        <defs>
         <path id="DejaVuSans-31" d="M 794 531 
L 1825 531 
L 1825 4091 
L 703 3866 
L 703 4441 
L 1819 4666 
L 2450 4666 
L 2450 531 
L 3481 531 
L 3481 0 
L 794 0 
L 794 531 
z
" transform="scale(0.015625)"/>
        </defs>
        <use xlink:href="#DejaVuSans-31"/>
       </g>
      </g>
     </g>
     <g id="text_3">
      <!-- vel [m/s] -->
      <g transform="translate(439.680938 86.48769)rotate(-90)scale(0.1 -0.1)">
       <defs>
        <path id="DejaVuSans-76" d="M 191 3500 
L 800 3500 
L 1894 563 
L 2988 3500 
L 3597 3500 
L 2284 0 
L 1503 0 
L 191 3500 
z
" transform="scale(0.015625)"/>
        <path id="DejaVuSans-65" d="M 3597 1894 
L 3597 1613 
L 953 1613 
Q 991 1019 1311 708 
Q 1631 397 2203 397 
Q 2534 397 2845 478 
Q 3156 559 3463 722 
L 3463 178 
Q 3153 47 2828 -22 
Q 2503 -91 2169 -91 
Q 1331 -91 842 396 
Q 353 884 353 1716 
Q 353 2575 817 3079 
Q 1281 3584 2069 3584 
Q 2775 3584 3186 3129 
Q 3597 2675 3597 1894 
z
M 3022 2063 
Q 3016 2534 2758 2815 
Q 2500 3097 2075 3097 
Q 1594 3097 1305 2825 
Q 1016 2553 972 2059 
L 3022 2063 
z
" transform="scale(0.015625)"/>
        <path id="DejaVuSans-6c" d="M 603 4863 
L 1178 4863 
L 1178 0 
L 603 0 
L 603 4863 
z
" transform="scale(0.015625)"/>
        <path id="DejaVuSans-20" transform="scale(0.015625)"/>
        <path id="DejaVuSans-5b" d="M 550 4863 
L 1875 4863 
L 1875 4416 
L 1125 4416 
L 1125 -397 
L 1875 -397 
L 1875 -844 
L 550 -844 
L 550 4863 
z
" transform="scale(0.015625)"/>
        <path id="DejaVuSans-6d" d="M 3328 2828 
Q 3544 3216 3844 3400 
Q 4144 3584 4550 3584 
Q 5097 3584 5394 3201 
Q 5691 2819 5691 2113 
L 5691 0 
L 5113 0 
L 5113 2094 
Q 5113 2597 4934 2840 
Q 4756 3084 4391 3084 
Q 3944 3084 3684 2787 
Q 3425 2491 3425 1978 
L 3425 0 
L 2847 0 
L 2847 2094 
Q 2847 2600 2669 2842 
Q 2491 3084 2119 3084 
Q 1678 3084 1418 2786 
Q 1159 2488 1159 1978 
L 1159 0 
L 581 0 
L 581 3500 
L 1159 3500 
L 1159 2956 
Q 1356 3278 1631 3431 
Q 1906 3584 2284 3584 
Q 2666 3584 2933 3390 
Q 3200 3197 3328 2828 
z
" transform="scale(0.015625)"/>
        <path id="DejaVuSans-2f" d="M 1625 4666 
L 2156 4666 
L 531 -594 
L 0 -594 
L 1625 4666 
z
" transform="scale(0.015625)"/>
        <path id="DejaVuSans-73" d="M 2834 3397 
L 2834 2853 
Q 2591 2978 2328 3040 
Q 2066 3103 1784 3103 
Q 1356 3103 1142 2972 
Q 928 2841 928 2578 
Q 928 2378 1081 2264 
Q 1234 2150 1697 2047 
L 1894 2003 
Q 2506 1872 2764 1633 
Q 3022 1394 3022 966 
Q 3022 478 2636 193 
Q 2250 -91 1575 -91 
Q 1294 -91 989 -36 
Q 684 19 347 128 
L 347 722 
Q 666 556 975 473 
Q 1284 391 1588 391 
Q 1994 391 2212 530 
Q 2431 669 2431 922 
Q 2431 1156 2273 1281 
Q 2116 1406 1581 1522 
L 1381 1569 
Q 847 1681 609 1914 
Q 372 2147 372 2553 
Q 372 3047 722 3315 
Q 1072 3584 1716 3584 
Q 2034 3584 2315 3537 
Q 2597 3491 2834 3397 
z
" transform="scale(0.015625)"/>
        <path id="DejaVuSans-5d" d="M 1947 4863 
L 1947 -844 
L 622 -844 
L 622 -397 
L 1369 -397 
L 1369 4416 
L 622 4416 
L 622 4863 
L 1947 4863 
z
" transform="scale(0.015625)"/>
       </defs>
       <use xlink:href="#DejaVuSans-76"/>
       <use xlink:href="#DejaVuSans-65" x="59.179688"/>
       <use xlink:href="#DejaVuSans-6c" x="120.703125"/>
       <use xlink:href="#DejaVuSans-20" x="148.486328"/>
       <use xlink:href="#DejaVuSans-5b" x="180.273438"/>
       <use xlink:href="#DejaVuSans-6d" x="219.287109"/>
       <use xlink:href="#DejaVuSans-2f" x="316.699219"/>
       <use xlink:href="#DejaVuSans-73" x="350.390625"/>
       <use xlink:href="#DejaVuSans-5d" x="402.490234"/>
      </g>
     </g>
    </g>
    <g id="patch_4">
     <path d="M 414.72 87.353379 
L 414.72 41.472 
" style="fill: none; stroke: #000000; stroke-width: 0.8; stroke-linejoin: miter; stroke-linecap: square"/>
    </g>
   </g>
   <g id="matplotlib.axis_3">
    <g id="xtick_1">
     <g id="line2d_3">
      <defs>
       <path id="m08c7b1010f" d="M 0 0 
L 0 3.5 
" style="stroke: #000000; stroke-width: 0.8"/>
      </defs>
      <g>
       <use xlink:href="#m08c7b1010f" x="73.832727" y="87.353379" style="stroke: #000000; stroke-width: 0.8"/>
      </g>
     </g>
    </g>
    <g id="xtick_2">
     <g id="line2d_4">
      <g>
       <use xlink:href="#m08c7b1010f" x="116.550431" y="87.353379" style="stroke: #000000; stroke-width: 0.8"/>
      </g>
     </g>
    </g>
    <g id="xtick_3">
     <g id="line2d_5">
      <g>
       <use xlink:href="#m08c7b1010f" x="159.268134" y="87.353379" style="stroke: #000000; stroke-width: 0.8"/>
      </g>
     </g>
    </g>
    <g id="xtick_4">
     <g id="line2d_6">
      <g>
       <use xlink:href="#m08c7b1010f" x="201.985837" y="87.353379" style="stroke: #000000; stroke-width: 0.8"/>
      </g>
     </g>
    </g>
    <g id="xtick_5">
     <g id="line2d_7">
      <g>
       <use xlink:href="#m08c7b1010f" x="244.703541" y="87.353379" style="stroke: #000000; stroke-width: 0.8"/>
      </g>
     </g>
    </g>
    <g id="xtick_6">
     <g id="line2d_8">
      <g>
       <use xlink:href="#m08c7b1010f" x="287.421244" y="87.353379" style="stroke: #000000; stroke-width: 0.8"/>
      </g>
     </g>
    </g>
    <g id="xtick_7">
     <g id="line2d_9">
      <g>
       <use xlink:href="#m08c7b1010f" x="330.138947" y="87.353379" style="stroke: #000000; stroke-width: 0.8"/>
      </g>
     </g>
    </g>
    <g id="xtick_8">
     <g id="line2d_10">
      <g>
       <use xlink:href="#m08c7b1010f" x="372.856651" y="87.353379" style="stroke: #000000; stroke-width: 0.8"/>
      </g>
     </g>
    </g>
   </g>
   <g id="matplotlib.axis_4">
    <g id="ytick_3">
     <g id="line2d_11">
      <defs>
       <path id="mc8b4f9e013" d="M 0 0 
L -3.5 0 
" style="stroke: #000000; stroke-width: 0.8"/>
      </defs>
      <g>
       <use xlink:href="#mc8b4f9e013" x="57.6" y="69.917835" style="stroke: #000000; stroke-width: 0.8"/>
      </g>
     </g>
     <g id="text_4">
      <!-- 0 -->
      <g transform="translate(44.2375 73.717054)scale(0.1 -0.1)">
       <use xlink:href="#DejaVuSans-30"/>
      </g>
     </g>
    </g>
    <g id="ytick_4">
     <g id="line2d_12">
      <g>
       <use xlink:href="#mc8b4f9e013" x="57.6" y="43.640765" style="stroke: #000000; stroke-width: 0.8"/>
      </g>
     </g>
     <g id="text_5">
      <!-- 1 -->
      <g transform="translate(44.2375 47.439984)scale(0.1 -0.1)">
       <use xlink:href="#DejaVuSans-31"/>
      </g>
     </g>
    </g>
    <g id="text_6">
     <!-- vel [normalized] -->
     <g transform="translate(38.157812 105.111908)rotate(-90)scale(0.1 -0.1)">
      <defs>
       <path id="DejaVuSans-6e" d="M 3513 2113 
L 3513 0 
L 2938 0 
L 2938 2094 
Q 2938 2591 2744 2837 
Q 2550 3084 2163 3084 
Q 1697 3084 1428 2787 
Q 1159 2491 1159 1978 
L 1159 0 
L 581 0 
L 581 3500 
L 1159 3500 
L 1159 2956 
Q 1366 3272 1645 3428 
Q 1925 3584 2291 3584 
Q 2894 3584 3203 3211 
Q 3513 2838 3513 2113 
z
" transform="scale(0.015625)"/>
       <path id="DejaVuSans-6f" d="M 1959 3097 
Q 1497 3097 1228 2736 
Q 959 2375 959 1747 
Q 959 1119 1226 758 
Q 1494 397 1959 397 
Q 2419 397 2687 759 
Q 2956 1122 2956 1747 
Q 2956 2369 2687 2733 
Q 2419 3097 1959 3097 
z
M 1959 3584 
Q 2709 3584 3137 3096 
Q 3566 2609 3566 1747 
Q 3566 888 3137 398 
Q 2709 -91 1959 -91 
Q 1206 -91 779 398 
Q 353 888 353 1747 
Q 353 2609 779 3096 
Q 1206 3584 1959 3584 
z
" transform="scale(0.015625)"/>
       <path id="DejaVuSans-72" d="M 2631 2963 
Q 2534 3019 2420 3045 
Q 2306 3072 2169 3072 
Q 1681 3072 1420 2755 
Q 1159 2438 1159 1844 
L 1159 0 
L 581 0 
L 581 3500 
L 1159 3500 
L 1159 2956 
Q 1341 3275 1631 3429 
Q 1922 3584 2338 3584 
Q 2397 3584 2469 3576 
Q 2541 3569 2628 3553 
L 2631 2963 
z
" transform="scale(0.015625)"/>
       <path id="DejaVuSans-61" d="M 2194 1759 
Q 1497 1759 1228 1600 
Q 959 1441 959 1056 
Q 959 750 1161 570 
Q 1363 391 1709 391 
Q 2188 391 2477 730 
Q 2766 1069 2766 1631 
L 2766 1759 
L 2194 1759 
z
M 3341 1997 
L 3341 0 
L 2766 0 
L 2766 531 
Q 2569 213 2275 61 
Q 1981 -91 1556 -91 
Q 1019 -91 701 211 
Q 384 513 384 1019 
Q 384 1609 779 1909 
Q 1175 2209 1959 2209 
L 2766 2209 
L 2766 2266 
Q 2766 2663 2505 2880 
Q 2244 3097 1772 3097 
Q 1472 3097 1187 3025 
Q 903 2953 641 2809 
L 641 3341 
Q 956 3463 1253 3523 
Q 1550 3584 1831 3584 
Q 2591 3584 2966 3190 
Q 3341 2797 3341 1997 
z
" transform="scale(0.015625)"/>
       <path id="DejaVuSans-69" d="M 603 3500 
L 1178 3500 
L 1178 0 
L 603 0 
L 603 3500 
z
M 603 4863 
L 1178 4863 
L 1178 4134 
L 603 4134 
L 603 4863 
z
" transform="scale(0.015625)"/>
       <path id="DejaVuSans-7a" d="M 353 3500 
L 3084 3500 
L 3084 2975 
L 922 459 
L 3084 459 
L 3084 0 
L 275 0 
L 275 525 
L 2438 3041 
L 353 3041 
L 353 3500 
z
" transform="scale(0.015625)"/>
       <path id="DejaVuSans-64" d="M 2906 2969 
L 2906 4863 
L 3481 4863 
L 3481 0 
L 2906 0 
L 2906 525 
Q 2725 213 2448 61 
Q 2172 -91 1784 -91 
Q 1150 -91 751 415 
Q 353 922 353 1747 
Q 353 2572 751 3078 
Q 1150 3584 1784 3584 
Q 2172 3584 2448 3432 
Q 2725 3281 2906 2969 
z
M 947 1747 
Q 947 1113 1208 752 
Q 1469 391 1925 391 
Q 2381 391 2643 752 
Q 2906 1113 2906 1747 
Q 2906 2381 2643 2742 
Q 2381 3103 1925 3103 
Q 1469 3103 1208 2742 
Q 947 2381 947 1747 
z
" transform="scale(0.015625)"/>
      </defs>
      <use xlink:href="#DejaVuSans-76"/>
      <use xlink:href="#DejaVuSans-65" x="59.179688"/>
      <use xlink:href="#DejaVuSans-6c" x="120.703125"/>
      <use xlink:href="#DejaVuSans-20" x="148.486328"/>
      <use xlink:href="#DejaVuSans-5b" x="180.273438"/>
      <use xlink:href="#DejaVuSans-6e" x="219.287109"/>
      <use xlink:href="#DejaVuSans-6f" x="282.666016"/>
      <use xlink:href="#DejaVuSans-72" x="343.847656"/>
      <use xlink:href="#DejaVuSans-6d" x="383.210938"/>
      <use xlink:href="#DejaVuSans-61" x="480.623047"/>
      <use xlink:href="#DejaVuSans-6c" x="541.902344"/>
      <use xlink:href="#DejaVuSans-69" x="569.685547"/>
      <use xlink:href="#DejaVuSans-7a" x="597.46875"/>
      <use xlink:href="#DejaVuSans-65" x="649.958984"/>
      <use xlink:href="#DejaVuSans-64" x="711.482422"/>
      <use xlink:href="#DejaVuSans-5d" x="774.958984"/>
     </g>
    </g>
   </g>
   <g id="line2d_13">
    <path d="M 73.832727 69.920803 
L 90.919809 69.921367 
L 108.00689 69.921567 
L 125.093971 69.921506 
L 142.181053 69.921309 
L 159.268134 69.921057 
L 176.355215 69.920791 
L 193.442297 69.920529 
L 210.529378 69.920274 
L 227.616459 69.920029 
L 244.703541 69.919791 
L 261.790622 69.919559 
L 278.877703 69.919333 
L 295.964785 69.919111 
L 313.051866 69.918893 
L 330.138947 69.918678 
L 347.226029 69.918465 
L 364.31311 69.918254 
L 381.400191 69.918044 
L 398.487273 69.918044 
" clip-path="url(#p9d17c094ef)" style="fill: none; stroke: #1f77b4; stroke-width: 1.5; stroke-linecap: square"/>
   </g>
   <g id="line2d_14">
    <path d="M 73.832727 69.61895 
L 90.919809 69.635459 
L 108.00689 69.651974 
L 125.093971 69.668332 
L 142.181053 69.684483 
L 159.268134 69.700468 
L 176.355215 69.716343 
L 193.442297 69.732146 
L 210.529378 69.747898 
L 227.616459 69.763611 
L 244.703541 69.779289 
L 261.790622 69.794935 
L 278.877703 69.810551 
L 295.964785 69.826134 
L 313.051866 69.841688 
L 330.138947 69.857224 
L 347.226029 69.87281 
L 364.31311 69.888622 
L 381.400191 69.904102 
L 398.487273 69.904102 
" clip-path="url(#p9d17c094ef)" style="fill: none; stroke: #ff7f0e; stroke-width: 1.5; stroke-linecap: square"/>
   </g>
   <g id="line2d_15">
    <path d="M 73.832727 43.642573 
L 90.919809 43.644522 
L 108.00689 43.650445 
L 125.093971 43.660654 
L 142.181053 43.674423 
L 159.268134 43.690517 
L 176.355215 43.707795 
L 193.442297 43.72542 
L 210.529378 43.742809 
L 227.616459 43.759536 
L 244.703541 43.775252 
L 261.790622 43.789645 
L 278.877703 43.802416 
L 295.964785 43.81327 
L 313.051866 43.821904 
L 330.138947 43.827959 
L 347.226029 43.830775 
L 364.31311 43.828838 
L 381.400191 43.820493 
L 398.487273 43.820493 
" clip-path="url(#p9d17c094ef)" style="fill: none; stroke: #2ca02c; stroke-width: 1.5; stroke-linecap: square"/>
   </g>
   <g id="line2d_16">
    <path d="M 73.832727 43.638302 
L 90.919809 43.633367 
L 108.00689 43.628472 
L 125.093971 43.623626 
L 142.181053 43.618832 
L 159.268134 43.61409 
L 176.355215 43.609396 
L 193.442297 43.604754 
L 210.529378 43.600163 
L 227.616459 43.595628 
L 244.703541 43.591151 
L 261.790622 43.586737 
L 278.877703 43.582389 
L 295.964785 43.578107 
L 313.051866 43.573887 
L 330.138947 43.569723 
L 347.226029 43.565612 
L 364.31311 43.561546 
L 381.400191 43.557517 
L 398.487273 43.557517 
" clip-path="url(#p9d17c094ef)" style="fill: none; stroke: #d62728; stroke-width: 1.5; stroke-linecap: square"/>
   </g>
   <g id="line2d_17">
    <path d="M 73.832727 69.383004 
L 90.919809 68.848165 
L 108.00689 68.313305 
L 125.093971 67.778408 
L 142.181053 67.243459 
L 159.268134 66.708443 
L 176.355215 66.173347 
L 193.442297 65.638156 
L 210.529378 65.102853 
L 227.616459 64.567427 
L 244.703541 64.031861 
L 261.790622 63.496141 
L 278.877703 62.960253 
L 295.964785 62.424182 
L 313.051866 61.887913 
L 330.138947 61.351432 
L 347.226029 60.814724 
L 364.31311 60.277773 
L 381.400191 59.740565 
L 398.487273 59.740565 
" clip-path="url(#p9d17c094ef)" style="fill: none; stroke: #9467bd; stroke-width: 1.5; stroke-linecap: square"/>
   </g>
   <g id="line2d_18">
    <path d="M 73.832727 69.865714 
L 90.919809 69.813596 
L 108.00689 69.761482 
L 125.093971 69.709374 
L 142.181053 69.657273 
L 159.268134 69.605182 
L 176.355215 69.553101 
L 193.442297 69.501033 
L 210.529378 69.448979 
L 227.616459 69.396942 
L 244.703541 69.344923 
L 261.790622 69.292925 
L 278.877703 69.240948 
L 295.964785 69.188996 
L 313.051866 69.13707 
L 330.138947 69.085171 
L 347.226029 69.033304 
L 364.31311 68.981469 
L 381.400191 68.929669 
L 398.487273 68.929669 
" clip-path="url(#p9d17c094ef)" style="fill: none; stroke: #8c564b; stroke-width: 1.5; stroke-linecap: square"/>
   </g>
   <g id="line2d_19">
    <path d="M 73.832727 69.916533 
L 90.919809 69.915232 
L 108.00689 69.913931 
L 125.093971 69.91263 
L 142.181053 69.911329 
L 159.268134 69.910028 
L 176.355215 69.908727 
L 193.442297 69.907426 
L 210.529378 69.906125 
L 227.616459 69.904823 
L 244.703541 69.903521 
L 261.790622 69.902219 
L 278.877703 69.900917 
L 295.964785 69.899614 
L 313.051866 69.89831 
L 330.138947 69.897006 
L 347.226029 69.895701 
L 364.31311 69.894396 
L 381.400191 69.89309 
L 398.487273 69.89309 
" clip-path="url(#p9d17c094ef)" style="fill: none; stroke: #e377c2; stroke-width: 1.5; stroke-linecap: square"/>
   </g>
   <g id="line2d_20">
    <path d="M 73.832727 69.917812 
L 90.919809 69.917789 
L 108.00689 69.917766 
L 125.093971 69.917744 
L 142.181053 69.917721 
L 159.268134 69.917699 
L 176.355215 69.917676 
L 193.442297 69.917654 
L 210.529378 69.917631 
L 227.616459 69.917608 
L 244.703541 69.917585 
L 261.790622 69.917562 
L 278.877703 69.917539 
L 295.964785 69.917516 
L 313.051866 69.917493 
L 330.138947 69.917469 
L 347.226029 69.917446 
L 364.31311 69.917422 
L 381.400191 69.9174 
L 398.487273 69.9174 
" clip-path="url(#p9d17c094ef)" style="fill: none; stroke: #7f7f7f; stroke-width: 1.5; stroke-linecap: square"/>
   </g>
   <g id="line2d_21">
    <path d="M 73.832727 85.267862 
L 90.919809 84.36399 
L 108.00689 83.477186 
L 125.093971 82.606063 
L 142.181053 81.749323 
L 159.268134 80.905744 
L 176.355215 80.074173 
L 193.442297 79.253518 
L 210.529378 78.442743 
L 227.616459 77.640859 
L 244.703541 76.846919 
L 261.790622 76.060016 
L 278.877703 75.279272 
L 295.964785 74.503841 
L 313.051866 73.732899 
L 330.138947 72.965642 
L 347.226029 72.201282 
L 364.31311 71.439043 
L 381.400191 70.678152 
L 398.487273 70.678152 
" clip-path="url(#p9d17c094ef)" style="fill: none; stroke: #bcbd22; stroke-width: 1.5; stroke-linecap: square"/>
   </g>
   <g id="line2d_22">
    <path d="M 73.832727 75.663186 
L 90.919809 75.391469 
L 108.00689 75.112646 
L 125.093971 74.827774 
L 142.181053 74.537766 
L 159.268134 74.243407 
L 176.355215 73.945378 
L 193.442297 73.644261 
L 210.529378 73.340558 
L 227.616459 73.034699 
L 244.703541 72.727054 
L 261.790622 72.417937 
L 278.877703 72.107618 
L 295.964785 71.796332 
L 313.051866 71.484276 
L 330.138947 71.171623 
L 347.226029 70.858525 
L 364.31311 70.545117 
L 381.400191 70.231517 
L 398.487273 70.231517 
" clip-path="url(#p9d17c094ef)" style="fill: none; stroke: #17becf; stroke-width: 1.5; stroke-linecap: square"/>
   </g>
   <g id="line2d_23">
    <path d="M 73.832727 70.401963 
L 90.919809 70.396926 
L 108.00689 70.389027 
L 125.093971 70.378394 
L 142.181053 70.36505 
L 159.268134 70.349027 
L 176.355215 70.330387 
L 193.442297 70.30922 
L 210.529378 70.285645 
L 227.616459 70.2598 
L 244.703541 70.231846 
L 261.790622 70.201958 
L 278.877703 70.170327 
L 295.964785 70.137153 
L 313.051866 70.102646 
L 330.138947 70.067021 
L 347.226029 70.030501 
L 364.31311 69.993312 
L 381.400191 69.955681 
L 398.487273 69.955681 
" clip-path="url(#p9d17c094ef)" style="fill: none; stroke: #1f77b4; stroke-width: 1.5; stroke-linecap: square"/>
   </g>
   <g id="line2d_24">
    <path d="M 73.832727 69.953965 
L 90.919809 69.954594 
L 108.00689 69.954467 
L 125.093971 69.953903 
L 142.181053 69.953044 
L 159.268134 69.951937 
L 176.355215 69.950598 
L 193.442297 69.949037 
L 210.529378 69.947263 
L 227.616459 69.945285 
L 244.703541 69.943118 
L 261.790622 69.940774 
L 278.877703 69.93827 
L 295.964785 69.935622 
L 313.051866 69.93285 
L 330.138947 69.929973 
L 347.226029 69.927012 
L 364.31311 69.923988 
L 381.400191 69.920922 
L 398.487273 69.920922 
" clip-path="url(#p9d17c094ef)" style="fill: none; stroke: #ff7f0e; stroke-width: 1.5; stroke-linecap: square"/>
   </g>
   <g id="line2d_25">
    <path d="M 73.832727 69.922059 
L 90.919809 69.922784 
L 108.00689 69.923044 
L 125.093971 69.923013 
L 142.181053 69.922836 
L 159.268134 69.922595 
L 176.355215 69.922325 
L 193.442297 69.922038 
L 210.529378 69.921738 
L 227.616459 69.921426 
L 244.703541 69.921102 
L 261.790622 69.920768 
L 278.877703 69.920425 
L 295.964785 69.920072 
L 313.051866 69.919711 
L 330.138947 69.919344 
L 347.226029 69.918971 
L 364.31311 69.918595 
L 381.400191 69.918216 
L 398.487273 69.918216 
" clip-path="url(#p9d17c094ef)" style="fill: none; stroke: #2ca02c; stroke-width: 1.5; stroke-linecap: square"/>
   </g>
   <g id="patch_5">
    <path d="M 57.6 87.353379 
L 57.6 41.472 
" style="fill: none; stroke: #000000; stroke-width: 0.8; stroke-linejoin: miter; stroke-linecap: square"/>
   </g>
   <g id="patch_6">
    <path d="M 414.72 87.353379 
L 414.72 41.472 
" style="fill: none; stroke: #000000; stroke-width: 0.8; stroke-linejoin: miter; stroke-linecap: square"/>
   </g>
   <g id="patch_7">
    <path d="M 57.6 87.353379 
L 414.72 87.353379 
" style="fill: none; stroke: #000000; stroke-width: 0.8; stroke-linejoin: miter; stroke-linecap: square"/>
   </g>
   <g id="patch_8">
    <path d="M 57.6 41.472 
L 414.72 41.472 
" style="fill: none; stroke: #000000; stroke-width: 0.8; stroke-linejoin: miter; stroke-linecap: square"/>
   </g>
   <g id="text_7">
    <!-- velocity - Container 1  -->
    <g transform="translate(169.779375 38.472)scale(0.12 -0.12)">
     <defs>
      <path id="DejaVuSans-63" d="M 3122 3366 
L 3122 2828 
Q 2878 2963 2633 3030 
Q 2388 3097 2138 3097 
Q 1578 3097 1268 2742 
Q 959 2388 959 1747 
Q 959 1106 1268 751 
Q 1578 397 2138 397 
Q 2388 397 2633 464 
Q 2878 531 3122 666 
L 3122 134 
Q 2881 22 2623 -34 
Q 2366 -91 2075 -91 
Q 1284 -91 818 406 
Q 353 903 353 1747 
Q 353 2603 823 3093 
Q 1294 3584 2113 3584 
Q 2378 3584 2631 3529 
Q 2884 3475 3122 3366 
z
" transform="scale(0.015625)"/>
      <path id="DejaVuSans-74" d="M 1172 4494 
L 1172 3500 
L 2356 3500 
L 2356 3053 
L 1172 3053 
L 1172 1153 
Q 1172 725 1289 603 
Q 1406 481 1766 481 
L 2356 481 
L 2356 0 
L 1766 0 
Q 1100 0 847 248 
Q 594 497 594 1153 
L 594 3053 
L 172 3053 
L 172 3500 
L 594 3500 
L 594 4494 
L 1172 4494 
z
" transform="scale(0.015625)"/>
      <path id="DejaVuSans-79" d="M 2059 -325 
Q 1816 -950 1584 -1140 
Q 1353 -1331 966 -1331 
L 506 -1331 
L 506 -850 
L 844 -850 
Q 1081 -850 1212 -737 
Q 1344 -625 1503 -206 
L 1606 56 
L 191 3500 
L 800 3500 
L 1894 763 
L 2988 3500 
L 3597 3500 
L 2059 -325 
z
" transform="scale(0.015625)"/>
      <path id="DejaVuSans-2d" d="M 313 2009 
L 1997 2009 
L 1997 1497 
L 313 1497 
L 313 2009 
z
" transform="scale(0.015625)"/>
      <path id="DejaVuSans-43" d="M 4122 4306 
L 4122 3641 
Q 3803 3938 3442 4084 
Q 3081 4231 2675 4231 
Q 1875 4231 1450 3742 
Q 1025 3253 1025 2328 
Q 1025 1406 1450 917 
Q 1875 428 2675 428 
Q 3081 428 3442 575 
Q 3803 722 4122 1019 
L 4122 359 
Q 3791 134 3420 21 
Q 3050 -91 2638 -91 
Q 1578 -91 968 557 
Q 359 1206 359 2328 
Q 359 3453 968 4101 
Q 1578 4750 2638 4750 
Q 3056 4750 3426 4639 
Q 3797 4528 4122 4306 
z
" transform="scale(0.015625)"/>
     </defs>
     <use xlink:href="#DejaVuSans-76"/>
     <use xlink:href="#DejaVuSans-65" x="59.179688"/>
     <use xlink:href="#DejaVuSans-6c" x="120.703125"/>
     <use xlink:href="#DejaVuSans-6f" x="148.486328"/>
     <use xlink:href="#DejaVuSans-63" x="209.667969"/>
     <use xlink:href="#DejaVuSans-69" x="264.648438"/>
     <use xlink:href="#DejaVuSans-74" x="292.431641"/>
     <use xlink:href="#DejaVuSans-79" x="331.640625"/>
     <use xlink:href="#DejaVuSans-20" x="390.820312"/>
     <use xlink:href="#DejaVuSans-2d" x="422.607422"/>
     <use xlink:href="#DejaVuSans-20" x="458.691406"/>
     <use xlink:href="#DejaVuSans-43" x="490.478516"/>
     <use xlink:href="#DejaVuSans-6f" x="560.302734"/>
     <use xlink:href="#DejaVuSans-6e" x="621.484375"/>
     <use xlink:href="#DejaVuSans-74" x="684.863281"/>
     <use xlink:href="#DejaVuSans-61" x="724.072266"/>
     <use xlink:href="#DejaVuSans-69" x="785.351562"/>
     <use xlink:href="#DejaVuSans-6e" x="813.134766"/>
     <use xlink:href="#DejaVuSans-65" x="876.513672"/>
     <use xlink:href="#DejaVuSans-72" x="938.037109"/>
     <use xlink:href="#DejaVuSans-20" x="979.150391"/>
     <use xlink:href="#DejaVuSans-31" x="1010.9375"/>
     <use xlink:href="#DejaVuSans-20" x="1074.560547"/>
    </g>
   </g>
  </g>
  <g id="axes_3">
   <g id="patch_9">
    <path d="M 57.6 142.411034 
L 414.72 142.411034 
L 414.72 96.529655 
L 57.6 96.529655 
z
" style="fill: #ffffff"/>
   </g>
   <g id="matplotlib.axis_5">
    <g id="xtick_9">
     <g id="line2d_26">
      <g>
       <use xlink:href="#m08c7b1010f" x="73.832727" y="142.411034" style="stroke: #000000; stroke-width: 0.8"/>
      </g>
     </g>
    </g>
    <g id="xtick_10">
     <g id="line2d_27">
      <g>
       <use xlink:href="#m08c7b1010f" x="116.550431" y="142.411034" style="stroke: #000000; stroke-width: 0.8"/>
      </g>
     </g>
    </g>
    <g id="xtick_11">
     <g id="line2d_28">
      <g>
       <use xlink:href="#m08c7b1010f" x="159.268134" y="142.411034" style="stroke: #000000; stroke-width: 0.8"/>
      </g>
     </g>
    </g>
    <g id="xtick_12">
     <g id="line2d_29">
      <g>
       <use xlink:href="#m08c7b1010f" x="201.985837" y="142.411034" style="stroke: #000000; stroke-width: 0.8"/>
      </g>
     </g>
    </g>
    <g id="xtick_13">
     <g id="line2d_30">
      <g>
       <use xlink:href="#m08c7b1010f" x="244.703541" y="142.411034" style="stroke: #000000; stroke-width: 0.8"/>
      </g>
     </g>
    </g>
    <g id="xtick_14">
     <g id="line2d_31">
      <g>
       <use xlink:href="#m08c7b1010f" x="287.421244" y="142.411034" style="stroke: #000000; stroke-width: 0.8"/>
      </g>
     </g>
    </g>
    <g id="xtick_15">
     <g id="line2d_32">
      <g>
       <use xlink:href="#m08c7b1010f" x="330.138947" y="142.411034" style="stroke: #000000; stroke-width: 0.8"/>
      </g>
     </g>
    </g>
    <g id="xtick_16">
     <g id="line2d_33">
      <g>
       <use xlink:href="#m08c7b1010f" x="372.856651" y="142.411034" style="stroke: #000000; stroke-width: 0.8"/>
      </g>
     </g>
    </g>
   </g>
   <g id="matplotlib.axis_6">
    <g id="ytick_5">
     <g id="line2d_34">
      <g>
       <use xlink:href="#mc8b4f9e013" x="57.6" y="140.745252" style="stroke: #000000; stroke-width: 0.8"/>
      </g>
     </g>
     <g id="text_8">
      <!-- 0 -->
      <g transform="translate(44.2375 144.54447)scale(0.1 -0.1)">
       <use xlink:href="#DejaVuSans-30"/>
      </g>
     </g>
    </g>
    <g id="ytick_6">
     <g id="line2d_35">
      <g>
       <use xlink:href="#mc8b4f9e013" x="57.6" y="98.771621" style="stroke: #000000; stroke-width: 0.8"/>
      </g>
     </g>
     <g id="text_9">
      <!-- 1 -->
      <g transform="translate(44.2375 102.57084)scale(0.1 -0.1)">
       <use xlink:href="#DejaVuSans-31"/>
      </g>
     </g>
    </g>
   </g>
   <g id="line2d_36">
    <path d="M 73.832727 140.325517 
L 90.919809 140.325516 
L 108.00689 140.325515 
L 125.093971 140.325514 
L 142.181053 140.325513 
L 159.268134 140.325512 
L 176.355215 140.325511 
L 193.442297 140.32551 
L 210.529378 140.325509 
L 227.616459 140.325508 
L 244.703541 140.325508 
L 261.790622 140.325507 
L 278.877703 140.325507 
L 295.964785 140.325506 
L 313.051866 140.325506 
L 330.138947 140.325506 
L 347.226029 140.325505 
L 364.31311 140.325505 
L 381.400191 140.325505 
L 398.487273 140.325505 
" clip-path="url(#pb1786fdf34)" style="fill: none; stroke: #1f77b4; stroke-width: 1.5; stroke-linecap: square"/>
   </g>
   <g id="line2d_37">
    <path d="M 73.832727 99.537089 
L 90.919809 99.53718 
L 108.00689 99.537266 
L 125.093971 99.537347 
L 142.181053 99.537423 
L 159.268134 99.537494 
L 176.355215 99.53756 
L 193.442297 99.537622 
L 210.529378 99.537678 
L 227.616459 99.53773 
L 244.703541 99.537777 
L 261.790622 99.537819 
L 278.877703 99.537857 
L 295.964785 99.53789 
L 313.051866 99.537917 
L 330.138947 99.537941 
L 347.226029 99.537959 
L 364.31311 99.537973 
L 381.400191 99.537982 
L 398.487273 99.537986 
" clip-path="url(#pb1786fdf34)" style="fill: none; stroke: #ff7f0e; stroke-width: 1.5; stroke-linecap: square"/>
   </g>
   <g id="line2d_38">
    <path d="M 73.832727 98.616088 
L 90.919809 98.624096 
L 108.00689 98.632104 
L 125.093971 98.640111 
L 142.181053 98.648114 
L 159.268134 98.656113 
L 176.355215 98.664107 
L 193.442297 98.672095 
L 210.529378 98.680079 
L 227.616459 98.688057 
L 244.703541 98.69603 
L 261.790622 98.703998 
L 278.877703 98.711962 
L 295.964785 98.719922 
L 313.051866 98.727878 
L 330.138947 98.735832 
L 347.226029 98.743784 
L 364.31311 98.751736 
L 381.400191 98.759687 
L 398.487273 98.767642 
" clip-path="url(#pb1786fdf34)" style="fill: none; stroke: #2ca02c; stroke-width: 1.5; stroke-linecap: square"/>
   </g>
   <g id="line2d_39">
    <path d="M 73.832727 98.615172 
L 90.919809 98.623182 
L 108.00689 98.631194 
L 125.093971 98.639207 
L 142.181053 98.647221 
L 159.268134 98.655237 
L 176.355215 98.663254 
L 193.442297 98.671273 
L 210.529378 98.679293 
L 227.616459 98.687315 
L 244.703541 98.695338 
L 261.790622 98.703362 
L 278.877703 98.711388 
L 295.964785 98.719415 
L 313.051866 98.727443 
L 330.138947 98.735472 
L 347.226029 98.743503 
L 364.31311 98.751535 
L 381.400191 98.759569 
L 398.487273 98.767603 
" clip-path="url(#pb1786fdf34)" style="fill: none; stroke: #d62728; stroke-width: 1.5; stroke-linecap: square"/>
   </g>
   <g id="line2d_40">
    <path d="M 73.832727 122.615147 
L 90.919809 122.61531 
L 108.00689 122.615636 
L 125.093971 122.616125 
L 142.181053 122.616777 
L 159.268134 122.617592 
L 176.355215 122.61857 
L 193.442297 122.619712 
L 210.529378 122.621016 
L 227.616459 122.622484 
L 244.703541 122.624115 
L 261.790622 122.625909 
L 278.877703 122.627866 
L 295.964785 122.629987 
L 313.051866 122.632271 
L 330.138947 122.634718 
L 347.226029 122.637329 
L 364.31311 122.640104 
L 381.400191 122.643042 
L 398.487273 122.646144 
" clip-path="url(#pb1786fdf34)" style="fill: none; stroke: #9467bd; stroke-width: 1.5; stroke-linecap: square"/>
   </g>
   <g id="line2d_41">
    <path d="M 73.832727 136.290261 
L 90.919809 136.290277 
L 108.00689 136.290309 
L 125.093971 136.290356 
L 142.181053 136.29042 
L 159.268134 136.290499 
L 176.355215 136.290595 
L 193.442297 136.290706 
L 210.529378 136.290833 
L 227.616459 136.290976 
L 244.703541 136.291135 
L 261.790622 136.291309 
L 278.877703 136.2915 
L 295.964785 136.291706 
L 313.051866 136.291928 
L 330.138947 136.292166 
L 347.226029 136.29242 
L 364.31311 136.29269 
L 381.400191 136.292975 
L 398.487273 136.293276 
" clip-path="url(#pb1786fdf34)" style="fill: none; stroke: #8c564b; stroke-width: 1.5; stroke-linecap: square"/>
   </g>
   <g id="line2d_42">
    <path d="M 73.832727 136.543007 
L 90.919809 136.543008 
L 108.00689 136.543008 
L 125.093971 136.54301 
L 142.181053 136.543011 
L 159.268134 136.543013 
L 176.355215 136.543016 
L 193.442297 136.543018 
L 210.529378 136.543021 
L 227.616459 136.543025 
L 244.703541 136.543029 
L 261.790622 136.543033 
L 278.877703 136.543038 
L 295.964785 136.543043 
L 313.051866 136.543049 
L 330.138947 136.543055 
L 347.226029 136.543061 
L 364.31311 136.543068 
L 381.400191 136.543075 
L 398.487273 136.543083 
" clip-path="url(#pb1786fdf34)" style="fill: none; stroke: #e377c2; stroke-width: 1.5; stroke-linecap: square"/>
   </g>
   <g id="line2d_43">
    <path d="M 73.832727 136.547799 
L 90.919809 136.547799 
L 108.00689 136.547799 
L 125.093971 136.547799 
L 142.181053 136.547799 
L 159.268134 136.547799 
L 176.355215 136.547799 
L 193.442297 136.5478 
L 210.529378 136.5478 
L 227.616459 136.5478 
L 244.703541 136.5478 
L 261.790622 136.5478 
L 278.877703 136.5478 
L 295.964785 136.5478 
L 313.051866 136.5478 
L 330.138947 136.5478 
L 347.226029 136.5478 
L 364.31311 136.5478 
L 381.400191 136.547801 
L 398.487273 136.547801 
" clip-path="url(#pb1786fdf34)" style="fill: none; stroke: #7f7f7f; stroke-width: 1.5; stroke-linecap: square"/>
   </g>
   <g id="line2d_44">
    <path d="M 73.832727 139.812367 
L 90.919809 139.807688 
L 108.00689 139.803285 
L 125.093971 139.799152 
L 142.181053 139.795285 
L 159.268134 139.791679 
L 176.355215 139.78833 
L 193.442297 139.785234 
L 210.529378 139.782389 
L 227.616459 139.77979 
L 244.703541 139.777436 
L 261.790622 139.775324 
L 278.877703 139.773452 
L 295.964785 139.771818 
L 313.051866 139.77042 
L 330.138947 139.769257 
L 347.226029 139.768328 
L 364.31311 139.767632 
L 381.400191 139.767169 
L 398.487273 139.766937 
" clip-path="url(#pb1786fdf34)" style="fill: none; stroke: #bcbd22; stroke-width: 1.5; stroke-linecap: square"/>
   </g>
   <g id="line2d_45">
    <path d="M 73.832727 140.31531 
L 90.919809 140.313559 
L 108.00689 140.311891 
L 125.093971 140.310307 
L 142.181053 140.308811 
L 159.268134 140.307403 
L 176.355215 140.306084 
L 193.442297 140.304857 
L 210.529378 140.303721 
L 227.616459 140.302678 
L 244.703541 140.301728 
L 261.790622 140.300871 
L 278.877703 140.300109 
L 295.964785 140.299442 
L 313.051866 140.298869 
L 330.138947 140.298392 
L 347.226029 140.29801 
L 364.31311 140.297723 
L 381.400191 140.297532 
L 398.487273 140.297436 
" clip-path="url(#pb1786fdf34)" style="fill: none; stroke: #17becf; stroke-width: 1.5; stroke-linecap: square"/>
   </g>
   <g id="line2d_46">
    <path d="M 73.832727 140.325222 
L 90.919809 140.325075 
L 108.00689 140.324929 
L 125.093971 140.324785 
L 142.181053 140.324645 
L 159.268134 140.324508 
L 176.355215 140.324377 
L 193.442297 140.324251 
L 210.529378 140.324132 
L 227.616459 140.32402 
L 244.703541 140.323916 
L 261.790622 140.32382 
L 278.877703 140.323733 
L 295.964785 140.323656 
L 313.051866 140.323589 
L 330.138947 140.323533 
L 347.226029 140.323488 
L 364.31311 140.323453 
L 381.400191 140.32343 
L 398.487273 140.323419 
" clip-path="url(#pb1786fdf34)" style="fill: none; stroke: #1f77b4; stroke-width: 1.5; stroke-linecap: square"/>
   </g>
   <g id="line2d_47">
    <path d="M 73.832727 140.325507 
L 90.919809 140.325496 
L 108.00689 140.325485 
L 125.093971 140.325473 
L 142.181053 140.325462 
L 159.268134 140.325452 
L 176.355215 140.325441 
L 193.442297 140.325431 
L 210.529378 140.325422 
L 227.616459 140.325413 
L 244.703541 140.325405 
L 261.790622 140.325397 
L 278.877703 140.32539 
L 295.964785 140.325384 
L 313.051866 140.325378 
L 330.138947 140.325374 
L 347.226029 140.32537 
L 364.31311 140.325367 
L 381.400191 140.325365 
L 398.487273 140.325364 
" clip-path="url(#pb1786fdf34)" style="fill: none; stroke: #ff7f0e; stroke-width: 1.5; stroke-linecap: square"/>
   </g>
   <g id="line2d_48">
    <path d="M 73.832727 140.325515 
L 90.919809 140.325513 
L 108.00689 140.325512 
L 125.093971 140.32551 
L 142.181053 140.325509 
L 159.268134 140.325507 
L 176.355215 140.325506 
L 193.442297 140.325504 
L 210.529378 140.325503 
L 227.616459 140.325502 
L 244.703541 140.325501 
L 261.790622 140.3255 
L 278.877703 140.325499 
L 295.964785 140.325498 
L 313.051866 140.325497 
L 330.138947 140.325497 
L 347.226029 140.325496 
L 364.31311 140.325496 
L 381.400191 140.325496 
L 398.487273 140.325496 
" clip-path="url(#pb1786fdf34)" style="fill: none; stroke: #2ca02c; stroke-width: 1.5; stroke-linecap: square"/>
   </g>
   <g id="patch_10">
    <path d="M 57.6 142.411034 
L 57.6 96.529655 
" style="fill: none; stroke: #000000; stroke-width: 0.8; stroke-linejoin: miter; stroke-linecap: square"/>
   </g>
   <g id="patch_11">
    <path d="M 414.72 142.411034 
L 414.72 96.529655 
" style="fill: none; stroke: #000000; stroke-width: 0.8; stroke-linejoin: miter; stroke-linecap: square"/>
   </g>
   <g id="patch_12">
    <path d="M 57.6 142.411034 
L 414.72 142.411034 
" style="fill: none; stroke: #000000; stroke-width: 0.8; stroke-linejoin: miter; stroke-linecap: square"/>
   </g>
   <g id="patch_13">
    <path d="M 57.6 96.529655 
L 414.72 96.529655 
" style="fill: none; stroke: #000000; stroke-width: 0.8; stroke-linejoin: miter; stroke-linecap: square"/>
   </g>
   <g id="text_10">
    <!-- Pressure - Container 1 -->
    <g transform="translate(169.523438 93.529655)scale(0.12 -0.12)">
     <defs>
      <path id="DejaVuSans-50" d="M 1259 4147 
L 1259 2394 
L 2053 2394 
Q 2494 2394 2734 2622 
Q 2975 2850 2975 3272 
Q 2975 3691 2734 3919 
Q 2494 4147 2053 4147 
L 1259 4147 
z
M 628 4666 
L 2053 4666 
Q 2838 4666 3239 4311 
Q 3641 3956 3641 3272 
Q 3641 2581 3239 2228 
Q 2838 1875 2053 1875 
L 1259 1875 
L 1259 0 
L 628 0 
L 628 4666 
z
" transform="scale(0.015625)"/>
      <path id="DejaVuSans-75" d="M 544 1381 
L 544 3500 
L 1119 3500 
L 1119 1403 
Q 1119 906 1312 657 
Q 1506 409 1894 409 
Q 2359 409 2629 706 
Q 2900 1003 2900 1516 
L 2900 3500 
L 3475 3500 
L 3475 0 
L 2900 0 
L 2900 538 
Q 2691 219 2414 64 
Q 2138 -91 1772 -91 
Q 1169 -91 856 284 
Q 544 659 544 1381 
z
M 1991 3584 
L 1991 3584 
z
" transform="scale(0.015625)"/>
     </defs>
     <use xlink:href="#DejaVuSans-50"/>
     <use xlink:href="#DejaVuSans-72" x="58.552734"/>
     <use xlink:href="#DejaVuSans-65" x="97.416016"/>
     <use xlink:href="#DejaVuSans-73" x="158.939453"/>
     <use xlink:href="#DejaVuSans-73" x="211.039062"/>
     <use xlink:href="#DejaVuSans-75" x="263.138672"/>
     <use xlink:href="#DejaVuSans-72" x="326.517578"/>
     <use xlink:href="#DejaVuSans-65" x="365.380859"/>
     <use xlink:href="#DejaVuSans-20" x="426.904297"/>
     <use xlink:href="#DejaVuSans-2d" x="458.691406"/>
     <use xlink:href="#DejaVuSans-20" x="494.775391"/>
     <use xlink:href="#DejaVuSans-43" x="526.5625"/>
     <use xlink:href="#DejaVuSans-6f" x="596.386719"/>
     <use xlink:href="#DejaVuSans-6e" x="657.568359"/>
     <use xlink:href="#DejaVuSans-74" x="720.947266"/>
     <use xlink:href="#DejaVuSans-61" x="760.15625"/>
     <use xlink:href="#DejaVuSans-69" x="821.435547"/>
     <use xlink:href="#DejaVuSans-6e" x="849.21875"/>
     <use xlink:href="#DejaVuSans-65" x="912.597656"/>
     <use xlink:href="#DejaVuSans-72" x="974.121094"/>
     <use xlink:href="#DejaVuSans-20" x="1015.234375"/>
     <use xlink:href="#DejaVuSans-31" x="1047.021484"/>
    </g>
   </g>
  </g>
  <g id="axes_4">
   <g id="patch_14">
    <path d="M 57.6 197.46869 
L 414.72 197.46869 
L 414.72 151.58731 
L 57.6 151.58731 
z
" style="fill: #ffffff"/>
   </g>
   <g id="matplotlib.axis_7">
    <g id="xtick_17">
     <g id="line2d_49">
      <g>
       <use xlink:href="#m08c7b1010f" x="73.832727" y="197.46869" style="stroke: #000000; stroke-width: 0.8"/>
      </g>
     </g>
    </g>
    <g id="xtick_18">
     <g id="line2d_50">
      <g>
       <use xlink:href="#m08c7b1010f" x="116.550431" y="197.46869" style="stroke: #000000; stroke-width: 0.8"/>
      </g>
     </g>
    </g>
    <g id="xtick_19">
     <g id="line2d_51">
      <g>
       <use xlink:href="#m08c7b1010f" x="159.268134" y="197.46869" style="stroke: #000000; stroke-width: 0.8"/>
      </g>
     </g>
    </g>
    <g id="xtick_20">
     <g id="line2d_52">
      <g>
       <use xlink:href="#m08c7b1010f" x="201.985837" y="197.46869" style="stroke: #000000; stroke-width: 0.8"/>
      </g>
     </g>
    </g>
    <g id="xtick_21">
     <g id="line2d_53">
      <g>
       <use xlink:href="#m08c7b1010f" x="244.703541" y="197.46869" style="stroke: #000000; stroke-width: 0.8"/>
      </g>
     </g>
    </g>
    <g id="xtick_22">
     <g id="line2d_54">
      <g>
       <use xlink:href="#m08c7b1010f" x="287.421244" y="197.46869" style="stroke: #000000; stroke-width: 0.8"/>
      </g>
     </g>
    </g>
    <g id="xtick_23">
     <g id="line2d_55">
      <g>
       <use xlink:href="#m08c7b1010f" x="330.138947" y="197.46869" style="stroke: #000000; stroke-width: 0.8"/>
      </g>
     </g>
    </g>
    <g id="xtick_24">
     <g id="line2d_56">
      <g>
       <use xlink:href="#m08c7b1010f" x="372.856651" y="197.46869" style="stroke: #000000; stroke-width: 0.8"/>
      </g>
     </g>
    </g>
   </g>
   <g id="matplotlib.axis_8">
    <g id="ytick_7">
     <g id="line2d_57">
      <g>
       <use xlink:href="#mc8b4f9e013" x="57.6" y="196.203829" style="stroke: #000000; stroke-width: 0.8"/>
      </g>
     </g>
     <g id="text_11">
      <!-- 0 -->
      <g transform="translate(44.2375 200.003048)scale(0.1 -0.1)">
       <use xlink:href="#DejaVuSans-30"/>
      </g>
     </g>
    </g>
    <g id="ytick_8">
     <g id="line2d_58">
      <g>
       <use xlink:href="#mc8b4f9e013" x="57.6" y="152.22158" style="stroke: #000000; stroke-width: 0.8"/>
      </g>
     </g>
     <g id="text_12">
      <!-- 1 -->
      <g transform="translate(44.2375 156.020799)scale(0.1 -0.1)">
       <use xlink:href="#DejaVuSans-31"/>
      </g>
     </g>
    </g>
   </g>
   <g id="line2d_59">
    <path d="M 73.832727 154.079321 
L 90.919809 154.060645 
L 108.00689 154.029139 
L 125.093971 153.991629 
L 142.181053 153.953072 
L 159.268134 153.916159 
L 176.355215 153.882026 
L 193.442297 153.850996 
L 210.529378 153.823052 
L 227.616459 153.798057 
L 244.703541 153.775853 
L 261.790622 153.756289 
L 278.877703 153.739228 
L 295.964785 153.724553 
L 313.051866 153.712163 
L 330.138947 153.701971 
L 347.226029 153.693903 
L 364.31311 153.687901 
L 381.400191 153.683921 
L 398.487273 153.681935 
" clip-path="url(#pf7fe20abc0)" style="fill: none; stroke: #1f77b4; stroke-width: 1.5; stroke-linecap: square"/>
   </g>
   <g id="line2d_60">
    <path d="M 73.832727 194.457271 
L 90.919809 194.753791 
L 108.00689 195.006826 
L 125.093971 195.18619 
L 142.181053 195.294102 
L 159.268134 195.350683 
L 176.355215 195.375882 
L 193.442297 195.383172 
L 210.529378 195.380393 
L 227.616459 195.371832 
L 244.703541 195.359743 
L 261.790622 195.34523 
L 278.877703 195.328671 
L 295.964785 195.309855 
L 313.051866 195.287815 
L 330.138947 195.259764 
L 347.226029 195.215591 
L 364.31311 195.11156 
L 381.400191 194.812047 
L 398.487273 194.329592 
" clip-path="url(#pf7fe20abc0)" style="fill: none; stroke: #ff7f0e; stroke-width: 1.5; stroke-linecap: square"/>
   </g>
   <g id="line2d_61">
    <path d="M 73.832727 194.01833 
L 90.919809 194.040577 
L 108.00689 194.076029 
L 125.093971 194.126032 
L 142.181053 194.188706 
L 159.268134 194.260514 
L 176.355215 194.33809 
L 193.442297 194.418914 
L 210.529378 194.501166 
L 227.616459 194.583427 
L 244.703541 194.664462 
L 261.790622 194.743139 
L 278.877703 194.818388 
L 295.964785 194.889114 
L 313.051866 194.954055 
L 330.138947 195.011523 
L 347.226029 195.05863 
L 364.31311 195.089656 
L 381.400191 195.098549 
L 398.487273 195.090351 
" clip-path="url(#pf7fe20abc0)" style="fill: none; stroke: #2ca02c; stroke-width: 1.5; stroke-linecap: square"/>
   </g>
   <g id="line2d_62">
    <path d="M 73.832727 194.004828 
L 90.919809 194.005029 
L 108.00689 194.00537 
L 125.093971 194.005884 
L 142.181053 194.006582 
L 159.268134 194.007462 
L 176.355215 194.008523 
L 193.442297 194.009766 
L 210.529378 194.011201 
L 227.616459 194.012838 
L 244.703541 194.014691 
L 261.790622 194.016774 
L 278.877703 194.019105 
L 295.964785 194.021702 
L 313.051866 194.024583 
L 330.138947 194.027754 
L 347.226029 194.031203 
L 364.31311 194.034878 
L 381.400191 194.03871 
L 398.487273 194.042676 
" clip-path="url(#pf7fe20abc0)" style="fill: none; stroke: #d62728; stroke-width: 1.5; stroke-linecap: square"/>
   </g>
   <g id="line2d_63">
    <path d="M 73.832727 193.359486 
L 90.919809 193.359608 
L 108.00689 193.359755 
L 125.093971 193.359914 
L 142.181053 193.36008 
L 159.268134 193.360247 
L 176.355215 193.360414 
L 193.442297 193.360582 
L 210.529378 193.360751 
L 227.616459 193.360925 
L 244.703541 193.361103 
L 261.790622 193.361287 
L 278.877703 193.361479 
L 295.964785 193.361681 
L 313.051866 193.361892 
L 330.138947 193.362114 
L 347.226029 193.362347 
L 364.31311 193.362587 
L 381.400191 193.362829 
L 398.487273 193.363069 
" clip-path="url(#pf7fe20abc0)" style="fill: none; stroke: #9467bd; stroke-width: 1.5; stroke-linecap: square"/>
   </g>
   <g id="line2d_64">
    <path d="M 73.832727 188.549439 
L 90.919809 188.549613 
L 108.00689 188.549854 
L 125.093971 188.550132 
L 142.181053 188.550434 
L 159.268134 188.550753 
L 176.355215 188.551084 
L 193.442297 188.551429 
L 210.529378 188.551787 
L 227.616459 188.552159 
L 244.703541 188.552549 
L 261.790622 188.552957 
L 278.877703 188.553386 
L 295.964785 188.553836 
L 313.051866 188.55431 
L 330.138947 188.554809 
L 347.226029 188.555333 
L 364.31311 188.555879 
L 381.400191 188.556444 
L 398.487273 188.556993 
" clip-path="url(#pf7fe20abc0)" style="fill: none; stroke: #8c564b; stroke-width: 1.5; stroke-linecap: square"/>
   </g>
   <g id="line2d_65">
    <path d="M 73.832727 188.154086 
L 90.919809 188.154265 
L 108.00689 188.15455 
L 125.093971 188.154903 
L 142.181053 188.155305 
L 159.268134 188.155748 
L 176.355215 188.156229 
L 193.442297 188.156746 
L 210.529378 188.1573 
L 227.616459 188.157893 
L 244.703541 188.158525 
L 261.790622 188.159199 
L 278.877703 188.159916 
L 295.964785 188.160679 
L 313.051866 188.161489 
L 330.138947 188.162346 
L 347.226029 188.16325 
L 364.31311 188.164196 
L 381.400191 188.165151 
L 398.487273 188.16595 
" clip-path="url(#pf7fe20abc0)" style="fill: none; stroke: #e377c2; stroke-width: 1.5; stroke-linecap: square"/>
   </g>
   <g id="line2d_66">
    <path d="M 73.832727 188.14601 
L 90.919809 188.146172 
L 108.00689 188.146447 
L 125.093971 188.146796 
L 142.181053 188.147198 
L 159.268134 188.147644 
L 176.355215 188.148129 
L 193.442297 188.148651 
L 210.529378 188.149211 
L 227.616459 188.149811 
L 244.703541 188.150451 
L 261.790622 188.151133 
L 278.877703 188.15186 
L 295.964785 188.152632 
L 313.051866 188.153452 
L 330.138947 188.154319 
L 347.226029 188.155231 
L 364.31311 188.156173 
L 381.400191 188.15708 
L 398.487273 188.157744 
" clip-path="url(#pf7fe20abc0)" style="fill: none; stroke: #7f7f7f; stroke-width: 1.5; stroke-linecap: square"/>
   </g>
   <g id="line2d_67">
    <path d="M 73.832727 172.139494 
L 90.919809 172.193733 
L 108.00689 172.245533 
L 125.093971 172.294164 
L 142.181053 172.339687 
L 159.268134 172.382166 
L 176.355215 172.421663 
L 193.442297 172.458236 
L 210.529378 172.491936 
L 227.616459 172.522812 
L 244.703541 172.550905 
L 261.790622 172.576253 
L 278.877703 172.598891 
L 295.964785 172.618847 
L 313.051866 172.636142 
L 330.138947 172.650792 
L 347.226029 172.6628 
L 364.31311 172.672148 
L 381.400191 172.678779 
L 398.487273 172.682541 
" clip-path="url(#pf7fe20abc0)" style="fill: none; stroke: #bcbd22; stroke-width: 1.5; stroke-linecap: square"/>
   </g>
   <g id="line2d_68">
    <path d="M 73.832727 154.964145 
L 90.919809 154.961117 
L 108.00689 154.959333 
L 125.093971 154.958586 
L 142.181053 154.958683 
L 159.268134 154.959462 
L 176.355215 154.960782 
L 193.442297 154.96252 
L 210.529378 154.964569 
L 227.616459 154.966834 
L 244.703541 154.969233 
L 261.790622 154.971695 
L 278.877703 154.974156 
L 295.964785 154.976561 
L 313.051866 154.978863 
L 330.138947 154.981019 
L 347.226029 154.982989 
L 364.31311 154.984731 
L 381.400191 154.986189 
L 398.487273 154.987232 
" clip-path="url(#pf7fe20abc0)" style="fill: none; stroke: #17becf; stroke-width: 1.5; stroke-linecap: square"/>
   </g>
   <g id="line2d_69">
    <path d="M 73.832727 154.157105 
L 90.919809 154.117947 
L 108.00689 154.074939 
L 125.093971 154.034861 
L 142.181053 153.99852 
L 159.268134 153.965752 
L 176.355215 153.936271 
L 193.442297 153.909819 
L 210.529378 153.886163 
L 227.616459 153.865103 
L 244.703541 153.846467 
L 261.790622 153.830105 
L 278.877703 153.815888 
L 295.964785 153.803705 
L 313.051866 153.793462 
L 330.138947 153.785076 
L 347.226029 153.778479 
L 364.31311 153.773607 
L 381.400191 153.770399 
L 398.487273 153.768799 
" clip-path="url(#pf7fe20abc0)" style="fill: none; stroke: #1f77b4; stroke-width: 1.5; stroke-linecap: square"/>
   </g>
   <g id="line2d_70">
    <path d="M 73.832727 154.100468 
L 90.919809 154.070641 
L 108.00689 154.028792 
L 125.093971 153.985418 
L 142.181053 153.9445 
L 159.268134 153.907064 
L 176.355215 153.873172 
L 193.442297 153.842638 
L 210.529378 153.81524 
L 227.616459 153.790774 
L 244.703541 153.76906 
L 261.790622 153.74994 
L 278.877703 153.733275 
L 295.964785 153.71895 
L 313.051866 153.706864 
L 330.138947 153.696929 
L 347.226029 153.689073 
L 364.31311 153.683232 
L 381.400191 153.679356 
L 398.487273 153.677415 
" clip-path="url(#pf7fe20abc0)" style="fill: none; stroke: #ff7f0e; stroke-width: 1.5; stroke-linecap: square"/>
   </g>
   <g id="line2d_71">
    <path d="M 73.832727 154.078703 
L 90.919809 154.05727 
L 108.00689 154.022621 
L 125.093971 153.982939 
L 142.181053 153.943283 
L 159.268134 153.905971 
L 176.355215 153.871785 
L 193.442297 153.840843 
L 210.529378 153.813031 
L 227.616459 153.788177 
L 244.703541 153.766107 
L 261.790622 153.746666 
L 278.877703 153.729716 
L 295.964785 153.71514 
L 313.051866 153.702836 
L 330.138947 153.692717 
L 347.226029 153.684709 
L 364.31311 153.678751 
L 381.400191 153.6748 
L 398.487273 153.672828 
" clip-path="url(#pf7fe20abc0)" style="fill: none; stroke: #2ca02c; stroke-width: 1.5; stroke-linecap: square"/>
   </g>
   <g id="patch_15">
    <path d="M 57.6 197.46869 
L 57.6 151.58731 
" style="fill: none; stroke: #000000; stroke-width: 0.8; stroke-linejoin: miter; stroke-linecap: square"/>
   </g>
   <g id="patch_16">
    <path d="M 414.72 197.46869 
L 414.72 151.58731 
" style="fill: none; stroke: #000000; stroke-width: 0.8; stroke-linejoin: miter; stroke-linecap: square"/>
   </g>
   <g id="patch_17">
    <path d="M 57.6 197.46869 
L 414.72 197.46869 
" style="fill: none; stroke: #000000; stroke-width: 0.8; stroke-linejoin: miter; stroke-linecap: square"/>
   </g>
   <g id="patch_18">
    <path d="M 57.6 151.58731 
L 414.72 151.58731 
" style="fill: none; stroke: #000000; stroke-width: 0.8; stroke-linejoin: miter; stroke-linecap: square"/>
   </g>
   <g id="text_13">
    <!-- yA - Container 1 -->
    <g transform="translate(187.48125 148.58731)scale(0.12 -0.12)">
     <defs>
      <path id="DejaVuSans-41" d="M 2188 4044 
L 1331 1722 
L 3047 1722 
L 2188 4044 
z
M 1831 4666 
L 2547 4666 
L 4325 0 
L 3669 0 
L 3244 1197 
L 1141 1197 
L 716 0 
L 50 0 
L 1831 4666 
z
" transform="scale(0.015625)"/>
     </defs>
     <use xlink:href="#DejaVuSans-79"/>
     <use xlink:href="#DejaVuSans-41" x="59.179688"/>
     <use xlink:href="#DejaVuSans-20" x="127.587891"/>
     <use xlink:href="#DejaVuSans-2d" x="159.375"/>
     <use xlink:href="#DejaVuSans-20" x="195.458984"/>
     <use xlink:href="#DejaVuSans-43" x="227.246094"/>
     <use xlink:href="#DejaVuSans-6f" x="297.070312"/>
     <use xlink:href="#DejaVuSans-6e" x="358.251953"/>
     <use xlink:href="#DejaVuSans-74" x="421.630859"/>
     <use xlink:href="#DejaVuSans-61" x="460.839844"/>
     <use xlink:href="#DejaVuSans-69" x="522.119141"/>
     <use xlink:href="#DejaVuSans-6e" x="549.902344"/>
     <use xlink:href="#DejaVuSans-65" x="613.28125"/>
     <use xlink:href="#DejaVuSans-72" x="674.804688"/>
     <use xlink:href="#DejaVuSans-20" x="715.917969"/>
     <use xlink:href="#DejaVuSans-31" x="747.705078"/>
    </g>
   </g>
  </g>
  <g id="axes_5">
   <g id="patch_19">
    <path d="M 57.6 252.526345 
L 414.72 252.526345 
L 414.72 206.644966 
L 57.6 206.644966 
z
" style="fill: #ffffff"/>
   </g>
   <g id="matplotlib.axis_9">
    <g id="xtick_25">
     <g id="line2d_72">
      <g>
       <use xlink:href="#m08c7b1010f" x="73.832727" y="252.526345" style="stroke: #000000; stroke-width: 0.8"/>
      </g>
     </g>
    </g>
    <g id="xtick_26">
     <g id="line2d_73">
      <g>
       <use xlink:href="#m08c7b1010f" x="116.550431" y="252.526345" style="stroke: #000000; stroke-width: 0.8"/>
      </g>
     </g>
    </g>
    <g id="xtick_27">
     <g id="line2d_74">
      <g>
       <use xlink:href="#m08c7b1010f" x="159.268134" y="252.526345" style="stroke: #000000; stroke-width: 0.8"/>
      </g>
     </g>
    </g>
    <g id="xtick_28">
     <g id="line2d_75">
      <g>
       <use xlink:href="#m08c7b1010f" x="201.985837" y="252.526345" style="stroke: #000000; stroke-width: 0.8"/>
      </g>
     </g>
    </g>
    <g id="xtick_29">
     <g id="line2d_76">
      <g>
       <use xlink:href="#m08c7b1010f" x="244.703541" y="252.526345" style="stroke: #000000; stroke-width: 0.8"/>
      </g>
     </g>
    </g>
    <g id="xtick_30">
     <g id="line2d_77">
      <g>
       <use xlink:href="#m08c7b1010f" x="287.421244" y="252.526345" style="stroke: #000000; stroke-width: 0.8"/>
      </g>
     </g>
    </g>
    <g id="xtick_31">
     <g id="line2d_78">
      <g>
       <use xlink:href="#m08c7b1010f" x="330.138947" y="252.526345" style="stroke: #000000; stroke-width: 0.8"/>
      </g>
     </g>
    </g>
    <g id="xtick_32">
     <g id="line2d_79">
      <g>
       <use xlink:href="#m08c7b1010f" x="372.856651" y="252.526345" style="stroke: #000000; stroke-width: 0.8"/>
      </g>
     </g>
    </g>
   </g>
   <g id="matplotlib.axis_10">
    <g id="ytick_9">
     <g id="line2d_80">
      <g>
       <use xlink:href="#mc8b4f9e013" x="57.6" y="251.901047" style="stroke: #000000; stroke-width: 0.8"/>
      </g>
     </g>
     <g id="text_14">
      <!-- 0.0 -->
      <g transform="translate(34.696875 255.700266)scale(0.1 -0.1)">
       <defs>
        <path id="DejaVuSans-2e" d="M 684 794 
L 1344 794 
L 1344 0 
L 684 0 
L 684 794 
z
" transform="scale(0.015625)"/>
       </defs>
       <use xlink:href="#DejaVuSans-30"/>
       <use xlink:href="#DejaVuSans-2e" x="63.623047"/>
       <use xlink:href="#DejaVuSans-30" x="95.410156"/>
      </g>
     </g>
    </g>
    <g id="ytick_10">
     <g id="line2d_81">
      <g>
       <use xlink:href="#mc8b4f9e013" x="57.6" y="228.677341" style="stroke: #000000; stroke-width: 0.8"/>
      </g>
     </g>
     <g id="text_15">
      <!-- 0.5 -->
      <g transform="translate(34.696875 232.47656)scale(0.1 -0.1)">
       <defs>
        <path id="DejaVuSans-35" d="M 691 4666 
L 3169 4666 
L 3169 4134 
L 1269 4134 
L 1269 2991 
Q 1406 3038 1543 3061 
Q 1681 3084 1819 3084 
Q 2600 3084 3056 2656 
Q 3513 2228 3513 1497 
Q 3513 744 3044 326 
Q 2575 -91 1722 -91 
Q 1428 -91 1123 -41 
Q 819 9 494 109 
L 494 744 
Q 775 591 1075 516 
Q 1375 441 1709 441 
Q 2250 441 2565 725 
Q 2881 1009 2881 1497 
Q 2881 1984 2565 2268 
Q 2250 2553 1709 2553 
Q 1456 2553 1204 2497 
Q 953 2441 691 2322 
L 691 4666 
z
" transform="scale(0.015625)"/>
       </defs>
       <use xlink:href="#DejaVuSans-30"/>
       <use xlink:href="#DejaVuSans-2e" x="63.623047"/>
       <use xlink:href="#DejaVuSans-35" x="95.410156"/>
      </g>
     </g>
    </g>
   </g>
   <g id="line2d_82">
    <path d="M 73.832727 250.032125 
L 90.919809 250.050909 
L 108.00689 250.082595 
L 125.093971 250.120314 
L 142.181053 250.159084 
L 159.268134 250.196198 
L 176.355215 250.230516 
L 193.442297 250.261713 
L 210.529378 250.289809 
L 227.616459 250.314938 
L 244.703541 250.337262 
L 261.790622 250.356932 
L 278.877703 250.374085 
L 295.964785 250.38884 
L 313.051866 250.401297 
L 330.138947 250.411544 
L 347.226029 250.419656 
L 364.31311 250.425691 
L 381.400191 250.429692 
L 398.487273 250.431688 
" clip-path="url(#p619a23b765)" style="fill: none; stroke: #1f77b4; stroke-width: 1.5; stroke-linecap: square"/>
   </g>
   <g id="line2d_83">
    <path d="M 73.832727 209.646137 
L 90.919809 209.350168 
L 108.00689 209.098026 
L 125.093971 208.919964 
L 142.181053 208.813696 
L 159.268134 208.758978 
L 176.355215 208.735755 
L 193.442297 208.730483 
L 210.529378 208.735285 
L 227.616459 208.745853 
L 244.703541 208.759917 
L 261.790622 208.776367 
L 278.877703 208.794811 
L 295.964785 208.815438 
L 313.051866 208.839163 
L 330.138947 208.868644 
L 347.226029 208.91369 
L 364.31311 209.017558 
L 381.400191 209.315805 
L 398.487273 209.797055 
" clip-path="url(#p619a23b765)" style="fill: none; stroke: #ff7f0e; stroke-width: 1.5; stroke-linecap: square"/>
   </g>
   <g id="line2d_84">
    <path d="M 73.832727 210.084715 
L 90.919809 210.062389 
L 108.00689 210.02681 
L 125.093971 209.97663 
L 142.181053 209.913733 
L 159.268134 209.841675 
L 176.355215 209.76383 
L 193.442297 209.682734 
L 210.529378 209.600211 
L 227.616459 209.517693 
L 244.703541 209.436424 
L 261.790622 209.357549 
L 278.877703 209.282157 
L 295.964785 209.211366 
L 313.051866 209.146464 
L 330.138947 209.089172 
L 347.226029 209.042407 
L 364.31311 209.011927 
L 381.400191 209.003811 
L 398.487273 209.012993 
" clip-path="url(#p619a23b765)" style="fill: none; stroke: #2ca02c; stroke-width: 1.5; stroke-linecap: square"/>
   </g>
   <g id="line2d_85">
    <path d="M 73.832727 210.098265 
L 90.919809 210.098063 
L 108.00689 210.097721 
L 125.093971 210.097205 
L 142.181053 210.096505 
L 159.268134 210.095621 
L 176.355215 210.094557 
L 193.442297 210.093309 
L 210.529378 210.091869 
L 227.616459 210.090226 
L 244.703541 210.088366 
L 261.790622 210.086275 
L 278.877703 210.083937 
L 295.964785 210.08133 
L 313.051866 210.078439 
L 330.138947 210.075257 
L 347.226029 210.071796 
L 364.31311 210.068107 
L 381.400191 210.064259 
L 398.487273 210.060276 
" clip-path="url(#p619a23b765)" style="fill: none; stroke: #d62728; stroke-width: 1.5; stroke-linecap: square"/>
   </g>
   <g id="line2d_86">
    <path d="M 73.832727 210.742805 
L 90.919809 210.742683 
L 108.00689 210.742536 
L 125.093971 210.742376 
L 142.181053 210.742211 
L 159.268134 210.742043 
L 176.355215 210.741875 
L 193.442297 210.741707 
L 210.529378 210.741537 
L 227.616459 210.741363 
L 244.703541 210.741184 
L 261.790622 210.740999 
L 278.877703 210.740806 
L 295.964785 210.740603 
L 313.051866 210.740391 
L 330.138947 210.740167 
L 347.226029 210.739933 
L 364.31311 210.739692 
L 381.400191 210.739449 
L 398.487273 210.739208 
" clip-path="url(#p619a23b765)" style="fill: none; stroke: #9467bd; stroke-width: 1.5; stroke-linecap: square"/>
   </g>
   <g id="line2d_87">
    <path d="M 73.832727 215.533563 
L 90.919809 215.533388 
L 108.00689 215.533145 
L 125.093971 215.532866 
L 142.181053 215.532563 
L 159.268134 215.532243 
L 176.355215 215.53191 
L 193.442297 215.531563 
L 210.529378 215.531204 
L 227.616459 215.530829 
L 244.703541 215.530438 
L 261.790622 215.530028 
L 278.877703 215.529597 
L 295.964785 215.529144 
L 313.051866 215.528668 
L 330.138947 215.528166 
L 347.226029 215.52764 
L 364.31311 215.52709 
L 381.400191 215.526523 
L 398.487273 215.525971 
" clip-path="url(#p619a23b765)" style="fill: none; stroke: #8c564b; stroke-width: 1.5; stroke-linecap: square"/>
   </g>
   <g id="line2d_88">
    <path d="M 73.832727 215.926586 
L 90.919809 215.926407 
L 108.00689 215.926121 
L 125.093971 215.925767 
L 142.181053 215.925364 
L 159.268134 215.924919 
L 176.355215 215.924437 
L 193.442297 215.923919 
L 210.529378 215.923363 
L 227.616459 215.92277 
L 244.703541 215.922136 
L 261.790622 215.921461 
L 278.877703 215.920742 
L 295.964785 215.919977 
L 313.051866 215.919166 
L 330.138947 215.918308 
L 347.226029 215.917402 
L 364.31311 215.916454 
L 381.400191 215.915497 
L 398.487273 215.914697 
" clip-path="url(#p619a23b765)" style="fill: none; stroke: #e377c2; stroke-width: 1.5; stroke-linecap: square"/>
   </g>
   <g id="line2d_89">
    <path d="M 73.832727 215.934594 
L 90.919809 215.934432 
L 108.00689 215.934156 
L 125.093971 215.933806 
L 142.181053 215.933403 
L 159.268134 215.932956 
L 176.355215 215.93247 
L 193.442297 215.931946 
L 210.529378 215.931385 
L 227.616459 215.930784 
L 244.703541 215.930143 
L 261.790622 215.929459 
L 278.877703 215.928731 
L 295.964785 215.927957 
L 313.051866 215.927136 
L 330.138947 215.926267 
L 347.226029 215.925353 
L 364.31311 215.92441 
L 381.400191 215.923501 
L 398.487273 215.922836 
" clip-path="url(#p619a23b765)" style="fill: none; stroke: #7f7f7f; stroke-width: 1.5; stroke-linecap: square"/>
   </g>
   <g id="line2d_90">
    <path d="M 73.832727 231.942489 
L 90.919809 231.888176 
L 108.00689 231.836307 
L 125.093971 231.787611 
L 142.181053 231.742028 
L 159.268134 231.699492 
L 176.355215 231.659942 
L 193.442297 231.62332 
L 210.529378 231.589575 
L 227.616459 231.558659 
L 244.703541 231.530529 
L 261.790622 231.505146 
L 278.877703 231.482478 
L 295.964785 231.462496 
L 313.051866 231.445177 
L 330.138947 231.430508 
L 347.226029 231.418484 
L 364.31311 231.409122 
L 381.400191 231.402482 
L 398.487273 231.398715 
" clip-path="url(#p619a23b765)" style="fill: none; stroke: #bcbd22; stroke-width: 1.5; stroke-linecap: square"/>
   </g>
   <g id="line2d_91">
    <path d="M 73.832727 249.143933 
L 90.919809 249.146976 
L 108.00689 249.148768 
L 125.093971 249.149519 
L 142.181053 249.149421 
L 159.268134 249.148638 
L 176.355215 249.147311 
L 193.442297 249.145564 
L 210.529378 249.143505 
L 227.616459 249.141228 
L 244.703541 249.138817 
L 261.790622 249.136344 
L 278.877703 249.133871 
L 295.964785 249.131453 
L 313.051866 249.12914 
L 330.138947 249.126974 
L 347.226029 249.124995 
L 364.31311 249.123244 
L 381.400191 249.121779 
L 398.487273 249.120731 
" clip-path="url(#p619a23b765)" style="fill: none; stroke: #17becf; stroke-width: 1.5; stroke-linecap: square"/>
   </g>
   <g id="line2d_92">
    <path d="M 73.832727 249.95401 
L 90.919809 249.993378 
L 108.00689 250.036616 
L 125.093971 250.076907 
L 142.181053 250.113442 
L 159.268134 250.146385 
L 176.355215 250.176024 
L 193.442297 250.202618 
L 210.529378 250.226401 
L 227.616459 250.247575 
L 244.703541 250.266311 
L 261.790622 250.282761 
L 278.877703 250.297055 
L 295.964785 250.309303 
L 313.051866 250.319602 
L 330.138947 250.328033 
L 347.226029 250.334666 
L 364.31311 250.339564 
L 381.400191 250.342788 
L 398.487273 250.344397 
" clip-path="url(#p619a23b765)" style="fill: none; stroke: #1f77b4; stroke-width: 1.5; stroke-linecap: square"/>
   </g>
   <g id="line2d_93">
    <path d="M 73.832727 250.010868 
L 90.919809 250.040862 
L 108.00689 250.08294 
L 125.093971 250.126548 
L 142.181053 250.167687 
L 159.268134 250.205325 
L 176.355215 250.239398 
L 193.442297 250.270098 
L 210.529378 250.297644 
L 227.616459 250.322242 
L 244.703541 250.344074 
L 261.790622 250.363299 
L 278.877703 250.380053 
L 295.964785 250.394457 
L 313.051866 250.406609 
L 330.138947 250.416597 
L 347.226029 250.424496 
L 364.31311 250.430369 
L 381.400191 250.434266 
L 398.487273 250.436217 
" clip-path="url(#p619a23b765)" style="fill: none; stroke: #ff7f0e; stroke-width: 1.5; stroke-linecap: square"/>
   </g>
   <g id="line2d_94">
    <path d="M 73.832727 250.032732 
L 90.919809 250.054288 
L 108.00689 250.089133 
L 125.093971 250.129035 
L 142.181053 250.168907 
L 159.268134 250.206422 
L 176.355215 250.240792 
L 193.442297 250.271901 
L 210.529378 250.299863 
L 227.616459 250.324852 
L 244.703541 250.347042 
L 261.790622 250.366588 
L 278.877703 250.38363 
L 295.964785 250.398285 
L 313.051866 250.410656 
L 330.138947 250.42083 
L 347.226029 250.428882 
L 364.31311 250.434872 
L 381.400191 250.438845 
L 398.487273 250.440828 
" clip-path="url(#p619a23b765)" style="fill: none; stroke: #2ca02c; stroke-width: 1.5; stroke-linecap: square"/>
   </g>
   <g id="patch_20">
    <path d="M 57.6 252.526345 
L 57.6 206.644966 
" style="fill: none; stroke: #000000; stroke-width: 0.8; stroke-linejoin: miter; stroke-linecap: square"/>
   </g>
   <g id="patch_21">
    <path d="M 414.72 252.526345 
L 414.72 206.644966 
" style="fill: none; stroke: #000000; stroke-width: 0.8; stroke-linejoin: miter; stroke-linecap: square"/>
   </g>
   <g id="patch_22">
    <path d="M 57.6 252.526345 
L 414.72 252.526345 
" style="fill: none; stroke: #000000; stroke-width: 0.8; stroke-linejoin: miter; stroke-linecap: square"/>
   </g>
   <g id="patch_23">
    <path d="M 57.6 206.644966 
L 414.72 206.644966 
" style="fill: none; stroke: #000000; stroke-width: 0.8; stroke-linejoin: miter; stroke-linecap: square"/>
   </g>
   <g id="text_16">
    <!-- yB - Container 1 -->
    <g transform="translate(187.469063 203.644966)scale(0.12 -0.12)">
     <defs>
      <path id="DejaVuSans-42" d="M 1259 2228 
L 1259 519 
L 2272 519 
Q 2781 519 3026 730 
Q 3272 941 3272 1375 
Q 3272 1813 3026 2020 
Q 2781 2228 2272 2228 
L 1259 2228 
z
M 1259 4147 
L 1259 2741 
L 2194 2741 
Q 2656 2741 2882 2914 
Q 3109 3088 3109 3444 
Q 3109 3797 2882 3972 
Q 2656 4147 2194 4147 
L 1259 4147 
z
M 628 4666 
L 2241 4666 
Q 2963 4666 3353 4366 
Q 3744 4066 3744 3513 
Q 3744 3084 3544 2831 
Q 3344 2578 2956 2516 
Q 3422 2416 3680 2098 
Q 3938 1781 3938 1306 
Q 3938 681 3513 340 
Q 3088 0 2303 0 
L 628 0 
L 628 4666 
z
" transform="scale(0.015625)"/>
     </defs>
     <use xlink:href="#DejaVuSans-79"/>
     <use xlink:href="#DejaVuSans-42" x="59.179688"/>
     <use xlink:href="#DejaVuSans-20" x="127.783203"/>
     <use xlink:href="#DejaVuSans-2d" x="159.570312"/>
     <use xlink:href="#DejaVuSans-20" x="195.654297"/>
     <use xlink:href="#DejaVuSans-43" x="227.441406"/>
     <use xlink:href="#DejaVuSans-6f" x="297.265625"/>
     <use xlink:href="#DejaVuSans-6e" x="358.447266"/>
     <use xlink:href="#DejaVuSans-74" x="421.826172"/>
     <use xlink:href="#DejaVuSans-61" x="461.035156"/>
     <use xlink:href="#DejaVuSans-69" x="522.314453"/>
     <use xlink:href="#DejaVuSans-6e" x="550.097656"/>
     <use xlink:href="#DejaVuSans-65" x="613.476562"/>
     <use xlink:href="#DejaVuSans-72" x="675"/>
     <use xlink:href="#DejaVuSans-20" x="716.113281"/>
     <use xlink:href="#DejaVuSans-31" x="747.900391"/>
    </g>
   </g>
  </g>
  <g id="axes_6">
   <g id="patch_24">
    <path d="M 57.6 307.584 
L 414.72 307.584 
L 414.72 261.702621 
L 57.6 261.702621 
z
" style="fill: #ffffff"/>
   </g>
   <g id="matplotlib.axis_11">
    <g id="xtick_33">
     <g id="line2d_95">
      <g>
       <use xlink:href="#m08c7b1010f" x="73.832727" y="307.584" style="stroke: #000000; stroke-width: 0.8"/>
      </g>
     </g>
     <g id="text_17">
      <!-- 0.0 -->
      <g transform="translate(65.881165 322.182437)scale(0.1 -0.1)">
       <use xlink:href="#DejaVuSans-30"/>
       <use xlink:href="#DejaVuSans-2e" x="63.623047"/>
       <use xlink:href="#DejaVuSans-30" x="95.410156"/>
      </g>
     </g>
    </g>
    <g id="xtick_34">
     <g id="line2d_96">
      <g>
       <use xlink:href="#m08c7b1010f" x="116.550431" y="307.584" style="stroke: #000000; stroke-width: 0.8"/>
      </g>
     </g>
     <g id="text_18">
      <!-- 2.5 -->
      <g transform="translate(108.598868 322.182437)scale(0.1 -0.1)">
       <defs>
        <path id="DejaVuSans-32" d="M 1228 531 
L 3431 531 
L 3431 0 
L 469 0 
L 469 531 
Q 828 903 1448 1529 
Q 2069 2156 2228 2338 
Q 2531 2678 2651 2914 
Q 2772 3150 2772 3378 
Q 2772 3750 2511 3984 
Q 2250 4219 1831 4219 
Q 1534 4219 1204 4116 
Q 875 4013 500 3803 
L 500 4441 
Q 881 4594 1212 4672 
Q 1544 4750 1819 4750 
Q 2544 4750 2975 4387 
Q 3406 4025 3406 3419 
Q 3406 3131 3298 2873 
Q 3191 2616 2906 2266 
Q 2828 2175 2409 1742 
Q 1991 1309 1228 531 
z
" transform="scale(0.015625)"/>
       </defs>
       <use xlink:href="#DejaVuSans-32"/>
       <use xlink:href="#DejaVuSans-2e" x="63.623047"/>
       <use xlink:href="#DejaVuSans-35" x="95.410156"/>
      </g>
     </g>
    </g>
    <g id="xtick_35">
     <g id="line2d_97">
      <g>
       <use xlink:href="#m08c7b1010f" x="159.268134" y="307.584" style="stroke: #000000; stroke-width: 0.8"/>
      </g>
     </g>
     <g id="text_19">
      <!-- 5.0 -->
      <g transform="translate(151.316571 322.182437)scale(0.1 -0.1)">
       <use xlink:href="#DejaVuSans-35"/>
       <use xlink:href="#DejaVuSans-2e" x="63.623047"/>
       <use xlink:href="#DejaVuSans-30" x="95.410156"/>
      </g>
     </g>
    </g>
    <g id="xtick_36">
     <g id="line2d_98">
      <g>
       <use xlink:href="#m08c7b1010f" x="201.985837" y="307.584" style="stroke: #000000; stroke-width: 0.8"/>
      </g>
     </g>
     <g id="text_20">
      <!-- 7.5 -->
      <g transform="translate(194.034275 322.182437)scale(0.1 -0.1)">
       <defs>
        <path id="DejaVuSans-37" d="M 525 4666 
L 3525 4666 
L 3525 4397 
L 1831 0 
L 1172 0 
L 2766 4134 
L 525 4134 
L 525 4666 
z
" transform="scale(0.015625)"/>
       </defs>
       <use xlink:href="#DejaVuSans-37"/>
       <use xlink:href="#DejaVuSans-2e" x="63.623047"/>
       <use xlink:href="#DejaVuSans-35" x="95.410156"/>
      </g>
     </g>
    </g>
    <g id="xtick_37">
     <g id="line2d_99">
      <g>
       <use xlink:href="#m08c7b1010f" x="244.703541" y="307.584" style="stroke: #000000; stroke-width: 0.8"/>
      </g>
     </g>
     <g id="text_21">
      <!-- 10.0 -->
      <g transform="translate(233.570728 322.182437)scale(0.1 -0.1)">
       <use xlink:href="#DejaVuSans-31"/>
       <use xlink:href="#DejaVuSans-30" x="63.623047"/>
       <use xlink:href="#DejaVuSans-2e" x="127.246094"/>
       <use xlink:href="#DejaVuSans-30" x="159.033203"/>
      </g>
     </g>
    </g>
    <g id="xtick_38">
     <g id="line2d_100">
      <g>
       <use xlink:href="#m08c7b1010f" x="287.421244" y="307.584" style="stroke: #000000; stroke-width: 0.8"/>
      </g>
     </g>
     <g id="text_22">
      <!-- 12.5 -->
      <g transform="translate(276.288432 322.182437)scale(0.1 -0.1)">
       <use xlink:href="#DejaVuSans-31"/>
       <use xlink:href="#DejaVuSans-32" x="63.623047"/>
       <use xlink:href="#DejaVuSans-2e" x="127.246094"/>
       <use xlink:href="#DejaVuSans-35" x="159.033203"/>
      </g>
     </g>
    </g>
    <g id="xtick_39">
     <g id="line2d_101">
      <g>
       <use xlink:href="#m08c7b1010f" x="330.138947" y="307.584" style="stroke: #000000; stroke-width: 0.8"/>
      </g>
     </g>
     <g id="text_23">
      <!-- 15.0 -->
      <g transform="translate(319.006135 322.182437)scale(0.1 -0.1)">
       <use xlink:href="#DejaVuSans-31"/>
       <use xlink:href="#DejaVuSans-35" x="63.623047"/>
       <use xlink:href="#DejaVuSans-2e" x="127.246094"/>
       <use xlink:href="#DejaVuSans-30" x="159.033203"/>
      </g>
     </g>
    </g>
    <g id="xtick_40">
     <g id="line2d_102">
      <g>
       <use xlink:href="#m08c7b1010f" x="372.856651" y="307.584" style="stroke: #000000; stroke-width: 0.8"/>
      </g>
     </g>
     <g id="text_24">
      <!-- 17.5 -->
      <g transform="translate(361.723838 322.182437)scale(0.1 -0.1)">
       <use xlink:href="#DejaVuSans-31"/>
       <use xlink:href="#DejaVuSans-37" x="63.623047"/>
       <use xlink:href="#DejaVuSans-2e" x="127.246094"/>
       <use xlink:href="#DejaVuSans-35" x="159.033203"/>
      </g>
     </g>
    </g>
    <g id="text_25">
     <!-- position z -->
     <g transform="translate(212.142031 335.860562)scale(0.1 -0.1)">
      <defs>
       <path id="DejaVuSans-70" d="M 1159 525 
L 1159 -1331 
L 581 -1331 
L 581 3500 
L 1159 3500 
L 1159 2969 
Q 1341 3281 1617 3432 
Q 1894 3584 2278 3584 
Q 2916 3584 3314 3078 
Q 3713 2572 3713 1747 
Q 3713 922 3314 415 
Q 2916 -91 2278 -91 
Q 1894 -91 1617 61 
Q 1341 213 1159 525 
z
M 3116 1747 
Q 3116 2381 2855 2742 
Q 2594 3103 2138 3103 
Q 1681 3103 1420 2742 
Q 1159 2381 1159 1747 
Q 1159 1113 1420 752 
Q 1681 391 2138 391 
Q 2594 391 2855 752 
Q 3116 1113 3116 1747 
z
" transform="scale(0.015625)"/>
      </defs>
      <use xlink:href="#DejaVuSans-70"/>
      <use xlink:href="#DejaVuSans-6f" x="63.476562"/>
      <use xlink:href="#DejaVuSans-73" x="124.658203"/>
      <use xlink:href="#DejaVuSans-69" x="176.757812"/>
      <use xlink:href="#DejaVuSans-74" x="204.541016"/>
      <use xlink:href="#DejaVuSans-69" x="243.75"/>
      <use xlink:href="#DejaVuSans-6f" x="271.533203"/>
      <use xlink:href="#DejaVuSans-6e" x="332.714844"/>
      <use xlink:href="#DejaVuSans-20" x="396.09375"/>
      <use xlink:href="#DejaVuSans-7a" x="427.880859"/>
     </g>
    </g>
   </g>
   <g id="matplotlib.axis_12">
    <g id="ytick_11">
     <g id="line2d_103">
      <g>
       <use xlink:href="#mc8b4f9e013" x="57.6" y="306.785268" style="stroke: #000000; stroke-width: 0.8"/>
      </g>
     </g>
     <g id="text_26">
      <!-- 0.00 -->
      <g transform="translate(28.334375 310.584487)scale(0.1 -0.1)">
       <use xlink:href="#DejaVuSans-30"/>
       <use xlink:href="#DejaVuSans-2e" x="63.623047"/>
       <use xlink:href="#DejaVuSans-30" x="95.410156"/>
       <use xlink:href="#DejaVuSans-30" x="159.033203"/>
      </g>
     </g>
    </g>
    <g id="ytick_12">
     <g id="line2d_104">
      <g>
       <use xlink:href="#mc8b4f9e013" x="57.6" y="265.491564" style="stroke: #000000; stroke-width: 0.8"/>
      </g>
     </g>
     <g id="text_27">
      <!-- 0.05 -->
      <g transform="translate(28.334375 269.290783)scale(0.1 -0.1)">
       <use xlink:href="#DejaVuSans-30"/>
       <use xlink:href="#DejaVuSans-2e" x="63.623047"/>
       <use xlink:href="#DejaVuSans-30" x="95.410156"/>
       <use xlink:href="#DejaVuSans-35" x="159.033203"/>
      </g>
     </g>
    </g>
   </g>
   <g id="line2d_105">
    <path d="M 73.832727 305.132649 
L 90.919809 305.149346 
L 108.00689 305.177555 
L 125.093971 305.211202 
L 142.181053 305.245848 
L 159.268134 305.279057 
L 176.355215 305.309789 
L 193.442297 305.337735 
L 210.529378 305.362905 
L 227.616459 305.385415 
L 244.703541 305.405409 
L 261.790622 305.423025 
L 278.877703 305.438385 
L 295.964785 305.451595 
L 313.051866 305.462749 
L 330.138947 305.471925 
L 347.226029 305.479188 
L 364.31311 305.484593 
L 381.400191 305.488177 
L 398.487273 305.489965 
" clip-path="url(#pe8f7a5338a)" style="fill: none; stroke: #1f77b4; stroke-width: 1.5; stroke-linecap: square"/>
   </g>
   <g id="line2d_106">
    <path d="M 73.832727 265.034946 
L 90.919809 264.729657 
L 108.00689 264.461602 
L 125.093971 264.25969 
L 142.181053 264.122906 
L 159.268134 264.03339 
L 176.355215 263.973157 
L 193.442297 263.93 
L 210.529378 263.896801 
L 227.616459 263.869666 
L 244.703541 263.846574 
L 261.790622 263.8266 
L 278.877703 263.809588 
L 295.964785 263.796141 
L 313.051866 263.788138 
L 330.138947 263.790666 
L 347.226029 263.819165 
L 364.31311 263.925754 
L 381.400191 264.246763 
L 398.487273 264.748983 
" clip-path="url(#pe8f7a5338a)" style="fill: none; stroke: #ff7f0e; stroke-width: 1.5; stroke-linecap: square"/>
   </g>
   <g id="line2d_107">
    <path d="M 73.832727 265.47885 
L 90.919809 265.458091 
L 108.00689 265.425013 
L 125.093971 265.378346 
L 142.181053 265.319825 
L 159.268134 265.252732 
L 176.355215 265.18018 
L 193.442297 265.104489 
L 210.529378 265.027309 
L 227.616459 264.949898 
L 244.703541 264.873304 
L 261.790622 264.798413 
L 278.877703 264.72597 
L 295.964785 264.656651 
L 313.051866 264.59122 
L 330.138947 264.530828 
L 347.226029 264.47779 
L 364.31311 264.437173 
L 381.400191 264.414481 
L 398.487273 264.405174 
" clip-path="url(#pe8f7a5338a)" style="fill: none; stroke: #2ca02c; stroke-width: 1.5; stroke-linecap: square"/>
   </g>
   <g id="line2d_108">
    <path d="M 73.832727 265.49146 
L 90.919809 265.491272 
L 108.00689 265.490955 
L 125.093971 265.490475 
L 142.181053 265.489825 
L 159.268134 265.489004 
L 176.355215 265.488015 
L 193.442297 265.486855 
L 210.529378 265.485518 
L 227.616459 265.483991 
L 244.703541 265.482263 
L 261.790622 265.480321 
L 278.877703 265.478148 
L 295.964785 265.475724 
L 313.051866 265.473033 
L 330.138947 265.470068 
L 347.226029 265.466851 
L 364.31311 265.463438 
L 381.400191 265.459899 
L 398.487273 265.456249 
" clip-path="url(#pe8f7a5338a)" style="fill: none; stroke: #d62728; stroke-width: 1.5; stroke-linecap: square"/>
   </g>
   <g id="line2d_109">
    <path d="M 73.832727 266.148859 
L 90.919809 266.148741 
L 108.00689 266.148599 
L 125.093971 266.148447 
L 142.181053 266.148289 
L 159.268134 266.148131 
L 176.355215 266.147974 
L 193.442297 266.147816 
L 210.529378 266.147658 
L 227.616459 266.147498 
L 244.703541 266.147334 
L 261.790622 266.147165 
L 278.877703 266.146989 
L 295.964785 266.146806 
L 313.051866 266.146615 
L 330.138947 266.146414 
L 347.226029 266.146205 
L 364.31311 266.14599 
L 381.400191 266.145773 
L 398.487273 266.14556 
" clip-path="url(#pe8f7a5338a)" style="fill: none; stroke: #9467bd; stroke-width: 1.5; stroke-linecap: square"/>
   </g>
   <g id="line2d_110">
    <path d="M 73.832727 271.285544 
L 90.919809 271.285382 
L 108.00689 271.28516 
L 125.093971 271.284905 
L 142.181053 271.284629 
L 159.268134 271.284338 
L 176.355215 271.284035 
L 193.442297 271.283722 
L 210.529378 271.283397 
L 227.616459 271.283058 
L 244.703541 271.282704 
L 261.790622 271.282334 
L 278.877703 271.281945 
L 295.964785 271.281537 
L 313.051866 271.281107 
L 330.138947 271.280655 
L 347.226029 271.28018 
L 364.31311 271.279684 
L 381.400191 271.279172 
L 398.487273 271.27867 
" clip-path="url(#pe8f7a5338a)" style="fill: none; stroke: #8c564b; stroke-width: 1.5; stroke-linecap: square"/>
   </g>
   <g id="line2d_111">
    <path d="M 73.832727 271.720961 
L 90.919809 271.720792 
L 108.00689 271.720522 
L 125.093971 271.720189 
L 142.181053 271.719809 
L 159.268134 271.719389 
L 176.355215 271.718932 
L 193.442297 271.718439 
L 210.529378 271.717911 
L 227.616459 271.717345 
L 244.703541 271.71674 
L 261.790622 271.716093 
L 278.877703 271.715405 
L 295.964785 271.714672 
L 313.051866 271.713894 
L 330.138947 271.713069 
L 347.226029 271.712198 
L 364.31311 271.711286 
L 381.400191 271.710363 
L 398.487273 271.709591 
" clip-path="url(#pe8f7a5338a)" style="fill: none; stroke: #e377c2; stroke-width: 1.5; stroke-linecap: square"/>
   </g>
   <g id="line2d_112">
    <path d="M 73.832727 271.73022 
L 90.919809 271.730066 
L 108.00689 271.729805 
L 125.093971 271.729474 
L 142.181053 271.729092 
L 159.268134 271.728669 
L 176.355215 271.728207 
L 193.442297 271.727709 
L 210.529378 271.727174 
L 227.616459 271.7266 
L 244.703541 271.725987 
L 261.790622 271.725332 
L 278.877703 271.724634 
L 295.964785 271.72389 
L 313.051866 271.723101 
L 330.138947 271.722265 
L 347.226029 271.721385 
L 364.31311 271.720476 
L 381.400191 271.719599 
L 398.487273 271.718958 
" clip-path="url(#pe8f7a5338a)" style="fill: none; stroke: #7f7f7f; stroke-width: 1.5; stroke-linecap: square"/>
   </g>
   <g id="line2d_113">
    <path d="M 73.832727 287.657783 
L 90.919809 287.60503 
L 108.00689 287.554644 
L 125.093971 287.507337 
L 142.181053 287.463051 
L 159.268134 287.421723 
L 176.355215 287.383295 
L 193.442297 287.34771 
L 210.529378 287.31492 
L 227.616459 287.284879 
L 244.703541 287.257545 
L 261.790622 287.232881 
L 278.877703 287.210857 
L 295.964785 287.191443 
L 313.051866 287.17462 
L 330.138947 287.160372 
L 347.226029 287.148697 
L 364.31311 287.13961 
L 381.400191 287.133166 
L 398.487273 287.129512 
" clip-path="url(#pe8f7a5338a)" style="fill: none; stroke: #bcbd22; stroke-width: 1.5; stroke-linecap: square"/>
   </g>
   <g id="line2d_114">
    <path d="M 73.832727 304.310717 
L 90.919809 304.313478 
L 108.00689 304.315107 
L 125.093971 304.315794 
L 142.181053 304.315713 
L 159.268134 304.315011 
L 176.355215 304.313816 
L 193.442297 304.31224 
L 210.529378 304.31038 
L 227.616459 304.308323 
L 244.703541 304.306144 
L 261.790622 304.303906 
L 278.877703 304.301669 
L 295.964785 304.29948 
L 313.051866 304.297386 
L 330.138947 304.295423 
L 347.226029 304.293629 
L 364.31311 304.292041 
L 381.400191 304.290713 
L 398.487273 304.289761 
" clip-path="url(#pe8f7a5338a)" style="fill: none; stroke: #17becf; stroke-width: 1.5; stroke-linecap: square"/>
   </g>
   <g id="line2d_115">
    <path d="M 73.832727 305.061011 
L 90.919809 305.096301 
L 108.00689 305.135089 
L 125.093971 305.171236 
L 142.181053 305.204007 
L 159.268134 305.233548 
L 176.355215 305.26012 
L 193.442297 305.283958 
L 210.529378 305.305272 
L 227.616459 305.324245 
L 244.703541 305.341032 
L 261.790622 305.355769 
L 278.877703 305.368574 
L 295.964785 305.379546 
L 313.051866 305.388772 
L 330.138947 305.396326 
L 347.226029 305.402271 
L 364.31311 305.406662 
L 381.400191 305.409556 
L 398.487273 305.411001 
" clip-path="url(#pe8f7a5338a)" style="fill: none; stroke: #1f77b4; stroke-width: 1.5; stroke-linecap: square"/>
   </g>
   <g id="line2d_116">
    <path d="M 73.832727 305.113534 
L 90.919809 305.140297 
L 108.00689 305.177924 
L 125.093971 305.216975 
L 142.181053 305.253839 
L 159.268134 305.287568 
L 176.355215 305.3181 
L 193.442297 305.345601 
L 210.529378 305.370271 
L 227.616459 305.392296 
L 244.703541 305.41184 
L 261.790622 305.429047 
L 278.877703 305.444042 
L 295.964785 305.456932 
L 313.051866 305.467808 
L 330.138947 305.476747 
L 347.226029 305.483817 
L 364.31311 305.489075 
L 381.400191 305.492566 
L 398.487273 305.494314 
" clip-path="url(#pe8f7a5338a)" style="fill: none; stroke: #ff7f0e; stroke-width: 1.5; stroke-linecap: square"/>
   </g>
   <g id="line2d_117">
    <path d="M 73.832727 305.133458 
L 90.919809 305.152633 
L 108.00689 305.18369 
L 125.093971 305.219326 
L 142.181053 305.254992 
L 159.268134 305.288581 
L 176.355215 305.319368 
L 193.442297 305.347236 
L 210.529378 305.372282 
L 227.616459 305.39466 
L 244.703541 305.414528 
L 261.790622 305.432028 
L 278.877703 305.447282 
L 295.964785 305.460399 
L 313.051866 305.471472 
L 330.138947 305.480579 
L 347.226029 305.487787 
L 364.31311 305.49315 
L 381.400191 305.496707 
L 398.487273 305.498483 
" clip-path="url(#pe8f7a5338a)" style="fill: none; stroke: #2ca02c; stroke-width: 1.5; stroke-linecap: square"/>
   </g>
   <g id="patch_25">
    <path d="M 57.6 307.584 
L 57.6 261.702621 
" style="fill: none; stroke: #000000; stroke-width: 0.8; stroke-linejoin: miter; stroke-linecap: square"/>
   </g>
   <g id="patch_26">
    <path d="M 414.72 307.584 
L 414.72 261.702621 
" style="fill: none; stroke: #000000; stroke-width: 0.8; stroke-linejoin: miter; stroke-linecap: square"/>
   </g>
   <g id="patch_27">
    <path d="M 57.6 307.584 
L 414.72 307.584 
" style="fill: none; stroke: #000000; stroke-width: 0.8; stroke-linejoin: miter; stroke-linecap: square"/>
   </g>
   <g id="patch_28">
    <path d="M 57.6 261.702621 
L 414.72 261.702621 
" style="fill: none; stroke: #000000; stroke-width: 0.8; stroke-linejoin: miter; stroke-linecap: square"/>
   </g>
   <g id="text_28">
    <!-- yC - Container 1 -->
    <g transform="translate(187.395938 258.702621)scale(0.12 -0.12)">
     <use xlink:href="#DejaVuSans-79"/>
     <use xlink:href="#DejaVuSans-43" x="59.179688"/>
     <use xlink:href="#DejaVuSans-20" x="129.003906"/>
     <use xlink:href="#DejaVuSans-2d" x="160.791016"/>
     <use xlink:href="#DejaVuSans-20" x="196.875"/>
     <use xlink:href="#DejaVuSans-43" x="228.662109"/>
     <use xlink:href="#DejaVuSans-6f" x="298.486328"/>
     <use xlink:href="#DejaVuSans-6e" x="359.667969"/>
     <use xlink:href="#DejaVuSans-74" x="423.046875"/>
     <use xlink:href="#DejaVuSans-61" x="462.255859"/>
     <use xlink:href="#DejaVuSans-69" x="523.535156"/>
     <use xlink:href="#DejaVuSans-6e" x="551.318359"/>
     <use xlink:href="#DejaVuSans-65" x="614.697266"/>
     <use xlink:href="#DejaVuSans-72" x="676.220703"/>
     <use xlink:href="#DejaVuSans-20" x="717.333984"/>
     <use xlink:href="#DejaVuSans-31" x="749.121094"/>
    </g>
   </g>
  </g>
  <g id="legend_1">
   <g id="patch_29">
    <path d="M 372.146875 269.707812 
L 457.8 269.707812 
Q 459.8 269.707812 459.8 267.707812 
L 459.8 77.892187 
Q 459.8 75.892187 457.8 75.892187 
L 372.146875 75.892187 
Q 370.146875 75.892187 370.146875 77.892187 
L 370.146875 267.707812 
Q 370.146875 269.707812 372.146875 269.707812 
z
" style="fill: #ffffff; opacity: 0.8; stroke: #cccccc; stroke-linejoin: miter"/>
   </g>
   <g id="line2d_118">
    <path d="M 374.146875 83.990625 
L 384.146875 83.990625 
L 394.146875 83.990625 
" style="fill: none; stroke: #1f77b4; stroke-width: 1.5; stroke-linecap: square"/>
   </g>
   <g id="text_29">
    <!-- t=0.0000 -->
    <g transform="translate(402.146875 87.490625)scale(0.1 -0.1)">
     <defs>
      <path id="DejaVuSans-3d" d="M 678 2906 
L 4684 2906 
L 4684 2381 
L 678 2381 
L 678 2906 
z
M 678 1631 
L 4684 1631 
L 4684 1100 
L 678 1100 
L 678 1631 
z
" transform="scale(0.015625)"/>
     </defs>
     <use xlink:href="#DejaVuSans-74"/>
     <use xlink:href="#DejaVuSans-3d" x="39.208984"/>
     <use xlink:href="#DejaVuSans-30" x="122.998047"/>
     <use xlink:href="#DejaVuSans-2e" x="186.621094"/>
     <use xlink:href="#DejaVuSans-30" x="218.408203"/>
     <use xlink:href="#DejaVuSans-30" x="282.03125"/>
     <use xlink:href="#DejaVuSans-30" x="345.654297"/>
     <use xlink:href="#DejaVuSans-30" x="409.277344"/>
    </g>
   </g>
   <g id="line2d_119">
    <path d="M 374.146875 98.66875 
L 384.146875 98.66875 
L 394.146875 98.66875 
" style="fill: none; stroke: #ff7f0e; stroke-width: 1.5; stroke-linecap: square"/>
   </g>
   <g id="text_30">
    <!-- t=8.0000 -->
    <g transform="translate(402.146875 102.16875)scale(0.1 -0.1)">
     <defs>
      <path id="DejaVuSans-38" d="M 2034 2216 
Q 1584 2216 1326 1975 
Q 1069 1734 1069 1313 
Q 1069 891 1326 650 
Q 1584 409 2034 409 
Q 2484 409 2743 651 
Q 3003 894 3003 1313 
Q 3003 1734 2745 1975 
Q 2488 2216 2034 2216 
z
M 1403 2484 
Q 997 2584 770 2862 
Q 544 3141 544 3541 
Q 544 4100 942 4425 
Q 1341 4750 2034 4750 
Q 2731 4750 3128 4425 
Q 3525 4100 3525 3541 
Q 3525 3141 3298 2862 
Q 3072 2584 2669 2484 
Q 3125 2378 3379 2068 
Q 3634 1759 3634 1313 
Q 3634 634 3220 271 
Q 2806 -91 2034 -91 
Q 1263 -91 848 271 
Q 434 634 434 1313 
Q 434 1759 690 2068 
Q 947 2378 1403 2484 
z
M 1172 3481 
Q 1172 3119 1398 2916 
Q 1625 2713 2034 2713 
Q 2441 2713 2670 2916 
Q 2900 3119 2900 3481 
Q 2900 3844 2670 4047 
Q 2441 4250 2034 4250 
Q 1625 4250 1398 4047 
Q 1172 3844 1172 3481 
z
" transform="scale(0.015625)"/>
     </defs>
     <use xlink:href="#DejaVuSans-74"/>
     <use xlink:href="#DejaVuSans-3d" x="39.208984"/>
     <use xlink:href="#DejaVuSans-38" x="122.998047"/>
     <use xlink:href="#DejaVuSans-2e" x="186.621094"/>
     <use xlink:href="#DejaVuSans-30" x="218.408203"/>
     <use xlink:href="#DejaVuSans-30" x="282.03125"/>
     <use xlink:href="#DejaVuSans-30" x="345.654297"/>
     <use xlink:href="#DejaVuSans-30" x="409.277344"/>
    </g>
   </g>
   <g id="line2d_120">
    <path d="M 374.146875 113.346875 
L 384.146875 113.346875 
L 394.146875 113.346875 
" style="fill: none; stroke: #2ca02c; stroke-width: 1.5; stroke-linecap: square"/>
   </g>
   <g id="text_31">
    <!-- t=16.0000 -->
    <g transform="translate(402.146875 116.846875)scale(0.1 -0.1)">
     <defs>
      <path id="DejaVuSans-36" d="M 2113 2584 
Q 1688 2584 1439 2293 
Q 1191 2003 1191 1497 
Q 1191 994 1439 701 
Q 1688 409 2113 409 
Q 2538 409 2786 701 
Q 3034 994 3034 1497 
Q 3034 2003 2786 2293 
Q 2538 2584 2113 2584 
z
M 3366 4563 
L 3366 3988 
Q 3128 4100 2886 4159 
Q 2644 4219 2406 4219 
Q 1781 4219 1451 3797 
Q 1122 3375 1075 2522 
Q 1259 2794 1537 2939 
Q 1816 3084 2150 3084 
Q 2853 3084 3261 2657 
Q 3669 2231 3669 1497 
Q 3669 778 3244 343 
Q 2819 -91 2113 -91 
Q 1303 -91 875 529 
Q 447 1150 447 2328 
Q 447 3434 972 4092 
Q 1497 4750 2381 4750 
Q 2619 4750 2861 4703 
Q 3103 4656 3366 4563 
z
" transform="scale(0.015625)"/>
     </defs>
     <use xlink:href="#DejaVuSans-74"/>
     <use xlink:href="#DejaVuSans-3d" x="39.208984"/>
     <use xlink:href="#DejaVuSans-31" x="122.998047"/>
     <use xlink:href="#DejaVuSans-36" x="186.621094"/>
     <use xlink:href="#DejaVuSans-2e" x="250.244141"/>
     <use xlink:href="#DejaVuSans-30" x="282.03125"/>
     <use xlink:href="#DejaVuSans-30" x="345.654297"/>
     <use xlink:href="#DejaVuSans-30" x="409.277344"/>
     <use xlink:href="#DejaVuSans-30" x="472.900391"/>
    </g>
   </g>
   <g id="line2d_121">
    <path d="M 374.146875 128.025 
L 384.146875 128.025 
L 394.146875 128.025 
" style="fill: none; stroke: #d62728; stroke-width: 1.5; stroke-linecap: square"/>
   </g>
   <g id="text_32">
    <!-- t=24.0000 -->
    <g transform="translate(402.146875 131.525)scale(0.1 -0.1)">
     <defs>
      <path id="DejaVuSans-34" d="M 2419 4116 
L 825 1625 
L 2419 1625 
L 2419 4116 
z
M 2253 4666 
L 3047 4666 
L 3047 1625 
L 3713 1625 
L 3713 1100 
L 3047 1100 
L 3047 0 
L 2419 0 
L 2419 1100 
L 313 1100 
L 313 1709 
L 2253 4666 
z
" transform="scale(0.015625)"/>
     </defs>
     <use xlink:href="#DejaVuSans-74"/>
     <use xlink:href="#DejaVuSans-3d" x="39.208984"/>
     <use xlink:href="#DejaVuSans-32" x="122.998047"/>
     <use xlink:href="#DejaVuSans-34" x="186.621094"/>
     <use xlink:href="#DejaVuSans-2e" x="250.244141"/>
     <use xlink:href="#DejaVuSans-30" x="282.03125"/>
     <use xlink:href="#DejaVuSans-30" x="345.654297"/>
     <use xlink:href="#DejaVuSans-30" x="409.277344"/>
     <use xlink:href="#DejaVuSans-30" x="472.900391"/>
    </g>
   </g>
   <g id="line2d_122">
    <path d="M 374.146875 142.703125 
L 384.146875 142.703125 
L 394.146875 142.703125 
" style="fill: none; stroke: #9467bd; stroke-width: 1.5; stroke-linecap: square"/>
   </g>
   <g id="text_33">
    <!-- t=32.0000 -->
    <g transform="translate(402.146875 146.203125)scale(0.1 -0.1)">
     <defs>
      <path id="DejaVuSans-33" d="M 2597 2516 
Q 3050 2419 3304 2112 
Q 3559 1806 3559 1356 
Q 3559 666 3084 287 
Q 2609 -91 1734 -91 
Q 1441 -91 1130 -33 
Q 819 25 488 141 
L 488 750 
Q 750 597 1062 519 
Q 1375 441 1716 441 
Q 2309 441 2620 675 
Q 2931 909 2931 1356 
Q 2931 1769 2642 2001 
Q 2353 2234 1838 2234 
L 1294 2234 
L 1294 2753 
L 1863 2753 
Q 2328 2753 2575 2939 
Q 2822 3125 2822 3475 
Q 2822 3834 2567 4026 
Q 2313 4219 1838 4219 
Q 1578 4219 1281 4162 
Q 984 4106 628 3988 
L 628 4550 
Q 988 4650 1302 4700 
Q 1616 4750 1894 4750 
Q 2613 4750 3031 4423 
Q 3450 4097 3450 3541 
Q 3450 3153 3228 2886 
Q 3006 2619 2597 2516 
z
" transform="scale(0.015625)"/>
     </defs>
     <use xlink:href="#DejaVuSans-74"/>
     <use xlink:href="#DejaVuSans-3d" x="39.208984"/>
     <use xlink:href="#DejaVuSans-33" x="122.998047"/>
     <use xlink:href="#DejaVuSans-32" x="186.621094"/>
     <use xlink:href="#DejaVuSans-2e" x="250.244141"/>
     <use xlink:href="#DejaVuSans-30" x="282.03125"/>
     <use xlink:href="#DejaVuSans-30" x="345.654297"/>
     <use xlink:href="#DejaVuSans-30" x="409.277344"/>
     <use xlink:href="#DejaVuSans-30" x="472.900391"/>
    </g>
   </g>
   <g id="line2d_123">
    <path d="M 374.146875 157.38125 
L 384.146875 157.38125 
L 394.146875 157.38125 
" style="fill: none; stroke: #8c564b; stroke-width: 1.5; stroke-linecap: square"/>
   </g>
   <g id="text_34">
    <!-- t=40.0000 -->
    <g transform="translate(402.146875 160.88125)scale(0.1 -0.1)">
     <use xlink:href="#DejaVuSans-74"/>
     <use xlink:href="#DejaVuSans-3d" x="39.208984"/>
     <use xlink:href="#DejaVuSans-34" x="122.998047"/>
     <use xlink:href="#DejaVuSans-30" x="186.621094"/>
     <use xlink:href="#DejaVuSans-2e" x="250.244141"/>
     <use xlink:href="#DejaVuSans-30" x="282.03125"/>
     <use xlink:href="#DejaVuSans-30" x="345.654297"/>
     <use xlink:href="#DejaVuSans-30" x="409.277344"/>
     <use xlink:href="#DejaVuSans-30" x="472.900391"/>
    </g>
   </g>
   <g id="line2d_124">
    <path d="M 374.146875 172.059375 
L 384.146875 172.059375 
L 394.146875 172.059375 
" style="fill: none; stroke: #e377c2; stroke-width: 1.5; stroke-linecap: square"/>
   </g>
   <g id="text_35">
    <!-- t=48.0000 -->
    <g transform="translate(402.146875 175.559375)scale(0.1 -0.1)">
     <use xlink:href="#DejaVuSans-74"/>
     <use xlink:href="#DejaVuSans-3d" x="39.208984"/>
     <use xlink:href="#DejaVuSans-34" x="122.998047"/>
     <use xlink:href="#DejaVuSans-38" x="186.621094"/>
     <use xlink:href="#DejaVuSans-2e" x="250.244141"/>
     <use xlink:href="#DejaVuSans-30" x="282.03125"/>
     <use xlink:href="#DejaVuSans-30" x="345.654297"/>
     <use xlink:href="#DejaVuSans-30" x="409.277344"/>
     <use xlink:href="#DejaVuSans-30" x="472.900391"/>
    </g>
   </g>
   <g id="line2d_125">
    <path d="M 374.146875 186.7375 
L 384.146875 186.7375 
L 394.146875 186.7375 
" style="fill: none; stroke: #7f7f7f; stroke-width: 1.5; stroke-linecap: square"/>
   </g>
   <g id="text_36">
    <!-- t=56.0000 -->
    <g transform="translate(402.146875 190.2375)scale(0.1 -0.1)">
     <use xlink:href="#DejaVuSans-74"/>
     <use xlink:href="#DejaVuSans-3d" x="39.208984"/>
     <use xlink:href="#DejaVuSans-35" x="122.998047"/>
     <use xlink:href="#DejaVuSans-36" x="186.621094"/>
     <use xlink:href="#DejaVuSans-2e" x="250.244141"/>
     <use xlink:href="#DejaVuSans-30" x="282.03125"/>
     <use xlink:href="#DejaVuSans-30" x="345.654297"/>
     <use xlink:href="#DejaVuSans-30" x="409.277344"/>
     <use xlink:href="#DejaVuSans-30" x="472.900391"/>
    </g>
   </g>
   <g id="line2d_126">
    <path d="M 374.146875 201.415625 
L 384.146875 201.415625 
L 394.146875 201.415625 
" style="fill: none; stroke: #bcbd22; stroke-width: 1.5; stroke-linecap: square"/>
   </g>
   <g id="text_37">
    <!-- t=64.0000 -->
    <g transform="translate(402.146875 204.915625)scale(0.1 -0.1)">
     <use xlink:href="#DejaVuSans-74"/>
     <use xlink:href="#DejaVuSans-3d" x="39.208984"/>
     <use xlink:href="#DejaVuSans-36" x="122.998047"/>
     <use xlink:href="#DejaVuSans-34" x="186.621094"/>
     <use xlink:href="#DejaVuSans-2e" x="250.244141"/>
     <use xlink:href="#DejaVuSans-30" x="282.03125"/>
     <use xlink:href="#DejaVuSans-30" x="345.654297"/>
     <use xlink:href="#DejaVuSans-30" x="409.277344"/>
     <use xlink:href="#DejaVuSans-30" x="472.900391"/>
    </g>
   </g>
   <g id="line2d_127">
    <path d="M 374.146875 216.09375 
L 384.146875 216.09375 
L 394.146875 216.09375 
" style="fill: none; stroke: #17becf; stroke-width: 1.5; stroke-linecap: square"/>
   </g>
   <g id="text_38">
    <!-- t=72.0000 -->
    <g transform="translate(402.146875 219.59375)scale(0.1 -0.1)">
     <use xlink:href="#DejaVuSans-74"/>
     <use xlink:href="#DejaVuSans-3d" x="39.208984"/>
     <use xlink:href="#DejaVuSans-37" x="122.998047"/>
     <use xlink:href="#DejaVuSans-32" x="186.621094"/>
     <use xlink:href="#DejaVuSans-2e" x="250.244141"/>
     <use xlink:href="#DejaVuSans-30" x="282.03125"/>
     <use xlink:href="#DejaVuSans-30" x="345.654297"/>
     <use xlink:href="#DejaVuSans-30" x="409.277344"/>
     <use xlink:href="#DejaVuSans-30" x="472.900391"/>
    </g>
   </g>
   <g id="line2d_128">
    <path d="M 374.146875 230.771875 
L 384.146875 230.771875 
L 394.146875 230.771875 
" style="fill: none; stroke: #1f77b4; stroke-width: 1.5; stroke-linecap: square"/>
   </g>
   <g id="text_39">
    <!-- t=80.0000 -->
    <g transform="translate(402.146875 234.271875)scale(0.1 -0.1)">
     <use xlink:href="#DejaVuSans-74"/>
     <use xlink:href="#DejaVuSans-3d" x="39.208984"/>
     <use xlink:href="#DejaVuSans-38" x="122.998047"/>
     <use xlink:href="#DejaVuSans-30" x="186.621094"/>
     <use xlink:href="#DejaVuSans-2e" x="250.244141"/>
     <use xlink:href="#DejaVuSans-30" x="282.03125"/>
     <use xlink:href="#DejaVuSans-30" x="345.654297"/>
     <use xlink:href="#DejaVuSans-30" x="409.277344"/>
     <use xlink:href="#DejaVuSans-30" x="472.900391"/>
    </g>
   </g>
   <g id="line2d_129">
    <path d="M 374.146875 245.45 
L 384.146875 245.45 
L 394.146875 245.45 
" style="fill: none; stroke: #ff7f0e; stroke-width: 1.5; stroke-linecap: square"/>
   </g>
   <g id="text_40">
    <!-- t=88.0000 -->
    <g transform="translate(402.146875 248.95)scale(0.1 -0.1)">
     <use xlink:href="#DejaVuSans-74"/>
     <use xlink:href="#DejaVuSans-3d" x="39.208984"/>
     <use xlink:href="#DejaVuSans-38" x="122.998047"/>
     <use xlink:href="#DejaVuSans-38" x="186.621094"/>
     <use xlink:href="#DejaVuSans-2e" x="250.244141"/>
     <use xlink:href="#DejaVuSans-30" x="282.03125"/>
     <use xlink:href="#DejaVuSans-30" x="345.654297"/>
     <use xlink:href="#DejaVuSans-30" x="409.277344"/>
     <use xlink:href="#DejaVuSans-30" x="472.900391"/>
    </g>
   </g>
   <g id="line2d_130">
    <path d="M 374.146875 260.128125 
L 384.146875 260.128125 
L 394.146875 260.128125 
" style="fill: none; stroke: #2ca02c; stroke-width: 1.5; stroke-linecap: square"/>
   </g>
   <g id="text_41">
    <!-- t=96.0000 -->
    <g transform="translate(402.146875 263.628125)scale(0.1 -0.1)">
     <defs>
      <path id="DejaVuSans-39" d="M 703 97 
L 703 672 
Q 941 559 1184 500 
Q 1428 441 1663 441 
Q 2288 441 2617 861 
Q 2947 1281 2994 2138 
Q 2813 1869 2534 1725 
Q 2256 1581 1919 1581 
Q 1219 1581 811 2004 
Q 403 2428 403 3163 
Q 403 3881 828 4315 
Q 1253 4750 1959 4750 
Q 2769 4750 3195 4129 
Q 3622 3509 3622 2328 
Q 3622 1225 3098 567 
Q 2575 -91 1691 -91 
Q 1453 -91 1209 -44 
Q 966 3 703 97 
z
M 1959 2075 
Q 2384 2075 2632 2365 
Q 2881 2656 2881 3163 
Q 2881 3666 2632 3958 
Q 2384 4250 1959 4250 
Q 1534 4250 1286 3958 
Q 1038 3666 1038 3163 
Q 1038 2656 1286 2365 
Q 1534 2075 1959 2075 
z
" transform="scale(0.015625)"/>
     </defs>
     <use xlink:href="#DejaVuSans-74"/>
     <use xlink:href="#DejaVuSans-3d" x="39.208984"/>
     <use xlink:href="#DejaVuSans-39" x="122.998047"/>
     <use xlink:href="#DejaVuSans-36" x="186.621094"/>
     <use xlink:href="#DejaVuSans-2e" x="250.244141"/>
     <use xlink:href="#DejaVuSans-30" x="282.03125"/>
     <use xlink:href="#DejaVuSans-30" x="345.654297"/>
     <use xlink:href="#DejaVuSans-30" x="409.277344"/>
     <use xlink:href="#DejaVuSans-30" x="472.900391"/>
    </g>
   </g>
  </g>
 </g>
 <defs>
  <clipPath id="p9d17c094ef">
   <rect x="57.6" y="41.472" width="357.12" height="45.881379"/>
  </clipPath>
  <clipPath id="pb1786fdf34">
   <rect x="57.6" y="96.529655" width="357.12" height="45.881379"/>
  </clipPath>
  <clipPath id="pf7fe20abc0">
   <rect x="57.6" y="151.58731" width="357.12" height="45.881379"/>
  </clipPath>
  <clipPath id="p619a23b765">
   <rect x="57.6" y="206.644966" width="357.12" height="45.881379"/>
  </clipPath>
  <clipPath id="pe8f7a5338a">
   <rect x="57.6" y="261.702621" width="357.12" height="45.881379"/>
  </clipPath>
 </defs>
</svg>
