<?xml version="1.0" encoding="utf-8" standalone="no"?>
<!DOCTYPE svg PUBLIC "-//W3C//DTD SVG 1.1//EN"
  "http://www.w3.org/Graphics/SVG/1.1/DTD/svg11.dtd">
<svg xmlns:xlink="http://www.w3.org/1999/xlink" width="460.8pt" height="345.6pt" viewBox="0 0 460.8 345.6" xmlns="http://www.w3.org/2000/svg" version="1.1">
 <metadata>
  <rdf:RDF xmlns:dc="http://purl.org/dc/elements/1.1/" xmlns:cc="http://creativecommons.org/ns#" xmlns:rdf="http://www.w3.org/1999/02/22-rdf-syntax-ns#">
   <cc:Work>
    <dc:type rdf:resource="http://purl.org/dc/dcmitype/StillImage"/>
    <dc:date>2022-07-10T00:04:36.162296</dc:date>
    <dc:format>image/svg+xml</dc:format>
    <dc:creator>
     <cc:Agent>
      <dc:title>Matplotlib v3.5.2, https://matplotlib.org/</dc:title>
     </cc:Agent>
    </dc:creator>
   </cc:Work>
  </rdf:RDF>
 </metadata>
 <defs>
  <style type="text/css">*{stroke-linejoin: round; stroke-linecap: butt}</style>
 </defs>
 <g id="figure_1">
  <g id="patch_1">
   <path d="M 0 345.6 
L 460.8 345.6 
L 460.8 0 
L 0 0 
z
" style="fill: #ffffff"/>
  </g>
  <g id="axes_1">
   <g id="patch_2">
    <path d="M 57.6 87.353379 
L 414.72 87.353379 
L 414.72 41.472 
L 57.6 41.472 
z
" style="fill: #ffffff"/>
   </g>
   <g id="axes_2">
    <g id="patch_3">
     <path d="M 414.72 87.353379 
L 414.72 87.353379 
L 414.72 41.472 
L 414.72 41.472 
z
" style="fill: #ffffff"/>
    </g>
    <g id="matplotlib.axis_1"/>
    <g id="matplotlib.axis_2">
     <g id="ytick_1">
      <g id="line2d_1">
       <defs>
        <path id="m0d0e2de1ce" d="M 0 0 
L 3.5 0 
" style="stroke: #000000; stroke-width: 0.8"/>
       </defs>
       <g>
        <use xlink:href="#m0d0e2de1ce" x="414.72" y="73.719033" style="stroke: #000000; stroke-width: 0.8"/>
       </g>
      </g>
      <g id="text_1">
       <!-- −20 -->
       <g transform="translate(421.72 77.518252)scale(0.1 -0.1)">
        <defs>
         <path id="DejaVuSans-2212" d="M 678 2272 
L 4684 2272 
L 4684 1741 
L 678 1741 
L 678 2272 
z
" transform="scale(0.015625)"/>
         <path id="DejaVuSans-32" d="M 1228 531 
L 3431 531 
L 3431 0 
L 469 0 
L 469 531 
Q 828 903 1448 1529 
Q 2069 2156 2228 2338 
Q 2531 2678 2651 2914 
Q 2772 3150 2772 3378 
Q 2772 3750 2511 3984 
Q 2250 4219 1831 4219 
Q 1534 4219 1204 4116 
Q 875 4013 500 3803 
L 500 4441 
Q 881 4594 1212 4672 
Q 1544 4750 1819 4750 
Q 2544 4750 2975 4387 
Q 3406 4025 3406 3419 
Q 3406 3131 3298 2873 
Q 3191 2616 2906 2266 
Q 2828 2175 2409 1742 
Q 1991 1309 1228 531 
z
" transform="scale(0.015625)"/>
         <path id="DejaVuSans-30" d="M 2034 4250 
Q 1547 4250 1301 3770 
Q 1056 3291 1056 2328 
Q 1056 1369 1301 889 
Q 1547 409 2034 409 
Q 2525 409 2770 889 
Q 3016 1369 3016 2328 
Q 3016 3291 2770 3770 
Q 2525 4250 2034 4250 
z
M 2034 4750 
Q 2819 4750 3233 4129 
Q 3647 3509 3647 2328 
Q 3647 1150 3233 529 
Q 2819 -91 2034 -91 
Q 1250 -91 836 529 
Q 422 1150 422 2328 
Q 422 3509 836 4129 
Q 1250 4750 2034 4750 
z
" transform="scale(0.015625)"/>
        </defs>
        <use xlink:href="#DejaVuSans-2212"/>
        <use xlink:href="#DejaVuSans-32" x="83.789062"/>
        <use xlink:href="#DejaVuSans-30" x="147.412109"/>
       </g>
      </g>
     </g>
     <g id="ytick_2">
      <g id="line2d_2">
       <g>
        <use xlink:href="#m0d0e2de1ce" x="414.72" y="48.098305" style="stroke: #000000; stroke-width: 0.8"/>
       </g>
      </g>
      <g id="text_2">
       <!-- 0 -->
       <g transform="translate(421.72 51.897524)scale(0.1 -0.1)">
        <use xlink:href="#DejaVuSans-30"/>
       </g>
      </g>
     </g>
     <g id="text_3">
      <!-- vel [m/s] -->
      <g transform="translate(454.423125 86.48769)rotate(-90)scale(0.1 -0.1)">
       <defs>
        <path id="DejaVuSans-76" d="M 191 3500 
L 800 3500 
L 1894 563 
L 2988 3500 
L 3597 3500 
L 2284 0 
L 1503 0 
L 191 3500 
z
" transform="scale(0.015625)"/>
        <path id="DejaVuSans-65" d="M 3597 1894 
L 3597 1613 
L 953 1613 
Q 991 1019 1311 708 
Q 1631 397 2203 397 
Q 2534 397 2845 478 
Q 3156 559 3463 722 
L 3463 178 
Q 3153 47 2828 -22 
Q 2503 -91 2169 -91 
Q 1331 -91 842 396 
Q 353 884 353 1716 
Q 353 2575 817 3079 
Q 1281 3584 2069 3584 
Q 2775 3584 3186 3129 
Q 3597 2675 3597 1894 
z
M 3022 2063 
Q 3016 2534 2758 2815 
Q 2500 3097 2075 3097 
Q 1594 3097 1305 2825 
Q 1016 2553 972 2059 
L 3022 2063 
z
" transform="scale(0.015625)"/>
        <path id="DejaVuSans-6c" d="M 603 4863 
L 1178 4863 
L 1178 0 
L 603 0 
L 603 4863 
z
" transform="scale(0.015625)"/>
        <path id="DejaVuSans-20" transform="scale(0.015625)"/>
        <path id="DejaVuSans-5b" d="M 550 4863 
L 1875 4863 
L 1875 4416 
L 1125 4416 
L 1125 -397 
L 1875 -397 
L 1875 -844 
L 550 -844 
L 550 4863 
z
" transform="scale(0.015625)"/>
        <path id="DejaVuSans-6d" d="M 3328 2828 
Q 3544 3216 3844 3400 
Q 4144 3584 4550 3584 
Q 5097 3584 5394 3201 
Q 5691 2819 5691 2113 
L 5691 0 
L 5113 0 
L 5113 2094 
Q 5113 2597 4934 2840 
Q 4756 3084 4391 3084 
Q 3944 3084 3684 2787 
Q 3425 2491 3425 1978 
L 3425 0 
L 2847 0 
L 2847 2094 
Q 2847 2600 2669 2842 
Q 2491 3084 2119 3084 
Q 1678 3084 1418 2786 
Q 1159 2488 1159 1978 
L 1159 0 
L 581 0 
L 581 3500 
L 1159 3500 
L 1159 2956 
Q 1356 3278 1631 3431 
Q 1906 3584 2284 3584 
Q 2666 3584 2933 3390 
Q 3200 3197 3328 2828 
z
" transform="scale(0.015625)"/>
        <path id="DejaVuSans-2f" d="M 1625 4666 
L 2156 4666 
L 531 -594 
L 0 -594 
L 1625 4666 
z
" transform="scale(0.015625)"/>
        <path id="DejaVuSans-73" d="M 2834 3397 
L 2834 2853 
Q 2591 2978 2328 3040 
Q 2066 3103 1784 3103 
Q 1356 3103 1142 2972 
Q 928 2841 928 2578 
Q 928 2378 1081 2264 
Q 1234 2150 1697 2047 
L 1894 2003 
Q 2506 1872 2764 1633 
Q 3022 1394 3022 966 
Q 3022 478 2636 193 
Q 2250 -91 1575 -91 
Q 1294 -91 989 -36 
Q 684 19 347 128 
L 347 722 
Q 666 556 975 473 
Q 1284 391 1588 391 
Q 1994 391 2212 530 
Q 2431 669 2431 922 
Q 2431 1156 2273 1281 
Q 2116 1406 1581 1522 
L 1381 1569 
Q 847 1681 609 1914 
Q 372 2147 372 2553 
Q 372 3047 722 3315 
Q 1072 3584 1716 3584 
Q 2034 3584 2315 3537 
Q 2597 3491 2834 3397 
z
" transform="scale(0.015625)"/>
        <path id="DejaVuSans-5d" d="M 1947 4863 
L 1947 -844 
L 622 -844 
L 622 -397 
L 1369 -397 
L 1369 4416 
L 622 4416 
L 622 4863 
L 1947 4863 
z
" transform="scale(0.015625)"/>
       </defs>
       <use xlink:href="#DejaVuSans-76"/>
       <use xlink:href="#DejaVuSans-65" x="59.179688"/>
       <use xlink:href="#DejaVuSans-6c" x="120.703125"/>
       <use xlink:href="#DejaVuSans-20" x="148.486328"/>
       <use xlink:href="#DejaVuSans-5b" x="180.273438"/>
       <use xlink:href="#DejaVuSans-6d" x="219.287109"/>
       <use xlink:href="#DejaVuSans-2f" x="316.699219"/>
       <use xlink:href="#DejaVuSans-73" x="350.390625"/>
       <use xlink:href="#DejaVuSans-5d" x="402.490234"/>
      </g>
     </g>
    </g>
    <g id="patch_4">
     <path d="M 414.72 87.353379 
L 414.72 41.472 
" style="fill: none; stroke: #000000; stroke-width: 0.8; stroke-linejoin: miter; stroke-linecap: square"/>
    </g>
   </g>
   <g id="matplotlib.axis_3">
    <g id="xtick_1">
     <g id="line2d_3">
      <defs>
       <path id="m2b14a413d6" d="M 0 0 
L 0 3.5 
" style="stroke: #000000; stroke-width: 0.8"/>
      </defs>
      <g>
       <use xlink:href="#m2b14a413d6" x="73.832727" y="87.353379" style="stroke: #000000; stroke-width: 0.8"/>
      </g>
     </g>
    </g>
    <g id="xtick_2">
     <g id="line2d_4">
      <g>
       <use xlink:href="#m2b14a413d6" x="116.550431" y="87.353379" style="stroke: #000000; stroke-width: 0.8"/>
      </g>
     </g>
    </g>
    <g id="xtick_3">
     <g id="line2d_5">
      <g>
       <use xlink:href="#m2b14a413d6" x="159.268134" y="87.353379" style="stroke: #000000; stroke-width: 0.8"/>
      </g>
     </g>
    </g>
    <g id="xtick_4">
     <g id="line2d_6">
      <g>
       <use xlink:href="#m2b14a413d6" x="201.985837" y="87.353379" style="stroke: #000000; stroke-width: 0.8"/>
      </g>
     </g>
    </g>
    <g id="xtick_5">
     <g id="line2d_7">
      <g>
       <use xlink:href="#m2b14a413d6" x="244.703541" y="87.353379" style="stroke: #000000; stroke-width: 0.8"/>
      </g>
     </g>
    </g>
    <g id="xtick_6">
     <g id="line2d_8">
      <g>
       <use xlink:href="#m2b14a413d6" x="287.421244" y="87.353379" style="stroke: #000000; stroke-width: 0.8"/>
      </g>
     </g>
    </g>
    <g id="xtick_7">
     <g id="line2d_9">
      <g>
       <use xlink:href="#m2b14a413d6" x="330.138947" y="87.353379" style="stroke: #000000; stroke-width: 0.8"/>
      </g>
     </g>
    </g>
    <g id="xtick_8">
     <g id="line2d_10">
      <g>
       <use xlink:href="#m2b14a413d6" x="372.856651" y="87.353379" style="stroke: #000000; stroke-width: 0.8"/>
      </g>
     </g>
    </g>
   </g>
   <g id="matplotlib.axis_4">
    <g id="ytick_3">
     <g id="line2d_11">
      <defs>
       <path id="mabe5809f9f" d="M 0 0 
L -3.5 0 
" style="stroke: #000000; stroke-width: 0.8"/>
      </defs>
      <g>
       <use xlink:href="#mabe5809f9f" x="57.6" y="73.719033" style="stroke: #000000; stroke-width: 0.8"/>
      </g>
     </g>
     <g id="text_4">
      <!-- −20 -->
      <g transform="translate(29.495313 77.518252)scale(0.1 -0.1)">
       <use xlink:href="#DejaVuSans-2212"/>
       <use xlink:href="#DejaVuSans-32" x="83.789062"/>
       <use xlink:href="#DejaVuSans-30" x="147.412109"/>
      </g>
     </g>
    </g>
    <g id="ytick_4">
     <g id="line2d_12">
      <g>
       <use xlink:href="#mabe5809f9f" x="57.6" y="48.098305" style="stroke: #000000; stroke-width: 0.8"/>
      </g>
     </g>
     <g id="text_5">
      <!-- 0 -->
      <g transform="translate(44.2375 51.897524)scale(0.1 -0.1)">
       <use xlink:href="#DejaVuSans-30"/>
      </g>
     </g>
    </g>
    <g id="text_6">
     <!-- vel [normalized] -->
     <g transform="translate(23.415625 105.111908)rotate(-90)scale(0.1 -0.1)">
      <defs>
       <path id="DejaVuSans-6e" d="M 3513 2113 
L 3513 0 
L 2938 0 
L 2938 2094 
Q 2938 2591 2744 2837 
Q 2550 3084 2163 3084 
Q 1697 3084 1428 2787 
Q 1159 2491 1159 1978 
L 1159 0 
L 581 0 
L 581 3500 
L 1159 3500 
L 1159 2956 
Q 1366 3272 1645 3428 
Q 1925 3584 2291 3584 
Q 2894 3584 3203 3211 
Q 3513 2838 3513 2113 
z
" transform="scale(0.015625)"/>
       <path id="DejaVuSans-6f" d="M 1959 3097 
Q 1497 3097 1228 2736 
Q 959 2375 959 1747 
Q 959 1119 1226 758 
Q 1494 397 1959 397 
Q 2419 397 2687 759 
Q 2956 1122 2956 1747 
Q 2956 2369 2687 2733 
Q 2419 3097 1959 3097 
z
M 1959 3584 
Q 2709 3584 3137 3096 
Q 3566 2609 3566 1747 
Q 3566 888 3137 398 
Q 2709 -91 1959 -91 
Q 1206 -91 779 398 
Q 353 888 353 1747 
Q 353 2609 779 3096 
Q 1206 3584 1959 3584 
z
" transform="scale(0.015625)"/>
       <path id="DejaVuSans-72" d="M 2631 2963 
Q 2534 3019 2420 3045 
Q 2306 3072 2169 3072 
Q 1681 3072 1420 2755 
Q 1159 2438 1159 1844 
L 1159 0 
L 581 0 
L 581 3500 
L 1159 3500 
L 1159 2956 
Q 1341 3275 1631 3429 
Q 1922 3584 2338 3584 
Q 2397 3584 2469 3576 
Q 2541 3569 2628 3553 
L 2631 2963 
z
" transform="scale(0.015625)"/>
       <path id="DejaVuSans-61" d="M 2194 1759 
Q 1497 1759 1228 1600 
Q 959 1441 959 1056 
Q 959 750 1161 570 
Q 1363 391 1709 391 
Q 2188 391 2477 730 
Q 2766 1069 2766 1631 
L 2766 1759 
L 2194 1759 
z
M 3341 1997 
L 3341 0 
L 2766 0 
L 2766 531 
Q 2569 213 2275 61 
Q 1981 -91 1556 -91 
Q 1019 -91 701 211 
Q 384 513 384 1019 
Q 384 1609 779 1909 
Q 1175 2209 1959 2209 
L 2766 2209 
L 2766 2266 
Q 2766 2663 2505 2880 
Q 2244 3097 1772 3097 
Q 1472 3097 1187 3025 
Q 903 2953 641 2809 
L 641 3341 
Q 956 3463 1253 3523 
Q 1550 3584 1831 3584 
Q 2591 3584 2966 3190 
Q 3341 2797 3341 1997 
z
" transform="scale(0.015625)"/>
       <path id="DejaVuSans-69" d="M 603 3500 
L 1178 3500 
L 1178 0 
L 603 0 
L 603 3500 
z
M 603 4863 
L 1178 4863 
L 1178 4134 
L 603 4134 
L 603 4863 
z
" transform="scale(0.015625)"/>
       <path id="DejaVuSans-7a" d="M 353 3500 
L 3084 3500 
L 3084 2975 
L 922 459 
L 3084 459 
L 3084 0 
L 275 0 
L 275 525 
L 2438 3041 
L 353 3041 
L 353 3500 
z
" transform="scale(0.015625)"/>
       <path id="DejaVuSans-64" d="M 2906 2969 
L 2906 4863 
L 3481 4863 
L 3481 0 
L 2906 0 
L 2906 525 
Q 2725 213 2448 61 
Q 2172 -91 1784 -91 
Q 1150 -91 751 415 
Q 353 922 353 1747 
Q 353 2572 751 3078 
Q 1150 3584 1784 3584 
Q 2172 3584 2448 3432 
Q 2725 3281 2906 2969 
z
M 947 1747 
Q 947 1113 1208 752 
Q 1469 391 1925 391 
Q 2381 391 2643 752 
Q 2906 1113 2906 1747 
Q 2906 2381 2643 2742 
Q 2381 3103 1925 3103 
Q 1469 3103 1208 2742 
Q 947 2381 947 1747 
z
" transform="scale(0.015625)"/>
      </defs>
      <use xlink:href="#DejaVuSans-76"/>
      <use xlink:href="#DejaVuSans-65" x="59.179688"/>
      <use xlink:href="#DejaVuSans-6c" x="120.703125"/>
      <use xlink:href="#DejaVuSans-20" x="148.486328"/>
      <use xlink:href="#DejaVuSans-5b" x="180.273438"/>
      <use xlink:href="#DejaVuSans-6e" x="219.287109"/>
      <use xlink:href="#DejaVuSans-6f" x="282.666016"/>
      <use xlink:href="#DejaVuSans-72" x="343.847656"/>
      <use xlink:href="#DejaVuSans-6d" x="383.210938"/>
      <use xlink:href="#DejaVuSans-61" x="480.623047"/>
      <use xlink:href="#DejaVuSans-6c" x="541.902344"/>
      <use xlink:href="#DejaVuSans-69" x="569.685547"/>
      <use xlink:href="#DejaVuSans-7a" x="597.46875"/>
      <use xlink:href="#DejaVuSans-65" x="649.958984"/>
      <use xlink:href="#DejaVuSans-64" x="711.482422"/>
      <use xlink:href="#DejaVuSans-5d" x="774.958984"/>
     </g>
    </g>
   </g>
   <g id="line2d_13">
    <path d="M 73.832727 57.892576 
L 90.919809 56.722931 
L 108.00689 55.765742 
L 125.093971 54.957686 
L 142.181053 54.257838 
L 159.268134 53.63886 
L 176.355215 53.081877 
L 193.442297 52.57342 
L 210.529378 52.103576 
L 227.616459 51.664831 
L 244.703541 51.251339 
L 261.790622 50.858437 
L 278.877703 50.48232 
L 295.964785 50.119814 
L 313.051866 49.768212 
L 330.138947 49.425149 
L 347.226029 49.088513 
L 364.31311 48.756366 
L 381.400191 48.426884 
L 398.487273 48.426884 
" clip-path="url(#p2d45a54a2d)" style="fill: none; stroke: #1f77b4; stroke-width: 1.5; stroke-linecap: square"/>
   </g>
   <g id="line2d_14">
    <path d="M 73.832727 47.909437 
L 90.919809 47.919324 
L 108.00689 47.929137 
L 125.093971 47.938918 
L 142.181053 47.948689 
L 159.268134 47.958464 
L 176.355215 47.968254 
L 193.442297 47.978065 
L 210.529378 47.987903 
L 227.616459 47.997774 
L 244.703541 48.007679 
L 261.790622 48.017621 
L 278.877703 48.0276 
L 295.964785 48.037616 
L 313.051866 48.047667 
L 330.138947 48.05775 
L 347.226029 48.06786 
L 364.31311 48.077993 
L 381.400191 48.088143 
L 398.487273 48.088143 
" clip-path="url(#p2d45a54a2d)" style="fill: none; stroke: #ff7f0e; stroke-width: 1.5; stroke-linecap: square"/>
   </g>
   <g id="line2d_15">
    <path d="M 73.832727 46.817251 
L 90.919809 46.817096 
L 108.00689 46.81693 
L 125.093971 46.816757 
L 142.181053 46.816581 
L 159.268134 46.816402 
L 176.355215 46.816222 
L 193.442297 46.816039 
L 210.529378 46.815856 
L 227.616459 46.815671 
L 244.703541 46.815484 
L 261.790622 46.815295 
L 278.877703 46.815103 
L 295.964785 46.814909 
L 313.051866 46.814712 
L 330.138947 46.814512 
L 347.226029 46.814308 
L 364.31311 46.8141 
L 381.400191 46.813886 
L 398.487273 46.813886 
" clip-path="url(#p2d45a54a2d)" style="fill: none; stroke: #2ca02c; stroke-width: 1.5; stroke-linecap: square"/>
   </g>
   <g id="line2d_16">
    <path d="M 73.832727 46.817139 
L 90.919809 46.816881 
L 108.00689 46.816614 
L 125.093971 46.816337 
L 142.181053 46.816051 
L 159.268134 46.815758 
L 176.355215 46.81546 
L 193.442297 46.815158 
L 210.529378 46.814854 
L 227.616459 46.814549 
L 244.703541 46.814245 
L 261.790622 46.813942 
L 278.877703 46.813641 
L 295.964785 46.813341 
L 313.051866 46.813044 
L 330.138947 46.812749 
L 347.226029 46.812455 
L 364.31311 46.812164 
L 381.400191 46.811874 
L 398.487273 46.811874 
" clip-path="url(#p2d45a54a2d)" style="fill: none; stroke: #d62728; stroke-width: 1.5; stroke-linecap: square"/>
   </g>
   <g id="line2d_17">
    <path d="M 73.832727 48.008594 
L 90.919809 47.917415 
L 108.00689 47.824535 
L 125.093971 47.730057 
L 142.181053 47.634211 
L 159.268134 47.53722 
L 176.355215 47.439258 
L 193.442297 47.340444 
L 210.529378 47.240862 
L 227.616459 47.140566 
L 244.703541 47.039601 
L 261.790622 46.937998 
L 278.877703 46.835786 
L 295.964785 46.732989 
L 313.051866 46.629634 
L 330.138947 46.525747 
L 347.226029 46.421352 
L 364.31311 46.316474 
L 381.400191 46.211135 
L 398.487273 46.211135 
" clip-path="url(#p2d45a54a2d)" style="fill: none; stroke: #9467bd; stroke-width: 1.5; stroke-linecap: square"/>
   </g>
   <g id="line2d_18">
    <path d="M 73.832727 47.893869 
L 90.919809 47.685299 
L 108.00689 47.47185 
L 125.093971 47.253617 
L 142.181053 47.031048 
L 159.268134 46.804613 
L 176.355215 46.574664 
L 193.442297 46.341421 
L 210.529378 46.10499 
L 227.616459 45.865404 
L 244.703541 45.62264 
L 261.790622 45.376648 
L 278.877703 45.127353 
L 295.964785 44.874674 
L 313.051866 44.618525 
L 330.138947 44.358819 
L 347.226029 44.095471 
L 364.31311 43.828397 
L 381.400191 43.557517 
L 398.487273 43.557517 
" clip-path="url(#p2d45a54a2d)" style="fill: none; stroke: #8c564b; stroke-width: 1.5; stroke-linecap: square"/>
   </g>
   <g id="line2d_19">
    <path d="M 73.832727 48.076493 
L 90.919809 48.05433 
L 108.00689 48.031812 
L 125.093971 48.009032 
L 142.181053 47.986122 
L 159.268134 47.963223 
L 176.355215 47.940469 
L 193.442297 47.91798 
L 210.529378 47.895868 
L 227.616459 47.874238 
L 244.703541 47.853193 
L 261.790622 47.832831 
L 278.877703 47.81325 
L 295.964785 47.79455 
L 313.051866 47.776826 
L 330.138947 47.760177 
L 347.226029 47.7447 
L 364.31311 47.73049 
L 381.400191 47.717642 
L 398.487273 47.717642 
" clip-path="url(#p2d45a54a2d)" style="fill: none; stroke: #e377c2; stroke-width: 1.5; stroke-linecap: square"/>
   </g>
   <g id="line2d_20">
    <path d="M 73.832727 48.096519 
L 90.919809 48.094714 
L 108.00689 48.092886 
L 125.093971 48.091043 
L 142.181053 48.089197 
L 159.268134 48.08736 
L 176.355215 48.085546 
L 193.442297 48.083767 
L 210.529378 48.082033 
L 227.616459 48.080355 
L 244.703541 48.078742 
L 261.790622 48.077205 
L 278.877703 48.075752 
L 295.964785 48.074392 
L 313.051866 48.073135 
L 330.138947 48.071989 
L 347.226029 48.070961 
L 364.31311 48.07006 
L 381.400191 48.069293 
L 398.487273 48.069293 
" clip-path="url(#p2d45a54a2d)" style="fill: none; stroke: #7f7f7f; stroke-width: 1.5; stroke-linecap: square"/>
   </g>
   <g id="line2d_21">
    <path d="M 73.832727 85.267862 
L 90.919809 77.745518 
L 108.00689 72.669487 
L 125.093971 68.940517 
L 142.181053 66.041094 
L 159.268134 63.692534 
L 176.355215 61.729897 
L 193.442297 60.048473 
L 210.529378 58.578084 
L 227.616459 57.269592 
L 244.703541 56.08731 
L 261.790622 55.004487 
L 278.877703 54.000486 
L 295.964785 53.058956 
L 313.051866 52.166593 
L 330.138947 51.312277 
L 347.226029 50.486446 
L 364.31311 49.680621 
L 381.400191 48.887032 
L 398.487273 48.887032 
" clip-path="url(#p2d45a54a2d)" style="fill: none; stroke: #bcbd22; stroke-width: 1.5; stroke-linecap: square"/>
   </g>
   <g id="line2d_22">
    <path d="M 73.832727 75.253719 
L 90.919809 69.843873 
L 108.00689 66.260628 
L 125.093971 63.6391 
L 142.181053 61.593809 
L 159.268134 59.924383 
L 176.355215 58.515206 
L 193.442297 57.294238 
L 210.529378 56.213839 
L 227.616459 55.240959 
L 244.703541 54.351741 
L 261.790622 53.528369 
L 278.877703 52.757122 
L 295.964785 52.027132 
L 313.051866 51.329553 
L 330.138947 50.656979 
L 347.226029 50.00303 
L 364.31311 49.362034 
L 381.400191 48.728778 
L 398.487273 48.728778 
" clip-path="url(#p2d45a54a2d)" style="fill: none; stroke: #17becf; stroke-width: 1.5; stroke-linecap: square"/>
   </g>
   <g id="line2d_23">
    <path d="M 73.832727 66.779967 
L 90.919809 63.629707 
L 108.00689 61.380069 
L 125.093971 59.651604 
L 142.181053 58.25484 
L 159.268134 57.083674 
L 176.355215 56.073585 
L 193.442297 55.182775 
L 210.529378 54.382739 
L 227.616459 53.653202 
L 244.703541 52.979208 
L 261.790622 52.349375 
L 278.877703 51.754794 
L 295.964785 51.188298 
L 313.051866 50.643974 
L 330.138947 50.116812 
L 347.226029 49.602446 
L 364.31311 49.096961 
L 381.400191 48.596735 
L 398.487273 48.596735 
" clip-path="url(#p2d45a54a2d)" style="fill: none; stroke: #1f77b4; stroke-width: 1.5; stroke-linecap: square"/>
   </g>
   <g id="line2d_24">
    <path d="M 73.832727 62.028918 
L 90.919809 60.001455 
L 108.00689 58.461653 
L 125.093971 57.228497 
L 142.181053 56.201588 
L 159.268134 55.320546 
L 176.355215 54.546731 
L 193.442297 53.854127 
L 210.529378 53.224442 
L 227.616459 52.644334 
L 244.703541 52.103753 
L 261.790622 51.594905 
L 278.877703 51.111587 
L 295.964785 50.648738 
L 313.051866 50.202127 
L 330.138947 49.768126 
L 347.226029 49.34354 
L 364.31311 48.925482 
L 381.400191 48.511264 
L 398.487273 48.511264 
" clip-path="url(#p2d45a54a2d)" style="fill: none; stroke: #ff7f0e; stroke-width: 1.5; stroke-linecap: square"/>
   </g>
   <g id="line2d_25">
    <path d="M 73.832727 59.01861 
L 90.919809 57.629161 
L 108.00689 56.517953 
L 125.093971 55.595267 
L 142.181053 54.806053 
L 159.268134 54.114808 
L 176.355215 53.497634 
L 193.442297 52.937807 
L 210.529378 52.4232 
L 227.616459 51.944739 
L 244.703541 51.495435 
L 261.790622 51.069766 
L 278.877703 50.663262 
L 295.964785 50.272221 
L 313.051866 49.893505 
L 330.138947 49.52439 
L 347.226029 49.162457 
L 364.31311 48.805498 
L 381.400191 48.451444 
L 398.487273 48.451444 
" clip-path="url(#p2d45a54a2d)" style="fill: none; stroke: #2ca02c; stroke-width: 1.5; stroke-linecap: square"/>
   </g>
   <g id="patch_5">
    <path d="M 57.6 87.353379 
L 57.6 41.472 
" style="fill: none; stroke: #000000; stroke-width: 0.8; stroke-linejoin: miter; stroke-linecap: square"/>
   </g>
   <g id="patch_6">
    <path d="M 414.72 87.353379 
L 414.72 41.472 
" style="fill: none; stroke: #000000; stroke-width: 0.8; stroke-linejoin: miter; stroke-linecap: square"/>
   </g>
   <g id="patch_7">
    <path d="M 57.6 87.353379 
L 414.72 87.353379 
" style="fill: none; stroke: #000000; stroke-width: 0.8; stroke-linejoin: miter; stroke-linecap: square"/>
   </g>
   <g id="patch_8">
    <path d="M 57.6 41.472 
L 414.72 41.472 
" style="fill: none; stroke: #000000; stroke-width: 0.8; stroke-linejoin: miter; stroke-linecap: square"/>
   </g>
   <g id="text_7">
    <!-- velocity - Container 1  -->
    <g transform="translate(169.779375 38.472)scale(0.12 -0.12)">
     <defs>
      <path id="DejaVuSans-63" d="M 3122 3366 
L 3122 2828 
Q 2878 2963 2633 3030 
Q 2388 3097 2138 3097 
Q 1578 3097 1268 2742 
Q 959 2388 959 1747 
Q 959 1106 1268 751 
Q 1578 397 2138 397 
Q 2388 397 2633 464 
Q 2878 531 3122 666 
L 3122 134 
Q 2881 22 2623 -34 
Q 2366 -91 2075 -91 
Q 1284 -91 818 406 
Q 353 903 353 1747 
Q 353 2603 823 3093 
Q 1294 3584 2113 3584 
Q 2378 3584 2631 3529 
Q 2884 3475 3122 3366 
z
" transform="scale(0.015625)"/>
      <path id="DejaVuSans-74" d="M 1172 4494 
L 1172 3500 
L 2356 3500 
L 2356 3053 
L 1172 3053 
L 1172 1153 
Q 1172 725 1289 603 
Q 1406 481 1766 481 
L 2356 481 
L 2356 0 
L 1766 0 
Q 1100 0 847 248 
Q 594 497 594 1153 
L 594 3053 
L 172 3053 
L 172 3500 
L 594 3500 
L 594 4494 
L 1172 4494 
z
" transform="scale(0.015625)"/>
      <path id="DejaVuSans-79" d="M 2059 -325 
Q 1816 -950 1584 -1140 
Q 1353 -1331 966 -1331 
L 506 -1331 
L 506 -850 
L 844 -850 
Q 1081 -850 1212 -737 
Q 1344 -625 1503 -206 
L 1606 56 
L 191 3500 
L 800 3500 
L 1894 763 
L 2988 3500 
L 3597 3500 
L 2059 -325 
z
" transform="scale(0.015625)"/>
      <path id="DejaVuSans-2d" d="M 313 2009 
L 1997 2009 
L 1997 1497 
L 313 1497 
L 313 2009 
z
" transform="scale(0.015625)"/>
      <path id="DejaVuSans-43" d="M 4122 4306 
L 4122 3641 
Q 3803 3938 3442 4084 
Q 3081 4231 2675 4231 
Q 1875 4231 1450 3742 
Q 1025 3253 1025 2328 
Q 1025 1406 1450 917 
Q 1875 428 2675 428 
Q 3081 428 3442 575 
Q 3803 722 4122 1019 
L 4122 359 
Q 3791 134 3420 21 
Q 3050 -91 2638 -91 
Q 1578 -91 968 557 
Q 359 1206 359 2328 
Q 359 3453 968 4101 
Q 1578 4750 2638 4750 
Q 3056 4750 3426 4639 
Q 3797 4528 4122 4306 
z
" transform="scale(0.015625)"/>
      <path id="DejaVuSans-31" d="M 794 531 
L 1825 531 
L 1825 4091 
L 703 3866 
L 703 4441 
L 1819 4666 
L 2450 4666 
L 2450 531 
L 3481 531 
L 3481 0 
L 794 0 
L 794 531 
z
" transform="scale(0.015625)"/>
     </defs>
     <use xlink:href="#DejaVuSans-76"/>
     <use xlink:href="#DejaVuSans-65" x="59.179688"/>
     <use xlink:href="#DejaVuSans-6c" x="120.703125"/>
     <use xlink:href="#DejaVuSans-6f" x="148.486328"/>
     <use xlink:href="#DejaVuSans-63" x="209.667969"/>
     <use xlink:href="#DejaVuSans-69" x="264.648438"/>
     <use xlink:href="#DejaVuSans-74" x="292.431641"/>
     <use xlink:href="#DejaVuSans-79" x="331.640625"/>
     <use xlink:href="#DejaVuSans-20" x="390.820312"/>
     <use xlink:href="#DejaVuSans-2d" x="422.607422"/>
     <use xlink:href="#DejaVuSans-20" x="458.691406"/>
     <use xlink:href="#DejaVuSans-43" x="490.478516"/>
     <use xlink:href="#DejaVuSans-6f" x="560.302734"/>
     <use xlink:href="#DejaVuSans-6e" x="621.484375"/>
     <use xlink:href="#DejaVuSans-74" x="684.863281"/>
     <use xlink:href="#DejaVuSans-61" x="724.072266"/>
     <use xlink:href="#DejaVuSans-69" x="785.351562"/>
     <use xlink:href="#DejaVuSans-6e" x="813.134766"/>
     <use xlink:href="#DejaVuSans-65" x="876.513672"/>
     <use xlink:href="#DejaVuSans-72" x="938.037109"/>
     <use xlink:href="#DejaVuSans-20" x="979.150391"/>
     <use xlink:href="#DejaVuSans-31" x="1010.9375"/>
     <use xlink:href="#DejaVuSans-20" x="1074.560547"/>
    </g>
   </g>
  </g>
  <g id="axes_3">
   <g id="patch_9">
    <path d="M 57.6 142.411034 
L 414.72 142.411034 
L 414.72 96.529655 
L 57.6 96.529655 
z
" style="fill: #ffffff"/>
   </g>
   <g id="matplotlib.axis_5">
    <g id="xtick_9">
     <g id="line2d_26">
      <g>
       <use xlink:href="#m2b14a413d6" x="73.832727" y="142.411034" style="stroke: #000000; stroke-width: 0.8"/>
      </g>
     </g>
    </g>
    <g id="xtick_10">
     <g id="line2d_27">
      <g>
       <use xlink:href="#m2b14a413d6" x="116.550431" y="142.411034" style="stroke: #000000; stroke-width: 0.8"/>
      </g>
     </g>
    </g>
    <g id="xtick_11">
     <g id="line2d_28">
      <g>
       <use xlink:href="#m2b14a413d6" x="159.268134" y="142.411034" style="stroke: #000000; stroke-width: 0.8"/>
      </g>
     </g>
    </g>
    <g id="xtick_12">
     <g id="line2d_29">
      <g>
       <use xlink:href="#m2b14a413d6" x="201.985837" y="142.411034" style="stroke: #000000; stroke-width: 0.8"/>
      </g>
     </g>
    </g>
    <g id="xtick_13">
     <g id="line2d_30">
      <g>
       <use xlink:href="#m2b14a413d6" x="244.703541" y="142.411034" style="stroke: #000000; stroke-width: 0.8"/>
      </g>
     </g>
    </g>
    <g id="xtick_14">
     <g id="line2d_31">
      <g>
       <use xlink:href="#m2b14a413d6" x="287.421244" y="142.411034" style="stroke: #000000; stroke-width: 0.8"/>
      </g>
     </g>
    </g>
    <g id="xtick_15">
     <g id="line2d_32">
      <g>
       <use xlink:href="#m2b14a413d6" x="330.138947" y="142.411034" style="stroke: #000000; stroke-width: 0.8"/>
      </g>
     </g>
    </g>
    <g id="xtick_16">
     <g id="line2d_33">
      <g>
       <use xlink:href="#m2b14a413d6" x="372.856651" y="142.411034" style="stroke: #000000; stroke-width: 0.8"/>
      </g>
     </g>
    </g>
   </g>
   <g id="matplotlib.axis_6">
    <g id="ytick_5">
     <g id="line2d_34">
      <g>
       <use xlink:href="#mabe5809f9f" x="57.6" y="140.784164" style="stroke: #000000; stroke-width: 0.8"/>
      </g>
     </g>
     <g id="text_8">
      <!-- 0 -->
      <g transform="translate(44.2375 144.583382)scale(0.1 -0.1)">
       <use xlink:href="#DejaVuSans-30"/>
      </g>
     </g>
    </g>
    <g id="ytick_6">
     <g id="line2d_35">
      <g>
       <use xlink:href="#mabe5809f9f" x="57.6" y="98.771838" style="stroke: #000000; stroke-width: 0.8"/>
      </g>
     </g>
     <g id="text_9">
      <!-- 1 -->
      <g transform="translate(44.2375 102.571057)scale(0.1 -0.1)">
       <use xlink:href="#DejaVuSans-31"/>
      </g>
     </g>
    </g>
   </g>
   <g id="line2d_36">
    <path d="M 73.832727 140.325517 
L 90.919809 140.264226 
L 108.00689 140.210254 
L 125.093971 140.162272 
L 142.181053 140.119347 
L 159.268134 140.080802 
L 176.355215 140.04613 
L 193.442297 140.014943 
L 210.529378 139.986938 
L 227.616459 139.961874 
L 244.703541 139.939555 
L 261.790622 139.919824 
L 278.877703 139.902551 
L 295.964785 139.887632 
L 313.051866 139.874982 
L 330.138947 139.864532 
L 347.226029 139.856229 
L 364.31311 139.850032 
L 381.400191 139.845914 
L 398.487273 139.843858 
" clip-path="url(#p558a7aa527)" style="fill: none; stroke: #1f77b4; stroke-width: 1.5; stroke-linecap: square"/>
   </g>
   <g id="line2d_37">
    <path d="M 73.832727 99.53323 
L 90.919809 99.534412 
L 108.00689 99.535532 
L 125.093971 99.53659 
L 142.181053 99.537588 
L 159.268134 99.538524 
L 176.355215 99.539399 
L 193.442297 99.540213 
L 210.529378 99.540966 
L 227.616459 99.541656 
L 244.703541 99.542286 
L 261.790622 99.542853 
L 278.877703 99.543358 
L 295.964785 99.5438 
L 313.051866 99.54418 
L 330.138947 99.544497 
L 347.226029 99.54475 
L 364.31311 99.544941 
L 381.400191 99.545068 
L 398.487273 99.545132 
" clip-path="url(#p558a7aa527)" style="fill: none; stroke: #ff7f0e; stroke-width: 1.5; stroke-linecap: square"/>
   </g>
   <g id="line2d_38">
    <path d="M 73.832727 98.615309 
L 90.919809 98.623326 
L 108.00689 98.631344 
L 125.093971 98.639362 
L 142.181053 98.647382 
L 159.268134 98.655403 
L 176.355215 98.663425 
L 193.442297 98.671448 
L 210.529378 98.679472 
L 227.616459 98.687498 
L 244.703541 98.695524 
L 261.790622 98.703552 
L 278.877703 98.711581 
L 295.964785 98.719611 
L 313.051866 98.727642 
L 330.138947 98.735675 
L 347.226029 98.743709 
L 364.31311 98.751744 
L 381.400191 98.75978 
L 398.487273 98.767818 
" clip-path="url(#p558a7aa527)" style="fill: none; stroke: #2ca02c; stroke-width: 1.5; stroke-linecap: square"/>
   </g>
   <g id="line2d_39">
    <path d="M 73.832727 98.615172 
L 90.919809 98.62319 
L 108.00689 98.631209 
L 125.093971 98.639229 
L 142.181053 98.647252 
L 159.268134 98.655276 
L 176.355215 98.663302 
L 193.442297 98.67133 
L 210.529378 98.67936 
L 227.616459 98.687391 
L 244.703541 98.695425 
L 261.790622 98.70346 
L 278.877703 98.711498 
L 295.964785 98.719537 
L 313.051866 98.727578 
L 330.138947 98.735621 
L 347.226029 98.743666 
L 364.31311 98.751713 
L 381.400191 98.759761 
L 398.487273 98.767811 
" clip-path="url(#p558a7aa527)" style="fill: none; stroke: #d62728; stroke-width: 1.5; stroke-linecap: square"/>
   </g>
   <g id="line2d_40">
    <path d="M 73.832727 122.543675 
L 90.919809 122.544236 
L 108.00689 122.545368 
L 125.093971 122.547081 
L 142.181053 122.549386 
L 159.268134 122.55229 
L 176.355215 122.555801 
L 193.442297 122.559926 
L 210.529378 122.564668 
L 227.616459 122.570034 
L 244.703541 122.576027 
L 261.790622 122.582653 
L 278.877703 122.589914 
L 295.964785 122.597814 
L 313.051866 122.606358 
L 330.138947 122.615549 
L 347.226029 122.62539 
L 364.31311 122.635884 
L 381.400191 122.647034 
L 398.487273 122.658844 
" clip-path="url(#p558a7aa527)" style="fill: none; stroke: #9467bd; stroke-width: 1.5; stroke-linecap: square"/>
   </g>
   <g id="line2d_41">
    <path d="M 73.832727 136.041267 
L 90.919809 136.042546 
L 108.00689 136.04513 
L 125.093971 136.049051 
L 142.181053 136.054337 
L 159.268134 136.061015 
L 176.355215 136.069111 
L 193.442297 136.078646 
L 210.529378 136.08964 
L 227.616459 136.102114 
L 244.703541 136.116087 
L 261.790622 136.13158 
L 278.877703 136.148612 
L 295.964785 136.167203 
L 313.051866 136.187376 
L 330.138947 136.209152 
L 347.226029 136.232554 
L 364.31311 136.257603 
L 381.400191 136.284323 
L 398.487273 136.312739 
" clip-path="url(#p558a7aa527)" style="fill: none; stroke: #8c564b; stroke-width: 1.5; stroke-linecap: square"/>
   </g>
   <g id="line2d_42">
    <path d="M 73.832727 136.551375 
L 90.919809 136.551511 
L 108.00689 136.551787 
L 125.093971 136.552203 
L 142.181053 136.552761 
L 159.268134 136.553463 
L 176.355215 136.554309 
L 193.442297 136.555296 
L 210.529378 136.556425 
L 227.616459 136.557692 
L 244.703541 136.559094 
L 261.790622 136.560628 
L 278.877703 136.562289 
L 295.964785 136.564073 
L 313.051866 136.565974 
L 330.138947 136.567986 
L 347.226029 136.570102 
L 364.31311 136.572314 
L 381.400191 136.574616 
L 398.487273 136.576998 
" clip-path="url(#p558a7aa527)" style="fill: none; stroke: #e377c2; stroke-width: 1.5; stroke-linecap: square"/>
   </g>
   <g id="line2d_43">
    <path d="M 73.832727 136.58072 
L 90.919809 136.580731 
L 108.00689 136.580753 
L 125.093971 136.580787 
L 142.181053 136.580833 
L 159.268134 136.58089 
L 176.355215 136.580958 
L 193.442297 136.581038 
L 210.529378 136.581129 
L 227.616459 136.581231 
L 244.703541 136.581343 
L 261.790622 136.581465 
L 278.877703 136.581597 
L 295.964785 136.581739 
L 313.051866 136.581888 
L 330.138947 136.582046 
L 347.226029 136.58221 
L 364.31311 136.582382 
L 381.400191 136.582558 
L 398.487273 136.58274 
" clip-path="url(#p558a7aa527)" style="fill: none; stroke: #7f7f7f; stroke-width: 1.5; stroke-linecap: square"/>
   </g>
   <g id="line2d_44">
    <path d="M 73.832727 139.664444 
L 90.919809 139.431842 
L 108.00689 139.246313 
L 125.093971 139.09255 
L 142.181053 138.962122 
L 159.268134 138.849839 
L 176.355215 138.752252 
L 193.442297 138.666947 
L 210.529378 138.592165 
L 227.616459 138.526584 
L 244.703541 138.469191 
L 261.790622 138.419197 
L 278.877703 138.375979 
L 295.964785 138.339044 
L 313.051866 138.308 
L 330.138947 138.282542 
L 347.226029 138.262429 
L 364.31311 138.247484 
L 381.400191 138.237582 
L 398.487273 138.232647 
" clip-path="url(#p558a7aa527)" style="fill: none; stroke: #bcbd22; stroke-width: 1.5; stroke-linecap: square"/>
   </g>
   <g id="line2d_45">
    <path d="M 73.832727 140.196779 
L 90.919809 140.026844 
L 108.00689 139.890763 
L 125.093971 139.777106 
L 142.181053 139.679853 
L 159.268134 139.5954 
L 176.355215 139.521394 
L 193.442297 139.456207 
L 210.529378 139.39866 
L 227.616459 139.347874 
L 244.703541 139.303176 
L 261.790622 139.264043 
L 278.877703 139.230062 
L 295.964785 139.200908 
L 313.051866 139.176322 
L 330.138947 139.156101 
L 347.226029 139.140089 
L 364.31311 139.12817 
L 381.400191 139.120261 
L 398.487273 139.116316 
" clip-path="url(#p558a7aa527)" style="fill: none; stroke: #17becf; stroke-width: 1.5; stroke-linecap: square"/>
   </g>
   <g id="line2d_46">
    <path d="M 73.832727 140.274094 
L 90.919809 140.157186 
L 108.00689 140.059993 
L 125.093971 139.976877 
L 142.181053 139.904578 
L 159.268134 139.84102 
L 176.355215 139.784791 
L 193.442297 139.734882 
L 210.529378 139.690549 
L 227.616459 139.651222 
L 244.703541 139.61646 
L 261.790622 139.585916 
L 278.877703 139.559313 
L 295.964785 139.536431 
L 313.051866 139.517094 
L 330.138947 139.501164 
L 347.226029 139.488532 
L 364.31311 139.47912 
L 381.400191 139.47287 
L 398.487273 139.469751 
" clip-path="url(#p558a7aa527)" style="fill: none; stroke: #1f77b4; stroke-width: 1.5; stroke-linecap: square"/>
   </g>
   <g id="line2d_47">
    <path d="M 73.832727 140.303897 
L 90.919809 140.216721 
L 108.00689 140.142232 
L 125.093971 140.07738 
L 142.181053 140.020244 
L 159.268134 139.969535 
L 176.355215 139.924339 
L 193.442297 139.883986 
L 210.529378 139.847967 
L 227.616459 139.815888 
L 244.703541 139.787439 
L 261.790622 139.762374 
L 278.877703 139.740493 
L 295.964785 139.721636 
L 313.051866 139.705676 
L 330.138947 139.69251 
L 347.226029 139.682061 
L 364.31311 139.674268 
L 381.400191 139.669092 
L 398.487273 139.666507 
" clip-path="url(#p558a7aa527)" style="fill: none; stroke: #ff7f0e; stroke-width: 1.5; stroke-linecap: square"/>
   </g>
   <g id="line2d_48">
    <path d="M 73.832727 140.319982 
L 90.919809 140.251644 
L 108.00689 140.192001 
L 125.093971 140.139312 
L 142.181053 140.092397 
L 159.268134 140.050421 
L 176.355215 140.012771 
L 193.442297 139.978982 
L 210.529378 139.948697 
L 227.616459 139.921633 
L 244.703541 139.897562 
L 261.790622 139.876303 
L 278.877703 139.857708 
L 295.964785 139.841657 
L 313.051866 139.828053 
L 330.138947 139.816819 
L 347.226029 139.807895 
L 364.31311 139.801236 
L 381.400191 139.79681 
L 398.487273 139.7946 
" clip-path="url(#p558a7aa527)" style="fill: none; stroke: #2ca02c; stroke-width: 1.5; stroke-linecap: square"/>
   </g>
   <g id="patch_10">
    <path d="M 57.6 142.411034 
L 57.6 96.529655 
" style="fill: none; stroke: #000000; stroke-width: 0.8; stroke-linejoin: miter; stroke-linecap: square"/>
   </g>
   <g id="patch_11">
    <path d="M 414.72 142.411034 
L 414.72 96.529655 
" style="fill: none; stroke: #000000; stroke-width: 0.8; stroke-linejoin: miter; stroke-linecap: square"/>
   </g>
   <g id="patch_12">
    <path d="M 57.6 142.411034 
L 414.72 142.411034 
" style="fill: none; stroke: #000000; stroke-width: 0.8; stroke-linejoin: miter; stroke-linecap: square"/>
   </g>
   <g id="patch_13">
    <path d="M 57.6 96.529655 
L 414.72 96.529655 
" style="fill: none; stroke: #000000; stroke-width: 0.8; stroke-linejoin: miter; stroke-linecap: square"/>
   </g>
   <g id="text_10">
    <!-- Pressure - Container 1 -->
    <g transform="translate(169.523438 93.529655)scale(0.12 -0.12)">
     <defs>
      <path id="DejaVuSans-50" d="M 1259 4147 
L 1259 2394 
L 2053 2394 
Q 2494 2394 2734 2622 
Q 2975 2850 2975 3272 
Q 2975 3691 2734 3919 
Q 2494 4147 2053 4147 
L 1259 4147 
z
M 628 4666 
L 2053 4666 
Q 2838 4666 3239 4311 
Q 3641 3956 3641 3272 
Q 3641 2581 3239 2228 
Q 2838 1875 2053 1875 
L 1259 1875 
L 1259 0 
L 628 0 
L 628 4666 
z
" transform="scale(0.015625)"/>
      <path id="DejaVuSans-75" d="M 544 1381 
L 544 3500 
L 1119 3500 
L 1119 1403 
Q 1119 906 1312 657 
Q 1506 409 1894 409 
Q 2359 409 2629 706 
Q 2900 1003 2900 1516 
L 2900 3500 
L 3475 3500 
L 3475 0 
L 2900 0 
L 2900 538 
Q 2691 219 2414 64 
Q 2138 -91 1772 -91 
Q 1169 -91 856 284 
Q 544 659 544 1381 
z
M 1991 3584 
L 1991 3584 
z
" transform="scale(0.015625)"/>
     </defs>
     <use xlink:href="#DejaVuSans-50"/>
     <use xlink:href="#DejaVuSans-72" x="58.552734"/>
     <use xlink:href="#DejaVuSans-65" x="97.416016"/>
     <use xlink:href="#DejaVuSans-73" x="158.939453"/>
     <use xlink:href="#DejaVuSans-73" x="211.039062"/>
     <use xlink:href="#DejaVuSans-75" x="263.138672"/>
     <use xlink:href="#DejaVuSans-72" x="326.517578"/>
     <use xlink:href="#DejaVuSans-65" x="365.380859"/>
     <use xlink:href="#DejaVuSans-20" x="426.904297"/>
     <use xlink:href="#DejaVuSans-2d" x="458.691406"/>
     <use xlink:href="#DejaVuSans-20" x="494.775391"/>
     <use xlink:href="#DejaVuSans-43" x="526.5625"/>
     <use xlink:href="#DejaVuSans-6f" x="596.386719"/>
     <use xlink:href="#DejaVuSans-6e" x="657.568359"/>
     <use xlink:href="#DejaVuSans-74" x="720.947266"/>
     <use xlink:href="#DejaVuSans-61" x="760.15625"/>
     <use xlink:href="#DejaVuSans-69" x="821.435547"/>
     <use xlink:href="#DejaVuSans-6e" x="849.21875"/>
     <use xlink:href="#DejaVuSans-65" x="912.597656"/>
     <use xlink:href="#DejaVuSans-72" x="974.121094"/>
     <use xlink:href="#DejaVuSans-20" x="1015.234375"/>
     <use xlink:href="#DejaVuSans-31" x="1047.021484"/>
    </g>
   </g>
  </g>
  <g id="axes_4">
   <g id="patch_14">
    <path d="M 57.6 197.46869 
L 414.72 197.46869 
L 414.72 151.58731 
L 57.6 151.58731 
z
" style="fill: #ffffff"/>
   </g>
   <g id="matplotlib.axis_7">
    <g id="xtick_17">
     <g id="line2d_49">
      <g>
       <use xlink:href="#m2b14a413d6" x="73.832727" y="197.46869" style="stroke: #000000; stroke-width: 0.8"/>
      </g>
     </g>
    </g>
    <g id="xtick_18">
     <g id="line2d_50">
      <g>
       <use xlink:href="#m2b14a413d6" x="116.550431" y="197.46869" style="stroke: #000000; stroke-width: 0.8"/>
      </g>
     </g>
    </g>
    <g id="xtick_19">
     <g id="line2d_51">
      <g>
       <use xlink:href="#m2b14a413d6" x="159.268134" y="197.46869" style="stroke: #000000; stroke-width: 0.8"/>
      </g>
     </g>
    </g>
    <g id="xtick_20">
     <g id="line2d_52">
      <g>
       <use xlink:href="#m2b14a413d6" x="201.985837" y="197.46869" style="stroke: #000000; stroke-width: 0.8"/>
      </g>
     </g>
    </g>
    <g id="xtick_21">
     <g id="line2d_53">
      <g>
       <use xlink:href="#m2b14a413d6" x="244.703541" y="197.46869" style="stroke: #000000; stroke-width: 0.8"/>
      </g>
     </g>
    </g>
    <g id="xtick_22">
     <g id="line2d_54">
      <g>
       <use xlink:href="#m2b14a413d6" x="287.421244" y="197.46869" style="stroke: #000000; stroke-width: 0.8"/>
      </g>
     </g>
    </g>
    <g id="xtick_23">
     <g id="line2d_55">
      <g>
       <use xlink:href="#m2b14a413d6" x="330.138947" y="197.46869" style="stroke: #000000; stroke-width: 0.8"/>
      </g>
     </g>
    </g>
    <g id="xtick_24">
     <g id="line2d_56">
      <g>
       <use xlink:href="#m2b14a413d6" x="372.856651" y="197.46869" style="stroke: #000000; stroke-width: 0.8"/>
      </g>
     </g>
    </g>
   </g>
   <g id="matplotlib.axis_8">
    <g id="ytick_7">
     <g id="line2d_57">
      <g>
       <use xlink:href="#mabe5809f9f" x="57.6" y="181.570864" style="stroke: #000000; stroke-width: 0.8"/>
      </g>
     </g>
     <g id="text_11">
      <!-- 0.05 -->
      <g transform="translate(28.334375 185.370083)scale(0.1 -0.1)">
       <defs>
        <path id="DejaVuSans-2e" d="M 684 794 
L 1344 794 
L 1344 0 
L 684 0 
L 684 794 
z
" transform="scale(0.015625)"/>
        <path id="DejaVuSans-35" d="M 691 4666 
L 3169 4666 
L 3169 4134 
L 1269 4134 
L 1269 2991 
Q 1406 3038 1543 3061 
Q 1681 3084 1819 3084 
Q 2600 3084 3056 2656 
Q 3513 2228 3513 1497 
Q 3513 744 3044 326 
Q 2575 -91 1722 -91 
Q 1428 -91 1123 -41 
Q 819 9 494 109 
L 494 744 
Q 775 591 1075 516 
Q 1375 441 1709 441 
Q 2250 441 2565 725 
Q 2881 1009 2881 1497 
Q 2881 1984 2565 2268 
Q 2250 2553 1709 2553 
Q 1456 2553 1204 2497 
Q 953 2441 691 2322 
L 691 4666 
z
" transform="scale(0.015625)"/>
       </defs>
       <use xlink:href="#DejaVuSans-30"/>
       <use xlink:href="#DejaVuSans-2e" x="63.623047"/>
       <use xlink:href="#DejaVuSans-30" x="95.410156"/>
       <use xlink:href="#DejaVuSans-35" x="159.033203"/>
      </g>
     </g>
    </g>
    <g id="ytick_8">
     <g id="line2d_58">
      <g>
       <use xlink:href="#mabe5809f9f" x="57.6" y="157.070538" style="stroke: #000000; stroke-width: 0.8"/>
      </g>
     </g>
     <g id="text_12">
      <!-- 0.10 -->
      <g transform="translate(28.334375 160.869756)scale(0.1 -0.1)">
       <use xlink:href="#DejaVuSans-30"/>
       <use xlink:href="#DejaVuSans-2e" x="63.623047"/>
       <use xlink:href="#DejaVuSans-31" x="95.410156"/>
       <use xlink:href="#DejaVuSans-30" x="159.033203"/>
      </g>
     </g>
    </g>
   </g>
   <g id="line2d_59">
    <path d="M 73.832727 153.683651 
L 90.919809 156.818186 
L 108.00689 160.466857 
L 125.093971 163.869993 
L 142.181053 166.827638 
L 159.268134 169.33974 
L 176.355215 171.469458 
L 193.442297 173.286936 
L 210.529378 174.850478 
L 227.616459 176.203602 
L 244.703541 177.377305 
L 261.790622 178.393287 
L 278.877703 179.266847 
L 295.964785 180.009242 
L 313.051866 180.629532 
L 330.138947 181.135995 
L 347.226029 181.537108 
L 364.31311 181.842087 
L 381.400191 182.061009 
L 398.487273 182.204274 
" clip-path="url(#pa2122d08db)" style="fill: none; stroke: #1f77b4; stroke-width: 1.5; stroke-linecap: square"/>
   </g>
   <g id="line2d_60">
    <path d="M 73.832727 184.82266 
L 90.919809 186.965778 
L 108.00689 188.481495 
L 125.093971 189.607979 
L 142.181053 190.492442 
L 159.268134 191.219416 
L 176.355215 191.837315 
L 193.442297 192.374921 
L 210.529378 192.850113 
L 227.616459 193.27419 
L 244.703541 193.654078 
L 261.790622 193.993621 
L 278.877703 194.294558 
L 295.964785 194.557399 
L 313.051866 194.782211 
L 330.138947 194.969329 
L 347.226029 195.119933 
L 364.31311 195.236428 
L 381.400191 195.322609 
L 398.487273 195.383172 
" clip-path="url(#pa2122d08db)" style="fill: none; stroke: #ff7f0e; stroke-width: 1.5; stroke-linecap: square"/>
   </g>
   <g id="line2d_61">
    <path d="M 73.832727 184.222921 
L 90.919809 186.462008 
L 108.00689 188.125029 
L 125.093971 189.354665 
L 142.181053 190.303447 
L 159.268134 191.070959 
L 176.355215 191.715821 
L 193.442297 192.27252 
L 210.529378 192.762043 
L 227.616459 193.197466 
L 244.703541 193.586821 
L 261.790622 193.934692 
L 278.877703 194.243309 
L 295.964785 194.513483 
L 313.051866 194.74542 
L 330.138947 194.939462 
L 347.226029 195.096684 
L 364.31311 195.219312 
L 381.400191 195.310916 
L 398.487273 195.375844 
" clip-path="url(#pa2122d08db)" style="fill: none; stroke: #2ca02c; stroke-width: 1.5; stroke-linecap: square"/>
   </g>
   <g id="line2d_62">
    <path d="M 73.832727 182.965445 
L 90.919809 184.962917 
L 108.00689 186.859375 
L 125.093971 188.395918 
L 142.181053 189.585525 
L 159.268134 190.516942 
L 176.355215 191.270618 
L 193.442297 191.901737 
L 210.529378 192.444884 
L 227.616459 192.921253 
L 244.703541 193.343732 
L 261.790622 193.719945 
L 278.877703 194.054083 
L 295.964785 194.348174 
L 313.051866 194.603077 
L 330.138947 194.819326 
L 347.226029 194.997821 
L 364.31311 195.140345 
L 381.400191 195.249873 
L 398.487273 195.330136 
" clip-path="url(#pa2122d08db)" style="fill: none; stroke: #d62728; stroke-width: 1.5; stroke-linecap: square"/>
   </g>
   <g id="line2d_63">
    <path d="M 73.832727 181.713929 
L 90.919809 183.464868 
L 108.00689 185.383657 
L 125.093971 187.082992 
L 142.181053 188.453725 
L 159.268134 189.53346 
L 176.355215 190.396423 
L 193.442297 191.106625 
L 210.529378 191.708552 
L 227.616459 192.230653 
L 244.703541 192.690505 
L 261.790622 193.098679 
L 278.877703 193.461234 
L 295.964785 193.781362 
L 313.051866 194.060595 
L 330.138947 194.299754 
L 347.226029 194.499734 
L 364.31311 194.66209 
L 381.400191 194.789431 
L 398.487273 194.88502 
" clip-path="url(#pa2122d08db)" style="fill: none; stroke: #9467bd; stroke-width: 1.5; stroke-linecap: square"/>
   </g>
   <g id="line2d_64">
    <path d="M 73.832727 177.557056 
L 90.919809 179.535553 
L 108.00689 181.706425 
L 125.093971 183.649331 
L 142.181053 185.234934 
L 159.268134 186.494077 
L 176.355215 187.503645 
L 193.442297 188.333975 
L 210.529378 189.035891 
L 227.616459 189.642832 
L 244.703541 190.175914 
L 261.790622 190.64809 
L 278.877703 191.066973 
L 295.964785 191.436722 
L 313.051866 191.759408 
L 330.138947 192.036082 
L 347.226029 192.267646 
L 364.31311 192.455537 
L 381.400191 192.602193 
L 398.487273 192.710807 
" clip-path="url(#pa2122d08db)" style="fill: none; stroke: #8c564b; stroke-width: 1.5; stroke-linecap: square"/>
   </g>
   <g id="line2d_65">
    <path d="M 73.832727 176.888984 
L 90.919809 178.903549 
L 108.00689 181.11669 
L 125.093971 183.101774 
L 142.181053 184.726036 
L 159.268134 186.019068 
L 176.355215 187.058063 
L 193.442297 187.914303 
L 210.529378 188.639594 
L 227.616459 189.268163 
L 244.703541 189.821692 
L 261.790622 190.31353 
L 278.877703 190.751563 
L 295.964785 191.140148 
L 313.051866 191.4815 
L 330.138947 191.776787 
L 347.226029 192.027013 
L 364.31311 192.233713 
L 381.400191 192.399422 
L 398.487273 192.527399 
" clip-path="url(#pa2122d08db)" style="fill: none; stroke: #e377c2; stroke-width: 1.5; stroke-linecap: square"/>
   </g>
   <g id="line2d_66">
    <path d="M 73.832727 176.847473 
L 90.919809 178.862817 
L 108.00689 181.078504 
L 125.093971 183.066449 
L 142.181053 184.693522 
L 159.268134 185.98913 
L 176.355215 187.03044 
L 193.442297 187.888784 
L 210.529378 188.616032 
L 227.616459 189.246458 
L 244.703541 189.801783 
L 261.790622 190.295376 
L 278.877703 190.73514 
L 295.964785 191.125438 
L 313.051866 191.468495 
L 330.138947 191.765483 
L 347.226029 192.017408 
L 364.31311 192.225808 
L 381.400191 192.393221 
L 398.487273 192.522838 
" clip-path="url(#pa2122d08db)" style="fill: none; stroke: #7f7f7f; stroke-width: 1.5; stroke-linecap: square"/>
   </g>
   <g id="line2d_67">
    <path d="M 73.832727 164.476184 
L 90.919809 169.730374 
L 108.00689 173.858848 
L 125.093971 177.092944 
L 142.181053 179.5975 
L 159.268134 181.546238 
L 176.355215 183.092354 
L 193.442297 184.351104 
L 210.529378 185.401851 
L 227.616459 186.297115 
L 244.703541 187.071207 
L 261.790622 187.746451 
L 278.877703 188.337262 
L 295.964785 188.852844 
L 313.051866 189.299076 
L 330.138947 189.679936 
L 347.226029 189.99861 
L 364.31311 190.258335 
L 381.400191 190.462967 
L 398.487273 190.616628 
" clip-path="url(#pa2122d08db)" style="fill: none; stroke: #bcbd22; stroke-width: 1.5; stroke-linecap: square"/>
   </g>
   <g id="line2d_68">
    <path d="M 73.832727 155.151619 
L 90.919809 162.068815 
L 108.00689 167.304723 
L 125.093971 171.327756 
L 142.181053 174.433775 
L 159.268134 176.860846 
L 176.355215 178.796274 
L 193.442297 180.376383 
L 210.529378 181.695103 
L 227.616459 182.815567 
L 244.703541 183.779958 
L 261.790622 184.616477 
L 278.877703 185.34396 
L 295.964785 185.974963 
L 313.051866 186.517942 
L 330.138947 186.978879 
L 347.226029 187.362546 
L 364.31311 187.67346 
L 381.400191 187.916512 
L 398.487273 188.096609 
" clip-path="url(#pa2122d08db)" style="fill: none; stroke: #17becf; stroke-width: 1.5; stroke-linecap: square"/>
   </g>
   <g id="line2d_69">
    <path d="M 73.832727 154.016296 
L 90.919809 159.442849 
L 108.00689 164.241272 
L 125.093971 168.181793 
L 142.181053 171.344961 
L 159.268134 173.884045 
L 176.355215 175.94858 
L 193.442297 177.657721 
L 210.529378 179.097945 
L 227.616459 180.3295 
L 244.703541 181.393775 
L 261.790622 182.319076 
L 278.877703 183.124696 
L 295.964785 183.823755 
L 313.051866 184.425276 
L 330.138947 184.935778 
L 347.226029 185.360531 
L 364.31311 185.704518 
L 381.400191 185.973066 
L 398.487273 186.171432 
" clip-path="url(#pa2122d08db)" style="fill: none; stroke: #1f77b4; stroke-width: 1.5; stroke-linecap: square"/>
   </g>
   <g id="line2d_70">
    <path d="M 73.832727 153.783873 
L 90.919809 158.03939 
L 108.00689 162.316526 
L 125.093971 166.039805 
L 142.181053 169.136074 
L 159.268134 171.683463 
L 176.355215 173.792588 
L 193.442297 175.562201 
L 210.529378 177.06813 
L 227.616459 178.365102 
L 244.703541 179.491656 
L 261.790622 180.474649 
L 278.877703 181.332661 
L 295.964785 182.078495 
L 313.051866 182.721075 
L 330.138947 183.266944 
L 347.226029 183.72148 
L 364.31311 184.089826 
L 381.400191 184.377511 
L 398.487273 184.589965 
" clip-path="url(#pa2122d08db)" style="fill: none; stroke: #ff7f0e; stroke-width: 1.5; stroke-linecap: square"/>
   </g>
   <g id="line2d_71">
    <path d="M 73.832727 153.672828 
L 90.919809 157.110723 
L 108.00689 160.938139 
L 125.093971 164.431859 
L 142.181053 167.424676 
L 159.268134 169.939492 
L 176.355215 172.054826 
L 193.442297 173.851043 
L 210.529378 175.393543 
L 227.616459 176.731131 
L 244.703541 177.898948 
L 261.790622 178.92187 
L 278.877703 179.817308 
L 295.964785 180.597372 
L 313.051866 181.270584 
L 330.138947 181.843272 
L 347.226029 182.320723 
L 364.31311 182.70809 
L 381.400191 183.010974 
L 398.487273 183.234884 
" clip-path="url(#pa2122d08db)" style="fill: none; stroke: #2ca02c; stroke-width: 1.5; stroke-linecap: square"/>
   </g>
   <g id="patch_15">
    <path d="M 57.6 197.46869 
L 57.6 151.58731 
" style="fill: none; stroke: #000000; stroke-width: 0.8; stroke-linejoin: miter; stroke-linecap: square"/>
   </g>
   <g id="patch_16">
    <path d="M 414.72 197.46869 
L 414.72 151.58731 
" style="fill: none; stroke: #000000; stroke-width: 0.8; stroke-linejoin: miter; stroke-linecap: square"/>
   </g>
   <g id="patch_17">
    <path d="M 57.6 197.46869 
L 414.72 197.46869 
" style="fill: none; stroke: #000000; stroke-width: 0.8; stroke-linejoin: miter; stroke-linecap: square"/>
   </g>
   <g id="patch_18">
    <path d="M 57.6 151.58731 
L 414.72 151.58731 
" style="fill: none; stroke: #000000; stroke-width: 0.8; stroke-linejoin: miter; stroke-linecap: square"/>
   </g>
   <g id="text_13">
    <!-- yA - Container 1 -->
    <g transform="translate(187.48125 148.58731)scale(0.12 -0.12)">
     <defs>
      <path id="DejaVuSans-41" d="M 2188 4044 
L 1331 1722 
L 3047 1722 
L 2188 4044 
z
M 1831 4666 
L 2547 4666 
L 4325 0 
L 3669 0 
L 3244 1197 
L 1141 1197 
L 716 0 
L 50 0 
L 1831 4666 
z
" transform="scale(0.015625)"/>
     </defs>
     <use xlink:href="#DejaVuSans-79"/>
     <use xlink:href="#DejaVuSans-41" x="59.179688"/>
     <use xlink:href="#DejaVuSans-20" x="127.587891"/>
     <use xlink:href="#DejaVuSans-2d" x="159.375"/>
     <use xlink:href="#DejaVuSans-20" x="195.458984"/>
     <use xlink:href="#DejaVuSans-43" x="227.246094"/>
     <use xlink:href="#DejaVuSans-6f" x="297.070312"/>
     <use xlink:href="#DejaVuSans-6e" x="358.251953"/>
     <use xlink:href="#DejaVuSans-74" x="421.630859"/>
     <use xlink:href="#DejaVuSans-61" x="460.839844"/>
     <use xlink:href="#DejaVuSans-69" x="522.119141"/>
     <use xlink:href="#DejaVuSans-6e" x="549.902344"/>
     <use xlink:href="#DejaVuSans-65" x="613.28125"/>
     <use xlink:href="#DejaVuSans-72" x="674.804688"/>
     <use xlink:href="#DejaVuSans-20" x="715.917969"/>
     <use xlink:href="#DejaVuSans-31" x="747.705078"/>
    </g>
   </g>
  </g>
  <g id="axes_5">
   <g id="patch_19">
    <path d="M 57.6 252.526345 
L 414.72 252.526345 
L 414.72 206.644966 
L 57.6 206.644966 
z
" style="fill: #ffffff"/>
   </g>
   <g id="matplotlib.axis_9">
    <g id="xtick_25">
     <g id="line2d_72">
      <g>
       <use xlink:href="#m2b14a413d6" x="73.832727" y="252.526345" style="stroke: #000000; stroke-width: 0.8"/>
      </g>
     </g>
    </g>
    <g id="xtick_26">
     <g id="line2d_73">
      <g>
       <use xlink:href="#m2b14a413d6" x="116.550431" y="252.526345" style="stroke: #000000; stroke-width: 0.8"/>
      </g>
     </g>
    </g>
    <g id="xtick_27">
     <g id="line2d_74">
      <g>
       <use xlink:href="#m2b14a413d6" x="159.268134" y="252.526345" style="stroke: #000000; stroke-width: 0.8"/>
      </g>
     </g>
    </g>
    <g id="xtick_28">
     <g id="line2d_75">
      <g>
       <use xlink:href="#m2b14a413d6" x="201.985837" y="252.526345" style="stroke: #000000; stroke-width: 0.8"/>
      </g>
     </g>
    </g>
    <g id="xtick_29">
     <g id="line2d_76">
      <g>
       <use xlink:href="#m2b14a413d6" x="244.703541" y="252.526345" style="stroke: #000000; stroke-width: 0.8"/>
      </g>
     </g>
    </g>
    <g id="xtick_30">
     <g id="line2d_77">
      <g>
       <use xlink:href="#m2b14a413d6" x="287.421244" y="252.526345" style="stroke: #000000; stroke-width: 0.8"/>
      </g>
     </g>
    </g>
    <g id="xtick_31">
     <g id="line2d_78">
      <g>
       <use xlink:href="#m2b14a413d6" x="330.138947" y="252.526345" style="stroke: #000000; stroke-width: 0.8"/>
      </g>
     </g>
    </g>
    <g id="xtick_32">
     <g id="line2d_79">
      <g>
       <use xlink:href="#m2b14a413d6" x="372.856651" y="252.526345" style="stroke: #000000; stroke-width: 0.8"/>
      </g>
     </g>
    </g>
   </g>
   <g id="matplotlib.axis_10">
    <g id="ytick_9">
     <g id="line2d_80">
      <g>
       <use xlink:href="#mabe5809f9f" x="57.6" y="244.567707" style="stroke: #000000; stroke-width: 0.8"/>
      </g>
     </g>
     <g id="text_14">
      <!-- 0.85 -->
      <g transform="translate(28.334375 248.366926)scale(0.1 -0.1)">
       <defs>
        <path id="DejaVuSans-38" d="M 2034 2216 
Q 1584 2216 1326 1975 
Q 1069 1734 1069 1313 
Q 1069 891 1326 650 
Q 1584 409 2034 409 
Q 2484 409 2743 651 
Q 3003 894 3003 1313 
Q 3003 1734 2745 1975 
Q 2488 2216 2034 2216 
z
M 1403 2484 
Q 997 2584 770 2862 
Q 544 3141 544 3541 
Q 544 4100 942 4425 
Q 1341 4750 2034 4750 
Q 2731 4750 3128 4425 
Q 3525 4100 3525 3541 
Q 3525 3141 3298 2862 
Q 3072 2584 2669 2484 
Q 3125 2378 3379 2068 
Q 3634 1759 3634 1313 
Q 3634 634 3220 271 
Q 2806 -91 2034 -91 
Q 1263 -91 848 271 
Q 434 634 434 1313 
Q 434 1759 690 2068 
Q 947 2378 1403 2484 
z
M 1172 3481 
Q 1172 3119 1398 2916 
Q 1625 2713 2034 2713 
Q 2441 2713 2670 2916 
Q 2900 3119 2900 3481 
Q 2900 3844 2670 4047 
Q 2441 4250 2034 4250 
Q 1625 4250 1398 4047 
Q 1172 3844 1172 3481 
z
" transform="scale(0.015625)"/>
       </defs>
       <use xlink:href="#DejaVuSans-30"/>
       <use xlink:href="#DejaVuSans-2e" x="63.623047"/>
       <use xlink:href="#DejaVuSans-38" x="95.410156"/>
       <use xlink:href="#DejaVuSans-35" x="159.033203"/>
      </g>
     </g>
    </g>
    <g id="ytick_10">
     <g id="line2d_81">
      <g>
       <use xlink:href="#mabe5809f9f" x="57.6" y="223.132192" style="stroke: #000000; stroke-width: 0.8"/>
      </g>
     </g>
     <g id="text_15">
      <!-- 0.90 -->
      <g transform="translate(28.334375 226.93141)scale(0.1 -0.1)">
       <defs>
        <path id="DejaVuSans-39" d="M 703 97 
L 703 672 
Q 941 559 1184 500 
Q 1428 441 1663 441 
Q 2288 441 2617 861 
Q 2947 1281 2994 2138 
Q 2813 1869 2534 1725 
Q 2256 1581 1919 1581 
Q 1219 1581 811 2004 
Q 403 2428 403 3163 
Q 403 3881 828 4315 
Q 1253 4750 1959 4750 
Q 2769 4750 3195 4129 
Q 3622 3509 3622 2328 
Q 3622 1225 3098 567 
Q 2575 -91 1691 -91 
Q 1453 -91 1209 -44 
Q 966 3 703 97 
z
M 1959 2075 
Q 2384 2075 2632 2365 
Q 2881 2656 2881 3163 
Q 2881 3666 2632 3958 
Q 2384 4250 1959 4250 
Q 1534 4250 1286 3958 
Q 1038 3666 1038 3163 
Q 1038 2656 1286 2365 
Q 1534 2075 1959 2075 
z
" transform="scale(0.015625)"/>
       </defs>
       <use xlink:href="#DejaVuSans-30"/>
       <use xlink:href="#DejaVuSans-2e" x="63.623047"/>
       <use xlink:href="#DejaVuSans-39" x="95.410156"/>
       <use xlink:href="#DejaVuSans-30" x="159.033203"/>
      </g>
     </g>
    </g>
   </g>
   <g id="line2d_82">
    <path d="M 73.832727 250.440828 
L 90.919809 247.908421 
L 108.00689 244.899458 
L 125.093971 242.056281 
L 142.181053 239.554418 
L 159.268134 237.401584 
L 176.355215 235.551337 
L 193.442297 233.949944 
L 210.529378 232.55231 
L 227.616459 231.324733 
L 244.703541 230.243285 
L 261.790622 229.291329 
L 278.877703 228.457244 
L 295.964785 227.732566 
L 313.051866 227.110507 
L 330.138947 226.584839 
L 347.226029 226.149106 
L 364.31311 225.796221 
L 381.400191 225.518494 
L 398.487273 225.308711 
" clip-path="url(#p3cce669198)" style="fill: none; stroke: #1f77b4; stroke-width: 1.5; stroke-linecap: square"/>
   </g>
   <g id="line2d_83">
    <path d="M 73.832727 220.22386 
L 90.919809 218.265851 
L 108.00689 216.817852 
L 125.093971 215.69496 
L 142.181053 214.778478 
L 159.268134 213.999672 
L 176.355215 213.319025 
L 193.442297 212.712903 
L 210.529378 212.166454 
L 227.616459 211.670088 
L 244.703541 211.217684 
L 261.790622 210.805556 
L 278.877703 210.43164 
L 295.964785 210.094745 
L 313.051866 209.793865 
L 330.138947 209.527556 
L 347.226029 209.293305 
L 364.31311 209.086877 
L 381.400191 208.901515 
L 398.487273 208.730483 
" clip-path="url(#p3cce669198)" style="fill: none; stroke: #ff7f0e; stroke-width: 1.5; stroke-linecap: square"/>
   </g>
   <g id="line2d_84">
    <path d="M 73.832727 220.860071 
L 90.919809 218.879669 
L 108.00689 217.340587 
L 125.093971 216.142725 
L 142.181053 215.171811 
L 159.268134 214.35225 
L 176.355215 213.639188 
L 193.442297 213.005944 
L 210.529378 212.436005 
L 227.616459 211.918815 
L 244.703541 211.447637 
L 261.790622 211.018359 
L 278.877703 210.628644 
L 295.964785 210.277183 
L 313.051866 209.963004 
L 330.138947 209.684839 
L 347.226029 209.440542 
L 364.31311 209.226537 
L 381.400191 209.03731 
L 398.487273 208.868453 
" clip-path="url(#p3cce669198)" style="fill: none; stroke: #2ca02c; stroke-width: 1.5; stroke-linecap: square"/>
   </g>
   <g id="line2d_85">
    <path d="M 73.832727 221.988394 
L 90.919809 220.331991 
L 108.00689 218.728926 
L 125.093971 217.388603 
L 142.181053 216.303308 
L 159.268134 215.40585 
L 176.355215 214.636519 
L 193.442297 213.955998 
L 210.529378 213.34107 
L 227.616459 212.778552 
L 244.703541 212.261117 
L 261.790622 211.784891 
L 278.877703 211.348071 
L 295.964785 210.950013 
L 313.051866 210.590528 
L 330.138947 210.26928 
L 347.226029 209.985272 
L 364.31311 209.736428 
L 381.400191 209.519301 
L 398.487273 209.330634 
" clip-path="url(#p3cce669198)" style="fill: none; stroke: #d62728; stroke-width: 1.5; stroke-linecap: square"/>
   </g>
   <g id="line2d_86">
    <path d="M 73.832727 223.219192 
L 90.919809 221.78466 
L 108.00689 220.200147 
L 125.093971 218.775844 
L 142.181053 217.597847 
L 159.268134 216.635101 
L 176.355215 215.82854 
L 193.442297 215.128641 
L 210.529378 214.50247 
L 227.616459 213.930403 
L 244.703541 213.401594 
L 261.790622 212.910609 
L 278.877703 212.455261 
L 295.964785 212.035218 
L 313.051866 211.651007 
L 330.138947 211.303262 
L 347.226029 210.99212 
L 364.31311 210.716766 
L 381.400191 210.475148 
L 398.487273 210.265469 
" clip-path="url(#p3cce669198)" style="fill: none; stroke: #9467bd; stroke-width: 1.5; stroke-linecap: square"/>
   </g>
   <g id="line2d_87">
    <path d="M 73.832727 227.556051 
L 90.919809 225.938177 
L 108.00689 224.153372 
L 125.093971 222.539901 
L 142.181053 221.200835 
L 159.268134 220.110454 
L 176.355215 219.206801 
L 193.442297 218.434114 
L 210.529378 217.753076 
L 227.616459 217.138817 
L 244.703541 216.576586 
L 261.790622 216.058212 
L 278.877703 215.579692 
L 295.964785 215.139591 
L 313.051866 214.737894 
L 330.138947 214.375124 
L 347.226029 214.051627 
L 364.31311 213.767034 
L 381.400191 213.519882 
L 398.487273 213.308259 
" clip-path="url(#p3cce669198)" style="fill: none; stroke: #8c564b; stroke-width: 1.5; stroke-linecap: square"/>
   </g>
   <g id="line2d_88">
    <path d="M 73.832727 228.245749 
L 90.919809 226.598474 
L 108.00689 224.779292 
L 125.093971 223.131747 
L 142.181053 221.76176 
L 159.268134 220.6446 
L 176.355215 219.71796 
L 193.442297 218.925162 
L 210.529378 218.225917 
L 227.616459 217.594548 
L 244.703541 217.015692 
L 261.790622 216.480729 
L 278.877703 215.985341 
L 295.964785 215.527867 
L 313.051866 215.108137 
L 330.138947 214.726564 
L 347.226029 214.38342 
L 364.31311 214.078275 
L 381.400191 213.80962 
L 398.487273 213.575883 
" clip-path="url(#p3cce669198)" style="fill: none; stroke: #e377c2; stroke-width: 1.5; stroke-linecap: square"/>
   </g>
   <g id="line2d_89">
    <path d="M 73.832727 228.288939 
L 90.919809 226.641005 
L 108.00689 224.819696 
L 125.093971 223.169766 
L 142.181053 221.797438 
L 159.268134 220.678128 
L 176.355215 219.749541 
L 193.442297 218.954947 
L 210.529378 218.254 
L 227.616459 217.620966 
L 244.703541 217.040446 
L 261.790622 216.503796 
L 278.877703 216.00668 
L 295.964785 215.54743 
L 313.051866 215.12587 
L 330.138947 214.742412 
L 347.226029 214.397328 
L 364.31311 214.09019 
L 381.400191 213.819501 
L 398.487273 213.584279 
" clip-path="url(#p3cce669198)" style="fill: none; stroke: #7f7f7f; stroke-width: 1.5; stroke-linecap: square"/>
   </g>
   <g id="line2d_90">
    <path d="M 73.832727 240.237323 
L 90.919809 235.696345 
L 108.00689 232.127064 
L 125.093971 229.3087 
L 142.181053 227.09957 
L 159.268134 225.349843 
L 176.355215 223.930963 
L 193.442297 222.747144 
L 210.529378 221.733011 
L 227.616459 220.845717 
L 244.703541 220.057685 
L 261.790622 219.351352 
L 278.877703 218.715715 
L 295.964785 218.144048 
L 313.051866 217.632299 
L 330.138947 217.177891 
L 347.226029 216.778798 
L 364.31311 216.432851 
L 381.400191 216.137356 
L 398.487273 215.890452 
" clip-path="url(#p3cce669198)" style="fill: none; stroke: #bcbd22; stroke-width: 1.5; stroke-linecap: square"/>
   </g>
   <g id="line2d_91">
    <path d="M 73.832727 248.661933 
L 90.919809 242.822607 
L 108.00689 238.360139 
L 125.093971 234.894815 
L 142.181053 232.183706 
L 159.268134 230.031134 
L 176.355215 228.283323 
L 193.442297 226.828499 
L 210.529378 225.589789 
L 227.616459 224.515689 
L 244.703541 223.571966 
L 261.790622 222.735921 
L 278.877703 221.992567 
L 295.964785 221.332076 
L 313.051866 220.747969 
L 330.138947 220.235763 
L 347.226029 219.79193 
L 364.31311 219.413129 
L 381.400191 219.095797 
L 398.487273 218.837229 
" clip-path="url(#p3cce669198)" style="fill: none; stroke: #17becf; stroke-width: 1.5; stroke-linecap: square"/>
   </g>
   <g id="line2d_92">
    <path d="M 73.832727 249.792839 
L 90.919809 245.289369 
L 108.00689 241.25485 
L 125.093971 237.901906 
L 142.181053 235.174448 
L 159.268134 232.95202 
L 176.355215 231.115154 
L 193.442297 229.568177 
L 210.529378 228.241568 
L 227.616459 227.086937 
L 244.703541 226.071147 
L 261.790622 225.171656 
L 278.877703 224.373232 
L 295.964785 223.665635 
L 313.051866 223.041937 
L 330.138947 222.497212 
L 347.226029 222.027522 
L 364.31311 221.629153 
L 381.400191 221.298214 
L 398.487273 221.031665 
" clip-path="url(#p3cce669198)" style="fill: none; stroke: #1f77b4; stroke-width: 1.5; stroke-linecap: square"/>
   </g>
   <g id="line2d_93">
    <path d="M 73.832727 250.148969 
L 90.919809 246.658165 
L 108.00689 243.094195 
L 125.093971 239.953136 
L 142.181053 237.307084 
L 159.268134 235.099137 
L 176.355215 233.243213 
L 193.442297 231.661437 
L 210.529378 230.293771 
L 227.616459 229.096875 
L 244.703541 228.040299 
L 261.790622 227.102926 
L 278.877703 226.270256 
L 295.964785 225.53241 
L 313.051866 224.882601 
L 330.138947 224.315926 
L 347.226029 223.82839 
L 364.31311 223.416178 
L 381.400191 223.07527 
L 398.487273 222.802481 
" clip-path="url(#p3cce669198)" style="fill: none; stroke: #ff7f0e; stroke-width: 1.5; stroke-linecap: square"/>
   </g>
   <g id="line2d_94">
    <path d="M 73.832727 250.385894 
L 90.919809 247.594543 
L 108.00689 244.427975 
L 125.093971 241.500267 
L 142.181053 238.960459 
L 159.268134 236.797432 
L 176.355215 234.95202 
L 193.442297 233.361962 
L 210.529378 231.976206 
L 227.616459 230.756603 
L 244.703541 229.675736 
L 261.790622 228.71429 
L 278.877703 227.858854 
L 295.964785 227.100206 
L 313.051866 226.431953 
L 330.138947 225.849416 
L 347.226029 225.348708 
L 364.31311 224.926044 
L 381.400191 224.577372 
L 398.487273 224.299468 
" clip-path="url(#p3cce669198)" style="fill: none; stroke: #2ca02c; stroke-width: 1.5; stroke-linecap: square"/>
   </g>
   <g id="patch_20">
    <path d="M 57.6 252.526345 
L 57.6 206.644966 
" style="fill: none; stroke: #000000; stroke-width: 0.8; stroke-linejoin: miter; stroke-linecap: square"/>
   </g>
   <g id="patch_21">
    <path d="M 414.72 252.526345 
L 414.72 206.644966 
" style="fill: none; stroke: #000000; stroke-width: 0.8; stroke-linejoin: miter; stroke-linecap: square"/>
   </g>
   <g id="patch_22">
    <path d="M 57.6 252.526345 
L 414.72 252.526345 
" style="fill: none; stroke: #000000; stroke-width: 0.8; stroke-linejoin: miter; stroke-linecap: square"/>
   </g>
   <g id="patch_23">
    <path d="M 57.6 206.644966 
L 414.72 206.644966 
" style="fill: none; stroke: #000000; stroke-width: 0.8; stroke-linejoin: miter; stroke-linecap: square"/>
   </g>
   <g id="text_16">
    <!-- yB - Container 1 -->
    <g transform="translate(187.469063 203.644966)scale(0.12 -0.12)">
     <defs>
      <path id="DejaVuSans-42" d="M 1259 2228 
L 1259 519 
L 2272 519 
Q 2781 519 3026 730 
Q 3272 941 3272 1375 
Q 3272 1813 3026 2020 
Q 2781 2228 2272 2228 
L 1259 2228 
z
M 1259 4147 
L 1259 2741 
L 2194 2741 
Q 2656 2741 2882 2914 
Q 3109 3088 3109 3444 
Q 3109 3797 2882 3972 
Q 2656 4147 2194 4147 
L 1259 4147 
z
M 628 4666 
L 2241 4666 
Q 2963 4666 3353 4366 
Q 3744 4066 3744 3513 
Q 3744 3084 3544 2831 
Q 3344 2578 2956 2516 
Q 3422 2416 3680 2098 
Q 3938 1781 3938 1306 
Q 3938 681 3513 340 
Q 3088 0 2303 0 
L 628 0 
L 628 4666 
z
" transform="scale(0.015625)"/>
     </defs>
     <use xlink:href="#DejaVuSans-79"/>
     <use xlink:href="#DejaVuSans-42" x="59.179688"/>
     <use xlink:href="#DejaVuSans-20" x="127.783203"/>
     <use xlink:href="#DejaVuSans-2d" x="159.570312"/>
     <use xlink:href="#DejaVuSans-20" x="195.654297"/>
     <use xlink:href="#DejaVuSans-43" x="227.441406"/>
     <use xlink:href="#DejaVuSans-6f" x="297.265625"/>
     <use xlink:href="#DejaVuSans-6e" x="358.447266"/>
     <use xlink:href="#DejaVuSans-74" x="421.826172"/>
     <use xlink:href="#DejaVuSans-61" x="461.035156"/>
     <use xlink:href="#DejaVuSans-69" x="522.314453"/>
     <use xlink:href="#DejaVuSans-6e" x="550.097656"/>
     <use xlink:href="#DejaVuSans-65" x="613.476562"/>
     <use xlink:href="#DejaVuSans-72" x="675"/>
     <use xlink:href="#DejaVuSans-20" x="716.113281"/>
     <use xlink:href="#DejaVuSans-31" x="747.900391"/>
    </g>
   </g>
  </g>
  <g id="axes_6">
   <g id="patch_24">
    <path d="M 57.6 307.584 
L 414.72 307.584 
L 414.72 261.702621 
L 57.6 261.702621 
z
" style="fill: #ffffff"/>
   </g>
   <g id="matplotlib.axis_11">
    <g id="xtick_33">
     <g id="line2d_95">
      <g>
       <use xlink:href="#m2b14a413d6" x="73.832727" y="307.584" style="stroke: #000000; stroke-width: 0.8"/>
      </g>
     </g>
     <g id="text_17">
      <!-- 0.0 -->
      <g transform="translate(65.881165 322.182437)scale(0.1 -0.1)">
       <use xlink:href="#DejaVuSans-30"/>
       <use xlink:href="#DejaVuSans-2e" x="63.623047"/>
       <use xlink:href="#DejaVuSans-30" x="95.410156"/>
      </g>
     </g>
    </g>
    <g id="xtick_34">
     <g id="line2d_96">
      <g>
       <use xlink:href="#m2b14a413d6" x="116.550431" y="307.584" style="stroke: #000000; stroke-width: 0.8"/>
      </g>
     </g>
     <g id="text_18">
      <!-- 2.5 -->
      <g transform="translate(108.598868 322.182437)scale(0.1 -0.1)">
       <use xlink:href="#DejaVuSans-32"/>
       <use xlink:href="#DejaVuSans-2e" x="63.623047"/>
       <use xlink:href="#DejaVuSans-35" x="95.410156"/>
      </g>
     </g>
    </g>
    <g id="xtick_35">
     <g id="line2d_97">
      <g>
       <use xlink:href="#m2b14a413d6" x="159.268134" y="307.584" style="stroke: #000000; stroke-width: 0.8"/>
      </g>
     </g>
     <g id="text_19">
      <!-- 5.0 -->
      <g transform="translate(151.316571 322.182437)scale(0.1 -0.1)">
       <use xlink:href="#DejaVuSans-35"/>
       <use xlink:href="#DejaVuSans-2e" x="63.623047"/>
       <use xlink:href="#DejaVuSans-30" x="95.410156"/>
      </g>
     </g>
    </g>
    <g id="xtick_36">
     <g id="line2d_98">
      <g>
       <use xlink:href="#m2b14a413d6" x="201.985837" y="307.584" style="stroke: #000000; stroke-width: 0.8"/>
      </g>
     </g>
     <g id="text_20">
      <!-- 7.5 -->
      <g transform="translate(194.034275 322.182437)scale(0.1 -0.1)">
       <defs>
        <path id="DejaVuSans-37" d="M 525 4666 
L 3525 4666 
L 3525 4397 
L 1831 0 
L 1172 0 
L 2766 4134 
L 525 4134 
L 525 4666 
z
" transform="scale(0.015625)"/>
       </defs>
       <use xlink:href="#DejaVuSans-37"/>
       <use xlink:href="#DejaVuSans-2e" x="63.623047"/>
       <use xlink:href="#DejaVuSans-35" x="95.410156"/>
      </g>
     </g>
    </g>
    <g id="xtick_37">
     <g id="line2d_99">
      <g>
       <use xlink:href="#m2b14a413d6" x="244.703541" y="307.584" style="stroke: #000000; stroke-width: 0.8"/>
      </g>
     </g>
     <g id="text_21">
      <!-- 10.0 -->
      <g transform="translate(233.570728 322.182437)scale(0.1 -0.1)">
       <use xlink:href="#DejaVuSans-31"/>
       <use xlink:href="#DejaVuSans-30" x="63.623047"/>
       <use xlink:href="#DejaVuSans-2e" x="127.246094"/>
       <use xlink:href="#DejaVuSans-30" x="159.033203"/>
      </g>
     </g>
    </g>
    <g id="xtick_38">
     <g id="line2d_100">
      <g>
       <use xlink:href="#m2b14a413d6" x="287.421244" y="307.584" style="stroke: #000000; stroke-width: 0.8"/>
      </g>
     </g>
     <g id="text_22">
      <!-- 12.5 -->
      <g transform="translate(276.288432 322.182437)scale(0.1 -0.1)">
       <use xlink:href="#DejaVuSans-31"/>
       <use xlink:href="#DejaVuSans-32" x="63.623047"/>
       <use xlink:href="#DejaVuSans-2e" x="127.246094"/>
       <use xlink:href="#DejaVuSans-35" x="159.033203"/>
      </g>
     </g>
    </g>
    <g id="xtick_39">
     <g id="line2d_101">
      <g>
       <use xlink:href="#m2b14a413d6" x="330.138947" y="307.584" style="stroke: #000000; stroke-width: 0.8"/>
      </g>
     </g>
     <g id="text_23">
      <!-- 15.0 -->
      <g transform="translate(319.006135 322.182437)scale(0.1 -0.1)">
       <use xlink:href="#DejaVuSans-31"/>
       <use xlink:href="#DejaVuSans-35" x="63.623047"/>
       <use xlink:href="#DejaVuSans-2e" x="127.246094"/>
       <use xlink:href="#DejaVuSans-30" x="159.033203"/>
      </g>
     </g>
    </g>
    <g id="xtick_40">
     <g id="line2d_102">
      <g>
       <use xlink:href="#m2b14a413d6" x="372.856651" y="307.584" style="stroke: #000000; stroke-width: 0.8"/>
      </g>
     </g>
     <g id="text_24">
      <!-- 17.5 -->
      <g transform="translate(361.723838 322.182437)scale(0.1 -0.1)">
       <use xlink:href="#DejaVuSans-31"/>
       <use xlink:href="#DejaVuSans-37" x="63.623047"/>
       <use xlink:href="#DejaVuSans-2e" x="127.246094"/>
       <use xlink:href="#DejaVuSans-35" x="159.033203"/>
      </g>
     </g>
    </g>
    <g id="text_25">
     <!-- position z -->
     <g transform="translate(212.142031 335.860562)scale(0.1 -0.1)">
      <defs>
       <path id="DejaVuSans-70" d="M 1159 525 
L 1159 -1331 
L 581 -1331 
L 581 3500 
L 1159 3500 
L 1159 2969 
Q 1341 3281 1617 3432 
Q 1894 3584 2278 3584 
Q 2916 3584 3314 3078 
Q 3713 2572 3713 1747 
Q 3713 922 3314 415 
Q 2916 -91 2278 -91 
Q 1894 -91 1617 61 
Q 1341 213 1159 525 
z
M 3116 1747 
Q 3116 2381 2855 2742 
Q 2594 3103 2138 3103 
Q 1681 3103 1420 2742 
Q 1159 2381 1159 1747 
Q 1159 1113 1420 752 
Q 1681 391 2138 391 
Q 2594 391 2855 752 
Q 3116 1113 3116 1747 
z
" transform="scale(0.015625)"/>
      </defs>
      <use xlink:href="#DejaVuSans-70"/>
      <use xlink:href="#DejaVuSans-6f" x="63.476562"/>
      <use xlink:href="#DejaVuSans-73" x="124.658203"/>
      <use xlink:href="#DejaVuSans-69" x="176.757812"/>
      <use xlink:href="#DejaVuSans-74" x="204.541016"/>
      <use xlink:href="#DejaVuSans-69" x="243.75"/>
      <use xlink:href="#DejaVuSans-6f" x="271.533203"/>
      <use xlink:href="#DejaVuSans-6e" x="332.714844"/>
      <use xlink:href="#DejaVuSans-20" x="396.09375"/>
      <use xlink:href="#DejaVuSans-7a" x="427.880859"/>
     </g>
    </g>
   </g>
   <g id="matplotlib.axis_12">
    <g id="ytick_11">
     <g id="line2d_103">
      <g>
       <use xlink:href="#mabe5809f9f" x="57.6" y="304.270434" style="stroke: #000000; stroke-width: 0.8"/>
      </g>
     </g>
     <g id="text_26">
      <!-- 0.045 -->
      <g transform="translate(21.971875 308.069653)scale(0.1 -0.1)">
       <defs>
        <path id="DejaVuSans-34" d="M 2419 4116 
L 825 1625 
L 2419 1625 
L 2419 4116 
z
M 2253 4666 
L 3047 4666 
L 3047 1625 
L 3713 1625 
L 3713 1100 
L 3047 1100 
L 3047 0 
L 2419 0 
L 2419 1100 
L 313 1100 
L 313 1709 
L 2253 4666 
z
" transform="scale(0.015625)"/>
       </defs>
       <use xlink:href="#DejaVuSans-30"/>
       <use xlink:href="#DejaVuSans-2e" x="63.623047"/>
       <use xlink:href="#DejaVuSans-30" x="95.410156"/>
       <use xlink:href="#DejaVuSans-34" x="159.033203"/>
       <use xlink:href="#DejaVuSans-35" x="222.65625"/>
      </g>
     </g>
    </g>
    <g id="ytick_12">
     <g id="line2d_104">
      <g>
       <use xlink:href="#mabe5809f9f" x="57.6" y="289.112815" style="stroke: #000000; stroke-width: 0.8"/>
      </g>
     </g>
     <g id="text_27">
      <!-- 0.050 -->
      <g transform="translate(21.971875 292.912033)scale(0.1 -0.1)">
       <use xlink:href="#DejaVuSans-30"/>
       <use xlink:href="#DejaVuSans-2e" x="63.623047"/>
       <use xlink:href="#DejaVuSans-30" x="95.410156"/>
       <use xlink:href="#DejaVuSans-35" x="159.033203"/>
       <use xlink:href="#DejaVuSans-30" x="222.65625"/>
      </g>
     </g>
    </g>
    <g id="ytick_13">
     <g id="line2d_105">
      <g>
       <use xlink:href="#mabe5809f9f" x="57.6" y="273.955195" style="stroke: #000000; stroke-width: 0.8"/>
      </g>
     </g>
     <g id="text_28">
      <!-- 0.055 -->
      <g transform="translate(21.971875 277.754414)scale(0.1 -0.1)">
       <use xlink:href="#DejaVuSans-30"/>
       <use xlink:href="#DejaVuSans-2e" x="63.623047"/>
       <use xlink:href="#DejaVuSans-30" x="95.410156"/>
       <use xlink:href="#DejaVuSans-35" x="159.033203"/>
       <use xlink:href="#DejaVuSans-35" x="222.65625"/>
      </g>
     </g>
    </g>
   </g>
   <g id="line2d_106">
    <path d="M 73.832727 268.536081 
L 90.919809 267.050973 
L 108.00689 265.754906 
L 125.093971 264.805576 
L 142.181053 264.198845 
L 159.268134 263.880478 
L 176.355215 263.788138 
L 193.442297 263.867815 
L 210.529378 264.077685 
L 227.616459 264.386833 
L 244.703541 264.772688 
L 261.790622 265.218647 
L 278.877703 265.712222 
L 295.964785 266.243643 
L 313.051866 266.80483 
L 330.138947 267.388631 
L 347.226029 267.988257 
L 364.31311 268.596785 
L 381.400191 269.206258 
L 398.487273 269.803352 
" clip-path="url(#pc89dfb3d7a)" style="fill: none; stroke: #1f77b4; stroke-width: 1.5; stroke-linecap: square"/>
   </g>
   <g id="line2d_107">
    <path d="M 73.832727 289.560401 
L 90.919809 290.147211 
L 108.00689 291.009124 
L 125.093971 291.980192 
L 142.181053 292.988978 
L 159.268134 293.998553 
L 176.355215 294.988834 
L 193.442297 295.948879 
L 210.529378 296.873098 
L 227.616459 297.759397 
L 244.703541 298.608208 
L 261.790622 299.421825 
L 278.877703 300.204078 
L 295.964785 300.960234 
L 313.051866 301.696994 
L 330.138947 302.422492 
L 347.226029 303.147202 
L 364.31311 303.886181 
L 381.400191 304.663755 
L 398.487273 305.498483 
" clip-path="url(#pc89dfb3d7a)" style="fill: none; stroke: #ff7f0e; stroke-width: 1.5; stroke-linecap: square"/>
   </g>
   <g id="line2d_108">
    <path d="M 73.832727 288.772101 
L 90.919809 288.923477 
L 108.00689 289.518118 
L 125.093971 290.381124 
L 142.181053 291.376887 
L 159.268134 292.423847 
L 176.355215 293.476526 
L 193.442297 294.510221 
L 210.529378 295.511881 
L 227.616459 296.475234 
L 244.703541 297.398224 
L 261.790622 298.281587 
L 278.877703 299.128037 
L 295.964785 299.941827 
L 313.051866 300.728547 
L 330.138947 301.495047 
L 347.226029 302.24985 
L 364.31311 303.004468 
L 381.400191 303.775818 
L 398.487273 304.568166 
" clip-path="url(#pc89dfb3d7a)" style="fill: none; stroke: #2ca02c; stroke-width: 1.5; stroke-linecap: square"/>
   </g>
   <g id="line2d_109">
    <path d="M 73.832727 288.573055 
L 90.919809 287.928152 
L 108.00689 287.531032 
L 125.093971 287.502675 
L 142.181053 287.817344 
L 159.268134 288.40111 
L 176.355215 289.178477 
L 193.442297 290.08608 
L 210.529378 291.07411 
L 227.616459 292.104676 
L 244.703541 293.149843 
L 261.790622 294.189845 
L 278.877703 295.211502 
L 295.964785 296.206823 
L 313.051866 297.171823 
L 330.138947 298.105583 
L 347.226029 299.009589 
L 364.31311 299.887477 
L 381.400191 300.745225 
L 398.487273 301.582774 
" clip-path="url(#pc89dfb3d7a)" style="fill: none; stroke: #d62728; stroke-width: 1.5; stroke-linecap: square"/>
   </g>
   <g id="line2d_110">
    <path d="M 73.832727 287.612511 
L 90.919809 286.923932 
L 108.00689 286.257465 
L 125.093971 285.815808 
L 142.181053 285.66542 
L 159.268134 285.793262 
L 176.355215 286.157772 
L 193.442297 286.713131 
L 210.529378 287.417011 
L 227.616459 288.232169 
L 244.703541 289.126547 
L 261.790622 290.073182 
L 278.877703 291.050047 
L 295.964785 292.039748 
L 313.051866 293.029077 
L 330.138947 294.008464 
L 347.226029 294.971419 
L 364.31311 295.914066 
L 381.400191 296.834789 
L 398.487273 297.726104 
" clip-path="url(#pc89dfb3d7a)" style="fill: none; stroke: #9467bd; stroke-width: 1.5; stroke-linecap: square"/>
   </g>
   <g id="line2d_111">
    <path d="M 73.832727 282.66277 
L 90.919809 281.862811 
L 108.00689 281.053103 
L 125.093971 280.442201 
L 142.181053 280.101443 
L 159.268134 280.021867 
L 176.355215 280.165945 
L 193.442297 280.492813 
L 210.529378 280.966069 
L 227.616459 281.554698 
L 244.703541 282.23236 
L 261.790622 282.97671 
L 278.877703 283.768949 
L 295.964785 284.593492 
L 313.051866 285.437633 
L 330.138947 286.291184 
L 347.226029 287.146093 
L 364.31311 287.996103 
L 381.400191 288.836463 
L 398.487273 289.660937 
" clip-path="url(#pc89dfb3d7a)" style="fill: none; stroke: #8c564b; stroke-width: 1.5; stroke-linecap: square"/>
   </g>
   <g id="line2d_112">
    <path d="M 73.832727 281.918889 
L 90.919809 281.1037 
L 108.00689 280.275573 
L 125.093971 279.644676 
L 142.181053 279.283398 
L 159.268134 279.183519 
L 176.355215 279.308086 
L 193.442297 279.616873 
L 210.529378 280.074255 
L 227.616459 280.650065 
L 244.703541 281.318791 
L 261.790622 282.0588 
L 278.877703 282.851844 
L 295.964785 283.682708 
L 313.051866 284.538885 
L 330.138947 285.410233 
L 347.226029 286.288617 
L 364.31311 287.167595 
L 381.400191 288.042129 
L 398.487273 288.903191 
" clip-path="url(#pc89dfb3d7a)" style="fill: none; stroke: #e377c2; stroke-width: 1.5; stroke-linecap: square"/>
   </g>
   <g id="line2d_113">
    <path d="M 73.832727 281.870295 
L 90.919809 281.054944 
L 108.00689 280.226107 
L 125.093971 279.594373 
L 142.181053 279.232263 
L 159.268134 279.131658 
L 176.355215 279.25567 
L 193.442297 279.564126 
L 210.529378 280.021453 
L 227.616459 280.597539 
L 244.703541 281.26692 
L 261.790622 282.007999 
L 278.877703 282.802553 
L 295.964785 283.635372 
L 313.051866 284.493944 
L 330.138947 285.368107 
L 347.226029 286.2497 
L 364.31311 287.132241 
L 381.400191 288.010617 
L 398.487273 288.872037 
" clip-path="url(#pc89dfb3d7a)" style="fill: none; stroke: #7f7f7f; stroke-width: 1.5; stroke-linecap: square"/>
   </g>
   <g id="line2d_114">
    <path d="M 73.832727 273.872279 
L 90.919809 273.504998 
L 108.00689 273.228882 
L 125.093971 273.140281 
L 142.181053 273.266766 
L 159.268134 273.583493 
L 176.355215 274.051548 
L 193.442297 274.635075 
L 210.529378 275.305614 
L 227.616459 276.041176 
L 244.703541 276.824484 
L 261.790622 277.641621 
L 278.877703 278.481201 
L 295.964785 279.333859 
L 313.051866 280.191872 
L 330.138947 281.048842 
L 347.226029 281.89939 
L 364.31311 282.738837 
L 381.400191 283.562363 
L 398.487273 284.357632 
" clip-path="url(#pc89dfb3d7a)" style="fill: none; stroke: #bcbd22; stroke-width: 1.5; stroke-linecap: square"/>
   </g>
   <g id="line2d_115">
    <path d="M 73.832727 272.033241 
L 90.919809 270.53003 
L 108.00689 269.692323 
L 125.093971 269.307247 
L 142.181053 269.262199 
L 159.268134 269.468044 
L 176.355215 269.853362 
L 193.442297 270.365144 
L 210.529378 270.965862 
L 227.616459 271.629134 
L 244.703541 272.336047 
L 261.790622 273.072652 
L 278.877703 273.828384 
L 295.964785 274.595059 
L 313.051866 275.366188 
L 330.138947 276.136454 
L 347.226029 276.90128 
L 364.31311 277.656353 
L 381.400191 278.396595 
L 398.487273 279.110798 
" clip-path="url(#pc89dfb3d7a)" style="fill: none; stroke: #17becf; stroke-width: 1.5; stroke-linecap: square"/>
   </g>
   <g id="line2d_116">
    <path d="M 73.832727 271.06021 
L 90.919809 269.332965 
L 108.00689 268.175712 
L 125.093971 267.506439 
L 142.181053 267.223441 
L 159.268134 267.230265 
L 176.355215 267.44657 
L 193.442297 267.811705 
L 210.529378 268.282276 
L 227.616459 268.82771 
L 244.703541 269.42628 
L 261.790622 270.062253 
L 278.877703 270.723998 
L 295.964785 271.40273 
L 313.051866 272.091635 
L 330.138947 272.785204 
L 347.226029 273.478687 
L 364.31311 274.16752 
L 381.400191 274.846245 
L 398.487273 275.503855 
" clip-path="url(#pc89dfb3d7a)" style="fill: none; stroke: #1f77b4; stroke-width: 1.5; stroke-linecap: square"/>
   </g>
   <g id="line2d_117">
    <path d="M 73.832727 269.97985 
L 90.919809 268.336632 
L 108.00689 267.077044 
L 125.093971 266.253489 
L 142.181053 265.80873 
L 159.268134 265.661774 
L 176.355215 265.736977 
L 193.442297 265.974068 
L 210.529378 266.328463 
L 227.616459 266.768053 
L 244.703541 267.269725 
L 261.790622 267.816659 
L 278.877703 268.396424 
L 295.964785 268.999675 
L 313.051866 269.619195 
L 330.138947 270.249174 
L 347.226029 270.884593 
L 364.31311 271.520606 
L 381.400191 272.151441 
L 398.487273 272.766007 
" clip-path="url(#pc89dfb3d7a)" style="fill: none; stroke: #ff7f0e; stroke-width: 1.5; stroke-linecap: square"/>
   </g>
   <g id="line2d_118">
    <path d="M 73.832727 268.991497 
L 90.919809 267.460648 
L 108.00689 266.173207 
L 125.093971 265.261199 
L 142.181053 264.705186 
L 159.268134 264.442109 
L 176.355215 264.404565 
L 193.442297 264.535629 
L 210.529378 264.791687 
L 227.616459 265.14057 
L 244.703541 265.558732 
L 261.790622 266.028855 
L 278.877703 266.538062 
L 295.964785 267.076638 
L 313.051866 267.637071 
L 330.138947 268.213301 
L 347.226029 268.800083 
L 364.31311 269.392333 
L 381.400191 269.984035 
L 398.487273 270.563903 
" clip-path="url(#pc89dfb3d7a)" style="fill: none; stroke: #2ca02c; stroke-width: 1.5; stroke-linecap: square"/>
   </g>
   <g id="patch_25">
    <path d="M 57.6 307.584 
L 57.6 261.702621 
" style="fill: none; stroke: #000000; stroke-width: 0.8; stroke-linejoin: miter; stroke-linecap: square"/>
   </g>
   <g id="patch_26">
    <path d="M 414.72 307.584 
L 414.72 261.702621 
" style="fill: none; stroke: #000000; stroke-width: 0.8; stroke-linejoin: miter; stroke-linecap: square"/>
   </g>
   <g id="patch_27">
    <path d="M 57.6 307.584 
L 414.72 307.584 
" style="fill: none; stroke: #000000; stroke-width: 0.8; stroke-linejoin: miter; stroke-linecap: square"/>
   </g>
   <g id="patch_28">
    <path d="M 57.6 261.702621 
L 414.72 261.702621 
" style="fill: none; stroke: #000000; stroke-width: 0.8; stroke-linejoin: miter; stroke-linecap: square"/>
   </g>
   <g id="text_29">
    <!-- yC - Container 1 -->
    <g transform="translate(187.395938 258.702621)scale(0.12 -0.12)">
     <use xlink:href="#DejaVuSans-79"/>
     <use xlink:href="#DejaVuSans-43" x="59.179688"/>
     <use xlink:href="#DejaVuSans-20" x="129.003906"/>
     <use xlink:href="#DejaVuSans-2d" x="160.791016"/>
     <use xlink:href="#DejaVuSans-20" x="196.875"/>
     <use xlink:href="#DejaVuSans-43" x="228.662109"/>
     <use xlink:href="#DejaVuSans-6f" x="298.486328"/>
     <use xlink:href="#DejaVuSans-6e" x="359.667969"/>
     <use xlink:href="#DejaVuSans-74" x="423.046875"/>
     <use xlink:href="#DejaVuSans-61" x="462.255859"/>
     <use xlink:href="#DejaVuSans-69" x="523.535156"/>
     <use xlink:href="#DejaVuSans-6e" x="551.318359"/>
     <use xlink:href="#DejaVuSans-65" x="614.697266"/>
     <use xlink:href="#DejaVuSans-72" x="676.220703"/>
     <use xlink:href="#DejaVuSans-20" x="717.333984"/>
     <use xlink:href="#DejaVuSans-31" x="749.121094"/>
    </g>
   </g>
  </g>
  <g id="legend_1">
   <g id="patch_29">
    <path d="M 372.146875 269.707812 
L 457.8 269.707812 
Q 459.8 269.707812 459.8 267.707812 
L 459.8 77.892187 
Q 459.8 75.892187 457.8 75.892187 
L 372.146875 75.892187 
Q 370.146875 75.892187 370.146875 77.892187 
L 370.146875 267.707812 
Q 370.146875 269.707812 372.146875 269.707812 
z
" style="fill: #ffffff; opacity: 0.8; stroke: #cccccc; stroke-linejoin: miter"/>
   </g>
   <g id="line2d_119">
    <path d="M 374.146875 83.990625 
L 384.146875 83.990625 
L 394.146875 83.990625 
" style="fill: none; stroke: #1f77b4; stroke-width: 1.5; stroke-linecap: square"/>
   </g>
   <g id="text_30">
    <!-- t=0.0000 -->
    <g transform="translate(402.146875 87.490625)scale(0.1 -0.1)">
     <defs>
      <path id="DejaVuSans-3d" d="M 678 2906 
L 4684 2906 
L 4684 2381 
L 678 2381 
L 678 2906 
z
M 678 1631 
L 4684 1631 
L 4684 1100 
L 678 1100 
L 678 1631 
z
" transform="scale(0.015625)"/>
     </defs>
     <use xlink:href="#DejaVuSans-74"/>
     <use xlink:href="#DejaVuSans-3d" x="39.208984"/>
     <use xlink:href="#DejaVuSans-30" x="122.998047"/>
     <use xlink:href="#DejaVuSans-2e" x="186.621094"/>
     <use xlink:href="#DejaVuSans-30" x="218.408203"/>
     <use xlink:href="#DejaVuSans-30" x="282.03125"/>
     <use xlink:href="#DejaVuSans-30" x="345.654297"/>
     <use xlink:href="#DejaVuSans-30" x="409.277344"/>
    </g>
   </g>
   <g id="line2d_120">
    <path d="M 374.146875 98.66875 
L 384.146875 98.66875 
L 394.146875 98.66875 
" style="fill: none; stroke: #ff7f0e; stroke-width: 1.5; stroke-linecap: square"/>
   </g>
   <g id="text_31">
    <!-- t=8.0000 -->
    <g transform="translate(402.146875 102.16875)scale(0.1 -0.1)">
     <use xlink:href="#DejaVuSans-74"/>
     <use xlink:href="#DejaVuSans-3d" x="39.208984"/>
     <use xlink:href="#DejaVuSans-38" x="122.998047"/>
     <use xlink:href="#DejaVuSans-2e" x="186.621094"/>
     <use xlink:href="#DejaVuSans-30" x="218.408203"/>
     <use xlink:href="#DejaVuSans-30" x="282.03125"/>
     <use xlink:href="#DejaVuSans-30" x="345.654297"/>
     <use xlink:href="#DejaVuSans-30" x="409.277344"/>
    </g>
   </g>
   <g id="line2d_121">
    <path d="M 374.146875 113.346875 
L 384.146875 113.346875 
L 394.146875 113.346875 
" style="fill: none; stroke: #2ca02c; stroke-width: 1.5; stroke-linecap: square"/>
   </g>
   <g id="text_32">
    <!-- t=16.0000 -->
    <g transform="translate(402.146875 116.846875)scale(0.1 -0.1)">
     <defs>
      <path id="DejaVuSans-36" d="M 2113 2584 
Q 1688 2584 1439 2293 
Q 1191 2003 1191 1497 
Q 1191 994 1439 701 
Q 1688 409 2113 409 
Q 2538 409 2786 701 
Q 3034 994 3034 1497 
Q 3034 2003 2786 2293 
Q 2538 2584 2113 2584 
z
M 3366 4563 
L 3366 3988 
Q 3128 4100 2886 4159 
Q 2644 4219 2406 4219 
Q 1781 4219 1451 3797 
Q 1122 3375 1075 2522 
Q 1259 2794 1537 2939 
Q 1816 3084 2150 3084 
Q 2853 3084 3261 2657 
Q 3669 2231 3669 1497 
Q 3669 778 3244 343 
Q 2819 -91 2113 -91 
Q 1303 -91 875 529 
Q 447 1150 447 2328 
Q 447 3434 972 4092 
Q 1497 4750 2381 4750 
Q 2619 4750 2861 4703 
Q 3103 4656 3366 4563 
z
" transform="scale(0.015625)"/>
     </defs>
     <use xlink:href="#DejaVuSans-74"/>
     <use xlink:href="#DejaVuSans-3d" x="39.208984"/>
     <use xlink:href="#DejaVuSans-31" x="122.998047"/>
     <use xlink:href="#DejaVuSans-36" x="186.621094"/>
     <use xlink:href="#DejaVuSans-2e" x="250.244141"/>
     <use xlink:href="#DejaVuSans-30" x="282.03125"/>
     <use xlink:href="#DejaVuSans-30" x="345.654297"/>
     <use xlink:href="#DejaVuSans-30" x="409.277344"/>
     <use xlink:href="#DejaVuSans-30" x="472.900391"/>
    </g>
   </g>
   <g id="line2d_122">
    <path d="M 374.146875 128.025 
L 384.146875 128.025 
L 394.146875 128.025 
" style="fill: none; stroke: #d62728; stroke-width: 1.5; stroke-linecap: square"/>
   </g>
   <g id="text_33">
    <!-- t=24.0000 -->
    <g transform="translate(402.146875 131.525)scale(0.1 -0.1)">
     <use xlink:href="#DejaVuSans-74"/>
     <use xlink:href="#DejaVuSans-3d" x="39.208984"/>
     <use xlink:href="#DejaVuSans-32" x="122.998047"/>
     <use xlink:href="#DejaVuSans-34" x="186.621094"/>
     <use xlink:href="#DejaVuSans-2e" x="250.244141"/>
     <use xlink:href="#DejaVuSans-30" x="282.03125"/>
     <use xlink:href="#DejaVuSans-30" x="345.654297"/>
     <use xlink:href="#DejaVuSans-30" x="409.277344"/>
     <use xlink:href="#DejaVuSans-30" x="472.900391"/>
    </g>
   </g>
   <g id="line2d_123">
    <path d="M 374.146875 142.703125 
L 384.146875 142.703125 
L 394.146875 142.703125 
" style="fill: none; stroke: #9467bd; stroke-width: 1.5; stroke-linecap: square"/>
   </g>
   <g id="text_34">
    <!-- t=32.0000 -->
    <g transform="translate(402.146875 146.203125)scale(0.1 -0.1)">
     <defs>
      <path id="DejaVuSans-33" d="M 2597 2516 
Q 3050 2419 3304 2112 
Q 3559 1806 3559 1356 
Q 3559 666 3084 287 
Q 2609 -91 1734 -91 
Q 1441 -91 1130 -33 
Q 819 25 488 141 
L 488 750 
Q 750 597 1062 519 
Q 1375 441 1716 441 
Q 2309 441 2620 675 
Q 2931 909 2931 1356 
Q 2931 1769 2642 2001 
Q 2353 2234 1838 2234 
L 1294 2234 
L 1294 2753 
L 1863 2753 
Q 2328 2753 2575 2939 
Q 2822 3125 2822 3475 
Q 2822 3834 2567 4026 
Q 2313 4219 1838 4219 
Q 1578 4219 1281 4162 
Q 984 4106 628 3988 
L 628 4550 
Q 988 4650 1302 4700 
Q 1616 4750 1894 4750 
Q 2613 4750 3031 4423 
Q 3450 4097 3450 3541 
Q 3450 3153 3228 2886 
Q 3006 2619 2597 2516 
z
" transform="scale(0.015625)"/>
     </defs>
     <use xlink:href="#DejaVuSans-74"/>
     <use xlink:href="#DejaVuSans-3d" x="39.208984"/>
     <use xlink:href="#DejaVuSans-33" x="122.998047"/>
     <use xlink:href="#DejaVuSans-32" x="186.621094"/>
     <use xlink:href="#DejaVuSans-2e" x="250.244141"/>
     <use xlink:href="#DejaVuSans-30" x="282.03125"/>
     <use xlink:href="#DejaVuSans-30" x="345.654297"/>
     <use xlink:href="#DejaVuSans-30" x="409.277344"/>
     <use xlink:href="#DejaVuSans-30" x="472.900391"/>
    </g>
   </g>
   <g id="line2d_124">
    <path d="M 374.146875 157.38125 
L 384.146875 157.38125 
L 394.146875 157.38125 
" style="fill: none; stroke: #8c564b; stroke-width: 1.5; stroke-linecap: square"/>
   </g>
   <g id="text_35">
    <!-- t=40.0000 -->
    <g transform="translate(402.146875 160.88125)scale(0.1 -0.1)">
     <use xlink:href="#DejaVuSans-74"/>
     <use xlink:href="#DejaVuSans-3d" x="39.208984"/>
     <use xlink:href="#DejaVuSans-34" x="122.998047"/>
     <use xlink:href="#DejaVuSans-30" x="186.621094"/>
     <use xlink:href="#DejaVuSans-2e" x="250.244141"/>
     <use xlink:href="#DejaVuSans-30" x="282.03125"/>
     <use xlink:href="#DejaVuSans-30" x="345.654297"/>
     <use xlink:href="#DejaVuSans-30" x="409.277344"/>
     <use xlink:href="#DejaVuSans-30" x="472.900391"/>
    </g>
   </g>
   <g id="line2d_125">
    <path d="M 374.146875 172.059375 
L 384.146875 172.059375 
L 394.146875 172.059375 
" style="fill: none; stroke: #e377c2; stroke-width: 1.5; stroke-linecap: square"/>
   </g>
   <g id="text_36">
    <!-- t=48.0000 -->
    <g transform="translate(402.146875 175.559375)scale(0.1 -0.1)">
     <use xlink:href="#DejaVuSans-74"/>
     <use xlink:href="#DejaVuSans-3d" x="39.208984"/>
     <use xlink:href="#DejaVuSans-34" x="122.998047"/>
     <use xlink:href="#DejaVuSans-38" x="186.621094"/>
     <use xlink:href="#DejaVuSans-2e" x="250.244141"/>
     <use xlink:href="#DejaVuSans-30" x="282.03125"/>
     <use xlink:href="#DejaVuSans-30" x="345.654297"/>
     <use xlink:href="#DejaVuSans-30" x="409.277344"/>
     <use xlink:href="#DejaVuSans-30" x="472.900391"/>
    </g>
   </g>
   <g id="line2d_126">
    <path d="M 374.146875 186.7375 
L 384.146875 186.7375 
L 394.146875 186.7375 
" style="fill: none; stroke: #7f7f7f; stroke-width: 1.5; stroke-linecap: square"/>
   </g>
   <g id="text_37">
    <!-- t=56.0000 -->
    <g transform="translate(402.146875 190.2375)scale(0.1 -0.1)">
     <use xlink:href="#DejaVuSans-74"/>
     <use xlink:href="#DejaVuSans-3d" x="39.208984"/>
     <use xlink:href="#DejaVuSans-35" x="122.998047"/>
     <use xlink:href="#DejaVuSans-36" x="186.621094"/>
     <use xlink:href="#DejaVuSans-2e" x="250.244141"/>
     <use xlink:href="#DejaVuSans-30" x="282.03125"/>
     <use xlink:href="#DejaVuSans-30" x="345.654297"/>
     <use xlink:href="#DejaVuSans-30" x="409.277344"/>
     <use xlink:href="#DejaVuSans-30" x="472.900391"/>
    </g>
   </g>
   <g id="line2d_127">
    <path d="M 374.146875 201.415625 
L 384.146875 201.415625 
L 394.146875 201.415625 
" style="fill: none; stroke: #bcbd22; stroke-width: 1.5; stroke-linecap: square"/>
   </g>
   <g id="text_38">
    <!-- t=64.0000 -->
    <g transform="translate(402.146875 204.915625)scale(0.1 -0.1)">
     <use xlink:href="#DejaVuSans-74"/>
     <use xlink:href="#DejaVuSans-3d" x="39.208984"/>
     <use xlink:href="#DejaVuSans-36" x="122.998047"/>
     <use xlink:href="#DejaVuSans-34" x="186.621094"/>
     <use xlink:href="#DejaVuSans-2e" x="250.244141"/>
     <use xlink:href="#DejaVuSans-30" x="282.03125"/>
     <use xlink:href="#DejaVuSans-30" x="345.654297"/>
     <use xlink:href="#DejaVuSans-30" x="409.277344"/>
     <use xlink:href="#DejaVuSans-30" x="472.900391"/>
    </g>
   </g>
   <g id="line2d_128">
    <path d="M 374.146875 216.09375 
L 384.146875 216.09375 
L 394.146875 216.09375 
" style="fill: none; stroke: #17becf; stroke-width: 1.5; stroke-linecap: square"/>
   </g>
   <g id="text_39">
    <!-- t=72.0000 -->
    <g transform="translate(402.146875 219.59375)scale(0.1 -0.1)">
     <use xlink:href="#DejaVuSans-74"/>
     <use xlink:href="#DejaVuSans-3d" x="39.208984"/>
     <use xlink:href="#DejaVuSans-37" x="122.998047"/>
     <use xlink:href="#DejaVuSans-32" x="186.621094"/>
     <use xlink:href="#DejaVuSans-2e" x="250.244141"/>
     <use xlink:href="#DejaVuSans-30" x="282.03125"/>
     <use xlink:href="#DejaVuSans-30" x="345.654297"/>
     <use xlink:href="#DejaVuSans-30" x="409.277344"/>
     <use xlink:href="#DejaVuSans-30" x="472.900391"/>
    </g>
   </g>
   <g id="line2d_129">
    <path d="M 374.146875 230.771875 
L 384.146875 230.771875 
L 394.146875 230.771875 
" style="fill: none; stroke: #1f77b4; stroke-width: 1.5; stroke-linecap: square"/>
   </g>
   <g id="text_40">
    <!-- t=80.0000 -->
    <g transform="translate(402.146875 234.271875)scale(0.1 -0.1)">
     <use xlink:href="#DejaVuSans-74"/>
     <use xlink:href="#DejaVuSans-3d" x="39.208984"/>
     <use xlink:href="#DejaVuSans-38" x="122.998047"/>
     <use xlink:href="#DejaVuSans-30" x="186.621094"/>
     <use xlink:href="#DejaVuSans-2e" x="250.244141"/>
     <use xlink:href="#DejaVuSans-30" x="282.03125"/>
     <use xlink:href="#DejaVuSans-30" x="345.654297"/>
     <use xlink:href="#DejaVuSans-30" x="409.277344"/>
     <use xlink:href="#DejaVuSans-30" x="472.900391"/>
    </g>
   </g>
   <g id="line2d_130">
    <path d="M 374.146875 245.45 
L 384.146875 245.45 
L 394.146875 245.45 
" style="fill: none; stroke: #ff7f0e; stroke-width: 1.5; stroke-linecap: square"/>
   </g>
   <g id="text_41">
    <!-- t=88.0000 -->
    <g transform="translate(402.146875 248.95)scale(0.1 -0.1)">
     <use xlink:href="#DejaVuSans-74"/>
     <use xlink:href="#DejaVuSans-3d" x="39.208984"/>
     <use xlink:href="#DejaVuSans-38" x="122.998047"/>
     <use xlink:href="#DejaVuSans-38" x="186.621094"/>
     <use xlink:href="#DejaVuSans-2e" x="250.244141"/>
     <use xlink:href="#DejaVuSans-30" x="282.03125"/>
     <use xlink:href="#DejaVuSans-30" x="345.654297"/>
     <use xlink:href="#DejaVuSans-30" x="409.277344"/>
     <use xlink:href="#DejaVuSans-30" x="472.900391"/>
    </g>
   </g>
   <g id="line2d_131">
    <path d="M 374.146875 260.128125 
L 384.146875 260.128125 
L 394.146875 260.128125 
" style="fill: none; stroke: #2ca02c; stroke-width: 1.5; stroke-linecap: square"/>
   </g>
   <g id="text_42">
    <!-- t=96.0000 -->
    <g transform="translate(402.146875 263.628125)scale(0.1 -0.1)">
     <use xlink:href="#DejaVuSans-74"/>
     <use xlink:href="#DejaVuSans-3d" x="39.208984"/>
     <use xlink:href="#DejaVuSans-39" x="122.998047"/>
     <use xlink:href="#DejaVuSans-36" x="186.621094"/>
     <use xlink:href="#DejaVuSans-2e" x="250.244141"/>
     <use xlink:href="#DejaVuSans-30" x="282.03125"/>
     <use xlink:href="#DejaVuSans-30" x="345.654297"/>
     <use xlink:href="#DejaVuSans-30" x="409.277344"/>
     <use xlink:href="#DejaVuSans-30" x="472.900391"/>
    </g>
   </g>
  </g>
 </g>
 <defs>
  <clipPath id="p2d45a54a2d">
   <rect x="57.6" y="41.472" width="357.12" height="45.881379"/>
  </clipPath>
  <clipPath id="p558a7aa527">
   <rect x="57.6" y="96.529655" width="357.12" height="45.881379"/>
  </clipPath>
  <clipPath id="pa2122d08db">
   <rect x="57.6" y="151.58731" width="357.12" height="45.881379"/>
  </clipPath>
  <clipPath id="p3cce669198">
   <rect x="57.6" y="206.644966" width="357.12" height="45.881379"/>
  </clipPath>
  <clipPath id="pc89dfb3d7a">
   <rect x="57.6" y="261.702621" width="357.12" height="45.881379"/>
  </clipPath>
 </defs>
</svg>
