<?xml version="1.0" encoding="utf-8" standalone="no"?>
<!DOCTYPE svg PUBLIC "-//W3C//DTD SVG 1.1//EN"
  "http://www.w3.org/Graphics/SVG/1.1/DTD/svg11.dtd">
<svg xmlns:xlink="http://www.w3.org/1999/xlink" width="460.8pt" height="345.6pt" viewBox="0 0 460.8 345.6" xmlns="http://www.w3.org/2000/svg" version="1.1">
 <metadata>
  <rdf:RDF xmlns:dc="http://purl.org/dc/elements/1.1/" xmlns:cc="http://creativecommons.org/ns#" xmlns:rdf="http://www.w3.org/1999/02/22-rdf-syntax-ns#">
   <cc:Work>
    <dc:type rdf:resource="http://purl.org/dc/dcmitype/StillImage"/>
    <dc:date>2022-07-10T00:04:36.562243</dc:date>
    <dc:format>image/svg+xml</dc:format>
    <dc:creator>
     <cc:Agent>
      <dc:title>Matplotlib v3.5.2, https://matplotlib.org/</dc:title>
     </cc:Agent>
    </dc:creator>
   </cc:Work>
  </rdf:RDF>
 </metadata>
 <defs>
  <style type="text/css">*{stroke-linejoin: round; stroke-linecap: butt}</style>
 </defs>
 <g id="figure_1">
  <g id="patch_1">
   <path d="M 0 345.6 
L 460.8 345.6 
L 460.8 0 
L 0 0 
z
" style="fill: #ffffff"/>
  </g>
  <g id="axes_1">
   <g id="patch_2">
    <path d="M 57.6 87.353379 
L 414.72 87.353379 
L 414.72 41.472 
L 57.6 41.472 
z
" style="fill: #ffffff"/>
   </g>
   <g id="matplotlib.axis_1">
    <g id="xtick_1">
     <g id="line2d_1">
      <defs>
       <path id="m0f0b37fa15" d="M 0 0 
L 0 3.5 
" style="stroke: #000000; stroke-width: 0.8"/>
      </defs>
      <g>
       <use xlink:href="#m0f0b37fa15" x="73.832727" y="87.353379" style="stroke: #000000; stroke-width: 0.8"/>
      </g>
     </g>
    </g>
    <g id="xtick_2">
     <g id="line2d_2">
      <g>
       <use xlink:href="#m0f0b37fa15" x="138.763636" y="87.353379" style="stroke: #000000; stroke-width: 0.8"/>
      </g>
     </g>
    </g>
    <g id="xtick_3">
     <g id="line2d_3">
      <g>
       <use xlink:href="#m0f0b37fa15" x="203.694545" y="87.353379" style="stroke: #000000; stroke-width: 0.8"/>
      </g>
     </g>
    </g>
    <g id="xtick_4">
     <g id="line2d_4">
      <g>
       <use xlink:href="#m0f0b37fa15" x="268.625455" y="87.353379" style="stroke: #000000; stroke-width: 0.8"/>
      </g>
     </g>
    </g>
    <g id="xtick_5">
     <g id="line2d_5">
      <g>
       <use xlink:href="#m0f0b37fa15" x="333.556364" y="87.353379" style="stroke: #000000; stroke-width: 0.8"/>
      </g>
     </g>
    </g>
    <g id="xtick_6">
     <g id="line2d_6">
      <g>
       <use xlink:href="#m0f0b37fa15" x="398.487273" y="87.353379" style="stroke: #000000; stroke-width: 0.8"/>
      </g>
     </g>
    </g>
   </g>
   <g id="matplotlib.axis_2">
    <g id="ytick_1">
     <g id="line2d_7">
      <defs>
       <path id="m442ccb91da" d="M 0 0 
L -3.5 0 
" style="stroke: #000000; stroke-width: 0.8"/>
      </defs>
      <g>
       <use xlink:href="#m442ccb91da" x="57.6" y="87.006523" style="stroke: #000000; stroke-width: 0.8"/>
      </g>
     </g>
     <g id="text_1">
      <!-- −25 -->
      <g transform="translate(29.495313 90.805742)scale(0.1 -0.1)">
       <defs>
        <path id="DejaVuSans-2212" d="M 678 2272 
L 4684 2272 
L 4684 1741 
L 678 1741 
L 678 2272 
z
" transform="scale(0.015625)"/>
        <path id="DejaVuSans-32" d="M 1228 531 
L 3431 531 
L 3431 0 
L 469 0 
L 469 531 
Q 828 903 1448 1529 
Q 2069 2156 2228 2338 
Q 2531 2678 2651 2914 
Q 2772 3150 2772 3378 
Q 2772 3750 2511 3984 
Q 2250 4219 1831 4219 
Q 1534 4219 1204 4116 
Q 875 4013 500 3803 
L 500 4441 
Q 881 4594 1212 4672 
Q 1544 4750 1819 4750 
Q 2544 4750 2975 4387 
Q 3406 4025 3406 3419 
Q 3406 3131 3298 2873 
Q 3191 2616 2906 2266 
Q 2828 2175 2409 1742 
Q 1991 1309 1228 531 
z
" transform="scale(0.015625)"/>
        <path id="DejaVuSans-35" d="M 691 4666 
L 3169 4666 
L 3169 4134 
L 1269 4134 
L 1269 2991 
Q 1406 3038 1543 3061 
Q 1681 3084 1819 3084 
Q 2600 3084 3056 2656 
Q 3513 2228 3513 1497 
Q 3513 744 3044 326 
Q 2575 -91 1722 -91 
Q 1428 -91 1123 -41 
Q 819 9 494 109 
L 494 744 
Q 775 591 1075 516 
Q 1375 441 1709 441 
Q 2250 441 2565 725 
Q 2881 1009 2881 1497 
Q 2881 1984 2565 2268 
Q 2250 2553 1709 2553 
Q 1456 2553 1204 2497 
Q 953 2441 691 2322 
L 691 4666 
z
" transform="scale(0.015625)"/>
       </defs>
       <use xlink:href="#DejaVuSans-2212"/>
       <use xlink:href="#DejaVuSans-32" x="83.789062"/>
       <use xlink:href="#DejaVuSans-35" x="147.412109"/>
      </g>
     </g>
    </g>
    <g id="ytick_2">
     <g id="line2d_8">
      <g>
       <use xlink:href="#m442ccb91da" x="57.6" y="62.360068" style="stroke: #000000; stroke-width: 0.8"/>
      </g>
     </g>
     <g id="text_2">
      <!-- 0 -->
      <g transform="translate(44.2375 66.159286)scale(0.1 -0.1)">
       <defs>
        <path id="DejaVuSans-30" d="M 2034 4250 
Q 1547 4250 1301 3770 
Q 1056 3291 1056 2328 
Q 1056 1369 1301 889 
Q 1547 409 2034 409 
Q 2525 409 2770 889 
Q 3016 1369 3016 2328 
Q 3016 3291 2770 3770 
Q 2525 4250 2034 4250 
z
M 2034 4750 
Q 2819 4750 3233 4129 
Q 3647 3509 3647 2328 
Q 3647 1150 3233 529 
Q 2819 -91 2034 -91 
Q 1250 -91 836 529 
Q 422 1150 422 2328 
Q 422 3509 836 4129 
Q 1250 4750 2034 4750 
z
" transform="scale(0.015625)"/>
       </defs>
       <use xlink:href="#DejaVuSans-30"/>
      </g>
     </g>
    </g>
    <g id="text_3">
     <!-- flow rate (normalized) -->
     <g transform="translate(23.415625 119.729877)rotate(-90)scale(0.1 -0.1)">
      <defs>
       <path id="DejaVuSans-66" d="M 2375 4863 
L 2375 4384 
L 1825 4384 
Q 1516 4384 1395 4259 
Q 1275 4134 1275 3809 
L 1275 3500 
L 2222 3500 
L 2222 3053 
L 1275 3053 
L 1275 0 
L 697 0 
L 697 3053 
L 147 3053 
L 147 3500 
L 697 3500 
L 697 3744 
Q 697 4328 969 4595 
Q 1241 4863 1831 4863 
L 2375 4863 
z
" transform="scale(0.015625)"/>
       <path id="DejaVuSans-6c" d="M 603 4863 
L 1178 4863 
L 1178 0 
L 603 0 
L 603 4863 
z
" transform="scale(0.015625)"/>
       <path id="DejaVuSans-6f" d="M 1959 3097 
Q 1497 3097 1228 2736 
Q 959 2375 959 1747 
Q 959 1119 1226 758 
Q 1494 397 1959 397 
Q 2419 397 2687 759 
Q 2956 1122 2956 1747 
Q 2956 2369 2687 2733 
Q 2419 3097 1959 3097 
z
M 1959 3584 
Q 2709 3584 3137 3096 
Q 3566 2609 3566 1747 
Q 3566 888 3137 398 
Q 2709 -91 1959 -91 
Q 1206 -91 779 398 
Q 353 888 353 1747 
Q 353 2609 779 3096 
Q 1206 3584 1959 3584 
z
" transform="scale(0.015625)"/>
       <path id="DejaVuSans-77" d="M 269 3500 
L 844 3500 
L 1563 769 
L 2278 3500 
L 2956 3500 
L 3675 769 
L 4391 3500 
L 4966 3500 
L 4050 0 
L 3372 0 
L 2619 2869 
L 1863 0 
L 1184 0 
L 269 3500 
z
" transform="scale(0.015625)"/>
       <path id="DejaVuSans-20" transform="scale(0.015625)"/>
       <path id="DejaVuSans-72" d="M 2631 2963 
Q 2534 3019 2420 3045 
Q 2306 3072 2169 3072 
Q 1681 3072 1420 2755 
Q 1159 2438 1159 1844 
L 1159 0 
L 581 0 
L 581 3500 
L 1159 3500 
L 1159 2956 
Q 1341 3275 1631 3429 
Q 1922 3584 2338 3584 
Q 2397 3584 2469 3576 
Q 2541 3569 2628 3553 
L 2631 2963 
z
" transform="scale(0.015625)"/>
       <path id="DejaVuSans-61" d="M 2194 1759 
Q 1497 1759 1228 1600 
Q 959 1441 959 1056 
Q 959 750 1161 570 
Q 1363 391 1709 391 
Q 2188 391 2477 730 
Q 2766 1069 2766 1631 
L 2766 1759 
L 2194 1759 
z
M 3341 1997 
L 3341 0 
L 2766 0 
L 2766 531 
Q 2569 213 2275 61 
Q 1981 -91 1556 -91 
Q 1019 -91 701 211 
Q 384 513 384 1019 
Q 384 1609 779 1909 
Q 1175 2209 1959 2209 
L 2766 2209 
L 2766 2266 
Q 2766 2663 2505 2880 
Q 2244 3097 1772 3097 
Q 1472 3097 1187 3025 
Q 903 2953 641 2809 
L 641 3341 
Q 956 3463 1253 3523 
Q 1550 3584 1831 3584 
Q 2591 3584 2966 3190 
Q 3341 2797 3341 1997 
z
" transform="scale(0.015625)"/>
       <path id="DejaVuSans-74" d="M 1172 4494 
L 1172 3500 
L 2356 3500 
L 2356 3053 
L 1172 3053 
L 1172 1153 
Q 1172 725 1289 603 
Q 1406 481 1766 481 
L 2356 481 
L 2356 0 
L 1766 0 
Q 1100 0 847 248 
Q 594 497 594 1153 
L 594 3053 
L 172 3053 
L 172 3500 
L 594 3500 
L 594 4494 
L 1172 4494 
z
" transform="scale(0.015625)"/>
       <path id="DejaVuSans-65" d="M 3597 1894 
L 3597 1613 
L 953 1613 
Q 991 1019 1311 708 
Q 1631 397 2203 397 
Q 2534 397 2845 478 
Q 3156 559 3463 722 
L 3463 178 
Q 3153 47 2828 -22 
Q 2503 -91 2169 -91 
Q 1331 -91 842 396 
Q 353 884 353 1716 
Q 353 2575 817 3079 
Q 1281 3584 2069 3584 
Q 2775 3584 3186 3129 
Q 3597 2675 3597 1894 
z
M 3022 2063 
Q 3016 2534 2758 2815 
Q 2500 3097 2075 3097 
Q 1594 3097 1305 2825 
Q 1016 2553 972 2059 
L 3022 2063 
z
" transform="scale(0.015625)"/>
       <path id="DejaVuSans-28" d="M 1984 4856 
Q 1566 4138 1362 3434 
Q 1159 2731 1159 2009 
Q 1159 1288 1364 580 
Q 1569 -128 1984 -844 
L 1484 -844 
Q 1016 -109 783 600 
Q 550 1309 550 2009 
Q 550 2706 781 3412 
Q 1013 4119 1484 4856 
L 1984 4856 
z
" transform="scale(0.015625)"/>
       <path id="DejaVuSans-6e" d="M 3513 2113 
L 3513 0 
L 2938 0 
L 2938 2094 
Q 2938 2591 2744 2837 
Q 2550 3084 2163 3084 
Q 1697 3084 1428 2787 
Q 1159 2491 1159 1978 
L 1159 0 
L 581 0 
L 581 3500 
L 1159 3500 
L 1159 2956 
Q 1366 3272 1645 3428 
Q 1925 3584 2291 3584 
Q 2894 3584 3203 3211 
Q 3513 2838 3513 2113 
z
" transform="scale(0.015625)"/>
       <path id="DejaVuSans-6d" d="M 3328 2828 
Q 3544 3216 3844 3400 
Q 4144 3584 4550 3584 
Q 5097 3584 5394 3201 
Q 5691 2819 5691 2113 
L 5691 0 
L 5113 0 
L 5113 2094 
Q 5113 2597 4934 2840 
Q 4756 3084 4391 3084 
Q 3944 3084 3684 2787 
Q 3425 2491 3425 1978 
L 3425 0 
L 2847 0 
L 2847 2094 
Q 2847 2600 2669 2842 
Q 2491 3084 2119 3084 
Q 1678 3084 1418 2786 
Q 1159 2488 1159 1978 
L 1159 0 
L 581 0 
L 581 3500 
L 1159 3500 
L 1159 2956 
Q 1356 3278 1631 3431 
Q 1906 3584 2284 3584 
Q 2666 3584 2933 3390 
Q 3200 3197 3328 2828 
z
" transform="scale(0.015625)"/>
       <path id="DejaVuSans-69" d="M 603 3500 
L 1178 3500 
L 1178 0 
L 603 0 
L 603 3500 
z
M 603 4863 
L 1178 4863 
L 1178 4134 
L 603 4134 
L 603 4863 
z
" transform="scale(0.015625)"/>
       <path id="DejaVuSans-7a" d="M 353 3500 
L 3084 3500 
L 3084 2975 
L 922 459 
L 3084 459 
L 3084 0 
L 275 0 
L 275 525 
L 2438 3041 
L 353 3041 
L 353 3500 
z
" transform="scale(0.015625)"/>
       <path id="DejaVuSans-64" d="M 2906 2969 
L 2906 4863 
L 3481 4863 
L 3481 0 
L 2906 0 
L 2906 525 
Q 2725 213 2448 61 
Q 2172 -91 1784 -91 
Q 1150 -91 751 415 
Q 353 922 353 1747 
Q 353 2572 751 3078 
Q 1150 3584 1784 3584 
Q 2172 3584 2448 3432 
Q 2725 3281 2906 2969 
z
M 947 1747 
Q 947 1113 1208 752 
Q 1469 391 1925 391 
Q 2381 391 2643 752 
Q 2906 1113 2906 1747 
Q 2906 2381 2643 2742 
Q 2381 3103 1925 3103 
Q 1469 3103 1208 2742 
Q 947 2381 947 1747 
z
" transform="scale(0.015625)"/>
       <path id="DejaVuSans-29" d="M 513 4856 
L 1013 4856 
Q 1481 4119 1714 3412 
Q 1947 2706 1947 2009 
Q 1947 1309 1714 600 
Q 1481 -109 1013 -844 
L 513 -844 
Q 928 -128 1133 580 
Q 1338 1288 1338 2009 
Q 1338 2731 1133 3434 
Q 928 4138 513 4856 
z
" transform="scale(0.015625)"/>
      </defs>
      <use xlink:href="#DejaVuSans-66"/>
      <use xlink:href="#DejaVuSans-6c" x="35.205078"/>
      <use xlink:href="#DejaVuSans-6f" x="62.988281"/>
      <use xlink:href="#DejaVuSans-77" x="124.169922"/>
      <use xlink:href="#DejaVuSans-20" x="205.957031"/>
      <use xlink:href="#DejaVuSans-72" x="237.744141"/>
      <use xlink:href="#DejaVuSans-61" x="278.857422"/>
      <use xlink:href="#DejaVuSans-74" x="340.136719"/>
      <use xlink:href="#DejaVuSans-65" x="379.345703"/>
      <use xlink:href="#DejaVuSans-20" x="440.869141"/>
      <use xlink:href="#DejaVuSans-28" x="472.65625"/>
      <use xlink:href="#DejaVuSans-6e" x="511.669922"/>
      <use xlink:href="#DejaVuSans-6f" x="575.048828"/>
      <use xlink:href="#DejaVuSans-72" x="636.230469"/>
      <use xlink:href="#DejaVuSans-6d" x="675.59375"/>
      <use xlink:href="#DejaVuSans-61" x="773.005859"/>
      <use xlink:href="#DejaVuSans-6c" x="834.285156"/>
      <use xlink:href="#DejaVuSans-69" x="862.068359"/>
      <use xlink:href="#DejaVuSans-7a" x="889.851562"/>
      <use xlink:href="#DejaVuSans-65" x="942.341797"/>
      <use xlink:href="#DejaVuSans-64" x="1003.865234"/>
      <use xlink:href="#DejaVuSans-29" x="1067.341797"/>
     </g>
    </g>
   </g>
   <g id="line2d_9">
    <path d="M 73.832727 64.786575 
L 77.079273 52.271477 
L 80.325818 58.795798 
L 83.572364 60.727569 
L 86.818909 61.541104 
L 90.065455 61.927949 
L 93.312 62.125832 
L 96.558545 62.232289 
L 99.805091 62.290324 
L 103.051636 62.322073 
L 106.298182 62.339762 
L 109.544727 62.349297 
L 112.791273 62.354453 
L 116.037818 62.35737 
L 119.284364 62.359107 
L 122.530909 62.330636 
L 125.777455 61.372836 
L 129.024 61.372456 
L 132.270545 61.372264 
L 135.517091 61.372053 
L 138.763636 61.37193 
L 142.010182 61.371881 
L 145.256727 61.371855 
L 148.503273 61.371886 
L 151.749818 61.371883 
L 154.996364 61.37191 
L 158.242909 61.371954 
L 161.489455 61.371999 
L 164.736 61.372033 
L 167.982545 61.372044 
L 171.229091 61.399583 
L 174.475636 61.915891 
L 177.722182 61.545312 
L 180.968727 60.969587 
L 184.215273 60.299143 
L 187.461818 59.709244 
L 190.708364 59.413603 
L 193.954909 59.454331 
L 197.201455 59.670385 
L 200.448 60.044847 
L 203.694545 60.454849 
L 206.941091 60.841781 
L 210.187636 61.180876 
L 213.434182 61.464661 
L 216.680727 61.690931 
L 219.927273 61.866147 
L 223.173818 61.999717 
L 226.420364 62.099015 
L 229.666909 62.171434 
L 232.913455 62.224146 
L 236.16 62.262244 
L 239.406545 62.290066 
L 242.653091 62.310067 
L 245.899636 62.323615 
L 249.146182 62.333334 
L 252.392727 62.340114 
L 255.639273 62.345012 
L 258.885818 62.348822 
L 262.132364 62.351492 
L 265.378909 62.353969 
L 268.625455 62.35632 
L 271.872 65.975739 
L 275.118545 67.700607 
L 278.365091 68.35072 
L 281.611636 68.508235 
L 284.858182 68.447662 
L 288.104727 68.296035 
L 291.351273 68.109082 
L 294.597818 67.911639 
L 297.844364 67.715263 
L 301.090909 67.525609 
L 304.337455 67.344558 
L 307.584 67.172579 
L 310.830545 67.010791 
L 314.077091 66.858488 
L 317.323636 66.715498 
L 320.570182 66.580746 
L 323.816727 66.454151 
L 327.063273 66.334861 
L 330.309818 66.222476 
L 333.556364 66.116306 
L 336.802909 66.015914 
L 340.049455 65.920959 
L 343.296 65.830954 
L 346.542545 65.745463 
L 349.789091 65.664183 
L 353.035636 65.586818 
L 356.282182 65.513058 
L 359.528727 65.442575 
L 362.775273 65.375058 
L 366.021818 65.310609 
L 369.268364 65.248869 
L 372.514909 65.189633 
L 375.761455 65.132732 
L 379.008 65.077947 
L 382.254545 65.025189 
L 385.501091 64.974426 
L 388.747636 64.925459 
L 391.994182 64.878193 
L 395.240727 64.832514 
L 398.487273 64.788293 
" clip-path="url(#p352769b4b4)" style="fill: none; stroke: #1f77b4; stroke-width: 1.5; stroke-linecap: square"/>
   </g>
   <g id="line2d_10">
    <path d="M 73.832727 68.997395 
L 77.079273 43.557517 
L 80.325818 55.390509 
L 83.572364 59.140693 
L 86.818909 60.741707 
L 90.065455 61.505801 
L 93.312 61.897036 
L 96.558545 62.107575 
L 99.805091 62.222328 
L 103.051636 62.285078 
L 106.298182 62.320023 
L 109.544727 62.338843 
L 112.791273 62.349014 
L 116.037818 62.354764 
L 119.284364 62.358191 
L 122.530909 62.248279 
L 125.777455 61.374076 
L 129.024 61.374009 
L 132.270545 61.373975 
L 135.517091 61.373939 
L 138.763636 61.373918 
L 142.010182 61.37391 
L 145.256727 61.373906 
L 148.503273 61.373912 
L 151.749818 61.373911 
L 154.996364 61.373915 
L 158.242909 61.373922 
L 161.489455 61.373929 
L 164.736 61.373932 
L 167.982545 61.373932 
L 171.229091 61.54445 
L 174.475636 62.282443 
L 177.722182 62.220858 
L 180.968727 62.125718 
L 184.215273 62.016493 
L 187.461818 61.922302 
L 190.708364 61.876166 
L 193.954909 61.884458 
L 197.201455 61.918329 
L 200.448 61.977335 
L 203.694545 62.042227 
L 206.941091 62.104135 
L 210.187636 62.159137 
L 213.434182 62.20584 
L 216.680727 62.243649 
L 219.927273 62.273332 
L 223.173818 62.296248 
L 226.420364 62.313504 
L 229.666909 62.326225 
L 232.913455 62.335566 
L 236.16 62.342362 
L 239.406545 62.347344 
L 242.653091 62.350944 
L 245.899636 62.353401 
L 249.146182 62.35517 
L 252.392727 62.356408 
L 255.639273 62.357304 
L 258.885818 62.357998 
L 262.132364 62.358487 
L 265.378909 62.358936 
L 268.625455 62.363363 
L 271.872 72.29954 
L 275.118545 79.529883 
L 278.365091 83.587909 
L 281.611636 85.175929 
L 284.858182 85.267862 
L 288.104727 84.63554 
L 291.351273 83.722869 
L 294.597818 82.71847 
L 297.844364 81.73621 
L 301.090909 80.798224 
L 304.337455 79.918661 
L 307.584 79.094992 
L 310.830545 78.331341 
L 314.077091 77.622435 
L 317.323636 76.96495 
L 320.570182 76.354795 
L 323.816727 75.788347 
L 327.063273 75.261404 
L 330.309818 74.770594 
L 333.556364 74.312702 
L 336.802909 73.884511 
L 340.049455 73.483392 
L 343.296 73.106653 
L 346.542545 72.752073 
L 349.789091 72.417707 
L 353.035636 72.101794 
L 356.282182 71.803311 
L 359.528727 71.520477 
L 362.775273 71.251585 
L 366.021818 70.996632 
L 369.268364 70.753813 
L 372.514909 70.522139 
L 375.761455 70.301375 
L 379.008 70.090214 
L 382.254545 69.888131 
L 385.501091 69.694811 
L 388.747636 69.509314 
L 391.994182 69.331441 
L 395.240727 69.160761 
L 398.487273 68.996654 
" clip-path="url(#p352769b4b4)" style="fill: none; stroke: #ff7f0e; stroke-width: 1.5; stroke-linecap: square"/>
   </g>
   <g id="line2d_11">
    <path d="M 73.832727 62.612935 
L 77.079273 61.200199 
L 80.325818 61.958388 
L 83.572364 62.176686 
L 86.818909 62.268166 
L 90.065455 62.311596 
L 93.312 62.333799 
L 96.558545 62.345739 
L 99.805091 62.352248 
L 103.051636 62.355808 
L 106.298182 62.357791 
L 109.544727 62.35886 
L 112.791273 62.359438 
L 116.037818 62.359766 
L 119.284364 62.35996 
L 122.530909 62.373136 
L 125.777455 61.371606 
L 129.024 61.371023 
L 132.270545 61.370719 
L 135.517091 61.370387 
L 138.763636 61.370189 
L 142.010182 61.3701 
L 145.256727 61.370045 
L 148.503273 61.370077 
L 151.749818 61.370058 
L 154.996364 61.370086 
L 158.242909 61.370138 
L 161.489455 61.370193 
L 164.736 61.370231 
L 167.982545 61.370237 
L 171.229091 61.363307 
L 174.475636 61.578335 
L 177.722182 60.907742 
L 180.968727 59.848612 
L 184.215273 58.574826 
L 187.461818 57.391455 
L 190.708364 56.759941 
L 193.954909 56.784843 
L 197.201455 57.240383 
L 200.448 58.020289 
L 203.694545 58.865574 
L 206.941091 59.64293 
L 210.187636 60.302685 
L 213.434182 60.836346 
L 216.680727 61.247138 
L 219.927273 61.555735 
L 223.173818 61.784356 
L 226.420364 61.949455 
L 229.666909 62.067117 
L 232.913455 62.151082 
L 236.16 62.210923 
L 239.406545 62.254305 
L 242.653091 62.285179 
L 245.899636 62.305714 
L 249.146182 62.320349 
L 252.392727 62.33047 
L 255.639273 62.337741 
L 258.885818 62.343442 
L 262.132364 62.347413 
L 265.378909 62.351173 
L 268.625455 62.354388 
L 271.872 62.728206 
L 275.118545 62.891764 
L 278.365091 62.951913 
L 281.611636 62.967055 
L 284.858182 62.962452 
L 288.104727 62.949311 
L 291.351273 62.932571 
L 294.597818 62.914553 
L 297.844364 62.896384 
L 301.090909 62.878642 
L 304.337455 62.861568 
L 307.584 62.845267 
L 310.830545 62.82985 
L 314.077091 62.815281 
L 317.323636 62.801561 
L 320.570182 62.788591 
L 323.816727 62.776378 
L 327.063273 62.764842 
L 330.309818 62.753955 
L 333.556364 62.743649 
L 336.802909 62.733888 
L 340.049455 62.724641 
L 343.296 62.715865 
L 346.542545 62.707518 
L 349.789091 62.699574 
L 353.035636 62.692006 
L 356.282182 62.684782 
L 359.528727 62.677872 
L 362.775273 62.671247 
L 366.021818 62.664919 
L 369.268364 62.658853 
L 372.514909 62.65303 
L 375.761455 62.647431 
L 379.008 62.642036 
L 382.254545 62.636838 
L 385.501091 62.631836 
L 388.747636 62.627011 
L 391.994182 62.622349 
L 395.240727 62.61784 
L 398.487273 62.61347 
" clip-path="url(#p352769b4b4)" style="fill: none; stroke: #2ca02c; stroke-width: 1.5; stroke-linecap: square"/>
   </g>
   <g id="patch_3">
    <path d="M 57.6 87.353379 
L 57.6 41.472 
" style="fill: none; stroke: #000000; stroke-width: 0.8; stroke-linejoin: miter; stroke-linecap: square"/>
   </g>
   <g id="patch_4">
    <path d="M 414.72 87.353379 
L 414.72 41.472 
" style="fill: none; stroke: #000000; stroke-width: 0.8; stroke-linejoin: miter; stroke-linecap: square"/>
   </g>
   <g id="patch_5">
    <path d="M 57.6 87.353379 
L 414.72 87.353379 
" style="fill: none; stroke: #000000; stroke-width: 0.8; stroke-linejoin: miter; stroke-linecap: square"/>
   </g>
   <g id="patch_6">
    <path d="M 57.6 41.472 
L 414.72 41.472 
" style="fill: none; stroke: #000000; stroke-width: 0.8; stroke-linejoin: miter; stroke-linecap: square"/>
   </g>
   <g id="text_4">
    <!-- velocity vs time (container 1)   -->
    <g transform="translate(144.106875 35.472)scale(0.12 -0.12)">
     <defs>
      <path id="DejaVuSans-76" d="M 191 3500 
L 800 3500 
L 1894 563 
L 2988 3500 
L 3597 3500 
L 2284 0 
L 1503 0 
L 191 3500 
z
" transform="scale(0.015625)"/>
      <path id="DejaVuSans-63" d="M 3122 3366 
L 3122 2828 
Q 2878 2963 2633 3030 
Q 2388 3097 2138 3097 
Q 1578 3097 1268 2742 
Q 959 2388 959 1747 
Q 959 1106 1268 751 
Q 1578 397 2138 397 
Q 2388 397 2633 464 
Q 2878 531 3122 666 
L 3122 134 
Q 2881 22 2623 -34 
Q 2366 -91 2075 -91 
Q 1284 -91 818 406 
Q 353 903 353 1747 
Q 353 2603 823 3093 
Q 1294 3584 2113 3584 
Q 2378 3584 2631 3529 
Q 2884 3475 3122 3366 
z
" transform="scale(0.015625)"/>
      <path id="DejaVuSans-79" d="M 2059 -325 
Q 1816 -950 1584 -1140 
Q 1353 -1331 966 -1331 
L 506 -1331 
L 506 -850 
L 844 -850 
Q 1081 -850 1212 -737 
Q 1344 -625 1503 -206 
L 1606 56 
L 191 3500 
L 800 3500 
L 1894 763 
L 2988 3500 
L 3597 3500 
L 2059 -325 
z
" transform="scale(0.015625)"/>
      <path id="DejaVuSans-73" d="M 2834 3397 
L 2834 2853 
Q 2591 2978 2328 3040 
Q 2066 3103 1784 3103 
Q 1356 3103 1142 2972 
Q 928 2841 928 2578 
Q 928 2378 1081 2264 
Q 1234 2150 1697 2047 
L 1894 2003 
Q 2506 1872 2764 1633 
Q 3022 1394 3022 966 
Q 3022 478 2636 193 
Q 2250 -91 1575 -91 
Q 1294 -91 989 -36 
Q 684 19 347 128 
L 347 722 
Q 666 556 975 473 
Q 1284 391 1588 391 
Q 1994 391 2212 530 
Q 2431 669 2431 922 
Q 2431 1156 2273 1281 
Q 2116 1406 1581 1522 
L 1381 1569 
Q 847 1681 609 1914 
Q 372 2147 372 2553 
Q 372 3047 722 3315 
Q 1072 3584 1716 3584 
Q 2034 3584 2315 3537 
Q 2597 3491 2834 3397 
z
" transform="scale(0.015625)"/>
      <path id="DejaVuSans-31" d="M 794 531 
L 1825 531 
L 1825 4091 
L 703 3866 
L 703 4441 
L 1819 4666 
L 2450 4666 
L 2450 531 
L 3481 531 
L 3481 0 
L 794 0 
L 794 531 
z
" transform="scale(0.015625)"/>
     </defs>
     <use xlink:href="#DejaVuSans-76"/>
     <use xlink:href="#DejaVuSans-65" x="59.179688"/>
     <use xlink:href="#DejaVuSans-6c" x="120.703125"/>
     <use xlink:href="#DejaVuSans-6f" x="148.486328"/>
     <use xlink:href="#DejaVuSans-63" x="209.667969"/>
     <use xlink:href="#DejaVuSans-69" x="264.648438"/>
     <use xlink:href="#DejaVuSans-74" x="292.431641"/>
     <use xlink:href="#DejaVuSans-79" x="331.640625"/>
     <use xlink:href="#DejaVuSans-20" x="390.820312"/>
     <use xlink:href="#DejaVuSans-76" x="422.607422"/>
     <use xlink:href="#DejaVuSans-73" x="481.787109"/>
     <use xlink:href="#DejaVuSans-20" x="533.886719"/>
     <use xlink:href="#DejaVuSans-74" x="565.673828"/>
     <use xlink:href="#DejaVuSans-69" x="604.882812"/>
     <use xlink:href="#DejaVuSans-6d" x="632.666016"/>
     <use xlink:href="#DejaVuSans-65" x="730.078125"/>
     <use xlink:href="#DejaVuSans-20" x="791.601562"/>
     <use xlink:href="#DejaVuSans-28" x="823.388672"/>
     <use xlink:href="#DejaVuSans-63" x="862.402344"/>
     <use xlink:href="#DejaVuSans-6f" x="917.382812"/>
     <use xlink:href="#DejaVuSans-6e" x="978.564453"/>
     <use xlink:href="#DejaVuSans-74" x="1041.943359"/>
     <use xlink:href="#DejaVuSans-61" x="1081.152344"/>
     <use xlink:href="#DejaVuSans-69" x="1142.431641"/>
     <use xlink:href="#DejaVuSans-6e" x="1170.214844"/>
     <use xlink:href="#DejaVuSans-65" x="1233.59375"/>
     <use xlink:href="#DejaVuSans-72" x="1295.117188"/>
     <use xlink:href="#DejaVuSans-20" x="1336.230469"/>
     <use xlink:href="#DejaVuSans-31" x="1368.017578"/>
     <use xlink:href="#DejaVuSans-29" x="1431.640625"/>
     <use xlink:href="#DejaVuSans-20" x="1470.654297"/>
     <use xlink:href="#DejaVuSans-20" x="1502.441406"/>
    </g>
   </g>
   <g id="legend_1">
    <g id="patch_7">
     <path d="M 64.6 93.506375 
L 139.240625 93.506375 
Q 141.240625 93.506375 141.240625 91.506375 
L 141.240625 48.472 
Q 141.240625 46.472 139.240625 46.472 
L 64.6 46.472 
Q 62.6 46.472 62.6 48.472 
L 62.6 91.506375 
Q 62.6 93.506375 64.6 93.506375 
z
" style="fill: #ffffff; opacity: 0.8; stroke: #cccccc; stroke-linejoin: miter"/>
    </g>
    <g id="line2d_12">
     <path d="M 66.6 54.570437 
L 76.6 54.570437 
L 86.6 54.570437 
" style="fill: none; stroke: #1f77b4; stroke-width: 1.5; stroke-linecap: square"/>
    </g>
    <g id="text_5">
     <!-- mid flow -->
     <g transform="translate(94.6 58.070437)scale(0.1 -0.1)">
      <use xlink:href="#DejaVuSans-6d"/>
      <use xlink:href="#DejaVuSans-69" x="97.412109"/>
      <use xlink:href="#DejaVuSans-64" x="125.195312"/>
      <use xlink:href="#DejaVuSans-20" x="188.671875"/>
      <use xlink:href="#DejaVuSans-66" x="220.458984"/>
      <use xlink:href="#DejaVuSans-6c" x="255.664062"/>
      <use xlink:href="#DejaVuSans-6f" x="283.447266"/>
      <use xlink:href="#DejaVuSans-77" x="344.628906"/>
     </g>
    </g>
    <g id="line2d_13">
     <path d="M 66.6 69.248562 
L 76.6 69.248562 
L 86.6 69.248562 
" style="fill: none; stroke: #ff7f0e; stroke-width: 1.5; stroke-linecap: square"/>
    </g>
    <g id="text_6">
     <!-- v0 flow -->
     <g transform="translate(94.6 72.748562)scale(0.1 -0.1)">
      <use xlink:href="#DejaVuSans-76"/>
      <use xlink:href="#DejaVuSans-30" x="59.179688"/>
      <use xlink:href="#DejaVuSans-20" x="122.802734"/>
      <use xlink:href="#DejaVuSans-66" x="154.589844"/>
      <use xlink:href="#DejaVuSans-6c" x="189.794922"/>
      <use xlink:href="#DejaVuSans-6f" x="217.578125"/>
      <use xlink:href="#DejaVuSans-77" x="278.759766"/>
     </g>
    </g>
    <g id="line2d_14">
     <path d="M 66.6 83.926687 
L 76.6 83.926687 
L 86.6 83.926687 
" style="fill: none; stroke: #2ca02c; stroke-width: 1.5; stroke-linecap: square"/>
    </g>
    <g id="text_7">
     <!-- vN flow -->
     <g transform="translate(94.6 87.426687)scale(0.1 -0.1)">
      <defs>
       <path id="DejaVuSans-4e" d="M 628 4666 
L 1478 4666 
L 3547 763 
L 3547 4666 
L 4159 4666 
L 4159 0 
L 3309 0 
L 1241 3903 
L 1241 0 
L 628 0 
L 628 4666 
z
" transform="scale(0.015625)"/>
      </defs>
      <use xlink:href="#DejaVuSans-76"/>
      <use xlink:href="#DejaVuSans-4e" x="59.179688"/>
      <use xlink:href="#DejaVuSans-20" x="133.984375"/>
      <use xlink:href="#DejaVuSans-66" x="165.771484"/>
      <use xlink:href="#DejaVuSans-6c" x="200.976562"/>
      <use xlink:href="#DejaVuSans-6f" x="228.759766"/>
      <use xlink:href="#DejaVuSans-77" x="289.941406"/>
     </g>
    </g>
   </g>
  </g>
  <g id="axes_2">
   <g id="patch_8">
    <path d="M 57.6 142.411034 
L 414.72 142.411034 
L 414.72 96.529655 
L 57.6 96.529655 
z
" style="fill: #ffffff"/>
   </g>
   <g id="matplotlib.axis_3">
    <g id="xtick_7">
     <g id="line2d_15">
      <g>
       <use xlink:href="#m0f0b37fa15" x="73.832727" y="142.411034" style="stroke: #000000; stroke-width: 0.8"/>
      </g>
     </g>
    </g>
    <g id="xtick_8">
     <g id="line2d_16">
      <g>
       <use xlink:href="#m0f0b37fa15" x="138.763636" y="142.411034" style="stroke: #000000; stroke-width: 0.8"/>
      </g>
     </g>
    </g>
    <g id="xtick_9">
     <g id="line2d_17">
      <g>
       <use xlink:href="#m0f0b37fa15" x="203.694545" y="142.411034" style="stroke: #000000; stroke-width: 0.8"/>
      </g>
     </g>
    </g>
    <g id="xtick_10">
     <g id="line2d_18">
      <g>
       <use xlink:href="#m0f0b37fa15" x="268.625455" y="142.411034" style="stroke: #000000; stroke-width: 0.8"/>
      </g>
     </g>
    </g>
    <g id="xtick_11">
     <g id="line2d_19">
      <g>
       <use xlink:href="#m0f0b37fa15" x="333.556364" y="142.411034" style="stroke: #000000; stroke-width: 0.8"/>
      </g>
     </g>
    </g>
    <g id="xtick_12">
     <g id="line2d_20">
      <g>
       <use xlink:href="#m0f0b37fa15" x="398.487273" y="142.411034" style="stroke: #000000; stroke-width: 0.8"/>
      </g>
     </g>
    </g>
   </g>
   <g id="matplotlib.axis_4">
    <g id="ytick_3">
     <g id="line2d_21">
      <g>
       <use xlink:href="#m442ccb91da" x="57.6" y="140.784154" style="stroke: #000000; stroke-width: 0.8"/>
      </g>
     </g>
     <g id="text_8">
      <!-- 0 -->
      <g transform="translate(44.2375 144.583372)scale(0.1 -0.1)">
       <use xlink:href="#DejaVuSans-30"/>
      </g>
     </g>
    </g>
    <g id="ytick_4">
     <g id="line2d_22">
      <g>
       <use xlink:href="#m442ccb91da" x="57.6" y="98.771841" style="stroke: #000000; stroke-width: 0.8"/>
      </g>
     </g>
     <g id="text_9">
      <!-- 1 -->
      <g transform="translate(44.2375 102.57106)scale(0.1 -0.1)">
       <use xlink:href="#DejaVuSans-31"/>
      </g>
     </g>
    </g>
   </g>
   <g id="line2d_23">
    <path d="M 73.832727 140.325507 
L 77.079273 124.083057 
L 80.325818 114.10381 
L 83.572364 108.06659 
L 86.818909 104.40681 
L 90.065455 102.191201 
L 93.312 100.84464 
L 96.558545 100.028334 
L 99.805091 99.533233 
L 103.051636 99.233257 
L 106.298182 99.050817 
L 109.544727 98.941663 
L 112.791273 98.874389 
L 116.037818 98.829306 
L 119.284364 98.808107 
L 122.530909 98.785041 
L 125.777455 98.615313 
L 129.024 98.615259 
L 132.270545 98.615231 
L 135.517091 98.615201 
L 138.763636 98.615184 
L 142.010182 98.615177 
L 145.256727 98.615172 
L 148.503273 98.615176 
L 151.749818 98.615176 
L 154.996364 98.615179 
L 158.242909 98.615185 
L 161.489455 98.61519 
L 164.736 98.615195 
L 167.982545 98.615196 
L 171.229091 98.624864 
L 174.475636 113.584643 
L 177.722182 122.54367 
L 180.968727 127.939642 
L 184.215273 131.144524 
L 187.461818 133.072506 
L 190.708364 134.247134 
L 193.954909 134.987342 
L 197.201455 135.480176 
L 200.448 135.812063 
L 203.694545 136.041258 
L 206.941091 136.201744 
L 210.187636 136.314967 
L 213.434182 136.39467 
L 216.680727 136.450965 
L 219.927273 136.490594 
L 223.173818 136.518459 
L 226.420364 136.537749 
L 229.666909 136.551366 
L 232.913455 136.560761 
L 236.16 136.567323 
L 239.406545 136.571992 
L 242.653091 136.575246 
L 245.899636 136.577367 
L 249.146182 136.578905 
L 252.392727 136.579968 
L 255.639273 136.580711 
L 258.885818 136.58129 
L 262.132364 136.581684 
L 265.378909 136.582052 
L 268.625455 136.582517 
L 271.872 138.019397 
L 275.118545 138.870732 
L 278.365091 139.370463 
L 281.611636 139.664434 
L 284.858182 139.841042 
L 288.104727 139.95279 
L 291.351273 140.028256 
L 294.597818 140.081697 
L 297.844364 140.121894 
L 301.090909 140.15277 
L 304.337455 140.17718 
L 307.584 140.196769 
L 310.830545 140.212759 
L 314.077091 140.226021 
L 317.323636 140.237172 
L 320.570182 140.2467 
L 323.816727 140.254927 
L 327.063273 140.26212 
L 330.309818 140.268457 
L 333.556364 140.274084 
L 336.802909 140.279146 
L 340.049455 140.283697 
L 343.296 140.287835 
L 346.542545 140.291609 
L 349.789091 140.295069 
L 353.035636 140.298252 
L 356.282182 140.301177 
L 359.528727 140.303887 
L 362.775273 140.30642 
L 366.021818 140.308755 
L 369.268364 140.310936 
L 372.514909 140.312981 
L 375.761455 140.31489 
L 379.008 140.316688 
L 382.254545 140.318381 
L 385.501091 140.319972 
L 388.747636 140.321477 
L 391.994182 140.322898 
L 395.240727 140.324242 
L 398.487273 140.325517 
" clip-path="url(#pcb08971fa0)" style="fill: none; stroke: #1f77b4; stroke-width: 1.5; stroke-linecap: square"/>
   </g>
   <g id="line2d_24">
    <path d="M 73.832727 139.939545 
L 77.079273 125.344481 
L 80.325818 114.563452 
L 83.572364 108.278296 
L 86.818909 104.51316 
L 90.065455 102.247335 
L 93.312 100.875068 
L 96.558545 100.04493 
L 99.805091 99.542288 
L 103.051636 99.238188 
L 106.298182 99.053451 
L 109.544727 98.94306 
L 112.791273 98.875117 
L 116.037818 98.829656 
L 119.284364 98.808231 
L 122.530909 98.791164 
L 125.777455 98.695527 
L 129.024 98.695489 
L 132.270545 98.69547 
L 135.517091 98.695448 
L 138.763636 98.695435 
L 142.010182 98.69543 
L 145.256727 98.695426 
L 148.503273 98.695429 
L 151.749818 98.695428 
L 154.996364 98.69543 
L 158.242909 98.695434 
L 161.489455 98.695438 
L 164.736 98.695441 
L 167.982545 98.695441 
L 171.229091 98.696969 
L 174.475636 113.602434 
L 177.722182 122.576023 
L 180.968727 127.994533 
L 184.215273 131.225449 
L 187.461818 133.176055 
L 190.708364 134.361859 
L 193.954909 135.10026 
L 197.201455 135.584885 
L 200.448 135.902521 
L 203.694545 136.116079 
L 206.941091 136.26172 
L 210.187636 136.361832 
L 213.434182 136.430475 
L 216.680727 136.477875 
L 219.927273 136.510563 
L 223.173818 136.533098 
L 226.420364 136.548396 
L 229.666909 136.559085 
L 232.913455 136.566338 
L 236.16 136.571346 
L 239.406545 136.574877 
L 242.653091 136.577312 
L 245.899636 136.578874 
L 249.146182 136.580011 
L 252.392727 136.580795 
L 255.639273 136.581334 
L 258.885818 136.581756 
L 262.132364 136.582039 
L 265.378909 136.582306 
L 268.625455 136.582517 
L 271.872 137.438657 
L 275.118545 137.923658 
L 278.365091 138.240055 
L 281.611636 138.469182 
L 284.858182 138.647092 
L 288.104727 138.791207 
L 291.351273 138.911064 
L 294.597818 139.012736 
L 297.844364 139.100266 
L 301.090909 139.176437 
L 304.337455 139.243494 
L 307.584 139.303166 
L 310.830545 139.35644 
L 314.077091 139.404433 
L 317.323636 139.447894 
L 320.570182 139.487525 
L 323.816727 139.523787 
L 327.063273 139.557147 
L 330.309818 139.587934 
L 333.556364 139.61645 
L 336.802909 139.642984 
L 340.049455 139.667704 
L 343.296 139.690835 
L 346.542545 139.712531 
L 349.789091 139.732933 
L 353.035636 139.752158 
L 356.282182 139.770282 
L 359.528727 139.78743 
L 362.775273 139.803722 
L 366.021818 139.81913 
L 369.268364 139.833785 
L 372.514909 139.847751 
L 375.761455 139.861049 
L 379.008 139.873764 
L 382.254545 139.885927 
L 385.501091 139.897553 
L 388.747636 139.908704 
L 391.994182 139.919395 
L 395.240727 139.929655 
L 398.487273 139.939523 
" clip-path="url(#pcb08971fa0)" style="fill: none; stroke: #ff7f0e; stroke-width: 1.5; stroke-linecap: square"/>
   </g>
   <g id="line2d_25">
    <path d="M 73.832727 139.843848 
L 77.079273 125.760692 
L 80.325818 114.709234 
L 83.572364 108.344966 
L 86.818909 104.546592 
L 90.065455 102.264971 
L 93.312 100.884627 
L 96.558545 100.050145 
L 99.805091 99.545135 
L 103.051636 99.239739 
L 106.298182 99.05428 
L 109.544727 98.9435 
L 112.791273 98.875346 
L 116.037818 98.829766 
L 119.284364 98.80827 
L 122.530909 98.791725 
L 125.777455 98.767821 
L 129.024 98.767819 
L 132.270545 98.767817 
L 135.517091 98.767816 
L 138.763636 98.767815 
L 142.010182 98.767815 
L 145.256727 98.767814 
L 148.503273 98.767815 
L 151.749818 98.767815 
L 154.996364 98.767815 
L 158.242909 98.767815 
L 161.489455 98.767815 
L 164.736 98.767815 
L 167.982545 98.767815 
L 171.229091 98.768693 
L 174.475636 113.647254 
L 177.722182 122.65884 
L 180.968727 128.136883 
L 184.215273 131.438295 
L 187.461818 133.452702 
L 190.708364 134.671557 
L 193.954909 135.407119 
L 197.201455 135.867795 
L 200.448 136.144146 
L 203.694545 136.312731 
L 206.941091 136.41649 
L 210.187636 136.480502 
L 213.434182 136.519455 
L 216.680727 136.543607 
L 219.927273 136.558571 
L 223.173818 136.567789 
L 226.420364 136.573332 
L 229.666909 136.57699 
L 232.913455 136.579175 
L 236.16 136.580545 
L 239.406545 136.581431 
L 242.653091 136.581973 
L 245.899636 136.582265 
L 249.146182 136.582494 
L 252.392727 136.582646 
L 255.639273 136.582731 
L 258.885818 136.582798 
L 262.132364 136.582833 
L 265.378909 136.582867 
L 268.625455 136.582877 
L 271.872 137.297426 
L 275.118545 137.717271 
L 278.365091 138.009441 
L 281.611636 138.232638 
L 284.858182 138.412671 
L 288.104727 138.562317 
L 291.351273 138.689075 
L 294.597818 138.798089 
L 297.844364 138.892962 
L 301.090909 138.976257 
L 304.337455 139.050138 
L 307.584 139.116306 
L 310.830545 139.175705 
L 314.077091 139.229473 
L 317.323636 139.278363 
L 320.570182 139.323117 
L 323.816727 139.364197 
L 327.063273 139.402102 
L 330.309818 139.437174 
L 333.556364 139.469742 
L 336.802909 139.50011 
L 340.049455 139.528458 
L 343.296 139.55503 
L 346.542545 139.579998 
L 349.789091 139.603511 
L 353.035636 139.625698 
L 356.282182 139.646648 
L 359.528727 139.666498 
L 362.775273 139.685379 
L 366.021818 139.703259 
L 369.268364 139.720283 
L 372.514909 139.736523 
L 375.761455 139.752006 
L 379.008 139.766825 
L 382.254545 139.781014 
L 385.501091 139.79459 
L 388.747636 139.807623 
L 391.994182 139.820131 
L 395.240727 139.832148 
L 398.487273 139.843717 
" clip-path="url(#pcb08971fa0)" style="fill: none; stroke: #2ca02c; stroke-width: 1.5; stroke-linecap: square"/>
   </g>
   <g id="patch_9">
    <path d="M 57.6 142.411034 
L 57.6 96.529655 
" style="fill: none; stroke: #000000; stroke-width: 0.8; stroke-linejoin: miter; stroke-linecap: square"/>
   </g>
   <g id="patch_10">
    <path d="M 414.72 142.411034 
L 414.72 96.529655 
" style="fill: none; stroke: #000000; stroke-width: 0.8; stroke-linejoin: miter; stroke-linecap: square"/>
   </g>
   <g id="patch_11">
    <path d="M 57.6 142.411034 
L 414.72 142.411034 
" style="fill: none; stroke: #000000; stroke-width: 0.8; stroke-linejoin: miter; stroke-linecap: square"/>
   </g>
   <g id="patch_12">
    <path d="M 57.6 96.529655 
L 414.72 96.529655 
" style="fill: none; stroke: #000000; stroke-width: 0.8; stroke-linejoin: miter; stroke-linecap: square"/>
   </g>
   <g id="text_10">
    <!-- Pressure -->
    <g transform="translate(210.546562 90.529655)scale(0.12 -0.12)">
     <defs>
      <path id="DejaVuSans-50" d="M 1259 4147 
L 1259 2394 
L 2053 2394 
Q 2494 2394 2734 2622 
Q 2975 2850 2975 3272 
Q 2975 3691 2734 3919 
Q 2494 4147 2053 4147 
L 1259 4147 
z
M 628 4666 
L 2053 4666 
Q 2838 4666 3239 4311 
Q 3641 3956 3641 3272 
Q 3641 2581 3239 2228 
Q 2838 1875 2053 1875 
L 1259 1875 
L 1259 0 
L 628 0 
L 628 4666 
z
" transform="scale(0.015625)"/>
      <path id="DejaVuSans-75" d="M 544 1381 
L 544 3500 
L 1119 3500 
L 1119 1403 
Q 1119 906 1312 657 
Q 1506 409 1894 409 
Q 2359 409 2629 706 
Q 2900 1003 2900 1516 
L 2900 3500 
L 3475 3500 
L 3475 0 
L 2900 0 
L 2900 538 
Q 2691 219 2414 64 
Q 2138 -91 1772 -91 
Q 1169 -91 856 284 
Q 544 659 544 1381 
z
M 1991 3584 
L 1991 3584 
z
" transform="scale(0.015625)"/>
     </defs>
     <use xlink:href="#DejaVuSans-50"/>
     <use xlink:href="#DejaVuSans-72" x="58.552734"/>
     <use xlink:href="#DejaVuSans-65" x="97.416016"/>
     <use xlink:href="#DejaVuSans-73" x="158.939453"/>
     <use xlink:href="#DejaVuSans-73" x="211.039062"/>
     <use xlink:href="#DejaVuSans-75" x="263.138672"/>
     <use xlink:href="#DejaVuSans-72" x="326.517578"/>
     <use xlink:href="#DejaVuSans-65" x="365.380859"/>
    </g>
   </g>
   <g id="legend_2">
    <g id="patch_13">
     <path d="M 350.823125 137.411034 
L 407.72 137.411034 
Q 409.72 137.411034 409.72 135.411034 
L 409.72 92.376659 
Q 409.72 90.376659 407.72 90.376659 
L 350.823125 90.376659 
Q 348.823125 90.376659 348.823125 92.376659 
L 348.823125 135.411034 
Q 348.823125 137.411034 350.823125 137.411034 
z
" style="fill: #ffffff; opacity: 0.8; stroke: #cccccc; stroke-linejoin: miter"/>
    </g>
    <g id="line2d_26">
     <path d="M 352.823125 98.475097 
L 362.823125 98.475097 
L 372.823125 98.475097 
" style="fill: none; stroke: #1f77b4; stroke-width: 1.5; stroke-linecap: square"/>
    </g>
    <g id="text_11">
     <!-- P1 -->
     <g transform="translate(380.823125 101.975097)scale(0.1 -0.1)">
      <use xlink:href="#DejaVuSans-50"/>
      <use xlink:href="#DejaVuSans-31" x="60.302734"/>
     </g>
    </g>
    <g id="line2d_27">
     <path d="M 352.823125 113.153222 
L 362.823125 113.153222 
L 372.823125 113.153222 
" style="fill: none; stroke: #ff7f0e; stroke-width: 1.5; stroke-linecap: square"/>
    </g>
    <g id="text_12">
     <!-- Pmid -->
     <g transform="translate(380.823125 116.653222)scale(0.1 -0.1)">
      <use xlink:href="#DejaVuSans-50"/>
      <use xlink:href="#DejaVuSans-6d" x="60.302734"/>
      <use xlink:href="#DejaVuSans-69" x="157.714844"/>
      <use xlink:href="#DejaVuSans-64" x="185.498047"/>
     </g>
    </g>
    <g id="line2d_28">
     <path d="M 352.823125 127.831347 
L 362.823125 127.831347 
L 372.823125 127.831347 
" style="fill: none; stroke: #2ca02c; stroke-width: 1.5; stroke-linecap: square"/>
    </g>
    <g id="text_13">
     <!-- PN -->
     <g transform="translate(380.823125 131.331347)scale(0.1 -0.1)">
      <use xlink:href="#DejaVuSans-50"/>
      <use xlink:href="#DejaVuSans-4e" x="60.302734"/>
     </g>
    </g>
   </g>
  </g>
  <g id="axes_3">
   <g id="patch_14">
    <path d="M 57.6 197.46869 
L 414.72 197.46869 
L 414.72 151.58731 
L 57.6 151.58731 
z
" style="fill: #ffffff"/>
   </g>
   <g id="matplotlib.axis_5">
    <g id="xtick_13">
     <g id="line2d_29">
      <g>
       <use xlink:href="#m0f0b37fa15" x="73.832727" y="197.46869" style="stroke: #000000; stroke-width: 0.8"/>
      </g>
     </g>
    </g>
    <g id="xtick_14">
     <g id="line2d_30">
      <g>
       <use xlink:href="#m0f0b37fa15" x="138.763636" y="197.46869" style="stroke: #000000; stroke-width: 0.8"/>
      </g>
     </g>
    </g>
    <g id="xtick_15">
     <g id="line2d_31">
      <g>
       <use xlink:href="#m0f0b37fa15" x="203.694545" y="197.46869" style="stroke: #000000; stroke-width: 0.8"/>
      </g>
     </g>
    </g>
    <g id="xtick_16">
     <g id="line2d_32">
      <g>
       <use xlink:href="#m0f0b37fa15" x="268.625455" y="197.46869" style="stroke: #000000; stroke-width: 0.8"/>
      </g>
     </g>
    </g>
    <g id="xtick_17">
     <g id="line2d_33">
      <g>
       <use xlink:href="#m0f0b37fa15" x="333.556364" y="197.46869" style="stroke: #000000; stroke-width: 0.8"/>
      </g>
     </g>
    </g>
    <g id="xtick_18">
     <g id="line2d_34">
      <g>
       <use xlink:href="#m0f0b37fa15" x="398.487273" y="197.46869" style="stroke: #000000; stroke-width: 0.8"/>
      </g>
     </g>
    </g>
   </g>
   <g id="matplotlib.axis_6">
    <g id="ytick_5">
     <g id="line2d_35">
      <g>
       <use xlink:href="#m442ccb91da" x="57.6" y="181.581587" style="stroke: #000000; stroke-width: 0.8"/>
      </g>
     </g>
     <g id="text_14">
      <!-- 0.05 -->
      <g transform="translate(28.334375 185.380806)scale(0.1 -0.1)">
       <defs>
        <path id="DejaVuSans-2e" d="M 684 794 
L 1344 794 
L 1344 0 
L 684 0 
L 684 794 
z
" transform="scale(0.015625)"/>
       </defs>
       <use xlink:href="#DejaVuSans-30"/>
       <use xlink:href="#DejaVuSans-2e" x="63.623047"/>
       <use xlink:href="#DejaVuSans-30" x="95.410156"/>
       <use xlink:href="#DejaVuSans-35" x="159.033203"/>
      </g>
     </g>
    </g>
    <g id="ytick_6">
     <g id="line2d_36">
      <g>
       <use xlink:href="#m442ccb91da" x="57.6" y="157.109578" style="stroke: #000000; stroke-width: 0.8"/>
      </g>
     </g>
     <g id="text_15">
      <!-- 0.10 -->
      <g transform="translate(28.334375 160.908797)scale(0.1 -0.1)">
       <use xlink:href="#DejaVuSans-30"/>
       <use xlink:href="#DejaVuSans-2e" x="63.623047"/>
       <use xlink:href="#DejaVuSans-31" x="95.410156"/>
       <use xlink:href="#DejaVuSans-30" x="159.033203"/>
      </g>
     </g>
    </g>
    <g id="text_16">
     <!-- fraction -->
     <g transform="translate(22.254687 193.73425)rotate(-90)scale(0.1 -0.1)">
      <use xlink:href="#DejaVuSans-66"/>
      <use xlink:href="#DejaVuSans-72" x="35.205078"/>
      <use xlink:href="#DejaVuSans-61" x="76.318359"/>
      <use xlink:href="#DejaVuSans-63" x="137.597656"/>
      <use xlink:href="#DejaVuSans-74" x="192.578125"/>
      <use xlink:href="#DejaVuSans-69" x="231.787109"/>
      <use xlink:href="#DejaVuSans-6f" x="259.570312"/>
      <use xlink:href="#DejaVuSans-6e" x="320.751953"/>
     </g>
    </g>
   </g>
   <g id="line2d_37">
    <path d="M 73.832727 153.726606 
L 77.079273 184.596815 
L 80.325818 184.716416 
L 83.572364 184.759566 
L 86.818909 184.793782 
L 90.065455 184.820262 
L 93.312 184.816399 
L 96.558545 184.824453 
L 99.805091 184.829624 
L 103.051636 184.844503 
L 106.298182 184.84602 
L 109.544727 184.854709 
L 112.791273 184.861188 
L 116.037818 184.862947 
L 119.284364 184.861487 
L 122.530909 184.857359 
L 125.777455 184.230578 
L 129.024 184.034728 
L 132.270545 183.857799 
L 135.517091 183.681121 
L 138.763636 183.517002 
L 142.010182 183.365102 
L 145.256727 183.224319 
L 148.503273 183.095725 
L 151.749818 182.974556 
L 154.996364 182.86414 
L 158.242909 182.762544 
L 161.489455 182.66938 
L 164.736 182.583728 
L 167.982545 182.504707 
L 171.229091 182.432816 
L 174.475636 182.211673 
L 177.722182 181.724487 
L 180.968727 181.100433 
L 184.215273 180.406547 
L 187.461818 179.717631 
L 190.708364 179.099189 
L 193.954909 178.612452 
L 197.201455 178.159542 
L 200.448 177.828293 
L 203.694545 177.572418 
L 206.941091 177.377841 
L 210.187636 177.231902 
L 213.434182 177.125794 
L 216.680727 177.048181 
L 219.927273 176.992263 
L 223.173818 176.952493 
L 226.420364 176.924677 
L 229.666909 176.905118 
L 232.913455 176.891493 
L 236.16 176.882005 
L 239.406545 176.875357 
L 242.653091 176.870773 
L 245.899636 176.86787 
L 249.146182 176.865844 
L 252.392727 176.864519 
L 255.639273 176.863655 
L 258.885818 176.86303 
L 262.132364 176.862686 
L 265.378909 176.862383 
L 268.625455 176.862174 
L 271.872 174.216254 
L 275.118545 170.957246 
L 278.365091 167.580356 
L 281.611636 164.506665 
L 284.858182 162.014288 
L 288.104727 160.105742 
L 291.351273 158.650025 
L 294.597818 157.569905 
L 297.844364 156.7275 
L 301.090909 156.074372 
L 304.337455 155.56365 
L 307.584 155.192877 
L 310.830545 154.897888 
L 314.077091 154.675585 
L 317.323636 154.502561 
L 320.570182 154.369723 
L 323.816727 154.263862 
L 327.063273 154.18053 
L 330.309818 154.11314 
L 333.556364 154.058866 
L 336.802909 154.01326 
L 340.049455 153.974772 
L 343.296 153.941381 
L 346.542545 153.912932 
L 349.789091 153.887842 
L 353.035636 153.865131 
L 356.282182 153.845033 
L 359.528727 153.826712 
L 362.775273 153.809391 
L 366.021818 153.793724 
L 369.268364 153.778909 
L 372.514909 153.764781 
L 375.761455 153.751717 
L 379.008 153.739322 
L 382.254545 153.727416 
L 385.501091 153.715795 
L 388.747636 153.704321 
L 391.994182 153.693303 
L 395.240727 153.682834 
L 398.487273 153.672828 
" clip-path="url(#pfd696cb5f5)" style="fill: none; stroke: #1f77b4; stroke-width: 1.5; stroke-linecap: square"/>
   </g>
   <g id="line2d_38">
    <path d="M 73.832727 182.214265 
L 77.079273 194.820227 
L 80.325818 195.195028 
L 83.572364 195.293359 
L 86.818909 195.335125 
L 90.065455 195.356073 
L 93.312 195.36759 
L 96.558545 195.374127 
L 99.805091 195.377931 
L 103.051636 195.380168 
L 106.298182 195.381491 
L 109.544727 195.382257 
L 112.791273 195.38271 
L 116.037818 195.382998 
L 119.284364 195.383107 
L 122.530909 195.383172 
L 125.777455 195.370612 
L 129.024 195.365344 
L 132.270545 195.359888 
L 135.517091 195.35442 
L 138.763636 195.348814 
L 142.010182 195.343067 
L 145.256727 195.337176 
L 148.503273 195.331145 
L 151.749818 195.324956 
L 154.996364 195.318622 
L 158.242909 195.312136 
L 161.489455 195.305498 
L 164.736 195.298704 
L 167.982545 195.29175 
L 171.229091 195.284634 
L 174.475636 195.119863 
L 177.722182 194.880355 
L 180.968727 194.566674 
L 184.215273 194.204202 
L 187.461818 193.826124 
L 190.708364 193.477285 
L 193.954909 193.207925 
L 197.201455 192.968279 
L 200.448 192.813244 
L 203.694545 192.708655 
L 206.941091 192.639801 
L 210.187636 192.59534 
L 213.434182 192.567826 
L 216.680727 192.550362 
L 219.927273 192.539279 
L 223.173818 192.532414 
L 226.420364 192.528228 
L 229.666909 192.525458 
L 232.913455 192.523767 
L 236.16 192.522692 
L 239.406545 192.521995 
L 242.653091 192.521557 
L 245.899636 192.521311 
L 249.146182 192.521117 
L 252.392727 192.520984 
L 255.639273 192.520902 
L 258.885818 192.520836 
L 262.132364 192.520794 
L 265.378909 192.520754 
L 268.625455 192.52073 
L 271.872 191.912777 
L 275.118545 191.425003 
L 278.365091 191.003523 
L 281.611636 190.616896 
L 284.858182 190.253176 
L 288.104727 189.907094 
L 291.351273 189.576042 
L 294.597818 189.258506 
L 297.844364 188.952268 
L 301.090909 188.657901 
L 304.337455 188.374085 
L 307.584 188.099789 
L 310.830545 187.834224 
L 314.077091 187.57685 
L 317.323636 187.326851 
L 320.570182 187.084475 
L 323.816727 186.848382 
L 327.063273 186.618901 
L 330.309818 186.394879 
L 333.556364 186.176837 
L 336.802909 185.964037 
L 340.049455 185.755856 
L 343.296 185.552242 
L 346.542545 185.353332 
L 349.789091 185.158523 
L 353.035636 184.967319 
L 356.282182 184.780279 
L 359.528727 184.597198 
L 362.775273 184.417832 
L 366.021818 184.241324 
L 369.268364 184.067616 
L 372.514909 183.896673 
L 375.761455 183.729227 
L 379.008 183.564918 
L 382.254545 183.403294 
L 385.501091 183.243684 
L 388.747636 183.086074 
L 391.994182 182.931175 
L 395.240727 182.77925 
L 398.487273 182.630196 
" clip-path="url(#pfd696cb5f5)" style="fill: none; stroke: #ff7f0e; stroke-width: 1.5; stroke-linecap: square"/>
   </g>
   <g id="patch_15">
    <path d="M 57.6 197.46869 
L 57.6 151.58731 
" style="fill: none; stroke: #000000; stroke-width: 0.8; stroke-linejoin: miter; stroke-linecap: square"/>
   </g>
   <g id="patch_16">
    <path d="M 414.72 197.46869 
L 414.72 151.58731 
" style="fill: none; stroke: #000000; stroke-width: 0.8; stroke-linejoin: miter; stroke-linecap: square"/>
   </g>
   <g id="patch_17">
    <path d="M 57.6 197.46869 
L 414.72 197.46869 
" style="fill: none; stroke: #000000; stroke-width: 0.8; stroke-linejoin: miter; stroke-linecap: square"/>
   </g>
   <g id="patch_18">
    <path d="M 57.6 151.58731 
L 414.72 151.58731 
" style="fill: none; stroke: #000000; stroke-width: 0.8; stroke-linejoin: miter; stroke-linecap: square"/>
   </g>
   <g id="text_17">
    <!-- yA -->
    <g transform="translate(228.504375 145.58731)scale(0.12 -0.12)">
     <defs>
      <path id="DejaVuSans-41" d="M 2188 4044 
L 1331 1722 
L 3047 1722 
L 2188 4044 
z
M 1831 4666 
L 2547 4666 
L 4325 0 
L 3669 0 
L 3244 1197 
L 1141 1197 
L 716 0 
L 50 0 
L 1831 4666 
z
" transform="scale(0.015625)"/>
     </defs>
     <use xlink:href="#DejaVuSans-79"/>
     <use xlink:href="#DejaVuSans-41" x="59.179688"/>
    </g>
   </g>
   <g id="legend_3">
    <g id="patch_19">
     <path d="M 330.030938 188.94356 
L 407.72 188.94356 
Q 409.72 188.94356 409.72 186.94356 
L 409.72 158.58731 
Q 409.72 156.58731 407.72 156.58731 
L 330.030938 156.58731 
Q 328.030938 156.58731 328.030938 158.58731 
L 328.030938 186.94356 
Q 328.030938 188.94356 330.030938 188.94356 
z
" style="fill: #ffffff; opacity: 0.8; stroke: #cccccc; stroke-linejoin: miter"/>
    </g>
    <g id="line2d_39">
     <path d="M 332.030938 164.685748 
L 342.030938 164.685748 
L 352.030938 164.685748 
" style="fill: none; stroke: #1f77b4; stroke-width: 1.5; stroke-linecap: square"/>
    </g>
    <g id="text_18">
     <!-- yA0 (in) -->
     <g transform="translate(360.030938 168.185748)scale(0.1 -0.1)">
      <use xlink:href="#DejaVuSans-79"/>
      <use xlink:href="#DejaVuSans-41" x="59.179688"/>
      <use xlink:href="#DejaVuSans-30" x="127.587891"/>
      <use xlink:href="#DejaVuSans-20" x="191.210938"/>
      <use xlink:href="#DejaVuSans-28" x="222.998047"/>
      <use xlink:href="#DejaVuSans-69" x="262.011719"/>
      <use xlink:href="#DejaVuSans-6e" x="289.794922"/>
      <use xlink:href="#DejaVuSans-29" x="353.173828"/>
     </g>
    </g>
    <g id="line2d_40">
     <path d="M 332.030938 179.363873 
L 342.030938 179.363873 
L 352.030938 179.363873 
" style="fill: none; stroke: #ff7f0e; stroke-width: 1.5; stroke-linecap: square"/>
    </g>
    <g id="text_19">
     <!-- yAL (out) -->
     <g transform="translate(360.030938 182.863873)scale(0.1 -0.1)">
      <defs>
       <path id="DejaVuSans-4c" d="M 628 4666 
L 1259 4666 
L 1259 531 
L 3531 531 
L 3531 0 
L 628 0 
L 628 4666 
z
" transform="scale(0.015625)"/>
      </defs>
      <use xlink:href="#DejaVuSans-79"/>
      <use xlink:href="#DejaVuSans-41" x="59.179688"/>
      <use xlink:href="#DejaVuSans-4c" x="127.587891"/>
      <use xlink:href="#DejaVuSans-20" x="183.300781"/>
      <use xlink:href="#DejaVuSans-28" x="215.087891"/>
      <use xlink:href="#DejaVuSans-6f" x="254.101562"/>
      <use xlink:href="#DejaVuSans-75" x="315.283203"/>
      <use xlink:href="#DejaVuSans-74" x="378.662109"/>
      <use xlink:href="#DejaVuSans-29" x="417.871094"/>
     </g>
    </g>
   </g>
  </g>
  <g id="axes_4">
   <g id="patch_20">
    <path d="M 57.6 252.526345 
L 414.72 252.526345 
L 414.72 206.644966 
L 57.6 206.644966 
z
" style="fill: #ffffff"/>
   </g>
   <g id="matplotlib.axis_7">
    <g id="xtick_19">
     <g id="line2d_41">
      <g>
       <use xlink:href="#m0f0b37fa15" x="73.832727" y="252.526345" style="stroke: #000000; stroke-width: 0.8"/>
      </g>
     </g>
    </g>
    <g id="xtick_20">
     <g id="line2d_42">
      <g>
       <use xlink:href="#m0f0b37fa15" x="138.763636" y="252.526345" style="stroke: #000000; stroke-width: 0.8"/>
      </g>
     </g>
    </g>
    <g id="xtick_21">
     <g id="line2d_43">
      <g>
       <use xlink:href="#m0f0b37fa15" x="203.694545" y="252.526345" style="stroke: #000000; stroke-width: 0.8"/>
      </g>
     </g>
    </g>
    <g id="xtick_22">
     <g id="line2d_44">
      <g>
       <use xlink:href="#m0f0b37fa15" x="268.625455" y="252.526345" style="stroke: #000000; stroke-width: 0.8"/>
      </g>
     </g>
    </g>
    <g id="xtick_23">
     <g id="line2d_45">
      <g>
       <use xlink:href="#m0f0b37fa15" x="333.556364" y="252.526345" style="stroke: #000000; stroke-width: 0.8"/>
      </g>
     </g>
    </g>
    <g id="xtick_24">
     <g id="line2d_46">
      <g>
       <use xlink:href="#m0f0b37fa15" x="398.487273" y="252.526345" style="stroke: #000000; stroke-width: 0.8"/>
      </g>
     </g>
    </g>
   </g>
   <g id="matplotlib.axis_8">
    <g id="ytick_7">
     <g id="line2d_47">
      <g>
       <use xlink:href="#m442ccb91da" x="57.6" y="244.528907" style="stroke: #000000; stroke-width: 0.8"/>
      </g>
     </g>
     <g id="text_20">
      <!-- 0.85 -->
      <g transform="translate(28.334375 248.328126)scale(0.1 -0.1)">
       <defs>
        <path id="DejaVuSans-38" d="M 2034 2216 
Q 1584 2216 1326 1975 
Q 1069 1734 1069 1313 
Q 1069 891 1326 650 
Q 1584 409 2034 409 
Q 2484 409 2743 651 
Q 3003 894 3003 1313 
Q 3003 1734 2745 1975 
Q 2488 2216 2034 2216 
z
M 1403 2484 
Q 997 2584 770 2862 
Q 544 3141 544 3541 
Q 544 4100 942 4425 
Q 1341 4750 2034 4750 
Q 2731 4750 3128 4425 
Q 3525 4100 3525 3541 
Q 3525 3141 3298 2862 
Q 3072 2584 2669 2484 
Q 3125 2378 3379 2068 
Q 3634 1759 3634 1313 
Q 3634 634 3220 271 
Q 2806 -91 2034 -91 
Q 1263 -91 848 271 
Q 434 634 434 1313 
Q 434 1759 690 2068 
Q 947 2378 1403 2484 
z
M 1172 3481 
Q 1172 3119 1398 2916 
Q 1625 2713 2034 2713 
Q 2441 2713 2670 2916 
Q 2900 3119 2900 3481 
Q 2900 3844 2670 4047 
Q 2441 4250 2034 4250 
Q 1625 4250 1398 4047 
Q 1172 3844 1172 3481 
z
" transform="scale(0.015625)"/>
       </defs>
       <use xlink:href="#DejaVuSans-30"/>
       <use xlink:href="#DejaVuSans-2e" x="63.623047"/>
       <use xlink:href="#DejaVuSans-38" x="95.410156"/>
       <use xlink:href="#DejaVuSans-35" x="159.033203"/>
      </g>
     </g>
    </g>
    <g id="ytick_8">
     <g id="line2d_48">
      <g>
       <use xlink:href="#m442ccb91da" x="57.6" y="223.119108" style="stroke: #000000; stroke-width: 0.8"/>
      </g>
     </g>
     <g id="text_21">
      <!-- 0.90 -->
      <g transform="translate(28.334375 226.918326)scale(0.1 -0.1)">
       <defs>
        <path id="DejaVuSans-39" d="M 703 97 
L 703 672 
Q 941 559 1184 500 
Q 1428 441 1663 441 
Q 2288 441 2617 861 
Q 2947 1281 2994 2138 
Q 2813 1869 2534 1725 
Q 2256 1581 1919 1581 
Q 1219 1581 811 2004 
Q 403 2428 403 3163 
Q 403 3881 828 4315 
Q 1253 4750 1959 4750 
Q 2769 4750 3195 4129 
Q 3622 3509 3622 2328 
Q 3622 1225 3098 567 
Q 2575 -91 1691 -91 
Q 1453 -91 1209 -44 
Q 966 3 703 97 
z
M 1959 2075 
Q 2384 2075 2632 2365 
Q 2881 2656 2881 3163 
Q 2881 3666 2632 3958 
Q 2384 4250 1959 4250 
Q 1534 4250 1286 3958 
Q 1038 3666 1038 3163 
Q 1038 2656 1286 2365 
Q 1534 2075 1959 2075 
z
" transform="scale(0.015625)"/>
       </defs>
       <use xlink:href="#DejaVuSans-30"/>
       <use xlink:href="#DejaVuSans-2e" x="63.623047"/>
       <use xlink:href="#DejaVuSans-39" x="95.410156"/>
       <use xlink:href="#DejaVuSans-30" x="159.033203"/>
      </g>
     </g>
    </g>
    <g id="text_22">
     <!-- fraction -->
     <g transform="translate(22.254687 248.791905)rotate(-90)scale(0.1 -0.1)">
      <use xlink:href="#DejaVuSans-66"/>
      <use xlink:href="#DejaVuSans-72" x="35.205078"/>
      <use xlink:href="#DejaVuSans-61" x="76.318359"/>
      <use xlink:href="#DejaVuSans-63" x="137.597656"/>
      <use xlink:href="#DejaVuSans-74" x="192.578125"/>
      <use xlink:href="#DejaVuSans-69" x="231.787109"/>
      <use xlink:href="#DejaVuSans-6f" x="259.570312"/>
      <use xlink:href="#DejaVuSans-6e" x="320.751953"/>
     </g>
    </g>
   </g>
   <g id="line2d_49">
    <path d="M 73.832727 250.394981 
L 77.079273 220.429876 
L 80.325818 220.329869 
L 83.572364 220.292484 
L 86.818909 220.259051 
L 90.065455 220.231909 
L 93.312 220.240858 
L 96.558545 220.231104 
L 99.805091 220.214265 
L 103.051636 220.194024 
L 106.298182 220.195806 
L 109.544727 220.187456 
L 112.791273 220.180179 
L 116.037818 220.180789 
L 119.284364 220.186406 
L 122.530909 220.181524 
L 125.777455 220.849712 
L 129.024 221.034157 
L 132.270545 221.196118 
L 135.517091 221.358164 
L 138.763636 221.505927 
L 142.010182 221.640154 
L 145.256727 221.763091 
L 148.503273 221.872811 
L 151.749818 221.976682 
L 154.996364 222.069547 
L 158.242909 222.15392 
L 161.489455 222.230539 
L 164.736 222.300751 
L 167.982545 222.365765 
L 171.229091 222.424957 
L 174.475636 222.688886 
L 177.722182 223.206004 
L 180.968727 223.864727 
L 184.215273 224.593618 
L 187.461818 225.313413 
L 190.708364 225.956872 
L 193.954909 226.463439 
L 197.201455 226.930882 
L 200.448 227.273333 
L 203.694545 227.537659 
L 206.941091 227.738536 
L 210.187636 227.889151 
L 213.434182 227.998679 
L 216.680727 228.078775 
L 219.927273 228.136504 
L 223.173818 228.177574 
L 226.420364 228.206313 
L 229.666909 228.226531 
L 232.913455 228.24063 
L 236.16 228.250463 
L 239.406545 228.257368 
L 242.653091 228.262142 
L 245.899636 228.265183 
L 249.146182 228.267319 
L 252.392727 228.268731 
L 255.639273 228.269669 
L 258.885818 228.270361 
L 262.132364 228.270762 
L 265.378909 228.271121 
L 268.625455 228.271386 
L 271.872 230.999389 
L 275.118545 234.184858 
L 278.365091 237.384606 
L 281.611636 240.203718 
L 284.858182 242.472978 
L 288.104727 244.200731 
L 291.351273 245.508431 
L 294.597818 246.475953 
L 297.844364 247.230707 
L 301.090909 247.817812 
L 304.337455 248.279375 
L 307.584 248.618221 
L 310.830545 248.89133 
L 314.077091 249.101556 
L 317.323636 249.26914 
L 320.570182 249.402412 
L 323.816727 249.512719 
L 327.063273 249.603793 
L 330.309818 249.681363 
L 333.556364 249.74777 
L 336.802909 249.806829 
L 340.049455 249.859801 
L 343.296 249.908342 
L 346.542545 249.952459 
L 349.789091 249.993528 
L 353.035636 250.032392 
L 356.282182 250.068811 
L 359.528727 250.103473 
L 362.775273 250.137025 
L 366.021818 250.168904 
L 369.268364 250.199772 
L 372.514909 250.229751 
L 375.761455 250.258503 
L 379.008 250.286347 
L 382.254545 250.313473 
L 385.501091 250.340114 
L 388.747636 250.366373 
L 391.994182 250.391946 
L 395.240727 250.416739 
L 398.487273 250.440828 
" clip-path="url(#p5c48d25b67)" style="fill: none; stroke: #1f77b4; stroke-width: 1.5; stroke-linecap: square"/>
   </g>
   <g id="line2d_50">
    <path d="M 73.832727 225.293016 
L 77.079273 209.505962 
L 80.325818 208.974999 
L 83.572364 208.842837 
L 86.818909 208.788283 
L 90.065455 208.761488 
L 93.312 208.747041 
L 96.558545 208.739088 
L 99.805091 208.734677 
L 103.051636 208.732288 
L 106.298182 208.731075 
L 109.544727 208.730578 
L 112.791273 208.730483 
L 116.037818 208.730598 
L 119.284364 208.730937 
L 122.530909 208.731317 
L 125.777455 208.872481 
L 129.024 208.927955 
L 132.270545 208.984184 
L 135.517091 209.040526 
L 138.763636 209.097542 
L 142.010182 209.155293 
L 145.256727 209.213954 
L 148.503273 209.273379 
L 151.749818 209.334108 
L 154.996364 209.395762 
L 158.242909 209.45848 
L 161.489455 209.522331 
L 164.736 209.587405 
L 167.982545 209.653778 
L 171.229091 209.721422 
L 174.475636 209.914785 
L 177.722182 210.267821 
L 180.968727 210.722115 
L 184.215273 211.238198 
L 187.461818 211.767458 
L 190.708364 212.248689 
L 193.954909 212.620515 
L 197.201455 212.946646 
L 200.448 213.160778 
L 203.694545 213.306961 
L 206.941091 213.404541 
L 210.187636 213.468578 
L 213.434182 213.509064 
L 216.680727 213.535227 
L 219.927273 213.552193 
L 223.173818 213.562961 
L 226.420364 213.569716 
L 229.666909 213.574264 
L 232.913455 213.577146 
L 236.16 213.579044 
L 239.406545 213.580323 
L 242.653091 213.581173 
L 245.899636 213.581699 
L 249.146182 213.582118 
L 252.392727 213.582428 
L 255.639273 213.58265 
L 258.885818 213.582842 
L 262.132364 213.582989 
L 265.378909 213.583133 
L 268.625455 213.583249 
L 271.872 214.329207 
L 275.118545 214.919599 
L 278.365091 215.425287 
L 281.611636 215.886056 
L 284.858182 216.317185 
L 288.104727 216.725459 
L 291.351273 217.114294 
L 294.597818 217.485759 
L 297.844364 217.842567 
L 301.090909 218.184417 
L 304.337455 218.5129 
L 307.584 218.829298 
L 310.830545 219.134721 
L 314.077091 219.429859 
L 317.323636 219.715728 
L 320.570182 219.992169 
L 323.816727 220.260741 
L 327.063273 220.521181 
L 330.309818 220.774796 
L 333.556364 221.021101 
L 336.802909 221.260962 
L 340.049455 221.495112 
L 343.296 221.723663 
L 346.542545 221.94652 
L 349.789091 222.164366 
L 353.035636 222.377765 
L 356.282182 222.586155 
L 359.528727 222.789793 
L 362.775273 222.988981 
L 366.021818 223.184652 
L 369.268364 223.376909 
L 372.514909 223.565817 
L 375.761455 223.750611 
L 379.008 223.93171 
L 382.254545 224.109599 
L 385.501091 224.284983 
L 388.747636 224.457904 
L 391.994182 224.627658 
L 395.240727 224.793998 
L 398.487273 224.957056 
" clip-path="url(#p5c48d25b67)" style="fill: none; stroke: #ff7f0e; stroke-width: 1.5; stroke-linecap: square"/>
   </g>
   <g id="patch_21">
    <path d="M 57.6 252.526345 
L 57.6 206.644966 
" style="fill: none; stroke: #000000; stroke-width: 0.8; stroke-linejoin: miter; stroke-linecap: square"/>
   </g>
   <g id="patch_22">
    <path d="M 414.72 252.526345 
L 414.72 206.644966 
" style="fill: none; stroke: #000000; stroke-width: 0.8; stroke-linejoin: miter; stroke-linecap: square"/>
   </g>
   <g id="patch_23">
    <path d="M 57.6 252.526345 
L 414.72 252.526345 
" style="fill: none; stroke: #000000; stroke-width: 0.8; stroke-linejoin: miter; stroke-linecap: square"/>
   </g>
   <g id="patch_24">
    <path d="M 57.6 206.644966 
L 414.72 206.644966 
" style="fill: none; stroke: #000000; stroke-width: 0.8; stroke-linejoin: miter; stroke-linecap: square"/>
   </g>
   <g id="text_23">
    <!-- yB -->
    <g transform="translate(228.492188 200.644966)scale(0.12 -0.12)">
     <defs>
      <path id="DejaVuSans-42" d="M 1259 2228 
L 1259 519 
L 2272 519 
Q 2781 519 3026 730 
Q 3272 941 3272 1375 
Q 3272 1813 3026 2020 
Q 2781 2228 2272 2228 
L 1259 2228 
z
M 1259 4147 
L 1259 2741 
L 2194 2741 
Q 2656 2741 2882 2914 
Q 3109 3088 3109 3444 
Q 3109 3797 2882 3972 
Q 2656 4147 2194 4147 
L 1259 4147 
z
M 628 4666 
L 2241 4666 
Q 2963 4666 3353 4366 
Q 3744 4066 3744 3513 
Q 3744 3084 3544 2831 
Q 3344 2578 2956 2516 
Q 3422 2416 3680 2098 
Q 3938 1781 3938 1306 
Q 3938 681 3513 340 
Q 3088 0 2303 0 
L 628 0 
L 628 4666 
z
" transform="scale(0.015625)"/>
     </defs>
     <use xlink:href="#DejaVuSans-79"/>
     <use xlink:href="#DejaVuSans-42" x="59.179688"/>
    </g>
   </g>
   <g id="legend_4">
    <g id="patch_25">
     <path d="M 330.010625 244.001216 
L 407.72 244.001216 
Q 409.72 244.001216 409.72 242.001216 
L 409.72 213.644966 
Q 409.72 211.644966 407.72 211.644966 
L 330.010625 211.644966 
Q 328.010625 211.644966 328.010625 213.644966 
L 328.010625 242.001216 
Q 328.010625 244.001216 330.010625 244.001216 
z
" style="fill: #ffffff; opacity: 0.8; stroke: #cccccc; stroke-linejoin: miter"/>
    </g>
    <g id="line2d_51">
     <path d="M 332.010625 219.743403 
L 342.010625 219.743403 
L 352.010625 219.743403 
" style="fill: none; stroke: #1f77b4; stroke-width: 1.5; stroke-linecap: square"/>
    </g>
    <g id="text_24">
     <!-- yB0 (in) -->
     <g transform="translate(360.010625 223.243403)scale(0.1 -0.1)">
      <use xlink:href="#DejaVuSans-79"/>
      <use xlink:href="#DejaVuSans-42" x="59.179688"/>
      <use xlink:href="#DejaVuSans-30" x="127.783203"/>
      <use xlink:href="#DejaVuSans-20" x="191.40625"/>
      <use xlink:href="#DejaVuSans-28" x="223.193359"/>
      <use xlink:href="#DejaVuSans-69" x="262.207031"/>
      <use xlink:href="#DejaVuSans-6e" x="289.990234"/>
      <use xlink:href="#DejaVuSans-29" x="353.369141"/>
     </g>
    </g>
    <g id="line2d_52">
     <path d="M 332.010625 234.421528 
L 342.010625 234.421528 
L 352.010625 234.421528 
" style="fill: none; stroke: #ff7f0e; stroke-width: 1.5; stroke-linecap: square"/>
    </g>
    <g id="text_25">
     <!-- yBL (out) -->
     <g transform="translate(360.010625 237.921528)scale(0.1 -0.1)">
      <use xlink:href="#DejaVuSans-79"/>
      <use xlink:href="#DejaVuSans-42" x="59.179688"/>
      <use xlink:href="#DejaVuSans-4c" x="127.783203"/>
      <use xlink:href="#DejaVuSans-20" x="183.496094"/>
      <use xlink:href="#DejaVuSans-28" x="215.283203"/>
      <use xlink:href="#DejaVuSans-6f" x="254.296875"/>
      <use xlink:href="#DejaVuSans-75" x="315.478516"/>
      <use xlink:href="#DejaVuSans-74" x="378.857422"/>
      <use xlink:href="#DejaVuSans-29" x="418.066406"/>
     </g>
    </g>
   </g>
  </g>
  <g id="axes_5">
   <g id="patch_26">
    <path d="M 57.6 307.584 
L 414.72 307.584 
L 414.72 261.702621 
L 57.6 261.702621 
z
" style="fill: #ffffff"/>
   </g>
   <g id="matplotlib.axis_9">
    <g id="xtick_25">
     <g id="line2d_53">
      <g>
       <use xlink:href="#m0f0b37fa15" x="73.832727" y="307.584" style="stroke: #000000; stroke-width: 0.8"/>
      </g>
     </g>
     <g id="text_26">
      <!-- 0 -->
      <g transform="translate(70.651477 322.182437)scale(0.1 -0.1)">
       <use xlink:href="#DejaVuSans-30"/>
      </g>
     </g>
    </g>
    <g id="xtick_26">
     <g id="line2d_54">
      <g>
       <use xlink:href="#m0f0b37fa15" x="138.763636" y="307.584" style="stroke: #000000; stroke-width: 0.8"/>
      </g>
     </g>
     <g id="text_27">
      <!-- 20 -->
      <g transform="translate(132.401136 322.182437)scale(0.1 -0.1)">
       <use xlink:href="#DejaVuSans-32"/>
       <use xlink:href="#DejaVuSans-30" x="63.623047"/>
      </g>
     </g>
    </g>
    <g id="xtick_27">
     <g id="line2d_55">
      <g>
       <use xlink:href="#m0f0b37fa15" x="203.694545" y="307.584" style="stroke: #000000; stroke-width: 0.8"/>
      </g>
     </g>
     <g id="text_28">
      <!-- 40 -->
      <g transform="translate(197.332045 322.182437)scale(0.1 -0.1)">
       <defs>
        <path id="DejaVuSans-34" d="M 2419 4116 
L 825 1625 
L 2419 1625 
L 2419 4116 
z
M 2253 4666 
L 3047 4666 
L 3047 1625 
L 3713 1625 
L 3713 1100 
L 3047 1100 
L 3047 0 
L 2419 0 
L 2419 1100 
L 313 1100 
L 313 1709 
L 2253 4666 
z
" transform="scale(0.015625)"/>
       </defs>
       <use xlink:href="#DejaVuSans-34"/>
       <use xlink:href="#DejaVuSans-30" x="63.623047"/>
      </g>
     </g>
    </g>
    <g id="xtick_28">
     <g id="line2d_56">
      <g>
       <use xlink:href="#m0f0b37fa15" x="268.625455" y="307.584" style="stroke: #000000; stroke-width: 0.8"/>
      </g>
     </g>
     <g id="text_29">
      <!-- 60 -->
      <g transform="translate(262.262955 322.182437)scale(0.1 -0.1)">
       <defs>
        <path id="DejaVuSans-36" d="M 2113 2584 
Q 1688 2584 1439 2293 
Q 1191 2003 1191 1497 
Q 1191 994 1439 701 
Q 1688 409 2113 409 
Q 2538 409 2786 701 
Q 3034 994 3034 1497 
Q 3034 2003 2786 2293 
Q 2538 2584 2113 2584 
z
M 3366 4563 
L 3366 3988 
Q 3128 4100 2886 4159 
Q 2644 4219 2406 4219 
Q 1781 4219 1451 3797 
Q 1122 3375 1075 2522 
Q 1259 2794 1537 2939 
Q 1816 3084 2150 3084 
Q 2853 3084 3261 2657 
Q 3669 2231 3669 1497 
Q 3669 778 3244 343 
Q 2819 -91 2113 -91 
Q 1303 -91 875 529 
Q 447 1150 447 2328 
Q 447 3434 972 4092 
Q 1497 4750 2381 4750 
Q 2619 4750 2861 4703 
Q 3103 4656 3366 4563 
z
" transform="scale(0.015625)"/>
       </defs>
       <use xlink:href="#DejaVuSans-36"/>
       <use xlink:href="#DejaVuSans-30" x="63.623047"/>
      </g>
     </g>
    </g>
    <g id="xtick_29">
     <g id="line2d_57">
      <g>
       <use xlink:href="#m0f0b37fa15" x="333.556364" y="307.584" style="stroke: #000000; stroke-width: 0.8"/>
      </g>
     </g>
     <g id="text_30">
      <!-- 80 -->
      <g transform="translate(327.193864 322.182437)scale(0.1 -0.1)">
       <use xlink:href="#DejaVuSans-38"/>
       <use xlink:href="#DejaVuSans-30" x="63.623047"/>
      </g>
     </g>
    </g>
    <g id="xtick_30">
     <g id="line2d_58">
      <g>
       <use xlink:href="#m0f0b37fa15" x="398.487273" y="307.584" style="stroke: #000000; stroke-width: 0.8"/>
      </g>
     </g>
     <g id="text_31">
      <!-- 100 -->
      <g transform="translate(388.943523 322.182437)scale(0.1 -0.1)">
       <use xlink:href="#DejaVuSans-31"/>
       <use xlink:href="#DejaVuSans-30" x="63.623047"/>
       <use xlink:href="#DejaVuSans-30" x="127.246094"/>
      </g>
     </g>
    </g>
    <g id="text_32">
     <!-- time (normalized) -->
     <g transform="translate(191.589687 335.860562)scale(0.1 -0.1)">
      <use xlink:href="#DejaVuSans-74"/>
      <use xlink:href="#DejaVuSans-69" x="39.208984"/>
      <use xlink:href="#DejaVuSans-6d" x="66.992188"/>
      <use xlink:href="#DejaVuSans-65" x="164.404297"/>
      <use xlink:href="#DejaVuSans-20" x="225.927734"/>
      <use xlink:href="#DejaVuSans-28" x="257.714844"/>
      <use xlink:href="#DejaVuSans-6e" x="296.728516"/>
      <use xlink:href="#DejaVuSans-6f" x="360.107422"/>
      <use xlink:href="#DejaVuSans-72" x="421.289062"/>
      <use xlink:href="#DejaVuSans-6d" x="460.652344"/>
      <use xlink:href="#DejaVuSans-61" x="558.064453"/>
      <use xlink:href="#DejaVuSans-6c" x="619.34375"/>
      <use xlink:href="#DejaVuSans-69" x="647.126953"/>
      <use xlink:href="#DejaVuSans-7a" x="674.910156"/>
      <use xlink:href="#DejaVuSans-65" x="727.400391"/>
      <use xlink:href="#DejaVuSans-64" x="788.923828"/>
      <use xlink:href="#DejaVuSans-29" x="852.400391"/>
     </g>
    </g>
   </g>
   <g id="matplotlib.axis_10">
    <g id="ytick_9">
     <g id="line2d_59">
      <g>
       <use xlink:href="#m442ccb91da" x="57.6" y="304.108925" style="stroke: #000000; stroke-width: 0.8"/>
      </g>
     </g>
     <g id="text_33">
      <!-- 0.045 -->
      <g transform="translate(21.971875 307.908144)scale(0.1 -0.1)">
       <use xlink:href="#DejaVuSans-30"/>
       <use xlink:href="#DejaVuSans-2e" x="63.623047"/>
       <use xlink:href="#DejaVuSans-30" x="95.410156"/>
       <use xlink:href="#DejaVuSans-34" x="159.033203"/>
       <use xlink:href="#DejaVuSans-35" x="222.65625"/>
      </g>
     </g>
    </g>
    <g id="ytick_10">
     <g id="line2d_60">
      <g>
       <use xlink:href="#m442ccb91da" x="57.6" y="287.005855" style="stroke: #000000; stroke-width: 0.8"/>
      </g>
     </g>
     <g id="text_34">
      <!-- 0.050 -->
      <g transform="translate(21.971875 290.805074)scale(0.1 -0.1)">
       <use xlink:href="#DejaVuSans-30"/>
       <use xlink:href="#DejaVuSans-2e" x="63.623047"/>
       <use xlink:href="#DejaVuSans-30" x="95.410156"/>
       <use xlink:href="#DejaVuSans-35" x="159.033203"/>
       <use xlink:href="#DejaVuSans-30" x="222.65625"/>
      </g>
     </g>
    </g>
    <g id="ytick_11">
     <g id="line2d_61">
      <g>
       <use xlink:href="#m442ccb91da" x="57.6" y="269.902784" style="stroke: #000000; stroke-width: 0.8"/>
      </g>
     </g>
     <g id="text_35">
      <!-- 0.055 -->
      <g transform="translate(21.971875 273.702003)scale(0.1 -0.1)">
       <use xlink:href="#DejaVuSans-30"/>
       <use xlink:href="#DejaVuSans-2e" x="63.623047"/>
       <use xlink:href="#DejaVuSans-30" x="95.410156"/>
       <use xlink:href="#DejaVuSans-35" x="159.033203"/>
       <use xlink:href="#DejaVuSans-35" x="222.65625"/>
      </g>
     </g>
    </g>
    <g id="text_36">
     <!-- fraction -->
     <g transform="translate(15.892187 303.84956)rotate(-90)scale(0.1 -0.1)">
      <use xlink:href="#DejaVuSans-66"/>
      <use xlink:href="#DejaVuSans-72" x="35.205078"/>
      <use xlink:href="#DejaVuSans-61" x="76.318359"/>
      <use xlink:href="#DejaVuSans-63" x="137.597656"/>
      <use xlink:href="#DejaVuSans-74" x="192.578125"/>
      <use xlink:href="#DejaVuSans-69" x="231.787109"/>
      <use xlink:href="#DejaVuSans-6f" x="259.570312"/>
      <use xlink:href="#DejaVuSans-6e" x="320.751953"/>
     </g>
    </g>
   </g>
   <g id="line2d_62">
    <path d="M 73.832727 263.788138 
L 77.079273 287.415683 
L 80.325818 287.37871 
L 83.572364 287.375788 
L 86.818909 287.403736 
L 90.065455 287.43549 
L 93.312 287.391005 
L 96.558545 287.412621 
L 99.805091 287.510888 
L 103.051636 287.568589 
L 106.298182 287.543766 
L 109.544727 287.549749 
L 112.791273 287.562591 
L 116.037818 287.545428 
L 119.284364 287.510771 
L 122.530909 287.578642 
L 125.777455 286.621411 
L 129.024 286.516747 
L 132.270545 286.459473 
L 135.517091 286.399746 
L 138.763636 286.366351 
L 142.010182 286.355693 
L 145.256727 286.357526 
L 148.503273 286.379757 
L 151.749818 286.396818 
L 154.996364 286.426652 
L 158.242909 286.462677 
L 161.489455 286.501723 
L 164.736 286.53945 
L 167.982545 286.57235 
L 171.229091 286.60193 
L 174.475636 286.039086 
L 177.722182 285.312991 
L 180.968727 284.412234 
L 184.215273 283.438985 
L 187.461818 282.503668 
L 190.708364 281.685622 
L 193.954909 281.040668 
L 197.201455 280.471851 
L 200.448 280.051245 
L 203.694545 279.72796 
L 206.941091 279.483133 
L 210.187636 279.299898 
L 213.434182 279.16651 
L 216.680727 279.069099 
L 219.927273 278.998731 
L 223.173818 278.94859 
L 226.420364 278.913417 
L 229.666909 278.888603 
L 232.913455 278.871196 
L 236.16 278.858956 
L 239.406545 278.850262 
L 242.653091 278.844153 
L 245.899636 278.840149 
L 249.146182 278.837248 
L 252.392727 278.835224 
L 255.639273 278.833772 
L 258.885818 278.832617 
L 262.132364 278.831817 
L 265.378909 278.831069 
L 268.625455 278.830414 
L 271.872 275.52961 
L 275.118545 272.857865 
L 278.365091 271.002531 
L 281.611636 269.809226 
L 284.858182 269.101652 
L 288.104727 268.681628 
L 291.351273 268.413488 
L 294.597818 268.233522 
L 297.844364 268.091491 
L 301.090909 267.967381 
L 304.337455 267.849478 
L 307.584 267.734151 
L 310.830545 267.614064 
L 314.077091 267.488351 
L 317.323636 267.358836 
L 320.570182 267.222568 
L 323.816727 267.081242 
L 327.063273 266.936104 
L 330.309818 266.787416 
L 333.556364 266.636234 
L 336.802909 266.483183 
L 340.049455 266.329003 
L 343.296 266.1746 
L 346.542545 266.020999 
L 349.789091 265.868276 
L 353.035636 265.716535 
L 356.282182 265.566076 
L 359.528727 265.417212 
L 362.775273 265.270237 
L 366.021818 265.125065 
L 369.268364 264.982021 
L 372.514909 264.841271 
L 375.761455 264.702892 
L 379.008 264.567088 
L 382.254545 264.433609 
L 385.501091 264.302006 
L 388.747636 264.172427 
L 391.994182 264.045141 
L 395.240727 263.920256 
L 398.487273 263.797751 
" clip-path="url(#p9ae296a3c4)" style="fill: none; stroke: #1f77b4; stroke-width: 1.5; stroke-linecap: square"/>
   </g>
   <g id="line2d_63">
    <path d="M 73.832727 265.218061 
L 77.079273 303.230925 
L 80.325818 304.853071 
L 83.572364 305.221622 
L 86.818909 305.365529 
L 90.065455 305.433171 
L 93.312 305.468093 
L 96.558545 305.48594 
L 99.805091 305.494591 
L 103.051636 305.498039 
L 106.298182 305.498483 
L 109.544727 305.497098 
L 112.791273 305.494695 
L 116.037818 305.491762 
L 119.284364 305.488293 
L 122.530909 305.484797 
L 125.777455 304.44487 
L 129.024 304.038543 
L 132.270545 303.627514 
L 135.517091 303.215644 
L 138.763636 302.799359 
L 142.010182 302.378186 
L 145.256727 301.950746 
L 148.503273 301.518188 
L 151.749818 301.076309 
L 154.996364 300.628058 
L 158.242909 300.172358 
L 161.489455 299.708687 
L 164.736 299.236332 
L 167.982545 298.754714 
L 171.229091 298.26408 
L 174.475636 297.870963 
L 177.722182 296.724643 
L 180.968727 295.287816 
L 184.215273 293.698373 
L 187.461818 292.112741 
L 190.708364 290.706438 
L 193.954909 289.618638 
L 197.201455 288.688209 
L 200.448 288.061144 
L 203.694545 287.624327 
L 206.941091 287.326021 
L 210.187636 287.125198 
L 213.434182 286.99407 
L 216.680727 286.907123 
L 219.927273 286.84904 
L 223.173818 286.811006 
L 226.420364 286.786298 
L 229.666909 286.769326 
L 232.913455 286.758117 
L 236.16 286.750474 
L 239.406545 286.745132 
L 242.653091 286.741399 
L 245.899636 286.738917 
L 249.146182 286.73692 
L 252.392727 286.735376 
L 255.639273 286.734173 
L 258.885818 286.733106 
L 262.132364 286.732223 
L 265.378909 286.731357 
L 268.625455 286.730594 
L 271.872 285.02044 
L 275.118545 283.713104 
L 278.365091 282.619105 
L 281.611636 281.640354 
L 284.858182 280.738282 
L 288.104727 279.895523 
L 291.351273 279.103004 
L 294.597818 278.354793 
L 297.844364 277.644702 
L 301.090909 276.971138 
L 304.337455 276.330615 
L 307.584 275.720099 
L 310.830545 275.136239 
L 314.077091 274.577292 
L 317.323636 274.040846 
L 320.570182 273.526445 
L 323.816727 273.030985 
L 327.063273 272.554284 
L 330.309818 272.09395 
L 333.556364 271.650212 
L 336.802909 271.221322 
L 340.049455 270.80578 
L 343.296 270.403032 
L 346.542545 270.012904 
L 349.789091 269.634147 
L 353.035636 269.265716 
L 356.282182 268.908199 
L 359.528727 268.560967 
L 362.775273 268.22333 
L 366.021818 267.893808 
L 369.268364 267.571997 
L 372.514909 267.257608 
L 375.761455 266.951643 
L 379.008 266.653272 
L 382.254545 266.361783 
L 385.501091 266.076227 
L 388.747636 265.796367 
L 391.994182 265.522863 
L 395.240727 265.255841 
L 398.487273 264.994982 
" clip-path="url(#p9ae296a3c4)" style="fill: none; stroke: #ff7f0e; stroke-width: 1.5; stroke-linecap: square"/>
   </g>
   <g id="patch_27">
    <path d="M 57.6 307.584 
L 57.6 261.702621 
" style="fill: none; stroke: #000000; stroke-width: 0.8; stroke-linejoin: miter; stroke-linecap: square"/>
   </g>
   <g id="patch_28">
    <path d="M 414.72 307.584 
L 414.72 261.702621 
" style="fill: none; stroke: #000000; stroke-width: 0.8; stroke-linejoin: miter; stroke-linecap: square"/>
   </g>
   <g id="patch_29">
    <path d="M 57.6 307.584 
L 414.72 307.584 
" style="fill: none; stroke: #000000; stroke-width: 0.8; stroke-linejoin: miter; stroke-linecap: square"/>
   </g>
   <g id="patch_30">
    <path d="M 57.6 261.702621 
L 414.72 261.702621 
" style="fill: none; stroke: #000000; stroke-width: 0.8; stroke-linejoin: miter; stroke-linecap: square"/>
   </g>
   <g id="text_37">
    <!-- yC -->
    <g transform="translate(228.419062 255.702621)scale(0.12 -0.12)">
     <defs>
      <path id="DejaVuSans-43" d="M 4122 4306 
L 4122 3641 
Q 3803 3938 3442 4084 
Q 3081 4231 2675 4231 
Q 1875 4231 1450 3742 
Q 1025 3253 1025 2328 
Q 1025 1406 1450 917 
Q 1875 428 2675 428 
Q 3081 428 3442 575 
Q 3803 722 4122 1019 
L 4122 359 
Q 3791 134 3420 21 
Q 3050 -91 2638 -91 
Q 1578 -91 968 557 
Q 359 1206 359 2328 
Q 359 3453 968 4101 
Q 1578 4750 2638 4750 
Q 3056 4750 3426 4639 
Q 3797 4528 4122 4306 
z
" transform="scale(0.015625)"/>
     </defs>
     <use xlink:href="#DejaVuSans-79"/>
     <use xlink:href="#DejaVuSans-43" x="59.179688"/>
    </g>
   </g>
   <g id="legend_5">
    <g id="patch_31">
     <path d="M 329.88875 302.584 
L 407.72 302.584 
Q 409.72 302.584 409.72 300.584 
L 409.72 272.22775 
Q 409.72 270.22775 407.72 270.22775 
L 329.88875 270.22775 
Q 327.88875 270.22775 327.88875 272.22775 
L 327.88875 300.584 
Q 327.88875 302.584 329.88875 302.584 
z
" style="fill: #ffffff; opacity: 0.8; stroke: #cccccc; stroke-linejoin: miter"/>
    </g>
    <g id="line2d_64">
     <path d="M 331.88875 278.326187 
L 341.88875 278.326187 
L 351.88875 278.326187 
" style="fill: none; stroke: #1f77b4; stroke-width: 1.5; stroke-linecap: square"/>
    </g>
    <g id="text_38">
     <!-- yC0 (in) -->
     <g transform="translate(359.88875 281.826187)scale(0.1 -0.1)">
      <use xlink:href="#DejaVuSans-79"/>
      <use xlink:href="#DejaVuSans-43" x="59.179688"/>
      <use xlink:href="#DejaVuSans-30" x="129.003906"/>
      <use xlink:href="#DejaVuSans-20" x="192.626953"/>
      <use xlink:href="#DejaVuSans-28" x="224.414062"/>
      <use xlink:href="#DejaVuSans-69" x="263.427734"/>
      <use xlink:href="#DejaVuSans-6e" x="291.210938"/>
      <use xlink:href="#DejaVuSans-29" x="354.589844"/>
     </g>
    </g>
    <g id="line2d_65">
     <path d="M 331.88875 293.004312 
L 341.88875 293.004312 
L 351.88875 293.004312 
" style="fill: none; stroke: #ff7f0e; stroke-width: 1.5; stroke-linecap: square"/>
    </g>
    <g id="text_39">
     <!-- yCL (out) -->
     <g transform="translate(359.88875 296.504312)scale(0.1 -0.1)">
      <use xlink:href="#DejaVuSans-79"/>
      <use xlink:href="#DejaVuSans-43" x="59.179688"/>
      <use xlink:href="#DejaVuSans-4c" x="129.003906"/>
      <use xlink:href="#DejaVuSans-20" x="184.716797"/>
      <use xlink:href="#DejaVuSans-28" x="216.503906"/>
      <use xlink:href="#DejaVuSans-6f" x="255.517578"/>
      <use xlink:href="#DejaVuSans-75" x="316.699219"/>
      <use xlink:href="#DejaVuSans-74" x="380.078125"/>
      <use xlink:href="#DejaVuSans-29" x="419.287109"/>
     </g>
    </g>
   </g>
  </g>
 </g>
 <defs>
  <clipPath id="p352769b4b4">
   <rect x="57.6" y="41.472" width="357.12" height="45.881379"/>
  </clipPath>
  <clipPath id="pcb08971fa0">
   <rect x="57.6" y="96.529655" width="357.12" height="45.881379"/>
  </clipPath>
  <clipPath id="pfd696cb5f5">
   <rect x="57.6" y="151.58731" width="357.12" height="45.881379"/>
  </clipPath>
  <clipPath id="p5c48d25b67">
   <rect x="57.6" y="206.644966" width="357.12" height="45.881379"/>
  </clipPath>
  <clipPath id="p9ae296a3c4">
   <rect x="57.6" y="261.702621" width="357.12" height="45.881379"/>
  </clipPath>
 </defs>
</svg>
