<?xml version="1.0" encoding="utf-8" standalone="no"?>
<!DOCTYPE svg PUBLIC "-//W3C//DTD SVG 1.1//EN"
  "http://www.w3.org/Graphics/SVG/1.1/DTD/svg11.dtd">
<svg xmlns:xlink="http://www.w3.org/1999/xlink" width="460.8pt" height="345.6pt" viewBox="0 0 460.8 345.6" xmlns="http://www.w3.org/2000/svg" version="1.1">
 <metadata>
  <rdf:RDF xmlns:dc="http://purl.org/dc/elements/1.1/" xmlns:cc="http://creativecommons.org/ns#" xmlns:rdf="http://www.w3.org/1999/02/22-rdf-syntax-ns#">
   <cc:Work>
    <dc:type rdf:resource="http://purl.org/dc/dcmitype/StillImage"/>
    <dc:date>2022-07-10T00:05:05.473564</dc:date>
    <dc:format>image/svg+xml</dc:format>
    <dc:creator>
     <cc:Agent>
      <dc:title>Matplotlib v3.5.2, https://matplotlib.org/</dc:title>
     </cc:Agent>
    </dc:creator>
   </cc:Work>
  </rdf:RDF>
 </metadata>
 <defs>
  <style type="text/css">*{stroke-linejoin: round; stroke-linecap: butt}</style>
 </defs>
 <g id="figure_1">
  <g id="patch_1">
   <path d="M 0 345.6 
L 460.8 345.6 
L 460.8 0 
L 0 0 
z
" style="fill: #ffffff"/>
  </g>
  <g id="axes_1">
   <g id="patch_2">
    <path d="M 57.6 87.353379 
L 414.72 87.353379 
L 414.72 41.472 
L 57.6 41.472 
z
" style="fill: #ffffff"/>
   </g>
   <g id="matplotlib.axis_1">
    <g id="xtick_1">
     <g id="line2d_1">
      <defs>
       <path id="m958883c32e" d="M 0 0 
L 0 3.5 
" style="stroke: #000000; stroke-width: 0.8"/>
      </defs>
      <g>
       <use xlink:href="#m958883c32e" x="73.832727" y="87.353379" style="stroke: #000000; stroke-width: 0.8"/>
      </g>
     </g>
    </g>
    <g id="xtick_2">
     <g id="line2d_2">
      <g>
       <use xlink:href="#m958883c32e" x="138.763636" y="87.353379" style="stroke: #000000; stroke-width: 0.8"/>
      </g>
     </g>
    </g>
    <g id="xtick_3">
     <g id="line2d_3">
      <g>
       <use xlink:href="#m958883c32e" x="203.694545" y="87.353379" style="stroke: #000000; stroke-width: 0.8"/>
      </g>
     </g>
    </g>
    <g id="xtick_4">
     <g id="line2d_4">
      <g>
       <use xlink:href="#m958883c32e" x="268.625455" y="87.353379" style="stroke: #000000; stroke-width: 0.8"/>
      </g>
     </g>
    </g>
    <g id="xtick_5">
     <g id="line2d_5">
      <g>
       <use xlink:href="#m958883c32e" x="333.556364" y="87.353379" style="stroke: #000000; stroke-width: 0.8"/>
      </g>
     </g>
    </g>
    <g id="xtick_6">
     <g id="line2d_6">
      <g>
       <use xlink:href="#m958883c32e" x="398.487273" y="87.353379" style="stroke: #000000; stroke-width: 0.8"/>
      </g>
     </g>
    </g>
   </g>
   <g id="matplotlib.axis_2">
    <g id="ytick_1">
     <g id="line2d_7">
      <defs>
       <path id="ma5dd42268c" d="M 0 0 
L -3.5 0 
" style="stroke: #000000; stroke-width: 0.8"/>
      </defs>
      <g>
       <use xlink:href="#ma5dd42268c" x="57.6" y="78.181548" style="stroke: #000000; stroke-width: 0.8"/>
      </g>
     </g>
     <g id="text_1">
      <!-- −5 -->
      <g transform="translate(35.857813 81.980767)scale(0.1 -0.1)">
       <defs>
        <path id="DejaVuSans-2212" d="M 678 2272 
L 4684 2272 
L 4684 1741 
L 678 1741 
L 678 2272 
z
" transform="scale(0.015625)"/>
        <path id="DejaVuSans-35" d="M 691 4666 
L 3169 4666 
L 3169 4134 
L 1269 4134 
L 1269 2991 
Q 1406 3038 1543 3061 
Q 1681 3084 1819 3084 
Q 2600 3084 3056 2656 
Q 3513 2228 3513 1497 
Q 3513 744 3044 326 
Q 2575 -91 1722 -91 
Q 1428 -91 1123 -41 
Q 819 9 494 109 
L 494 744 
Q 775 591 1075 516 
Q 1375 441 1709 441 
Q 2250 441 2565 725 
Q 2881 1009 2881 1497 
Q 2881 1984 2565 2268 
Q 2250 2553 1709 2553 
Q 1456 2553 1204 2497 
Q 953 2441 691 2322 
L 691 4666 
z
" transform="scale(0.015625)"/>
       </defs>
       <use xlink:href="#DejaVuSans-2212"/>
       <use xlink:href="#DejaVuSans-35" x="83.789062"/>
      </g>
     </g>
    </g>
    <g id="ytick_2">
     <g id="line2d_8">
      <g>
       <use xlink:href="#ma5dd42268c" x="57.6" y="54.928511" style="stroke: #000000; stroke-width: 0.8"/>
      </g>
     </g>
     <g id="text_2">
      <!-- 0 -->
      <g transform="translate(44.2375 58.72773)scale(0.1 -0.1)">
       <defs>
        <path id="DejaVuSans-30" d="M 2034 4250 
Q 1547 4250 1301 3770 
Q 1056 3291 1056 2328 
Q 1056 1369 1301 889 
Q 1547 409 2034 409 
Q 2525 409 2770 889 
Q 3016 1369 3016 2328 
Q 3016 3291 2770 3770 
Q 2525 4250 2034 4250 
z
M 2034 4750 
Q 2819 4750 3233 4129 
Q 3647 3509 3647 2328 
Q 3647 1150 3233 529 
Q 2819 -91 2034 -91 
Q 1250 -91 836 529 
Q 422 1150 422 2328 
Q 422 3509 836 4129 
Q 1250 4750 2034 4750 
z
" transform="scale(0.015625)"/>
       </defs>
       <use xlink:href="#DejaVuSans-30"/>
      </g>
     </g>
    </g>
    <g id="text_3">
     <!-- flow rate (normalized) -->
     <g transform="translate(29.778125 119.729877)rotate(-90)scale(0.1 -0.1)">
      <defs>
       <path id="DejaVuSans-66" d="M 2375 4863 
L 2375 4384 
L 1825 4384 
Q 1516 4384 1395 4259 
Q 1275 4134 1275 3809 
L 1275 3500 
L 2222 3500 
L 2222 3053 
L 1275 3053 
L 1275 0 
L 697 0 
L 697 3053 
L 147 3053 
L 147 3500 
L 697 3500 
L 697 3744 
Q 697 4328 969 4595 
Q 1241 4863 1831 4863 
L 2375 4863 
z
" transform="scale(0.015625)"/>
       <path id="DejaVuSans-6c" d="M 603 4863 
L 1178 4863 
L 1178 0 
L 603 0 
L 603 4863 
z
" transform="scale(0.015625)"/>
       <path id="DejaVuSans-6f" d="M 1959 3097 
Q 1497 3097 1228 2736 
Q 959 2375 959 1747 
Q 959 1119 1226 758 
Q 1494 397 1959 397 
Q 2419 397 2687 759 
Q 2956 1122 2956 1747 
Q 2956 2369 2687 2733 
Q 2419 3097 1959 3097 
z
M 1959 3584 
Q 2709 3584 3137 3096 
Q 3566 2609 3566 1747 
Q 3566 888 3137 398 
Q 2709 -91 1959 -91 
Q 1206 -91 779 398 
Q 353 888 353 1747 
Q 353 2609 779 3096 
Q 1206 3584 1959 3584 
z
" transform="scale(0.015625)"/>
       <path id="DejaVuSans-77" d="M 269 3500 
L 844 3500 
L 1563 769 
L 2278 3500 
L 2956 3500 
L 3675 769 
L 4391 3500 
L 4966 3500 
L 4050 0 
L 3372 0 
L 2619 2869 
L 1863 0 
L 1184 0 
L 269 3500 
z
" transform="scale(0.015625)"/>
       <path id="DejaVuSans-20" transform="scale(0.015625)"/>
       <path id="DejaVuSans-72" d="M 2631 2963 
Q 2534 3019 2420 3045 
Q 2306 3072 2169 3072 
Q 1681 3072 1420 2755 
Q 1159 2438 1159 1844 
L 1159 0 
L 581 0 
L 581 3500 
L 1159 3500 
L 1159 2956 
Q 1341 3275 1631 3429 
Q 1922 3584 2338 3584 
Q 2397 3584 2469 3576 
Q 2541 3569 2628 3553 
L 2631 2963 
z
" transform="scale(0.015625)"/>
       <path id="DejaVuSans-61" d="M 2194 1759 
Q 1497 1759 1228 1600 
Q 959 1441 959 1056 
Q 959 750 1161 570 
Q 1363 391 1709 391 
Q 2188 391 2477 730 
Q 2766 1069 2766 1631 
L 2766 1759 
L 2194 1759 
z
M 3341 1997 
L 3341 0 
L 2766 0 
L 2766 531 
Q 2569 213 2275 61 
Q 1981 -91 1556 -91 
Q 1019 -91 701 211 
Q 384 513 384 1019 
Q 384 1609 779 1909 
Q 1175 2209 1959 2209 
L 2766 2209 
L 2766 2266 
Q 2766 2663 2505 2880 
Q 2244 3097 1772 3097 
Q 1472 3097 1187 3025 
Q 903 2953 641 2809 
L 641 3341 
Q 956 3463 1253 3523 
Q 1550 3584 1831 3584 
Q 2591 3584 2966 3190 
Q 3341 2797 3341 1997 
z
" transform="scale(0.015625)"/>
       <path id="DejaVuSans-74" d="M 1172 4494 
L 1172 3500 
L 2356 3500 
L 2356 3053 
L 1172 3053 
L 1172 1153 
Q 1172 725 1289 603 
Q 1406 481 1766 481 
L 2356 481 
L 2356 0 
L 1766 0 
Q 1100 0 847 248 
Q 594 497 594 1153 
L 594 3053 
L 172 3053 
L 172 3500 
L 594 3500 
L 594 4494 
L 1172 4494 
z
" transform="scale(0.015625)"/>
       <path id="DejaVuSans-65" d="M 3597 1894 
L 3597 1613 
L 953 1613 
Q 991 1019 1311 708 
Q 1631 397 2203 397 
Q 2534 397 2845 478 
Q 3156 559 3463 722 
L 3463 178 
Q 3153 47 2828 -22 
Q 2503 -91 2169 -91 
Q 1331 -91 842 396 
Q 353 884 353 1716 
Q 353 2575 817 3079 
Q 1281 3584 2069 3584 
Q 2775 3584 3186 3129 
Q 3597 2675 3597 1894 
z
M 3022 2063 
Q 3016 2534 2758 2815 
Q 2500 3097 2075 3097 
Q 1594 3097 1305 2825 
Q 1016 2553 972 2059 
L 3022 2063 
z
" transform="scale(0.015625)"/>
       <path id="DejaVuSans-28" d="M 1984 4856 
Q 1566 4138 1362 3434 
Q 1159 2731 1159 2009 
Q 1159 1288 1364 580 
Q 1569 -128 1984 -844 
L 1484 -844 
Q 1016 -109 783 600 
Q 550 1309 550 2009 
Q 550 2706 781 3412 
Q 1013 4119 1484 4856 
L 1984 4856 
z
" transform="scale(0.015625)"/>
       <path id="DejaVuSans-6e" d="M 3513 2113 
L 3513 0 
L 2938 0 
L 2938 2094 
Q 2938 2591 2744 2837 
Q 2550 3084 2163 3084 
Q 1697 3084 1428 2787 
Q 1159 2491 1159 1978 
L 1159 0 
L 581 0 
L 581 3500 
L 1159 3500 
L 1159 2956 
Q 1366 3272 1645 3428 
Q 1925 3584 2291 3584 
Q 2894 3584 3203 3211 
Q 3513 2838 3513 2113 
z
" transform="scale(0.015625)"/>
       <path id="DejaVuSans-6d" d="M 3328 2828 
Q 3544 3216 3844 3400 
Q 4144 3584 4550 3584 
Q 5097 3584 5394 3201 
Q 5691 2819 5691 2113 
L 5691 0 
L 5113 0 
L 5113 2094 
Q 5113 2597 4934 2840 
Q 4756 3084 4391 3084 
Q 3944 3084 3684 2787 
Q 3425 2491 3425 1978 
L 3425 0 
L 2847 0 
L 2847 2094 
Q 2847 2600 2669 2842 
Q 2491 3084 2119 3084 
Q 1678 3084 1418 2786 
Q 1159 2488 1159 1978 
L 1159 0 
L 581 0 
L 581 3500 
L 1159 3500 
L 1159 2956 
Q 1356 3278 1631 3431 
Q 1906 3584 2284 3584 
Q 2666 3584 2933 3390 
Q 3200 3197 3328 2828 
z
" transform="scale(0.015625)"/>
       <path id="DejaVuSans-69" d="M 603 3500 
L 1178 3500 
L 1178 0 
L 603 0 
L 603 3500 
z
M 603 4863 
L 1178 4863 
L 1178 4134 
L 603 4134 
L 603 4863 
z
" transform="scale(0.015625)"/>
       <path id="DejaVuSans-7a" d="M 353 3500 
L 3084 3500 
L 3084 2975 
L 922 459 
L 3084 459 
L 3084 0 
L 275 0 
L 275 525 
L 2438 3041 
L 353 3041 
L 353 3500 
z
" transform="scale(0.015625)"/>
       <path id="DejaVuSans-64" d="M 2906 2969 
L 2906 4863 
L 3481 4863 
L 3481 0 
L 2906 0 
L 2906 525 
Q 2725 213 2448 61 
Q 2172 -91 1784 -91 
Q 1150 -91 751 415 
Q 353 922 353 1747 
Q 353 2572 751 3078 
Q 1150 3584 1784 3584 
Q 2172 3584 2448 3432 
Q 2725 3281 2906 2969 
z
M 947 1747 
Q 947 1113 1208 752 
Q 1469 391 1925 391 
Q 2381 391 2643 752 
Q 2906 1113 2906 1747 
Q 2906 2381 2643 2742 
Q 2381 3103 1925 3103 
Q 1469 3103 1208 2742 
Q 947 2381 947 1747 
z
" transform="scale(0.015625)"/>
       <path id="DejaVuSans-29" d="M 513 4856 
L 1013 4856 
Q 1481 4119 1714 3412 
Q 1947 2706 1947 2009 
Q 1947 1309 1714 600 
Q 1481 -109 1013 -844 
L 513 -844 
Q 928 -128 1133 580 
Q 1338 1288 1338 2009 
Q 1338 2731 1133 3434 
Q 928 4138 513 4856 
z
" transform="scale(0.015625)"/>
      </defs>
      <use xlink:href="#DejaVuSans-66"/>
      <use xlink:href="#DejaVuSans-6c" x="35.205078"/>
      <use xlink:href="#DejaVuSans-6f" x="62.988281"/>
      <use xlink:href="#DejaVuSans-77" x="124.169922"/>
      <use xlink:href="#DejaVuSans-20" x="205.957031"/>
      <use xlink:href="#DejaVuSans-72" x="237.744141"/>
      <use xlink:href="#DejaVuSans-61" x="278.857422"/>
      <use xlink:href="#DejaVuSans-74" x="340.136719"/>
      <use xlink:href="#DejaVuSans-65" x="379.345703"/>
      <use xlink:href="#DejaVuSans-20" x="440.869141"/>
      <use xlink:href="#DejaVuSans-28" x="472.65625"/>
      <use xlink:href="#DejaVuSans-6e" x="511.669922"/>
      <use xlink:href="#DejaVuSans-6f" x="575.048828"/>
      <use xlink:href="#DejaVuSans-72" x="636.230469"/>
      <use xlink:href="#DejaVuSans-6d" x="675.59375"/>
      <use xlink:href="#DejaVuSans-61" x="773.005859"/>
      <use xlink:href="#DejaVuSans-6c" x="834.285156"/>
      <use xlink:href="#DejaVuSans-69" x="862.068359"/>
      <use xlink:href="#DejaVuSans-7a" x="889.851562"/>
      <use xlink:href="#DejaVuSans-65" x="942.341797"/>
      <use xlink:href="#DejaVuSans-64" x="1003.865234"/>
      <use xlink:href="#DejaVuSans-29" x="1067.341797"/>
     </g>
    </g>
   </g>
   <g id="line2d_9">
    <path d="M 73.832727 57.164298 
L 77.079273 49.276409 
L 80.325818 52.94489 
L 83.572364 54.008629 
L 86.818909 54.469719 
L 90.065455 54.685957 
L 93.312 54.796896 
L 96.558545 54.853293 
L 99.805091 54.88412 
L 103.051636 54.904688 
L 106.298182 54.914791 
L 109.544727 54.920691 
L 112.791273 54.923055 
L 116.037818 54.925132 
L 119.284364 54.926232 
L 122.530909 54.900373 
L 125.777455 50.269063 
L 129.024 50.268879 
L 132.270545 50.268734 
L 135.517091 50.268657 
L 138.763636 50.268611 
L 142.010182 50.268595 
L 145.256727 50.268587 
L 148.503273 50.268596 
L 151.749818 50.268608 
L 154.996364 50.268609 
L 158.242909 50.268622 
L 161.489455 50.268627 
L 164.736 50.268618 
L 167.982545 50.268608 
L 171.229091 50.674386 
L 174.475636 53.848022 
L 177.722182 53.872467 
L 180.968727 53.884771 
L 184.215273 53.928596 
L 187.461818 53.93286 
L 190.708364 53.961 
L 193.954909 54.065826 
L 197.201455 54.196056 
L 200.448 54.337812 
L 203.694545 54.497893 
L 206.941091 54.6081 
L 210.187636 54.711407 
L 213.434182 54.776446 
L 216.680727 54.828969 
L 219.927273 54.864602 
L 223.173818 54.888039 
L 226.420364 54.903723 
L 229.666909 54.914025 
L 232.913455 54.920537 
L 236.16 54.924824 
L 239.406545 54.925852 
L 242.653091 54.92632 
L 245.899636 54.926787 
L 249.146182 54.927183 
L 252.392727 54.927494 
L 255.639273 54.927805 
L 258.885818 54.928005 
L 262.132364 54.928165 
L 265.378909 54.928306 
L 268.625455 54.935851 
L 271.872 57.771181 
L 275.118545 60.388505 
L 278.365091 62.801987 
L 281.611636 64.206853 
L 284.858182 64.682658 
L 288.104727 64.63339 
L 291.351273 64.335494 
L 294.597818 63.93958 
L 297.844364 63.508092 
L 301.090909 63.080585 
L 304.337455 62.666503 
L 307.584 62.275972 
L 310.830545 61.90187 
L 314.077091 61.547876 
L 317.323636 61.220751 
L 320.570182 60.914128 
L 323.816727 60.627188 
L 327.063273 60.359041 
L 330.309818 60.107317 
L 333.556364 59.871322 
L 336.802909 59.650306 
L 340.049455 59.442449 
L 343.296 59.24819 
L 346.542545 59.063727 
L 349.789091 58.890188 
L 353.035636 58.72636 
L 356.282182 58.572231 
L 359.528727 58.425765 
L 362.775273 58.287991 
L 366.021818 58.15703 
L 369.268364 58.032034 
L 372.514909 57.91381 
L 375.761455 57.800922 
L 379.008 57.694013 
L 382.254545 57.59229 
L 385.501091 57.494698 
L 388.747636 57.40208 
L 391.994182 57.314438 
L 395.240727 57.22993 
L 398.487273 57.149062 
" clip-path="url(#pa52ea70f21)" style="fill: none; stroke: #1f77b4; stroke-width: 1.5; stroke-linecap: square"/>
   </g>
   <g id="line2d_10">
    <path d="M 73.832727 59.052931 
L 77.079273 43.557517 
L 80.325818 50.912758 
L 83.572364 53.067979 
L 86.818909 53.99942 
L 90.065455 54.43771 
L 93.312 54.662397 
L 96.558545 54.776536 
L 99.805091 54.838875 
L 103.051636 54.880413 
L 106.298182 54.900839 
L 109.544727 54.912749 
L 112.791273 54.917525 
L 116.037818 54.921708 
L 119.284364 54.923923 
L 122.530909 54.799845 
L 125.777455 50.276667 
L 129.024 50.276632 
L 132.270545 50.276604 
L 135.517091 50.276589 
L 138.763636 50.27658 
L 142.010182 50.276577 
L 145.256727 50.276576 
L 148.503273 50.276577 
L 151.749818 50.27658 
L 154.996364 50.27658 
L 158.242909 50.276583 
L 161.489455 50.276584 
L 164.736 50.276582 
L 167.982545 50.27658 
L 171.229091 51.732762 
L 174.475636 54.732071 
L 177.722182 54.736588 
L 180.968727 54.738849 
L 184.215273 54.747019 
L 187.461818 54.747689 
L 190.708364 54.752908 
L 193.954909 54.772002 
L 197.201455 54.79535 
L 200.448 54.821379 
L 203.694545 54.84997 
L 206.941091 54.870243 
L 210.187636 54.888899 
L 213.434182 54.900797 
L 216.680727 54.910347 
L 219.927273 54.916838 
L 223.173818 54.921113 
L 226.420364 54.923975 
L 229.666909 54.925857 
L 232.913455 54.927048 
L 236.16 54.927833 
L 239.406545 54.928022 
L 242.653091 54.928109 
L 245.899636 54.928195 
L 249.146182 54.928267 
L 252.392727 54.928324 
L 255.639273 54.928381 
L 258.885818 54.928418 
L 262.132364 54.928447 
L 265.378909 54.928473 
L 268.625455 54.943637 
L 271.872 60.882926 
L 275.118545 67.163983 
L 278.365091 74.499689 
L 281.611636 80.572663 
L 284.858182 84.073837 
L 288.104727 85.267862 
L 291.351273 84.845004 
L 294.597818 83.505938 
L 297.844364 81.687098 
L 301.090909 79.768033 
L 304.337455 77.845698 
L 307.584 76.030546 
L 310.830545 74.337127 
L 314.077091 72.7995 
L 317.323636 71.420529 
L 320.570182 70.179417 
L 323.816727 69.06639 
L 327.063273 68.067379 
L 330.309818 67.168275 
L 333.556364 66.361485 
L 336.802909 65.635622 
L 340.049455 64.972404 
L 343.296 64.377121 
L 346.542545 63.827275 
L 349.789091 63.328943 
L 353.035636 62.868749 
L 356.282182 62.448545 
L 359.528727 62.055259 
L 362.775273 61.695494 
L 366.021818 61.360703 
L 369.268364 61.047026 
L 372.514909 60.758111 
L 375.761455 60.484682 
L 379.008 60.230888 
L 382.254545 59.993253 
L 385.501091 59.767146 
L 388.747636 59.556271 
L 391.994182 59.360629 
L 395.240727 59.174357 
L 398.487273 58.999068 
" clip-path="url(#pa52ea70f21)" style="fill: none; stroke: #ff7f0e; stroke-width: 1.5; stroke-linecap: square"/>
   </g>
   <g id="line2d_11">
    <path d="M 73.832727 55.179296 
L 77.079273 54.300709 
L 80.325818 54.708685 
L 83.572364 54.826523 
L 86.818909 54.877681 
L 90.065455 54.901632 
L 93.312 54.913923 
L 96.558545 54.920173 
L 99.805091 54.923589 
L 103.051636 54.92587 
L 106.298182 54.926989 
L 109.544727 54.927644 
L 112.791273 54.927906 
L 116.037818 54.928136 
L 119.284364 54.928258 
L 122.530909 54.954338 
L 125.777455 50.262247 
L 129.024 50.261943 
L 132.270545 50.261705 
L 135.517091 50.261578 
L 138.763636 50.261502 
L 142.010182 50.261474 
L 145.256727 50.26146 
L 148.503273 50.261474 
L 151.749818 50.261493 
L 154.996364 50.261494 
L 158.242909 50.261514 
L 161.489455 50.261522 
L 164.736 50.261507 
L 167.982545 50.261489 
L 171.229091 50.349351 
L 174.475636 53.06185 
L 177.722182 53.102635 
L 180.968727 53.123434 
L 184.215273 53.195078 
L 187.461818 53.204558 
L 190.708364 53.251144 
L 193.954909 53.431393 
L 197.201455 53.663193 
L 200.448 53.902658 
L 203.694545 54.189814 
L 206.941091 54.375262 
L 210.187636 54.556304 
L 213.434182 54.667127 
L 216.680727 54.75786 
L 219.927273 54.819163 
L 223.173818 54.85938 
L 226.420364 54.886252 
L 229.666909 54.903877 
L 232.913455 54.91499 
L 236.16 54.922283 
L 239.406545 54.924018 
L 242.653091 54.924804 
L 245.899636 54.92559 
L 249.146182 54.926257 
L 252.392727 54.926786 
L 255.639273 54.927315 
L 258.885818 54.927655 
L 262.132364 54.927927 
L 265.378909 54.928165 
L 268.625455 54.929316 
L 271.872 55.239901 
L 275.118545 55.515614 
L 278.365091 55.754778 
L 281.611636 55.882528 
L 284.858182 55.919019 
L 288.104727 55.908223 
L 291.351273 55.876694 
L 294.597818 55.837327 
L 297.844364 55.796063 
L 301.090909 55.75549 
L 304.337455 55.716489 
L 307.584 55.679895 
L 310.830545 55.644834 
L 314.077091 55.611507 
L 317.323636 55.580701 
L 320.570182 55.551726 
L 323.816727 55.5245 
L 327.063273 55.498946 
L 330.309818 55.474838 
L 333.556364 55.452117 
L 336.802909 55.430722 
L 340.049455 55.410502 
L 343.296 55.391493 
L 346.542545 55.373351 
L 349.789091 55.356181 
L 353.035636 55.339896 
L 356.282182 55.324491 
L 359.528727 55.309793 
L 362.775273 55.295891 
L 366.021818 55.282612 
L 369.268364 55.269881 
L 372.514909 55.25777 
L 375.761455 55.246173 
L 379.008 55.235137 
L 382.254545 55.224593 
L 385.501091 55.214451 
L 388.747636 55.204782 
L 391.994182 55.195588 
L 395.240727 55.186688 
L 398.487273 55.178132 
" clip-path="url(#pa52ea70f21)" style="fill: none; stroke: #2ca02c; stroke-width: 1.5; stroke-linecap: square"/>
   </g>
   <g id="patch_3">
    <path d="M 57.6 87.353379 
L 57.6 41.472 
" style="fill: none; stroke: #000000; stroke-width: 0.8; stroke-linejoin: miter; stroke-linecap: square"/>
   </g>
   <g id="patch_4">
    <path d="M 414.72 87.353379 
L 414.72 41.472 
" style="fill: none; stroke: #000000; stroke-width: 0.8; stroke-linejoin: miter; stroke-linecap: square"/>
   </g>
   <g id="patch_5">
    <path d="M 57.6 87.353379 
L 414.72 87.353379 
" style="fill: none; stroke: #000000; stroke-width: 0.8; stroke-linejoin: miter; stroke-linecap: square"/>
   </g>
   <g id="patch_6">
    <path d="M 57.6 41.472 
L 414.72 41.472 
" style="fill: none; stroke: #000000; stroke-width: 0.8; stroke-linejoin: miter; stroke-linecap: square"/>
   </g>
   <g id="text_4">
    <!-- velocity vs time (container 1)   -->
    <g transform="translate(144.106875 35.472)scale(0.12 -0.12)">
     <defs>
      <path id="DejaVuSans-76" d="M 191 3500 
L 800 3500 
L 1894 563 
L 2988 3500 
L 3597 3500 
L 2284 0 
L 1503 0 
L 191 3500 
z
" transform="scale(0.015625)"/>
      <path id="DejaVuSans-63" d="M 3122 3366 
L 3122 2828 
Q 2878 2963 2633 3030 
Q 2388 3097 2138 3097 
Q 1578 3097 1268 2742 
Q 959 2388 959 1747 
Q 959 1106 1268 751 
Q 1578 397 2138 397 
Q 2388 397 2633 464 
Q 2878 531 3122 666 
L 3122 134 
Q 2881 22 2623 -34 
Q 2366 -91 2075 -91 
Q 1284 -91 818 406 
Q 353 903 353 1747 
Q 353 2603 823 3093 
Q 1294 3584 2113 3584 
Q 2378 3584 2631 3529 
Q 2884 3475 3122 3366 
z
" transform="scale(0.015625)"/>
      <path id="DejaVuSans-79" d="M 2059 -325 
Q 1816 -950 1584 -1140 
Q 1353 -1331 966 -1331 
L 506 -1331 
L 506 -850 
L 844 -850 
Q 1081 -850 1212 -737 
Q 1344 -625 1503 -206 
L 1606 56 
L 191 3500 
L 800 3500 
L 1894 763 
L 2988 3500 
L 3597 3500 
L 2059 -325 
z
" transform="scale(0.015625)"/>
      <path id="DejaVuSans-73" d="M 2834 3397 
L 2834 2853 
Q 2591 2978 2328 3040 
Q 2066 3103 1784 3103 
Q 1356 3103 1142 2972 
Q 928 2841 928 2578 
Q 928 2378 1081 2264 
Q 1234 2150 1697 2047 
L 1894 2003 
Q 2506 1872 2764 1633 
Q 3022 1394 3022 966 
Q 3022 478 2636 193 
Q 2250 -91 1575 -91 
Q 1294 -91 989 -36 
Q 684 19 347 128 
L 347 722 
Q 666 556 975 473 
Q 1284 391 1588 391 
Q 1994 391 2212 530 
Q 2431 669 2431 922 
Q 2431 1156 2273 1281 
Q 2116 1406 1581 1522 
L 1381 1569 
Q 847 1681 609 1914 
Q 372 2147 372 2553 
Q 372 3047 722 3315 
Q 1072 3584 1716 3584 
Q 2034 3584 2315 3537 
Q 2597 3491 2834 3397 
z
" transform="scale(0.015625)"/>
      <path id="DejaVuSans-31" d="M 794 531 
L 1825 531 
L 1825 4091 
L 703 3866 
L 703 4441 
L 1819 4666 
L 2450 4666 
L 2450 531 
L 3481 531 
L 3481 0 
L 794 0 
L 794 531 
z
" transform="scale(0.015625)"/>
     </defs>
     <use xlink:href="#DejaVuSans-76"/>
     <use xlink:href="#DejaVuSans-65" x="59.179688"/>
     <use xlink:href="#DejaVuSans-6c" x="120.703125"/>
     <use xlink:href="#DejaVuSans-6f" x="148.486328"/>
     <use xlink:href="#DejaVuSans-63" x="209.667969"/>
     <use xlink:href="#DejaVuSans-69" x="264.648438"/>
     <use xlink:href="#DejaVuSans-74" x="292.431641"/>
     <use xlink:href="#DejaVuSans-79" x="331.640625"/>
     <use xlink:href="#DejaVuSans-20" x="390.820312"/>
     <use xlink:href="#DejaVuSans-76" x="422.607422"/>
     <use xlink:href="#DejaVuSans-73" x="481.787109"/>
     <use xlink:href="#DejaVuSans-20" x="533.886719"/>
     <use xlink:href="#DejaVuSans-74" x="565.673828"/>
     <use xlink:href="#DejaVuSans-69" x="604.882812"/>
     <use xlink:href="#DejaVuSans-6d" x="632.666016"/>
     <use xlink:href="#DejaVuSans-65" x="730.078125"/>
     <use xlink:href="#DejaVuSans-20" x="791.601562"/>
     <use xlink:href="#DejaVuSans-28" x="823.388672"/>
     <use xlink:href="#DejaVuSans-63" x="862.402344"/>
     <use xlink:href="#DejaVuSans-6f" x="917.382812"/>
     <use xlink:href="#DejaVuSans-6e" x="978.564453"/>
     <use xlink:href="#DejaVuSans-74" x="1041.943359"/>
     <use xlink:href="#DejaVuSans-61" x="1081.152344"/>
     <use xlink:href="#DejaVuSans-69" x="1142.431641"/>
     <use xlink:href="#DejaVuSans-6e" x="1170.214844"/>
     <use xlink:href="#DejaVuSans-65" x="1233.59375"/>
     <use xlink:href="#DejaVuSans-72" x="1295.117188"/>
     <use xlink:href="#DejaVuSans-20" x="1336.230469"/>
     <use xlink:href="#DejaVuSans-31" x="1368.017578"/>
     <use xlink:href="#DejaVuSans-29" x="1431.640625"/>
     <use xlink:href="#DejaVuSans-20" x="1470.654297"/>
     <use xlink:href="#DejaVuSans-20" x="1502.441406"/>
    </g>
   </g>
   <g id="legend_1">
    <g id="patch_7">
     <path d="M 64.6 93.506375 
L 139.240625 93.506375 
Q 141.240625 93.506375 141.240625 91.506375 
L 141.240625 48.472 
Q 141.240625 46.472 139.240625 46.472 
L 64.6 46.472 
Q 62.6 46.472 62.6 48.472 
L 62.6 91.506375 
Q 62.6 93.506375 64.6 93.506375 
z
" style="fill: #ffffff; opacity: 0.8; stroke: #cccccc; stroke-linejoin: miter"/>
    </g>
    <g id="line2d_12">
     <path d="M 66.6 54.570437 
L 76.6 54.570437 
L 86.6 54.570437 
" style="fill: none; stroke: #1f77b4; stroke-width: 1.5; stroke-linecap: square"/>
    </g>
    <g id="text_5">
     <!-- mid flow -->
     <g transform="translate(94.6 58.070437)scale(0.1 -0.1)">
      <use xlink:href="#DejaVuSans-6d"/>
      <use xlink:href="#DejaVuSans-69" x="97.412109"/>
      <use xlink:href="#DejaVuSans-64" x="125.195312"/>
      <use xlink:href="#DejaVuSans-20" x="188.671875"/>
      <use xlink:href="#DejaVuSans-66" x="220.458984"/>
      <use xlink:href="#DejaVuSans-6c" x="255.664062"/>
      <use xlink:href="#DejaVuSans-6f" x="283.447266"/>
      <use xlink:href="#DejaVuSans-77" x="344.628906"/>
     </g>
    </g>
    <g id="line2d_13">
     <path d="M 66.6 69.248562 
L 76.6 69.248562 
L 86.6 69.248562 
" style="fill: none; stroke: #ff7f0e; stroke-width: 1.5; stroke-linecap: square"/>
    </g>
    <g id="text_6">
     <!-- v0 flow -->
     <g transform="translate(94.6 72.748562)scale(0.1 -0.1)">
      <use xlink:href="#DejaVuSans-76"/>
      <use xlink:href="#DejaVuSans-30" x="59.179688"/>
      <use xlink:href="#DejaVuSans-20" x="122.802734"/>
      <use xlink:href="#DejaVuSans-66" x="154.589844"/>
      <use xlink:href="#DejaVuSans-6c" x="189.794922"/>
      <use xlink:href="#DejaVuSans-6f" x="217.578125"/>
      <use xlink:href="#DejaVuSans-77" x="278.759766"/>
     </g>
    </g>
    <g id="line2d_14">
     <path d="M 66.6 83.926687 
L 76.6 83.926687 
L 86.6 83.926687 
" style="fill: none; stroke: #2ca02c; stroke-width: 1.5; stroke-linecap: square"/>
    </g>
    <g id="text_7">
     <!-- vN flow -->
     <g transform="translate(94.6 87.426687)scale(0.1 -0.1)">
      <defs>
       <path id="DejaVuSans-4e" d="M 628 4666 
L 1478 4666 
L 3547 763 
L 3547 4666 
L 4159 4666 
L 4159 0 
L 3309 0 
L 1241 3903 
L 1241 0 
L 628 0 
L 628 4666 
z
" transform="scale(0.015625)"/>
      </defs>
      <use xlink:href="#DejaVuSans-76"/>
      <use xlink:href="#DejaVuSans-4e" x="59.179688"/>
      <use xlink:href="#DejaVuSans-20" x="133.984375"/>
      <use xlink:href="#DejaVuSans-66" x="165.771484"/>
      <use xlink:href="#DejaVuSans-6c" x="200.976562"/>
      <use xlink:href="#DejaVuSans-6f" x="228.759766"/>
      <use xlink:href="#DejaVuSans-77" x="289.941406"/>
     </g>
    </g>
   </g>
  </g>
  <g id="axes_2">
   <g id="patch_8">
    <path d="M 57.6 142.411034 
L 414.72 142.411034 
L 414.72 96.529655 
L 57.6 96.529655 
z
" style="fill: #ffffff"/>
   </g>
   <g id="matplotlib.axis_3">
    <g id="xtick_7">
     <g id="line2d_15">
      <g>
       <use xlink:href="#m958883c32e" x="73.832727" y="142.411034" style="stroke: #000000; stroke-width: 0.8"/>
      </g>
     </g>
    </g>
    <g id="xtick_8">
     <g id="line2d_16">
      <g>
       <use xlink:href="#m958883c32e" x="138.763636" y="142.411034" style="stroke: #000000; stroke-width: 0.8"/>
      </g>
     </g>
    </g>
    <g id="xtick_9">
     <g id="line2d_17">
      <g>
       <use xlink:href="#m958883c32e" x="203.694545" y="142.411034" style="stroke: #000000; stroke-width: 0.8"/>
      </g>
     </g>
    </g>
    <g id="xtick_10">
     <g id="line2d_18">
      <g>
       <use xlink:href="#m958883c32e" x="268.625455" y="142.411034" style="stroke: #000000; stroke-width: 0.8"/>
      </g>
     </g>
    </g>
    <g id="xtick_11">
     <g id="line2d_19">
      <g>
       <use xlink:href="#m958883c32e" x="333.556364" y="142.411034" style="stroke: #000000; stroke-width: 0.8"/>
      </g>
     </g>
    </g>
    <g id="xtick_12">
     <g id="line2d_20">
      <g>
       <use xlink:href="#m958883c32e" x="398.487273" y="142.411034" style="stroke: #000000; stroke-width: 0.8"/>
      </g>
     </g>
    </g>
   </g>
   <g id="matplotlib.axis_4">
    <g id="ytick_3">
     <g id="line2d_21">
      <g>
       <use xlink:href="#ma5dd42268c" x="57.6" y="140.749016" style="stroke: #000000; stroke-width: 0.8"/>
      </g>
     </g>
     <g id="text_8">
      <!-- 0 -->
      <g transform="translate(44.2375 144.548235)scale(0.1 -0.1)">
       <use xlink:href="#DejaVuSans-30"/>
      </g>
     </g>
    </g>
    <g id="ytick_4">
     <g id="line2d_22">
      <g>
       <use xlink:href="#ma5dd42268c" x="57.6" y="98.771657" style="stroke: #000000; stroke-width: 0.8"/>
      </g>
     </g>
     <g id="text_9">
      <!-- 1 -->
      <g transform="translate(44.2375 102.570875)scale(0.1 -0.1)">
       <use xlink:href="#DejaVuSans-31"/>
      </g>
     </g>
    </g>
   </g>
   <g id="line2d_23">
    <path d="M 73.832727 140.325463 
L 77.079273 123.987963 
L 80.325818 114.059035 
L 83.572364 108.051047 
L 86.818909 104.396065 
L 90.065455 102.185925 
L 93.312 100.842132 
L 96.558545 100.029196 
L 99.805091 99.527921 
L 103.051636 99.232772 
L 106.298182 99.051696 
L 109.544727 98.941051 
L 112.791273 98.875295 
L 116.037818 98.834454 
L 119.284364 98.811314 
L 122.530909 98.792433 
L 125.777455 98.615187 
L 129.024 98.615181 
L 132.270545 98.615177 
L 135.517091 98.615175 
L 138.763636 98.615173 
L 142.010182 98.615173 
L 145.256727 98.615172 
L 148.503273 98.615173 
L 151.749818 98.615173 
L 154.996364 98.615173 
L 158.242909 98.615173 
L 161.489455 98.615174 
L 164.736 98.615173 
L 167.982545 98.615173 
L 171.229091 98.637678 
L 174.475636 113.601625 
L 177.722182 122.620818 
L 180.968727 128.090653 
L 184.215273 131.413461 
L 187.461818 133.419109 
L 190.708364 134.64155 
L 193.954909 135.383822 
L 197.201455 135.835219 
L 200.448 136.114533 
L 203.694545 136.28252 
L 206.941091 136.387061 
L 210.187636 136.449818 
L 213.434182 136.489984 
L 216.680727 136.513745 
L 219.927273 136.52846 
L 223.173818 136.537403 
L 226.420364 136.542989 
L 229.666909 136.546174 
L 232.913455 136.548292 
L 236.16 136.549694 
L 239.406545 136.550111 
L 242.653091 136.550439 
L 245.899636 136.550766 
L 249.146182 136.550983 
L 252.392727 136.551072 
L 255.639273 136.551162 
L 258.885818 136.551207 
L 262.132364 136.551235 
L 265.378909 136.551254 
L 268.625455 136.553448 
L 271.872 138.034193 
L 275.118545 138.927161 
L 278.365091 139.465428 
L 281.611636 139.789113 
L 284.858182 139.983477 
L 288.104727 140.102138 
L 291.351273 140.175555 
L 294.597818 140.222197 
L 297.844364 140.251984 
L 301.090909 140.272195 
L 304.337455 140.285634 
L 307.584 140.294733 
L 310.830545 140.301065 
L 314.077091 140.305695 
L 317.323636 140.309084 
L 320.570182 140.311635 
L 323.816727 140.313631 
L 327.063273 140.315213 
L 330.309818 140.316512 
L 333.556364 140.317582 
L 336.802909 140.318489 
L 340.049455 140.319291 
L 343.296 140.319969 
L 346.542545 140.320588 
L 349.789091 140.32113 
L 353.035636 140.321625 
L 356.282182 140.322067 
L 359.528727 140.322478 
L 362.775273 140.322847 
L 366.021818 140.323188 
L 369.268364 140.323506 
L 372.514909 140.323795 
L 375.761455 140.324068 
L 379.008 140.32432 
L 382.254545 140.324553 
L 385.501091 140.324775 
L 388.747636 140.32498 
L 391.994182 140.325169 
L 395.240727 140.325349 
L 398.487273 140.325517 
" clip-path="url(#pde907d44d4)" style="fill: none; stroke: #1f77b4; stroke-width: 1.5; stroke-linecap: square"/>
   </g>
   <g id="line2d_24">
    <path d="M 73.832727 140.266152 
L 77.079273 124.145336 
L 80.325818 114.114487 
L 83.572364 108.076747 
L 86.818909 104.408893 
L 90.065455 102.192703 
L 93.312 100.845808 
L 96.558545 100.031297 
L 99.805091 99.52916 
L 103.051636 99.233437 
L 106.298182 99.052079 
L 109.544727 98.941269 
L 112.791273 98.875448 
L 116.037818 98.834548 
L 119.284364 98.811378 
L 122.530909 98.793876 
L 125.777455 98.695358 
L 129.024 98.695354 
L 132.270545 98.695351 
L 135.517091 98.695349 
L 138.763636 98.695348 
L 142.010182 98.695348 
L 145.256727 98.695348 
L 148.503273 98.695348 
L 151.749818 98.695348 
L 154.996364 98.695348 
L 158.242909 98.695348 
L 161.489455 98.695348 
L 164.736 98.695348 
L 167.982545 98.695348 
L 171.229091 98.701217 
L 174.475636 113.61093 
L 177.722182 122.62991 
L 180.968727 128.099638 
L 184.215273 131.422063 
L 187.461818 133.427678 
L 190.708364 134.649873 
L 193.954909 135.391242 
L 197.201455 135.841527 
L 200.448 136.119613 
L 203.694545 136.286235 
L 206.941091 136.389821 
L 210.187636 136.451691 
L 213.434182 136.491295 
L 216.680727 136.514604 
L 219.927273 136.529012 
L 223.173818 136.537753 
L 226.420364 136.543203 
L 229.666909 136.546299 
L 232.913455 136.548361 
L 236.16 136.549726 
L 239.406545 136.550135 
L 242.653091 136.550458 
L 245.899636 136.550781 
L 249.146182 136.550994 
L 252.392727 136.551081 
L 255.639273 136.551168 
L 258.885818 136.551211 
L 262.132364 136.551238 
L 265.378909 136.551256 
L 268.625455 136.55324 
L 271.872 137.952972 
L 275.118545 138.764376 
L 278.365091 139.214881 
L 281.611636 139.473502 
L 284.858182 139.634923 
L 288.104727 139.745267 
L 291.351273 139.825896 
L 294.597818 139.887857 
L 297.844364 139.937068 
L 301.090909 139.977375 
L 304.337455 140.010758 
L 307.584 140.038702 
L 310.830545 140.062764 
L 314.077091 140.083702 
L 317.323636 140.101867 
L 320.570182 140.117899 
L 323.816727 140.132161 
L 327.063273 140.144907 
L 330.309818 140.156403 
L 333.556364 140.166767 
L 336.802909 140.176156 
L 340.049455 140.184788 
L 343.296 140.192598 
L 346.542545 140.199871 
L 349.789091 140.206528 
L 353.035636 140.212713 
L 356.282182 140.218409 
L 359.528727 140.223763 
L 362.775273 140.228701 
L 366.021818 140.233326 
L 369.268364 140.237685 
L 372.514909 140.241733 
L 375.761455 140.245574 
L 379.008 140.249161 
L 382.254545 140.252537 
L 385.501091 140.255757 
L 388.747636 140.258776 
L 391.994182 140.261595 
L 395.240727 140.26429 
L 398.487273 140.26684 
" clip-path="url(#pde907d44d4)" style="fill: none; stroke: #ff7f0e; stroke-width: 1.5; stroke-linecap: square"/>
   </g>
   <g id="line2d_25">
    <path d="M 73.832727 140.246812 
L 77.079273 124.194 
L 80.325818 114.131548 
L 83.572364 108.08466 
L 86.818909 104.412839 
L 90.065455 102.19479 
L 93.312 100.84694 
L 96.558545 100.031944 
L 99.805091 99.529542 
L 103.051636 99.233642 
L 106.298182 99.052197 
L 109.544727 98.941336 
L 112.791273 98.875494 
L 116.037818 98.834577 
L 119.284364 98.811397 
L 122.530909 98.793893 
L 125.777455 98.767637 
L 129.024 98.767637 
L 132.270545 98.767636 
L 135.517091 98.767636 
L 138.763636 98.767636 
L 142.010182 98.767636 
L 145.256727 98.767636 
L 148.503273 98.767636 
L 151.749818 98.767636 
L 154.996364 98.767636 
L 158.242909 98.767636 
L 161.489455 98.767636 
L 164.736 98.767636 
L 167.982545 98.767636 
L 171.229091 98.769981 
L 174.475636 113.633771 
L 177.722182 122.652244 
L 180.968727 128.121715 
L 184.215273 131.443239 
L 187.461818 133.44875 
L 190.708364 134.670363 
L 193.954909 135.409521 
L 197.201455 135.85701 
L 200.448 136.132134 
L 203.694545 136.295305 
L 206.941091 136.396592 
L 210.187636 136.456263 
L 213.434182 136.494502 
L 216.680727 136.5167 
L 219.927273 136.530356 
L 223.173818 136.538604 
L 226.420364 136.543724 
L 229.666909 136.546603 
L 232.913455 136.548528 
L 236.16 136.549803 
L 239.406545 136.55019 
L 242.653091 136.550503 
L 245.899636 136.550817 
L 249.146182 136.551022 
L 252.392727 136.551103 
L 255.639273 136.551183 
L 258.885818 136.551222 
L 262.132364 136.551245 
L 265.378909 136.55126 
L 268.625455 136.553177 
L 271.872 137.92865 
L 275.118545 138.718057 
L 278.365091 139.148835 
L 281.611636 139.396406 
L 284.858182 139.554345 
L 288.104727 139.665319 
L 291.351273 139.748462 
L 294.597818 139.813663 
L 297.844364 139.866344 
L 301.090909 139.910075 
L 304.337455 139.946763 
L 307.584 139.977817 
L 310.830545 140.004859 
L 314.077091 140.028622 
L 317.323636 140.049398 
L 320.570182 140.067882 
L 323.816727 140.084443 
L 327.063273 140.099341 
L 330.309818 140.112862 
L 333.556364 140.12513 
L 336.802909 140.136307 
L 340.049455 140.146624 
L 343.296 140.156012 
L 346.542545 140.164788 
L 349.789091 140.172862 
L 353.035636 140.180389 
L 356.282182 140.18735 
L 359.528727 140.193908 
L 362.775273 140.199982 
L 366.021818 140.205689 
L 369.268364 140.211082 
L 372.514909 140.216112 
L 375.761455 140.220891 
L 379.008 140.225369 
L 382.254545 140.229593 
L 385.501091 140.233629 
L 388.747636 140.237424 
L 391.994182 140.240978 
L 395.240727 140.244383 
L 398.487273 140.247615 
" clip-path="url(#pde907d44d4)" style="fill: none; stroke: #2ca02c; stroke-width: 1.5; stroke-linecap: square"/>
   </g>
   <g id="patch_9">
    <path d="M 57.6 142.411034 
L 57.6 96.529655 
" style="fill: none; stroke: #000000; stroke-width: 0.8; stroke-linejoin: miter; stroke-linecap: square"/>
   </g>
   <g id="patch_10">
    <path d="M 414.72 142.411034 
L 414.72 96.529655 
" style="fill: none; stroke: #000000; stroke-width: 0.8; stroke-linejoin: miter; stroke-linecap: square"/>
   </g>
   <g id="patch_11">
    <path d="M 57.6 142.411034 
L 414.72 142.411034 
" style="fill: none; stroke: #000000; stroke-width: 0.8; stroke-linejoin: miter; stroke-linecap: square"/>
   </g>
   <g id="patch_12">
    <path d="M 57.6 96.529655 
L 414.72 96.529655 
" style="fill: none; stroke: #000000; stroke-width: 0.8; stroke-linejoin: miter; stroke-linecap: square"/>
   </g>
   <g id="text_10">
    <!-- Pressure -->
    <g transform="translate(210.546562 90.529655)scale(0.12 -0.12)">
     <defs>
      <path id="DejaVuSans-50" d="M 1259 4147 
L 1259 2394 
L 2053 2394 
Q 2494 2394 2734 2622 
Q 2975 2850 2975 3272 
Q 2975 3691 2734 3919 
Q 2494 4147 2053 4147 
L 1259 4147 
z
M 628 4666 
L 2053 4666 
Q 2838 4666 3239 4311 
Q 3641 3956 3641 3272 
Q 3641 2581 3239 2228 
Q 2838 1875 2053 1875 
L 1259 1875 
L 1259 0 
L 628 0 
L 628 4666 
z
" transform="scale(0.015625)"/>
      <path id="DejaVuSans-75" d="M 544 1381 
L 544 3500 
L 1119 3500 
L 1119 1403 
Q 1119 906 1312 657 
Q 1506 409 1894 409 
Q 2359 409 2629 706 
Q 2900 1003 2900 1516 
L 2900 3500 
L 3475 3500 
L 3475 0 
L 2900 0 
L 2900 538 
Q 2691 219 2414 64 
Q 2138 -91 1772 -91 
Q 1169 -91 856 284 
Q 544 659 544 1381 
z
M 1991 3584 
L 1991 3584 
z
" transform="scale(0.015625)"/>
     </defs>
     <use xlink:href="#DejaVuSans-50"/>
     <use xlink:href="#DejaVuSans-72" x="58.552734"/>
     <use xlink:href="#DejaVuSans-65" x="97.416016"/>
     <use xlink:href="#DejaVuSans-73" x="158.939453"/>
     <use xlink:href="#DejaVuSans-73" x="211.039062"/>
     <use xlink:href="#DejaVuSans-75" x="263.138672"/>
     <use xlink:href="#DejaVuSans-72" x="326.517578"/>
     <use xlink:href="#DejaVuSans-65" x="365.380859"/>
    </g>
   </g>
   <g id="legend_2">
    <g id="patch_13">
     <path d="M 350.823125 137.411034 
L 407.72 137.411034 
Q 409.72 137.411034 409.72 135.411034 
L 409.72 92.376659 
Q 409.72 90.376659 407.72 90.376659 
L 350.823125 90.376659 
Q 348.823125 90.376659 348.823125 92.376659 
L 348.823125 135.411034 
Q 348.823125 137.411034 350.823125 137.411034 
z
" style="fill: #ffffff; opacity: 0.8; stroke: #cccccc; stroke-linejoin: miter"/>
    </g>
    <g id="line2d_26">
     <path d="M 352.823125 98.475097 
L 362.823125 98.475097 
L 372.823125 98.475097 
" style="fill: none; stroke: #1f77b4; stroke-width: 1.5; stroke-linecap: square"/>
    </g>
    <g id="text_11">
     <!-- P1 -->
     <g transform="translate(380.823125 101.975097)scale(0.1 -0.1)">
      <use xlink:href="#DejaVuSans-50"/>
      <use xlink:href="#DejaVuSans-31" x="60.302734"/>
     </g>
    </g>
    <g id="line2d_27">
     <path d="M 352.823125 113.153222 
L 362.823125 113.153222 
L 372.823125 113.153222 
" style="fill: none; stroke: #ff7f0e; stroke-width: 1.5; stroke-linecap: square"/>
    </g>
    <g id="text_12">
     <!-- Pmid -->
     <g transform="translate(380.823125 116.653222)scale(0.1 -0.1)">
      <use xlink:href="#DejaVuSans-50"/>
      <use xlink:href="#DejaVuSans-6d" x="60.302734"/>
      <use xlink:href="#DejaVuSans-69" x="157.714844"/>
      <use xlink:href="#DejaVuSans-64" x="185.498047"/>
     </g>
    </g>
    <g id="line2d_28">
     <path d="M 352.823125 127.831347 
L 362.823125 127.831347 
L 372.823125 127.831347 
" style="fill: none; stroke: #2ca02c; stroke-width: 1.5; stroke-linecap: square"/>
    </g>
    <g id="text_13">
     <!-- PN -->
     <g transform="translate(380.823125 131.331347)scale(0.1 -0.1)">
      <use xlink:href="#DejaVuSans-50"/>
      <use xlink:href="#DejaVuSans-4e" x="60.302734"/>
     </g>
    </g>
   </g>
  </g>
  <g id="axes_3">
   <g id="patch_14">
    <path d="M 57.6 197.46869 
L 414.72 197.46869 
L 414.72 151.58731 
L 57.6 151.58731 
z
" style="fill: #ffffff"/>
   </g>
   <g id="matplotlib.axis_5">
    <g id="xtick_13">
     <g id="line2d_29">
      <g>
       <use xlink:href="#m958883c32e" x="73.832727" y="197.46869" style="stroke: #000000; stroke-width: 0.8"/>
      </g>
     </g>
    </g>
    <g id="xtick_14">
     <g id="line2d_30">
      <g>
       <use xlink:href="#m958883c32e" x="138.763636" y="197.46869" style="stroke: #000000; stroke-width: 0.8"/>
      </g>
     </g>
    </g>
    <g id="xtick_15">
     <g id="line2d_31">
      <g>
       <use xlink:href="#m958883c32e" x="203.694545" y="197.46869" style="stroke: #000000; stroke-width: 0.8"/>
      </g>
     </g>
    </g>
    <g id="xtick_16">
     <g id="line2d_32">
      <g>
       <use xlink:href="#m958883c32e" x="268.625455" y="197.46869" style="stroke: #000000; stroke-width: 0.8"/>
      </g>
     </g>
    </g>
    <g id="xtick_17">
     <g id="line2d_33">
      <g>
       <use xlink:href="#m958883c32e" x="333.556364" y="197.46869" style="stroke: #000000; stroke-width: 0.8"/>
      </g>
     </g>
    </g>
    <g id="xtick_18">
     <g id="line2d_34">
      <g>
       <use xlink:href="#m958883c32e" x="398.487273" y="197.46869" style="stroke: #000000; stroke-width: 0.8"/>
      </g>
     </g>
    </g>
   </g>
   <g id="matplotlib.axis_6">
    <g id="ytick_5">
     <g id="line2d_35">
      <g>
       <use xlink:href="#ma5dd42268c" x="57.6" y="185.571651" style="stroke: #000000; stroke-width: 0.8"/>
      </g>
     </g>
     <g id="text_14">
      <!-- 0.048 -->
      <g transform="translate(21.971875 189.37087)scale(0.1 -0.1)">
       <defs>
        <path id="DejaVuSans-2e" d="M 684 794 
L 1344 794 
L 1344 0 
L 684 0 
L 684 794 
z
" transform="scale(0.015625)"/>
        <path id="DejaVuSans-34" d="M 2419 4116 
L 825 1625 
L 2419 1625 
L 2419 4116 
z
M 2253 4666 
L 3047 4666 
L 3047 1625 
L 3713 1625 
L 3713 1100 
L 3047 1100 
L 3047 0 
L 2419 0 
L 2419 1100 
L 313 1100 
L 313 1709 
L 2253 4666 
z
" transform="scale(0.015625)"/>
        <path id="DejaVuSans-38" d="M 2034 2216 
Q 1584 2216 1326 1975 
Q 1069 1734 1069 1313 
Q 1069 891 1326 650 
Q 1584 409 2034 409 
Q 2484 409 2743 651 
Q 3003 894 3003 1313 
Q 3003 1734 2745 1975 
Q 2488 2216 2034 2216 
z
M 1403 2484 
Q 997 2584 770 2862 
Q 544 3141 544 3541 
Q 544 4100 942 4425 
Q 1341 4750 2034 4750 
Q 2731 4750 3128 4425 
Q 3525 4100 3525 3541 
Q 3525 3141 3298 2862 
Q 3072 2584 2669 2484 
Q 3125 2378 3379 2068 
Q 3634 1759 3634 1313 
Q 3634 634 3220 271 
Q 2806 -91 2034 -91 
Q 1263 -91 848 271 
Q 434 634 434 1313 
Q 434 1759 690 2068 
Q 947 2378 1403 2484 
z
M 1172 3481 
Q 1172 3119 1398 2916 
Q 1625 2713 2034 2713 
Q 2441 2713 2670 2916 
Q 2900 3119 2900 3481 
Q 2900 3844 2670 4047 
Q 2441 4250 2034 4250 
Q 1625 4250 1398 4047 
Q 1172 3844 1172 3481 
z
" transform="scale(0.015625)"/>
       </defs>
       <use xlink:href="#DejaVuSans-30"/>
       <use xlink:href="#DejaVuSans-2e" x="63.623047"/>
       <use xlink:href="#DejaVuSans-30" x="95.410156"/>
       <use xlink:href="#DejaVuSans-34" x="159.033203"/>
       <use xlink:href="#DejaVuSans-38" x="222.65625"/>
      </g>
     </g>
    </g>
    <g id="ytick_6">
     <g id="line2d_36">
      <g>
       <use xlink:href="#ma5dd42268c" x="57.6" y="159.122521" style="stroke: #000000; stroke-width: 0.8"/>
      </g>
     </g>
     <g id="text_15">
      <!-- 0.050 -->
      <g transform="translate(21.971875 162.92174)scale(0.1 -0.1)">
       <use xlink:href="#DejaVuSans-30"/>
       <use xlink:href="#DejaVuSans-2e" x="63.623047"/>
       <use xlink:href="#DejaVuSans-30" x="95.410156"/>
       <use xlink:href="#DejaVuSans-35" x="159.033203"/>
       <use xlink:href="#DejaVuSans-30" x="222.65625"/>
      </g>
     </g>
    </g>
    <g id="text_16">
     <!-- fraction -->
     <g transform="translate(15.892187 193.73425)rotate(-90)scale(0.1 -0.1)">
      <use xlink:href="#DejaVuSans-66"/>
      <use xlink:href="#DejaVuSans-72" x="35.205078"/>
      <use xlink:href="#DejaVuSans-61" x="76.318359"/>
      <use xlink:href="#DejaVuSans-63" x="137.597656"/>
      <use xlink:href="#DejaVuSans-74" x="192.578125"/>
      <use xlink:href="#DejaVuSans-69" x="231.787109"/>
      <use xlink:href="#DejaVuSans-6f" x="259.570312"/>
      <use xlink:href="#DejaVuSans-6e" x="320.751953"/>
     </g>
    </g>
   </g>
   <g id="line2d_37">
    <path d="M 73.832727 195.383172 
L 77.079273 157.697857 
L 80.325818 157.314646 
L 83.572364 155.528948 
L 86.818909 153.672828 
L 90.065455 156.598554 
L 93.312 153.776235 
L 96.558545 154.765084 
L 99.805091 154.737313 
L 103.051636 154.380393 
L 106.298182 154.05855 
L 109.544727 154.459009 
L 112.791273 154.182395 
L 116.037818 154.354683 
L 119.284364 154.571799 
L 122.530909 154.477357 
L 125.777455 158.187705 
L 129.024 158.477653 
L 132.270545 158.717201 
L 135.517091 158.871731 
L 138.763636 158.977416 
L 142.010182 159.037504 
L 145.256727 159.076704 
L 148.503273 159.088059 
L 151.749818 159.087553 
L 154.996364 159.091619 
L 158.242909 159.079499 
L 161.489455 159.073828 
L 164.736 159.083064 
L 167.982545 159.095749 
L 171.229091 159.10506 
L 174.475636 159.284704 
L 177.722182 159.624777 
L 180.968727 160.072627 
L 184.215273 160.604764 
L 187.461818 161.162353 
L 190.708364 161.675372 
L 193.954909 162.101863 
L 197.201455 162.42609 
L 200.448 162.658135 
L 203.694545 162.811128 
L 206.941091 162.91137 
L 210.187636 162.968526 
L 213.434182 163.017594 
L 216.680727 163.041738 
L 219.927273 163.057253 
L 223.173818 163.066742 
L 226.420364 163.072695 
L 229.666909 163.076113 
L 232.913455 163.078368 
L 236.16 163.079854 
L 239.406545 163.080295 
L 242.653091 163.080637 
L 245.899636 163.080978 
L 249.146182 163.081203 
L 252.392727 163.08129 
L 255.639273 163.081378 
L 258.885818 163.081417 
L 262.132364 163.081438 
L 265.378909 163.08145 
L 268.625455 163.083617 
L 271.872 165.475886 
L 275.118545 168.727381 
L 278.365091 172.687314 
L 281.611636 176.956059 
L 284.858182 180.49807 
L 288.104727 184.334841 
L 291.351273 187.217576 
L 294.597818 189.358559 
L 297.844364 190.87863 
L 301.090909 191.98415 
L 304.337455 192.761328 
L 307.584 193.308632 
L 310.830545 193.683321 
L 314.077091 193.963097 
L 317.323636 194.161172 
L 320.570182 194.310557 
L 323.816727 194.427261 
L 327.063273 194.520077 
L 330.309818 194.597345 
L 333.556364 194.662458 
L 336.802909 194.719741 
L 340.049455 194.771786 
L 343.296 194.817594 
L 346.542545 194.861123 
L 349.789091 194.901192 
L 353.035636 194.939118 
L 356.282182 194.974597 
L 359.528727 195.008342 
L 362.775273 195.039994 
L 366.021818 195.070253 
L 369.268364 195.099435 
L 372.514909 195.127237 
L 375.761455 195.153939 
L 379.008 195.179415 
L 382.254545 195.203788 
L 385.501091 195.227222 
L 388.747636 195.249585 
L 391.994182 195.270879 
L 395.240727 195.291563 
L 398.487273 195.311512 
" clip-path="url(#p1fd635fa51)" style="fill: none; stroke: #1f77b4; stroke-width: 1.5; stroke-linecap: square"/>
   </g>
   <g id="line2d_38">
    <path d="M 73.832727 192.463335 
L 77.079273 155.477783 
L 80.325818 154.987279 
L 83.572364 154.846813 
L 86.818909 154.786783 
L 90.065455 154.757044 
L 93.312 154.741361 
L 96.558545 154.732935 
L 99.805091 154.728393 
L 103.051636 154.726149 
L 106.298182 154.72531 
L 109.544727 154.725208 
L 112.791273 154.725587 
L 116.037818 154.726196 
L 119.284364 154.726971 
L 122.530909 154.727802 
L 125.777455 154.768118 
L 129.024 154.780861 
L 132.270545 154.81435 
L 135.517091 154.88212 
L 138.763636 154.987648 
L 142.010182 155.129277 
L 145.256727 155.305925 
L 148.503273 155.509058 
L 151.749818 155.738966 
L 154.996364 155.992533 
L 158.242909 156.254978 
L 161.489455 156.525049 
L 164.736 156.796342 
L 167.982545 157.054807 
L 171.229091 157.301013 
L 174.475636 157.327109 
L 177.722182 157.680845 
L 180.968727 158.145602 
L 184.215273 158.693353 
L 187.461818 159.268717 
L 190.708364 159.796162 
L 193.954909 160.232555 
L 197.201455 160.563983 
L 200.448 160.79914 
L 203.694545 160.951608 
L 206.941091 161.051589 
L 210.187636 161.108507 
L 213.434182 161.155502 
L 216.680727 161.178917 
L 219.927273 161.193891 
L 223.173818 161.203076 
L 226.420364 161.208898 
L 229.666909 161.212301 
L 232.913455 161.214644 
L 236.16 161.216276 
L 239.406545 161.216944 
L 242.653091 161.217529 
L 245.899636 161.218114 
L 249.146182 161.218581 
L 252.392727 161.218909 
L 255.639273 161.219238 
L 258.885818 161.21952 
L 262.132364 161.219786 
L 265.378909 161.220042 
L 268.625455 161.222192 
L 271.872 163.376848 
L 275.118545 165.913957 
L 278.365091 168.320963 
L 281.611636 170.377502 
L 284.858182 171.963357 
L 288.104727 173.58195 
L 291.351273 174.981482 
L 294.597818 176.166592 
L 297.844364 177.293418 
L 301.090909 178.308053 
L 304.337455 179.239698 
L 307.584 180.095675 
L 310.830545 180.927485 
L 314.077091 181.683707 
L 317.323636 182.375799 
L 320.570182 183.031604 
L 323.816727 183.648733 
L 327.063273 184.231712 
L 330.309818 184.780741 
L 333.556364 185.29809 
L 336.802909 185.788109 
L 340.049455 186.254605 
L 343.296 186.696247 
L 346.542545 187.115696 
L 349.789091 187.512645 
L 353.035636 187.892688 
L 356.282182 188.254604 
L 359.528727 188.601776 
L 362.775273 188.932496 
L 366.021818 189.248444 
L 369.268364 189.55038 
L 372.514909 189.837613 
L 375.761455 190.115106 
L 379.008 190.380639 
L 382.254545 190.635571 
L 385.501091 190.881713 
L 388.747636 191.117616 
L 391.994182 191.343281 
L 395.240727 191.560144 
L 398.487273 191.767811 
" clip-path="url(#p1fd635fa51)" style="fill: none; stroke: #ff7f0e; stroke-width: 1.5; stroke-linecap: square"/>
   </g>
   <g id="patch_15">
    <path d="M 57.6 197.46869 
L 57.6 151.58731 
" style="fill: none; stroke: #000000; stroke-width: 0.8; stroke-linejoin: miter; stroke-linecap: square"/>
   </g>
   <g id="patch_16">
    <path d="M 414.72 197.46869 
L 414.72 151.58731 
" style="fill: none; stroke: #000000; stroke-width: 0.8; stroke-linejoin: miter; stroke-linecap: square"/>
   </g>
   <g id="patch_17">
    <path d="M 57.6 197.46869 
L 414.72 197.46869 
" style="fill: none; stroke: #000000; stroke-width: 0.8; stroke-linejoin: miter; stroke-linecap: square"/>
   </g>
   <g id="patch_18">
    <path d="M 57.6 151.58731 
L 414.72 151.58731 
" style="fill: none; stroke: #000000; stroke-width: 0.8; stroke-linejoin: miter; stroke-linecap: square"/>
   </g>
   <g id="text_17">
    <!-- yA -->
    <g transform="translate(228.504375 145.58731)scale(0.12 -0.12)">
     <defs>
      <path id="DejaVuSans-41" d="M 2188 4044 
L 1331 1722 
L 3047 1722 
L 2188 4044 
z
M 1831 4666 
L 2547 4666 
L 4325 0 
L 3669 0 
L 3244 1197 
L 1141 1197 
L 716 0 
L 50 0 
L 1831 4666 
z
" transform="scale(0.015625)"/>
     </defs>
     <use xlink:href="#DejaVuSans-79"/>
     <use xlink:href="#DejaVuSans-41" x="59.179688"/>
    </g>
   </g>
   <g id="legend_3">
    <g id="patch_19">
     <path d="M 64.6 192.46869 
L 142.289062 192.46869 
Q 144.289062 192.46869 144.289062 190.46869 
L 144.289062 162.11244 
Q 144.289062 160.11244 142.289062 160.11244 
L 64.6 160.11244 
Q 62.6 160.11244 62.6 162.11244 
L 62.6 190.46869 
Q 62.6 192.46869 64.6 192.46869 
z
" style="fill: #ffffff; opacity: 0.8; stroke: #cccccc; stroke-linejoin: miter"/>
    </g>
    <g id="line2d_39">
     <path d="M 66.6 168.210877 
L 76.6 168.210877 
L 86.6 168.210877 
" style="fill: none; stroke: #1f77b4; stroke-width: 1.5; stroke-linecap: square"/>
    </g>
    <g id="text_18">
     <!-- yA0 (in) -->
     <g transform="translate(94.6 171.710877)scale(0.1 -0.1)">
      <use xlink:href="#DejaVuSans-79"/>
      <use xlink:href="#DejaVuSans-41" x="59.179688"/>
      <use xlink:href="#DejaVuSans-30" x="127.587891"/>
      <use xlink:href="#DejaVuSans-20" x="191.210938"/>
      <use xlink:href="#DejaVuSans-28" x="222.998047"/>
      <use xlink:href="#DejaVuSans-69" x="262.011719"/>
      <use xlink:href="#DejaVuSans-6e" x="289.794922"/>
      <use xlink:href="#DejaVuSans-29" x="353.173828"/>
     </g>
    </g>
    <g id="line2d_40">
     <path d="M 66.6 182.889002 
L 76.6 182.889002 
L 86.6 182.889002 
" style="fill: none; stroke: #ff7f0e; stroke-width: 1.5; stroke-linecap: square"/>
    </g>
    <g id="text_19">
     <!-- yAL (out) -->
     <g transform="translate(94.6 186.389002)scale(0.1 -0.1)">
      <defs>
       <path id="DejaVuSans-4c" d="M 628 4666 
L 1259 4666 
L 1259 531 
L 3531 531 
L 3531 0 
L 628 0 
L 628 4666 
z
" transform="scale(0.015625)"/>
      </defs>
      <use xlink:href="#DejaVuSans-79"/>
      <use xlink:href="#DejaVuSans-41" x="59.179688"/>
      <use xlink:href="#DejaVuSans-4c" x="127.587891"/>
      <use xlink:href="#DejaVuSans-20" x="183.300781"/>
      <use xlink:href="#DejaVuSans-28" x="215.087891"/>
      <use xlink:href="#DejaVuSans-6f" x="254.101562"/>
      <use xlink:href="#DejaVuSans-75" x="315.283203"/>
      <use xlink:href="#DejaVuSans-74" x="378.662109"/>
      <use xlink:href="#DejaVuSans-29" x="417.871094"/>
     </g>
    </g>
   </g>
  </g>
  <g id="axes_4">
   <g id="patch_20">
    <path d="M 57.6 252.526345 
L 414.72 252.526345 
L 414.72 206.644966 
L 57.6 206.644966 
z
" style="fill: #ffffff"/>
   </g>
   <g id="matplotlib.axis_7">
    <g id="xtick_19">
     <g id="line2d_41">
      <g>
       <use xlink:href="#m958883c32e" x="73.832727" y="252.526345" style="stroke: #000000; stroke-width: 0.8"/>
      </g>
     </g>
    </g>
    <g id="xtick_20">
     <g id="line2d_42">
      <g>
       <use xlink:href="#m958883c32e" x="138.763636" y="252.526345" style="stroke: #000000; stroke-width: 0.8"/>
      </g>
     </g>
    </g>
    <g id="xtick_21">
     <g id="line2d_43">
      <g>
       <use xlink:href="#m958883c32e" x="203.694545" y="252.526345" style="stroke: #000000; stroke-width: 0.8"/>
      </g>
     </g>
    </g>
    <g id="xtick_22">
     <g id="line2d_44">
      <g>
       <use xlink:href="#m958883c32e" x="268.625455" y="252.526345" style="stroke: #000000; stroke-width: 0.8"/>
      </g>
     </g>
    </g>
    <g id="xtick_23">
     <g id="line2d_45">
      <g>
       <use xlink:href="#m958883c32e" x="333.556364" y="252.526345" style="stroke: #000000; stroke-width: 0.8"/>
      </g>
     </g>
    </g>
    <g id="xtick_24">
     <g id="line2d_46">
      <g>
       <use xlink:href="#m958883c32e" x="398.487273" y="252.526345" style="stroke: #000000; stroke-width: 0.8"/>
      </g>
     </g>
    </g>
   </g>
   <g id="matplotlib.axis_8">
    <g id="ytick_7">
     <g id="line2d_47">
      <g>
       <use xlink:href="#ma5dd42268c" x="57.6" y="245.46219" style="stroke: #000000; stroke-width: 0.8"/>
      </g>
     </g>
     <g id="text_20">
      <!-- 0.898 -->
      <g transform="translate(21.971875 249.261409)scale(0.1 -0.1)">
       <defs>
        <path id="DejaVuSans-39" d="M 703 97 
L 703 672 
Q 941 559 1184 500 
Q 1428 441 1663 441 
Q 2288 441 2617 861 
Q 2947 1281 2994 2138 
Q 2813 1869 2534 1725 
Q 2256 1581 1919 1581 
Q 1219 1581 811 2004 
Q 403 2428 403 3163 
Q 403 3881 828 4315 
Q 1253 4750 1959 4750 
Q 2769 4750 3195 4129 
Q 3622 3509 3622 2328 
Q 3622 1225 3098 567 
Q 2575 -91 1691 -91 
Q 1453 -91 1209 -44 
Q 966 3 703 97 
z
M 1959 2075 
Q 2384 2075 2632 2365 
Q 2881 2656 2881 3163 
Q 2881 3666 2632 3958 
Q 2384 4250 1959 4250 
Q 1534 4250 1286 3958 
Q 1038 3666 1038 3163 
Q 1038 2656 1286 2365 
Q 1534 2075 1959 2075 
z
" transform="scale(0.015625)"/>
       </defs>
       <use xlink:href="#DejaVuSans-30"/>
       <use xlink:href="#DejaVuSans-2e" x="63.623047"/>
       <use xlink:href="#DejaVuSans-38" x="95.410156"/>
       <use xlink:href="#DejaVuSans-39" x="159.033203"/>
       <use xlink:href="#DejaVuSans-38" x="222.65625"/>
      </g>
     </g>
    </g>
    <g id="ytick_8">
     <g id="line2d_48">
      <g>
       <use xlink:href="#ma5dd42268c" x="57.6" y="210.835387" style="stroke: #000000; stroke-width: 0.8"/>
      </g>
     </g>
     <g id="text_21">
      <!-- 0.900 -->
      <g transform="translate(21.971875 214.634605)scale(0.1 -0.1)">
       <use xlink:href="#DejaVuSans-30"/>
       <use xlink:href="#DejaVuSans-2e" x="63.623047"/>
       <use xlink:href="#DejaVuSans-39" x="95.410156"/>
       <use xlink:href="#DejaVuSans-30" x="159.033203"/>
       <use xlink:href="#DejaVuSans-30" x="222.65625"/>
      </g>
     </g>
    </g>
    <g id="text_22">
     <!-- fraction -->
     <g transform="translate(15.892187 248.791905)rotate(-90)scale(0.1 -0.1)">
      <use xlink:href="#DejaVuSans-66"/>
      <use xlink:href="#DejaVuSans-72" x="35.205078"/>
      <use xlink:href="#DejaVuSans-61" x="76.318359"/>
      <use xlink:href="#DejaVuSans-63" x="137.597656"/>
      <use xlink:href="#DejaVuSans-74" x="192.578125"/>
      <use xlink:href="#DejaVuSans-69" x="231.787109"/>
      <use xlink:href="#DejaVuSans-6f" x="259.570312"/>
      <use xlink:href="#DejaVuSans-6e" x="320.751953"/>
     </g>
    </g>
   </g>
   <g id="line2d_49">
    <path d="M 73.832727 209.156528 
L 77.079273 211.096549 
L 80.325818 211.134564 
L 83.572364 212.495432 
L 86.818909 214.252216 
L 90.065455 211.023859 
L 93.312 213.697157 
L 96.558545 213.00087 
L 99.805091 212.997674 
L 103.051636 213.011076 
L 106.298182 213.214523 
L 109.544727 212.621128 
L 112.791273 212.967757 
L 116.037818 212.753799 
L 119.284364 212.479744 
L 122.530909 212.628932 
L 125.777455 210.564677 
L 129.024 210.560493 
L 132.270545 210.568741 
L 135.517091 210.598371 
L 138.763636 210.632928 
L 142.010182 210.672052 
L 145.256727 210.706442 
L 148.503273 210.741572 
L 151.749818 210.771107 
L 154.996364 210.789599 
L 158.242909 210.80888 
L 161.489455 210.820648 
L 164.736 210.823136 
L 167.982545 210.82303 
L 171.229091 210.823817 
L 174.475636 210.821648 
L 177.722182 210.775899 
L 180.968727 210.706527 
L 184.215273 210.623932 
L 187.461818 210.495774 
L 190.708364 210.452831 
L 193.954909 210.404819 
L 197.201455 210.3439 
L 200.448 210.310273 
L 203.694545 210.287127 
L 206.941091 210.267065 
L 210.187636 210.204987 
L 213.434182 210.253117 
L 216.680727 210.242968 
L 219.927273 210.239737 
L 223.173818 210.238266 
L 226.420364 210.237315 
L 229.666909 210.236764 
L 232.913455 210.236395 
L 236.16 210.236145 
L 239.406545 210.236058 
L 242.653091 210.235985 
L 245.899636 210.235913 
L 249.146182 210.235858 
L 252.392727 210.235823 
L 255.639273 210.235788 
L 258.885818 210.235761 
L 262.132364 210.235736 
L 265.378909 210.235713 
L 268.625455 210.235449 
L 271.872 209.903732 
L 275.118545 209.495576 
L 278.365091 209.110226 
L 281.611636 208.846554 
L 284.858182 208.730483 
L 288.104727 208.738981 
L 291.351273 208.811996 
L 294.597818 208.904157 
L 297.844364 208.98728 
L 301.090909 209.059455 
L 304.337455 209.120835 
L 307.584 209.17809 
L 310.830545 209.20724 
L 314.077091 209.229542 
L 317.323636 209.255257 
L 320.570182 209.272559 
L 323.816727 209.284035 
L 327.063273 209.291706 
L 330.309818 209.296157 
L 333.556364 209.297738 
L 336.802909 209.296991 
L 340.049455 209.294951 
L 343.296 209.291299 
L 346.542545 209.286522 
L 349.789091 209.280524 
L 353.035636 209.27395 
L 356.282182 209.266695 
L 359.528727 209.259317 
L 362.775273 209.251535 
L 366.021818 209.243489 
L 369.268364 209.235244 
L 372.514909 209.22674 
L 375.761455 209.218333 
L 379.008 209.209865 
L 382.254545 209.201435 
L 385.501091 209.193178 
L 388.747636 209.184986 
L 391.994182 209.176859 
L 395.240727 209.168814 
L 398.487273 209.160846 
" clip-path="url(#pf2f7136adb)" style="fill: none; stroke: #1f77b4; stroke-width: 1.5; stroke-linecap: square"/>
   </g>
   <g id="line2d_50">
    <path d="M 73.832727 246.944846 
L 77.079273 250.413579 
L 80.325818 250.440828 
L 83.572364 250.400224 
L 86.818909 250.350537 
L 90.065455 250.297886 
L 93.312 250.244442 
L 96.558545 250.190762 
L 99.805091 250.137474 
L 103.051636 250.08523 
L 106.298182 250.032697 
L 109.544727 249.980627 
L 112.791273 249.928912 
L 116.037818 249.877757 
L 119.284364 249.827075 
L 122.530909 249.777059 
L 125.777455 239.1549 
L 129.024 236.040735 
L 132.270545 233.096421 
L 135.517091 230.436151 
L 138.763636 228.014571 
L 142.010182 225.82468 
L 145.256727 223.8304 
L 148.503273 222.032244 
L 151.749818 220.407958 
L 154.996364 218.930948 
L 158.242909 217.615032 
L 161.489455 216.426797 
L 164.736 215.355126 
L 167.982545 214.423078 
L 171.229091 213.576786 
L 174.475636 214.256859 
L 177.722182 214.143108 
L 180.968727 214.034647 
L 184.215273 213.911567 
L 187.461818 213.898938 
L 190.708364 213.680886 
L 193.954909 213.529151 
L 197.201455 213.488293 
L 200.448 213.432434 
L 203.694545 213.397722 
L 206.941091 213.385328 
L 210.187636 213.470766 
L 213.434182 213.354534 
L 216.680727 213.360432 
L 219.927273 213.357597 
L 223.173818 213.354615 
L 226.420364 213.3524 
L 229.666909 213.350709 
L 232.913455 213.34924 
L 236.16 213.347924 
L 239.406545 213.346825 
L 242.653091 213.345745 
L 245.899636 213.344665 
L 249.146182 213.343615 
L 252.392727 213.342598 
L 255.639273 213.341582 
L 258.885818 213.340577 
L 262.132364 213.339575 
L 265.378909 213.338576 
L 268.625455 213.337382 
L 271.872 213.03305 
L 275.118545 212.683847 
L 278.365091 212.374686 
L 281.611636 212.12564 
L 284.858182 211.927535 
L 288.104727 211.75431 
L 291.351273 211.610005 
L 294.597818 211.487092 
L 297.844364 211.372904 
L 301.090909 211.272524 
L 304.337455 211.182564 
L 307.584 211.100997 
L 310.830545 211.025695 
L 314.077091 210.959291 
L 317.323636 210.897396 
L 320.570182 210.841191 
L 323.816727 210.789332 
L 327.063273 210.74133 
L 330.309818 210.696941 
L 333.556364 210.655914 
L 336.802909 210.617827 
L 340.049455 210.582116 
L 343.296 210.548958 
L 346.542545 210.517882 
L 349.789091 210.488994 
L 353.035636 210.461789 
L 356.282182 210.43634 
L 359.528727 210.41218 
L 362.775273 210.389544 
L 366.021818 210.368197 
L 369.268364 210.34803 
L 372.514909 210.329145 
L 375.761455 210.311117 
L 379.008 210.294137 
L 382.254545 210.27804 
L 385.501091 210.262606 
L 388.747636 210.248012 
L 391.994182 210.234258 
L 395.240727 210.221179 
L 398.487273 210.208822 
" clip-path="url(#pf2f7136adb)" style="fill: none; stroke: #ff7f0e; stroke-width: 1.5; stroke-linecap: square"/>
   </g>
   <g id="patch_21">
    <path d="M 57.6 252.526345 
L 57.6 206.644966 
" style="fill: none; stroke: #000000; stroke-width: 0.8; stroke-linejoin: miter; stroke-linecap: square"/>
   </g>
   <g id="patch_22">
    <path d="M 414.72 252.526345 
L 414.72 206.644966 
" style="fill: none; stroke: #000000; stroke-width: 0.8; stroke-linejoin: miter; stroke-linecap: square"/>
   </g>
   <g id="patch_23">
    <path d="M 57.6 252.526345 
L 414.72 252.526345 
" style="fill: none; stroke: #000000; stroke-width: 0.8; stroke-linejoin: miter; stroke-linecap: square"/>
   </g>
   <g id="patch_24">
    <path d="M 57.6 206.644966 
L 414.72 206.644966 
" style="fill: none; stroke: #000000; stroke-width: 0.8; stroke-linejoin: miter; stroke-linecap: square"/>
   </g>
   <g id="text_23">
    <!-- yB -->
    <g transform="translate(228.492188 200.644966)scale(0.12 -0.12)">
     <defs>
      <path id="DejaVuSans-42" d="M 1259 2228 
L 1259 519 
L 2272 519 
Q 2781 519 3026 730 
Q 3272 941 3272 1375 
Q 3272 1813 3026 2020 
Q 2781 2228 2272 2228 
L 1259 2228 
z
M 1259 4147 
L 1259 2741 
L 2194 2741 
Q 2656 2741 2882 2914 
Q 3109 3088 3109 3444 
Q 3109 3797 2882 3972 
Q 2656 4147 2194 4147 
L 1259 4147 
z
M 628 4666 
L 2241 4666 
Q 2963 4666 3353 4366 
Q 3744 4066 3744 3513 
Q 3744 3084 3544 2831 
Q 3344 2578 2956 2516 
Q 3422 2416 3680 2098 
Q 3938 1781 3938 1306 
Q 3938 681 3513 340 
Q 3088 0 2303 0 
L 628 0 
L 628 4666 
z
" transform="scale(0.015625)"/>
     </defs>
     <use xlink:href="#DejaVuSans-79"/>
     <use xlink:href="#DejaVuSans-42" x="59.179688"/>
    </g>
   </g>
   <g id="legend_4">
    <g id="patch_25">
     <path d="M 330.010625 244.001216 
L 407.72 244.001216 
Q 409.72 244.001216 409.72 242.001216 
L 409.72 213.644966 
Q 409.72 211.644966 407.72 211.644966 
L 330.010625 211.644966 
Q 328.010625 211.644966 328.010625 213.644966 
L 328.010625 242.001216 
Q 328.010625 244.001216 330.010625 244.001216 
z
" style="fill: #ffffff; opacity: 0.8; stroke: #cccccc; stroke-linejoin: miter"/>
    </g>
    <g id="line2d_51">
     <path d="M 332.010625 219.743403 
L 342.010625 219.743403 
L 352.010625 219.743403 
" style="fill: none; stroke: #1f77b4; stroke-width: 1.5; stroke-linecap: square"/>
    </g>
    <g id="text_24">
     <!-- yB0 (in) -->
     <g transform="translate(360.010625 223.243403)scale(0.1 -0.1)">
      <use xlink:href="#DejaVuSans-79"/>
      <use xlink:href="#DejaVuSans-42" x="59.179688"/>
      <use xlink:href="#DejaVuSans-30" x="127.783203"/>
      <use xlink:href="#DejaVuSans-20" x="191.40625"/>
      <use xlink:href="#DejaVuSans-28" x="223.193359"/>
      <use xlink:href="#DejaVuSans-69" x="262.207031"/>
      <use xlink:href="#DejaVuSans-6e" x="289.990234"/>
      <use xlink:href="#DejaVuSans-29" x="353.369141"/>
     </g>
    </g>
    <g id="line2d_52">
     <path d="M 332.010625 234.421528 
L 342.010625 234.421528 
L 352.010625 234.421528 
" style="fill: none; stroke: #ff7f0e; stroke-width: 1.5; stroke-linecap: square"/>
    </g>
    <g id="text_25">
     <!-- yBL (out) -->
     <g transform="translate(360.010625 237.921528)scale(0.1 -0.1)">
      <use xlink:href="#DejaVuSans-79"/>
      <use xlink:href="#DejaVuSans-42" x="59.179688"/>
      <use xlink:href="#DejaVuSans-4c" x="127.783203"/>
      <use xlink:href="#DejaVuSans-20" x="183.496094"/>
      <use xlink:href="#DejaVuSans-28" x="215.283203"/>
      <use xlink:href="#DejaVuSans-6f" x="254.296875"/>
      <use xlink:href="#DejaVuSans-75" x="315.478516"/>
      <use xlink:href="#DejaVuSans-74" x="378.857422"/>
      <use xlink:href="#DejaVuSans-29" x="418.066406"/>
     </g>
    </g>
   </g>
  </g>
  <g id="axes_5">
   <g id="patch_26">
    <path d="M 57.6 307.584 
L 414.72 307.584 
L 414.72 261.702621 
L 57.6 261.702621 
z
" style="fill: #ffffff"/>
   </g>
   <g id="matplotlib.axis_9">
    <g id="xtick_25">
     <g id="line2d_53">
      <g>
       <use xlink:href="#m958883c32e" x="73.832727" y="307.584" style="stroke: #000000; stroke-width: 0.8"/>
      </g>
     </g>
     <g id="text_26">
      <!-- 0 -->
      <g transform="translate(70.651477 322.182437)scale(0.1 -0.1)">
       <use xlink:href="#DejaVuSans-30"/>
      </g>
     </g>
    </g>
    <g id="xtick_26">
     <g id="line2d_54">
      <g>
       <use xlink:href="#m958883c32e" x="138.763636" y="307.584" style="stroke: #000000; stroke-width: 0.8"/>
      </g>
     </g>
     <g id="text_27">
      <!-- 20 -->
      <g transform="translate(132.401136 322.182437)scale(0.1 -0.1)">
       <defs>
        <path id="DejaVuSans-32" d="M 1228 531 
L 3431 531 
L 3431 0 
L 469 0 
L 469 531 
Q 828 903 1448 1529 
Q 2069 2156 2228 2338 
Q 2531 2678 2651 2914 
Q 2772 3150 2772 3378 
Q 2772 3750 2511 3984 
Q 2250 4219 1831 4219 
Q 1534 4219 1204 4116 
Q 875 4013 500 3803 
L 500 4441 
Q 881 4594 1212 4672 
Q 1544 4750 1819 4750 
Q 2544 4750 2975 4387 
Q 3406 4025 3406 3419 
Q 3406 3131 3298 2873 
Q 3191 2616 2906 2266 
Q 2828 2175 2409 1742 
Q 1991 1309 1228 531 
z
" transform="scale(0.015625)"/>
       </defs>
       <use xlink:href="#DejaVuSans-32"/>
       <use xlink:href="#DejaVuSans-30" x="63.623047"/>
      </g>
     </g>
    </g>
    <g id="xtick_27">
     <g id="line2d_55">
      <g>
       <use xlink:href="#m958883c32e" x="203.694545" y="307.584" style="stroke: #000000; stroke-width: 0.8"/>
      </g>
     </g>
     <g id="text_28">
      <!-- 40 -->
      <g transform="translate(197.332045 322.182437)scale(0.1 -0.1)">
       <use xlink:href="#DejaVuSans-34"/>
       <use xlink:href="#DejaVuSans-30" x="63.623047"/>
      </g>
     </g>
    </g>
    <g id="xtick_28">
     <g id="line2d_56">
      <g>
       <use xlink:href="#m958883c32e" x="268.625455" y="307.584" style="stroke: #000000; stroke-width: 0.8"/>
      </g>
     </g>
     <g id="text_29">
      <!-- 60 -->
      <g transform="translate(262.262955 322.182437)scale(0.1 -0.1)">
       <defs>
        <path id="DejaVuSans-36" d="M 2113 2584 
Q 1688 2584 1439 2293 
Q 1191 2003 1191 1497 
Q 1191 994 1439 701 
Q 1688 409 2113 409 
Q 2538 409 2786 701 
Q 3034 994 3034 1497 
Q 3034 2003 2786 2293 
Q 2538 2584 2113 2584 
z
M 3366 4563 
L 3366 3988 
Q 3128 4100 2886 4159 
Q 2644 4219 2406 4219 
Q 1781 4219 1451 3797 
Q 1122 3375 1075 2522 
Q 1259 2794 1537 2939 
Q 1816 3084 2150 3084 
Q 2853 3084 3261 2657 
Q 3669 2231 3669 1497 
Q 3669 778 3244 343 
Q 2819 -91 2113 -91 
Q 1303 -91 875 529 
Q 447 1150 447 2328 
Q 447 3434 972 4092 
Q 1497 4750 2381 4750 
Q 2619 4750 2861 4703 
Q 3103 4656 3366 4563 
z
" transform="scale(0.015625)"/>
       </defs>
       <use xlink:href="#DejaVuSans-36"/>
       <use xlink:href="#DejaVuSans-30" x="63.623047"/>
      </g>
     </g>
    </g>
    <g id="xtick_29">
     <g id="line2d_57">
      <g>
       <use xlink:href="#m958883c32e" x="333.556364" y="307.584" style="stroke: #000000; stroke-width: 0.8"/>
      </g>
     </g>
     <g id="text_30">
      <!-- 80 -->
      <g transform="translate(327.193864 322.182437)scale(0.1 -0.1)">
       <use xlink:href="#DejaVuSans-38"/>
       <use xlink:href="#DejaVuSans-30" x="63.623047"/>
      </g>
     </g>
    </g>
    <g id="xtick_30">
     <g id="line2d_58">
      <g>
       <use xlink:href="#m958883c32e" x="398.487273" y="307.584" style="stroke: #000000; stroke-width: 0.8"/>
      </g>
     </g>
     <g id="text_31">
      <!-- 100 -->
      <g transform="translate(388.943523 322.182437)scale(0.1 -0.1)">
       <use xlink:href="#DejaVuSans-31"/>
       <use xlink:href="#DejaVuSans-30" x="63.623047"/>
       <use xlink:href="#DejaVuSans-30" x="127.246094"/>
      </g>
     </g>
    </g>
    <g id="text_32">
     <!-- time (normalized) -->
     <g transform="translate(191.589687 335.860562)scale(0.1 -0.1)">
      <use xlink:href="#DejaVuSans-74"/>
      <use xlink:href="#DejaVuSans-69" x="39.208984"/>
      <use xlink:href="#DejaVuSans-6d" x="66.992188"/>
      <use xlink:href="#DejaVuSans-65" x="164.404297"/>
      <use xlink:href="#DejaVuSans-20" x="225.927734"/>
      <use xlink:href="#DejaVuSans-28" x="257.714844"/>
      <use xlink:href="#DejaVuSans-6e" x="296.728516"/>
      <use xlink:href="#DejaVuSans-6f" x="360.107422"/>
      <use xlink:href="#DejaVuSans-72" x="421.289062"/>
      <use xlink:href="#DejaVuSans-6d" x="460.652344"/>
      <use xlink:href="#DejaVuSans-61" x="558.064453"/>
      <use xlink:href="#DejaVuSans-6c" x="619.34375"/>
      <use xlink:href="#DejaVuSans-69" x="647.126953"/>
      <use xlink:href="#DejaVuSans-7a" x="674.910156"/>
      <use xlink:href="#DejaVuSans-65" x="727.400391"/>
      <use xlink:href="#DejaVuSans-64" x="788.923828"/>
      <use xlink:href="#DejaVuSans-29" x="852.400391"/>
     </g>
    </g>
   </g>
   <g id="matplotlib.axis_10">
    <g id="ytick_9">
     <g id="line2d_59">
      <g>
       <use xlink:href="#ma5dd42268c" x="57.6" y="303.348179" style="stroke: #000000; stroke-width: 0.8"/>
      </g>
     </g>
     <g id="text_33">
      <!-- 0.0500 -->
      <g transform="translate(15.609375 307.147398)scale(0.1 -0.1)">
       <use xlink:href="#DejaVuSans-30"/>
       <use xlink:href="#DejaVuSans-2e" x="63.623047"/>
       <use xlink:href="#DejaVuSans-30" x="95.410156"/>
       <use xlink:href="#DejaVuSans-35" x="159.033203"/>
       <use xlink:href="#DejaVuSans-30" x="222.65625"/>
       <use xlink:href="#DejaVuSans-30" x="286.279297"/>
      </g>
     </g>
    </g>
    <g id="ytick_10">
     <g id="line2d_60">
      <g>
       <use xlink:href="#ma5dd42268c" x="57.6" y="281.879724" style="stroke: #000000; stroke-width: 0.8"/>
      </g>
     </g>
     <g id="text_34">
      <!-- 0.0525 -->
      <g transform="translate(15.609375 285.678942)scale(0.1 -0.1)">
       <use xlink:href="#DejaVuSans-30"/>
       <use xlink:href="#DejaVuSans-2e" x="63.623047"/>
       <use xlink:href="#DejaVuSans-30" x="95.410156"/>
       <use xlink:href="#DejaVuSans-35" x="159.033203"/>
       <use xlink:href="#DejaVuSans-32" x="222.65625"/>
       <use xlink:href="#DejaVuSans-35" x="286.279297"/>
      </g>
     </g>
    </g>
    <g id="text_35">
     <!-- fraction -->
     <g transform="translate(9.529687 303.84956)rotate(-90)scale(0.1 -0.1)">
      <use xlink:href="#DejaVuSans-66"/>
      <use xlink:href="#DejaVuSans-72" x="35.205078"/>
      <use xlink:href="#DejaVuSans-61" x="76.318359"/>
      <use xlink:href="#DejaVuSans-63" x="137.597656"/>
      <use xlink:href="#DejaVuSans-74" x="192.578125"/>
      <use xlink:href="#DejaVuSans-69" x="231.787109"/>
      <use xlink:href="#DejaVuSans-6f" x="259.570312"/>
      <use xlink:href="#DejaVuSans-6e" x="320.751953"/>
     </g>
    </g>
   </g>
   <g id="line2d_61">
    <path d="M 73.832727 280.635003 
L 77.079273 304.143751 
L 80.325818 304.373733 
L 83.572364 304.858294 
L 86.818909 305.192214 
L 90.065455 304.893636 
L 93.312 305.40037 
L 96.558545 305.103618 
L 99.805091 305.123235 
L 103.051636 305.34838 
L 106.298182 305.456558 
L 109.544727 305.490798 
L 112.791273 305.498483 
L 116.037818 305.492734 
L 119.284364 305.487685 
L 122.530909 305.475011 
L 125.777455 304.089474 
L 129.024 303.903271 
L 132.270545 303.743629 
L 135.517091 303.628589 
L 138.763636 303.542822 
L 142.010182 303.484399 
L 145.256727 303.441887 
L 148.503273 303.417088 
L 151.749818 303.402768 
L 154.996364 303.390956 
L 158.242909 303.389262 
L 161.489455 303.387108 
L 164.736 303.379877 
L 167.982545 303.371692 
L 171.229091 303.365256 
L 174.475636 303.24968 
L 177.722182 303.051544 
L 180.968727 302.795141 
L 184.215273 302.490564 
L 187.461818 302.192059 
L 190.708364 301.880229 
L 193.954909 301.627101 
L 197.201455 301.446779 
L 200.448 301.31278 
L 203.694545 301.224914 
L 206.941091 301.169772 
L 210.187636 301.163449 
L 213.434182 301.107714 
L 216.680727 301.097069 
L 219.927273 301.088598 
L 223.173818 301.083166 
L 226.420364 301.079772 
L 229.666909 301.077825 
L 232.913455 301.076545 
L 236.16 301.075703 
L 239.406545 301.07546 
L 242.653091 301.075274 
L 245.899636 301.075088 
L 249.146182 301.07497 
L 252.392727 301.07493 
L 255.639273 301.074891 
L 258.885818 301.074879 
L 262.132364 301.074877 
L 265.378909 301.074881 
L 268.625455 301.073605 
L 271.872 299.684714 
L 275.118545 297.775796 
L 278.365091 295.395543 
L 281.611636 292.75441 
L 284.858182 290.511975 
L 288.104727 288.016347 
L 291.351273 286.108224 
L 294.597818 284.672267 
L 297.844364 283.643977 
L 301.090909 282.890308 
L 304.337455 282.355203 
L 307.584 281.971412 
L 310.830545 281.71365 
L 314.077091 281.520915 
L 317.323636 281.379541 
L 320.570182 281.273956 
L 323.816727 281.192481 
L 327.063273 281.128407 
L 330.309818 281.076025 
L 333.556364 281.032959 
L 336.802909 280.996134 
L 340.049455 280.963349 
L 343.296 280.935415 
L 346.542545 280.909519 
L 349.789091 280.886476 
L 353.035636 280.865109 
L 356.282182 280.845669 
L 359.528727 280.827416 
L 362.775273 280.810723 
L 366.021818 280.795065 
L 369.268364 280.780205 
L 372.514909 280.766369 
L 375.761455 280.7532 
L 379.008 280.740858 
L 382.254545 280.729212 
L 385.501091 280.718091 
L 388.747636 280.707632 
L 391.994182 280.697836 
L 395.240727 280.688395 
L 398.487273 280.679394 
" clip-path="url(#p00b19bafe5)" style="fill: none; stroke: #1f77b4; stroke-width: 1.5; stroke-linecap: square"/>
   </g>
   <g id="line2d_62">
    <path d="M 73.832727 263.788138 
L 77.079273 286.084258 
L 80.325818 286.389253 
L 83.572364 286.500603 
L 86.818909 286.564229 
L 90.065455 286.609654 
L 93.312 286.646346 
L 96.558545 286.678442 
L 99.805091 286.707823 
L 103.051636 286.735193 
L 106.298182 286.761794 
L 109.544727 286.787687 
L 112.791273 286.813091 
L 116.037818 286.838068 
L 119.284364 286.862702 
L 122.530909 286.886971 
L 125.777455 292.12935 
L 129.024 293.665685 
L 132.270545 295.104305 
L 135.517091 296.37978 
L 138.763636 297.51235 
L 142.010182 298.506561 
L 145.256727 299.381011 
L 148.503273 300.140986 
L 151.749818 300.797336 
L 154.996364 301.365272 
L 158.242909 301.847544 
L 161.489455 302.261532 
L 164.736 302.616912 
L 167.982545 302.91137 
L 171.229091 303.171253 
L 174.475636 302.816994 
L 177.722182 302.643709 
L 180.968727 302.39572 
L 184.215273 302.101079 
L 187.461818 301.733737 
L 190.708364 301.499391 
L 193.954909 301.291282 
L 197.201455 301.096332 
L 200.448 300.97134 
L 203.694545 300.889553 
L 206.941091 300.830776 
L 210.187636 300.751439 
L 213.434182 300.778574 
L 216.680727 300.760444 
L 219.927273 300.752127 
L 223.173818 300.747641 
L 226.420364 300.744959 
L 229.666909 300.743588 
L 232.913455 300.742795 
L 236.16 300.742388 
L 239.406545 300.7425 
L 242.653091 300.742655 
L 245.899636 300.742811 
L 249.146182 300.743029 
L 252.392727 300.74332 
L 255.639273 300.743611 
L 258.885818 300.743926 
L 262.132364 300.74425 
L 265.378909 300.744579 
L 268.625455 300.743776 
L 271.872 299.495596 
L 275.118545 298.021325 
L 278.365091 296.611676 
L 281.611636 295.399787 
L 284.858182 294.46827 
L 288.104727 293.503155 
L 291.351273 292.665942 
L 294.597818 291.957354 
L 297.844364 291.282285 
L 301.090909 290.673219 
L 304.337455 290.112875 
L 307.584 289.597502 
L 310.830545 289.094715 
L 314.077091 288.636599 
L 317.323636 288.217887 
L 320.570182 287.819917 
L 323.816727 287.444906 
L 327.063273 287.090157 
L 330.309818 286.755662 
L 333.556364 286.44007 
L 336.802909 286.140767 
L 340.049455 285.855559 
L 343.296 285.585225 
L 346.542545 285.328269 
L 349.789091 285.084838 
L 353.035636 284.851551 
L 356.282182 284.629162 
L 359.528727 284.415709 
L 362.775273 284.212184 
L 366.021818 284.017611 
L 369.268364 283.83155 
L 372.514909 283.654402 
L 375.761455 283.483154 
L 379.008 283.319152 
L 382.254545 283.161596 
L 385.501091 283.009418 
L 388.747636 282.863473 
L 391.994182 282.723759 
L 395.240727 282.589426 
L 398.487273 282.460707 
" clip-path="url(#p00b19bafe5)" style="fill: none; stroke: #ff7f0e; stroke-width: 1.5; stroke-linecap: square"/>
   </g>
   <g id="patch_27">
    <path d="M 57.6 307.584 
L 57.6 261.702621 
" style="fill: none; stroke: #000000; stroke-width: 0.8; stroke-linejoin: miter; stroke-linecap: square"/>
   </g>
   <g id="patch_28">
    <path d="M 414.72 307.584 
L 414.72 261.702621 
" style="fill: none; stroke: #000000; stroke-width: 0.8; stroke-linejoin: miter; stroke-linecap: square"/>
   </g>
   <g id="patch_29">
    <path d="M 57.6 307.584 
L 414.72 307.584 
" style="fill: none; stroke: #000000; stroke-width: 0.8; stroke-linejoin: miter; stroke-linecap: square"/>
   </g>
   <g id="patch_30">
    <path d="M 57.6 261.702621 
L 414.72 261.702621 
" style="fill: none; stroke: #000000; stroke-width: 0.8; stroke-linejoin: miter; stroke-linecap: square"/>
   </g>
   <g id="text_36">
    <!-- yC -->
    <g transform="translate(228.419062 255.702621)scale(0.12 -0.12)">
     <defs>
      <path id="DejaVuSans-43" d="M 4122 4306 
L 4122 3641 
Q 3803 3938 3442 4084 
Q 3081 4231 2675 4231 
Q 1875 4231 1450 3742 
Q 1025 3253 1025 2328 
Q 1025 1406 1450 917 
Q 1875 428 2675 428 
Q 3081 428 3442 575 
Q 3803 722 4122 1019 
L 4122 359 
Q 3791 134 3420 21 
Q 3050 -91 2638 -91 
Q 1578 -91 968 557 
Q 359 1206 359 2328 
Q 359 3453 968 4101 
Q 1578 4750 2638 4750 
Q 3056 4750 3426 4639 
Q 3797 4528 4122 4306 
z
" transform="scale(0.015625)"/>
     </defs>
     <use xlink:href="#DejaVuSans-79"/>
     <use xlink:href="#DejaVuSans-43" x="59.179688"/>
    </g>
   </g>
   <g id="legend_5">
    <g id="patch_31">
     <path d="M 197.244375 299.058871 
L 275.075625 299.058871 
Q 277.075625 299.058871 277.075625 297.058871 
L 277.075625 268.702621 
Q 277.075625 266.702621 275.075625 266.702621 
L 197.244375 266.702621 
Q 195.244375 266.702621 195.244375 268.702621 
L 195.244375 297.058871 
Q 195.244375 299.058871 197.244375 299.058871 
z
" style="fill: #ffffff; opacity: 0.8; stroke: #cccccc; stroke-linejoin: miter"/>
    </g>
    <g id="line2d_63">
     <path d="M 199.244375 274.801058 
L 209.244375 274.801058 
L 219.244375 274.801058 
" style="fill: none; stroke: #1f77b4; stroke-width: 1.5; stroke-linecap: square"/>
    </g>
    <g id="text_37">
     <!-- yC0 (in) -->
     <g transform="translate(227.244375 278.301058)scale(0.1 -0.1)">
      <use xlink:href="#DejaVuSans-79"/>
      <use xlink:href="#DejaVuSans-43" x="59.179688"/>
      <use xlink:href="#DejaVuSans-30" x="129.003906"/>
      <use xlink:href="#DejaVuSans-20" x="192.626953"/>
      <use xlink:href="#DejaVuSans-28" x="224.414062"/>
      <use xlink:href="#DejaVuSans-69" x="263.427734"/>
      <use xlink:href="#DejaVuSans-6e" x="291.210938"/>
      <use xlink:href="#DejaVuSans-29" x="354.589844"/>
     </g>
    </g>
    <g id="line2d_64">
     <path d="M 199.244375 289.479183 
L 209.244375 289.479183 
L 219.244375 289.479183 
" style="fill: none; stroke: #ff7f0e; stroke-width: 1.5; stroke-linecap: square"/>
    </g>
    <g id="text_38">
     <!-- yCL (out) -->
     <g transform="translate(227.244375 292.979183)scale(0.1 -0.1)">
      <use xlink:href="#DejaVuSans-79"/>
      <use xlink:href="#DejaVuSans-43" x="59.179688"/>
      <use xlink:href="#DejaVuSans-4c" x="129.003906"/>
      <use xlink:href="#DejaVuSans-20" x="184.716797"/>
      <use xlink:href="#DejaVuSans-28" x="216.503906"/>
      <use xlink:href="#DejaVuSans-6f" x="255.517578"/>
      <use xlink:href="#DejaVuSans-75" x="316.699219"/>
      <use xlink:href="#DejaVuSans-74" x="380.078125"/>
      <use xlink:href="#DejaVuSans-29" x="419.287109"/>
     </g>
    </g>
   </g>
  </g>
 </g>
 <defs>
  <clipPath id="pa52ea70f21">
   <rect x="57.6" y="41.472" width="357.12" height="45.881379"/>
  </clipPath>
  <clipPath id="pde907d44d4">
   <rect x="57.6" y="96.529655" width="357.12" height="45.881379"/>
  </clipPath>
  <clipPath id="p1fd635fa51">
   <rect x="57.6" y="151.58731" width="357.12" height="45.881379"/>
  </clipPath>
  <clipPath id="pf2f7136adb">
   <rect x="57.6" y="206.644966" width="357.12" height="45.881379"/>
  </clipPath>
  <clipPath id="p00b19bafe5">
   <rect x="57.6" y="261.702621" width="357.12" height="45.881379"/>
  </clipPath>
 </defs>
</svg>
