<?xml version="1.0" encoding="utf-8" standalone="no"?>
<!DOCTYPE svg PUBLIC "-//W3C//DTD SVG 1.1//EN"
  "http://www.w3.org/Graphics/SVG/1.1/DTD/svg11.dtd">
<svg xmlns:xlink="http://www.w3.org/1999/xlink" width="460.8pt" height="345.6pt" viewBox="0 0 460.8 345.6" xmlns="http://www.w3.org/2000/svg" version="1.1">
 <metadata>
  <rdf:RDF xmlns:dc="http://purl.org/dc/elements/1.1/" xmlns:cc="http://creativecommons.org/ns#" xmlns:rdf="http://www.w3.org/1999/02/22-rdf-syntax-ns#">
   <cc:Work>
    <dc:type rdf:resource="http://purl.org/dc/dcmitype/StillImage"/>
    <dc:date>2022-07-10T00:05:05.019899</dc:date>
    <dc:format>image/svg+xml</dc:format>
    <dc:creator>
     <cc:Agent>
      <dc:title>Matplotlib v3.5.2, https://matplotlib.org/</dc:title>
     </cc:Agent>
    </dc:creator>
   </cc:Work>
  </rdf:RDF>
 </metadata>
 <defs>
  <style type="text/css">*{stroke-linejoin: round; stroke-linecap: butt}</style>
 </defs>
 <g id="figure_1">
  <g id="patch_1">
   <path d="M 0 345.6 
L 460.8 345.6 
L 460.8 0 
L 0 0 
z
" style="fill: #ffffff"/>
  </g>
  <g id="axes_1">
   <g id="patch_2">
    <path d="M 57.6 87.353379 
L 414.72 87.353379 
L 414.72 41.472 
L 57.6 41.472 
z
" style="fill: #ffffff"/>
   </g>
   <g id="axes_2">
    <g id="patch_3">
     <path d="M 414.72 87.353379 
L 414.72 87.353379 
L 414.72 41.472 
L 414.72 41.472 
z
" style="fill: #ffffff"/>
    </g>
    <g id="matplotlib.axis_1"/>
    <g id="matplotlib.axis_2">
     <g id="ytick_1">
      <g id="line2d_1">
       <defs>
        <path id="md25ca72612" d="M 0 0 
L 3.5 0 
" style="stroke: #000000; stroke-width: 0.8"/>
       </defs>
       <g>
        <use xlink:href="#md25ca72612" x="414.72" y="78.228773" style="stroke: #000000; stroke-width: 0.8"/>
       </g>
      </g>
      <g id="text_1">
       <!-- −5 -->
       <g transform="translate(421.72 82.027992)scale(0.1 -0.1)">
        <defs>
         <path id="DejaVuSans-2212" d="M 678 2272 
L 4684 2272 
L 4684 1741 
L 678 1741 
L 678 2272 
z
" transform="scale(0.015625)"/>
         <path id="DejaVuSans-35" d="M 691 4666 
L 3169 4666 
L 3169 4134 
L 1269 4134 
L 1269 2991 
Q 1406 3038 1543 3061 
Q 1681 3084 1819 3084 
Q 2600 3084 3056 2656 
Q 3513 2228 3513 1497 
Q 3513 744 3044 326 
Q 2575 -91 1722 -91 
Q 1428 -91 1123 -41 
Q 819 9 494 109 
L 494 744 
Q 775 591 1075 516 
Q 1375 441 1709 441 
Q 2250 441 2565 725 
Q 2881 1009 2881 1497 
Q 2881 1984 2565 2268 
Q 2250 2553 1709 2553 
Q 1456 2553 1204 2497 
Q 953 2441 691 2322 
L 691 4666 
z
" transform="scale(0.015625)"/>
        </defs>
        <use xlink:href="#DejaVuSans-2212"/>
        <use xlink:href="#DejaVuSans-35" x="83.789062"/>
       </g>
      </g>
     </g>
     <g id="ytick_2">
      <g id="line2d_2">
       <g>
        <use xlink:href="#md25ca72612" x="414.72" y="49.353042" style="stroke: #000000; stroke-width: 0.8"/>
       </g>
      </g>
      <g id="text_2">
       <!-- 0 -->
       <g transform="translate(421.72 53.152261)scale(0.1 -0.1)">
        <defs>
         <path id="DejaVuSans-30" d="M 2034 4250 
Q 1547 4250 1301 3770 
Q 1056 3291 1056 2328 
Q 1056 1369 1301 889 
Q 1547 409 2034 409 
Q 2525 409 2770 889 
Q 3016 1369 3016 2328 
Q 3016 3291 2770 3770 
Q 2525 4250 2034 4250 
z
M 2034 4750 
Q 2819 4750 3233 4129 
Q 3647 3509 3647 2328 
Q 3647 1150 3233 529 
Q 2819 -91 2034 -91 
Q 1250 -91 836 529 
Q 422 1150 422 2328 
Q 422 3509 836 4129 
Q 1250 4750 2034 4750 
z
" transform="scale(0.015625)"/>
        </defs>
        <use xlink:href="#DejaVuSans-30"/>
       </g>
      </g>
     </g>
     <g id="text_3">
      <!-- vel [m/s] -->
      <g transform="translate(448.060625 86.48769)rotate(-90)scale(0.1 -0.1)">
       <defs>
        <path id="DejaVuSans-76" d="M 191 3500 
L 800 3500 
L 1894 563 
L 2988 3500 
L 3597 3500 
L 2284 0 
L 1503 0 
L 191 3500 
z
" transform="scale(0.015625)"/>
        <path id="DejaVuSans-65" d="M 3597 1894 
L 3597 1613 
L 953 1613 
Q 991 1019 1311 708 
Q 1631 397 2203 397 
Q 2534 397 2845 478 
Q 3156 559 3463 722 
L 3463 178 
Q 3153 47 2828 -22 
Q 2503 -91 2169 -91 
Q 1331 -91 842 396 
Q 353 884 353 1716 
Q 353 2575 817 3079 
Q 1281 3584 2069 3584 
Q 2775 3584 3186 3129 
Q 3597 2675 3597 1894 
z
M 3022 2063 
Q 3016 2534 2758 2815 
Q 2500 3097 2075 3097 
Q 1594 3097 1305 2825 
Q 1016 2553 972 2059 
L 3022 2063 
z
" transform="scale(0.015625)"/>
        <path id="DejaVuSans-6c" d="M 603 4863 
L 1178 4863 
L 1178 0 
L 603 0 
L 603 4863 
z
" transform="scale(0.015625)"/>
        <path id="DejaVuSans-20" transform="scale(0.015625)"/>
        <path id="DejaVuSans-5b" d="M 550 4863 
L 1875 4863 
L 1875 4416 
L 1125 4416 
L 1125 -397 
L 1875 -397 
L 1875 -844 
L 550 -844 
L 550 4863 
z
" transform="scale(0.015625)"/>
        <path id="DejaVuSans-6d" d="M 3328 2828 
Q 3544 3216 3844 3400 
Q 4144 3584 4550 3584 
Q 5097 3584 5394 3201 
Q 5691 2819 5691 2113 
L 5691 0 
L 5113 0 
L 5113 2094 
Q 5113 2597 4934 2840 
Q 4756 3084 4391 3084 
Q 3944 3084 3684 2787 
Q 3425 2491 3425 1978 
L 3425 0 
L 2847 0 
L 2847 2094 
Q 2847 2600 2669 2842 
Q 2491 3084 2119 3084 
Q 1678 3084 1418 2786 
Q 1159 2488 1159 1978 
L 1159 0 
L 581 0 
L 581 3500 
L 1159 3500 
L 1159 2956 
Q 1356 3278 1631 3431 
Q 1906 3584 2284 3584 
Q 2666 3584 2933 3390 
Q 3200 3197 3328 2828 
z
" transform="scale(0.015625)"/>
        <path id="DejaVuSans-2f" d="M 1625 4666 
L 2156 4666 
L 531 -594 
L 0 -594 
L 1625 4666 
z
" transform="scale(0.015625)"/>
        <path id="DejaVuSans-73" d="M 2834 3397 
L 2834 2853 
Q 2591 2978 2328 3040 
Q 2066 3103 1784 3103 
Q 1356 3103 1142 2972 
Q 928 2841 928 2578 
Q 928 2378 1081 2264 
Q 1234 2150 1697 2047 
L 1894 2003 
Q 2506 1872 2764 1633 
Q 3022 1394 3022 966 
Q 3022 478 2636 193 
Q 2250 -91 1575 -91 
Q 1294 -91 989 -36 
Q 684 19 347 128 
L 347 722 
Q 666 556 975 473 
Q 1284 391 1588 391 
Q 1994 391 2212 530 
Q 2431 669 2431 922 
Q 2431 1156 2273 1281 
Q 2116 1406 1581 1522 
L 1381 1569 
Q 847 1681 609 1914 
Q 372 2147 372 2553 
Q 372 3047 722 3315 
Q 1072 3584 1716 3584 
Q 2034 3584 2315 3537 
Q 2597 3491 2834 3397 
z
" transform="scale(0.015625)"/>
        <path id="DejaVuSans-5d" d="M 1947 4863 
L 1947 -844 
L 622 -844 
L 622 -397 
L 1369 -397 
L 1369 4416 
L 622 4416 
L 622 4863 
L 1947 4863 
z
" transform="scale(0.015625)"/>
       </defs>
       <use xlink:href="#DejaVuSans-76"/>
       <use xlink:href="#DejaVuSans-65" x="59.179688"/>
       <use xlink:href="#DejaVuSans-6c" x="120.703125"/>
       <use xlink:href="#DejaVuSans-20" x="148.486328"/>
       <use xlink:href="#DejaVuSans-5b" x="180.273438"/>
       <use xlink:href="#DejaVuSans-6d" x="219.287109"/>
       <use xlink:href="#DejaVuSans-2f" x="316.699219"/>
       <use xlink:href="#DejaVuSans-73" x="350.390625"/>
       <use xlink:href="#DejaVuSans-5d" x="402.490234"/>
      </g>
     </g>
    </g>
    <g id="patch_4">
     <path d="M 414.72 87.353379 
L 414.72 41.472 
" style="fill: none; stroke: #000000; stroke-width: 0.8; stroke-linejoin: miter; stroke-linecap: square"/>
    </g>
   </g>
   <g id="matplotlib.axis_3">
    <g id="xtick_1">
     <g id="line2d_3">
      <defs>
       <path id="m04f9a39b40" d="M 0 0 
L 0 3.5 
" style="stroke: #000000; stroke-width: 0.8"/>
      </defs>
      <g>
       <use xlink:href="#m04f9a39b40" x="73.832727" y="87.353379" style="stroke: #000000; stroke-width: 0.8"/>
      </g>
     </g>
    </g>
    <g id="xtick_2">
     <g id="line2d_4">
      <g>
       <use xlink:href="#m04f9a39b40" x="116.550431" y="87.353379" style="stroke: #000000; stroke-width: 0.8"/>
      </g>
     </g>
    </g>
    <g id="xtick_3">
     <g id="line2d_5">
      <g>
       <use xlink:href="#m04f9a39b40" x="159.268134" y="87.353379" style="stroke: #000000; stroke-width: 0.8"/>
      </g>
     </g>
    </g>
    <g id="xtick_4">
     <g id="line2d_6">
      <g>
       <use xlink:href="#m04f9a39b40" x="201.985837" y="87.353379" style="stroke: #000000; stroke-width: 0.8"/>
      </g>
     </g>
    </g>
    <g id="xtick_5">
     <g id="line2d_7">
      <g>
       <use xlink:href="#m04f9a39b40" x="244.703541" y="87.353379" style="stroke: #000000; stroke-width: 0.8"/>
      </g>
     </g>
    </g>
    <g id="xtick_6">
     <g id="line2d_8">
      <g>
       <use xlink:href="#m04f9a39b40" x="287.421244" y="87.353379" style="stroke: #000000; stroke-width: 0.8"/>
      </g>
     </g>
    </g>
    <g id="xtick_7">
     <g id="line2d_9">
      <g>
       <use xlink:href="#m04f9a39b40" x="330.138947" y="87.353379" style="stroke: #000000; stroke-width: 0.8"/>
      </g>
     </g>
    </g>
    <g id="xtick_8">
     <g id="line2d_10">
      <g>
       <use xlink:href="#m04f9a39b40" x="372.856651" y="87.353379" style="stroke: #000000; stroke-width: 0.8"/>
      </g>
     </g>
    </g>
   </g>
   <g id="matplotlib.axis_4">
    <g id="ytick_3">
     <g id="line2d_11">
      <defs>
       <path id="m3f0d958946" d="M 0 0 
L -3.5 0 
" style="stroke: #000000; stroke-width: 0.8"/>
      </defs>
      <g>
       <use xlink:href="#m3f0d958946" x="57.6" y="78.228773" style="stroke: #000000; stroke-width: 0.8"/>
      </g>
     </g>
     <g id="text_4">
      <!-- −5 -->
      <g transform="translate(35.857813 82.027992)scale(0.1 -0.1)">
       <use xlink:href="#DejaVuSans-2212"/>
       <use xlink:href="#DejaVuSans-35" x="83.789062"/>
      </g>
     </g>
    </g>
    <g id="ytick_4">
     <g id="line2d_12">
      <g>
       <use xlink:href="#m3f0d958946" x="57.6" y="49.353042" style="stroke: #000000; stroke-width: 0.8"/>
      </g>
     </g>
     <g id="text_5">
      <!-- 0 -->
      <g transform="translate(44.2375 53.152261)scale(0.1 -0.1)">
       <use xlink:href="#DejaVuSans-30"/>
      </g>
     </g>
    </g>
    <g id="text_6">
     <!-- vel [normalized] -->
     <g transform="translate(29.778125 105.111908)rotate(-90)scale(0.1 -0.1)">
      <defs>
       <path id="DejaVuSans-6e" d="M 3513 2113 
L 3513 0 
L 2938 0 
L 2938 2094 
Q 2938 2591 2744 2837 
Q 2550 3084 2163 3084 
Q 1697 3084 1428 2787 
Q 1159 2491 1159 1978 
L 1159 0 
L 581 0 
L 581 3500 
L 1159 3500 
L 1159 2956 
Q 1366 3272 1645 3428 
Q 1925 3584 2291 3584 
Q 2894 3584 3203 3211 
Q 3513 2838 3513 2113 
z
" transform="scale(0.015625)"/>
       <path id="DejaVuSans-6f" d="M 1959 3097 
Q 1497 3097 1228 2736 
Q 959 2375 959 1747 
Q 959 1119 1226 758 
Q 1494 397 1959 397 
Q 2419 397 2687 759 
Q 2956 1122 2956 1747 
Q 2956 2369 2687 2733 
Q 2419 3097 1959 3097 
z
M 1959 3584 
Q 2709 3584 3137 3096 
Q 3566 2609 3566 1747 
Q 3566 888 3137 398 
Q 2709 -91 1959 -91 
Q 1206 -91 779 398 
Q 353 888 353 1747 
Q 353 2609 779 3096 
Q 1206 3584 1959 3584 
z
" transform="scale(0.015625)"/>
       <path id="DejaVuSans-72" d="M 2631 2963 
Q 2534 3019 2420 3045 
Q 2306 3072 2169 3072 
Q 1681 3072 1420 2755 
Q 1159 2438 1159 1844 
L 1159 0 
L 581 0 
L 581 3500 
L 1159 3500 
L 1159 2956 
Q 1341 3275 1631 3429 
Q 1922 3584 2338 3584 
Q 2397 3584 2469 3576 
Q 2541 3569 2628 3553 
L 2631 2963 
z
" transform="scale(0.015625)"/>
       <path id="DejaVuSans-61" d="M 2194 1759 
Q 1497 1759 1228 1600 
Q 959 1441 959 1056 
Q 959 750 1161 570 
Q 1363 391 1709 391 
Q 2188 391 2477 730 
Q 2766 1069 2766 1631 
L 2766 1759 
L 2194 1759 
z
M 3341 1997 
L 3341 0 
L 2766 0 
L 2766 531 
Q 2569 213 2275 61 
Q 1981 -91 1556 -91 
Q 1019 -91 701 211 
Q 384 513 384 1019 
Q 384 1609 779 1909 
Q 1175 2209 1959 2209 
L 2766 2209 
L 2766 2266 
Q 2766 2663 2505 2880 
Q 2244 3097 1772 3097 
Q 1472 3097 1187 3025 
Q 903 2953 641 2809 
L 641 3341 
Q 956 3463 1253 3523 
Q 1550 3584 1831 3584 
Q 2591 3584 2966 3190 
Q 3341 2797 3341 1997 
z
" transform="scale(0.015625)"/>
       <path id="DejaVuSans-69" d="M 603 3500 
L 1178 3500 
L 1178 0 
L 603 0 
L 603 3500 
z
M 603 4863 
L 1178 4863 
L 1178 4134 
L 603 4134 
L 603 4863 
z
" transform="scale(0.015625)"/>
       <path id="DejaVuSans-7a" d="M 353 3500 
L 3084 3500 
L 3084 2975 
L 922 459 
L 3084 459 
L 3084 0 
L 275 0 
L 275 525 
L 2438 3041 
L 353 3041 
L 353 3500 
z
" transform="scale(0.015625)"/>
       <path id="DejaVuSans-64" d="M 2906 2969 
L 2906 4863 
L 3481 4863 
L 3481 0 
L 2906 0 
L 2906 525 
Q 2725 213 2448 61 
Q 2172 -91 1784 -91 
Q 1150 -91 751 415 
Q 353 922 353 1747 
Q 353 2572 751 3078 
Q 1150 3584 1784 3584 
Q 2172 3584 2448 3432 
Q 2725 3281 2906 2969 
z
M 947 1747 
Q 947 1113 1208 752 
Q 1469 391 1925 391 
Q 2381 391 2643 752 
Q 2906 1113 2906 1747 
Q 2906 2381 2643 2742 
Q 2381 3103 1925 3103 
Q 1469 3103 1208 2742 
Q 947 2381 947 1747 
z
" transform="scale(0.015625)"/>
      </defs>
      <use xlink:href="#DejaVuSans-76"/>
      <use xlink:href="#DejaVuSans-65" x="59.179688"/>
      <use xlink:href="#DejaVuSans-6c" x="120.703125"/>
      <use xlink:href="#DejaVuSans-20" x="148.486328"/>
      <use xlink:href="#DejaVuSans-5b" x="180.273438"/>
      <use xlink:href="#DejaVuSans-6e" x="219.287109"/>
      <use xlink:href="#DejaVuSans-6f" x="282.666016"/>
      <use xlink:href="#DejaVuSans-72" x="343.847656"/>
      <use xlink:href="#DejaVuSans-6d" x="383.210938"/>
      <use xlink:href="#DejaVuSans-61" x="480.623047"/>
      <use xlink:href="#DejaVuSans-6c" x="541.902344"/>
      <use xlink:href="#DejaVuSans-69" x="569.685547"/>
      <use xlink:href="#DejaVuSans-7a" x="597.46875"/>
      <use xlink:href="#DejaVuSans-65" x="649.958984"/>
      <use xlink:href="#DejaVuSans-64" x="711.482422"/>
      <use xlink:href="#DejaVuSans-5d" x="774.958984"/>
     </g>
    </g>
   </g>
   <g id="line2d_13">
    <path d="M 73.832727 54.635134 
L 90.919809 54.474767 
L 108.00689 54.281406 
L 125.093971 54.061592 
L 142.181053 53.820723 
L 159.268134 53.563209 
L 176.355215 53.292635 
L 193.442297 53.011888 
L 210.529378 52.723281 
L 227.616459 52.428653 
L 244.703541 52.129453 
L 261.790622 51.826815 
L 278.877703 51.521617 
L 295.964785 51.214528 
L 313.051866 50.906055 
L 330.138947 50.596574 
L 347.226029 50.286359 
L 364.31311 49.975609 
L 381.400191 49.664468 
L 398.487273 49.664468 
" clip-path="url(#pf32e1b5c60)" style="fill: none; stroke: #1f77b4; stroke-width: 1.5; stroke-linecap: square"/>
   </g>
   <g id="line2d_14">
    <path d="M 73.832727 49.235345 
L 90.919809 49.241732 
L 108.00689 49.248083 
L 125.093971 49.254399 
L 142.181053 49.260685 
L 159.268134 49.266943 
L 176.355215 49.273176 
L 193.442297 49.279388 
L 210.529378 49.28558 
L 227.616459 49.291756 
L 244.703541 49.297917 
L 261.790622 49.304067 
L 278.877703 49.310207 
L 295.964785 49.316339 
L 313.051866 49.322465 
L 330.138947 49.328586 
L 347.226029 49.334703 
L 364.31311 49.340818 
L 381.400191 49.34693 
L 398.487273 49.34693 
" clip-path="url(#pf32e1b5c60)" style="fill: none; stroke: #ff7f0e; stroke-width: 1.5; stroke-linecap: square"/>
   </g>
   <g id="line2d_15">
    <path d="M 73.832727 43.577404 
L 90.919809 43.576361 
L 108.00689 43.575318 
L 125.093971 43.574272 
L 142.181053 43.573226 
L 159.268134 43.572178 
L 176.355215 43.571129 
L 193.442297 43.570078 
L 210.529378 43.569026 
L 227.616459 43.567973 
L 244.703541 43.566918 
L 261.790622 43.565863 
L 278.877703 43.564806 
L 295.964785 43.563749 
L 313.051866 43.562691 
L 330.138947 43.561632 
L 347.226029 43.560573 
L 364.31311 43.559513 
L 381.400191 43.558454 
L 398.487273 43.558454 
" clip-path="url(#pf32e1b5c60)" style="fill: none; stroke: #2ca02c; stroke-width: 1.5; stroke-linecap: square"/>
   </g>
   <g id="line2d_16">
    <path d="M 73.832727 43.577349 
L 90.919809 43.576253 
L 108.00689 43.575155 
L 125.093971 43.574057 
L 142.181053 43.572958 
L 159.268134 43.571859 
L 176.355215 43.570759 
L 193.442297 43.569658 
L 210.529378 43.568557 
L 227.616459 43.567455 
L 244.703541 43.566353 
L 261.790622 43.56525 
L 278.877703 43.564147 
L 295.964785 43.563043 
L 313.051866 43.561938 
L 330.138947 43.560833 
L 347.226029 43.559728 
L 364.31311 43.558623 
L 381.400191 43.557517 
L 398.487273 43.557517 
" clip-path="url(#pf32e1b5c60)" style="fill: none; stroke: #d62728; stroke-width: 1.5; stroke-linecap: square"/>
   </g>
   <g id="line2d_17">
    <path d="M 73.832727 49.233878 
L 90.919809 49.114712 
L 108.00689 48.995541 
L 125.093971 48.876363 
L 142.181053 48.757174 
L 159.268134 48.637971 
L 176.355215 48.518751 
L 193.442297 48.399512 
L 210.529378 48.280249 
L 227.616459 48.16096 
L 244.703541 48.041642 
L 261.790622 47.922291 
L 278.877703 47.802904 
L 295.964785 47.683479 
L 313.051866 47.564012 
L 330.138947 47.4445 
L 347.226029 47.32494 
L 364.31311 47.205328 
L 381.400191 47.085661 
L 398.487273 47.085661 
" clip-path="url(#pf32e1b5c60)" style="fill: none; stroke: #9467bd; stroke-width: 1.5; stroke-linecap: square"/>
   </g>
   <g id="line2d_18">
    <path d="M 73.832727 49.304272 
L 90.919809 49.25551 
L 108.00689 49.20676 
L 125.093971 49.158035 
L 142.181053 49.109344 
L 159.268134 49.06069 
L 176.355215 49.012087 
L 193.442297 48.963533 
L 210.529378 48.915046 
L 227.616459 48.866632 
L 244.703541 48.818299 
L 261.790622 48.770056 
L 278.877703 48.721911 
L 295.964785 48.673877 
L 313.051866 48.625962 
L 330.138947 48.57818 
L 347.226029 48.530538 
L 364.31311 48.483047 
L 381.400191 48.435726 
L 398.487273 48.435726 
" clip-path="url(#pf32e1b5c60)" style="fill: none; stroke: #8c564b; stroke-width: 1.5; stroke-linecap: square"/>
   </g>
   <g id="line2d_19">
    <path d="M 73.832727 49.351394 
L 90.919809 49.349747 
L 108.00689 49.348101 
L 125.093971 49.346457 
L 142.181053 49.344815 
L 159.268134 49.343177 
L 176.355215 49.341542 
L 193.442297 49.339912 
L 210.529378 49.338286 
L 227.616459 49.336667 
L 244.703541 49.335054 
L 261.790622 49.333447 
L 278.877703 49.331849 
L 295.964785 49.330258 
L 313.051866 49.328677 
L 330.138947 49.327105 
L 347.226029 49.325543 
L 364.31311 49.323991 
L 381.400191 49.322452 
L 398.487273 49.322452 
" clip-path="url(#pf32e1b5c60)" style="fill: none; stroke: #e377c2; stroke-width: 1.5; stroke-linecap: square"/>
   </g>
   <g id="line2d_20">
    <path d="M 73.832727 49.352962 
L 90.919809 49.352882 
L 108.00689 49.352801 
L 125.093971 49.352721 
L 142.181053 49.352641 
L 159.268134 49.352561 
L 176.355215 49.352481 
L 193.442297 49.352402 
L 210.529378 49.352323 
L 227.616459 49.352244 
L 244.703541 49.352166 
L 261.790622 49.352088 
L 278.877703 49.35201 
L 295.964785 49.351933 
L 313.051866 49.351857 
L 330.138947 49.351781 
L 347.226029 49.351706 
L 364.31311 49.351631 
L 381.400191 49.351557 
L 398.487273 49.351557 
" clip-path="url(#pf32e1b5c60)" style="fill: none; stroke: #7f7f7f; stroke-width: 1.5; stroke-linecap: square"/>
   </g>
   <g id="line2d_21">
    <path d="M 73.832727 85.267862 
L 90.919809 81.198071 
L 108.00689 77.756001 
L 125.093971 74.7842 
L 142.181053 72.173955 
L 159.268134 69.847489 
L 176.355215 67.747452 
L 193.442297 65.830448 
L 210.529378 64.062874 
L 227.616459 62.41817 
L 244.703541 60.874931 
L 261.790622 59.415598 
L 278.877703 58.025503 
L 295.964785 56.692177 
L 313.051866 55.404831 
L 330.138947 54.153946 
L 347.226029 52.930963 
L 364.31311 51.728022 
L 381.400191 50.537745 
L 398.487273 50.537745 
" clip-path="url(#pf32e1b5c60)" style="fill: none; stroke: #bcbd22; stroke-width: 1.5; stroke-linecap: square"/>
   </g>
   <g id="line2d_22">
    <path d="M 73.832727 79.199507 
L 90.919809 75.557648 
L 108.00689 72.534937 
L 125.093971 69.970435 
L 142.181053 67.752404 
L 159.268134 65.80166 
L 176.355215 64.060723 
L 193.442297 62.486864 
L 210.529378 61.047596 
L 227.616459 59.717689 
L 244.703541 58.477154 
L 261.790622 57.30985 
L 278.877703 56.202491 
L 295.964785 55.143936 
L 313.051866 54.124657 
L 330.138947 53.136341 
L 347.226029 52.171578 
L 364.31311 51.223607 
L 381.400191 50.286114 
L 398.487273 50.286114 
" clip-path="url(#pf32e1b5c60)" style="fill: none; stroke: #17becf; stroke-width: 1.5; stroke-linecap: square"/>
   </g>
   <g id="line2d_23">
    <path d="M 73.832727 64.553955 
L 90.919809 63.550564 
L 108.00689 62.533268 
L 125.093971 61.532071 
L 142.181053 60.561536 
L 159.268134 59.627707 
L 176.355215 58.731956 
L 193.442297 57.873138 
L 210.529378 57.048802 
L 227.616459 56.255877 
L 244.703541 55.491048 
L 261.790622 54.750965 
L 278.877703 54.032348 
L 295.964785 53.332037 
L 313.051866 52.647006 
L 330.138947 51.974355 
L 347.226029 51.3113 
L 364.31311 50.655146 
L 381.400191 50.003259 
L 398.487273 50.003259 
" clip-path="url(#pf32e1b5c60)" style="fill: none; stroke: #1f77b4; stroke-width: 1.5; stroke-linecap: square"/>
   </g>
   <g id="line2d_24">
    <path d="M 73.832727 58.611055 
L 90.919809 58.203072 
L 108.00689 57.748735 
L 125.093971 57.264583 
L 142.181053 56.762517 
L 159.268134 56.250919 
L 176.355215 55.735573 
L 193.442297 55.220363 
L 210.529378 54.707796 
L 227.616459 54.19939 
L 244.703541 53.695949 
L 261.790622 53.197766 
L 278.877703 52.704769 
L 295.964785 52.216623 
L 313.051866 51.732807 
L 330.138947 51.252668 
L 347.226029 50.775458 
L 364.31311 50.300362 
L 381.400191 49.826521 
L 398.487273 49.826521 
" clip-path="url(#pf32e1b5c60)" style="fill: none; stroke: #ff7f0e; stroke-width: 1.5; stroke-linecap: square"/>
   </g>
   <g id="line2d_25">
    <path d="M 73.832727 55.568032 
L 90.919809 55.361682 
L 108.00689 55.117925 
L 125.093971 54.844968 
L 142.181053 54.549529 
L 159.268134 54.237017 
L 176.355215 53.911731 
L 193.442297 53.57704 
L 210.529378 53.23556 
L 227.616459 52.889292 
L 244.703541 52.539746 
L 261.790622 52.188038 
L 278.877703 51.834974 
L 295.964785 51.481112 
L 313.051866 51.12682 
L 330.138947 50.772314 
L 347.226029 50.417695 
L 364.31311 50.06298 
L 381.400191 49.708124 
L 398.487273 49.708124 
" clip-path="url(#pf32e1b5c60)" style="fill: none; stroke: #2ca02c; stroke-width: 1.5; stroke-linecap: square"/>
   </g>
   <g id="patch_5">
    <path d="M 57.6 87.353379 
L 57.6 41.472 
" style="fill: none; stroke: #000000; stroke-width: 0.8; stroke-linejoin: miter; stroke-linecap: square"/>
   </g>
   <g id="patch_6">
    <path d="M 414.72 87.353379 
L 414.72 41.472 
" style="fill: none; stroke: #000000; stroke-width: 0.8; stroke-linejoin: miter; stroke-linecap: square"/>
   </g>
   <g id="patch_7">
    <path d="M 57.6 87.353379 
L 414.72 87.353379 
" style="fill: none; stroke: #000000; stroke-width: 0.8; stroke-linejoin: miter; stroke-linecap: square"/>
   </g>
   <g id="patch_8">
    <path d="M 57.6 41.472 
L 414.72 41.472 
" style="fill: none; stroke: #000000; stroke-width: 0.8; stroke-linejoin: miter; stroke-linecap: square"/>
   </g>
   <g id="text_7">
    <!-- velocity - Container 1  -->
    <g transform="translate(169.779375 38.472)scale(0.12 -0.12)">
     <defs>
      <path id="DejaVuSans-63" d="M 3122 3366 
L 3122 2828 
Q 2878 2963 2633 3030 
Q 2388 3097 2138 3097 
Q 1578 3097 1268 2742 
Q 959 2388 959 1747 
Q 959 1106 1268 751 
Q 1578 397 2138 397 
Q 2388 397 2633 464 
Q 2878 531 3122 666 
L 3122 134 
Q 2881 22 2623 -34 
Q 2366 -91 2075 -91 
Q 1284 -91 818 406 
Q 353 903 353 1747 
Q 353 2603 823 3093 
Q 1294 3584 2113 3584 
Q 2378 3584 2631 3529 
Q 2884 3475 3122 3366 
z
" transform="scale(0.015625)"/>
      <path id="DejaVuSans-74" d="M 1172 4494 
L 1172 3500 
L 2356 3500 
L 2356 3053 
L 1172 3053 
L 1172 1153 
Q 1172 725 1289 603 
Q 1406 481 1766 481 
L 2356 481 
L 2356 0 
L 1766 0 
Q 1100 0 847 248 
Q 594 497 594 1153 
L 594 3053 
L 172 3053 
L 172 3500 
L 594 3500 
L 594 4494 
L 1172 4494 
z
" transform="scale(0.015625)"/>
      <path id="DejaVuSans-79" d="M 2059 -325 
Q 1816 -950 1584 -1140 
Q 1353 -1331 966 -1331 
L 506 -1331 
L 506 -850 
L 844 -850 
Q 1081 -850 1212 -737 
Q 1344 -625 1503 -206 
L 1606 56 
L 191 3500 
L 800 3500 
L 1894 763 
L 2988 3500 
L 3597 3500 
L 2059 -325 
z
" transform="scale(0.015625)"/>
      <path id="DejaVuSans-2d" d="M 313 2009 
L 1997 2009 
L 1997 1497 
L 313 1497 
L 313 2009 
z
" transform="scale(0.015625)"/>
      <path id="DejaVuSans-43" d="M 4122 4306 
L 4122 3641 
Q 3803 3938 3442 4084 
Q 3081 4231 2675 4231 
Q 1875 4231 1450 3742 
Q 1025 3253 1025 2328 
Q 1025 1406 1450 917 
Q 1875 428 2675 428 
Q 3081 428 3442 575 
Q 3803 722 4122 1019 
L 4122 359 
Q 3791 134 3420 21 
Q 3050 -91 2638 -91 
Q 1578 -91 968 557 
Q 359 1206 359 2328 
Q 359 3453 968 4101 
Q 1578 4750 2638 4750 
Q 3056 4750 3426 4639 
Q 3797 4528 4122 4306 
z
" transform="scale(0.015625)"/>
      <path id="DejaVuSans-31" d="M 794 531 
L 1825 531 
L 1825 4091 
L 703 3866 
L 703 4441 
L 1819 4666 
L 2450 4666 
L 2450 531 
L 3481 531 
L 3481 0 
L 794 0 
L 794 531 
z
" transform="scale(0.015625)"/>
     </defs>
     <use xlink:href="#DejaVuSans-76"/>
     <use xlink:href="#DejaVuSans-65" x="59.179688"/>
     <use xlink:href="#DejaVuSans-6c" x="120.703125"/>
     <use xlink:href="#DejaVuSans-6f" x="148.486328"/>
     <use xlink:href="#DejaVuSans-63" x="209.667969"/>
     <use xlink:href="#DejaVuSans-69" x="264.648438"/>
     <use xlink:href="#DejaVuSans-74" x="292.431641"/>
     <use xlink:href="#DejaVuSans-79" x="331.640625"/>
     <use xlink:href="#DejaVuSans-20" x="390.820312"/>
     <use xlink:href="#DejaVuSans-2d" x="422.607422"/>
     <use xlink:href="#DejaVuSans-20" x="458.691406"/>
     <use xlink:href="#DejaVuSans-43" x="490.478516"/>
     <use xlink:href="#DejaVuSans-6f" x="560.302734"/>
     <use xlink:href="#DejaVuSans-6e" x="621.484375"/>
     <use xlink:href="#DejaVuSans-74" x="684.863281"/>
     <use xlink:href="#DejaVuSans-61" x="724.072266"/>
     <use xlink:href="#DejaVuSans-69" x="785.351562"/>
     <use xlink:href="#DejaVuSans-6e" x="813.134766"/>
     <use xlink:href="#DejaVuSans-65" x="876.513672"/>
     <use xlink:href="#DejaVuSans-72" x="938.037109"/>
     <use xlink:href="#DejaVuSans-20" x="979.150391"/>
     <use xlink:href="#DejaVuSans-31" x="1010.9375"/>
     <use xlink:href="#DejaVuSans-20" x="1074.560547"/>
    </g>
   </g>
  </g>
  <g id="axes_3">
   <g id="patch_9">
    <path d="M 57.6 142.411034 
L 414.72 142.411034 
L 414.72 96.529655 
L 57.6 96.529655 
z
" style="fill: #ffffff"/>
   </g>
   <g id="matplotlib.axis_5">
    <g id="xtick_9">
     <g id="line2d_26">
      <g>
       <use xlink:href="#m04f9a39b40" x="73.832727" y="142.411034" style="stroke: #000000; stroke-width: 0.8"/>
      </g>
     </g>
    </g>
    <g id="xtick_10">
     <g id="line2d_27">
      <g>
       <use xlink:href="#m04f9a39b40" x="116.550431" y="142.411034" style="stroke: #000000; stroke-width: 0.8"/>
      </g>
     </g>
    </g>
    <g id="xtick_11">
     <g id="line2d_28">
      <g>
       <use xlink:href="#m04f9a39b40" x="159.268134" y="142.411034" style="stroke: #000000; stroke-width: 0.8"/>
      </g>
     </g>
    </g>
    <g id="xtick_12">
     <g id="line2d_29">
      <g>
       <use xlink:href="#m04f9a39b40" x="201.985837" y="142.411034" style="stroke: #000000; stroke-width: 0.8"/>
      </g>
     </g>
    </g>
    <g id="xtick_13">
     <g id="line2d_30">
      <g>
       <use xlink:href="#m04f9a39b40" x="244.703541" y="142.411034" style="stroke: #000000; stroke-width: 0.8"/>
      </g>
     </g>
    </g>
    <g id="xtick_14">
     <g id="line2d_31">
      <g>
       <use xlink:href="#m04f9a39b40" x="287.421244" y="142.411034" style="stroke: #000000; stroke-width: 0.8"/>
      </g>
     </g>
    </g>
    <g id="xtick_15">
     <g id="line2d_32">
      <g>
       <use xlink:href="#m04f9a39b40" x="330.138947" y="142.411034" style="stroke: #000000; stroke-width: 0.8"/>
      </g>
     </g>
    </g>
    <g id="xtick_16">
     <g id="line2d_33">
      <g>
       <use xlink:href="#m04f9a39b40" x="372.856651" y="142.411034" style="stroke: #000000; stroke-width: 0.8"/>
      </g>
     </g>
    </g>
   </g>
   <g id="matplotlib.axis_6">
    <g id="ytick_5">
     <g id="line2d_34">
      <g>
       <use xlink:href="#m3f0d958946" x="57.6" y="140.749071" style="stroke: #000000; stroke-width: 0.8"/>
      </g>
     </g>
     <g id="text_8">
      <!-- 0 -->
      <g transform="translate(44.2375 144.54829)scale(0.1 -0.1)">
       <use xlink:href="#DejaVuSans-30"/>
      </g>
     </g>
    </g>
    <g id="ytick_6">
     <g id="line2d_35">
      <g>
       <use xlink:href="#m3f0d958946" x="57.6" y="98.771656" style="stroke: #000000; stroke-width: 0.8"/>
      </g>
     </g>
     <g id="text_9">
      <!-- 1 -->
      <g transform="translate(44.2375 102.570875)scale(0.1 -0.1)">
       <use xlink:href="#DejaVuSans-31"/>
      </g>
     </g>
    </g>
   </g>
   <g id="line2d_36">
    <path d="M 73.832727 140.325517 
L 90.919809 140.318191 
L 108.00689 140.311088 
L 125.093971 140.304252 
L 142.181053 140.297722 
L 159.268134 140.291525 
L 176.355215 140.285686 
L 193.442297 140.280222 
L 210.529378 140.275147 
L 227.616459 140.270473 
L 244.703541 140.266207 
L 261.790622 140.262356 
L 278.877703 140.258925 
L 295.964785 140.255917 
L 313.051866 140.253336 
L 330.138947 140.251182 
L 347.226029 140.249457 
L 364.31311 140.248162 
L 381.400191 140.247299 
L 398.487273 140.246867 
" clip-path="url(#p12e36c13d3)" style="fill: none; stroke: #1f77b4; stroke-width: 1.5; stroke-linecap: square"/>
   </g>
   <g id="line2d_37">
    <path d="M 73.832727 99.527922 
L 90.919809 99.528085 
L 108.00689 99.52824 
L 125.093971 99.528385 
L 142.181053 99.528522 
L 159.268134 99.52865 
L 176.355215 99.528769 
L 193.442297 99.52888 
L 210.529378 99.528982 
L 227.616459 99.529076 
L 244.703541 99.529161 
L 261.790622 99.529237 
L 278.877703 99.529305 
L 295.964785 99.529365 
L 313.051866 99.529416 
L 330.138947 99.529458 
L 347.226029 99.529492 
L 364.31311 99.529517 
L 381.400191 99.529534 
L 398.487273 99.529543 
" clip-path="url(#p12e36c13d3)" style="fill: none; stroke: #ff7f0e; stroke-width: 1.5; stroke-linecap: square"/>
   </g>
   <g id="line2d_38">
    <path d="M 73.832727 98.615187 
L 90.919809 98.623197 
L 108.00689 98.631209 
L 125.093971 98.639223 
L 142.181053 98.647238 
L 159.268134 98.655254 
L 176.355215 98.663272 
L 193.442297 98.671291 
L 210.529378 98.679312 
L 227.616459 98.687334 
L 244.703541 98.695358 
L 261.790622 98.703383 
L 278.877703 98.711409 
L 295.964785 98.719437 
L 313.051866 98.727467 
L 330.138947 98.735498 
L 347.226029 98.74353 
L 364.31311 98.751564 
L 381.400191 98.7596 
L 398.487273 98.767637 
" clip-path="url(#p12e36c13d3)" style="fill: none; stroke: #2ca02c; stroke-width: 1.5; stroke-linecap: square"/>
   </g>
   <g id="line2d_39">
    <path d="M 73.832727 98.615172 
L 90.919809 98.623183 
L 108.00689 98.631195 
L 125.093971 98.639209 
L 142.181053 98.647224 
L 159.268134 98.655241 
L 176.355215 98.663259 
L 193.442297 98.671279 
L 210.529378 98.6793 
L 227.616459 98.687323 
L 244.703541 98.695348 
L 261.790622 98.703373 
L 278.877703 98.711401 
L 295.964785 98.71943 
L 313.051866 98.72746 
L 330.138947 98.735492 
L 347.226029 98.743526 
L 364.31311 98.751561 
L 381.400191 98.759598 
L 398.487273 98.767636 
" clip-path="url(#p12e36c13d3)" style="fill: none; stroke: #d62728; stroke-width: 1.5; stroke-linecap: square"/>
   </g>
   <g id="line2d_40">
    <path d="M 73.832727 122.620849 
L 90.919809 122.621015 
L 108.00689 122.621345 
L 125.093971 122.621841 
L 142.181053 122.622502 
L 159.268134 122.623328 
L 176.355215 122.62432 
L 193.442297 122.625477 
L 210.529378 122.6268 
L 227.616459 122.628288 
L 244.703541 122.629941 
L 261.790622 122.63176 
L 278.877703 122.633744 
L 295.964785 122.635894 
L 313.051866 122.63821 
L 330.138947 122.640691 
L 347.226029 122.643338 
L 364.31311 122.646151 
L 381.400191 122.64913 
L 398.487273 122.652275 
" clip-path="url(#p12e36c13d3)" style="fill: none; stroke: #9467bd; stroke-width: 1.5; stroke-linecap: square"/>
   </g>
   <g id="line2d_41">
    <path d="M 73.832727 136.282569 
L 90.919809 136.282636 
L 108.00689 136.282772 
L 125.093971 136.282975 
L 142.181053 136.283245 
L 159.268134 136.283583 
L 176.355215 136.283989 
L 193.442297 136.284461 
L 210.529378 136.285002 
L 227.616459 136.285609 
L 244.703541 136.286284 
L 261.790622 136.287025 
L 278.877703 136.287834 
L 295.964785 136.288709 
L 313.051866 136.289651 
L 330.138947 136.29066 
L 347.226029 136.291735 
L 364.31311 136.292875 
L 381.400191 136.294082 
L 398.487273 136.295354 
" clip-path="url(#p12e36c13d3)" style="fill: none; stroke: #8c564b; stroke-width: 1.5; stroke-linecap: square"/>
   </g>
   <g id="line2d_42">
    <path d="M 73.832727 136.546224 
L 90.919809 136.546226 
L 108.00689 136.546231 
L 125.093971 136.546237 
L 142.181053 136.546247 
L 159.268134 136.546258 
L 176.355215 136.546272 
L 193.442297 136.546288 
L 210.529378 136.546306 
L 227.616459 136.546326 
L 244.703541 136.546349 
L 261.790622 136.546374 
L 278.877703 136.546401 
L 295.964785 136.54643 
L 313.051866 136.546462 
L 330.138947 136.546496 
L 347.226029 136.546532 
L 364.31311 136.54657 
L 381.400191 136.54661 
L 398.487273 136.546653 
" clip-path="url(#p12e36c13d3)" style="fill: none; stroke: #e377c2; stroke-width: 1.5; stroke-linecap: square"/>
   </g>
   <g id="line2d_43">
    <path d="M 73.832727 136.551212 
L 90.919809 136.551212 
L 108.00689 136.551212 
L 125.093971 136.551212 
L 142.181053 136.551213 
L 159.268134 136.551213 
L 176.355215 136.551214 
L 193.442297 136.551215 
L 210.529378 136.551216 
L 227.616459 136.551217 
L 244.703541 136.551218 
L 261.790622 136.551219 
L 278.877703 136.55122 
L 295.964785 136.551222 
L 313.051866 136.551223 
L 330.138947 136.551225 
L 347.226029 136.551227 
L 364.31311 136.551228 
L 381.400191 136.55123 
L 398.487273 136.551232 
" clip-path="url(#p12e36c13d3)" style="fill: none; stroke: #7f7f7f; stroke-width: 1.5; stroke-linecap: square"/>
   </g>
   <g id="line2d_44">
    <path d="M 73.832727 139.789167 
L 90.919809 139.739354 
L 108.00689 139.695186 
L 125.093971 139.655793 
L 142.181053 139.620521 
L 159.268134 139.588869 
L 176.355215 139.560444 
L 193.442297 139.534932 
L 210.529378 139.512078 
L 227.616459 139.491676 
L 244.703541 139.473555 
L 261.790622 139.457575 
L 278.877703 139.443619 
L 295.964785 139.43159 
L 313.051866 139.421411 
L 330.138947 139.413017 
L 347.226029 139.406359 
L 364.31311 139.401396 
L 381.400191 139.398102 
L 398.487273 139.396459 
" clip-path="url(#p12e36c13d3)" style="fill: none; stroke: #bcbd22; stroke-width: 1.5; stroke-linecap: square"/>
   </g>
   <g id="line2d_45">
    <path d="M 73.832727 140.294788 
L 90.919809 140.253392 
L 108.00689 140.217047 
L 125.093971 140.184895 
L 142.181053 140.156299 
L 159.268134 140.13078 
L 176.355215 140.107967 
L 193.442297 140.087568 
L 210.529378 140.069352 
L 227.616459 140.053132 
L 244.703541 140.038756 
L 261.790622 140.026102 
L 278.877703 140.015066 
L 295.964785 140.005566 
L 313.051866 139.997534 
L 330.138947 139.990916 
L 347.226029 139.985669 
L 364.31311 139.98176 
L 381.400191 139.979165 
L 398.487273 139.977871 
" clip-path="url(#p12e36c13d3)" style="fill: none; stroke: #17becf; stroke-width: 1.5; stroke-linecap: square"/>
   </g>
   <g id="line2d_46">
    <path d="M 73.832727 140.317637 
L 90.919809 140.296554 
L 108.00689 140.276862 
L 125.093971 140.258582 
L 142.181053 140.24169 
L 159.268134 140.226144 
L 176.355215 140.211894 
L 193.442297 140.198886 
L 210.529378 140.187069 
L 227.616459 140.176395 
L 244.703541 140.166821 
L 261.790622 140.158308 
L 278.877703 140.150821 
L 295.964785 140.144331 
L 313.051866 140.138812 
L 330.138947 140.134244 
L 347.226029 140.130608 
L 364.31311 140.127892 
L 381.400191 140.126086 
L 398.487273 140.125184 
" clip-path="url(#p12e36c13d3)" style="fill: none; stroke: #1f77b4; stroke-width: 1.5; stroke-linecap: square"/>
   </g>
   <g id="line2d_47">
    <path d="M 73.832727 140.322533 
L 90.919809 140.309692 
L 108.00689 140.297417 
L 125.093971 140.285773 
L 142.181053 140.2748 
L 159.268134 140.264523 
L 176.355215 140.254956 
L 193.442297 140.246104 
L 210.529378 140.237966 
L 227.616459 140.230539 
L 244.703541 140.223818 
L 261.790622 140.217794 
L 278.877703 140.212462 
L 295.964785 140.207813 
L 313.051866 140.203841 
L 330.138947 140.200541 
L 347.226029 140.197906 
L 364.31311 140.195933 
L 381.400191 140.194619 
L 398.487273 140.193963 
" clip-path="url(#p12e36c13d3)" style="fill: none; stroke: #ff7f0e; stroke-width: 1.5; stroke-linecap: square"/>
   </g>
   <g id="line2d_48">
    <path d="M 73.832727 140.32483 
L 90.919809 140.31621 
L 108.00689 140.307876 
L 125.093971 140.299881 
L 142.181053 140.292263 
L 159.268134 140.285056 
L 176.355215 140.278282 
L 193.442297 140.27196 
L 210.529378 140.266101 
L 227.616459 140.260716 
L 244.703541 140.255811 
L 261.790622 140.251392 
L 278.877703 140.24746 
L 295.964785 140.244017 
L 313.051866 140.241066 
L 330.138947 140.238606 
L 347.226029 140.236637 
L 364.31311 140.23516 
L 381.400191 140.234176 
L 398.487273 140.233683 
" clip-path="url(#p12e36c13d3)" style="fill: none; stroke: #2ca02c; stroke-width: 1.5; stroke-linecap: square"/>
   </g>
   <g id="patch_10">
    <path d="M 57.6 142.411034 
L 57.6 96.529655 
" style="fill: none; stroke: #000000; stroke-width: 0.8; stroke-linejoin: miter; stroke-linecap: square"/>
   </g>
   <g id="patch_11">
    <path d="M 414.72 142.411034 
L 414.72 96.529655 
" style="fill: none; stroke: #000000; stroke-width: 0.8; stroke-linejoin: miter; stroke-linecap: square"/>
   </g>
   <g id="patch_12">
    <path d="M 57.6 142.411034 
L 414.72 142.411034 
" style="fill: none; stroke: #000000; stroke-width: 0.8; stroke-linejoin: miter; stroke-linecap: square"/>
   </g>
   <g id="patch_13">
    <path d="M 57.6 96.529655 
L 414.72 96.529655 
" style="fill: none; stroke: #000000; stroke-width: 0.8; stroke-linejoin: miter; stroke-linecap: square"/>
   </g>
   <g id="text_10">
    <!-- Pressure - Container 1 -->
    <g transform="translate(169.523438 93.529655)scale(0.12 -0.12)">
     <defs>
      <path id="DejaVuSans-50" d="M 1259 4147 
L 1259 2394 
L 2053 2394 
Q 2494 2394 2734 2622 
Q 2975 2850 2975 3272 
Q 2975 3691 2734 3919 
Q 2494 4147 2053 4147 
L 1259 4147 
z
M 628 4666 
L 2053 4666 
Q 2838 4666 3239 4311 
Q 3641 3956 3641 3272 
Q 3641 2581 3239 2228 
Q 2838 1875 2053 1875 
L 1259 1875 
L 1259 0 
L 628 0 
L 628 4666 
z
" transform="scale(0.015625)"/>
      <path id="DejaVuSans-75" d="M 544 1381 
L 544 3500 
L 1119 3500 
L 1119 1403 
Q 1119 906 1312 657 
Q 1506 409 1894 409 
Q 2359 409 2629 706 
Q 2900 1003 2900 1516 
L 2900 3500 
L 3475 3500 
L 3475 0 
L 2900 0 
L 2900 538 
Q 2691 219 2414 64 
Q 2138 -91 1772 -91 
Q 1169 -91 856 284 
Q 544 659 544 1381 
z
M 1991 3584 
L 1991 3584 
z
" transform="scale(0.015625)"/>
     </defs>
     <use xlink:href="#DejaVuSans-50"/>
     <use xlink:href="#DejaVuSans-72" x="58.552734"/>
     <use xlink:href="#DejaVuSans-65" x="97.416016"/>
     <use xlink:href="#DejaVuSans-73" x="158.939453"/>
     <use xlink:href="#DejaVuSans-73" x="211.039062"/>
     <use xlink:href="#DejaVuSans-75" x="263.138672"/>
     <use xlink:href="#DejaVuSans-72" x="326.517578"/>
     <use xlink:href="#DejaVuSans-65" x="365.380859"/>
     <use xlink:href="#DejaVuSans-20" x="426.904297"/>
     <use xlink:href="#DejaVuSans-2d" x="458.691406"/>
     <use xlink:href="#DejaVuSans-20" x="494.775391"/>
     <use xlink:href="#DejaVuSans-43" x="526.5625"/>
     <use xlink:href="#DejaVuSans-6f" x="596.386719"/>
     <use xlink:href="#DejaVuSans-6e" x="657.568359"/>
     <use xlink:href="#DejaVuSans-74" x="720.947266"/>
     <use xlink:href="#DejaVuSans-61" x="760.15625"/>
     <use xlink:href="#DejaVuSans-69" x="821.435547"/>
     <use xlink:href="#DejaVuSans-6e" x="849.21875"/>
     <use xlink:href="#DejaVuSans-65" x="912.597656"/>
     <use xlink:href="#DejaVuSans-72" x="974.121094"/>
     <use xlink:href="#DejaVuSans-20" x="1015.234375"/>
     <use xlink:href="#DejaVuSans-31" x="1047.021484"/>
    </g>
   </g>
  </g>
  <g id="axes_4">
   <g id="patch_14">
    <path d="M 57.6 197.46869 
L 414.72 197.46869 
L 414.72 151.58731 
L 57.6 151.58731 
z
" style="fill: #ffffff"/>
   </g>
   <g id="matplotlib.axis_7">
    <g id="xtick_17">
     <g id="line2d_49">
      <g>
       <use xlink:href="#m04f9a39b40" x="73.832727" y="197.46869" style="stroke: #000000; stroke-width: 0.8"/>
      </g>
     </g>
    </g>
    <g id="xtick_18">
     <g id="line2d_50">
      <g>
       <use xlink:href="#m04f9a39b40" x="116.550431" y="197.46869" style="stroke: #000000; stroke-width: 0.8"/>
      </g>
     </g>
    </g>
    <g id="xtick_19">
     <g id="line2d_51">
      <g>
       <use xlink:href="#m04f9a39b40" x="159.268134" y="197.46869" style="stroke: #000000; stroke-width: 0.8"/>
      </g>
     </g>
    </g>
    <g id="xtick_20">
     <g id="line2d_52">
      <g>
       <use xlink:href="#m04f9a39b40" x="201.985837" y="197.46869" style="stroke: #000000; stroke-width: 0.8"/>
      </g>
     </g>
    </g>
    <g id="xtick_21">
     <g id="line2d_53">
      <g>
       <use xlink:href="#m04f9a39b40" x="244.703541" y="197.46869" style="stroke: #000000; stroke-width: 0.8"/>
      </g>
     </g>
    </g>
    <g id="xtick_22">
     <g id="line2d_54">
      <g>
       <use xlink:href="#m04f9a39b40" x="287.421244" y="197.46869" style="stroke: #000000; stroke-width: 0.8"/>
      </g>
     </g>
    </g>
    <g id="xtick_23">
     <g id="line2d_55">
      <g>
       <use xlink:href="#m04f9a39b40" x="330.138947" y="197.46869" style="stroke: #000000; stroke-width: 0.8"/>
      </g>
     </g>
    </g>
    <g id="xtick_24">
     <g id="line2d_56">
      <g>
       <use xlink:href="#m04f9a39b40" x="372.856651" y="197.46869" style="stroke: #000000; stroke-width: 0.8"/>
      </g>
     </g>
    </g>
   </g>
   <g id="matplotlib.axis_8">
    <g id="ytick_7">
     <g id="line2d_57">
      <g>
       <use xlink:href="#m3f0d958946" x="57.6" y="185.22944" style="stroke: #000000; stroke-width: 0.8"/>
      </g>
     </g>
     <g id="text_11">
      <!-- 0.048 -->
      <g transform="translate(21.971875 189.028658)scale(0.1 -0.1)">
       <defs>
        <path id="DejaVuSans-2e" d="M 684 794 
L 1344 794 
L 1344 0 
L 684 0 
L 684 794 
z
" transform="scale(0.015625)"/>
        <path id="DejaVuSans-34" d="M 2419 4116 
L 825 1625 
L 2419 1625 
L 2419 4116 
z
M 2253 4666 
L 3047 4666 
L 3047 1625 
L 3713 1625 
L 3713 1100 
L 3047 1100 
L 3047 0 
L 2419 0 
L 2419 1100 
L 313 1100 
L 313 1709 
L 2253 4666 
z
" transform="scale(0.015625)"/>
        <path id="DejaVuSans-38" d="M 2034 2216 
Q 1584 2216 1326 1975 
Q 1069 1734 1069 1313 
Q 1069 891 1326 650 
Q 1584 409 2034 409 
Q 2484 409 2743 651 
Q 3003 894 3003 1313 
Q 3003 1734 2745 1975 
Q 2488 2216 2034 2216 
z
M 1403 2484 
Q 997 2584 770 2862 
Q 544 3141 544 3541 
Q 544 4100 942 4425 
Q 1341 4750 2034 4750 
Q 2731 4750 3128 4425 
Q 3525 4100 3525 3541 
Q 3525 3141 3298 2862 
Q 3072 2584 2669 2484 
Q 3125 2378 3379 2068 
Q 3634 1759 3634 1313 
Q 3634 634 3220 271 
Q 2806 -91 2034 -91 
Q 1263 -91 848 271 
Q 434 634 434 1313 
Q 434 1759 690 2068 
Q 947 2378 1403 2484 
z
M 1172 3481 
Q 1172 3119 1398 2916 
Q 1625 2713 2034 2713 
Q 2441 2713 2670 2916 
Q 2900 3119 2900 3481 
Q 2900 3844 2670 4047 
Q 2441 4250 2034 4250 
Q 1625 4250 1398 4047 
Q 1172 3844 1172 3481 
z
" transform="scale(0.015625)"/>
       </defs>
       <use xlink:href="#DejaVuSans-30"/>
       <use xlink:href="#DejaVuSans-2e" x="63.623047"/>
       <use xlink:href="#DejaVuSans-30" x="95.410156"/>
       <use xlink:href="#DejaVuSans-34" x="159.033203"/>
       <use xlink:href="#DejaVuSans-38" x="222.65625"/>
      </g>
     </g>
    </g>
    <g id="ytick_8">
     <g id="line2d_58">
      <g>
       <use xlink:href="#m3f0d958946" x="57.6" y="158.766692" style="stroke: #000000; stroke-width: 0.8"/>
      </g>
     </g>
     <g id="text_12">
      <!-- 0.050 -->
      <g transform="translate(21.971875 162.565911)scale(0.1 -0.1)">
       <use xlink:href="#DejaVuSans-30"/>
       <use xlink:href="#DejaVuSans-2e" x="63.623047"/>
       <use xlink:href="#DejaVuSans-30" x="95.410156"/>
       <use xlink:href="#DejaVuSans-35" x="159.033203"/>
       <use xlink:href="#DejaVuSans-30" x="222.65625"/>
      </g>
     </g>
    </g>
   </g>
   <g id="line2d_59">
    <path d="M 73.832727 195.046013 
L 90.919809 195.3324 
L 108.00689 195.383172 
L 125.093971 195.297614 
L 142.181053 195.129796 
L 159.268134 194.911721 
L 176.355215 194.663549 
L 193.442297 194.398697 
L 210.529378 194.126603 
L 227.616459 193.854326 
L 244.703541 193.587495 
L 261.790622 193.330902 
L 278.877703 193.088855 
L 295.964785 192.865394 
L 313.051866 192.664392 
L 330.138947 192.489585 
L 347.226029 192.344571 
L 364.31311 192.23284 
L 381.400191 192.158078 
L 398.487273 192.124672 
" clip-path="url(#p0f7ee67e18)" style="fill: none; stroke: #1f77b4; stroke-width: 1.5; stroke-linecap: square"/>
   </g>
   <g id="line2d_60">
    <path d="M 73.832727 154.379227 
L 90.919809 154.515581 
L 108.00689 154.422291 
L 125.093971 154.193857 
L 142.181053 153.966761 
L 159.268134 153.796083 
L 176.355215 153.699019 
L 193.442297 153.672828 
L 210.529378 153.704414 
L 227.616459 153.777161 
L 244.703541 153.874793 
L 261.790622 153.982946 
L 278.877703 154.089789 
L 295.964785 154.18627 
L 313.051866 154.266109 
L 330.138947 154.325633 
L 347.226029 154.36349 
L 364.31311 154.380206 
L 381.400191 154.3785 
L 398.487273 154.370302 
" clip-path="url(#p0f7ee67e18)" style="fill: none; stroke: #ff7f0e; stroke-width: 1.5; stroke-linecap: square"/>
   </g>
   <g id="line2d_61">
    <path d="M 73.832727 157.831395 
L 90.919809 157.125449 
L 108.00689 156.538855 
L 125.093971 156.021925 
L 142.181053 155.563194 
L 159.268134 155.163935 
L 176.355215 154.828166 
L 193.442297 154.558351 
L 210.529378 154.353724 
L 227.616459 154.210217 
L 244.703541 154.12116 
L 261.790622 154.078193 
L 278.877703 154.072152 
L 295.964785 154.09384 
L 313.051866 154.134643 
L 330.138947 154.186994 
L 347.226029 154.244672 
L 364.31311 154.302953 
L 381.400191 154.358772 
L 398.487273 154.410048 
" clip-path="url(#p0f7ee67e18)" style="fill: none; stroke: #2ca02c; stroke-width: 1.5; stroke-linecap: square"/>
   </g>
   <g id="line2d_62">
    <path d="M 73.832727 158.731706 
L 90.919809 158.685146 
L 108.00689 158.615538 
L 125.093971 158.517526 
L 142.181053 158.389682 
L 159.268134 158.232985 
L 176.355215 158.050077 
L 193.442297 157.844782 
L 210.529378 157.621747 
L 227.616459 157.38612 
L 244.703541 157.143281 
L 261.790622 156.898585 
L 278.877703 156.657151 
L 295.964785 156.423685 
L 313.051866 156.202361 
L 330.138947 155.996746 
L 347.226029 155.809773 
L 364.31311 155.643752 
L 381.400191 155.500405 
L 398.487273 155.381396 
" clip-path="url(#p0f7ee67e18)" style="fill: none; stroke: #d62728; stroke-width: 1.5; stroke-linecap: square"/>
   </g>
   <g id="line2d_63">
    <path d="M 73.832727 159.269207 
L 90.919809 159.26251 
L 108.00689 159.249509 
L 125.093971 159.227953 
L 142.181053 159.196262 
L 159.268134 159.152797 
L 176.355215 159.096138 
L 193.442297 159.025239 
L 210.529378 158.939515 
L 227.616459 158.838885 
L 244.703541 158.723797 
L 261.790622 158.595209 
L 278.877703 158.454551 
L 295.964785 158.303668 
L 313.051866 158.144753 
L 330.138947 157.980272 
L 347.226029 157.812892 
L 364.31311 157.645412 
L 381.400191 157.480732 
L 398.487273 157.324274 
" clip-path="url(#p0f7ee67e18)" style="fill: none; stroke: #9467bd; stroke-width: 1.5; stroke-linecap: square"/>
   </g>
   <g id="line2d_64">
    <path d="M 73.832727 162.457198 
L 90.919809 162.450734 
L 108.00689 162.438189 
L 125.093971 162.417508 
L 142.181053 162.387205 
L 159.268134 162.345765 
L 176.355215 162.291863 
L 193.442297 162.224511 
L 210.529378 162.143134 
L 227.616459 162.047618 
L 244.703541 161.938328 
L 261.790622 161.8161 
L 278.877703 161.682212 
L 295.964785 161.538334 
L 313.051866 161.386473 
L 330.138947 161.22891 
L 347.226029 161.068133 
L 364.31311 160.906778 
L 381.400191 160.747625 
L 398.487273 160.596721 
" clip-path="url(#p0f7ee67e18)" style="fill: none; stroke: #8c564b; stroke-width: 1.5; stroke-linecap: square"/>
   </g>
   <g id="line2d_65">
    <path d="M 73.832727 162.72232 
L 90.919809 162.7158 
L 108.00689 162.703078 
L 125.093971 162.682162 
L 142.181053 162.651582 
L 159.268134 162.609844 
L 176.355215 162.555642 
L 193.442297 162.488 
L 210.529378 162.406348 
L 227.616459 162.310571 
L 244.703541 162.201031 
L 261.790622 162.078555 
L 278.877703 161.944407 
L 295.964785 161.800247 
L 313.051866 161.648066 
L 330.138947 161.490134 
L 347.226029 161.328927 
L 364.31311 161.167072 
L 381.400191 161.007397 
L 398.487273 160.857548 
" clip-path="url(#p0f7ee67e18)" style="fill: none; stroke: #e377c2; stroke-width: 1.5; stroke-linecap: square"/>
   </g>
   <g id="line2d_66">
    <path d="M 73.832727 162.727587 
L 90.919809 162.72107 
L 108.00689 162.708319 
L 125.093971 162.687378 
L 142.181053 162.656771 
L 159.268134 162.615007 
L 176.355215 162.560781 
L 193.442297 162.493119 
L 210.529378 162.411451 
L 227.616459 162.315664 
L 244.703541 162.206116 
L 261.790622 162.083637 
L 278.877703 161.949489 
L 295.964785 161.805329 
L 313.051866 161.653151 
L 330.138947 161.495219 
L 347.226029 161.334011 
L 364.31311 161.172154 
L 381.400191 161.012552 
L 398.487273 160.864489 
" clip-path="url(#p0f7ee67e18)" style="fill: none; stroke: #7f7f7f; stroke-width: 1.5; stroke-linecap: square"/>
   </g>
   <g id="line2d_67">
    <path d="M 73.832727 176.609412 
L 90.919809 175.830563 
L 108.00689 175.180178 
L 125.093971 174.624781 
L 142.181053 174.140781 
L 159.268134 173.711139 
L 176.355215 173.323287 
L 193.442297 172.96786 
L 210.529378 172.637894 
L 227.616459 172.328283 
L 244.703541 172.035411 
L 261.790622 171.756872 
L 278.877703 171.491264 
L 295.964785 171.238013 
L 313.051866 170.997236 
L 330.138947 170.769623 
L 347.226029 170.556337 
L 364.31311 170.358966 
L 381.400191 170.179865 
L 398.487273 170.027468 
" clip-path="url(#p0f7ee67e18)" style="fill: none; stroke: #bcbd22; stroke-width: 1.5; stroke-linecap: square"/>
   </g>
   <g id="line2d_68">
    <path d="M 73.832727 192.970405 
L 90.919809 191.008189 
L 108.00689 189.394202 
L 125.093971 188.052071 
L 142.181053 186.919339 
L 159.268134 185.94947 
L 176.355215 185.108085 
L 193.442297 184.369659 
L 210.529378 183.715109 
L 227.616459 183.13011 
L 244.703541 182.603916 
L 261.790622 182.128528 
L 278.877703 181.698099 
L 295.964785 181.308489 
L 313.051866 180.956937 
L 330.138947 180.641806 
L 347.226029 180.362402 
L 364.31311 180.118885 
L 381.400191 179.912667 
L 398.487273 179.750644 
" clip-path="url(#p0f7ee67e18)" style="fill: none; stroke: #17becf; stroke-width: 1.5; stroke-linecap: square"/>
   </g>
   <g id="line2d_69">
    <path d="M 73.832727 194.324928 
L 90.919809 193.625086 
L 108.00689 192.831881 
L 125.093971 192.03604 
L 142.181053 191.273552 
L 159.268134 190.557995 
L 176.355215 189.892936 
L 193.442297 189.27751 
L 210.529378 188.709064 
L 227.616459 188.184454 
L 244.703541 187.700673 
L 261.790622 187.255153 
L 278.877703 186.845892 
L 295.964785 186.471483 
L 313.051866 186.131109 
L 330.138947 185.824506 
L 347.226029 185.551935 
L 364.31311 185.314214 
L 381.400191 185.113215 
L 398.487273 184.955737 
" clip-path="url(#p0f7ee67e18)" style="fill: none; stroke: #1f77b4; stroke-width: 1.5; stroke-linecap: square"/>
   </g>
   <g id="line2d_70">
    <path d="M 73.832727 194.670989 
L 90.919809 194.559555 
L 108.00689 194.243929 
L 125.093971 193.830783 
L 142.181053 193.37399 
L 159.268134 192.90278 
L 176.355215 192.433516 
L 193.442297 191.9755 
L 210.529378 191.534064 
L 227.616459 191.112295 
L 244.703541 190.712041 
L 261.790622 190.334511 
L 278.877703 189.980634 
L 295.964785 189.651271 
L 313.051866 189.347349 
L 330.138947 189.069929 
L 347.226029 188.820261 
L 364.31311 188.599886 
L 381.400191 188.411192 
L 398.487273 188.261125 
" clip-path="url(#p0f7ee67e18)" style="fill: none; stroke: #ff7f0e; stroke-width: 1.5; stroke-linecap: square"/>
   </g>
   <g id="line2d_71">
    <path d="M 73.832727 194.889982 
L 90.919809 195.082886 
L 108.00689 195.040445 
L 125.093971 194.865995 
L 142.181053 194.615209 
L 159.268134 194.320582 
L 176.355215 194.002087 
L 193.442297 193.672503 
L 210.529378 193.3403 
L 227.616459 193.011305 
L 244.703541 192.689707 
L 261.790622 192.378681 
L 278.877703 192.080785 
L 295.964785 191.798218 
L 313.051866 191.532984 
L 330.138947 191.286998 
L 347.226029 191.062171 
L 364.31311 190.860544 
L 381.400191 190.684863 
L 398.487273 190.542235 
" clip-path="url(#p0f7ee67e18)" style="fill: none; stroke: #2ca02c; stroke-width: 1.5; stroke-linecap: square"/>
   </g>
   <g id="patch_15">
    <path d="M 57.6 197.46869 
L 57.6 151.58731 
" style="fill: none; stroke: #000000; stroke-width: 0.8; stroke-linejoin: miter; stroke-linecap: square"/>
   </g>
   <g id="patch_16">
    <path d="M 414.72 197.46869 
L 414.72 151.58731 
" style="fill: none; stroke: #000000; stroke-width: 0.8; stroke-linejoin: miter; stroke-linecap: square"/>
   </g>
   <g id="patch_17">
    <path d="M 57.6 197.46869 
L 414.72 197.46869 
" style="fill: none; stroke: #000000; stroke-width: 0.8; stroke-linejoin: miter; stroke-linecap: square"/>
   </g>
   <g id="patch_18">
    <path d="M 57.6 151.58731 
L 414.72 151.58731 
" style="fill: none; stroke: #000000; stroke-width: 0.8; stroke-linejoin: miter; stroke-linecap: square"/>
   </g>
   <g id="text_13">
    <!-- yA - Container 1 -->
    <g transform="translate(187.48125 148.58731)scale(0.12 -0.12)">
     <defs>
      <path id="DejaVuSans-41" d="M 2188 4044 
L 1331 1722 
L 3047 1722 
L 2188 4044 
z
M 1831 4666 
L 2547 4666 
L 4325 0 
L 3669 0 
L 3244 1197 
L 1141 1197 
L 716 0 
L 50 0 
L 1831 4666 
z
" transform="scale(0.015625)"/>
     </defs>
     <use xlink:href="#DejaVuSans-79"/>
     <use xlink:href="#DejaVuSans-41" x="59.179688"/>
     <use xlink:href="#DejaVuSans-20" x="127.587891"/>
     <use xlink:href="#DejaVuSans-2d" x="159.375"/>
     <use xlink:href="#DejaVuSans-20" x="195.458984"/>
     <use xlink:href="#DejaVuSans-43" x="227.246094"/>
     <use xlink:href="#DejaVuSans-6f" x="297.070312"/>
     <use xlink:href="#DejaVuSans-6e" x="358.251953"/>
     <use xlink:href="#DejaVuSans-74" x="421.630859"/>
     <use xlink:href="#DejaVuSans-61" x="460.839844"/>
     <use xlink:href="#DejaVuSans-69" x="522.119141"/>
     <use xlink:href="#DejaVuSans-6e" x="549.902344"/>
     <use xlink:href="#DejaVuSans-65" x="613.28125"/>
     <use xlink:href="#DejaVuSans-72" x="674.804688"/>
     <use xlink:href="#DejaVuSans-20" x="715.917969"/>
     <use xlink:href="#DejaVuSans-31" x="747.705078"/>
    </g>
   </g>
  </g>
  <g id="axes_5">
   <g id="patch_19">
    <path d="M 57.6 252.526345 
L 414.72 252.526345 
L 414.72 206.644966 
L 57.6 206.644966 
z
" style="fill: #ffffff"/>
   </g>
   <g id="matplotlib.axis_9">
    <g id="xtick_25">
     <g id="line2d_72">
      <g>
       <use xlink:href="#m04f9a39b40" x="73.832727" y="252.526345" style="stroke: #000000; stroke-width: 0.8"/>
      </g>
     </g>
    </g>
    <g id="xtick_26">
     <g id="line2d_73">
      <g>
       <use xlink:href="#m04f9a39b40" x="116.550431" y="252.526345" style="stroke: #000000; stroke-width: 0.8"/>
      </g>
     </g>
    </g>
    <g id="xtick_27">
     <g id="line2d_74">
      <g>
       <use xlink:href="#m04f9a39b40" x="159.268134" y="252.526345" style="stroke: #000000; stroke-width: 0.8"/>
      </g>
     </g>
    </g>
    <g id="xtick_28">
     <g id="line2d_75">
      <g>
       <use xlink:href="#m04f9a39b40" x="201.985837" y="252.526345" style="stroke: #000000; stroke-width: 0.8"/>
      </g>
     </g>
    </g>
    <g id="xtick_29">
     <g id="line2d_76">
      <g>
       <use xlink:href="#m04f9a39b40" x="244.703541" y="252.526345" style="stroke: #000000; stroke-width: 0.8"/>
      </g>
     </g>
    </g>
    <g id="xtick_30">
     <g id="line2d_77">
      <g>
       <use xlink:href="#m04f9a39b40" x="287.421244" y="252.526345" style="stroke: #000000; stroke-width: 0.8"/>
      </g>
     </g>
    </g>
    <g id="xtick_31">
     <g id="line2d_78">
      <g>
       <use xlink:href="#m04f9a39b40" x="330.138947" y="252.526345" style="stroke: #000000; stroke-width: 0.8"/>
      </g>
     </g>
    </g>
    <g id="xtick_32">
     <g id="line2d_79">
      <g>
       <use xlink:href="#m04f9a39b40" x="372.856651" y="252.526345" style="stroke: #000000; stroke-width: 0.8"/>
      </g>
     </g>
    </g>
   </g>
   <g id="matplotlib.axis_10">
    <g id="ytick_9">
     <g id="line2d_80">
      <g>
       <use xlink:href="#m3f0d958946" x="57.6" y="246.003046" style="stroke: #000000; stroke-width: 0.8"/>
      </g>
     </g>
     <g id="text_14">
      <!-- 0.898 -->
      <g transform="translate(21.971875 249.802265)scale(0.1 -0.1)">
       <defs>
        <path id="DejaVuSans-39" d="M 703 97 
L 703 672 
Q 941 559 1184 500 
Q 1428 441 1663 441 
Q 2288 441 2617 861 
Q 2947 1281 2994 2138 
Q 2813 1869 2534 1725 
Q 2256 1581 1919 1581 
Q 1219 1581 811 2004 
Q 403 2428 403 3163 
Q 403 3881 828 4315 
Q 1253 4750 1959 4750 
Q 2769 4750 3195 4129 
Q 3622 3509 3622 2328 
Q 3622 1225 3098 567 
Q 2575 -91 1691 -91 
Q 1453 -91 1209 -44 
Q 966 3 703 97 
z
M 1959 2075 
Q 2384 2075 2632 2365 
Q 2881 2656 2881 3163 
Q 2881 3666 2632 3958 
Q 2384 4250 1959 4250 
Q 1534 4250 1286 3958 
Q 1038 3666 1038 3163 
Q 1038 2656 1286 2365 
Q 1534 2075 1959 2075 
z
" transform="scale(0.015625)"/>
       </defs>
       <use xlink:href="#DejaVuSans-30"/>
       <use xlink:href="#DejaVuSans-2e" x="63.623047"/>
       <use xlink:href="#DejaVuSans-38" x="95.410156"/>
       <use xlink:href="#DejaVuSans-39" x="159.033203"/>
       <use xlink:href="#DejaVuSans-38" x="222.65625"/>
      </g>
     </g>
    </g>
    <g id="ytick_10">
     <g id="line2d_81">
      <g>
       <use xlink:href="#m3f0d958946" x="57.6" y="213.135265" style="stroke: #000000; stroke-width: 0.8"/>
      </g>
     </g>
     <g id="text_15">
      <!-- 0.900 -->
      <g transform="translate(21.971875 216.934483)scale(0.1 -0.1)">
       <use xlink:href="#DejaVuSans-30"/>
       <use xlink:href="#DejaVuSans-2e" x="63.623047"/>
       <use xlink:href="#DejaVuSans-39" x="95.410156"/>
       <use xlink:href="#DejaVuSans-30" x="159.033203"/>
       <use xlink:href="#DejaVuSans-30" x="222.65625"/>
      </g>
     </g>
    </g>
   </g>
   <g id="line2d_82">
    <path d="M 73.832727 211.541691 
L 90.919809 211.080115 
L 108.00689 210.705626 
L 125.093971 210.400542 
L 142.181053 210.163152 
L 159.268134 210.005594 
L 176.355215 209.951205 
L 193.442297 210.033247 
L 210.529378 210.294627 
L 227.616459 210.78825 
L 244.703541 211.577693 
L 261.790622 212.737902 
L 278.877703 214.355613 
L 295.964785 216.529232 
L 313.051866 219.367978 
L 330.138947 222.990114 
L 347.226029 227.520043 
L 364.31311 233.082536 
L 381.400191 239.776029 
L 398.487273 247.410384 
" clip-path="url(#p43f1d76e79)" style="fill: none; stroke: #1f77b4; stroke-width: 1.5; stroke-linecap: square"/>
   </g>
   <g id="line2d_83">
    <path d="M 73.832727 215.187709 
L 90.919809 215.049951 
L 108.00689 215.056071 
L 125.093971 215.280198 
L 142.181053 215.586917 
L 159.268134 215.889556 
L 176.355215 216.154251 
L 193.442297 216.391228 
L 210.529378 216.644315 
L 227.616459 216.981403 
L 244.703541 217.488727 
L 261.790622 218.268366 
L 278.877703 219.437574 
L 295.964785 221.128687 
L 313.051866 223.488829 
L 330.138947 226.678904 
L 347.226029 230.871211 
L 364.31311 236.242738 
L 381.400191 242.930267 
L 398.487273 250.440828 
" clip-path="url(#p43f1d76e79)" style="fill: none; stroke: #ff7f0e; stroke-width: 1.5; stroke-linecap: square"/>
   </g>
   <g id="line2d_84">
    <path d="M 73.832727 212.878306 
L 90.919809 213.036273 
L 108.00689 213.275101 
L 125.093971 213.583193 
L 142.181053 213.949198 
L 159.268134 214.348756 
L 176.355215 214.757512 
L 193.442297 215.162258 
L 210.529378 215.567324 
L 227.616459 215.997044 
L 244.703541 216.496026 
L 261.790622 217.128503 
L 278.877703 217.977543 
L 295.964785 219.144329 
L 313.051866 220.747413 
L 330.138947 222.921712 
L 347.226029 225.816791 
L 364.31311 229.592457 
L 381.400191 234.390491 
L 398.487273 240.016163 
" clip-path="url(#p43f1d76e79)" style="fill: none; stroke: #2ca02c; stroke-width: 1.5; stroke-linecap: square"/>
   </g>
   <g id="line2d_85">
    <path d="M 73.832727 213.07425 
L 90.919809 212.959155 
L 108.00689 212.798265 
L 125.093971 212.619796 
L 142.181053 212.452439 
L 159.268134 212.320455 
L 176.355215 212.241849 
L 193.442297 212.228344 
L 210.529378 212.286738 
L 227.616459 212.421163 
L 244.703541 212.635857 
L 261.790622 212.938067 
L 278.877703 213.340861 
L 295.964785 213.865668 
L 313.051866 214.544468 
L 330.138947 215.421579 
L 347.226029 216.554955 
L 364.31311 218.016799 
L 381.400191 219.891272 
L 398.487273 222.221554 
" clip-path="url(#p43f1d76e79)" style="fill: none; stroke: #d62728; stroke-width: 1.5; stroke-linecap: square"/>
   </g>
   <g id="line2d_86">
    <path d="M 73.832727 213.078799 
L 90.919809 213.044738 
L 108.00689 212.97228 
L 125.093971 212.865302 
L 142.181053 212.729405 
L 159.268134 212.574599 
L 176.355215 212.413767 
L 193.442297 212.260904 
L 210.529378 212.129793 
L 227.616459 212.033286 
L 244.703541 211.983247 
L 261.790622 211.991069 
L 278.877703 212.068654 
L 295.964785 212.229703 
L 313.051866 212.4912 
L 330.138947 212.874941 
L 347.226029 213.409029 
L 364.31311 214.129155 
L 381.400191 215.078504 
L 398.487273 216.274955 
" clip-path="url(#p43f1d76e79)" style="fill: none; stroke: #9467bd; stroke-width: 1.5; stroke-linecap: square"/>
   </g>
   <g id="line2d_87">
    <path d="M 73.832727 212.614857 
L 90.919809 212.580432 
L 108.00689 212.506934 
L 125.093971 212.398558 
L 142.181053 212.261098 
L 159.268134 212.104458 
L 176.355215 211.941281 
L 193.442297 211.785281 
L 210.529378 211.649971 
L 227.616459 211.547978 
L 244.703541 211.490975 
L 261.790622 211.490165 
L 278.877703 211.557201 
L 295.964785 211.705411 
L 313.051866 211.951201 
L 330.138947 212.315514 
L 347.226029 212.825255 
L 364.31311 213.514517 
L 381.400191 214.424419 
L 398.487273 215.567435 
" clip-path="url(#p43f1d76e79)" style="fill: none; stroke: #8c564b; stroke-width: 1.5; stroke-linecap: square"/>
   </g>
   <g id="line2d_88">
    <path d="M 73.832727 212.567052 
L 90.919809 212.531728 
L 108.00689 212.455177 
L 125.093971 212.342462 
L 142.181053 212.200158 
L 159.268134 212.038742 
L 176.355215 211.87129 
L 193.442297 211.711822 
L 210.529378 211.574047 
L 227.616459 211.47069 
L 244.703541 211.413452 
L 261.790622 211.413512 
L 278.877703 211.482473 
L 295.964785 211.633605 
L 313.051866 211.883258 
L 330.138947 212.252335 
L 347.226029 212.767715 
L 364.31311 213.463473 
L 381.400191 214.380472 
L 398.487273 215.52281 
" clip-path="url(#p43f1d76e79)" style="fill: none; stroke: #e377c2; stroke-width: 1.5; stroke-linecap: square"/>
   </g>
   <g id="line2d_89">
    <path d="M 73.832727 212.566125 
L 90.919809 212.530766 
L 108.00689 212.454258 
L 125.093971 212.341591 
L 142.181053 212.199356 
L 159.268134 212.038023 
L 176.355215 211.870655 
L 193.442297 211.711266 
L 210.529378 211.573559 
L 227.616459 211.470259 
L 244.703541 211.413069 
L 261.790622 211.413175 
L 278.877703 211.482186 
L 295.964785 211.63338 
L 313.051866 211.883116 
L 330.138947 212.252302 
L 347.226029 212.767824 
L 364.31311 213.463751 
L 381.400191 214.380613 
L 398.487273 215.514147 
" clip-path="url(#p43f1d76e79)" style="fill: none; stroke: #7f7f7f; stroke-width: 1.5; stroke-linecap: square"/>
   </g>
   <g id="line2d_90">
    <path d="M 73.832727 211.247464 
L 90.919809 211.203036 
L 108.00689 211.12801 
L 125.093971 211.02396 
L 142.181053 210.896224 
L 159.268134 210.753984 
L 176.355215 210.608803 
L 193.442297 210.473131 
L 210.529378 210.359231 
L 227.616459 210.278645 
L 244.703541 210.242225 
L 261.790622 210.260614 
L 278.877703 210.34512 
L 295.964785 210.508829 
L 313.051866 210.767867 
L 330.138947 211.142707 
L 347.226029 211.659422 
L 364.31311 212.350614 
L 381.400191 213.253398 
L 398.487273 214.359974 
" clip-path="url(#p43f1d76e79)" style="fill: none; stroke: #bcbd22; stroke-width: 1.5; stroke-linecap: square"/>
   </g>
   <g id="line2d_91">
    <path d="M 73.832727 211.562157 
L 90.919809 211.086828 
L 108.00689 210.74055 
L 125.093971 210.458714 
L 142.181053 210.212228 
L 159.268134 209.990272 
L 176.355215 209.791813 
L 193.442297 209.620886 
L 210.529378 209.48393 
L 227.616459 209.388417 
L 244.703541 209.342354 
L 261.790622 209.354434 
L 278.877703 209.434619 
L 295.964785 209.595016 
L 313.051866 209.850932 
L 330.138947 210.221978 
L 347.226029 210.733125 
L 364.31311 211.415357 
L 381.400191 212.302806 
L 398.487273 213.387382 
" clip-path="url(#p43f1d76e79)" style="fill: none; stroke: #17becf; stroke-width: 1.5; stroke-linecap: square"/>
   </g>
   <g id="line2d_92">
    <path d="M 73.832727 211.675728 
L 90.919809 211.146066 
L 108.00689 210.729735 
L 125.093971 210.380171 
L 142.181053 210.074185 
L 159.268134 209.80224 
L 176.355215 209.562725 
L 193.442297 209.358431 
L 210.529378 209.194426 
L 227.616459 209.07692 
L 244.703541 209.012869 
L 261.790622 209.010129 
L 278.877703 209.078007 
L 295.964785 209.228081 
L 313.051866 209.475173 
L 330.138947 209.838372 
L 347.226029 210.342004 
L 364.31311 211.016141 
L 381.400191 211.893342 
L 398.487273 212.964909 
" clip-path="url(#p43f1d76e79)" style="fill: none; stroke: #1f77b4; stroke-width: 1.5; stroke-linecap: square"/>
   </g>
   <g id="line2d_93">
    <path d="M 73.832727 211.639258 
L 90.919809 211.121879 
L 108.00689 210.696755 
L 125.093971 210.329853 
L 142.181053 210.003734 
L 159.268134 209.711706 
L 176.355215 209.453473 
L 193.442297 209.232324 
L 210.529378 209.053403 
L 227.616459 208.92281 
L 244.703541 208.847322 
L 261.790622 208.834611 
L 278.877703 208.893816 
L 295.964785 209.036349 
L 313.051866 209.276839 
L 330.138947 209.634128 
L 347.226029 210.13219 
L 364.31311 210.800548 
L 381.400191 211.670798 
L 398.487273 212.733556 
" clip-path="url(#p43f1d76e79)" style="fill: none; stroke: #ff7f0e; stroke-width: 1.5; stroke-linecap: square"/>
   </g>
   <g id="line2d_94">
    <path d="M 73.832727 211.576479 
L 90.919809 211.07705 
L 108.00689 210.655412 
L 125.093971 210.285138 
L 142.181053 209.952315 
L 159.268134 209.652179 
L 176.355215 209.385478 
L 193.442297 209.156045 
L 210.529378 208.96929 
L 227.616459 208.831423 
L 244.703541 208.74926 
L 261.790622 208.730483 
L 278.877703 208.784219 
L 295.964785 208.921849 
L 313.051866 209.157941 
L 330.138947 209.511215 
L 347.226029 210.005437 
L 364.31311 210.669782 
L 381.400191 211.535196 
L 398.487273 212.591581 
" clip-path="url(#p43f1d76e79)" style="fill: none; stroke: #2ca02c; stroke-width: 1.5; stroke-linecap: square"/>
   </g>
   <g id="patch_20">
    <path d="M 57.6 252.526345 
L 57.6 206.644966 
" style="fill: none; stroke: #000000; stroke-width: 0.8; stroke-linejoin: miter; stroke-linecap: square"/>
   </g>
   <g id="patch_21">
    <path d="M 414.72 252.526345 
L 414.72 206.644966 
" style="fill: none; stroke: #000000; stroke-width: 0.8; stroke-linejoin: miter; stroke-linecap: square"/>
   </g>
   <g id="patch_22">
    <path d="M 57.6 252.526345 
L 414.72 252.526345 
" style="fill: none; stroke: #000000; stroke-width: 0.8; stroke-linejoin: miter; stroke-linecap: square"/>
   </g>
   <g id="patch_23">
    <path d="M 57.6 206.644966 
L 414.72 206.644966 
" style="fill: none; stroke: #000000; stroke-width: 0.8; stroke-linejoin: miter; stroke-linecap: square"/>
   </g>
   <g id="text_16">
    <!-- yB - Container 1 -->
    <g transform="translate(187.469063 203.644966)scale(0.12 -0.12)">
     <defs>
      <path id="DejaVuSans-42" d="M 1259 2228 
L 1259 519 
L 2272 519 
Q 2781 519 3026 730 
Q 3272 941 3272 1375 
Q 3272 1813 3026 2020 
Q 2781 2228 2272 2228 
L 1259 2228 
z
M 1259 4147 
L 1259 2741 
L 2194 2741 
Q 2656 2741 2882 2914 
Q 3109 3088 3109 3444 
Q 3109 3797 2882 3972 
Q 2656 4147 2194 4147 
L 1259 4147 
z
M 628 4666 
L 2241 4666 
Q 2963 4666 3353 4366 
Q 3744 4066 3744 3513 
Q 3744 3084 3544 2831 
Q 3344 2578 2956 2516 
Q 3422 2416 3680 2098 
Q 3938 1781 3938 1306 
Q 3938 681 3513 340 
Q 3088 0 2303 0 
L 628 0 
L 628 4666 
z
" transform="scale(0.015625)"/>
     </defs>
     <use xlink:href="#DejaVuSans-79"/>
     <use xlink:href="#DejaVuSans-42" x="59.179688"/>
     <use xlink:href="#DejaVuSans-20" x="127.783203"/>
     <use xlink:href="#DejaVuSans-2d" x="159.570312"/>
     <use xlink:href="#DejaVuSans-20" x="195.654297"/>
     <use xlink:href="#DejaVuSans-43" x="227.441406"/>
     <use xlink:href="#DejaVuSans-6f" x="297.265625"/>
     <use xlink:href="#DejaVuSans-6e" x="358.447266"/>
     <use xlink:href="#DejaVuSans-74" x="421.826172"/>
     <use xlink:href="#DejaVuSans-61" x="461.035156"/>
     <use xlink:href="#DejaVuSans-69" x="522.314453"/>
     <use xlink:href="#DejaVuSans-6e" x="550.097656"/>
     <use xlink:href="#DejaVuSans-65" x="613.476562"/>
     <use xlink:href="#DejaVuSans-72" x="675"/>
     <use xlink:href="#DejaVuSans-20" x="716.113281"/>
     <use xlink:href="#DejaVuSans-31" x="747.900391"/>
    </g>
   </g>
  </g>
  <g id="axes_6">
   <g id="patch_24">
    <path d="M 57.6 307.584 
L 414.72 307.584 
L 414.72 261.702621 
L 57.6 261.702621 
z
" style="fill: #ffffff"/>
   </g>
   <g id="matplotlib.axis_11">
    <g id="xtick_33">
     <g id="line2d_95">
      <g>
       <use xlink:href="#m04f9a39b40" x="73.832727" y="307.584" style="stroke: #000000; stroke-width: 0.8"/>
      </g>
     </g>
     <g id="text_17">
      <!-- 0.0 -->
      <g transform="translate(65.881165 322.182437)scale(0.1 -0.1)">
       <use xlink:href="#DejaVuSans-30"/>
       <use xlink:href="#DejaVuSans-2e" x="63.623047"/>
       <use xlink:href="#DejaVuSans-30" x="95.410156"/>
      </g>
     </g>
    </g>
    <g id="xtick_34">
     <g id="line2d_96">
      <g>
       <use xlink:href="#m04f9a39b40" x="116.550431" y="307.584" style="stroke: #000000; stroke-width: 0.8"/>
      </g>
     </g>
     <g id="text_18">
      <!-- 2.5 -->
      <g transform="translate(108.598868 322.182437)scale(0.1 -0.1)">
       <defs>
        <path id="DejaVuSans-32" d="M 1228 531 
L 3431 531 
L 3431 0 
L 469 0 
L 469 531 
Q 828 903 1448 1529 
Q 2069 2156 2228 2338 
Q 2531 2678 2651 2914 
Q 2772 3150 2772 3378 
Q 2772 3750 2511 3984 
Q 2250 4219 1831 4219 
Q 1534 4219 1204 4116 
Q 875 4013 500 3803 
L 500 4441 
Q 881 4594 1212 4672 
Q 1544 4750 1819 4750 
Q 2544 4750 2975 4387 
Q 3406 4025 3406 3419 
Q 3406 3131 3298 2873 
Q 3191 2616 2906 2266 
Q 2828 2175 2409 1742 
Q 1991 1309 1228 531 
z
" transform="scale(0.015625)"/>
       </defs>
       <use xlink:href="#DejaVuSans-32"/>
       <use xlink:href="#DejaVuSans-2e" x="63.623047"/>
       <use xlink:href="#DejaVuSans-35" x="95.410156"/>
      </g>
     </g>
    </g>
    <g id="xtick_35">
     <g id="line2d_97">
      <g>
       <use xlink:href="#m04f9a39b40" x="159.268134" y="307.584" style="stroke: #000000; stroke-width: 0.8"/>
      </g>
     </g>
     <g id="text_19">
      <!-- 5.0 -->
      <g transform="translate(151.316571 322.182437)scale(0.1 -0.1)">
       <use xlink:href="#DejaVuSans-35"/>
       <use xlink:href="#DejaVuSans-2e" x="63.623047"/>
       <use xlink:href="#DejaVuSans-30" x="95.410156"/>
      </g>
     </g>
    </g>
    <g id="xtick_36">
     <g id="line2d_98">
      <g>
       <use xlink:href="#m04f9a39b40" x="201.985837" y="307.584" style="stroke: #000000; stroke-width: 0.8"/>
      </g>
     </g>
     <g id="text_20">
      <!-- 7.5 -->
      <g transform="translate(194.034275 322.182437)scale(0.1 -0.1)">
       <defs>
        <path id="DejaVuSans-37" d="M 525 4666 
L 3525 4666 
L 3525 4397 
L 1831 0 
L 1172 0 
L 2766 4134 
L 525 4134 
L 525 4666 
z
" transform="scale(0.015625)"/>
       </defs>
       <use xlink:href="#DejaVuSans-37"/>
       <use xlink:href="#DejaVuSans-2e" x="63.623047"/>
       <use xlink:href="#DejaVuSans-35" x="95.410156"/>
      </g>
     </g>
    </g>
    <g id="xtick_37">
     <g id="line2d_99">
      <g>
       <use xlink:href="#m04f9a39b40" x="244.703541" y="307.584" style="stroke: #000000; stroke-width: 0.8"/>
      </g>
     </g>
     <g id="text_21">
      <!-- 10.0 -->
      <g transform="translate(233.570728 322.182437)scale(0.1 -0.1)">
       <use xlink:href="#DejaVuSans-31"/>
       <use xlink:href="#DejaVuSans-30" x="63.623047"/>
       <use xlink:href="#DejaVuSans-2e" x="127.246094"/>
       <use xlink:href="#DejaVuSans-30" x="159.033203"/>
      </g>
     </g>
    </g>
    <g id="xtick_38">
     <g id="line2d_100">
      <g>
       <use xlink:href="#m04f9a39b40" x="287.421244" y="307.584" style="stroke: #000000; stroke-width: 0.8"/>
      </g>
     </g>
     <g id="text_22">
      <!-- 12.5 -->
      <g transform="translate(276.288432 322.182437)scale(0.1 -0.1)">
       <use xlink:href="#DejaVuSans-31"/>
       <use xlink:href="#DejaVuSans-32" x="63.623047"/>
       <use xlink:href="#DejaVuSans-2e" x="127.246094"/>
       <use xlink:href="#DejaVuSans-35" x="159.033203"/>
      </g>
     </g>
    </g>
    <g id="xtick_39">
     <g id="line2d_101">
      <g>
       <use xlink:href="#m04f9a39b40" x="330.138947" y="307.584" style="stroke: #000000; stroke-width: 0.8"/>
      </g>
     </g>
     <g id="text_23">
      <!-- 15.0 -->
      <g transform="translate(319.006135 322.182437)scale(0.1 -0.1)">
       <use xlink:href="#DejaVuSans-31"/>
       <use xlink:href="#DejaVuSans-35" x="63.623047"/>
       <use xlink:href="#DejaVuSans-2e" x="127.246094"/>
       <use xlink:href="#DejaVuSans-30" x="159.033203"/>
      </g>
     </g>
    </g>
    <g id="xtick_40">
     <g id="line2d_102">
      <g>
       <use xlink:href="#m04f9a39b40" x="372.856651" y="307.584" style="stroke: #000000; stroke-width: 0.8"/>
      </g>
     </g>
     <g id="text_24">
      <!-- 17.5 -->
      <g transform="translate(361.723838 322.182437)scale(0.1 -0.1)">
       <use xlink:href="#DejaVuSans-31"/>
       <use xlink:href="#DejaVuSans-37" x="63.623047"/>
       <use xlink:href="#DejaVuSans-2e" x="127.246094"/>
       <use xlink:href="#DejaVuSans-35" x="159.033203"/>
      </g>
     </g>
    </g>
    <g id="text_25">
     <!-- position z -->
     <g transform="translate(212.142031 335.860562)scale(0.1 -0.1)">
      <defs>
       <path id="DejaVuSans-70" d="M 1159 525 
L 1159 -1331 
L 581 -1331 
L 581 3500 
L 1159 3500 
L 1159 2969 
Q 1341 3281 1617 3432 
Q 1894 3584 2278 3584 
Q 2916 3584 3314 3078 
Q 3713 2572 3713 1747 
Q 3713 922 3314 415 
Q 2916 -91 2278 -91 
Q 1894 -91 1617 61 
Q 1341 213 1159 525 
z
M 3116 1747 
Q 3116 2381 2855 2742 
Q 2594 3103 2138 3103 
Q 1681 3103 1420 2742 
Q 1159 2381 1159 1747 
Q 1159 1113 1420 752 
Q 1681 391 2138 391 
Q 2594 391 2855 752 
Q 3116 1113 3116 1747 
z
" transform="scale(0.015625)"/>
      </defs>
      <use xlink:href="#DejaVuSans-70"/>
      <use xlink:href="#DejaVuSans-6f" x="63.476562"/>
      <use xlink:href="#DejaVuSans-73" x="124.658203"/>
      <use xlink:href="#DejaVuSans-69" x="176.757812"/>
      <use xlink:href="#DejaVuSans-74" x="204.541016"/>
      <use xlink:href="#DejaVuSans-69" x="243.75"/>
      <use xlink:href="#DejaVuSans-6f" x="271.533203"/>
      <use xlink:href="#DejaVuSans-6e" x="332.714844"/>
      <use xlink:href="#DejaVuSans-20" x="396.09375"/>
      <use xlink:href="#DejaVuSans-7a" x="427.880859"/>
     </g>
    </g>
   </g>
   <g id="matplotlib.axis_12">
    <g id="ytick_11">
     <g id="line2d_103">
      <g>
       <use xlink:href="#m3f0d958946" x="57.6" y="303.637921" style="stroke: #000000; stroke-width: 0.8"/>
      </g>
     </g>
     <g id="text_26">
      <!-- 0.0500 -->
      <g transform="translate(15.609375 307.43714)scale(0.1 -0.1)">
       <use xlink:href="#DejaVuSans-30"/>
       <use xlink:href="#DejaVuSans-2e" x="63.623047"/>
       <use xlink:href="#DejaVuSans-30" x="95.410156"/>
       <use xlink:href="#DejaVuSans-35" x="159.033203"/>
       <use xlink:href="#DejaVuSans-30" x="222.65625"/>
       <use xlink:href="#DejaVuSans-30" x="286.279297"/>
      </g>
     </g>
    </g>
    <g id="ytick_12">
     <g id="line2d_104">
      <g>
       <use xlink:href="#m3f0d958946" x="57.6" y="282.012229" style="stroke: #000000; stroke-width: 0.8"/>
      </g>
     </g>
     <g id="text_27">
      <!-- 0.0525 -->
      <g transform="translate(15.609375 285.811447)scale(0.1 -0.1)">
       <use xlink:href="#DejaVuSans-30"/>
       <use xlink:href="#DejaVuSans-2e" x="63.623047"/>
       <use xlink:href="#DejaVuSans-30" x="95.410156"/>
       <use xlink:href="#DejaVuSans-35" x="159.033203"/>
       <use xlink:href="#DejaVuSans-32" x="222.65625"/>
       <use xlink:href="#DejaVuSans-35" x="286.279297"/>
      </g>
     </g>
    </g>
   </g>
   <g id="line2d_105">
    <path d="M 73.832727 280.758391 
L 90.919809 280.814119 
L 108.00689 280.978044 
L 125.093971 281.194566 
L 142.181053 281.429235 
L 159.268134 281.654739 
L 176.355215 281.845615 
L 193.442297 281.975584 
L 210.529378 282.015888 
L 227.616459 281.934068 
L 244.703541 281.692976 
L 261.790622 281.250032 
L 278.877703 280.556763 
L 295.964785 279.558731 
L 313.051866 278.195915 
L 330.138947 276.403622 
L 347.226029 274.114016 
L 364.31311 271.259144 
L 381.400191 267.784779 
L 398.487273 263.788138 
" clip-path="url(#pcbb16b2c94)" style="fill: none; stroke: #1f77b4; stroke-width: 1.5; stroke-linecap: square"/>
   </g>
   <g id="line2d_106">
    <path d="M 73.832727 305.425978 
L 90.919809 305.409345 
L 108.00689 305.467113 
L 125.093971 305.498483 
L 142.181053 305.485505 
L 159.268134 305.437791 
L 176.355215 305.361921 
L 193.442297 305.254307 
L 210.529378 305.100439 
L 227.616459 304.875446 
L 244.703541 304.544577 
L 261.790622 304.063492 
L 278.877703 303.378207 
L 295.964785 302.424982 
L 313.051866 301.130482 
L 330.138947 299.412413 
L 347.226029 297.180966 
L 364.31311 294.342637 
L 381.400191 290.82365 
L 398.487273 286.875689 
" clip-path="url(#pcbb16b2c94)" style="fill: none; stroke: #ff7f0e; stroke-width: 1.5; stroke-linecap: square"/>
   </g>
   <g id="line2d_107">
    <path d="M 73.832727 304.384645 
L 90.919809 304.763024 
L 108.00689 305.02081 
L 125.093971 305.196595 
L 142.181053 305.303846 
L 159.268134 305.354556 
L 176.355215 305.358917 
L 193.442297 305.32227 
L 210.529378 305.242836 
L 227.616459 305.110467 
L 244.703541 304.906043 
L 261.790622 304.601218 
L 278.877703 304.15826 
L 295.964785 303.529923 
L 313.051866 302.659434 
L 330.138947 301.480727 
L 347.226029 299.919141 
L 364.31311 297.893648 
L 381.400191 295.331622 
L 398.487273 292.336924 
" clip-path="url(#pcbb16b2c94)" style="fill: none; stroke: #2ca02c; stroke-width: 1.5; stroke-linecap: square"/>
   </g>
   <g id="line2d_108">
    <path d="M 73.832727 303.69291 
L 90.919809 303.783933 
L 108.00689 303.914128 
L 125.093971 304.072145 
L 142.181053 304.243818 
L 159.268134 304.415733 
L 176.355215 304.576689 
L 193.442297 304.718013 
L 210.529378 304.833091 
L 227.616459 304.91638 
L 244.703541 304.962133 
L 261.790622 304.963034 
L 278.877703 304.908858 
L 295.964785 304.78525 
L 313.051866 304.572646 
L 330.138947 304.245388 
L 347.226029 303.771053 
L 364.31311 303.110124 
L 381.400191 302.217177 
L 398.487273 301.068395 
" clip-path="url(#pcbb16b2c94)" style="fill: none; stroke: #d62728; stroke-width: 1.5; stroke-linecap: square"/>
   </g>
   <g id="line2d_109">
    <path d="M 73.832727 303.339114 
L 90.919809 303.361421 
L 108.00689 303.408061 
L 125.093971 303.478463 
L 142.181053 303.570714 
L 159.268134 303.680615 
L 176.355215 303.802313 
L 193.442297 303.929126 
L 210.529378 304.054184 
L 227.616459 304.17077 
L 244.703541 304.27235 
L 261.790622 304.3523 
L 278.877703 304.40342 
L 295.964785 304.417292 
L 313.051866 304.383542 
L 330.138947 304.289086 
L 347.226029 304.117387 
L 364.31311 303.847829 
L 381.400191 303.455784 
L 398.487273 302.928292 
" clip-path="url(#pcbb16b2c94)" style="fill: none; stroke: #9467bd; stroke-width: 1.5; stroke-linecap: square"/>
   </g>
   <g id="line2d_110">
    <path d="M 73.832727 301.499105 
L 90.919809 301.521451 
L 108.00689 301.56834 
L 125.093971 301.638906 
L 142.181053 301.731072 
L 159.268134 301.840615 
L 176.355215 301.961745 
L 193.442297 302.087891 
L 210.529378 302.212316 
L 227.616459 302.328447 
L 244.703541 302.429902 
L 261.790622 302.510238 
L 278.877703 302.562484 
L 295.964785 302.578534 
L 313.051866 302.548441 
L 330.138947 302.459688 
L 347.226029 302.296487 
L 364.31311 302.039171 
L 381.400191 301.664277 
L 398.487273 301.161288 
" clip-path="url(#pcbb16b2c94)" style="fill: none; stroke: #8c564b; stroke-width: 1.5; stroke-linecap: square"/>
   </g>
   <g id="line2d_111">
    <path d="M 73.832727 301.350939 
L 90.919809 301.373795 
L 108.00689 301.422407 
L 125.093971 301.49541 
L 142.181053 301.590307 
L 159.268134 301.702558 
L 176.355215 301.826135 
L 193.442297 301.954296 
L 210.529378 302.080199 
L 227.616459 302.197218 
L 244.703541 302.298961 
L 261.790622 302.379001 
L 278.877703 302.430403 
L 295.964785 302.4451 
L 313.051866 302.413181 
L 330.138947 302.322162 
L 347.226029 302.156276 
L 364.31311 301.895866 
L 381.400191 301.517578 
L 398.487273 301.014254 
" clip-path="url(#pcbb16b2c94)" style="fill: none; stroke: #e377c2; stroke-width: 1.5; stroke-linecap: square"/>
   </g>
   <g id="line2d_112">
    <path d="M 73.832727 301.347984 
L 90.919809 301.370856 
L 108.00689 301.419464 
L 125.093971 301.492459 
L 142.181053 301.587337 
L 159.268134 301.699562 
L 176.355215 301.82311 
L 193.442297 301.951243 
L 210.529378 302.077119 
L 227.616459 302.194116 
L 244.703541 302.295837 
L 261.790622 302.375855 
L 278.877703 302.427232 
L 295.964785 302.441895 
L 313.051866 302.409933 
L 330.138947 302.318856 
L 347.226029 302.152895 
L 364.31311 301.892398 
L 381.400191 301.514134 
L 398.487273 301.014277 
" clip-path="url(#pcbb16b2c94)" style="fill: none; stroke: #7f7f7f; stroke-width: 1.5; stroke-linecap: square"/>
   </g>
   <g id="line2d_113">
    <path d="M 73.832727 292.966562 
L 90.919809 293.499136 
L 108.00689 293.963829 
L 125.093971 294.3817 
L 142.181053 294.765361 
L 159.268134 295.121119 
L 176.355215 295.451103 
L 193.442297 295.754884 
L 210.529378 296.03056 
L 227.616459 296.275392 
L 244.703541 296.486034 
L 261.790622 296.658454 
L 278.877703 296.787619 
L 295.964785 296.867017 
L 313.051866 296.88808 
L 330.138947 296.839582 
L 347.226029 296.70704 
L 364.31311 296.472254 
L 381.400191 296.114148 
L 398.487273 295.631315 
" clip-path="url(#pcbb16b2c94)" style="fill: none; stroke: #bcbd22; stroke-width: 1.5; stroke-linecap: square"/>
   </g>
   <g id="line2d_114">
    <path d="M 73.832727 282.104589 
L 90.919809 283.637625 
L 108.00689 284.875071 
L 125.093971 285.900866 
L 142.181053 286.771154 
L 159.268134 287.522056 
L 176.355215 288.176592 
L 193.442297 288.749323 
L 210.529378 289.249337 
L 227.616459 289.682067 
L 244.703541 290.050324 
L 261.790622 290.354759 
L 278.877703 290.593954 
L 295.964785 290.764241 
L 313.051866 290.85937 
L 330.138947 290.870086 
L 347.226029 290.783701 
L 364.31311 290.5838 
L 381.400191 290.251494 
L 398.487273 289.786533 
" clip-path="url(#pcbb16b2c94)" style="fill: none; stroke: #17becf; stroke-width: 1.5; stroke-linecap: square"/>
   </g>
   <g id="line2d_115">
    <path d="M 73.832727 281.159262 
L 90.919809 281.895595 
L 108.00689 282.633312 
L 125.093971 283.337608 
L 142.181053 283.997162 
L 159.268134 284.608115 
L 176.355215 285.168983 
L 193.442297 285.678864 
L 210.529378 286.136824 
L 227.616459 286.54165 
L 244.703541 286.891646 
L 261.790622 287.184356 
L 278.877703 287.41619 
L 295.964785 287.581973 
L 313.051866 287.674439 
L 330.138947 287.68371 
L 347.226029 287.596813 
L 364.31311 287.397384 
L 381.400191 287.06706 
L 398.487273 286.605975 
" clip-path="url(#pcbb16b2c94)" style="fill: none; stroke: #1f77b4; stroke-width: 1.5; stroke-linecap: square"/>
   </g>
   <g id="line2d_116">
    <path d="M 73.832727 280.952214 
L 90.919809 281.297398 
L 108.00689 281.727517 
L 125.093971 282.190745 
L 142.181053 282.661041 
L 159.268134 283.122818 
L 176.355215 283.565535 
L 193.442297 283.981378 
L 210.529378 284.364154 
L 227.616459 284.708634 
L 244.703541 285.010043 
L 261.790622 285.263551 
L 278.877703 285.463741 
L 295.964785 285.604045 
L 313.051866 285.676154 
L 330.138947 285.669456 
L 347.226029 285.570518 
L 364.31311 285.36279 
L 381.400191 285.028081 
L 398.487273 284.566788 
" clip-path="url(#pcbb16b2c94)" style="fill: none; stroke: #ff7f0e; stroke-width: 1.5; stroke-linecap: square"/>
   </g>
   <g id="line2d_117">
    <path d="M 73.832727 280.842088 
L 90.919809 280.978857 
L 108.00689 281.22854 
L 125.093971 281.53749 
L 142.181053 281.876634 
L 159.268134 282.227235 
L 176.355215 282.575841 
L 193.442297 282.912079 
L 210.529378 283.227565 
L 227.616459 283.515221 
L 244.703541 283.76872 
L 261.790622 283.981944 
L 278.877703 284.148414 
L 295.964785 284.260704 
L 313.051866 284.309835 
L 330.138947 284.284701 
L 347.226029 284.171543 
L 364.31311 283.953671 
L 381.400191 283.612999 
L 398.487273 283.150197 
" clip-path="url(#pcbb16b2c94)" style="fill: none; stroke: #2ca02c; stroke-width: 1.5; stroke-linecap: square"/>
   </g>
   <g id="patch_25">
    <path d="M 57.6 307.584 
L 57.6 261.702621 
" style="fill: none; stroke: #000000; stroke-width: 0.8; stroke-linejoin: miter; stroke-linecap: square"/>
   </g>
   <g id="patch_26">
    <path d="M 414.72 307.584 
L 414.72 261.702621 
" style="fill: none; stroke: #000000; stroke-width: 0.8; stroke-linejoin: miter; stroke-linecap: square"/>
   </g>
   <g id="patch_27">
    <path d="M 57.6 307.584 
L 414.72 307.584 
" style="fill: none; stroke: #000000; stroke-width: 0.8; stroke-linejoin: miter; stroke-linecap: square"/>
   </g>
   <g id="patch_28">
    <path d="M 57.6 261.702621 
L 414.72 261.702621 
" style="fill: none; stroke: #000000; stroke-width: 0.8; stroke-linejoin: miter; stroke-linecap: square"/>
   </g>
   <g id="text_28">
    <!-- yC - Container 1 -->
    <g transform="translate(187.395938 258.702621)scale(0.12 -0.12)">
     <use xlink:href="#DejaVuSans-79"/>
     <use xlink:href="#DejaVuSans-43" x="59.179688"/>
     <use xlink:href="#DejaVuSans-20" x="129.003906"/>
     <use xlink:href="#DejaVuSans-2d" x="160.791016"/>
     <use xlink:href="#DejaVuSans-20" x="196.875"/>
     <use xlink:href="#DejaVuSans-43" x="228.662109"/>
     <use xlink:href="#DejaVuSans-6f" x="298.486328"/>
     <use xlink:href="#DejaVuSans-6e" x="359.667969"/>
     <use xlink:href="#DejaVuSans-74" x="423.046875"/>
     <use xlink:href="#DejaVuSans-61" x="462.255859"/>
     <use xlink:href="#DejaVuSans-69" x="523.535156"/>
     <use xlink:href="#DejaVuSans-6e" x="551.318359"/>
     <use xlink:href="#DejaVuSans-65" x="614.697266"/>
     <use xlink:href="#DejaVuSans-72" x="676.220703"/>
     <use xlink:href="#DejaVuSans-20" x="717.333984"/>
     <use xlink:href="#DejaVuSans-31" x="749.121094"/>
    </g>
   </g>
  </g>
  <g id="legend_1">
   <g id="patch_29">
    <path d="M 372.146875 269.707812 
L 457.8 269.707812 
Q 459.8 269.707812 459.8 267.707812 
L 459.8 77.892187 
Q 459.8 75.892187 457.8 75.892187 
L 372.146875 75.892187 
Q 370.146875 75.892187 370.146875 77.892187 
L 370.146875 267.707812 
Q 370.146875 269.707812 372.146875 269.707812 
z
" style="fill: #ffffff; opacity: 0.8; stroke: #cccccc; stroke-linejoin: miter"/>
   </g>
   <g id="line2d_118">
    <path d="M 374.146875 83.990625 
L 384.146875 83.990625 
L 394.146875 83.990625 
" style="fill: none; stroke: #1f77b4; stroke-width: 1.5; stroke-linecap: square"/>
   </g>
   <g id="text_29">
    <!-- t=0.0000 -->
    <g transform="translate(402.146875 87.490625)scale(0.1 -0.1)">
     <defs>
      <path id="DejaVuSans-3d" d="M 678 2906 
L 4684 2906 
L 4684 2381 
L 678 2381 
L 678 2906 
z
M 678 1631 
L 4684 1631 
L 4684 1100 
L 678 1100 
L 678 1631 
z
" transform="scale(0.015625)"/>
     </defs>
     <use xlink:href="#DejaVuSans-74"/>
     <use xlink:href="#DejaVuSans-3d" x="39.208984"/>
     <use xlink:href="#DejaVuSans-30" x="122.998047"/>
     <use xlink:href="#DejaVuSans-2e" x="186.621094"/>
     <use xlink:href="#DejaVuSans-30" x="218.408203"/>
     <use xlink:href="#DejaVuSans-30" x="282.03125"/>
     <use xlink:href="#DejaVuSans-30" x="345.654297"/>
     <use xlink:href="#DejaVuSans-30" x="409.277344"/>
    </g>
   </g>
   <g id="line2d_119">
    <path d="M 374.146875 98.66875 
L 384.146875 98.66875 
L 394.146875 98.66875 
" style="fill: none; stroke: #ff7f0e; stroke-width: 1.5; stroke-linecap: square"/>
   </g>
   <g id="text_30">
    <!-- t=8.0000 -->
    <g transform="translate(402.146875 102.16875)scale(0.1 -0.1)">
     <use xlink:href="#DejaVuSans-74"/>
     <use xlink:href="#DejaVuSans-3d" x="39.208984"/>
     <use xlink:href="#DejaVuSans-38" x="122.998047"/>
     <use xlink:href="#DejaVuSans-2e" x="186.621094"/>
     <use xlink:href="#DejaVuSans-30" x="218.408203"/>
     <use xlink:href="#DejaVuSans-30" x="282.03125"/>
     <use xlink:href="#DejaVuSans-30" x="345.654297"/>
     <use xlink:href="#DejaVuSans-30" x="409.277344"/>
    </g>
   </g>
   <g id="line2d_120">
    <path d="M 374.146875 113.346875 
L 384.146875 113.346875 
L 394.146875 113.346875 
" style="fill: none; stroke: #2ca02c; stroke-width: 1.5; stroke-linecap: square"/>
   </g>
   <g id="text_31">
    <!-- t=16.0000 -->
    <g transform="translate(402.146875 116.846875)scale(0.1 -0.1)">
     <defs>
      <path id="DejaVuSans-36" d="M 2113 2584 
Q 1688 2584 1439 2293 
Q 1191 2003 1191 1497 
Q 1191 994 1439 701 
Q 1688 409 2113 409 
Q 2538 409 2786 701 
Q 3034 994 3034 1497 
Q 3034 2003 2786 2293 
Q 2538 2584 2113 2584 
z
M 3366 4563 
L 3366 3988 
Q 3128 4100 2886 4159 
Q 2644 4219 2406 4219 
Q 1781 4219 1451 3797 
Q 1122 3375 1075 2522 
Q 1259 2794 1537 2939 
Q 1816 3084 2150 3084 
Q 2853 3084 3261 2657 
Q 3669 2231 3669 1497 
Q 3669 778 3244 343 
Q 2819 -91 2113 -91 
Q 1303 -91 875 529 
Q 447 1150 447 2328 
Q 447 3434 972 4092 
Q 1497 4750 2381 4750 
Q 2619 4750 2861 4703 
Q 3103 4656 3366 4563 
z
" transform="scale(0.015625)"/>
     </defs>
     <use xlink:href="#DejaVuSans-74"/>
     <use xlink:href="#DejaVuSans-3d" x="39.208984"/>
     <use xlink:href="#DejaVuSans-31" x="122.998047"/>
     <use xlink:href="#DejaVuSans-36" x="186.621094"/>
     <use xlink:href="#DejaVuSans-2e" x="250.244141"/>
     <use xlink:href="#DejaVuSans-30" x="282.03125"/>
     <use xlink:href="#DejaVuSans-30" x="345.654297"/>
     <use xlink:href="#DejaVuSans-30" x="409.277344"/>
     <use xlink:href="#DejaVuSans-30" x="472.900391"/>
    </g>
   </g>
   <g id="line2d_121">
    <path d="M 374.146875 128.025 
L 384.146875 128.025 
L 394.146875 128.025 
" style="fill: none; stroke: #d62728; stroke-width: 1.5; stroke-linecap: square"/>
   </g>
   <g id="text_32">
    <!-- t=24.0000 -->
    <g transform="translate(402.146875 131.525)scale(0.1 -0.1)">
     <use xlink:href="#DejaVuSans-74"/>
     <use xlink:href="#DejaVuSans-3d" x="39.208984"/>
     <use xlink:href="#DejaVuSans-32" x="122.998047"/>
     <use xlink:href="#DejaVuSans-34" x="186.621094"/>
     <use xlink:href="#DejaVuSans-2e" x="250.244141"/>
     <use xlink:href="#DejaVuSans-30" x="282.03125"/>
     <use xlink:href="#DejaVuSans-30" x="345.654297"/>
     <use xlink:href="#DejaVuSans-30" x="409.277344"/>
     <use xlink:href="#DejaVuSans-30" x="472.900391"/>
    </g>
   </g>
   <g id="line2d_122">
    <path d="M 374.146875 142.703125 
L 384.146875 142.703125 
L 394.146875 142.703125 
" style="fill: none; stroke: #9467bd; stroke-width: 1.5; stroke-linecap: square"/>
   </g>
   <g id="text_33">
    <!-- t=32.0000 -->
    <g transform="translate(402.146875 146.203125)scale(0.1 -0.1)">
     <defs>
      <path id="DejaVuSans-33" d="M 2597 2516 
Q 3050 2419 3304 2112 
Q 3559 1806 3559 1356 
Q 3559 666 3084 287 
Q 2609 -91 1734 -91 
Q 1441 -91 1130 -33 
Q 819 25 488 141 
L 488 750 
Q 750 597 1062 519 
Q 1375 441 1716 441 
Q 2309 441 2620 675 
Q 2931 909 2931 1356 
Q 2931 1769 2642 2001 
Q 2353 2234 1838 2234 
L 1294 2234 
L 1294 2753 
L 1863 2753 
Q 2328 2753 2575 2939 
Q 2822 3125 2822 3475 
Q 2822 3834 2567 4026 
Q 2313 4219 1838 4219 
Q 1578 4219 1281 4162 
Q 984 4106 628 3988 
L 628 4550 
Q 988 4650 1302 4700 
Q 1616 4750 1894 4750 
Q 2613 4750 3031 4423 
Q 3450 4097 3450 3541 
Q 3450 3153 3228 2886 
Q 3006 2619 2597 2516 
z
" transform="scale(0.015625)"/>
     </defs>
     <use xlink:href="#DejaVuSans-74"/>
     <use xlink:href="#DejaVuSans-3d" x="39.208984"/>
     <use xlink:href="#DejaVuSans-33" x="122.998047"/>
     <use xlink:href="#DejaVuSans-32" x="186.621094"/>
     <use xlink:href="#DejaVuSans-2e" x="250.244141"/>
     <use xlink:href="#DejaVuSans-30" x="282.03125"/>
     <use xlink:href="#DejaVuSans-30" x="345.654297"/>
     <use xlink:href="#DejaVuSans-30" x="409.277344"/>
     <use xlink:href="#DejaVuSans-30" x="472.900391"/>
    </g>
   </g>
   <g id="line2d_123">
    <path d="M 374.146875 157.38125 
L 384.146875 157.38125 
L 394.146875 157.38125 
" style="fill: none; stroke: #8c564b; stroke-width: 1.5; stroke-linecap: square"/>
   </g>
   <g id="text_34">
    <!-- t=40.0000 -->
    <g transform="translate(402.146875 160.88125)scale(0.1 -0.1)">
     <use xlink:href="#DejaVuSans-74"/>
     <use xlink:href="#DejaVuSans-3d" x="39.208984"/>
     <use xlink:href="#DejaVuSans-34" x="122.998047"/>
     <use xlink:href="#DejaVuSans-30" x="186.621094"/>
     <use xlink:href="#DejaVuSans-2e" x="250.244141"/>
     <use xlink:href="#DejaVuSans-30" x="282.03125"/>
     <use xlink:href="#DejaVuSans-30" x="345.654297"/>
     <use xlink:href="#DejaVuSans-30" x="409.277344"/>
     <use xlink:href="#DejaVuSans-30" x="472.900391"/>
    </g>
   </g>
   <g id="line2d_124">
    <path d="M 374.146875 172.059375 
L 384.146875 172.059375 
L 394.146875 172.059375 
" style="fill: none; stroke: #e377c2; stroke-width: 1.5; stroke-linecap: square"/>
   </g>
   <g id="text_35">
    <!-- t=48.0000 -->
    <g transform="translate(402.146875 175.559375)scale(0.1 -0.1)">
     <use xlink:href="#DejaVuSans-74"/>
     <use xlink:href="#DejaVuSans-3d" x="39.208984"/>
     <use xlink:href="#DejaVuSans-34" x="122.998047"/>
     <use xlink:href="#DejaVuSans-38" x="186.621094"/>
     <use xlink:href="#DejaVuSans-2e" x="250.244141"/>
     <use xlink:href="#DejaVuSans-30" x="282.03125"/>
     <use xlink:href="#DejaVuSans-30" x="345.654297"/>
     <use xlink:href="#DejaVuSans-30" x="409.277344"/>
     <use xlink:href="#DejaVuSans-30" x="472.900391"/>
    </g>
   </g>
   <g id="line2d_125">
    <path d="M 374.146875 186.7375 
L 384.146875 186.7375 
L 394.146875 186.7375 
" style="fill: none; stroke: #7f7f7f; stroke-width: 1.5; stroke-linecap: square"/>
   </g>
   <g id="text_36">
    <!-- t=56.0000 -->
    <g transform="translate(402.146875 190.2375)scale(0.1 -0.1)">
     <use xlink:href="#DejaVuSans-74"/>
     <use xlink:href="#DejaVuSans-3d" x="39.208984"/>
     <use xlink:href="#DejaVuSans-35" x="122.998047"/>
     <use xlink:href="#DejaVuSans-36" x="186.621094"/>
     <use xlink:href="#DejaVuSans-2e" x="250.244141"/>
     <use xlink:href="#DejaVuSans-30" x="282.03125"/>
     <use xlink:href="#DejaVuSans-30" x="345.654297"/>
     <use xlink:href="#DejaVuSans-30" x="409.277344"/>
     <use xlink:href="#DejaVuSans-30" x="472.900391"/>
    </g>
   </g>
   <g id="line2d_126">
    <path d="M 374.146875 201.415625 
L 384.146875 201.415625 
L 394.146875 201.415625 
" style="fill: none; stroke: #bcbd22; stroke-width: 1.5; stroke-linecap: square"/>
   </g>
   <g id="text_37">
    <!-- t=64.0000 -->
    <g transform="translate(402.146875 204.915625)scale(0.1 -0.1)">
     <use xlink:href="#DejaVuSans-74"/>
     <use xlink:href="#DejaVuSans-3d" x="39.208984"/>
     <use xlink:href="#DejaVuSans-36" x="122.998047"/>
     <use xlink:href="#DejaVuSans-34" x="186.621094"/>
     <use xlink:href="#DejaVuSans-2e" x="250.244141"/>
     <use xlink:href="#DejaVuSans-30" x="282.03125"/>
     <use xlink:href="#DejaVuSans-30" x="345.654297"/>
     <use xlink:href="#DejaVuSans-30" x="409.277344"/>
     <use xlink:href="#DejaVuSans-30" x="472.900391"/>
    </g>
   </g>
   <g id="line2d_127">
    <path d="M 374.146875 216.09375 
L 384.146875 216.09375 
L 394.146875 216.09375 
" style="fill: none; stroke: #17becf; stroke-width: 1.5; stroke-linecap: square"/>
   </g>
   <g id="text_38">
    <!-- t=72.0000 -->
    <g transform="translate(402.146875 219.59375)scale(0.1 -0.1)">
     <use xlink:href="#DejaVuSans-74"/>
     <use xlink:href="#DejaVuSans-3d" x="39.208984"/>
     <use xlink:href="#DejaVuSans-37" x="122.998047"/>
     <use xlink:href="#DejaVuSans-32" x="186.621094"/>
     <use xlink:href="#DejaVuSans-2e" x="250.244141"/>
     <use xlink:href="#DejaVuSans-30" x="282.03125"/>
     <use xlink:href="#DejaVuSans-30" x="345.654297"/>
     <use xlink:href="#DejaVuSans-30" x="409.277344"/>
     <use xlink:href="#DejaVuSans-30" x="472.900391"/>
    </g>
   </g>
   <g id="line2d_128">
    <path d="M 374.146875 230.771875 
L 384.146875 230.771875 
L 394.146875 230.771875 
" style="fill: none; stroke: #1f77b4; stroke-width: 1.5; stroke-linecap: square"/>
   </g>
   <g id="text_39">
    <!-- t=80.0000 -->
    <g transform="translate(402.146875 234.271875)scale(0.1 -0.1)">
     <use xlink:href="#DejaVuSans-74"/>
     <use xlink:href="#DejaVuSans-3d" x="39.208984"/>
     <use xlink:href="#DejaVuSans-38" x="122.998047"/>
     <use xlink:href="#DejaVuSans-30" x="186.621094"/>
     <use xlink:href="#DejaVuSans-2e" x="250.244141"/>
     <use xlink:href="#DejaVuSans-30" x="282.03125"/>
     <use xlink:href="#DejaVuSans-30" x="345.654297"/>
     <use xlink:href="#DejaVuSans-30" x="409.277344"/>
     <use xlink:href="#DejaVuSans-30" x="472.900391"/>
    </g>
   </g>
   <g id="line2d_129">
    <path d="M 374.146875 245.45 
L 384.146875 245.45 
L 394.146875 245.45 
" style="fill: none; stroke: #ff7f0e; stroke-width: 1.5; stroke-linecap: square"/>
   </g>
   <g id="text_40">
    <!-- t=88.0000 -->
    <g transform="translate(402.146875 248.95)scale(0.1 -0.1)">
     <use xlink:href="#DejaVuSans-74"/>
     <use xlink:href="#DejaVuSans-3d" x="39.208984"/>
     <use xlink:href="#DejaVuSans-38" x="122.998047"/>
     <use xlink:href="#DejaVuSans-38" x="186.621094"/>
     <use xlink:href="#DejaVuSans-2e" x="250.244141"/>
     <use xlink:href="#DejaVuSans-30" x="282.03125"/>
     <use xlink:href="#DejaVuSans-30" x="345.654297"/>
     <use xlink:href="#DejaVuSans-30" x="409.277344"/>
     <use xlink:href="#DejaVuSans-30" x="472.900391"/>
    </g>
   </g>
   <g id="line2d_130">
    <path d="M 374.146875 260.128125 
L 384.146875 260.128125 
L 394.146875 260.128125 
" style="fill: none; stroke: #2ca02c; stroke-width: 1.5; stroke-linecap: square"/>
   </g>
   <g id="text_41">
    <!-- t=96.0000 -->
    <g transform="translate(402.146875 263.628125)scale(0.1 -0.1)">
     <use xlink:href="#DejaVuSans-74"/>
     <use xlink:href="#DejaVuSans-3d" x="39.208984"/>
     <use xlink:href="#DejaVuSans-39" x="122.998047"/>
     <use xlink:href="#DejaVuSans-36" x="186.621094"/>
     <use xlink:href="#DejaVuSans-2e" x="250.244141"/>
     <use xlink:href="#DejaVuSans-30" x="282.03125"/>
     <use xlink:href="#DejaVuSans-30" x="345.654297"/>
     <use xlink:href="#DejaVuSans-30" x="409.277344"/>
     <use xlink:href="#DejaVuSans-30" x="472.900391"/>
    </g>
   </g>
  </g>
 </g>
 <defs>
  <clipPath id="pf32e1b5c60">
   <rect x="57.6" y="41.472" width="357.12" height="45.881379"/>
  </clipPath>
  <clipPath id="p12e36c13d3">
   <rect x="57.6" y="96.529655" width="357.12" height="45.881379"/>
  </clipPath>
  <clipPath id="p0f7ee67e18">
   <rect x="57.6" y="151.58731" width="357.12" height="45.881379"/>
  </clipPath>
  <clipPath id="p43f1d76e79">
   <rect x="57.6" y="206.644966" width="357.12" height="45.881379"/>
  </clipPath>
  <clipPath id="pcbb16b2c94">
   <rect x="57.6" y="261.702621" width="357.12" height="45.881379"/>
  </clipPath>
 </defs>
</svg>
