<?xml version="1.0" encoding="utf-8" standalone="no"?>
<!DOCTYPE svg PUBLIC "-//W3C//DTD SVG 1.1//EN"
  "http://www.w3.org/Graphics/SVG/1.1/DTD/svg11.dtd">
<svg xmlns:xlink="http://www.w3.org/1999/xlink" width="460.8pt" height="345.6pt" viewBox="0 0 460.8 345.6" xmlns="http://www.w3.org/2000/svg" version="1.1">
 <metadata>
  <rdf:RDF xmlns:dc="http://purl.org/dc/elements/1.1/" xmlns:cc="http://creativecommons.org/ns#" xmlns:rdf="http://www.w3.org/1999/02/22-rdf-syntax-ns#">
   <cc:Work>
    <dc:type rdf:resource="http://purl.org/dc/dcmitype/StillImage"/>
    <dc:date>2022-07-10T00:05:03.169199</dc:date>
    <dc:format>image/svg+xml</dc:format>
    <dc:creator>
     <cc:Agent>
      <dc:title>Matplotlib v3.5.2, https://matplotlib.org/</dc:title>
     </cc:Agent>
    </dc:creator>
   </cc:Work>
  </rdf:RDF>
 </metadata>
 <defs>
  <style type="text/css">*{stroke-linejoin: round; stroke-linecap: butt}</style>
 </defs>
 <g id="figure_1">
  <g id="patch_1">
   <path d="M 0 345.6 
L 460.8 345.6 
L 460.8 0 
L 0 0 
z
" style="fill: #ffffff"/>
  </g>
  <g id="axes_1">
   <g id="patch_2">
    <path d="M 57.6 87.353379 
L 414.72 87.353379 
L 414.72 41.472 
L 57.6 41.472 
z
" style="fill: #ffffff"/>
   </g>
   <g id="matplotlib.axis_1">
    <g id="xtick_1">
     <g id="line2d_1">
      <defs>
       <path id="mf461770139" d="M 0 0 
L 0 3.5 
" style="stroke: #000000; stroke-width: 0.8"/>
      </defs>
      <g>
       <use xlink:href="#mf461770139" x="73.832727" y="87.353379" style="stroke: #000000; stroke-width: 0.8"/>
      </g>
     </g>
    </g>
    <g id="xtick_2">
     <g id="line2d_2">
      <g>
       <use xlink:href="#mf461770139" x="138.763636" y="87.353379" style="stroke: #000000; stroke-width: 0.8"/>
      </g>
     </g>
    </g>
    <g id="xtick_3">
     <g id="line2d_3">
      <g>
       <use xlink:href="#mf461770139" x="203.694545" y="87.353379" style="stroke: #000000; stroke-width: 0.8"/>
      </g>
     </g>
    </g>
    <g id="xtick_4">
     <g id="line2d_4">
      <g>
       <use xlink:href="#mf461770139" x="268.625455" y="87.353379" style="stroke: #000000; stroke-width: 0.8"/>
      </g>
     </g>
    </g>
    <g id="xtick_5">
     <g id="line2d_5">
      <g>
       <use xlink:href="#mf461770139" x="333.556364" y="87.353379" style="stroke: #000000; stroke-width: 0.8"/>
      </g>
     </g>
    </g>
    <g id="xtick_6">
     <g id="line2d_6">
      <g>
       <use xlink:href="#mf461770139" x="398.487273" y="87.353379" style="stroke: #000000; stroke-width: 0.8"/>
      </g>
     </g>
    </g>
   </g>
   <g id="matplotlib.axis_2">
    <g id="ytick_1">
     <g id="line2d_7">
      <defs>
       <path id="m9eb7c9c008" d="M 0 0 
L -3.5 0 
" style="stroke: #000000; stroke-width: 0.8"/>
      </defs>
      <g>
       <use xlink:href="#m9eb7c9c008" x="57.6" y="73.64647" style="stroke: #000000; stroke-width: 0.8"/>
      </g>
     </g>
     <g id="text_1">
      <!-- 0 -->
      <g transform="translate(44.2375 77.445689)scale(0.1 -0.1)">
       <defs>
        <path id="DejaVuSans-30" d="M 2034 4250 
Q 1547 4250 1301 3770 
Q 1056 3291 1056 2328 
Q 1056 1369 1301 889 
Q 1547 409 2034 409 
Q 2525 409 2770 889 
Q 3016 1369 3016 2328 
Q 3016 3291 2770 3770 
Q 2525 4250 2034 4250 
z
M 2034 4750 
Q 2819 4750 3233 4129 
Q 3647 3509 3647 2328 
Q 3647 1150 3233 529 
Q 2819 -91 2034 -91 
Q 1250 -91 836 529 
Q 422 1150 422 2328 
Q 422 3509 836 4129 
Q 1250 4750 2034 4750 
z
" transform="scale(0.015625)"/>
       </defs>
       <use xlink:href="#DejaVuSans-30"/>
      </g>
     </g>
    </g>
    <g id="ytick_2">
     <g id="line2d_8">
      <g>
       <use xlink:href="#m9eb7c9c008" x="57.6" y="43.663505" style="stroke: #000000; stroke-width: 0.8"/>
      </g>
     </g>
     <g id="text_2">
      <!-- 1 -->
      <g transform="translate(44.2375 47.462724)scale(0.1 -0.1)">
       <defs>
        <path id="DejaVuSans-31" d="M 794 531 
L 1825 531 
L 1825 4091 
L 703 3866 
L 703 4441 
L 1819 4666 
L 2450 4666 
L 2450 531 
L 3481 531 
L 3481 0 
L 794 0 
L 794 531 
z
" transform="scale(0.015625)"/>
       </defs>
       <use xlink:href="#DejaVuSans-31"/>
      </g>
     </g>
    </g>
    <g id="text_3">
     <!-- flow rate (normalized) -->
     <g transform="translate(38.157812 119.729877)rotate(-90)scale(0.1 -0.1)">
      <defs>
       <path id="DejaVuSans-66" d="M 2375 4863 
L 2375 4384 
L 1825 4384 
Q 1516 4384 1395 4259 
Q 1275 4134 1275 3809 
L 1275 3500 
L 2222 3500 
L 2222 3053 
L 1275 3053 
L 1275 0 
L 697 0 
L 697 3053 
L 147 3053 
L 147 3500 
L 697 3500 
L 697 3744 
Q 697 4328 969 4595 
Q 1241 4863 1831 4863 
L 2375 4863 
z
" transform="scale(0.015625)"/>
       <path id="DejaVuSans-6c" d="M 603 4863 
L 1178 4863 
L 1178 0 
L 603 0 
L 603 4863 
z
" transform="scale(0.015625)"/>
       <path id="DejaVuSans-6f" d="M 1959 3097 
Q 1497 3097 1228 2736 
Q 959 2375 959 1747 
Q 959 1119 1226 758 
Q 1494 397 1959 397 
Q 2419 397 2687 759 
Q 2956 1122 2956 1747 
Q 2956 2369 2687 2733 
Q 2419 3097 1959 3097 
z
M 1959 3584 
Q 2709 3584 3137 3096 
Q 3566 2609 3566 1747 
Q 3566 888 3137 398 
Q 2709 -91 1959 -91 
Q 1206 -91 779 398 
Q 353 888 353 1747 
Q 353 2609 779 3096 
Q 1206 3584 1959 3584 
z
" transform="scale(0.015625)"/>
       <path id="DejaVuSans-77" d="M 269 3500 
L 844 3500 
L 1563 769 
L 2278 3500 
L 2956 3500 
L 3675 769 
L 4391 3500 
L 4966 3500 
L 4050 0 
L 3372 0 
L 2619 2869 
L 1863 0 
L 1184 0 
L 269 3500 
z
" transform="scale(0.015625)"/>
       <path id="DejaVuSans-20" transform="scale(0.015625)"/>
       <path id="DejaVuSans-72" d="M 2631 2963 
Q 2534 3019 2420 3045 
Q 2306 3072 2169 3072 
Q 1681 3072 1420 2755 
Q 1159 2438 1159 1844 
L 1159 0 
L 581 0 
L 581 3500 
L 1159 3500 
L 1159 2956 
Q 1341 3275 1631 3429 
Q 1922 3584 2338 3584 
Q 2397 3584 2469 3576 
Q 2541 3569 2628 3553 
L 2631 2963 
z
" transform="scale(0.015625)"/>
       <path id="DejaVuSans-61" d="M 2194 1759 
Q 1497 1759 1228 1600 
Q 959 1441 959 1056 
Q 959 750 1161 570 
Q 1363 391 1709 391 
Q 2188 391 2477 730 
Q 2766 1069 2766 1631 
L 2766 1759 
L 2194 1759 
z
M 3341 1997 
L 3341 0 
L 2766 0 
L 2766 531 
Q 2569 213 2275 61 
Q 1981 -91 1556 -91 
Q 1019 -91 701 211 
Q 384 513 384 1019 
Q 384 1609 779 1909 
Q 1175 2209 1959 2209 
L 2766 2209 
L 2766 2266 
Q 2766 2663 2505 2880 
Q 2244 3097 1772 3097 
Q 1472 3097 1187 3025 
Q 903 2953 641 2809 
L 641 3341 
Q 956 3463 1253 3523 
Q 1550 3584 1831 3584 
Q 2591 3584 2966 3190 
Q 3341 2797 3341 1997 
z
" transform="scale(0.015625)"/>
       <path id="DejaVuSans-74" d="M 1172 4494 
L 1172 3500 
L 2356 3500 
L 2356 3053 
L 1172 3053 
L 1172 1153 
Q 1172 725 1289 603 
Q 1406 481 1766 481 
L 2356 481 
L 2356 0 
L 1766 0 
Q 1100 0 847 248 
Q 594 497 594 1153 
L 594 3053 
L 172 3053 
L 172 3500 
L 594 3500 
L 594 4494 
L 1172 4494 
z
" transform="scale(0.015625)"/>
       <path id="DejaVuSans-65" d="M 3597 1894 
L 3597 1613 
L 953 1613 
Q 991 1019 1311 708 
Q 1631 397 2203 397 
Q 2534 397 2845 478 
Q 3156 559 3463 722 
L 3463 178 
Q 3153 47 2828 -22 
Q 2503 -91 2169 -91 
Q 1331 -91 842 396 
Q 353 884 353 1716 
Q 353 2575 817 3079 
Q 1281 3584 2069 3584 
Q 2775 3584 3186 3129 
Q 3597 2675 3597 1894 
z
M 3022 2063 
Q 3016 2534 2758 2815 
Q 2500 3097 2075 3097 
Q 1594 3097 1305 2825 
Q 1016 2553 972 2059 
L 3022 2063 
z
" transform="scale(0.015625)"/>
       <path id="DejaVuSans-28" d="M 1984 4856 
Q 1566 4138 1362 3434 
Q 1159 2731 1159 2009 
Q 1159 1288 1364 580 
Q 1569 -128 1984 -844 
L 1484 -844 
Q 1016 -109 783 600 
Q 550 1309 550 2009 
Q 550 2706 781 3412 
Q 1013 4119 1484 4856 
L 1984 4856 
z
" transform="scale(0.015625)"/>
       <path id="DejaVuSans-6e" d="M 3513 2113 
L 3513 0 
L 2938 0 
L 2938 2094 
Q 2938 2591 2744 2837 
Q 2550 3084 2163 3084 
Q 1697 3084 1428 2787 
Q 1159 2491 1159 1978 
L 1159 0 
L 581 0 
L 581 3500 
L 1159 3500 
L 1159 2956 
Q 1366 3272 1645 3428 
Q 1925 3584 2291 3584 
Q 2894 3584 3203 3211 
Q 3513 2838 3513 2113 
z
" transform="scale(0.015625)"/>
       <path id="DejaVuSans-6d" d="M 3328 2828 
Q 3544 3216 3844 3400 
Q 4144 3584 4550 3584 
Q 5097 3584 5394 3201 
Q 5691 2819 5691 2113 
L 5691 0 
L 5113 0 
L 5113 2094 
Q 5113 2597 4934 2840 
Q 4756 3084 4391 3084 
Q 3944 3084 3684 2787 
Q 3425 2491 3425 1978 
L 3425 0 
L 2847 0 
L 2847 2094 
Q 2847 2600 2669 2842 
Q 2491 3084 2119 3084 
Q 1678 3084 1418 2786 
Q 1159 2488 1159 1978 
L 1159 0 
L 581 0 
L 581 3500 
L 1159 3500 
L 1159 2956 
Q 1356 3278 1631 3431 
Q 1906 3584 2284 3584 
Q 2666 3584 2933 3390 
Q 3200 3197 3328 2828 
z
" transform="scale(0.015625)"/>
       <path id="DejaVuSans-69" d="M 603 3500 
L 1178 3500 
L 1178 0 
L 603 0 
L 603 3500 
z
M 603 4863 
L 1178 4863 
L 1178 4134 
L 603 4134 
L 603 4863 
z
" transform="scale(0.015625)"/>
       <path id="DejaVuSans-7a" d="M 353 3500 
L 3084 3500 
L 3084 2975 
L 922 459 
L 3084 459 
L 3084 0 
L 275 0 
L 275 525 
L 2438 3041 
L 353 3041 
L 353 3500 
z
" transform="scale(0.015625)"/>
       <path id="DejaVuSans-64" d="M 2906 2969 
L 2906 4863 
L 3481 4863 
L 3481 0 
L 2906 0 
L 2906 525 
Q 2725 213 2448 61 
Q 2172 -91 1784 -91 
Q 1150 -91 751 415 
Q 353 922 353 1747 
Q 353 2572 751 3078 
Q 1150 3584 1784 3584 
Q 2172 3584 2448 3432 
Q 2725 3281 2906 2969 
z
M 947 1747 
Q 947 1113 1208 752 
Q 1469 391 1925 391 
Q 2381 391 2643 752 
Q 2906 1113 2906 1747 
Q 2906 2381 2643 2742 
Q 2381 3103 1925 3103 
Q 1469 3103 1208 2742 
Q 947 2381 947 1747 
z
" transform="scale(0.015625)"/>
       <path id="DejaVuSans-29" d="M 513 4856 
L 1013 4856 
Q 1481 4119 1714 3412 
Q 1947 2706 1947 2009 
Q 1947 1309 1714 600 
Q 1481 -109 1013 -844 
L 513 -844 
Q 928 -128 1133 580 
Q 1338 1288 1338 2009 
Q 1338 2731 1133 3434 
Q 928 4138 513 4856 
z
" transform="scale(0.015625)"/>
      </defs>
      <use xlink:href="#DejaVuSans-66"/>
      <use xlink:href="#DejaVuSans-6c" x="35.205078"/>
      <use xlink:href="#DejaVuSans-6f" x="62.988281"/>
      <use xlink:href="#DejaVuSans-77" x="124.169922"/>
      <use xlink:href="#DejaVuSans-20" x="205.957031"/>
      <use xlink:href="#DejaVuSans-72" x="237.744141"/>
      <use xlink:href="#DejaVuSans-61" x="278.857422"/>
      <use xlink:href="#DejaVuSans-74" x="340.136719"/>
      <use xlink:href="#DejaVuSans-65" x="379.345703"/>
      <use xlink:href="#DejaVuSans-20" x="440.869141"/>
      <use xlink:href="#DejaVuSans-28" x="472.65625"/>
      <use xlink:href="#DejaVuSans-6e" x="511.669922"/>
      <use xlink:href="#DejaVuSans-6f" x="575.048828"/>
      <use xlink:href="#DejaVuSans-72" x="636.230469"/>
      <use xlink:href="#DejaVuSans-6d" x="675.59375"/>
      <use xlink:href="#DejaVuSans-61" x="773.005859"/>
      <use xlink:href="#DejaVuSans-6c" x="834.285156"/>
      <use xlink:href="#DejaVuSans-69" x="862.068359"/>
      <use xlink:href="#DejaVuSans-7a" x="889.851562"/>
      <use xlink:href="#DejaVuSans-65" x="942.341797"/>
      <use xlink:href="#DejaVuSans-64" x="1003.865234"/>
      <use xlink:href="#DejaVuSans-29" x="1067.341797"/>
     </g>
    </g>
   </g>
   <g id="line2d_9">
    <path d="M 73.832727 73.646471 
L 77.079273 63.080954 
L 80.325818 69.406492 
L 83.572364 71.756668 
L 86.818909 72.57022 
L 90.065455 73.052309 
L 93.312 73.284829 
L 96.558545 73.418851 
L 99.805091 73.505974 
L 103.051636 73.561815 
L 106.298182 73.615714 
L 109.544727 73.631944 
L 112.791273 73.627285 
L 116.037818 73.634263 
L 119.284364 73.638851 
L 122.530909 72.324577 
L 125.777455 43.603488 
L 129.024 43.603488 
L 132.270545 43.603488 
L 135.517091 43.603488 
L 138.763636 43.603488 
L 142.010182 43.603488 
L 145.256727 43.603488 
L 148.503273 43.603488 
L 151.749818 43.603488 
L 154.996364 43.603488 
L 158.242909 43.603488 
L 161.489455 43.603488 
L 164.736 43.603488 
L 167.982545 43.603488 
L 171.229091 44.511304 
L 174.475636 66.732195 
L 177.722182 67.336847 
L 180.968727 68.002722 
L 184.215273 69.24264 
L 187.461818 69.805404 
L 190.708364 70.960575 
L 193.954909 72.053876 
L 197.201455 72.261949 
L 200.448 73.174937 
L 203.694545 73.244825 
L 206.941091 72.924993 
L 210.187636 74.385048 
L 213.434182 72.55474 
L 216.680727 73.586017 
L 219.927273 73.609586 
L 223.173818 73.623291 
L 226.420364 73.632569 
L 229.666909 73.639008 
L 232.913455 73.643417 
L 236.16 73.645298 
L 239.406545 73.645746 
L 242.653091 73.64585 
L 245.899636 73.645903 
L 249.146182 73.645934 
L 252.392727 73.645965 
L 255.639273 73.645996 
L 258.885818 73.646341 
L 262.132364 73.646389 
L 265.378909 73.646426 
L 268.625455 73.708706 
L 271.872 79.429483 
L 275.118545 78.789705 
L 278.365091 78.078728 
L 281.611636 77.396979 
L 284.858182 76.578961 
L 288.104727 75.7612 
L 291.351273 75.107386 
L 294.597818 74.707034 
L 297.844364 74.30767 
L 301.090909 74.062218 
L 304.337455 73.899075 
L 307.584 73.802463 
L 310.830545 73.753023 
L 314.077091 73.713621 
L 317.323636 73.683821 
L 320.570182 73.668545 
L 323.816727 73.661877 
L 327.063273 73.656215 
L 330.309818 73.65237 
L 333.556364 73.649818 
L 336.802909 73.648264 
L 340.049455 73.647258 
L 343.296 73.646887 
L 346.542545 73.646499 
L 349.789091 73.646396 
L 353.035636 73.646212 
L 356.282182 73.646356 
L 359.528727 73.646431 
L 362.775273 73.646435 
L 366.021818 73.64644 
L 369.268364 73.646445 
L 372.514909 73.646449 
L 375.761455 73.646454 
L 379.008 73.646459 
L 382.254545 73.646463 
L 385.501091 73.646468 
L 388.747636 73.646473 
L 391.994182 73.646477 
L 395.240727 73.646479 
L 398.487273 73.646471 
" clip-path="url(#pc6187971f1)" style="fill: none; stroke: #1f77b4; stroke-width: 1.5; stroke-linecap: square"/>
   </g>
   <g id="line2d_10">
    <path d="M 73.832727 73.646472 
L 77.079273 52.639779 
L 80.325818 65.144909 
L 83.572364 69.869457 
L 86.818909 71.494759 
L 90.065455 72.458337 
L 93.312 72.923338 
L 96.558545 73.191287 
L 99.805091 73.36555 
L 103.051636 73.477201 
L 106.298182 73.585007 
L 109.544727 73.617433 
L 112.791273 73.608099 
L 116.037818 73.622061 
L 119.284364 73.631237 
L 122.530909 66.482261 
L 125.777455 43.654953 
L 129.024 43.654953 
L 132.270545 43.654953 
L 135.517091 43.654953 
L 138.763636 43.654953 
L 142.010182 43.654953 
L 145.256727 43.654953 
L 148.503273 43.654953 
L 151.749818 43.654953 
L 154.996364 43.654953 
L 158.242909 43.654953 
L 161.489455 43.654953 
L 164.736 43.654953 
L 167.982545 43.654953 
L 171.229091 46.291816 
L 174.475636 72.389705 
L 177.722182 72.499662 
L 180.968727 72.621007 
L 184.215273 72.845927 
L 187.461818 72.948829 
L 190.708364 73.159848 
L 193.954909 73.356675 
L 197.201455 73.392018 
L 200.448 73.567815 
L 203.694545 73.56981 
L 206.941091 73.514624 
L 210.187636 73.789624 
L 213.434182 73.437552 
L 216.680727 73.636099 
L 219.927273 73.639714 
L 223.173818 73.642242 
L 226.420364 73.643943 
L 229.666909 73.645113 
L 232.913455 73.645914 
L 236.16 73.646256 
L 239.406545 73.646339 
L 242.653091 73.646357 
L 245.899636 73.646367 
L 249.146182 73.646372 
L 252.392727 73.646378 
L 255.639273 73.646384 
L 258.885818 73.646446 
L 262.132364 73.646455 
L 265.378909 73.646462 
L 268.625455 74.123462 
L 271.872 85.267862 
L 275.118545 84.002141 
L 278.365091 82.596007 
L 281.611636 81.243998 
L 284.858182 79.630703 
L 288.104727 77.947651 
L 291.351273 76.465435 
L 294.597818 75.539138 
L 297.844364 74.878653 
L 301.090909 74.467349 
L 304.337455 74.142979 
L 307.584 73.953865 
L 310.830545 73.857173 
L 314.077091 73.777172 
L 317.323636 73.719442 
L 320.570182 73.690459 
L 323.816727 73.676994 
L 327.063273 73.665403 
L 330.309818 73.65788 
L 333.556364 73.653065 
L 336.802909 73.650093 
L 340.049455 73.648135 
L 343.296 73.647306 
L 346.542545 73.646539 
L 349.789091 73.64633 
L 353.035636 73.645963 
L 356.282182 73.646252 
L 359.528727 73.646402 
L 362.775273 73.64641 
L 366.021818 73.646419 
L 369.268364 73.646427 
L 372.514909 73.646435 
L 375.761455 73.646444 
L 379.008 73.646452 
L 382.254545 73.646461 
L 385.501091 73.646469 
L 388.747636 73.646477 
L 391.994182 73.646486 
L 395.240727 73.646487 
L 398.487273 73.646472 
" clip-path="url(#pc6187971f1)" style="fill: none; stroke: #ff7f0e; stroke-width: 1.5; stroke-linecap: square"/>
   </g>
   <g id="line2d_11">
    <path d="M 73.832727 73.64647 
L 77.079273 72.469388 
L 80.325818 73.173363 
L 83.572364 73.436444 
L 86.818909 73.526871 
L 90.065455 73.580449 
L 93.312 73.606285 
L 96.558545 73.621177 
L 99.805091 73.630855 
L 103.051636 73.637061 
L 106.298182 73.643051 
L 109.544727 73.644852 
L 112.791273 73.644341 
L 116.037818 73.645113 
L 119.284364 73.645623 
L 122.530909 75.519941 
L 125.777455 43.557517 
L 129.024 43.557517 
L 132.270545 43.557517 
L 135.517091 43.557517 
L 138.763636 43.557517 
L 142.010182 43.557517 
L 145.256727 43.557517 
L 148.503273 43.557517 
L 151.749818 43.557517 
L 154.996364 43.557517 
L 158.242909 43.557517 
L 161.489455 43.557517 
L 164.736 43.557517 
L 167.982545 43.557517 
L 171.229091 43.764488 
L 174.475636 61.695881 
L 177.722182 62.739824 
L 180.968727 63.884455 
L 184.215273 66.036408 
L 187.461818 66.997095 
L 190.708364 68.972651 
L 193.954909 70.898296 
L 197.201455 71.313533 
L 200.448 72.685271 
L 203.694545 73.018266 
L 206.941091 72.436824 
L 210.187636 74.70945 
L 213.434182 72.007308 
L 216.680727 73.530832 
L 219.927273 73.58309 
L 223.173818 73.60666 
L 226.420364 73.62247 
L 229.666909 73.633598 
L 232.913455 73.641218 
L 236.16 73.644455 
L 239.406545 73.645201 
L 242.653091 73.645394 
L 245.899636 73.645492 
L 249.146182 73.645545 
L 252.392727 73.645599 
L 255.639273 73.645652 
L 258.885818 73.64625 
L 262.132364 73.646331 
L 265.378909 73.646395 
L 268.625455 73.650256 
L 271.872 74.288094 
L 275.118545 74.216787 
L 278.365091 74.137535 
L 281.611636 74.061619 
L 284.858182 73.970422 
L 288.104727 73.880569 
L 291.351273 73.810681 
L 294.597818 73.766381 
L 297.844364 73.719983 
L 301.090909 73.69285 
L 304.337455 73.674698 
L 307.584 73.663888 
L 310.830545 73.658353 
L 314.077091 73.653996 
L 317.323636 73.650653 
L 320.570182 73.648926 
L 323.816727 73.648187 
L 327.063273 73.647563 
L 330.309818 73.647133 
L 333.556364 73.646844 
L 336.802909 73.646669 
L 340.049455 73.646556 
L 343.296 73.646516 
L 346.542545 73.646473 
L 349.789091 73.646461 
L 353.035636 73.646441 
L 356.282182 73.646457 
L 359.528727 73.646465 
L 362.775273 73.646466 
L 366.021818 73.646466 
L 369.268364 73.646467 
L 372.514909 73.646467 
L 375.761455 73.646468 
L 379.008 73.646468 
L 382.254545 73.646469 
L 385.501091 73.64647 
L 388.747636 73.64647 
L 391.994182 73.646471 
L 395.240727 73.646471 
L 398.487273 73.64647 
" clip-path="url(#pc6187971f1)" style="fill: none; stroke: #2ca02c; stroke-width: 1.5; stroke-linecap: square"/>
   </g>
   <g id="patch_3">
    <path d="M 57.6 87.353379 
L 57.6 41.472 
" style="fill: none; stroke: #000000; stroke-width: 0.8; stroke-linejoin: miter; stroke-linecap: square"/>
   </g>
   <g id="patch_4">
    <path d="M 414.72 87.353379 
L 414.72 41.472 
" style="fill: none; stroke: #000000; stroke-width: 0.8; stroke-linejoin: miter; stroke-linecap: square"/>
   </g>
   <g id="patch_5">
    <path d="M 57.6 87.353379 
L 414.72 87.353379 
" style="fill: none; stroke: #000000; stroke-width: 0.8; stroke-linejoin: miter; stroke-linecap: square"/>
   </g>
   <g id="patch_6">
    <path d="M 57.6 41.472 
L 414.72 41.472 
" style="fill: none; stroke: #000000; stroke-width: 0.8; stroke-linejoin: miter; stroke-linecap: square"/>
   </g>
   <g id="text_4">
    <!-- velocity vs time (container 1)   -->
    <g transform="translate(144.106875 35.472)scale(0.12 -0.12)">
     <defs>
      <path id="DejaVuSans-76" d="M 191 3500 
L 800 3500 
L 1894 563 
L 2988 3500 
L 3597 3500 
L 2284 0 
L 1503 0 
L 191 3500 
z
" transform="scale(0.015625)"/>
      <path id="DejaVuSans-63" d="M 3122 3366 
L 3122 2828 
Q 2878 2963 2633 3030 
Q 2388 3097 2138 3097 
Q 1578 3097 1268 2742 
Q 959 2388 959 1747 
Q 959 1106 1268 751 
Q 1578 397 2138 397 
Q 2388 397 2633 464 
Q 2878 531 3122 666 
L 3122 134 
Q 2881 22 2623 -34 
Q 2366 -91 2075 -91 
Q 1284 -91 818 406 
Q 353 903 353 1747 
Q 353 2603 823 3093 
Q 1294 3584 2113 3584 
Q 2378 3584 2631 3529 
Q 2884 3475 3122 3366 
z
" transform="scale(0.015625)"/>
      <path id="DejaVuSans-79" d="M 2059 -325 
Q 1816 -950 1584 -1140 
Q 1353 -1331 966 -1331 
L 506 -1331 
L 506 -850 
L 844 -850 
Q 1081 -850 1212 -737 
Q 1344 -625 1503 -206 
L 1606 56 
L 191 3500 
L 800 3500 
L 1894 763 
L 2988 3500 
L 3597 3500 
L 2059 -325 
z
" transform="scale(0.015625)"/>
      <path id="DejaVuSans-73" d="M 2834 3397 
L 2834 2853 
Q 2591 2978 2328 3040 
Q 2066 3103 1784 3103 
Q 1356 3103 1142 2972 
Q 928 2841 928 2578 
Q 928 2378 1081 2264 
Q 1234 2150 1697 2047 
L 1894 2003 
Q 2506 1872 2764 1633 
Q 3022 1394 3022 966 
Q 3022 478 2636 193 
Q 2250 -91 1575 -91 
Q 1294 -91 989 -36 
Q 684 19 347 128 
L 347 722 
Q 666 556 975 473 
Q 1284 391 1588 391 
Q 1994 391 2212 530 
Q 2431 669 2431 922 
Q 2431 1156 2273 1281 
Q 2116 1406 1581 1522 
L 1381 1569 
Q 847 1681 609 1914 
Q 372 2147 372 2553 
Q 372 3047 722 3315 
Q 1072 3584 1716 3584 
Q 2034 3584 2315 3537 
Q 2597 3491 2834 3397 
z
" transform="scale(0.015625)"/>
     </defs>
     <use xlink:href="#DejaVuSans-76"/>
     <use xlink:href="#DejaVuSans-65" x="59.179688"/>
     <use xlink:href="#DejaVuSans-6c" x="120.703125"/>
     <use xlink:href="#DejaVuSans-6f" x="148.486328"/>
     <use xlink:href="#DejaVuSans-63" x="209.667969"/>
     <use xlink:href="#DejaVuSans-69" x="264.648438"/>
     <use xlink:href="#DejaVuSans-74" x="292.431641"/>
     <use xlink:href="#DejaVuSans-79" x="331.640625"/>
     <use xlink:href="#DejaVuSans-20" x="390.820312"/>
     <use xlink:href="#DejaVuSans-76" x="422.607422"/>
     <use xlink:href="#DejaVuSans-73" x="481.787109"/>
     <use xlink:href="#DejaVuSans-20" x="533.886719"/>
     <use xlink:href="#DejaVuSans-74" x="565.673828"/>
     <use xlink:href="#DejaVuSans-69" x="604.882812"/>
     <use xlink:href="#DejaVuSans-6d" x="632.666016"/>
     <use xlink:href="#DejaVuSans-65" x="730.078125"/>
     <use xlink:href="#DejaVuSans-20" x="791.601562"/>
     <use xlink:href="#DejaVuSans-28" x="823.388672"/>
     <use xlink:href="#DejaVuSans-63" x="862.402344"/>
     <use xlink:href="#DejaVuSans-6f" x="917.382812"/>
     <use xlink:href="#DejaVuSans-6e" x="978.564453"/>
     <use xlink:href="#DejaVuSans-74" x="1041.943359"/>
     <use xlink:href="#DejaVuSans-61" x="1081.152344"/>
     <use xlink:href="#DejaVuSans-69" x="1142.431641"/>
     <use xlink:href="#DejaVuSans-6e" x="1170.214844"/>
     <use xlink:href="#DejaVuSans-65" x="1233.59375"/>
     <use xlink:href="#DejaVuSans-72" x="1295.117188"/>
     <use xlink:href="#DejaVuSans-20" x="1336.230469"/>
     <use xlink:href="#DejaVuSans-31" x="1368.017578"/>
     <use xlink:href="#DejaVuSans-29" x="1431.640625"/>
     <use xlink:href="#DejaVuSans-20" x="1470.654297"/>
     <use xlink:href="#DejaVuSans-20" x="1502.441406"/>
    </g>
   </g>
   <g id="legend_1">
    <g id="patch_7">
     <path d="M 64.6 93.506375 
L 139.240625 93.506375 
Q 141.240625 93.506375 141.240625 91.506375 
L 141.240625 48.472 
Q 141.240625 46.472 139.240625 46.472 
L 64.6 46.472 
Q 62.6 46.472 62.6 48.472 
L 62.6 91.506375 
Q 62.6 93.506375 64.6 93.506375 
z
" style="fill: #ffffff; opacity: 0.8; stroke: #cccccc; stroke-linejoin: miter"/>
    </g>
    <g id="line2d_12">
     <path d="M 66.6 54.570437 
L 76.6 54.570437 
L 86.6 54.570437 
" style="fill: none; stroke: #1f77b4; stroke-width: 1.5; stroke-linecap: square"/>
    </g>
    <g id="text_5">
     <!-- mid flow -->
     <g transform="translate(94.6 58.070437)scale(0.1 -0.1)">
      <use xlink:href="#DejaVuSans-6d"/>
      <use xlink:href="#DejaVuSans-69" x="97.412109"/>
      <use xlink:href="#DejaVuSans-64" x="125.195312"/>
      <use xlink:href="#DejaVuSans-20" x="188.671875"/>
      <use xlink:href="#DejaVuSans-66" x="220.458984"/>
      <use xlink:href="#DejaVuSans-6c" x="255.664062"/>
      <use xlink:href="#DejaVuSans-6f" x="283.447266"/>
      <use xlink:href="#DejaVuSans-77" x="344.628906"/>
     </g>
    </g>
    <g id="line2d_13">
     <path d="M 66.6 69.248562 
L 76.6 69.248562 
L 86.6 69.248562 
" style="fill: none; stroke: #ff7f0e; stroke-width: 1.5; stroke-linecap: square"/>
    </g>
    <g id="text_6">
     <!-- v0 flow -->
     <g transform="translate(94.6 72.748562)scale(0.1 -0.1)">
      <use xlink:href="#DejaVuSans-76"/>
      <use xlink:href="#DejaVuSans-30" x="59.179688"/>
      <use xlink:href="#DejaVuSans-20" x="122.802734"/>
      <use xlink:href="#DejaVuSans-66" x="154.589844"/>
      <use xlink:href="#DejaVuSans-6c" x="189.794922"/>
      <use xlink:href="#DejaVuSans-6f" x="217.578125"/>
      <use xlink:href="#DejaVuSans-77" x="278.759766"/>
     </g>
    </g>
    <g id="line2d_14">
     <path d="M 66.6 83.926687 
L 76.6 83.926687 
L 86.6 83.926687 
" style="fill: none; stroke: #2ca02c; stroke-width: 1.5; stroke-linecap: square"/>
    </g>
    <g id="text_7">
     <!-- vN flow -->
     <g transform="translate(94.6 87.426687)scale(0.1 -0.1)">
      <defs>
       <path id="DejaVuSans-4e" d="M 628 4666 
L 1478 4666 
L 3547 763 
L 3547 4666 
L 4159 4666 
L 4159 0 
L 3309 0 
L 1241 3903 
L 1241 0 
L 628 0 
L 628 4666 
z
" transform="scale(0.015625)"/>
      </defs>
      <use xlink:href="#DejaVuSans-76"/>
      <use xlink:href="#DejaVuSans-4e" x="59.179688"/>
      <use xlink:href="#DejaVuSans-20" x="133.984375"/>
      <use xlink:href="#DejaVuSans-66" x="165.771484"/>
      <use xlink:href="#DejaVuSans-6c" x="200.976562"/>
      <use xlink:href="#DejaVuSans-6f" x="228.759766"/>
      <use xlink:href="#DejaVuSans-77" x="289.941406"/>
     </g>
    </g>
   </g>
  </g>
  <g id="axes_2">
   <g id="patch_8">
    <path d="M 57.6 142.411034 
L 414.72 142.411034 
L 414.72 96.529655 
L 57.6 96.529655 
z
" style="fill: #ffffff"/>
   </g>
   <g id="matplotlib.axis_3">
    <g id="xtick_7">
     <g id="line2d_15">
      <g>
       <use xlink:href="#mf461770139" x="73.832727" y="142.411034" style="stroke: #000000; stroke-width: 0.8"/>
      </g>
     </g>
    </g>
    <g id="xtick_8">
     <g id="line2d_16">
      <g>
       <use xlink:href="#mf461770139" x="138.763636" y="142.411034" style="stroke: #000000; stroke-width: 0.8"/>
      </g>
     </g>
    </g>
    <g id="xtick_9">
     <g id="line2d_17">
      <g>
       <use xlink:href="#mf461770139" x="203.694545" y="142.411034" style="stroke: #000000; stroke-width: 0.8"/>
      </g>
     </g>
    </g>
    <g id="xtick_10">
     <g id="line2d_18">
      <g>
       <use xlink:href="#mf461770139" x="268.625455" y="142.411034" style="stroke: #000000; stroke-width: 0.8"/>
      </g>
     </g>
    </g>
    <g id="xtick_11">
     <g id="line2d_19">
      <g>
       <use xlink:href="#mf461770139" x="333.556364" y="142.411034" style="stroke: #000000; stroke-width: 0.8"/>
      </g>
     </g>
    </g>
    <g id="xtick_12">
     <g id="line2d_20">
      <g>
       <use xlink:href="#mf461770139" x="398.487273" y="142.411034" style="stroke: #000000; stroke-width: 0.8"/>
      </g>
     </g>
    </g>
   </g>
   <g id="matplotlib.axis_4">
    <g id="ytick_3">
     <g id="line2d_21">
      <g>
       <use xlink:href="#m9eb7c9c008" x="57.6" y="140.745253" style="stroke: #000000; stroke-width: 0.8"/>
      </g>
     </g>
     <g id="text_8">
      <!-- 0 -->
      <g transform="translate(44.2375 144.544472)scale(0.1 -0.1)">
       <use xlink:href="#DejaVuSans-30"/>
      </g>
     </g>
    </g>
    <g id="ytick_4">
     <g id="line2d_22">
      <g>
       <use xlink:href="#m9eb7c9c008" x="57.6" y="98.771642" style="stroke: #000000; stroke-width: 0.8"/>
      </g>
     </g>
     <g id="text_9">
      <!-- 1 -->
      <g transform="translate(44.2375 102.570861)scale(0.1 -0.1)">
       <use xlink:href="#DejaVuSans-31"/>
      </g>
     </g>
    </g>
   </g>
   <g id="line2d_23">
    <path d="M 73.832727 140.325517 
L 77.079273 123.978968 
L 80.325818 114.060856 
L 83.572364 108.04383 
L 86.818909 104.400077 
L 90.065455 102.18261 
L 93.312 100.845774 
L 96.558545 100.03406 
L 99.805091 99.537765 
L 103.051636 99.235965 
L 106.298182 99.053532 
L 109.544727 98.938794 
L 112.791273 98.87338 
L 116.037818 98.835894 
L 119.284364 98.809763 
L 122.530909 98.776157 
L 125.777455 98.615172 
L 129.024 98.615172 
L 132.270545 98.615172 
L 135.517091 98.615172 
L 138.763636 98.615172 
L 142.010182 98.615172 
L 145.256727 98.615172 
L 148.503273 98.615172 
L 151.749818 98.615172 
L 154.996364 98.615172 
L 158.242909 98.615172 
L 161.489455 98.615172 
L 164.736 98.615172 
L 167.982545 98.615172 
L 171.229091 98.622883 
L 174.475636 113.596506 
L 177.722182 122.620204 
L 180.968727 128.098199 
L 184.215273 131.412406 
L 187.461818 133.426205 
L 190.708364 134.6527 
L 193.954909 135.400377 
L 197.201455 135.849541 
L 200.448 136.123911 
L 203.694545 136.292663 
L 206.941091 136.39031 
L 210.187636 136.455562 
L 213.434182 136.488706 
L 216.680727 136.513094 
L 219.927273 136.526839 
L 223.173818 136.535165 
L 226.420364 136.540178 
L 229.666909 136.5434 
L 232.913455 136.545054 
L 236.16 136.546268 
L 239.406545 136.547156 
L 242.653091 136.547303 
L 245.899636 136.547431 
L 249.146182 136.54755 
L 252.392727 136.547669 
L 255.639273 136.547788 
L 258.885818 136.547839 
L 262.132364 136.547859 
L 265.378909 136.547873 
L 268.625455 136.548675 
L 271.872 138.034559 
L 275.118545 138.934331 
L 278.365091 139.480967 
L 281.611636 139.813092 
L 284.858182 140.014764 
L 288.104727 140.136807 
L 291.351273 140.210729 
L 294.597818 140.255996 
L 297.844364 140.283304 
L 301.090909 140.299943 
L 304.337455 140.310028 
L 307.584 140.31609 
L 310.830545 140.319784 
L 314.077091 140.322051 
L 317.323636 140.323416 
L 320.570182 140.324231 
L 323.816727 140.32474 
L 327.063273 140.325048 
L 330.309818 140.325231 
L 333.556364 140.325343 
L 336.802909 140.325412 
L 340.049455 140.325455 
L 343.296 140.32548 
L 346.542545 140.325498 
L 349.789091 140.325504 
L 353.035636 140.325514 
L 356.282182 140.325514 
L 359.528727 140.325513 
L 362.775273 140.325514 
L 366.021818 140.325514 
L 369.268364 140.325514 
L 372.514909 140.325515 
L 375.761455 140.325515 
L 379.008 140.325516 
L 382.254545 140.325516 
L 385.501091 140.325516 
L 388.747636 140.325517 
L 391.994182 140.325517 
L 395.240727 140.325517 
L 398.487273 140.325517 
" clip-path="url(#p23de9ad4a8)" style="fill: none; stroke: #1f77b4; stroke-width: 1.5; stroke-linecap: square"/>
   </g>
   <g id="line2d_24">
    <path d="M 73.832727 140.325517 
L 77.079273 124.024269 
L 80.325818 114.079133 
L 83.572364 108.051959 
L 86.818909 104.404708 
L 90.065455 102.185167 
L 93.312 100.84733 
L 96.558545 100.03504 
L 99.805091 99.538369 
L 103.051636 99.23633 
L 106.298182 99.053665 
L 109.544727 98.938856 
L 112.791273 98.873462 
L 116.037818 98.835947 
L 119.284364 98.809796 
L 122.530909 98.788277 
L 125.777455 98.69534 
L 129.024 98.69534 
L 132.270545 98.69534 
L 135.517091 98.69534 
L 138.763636 98.69534 
L 142.010182 98.69534 
L 145.256727 98.69534 
L 148.503273 98.69534 
L 151.749818 98.69534 
L 154.996364 98.69534 
L 158.242909 98.69534 
L 161.489455 98.69534 
L 164.736 98.69534 
L 167.982545 98.69534 
L 171.229091 98.698083 
L 174.475636 113.605739 
L 177.722182 122.628629 
L 180.968727 128.105734 
L 184.215273 131.418287 
L 187.461818 133.431332 
L 190.708364 134.65628 
L 193.954909 135.402505 
L 197.201455 135.851401 
L 200.448 136.124511 
L 203.694545 136.293214 
L 206.941091 136.391277 
L 210.187636 136.454538 
L 213.434182 136.490209 
L 216.680727 136.513172 
L 219.927273 136.526889 
L 223.173818 136.535196 
L 226.420364 136.540197 
L 229.666909 136.54341 
L 232.913455 136.545058 
L 236.16 136.54627 
L 239.406545 136.547157 
L 242.653091 136.547304 
L 245.899636 136.547432 
L 249.146182 136.547551 
L 252.392727 136.54767 
L 255.639273 136.547788 
L 258.885818 136.54784 
L 262.132364 136.547859 
L 265.378909 136.547873 
L 268.625455 136.547966 
L 271.872 138.009595 
L 275.118545 138.912102 
L 278.365091 139.461777 
L 281.611636 139.796821 
L 284.858182 140.001983 
L 288.104727 140.127612 
L 291.351273 140.204582 
L 294.597818 140.25172 
L 297.844364 140.280563 
L 301.090909 140.298168 
L 304.337455 140.308953 
L 307.584 140.315425 
L 310.830545 140.319329 
L 314.077091 140.321767 
L 317.323636 140.323257 
L 320.570182 140.324136 
L 323.816727 140.324674 
L 327.063273 140.325007 
L 330.309818 140.325206 
L 333.556364 140.325329 
L 336.802909 140.325404 
L 340.049455 140.325452 
L 343.296 140.325478 
L 346.542545 140.325498 
L 349.789091 140.325505 
L 353.035636 140.325515 
L 356.282182 140.325514 
L 359.528727 140.325514 
L 362.775273 140.325514 
L 366.021818 140.325514 
L 369.268364 140.325515 
L 372.514909 140.325515 
L 375.761455 140.325515 
L 379.008 140.325516 
L 382.254545 140.325516 
L 385.501091 140.325516 
L 388.747636 140.325517 
L 391.994182 140.325517 
L 395.240727 140.325517 
L 398.487273 140.325517 
" clip-path="url(#p23de9ad4a8)" style="fill: none; stroke: #ff7f0e; stroke-width: 1.5; stroke-linecap: square"/>
   </g>
   <g id="line2d_25">
    <path d="M 73.832727 140.325517 
L 77.079273 124.038392 
L 80.325818 114.084793 
L 83.572364 108.054484 
L 86.818909 104.406146 
L 90.065455 102.18596 
L 93.312 100.847814 
L 96.558545 100.035344 
L 99.805091 99.538557 
L 103.051636 99.236443 
L 106.298182 99.053706 
L 109.544727 98.938876 
L 112.791273 98.873488 
L 116.037818 98.835963 
L 119.284364 98.809806 
L 122.530909 98.787665 
L 125.777455 98.767622 
L 129.024 98.767622 
L 132.270545 98.767622 
L 135.517091 98.767622 
L 138.763636 98.767622 
L 142.010182 98.767622 
L 145.256727 98.767622 
L 148.503273 98.767622 
L 151.749818 98.767622 
L 154.996364 98.767622 
L 158.242909 98.767622 
L 161.489455 98.767622 
L 164.736 98.767622 
L 167.982545 98.767622 
L 171.229091 98.769095 
L 174.475636 113.628414 
L 177.722182 122.649323 
L 180.968727 128.124249 
L 184.215273 131.432727 
L 187.461818 133.443939 
L 190.708364 134.665119 
L 193.954909 135.407723 
L 197.201455 135.855884 
L 200.448 136.126199 
L 203.694545 136.294465 
L 206.941091 136.393611 
L 210.187636 136.452319 
L 213.434182 136.493554 
L 216.680727 136.513382 
L 219.927273 136.527009 
L 223.173818 136.535272 
L 226.420364 136.540243 
L 229.666909 136.543435 
L 232.913455 136.545068 
L 236.16 136.546274 
L 239.406545 136.547159 
L 242.653091 136.547306 
L 245.899636 136.547434 
L 249.146182 136.547553 
L 252.392727 136.547671 
L 255.639273 136.54779 
L 258.885818 136.54784 
L 262.132364 136.547859 
L 265.378909 136.547873 
L 268.625455 136.547901 
L 271.872 138.001877 
L 275.118545 138.905239 
L 278.365091 139.455865 
L 281.611636 139.79182 
L 284.858182 139.998077 
L 288.104727 140.124793 
L 291.351273 140.20262 
L 294.597818 140.250292 
L 297.844364 140.279679 
L 301.090909 140.297611 
L 304.337455 140.308615 
L 307.584 140.315216 
L 310.830545 140.319186 
L 314.077091 140.321677 
L 317.323636 140.323207 
L 320.570182 140.324107 
L 323.816727 140.324653 
L 327.063273 140.324994 
L 330.309818 140.325198 
L 333.556364 140.325325 
L 336.802909 140.325402 
L 340.049455 140.325451 
L 343.296 140.325478 
L 346.542545 140.325498 
L 349.789091 140.325505 
L 353.035636 140.325515 
L 356.282182 140.325514 
L 359.528727 140.325514 
L 362.775273 140.325514 
L 366.021818 140.325514 
L 369.268364 140.325515 
L 372.514909 140.325515 
L 375.761455 140.325515 
L 379.008 140.325516 
L 382.254545 140.325516 
L 385.501091 140.325516 
L 388.747636 140.325517 
L 391.994182 140.325517 
L 395.240727 140.325517 
L 398.487273 140.325517 
" clip-path="url(#p23de9ad4a8)" style="fill: none; stroke: #2ca02c; stroke-width: 1.5; stroke-linecap: square"/>
   </g>
   <g id="patch_9">
    <path d="M 57.6 142.411034 
L 57.6 96.529655 
" style="fill: none; stroke: #000000; stroke-width: 0.8; stroke-linejoin: miter; stroke-linecap: square"/>
   </g>
   <g id="patch_10">
    <path d="M 414.72 142.411034 
L 414.72 96.529655 
" style="fill: none; stroke: #000000; stroke-width: 0.8; stroke-linejoin: miter; stroke-linecap: square"/>
   </g>
   <g id="patch_11">
    <path d="M 57.6 142.411034 
L 414.72 142.411034 
" style="fill: none; stroke: #000000; stroke-width: 0.8; stroke-linejoin: miter; stroke-linecap: square"/>
   </g>
   <g id="patch_12">
    <path d="M 57.6 96.529655 
L 414.72 96.529655 
" style="fill: none; stroke: #000000; stroke-width: 0.8; stroke-linejoin: miter; stroke-linecap: square"/>
   </g>
   <g id="text_10">
    <!-- Pressure -->
    <g transform="translate(210.546562 90.529655)scale(0.12 -0.12)">
     <defs>
      <path id="DejaVuSans-50" d="M 1259 4147 
L 1259 2394 
L 2053 2394 
Q 2494 2394 2734 2622 
Q 2975 2850 2975 3272 
Q 2975 3691 2734 3919 
Q 2494 4147 2053 4147 
L 1259 4147 
z
M 628 4666 
L 2053 4666 
Q 2838 4666 3239 4311 
Q 3641 3956 3641 3272 
Q 3641 2581 3239 2228 
Q 2838 1875 2053 1875 
L 1259 1875 
L 1259 0 
L 628 0 
L 628 4666 
z
" transform="scale(0.015625)"/>
      <path id="DejaVuSans-75" d="M 544 1381 
L 544 3500 
L 1119 3500 
L 1119 1403 
Q 1119 906 1312 657 
Q 1506 409 1894 409 
Q 2359 409 2629 706 
Q 2900 1003 2900 1516 
L 2900 3500 
L 3475 3500 
L 3475 0 
L 2900 0 
L 2900 538 
Q 2691 219 2414 64 
Q 2138 -91 1772 -91 
Q 1169 -91 856 284 
Q 544 659 544 1381 
z
M 1991 3584 
L 1991 3584 
z
" transform="scale(0.015625)"/>
     </defs>
     <use xlink:href="#DejaVuSans-50"/>
     <use xlink:href="#DejaVuSans-72" x="58.552734"/>
     <use xlink:href="#DejaVuSans-65" x="97.416016"/>
     <use xlink:href="#DejaVuSans-73" x="158.939453"/>
     <use xlink:href="#DejaVuSans-73" x="211.039062"/>
     <use xlink:href="#DejaVuSans-75" x="263.138672"/>
     <use xlink:href="#DejaVuSans-72" x="326.517578"/>
     <use xlink:href="#DejaVuSans-65" x="365.380859"/>
    </g>
   </g>
   <g id="legend_2">
    <g id="patch_13">
     <path d="M 350.823125 137.411034 
L 407.72 137.411034 
Q 409.72 137.411034 409.72 135.411034 
L 409.72 92.376659 
Q 409.72 90.376659 407.72 90.376659 
L 350.823125 90.376659 
Q 348.823125 90.376659 348.823125 92.376659 
L 348.823125 135.411034 
Q 348.823125 137.411034 350.823125 137.411034 
z
" style="fill: #ffffff; opacity: 0.8; stroke: #cccccc; stroke-linejoin: miter"/>
    </g>
    <g id="line2d_26">
     <path d="M 352.823125 98.475097 
L 362.823125 98.475097 
L 372.823125 98.475097 
" style="fill: none; stroke: #1f77b4; stroke-width: 1.5; stroke-linecap: square"/>
    </g>
    <g id="text_11">
     <!-- P1 -->
     <g transform="translate(380.823125 101.975097)scale(0.1 -0.1)">
      <use xlink:href="#DejaVuSans-50"/>
      <use xlink:href="#DejaVuSans-31" x="60.302734"/>
     </g>
    </g>
    <g id="line2d_27">
     <path d="M 352.823125 113.153222 
L 362.823125 113.153222 
L 372.823125 113.153222 
" style="fill: none; stroke: #ff7f0e; stroke-width: 1.5; stroke-linecap: square"/>
    </g>
    <g id="text_12">
     <!-- Pmid -->
     <g transform="translate(380.823125 116.653222)scale(0.1 -0.1)">
      <use xlink:href="#DejaVuSans-50"/>
      <use xlink:href="#DejaVuSans-6d" x="60.302734"/>
      <use xlink:href="#DejaVuSans-69" x="157.714844"/>
      <use xlink:href="#DejaVuSans-64" x="185.498047"/>
     </g>
    </g>
    <g id="line2d_28">
     <path d="M 352.823125 127.831347 
L 362.823125 127.831347 
L 372.823125 127.831347 
" style="fill: none; stroke: #2ca02c; stroke-width: 1.5; stroke-linecap: square"/>
    </g>
    <g id="text_13">
     <!-- PN -->
     <g transform="translate(380.823125 131.331347)scale(0.1 -0.1)">
      <use xlink:href="#DejaVuSans-50"/>
      <use xlink:href="#DejaVuSans-4e" x="60.302734"/>
     </g>
    </g>
   </g>
  </g>
  <g id="axes_3">
   <g id="patch_14">
    <path d="M 57.6 197.46869 
L 414.72 197.46869 
L 414.72 151.58731 
L 57.6 151.58731 
z
" style="fill: #ffffff"/>
   </g>
   <g id="matplotlib.axis_5">
    <g id="xtick_13">
     <g id="line2d_29">
      <g>
       <use xlink:href="#mf461770139" x="73.832727" y="197.46869" style="stroke: #000000; stroke-width: 0.8"/>
      </g>
     </g>
    </g>
    <g id="xtick_14">
     <g id="line2d_30">
      <g>
       <use xlink:href="#mf461770139" x="138.763636" y="197.46869" style="stroke: #000000; stroke-width: 0.8"/>
      </g>
     </g>
    </g>
    <g id="xtick_15">
     <g id="line2d_31">
      <g>
       <use xlink:href="#mf461770139" x="203.694545" y="197.46869" style="stroke: #000000; stroke-width: 0.8"/>
      </g>
     </g>
    </g>
    <g id="xtick_16">
     <g id="line2d_32">
      <g>
       <use xlink:href="#mf461770139" x="268.625455" y="197.46869" style="stroke: #000000; stroke-width: 0.8"/>
      </g>
     </g>
    </g>
    <g id="xtick_17">
     <g id="line2d_33">
      <g>
       <use xlink:href="#mf461770139" x="333.556364" y="197.46869" style="stroke: #000000; stroke-width: 0.8"/>
      </g>
     </g>
    </g>
    <g id="xtick_18">
     <g id="line2d_34">
      <g>
       <use xlink:href="#mf461770139" x="398.487273" y="197.46869" style="stroke: #000000; stroke-width: 0.8"/>
      </g>
     </g>
    </g>
   </g>
   <g id="matplotlib.axis_6">
    <g id="ytick_5">
     <g id="line2d_35">
      <g>
       <use xlink:href="#m9eb7c9c008" x="57.6" y="193.589115" style="stroke: #000000; stroke-width: 0.8"/>
      </g>
     </g>
     <g id="text_14">
      <!-- 0.0495 -->
      <g transform="translate(15.609375 197.388334)scale(0.1 -0.1)">
       <defs>
        <path id="DejaVuSans-2e" d="M 684 794 
L 1344 794 
L 1344 0 
L 684 0 
L 684 794 
z
" transform="scale(0.015625)"/>
        <path id="DejaVuSans-34" d="M 2419 4116 
L 825 1625 
L 2419 1625 
L 2419 4116 
z
M 2253 4666 
L 3047 4666 
L 3047 1625 
L 3713 1625 
L 3713 1100 
L 3047 1100 
L 3047 0 
L 2419 0 
L 2419 1100 
L 313 1100 
L 313 1709 
L 2253 4666 
z
" transform="scale(0.015625)"/>
        <path id="DejaVuSans-39" d="M 703 97 
L 703 672 
Q 941 559 1184 500 
Q 1428 441 1663 441 
Q 2288 441 2617 861 
Q 2947 1281 2994 2138 
Q 2813 1869 2534 1725 
Q 2256 1581 1919 1581 
Q 1219 1581 811 2004 
Q 403 2428 403 3163 
Q 403 3881 828 4315 
Q 1253 4750 1959 4750 
Q 2769 4750 3195 4129 
Q 3622 3509 3622 2328 
Q 3622 1225 3098 567 
Q 2575 -91 1691 -91 
Q 1453 -91 1209 -44 
Q 966 3 703 97 
z
M 1959 2075 
Q 2384 2075 2632 2365 
Q 2881 2656 2881 3163 
Q 2881 3666 2632 3958 
Q 2384 4250 1959 4250 
Q 1534 4250 1286 3958 
Q 1038 3666 1038 3163 
Q 1038 2656 1286 2365 
Q 1534 2075 1959 2075 
z
" transform="scale(0.015625)"/>
        <path id="DejaVuSans-35" d="M 691 4666 
L 3169 4666 
L 3169 4134 
L 1269 4134 
L 1269 2991 
Q 1406 3038 1543 3061 
Q 1681 3084 1819 3084 
Q 2600 3084 3056 2656 
Q 3513 2228 3513 1497 
Q 3513 744 3044 326 
Q 2575 -91 1722 -91 
Q 1428 -91 1123 -41 
Q 819 9 494 109 
L 494 744 
Q 775 591 1075 516 
Q 1375 441 1709 441 
Q 2250 441 2565 725 
Q 2881 1009 2881 1497 
Q 2881 1984 2565 2268 
Q 2250 2553 1709 2553 
Q 1456 2553 1204 2497 
Q 953 2441 691 2322 
L 691 4666 
z
" transform="scale(0.015625)"/>
       </defs>
       <use xlink:href="#DejaVuSans-30"/>
       <use xlink:href="#DejaVuSans-2e" x="63.623047"/>
       <use xlink:href="#DejaVuSans-30" x="95.410156"/>
       <use xlink:href="#DejaVuSans-34" x="159.033203"/>
       <use xlink:href="#DejaVuSans-39" x="222.65625"/>
       <use xlink:href="#DejaVuSans-35" x="286.279297"/>
      </g>
     </g>
    </g>
    <g id="ytick_6">
     <g id="line2d_36">
      <g>
       <use xlink:href="#m9eb7c9c008" x="57.6" y="163.992807" style="stroke: #000000; stroke-width: 0.8"/>
      </g>
     </g>
     <g id="text_15">
      <!-- 0.0500 -->
      <g transform="translate(15.609375 167.792026)scale(0.1 -0.1)">
       <use xlink:href="#DejaVuSans-30"/>
       <use xlink:href="#DejaVuSans-2e" x="63.623047"/>
       <use xlink:href="#DejaVuSans-30" x="95.410156"/>
       <use xlink:href="#DejaVuSans-35" x="159.033203"/>
       <use xlink:href="#DejaVuSans-30" x="222.65625"/>
       <use xlink:href="#DejaVuSans-30" x="286.279297"/>
      </g>
     </g>
    </g>
    <g id="text_16">
     <!-- fraction -->
     <g transform="translate(9.529687 193.73425)rotate(-90)scale(0.1 -0.1)">
      <use xlink:href="#DejaVuSans-66"/>
      <use xlink:href="#DejaVuSans-72" x="35.205078"/>
      <use xlink:href="#DejaVuSans-61" x="76.318359"/>
      <use xlink:href="#DejaVuSans-63" x="137.597656"/>
      <use xlink:href="#DejaVuSans-74" x="192.578125"/>
      <use xlink:href="#DejaVuSans-69" x="231.787109"/>
      <use xlink:href="#DejaVuSans-6f" x="259.570312"/>
      <use xlink:href="#DejaVuSans-6e" x="320.751953"/>
     </g>
    </g>
   </g>
   <g id="line2d_37">
    <path d="M 73.832727 163.755612 
L 77.079273 163.993162 
L 80.325818 165.371913 
L 83.572364 153.672828 
L 86.818909 159.56736 
L 90.065455 170.021167 
L 93.312 195.383172 
L 96.558545 190.168069 
L 99.805091 191.647027 
L 103.051636 192.145548 
L 106.298182 192.109008 
L 109.544727 191.42872 
L 112.791273 186.957201 
L 116.037818 182.928144 
L 119.284364 179.861299 
L 122.530909 178.303224 
L 125.777455 164.023934 
L 129.024 164.010333 
L 132.270545 164.003278 
L 135.517091 164.000227 
L 138.763636 163.997485 
L 142.010182 163.996124 
L 145.256727 163.994897 
L 148.503273 163.9946 
L 151.749818 163.994389 
L 154.996364 163.994179 
L 158.242909 163.993968 
L 161.489455 163.993758 
L 164.736 163.993548 
L 167.982545 163.993337 
L 171.229091 163.993128 
L 174.475636 163.998597 
L 177.722182 164.002538 
L 180.968727 164.004963 
L 184.215273 164.005964 
L 187.461818 164.005789 
L 190.708364 164.004851 
L 193.954909 164.003607 
L 197.201455 164.002399 
L 200.448 164.001397 
L 203.694545 164.00066 
L 206.941091 164.000137 
L 210.187636 163.999785 
L 213.434182 163.999554 
L 216.680727 163.999395 
L 219.927273 163.999287 
L 223.173818 163.999205 
L 226.420364 163.99914 
L 229.666909 163.999089 
L 232.913455 163.999048 
L 236.16 163.999013 
L 239.406545 163.998982 
L 242.653091 163.998949 
L 245.899636 163.998917 
L 249.146182 163.998885 
L 252.392727 163.998853 
L 255.639273 163.998821 
L 258.885818 163.99879 
L 262.132364 163.998759 
L 265.378909 163.998729 
L 268.625455 163.998699 
L 271.872 163.991072 
L 275.118545 163.975284 
L 278.365091 163.948275 
L 281.611636 163.913855 
L 284.858182 163.87717 
L 288.104727 163.842954 
L 291.351273 163.814172 
L 294.597818 163.792013 
L 297.844364 163.776356 
L 301.090909 163.765972 
L 304.337455 163.759128 
L 307.584 163.754822 
L 310.830545 163.752119 
L 314.077091 163.750438 
L 317.323636 163.749316 
L 320.570182 163.748588 
L 323.816727 163.748128 
L 327.063273 163.747837 
L 330.309818 163.74762 
L 333.556364 163.747446 
L 336.802909 163.747309 
L 340.049455 163.747197 
L 343.296 163.747102 
L 346.542545 163.747016 
L 349.789091 163.746942 
L 353.035636 163.746864 
L 356.282182 163.746797 
L 359.528727 163.746733 
L 362.775273 163.746672 
L 366.021818 163.746612 
L 369.268364 163.746551 
L 372.514909 163.746491 
L 375.761455 163.74643 
L 379.008 163.74637 
L 382.254545 163.746309 
L 385.501091 163.746249 
L 388.747636 163.746188 
L 391.994182 163.746128 
L 395.240727 163.746068 
L 398.487273 163.74601 
" clip-path="url(#p94cf4721f4)" style="fill: none; stroke: #1f77b4; stroke-width: 1.5; stroke-linecap: square"/>
   </g>
   <g id="line2d_38">
    <path d="M 73.832727 163.751063 
L 77.079273 163.936271 
L 80.325818 163.961554 
L 83.572364 163.971396 
L 86.818909 163.976433 
L 90.065455 163.979635 
L 93.312 163.981876 
L 96.558545 163.983543 
L 99.805091 163.984857 
L 103.051636 163.98595 
L 106.298182 163.986906 
L 109.544727 163.987745 
L 112.791273 163.988426 
L 116.037818 163.989055 
L 119.284364 163.989646 
L 122.530909 163.990208 
L 125.777455 166.518806 
L 129.024 164.925043 
L 132.270545 164.224205 
L 135.517091 164.119176 
L 138.763636 164.048746 
L 142.010182 164.028528 
L 145.256727 164.01318 
L 148.503273 164.010016 
L 151.749818 164.007993 
L 154.996364 164.00597 
L 158.242909 164.003947 
L 161.489455 164.001923 
L 164.736 163.9999 
L 167.982545 163.997877 
L 171.229091 163.995864 
L 174.475636 163.995966 
L 177.722182 163.996099 
L 180.968727 163.996056 
L 184.215273 163.995804 
L 187.461818 163.995246 
L 190.708364 163.994258 
L 193.954909 163.993065 
L 197.201455 163.991952 
L 200.448 163.991016 
L 203.694545 163.990334 
L 206.941091 163.99 
L 210.187636 163.98939 
L 213.434182 163.989271 
L 216.680727 161.515385 
L 219.927273 163.302614 
L 223.173818 163.596894 
L 226.420364 163.587125 
L 229.666909 163.545902 
L 232.913455 163.531018 
L 236.16 163.534776 
L 239.406545 163.543121 
L 242.653091 163.558686 
L 245.899636 163.571289 
L 249.146182 163.582528 
L 252.392727 163.593766 
L 255.639273 163.605005 
L 258.885818 163.615398 
L 262.132364 163.624564 
L 265.378909 163.633222 
L 268.625455 163.641418 
L 271.872 163.642148 
L 275.118545 163.631602 
L 278.365091 163.611893 
L 281.611636 163.58461 
L 284.858182 163.553019 
L 288.104727 163.521569 
L 291.351273 163.494189 
L 294.597818 163.472821 
L 297.844364 163.457414 
L 301.090909 163.447211 
L 304.337455 163.440708 
L 307.584 163.436895 
L 310.830545 163.43491 
L 314.077091 163.434087 
L 317.323636 163.433629 
L 320.570182 163.43352 
L 323.816727 163.433771 
L 327.063273 163.434266 
L 330.309818 163.434824 
L 333.556364 163.4354 
L 336.802909 163.436004 
L 340.049455 163.436628 
L 343.296 163.437256 
L 346.542545 163.437894 
L 349.789091 163.438538 
L 353.035636 163.439179 
L 356.282182 163.439806 
L 359.528727 163.440403 
L 362.775273 163.440968 
L 366.021818 163.441534 
L 369.268364 163.442099 
L 372.514909 163.442665 
L 375.761455 163.44323 
L 379.008 163.443795 
L 382.254545 163.444361 
L 385.501091 163.444926 
L 388.747636 163.445492 
L 391.994182 163.446057 
L 395.240727 163.446619 
L 398.487273 163.447175 
" clip-path="url(#p94cf4721f4)" style="fill: none; stroke: #ff7f0e; stroke-width: 1.5; stroke-linecap: square"/>
   </g>
   <g id="patch_15">
    <path d="M 57.6 197.46869 
L 57.6 151.58731 
" style="fill: none; stroke: #000000; stroke-width: 0.8; stroke-linejoin: miter; stroke-linecap: square"/>
   </g>
   <g id="patch_16">
    <path d="M 414.72 197.46869 
L 414.72 151.58731 
" style="fill: none; stroke: #000000; stroke-width: 0.8; stroke-linejoin: miter; stroke-linecap: square"/>
   </g>
   <g id="patch_17">
    <path d="M 57.6 197.46869 
L 414.72 197.46869 
" style="fill: none; stroke: #000000; stroke-width: 0.8; stroke-linejoin: miter; stroke-linecap: square"/>
   </g>
   <g id="patch_18">
    <path d="M 57.6 151.58731 
L 414.72 151.58731 
" style="fill: none; stroke: #000000; stroke-width: 0.8; stroke-linejoin: miter; stroke-linecap: square"/>
   </g>
   <g id="text_17">
    <!-- yA -->
    <g transform="translate(228.504375 145.58731)scale(0.12 -0.12)">
     <defs>
      <path id="DejaVuSans-41" d="M 2188 4044 
L 1331 1722 
L 3047 1722 
L 2188 4044 
z
M 1831 4666 
L 2547 4666 
L 4325 0 
L 3669 0 
L 3244 1197 
L 1141 1197 
L 716 0 
L 50 0 
L 1831 4666 
z
" transform="scale(0.015625)"/>
     </defs>
     <use xlink:href="#DejaVuSans-79"/>
     <use xlink:href="#DejaVuSans-41" x="59.179688"/>
    </g>
   </g>
   <g id="legend_3">
    <g id="patch_19">
     <path d="M 64.6 188.94356 
L 142.289062 188.94356 
Q 144.289062 188.94356 144.289062 186.94356 
L 144.289062 158.58731 
Q 144.289062 156.58731 142.289062 156.58731 
L 64.6 156.58731 
Q 62.6 156.58731 62.6 158.58731 
L 62.6 186.94356 
Q 62.6 188.94356 64.6 188.94356 
z
" style="fill: #ffffff; opacity: 0.8; stroke: #cccccc; stroke-linejoin: miter"/>
    </g>
    <g id="line2d_39">
     <path d="M 66.6 164.685748 
L 76.6 164.685748 
L 86.6 164.685748 
" style="fill: none; stroke: #1f77b4; stroke-width: 1.5; stroke-linecap: square"/>
    </g>
    <g id="text_18">
     <!-- yA0 (in) -->
     <g transform="translate(94.6 168.185748)scale(0.1 -0.1)">
      <use xlink:href="#DejaVuSans-79"/>
      <use xlink:href="#DejaVuSans-41" x="59.179688"/>
      <use xlink:href="#DejaVuSans-30" x="127.587891"/>
      <use xlink:href="#DejaVuSans-20" x="191.210938"/>
      <use xlink:href="#DejaVuSans-28" x="222.998047"/>
      <use xlink:href="#DejaVuSans-69" x="262.011719"/>
      <use xlink:href="#DejaVuSans-6e" x="289.794922"/>
      <use xlink:href="#DejaVuSans-29" x="353.173828"/>
     </g>
    </g>
    <g id="line2d_40">
     <path d="M 66.6 179.363873 
L 76.6 179.363873 
L 86.6 179.363873 
" style="fill: none; stroke: #ff7f0e; stroke-width: 1.5; stroke-linecap: square"/>
    </g>
    <g id="text_19">
     <!-- yAL (out) -->
     <g transform="translate(94.6 182.863873)scale(0.1 -0.1)">
      <defs>
       <path id="DejaVuSans-4c" d="M 628 4666 
L 1259 4666 
L 1259 531 
L 3531 531 
L 3531 0 
L 628 0 
L 628 4666 
z
" transform="scale(0.015625)"/>
      </defs>
      <use xlink:href="#DejaVuSans-79"/>
      <use xlink:href="#DejaVuSans-41" x="59.179688"/>
      <use xlink:href="#DejaVuSans-4c" x="127.587891"/>
      <use xlink:href="#DejaVuSans-20" x="183.300781"/>
      <use xlink:href="#DejaVuSans-28" x="215.087891"/>
      <use xlink:href="#DejaVuSans-6f" x="254.101562"/>
      <use xlink:href="#DejaVuSans-75" x="315.283203"/>
      <use xlink:href="#DejaVuSans-74" x="378.662109"/>
      <use xlink:href="#DejaVuSans-29" x="417.871094"/>
     </g>
    </g>
   </g>
  </g>
  <g id="axes_4">
   <g id="patch_20">
    <path d="M 57.6 252.526345 
L 414.72 252.526345 
L 414.72 206.644966 
L 57.6 206.644966 
z
" style="fill: #ffffff"/>
   </g>
   <g id="matplotlib.axis_7">
    <g id="xtick_19">
     <g id="line2d_41">
      <g>
       <use xlink:href="#mf461770139" x="73.832727" y="252.526345" style="stroke: #000000; stroke-width: 0.8"/>
      </g>
     </g>
    </g>
    <g id="xtick_20">
     <g id="line2d_42">
      <g>
       <use xlink:href="#mf461770139" x="138.763636" y="252.526345" style="stroke: #000000; stroke-width: 0.8"/>
      </g>
     </g>
    </g>
    <g id="xtick_21">
     <g id="line2d_43">
      <g>
       <use xlink:href="#mf461770139" x="203.694545" y="252.526345" style="stroke: #000000; stroke-width: 0.8"/>
      </g>
     </g>
    </g>
    <g id="xtick_22">
     <g id="line2d_44">
      <g>
       <use xlink:href="#mf461770139" x="268.625455" y="252.526345" style="stroke: #000000; stroke-width: 0.8"/>
      </g>
     </g>
    </g>
    <g id="xtick_23">
     <g id="line2d_45">
      <g>
       <use xlink:href="#mf461770139" x="333.556364" y="252.526345" style="stroke: #000000; stroke-width: 0.8"/>
      </g>
     </g>
    </g>
    <g id="xtick_24">
     <g id="line2d_46">
      <g>
       <use xlink:href="#mf461770139" x="398.487273" y="252.526345" style="stroke: #000000; stroke-width: 0.8"/>
      </g>
     </g>
    </g>
   </g>
   <g id="matplotlib.axis_8">
    <g id="ytick_7">
     <g id="line2d_47">
      <g>
       <use xlink:href="#m9eb7c9c008" x="57.6" y="240.095758" style="stroke: #000000; stroke-width: 0.8"/>
      </g>
     </g>
     <g id="text_20">
      <!-- 0.9000 -->
      <g transform="translate(15.609375 243.894977)scale(0.1 -0.1)">
       <use xlink:href="#DejaVuSans-30"/>
       <use xlink:href="#DejaVuSans-2e" x="63.623047"/>
       <use xlink:href="#DejaVuSans-39" x="95.410156"/>
       <use xlink:href="#DejaVuSans-30" x="159.033203"/>
       <use xlink:href="#DejaVuSans-30" x="222.65625"/>
       <use xlink:href="#DejaVuSans-30" x="286.279297"/>
      </g>
     </g>
    </g>
    <g id="ytick_8">
     <g id="line2d_48">
      <g>
       <use xlink:href="#m9eb7c9c008" x="57.6" y="213.677412" style="stroke: #000000; stroke-width: 0.8"/>
      </g>
     </g>
     <g id="text_21">
      <!-- 0.9005 -->
      <g transform="translate(15.609375 217.476631)scale(0.1 -0.1)">
       <use xlink:href="#DejaVuSans-30"/>
       <use xlink:href="#DejaVuSans-2e" x="63.623047"/>
       <use xlink:href="#DejaVuSans-39" x="95.410156"/>
       <use xlink:href="#DejaVuSans-30" x="159.033203"/>
       <use xlink:href="#DejaVuSans-30" x="222.65625"/>
       <use xlink:href="#DejaVuSans-35" x="286.279297"/>
      </g>
     </g>
    </g>
    <g id="text_22">
     <!-- fraction -->
     <g transform="translate(9.529687 248.791905)rotate(-90)scale(0.1 -0.1)">
      <use xlink:href="#DejaVuSans-66"/>
      <use xlink:href="#DejaVuSans-72" x="35.205078"/>
      <use xlink:href="#DejaVuSans-61" x="76.318359"/>
      <use xlink:href="#DejaVuSans-63" x="137.597656"/>
      <use xlink:href="#DejaVuSans-74" x="192.578125"/>
      <use xlink:href="#DejaVuSans-69" x="231.787109"/>
      <use xlink:href="#DejaVuSans-6f" x="259.570312"/>
      <use xlink:href="#DejaVuSans-6e" x="320.751953"/>
     </g>
    </g>
   </g>
   <g id="line2d_49">
    <path d="M 73.832727 240.346624 
L 77.079273 240.095418 
L 80.325818 238.704373 
L 83.572364 250.440828 
L 86.818909 244.573904 
L 90.065455 234.158755 
L 93.312 208.730483 
L 96.558545 213.877215 
L 99.805091 212.412453 
L 103.051636 211.917393 
L 106.298182 211.951852 
L 109.544727 212.622621 
L 112.791273 217.037054 
L 116.037818 221.014613 
L 119.284364 224.040569 
L 122.530909 225.591209 
L 125.777455 240.070405 
L 129.024 240.081691 
L 132.270545 240.087358 
L 135.517091 240.089806 
L 138.763636 240.092005 
L 142.010182 240.093097 
L 145.256727 240.094081 
L 148.503273 240.09432 
L 151.749818 240.094489 
L 154.996364 240.094658 
L 158.242909 240.094826 
L 161.489455 240.094995 
L 164.736 240.095164 
L 167.982545 240.095333 
L 171.229091 240.095501 
L 174.475636 240.091112 
L 177.722182 240.087949 
L 180.968727 240.086009 
L 184.215273 240.085228 
L 187.461818 240.085416 
L 190.708364 240.086246 
L 193.954909 240.08734 
L 197.201455 240.088411 
L 200.448 240.089309 
L 203.694545 240.089979 
L 206.941091 240.090458 
L 210.187636 240.090785 
L 213.434182 240.091001 
L 216.680727 240.09115 
L 219.927273 240.09125 
L 223.173818 240.091326 
L 226.420364 240.091384 
L 229.666909 240.091429 
L 232.913455 240.091465 
L 236.16 240.091495 
L 239.406545 240.091522 
L 242.653091 240.091548 
L 245.899636 240.091575 
L 249.146182 240.091601 
L 252.392727 240.091627 
L 255.639273 240.091653 
L 258.885818 240.091679 
L 262.132364 240.091704 
L 265.378909 240.091729 
L 268.625455 240.091753 
L 271.872 240.099799 
L 275.118545 240.145627 
L 278.365091 240.261485 
L 281.611636 240.406633 
L 284.858182 240.532005 
L 288.104727 240.622734 
L 291.351273 240.686936 
L 294.597818 240.731243 
L 297.844364 240.762284 
L 301.090909 240.781682 
L 304.337455 240.795073 
L 307.584 240.803972 
L 310.830545 240.810088 
L 314.077091 240.81445 
L 317.323636 240.817762 
L 320.570182 240.820344 
L 323.816727 240.822447 
L 327.063273 240.824232 
L 330.309818 240.825839 
L 333.556364 240.827326 
L 336.802909 240.828713 
L 340.049455 240.830023 
L 343.296 240.831266 
L 346.542545 240.832467 
L 349.789091 240.833615 
L 353.035636 240.834774 
L 356.282182 240.835827 
L 359.528727 240.8368 
L 362.775273 240.837691 
L 366.021818 240.838583 
L 369.268364 240.839474 
L 372.514909 240.840365 
L 375.761455 240.841256 
L 379.008 240.842147 
L 382.254545 240.843038 
L 385.501091 240.84393 
L 388.747636 240.844821 
L 391.994182 240.845712 
L 395.240727 240.846597 
L 398.487273 240.847467 
" clip-path="url(#p0b53e2e969)" style="fill: none; stroke: #1f77b4; stroke-width: 1.5; stroke-linecap: square"/>
   </g>
   <g id="line2d_50">
    <path d="M 73.832727 240.350939 
L 77.079273 240.160149 
L 80.325818 240.13176 
L 83.572364 240.120526 
L 86.818909 240.114743 
L 90.065455 240.111071 
L 93.312 240.108515 
L 96.558545 240.106629 
L 99.805091 240.105154 
L 103.051636 240.103935 
L 106.298182 240.102873 
L 109.544727 240.101945 
L 112.791273 240.101196 
L 116.037818 240.100506 
L 119.284364 240.099858 
L 122.530909 240.099242 
L 125.777455 237.528292 
L 129.024 239.167386 
L 132.270545 239.877978 
L 135.517091 239.980384 
L 138.763636 240.047654 
L 142.010182 240.06578 
L 145.256727 240.07914 
L 148.503273 240.081789 
L 151.749818 240.083435 
L 154.996364 240.085082 
L 158.242909 240.086729 
L 161.489455 240.088376 
L 164.736 240.090022 
L 167.982545 240.091669 
L 171.229091 240.093307 
L 174.475636 240.09323 
L 177.722182 240.093164 
L 180.968727 240.093232 
L 184.215273 240.093452 
L 187.461818 240.093909 
L 190.708364 240.094828 
L 193.954909 240.095867 
L 197.201455 240.096851 
L 200.448 240.097647 
L 203.694545 240.098322 
L 206.941091 240.098557 
L 210.187636 240.099323 
L 213.434182 240.099459 
L 216.680727 247.418451 
L 219.927273 243.704753 
L 223.173818 242.636766 
L 226.420364 242.186152 
L 229.666909 242.001171 
L 232.913455 241.907325 
L 236.16 241.816049 
L 239.406545 241.749354 
L 242.653091 241.712238 
L 245.899636 241.673993 
L 249.146182 241.635229 
L 252.392727 241.596464 
L 255.639273 241.5577 
L 258.885818 241.520341 
L 262.132364 241.485729 
L 265.378909 241.45254 
L 268.625455 241.420818 
L 271.872 241.401696 
L 275.118545 241.40069 
L 278.365091 241.412836 
L 281.611636 241.435251 
L 284.858182 241.464346 
L 288.104727 241.495434 
L 291.351273 241.523925 
L 294.597818 241.546952 
L 297.844364 241.563798 
L 301.090909 241.574893 
L 304.337455 241.581671 
L 307.584 241.585243 
L 310.830545 241.586592 
L 314.077091 241.586532 
L 317.323636 241.585943 
L 320.570182 241.584944 
L 323.816727 241.583568 
L 327.063273 241.58193 
L 330.309818 241.580215 
L 333.556364 241.578483 
L 336.802909 241.576738 
L 340.049455 241.574992 
L 343.296 241.573261 
L 346.542545 241.571538 
L 349.789091 241.569826 
L 353.035636 241.568115 
L 356.282182 241.566469 
L 359.528727 241.564918 
L 362.775273 241.563462 
L 366.021818 241.562006 
L 369.268364 241.560551 
L 372.514909 241.559095 
L 375.761455 241.557639 
L 379.008 241.556183 
L 382.254545 241.554728 
L 385.501091 241.553272 
L 388.747636 241.551816 
L 391.994182 241.55036 
L 395.240727 241.548911 
L 398.487273 241.54748 
" clip-path="url(#p0b53e2e969)" style="fill: none; stroke: #ff7f0e; stroke-width: 1.5; stroke-linecap: square"/>
   </g>
   <g id="patch_21">
    <path d="M 57.6 252.526345 
L 57.6 206.644966 
" style="fill: none; stroke: #000000; stroke-width: 0.8; stroke-linejoin: miter; stroke-linecap: square"/>
   </g>
   <g id="patch_22">
    <path d="M 414.72 252.526345 
L 414.72 206.644966 
" style="fill: none; stroke: #000000; stroke-width: 0.8; stroke-linejoin: miter; stroke-linecap: square"/>
   </g>
   <g id="patch_23">
    <path d="M 57.6 252.526345 
L 414.72 252.526345 
" style="fill: none; stroke: #000000; stroke-width: 0.8; stroke-linejoin: miter; stroke-linecap: square"/>
   </g>
   <g id="patch_24">
    <path d="M 57.6 206.644966 
L 414.72 206.644966 
" style="fill: none; stroke: #000000; stroke-width: 0.8; stroke-linejoin: miter; stroke-linecap: square"/>
   </g>
   <g id="text_23">
    <!-- yB -->
    <g transform="translate(228.492188 200.644966)scale(0.12 -0.12)">
     <defs>
      <path id="DejaVuSans-42" d="M 1259 2228 
L 1259 519 
L 2272 519 
Q 2781 519 3026 730 
Q 3272 941 3272 1375 
Q 3272 1813 3026 2020 
Q 2781 2228 2272 2228 
L 1259 2228 
z
M 1259 4147 
L 1259 2741 
L 2194 2741 
Q 2656 2741 2882 2914 
Q 3109 3088 3109 3444 
Q 3109 3797 2882 3972 
Q 2656 4147 2194 4147 
L 1259 4147 
z
M 628 4666 
L 2241 4666 
Q 2963 4666 3353 4366 
Q 3744 4066 3744 3513 
Q 3744 3084 3544 2831 
Q 3344 2578 2956 2516 
Q 3422 2416 3680 2098 
Q 3938 1781 3938 1306 
Q 3938 681 3513 340 
Q 3088 0 2303 0 
L 628 0 
L 628 4666 
z
" transform="scale(0.015625)"/>
     </defs>
     <use xlink:href="#DejaVuSans-79"/>
     <use xlink:href="#DejaVuSans-42" x="59.179688"/>
    </g>
   </g>
   <g id="legend_4">
    <g id="patch_25">
     <path d="M 64.6 247.526345 
L 142.309375 247.526345 
Q 144.309375 247.526345 144.309375 245.526345 
L 144.309375 217.170095 
Q 144.309375 215.170095 142.309375 215.170095 
L 64.6 215.170095 
Q 62.6 215.170095 62.6 217.170095 
L 62.6 245.526345 
Q 62.6 247.526345 64.6 247.526345 
z
" style="fill: #ffffff; opacity: 0.8; stroke: #cccccc; stroke-linejoin: miter"/>
    </g>
    <g id="line2d_51">
     <path d="M 66.6 223.268532 
L 76.6 223.268532 
L 86.6 223.268532 
" style="fill: none; stroke: #1f77b4; stroke-width: 1.5; stroke-linecap: square"/>
    </g>
    <g id="text_24">
     <!-- yB0 (in) -->
     <g transform="translate(94.6 226.768532)scale(0.1 -0.1)">
      <use xlink:href="#DejaVuSans-79"/>
      <use xlink:href="#DejaVuSans-42" x="59.179688"/>
      <use xlink:href="#DejaVuSans-30" x="127.783203"/>
      <use xlink:href="#DejaVuSans-20" x="191.40625"/>
      <use xlink:href="#DejaVuSans-28" x="223.193359"/>
      <use xlink:href="#DejaVuSans-69" x="262.207031"/>
      <use xlink:href="#DejaVuSans-6e" x="289.990234"/>
      <use xlink:href="#DejaVuSans-29" x="353.369141"/>
     </g>
    </g>
    <g id="line2d_52">
     <path d="M 66.6 237.946657 
L 76.6 237.946657 
L 86.6 237.946657 
" style="fill: none; stroke: #ff7f0e; stroke-width: 1.5; stroke-linecap: square"/>
    </g>
    <g id="text_25">
     <!-- yBL (out) -->
     <g transform="translate(94.6 241.446657)scale(0.1 -0.1)">
      <use xlink:href="#DejaVuSans-79"/>
      <use xlink:href="#DejaVuSans-42" x="59.179688"/>
      <use xlink:href="#DejaVuSans-4c" x="127.783203"/>
      <use xlink:href="#DejaVuSans-20" x="183.496094"/>
      <use xlink:href="#DejaVuSans-28" x="215.283203"/>
      <use xlink:href="#DejaVuSans-6f" x="254.296875"/>
      <use xlink:href="#DejaVuSans-75" x="315.478516"/>
      <use xlink:href="#DejaVuSans-74" x="378.857422"/>
      <use xlink:href="#DejaVuSans-29" x="418.066406"/>
     </g>
    </g>
   </g>
  </g>
  <g id="axes_5">
   <g id="patch_26">
    <path d="M 57.6 307.584 
L 414.72 307.584 
L 414.72 261.702621 
L 57.6 261.702621 
z
" style="fill: #ffffff"/>
   </g>
   <g id="matplotlib.axis_9">
    <g id="xtick_25">
     <g id="line2d_53">
      <g>
       <use xlink:href="#mf461770139" x="73.832727" y="307.584" style="stroke: #000000; stroke-width: 0.8"/>
      </g>
     </g>
     <g id="text_26">
      <!-- 0 -->
      <g transform="translate(70.651477 322.182437)scale(0.1 -0.1)">
       <use xlink:href="#DejaVuSans-30"/>
      </g>
     </g>
    </g>
    <g id="xtick_26">
     <g id="line2d_54">
      <g>
       <use xlink:href="#mf461770139" x="138.763636" y="307.584" style="stroke: #000000; stroke-width: 0.8"/>
      </g>
     </g>
     <g id="text_27">
      <!-- 20 -->
      <g transform="translate(132.401136 322.182437)scale(0.1 -0.1)">
       <defs>
        <path id="DejaVuSans-32" d="M 1228 531 
L 3431 531 
L 3431 0 
L 469 0 
L 469 531 
Q 828 903 1448 1529 
Q 2069 2156 2228 2338 
Q 2531 2678 2651 2914 
Q 2772 3150 2772 3378 
Q 2772 3750 2511 3984 
Q 2250 4219 1831 4219 
Q 1534 4219 1204 4116 
Q 875 4013 500 3803 
L 500 4441 
Q 881 4594 1212 4672 
Q 1544 4750 1819 4750 
Q 2544 4750 2975 4387 
Q 3406 4025 3406 3419 
Q 3406 3131 3298 2873 
Q 3191 2616 2906 2266 
Q 2828 2175 2409 1742 
Q 1991 1309 1228 531 
z
" transform="scale(0.015625)"/>
       </defs>
       <use xlink:href="#DejaVuSans-32"/>
       <use xlink:href="#DejaVuSans-30" x="63.623047"/>
      </g>
     </g>
    </g>
    <g id="xtick_27">
     <g id="line2d_55">
      <g>
       <use xlink:href="#mf461770139" x="203.694545" y="307.584" style="stroke: #000000; stroke-width: 0.8"/>
      </g>
     </g>
     <g id="text_28">
      <!-- 40 -->
      <g transform="translate(197.332045 322.182437)scale(0.1 -0.1)">
       <use xlink:href="#DejaVuSans-34"/>
       <use xlink:href="#DejaVuSans-30" x="63.623047"/>
      </g>
     </g>
    </g>
    <g id="xtick_28">
     <g id="line2d_56">
      <g>
       <use xlink:href="#mf461770139" x="268.625455" y="307.584" style="stroke: #000000; stroke-width: 0.8"/>
      </g>
     </g>
     <g id="text_29">
      <!-- 60 -->
      <g transform="translate(262.262955 322.182437)scale(0.1 -0.1)">
       <defs>
        <path id="DejaVuSans-36" d="M 2113 2584 
Q 1688 2584 1439 2293 
Q 1191 2003 1191 1497 
Q 1191 994 1439 701 
Q 1688 409 2113 409 
Q 2538 409 2786 701 
Q 3034 994 3034 1497 
Q 3034 2003 2786 2293 
Q 2538 2584 2113 2584 
z
M 3366 4563 
L 3366 3988 
Q 3128 4100 2886 4159 
Q 2644 4219 2406 4219 
Q 1781 4219 1451 3797 
Q 1122 3375 1075 2522 
Q 1259 2794 1537 2939 
Q 1816 3084 2150 3084 
Q 2853 3084 3261 2657 
Q 3669 2231 3669 1497 
Q 3669 778 3244 343 
Q 2819 -91 2113 -91 
Q 1303 -91 875 529 
Q 447 1150 447 2328 
Q 447 3434 972 4092 
Q 1497 4750 2381 4750 
Q 2619 4750 2861 4703 
Q 3103 4656 3366 4563 
z
" transform="scale(0.015625)"/>
       </defs>
       <use xlink:href="#DejaVuSans-36"/>
       <use xlink:href="#DejaVuSans-30" x="63.623047"/>
      </g>
     </g>
    </g>
    <g id="xtick_29">
     <g id="line2d_57">
      <g>
       <use xlink:href="#mf461770139" x="333.556364" y="307.584" style="stroke: #000000; stroke-width: 0.8"/>
      </g>
     </g>
     <g id="text_30">
      <!-- 80 -->
      <g transform="translate(327.193864 322.182437)scale(0.1 -0.1)">
       <defs>
        <path id="DejaVuSans-38" d="M 2034 2216 
Q 1584 2216 1326 1975 
Q 1069 1734 1069 1313 
Q 1069 891 1326 650 
Q 1584 409 2034 409 
Q 2484 409 2743 651 
Q 3003 894 3003 1313 
Q 3003 1734 2745 1975 
Q 2488 2216 2034 2216 
z
M 1403 2484 
Q 997 2584 770 2862 
Q 544 3141 544 3541 
Q 544 4100 942 4425 
Q 1341 4750 2034 4750 
Q 2731 4750 3128 4425 
Q 3525 4100 3525 3541 
Q 3525 3141 3298 2862 
Q 3072 2584 2669 2484 
Q 3125 2378 3379 2068 
Q 3634 1759 3634 1313 
Q 3634 634 3220 271 
Q 2806 -91 2034 -91 
Q 1263 -91 848 271 
Q 434 634 434 1313 
Q 434 1759 690 2068 
Q 947 2378 1403 2484 
z
M 1172 3481 
Q 1172 3119 1398 2916 
Q 1625 2713 2034 2713 
Q 2441 2713 2670 2916 
Q 2900 3119 2900 3481 
Q 2900 3844 2670 4047 
Q 2441 4250 2034 4250 
Q 1625 4250 1398 4047 
Q 1172 3844 1172 3481 
z
" transform="scale(0.015625)"/>
       </defs>
       <use xlink:href="#DejaVuSans-38"/>
       <use xlink:href="#DejaVuSans-30" x="63.623047"/>
      </g>
     </g>
    </g>
    <g id="xtick_30">
     <g id="line2d_58">
      <g>
       <use xlink:href="#mf461770139" x="398.487273" y="307.584" style="stroke: #000000; stroke-width: 0.8"/>
      </g>
     </g>
     <g id="text_31">
      <!-- 100 -->
      <g transform="translate(388.943523 322.182437)scale(0.1 -0.1)">
       <use xlink:href="#DejaVuSans-31"/>
       <use xlink:href="#DejaVuSans-30" x="63.623047"/>
       <use xlink:href="#DejaVuSans-30" x="127.246094"/>
      </g>
     </g>
    </g>
    <g id="text_32">
     <!-- time (normalized) -->
     <g transform="translate(191.589687 335.860562)scale(0.1 -0.1)">
      <use xlink:href="#DejaVuSans-74"/>
      <use xlink:href="#DejaVuSans-69" x="39.208984"/>
      <use xlink:href="#DejaVuSans-6d" x="66.992188"/>
      <use xlink:href="#DejaVuSans-65" x="164.404297"/>
      <use xlink:href="#DejaVuSans-20" x="225.927734"/>
      <use xlink:href="#DejaVuSans-28" x="257.714844"/>
      <use xlink:href="#DejaVuSans-6e" x="296.728516"/>
      <use xlink:href="#DejaVuSans-6f" x="360.107422"/>
      <use xlink:href="#DejaVuSans-72" x="421.289062"/>
      <use xlink:href="#DejaVuSans-6d" x="460.652344"/>
      <use xlink:href="#DejaVuSans-61" x="558.064453"/>
      <use xlink:href="#DejaVuSans-6c" x="619.34375"/>
      <use xlink:href="#DejaVuSans-69" x="647.126953"/>
      <use xlink:href="#DejaVuSans-7a" x="674.910156"/>
      <use xlink:href="#DejaVuSans-65" x="727.400391"/>
      <use xlink:href="#DejaVuSans-64" x="788.923828"/>
      <use xlink:href="#DejaVuSans-29" x="852.400391"/>
     </g>
    </g>
   </g>
   <g id="matplotlib.axis_10">
    <g id="ytick_9">
     <g id="line2d_59">
      <g>
       <use xlink:href="#m9eb7c9c008" x="57.6" y="301.649873" style="stroke: #000000; stroke-width: 0.8"/>
      </g>
     </g>
     <g id="text_33">
      <!-- 0.04995 -->
      <g transform="translate(9.246875 305.449092)scale(0.1 -0.1)">
       <use xlink:href="#DejaVuSans-30"/>
       <use xlink:href="#DejaVuSans-2e" x="63.623047"/>
       <use xlink:href="#DejaVuSans-30" x="95.410156"/>
       <use xlink:href="#DejaVuSans-34" x="159.033203"/>
       <use xlink:href="#DejaVuSans-39" x="222.65625"/>
       <use xlink:href="#DejaVuSans-39" x="286.279297"/>
       <use xlink:href="#DejaVuSans-35" x="349.902344"/>
      </g>
     </g>
    </g>
    <g id="ytick_10">
     <g id="line2d_60">
      <g>
       <use xlink:href="#m9eb7c9c008" x="57.6" y="286.360125" style="stroke: #000000; stroke-width: 0.8"/>
      </g>
     </g>
     <g id="text_34">
      <!-- 0.05000 -->
      <g transform="translate(9.246875 290.159343)scale(0.1 -0.1)">
       <use xlink:href="#DejaVuSans-30"/>
       <use xlink:href="#DejaVuSans-2e" x="63.623047"/>
       <use xlink:href="#DejaVuSans-30" x="95.410156"/>
       <use xlink:href="#DejaVuSans-35" x="159.033203"/>
       <use xlink:href="#DejaVuSans-30" x="222.65625"/>
       <use xlink:href="#DejaVuSans-30" x="286.279297"/>
       <use xlink:href="#DejaVuSans-30" x="349.902344"/>
      </g>
     </g>
    </g>
    <g id="ytick_11">
     <g id="line2d_61">
      <g>
       <use xlink:href="#m9eb7c9c008" x="57.6" y="271.070376" style="stroke: #000000; stroke-width: 0.8"/>
      </g>
     </g>
     <g id="text_35">
      <!-- 0.05005 -->
      <g transform="translate(9.246875 274.869595)scale(0.1 -0.1)">
       <use xlink:href="#DejaVuSans-30"/>
       <use xlink:href="#DejaVuSans-2e" x="63.623047"/>
       <use xlink:href="#DejaVuSans-30" x="95.410156"/>
       <use xlink:href="#DejaVuSans-35" x="159.033203"/>
       <use xlink:href="#DejaVuSans-30" x="222.65625"/>
       <use xlink:href="#DejaVuSans-30" x="286.279297"/>
       <use xlink:href="#DejaVuSans-35" x="349.902344"/>
      </g>
     </g>
    </g>
    <g id="text_36">
     <!-- fraction -->
     <g transform="translate(3.167187 303.84956)rotate(-90)scale(0.1 -0.1)">
      <use xlink:href="#DejaVuSans-66"/>
      <use xlink:href="#DejaVuSans-72" x="35.205078"/>
      <use xlink:href="#DejaVuSans-61" x="76.318359"/>
      <use xlink:href="#DejaVuSans-63" x="137.597656"/>
      <use xlink:href="#DejaVuSans-74" x="192.578125"/>
      <use xlink:href="#DejaVuSans-69" x="231.787109"/>
      <use xlink:href="#DejaVuSans-6f" x="259.570312"/>
      <use xlink:href="#DejaVuSans-6e" x="320.751953"/>
     </g>
    </g>
   </g>
   <g id="line2d_62">
    <path d="M 73.832727 286.137526 
L 77.079273 286.360259 
L 80.325818 287.277914 
L 83.572364 279.876361 
L 86.818909 283.338528 
L 90.065455 289.537814 
L 93.312 305.498483 
L 96.558545 302.688164 
L 99.805091 303.515028 
L 103.051636 303.801356 
L 106.298182 303.79088 
L 109.544727 303.427731 
L 112.791273 301.009224 
L 116.037818 298.830368 
L 119.284364 297.181591 
L 122.530909 296.267235 
L 125.777455 286.346042 
L 129.024 286.350994 
L 132.270545 286.354651 
L 135.517091 286.356245 
L 138.763636 286.357678 
L 142.010182 286.358389 
L 145.256727 286.359031 
L 148.503273 286.359187 
L 151.749818 286.359297 
L 154.996364 286.359407 
L 158.242909 286.359517 
L 161.489455 286.359627 
L 164.736 286.359737 
L 167.982545 286.359847 
L 171.229091 286.359957 
L 174.475636 286.357102 
L 177.722182 286.355049 
L 180.968727 286.353751 
L 184.215273 286.353099 
L 187.461818 286.35291 
L 190.708364 286.352957 
L 193.954909 286.353049 
L 197.201455 286.353092 
L 200.448 286.353071 
L 203.694545 286.353007 
L 206.941091 286.35293 
L 210.187636 286.35286 
L 213.434182 286.352804 
L 216.680727 286.352765 
L 219.927273 286.352741 
L 223.173818 286.352728 
L 226.420364 286.352724 
L 229.666909 286.352725 
L 232.913455 286.35273 
L 236.16 286.352738 
L 239.406545 286.352746 
L 242.653091 286.35276 
L 245.899636 286.352773 
L 249.146182 286.352786 
L 252.392727 286.3528 
L 255.639273 286.352813 
L 258.885818 286.352826 
L 262.132364 286.352839 
L 265.378909 286.352852 
L 268.625455 286.352865 
L 271.872 286.348838 
L 275.118545 286.223787 
L 278.365091 285.864624 
L 281.611636 285.428711 
L 284.858182 285.090331 
L 288.104727 284.879473 
L 291.351273 284.746017 
L 294.597818 284.659957 
L 297.844364 284.597047 
L 301.090909 284.560385 
L 304.337455 284.53271 
L 307.584 284.513134 
L 310.830545 284.498483 
L 314.077091 284.487043 
L 317.323636 284.477819 
L 320.570182 284.470076 
L 323.816727 284.463256 
L 327.063273 284.457069 
L 330.309818 284.451305 
L 333.556364 284.445851 
L 336.802909 284.440652 
L 340.049455 284.435658 
L 343.296 284.430854 
L 346.542545 284.426181 
L 349.789091 284.421667 
L 353.035636 284.417121 
L 356.282182 284.412938 
L 359.528727 284.409052 
L 362.775273 284.405471 
L 366.021818 284.40189 
L 369.268364 284.398309 
L 372.514909 284.394728 
L 375.761455 284.391146 
L 379.008 284.387565 
L 382.254545 284.383984 
L 385.501091 284.380403 
L 388.747636 284.376822 
L 391.994182 284.373241 
L 395.240727 284.369681 
L 398.487273 284.366173 
" clip-path="url(#p1ef4bf67ba)" style="fill: none; stroke: #1f77b4; stroke-width: 1.5; stroke-linecap: square"/>
   </g>
   <g id="line2d_63">
    <path d="M 73.832727 286.137391 
L 77.079273 286.281256 
L 80.325818 286.314332 
L 83.572364 286.328247 
L 86.818909 286.335555 
L 90.065455 286.340174 
L 93.312 286.343325 
L 96.558545 286.345582 
L 99.805091 286.347293 
L 103.051636 286.348673 
L 106.298182 286.349856 
L 109.544727 286.35087 
L 112.791273 286.351667 
L 116.037818 286.352394 
L 119.284364 286.353076 
L 122.530909 286.353724 
L 125.777455 288.150302 
L 129.024 286.910561 
L 132.270545 286.423948 
L 135.517091 286.37452 
L 138.763636 286.349428 
L 142.010182 286.34904 
L 145.256727 286.351048 
L 148.503273 286.352063 
L 151.749818 286.352986 
L 154.996364 286.353909 
L 158.242909 286.354831 
L 161.489455 286.355754 
L 164.736 286.356676 
L 167.982545 286.357599 
L 171.229091 286.35852 
L 174.475636 286.358428 
L 177.722182 286.358309 
L 180.968727 286.358226 
L 184.215273 286.358129 
L 187.461818 286.358089 
L 190.708364 286.35814 
L 193.954909 286.358217 
L 197.201455 286.35822 
L 200.448 286.358196 
L 203.694545 286.358116 
L 206.941091 286.358001 
L 210.187636 286.358009 
L 213.434182 286.357899 
L 216.680727 263.788138 
L 219.927273 273.33245 
L 223.173818 276.921189 
L 226.420364 278.976423 
L 229.666909 279.943979 
L 232.913455 280.390384 
L 236.16 280.758246 
L 239.406545 280.996536 
L 242.653091 281.088548 
L 245.899636 281.201204 
L 249.146182 281.323369 
L 252.392727 281.445533 
L 255.639273 281.567698 
L 258.885818 281.687463 
L 262.132364 281.800636 
L 265.378909 281.909797 
L 268.625455 282.014548 
L 271.872 282.093339 
L 275.118545 282.136718 
L 278.365091 282.157838 
L 281.611636 282.162447 
L 284.858182 282.152784 
L 288.104727 282.132098 
L 291.351273 282.106156 
L 294.597818 282.08124 
L 297.844364 282.0616 
L 301.090909 282.04857 
L 304.337455 282.041546 
L 307.584 282.039289 
L 310.830545 282.040525 
L 314.077091 282.043981 
L 317.323636 282.048655 
L 320.570182 282.053939 
L 323.816727 282.05958 
L 327.063273 282.065502 
L 330.309818 282.071572 
L 333.556364 282.077667 
L 336.802909 282.083714 
L 340.049455 282.089681 
L 343.296 282.095553 
L 346.542545 282.10135 
L 349.789091 282.107061 
L 353.035636 282.112784 
L 356.282182 282.118236 
L 359.528727 282.123346 
L 362.775273 282.128105 
L 366.021818 282.132864 
L 369.268364 282.137623 
L 372.514909 282.142382 
L 375.761455 282.147141 
L 379.008 282.151901 
L 382.254545 282.15666 
L 385.501091 282.161419 
L 388.747636 282.166178 
L 391.994182 282.170937 
L 395.240727 282.175675 
L 398.487273 282.180357 
" clip-path="url(#p1ef4bf67ba)" style="fill: none; stroke: #ff7f0e; stroke-width: 1.5; stroke-linecap: square"/>
   </g>
   <g id="patch_27">
    <path d="M 57.6 307.584 
L 57.6 261.702621 
" style="fill: none; stroke: #000000; stroke-width: 0.8; stroke-linejoin: miter; stroke-linecap: square"/>
   </g>
   <g id="patch_28">
    <path d="M 414.72 307.584 
L 414.72 261.702621 
" style="fill: none; stroke: #000000; stroke-width: 0.8; stroke-linejoin: miter; stroke-linecap: square"/>
   </g>
   <g id="patch_29">
    <path d="M 57.6 307.584 
L 414.72 307.584 
" style="fill: none; stroke: #000000; stroke-width: 0.8; stroke-linejoin: miter; stroke-linecap: square"/>
   </g>
   <g id="patch_30">
    <path d="M 57.6 261.702621 
L 414.72 261.702621 
" style="fill: none; stroke: #000000; stroke-width: 0.8; stroke-linejoin: miter; stroke-linecap: square"/>
   </g>
   <g id="text_37">
    <!-- yC -->
    <g transform="translate(228.419062 255.702621)scale(0.12 -0.12)">
     <defs>
      <path id="DejaVuSans-43" d="M 4122 4306 
L 4122 3641 
Q 3803 3938 3442 4084 
Q 3081 4231 2675 4231 
Q 1875 4231 1450 3742 
Q 1025 3253 1025 2328 
Q 1025 1406 1450 917 
Q 1875 428 2675 428 
Q 3081 428 3442 575 
Q 3803 722 4122 1019 
L 4122 359 
Q 3791 134 3420 21 
Q 3050 -91 2638 -91 
Q 1578 -91 968 557 
Q 359 1206 359 2328 
Q 359 3453 968 4101 
Q 1578 4750 2638 4750 
Q 3056 4750 3426 4639 
Q 3797 4528 4122 4306 
z
" transform="scale(0.015625)"/>
     </defs>
     <use xlink:href="#DejaVuSans-79"/>
     <use xlink:href="#DejaVuSans-43" x="59.179688"/>
    </g>
   </g>
   <g id="legend_5">
    <g id="patch_31">
     <path d="M 64.6 299.058871 
L 142.43125 299.058871 
Q 144.43125 299.058871 144.43125 297.058871 
L 144.43125 268.702621 
Q 144.43125 266.702621 142.43125 266.702621 
L 64.6 266.702621 
Q 62.6 266.702621 62.6 268.702621 
L 62.6 297.058871 
Q 62.6 299.058871 64.6 299.058871 
z
" style="fill: #ffffff; opacity: 0.8; stroke: #cccccc; stroke-linejoin: miter"/>
    </g>
    <g id="line2d_64">
     <path d="M 66.6 274.801058 
L 76.6 274.801058 
L 86.6 274.801058 
" style="fill: none; stroke: #1f77b4; stroke-width: 1.5; stroke-linecap: square"/>
    </g>
    <g id="text_38">
     <!-- yC0 (in) -->
     <g transform="translate(94.6 278.301058)scale(0.1 -0.1)">
      <use xlink:href="#DejaVuSans-79"/>
      <use xlink:href="#DejaVuSans-43" x="59.179688"/>
      <use xlink:href="#DejaVuSans-30" x="129.003906"/>
      <use xlink:href="#DejaVuSans-20" x="192.626953"/>
      <use xlink:href="#DejaVuSans-28" x="224.414062"/>
      <use xlink:href="#DejaVuSans-69" x="263.427734"/>
      <use xlink:href="#DejaVuSans-6e" x="291.210938"/>
      <use xlink:href="#DejaVuSans-29" x="354.589844"/>
     </g>
    </g>
    <g id="line2d_65">
     <path d="M 66.6 289.479183 
L 76.6 289.479183 
L 86.6 289.479183 
" style="fill: none; stroke: #ff7f0e; stroke-width: 1.5; stroke-linecap: square"/>
    </g>
    <g id="text_39">
     <!-- yCL (out) -->
     <g transform="translate(94.6 292.979183)scale(0.1 -0.1)">
      <use xlink:href="#DejaVuSans-79"/>
      <use xlink:href="#DejaVuSans-43" x="59.179688"/>
      <use xlink:href="#DejaVuSans-4c" x="129.003906"/>
      <use xlink:href="#DejaVuSans-20" x="184.716797"/>
      <use xlink:href="#DejaVuSans-28" x="216.503906"/>
      <use xlink:href="#DejaVuSans-6f" x="255.517578"/>
      <use xlink:href="#DejaVuSans-75" x="316.699219"/>
      <use xlink:href="#DejaVuSans-74" x="380.078125"/>
      <use xlink:href="#DejaVuSans-29" x="419.287109"/>
     </g>
    </g>
   </g>
  </g>
 </g>
 <defs>
  <clipPath id="pc6187971f1">
   <rect x="57.6" y="41.472" width="357.12" height="45.881379"/>
  </clipPath>
  <clipPath id="p23de9ad4a8">
   <rect x="57.6" y="96.529655" width="357.12" height="45.881379"/>
  </clipPath>
  <clipPath id="p94cf4721f4">
   <rect x="57.6" y="151.58731" width="357.12" height="45.881379"/>
  </clipPath>
  <clipPath id="p0b53e2e969">
   <rect x="57.6" y="206.644966" width="357.12" height="45.881379"/>
  </clipPath>
  <clipPath id="p1ef4bf67ba">
   <rect x="57.6" y="261.702621" width="357.12" height="45.881379"/>
  </clipPath>
 </defs>
</svg>
