<?xml version="1.0" encoding="utf-8" standalone="no"?>
<!DOCTYPE svg PUBLIC "-//W3C//DTD SVG 1.1//EN"
  "http://www.w3.org/Graphics/SVG/1.1/DTD/svg11.dtd">
<svg xmlns:xlink="http://www.w3.org/1999/xlink" width="460.8pt" height="345.6pt" viewBox="0 0 460.8 345.6" xmlns="http://www.w3.org/2000/svg" version="1.1">
 <metadata>
  <rdf:RDF xmlns:dc="http://purl.org/dc/elements/1.1/" xmlns:cc="http://creativecommons.org/ns#" xmlns:rdf="http://www.w3.org/1999/02/22-rdf-syntax-ns#">
   <cc:Work>
    <dc:type rdf:resource="http://purl.org/dc/dcmitype/StillImage"/>
    <dc:date>2022-07-10T00:05:02.605552</dc:date>
    <dc:format>image/svg+xml</dc:format>
    <dc:creator>
     <cc:Agent>
      <dc:title>Matplotlib v3.5.2, https://matplotlib.org/</dc:title>
     </cc:Agent>
    </dc:creator>
   </cc:Work>
  </rdf:RDF>
 </metadata>
 <defs>
  <style type="text/css">*{stroke-linejoin: round; stroke-linecap: butt}</style>
 </defs>
 <g id="figure_1">
  <g id="patch_1">
   <path d="M 0 345.6 
L 460.8 345.6 
L 460.8 0 
L 0 0 
z
" style="fill: #ffffff"/>
  </g>
  <g id="axes_1">
   <g id="patch_2">
    <path d="M 57.6 87.353379 
L 414.72 87.353379 
L 414.72 41.472 
L 57.6 41.472 
z
" style="fill: #ffffff"/>
   </g>
   <g id="axes_2">
    <g id="patch_3">
     <path d="M 414.72 87.353379 
L 414.72 87.353379 
L 414.72 41.472 
L 414.72 41.472 
z
" style="fill: #ffffff"/>
    </g>
    <g id="matplotlib.axis_1"/>
    <g id="matplotlib.axis_2">
     <g id="ytick_1">
      <g id="line2d_1">
       <defs>
        <path id="m67f444eca2" d="M 0 0 
L 3.5 0 
" style="stroke: #000000; stroke-width: 0.8"/>
       </defs>
       <g>
        <use xlink:href="#m67f444eca2" x="414.72" y="76.476254" style="stroke: #000000; stroke-width: 0.8"/>
       </g>
      </g>
      <g id="text_1">
       <!-- 0 -->
       <g transform="translate(421.72 80.275473)scale(0.1 -0.1)">
        <defs>
         <path id="DejaVuSans-30" d="M 2034 4250 
Q 1547 4250 1301 3770 
Q 1056 3291 1056 2328 
Q 1056 1369 1301 889 
Q 1547 409 2034 409 
Q 2525 409 2770 889 
Q 3016 1369 3016 2328 
Q 3016 3291 2770 3770 
Q 2525 4250 2034 4250 
z
M 2034 4750 
Q 2819 4750 3233 4129 
Q 3647 3509 3647 2328 
Q 3647 1150 3233 529 
Q 2819 -91 2034 -91 
Q 1250 -91 836 529 
Q 422 1150 422 2328 
Q 422 3509 836 4129 
Q 1250 4750 2034 4750 
z
" transform="scale(0.015625)"/>
        </defs>
        <use xlink:href="#DejaVuSans-30"/>
       </g>
      </g>
     </g>
     <g id="ytick_2">
      <g id="line2d_2">
       <g>
        <use xlink:href="#m67f444eca2" x="414.72" y="43.673473" style="stroke: #000000; stroke-width: 0.8"/>
       </g>
      </g>
      <g id="text_2">
       <!-- 1 -->
       <g transform="translate(421.72 47.472692)scale(0.1 -0.1)">
        <defs>
         <path id="DejaVuSans-31" d="M 794 531 
L 1825 531 
L 1825 4091 
L 703 3866 
L 703 4441 
L 1819 4666 
L 2450 4666 
L 2450 531 
L 3481 531 
L 3481 0 
L 794 0 
L 794 531 
z
" transform="scale(0.015625)"/>
        </defs>
        <use xlink:href="#DejaVuSans-31"/>
       </g>
      </g>
     </g>
     <g id="text_3">
      <!-- vel [m/s] -->
      <g transform="translate(439.680938 86.48769)rotate(-90)scale(0.1 -0.1)">
       <defs>
        <path id="DejaVuSans-76" d="M 191 3500 
L 800 3500 
L 1894 563 
L 2988 3500 
L 3597 3500 
L 2284 0 
L 1503 0 
L 191 3500 
z
" transform="scale(0.015625)"/>
        <path id="DejaVuSans-65" d="M 3597 1894 
L 3597 1613 
L 953 1613 
Q 991 1019 1311 708 
Q 1631 397 2203 397 
Q 2534 397 2845 478 
Q 3156 559 3463 722 
L 3463 178 
Q 3153 47 2828 -22 
Q 2503 -91 2169 -91 
Q 1331 -91 842 396 
Q 353 884 353 1716 
Q 353 2575 817 3079 
Q 1281 3584 2069 3584 
Q 2775 3584 3186 3129 
Q 3597 2675 3597 1894 
z
M 3022 2063 
Q 3016 2534 2758 2815 
Q 2500 3097 2075 3097 
Q 1594 3097 1305 2825 
Q 1016 2553 972 2059 
L 3022 2063 
z
" transform="scale(0.015625)"/>
        <path id="DejaVuSans-6c" d="M 603 4863 
L 1178 4863 
L 1178 0 
L 603 0 
L 603 4863 
z
" transform="scale(0.015625)"/>
        <path id="DejaVuSans-20" transform="scale(0.015625)"/>
        <path id="DejaVuSans-5b" d="M 550 4863 
L 1875 4863 
L 1875 4416 
L 1125 4416 
L 1125 -397 
L 1875 -397 
L 1875 -844 
L 550 -844 
L 550 4863 
z
" transform="scale(0.015625)"/>
        <path id="DejaVuSans-6d" d="M 3328 2828 
Q 3544 3216 3844 3400 
Q 4144 3584 4550 3584 
Q 5097 3584 5394 3201 
Q 5691 2819 5691 2113 
L 5691 0 
L 5113 0 
L 5113 2094 
Q 5113 2597 4934 2840 
Q 4756 3084 4391 3084 
Q 3944 3084 3684 2787 
Q 3425 2491 3425 1978 
L 3425 0 
L 2847 0 
L 2847 2094 
Q 2847 2600 2669 2842 
Q 2491 3084 2119 3084 
Q 1678 3084 1418 2786 
Q 1159 2488 1159 1978 
L 1159 0 
L 581 0 
L 581 3500 
L 1159 3500 
L 1159 2956 
Q 1356 3278 1631 3431 
Q 1906 3584 2284 3584 
Q 2666 3584 2933 3390 
Q 3200 3197 3328 2828 
z
" transform="scale(0.015625)"/>
        <path id="DejaVuSans-2f" d="M 1625 4666 
L 2156 4666 
L 531 -594 
L 0 -594 
L 1625 4666 
z
" transform="scale(0.015625)"/>
        <path id="DejaVuSans-73" d="M 2834 3397 
L 2834 2853 
Q 2591 2978 2328 3040 
Q 2066 3103 1784 3103 
Q 1356 3103 1142 2972 
Q 928 2841 928 2578 
Q 928 2378 1081 2264 
Q 1234 2150 1697 2047 
L 1894 2003 
Q 2506 1872 2764 1633 
Q 3022 1394 3022 966 
Q 3022 478 2636 193 
Q 2250 -91 1575 -91 
Q 1294 -91 989 -36 
Q 684 19 347 128 
L 347 722 
Q 666 556 975 473 
Q 1284 391 1588 391 
Q 1994 391 2212 530 
Q 2431 669 2431 922 
Q 2431 1156 2273 1281 
Q 2116 1406 1581 1522 
L 1381 1569 
Q 847 1681 609 1914 
Q 372 2147 372 2553 
Q 372 3047 722 3315 
Q 1072 3584 1716 3584 
Q 2034 3584 2315 3537 
Q 2597 3491 2834 3397 
z
" transform="scale(0.015625)"/>
        <path id="DejaVuSans-5d" d="M 1947 4863 
L 1947 -844 
L 622 -844 
L 622 -397 
L 1369 -397 
L 1369 4416 
L 622 4416 
L 622 4863 
L 1947 4863 
z
" transform="scale(0.015625)"/>
       </defs>
       <use xlink:href="#DejaVuSans-76"/>
       <use xlink:href="#DejaVuSans-65" x="59.179688"/>
       <use xlink:href="#DejaVuSans-6c" x="120.703125"/>
       <use xlink:href="#DejaVuSans-20" x="148.486328"/>
       <use xlink:href="#DejaVuSans-5b" x="180.273438"/>
       <use xlink:href="#DejaVuSans-6d" x="219.287109"/>
       <use xlink:href="#DejaVuSans-2f" x="316.699219"/>
       <use xlink:href="#DejaVuSans-73" x="350.390625"/>
       <use xlink:href="#DejaVuSans-5d" x="402.490234"/>
      </g>
     </g>
    </g>
    <g id="patch_4">
     <path d="M 414.72 87.353379 
L 414.72 41.472 
" style="fill: none; stroke: #000000; stroke-width: 0.8; stroke-linejoin: miter; stroke-linecap: square"/>
    </g>
   </g>
   <g id="matplotlib.axis_3">
    <g id="xtick_1">
     <g id="line2d_3">
      <defs>
       <path id="m8b1f42f223" d="M 0 0 
L 0 3.5 
" style="stroke: #000000; stroke-width: 0.8"/>
      </defs>
      <g>
       <use xlink:href="#m8b1f42f223" x="73.832727" y="87.353379" style="stroke: #000000; stroke-width: 0.8"/>
      </g>
     </g>
    </g>
    <g id="xtick_2">
     <g id="line2d_4">
      <g>
       <use xlink:href="#m8b1f42f223" x="116.550431" y="87.353379" style="stroke: #000000; stroke-width: 0.8"/>
      </g>
     </g>
    </g>
    <g id="xtick_3">
     <g id="line2d_5">
      <g>
       <use xlink:href="#m8b1f42f223" x="159.268134" y="87.353379" style="stroke: #000000; stroke-width: 0.8"/>
      </g>
     </g>
    </g>
    <g id="xtick_4">
     <g id="line2d_6">
      <g>
       <use xlink:href="#m8b1f42f223" x="201.985837" y="87.353379" style="stroke: #000000; stroke-width: 0.8"/>
      </g>
     </g>
    </g>
    <g id="xtick_5">
     <g id="line2d_7">
      <g>
       <use xlink:href="#m8b1f42f223" x="244.703541" y="87.353379" style="stroke: #000000; stroke-width: 0.8"/>
      </g>
     </g>
    </g>
    <g id="xtick_6">
     <g id="line2d_8">
      <g>
       <use xlink:href="#m8b1f42f223" x="287.421244" y="87.353379" style="stroke: #000000; stroke-width: 0.8"/>
      </g>
     </g>
    </g>
    <g id="xtick_7">
     <g id="line2d_9">
      <g>
       <use xlink:href="#m8b1f42f223" x="330.138947" y="87.353379" style="stroke: #000000; stroke-width: 0.8"/>
      </g>
     </g>
    </g>
    <g id="xtick_8">
     <g id="line2d_10">
      <g>
       <use xlink:href="#m8b1f42f223" x="372.856651" y="87.353379" style="stroke: #000000; stroke-width: 0.8"/>
      </g>
     </g>
    </g>
   </g>
   <g id="matplotlib.axis_4">
    <g id="ytick_3">
     <g id="line2d_11">
      <defs>
       <path id="m6297b194d4" d="M 0 0 
L -3.5 0 
" style="stroke: #000000; stroke-width: 0.8"/>
      </defs>
      <g>
       <use xlink:href="#m6297b194d4" x="57.6" y="76.476254" style="stroke: #000000; stroke-width: 0.8"/>
      </g>
     </g>
     <g id="text_4">
      <!-- 0 -->
      <g transform="translate(44.2375 80.275473)scale(0.1 -0.1)">
       <use xlink:href="#DejaVuSans-30"/>
      </g>
     </g>
    </g>
    <g id="ytick_4">
     <g id="line2d_12">
      <g>
       <use xlink:href="#m6297b194d4" x="57.6" y="43.673473" style="stroke: #000000; stroke-width: 0.8"/>
      </g>
     </g>
     <g id="text_5">
      <!-- 1 -->
      <g transform="translate(44.2375 47.472692)scale(0.1 -0.1)">
       <use xlink:href="#DejaVuSans-31"/>
      </g>
     </g>
    </g>
    <g id="text_6">
     <!-- vel [normalized] -->
     <g transform="translate(38.157812 105.111908)rotate(-90)scale(0.1 -0.1)">
      <defs>
       <path id="DejaVuSans-6e" d="M 3513 2113 
L 3513 0 
L 2938 0 
L 2938 2094 
Q 2938 2591 2744 2837 
Q 2550 3084 2163 3084 
Q 1697 3084 1428 2787 
Q 1159 2491 1159 1978 
L 1159 0 
L 581 0 
L 581 3500 
L 1159 3500 
L 1159 2956 
Q 1366 3272 1645 3428 
Q 1925 3584 2291 3584 
Q 2894 3584 3203 3211 
Q 3513 2838 3513 2113 
z
" transform="scale(0.015625)"/>
       <path id="DejaVuSans-6f" d="M 1959 3097 
Q 1497 3097 1228 2736 
Q 959 2375 959 1747 
Q 959 1119 1226 758 
Q 1494 397 1959 397 
Q 2419 397 2687 759 
Q 2956 1122 2956 1747 
Q 2956 2369 2687 2733 
Q 2419 3097 1959 3097 
z
M 1959 3584 
Q 2709 3584 3137 3096 
Q 3566 2609 3566 1747 
Q 3566 888 3137 398 
Q 2709 -91 1959 -91 
Q 1206 -91 779 398 
Q 353 888 353 1747 
Q 353 2609 779 3096 
Q 1206 3584 1959 3584 
z
" transform="scale(0.015625)"/>
       <path id="DejaVuSans-72" d="M 2631 2963 
Q 2534 3019 2420 3045 
Q 2306 3072 2169 3072 
Q 1681 3072 1420 2755 
Q 1159 2438 1159 1844 
L 1159 0 
L 581 0 
L 581 3500 
L 1159 3500 
L 1159 2956 
Q 1341 3275 1631 3429 
Q 1922 3584 2338 3584 
Q 2397 3584 2469 3576 
Q 2541 3569 2628 3553 
L 2631 2963 
z
" transform="scale(0.015625)"/>
       <path id="DejaVuSans-61" d="M 2194 1759 
Q 1497 1759 1228 1600 
Q 959 1441 959 1056 
Q 959 750 1161 570 
Q 1363 391 1709 391 
Q 2188 391 2477 730 
Q 2766 1069 2766 1631 
L 2766 1759 
L 2194 1759 
z
M 3341 1997 
L 3341 0 
L 2766 0 
L 2766 531 
Q 2569 213 2275 61 
Q 1981 -91 1556 -91 
Q 1019 -91 701 211 
Q 384 513 384 1019 
Q 384 1609 779 1909 
Q 1175 2209 1959 2209 
L 2766 2209 
L 2766 2266 
Q 2766 2663 2505 2880 
Q 2244 3097 1772 3097 
Q 1472 3097 1187 3025 
Q 903 2953 641 2809 
L 641 3341 
Q 956 3463 1253 3523 
Q 1550 3584 1831 3584 
Q 2591 3584 2966 3190 
Q 3341 2797 3341 1997 
z
" transform="scale(0.015625)"/>
       <path id="DejaVuSans-69" d="M 603 3500 
L 1178 3500 
L 1178 0 
L 603 0 
L 603 3500 
z
M 603 4863 
L 1178 4863 
L 1178 4134 
L 603 4134 
L 603 4863 
z
" transform="scale(0.015625)"/>
       <path id="DejaVuSans-7a" d="M 353 3500 
L 3084 3500 
L 3084 2975 
L 922 459 
L 3084 459 
L 3084 0 
L 275 0 
L 275 525 
L 2438 3041 
L 353 3041 
L 353 3500 
z
" transform="scale(0.015625)"/>
       <path id="DejaVuSans-64" d="M 2906 2969 
L 2906 4863 
L 3481 4863 
L 3481 0 
L 2906 0 
L 2906 525 
Q 2725 213 2448 61 
Q 2172 -91 1784 -91 
Q 1150 -91 751 415 
Q 353 922 353 1747 
Q 353 2572 751 3078 
Q 1150 3584 1784 3584 
Q 2172 3584 2448 3432 
Q 2725 3281 2906 2969 
z
M 947 1747 
Q 947 1113 1208 752 
Q 1469 391 1925 391 
Q 2381 391 2643 752 
Q 2906 1113 2906 1747 
Q 2906 2381 2643 2742 
Q 2381 3103 1925 3103 
Q 1469 3103 1208 2742 
Q 947 2381 947 1747 
z
" transform="scale(0.015625)"/>
      </defs>
      <use xlink:href="#DejaVuSans-76"/>
      <use xlink:href="#DejaVuSans-65" x="59.179688"/>
      <use xlink:href="#DejaVuSans-6c" x="120.703125"/>
      <use xlink:href="#DejaVuSans-20" x="148.486328"/>
      <use xlink:href="#DejaVuSans-5b" x="180.273438"/>
      <use xlink:href="#DejaVuSans-6e" x="219.287109"/>
      <use xlink:href="#DejaVuSans-6f" x="282.666016"/>
      <use xlink:href="#DejaVuSans-72" x="343.847656"/>
      <use xlink:href="#DejaVuSans-6d" x="383.210938"/>
      <use xlink:href="#DejaVuSans-61" x="480.623047"/>
      <use xlink:href="#DejaVuSans-6c" x="541.902344"/>
      <use xlink:href="#DejaVuSans-69" x="569.685547"/>
      <use xlink:href="#DejaVuSans-7a" x="597.46875"/>
      <use xlink:href="#DejaVuSans-65" x="649.958984"/>
      <use xlink:href="#DejaVuSans-64" x="711.482422"/>
      <use xlink:href="#DejaVuSans-5d" x="774.958984"/>
     </g>
    </g>
   </g>
   <g id="line2d_13">
    <path d="M 73.832727 76.476257 
L 90.919809 76.476257 
L 108.00689 76.476257 
L 125.093971 76.476257 
L 142.181053 76.476257 
L 159.268134 76.476257 
L 176.355215 76.476256 
L 193.442297 76.476256 
L 210.529378 76.476256 
L 227.616459 76.476256 
L 244.703541 76.476256 
L 261.790622 76.476256 
L 278.877703 76.476255 
L 295.964785 76.476255 
L 313.051866 76.476255 
L 330.138947 76.476255 
L 347.226029 76.476255 
L 364.31311 76.476254 
L 381.400191 76.476254 
L 398.487273 76.476254 
" clip-path="url(#p58754d5b8e)" style="fill: none; stroke: #1f77b4; stroke-width: 1.5; stroke-linecap: square"/>
   </g>
   <g id="line2d_14">
    <path d="M 73.832727 76.151851 
L 90.919809 76.168914 
L 108.00689 76.185979 
L 125.093971 76.203045 
L 142.181053 76.220113 
L 159.268134 76.237181 
L 176.355215 76.254252 
L 193.442297 76.271323 
L 210.529378 76.288398 
L 227.616459 76.305471 
L 244.703541 76.322545 
L 261.790622 76.339623 
L 278.877703 76.356699 
L 295.964785 76.373777 
L 313.051866 76.390854 
L 330.138947 76.407933 
L 347.226029 76.425013 
L 364.31311 76.442092 
L 381.400191 76.459171 
L 398.487273 76.459171 
" clip-path="url(#p58754d5b8e)" style="fill: none; stroke: #ff7f0e; stroke-width: 1.5; stroke-linecap: square"/>
   </g>
   <g id="line2d_15">
    <path d="M 73.832727 43.670355 
L 90.919809 43.664117 
L 108.00689 43.657875 
L 125.093971 43.65163 
L 142.181053 43.645381 
L 159.268134 43.639128 
L 176.355215 43.632872 
L 193.442297 43.626612 
L 210.529378 43.620349 
L 227.616459 43.614082 
L 244.703541 43.607811 
L 261.790622 43.601537 
L 278.877703 43.595259 
L 295.964785 43.588978 
L 313.051866 43.582693 
L 330.138947 43.576404 
L 347.226029 43.570112 
L 364.31311 43.563817 
L 381.400191 43.557517 
L 398.487273 43.557517 
" clip-path="url(#p58754d5b8e)" style="fill: none; stroke: #2ca02c; stroke-width: 1.5; stroke-linecap: square"/>
   </g>
   <g id="line2d_16">
    <path d="M 73.832727 43.670355 
L 90.919809 43.664117 
L 108.00689 43.657875 
L 125.093971 43.65163 
L 142.181053 43.645381 
L 159.268134 43.639128 
L 176.355215 43.632872 
L 193.442297 43.626612 
L 210.529378 43.620349 
L 227.616459 43.614082 
L 244.703541 43.607811 
L 261.790622 43.601537 
L 278.877703 43.595259 
L 295.964785 43.588978 
L 313.051866 43.582693 
L 330.138947 43.576404 
L 347.226029 43.570112 
L 364.31311 43.563817 
L 381.400191 43.557517 
L 398.487273 43.557517 
" clip-path="url(#p58754d5b8e)" style="fill: none; stroke: #d62728; stroke-width: 1.5; stroke-linecap: square"/>
   </g>
   <g id="line2d_17">
    <path d="M 73.832727 75.848927 
L 90.919809 75.221592 
L 108.00689 74.594238 
L 125.093971 73.966852 
L 142.181053 73.339422 
L 159.268134 72.711936 
L 176.355215 72.084381 
L 193.442297 71.456746 
L 210.529378 70.829016 
L 227.616459 70.201182 
L 244.703541 69.573229 
L 261.790622 68.945144 
L 278.877703 68.316919 
L 295.964785 67.688538 
L 313.051866 67.059989 
L 330.138947 66.431259 
L 347.226029 65.802339 
L 364.31311 65.173212 
L 381.400191 64.543868 
L 398.487273 64.543868 
" clip-path="url(#p58754d5b8e)" style="fill: none; stroke: #9467bd; stroke-width: 1.5; stroke-linecap: square"/>
   </g>
   <g id="line2d_18">
    <path d="M 73.832727 76.434265 
L 90.919809 76.392385 
L 108.00689 76.350708 
L 125.093971 76.309343 
L 142.181053 76.268396 
L 159.268134 76.227963 
L 176.355215 76.188135 
L 193.442297 76.149022 
L 210.529378 76.110704 
L 227.616459 76.073284 
L 244.703541 76.036836 
L 261.790622 76.00144 
L 278.877703 75.967197 
L 295.964785 75.934144 
L 313.051866 75.902367 
L 330.138947 75.871916 
L 347.226029 75.842847 
L 364.31311 75.815181 
L 381.400191 75.78897 
L 398.487273 75.78897 
" clip-path="url(#p58754d5b8e)" style="fill: none; stroke: #8c564b; stroke-width: 1.5; stroke-linecap: square"/>
   </g>
   <g id="line2d_19">
    <path d="M 73.832727 76.475512 
L 90.919809 76.474769 
L 108.00689 76.474027 
L 125.093971 76.473285 
L 142.181053 76.472543 
L 159.268134 76.4718 
L 176.355215 76.471058 
L 193.442297 76.470316 
L 210.529378 76.469574 
L 227.616459 76.468833 
L 244.703541 76.468091 
L 261.790622 76.467349 
L 278.877703 76.466608 
L 295.964785 76.465867 
L 313.051866 76.465127 
L 330.138947 76.464387 
L 347.226029 76.463648 
L 364.31311 76.46291 
L 381.400191 76.462172 
L 398.487273 76.462172 
" clip-path="url(#p58754d5b8e)" style="fill: none; stroke: #e377c2; stroke-width: 1.5; stroke-linecap: square"/>
   </g>
   <g id="line2d_20">
    <path d="M 73.832727 76.476207 
L 90.919809 76.47616 
L 108.00689 76.476113 
L 125.093971 76.476066 
L 142.181053 76.476019 
L 159.268134 76.475971 
L 176.355215 76.475924 
L 193.442297 76.475877 
L 210.529378 76.47583 
L 227.616459 76.475783 
L 244.703541 76.475736 
L 261.790622 76.475689 
L 278.877703 76.475642 
L 295.964785 76.475595 
L 313.051866 76.475548 
L 330.138947 76.475501 
L 347.226029 76.475454 
L 364.31311 76.475406 
L 381.400191 76.475359 
L 398.487273 76.475359 
" clip-path="url(#p58754d5b8e)" style="fill: none; stroke: #7f7f7f; stroke-width: 1.5; stroke-linecap: square"/>
   </g>
   <g id="line2d_21">
    <path d="M 73.832727 85.267862 
L 90.919809 84.78831 
L 108.00689 84.31165 
L 125.093971 83.837679 
L 142.181053 83.366201 
L 159.268134 82.897026 
L 176.355215 82.429972 
L 193.442297 81.964861 
L 210.529378 81.50152 
L 227.616459 81.039784 
L 244.703541 80.579488 
L 261.790622 80.120474 
L 278.877703 79.662585 
L 295.964785 79.205668 
L 313.051866 78.749571 
L 330.138947 78.294148 
L 347.226029 77.839249 
L 364.31311 77.384731 
L 381.400191 76.930447 
L 398.487273 76.930447 
" clip-path="url(#p58754d5b8e)" style="fill: none; stroke: #bcbd22; stroke-width: 1.5; stroke-linecap: square"/>
   </g>
   <g id="line2d_22">
    <path d="M 73.832727 76.830425 
L 90.919809 76.812559 
L 108.00689 76.794563 
L 125.093971 76.776447 
L 142.181053 76.758218 
L 159.268134 76.739884 
L 176.355215 76.721455 
L 193.442297 76.702936 
L 210.529378 76.684336 
L 227.616459 76.665661 
L 244.703541 76.646918 
L 261.790622 76.628113 
L 278.877703 76.609253 
L 295.964785 76.590345 
L 313.051866 76.571395 
L 330.138947 76.552409 
L 347.226029 76.533396 
L 364.31311 76.51436 
L 381.400191 76.495311 
L 398.487273 76.495311 
" clip-path="url(#p58754d5b8e)" style="fill: none; stroke: #17becf; stroke-width: 1.5; stroke-linecap: square"/>
   </g>
   <g id="line2d_23">
    <path d="M 73.832727 76.483854 
L 90.919809 76.48347 
L 108.00689 76.483083 
L 125.093971 76.482694 
L 142.181053 76.482303 
L 159.268134 76.48191 
L 176.355215 76.481515 
L 193.442297 76.481118 
L 210.529378 76.48072 
L 227.616459 76.480319 
L 244.703541 76.479917 
L 261.790622 76.479514 
L 278.877703 76.47911 
L 295.964785 76.478704 
L 313.051866 76.478297 
L 330.138947 76.477889 
L 347.226029 76.477481 
L 364.31311 76.477072 
L 381.400191 76.476663 
L 398.487273 76.476663 
" clip-path="url(#p58754d5b8e)" style="fill: none; stroke: #1f77b4; stroke-width: 1.5; stroke-linecap: square"/>
   </g>
   <g id="line2d_24">
    <path d="M 73.832727 76.476178 
L 90.919809 76.47618 
L 108.00689 76.476182 
L 125.093971 76.476185 
L 142.181053 76.476188 
L 159.268134 76.476192 
L 176.355215 76.476195 
L 193.442297 76.476199 
L 210.529378 76.476203 
L 227.616459 76.476207 
L 244.703541 76.476211 
L 261.790622 76.476216 
L 278.877703 76.47622 
L 295.964785 76.476225 
L 313.051866 76.47623 
L 330.138947 76.476234 
L 347.226029 76.476239 
L 364.31311 76.476244 
L 381.400191 76.476249 
L 398.487273 76.476249 
" clip-path="url(#p58754d5b8e)" style="fill: none; stroke: #ff7f0e; stroke-width: 1.5; stroke-linecap: square"/>
   </g>
   <g id="line2d_25">
    <path d="M 73.832727 76.476254 
L 90.919809 76.476253 
L 108.00689 76.476253 
L 125.093971 76.476252 
L 142.181053 76.476252 
L 159.268134 76.476252 
L 176.355215 76.476252 
L 193.442297 76.476252 
L 210.529378 76.476252 
L 227.616459 76.476252 
L 244.703541 76.476252 
L 261.790622 76.476252 
L 278.877703 76.476252 
L 295.964785 76.476252 
L 313.051866 76.476253 
L 330.138947 76.476253 
L 347.226029 76.476253 
L 364.31311 76.476253 
L 381.400191 76.476254 
L 398.487273 76.476254 
" clip-path="url(#p58754d5b8e)" style="fill: none; stroke: #2ca02c; stroke-width: 1.5; stroke-linecap: square"/>
   </g>
   <g id="patch_5">
    <path d="M 57.6 87.353379 
L 57.6 41.472 
" style="fill: none; stroke: #000000; stroke-width: 0.8; stroke-linejoin: miter; stroke-linecap: square"/>
   </g>
   <g id="patch_6">
    <path d="M 414.72 87.353379 
L 414.72 41.472 
" style="fill: none; stroke: #000000; stroke-width: 0.8; stroke-linejoin: miter; stroke-linecap: square"/>
   </g>
   <g id="patch_7">
    <path d="M 57.6 87.353379 
L 414.72 87.353379 
" style="fill: none; stroke: #000000; stroke-width: 0.8; stroke-linejoin: miter; stroke-linecap: square"/>
   </g>
   <g id="patch_8">
    <path d="M 57.6 41.472 
L 414.72 41.472 
" style="fill: none; stroke: #000000; stroke-width: 0.8; stroke-linejoin: miter; stroke-linecap: square"/>
   </g>
   <g id="text_7">
    <!-- velocity - Container 1  -->
    <g transform="translate(169.779375 38.472)scale(0.12 -0.12)">
     <defs>
      <path id="DejaVuSans-63" d="M 3122 3366 
L 3122 2828 
Q 2878 2963 2633 3030 
Q 2388 3097 2138 3097 
Q 1578 3097 1268 2742 
Q 959 2388 959 1747 
Q 959 1106 1268 751 
Q 1578 397 2138 397 
Q 2388 397 2633 464 
Q 2878 531 3122 666 
L 3122 134 
Q 2881 22 2623 -34 
Q 2366 -91 2075 -91 
Q 1284 -91 818 406 
Q 353 903 353 1747 
Q 353 2603 823 3093 
Q 1294 3584 2113 3584 
Q 2378 3584 2631 3529 
Q 2884 3475 3122 3366 
z
" transform="scale(0.015625)"/>
      <path id="DejaVuSans-74" d="M 1172 4494 
L 1172 3500 
L 2356 3500 
L 2356 3053 
L 1172 3053 
L 1172 1153 
Q 1172 725 1289 603 
Q 1406 481 1766 481 
L 2356 481 
L 2356 0 
L 1766 0 
Q 1100 0 847 248 
Q 594 497 594 1153 
L 594 3053 
L 172 3053 
L 172 3500 
L 594 3500 
L 594 4494 
L 1172 4494 
z
" transform="scale(0.015625)"/>
      <path id="DejaVuSans-79" d="M 2059 -325 
Q 1816 -950 1584 -1140 
Q 1353 -1331 966 -1331 
L 506 -1331 
L 506 -850 
L 844 -850 
Q 1081 -850 1212 -737 
Q 1344 -625 1503 -206 
L 1606 56 
L 191 3500 
L 800 3500 
L 1894 763 
L 2988 3500 
L 3597 3500 
L 2059 -325 
z
" transform="scale(0.015625)"/>
      <path id="DejaVuSans-2d" d="M 313 2009 
L 1997 2009 
L 1997 1497 
L 313 1497 
L 313 2009 
z
" transform="scale(0.015625)"/>
      <path id="DejaVuSans-43" d="M 4122 4306 
L 4122 3641 
Q 3803 3938 3442 4084 
Q 3081 4231 2675 4231 
Q 1875 4231 1450 3742 
Q 1025 3253 1025 2328 
Q 1025 1406 1450 917 
Q 1875 428 2675 428 
Q 3081 428 3442 575 
Q 3803 722 4122 1019 
L 4122 359 
Q 3791 134 3420 21 
Q 3050 -91 2638 -91 
Q 1578 -91 968 557 
Q 359 1206 359 2328 
Q 359 3453 968 4101 
Q 1578 4750 2638 4750 
Q 3056 4750 3426 4639 
Q 3797 4528 4122 4306 
z
" transform="scale(0.015625)"/>
     </defs>
     <use xlink:href="#DejaVuSans-76"/>
     <use xlink:href="#DejaVuSans-65" x="59.179688"/>
     <use xlink:href="#DejaVuSans-6c" x="120.703125"/>
     <use xlink:href="#DejaVuSans-6f" x="148.486328"/>
     <use xlink:href="#DejaVuSans-63" x="209.667969"/>
     <use xlink:href="#DejaVuSans-69" x="264.648438"/>
     <use xlink:href="#DejaVuSans-74" x="292.431641"/>
     <use xlink:href="#DejaVuSans-79" x="331.640625"/>
     <use xlink:href="#DejaVuSans-20" x="390.820312"/>
     <use xlink:href="#DejaVuSans-2d" x="422.607422"/>
     <use xlink:href="#DejaVuSans-20" x="458.691406"/>
     <use xlink:href="#DejaVuSans-43" x="490.478516"/>
     <use xlink:href="#DejaVuSans-6f" x="560.302734"/>
     <use xlink:href="#DejaVuSans-6e" x="621.484375"/>
     <use xlink:href="#DejaVuSans-74" x="684.863281"/>
     <use xlink:href="#DejaVuSans-61" x="724.072266"/>
     <use xlink:href="#DejaVuSans-69" x="785.351562"/>
     <use xlink:href="#DejaVuSans-6e" x="813.134766"/>
     <use xlink:href="#DejaVuSans-65" x="876.513672"/>
     <use xlink:href="#DejaVuSans-72" x="938.037109"/>
     <use xlink:href="#DejaVuSans-20" x="979.150391"/>
     <use xlink:href="#DejaVuSans-31" x="1010.9375"/>
     <use xlink:href="#DejaVuSans-20" x="1074.560547"/>
    </g>
   </g>
  </g>
  <g id="axes_3">
   <g id="patch_9">
    <path d="M 57.6 142.411034 
L 414.72 142.411034 
L 414.72 96.529655 
L 57.6 96.529655 
z
" style="fill: #ffffff"/>
   </g>
   <g id="matplotlib.axis_5">
    <g id="xtick_9">
     <g id="line2d_26">
      <g>
       <use xlink:href="#m8b1f42f223" x="73.832727" y="142.411034" style="stroke: #000000; stroke-width: 0.8"/>
      </g>
     </g>
    </g>
    <g id="xtick_10">
     <g id="line2d_27">
      <g>
       <use xlink:href="#m8b1f42f223" x="116.550431" y="142.411034" style="stroke: #000000; stroke-width: 0.8"/>
      </g>
     </g>
    </g>
    <g id="xtick_11">
     <g id="line2d_28">
      <g>
       <use xlink:href="#m8b1f42f223" x="159.268134" y="142.411034" style="stroke: #000000; stroke-width: 0.8"/>
      </g>
     </g>
    </g>
    <g id="xtick_12">
     <g id="line2d_29">
      <g>
       <use xlink:href="#m8b1f42f223" x="201.985837" y="142.411034" style="stroke: #000000; stroke-width: 0.8"/>
      </g>
     </g>
    </g>
    <g id="xtick_13">
     <g id="line2d_30">
      <g>
       <use xlink:href="#m8b1f42f223" x="244.703541" y="142.411034" style="stroke: #000000; stroke-width: 0.8"/>
      </g>
     </g>
    </g>
    <g id="xtick_14">
     <g id="line2d_31">
      <g>
       <use xlink:href="#m8b1f42f223" x="287.421244" y="142.411034" style="stroke: #000000; stroke-width: 0.8"/>
      </g>
     </g>
    </g>
    <g id="xtick_15">
     <g id="line2d_32">
      <g>
       <use xlink:href="#m8b1f42f223" x="330.138947" y="142.411034" style="stroke: #000000; stroke-width: 0.8"/>
      </g>
     </g>
    </g>
    <g id="xtick_16">
     <g id="line2d_33">
      <g>
       <use xlink:href="#m8b1f42f223" x="372.856651" y="142.411034" style="stroke: #000000; stroke-width: 0.8"/>
      </g>
     </g>
    </g>
   </g>
   <g id="matplotlib.axis_6">
    <g id="ytick_5">
     <g id="line2d_34">
      <g>
       <use xlink:href="#m6297b194d4" x="57.6" y="140.745253" style="stroke: #000000; stroke-width: 0.8"/>
      </g>
     </g>
     <g id="text_8">
      <!-- 0 -->
      <g transform="translate(44.2375 144.544472)scale(0.1 -0.1)">
       <use xlink:href="#DejaVuSans-30"/>
      </g>
     </g>
    </g>
    <g id="ytick_6">
     <g id="line2d_35">
      <g>
       <use xlink:href="#m6297b194d4" x="57.6" y="98.771642" style="stroke: #000000; stroke-width: 0.8"/>
      </g>
     </g>
     <g id="text_9">
      <!-- 1 -->
      <g transform="translate(44.2375 102.570861)scale(0.1 -0.1)">
       <use xlink:href="#DejaVuSans-31"/>
      </g>
     </g>
    </g>
   </g>
   <g id="line2d_36">
    <path d="M 73.832727 140.325517 
L 90.919809 140.325517 
L 108.00689 140.325517 
L 125.093971 140.325517 
L 142.181053 140.325517 
L 159.268134 140.325517 
L 176.355215 140.325517 
L 193.442297 140.325517 
L 210.529378 140.325517 
L 227.616459 140.325517 
L 244.703541 140.325517 
L 261.790622 140.325517 
L 278.877703 140.325517 
L 295.964785 140.325517 
L 313.051866 140.325517 
L 330.138947 140.325517 
L 347.226029 140.325517 
L 364.31311 140.325517 
L 381.400191 140.325517 
L 398.487273 140.325517 
" clip-path="url(#p7afbc8eb55)" style="fill: none; stroke: #1f77b4; stroke-width: 1.5; stroke-linecap: square"/>
   </g>
   <g id="line2d_37">
    <path d="M 73.832727 99.537765 
L 90.919809 99.537844 
L 108.00689 99.537919 
L 125.093971 99.53799 
L 142.181053 99.538056 
L 159.268134 99.538119 
L 176.355215 99.538177 
L 193.442297 99.538232 
L 210.529378 99.538282 
L 227.616459 99.538328 
L 244.703541 99.538369 
L 261.790622 99.538407 
L 278.877703 99.53844 
L 295.964785 99.538469 
L 313.051866 99.538494 
L 330.138947 99.538515 
L 347.226029 99.538532 
L 364.31311 99.538544 
L 381.400191 99.538553 
L 398.487273 99.538557 
" clip-path="url(#p7afbc8eb55)" style="fill: none; stroke: #ff7f0e; stroke-width: 1.5; stroke-linecap: square"/>
   </g>
   <g id="line2d_38">
    <path d="M 73.832727 98.615172 
L 90.919809 98.623182 
L 108.00689 98.631194 
L 125.093971 98.639207 
L 142.181053 98.647221 
L 159.268134 98.655237 
L 176.355215 98.663255 
L 193.442297 98.671274 
L 210.529378 98.679295 
L 227.616459 98.687317 
L 244.703541 98.69534 
L 261.790622 98.703366 
L 278.877703 98.711392 
L 295.964785 98.719421 
L 313.051866 98.72745 
L 330.138947 98.735482 
L 347.226029 98.743515 
L 364.31311 98.751549 
L 381.400191 98.759585 
L 398.487273 98.767622 
" clip-path="url(#p7afbc8eb55)" style="fill: none; stroke: #2ca02c; stroke-width: 1.5; stroke-linecap: square"/>
   </g>
   <g id="line2d_39">
    <path d="M 73.832727 98.615172 
L 90.919809 98.623182 
L 108.00689 98.631194 
L 125.093971 98.639207 
L 142.181053 98.647221 
L 159.268134 98.655237 
L 176.355215 98.663255 
L 193.442297 98.671274 
L 210.529378 98.679295 
L 227.616459 98.687317 
L 244.703541 98.69534 
L 261.790622 98.703366 
L 278.877703 98.711392 
L 295.964785 98.719421 
L 313.051866 98.72745 
L 330.138947 98.735482 
L 347.226029 98.743515 
L 364.31311 98.751549 
L 381.400191 98.759585 
L 398.487273 98.767622 
" clip-path="url(#p7afbc8eb55)" style="fill: none; stroke: #d62728; stroke-width: 1.5; stroke-linecap: square"/>
   </g>
   <g id="line2d_40">
    <path d="M 73.832727 122.620204 
L 90.919809 122.620357 
L 108.00689 122.620663 
L 125.093971 122.621123 
L 142.181053 122.621736 
L 159.268134 122.622501 
L 176.355215 122.623421 
L 193.442297 122.624493 
L 210.529378 122.625718 
L 227.616459 122.627097 
L 244.703541 122.628629 
L 261.790622 122.630315 
L 278.877703 122.632154 
L 295.964785 122.634146 
L 313.051866 122.636291 
L 330.138947 122.638591 
L 347.226029 122.641043 
L 364.31311 122.643649 
L 381.400191 122.646409 
L 398.487273 122.649323 
" clip-path="url(#p7afbc8eb55)" style="fill: none; stroke: #9467bd; stroke-width: 1.5; stroke-linecap: square"/>
   </g>
   <g id="line2d_41">
    <path d="M 73.832727 136.292663 
L 90.919809 136.292673 
L 108.00689 136.292693 
L 125.093971 136.292724 
L 142.181053 136.292765 
L 159.268134 136.292815 
L 176.355215 136.292876 
L 193.442297 136.292946 
L 210.529378 136.293026 
L 227.616459 136.293116 
L 244.703541 136.293214 
L 261.790622 136.293321 
L 278.877703 136.293437 
L 295.964785 136.293562 
L 313.051866 136.293694 
L 330.138947 136.293834 
L 347.226029 136.293982 
L 364.31311 136.294136 
L 381.400191 136.294298 
L 398.487273 136.294465 
" clip-path="url(#p7afbc8eb55)" style="fill: none; stroke: #8c564b; stroke-width: 1.5; stroke-linecap: square"/>
   </g>
   <g id="line2d_42">
    <path d="M 73.832727 136.5434 
L 90.919809 136.543401 
L 108.00689 136.543401 
L 125.093971 136.543402 
L 142.181053 136.543402 
L 159.268134 136.543403 
L 176.355215 136.543404 
L 193.442297 136.543406 
L 210.529378 136.543407 
L 227.616459 136.543409 
L 244.703541 136.54341 
L 261.790622 136.543412 
L 278.877703 136.543415 
L 295.964785 136.543417 
L 313.051866 136.543419 
L 330.138947 136.543422 
L 347.226029 136.543425 
L 364.31311 136.543428 
L 381.400191 136.543431 
L 398.487273 136.543435 
" clip-path="url(#p7afbc8eb55)" style="fill: none; stroke: #e377c2; stroke-width: 1.5; stroke-linecap: square"/>
   </g>
   <g id="line2d_43">
    <path d="M 73.832727 136.547788 
L 90.919809 136.547788 
L 108.00689 136.547788 
L 125.093971 136.547788 
L 142.181053 136.547788 
L 159.268134 136.547788 
L 176.355215 136.547788 
L 193.442297 136.547788 
L 210.529378 136.547788 
L 227.616459 136.547788 
L 244.703541 136.547788 
L 261.790622 136.547789 
L 278.877703 136.547789 
L 295.964785 136.547789 
L 313.051866 136.547789 
L 330.138947 136.547789 
L 347.226029 136.547789 
L 364.31311 136.54779 
L 381.400191 136.54779 
L 398.487273 136.54779 
" clip-path="url(#p7afbc8eb55)" style="fill: none; stroke: #7f7f7f; stroke-width: 1.5; stroke-linecap: square"/>
   </g>
   <g id="line2d_44">
    <path d="M 73.832727 139.813092 
L 90.919809 139.810946 
L 108.00689 139.808916 
L 125.093971 139.807003 
L 142.181053 139.805206 
L 159.268134 139.803523 
L 176.355215 139.801956 
L 193.442297 139.800502 
L 210.529378 139.799162 
L 227.616459 139.797935 
L 244.703541 139.796821 
L 261.790622 139.795819 
L 278.877703 139.794929 
L 295.964785 139.794151 
L 313.051866 139.793485 
L 330.138947 139.79293 
L 347.226029 139.792486 
L 364.31311 139.792153 
L 381.400191 139.791931 
L 398.487273 139.79182 
" clip-path="url(#p7afbc8eb55)" style="fill: none; stroke: #bcbd22; stroke-width: 1.5; stroke-linecap: square"/>
   </g>
   <g id="line2d_45">
    <path d="M 73.832727 140.31609 
L 90.919809 140.316003 
L 108.00689 140.315921 
L 125.093971 140.315843 
L 142.181053 140.31577 
L 159.268134 140.315701 
L 176.355215 140.315637 
L 193.442297 140.315577 
L 210.529378 140.315522 
L 227.616459 140.315471 
L 244.703541 140.315425 
L 261.790622 140.315383 
L 278.877703 140.315346 
L 295.964785 140.315313 
L 313.051866 140.315286 
L 330.138947 140.315262 
L 347.226029 140.315244 
L 364.31311 140.31523 
L 381.400191 140.315221 
L 398.487273 140.315216 
" clip-path="url(#p7afbc8eb55)" style="fill: none; stroke: #17becf; stroke-width: 1.5; stroke-linecap: square"/>
   </g>
   <g id="line2d_46">
    <path d="M 73.832727 140.325343 
L 90.919809 140.325342 
L 108.00689 140.32534 
L 125.093971 140.325338 
L 142.181053 140.325337 
L 159.268134 140.325335 
L 176.355215 140.325334 
L 193.442297 140.325332 
L 210.529378 140.325331 
L 227.616459 140.32533 
L 244.703541 140.325329 
L 261.790622 140.325328 
L 278.877703 140.325328 
L 295.964785 140.325327 
L 313.051866 140.325326 
L 330.138947 140.325326 
L 347.226029 140.325325 
L 364.31311 140.325325 
L 381.400191 140.325325 
L 398.487273 140.325325 
" clip-path="url(#p7afbc8eb55)" style="fill: none; stroke: #1f77b4; stroke-width: 1.5; stroke-linecap: square"/>
   </g>
   <g id="line2d_47">
    <path d="M 73.832727 140.325513 
L 90.919809 140.325513 
L 108.00689 140.325513 
L 125.093971 140.325513 
L 142.181053 140.325513 
L 159.268134 140.325513 
L 176.355215 140.325514 
L 193.442297 140.325514 
L 210.529378 140.325514 
L 227.616459 140.325514 
L 244.703541 140.325514 
L 261.790622 140.325514 
L 278.877703 140.325514 
L 295.964785 140.325514 
L 313.051866 140.325514 
L 330.138947 140.325514 
L 347.226029 140.325514 
L 364.31311 140.325514 
L 381.400191 140.325514 
L 398.487273 140.325514 
" clip-path="url(#p7afbc8eb55)" style="fill: none; stroke: #ff7f0e; stroke-width: 1.5; stroke-linecap: square"/>
   </g>
   <g id="line2d_48">
    <path d="M 73.832727 140.325516 
L 90.919809 140.325516 
L 108.00689 140.325516 
L 125.093971 140.325516 
L 142.181053 140.325516 
L 159.268134 140.325516 
L 176.355215 140.325516 
L 193.442297 140.325516 
L 210.529378 140.325516 
L 227.616459 140.325516 
L 244.703541 140.325516 
L 261.790622 140.325516 
L 278.877703 140.325516 
L 295.964785 140.325516 
L 313.051866 140.325516 
L 330.138947 140.325516 
L 347.226029 140.325516 
L 364.31311 140.325516 
L 381.400191 140.325516 
L 398.487273 140.325516 
" clip-path="url(#p7afbc8eb55)" style="fill: none; stroke: #2ca02c; stroke-width: 1.5; stroke-linecap: square"/>
   </g>
   <g id="patch_10">
    <path d="M 57.6 142.411034 
L 57.6 96.529655 
" style="fill: none; stroke: #000000; stroke-width: 0.8; stroke-linejoin: miter; stroke-linecap: square"/>
   </g>
   <g id="patch_11">
    <path d="M 414.72 142.411034 
L 414.72 96.529655 
" style="fill: none; stroke: #000000; stroke-width: 0.8; stroke-linejoin: miter; stroke-linecap: square"/>
   </g>
   <g id="patch_12">
    <path d="M 57.6 142.411034 
L 414.72 142.411034 
" style="fill: none; stroke: #000000; stroke-width: 0.8; stroke-linejoin: miter; stroke-linecap: square"/>
   </g>
   <g id="patch_13">
    <path d="M 57.6 96.529655 
L 414.72 96.529655 
" style="fill: none; stroke: #000000; stroke-width: 0.8; stroke-linejoin: miter; stroke-linecap: square"/>
   </g>
   <g id="text_10">
    <!-- Pressure - Container 1 -->
    <g transform="translate(169.523438 93.529655)scale(0.12 -0.12)">
     <defs>
      <path id="DejaVuSans-50" d="M 1259 4147 
L 1259 2394 
L 2053 2394 
Q 2494 2394 2734 2622 
Q 2975 2850 2975 3272 
Q 2975 3691 2734 3919 
Q 2494 4147 2053 4147 
L 1259 4147 
z
M 628 4666 
L 2053 4666 
Q 2838 4666 3239 4311 
Q 3641 3956 3641 3272 
Q 3641 2581 3239 2228 
Q 2838 1875 2053 1875 
L 1259 1875 
L 1259 0 
L 628 0 
L 628 4666 
z
" transform="scale(0.015625)"/>
      <path id="DejaVuSans-75" d="M 544 1381 
L 544 3500 
L 1119 3500 
L 1119 1403 
Q 1119 906 1312 657 
Q 1506 409 1894 409 
Q 2359 409 2629 706 
Q 2900 1003 2900 1516 
L 2900 3500 
L 3475 3500 
L 3475 0 
L 2900 0 
L 2900 538 
Q 2691 219 2414 64 
Q 2138 -91 1772 -91 
Q 1169 -91 856 284 
Q 544 659 544 1381 
z
M 1991 3584 
L 1991 3584 
z
" transform="scale(0.015625)"/>
     </defs>
     <use xlink:href="#DejaVuSans-50"/>
     <use xlink:href="#DejaVuSans-72" x="58.552734"/>
     <use xlink:href="#DejaVuSans-65" x="97.416016"/>
     <use xlink:href="#DejaVuSans-73" x="158.939453"/>
     <use xlink:href="#DejaVuSans-73" x="211.039062"/>
     <use xlink:href="#DejaVuSans-75" x="263.138672"/>
     <use xlink:href="#DejaVuSans-72" x="326.517578"/>
     <use xlink:href="#DejaVuSans-65" x="365.380859"/>
     <use xlink:href="#DejaVuSans-20" x="426.904297"/>
     <use xlink:href="#DejaVuSans-2d" x="458.691406"/>
     <use xlink:href="#DejaVuSans-20" x="494.775391"/>
     <use xlink:href="#DejaVuSans-43" x="526.5625"/>
     <use xlink:href="#DejaVuSans-6f" x="596.386719"/>
     <use xlink:href="#DejaVuSans-6e" x="657.568359"/>
     <use xlink:href="#DejaVuSans-74" x="720.947266"/>
     <use xlink:href="#DejaVuSans-61" x="760.15625"/>
     <use xlink:href="#DejaVuSans-69" x="821.435547"/>
     <use xlink:href="#DejaVuSans-6e" x="849.21875"/>
     <use xlink:href="#DejaVuSans-65" x="912.597656"/>
     <use xlink:href="#DejaVuSans-72" x="974.121094"/>
     <use xlink:href="#DejaVuSans-20" x="1015.234375"/>
     <use xlink:href="#DejaVuSans-31" x="1047.021484"/>
    </g>
   </g>
  </g>
  <g id="axes_4">
   <g id="patch_14">
    <path d="M 57.6 197.46869 
L 414.72 197.46869 
L 414.72 151.58731 
L 57.6 151.58731 
z
" style="fill: #ffffff"/>
   </g>
   <g id="matplotlib.axis_7">
    <g id="xtick_17">
     <g id="line2d_49">
      <g>
       <use xlink:href="#m8b1f42f223" x="73.832727" y="197.46869" style="stroke: #000000; stroke-width: 0.8"/>
      </g>
     </g>
    </g>
    <g id="xtick_18">
     <g id="line2d_50">
      <g>
       <use xlink:href="#m8b1f42f223" x="116.550431" y="197.46869" style="stroke: #000000; stroke-width: 0.8"/>
      </g>
     </g>
    </g>
    <g id="xtick_19">
     <g id="line2d_51">
      <g>
       <use xlink:href="#m8b1f42f223" x="159.268134" y="197.46869" style="stroke: #000000; stroke-width: 0.8"/>
      </g>
     </g>
    </g>
    <g id="xtick_20">
     <g id="line2d_52">
      <g>
       <use xlink:href="#m8b1f42f223" x="201.985837" y="197.46869" style="stroke: #000000; stroke-width: 0.8"/>
      </g>
     </g>
    </g>
    <g id="xtick_21">
     <g id="line2d_53">
      <g>
       <use xlink:href="#m8b1f42f223" x="244.703541" y="197.46869" style="stroke: #000000; stroke-width: 0.8"/>
      </g>
     </g>
    </g>
    <g id="xtick_22">
     <g id="line2d_54">
      <g>
       <use xlink:href="#m8b1f42f223" x="287.421244" y="197.46869" style="stroke: #000000; stroke-width: 0.8"/>
      </g>
     </g>
    </g>
    <g id="xtick_23">
     <g id="line2d_55">
      <g>
       <use xlink:href="#m8b1f42f223" x="330.138947" y="197.46869" style="stroke: #000000; stroke-width: 0.8"/>
      </g>
     </g>
    </g>
    <g id="xtick_24">
     <g id="line2d_56">
      <g>
       <use xlink:href="#m8b1f42f223" x="372.856651" y="197.46869" style="stroke: #000000; stroke-width: 0.8"/>
      </g>
     </g>
    </g>
   </g>
   <g id="matplotlib.axis_8">
    <g id="ytick_7">
     <g id="line2d_57">
      <g>
       <use xlink:href="#m6297b194d4" x="57.6" y="176.412927" style="stroke: #000000; stroke-width: 0.8"/>
      </g>
     </g>
     <g id="text_11">
      <!-- 0.04975 -->
      <g transform="translate(9.246875 180.212146)scale(0.1 -0.1)">
       <defs>
        <path id="DejaVuSans-2e" d="M 684 794 
L 1344 794 
L 1344 0 
L 684 0 
L 684 794 
z
" transform="scale(0.015625)"/>
        <path id="DejaVuSans-34" d="M 2419 4116 
L 825 1625 
L 2419 1625 
L 2419 4116 
z
M 2253 4666 
L 3047 4666 
L 3047 1625 
L 3713 1625 
L 3713 1100 
L 3047 1100 
L 3047 0 
L 2419 0 
L 2419 1100 
L 313 1100 
L 313 1709 
L 2253 4666 
z
" transform="scale(0.015625)"/>
        <path id="DejaVuSans-39" d="M 703 97 
L 703 672 
Q 941 559 1184 500 
Q 1428 441 1663 441 
Q 2288 441 2617 861 
Q 2947 1281 2994 2138 
Q 2813 1869 2534 1725 
Q 2256 1581 1919 1581 
Q 1219 1581 811 2004 
Q 403 2428 403 3163 
Q 403 3881 828 4315 
Q 1253 4750 1959 4750 
Q 2769 4750 3195 4129 
Q 3622 3509 3622 2328 
Q 3622 1225 3098 567 
Q 2575 -91 1691 -91 
Q 1453 -91 1209 -44 
Q 966 3 703 97 
z
M 1959 2075 
Q 2384 2075 2632 2365 
Q 2881 2656 2881 3163 
Q 2881 3666 2632 3958 
Q 2384 4250 1959 4250 
Q 1534 4250 1286 3958 
Q 1038 3666 1038 3163 
Q 1038 2656 1286 2365 
Q 1534 2075 1959 2075 
z
" transform="scale(0.015625)"/>
        <path id="DejaVuSans-37" d="M 525 4666 
L 3525 4666 
L 3525 4397 
L 1831 0 
L 1172 0 
L 2766 4134 
L 525 4134 
L 525 4666 
z
" transform="scale(0.015625)"/>
        <path id="DejaVuSans-35" d="M 691 4666 
L 3169 4666 
L 3169 4134 
L 1269 4134 
L 1269 2991 
Q 1406 3038 1543 3061 
Q 1681 3084 1819 3084 
Q 2600 3084 3056 2656 
Q 3513 2228 3513 1497 
Q 3513 744 3044 326 
Q 2575 -91 1722 -91 
Q 1428 -91 1123 -41 
Q 819 9 494 109 
L 494 744 
Q 775 591 1075 516 
Q 1375 441 1709 441 
Q 2250 441 2565 725 
Q 2881 1009 2881 1497 
Q 2881 1984 2565 2268 
Q 2250 2553 1709 2553 
Q 1456 2553 1204 2497 
Q 953 2441 691 2322 
L 691 4666 
z
" transform="scale(0.015625)"/>
       </defs>
       <use xlink:href="#DejaVuSans-30"/>
       <use xlink:href="#DejaVuSans-2e" x="63.623047"/>
       <use xlink:href="#DejaVuSans-30" x="95.410156"/>
       <use xlink:href="#DejaVuSans-34" x="159.033203"/>
       <use xlink:href="#DejaVuSans-39" x="222.65625"/>
       <use xlink:href="#DejaVuSans-37" x="286.279297"/>
       <use xlink:href="#DejaVuSans-35" x="349.902344"/>
      </g>
     </g>
    </g>
    <g id="ytick_8">
     <g id="line2d_58">
      <g>
       <use xlink:href="#m6297b194d4" x="57.6" y="154.576962" style="stroke: #000000; stroke-width: 0.8"/>
      </g>
     </g>
     <g id="text_12">
      <!-- 0.05000 -->
      <g transform="translate(9.246875 158.37618)scale(0.1 -0.1)">
       <use xlink:href="#DejaVuSans-30"/>
       <use xlink:href="#DejaVuSans-2e" x="63.623047"/>
       <use xlink:href="#DejaVuSans-30" x="95.410156"/>
       <use xlink:href="#DejaVuSans-35" x="159.033203"/>
       <use xlink:href="#DejaVuSans-30" x="222.65625"/>
       <use xlink:href="#DejaVuSans-30" x="286.279297"/>
       <use xlink:href="#DejaVuSans-30" x="349.902344"/>
      </g>
     </g>
    </g>
   </g>
   <g id="line2d_59">
    <path d="M 73.832727 154.22696 
L 90.919809 154.226802 
L 108.00689 154.226542 
L 125.093971 154.226278 
L 142.181053 154.226056 
L 159.268134 154.225785 
L 176.355215 154.225504 
L 193.442297 154.225211 
L 210.529378 154.224863 
L 227.616459 154.224533 
L 244.703541 154.224252 
L 261.790622 154.223896 
L 278.877703 154.223572 
L 295.964785 154.223114 
L 313.051866 154.222687 
L 330.138947 154.22224 
L 347.226029 154.221698 
L 364.31311 154.221115 
L 381.400191 154.22062 
L 398.487273 154.220246 
" clip-path="url(#p0b9bdf08f4)" style="fill: none; stroke: #1f77b4; stroke-width: 1.5; stroke-linecap: square"/>
   </g>
   <g id="line2d_60">
    <path d="M 73.832727 195.383172 
L 90.919809 182.961978 
L 108.00689 169.145477 
L 125.093971 159.031961 
L 142.181053 154.440883 
L 159.268134 153.672828 
L 176.355215 154.412598 
L 193.442297 155.190249 
L 210.529378 155.497753 
L 227.616459 155.403237 
L 244.703541 155.144315 
L 261.790622 154.898858 
L 278.877703 154.734512 
L 295.964785 154.64717 
L 313.051866 154.609047 
L 330.138947 154.595162 
L 347.226029 154.589861 
L 364.31311 154.584479 
L 381.400191 154.575182 
L 398.487273 154.565231 
" clip-path="url(#p0b9bdf08f4)" style="fill: none; stroke: #ff7f0e; stroke-width: 1.5; stroke-linecap: square"/>
   </g>
   <g id="line2d_61">
    <path d="M 73.832727 154.622891 
L 90.919809 154.681472 
L 108.00689 154.755296 
L 125.093971 154.8615 
L 142.181053 155.020242 
L 159.268134 155.245173 
L 176.355215 155.53832 
L 193.442297 155.889665 
L 210.529378 156.280113 
L 227.616459 156.685901 
L 244.703541 157.082854 
L 261.790622 157.449578 
L 278.877703 157.769338 
L 295.964785 158.030779 
L 313.051866 158.227798 
L 330.138947 158.358888 
L 347.226029 158.42623 
L 364.31311 158.434711 
L 381.400191 158.391025 
L 398.487273 158.304293 
" clip-path="url(#p0b9bdf08f4)" style="fill: none; stroke: #2ca02c; stroke-width: 1.5; stroke-linecap: square"/>
   </g>
   <g id="line2d_62">
    <path d="M 73.832727 154.579296 
L 90.919809 154.581756 
L 108.00689 154.583689 
L 125.093971 154.585017 
L 142.181053 154.585922 
L 159.268134 154.586622 
L 176.355215 154.587273 
L 193.442297 154.587951 
L 210.529378 154.588672 
L 227.616459 154.589429 
L 244.703541 154.590215 
L 261.790622 154.591027 
L 278.877703 154.591869 
L 295.964785 154.592751 
L 313.051866 154.593681 
L 330.138947 154.594668 
L 347.226029 154.595721 
L 364.31311 154.596851 
L 381.400191 154.598068 
L 398.487273 154.599369 
" clip-path="url(#p0b9bdf08f4)" style="fill: none; stroke: #d62728; stroke-width: 1.5; stroke-linecap: square"/>
   </g>
   <g id="line2d_63">
    <path d="M 73.832727 154.59132 
L 90.919809 154.591499 
L 108.00689 154.590127 
L 125.093971 154.588135 
L 142.181053 154.586189 
L 159.268134 154.584598 
L 176.355215 154.583426 
L 193.442297 154.582621 
L 210.529378 154.582094 
L 227.616459 154.581762 
L 244.703541 154.581563 
L 261.790622 154.581454 
L 278.877703 154.581408 
L 295.964785 154.581404 
L 313.051866 154.58143 
L 330.138947 154.581483 
L 347.226029 154.581551 
L 364.31311 154.581632 
L 381.400191 154.581722 
L 398.487273 154.581818 
" clip-path="url(#p0b9bdf08f4)" style="fill: none; stroke: #9467bd; stroke-width: 1.5; stroke-linecap: square"/>
   </g>
   <g id="line2d_64">
    <path d="M 73.832727 154.588548 
L 90.919809 154.588227 
L 108.00689 154.587163 
L 125.093971 154.585627 
L 142.181053 154.583956 
L 159.268134 154.582354 
L 176.355215 154.580945 
L 193.442297 154.579705 
L 210.529378 154.578661 
L 227.616459 154.577753 
L 244.703541 154.57697 
L 261.790622 154.576309 
L 278.877703 154.57571 
L 295.964785 154.575197 
L 313.051866 154.574759 
L 330.138947 154.574364 
L 347.226029 154.574021 
L 364.31311 154.573722 
L 381.400191 154.573486 
L 398.487273 154.573311 
" clip-path="url(#p0b9bdf08f4)" style="fill: none; stroke: #8c564b; stroke-width: 1.5; stroke-linecap: square"/>
   </g>
   <g id="line2d_65">
    <path d="M 73.832727 154.586231 
L 90.919809 154.585794 
L 108.00689 154.584854 
L 125.093971 154.583527 
L 142.181053 154.582033 
L 159.268134 154.580537 
L 176.355215 154.579165 
L 193.442297 154.577924 
L 210.529378 154.57688 
L 227.616459 154.575942 
L 244.703541 154.575164 
L 261.790622 154.574466 
L 278.877703 154.573821 
L 295.964785 154.572954 
L 313.051866 154.570898 
L 330.138947 154.562514 
L 347.226029 154.52789 
L 364.31311 154.408807 
L 381.400191 154.123027 
L 398.487273 153.917513 
" clip-path="url(#p0b9bdf08f4)" style="fill: none; stroke: #e377c2; stroke-width: 1.5; stroke-linecap: square"/>
   </g>
   <g id="line2d_66">
    <path d="M 73.832727 154.585835 
L 90.919809 154.585396 
L 108.00689 154.584537 
L 125.093971 154.583346 
L 142.181053 154.581974 
L 159.268134 154.580563 
L 176.355215 154.579231 
L 193.442297 154.57801 
L 210.529378 154.576933 
L 227.616459 154.575964 
L 244.703541 154.57504 
L 261.790622 154.573955 
L 278.877703 154.572149 
L 295.964785 154.567972 
L 313.051866 154.557082 
L 330.138947 154.529087 
L 347.226029 154.464151 
L 364.31311 154.337732 
L 381.400191 154.15349 
L 398.487273 154.004726 
" clip-path="url(#p0b9bdf08f4)" style="fill: none; stroke: #7f7f7f; stroke-width: 1.5; stroke-linecap: square"/>
   </g>
   <g id="line2d_67">
    <path d="M 73.832727 154.460461 
L 90.919809 154.457505 
L 108.00689 154.453998 
L 125.093971 154.449943 
L 142.181053 154.445269 
L 159.268134 154.439812 
L 176.355215 154.433422 
L 193.442297 154.425841 
L 210.529378 154.416744 
L 227.616459 154.405715 
L 244.703541 154.39212 
L 261.790622 154.375133 
L 278.877703 154.353632 
L 295.964785 154.326021 
L 313.051866 154.290209 
L 330.138947 154.243675 
L 347.226029 154.184171 
L 364.31311 154.111954 
L 381.400191 154.034666 
L 398.487273 153.974631 
" clip-path="url(#p0b9bdf08f4)" style="fill: none; stroke: #bcbd22; stroke-width: 1.5; stroke-linecap: square"/>
   </g>
   <g id="line2d_68">
    <path d="M 73.832727 154.225793 
L 90.919809 154.222699 
L 108.00689 154.21863 
L 125.093971 154.2141 
L 142.181053 154.208965 
L 159.268134 154.202966 
L 176.355215 154.196196 
L 193.442297 154.188322 
L 210.529378 154.178814 
L 227.616459 154.167337 
L 244.703541 154.153437 
L 261.790622 154.136047 
L 278.877703 154.114188 
L 295.964785 154.086297 
L 313.051866 154.050578 
L 330.138947 154.004698 
L 347.226029 153.94718 
L 364.31311 153.879028 
L 381.400191 153.808616 
L 398.487273 153.756664 
" clip-path="url(#p0b9bdf08f4)" style="fill: none; stroke: #17becf; stroke-width: 1.5; stroke-linecap: square"/>
   </g>
   <g id="line2d_69">
    <path d="M 73.832727 154.21491 
L 90.919809 154.212227 
L 108.00689 154.208362 
L 125.093971 154.203724 
L 142.181053 154.198482 
L 159.268134 154.192487 
L 176.355215 154.185519 
L 193.442297 154.177421 
L 210.529378 154.167806 
L 227.616459 154.156221 
L 244.703541 154.142053 
L 261.790622 154.124525 
L 278.877703 154.102356 
L 295.964785 154.074213 
L 313.051866 154.03811 
L 330.138947 153.992019 
L 347.226029 153.934902 
L 364.31311 153.868438 
L 381.400191 153.801535 
L 398.487273 153.754458 
" clip-path="url(#p0b9bdf08f4)" style="fill: none; stroke: #1f77b4; stroke-width: 1.5; stroke-linecap: square"/>
   </g>
   <g id="line2d_70">
    <path d="M 73.832727 154.213857 
L 90.919809 154.211505 
L 108.00689 154.207837 
L 125.093971 154.20333 
L 142.181053 154.198051 
L 159.268134 154.192048 
L 176.355215 154.185049 
L 193.442297 154.176877 
L 210.529378 154.167167 
L 227.616459 154.155521 
L 244.703541 154.141223 
L 261.790622 154.123476 
L 278.877703 154.101113 
L 295.964785 154.072706 
L 313.051866 154.036346 
L 330.138947 153.990287 
L 347.226029 153.933621 
L 364.31311 153.868785 
L 381.400191 153.805126 
L 398.487273 153.761841 
" clip-path="url(#p0b9bdf08f4)" style="fill: none; stroke: #ff7f0e; stroke-width: 1.5; stroke-linecap: square"/>
   </g>
   <g id="line2d_71">
    <path d="M 73.832727 154.213143 
L 90.919809 154.210984 
L 108.00689 154.207466 
L 125.093971 154.203029 
L 142.181053 154.197803 
L 159.268134 154.191771 
L 176.355215 154.184751 
L 193.442297 154.176533 
L 210.529378 154.166752 
L 227.616459 154.154995 
L 244.703541 154.140564 
L 261.790622 154.12265 
L 278.877703 154.100093 
L 295.964785 154.071441 
L 313.051866 154.034926 
L 330.138947 153.98891 
L 347.226029 153.932858 
L 364.31311 153.869667 
L 381.400191 153.808864 
L 398.487273 153.768515 
" clip-path="url(#p0b9bdf08f4)" style="fill: none; stroke: #2ca02c; stroke-width: 1.5; stroke-linecap: square"/>
   </g>
   <g id="patch_15">
    <path d="M 57.6 197.46869 
L 57.6 151.58731 
" style="fill: none; stroke: #000000; stroke-width: 0.8; stroke-linejoin: miter; stroke-linecap: square"/>
   </g>
   <g id="patch_16">
    <path d="M 414.72 197.46869 
L 414.72 151.58731 
" style="fill: none; stroke: #000000; stroke-width: 0.8; stroke-linejoin: miter; stroke-linecap: square"/>
   </g>
   <g id="patch_17">
    <path d="M 57.6 197.46869 
L 414.72 197.46869 
" style="fill: none; stroke: #000000; stroke-width: 0.8; stroke-linejoin: miter; stroke-linecap: square"/>
   </g>
   <g id="patch_18">
    <path d="M 57.6 151.58731 
L 414.72 151.58731 
" style="fill: none; stroke: #000000; stroke-width: 0.8; stroke-linejoin: miter; stroke-linecap: square"/>
   </g>
   <g id="text_13">
    <!-- yA - Container 1 -->
    <g transform="translate(187.48125 148.58731)scale(0.12 -0.12)">
     <defs>
      <path id="DejaVuSans-41" d="M 2188 4044 
L 1331 1722 
L 3047 1722 
L 2188 4044 
z
M 1831 4666 
L 2547 4666 
L 4325 0 
L 3669 0 
L 3244 1197 
L 1141 1197 
L 716 0 
L 50 0 
L 1831 4666 
z
" transform="scale(0.015625)"/>
     </defs>
     <use xlink:href="#DejaVuSans-79"/>
     <use xlink:href="#DejaVuSans-41" x="59.179688"/>
     <use xlink:href="#DejaVuSans-20" x="127.587891"/>
     <use xlink:href="#DejaVuSans-2d" x="159.375"/>
     <use xlink:href="#DejaVuSans-20" x="195.458984"/>
     <use xlink:href="#DejaVuSans-43" x="227.246094"/>
     <use xlink:href="#DejaVuSans-6f" x="297.070312"/>
     <use xlink:href="#DejaVuSans-6e" x="358.251953"/>
     <use xlink:href="#DejaVuSans-74" x="421.630859"/>
     <use xlink:href="#DejaVuSans-61" x="460.839844"/>
     <use xlink:href="#DejaVuSans-69" x="522.119141"/>
     <use xlink:href="#DejaVuSans-6e" x="549.902344"/>
     <use xlink:href="#DejaVuSans-65" x="613.28125"/>
     <use xlink:href="#DejaVuSans-72" x="674.804688"/>
     <use xlink:href="#DejaVuSans-20" x="715.917969"/>
     <use xlink:href="#DejaVuSans-31" x="747.705078"/>
    </g>
   </g>
  </g>
  <g id="axes_5">
   <g id="patch_19">
    <path d="M 57.6 252.526345 
L 414.72 252.526345 
L 414.72 206.644966 
L 57.6 206.644966 
z
" style="fill: #ffffff"/>
   </g>
   <g id="matplotlib.axis_9">
    <g id="xtick_25">
     <g id="line2d_72">
      <g>
       <use xlink:href="#m8b1f42f223" x="73.832727" y="252.526345" style="stroke: #000000; stroke-width: 0.8"/>
      </g>
     </g>
    </g>
    <g id="xtick_26">
     <g id="line2d_73">
      <g>
       <use xlink:href="#m8b1f42f223" x="116.550431" y="252.526345" style="stroke: #000000; stroke-width: 0.8"/>
      </g>
     </g>
    </g>
    <g id="xtick_27">
     <g id="line2d_74">
      <g>
       <use xlink:href="#m8b1f42f223" x="159.268134" y="252.526345" style="stroke: #000000; stroke-width: 0.8"/>
      </g>
     </g>
    </g>
    <g id="xtick_28">
     <g id="line2d_75">
      <g>
       <use xlink:href="#m8b1f42f223" x="201.985837" y="252.526345" style="stroke: #000000; stroke-width: 0.8"/>
      </g>
     </g>
    </g>
    <g id="xtick_29">
     <g id="line2d_76">
      <g>
       <use xlink:href="#m8b1f42f223" x="244.703541" y="252.526345" style="stroke: #000000; stroke-width: 0.8"/>
      </g>
     </g>
    </g>
    <g id="xtick_30">
     <g id="line2d_77">
      <g>
       <use xlink:href="#m8b1f42f223" x="287.421244" y="252.526345" style="stroke: #000000; stroke-width: 0.8"/>
      </g>
     </g>
    </g>
    <g id="xtick_31">
     <g id="line2d_78">
      <g>
       <use xlink:href="#m8b1f42f223" x="330.138947" y="252.526345" style="stroke: #000000; stroke-width: 0.8"/>
      </g>
     </g>
    </g>
    <g id="xtick_32">
     <g id="line2d_79">
      <g>
       <use xlink:href="#m8b1f42f223" x="372.856651" y="252.526345" style="stroke: #000000; stroke-width: 0.8"/>
      </g>
     </g>
    </g>
   </g>
   <g id="matplotlib.axis_10">
    <g id="ytick_9">
     <g id="line2d_80">
      <g>
       <use xlink:href="#m6297b194d4" x="57.6" y="247.754823" style="stroke: #000000; stroke-width: 0.8"/>
      </g>
     </g>
     <g id="text_14">
      <!-- 0.9000 -->
      <g transform="translate(15.609375 251.554042)scale(0.1 -0.1)">
       <use xlink:href="#DejaVuSans-30"/>
       <use xlink:href="#DejaVuSans-2e" x="63.623047"/>
       <use xlink:href="#DejaVuSans-39" x="95.410156"/>
       <use xlink:href="#DejaVuSans-30" x="159.033203"/>
       <use xlink:href="#DejaVuSans-30" x="222.65625"/>
       <use xlink:href="#DejaVuSans-30" x="286.279297"/>
      </g>
     </g>
    </g>
    <g id="ytick_10">
     <g id="line2d_81">
      <g>
       <use xlink:href="#m6297b194d4" x="57.6" y="210.513658" style="stroke: #000000; stroke-width: 0.8"/>
      </g>
     </g>
     <g id="text_15">
      <!-- 0.9005 -->
      <g transform="translate(15.609375 214.312877)scale(0.1 -0.1)">
       <use xlink:href="#DejaVuSans-30"/>
       <use xlink:href="#DejaVuSans-2e" x="63.623047"/>
       <use xlink:href="#DejaVuSans-39" x="95.410156"/>
       <use xlink:href="#DejaVuSans-30" x="159.033203"/>
       <use xlink:href="#DejaVuSans-30" x="222.65625"/>
       <use xlink:href="#DejaVuSans-35" x="286.279297"/>
      </g>
     </g>
    </g>
   </g>
   <g id="line2d_82">
    <path d="M 73.832727 248.108462 
L 90.919809 248.108607 
L 108.00689 248.108851 
L 125.093971 248.109114 
L 142.181053 248.109352 
L 159.268134 248.109631 
L 176.355215 248.109925 
L 193.442297 248.110227 
L 210.529378 248.110565 
L 227.616459 248.110884 
L 244.703541 248.111163 
L 261.790622 248.111494 
L 278.877703 248.111798 
L 295.964785 248.112199 
L 313.051866 248.112569 
L 330.138947 248.11295 
L 347.226029 248.113389 
L 364.31311 248.113857 
L 381.400191 248.11425 
L 398.487273 248.114544 
" clip-path="url(#p2a966363b0)" style="fill: none; stroke: #1f77b4; stroke-width: 1.5; stroke-linecap: square"/>
   </g>
   <g id="line2d_83">
    <path d="M 73.832727 208.730483 
L 90.919809 220.469057 
L 108.00689 233.713869 
L 125.093971 243.477847 
L 142.181053 247.924366 
L 159.268134 248.656515 
L 176.355215 247.91448 
L 193.442297 247.137389 
L 210.529378 246.828499 
L 227.616459 246.922076 
L 244.703541 247.18177 
L 261.790622 247.429091 
L 278.877703 247.595332 
L 295.964785 247.684022 
L 313.051866 247.722887 
L 330.138947 247.737095 
L 347.226029 247.74254 
L 364.31311 247.748115 
L 381.400191 247.757771 
L 398.487273 247.768068 
" clip-path="url(#p2a966363b0)" style="fill: none; stroke: #ff7f0e; stroke-width: 1.5; stroke-linecap: square"/>
   </g>
   <g id="line2d_84">
    <path d="M 73.832727 247.719084 
L 90.919809 247.671482 
L 108.00689 247.606984 
L 125.093971 247.508637 
L 142.181053 247.357469 
L 159.268134 247.140916 
L 176.355215 246.857414 
L 193.442297 246.516789 
L 210.529378 246.137506 
L 227.616459 245.742537 
L 244.703541 245.355316 
L 261.790622 244.996663 
L 278.877703 244.682943 
L 295.964785 244.425337 
L 313.051866 244.229943 
L 330.138947 244.098395 
L 347.226029 244.028736 
L 364.31311 244.016356 
L 381.400191 244.054872 
L 398.487273 244.135542 
" clip-path="url(#p2a966363b0)" style="fill: none; stroke: #2ca02c; stroke-width: 1.5; stroke-linecap: square"/>
   </g>
   <g id="line2d_85">
    <path d="M 73.832727 247.753034 
L 90.919809 247.75115 
L 108.00689 247.749668 
L 125.093971 247.74865 
L 142.181053 247.747957 
L 159.268134 247.747421 
L 176.355215 247.746922 
L 193.442297 247.746402 
L 210.529378 247.74585 
L 227.616459 247.745268 
L 244.703541 247.744665 
L 261.790622 247.744039 
L 278.877703 247.743389 
L 295.964785 247.742705 
L 313.051866 247.741982 
L 330.138947 247.741209 
L 347.226029 247.740378 
L 364.31311 247.73948 
L 381.400191 247.738504 
L 398.487273 247.737453 
" clip-path="url(#p2a966363b0)" style="fill: none; stroke: #d62728; stroke-width: 1.5; stroke-linecap: square"/>
   </g>
   <g id="line2d_86">
    <path d="M 73.832727 247.743815 
L 90.919809 247.743681 
L 108.00689 247.744734 
L 125.093971 247.746263 
L 142.181053 247.747758 
L 159.268134 247.748979 
L 176.355215 247.74988 
L 193.442297 247.7505 
L 210.529378 247.750905 
L 227.616459 247.751161 
L 244.703541 247.751315 
L 261.790622 247.7514 
L 278.877703 247.751436 
L 295.964785 247.75144 
L 313.051866 247.75142 
L 330.138947 247.751381 
L 347.226029 247.751328 
L 364.31311 247.751265 
L 381.400191 247.7512 
L 398.487273 247.751166 
" clip-path="url(#p2a966363b0)" style="fill: none; stroke: #9467bd; stroke-width: 1.5; stroke-linecap: square"/>
   </g>
   <g id="line2d_87">
    <path d="M 73.832727 247.746677 
L 90.919809 247.746926 
L 108.00689 247.747741 
L 125.093971 247.748919 
L 142.181053 247.750199 
L 159.268134 247.751429 
L 176.355215 247.75251 
L 193.442297 247.753464 
L 210.529378 247.754269 
L 227.616459 247.754971 
L 244.703541 247.755577 
L 261.790622 247.756088 
L 278.877703 247.756554 
L 295.964785 247.756954 
L 313.051866 247.757292 
L 330.138947 247.757603 
L 347.226029 247.757871 
L 364.31311 247.758106 
L 381.400191 247.758286 
L 398.487273 247.758438 
" clip-path="url(#p2a966363b0)" style="fill: none; stroke: #8c564b; stroke-width: 1.5; stroke-linecap: square"/>
   </g>
   <g id="line2d_88">
    <path d="M 73.832727 247.748722 
L 90.919809 247.749056 
L 108.00689 247.749776 
L 125.093971 247.75079 
L 142.181053 247.751933 
L 159.268134 247.753079 
L 176.355215 247.754132 
L 193.442297 247.755085 
L 210.529378 247.75589 
L 227.616459 247.756617 
L 244.703541 247.757242 
L 261.790622 247.757899 
L 278.877703 247.75902 
L 295.964785 247.762654 
L 313.051866 247.777511 
L 330.138947 247.837208 
L 347.226029 248.05322 
L 364.31311 248.681245 
L 381.400191 249.931623 
L 398.487273 250.440828 
" clip-path="url(#p2a966363b0)" style="fill: none; stroke: #e377c2; stroke-width: 1.5; stroke-linecap: square"/>
   </g>
   <g id="line2d_89">
    <path d="M 73.832727 247.749037 
L 90.919809 247.749373 
L 108.00689 247.75003 
L 125.093971 247.750941 
L 142.181053 247.751992 
L 159.268134 247.753078 
L 176.355215 247.75412 
L 193.442297 247.75512 
L 210.529378 247.756135 
L 227.616459 247.757429 
L 244.703541 247.759716 
L 261.790622 247.764964 
L 278.877703 247.778249 
L 295.964785 247.811844 
L 313.051866 247.892186 
L 330.138947 248.067027 
L 347.226029 248.397453 
L 364.31311 248.903931 
L 381.400191 249.463866 
L 398.487273 249.815679 
" clip-path="url(#p2a966363b0)" style="fill: none; stroke: #7f7f7f; stroke-width: 1.5; stroke-linecap: square"/>
   </g>
   <g id="line2d_90">
    <path d="M 73.832727 248.193054 
L 90.919809 248.228478 
L 108.00689 248.268216 
L 125.093971 248.311426 
L 142.181053 248.358237 
L 159.268134 248.40887 
L 176.355215 248.463507 
L 193.442297 248.522388 
L 210.529378 248.585774 
L 227.616459 248.653953 
L 244.703541 248.727336 
L 261.790622 248.806425 
L 278.877703 248.891862 
L 295.964785 248.98452 
L 313.051866 249.085408 
L 330.138947 249.195396 
L 347.226029 249.314276 
L 364.31311 249.438457 
L 381.400191 249.55659 
L 398.487273 249.643068 
" clip-path="url(#p2a966363b0)" style="fill: none; stroke: #bcbd22; stroke-width: 1.5; stroke-linecap: square"/>
   </g>
   <g id="line2d_91">
    <path d="M 73.832727 248.753172 
L 90.919809 248.778642 
L 108.00689 248.811846 
L 125.093971 248.847874 
L 142.181053 248.885962 
L 159.268134 248.926214 
L 176.355215 248.968556 
L 193.442297 249.013306 
L 210.529378 249.060939 
L 227.616459 249.111728 
L 244.703541 249.166012 
L 261.790622 249.224608 
L 278.877703 249.288155 
L 295.964785 249.357633 
L 313.051866 249.43395 
L 330.138947 249.518049 
L 347.226029 249.609493 
L 364.31311 249.704907 
L 381.400191 249.793792 
L 398.487273 249.854506 
" clip-path="url(#p2a966363b0)" style="fill: none; stroke: #17becf; stroke-width: 1.5; stroke-linecap: square"/>
   </g>
   <g id="line2d_92">
    <path d="M 73.832727 248.786094 
L 90.919809 248.803894 
L 108.00689 248.832407 
L 125.093971 248.86665 
L 142.181053 248.904122 
L 159.268134 248.94406 
L 176.355215 248.986385 
L 193.442297 249.031142 
L 210.529378 249.078662 
L 227.616459 249.129293 
L 244.703541 249.183508 
L 261.790622 249.241816 
L 278.877703 249.305101 
L 295.964785 249.37401 
L 313.051866 249.449476 
L 330.138947 249.531963 
L 347.226029 249.620391 
L 364.31311 249.710678 
L 381.400191 249.792161 
L 398.487273 249.844978 
" clip-path="url(#p2a966363b0)" style="fill: none; stroke: #1f77b4; stroke-width: 1.5; stroke-linecap: square"/>
   </g>
   <g id="line2d_93">
    <path d="M 73.832727 248.799449 
L 90.919809 248.813676 
L 108.00689 248.838546 
L 125.093971 248.870357 
L 142.181053 248.906666 
L 159.268134 248.946081 
L 176.355215 248.988214 
L 193.442297 249.032959 
L 210.529378 249.080514 
L 227.616459 249.131146 
L 244.703541 249.185368 
L 261.790622 249.243692 
L 278.877703 249.306779 
L 295.964785 249.375299 
L 313.051866 249.449951 
L 330.138947 249.530773 
L 347.226029 249.616497 
L 364.31311 249.702482 
L 381.400191 249.778231 
L 398.487273 249.825855 
" clip-path="url(#p2a966363b0)" style="fill: none; stroke: #ff7f0e; stroke-width: 1.5; stroke-linecap: square"/>
   </g>
   <g id="line2d_94">
    <path d="M 73.832727 248.809499 
L 90.919809 248.822163 
L 108.00689 248.84492 
L 125.093971 248.874872 
L 142.181053 248.909833 
L 159.268134 248.948458 
L 176.355215 248.990139 
L 193.442297 249.034656 
L 210.529378 249.082101 
L 227.616459 249.132679 
L 244.703541 249.186821 
L 261.790622 249.24498 
L 278.877703 249.307738 
L 295.964785 249.375681 
L 313.051866 249.449287 
L 330.138947 249.528443 
L 347.226029 249.611597 
L 364.31311 249.693966 
L 381.400191 249.765379 
L 398.487273 249.809438 
" clip-path="url(#p2a966363b0)" style="fill: none; stroke: #2ca02c; stroke-width: 1.5; stroke-linecap: square"/>
   </g>
   <g id="patch_20">
    <path d="M 57.6 252.526345 
L 57.6 206.644966 
" style="fill: none; stroke: #000000; stroke-width: 0.8; stroke-linejoin: miter; stroke-linecap: square"/>
   </g>
   <g id="patch_21">
    <path d="M 414.72 252.526345 
L 414.72 206.644966 
" style="fill: none; stroke: #000000; stroke-width: 0.8; stroke-linejoin: miter; stroke-linecap: square"/>
   </g>
   <g id="patch_22">
    <path d="M 57.6 252.526345 
L 414.72 252.526345 
" style="fill: none; stroke: #000000; stroke-width: 0.8; stroke-linejoin: miter; stroke-linecap: square"/>
   </g>
   <g id="patch_23">
    <path d="M 57.6 206.644966 
L 414.72 206.644966 
" style="fill: none; stroke: #000000; stroke-width: 0.8; stroke-linejoin: miter; stroke-linecap: square"/>
   </g>
   <g id="text_16">
    <!-- yB - Container 1 -->
    <g transform="translate(187.469063 203.644966)scale(0.12 -0.12)">
     <defs>
      <path id="DejaVuSans-42" d="M 1259 2228 
L 1259 519 
L 2272 519 
Q 2781 519 3026 730 
Q 3272 941 3272 1375 
Q 3272 1813 3026 2020 
Q 2781 2228 2272 2228 
L 1259 2228 
z
M 1259 4147 
L 1259 2741 
L 2194 2741 
Q 2656 2741 2882 2914 
Q 3109 3088 3109 3444 
Q 3109 3797 2882 3972 
Q 2656 4147 2194 4147 
L 1259 4147 
z
M 628 4666 
L 2241 4666 
Q 2963 4666 3353 4366 
Q 3744 4066 3744 3513 
Q 3744 3084 3544 2831 
Q 3344 2578 2956 2516 
Q 3422 2416 3680 2098 
Q 3938 1781 3938 1306 
Q 3938 681 3513 340 
Q 3088 0 2303 0 
L 628 0 
L 628 4666 
z
" transform="scale(0.015625)"/>
     </defs>
     <use xlink:href="#DejaVuSans-79"/>
     <use xlink:href="#DejaVuSans-42" x="59.179688"/>
     <use xlink:href="#DejaVuSans-20" x="127.783203"/>
     <use xlink:href="#DejaVuSans-2d" x="159.570312"/>
     <use xlink:href="#DejaVuSans-20" x="195.654297"/>
     <use xlink:href="#DejaVuSans-43" x="227.441406"/>
     <use xlink:href="#DejaVuSans-6f" x="297.265625"/>
     <use xlink:href="#DejaVuSans-6e" x="358.447266"/>
     <use xlink:href="#DejaVuSans-74" x="421.826172"/>
     <use xlink:href="#DejaVuSans-61" x="461.035156"/>
     <use xlink:href="#DejaVuSans-69" x="522.314453"/>
     <use xlink:href="#DejaVuSans-6e" x="550.097656"/>
     <use xlink:href="#DejaVuSans-65" x="613.476562"/>
     <use xlink:href="#DejaVuSans-72" x="675"/>
     <use xlink:href="#DejaVuSans-20" x="716.113281"/>
     <use xlink:href="#DejaVuSans-31" x="747.900391"/>
    </g>
   </g>
  </g>
  <g id="axes_6">
   <g id="patch_24">
    <path d="M 57.6 307.584 
L 414.72 307.584 
L 414.72 261.702621 
L 57.6 261.702621 
z
" style="fill: #ffffff"/>
   </g>
   <g id="matplotlib.axis_11">
    <g id="xtick_33">
     <g id="line2d_95">
      <g>
       <use xlink:href="#m8b1f42f223" x="73.832727" y="307.584" style="stroke: #000000; stroke-width: 0.8"/>
      </g>
     </g>
     <g id="text_17">
      <!-- 0.0 -->
      <g transform="translate(65.881165 322.182437)scale(0.1 -0.1)">
       <use xlink:href="#DejaVuSans-30"/>
       <use xlink:href="#DejaVuSans-2e" x="63.623047"/>
       <use xlink:href="#DejaVuSans-30" x="95.410156"/>
      </g>
     </g>
    </g>
    <g id="xtick_34">
     <g id="line2d_96">
      <g>
       <use xlink:href="#m8b1f42f223" x="116.550431" y="307.584" style="stroke: #000000; stroke-width: 0.8"/>
      </g>
     </g>
     <g id="text_18">
      <!-- 2.5 -->
      <g transform="translate(108.598868 322.182437)scale(0.1 -0.1)">
       <defs>
        <path id="DejaVuSans-32" d="M 1228 531 
L 3431 531 
L 3431 0 
L 469 0 
L 469 531 
Q 828 903 1448 1529 
Q 2069 2156 2228 2338 
Q 2531 2678 2651 2914 
Q 2772 3150 2772 3378 
Q 2772 3750 2511 3984 
Q 2250 4219 1831 4219 
Q 1534 4219 1204 4116 
Q 875 4013 500 3803 
L 500 4441 
Q 881 4594 1212 4672 
Q 1544 4750 1819 4750 
Q 2544 4750 2975 4387 
Q 3406 4025 3406 3419 
Q 3406 3131 3298 2873 
Q 3191 2616 2906 2266 
Q 2828 2175 2409 1742 
Q 1991 1309 1228 531 
z
" transform="scale(0.015625)"/>
       </defs>
       <use xlink:href="#DejaVuSans-32"/>
       <use xlink:href="#DejaVuSans-2e" x="63.623047"/>
       <use xlink:href="#DejaVuSans-35" x="95.410156"/>
      </g>
     </g>
    </g>
    <g id="xtick_35">
     <g id="line2d_97">
      <g>
       <use xlink:href="#m8b1f42f223" x="159.268134" y="307.584" style="stroke: #000000; stroke-width: 0.8"/>
      </g>
     </g>
     <g id="text_19">
      <!-- 5.0 -->
      <g transform="translate(151.316571 322.182437)scale(0.1 -0.1)">
       <use xlink:href="#DejaVuSans-35"/>
       <use xlink:href="#DejaVuSans-2e" x="63.623047"/>
       <use xlink:href="#DejaVuSans-30" x="95.410156"/>
      </g>
     </g>
    </g>
    <g id="xtick_36">
     <g id="line2d_98">
      <g>
       <use xlink:href="#m8b1f42f223" x="201.985837" y="307.584" style="stroke: #000000; stroke-width: 0.8"/>
      </g>
     </g>
     <g id="text_20">
      <!-- 7.5 -->
      <g transform="translate(194.034275 322.182437)scale(0.1 -0.1)">
       <use xlink:href="#DejaVuSans-37"/>
       <use xlink:href="#DejaVuSans-2e" x="63.623047"/>
       <use xlink:href="#DejaVuSans-35" x="95.410156"/>
      </g>
     </g>
    </g>
    <g id="xtick_37">
     <g id="line2d_99">
      <g>
       <use xlink:href="#m8b1f42f223" x="244.703541" y="307.584" style="stroke: #000000; stroke-width: 0.8"/>
      </g>
     </g>
     <g id="text_21">
      <!-- 10.0 -->
      <g transform="translate(233.570728 322.182437)scale(0.1 -0.1)">
       <use xlink:href="#DejaVuSans-31"/>
       <use xlink:href="#DejaVuSans-30" x="63.623047"/>
       <use xlink:href="#DejaVuSans-2e" x="127.246094"/>
       <use xlink:href="#DejaVuSans-30" x="159.033203"/>
      </g>
     </g>
    </g>
    <g id="xtick_38">
     <g id="line2d_100">
      <g>
       <use xlink:href="#m8b1f42f223" x="287.421244" y="307.584" style="stroke: #000000; stroke-width: 0.8"/>
      </g>
     </g>
     <g id="text_22">
      <!-- 12.5 -->
      <g transform="translate(276.288432 322.182437)scale(0.1 -0.1)">
       <use xlink:href="#DejaVuSans-31"/>
       <use xlink:href="#DejaVuSans-32" x="63.623047"/>
       <use xlink:href="#DejaVuSans-2e" x="127.246094"/>
       <use xlink:href="#DejaVuSans-35" x="159.033203"/>
      </g>
     </g>
    </g>
    <g id="xtick_39">
     <g id="line2d_101">
      <g>
       <use xlink:href="#m8b1f42f223" x="330.138947" y="307.584" style="stroke: #000000; stroke-width: 0.8"/>
      </g>
     </g>
     <g id="text_23">
      <!-- 15.0 -->
      <g transform="translate(319.006135 322.182437)scale(0.1 -0.1)">
       <use xlink:href="#DejaVuSans-31"/>
       <use xlink:href="#DejaVuSans-35" x="63.623047"/>
       <use xlink:href="#DejaVuSans-2e" x="127.246094"/>
       <use xlink:href="#DejaVuSans-30" x="159.033203"/>
      </g>
     </g>
    </g>
    <g id="xtick_40">
     <g id="line2d_102">
      <g>
       <use xlink:href="#m8b1f42f223" x="372.856651" y="307.584" style="stroke: #000000; stroke-width: 0.8"/>
      </g>
     </g>
     <g id="text_24">
      <!-- 17.5 -->
      <g transform="translate(361.723838 322.182437)scale(0.1 -0.1)">
       <use xlink:href="#DejaVuSans-31"/>
       <use xlink:href="#DejaVuSans-37" x="63.623047"/>
       <use xlink:href="#DejaVuSans-2e" x="127.246094"/>
       <use xlink:href="#DejaVuSans-35" x="159.033203"/>
      </g>
     </g>
    </g>
    <g id="text_25">
     <!-- position z -->
     <g transform="translate(212.142031 335.860562)scale(0.1 -0.1)">
      <defs>
       <path id="DejaVuSans-70" d="M 1159 525 
L 1159 -1331 
L 581 -1331 
L 581 3500 
L 1159 3500 
L 1159 2969 
Q 1341 3281 1617 3432 
Q 1894 3584 2278 3584 
Q 2916 3584 3314 3078 
Q 3713 2572 3713 1747 
Q 3713 922 3314 415 
Q 2916 -91 2278 -91 
Q 1894 -91 1617 61 
Q 1341 213 1159 525 
z
M 3116 1747 
Q 3116 2381 2855 2742 
Q 2594 3103 2138 3103 
Q 1681 3103 1420 2742 
Q 1159 2381 1159 1747 
Q 1159 1113 1420 752 
Q 1681 391 2138 391 
Q 2594 391 2855 752 
Q 3116 1113 3116 1747 
z
" transform="scale(0.015625)"/>
      </defs>
      <use xlink:href="#DejaVuSans-70"/>
      <use xlink:href="#DejaVuSans-6f" x="63.476562"/>
      <use xlink:href="#DejaVuSans-73" x="124.658203"/>
      <use xlink:href="#DejaVuSans-69" x="176.757812"/>
      <use xlink:href="#DejaVuSans-74" x="204.541016"/>
      <use xlink:href="#DejaVuSans-69" x="243.75"/>
      <use xlink:href="#DejaVuSans-6f" x="271.533203"/>
      <use xlink:href="#DejaVuSans-6e" x="332.714844"/>
      <use xlink:href="#DejaVuSans-20" x="396.09375"/>
      <use xlink:href="#DejaVuSans-7a" x="427.880859"/>
     </g>
    </g>
   </g>
   <g id="matplotlib.axis_12">
    <g id="ytick_11">
     <g id="line2d_103">
      <g>
       <use xlink:href="#m6297b194d4" x="57.6" y="302.197982" style="stroke: #000000; stroke-width: 0.8"/>
      </g>
     </g>
     <g id="text_26">
      <!-- 0.04995 -->
      <g transform="translate(9.246875 305.997201)scale(0.1 -0.1)">
       <use xlink:href="#DejaVuSans-30"/>
       <use xlink:href="#DejaVuSans-2e" x="63.623047"/>
       <use xlink:href="#DejaVuSans-30" x="95.410156"/>
       <use xlink:href="#DejaVuSans-34" x="159.033203"/>
       <use xlink:href="#DejaVuSans-39" x="222.65625"/>
       <use xlink:href="#DejaVuSans-39" x="286.279297"/>
       <use xlink:href="#DejaVuSans-35" x="349.902344"/>
      </g>
     </g>
    </g>
    <g id="ytick_12">
     <g id="line2d_104">
      <g>
       <use xlink:href="#m6297b194d4" x="57.6" y="275.141881" style="stroke: #000000; stroke-width: 0.8"/>
      </g>
     </g>
     <g id="text_27">
      <!-- 0.05000 -->
      <g transform="translate(9.246875 278.9411)scale(0.1 -0.1)">
       <use xlink:href="#DejaVuSans-30"/>
       <use xlink:href="#DejaVuSans-2e" x="63.623047"/>
       <use xlink:href="#DejaVuSans-30" x="95.410156"/>
       <use xlink:href="#DejaVuSans-35" x="159.033203"/>
       <use xlink:href="#DejaVuSans-30" x="222.65625"/>
       <use xlink:href="#DejaVuSans-30" x="286.279297"/>
       <use xlink:href="#DejaVuSans-30" x="349.902344"/>
      </g>
     </g>
    </g>
   </g>
   <g id="line2d_105">
    <path d="M 73.832727 274.74798 
L 90.919809 274.747936 
L 108.00689 274.747837 
L 125.093971 274.747665 
L 142.181053 274.747427 
L 159.268134 274.747223 
L 176.355215 274.746989 
L 193.442297 274.746781 
L 210.529378 274.746654 
L 227.616459 274.746555 
L 244.703541 274.746437 
L 261.790622 274.74641 
L 278.877703 274.746376 
L 295.964785 274.746446 
L 313.051866 274.746549 
L 330.138947 274.746677 
L 347.226029 274.746957 
L 364.31311 274.74726 
L 381.400191 274.747529 
L 398.487273 274.747742 
" clip-path="url(#pf01bd63ff1)" style="fill: none; stroke: #1f77b4; stroke-width: 1.5; stroke-linecap: square"/>
   </g>
   <g id="line2d_106">
    <path d="M 73.832727 305.498483 
L 90.919809 297.270473 
L 108.00689 286.763731 
L 125.093971 278.575268 
L 142.181053 274.756171 
L 159.268134 274.201901 
L 176.355215 275.0018 
L 193.442297 275.821413 
L 210.529378 276.157125 
L 227.616459 276.063809 
L 244.703541 275.783999 
L 261.790622 275.510578 
L 278.877703 275.322834 
L 295.964785 275.220603 
L 313.051866 275.174893 
L 330.138947 275.157884 
L 347.226029 275.151278 
L 364.31311 275.144303 
L 381.400191 275.132035 
L 398.487273 275.119175 
" clip-path="url(#pf01bd63ff1)" style="fill: none; stroke: #ff7f0e; stroke-width: 1.5; stroke-linecap: square"/>
   </g>
   <g id="line2d_107">
    <path d="M 73.832727 275.11696 
L 90.919809 275.099741 
L 108.00689 275.110601 
L 125.093971 275.166372 
L 142.181053 275.279822 
L 159.268134 275.457582 
L 176.355215 275.698441 
L 193.442297 275.993181 
L 210.529378 276.326126 
L 227.616459 276.677817 
L 244.703541 277.027996 
L 261.790622 277.35815 
L 278.877703 277.653229 
L 295.964785 277.902456 
L 313.051866 278.099402 
L 330.138947 278.241552 
L 347.226029 278.329615 
L 364.31311 278.366744 
L 381.400191 278.3578 
L 398.487273 278.309704 
" clip-path="url(#pf01bd63ff1)" style="fill: none; stroke: #2ca02c; stroke-width: 1.5; stroke-linecap: square"/>
   </g>
   <g id="line2d_108">
    <path d="M 73.832727 275.140416 
L 90.919809 275.138868 
L 108.00689 275.137656 
L 125.093971 275.136823 
L 142.181053 275.136256 
L 159.268134 275.135814 
L 176.355215 275.135403 
L 193.442297 275.134977 
L 210.529378 275.134526 
L 227.616459 275.134057 
L 244.703541 275.133576 
L 261.790622 275.133088 
L 278.877703 275.132595 
L 295.964785 275.132097 
L 313.051866 275.131596 
L 330.138947 275.131097 
L 347.226029 275.130604 
L 364.31311 275.130126 
L 381.400191 275.129669 
L 398.487273 275.129249 
" clip-path="url(#pf01bd63ff1)" style="fill: none; stroke: #d62728; stroke-width: 1.5; stroke-linecap: square"/>
   </g>
   <g id="line2d_109">
    <path d="M 73.832727 275.132899 
L 90.919809 275.132769 
L 108.00689 275.13362 
L 125.093971 275.134855 
L 142.181053 275.136054 
L 159.268134 275.137031 
L 176.355215 275.137745 
L 193.442297 275.138232 
L 210.529378 275.138549 
L 227.616459 275.138746 
L 244.703541 275.138862 
L 261.790622 275.138924 
L 278.877703 275.138947 
L 295.964785 275.138943 
L 313.051866 275.138921 
L 330.138947 275.138884 
L 347.226029 275.138837 
L 364.31311 275.138782 
L 381.400191 275.138722 
L 398.487273 275.138668 
" clip-path="url(#pf01bd63ff1)" style="fill: none; stroke: #9467bd; stroke-width: 1.5; stroke-linecap: square"/>
   </g>
   <g id="line2d_110">
    <path d="M 73.832727 275.129286 
L 90.919809 275.129468 
L 108.00689 275.130131 
L 125.093971 275.131097 
L 142.181053 275.132144 
L 159.268134 275.133136 
L 176.355215 275.134004 
L 193.442297 275.13475 
L 210.529378 275.135374 
L 227.616459 275.135905 
L 244.703541 275.136356 
L 261.790622 275.136735 
L 278.877703 275.137067 
L 295.964785 275.137349 
L 313.051866 275.137583 
L 330.138947 275.13779 
L 347.226029 275.137961 
L 364.31311 275.138109 
L 381.400191 275.138225 
L 398.487273 275.138326 
" clip-path="url(#pf01bd63ff1)" style="fill: none; stroke: #8c564b; stroke-width: 1.5; stroke-linecap: square"/>
   </g>
   <g id="line2d_111">
    <path d="M 73.832727 275.128787 
L 90.919809 275.12906 
L 108.00689 275.129656 
L 125.093971 275.130505 
L 142.181053 275.131458 
L 159.268134 275.132404 
L 176.355215 275.133255 
L 193.442297 275.134014 
L 210.529378 275.134633 
L 227.616459 275.13518 
L 244.703541 275.135514 
L 261.790622 275.135407 
L 278.877703 275.132782 
L 295.964785 275.119248 
L 313.051866 275.054396 
L 330.138947 274.791129 
L 347.226029 273.821246 
L 364.31311 271.038478 
L 381.400191 265.499566 
L 398.487273 263.788138 
" clip-path="url(#pf01bd63ff1)" style="fill: none; stroke: #e377c2; stroke-width: 1.5; stroke-linecap: square"/>
   </g>
   <g id="line2d_112">
    <path d="M 73.832727 275.128943 
L 90.919809 275.129223 
L 108.00689 275.129776 
L 125.093971 275.130541 
L 142.181053 275.131411 
L 159.268134 275.132274 
L 176.355215 275.133012 
L 193.442297 275.133468 
L 210.529378 275.133233 
L 227.616459 275.131176 
L 244.703541 275.124025 
L 261.790622 275.102797 
L 278.877703 275.044034 
L 295.964785 274.891324 
L 313.051866 274.524264 
L 330.138947 273.731887 
L 347.226029 272.264855 
L 364.31311 270.104966 
L 381.400191 267.894904 
L 398.487273 266.661402 
" clip-path="url(#pf01bd63ff1)" style="fill: none; stroke: #7f7f7f; stroke-width: 1.5; stroke-linecap: square"/>
   </g>
   <g id="line2d_113">
    <path d="M 73.832727 273.493691 
L 90.919809 273.326316 
L 108.00689 273.138108 
L 125.093971 272.932965 
L 142.181053 272.710167 
L 159.268134 272.468921 
L 176.355215 272.208508 
L 193.442297 271.928347 
L 210.529378 271.628016 
L 227.616459 271.307304 
L 244.703541 270.966309 
L 261.790622 270.605543 
L 278.877703 270.226154 
L 295.964785 269.83038 
L 313.051866 269.422366 
L 330.138947 269.009703 
L 347.226029 268.605835 
L 364.31311 268.232746 
L 381.400191 267.921887 
L 398.487273 267.713845 
" clip-path="url(#pf01bd63ff1)" style="fill: none; stroke: #bcbd22; stroke-width: 1.5; stroke-linecap: square"/>
   </g>
   <g id="line2d_114">
    <path d="M 73.832727 271.873523 
L 90.919809 271.741774 
L 108.00689 271.570276 
L 125.093971 271.383426 
L 142.181053 271.185559 
L 159.268134 270.977015 
L 176.355215 270.757565 
L 193.442297 270.526835 
L 210.529378 270.284511 
L 227.616459 270.030515 
L 244.703541 269.765024 
L 261.790622 269.488496 
L 278.877703 269.202122 
L 295.964785 268.908195 
L 313.051866 268.610898 
L 330.138947 268.317364 
L 347.226029 268.039267 
L 364.31311 267.793857 
L 381.400191 267.603941 
L 398.487273 267.49591 
" clip-path="url(#pf01bd63ff1)" style="fill: none; stroke: #17becf; stroke-width: 1.5; stroke-linecap: square"/>
   </g>
   <g id="line2d_115">
    <path d="M 73.832727 271.754462 
L 90.919809 271.660987 
L 108.00689 271.510676 
L 125.093971 271.331065 
L 142.181053 271.134999 
L 159.268134 270.926659 
L 176.355215 270.706935 
L 193.442297 270.47601 
L 210.529378 270.233642 
L 227.616459 269.979915 
L 244.703541 269.714989 
L 261.790622 269.439782 
L 278.877703 269.155552 
L 295.964785 268.865533 
L 313.051866 268.574827 
L 330.138947 268.292046 
L 347.226029 268.030652 
L 364.31311 267.808787 
L 381.400191 267.647386 
L 398.487273 267.563822 
" clip-path="url(#pf01bd63ff1)" style="fill: none; stroke: #1f77b4; stroke-width: 1.5; stroke-linecap: square"/>
   </g>
   <g id="line2d_116">
    <path d="M 73.832727 271.689344 
L 90.919809 271.614555 
L 108.00689 271.482514 
L 125.093971 271.313833 
L 142.181053 271.122514 
L 159.268134 270.915778 
L 176.355215 270.696443 
L 193.442297 270.465387 
L 210.529378 270.222899 
L 227.616459 269.969154 
L 244.703541 269.704583 
L 261.790622 269.43015 
L 278.877703 269.147974 
L 295.964785 268.861667 
L 313.051866 268.577473 
L 330.138947 268.305278 
L 347.226029 268.05909 
L 364.31311 267.856567 
L 381.400191 267.715021 
L 398.487273 267.644654 
" clip-path="url(#pf01bd63ff1)" style="fill: none; stroke: #ff7f0e; stroke-width: 1.5; stroke-linecap: square"/>
   </g>
   <g id="line2d_117">
    <path d="M 73.832727 271.638649 
L 90.919809 271.572067 
L 108.00689 271.45118 
L 125.093971 271.291898 
L 142.181053 271.106728 
L 159.268134 270.903303 
L 176.355215 270.685519 
L 193.442297 270.455128 
L 210.529378 270.212976 
L 227.616459 269.959615 
L 244.703541 269.695839 
L 261.790622 269.423019 
L 278.877703 269.143742 
L 295.964785 268.862299 
L 313.051866 268.585656 
L 330.138947 268.324143 
L 347.226029 268.091581 
L 364.31311 267.903931 
L 381.400191 267.775235 
L 398.487273 267.712026 
" clip-path="url(#pf01bd63ff1)" style="fill: none; stroke: #2ca02c; stroke-width: 1.5; stroke-linecap: square"/>
   </g>
   <g id="patch_25">
    <path d="M 57.6 307.584 
L 57.6 261.702621 
" style="fill: none; stroke: #000000; stroke-width: 0.8; stroke-linejoin: miter; stroke-linecap: square"/>
   </g>
   <g id="patch_26">
    <path d="M 414.72 307.584 
L 414.72 261.702621 
" style="fill: none; stroke: #000000; stroke-width: 0.8; stroke-linejoin: miter; stroke-linecap: square"/>
   </g>
   <g id="patch_27">
    <path d="M 57.6 307.584 
L 414.72 307.584 
" style="fill: none; stroke: #000000; stroke-width: 0.8; stroke-linejoin: miter; stroke-linecap: square"/>
   </g>
   <g id="patch_28">
    <path d="M 57.6 261.702621 
L 414.72 261.702621 
" style="fill: none; stroke: #000000; stroke-width: 0.8; stroke-linejoin: miter; stroke-linecap: square"/>
   </g>
   <g id="text_28">
    <!-- yC - Container 1 -->
    <g transform="translate(187.395938 258.702621)scale(0.12 -0.12)">
     <use xlink:href="#DejaVuSans-79"/>
     <use xlink:href="#DejaVuSans-43" x="59.179688"/>
     <use xlink:href="#DejaVuSans-20" x="129.003906"/>
     <use xlink:href="#DejaVuSans-2d" x="160.791016"/>
     <use xlink:href="#DejaVuSans-20" x="196.875"/>
     <use xlink:href="#DejaVuSans-43" x="228.662109"/>
     <use xlink:href="#DejaVuSans-6f" x="298.486328"/>
     <use xlink:href="#DejaVuSans-6e" x="359.667969"/>
     <use xlink:href="#DejaVuSans-74" x="423.046875"/>
     <use xlink:href="#DejaVuSans-61" x="462.255859"/>
     <use xlink:href="#DejaVuSans-69" x="523.535156"/>
     <use xlink:href="#DejaVuSans-6e" x="551.318359"/>
     <use xlink:href="#DejaVuSans-65" x="614.697266"/>
     <use xlink:href="#DejaVuSans-72" x="676.220703"/>
     <use xlink:href="#DejaVuSans-20" x="717.333984"/>
     <use xlink:href="#DejaVuSans-31" x="749.121094"/>
    </g>
   </g>
  </g>
  <g id="legend_1">
   <g id="patch_29">
    <path d="M 372.146875 269.707812 
L 457.8 269.707812 
Q 459.8 269.707812 459.8 267.707812 
L 459.8 77.892187 
Q 459.8 75.892187 457.8 75.892187 
L 372.146875 75.892187 
Q 370.146875 75.892187 370.146875 77.892187 
L 370.146875 267.707812 
Q 370.146875 269.707812 372.146875 269.707812 
z
" style="fill: #ffffff; opacity: 0.8; stroke: #cccccc; stroke-linejoin: miter"/>
   </g>
   <g id="line2d_118">
    <path d="M 374.146875 83.990625 
L 384.146875 83.990625 
L 394.146875 83.990625 
" style="fill: none; stroke: #1f77b4; stroke-width: 1.5; stroke-linecap: square"/>
   </g>
   <g id="text_29">
    <!-- t=0.0000 -->
    <g transform="translate(402.146875 87.490625)scale(0.1 -0.1)">
     <defs>
      <path id="DejaVuSans-3d" d="M 678 2906 
L 4684 2906 
L 4684 2381 
L 678 2381 
L 678 2906 
z
M 678 1631 
L 4684 1631 
L 4684 1100 
L 678 1100 
L 678 1631 
z
" transform="scale(0.015625)"/>
     </defs>
     <use xlink:href="#DejaVuSans-74"/>
     <use xlink:href="#DejaVuSans-3d" x="39.208984"/>
     <use xlink:href="#DejaVuSans-30" x="122.998047"/>
     <use xlink:href="#DejaVuSans-2e" x="186.621094"/>
     <use xlink:href="#DejaVuSans-30" x="218.408203"/>
     <use xlink:href="#DejaVuSans-30" x="282.03125"/>
     <use xlink:href="#DejaVuSans-30" x="345.654297"/>
     <use xlink:href="#DejaVuSans-30" x="409.277344"/>
    </g>
   </g>
   <g id="line2d_119">
    <path d="M 374.146875 98.66875 
L 384.146875 98.66875 
L 394.146875 98.66875 
" style="fill: none; stroke: #ff7f0e; stroke-width: 1.5; stroke-linecap: square"/>
   </g>
   <g id="text_30">
    <!-- t=8.0000 -->
    <g transform="translate(402.146875 102.16875)scale(0.1 -0.1)">
     <defs>
      <path id="DejaVuSans-38" d="M 2034 2216 
Q 1584 2216 1326 1975 
Q 1069 1734 1069 1313 
Q 1069 891 1326 650 
Q 1584 409 2034 409 
Q 2484 409 2743 651 
Q 3003 894 3003 1313 
Q 3003 1734 2745 1975 
Q 2488 2216 2034 2216 
z
M 1403 2484 
Q 997 2584 770 2862 
Q 544 3141 544 3541 
Q 544 4100 942 4425 
Q 1341 4750 2034 4750 
Q 2731 4750 3128 4425 
Q 3525 4100 3525 3541 
Q 3525 3141 3298 2862 
Q 3072 2584 2669 2484 
Q 3125 2378 3379 2068 
Q 3634 1759 3634 1313 
Q 3634 634 3220 271 
Q 2806 -91 2034 -91 
Q 1263 -91 848 271 
Q 434 634 434 1313 
Q 434 1759 690 2068 
Q 947 2378 1403 2484 
z
M 1172 3481 
Q 1172 3119 1398 2916 
Q 1625 2713 2034 2713 
Q 2441 2713 2670 2916 
Q 2900 3119 2900 3481 
Q 2900 3844 2670 4047 
Q 2441 4250 2034 4250 
Q 1625 4250 1398 4047 
Q 1172 3844 1172 3481 
z
" transform="scale(0.015625)"/>
     </defs>
     <use xlink:href="#DejaVuSans-74"/>
     <use xlink:href="#DejaVuSans-3d" x="39.208984"/>
     <use xlink:href="#DejaVuSans-38" x="122.998047"/>
     <use xlink:href="#DejaVuSans-2e" x="186.621094"/>
     <use xlink:href="#DejaVuSans-30" x="218.408203"/>
     <use xlink:href="#DejaVuSans-30" x="282.03125"/>
     <use xlink:href="#DejaVuSans-30" x="345.654297"/>
     <use xlink:href="#DejaVuSans-30" x="409.277344"/>
    </g>
   </g>
   <g id="line2d_120">
    <path d="M 374.146875 113.346875 
L 384.146875 113.346875 
L 394.146875 113.346875 
" style="fill: none; stroke: #2ca02c; stroke-width: 1.5; stroke-linecap: square"/>
   </g>
   <g id="text_31">
    <!-- t=16.0000 -->
    <g transform="translate(402.146875 116.846875)scale(0.1 -0.1)">
     <defs>
      <path id="DejaVuSans-36" d="M 2113 2584 
Q 1688 2584 1439 2293 
Q 1191 2003 1191 1497 
Q 1191 994 1439 701 
Q 1688 409 2113 409 
Q 2538 409 2786 701 
Q 3034 994 3034 1497 
Q 3034 2003 2786 2293 
Q 2538 2584 2113 2584 
z
M 3366 4563 
L 3366 3988 
Q 3128 4100 2886 4159 
Q 2644 4219 2406 4219 
Q 1781 4219 1451 3797 
Q 1122 3375 1075 2522 
Q 1259 2794 1537 2939 
Q 1816 3084 2150 3084 
Q 2853 3084 3261 2657 
Q 3669 2231 3669 1497 
Q 3669 778 3244 343 
Q 2819 -91 2113 -91 
Q 1303 -91 875 529 
Q 447 1150 447 2328 
Q 447 3434 972 4092 
Q 1497 4750 2381 4750 
Q 2619 4750 2861 4703 
Q 3103 4656 3366 4563 
z
" transform="scale(0.015625)"/>
     </defs>
     <use xlink:href="#DejaVuSans-74"/>
     <use xlink:href="#DejaVuSans-3d" x="39.208984"/>
     <use xlink:href="#DejaVuSans-31" x="122.998047"/>
     <use xlink:href="#DejaVuSans-36" x="186.621094"/>
     <use xlink:href="#DejaVuSans-2e" x="250.244141"/>
     <use xlink:href="#DejaVuSans-30" x="282.03125"/>
     <use xlink:href="#DejaVuSans-30" x="345.654297"/>
     <use xlink:href="#DejaVuSans-30" x="409.277344"/>
     <use xlink:href="#DejaVuSans-30" x="472.900391"/>
    </g>
   </g>
   <g id="line2d_121">
    <path d="M 374.146875 128.025 
L 384.146875 128.025 
L 394.146875 128.025 
" style="fill: none; stroke: #d62728; stroke-width: 1.5; stroke-linecap: square"/>
   </g>
   <g id="text_32">
    <!-- t=24.0000 -->
    <g transform="translate(402.146875 131.525)scale(0.1 -0.1)">
     <use xlink:href="#DejaVuSans-74"/>
     <use xlink:href="#DejaVuSans-3d" x="39.208984"/>
     <use xlink:href="#DejaVuSans-32" x="122.998047"/>
     <use xlink:href="#DejaVuSans-34" x="186.621094"/>
     <use xlink:href="#DejaVuSans-2e" x="250.244141"/>
     <use xlink:href="#DejaVuSans-30" x="282.03125"/>
     <use xlink:href="#DejaVuSans-30" x="345.654297"/>
     <use xlink:href="#DejaVuSans-30" x="409.277344"/>
     <use xlink:href="#DejaVuSans-30" x="472.900391"/>
    </g>
   </g>
   <g id="line2d_122">
    <path d="M 374.146875 142.703125 
L 384.146875 142.703125 
L 394.146875 142.703125 
" style="fill: none; stroke: #9467bd; stroke-width: 1.5; stroke-linecap: square"/>
   </g>
   <g id="text_33">
    <!-- t=32.0000 -->
    <g transform="translate(402.146875 146.203125)scale(0.1 -0.1)">
     <defs>
      <path id="DejaVuSans-33" d="M 2597 2516 
Q 3050 2419 3304 2112 
Q 3559 1806 3559 1356 
Q 3559 666 3084 287 
Q 2609 -91 1734 -91 
Q 1441 -91 1130 -33 
Q 819 25 488 141 
L 488 750 
Q 750 597 1062 519 
Q 1375 441 1716 441 
Q 2309 441 2620 675 
Q 2931 909 2931 1356 
Q 2931 1769 2642 2001 
Q 2353 2234 1838 2234 
L 1294 2234 
L 1294 2753 
L 1863 2753 
Q 2328 2753 2575 2939 
Q 2822 3125 2822 3475 
Q 2822 3834 2567 4026 
Q 2313 4219 1838 4219 
Q 1578 4219 1281 4162 
Q 984 4106 628 3988 
L 628 4550 
Q 988 4650 1302 4700 
Q 1616 4750 1894 4750 
Q 2613 4750 3031 4423 
Q 3450 4097 3450 3541 
Q 3450 3153 3228 2886 
Q 3006 2619 2597 2516 
z
" transform="scale(0.015625)"/>
     </defs>
     <use xlink:href="#DejaVuSans-74"/>
     <use xlink:href="#DejaVuSans-3d" x="39.208984"/>
     <use xlink:href="#DejaVuSans-33" x="122.998047"/>
     <use xlink:href="#DejaVuSans-32" x="186.621094"/>
     <use xlink:href="#DejaVuSans-2e" x="250.244141"/>
     <use xlink:href="#DejaVuSans-30" x="282.03125"/>
     <use xlink:href="#DejaVuSans-30" x="345.654297"/>
     <use xlink:href="#DejaVuSans-30" x="409.277344"/>
     <use xlink:href="#DejaVuSans-30" x="472.900391"/>
    </g>
   </g>
   <g id="line2d_123">
    <path d="M 374.146875 157.38125 
L 384.146875 157.38125 
L 394.146875 157.38125 
" style="fill: none; stroke: #8c564b; stroke-width: 1.5; stroke-linecap: square"/>
   </g>
   <g id="text_34">
    <!-- t=40.0000 -->
    <g transform="translate(402.146875 160.88125)scale(0.1 -0.1)">
     <use xlink:href="#DejaVuSans-74"/>
     <use xlink:href="#DejaVuSans-3d" x="39.208984"/>
     <use xlink:href="#DejaVuSans-34" x="122.998047"/>
     <use xlink:href="#DejaVuSans-30" x="186.621094"/>
     <use xlink:href="#DejaVuSans-2e" x="250.244141"/>
     <use xlink:href="#DejaVuSans-30" x="282.03125"/>
     <use xlink:href="#DejaVuSans-30" x="345.654297"/>
     <use xlink:href="#DejaVuSans-30" x="409.277344"/>
     <use xlink:href="#DejaVuSans-30" x="472.900391"/>
    </g>
   </g>
   <g id="line2d_124">
    <path d="M 374.146875 172.059375 
L 384.146875 172.059375 
L 394.146875 172.059375 
" style="fill: none; stroke: #e377c2; stroke-width: 1.5; stroke-linecap: square"/>
   </g>
   <g id="text_35">
    <!-- t=48.0000 -->
    <g transform="translate(402.146875 175.559375)scale(0.1 -0.1)">
     <use xlink:href="#DejaVuSans-74"/>
     <use xlink:href="#DejaVuSans-3d" x="39.208984"/>
     <use xlink:href="#DejaVuSans-34" x="122.998047"/>
     <use xlink:href="#DejaVuSans-38" x="186.621094"/>
     <use xlink:href="#DejaVuSans-2e" x="250.244141"/>
     <use xlink:href="#DejaVuSans-30" x="282.03125"/>
     <use xlink:href="#DejaVuSans-30" x="345.654297"/>
     <use xlink:href="#DejaVuSans-30" x="409.277344"/>
     <use xlink:href="#DejaVuSans-30" x="472.900391"/>
    </g>
   </g>
   <g id="line2d_125">
    <path d="M 374.146875 186.7375 
L 384.146875 186.7375 
L 394.146875 186.7375 
" style="fill: none; stroke: #7f7f7f; stroke-width: 1.5; stroke-linecap: square"/>
   </g>
   <g id="text_36">
    <!-- t=56.0000 -->
    <g transform="translate(402.146875 190.2375)scale(0.1 -0.1)">
     <use xlink:href="#DejaVuSans-74"/>
     <use xlink:href="#DejaVuSans-3d" x="39.208984"/>
     <use xlink:href="#DejaVuSans-35" x="122.998047"/>
     <use xlink:href="#DejaVuSans-36" x="186.621094"/>
     <use xlink:href="#DejaVuSans-2e" x="250.244141"/>
     <use xlink:href="#DejaVuSans-30" x="282.03125"/>
     <use xlink:href="#DejaVuSans-30" x="345.654297"/>
     <use xlink:href="#DejaVuSans-30" x="409.277344"/>
     <use xlink:href="#DejaVuSans-30" x="472.900391"/>
    </g>
   </g>
   <g id="line2d_126">
    <path d="M 374.146875 201.415625 
L 384.146875 201.415625 
L 394.146875 201.415625 
" style="fill: none; stroke: #bcbd22; stroke-width: 1.5; stroke-linecap: square"/>
   </g>
   <g id="text_37">
    <!-- t=64.0000 -->
    <g transform="translate(402.146875 204.915625)scale(0.1 -0.1)">
     <use xlink:href="#DejaVuSans-74"/>
     <use xlink:href="#DejaVuSans-3d" x="39.208984"/>
     <use xlink:href="#DejaVuSans-36" x="122.998047"/>
     <use xlink:href="#DejaVuSans-34" x="186.621094"/>
     <use xlink:href="#DejaVuSans-2e" x="250.244141"/>
     <use xlink:href="#DejaVuSans-30" x="282.03125"/>
     <use xlink:href="#DejaVuSans-30" x="345.654297"/>
     <use xlink:href="#DejaVuSans-30" x="409.277344"/>
     <use xlink:href="#DejaVuSans-30" x="472.900391"/>
    </g>
   </g>
   <g id="line2d_127">
    <path d="M 374.146875 216.09375 
L 384.146875 216.09375 
L 394.146875 216.09375 
" style="fill: none; stroke: #17becf; stroke-width: 1.5; stroke-linecap: square"/>
   </g>
   <g id="text_38">
    <!-- t=72.0000 -->
    <g transform="translate(402.146875 219.59375)scale(0.1 -0.1)">
     <use xlink:href="#DejaVuSans-74"/>
     <use xlink:href="#DejaVuSans-3d" x="39.208984"/>
     <use xlink:href="#DejaVuSans-37" x="122.998047"/>
     <use xlink:href="#DejaVuSans-32" x="186.621094"/>
     <use xlink:href="#DejaVuSans-2e" x="250.244141"/>
     <use xlink:href="#DejaVuSans-30" x="282.03125"/>
     <use xlink:href="#DejaVuSans-30" x="345.654297"/>
     <use xlink:href="#DejaVuSans-30" x="409.277344"/>
     <use xlink:href="#DejaVuSans-30" x="472.900391"/>
    </g>
   </g>
   <g id="line2d_128">
    <path d="M 374.146875 230.771875 
L 384.146875 230.771875 
L 394.146875 230.771875 
" style="fill: none; stroke: #1f77b4; stroke-width: 1.5; stroke-linecap: square"/>
   </g>
   <g id="text_39">
    <!-- t=80.0000 -->
    <g transform="translate(402.146875 234.271875)scale(0.1 -0.1)">
     <use xlink:href="#DejaVuSans-74"/>
     <use xlink:href="#DejaVuSans-3d" x="39.208984"/>
     <use xlink:href="#DejaVuSans-38" x="122.998047"/>
     <use xlink:href="#DejaVuSans-30" x="186.621094"/>
     <use xlink:href="#DejaVuSans-2e" x="250.244141"/>
     <use xlink:href="#DejaVuSans-30" x="282.03125"/>
     <use xlink:href="#DejaVuSans-30" x="345.654297"/>
     <use xlink:href="#DejaVuSans-30" x="409.277344"/>
     <use xlink:href="#DejaVuSans-30" x="472.900391"/>
    </g>
   </g>
   <g id="line2d_129">
    <path d="M 374.146875 245.45 
L 384.146875 245.45 
L 394.146875 245.45 
" style="fill: none; stroke: #ff7f0e; stroke-width: 1.5; stroke-linecap: square"/>
   </g>
   <g id="text_40">
    <!-- t=88.0000 -->
    <g transform="translate(402.146875 248.95)scale(0.1 -0.1)">
     <use xlink:href="#DejaVuSans-74"/>
     <use xlink:href="#DejaVuSans-3d" x="39.208984"/>
     <use xlink:href="#DejaVuSans-38" x="122.998047"/>
     <use xlink:href="#DejaVuSans-38" x="186.621094"/>
     <use xlink:href="#DejaVuSans-2e" x="250.244141"/>
     <use xlink:href="#DejaVuSans-30" x="282.03125"/>
     <use xlink:href="#DejaVuSans-30" x="345.654297"/>
     <use xlink:href="#DejaVuSans-30" x="409.277344"/>
     <use xlink:href="#DejaVuSans-30" x="472.900391"/>
    </g>
   </g>
   <g id="line2d_130">
    <path d="M 374.146875 260.128125 
L 384.146875 260.128125 
L 394.146875 260.128125 
" style="fill: none; stroke: #2ca02c; stroke-width: 1.5; stroke-linecap: square"/>
   </g>
   <g id="text_41">
    <!-- t=96.0000 -->
    <g transform="translate(402.146875 263.628125)scale(0.1 -0.1)">
     <use xlink:href="#DejaVuSans-74"/>
     <use xlink:href="#DejaVuSans-3d" x="39.208984"/>
     <use xlink:href="#DejaVuSans-39" x="122.998047"/>
     <use xlink:href="#DejaVuSans-36" x="186.621094"/>
     <use xlink:href="#DejaVuSans-2e" x="250.244141"/>
     <use xlink:href="#DejaVuSans-30" x="282.03125"/>
     <use xlink:href="#DejaVuSans-30" x="345.654297"/>
     <use xlink:href="#DejaVuSans-30" x="409.277344"/>
     <use xlink:href="#DejaVuSans-30" x="472.900391"/>
    </g>
   </g>
  </g>
 </g>
 <defs>
  <clipPath id="p58754d5b8e">
   <rect x="57.6" y="41.472" width="357.12" height="45.881379"/>
  </clipPath>
  <clipPath id="p7afbc8eb55">
   <rect x="57.6" y="96.529655" width="357.12" height="45.881379"/>
  </clipPath>
  <clipPath id="p0b9bdf08f4">
   <rect x="57.6" y="151.58731" width="357.12" height="45.881379"/>
  </clipPath>
  <clipPath id="p2a966363b0">
   <rect x="57.6" y="206.644966" width="357.12" height="45.881379"/>
  </clipPath>
  <clipPath id="pf01bd63ff1">
   <rect x="57.6" y="261.702621" width="357.12" height="45.881379"/>
  </clipPath>
 </defs>
</svg>
