<?xml version="1.0" encoding="utf-8" standalone="no"?>
<!DOCTYPE svg PUBLIC "-//W3C//DTD SVG 1.1//EN"
  "http://www.w3.org/Graphics/SVG/1.1/DTD/svg11.dtd">
<svg xmlns:xlink="http://www.w3.org/1999/xlink" width="460.8pt" height="345.6pt" viewBox="0 0 460.8 345.6" xmlns="http://www.w3.org/2000/svg" version="1.1">
 <metadata>
  <rdf:RDF xmlns:dc="http://purl.org/dc/elements/1.1/" xmlns:cc="http://creativecommons.org/ns#" xmlns:rdf="http://www.w3.org/1999/02/22-rdf-syntax-ns#">
   <cc:Work>
    <dc:type rdf:resource="http://purl.org/dc/dcmitype/StillImage"/>
    <dc:date>2022-07-10T00:04:56.618510</dc:date>
    <dc:format>image/svg+xml</dc:format>
    <dc:creator>
     <cc:Agent>
      <dc:title>Matplotlib v3.5.2, https://matplotlib.org/</dc:title>
     </cc:Agent>
    </dc:creator>
   </cc:Work>
  </rdf:RDF>
 </metadata>
 <defs>
  <style type="text/css">*{stroke-linejoin: round; stroke-linecap: butt}</style>
 </defs>
 <g id="figure_1">
  <g id="patch_1">
   <path d="M 0 345.6 
L 460.8 345.6 
L 460.8 0 
L 0 0 
z
" style="fill: #ffffff"/>
  </g>
  <g id="axes_1">
   <g id="patch_2">
    <path d="M 57.6 87.353379 
L 414.72 87.353379 
L 414.72 41.472 
L 57.6 41.472 
z
" style="fill: #ffffff"/>
   </g>
   <g id="matplotlib.axis_1">
    <g id="xtick_1">
     <g id="line2d_1">
      <defs>
       <path id="m405de8d761" d="M 0 0 
L 0 3.5 
" style="stroke: #000000; stroke-width: 0.8"/>
      </defs>
      <g>
       <use xlink:href="#m405de8d761" x="73.832727" y="87.353379" style="stroke: #000000; stroke-width: 0.8"/>
      </g>
     </g>
    </g>
    <g id="xtick_2">
     <g id="line2d_2">
      <g>
       <use xlink:href="#m405de8d761" x="138.763636" y="87.353379" style="stroke: #000000; stroke-width: 0.8"/>
      </g>
     </g>
    </g>
    <g id="xtick_3">
     <g id="line2d_3">
      <g>
       <use xlink:href="#m405de8d761" x="203.694545" y="87.353379" style="stroke: #000000; stroke-width: 0.8"/>
      </g>
     </g>
    </g>
    <g id="xtick_4">
     <g id="line2d_4">
      <g>
       <use xlink:href="#m405de8d761" x="268.625455" y="87.353379" style="stroke: #000000; stroke-width: 0.8"/>
      </g>
     </g>
    </g>
    <g id="xtick_5">
     <g id="line2d_5">
      <g>
       <use xlink:href="#m405de8d761" x="333.556364" y="87.353379" style="stroke: #000000; stroke-width: 0.8"/>
      </g>
     </g>
    </g>
    <g id="xtick_6">
     <g id="line2d_6">
      <g>
       <use xlink:href="#m405de8d761" x="398.487273" y="87.353379" style="stroke: #000000; stroke-width: 0.8"/>
      </g>
     </g>
    </g>
   </g>
   <g id="matplotlib.axis_2">
    <g id="ytick_1">
     <g id="line2d_7">
      <defs>
       <path id="m96641831e5" d="M 0 0 
L -3.5 0 
" style="stroke: #000000; stroke-width: 0.8"/>
      </defs>
      <g>
       <use xlink:href="#m96641831e5" x="57.6" y="85.831779" style="stroke: #000000; stroke-width: 0.8"/>
      </g>
     </g>
     <g id="text_1">
      <!-- −25 -->
      <g transform="translate(29.495313 89.630997)scale(0.1 -0.1)">
       <defs>
        <path id="DejaVuSans-2212" d="M 678 2272 
L 4684 2272 
L 4684 1741 
L 678 1741 
L 678 2272 
z
" transform="scale(0.015625)"/>
        <path id="DejaVuSans-32" d="M 1228 531 
L 3431 531 
L 3431 0 
L 469 0 
L 469 531 
Q 828 903 1448 1529 
Q 2069 2156 2228 2338 
Q 2531 2678 2651 2914 
Q 2772 3150 2772 3378 
Q 2772 3750 2511 3984 
Q 2250 4219 1831 4219 
Q 1534 4219 1204 4116 
Q 875 4013 500 3803 
L 500 4441 
Q 881 4594 1212 4672 
Q 1544 4750 1819 4750 
Q 2544 4750 2975 4387 
Q 3406 4025 3406 3419 
Q 3406 3131 3298 2873 
Q 3191 2616 2906 2266 
Q 2828 2175 2409 1742 
Q 1991 1309 1228 531 
z
" transform="scale(0.015625)"/>
        <path id="DejaVuSans-35" d="M 691 4666 
L 3169 4666 
L 3169 4134 
L 1269 4134 
L 1269 2991 
Q 1406 3038 1543 3061 
Q 1681 3084 1819 3084 
Q 2600 3084 3056 2656 
Q 3513 2228 3513 1497 
Q 3513 744 3044 326 
Q 2575 -91 1722 -91 
Q 1428 -91 1123 -41 
Q 819 9 494 109 
L 494 744 
Q 775 591 1075 516 
Q 1375 441 1709 441 
Q 2250 441 2565 725 
Q 2881 1009 2881 1497 
Q 2881 1984 2565 2268 
Q 2250 2553 1709 2553 
Q 1456 2553 1204 2497 
Q 953 2441 691 2322 
L 691 4666 
z
" transform="scale(0.015625)"/>
       </defs>
       <use xlink:href="#DejaVuSans-2212"/>
       <use xlink:href="#DejaVuSans-32" x="83.789062"/>
       <use xlink:href="#DejaVuSans-35" x="147.412109"/>
      </g>
     </g>
    </g>
    <g id="ytick_2">
     <g id="line2d_8">
      <g>
       <use xlink:href="#m96641831e5" x="57.6" y="62.863262" style="stroke: #000000; stroke-width: 0.8"/>
      </g>
     </g>
     <g id="text_2">
      <!-- 0 -->
      <g transform="translate(44.2375 66.66248)scale(0.1 -0.1)">
       <defs>
        <path id="DejaVuSans-30" d="M 2034 4250 
Q 1547 4250 1301 3770 
Q 1056 3291 1056 2328 
Q 1056 1369 1301 889 
Q 1547 409 2034 409 
Q 2525 409 2770 889 
Q 3016 1369 3016 2328 
Q 3016 3291 2770 3770 
Q 2525 4250 2034 4250 
z
M 2034 4750 
Q 2819 4750 3233 4129 
Q 3647 3509 3647 2328 
Q 3647 1150 3233 529 
Q 2819 -91 2034 -91 
Q 1250 -91 836 529 
Q 422 1150 422 2328 
Q 422 3509 836 4129 
Q 1250 4750 2034 4750 
z
" transform="scale(0.015625)"/>
       </defs>
       <use xlink:href="#DejaVuSans-30"/>
      </g>
     </g>
    </g>
    <g id="text_3">
     <!-- flow rate (normalized) -->
     <g transform="translate(23.415625 119.729877)rotate(-90)scale(0.1 -0.1)">
      <defs>
       <path id="DejaVuSans-66" d="M 2375 4863 
L 2375 4384 
L 1825 4384 
Q 1516 4384 1395 4259 
Q 1275 4134 1275 3809 
L 1275 3500 
L 2222 3500 
L 2222 3053 
L 1275 3053 
L 1275 0 
L 697 0 
L 697 3053 
L 147 3053 
L 147 3500 
L 697 3500 
L 697 3744 
Q 697 4328 969 4595 
Q 1241 4863 1831 4863 
L 2375 4863 
z
" transform="scale(0.015625)"/>
       <path id="DejaVuSans-6c" d="M 603 4863 
L 1178 4863 
L 1178 0 
L 603 0 
L 603 4863 
z
" transform="scale(0.015625)"/>
       <path id="DejaVuSans-6f" d="M 1959 3097 
Q 1497 3097 1228 2736 
Q 959 2375 959 1747 
Q 959 1119 1226 758 
Q 1494 397 1959 397 
Q 2419 397 2687 759 
Q 2956 1122 2956 1747 
Q 2956 2369 2687 2733 
Q 2419 3097 1959 3097 
z
M 1959 3584 
Q 2709 3584 3137 3096 
Q 3566 2609 3566 1747 
Q 3566 888 3137 398 
Q 2709 -91 1959 -91 
Q 1206 -91 779 398 
Q 353 888 353 1747 
Q 353 2609 779 3096 
Q 1206 3584 1959 3584 
z
" transform="scale(0.015625)"/>
       <path id="DejaVuSans-77" d="M 269 3500 
L 844 3500 
L 1563 769 
L 2278 3500 
L 2956 3500 
L 3675 769 
L 4391 3500 
L 4966 3500 
L 4050 0 
L 3372 0 
L 2619 2869 
L 1863 0 
L 1184 0 
L 269 3500 
z
" transform="scale(0.015625)"/>
       <path id="DejaVuSans-20" transform="scale(0.015625)"/>
       <path id="DejaVuSans-72" d="M 2631 2963 
Q 2534 3019 2420 3045 
Q 2306 3072 2169 3072 
Q 1681 3072 1420 2755 
Q 1159 2438 1159 1844 
L 1159 0 
L 581 0 
L 581 3500 
L 1159 3500 
L 1159 2956 
Q 1341 3275 1631 3429 
Q 1922 3584 2338 3584 
Q 2397 3584 2469 3576 
Q 2541 3569 2628 3553 
L 2631 2963 
z
" transform="scale(0.015625)"/>
       <path id="DejaVuSans-61" d="M 2194 1759 
Q 1497 1759 1228 1600 
Q 959 1441 959 1056 
Q 959 750 1161 570 
Q 1363 391 1709 391 
Q 2188 391 2477 730 
Q 2766 1069 2766 1631 
L 2766 1759 
L 2194 1759 
z
M 3341 1997 
L 3341 0 
L 2766 0 
L 2766 531 
Q 2569 213 2275 61 
Q 1981 -91 1556 -91 
Q 1019 -91 701 211 
Q 384 513 384 1019 
Q 384 1609 779 1909 
Q 1175 2209 1959 2209 
L 2766 2209 
L 2766 2266 
Q 2766 2663 2505 2880 
Q 2244 3097 1772 3097 
Q 1472 3097 1187 3025 
Q 903 2953 641 2809 
L 641 3341 
Q 956 3463 1253 3523 
Q 1550 3584 1831 3584 
Q 2591 3584 2966 3190 
Q 3341 2797 3341 1997 
z
" transform="scale(0.015625)"/>
       <path id="DejaVuSans-74" d="M 1172 4494 
L 1172 3500 
L 2356 3500 
L 2356 3053 
L 1172 3053 
L 1172 1153 
Q 1172 725 1289 603 
Q 1406 481 1766 481 
L 2356 481 
L 2356 0 
L 1766 0 
Q 1100 0 847 248 
Q 594 497 594 1153 
L 594 3053 
L 172 3053 
L 172 3500 
L 594 3500 
L 594 4494 
L 1172 4494 
z
" transform="scale(0.015625)"/>
       <path id="DejaVuSans-65" d="M 3597 1894 
L 3597 1613 
L 953 1613 
Q 991 1019 1311 708 
Q 1631 397 2203 397 
Q 2534 397 2845 478 
Q 3156 559 3463 722 
L 3463 178 
Q 3153 47 2828 -22 
Q 2503 -91 2169 -91 
Q 1331 -91 842 396 
Q 353 884 353 1716 
Q 353 2575 817 3079 
Q 1281 3584 2069 3584 
Q 2775 3584 3186 3129 
Q 3597 2675 3597 1894 
z
M 3022 2063 
Q 3016 2534 2758 2815 
Q 2500 3097 2075 3097 
Q 1594 3097 1305 2825 
Q 1016 2553 972 2059 
L 3022 2063 
z
" transform="scale(0.015625)"/>
       <path id="DejaVuSans-28" d="M 1984 4856 
Q 1566 4138 1362 3434 
Q 1159 2731 1159 2009 
Q 1159 1288 1364 580 
Q 1569 -128 1984 -844 
L 1484 -844 
Q 1016 -109 783 600 
Q 550 1309 550 2009 
Q 550 2706 781 3412 
Q 1013 4119 1484 4856 
L 1984 4856 
z
" transform="scale(0.015625)"/>
       <path id="DejaVuSans-6e" d="M 3513 2113 
L 3513 0 
L 2938 0 
L 2938 2094 
Q 2938 2591 2744 2837 
Q 2550 3084 2163 3084 
Q 1697 3084 1428 2787 
Q 1159 2491 1159 1978 
L 1159 0 
L 581 0 
L 581 3500 
L 1159 3500 
L 1159 2956 
Q 1366 3272 1645 3428 
Q 1925 3584 2291 3584 
Q 2894 3584 3203 3211 
Q 3513 2838 3513 2113 
z
" transform="scale(0.015625)"/>
       <path id="DejaVuSans-6d" d="M 3328 2828 
Q 3544 3216 3844 3400 
Q 4144 3584 4550 3584 
Q 5097 3584 5394 3201 
Q 5691 2819 5691 2113 
L 5691 0 
L 5113 0 
L 5113 2094 
Q 5113 2597 4934 2840 
Q 4756 3084 4391 3084 
Q 3944 3084 3684 2787 
Q 3425 2491 3425 1978 
L 3425 0 
L 2847 0 
L 2847 2094 
Q 2847 2600 2669 2842 
Q 2491 3084 2119 3084 
Q 1678 3084 1418 2786 
Q 1159 2488 1159 1978 
L 1159 0 
L 581 0 
L 581 3500 
L 1159 3500 
L 1159 2956 
Q 1356 3278 1631 3431 
Q 1906 3584 2284 3584 
Q 2666 3584 2933 3390 
Q 3200 3197 3328 2828 
z
" transform="scale(0.015625)"/>
       <path id="DejaVuSans-69" d="M 603 3500 
L 1178 3500 
L 1178 0 
L 603 0 
L 603 3500 
z
M 603 4863 
L 1178 4863 
L 1178 4134 
L 603 4134 
L 603 4863 
z
" transform="scale(0.015625)"/>
       <path id="DejaVuSans-7a" d="M 353 3500 
L 3084 3500 
L 3084 2975 
L 922 459 
L 3084 459 
L 3084 0 
L 275 0 
L 275 525 
L 2438 3041 
L 353 3041 
L 353 3500 
z
" transform="scale(0.015625)"/>
       <path id="DejaVuSans-64" d="M 2906 2969 
L 2906 4863 
L 3481 4863 
L 3481 0 
L 2906 0 
L 2906 525 
Q 2725 213 2448 61 
Q 2172 -91 1784 -91 
Q 1150 -91 751 415 
Q 353 922 353 1747 
Q 353 2572 751 3078 
Q 1150 3584 1784 3584 
Q 2172 3584 2448 3432 
Q 2725 3281 2906 2969 
z
M 947 1747 
Q 947 1113 1208 752 
Q 1469 391 1925 391 
Q 2381 391 2643 752 
Q 2906 1113 2906 1747 
Q 2906 2381 2643 2742 
Q 2381 3103 1925 3103 
Q 1469 3103 1208 2742 
Q 947 2381 947 1747 
z
" transform="scale(0.015625)"/>
       <path id="DejaVuSans-29" d="M 513 4856 
L 1013 4856 
Q 1481 4119 1714 3412 
Q 1947 2706 1947 2009 
Q 1947 1309 1714 600 
Q 1481 -109 1013 -844 
L 513 -844 
Q 928 -128 1133 580 
Q 1338 1288 1338 2009 
Q 1338 2731 1133 3434 
Q 928 4138 513 4856 
z
" transform="scale(0.015625)"/>
      </defs>
      <use xlink:href="#DejaVuSans-66"/>
      <use xlink:href="#DejaVuSans-6c" x="35.205078"/>
      <use xlink:href="#DejaVuSans-6f" x="62.988281"/>
      <use xlink:href="#DejaVuSans-77" x="124.169922"/>
      <use xlink:href="#DejaVuSans-20" x="205.957031"/>
      <use xlink:href="#DejaVuSans-72" x="237.744141"/>
      <use xlink:href="#DejaVuSans-61" x="278.857422"/>
      <use xlink:href="#DejaVuSans-74" x="340.136719"/>
      <use xlink:href="#DejaVuSans-65" x="379.345703"/>
      <use xlink:href="#DejaVuSans-20" x="440.869141"/>
      <use xlink:href="#DejaVuSans-28" x="472.65625"/>
      <use xlink:href="#DejaVuSans-6e" x="511.669922"/>
      <use xlink:href="#DejaVuSans-6f" x="575.048828"/>
      <use xlink:href="#DejaVuSans-72" x="636.230469"/>
      <use xlink:href="#DejaVuSans-6d" x="675.59375"/>
      <use xlink:href="#DejaVuSans-61" x="773.005859"/>
      <use xlink:href="#DejaVuSans-6c" x="834.285156"/>
      <use xlink:href="#DejaVuSans-69" x="862.068359"/>
      <use xlink:href="#DejaVuSans-7a" x="889.851562"/>
      <use xlink:href="#DejaVuSans-65" x="942.341797"/>
      <use xlink:href="#DejaVuSans-64" x="1003.865234"/>
      <use xlink:href="#DejaVuSans-29" x="1067.341797"/>
     </g>
    </g>
   </g>
   <g id="line2d_9">
    <path d="M 73.832727 65.318269 
L 77.079273 52.695848 
L 80.325818 59.289019 
L 83.572364 61.226607 
L 86.818909 62.04282 
L 90.065455 62.427853 
L 93.312 62.625265 
L 96.558545 62.730134 
L 99.805091 62.786469 
L 103.051636 62.818726 
L 106.298182 62.839139 
L 109.544727 62.849634 
L 112.791273 62.854922 
L 116.037818 62.857955 
L 119.284364 62.85975 
L 122.530909 62.839082 
L 125.777455 61.945517 
L 129.024 61.94446 
L 132.270545 61.943844 
L 135.517091 61.943502 
L 138.763636 61.943303 
L 142.010182 61.943157 
L 145.256727 61.943041 
L 148.503273 61.942948 
L 151.749818 61.942868 
L 154.996364 61.942806 
L 158.242909 61.942759 
L 161.489455 61.942724 
L 164.736 61.942697 
L 167.982545 61.942677 
L 171.229091 62.075525 
L 174.475636 62.422327 
L 177.722182 62.024683 
L 180.968727 61.426134 
L 184.215273 60.69621 
L 187.461818 60.083801 
L 190.708364 59.775483 
L 193.954909 59.787254 
L 197.201455 60.038733 
L 200.448 60.411881 
L 203.694545 60.825456 
L 206.941091 61.225297 
L 210.187636 61.575437 
L 213.434182 61.874251 
L 216.680727 62.113607 
L 219.927273 62.304152 
L 223.173818 62.452517 
L 226.420364 62.564958 
L 229.666909 62.647013 
L 232.913455 62.704698 
L 236.16 62.744402 
L 239.406545 62.77367 
L 242.653091 62.79397 
L 245.899636 62.810418 
L 249.146182 62.823384 
L 252.392727 62.832616 
L 255.639273 62.840299 
L 258.885818 62.846317 
L 262.132364 62.85109 
L 265.378909 62.854398 
L 268.625455 62.859863 
L 271.872 66.294251 
L 275.118545 67.890892 
L 278.365091 68.502161 
L 281.611636 68.660863 
L 284.858182 68.61952 
L 288.104727 68.493095 
L 291.351273 68.332289 
L 294.597818 68.160305 
L 297.844364 67.987934 
L 301.090909 67.819729 
L 304.337455 67.658694 
L 307.584 67.505406 
L 310.830545 67.361055 
L 314.077091 67.224854 
L 317.323636 67.094612 
L 320.570182 66.972849 
L 323.816727 66.858137 
L 327.063273 66.749588 
L 330.309818 66.646987 
L 333.556364 66.549955 
L 336.802909 66.458072 
L 340.049455 66.370944 
L 343.296 66.288048 
L 346.542545 66.209412 
L 349.789091 66.134427 
L 353.035636 66.06291 
L 356.282182 65.99471 
L 359.528727 65.929473 
L 362.775273 65.867044 
L 366.021818 65.807144 
L 369.268364 65.749787 
L 372.514909 65.69486 
L 375.761455 65.642148 
L 379.008 65.591134 
L 382.254545 65.541544 
L 385.501091 65.493177 
L 388.747636 65.447127 
L 391.994182 65.403382 
L 395.240727 65.361894 
L 398.487273 65.319646 
" clip-path="url(#p8056f276b2)" style="fill: none; stroke: #1f77b4; stroke-width: 1.5; stroke-linecap: square"/>
   </g>
   <g id="line2d_10">
    <path d="M 73.832727 69.776872 
L 77.079273 43.557517 
L 80.325818 55.713977 
L 83.572364 59.564582 
L 86.818909 61.206222 
L 90.065455 61.983972 
L 93.312 62.382694 
L 96.558545 62.594595 
L 99.805091 62.708402 
L 103.051636 62.773519 
L 106.298182 62.814694 
L 109.544727 62.835851 
L 112.791273 62.846502 
L 116.037818 62.852606 
L 119.284364 62.856215 
L 122.530909 62.758942 
L 125.777455 61.944695 
L 129.024 61.944492 
L 132.270545 61.944381 
L 135.517091 61.944327 
L 138.763636 61.944301 
L 142.010182 61.944286 
L 145.256727 61.944276 
L 148.503273 61.944269 
L 151.749818 61.944263 
L 154.996364 61.94426 
L 158.242909 61.944258 
L 161.489455 61.944257 
L 164.736 61.944257 
L 167.982545 61.944257 
L 171.229091 62.243917 
L 174.475636 62.78317 
L 177.722182 62.71132 
L 180.968727 62.604083 
L 184.215273 62.475438 
L 187.461818 62.370288 
L 190.708364 62.319355 
L 193.954909 62.322811 
L 197.201455 62.365788 
L 200.448 62.428713 
L 203.694545 62.49865 
L 206.941091 62.566942 
L 210.187636 62.627583 
L 213.434182 62.68019 
L 216.680727 62.722986 
L 219.927273 62.757536 
L 223.173818 62.784796 
L 226.420364 62.805736 
L 229.666909 62.821274 
L 232.913455 62.832357 
L 236.16 62.840143 
L 239.406545 62.84586 
L 242.653091 62.849865 
L 245.899636 62.853052 
L 249.146182 62.85555 
L 252.392727 62.857319 
L 255.639273 62.858792 
L 258.885818 62.859948 
L 262.132364 62.860864 
L 265.378909 62.861506 
L 268.625455 62.883518 
L 271.872 72.810573 
L 275.118545 79.83726 
L 278.365091 83.736874 
L 281.611636 85.220715 
L 284.858182 85.267862 
L 288.104727 84.651812 
L 291.351273 83.773822 
L 294.597818 82.839233 
L 297.844364 81.917653 
L 301.090909 81.040404 
L 304.337455 80.21788 
L 307.584 79.448701 
L 310.830545 78.72906 
L 314.077091 78.067446 
L 317.323636 77.44268 
L 320.570182 76.86581 
L 323.816727 76.328816 
L 327.063273 75.826922 
L 330.309818 75.357721 
L 333.556364 74.919088 
L 336.802909 74.508677 
L 340.049455 74.124239 
L 343.296 73.762904 
L 346.542545 73.423571 
L 349.789091 73.102891 
L 353.035636 72.799526 
L 356.282182 72.512316 
L 359.528727 72.239079 
L 362.775273 71.979665 
L 366.021818 71.732217 
L 369.268364 71.496668 
L 372.514909 71.272312 
L 375.761455 71.057933 
L 379.008 70.852484 
L 382.254545 70.655012 
L 385.501091 70.464589 
L 388.747636 70.283151 
L 391.994182 70.110282 
L 395.240727 69.945496 
L 398.487273 69.783502 
" clip-path="url(#p8056f276b2)" style="fill: none; stroke: #ff7f0e; stroke-width: 1.5; stroke-linecap: square"/>
   </g>
   <g id="line2d_11">
    <path d="M 73.832727 63.116777 
L 77.079273 61.706651 
L 80.325818 62.463676 
L 83.572364 62.68108 
L 86.818909 62.771934 
L 90.065455 62.814753 
L 93.312 62.836735 
L 96.558545 62.848407 
L 99.805091 62.854681 
L 103.051636 62.858276 
L 106.298182 62.860552 
L 109.544727 62.861724 
L 112.791273 62.862315 
L 116.037818 62.862654 
L 119.284364 62.862855 
L 122.530909 62.882612 
L 125.777455 61.947605 
L 129.024 61.945739 
L 132.270545 61.944604 
L 135.517091 61.943925 
L 138.763636 61.943489 
L 142.010182 61.943149 
L 145.256727 61.942864 
L 148.503273 61.942621 
L 151.749818 61.942406 
L 154.996364 61.942223 
L 158.242909 61.942069 
L 161.489455 61.941937 
L 164.736 61.941824 
L 167.982545 61.941726 
L 171.229091 62.003416 
L 174.475636 62.099805 
L 177.722182 61.404254 
L 180.968727 60.337928 
L 184.215273 58.989824 
L 187.461818 57.790743 
L 190.708364 57.133313 
L 193.954909 57.117442 
L 197.201455 57.617624 
L 200.448 58.381971 
L 203.694545 59.221063 
L 206.941091 60.012171 
L 210.187636 60.680844 
L 213.434182 61.230698 
L 216.680727 61.655738 
L 219.927273 61.983695 
L 223.173818 62.231711 
L 226.420364 62.414166 
L 229.666909 62.542307 
L 232.913455 62.629602 
L 236.16 62.686699 
L 239.406545 62.729553 
L 242.653091 62.758617 
L 245.899636 62.783291 
L 249.146182 62.803061 
L 252.392727 62.817378 
L 255.639273 62.829257 
L 258.885818 62.838499 
L 262.132364 62.8458 
L 265.378909 62.850708 
L 268.625455 62.860259 
L 271.872 63.207533 
L 275.118545 63.35776 
L 278.365091 63.414235 
L 281.611636 63.429805 
L 284.858182 63.427282 
L 288.104727 63.416735 
L 291.351273 63.402682 
L 294.597818 63.387253 
L 297.844364 63.371534 
L 301.090909 63.356011 
L 304.337455 63.341013 
L 307.584 63.326644 
L 310.830545 63.313122 
L 314.077091 63.300204 
L 317.323636 63.287889 
L 320.570182 63.276308 
L 323.816727 63.265381 
L 327.063273 63.255016 
L 330.309818 63.245204 
L 333.556364 63.235911 
L 336.802909 63.227096 
L 340.049455 63.218725 
L 343.296 63.210748 
L 346.542545 63.203171 
L 349.789091 63.195937 
L 353.035636 63.189031 
L 356.282182 63.182438 
L 359.528727 63.176126 
L 362.775273 63.17008 
L 366.021818 63.164276 
L 369.268364 63.158714 
L 372.514909 63.153387 
L 375.761455 63.148273 
L 379.008 63.143319 
L 382.254545 63.138495 
L 385.501091 63.133783 
L 388.747636 63.129303 
L 391.994182 63.125056 
L 395.240727 63.121037 
L 398.487273 63.116904 
" clip-path="url(#p8056f276b2)" style="fill: none; stroke: #2ca02c; stroke-width: 1.5; stroke-linecap: square"/>
   </g>
   <g id="patch_3">
    <path d="M 57.6 87.353379 
L 57.6 41.472 
" style="fill: none; stroke: #000000; stroke-width: 0.8; stroke-linejoin: miter; stroke-linecap: square"/>
   </g>
   <g id="patch_4">
    <path d="M 414.72 87.353379 
L 414.72 41.472 
" style="fill: none; stroke: #000000; stroke-width: 0.8; stroke-linejoin: miter; stroke-linecap: square"/>
   </g>
   <g id="patch_5">
    <path d="M 57.6 87.353379 
L 414.72 87.353379 
" style="fill: none; stroke: #000000; stroke-width: 0.8; stroke-linejoin: miter; stroke-linecap: square"/>
   </g>
   <g id="patch_6">
    <path d="M 57.6 41.472 
L 414.72 41.472 
" style="fill: none; stroke: #000000; stroke-width: 0.8; stroke-linejoin: miter; stroke-linecap: square"/>
   </g>
   <g id="text_4">
    <!-- velocity vs time (container 1)   -->
    <g transform="translate(144.106875 35.472)scale(0.12 -0.12)">
     <defs>
      <path id="DejaVuSans-76" d="M 191 3500 
L 800 3500 
L 1894 563 
L 2988 3500 
L 3597 3500 
L 2284 0 
L 1503 0 
L 191 3500 
z
" transform="scale(0.015625)"/>
      <path id="DejaVuSans-63" d="M 3122 3366 
L 3122 2828 
Q 2878 2963 2633 3030 
Q 2388 3097 2138 3097 
Q 1578 3097 1268 2742 
Q 959 2388 959 1747 
Q 959 1106 1268 751 
Q 1578 397 2138 397 
Q 2388 397 2633 464 
Q 2878 531 3122 666 
L 3122 134 
Q 2881 22 2623 -34 
Q 2366 -91 2075 -91 
Q 1284 -91 818 406 
Q 353 903 353 1747 
Q 353 2603 823 3093 
Q 1294 3584 2113 3584 
Q 2378 3584 2631 3529 
Q 2884 3475 3122 3366 
z
" transform="scale(0.015625)"/>
      <path id="DejaVuSans-79" d="M 2059 -325 
Q 1816 -950 1584 -1140 
Q 1353 -1331 966 -1331 
L 506 -1331 
L 506 -850 
L 844 -850 
Q 1081 -850 1212 -737 
Q 1344 -625 1503 -206 
L 1606 56 
L 191 3500 
L 800 3500 
L 1894 763 
L 2988 3500 
L 3597 3500 
L 2059 -325 
z
" transform="scale(0.015625)"/>
      <path id="DejaVuSans-73" d="M 2834 3397 
L 2834 2853 
Q 2591 2978 2328 3040 
Q 2066 3103 1784 3103 
Q 1356 3103 1142 2972 
Q 928 2841 928 2578 
Q 928 2378 1081 2264 
Q 1234 2150 1697 2047 
L 1894 2003 
Q 2506 1872 2764 1633 
Q 3022 1394 3022 966 
Q 3022 478 2636 193 
Q 2250 -91 1575 -91 
Q 1294 -91 989 -36 
Q 684 19 347 128 
L 347 722 
Q 666 556 975 473 
Q 1284 391 1588 391 
Q 1994 391 2212 530 
Q 2431 669 2431 922 
Q 2431 1156 2273 1281 
Q 2116 1406 1581 1522 
L 1381 1569 
Q 847 1681 609 1914 
Q 372 2147 372 2553 
Q 372 3047 722 3315 
Q 1072 3584 1716 3584 
Q 2034 3584 2315 3537 
Q 2597 3491 2834 3397 
z
" transform="scale(0.015625)"/>
      <path id="DejaVuSans-31" d="M 794 531 
L 1825 531 
L 1825 4091 
L 703 3866 
L 703 4441 
L 1819 4666 
L 2450 4666 
L 2450 531 
L 3481 531 
L 3481 0 
L 794 0 
L 794 531 
z
" transform="scale(0.015625)"/>
     </defs>
     <use xlink:href="#DejaVuSans-76"/>
     <use xlink:href="#DejaVuSans-65" x="59.179688"/>
     <use xlink:href="#DejaVuSans-6c" x="120.703125"/>
     <use xlink:href="#DejaVuSans-6f" x="148.486328"/>
     <use xlink:href="#DejaVuSans-63" x="209.667969"/>
     <use xlink:href="#DejaVuSans-69" x="264.648438"/>
     <use xlink:href="#DejaVuSans-74" x="292.431641"/>
     <use xlink:href="#DejaVuSans-79" x="331.640625"/>
     <use xlink:href="#DejaVuSans-20" x="390.820312"/>
     <use xlink:href="#DejaVuSans-76" x="422.607422"/>
     <use xlink:href="#DejaVuSans-73" x="481.787109"/>
     <use xlink:href="#DejaVuSans-20" x="533.886719"/>
     <use xlink:href="#DejaVuSans-74" x="565.673828"/>
     <use xlink:href="#DejaVuSans-69" x="604.882812"/>
     <use xlink:href="#DejaVuSans-6d" x="632.666016"/>
     <use xlink:href="#DejaVuSans-65" x="730.078125"/>
     <use xlink:href="#DejaVuSans-20" x="791.601562"/>
     <use xlink:href="#DejaVuSans-28" x="823.388672"/>
     <use xlink:href="#DejaVuSans-63" x="862.402344"/>
     <use xlink:href="#DejaVuSans-6f" x="917.382812"/>
     <use xlink:href="#DejaVuSans-6e" x="978.564453"/>
     <use xlink:href="#DejaVuSans-74" x="1041.943359"/>
     <use xlink:href="#DejaVuSans-61" x="1081.152344"/>
     <use xlink:href="#DejaVuSans-69" x="1142.431641"/>
     <use xlink:href="#DejaVuSans-6e" x="1170.214844"/>
     <use xlink:href="#DejaVuSans-65" x="1233.59375"/>
     <use xlink:href="#DejaVuSans-72" x="1295.117188"/>
     <use xlink:href="#DejaVuSans-20" x="1336.230469"/>
     <use xlink:href="#DejaVuSans-31" x="1368.017578"/>
     <use xlink:href="#DejaVuSans-29" x="1431.640625"/>
     <use xlink:href="#DejaVuSans-20" x="1470.654297"/>
     <use xlink:href="#DejaVuSans-20" x="1502.441406"/>
    </g>
   </g>
   <g id="legend_1">
    <g id="patch_7">
     <path d="M 64.6 93.506375 
L 139.240625 93.506375 
Q 141.240625 93.506375 141.240625 91.506375 
L 141.240625 48.472 
Q 141.240625 46.472 139.240625 46.472 
L 64.6 46.472 
Q 62.6 46.472 62.6 48.472 
L 62.6 91.506375 
Q 62.6 93.506375 64.6 93.506375 
z
" style="fill: #ffffff; opacity: 0.8; stroke: #cccccc; stroke-linejoin: miter"/>
    </g>
    <g id="line2d_12">
     <path d="M 66.6 54.570437 
L 76.6 54.570437 
L 86.6 54.570437 
" style="fill: none; stroke: #1f77b4; stroke-width: 1.5; stroke-linecap: square"/>
    </g>
    <g id="text_5">
     <!-- mid flow -->
     <g transform="translate(94.6 58.070437)scale(0.1 -0.1)">
      <use xlink:href="#DejaVuSans-6d"/>
      <use xlink:href="#DejaVuSans-69" x="97.412109"/>
      <use xlink:href="#DejaVuSans-64" x="125.195312"/>
      <use xlink:href="#DejaVuSans-20" x="188.671875"/>
      <use xlink:href="#DejaVuSans-66" x="220.458984"/>
      <use xlink:href="#DejaVuSans-6c" x="255.664062"/>
      <use xlink:href="#DejaVuSans-6f" x="283.447266"/>
      <use xlink:href="#DejaVuSans-77" x="344.628906"/>
     </g>
    </g>
    <g id="line2d_13">
     <path d="M 66.6 69.248562 
L 76.6 69.248562 
L 86.6 69.248562 
" style="fill: none; stroke: #ff7f0e; stroke-width: 1.5; stroke-linecap: square"/>
    </g>
    <g id="text_6">
     <!-- v0 flow -->
     <g transform="translate(94.6 72.748562)scale(0.1 -0.1)">
      <use xlink:href="#DejaVuSans-76"/>
      <use xlink:href="#DejaVuSans-30" x="59.179688"/>
      <use xlink:href="#DejaVuSans-20" x="122.802734"/>
      <use xlink:href="#DejaVuSans-66" x="154.589844"/>
      <use xlink:href="#DejaVuSans-6c" x="189.794922"/>
      <use xlink:href="#DejaVuSans-6f" x="217.578125"/>
      <use xlink:href="#DejaVuSans-77" x="278.759766"/>
     </g>
    </g>
    <g id="line2d_14">
     <path d="M 66.6 83.926687 
L 76.6 83.926687 
L 86.6 83.926687 
" style="fill: none; stroke: #2ca02c; stroke-width: 1.5; stroke-linecap: square"/>
    </g>
    <g id="text_7">
     <!-- vN flow -->
     <g transform="translate(94.6 87.426687)scale(0.1 -0.1)">
      <defs>
       <path id="DejaVuSans-4e" d="M 628 4666 
L 1478 4666 
L 3547 763 
L 3547 4666 
L 4159 4666 
L 4159 0 
L 3309 0 
L 1241 3903 
L 1241 0 
L 628 0 
L 628 4666 
z
" transform="scale(0.015625)"/>
      </defs>
      <use xlink:href="#DejaVuSans-76"/>
      <use xlink:href="#DejaVuSans-4e" x="59.179688"/>
      <use xlink:href="#DejaVuSans-20" x="133.984375"/>
      <use xlink:href="#DejaVuSans-66" x="165.771484"/>
      <use xlink:href="#DejaVuSans-6c" x="200.976562"/>
      <use xlink:href="#DejaVuSans-6f" x="228.759766"/>
      <use xlink:href="#DejaVuSans-77" x="289.941406"/>
     </g>
    </g>
   </g>
  </g>
  <g id="axes_2">
   <g id="patch_8">
    <path d="M 57.6 142.411034 
L 414.72 142.411034 
L 414.72 96.529655 
L 57.6 96.529655 
z
" style="fill: #ffffff"/>
   </g>
   <g id="matplotlib.axis_3">
    <g id="xtick_7">
     <g id="line2d_15">
      <g>
       <use xlink:href="#m405de8d761" x="73.832727" y="142.411034" style="stroke: #000000; stroke-width: 0.8"/>
      </g>
     </g>
    </g>
    <g id="xtick_8">
     <g id="line2d_16">
      <g>
       <use xlink:href="#m405de8d761" x="138.763636" y="142.411034" style="stroke: #000000; stroke-width: 0.8"/>
      </g>
     </g>
    </g>
    <g id="xtick_9">
     <g id="line2d_17">
      <g>
       <use xlink:href="#m405de8d761" x="203.694545" y="142.411034" style="stroke: #000000; stroke-width: 0.8"/>
      </g>
     </g>
    </g>
    <g id="xtick_10">
     <g id="line2d_18">
      <g>
       <use xlink:href="#m405de8d761" x="268.625455" y="142.411034" style="stroke: #000000; stroke-width: 0.8"/>
      </g>
     </g>
    </g>
    <g id="xtick_11">
     <g id="line2d_19">
      <g>
       <use xlink:href="#m405de8d761" x="333.556364" y="142.411034" style="stroke: #000000; stroke-width: 0.8"/>
      </g>
     </g>
    </g>
    <g id="xtick_12">
     <g id="line2d_20">
      <g>
       <use xlink:href="#m405de8d761" x="398.487273" y="142.411034" style="stroke: #000000; stroke-width: 0.8"/>
      </g>
     </g>
    </g>
   </g>
   <g id="matplotlib.axis_4">
    <g id="ytick_3">
     <g id="line2d_21">
      <g>
       <use xlink:href="#m96641831e5" x="57.6" y="140.790014" style="stroke: #000000; stroke-width: 0.8"/>
      </g>
     </g>
     <g id="text_8">
      <!-- 0 -->
      <g transform="translate(44.2375 144.589233)scale(0.1 -0.1)">
       <use xlink:href="#DejaVuSans-30"/>
      </g>
     </g>
    </g>
    <g id="ytick_4">
     <g id="line2d_22">
      <g>
       <use xlink:href="#m96641831e5" x="57.6" y="98.771794" style="stroke: #000000; stroke-width: 0.8"/>
      </g>
     </g>
     <g id="text_9">
      <!-- 1 -->
      <g transform="translate(44.2375 102.571013)scale(0.1 -0.1)">
       <use xlink:href="#DejaVuSans-31"/>
      </g>
     </g>
    </g>
   </g>
   <g id="line2d_23">
    <path d="M 73.832727 140.325517 
L 77.079273 124.095456 
L 80.325818 114.109077 
L 83.572364 108.068584 
L 86.818909 104.409898 
L 90.065455 102.192612 
L 93.312 100.849396 
L 96.558545 100.026575 
L 99.805091 99.540213 
L 103.051636 99.22931 
L 106.298182 99.051929 
L 109.544727 98.941322 
L 112.791273 98.877197 
L 116.037818 98.835797 
L 119.284364 98.811907 
L 122.530909 98.785803 
L 125.777455 98.615647 
L 129.024 98.615478 
L 132.270545 98.615379 
L 135.517091 98.615323 
L 138.763636 98.615289 
L 142.010182 98.615264 
L 145.256727 98.615244 
L 148.503273 98.615227 
L 151.749818 98.615212 
L 154.996364 98.615201 
L 158.242909 98.615191 
L 161.489455 98.615184 
L 164.736 98.615178 
L 167.982545 98.615172 
L 171.229091 98.648969 
L 174.475636 113.579563 
L 177.722182 122.556272 
L 180.968727 127.919832 
L 184.215273 131.123117 
L 187.461818 133.035571 
L 190.708364 134.203232 
L 193.954909 134.945139 
L 197.201455 135.43587 
L 200.448 135.771902 
L 203.694545 136.005836 
L 206.941091 136.17266 
L 210.187636 136.291152 
L 213.434182 136.376664 
L 216.680727 136.437403 
L 219.927273 136.481237 
L 223.173818 136.512727 
L 226.420364 136.535168 
L 229.666909 136.550458 
L 232.913455 136.561399 
L 236.16 136.568135 
L 239.406545 136.573487 
L 242.653091 136.576961 
L 245.899636 136.579741 
L 249.146182 136.581904 
L 252.392727 136.583391 
L 255.639273 136.584623 
L 258.885818 136.585579 
L 262.132364 136.586338 
L 265.378909 136.58685 
L 268.625455 136.58831 
L 271.872 138.021459 
L 275.118545 138.865416 
L 278.365091 139.35996 
L 281.611636 139.65083 
L 284.858182 139.825139 
L 288.104727 139.936118 
L 291.351273 140.011388 
L 294.597818 140.065973 
L 297.844364 140.107187 
L 301.090909 140.139232 
L 304.337455 140.164849 
L 307.584 140.185636 
L 310.830545 140.202745 
L 314.077091 140.216858 
L 317.323636 140.228954 
L 320.570182 140.239279 
L 323.816727 140.248183 
L 327.063273 140.256026 
L 330.309818 140.262983 
L 333.556364 140.269161 
L 336.802909 140.274672 
L 340.049455 140.279614 
L 343.296 140.284131 
L 346.542545 140.288184 
L 349.789091 140.291937 
L 353.035636 140.295406 
L 356.282182 140.298594 
L 359.528727 140.301577 
L 362.775273 140.304337 
L 366.021818 140.306924 
L 369.268364 140.309331 
L 372.514909 140.311568 
L 375.761455 140.313663 
L 379.008 140.315643 
L 382.254545 140.31753 
L 385.501091 140.319343 
L 388.747636 140.321024 
L 391.994182 140.322579 
L 395.240727 140.324016 
L 398.487273 140.325453 
" clip-path="url(#p88d65ea14c)" style="fill: none; stroke: #1f77b4; stroke-width: 1.5; stroke-linecap: square"/>
   </g>
   <g id="line2d_24">
    <path d="M 73.832727 139.898179 
L 77.079273 125.476014 
L 80.325818 114.610994 
L 83.572364 108.299516 
L 86.818909 104.52582 
L 90.065455 102.25413 
L 93.312 100.88302 
L 96.558545 100.045376 
L 99.805091 99.551054 
L 103.051636 99.235594 
L 106.298182 99.055331 
L 109.544727 98.943243 
L 112.791273 98.878372 
L 116.037818 98.836544 
L 119.284364 98.812401 
L 122.530909 98.791797 
L 125.777455 98.695785 
L 129.024 98.695664 
L 132.270545 98.695591 
L 135.517091 98.69555 
L 138.763636 98.695524 
L 142.010182 98.695504 
L 145.256727 98.695488 
L 148.503273 98.695474 
L 151.749818 98.695462 
L 154.996364 98.695452 
L 158.242909 98.695444 
L 161.489455 98.695437 
L 164.736 98.695432 
L 167.982545 98.695427 
L 171.229091 98.709492 
L 174.475636 113.598791 
L 177.722182 122.59279 
L 180.968727 127.98225 
L 184.215273 131.216824 
L 187.461818 133.155142 
L 190.708364 134.335542 
L 193.954909 135.076749 
L 197.201455 135.556888 
L 200.448 135.877321 
L 203.694545 136.093939 
L 206.941091 136.243926 
L 210.187636 136.347555 
L 213.434182 136.420264 
L 216.680727 136.470656 
L 219.927273 136.506188 
L 223.173818 136.531165 
L 226.420364 136.548631 
L 229.666909 136.560256 
L 232.913455 136.568599 
L 236.16 136.573525 
L 239.406545 136.577546 
L 242.653091 136.580092 
L 245.899636 136.582128 
L 249.146182 136.583707 
L 252.392727 136.584778 
L 255.639273 136.585665 
L 258.885818 136.58635 
L 262.132364 136.586894 
L 265.378909 136.587257 
L 268.625455 136.587587 
L 271.872 137.40935 
L 275.118545 137.877084 
L 278.365091 138.18354 
L 281.611636 138.408516 
L 284.858182 138.584464 
L 288.104727 138.727766 
L 291.351273 138.847532 
L 294.597818 138.949472 
L 297.844364 139.037527 
L 301.090909 139.114414 
L 304.337455 139.182269 
L 307.584 139.24272 
L 310.830545 139.297012 
L 314.077091 139.345495 
L 317.323636 139.390178 
L 320.570182 139.430671 
L 323.816727 139.467746 
L 327.063273 139.502005 
L 330.309818 139.533729 
L 333.556364 139.563135 
L 336.802909 139.590452 
L 340.049455 139.615891 
L 343.296 139.639741 
L 346.542545 139.662003 
L 349.789091 139.683011 
L 353.035636 139.702842 
L 356.282182 139.721553 
L 359.528727 139.739327 
L 362.775273 139.756162 
L 366.021818 139.7722 
L 369.268364 139.787433 
L 372.514909 139.801909 
L 375.761455 139.815714 
L 379.008 139.828952 
L 382.254545 139.841698 
L 385.501091 139.85402 
L 388.747636 139.865714 
L 391.994182 139.876803 
L 395.240727 139.887319 
L 398.487273 139.897771 
" clip-path="url(#p88d65ea14c)" style="fill: none; stroke: #ff7f0e; stroke-width: 1.5; stroke-linecap: square"/>
   </g>
   <g id="line2d_25">
    <path d="M 73.832727 139.794674 
L 77.079273 125.924544 
L 80.325818 114.767245 
L 83.572364 108.370997 
L 86.818909 104.561643 
L 90.065455 102.273142 
L 93.312 100.893413 
L 96.558545 100.051191 
L 99.805091 99.554408 
L 103.051636 99.23754 
L 106.298182 99.056386 
L 109.544727 98.943839 
L 112.791273 98.878737 
L 116.037818 98.836777 
L 119.284364 98.812555 
L 122.530909 98.79198 
L 125.777455 98.767802 
L 129.024 98.767793 
L 132.270545 98.767787 
L 135.517091 98.767784 
L 138.763636 98.767782 
L 142.010182 98.76778 
L 145.256727 98.767778 
L 148.503273 98.767777 
L 151.749818 98.767776 
L 154.996364 98.767775 
L 158.242909 98.767774 
L 161.489455 98.767774 
L 164.736 98.767773 
L 167.982545 98.767772 
L 171.229091 98.774466 
L 174.475636 113.646075 
L 177.722182 122.682942 
L 180.968727 128.13754 
L 184.215273 131.453046 
L 187.461818 133.461359 
L 190.708364 134.678624 
L 193.954909 135.41966 
L 197.201455 135.870838 
L 200.448 136.147625 
L 203.694545 136.316092 
L 206.941091 136.420124 
L 210.187636 136.484229 
L 213.434182 136.523849 
L 216.680727 136.548214 
L 219.927273 136.563353 
L 223.173818 136.572686 
L 226.420364 136.578473 
L 229.666909 136.581735 
L 232.913455 136.584291 
L 236.16 136.58533 
L 239.406545 136.586464 
L 242.653091 136.587028 
L 245.899636 136.587423 
L 249.146182 136.587698 
L 252.392727 136.587833 
L 255.639273 136.587943 
L 258.885818 136.58802 
L 262.132364 136.588083 
L 265.378909 136.588117 
L 268.625455 136.587927 
L 271.872 137.266384 
L 275.118545 137.669588 
L 278.365091 137.9516 
L 281.611636 138.170096 
L 284.858182 138.34749 
L 288.104727 138.495667 
L 291.351273 138.621742 
L 294.597818 138.730499 
L 297.844364 138.825432 
L 301.090909 138.909064 
L 304.337455 138.983402 
L 307.584 139.05004 
L 310.830545 139.110156 
L 314.077091 139.164164 
L 317.323636 139.214124 
L 320.570182 139.259562 
L 323.816727 139.301299 
L 327.063273 139.339974 
L 330.309818 139.375875 
L 333.556364 139.409233 
L 336.802909 139.440296 
L 340.049455 139.46929 
L 343.296 139.496524 
L 346.542545 139.521998 
L 349.789091 139.54607 
L 353.035636 139.568825 
L 356.282182 139.590326 
L 359.528727 139.61077 
L 362.775273 139.630161 
L 366.021818 139.648651 
L 369.268364 139.666234 
L 372.514909 139.68296 
L 375.761455 139.698925 
L 379.008 139.714254 
L 382.254545 139.729034 
L 385.501091 139.743341 
L 388.747636 139.756925 
L 391.994182 139.769807 
L 395.240727 139.782022 
L 398.487273 139.794211 
" clip-path="url(#p88d65ea14c)" style="fill: none; stroke: #2ca02c; stroke-width: 1.5; stroke-linecap: square"/>
   </g>
   <g id="patch_9">
    <path d="M 57.6 142.411034 
L 57.6 96.529655 
" style="fill: none; stroke: #000000; stroke-width: 0.8; stroke-linejoin: miter; stroke-linecap: square"/>
   </g>
   <g id="patch_10">
    <path d="M 414.72 142.411034 
L 414.72 96.529655 
" style="fill: none; stroke: #000000; stroke-width: 0.8; stroke-linejoin: miter; stroke-linecap: square"/>
   </g>
   <g id="patch_11">
    <path d="M 57.6 142.411034 
L 414.72 142.411034 
" style="fill: none; stroke: #000000; stroke-width: 0.8; stroke-linejoin: miter; stroke-linecap: square"/>
   </g>
   <g id="patch_12">
    <path d="M 57.6 96.529655 
L 414.72 96.529655 
" style="fill: none; stroke: #000000; stroke-width: 0.8; stroke-linejoin: miter; stroke-linecap: square"/>
   </g>
   <g id="text_10">
    <!-- Pressure -->
    <g transform="translate(210.546562 90.529655)scale(0.12 -0.12)">
     <defs>
      <path id="DejaVuSans-50" d="M 1259 4147 
L 1259 2394 
L 2053 2394 
Q 2494 2394 2734 2622 
Q 2975 2850 2975 3272 
Q 2975 3691 2734 3919 
Q 2494 4147 2053 4147 
L 1259 4147 
z
M 628 4666 
L 2053 4666 
Q 2838 4666 3239 4311 
Q 3641 3956 3641 3272 
Q 3641 2581 3239 2228 
Q 2838 1875 2053 1875 
L 1259 1875 
L 1259 0 
L 628 0 
L 628 4666 
z
" transform="scale(0.015625)"/>
      <path id="DejaVuSans-75" d="M 544 1381 
L 544 3500 
L 1119 3500 
L 1119 1403 
Q 1119 906 1312 657 
Q 1506 409 1894 409 
Q 2359 409 2629 706 
Q 2900 1003 2900 1516 
L 2900 3500 
L 3475 3500 
L 3475 0 
L 2900 0 
L 2900 538 
Q 2691 219 2414 64 
Q 2138 -91 1772 -91 
Q 1169 -91 856 284 
Q 544 659 544 1381 
z
M 1991 3584 
L 1991 3584 
z
" transform="scale(0.015625)"/>
     </defs>
     <use xlink:href="#DejaVuSans-50"/>
     <use xlink:href="#DejaVuSans-72" x="58.552734"/>
     <use xlink:href="#DejaVuSans-65" x="97.416016"/>
     <use xlink:href="#DejaVuSans-73" x="158.939453"/>
     <use xlink:href="#DejaVuSans-73" x="211.039062"/>
     <use xlink:href="#DejaVuSans-75" x="263.138672"/>
     <use xlink:href="#DejaVuSans-72" x="326.517578"/>
     <use xlink:href="#DejaVuSans-65" x="365.380859"/>
    </g>
   </g>
   <g id="legend_2">
    <g id="patch_13">
     <path d="M 350.823125 137.411034 
L 407.72 137.411034 
Q 409.72 137.411034 409.72 135.411034 
L 409.72 92.376659 
Q 409.72 90.376659 407.72 90.376659 
L 350.823125 90.376659 
Q 348.823125 90.376659 348.823125 92.376659 
L 348.823125 135.411034 
Q 348.823125 137.411034 350.823125 137.411034 
z
" style="fill: #ffffff; opacity: 0.8; stroke: #cccccc; stroke-linejoin: miter"/>
    </g>
    <g id="line2d_26">
     <path d="M 352.823125 98.475097 
L 362.823125 98.475097 
L 372.823125 98.475097 
" style="fill: none; stroke: #1f77b4; stroke-width: 1.5; stroke-linecap: square"/>
    </g>
    <g id="text_11">
     <!-- P1 -->
     <g transform="translate(380.823125 101.975097)scale(0.1 -0.1)">
      <use xlink:href="#DejaVuSans-50"/>
      <use xlink:href="#DejaVuSans-31" x="60.302734"/>
     </g>
    </g>
    <g id="line2d_27">
     <path d="M 352.823125 113.153222 
L 362.823125 113.153222 
L 372.823125 113.153222 
" style="fill: none; stroke: #ff7f0e; stroke-width: 1.5; stroke-linecap: square"/>
    </g>
    <g id="text_12">
     <!-- Pmid -->
     <g transform="translate(380.823125 116.653222)scale(0.1 -0.1)">
      <use xlink:href="#DejaVuSans-50"/>
      <use xlink:href="#DejaVuSans-6d" x="60.302734"/>
      <use xlink:href="#DejaVuSans-69" x="157.714844"/>
      <use xlink:href="#DejaVuSans-64" x="185.498047"/>
     </g>
    </g>
    <g id="line2d_28">
     <path d="M 352.823125 127.831347 
L 362.823125 127.831347 
L 372.823125 127.831347 
" style="fill: none; stroke: #2ca02c; stroke-width: 1.5; stroke-linecap: square"/>
    </g>
    <g id="text_13">
     <!-- PN -->
     <g transform="translate(380.823125 131.331347)scale(0.1 -0.1)">
      <use xlink:href="#DejaVuSans-50"/>
      <use xlink:href="#DejaVuSans-4e" x="60.302734"/>
     </g>
    </g>
   </g>
  </g>
  <g id="axes_3">
   <g id="patch_14">
    <path d="M 57.6 197.46869 
L 414.72 197.46869 
L 414.72 151.58731 
L 57.6 151.58731 
z
" style="fill: #ffffff"/>
   </g>
   <g id="matplotlib.axis_5">
    <g id="xtick_13">
     <g id="line2d_29">
      <g>
       <use xlink:href="#m405de8d761" x="73.832727" y="197.46869" style="stroke: #000000; stroke-width: 0.8"/>
      </g>
     </g>
    </g>
    <g id="xtick_14">
     <g id="line2d_30">
      <g>
       <use xlink:href="#m405de8d761" x="138.763636" y="197.46869" style="stroke: #000000; stroke-width: 0.8"/>
      </g>
     </g>
    </g>
    <g id="xtick_15">
     <g id="line2d_31">
      <g>
       <use xlink:href="#m405de8d761" x="203.694545" y="197.46869" style="stroke: #000000; stroke-width: 0.8"/>
      </g>
     </g>
    </g>
    <g id="xtick_16">
     <g id="line2d_32">
      <g>
       <use xlink:href="#m405de8d761" x="268.625455" y="197.46869" style="stroke: #000000; stroke-width: 0.8"/>
      </g>
     </g>
    </g>
    <g id="xtick_17">
     <g id="line2d_33">
      <g>
       <use xlink:href="#m405de8d761" x="333.556364" y="197.46869" style="stroke: #000000; stroke-width: 0.8"/>
      </g>
     </g>
    </g>
    <g id="xtick_18">
     <g id="line2d_34">
      <g>
       <use xlink:href="#m405de8d761" x="398.487273" y="197.46869" style="stroke: #000000; stroke-width: 0.8"/>
      </g>
     </g>
    </g>
   </g>
   <g id="matplotlib.axis_6">
    <g id="ytick_5">
     <g id="line2d_35">
      <g>
       <use xlink:href="#m96641831e5" x="57.6" y="184.185605" style="stroke: #000000; stroke-width: 0.8"/>
      </g>
     </g>
     <g id="text_14">
      <!-- 0.05 -->
      <g transform="translate(28.334375 187.984824)scale(0.1 -0.1)">
       <defs>
        <path id="DejaVuSans-2e" d="M 684 794 
L 1344 794 
L 1344 0 
L 684 0 
L 684 794 
z
" transform="scale(0.015625)"/>
       </defs>
       <use xlink:href="#DejaVuSans-30"/>
       <use xlink:href="#DejaVuSans-2e" x="63.623047"/>
       <use xlink:href="#DejaVuSans-30" x="95.410156"/>
       <use xlink:href="#DejaVuSans-35" x="159.033203"/>
      </g>
     </g>
    </g>
    <g id="ytick_6">
     <g id="line2d_36">
      <g>
       <use xlink:href="#m96641831e5" x="57.6" y="166.650092" style="stroke: #000000; stroke-width: 0.8"/>
      </g>
     </g>
     <g id="text_15">
      <!-- 0.10 -->
      <g transform="translate(28.334375 170.449311)scale(0.1 -0.1)">
       <use xlink:href="#DejaVuSans-30"/>
       <use xlink:href="#DejaVuSans-2e" x="63.623047"/>
       <use xlink:href="#DejaVuSans-31" x="95.410156"/>
       <use xlink:href="#DejaVuSans-30" x="159.033203"/>
      </g>
     </g>
    </g>
    <g id="text_16">
     <!-- fraction -->
     <g transform="translate(22.254687 193.73425)rotate(-90)scale(0.1 -0.1)">
      <use xlink:href="#DejaVuSans-66"/>
      <use xlink:href="#DejaVuSans-72" x="35.205078"/>
      <use xlink:href="#DejaVuSans-61" x="76.318359"/>
      <use xlink:href="#DejaVuSans-63" x="137.597656"/>
      <use xlink:href="#DejaVuSans-74" x="192.578125"/>
      <use xlink:href="#DejaVuSans-69" x="231.787109"/>
      <use xlink:href="#DejaVuSans-6f" x="259.570312"/>
      <use xlink:href="#DejaVuSans-6e" x="320.751953"/>
     </g>
    </g>
   </g>
   <g id="line2d_37">
    <path d="M 73.832727 195.383172 
L 77.079273 183.697879 
L 80.325818 183.69907 
L 83.572364 183.705669 
L 86.818909 183.668847 
L 90.065455 183.707803 
L 93.312 183.698134 
L 96.558545 183.671652 
L 99.805091 183.684607 
L 103.051636 183.678246 
L 106.298182 183.61354 
L 109.544727 183.633881 
L 112.791273 183.639576 
L 116.037818 183.637375 
L 119.284364 183.64244 
L 122.530909 183.637908 
L 125.777455 184.050238 
L 129.024 184.094782 
L 132.270545 184.124793 
L 135.517091 184.144394 
L 138.763636 184.157061 
L 142.010182 184.165665 
L 145.256727 184.171623 
L 148.503273 184.175744 
L 151.749818 184.178751 
L 154.996364 184.180881 
L 158.242909 184.182363 
L 161.489455 184.183377 
L 164.736 184.184057 
L 167.982545 184.184523 
L 171.229091 184.18487 
L 174.475636 184.509277 
L 177.722182 184.976074 
L 180.968727 185.520333 
L 184.215273 186.094735 
L 187.461818 186.624047 
L 190.708364 187.071854 
L 193.954909 187.434332 
L 197.201455 187.720238 
L 200.448 187.944154 
L 203.694545 188.11694 
L 206.941091 188.248392 
L 210.187636 188.348497 
L 213.434182 188.42201 
L 216.680727 188.476368 
L 219.927273 188.516761 
L 223.173818 188.546367 
L 226.420364 188.567672 
L 229.666909 188.582472 
L 232.913455 188.592868 
L 236.16 188.599432 
L 239.406545 188.604436 
L 242.653091 188.607771 
L 245.899636 188.610567 
L 249.146182 188.612703 
L 252.392727 188.614109 
L 255.639273 188.615262 
L 258.885818 188.61615 
L 262.132364 188.616839 
L 265.378909 188.617338 
L 268.625455 188.617832 
L 271.872 190.080354 
L 275.118545 191.124415 
L 278.365091 191.852714 
L 281.611636 192.358284 
L 284.858182 192.708807 
L 288.104727 192.95938 
L 291.351273 193.148873 
L 294.597818 193.303846 
L 297.844364 193.434741 
L 301.090909 193.550829 
L 304.337455 193.654786 
L 307.584 193.749569 
L 310.830545 193.836698 
L 314.077091 193.922719 
L 317.323636 194.001673 
L 320.570182 194.078494 
L 323.816727 194.15232 
L 327.063273 194.223675 
L 330.309818 194.292908 
L 333.556364 194.360138 
L 336.802909 194.42548 
L 340.049455 194.489042 
L 343.296 194.550959 
L 346.542545 194.611178 
L 349.789091 194.669858 
L 353.035636 194.726976 
L 356.282182 194.782492 
L 359.528727 194.836466 
L 362.775273 194.888849 
L 366.021818 194.939665 
L 369.268364 194.989181 
L 372.514909 195.037532 
L 375.761455 195.084749 
L 379.008 195.130569 
L 382.254545 195.174969 
L 385.501091 195.217994 
L 388.747636 195.260195 
L 391.994182 195.301661 
L 395.240727 195.342466 
L 398.487273 195.381858 
" clip-path="url(#p0cf4f90df2)" style="fill: none; stroke: #1f77b4; stroke-width: 1.5; stroke-linecap: square"/>
   </g>
   <g id="line2d_38">
    <path d="M 73.832727 194.894872 
L 77.079273 156.564313 
L 80.325818 154.239839 
L 83.572364 153.805224 
L 86.818909 153.687082 
L 90.065455 153.672828 
L 93.312 153.694957 
L 96.558545 153.737467 
L 99.805091 153.792189 
L 103.051636 153.85109 
L 106.298182 153.912776 
L 109.544727 153.976629 
L 112.791273 154.040647 
L 116.037818 154.104387 
L 119.284364 154.167569 
L 122.530909 154.228703 
L 125.777455 164.247161 
L 129.024 166.761874 
L 132.270545 168.917097 
L 135.517091 170.770228 
L 138.763636 172.374025 
L 142.010182 173.778351 
L 145.256727 175.015845 
L 148.503273 176.110405 
L 151.749818 177.083684 
L 154.996364 177.949506 
L 158.242909 178.719858 
L 161.489455 179.404871 
L 164.736 180.013338 
L 167.982545 180.553472 
L 171.229091 181.032215 
L 174.475636 181.278524 
L 177.722182 182.183748 
L 180.968727 183.162315 
L 184.215273 184.147194 
L 187.461818 185.02248 
L 190.708364 185.740047 
L 193.954909 186.29298 
L 197.201455 186.697616 
L 200.448 186.986457 
L 203.694545 187.186621 
L 206.941091 187.321545 
L 210.187636 187.413886 
L 213.434182 187.473184 
L 216.680727 187.513476 
L 219.927273 187.540446 
L 223.173818 187.558364 
L 226.420364 187.57024 
L 229.666909 187.577727 
L 232.913455 187.583302 
L 236.16 187.586272 
L 239.406545 187.588959 
L 242.653091 187.590622 
L 245.899636 187.59199 
L 249.146182 187.593024 
L 252.392727 187.59368 
L 255.639273 187.594259 
L 258.885818 187.594756 
L 262.132364 187.595185 
L 265.378909 187.595534 
L 268.625455 187.595779 
L 271.872 188.366563 
L 275.118545 188.915661 
L 278.365091 189.355892 
L 281.611636 189.738933 
L 284.858182 190.083283 
L 288.104727 190.397257 
L 291.351273 190.686169 
L 294.597818 190.953342 
L 297.844364 191.201461 
L 301.090909 191.432577 
L 304.337455 191.648379 
L 307.584 191.849495 
L 310.830545 192.041206 
L 314.077091 192.218439 
L 317.323636 192.389475 
L 320.570182 192.549444 
L 323.816727 192.701563 
L 327.063273 192.846216 
L 330.309818 192.984104 
L 333.556364 193.11553 
L 336.802909 193.240849 
L 340.049455 193.360406 
L 343.296 193.474635 
L 346.542545 193.583954 
L 349.789091 193.688866 
L 353.035636 193.789694 
L 356.282182 193.886739 
L 359.528727 193.980378 
L 362.775273 194.070452 
L 366.021818 194.157331 
L 369.268364 194.241355 
L 372.514909 194.322799 
L 375.761455 194.401892 
L 379.008 194.477912 
L 382.254545 194.550789 
L 385.501091 194.620651 
L 388.747636 194.689111 
L 391.994182 194.75643 
L 395.240727 194.822831 
L 398.487273 194.885798 
" clip-path="url(#p0cf4f90df2)" style="fill: none; stroke: #ff7f0e; stroke-width: 1.5; stroke-linecap: square"/>
   </g>
   <g id="patch_15">
    <path d="M 57.6 197.46869 
L 57.6 151.58731 
" style="fill: none; stroke: #000000; stroke-width: 0.8; stroke-linejoin: miter; stroke-linecap: square"/>
   </g>
   <g id="patch_16">
    <path d="M 414.72 197.46869 
L 414.72 151.58731 
" style="fill: none; stroke: #000000; stroke-width: 0.8; stroke-linejoin: miter; stroke-linecap: square"/>
   </g>
   <g id="patch_17">
    <path d="M 57.6 197.46869 
L 414.72 197.46869 
" style="fill: none; stroke: #000000; stroke-width: 0.8; stroke-linejoin: miter; stroke-linecap: square"/>
   </g>
   <g id="patch_18">
    <path d="M 57.6 151.58731 
L 414.72 151.58731 
" style="fill: none; stroke: #000000; stroke-width: 0.8; stroke-linejoin: miter; stroke-linecap: square"/>
   </g>
   <g id="text_17">
    <!-- yA -->
    <g transform="translate(228.504375 145.58731)scale(0.12 -0.12)">
     <defs>
      <path id="DejaVuSans-41" d="M 2188 4044 
L 1331 1722 
L 3047 1722 
L 2188 4044 
z
M 1831 4666 
L 2547 4666 
L 4325 0 
L 3669 0 
L 3244 1197 
L 1141 1197 
L 716 0 
L 50 0 
L 1831 4666 
z
" transform="scale(0.015625)"/>
     </defs>
     <use xlink:href="#DejaVuSans-79"/>
     <use xlink:href="#DejaVuSans-41" x="59.179688"/>
    </g>
   </g>
   <g id="legend_3">
    <g id="patch_19">
     <path d="M 330.030938 188.94356 
L 407.72 188.94356 
Q 409.72 188.94356 409.72 186.94356 
L 409.72 158.58731 
Q 409.72 156.58731 407.72 156.58731 
L 330.030938 156.58731 
Q 328.030938 156.58731 328.030938 158.58731 
L 328.030938 186.94356 
Q 328.030938 188.94356 330.030938 188.94356 
z
" style="fill: #ffffff; opacity: 0.8; stroke: #cccccc; stroke-linejoin: miter"/>
    </g>
    <g id="line2d_39">
     <path d="M 332.030938 164.685748 
L 342.030938 164.685748 
L 352.030938 164.685748 
" style="fill: none; stroke: #1f77b4; stroke-width: 1.5; stroke-linecap: square"/>
    </g>
    <g id="text_18">
     <!-- yA0 (in) -->
     <g transform="translate(360.030938 168.185748)scale(0.1 -0.1)">
      <use xlink:href="#DejaVuSans-79"/>
      <use xlink:href="#DejaVuSans-41" x="59.179688"/>
      <use xlink:href="#DejaVuSans-30" x="127.587891"/>
      <use xlink:href="#DejaVuSans-20" x="191.210938"/>
      <use xlink:href="#DejaVuSans-28" x="222.998047"/>
      <use xlink:href="#DejaVuSans-69" x="262.011719"/>
      <use xlink:href="#DejaVuSans-6e" x="289.794922"/>
      <use xlink:href="#DejaVuSans-29" x="353.173828"/>
     </g>
    </g>
    <g id="line2d_40">
     <path d="M 332.030938 179.363873 
L 342.030938 179.363873 
L 352.030938 179.363873 
" style="fill: none; stroke: #ff7f0e; stroke-width: 1.5; stroke-linecap: square"/>
    </g>
    <g id="text_19">
     <!-- yAL (out) -->
     <g transform="translate(360.030938 182.863873)scale(0.1 -0.1)">
      <defs>
       <path id="DejaVuSans-4c" d="M 628 4666 
L 1259 4666 
L 1259 531 
L 3531 531 
L 3531 0 
L 628 0 
L 628 4666 
z
" transform="scale(0.015625)"/>
      </defs>
      <use xlink:href="#DejaVuSans-79"/>
      <use xlink:href="#DejaVuSans-41" x="59.179688"/>
      <use xlink:href="#DejaVuSans-4c" x="127.587891"/>
      <use xlink:href="#DejaVuSans-20" x="183.300781"/>
      <use xlink:href="#DejaVuSans-28" x="215.087891"/>
      <use xlink:href="#DejaVuSans-6f" x="254.101562"/>
      <use xlink:href="#DejaVuSans-75" x="315.283203"/>
      <use xlink:href="#DejaVuSans-74" x="378.662109"/>
      <use xlink:href="#DejaVuSans-29" x="417.871094"/>
     </g>
    </g>
   </g>
  </g>
  <g id="axes_4">
   <g id="patch_20">
    <path d="M 57.6 252.526345 
L 414.72 252.526345 
L 414.72 206.644966 
L 57.6 206.644966 
z
" style="fill: #ffffff"/>
   </g>
   <g id="matplotlib.axis_7">
    <g id="xtick_19">
     <g id="line2d_41">
      <g>
       <use xlink:href="#m405de8d761" x="73.832727" y="252.526345" style="stroke: #000000; stroke-width: 0.8"/>
      </g>
     </g>
    </g>
    <g id="xtick_20">
     <g id="line2d_42">
      <g>
       <use xlink:href="#m405de8d761" x="138.763636" y="252.526345" style="stroke: #000000; stroke-width: 0.8"/>
      </g>
     </g>
    </g>
    <g id="xtick_21">
     <g id="line2d_43">
      <g>
       <use xlink:href="#m405de8d761" x="203.694545" y="252.526345" style="stroke: #000000; stroke-width: 0.8"/>
      </g>
     </g>
    </g>
    <g id="xtick_22">
     <g id="line2d_44">
      <g>
       <use xlink:href="#m405de8d761" x="268.625455" y="252.526345" style="stroke: #000000; stroke-width: 0.8"/>
      </g>
     </g>
    </g>
    <g id="xtick_23">
     <g id="line2d_45">
      <g>
       <use xlink:href="#m405de8d761" x="333.556364" y="252.526345" style="stroke: #000000; stroke-width: 0.8"/>
      </g>
     </g>
    </g>
    <g id="xtick_24">
     <g id="line2d_46">
      <g>
       <use xlink:href="#m405de8d761" x="398.487273" y="252.526345" style="stroke: #000000; stroke-width: 0.8"/>
      </g>
     </g>
    </g>
   </g>
   <g id="matplotlib.axis_8">
    <g id="ytick_7">
     <g id="line2d_47">
      <g>
       <use xlink:href="#m96641831e5" x="57.6" y="238.618819" style="stroke: #000000; stroke-width: 0.8"/>
      </g>
     </g>
     <g id="text_20">
      <!-- 0.85 -->
      <g transform="translate(28.334375 242.418038)scale(0.1 -0.1)">
       <defs>
        <path id="DejaVuSans-38" d="M 2034 2216 
Q 1584 2216 1326 1975 
Q 1069 1734 1069 1313 
Q 1069 891 1326 650 
Q 1584 409 2034 409 
Q 2484 409 2743 651 
Q 3003 894 3003 1313 
Q 3003 1734 2745 1975 
Q 2488 2216 2034 2216 
z
M 1403 2484 
Q 997 2584 770 2862 
Q 544 3141 544 3541 
Q 544 4100 942 4425 
Q 1341 4750 2034 4750 
Q 2731 4750 3128 4425 
Q 3525 4100 3525 3541 
Q 3525 3141 3298 2862 
Q 3072 2584 2669 2484 
Q 3125 2378 3379 2068 
Q 3634 1759 3634 1313 
Q 3634 634 3220 271 
Q 2806 -91 2034 -91 
Q 1263 -91 848 271 
Q 434 634 434 1313 
Q 434 1759 690 2068 
Q 947 2378 1403 2484 
z
M 1172 3481 
Q 1172 3119 1398 2916 
Q 1625 2713 2034 2713 
Q 2441 2713 2670 2916 
Q 2900 3119 2900 3481 
Q 2900 3844 2670 4047 
Q 2441 4250 2034 4250 
Q 1625 4250 1398 4047 
Q 1172 3844 1172 3481 
z
" transform="scale(0.015625)"/>
       </defs>
       <use xlink:href="#DejaVuSans-30"/>
       <use xlink:href="#DejaVuSans-2e" x="63.623047"/>
       <use xlink:href="#DejaVuSans-38" x="95.410156"/>
       <use xlink:href="#DejaVuSans-35" x="159.033203"/>
      </g>
     </g>
    </g>
    <g id="ytick_8">
     <g id="line2d_48">
      <g>
       <use xlink:href="#m96641831e5" x="57.6" y="218.46584" style="stroke: #000000; stroke-width: 0.8"/>
      </g>
     </g>
     <g id="text_21">
      <!-- 0.90 -->
      <g transform="translate(28.334375 222.265059)scale(0.1 -0.1)">
       <defs>
        <path id="DejaVuSans-39" d="M 703 97 
L 703 672 
Q 941 559 1184 500 
Q 1428 441 1663 441 
Q 2288 441 2617 861 
Q 2947 1281 2994 2138 
Q 2813 1869 2534 1725 
Q 2256 1581 1919 1581 
Q 1219 1581 811 2004 
Q 403 2428 403 3163 
Q 403 3881 828 4315 
Q 1253 4750 1959 4750 
Q 2769 4750 3195 4129 
Q 3622 3509 3622 2328 
Q 3622 1225 3098 567 
Q 2575 -91 1691 -91 
Q 1453 -91 1209 -44 
Q 966 3 703 97 
z
M 1959 2075 
Q 2384 2075 2632 2365 
Q 2881 2656 2881 3163 
Q 2881 3666 2632 3958 
Q 2384 4250 1959 4250 
Q 1534 4250 1286 3958 
Q 1038 3666 1038 3163 
Q 1038 2656 1286 2365 
Q 1534 2075 1959 2075 
z
" transform="scale(0.015625)"/>
       </defs>
       <use xlink:href="#DejaVuSans-30"/>
       <use xlink:href="#DejaVuSans-2e" x="63.623047"/>
       <use xlink:href="#DejaVuSans-39" x="95.410156"/>
       <use xlink:href="#DejaVuSans-30" x="159.033203"/>
      </g>
     </g>
    </g>
    <g id="text_22">
     <!-- fraction -->
     <g transform="translate(22.254687 248.791905)rotate(-90)scale(0.1 -0.1)">
      <use xlink:href="#DejaVuSans-66"/>
      <use xlink:href="#DejaVuSans-72" x="35.205078"/>
      <use xlink:href="#DejaVuSans-61" x="76.318359"/>
      <use xlink:href="#DejaVuSans-63" x="137.597656"/>
      <use xlink:href="#DejaVuSans-74" x="192.578125"/>
      <use xlink:href="#DejaVuSans-69" x="231.787109"/>
      <use xlink:href="#DejaVuSans-6f" x="259.570312"/>
      <use xlink:href="#DejaVuSans-6e" x="320.751953"/>
     </g>
    </g>
   </g>
   <g id="line2d_49">
    <path d="M 73.832727 210.200696 
L 77.079273 218.768773 
L 80.325818 218.763637 
L 83.572364 218.756962 
L 86.818909 218.782485 
L 90.065455 218.746005 
L 93.312 218.757329 
L 96.558545 218.770172 
L 99.805091 218.763552 
L 103.051636 218.767259 
L 106.298182 218.801564 
L 109.544727 218.801466 
L 112.791273 218.796264 
L 116.037818 218.798814 
L 119.284364 218.795344 
L 122.530909 218.799498 
L 125.777455 218.477679 
L 129.024 218.456443 
L 132.270545 218.445583 
L 135.517091 218.441578 
L 138.763636 218.441526 
L 142.010182 218.443141 
L 145.256727 218.445451 
L 148.503273 218.448002 
L 151.749818 218.450393 
L 154.996364 218.452623 
L 158.242909 218.454656 
L 161.489455 218.456469 
L 164.736 218.458054 
L 167.982545 218.459412 
L 171.229091 218.460501 
L 174.475636 218.171744 
L 177.722182 217.759375 
L 180.968727 217.283273 
L 184.215273 216.787706 
L 187.461818 216.336423 
L 190.708364 215.959306 
L 193.954909 215.656625 
L 197.201455 215.419372 
L 200.448 215.234387 
L 203.694545 215.092264 
L 206.941091 214.98366 
L 210.187636 214.901947 
L 213.434182 214.841775 
L 216.680727 214.7968 
L 219.927273 214.763679 
L 223.173818 214.739387 
L 226.420364 214.7219 
L 229.666909 214.709781 
L 232.913455 214.701231 
L 236.16 214.695859 
L 239.406545 214.691756 
L 242.653091 214.689021 
L 245.899636 214.68672 
L 249.146182 214.684958 
L 252.392727 214.683795 
L 255.639273 214.68284 
L 258.885818 214.682106 
L 262.132364 214.681535 
L 265.378909 214.681117 
L 268.625455 214.680742 
L 271.872 213.559198 
L 275.118545 212.879129 
L 278.365091 212.477955 
L 281.611636 212.231964 
L 284.858182 212.070047 
L 288.104727 211.950874 
L 291.351273 211.853035 
L 294.597818 211.765011 
L 297.844364 211.68271 
L 301.090909 211.603493 
L 304.337455 211.527306 
L 307.584 211.453712 
L 310.830545 211.380807 
L 314.077091 211.310323 
L 317.323636 211.241206 
L 320.570182 211.174053 
L 323.816727 211.108735 
L 327.063273 211.045193 
L 330.309818 210.983487 
L 333.556364 210.923614 
L 336.802909 210.865578 
L 340.049455 210.809387 
L 343.296 210.755037 
L 346.542545 210.702432 
L 349.789091 210.651573 
L 353.035636 210.602369 
L 356.282182 210.554726 
L 359.528727 210.508613 
L 362.775273 210.464075 
L 366.021818 210.421051 
L 369.268364 210.37933 
L 372.514909 210.338789 
L 375.761455 210.299381 
L 379.008 210.261265 
L 382.254545 210.224432 
L 385.501091 210.188824 
L 388.747636 210.154151 
L 391.994182 210.120349 
L 395.240727 210.087357 
L 398.487273 210.055332 
" clip-path="url(#pea83ffa4a1)" style="fill: none; stroke: #1f77b4; stroke-width: 1.5; stroke-linecap: square"/>
   </g>
   <g id="line2d_50">
    <path d="M 73.832727 209.897196 
L 77.079273 247.519138 
L 80.325818 249.889237 
L 83.572364 250.322695 
L 86.818909 250.434365 
L 90.065455 250.440828 
L 93.312 250.41129 
L 96.558545 250.361391 
L 99.805091 250.29924 
L 103.051636 250.233075 
L 106.298182 250.164273 
L 109.544727 250.093298 
L 112.791273 250.022287 
L 116.037818 249.951654 
L 119.284364 249.881691 
L 122.530909 249.814025 
L 125.777455 238.717733 
L 129.024 235.929979 
L 132.270545 233.540687 
L 135.517091 231.4866 
L 138.763636 229.709568 
L 142.010182 228.154623 
L 145.256727 226.785776 
L 148.503273 225.576664 
L 151.749818 224.503402 
L 154.996364 223.550731 
L 158.242909 222.705415 
L 161.489455 221.956263 
L 164.736 221.293551 
L 167.982545 220.708198 
L 171.229091 220.192478 
L 174.475636 219.982229 
L 177.722182 219.087337 
L 180.968727 218.137809 
L 184.215273 217.202907 
L 187.461818 216.390638 
L 190.708364 215.738069 
L 193.954909 215.242312 
L 197.201455 214.882358 
L 200.448 214.626067 
L 203.694545 214.448457 
L 206.941091 214.32738 
L 210.187636 214.245648 
L 213.434182 214.192031 
L 216.680727 214.155236 
L 219.927273 214.130722 
L 223.173818 214.114356 
L 226.420364 214.103455 
L 229.666909 214.096552 
L 232.913455 214.091415 
L 236.16 214.088654 
L 239.406545 214.086175 
L 242.653091 214.084625 
L 245.899636 214.083336 
L 249.146182 214.082359 
L 252.392727 214.081735 
L 255.639273 214.081184 
L 258.885818 214.080711 
L 262.132364 214.080302 
L 265.378909 214.079967 
L 268.625455 214.079712 
L 271.872 213.42703 
L 275.118545 212.973379 
L 278.365091 212.616249 
L 281.611636 212.309902 
L 284.858182 212.03796 
L 288.104727 211.79289 
L 291.351273 211.569945 
L 294.597818 211.366071 
L 297.844364 211.178807 
L 301.090909 211.006243 
L 304.337455 210.846768 
L 307.584 210.699355 
L 310.830545 210.561204 
L 314.077091 210.433435 
L 317.323636 210.313164 
L 320.570182 210.200906 
L 323.816727 210.095469 
L 327.063273 209.99613 
L 330.309818 209.902382 
L 333.556364 209.813936 
L 336.802909 209.730485 
L 340.049455 209.651738 
L 343.296 209.577308 
L 346.542545 209.506872 
L 349.789091 209.439984 
L 353.035636 209.376359 
L 356.282182 209.315728 
L 359.528727 209.25776 
L 362.775273 209.202575 
L 366.021818 209.149846 
L 369.268364 209.09939 
L 372.514909 209.051018 
L 375.761455 209.004537 
L 379.008 208.96017 
L 382.254545 208.917863 
L 385.501091 208.877483 
L 388.747636 208.838667 
L 391.994182 208.801298 
L 395.240727 208.765267 
L 398.487273 208.730483 
" clip-path="url(#pea83ffa4a1)" style="fill: none; stroke: #ff7f0e; stroke-width: 1.5; stroke-linecap: square"/>
   </g>
   <g id="patch_21">
    <path d="M 57.6 252.526345 
L 57.6 206.644966 
" style="fill: none; stroke: #000000; stroke-width: 0.8; stroke-linejoin: miter; stroke-linecap: square"/>
   </g>
   <g id="patch_22">
    <path d="M 414.72 252.526345 
L 414.72 206.644966 
" style="fill: none; stroke: #000000; stroke-width: 0.8; stroke-linejoin: miter; stroke-linecap: square"/>
   </g>
   <g id="patch_23">
    <path d="M 57.6 252.526345 
L 414.72 252.526345 
" style="fill: none; stroke: #000000; stroke-width: 0.8; stroke-linejoin: miter; stroke-linecap: square"/>
   </g>
   <g id="patch_24">
    <path d="M 57.6 206.644966 
L 414.72 206.644966 
" style="fill: none; stroke: #000000; stroke-width: 0.8; stroke-linejoin: miter; stroke-linecap: square"/>
   </g>
   <g id="text_23">
    <!-- yB -->
    <g transform="translate(228.492188 200.644966)scale(0.12 -0.12)">
     <defs>
      <path id="DejaVuSans-42" d="M 1259 2228 
L 1259 519 
L 2272 519 
Q 2781 519 3026 730 
Q 3272 941 3272 1375 
Q 3272 1813 3026 2020 
Q 2781 2228 2272 2228 
L 1259 2228 
z
M 1259 4147 
L 1259 2741 
L 2194 2741 
Q 2656 2741 2882 2914 
Q 3109 3088 3109 3444 
Q 3109 3797 2882 3972 
Q 2656 4147 2194 4147 
L 1259 4147 
z
M 628 4666 
L 2241 4666 
Q 2963 4666 3353 4366 
Q 3744 4066 3744 3513 
Q 3744 3084 3544 2831 
Q 3344 2578 2956 2516 
Q 3422 2416 3680 2098 
Q 3938 1781 3938 1306 
Q 3938 681 3513 340 
Q 3088 0 2303 0 
L 628 0 
L 628 4666 
z
" transform="scale(0.015625)"/>
     </defs>
     <use xlink:href="#DejaVuSans-79"/>
     <use xlink:href="#DejaVuSans-42" x="59.179688"/>
    </g>
   </g>
   <g id="legend_4">
    <g id="patch_25">
     <path d="M 330.010625 244.001216 
L 407.72 244.001216 
Q 409.72 244.001216 409.72 242.001216 
L 409.72 213.644966 
Q 409.72 211.644966 407.72 211.644966 
L 330.010625 211.644966 
Q 328.010625 211.644966 328.010625 213.644966 
L 328.010625 242.001216 
Q 328.010625 244.001216 330.010625 244.001216 
z
" style="fill: #ffffff; opacity: 0.8; stroke: #cccccc; stroke-linejoin: miter"/>
    </g>
    <g id="line2d_51">
     <path d="M 332.010625 219.743403 
L 342.010625 219.743403 
L 352.010625 219.743403 
" style="fill: none; stroke: #1f77b4; stroke-width: 1.5; stroke-linecap: square"/>
    </g>
    <g id="text_24">
     <!-- yB0 (in) -->
     <g transform="translate(360.010625 223.243403)scale(0.1 -0.1)">
      <use xlink:href="#DejaVuSans-79"/>
      <use xlink:href="#DejaVuSans-42" x="59.179688"/>
      <use xlink:href="#DejaVuSans-30" x="127.783203"/>
      <use xlink:href="#DejaVuSans-20" x="191.40625"/>
      <use xlink:href="#DejaVuSans-28" x="223.193359"/>
      <use xlink:href="#DejaVuSans-69" x="262.207031"/>
      <use xlink:href="#DejaVuSans-6e" x="289.990234"/>
      <use xlink:href="#DejaVuSans-29" x="353.369141"/>
     </g>
    </g>
    <g id="line2d_52">
     <path d="M 332.010625 234.421528 
L 342.010625 234.421528 
L 352.010625 234.421528 
" style="fill: none; stroke: #ff7f0e; stroke-width: 1.5; stroke-linecap: square"/>
    </g>
    <g id="text_25">
     <!-- yBL (out) -->
     <g transform="translate(360.010625 237.921528)scale(0.1 -0.1)">
      <use xlink:href="#DejaVuSans-79"/>
      <use xlink:href="#DejaVuSans-42" x="59.179688"/>
      <use xlink:href="#DejaVuSans-4c" x="127.783203"/>
      <use xlink:href="#DejaVuSans-20" x="183.496094"/>
      <use xlink:href="#DejaVuSans-28" x="215.283203"/>
      <use xlink:href="#DejaVuSans-6f" x="254.296875"/>
      <use xlink:href="#DejaVuSans-75" x="315.478516"/>
      <use xlink:href="#DejaVuSans-74" x="378.857422"/>
      <use xlink:href="#DejaVuSans-29" x="418.066406"/>
     </g>
    </g>
   </g>
  </g>
  <g id="axes_5">
   <g id="patch_26">
    <path d="M 57.6 307.584 
L 414.72 307.584 
L 414.72 261.702621 
L 57.6 261.702621 
z
" style="fill: #ffffff"/>
   </g>
   <g id="matplotlib.axis_9">
    <g id="xtick_25">
     <g id="line2d_53">
      <g>
       <use xlink:href="#m405de8d761" x="73.832727" y="307.584" style="stroke: #000000; stroke-width: 0.8"/>
      </g>
     </g>
     <g id="text_26">
      <!-- 0 -->
      <g transform="translate(70.651477 322.182437)scale(0.1 -0.1)">
       <use xlink:href="#DejaVuSans-30"/>
      </g>
     </g>
    </g>
    <g id="xtick_26">
     <g id="line2d_54">
      <g>
       <use xlink:href="#m405de8d761" x="138.763636" y="307.584" style="stroke: #000000; stroke-width: 0.8"/>
      </g>
     </g>
     <g id="text_27">
      <!-- 20 -->
      <g transform="translate(132.401136 322.182437)scale(0.1 -0.1)">
       <use xlink:href="#DejaVuSans-32"/>
       <use xlink:href="#DejaVuSans-30" x="63.623047"/>
      </g>
     </g>
    </g>
    <g id="xtick_27">
     <g id="line2d_55">
      <g>
       <use xlink:href="#m405de8d761" x="203.694545" y="307.584" style="stroke: #000000; stroke-width: 0.8"/>
      </g>
     </g>
     <g id="text_28">
      <!-- 40 -->
      <g transform="translate(197.332045 322.182437)scale(0.1 -0.1)">
       <defs>
        <path id="DejaVuSans-34" d="M 2419 4116 
L 825 1625 
L 2419 1625 
L 2419 4116 
z
M 2253 4666 
L 3047 4666 
L 3047 1625 
L 3713 1625 
L 3713 1100 
L 3047 1100 
L 3047 0 
L 2419 0 
L 2419 1100 
L 313 1100 
L 313 1709 
L 2253 4666 
z
" transform="scale(0.015625)"/>
       </defs>
       <use xlink:href="#DejaVuSans-34"/>
       <use xlink:href="#DejaVuSans-30" x="63.623047"/>
      </g>
     </g>
    </g>
    <g id="xtick_28">
     <g id="line2d_56">
      <g>
       <use xlink:href="#m405de8d761" x="268.625455" y="307.584" style="stroke: #000000; stroke-width: 0.8"/>
      </g>
     </g>
     <g id="text_29">
      <!-- 60 -->
      <g transform="translate(262.262955 322.182437)scale(0.1 -0.1)">
       <defs>
        <path id="DejaVuSans-36" d="M 2113 2584 
Q 1688 2584 1439 2293 
Q 1191 2003 1191 1497 
Q 1191 994 1439 701 
Q 1688 409 2113 409 
Q 2538 409 2786 701 
Q 3034 994 3034 1497 
Q 3034 2003 2786 2293 
Q 2538 2584 2113 2584 
z
M 3366 4563 
L 3366 3988 
Q 3128 4100 2886 4159 
Q 2644 4219 2406 4219 
Q 1781 4219 1451 3797 
Q 1122 3375 1075 2522 
Q 1259 2794 1537 2939 
Q 1816 3084 2150 3084 
Q 2853 3084 3261 2657 
Q 3669 2231 3669 1497 
Q 3669 778 3244 343 
Q 2819 -91 2113 -91 
Q 1303 -91 875 529 
Q 447 1150 447 2328 
Q 447 3434 972 4092 
Q 1497 4750 2381 4750 
Q 2619 4750 2861 4703 
Q 3103 4656 3366 4563 
z
" transform="scale(0.015625)"/>
       </defs>
       <use xlink:href="#DejaVuSans-36"/>
       <use xlink:href="#DejaVuSans-30" x="63.623047"/>
      </g>
     </g>
    </g>
    <g id="xtick_29">
     <g id="line2d_57">
      <g>
       <use xlink:href="#m405de8d761" x="333.556364" y="307.584" style="stroke: #000000; stroke-width: 0.8"/>
      </g>
     </g>
     <g id="text_30">
      <!-- 80 -->
      <g transform="translate(327.193864 322.182437)scale(0.1 -0.1)">
       <use xlink:href="#DejaVuSans-38"/>
       <use xlink:href="#DejaVuSans-30" x="63.623047"/>
      </g>
     </g>
    </g>
    <g id="xtick_30">
     <g id="line2d_58">
      <g>
       <use xlink:href="#m405de8d761" x="398.487273" y="307.584" style="stroke: #000000; stroke-width: 0.8"/>
      </g>
     </g>
     <g id="text_31">
      <!-- 100 -->
      <g transform="translate(388.943523 322.182437)scale(0.1 -0.1)">
       <use xlink:href="#DejaVuSans-31"/>
       <use xlink:href="#DejaVuSans-30" x="63.623047"/>
       <use xlink:href="#DejaVuSans-30" x="127.246094"/>
      </g>
     </g>
    </g>
    <g id="text_32">
     <!-- time (normalized) -->
     <g transform="translate(191.589687 335.860562)scale(0.1 -0.1)">
      <use xlink:href="#DejaVuSans-74"/>
      <use xlink:href="#DejaVuSans-69" x="39.208984"/>
      <use xlink:href="#DejaVuSans-6d" x="66.992188"/>
      <use xlink:href="#DejaVuSans-65" x="164.404297"/>
      <use xlink:href="#DejaVuSans-20" x="225.927734"/>
      <use xlink:href="#DejaVuSans-28" x="257.714844"/>
      <use xlink:href="#DejaVuSans-6e" x="296.728516"/>
      <use xlink:href="#DejaVuSans-6f" x="360.107422"/>
      <use xlink:href="#DejaVuSans-72" x="421.289062"/>
      <use xlink:href="#DejaVuSans-6d" x="460.652344"/>
      <use xlink:href="#DejaVuSans-61" x="558.064453"/>
      <use xlink:href="#DejaVuSans-6c" x="619.34375"/>
      <use xlink:href="#DejaVuSans-69" x="647.126953"/>
      <use xlink:href="#DejaVuSans-7a" x="674.910156"/>
      <use xlink:href="#DejaVuSans-65" x="727.400391"/>
      <use xlink:href="#DejaVuSans-64" x="788.923828"/>
      <use xlink:href="#DejaVuSans-29" x="852.400391"/>
     </g>
    </g>
   </g>
   <g id="matplotlib.axis_10">
    <g id="ytick_9">
     <g id="line2d_59">
      <g>
       <use xlink:href="#m96641831e5" x="57.6" y="288.722555" style="stroke: #000000; stroke-width: 0.8"/>
      </g>
     </g>
     <g id="text_33">
      <!-- 0.05 -->
      <g transform="translate(28.334375 292.521774)scale(0.1 -0.1)">
       <use xlink:href="#DejaVuSans-30"/>
       <use xlink:href="#DejaVuSans-2e" x="63.623047"/>
       <use xlink:href="#DejaVuSans-30" x="95.410156"/>
       <use xlink:href="#DejaVuSans-35" x="159.033203"/>
      </g>
     </g>
    </g>
    <g id="ytick_10">
     <g id="line2d_60">
      <g>
       <use xlink:href="#m96641831e5" x="57.6" y="266.892859" style="stroke: #000000; stroke-width: 0.8"/>
      </g>
     </g>
     <g id="text_34">
      <!-- 0.06 -->
      <g transform="translate(28.334375 270.692077)scale(0.1 -0.1)">
       <use xlink:href="#DejaVuSans-30"/>
       <use xlink:href="#DejaVuSans-2e" x="63.623047"/>
       <use xlink:href="#DejaVuSans-30" x="95.410156"/>
       <use xlink:href="#DejaVuSans-36" x="159.033203"/>
      </g>
     </g>
    </g>
    <g id="text_35">
     <!-- fraction -->
     <g transform="translate(22.254687 303.84956)rotate(-90)scale(0.1 -0.1)">
      <use xlink:href="#DejaVuSans-66"/>
      <use xlink:href="#DejaVuSans-72" x="35.205078"/>
      <use xlink:href="#DejaVuSans-61" x="76.318359"/>
      <use xlink:href="#DejaVuSans-63" x="137.597656"/>
      <use xlink:href="#DejaVuSans-74" x="192.578125"/>
      <use xlink:href="#DejaVuSans-69" x="231.787109"/>
      <use xlink:href="#DejaVuSans-6f" x="259.570312"/>
      <use xlink:href="#DejaVuSans-6e" x="320.751953"/>
     </g>
    </g>
   </g>
   <g id="line2d_61">
    <path d="M 73.832727 263.788138 
L 77.079273 290.117684 
L 80.325818 290.138092 
L 83.572364 290.13317 
L 86.818909 290.224132 
L 90.065455 290.179228 
L 93.312 290.17808 
L 96.558545 290.273357 
L 99.805091 290.228576 
L 103.051636 290.248087 
L 106.298182 290.465055 
L 109.544727 290.338977 
L 112.791273 290.331694 
L 116.037818 290.331588 
L 119.284364 290.318851 
L 122.530909 290.324569 
L 125.777455 289.501022 
L 129.024 289.338777 
L 132.270545 289.210791 
L 135.517091 289.110477 
L 138.763636 289.031915 
L 142.010182 288.969615 
L 145.256727 288.920016 
L 148.503273 288.88055 
L 151.749818 288.848881 
L 154.996364 288.823545 
L 158.242909 288.803307 
L 161.489455 288.787181 
L 164.736 288.774359 
L 167.982545 288.764106 
L 171.229091 288.75605 
L 174.475636 288.300709 
L 177.722182 287.628554 
L 180.968727 286.819424 
L 184.215273 285.928091 
L 187.461818 285.077575 
L 190.708364 284.3327 
L 193.954909 283.715803 
L 197.201455 283.221161 
L 200.448 282.829298 
L 203.694545 282.523538 
L 206.941091 282.293526 
L 210.187636 282.112989 
L 213.434182 281.981304 
L 216.680727 281.886538 
L 219.927273 281.814498 
L 223.173818 281.761785 
L 226.420364 281.723883 
L 229.666909 281.697396 
L 232.913455 281.678998 
L 236.16 281.66723 
L 239.406545 281.658306 
L 242.653091 281.652362 
L 245.899636 281.64742 
L 249.146182 281.643664 
L 252.392727 281.641217 
L 255.639273 281.639206 
L 258.885818 281.637656 
L 262.132364 281.636459 
L 265.378909 281.635621 
L 268.625455 281.634581 
L 271.872 278.602799 
L 275.118545 275.789573 
L 278.365091 273.429649 
L 281.611636 271.614972 
L 284.858182 270.310123 
L 288.104727 269.395895 
L 291.351273 268.746303 
L 294.597818 268.258425 
L 297.844364 267.88942 
L 301.090909 267.59588 
L 304.337455 267.361436 
L 307.584 267.170052 
L 310.830545 267.022576 
L 314.077091 266.868886 
L 317.323636 266.751778 
L 320.570182 266.637312 
L 323.816727 266.531556 
L 327.063273 266.431548 
L 330.309818 266.334816 
L 333.556364 266.240619 
L 336.802909 266.148227 
L 340.049455 266.05692 
L 343.296 265.965881 
L 346.542545 265.875961 
L 349.789091 265.786165 
L 353.035636 265.697123 
L 356.282182 265.609607 
L 359.528727 265.523395 
L 362.775273 265.438561 
L 366.021818 265.355277 
L 369.268364 265.273031 
L 372.514909 265.19164 
L 375.761455 265.111178 
L 379.008 265.032408 
L 382.254545 264.955532 
L 385.501091 264.880579 
L 388.747636 264.805689 
L 391.994182 264.730664 
L 395.240727 264.655355 
L 398.487273 264.583615 
" clip-path="url(#paa26f9a1fc)" style="fill: none; stroke: #1f77b4; stroke-width: 1.5; stroke-linecap: square"/>
   </g>
   <g id="line2d_62">
    <path d="M 73.832727 268.471287 
L 77.079273 303.296625 
L 80.325818 304.928689 
L 83.572364 305.28631 
L 86.818909 305.41687 
L 90.065455 305.470594 
L 93.312 305.492826 
L 96.558545 305.498483 
L 99.805091 305.494476 
L 103.051636 305.486196 
L 106.298182 305.474873 
L 109.544727 305.461826 
L 112.791273 305.447945 
L 116.037818 305.433749 
L 119.284364 305.419397 
L 122.530909 305.405352 
L 125.777455 303.143708 
L 129.024 302.589528 
L 132.270545 302.114904 
L 135.517091 301.705161 
L 138.763636 301.34685 
L 142.010182 301.027308 
L 145.256727 300.738292 
L 148.503273 300.473833 
L 151.749818 300.228516 
L 154.996364 299.998933 
L 158.242909 299.782158 
L 161.489455 299.575756 
L 164.736 299.377643 
L 167.982545 299.185888 
L 171.229091 298.999134 
L 174.475636 298.604709 
L 177.722182 297.816941 
L 180.968727 296.868567 
L 184.215273 295.801685 
L 187.461818 294.75278 
L 190.708364 293.82065 
L 193.954909 293.063981 
L 197.201455 292.494863 
L 200.448 292.085064 
L 203.694545 291.801094 
L 206.941091 291.61702 
L 210.187636 291.484921 
L 213.434182 291.406208 
L 216.680727 291.354693 
L 219.927273 291.319591 
L 223.173818 291.296701 
L 226.420364 291.281819 
L 229.666909 291.272606 
L 232.913455 291.265723 
L 236.16 291.262192 
L 239.406545 291.258894 
L 242.653091 291.256937 
L 245.899636 291.255398 
L 249.146182 291.254255 
L 252.392727 291.253555 
L 255.639273 291.252936 
L 258.885818 291.252407 
L 262.132364 291.251948 
L 265.378909 291.251595 
L 268.625455 291.251449 
L 271.872 289.988684 
L 275.118545 289.027833 
L 278.365091 288.221865 
L 281.611636 287.496828 
L 284.858182 286.826283 
L 288.104727 286.199279 
L 291.351273 285.608437 
L 294.597818 285.049617 
L 297.844364 284.519438 
L 301.090909 284.015487 
L 304.337455 283.535959 
L 307.584 283.082516 
L 310.830545 282.637452 
L 314.077091 282.22627 
L 317.323636 281.81306 
L 320.570182 281.425334 
L 323.816727 281.049522 
L 327.063273 280.687162 
L 330.309818 280.336626 
L 333.556364 279.997599 
L 336.802909 279.669537 
L 340.049455 279.351856 
L 343.296 279.043955 
L 346.542545 278.744992 
L 349.789091 278.454235 
L 353.035636 278.171232 
L 356.282182 277.895568 
L 359.528727 277.626663 
L 362.775273 277.364892 
L 366.021818 277.109701 
L 369.268364 276.859973 
L 372.514909 276.615008 
L 375.761455 276.37444 
L 379.008 276.141555 
L 382.254545 275.917064 
L 385.501091 275.700918 
L 388.747636 275.485021 
L 391.994182 275.268383 
L 395.240727 275.050228 
L 398.487273 274.846684 
" clip-path="url(#paa26f9a1fc)" style="fill: none; stroke: #ff7f0e; stroke-width: 1.5; stroke-linecap: square"/>
   </g>
   <g id="patch_27">
    <path d="M 57.6 307.584 
L 57.6 261.702621 
" style="fill: none; stroke: #000000; stroke-width: 0.8; stroke-linejoin: miter; stroke-linecap: square"/>
   </g>
   <g id="patch_28">
    <path d="M 414.72 307.584 
L 414.72 261.702621 
" style="fill: none; stroke: #000000; stroke-width: 0.8; stroke-linejoin: miter; stroke-linecap: square"/>
   </g>
   <g id="patch_29">
    <path d="M 57.6 307.584 
L 414.72 307.584 
" style="fill: none; stroke: #000000; stroke-width: 0.8; stroke-linejoin: miter; stroke-linecap: square"/>
   </g>
   <g id="patch_30">
    <path d="M 57.6 261.702621 
L 414.72 261.702621 
" style="fill: none; stroke: #000000; stroke-width: 0.8; stroke-linejoin: miter; stroke-linecap: square"/>
   </g>
   <g id="text_36">
    <!-- yC -->
    <g transform="translate(228.419062 255.702621)scale(0.12 -0.12)">
     <defs>
      <path id="DejaVuSans-43" d="M 4122 4306 
L 4122 3641 
Q 3803 3938 3442 4084 
Q 3081 4231 2675 4231 
Q 1875 4231 1450 3742 
Q 1025 3253 1025 2328 
Q 1025 1406 1450 917 
Q 1875 428 2675 428 
Q 3081 428 3442 575 
Q 3803 722 4122 1019 
L 4122 359 
Q 3791 134 3420 21 
Q 3050 -91 2638 -91 
Q 1578 -91 968 557 
Q 359 1206 359 2328 
Q 359 3453 968 4101 
Q 1578 4750 2638 4750 
Q 3056 4750 3426 4639 
Q 3797 4528 4122 4306 
z
" transform="scale(0.015625)"/>
     </defs>
     <use xlink:href="#DejaVuSans-79"/>
     <use xlink:href="#DejaVuSans-43" x="59.179688"/>
    </g>
   </g>
   <g id="legend_5">
    <g id="patch_31">
     <path d="M 329.88875 299.058871 
L 407.72 299.058871 
Q 409.72 299.058871 409.72 297.058871 
L 409.72 268.702621 
Q 409.72 266.702621 407.72 266.702621 
L 329.88875 266.702621 
Q 327.88875 266.702621 327.88875 268.702621 
L 327.88875 297.058871 
Q 327.88875 299.058871 329.88875 299.058871 
z
" style="fill: #ffffff; opacity: 0.8; stroke: #cccccc; stroke-linejoin: miter"/>
    </g>
    <g id="line2d_63">
     <path d="M 331.88875 274.801058 
L 341.88875 274.801058 
L 351.88875 274.801058 
" style="fill: none; stroke: #1f77b4; stroke-width: 1.5; stroke-linecap: square"/>
    </g>
    <g id="text_37">
     <!-- yC0 (in) -->
     <g transform="translate(359.88875 278.301058)scale(0.1 -0.1)">
      <use xlink:href="#DejaVuSans-79"/>
      <use xlink:href="#DejaVuSans-43" x="59.179688"/>
      <use xlink:href="#DejaVuSans-30" x="129.003906"/>
      <use xlink:href="#DejaVuSans-20" x="192.626953"/>
      <use xlink:href="#DejaVuSans-28" x="224.414062"/>
      <use xlink:href="#DejaVuSans-69" x="263.427734"/>
      <use xlink:href="#DejaVuSans-6e" x="291.210938"/>
      <use xlink:href="#DejaVuSans-29" x="354.589844"/>
     </g>
    </g>
    <g id="line2d_64">
     <path d="M 331.88875 289.479183 
L 341.88875 289.479183 
L 351.88875 289.479183 
" style="fill: none; stroke: #ff7f0e; stroke-width: 1.5; stroke-linecap: square"/>
    </g>
    <g id="text_38">
     <!-- yCL (out) -->
     <g transform="translate(359.88875 292.979183)scale(0.1 -0.1)">
      <use xlink:href="#DejaVuSans-79"/>
      <use xlink:href="#DejaVuSans-43" x="59.179688"/>
      <use xlink:href="#DejaVuSans-4c" x="129.003906"/>
      <use xlink:href="#DejaVuSans-20" x="184.716797"/>
      <use xlink:href="#DejaVuSans-28" x="216.503906"/>
      <use xlink:href="#DejaVuSans-6f" x="255.517578"/>
      <use xlink:href="#DejaVuSans-75" x="316.699219"/>
      <use xlink:href="#DejaVuSans-74" x="380.078125"/>
      <use xlink:href="#DejaVuSans-29" x="419.287109"/>
     </g>
    </g>
   </g>
  </g>
 </g>
 <defs>
  <clipPath id="p8056f276b2">
   <rect x="57.6" y="41.472" width="357.12" height="45.881379"/>
  </clipPath>
  <clipPath id="p88d65ea14c">
   <rect x="57.6" y="96.529655" width="357.12" height="45.881379"/>
  </clipPath>
  <clipPath id="p0cf4f90df2">
   <rect x="57.6" y="151.58731" width="357.12" height="45.881379"/>
  </clipPath>
  <clipPath id="pea83ffa4a1">
   <rect x="57.6" y="206.644966" width="357.12" height="45.881379"/>
  </clipPath>
  <clipPath id="paa26f9a1fc">
   <rect x="57.6" y="261.702621" width="357.12" height="45.881379"/>
  </clipPath>
 </defs>
</svg>
