<?xml version="1.0" encoding="utf-8" standalone="no"?>
<!DOCTYPE svg PUBLIC "-//W3C//DTD SVG 1.1//EN"
  "http://www.w3.org/Graphics/SVG/1.1/DTD/svg11.dtd">
<svg xmlns:xlink="http://www.w3.org/1999/xlink" width="460.8pt" height="345.6pt" viewBox="0 0 460.8 345.6" xmlns="http://www.w3.org/2000/svg" version="1.1">
 <metadata>
  <rdf:RDF xmlns:dc="http://purl.org/dc/elements/1.1/" xmlns:cc="http://creativecommons.org/ns#" xmlns:rdf="http://www.w3.org/1999/02/22-rdf-syntax-ns#">
   <cc:Work>
    <dc:type rdf:resource="http://purl.org/dc/dcmitype/StillImage"/>
    <dc:date>2022-07-10T00:04:51.293672</dc:date>
    <dc:format>image/svg+xml</dc:format>
    <dc:creator>
     <cc:Agent>
      <dc:title>Matplotlib v3.5.2, https://matplotlib.org/</dc:title>
     </cc:Agent>
    </dc:creator>
   </cc:Work>
  </rdf:RDF>
 </metadata>
 <defs>
  <style type="text/css">*{stroke-linejoin: round; stroke-linecap: butt}</style>
 </defs>
 <g id="figure_1">
  <g id="patch_1">
   <path d="M 0 345.6 
L 460.8 345.6 
L 460.8 0 
L 0 0 
z
" style="fill: #ffffff"/>
  </g>
  <g id="axes_1">
   <g id="patch_2">
    <path d="M 57.6 87.353379 
L 414.72 87.353379 
L 414.72 41.472 
L 57.6 41.472 
z
" style="fill: #ffffff"/>
   </g>
   <g id="matplotlib.axis_1">
    <g id="xtick_1">
     <g id="line2d_1">
      <defs>
       <path id="m0ce1a3246a" d="M 0 0 
L 0 3.5 
" style="stroke: #000000; stroke-width: 0.8"/>
      </defs>
      <g>
       <use xlink:href="#m0ce1a3246a" x="73.832727" y="87.353379" style="stroke: #000000; stroke-width: 0.8"/>
      </g>
     </g>
    </g>
    <g id="xtick_2">
     <g id="line2d_2">
      <g>
       <use xlink:href="#m0ce1a3246a" x="138.763636" y="87.353379" style="stroke: #000000; stroke-width: 0.8"/>
      </g>
     </g>
    </g>
    <g id="xtick_3">
     <g id="line2d_3">
      <g>
       <use xlink:href="#m0ce1a3246a" x="203.694545" y="87.353379" style="stroke: #000000; stroke-width: 0.8"/>
      </g>
     </g>
    </g>
    <g id="xtick_4">
     <g id="line2d_4">
      <g>
       <use xlink:href="#m0ce1a3246a" x="268.625455" y="87.353379" style="stroke: #000000; stroke-width: 0.8"/>
      </g>
     </g>
    </g>
    <g id="xtick_5">
     <g id="line2d_5">
      <g>
       <use xlink:href="#m0ce1a3246a" x="333.556364" y="87.353379" style="stroke: #000000; stroke-width: 0.8"/>
      </g>
     </g>
    </g>
    <g id="xtick_6">
     <g id="line2d_6">
      <g>
       <use xlink:href="#m0ce1a3246a" x="398.487273" y="87.353379" style="stroke: #000000; stroke-width: 0.8"/>
      </g>
     </g>
    </g>
   </g>
   <g id="matplotlib.axis_2">
    <g id="ytick_1">
     <g id="line2d_7">
      <defs>
       <path id="m1175363d59" d="M 0 0 
L -3.5 0 
" style="stroke: #000000; stroke-width: 0.8"/>
      </defs>
      <g>
       <use xlink:href="#m1175363d59" x="57.6" y="78.45011" style="stroke: #000000; stroke-width: 0.8"/>
      </g>
     </g>
     <g id="text_1">
      <!-- −10 -->
      <g transform="translate(29.495313 82.249329)scale(0.1 -0.1)">
       <defs>
        <path id="DejaVuSans-2212" d="M 678 2272 
L 4684 2272 
L 4684 1741 
L 678 1741 
L 678 2272 
z
" transform="scale(0.015625)"/>
        <path id="DejaVuSans-31" d="M 794 531 
L 1825 531 
L 1825 4091 
L 703 3866 
L 703 4441 
L 1819 4666 
L 2450 4666 
L 2450 531 
L 3481 531 
L 3481 0 
L 794 0 
L 794 531 
z
" transform="scale(0.015625)"/>
        <path id="DejaVuSans-30" d="M 2034 4250 
Q 1547 4250 1301 3770 
Q 1056 3291 1056 2328 
Q 1056 1369 1301 889 
Q 1547 409 2034 409 
Q 2525 409 2770 889 
Q 3016 1369 3016 2328 
Q 3016 3291 2770 3770 
Q 2525 4250 2034 4250 
z
M 2034 4750 
Q 2819 4750 3233 4129 
Q 3647 3509 3647 2328 
Q 3647 1150 3233 529 
Q 2819 -91 2034 -91 
Q 1250 -91 836 529 
Q 422 1150 422 2328 
Q 422 3509 836 4129 
Q 1250 4750 2034 4750 
z
" transform="scale(0.015625)"/>
       </defs>
       <use xlink:href="#DejaVuSans-2212"/>
       <use xlink:href="#DejaVuSans-31" x="83.789062"/>
       <use xlink:href="#DejaVuSans-30" x="147.412109"/>
      </g>
     </g>
    </g>
    <g id="ytick_2">
     <g id="line2d_8">
      <g>
       <use xlink:href="#m1175363d59" x="57.6" y="57.299087" style="stroke: #000000; stroke-width: 0.8"/>
      </g>
     </g>
     <g id="text_2">
      <!-- 0 -->
      <g transform="translate(44.2375 61.098306)scale(0.1 -0.1)">
       <use xlink:href="#DejaVuSans-30"/>
      </g>
     </g>
    </g>
    <g id="text_3">
     <!-- flow rate (normalized) -->
     <g transform="translate(23.415625 119.729877)rotate(-90)scale(0.1 -0.1)">
      <defs>
       <path id="DejaVuSans-66" d="M 2375 4863 
L 2375 4384 
L 1825 4384 
Q 1516 4384 1395 4259 
Q 1275 4134 1275 3809 
L 1275 3500 
L 2222 3500 
L 2222 3053 
L 1275 3053 
L 1275 0 
L 697 0 
L 697 3053 
L 147 3053 
L 147 3500 
L 697 3500 
L 697 3744 
Q 697 4328 969 4595 
Q 1241 4863 1831 4863 
L 2375 4863 
z
" transform="scale(0.015625)"/>
       <path id="DejaVuSans-6c" d="M 603 4863 
L 1178 4863 
L 1178 0 
L 603 0 
L 603 4863 
z
" transform="scale(0.015625)"/>
       <path id="DejaVuSans-6f" d="M 1959 3097 
Q 1497 3097 1228 2736 
Q 959 2375 959 1747 
Q 959 1119 1226 758 
Q 1494 397 1959 397 
Q 2419 397 2687 759 
Q 2956 1122 2956 1747 
Q 2956 2369 2687 2733 
Q 2419 3097 1959 3097 
z
M 1959 3584 
Q 2709 3584 3137 3096 
Q 3566 2609 3566 1747 
Q 3566 888 3137 398 
Q 2709 -91 1959 -91 
Q 1206 -91 779 398 
Q 353 888 353 1747 
Q 353 2609 779 3096 
Q 1206 3584 1959 3584 
z
" transform="scale(0.015625)"/>
       <path id="DejaVuSans-77" d="M 269 3500 
L 844 3500 
L 1563 769 
L 2278 3500 
L 2956 3500 
L 3675 769 
L 4391 3500 
L 4966 3500 
L 4050 0 
L 3372 0 
L 2619 2869 
L 1863 0 
L 1184 0 
L 269 3500 
z
" transform="scale(0.015625)"/>
       <path id="DejaVuSans-20" transform="scale(0.015625)"/>
       <path id="DejaVuSans-72" d="M 2631 2963 
Q 2534 3019 2420 3045 
Q 2306 3072 2169 3072 
Q 1681 3072 1420 2755 
Q 1159 2438 1159 1844 
L 1159 0 
L 581 0 
L 581 3500 
L 1159 3500 
L 1159 2956 
Q 1341 3275 1631 3429 
Q 1922 3584 2338 3584 
Q 2397 3584 2469 3576 
Q 2541 3569 2628 3553 
L 2631 2963 
z
" transform="scale(0.015625)"/>
       <path id="DejaVuSans-61" d="M 2194 1759 
Q 1497 1759 1228 1600 
Q 959 1441 959 1056 
Q 959 750 1161 570 
Q 1363 391 1709 391 
Q 2188 391 2477 730 
Q 2766 1069 2766 1631 
L 2766 1759 
L 2194 1759 
z
M 3341 1997 
L 3341 0 
L 2766 0 
L 2766 531 
Q 2569 213 2275 61 
Q 1981 -91 1556 -91 
Q 1019 -91 701 211 
Q 384 513 384 1019 
Q 384 1609 779 1909 
Q 1175 2209 1959 2209 
L 2766 2209 
L 2766 2266 
Q 2766 2663 2505 2880 
Q 2244 3097 1772 3097 
Q 1472 3097 1187 3025 
Q 903 2953 641 2809 
L 641 3341 
Q 956 3463 1253 3523 
Q 1550 3584 1831 3584 
Q 2591 3584 2966 3190 
Q 3341 2797 3341 1997 
z
" transform="scale(0.015625)"/>
       <path id="DejaVuSans-74" d="M 1172 4494 
L 1172 3500 
L 2356 3500 
L 2356 3053 
L 1172 3053 
L 1172 1153 
Q 1172 725 1289 603 
Q 1406 481 1766 481 
L 2356 481 
L 2356 0 
L 1766 0 
Q 1100 0 847 248 
Q 594 497 594 1153 
L 594 3053 
L 172 3053 
L 172 3500 
L 594 3500 
L 594 4494 
L 1172 4494 
z
" transform="scale(0.015625)"/>
       <path id="DejaVuSans-65" d="M 3597 1894 
L 3597 1613 
L 953 1613 
Q 991 1019 1311 708 
Q 1631 397 2203 397 
Q 2534 397 2845 478 
Q 3156 559 3463 722 
L 3463 178 
Q 3153 47 2828 -22 
Q 2503 -91 2169 -91 
Q 1331 -91 842 396 
Q 353 884 353 1716 
Q 353 2575 817 3079 
Q 1281 3584 2069 3584 
Q 2775 3584 3186 3129 
Q 3597 2675 3597 1894 
z
M 3022 2063 
Q 3016 2534 2758 2815 
Q 2500 3097 2075 3097 
Q 1594 3097 1305 2825 
Q 1016 2553 972 2059 
L 3022 2063 
z
" transform="scale(0.015625)"/>
       <path id="DejaVuSans-28" d="M 1984 4856 
Q 1566 4138 1362 3434 
Q 1159 2731 1159 2009 
Q 1159 1288 1364 580 
Q 1569 -128 1984 -844 
L 1484 -844 
Q 1016 -109 783 600 
Q 550 1309 550 2009 
Q 550 2706 781 3412 
Q 1013 4119 1484 4856 
L 1984 4856 
z
" transform="scale(0.015625)"/>
       <path id="DejaVuSans-6e" d="M 3513 2113 
L 3513 0 
L 2938 0 
L 2938 2094 
Q 2938 2591 2744 2837 
Q 2550 3084 2163 3084 
Q 1697 3084 1428 2787 
Q 1159 2491 1159 1978 
L 1159 0 
L 581 0 
L 581 3500 
L 1159 3500 
L 1159 2956 
Q 1366 3272 1645 3428 
Q 1925 3584 2291 3584 
Q 2894 3584 3203 3211 
Q 3513 2838 3513 2113 
z
" transform="scale(0.015625)"/>
       <path id="DejaVuSans-6d" d="M 3328 2828 
Q 3544 3216 3844 3400 
Q 4144 3584 4550 3584 
Q 5097 3584 5394 3201 
Q 5691 2819 5691 2113 
L 5691 0 
L 5113 0 
L 5113 2094 
Q 5113 2597 4934 2840 
Q 4756 3084 4391 3084 
Q 3944 3084 3684 2787 
Q 3425 2491 3425 1978 
L 3425 0 
L 2847 0 
L 2847 2094 
Q 2847 2600 2669 2842 
Q 2491 3084 2119 3084 
Q 1678 3084 1418 2786 
Q 1159 2488 1159 1978 
L 1159 0 
L 581 0 
L 581 3500 
L 1159 3500 
L 1159 2956 
Q 1356 3278 1631 3431 
Q 1906 3584 2284 3584 
Q 2666 3584 2933 3390 
Q 3200 3197 3328 2828 
z
" transform="scale(0.015625)"/>
       <path id="DejaVuSans-69" d="M 603 3500 
L 1178 3500 
L 1178 0 
L 603 0 
L 603 3500 
z
M 603 4863 
L 1178 4863 
L 1178 4134 
L 603 4134 
L 603 4863 
z
" transform="scale(0.015625)"/>
       <path id="DejaVuSans-7a" d="M 353 3500 
L 3084 3500 
L 3084 2975 
L 922 459 
L 3084 459 
L 3084 0 
L 275 0 
L 275 525 
L 2438 3041 
L 353 3041 
L 353 3500 
z
" transform="scale(0.015625)"/>
       <path id="DejaVuSans-64" d="M 2906 2969 
L 2906 4863 
L 3481 4863 
L 3481 0 
L 2906 0 
L 2906 525 
Q 2725 213 2448 61 
Q 2172 -91 1784 -91 
Q 1150 -91 751 415 
Q 353 922 353 1747 
Q 353 2572 751 3078 
Q 1150 3584 1784 3584 
Q 2172 3584 2448 3432 
Q 2725 3281 2906 2969 
z
M 947 1747 
Q 947 1113 1208 752 
Q 1469 391 1925 391 
Q 2381 391 2643 752 
Q 2906 1113 2906 1747 
Q 2906 2381 2643 2742 
Q 2381 3103 1925 3103 
Q 1469 3103 1208 2742 
Q 947 2381 947 1747 
z
" transform="scale(0.015625)"/>
       <path id="DejaVuSans-29" d="M 513 4856 
L 1013 4856 
Q 1481 4119 1714 3412 
Q 1947 2706 1947 2009 
Q 1947 1309 1714 600 
Q 1481 -109 1013 -844 
L 513 -844 
Q 928 -128 1133 580 
Q 1338 1288 1338 2009 
Q 1338 2731 1133 3434 
Q 928 4138 513 4856 
z
" transform="scale(0.015625)"/>
      </defs>
      <use xlink:href="#DejaVuSans-66"/>
      <use xlink:href="#DejaVuSans-6c" x="35.205078"/>
      <use xlink:href="#DejaVuSans-6f" x="62.988281"/>
      <use xlink:href="#DejaVuSans-77" x="124.169922"/>
      <use xlink:href="#DejaVuSans-20" x="205.957031"/>
      <use xlink:href="#DejaVuSans-72" x="237.744141"/>
      <use xlink:href="#DejaVuSans-61" x="278.857422"/>
      <use xlink:href="#DejaVuSans-74" x="340.136719"/>
      <use xlink:href="#DejaVuSans-65" x="379.345703"/>
      <use xlink:href="#DejaVuSans-20" x="440.869141"/>
      <use xlink:href="#DejaVuSans-28" x="472.65625"/>
      <use xlink:href="#DejaVuSans-6e" x="511.669922"/>
      <use xlink:href="#DejaVuSans-6f" x="575.048828"/>
      <use xlink:href="#DejaVuSans-72" x="636.230469"/>
      <use xlink:href="#DejaVuSans-6d" x="675.59375"/>
      <use xlink:href="#DejaVuSans-61" x="773.005859"/>
      <use xlink:href="#DejaVuSans-6c" x="834.285156"/>
      <use xlink:href="#DejaVuSans-69" x="862.068359"/>
      <use xlink:href="#DejaVuSans-7a" x="889.851562"/>
      <use xlink:href="#DejaVuSans-65" x="942.341797"/>
      <use xlink:href="#DejaVuSans-64" x="1003.865234"/>
      <use xlink:href="#DejaVuSans-29" x="1067.341797"/>
     </g>
    </g>
   </g>
   <g id="line2d_9">
    <path d="M 73.832727 60.136859 
L 77.079273 50.478908 
L 80.325818 54.914828 
L 83.572364 56.222803 
L 86.818909 56.768203 
L 90.065455 57.025941 
L 93.312 57.150348 
L 96.558545 57.21806 
L 99.805091 57.254711 
L 103.051636 57.274803 
L 106.298182 57.286038 
L 109.544727 57.292107 
L 112.791273 57.295393 
L 116.037818 57.297456 
L 119.284364 57.298467 
L 122.530909 56.959889 
L 125.777455 55.179854 
L 129.024 55.179756 
L 132.270545 55.179708 
L 135.517091 55.179646 
L 138.763636 55.179603 
L 142.010182 55.179578 
L 145.256727 55.179569 
L 148.503273 55.179563 
L 151.749818 55.179565 
L 154.996364 55.179569 
L 158.242909 55.179571 
L 161.489455 55.179578 
L 164.736 55.179583 
L 167.982545 55.179588 
L 171.229091 55.295863 
L 174.475636 56.72661 
L 177.722182 56.651096 
L 180.968727 56.48501 
L 184.215273 56.250686 
L 187.461818 56.004136 
L 190.708364 55.863603 
L 193.954909 55.881874 
L 197.201455 55.99079 
L 200.448 56.21065 
L 203.694545 56.446093 
L 206.941091 56.655707 
L 210.187636 56.832732 
L 213.434182 56.970589 
L 216.680727 57.073094 
L 219.927273 57.145808 
L 223.173818 57.196224 
L 226.420364 57.229966 
L 229.666909 57.252618 
L 232.913455 57.267849 
L 236.16 57.27852 
L 239.406545 57.285329 
L 242.653091 57.290289 
L 245.899636 57.293671 
L 249.146182 57.29619 
L 252.392727 57.297671 
L 255.639273 57.29922 
L 258.885818 57.299175 
L 262.132364 57.299138 
L 265.378909 57.299107 
L 268.625455 57.309351 
L 271.872 60.859004 
L 275.118545 63.492682 
L 278.365091 64.864494 
L 281.611636 65.322296 
L 284.858182 65.303968 
L 288.104727 65.099695 
L 291.351273 64.822096 
L 294.597818 64.533428 
L 297.844364 64.242912 
L 301.090909 63.964581 
L 304.337455 63.700951 
L 307.584 63.453101 
L 310.830545 63.221514 
L 314.077091 63.003034 
L 317.323636 62.799594 
L 320.570182 62.610998 
L 323.816727 62.432554 
L 327.063273 62.265546 
L 330.309818 62.108213 
L 333.556364 61.960168 
L 336.802909 61.820216 
L 340.049455 61.687956 
L 343.296 61.563123 
L 346.542545 61.443724 
L 349.789091 61.330555 
L 353.035636 61.224051 
L 356.282182 61.12408 
L 359.528727 61.027165 
L 362.775273 60.933668 
L 366.021818 60.844812 
L 369.268364 60.760725 
L 372.514909 60.679952 
L 375.761455 60.601872 
L 379.008 60.527147 
L 382.254545 60.455978 
L 385.501091 60.387308 
L 388.747636 60.320156 
L 391.994182 60.255533 
L 395.240727 60.193439 
L 398.487273 60.133874 
" clip-path="url(#pe79f9b78f9)" style="fill: none; stroke: #1f77b4; stroke-width: 1.5; stroke-linecap: square"/>
   </g>
   <g id="line2d_10">
    <path d="M 73.832727 63.953831 
L 77.079273 43.557517 
L 80.325818 52.42113 
L 83.572364 55.092702 
L 86.818909 56.21074 
L 90.065455 56.739147 
L 93.312 56.994638 
L 96.558545 57.13338 
L 99.805091 57.208426 
L 103.051636 57.249529 
L 106.298182 57.27249 
L 109.544727 57.284881 
L 112.791273 57.291584 
L 116.037818 57.295785 
L 119.284364 57.29784 
L 122.530909 56.301414 
L 125.777455 55.183365 
L 129.024 55.18335 
L 132.270545 55.183344 
L 135.517091 55.183336 
L 138.763636 55.183332 
L 142.010182 55.183331 
L 145.256727 55.183333 
L 148.503273 55.183335 
L 151.749818 55.183339 
L 154.996364 55.183343 
L 158.242909 55.183346 
L 161.489455 55.18335 
L 164.736 55.183353 
L 167.982545 55.183356 
L 171.229091 55.486907 
L 174.475636 57.195185 
L 177.722182 57.181821 
L 180.968727 57.152295 
L 184.215273 57.110708 
L 187.461818 57.067209 
L 190.708364 57.042653 
L 193.954909 57.046046 
L 197.201455 57.065645 
L 200.448 57.104345 
L 203.694545 57.146059 
L 206.941091 57.183307 
L 210.187636 57.214881 
L 213.434182 57.239569 
L 216.680727 57.258006 
L 219.927273 57.271138 
L 223.173818 57.280281 
L 226.420364 57.286425 
L 229.666909 57.290562 
L 232.913455 57.293348 
L 236.16 57.295302 
L 239.406545 57.296551 
L 242.653091 57.297463 
L 245.899636 57.298084 
L 249.146182 57.298548 
L 252.392727 57.298821 
L 255.639273 57.299107 
L 258.885818 57.2991 
L 262.132364 57.299094 
L 265.378909 57.299089 
L 268.625455 57.349225 
L 271.872 65.433943 
L 275.118545 73.596368 
L 278.365091 80.110712 
L 281.611636 83.937401 
L 284.858182 85.264569 
L 288.104727 85.267862 
L 291.351273 84.439608 
L 294.597818 83.141444 
L 297.844364 81.76819 
L 301.090909 80.393669 
L 304.337455 79.060235 
L 307.584 77.806741 
L 310.830545 76.647327 
L 314.077091 75.567906 
L 317.323636 74.58059 
L 320.570182 73.678905 
L 323.816727 72.846536 
L 327.063273 72.084011 
L 330.309818 71.380838 
L 333.556364 70.73468 
L 336.802909 70.138104 
L 340.049455 69.586266 
L 343.296 69.077111 
L 346.542545 68.598716 
L 349.789091 68.156 
L 353.035636 67.742747 
L 356.282182 67.360837 
L 359.528727 66.998547 
L 362.775273 66.65711 
L 366.021818 66.336112 
L 369.268364 66.035294 
L 372.514909 65.750561 
L 375.761455 65.479729 
L 379.008 65.22362 
L 382.254545 64.981496 
L 385.501091 64.750436 
L 388.747636 64.526965 
L 391.994182 64.314661 
L 395.240727 64.113525 
L 398.487273 63.923556 
" clip-path="url(#pe79f9b78f9)" style="fill: none; stroke: #ff7f0e; stroke-width: 1.5; stroke-linecap: square"/>
   </g>
   <g id="line2d_11">
    <path d="M 73.832727 57.599491 
L 77.079273 56.540461 
L 80.325818 57.035222 
L 83.572364 57.180079 
L 86.818909 57.240396 
L 90.065455 57.268892 
L 93.312 57.28264 
L 96.558545 57.290126 
L 99.805091 57.294179 
L 103.051636 57.2964 
L 106.298182 57.297643 
L 109.544727 57.298315 
L 112.791273 57.298678 
L 116.037818 57.298907 
L 119.284364 57.299019 
L 122.530909 57.283617 
L 125.777455 55.176729 
L 129.024 55.176582 
L 132.270545 55.176509 
L 135.517091 55.176415 
L 138.763636 55.176349 
L 142.010182 55.176309 
L 145.256727 55.176293 
L 148.503273 55.17628 
L 151.749818 55.17628 
L 154.996364 55.176283 
L 158.242909 55.176284 
L 161.489455 55.17629 
L 164.736 55.176295 
L 167.982545 55.176299 
L 171.229091 55.214928 
L 174.475636 56.309012 
L 177.722182 56.176023 
L 180.968727 55.88354 
L 184.215273 55.46892 
L 187.461818 55.026676 
L 190.708364 54.770402 
L 193.954909 54.801791 
L 197.201455 54.990804 
L 200.448 55.390839 
L 203.694545 55.812356 
L 206.941091 56.185179 
L 210.187636 56.49755 
L 213.434182 56.738591 
L 216.680727 56.916206 
L 219.927273 57.041103 
L 223.173818 57.126936 
L 226.420364 57.183881 
L 229.666909 57.221878 
L 232.913455 57.247329 
L 236.16 57.265134 
L 239.406545 57.276447 
L 242.653091 57.284656 
L 245.899636 57.290257 
L 249.146182 57.294414 
L 252.392727 57.296843 
L 255.639273 57.299385 
L 258.885818 57.299284 
L 262.132364 57.299204 
L 265.378909 57.29914 
L 268.625455 57.299883 
L 271.872 57.67932 
L 275.118545 57.940197 
L 278.365091 58.064369 
L 281.611636 58.10069 
L 284.858182 58.095031 
L 288.104727 58.073646 
L 291.351273 58.046462 
L 294.597818 58.018877 
L 297.844364 57.991356 
L 301.090909 57.965088 
L 304.337455 57.940263 
L 307.584 57.916932 
L 310.830545 57.895124 
L 314.077091 57.874545 
L 317.323636 57.855359 
L 320.570182 57.837569 
L 323.816727 57.820707 
L 327.063273 57.804907 
L 330.309818 57.789995 
L 333.556364 57.775939 
L 336.802909 57.762629 
L 340.049455 57.750028 
L 343.296 57.73811 
L 346.542545 57.726687 
L 349.789091 57.715835 
L 353.035636 57.705615 
L 356.282182 57.696011 
L 359.528727 57.686666 
L 362.775273 57.677618 
L 366.021818 57.669017 
L 369.268364 57.660879 
L 372.514909 57.653049 
L 375.761455 57.645464 
L 379.008 57.638196 
L 382.254545 57.631274 
L 385.501091 57.624582 
L 388.747636 57.618018 
L 391.994182 57.611688 
L 395.240727 57.605592 
L 398.487273 57.59973 
" clip-path="url(#pe79f9b78f9)" style="fill: none; stroke: #2ca02c; stroke-width: 1.5; stroke-linecap: square"/>
   </g>
   <g id="patch_3">
    <path d="M 57.6 87.353379 
L 57.6 41.472 
" style="fill: none; stroke: #000000; stroke-width: 0.8; stroke-linejoin: miter; stroke-linecap: square"/>
   </g>
   <g id="patch_4">
    <path d="M 414.72 87.353379 
L 414.72 41.472 
" style="fill: none; stroke: #000000; stroke-width: 0.8; stroke-linejoin: miter; stroke-linecap: square"/>
   </g>
   <g id="patch_5">
    <path d="M 57.6 87.353379 
L 414.72 87.353379 
" style="fill: none; stroke: #000000; stroke-width: 0.8; stroke-linejoin: miter; stroke-linecap: square"/>
   </g>
   <g id="patch_6">
    <path d="M 57.6 41.472 
L 414.72 41.472 
" style="fill: none; stroke: #000000; stroke-width: 0.8; stroke-linejoin: miter; stroke-linecap: square"/>
   </g>
   <g id="text_4">
    <!-- velocity vs time (container 1)   -->
    <g transform="translate(144.106875 35.472)scale(0.12 -0.12)">
     <defs>
      <path id="DejaVuSans-76" d="M 191 3500 
L 800 3500 
L 1894 563 
L 2988 3500 
L 3597 3500 
L 2284 0 
L 1503 0 
L 191 3500 
z
" transform="scale(0.015625)"/>
      <path id="DejaVuSans-63" d="M 3122 3366 
L 3122 2828 
Q 2878 2963 2633 3030 
Q 2388 3097 2138 3097 
Q 1578 3097 1268 2742 
Q 959 2388 959 1747 
Q 959 1106 1268 751 
Q 1578 397 2138 397 
Q 2388 397 2633 464 
Q 2878 531 3122 666 
L 3122 134 
Q 2881 22 2623 -34 
Q 2366 -91 2075 -91 
Q 1284 -91 818 406 
Q 353 903 353 1747 
Q 353 2603 823 3093 
Q 1294 3584 2113 3584 
Q 2378 3584 2631 3529 
Q 2884 3475 3122 3366 
z
" transform="scale(0.015625)"/>
      <path id="DejaVuSans-79" d="M 2059 -325 
Q 1816 -950 1584 -1140 
Q 1353 -1331 966 -1331 
L 506 -1331 
L 506 -850 
L 844 -850 
Q 1081 -850 1212 -737 
Q 1344 -625 1503 -206 
L 1606 56 
L 191 3500 
L 800 3500 
L 1894 763 
L 2988 3500 
L 3597 3500 
L 2059 -325 
z
" transform="scale(0.015625)"/>
      <path id="DejaVuSans-73" d="M 2834 3397 
L 2834 2853 
Q 2591 2978 2328 3040 
Q 2066 3103 1784 3103 
Q 1356 3103 1142 2972 
Q 928 2841 928 2578 
Q 928 2378 1081 2264 
Q 1234 2150 1697 2047 
L 1894 2003 
Q 2506 1872 2764 1633 
Q 3022 1394 3022 966 
Q 3022 478 2636 193 
Q 2250 -91 1575 -91 
Q 1294 -91 989 -36 
Q 684 19 347 128 
L 347 722 
Q 666 556 975 473 
Q 1284 391 1588 391 
Q 1994 391 2212 530 
Q 2431 669 2431 922 
Q 2431 1156 2273 1281 
Q 2116 1406 1581 1522 
L 1381 1569 
Q 847 1681 609 1914 
Q 372 2147 372 2553 
Q 372 3047 722 3315 
Q 1072 3584 1716 3584 
Q 2034 3584 2315 3537 
Q 2597 3491 2834 3397 
z
" transform="scale(0.015625)"/>
     </defs>
     <use xlink:href="#DejaVuSans-76"/>
     <use xlink:href="#DejaVuSans-65" x="59.179688"/>
     <use xlink:href="#DejaVuSans-6c" x="120.703125"/>
     <use xlink:href="#DejaVuSans-6f" x="148.486328"/>
     <use xlink:href="#DejaVuSans-63" x="209.667969"/>
     <use xlink:href="#DejaVuSans-69" x="264.648438"/>
     <use xlink:href="#DejaVuSans-74" x="292.431641"/>
     <use xlink:href="#DejaVuSans-79" x="331.640625"/>
     <use xlink:href="#DejaVuSans-20" x="390.820312"/>
     <use xlink:href="#DejaVuSans-76" x="422.607422"/>
     <use xlink:href="#DejaVuSans-73" x="481.787109"/>
     <use xlink:href="#DejaVuSans-20" x="533.886719"/>
     <use xlink:href="#DejaVuSans-74" x="565.673828"/>
     <use xlink:href="#DejaVuSans-69" x="604.882812"/>
     <use xlink:href="#DejaVuSans-6d" x="632.666016"/>
     <use xlink:href="#DejaVuSans-65" x="730.078125"/>
     <use xlink:href="#DejaVuSans-20" x="791.601562"/>
     <use xlink:href="#DejaVuSans-28" x="823.388672"/>
     <use xlink:href="#DejaVuSans-63" x="862.402344"/>
     <use xlink:href="#DejaVuSans-6f" x="917.382812"/>
     <use xlink:href="#DejaVuSans-6e" x="978.564453"/>
     <use xlink:href="#DejaVuSans-74" x="1041.943359"/>
     <use xlink:href="#DejaVuSans-61" x="1081.152344"/>
     <use xlink:href="#DejaVuSans-69" x="1142.431641"/>
     <use xlink:href="#DejaVuSans-6e" x="1170.214844"/>
     <use xlink:href="#DejaVuSans-65" x="1233.59375"/>
     <use xlink:href="#DejaVuSans-72" x="1295.117188"/>
     <use xlink:href="#DejaVuSans-20" x="1336.230469"/>
     <use xlink:href="#DejaVuSans-31" x="1368.017578"/>
     <use xlink:href="#DejaVuSans-29" x="1431.640625"/>
     <use xlink:href="#DejaVuSans-20" x="1470.654297"/>
     <use xlink:href="#DejaVuSans-20" x="1502.441406"/>
    </g>
   </g>
   <g id="legend_1">
    <g id="patch_7">
     <path d="M 64.6 93.506375 
L 139.240625 93.506375 
Q 141.240625 93.506375 141.240625 91.506375 
L 141.240625 48.472 
Q 141.240625 46.472 139.240625 46.472 
L 64.6 46.472 
Q 62.6 46.472 62.6 48.472 
L 62.6 91.506375 
Q 62.6 93.506375 64.6 93.506375 
z
" style="fill: #ffffff; opacity: 0.8; stroke: #cccccc; stroke-linejoin: miter"/>
    </g>
    <g id="line2d_12">
     <path d="M 66.6 54.570437 
L 76.6 54.570437 
L 86.6 54.570437 
" style="fill: none; stroke: #1f77b4; stroke-width: 1.5; stroke-linecap: square"/>
    </g>
    <g id="text_5">
     <!-- mid flow -->
     <g transform="translate(94.6 58.070437)scale(0.1 -0.1)">
      <use xlink:href="#DejaVuSans-6d"/>
      <use xlink:href="#DejaVuSans-69" x="97.412109"/>
      <use xlink:href="#DejaVuSans-64" x="125.195312"/>
      <use xlink:href="#DejaVuSans-20" x="188.671875"/>
      <use xlink:href="#DejaVuSans-66" x="220.458984"/>
      <use xlink:href="#DejaVuSans-6c" x="255.664062"/>
      <use xlink:href="#DejaVuSans-6f" x="283.447266"/>
      <use xlink:href="#DejaVuSans-77" x="344.628906"/>
     </g>
    </g>
    <g id="line2d_13">
     <path d="M 66.6 69.248562 
L 76.6 69.248562 
L 86.6 69.248562 
" style="fill: none; stroke: #ff7f0e; stroke-width: 1.5; stroke-linecap: square"/>
    </g>
    <g id="text_6">
     <!-- v0 flow -->
     <g transform="translate(94.6 72.748562)scale(0.1 -0.1)">
      <use xlink:href="#DejaVuSans-76"/>
      <use xlink:href="#DejaVuSans-30" x="59.179688"/>
      <use xlink:href="#DejaVuSans-20" x="122.802734"/>
      <use xlink:href="#DejaVuSans-66" x="154.589844"/>
      <use xlink:href="#DejaVuSans-6c" x="189.794922"/>
      <use xlink:href="#DejaVuSans-6f" x="217.578125"/>
      <use xlink:href="#DejaVuSans-77" x="278.759766"/>
     </g>
    </g>
    <g id="line2d_14">
     <path d="M 66.6 83.926687 
L 76.6 83.926687 
L 86.6 83.926687 
" style="fill: none; stroke: #2ca02c; stroke-width: 1.5; stroke-linecap: square"/>
    </g>
    <g id="text_7">
     <!-- vN flow -->
     <g transform="translate(94.6 87.426687)scale(0.1 -0.1)">
      <defs>
       <path id="DejaVuSans-4e" d="M 628 4666 
L 1478 4666 
L 3547 763 
L 3547 4666 
L 4159 4666 
L 4159 0 
L 3309 0 
L 1241 3903 
L 1241 0 
L 628 0 
L 628 4666 
z
" transform="scale(0.015625)"/>
      </defs>
      <use xlink:href="#DejaVuSans-76"/>
      <use xlink:href="#DejaVuSans-4e" x="59.179688"/>
      <use xlink:href="#DejaVuSans-20" x="133.984375"/>
      <use xlink:href="#DejaVuSans-66" x="165.771484"/>
      <use xlink:href="#DejaVuSans-6c" x="200.976562"/>
      <use xlink:href="#DejaVuSans-6f" x="228.759766"/>
      <use xlink:href="#DejaVuSans-77" x="289.941406"/>
     </g>
    </g>
   </g>
  </g>
  <g id="axes_2">
   <g id="patch_8">
    <path d="M 57.6 142.411034 
L 414.72 142.411034 
L 414.72 96.529655 
L 57.6 96.529655 
z
" style="fill: #ffffff"/>
   </g>
   <g id="matplotlib.axis_3">
    <g id="xtick_7">
     <g id="line2d_15">
      <g>
       <use xlink:href="#m0ce1a3246a" x="73.832727" y="142.411034" style="stroke: #000000; stroke-width: 0.8"/>
      </g>
     </g>
    </g>
    <g id="xtick_8">
     <g id="line2d_16">
      <g>
       <use xlink:href="#m0ce1a3246a" x="138.763636" y="142.411034" style="stroke: #000000; stroke-width: 0.8"/>
      </g>
     </g>
    </g>
    <g id="xtick_9">
     <g id="line2d_17">
      <g>
       <use xlink:href="#m0ce1a3246a" x="203.694545" y="142.411034" style="stroke: #000000; stroke-width: 0.8"/>
      </g>
     </g>
    </g>
    <g id="xtick_10">
     <g id="line2d_18">
      <g>
       <use xlink:href="#m0ce1a3246a" x="268.625455" y="142.411034" style="stroke: #000000; stroke-width: 0.8"/>
      </g>
     </g>
    </g>
    <g id="xtick_11">
     <g id="line2d_19">
      <g>
       <use xlink:href="#m0ce1a3246a" x="333.556364" y="142.411034" style="stroke: #000000; stroke-width: 0.8"/>
      </g>
     </g>
    </g>
    <g id="xtick_12">
     <g id="line2d_20">
      <g>
       <use xlink:href="#m0ce1a3246a" x="398.487273" y="142.411034" style="stroke: #000000; stroke-width: 0.8"/>
      </g>
     </g>
    </g>
   </g>
   <g id="matplotlib.axis_4">
    <g id="ytick_3">
     <g id="line2d_21">
      <g>
       <use xlink:href="#m1175363d59" x="57.6" y="140.760411" style="stroke: #000000; stroke-width: 0.8"/>
      </g>
     </g>
     <g id="text_8">
      <!-- 0 -->
      <g transform="translate(44.2375 144.559629)scale(0.1 -0.1)">
       <use xlink:href="#DejaVuSans-30"/>
      </g>
     </g>
    </g>
    <g id="ytick_4">
     <g id="line2d_22">
      <g>
       <use xlink:href="#m1175363d59" x="57.6" y="98.771711" style="stroke: #000000; stroke-width: 0.8"/>
      </g>
     </g>
     <g id="text_9">
      <!-- 1 -->
      <g transform="translate(44.2375 102.570929)scale(0.1 -0.1)">
       <use xlink:href="#DejaVuSans-31"/>
      </g>
     </g>
    </g>
   </g>
   <g id="line2d_23">
    <path d="M 73.832727 140.325427 
L 77.079273 124.013256 
L 80.325818 114.074326 
L 83.572364 108.049485 
L 86.818909 104.389383 
L 90.065455 102.186895 
L 93.312 100.84189 
L 96.558545 100.026739 
L 99.805091 99.532636 
L 103.051636 99.233381 
L 106.298182 99.050333 
L 109.544727 98.94124 
L 112.791273 98.874174 
L 116.037818 98.832433 
L 119.284364 98.808505 
L 122.530909 98.748786 
L 125.777455 98.615191 
L 129.024 98.615185 
L 132.270545 98.615182 
L 135.517091 98.615178 
L 138.763636 98.615175 
L 142.010182 98.615173 
L 145.256727 98.615173 
L 148.503273 98.615172 
L 151.749818 98.615173 
L 154.996364 98.615173 
L 158.242909 98.615173 
L 161.489455 98.615173 
L 164.736 98.615174 
L 167.982545 98.615174 
L 171.229091 98.62865 
L 174.475636 113.624797 
L 177.722182 122.614765 
L 180.968727 128.070495 
L 184.215273 131.377227 
L 187.461818 133.372191 
L 190.708364 134.58108 
L 193.954909 135.319628 
L 197.201455 135.779502 
L 200.448 136.066358 
L 203.694545 136.247584 
L 206.941091 136.362772 
L 210.187636 136.435842 
L 213.434182 136.482244 
L 216.680727 136.511609 
L 219.927273 136.530166 
L 223.173818 136.541718 
L 226.420364 136.54912 
L 229.666909 136.553666 
L 232.913455 136.556547 
L 236.16 136.558462 
L 239.406545 136.559565 
L 242.653091 136.560309 
L 245.899636 136.560793 
L 249.146182 136.56114 
L 252.392727 136.561319 
L 255.639273 136.561509 
L 258.885818 136.561506 
L 262.132364 136.56151 
L 265.378909 136.561521 
L 268.625455 136.562966 
L 271.872 138.030683 
L 275.118545 138.911202 
L 278.365091 139.435941 
L 281.611636 139.748425 
L 284.858182 139.935615 
L 288.104727 140.051672 
L 291.351273 140.126331 
L 294.597818 140.174065 
L 297.844364 140.208203 
L 301.090909 140.232316 
L 304.337455 140.249799 
L 307.584 140.26275 
L 310.830545 140.272475 
L 314.077091 140.280212 
L 317.323636 140.286251 
L 320.570182 140.29113 
L 323.816727 140.295205 
L 327.063273 140.298635 
L 330.309818 140.3016 
L 333.556364 140.304136 
L 336.802909 140.306373 
L 340.049455 140.308359 
L 343.296 140.310117 
L 346.542545 140.311748 
L 349.789091 140.31321 
L 353.035636 140.314531 
L 356.282182 140.315702 
L 359.528727 140.316808 
L 362.775273 140.31784 
L 366.021818 140.318793 
L 369.268364 140.319669 
L 372.514909 140.320488 
L 375.761455 140.321261 
L 379.008 140.321983 
L 382.254545 140.322657 
L 385.501091 140.323293 
L 388.747636 140.323905 
L 391.994182 140.32448 
L 395.240727 140.325017 
L 398.487273 140.325517 
" clip-path="url(#pb2f475f80e)" style="fill: none; stroke: #1f77b4; stroke-width: 1.5; stroke-linecap: square"/>
   </g>
   <g id="line2d_24">
    <path d="M 73.832727 140.13359 
L 77.079273 124.430959 
L 80.325818 114.221795 
L 83.572364 108.116142 
L 86.818909 104.422264 
L 90.065455 102.203812 
L 93.312 100.851094 
L 96.558545 100.031751 
L 99.805091 99.535379 
L 103.051636 99.234881 
L 106.298182 99.051138 
L 109.544727 98.941671 
L 112.791273 98.874401 
L 116.037818 98.832534 
L 119.284364 98.808543 
L 122.530909 98.775609 
L 125.777455 98.695387 
L 129.024 98.695383 
L 132.270545 98.69538 
L 135.517091 98.695378 
L 138.763636 98.695376 
L 142.010182 98.695374 
L 145.256727 98.695374 
L 148.503273 98.695373 
L 151.749818 98.695374 
L 154.996364 98.695374 
L 158.242909 98.695374 
L 161.489455 98.695374 
L 164.736 98.695374 
L 167.982545 98.695374 
L 171.229091 98.700513 
L 174.475636 113.635632 
L 177.722182 122.627014 
L 180.968727 128.08586 
L 184.215273 131.396982 
L 187.461818 133.396549 
L 190.708364 134.608049 
L 193.954909 135.346247 
L 197.201455 135.804068 
L 200.448 136.086827 
L 203.694545 136.263651 
L 206.941091 136.374911 
L 210.187636 136.444658 
L 213.434182 136.488467 
L 216.680727 136.515898 
L 219.927273 136.53308 
L 223.173818 136.543676 
L 226.420364 136.550437 
L 229.666909 136.554552 
L 232.913455 136.557144 
L 236.16 136.558855 
L 239.406545 136.559828 
L 242.653091 136.560477 
L 245.899636 136.560897 
L 249.146182 136.561195 
L 252.392727 136.561346 
L 255.639273 136.561507 
L 258.885818 136.561504 
L 262.132364 136.561509 
L 265.378909 136.561521 
L 268.625455 136.561798 
L 271.872 137.79427 
L 275.118545 138.461689 
L 278.365091 138.837531 
L 281.611636 139.073492 
L 284.858182 139.239657 
L 288.104727 139.361929 
L 291.351273 139.458582 
L 294.597818 139.536131 
L 297.844364 139.601453 
L 301.090909 139.656396 
L 304.337455 139.703583 
L 307.584 139.744447 
L 310.830545 139.780057 
L 314.077091 139.811973 
L 317.323636 139.840236 
L 320.570182 139.865499 
L 323.816727 139.888527 
L 327.063273 139.909432 
L 330.309818 139.928618 
L 333.556364 139.94617 
L 336.802909 139.962378 
L 340.049455 139.977378 
L 343.296 139.991232 
L 346.542545 140.004297 
L 349.789091 140.016426 
L 353.035636 140.027731 
L 356.282182 140.038179 
L 359.528727 140.048148 
L 362.775273 140.057599 
L 366.021818 140.066499 
L 369.268364 140.074851 
L 372.514909 140.082784 
L 375.761455 140.090363 
L 379.008 140.097548 
L 382.254545 140.104349 
L 385.501091 140.110855 
L 388.747636 140.117164 
L 391.994182 140.123175 
L 395.240727 140.128889 
L 398.487273 140.134305 
" clip-path="url(#pb2f475f80e)" style="fill: none; stroke: #ff7f0e; stroke-width: 1.5; stroke-linecap: square"/>
   </g>
   <g id="line2d_25">
    <path d="M 73.832727 140.081026 
L 77.079273 124.560219 
L 80.325818 114.266874 
L 83.572364 108.136484 
L 86.818909 104.432297 
L 90.065455 102.208974 
L 93.312 100.853905 
L 96.558545 100.033282 
L 99.805091 99.536217 
L 103.051636 99.23534 
L 106.298182 99.051385 
L 109.544727 98.941803 
L 112.791273 98.874471 
L 116.037818 98.832564 
L 119.284364 98.808554 
L 122.530909 98.781378 
L 125.777455 98.76769 
L 129.024 98.767689 
L 132.270545 98.767689 
L 135.517091 98.767689 
L 138.763636 98.767689 
L 142.010182 98.767689 
L 145.256727 98.767689 
L 148.503273 98.767689 
L 151.749818 98.767689 
L 154.996364 98.767689 
L 158.242909 98.767689 
L 161.489455 98.767689 
L 164.736 98.767689 
L 167.982545 98.767689 
L 171.229091 98.770305 
L 174.475636 113.662265 
L 177.722182 122.657196 
L 180.968727 128.123846 
L 184.215273 131.446005 
L 187.461818 133.457268 
L 190.708364 134.675492 
L 193.954909 135.412844 
L 197.201455 135.865586 
L 200.448 136.137842 
L 203.694545 136.30351 
L 206.941091 136.404872 
L 210.187636 136.466294 
L 213.434182 136.50365 
L 216.680727 136.526306 
L 219.927273 136.540116 
L 223.173818 136.548384 
L 226.420364 136.553594 
L 229.666909 136.556671 
L 232.913455 136.558566 
L 236.16 136.55979 
L 239.406545 136.560452 
L 242.653091 136.560876 
L 245.899636 136.561142 
L 249.146182 136.561326 
L 252.392727 136.561409 
L 255.639273 136.5615 
L 258.885818 136.5615 
L 262.132364 136.561507 
L 265.378909 136.561519 
L 268.625455 136.561631 
L 271.872 137.728042 
L 275.118545 138.348126 
L 278.365091 138.7003 
L 281.611636 138.928806 
L 284.858182 139.095638 
L 288.104727 139.221687 
L 291.351273 139.323307 
L 294.597818 139.405959 
L 297.844364 139.476396 
L 301.090909 139.53623 
L 304.337455 139.588044 
L 307.584 139.633257 
L 310.830545 139.672931 
L 314.077091 139.708683 
L 317.323636 139.740518 
L 320.570182 139.769093 
L 323.816727 139.795257 
L 327.063273 139.8191 
L 330.309818 139.841055 
L 333.556364 139.861215 
L 336.802909 139.879891 
L 340.049455 139.897223 
L 343.296 139.913283 
L 346.542545 139.928459 
L 349.789091 139.94259 
L 353.035636 139.955781 
L 356.282182 139.968 
L 359.528727 139.979688 
L 362.775273 139.9908 
L 366.021818 140.00128 
L 369.268364 140.011127 
L 372.514909 140.020497 
L 375.761455 140.029465 
L 379.008 140.037982 
L 382.254545 140.046051 
L 385.501091 140.053781 
L 388.747636 140.06129 
L 391.994182 140.068456 
L 395.240727 140.075281 
L 398.487273 140.081764 
" clip-path="url(#pb2f475f80e)" style="fill: none; stroke: #2ca02c; stroke-width: 1.5; stroke-linecap: square"/>
   </g>
   <g id="patch_9">
    <path d="M 57.6 142.411034 
L 57.6 96.529655 
" style="fill: none; stroke: #000000; stroke-width: 0.8; stroke-linejoin: miter; stroke-linecap: square"/>
   </g>
   <g id="patch_10">
    <path d="M 414.72 142.411034 
L 414.72 96.529655 
" style="fill: none; stroke: #000000; stroke-width: 0.8; stroke-linejoin: miter; stroke-linecap: square"/>
   </g>
   <g id="patch_11">
    <path d="M 57.6 142.411034 
L 414.72 142.411034 
" style="fill: none; stroke: #000000; stroke-width: 0.8; stroke-linejoin: miter; stroke-linecap: square"/>
   </g>
   <g id="patch_12">
    <path d="M 57.6 96.529655 
L 414.72 96.529655 
" style="fill: none; stroke: #000000; stroke-width: 0.8; stroke-linejoin: miter; stroke-linecap: square"/>
   </g>
   <g id="text_10">
    <!-- Pressure -->
    <g transform="translate(210.546562 90.529655)scale(0.12 -0.12)">
     <defs>
      <path id="DejaVuSans-50" d="M 1259 4147 
L 1259 2394 
L 2053 2394 
Q 2494 2394 2734 2622 
Q 2975 2850 2975 3272 
Q 2975 3691 2734 3919 
Q 2494 4147 2053 4147 
L 1259 4147 
z
M 628 4666 
L 2053 4666 
Q 2838 4666 3239 4311 
Q 3641 3956 3641 3272 
Q 3641 2581 3239 2228 
Q 2838 1875 2053 1875 
L 1259 1875 
L 1259 0 
L 628 0 
L 628 4666 
z
" transform="scale(0.015625)"/>
      <path id="DejaVuSans-75" d="M 544 1381 
L 544 3500 
L 1119 3500 
L 1119 1403 
Q 1119 906 1312 657 
Q 1506 409 1894 409 
Q 2359 409 2629 706 
Q 2900 1003 2900 1516 
L 2900 3500 
L 3475 3500 
L 3475 0 
L 2900 0 
L 2900 538 
Q 2691 219 2414 64 
Q 2138 -91 1772 -91 
Q 1169 -91 856 284 
Q 544 659 544 1381 
z
M 1991 3584 
L 1991 3584 
z
" transform="scale(0.015625)"/>
     </defs>
     <use xlink:href="#DejaVuSans-50"/>
     <use xlink:href="#DejaVuSans-72" x="58.552734"/>
     <use xlink:href="#DejaVuSans-65" x="97.416016"/>
     <use xlink:href="#DejaVuSans-73" x="158.939453"/>
     <use xlink:href="#DejaVuSans-73" x="211.039062"/>
     <use xlink:href="#DejaVuSans-75" x="263.138672"/>
     <use xlink:href="#DejaVuSans-72" x="326.517578"/>
     <use xlink:href="#DejaVuSans-65" x="365.380859"/>
    </g>
   </g>
   <g id="legend_2">
    <g id="patch_13">
     <path d="M 350.823125 137.411034 
L 407.72 137.411034 
Q 409.72 137.411034 409.72 135.411034 
L 409.72 92.376659 
Q 409.72 90.376659 407.72 90.376659 
L 350.823125 90.376659 
Q 348.823125 90.376659 348.823125 92.376659 
L 348.823125 135.411034 
Q 348.823125 137.411034 350.823125 137.411034 
z
" style="fill: #ffffff; opacity: 0.8; stroke: #cccccc; stroke-linejoin: miter"/>
    </g>
    <g id="line2d_26">
     <path d="M 352.823125 98.475097 
L 362.823125 98.475097 
L 372.823125 98.475097 
" style="fill: none; stroke: #1f77b4; stroke-width: 1.5; stroke-linecap: square"/>
    </g>
    <g id="text_11">
     <!-- P1 -->
     <g transform="translate(380.823125 101.975097)scale(0.1 -0.1)">
      <use xlink:href="#DejaVuSans-50"/>
      <use xlink:href="#DejaVuSans-31" x="60.302734"/>
     </g>
    </g>
    <g id="line2d_27">
     <path d="M 352.823125 113.153222 
L 362.823125 113.153222 
L 372.823125 113.153222 
" style="fill: none; stroke: #ff7f0e; stroke-width: 1.5; stroke-linecap: square"/>
    </g>
    <g id="text_12">
     <!-- Pmid -->
     <g transform="translate(380.823125 116.653222)scale(0.1 -0.1)">
      <use xlink:href="#DejaVuSans-50"/>
      <use xlink:href="#DejaVuSans-6d" x="60.302734"/>
      <use xlink:href="#DejaVuSans-69" x="157.714844"/>
      <use xlink:href="#DejaVuSans-64" x="185.498047"/>
     </g>
    </g>
    <g id="line2d_28">
     <path d="M 352.823125 127.831347 
L 362.823125 127.831347 
L 372.823125 127.831347 
" style="fill: none; stroke: #2ca02c; stroke-width: 1.5; stroke-linecap: square"/>
    </g>
    <g id="text_13">
     <!-- PN -->
     <g transform="translate(380.823125 131.331347)scale(0.1 -0.1)">
      <use xlink:href="#DejaVuSans-50"/>
      <use xlink:href="#DejaVuSans-4e" x="60.302734"/>
     </g>
    </g>
   </g>
  </g>
  <g id="axes_3">
   <g id="patch_14">
    <path d="M 57.6 197.46869 
L 414.72 197.46869 
L 414.72 151.58731 
L 57.6 151.58731 
z
" style="fill: #ffffff"/>
   </g>
   <g id="matplotlib.axis_5">
    <g id="xtick_13">
     <g id="line2d_29">
      <g>
       <use xlink:href="#m0ce1a3246a" x="73.832727" y="197.46869" style="stroke: #000000; stroke-width: 0.8"/>
      </g>
     </g>
    </g>
    <g id="xtick_14">
     <g id="line2d_30">
      <g>
       <use xlink:href="#m0ce1a3246a" x="138.763636" y="197.46869" style="stroke: #000000; stroke-width: 0.8"/>
      </g>
     </g>
    </g>
    <g id="xtick_15">
     <g id="line2d_31">
      <g>
       <use xlink:href="#m0ce1a3246a" x="203.694545" y="197.46869" style="stroke: #000000; stroke-width: 0.8"/>
      </g>
     </g>
    </g>
    <g id="xtick_16">
     <g id="line2d_32">
      <g>
       <use xlink:href="#m0ce1a3246a" x="268.625455" y="197.46869" style="stroke: #000000; stroke-width: 0.8"/>
      </g>
     </g>
    </g>
    <g id="xtick_17">
     <g id="line2d_33">
      <g>
       <use xlink:href="#m0ce1a3246a" x="333.556364" y="197.46869" style="stroke: #000000; stroke-width: 0.8"/>
      </g>
     </g>
    </g>
    <g id="xtick_18">
     <g id="line2d_34">
      <g>
       <use xlink:href="#m0ce1a3246a" x="398.487273" y="197.46869" style="stroke: #000000; stroke-width: 0.8"/>
      </g>
     </g>
    </g>
   </g>
   <g id="matplotlib.axis_6">
    <g id="ytick_5">
     <g id="line2d_35">
      <g>
       <use xlink:href="#m1175363d59" x="57.6" y="187.992591" style="stroke: #000000; stroke-width: 0.8"/>
      </g>
     </g>
     <g id="text_14">
      <!-- 0.05 -->
      <g transform="translate(28.334375 191.79181)scale(0.1 -0.1)">
       <defs>
        <path id="DejaVuSans-2e" d="M 684 794 
L 1344 794 
L 1344 0 
L 684 0 
L 684 794 
z
" transform="scale(0.015625)"/>
        <path id="DejaVuSans-35" d="M 691 4666 
L 3169 4666 
L 3169 4134 
L 1269 4134 
L 1269 2991 
Q 1406 3038 1543 3061 
Q 1681 3084 1819 3084 
Q 2600 3084 3056 2656 
Q 3513 2228 3513 1497 
Q 3513 744 3044 326 
Q 2575 -91 1722 -91 
Q 1428 -91 1123 -41 
Q 819 9 494 109 
L 494 744 
Q 775 591 1075 516 
Q 1375 441 1709 441 
Q 2250 441 2565 725 
Q 2881 1009 2881 1497 
Q 2881 1984 2565 2268 
Q 2250 2553 1709 2553 
Q 1456 2553 1204 2497 
Q 953 2441 691 2322 
L 691 4666 
z
" transform="scale(0.015625)"/>
       </defs>
       <use xlink:href="#DejaVuSans-30"/>
       <use xlink:href="#DejaVuSans-2e" x="63.623047"/>
       <use xlink:href="#DejaVuSans-30" x="95.410156"/>
       <use xlink:href="#DejaVuSans-35" x="159.033203"/>
      </g>
     </g>
    </g>
    <g id="ytick_6">
     <g id="line2d_36">
      <g>
       <use xlink:href="#m1175363d59" x="57.6" y="174.252049" style="stroke: #000000; stroke-width: 0.8"/>
      </g>
     </g>
     <g id="text_15">
      <!-- 0.06 -->
      <g transform="translate(28.334375 178.051268)scale(0.1 -0.1)">
       <defs>
        <path id="DejaVuSans-36" d="M 2113 2584 
Q 1688 2584 1439 2293 
Q 1191 2003 1191 1497 
Q 1191 994 1439 701 
Q 1688 409 2113 409 
Q 2538 409 2786 701 
Q 3034 994 3034 1497 
Q 3034 2003 2786 2293 
Q 2538 2584 2113 2584 
z
M 3366 4563 
L 3366 3988 
Q 3128 4100 2886 4159 
Q 2644 4219 2406 4219 
Q 1781 4219 1451 3797 
Q 1122 3375 1075 2522 
Q 1259 2794 1537 2939 
Q 1816 3084 2150 3084 
Q 2853 3084 3261 2657 
Q 3669 2231 3669 1497 
Q 3669 778 3244 343 
Q 2819 -91 2113 -91 
Q 1303 -91 875 529 
Q 447 1150 447 2328 
Q 447 3434 972 4092 
Q 1497 4750 2381 4750 
Q 2619 4750 2861 4703 
Q 3103 4656 3366 4563 
z
" transform="scale(0.015625)"/>
       </defs>
       <use xlink:href="#DejaVuSans-30"/>
       <use xlink:href="#DejaVuSans-2e" x="63.623047"/>
       <use xlink:href="#DejaVuSans-30" x="95.410156"/>
       <use xlink:href="#DejaVuSans-36" x="159.033203"/>
      </g>
     </g>
    </g>
    <g id="ytick_7">
     <g id="line2d_37">
      <g>
       <use xlink:href="#m1175363d59" x="57.6" y="160.511508" style="stroke: #000000; stroke-width: 0.8"/>
      </g>
     </g>
     <g id="text_16">
      <!-- 0.07 -->
      <g transform="translate(28.334375 164.310727)scale(0.1 -0.1)">
       <defs>
        <path id="DejaVuSans-37" d="M 525 4666 
L 3525 4666 
L 3525 4397 
L 1831 0 
L 1172 0 
L 2766 4134 
L 525 4134 
L 525 4666 
z
" transform="scale(0.015625)"/>
       </defs>
       <use xlink:href="#DejaVuSans-30"/>
       <use xlink:href="#DejaVuSans-2e" x="63.623047"/>
       <use xlink:href="#DejaVuSans-30" x="95.410156"/>
       <use xlink:href="#DejaVuSans-37" x="159.033203"/>
      </g>
     </g>
    </g>
    <g id="text_17">
     <!-- fraction -->
     <g transform="translate(22.254687 193.73425)rotate(-90)scale(0.1 -0.1)">
      <use xlink:href="#DejaVuSans-66"/>
      <use xlink:href="#DejaVuSans-72" x="35.205078"/>
      <use xlink:href="#DejaVuSans-61" x="76.318359"/>
      <use xlink:href="#DejaVuSans-63" x="137.597656"/>
      <use xlink:href="#DejaVuSans-74" x="192.578125"/>
      <use xlink:href="#DejaVuSans-69" x="231.787109"/>
      <use xlink:href="#DejaVuSans-6f" x="259.570312"/>
      <use xlink:href="#DejaVuSans-6e" x="320.751953"/>
     </g>
    </g>
   </g>
   <g id="line2d_38">
    <path d="M 73.832727 153.681099 
L 77.079273 190.055325 
L 80.325818 190.267841 
L 83.572364 190.354734 
L 86.818909 190.496257 
L 90.065455 190.575178 
L 93.312 190.500048 
L 96.558545 190.500671 
L 99.805091 190.523047 
L 103.051636 190.532493 
L 106.298182 190.551269 
L 109.544727 190.562154 
L 112.791273 190.577794 
L 116.037818 190.583595 
L 119.284364 190.590442 
L 122.530909 190.561054 
L 125.777455 189.811237 
L 129.024 189.615344 
L 132.270545 189.452444 
L 135.517091 189.278555 
L 138.763636 189.122963 
L 142.010182 188.985006 
L 145.256727 188.86421 
L 148.503273 188.755957 
L 151.749818 188.662447 
L 154.996364 188.579928 
L 158.242909 188.506162 
L 161.489455 188.444027 
L 164.736 188.390119 
L 167.982545 188.342923 
L 171.229091 188.302265 
L 174.475636 188.142021 
L 177.722182 187.803961 
L 180.968727 187.365581 
L 184.215273 186.849217 
L 187.461818 186.291502 
L 190.708364 185.822726 
L 193.954909 185.409659 
L 197.201455 185.10336 
L 200.448 184.866694 
L 203.694545 184.723099 
L 206.941091 184.609887 
L 210.187636 184.540718 
L 213.434182 184.492923 
L 216.680727 184.462619 
L 219.927273 184.443647 
L 223.173818 184.431762 
L 226.420364 184.424345 
L 229.666909 184.419712 
L 232.913455 184.416803 
L 236.16 184.414941 
L 239.406545 184.413918 
L 242.653091 184.413271 
L 245.899636 184.412897 
L 249.146182 184.412665 
L 252.392727 184.412607 
L 255.639273 184.412537 
L 258.885818 184.412671 
L 262.132364 184.412797 
L 265.378909 184.412916 
L 268.625455 184.412409 
L 271.872 182.166497 
L 275.118545 179.139128 
L 278.365091 175.530026 
L 281.611636 171.716935 
L 284.858182 168.187806 
L 288.104727 165.159296 
L 291.351273 162.67471 
L 294.597818 160.826858 
L 297.844364 159.361909 
L 301.090909 158.212287 
L 304.337455 157.357538 
L 307.584 156.707128 
L 310.830545 156.196652 
L 314.077091 155.82995 
L 317.323636 155.530952 
L 320.570182 155.281235 
L 323.816727 155.085515 
L 327.063273 154.92127 
L 330.309818 154.781484 
L 333.556364 154.663779 
L 336.802909 154.561206 
L 340.049455 154.470603 
L 343.296 154.390627 
L 346.542545 154.316241 
L 349.789091 154.24968 
L 353.035636 154.189315 
L 356.282182 154.13564 
L 359.528727 154.085193 
L 362.775273 154.038338 
L 366.021818 153.994664 
L 369.268364 153.954049 
L 372.514909 153.915672 
L 375.761455 153.879045 
L 379.008 153.844519 
L 382.254545 153.812093 
L 385.501091 153.781311 
L 388.747636 153.751701 
L 391.994182 153.723751 
L 395.240727 153.69746 
L 398.487273 153.672828 
" clip-path="url(#pf975870f64)" style="fill: none; stroke: #1f77b4; stroke-width: 1.5; stroke-linecap: square"/>
   </g>
   <g id="line2d_39">
    <path d="M 73.832727 170.839807 
L 77.079273 194.530046 
L 80.325818 194.946338 
L 83.572364 195.068253 
L 86.818909 195.121723 
L 90.065455 195.148604 
L 93.312 195.16375 
L 96.558545 195.172517 
L 99.805091 195.177751 
L 103.051636 195.18095 
L 106.298182 195.182977 
L 109.544727 195.184269 
L 112.791273 195.185151 
L 116.037818 195.185785 
L 119.284364 195.186247 
L 122.530909 195.186625 
L 125.777455 195.241364 
L 129.024 195.258522 
L 132.270545 195.273704 
L 135.517091 195.289573 
L 138.763636 195.304199 
L 142.010182 195.317583 
L 145.256727 195.329726 
L 148.503273 195.340641 
L 151.749818 195.350322 
L 154.996364 195.35879 
L 158.242909 195.366057 
L 161.489455 195.372108 
L 164.736 195.37697 
L 167.982545 195.380663 
L 171.229091 195.383172 
L 174.475636 195.164201 
L 177.722182 194.858136 
L 180.968727 194.459529 
L 184.215273 193.986504 
L 187.461818 193.471297 
L 190.708364 193.032615 
L 193.954909 192.650159 
L 197.201455 192.366626 
L 200.448 192.158083 
L 203.694545 192.037893 
L 206.941091 191.944604 
L 210.187636 191.891368 
L 213.434182 191.855815 
L 216.680727 191.834272 
L 219.927273 191.821366 
L 223.173818 191.813579 
L 226.420364 191.808799 
L 229.666909 191.80588 
L 232.913455 191.804069 
L 236.16 191.802921 
L 239.406545 191.802299 
L 242.653091 191.801903 
L 245.899636 191.801655 
L 249.146182 191.801485 
L 252.392727 191.801409 
L 255.639273 191.801327 
L 258.885818 191.80133 
L 262.132364 191.801327 
L 265.378909 191.801319 
L 268.625455 191.801244 
L 271.872 190.287127 
L 275.118545 188.888357 
L 278.365091 187.728654 
L 281.611636 186.72932 
L 284.858182 185.861727 
L 288.104727 185.050026 
L 291.351273 184.302263 
L 294.597818 183.60876 
L 297.844364 182.955985 
L 301.090909 182.338243 
L 304.337455 181.756056 
L 307.584 181.204746 
L 310.830545 180.678973 
L 314.077091 180.18587 
L 317.323636 179.712732 
L 320.570182 179.251251 
L 323.816727 178.815345 
L 327.063273 178.393326 
L 330.309818 177.988046 
L 333.556364 177.59826 
L 336.802909 177.223034 
L 340.049455 176.86042 
L 343.296 176.510018 
L 346.542545 176.17206 
L 349.789091 175.846597 
L 353.035636 175.525285 
L 356.282182 175.210649 
L 359.528727 174.911365 
L 362.775273 174.626554 
L 366.021818 174.347396 
L 369.268364 174.072702 
L 372.514909 173.805054 
L 375.761455 173.544877 
L 379.008 173.289764 
L 382.254545 173.037692 
L 385.501091 172.791524 
L 388.747636 172.553048 
L 391.994182 172.320423 
L 395.240727 172.093647 
L 398.487273 171.872721 
" clip-path="url(#pf975870f64)" style="fill: none; stroke: #ff7f0e; stroke-width: 1.5; stroke-linecap: square"/>
   </g>
   <g id="patch_15">
    <path d="M 57.6 197.46869 
L 57.6 151.58731 
" style="fill: none; stroke: #000000; stroke-width: 0.8; stroke-linejoin: miter; stroke-linecap: square"/>
   </g>
   <g id="patch_16">
    <path d="M 414.72 197.46869 
L 414.72 151.58731 
" style="fill: none; stroke: #000000; stroke-width: 0.8; stroke-linejoin: miter; stroke-linecap: square"/>
   </g>
   <g id="patch_17">
    <path d="M 57.6 197.46869 
L 414.72 197.46869 
" style="fill: none; stroke: #000000; stroke-width: 0.8; stroke-linejoin: miter; stroke-linecap: square"/>
   </g>
   <g id="patch_18">
    <path d="M 57.6 151.58731 
L 414.72 151.58731 
" style="fill: none; stroke: #000000; stroke-width: 0.8; stroke-linejoin: miter; stroke-linecap: square"/>
   </g>
   <g id="text_18">
    <!-- yA -->
    <g transform="translate(228.504375 145.58731)scale(0.12 -0.12)">
     <defs>
      <path id="DejaVuSans-41" d="M 2188 4044 
L 1331 1722 
L 3047 1722 
L 2188 4044 
z
M 1831 4666 
L 2547 4666 
L 4325 0 
L 3669 0 
L 3244 1197 
L 1141 1197 
L 716 0 
L 50 0 
L 1831 4666 
z
" transform="scale(0.015625)"/>
     </defs>
     <use xlink:href="#DejaVuSans-79"/>
     <use xlink:href="#DejaVuSans-41" x="59.179688"/>
    </g>
   </g>
   <g id="legend_3">
    <g id="patch_19">
     <path d="M 64.6 188.94356 
L 142.289062 188.94356 
Q 144.289062 188.94356 144.289062 186.94356 
L 144.289062 158.58731 
Q 144.289062 156.58731 142.289062 156.58731 
L 64.6 156.58731 
Q 62.6 156.58731 62.6 158.58731 
L 62.6 186.94356 
Q 62.6 188.94356 64.6 188.94356 
z
" style="fill: #ffffff; opacity: 0.8; stroke: #cccccc; stroke-linejoin: miter"/>
    </g>
    <g id="line2d_40">
     <path d="M 66.6 164.685748 
L 76.6 164.685748 
L 86.6 164.685748 
" style="fill: none; stroke: #1f77b4; stroke-width: 1.5; stroke-linecap: square"/>
    </g>
    <g id="text_19">
     <!-- yA0 (in) -->
     <g transform="translate(94.6 168.185748)scale(0.1 -0.1)">
      <use xlink:href="#DejaVuSans-79"/>
      <use xlink:href="#DejaVuSans-41" x="59.179688"/>
      <use xlink:href="#DejaVuSans-30" x="127.587891"/>
      <use xlink:href="#DejaVuSans-20" x="191.210938"/>
      <use xlink:href="#DejaVuSans-28" x="222.998047"/>
      <use xlink:href="#DejaVuSans-69" x="262.011719"/>
      <use xlink:href="#DejaVuSans-6e" x="289.794922"/>
      <use xlink:href="#DejaVuSans-29" x="353.173828"/>
     </g>
    </g>
    <g id="line2d_41">
     <path d="M 66.6 179.363873 
L 76.6 179.363873 
L 86.6 179.363873 
" style="fill: none; stroke: #ff7f0e; stroke-width: 1.5; stroke-linecap: square"/>
    </g>
    <g id="text_20">
     <!-- yAL (out) -->
     <g transform="translate(94.6 182.863873)scale(0.1 -0.1)">
      <defs>
       <path id="DejaVuSans-4c" d="M 628 4666 
L 1259 4666 
L 1259 531 
L 3531 531 
L 3531 0 
L 628 0 
L 628 4666 
z
" transform="scale(0.015625)"/>
      </defs>
      <use xlink:href="#DejaVuSans-79"/>
      <use xlink:href="#DejaVuSans-41" x="59.179688"/>
      <use xlink:href="#DejaVuSans-4c" x="127.587891"/>
      <use xlink:href="#DejaVuSans-20" x="183.300781"/>
      <use xlink:href="#DejaVuSans-28" x="215.087891"/>
      <use xlink:href="#DejaVuSans-6f" x="254.101562"/>
      <use xlink:href="#DejaVuSans-75" x="315.283203"/>
      <use xlink:href="#DejaVuSans-74" x="378.662109"/>
      <use xlink:href="#DejaVuSans-29" x="417.871094"/>
     </g>
    </g>
   </g>
  </g>
  <g id="axes_4">
   <g id="patch_20">
    <path d="M 57.6 252.526345 
L 414.72 252.526345 
L 414.72 206.644966 
L 57.6 206.644966 
z
" style="fill: #ffffff"/>
   </g>
   <g id="matplotlib.axis_7">
    <g id="xtick_19">
     <g id="line2d_42">
      <g>
       <use xlink:href="#m0ce1a3246a" x="73.832727" y="252.526345" style="stroke: #000000; stroke-width: 0.8"/>
      </g>
     </g>
    </g>
    <g id="xtick_20">
     <g id="line2d_43">
      <g>
       <use xlink:href="#m0ce1a3246a" x="138.763636" y="252.526345" style="stroke: #000000; stroke-width: 0.8"/>
      </g>
     </g>
    </g>
    <g id="xtick_21">
     <g id="line2d_44">
      <g>
       <use xlink:href="#m0ce1a3246a" x="203.694545" y="252.526345" style="stroke: #000000; stroke-width: 0.8"/>
      </g>
     </g>
    </g>
    <g id="xtick_22">
     <g id="line2d_45">
      <g>
       <use xlink:href="#m0ce1a3246a" x="268.625455" y="252.526345" style="stroke: #000000; stroke-width: 0.8"/>
      </g>
     </g>
    </g>
    <g id="xtick_23">
     <g id="line2d_46">
      <g>
       <use xlink:href="#m0ce1a3246a" x="333.556364" y="252.526345" style="stroke: #000000; stroke-width: 0.8"/>
      </g>
     </g>
    </g>
    <g id="xtick_24">
     <g id="line2d_47">
      <g>
       <use xlink:href="#m0ce1a3246a" x="398.487273" y="252.526345" style="stroke: #000000; stroke-width: 0.8"/>
      </g>
     </g>
    </g>
   </g>
   <g id="matplotlib.axis_8">
    <g id="ytick_8">
     <g id="line2d_48">
      <g>
       <use xlink:href="#m1175363d59" x="57.6" y="240.621956" style="stroke: #000000; stroke-width: 0.8"/>
      </g>
     </g>
     <g id="text_21">
      <!-- 0.88 -->
      <g transform="translate(28.334375 244.421175)scale(0.1 -0.1)">
       <defs>
        <path id="DejaVuSans-38" d="M 2034 2216 
Q 1584 2216 1326 1975 
Q 1069 1734 1069 1313 
Q 1069 891 1326 650 
Q 1584 409 2034 409 
Q 2484 409 2743 651 
Q 3003 894 3003 1313 
Q 3003 1734 2745 1975 
Q 2488 2216 2034 2216 
z
M 1403 2484 
Q 997 2584 770 2862 
Q 544 3141 544 3541 
Q 544 4100 942 4425 
Q 1341 4750 2034 4750 
Q 2731 4750 3128 4425 
Q 3525 4100 3525 3541 
Q 3525 3141 3298 2862 
Q 3072 2584 2669 2484 
Q 3125 2378 3379 2068 
Q 3634 1759 3634 1313 
Q 3634 634 3220 271 
Q 2806 -91 2034 -91 
Q 1263 -91 848 271 
Q 434 634 434 1313 
Q 434 1759 690 2068 
Q 947 2378 1403 2484 
z
M 1172 3481 
Q 1172 3119 1398 2916 
Q 1625 2713 2034 2713 
Q 2441 2713 2670 2916 
Q 2900 3119 2900 3481 
Q 2900 3844 2670 4047 
Q 2441 4250 2034 4250 
Q 1625 4250 1398 4047 
Q 1172 3844 1172 3481 
z
" transform="scale(0.015625)"/>
       </defs>
       <use xlink:href="#DejaVuSans-30"/>
       <use xlink:href="#DejaVuSans-2e" x="63.623047"/>
       <use xlink:href="#DejaVuSans-38" x="95.410156"/>
       <use xlink:href="#DejaVuSans-38" x="159.033203"/>
      </g>
     </g>
    </g>
    <g id="ytick_9">
     <g id="line2d_49">
      <g>
       <use xlink:href="#m1175363d59" x="57.6" y="216.578047" style="stroke: #000000; stroke-width: 0.8"/>
      </g>
     </g>
     <g id="text_22">
      <!-- 0.90 -->
      <g transform="translate(28.334375 220.377265)scale(0.1 -0.1)">
       <defs>
        <path id="DejaVuSans-39" d="M 703 97 
L 703 672 
Q 941 559 1184 500 
Q 1428 441 1663 441 
Q 2288 441 2617 861 
Q 2947 1281 2994 2138 
Q 2813 1869 2534 1725 
Q 2256 1581 1919 1581 
Q 1219 1581 811 2004 
Q 403 2428 403 3163 
Q 403 3881 828 4315 
Q 1253 4750 1959 4750 
Q 2769 4750 3195 4129 
Q 3622 3509 3622 2328 
Q 3622 1225 3098 567 
Q 2575 -91 1691 -91 
Q 1453 -91 1209 -44 
Q 966 3 703 97 
z
M 1959 2075 
Q 2384 2075 2632 2365 
Q 2881 2656 2881 3163 
Q 2881 3666 2632 3958 
Q 2384 4250 1959 4250 
Q 1534 4250 1286 3958 
Q 1038 3666 1038 3163 
Q 1038 2656 1286 2365 
Q 1534 2075 1959 2075 
z
" transform="scale(0.015625)"/>
       </defs>
       <use xlink:href="#DejaVuSans-30"/>
       <use xlink:href="#DejaVuSans-2e" x="63.623047"/>
       <use xlink:href="#DejaVuSans-39" x="95.410156"/>
       <use xlink:href="#DejaVuSans-30" x="159.033203"/>
      </g>
     </g>
    </g>
    <g id="text_23">
     <!-- fraction -->
     <g transform="translate(22.254687 248.791905)rotate(-90)scale(0.1 -0.1)">
      <use xlink:href="#DejaVuSans-66"/>
      <use xlink:href="#DejaVuSans-72" x="35.205078"/>
      <use xlink:href="#DejaVuSans-61" x="76.318359"/>
      <use xlink:href="#DejaVuSans-63" x="137.597656"/>
      <use xlink:href="#DejaVuSans-74" x="192.578125"/>
      <use xlink:href="#DejaVuSans-69" x="231.787109"/>
      <use xlink:href="#DejaVuSans-6f" x="259.570312"/>
      <use xlink:href="#DejaVuSans-6e" x="320.751953"/>
     </g>
    </g>
   </g>
   <g id="line2d_50">
    <path d="M 73.832727 250.440828 
L 77.079273 214.561536 
L 80.325818 214.379451 
L 83.572364 214.280913 
L 86.818909 214.117478 
L 90.065455 213.999278 
L 93.312 214.120433 
L 96.558545 214.093177 
L 99.805091 214.088469 
L 103.051636 214.100217 
L 106.298182 214.097179 
L 109.544727 214.093103 
L 112.791273 214.082012 
L 116.037818 214.079391 
L 119.284364 214.075288 
L 122.530909 214.097128 
L 125.777455 214.972402 
L 129.024 215.161009 
L 132.270545 215.312405 
L 135.517091 215.475982 
L 138.763636 215.619818 
L 142.010182 215.744862 
L 145.256727 215.851721 
L 148.503273 215.946705 
L 151.749818 216.026809 
L 154.996364 216.096632 
L 158.242909 216.158918 
L 161.489455 216.210091 
L 164.736 216.254085 
L 167.982545 216.292533 
L 171.229091 216.325716 
L 174.475636 216.508826 
L 177.722182 216.862484 
L 180.968727 217.320871 
L 184.215273 217.860304 
L 187.461818 218.440434 
L 190.708364 218.930234 
L 193.954909 219.35909 
L 197.201455 219.679803 
L 200.448 219.923547 
L 203.694545 220.074365 
L 206.941091 220.19201 
L 210.187636 220.264166 
L 213.434182 220.313721 
L 216.680727 220.345206 
L 219.927273 220.364964 
L 223.173818 220.377347 
L 226.420364 220.385101 
L 229.666909 220.389947 
L 232.913455 220.392997 
L 236.16 220.394961 
L 239.406545 220.39605 
L 242.653091 220.396748 
L 245.899636 220.397163 
L 249.146182 220.39743 
L 252.392727 220.397515 
L 255.639273 220.397613 
L 258.885818 220.397499 
L 262.132364 220.397393 
L 265.378909 220.397295 
L 268.625455 220.397809 
L 271.872 222.730117 
L 275.118545 225.828379 
L 278.365091 229.434752 
L 281.611636 233.504606 
L 284.858182 235.737646 
L 288.104727 239.4802 
L 291.351273 242.014621 
L 294.597818 243.608537 
L 297.844364 244.98718 
L 301.090909 246.064994 
L 304.337455 246.862958 
L 307.584 247.468177 
L 310.830545 247.942801 
L 314.077091 248.282663 
L 317.323636 248.560337 
L 320.570182 248.793273 
L 323.816727 248.976652 
L 327.063273 249.131719 
L 330.309818 249.264778 
L 333.556364 249.378083 
L 336.802909 249.478078 
L 340.049455 249.567581 
L 343.296 249.647807 
L 346.542545 249.723234 
L 349.789091 249.791866 
L 353.035636 249.854854 
L 356.282182 249.91185 
L 359.528727 249.965942 
L 362.775273 250.016807 
L 366.021818 250.064841 
L 369.268364 250.110157 
L 372.514909 250.153456 
L 375.761455 250.195163 
L 379.008 250.234933 
L 382.254545 250.272733 
L 385.501091 250.308922 
L 388.747636 250.343856 
L 391.994182 250.377168 
L 395.240727 250.40886 
L 398.487273 250.43893 
" clip-path="url(#p953205b247)" style="fill: none; stroke: #1f77b4; stroke-width: 1.5; stroke-linecap: square"/>
   </g>
   <g id="line2d_51">
    <path d="M 73.832727 234.596222 
L 77.079273 209.440299 
L 80.325818 208.982744 
L 83.572364 208.85113 
L 86.818909 208.794201 
L 90.065455 208.765942 
L 93.312 208.750331 
L 96.558545 208.741505 
L 99.805091 208.736452 
L 103.051636 208.733567 
L 106.298182 208.731929 
L 109.544727 208.731071 
L 112.791273 208.730648 
L 116.037818 208.730483 
L 119.284364 208.730499 
L 122.530909 208.730609 
L 125.777455 208.787016 
L 129.024 208.807882 
L 132.270545 208.831648 
L 135.517091 208.854275 
L 138.763636 208.879393 
L 142.010182 208.907171 
L 145.256727 208.937693 
L 148.503273 208.971982 
L 151.749818 209.009552 
L 154.996364 209.050861 
L 158.242909 209.096185 
L 161.489455 209.145128 
L 164.736 209.197869 
L 167.982545 209.254261 
L 171.229091 209.314005 
L 174.475636 209.499335 
L 177.722182 209.834575 
L 180.968727 210.269508 
L 184.215273 210.784219 
L 187.461818 211.342175 
L 190.708364 211.818375 
L 193.954909 212.231081 
L 197.201455 212.539817 
L 200.448 212.762866 
L 203.694545 212.894445 
L 206.941091 212.99549 
L 210.187636 213.05345 
L 213.434182 213.091885 
L 216.680727 213.115262 
L 219.927273 213.12934 
L 223.173818 213.137861 
L 226.420364 213.143135 
L 229.666909 213.146371 
L 232.913455 213.148401 
L 236.16 213.149712 
L 239.406545 213.15045 
L 242.653091 213.150943 
L 245.899636 213.151273 
L 249.146182 213.151519 
L 252.392727 213.151662 
L 255.639273 213.151813 
L 258.885818 213.151868 
L 262.132364 213.151931 
L 265.378909 213.152 
L 268.625455 213.15213 
L 271.872 214.751438 
L 275.118545 216.22207 
L 278.365091 217.436593 
L 281.611636 218.480164 
L 284.858182 219.385042 
L 288.104727 220.22957 
L 291.351273 221.006522 
L 294.597818 221.72595 
L 297.844364 222.402492 
L 301.090909 223.041939 
L 304.337455 223.643925 
L 307.584 224.213352 
L 310.830545 224.75581 
L 314.077091 225.264193 
L 317.323636 225.751536 
L 320.570182 226.226296 
L 323.816727 226.674518 
L 327.063273 227.108038 
L 330.309818 227.524113 
L 333.556364 227.923991 
L 336.802909 228.308661 
L 340.049455 228.680146 
L 343.296 229.038868 
L 346.542545 229.384685 
L 349.789091 229.717506 
L 353.035636 230.045819 
L 356.282182 230.367058 
L 359.528727 230.672633 
L 362.775273 230.963416 
L 366.021818 231.248242 
L 369.268364 231.528304 
L 372.514909 231.801013 
L 375.761455 232.065941 
L 379.008 232.325555 
L 382.254545 232.581927 
L 385.501091 232.832207 
L 388.747636 233.074647 
L 391.994182 233.311048 
L 395.240727 233.541408 
L 398.487273 233.765729 
" clip-path="url(#p953205b247)" style="fill: none; stroke: #ff7f0e; stroke-width: 1.5; stroke-linecap: square"/>
   </g>
   <g id="patch_21">
    <path d="M 57.6 252.526345 
L 57.6 206.644966 
" style="fill: none; stroke: #000000; stroke-width: 0.8; stroke-linejoin: miter; stroke-linecap: square"/>
   </g>
   <g id="patch_22">
    <path d="M 414.72 252.526345 
L 414.72 206.644966 
" style="fill: none; stroke: #000000; stroke-width: 0.8; stroke-linejoin: miter; stroke-linecap: square"/>
   </g>
   <g id="patch_23">
    <path d="M 57.6 252.526345 
L 414.72 252.526345 
" style="fill: none; stroke: #000000; stroke-width: 0.8; stroke-linejoin: miter; stroke-linecap: square"/>
   </g>
   <g id="patch_24">
    <path d="M 57.6 206.644966 
L 414.72 206.644966 
" style="fill: none; stroke: #000000; stroke-width: 0.8; stroke-linejoin: miter; stroke-linecap: square"/>
   </g>
   <g id="text_24">
    <!-- yB -->
    <g transform="translate(228.492188 200.644966)scale(0.12 -0.12)">
     <defs>
      <path id="DejaVuSans-42" d="M 1259 2228 
L 1259 519 
L 2272 519 
Q 2781 519 3026 730 
Q 3272 941 3272 1375 
Q 3272 1813 3026 2020 
Q 2781 2228 2272 2228 
L 1259 2228 
z
M 1259 4147 
L 1259 2741 
L 2194 2741 
Q 2656 2741 2882 2914 
Q 3109 3088 3109 3444 
Q 3109 3797 2882 3972 
Q 2656 4147 2194 4147 
L 1259 4147 
z
M 628 4666 
L 2241 4666 
Q 2963 4666 3353 4366 
Q 3744 4066 3744 3513 
Q 3744 3084 3544 2831 
Q 3344 2578 2956 2516 
Q 3422 2416 3680 2098 
Q 3938 1781 3938 1306 
Q 3938 681 3513 340 
Q 3088 0 2303 0 
L 628 0 
L 628 4666 
z
" transform="scale(0.015625)"/>
     </defs>
     <use xlink:href="#DejaVuSans-79"/>
     <use xlink:href="#DejaVuSans-42" x="59.179688"/>
    </g>
   </g>
   <g id="legend_4">
    <g id="patch_25">
     <path d="M 64.6 247.526345 
L 142.309375 247.526345 
Q 144.309375 247.526345 144.309375 245.526345 
L 144.309375 217.170095 
Q 144.309375 215.170095 142.309375 215.170095 
L 64.6 215.170095 
Q 62.6 215.170095 62.6 217.170095 
L 62.6 245.526345 
Q 62.6 247.526345 64.6 247.526345 
z
" style="fill: #ffffff; opacity: 0.8; stroke: #cccccc; stroke-linejoin: miter"/>
    </g>
    <g id="line2d_52">
     <path d="M 66.6 223.268532 
L 76.6 223.268532 
L 86.6 223.268532 
" style="fill: none; stroke: #1f77b4; stroke-width: 1.5; stroke-linecap: square"/>
    </g>
    <g id="text_25">
     <!-- yB0 (in) -->
     <g transform="translate(94.6 226.768532)scale(0.1 -0.1)">
      <use xlink:href="#DejaVuSans-79"/>
      <use xlink:href="#DejaVuSans-42" x="59.179688"/>
      <use xlink:href="#DejaVuSans-30" x="127.783203"/>
      <use xlink:href="#DejaVuSans-20" x="191.40625"/>
      <use xlink:href="#DejaVuSans-28" x="223.193359"/>
      <use xlink:href="#DejaVuSans-69" x="262.207031"/>
      <use xlink:href="#DejaVuSans-6e" x="289.990234"/>
      <use xlink:href="#DejaVuSans-29" x="353.369141"/>
     </g>
    </g>
    <g id="line2d_53">
     <path d="M 66.6 237.946657 
L 76.6 237.946657 
L 86.6 237.946657 
" style="fill: none; stroke: #ff7f0e; stroke-width: 1.5; stroke-linecap: square"/>
    </g>
    <g id="text_26">
     <!-- yBL (out) -->
     <g transform="translate(94.6 241.446657)scale(0.1 -0.1)">
      <use xlink:href="#DejaVuSans-79"/>
      <use xlink:href="#DejaVuSans-42" x="59.179688"/>
      <use xlink:href="#DejaVuSans-4c" x="127.783203"/>
      <use xlink:href="#DejaVuSans-20" x="183.496094"/>
      <use xlink:href="#DejaVuSans-28" x="215.283203"/>
      <use xlink:href="#DejaVuSans-6f" x="254.296875"/>
      <use xlink:href="#DejaVuSans-75" x="315.478516"/>
      <use xlink:href="#DejaVuSans-74" x="378.857422"/>
      <use xlink:href="#DejaVuSans-29" x="418.066406"/>
     </g>
    </g>
   </g>
  </g>
  <g id="axes_5">
   <g id="patch_26">
    <path d="M 57.6 307.584 
L 414.72 307.584 
L 414.72 261.702621 
L 57.6 261.702621 
z
" style="fill: #ffffff"/>
   </g>
   <g id="matplotlib.axis_9">
    <g id="xtick_25">
     <g id="line2d_54">
      <g>
       <use xlink:href="#m0ce1a3246a" x="73.832727" y="307.584" style="stroke: #000000; stroke-width: 0.8"/>
      </g>
     </g>
     <g id="text_27">
      <!-- 0 -->
      <g transform="translate(70.651477 322.182437)scale(0.1 -0.1)">
       <use xlink:href="#DejaVuSans-30"/>
      </g>
     </g>
    </g>
    <g id="xtick_26">
     <g id="line2d_55">
      <g>
       <use xlink:href="#m0ce1a3246a" x="138.763636" y="307.584" style="stroke: #000000; stroke-width: 0.8"/>
      </g>
     </g>
     <g id="text_28">
      <!-- 20 -->
      <g transform="translate(132.401136 322.182437)scale(0.1 -0.1)">
       <defs>
        <path id="DejaVuSans-32" d="M 1228 531 
L 3431 531 
L 3431 0 
L 469 0 
L 469 531 
Q 828 903 1448 1529 
Q 2069 2156 2228 2338 
Q 2531 2678 2651 2914 
Q 2772 3150 2772 3378 
Q 2772 3750 2511 3984 
Q 2250 4219 1831 4219 
Q 1534 4219 1204 4116 
Q 875 4013 500 3803 
L 500 4441 
Q 881 4594 1212 4672 
Q 1544 4750 1819 4750 
Q 2544 4750 2975 4387 
Q 3406 4025 3406 3419 
Q 3406 3131 3298 2873 
Q 3191 2616 2906 2266 
Q 2828 2175 2409 1742 
Q 1991 1309 1228 531 
z
" transform="scale(0.015625)"/>
       </defs>
       <use xlink:href="#DejaVuSans-32"/>
       <use xlink:href="#DejaVuSans-30" x="63.623047"/>
      </g>
     </g>
    </g>
    <g id="xtick_27">
     <g id="line2d_56">
      <g>
       <use xlink:href="#m0ce1a3246a" x="203.694545" y="307.584" style="stroke: #000000; stroke-width: 0.8"/>
      </g>
     </g>
     <g id="text_29">
      <!-- 40 -->
      <g transform="translate(197.332045 322.182437)scale(0.1 -0.1)">
       <defs>
        <path id="DejaVuSans-34" d="M 2419 4116 
L 825 1625 
L 2419 1625 
L 2419 4116 
z
M 2253 4666 
L 3047 4666 
L 3047 1625 
L 3713 1625 
L 3713 1100 
L 3047 1100 
L 3047 0 
L 2419 0 
L 2419 1100 
L 313 1100 
L 313 1709 
L 2253 4666 
z
" transform="scale(0.015625)"/>
       </defs>
       <use xlink:href="#DejaVuSans-34"/>
       <use xlink:href="#DejaVuSans-30" x="63.623047"/>
      </g>
     </g>
    </g>
    <g id="xtick_28">
     <g id="line2d_57">
      <g>
       <use xlink:href="#m0ce1a3246a" x="268.625455" y="307.584" style="stroke: #000000; stroke-width: 0.8"/>
      </g>
     </g>
     <g id="text_30">
      <!-- 60 -->
      <g transform="translate(262.262955 322.182437)scale(0.1 -0.1)">
       <use xlink:href="#DejaVuSans-36"/>
       <use xlink:href="#DejaVuSans-30" x="63.623047"/>
      </g>
     </g>
    </g>
    <g id="xtick_29">
     <g id="line2d_58">
      <g>
       <use xlink:href="#m0ce1a3246a" x="333.556364" y="307.584" style="stroke: #000000; stroke-width: 0.8"/>
      </g>
     </g>
     <g id="text_31">
      <!-- 80 -->
      <g transform="translate(327.193864 322.182437)scale(0.1 -0.1)">
       <use xlink:href="#DejaVuSans-38"/>
       <use xlink:href="#DejaVuSans-30" x="63.623047"/>
      </g>
     </g>
    </g>
    <g id="xtick_30">
     <g id="line2d_59">
      <g>
       <use xlink:href="#m0ce1a3246a" x="398.487273" y="307.584" style="stroke: #000000; stroke-width: 0.8"/>
      </g>
     </g>
     <g id="text_32">
      <!-- 100 -->
      <g transform="translate(388.943523 322.182437)scale(0.1 -0.1)">
       <use xlink:href="#DejaVuSans-31"/>
       <use xlink:href="#DejaVuSans-30" x="63.623047"/>
       <use xlink:href="#DejaVuSans-30" x="127.246094"/>
      </g>
     </g>
    </g>
    <g id="text_33">
     <!-- time (normalized) -->
     <g transform="translate(191.589687 335.860562)scale(0.1 -0.1)">
      <use xlink:href="#DejaVuSans-74"/>
      <use xlink:href="#DejaVuSans-69" x="39.208984"/>
      <use xlink:href="#DejaVuSans-6d" x="66.992188"/>
      <use xlink:href="#DejaVuSans-65" x="164.404297"/>
      <use xlink:href="#DejaVuSans-20" x="225.927734"/>
      <use xlink:href="#DejaVuSans-28" x="257.714844"/>
      <use xlink:href="#DejaVuSans-6e" x="296.728516"/>
      <use xlink:href="#DejaVuSans-6f" x="360.107422"/>
      <use xlink:href="#DejaVuSans-72" x="421.289062"/>
      <use xlink:href="#DejaVuSans-6d" x="460.652344"/>
      <use xlink:href="#DejaVuSans-61" x="558.064453"/>
      <use xlink:href="#DejaVuSans-6c" x="619.34375"/>
      <use xlink:href="#DejaVuSans-69" x="647.126953"/>
      <use xlink:href="#DejaVuSans-7a" x="674.910156"/>
      <use xlink:href="#DejaVuSans-65" x="727.400391"/>
      <use xlink:href="#DejaVuSans-64" x="788.923828"/>
      <use xlink:href="#DejaVuSans-29" x="852.400391"/>
     </g>
    </g>
   </g>
   <g id="matplotlib.axis_10">
    <g id="ytick_10">
     <g id="line2d_60">
      <g>
       <use xlink:href="#m1175363d59" x="57.6" y="293.481387" style="stroke: #000000; stroke-width: 0.8"/>
      </g>
     </g>
     <g id="text_34">
      <!-- 0.0500 -->
      <g transform="translate(15.609375 297.280606)scale(0.1 -0.1)">
       <use xlink:href="#DejaVuSans-30"/>
       <use xlink:href="#DejaVuSans-2e" x="63.623047"/>
       <use xlink:href="#DejaVuSans-30" x="95.410156"/>
       <use xlink:href="#DejaVuSans-35" x="159.033203"/>
       <use xlink:href="#DejaVuSans-30" x="222.65625"/>
       <use xlink:href="#DejaVuSans-30" x="286.279297"/>
      </g>
     </g>
    </g>
    <g id="ytick_11">
     <g id="line2d_61">
      <g>
       <use xlink:href="#m1175363d59" x="57.6" y="270.257848" style="stroke: #000000; stroke-width: 0.8"/>
      </g>
     </g>
     <g id="text_35">
      <!-- 0.0525 -->
      <g transform="translate(15.609375 274.057067)scale(0.1 -0.1)">
       <use xlink:href="#DejaVuSans-30"/>
       <use xlink:href="#DejaVuSans-2e" x="63.623047"/>
       <use xlink:href="#DejaVuSans-30" x="95.410156"/>
       <use xlink:href="#DejaVuSans-35" x="159.033203"/>
       <use xlink:href="#DejaVuSans-32" x="222.65625"/>
       <use xlink:href="#DejaVuSans-35" x="286.279297"/>
      </g>
     </g>
    </g>
    <g id="text_36">
     <!-- fraction -->
     <g transform="translate(9.529687 303.84956)rotate(-90)scale(0.1 -0.1)">
      <use xlink:href="#DejaVuSans-66"/>
      <use xlink:href="#DejaVuSans-72" x="35.205078"/>
      <use xlink:href="#DejaVuSans-61" x="76.318359"/>
      <use xlink:href="#DejaVuSans-63" x="137.597656"/>
      <use xlink:href="#DejaVuSans-74" x="192.578125"/>
      <use xlink:href="#DejaVuSans-69" x="231.787109"/>
      <use xlink:href="#DejaVuSans-6f" x="259.570312"/>
      <use xlink:href="#DejaVuSans-6e" x="320.751953"/>
     </g>
    </g>
   </g>
   <g id="line2d_62">
    <path d="M 73.832727 263.788138 
L 77.079273 295.117753 
L 80.325818 295.087997 
L 83.572364 295.261957 
L 86.818909 295.568034 
L 90.065455 295.947794 
L 93.312 295.519534 
L 96.558545 295.725973 
L 99.805091 295.61105 
L 103.051636 295.456371 
L 106.298182 295.352858 
L 109.544727 295.310759 
L 112.791273 295.290732 
L 116.037818 295.271726 
L 119.284364 295.257118 
L 122.530909 295.28707 
L 125.777455 293.593152 
L 129.024 293.460131 
L 132.270545 293.391588 
L 135.517091 293.303213 
L 138.763636 293.243684 
L 142.010182 293.21013 
L 145.256727 293.201084 
L 148.503273 293.198985 
L 151.749818 293.212201 
L 154.996364 293.23055 
L 158.242909 293.247966 
L 161.489455 293.272623 
L 164.736 293.29713 
L 167.982545 293.319107 
L 171.229091 293.33758 
L 174.475636 293.006027 
L 177.722182 292.558775 
L 180.968727 291.980508 
L 184.215273 291.303213 
L 187.461818 290.591005 
L 190.708364 289.975498 
L 193.954909 289.454286 
L 197.201455 289.046885 
L 200.448 288.763469 
L 203.694545 288.568874 
L 206.941091 288.425214 
L 210.187636 288.335278 
L 213.434182 288.275494 
L 216.680727 288.237075 
L 219.927273 288.212671 
L 223.173818 288.197334 
L 226.420364 288.187555 
L 229.666909 288.181436 
L 232.913455 288.177532 
L 236.16 288.17495 
L 239.406545 288.173448 
L 242.653091 288.172425 
L 245.899636 288.171752 
L 249.146182 288.171261 
L 252.392727 288.170992 
L 255.639273 288.170707 
L 258.885818 288.170684 
L 262.132364 288.17065 
L 265.378909 288.170608 
L 268.625455 288.170063 
L 271.872 285.331984 
L 275.118545 281.933873 
L 278.365091 278.455338 
L 281.611636 275.311172 
L 284.858182 272.605268 
L 288.104727 270.788514 
L 291.351273 269.356002 
L 294.597818 268.272331 
L 297.844364 267.523108 
L 301.090909 266.96691 
L 304.337455 266.579586 
L 307.584 266.300205 
L 310.830545 266.083857 
L 314.077091 265.936854 
L 317.323636 265.812678 
L 320.570182 265.701001 
L 323.816727 265.607208 
L 327.063273 265.519387 
L 330.309818 265.436275 
L 333.556364 265.356511 
L 336.802909 265.277304 
L 340.049455 265.198239 
L 343.296 265.11901 
L 346.542545 265.039082 
L 349.789091 264.958746 
L 353.035636 264.880136 
L 356.282182 264.802607 
L 359.528727 264.725686 
L 362.775273 264.649417 
L 366.021818 264.573518 
L 369.268364 264.49794 
L 372.514909 264.422814 
L 375.761455 264.348172 
L 379.008 264.27428 
L 382.254545 264.201419 
L 385.501091 264.12988 
L 388.747636 264.060128 
L 391.994182 263.991684 
L 395.240727 263.924547 
L 398.487273 263.858717 
" clip-path="url(#pc6109f3ef7)" style="fill: none; stroke: #1f77b4; stroke-width: 1.5; stroke-linecap: square"/>
   </g>
   <g id="line2d_63">
    <path d="M 73.832727 270.217105 
L 77.079273 304.438021 
L 80.325818 305.159189 
L 83.572364 305.351964 
L 86.818909 305.430364 
L 90.065455 305.466996 
L 93.312 305.48523 
L 96.558545 305.494158 
L 99.805091 305.497818 
L 103.051636 305.498483 
L 106.298182 305.497438 
L 109.544727 305.495331 
L 112.791273 305.492641 
L 116.037818 305.489623 
L 119.284364 305.486372 
L 122.530909 305.482972 
L 125.777455 304.676997 
L 129.024 304.399791 
L 132.270545 304.113505 
L 135.517091 303.831397 
L 138.763636 303.538439 
L 142.010182 303.233316 
L 145.256727 302.91537 
L 148.503273 302.576621 
L 151.749818 302.220873 
L 154.996364 301.844425 
L 158.242909 301.445074 
L 161.489455 301.025984 
L 164.736 300.585585 
L 167.982545 300.124869 
L 171.229091 299.64626 
L 174.475636 299.694583 
L 177.722182 299.173351 
L 180.968727 298.507423 
L 184.215273 297.728152 
L 187.461818 296.899908 
L 190.708364 296.186037 
L 193.954909 295.582672 
L 197.201455 295.113906 
L 200.448 294.800263 
L 203.694545 294.596111 
L 206.941091 294.446017 
L 210.187636 294.358066 
L 213.434182 294.301439 
L 216.680727 294.266442 
L 219.927273 294.244911 
L 223.173818 294.231712 
L 226.420364 294.223284 
L 229.666909 294.218008 
L 232.913455 294.214564 
L 236.16 294.212195 
L 239.406545 294.210694 
L 242.653091 294.209567 
L 245.899636 294.208689 
L 249.146182 294.207938 
L 252.392727 294.207346 
L 255.639273 294.206742 
L 258.885818 294.206288 
L 262.132364 294.205823 
L 265.378909 294.205349 
L 268.625455 294.204851 
L 271.872 292.083255 
L 275.118545 290.176126 
L 278.365091 288.631733 
L 281.611636 287.3241 
L 284.858182 286.197511 
L 288.104727 285.159377 
L 291.351273 284.211161 
L 294.597818 283.340597 
L 297.844364 282.526071 
L 301.090909 281.761337 
L 304.337455 281.045699 
L 307.584 280.372888 
L 310.830545 279.735822 
L 314.077091 279.1412 
L 317.323636 278.574171 
L 320.570182 278.025563 
L 323.816727 277.509108 
L 327.063273 277.01238 
L 330.309818 276.537281 
L 333.556364 276.082589 
L 336.802909 275.646979 
L 340.049455 275.227985 
L 343.296 274.825047 
L 346.542545 274.437702 
L 349.789091 274.066302 
L 353.035636 273.701665 
L 356.282182 273.346567 
L 359.528727 273.008708 
L 362.775273 272.687311 
L 366.021818 272.373722 
L 369.268364 272.066761 
L 372.514909 271.768987 
L 375.761455 271.480819 
L 379.008 271.199495 
L 382.254545 270.922649 
L 385.501091 270.652966 
L 388.747636 270.391854 
L 391.994182 270.137864 
L 395.240727 269.890997 
L 398.487273 269.651251 
" clip-path="url(#pc6109f3ef7)" style="fill: none; stroke: #ff7f0e; stroke-width: 1.5; stroke-linecap: square"/>
   </g>
   <g id="patch_27">
    <path d="M 57.6 307.584 
L 57.6 261.702621 
" style="fill: none; stroke: #000000; stroke-width: 0.8; stroke-linejoin: miter; stroke-linecap: square"/>
   </g>
   <g id="patch_28">
    <path d="M 414.72 307.584 
L 414.72 261.702621 
" style="fill: none; stroke: #000000; stroke-width: 0.8; stroke-linejoin: miter; stroke-linecap: square"/>
   </g>
   <g id="patch_29">
    <path d="M 57.6 307.584 
L 414.72 307.584 
" style="fill: none; stroke: #000000; stroke-width: 0.8; stroke-linejoin: miter; stroke-linecap: square"/>
   </g>
   <g id="patch_30">
    <path d="M 57.6 261.702621 
L 414.72 261.702621 
" style="fill: none; stroke: #000000; stroke-width: 0.8; stroke-linejoin: miter; stroke-linecap: square"/>
   </g>
   <g id="text_37">
    <!-- yC -->
    <g transform="translate(228.419062 255.702621)scale(0.12 -0.12)">
     <defs>
      <path id="DejaVuSans-43" d="M 4122 4306 
L 4122 3641 
Q 3803 3938 3442 4084 
Q 3081 4231 2675 4231 
Q 1875 4231 1450 3742 
Q 1025 3253 1025 2328 
Q 1025 1406 1450 917 
Q 1875 428 2675 428 
Q 3081 428 3442 575 
Q 3803 722 4122 1019 
L 4122 359 
Q 3791 134 3420 21 
Q 3050 -91 2638 -91 
Q 1578 -91 968 557 
Q 359 1206 359 2328 
Q 359 3453 968 4101 
Q 1578 4750 2638 4750 
Q 3056 4750 3426 4639 
Q 3797 4528 4122 4306 
z
" transform="scale(0.015625)"/>
     </defs>
     <use xlink:href="#DejaVuSans-79"/>
     <use xlink:href="#DejaVuSans-43" x="59.179688"/>
    </g>
   </g>
   <g id="legend_5">
    <g id="patch_31">
     <path d="M 329.88875 302.584 
L 407.72 302.584 
Q 409.72 302.584 409.72 300.584 
L 409.72 272.22775 
Q 409.72 270.22775 407.72 270.22775 
L 329.88875 270.22775 
Q 327.88875 270.22775 327.88875 272.22775 
L 327.88875 300.584 
Q 327.88875 302.584 329.88875 302.584 
z
" style="fill: #ffffff; opacity: 0.8; stroke: #cccccc; stroke-linejoin: miter"/>
    </g>
    <g id="line2d_64">
     <path d="M 331.88875 278.326187 
L 341.88875 278.326187 
L 351.88875 278.326187 
" style="fill: none; stroke: #1f77b4; stroke-width: 1.5; stroke-linecap: square"/>
    </g>
    <g id="text_38">
     <!-- yC0 (in) -->
     <g transform="translate(359.88875 281.826187)scale(0.1 -0.1)">
      <use xlink:href="#DejaVuSans-79"/>
      <use xlink:href="#DejaVuSans-43" x="59.179688"/>
      <use xlink:href="#DejaVuSans-30" x="129.003906"/>
      <use xlink:href="#DejaVuSans-20" x="192.626953"/>
      <use xlink:href="#DejaVuSans-28" x="224.414062"/>
      <use xlink:href="#DejaVuSans-69" x="263.427734"/>
      <use xlink:href="#DejaVuSans-6e" x="291.210938"/>
      <use xlink:href="#DejaVuSans-29" x="354.589844"/>
     </g>
    </g>
    <g id="line2d_65">
     <path d="M 331.88875 293.004312 
L 341.88875 293.004312 
L 351.88875 293.004312 
" style="fill: none; stroke: #ff7f0e; stroke-width: 1.5; stroke-linecap: square"/>
    </g>
    <g id="text_39">
     <!-- yCL (out) -->
     <g transform="translate(359.88875 296.504312)scale(0.1 -0.1)">
      <use xlink:href="#DejaVuSans-79"/>
      <use xlink:href="#DejaVuSans-43" x="59.179688"/>
      <use xlink:href="#DejaVuSans-4c" x="129.003906"/>
      <use xlink:href="#DejaVuSans-20" x="184.716797"/>
      <use xlink:href="#DejaVuSans-28" x="216.503906"/>
      <use xlink:href="#DejaVuSans-6f" x="255.517578"/>
      <use xlink:href="#DejaVuSans-75" x="316.699219"/>
      <use xlink:href="#DejaVuSans-74" x="380.078125"/>
      <use xlink:href="#DejaVuSans-29" x="419.287109"/>
     </g>
    </g>
   </g>
  </g>
 </g>
 <defs>
  <clipPath id="pe79f9b78f9">
   <rect x="57.6" y="41.472" width="357.12" height="45.881379"/>
  </clipPath>
  <clipPath id="pb2f475f80e">
   <rect x="57.6" y="96.529655" width="357.12" height="45.881379"/>
  </clipPath>
  <clipPath id="pf975870f64">
   <rect x="57.6" y="151.58731" width="357.12" height="45.881379"/>
  </clipPath>
  <clipPath id="p953205b247">
   <rect x="57.6" y="206.644966" width="357.12" height="45.881379"/>
  </clipPath>
  <clipPath id="pc6109f3ef7">
   <rect x="57.6" y="261.702621" width="357.12" height="45.881379"/>
  </clipPath>
 </defs>
</svg>
