<?xml version="1.0" encoding="utf-8" standalone="no"?>
<!DOCTYPE svg PUBLIC "-//W3C//DTD SVG 1.1//EN"
  "http://www.w3.org/Graphics/SVG/1.1/DTD/svg11.dtd">
<svg xmlns:xlink="http://www.w3.org/1999/xlink" width="460.8pt" height="345.6pt" viewBox="0 0 460.8 345.6" xmlns="http://www.w3.org/2000/svg" version="1.1">
 <metadata>
  <rdf:RDF xmlns:dc="http://purl.org/dc/elements/1.1/" xmlns:cc="http://creativecommons.org/ns#" xmlns:rdf="http://www.w3.org/1999/02/22-rdf-syntax-ns#">
   <cc:Work>
    <dc:type rdf:resource="http://purl.org/dc/dcmitype/StillImage"/>
    <dc:date>2022-07-10T00:04:50.695983</dc:date>
    <dc:format>image/svg+xml</dc:format>
    <dc:creator>
     <cc:Agent>
      <dc:title>Matplotlib v3.5.2, https://matplotlib.org/</dc:title>
     </cc:Agent>
    </dc:creator>
   </cc:Work>
  </rdf:RDF>
 </metadata>
 <defs>
  <style type="text/css">*{stroke-linejoin: round; stroke-linecap: butt}</style>
 </defs>
 <g id="figure_1">
  <g id="patch_1">
   <path d="M 0 345.6 
L 460.8 345.6 
L 460.8 0 
L 0 0 
z
" style="fill: #ffffff"/>
  </g>
  <g id="axes_1">
   <g id="patch_2">
    <path d="M 57.6 87.353379 
L 414.72 87.353379 
L 414.72 41.472 
L 57.6 41.472 
z
" style="fill: #ffffff"/>
   </g>
   <g id="axes_2">
    <g id="patch_3">
     <path d="M 414.72 87.353379 
L 414.72 87.353379 
L 414.72 41.472 
L 414.72 41.472 
z
" style="fill: #ffffff"/>
    </g>
    <g id="matplotlib.axis_1"/>
    <g id="matplotlib.axis_2">
     <g id="ytick_1">
      <g id="line2d_1">
       <defs>
        <path id="m6ee68afc6f" d="M 0 0 
L 3.5 0 
" style="stroke: #000000; stroke-width: 0.8"/>
       </defs>
       <g>
        <use xlink:href="#m6ee68afc6f" x="414.72" y="72.131304" style="stroke: #000000; stroke-width: 0.8"/>
       </g>
      </g>
      <g id="text_1">
       <!-- −10 -->
       <g transform="translate(421.72 75.930523)scale(0.1 -0.1)">
        <defs>
         <path id="DejaVuSans-2212" d="M 678 2272 
L 4684 2272 
L 4684 1741 
L 678 1741 
L 678 2272 
z
" transform="scale(0.015625)"/>
         <path id="DejaVuSans-31" d="M 794 531 
L 1825 531 
L 1825 4091 
L 703 3866 
L 703 4441 
L 1819 4666 
L 2450 4666 
L 2450 531 
L 3481 531 
L 3481 0 
L 794 0 
L 794 531 
z
" transform="scale(0.015625)"/>
         <path id="DejaVuSans-30" d="M 2034 4250 
Q 1547 4250 1301 3770 
Q 1056 3291 1056 2328 
Q 1056 1369 1301 889 
Q 1547 409 2034 409 
Q 2525 409 2770 889 
Q 3016 1369 3016 2328 
Q 3016 3291 2770 3770 
Q 2525 4250 2034 4250 
z
M 2034 4750 
Q 2819 4750 3233 4129 
Q 3647 3509 3647 2328 
Q 3647 1150 3233 529 
Q 2819 -91 2034 -91 
Q 1250 -91 836 529 
Q 422 1150 422 2328 
Q 422 3509 836 4129 
Q 1250 4750 2034 4750 
z
" transform="scale(0.015625)"/>
        </defs>
        <use xlink:href="#DejaVuSans-2212"/>
        <use xlink:href="#DejaVuSans-31" x="83.789062"/>
        <use xlink:href="#DejaVuSans-30" x="147.412109"/>
       </g>
      </g>
     </g>
     <g id="ytick_2">
      <g id="line2d_2">
       <g>
        <use xlink:href="#m6ee68afc6f" x="414.72" y="46.163734" style="stroke: #000000; stroke-width: 0.8"/>
       </g>
      </g>
      <g id="text_2">
       <!-- 0 -->
       <g transform="translate(421.72 49.962953)scale(0.1 -0.1)">
        <use xlink:href="#DejaVuSans-30"/>
       </g>
      </g>
     </g>
     <g id="text_3">
      <!-- vel [m/s] -->
      <g transform="translate(454.423125 86.48769)rotate(-90)scale(0.1 -0.1)">
       <defs>
        <path id="DejaVuSans-76" d="M 191 3500 
L 800 3500 
L 1894 563 
L 2988 3500 
L 3597 3500 
L 2284 0 
L 1503 0 
L 191 3500 
z
" transform="scale(0.015625)"/>
        <path id="DejaVuSans-65" d="M 3597 1894 
L 3597 1613 
L 953 1613 
Q 991 1019 1311 708 
Q 1631 397 2203 397 
Q 2534 397 2845 478 
Q 3156 559 3463 722 
L 3463 178 
Q 3153 47 2828 -22 
Q 2503 -91 2169 -91 
Q 1331 -91 842 396 
Q 353 884 353 1716 
Q 353 2575 817 3079 
Q 1281 3584 2069 3584 
Q 2775 3584 3186 3129 
Q 3597 2675 3597 1894 
z
M 3022 2063 
Q 3016 2534 2758 2815 
Q 2500 3097 2075 3097 
Q 1594 3097 1305 2825 
Q 1016 2553 972 2059 
L 3022 2063 
z
" transform="scale(0.015625)"/>
        <path id="DejaVuSans-6c" d="M 603 4863 
L 1178 4863 
L 1178 0 
L 603 0 
L 603 4863 
z
" transform="scale(0.015625)"/>
        <path id="DejaVuSans-20" transform="scale(0.015625)"/>
        <path id="DejaVuSans-5b" d="M 550 4863 
L 1875 4863 
L 1875 4416 
L 1125 4416 
L 1125 -397 
L 1875 -397 
L 1875 -844 
L 550 -844 
L 550 4863 
z
" transform="scale(0.015625)"/>
        <path id="DejaVuSans-6d" d="M 3328 2828 
Q 3544 3216 3844 3400 
Q 4144 3584 4550 3584 
Q 5097 3584 5394 3201 
Q 5691 2819 5691 2113 
L 5691 0 
L 5113 0 
L 5113 2094 
Q 5113 2597 4934 2840 
Q 4756 3084 4391 3084 
Q 3944 3084 3684 2787 
Q 3425 2491 3425 1978 
L 3425 0 
L 2847 0 
L 2847 2094 
Q 2847 2600 2669 2842 
Q 2491 3084 2119 3084 
Q 1678 3084 1418 2786 
Q 1159 2488 1159 1978 
L 1159 0 
L 581 0 
L 581 3500 
L 1159 3500 
L 1159 2956 
Q 1356 3278 1631 3431 
Q 1906 3584 2284 3584 
Q 2666 3584 2933 3390 
Q 3200 3197 3328 2828 
z
" transform="scale(0.015625)"/>
        <path id="DejaVuSans-2f" d="M 1625 4666 
L 2156 4666 
L 531 -594 
L 0 -594 
L 1625 4666 
z
" transform="scale(0.015625)"/>
        <path id="DejaVuSans-73" d="M 2834 3397 
L 2834 2853 
Q 2591 2978 2328 3040 
Q 2066 3103 1784 3103 
Q 1356 3103 1142 2972 
Q 928 2841 928 2578 
Q 928 2378 1081 2264 
Q 1234 2150 1697 2047 
L 1894 2003 
Q 2506 1872 2764 1633 
Q 3022 1394 3022 966 
Q 3022 478 2636 193 
Q 2250 -91 1575 -91 
Q 1294 -91 989 -36 
Q 684 19 347 128 
L 347 722 
Q 666 556 975 473 
Q 1284 391 1588 391 
Q 1994 391 2212 530 
Q 2431 669 2431 922 
Q 2431 1156 2273 1281 
Q 2116 1406 1581 1522 
L 1381 1569 
Q 847 1681 609 1914 
Q 372 2147 372 2553 
Q 372 3047 722 3315 
Q 1072 3584 1716 3584 
Q 2034 3584 2315 3537 
Q 2597 3491 2834 3397 
z
" transform="scale(0.015625)"/>
        <path id="DejaVuSans-5d" d="M 1947 4863 
L 1947 -844 
L 622 -844 
L 622 -397 
L 1369 -397 
L 1369 4416 
L 622 4416 
L 622 4863 
L 1947 4863 
z
" transform="scale(0.015625)"/>
       </defs>
       <use xlink:href="#DejaVuSans-76"/>
       <use xlink:href="#DejaVuSans-65" x="59.179688"/>
       <use xlink:href="#DejaVuSans-6c" x="120.703125"/>
       <use xlink:href="#DejaVuSans-20" x="148.486328"/>
       <use xlink:href="#DejaVuSans-5b" x="180.273438"/>
       <use xlink:href="#DejaVuSans-6d" x="219.287109"/>
       <use xlink:href="#DejaVuSans-2f" x="316.699219"/>
       <use xlink:href="#DejaVuSans-73" x="350.390625"/>
       <use xlink:href="#DejaVuSans-5d" x="402.490234"/>
      </g>
     </g>
    </g>
    <g id="patch_4">
     <path d="M 414.72 87.353379 
L 414.72 41.472 
" style="fill: none; stroke: #000000; stroke-width: 0.8; stroke-linejoin: miter; stroke-linecap: square"/>
    </g>
   </g>
   <g id="matplotlib.axis_3">
    <g id="xtick_1">
     <g id="line2d_3">
      <defs>
       <path id="m60989d7917" d="M 0 0 
L 0 3.5 
" style="stroke: #000000; stroke-width: 0.8"/>
      </defs>
      <g>
       <use xlink:href="#m60989d7917" x="73.832727" y="87.353379" style="stroke: #000000; stroke-width: 0.8"/>
      </g>
     </g>
    </g>
    <g id="xtick_2">
     <g id="line2d_4">
      <g>
       <use xlink:href="#m60989d7917" x="116.550431" y="87.353379" style="stroke: #000000; stroke-width: 0.8"/>
      </g>
     </g>
    </g>
    <g id="xtick_3">
     <g id="line2d_5">
      <g>
       <use xlink:href="#m60989d7917" x="159.268134" y="87.353379" style="stroke: #000000; stroke-width: 0.8"/>
      </g>
     </g>
    </g>
    <g id="xtick_4">
     <g id="line2d_6">
      <g>
       <use xlink:href="#m60989d7917" x="201.985837" y="87.353379" style="stroke: #000000; stroke-width: 0.8"/>
      </g>
     </g>
    </g>
    <g id="xtick_5">
     <g id="line2d_7">
      <g>
       <use xlink:href="#m60989d7917" x="244.703541" y="87.353379" style="stroke: #000000; stroke-width: 0.8"/>
      </g>
     </g>
    </g>
    <g id="xtick_6">
     <g id="line2d_8">
      <g>
       <use xlink:href="#m60989d7917" x="287.421244" y="87.353379" style="stroke: #000000; stroke-width: 0.8"/>
      </g>
     </g>
    </g>
    <g id="xtick_7">
     <g id="line2d_9">
      <g>
       <use xlink:href="#m60989d7917" x="330.138947" y="87.353379" style="stroke: #000000; stroke-width: 0.8"/>
      </g>
     </g>
    </g>
    <g id="xtick_8">
     <g id="line2d_10">
      <g>
       <use xlink:href="#m60989d7917" x="372.856651" y="87.353379" style="stroke: #000000; stroke-width: 0.8"/>
      </g>
     </g>
    </g>
   </g>
   <g id="matplotlib.axis_4">
    <g id="ytick_3">
     <g id="line2d_11">
      <defs>
       <path id="m5d6a33fcb5" d="M 0 0 
L -3.5 0 
" style="stroke: #000000; stroke-width: 0.8"/>
      </defs>
      <g>
       <use xlink:href="#m5d6a33fcb5" x="57.6" y="72.131304" style="stroke: #000000; stroke-width: 0.8"/>
      </g>
     </g>
     <g id="text_4">
      <!-- −10 -->
      <g transform="translate(29.495313 75.930523)scale(0.1 -0.1)">
       <use xlink:href="#DejaVuSans-2212"/>
       <use xlink:href="#DejaVuSans-31" x="83.789062"/>
       <use xlink:href="#DejaVuSans-30" x="147.412109"/>
      </g>
     </g>
    </g>
    <g id="ytick_4">
     <g id="line2d_12">
      <g>
       <use xlink:href="#m5d6a33fcb5" x="57.6" y="46.163734" style="stroke: #000000; stroke-width: 0.8"/>
      </g>
     </g>
     <g id="text_5">
      <!-- 0 -->
      <g transform="translate(44.2375 49.962953)scale(0.1 -0.1)">
       <use xlink:href="#DejaVuSans-30"/>
      </g>
     </g>
    </g>
    <g id="text_6">
     <!-- vel [normalized] -->
     <g transform="translate(23.415625 105.111908)rotate(-90)scale(0.1 -0.1)">
      <defs>
       <path id="DejaVuSans-6e" d="M 3513 2113 
L 3513 0 
L 2938 0 
L 2938 2094 
Q 2938 2591 2744 2837 
Q 2550 3084 2163 3084 
Q 1697 3084 1428 2787 
Q 1159 2491 1159 1978 
L 1159 0 
L 581 0 
L 581 3500 
L 1159 3500 
L 1159 2956 
Q 1366 3272 1645 3428 
Q 1925 3584 2291 3584 
Q 2894 3584 3203 3211 
Q 3513 2838 3513 2113 
z
" transform="scale(0.015625)"/>
       <path id="DejaVuSans-6f" d="M 1959 3097 
Q 1497 3097 1228 2736 
Q 959 2375 959 1747 
Q 959 1119 1226 758 
Q 1494 397 1959 397 
Q 2419 397 2687 759 
Q 2956 1122 2956 1747 
Q 2956 2369 2687 2733 
Q 2419 3097 1959 3097 
z
M 1959 3584 
Q 2709 3584 3137 3096 
Q 3566 2609 3566 1747 
Q 3566 888 3137 398 
Q 2709 -91 1959 -91 
Q 1206 -91 779 398 
Q 353 888 353 1747 
Q 353 2609 779 3096 
Q 1206 3584 1959 3584 
z
" transform="scale(0.015625)"/>
       <path id="DejaVuSans-72" d="M 2631 2963 
Q 2534 3019 2420 3045 
Q 2306 3072 2169 3072 
Q 1681 3072 1420 2755 
Q 1159 2438 1159 1844 
L 1159 0 
L 581 0 
L 581 3500 
L 1159 3500 
L 1159 2956 
Q 1341 3275 1631 3429 
Q 1922 3584 2338 3584 
Q 2397 3584 2469 3576 
Q 2541 3569 2628 3553 
L 2631 2963 
z
" transform="scale(0.015625)"/>
       <path id="DejaVuSans-61" d="M 2194 1759 
Q 1497 1759 1228 1600 
Q 959 1441 959 1056 
Q 959 750 1161 570 
Q 1363 391 1709 391 
Q 2188 391 2477 730 
Q 2766 1069 2766 1631 
L 2766 1759 
L 2194 1759 
z
M 3341 1997 
L 3341 0 
L 2766 0 
L 2766 531 
Q 2569 213 2275 61 
Q 1981 -91 1556 -91 
Q 1019 -91 701 211 
Q 384 513 384 1019 
Q 384 1609 779 1909 
Q 1175 2209 1959 2209 
L 2766 2209 
L 2766 2266 
Q 2766 2663 2505 2880 
Q 2244 3097 1772 3097 
Q 1472 3097 1187 3025 
Q 903 2953 641 2809 
L 641 3341 
Q 956 3463 1253 3523 
Q 1550 3584 1831 3584 
Q 2591 3584 2966 3190 
Q 3341 2797 3341 1997 
z
" transform="scale(0.015625)"/>
       <path id="DejaVuSans-69" d="M 603 3500 
L 1178 3500 
L 1178 0 
L 603 0 
L 603 3500 
z
M 603 4863 
L 1178 4863 
L 1178 4134 
L 603 4134 
L 603 4863 
z
" transform="scale(0.015625)"/>
       <path id="DejaVuSans-7a" d="M 353 3500 
L 3084 3500 
L 3084 2975 
L 922 459 
L 3084 459 
L 3084 0 
L 275 0 
L 275 525 
L 2438 3041 
L 353 3041 
L 353 3500 
z
" transform="scale(0.015625)"/>
       <path id="DejaVuSans-64" d="M 2906 2969 
L 2906 4863 
L 3481 4863 
L 3481 0 
L 2906 0 
L 2906 525 
Q 2725 213 2448 61 
Q 2172 -91 1784 -91 
Q 1150 -91 751 415 
Q 353 922 353 1747 
Q 353 2572 751 3078 
Q 1150 3584 1784 3584 
Q 2172 3584 2448 3432 
Q 2725 3281 2906 2969 
z
M 947 1747 
Q 947 1113 1208 752 
Q 1469 391 1925 391 
Q 2381 391 2643 752 
Q 2906 1113 2906 1747 
Q 2906 2381 2643 2742 
Q 2381 3103 1925 3103 
Q 1469 3103 1208 2742 
Q 947 2381 947 1747 
z
" transform="scale(0.015625)"/>
      </defs>
      <use xlink:href="#DejaVuSans-76"/>
      <use xlink:href="#DejaVuSans-65" x="59.179688"/>
      <use xlink:href="#DejaVuSans-6c" x="120.703125"/>
      <use xlink:href="#DejaVuSans-20" x="148.486328"/>
      <use xlink:href="#DejaVuSans-5b" x="180.273438"/>
      <use xlink:href="#DejaVuSans-6e" x="219.287109"/>
      <use xlink:href="#DejaVuSans-6f" x="282.666016"/>
      <use xlink:href="#DejaVuSans-72" x="343.847656"/>
      <use xlink:href="#DejaVuSans-6d" x="383.210938"/>
      <use xlink:href="#DejaVuSans-61" x="480.623047"/>
      <use xlink:href="#DejaVuSans-6c" x="541.902344"/>
      <use xlink:href="#DejaVuSans-69" x="569.685547"/>
      <use xlink:href="#DejaVuSans-7a" x="597.46875"/>
      <use xlink:href="#DejaVuSans-65" x="649.958984"/>
      <use xlink:href="#DejaVuSans-64" x="711.482422"/>
      <use xlink:href="#DejaVuSans-5d" x="774.958984"/>
     </g>
    </g>
   </g>
   <g id="line2d_13">
    <path d="M 73.832727 54.972052 
L 90.919809 54.333908 
L 108.00689 53.713415 
L 125.093971 53.11814 
L 142.181053 52.550412 
L 159.268134 52.009932 
L 176.355215 51.495129 
L 193.442297 51.003856 
L 210.529378 50.53376 
L 227.616459 50.082477 
L 244.703541 49.647728 
L 261.790622 49.227353 
L 278.877703 48.819334 
L 295.964785 48.421784 
L 313.051866 48.032937 
L 330.138947 47.651132 
L 347.226029 47.274796 
L 364.31311 46.902421 
L 381.400191 46.532547 
L 398.487273 46.532547 
" clip-path="url(#p739ec0feb3)" style="fill: none; stroke: #1f77b4; stroke-width: 1.5; stroke-linecap: square"/>
   </g>
   <g id="line2d_14">
    <path d="M 73.832727 46.045701 
L 90.919809 46.052428 
L 108.00689 46.059029 
L 125.093971 46.065528 
L 142.181053 46.071941 
L 159.268134 46.078282 
L 176.355215 46.084562 
L 193.442297 46.090792 
L 210.529378 46.096978 
L 227.616459 46.10313 
L 244.703541 46.109253 
L 261.790622 46.115352 
L 278.877703 46.121433 
L 295.964785 46.1275 
L 313.051866 46.133555 
L 330.138947 46.139602 
L 347.226029 46.145642 
L 364.31311 46.151677 
L 381.400191 46.157708 
L 398.487273 46.157708 
" clip-path="url(#p739ec0feb3)" style="fill: none; stroke: #ff7f0e; stroke-width: 1.5; stroke-linecap: square"/>
   </g>
   <g id="line2d_15">
    <path d="M 73.832727 43.566713 
L 90.919809 43.566216 
L 108.00689 43.565729 
L 125.093971 43.565248 
L 142.181053 43.564769 
L 159.268134 43.564292 
L 176.355215 43.563815 
L 193.442297 43.563338 
L 210.529378 43.562861 
L 227.616459 43.562383 
L 244.703541 43.561906 
L 261.790622 43.561428 
L 278.877703 43.560949 
L 295.964785 43.56047 
L 313.051866 43.559991 
L 330.138947 43.559511 
L 347.226029 43.55903 
L 364.31311 43.558549 
L 381.400191 43.558068 
L 398.487273 43.558068 
" clip-path="url(#p739ec0feb3)" style="fill: none; stroke: #2ca02c; stroke-width: 1.5; stroke-linecap: square"/>
   </g>
   <g id="line2d_16">
    <path d="M 73.832727 43.566709 
L 90.919809 43.566184 
L 108.00689 43.565658 
L 125.093971 43.565136 
L 142.181053 43.564618 
L 159.268134 43.564103 
L 176.355215 43.56359 
L 193.442297 43.563078 
L 210.529378 43.562568 
L 227.616459 43.562059 
L 244.703541 43.56155 
L 261.790622 43.561043 
L 278.877703 43.560536 
L 295.964785 43.56003 
L 313.051866 43.559525 
L 330.138947 43.559022 
L 347.226029 43.558519 
L 364.31311 43.558017 
L 381.400191 43.557517 
L 398.487273 43.557517 
" clip-path="url(#p739ec0feb3)" style="fill: none; stroke: #d62728; stroke-width: 1.5; stroke-linecap: square"/>
   </g>
   <g id="line2d_17">
    <path d="M 73.832727 46.091783 
L 90.919809 46.019764 
L 108.00689 45.94766 
L 125.093971 45.875468 
L 142.181053 45.803194 
L 159.268134 45.730848 
L 176.355215 45.658435 
L 193.442297 45.585959 
L 210.529378 45.513425 
L 227.616459 45.440832 
L 244.703541 45.368182 
L 261.790622 45.295474 
L 278.877703 45.222709 
L 295.964785 45.149887 
L 313.051866 45.077008 
L 330.138947 45.004071 
L 347.226029 44.931077 
L 364.31311 44.858028 
L 381.400191 44.784924 
L 398.487273 44.784924 
" clip-path="url(#p739ec0feb3)" style="fill: none; stroke: #9467bd; stroke-width: 1.5; stroke-linecap: square"/>
   </g>
   <g id="line2d_18">
    <path d="M 73.832727 46.069926 
L 90.919809 45.975858 
L 108.00689 45.881465 
L 125.093971 45.786743 
L 142.181053 45.691714 
L 159.268134 45.596411 
L 176.355215 45.500861 
L 193.442297 45.405083 
L 210.529378 45.309091 
L 227.616459 45.212893 
L 244.703541 45.116495 
L 261.790622 45.019899 
L 278.877703 44.923109 
L 295.964785 44.826126 
L 313.051866 44.728953 
L 330.138947 44.631593 
L 347.226029 44.534051 
L 364.31311 44.436331 
L 381.400191 44.338442 
L 398.487273 44.338442 
" clip-path="url(#p739ec0feb3)" style="fill: none; stroke: #8c564b; stroke-width: 1.5; stroke-linecap: square"/>
   </g>
   <g id="line2d_19">
    <path d="M 73.832727 46.158505 
L 90.919809 46.153267 
L 108.00689 46.148023 
L 125.093971 46.142778 
L 142.181053 46.13754 
L 159.268134 46.132317 
L 176.355215 46.127117 
L 193.442297 46.121946 
L 210.529378 46.116812 
L 227.616459 46.111722 
L 244.703541 46.106683 
L 261.790622 46.1017 
L 278.877703 46.09678 
L 295.964785 46.09193 
L 313.051866 46.087155 
L 330.138947 46.082463 
L 347.226029 46.077859 
L 364.31311 46.07335 
L 381.400191 46.068942 
L 398.487273 46.068942 
" clip-path="url(#p739ec0feb3)" style="fill: none; stroke: #e377c2; stroke-width: 1.5; stroke-linecap: square"/>
   </g>
   <g id="line2d_20">
    <path d="M 73.832727 46.163746 
L 90.919809 46.163758 
L 108.00689 46.163771 
L 125.093971 46.163785 
L 142.181053 46.163798 
L 159.268134 46.163813 
L 176.355215 46.163828 
L 193.442297 46.163844 
L 210.529378 46.16386 
L 227.616459 46.163878 
L 244.703541 46.163897 
L 261.790622 46.163917 
L 278.877703 46.163938 
L 295.964785 46.163961 
L 313.051866 46.163986 
L 330.138947 46.164012 
L 347.226029 46.164039 
L 364.31311 46.164069 
L 381.400191 46.1641 
L 398.487273 46.1641 
" clip-path="url(#p739ec0feb3)" style="fill: none; stroke: #7f7f7f; stroke-width: 1.5; stroke-linecap: square"/>
   </g>
   <g id="line2d_21">
    <path d="M 73.832727 85.267862 
L 90.919809 78.86817 
L 108.00689 74.105422 
L 125.093971 70.372069 
L 142.181053 67.331806 
L 159.268134 64.781984 
L 176.355215 62.592369 
L 193.442297 60.674918 
L 210.529378 58.967624 
L 227.616459 57.425295 
L 244.703541 56.014002 
L 261.790622 54.707588 
L 278.877703 53.485389 
L 295.964785 52.330689 
L 313.051866 51.229648 
L 330.138947 50.170532 
L 347.226029 49.143143 
L 364.31311 48.138378 
L 381.400191 47.14788 
L 398.487273 47.14788 
" clip-path="url(#p739ec0feb3)" style="fill: none; stroke: #bcbd22; stroke-width: 1.5; stroke-linecap: square"/>
   </g>
   <g id="line2d_22">
    <path d="M 73.832727 76.533296 
L 90.919809 71.341426 
L 108.00689 67.58022 
L 125.093971 64.680032 
L 142.181053 62.341986 
L 159.268134 60.392894 
L 176.355215 58.724716 
L 193.442297 57.266105 
L 210.529378 55.967732 
L 227.616459 54.794172 
L 244.703541 53.71915 
L 261.790622 52.722606 
L 278.877703 51.788815 
L 295.964785 50.905143 
L 313.051866 50.061182 
L 330.138947 49.248145 
L 347.226029 48.458414 
L 364.31311 47.685201 
L 381.400191 46.922276 
L 398.487273 46.922276 
" clip-path="url(#p739ec0feb3)" style="fill: none; stroke: #17becf; stroke-width: 1.5; stroke-linecap: square"/>
   </g>
   <g id="line2d_23">
    <path d="M 73.832727 64.96412 
L 90.919809 62.658903 
L 108.00689 60.743437 
L 125.093971 59.120455 
L 142.181053 57.719341 
L 159.268134 56.489276 
L 176.355215 55.393198 
L 193.442297 54.40355 
L 210.529378 53.499412 
L 227.616459 52.664578 
L 244.703541 51.886244 
L 261.790622 51.1541 
L 278.877703 50.459684 
L 295.964785 49.795921 
L 313.051866 49.156777 
L 330.138947 48.537002 
L 347.226029 47.931928 
L 364.31311 47.337307 
L 381.400191 46.749175 
L 398.487273 46.749175 
" clip-path="url(#p739ec0feb3)" style="fill: none; stroke: #1f77b4; stroke-width: 1.5; stroke-linecap: square"/>
   </g>
   <g id="line2d_24">
    <path d="M 73.832727 59.329851 
L 90.919809 58.071971 
L 108.00689 56.938511 
L 125.093971 55.916302 
L 142.181053 54.989613 
L 159.268134 54.143689 
L 176.355215 53.365706 
L 193.442297 52.644818 
L 210.529378 51.971927 
L 227.616459 51.339397 
L 244.703541 50.740777 
L 261.790622 50.170573 
L 278.877703 49.624055 
L 295.964785 49.097101 
L 313.051866 48.586065 
L 330.138947 48.087679 
L 347.226029 47.598959 
L 364.31311 47.117133 
L 381.400191 46.639573 
L 398.487273 46.639573 
" clip-path="url(#p739ec0feb3)" style="fill: none; stroke: #ff7f0e; stroke-width: 1.5; stroke-linecap: square"/>
   </g>
   <g id="line2d_25">
    <path d="M 73.832727 56.091893 
L 90.919809 55.311916 
L 108.00689 54.569754 
L 125.093971 53.870187 
L 142.181053 53.212606 
L 159.268134 52.594097 
L 176.355215 52.010897 
L 193.442297 51.459072 
L 210.529378 50.934823 
L 227.616459 50.434615 
L 244.703541 49.955209 
L 261.790622 49.493664 
L 278.877703 49.047302 
L 295.964785 48.613683 
L 313.051866 48.190567 
L 330.138947 47.775875 
L 347.226029 47.367662 
L 364.31311 46.96408 
L 381.400191 46.563351 
L 398.487273 46.563351 
" clip-path="url(#p739ec0feb3)" style="fill: none; stroke: #2ca02c; stroke-width: 1.5; stroke-linecap: square"/>
   </g>
   <g id="patch_5">
    <path d="M 57.6 87.353379 
L 57.6 41.472 
" style="fill: none; stroke: #000000; stroke-width: 0.8; stroke-linejoin: miter; stroke-linecap: square"/>
   </g>
   <g id="patch_6">
    <path d="M 414.72 87.353379 
L 414.72 41.472 
" style="fill: none; stroke: #000000; stroke-width: 0.8; stroke-linejoin: miter; stroke-linecap: square"/>
   </g>
   <g id="patch_7">
    <path d="M 57.6 87.353379 
L 414.72 87.353379 
" style="fill: none; stroke: #000000; stroke-width: 0.8; stroke-linejoin: miter; stroke-linecap: square"/>
   </g>
   <g id="patch_8">
    <path d="M 57.6 41.472 
L 414.72 41.472 
" style="fill: none; stroke: #000000; stroke-width: 0.8; stroke-linejoin: miter; stroke-linecap: square"/>
   </g>
   <g id="text_7">
    <!-- velocity - Container 1  -->
    <g transform="translate(169.779375 38.472)scale(0.12 -0.12)">
     <defs>
      <path id="DejaVuSans-63" d="M 3122 3366 
L 3122 2828 
Q 2878 2963 2633 3030 
Q 2388 3097 2138 3097 
Q 1578 3097 1268 2742 
Q 959 2388 959 1747 
Q 959 1106 1268 751 
Q 1578 397 2138 397 
Q 2388 397 2633 464 
Q 2878 531 3122 666 
L 3122 134 
Q 2881 22 2623 -34 
Q 2366 -91 2075 -91 
Q 1284 -91 818 406 
Q 353 903 353 1747 
Q 353 2603 823 3093 
Q 1294 3584 2113 3584 
Q 2378 3584 2631 3529 
Q 2884 3475 3122 3366 
z
" transform="scale(0.015625)"/>
      <path id="DejaVuSans-74" d="M 1172 4494 
L 1172 3500 
L 2356 3500 
L 2356 3053 
L 1172 3053 
L 1172 1153 
Q 1172 725 1289 603 
Q 1406 481 1766 481 
L 2356 481 
L 2356 0 
L 1766 0 
Q 1100 0 847 248 
Q 594 497 594 1153 
L 594 3053 
L 172 3053 
L 172 3500 
L 594 3500 
L 594 4494 
L 1172 4494 
z
" transform="scale(0.015625)"/>
      <path id="DejaVuSans-79" d="M 2059 -325 
Q 1816 -950 1584 -1140 
Q 1353 -1331 966 -1331 
L 506 -1331 
L 506 -850 
L 844 -850 
Q 1081 -850 1212 -737 
Q 1344 -625 1503 -206 
L 1606 56 
L 191 3500 
L 800 3500 
L 1894 763 
L 2988 3500 
L 3597 3500 
L 2059 -325 
z
" transform="scale(0.015625)"/>
      <path id="DejaVuSans-2d" d="M 313 2009 
L 1997 2009 
L 1997 1497 
L 313 1497 
L 313 2009 
z
" transform="scale(0.015625)"/>
      <path id="DejaVuSans-43" d="M 4122 4306 
L 4122 3641 
Q 3803 3938 3442 4084 
Q 3081 4231 2675 4231 
Q 1875 4231 1450 3742 
Q 1025 3253 1025 2328 
Q 1025 1406 1450 917 
Q 1875 428 2675 428 
Q 3081 428 3442 575 
Q 3803 722 4122 1019 
L 4122 359 
Q 3791 134 3420 21 
Q 3050 -91 2638 -91 
Q 1578 -91 968 557 
Q 359 1206 359 2328 
Q 359 3453 968 4101 
Q 1578 4750 2638 4750 
Q 3056 4750 3426 4639 
Q 3797 4528 4122 4306 
z
" transform="scale(0.015625)"/>
     </defs>
     <use xlink:href="#DejaVuSans-76"/>
     <use xlink:href="#DejaVuSans-65" x="59.179688"/>
     <use xlink:href="#DejaVuSans-6c" x="120.703125"/>
     <use xlink:href="#DejaVuSans-6f" x="148.486328"/>
     <use xlink:href="#DejaVuSans-63" x="209.667969"/>
     <use xlink:href="#DejaVuSans-69" x="264.648438"/>
     <use xlink:href="#DejaVuSans-74" x="292.431641"/>
     <use xlink:href="#DejaVuSans-79" x="331.640625"/>
     <use xlink:href="#DejaVuSans-20" x="390.820312"/>
     <use xlink:href="#DejaVuSans-2d" x="422.607422"/>
     <use xlink:href="#DejaVuSans-20" x="458.691406"/>
     <use xlink:href="#DejaVuSans-43" x="490.478516"/>
     <use xlink:href="#DejaVuSans-6f" x="560.302734"/>
     <use xlink:href="#DejaVuSans-6e" x="621.484375"/>
     <use xlink:href="#DejaVuSans-74" x="684.863281"/>
     <use xlink:href="#DejaVuSans-61" x="724.072266"/>
     <use xlink:href="#DejaVuSans-69" x="785.351562"/>
     <use xlink:href="#DejaVuSans-6e" x="813.134766"/>
     <use xlink:href="#DejaVuSans-65" x="876.513672"/>
     <use xlink:href="#DejaVuSans-72" x="938.037109"/>
     <use xlink:href="#DejaVuSans-20" x="979.150391"/>
     <use xlink:href="#DejaVuSans-31" x="1010.9375"/>
     <use xlink:href="#DejaVuSans-20" x="1074.560547"/>
    </g>
   </g>
  </g>
  <g id="axes_3">
   <g id="patch_9">
    <path d="M 57.6 142.411034 
L 414.72 142.411034 
L 414.72 96.529655 
L 57.6 96.529655 
z
" style="fill: #ffffff"/>
   </g>
   <g id="matplotlib.axis_5">
    <g id="xtick_9">
     <g id="line2d_26">
      <g>
       <use xlink:href="#m60989d7917" x="73.832727" y="142.411034" style="stroke: #000000; stroke-width: 0.8"/>
      </g>
     </g>
    </g>
    <g id="xtick_10">
     <g id="line2d_27">
      <g>
       <use xlink:href="#m60989d7917" x="116.550431" y="142.411034" style="stroke: #000000; stroke-width: 0.8"/>
      </g>
     </g>
    </g>
    <g id="xtick_11">
     <g id="line2d_28">
      <g>
       <use xlink:href="#m60989d7917" x="159.268134" y="142.411034" style="stroke: #000000; stroke-width: 0.8"/>
      </g>
     </g>
    </g>
    <g id="xtick_12">
     <g id="line2d_29">
      <g>
       <use xlink:href="#m60989d7917" x="201.985837" y="142.411034" style="stroke: #000000; stroke-width: 0.8"/>
      </g>
     </g>
    </g>
    <g id="xtick_13">
     <g id="line2d_30">
      <g>
       <use xlink:href="#m60989d7917" x="244.703541" y="142.411034" style="stroke: #000000; stroke-width: 0.8"/>
      </g>
     </g>
    </g>
    <g id="xtick_14">
     <g id="line2d_31">
      <g>
       <use xlink:href="#m60989d7917" x="287.421244" y="142.411034" style="stroke: #000000; stroke-width: 0.8"/>
      </g>
     </g>
    </g>
    <g id="xtick_15">
     <g id="line2d_32">
      <g>
       <use xlink:href="#m60989d7917" x="330.138947" y="142.411034" style="stroke: #000000; stroke-width: 0.8"/>
      </g>
     </g>
    </g>
    <g id="xtick_16">
     <g id="line2d_33">
      <g>
       <use xlink:href="#m60989d7917" x="372.856651" y="142.411034" style="stroke: #000000; stroke-width: 0.8"/>
      </g>
     </g>
    </g>
   </g>
   <g id="matplotlib.axis_6">
    <g id="ytick_5">
     <g id="line2d_34">
      <g>
       <use xlink:href="#m5d6a33fcb5" x="57.6" y="140.760502" style="stroke: #000000; stroke-width: 0.8"/>
      </g>
     </g>
     <g id="text_8">
      <!-- 0 -->
      <g transform="translate(44.2375 144.55972)scale(0.1 -0.1)">
       <use xlink:href="#DejaVuSans-30"/>
      </g>
     </g>
    </g>
    <g id="ytick_6">
     <g id="line2d_35">
      <g>
       <use xlink:href="#m5d6a33fcb5" x="57.6" y="98.771711" style="stroke: #000000; stroke-width: 0.8"/>
      </g>
     </g>
     <g id="text_9">
      <!-- 1 -->
      <g transform="translate(44.2375 102.57093)scale(0.1 -0.1)">
       <use xlink:href="#DejaVuSans-31"/>
      </g>
     </g>
    </g>
   </g>
   <g id="line2d_36">
    <path d="M 73.832727 140.325517 
L 90.919809 140.29834 
L 108.00689 140.273132 
L 125.093971 140.249838 
L 142.181053 140.22838 
L 159.268134 140.208675 
L 176.355215 140.190637 
L 193.442297 140.174187 
L 210.529378 140.159254 
L 227.616459 140.14577 
L 244.703541 140.133679 
L 261.790622 140.12293 
L 278.877703 140.113477 
L 295.964785 140.105284 
L 313.051866 140.098317 
L 330.138947 140.092549 
L 347.226029 140.08796 
L 364.31311 140.084532 
L 381.400191 140.082253 
L 398.487273 140.081115 
" clip-path="url(#p38d81f2737)" style="fill: none; stroke: #1f77b4; stroke-width: 1.5; stroke-linecap: square"/>
   </g>
   <g id="line2d_37">
    <path d="M 73.832727 99.532638 
L 90.919809 99.533002 
L 108.00689 99.533345 
L 125.093971 99.533668 
L 142.181053 99.533971 
L 159.268134 99.534254 
L 176.355215 99.534518 
L 193.442297 99.534762 
L 210.529378 99.534987 
L 227.616459 99.535193 
L 244.703541 99.53538 
L 261.790622 99.535548 
L 278.877703 99.535698 
L 295.964785 99.535828 
L 313.051866 99.53594 
L 330.138947 99.536033 
L 347.226029 99.536108 
L 364.31311 99.536163 
L 381.400191 99.536201 
L 398.487273 99.536219 
" clip-path="url(#p38d81f2737)" style="fill: none; stroke: #ff7f0e; stroke-width: 1.5; stroke-linecap: square"/>
   </g>
   <g id="line2d_38">
    <path d="M 73.832727 98.615191 
L 90.919809 98.623204 
L 108.00689 98.631219 
L 125.093971 98.639234 
L 142.181053 98.647252 
L 159.268134 98.655271 
L 176.355215 98.663291 
L 193.442297 98.671313 
L 210.529378 98.679336 
L 227.616459 98.687361 
L 244.703541 98.695387 
L 261.790622 98.703415 
L 278.877703 98.711444 
L 295.964785 98.719475 
L 313.051866 98.727507 
L 330.138947 98.735541 
L 347.226029 98.743576 
L 364.31311 98.751612 
L 381.400191 98.75965 
L 398.487273 98.76769 
" clip-path="url(#p38d81f2737)" style="fill: none; stroke: #2ca02c; stroke-width: 1.5; stroke-linecap: square"/>
   </g>
   <g id="line2d_39">
    <path d="M 73.832727 98.615172 
L 90.919809 98.623185 
L 108.00689 98.6312 
L 125.093971 98.639216 
L 142.181053 98.647234 
L 159.268134 98.655253 
L 176.355215 98.663274 
L 193.442297 98.671297 
L 210.529378 98.679321 
L 227.616459 98.687346 
L 244.703541 98.695374 
L 261.790622 98.703402 
L 278.877703 98.711433 
L 295.964785 98.719465 
L 313.051866 98.727498 
L 330.138947 98.735533 
L 347.226029 98.74357 
L 364.31311 98.751608 
L 381.400191 98.759648 
L 398.487273 98.767689 
" clip-path="url(#p38d81f2737)" style="fill: none; stroke: #d62728; stroke-width: 1.5; stroke-linecap: square"/>
   </g>
   <g id="line2d_40">
    <path d="M 73.832727 122.614816 
L 90.919809 122.615038 
L 108.00689 122.615483 
L 125.093971 122.616149 
L 142.181053 122.617039 
L 159.268134 122.618151 
L 176.355215 122.619487 
L 193.442297 122.621046 
L 210.529378 122.622829 
L 227.616459 122.624835 
L 244.703541 122.627065 
L 261.790622 122.62952 
L 278.877703 122.632199 
L 295.964785 122.635102 
L 313.051866 122.638231 
L 330.138947 122.641584 
L 347.226029 122.645162 
L 364.31311 122.648965 
L 381.400191 122.652994 
L 398.487273 122.657248 
" clip-path="url(#p38d81f2737)" style="fill: none; stroke: #9467bd; stroke-width: 1.5; stroke-linecap: square"/>
   </g>
   <g id="line2d_41">
    <path d="M 73.832727 136.247665 
L 90.919809 136.247955 
L 108.00689 136.248534 
L 125.093971 136.249405 
L 142.181053 136.250569 
L 159.268134 136.252025 
L 176.355215 136.253775 
L 193.442297 136.255821 
L 210.529378 136.258161 
L 227.616459 136.260798 
L 244.703541 136.263732 
L 261.790622 136.266963 
L 278.877703 136.270492 
L 295.964785 136.27432 
L 313.051866 136.278447 
L 330.138947 136.282874 
L 347.226029 136.287601 
L 364.31311 136.29263 
L 381.400191 136.297959 
L 398.487273 136.303591 
" clip-path="url(#p38d81f2737)" style="fill: none; stroke: #8c564b; stroke-width: 1.5; stroke-linecap: square"/>
   </g>
   <g id="line2d_42">
    <path d="M 73.832727 136.553748 
L 90.919809 136.553764 
L 108.00689 136.553796 
L 125.093971 136.553845 
L 142.181053 136.553909 
L 159.268134 136.55399 
L 176.355215 136.554087 
L 193.442297 136.5542 
L 210.529378 136.554329 
L 227.616459 136.554474 
L 244.703541 136.554634 
L 261.790622 136.55481 
L 278.877703 136.555002 
L 295.964785 136.555208 
L 313.051866 136.55543 
L 330.138947 136.555666 
L 347.226029 136.555917 
L 364.31311 136.556182 
L 381.400191 136.556461 
L 398.487273 136.556753 
" clip-path="url(#p38d81f2737)" style="fill: none; stroke: #e377c2; stroke-width: 1.5; stroke-linecap: square"/>
   </g>
   <g id="line2d_43">
    <path d="M 73.832727 136.561591 
L 90.919809 136.561591 
L 108.00689 136.561591 
L 125.093971 136.561591 
L 142.181053 136.56159 
L 159.268134 136.56159 
L 176.355215 136.56159 
L 193.442297 136.56159 
L 210.529378 136.561589 
L 227.616459 136.561589 
L 244.703541 136.561588 
L 261.790622 136.561588 
L 278.877703 136.561587 
L 295.964785 136.561587 
L 313.051866 136.561586 
L 330.138947 136.561585 
L 347.226029 136.561584 
L 364.31311 136.561584 
L 381.400191 136.561582 
L 398.487273 136.561581 
" clip-path="url(#p38d81f2737)" style="fill: none; stroke: #7f7f7f; stroke-width: 1.5; stroke-linecap: square"/>
   </g>
   <g id="line2d_44">
    <path d="M 73.832727 139.748514 
L 90.919809 139.627862 
L 108.00689 139.526955 
L 125.093971 139.440743 
L 142.181053 139.366051 
L 159.268134 139.300738 
L 176.355215 139.243293 
L 193.442297 139.192604 
L 210.529378 139.147831 
L 227.616459 139.108326 
L 244.703541 139.073579 
L 261.790622 139.043187 
L 278.877703 139.016826 
L 295.964785 138.994235 
L 313.051866 138.975208 
L 330.138947 138.959577 
L 347.226029 138.947215 
L 364.31311 138.938022 
L 381.400191 138.93193 
L 398.487273 138.928893 
" clip-path="url(#p38d81f2737)" style="fill: none; stroke: #bcbd22; stroke-width: 1.5; stroke-linecap: square"/>
   </g>
   <g id="line2d_45">
    <path d="M 73.832727 140.262839 
L 90.919809 140.169137 
L 108.00689 140.091453 
L 125.093971 140.025374 
L 142.181053 139.968244 
L 159.268134 139.918327 
L 176.355215 139.874424 
L 193.442297 139.835669 
L 210.529378 139.801413 
L 227.616459 139.771164 
L 244.703541 139.744535 
L 261.790622 139.721224 
L 278.877703 139.700987 
L 295.964785 139.683631 
L 313.051866 139.669002 
L 330.138947 139.656977 
L 347.226029 139.64746 
L 364.31311 139.64038 
L 381.400191 139.635686 
L 398.487273 139.633345 
" clip-path="url(#p38d81f2737)" style="fill: none; stroke: #17becf; stroke-width: 1.5; stroke-linecap: square"/>
   </g>
   <g id="line2d_46">
    <path d="M 73.832727 140.304226 
L 90.919809 140.246219 
L 108.00689 140.195324 
L 125.093971 140.15034 
L 142.181053 140.110363 
L 159.268134 140.074709 
L 176.355215 140.042851 
L 193.442297 140.014374 
L 210.529378 139.988951 
L 227.616459 139.966317 
L 244.703541 139.946259 
L 261.790622 139.928603 
L 278.877703 139.913206 
L 295.964785 139.899951 
L 313.051866 139.888744 
L 330.138947 139.879509 
L 347.226029 139.872187 
L 364.31311 139.866731 
L 381.400191 139.86311 
L 398.487273 139.861304 
" clip-path="url(#p38d81f2737)" style="fill: none; stroke: #1f77b4; stroke-width: 1.5; stroke-linecap: square"/>
   </g>
   <g id="line2d_47">
    <path d="M 73.832727 140.316898 
L 90.919809 140.276275 
L 108.00689 140.239534 
L 125.093971 140.206289 
L 142.181053 140.176198 
L 159.268134 140.148967 
L 176.355215 140.124345 
L 193.442297 140.102124 
L 210.529378 140.082127 
L 227.616459 140.064207 
L 244.703541 140.048238 
L 261.790622 140.034116 
L 278.877703 140.021753 
L 295.964785 140.011076 
L 313.051866 140.002026 
L 330.138947 139.994552 
L 347.226029 139.988616 
L 364.31311 139.984187 
L 381.400191 139.981246 
L 398.487273 139.979777 
" clip-path="url(#p38d81f2737)" style="fill: none; stroke: #ff7f0e; stroke-width: 1.5; stroke-linecap: square"/>
   </g>
   <g id="line2d_48">
    <path d="M 73.832727 140.323383 
L 90.919809 140.29275 
L 108.00689 140.264524 
L 125.093971 140.238588 
L 142.181053 140.214811 
L 159.268134 140.193062 
L 176.355215 140.173222 
L 193.442297 140.155181 
L 210.529378 140.138842 
L 227.616459 140.124122 
L 244.703541 140.110944 
L 261.790622 140.099246 
L 278.877703 140.088972 
L 295.964785 140.080075 
L 313.051866 140.072516 
L 330.138947 140.066262 
L 347.226029 140.061288 
L 364.31311 140.057573 
L 381.400191 140.055104 
L 398.487273 140.053871 
" clip-path="url(#p38d81f2737)" style="fill: none; stroke: #2ca02c; stroke-width: 1.5; stroke-linecap: square"/>
   </g>
   <g id="patch_10">
    <path d="M 57.6 142.411034 
L 57.6 96.529655 
" style="fill: none; stroke: #000000; stroke-width: 0.8; stroke-linejoin: miter; stroke-linecap: square"/>
   </g>
   <g id="patch_11">
    <path d="M 414.72 142.411034 
L 414.72 96.529655 
" style="fill: none; stroke: #000000; stroke-width: 0.8; stroke-linejoin: miter; stroke-linecap: square"/>
   </g>
   <g id="patch_12">
    <path d="M 57.6 142.411034 
L 414.72 142.411034 
" style="fill: none; stroke: #000000; stroke-width: 0.8; stroke-linejoin: miter; stroke-linecap: square"/>
   </g>
   <g id="patch_13">
    <path d="M 57.6 96.529655 
L 414.72 96.529655 
" style="fill: none; stroke: #000000; stroke-width: 0.8; stroke-linejoin: miter; stroke-linecap: square"/>
   </g>
   <g id="text_10">
    <!-- Pressure - Container 1 -->
    <g transform="translate(169.523438 93.529655)scale(0.12 -0.12)">
     <defs>
      <path id="DejaVuSans-50" d="M 1259 4147 
L 1259 2394 
L 2053 2394 
Q 2494 2394 2734 2622 
Q 2975 2850 2975 3272 
Q 2975 3691 2734 3919 
Q 2494 4147 2053 4147 
L 1259 4147 
z
M 628 4666 
L 2053 4666 
Q 2838 4666 3239 4311 
Q 3641 3956 3641 3272 
Q 3641 2581 3239 2228 
Q 2838 1875 2053 1875 
L 1259 1875 
L 1259 0 
L 628 0 
L 628 4666 
z
" transform="scale(0.015625)"/>
      <path id="DejaVuSans-75" d="M 544 1381 
L 544 3500 
L 1119 3500 
L 1119 1403 
Q 1119 906 1312 657 
Q 1506 409 1894 409 
Q 2359 409 2629 706 
Q 2900 1003 2900 1516 
L 2900 3500 
L 3475 3500 
L 3475 0 
L 2900 0 
L 2900 538 
Q 2691 219 2414 64 
Q 2138 -91 1772 -91 
Q 1169 -91 856 284 
Q 544 659 544 1381 
z
M 1991 3584 
L 1991 3584 
z
" transform="scale(0.015625)"/>
     </defs>
     <use xlink:href="#DejaVuSans-50"/>
     <use xlink:href="#DejaVuSans-72" x="58.552734"/>
     <use xlink:href="#DejaVuSans-65" x="97.416016"/>
     <use xlink:href="#DejaVuSans-73" x="158.939453"/>
     <use xlink:href="#DejaVuSans-73" x="211.039062"/>
     <use xlink:href="#DejaVuSans-75" x="263.138672"/>
     <use xlink:href="#DejaVuSans-72" x="326.517578"/>
     <use xlink:href="#DejaVuSans-65" x="365.380859"/>
     <use xlink:href="#DejaVuSans-20" x="426.904297"/>
     <use xlink:href="#DejaVuSans-2d" x="458.691406"/>
     <use xlink:href="#DejaVuSans-20" x="494.775391"/>
     <use xlink:href="#DejaVuSans-43" x="526.5625"/>
     <use xlink:href="#DejaVuSans-6f" x="596.386719"/>
     <use xlink:href="#DejaVuSans-6e" x="657.568359"/>
     <use xlink:href="#DejaVuSans-74" x="720.947266"/>
     <use xlink:href="#DejaVuSans-61" x="760.15625"/>
     <use xlink:href="#DejaVuSans-69" x="821.435547"/>
     <use xlink:href="#DejaVuSans-6e" x="849.21875"/>
     <use xlink:href="#DejaVuSans-65" x="912.597656"/>
     <use xlink:href="#DejaVuSans-72" x="974.121094"/>
     <use xlink:href="#DejaVuSans-20" x="1015.234375"/>
     <use xlink:href="#DejaVuSans-31" x="1047.021484"/>
    </g>
   </g>
  </g>
  <g id="axes_4">
   <g id="patch_14">
    <path d="M 57.6 197.46869 
L 414.72 197.46869 
L 414.72 151.58731 
L 57.6 151.58731 
z
" style="fill: #ffffff"/>
   </g>
   <g id="matplotlib.axis_7">
    <g id="xtick_17">
     <g id="line2d_49">
      <g>
       <use xlink:href="#m60989d7917" x="73.832727" y="197.46869" style="stroke: #000000; stroke-width: 0.8"/>
      </g>
     </g>
    </g>
    <g id="xtick_18">
     <g id="line2d_50">
      <g>
       <use xlink:href="#m60989d7917" x="116.550431" y="197.46869" style="stroke: #000000; stroke-width: 0.8"/>
      </g>
     </g>
    </g>
    <g id="xtick_19">
     <g id="line2d_51">
      <g>
       <use xlink:href="#m60989d7917" x="159.268134" y="197.46869" style="stroke: #000000; stroke-width: 0.8"/>
      </g>
     </g>
    </g>
    <g id="xtick_20">
     <g id="line2d_52">
      <g>
       <use xlink:href="#m60989d7917" x="201.985837" y="197.46869" style="stroke: #000000; stroke-width: 0.8"/>
      </g>
     </g>
    </g>
    <g id="xtick_21">
     <g id="line2d_53">
      <g>
       <use xlink:href="#m60989d7917" x="244.703541" y="197.46869" style="stroke: #000000; stroke-width: 0.8"/>
      </g>
     </g>
    </g>
    <g id="xtick_22">
     <g id="line2d_54">
      <g>
       <use xlink:href="#m60989d7917" x="287.421244" y="197.46869" style="stroke: #000000; stroke-width: 0.8"/>
      </g>
     </g>
    </g>
    <g id="xtick_23">
     <g id="line2d_55">
      <g>
       <use xlink:href="#m60989d7917" x="330.138947" y="197.46869" style="stroke: #000000; stroke-width: 0.8"/>
      </g>
     </g>
    </g>
    <g id="xtick_24">
     <g id="line2d_56">
      <g>
       <use xlink:href="#m60989d7917" x="372.856651" y="197.46869" style="stroke: #000000; stroke-width: 0.8"/>
      </g>
     </g>
    </g>
   </g>
   <g id="matplotlib.axis_8">
    <g id="ytick_7">
     <g id="line2d_57">
      <g>
       <use xlink:href="#m5d6a33fcb5" x="57.6" y="187.893524" style="stroke: #000000; stroke-width: 0.8"/>
      </g>
     </g>
     <g id="text_11">
      <!-- 0.05 -->
      <g transform="translate(28.334375 191.692742)scale(0.1 -0.1)">
       <defs>
        <path id="DejaVuSans-2e" d="M 684 794 
L 1344 794 
L 1344 0 
L 684 0 
L 684 794 
z
" transform="scale(0.015625)"/>
        <path id="DejaVuSans-35" d="M 691 4666 
L 3169 4666 
L 3169 4134 
L 1269 4134 
L 1269 2991 
Q 1406 3038 1543 3061 
Q 1681 3084 1819 3084 
Q 2600 3084 3056 2656 
Q 3513 2228 3513 1497 
Q 3513 744 3044 326 
Q 2575 -91 1722 -91 
Q 1428 -91 1123 -41 
Q 819 9 494 109 
L 494 744 
Q 775 591 1075 516 
Q 1375 441 1709 441 
Q 2250 441 2565 725 
Q 2881 1009 2881 1497 
Q 2881 1984 2565 2268 
Q 2250 2553 1709 2553 
Q 1456 2553 1204 2497 
Q 953 2441 691 2322 
L 691 4666 
z
" transform="scale(0.015625)"/>
       </defs>
       <use xlink:href="#DejaVuSans-30"/>
       <use xlink:href="#DejaVuSans-2e" x="63.623047"/>
       <use xlink:href="#DejaVuSans-30" x="95.410156"/>
       <use xlink:href="#DejaVuSans-35" x="159.033203"/>
      </g>
     </g>
    </g>
    <g id="ytick_8">
     <g id="line2d_58">
      <g>
       <use xlink:href="#m5d6a33fcb5" x="57.6" y="174.189343" style="stroke: #000000; stroke-width: 0.8"/>
      </g>
     </g>
     <g id="text_12">
      <!-- 0.06 -->
      <g transform="translate(28.334375 177.988561)scale(0.1 -0.1)">
       <defs>
        <path id="DejaVuSans-36" d="M 2113 2584 
Q 1688 2584 1439 2293 
Q 1191 2003 1191 1497 
Q 1191 994 1439 701 
Q 1688 409 2113 409 
Q 2538 409 2786 701 
Q 3034 994 3034 1497 
Q 3034 2003 2786 2293 
Q 2538 2584 2113 2584 
z
M 3366 4563 
L 3366 3988 
Q 3128 4100 2886 4159 
Q 2644 4219 2406 4219 
Q 1781 4219 1451 3797 
Q 1122 3375 1075 2522 
Q 1259 2794 1537 2939 
Q 1816 3084 2150 3084 
Q 2853 3084 3261 2657 
Q 3669 2231 3669 1497 
Q 3669 778 3244 343 
Q 2819 -91 2113 -91 
Q 1303 -91 875 529 
Q 447 1150 447 2328 
Q 447 3434 972 4092 
Q 1497 4750 2381 4750 
Q 2619 4750 2861 4703 
Q 3103 4656 3366 4563 
z
" transform="scale(0.015625)"/>
       </defs>
       <use xlink:href="#DejaVuSans-30"/>
       <use xlink:href="#DejaVuSans-2e" x="63.623047"/>
       <use xlink:href="#DejaVuSans-30" x="95.410156"/>
       <use xlink:href="#DejaVuSans-36" x="159.033203"/>
      </g>
     </g>
    </g>
    <g id="ytick_9">
     <g id="line2d_59">
      <g>
       <use xlink:href="#m5d6a33fcb5" x="57.6" y="160.485162" style="stroke: #000000; stroke-width: 0.8"/>
      </g>
     </g>
     <g id="text_13">
      <!-- 0.07 -->
      <g transform="translate(28.334375 164.284381)scale(0.1 -0.1)">
       <defs>
        <path id="DejaVuSans-37" d="M 525 4666 
L 3525 4666 
L 3525 4397 
L 1831 0 
L 1172 0 
L 2766 4134 
L 525 4134 
L 525 4666 
z
" transform="scale(0.015625)"/>
       </defs>
       <use xlink:href="#DejaVuSans-30"/>
       <use xlink:href="#DejaVuSans-2e" x="63.623047"/>
       <use xlink:href="#DejaVuSans-30" x="95.410156"/>
       <use xlink:href="#DejaVuSans-37" x="159.033203"/>
      </g>
     </g>
    </g>
   </g>
   <g id="line2d_60">
    <path d="M 73.832727 153.672828 
L 90.919809 155.568235 
L 108.00689 157.721829 
L 125.093971 159.776973 
L 142.181053 161.615034 
L 159.268134 163.217375 
L 176.355215 164.604322 
L 193.442297 165.805613 
L 210.529378 166.848248 
L 227.616459 167.753122 
L 244.703541 168.53519 
L 261.790622 169.20456 
L 278.877703 169.767548 
L 295.964785 170.227489 
L 313.051866 170.585361 
L 330.138947 170.840314 
L 347.226029 170.990172 
L 364.31311 171.031966 
L 381.400191 170.96286 
L 398.487273 170.78613 
" clip-path="url(#pb0437c00a2)" style="fill: none; stroke: #1f77b4; stroke-width: 1.5; stroke-linecap: square"/>
   </g>
   <g id="line2d_61">
    <path d="M 73.832727 190.417283 
L 90.919809 191.493879 
L 108.00689 192.155454 
L 125.093971 192.641408 
L 142.181053 193.053552 
L 159.268134 193.424238 
L 176.355215 193.760832 
L 193.442297 194.06484 
L 210.529378 194.337522 
L 227.616459 194.580363 
L 244.703541 194.794322 
L 261.790622 194.979239 
L 278.877703 195.133673 
L 295.964785 195.255 
L 313.051866 195.339618 
L 330.138947 195.383172 
L 347.226029 195.380863 
L 364.31311 195.327807 
L 381.400191 195.219766 
L 398.487273 195.05967 
" clip-path="url(#pb0437c00a2)" style="fill: none; stroke: #ff7f0e; stroke-width: 1.5; stroke-linecap: square"/>
   </g>
   <g id="line2d_62">
    <path d="M 73.832727 189.707358 
L 90.919809 190.969813 
L 108.00689 191.81211 
L 125.093971 192.40323 
L 142.181053 192.867768 
L 159.268134 193.266088 
L 176.355215 193.621119 
L 193.442297 193.940488 
L 210.529378 194.227209 
L 227.616459 194.483164 
L 244.703541 194.709565 
L 261.790622 194.906651 
L 278.877703 195.073473 
L 295.964785 195.207897 
L 313.051866 195.306756 
L 330.138947 195.36605 
L 347.226029 195.381228 
L 364.31311 195.347527 
L 381.400191 195.260648 
L 398.487273 195.123114 
" clip-path="url(#pb0437c00a2)" style="fill: none; stroke: #2ca02c; stroke-width: 1.5; stroke-linecap: square"/>
   </g>
   <g id="line2d_63">
    <path d="M 73.832727 188.561608 
L 90.919809 189.552239 
L 108.00689 190.541835 
L 125.093971 191.38523 
L 142.181053 192.06575 
L 159.268134 192.616174 
L 176.355215 193.073783 
L 193.442297 193.465687 
L 210.529378 193.808463 
L 227.616459 194.111553 
L 244.703541 194.380185 
L 261.790622 194.61704 
L 278.877703 194.823017 
L 295.964785 194.997581 
L 313.051866 195.138971 
L 330.138947 195.244391 
L 347.226029 195.310228 
L 364.31311 195.332332 
L 381.400191 195.306463 
L 398.487273 195.231785 
" clip-path="url(#pb0437c00a2)" style="fill: none; stroke: #d62728; stroke-width: 1.5; stroke-linecap: square"/>
   </g>
   <g id="line2d_64">
    <path d="M 73.832727 187.705393 
L 90.919809 188.440467 
L 108.00689 189.326554 
L 125.093971 190.193103 
L 142.181053 190.956446 
L 159.268134 191.599309 
L 176.355215 192.136285 
L 193.442297 192.589866 
L 210.529378 192.979638 
L 227.616459 193.319597 
L 244.703541 193.618772 
L 261.790622 193.882555 
L 278.877703 194.113745 
L 295.964785 194.313231 
L 313.051866 194.480394 
L 330.138947 194.613396 
L 347.226029 194.709416 
L 364.31311 194.764914 
L 381.400191 194.775999 
L 398.487273 194.740901 
" clip-path="url(#pb0437c00a2)" style="fill: none; stroke: #9467bd; stroke-width: 1.5; stroke-linecap: square"/>
   </g>
   <g id="line2d_65">
    <path d="M 73.832727 184.632684 
L 90.919809 185.390704 
L 108.00689 186.303875 
L 125.093971 187.198647 
L 142.181053 187.989231 
L 159.268134 188.656783 
L 176.355215 189.215179 
L 193.442297 189.686928 
L 210.529378 190.09203 
L 227.616459 190.444987 
L 244.703541 190.755286 
L 261.790622 191.028664 
L 278.877703 191.268179 
L 295.964785 191.474904 
L 313.051866 191.648357 
L 330.138947 191.786795 
L 347.226029 191.887465 
L 364.31311 191.946855 
L 381.400191 191.961059 
L 398.487273 191.928121 
" clip-path="url(#pb0437c00a2)" style="fill: none; stroke: #8c564b; stroke-width: 1.5; stroke-linecap: square"/>
   </g>
   <g id="line2d_66">
    <path d="M 73.832727 184.330099 
L 90.919809 185.089908 
L 108.00689 186.006058 
L 125.093971 186.904272 
L 142.181053 187.698521 
L 159.268134 188.369764 
L 176.355215 188.931776 
L 193.442297 189.407054 
L 210.529378 189.815634 
L 227.616459 190.172071 
L 244.703541 190.485897 
L 261.790622 190.762886 
L 278.877703 191.006124 
L 295.964785 191.216704 
L 313.051866 191.394163 
L 330.138947 191.536773 
L 347.226029 191.64179 
L 364.31311 191.705715 
L 381.400191 191.724654 
L 398.487273 191.696722 
" clip-path="url(#pb0437c00a2)" style="fill: none; stroke: #e377c2; stroke-width: 1.5; stroke-linecap: square"/>
   </g>
   <g id="line2d_67">
    <path d="M 73.832727 184.322944 
L 90.919809 185.082007 
L 108.00689 185.998027 
L 125.093971 186.896253 
L 142.181053 187.690616 
L 159.268134 188.362025 
L 176.355215 188.924221 
L 193.442297 189.399686 
L 210.529378 189.808453 
L 227.616459 190.165079 
L 244.703541 190.479098 
L 261.790622 190.756288 
L 278.877703 190.999734 
L 295.964785 191.210532 
L 313.051866 191.388219 
L 330.138947 191.531067 
L 347.226029 191.636334 
L 364.31311 191.70052 
L 381.400191 191.719733 
L 398.487273 191.692181 
" clip-path="url(#pb0437c00a2)" style="fill: none; stroke: #7f7f7f; stroke-width: 1.5; stroke-linecap: square"/>
   </g>
   <g id="line2d_68">
    <path d="M 73.832727 171.660937 
L 90.919809 174.207236 
L 108.00689 176.387613 
L 125.093971 178.195524 
L 142.181053 179.684932 
L 159.268134 180.90656 
L 176.355215 181.913915 
L 193.442297 182.756563 
L 210.529378 183.471402 
L 227.616459 184.08489 
L 244.703541 184.615306 
L 261.790622 185.074815 
L 278.877703 185.47131 
L 295.964785 185.809545 
L 313.051866 186.091836 
L 330.138947 186.318565 
L 347.226029 186.488566 
L 364.31311 186.599484 
L 381.400191 186.648234 
L 398.487273 186.633596 
" clip-path="url(#pb0437c00a2)" style="fill: none; stroke: #bcbd22; stroke-width: 1.5; stroke-linecap: square"/>
   </g>
   <g id="line2d_69">
    <path d="M 73.832727 156.69085 
L 90.919809 161.914228 
L 108.00689 165.753506 
L 125.093971 168.70744 
L 142.181053 171.028789 
L 159.268134 172.881797 
L 176.355215 174.385484 
L 193.442297 175.626519 
L 210.529378 176.666465 
L 227.616459 177.548194 
L 244.703541 178.301315 
L 261.790622 178.94622 
L 278.877703 179.496826 
L 295.964785 179.962344 
L 313.051866 180.348425 
L 330.138947 180.657937 
L 347.226029 180.891548 
L 364.31311 181.048219 
L 381.400191 181.125785 
L 398.487273 181.123641 
" clip-path="url(#pb0437c00a2)" style="fill: none; stroke: #17becf; stroke-width: 1.5; stroke-linecap: square"/>
   </g>
   <g id="line2d_70">
    <path d="M 73.832727 154.652907 
L 90.919809 158.431932 
L 108.00689 161.731735 
L 125.093971 164.49554 
L 142.181053 166.777387 
L 159.268134 168.659182 
L 176.355215 170.222075 
L 193.442297 171.534101 
L 210.529378 172.647334 
L 227.616459 173.599768 
L 244.703541 174.418537 
L 261.790622 175.122825 
L 278.877703 175.726007 
L 295.964785 176.237104 
L 313.051866 176.661742 
L 330.138947 177.002844 
L 347.226029 177.261154 
L 364.31311 177.435704 
L 381.400191 177.524394 
L 398.487273 177.526699 
" clip-path="url(#pb0437c00a2)" style="fill: none; stroke: #1f77b4; stroke-width: 1.5; stroke-linecap: square"/>
   </g>
   <g id="line2d_71">
    <path d="M 73.832727 154.075852 
L 90.919809 156.844092 
L 108.00689 159.586258 
L 125.093971 162.037082 
L 142.181053 164.143665 
L 159.268134 165.930353 
L 176.355215 167.445726 
L 193.442297 168.738695 
L 210.529378 169.849806 
L 227.616459 170.809956 
L 244.703541 171.64182 
L 261.790622 172.361727 
L 278.877703 172.981187 
L 295.964785 173.507978 
L 313.051866 173.946887 
L 330.138947 174.300262 
L 347.226029 174.568446 
L 364.31311 174.750189 
L 381.400191 174.843212 
L 398.487273 174.846914 
" clip-path="url(#pb0437c00a2)" style="fill: none; stroke: #ff7f0e; stroke-width: 1.5; stroke-linecap: square"/>
   </g>
   <g id="line2d_72">
    <path d="M 73.832727 153.772775 
L 90.919809 155.896933 
L 108.00689 158.216334 
L 125.093971 160.39087 
L 142.181053 162.317031 
L 159.268134 163.986326 
L 176.355215 165.425981 
L 193.442297 166.67094 
L 210.529378 167.752537 
L 227.616459 168.695532 
L 244.703541 169.518454 
L 261.790622 170.234782 
L 278.877703 170.854037 
L 295.964785 171.382589 
L 313.051866 171.824216 
L 330.138947 172.180531 
L 347.226029 172.451347 
L 364.31311 172.635034 
L 381.400191 172.729056 
L 398.487273 172.732682 
" clip-path="url(#pb0437c00a2)" style="fill: none; stroke: #2ca02c; stroke-width: 1.5; stroke-linecap: square"/>
   </g>
   <g id="patch_15">
    <path d="M 57.6 197.46869 
L 57.6 151.58731 
" style="fill: none; stroke: #000000; stroke-width: 0.8; stroke-linejoin: miter; stroke-linecap: square"/>
   </g>
   <g id="patch_16">
    <path d="M 414.72 197.46869 
L 414.72 151.58731 
" style="fill: none; stroke: #000000; stroke-width: 0.8; stroke-linejoin: miter; stroke-linecap: square"/>
   </g>
   <g id="patch_17">
    <path d="M 57.6 197.46869 
L 414.72 197.46869 
" style="fill: none; stroke: #000000; stroke-width: 0.8; stroke-linejoin: miter; stroke-linecap: square"/>
   </g>
   <g id="patch_18">
    <path d="M 57.6 151.58731 
L 414.72 151.58731 
" style="fill: none; stroke: #000000; stroke-width: 0.8; stroke-linejoin: miter; stroke-linecap: square"/>
   </g>
   <g id="text_14">
    <!-- yA - Container 1 -->
    <g transform="translate(187.48125 148.58731)scale(0.12 -0.12)">
     <defs>
      <path id="DejaVuSans-41" d="M 2188 4044 
L 1331 1722 
L 3047 1722 
L 2188 4044 
z
M 1831 4666 
L 2547 4666 
L 4325 0 
L 3669 0 
L 3244 1197 
L 1141 1197 
L 716 0 
L 50 0 
L 1831 4666 
z
" transform="scale(0.015625)"/>
     </defs>
     <use xlink:href="#DejaVuSans-79"/>
     <use xlink:href="#DejaVuSans-41" x="59.179688"/>
     <use xlink:href="#DejaVuSans-20" x="127.587891"/>
     <use xlink:href="#DejaVuSans-2d" x="159.375"/>
     <use xlink:href="#DejaVuSans-20" x="195.458984"/>
     <use xlink:href="#DejaVuSans-43" x="227.246094"/>
     <use xlink:href="#DejaVuSans-6f" x="297.070312"/>
     <use xlink:href="#DejaVuSans-6e" x="358.251953"/>
     <use xlink:href="#DejaVuSans-74" x="421.630859"/>
     <use xlink:href="#DejaVuSans-61" x="460.839844"/>
     <use xlink:href="#DejaVuSans-69" x="522.119141"/>
     <use xlink:href="#DejaVuSans-6e" x="549.902344"/>
     <use xlink:href="#DejaVuSans-65" x="613.28125"/>
     <use xlink:href="#DejaVuSans-72" x="674.804688"/>
     <use xlink:href="#DejaVuSans-20" x="715.917969"/>
     <use xlink:href="#DejaVuSans-31" x="747.705078"/>
    </g>
   </g>
  </g>
  <g id="axes_5">
   <g id="patch_19">
    <path d="M 57.6 252.526345 
L 414.72 252.526345 
L 414.72 206.644966 
L 57.6 206.644966 
z
" style="fill: #ffffff"/>
   </g>
   <g id="matplotlib.axis_9">
    <g id="xtick_25">
     <g id="line2d_73">
      <g>
       <use xlink:href="#m60989d7917" x="73.832727" y="252.526345" style="stroke: #000000; stroke-width: 0.8"/>
      </g>
     </g>
    </g>
    <g id="xtick_26">
     <g id="line2d_74">
      <g>
       <use xlink:href="#m60989d7917" x="116.550431" y="252.526345" style="stroke: #000000; stroke-width: 0.8"/>
      </g>
     </g>
    </g>
    <g id="xtick_27">
     <g id="line2d_75">
      <g>
       <use xlink:href="#m60989d7917" x="159.268134" y="252.526345" style="stroke: #000000; stroke-width: 0.8"/>
      </g>
     </g>
    </g>
    <g id="xtick_28">
     <g id="line2d_76">
      <g>
       <use xlink:href="#m60989d7917" x="201.985837" y="252.526345" style="stroke: #000000; stroke-width: 0.8"/>
      </g>
     </g>
    </g>
    <g id="xtick_29">
     <g id="line2d_77">
      <g>
       <use xlink:href="#m60989d7917" x="244.703541" y="252.526345" style="stroke: #000000; stroke-width: 0.8"/>
      </g>
     </g>
    </g>
    <g id="xtick_30">
     <g id="line2d_78">
      <g>
       <use xlink:href="#m60989d7917" x="287.421244" y="252.526345" style="stroke: #000000; stroke-width: 0.8"/>
      </g>
     </g>
    </g>
    <g id="xtick_31">
     <g id="line2d_79">
      <g>
       <use xlink:href="#m60989d7917" x="330.138947" y="252.526345" style="stroke: #000000; stroke-width: 0.8"/>
      </g>
     </g>
    </g>
    <g id="xtick_32">
     <g id="line2d_80">
      <g>
       <use xlink:href="#m60989d7917" x="372.856651" y="252.526345" style="stroke: #000000; stroke-width: 0.8"/>
      </g>
     </g>
    </g>
   </g>
   <g id="matplotlib.axis_10">
    <g id="ytick_10">
     <g id="line2d_81">
      <g>
       <use xlink:href="#m5d6a33fcb5" x="57.6" y="240.643067" style="stroke: #000000; stroke-width: 0.8"/>
      </g>
     </g>
     <g id="text_15">
      <!-- 0.88 -->
      <g transform="translate(28.334375 244.442286)scale(0.1 -0.1)">
       <defs>
        <path id="DejaVuSans-38" d="M 2034 2216 
Q 1584 2216 1326 1975 
Q 1069 1734 1069 1313 
Q 1069 891 1326 650 
Q 1584 409 2034 409 
Q 2484 409 2743 651 
Q 3003 894 3003 1313 
Q 3003 1734 2745 1975 
Q 2488 2216 2034 2216 
z
M 1403 2484 
Q 997 2584 770 2862 
Q 544 3141 544 3541 
Q 544 4100 942 4425 
Q 1341 4750 2034 4750 
Q 2731 4750 3128 4425 
Q 3525 4100 3525 3541 
Q 3525 3141 3298 2862 
Q 3072 2584 2669 2484 
Q 3125 2378 3379 2068 
Q 3634 1759 3634 1313 
Q 3634 634 3220 271 
Q 2806 -91 2034 -91 
Q 1263 -91 848 271 
Q 434 634 434 1313 
Q 434 1759 690 2068 
Q 947 2378 1403 2484 
z
M 1172 3481 
Q 1172 3119 1398 2916 
Q 1625 2713 2034 2713 
Q 2441 2713 2670 2916 
Q 2900 3119 2900 3481 
Q 2900 3844 2670 4047 
Q 2441 4250 2034 4250 
Q 1625 4250 1398 4047 
Q 1172 3844 1172 3481 
z
" transform="scale(0.015625)"/>
       </defs>
       <use xlink:href="#DejaVuSans-30"/>
       <use xlink:href="#DejaVuSans-2e" x="63.623047"/>
       <use xlink:href="#DejaVuSans-38" x="95.410156"/>
       <use xlink:href="#DejaVuSans-38" x="159.033203"/>
      </g>
     </g>
    </g>
    <g id="ytick_11">
     <g id="line2d_82">
      <g>
       <use xlink:href="#m5d6a33fcb5" x="57.6" y="216.650855" style="stroke: #000000; stroke-width: 0.8"/>
      </g>
     </g>
     <g id="text_16">
      <!-- 0.90 -->
      <g transform="translate(28.334375 220.450073)scale(0.1 -0.1)">
       <defs>
        <path id="DejaVuSans-39" d="M 703 97 
L 703 672 
Q 941 559 1184 500 
Q 1428 441 1663 441 
Q 2288 441 2617 861 
Q 2947 1281 2994 2138 
Q 2813 1869 2534 1725 
Q 2256 1581 1919 1581 
Q 1219 1581 811 2004 
Q 403 2428 403 3163 
Q 403 3881 828 4315 
Q 1253 4750 1959 4750 
Q 2769 4750 3195 4129 
Q 3622 3509 3622 2328 
Q 3622 1225 3098 567 
Q 2575 -91 1691 -91 
Q 1453 -91 1209 -44 
Q 966 3 703 97 
z
M 1959 2075 
Q 2384 2075 2632 2365 
Q 2881 2656 2881 3163 
Q 2881 3666 2632 3958 
Q 2384 4250 1959 4250 
Q 1534 4250 1286 3958 
Q 1038 3666 1038 3163 
Q 1038 2656 1286 2365 
Q 1534 2075 1959 2075 
z
" transform="scale(0.015625)"/>
       </defs>
       <use xlink:href="#DejaVuSans-30"/>
       <use xlink:href="#DejaVuSans-2e" x="63.623047"/>
       <use xlink:href="#DejaVuSans-39" x="95.410156"/>
       <use xlink:href="#DejaVuSans-30" x="159.033203"/>
      </g>
     </g>
    </g>
   </g>
   <g id="line2d_83">
    <path d="M 73.832727 250.440828 
L 90.919809 248.948153 
L 108.00689 247.151191 
L 125.093971 245.387201 
L 142.181053 243.775267 
L 159.268134 242.342368 
L 176.355215 241.078626 
L 193.442297 239.96387 
L 210.529378 238.978742 
L 227.616459 238.108072 
L 244.703541 237.341066 
L 261.790622 236.670586 
L 278.877703 236.092382 
L 295.964785 235.60447 
L 313.051866 235.206648 
L 330.138947 234.900073 
L 347.226029 234.686872 
L 364.31311 234.569738 
L 381.400191 234.551336 
L 398.487273 234.630289 
" clip-path="url(#pe2de0401bf)" style="fill: none; stroke: #1f77b4; stroke-width: 1.5; stroke-linecap: square"/>
   </g>
   <g id="line2d_84">
    <path d="M 73.832727 214.16663 
L 90.919809 213.028694 
L 108.00689 212.274255 
L 125.093971 211.697645 
L 142.181053 211.213878 
L 159.268134 210.794054 
L 176.355215 210.428406 
L 193.442297 210.11131 
L 210.529378 209.837171 
L 227.616459 209.600308 
L 244.703541 209.395739 
L 261.790622 209.219753 
L 278.877703 209.070121 
L 295.964785 208.946055 
L 313.051866 208.848061 
L 330.138947 208.777749 
L 347.226029 208.737571 
L 364.31311 208.730483 
L 381.400191 208.759478 
L 398.487273 208.82612 
" clip-path="url(#pe2de0401bf)" style="fill: none; stroke: #ff7f0e; stroke-width: 1.5; stroke-linecap: square"/>
   </g>
   <g id="line2d_85">
    <path d="M 73.832727 215.048662 
L 90.919809 213.837965 
L 108.00689 212.95441 
L 125.093971 212.278379 
L 142.181053 211.719119 
L 159.268134 211.233637 
L 176.355215 210.805996 
L 193.442297 210.43022 
L 210.529378 210.102363 
L 227.616459 209.818299 
L 244.703541 209.573826 
L 261.790622 209.365257 
L 278.877703 209.189858 
L 295.964785 209.046018 
L 313.051866 208.933261 
L 330.138947 208.852149 
L 347.226029 208.804106 
L 364.31311 208.791161 
L 381.400191 208.81552 
L 398.487273 208.876576 
" clip-path="url(#pe2de0401bf)" style="fill: none; stroke: #2ca02c; stroke-width: 1.5; stroke-linecap: square"/>
   </g>
   <g id="line2d_86">
    <path d="M 73.832727 216.100802 
L 90.919809 215.273249 
L 108.00689 214.427062 
L 125.093971 213.679549 
L 142.181053 213.0458 
L 159.268134 212.502248 
L 176.355215 212.022565 
L 193.442297 211.589024 
L 210.529378 211.192331 
L 227.616459 210.828533 
L 244.703541 210.496433 
L 261.790622 210.196139 
L 278.877703 209.928416 
L 295.964785 209.694453 
L 313.051866 209.495776 
L 330.138947 209.334203 
L 347.226029 209.211786 
L 364.31311 209.130713 
L 381.400191 209.093057 
L 398.487273 209.098632 
" clip-path="url(#pe2de0401bf)" style="fill: none; stroke: #d62728; stroke-width: 1.5; stroke-linecap: square"/>
   </g>
   <g id="line2d_87">
    <path d="M 73.832727 216.93468 
L 90.919809 216.331139 
L 108.00689 215.597392 
L 125.093971 214.869873 
L 142.181053 214.215037 
L 159.268134 213.646185 
L 176.355215 213.151554 
L 193.442297 212.713719 
L 210.529378 212.31823 
L 227.616459 211.955609 
L 244.703541 211.620642 
L 261.790622 211.311124 
L 278.877703 211.026853 
L 295.964785 210.768958 
L 313.051866 210.539486 
L 330.138947 210.341124 
L 347.226029 210.176981 
L 364.31311 210.050387 
L 381.400191 209.96463 
L 398.487273 209.921882 
" clip-path="url(#pe2de0401bf)" style="fill: none; stroke: #9467bd; stroke-width: 1.5; stroke-linecap: square"/>
   </g>
   <g id="line2d_88">
    <path d="M 73.832727 220.139656 
L 90.919809 219.517679 
L 108.00689 218.762723 
L 125.093971 218.013927 
L 142.181053 217.33963 
L 159.268134 216.75443 
L 176.355215 216.247042 
L 193.442297 215.799821 
L 210.529378 215.397707 
L 227.616459 215.030499 
L 244.703541 214.69231 
L 261.790622 214.380387 
L 278.877703 214.094109 
L 295.964785 213.834318 
L 313.051866 213.602887 
L 330.138947 213.402434 
L 347.226029 213.236094 
L 364.31311 213.107306 
L 381.400191 213.01954 
L 398.487273 212.975173 
" clip-path="url(#pe2de0401bf)" style="fill: none; stroke: #8c564b; stroke-width: 1.5; stroke-linecap: square"/>
   </g>
   <g id="line2d_89">
    <path d="M 73.832727 220.454559 
L 90.919809 219.83108 
L 108.00689 219.073647 
L 125.093971 218.322019 
L 142.181053 217.644746 
L 159.268134 217.056588 
L 176.355215 216.546333 
L 193.442297 216.096324 
L 210.529378 215.691447 
L 227.616459 215.321428 
L 244.703541 214.980316 
L 261.790622 214.665301 
L 278.877703 214.37572 
L 295.964785 214.112381 
L 313.051866 213.87714 
L 330.138947 213.672601 
L 347.226029 213.501895 
L 364.31311 213.368464 
L 381.400191 213.275788 
L 398.487273 213.226558 
" clip-path="url(#pe2de0401bf)" style="fill: none; stroke: #e377c2; stroke-width: 1.5; stroke-linecap: square"/>
   </g>
   <g id="line2d_90">
    <path d="M 73.832727 220.462209 
L 90.919809 219.839322 
L 108.00689 219.081975 
L 125.093971 218.330321 
L 142.181053 217.65294 
L 159.268134 217.064637 
L 176.355215 216.554224 
L 193.442297 216.104056 
L 210.529378 215.69902 
L 227.616459 215.328839 
L 244.703541 214.987556 
L 261.790622 214.67236 
L 278.877703 214.382584 
L 295.964785 214.119037 
L 313.051866 213.88357 
L 330.138947 213.678791 
L 347.226029 213.507829 
L 364.31311 213.374124 
L 381.400191 213.281167 
L 398.487273 213.231987 
" clip-path="url(#pe2de0401bf)" style="fill: none; stroke: #7f7f7f; stroke-width: 1.5; stroke-linecap: square"/>
   </g>
   <g id="line2d_91">
    <path d="M 73.832727 233.54102 
L 90.919809 230.684904 
L 108.00689 228.925295 
L 125.093971 227.241947 
L 142.181053 225.863058 
L 159.268134 224.733897 
L 176.355215 223.772727 
L 193.442297 222.956244 
L 210.529378 222.247028 
L 227.616459 221.621762 
L 244.703541 221.067484 
L 261.790622 220.574385 
L 278.877703 220.136553 
L 295.964785 219.750908 
L 313.051866 219.416233 
L 330.138947 219.13279 
L 347.226029 218.901957 
L 364.31311 218.725925 
L 381.400191 218.607422 
L 398.487273 218.548882 
" clip-path="url(#pe2de0401bf)" style="fill: none; stroke: #bcbd22; stroke-width: 1.5; stroke-linecap: square"/>
   </g>
   <g id="line2d_92">
    <path d="M 73.832727 247.474568 
L 90.919809 242.796126 
L 108.00689 239.327659 
L 125.093971 236.638181 
L 142.181053 234.503756 
L 159.268134 232.77879 
L 176.355215 231.358664 
L 193.442297 230.167826 
L 210.529378 229.152984 
L 227.616459 228.277297 
L 244.703541 227.515553 
L 261.790622 226.850597 
L 278.877703 226.270892 
L 295.964785 225.768932 
L 313.051866 225.340207 
L 330.138947 224.982487 
L 347.226029 224.69531 
L 364.31311 224.479567 
L 381.400191 224.337139 
L 398.487273 224.269743 
" clip-path="url(#pe2de0401bf)" style="fill: none; stroke: #17becf; stroke-width: 1.5; stroke-linecap: square"/>
   </g>
   <g id="line2d_93">
    <path d="M 73.832727 249.380368 
L 90.919809 246.128506 
L 108.00689 243.22616 
L 125.093971 240.758878 
L 142.181053 238.693181 
L 159.268134 236.964578 
L 176.355215 235.506719 
L 193.442297 234.263356 
L 210.529378 233.191293 
L 227.616459 232.259033 
L 244.703541 231.444175 
L 261.790622 230.730991 
L 278.877703 230.108625 
L 295.964785 229.569844 
L 313.051866 229.110204 
L 330.138947 228.72745 
L 347.226029 228.421063 
L 364.31311 228.191891 
L 381.400191 228.041803 
L 398.487273 227.972404 
" clip-path="url(#pe2de0401bf)" style="fill: none; stroke: #1f77b4; stroke-width: 1.5; stroke-linecap: square"/>
   </g>
   <g id="line2d_94">
    <path d="M 73.832727 249.966963 
L 90.919809 247.669497 
L 108.00689 245.311998 
L 125.093971 243.161116 
L 142.181053 241.280197 
L 159.268134 239.658241 
L 176.355215 238.259747 
L 193.442297 237.046865 
L 210.529378 235.987641 
L 227.616459 235.057578 
L 244.703541 234.238713 
L 261.790622 233.518177 
L 278.877703 232.886982 
L 295.964785 232.33914 
L 313.051866 231.871044 
L 330.138947 231.481013 
L 347.226029 231.168933 
L 364.31311 230.935943 
L 381.400191 230.784118 
L 398.487273 230.715137 
" clip-path="url(#pe2de0401bf)" style="fill: none; stroke: #ff7f0e; stroke-width: 1.5; stroke-linecap: square"/>
   </g>
   <g id="line2d_95">
    <path d="M 73.832727 250.309206 
L 90.919809 248.607297 
L 108.00689 246.653209 
L 125.093971 244.773121 
L 142.181053 243.074012 
L 159.268134 241.574252 
L 176.355215 240.257879 
L 193.442297 239.100041 
L 210.529378 238.077465 
L 227.616459 237.171505 
L 244.703541 236.368181 
L 261.790622 235.657374 
L 278.877703 235.032022 
L 295.964785 234.487501 
L 313.051866 234.021182 
L 330.138947 233.632096 
L 347.226029 233.320646 
L 364.31311 233.088351 
L 381.400191 232.937554 
L 398.487273 232.870067 
" clip-path="url(#pe2de0401bf)" style="fill: none; stroke: #2ca02c; stroke-width: 1.5; stroke-linecap: square"/>
   </g>
   <g id="patch_20">
    <path d="M 57.6 252.526345 
L 57.6 206.644966 
" style="fill: none; stroke: #000000; stroke-width: 0.8; stroke-linejoin: miter; stroke-linecap: square"/>
   </g>
   <g id="patch_21">
    <path d="M 414.72 252.526345 
L 414.72 206.644966 
" style="fill: none; stroke: #000000; stroke-width: 0.8; stroke-linejoin: miter; stroke-linecap: square"/>
   </g>
   <g id="patch_22">
    <path d="M 57.6 252.526345 
L 414.72 252.526345 
" style="fill: none; stroke: #000000; stroke-width: 0.8; stroke-linejoin: miter; stroke-linecap: square"/>
   </g>
   <g id="patch_23">
    <path d="M 57.6 206.644966 
L 414.72 206.644966 
" style="fill: none; stroke: #000000; stroke-width: 0.8; stroke-linejoin: miter; stroke-linecap: square"/>
   </g>
   <g id="text_17">
    <!-- yB - Container 1 -->
    <g transform="translate(187.469063 203.644966)scale(0.12 -0.12)">
     <defs>
      <path id="DejaVuSans-42" d="M 1259 2228 
L 1259 519 
L 2272 519 
Q 2781 519 3026 730 
Q 3272 941 3272 1375 
Q 3272 1813 3026 2020 
Q 2781 2228 2272 2228 
L 1259 2228 
z
M 1259 4147 
L 1259 2741 
L 2194 2741 
Q 2656 2741 2882 2914 
Q 3109 3088 3109 3444 
Q 3109 3797 2882 3972 
Q 2656 4147 2194 4147 
L 1259 4147 
z
M 628 4666 
L 2241 4666 
Q 2963 4666 3353 4366 
Q 3744 4066 3744 3513 
Q 3744 3084 3544 2831 
Q 3344 2578 2956 2516 
Q 3422 2416 3680 2098 
Q 3938 1781 3938 1306 
Q 3938 681 3513 340 
Q 3088 0 2303 0 
L 628 0 
L 628 4666 
z
" transform="scale(0.015625)"/>
     </defs>
     <use xlink:href="#DejaVuSans-79"/>
     <use xlink:href="#DejaVuSans-42" x="59.179688"/>
     <use xlink:href="#DejaVuSans-20" x="127.783203"/>
     <use xlink:href="#DejaVuSans-2d" x="159.570312"/>
     <use xlink:href="#DejaVuSans-20" x="195.654297"/>
     <use xlink:href="#DejaVuSans-43" x="227.441406"/>
     <use xlink:href="#DejaVuSans-6f" x="297.265625"/>
     <use xlink:href="#DejaVuSans-6e" x="358.447266"/>
     <use xlink:href="#DejaVuSans-74" x="421.826172"/>
     <use xlink:href="#DejaVuSans-61" x="461.035156"/>
     <use xlink:href="#DejaVuSans-69" x="522.314453"/>
     <use xlink:href="#DejaVuSans-6e" x="550.097656"/>
     <use xlink:href="#DejaVuSans-65" x="613.476562"/>
     <use xlink:href="#DejaVuSans-72" x="675"/>
     <use xlink:href="#DejaVuSans-20" x="716.113281"/>
     <use xlink:href="#DejaVuSans-31" x="747.900391"/>
    </g>
   </g>
  </g>
  <g id="axes_6">
   <g id="patch_24">
    <path d="M 57.6 307.584 
L 414.72 307.584 
L 414.72 261.702621 
L 57.6 261.702621 
z
" style="fill: #ffffff"/>
   </g>
   <g id="matplotlib.axis_11">
    <g id="xtick_33">
     <g id="line2d_96">
      <g>
       <use xlink:href="#m60989d7917" x="73.832727" y="307.584" style="stroke: #000000; stroke-width: 0.8"/>
      </g>
     </g>
     <g id="text_18">
      <!-- 0.0 -->
      <g transform="translate(65.881165 322.182437)scale(0.1 -0.1)">
       <use xlink:href="#DejaVuSans-30"/>
       <use xlink:href="#DejaVuSans-2e" x="63.623047"/>
       <use xlink:href="#DejaVuSans-30" x="95.410156"/>
      </g>
     </g>
    </g>
    <g id="xtick_34">
     <g id="line2d_97">
      <g>
       <use xlink:href="#m60989d7917" x="116.550431" y="307.584" style="stroke: #000000; stroke-width: 0.8"/>
      </g>
     </g>
     <g id="text_19">
      <!-- 2.5 -->
      <g transform="translate(108.598868 322.182437)scale(0.1 -0.1)">
       <defs>
        <path id="DejaVuSans-32" d="M 1228 531 
L 3431 531 
L 3431 0 
L 469 0 
L 469 531 
Q 828 903 1448 1529 
Q 2069 2156 2228 2338 
Q 2531 2678 2651 2914 
Q 2772 3150 2772 3378 
Q 2772 3750 2511 3984 
Q 2250 4219 1831 4219 
Q 1534 4219 1204 4116 
Q 875 4013 500 3803 
L 500 4441 
Q 881 4594 1212 4672 
Q 1544 4750 1819 4750 
Q 2544 4750 2975 4387 
Q 3406 4025 3406 3419 
Q 3406 3131 3298 2873 
Q 3191 2616 2906 2266 
Q 2828 2175 2409 1742 
Q 1991 1309 1228 531 
z
" transform="scale(0.015625)"/>
       </defs>
       <use xlink:href="#DejaVuSans-32"/>
       <use xlink:href="#DejaVuSans-2e" x="63.623047"/>
       <use xlink:href="#DejaVuSans-35" x="95.410156"/>
      </g>
     </g>
    </g>
    <g id="xtick_35">
     <g id="line2d_98">
      <g>
       <use xlink:href="#m60989d7917" x="159.268134" y="307.584" style="stroke: #000000; stroke-width: 0.8"/>
      </g>
     </g>
     <g id="text_20">
      <!-- 5.0 -->
      <g transform="translate(151.316571 322.182437)scale(0.1 -0.1)">
       <use xlink:href="#DejaVuSans-35"/>
       <use xlink:href="#DejaVuSans-2e" x="63.623047"/>
       <use xlink:href="#DejaVuSans-30" x="95.410156"/>
      </g>
     </g>
    </g>
    <g id="xtick_36">
     <g id="line2d_99">
      <g>
       <use xlink:href="#m60989d7917" x="201.985837" y="307.584" style="stroke: #000000; stroke-width: 0.8"/>
      </g>
     </g>
     <g id="text_21">
      <!-- 7.5 -->
      <g transform="translate(194.034275 322.182437)scale(0.1 -0.1)">
       <use xlink:href="#DejaVuSans-37"/>
       <use xlink:href="#DejaVuSans-2e" x="63.623047"/>
       <use xlink:href="#DejaVuSans-35" x="95.410156"/>
      </g>
     </g>
    </g>
    <g id="xtick_37">
     <g id="line2d_100">
      <g>
       <use xlink:href="#m60989d7917" x="244.703541" y="307.584" style="stroke: #000000; stroke-width: 0.8"/>
      </g>
     </g>
     <g id="text_22">
      <!-- 10.0 -->
      <g transform="translate(233.570728 322.182437)scale(0.1 -0.1)">
       <use xlink:href="#DejaVuSans-31"/>
       <use xlink:href="#DejaVuSans-30" x="63.623047"/>
       <use xlink:href="#DejaVuSans-2e" x="127.246094"/>
       <use xlink:href="#DejaVuSans-30" x="159.033203"/>
      </g>
     </g>
    </g>
    <g id="xtick_38">
     <g id="line2d_101">
      <g>
       <use xlink:href="#m60989d7917" x="287.421244" y="307.584" style="stroke: #000000; stroke-width: 0.8"/>
      </g>
     </g>
     <g id="text_23">
      <!-- 12.5 -->
      <g transform="translate(276.288432 322.182437)scale(0.1 -0.1)">
       <use xlink:href="#DejaVuSans-31"/>
       <use xlink:href="#DejaVuSans-32" x="63.623047"/>
       <use xlink:href="#DejaVuSans-2e" x="127.246094"/>
       <use xlink:href="#DejaVuSans-35" x="159.033203"/>
      </g>
     </g>
    </g>
    <g id="xtick_39">
     <g id="line2d_102">
      <g>
       <use xlink:href="#m60989d7917" x="330.138947" y="307.584" style="stroke: #000000; stroke-width: 0.8"/>
      </g>
     </g>
     <g id="text_24">
      <!-- 15.0 -->
      <g transform="translate(319.006135 322.182437)scale(0.1 -0.1)">
       <use xlink:href="#DejaVuSans-31"/>
       <use xlink:href="#DejaVuSans-35" x="63.623047"/>
       <use xlink:href="#DejaVuSans-2e" x="127.246094"/>
       <use xlink:href="#DejaVuSans-30" x="159.033203"/>
      </g>
     </g>
    </g>
    <g id="xtick_40">
     <g id="line2d_103">
      <g>
       <use xlink:href="#m60989d7917" x="372.856651" y="307.584" style="stroke: #000000; stroke-width: 0.8"/>
      </g>
     </g>
     <g id="text_25">
      <!-- 17.5 -->
      <g transform="translate(361.723838 322.182437)scale(0.1 -0.1)">
       <use xlink:href="#DejaVuSans-31"/>
       <use xlink:href="#DejaVuSans-37" x="63.623047"/>
       <use xlink:href="#DejaVuSans-2e" x="127.246094"/>
       <use xlink:href="#DejaVuSans-35" x="159.033203"/>
      </g>
     </g>
    </g>
    <g id="text_26">
     <!-- position z -->
     <g transform="translate(212.142031 335.860562)scale(0.1 -0.1)">
      <defs>
       <path id="DejaVuSans-70" d="M 1159 525 
L 1159 -1331 
L 581 -1331 
L 581 3500 
L 1159 3500 
L 1159 2969 
Q 1341 3281 1617 3432 
Q 1894 3584 2278 3584 
Q 2916 3584 3314 3078 
Q 3713 2572 3713 1747 
Q 3713 922 3314 415 
Q 2916 -91 2278 -91 
Q 1894 -91 1617 61 
Q 1341 213 1159 525 
z
M 3116 1747 
Q 3116 2381 2855 2742 
Q 2594 3103 2138 3103 
Q 1681 3103 1420 2742 
Q 1159 2381 1159 1747 
Q 1159 1113 1420 752 
Q 1681 391 2138 391 
Q 2594 391 2855 752 
Q 3116 1113 3116 1747 
z
" transform="scale(0.015625)"/>
      </defs>
      <use xlink:href="#DejaVuSans-70"/>
      <use xlink:href="#DejaVuSans-6f" x="63.476562"/>
      <use xlink:href="#DejaVuSans-73" x="124.658203"/>
      <use xlink:href="#DejaVuSans-69" x="176.757812"/>
      <use xlink:href="#DejaVuSans-74" x="204.541016"/>
      <use xlink:href="#DejaVuSans-69" x="243.75"/>
      <use xlink:href="#DejaVuSans-6f" x="271.533203"/>
      <use xlink:href="#DejaVuSans-6e" x="332.714844"/>
      <use xlink:href="#DejaVuSans-20" x="396.09375"/>
      <use xlink:href="#DejaVuSans-7a" x="427.880859"/>
     </g>
    </g>
   </g>
   <g id="matplotlib.axis_12">
    <g id="ytick_12">
     <g id="line2d_104">
      <g>
       <use xlink:href="#m5d6a33fcb5" x="57.6" y="294.095195" style="stroke: #000000; stroke-width: 0.8"/>
      </g>
     </g>
     <g id="text_27">
      <!-- 0.0500 -->
      <g transform="translate(15.609375 297.894414)scale(0.1 -0.1)">
       <use xlink:href="#DejaVuSans-30"/>
       <use xlink:href="#DejaVuSans-2e" x="63.623047"/>
       <use xlink:href="#DejaVuSans-30" x="95.410156"/>
       <use xlink:href="#DejaVuSans-35" x="159.033203"/>
       <use xlink:href="#DejaVuSans-30" x="222.65625"/>
       <use xlink:href="#DejaVuSans-30" x="286.279297"/>
      </g>
     </g>
    </g>
    <g id="ytick_13">
     <g id="line2d_105">
      <g>
       <use xlink:href="#m5d6a33fcb5" x="57.6" y="272.056647" style="stroke: #000000; stroke-width: 0.8"/>
      </g>
     </g>
     <g id="text_28">
      <!-- 0.0525 -->
      <g transform="translate(15.609375 275.855866)scale(0.1 -0.1)">
       <use xlink:href="#DejaVuSans-30"/>
       <use xlink:href="#DejaVuSans-2e" x="63.623047"/>
       <use xlink:href="#DejaVuSans-30" x="95.410156"/>
       <use xlink:href="#DejaVuSans-35" x="159.033203"/>
       <use xlink:href="#DejaVuSans-32" x="222.65625"/>
       <use xlink:href="#DejaVuSans-35" x="286.279297"/>
      </g>
     </g>
    </g>
   </g>
   <g id="line2d_106">
    <path d="M 73.832727 265.917057 
L 90.919809 264.693584 
L 108.00689 264.045369 
L 125.093971 263.788138 
L 142.181053 263.809945 
L 159.268134 264.032404 
L 176.355215 264.397347 
L 193.442297 264.861726 
L 210.529378 265.394097 
L 227.616459 265.971536 
L 244.703541 266.577164 
L 261.790622 267.198404 
L 278.877703 267.825871 
L 295.964785 268.452685 
L 313.051866 269.074048 
L 330.138947 269.686911 
L 347.226029 270.289653 
L 364.31311 270.881566 
L 381.400191 271.461332 
L 398.487273 272.017983 
" clip-path="url(#pcf21996ad7)" style="fill: none; stroke: #1f77b4; stroke-width: 1.5; stroke-linecap: square"/>
   </g>
   <g id="line2d_107">
    <path d="M 73.832727 296.116191 
L 90.919809 297.553036 
L 108.00689 298.841401 
L 125.093971 299.952666 
L 142.181053 300.856467 
L 159.268134 301.557078 
L 176.355215 302.078876 
L 193.442297 302.453503 
L 210.529378 302.713978 
L 227.616459 302.892471 
L 244.703541 303.019447 
L 261.790622 303.123187 
L 278.877703 303.229348 
L 295.964785 303.360601 
L 313.051866 303.536411 
L 330.138947 303.772938 
L 347.226029 304.083055 
L 364.31311 304.476446 
L 381.400191 304.958365 
L 398.487273 305.498483 
" clip-path="url(#pcf21996ad7)" style="fill: none; stroke: #ff7f0e; stroke-width: 1.5; stroke-linecap: square"/>
   </g>
   <g id="line2d_108">
    <path d="M 73.832727 294.201257 
L 90.919809 294.977209 
L 108.00689 296.051875 
L 125.093971 297.217266 
L 142.181053 298.338808 
L 159.268134 299.344153 
L 176.355215 300.202906 
L 193.442297 300.909931 
L 210.529378 301.474834 
L 227.616459 301.915821 
L 244.703541 302.25599 
L 261.790622 302.520883 
L 278.877703 302.736711 
L 295.964785 302.929016 
L 313.051866 303.121698 
L 330.138947 303.336336 
L 347.226029 303.591741 
L 364.31311 303.903653 
L 381.400191 304.283508 
L 398.487273 304.719544 
" clip-path="url(#pcf21996ad7)" style="fill: none; stroke: #2ca02c; stroke-width: 1.5; stroke-linecap: square"/>
   </g>
   <g id="line2d_109">
    <path d="M 73.832727 293.839745 
L 90.919809 293.548685 
L 108.00689 293.401227 
L 125.093971 293.469111 
L 142.181053 293.748709 
L 159.268134 294.202356 
L 176.355215 294.783699 
L 193.442297 295.448623 
L 210.529378 296.15879 
L 227.616459 296.882514 
L 244.703541 297.59495 
L 261.790622 298.278077 
L 278.877703 298.920479 
L 295.964785 299.516865 
L 313.051866 300.067349 
L 330.138947 300.576552 
L 347.226029 301.052624 
L 364.31311 301.506215 
L 381.400191 301.94934 
L 398.487273 302.388745 
" clip-path="url(#pcf21996ad7)" style="fill: none; stroke: #d62728; stroke-width: 1.5; stroke-linecap: square"/>
   </g>
   <g id="line2d_110">
    <path d="M 73.832727 293.219659 
L 90.919809 292.926349 
L 108.00689 292.618449 
L 125.093971 292.390473 
L 142.181053 292.292256 
L 159.268134 292.337186 
L 176.355215 292.517843 
L 193.442297 292.817581 
L 210.529378 293.216586 
L 227.616459 293.694496 
L 244.703541 294.231532 
L 261.790622 294.809223 
L 278.877703 295.411043 
L 295.964785 296.022982 
L 313.051866 296.633965 
L 330.138947 297.236088 
L 347.226029 297.824637 
L 364.31311 298.397922 
L 381.400191 298.956811 
L 398.487273 299.496724 
" clip-path="url(#pcf21996ad7)" style="fill: none; stroke: #9467bd; stroke-width: 1.5; stroke-linecap: square"/>
   </g>
   <g id="line2d_111">
    <path d="M 73.832727 289.433345 
L 90.919809 289.127906 
L 108.00689 288.801639 
L 125.093971 288.548459 
L 142.181053 288.418031 
L 159.268134 288.424286 
L 176.355215 288.560895 
L 193.442297 288.812726 
L 210.529378 289.161814 
L 227.616459 289.58982 
L 244.703541 290.078978 
L 261.790622 290.612616 
L 278.877703 291.17563 
L 295.964785 291.754939 
L 313.051866 292.339867 
L 330.138947 292.92238 
L 347.226029 293.497164 
L 364.31311 294.061539 
L 381.400191 294.615122 
L 398.487273 295.153039 
" clip-path="url(#pcf21996ad7)" style="fill: none; stroke: #8c564b; stroke-width: 1.5; stroke-linecap: square"/>
   </g>
   <g id="line2d_112">
    <path d="M 73.832727 289.065676 
L 90.919809 288.759768 
L 108.00689 288.43255 
L 125.093971 288.178038 
L 142.181053 288.045902 
L 159.268134 288.05015 
L 176.355215 288.184571 
L 193.442297 288.434185 
L 210.529378 288.781203 
L 227.616459 289.207476 
L 244.703541 289.69543 
L 261.790622 290.228564 
L 278.877703 290.791909 
L 295.964785 291.372478 
L 313.051866 291.959638 
L 330.138947 292.54535 
L 347.226029 293.12425 
L 364.31311 293.693571 
L 381.400191 294.252778 
L 398.487273 294.794229 
" clip-path="url(#pcf21996ad7)" style="fill: none; stroke: #e377c2; stroke-width: 1.5; stroke-linecap: square"/>
   </g>
   <g id="line2d_113">
    <path d="M 73.832727 289.055495 
L 90.919809 288.750026 
L 108.00689 288.423009 
L 125.093971 288.168619 
L 142.181053 288.036534 
L 159.268134 288.040784 
L 176.355215 288.175181 
L 193.442297 288.42476 
L 210.529378 288.771745 
L 227.616459 289.198001 
L 244.703541 289.685962 
L 261.790622 290.219139 
L 278.877703 290.78257 
L 295.964785 291.363273 
L 313.051866 291.950617 
L 330.138947 292.536563 
L 347.226029 293.115747 
L 364.31311 293.685396 
L 381.400191 294.244904 
L 398.487273 294.783539 
" clip-path="url(#pcf21996ad7)" style="fill: none; stroke: #7f7f7f; stroke-width: 1.5; stroke-linecap: square"/>
   </g>
   <g id="line2d_114">
    <path d="M 73.832727 276.852123 
L 90.919809 277.53085 
L 108.00689 278.210661 
L 125.093971 278.685559 
L 142.181053 279.159023 
L 159.268134 279.668775 
L 176.355215 280.213758 
L 193.442297 280.800636 
L 210.529378 281.420833 
L 227.616459 282.065561 
L 244.703541 282.726549 
L 261.790622 283.394702 
L 278.877703 284.061559 
L 295.964785 284.719746 
L 313.051866 285.363246 
L 330.138947 285.987678 
L 347.226029 286.590417 
L 364.31311 287.170501 
L 381.400191 287.727746 
L 398.487273 288.252086 
" clip-path="url(#pcf21996ad7)" style="fill: none; stroke: #bcbd22; stroke-width: 1.5; stroke-linecap: square"/>
   </g>
   <g id="line2d_115">
    <path d="M 73.832727 268.300945 
L 90.919809 269.080611 
L 108.00689 269.872156 
L 125.093971 270.634341 
L 142.181053 271.386881 
L 159.268134 272.143158 
L 176.355215 272.906355 
L 193.442297 273.674168 
L 210.529378 274.442195 
L 227.616459 275.205387 
L 244.703541 275.958548 
L 261.790622 276.696575 
L 278.877703 277.414721 
L 295.964785 278.108886 
L 313.051866 278.775883 
L 330.138947 279.413631 
L 347.226029 280.021232 
L 364.31311 280.598827 
L 381.400191 281.146507 
L 398.487273 281.655563 
" clip-path="url(#pcf21996ad7)" style="fill: none; stroke: #17becf; stroke-width: 1.5; stroke-linecap: square"/>
   </g>
   <g id="line2d_116">
    <path d="M 73.832727 267.405403 
L 90.919809 266.992788 
L 108.00689 267.094401 
L 125.093971 267.446798 
L 142.181053 267.948394 
L 159.268134 268.546217 
L 176.355215 269.205845 
L 193.442297 269.902976 
L 210.529378 270.620069 
L 227.616459 271.344167 
L 244.703541 272.065355 
L 261.790622 272.775796 
L 278.877703 273.469234 
L 295.964785 274.140798 
L 313.051866 274.786947 
L 330.138947 275.405454 
L 347.226029 275.995338 
L 364.31311 276.556601 
L 381.400191 277.089024 
L 398.487273 277.584178 
" clip-path="url(#pcf21996ad7)" style="fill: none; stroke: #1f77b4; stroke-width: 1.5; stroke-linecap: square"/>
   </g>
   <g id="line2d_117">
    <path d="M 73.832727 266.806766 
L 90.919809 265.882731 
L 108.00689 265.567576 
L 125.093971 265.608186 
L 142.181053 265.879332 
L 159.268134 266.30525 
L 176.355215 266.834316 
L 193.442297 267.430044 
L 210.529378 268.066441 
L 227.616459 268.724757 
L 244.703541 269.39115 
L 261.790622 270.05515 
L 278.877703 270.708756 
L 295.964785 271.345952 
L 313.051866 271.962438 
L 330.138947 272.555468 
L 347.226029 273.123677 
L 364.31311 273.666727 
L 381.400191 274.184038 
L 398.487273 274.667143 
" clip-path="url(#pcf21996ad7)" style="fill: none; stroke: #ff7f0e; stroke-width: 1.5; stroke-linecap: square"/>
   </g>
   <g id="line2d_118">
    <path d="M 73.832727 266.241361 
L 90.919809 265.083991 
L 108.00689 264.52384 
L 125.093971 264.351768 
L 142.181053 264.447466 
L 159.268134 264.730566 
L 176.355215 265.143218 
L 193.442297 265.643289 
L 210.529378 266.200222 
L 227.616459 266.791767 
L 244.703541 267.401484 
L 261.790622 268.017011 
L 278.877703 268.628997 
L 295.964785 269.230457 
L 313.051866 269.816402 
L 330.138947 270.383577 
L 347.226029 270.930223 
L 364.31311 271.455667 
L 381.400191 271.959 
L 398.487273 272.431604 
" clip-path="url(#pcf21996ad7)" style="fill: none; stroke: #2ca02c; stroke-width: 1.5; stroke-linecap: square"/>
   </g>
   <g id="patch_25">
    <path d="M 57.6 307.584 
L 57.6 261.702621 
" style="fill: none; stroke: #000000; stroke-width: 0.8; stroke-linejoin: miter; stroke-linecap: square"/>
   </g>
   <g id="patch_26">
    <path d="M 414.72 307.584 
L 414.72 261.702621 
" style="fill: none; stroke: #000000; stroke-width: 0.8; stroke-linejoin: miter; stroke-linecap: square"/>
   </g>
   <g id="patch_27">
    <path d="M 57.6 307.584 
L 414.72 307.584 
" style="fill: none; stroke: #000000; stroke-width: 0.8; stroke-linejoin: miter; stroke-linecap: square"/>
   </g>
   <g id="patch_28">
    <path d="M 57.6 261.702621 
L 414.72 261.702621 
" style="fill: none; stroke: #000000; stroke-width: 0.8; stroke-linejoin: miter; stroke-linecap: square"/>
   </g>
   <g id="text_29">
    <!-- yC - Container 1 -->
    <g transform="translate(187.395938 258.702621)scale(0.12 -0.12)">
     <use xlink:href="#DejaVuSans-79"/>
     <use xlink:href="#DejaVuSans-43" x="59.179688"/>
     <use xlink:href="#DejaVuSans-20" x="129.003906"/>
     <use xlink:href="#DejaVuSans-2d" x="160.791016"/>
     <use xlink:href="#DejaVuSans-20" x="196.875"/>
     <use xlink:href="#DejaVuSans-43" x="228.662109"/>
     <use xlink:href="#DejaVuSans-6f" x="298.486328"/>
     <use xlink:href="#DejaVuSans-6e" x="359.667969"/>
     <use xlink:href="#DejaVuSans-74" x="423.046875"/>
     <use xlink:href="#DejaVuSans-61" x="462.255859"/>
     <use xlink:href="#DejaVuSans-69" x="523.535156"/>
     <use xlink:href="#DejaVuSans-6e" x="551.318359"/>
     <use xlink:href="#DejaVuSans-65" x="614.697266"/>
     <use xlink:href="#DejaVuSans-72" x="676.220703"/>
     <use xlink:href="#DejaVuSans-20" x="717.333984"/>
     <use xlink:href="#DejaVuSans-31" x="749.121094"/>
    </g>
   </g>
  </g>
  <g id="legend_1">
   <g id="patch_29">
    <path d="M 372.146875 269.707812 
L 457.8 269.707812 
Q 459.8 269.707812 459.8 267.707812 
L 459.8 77.892187 
Q 459.8 75.892187 457.8 75.892187 
L 372.146875 75.892187 
Q 370.146875 75.892187 370.146875 77.892187 
L 370.146875 267.707812 
Q 370.146875 269.707812 372.146875 269.707812 
z
" style="fill: #ffffff; opacity: 0.8; stroke: #cccccc; stroke-linejoin: miter"/>
   </g>
   <g id="line2d_119">
    <path d="M 374.146875 83.990625 
L 384.146875 83.990625 
L 394.146875 83.990625 
" style="fill: none; stroke: #1f77b4; stroke-width: 1.5; stroke-linecap: square"/>
   </g>
   <g id="text_30">
    <!-- t=0.0000 -->
    <g transform="translate(402.146875 87.490625)scale(0.1 -0.1)">
     <defs>
      <path id="DejaVuSans-3d" d="M 678 2906 
L 4684 2906 
L 4684 2381 
L 678 2381 
L 678 2906 
z
M 678 1631 
L 4684 1631 
L 4684 1100 
L 678 1100 
L 678 1631 
z
" transform="scale(0.015625)"/>
     </defs>
     <use xlink:href="#DejaVuSans-74"/>
     <use xlink:href="#DejaVuSans-3d" x="39.208984"/>
     <use xlink:href="#DejaVuSans-30" x="122.998047"/>
     <use xlink:href="#DejaVuSans-2e" x="186.621094"/>
     <use xlink:href="#DejaVuSans-30" x="218.408203"/>
     <use xlink:href="#DejaVuSans-30" x="282.03125"/>
     <use xlink:href="#DejaVuSans-30" x="345.654297"/>
     <use xlink:href="#DejaVuSans-30" x="409.277344"/>
    </g>
   </g>
   <g id="line2d_120">
    <path d="M 374.146875 98.66875 
L 384.146875 98.66875 
L 394.146875 98.66875 
" style="fill: none; stroke: #ff7f0e; stroke-width: 1.5; stroke-linecap: square"/>
   </g>
   <g id="text_31">
    <!-- t=8.0000 -->
    <g transform="translate(402.146875 102.16875)scale(0.1 -0.1)">
     <use xlink:href="#DejaVuSans-74"/>
     <use xlink:href="#DejaVuSans-3d" x="39.208984"/>
     <use xlink:href="#DejaVuSans-38" x="122.998047"/>
     <use xlink:href="#DejaVuSans-2e" x="186.621094"/>
     <use xlink:href="#DejaVuSans-30" x="218.408203"/>
     <use xlink:href="#DejaVuSans-30" x="282.03125"/>
     <use xlink:href="#DejaVuSans-30" x="345.654297"/>
     <use xlink:href="#DejaVuSans-30" x="409.277344"/>
    </g>
   </g>
   <g id="line2d_121">
    <path d="M 374.146875 113.346875 
L 384.146875 113.346875 
L 394.146875 113.346875 
" style="fill: none; stroke: #2ca02c; stroke-width: 1.5; stroke-linecap: square"/>
   </g>
   <g id="text_32">
    <!-- t=16.0000 -->
    <g transform="translate(402.146875 116.846875)scale(0.1 -0.1)">
     <use xlink:href="#DejaVuSans-74"/>
     <use xlink:href="#DejaVuSans-3d" x="39.208984"/>
     <use xlink:href="#DejaVuSans-31" x="122.998047"/>
     <use xlink:href="#DejaVuSans-36" x="186.621094"/>
     <use xlink:href="#DejaVuSans-2e" x="250.244141"/>
     <use xlink:href="#DejaVuSans-30" x="282.03125"/>
     <use xlink:href="#DejaVuSans-30" x="345.654297"/>
     <use xlink:href="#DejaVuSans-30" x="409.277344"/>
     <use xlink:href="#DejaVuSans-30" x="472.900391"/>
    </g>
   </g>
   <g id="line2d_122">
    <path d="M 374.146875 128.025 
L 384.146875 128.025 
L 394.146875 128.025 
" style="fill: none; stroke: #d62728; stroke-width: 1.5; stroke-linecap: square"/>
   </g>
   <g id="text_33">
    <!-- t=24.0000 -->
    <g transform="translate(402.146875 131.525)scale(0.1 -0.1)">
     <defs>
      <path id="DejaVuSans-34" d="M 2419 4116 
L 825 1625 
L 2419 1625 
L 2419 4116 
z
M 2253 4666 
L 3047 4666 
L 3047 1625 
L 3713 1625 
L 3713 1100 
L 3047 1100 
L 3047 0 
L 2419 0 
L 2419 1100 
L 313 1100 
L 313 1709 
L 2253 4666 
z
" transform="scale(0.015625)"/>
     </defs>
     <use xlink:href="#DejaVuSans-74"/>
     <use xlink:href="#DejaVuSans-3d" x="39.208984"/>
     <use xlink:href="#DejaVuSans-32" x="122.998047"/>
     <use xlink:href="#DejaVuSans-34" x="186.621094"/>
     <use xlink:href="#DejaVuSans-2e" x="250.244141"/>
     <use xlink:href="#DejaVuSans-30" x="282.03125"/>
     <use xlink:href="#DejaVuSans-30" x="345.654297"/>
     <use xlink:href="#DejaVuSans-30" x="409.277344"/>
     <use xlink:href="#DejaVuSans-30" x="472.900391"/>
    </g>
   </g>
   <g id="line2d_123">
    <path d="M 374.146875 142.703125 
L 384.146875 142.703125 
L 394.146875 142.703125 
" style="fill: none; stroke: #9467bd; stroke-width: 1.5; stroke-linecap: square"/>
   </g>
   <g id="text_34">
    <!-- t=32.0000 -->
    <g transform="translate(402.146875 146.203125)scale(0.1 -0.1)">
     <defs>
      <path id="DejaVuSans-33" d="M 2597 2516 
Q 3050 2419 3304 2112 
Q 3559 1806 3559 1356 
Q 3559 666 3084 287 
Q 2609 -91 1734 -91 
Q 1441 -91 1130 -33 
Q 819 25 488 141 
L 488 750 
Q 750 597 1062 519 
Q 1375 441 1716 441 
Q 2309 441 2620 675 
Q 2931 909 2931 1356 
Q 2931 1769 2642 2001 
Q 2353 2234 1838 2234 
L 1294 2234 
L 1294 2753 
L 1863 2753 
Q 2328 2753 2575 2939 
Q 2822 3125 2822 3475 
Q 2822 3834 2567 4026 
Q 2313 4219 1838 4219 
Q 1578 4219 1281 4162 
Q 984 4106 628 3988 
L 628 4550 
Q 988 4650 1302 4700 
Q 1616 4750 1894 4750 
Q 2613 4750 3031 4423 
Q 3450 4097 3450 3541 
Q 3450 3153 3228 2886 
Q 3006 2619 2597 2516 
z
" transform="scale(0.015625)"/>
     </defs>
     <use xlink:href="#DejaVuSans-74"/>
     <use xlink:href="#DejaVuSans-3d" x="39.208984"/>
     <use xlink:href="#DejaVuSans-33" x="122.998047"/>
     <use xlink:href="#DejaVuSans-32" x="186.621094"/>
     <use xlink:href="#DejaVuSans-2e" x="250.244141"/>
     <use xlink:href="#DejaVuSans-30" x="282.03125"/>
     <use xlink:href="#DejaVuSans-30" x="345.654297"/>
     <use xlink:href="#DejaVuSans-30" x="409.277344"/>
     <use xlink:href="#DejaVuSans-30" x="472.900391"/>
    </g>
   </g>
   <g id="line2d_124">
    <path d="M 374.146875 157.38125 
L 384.146875 157.38125 
L 394.146875 157.38125 
" style="fill: none; stroke: #8c564b; stroke-width: 1.5; stroke-linecap: square"/>
   </g>
   <g id="text_35">
    <!-- t=40.0000 -->
    <g transform="translate(402.146875 160.88125)scale(0.1 -0.1)">
     <use xlink:href="#DejaVuSans-74"/>
     <use xlink:href="#DejaVuSans-3d" x="39.208984"/>
     <use xlink:href="#DejaVuSans-34" x="122.998047"/>
     <use xlink:href="#DejaVuSans-30" x="186.621094"/>
     <use xlink:href="#DejaVuSans-2e" x="250.244141"/>
     <use xlink:href="#DejaVuSans-30" x="282.03125"/>
     <use xlink:href="#DejaVuSans-30" x="345.654297"/>
     <use xlink:href="#DejaVuSans-30" x="409.277344"/>
     <use xlink:href="#DejaVuSans-30" x="472.900391"/>
    </g>
   </g>
   <g id="line2d_125">
    <path d="M 374.146875 172.059375 
L 384.146875 172.059375 
L 394.146875 172.059375 
" style="fill: none; stroke: #e377c2; stroke-width: 1.5; stroke-linecap: square"/>
   </g>
   <g id="text_36">
    <!-- t=48.0000 -->
    <g transform="translate(402.146875 175.559375)scale(0.1 -0.1)">
     <use xlink:href="#DejaVuSans-74"/>
     <use xlink:href="#DejaVuSans-3d" x="39.208984"/>
     <use xlink:href="#DejaVuSans-34" x="122.998047"/>
     <use xlink:href="#DejaVuSans-38" x="186.621094"/>
     <use xlink:href="#DejaVuSans-2e" x="250.244141"/>
     <use xlink:href="#DejaVuSans-30" x="282.03125"/>
     <use xlink:href="#DejaVuSans-30" x="345.654297"/>
     <use xlink:href="#DejaVuSans-30" x="409.277344"/>
     <use xlink:href="#DejaVuSans-30" x="472.900391"/>
    </g>
   </g>
   <g id="line2d_126">
    <path d="M 374.146875 186.7375 
L 384.146875 186.7375 
L 394.146875 186.7375 
" style="fill: none; stroke: #7f7f7f; stroke-width: 1.5; stroke-linecap: square"/>
   </g>
   <g id="text_37">
    <!-- t=56.0000 -->
    <g transform="translate(402.146875 190.2375)scale(0.1 -0.1)">
     <use xlink:href="#DejaVuSans-74"/>
     <use xlink:href="#DejaVuSans-3d" x="39.208984"/>
     <use xlink:href="#DejaVuSans-35" x="122.998047"/>
     <use xlink:href="#DejaVuSans-36" x="186.621094"/>
     <use xlink:href="#DejaVuSans-2e" x="250.244141"/>
     <use xlink:href="#DejaVuSans-30" x="282.03125"/>
     <use xlink:href="#DejaVuSans-30" x="345.654297"/>
     <use xlink:href="#DejaVuSans-30" x="409.277344"/>
     <use xlink:href="#DejaVuSans-30" x="472.900391"/>
    </g>
   </g>
   <g id="line2d_127">
    <path d="M 374.146875 201.415625 
L 384.146875 201.415625 
L 394.146875 201.415625 
" style="fill: none; stroke: #bcbd22; stroke-width: 1.5; stroke-linecap: square"/>
   </g>
   <g id="text_38">
    <!-- t=64.0000 -->
    <g transform="translate(402.146875 204.915625)scale(0.1 -0.1)">
     <use xlink:href="#DejaVuSans-74"/>
     <use xlink:href="#DejaVuSans-3d" x="39.208984"/>
     <use xlink:href="#DejaVuSans-36" x="122.998047"/>
     <use xlink:href="#DejaVuSans-34" x="186.621094"/>
     <use xlink:href="#DejaVuSans-2e" x="250.244141"/>
     <use xlink:href="#DejaVuSans-30" x="282.03125"/>
     <use xlink:href="#DejaVuSans-30" x="345.654297"/>
     <use xlink:href="#DejaVuSans-30" x="409.277344"/>
     <use xlink:href="#DejaVuSans-30" x="472.900391"/>
    </g>
   </g>
   <g id="line2d_128">
    <path d="M 374.146875 216.09375 
L 384.146875 216.09375 
L 394.146875 216.09375 
" style="fill: none; stroke: #17becf; stroke-width: 1.5; stroke-linecap: square"/>
   </g>
   <g id="text_39">
    <!-- t=72.0000 -->
    <g transform="translate(402.146875 219.59375)scale(0.1 -0.1)">
     <use xlink:href="#DejaVuSans-74"/>
     <use xlink:href="#DejaVuSans-3d" x="39.208984"/>
     <use xlink:href="#DejaVuSans-37" x="122.998047"/>
     <use xlink:href="#DejaVuSans-32" x="186.621094"/>
     <use xlink:href="#DejaVuSans-2e" x="250.244141"/>
     <use xlink:href="#DejaVuSans-30" x="282.03125"/>
     <use xlink:href="#DejaVuSans-30" x="345.654297"/>
     <use xlink:href="#DejaVuSans-30" x="409.277344"/>
     <use xlink:href="#DejaVuSans-30" x="472.900391"/>
    </g>
   </g>
   <g id="line2d_129">
    <path d="M 374.146875 230.771875 
L 384.146875 230.771875 
L 394.146875 230.771875 
" style="fill: none; stroke: #1f77b4; stroke-width: 1.5; stroke-linecap: square"/>
   </g>
   <g id="text_40">
    <!-- t=80.0000 -->
    <g transform="translate(402.146875 234.271875)scale(0.1 -0.1)">
     <use xlink:href="#DejaVuSans-74"/>
     <use xlink:href="#DejaVuSans-3d" x="39.208984"/>
     <use xlink:href="#DejaVuSans-38" x="122.998047"/>
     <use xlink:href="#DejaVuSans-30" x="186.621094"/>
     <use xlink:href="#DejaVuSans-2e" x="250.244141"/>
     <use xlink:href="#DejaVuSans-30" x="282.03125"/>
     <use xlink:href="#DejaVuSans-30" x="345.654297"/>
     <use xlink:href="#DejaVuSans-30" x="409.277344"/>
     <use xlink:href="#DejaVuSans-30" x="472.900391"/>
    </g>
   </g>
   <g id="line2d_130">
    <path d="M 374.146875 245.45 
L 384.146875 245.45 
L 394.146875 245.45 
" style="fill: none; stroke: #ff7f0e; stroke-width: 1.5; stroke-linecap: square"/>
   </g>
   <g id="text_41">
    <!-- t=88.0000 -->
    <g transform="translate(402.146875 248.95)scale(0.1 -0.1)">
     <use xlink:href="#DejaVuSans-74"/>
     <use xlink:href="#DejaVuSans-3d" x="39.208984"/>
     <use xlink:href="#DejaVuSans-38" x="122.998047"/>
     <use xlink:href="#DejaVuSans-38" x="186.621094"/>
     <use xlink:href="#DejaVuSans-2e" x="250.244141"/>
     <use xlink:href="#DejaVuSans-30" x="282.03125"/>
     <use xlink:href="#DejaVuSans-30" x="345.654297"/>
     <use xlink:href="#DejaVuSans-30" x="409.277344"/>
     <use xlink:href="#DejaVuSans-30" x="472.900391"/>
    </g>
   </g>
   <g id="line2d_131">
    <path d="M 374.146875 260.128125 
L 384.146875 260.128125 
L 394.146875 260.128125 
" style="fill: none; stroke: #2ca02c; stroke-width: 1.5; stroke-linecap: square"/>
   </g>
   <g id="text_42">
    <!-- t=96.0000 -->
    <g transform="translate(402.146875 263.628125)scale(0.1 -0.1)">
     <use xlink:href="#DejaVuSans-74"/>
     <use xlink:href="#DejaVuSans-3d" x="39.208984"/>
     <use xlink:href="#DejaVuSans-39" x="122.998047"/>
     <use xlink:href="#DejaVuSans-36" x="186.621094"/>
     <use xlink:href="#DejaVuSans-2e" x="250.244141"/>
     <use xlink:href="#DejaVuSans-30" x="282.03125"/>
     <use xlink:href="#DejaVuSans-30" x="345.654297"/>
     <use xlink:href="#DejaVuSans-30" x="409.277344"/>
     <use xlink:href="#DejaVuSans-30" x="472.900391"/>
    </g>
   </g>
  </g>
 </g>
 <defs>
  <clipPath id="p739ec0feb3">
   <rect x="57.6" y="41.472" width="357.12" height="45.881379"/>
  </clipPath>
  <clipPath id="p38d81f2737">
   <rect x="57.6" y="96.529655" width="357.12" height="45.881379"/>
  </clipPath>
  <clipPath id="pb0437c00a2">
   <rect x="57.6" y="151.58731" width="357.12" height="45.881379"/>
  </clipPath>
  <clipPath id="pe2de0401bf">
   <rect x="57.6" y="206.644966" width="357.12" height="45.881379"/>
  </clipPath>
  <clipPath id="pcf21996ad7">
   <rect x="57.6" y="261.702621" width="357.12" height="45.881379"/>
  </clipPath>
 </defs>
</svg>
