<?xml version="1.0" encoding="utf-8" standalone="no"?>
<!DOCTYPE svg PUBLIC "-//W3C//DTD SVG 1.1//EN"
  "http://www.w3.org/Graphics/SVG/1.1/DTD/svg11.dtd">
<svg xmlns:xlink="http://www.w3.org/1999/xlink" width="460.8pt" height="345.6pt" viewBox="0 0 460.8 345.6" xmlns="http://www.w3.org/2000/svg" version="1.1">
 <metadata>
  <rdf:RDF xmlns:dc="http://purl.org/dc/elements/1.1/" xmlns:cc="http://creativecommons.org/ns#" xmlns:rdf="http://www.w3.org/1999/02/22-rdf-syntax-ns#">
   <cc:Work>
    <dc:type rdf:resource="http://purl.org/dc/dcmitype/StillImage"/>
    <dc:date>2022-07-10T00:04:57.760976</dc:date>
    <dc:format>image/svg+xml</dc:format>
    <dc:creator>
     <cc:Agent>
      <dc:title>Matplotlib v3.5.2, https://matplotlib.org/</dc:title>
     </cc:Agent>
    </dc:creator>
   </cc:Work>
  </rdf:RDF>
 </metadata>
 <defs>
  <style type="text/css">*{stroke-linejoin: round; stroke-linecap: butt}</style>
 </defs>
 <g id="figure_1">
  <g id="patch_1">
   <path d="M 0 345.6 
L 460.8 345.6 
L 460.8 0 
L 0 0 
z
" style="fill: #ffffff"/>
  </g>
  <g id="axes_1">
   <g id="patch_2">
    <path d="M 57.6 87.353379 
L 414.72 87.353379 
L 414.72 41.472 
L 57.6 41.472 
z
" style="fill: #ffffff"/>
   </g>
   <g id="matplotlib.axis_1">
    <g id="xtick_1">
     <g id="line2d_1">
      <defs>
       <path id="m07ee0150d8" d="M 0 0 
L 0 3.5 
" style="stroke: #000000; stroke-width: 0.8"/>
      </defs>
      <g>
       <use xlink:href="#m07ee0150d8" x="73.832727" y="87.353379" style="stroke: #000000; stroke-width: 0.8"/>
      </g>
     </g>
    </g>
    <g id="xtick_2">
     <g id="line2d_2">
      <g>
       <use xlink:href="#m07ee0150d8" x="138.763636" y="87.353379" style="stroke: #000000; stroke-width: 0.8"/>
      </g>
     </g>
    </g>
    <g id="xtick_3">
     <g id="line2d_3">
      <g>
       <use xlink:href="#m07ee0150d8" x="203.694545" y="87.353379" style="stroke: #000000; stroke-width: 0.8"/>
      </g>
     </g>
    </g>
    <g id="xtick_4">
     <g id="line2d_4">
      <g>
       <use xlink:href="#m07ee0150d8" x="268.625455" y="87.353379" style="stroke: #000000; stroke-width: 0.8"/>
      </g>
     </g>
    </g>
    <g id="xtick_5">
     <g id="line2d_5">
      <g>
       <use xlink:href="#m07ee0150d8" x="333.556364" y="87.353379" style="stroke: #000000; stroke-width: 0.8"/>
      </g>
     </g>
    </g>
    <g id="xtick_6">
     <g id="line2d_6">
      <g>
       <use xlink:href="#m07ee0150d8" x="398.487273" y="87.353379" style="stroke: #000000; stroke-width: 0.8"/>
      </g>
     </g>
    </g>
   </g>
   <g id="matplotlib.axis_2">
    <g id="ytick_1">
     <g id="line2d_7">
      <defs>
       <path id="m74472c6530" d="M 0 0 
L -3.5 0 
" style="stroke: #000000; stroke-width: 0.8"/>
      </defs>
      <g>
       <use xlink:href="#m74472c6530" x="57.6" y="73.874596" style="stroke: #000000; stroke-width: 0.8"/>
      </g>
     </g>
     <g id="text_1">
      <!-- 0 -->
      <g transform="translate(44.2375 77.673815)scale(0.1 -0.1)">
       <defs>
        <path id="DejaVuSans-30" d="M 2034 4250 
Q 1547 4250 1301 3770 
Q 1056 3291 1056 2328 
Q 1056 1369 1301 889 
Q 1547 409 2034 409 
Q 2525 409 2770 889 
Q 3016 1369 3016 2328 
Q 3016 3291 2770 3770 
Q 2525 4250 2034 4250 
z
M 2034 4750 
Q 2819 4750 3233 4129 
Q 3647 3509 3647 2328 
Q 3647 1150 3233 529 
Q 2819 -91 2034 -91 
Q 1250 -91 836 529 
Q 422 1150 422 2328 
Q 422 3509 836 4129 
Q 1250 4750 2034 4750 
z
" transform="scale(0.015625)"/>
       </defs>
       <use xlink:href="#DejaVuSans-30"/>
      </g>
     </g>
    </g>
    <g id="ytick_2">
     <g id="line2d_8">
      <g>
       <use xlink:href="#m74472c6530" x="57.6" y="43.664309" style="stroke: #000000; stroke-width: 0.8"/>
      </g>
     </g>
     <g id="text_2">
      <!-- 1 -->
      <g transform="translate(44.2375 47.463528)scale(0.1 -0.1)">
       <defs>
        <path id="DejaVuSans-31" d="M 794 531 
L 1825 531 
L 1825 4091 
L 703 3866 
L 703 4441 
L 1819 4666 
L 2450 4666 
L 2450 531 
L 3481 531 
L 3481 0 
L 794 0 
L 794 531 
z
" transform="scale(0.015625)"/>
       </defs>
       <use xlink:href="#DejaVuSans-31"/>
      </g>
     </g>
    </g>
    <g id="text_3">
     <!-- flow rate (normalized) -->
     <g transform="translate(38.157812 119.729877)rotate(-90)scale(0.1 -0.1)">
      <defs>
       <path id="DejaVuSans-66" d="M 2375 4863 
L 2375 4384 
L 1825 4384 
Q 1516 4384 1395 4259 
Q 1275 4134 1275 3809 
L 1275 3500 
L 2222 3500 
L 2222 3053 
L 1275 3053 
L 1275 0 
L 697 0 
L 697 3053 
L 147 3053 
L 147 3500 
L 697 3500 
L 697 3744 
Q 697 4328 969 4595 
Q 1241 4863 1831 4863 
L 2375 4863 
z
" transform="scale(0.015625)"/>
       <path id="DejaVuSans-6c" d="M 603 4863 
L 1178 4863 
L 1178 0 
L 603 0 
L 603 4863 
z
" transform="scale(0.015625)"/>
       <path id="DejaVuSans-6f" d="M 1959 3097 
Q 1497 3097 1228 2736 
Q 959 2375 959 1747 
Q 959 1119 1226 758 
Q 1494 397 1959 397 
Q 2419 397 2687 759 
Q 2956 1122 2956 1747 
Q 2956 2369 2687 2733 
Q 2419 3097 1959 3097 
z
M 1959 3584 
Q 2709 3584 3137 3096 
Q 3566 2609 3566 1747 
Q 3566 888 3137 398 
Q 2709 -91 1959 -91 
Q 1206 -91 779 398 
Q 353 888 353 1747 
Q 353 2609 779 3096 
Q 1206 3584 1959 3584 
z
" transform="scale(0.015625)"/>
       <path id="DejaVuSans-77" d="M 269 3500 
L 844 3500 
L 1563 769 
L 2278 3500 
L 2956 3500 
L 3675 769 
L 4391 3500 
L 4966 3500 
L 4050 0 
L 3372 0 
L 2619 2869 
L 1863 0 
L 1184 0 
L 269 3500 
z
" transform="scale(0.015625)"/>
       <path id="DejaVuSans-20" transform="scale(0.015625)"/>
       <path id="DejaVuSans-72" d="M 2631 2963 
Q 2534 3019 2420 3045 
Q 2306 3072 2169 3072 
Q 1681 3072 1420 2755 
Q 1159 2438 1159 1844 
L 1159 0 
L 581 0 
L 581 3500 
L 1159 3500 
L 1159 2956 
Q 1341 3275 1631 3429 
Q 1922 3584 2338 3584 
Q 2397 3584 2469 3576 
Q 2541 3569 2628 3553 
L 2631 2963 
z
" transform="scale(0.015625)"/>
       <path id="DejaVuSans-61" d="M 2194 1759 
Q 1497 1759 1228 1600 
Q 959 1441 959 1056 
Q 959 750 1161 570 
Q 1363 391 1709 391 
Q 2188 391 2477 730 
Q 2766 1069 2766 1631 
L 2766 1759 
L 2194 1759 
z
M 3341 1997 
L 3341 0 
L 2766 0 
L 2766 531 
Q 2569 213 2275 61 
Q 1981 -91 1556 -91 
Q 1019 -91 701 211 
Q 384 513 384 1019 
Q 384 1609 779 1909 
Q 1175 2209 1959 2209 
L 2766 2209 
L 2766 2266 
Q 2766 2663 2505 2880 
Q 2244 3097 1772 3097 
Q 1472 3097 1187 3025 
Q 903 2953 641 2809 
L 641 3341 
Q 956 3463 1253 3523 
Q 1550 3584 1831 3584 
Q 2591 3584 2966 3190 
Q 3341 2797 3341 1997 
z
" transform="scale(0.015625)"/>
       <path id="DejaVuSans-74" d="M 1172 4494 
L 1172 3500 
L 2356 3500 
L 2356 3053 
L 1172 3053 
L 1172 1153 
Q 1172 725 1289 603 
Q 1406 481 1766 481 
L 2356 481 
L 2356 0 
L 1766 0 
Q 1100 0 847 248 
Q 594 497 594 1153 
L 594 3053 
L 172 3053 
L 172 3500 
L 594 3500 
L 594 4494 
L 1172 4494 
z
" transform="scale(0.015625)"/>
       <path id="DejaVuSans-65" d="M 3597 1894 
L 3597 1613 
L 953 1613 
Q 991 1019 1311 708 
Q 1631 397 2203 397 
Q 2534 397 2845 478 
Q 3156 559 3463 722 
L 3463 178 
Q 3153 47 2828 -22 
Q 2503 -91 2169 -91 
Q 1331 -91 842 396 
Q 353 884 353 1716 
Q 353 2575 817 3079 
Q 1281 3584 2069 3584 
Q 2775 3584 3186 3129 
Q 3597 2675 3597 1894 
z
M 3022 2063 
Q 3016 2534 2758 2815 
Q 2500 3097 2075 3097 
Q 1594 3097 1305 2825 
Q 1016 2553 972 2059 
L 3022 2063 
z
" transform="scale(0.015625)"/>
       <path id="DejaVuSans-28" d="M 1984 4856 
Q 1566 4138 1362 3434 
Q 1159 2731 1159 2009 
Q 1159 1288 1364 580 
Q 1569 -128 1984 -844 
L 1484 -844 
Q 1016 -109 783 600 
Q 550 1309 550 2009 
Q 550 2706 781 3412 
Q 1013 4119 1484 4856 
L 1984 4856 
z
" transform="scale(0.015625)"/>
       <path id="DejaVuSans-6e" d="M 3513 2113 
L 3513 0 
L 2938 0 
L 2938 2094 
Q 2938 2591 2744 2837 
Q 2550 3084 2163 3084 
Q 1697 3084 1428 2787 
Q 1159 2491 1159 1978 
L 1159 0 
L 581 0 
L 581 3500 
L 1159 3500 
L 1159 2956 
Q 1366 3272 1645 3428 
Q 1925 3584 2291 3584 
Q 2894 3584 3203 3211 
Q 3513 2838 3513 2113 
z
" transform="scale(0.015625)"/>
       <path id="DejaVuSans-6d" d="M 3328 2828 
Q 3544 3216 3844 3400 
Q 4144 3584 4550 3584 
Q 5097 3584 5394 3201 
Q 5691 2819 5691 2113 
L 5691 0 
L 5113 0 
L 5113 2094 
Q 5113 2597 4934 2840 
Q 4756 3084 4391 3084 
Q 3944 3084 3684 2787 
Q 3425 2491 3425 1978 
L 3425 0 
L 2847 0 
L 2847 2094 
Q 2847 2600 2669 2842 
Q 2491 3084 2119 3084 
Q 1678 3084 1418 2786 
Q 1159 2488 1159 1978 
L 1159 0 
L 581 0 
L 581 3500 
L 1159 3500 
L 1159 2956 
Q 1356 3278 1631 3431 
Q 1906 3584 2284 3584 
Q 2666 3584 2933 3390 
Q 3200 3197 3328 2828 
z
" transform="scale(0.015625)"/>
       <path id="DejaVuSans-69" d="M 603 3500 
L 1178 3500 
L 1178 0 
L 603 0 
L 603 3500 
z
M 603 4863 
L 1178 4863 
L 1178 4134 
L 603 4134 
L 603 4863 
z
" transform="scale(0.015625)"/>
       <path id="DejaVuSans-7a" d="M 353 3500 
L 3084 3500 
L 3084 2975 
L 922 459 
L 3084 459 
L 3084 0 
L 275 0 
L 275 525 
L 2438 3041 
L 353 3041 
L 353 3500 
z
" transform="scale(0.015625)"/>
       <path id="DejaVuSans-64" d="M 2906 2969 
L 2906 4863 
L 3481 4863 
L 3481 0 
L 2906 0 
L 2906 525 
Q 2725 213 2448 61 
Q 2172 -91 1784 -91 
Q 1150 -91 751 415 
Q 353 922 353 1747 
Q 353 2572 751 3078 
Q 1150 3584 1784 3584 
Q 2172 3584 2448 3432 
Q 2725 3281 2906 2969 
z
M 947 1747 
Q 947 1113 1208 752 
Q 1469 391 1925 391 
Q 2381 391 2643 752 
Q 2906 1113 2906 1747 
Q 2906 2381 2643 2742 
Q 2381 3103 1925 3103 
Q 1469 3103 1208 2742 
Q 947 2381 947 1747 
z
" transform="scale(0.015625)"/>
       <path id="DejaVuSans-29" d="M 513 4856 
L 1013 4856 
Q 1481 4119 1714 3412 
Q 1947 2706 1947 2009 
Q 1947 1309 1714 600 
Q 1481 -109 1013 -844 
L 513 -844 
Q 928 -128 1133 580 
Q 1338 1288 1338 2009 
Q 1338 2731 1133 3434 
Q 928 4138 513 4856 
z
" transform="scale(0.015625)"/>
      </defs>
      <use xlink:href="#DejaVuSans-66"/>
      <use xlink:href="#DejaVuSans-6c" x="35.205078"/>
      <use xlink:href="#DejaVuSans-6f" x="62.988281"/>
      <use xlink:href="#DejaVuSans-77" x="124.169922"/>
      <use xlink:href="#DejaVuSans-20" x="205.957031"/>
      <use xlink:href="#DejaVuSans-72" x="237.744141"/>
      <use xlink:href="#DejaVuSans-61" x="278.857422"/>
      <use xlink:href="#DejaVuSans-74" x="340.136719"/>
      <use xlink:href="#DejaVuSans-65" x="379.345703"/>
      <use xlink:href="#DejaVuSans-20" x="440.869141"/>
      <use xlink:href="#DejaVuSans-28" x="472.65625"/>
      <use xlink:href="#DejaVuSans-6e" x="511.669922"/>
      <use xlink:href="#DejaVuSans-6f" x="575.048828"/>
      <use xlink:href="#DejaVuSans-72" x="636.230469"/>
      <use xlink:href="#DejaVuSans-6d" x="675.59375"/>
      <use xlink:href="#DejaVuSans-61" x="773.005859"/>
      <use xlink:href="#DejaVuSans-6c" x="834.285156"/>
      <use xlink:href="#DejaVuSans-69" x="862.068359"/>
      <use xlink:href="#DejaVuSans-7a" x="889.851562"/>
      <use xlink:href="#DejaVuSans-65" x="942.341797"/>
      <use xlink:href="#DejaVuSans-64" x="1003.865234"/>
      <use xlink:href="#DejaVuSans-29" x="1067.341797"/>
     </g>
    </g>
   </g>
   <g id="line2d_9">
    <path d="M 73.832727 73.874596 
L 77.079273 63.229006 
L 80.325818 69.602505 
L 83.572364 71.88184 
L 86.818909 72.822853 
L 90.065455 73.276421 
L 93.312 73.535144 
L 96.558545 73.661314 
L 99.805091 73.757634 
L 103.051636 73.80336 
L 106.298182 73.824072 
L 109.544727 73.844556 
L 112.791273 73.854685 
L 116.037818 73.861149 
L 119.284364 73.866783 
L 122.530909 73.692063 
L 125.777455 43.603836 
L 129.024 43.603836 
L 132.270545 43.603836 
L 135.517091 43.603836 
L 138.763636 43.603836 
L 142.010182 43.603836 
L 145.256727 43.603836 
L 148.503273 43.603836 
L 151.749818 43.603836 
L 154.996364 43.603836 
L 158.242909 43.603836 
L 161.489455 43.603836 
L 164.736 43.603836 
L 167.982545 43.603836 
L 171.229091 46.722739 
L 174.475636 66.974222 
L 177.722182 67.444305 
L 180.968727 68.363748 
L 184.215273 69.280223 
L 187.461818 70.303931 
L 190.708364 71.29875 
L 193.954909 72.037179 
L 197.201455 72.717251 
L 200.448 73.125892 
L 203.694545 73.273545 
L 206.941091 73.612922 
L 210.187636 73.574856 
L 213.434182 73.80945 
L 216.680727 73.820179 
L 219.927273 73.807306 
L 223.173818 73.859786 
L 226.420364 73.877378 
L 229.666909 73.868236 
L 232.913455 73.870763 
L 236.16 73.872555 
L 239.406545 73.872974 
L 242.653091 73.873075 
L 245.899636 73.873176 
L 249.146182 73.873488 
L 252.392727 73.873872 
L 255.639273 73.874278 
L 258.885818 73.874476 
L 262.132364 73.874522 
L 265.378909 73.874564 
L 268.625455 73.971647 
L 271.872 79.532858 
L 275.118545 78.990141 
L 278.365091 78.431006 
L 281.611636 77.560235 
L 284.858182 76.837953 
L 288.104727 76.003439 
L 291.351273 75.393206 
L 294.597818 74.961097 
L 297.844364 74.435278 
L 301.090909 74.313845 
L 304.337455 74.128163 
L 307.584 74.042066 
L 310.830545 73.978627 
L 314.077091 73.939211 
L 317.323636 73.913932 
L 320.570182 73.898048 
L 323.816727 73.8894 
L 327.063273 73.885095 
L 330.309818 73.881545 
L 333.556364 73.878695 
L 336.802909 73.876857 
L 340.049455 73.875948 
L 343.296 73.875215 
L 346.542545 73.874803 
L 349.789091 73.87477 
L 353.035636 73.874611 
L 356.282182 73.874513 
L 359.528727 73.874509 
L 362.775273 73.874418 
L 366.021818 73.874492 
L 369.268364 73.874565 
L 372.514909 73.874569 
L 375.761455 73.874572 
L 379.008 73.874576 
L 382.254545 73.87458 
L 385.501091 73.874583 
L 388.747636 73.874587 
L 391.994182 73.874591 
L 395.240727 73.874594 
L 398.487273 73.874598 
" clip-path="url(#p89b2b36117)" style="fill: none; stroke: #1f77b4; stroke-width: 1.5; stroke-linecap: square"/>
   </g>
   <g id="line2d_10">
    <path d="M 73.832727 73.874596 
L 77.079273 52.708693 
L 80.325818 65.308649 
L 83.572364 69.891304 
L 86.818909 71.771835 
L 90.065455 72.678582 
L 93.312 73.195872 
L 96.558545 73.4481 
L 99.805091 73.640736 
L 103.051636 73.73215 
L 106.298182 73.773576 
L 109.544727 73.814529 
L 112.791273 73.834782 
L 116.037818 73.847709 
L 119.284364 73.858975 
L 122.530909 72.836132 
L 125.777455 43.655692 
L 129.024 43.655692 
L 132.270545 43.655692 
L 135.517091 43.655692 
L 138.763636 43.655692 
L 142.010182 43.655692 
L 145.256727 43.655692 
L 148.503273 43.655692 
L 151.749818 43.655692 
L 154.996364 43.655692 
L 158.242909 43.655692 
L 161.489455 43.655692 
L 164.736 43.655692 
L 167.982545 43.655692 
L 171.229091 56.206161 
L 174.475636 72.620152 
L 177.722182 72.705654 
L 180.968727 72.873387 
L 184.215273 73.039629 
L 187.461818 73.225599 
L 190.708364 73.40633 
L 193.954909 73.540524 
L 197.201455 73.663985 
L 200.448 73.738566 
L 203.694545 73.765345 
L 206.941091 73.826993 
L 210.187636 73.820576 
L 213.434182 73.86207 
L 216.680727 73.864946 
L 219.927273 73.862405 
L 223.173818 73.871826 
L 226.420364 73.874938 
L 229.666909 73.873455 
L 232.913455 73.873904 
L 236.16 73.874225 
L 239.406545 73.874302 
L 242.653091 73.87432 
L 245.899636 73.874338 
L 249.146182 73.874395 
L 252.392727 73.874465 
L 255.639273 73.874538 
L 258.885818 73.874574 
L 262.132364 73.874583 
L 265.378909 73.87459 
L 268.625455 74.071415 
L 271.872 85.267862 
L 275.118545 84.173421 
L 278.365091 83.095763 
L 281.611636 81.308124 
L 284.858182 79.838485 
L 288.104727 78.176909 
L 291.351273 77.003912 
L 294.597818 75.711182 
L 297.844364 75.280354 
L 301.090909 74.694978 
L 304.337455 74.412931 
L 307.584 74.183584 
L 310.830545 74.080217 
L 314.077091 74.001229 
L 317.323636 73.951261 
L 320.570182 73.920474 
L 323.816727 73.903767 
L 327.063273 73.895367 
L 330.309818 73.888185 
L 333.556364 73.882444 
L 336.802909 73.878994 
L 340.049455 73.877272 
L 343.296 73.875907 
L 346.542545 73.87511 
L 349.789091 73.874968 
L 353.035636 73.874642 
L 356.282182 73.874443 
L 359.528727 73.874426 
L 362.775273 73.87424 
L 366.021818 73.874391 
L 369.268364 73.87454 
L 372.514909 73.874546 
L 375.761455 73.874553 
L 379.008 73.87456 
L 382.254545 73.874567 
L 385.501091 73.874573 
L 388.747636 73.87458 
L 391.994182 73.874587 
L 395.240727 73.874594 
L 398.487273 73.8746 
" clip-path="url(#p89b2b36117)" style="fill: none; stroke: #ff7f0e; stroke-width: 1.5; stroke-linecap: square"/>
   </g>
   <g id="line2d_11">
    <path d="M 73.832727 73.874596 
L 77.079273 72.688594 
L 80.325818 73.39791 
L 83.572364 73.653136 
L 86.818909 73.757722 
L 90.065455 73.808126 
L 93.312 73.836877 
L 96.558545 73.850898 
L 99.805091 73.8616 
L 103.051636 73.866681 
L 106.298182 73.868982 
L 109.544727 73.871258 
L 112.791273 73.872383 
L 116.037818 73.873102 
L 119.284364 73.873728 
L 122.530909 74.16615 
L 125.777455 43.557517 
L 129.024 43.557517 
L 132.270545 43.557517 
L 135.517091 43.557517 
L 138.763636 43.557517 
L 142.010182 43.557517 
L 145.256727 43.557517 
L 148.503273 43.557517 
L 151.749818 43.557517 
L 154.996364 43.557517 
L 158.242909 43.557517 
L 161.489455 43.557517 
L 164.736 43.557517 
L 167.982545 43.557517 
L 171.229091 44.259143 
L 174.475636 61.952114 
L 177.722182 62.763396 
L 180.968727 64.340361 
L 184.215273 65.931067 
L 187.461818 67.702567 
L 190.708364 69.423768 
L 193.954909 70.700753 
L 197.201455 71.879019 
L 200.448 72.579432 
L 203.694545 72.836007 
L 206.941091 73.423006 
L 210.187636 73.347694 
L 213.434182 73.775348 
L 216.680727 73.775633 
L 219.927273 73.757609 
L 223.173818 73.850497 
L 226.420364 73.882582 
L 229.666909 73.863301 
L 232.913455 73.867885 
L 236.16 73.871068 
L 239.406545 73.871776 
L 242.653091 73.871959 
L 245.899636 73.872142 
L 249.146182 73.872683 
L 252.392727 73.873348 
L 255.639273 73.874049 
L 258.885818 73.87439 
L 262.132364 73.874469 
L 265.378909 73.874541 
L 268.625455 73.88533 
L 271.872 74.501972 
L 275.118545 74.441883 
L 278.365091 74.379042 
L 281.611636 74.283148 
L 284.858182 74.203195 
L 288.104727 74.110634 
L 291.351273 74.041652 
L 294.597818 74.000837 
L 297.844364 73.932927 
L 301.090909 73.924265 
L 304.337455 73.902399 
L 307.584 73.893571 
L 310.830545 73.886331 
L 314.077091 73.881789 
L 317.323636 73.879003 
L 320.570182 73.877225 
L 323.816727 73.876251 
L 327.063273 73.875767 
L 330.309818 73.875374 
L 333.556364 73.875058 
L 336.802909 73.87485 
L 340.049455 73.874747 
L 343.296 73.874664 
L 346.542545 73.874617 
L 349.789091 73.874615 
L 353.035636 73.874598 
L 356.282182 73.874587 
L 359.528727 73.874586 
L 362.775273 73.874576 
L 366.021818 73.874585 
L 369.268364 73.874593 
L 372.514909 73.874593 
L 375.761455 73.874594 
L 379.008 73.874594 
L 382.254545 73.874594 
L 385.501091 73.874595 
L 388.747636 73.874595 
L 391.994182 73.874596 
L 395.240727 73.874596 
L 398.487273 73.874596 
" clip-path="url(#p89b2b36117)" style="fill: none; stroke: #2ca02c; stroke-width: 1.5; stroke-linecap: square"/>
   </g>
   <g id="patch_3">
    <path d="M 57.6 87.353379 
L 57.6 41.472 
" style="fill: none; stroke: #000000; stroke-width: 0.8; stroke-linejoin: miter; stroke-linecap: square"/>
   </g>
   <g id="patch_4">
    <path d="M 414.72 87.353379 
L 414.72 41.472 
" style="fill: none; stroke: #000000; stroke-width: 0.8; stroke-linejoin: miter; stroke-linecap: square"/>
   </g>
   <g id="patch_5">
    <path d="M 57.6 87.353379 
L 414.72 87.353379 
" style="fill: none; stroke: #000000; stroke-width: 0.8; stroke-linejoin: miter; stroke-linecap: square"/>
   </g>
   <g id="patch_6">
    <path d="M 57.6 41.472 
L 414.72 41.472 
" style="fill: none; stroke: #000000; stroke-width: 0.8; stroke-linejoin: miter; stroke-linecap: square"/>
   </g>
   <g id="text_4">
    <!-- velocity vs time (container 1)   -->
    <g transform="translate(144.106875 35.472)scale(0.12 -0.12)">
     <defs>
      <path id="DejaVuSans-76" d="M 191 3500 
L 800 3500 
L 1894 563 
L 2988 3500 
L 3597 3500 
L 2284 0 
L 1503 0 
L 191 3500 
z
" transform="scale(0.015625)"/>
      <path id="DejaVuSans-63" d="M 3122 3366 
L 3122 2828 
Q 2878 2963 2633 3030 
Q 2388 3097 2138 3097 
Q 1578 3097 1268 2742 
Q 959 2388 959 1747 
Q 959 1106 1268 751 
Q 1578 397 2138 397 
Q 2388 397 2633 464 
Q 2878 531 3122 666 
L 3122 134 
Q 2881 22 2623 -34 
Q 2366 -91 2075 -91 
Q 1284 -91 818 406 
Q 353 903 353 1747 
Q 353 2603 823 3093 
Q 1294 3584 2113 3584 
Q 2378 3584 2631 3529 
Q 2884 3475 3122 3366 
z
" transform="scale(0.015625)"/>
      <path id="DejaVuSans-79" d="M 2059 -325 
Q 1816 -950 1584 -1140 
Q 1353 -1331 966 -1331 
L 506 -1331 
L 506 -850 
L 844 -850 
Q 1081 -850 1212 -737 
Q 1344 -625 1503 -206 
L 1606 56 
L 191 3500 
L 800 3500 
L 1894 763 
L 2988 3500 
L 3597 3500 
L 2059 -325 
z
" transform="scale(0.015625)"/>
      <path id="DejaVuSans-73" d="M 2834 3397 
L 2834 2853 
Q 2591 2978 2328 3040 
Q 2066 3103 1784 3103 
Q 1356 3103 1142 2972 
Q 928 2841 928 2578 
Q 928 2378 1081 2264 
Q 1234 2150 1697 2047 
L 1894 2003 
Q 2506 1872 2764 1633 
Q 3022 1394 3022 966 
Q 3022 478 2636 193 
Q 2250 -91 1575 -91 
Q 1294 -91 989 -36 
Q 684 19 347 128 
L 347 722 
Q 666 556 975 473 
Q 1284 391 1588 391 
Q 1994 391 2212 530 
Q 2431 669 2431 922 
Q 2431 1156 2273 1281 
Q 2116 1406 1581 1522 
L 1381 1569 
Q 847 1681 609 1914 
Q 372 2147 372 2553 
Q 372 3047 722 3315 
Q 1072 3584 1716 3584 
Q 2034 3584 2315 3537 
Q 2597 3491 2834 3397 
z
" transform="scale(0.015625)"/>
     </defs>
     <use xlink:href="#DejaVuSans-76"/>
     <use xlink:href="#DejaVuSans-65" x="59.179688"/>
     <use xlink:href="#DejaVuSans-6c" x="120.703125"/>
     <use xlink:href="#DejaVuSans-6f" x="148.486328"/>
     <use xlink:href="#DejaVuSans-63" x="209.667969"/>
     <use xlink:href="#DejaVuSans-69" x="264.648438"/>
     <use xlink:href="#DejaVuSans-74" x="292.431641"/>
     <use xlink:href="#DejaVuSans-79" x="331.640625"/>
     <use xlink:href="#DejaVuSans-20" x="390.820312"/>
     <use xlink:href="#DejaVuSans-76" x="422.607422"/>
     <use xlink:href="#DejaVuSans-73" x="481.787109"/>
     <use xlink:href="#DejaVuSans-20" x="533.886719"/>
     <use xlink:href="#DejaVuSans-74" x="565.673828"/>
     <use xlink:href="#DejaVuSans-69" x="604.882812"/>
     <use xlink:href="#DejaVuSans-6d" x="632.666016"/>
     <use xlink:href="#DejaVuSans-65" x="730.078125"/>
     <use xlink:href="#DejaVuSans-20" x="791.601562"/>
     <use xlink:href="#DejaVuSans-28" x="823.388672"/>
     <use xlink:href="#DejaVuSans-63" x="862.402344"/>
     <use xlink:href="#DejaVuSans-6f" x="917.382812"/>
     <use xlink:href="#DejaVuSans-6e" x="978.564453"/>
     <use xlink:href="#DejaVuSans-74" x="1041.943359"/>
     <use xlink:href="#DejaVuSans-61" x="1081.152344"/>
     <use xlink:href="#DejaVuSans-69" x="1142.431641"/>
     <use xlink:href="#DejaVuSans-6e" x="1170.214844"/>
     <use xlink:href="#DejaVuSans-65" x="1233.59375"/>
     <use xlink:href="#DejaVuSans-72" x="1295.117188"/>
     <use xlink:href="#DejaVuSans-20" x="1336.230469"/>
     <use xlink:href="#DejaVuSans-31" x="1368.017578"/>
     <use xlink:href="#DejaVuSans-29" x="1431.640625"/>
     <use xlink:href="#DejaVuSans-20" x="1470.654297"/>
     <use xlink:href="#DejaVuSans-20" x="1502.441406"/>
    </g>
   </g>
   <g id="legend_1">
    <g id="patch_7">
     <path d="M 64.6 93.506375 
L 139.240625 93.506375 
Q 141.240625 93.506375 141.240625 91.506375 
L 141.240625 48.472 
Q 141.240625 46.472 139.240625 46.472 
L 64.6 46.472 
Q 62.6 46.472 62.6 48.472 
L 62.6 91.506375 
Q 62.6 93.506375 64.6 93.506375 
z
" style="fill: #ffffff; opacity: 0.8; stroke: #cccccc; stroke-linejoin: miter"/>
    </g>
    <g id="line2d_12">
     <path d="M 66.6 54.570437 
L 76.6 54.570437 
L 86.6 54.570437 
" style="fill: none; stroke: #1f77b4; stroke-width: 1.5; stroke-linecap: square"/>
    </g>
    <g id="text_5">
     <!-- mid flow -->
     <g transform="translate(94.6 58.070437)scale(0.1 -0.1)">
      <use xlink:href="#DejaVuSans-6d"/>
      <use xlink:href="#DejaVuSans-69" x="97.412109"/>
      <use xlink:href="#DejaVuSans-64" x="125.195312"/>
      <use xlink:href="#DejaVuSans-20" x="188.671875"/>
      <use xlink:href="#DejaVuSans-66" x="220.458984"/>
      <use xlink:href="#DejaVuSans-6c" x="255.664062"/>
      <use xlink:href="#DejaVuSans-6f" x="283.447266"/>
      <use xlink:href="#DejaVuSans-77" x="344.628906"/>
     </g>
    </g>
    <g id="line2d_13">
     <path d="M 66.6 69.248562 
L 76.6 69.248562 
L 86.6 69.248562 
" style="fill: none; stroke: #ff7f0e; stroke-width: 1.5; stroke-linecap: square"/>
    </g>
    <g id="text_6">
     <!-- v0 flow -->
     <g transform="translate(94.6 72.748562)scale(0.1 -0.1)">
      <use xlink:href="#DejaVuSans-76"/>
      <use xlink:href="#DejaVuSans-30" x="59.179688"/>
      <use xlink:href="#DejaVuSans-20" x="122.802734"/>
      <use xlink:href="#DejaVuSans-66" x="154.589844"/>
      <use xlink:href="#DejaVuSans-6c" x="189.794922"/>
      <use xlink:href="#DejaVuSans-6f" x="217.578125"/>
      <use xlink:href="#DejaVuSans-77" x="278.759766"/>
     </g>
    </g>
    <g id="line2d_14">
     <path d="M 66.6 83.926687 
L 76.6 83.926687 
L 86.6 83.926687 
" style="fill: none; stroke: #2ca02c; stroke-width: 1.5; stroke-linecap: square"/>
    </g>
    <g id="text_7">
     <!-- vN flow -->
     <g transform="translate(94.6 87.426687)scale(0.1 -0.1)">
      <defs>
       <path id="DejaVuSans-4e" d="M 628 4666 
L 1478 4666 
L 3547 763 
L 3547 4666 
L 4159 4666 
L 4159 0 
L 3309 0 
L 1241 3903 
L 1241 0 
L 628 0 
L 628 4666 
z
" transform="scale(0.015625)"/>
      </defs>
      <use xlink:href="#DejaVuSans-76"/>
      <use xlink:href="#DejaVuSans-4e" x="59.179688"/>
      <use xlink:href="#DejaVuSans-20" x="133.984375"/>
      <use xlink:href="#DejaVuSans-66" x="165.771484"/>
      <use xlink:href="#DejaVuSans-6c" x="200.976562"/>
      <use xlink:href="#DejaVuSans-6f" x="228.759766"/>
      <use xlink:href="#DejaVuSans-77" x="289.941406"/>
     </g>
    </g>
   </g>
  </g>
  <g id="axes_2">
   <g id="patch_8">
    <path d="M 57.6 142.411034 
L 414.72 142.411034 
L 414.72 96.529655 
L 57.6 96.529655 
z
" style="fill: #ffffff"/>
   </g>
   <g id="matplotlib.axis_3">
    <g id="xtick_7">
     <g id="line2d_15">
      <g>
       <use xlink:href="#m07ee0150d8" x="73.832727" y="142.411034" style="stroke: #000000; stroke-width: 0.8"/>
      </g>
     </g>
    </g>
    <g id="xtick_8">
     <g id="line2d_16">
      <g>
       <use xlink:href="#m07ee0150d8" x="138.763636" y="142.411034" style="stroke: #000000; stroke-width: 0.8"/>
      </g>
     </g>
    </g>
    <g id="xtick_9">
     <g id="line2d_17">
      <g>
       <use xlink:href="#m07ee0150d8" x="203.694545" y="142.411034" style="stroke: #000000; stroke-width: 0.8"/>
      </g>
     </g>
    </g>
    <g id="xtick_10">
     <g id="line2d_18">
      <g>
       <use xlink:href="#m07ee0150d8" x="268.625455" y="142.411034" style="stroke: #000000; stroke-width: 0.8"/>
      </g>
     </g>
    </g>
    <g id="xtick_11">
     <g id="line2d_19">
      <g>
       <use xlink:href="#m07ee0150d8" x="333.556364" y="142.411034" style="stroke: #000000; stroke-width: 0.8"/>
      </g>
     </g>
    </g>
    <g id="xtick_12">
     <g id="line2d_20">
      <g>
       <use xlink:href="#m07ee0150d8" x="398.487273" y="142.411034" style="stroke: #000000; stroke-width: 0.8"/>
      </g>
     </g>
    </g>
   </g>
   <g id="matplotlib.axis_4">
    <g id="ytick_3">
     <g id="line2d_21">
      <g>
       <use xlink:href="#m74472c6530" x="57.6" y="140.745252" style="stroke: #000000; stroke-width: 0.8"/>
      </g>
     </g>
     <g id="text_8">
      <!-- 0 -->
      <g transform="translate(44.2375 144.544471)scale(0.1 -0.1)">
       <use xlink:href="#DejaVuSans-30"/>
      </g>
     </g>
    </g>
    <g id="ytick_4">
     <g id="line2d_22">
      <g>
       <use xlink:href="#m74472c6530" x="57.6" y="98.771642" style="stroke: #000000; stroke-width: 0.8"/>
      </g>
     </g>
     <g id="text_9">
      <!-- 1 -->
      <g transform="translate(44.2375 102.570861)scale(0.1 -0.1)">
       <use xlink:href="#DejaVuSans-31"/>
      </g>
     </g>
    </g>
   </g>
   <g id="line2d_23">
    <path d="M 73.832727 140.325516 
L 77.079273 123.978968 
L 80.325818 114.060856 
L 83.572364 108.05467 
L 86.818909 104.395667 
L 90.065455 102.182338 
L 93.312 100.844667 
L 96.558545 100.027543 
L 99.805091 99.52978 
L 103.051636 99.233206 
L 106.298182 99.052493 
L 109.544727 98.942004 
L 112.791273 98.875835 
L 116.037818 98.837844 
L 119.284364 98.809682 
L 122.530909 98.792034 
L 125.777455 98.615172 
L 129.024 98.615172 
L 132.270545 98.615172 
L 135.517091 98.615172 
L 138.763636 98.615172 
L 142.010182 98.615172 
L 145.256727 98.615172 
L 148.503273 98.615172 
L 151.749818 98.615172 
L 154.996364 98.615172 
L 158.242909 98.615172 
L 161.489455 98.615172 
L 164.736 98.615172 
L 167.982545 98.615172 
L 171.229091 98.642653 
L 174.475636 113.601837 
L 177.722182 122.625636 
L 180.968727 128.091124 
L 184.215273 131.414802 
L 187.461818 133.432214 
L 190.708364 134.65663 
L 193.954909 135.40035 
L 197.201455 135.852237 
L 200.448 136.124809 
L 203.694545 136.290588 
L 206.941091 136.392355 
L 210.187636 136.453191 
L 213.434182 136.491574 
L 216.680727 136.512889 
L 219.927273 136.526738 
L 223.173818 136.535218 
L 226.420364 136.54046 
L 229.666909 136.543303 
L 232.913455 136.545078 
L 236.16 136.546364 
L 239.406545 136.546753 
L 242.653091 136.547105 
L 245.899636 136.547457 
L 249.146182 136.547618 
L 252.392727 136.547713 
L 255.639273 136.547804 
L 258.885818 136.547838 
L 262.132364 136.547859 
L 265.378909 136.547873 
L 268.625455 136.556726 
L 271.872 138.031872 
L 275.118545 138.934821 
L 278.365091 139.481359 
L 281.611636 139.813342 
L 284.858182 140.014918 
L 288.104727 140.136997 
L 291.351273 140.211402 
L 294.597818 140.256053 
L 297.844364 140.283453 
L 301.090909 140.29993 
L 304.337455 140.310019 
L 307.584 140.316104 
L 310.830545 140.319792 
L 314.077091 140.322038 
L 317.323636 140.32341 
L 320.570182 140.324239 
L 323.816727 140.324726 
L 327.063273 140.325043 
L 330.309818 140.325226 
L 333.556364 140.32534 
L 336.802909 140.325416 
L 340.049455 140.325452 
L 343.296 140.325475 
L 346.542545 140.325492 
L 349.789091 140.325502 
L 353.035636 140.325509 
L 356.282182 140.325513 
L 359.528727 140.325513 
L 362.775273 140.325516 
L 366.021818 140.325516 
L 369.268364 140.325515 
L 372.514909 140.325515 
L 375.761455 140.325515 
L 379.008 140.325515 
L 382.254545 140.325515 
L 385.501091 140.325515 
L 388.747636 140.325516 
L 391.994182 140.325516 
L 395.240727 140.325516 
L 398.487273 140.325516 
" clip-path="url(#pb8af2c43d9)" style="fill: none; stroke: #1f77b4; stroke-width: 1.5; stroke-linecap: square"/>
   </g>
   <g id="line2d_24">
    <path d="M 73.832727 140.325516 
L 77.079273 124.024268 
L 80.325818 114.079133 
L 83.572364 108.063179 
L 86.818909 104.400158 
L 90.065455 102.184892 
L 93.312 100.846117 
L 96.558545 100.028454 
L 99.805091 99.53028 
L 103.051636 99.23351 
L 106.298182 99.052708 
L 109.544727 98.942133 
L 112.791273 98.87592 
L 116.037818 98.837901 
L 119.284364 98.809716 
L 122.530909 98.793765 
L 125.777455 98.69534 
L 129.024 98.69534 
L 132.270545 98.69534 
L 135.517091 98.69534 
L 138.763636 98.69534 
L 142.010182 98.69534 
L 145.256727 98.69534 
L 148.503273 98.69534 
L 151.749818 98.69534 
L 154.996364 98.69534 
L 158.242909 98.69534 
L 161.489455 98.69534 
L 164.736 98.69534 
L 167.982545 98.69534 
L 171.229091 98.701436 
L 174.475636 113.610983 
L 177.722182 122.634159 
L 180.968727 128.098426 
L 184.215273 131.420891 
L 187.461818 133.436946 
L 190.708364 134.660044 
L 193.954909 135.402785 
L 197.201455 135.853772 
L 200.448 136.125801 
L 203.694545 136.291384 
L 206.941091 136.392701 
L 210.187636 136.453586 
L 213.434182 136.491663 
L 216.680727 136.512961 
L 219.927273 136.526827 
L 223.173818 136.535238 
L 226.420364 136.540457 
L 229.666909 136.543311 
L 232.913455 136.545083 
L 236.16 136.546367 
L 239.406545 136.546755 
L 242.653091 136.547107 
L 245.899636 136.547459 
L 249.146182 136.54762 
L 252.392727 136.547714 
L 255.639273 136.547804 
L 258.885818 136.547838 
L 262.132364 136.54786 
L 265.378909 136.547874 
L 268.625455 136.556308 
L 271.872 138.0076 
L 275.118545 138.91288 
L 278.365091 139.461751 
L 281.611636 139.797516 
L 284.858182 140.00221 
L 288.104727 140.127847 
L 291.351273 140.204791 
L 294.597818 140.251861 
L 297.844364 140.280686 
L 301.090909 140.298133 
L 304.337455 140.308895 
L 307.584 140.315424 
L 310.830545 140.319353 
L 314.077091 140.321765 
L 317.323636 140.323245 
L 320.570182 140.32414 
L 323.816727 140.324664 
L 327.063273 140.324999 
L 330.309818 140.325197 
L 333.556364 140.325323 
L 336.802909 140.325407 
L 340.049455 140.325446 
L 343.296 140.325473 
L 346.542545 140.325491 
L 349.789091 140.325501 
L 353.035636 140.325509 
L 356.282182 140.325513 
L 359.528727 140.325513 
L 362.775273 140.325517 
L 366.021818 140.325516 
L 369.268364 140.325515 
L 372.514909 140.325515 
L 375.761455 140.325515 
L 379.008 140.325515 
L 382.254545 140.325515 
L 385.501091 140.325516 
L 388.747636 140.325516 
L 391.994182 140.325516 
L 395.240727 140.325516 
L 398.487273 140.325516 
" clip-path="url(#pb8af2c43d9)" style="fill: none; stroke: #ff7f0e; stroke-width: 1.5; stroke-linecap: square"/>
   </g>
   <g id="line2d_25">
    <path d="M 73.832727 140.325516 
L 77.079273 124.038391 
L 80.325818 114.084792 
L 83.572364 108.065821 
L 86.818909 104.401552 
L 90.065455 102.185685 
L 93.312 100.846567 
L 96.558545 100.028737 
L 99.805091 99.530435 
L 103.051636 99.233604 
L 106.298182 99.052775 
L 109.544727 98.942173 
L 112.791273 98.875946 
L 116.037818 98.837919 
L 119.284364 98.809726 
L 122.530909 98.793646 
L 125.777455 98.767622 
L 129.024 98.767622 
L 132.270545 98.767622 
L 135.517091 98.767622 
L 138.763636 98.767622 
L 142.010182 98.767622 
L 145.256727 98.767622 
L 148.503273 98.767622 
L 151.749818 98.767622 
L 154.996364 98.767622 
L 158.242909 98.767622 
L 161.489455 98.767622 
L 164.736 98.767622 
L 167.982545 98.767622 
L 171.229091 98.769589 
L 174.475636 113.633439 
L 177.722182 122.655085 
L 180.968727 128.116372 
L 184.215273 131.435847 
L 187.461818 133.448568 
L 190.708364 134.668426 
L 193.954909 135.408764 
L 197.201455 135.857534 
L 200.448 136.128239 
L 203.694545 136.29334 
L 206.941091 136.393552 
L 210.187636 136.454571 
L 213.434182 136.491862 
L 216.680727 136.513142 
L 219.927273 136.527047 
L 223.173818 136.535284 
L 226.420364 136.540445 
L 229.666909 136.543332 
L 232.913455 136.545096 
L 236.16 136.546374 
L 239.406545 136.54676 
L 242.653091 136.547112 
L 245.899636 136.547464 
L 249.146182 136.547623 
L 252.392727 136.547717 
L 255.639273 136.547805 
L 258.885818 136.547838 
L 262.132364 136.54786 
L 265.378909 136.547874 
L 268.625455 136.556179 
L 271.872 138.000107 
L 275.118545 138.906105 
L 278.365091 139.455721 
L 281.611636 139.792636 
L 284.858182 139.998285 
L 288.104727 140.125028 
L 291.351273 140.202787 
L 294.597818 140.250391 
L 297.844364 140.279965 
L 301.090909 140.297546 
L 304.337455 140.308561 
L 307.584 140.3152 
L 310.830545 140.319214 
L 314.077091 140.32168 
L 317.323636 140.323193 
L 320.570182 140.324109 
L 323.816727 140.324644 
L 327.063273 140.324985 
L 330.309818 140.325188 
L 333.556364 140.325317 
L 336.802909 140.325404 
L 340.049455 140.325444 
L 343.296 140.325472 
L 346.542545 140.32549 
L 349.789091 140.325501 
L 353.035636 140.325509 
L 356.282182 140.325514 
L 359.528727 140.325513 
L 362.775273 140.325517 
L 366.021818 140.325516 
L 369.268364 140.325515 
L 372.514909 140.325515 
L 375.761455 140.325515 
L 379.008 140.325515 
L 382.254545 140.325515 
L 385.501091 140.325516 
L 388.747636 140.325516 
L 391.994182 140.325516 
L 395.240727 140.325516 
L 398.487273 140.325516 
" clip-path="url(#pb8af2c43d9)" style="fill: none; stroke: #2ca02c; stroke-width: 1.5; stroke-linecap: square"/>
   </g>
   <g id="patch_9">
    <path d="M 57.6 142.411034 
L 57.6 96.529655 
" style="fill: none; stroke: #000000; stroke-width: 0.8; stroke-linejoin: miter; stroke-linecap: square"/>
   </g>
   <g id="patch_10">
    <path d="M 414.72 142.411034 
L 414.72 96.529655 
" style="fill: none; stroke: #000000; stroke-width: 0.8; stroke-linejoin: miter; stroke-linecap: square"/>
   </g>
   <g id="patch_11">
    <path d="M 57.6 142.411034 
L 414.72 142.411034 
" style="fill: none; stroke: #000000; stroke-width: 0.8; stroke-linejoin: miter; stroke-linecap: square"/>
   </g>
   <g id="patch_12">
    <path d="M 57.6 96.529655 
L 414.72 96.529655 
" style="fill: none; stroke: #000000; stroke-width: 0.8; stroke-linejoin: miter; stroke-linecap: square"/>
   </g>
   <g id="text_10">
    <!-- Pressure -->
    <g transform="translate(210.546562 90.529655)scale(0.12 -0.12)">
     <defs>
      <path id="DejaVuSans-50" d="M 1259 4147 
L 1259 2394 
L 2053 2394 
Q 2494 2394 2734 2622 
Q 2975 2850 2975 3272 
Q 2975 3691 2734 3919 
Q 2494 4147 2053 4147 
L 1259 4147 
z
M 628 4666 
L 2053 4666 
Q 2838 4666 3239 4311 
Q 3641 3956 3641 3272 
Q 3641 2581 3239 2228 
Q 2838 1875 2053 1875 
L 1259 1875 
L 1259 0 
L 628 0 
L 628 4666 
z
" transform="scale(0.015625)"/>
      <path id="DejaVuSans-75" d="M 544 1381 
L 544 3500 
L 1119 3500 
L 1119 1403 
Q 1119 906 1312 657 
Q 1506 409 1894 409 
Q 2359 409 2629 706 
Q 2900 1003 2900 1516 
L 2900 3500 
L 3475 3500 
L 3475 0 
L 2900 0 
L 2900 538 
Q 2691 219 2414 64 
Q 2138 -91 1772 -91 
Q 1169 -91 856 284 
Q 544 659 544 1381 
z
M 1991 3584 
L 1991 3584 
z
" transform="scale(0.015625)"/>
     </defs>
     <use xlink:href="#DejaVuSans-50"/>
     <use xlink:href="#DejaVuSans-72" x="58.552734"/>
     <use xlink:href="#DejaVuSans-65" x="97.416016"/>
     <use xlink:href="#DejaVuSans-73" x="158.939453"/>
     <use xlink:href="#DejaVuSans-73" x="211.039062"/>
     <use xlink:href="#DejaVuSans-75" x="263.138672"/>
     <use xlink:href="#DejaVuSans-72" x="326.517578"/>
     <use xlink:href="#DejaVuSans-65" x="365.380859"/>
    </g>
   </g>
   <g id="legend_2">
    <g id="patch_13">
     <path d="M 350.823125 137.411034 
L 407.72 137.411034 
Q 409.72 137.411034 409.72 135.411034 
L 409.72 92.376659 
Q 409.72 90.376659 407.72 90.376659 
L 350.823125 90.376659 
Q 348.823125 90.376659 348.823125 92.376659 
L 348.823125 135.411034 
Q 348.823125 137.411034 350.823125 137.411034 
z
" style="fill: #ffffff; opacity: 0.8; stroke: #cccccc; stroke-linejoin: miter"/>
    </g>
    <g id="line2d_26">
     <path d="M 352.823125 98.475097 
L 362.823125 98.475097 
L 372.823125 98.475097 
" style="fill: none; stroke: #1f77b4; stroke-width: 1.5; stroke-linecap: square"/>
    </g>
    <g id="text_11">
     <!-- P1 -->
     <g transform="translate(380.823125 101.975097)scale(0.1 -0.1)">
      <use xlink:href="#DejaVuSans-50"/>
      <use xlink:href="#DejaVuSans-31" x="60.302734"/>
     </g>
    </g>
    <g id="line2d_27">
     <path d="M 352.823125 113.153222 
L 362.823125 113.153222 
L 372.823125 113.153222 
" style="fill: none; stroke: #ff7f0e; stroke-width: 1.5; stroke-linecap: square"/>
    </g>
    <g id="text_12">
     <!-- Pmid -->
     <g transform="translate(380.823125 116.653222)scale(0.1 -0.1)">
      <use xlink:href="#DejaVuSans-50"/>
      <use xlink:href="#DejaVuSans-6d" x="60.302734"/>
      <use xlink:href="#DejaVuSans-69" x="157.714844"/>
      <use xlink:href="#DejaVuSans-64" x="185.498047"/>
     </g>
    </g>
    <g id="line2d_28">
     <path d="M 352.823125 127.831347 
L 362.823125 127.831347 
L 372.823125 127.831347 
" style="fill: none; stroke: #2ca02c; stroke-width: 1.5; stroke-linecap: square"/>
    </g>
    <g id="text_13">
     <!-- PN -->
     <g transform="translate(380.823125 131.331347)scale(0.1 -0.1)">
      <use xlink:href="#DejaVuSans-50"/>
      <use xlink:href="#DejaVuSans-4e" x="60.302734"/>
     </g>
    </g>
   </g>
  </g>
  <g id="axes_3">
   <g id="patch_14">
    <path d="M 57.6 197.46869 
L 414.72 197.46869 
L 414.72 151.58731 
L 57.6 151.58731 
z
" style="fill: #ffffff"/>
   </g>
   <g id="matplotlib.axis_5">
    <g id="xtick_13">
     <g id="line2d_29">
      <g>
       <use xlink:href="#m07ee0150d8" x="73.832727" y="197.46869" style="stroke: #000000; stroke-width: 0.8"/>
      </g>
     </g>
    </g>
    <g id="xtick_14">
     <g id="line2d_30">
      <g>
       <use xlink:href="#m07ee0150d8" x="138.763636" y="197.46869" style="stroke: #000000; stroke-width: 0.8"/>
      </g>
     </g>
    </g>
    <g id="xtick_15">
     <g id="line2d_31">
      <g>
       <use xlink:href="#m07ee0150d8" x="203.694545" y="197.46869" style="stroke: #000000; stroke-width: 0.8"/>
      </g>
     </g>
    </g>
    <g id="xtick_16">
     <g id="line2d_32">
      <g>
       <use xlink:href="#m07ee0150d8" x="268.625455" y="197.46869" style="stroke: #000000; stroke-width: 0.8"/>
      </g>
     </g>
    </g>
    <g id="xtick_17">
     <g id="line2d_33">
      <g>
       <use xlink:href="#m07ee0150d8" x="333.556364" y="197.46869" style="stroke: #000000; stroke-width: 0.8"/>
      </g>
     </g>
    </g>
    <g id="xtick_18">
     <g id="line2d_34">
      <g>
       <use xlink:href="#m07ee0150d8" x="398.487273" y="197.46869" style="stroke: #000000; stroke-width: 0.8"/>
      </g>
     </g>
    </g>
   </g>
   <g id="matplotlib.axis_6">
    <g id="ytick_5">
     <g id="line2d_35">
      <g>
       <use xlink:href="#m74472c6530" x="57.6" y="190.94993" style="stroke: #000000; stroke-width: 0.8"/>
      </g>
     </g>
     <g id="text_14">
      <!-- 0.0499 -->
      <g transform="translate(15.609375 194.749149)scale(0.1 -0.1)">
       <defs>
        <path id="DejaVuSans-2e" d="M 684 794 
L 1344 794 
L 1344 0 
L 684 0 
L 684 794 
z
" transform="scale(0.015625)"/>
        <path id="DejaVuSans-34" d="M 2419 4116 
L 825 1625 
L 2419 1625 
L 2419 4116 
z
M 2253 4666 
L 3047 4666 
L 3047 1625 
L 3713 1625 
L 3713 1100 
L 3047 1100 
L 3047 0 
L 2419 0 
L 2419 1100 
L 313 1100 
L 313 1709 
L 2253 4666 
z
" transform="scale(0.015625)"/>
        <path id="DejaVuSans-39" d="M 703 97 
L 703 672 
Q 941 559 1184 500 
Q 1428 441 1663 441 
Q 2288 441 2617 861 
Q 2947 1281 2994 2138 
Q 2813 1869 2534 1725 
Q 2256 1581 1919 1581 
Q 1219 1581 811 2004 
Q 403 2428 403 3163 
Q 403 3881 828 4315 
Q 1253 4750 1959 4750 
Q 2769 4750 3195 4129 
Q 3622 3509 3622 2328 
Q 3622 1225 3098 567 
Q 2575 -91 1691 -91 
Q 1453 -91 1209 -44 
Q 966 3 703 97 
z
M 1959 2075 
Q 2384 2075 2632 2365 
Q 2881 2656 2881 3163 
Q 2881 3666 2632 3958 
Q 2384 4250 1959 4250 
Q 1534 4250 1286 3958 
Q 1038 3666 1038 3163 
Q 1038 2656 1286 2365 
Q 1534 2075 1959 2075 
z
" transform="scale(0.015625)"/>
       </defs>
       <use xlink:href="#DejaVuSans-30"/>
       <use xlink:href="#DejaVuSans-2e" x="63.623047"/>
       <use xlink:href="#DejaVuSans-30" x="95.410156"/>
       <use xlink:href="#DejaVuSans-34" x="159.033203"/>
       <use xlink:href="#DejaVuSans-39" x="222.65625"/>
       <use xlink:href="#DejaVuSans-39" x="286.279297"/>
      </g>
     </g>
    </g>
    <g id="ytick_6">
     <g id="line2d_36">
      <g>
       <use xlink:href="#m74472c6530" x="57.6" y="176.218973" style="stroke: #000000; stroke-width: 0.8"/>
      </g>
     </g>
     <g id="text_15">
      <!-- 0.0500 -->
      <g transform="translate(15.609375 180.018191)scale(0.1 -0.1)">
       <defs>
        <path id="DejaVuSans-35" d="M 691 4666 
L 3169 4666 
L 3169 4134 
L 1269 4134 
L 1269 2991 
Q 1406 3038 1543 3061 
Q 1681 3084 1819 3084 
Q 2600 3084 3056 2656 
Q 3513 2228 3513 1497 
Q 3513 744 3044 326 
Q 2575 -91 1722 -91 
Q 1428 -91 1123 -41 
Q 819 9 494 109 
L 494 744 
Q 775 591 1075 516 
Q 1375 441 1709 441 
Q 2250 441 2565 725 
Q 2881 1009 2881 1497 
Q 2881 1984 2565 2268 
Q 2250 2553 1709 2553 
Q 1456 2553 1204 2497 
Q 953 2441 691 2322 
L 691 4666 
z
" transform="scale(0.015625)"/>
       </defs>
       <use xlink:href="#DejaVuSans-30"/>
       <use xlink:href="#DejaVuSans-2e" x="63.623047"/>
       <use xlink:href="#DejaVuSans-30" x="95.410156"/>
       <use xlink:href="#DejaVuSans-35" x="159.033203"/>
       <use xlink:href="#DejaVuSans-30" x="222.65625"/>
       <use xlink:href="#DejaVuSans-30" x="286.279297"/>
      </g>
     </g>
    </g>
    <g id="ytick_7">
     <g id="line2d_37">
      <g>
       <use xlink:href="#m74472c6530" x="57.6" y="161.488016" style="stroke: #000000; stroke-width: 0.8"/>
      </g>
     </g>
     <g id="text_16">
      <!-- 0.0501 -->
      <g transform="translate(15.609375 165.287234)scale(0.1 -0.1)">
       <use xlink:href="#DejaVuSans-30"/>
       <use xlink:href="#DejaVuSans-2e" x="63.623047"/>
       <use xlink:href="#DejaVuSans-30" x="95.410156"/>
       <use xlink:href="#DejaVuSans-35" x="159.033203"/>
       <use xlink:href="#DejaVuSans-30" x="222.65625"/>
       <use xlink:href="#DejaVuSans-31" x="286.279297"/>
      </g>
     </g>
    </g>
    <g id="text_17">
     <!-- fraction -->
     <g transform="translate(9.529687 193.73425)rotate(-90)scale(0.1 -0.1)">
      <use xlink:href="#DejaVuSans-66"/>
      <use xlink:href="#DejaVuSans-72" x="35.205078"/>
      <use xlink:href="#DejaVuSans-61" x="76.318359"/>
      <use xlink:href="#DejaVuSans-63" x="137.597656"/>
      <use xlink:href="#DejaVuSans-74" x="192.578125"/>
      <use xlink:href="#DejaVuSans-69" x="231.787109"/>
      <use xlink:href="#DejaVuSans-6f" x="259.570312"/>
      <use xlink:href="#DejaVuSans-6e" x="320.751953"/>
     </g>
    </g>
   </g>
   <g id="line2d_38">
    <path d="M 73.832727 175.317487 
L 77.079273 176.220444 
L 80.325818 181.768358 
L 83.572364 195.383172 
L 86.818909 175.852514 
L 90.065455 168.171746 
L 93.312 153.680878 
L 96.558545 153.672828 
L 99.805091 153.869581 
L 103.051636 161.093718 
L 106.298182 194.011538 
L 109.544727 192.578904 
L 112.791273 191.321954 
L 116.037818 191.440804 
L 119.284364 191.665053 
L 122.530909 190.399102 
L 125.777455 176.25334 
L 129.024 176.23734 
L 132.270545 176.230089 
L 135.517091 176.226469 
L 138.763636 176.224371 
L 142.010182 176.223572 
L 145.256727 176.222773 
L 148.503273 176.221974 
L 151.749818 176.221175 
L 154.996364 176.220376 
L 158.242909 176.219784 
L 161.489455 176.219467 
L 164.736 176.219257 
L 167.982545 176.219143 
L 171.229091 176.219069 
L 174.475636 176.220382 
L 177.722182 176.220537 
L 180.968727 176.219236 
L 184.215273 176.216188 
L 187.461818 176.211436 
L 190.708364 176.205591 
L 193.954909 176.199614 
L 197.201455 176.194355 
L 200.448 176.190234 
L 203.694545 176.187306 
L 206.941091 176.185296 
L 210.187636 176.183971 
L 213.434182 176.183108 
L 216.680727 176.182558 
L 219.927273 176.182215 
L 223.173818 176.181977 
L 226.420364 176.181815 
L 229.666909 176.181716 
L 232.913455 176.181674 
L 236.16 176.181625 
L 239.406545 176.181573 
L 242.653091 176.181527 
L 245.899636 176.181481 
L 249.146182 176.181449 
L 252.392727 176.181422 
L 255.639273 176.181395 
L 258.885818 176.181369 
L 262.132364 176.181346 
L 265.378909 176.181325 
L 268.625455 176.181267 
L 271.872 176.163262 
L 275.118545 176.111475 
L 278.365091 176.026072 
L 281.611636 175.912568 
L 284.858182 175.784778 
L 288.104727 175.661157 
L 291.351273 175.555789 
L 294.597818 175.475872 
L 297.844364 175.41761 
L 301.090909 175.380194 
L 304.337455 175.35533 
L 307.584 175.339736 
L 310.830545 175.329996 
L 314.077091 175.324027 
L 317.323636 175.320264 
L 320.570182 175.318041 
L 323.816727 175.316765 
L 327.063273 175.315945 
L 330.309818 175.315416 
L 333.556364 175.31507 
L 336.802909 175.314869 
L 340.049455 175.314777 
L 343.296 175.314711 
L 346.542545 175.314662 
L 349.789091 175.314626 
L 353.035636 175.314601 
L 356.282182 175.314588 
L 359.528727 175.314587 
L 362.775273 175.314576 
L 366.021818 175.314572 
L 369.268364 175.314569 
L 372.514909 175.314564 
L 375.761455 175.314559 
L 379.008 175.314554 
L 382.254545 175.314549 
L 385.501091 175.314544 
L 388.747636 175.314539 
L 391.994182 175.314534 
L 395.240727 175.314529 
L 398.487273 175.314524 
" clip-path="url(#pdae00b0918)" style="fill: none; stroke: #1f77b4; stroke-width: 1.5; stroke-linecap: square"/>
   </g>
   <g id="line2d_39">
    <path d="M 73.832727 175.319482 
L 77.079273 176.023369 
L 80.325818 176.114577 
L 83.572364 176.14913 
L 86.818909 176.16723 
L 90.065455 176.178502 
L 93.312 176.186445 
L 96.558545 176.192423 
L 99.805091 176.197198 
L 103.051636 176.201107 
L 106.298182 176.204287 
L 109.544727 176.207079 
L 112.791273 176.209509 
L 116.037818 176.211652 
L 119.284364 176.213689 
L 122.530909 176.215619 
L 125.777455 178.10338 
L 129.024 177.152403 
L 132.270545 176.536078 
L 135.517091 176.376034 
L 138.763636 176.295526 
L 142.010182 176.282908 
L 145.256727 176.270289 
L 148.503273 176.25767 
L 151.749818 176.245052 
L 154.996364 176.232433 
L 158.242909 176.22563 
L 161.489455 176.223017 
L 164.736 176.221332 
L 167.982545 176.220406 
L 171.229091 176.219795 
L 174.475636 176.219695 
L 177.722182 176.219087 
L 180.968727 176.217453 
L 184.215273 176.214224 
L 187.461818 176.209368 
L 190.708364 176.2035 
L 193.954909 176.197558 
L 197.201455 176.192362 
L 200.448 176.188325 
L 203.694545 176.185468 
L 206.941091 176.183526 
L 210.187636 176.182257 
L 213.434182 176.181455 
L 216.680727 176.180955 
L 219.927273 176.180642 
L 223.173818 176.180452 
L 226.420364 176.180326 
L 229.666909 176.180245 
L 232.913455 176.180195 
L 236.16 176.180162 
L 239.406545 176.180158 
L 242.653091 176.180156 
L 245.899636 176.180154 
L 249.146182 176.180151 
L 252.392727 176.180147 
L 255.639273 176.180144 
L 258.885818 176.180147 
L 262.132364 176.180147 
L 265.378909 176.180148 
L 268.625455 176.180116 
L 271.872 176.163763 
L 275.118545 176.113111 
L 278.365091 176.029823 
L 281.611636 175.919382 
L 284.858182 175.794645 
L 288.104727 175.672222 
L 291.351273 175.565988 
L 294.597818 175.483986 
L 297.844364 175.421815 
L 301.090909 175.382653 
L 304.337455 175.355924 
L 307.584 175.338985 
L 310.830545 175.328521 
L 314.077091 175.32197 
L 317.323636 175.317816 
L 320.570182 175.315398 
L 323.816727 175.314008 
L 327.063273 175.313119 
L 330.309818 175.312507 
L 333.556364 175.312099 
L 336.802909 175.311896 
L 340.049455 175.311822 
L 343.296 175.311769 
L 346.542545 175.311732 
L 349.789091 175.311708 
L 353.035636 175.311688 
L 356.282182 175.311674 
L 359.528727 175.311668 
L 362.775273 175.311655 
L 366.021818 175.311659 
L 369.268364 175.311663 
L 372.514909 175.311663 
L 375.761455 175.311664 
L 379.008 175.311664 
L 382.254545 175.311664 
L 385.501091 175.311665 
L 388.747636 175.311665 
L 391.994182 175.311665 
L 395.240727 175.311666 
L 398.487273 175.311666 
" clip-path="url(#pdae00b0918)" style="fill: none; stroke: #ff7f0e; stroke-width: 1.5; stroke-linecap: square"/>
   </g>
   <g id="patch_15">
    <path d="M 57.6 197.46869 
L 57.6 151.58731 
" style="fill: none; stroke: #000000; stroke-width: 0.8; stroke-linejoin: miter; stroke-linecap: square"/>
   </g>
   <g id="patch_16">
    <path d="M 414.72 197.46869 
L 414.72 151.58731 
" style="fill: none; stroke: #000000; stroke-width: 0.8; stroke-linejoin: miter; stroke-linecap: square"/>
   </g>
   <g id="patch_17">
    <path d="M 57.6 197.46869 
L 414.72 197.46869 
" style="fill: none; stroke: #000000; stroke-width: 0.8; stroke-linejoin: miter; stroke-linecap: square"/>
   </g>
   <g id="patch_18">
    <path d="M 57.6 151.58731 
L 414.72 151.58731 
" style="fill: none; stroke: #000000; stroke-width: 0.8; stroke-linejoin: miter; stroke-linecap: square"/>
   </g>
   <g id="text_18">
    <!-- yA -->
    <g transform="translate(228.504375 145.58731)scale(0.12 -0.12)">
     <defs>
      <path id="DejaVuSans-41" d="M 2188 4044 
L 1331 1722 
L 3047 1722 
L 2188 4044 
z
M 1831 4666 
L 2547 4666 
L 4325 0 
L 3669 0 
L 3244 1197 
L 1141 1197 
L 716 0 
L 50 0 
L 1831 4666 
z
" transform="scale(0.015625)"/>
     </defs>
     <use xlink:href="#DejaVuSans-79"/>
     <use xlink:href="#DejaVuSans-41" x="59.179688"/>
    </g>
   </g>
   <g id="legend_3">
    <g id="patch_19">
     <path d="M 64.6 188.94356 
L 142.289062 188.94356 
Q 144.289062 188.94356 144.289062 186.94356 
L 144.289062 158.58731 
Q 144.289062 156.58731 142.289062 156.58731 
L 64.6 156.58731 
Q 62.6 156.58731 62.6 158.58731 
L 62.6 186.94356 
Q 62.6 188.94356 64.6 188.94356 
z
" style="fill: #ffffff; opacity: 0.8; stroke: #cccccc; stroke-linejoin: miter"/>
    </g>
    <g id="line2d_40">
     <path d="M 66.6 164.685748 
L 76.6 164.685748 
L 86.6 164.685748 
" style="fill: none; stroke: #1f77b4; stroke-width: 1.5; stroke-linecap: square"/>
    </g>
    <g id="text_19">
     <!-- yA0 (in) -->
     <g transform="translate(94.6 168.185748)scale(0.1 -0.1)">
      <use xlink:href="#DejaVuSans-79"/>
      <use xlink:href="#DejaVuSans-41" x="59.179688"/>
      <use xlink:href="#DejaVuSans-30" x="127.587891"/>
      <use xlink:href="#DejaVuSans-20" x="191.210938"/>
      <use xlink:href="#DejaVuSans-28" x="222.998047"/>
      <use xlink:href="#DejaVuSans-69" x="262.011719"/>
      <use xlink:href="#DejaVuSans-6e" x="289.794922"/>
      <use xlink:href="#DejaVuSans-29" x="353.173828"/>
     </g>
    </g>
    <g id="line2d_41">
     <path d="M 66.6 179.363873 
L 76.6 179.363873 
L 86.6 179.363873 
" style="fill: none; stroke: #ff7f0e; stroke-width: 1.5; stroke-linecap: square"/>
    </g>
    <g id="text_20">
     <!-- yAL (out) -->
     <g transform="translate(94.6 182.863873)scale(0.1 -0.1)">
      <defs>
       <path id="DejaVuSans-4c" d="M 628 4666 
L 1259 4666 
L 1259 531 
L 3531 531 
L 3531 0 
L 628 0 
L 628 4666 
z
" transform="scale(0.015625)"/>
      </defs>
      <use xlink:href="#DejaVuSans-79"/>
      <use xlink:href="#DejaVuSans-41" x="59.179688"/>
      <use xlink:href="#DejaVuSans-4c" x="127.587891"/>
      <use xlink:href="#DejaVuSans-20" x="183.300781"/>
      <use xlink:href="#DejaVuSans-28" x="215.087891"/>
      <use xlink:href="#DejaVuSans-6f" x="254.101562"/>
      <use xlink:href="#DejaVuSans-75" x="315.283203"/>
      <use xlink:href="#DejaVuSans-74" x="378.662109"/>
      <use xlink:href="#DejaVuSans-29" x="417.871094"/>
     </g>
    </g>
   </g>
  </g>
  <g id="axes_4">
   <g id="patch_20">
    <path d="M 57.6 252.526345 
L 414.72 252.526345 
L 414.72 206.644966 
L 57.6 206.644966 
z
" style="fill: #ffffff"/>
   </g>
   <g id="matplotlib.axis_7">
    <g id="xtick_19">
     <g id="line2d_42">
      <g>
       <use xlink:href="#m07ee0150d8" x="73.832727" y="252.526345" style="stroke: #000000; stroke-width: 0.8"/>
      </g>
     </g>
    </g>
    <g id="xtick_20">
     <g id="line2d_43">
      <g>
       <use xlink:href="#m07ee0150d8" x="138.763636" y="252.526345" style="stroke: #000000; stroke-width: 0.8"/>
      </g>
     </g>
    </g>
    <g id="xtick_21">
     <g id="line2d_44">
      <g>
       <use xlink:href="#m07ee0150d8" x="203.694545" y="252.526345" style="stroke: #000000; stroke-width: 0.8"/>
      </g>
     </g>
    </g>
    <g id="xtick_22">
     <g id="line2d_45">
      <g>
       <use xlink:href="#m07ee0150d8" x="268.625455" y="252.526345" style="stroke: #000000; stroke-width: 0.8"/>
      </g>
     </g>
    </g>
    <g id="xtick_23">
     <g id="line2d_46">
      <g>
       <use xlink:href="#m07ee0150d8" x="333.556364" y="252.526345" style="stroke: #000000; stroke-width: 0.8"/>
      </g>
     </g>
    </g>
    <g id="xtick_24">
     <g id="line2d_47">
      <g>
       <use xlink:href="#m07ee0150d8" x="398.487273" y="252.526345" style="stroke: #000000; stroke-width: 0.8"/>
      </g>
     </g>
    </g>
   </g>
   <g id="matplotlib.axis_8">
    <g id="ytick_8">
     <g id="line2d_48">
      <g>
       <use xlink:href="#m74472c6530" x="57.6" y="242.578351" style="stroke: #000000; stroke-width: 0.8"/>
      </g>
     </g>
     <g id="text_21">
      <!-- 0.8999 -->
      <g transform="translate(15.609375 246.37757)scale(0.1 -0.1)">
       <defs>
        <path id="DejaVuSans-38" d="M 2034 2216 
Q 1584 2216 1326 1975 
Q 1069 1734 1069 1313 
Q 1069 891 1326 650 
Q 1584 409 2034 409 
Q 2484 409 2743 651 
Q 3003 894 3003 1313 
Q 3003 1734 2745 1975 
Q 2488 2216 2034 2216 
z
M 1403 2484 
Q 997 2584 770 2862 
Q 544 3141 544 3541 
Q 544 4100 942 4425 
Q 1341 4750 2034 4750 
Q 2731 4750 3128 4425 
Q 3525 4100 3525 3541 
Q 3525 3141 3298 2862 
Q 3072 2584 2669 2484 
Q 3125 2378 3379 2068 
Q 3634 1759 3634 1313 
Q 3634 634 3220 271 
Q 2806 -91 2034 -91 
Q 1263 -91 848 271 
Q 434 634 434 1313 
Q 434 1759 690 2068 
Q 947 2378 1403 2484 
z
M 1172 3481 
Q 1172 3119 1398 2916 
Q 1625 2713 2034 2713 
Q 2441 2713 2670 2916 
Q 2900 3119 2900 3481 
Q 2900 3844 2670 4047 
Q 2441 4250 2034 4250 
Q 1625 4250 1398 4047 
Q 1172 3844 1172 3481 
z
" transform="scale(0.015625)"/>
       </defs>
       <use xlink:href="#DejaVuSans-30"/>
       <use xlink:href="#DejaVuSans-2e" x="63.623047"/>
       <use xlink:href="#DejaVuSans-38" x="95.410156"/>
       <use xlink:href="#DejaVuSans-39" x="159.033203"/>
       <use xlink:href="#DejaVuSans-39" x="222.65625"/>
       <use xlink:href="#DejaVuSans-39" x="286.279297"/>
      </g>
     </g>
    </g>
    <g id="ytick_9">
     <g id="line2d_49">
      <g>
       <use xlink:href="#m74472c6530" x="57.6" y="227.932189" style="stroke: #000000; stroke-width: 0.8"/>
      </g>
     </g>
     <g id="text_22">
      <!-- 0.9000 -->
      <g transform="translate(15.609375 231.731408)scale(0.1 -0.1)">
       <use xlink:href="#DejaVuSans-30"/>
       <use xlink:href="#DejaVuSans-2e" x="63.623047"/>
       <use xlink:href="#DejaVuSans-39" x="95.410156"/>
       <use xlink:href="#DejaVuSans-30" x="159.033203"/>
       <use xlink:href="#DejaVuSans-30" x="222.65625"/>
       <use xlink:href="#DejaVuSans-30" x="286.279297"/>
      </g>
     </g>
    </g>
    <g id="ytick_10">
     <g id="line2d_50">
      <g>
       <use xlink:href="#m74472c6530" x="57.6" y="213.286027" style="stroke: #000000; stroke-width: 0.8"/>
      </g>
     </g>
     <g id="text_23">
      <!-- 0.9001 -->
      <g transform="translate(15.609375 217.085246)scale(0.1 -0.1)">
       <use xlink:href="#DejaVuSans-30"/>
       <use xlink:href="#DejaVuSans-2e" x="63.623047"/>
       <use xlink:href="#DejaVuSans-39" x="95.410156"/>
       <use xlink:href="#DejaVuSans-30" x="159.033203"/>
       <use xlink:href="#DejaVuSans-30" x="222.65625"/>
       <use xlink:href="#DejaVuSans-31" x="286.279297"/>
      </g>
     </g>
    </g>
    <g id="text_24">
     <!-- fraction -->
     <g transform="translate(9.529687 248.791905)rotate(-90)scale(0.1 -0.1)">
      <use xlink:href="#DejaVuSans-66"/>
      <use xlink:href="#DejaVuSans-72" x="35.205078"/>
      <use xlink:href="#DejaVuSans-61" x="76.318359"/>
      <use xlink:href="#DejaVuSans-63" x="137.597656"/>
      <use xlink:href="#DejaVuSans-74" x="192.578125"/>
      <use xlink:href="#DejaVuSans-69" x="231.787109"/>
      <use xlink:href="#DejaVuSans-6f" x="259.570312"/>
      <use xlink:href="#DejaVuSans-6e" x="320.751953"/>
     </g>
    </g>
   </g>
   <g id="line2d_51">
    <path d="M 73.832727 228.863723 
L 77.079273 227.930738 
L 80.325818 222.375537 
L 83.572364 208.730483 
L 86.818909 228.303185 
L 90.065455 235.989877 
L 93.312 250.431012 
L 96.558545 250.440828 
L 99.805091 250.245997 
L 103.051636 243.054582 
L 106.298182 210.287038 
L 109.544727 211.712354 
L 112.791273 212.961942 
L 116.037818 212.843675 
L 119.284364 212.621193 
L 122.530909 213.87532 
L 125.777455 227.899902 
L 129.024 227.91515 
L 132.270545 227.921896 
L 135.517091 227.925249 
L 138.763636 227.927191 
L 142.010182 227.927931 
L 145.256727 227.928671 
L 148.503273 227.929411 
L 151.749818 227.93015 
L 154.996364 227.93089 
L 158.242909 227.931438 
L 161.489455 227.931731 
L 164.736 227.931926 
L 167.982545 227.932032 
L 171.229091 227.9321 
L 174.475636 227.930887 
L 177.722182 227.930759 
L 180.968727 227.931999 
L 184.215273 227.934887 
L 187.461818 227.939395 
L 190.708364 227.944953 
L 193.954909 227.950656 
L 197.201455 227.955696 
L 200.448 227.959663 
L 203.694545 227.962497 
L 206.941091 227.964451 
L 210.187636 227.965746 
L 213.434182 227.966592 
L 216.680727 227.967132 
L 219.927273 227.967471 
L 223.173818 227.967704 
L 226.420364 227.967863 
L 229.666909 227.967961 
L 232.913455 227.968002 
L 236.16 227.96805 
L 239.406545 227.968099 
L 242.653091 227.968142 
L 245.899636 227.968186 
L 249.146182 227.968216 
L 252.392727 227.968241 
L 255.639273 227.968266 
L 258.885818 227.968291 
L 262.132364 227.968312 
L 265.378909 227.968331 
L 268.625455 227.968384 
L 271.872 227.985423 
L 275.118545 228.034948 
L 278.365091 228.117722 
L 281.611636 228.229723 
L 284.858182 228.358481 
L 288.104727 228.486089 
L 291.351273 228.597547 
L 294.597818 228.684209 
L 297.844364 228.748394 
L 301.090909 228.790592 
L 304.337455 228.818863 
L 307.584 228.836821 
L 310.830545 228.848086 
L 314.077091 228.855004 
L 317.323636 228.859353 
L 320.570182 228.861954 
L 323.816727 228.863459 
L 327.063273 228.864421 
L 330.309818 228.865034 
L 333.556364 228.865438 
L 336.802909 228.865684 
L 340.049455 228.865802 
L 343.296 228.865887 
L 346.542545 228.86595 
L 349.789091 228.865995 
L 353.035636 228.866028 
L 356.282182 228.866046 
L 359.528727 228.86605 
L 362.775273 228.866067 
L 366.021818 228.866071 
L 369.268364 228.866076 
L 372.514909 228.866083 
L 375.761455 228.86609 
L 379.008 228.866097 
L 382.254545 228.866104 
L 385.501091 228.866111 
L 388.747636 228.866118 
L 391.994182 228.866125 
L 395.240727 228.866132 
L 398.487273 228.866139 
" clip-path="url(#pc09a630411)" style="fill: none; stroke: #1f77b4; stroke-width: 1.5; stroke-linecap: square"/>
   </g>
   <g id="line2d_52">
    <path d="M 73.832727 228.862679 
L 77.079273 228.143722 
L 80.325818 228.046347 
L 83.572364 228.009092 
L 86.818909 227.989499 
L 90.065455 227.977294 
L 93.312 227.968714 
L 96.558545 227.96228 
L 99.805091 227.957159 
L 103.051636 227.952984 
L 106.298182 227.949602 
L 109.544727 227.946638 
L 112.791273 227.944064 
L 116.037818 227.941798 
L 119.284364 227.939646 
L 122.530909 227.937609 
L 125.777455 226.040657 
L 129.024 227.002139 
L 132.270545 227.620181 
L 135.517091 227.778923 
L 138.763636 227.858598 
L 142.010182 227.870786 
L 145.256727 227.882974 
L 148.503273 227.895162 
L 151.749818 227.90735 
L 154.996364 227.919538 
L 158.242909 227.926011 
L 161.489455 227.928442 
L 164.736 227.930004 
L 167.982545 227.930862 
L 171.229091 227.931427 
L 174.475636 227.931525 
L 177.722182 227.932193 
L 180.968727 227.933682 
L 184.215273 227.936692 
L 187.461818 227.941309 
L 190.708364 227.946887 
L 193.954909 227.952557 
L 197.201455 227.957533 
L 200.448 227.961437 
L 203.694545 227.96422 
L 206.941091 227.966121 
L 210.187636 227.967373 
L 213.434182 227.968204 
L 216.680727 227.968735 
L 219.927273 227.969025 
L 223.173818 227.969242 
L 226.420364 227.969368 
L 229.666909 227.969447 
L 232.913455 227.969516 
L 236.16 227.969563 
L 239.406545 227.969567 
L 242.653091 227.969559 
L 245.899636 227.969551 
L 249.146182 227.969547 
L 252.392727 227.969545 
L 255.639273 227.969542 
L 258.885818 227.969533 
L 262.132364 227.969527 
L 265.378909 227.969522 
L 268.625455 227.969548 
L 271.872 227.985035 
L 275.118545 228.033454 
L 278.365091 228.114184 
L 281.611636 228.223123 
L 284.858182 228.348775 
L 288.104727 228.474987 
L 291.351273 228.587173 
L 294.597818 228.675849 
L 297.844364 228.743959 
L 301.090909 228.788087 
L 304.337455 228.818346 
L 307.584 228.837724 
L 310.830545 228.849798 
L 314.077091 228.857375 
L 317.323636 228.862176 
L 320.570182 228.865008 
L 323.816727 228.866647 
L 327.063273 228.867685 
L 330.309818 228.868387 
L 333.556364 228.868853 
L 336.802909 228.869104 
L 340.049455 228.869203 
L 343.296 228.869274 
L 346.542545 228.869323 
L 349.789091 228.86935 
L 353.035636 228.869375 
L 356.282182 228.86939 
L 359.528727 228.869395 
L 362.775273 228.86941 
L 366.021818 228.869405 
L 369.268364 228.869399 
L 372.514909 228.869399 
L 375.761455 228.869398 
L 379.008 228.869397 
L 382.254545 228.869396 
L 385.501091 228.869395 
L 388.747636 228.869395 
L 391.994182 228.869394 
L 395.240727 228.869393 
L 398.487273 228.869392 
" clip-path="url(#pc09a630411)" style="fill: none; stroke: #ff7f0e; stroke-width: 1.5; stroke-linecap: square"/>
   </g>
   <g id="patch_21">
    <path d="M 57.6 252.526345 
L 57.6 206.644966 
" style="fill: none; stroke: #000000; stroke-width: 0.8; stroke-linejoin: miter; stroke-linecap: square"/>
   </g>
   <g id="patch_22">
    <path d="M 414.72 252.526345 
L 414.72 206.644966 
" style="fill: none; stroke: #000000; stroke-width: 0.8; stroke-linejoin: miter; stroke-linecap: square"/>
   </g>
   <g id="patch_23">
    <path d="M 57.6 252.526345 
L 414.72 252.526345 
" style="fill: none; stroke: #000000; stroke-width: 0.8; stroke-linejoin: miter; stroke-linecap: square"/>
   </g>
   <g id="patch_24">
    <path d="M 57.6 206.644966 
L 414.72 206.644966 
" style="fill: none; stroke: #000000; stroke-width: 0.8; stroke-linejoin: miter; stroke-linecap: square"/>
   </g>
   <g id="text_25">
    <!-- yB -->
    <g transform="translate(228.492188 200.644966)scale(0.12 -0.12)">
     <defs>
      <path id="DejaVuSans-42" d="M 1259 2228 
L 1259 519 
L 2272 519 
Q 2781 519 3026 730 
Q 3272 941 3272 1375 
Q 3272 1813 3026 2020 
Q 2781 2228 2272 2228 
L 1259 2228 
z
M 1259 4147 
L 1259 2741 
L 2194 2741 
Q 2656 2741 2882 2914 
Q 3109 3088 3109 3444 
Q 3109 3797 2882 3972 
Q 2656 4147 2194 4147 
L 1259 4147 
z
M 628 4666 
L 2241 4666 
Q 2963 4666 3353 4366 
Q 3744 4066 3744 3513 
Q 3744 3084 3544 2831 
Q 3344 2578 2956 2516 
Q 3422 2416 3680 2098 
Q 3938 1781 3938 1306 
Q 3938 681 3513 340 
Q 3088 0 2303 0 
L 628 0 
L 628 4666 
z
" transform="scale(0.015625)"/>
     </defs>
     <use xlink:href="#DejaVuSans-79"/>
     <use xlink:href="#DejaVuSans-42" x="59.179688"/>
    </g>
   </g>
   <g id="legend_4">
    <g id="patch_25">
     <path d="M 64.6 247.526345 
L 142.309375 247.526345 
Q 144.309375 247.526345 144.309375 245.526345 
L 144.309375 217.170095 
Q 144.309375 215.170095 142.309375 215.170095 
L 64.6 215.170095 
Q 62.6 215.170095 62.6 217.170095 
L 62.6 245.526345 
Q 62.6 247.526345 64.6 247.526345 
z
" style="fill: #ffffff; opacity: 0.8; stroke: #cccccc; stroke-linejoin: miter"/>
    </g>
    <g id="line2d_53">
     <path d="M 66.6 223.268532 
L 76.6 223.268532 
L 86.6 223.268532 
" style="fill: none; stroke: #1f77b4; stroke-width: 1.5; stroke-linecap: square"/>
    </g>
    <g id="text_26">
     <!-- yB0 (in) -->
     <g transform="translate(94.6 226.768532)scale(0.1 -0.1)">
      <use xlink:href="#DejaVuSans-79"/>
      <use xlink:href="#DejaVuSans-42" x="59.179688"/>
      <use xlink:href="#DejaVuSans-30" x="127.783203"/>
      <use xlink:href="#DejaVuSans-20" x="191.40625"/>
      <use xlink:href="#DejaVuSans-28" x="223.193359"/>
      <use xlink:href="#DejaVuSans-69" x="262.207031"/>
      <use xlink:href="#DejaVuSans-6e" x="289.990234"/>
      <use xlink:href="#DejaVuSans-29" x="353.369141"/>
     </g>
    </g>
    <g id="line2d_54">
     <path d="M 66.6 237.946657 
L 76.6 237.946657 
L 86.6 237.946657 
" style="fill: none; stroke: #ff7f0e; stroke-width: 1.5; stroke-linecap: square"/>
    </g>
    <g id="text_27">
     <!-- yBL (out) -->
     <g transform="translate(94.6 241.446657)scale(0.1 -0.1)">
      <use xlink:href="#DejaVuSans-79"/>
      <use xlink:href="#DejaVuSans-42" x="59.179688"/>
      <use xlink:href="#DejaVuSans-4c" x="127.783203"/>
      <use xlink:href="#DejaVuSans-20" x="183.496094"/>
      <use xlink:href="#DejaVuSans-28" x="215.283203"/>
      <use xlink:href="#DejaVuSans-6f" x="254.296875"/>
      <use xlink:href="#DejaVuSans-75" x="315.478516"/>
      <use xlink:href="#DejaVuSans-74" x="378.857422"/>
      <use xlink:href="#DejaVuSans-29" x="418.066406"/>
     </g>
    </g>
   </g>
  </g>
  <g id="axes_5">
   <g id="patch_26">
    <path d="M 57.6 307.584 
L 414.72 307.584 
L 414.72 261.702621 
L 57.6 261.702621 
z
" style="fill: #ffffff"/>
   </g>
   <g id="matplotlib.axis_9">
    <g id="xtick_25">
     <g id="line2d_55">
      <g>
       <use xlink:href="#m07ee0150d8" x="73.832727" y="307.584" style="stroke: #000000; stroke-width: 0.8"/>
      </g>
     </g>
     <g id="text_28">
      <!-- 0 -->
      <g transform="translate(70.651477 322.182437)scale(0.1 -0.1)">
       <use xlink:href="#DejaVuSans-30"/>
      </g>
     </g>
    </g>
    <g id="xtick_26">
     <g id="line2d_56">
      <g>
       <use xlink:href="#m07ee0150d8" x="138.763636" y="307.584" style="stroke: #000000; stroke-width: 0.8"/>
      </g>
     </g>
     <g id="text_29">
      <!-- 20 -->
      <g transform="translate(132.401136 322.182437)scale(0.1 -0.1)">
       <defs>
        <path id="DejaVuSans-32" d="M 1228 531 
L 3431 531 
L 3431 0 
L 469 0 
L 469 531 
Q 828 903 1448 1529 
Q 2069 2156 2228 2338 
Q 2531 2678 2651 2914 
Q 2772 3150 2772 3378 
Q 2772 3750 2511 3984 
Q 2250 4219 1831 4219 
Q 1534 4219 1204 4116 
Q 875 4013 500 3803 
L 500 4441 
Q 881 4594 1212 4672 
Q 1544 4750 1819 4750 
Q 2544 4750 2975 4387 
Q 3406 4025 3406 3419 
Q 3406 3131 3298 2873 
Q 3191 2616 2906 2266 
Q 2828 2175 2409 1742 
Q 1991 1309 1228 531 
z
" transform="scale(0.015625)"/>
       </defs>
       <use xlink:href="#DejaVuSans-32"/>
       <use xlink:href="#DejaVuSans-30" x="63.623047"/>
      </g>
     </g>
    </g>
    <g id="xtick_27">
     <g id="line2d_57">
      <g>
       <use xlink:href="#m07ee0150d8" x="203.694545" y="307.584" style="stroke: #000000; stroke-width: 0.8"/>
      </g>
     </g>
     <g id="text_30">
      <!-- 40 -->
      <g transform="translate(197.332045 322.182437)scale(0.1 -0.1)">
       <use xlink:href="#DejaVuSans-34"/>
       <use xlink:href="#DejaVuSans-30" x="63.623047"/>
      </g>
     </g>
    </g>
    <g id="xtick_28">
     <g id="line2d_58">
      <g>
       <use xlink:href="#m07ee0150d8" x="268.625455" y="307.584" style="stroke: #000000; stroke-width: 0.8"/>
      </g>
     </g>
     <g id="text_31">
      <!-- 60 -->
      <g transform="translate(262.262955 322.182437)scale(0.1 -0.1)">
       <defs>
        <path id="DejaVuSans-36" d="M 2113 2584 
Q 1688 2584 1439 2293 
Q 1191 2003 1191 1497 
Q 1191 994 1439 701 
Q 1688 409 2113 409 
Q 2538 409 2786 701 
Q 3034 994 3034 1497 
Q 3034 2003 2786 2293 
Q 2538 2584 2113 2584 
z
M 3366 4563 
L 3366 3988 
Q 3128 4100 2886 4159 
Q 2644 4219 2406 4219 
Q 1781 4219 1451 3797 
Q 1122 3375 1075 2522 
Q 1259 2794 1537 2939 
Q 1816 3084 2150 3084 
Q 2853 3084 3261 2657 
Q 3669 2231 3669 1497 
Q 3669 778 3244 343 
Q 2819 -91 2113 -91 
Q 1303 -91 875 529 
Q 447 1150 447 2328 
Q 447 3434 972 4092 
Q 1497 4750 2381 4750 
Q 2619 4750 2861 4703 
Q 3103 4656 3366 4563 
z
" transform="scale(0.015625)"/>
       </defs>
       <use xlink:href="#DejaVuSans-36"/>
       <use xlink:href="#DejaVuSans-30" x="63.623047"/>
      </g>
     </g>
    </g>
    <g id="xtick_29">
     <g id="line2d_59">
      <g>
       <use xlink:href="#m07ee0150d8" x="333.556364" y="307.584" style="stroke: #000000; stroke-width: 0.8"/>
      </g>
     </g>
     <g id="text_32">
      <!-- 80 -->
      <g transform="translate(327.193864 322.182437)scale(0.1 -0.1)">
       <use xlink:href="#DejaVuSans-38"/>
       <use xlink:href="#DejaVuSans-30" x="63.623047"/>
      </g>
     </g>
    </g>
    <g id="xtick_30">
     <g id="line2d_60">
      <g>
       <use xlink:href="#m07ee0150d8" x="398.487273" y="307.584" style="stroke: #000000; stroke-width: 0.8"/>
      </g>
     </g>
     <g id="text_33">
      <!-- 100 -->
      <g transform="translate(388.943523 322.182437)scale(0.1 -0.1)">
       <use xlink:href="#DejaVuSans-31"/>
       <use xlink:href="#DejaVuSans-30" x="63.623047"/>
       <use xlink:href="#DejaVuSans-30" x="127.246094"/>
      </g>
     </g>
    </g>
    <g id="text_34">
     <!-- time (normalized) -->
     <g transform="translate(191.589687 335.860562)scale(0.1 -0.1)">
      <use xlink:href="#DejaVuSans-74"/>
      <use xlink:href="#DejaVuSans-69" x="39.208984"/>
      <use xlink:href="#DejaVuSans-6d" x="66.992188"/>
      <use xlink:href="#DejaVuSans-65" x="164.404297"/>
      <use xlink:href="#DejaVuSans-20" x="225.927734"/>
      <use xlink:href="#DejaVuSans-28" x="257.714844"/>
      <use xlink:href="#DejaVuSans-6e" x="296.728516"/>
      <use xlink:href="#DejaVuSans-6f" x="360.107422"/>
      <use xlink:href="#DejaVuSans-72" x="421.289062"/>
      <use xlink:href="#DejaVuSans-6d" x="460.652344"/>
      <use xlink:href="#DejaVuSans-61" x="558.064453"/>
      <use xlink:href="#DejaVuSans-6c" x="619.34375"/>
      <use xlink:href="#DejaVuSans-69" x="647.126953"/>
      <use xlink:href="#DejaVuSans-7a" x="674.910156"/>
      <use xlink:href="#DejaVuSans-65" x="727.400391"/>
      <use xlink:href="#DejaVuSans-64" x="788.923828"/>
      <use xlink:href="#DejaVuSans-29" x="852.400391"/>
     </g>
    </g>
   </g>
   <g id="matplotlib.axis_10">
    <g id="ytick_11">
     <g id="line2d_61">
      <g>
       <use xlink:href="#m74472c6530" x="57.6" y="296.411262" style="stroke: #000000; stroke-width: 0.8"/>
      </g>
     </g>
     <g id="text_35">
      <!-- 1 -->
      <g transform="translate(35.857813 300.210481)scale(0.1 -0.1)">
       <defs>
        <path id="DejaVuSans-2212" d="M 678 2272 
L 4684 2272 
L 4684 1741 
L 678 1741 
L 678 2272 
z
" transform="scale(0.015625)"/>
       </defs>
       <use xlink:href="#DejaVuSans-2212"/>
       <use xlink:href="#DejaVuSans-31" x="83.789062"/>
      </g>
     </g>
    </g>
    <g id="ytick_12">
     <g id="line2d_62">
      <g>
       <use xlink:href="#m74472c6530" x="57.6" y="282.552424" style="stroke: #000000; stroke-width: 0.8"/>
      </g>
     </g>
     <g id="text_36">
      <!-- 0 -->
      <g transform="translate(44.2375 286.351643)scale(0.1 -0.1)">
       <use xlink:href="#DejaVuSans-30"/>
      </g>
     </g>
    </g>
    <g id="ytick_13">
     <g id="line2d_63">
      <g>
       <use xlink:href="#m74472c6530" x="57.6" y="268.693586" style="stroke: #000000; stroke-width: 0.8"/>
      </g>
     </g>
     <g id="text_37">
      <!-- 1 -->
      <g transform="translate(44.2375 272.492804)scale(0.1 -0.1)">
       <use xlink:href="#DejaVuSans-31"/>
      </g>
     </g>
    </g>
    <g id="text_38">
     <!-- fraction -->
     <g transform="translate(29.778125 303.84956)rotate(-90)scale(0.1 -0.1)">
      <use xlink:href="#DejaVuSans-66"/>
      <use xlink:href="#DejaVuSans-72" x="35.205078"/>
      <use xlink:href="#DejaVuSans-61" x="76.318359"/>
      <use xlink:href="#DejaVuSans-63" x="137.597656"/>
      <use xlink:href="#DejaVuSans-74" x="192.578125"/>
      <use xlink:href="#DejaVuSans-69" x="231.787109"/>
      <use xlink:href="#DejaVuSans-6f" x="259.570312"/>
      <use xlink:href="#DejaVuSans-6e" x="320.751953"/>
     </g>
    </g>
    <g id="text_39">
     <!-- 1e6+5e2 -->
     <g transform="translate(57.6 258.702621)scale(0.1 -0.1)">
      <defs>
       <path id="DejaVuSans-2b" d="M 2944 4013 
L 2944 2272 
L 4684 2272 
L 4684 1741 
L 2944 1741 
L 2944 0 
L 2419 0 
L 2419 1741 
L 678 1741 
L 678 2272 
L 2419 2272 
L 2419 4013 
L 2944 4013 
z
" transform="scale(0.015625)"/>
      </defs>
      <use xlink:href="#DejaVuSans-31"/>
      <use xlink:href="#DejaVuSans-65" x="63.623047"/>
      <use xlink:href="#DejaVuSans-2212" x="125.146484"/>
      <use xlink:href="#DejaVuSans-36" x="208.935547"/>
      <use xlink:href="#DejaVuSans-2b" x="272.558594"/>
      <use xlink:href="#DejaVuSans-35" x="356.347656"/>
      <use xlink:href="#DejaVuSans-65" x="419.970703"/>
      <use xlink:href="#DejaVuSans-2212" x="481.494141"/>
      <use xlink:href="#DejaVuSans-32" x="565.283203"/>
     </g>
    </g>
   </g>
   <g id="line2d_64">
    <path d="M 73.832727 279.258723 
L 77.079273 282.551233 
L 80.325818 288.83433 
L 83.572364 305.498483 
L 86.818909 281.728409 
L 90.065455 273.450184 
L 93.312 263.974031 
L 96.558545 263.788138 
L 99.805091 263.791061 
L 103.051636 267.715756 
L 106.298182 285.480648 
L 109.544727 284.785857 
L 112.791273 284.271033 
L 116.037818 284.331011 
L 119.284364 284.377244 
L 122.530909 284.303237 
L 125.777455 282.377229 
L 129.024 282.436982 
L 132.270545 282.480529 
L 135.517091 282.503874 
L 138.763636 282.51742 
L 142.010182 282.522601 
L 145.256727 282.527781 
L 148.503273 282.532962 
L 151.749818 282.538143 
L 154.996364 282.543324 
L 158.242909 282.547162 
L 161.489455 282.549216 
L 164.736 282.550579 
L 167.982545 282.551321 
L 171.229091 282.551801 
L 174.475636 282.542955 
L 177.722182 282.540591 
L 180.968727 282.545721 
L 184.215273 282.559091 
L 187.461818 282.579619 
L 190.708364 282.60358 
L 193.954909 282.626225 
L 197.201455 282.644137 
L 200.448 282.656404 
L 203.694545 282.663683 
L 206.941091 282.667834 
L 210.187636 282.670032 
L 213.434182 282.671182 
L 216.680727 282.671749 
L 219.927273 282.672021 
L 223.173818 282.672271 
L 226.420364 282.672458 
L 229.666909 282.67257 
L 232.913455 282.67257 
L 236.16 282.672681 
L 239.406545 282.672928 
L 242.653091 282.673154 
L 245.899636 282.673381 
L 249.146182 282.67355 
L 252.392727 282.673699 
L 255.639273 282.67385 
L 258.885818 282.674001 
L 262.132364 282.674136 
L 265.378909 282.674265 
L 268.625455 282.674577 
L 271.872 282.756511 
L 275.118545 282.94371 
L 278.365091 283.144887 
L 281.611636 283.228121 
L 284.858182 283.066473 
L 288.104727 282.623775 
L 291.351273 281.989443 
L 294.597818 281.307427 
L 297.844364 280.716107 
L 301.090909 280.244992 
L 304.337455 279.909633 
L 307.584 279.680003 
L 310.830545 279.531989 
L 314.077091 279.437812 
L 317.323636 279.378573 
L 320.570182 279.340834 
L 323.816727 279.31805 
L 327.063273 279.304053 
L 330.309818 279.295538 
L 333.556364 279.289772 
L 336.802909 279.285257 
L 340.049455 279.282642 
L 343.296 279.280705 
L 346.542545 279.27934 
L 349.789091 279.278507 
L 353.035636 279.277739 
L 356.282182 279.277208 
L 359.528727 279.276946 
L 362.775273 279.276437 
L 366.021818 279.276316 
L 369.268364 279.276193 
L 372.514909 279.276001 
L 375.761455 279.275808 
L 379.008 279.275616 
L 382.254545 279.275423 
L 385.501091 279.275231 
L 388.747636 279.275038 
L 391.994182 279.274846 
L 395.240727 279.274653 
L 398.487273 279.274461 
" clip-path="url(#paf25aea70d)" style="fill: none; stroke: #1f77b4; stroke-width: 1.5; stroke-linecap: square"/>
   </g>
   <g id="line2d_65">
    <path d="M 73.832727 279.18776 
L 77.079273 280.957421 
L 80.325818 281.583833 
L 83.572364 281.855545 
L 86.818909 282.005163 
L 90.065455 282.098591 
L 93.312 282.162556 
L 96.558545 282.208497 
L 99.805091 282.243315 
L 103.051636 282.270314 
L 106.298182 282.291027 
L 109.544727 282.308634 
L 112.791273 282.323463 
L 116.037818 282.336215 
L 119.284364 282.348225 
L 122.530909 282.359507 
L 125.777455 285.152433 
L 129.024 283.144127 
L 132.270545 282.355271 
L 135.517091 282.326788 
L 138.763636 282.330289 
L 142.010182 282.36109 
L 145.256727 282.391892 
L 148.503273 282.422694 
L 151.749818 282.453495 
L 154.996364 282.484297 
L 158.242909 282.510752 
L 161.489455 282.52651 
L 164.736 282.537199 
L 167.982545 282.543158 
L 171.229091 282.547097 
L 174.475636 282.547396 
L 177.722182 282.550226 
L 180.968727 282.557316 
L 184.215273 282.571719 
L 187.461818 282.592888 
L 190.708364 282.616882 
L 193.954909 282.63924 
L 197.201455 282.656709 
L 200.448 282.668471 
L 203.694545 282.675413 
L 206.941091 282.679078 
L 210.187636 282.680917 
L 213.434182 282.681536 
L 216.680727 282.681572 
L 219.927273 282.681834 
L 223.173818 282.681695 
L 226.420364 282.681678 
L 229.666909 282.681674 
L 232.913455 282.681664 
L 236.16 282.681671 
L 239.406545 282.681684 
L 242.653091 282.681675 
L 245.899636 282.681666 
L 249.146182 282.681673 
L 252.392727 282.681686 
L 255.639273 282.681694 
L 258.885818 282.681677 
L 262.132364 282.681675 
L 265.378909 282.681676 
L 268.625455 282.681827 
L 271.872 282.754504 
L 275.118545 282.938157 
L 278.365091 283.134694 
L 281.611636 283.216687 
L 284.858182 283.062086 
L 288.104727 282.636744 
L 291.351273 282.015574 
L 294.597818 281.339333 
L 297.844364 280.743542 
L 301.090909 280.252219 
L 304.337455 279.903638 
L 307.584 279.663623 
L 310.830545 279.505562 
L 314.077091 279.404925 
L 317.323636 279.341452 
L 320.570182 279.300916 
L 323.816727 279.276627 
L 327.063273 279.261911 
L 330.309818 279.253169 
L 333.556364 279.247343 
L 336.802909 279.242748 
L 340.049455 279.240274 
L 343.296 279.238544 
L 346.542545 279.237493 
L 349.789091 279.237094 
L 353.035636 279.236675 
L 356.282182 279.236485 
L 359.528727 279.236568 
L 362.775273 279.236402 
L 366.021818 279.23653 
L 369.268364 279.236657 
L 372.514909 279.236696 
L 375.761455 279.236736 
L 379.008 279.236775 
L 382.254545 279.236814 
L 385.501091 279.236854 
L 388.747636 279.236893 
L 391.994182 279.236933 
L 395.240727 279.236972 
L 398.487273 279.237012 
" clip-path="url(#paf25aea70d)" style="fill: none; stroke: #ff7f0e; stroke-width: 1.5; stroke-linecap: square"/>
   </g>
   <g id="patch_27">
    <path d="M 57.6 307.584 
L 57.6 261.702621 
" style="fill: none; stroke: #000000; stroke-width: 0.8; stroke-linejoin: miter; stroke-linecap: square"/>
   </g>
   <g id="patch_28">
    <path d="M 414.72 307.584 
L 414.72 261.702621 
" style="fill: none; stroke: #000000; stroke-width: 0.8; stroke-linejoin: miter; stroke-linecap: square"/>
   </g>
   <g id="patch_29">
    <path d="M 57.6 307.584 
L 414.72 307.584 
" style="fill: none; stroke: #000000; stroke-width: 0.8; stroke-linejoin: miter; stroke-linecap: square"/>
   </g>
   <g id="patch_30">
    <path d="M 57.6 261.702621 
L 414.72 261.702621 
" style="fill: none; stroke: #000000; stroke-width: 0.8; stroke-linejoin: miter; stroke-linecap: square"/>
   </g>
   <g id="text_40">
    <!-- yC -->
    <g transform="translate(228.419062 255.702621)scale(0.12 -0.12)">
     <defs>
      <path id="DejaVuSans-43" d="M 4122 4306 
L 4122 3641 
Q 3803 3938 3442 4084 
Q 3081 4231 2675 4231 
Q 1875 4231 1450 3742 
Q 1025 3253 1025 2328 
Q 1025 1406 1450 917 
Q 1875 428 2675 428 
Q 3081 428 3442 575 
Q 3803 722 4122 1019 
L 4122 359 
Q 3791 134 3420 21 
Q 3050 -91 2638 -91 
Q 1578 -91 968 557 
Q 359 1206 359 2328 
Q 359 3453 968 4101 
Q 1578 4750 2638 4750 
Q 3056 4750 3426 4639 
Q 3797 4528 4122 4306 
z
" transform="scale(0.015625)"/>
     </defs>
     <use xlink:href="#DejaVuSans-79"/>
     <use xlink:href="#DejaVuSans-43" x="59.179688"/>
    </g>
   </g>
   <g id="legend_5">
    <g id="patch_31">
     <path d="M 64.6 302.584 
L 142.43125 302.584 
Q 144.43125 302.584 144.43125 300.584 
L 144.43125 272.22775 
Q 144.43125 270.22775 142.43125 270.22775 
L 64.6 270.22775 
Q 62.6 270.22775 62.6 272.22775 
L 62.6 300.584 
Q 62.6 302.584 64.6 302.584 
z
" style="fill: #ffffff; opacity: 0.8; stroke: #cccccc; stroke-linejoin: miter"/>
    </g>
    <g id="line2d_66">
     <path d="M 66.6 278.326187 
L 76.6 278.326187 
L 86.6 278.326187 
" style="fill: none; stroke: #1f77b4; stroke-width: 1.5; stroke-linecap: square"/>
    </g>
    <g id="text_41">
     <!-- yC0 (in) -->
     <g transform="translate(94.6 281.826187)scale(0.1 -0.1)">
      <use xlink:href="#DejaVuSans-79"/>
      <use xlink:href="#DejaVuSans-43" x="59.179688"/>
      <use xlink:href="#DejaVuSans-30" x="129.003906"/>
      <use xlink:href="#DejaVuSans-20" x="192.626953"/>
      <use xlink:href="#DejaVuSans-28" x="224.414062"/>
      <use xlink:href="#DejaVuSans-69" x="263.427734"/>
      <use xlink:href="#DejaVuSans-6e" x="291.210938"/>
      <use xlink:href="#DejaVuSans-29" x="354.589844"/>
     </g>
    </g>
    <g id="line2d_67">
     <path d="M 66.6 293.004312 
L 76.6 293.004312 
L 86.6 293.004312 
" style="fill: none; stroke: #ff7f0e; stroke-width: 1.5; stroke-linecap: square"/>
    </g>
    <g id="text_42">
     <!-- yCL (out) -->
     <g transform="translate(94.6 296.504312)scale(0.1 -0.1)">
      <use xlink:href="#DejaVuSans-79"/>
      <use xlink:href="#DejaVuSans-43" x="59.179688"/>
      <use xlink:href="#DejaVuSans-4c" x="129.003906"/>
      <use xlink:href="#DejaVuSans-20" x="184.716797"/>
      <use xlink:href="#DejaVuSans-28" x="216.503906"/>
      <use xlink:href="#DejaVuSans-6f" x="255.517578"/>
      <use xlink:href="#DejaVuSans-75" x="316.699219"/>
      <use xlink:href="#DejaVuSans-74" x="380.078125"/>
      <use xlink:href="#DejaVuSans-29" x="419.287109"/>
     </g>
    </g>
   </g>
  </g>
 </g>
 <defs>
  <clipPath id="p89b2b36117">
   <rect x="57.6" y="41.472" width="357.12" height="45.881379"/>
  </clipPath>
  <clipPath id="pb8af2c43d9">
   <rect x="57.6" y="96.529655" width="357.12" height="45.881379"/>
  </clipPath>
  <clipPath id="pdae00b0918">
   <rect x="57.6" y="151.58731" width="357.12" height="45.881379"/>
  </clipPath>
  <clipPath id="pc09a630411">
   <rect x="57.6" y="206.644966" width="357.12" height="45.881379"/>
  </clipPath>
  <clipPath id="paf25aea70d">
   <rect x="57.6" y="261.702621" width="357.12" height="45.881379"/>
  </clipPath>
 </defs>
</svg>
