<?xml version="1.0" encoding="utf-8" standalone="no"?>
<!DOCTYPE svg PUBLIC "-//W3C//DTD SVG 1.1//EN"
  "http://www.w3.org/Graphics/SVG/1.1/DTD/svg11.dtd">
<svg xmlns:xlink="http://www.w3.org/1999/xlink" width="460.8pt" height="345.6pt" viewBox="0 0 460.8 345.6" xmlns="http://www.w3.org/2000/svg" version="1.1">
 <metadata>
  <rdf:RDF xmlns:dc="http://purl.org/dc/elements/1.1/" xmlns:cc="http://creativecommons.org/ns#" xmlns:rdf="http://www.w3.org/1999/02/22-rdf-syntax-ns#">
   <cc:Work>
    <dc:type rdf:resource="http://purl.org/dc/dcmitype/StillImage"/>
    <dc:date>2022-07-10T00:04:59.465584</dc:date>
    <dc:format>image/svg+xml</dc:format>
    <dc:creator>
     <cc:Agent>
      <dc:title>Matplotlib v3.5.2, https://matplotlib.org/</dc:title>
     </cc:Agent>
    </dc:creator>
   </cc:Work>
  </rdf:RDF>
 </metadata>
 <defs>
  <style type="text/css">*{stroke-linejoin: round; stroke-linecap: butt}</style>
 </defs>
 <g id="figure_1">
  <g id="patch_1">
   <path d="M 0 345.6 
L 460.8 345.6 
L 460.8 0 
L 0 0 
z
" style="fill: #ffffff"/>
  </g>
  <g id="axes_1">
   <g id="patch_2">
    <path d="M 57.6 87.353379 
L 414.72 87.353379 
L 414.72 41.472 
L 57.6 41.472 
z
" style="fill: #ffffff"/>
   </g>
   <g id="axes_2">
    <g id="patch_3">
     <path d="M 414.72 87.353379 
L 414.72 87.353379 
L 414.72 41.472 
L 414.72 41.472 
z
" style="fill: #ffffff"/>
    </g>
    <g id="matplotlib.axis_1"/>
    <g id="matplotlib.axis_2">
     <g id="ytick_1">
      <g id="line2d_1">
       <defs>
        <path id="me7b4b1a652" d="M 0 0 
L 3.5 0 
" style="stroke: #000000; stroke-width: 0.8"/>
       </defs>
       <g>
        <use xlink:href="#me7b4b1a652" x="414.72" y="76.563368" style="stroke: #000000; stroke-width: 0.8"/>
       </g>
      </g>
      <g id="text_1">
       <!-- 0 -->
       <g transform="translate(421.72 80.362586)scale(0.1 -0.1)">
        <defs>
         <path id="DejaVuSans-30" d="M 2034 4250 
Q 1547 4250 1301 3770 
Q 1056 3291 1056 2328 
Q 1056 1369 1301 889 
Q 1547 409 2034 409 
Q 2525 409 2770 889 
Q 3016 1369 3016 2328 
Q 3016 3291 2770 3770 
Q 2525 4250 2034 4250 
z
M 2034 4750 
Q 2819 4750 3233 4129 
Q 3647 3509 3647 2328 
Q 3647 1150 3233 529 
Q 2819 -91 2034 -91 
Q 1250 -91 836 529 
Q 422 1150 422 2328 
Q 422 3509 836 4129 
Q 1250 4750 2034 4750 
z
" transform="scale(0.015625)"/>
        </defs>
        <use xlink:href="#DejaVuSans-30"/>
       </g>
      </g>
     </g>
     <g id="ytick_2">
      <g id="line2d_2">
       <g>
        <use xlink:href="#me7b4b1a652" x="414.72" y="43.67378" style="stroke: #000000; stroke-width: 0.8"/>
       </g>
      </g>
      <g id="text_2">
       <!-- 1 -->
       <g transform="translate(421.72 47.472999)scale(0.1 -0.1)">
        <defs>
         <path id="DejaVuSans-31" d="M 794 531 
L 1825 531 
L 1825 4091 
L 703 3866 
L 703 4441 
L 1819 4666 
L 2450 4666 
L 2450 531 
L 3481 531 
L 3481 0 
L 794 0 
L 794 531 
z
" transform="scale(0.015625)"/>
        </defs>
        <use xlink:href="#DejaVuSans-31"/>
       </g>
      </g>
     </g>
     <g id="text_3">
      <!-- vel [m/s] -->
      <g transform="translate(439.680938 86.48769)rotate(-90)scale(0.1 -0.1)">
       <defs>
        <path id="DejaVuSans-76" d="M 191 3500 
L 800 3500 
L 1894 563 
L 2988 3500 
L 3597 3500 
L 2284 0 
L 1503 0 
L 191 3500 
z
" transform="scale(0.015625)"/>
        <path id="DejaVuSans-65" d="M 3597 1894 
L 3597 1613 
L 953 1613 
Q 991 1019 1311 708 
Q 1631 397 2203 397 
Q 2534 397 2845 478 
Q 3156 559 3463 722 
L 3463 178 
Q 3153 47 2828 -22 
Q 2503 -91 2169 -91 
Q 1331 -91 842 396 
Q 353 884 353 1716 
Q 353 2575 817 3079 
Q 1281 3584 2069 3584 
Q 2775 3584 3186 3129 
Q 3597 2675 3597 1894 
z
M 3022 2063 
Q 3016 2534 2758 2815 
Q 2500 3097 2075 3097 
Q 1594 3097 1305 2825 
Q 1016 2553 972 2059 
L 3022 2063 
z
" transform="scale(0.015625)"/>
        <path id="DejaVuSans-6c" d="M 603 4863 
L 1178 4863 
L 1178 0 
L 603 0 
L 603 4863 
z
" transform="scale(0.015625)"/>
        <path id="DejaVuSans-20" transform="scale(0.015625)"/>
        <path id="DejaVuSans-5b" d="M 550 4863 
L 1875 4863 
L 1875 4416 
L 1125 4416 
L 1125 -397 
L 1875 -397 
L 1875 -844 
L 550 -844 
L 550 4863 
z
" transform="scale(0.015625)"/>
        <path id="DejaVuSans-6d" d="M 3328 2828 
Q 3544 3216 3844 3400 
Q 4144 3584 4550 3584 
Q 5097 3584 5394 3201 
Q 5691 2819 5691 2113 
L 5691 0 
L 5113 0 
L 5113 2094 
Q 5113 2597 4934 2840 
Q 4756 3084 4391 3084 
Q 3944 3084 3684 2787 
Q 3425 2491 3425 1978 
L 3425 0 
L 2847 0 
L 2847 2094 
Q 2847 2600 2669 2842 
Q 2491 3084 2119 3084 
Q 1678 3084 1418 2786 
Q 1159 2488 1159 1978 
L 1159 0 
L 581 0 
L 581 3500 
L 1159 3500 
L 1159 2956 
Q 1356 3278 1631 3431 
Q 1906 3584 2284 3584 
Q 2666 3584 2933 3390 
Q 3200 3197 3328 2828 
z
" transform="scale(0.015625)"/>
        <path id="DejaVuSans-2f" d="M 1625 4666 
L 2156 4666 
L 531 -594 
L 0 -594 
L 1625 4666 
z
" transform="scale(0.015625)"/>
        <path id="DejaVuSans-73" d="M 2834 3397 
L 2834 2853 
Q 2591 2978 2328 3040 
Q 2066 3103 1784 3103 
Q 1356 3103 1142 2972 
Q 928 2841 928 2578 
Q 928 2378 1081 2264 
Q 1234 2150 1697 2047 
L 1894 2003 
Q 2506 1872 2764 1633 
Q 3022 1394 3022 966 
Q 3022 478 2636 193 
Q 2250 -91 1575 -91 
Q 1294 -91 989 -36 
Q 684 19 347 128 
L 347 722 
Q 666 556 975 473 
Q 1284 391 1588 391 
Q 1994 391 2212 530 
Q 2431 669 2431 922 
Q 2431 1156 2273 1281 
Q 2116 1406 1581 1522 
L 1381 1569 
Q 847 1681 609 1914 
Q 372 2147 372 2553 
Q 372 3047 722 3315 
Q 1072 3584 1716 3584 
Q 2034 3584 2315 3537 
Q 2597 3491 2834 3397 
z
" transform="scale(0.015625)"/>
        <path id="DejaVuSans-5d" d="M 1947 4863 
L 1947 -844 
L 622 -844 
L 622 -397 
L 1369 -397 
L 1369 4416 
L 622 4416 
L 622 4863 
L 1947 4863 
z
" transform="scale(0.015625)"/>
       </defs>
       <use xlink:href="#DejaVuSans-76"/>
       <use xlink:href="#DejaVuSans-65" x="59.179688"/>
       <use xlink:href="#DejaVuSans-6c" x="120.703125"/>
       <use xlink:href="#DejaVuSans-20" x="148.486328"/>
       <use xlink:href="#DejaVuSans-5b" x="180.273438"/>
       <use xlink:href="#DejaVuSans-6d" x="219.287109"/>
       <use xlink:href="#DejaVuSans-2f" x="316.699219"/>
       <use xlink:href="#DejaVuSans-73" x="350.390625"/>
       <use xlink:href="#DejaVuSans-5d" x="402.490234"/>
      </g>
     </g>
    </g>
    <g id="patch_4">
     <path d="M 414.72 87.353379 
L 414.72 41.472 
" style="fill: none; stroke: #000000; stroke-width: 0.8; stroke-linejoin: miter; stroke-linecap: square"/>
    </g>
   </g>
   <g id="matplotlib.axis_3">
    <g id="xtick_1">
     <g id="line2d_3">
      <defs>
       <path id="m2258de82f0" d="M 0 0 
L 0 3.5 
" style="stroke: #000000; stroke-width: 0.8"/>
      </defs>
      <g>
       <use xlink:href="#m2258de82f0" x="73.832727" y="87.353379" style="stroke: #000000; stroke-width: 0.8"/>
      </g>
     </g>
    </g>
    <g id="xtick_2">
     <g id="line2d_4">
      <g>
       <use xlink:href="#m2258de82f0" x="116.550431" y="87.353379" style="stroke: #000000; stroke-width: 0.8"/>
      </g>
     </g>
    </g>
    <g id="xtick_3">
     <g id="line2d_5">
      <g>
       <use xlink:href="#m2258de82f0" x="159.268134" y="87.353379" style="stroke: #000000; stroke-width: 0.8"/>
      </g>
     </g>
    </g>
    <g id="xtick_4">
     <g id="line2d_6">
      <g>
       <use xlink:href="#m2258de82f0" x="201.985837" y="87.353379" style="stroke: #000000; stroke-width: 0.8"/>
      </g>
     </g>
    </g>
    <g id="xtick_5">
     <g id="line2d_7">
      <g>
       <use xlink:href="#m2258de82f0" x="244.703541" y="87.353379" style="stroke: #000000; stroke-width: 0.8"/>
      </g>
     </g>
    </g>
    <g id="xtick_6">
     <g id="line2d_8">
      <g>
       <use xlink:href="#m2258de82f0" x="287.421244" y="87.353379" style="stroke: #000000; stroke-width: 0.8"/>
      </g>
     </g>
    </g>
    <g id="xtick_7">
     <g id="line2d_9">
      <g>
       <use xlink:href="#m2258de82f0" x="330.138947" y="87.353379" style="stroke: #000000; stroke-width: 0.8"/>
      </g>
     </g>
    </g>
    <g id="xtick_8">
     <g id="line2d_10">
      <g>
       <use xlink:href="#m2258de82f0" x="372.856651" y="87.353379" style="stroke: #000000; stroke-width: 0.8"/>
      </g>
     </g>
    </g>
   </g>
   <g id="matplotlib.axis_4">
    <g id="ytick_3">
     <g id="line2d_11">
      <defs>
       <path id="mf4b0192416" d="M 0 0 
L -3.5 0 
" style="stroke: #000000; stroke-width: 0.8"/>
      </defs>
      <g>
       <use xlink:href="#mf4b0192416" x="57.6" y="76.563368" style="stroke: #000000; stroke-width: 0.8"/>
      </g>
     </g>
     <g id="text_4">
      <!-- 0 -->
      <g transform="translate(44.2375 80.362586)scale(0.1 -0.1)">
       <use xlink:href="#DejaVuSans-30"/>
      </g>
     </g>
    </g>
    <g id="ytick_4">
     <g id="line2d_12">
      <g>
       <use xlink:href="#mf4b0192416" x="57.6" y="43.67378" style="stroke: #000000; stroke-width: 0.8"/>
      </g>
     </g>
     <g id="text_5">
      <!-- 1 -->
      <g transform="translate(44.2375 47.472999)scale(0.1 -0.1)">
       <use xlink:href="#DejaVuSans-31"/>
      </g>
     </g>
    </g>
    <g id="text_6">
     <!-- vel [normalized] -->
     <g transform="translate(38.157812 105.111908)rotate(-90)scale(0.1 -0.1)">
      <defs>
       <path id="DejaVuSans-6e" d="M 3513 2113 
L 3513 0 
L 2938 0 
L 2938 2094 
Q 2938 2591 2744 2837 
Q 2550 3084 2163 3084 
Q 1697 3084 1428 2787 
Q 1159 2491 1159 1978 
L 1159 0 
L 581 0 
L 581 3500 
L 1159 3500 
L 1159 2956 
Q 1366 3272 1645 3428 
Q 1925 3584 2291 3584 
Q 2894 3584 3203 3211 
Q 3513 2838 3513 2113 
z
" transform="scale(0.015625)"/>
       <path id="DejaVuSans-6f" d="M 1959 3097 
Q 1497 3097 1228 2736 
Q 959 2375 959 1747 
Q 959 1119 1226 758 
Q 1494 397 1959 397 
Q 2419 397 2687 759 
Q 2956 1122 2956 1747 
Q 2956 2369 2687 2733 
Q 2419 3097 1959 3097 
z
M 1959 3584 
Q 2709 3584 3137 3096 
Q 3566 2609 3566 1747 
Q 3566 888 3137 398 
Q 2709 -91 1959 -91 
Q 1206 -91 779 398 
Q 353 888 353 1747 
Q 353 2609 779 3096 
Q 1206 3584 1959 3584 
z
" transform="scale(0.015625)"/>
       <path id="DejaVuSans-72" d="M 2631 2963 
Q 2534 3019 2420 3045 
Q 2306 3072 2169 3072 
Q 1681 3072 1420 2755 
Q 1159 2438 1159 1844 
L 1159 0 
L 581 0 
L 581 3500 
L 1159 3500 
L 1159 2956 
Q 1341 3275 1631 3429 
Q 1922 3584 2338 3584 
Q 2397 3584 2469 3576 
Q 2541 3569 2628 3553 
L 2631 2963 
z
" transform="scale(0.015625)"/>
       <path id="DejaVuSans-61" d="M 2194 1759 
Q 1497 1759 1228 1600 
Q 959 1441 959 1056 
Q 959 750 1161 570 
Q 1363 391 1709 391 
Q 2188 391 2477 730 
Q 2766 1069 2766 1631 
L 2766 1759 
L 2194 1759 
z
M 3341 1997 
L 3341 0 
L 2766 0 
L 2766 531 
Q 2569 213 2275 61 
Q 1981 -91 1556 -91 
Q 1019 -91 701 211 
Q 384 513 384 1019 
Q 384 1609 779 1909 
Q 1175 2209 1959 2209 
L 2766 2209 
L 2766 2266 
Q 2766 2663 2505 2880 
Q 2244 3097 1772 3097 
Q 1472 3097 1187 3025 
Q 903 2953 641 2809 
L 641 3341 
Q 956 3463 1253 3523 
Q 1550 3584 1831 3584 
Q 2591 3584 2966 3190 
Q 3341 2797 3341 1997 
z
" transform="scale(0.015625)"/>
       <path id="DejaVuSans-69" d="M 603 3500 
L 1178 3500 
L 1178 0 
L 603 0 
L 603 3500 
z
M 603 4863 
L 1178 4863 
L 1178 4134 
L 603 4134 
L 603 4863 
z
" transform="scale(0.015625)"/>
       <path id="DejaVuSans-7a" d="M 353 3500 
L 3084 3500 
L 3084 2975 
L 922 459 
L 3084 459 
L 3084 0 
L 275 0 
L 275 525 
L 2438 3041 
L 353 3041 
L 353 3500 
z
" transform="scale(0.015625)"/>
       <path id="DejaVuSans-64" d="M 2906 2969 
L 2906 4863 
L 3481 4863 
L 3481 0 
L 2906 0 
L 2906 525 
Q 2725 213 2448 61 
Q 2172 -91 1784 -91 
Q 1150 -91 751 415 
Q 353 922 353 1747 
Q 353 2572 751 3078 
Q 1150 3584 1784 3584 
Q 2172 3584 2448 3432 
Q 2725 3281 2906 2969 
z
M 947 1747 
Q 947 1113 1208 752 
Q 1469 391 1925 391 
Q 2381 391 2643 752 
Q 2906 1113 2906 1747 
Q 2906 2381 2643 2742 
Q 2381 3103 1925 3103 
Q 1469 3103 1208 2742 
Q 947 2381 947 1747 
z
" transform="scale(0.015625)"/>
      </defs>
      <use xlink:href="#DejaVuSans-76"/>
      <use xlink:href="#DejaVuSans-65" x="59.179688"/>
      <use xlink:href="#DejaVuSans-6c" x="120.703125"/>
      <use xlink:href="#DejaVuSans-20" x="148.486328"/>
      <use xlink:href="#DejaVuSans-5b" x="180.273438"/>
      <use xlink:href="#DejaVuSans-6e" x="219.287109"/>
      <use xlink:href="#DejaVuSans-6f" x="282.666016"/>
      <use xlink:href="#DejaVuSans-72" x="343.847656"/>
      <use xlink:href="#DejaVuSans-6d" x="383.210938"/>
      <use xlink:href="#DejaVuSans-61" x="480.623047"/>
      <use xlink:href="#DejaVuSans-6c" x="541.902344"/>
      <use xlink:href="#DejaVuSans-69" x="569.685547"/>
      <use xlink:href="#DejaVuSans-7a" x="597.46875"/>
      <use xlink:href="#DejaVuSans-65" x="649.958984"/>
      <use xlink:href="#DejaVuSans-64" x="711.482422"/>
      <use xlink:href="#DejaVuSans-5d" x="774.958984"/>
     </g>
    </g>
   </g>
   <g id="line2d_13">
    <path d="M 73.832727 76.563371 
L 90.919809 76.56337 
L 108.00689 76.56337 
L 125.093971 76.56337 
L 142.181053 76.56337 
L 159.268134 76.56337 
L 176.355215 76.563369 
L 193.442297 76.563369 
L 210.529378 76.563369 
L 227.616459 76.563369 
L 244.703541 76.563369 
L 261.790622 76.563369 
L 278.877703 76.563368 
L 295.964785 76.563368 
L 313.051866 76.563368 
L 330.138947 76.563368 
L 347.226029 76.563368 
L 364.31311 76.563368 
L 381.400191 76.563368 
L 398.487273 76.563368 
" clip-path="url(#p421ab8b50f)" style="fill: none; stroke: #1f77b4; stroke-width: 1.5; stroke-linecap: square"/>
   </g>
   <g id="line2d_14">
    <path d="M 73.832727 76.24877 
L 90.919809 76.265328 
L 108.00689 76.281887 
L 125.093971 76.298445 
L 142.181053 76.315003 
L 159.268134 76.331561 
L 176.355215 76.348119 
L 193.442297 76.364677 
L 210.529378 76.381234 
L 227.616459 76.397792 
L 244.703541 76.41435 
L 261.790622 76.430907 
L 278.877703 76.447465 
L 295.964785 76.464022 
L 313.051866 76.48058 
L 330.138947 76.497137 
L 347.226029 76.513695 
L 364.31311 76.530252 
L 381.400191 76.54681 
L 398.487273 76.54681 
" clip-path="url(#p421ab8b50f)" style="fill: none; stroke: #ff7f0e; stroke-width: 1.5; stroke-linecap: square"/>
   </g>
   <g id="line2d_15">
    <path d="M 73.832727 43.670654 
L 90.919809 43.664399 
L 108.00689 43.65814 
L 125.093971 43.651878 
L 142.181053 43.645613 
L 159.268134 43.639344 
L 176.355215 43.633071 
L 193.442297 43.626794 
L 210.529378 43.620515 
L 227.616459 43.614231 
L 244.703541 43.607944 
L 261.790622 43.601653 
L 278.877703 43.595359 
L 295.964785 43.589061 
L 313.051866 43.582759 
L 330.138947 43.576454 
L 347.226029 43.570146 
L 364.31311 43.563833 
L 381.400191 43.557517 
L 398.487273 43.557517 
" clip-path="url(#p421ab8b50f)" style="fill: none; stroke: #2ca02c; stroke-width: 1.5; stroke-linecap: square"/>
   </g>
   <g id="line2d_16">
    <path d="M 73.832727 43.670654 
L 90.919809 43.664399 
L 108.00689 43.658141 
L 125.093971 43.651879 
L 142.181053 43.645613 
L 159.268134 43.639344 
L 176.355215 43.633071 
L 193.442297 43.626795 
L 210.529378 43.620515 
L 227.616459 43.614231 
L 244.703541 43.607944 
L 261.790622 43.601654 
L 278.877703 43.595359 
L 295.964785 43.589061 
L 313.051866 43.58276 
L 330.138947 43.576455 
L 347.226029 43.570146 
L 364.31311 43.563833 
L 381.400191 43.557517 
L 398.487273 43.557517 
" clip-path="url(#p421ab8b50f)" style="fill: none; stroke: #d62728; stroke-width: 1.5; stroke-linecap: square"/>
   </g>
   <g id="line2d_17">
    <path d="M 73.832727 75.93597 
L 90.919809 75.308565 
L 108.00689 74.681138 
L 125.093971 74.053686 
L 142.181053 73.426187 
L 159.268134 72.798636 
L 176.355215 72.171016 
L 193.442297 71.543318 
L 210.529378 70.915532 
L 227.616459 70.287642 
L 244.703541 69.659636 
L 261.790622 69.031505 
L 278.877703 68.403235 
L 295.964785 67.774817 
L 313.051866 67.146232 
L 330.138947 66.517474 
L 347.226029 65.88853 
L 364.31311 65.259386 
L 381.400191 64.630031 
L 398.487273 64.630031 
" clip-path="url(#p421ab8b50f)" style="fill: none; stroke: #9467bd; stroke-width: 1.5; stroke-linecap: square"/>
   </g>
   <g id="line2d_18">
    <path d="M 73.832727 76.518936 
L 90.919809 76.4745 
L 108.00689 76.43006 
L 125.093971 76.385608 
L 142.181053 76.34114 
L 159.268134 76.296656 
L 176.355215 76.252147 
L 193.442297 76.207611 
L 210.529378 76.163045 
L 227.616459 76.118442 
L 244.703541 76.073798 
L 261.790622 76.029109 
L 278.877703 75.984367 
L 295.964785 75.939572 
L 313.051866 75.894713 
L 330.138947 75.849789 
L 347.226029 75.80479 
L 364.31311 75.759712 
L 381.400191 75.714549 
L 398.487273 75.714549 
" clip-path="url(#p421ab8b50f)" style="fill: none; stroke: #8c564b; stroke-width: 1.5; stroke-linecap: square"/>
   </g>
   <g id="line2d_19">
    <path d="M 73.832727 76.562765 
L 90.919809 76.56216 
L 108.00689 76.561552 
L 125.093971 76.560938 
L 142.181053 76.560317 
L 159.268134 76.559687 
L 176.355215 76.559047 
L 193.442297 76.558393 
L 210.529378 76.557725 
L 227.616459 76.557041 
L 244.703541 76.556339 
L 261.790622 76.555618 
L 278.877703 76.554874 
L 295.964785 76.554108 
L 313.051866 76.553316 
L 330.138947 76.552499 
L 347.226029 76.551655 
L 364.31311 76.550781 
L 381.400191 76.549877 
L 398.487273 76.549877 
" clip-path="url(#p421ab8b50f)" style="fill: none; stroke: #e377c2; stroke-width: 1.5; stroke-linecap: square"/>
   </g>
   <g id="line2d_20">
    <path d="M 73.832727 76.56335 
L 90.919809 76.563332 
L 108.00689 76.563314 
L 125.093971 76.563296 
L 142.181053 76.563278 
L 159.268134 76.56326 
L 176.355215 76.563242 
L 193.442297 76.563224 
L 210.529378 76.563206 
L 227.616459 76.563188 
L 244.703541 76.56317 
L 261.790622 76.563152 
L 278.877703 76.563134 
L 295.964785 76.563116 
L 313.051866 76.563098 
L 330.138947 76.563079 
L 347.226029 76.563061 
L 364.31311 76.563043 
L 381.400191 76.563025 
L 398.487273 76.563025 
" clip-path="url(#p421ab8b50f)" style="fill: none; stroke: #7f7f7f; stroke-width: 1.5; stroke-linecap: square"/>
   </g>
   <g id="line2d_21">
    <path d="M 73.832727 85.267862 
L 90.919809 84.785525 
L 108.00689 84.307486 
L 125.093971 83.833408 
L 142.181053 83.362969 
L 159.268134 82.895862 
L 176.355215 82.431794 
L 193.442297 81.970487 
L 210.529378 81.511676 
L 227.616459 81.055105 
L 244.703541 80.600533 
L 261.790622 80.147726 
L 278.877703 79.696461 
L 295.964785 79.246522 
L 313.051866 78.797699 
L 330.138947 78.349789 
L 347.226029 77.902594 
L 364.31311 77.455919 
L 381.400191 77.009574 
L 398.487273 77.009574 
" clip-path="url(#p421ab8b50f)" style="fill: none; stroke: #bcbd22; stroke-width: 1.5; stroke-linecap: square"/>
   </g>
   <g id="line2d_22">
    <path d="M 73.832727 76.931004 
L 90.919809 76.912652 
L 108.00689 76.894149 
L 125.093971 76.875501 
L 142.181053 76.856712 
L 159.268134 76.837789 
L 176.355215 76.818739 
L 193.442297 76.799569 
L 210.529378 76.780288 
L 227.616459 76.760904 
L 244.703541 76.741424 
L 261.790622 76.721859 
L 278.877703 76.702218 
L 295.964785 76.682509 
L 313.051866 76.662741 
L 330.138947 76.642925 
L 347.226029 76.62307 
L 364.31311 76.603186 
L 381.400191 76.583282 
L 398.487273 76.583282 
" clip-path="url(#p421ab8b50f)" style="fill: none; stroke: #17becf; stroke-width: 1.5; stroke-linecap: square"/>
   </g>
   <g id="line2d_23">
    <path d="M 73.832727 76.570975 
L 90.919809 76.570836 
L 108.00689 76.570814 
L 125.093971 76.57083 
L 142.181053 76.57083 
L 159.268134 76.57078 
L 176.355215 76.57066 
L 193.442297 76.57046 
L 210.529378 76.570179 
L 227.616459 76.569817 
L 244.703541 76.569381 
L 261.790622 76.568876 
L 278.877703 76.568312 
L 295.964785 76.567697 
L 313.051866 76.567038 
L 330.138947 76.566344 
L 347.226029 76.565623 
L 364.31311 76.564882 
L 381.400191 76.564128 
L 398.487273 76.564128 
" clip-path="url(#p421ab8b50f)" style="fill: none; stroke: #1f77b4; stroke-width: 1.5; stroke-linecap: square"/>
   </g>
   <g id="line2d_24">
    <path d="M 73.832727 76.563778 
L 90.919809 76.563759 
L 108.00689 76.563739 
L 125.093971 76.563719 
L 142.181053 76.563699 
L 159.268134 76.563678 
L 176.355215 76.563657 
L 193.442297 76.563636 
L 210.529378 76.563614 
L 227.616459 76.563593 
L 244.703541 76.563571 
L 261.790622 76.563549 
L 278.877703 76.563526 
L 295.964785 76.563504 
L 313.051866 76.563481 
L 330.138947 76.563459 
L 347.226029 76.563436 
L 364.31311 76.563413 
L 381.400191 76.563391 
L 398.487273 76.563391 
" clip-path="url(#p421ab8b50f)" style="fill: none; stroke: #ff7f0e; stroke-width: 1.5; stroke-linecap: square"/>
   </g>
   <g id="line2d_25">
    <path d="M 73.832727 76.563468 
L 90.919809 76.563463 
L 108.00689 76.563458 
L 125.093971 76.563453 
L 142.181053 76.563448 
L 159.268134 76.563443 
L 176.355215 76.563438 
L 193.442297 76.563433 
L 210.529378 76.563428 
L 227.616459 76.563423 
L 244.703541 76.563417 
L 261.790622 76.563412 
L 278.877703 76.563406 
L 295.964785 76.563401 
L 313.051866 76.563395 
L 330.138947 76.56339 
L 347.226029 76.563384 
L 364.31311 76.563379 
L 381.400191 76.563373 
L 398.487273 76.563373 
" clip-path="url(#p421ab8b50f)" style="fill: none; stroke: #2ca02c; stroke-width: 1.5; stroke-linecap: square"/>
   </g>
   <g id="patch_5">
    <path d="M 57.6 87.353379 
L 57.6 41.472 
" style="fill: none; stroke: #000000; stroke-width: 0.8; stroke-linejoin: miter; stroke-linecap: square"/>
   </g>
   <g id="patch_6">
    <path d="M 414.72 87.353379 
L 414.72 41.472 
" style="fill: none; stroke: #000000; stroke-width: 0.8; stroke-linejoin: miter; stroke-linecap: square"/>
   </g>
   <g id="patch_7">
    <path d="M 57.6 87.353379 
L 414.72 87.353379 
" style="fill: none; stroke: #000000; stroke-width: 0.8; stroke-linejoin: miter; stroke-linecap: square"/>
   </g>
   <g id="patch_8">
    <path d="M 57.6 41.472 
L 414.72 41.472 
" style="fill: none; stroke: #000000; stroke-width: 0.8; stroke-linejoin: miter; stroke-linecap: square"/>
   </g>
   <g id="text_7">
    <!-- velocity - Container 1  -->
    <g transform="translate(169.779375 38.472)scale(0.12 -0.12)">
     <defs>
      <path id="DejaVuSans-63" d="M 3122 3366 
L 3122 2828 
Q 2878 2963 2633 3030 
Q 2388 3097 2138 3097 
Q 1578 3097 1268 2742 
Q 959 2388 959 1747 
Q 959 1106 1268 751 
Q 1578 397 2138 397 
Q 2388 397 2633 464 
Q 2878 531 3122 666 
L 3122 134 
Q 2881 22 2623 -34 
Q 2366 -91 2075 -91 
Q 1284 -91 818 406 
Q 353 903 353 1747 
Q 353 2603 823 3093 
Q 1294 3584 2113 3584 
Q 2378 3584 2631 3529 
Q 2884 3475 3122 3366 
z
" transform="scale(0.015625)"/>
      <path id="DejaVuSans-74" d="M 1172 4494 
L 1172 3500 
L 2356 3500 
L 2356 3053 
L 1172 3053 
L 1172 1153 
Q 1172 725 1289 603 
Q 1406 481 1766 481 
L 2356 481 
L 2356 0 
L 1766 0 
Q 1100 0 847 248 
Q 594 497 594 1153 
L 594 3053 
L 172 3053 
L 172 3500 
L 594 3500 
L 594 4494 
L 1172 4494 
z
" transform="scale(0.015625)"/>
      <path id="DejaVuSans-79" d="M 2059 -325 
Q 1816 -950 1584 -1140 
Q 1353 -1331 966 -1331 
L 506 -1331 
L 506 -850 
L 844 -850 
Q 1081 -850 1212 -737 
Q 1344 -625 1503 -206 
L 1606 56 
L 191 3500 
L 800 3500 
L 1894 763 
L 2988 3500 
L 3597 3500 
L 2059 -325 
z
" transform="scale(0.015625)"/>
      <path id="DejaVuSans-2d" d="M 313 2009 
L 1997 2009 
L 1997 1497 
L 313 1497 
L 313 2009 
z
" transform="scale(0.015625)"/>
      <path id="DejaVuSans-43" d="M 4122 4306 
L 4122 3641 
Q 3803 3938 3442 4084 
Q 3081 4231 2675 4231 
Q 1875 4231 1450 3742 
Q 1025 3253 1025 2328 
Q 1025 1406 1450 917 
Q 1875 428 2675 428 
Q 3081 428 3442 575 
Q 3803 722 4122 1019 
L 4122 359 
Q 3791 134 3420 21 
Q 3050 -91 2638 -91 
Q 1578 -91 968 557 
Q 359 1206 359 2328 
Q 359 3453 968 4101 
Q 1578 4750 2638 4750 
Q 3056 4750 3426 4639 
Q 3797 4528 4122 4306 
z
" transform="scale(0.015625)"/>
     </defs>
     <use xlink:href="#DejaVuSans-76"/>
     <use xlink:href="#DejaVuSans-65" x="59.179688"/>
     <use xlink:href="#DejaVuSans-6c" x="120.703125"/>
     <use xlink:href="#DejaVuSans-6f" x="148.486328"/>
     <use xlink:href="#DejaVuSans-63" x="209.667969"/>
     <use xlink:href="#DejaVuSans-69" x="264.648438"/>
     <use xlink:href="#DejaVuSans-74" x="292.431641"/>
     <use xlink:href="#DejaVuSans-79" x="331.640625"/>
     <use xlink:href="#DejaVuSans-20" x="390.820312"/>
     <use xlink:href="#DejaVuSans-2d" x="422.607422"/>
     <use xlink:href="#DejaVuSans-20" x="458.691406"/>
     <use xlink:href="#DejaVuSans-43" x="490.478516"/>
     <use xlink:href="#DejaVuSans-6f" x="560.302734"/>
     <use xlink:href="#DejaVuSans-6e" x="621.484375"/>
     <use xlink:href="#DejaVuSans-74" x="684.863281"/>
     <use xlink:href="#DejaVuSans-61" x="724.072266"/>
     <use xlink:href="#DejaVuSans-69" x="785.351562"/>
     <use xlink:href="#DejaVuSans-6e" x="813.134766"/>
     <use xlink:href="#DejaVuSans-65" x="876.513672"/>
     <use xlink:href="#DejaVuSans-72" x="938.037109"/>
     <use xlink:href="#DejaVuSans-20" x="979.150391"/>
     <use xlink:href="#DejaVuSans-31" x="1010.9375"/>
     <use xlink:href="#DejaVuSans-20" x="1074.560547"/>
    </g>
   </g>
  </g>
  <g id="axes_3">
   <g id="patch_9">
    <path d="M 57.6 142.411034 
L 414.72 142.411034 
L 414.72 96.529655 
L 57.6 96.529655 
z
" style="fill: #ffffff"/>
   </g>
   <g id="matplotlib.axis_5">
    <g id="xtick_9">
     <g id="line2d_26">
      <g>
       <use xlink:href="#m2258de82f0" x="73.832727" y="142.411034" style="stroke: #000000; stroke-width: 0.8"/>
      </g>
     </g>
    </g>
    <g id="xtick_10">
     <g id="line2d_27">
      <g>
       <use xlink:href="#m2258de82f0" x="116.550431" y="142.411034" style="stroke: #000000; stroke-width: 0.8"/>
      </g>
     </g>
    </g>
    <g id="xtick_11">
     <g id="line2d_28">
      <g>
       <use xlink:href="#m2258de82f0" x="159.268134" y="142.411034" style="stroke: #000000; stroke-width: 0.8"/>
      </g>
     </g>
    </g>
    <g id="xtick_12">
     <g id="line2d_29">
      <g>
       <use xlink:href="#m2258de82f0" x="201.985837" y="142.411034" style="stroke: #000000; stroke-width: 0.8"/>
      </g>
     </g>
    </g>
    <g id="xtick_13">
     <g id="line2d_30">
      <g>
       <use xlink:href="#m2258de82f0" x="244.703541" y="142.411034" style="stroke: #000000; stroke-width: 0.8"/>
      </g>
     </g>
    </g>
    <g id="xtick_14">
     <g id="line2d_31">
      <g>
       <use xlink:href="#m2258de82f0" x="287.421244" y="142.411034" style="stroke: #000000; stroke-width: 0.8"/>
      </g>
     </g>
    </g>
    <g id="xtick_15">
     <g id="line2d_32">
      <g>
       <use xlink:href="#m2258de82f0" x="330.138947" y="142.411034" style="stroke: #000000; stroke-width: 0.8"/>
      </g>
     </g>
    </g>
    <g id="xtick_16">
     <g id="line2d_33">
      <g>
       <use xlink:href="#m2258de82f0" x="372.856651" y="142.411034" style="stroke: #000000; stroke-width: 0.8"/>
      </g>
     </g>
    </g>
   </g>
   <g id="matplotlib.axis_6">
    <g id="ytick_5">
     <g id="line2d_34">
      <g>
       <use xlink:href="#mf4b0192416" x="57.6" y="140.745253" style="stroke: #000000; stroke-width: 0.8"/>
      </g>
     </g>
     <g id="text_8">
      <!-- 0 -->
      <g transform="translate(44.2375 144.544472)scale(0.1 -0.1)">
       <use xlink:href="#DejaVuSans-30"/>
      </g>
     </g>
    </g>
    <g id="ytick_6">
     <g id="line2d_35">
      <g>
       <use xlink:href="#mf4b0192416" x="57.6" y="98.771642" style="stroke: #000000; stroke-width: 0.8"/>
      </g>
     </g>
     <g id="text_9">
      <!-- 1 -->
      <g transform="translate(44.2375 102.570861)scale(0.1 -0.1)">
       <use xlink:href="#DejaVuSans-31"/>
      </g>
     </g>
    </g>
   </g>
   <g id="line2d_36">
    <path d="M 73.832727 140.325517 
L 90.919809 140.325517 
L 108.00689 140.325517 
L 125.093971 140.325517 
L 142.181053 140.325517 
L 159.268134 140.325517 
L 176.355215 140.325517 
L 193.442297 140.325517 
L 210.529378 140.325517 
L 227.616459 140.325517 
L 244.703541 140.325517 
L 261.790622 140.325517 
L 278.877703 140.325517 
L 295.964785 140.325517 
L 313.051866 140.325517 
L 330.138947 140.325517 
L 347.226029 140.325517 
L 364.31311 140.325517 
L 381.400191 140.325517 
L 398.487273 140.325517 
" clip-path="url(#pca3fccf0dc)" style="fill: none; stroke: #1f77b4; stroke-width: 1.5; stroke-linecap: square"/>
   </g>
   <g id="line2d_37">
    <path d="M 73.832727 99.530757 
L 90.919809 99.530834 
L 108.00689 99.530906 
L 125.093971 99.530975 
L 142.181053 99.531039 
L 159.268134 99.5311 
L 176.355215 99.531156 
L 193.442297 99.531209 
L 210.529378 99.531257 
L 227.616459 99.531302 
L 244.703541 99.531342 
L 261.790622 99.531378 
L 278.877703 99.53141 
L 295.964785 99.531439 
L 313.051866 99.531463 
L 330.138947 99.531483 
L 347.226029 99.531499 
L 364.31311 99.531511 
L 381.400191 99.531519 
L 398.487273 99.531523 
" clip-path="url(#pca3fccf0dc)" style="fill: none; stroke: #ff7f0e; stroke-width: 1.5; stroke-linecap: square"/>
   </g>
   <g id="line2d_38">
    <path d="M 73.832727 98.615172 
L 90.919809 98.623182 
L 108.00689 98.631194 
L 125.093971 98.639207 
L 142.181053 98.647221 
L 159.268134 98.655237 
L 176.355215 98.663255 
L 193.442297 98.671274 
L 210.529378 98.679295 
L 227.616459 98.687317 
L 244.703541 98.69534 
L 261.790622 98.703366 
L 278.877703 98.711392 
L 295.964785 98.719421 
L 313.051866 98.72745 
L 330.138947 98.735482 
L 347.226029 98.743515 
L 364.31311 98.751549 
L 381.400191 98.759585 
L 398.487273 98.767622 
" clip-path="url(#pca3fccf0dc)" style="fill: none; stroke: #2ca02c; stroke-width: 1.5; stroke-linecap: square"/>
   </g>
   <g id="line2d_39">
    <path d="M 73.832727 98.615172 
L 90.919809 98.623182 
L 108.00689 98.631194 
L 125.093971 98.639207 
L 142.181053 98.647221 
L 159.268134 98.655237 
L 176.355215 98.663255 
L 193.442297 98.671274 
L 210.529378 98.679295 
L 227.616459 98.687317 
L 244.703541 98.69534 
L 261.790622 98.703366 
L 278.877703 98.711392 
L 295.964785 98.719421 
L 313.051866 98.72745 
L 330.138947 98.735482 
L 347.226029 98.743515 
L 364.31311 98.751549 
L 381.400191 98.759585 
L 398.487273 98.767622 
" clip-path="url(#pca3fccf0dc)" style="fill: none; stroke: #d62728; stroke-width: 1.5; stroke-linecap: square"/>
   </g>
   <g id="line2d_40">
    <path d="M 73.832727 122.625548 
L 90.919809 122.625701 
L 108.00689 122.626006 
L 125.093971 122.626464 
L 142.181053 122.627076 
L 159.268134 122.62784 
L 176.355215 122.628756 
L 193.442297 122.629826 
L 210.529378 122.631048 
L 227.616459 122.632424 
L 244.703541 122.633952 
L 261.790622 122.635633 
L 278.877703 122.637467 
L 295.964785 122.639454 
L 313.051866 122.641595 
L 330.138947 122.643888 
L 347.226029 122.646334 
L 364.31311 122.648934 
L 381.400191 122.651686 
L 398.487273 122.654592 
" clip-path="url(#pca3fccf0dc)" style="fill: none; stroke: #9467bd; stroke-width: 1.5; stroke-linecap: square"/>
   </g>
   <g id="line2d_41">
    <path d="M 73.832727 136.288916 
L 90.919809 136.288927 
L 108.00689 136.288949 
L 125.093971 136.288981 
L 142.181053 136.289024 
L 159.268134 136.289079 
L 176.355215 136.289144 
L 193.442297 136.289219 
L 210.529378 136.289306 
L 227.616459 136.289403 
L 244.703541 136.289512 
L 261.790622 136.289631 
L 278.877703 136.289761 
L 295.964785 136.289902 
L 313.051866 136.290054 
L 330.138947 136.290217 
L 347.226029 136.290391 
L 364.31311 136.290575 
L 381.400191 136.290771 
L 398.487273 136.290978 
" clip-path="url(#pca3fccf0dc)" style="fill: none; stroke: #8c564b; stroke-width: 1.5; stroke-linecap: square"/>
   </g>
   <g id="line2d_42">
    <path d="M 73.832727 136.543172 
L 90.919809 136.543173 
L 108.00689 136.543173 
L 125.093971 136.543173 
L 142.181053 136.543174 
L 159.268134 136.543175 
L 176.355215 136.543175 
L 193.442297 136.543177 
L 210.529378 136.543178 
L 227.616459 136.543179 
L 244.703541 136.543181 
L 261.790622 136.543182 
L 278.877703 136.543184 
L 295.964785 136.543186 
L 313.051866 136.543189 
L 330.138947 136.543191 
L 347.226029 136.543194 
L 364.31311 136.543197 
L 381.400191 136.5432 
L 398.487273 136.543203 
" clip-path="url(#pca3fccf0dc)" style="fill: none; stroke: #e377c2; stroke-width: 1.5; stroke-linecap: square"/>
   </g>
   <g id="line2d_43">
    <path d="M 73.832727 136.547806 
L 90.919809 136.547806 
L 108.00689 136.547806 
L 125.093971 136.547806 
L 142.181053 136.547806 
L 159.268134 136.547806 
L 176.355215 136.547806 
L 193.442297 136.547806 
L 210.529378 136.547806 
L 227.616459 136.547806 
L 244.703541 136.547806 
L 261.790622 136.547806 
L 278.877703 136.547806 
L 295.964785 136.547806 
L 313.051866 136.547806 
L 330.138947 136.547806 
L 347.226029 136.547806 
L 364.31311 136.547806 
L 381.400191 136.547806 
L 398.487273 136.547807 
" clip-path="url(#pca3fccf0dc)" style="fill: none; stroke: #7f7f7f; stroke-width: 1.5; stroke-linecap: square"/>
   </g>
   <g id="line2d_44">
    <path d="M 73.832727 139.813158 
L 90.919809 139.811038 
L 108.00689 139.809036 
L 125.093971 139.80715 
L 142.181053 139.805379 
L 159.268134 139.803724 
L 176.355215 139.802181 
L 193.442297 139.800752 
L 210.529378 139.799436 
L 227.616459 139.798231 
L 244.703541 139.797137 
L 261.790622 139.796154 
L 278.877703 139.795281 
L 295.964785 139.794518 
L 313.051866 139.793865 
L 330.138947 139.79332 
L 347.226029 139.792885 
L 364.31311 139.792559 
L 381.400191 139.792342 
L 398.487273 139.792233 
" clip-path="url(#pca3fccf0dc)" style="fill: none; stroke: #bcbd22; stroke-width: 1.5; stroke-linecap: square"/>
   </g>
   <g id="line2d_45">
    <path d="M 73.832727 140.316133 
L 90.919809 140.316044 
L 108.00689 140.315958 
L 125.093971 140.315878 
L 142.181053 140.315802 
L 159.268134 140.31573 
L 176.355215 140.315664 
L 193.442297 140.315601 
L 210.529378 140.315544 
L 227.616459 140.315491 
L 244.703541 140.315443 
L 261.790622 140.3154 
L 278.877703 140.315361 
L 295.964785 140.315327 
L 313.051866 140.315298 
L 330.138947 140.315274 
L 347.226029 140.315255 
L 364.31311 140.31524 
L 381.400191 140.31523 
L 398.487273 140.315226 
" clip-path="url(#pca3fccf0dc)" style="fill: none; stroke: #17becf; stroke-width: 1.5; stroke-linecap: square"/>
   </g>
   <g id="line2d_46">
    <path d="M 73.832727 140.325345 
L 90.919809 140.325343 
L 108.00689 140.325341 
L 125.093971 140.325339 
L 142.181053 140.325338 
L 159.268134 140.325336 
L 176.355215 140.325334 
L 193.442297 140.325332 
L 210.529378 140.32533 
L 227.616459 140.325329 
L 244.703541 140.325327 
L 261.790622 140.325326 
L 278.877703 140.325324 
L 295.964785 140.325323 
L 313.051866 140.325322 
L 330.138947 140.325321 
L 347.226029 140.325321 
L 364.31311 140.32532 
L 381.400191 140.32532 
L 398.487273 140.325319 
" clip-path="url(#pca3fccf0dc)" style="fill: none; stroke: #1f77b4; stroke-width: 1.5; stroke-linecap: square"/>
   </g>
   <g id="line2d_47">
    <path d="M 73.832727 140.325513 
L 90.919809 140.325513 
L 108.00689 140.325513 
L 125.093971 140.325513 
L 142.181053 140.325513 
L 159.268134 140.325513 
L 176.355215 140.325513 
L 193.442297 140.325513 
L 210.529378 140.325513 
L 227.616459 140.325513 
L 244.703541 140.325513 
L 261.790622 140.325513 
L 278.877703 140.325512 
L 295.964785 140.325512 
L 313.051866 140.325512 
L 330.138947 140.325512 
L 347.226029 140.325512 
L 364.31311 140.325512 
L 381.400191 140.325512 
L 398.487273 140.325512 
" clip-path="url(#pca3fccf0dc)" style="fill: none; stroke: #ff7f0e; stroke-width: 1.5; stroke-linecap: square"/>
   </g>
   <g id="line2d_48">
    <path d="M 73.832727 140.325517 
L 90.919809 140.325517 
L 108.00689 140.325517 
L 125.093971 140.325516 
L 142.181053 140.325516 
L 159.268134 140.325516 
L 176.355215 140.325516 
L 193.442297 140.325516 
L 210.529378 140.325516 
L 227.616459 140.325516 
L 244.703541 140.325516 
L 261.790622 140.325516 
L 278.877703 140.325516 
L 295.964785 140.325516 
L 313.051866 140.325516 
L 330.138947 140.325516 
L 347.226029 140.325516 
L 364.31311 140.325516 
L 381.400191 140.325516 
L 398.487273 140.325516 
" clip-path="url(#pca3fccf0dc)" style="fill: none; stroke: #2ca02c; stroke-width: 1.5; stroke-linecap: square"/>
   </g>
   <g id="patch_10">
    <path d="M 57.6 142.411034 
L 57.6 96.529655 
" style="fill: none; stroke: #000000; stroke-width: 0.8; stroke-linejoin: miter; stroke-linecap: square"/>
   </g>
   <g id="patch_11">
    <path d="M 414.72 142.411034 
L 414.72 96.529655 
" style="fill: none; stroke: #000000; stroke-width: 0.8; stroke-linejoin: miter; stroke-linecap: square"/>
   </g>
   <g id="patch_12">
    <path d="M 57.6 142.411034 
L 414.72 142.411034 
" style="fill: none; stroke: #000000; stroke-width: 0.8; stroke-linejoin: miter; stroke-linecap: square"/>
   </g>
   <g id="patch_13">
    <path d="M 57.6 96.529655 
L 414.72 96.529655 
" style="fill: none; stroke: #000000; stroke-width: 0.8; stroke-linejoin: miter; stroke-linecap: square"/>
   </g>
   <g id="text_10">
    <!-- Pressure - Container 1 -->
    <g transform="translate(169.523438 93.529655)scale(0.12 -0.12)">
     <defs>
      <path id="DejaVuSans-50" d="M 1259 4147 
L 1259 2394 
L 2053 2394 
Q 2494 2394 2734 2622 
Q 2975 2850 2975 3272 
Q 2975 3691 2734 3919 
Q 2494 4147 2053 4147 
L 1259 4147 
z
M 628 4666 
L 2053 4666 
Q 2838 4666 3239 4311 
Q 3641 3956 3641 3272 
Q 3641 2581 3239 2228 
Q 2838 1875 2053 1875 
L 1259 1875 
L 1259 0 
L 628 0 
L 628 4666 
z
" transform="scale(0.015625)"/>
      <path id="DejaVuSans-75" d="M 544 1381 
L 544 3500 
L 1119 3500 
L 1119 1403 
Q 1119 906 1312 657 
Q 1506 409 1894 409 
Q 2359 409 2629 706 
Q 2900 1003 2900 1516 
L 2900 3500 
L 3475 3500 
L 3475 0 
L 2900 0 
L 2900 538 
Q 2691 219 2414 64 
Q 2138 -91 1772 -91 
Q 1169 -91 856 284 
Q 544 659 544 1381 
z
M 1991 3584 
L 1991 3584 
z
" transform="scale(0.015625)"/>
     </defs>
     <use xlink:href="#DejaVuSans-50"/>
     <use xlink:href="#DejaVuSans-72" x="58.552734"/>
     <use xlink:href="#DejaVuSans-65" x="97.416016"/>
     <use xlink:href="#DejaVuSans-73" x="158.939453"/>
     <use xlink:href="#DejaVuSans-73" x="211.039062"/>
     <use xlink:href="#DejaVuSans-75" x="263.138672"/>
     <use xlink:href="#DejaVuSans-72" x="326.517578"/>
     <use xlink:href="#DejaVuSans-65" x="365.380859"/>
     <use xlink:href="#DejaVuSans-20" x="426.904297"/>
     <use xlink:href="#DejaVuSans-2d" x="458.691406"/>
     <use xlink:href="#DejaVuSans-20" x="494.775391"/>
     <use xlink:href="#DejaVuSans-43" x="526.5625"/>
     <use xlink:href="#DejaVuSans-6f" x="596.386719"/>
     <use xlink:href="#DejaVuSans-6e" x="657.568359"/>
     <use xlink:href="#DejaVuSans-74" x="720.947266"/>
     <use xlink:href="#DejaVuSans-61" x="760.15625"/>
     <use xlink:href="#DejaVuSans-69" x="821.435547"/>
     <use xlink:href="#DejaVuSans-6e" x="849.21875"/>
     <use xlink:href="#DejaVuSans-65" x="912.597656"/>
     <use xlink:href="#DejaVuSans-72" x="974.121094"/>
     <use xlink:href="#DejaVuSans-20" x="1015.234375"/>
     <use xlink:href="#DejaVuSans-31" x="1047.021484"/>
    </g>
   </g>
  </g>
  <g id="axes_4">
   <g id="patch_14">
    <path d="M 57.6 197.46869 
L 414.72 197.46869 
L 414.72 151.58731 
L 57.6 151.58731 
z
" style="fill: #ffffff"/>
   </g>
   <g id="matplotlib.axis_7">
    <g id="xtick_17">
     <g id="line2d_49">
      <g>
       <use xlink:href="#m2258de82f0" x="73.832727" y="197.46869" style="stroke: #000000; stroke-width: 0.8"/>
      </g>
     </g>
    </g>
    <g id="xtick_18">
     <g id="line2d_50">
      <g>
       <use xlink:href="#m2258de82f0" x="116.550431" y="197.46869" style="stroke: #000000; stroke-width: 0.8"/>
      </g>
     </g>
    </g>
    <g id="xtick_19">
     <g id="line2d_51">
      <g>
       <use xlink:href="#m2258de82f0" x="159.268134" y="197.46869" style="stroke: #000000; stroke-width: 0.8"/>
      </g>
     </g>
    </g>
    <g id="xtick_20">
     <g id="line2d_52">
      <g>
       <use xlink:href="#m2258de82f0" x="201.985837" y="197.46869" style="stroke: #000000; stroke-width: 0.8"/>
      </g>
     </g>
    </g>
    <g id="xtick_21">
     <g id="line2d_53">
      <g>
       <use xlink:href="#m2258de82f0" x="244.703541" y="197.46869" style="stroke: #000000; stroke-width: 0.8"/>
      </g>
     </g>
    </g>
    <g id="xtick_22">
     <g id="line2d_54">
      <g>
       <use xlink:href="#m2258de82f0" x="287.421244" y="197.46869" style="stroke: #000000; stroke-width: 0.8"/>
      </g>
     </g>
    </g>
    <g id="xtick_23">
     <g id="line2d_55">
      <g>
       <use xlink:href="#m2258de82f0" x="330.138947" y="197.46869" style="stroke: #000000; stroke-width: 0.8"/>
      </g>
     </g>
    </g>
    <g id="xtick_24">
     <g id="line2d_56">
      <g>
       <use xlink:href="#m2258de82f0" x="372.856651" y="197.46869" style="stroke: #000000; stroke-width: 0.8"/>
      </g>
     </g>
    </g>
   </g>
   <g id="matplotlib.axis_8">
    <g id="ytick_7">
     <g id="line2d_57">
      <g>
       <use xlink:href="#mf4b0192416" x="57.6" y="192.425918" style="stroke: #000000; stroke-width: 0.8"/>
      </g>
     </g>
     <g id="text_11">
      <!-- 0.04999 -->
      <g transform="translate(9.246875 196.225137)scale(0.1 -0.1)">
       <defs>
        <path id="DejaVuSans-2e" d="M 684 794 
L 1344 794 
L 1344 0 
L 684 0 
L 684 794 
z
" transform="scale(0.015625)"/>
        <path id="DejaVuSans-34" d="M 2419 4116 
L 825 1625 
L 2419 1625 
L 2419 4116 
z
M 2253 4666 
L 3047 4666 
L 3047 1625 
L 3713 1625 
L 3713 1100 
L 3047 1100 
L 3047 0 
L 2419 0 
L 2419 1100 
L 313 1100 
L 313 1709 
L 2253 4666 
z
" transform="scale(0.015625)"/>
        <path id="DejaVuSans-39" d="M 703 97 
L 703 672 
Q 941 559 1184 500 
Q 1428 441 1663 441 
Q 2288 441 2617 861 
Q 2947 1281 2994 2138 
Q 2813 1869 2534 1725 
Q 2256 1581 1919 1581 
Q 1219 1581 811 2004 
Q 403 2428 403 3163 
Q 403 3881 828 4315 
Q 1253 4750 1959 4750 
Q 2769 4750 3195 4129 
Q 3622 3509 3622 2328 
Q 3622 1225 3098 567 
Q 2575 -91 1691 -91 
Q 1453 -91 1209 -44 
Q 966 3 703 97 
z
M 1959 2075 
Q 2384 2075 2632 2365 
Q 2881 2656 2881 3163 
Q 2881 3666 2632 3958 
Q 2384 4250 1959 4250 
Q 1534 4250 1286 3958 
Q 1038 3666 1038 3163 
Q 1038 2656 1286 2365 
Q 1534 2075 1959 2075 
z
" transform="scale(0.015625)"/>
       </defs>
       <use xlink:href="#DejaVuSans-30"/>
       <use xlink:href="#DejaVuSans-2e" x="63.623047"/>
       <use xlink:href="#DejaVuSans-30" x="95.410156"/>
       <use xlink:href="#DejaVuSans-34" x="159.033203"/>
       <use xlink:href="#DejaVuSans-39" x="222.65625"/>
       <use xlink:href="#DejaVuSans-39" x="286.279297"/>
       <use xlink:href="#DejaVuSans-39" x="349.902344"/>
      </g>
     </g>
    </g>
    <g id="ytick_8">
     <g id="line2d_58">
      <g>
       <use xlink:href="#mf4b0192416" x="57.6" y="165.852973" style="stroke: #000000; stroke-width: 0.8"/>
      </g>
     </g>
     <g id="text_12">
      <!-- 0.05000 -->
      <g transform="translate(9.246875 169.652192)scale(0.1 -0.1)">
       <defs>
        <path id="DejaVuSans-35" d="M 691 4666 
L 3169 4666 
L 3169 4134 
L 1269 4134 
L 1269 2991 
Q 1406 3038 1543 3061 
Q 1681 3084 1819 3084 
Q 2600 3084 3056 2656 
Q 3513 2228 3513 1497 
Q 3513 744 3044 326 
Q 2575 -91 1722 -91 
Q 1428 -91 1123 -41 
Q 819 9 494 109 
L 494 744 
Q 775 591 1075 516 
Q 1375 441 1709 441 
Q 2250 441 2565 725 
Q 2881 1009 2881 1497 
Q 2881 1984 2565 2268 
Q 2250 2553 1709 2553 
Q 1456 2553 1204 2497 
Q 953 2441 691 2322 
L 691 4666 
z
" transform="scale(0.015625)"/>
       </defs>
       <use xlink:href="#DejaVuSans-30"/>
       <use xlink:href="#DejaVuSans-2e" x="63.623047"/>
       <use xlink:href="#DejaVuSans-30" x="95.410156"/>
       <use xlink:href="#DejaVuSans-35" x="159.033203"/>
       <use xlink:href="#DejaVuSans-30" x="222.65625"/>
       <use xlink:href="#DejaVuSans-30" x="286.279297"/>
       <use xlink:href="#DejaVuSans-30" x="349.902344"/>
      </g>
     </g>
    </g>
   </g>
   <g id="line2d_59">
    <path d="M 73.832727 165.097587 
L 90.919809 165.097576 
L 108.00689 165.097516 
L 125.093971 165.097361 
L 142.181053 165.097084 
L 159.268134 165.096697 
L 176.355215 165.096233 
L 193.442297 165.095734 
L 210.529378 165.095235 
L 227.616459 165.094757 
L 244.703541 165.094314 
L 261.790622 165.093913 
L 278.877703 165.093555 
L 295.964785 165.093241 
L 313.051866 165.092973 
L 330.138947 165.09275 
L 347.226029 165.092571 
L 364.31311 165.092437 
L 381.400191 165.092346 
L 398.487273 165.092301 
" clip-path="url(#p65a2804bfa)" style="fill: none; stroke: #1f77b4; stroke-width: 1.5; stroke-linecap: square"/>
   </g>
   <g id="line2d_60">
    <path d="M 73.832727 195.383172 
L 90.919809 164.438887 
L 108.00689 156.138675 
L 125.093971 153.672828 
L 142.181053 154.789302 
L 159.268134 158.095495 
L 176.355215 161.803963 
L 193.442297 164.584647 
L 210.529378 166.043554 
L 227.616459 166.485092 
L 244.703541 166.413887 
L 261.790622 166.205228 
L 278.877703 166.03238 
L 295.964785 165.932147 
L 313.051866 165.886252 
L 330.138947 165.86843 
L 347.226029 165.85908 
L 364.31311 165.844916 
L 381.400191 165.819835 
L 398.487273 165.794441 
" clip-path="url(#p65a2804bfa)" style="fill: none; stroke: #ff7f0e; stroke-width: 1.5; stroke-linecap: square"/>
   </g>
   <g id="line2d_61">
    <path d="M 73.832727 165.824705 
L 90.919809 165.819663 
L 108.00689 165.846501 
L 125.093971 165.914978 
L 142.181053 166.032485 
L 159.268134 166.199899 
L 176.355215 166.409381 
L 193.442297 166.64517 
L 210.529378 166.886696 
L 227.616459 167.112675 
L 244.703541 167.30482 
L 261.790622 167.450336 
L 278.877703 167.542874 
L 295.964785 167.582133 
L 313.051866 167.572592 
L 330.138947 167.521861 
L 347.226029 167.439071 
L 364.31311 167.333563 
L 381.400191 167.213968 
L 398.487273 167.088821 
" clip-path="url(#p65a2804bfa)" style="fill: none; stroke: #2ca02c; stroke-width: 1.5; stroke-linecap: square"/>
   </g>
   <g id="line2d_62">
    <path d="M 73.832727 165.852082 
L 90.919809 165.851604 
L 108.00689 165.851438 
L 125.093971 165.851447 
L 142.181053 165.851521 
L 159.268134 165.851586 
L 176.355215 165.85161 
L 193.442297 165.851587 
L 210.529378 165.851527 
L 227.616459 165.851444 
L 244.703541 165.851349 
L 261.790622 165.851249 
L 278.877703 165.851146 
L 295.964785 165.85104 
L 313.051866 165.850931 
L 330.138947 165.850819 
L 347.226029 165.850703 
L 364.31311 165.850584 
L 381.400191 165.850462 
L 398.487273 165.850338 
" clip-path="url(#p65a2804bfa)" style="fill: none; stroke: #d62728; stroke-width: 1.5; stroke-linecap: square"/>
   </g>
   <g id="line2d_63">
    <path d="M 73.832727 165.851826 
L 90.919809 165.852169 
L 108.00689 165.852491 
L 125.093971 165.852737 
L 142.181053 165.852904 
L 159.268134 165.853005 
L 176.355215 165.853058 
L 193.442297 165.853077 
L 210.529378 165.853079 
L 227.616459 165.853067 
L 244.703541 165.853053 
L 261.790622 165.853039 
L 278.877703 165.853026 
L 295.964785 165.85301 
L 313.051866 165.852997 
L 330.138947 165.852985 
L 347.226029 165.852977 
L 364.31311 165.852969 
L 381.400191 165.852962 
L 398.487273 165.852903 
" clip-path="url(#p65a2804bfa)" style="fill: none; stroke: #9467bd; stroke-width: 1.5; stroke-linecap: square"/>
   </g>
   <g id="line2d_64">
    <path d="M 73.832727 165.855462 
L 90.919809 165.855648 
L 108.00689 165.855899 
L 125.093971 165.856152 
L 142.181053 165.856376 
L 159.268134 165.856566 
L 176.355215 165.856723 
L 193.442297 165.85685 
L 210.529378 165.856958 
L 227.616459 165.857046 
L 244.703541 165.857129 
L 261.790622 165.857192 
L 278.877703 165.85725 
L 295.964785 165.857291 
L 313.051866 165.857348 
L 330.138947 165.857378 
L 347.226029 165.857421 
L 364.31311 165.857426 
L 381.400191 165.857455 
L 398.487273 165.85746 
" clip-path="url(#p65a2804bfa)" style="fill: none; stroke: #8c564b; stroke-width: 1.5; stroke-linecap: square"/>
   </g>
   <g id="line2d_65">
    <path d="M 73.832727 165.85654 
L 90.919809 165.856636 
L 108.00689 165.8568 
L 125.093971 165.856995 
L 142.181053 165.857197 
L 159.268134 165.857377 
L 176.355215 165.857525 
L 193.442297 165.857665 
L 210.529378 165.857811 
L 227.616459 165.857923 
L 244.703541 165.858033 
L 261.790622 165.857994 
L 278.877703 165.857949 
L 295.964785 165.858082 
L 313.051866 165.858431 
L 330.138947 165.858458 
L 347.226029 165.85813 
L 364.31311 165.85818 
L 381.400191 165.858442 
L 398.487273 165.859997 
" clip-path="url(#p65a2804bfa)" style="fill: none; stroke: #e377c2; stroke-width: 1.5; stroke-linecap: square"/>
   </g>
   <g id="line2d_66">
    <path d="M 73.832727 165.856676 
L 90.919809 165.856743 
L 108.00689 165.856865 
L 125.093971 165.857022 
L 142.181053 165.857192 
L 159.268134 165.85736 
L 176.355215 165.857517 
L 193.442297 165.857658 
L 210.529378 165.857783 
L 227.616459 165.857886 
L 244.703541 165.857966 
L 261.790622 165.858034 
L 278.877703 165.858076 
L 295.964785 165.858144 
L 313.051866 165.858246 
L 330.138947 165.858384 
L 347.226029 165.858366 
L 364.31311 165.858547 
L 381.400191 165.858519 
L 398.487273 165.858789 
" clip-path="url(#p65a2804bfa)" style="fill: none; stroke: #7f7f7f; stroke-width: 1.5; stroke-linecap: square"/>
   </g>
   <g id="line2d_67">
    <path d="M 73.832727 165.901681 
L 90.919809 165.901595 
L 108.00689 165.901515 
L 125.093971 165.901441 
L 142.181053 165.901371 
L 159.268134 165.901307 
L 176.355215 165.901249 
L 193.442297 165.901197 
L 210.529378 165.901149 
L 227.616459 165.901108 
L 244.703541 165.901073 
L 261.790622 165.90104 
L 278.877703 165.901011 
L 295.964785 165.900987 
L 313.051866 165.90097 
L 330.138947 165.900959 
L 347.226029 165.900945 
L 364.31311 165.900941 
L 381.400191 165.900939 
L 398.487273 165.90094 
" clip-path="url(#p65a2804bfa)" style="fill: none; stroke: #bcbd22; stroke-width: 1.5; stroke-linecap: square"/>
   </g>
   <g id="line2d_68">
    <path d="M 73.832727 165.378934 
L 90.919809 165.379149 
L 108.00689 165.379452 
L 125.093971 165.379755 
L 142.181053 165.38006 
L 159.268134 165.38035 
L 176.355215 165.380624 
L 193.442297 165.380883 
L 210.529378 165.381127 
L 227.616459 165.381351 
L 244.703541 165.381559 
L 261.790622 165.381749 
L 278.877703 165.381916 
L 295.964785 165.382072 
L 313.051866 165.382203 
L 330.138947 165.382318 
L 347.226029 165.382411 
L 364.31311 165.382483 
L 381.400191 165.382533 
L 398.487273 165.382558 
" clip-path="url(#p65a2804bfa)" style="fill: none; stroke: #17becf; stroke-width: 1.5; stroke-linecap: square"/>
   </g>
   <g id="line2d_69">
    <path d="M 73.832727 165.112523 
L 90.919809 165.112334 
L 108.00689 165.111872 
L 125.093971 165.111266 
L 142.181053 165.110613 
L 159.268134 165.109981 
L 176.355215 165.109394 
L 193.442297 165.108854 
L 210.529378 165.108362 
L 227.616459 165.107913 
L 244.703541 165.107504 
L 261.790622 165.107142 
L 278.877703 165.106825 
L 295.964785 165.106546 
L 313.051866 165.10631 
L 330.138947 165.106115 
L 347.226029 165.105961 
L 364.31311 165.105843 
L 381.400191 165.105761 
L 398.487273 165.105719 
" clip-path="url(#p65a2804bfa)" style="fill: none; stroke: #1f77b4; stroke-width: 1.5; stroke-linecap: square"/>
   </g>
   <g id="line2d_70">
    <path d="M 73.832727 165.100599 
L 90.919809 165.100522 
L 108.00689 165.100285 
L 125.093971 165.099874 
L 142.181053 165.099336 
L 159.268134 165.09874 
L 176.355215 165.098134 
L 193.442297 165.097551 
L 210.529378 165.097004 
L 227.616459 165.096502 
L 244.703541 165.096048 
L 261.790622 165.095641 
L 278.877703 165.09528 
L 295.964785 165.094966 
L 313.051866 165.094699 
L 330.138947 165.094476 
L 347.226029 165.094297 
L 364.31311 165.094161 
L 381.400191 165.094071 
L 398.487273 165.094025 
" clip-path="url(#p65a2804bfa)" style="fill: none; stroke: #ff7f0e; stroke-width: 1.5; stroke-linecap: square"/>
   </g>
   <g id="line2d_71">
    <path d="M 73.832727 165.099252 
L 90.919809 165.099211 
L 108.00689 165.099071 
L 125.093971 165.098799 
L 142.181053 165.098406 
L 159.268134 165.097928 
L 176.355215 165.097407 
L 193.442297 165.096877 
L 210.529378 165.096361 
L 227.616459 165.095875 
L 244.703541 165.095427 
L 261.790622 165.095021 
L 278.877703 165.09466 
L 295.964785 165.094343 
L 313.051866 165.094072 
L 330.138947 165.093845 
L 347.226029 165.093663 
L 364.31311 165.093525 
L 381.400191 165.093433 
L 398.487273 165.093386 
" clip-path="url(#p65a2804bfa)" style="fill: none; stroke: #2ca02c; stroke-width: 1.5; stroke-linecap: square"/>
   </g>
   <g id="patch_15">
    <path d="M 57.6 197.46869 
L 57.6 151.58731 
" style="fill: none; stroke: #000000; stroke-width: 0.8; stroke-linejoin: miter; stroke-linecap: square"/>
   </g>
   <g id="patch_16">
    <path d="M 414.72 197.46869 
L 414.72 151.58731 
" style="fill: none; stroke: #000000; stroke-width: 0.8; stroke-linejoin: miter; stroke-linecap: square"/>
   </g>
   <g id="patch_17">
    <path d="M 57.6 197.46869 
L 414.72 197.46869 
" style="fill: none; stroke: #000000; stroke-width: 0.8; stroke-linejoin: miter; stroke-linecap: square"/>
   </g>
   <g id="patch_18">
    <path d="M 57.6 151.58731 
L 414.72 151.58731 
" style="fill: none; stroke: #000000; stroke-width: 0.8; stroke-linejoin: miter; stroke-linecap: square"/>
   </g>
   <g id="text_13">
    <!-- yA - Container 1 -->
    <g transform="translate(187.48125 148.58731)scale(0.12 -0.12)">
     <defs>
      <path id="DejaVuSans-41" d="M 2188 4044 
L 1331 1722 
L 3047 1722 
L 2188 4044 
z
M 1831 4666 
L 2547 4666 
L 4325 0 
L 3669 0 
L 3244 1197 
L 1141 1197 
L 716 0 
L 50 0 
L 1831 4666 
z
" transform="scale(0.015625)"/>
     </defs>
     <use xlink:href="#DejaVuSans-79"/>
     <use xlink:href="#DejaVuSans-41" x="59.179688"/>
     <use xlink:href="#DejaVuSans-20" x="127.587891"/>
     <use xlink:href="#DejaVuSans-2d" x="159.375"/>
     <use xlink:href="#DejaVuSans-20" x="195.458984"/>
     <use xlink:href="#DejaVuSans-43" x="227.246094"/>
     <use xlink:href="#DejaVuSans-6f" x="297.070312"/>
     <use xlink:href="#DejaVuSans-6e" x="358.251953"/>
     <use xlink:href="#DejaVuSans-74" x="421.630859"/>
     <use xlink:href="#DejaVuSans-61" x="460.839844"/>
     <use xlink:href="#DejaVuSans-69" x="522.119141"/>
     <use xlink:href="#DejaVuSans-6e" x="549.902344"/>
     <use xlink:href="#DejaVuSans-65" x="613.28125"/>
     <use xlink:href="#DejaVuSans-72" x="674.804688"/>
     <use xlink:href="#DejaVuSans-20" x="715.917969"/>
     <use xlink:href="#DejaVuSans-31" x="747.705078"/>
    </g>
   </g>
  </g>
  <g id="axes_5">
   <g id="patch_19">
    <path d="M 57.6 252.526345 
L 414.72 252.526345 
L 414.72 206.644966 
L 57.6 206.644966 
z
" style="fill: #ffffff"/>
   </g>
   <g id="matplotlib.axis_9">
    <g id="xtick_25">
     <g id="line2d_72">
      <g>
       <use xlink:href="#m2258de82f0" x="73.832727" y="252.526345" style="stroke: #000000; stroke-width: 0.8"/>
      </g>
     </g>
    </g>
    <g id="xtick_26">
     <g id="line2d_73">
      <g>
       <use xlink:href="#m2258de82f0" x="116.550431" y="252.526345" style="stroke: #000000; stroke-width: 0.8"/>
      </g>
     </g>
    </g>
    <g id="xtick_27">
     <g id="line2d_74">
      <g>
       <use xlink:href="#m2258de82f0" x="159.268134" y="252.526345" style="stroke: #000000; stroke-width: 0.8"/>
      </g>
     </g>
    </g>
    <g id="xtick_28">
     <g id="line2d_75">
      <g>
       <use xlink:href="#m2258de82f0" x="201.985837" y="252.526345" style="stroke: #000000; stroke-width: 0.8"/>
      </g>
     </g>
    </g>
    <g id="xtick_29">
     <g id="line2d_76">
      <g>
       <use xlink:href="#m2258de82f0" x="244.703541" y="252.526345" style="stroke: #000000; stroke-width: 0.8"/>
      </g>
     </g>
    </g>
    <g id="xtick_30">
     <g id="line2d_77">
      <g>
       <use xlink:href="#m2258de82f0" x="287.421244" y="252.526345" style="stroke: #000000; stroke-width: 0.8"/>
      </g>
     </g>
    </g>
    <g id="xtick_31">
     <g id="line2d_78">
      <g>
       <use xlink:href="#m2258de82f0" x="330.138947" y="252.526345" style="stroke: #000000; stroke-width: 0.8"/>
      </g>
     </g>
    </g>
    <g id="xtick_32">
     <g id="line2d_79">
      <g>
       <use xlink:href="#m2258de82f0" x="372.856651" y="252.526345" style="stroke: #000000; stroke-width: 0.8"/>
      </g>
     </g>
    </g>
   </g>
   <g id="matplotlib.axis_10">
    <g id="ytick_9">
     <g id="line2d_80">
      <g>
       <use xlink:href="#mf4b0192416" x="57.6" y="239.889617" style="stroke: #000000; stroke-width: 0.8"/>
      </g>
     </g>
     <g id="text_14">
      <!-- 0.9000 -->
      <g transform="translate(15.609375 243.688836)scale(0.1 -0.1)">
       <use xlink:href="#DejaVuSans-30"/>
       <use xlink:href="#DejaVuSans-2e" x="63.623047"/>
       <use xlink:href="#DejaVuSans-39" x="95.410156"/>
       <use xlink:href="#DejaVuSans-30" x="159.033203"/>
       <use xlink:href="#DejaVuSans-30" x="222.65625"/>
       <use xlink:href="#DejaVuSans-30" x="286.279297"/>
      </g>
     </g>
    </g>
    <g id="ytick_10">
     <g id="line2d_81">
      <g>
       <use xlink:href="#mf4b0192416" x="57.6" y="207.137552" style="stroke: #000000; stroke-width: 0.8"/>
      </g>
     </g>
     <g id="text_15">
      <!-- 0.9005 -->
      <g transform="translate(15.609375 210.936771)scale(0.1 -0.1)">
       <use xlink:href="#DejaVuSans-30"/>
       <use xlink:href="#DejaVuSans-2e" x="63.623047"/>
       <use xlink:href="#DejaVuSans-39" x="95.410156"/>
       <use xlink:href="#DejaVuSans-30" x="159.033203"/>
       <use xlink:href="#DejaVuSans-30" x="222.65625"/>
       <use xlink:href="#DejaVuSans-35" x="286.279297"/>
      </g>
     </g>
    </g>
   </g>
   <g id="line2d_82">
    <path d="M 73.832727 240.262711 
L 90.919809 240.262773 
L 108.00689 240.262889 
L 125.093971 240.263049 
L 142.181053 240.263237 
L 159.268134 240.26344 
L 176.355215 240.263645 
L 193.442297 240.263844 
L 210.529378 240.264031 
L 227.616459 240.264204 
L 244.703541 240.264362 
L 261.790622 240.264503 
L 278.877703 240.264628 
L 295.964785 240.264736 
L 313.051866 240.264829 
L 330.138947 240.264905 
L 347.226029 240.264965 
L 364.31311 240.26501 
L 381.400191 240.26504 
L 398.487273 240.265055 
" clip-path="url(#pd517dd939a)" style="fill: none; stroke: #1f77b4; stroke-width: 1.5; stroke-linecap: square"/>
   </g>
   <g id="line2d_83">
    <path d="M 73.832727 208.730483 
L 90.919809 240.290793 
L 108.00689 248.257804 
L 125.093971 250.440828 
L 142.181053 249.409207 
L 159.268134 246.524561 
L 176.355215 243.349187 
L 193.442297 240.99487 
L 210.529378 239.766735 
L 227.616459 239.391964 
L 244.703541 239.443358 
L 261.790622 239.60898 
L 278.877703 239.746497 
L 295.964785 239.825948 
L 313.051866 239.862024 
L 330.138947 239.875465 
L 347.226029 239.880959 
L 364.31311 239.887366 
L 381.400191 239.898639 
L 398.487273 239.910308 
" clip-path="url(#pd517dd939a)" style="fill: none; stroke: #ff7f0e; stroke-width: 1.5; stroke-linecap: square"/>
   </g>
   <g id="line2d_84">
    <path d="M 73.832727 239.888044 
L 90.919809 239.876949 
L 108.00689 239.84403 
L 125.093971 239.774739 
L 142.181053 239.657505 
L 159.268134 239.488502 
L 176.355215 239.273814 
L 193.442297 239.028411 
L 210.529378 238.772759 
L 227.616459 238.528511 
L 244.703541 238.314669 
L 261.790622 238.145036 
L 278.877703 238.027205 
L 295.964785 237.962848 
L 313.051866 237.948853 
L 330.138947 237.978829 
L 347.226029 238.044595 
L 364.31311 238.137433 
L 381.400191 238.248991 
L 398.487273 238.370652 
" clip-path="url(#pd517dd939a)" style="fill: none; stroke: #2ca02c; stroke-width: 1.5; stroke-linecap: square"/>
   </g>
   <g id="line2d_85">
    <path d="M 73.832727 239.889638 
L 90.919809 239.889649 
L 108.00689 239.889653 
L 125.093971 239.889653 
L 142.181053 239.889651 
L 159.268134 239.88965 
L 176.355215 239.889649 
L 193.442297 239.88965 
L 210.529378 239.889651 
L 227.616459 239.889653 
L 244.703541 239.889655 
L 261.790622 239.889657 
L 278.877703 239.889659 
L 295.964785 239.88966 
L 313.051866 239.889661 
L 330.138947 239.889661 
L 347.226029 239.88966 
L 364.31311 239.889657 
L 381.400191 239.889652 
L 398.487273 239.889644 
" clip-path="url(#pd517dd939a)" style="fill: none; stroke: #d62728; stroke-width: 1.5; stroke-linecap: square"/>
   </g>
   <g id="line2d_86">
    <path d="M 73.832727 239.889698 
L 90.919809 239.88969 
L 108.00689 239.889683 
L 125.093971 239.889677 
L 142.181053 239.889673 
L 159.268134 239.88967 
L 176.355215 239.88967 
L 193.442297 239.889669 
L 210.529378 239.889669 
L 227.616459 239.889669 
L 244.703541 239.889669 
L 261.790622 239.88967 
L 278.877703 239.88967 
L 295.964785 239.88967 
L 313.051866 239.88967 
L 330.138947 239.889671 
L 347.226029 239.889672 
L 364.31311 239.889671 
L 381.400191 239.889671 
L 398.487273 239.889692 
" clip-path="url(#pd517dd939a)" style="fill: none; stroke: #9467bd; stroke-width: 1.5; stroke-linecap: square"/>
   </g>
   <g id="line2d_87">
    <path d="M 73.832727 239.892294 
L 90.919809 239.89229 
L 108.00689 239.892284 
L 125.093971 239.892278 
L 142.181053 239.892273 
L 159.268134 239.892269 
L 176.355215 239.892264 
L 193.442297 239.892262 
L 210.529378 239.892257 
L 227.616459 239.892258 
L 244.703541 239.892255 
L 261.790622 239.892253 
L 278.877703 239.892254 
L 295.964785 239.89225 
L 313.051866 239.892253 
L 330.138947 239.892251 
L 347.226029 239.892248 
L 364.31311 239.892248 
L 381.400191 239.892271 
L 398.487273 239.892209 
" clip-path="url(#pd517dd939a)" style="fill: none; stroke: #8c564b; stroke-width: 1.5; stroke-linecap: square"/>
   </g>
   <g id="line2d_88">
    <path d="M 73.832727 239.893055 
L 90.919809 239.893053 
L 108.00689 239.893049 
L 125.093971 239.893046 
L 142.181053 239.89304 
L 159.268134 239.893032 
L 176.355215 239.893026 
L 193.442297 239.89303 
L 210.529378 239.893031 
L 227.616459 239.893047 
L 244.703541 239.893004 
L 261.790622 239.892982 
L 278.877703 239.893033 
L 295.964785 239.893042 
L 313.051866 239.893036 
L 330.138947 239.892985 
L 347.226029 239.892926 
L 364.31311 239.892941 
L 381.400191 239.892376 
L 398.487273 239.890491 
" clip-path="url(#pd517dd939a)" style="fill: none; stroke: #e377c2; stroke-width: 1.5; stroke-linecap: square"/>
   </g>
   <g id="line2d_89">
    <path d="M 73.832727 239.89308 
L 90.919809 239.893078 
L 108.00689 239.893076 
L 125.093971 239.893072 
L 142.181053 239.893067 
L 159.268134 239.893063 
L 176.355215 239.89306 
L 193.442297 239.893058 
L 210.529378 239.893055 
L 227.616459 239.893052 
L 244.703541 239.89305 
L 261.790622 239.89304 
L 278.877703 239.893041 
L 295.964785 239.893041 
L 313.051866 239.893014 
L 330.138947 239.892958 
L 347.226029 239.892802 
L 364.31311 239.892662 
L 381.400191 239.8927 
L 398.487273 239.893041 
" clip-path="url(#pd517dd939a)" style="fill: none; stroke: #7f7f7f; stroke-width: 1.5; stroke-linecap: square"/>
   </g>
   <g id="line2d_90">
    <path d="M 73.832727 239.926238 
L 90.919809 239.926141 
L 108.00689 239.926044 
L 125.093971 239.925951 
L 142.181053 239.925862 
L 159.268134 239.925778 
L 176.355215 239.925701 
L 193.442297 239.925629 
L 210.529378 239.925563 
L 227.616459 239.925504 
L 244.703541 239.925451 
L 261.790622 239.925404 
L 278.877703 239.925364 
L 295.964785 239.92533 
L 313.051866 239.925305 
L 330.138947 239.925287 
L 347.226029 239.925273 
L 364.31311 239.925268 
L 381.400191 239.925268 
L 398.487273 239.92527 
" clip-path="url(#pd517dd939a)" style="fill: none; stroke: #bcbd22; stroke-width: 1.5; stroke-linecap: square"/>
   </g>
   <g id="line2d_91">
    <path d="M 73.832727 240.217792 
L 90.919809 240.217845 
L 108.00689 240.217894 
L 125.093971 240.217928 
L 142.181053 240.217959 
L 159.268134 240.217985 
L 176.355215 240.218009 
L 193.442297 240.218029 
L 210.529378 240.21805 
L 227.616459 240.218064 
L 244.703541 240.218077 
L 261.790622 240.218089 
L 278.877703 240.218101 
L 295.964785 240.218109 
L 313.051866 240.218113 
L 330.138947 240.218119 
L 347.226029 240.218124 
L 364.31311 240.218124 
L 381.400191 240.218123 
L 398.487273 240.218122 
" clip-path="url(#pd517dd939a)" style="fill: none; stroke: #17becf; stroke-width: 1.5; stroke-linecap: square"/>
   </g>
   <g id="line2d_92">
    <path d="M 73.832727 240.260772 
L 90.919809 240.260924 
L 108.00689 240.261152 
L 125.093971 240.26141 
L 142.181053 240.261664 
L 159.268134 240.261906 
L 176.355215 240.262129 
L 193.442297 240.262335 
L 210.529378 240.262523 
L 227.616459 240.262696 
L 244.703541 240.262854 
L 261.790622 240.262994 
L 278.877703 240.263118 
L 295.964785 240.263227 
L 313.051866 240.26332 
L 330.138947 240.263397 
L 347.226029 240.263457 
L 364.31311 240.263503 
L 381.400191 240.263534 
L 398.487273 240.263549 
" clip-path="url(#pd517dd939a)" style="fill: none; stroke: #1f77b4; stroke-width: 1.5; stroke-linecap: square"/>
   </g>
   <g id="line2d_93">
    <path d="M 73.832727 240.26219 
L 90.919809 240.262289 
L 108.00689 240.262463 
L 125.093971 240.26268 
L 142.181053 240.262914 
L 159.268134 240.263148 
L 176.355215 240.263373 
L 193.442297 240.263583 
L 210.529378 240.263777 
L 227.616459 240.263956 
L 244.703541 240.264117 
L 261.790622 240.264262 
L 278.877703 240.26439 
L 295.964785 240.264502 
L 313.051866 240.264597 
L 330.138947 240.264677 
L 347.226029 240.26474 
L 364.31311 240.264787 
L 381.400191 240.264818 
L 398.487273 240.264834 
" clip-path="url(#pd517dd939a)" style="fill: none; stroke: #ff7f0e; stroke-width: 1.5; stroke-linecap: square"/>
   </g>
   <g id="line2d_94">
    <path d="M 73.832727 240.262388 
L 90.919809 240.262466 
L 108.00689 240.262608 
L 125.093971 240.262793 
L 142.181053 240.263002 
L 159.268134 240.263218 
L 176.355215 240.263431 
L 193.442297 240.263635 
L 210.529378 240.263827 
L 227.616459 240.264003 
L 244.703541 240.264164 
L 261.790622 240.264309 
L 278.877703 240.264437 
L 295.964785 240.264549 
L 313.051866 240.264645 
L 330.138947 240.264725 
L 347.226029 240.264788 
L 364.31311 240.264836 
L 381.400191 240.264867 
L 398.487273 240.264883 
" clip-path="url(#pd517dd939a)" style="fill: none; stroke: #2ca02c; stroke-width: 1.5; stroke-linecap: square"/>
   </g>
   <g id="patch_20">
    <path d="M 57.6 252.526345 
L 57.6 206.644966 
" style="fill: none; stroke: #000000; stroke-width: 0.8; stroke-linejoin: miter; stroke-linecap: square"/>
   </g>
   <g id="patch_21">
    <path d="M 414.72 252.526345 
L 414.72 206.644966 
" style="fill: none; stroke: #000000; stroke-width: 0.8; stroke-linejoin: miter; stroke-linecap: square"/>
   </g>
   <g id="patch_22">
    <path d="M 57.6 252.526345 
L 414.72 252.526345 
" style="fill: none; stroke: #000000; stroke-width: 0.8; stroke-linejoin: miter; stroke-linecap: square"/>
   </g>
   <g id="patch_23">
    <path d="M 57.6 206.644966 
L 414.72 206.644966 
" style="fill: none; stroke: #000000; stroke-width: 0.8; stroke-linejoin: miter; stroke-linecap: square"/>
   </g>
   <g id="text_16">
    <!-- yB - Container 1 -->
    <g transform="translate(187.469063 203.644966)scale(0.12 -0.12)">
     <defs>
      <path id="DejaVuSans-42" d="M 1259 2228 
L 1259 519 
L 2272 519 
Q 2781 519 3026 730 
Q 3272 941 3272 1375 
Q 3272 1813 3026 2020 
Q 2781 2228 2272 2228 
L 1259 2228 
z
M 1259 4147 
L 1259 2741 
L 2194 2741 
Q 2656 2741 2882 2914 
Q 3109 3088 3109 3444 
Q 3109 3797 2882 3972 
Q 2656 4147 2194 4147 
L 1259 4147 
z
M 628 4666 
L 2241 4666 
Q 2963 4666 3353 4366 
Q 3744 4066 3744 3513 
Q 3744 3084 3544 2831 
Q 3344 2578 2956 2516 
Q 3422 2416 3680 2098 
Q 3938 1781 3938 1306 
Q 3938 681 3513 340 
Q 3088 0 2303 0 
L 628 0 
L 628 4666 
z
" transform="scale(0.015625)"/>
     </defs>
     <use xlink:href="#DejaVuSans-79"/>
     <use xlink:href="#DejaVuSans-42" x="59.179688"/>
     <use xlink:href="#DejaVuSans-20" x="127.783203"/>
     <use xlink:href="#DejaVuSans-2d" x="159.570312"/>
     <use xlink:href="#DejaVuSans-20" x="195.654297"/>
     <use xlink:href="#DejaVuSans-43" x="227.441406"/>
     <use xlink:href="#DejaVuSans-6f" x="297.265625"/>
     <use xlink:href="#DejaVuSans-6e" x="358.447266"/>
     <use xlink:href="#DejaVuSans-74" x="421.826172"/>
     <use xlink:href="#DejaVuSans-61" x="461.035156"/>
     <use xlink:href="#DejaVuSans-69" x="522.314453"/>
     <use xlink:href="#DejaVuSans-6e" x="550.097656"/>
     <use xlink:href="#DejaVuSans-65" x="613.476562"/>
     <use xlink:href="#DejaVuSans-72" x="675"/>
     <use xlink:href="#DejaVuSans-20" x="716.113281"/>
     <use xlink:href="#DejaVuSans-31" x="747.900391"/>
    </g>
   </g>
  </g>
  <g id="axes_6">
   <g id="patch_24">
    <path d="M 57.6 307.584 
L 414.72 307.584 
L 414.72 261.702621 
L 57.6 261.702621 
z
" style="fill: #ffffff"/>
   </g>
   <g id="matplotlib.axis_11">
    <g id="xtick_33">
     <g id="line2d_95">
      <g>
       <use xlink:href="#m2258de82f0" x="73.832727" y="307.584" style="stroke: #000000; stroke-width: 0.8"/>
      </g>
     </g>
     <g id="text_17">
      <!-- 0.0 -->
      <g transform="translate(65.881165 322.182437)scale(0.1 -0.1)">
       <use xlink:href="#DejaVuSans-30"/>
       <use xlink:href="#DejaVuSans-2e" x="63.623047"/>
       <use xlink:href="#DejaVuSans-30" x="95.410156"/>
      </g>
     </g>
    </g>
    <g id="xtick_34">
     <g id="line2d_96">
      <g>
       <use xlink:href="#m2258de82f0" x="116.550431" y="307.584" style="stroke: #000000; stroke-width: 0.8"/>
      </g>
     </g>
     <g id="text_18">
      <!-- 2.5 -->
      <g transform="translate(108.598868 322.182437)scale(0.1 -0.1)">
       <defs>
        <path id="DejaVuSans-32" d="M 1228 531 
L 3431 531 
L 3431 0 
L 469 0 
L 469 531 
Q 828 903 1448 1529 
Q 2069 2156 2228 2338 
Q 2531 2678 2651 2914 
Q 2772 3150 2772 3378 
Q 2772 3750 2511 3984 
Q 2250 4219 1831 4219 
Q 1534 4219 1204 4116 
Q 875 4013 500 3803 
L 500 4441 
Q 881 4594 1212 4672 
Q 1544 4750 1819 4750 
Q 2544 4750 2975 4387 
Q 3406 4025 3406 3419 
Q 3406 3131 3298 2873 
Q 3191 2616 2906 2266 
Q 2828 2175 2409 1742 
Q 1991 1309 1228 531 
z
" transform="scale(0.015625)"/>
       </defs>
       <use xlink:href="#DejaVuSans-32"/>
       <use xlink:href="#DejaVuSans-2e" x="63.623047"/>
       <use xlink:href="#DejaVuSans-35" x="95.410156"/>
      </g>
     </g>
    </g>
    <g id="xtick_35">
     <g id="line2d_97">
      <g>
       <use xlink:href="#m2258de82f0" x="159.268134" y="307.584" style="stroke: #000000; stroke-width: 0.8"/>
      </g>
     </g>
     <g id="text_19">
      <!-- 5.0 -->
      <g transform="translate(151.316571 322.182437)scale(0.1 -0.1)">
       <use xlink:href="#DejaVuSans-35"/>
       <use xlink:href="#DejaVuSans-2e" x="63.623047"/>
       <use xlink:href="#DejaVuSans-30" x="95.410156"/>
      </g>
     </g>
    </g>
    <g id="xtick_36">
     <g id="line2d_98">
      <g>
       <use xlink:href="#m2258de82f0" x="201.985837" y="307.584" style="stroke: #000000; stroke-width: 0.8"/>
      </g>
     </g>
     <g id="text_20">
      <!-- 7.5 -->
      <g transform="translate(194.034275 322.182437)scale(0.1 -0.1)">
       <defs>
        <path id="DejaVuSans-37" d="M 525 4666 
L 3525 4666 
L 3525 4397 
L 1831 0 
L 1172 0 
L 2766 4134 
L 525 4134 
L 525 4666 
z
" transform="scale(0.015625)"/>
       </defs>
       <use xlink:href="#DejaVuSans-37"/>
       <use xlink:href="#DejaVuSans-2e" x="63.623047"/>
       <use xlink:href="#DejaVuSans-35" x="95.410156"/>
      </g>
     </g>
    </g>
    <g id="xtick_37">
     <g id="line2d_99">
      <g>
       <use xlink:href="#m2258de82f0" x="244.703541" y="307.584" style="stroke: #000000; stroke-width: 0.8"/>
      </g>
     </g>
     <g id="text_21">
      <!-- 10.0 -->
      <g transform="translate(233.570728 322.182437)scale(0.1 -0.1)">
       <use xlink:href="#DejaVuSans-31"/>
       <use xlink:href="#DejaVuSans-30" x="63.623047"/>
       <use xlink:href="#DejaVuSans-2e" x="127.246094"/>
       <use xlink:href="#DejaVuSans-30" x="159.033203"/>
      </g>
     </g>
    </g>
    <g id="xtick_38">
     <g id="line2d_100">
      <g>
       <use xlink:href="#m2258de82f0" x="287.421244" y="307.584" style="stroke: #000000; stroke-width: 0.8"/>
      </g>
     </g>
     <g id="text_22">
      <!-- 12.5 -->
      <g transform="translate(276.288432 322.182437)scale(0.1 -0.1)">
       <use xlink:href="#DejaVuSans-31"/>
       <use xlink:href="#DejaVuSans-32" x="63.623047"/>
       <use xlink:href="#DejaVuSans-2e" x="127.246094"/>
       <use xlink:href="#DejaVuSans-35" x="159.033203"/>
      </g>
     </g>
    </g>
    <g id="xtick_39">
     <g id="line2d_101">
      <g>
       <use xlink:href="#m2258de82f0" x="330.138947" y="307.584" style="stroke: #000000; stroke-width: 0.8"/>
      </g>
     </g>
     <g id="text_23">
      <!-- 15.0 -->
      <g transform="translate(319.006135 322.182437)scale(0.1 -0.1)">
       <use xlink:href="#DejaVuSans-31"/>
       <use xlink:href="#DejaVuSans-35" x="63.623047"/>
       <use xlink:href="#DejaVuSans-2e" x="127.246094"/>
       <use xlink:href="#DejaVuSans-30" x="159.033203"/>
      </g>
     </g>
    </g>
    <g id="xtick_40">
     <g id="line2d_102">
      <g>
       <use xlink:href="#m2258de82f0" x="372.856651" y="307.584" style="stroke: #000000; stroke-width: 0.8"/>
      </g>
     </g>
     <g id="text_24">
      <!-- 17.5 -->
      <g transform="translate(361.723838 322.182437)scale(0.1 -0.1)">
       <use xlink:href="#DejaVuSans-31"/>
       <use xlink:href="#DejaVuSans-37" x="63.623047"/>
       <use xlink:href="#DejaVuSans-2e" x="127.246094"/>
       <use xlink:href="#DejaVuSans-35" x="159.033203"/>
      </g>
     </g>
    </g>
    <g id="text_25">
     <!-- position z -->
     <g transform="translate(212.142031 335.860562)scale(0.1 -0.1)">
      <defs>
       <path id="DejaVuSans-70" d="M 1159 525 
L 1159 -1331 
L 581 -1331 
L 581 3500 
L 1159 3500 
L 1159 2969 
Q 1341 3281 1617 3432 
Q 1894 3584 2278 3584 
Q 2916 3584 3314 3078 
Q 3713 2572 3713 1747 
Q 3713 922 3314 415 
Q 2916 -91 2278 -91 
Q 1894 -91 1617 61 
Q 1341 213 1159 525 
z
M 3116 1747 
Q 3116 2381 2855 2742 
Q 2594 3103 2138 3103 
Q 1681 3103 1420 2742 
Q 1159 2381 1159 1747 
Q 1159 1113 1420 752 
Q 1681 391 2138 391 
Q 2594 391 2855 752 
Q 3116 1113 3116 1747 
z
" transform="scale(0.015625)"/>
      </defs>
      <use xlink:href="#DejaVuSans-70"/>
      <use xlink:href="#DejaVuSans-6f" x="63.476562"/>
      <use xlink:href="#DejaVuSans-73" x="124.658203"/>
      <use xlink:href="#DejaVuSans-69" x="176.757812"/>
      <use xlink:href="#DejaVuSans-74" x="204.541016"/>
      <use xlink:href="#DejaVuSans-69" x="243.75"/>
      <use xlink:href="#DejaVuSans-6f" x="271.533203"/>
      <use xlink:href="#DejaVuSans-6e" x="332.714844"/>
      <use xlink:href="#DejaVuSans-20" x="396.09375"/>
      <use xlink:href="#DejaVuSans-7a" x="427.880859"/>
     </g>
    </g>
   </g>
   <g id="matplotlib.axis_12">
    <g id="ytick_11">
     <g id="line2d_103">
      <g>
       <use xlink:href="#mf4b0192416" x="57.6" y="291.367046" style="stroke: #000000; stroke-width: 0.8"/>
      </g>
     </g>
     <g id="text_26">
      <!-- 0.04975 -->
      <g transform="translate(9.246875 295.166265)scale(0.1 -0.1)">
       <use xlink:href="#DejaVuSans-30"/>
       <use xlink:href="#DejaVuSans-2e" x="63.623047"/>
       <use xlink:href="#DejaVuSans-30" x="95.410156"/>
       <use xlink:href="#DejaVuSans-34" x="159.033203"/>
       <use xlink:href="#DejaVuSans-39" x="222.65625"/>
       <use xlink:href="#DejaVuSans-37" x="286.279297"/>
       <use xlink:href="#DejaVuSans-35" x="349.902344"/>
      </g>
     </g>
    </g>
    <g id="ytick_12">
     <g id="line2d_104">
      <g>
       <use xlink:href="#mf4b0192416" x="57.6" y="274.298258" style="stroke: #000000; stroke-width: 0.8"/>
      </g>
     </g>
     <g id="text_27">
      <!-- 0.05000 -->
      <g transform="translate(9.246875 278.097477)scale(0.1 -0.1)">
       <use xlink:href="#DejaVuSans-30"/>
       <use xlink:href="#DejaVuSans-2e" x="63.623047"/>
       <use xlink:href="#DejaVuSans-30" x="95.410156"/>
       <use xlink:href="#DejaVuSans-35" x="159.033203"/>
       <use xlink:href="#DejaVuSans-30" x="222.65625"/>
       <use xlink:href="#DejaVuSans-30" x="286.279297"/>
       <use xlink:href="#DejaVuSans-30" x="349.902344"/>
      </g>
     </g>
    </g>
   </g>
   <g id="line2d_105">
    <path d="M 73.832727 273.928799 
L 90.919809 273.928735 
L 108.00689 273.928615 
L 125.093971 273.928452 
L 142.181053 273.928262 
L 159.268134 273.928061 
L 176.355215 273.927859 
L 193.442297 273.927665 
L 210.529378 273.927482 
L 227.616459 273.927315 
L 244.703541 273.927162 
L 261.790622 273.927026 
L 278.877703 273.926905 
L 295.964785 273.9268 
L 313.051866 273.926711 
L 330.138947 273.926637 
L 347.226029 273.926579 
L 364.31311 273.926535 
L 381.400191 273.926507 
L 398.487273 273.926492 
" clip-path="url(#p88920a9456)" style="fill: none; stroke: #1f77b4; stroke-width: 1.5; stroke-linecap: square"/>
   </g>
   <g id="line2d_106">
    <path d="M 73.832727 305.498483 
L 90.919809 273.922607 
L 108.00689 265.964009 
L 125.093971 263.788138 
L 142.181053 264.817636 
L 159.268134 267.691662 
L 176.355215 270.853597 
L 193.442297 273.197164 
L 210.529378 274.419485 
L 227.616459 274.792582 
L 244.703541 274.7417 
L 261.790622 274.577177 
L 278.877703 274.440566 
L 295.964785 274.361656 
L 313.051866 274.325844 
L 330.138947 274.312523 
L 347.226029 274.307107 
L 364.31311 274.30081 
L 381.400191 274.289707 
L 398.487273 274.278197 
" clip-path="url(#p88920a9456)" style="fill: none; stroke: #ff7f0e; stroke-width: 1.5; stroke-linecap: square"/>
   </g>
   <g id="line2d_107">
    <path d="M 73.832727 274.300586 
L 90.919809 274.31209 
L 108.00689 274.345163 
L 125.093971 274.414474 
L 142.181053 274.531701 
L 159.268134 274.700743 
L 176.355215 274.915561 
L 193.442297 275.161205 
L 210.529378 275.417212 
L 227.616459 275.661919 
L 244.703541 275.876307 
L 261.790622 276.046548 
L 278.877703 276.165017 
L 295.964785 276.230007 
L 313.051866 276.244596 
L 330.138947 276.215145 
L 347.226029 276.14981 
L 364.31311 276.057294 
L 381.400191 275.945943 
L 398.487273 275.824373 
" clip-path="url(#p88920a9456)" style="fill: none; stroke: #2ca02c; stroke-width: 1.5; stroke-linecap: square"/>
   </g>
   <g id="line2d_108">
    <path d="M 73.832727 274.298259 
L 90.919809 274.29826 
L 108.00689 274.29826 
L 125.093971 274.29826 
L 142.181053 274.29826 
L 159.268134 274.29826 
L 176.355215 274.29826 
L 193.442297 274.29826 
L 210.529378 274.29826 
L 227.616459 274.298261 
L 244.703541 274.298261 
L 261.790622 274.298261 
L 278.877703 274.298262 
L 295.964785 274.298263 
L 313.051866 274.298265 
L 330.138947 274.298268 
L 347.226029 274.298272 
L 364.31311 274.298278 
L 381.400191 274.298286 
L 398.487273 274.298298 
" clip-path="url(#p88920a9456)" style="fill: none; stroke: #d62728; stroke-width: 1.5; stroke-linecap: square"/>
   </g>
   <g id="line2d_109">
    <path d="M 73.832727 274.298204 
L 90.919809 274.298203 
L 108.00689 274.298203 
L 125.093971 274.298202 
L 142.181053 274.298202 
L 159.268134 274.298202 
L 176.355215 274.298202 
L 193.442297 274.298202 
L 210.529378 274.298202 
L 227.616459 274.298202 
L 244.703541 274.298202 
L 261.790622 274.298202 
L 278.877703 274.298202 
L 295.964785 274.298202 
L 313.051866 274.298202 
L 330.138947 274.298202 
L 347.226029 274.298202 
L 364.31311 274.298202 
L 381.400191 274.298202 
L 398.487273 274.298198 
" clip-path="url(#p88920a9456)" style="fill: none; stroke: #9467bd; stroke-width: 1.5; stroke-linecap: square"/>
   </g>
   <g id="line2d_110">
    <path d="M 73.832727 274.295405 
L 90.919809 274.295404 
L 108.00689 274.295404 
L 125.093971 274.295404 
L 142.181053 274.295403 
L 159.268134 274.295403 
L 176.355215 274.295403 
L 193.442297 274.295403 
L 210.529378 274.295402 
L 227.616459 274.295402 
L 244.703541 274.295402 
L 261.790622 274.295402 
L 278.877703 274.295402 
L 295.964785 274.295402 
L 313.051866 274.295401 
L 330.138947 274.295401 
L 347.226029 274.295401 
L 364.31311 274.295401 
L 381.400191 274.295401 
L 398.487273 274.295402 
" clip-path="url(#p88920a9456)" style="fill: none; stroke: #8c564b; stroke-width: 1.5; stroke-linecap: square"/>
   </g>
   <g id="line2d_111">
    <path d="M 73.832727 274.294584 
L 90.919809 274.294584 
L 108.00689 274.294583 
L 125.093971 274.294583 
L 142.181053 274.294583 
L 159.268134 274.294583 
L 176.355215 274.294583 
L 193.442297 274.294582 
L 210.529378 274.294582 
L 227.616459 274.294584 
L 244.703541 274.294581 
L 261.790622 274.294582 
L 278.877703 274.294587 
L 295.964785 274.294583 
L 313.051866 274.294579 
L 330.138947 274.294585 
L 347.226029 274.294589 
L 364.31311 274.29459 
L 381.400191 274.294628 
L 398.487273 274.294726 
" clip-path="url(#p88920a9456)" style="fill: none; stroke: #e377c2; stroke-width: 1.5; stroke-linecap: square"/>
   </g>
   <g id="line2d_112">
    <path d="M 73.832727 274.294554 
L 90.919809 274.294554 
L 108.00689 274.294554 
L 125.093971 274.294554 
L 142.181053 274.294554 
L 159.268134 274.294554 
L 176.355215 274.294554 
L 193.442297 274.294553 
L 210.529378 274.294553 
L 227.616459 274.294553 
L 244.703541 274.294554 
L 261.790622 274.294553 
L 278.877703 274.294555 
L 295.964785 274.294555 
L 313.051866 274.294555 
L 330.138947 274.29456 
L 347.226029 274.29457 
L 364.31311 274.294582 
L 381.400191 274.294594 
L 398.487273 274.294605 
" clip-path="url(#p88920a9456)" style="fill: none; stroke: #7f7f7f; stroke-width: 1.5; stroke-linecap: square"/>
   </g>
   <g id="line2d_113">
    <path d="M 73.832727 274.258718 
L 90.919809 274.258817 
L 108.00689 274.258913 
L 125.093971 274.259004 
L 142.181053 274.259089 
L 159.268134 274.259169 
L 176.355215 274.259244 
L 193.442297 274.259313 
L 210.529378 274.259377 
L 227.616459 274.259436 
L 244.703541 274.25949 
L 261.790622 274.259538 
L 278.877703 274.259582 
L 295.964785 274.25962 
L 313.051866 274.259653 
L 330.138947 274.259681 
L 347.226029 274.259705 
L 364.31311 274.259722 
L 381.400191 274.259735 
L 398.487273 274.259742 
" clip-path="url(#p88920a9456)" style="fill: none; stroke: #bcbd22; stroke-width: 1.5; stroke-linecap: square"/>
   </g>
   <g id="line2d_114">
    <path d="M 73.832727 273.968209 
L 90.919809 273.968141 
L 108.00689 273.968083 
L 125.093971 273.968038 
L 142.181053 273.968 
L 159.268134 273.967968 
L 176.355215 273.967937 
L 193.442297 273.967911 
L 210.529378 273.967886 
L 227.616459 273.967867 
L 244.703541 273.967853 
L 261.790622 273.967839 
L 278.877703 273.967826 
L 295.964785 273.967818 
L 313.051866 273.967815 
L 330.138947 273.967811 
L 347.226029 273.967807 
L 364.31311 273.96781 
L 381.400191 273.967812 
L 398.487273 273.967815 
" clip-path="url(#p88920a9456)" style="fill: none; stroke: #17becf; stroke-width: 1.5; stroke-linecap: square"/>
   </g>
   <g id="line2d_115">
    <path d="M 73.832727 273.930248 
L 90.919809 273.930099 
L 108.00689 273.929871 
L 125.093971 273.929619 
L 142.181053 273.929371 
L 159.268134 273.929136 
L 176.355215 273.92892 
L 193.442297 273.928721 
L 210.529378 273.92854 
L 227.616459 273.928375 
L 244.703541 273.928224 
L 261.790622 273.92809 
L 278.877703 273.927974 
L 295.964785 273.927872 
L 313.051866 273.927785 
L 330.138947 273.927714 
L 347.226029 273.927659 
L 364.31311 273.927618 
L 381.400191 273.92759 
L 398.487273 273.927576 
" clip-path="url(#p88920a9456)" style="fill: none; stroke: #1f77b4; stroke-width: 1.5; stroke-linecap: square"/>
   </g>
   <g id="line2d_116">
    <path d="M 73.832727 273.929078 
L 90.919809 273.928978 
L 108.00689 273.928803 
L 125.093971 273.928588 
L 142.181053 273.928358 
L 159.268134 273.928131 
L 176.355215 273.927914 
L 193.442297 273.927712 
L 210.529378 273.927526 
L 227.616459 273.927356 
L 244.703541 273.927203 
L 261.790622 273.927066 
L 278.877703 273.926945 
L 295.964785 273.92684 
L 313.051866 273.926751 
L 330.138947 273.926678 
L 347.226029 273.92662 
L 364.31311 273.926578 
L 381.400191 273.92655 
L 398.487273 273.926536 
" clip-path="url(#p88920a9456)" style="fill: none; stroke: #ff7f0e; stroke-width: 1.5; stroke-linecap: square"/>
   </g>
   <g id="line2d_117">
    <path d="M 73.832727 273.928907 
L 90.919809 273.928828 
L 108.00689 273.928684 
L 125.093971 273.928498 
L 142.181053 273.928292 
L 159.268134 273.92808 
L 176.355215 273.927872 
L 193.442297 273.927675 
L 210.529378 273.927491 
L 227.616459 273.927323 
L 244.703541 273.92717 
L 261.790622 273.927033 
L 278.877703 273.926912 
L 295.964785 273.926807 
L 313.051866 273.926718 
L 330.138947 273.926644 
L 347.226029 273.926586 
L 364.31311 273.926542 
L 381.400191 273.926514 
L 398.487273 273.9265 
" clip-path="url(#p88920a9456)" style="fill: none; stroke: #2ca02c; stroke-width: 1.5; stroke-linecap: square"/>
   </g>
   <g id="patch_25">
    <path d="M 57.6 307.584 
L 57.6 261.702621 
" style="fill: none; stroke: #000000; stroke-width: 0.8; stroke-linejoin: miter; stroke-linecap: square"/>
   </g>
   <g id="patch_26">
    <path d="M 414.72 307.584 
L 414.72 261.702621 
" style="fill: none; stroke: #000000; stroke-width: 0.8; stroke-linejoin: miter; stroke-linecap: square"/>
   </g>
   <g id="patch_27">
    <path d="M 57.6 307.584 
L 414.72 307.584 
" style="fill: none; stroke: #000000; stroke-width: 0.8; stroke-linejoin: miter; stroke-linecap: square"/>
   </g>
   <g id="patch_28">
    <path d="M 57.6 261.702621 
L 414.72 261.702621 
" style="fill: none; stroke: #000000; stroke-width: 0.8; stroke-linejoin: miter; stroke-linecap: square"/>
   </g>
   <g id="text_28">
    <!-- yC - Container 1 -->
    <g transform="translate(187.395938 258.702621)scale(0.12 -0.12)">
     <use xlink:href="#DejaVuSans-79"/>
     <use xlink:href="#DejaVuSans-43" x="59.179688"/>
     <use xlink:href="#DejaVuSans-20" x="129.003906"/>
     <use xlink:href="#DejaVuSans-2d" x="160.791016"/>
     <use xlink:href="#DejaVuSans-20" x="196.875"/>
     <use xlink:href="#DejaVuSans-43" x="228.662109"/>
     <use xlink:href="#DejaVuSans-6f" x="298.486328"/>
     <use xlink:href="#DejaVuSans-6e" x="359.667969"/>
     <use xlink:href="#DejaVuSans-74" x="423.046875"/>
     <use xlink:href="#DejaVuSans-61" x="462.255859"/>
     <use xlink:href="#DejaVuSans-69" x="523.535156"/>
     <use xlink:href="#DejaVuSans-6e" x="551.318359"/>
     <use xlink:href="#DejaVuSans-65" x="614.697266"/>
     <use xlink:href="#DejaVuSans-72" x="676.220703"/>
     <use xlink:href="#DejaVuSans-20" x="717.333984"/>
     <use xlink:href="#DejaVuSans-31" x="749.121094"/>
    </g>
   </g>
  </g>
  <g id="legend_1">
   <g id="patch_29">
    <path d="M 372.146875 269.707812 
L 457.8 269.707812 
Q 459.8 269.707812 459.8 267.707812 
L 459.8 77.892187 
Q 459.8 75.892187 457.8 75.892187 
L 372.146875 75.892187 
Q 370.146875 75.892187 370.146875 77.892187 
L 370.146875 267.707812 
Q 370.146875 269.707812 372.146875 269.707812 
z
" style="fill: #ffffff; opacity: 0.8; stroke: #cccccc; stroke-linejoin: miter"/>
   </g>
   <g id="line2d_118">
    <path d="M 374.146875 83.990625 
L 384.146875 83.990625 
L 394.146875 83.990625 
" style="fill: none; stroke: #1f77b4; stroke-width: 1.5; stroke-linecap: square"/>
   </g>
   <g id="text_29">
    <!-- t=0.0000 -->
    <g transform="translate(402.146875 87.490625)scale(0.1 -0.1)">
     <defs>
      <path id="DejaVuSans-3d" d="M 678 2906 
L 4684 2906 
L 4684 2381 
L 678 2381 
L 678 2906 
z
M 678 1631 
L 4684 1631 
L 4684 1100 
L 678 1100 
L 678 1631 
z
" transform="scale(0.015625)"/>
     </defs>
     <use xlink:href="#DejaVuSans-74"/>
     <use xlink:href="#DejaVuSans-3d" x="39.208984"/>
     <use xlink:href="#DejaVuSans-30" x="122.998047"/>
     <use xlink:href="#DejaVuSans-2e" x="186.621094"/>
     <use xlink:href="#DejaVuSans-30" x="218.408203"/>
     <use xlink:href="#DejaVuSans-30" x="282.03125"/>
     <use xlink:href="#DejaVuSans-30" x="345.654297"/>
     <use xlink:href="#DejaVuSans-30" x="409.277344"/>
    </g>
   </g>
   <g id="line2d_119">
    <path d="M 374.146875 98.66875 
L 384.146875 98.66875 
L 394.146875 98.66875 
" style="fill: none; stroke: #ff7f0e; stroke-width: 1.5; stroke-linecap: square"/>
   </g>
   <g id="text_30">
    <!-- t=8.0000 -->
    <g transform="translate(402.146875 102.16875)scale(0.1 -0.1)">
     <defs>
      <path id="DejaVuSans-38" d="M 2034 2216 
Q 1584 2216 1326 1975 
Q 1069 1734 1069 1313 
Q 1069 891 1326 650 
Q 1584 409 2034 409 
Q 2484 409 2743 651 
Q 3003 894 3003 1313 
Q 3003 1734 2745 1975 
Q 2488 2216 2034 2216 
z
M 1403 2484 
Q 997 2584 770 2862 
Q 544 3141 544 3541 
Q 544 4100 942 4425 
Q 1341 4750 2034 4750 
Q 2731 4750 3128 4425 
Q 3525 4100 3525 3541 
Q 3525 3141 3298 2862 
Q 3072 2584 2669 2484 
Q 3125 2378 3379 2068 
Q 3634 1759 3634 1313 
Q 3634 634 3220 271 
Q 2806 -91 2034 -91 
Q 1263 -91 848 271 
Q 434 634 434 1313 
Q 434 1759 690 2068 
Q 947 2378 1403 2484 
z
M 1172 3481 
Q 1172 3119 1398 2916 
Q 1625 2713 2034 2713 
Q 2441 2713 2670 2916 
Q 2900 3119 2900 3481 
Q 2900 3844 2670 4047 
Q 2441 4250 2034 4250 
Q 1625 4250 1398 4047 
Q 1172 3844 1172 3481 
z
" transform="scale(0.015625)"/>
     </defs>
     <use xlink:href="#DejaVuSans-74"/>
     <use xlink:href="#DejaVuSans-3d" x="39.208984"/>
     <use xlink:href="#DejaVuSans-38" x="122.998047"/>
     <use xlink:href="#DejaVuSans-2e" x="186.621094"/>
     <use xlink:href="#DejaVuSans-30" x="218.408203"/>
     <use xlink:href="#DejaVuSans-30" x="282.03125"/>
     <use xlink:href="#DejaVuSans-30" x="345.654297"/>
     <use xlink:href="#DejaVuSans-30" x="409.277344"/>
    </g>
   </g>
   <g id="line2d_120">
    <path d="M 374.146875 113.346875 
L 384.146875 113.346875 
L 394.146875 113.346875 
" style="fill: none; stroke: #2ca02c; stroke-width: 1.5; stroke-linecap: square"/>
   </g>
   <g id="text_31">
    <!-- t=16.0000 -->
    <g transform="translate(402.146875 116.846875)scale(0.1 -0.1)">
     <defs>
      <path id="DejaVuSans-36" d="M 2113 2584 
Q 1688 2584 1439 2293 
Q 1191 2003 1191 1497 
Q 1191 994 1439 701 
Q 1688 409 2113 409 
Q 2538 409 2786 701 
Q 3034 994 3034 1497 
Q 3034 2003 2786 2293 
Q 2538 2584 2113 2584 
z
M 3366 4563 
L 3366 3988 
Q 3128 4100 2886 4159 
Q 2644 4219 2406 4219 
Q 1781 4219 1451 3797 
Q 1122 3375 1075 2522 
Q 1259 2794 1537 2939 
Q 1816 3084 2150 3084 
Q 2853 3084 3261 2657 
Q 3669 2231 3669 1497 
Q 3669 778 3244 343 
Q 2819 -91 2113 -91 
Q 1303 -91 875 529 
Q 447 1150 447 2328 
Q 447 3434 972 4092 
Q 1497 4750 2381 4750 
Q 2619 4750 2861 4703 
Q 3103 4656 3366 4563 
z
" transform="scale(0.015625)"/>
     </defs>
     <use xlink:href="#DejaVuSans-74"/>
     <use xlink:href="#DejaVuSans-3d" x="39.208984"/>
     <use xlink:href="#DejaVuSans-31" x="122.998047"/>
     <use xlink:href="#DejaVuSans-36" x="186.621094"/>
     <use xlink:href="#DejaVuSans-2e" x="250.244141"/>
     <use xlink:href="#DejaVuSans-30" x="282.03125"/>
     <use xlink:href="#DejaVuSans-30" x="345.654297"/>
     <use xlink:href="#DejaVuSans-30" x="409.277344"/>
     <use xlink:href="#DejaVuSans-30" x="472.900391"/>
    </g>
   </g>
   <g id="line2d_121">
    <path d="M 374.146875 128.025 
L 384.146875 128.025 
L 394.146875 128.025 
" style="fill: none; stroke: #d62728; stroke-width: 1.5; stroke-linecap: square"/>
   </g>
   <g id="text_32">
    <!-- t=24.0000 -->
    <g transform="translate(402.146875 131.525)scale(0.1 -0.1)">
     <use xlink:href="#DejaVuSans-74"/>
     <use xlink:href="#DejaVuSans-3d" x="39.208984"/>
     <use xlink:href="#DejaVuSans-32" x="122.998047"/>
     <use xlink:href="#DejaVuSans-34" x="186.621094"/>
     <use xlink:href="#DejaVuSans-2e" x="250.244141"/>
     <use xlink:href="#DejaVuSans-30" x="282.03125"/>
     <use xlink:href="#DejaVuSans-30" x="345.654297"/>
     <use xlink:href="#DejaVuSans-30" x="409.277344"/>
     <use xlink:href="#DejaVuSans-30" x="472.900391"/>
    </g>
   </g>
   <g id="line2d_122">
    <path d="M 374.146875 142.703125 
L 384.146875 142.703125 
L 394.146875 142.703125 
" style="fill: none; stroke: #9467bd; stroke-width: 1.5; stroke-linecap: square"/>
   </g>
   <g id="text_33">
    <!-- t=32.0000 -->
    <g transform="translate(402.146875 146.203125)scale(0.1 -0.1)">
     <defs>
      <path id="DejaVuSans-33" d="M 2597 2516 
Q 3050 2419 3304 2112 
Q 3559 1806 3559 1356 
Q 3559 666 3084 287 
Q 2609 -91 1734 -91 
Q 1441 -91 1130 -33 
Q 819 25 488 141 
L 488 750 
Q 750 597 1062 519 
Q 1375 441 1716 441 
Q 2309 441 2620 675 
Q 2931 909 2931 1356 
Q 2931 1769 2642 2001 
Q 2353 2234 1838 2234 
L 1294 2234 
L 1294 2753 
L 1863 2753 
Q 2328 2753 2575 2939 
Q 2822 3125 2822 3475 
Q 2822 3834 2567 4026 
Q 2313 4219 1838 4219 
Q 1578 4219 1281 4162 
Q 984 4106 628 3988 
L 628 4550 
Q 988 4650 1302 4700 
Q 1616 4750 1894 4750 
Q 2613 4750 3031 4423 
Q 3450 4097 3450 3541 
Q 3450 3153 3228 2886 
Q 3006 2619 2597 2516 
z
" transform="scale(0.015625)"/>
     </defs>
     <use xlink:href="#DejaVuSans-74"/>
     <use xlink:href="#DejaVuSans-3d" x="39.208984"/>
     <use xlink:href="#DejaVuSans-33" x="122.998047"/>
     <use xlink:href="#DejaVuSans-32" x="186.621094"/>
     <use xlink:href="#DejaVuSans-2e" x="250.244141"/>
     <use xlink:href="#DejaVuSans-30" x="282.03125"/>
     <use xlink:href="#DejaVuSans-30" x="345.654297"/>
     <use xlink:href="#DejaVuSans-30" x="409.277344"/>
     <use xlink:href="#DejaVuSans-30" x="472.900391"/>
    </g>
   </g>
   <g id="line2d_123">
    <path d="M 374.146875 157.38125 
L 384.146875 157.38125 
L 394.146875 157.38125 
" style="fill: none; stroke: #8c564b; stroke-width: 1.5; stroke-linecap: square"/>
   </g>
   <g id="text_34">
    <!-- t=40.0000 -->
    <g transform="translate(402.146875 160.88125)scale(0.1 -0.1)">
     <use xlink:href="#DejaVuSans-74"/>
     <use xlink:href="#DejaVuSans-3d" x="39.208984"/>
     <use xlink:href="#DejaVuSans-34" x="122.998047"/>
     <use xlink:href="#DejaVuSans-30" x="186.621094"/>
     <use xlink:href="#DejaVuSans-2e" x="250.244141"/>
     <use xlink:href="#DejaVuSans-30" x="282.03125"/>
     <use xlink:href="#DejaVuSans-30" x="345.654297"/>
     <use xlink:href="#DejaVuSans-30" x="409.277344"/>
     <use xlink:href="#DejaVuSans-30" x="472.900391"/>
    </g>
   </g>
   <g id="line2d_124">
    <path d="M 374.146875 172.059375 
L 384.146875 172.059375 
L 394.146875 172.059375 
" style="fill: none; stroke: #e377c2; stroke-width: 1.5; stroke-linecap: square"/>
   </g>
   <g id="text_35">
    <!-- t=48.0000 -->
    <g transform="translate(402.146875 175.559375)scale(0.1 -0.1)">
     <use xlink:href="#DejaVuSans-74"/>
     <use xlink:href="#DejaVuSans-3d" x="39.208984"/>
     <use xlink:href="#DejaVuSans-34" x="122.998047"/>
     <use xlink:href="#DejaVuSans-38" x="186.621094"/>
     <use xlink:href="#DejaVuSans-2e" x="250.244141"/>
     <use xlink:href="#DejaVuSans-30" x="282.03125"/>
     <use xlink:href="#DejaVuSans-30" x="345.654297"/>
     <use xlink:href="#DejaVuSans-30" x="409.277344"/>
     <use xlink:href="#DejaVuSans-30" x="472.900391"/>
    </g>
   </g>
   <g id="line2d_125">
    <path d="M 374.146875 186.7375 
L 384.146875 186.7375 
L 394.146875 186.7375 
" style="fill: none; stroke: #7f7f7f; stroke-width: 1.5; stroke-linecap: square"/>
   </g>
   <g id="text_36">
    <!-- t=56.0000 -->
    <g transform="translate(402.146875 190.2375)scale(0.1 -0.1)">
     <use xlink:href="#DejaVuSans-74"/>
     <use xlink:href="#DejaVuSans-3d" x="39.208984"/>
     <use xlink:href="#DejaVuSans-35" x="122.998047"/>
     <use xlink:href="#DejaVuSans-36" x="186.621094"/>
     <use xlink:href="#DejaVuSans-2e" x="250.244141"/>
     <use xlink:href="#DejaVuSans-30" x="282.03125"/>
     <use xlink:href="#DejaVuSans-30" x="345.654297"/>
     <use xlink:href="#DejaVuSans-30" x="409.277344"/>
     <use xlink:href="#DejaVuSans-30" x="472.900391"/>
    </g>
   </g>
   <g id="line2d_126">
    <path d="M 374.146875 201.415625 
L 384.146875 201.415625 
L 394.146875 201.415625 
" style="fill: none; stroke: #bcbd22; stroke-width: 1.5; stroke-linecap: square"/>
   </g>
   <g id="text_37">
    <!-- t=64.0000 -->
    <g transform="translate(402.146875 204.915625)scale(0.1 -0.1)">
     <use xlink:href="#DejaVuSans-74"/>
     <use xlink:href="#DejaVuSans-3d" x="39.208984"/>
     <use xlink:href="#DejaVuSans-36" x="122.998047"/>
     <use xlink:href="#DejaVuSans-34" x="186.621094"/>
     <use xlink:href="#DejaVuSans-2e" x="250.244141"/>
     <use xlink:href="#DejaVuSans-30" x="282.03125"/>
     <use xlink:href="#DejaVuSans-30" x="345.654297"/>
     <use xlink:href="#DejaVuSans-30" x="409.277344"/>
     <use xlink:href="#DejaVuSans-30" x="472.900391"/>
    </g>
   </g>
   <g id="line2d_127">
    <path d="M 374.146875 216.09375 
L 384.146875 216.09375 
L 394.146875 216.09375 
" style="fill: none; stroke: #17becf; stroke-width: 1.5; stroke-linecap: square"/>
   </g>
   <g id="text_38">
    <!-- t=72.0000 -->
    <g transform="translate(402.146875 219.59375)scale(0.1 -0.1)">
     <use xlink:href="#DejaVuSans-74"/>
     <use xlink:href="#DejaVuSans-3d" x="39.208984"/>
     <use xlink:href="#DejaVuSans-37" x="122.998047"/>
     <use xlink:href="#DejaVuSans-32" x="186.621094"/>
     <use xlink:href="#DejaVuSans-2e" x="250.244141"/>
     <use xlink:href="#DejaVuSans-30" x="282.03125"/>
     <use xlink:href="#DejaVuSans-30" x="345.654297"/>
     <use xlink:href="#DejaVuSans-30" x="409.277344"/>
     <use xlink:href="#DejaVuSans-30" x="472.900391"/>
    </g>
   </g>
   <g id="line2d_128">
    <path d="M 374.146875 230.771875 
L 384.146875 230.771875 
L 394.146875 230.771875 
" style="fill: none; stroke: #1f77b4; stroke-width: 1.5; stroke-linecap: square"/>
   </g>
   <g id="text_39">
    <!-- t=80.0000 -->
    <g transform="translate(402.146875 234.271875)scale(0.1 -0.1)">
     <use xlink:href="#DejaVuSans-74"/>
     <use xlink:href="#DejaVuSans-3d" x="39.208984"/>
     <use xlink:href="#DejaVuSans-38" x="122.998047"/>
     <use xlink:href="#DejaVuSans-30" x="186.621094"/>
     <use xlink:href="#DejaVuSans-2e" x="250.244141"/>
     <use xlink:href="#DejaVuSans-30" x="282.03125"/>
     <use xlink:href="#DejaVuSans-30" x="345.654297"/>
     <use xlink:href="#DejaVuSans-30" x="409.277344"/>
     <use xlink:href="#DejaVuSans-30" x="472.900391"/>
    </g>
   </g>
   <g id="line2d_129">
    <path d="M 374.146875 245.45 
L 384.146875 245.45 
L 394.146875 245.45 
" style="fill: none; stroke: #ff7f0e; stroke-width: 1.5; stroke-linecap: square"/>
   </g>
   <g id="text_40">
    <!-- t=88.0000 -->
    <g transform="translate(402.146875 248.95)scale(0.1 -0.1)">
     <use xlink:href="#DejaVuSans-74"/>
     <use xlink:href="#DejaVuSans-3d" x="39.208984"/>
     <use xlink:href="#DejaVuSans-38" x="122.998047"/>
     <use xlink:href="#DejaVuSans-38" x="186.621094"/>
     <use xlink:href="#DejaVuSans-2e" x="250.244141"/>
     <use xlink:href="#DejaVuSans-30" x="282.03125"/>
     <use xlink:href="#DejaVuSans-30" x="345.654297"/>
     <use xlink:href="#DejaVuSans-30" x="409.277344"/>
     <use xlink:href="#DejaVuSans-30" x="472.900391"/>
    </g>
   </g>
   <g id="line2d_130">
    <path d="M 374.146875 260.128125 
L 384.146875 260.128125 
L 394.146875 260.128125 
" style="fill: none; stroke: #2ca02c; stroke-width: 1.5; stroke-linecap: square"/>
   </g>
   <g id="text_41">
    <!-- t=96.0000 -->
    <g transform="translate(402.146875 263.628125)scale(0.1 -0.1)">
     <use xlink:href="#DejaVuSans-74"/>
     <use xlink:href="#DejaVuSans-3d" x="39.208984"/>
     <use xlink:href="#DejaVuSans-39" x="122.998047"/>
     <use xlink:href="#DejaVuSans-36" x="186.621094"/>
     <use xlink:href="#DejaVuSans-2e" x="250.244141"/>
     <use xlink:href="#DejaVuSans-30" x="282.03125"/>
     <use xlink:href="#DejaVuSans-30" x="345.654297"/>
     <use xlink:href="#DejaVuSans-30" x="409.277344"/>
     <use xlink:href="#DejaVuSans-30" x="472.900391"/>
    </g>
   </g>
  </g>
 </g>
 <defs>
  <clipPath id="p421ab8b50f">
   <rect x="57.6" y="41.472" width="357.12" height="45.881379"/>
  </clipPath>
  <clipPath id="pca3fccf0dc">
   <rect x="57.6" y="96.529655" width="357.12" height="45.881379"/>
  </clipPath>
  <clipPath id="p65a2804bfa">
   <rect x="57.6" y="151.58731" width="357.12" height="45.881379"/>
  </clipPath>
  <clipPath id="pd517dd939a">
   <rect x="57.6" y="206.644966" width="357.12" height="45.881379"/>
  </clipPath>
  <clipPath id="p88920a9456">
   <rect x="57.6" y="261.702621" width="357.12" height="45.881379"/>
  </clipPath>
 </defs>
</svg>
