<?xml version="1.0" encoding="utf-8" standalone="no"?>
<!DOCTYPE svg PUBLIC "-//W3C//DTD SVG 1.1//EN"
  "http://www.w3.org/Graphics/SVG/1.1/DTD/svg11.dtd">
<svg xmlns:xlink="http://www.w3.org/1999/xlink" width="460.8pt" height="345.6pt" viewBox="0 0 460.8 345.6" xmlns="http://www.w3.org/2000/svg" version="1.1">
 <metadata>
  <rdf:RDF xmlns:dc="http://purl.org/dc/elements/1.1/" xmlns:cc="http://creativecommons.org/ns#" xmlns:rdf="http://www.w3.org/1999/02/22-rdf-syntax-ns#">
   <cc:Work>
    <dc:type rdf:resource="http://purl.org/dc/dcmitype/StillImage"/>
    <dc:date>2022-07-10T00:04:59.924514</dc:date>
    <dc:format>image/svg+xml</dc:format>
    <dc:creator>
     <cc:Agent>
      <dc:title>Matplotlib v3.5.2, https://matplotlib.org/</dc:title>
     </cc:Agent>
    </dc:creator>
   </cc:Work>
  </rdf:RDF>
 </metadata>
 <defs>
  <style type="text/css">*{stroke-linejoin: round; stroke-linecap: butt}</style>
 </defs>
 <g id="figure_1">
  <g id="patch_1">
   <path d="M 0 345.6 
L 460.8 345.6 
L 460.8 0 
L 0 0 
z
" style="fill: #ffffff"/>
  </g>
  <g id="axes_1">
   <g id="patch_2">
    <path d="M 57.6 87.353379 
L 414.72 87.353379 
L 414.72 41.472 
L 57.6 41.472 
z
" style="fill: #ffffff"/>
   </g>
   <g id="matplotlib.axis_1">
    <g id="xtick_1">
     <g id="line2d_1">
      <defs>
       <path id="mb57396399a" d="M 0 0 
L 0 3.5 
" style="stroke: #000000; stroke-width: 0.8"/>
      </defs>
      <g>
       <use xlink:href="#mb57396399a" x="73.832727" y="87.353379" style="stroke: #000000; stroke-width: 0.8"/>
      </g>
     </g>
    </g>
    <g id="xtick_2">
     <g id="line2d_2">
      <g>
       <use xlink:href="#mb57396399a" x="138.763636" y="87.353379" style="stroke: #000000; stroke-width: 0.8"/>
      </g>
     </g>
    </g>
    <g id="xtick_3">
     <g id="line2d_3">
      <g>
       <use xlink:href="#mb57396399a" x="203.694545" y="87.353379" style="stroke: #000000; stroke-width: 0.8"/>
      </g>
     </g>
    </g>
    <g id="xtick_4">
     <g id="line2d_4">
      <g>
       <use xlink:href="#mb57396399a" x="268.625455" y="87.353379" style="stroke: #000000; stroke-width: 0.8"/>
      </g>
     </g>
    </g>
    <g id="xtick_5">
     <g id="line2d_5">
      <g>
       <use xlink:href="#mb57396399a" x="333.556364" y="87.353379" style="stroke: #000000; stroke-width: 0.8"/>
      </g>
     </g>
    </g>
    <g id="xtick_6">
     <g id="line2d_6">
      <g>
       <use xlink:href="#mb57396399a" x="398.487273" y="87.353379" style="stroke: #000000; stroke-width: 0.8"/>
      </g>
     </g>
    </g>
   </g>
   <g id="matplotlib.axis_2">
    <g id="ytick_1">
     <g id="line2d_7">
      <defs>
       <path id="m3981910ce6" d="M 0 0 
L -3.5 0 
" style="stroke: #000000; stroke-width: 0.8"/>
      </defs>
      <g>
       <use xlink:href="#m3981910ce6" x="57.6" y="73.863736" style="stroke: #000000; stroke-width: 0.8"/>
      </g>
     </g>
     <g id="text_1">
      <!-- 0 -->
      <g transform="translate(44.2375 77.662955)scale(0.1 -0.1)">
       <defs>
        <path id="DejaVuSans-30" d="M 2034 4250 
Q 1547 4250 1301 3770 
Q 1056 3291 1056 2328 
Q 1056 1369 1301 889 
Q 1547 409 2034 409 
Q 2525 409 2770 889 
Q 3016 1369 3016 2328 
Q 3016 3291 2770 3770 
Q 2525 4250 2034 4250 
z
M 2034 4750 
Q 2819 4750 3233 4129 
Q 3647 3509 3647 2328 
Q 3647 1150 3233 529 
Q 2819 -91 2034 -91 
Q 1250 -91 836 529 
Q 422 1150 422 2328 
Q 422 3509 836 4129 
Q 1250 4750 2034 4750 
z
" transform="scale(0.015625)"/>
       </defs>
       <use xlink:href="#DejaVuSans-30"/>
      </g>
     </g>
    </g>
    <g id="ytick_2">
     <g id="line2d_8">
      <g>
       <use xlink:href="#m3981910ce6" x="57.6" y="43.664271" style="stroke: #000000; stroke-width: 0.8"/>
      </g>
     </g>
     <g id="text_2">
      <!-- 1 -->
      <g transform="translate(44.2375 47.46349)scale(0.1 -0.1)">
       <defs>
        <path id="DejaVuSans-31" d="M 794 531 
L 1825 531 
L 1825 4091 
L 703 3866 
L 703 4441 
L 1819 4666 
L 2450 4666 
L 2450 531 
L 3481 531 
L 3481 0 
L 794 0 
L 794 531 
z
" transform="scale(0.015625)"/>
       </defs>
       <use xlink:href="#DejaVuSans-31"/>
      </g>
     </g>
    </g>
    <g id="text_3">
     <!-- flow rate (normalized) -->
     <g transform="translate(38.157812 119.729877)rotate(-90)scale(0.1 -0.1)">
      <defs>
       <path id="DejaVuSans-66" d="M 2375 4863 
L 2375 4384 
L 1825 4384 
Q 1516 4384 1395 4259 
Q 1275 4134 1275 3809 
L 1275 3500 
L 2222 3500 
L 2222 3053 
L 1275 3053 
L 1275 0 
L 697 0 
L 697 3053 
L 147 3053 
L 147 3500 
L 697 3500 
L 697 3744 
Q 697 4328 969 4595 
Q 1241 4863 1831 4863 
L 2375 4863 
z
" transform="scale(0.015625)"/>
       <path id="DejaVuSans-6c" d="M 603 4863 
L 1178 4863 
L 1178 0 
L 603 0 
L 603 4863 
z
" transform="scale(0.015625)"/>
       <path id="DejaVuSans-6f" d="M 1959 3097 
Q 1497 3097 1228 2736 
Q 959 2375 959 1747 
Q 959 1119 1226 758 
Q 1494 397 1959 397 
Q 2419 397 2687 759 
Q 2956 1122 2956 1747 
Q 2956 2369 2687 2733 
Q 2419 3097 1959 3097 
z
M 1959 3584 
Q 2709 3584 3137 3096 
Q 3566 2609 3566 1747 
Q 3566 888 3137 398 
Q 2709 -91 1959 -91 
Q 1206 -91 779 398 
Q 353 888 353 1747 
Q 353 2609 779 3096 
Q 1206 3584 1959 3584 
z
" transform="scale(0.015625)"/>
       <path id="DejaVuSans-77" d="M 269 3500 
L 844 3500 
L 1563 769 
L 2278 3500 
L 2956 3500 
L 3675 769 
L 4391 3500 
L 4966 3500 
L 4050 0 
L 3372 0 
L 2619 2869 
L 1863 0 
L 1184 0 
L 269 3500 
z
" transform="scale(0.015625)"/>
       <path id="DejaVuSans-20" transform="scale(0.015625)"/>
       <path id="DejaVuSans-72" d="M 2631 2963 
Q 2534 3019 2420 3045 
Q 2306 3072 2169 3072 
Q 1681 3072 1420 2755 
Q 1159 2438 1159 1844 
L 1159 0 
L 581 0 
L 581 3500 
L 1159 3500 
L 1159 2956 
Q 1341 3275 1631 3429 
Q 1922 3584 2338 3584 
Q 2397 3584 2469 3576 
Q 2541 3569 2628 3553 
L 2631 2963 
z
" transform="scale(0.015625)"/>
       <path id="DejaVuSans-61" d="M 2194 1759 
Q 1497 1759 1228 1600 
Q 959 1441 959 1056 
Q 959 750 1161 570 
Q 1363 391 1709 391 
Q 2188 391 2477 730 
Q 2766 1069 2766 1631 
L 2766 1759 
L 2194 1759 
z
M 3341 1997 
L 3341 0 
L 2766 0 
L 2766 531 
Q 2569 213 2275 61 
Q 1981 -91 1556 -91 
Q 1019 -91 701 211 
Q 384 513 384 1019 
Q 384 1609 779 1909 
Q 1175 2209 1959 2209 
L 2766 2209 
L 2766 2266 
Q 2766 2663 2505 2880 
Q 2244 3097 1772 3097 
Q 1472 3097 1187 3025 
Q 903 2953 641 2809 
L 641 3341 
Q 956 3463 1253 3523 
Q 1550 3584 1831 3584 
Q 2591 3584 2966 3190 
Q 3341 2797 3341 1997 
z
" transform="scale(0.015625)"/>
       <path id="DejaVuSans-74" d="M 1172 4494 
L 1172 3500 
L 2356 3500 
L 2356 3053 
L 1172 3053 
L 1172 1153 
Q 1172 725 1289 603 
Q 1406 481 1766 481 
L 2356 481 
L 2356 0 
L 1766 0 
Q 1100 0 847 248 
Q 594 497 594 1153 
L 594 3053 
L 172 3053 
L 172 3500 
L 594 3500 
L 594 4494 
L 1172 4494 
z
" transform="scale(0.015625)"/>
       <path id="DejaVuSans-65" d="M 3597 1894 
L 3597 1613 
L 953 1613 
Q 991 1019 1311 708 
Q 1631 397 2203 397 
Q 2534 397 2845 478 
Q 3156 559 3463 722 
L 3463 178 
Q 3153 47 2828 -22 
Q 2503 -91 2169 -91 
Q 1331 -91 842 396 
Q 353 884 353 1716 
Q 353 2575 817 3079 
Q 1281 3584 2069 3584 
Q 2775 3584 3186 3129 
Q 3597 2675 3597 1894 
z
M 3022 2063 
Q 3016 2534 2758 2815 
Q 2500 3097 2075 3097 
Q 1594 3097 1305 2825 
Q 1016 2553 972 2059 
L 3022 2063 
z
" transform="scale(0.015625)"/>
       <path id="DejaVuSans-28" d="M 1984 4856 
Q 1566 4138 1362 3434 
Q 1159 2731 1159 2009 
Q 1159 1288 1364 580 
Q 1569 -128 1984 -844 
L 1484 -844 
Q 1016 -109 783 600 
Q 550 1309 550 2009 
Q 550 2706 781 3412 
Q 1013 4119 1484 4856 
L 1984 4856 
z
" transform="scale(0.015625)"/>
       <path id="DejaVuSans-6e" d="M 3513 2113 
L 3513 0 
L 2938 0 
L 2938 2094 
Q 2938 2591 2744 2837 
Q 2550 3084 2163 3084 
Q 1697 3084 1428 2787 
Q 1159 2491 1159 1978 
L 1159 0 
L 581 0 
L 581 3500 
L 1159 3500 
L 1159 2956 
Q 1366 3272 1645 3428 
Q 1925 3584 2291 3584 
Q 2894 3584 3203 3211 
Q 3513 2838 3513 2113 
z
" transform="scale(0.015625)"/>
       <path id="DejaVuSans-6d" d="M 3328 2828 
Q 3544 3216 3844 3400 
Q 4144 3584 4550 3584 
Q 5097 3584 5394 3201 
Q 5691 2819 5691 2113 
L 5691 0 
L 5113 0 
L 5113 2094 
Q 5113 2597 4934 2840 
Q 4756 3084 4391 3084 
Q 3944 3084 3684 2787 
Q 3425 2491 3425 1978 
L 3425 0 
L 2847 0 
L 2847 2094 
Q 2847 2600 2669 2842 
Q 2491 3084 2119 3084 
Q 1678 3084 1418 2786 
Q 1159 2488 1159 1978 
L 1159 0 
L 581 0 
L 581 3500 
L 1159 3500 
L 1159 2956 
Q 1356 3278 1631 3431 
Q 1906 3584 2284 3584 
Q 2666 3584 2933 3390 
Q 3200 3197 3328 2828 
z
" transform="scale(0.015625)"/>
       <path id="DejaVuSans-69" d="M 603 3500 
L 1178 3500 
L 1178 0 
L 603 0 
L 603 3500 
z
M 603 4863 
L 1178 4863 
L 1178 4134 
L 603 4134 
L 603 4863 
z
" transform="scale(0.015625)"/>
       <path id="DejaVuSans-7a" d="M 353 3500 
L 3084 3500 
L 3084 2975 
L 922 459 
L 3084 459 
L 3084 0 
L 275 0 
L 275 525 
L 2438 3041 
L 353 3041 
L 353 3500 
z
" transform="scale(0.015625)"/>
       <path id="DejaVuSans-64" d="M 2906 2969 
L 2906 4863 
L 3481 4863 
L 3481 0 
L 2906 0 
L 2906 525 
Q 2725 213 2448 61 
Q 2172 -91 1784 -91 
Q 1150 -91 751 415 
Q 353 922 353 1747 
Q 353 2572 751 3078 
Q 1150 3584 1784 3584 
Q 2172 3584 2448 3432 
Q 2725 3281 2906 2969 
z
M 947 1747 
Q 947 1113 1208 752 
Q 1469 391 1925 391 
Q 2381 391 2643 752 
Q 2906 1113 2906 1747 
Q 2906 2381 2643 2742 
Q 2381 3103 1925 3103 
Q 1469 3103 1208 2742 
Q 947 2381 947 1747 
z
" transform="scale(0.015625)"/>
       <path id="DejaVuSans-29" d="M 513 4856 
L 1013 4856 
Q 1481 4119 1714 3412 
Q 1947 2706 1947 2009 
Q 1947 1309 1714 600 
Q 1481 -109 1013 -844 
L 513 -844 
Q 928 -128 1133 580 
Q 1338 1288 1338 2009 
Q 1338 2731 1133 3434 
Q 928 4138 513 4856 
z
" transform="scale(0.015625)"/>
      </defs>
      <use xlink:href="#DejaVuSans-66"/>
      <use xlink:href="#DejaVuSans-6c" x="35.205078"/>
      <use xlink:href="#DejaVuSans-6f" x="62.988281"/>
      <use xlink:href="#DejaVuSans-77" x="124.169922"/>
      <use xlink:href="#DejaVuSans-20" x="205.957031"/>
      <use xlink:href="#DejaVuSans-72" x="237.744141"/>
      <use xlink:href="#DejaVuSans-61" x="278.857422"/>
      <use xlink:href="#DejaVuSans-74" x="340.136719"/>
      <use xlink:href="#DejaVuSans-65" x="379.345703"/>
      <use xlink:href="#DejaVuSans-20" x="440.869141"/>
      <use xlink:href="#DejaVuSans-28" x="472.65625"/>
      <use xlink:href="#DejaVuSans-6e" x="511.669922"/>
      <use xlink:href="#DejaVuSans-6f" x="575.048828"/>
      <use xlink:href="#DejaVuSans-72" x="636.230469"/>
      <use xlink:href="#DejaVuSans-6d" x="675.59375"/>
      <use xlink:href="#DejaVuSans-61" x="773.005859"/>
      <use xlink:href="#DejaVuSans-6c" x="834.285156"/>
      <use xlink:href="#DejaVuSans-69" x="862.068359"/>
      <use xlink:href="#DejaVuSans-7a" x="889.851562"/>
      <use xlink:href="#DejaVuSans-65" x="942.341797"/>
      <use xlink:href="#DejaVuSans-64" x="1003.865234"/>
      <use xlink:href="#DejaVuSans-29" x="1067.341797"/>
     </g>
    </g>
   </g>
   <g id="line2d_9">
    <path d="M 73.832727 73.863737 
L 77.079273 63.222588 
L 80.325818 69.593772 
L 83.572364 71.960322 
L 86.818909 72.788357 
L 90.065455 73.290073 
L 93.312 73.484837 
L 96.558545 73.67915 
L 99.805091 73.726907 
L 103.051636 73.780566 
L 106.298182 73.813593 
L 109.544727 73.828794 
L 112.791273 73.842392 
L 116.037818 73.850013 
L 119.284364 73.855205 
L 122.530909 72.552148 
L 125.777455 43.60382 
L 129.024 43.60382 
L 132.270545 43.60382 
L 135.517091 43.60382 
L 138.763636 43.60382 
L 142.010182 43.60382 
L 145.256727 43.60382 
L 148.503273 43.60382 
L 151.749818 43.60382 
L 154.996364 43.60382 
L 158.242909 43.60382 
L 161.489455 43.60382 
L 164.736 43.60382 
L 167.982545 43.60382 
L 171.229091 49.290833 
L 174.475636 66.885279 
L 177.722182 67.524678 
L 180.968727 68.188617 
L 184.215273 69.3657 
L 187.461818 70.30909 
L 190.708364 71.293933 
L 193.954909 72.067918 
L 197.201455 72.674032 
L 200.448 73.124251 
L 203.694545 73.414209 
L 206.941091 73.506709 
L 210.187636 73.743282 
L 213.434182 73.734332 
L 216.680727 73.778751 
L 219.927273 73.861695 
L 223.173818 73.793915 
L 226.420364 73.849336 
L 229.666909 73.857283 
L 232.913455 73.856635 
L 236.16 73.857218 
L 239.406545 73.859199 
L 242.653091 73.862965 
L 245.899636 73.86354 
L 249.146182 73.864045 
L 252.392727 73.863819 
L 255.639273 73.863555 
L 258.885818 73.863612 
L 262.132364 73.863665 
L 265.378909 73.863714 
L 268.625455 74.27953 
L 271.872 79.536263 
L 275.118545 79.03126 
L 278.365091 78.245811 
L 281.611636 77.570691 
L 284.858182 76.710408 
L 288.104727 75.942084 
L 291.351273 75.451971 
L 294.597818 74.877458 
L 297.844364 74.510679 
L 301.090909 74.295524 
L 304.337455 74.140893 
L 307.584 74.027229 
L 310.830545 73.963105 
L 314.077091 73.927678 
L 317.323636 73.901027 
L 320.570182 73.886427 
L 323.816727 73.87793 
L 327.063273 73.857365 
L 330.309818 73.883344 
L 333.556364 73.869257 
L 336.802909 73.865683 
L 340.049455 73.865269 
L 343.296 73.864965 
L 346.542545 73.864661 
L 349.789091 73.864426 
L 353.035636 73.864226 
L 356.282182 73.864026 
L 359.528727 73.863923 
L 362.775273 73.863905 
L 366.021818 73.863887 
L 369.268364 73.86387 
L 372.514909 73.863852 
L 375.761455 73.863834 
L 379.008 73.863817 
L 382.254545 73.863799 
L 385.501091 73.863782 
L 388.747636 73.863764 
L 391.994182 73.86375 
L 395.240727 73.863744 
L 398.487273 73.863737 
" clip-path="url(#p00e6a3e2b8)" style="fill: none; stroke: #1f77b4; stroke-width: 1.5; stroke-linecap: square"/>
   </g>
   <g id="line2d_10">
    <path d="M 73.832727 73.863738 
L 77.079273 52.706584 
L 80.325818 65.302162 
L 83.572364 70.059519 
L 86.818909 71.71379 
L 90.065455 72.716888 
L 93.312 73.106105 
L 96.558545 73.494747 
L 99.805091 73.590074 
L 103.051636 73.69742 
L 106.298182 73.763467 
L 109.544727 73.793864 
L 112.791273 73.82106 
L 116.037818 73.836297 
L 119.284364 73.846678 
L 122.530909 70.058765 
L 125.777455 43.655657 
L 129.024 43.655657 
L 132.270545 43.655657 
L 135.517091 43.655657 
L 138.763636 43.655657 
L 142.010182 43.655657 
L 145.256727 43.655657 
L 148.503273 43.655657 
L 151.749818 43.655657 
L 154.996364 43.655657 
L 158.242909 43.655657 
L 161.489455 43.655657 
L 164.736 43.655657 
L 167.982545 43.655657 
L 171.229091 64.066405 
L 174.475636 72.595339 
L 177.722182 72.711567 
L 180.968727 72.832659 
L 184.215273 73.046426 
L 187.461818 73.217763 
L 190.708364 73.3972 
L 193.954909 73.537135 
L 197.201455 73.647545 
L 200.448 73.728983 
L 203.694545 73.782137 
L 206.941091 73.798553 
L 210.187636 73.841421 
L 213.434182 73.840734 
L 216.680727 73.847822 
L 219.927273 73.863879 
L 223.173818 73.851326 
L 226.420364 73.861035 
L 229.666909 73.862627 
L 232.913455 73.86243 
L 236.16 73.862516 
L 239.406545 73.862879 
L 242.653091 73.863593 
L 245.899636 73.863699 
L 249.146182 73.863793 
L 252.392727 73.863752 
L 255.639273 73.863703 
L 258.885818 73.863713 
L 262.132364 73.863723 
L 265.378909 73.863732 
L 268.625455 75.10791 
L 271.872 85.267862 
L 275.118545 84.292598 
L 278.365091 82.695157 
L 281.611636 81.413382 
L 284.858182 79.731804 
L 288.104727 78.170757 
L 291.351273 76.450347 
L 294.597818 75.871386 
L 297.844364 75.144626 
L 301.090909 74.719657 
L 304.337455 74.407137 
L 307.584 74.184451 
L 310.830545 74.059935 
L 314.077091 73.988746 
L 317.323636 73.936072 
L 320.570182 73.907468 
L 323.816727 73.891066 
L 327.063273 73.846725 
L 330.309818 73.912656 
L 333.556364 73.870593 
L 336.802909 73.868079 
L 340.049455 73.866732 
L 343.296 73.866144 
L 346.542545 73.865557 
L 349.789091 73.865095 
L 353.035636 73.864698 
L 356.282182 73.864302 
L 359.528727 73.864096 
L 362.775273 73.864062 
L 366.021818 73.864028 
L 369.268364 73.863994 
L 372.514909 73.86396 
L 375.761455 73.863926 
L 379.008 73.863892 
L 382.254545 73.863858 
L 385.501091 73.863824 
L 388.747636 73.86379 
L 391.994182 73.863763 
L 395.240727 73.863751 
L 398.487273 73.863738 
" clip-path="url(#p00e6a3e2b8)" style="fill: none; stroke: #ff7f0e; stroke-width: 1.5; stroke-linecap: square"/>
   </g>
   <g id="line2d_11">
    <path d="M 73.832727 73.863736 
L 77.079273 72.678232 
L 80.325818 73.387283 
L 83.572364 73.652197 
L 86.818909 73.744234 
L 90.065455 73.799987 
L 93.312 73.821633 
L 96.558545 73.843224 
L 99.805091 73.848532 
L 103.051636 73.854494 
L 106.298182 73.858164 
L 109.544727 73.859853 
L 112.791273 73.861362 
L 116.037818 73.862211 
L 119.284364 73.862787 
L 122.530909 73.780113 
L 125.777455 43.557517 
L 129.024 43.557517 
L 132.270545 43.557517 
L 135.517091 43.557517 
L 138.763636 43.557517 
L 142.010182 43.557517 
L 145.256727 43.557517 
L 148.503273 43.557518 
L 151.749818 43.557518 
L 154.996364 43.557518 
L 158.242909 43.557518 
L 161.489455 43.557518 
L 164.736 43.557518 
L 167.982545 43.557518 
L 171.229091 46.128765 
L 174.475636 61.801564 
L 177.722182 62.906457 
L 180.968727 64.045799 
L 184.215273 66.083782 
L 187.461818 67.717267 
L 190.708364 69.410827 
L 193.954909 70.763437 
L 197.201455 71.806409 
L 200.448 72.592324 
L 203.694545 73.084345 
L 206.941091 73.252838 
L 210.187636 73.663292 
L 213.434182 73.630173 
L 216.680727 73.72592 
L 219.927273 73.849883 
L 223.173818 73.738526 
L 226.420364 73.840303 
L 229.666909 73.851349 
L 232.913455 73.851758 
L 236.16 73.853165 
L 239.406545 73.856531 
L 242.653091 73.862454 
L 245.899636 73.863418 
L 249.146182 73.86425 
L 252.392727 73.86387 
L 255.639273 73.863421 
L 258.885818 73.863522 
L 262.132364 73.863614 
L 265.378909 73.863698 
L 268.625455 73.90361 
L 271.872 74.493027 
L 275.118545 74.436337 
L 278.365091 74.349521 
L 281.611636 74.273446 
L 284.858182 74.177761 
L 288.104727 74.094233 
L 291.351273 74.049103 
L 294.597818 73.976687 
L 297.844364 73.93587 
L 301.090909 73.911855 
L 304.337455 73.894729 
L 307.584 73.882021 
L 310.830545 73.874822 
L 314.077091 73.870893 
L 317.323636 73.867924 
L 320.570182 73.866288 
L 323.816727 73.865343 
L 327.063273 73.863096 
L 330.309818 73.865766 
L 333.556364 73.864434 
L 336.802909 73.863944 
L 340.049455 73.863907 
L 343.296 73.863873 
L 346.542545 73.863839 
L 349.789091 73.863813 
L 353.035636 73.863791 
L 356.282182 73.863769 
L 359.528727 73.863757 
L 362.775273 73.863755 
L 366.021818 73.863753 
L 369.268364 73.863751 
L 372.514909 73.863749 
L 375.761455 73.863747 
L 379.008 73.863745 
L 382.254545 73.863743 
L 385.501091 73.863741 
L 388.747636 73.863739 
L 391.994182 73.863738 
L 395.240727 73.863737 
L 398.487273 73.863736 
" clip-path="url(#p00e6a3e2b8)" style="fill: none; stroke: #2ca02c; stroke-width: 1.5; stroke-linecap: square"/>
   </g>
   <g id="patch_3">
    <path d="M 57.6 87.353379 
L 57.6 41.472 
" style="fill: none; stroke: #000000; stroke-width: 0.8; stroke-linejoin: miter; stroke-linecap: square"/>
   </g>
   <g id="patch_4">
    <path d="M 414.72 87.353379 
L 414.72 41.472 
" style="fill: none; stroke: #000000; stroke-width: 0.8; stroke-linejoin: miter; stroke-linecap: square"/>
   </g>
   <g id="patch_5">
    <path d="M 57.6 87.353379 
L 414.72 87.353379 
" style="fill: none; stroke: #000000; stroke-width: 0.8; stroke-linejoin: miter; stroke-linecap: square"/>
   </g>
   <g id="patch_6">
    <path d="M 57.6 41.472 
L 414.72 41.472 
" style="fill: none; stroke: #000000; stroke-width: 0.8; stroke-linejoin: miter; stroke-linecap: square"/>
   </g>
   <g id="text_4">
    <!-- velocity vs time (container 1)   -->
    <g transform="translate(144.106875 35.472)scale(0.12 -0.12)">
     <defs>
      <path id="DejaVuSans-76" d="M 191 3500 
L 800 3500 
L 1894 563 
L 2988 3500 
L 3597 3500 
L 2284 0 
L 1503 0 
L 191 3500 
z
" transform="scale(0.015625)"/>
      <path id="DejaVuSans-63" d="M 3122 3366 
L 3122 2828 
Q 2878 2963 2633 3030 
Q 2388 3097 2138 3097 
Q 1578 3097 1268 2742 
Q 959 2388 959 1747 
Q 959 1106 1268 751 
Q 1578 397 2138 397 
Q 2388 397 2633 464 
Q 2878 531 3122 666 
L 3122 134 
Q 2881 22 2623 -34 
Q 2366 -91 2075 -91 
Q 1284 -91 818 406 
Q 353 903 353 1747 
Q 353 2603 823 3093 
Q 1294 3584 2113 3584 
Q 2378 3584 2631 3529 
Q 2884 3475 3122 3366 
z
" transform="scale(0.015625)"/>
      <path id="DejaVuSans-79" d="M 2059 -325 
Q 1816 -950 1584 -1140 
Q 1353 -1331 966 -1331 
L 506 -1331 
L 506 -850 
L 844 -850 
Q 1081 -850 1212 -737 
Q 1344 -625 1503 -206 
L 1606 56 
L 191 3500 
L 800 3500 
L 1894 763 
L 2988 3500 
L 3597 3500 
L 2059 -325 
z
" transform="scale(0.015625)"/>
      <path id="DejaVuSans-73" d="M 2834 3397 
L 2834 2853 
Q 2591 2978 2328 3040 
Q 2066 3103 1784 3103 
Q 1356 3103 1142 2972 
Q 928 2841 928 2578 
Q 928 2378 1081 2264 
Q 1234 2150 1697 2047 
L 1894 2003 
Q 2506 1872 2764 1633 
Q 3022 1394 3022 966 
Q 3022 478 2636 193 
Q 2250 -91 1575 -91 
Q 1294 -91 989 -36 
Q 684 19 347 128 
L 347 722 
Q 666 556 975 473 
Q 1284 391 1588 391 
Q 1994 391 2212 530 
Q 2431 669 2431 922 
Q 2431 1156 2273 1281 
Q 2116 1406 1581 1522 
L 1381 1569 
Q 847 1681 609 1914 
Q 372 2147 372 2553 
Q 372 3047 722 3315 
Q 1072 3584 1716 3584 
Q 2034 3584 2315 3537 
Q 2597 3491 2834 3397 
z
" transform="scale(0.015625)"/>
     </defs>
     <use xlink:href="#DejaVuSans-76"/>
     <use xlink:href="#DejaVuSans-65" x="59.179688"/>
     <use xlink:href="#DejaVuSans-6c" x="120.703125"/>
     <use xlink:href="#DejaVuSans-6f" x="148.486328"/>
     <use xlink:href="#DejaVuSans-63" x="209.667969"/>
     <use xlink:href="#DejaVuSans-69" x="264.648438"/>
     <use xlink:href="#DejaVuSans-74" x="292.431641"/>
     <use xlink:href="#DejaVuSans-79" x="331.640625"/>
     <use xlink:href="#DejaVuSans-20" x="390.820312"/>
     <use xlink:href="#DejaVuSans-76" x="422.607422"/>
     <use xlink:href="#DejaVuSans-73" x="481.787109"/>
     <use xlink:href="#DejaVuSans-20" x="533.886719"/>
     <use xlink:href="#DejaVuSans-74" x="565.673828"/>
     <use xlink:href="#DejaVuSans-69" x="604.882812"/>
     <use xlink:href="#DejaVuSans-6d" x="632.666016"/>
     <use xlink:href="#DejaVuSans-65" x="730.078125"/>
     <use xlink:href="#DejaVuSans-20" x="791.601562"/>
     <use xlink:href="#DejaVuSans-28" x="823.388672"/>
     <use xlink:href="#DejaVuSans-63" x="862.402344"/>
     <use xlink:href="#DejaVuSans-6f" x="917.382812"/>
     <use xlink:href="#DejaVuSans-6e" x="978.564453"/>
     <use xlink:href="#DejaVuSans-74" x="1041.943359"/>
     <use xlink:href="#DejaVuSans-61" x="1081.152344"/>
     <use xlink:href="#DejaVuSans-69" x="1142.431641"/>
     <use xlink:href="#DejaVuSans-6e" x="1170.214844"/>
     <use xlink:href="#DejaVuSans-65" x="1233.59375"/>
     <use xlink:href="#DejaVuSans-72" x="1295.117188"/>
     <use xlink:href="#DejaVuSans-20" x="1336.230469"/>
     <use xlink:href="#DejaVuSans-31" x="1368.017578"/>
     <use xlink:href="#DejaVuSans-29" x="1431.640625"/>
     <use xlink:href="#DejaVuSans-20" x="1470.654297"/>
     <use xlink:href="#DejaVuSans-20" x="1502.441406"/>
    </g>
   </g>
   <g id="legend_1">
    <g id="patch_7">
     <path d="M 64.6 93.506375 
L 139.240625 93.506375 
Q 141.240625 93.506375 141.240625 91.506375 
L 141.240625 48.472 
Q 141.240625 46.472 139.240625 46.472 
L 64.6 46.472 
Q 62.6 46.472 62.6 48.472 
L 62.6 91.506375 
Q 62.6 93.506375 64.6 93.506375 
z
" style="fill: #ffffff; opacity: 0.8; stroke: #cccccc; stroke-linejoin: miter"/>
    </g>
    <g id="line2d_12">
     <path d="M 66.6 54.570437 
L 76.6 54.570437 
L 86.6 54.570437 
" style="fill: none; stroke: #1f77b4; stroke-width: 1.5; stroke-linecap: square"/>
    </g>
    <g id="text_5">
     <!-- mid flow -->
     <g transform="translate(94.6 58.070437)scale(0.1 -0.1)">
      <use xlink:href="#DejaVuSans-6d"/>
      <use xlink:href="#DejaVuSans-69" x="97.412109"/>
      <use xlink:href="#DejaVuSans-64" x="125.195312"/>
      <use xlink:href="#DejaVuSans-20" x="188.671875"/>
      <use xlink:href="#DejaVuSans-66" x="220.458984"/>
      <use xlink:href="#DejaVuSans-6c" x="255.664062"/>
      <use xlink:href="#DejaVuSans-6f" x="283.447266"/>
      <use xlink:href="#DejaVuSans-77" x="344.628906"/>
     </g>
    </g>
    <g id="line2d_13">
     <path d="M 66.6 69.248562 
L 76.6 69.248562 
L 86.6 69.248562 
" style="fill: none; stroke: #ff7f0e; stroke-width: 1.5; stroke-linecap: square"/>
    </g>
    <g id="text_6">
     <!-- v0 flow -->
     <g transform="translate(94.6 72.748562)scale(0.1 -0.1)">
      <use xlink:href="#DejaVuSans-76"/>
      <use xlink:href="#DejaVuSans-30" x="59.179688"/>
      <use xlink:href="#DejaVuSans-20" x="122.802734"/>
      <use xlink:href="#DejaVuSans-66" x="154.589844"/>
      <use xlink:href="#DejaVuSans-6c" x="189.794922"/>
      <use xlink:href="#DejaVuSans-6f" x="217.578125"/>
      <use xlink:href="#DejaVuSans-77" x="278.759766"/>
     </g>
    </g>
    <g id="line2d_14">
     <path d="M 66.6 83.926687 
L 76.6 83.926687 
L 86.6 83.926687 
" style="fill: none; stroke: #2ca02c; stroke-width: 1.5; stroke-linecap: square"/>
    </g>
    <g id="text_7">
     <!-- vN flow -->
     <g transform="translate(94.6 87.426687)scale(0.1 -0.1)">
      <defs>
       <path id="DejaVuSans-4e" d="M 628 4666 
L 1478 4666 
L 3547 763 
L 3547 4666 
L 4159 4666 
L 4159 0 
L 3309 0 
L 1241 3903 
L 1241 0 
L 628 0 
L 628 4666 
z
" transform="scale(0.015625)"/>
      </defs>
      <use xlink:href="#DejaVuSans-76"/>
      <use xlink:href="#DejaVuSans-4e" x="59.179688"/>
      <use xlink:href="#DejaVuSans-20" x="133.984375"/>
      <use xlink:href="#DejaVuSans-66" x="165.771484"/>
      <use xlink:href="#DejaVuSans-6c" x="200.976562"/>
      <use xlink:href="#DejaVuSans-6f" x="228.759766"/>
      <use xlink:href="#DejaVuSans-77" x="289.941406"/>
     </g>
    </g>
   </g>
  </g>
  <g id="axes_2">
   <g id="patch_8">
    <path d="M 57.6 142.411034 
L 414.72 142.411034 
L 414.72 96.529655 
L 57.6 96.529655 
z
" style="fill: #ffffff"/>
   </g>
   <g id="matplotlib.axis_3">
    <g id="xtick_7">
     <g id="line2d_15">
      <g>
       <use xlink:href="#mb57396399a" x="73.832727" y="142.411034" style="stroke: #000000; stroke-width: 0.8"/>
      </g>
     </g>
    </g>
    <g id="xtick_8">
     <g id="line2d_16">
      <g>
       <use xlink:href="#mb57396399a" x="138.763636" y="142.411034" style="stroke: #000000; stroke-width: 0.8"/>
      </g>
     </g>
    </g>
    <g id="xtick_9">
     <g id="line2d_17">
      <g>
       <use xlink:href="#mb57396399a" x="203.694545" y="142.411034" style="stroke: #000000; stroke-width: 0.8"/>
      </g>
     </g>
    </g>
    <g id="xtick_10">
     <g id="line2d_18">
      <g>
       <use xlink:href="#mb57396399a" x="268.625455" y="142.411034" style="stroke: #000000; stroke-width: 0.8"/>
      </g>
     </g>
    </g>
    <g id="xtick_11">
     <g id="line2d_19">
      <g>
       <use xlink:href="#mb57396399a" x="333.556364" y="142.411034" style="stroke: #000000; stroke-width: 0.8"/>
      </g>
     </g>
    </g>
    <g id="xtick_12">
     <g id="line2d_20">
      <g>
       <use xlink:href="#mb57396399a" x="398.487273" y="142.411034" style="stroke: #000000; stroke-width: 0.8"/>
      </g>
     </g>
    </g>
   </g>
   <g id="matplotlib.axis_4">
    <g id="ytick_3">
     <g id="line2d_21">
      <g>
       <use xlink:href="#m3981910ce6" x="57.6" y="140.745253" style="stroke: #000000; stroke-width: 0.8"/>
      </g>
     </g>
     <g id="text_8">
      <!-- 0 -->
      <g transform="translate(44.2375 144.544472)scale(0.1 -0.1)">
       <use xlink:href="#DejaVuSans-30"/>
      </g>
     </g>
    </g>
    <g id="ytick_4">
     <g id="line2d_22">
      <g>
       <use xlink:href="#m3981910ce6" x="57.6" y="98.771642" style="stroke: #000000; stroke-width: 0.8"/>
      </g>
     </g>
     <g id="text_9">
      <!-- 1 -->
      <g transform="translate(44.2375 102.570861)scale(0.1 -0.1)">
       <use xlink:href="#DejaVuSans-31"/>
      </g>
     </g>
    </g>
   </g>
   <g id="line2d_23">
    <path d="M 73.832727 140.325517 
L 77.079273 123.978967 
L 80.325818 114.060854 
L 83.572364 108.04383 
L 86.818909 104.39631 
L 90.065455 102.185084 
L 93.312 100.842295 
L 96.558545 100.028404 
L 99.805091 99.530757 
L 103.051636 99.233848 
L 106.298182 99.05393 
L 109.544727 98.941705 
L 112.791273 98.87607 
L 116.037818 98.834395 
L 119.284364 98.810697 
L 122.530909 98.782311 
L 125.777455 98.615172 
L 129.024 98.615172 
L 132.270545 98.615172 
L 135.517091 98.615172 
L 138.763636 98.615172 
L 142.010182 98.615172 
L 145.256727 98.615172 
L 148.503273 98.615172 
L 151.749818 98.615172 
L 154.996364 98.615172 
L 158.242909 98.615172 
L 161.489455 98.615172 
L 164.736 98.615172 
L 167.982545 98.615172 
L 171.229091 98.660727 
L 174.475636 113.597944 
L 177.722182 122.625548 
L 180.968727 128.098251 
L 184.215273 131.411385 
L 187.461818 133.429842 
L 190.708364 134.654078 
L 193.954909 135.39854 
L 197.201455 135.851714 
L 200.448 136.125161 
L 203.694545 136.288916 
L 206.941091 136.392068 
L 210.187636 136.454244 
L 213.434182 136.489468 
L 216.680727 136.513607 
L 219.927273 136.52649 
L 223.173818 136.534486 
L 226.420364 136.540184 
L 229.666909 136.543172 
L 232.913455 136.545031 
L 236.16 136.546162 
L 239.406545 136.546865 
L 242.653091 136.547291 
L 245.899636 136.547549 
L 249.146182 136.547767 
L 252.392727 136.547778 
L 255.639273 136.547806 
L 258.885818 136.547837 
L 262.132364 136.547862 
L 265.378909 136.547875 
L 268.625455 136.551653 
L 271.872 138.032844 
L 275.118545 138.933121 
L 278.365091 139.480245 
L 281.611636 139.813157 
L 284.858182 140.014523 
L 288.104727 140.13667 
L 291.351273 140.210622 
L 294.597818 140.256069 
L 297.844364 140.283361 
L 301.090909 140.299915 
L 304.337455 140.30999 
L 307.584 140.316133 
L 310.830545 140.319817 
L 314.077091 140.322063 
L 317.323636 140.323421 
L 320.570182 140.324229 
L 323.816727 140.324848 
L 327.063273 140.325017 
L 330.309818 140.325399 
L 333.556364 140.325345 
L 336.802909 140.325413 
L 340.049455 140.325442 
L 343.296 140.325466 
L 346.542545 140.325489 
L 349.789091 140.325501 
L 353.035636 140.325506 
L 356.282182 140.325511 
L 359.528727 140.325513 
L 362.775273 140.325514 
L 366.021818 140.325514 
L 369.268364 140.325515 
L 372.514909 140.325515 
L 375.761455 140.325515 
L 379.008 140.325516 
L 382.254545 140.325516 
L 385.501091 140.325517 
L 388.747636 140.325517 
L 391.994182 140.325517 
L 395.240727 140.325517 
L 398.487273 140.325517 
" clip-path="url(#pb5f2a487f3)" style="fill: none; stroke: #1f77b4; stroke-width: 1.5; stroke-linecap: square"/>
   </g>
   <g id="line2d_24">
    <path d="M 73.832727 140.325517 
L 77.079273 124.024265 
L 80.325818 114.079128 
L 83.572364 108.05196 
L 86.818909 104.400904 
L 90.065455 102.187535 
L 93.312 100.843914 
L 96.558545 100.029192 
L 99.805091 99.531342 
L 103.051636 99.234203 
L 106.298182 99.054144 
L 109.544727 98.941854 
L 112.791273 98.876162 
L 116.037818 98.834453 
L 119.284364 98.810734 
L 122.530909 98.789494 
L 125.777455 98.69534 
L 129.024 98.69534 
L 132.270545 98.69534 
L 135.517091 98.69534 
L 138.763636 98.69534 
L 142.010182 98.69534 
L 145.256727 98.69534 
L 148.503273 98.69534 
L 151.749818 98.69534 
L 154.996364 98.69534 
L 158.242909 98.69534 
L 161.489455 98.69534 
L 164.736 98.69534 
L 167.982545 98.69534 
L 171.229091 98.705356 
L 174.475636 113.607196 
L 177.722182 122.633952 
L 180.968727 128.105773 
L 184.215273 131.417348 
L 187.461818 133.434554 
L 190.708364 134.657483 
L 193.954909 135.400921 
L 197.201455 135.853292 
L 200.448 136.126143 
L 203.694545 136.289512 
L 206.941091 136.392542 
L 210.187636 136.454406 
L 213.434182 136.489638 
L 216.680727 136.513722 
L 219.927273 136.526491 
L 223.173818 136.534577 
L 226.420364 136.540203 
L 229.666909 136.543181 
L 232.913455 136.54504 
L 236.16 136.54617 
L 239.406545 136.546871 
L 242.653091 136.547292 
L 245.899636 136.547549 
L 249.146182 136.547767 
L 252.392727 136.547778 
L 255.639273 136.547806 
L 258.885818 136.547837 
L 262.132364 136.547862 
L 265.378909 136.547875 
L 268.625455 136.549331 
L 271.872 138.008527 
L 275.118545 138.910914 
L 278.365091 139.461431 
L 281.611636 139.797137 
L 284.858182 140.002132 
L 288.104727 140.127611 
L 291.351273 140.204618 
L 294.597818 140.251765 
L 297.844364 140.280615 
L 301.090909 140.29808 
L 304.337455 140.308821 
L 307.584 140.315443 
L 310.830545 140.319396 
L 314.077091 140.321793 
L 317.323636 140.323265 
L 320.570182 140.324134 
L 323.816727 140.324789 
L 327.063273 140.32505 
L 330.309818 140.325302 
L 333.556364 140.325327 
L 336.802909 140.325404 
L 340.049455 140.325435 
L 343.296 140.32546 
L 346.542545 140.325485 
L 349.789091 140.325498 
L 353.035636 140.325504 
L 356.282182 140.32551 
L 359.528727 140.325513 
L 362.775273 140.325513 
L 366.021818 140.325513 
L 369.268364 140.325514 
L 372.514909 140.325514 
L 375.761455 140.325515 
L 379.008 140.325515 
L 382.254545 140.325516 
L 385.501091 140.325516 
L 388.747636 140.325517 
L 391.994182 140.325517 
L 395.240727 140.325517 
L 398.487273 140.325517 
" clip-path="url(#pb5f2a487f3)" style="fill: none; stroke: #ff7f0e; stroke-width: 1.5; stroke-linecap: square"/>
   </g>
   <g id="line2d_25">
    <path d="M 73.832727 140.325517 
L 77.079273 124.038388 
L 80.325818 114.084787 
L 83.572364 108.054484 
L 86.818909 104.40233 
L 90.065455 102.188295 
L 93.312 100.844416 
L 96.558545 100.029437 
L 99.805091 99.531523 
L 103.051636 99.234313 
L 106.298182 99.054211 
L 109.544727 98.941901 
L 112.791273 98.87619 
L 116.037818 98.834471 
L 119.284364 98.810745 
L 122.530909 98.791086 
L 125.777455 98.767622 
L 129.024 98.767622 
L 132.270545 98.767622 
L 135.517091 98.767622 
L 138.763636 98.767622 
L 142.010182 98.767622 
L 145.256727 98.767622 
L 148.503273 98.767622 
L 151.749818 98.767622 
L 154.996364 98.767622 
L 158.242909 98.767622 
L 161.489455 98.767622 
L 164.736 98.767622 
L 167.982545 98.767622 
L 171.229091 98.768658 
L 174.475636 113.629918 
L 177.722182 122.654592 
L 180.968727 128.124259 
L 184.215273 131.431998 
L 187.461818 133.44613 
L 190.708364 134.665861 
L 193.954909 135.406765 
L 197.201455 135.857166 
L 200.448 136.128544 
L 203.694545 136.290978 
L 206.941091 136.393699 
L 210.187636 136.45479 
L 213.434182 136.490069 
L 216.680727 136.513989 
L 219.927273 136.526507 
L 223.173818 136.534809 
L 226.420364 136.540249 
L 229.666909 136.543203 
L 232.913455 136.545063 
L 236.16 136.546191 
L 239.406545 136.546885 
L 242.653091 136.547295 
L 245.899636 136.54755 
L 249.146182 136.547766 
L 252.392727 136.547778 
L 255.639273 136.547807 
L 258.885818 136.547838 
L 262.132364 136.547862 
L 265.378909 136.547875 
L 268.625455 136.548814 
L 271.872 138.00101 
L 275.118545 138.904071 
L 278.365091 139.455626 
L 281.611636 139.792233 
L 284.858182 139.99837 
L 288.104727 140.124858 
L 291.351273 140.202463 
L 294.597818 140.250419 
L 297.844364 140.279755 
L 301.090909 140.297507 
L 304.337455 140.308452 
L 307.584 140.315226 
L 310.830545 140.319264 
L 314.077091 140.321708 
L 317.323636 140.323215 
L 320.570182 140.324104 
L 323.816727 140.32477 
L 327.063273 140.325058 
L 330.309818 140.325277 
L 333.556364 140.325319 
L 336.802909 140.325402 
L 340.049455 140.325433 
L 343.296 140.325459 
L 346.542545 140.325484 
L 349.789091 140.325497 
L 353.035636 140.325503 
L 356.282182 140.325509 
L 359.528727 140.325512 
L 362.775273 140.325513 
L 366.021818 140.325513 
L 369.268364 140.325514 
L 372.514909 140.325514 
L 375.761455 140.325515 
L 379.008 140.325515 
L 382.254545 140.325516 
L 385.501091 140.325516 
L 388.747636 140.325517 
L 391.994182 140.325517 
L 395.240727 140.325517 
L 398.487273 140.325517 
" clip-path="url(#pb5f2a487f3)" style="fill: none; stroke: #2ca02c; stroke-width: 1.5; stroke-linecap: square"/>
   </g>
   <g id="patch_9">
    <path d="M 57.6 142.411034 
L 57.6 96.529655 
" style="fill: none; stroke: #000000; stroke-width: 0.8; stroke-linejoin: miter; stroke-linecap: square"/>
   </g>
   <g id="patch_10">
    <path d="M 414.72 142.411034 
L 414.72 96.529655 
" style="fill: none; stroke: #000000; stroke-width: 0.8; stroke-linejoin: miter; stroke-linecap: square"/>
   </g>
   <g id="patch_11">
    <path d="M 57.6 142.411034 
L 414.72 142.411034 
" style="fill: none; stroke: #000000; stroke-width: 0.8; stroke-linejoin: miter; stroke-linecap: square"/>
   </g>
   <g id="patch_12">
    <path d="M 57.6 96.529655 
L 414.72 96.529655 
" style="fill: none; stroke: #000000; stroke-width: 0.8; stroke-linejoin: miter; stroke-linecap: square"/>
   </g>
   <g id="text_10">
    <!-- Pressure -->
    <g transform="translate(210.546562 90.529655)scale(0.12 -0.12)">
     <defs>
      <path id="DejaVuSans-50" d="M 1259 4147 
L 1259 2394 
L 2053 2394 
Q 2494 2394 2734 2622 
Q 2975 2850 2975 3272 
Q 2975 3691 2734 3919 
Q 2494 4147 2053 4147 
L 1259 4147 
z
M 628 4666 
L 2053 4666 
Q 2838 4666 3239 4311 
Q 3641 3956 3641 3272 
Q 3641 2581 3239 2228 
Q 2838 1875 2053 1875 
L 1259 1875 
L 1259 0 
L 628 0 
L 628 4666 
z
" transform="scale(0.015625)"/>
      <path id="DejaVuSans-75" d="M 544 1381 
L 544 3500 
L 1119 3500 
L 1119 1403 
Q 1119 906 1312 657 
Q 1506 409 1894 409 
Q 2359 409 2629 706 
Q 2900 1003 2900 1516 
L 2900 3500 
L 3475 3500 
L 3475 0 
L 2900 0 
L 2900 538 
Q 2691 219 2414 64 
Q 2138 -91 1772 -91 
Q 1169 -91 856 284 
Q 544 659 544 1381 
z
M 1991 3584 
L 1991 3584 
z
" transform="scale(0.015625)"/>
     </defs>
     <use xlink:href="#DejaVuSans-50"/>
     <use xlink:href="#DejaVuSans-72" x="58.552734"/>
     <use xlink:href="#DejaVuSans-65" x="97.416016"/>
     <use xlink:href="#DejaVuSans-73" x="158.939453"/>
     <use xlink:href="#DejaVuSans-73" x="211.039062"/>
     <use xlink:href="#DejaVuSans-75" x="263.138672"/>
     <use xlink:href="#DejaVuSans-72" x="326.517578"/>
     <use xlink:href="#DejaVuSans-65" x="365.380859"/>
    </g>
   </g>
   <g id="legend_2">
    <g id="patch_13">
     <path d="M 350.823125 137.411034 
L 407.72 137.411034 
Q 409.72 137.411034 409.72 135.411034 
L 409.72 92.376659 
Q 409.72 90.376659 407.72 90.376659 
L 350.823125 90.376659 
Q 348.823125 90.376659 348.823125 92.376659 
L 348.823125 135.411034 
Q 348.823125 137.411034 350.823125 137.411034 
z
" style="fill: #ffffff; opacity: 0.8; stroke: #cccccc; stroke-linejoin: miter"/>
    </g>
    <g id="line2d_26">
     <path d="M 352.823125 98.475097 
L 362.823125 98.475097 
L 372.823125 98.475097 
" style="fill: none; stroke: #1f77b4; stroke-width: 1.5; stroke-linecap: square"/>
    </g>
    <g id="text_11">
     <!-- P1 -->
     <g transform="translate(380.823125 101.975097)scale(0.1 -0.1)">
      <use xlink:href="#DejaVuSans-50"/>
      <use xlink:href="#DejaVuSans-31" x="60.302734"/>
     </g>
    </g>
    <g id="line2d_27">
     <path d="M 352.823125 113.153222 
L 362.823125 113.153222 
L 372.823125 113.153222 
" style="fill: none; stroke: #ff7f0e; stroke-width: 1.5; stroke-linecap: square"/>
    </g>
    <g id="text_12">
     <!-- Pmid -->
     <g transform="translate(380.823125 116.653222)scale(0.1 -0.1)">
      <use xlink:href="#DejaVuSans-50"/>
      <use xlink:href="#DejaVuSans-6d" x="60.302734"/>
      <use xlink:href="#DejaVuSans-69" x="157.714844"/>
      <use xlink:href="#DejaVuSans-64" x="185.498047"/>
     </g>
    </g>
    <g id="line2d_28">
     <path d="M 352.823125 127.831347 
L 362.823125 127.831347 
L 372.823125 127.831347 
" style="fill: none; stroke: #2ca02c; stroke-width: 1.5; stroke-linecap: square"/>
    </g>
    <g id="text_13">
     <!-- PN -->
     <g transform="translate(380.823125 131.331347)scale(0.1 -0.1)">
      <use xlink:href="#DejaVuSans-50"/>
      <use xlink:href="#DejaVuSans-4e" x="60.302734"/>
     </g>
    </g>
   </g>
  </g>
  <g id="axes_3">
   <g id="patch_14">
    <path d="M 57.6 197.46869 
L 414.72 197.46869 
L 414.72 151.58731 
L 57.6 151.58731 
z
" style="fill: #ffffff"/>
   </g>
   <g id="matplotlib.axis_5">
    <g id="xtick_13">
     <g id="line2d_29">
      <g>
       <use xlink:href="#mb57396399a" x="73.832727" y="197.46869" style="stroke: #000000; stroke-width: 0.8"/>
      </g>
     </g>
    </g>
    <g id="xtick_14">
     <g id="line2d_30">
      <g>
       <use xlink:href="#mb57396399a" x="138.763636" y="197.46869" style="stroke: #000000; stroke-width: 0.8"/>
      </g>
     </g>
    </g>
    <g id="xtick_15">
     <g id="line2d_31">
      <g>
       <use xlink:href="#mb57396399a" x="203.694545" y="197.46869" style="stroke: #000000; stroke-width: 0.8"/>
      </g>
     </g>
    </g>
    <g id="xtick_16">
     <g id="line2d_32">
      <g>
       <use xlink:href="#mb57396399a" x="268.625455" y="197.46869" style="stroke: #000000; stroke-width: 0.8"/>
      </g>
     </g>
    </g>
    <g id="xtick_17">
     <g id="line2d_33">
      <g>
       <use xlink:href="#mb57396399a" x="333.556364" y="197.46869" style="stroke: #000000; stroke-width: 0.8"/>
      </g>
     </g>
    </g>
    <g id="xtick_18">
     <g id="line2d_34">
      <g>
       <use xlink:href="#mb57396399a" x="398.487273" y="197.46869" style="stroke: #000000; stroke-width: 0.8"/>
      </g>
     </g>
    </g>
   </g>
   <g id="matplotlib.axis_6">
    <g id="ytick_5">
     <g id="line2d_35">
      <g>
       <use xlink:href="#m3981910ce6" x="57.6" y="189.661033" style="stroke: #000000; stroke-width: 0.8"/>
      </g>
     </g>
     <g id="text_14">
      <!-- 0.04999 -->
      <g transform="translate(9.246875 193.460251)scale(0.1 -0.1)">
       <defs>
        <path id="DejaVuSans-2e" d="M 684 794 
L 1344 794 
L 1344 0 
L 684 0 
L 684 794 
z
" transform="scale(0.015625)"/>
        <path id="DejaVuSans-34" d="M 2419 4116 
L 825 1625 
L 2419 1625 
L 2419 4116 
z
M 2253 4666 
L 3047 4666 
L 3047 1625 
L 3713 1625 
L 3713 1100 
L 3047 1100 
L 3047 0 
L 2419 0 
L 2419 1100 
L 313 1100 
L 313 1709 
L 2253 4666 
z
" transform="scale(0.015625)"/>
        <path id="DejaVuSans-39" d="M 703 97 
L 703 672 
Q 941 559 1184 500 
Q 1428 441 1663 441 
Q 2288 441 2617 861 
Q 2947 1281 2994 2138 
Q 2813 1869 2534 1725 
Q 2256 1581 1919 1581 
Q 1219 1581 811 2004 
Q 403 2428 403 3163 
Q 403 3881 828 4315 
Q 1253 4750 1959 4750 
Q 2769 4750 3195 4129 
Q 3622 3509 3622 2328 
Q 3622 1225 3098 567 
Q 2575 -91 1691 -91 
Q 1453 -91 1209 -44 
Q 966 3 703 97 
z
M 1959 2075 
Q 2384 2075 2632 2365 
Q 2881 2656 2881 3163 
Q 2881 3666 2632 3958 
Q 2384 4250 1959 4250 
Q 1534 4250 1286 3958 
Q 1038 3666 1038 3163 
Q 1038 2656 1286 2365 
Q 1534 2075 1959 2075 
z
" transform="scale(0.015625)"/>
       </defs>
       <use xlink:href="#DejaVuSans-30"/>
       <use xlink:href="#DejaVuSans-2e" x="63.623047"/>
       <use xlink:href="#DejaVuSans-30" x="95.410156"/>
       <use xlink:href="#DejaVuSans-34" x="159.033203"/>
       <use xlink:href="#DejaVuSans-39" x="222.65625"/>
       <use xlink:href="#DejaVuSans-39" x="286.279297"/>
       <use xlink:href="#DejaVuSans-39" x="349.902344"/>
      </g>
     </g>
    </g>
    <g id="ytick_6">
     <g id="line2d_36">
      <g>
       <use xlink:href="#m3981910ce6" x="57.6" y="165.329326" style="stroke: #000000; stroke-width: 0.8"/>
      </g>
     </g>
     <g id="text_15">
      <!-- 0.05000 -->
      <g transform="translate(9.246875 169.128545)scale(0.1 -0.1)">
       <defs>
        <path id="DejaVuSans-35" d="M 691 4666 
L 3169 4666 
L 3169 4134 
L 1269 4134 
L 1269 2991 
Q 1406 3038 1543 3061 
Q 1681 3084 1819 3084 
Q 2600 3084 3056 2656 
Q 3513 2228 3513 1497 
Q 3513 744 3044 326 
Q 2575 -91 1722 -91 
Q 1428 -91 1123 -41 
Q 819 9 494 109 
L 494 744 
Q 775 591 1075 516 
Q 1375 441 1709 441 
Q 2250 441 2565 725 
Q 2881 1009 2881 1497 
Q 2881 1984 2565 2268 
Q 2250 2553 1709 2553 
Q 1456 2553 1204 2497 
Q 953 2441 691 2322 
L 691 4666 
z
" transform="scale(0.015625)"/>
       </defs>
       <use xlink:href="#DejaVuSans-30"/>
       <use xlink:href="#DejaVuSans-2e" x="63.623047"/>
       <use xlink:href="#DejaVuSans-30" x="95.410156"/>
       <use xlink:href="#DejaVuSans-35" x="159.033203"/>
       <use xlink:href="#DejaVuSans-30" x="222.65625"/>
       <use xlink:href="#DejaVuSans-30" x="286.279297"/>
       <use xlink:href="#DejaVuSans-30" x="349.902344"/>
      </g>
     </g>
    </g>
    <g id="text_16">
     <!-- fraction -->
     <g transform="translate(3.167187 193.73425)rotate(-90)scale(0.1 -0.1)">
      <use xlink:href="#DejaVuSans-66"/>
      <use xlink:href="#DejaVuSans-72" x="35.205078"/>
      <use xlink:href="#DejaVuSans-61" x="76.318359"/>
      <use xlink:href="#DejaVuSans-63" x="137.597656"/>
      <use xlink:href="#DejaVuSans-74" x="192.578125"/>
      <use xlink:href="#DejaVuSans-69" x="231.787109"/>
      <use xlink:href="#DejaVuSans-6f" x="259.570312"/>
      <use xlink:href="#DejaVuSans-6e" x="320.751953"/>
     </g>
    </g>
   </g>
   <g id="line2d_37">
    <path d="M 73.832727 164.637652 
L 77.079273 165.329584 
L 80.325818 166.958639 
L 83.572364 153.672828 
L 86.818909 155.703031 
L 90.065455 156.386793 
L 93.312 161.743925 
L 96.558545 163.888004 
L 99.805091 192.368864 
L 103.051636 195.264947 
L 106.298182 193.092869 
L 109.544727 195.383172 
L 112.791273 195.339711 
L 116.037818 195.290355 
L 119.284364 195.271976 
L 122.530909 194.787183 
L 125.777455 165.303442 
L 129.024 165.312714 
L 132.270545 165.319367 
L 135.517091 165.321976 
L 138.763636 165.324585 
L 142.010182 165.325988 
L 145.256727 165.327082 
L 148.503273 165.328014 
L 151.749818 165.32851 
L 154.996364 165.328819 
L 158.242909 165.329016 
L 161.489455 165.329143 
L 164.736 165.329214 
L 167.982545 165.32926 
L 171.229091 165.329289 
L 174.475636 165.328677 
L 177.722182 165.328276 
L 180.968727 165.328106 
L 184.215273 165.3282 
L 187.461818 165.328568 
L 190.708364 165.32916 
L 193.954909 165.329863 
L 197.201455 165.330558 
L 200.448 165.331154 
L 203.694545 165.331605 
L 206.941091 165.331931 
L 210.187636 165.332163 
L 213.434182 165.332313 
L 216.680727 165.332419 
L 219.927273 165.332489 
L 223.173818 165.332534 
L 226.420364 165.332566 
L 229.666909 165.332592 
L 232.913455 165.332615 
L 236.16 165.332634 
L 239.406545 165.33265 
L 242.653091 165.332666 
L 245.899636 165.33268 
L 249.146182 165.332693 
L 252.392727 165.332705 
L 255.639273 165.332717 
L 258.885818 165.332728 
L 262.132364 165.332739 
L 265.378909 165.33275 
L 268.625455 165.332761 
L 271.872 165.335341 
L 275.118545 165.342444 
L 278.365091 165.355752 
L 281.611636 165.373926 
L 284.858182 165.388823 
L 288.104727 165.385909 
L 291.351273 165.351611 
L 294.597818 165.283172 
L 297.844364 165.189808 
L 301.090909 165.085307 
L 304.337455 164.983741 
L 307.584 164.895269 
L 310.830545 164.823724 
L 314.077091 164.768906 
L 317.323636 164.728735 
L 320.570182 164.700191 
L 323.816727 164.680549 
L 327.063273 164.66721 
L 330.309818 164.657779 
L 333.556364 164.651327 
L 336.802909 164.64716 
L 340.049455 164.645482 
L 343.296 164.644152 
L 346.542545 164.642821 
L 349.789091 164.641974 
L 353.035636 164.641375 
L 356.282182 164.640775 
L 359.528727 164.640409 
L 362.775273 164.640255 
L 366.021818 164.640101 
L 369.268364 164.639947 
L 372.514909 164.639793 
L 375.761455 164.639639 
L 379.008 164.639484 
L 382.254545 164.63933 
L 385.501091 164.639176 
L 388.747636 164.639022 
L 391.994182 164.638885 
L 395.240727 164.638782 
L 398.487273 164.63868 
" clip-path="url(#pca0d423324)" style="fill: none; stroke: #1f77b4; stroke-width: 1.5; stroke-linecap: square"/>
   </g>
   <g id="line2d_38">
    <path d="M 73.832727 164.632811 
L 77.079273 165.077362 
L 80.325818 165.175389 
L 83.572364 165.216919 
L 86.818909 165.239125 
L 90.065455 165.253148 
L 93.312 165.262787 
L 96.558545 165.270061 
L 99.805091 165.27573 
L 103.051636 165.280158 
L 106.298182 165.283776 
L 109.544727 165.28677 
L 112.791273 165.289358 
L 116.037818 165.291668 
L 119.284364 165.293747 
L 122.530909 165.295761 
L 125.777455 166.460939 
L 129.024 165.899102 
L 132.270545 165.42252 
L 135.517091 165.37985 
L 138.763636 165.33718 
L 142.010182 165.327241 
L 145.256727 165.325673 
L 148.503273 165.325636 
L 151.749818 165.326913 
L 154.996364 165.327811 
L 158.242909 165.328397 
L 161.489455 165.328777 
L 164.736 165.328988 
L 167.982545 165.329127 
L 171.229091 165.329215 
L 174.475636 165.329235 
L 177.722182 165.329262 
L 180.968727 165.329458 
L 184.215273 165.329892 
L 187.461818 165.330419 
L 190.708364 165.33109 
L 193.954909 165.331775 
L 197.201455 165.332431 
L 200.448 165.332961 
L 203.694545 165.333434 
L 206.941091 165.333887 
L 210.187636 165.334033 
L 213.434182 165.333825 
L 216.680727 165.333881 
L 219.927273 165.334737 
L 223.173818 165.335585 
L 226.420364 165.33584 
L 229.666909 165.335758 
L 232.913455 165.335452 
L 236.16 165.335159 
L 239.406545 165.335017 
L 242.653091 165.334939 
L 245.899636 165.334852 
L 249.146182 165.334773 
L 252.392727 165.334709 
L 255.639273 165.334651 
L 258.885818 165.334615 
L 262.132364 165.334583 
L 265.378909 165.334559 
L 268.625455 165.334542 
L 271.872 165.336276 
L 275.118545 165.342819 
L 278.365091 165.355621 
L 281.611636 165.373248 
L 284.858182 165.387957 
L 288.104727 165.385722 
L 291.351273 165.353399 
L 294.597818 165.287188 
L 297.844364 165.195437 
L 301.090909 165.09128 
L 304.337455 164.988794 
L 307.584 164.898587 
L 310.830545 164.824943 
L 314.077091 164.768062 
L 317.323636 164.726153 
L 320.570182 164.69627 
L 323.816727 164.675607 
L 327.063273 164.661702 
L 330.309818 164.651884 
L 333.556364 164.645098 
L 336.802909 164.640732 
L 340.049455 164.639072 
L 343.296 164.637784 
L 346.542545 164.636495 
L 349.789091 164.635715 
L 353.035636 164.635195 
L 356.282182 164.634675 
L 359.528727 164.63439 
L 362.775273 164.634317 
L 366.021818 164.634244 
L 369.268364 164.63417 
L 372.514909 164.634097 
L 375.761455 164.634024 
L 379.008 164.633951 
L 382.254545 164.633878 
L 385.501091 164.633805 
L 388.747636 164.633732 
L 391.994182 164.633676 
L 395.240727 164.633652 
L 398.487273 164.633629 
" clip-path="url(#pca0d423324)" style="fill: none; stroke: #ff7f0e; stroke-width: 1.5; stroke-linecap: square"/>
   </g>
   <g id="patch_15">
    <path d="M 57.6 197.46869 
L 57.6 151.58731 
" style="fill: none; stroke: #000000; stroke-width: 0.8; stroke-linejoin: miter; stroke-linecap: square"/>
   </g>
   <g id="patch_16">
    <path d="M 414.72 197.46869 
L 414.72 151.58731 
" style="fill: none; stroke: #000000; stroke-width: 0.8; stroke-linejoin: miter; stroke-linecap: square"/>
   </g>
   <g id="patch_17">
    <path d="M 57.6 197.46869 
L 414.72 197.46869 
" style="fill: none; stroke: #000000; stroke-width: 0.8; stroke-linejoin: miter; stroke-linecap: square"/>
   </g>
   <g id="patch_18">
    <path d="M 57.6 151.58731 
L 414.72 151.58731 
" style="fill: none; stroke: #000000; stroke-width: 0.8; stroke-linejoin: miter; stroke-linecap: square"/>
   </g>
   <g id="text_17">
    <!-- yA -->
    <g transform="translate(228.504375 145.58731)scale(0.12 -0.12)">
     <defs>
      <path id="DejaVuSans-41" d="M 2188 4044 
L 1331 1722 
L 3047 1722 
L 2188 4044 
z
M 1831 4666 
L 2547 4666 
L 4325 0 
L 3669 0 
L 3244 1197 
L 1141 1197 
L 716 0 
L 50 0 
L 1831 4666 
z
" transform="scale(0.015625)"/>
     </defs>
     <use xlink:href="#DejaVuSans-79"/>
     <use xlink:href="#DejaVuSans-41" x="59.179688"/>
    </g>
   </g>
   <g id="legend_3">
    <g id="patch_19">
     <path d="M 64.6 188.94356 
L 142.289062 188.94356 
Q 144.289062 188.94356 144.289062 186.94356 
L 144.289062 158.58731 
Q 144.289062 156.58731 142.289062 156.58731 
L 64.6 156.58731 
Q 62.6 156.58731 62.6 158.58731 
L 62.6 186.94356 
Q 62.6 188.94356 64.6 188.94356 
z
" style="fill: #ffffff; opacity: 0.8; stroke: #cccccc; stroke-linejoin: miter"/>
    </g>
    <g id="line2d_39">
     <path d="M 66.6 164.685748 
L 76.6 164.685748 
L 86.6 164.685748 
" style="fill: none; stroke: #1f77b4; stroke-width: 1.5; stroke-linecap: square"/>
    </g>
    <g id="text_18">
     <!-- yA0 (in) -->
     <g transform="translate(94.6 168.185748)scale(0.1 -0.1)">
      <use xlink:href="#DejaVuSans-79"/>
      <use xlink:href="#DejaVuSans-41" x="59.179688"/>
      <use xlink:href="#DejaVuSans-30" x="127.587891"/>
      <use xlink:href="#DejaVuSans-20" x="191.210938"/>
      <use xlink:href="#DejaVuSans-28" x="222.998047"/>
      <use xlink:href="#DejaVuSans-69" x="262.011719"/>
      <use xlink:href="#DejaVuSans-6e" x="289.794922"/>
      <use xlink:href="#DejaVuSans-29" x="353.173828"/>
     </g>
    </g>
    <g id="line2d_40">
     <path d="M 66.6 179.363873 
L 76.6 179.363873 
L 86.6 179.363873 
" style="fill: none; stroke: #ff7f0e; stroke-width: 1.5; stroke-linecap: square"/>
    </g>
    <g id="text_19">
     <!-- yAL (out) -->
     <g transform="translate(94.6 182.863873)scale(0.1 -0.1)">
      <defs>
       <path id="DejaVuSans-4c" d="M 628 4666 
L 1259 4666 
L 1259 531 
L 3531 531 
L 3531 0 
L 628 0 
L 628 4666 
z
" transform="scale(0.015625)"/>
      </defs>
      <use xlink:href="#DejaVuSans-79"/>
      <use xlink:href="#DejaVuSans-41" x="59.179688"/>
      <use xlink:href="#DejaVuSans-4c" x="127.587891"/>
      <use xlink:href="#DejaVuSans-20" x="183.300781"/>
      <use xlink:href="#DejaVuSans-28" x="215.087891"/>
      <use xlink:href="#DejaVuSans-6f" x="254.101562"/>
      <use xlink:href="#DejaVuSans-75" x="315.283203"/>
      <use xlink:href="#DejaVuSans-74" x="378.662109"/>
      <use xlink:href="#DejaVuSans-29" x="417.871094"/>
     </g>
    </g>
   </g>
  </g>
  <g id="axes_4">
   <g id="patch_20">
    <path d="M 57.6 252.526345 
L 414.72 252.526345 
L 414.72 206.644966 
L 57.6 206.644966 
z
" style="fill: #ffffff"/>
   </g>
   <g id="matplotlib.axis_7">
    <g id="xtick_19">
     <g id="line2d_41">
      <g>
       <use xlink:href="#mb57396399a" x="73.832727" y="252.526345" style="stroke: #000000; stroke-width: 0.8"/>
      </g>
     </g>
    </g>
    <g id="xtick_20">
     <g id="line2d_42">
      <g>
       <use xlink:href="#mb57396399a" x="138.763636" y="252.526345" style="stroke: #000000; stroke-width: 0.8"/>
      </g>
     </g>
    </g>
    <g id="xtick_21">
     <g id="line2d_43">
      <g>
       <use xlink:href="#mb57396399a" x="203.694545" y="252.526345" style="stroke: #000000; stroke-width: 0.8"/>
      </g>
     </g>
    </g>
    <g id="xtick_22">
     <g id="line2d_44">
      <g>
       <use xlink:href="#mb57396399a" x="268.625455" y="252.526345" style="stroke: #000000; stroke-width: 0.8"/>
      </g>
     </g>
    </g>
    <g id="xtick_23">
     <g id="line2d_45">
      <g>
       <use xlink:href="#mb57396399a" x="333.556364" y="252.526345" style="stroke: #000000; stroke-width: 0.8"/>
      </g>
     </g>
    </g>
    <g id="xtick_24">
     <g id="line2d_46">
      <g>
       <use xlink:href="#mb57396399a" x="398.487273" y="252.526345" style="stroke: #000000; stroke-width: 0.8"/>
      </g>
     </g>
    </g>
   </g>
   <g id="matplotlib.axis_8">
    <g id="ytick_7">
     <g id="line2d_47">
      <g>
       <use xlink:href="#m3981910ce6" x="57.6" y="239.870048" style="stroke: #000000; stroke-width: 0.8"/>
      </g>
     </g>
     <g id="text_20">
      <!-- 0.9000 -->
      <g transform="translate(15.609375 243.669267)scale(0.1 -0.1)">
       <use xlink:href="#DejaVuSans-30"/>
       <use xlink:href="#DejaVuSans-2e" x="63.623047"/>
       <use xlink:href="#DejaVuSans-39" x="95.410156"/>
       <use xlink:href="#DejaVuSans-30" x="159.033203"/>
       <use xlink:href="#DejaVuSans-30" x="222.65625"/>
       <use xlink:href="#DejaVuSans-30" x="286.279297"/>
      </g>
     </g>
    </g>
    <g id="ytick_8">
     <g id="line2d_48">
      <g>
       <use xlink:href="#m3981910ce6" x="57.6" y="209.637282" style="stroke: #000000; stroke-width: 0.8"/>
      </g>
     </g>
     <g id="text_21">
      <!-- 0.9005 -->
      <g transform="translate(15.609375 213.436501)scale(0.1 -0.1)">
       <use xlink:href="#DejaVuSans-30"/>
       <use xlink:href="#DejaVuSans-2e" x="63.623047"/>
       <use xlink:href="#DejaVuSans-39" x="95.410156"/>
       <use xlink:href="#DejaVuSans-30" x="159.033203"/>
       <use xlink:href="#DejaVuSans-30" x="222.65625"/>
       <use xlink:href="#DejaVuSans-35" x="286.279297"/>
      </g>
     </g>
    </g>
    <g id="text_22">
     <!-- fraction -->
     <g transform="translate(9.529687 248.791905)rotate(-90)scale(0.1 -0.1)">
      <use xlink:href="#DejaVuSans-66"/>
      <use xlink:href="#DejaVuSans-72" x="35.205078"/>
      <use xlink:href="#DejaVuSans-61" x="76.318359"/>
      <use xlink:href="#DejaVuSans-63" x="137.597656"/>
      <use xlink:href="#DejaVuSans-74" x="192.578125"/>
      <use xlink:href="#DejaVuSans-69" x="231.787109"/>
      <use xlink:href="#DejaVuSans-6f" x="259.570312"/>
      <use xlink:href="#DejaVuSans-6e" x="320.751953"/>
     </g>
    </g>
   </g>
   <g id="line2d_49">
    <path d="M 73.832727 240.214443 
L 77.079273 239.869772 
L 80.325818 238.415458 
L 83.572364 250.440828 
L 86.818909 248.471456 
L 90.065455 247.841675 
L 93.312 242.86893 
L 96.558545 240.638202 
L 99.805091 211.107684 
L 103.051636 208.852502 
L 106.298182 211.25951 
L 109.544727 208.730483 
L 112.791273 208.780484 
L 116.037818 208.838062 
L 119.284364 208.859373 
L 122.530909 209.359191 
L 125.777455 239.868596 
L 129.024 239.870406 
L 132.270545 239.870282 
L 135.517091 239.87022 
L 138.763636 239.870159 
L 142.010182 239.870126 
L 145.256727 239.870101 
L 148.503273 239.870079 
L 151.749818 239.870067 
L 154.996364 239.87006 
L 158.242909 239.870055 
L 161.489455 239.870052 
L 164.736 239.870051 
L 167.982545 239.870049 
L 171.229091 239.870049 
L 174.475636 239.870073 
L 177.722182 239.870122 
L 180.968727 239.870221 
L 184.215273 239.870398 
L 187.461818 239.870671 
L 190.708364 239.871033 
L 193.954909 239.871445 
L 197.201455 239.871857 
L 200.448 239.872225 
L 203.694545 239.872519 
L 206.941091 239.872742 
L 210.187636 239.872907 
L 213.434182 239.87302 
L 216.680727 239.8731 
L 219.927273 239.873153 
L 223.173818 239.873186 
L 226.420364 239.873207 
L 229.666909 239.873221 
L 232.913455 239.87323 
L 236.16 239.873236 
L 239.406545 239.87324 
L 242.653091 239.873242 
L 245.899636 239.873244 
L 249.146182 239.873245 
L 252.392727 239.873244 
L 255.639273 239.873244 
L 258.885818 239.873244 
L 262.132364 239.873244 
L 265.378909 239.873243 
L 268.625455 239.873243 
L 271.872 239.874134 
L 275.118545 239.877902 
L 278.365091 239.886834 
L 281.611636 239.903852 
L 284.858182 239.931157 
L 288.104727 239.968252 
L 291.351273 240.011269 
L 294.597818 240.055008 
L 297.844364 240.094661 
L 301.090909 240.127872 
L 304.337455 240.153829 
L 307.584 240.172979 
L 310.830545 240.186508 
L 314.077091 240.195811 
L 317.323636 240.202082 
L 320.570182 240.206244 
L 323.816727 240.20899 
L 327.063273 240.210831 
L 330.309818 240.21196 
L 333.556364 240.212653 
L 336.802909 240.213152 
L 340.049455 240.21335 
L 343.296 240.21351 
L 346.542545 240.213669 
L 349.789091 240.213771 
L 353.035636 240.213843 
L 356.282182 240.213916 
L 359.528727 240.213962 
L 362.775273 240.213985 
L 366.021818 240.214008 
L 369.268364 240.214031 
L 372.514909 240.214053 
L 375.761455 240.214076 
L 379.008 240.214099 
L 382.254545 240.214122 
L 385.501091 240.214145 
L 388.747636 240.214167 
L 391.994182 240.214188 
L 395.240727 240.214205 
L 398.487273 240.214223 
" clip-path="url(#pbb891abcf9)" style="fill: none; stroke: #1f77b4; stroke-width: 1.5; stroke-linecap: square"/>
   </g>
   <g id="line2d_50">
    <path d="M 73.832727 240.216607 
L 77.079273 239.981292 
L 80.325818 239.934962 
L 83.572364 239.915766 
L 86.818909 239.905644 
L 90.065455 239.899305 
L 93.312 239.894966 
L 96.558545 239.891696 
L 99.805091 239.889147 
L 103.051636 239.887153 
L 106.298182 239.885517 
L 109.544727 239.884155 
L 112.791273 239.882966 
L 116.037818 239.881892 
L 119.284364 239.880911 
L 122.530909 239.879955 
L 125.777455 238.467922 
L 129.024 239.210032 
L 132.270545 239.743083 
L 135.517091 239.795352 
L 138.763636 239.847622 
L 142.010182 239.862167 
L 145.256727 239.867064 
L 148.503273 239.869897 
L 151.749818 239.870072 
L 154.996364 239.870079 
L 158.242909 239.870069 
L 161.489455 239.870061 
L 164.736 239.870056 
L 167.982545 239.870053 
L 171.229091 239.870051 
L 174.475636 239.870062 
L 177.722182 239.870116 
L 180.968727 239.870212 
L 184.215273 239.870359 
L 187.461818 239.87063 
L 190.708364 239.870992 
L 193.954909 239.871416 
L 197.201455 239.871879 
L 200.448 239.872286 
L 203.694545 239.87244 
L 206.941091 239.872429 
L 210.187636 239.872796 
L 213.434182 239.873544 
L 216.680727 239.873465 
L 219.927273 239.87166 
L 223.173818 239.869995 
L 226.420364 239.86985 
L 229.666909 239.870854 
L 232.913455 239.871596 
L 236.16 239.872154 
L 239.406545 239.872653 
L 242.653091 239.872932 
L 245.899636 239.873131 
L 249.146182 239.873318 
L 252.392727 239.873265 
L 255.639273 239.873208 
L 258.885818 239.873163 
L 262.132364 239.873124 
L 265.378909 239.873095 
L 268.625455 239.873076 
L 271.872 239.873938 
L 275.118545 239.877636 
L 278.365091 239.886368 
L 281.611636 239.902958 
L 284.858182 239.929548 
L 288.104727 239.965744 
L 291.351273 240.008341 
L 294.597818 240.052142 
L 297.844364 240.092357 
L 301.090909 240.126417 
L 304.337455 240.153279 
L 307.584 240.173284 
L 310.830545 240.187527 
L 314.077091 240.197359 
L 317.323636 240.204008 
L 320.570182 240.208435 
L 323.816727 240.211316 
L 327.063273 240.213254 
L 330.309818 240.214463 
L 333.556364 240.215217 
L 336.802909 240.215714 
L 340.049455 240.215897 
L 343.296 240.21604 
L 346.542545 240.216183 
L 349.789091 240.216266 
L 353.035636 240.21632 
L 356.282182 240.216374 
L 359.528727 240.216403 
L 362.775273 240.216408 
L 366.021818 240.216414 
L 369.268364 240.216419 
L 372.514909 240.216425 
L 375.761455 240.216431 
L 379.008 240.216436 
L 382.254545 240.216442 
L 385.501091 240.216448 
L 388.747636 240.216453 
L 391.994182 240.216457 
L 395.240727 240.216458 
L 398.487273 240.216459 
" clip-path="url(#pbb891abcf9)" style="fill: none; stroke: #ff7f0e; stroke-width: 1.5; stroke-linecap: square"/>
   </g>
   <g id="patch_21">
    <path d="M 57.6 252.526345 
L 57.6 206.644966 
" style="fill: none; stroke: #000000; stroke-width: 0.8; stroke-linejoin: miter; stroke-linecap: square"/>
   </g>
   <g id="patch_22">
    <path d="M 414.72 252.526345 
L 414.72 206.644966 
" style="fill: none; stroke: #000000; stroke-width: 0.8; stroke-linejoin: miter; stroke-linecap: square"/>
   </g>
   <g id="patch_23">
    <path d="M 57.6 252.526345 
L 414.72 252.526345 
" style="fill: none; stroke: #000000; stroke-width: 0.8; stroke-linejoin: miter; stroke-linecap: square"/>
   </g>
   <g id="patch_24">
    <path d="M 57.6 206.644966 
L 414.72 206.644966 
" style="fill: none; stroke: #000000; stroke-width: 0.8; stroke-linejoin: miter; stroke-linecap: square"/>
   </g>
   <g id="text_23">
    <!-- yB -->
    <g transform="translate(228.492188 200.644966)scale(0.12 -0.12)">
     <defs>
      <path id="DejaVuSans-42" d="M 1259 2228 
L 1259 519 
L 2272 519 
Q 2781 519 3026 730 
Q 3272 941 3272 1375 
Q 3272 1813 3026 2020 
Q 2781 2228 2272 2228 
L 1259 2228 
z
M 1259 4147 
L 1259 2741 
L 2194 2741 
Q 2656 2741 2882 2914 
Q 3109 3088 3109 3444 
Q 3109 3797 2882 3972 
Q 2656 4147 2194 4147 
L 1259 4147 
z
M 628 4666 
L 2241 4666 
Q 2963 4666 3353 4366 
Q 3744 4066 3744 3513 
Q 3744 3084 3544 2831 
Q 3344 2578 2956 2516 
Q 3422 2416 3680 2098 
Q 3938 1781 3938 1306 
Q 3938 681 3513 340 
Q 3088 0 2303 0 
L 628 0 
L 628 4666 
z
" transform="scale(0.015625)"/>
     </defs>
     <use xlink:href="#DejaVuSans-79"/>
     <use xlink:href="#DejaVuSans-42" x="59.179688"/>
    </g>
   </g>
   <g id="legend_4">
    <g id="patch_25">
     <path d="M 64.6 244.001216 
L 142.309375 244.001216 
Q 144.309375 244.001216 144.309375 242.001216 
L 144.309375 213.644966 
Q 144.309375 211.644966 142.309375 211.644966 
L 64.6 211.644966 
Q 62.6 211.644966 62.6 213.644966 
L 62.6 242.001216 
Q 62.6 244.001216 64.6 244.001216 
z
" style="fill: #ffffff; opacity: 0.8; stroke: #cccccc; stroke-linejoin: miter"/>
    </g>
    <g id="line2d_51">
     <path d="M 66.6 219.743403 
L 76.6 219.743403 
L 86.6 219.743403 
" style="fill: none; stroke: #1f77b4; stroke-width: 1.5; stroke-linecap: square"/>
    </g>
    <g id="text_24">
     <!-- yB0 (in) -->
     <g transform="translate(94.6 223.243403)scale(0.1 -0.1)">
      <use xlink:href="#DejaVuSans-79"/>
      <use xlink:href="#DejaVuSans-42" x="59.179688"/>
      <use xlink:href="#DejaVuSans-30" x="127.783203"/>
      <use xlink:href="#DejaVuSans-20" x="191.40625"/>
      <use xlink:href="#DejaVuSans-28" x="223.193359"/>
      <use xlink:href="#DejaVuSans-69" x="262.207031"/>
      <use xlink:href="#DejaVuSans-6e" x="289.990234"/>
      <use xlink:href="#DejaVuSans-29" x="353.369141"/>
     </g>
    </g>
    <g id="line2d_52">
     <path d="M 66.6 234.421528 
L 76.6 234.421528 
L 86.6 234.421528 
" style="fill: none; stroke: #ff7f0e; stroke-width: 1.5; stroke-linecap: square"/>
    </g>
    <g id="text_25">
     <!-- yBL (out) -->
     <g transform="translate(94.6 237.921528)scale(0.1 -0.1)">
      <use xlink:href="#DejaVuSans-79"/>
      <use xlink:href="#DejaVuSans-42" x="59.179688"/>
      <use xlink:href="#DejaVuSans-4c" x="127.783203"/>
      <use xlink:href="#DejaVuSans-20" x="183.496094"/>
      <use xlink:href="#DejaVuSans-28" x="215.283203"/>
      <use xlink:href="#DejaVuSans-6f" x="254.296875"/>
      <use xlink:href="#DejaVuSans-75" x="315.478516"/>
      <use xlink:href="#DejaVuSans-74" x="378.857422"/>
      <use xlink:href="#DejaVuSans-29" x="418.066406"/>
     </g>
    </g>
   </g>
  </g>
  <g id="axes_5">
   <g id="patch_26">
    <path d="M 57.6 307.584 
L 414.72 307.584 
L 414.72 261.702621 
L 57.6 261.702621 
z
" style="fill: #ffffff"/>
   </g>
   <g id="matplotlib.axis_9">
    <g id="xtick_25">
     <g id="line2d_53">
      <g>
       <use xlink:href="#mb57396399a" x="73.832727" y="307.584" style="stroke: #000000; stroke-width: 0.8"/>
      </g>
     </g>
     <g id="text_26">
      <!-- 0 -->
      <g transform="translate(70.651477 322.182437)scale(0.1 -0.1)">
       <use xlink:href="#DejaVuSans-30"/>
      </g>
     </g>
    </g>
    <g id="xtick_26">
     <g id="line2d_54">
      <g>
       <use xlink:href="#mb57396399a" x="138.763636" y="307.584" style="stroke: #000000; stroke-width: 0.8"/>
      </g>
     </g>
     <g id="text_27">
      <!-- 20 -->
      <g transform="translate(132.401136 322.182437)scale(0.1 -0.1)">
       <defs>
        <path id="DejaVuSans-32" d="M 1228 531 
L 3431 531 
L 3431 0 
L 469 0 
L 469 531 
Q 828 903 1448 1529 
Q 2069 2156 2228 2338 
Q 2531 2678 2651 2914 
Q 2772 3150 2772 3378 
Q 2772 3750 2511 3984 
Q 2250 4219 1831 4219 
Q 1534 4219 1204 4116 
Q 875 4013 500 3803 
L 500 4441 
Q 881 4594 1212 4672 
Q 1544 4750 1819 4750 
Q 2544 4750 2975 4387 
Q 3406 4025 3406 3419 
Q 3406 3131 3298 2873 
Q 3191 2616 2906 2266 
Q 2828 2175 2409 1742 
Q 1991 1309 1228 531 
z
" transform="scale(0.015625)"/>
       </defs>
       <use xlink:href="#DejaVuSans-32"/>
       <use xlink:href="#DejaVuSans-30" x="63.623047"/>
      </g>
     </g>
    </g>
    <g id="xtick_27">
     <g id="line2d_55">
      <g>
       <use xlink:href="#mb57396399a" x="203.694545" y="307.584" style="stroke: #000000; stroke-width: 0.8"/>
      </g>
     </g>
     <g id="text_28">
      <!-- 40 -->
      <g transform="translate(197.332045 322.182437)scale(0.1 -0.1)">
       <use xlink:href="#DejaVuSans-34"/>
       <use xlink:href="#DejaVuSans-30" x="63.623047"/>
      </g>
     </g>
    </g>
    <g id="xtick_28">
     <g id="line2d_56">
      <g>
       <use xlink:href="#mb57396399a" x="268.625455" y="307.584" style="stroke: #000000; stroke-width: 0.8"/>
      </g>
     </g>
     <g id="text_29">
      <!-- 60 -->
      <g transform="translate(262.262955 322.182437)scale(0.1 -0.1)">
       <defs>
        <path id="DejaVuSans-36" d="M 2113 2584 
Q 1688 2584 1439 2293 
Q 1191 2003 1191 1497 
Q 1191 994 1439 701 
Q 1688 409 2113 409 
Q 2538 409 2786 701 
Q 3034 994 3034 1497 
Q 3034 2003 2786 2293 
Q 2538 2584 2113 2584 
z
M 3366 4563 
L 3366 3988 
Q 3128 4100 2886 4159 
Q 2644 4219 2406 4219 
Q 1781 4219 1451 3797 
Q 1122 3375 1075 2522 
Q 1259 2794 1537 2939 
Q 1816 3084 2150 3084 
Q 2853 3084 3261 2657 
Q 3669 2231 3669 1497 
Q 3669 778 3244 343 
Q 2819 -91 2113 -91 
Q 1303 -91 875 529 
Q 447 1150 447 2328 
Q 447 3434 972 4092 
Q 1497 4750 2381 4750 
Q 2619 4750 2861 4703 
Q 3103 4656 3366 4563 
z
" transform="scale(0.015625)"/>
       </defs>
       <use xlink:href="#DejaVuSans-36"/>
       <use xlink:href="#DejaVuSans-30" x="63.623047"/>
      </g>
     </g>
    </g>
    <g id="xtick_29">
     <g id="line2d_57">
      <g>
       <use xlink:href="#mb57396399a" x="333.556364" y="307.584" style="stroke: #000000; stroke-width: 0.8"/>
      </g>
     </g>
     <g id="text_30">
      <!-- 80 -->
      <g transform="translate(327.193864 322.182437)scale(0.1 -0.1)">
       <defs>
        <path id="DejaVuSans-38" d="M 2034 2216 
Q 1584 2216 1326 1975 
Q 1069 1734 1069 1313 
Q 1069 891 1326 650 
Q 1584 409 2034 409 
Q 2484 409 2743 651 
Q 3003 894 3003 1313 
Q 3003 1734 2745 1975 
Q 2488 2216 2034 2216 
z
M 1403 2484 
Q 997 2584 770 2862 
Q 544 3141 544 3541 
Q 544 4100 942 4425 
Q 1341 4750 2034 4750 
Q 2731 4750 3128 4425 
Q 3525 4100 3525 3541 
Q 3525 3141 3298 2862 
Q 3072 2584 2669 2484 
Q 3125 2378 3379 2068 
Q 3634 1759 3634 1313 
Q 3634 634 3220 271 
Q 2806 -91 2034 -91 
Q 1263 -91 848 271 
Q 434 634 434 1313 
Q 434 1759 690 2068 
Q 947 2378 1403 2484 
z
M 1172 3481 
Q 1172 3119 1398 2916 
Q 1625 2713 2034 2713 
Q 2441 2713 2670 2916 
Q 2900 3119 2900 3481 
Q 2900 3844 2670 4047 
Q 2441 4250 2034 4250 
Q 1625 4250 1398 4047 
Q 1172 3844 1172 3481 
z
" transform="scale(0.015625)"/>
       </defs>
       <use xlink:href="#DejaVuSans-38"/>
       <use xlink:href="#DejaVuSans-30" x="63.623047"/>
      </g>
     </g>
    </g>
    <g id="xtick_30">
     <g id="line2d_58">
      <g>
       <use xlink:href="#mb57396399a" x="398.487273" y="307.584" style="stroke: #000000; stroke-width: 0.8"/>
      </g>
     </g>
     <g id="text_31">
      <!-- 100 -->
      <g transform="translate(388.943523 322.182437)scale(0.1 -0.1)">
       <use xlink:href="#DejaVuSans-31"/>
       <use xlink:href="#DejaVuSans-30" x="63.623047"/>
       <use xlink:href="#DejaVuSans-30" x="127.246094"/>
      </g>
     </g>
    </g>
    <g id="text_32">
     <!-- time (normalized) -->
     <g transform="translate(191.589687 335.860562)scale(0.1 -0.1)">
      <use xlink:href="#DejaVuSans-74"/>
      <use xlink:href="#DejaVuSans-69" x="39.208984"/>
      <use xlink:href="#DejaVuSans-6d" x="66.992188"/>
      <use xlink:href="#DejaVuSans-65" x="164.404297"/>
      <use xlink:href="#DejaVuSans-20" x="225.927734"/>
      <use xlink:href="#DejaVuSans-28" x="257.714844"/>
      <use xlink:href="#DejaVuSans-6e" x="296.728516"/>
      <use xlink:href="#DejaVuSans-6f" x="360.107422"/>
      <use xlink:href="#DejaVuSans-72" x="421.289062"/>
      <use xlink:href="#DejaVuSans-6d" x="460.652344"/>
      <use xlink:href="#DejaVuSans-61" x="558.064453"/>
      <use xlink:href="#DejaVuSans-6c" x="619.34375"/>
      <use xlink:href="#DejaVuSans-69" x="647.126953"/>
      <use xlink:href="#DejaVuSans-7a" x="674.910156"/>
      <use xlink:href="#DejaVuSans-65" x="727.400391"/>
      <use xlink:href="#DejaVuSans-64" x="788.923828"/>
      <use xlink:href="#DejaVuSans-29" x="852.400391"/>
     </g>
    </g>
   </g>
   <g id="matplotlib.axis_10">
    <g id="ytick_9">
     <g id="line2d_59">
      <g>
       <use xlink:href="#m3981910ce6" x="57.6" y="305.849494" style="stroke: #000000; stroke-width: 0.8"/>
      </g>
     </g>
     <g id="text_33">
      <!-- 0.0495 -->
      <g transform="translate(15.609375 309.648712)scale(0.1 -0.1)">
       <use xlink:href="#DejaVuSans-30"/>
       <use xlink:href="#DejaVuSans-2e" x="63.623047"/>
       <use xlink:href="#DejaVuSans-30" x="95.410156"/>
       <use xlink:href="#DejaVuSans-34" x="159.033203"/>
       <use xlink:href="#DejaVuSans-39" x="222.65625"/>
       <use xlink:href="#DejaVuSans-35" x="286.279297"/>
      </g>
     </g>
    </g>
    <g id="ytick_10">
     <g id="line2d_60">
      <g>
       <use xlink:href="#m3981910ce6" x="57.6" y="274.331339" style="stroke: #000000; stroke-width: 0.8"/>
      </g>
     </g>
     <g id="text_34">
      <!-- 0.0500 -->
      <g transform="translate(15.609375 278.130558)scale(0.1 -0.1)">
       <use xlink:href="#DejaVuSans-30"/>
       <use xlink:href="#DejaVuSans-2e" x="63.623047"/>
       <use xlink:href="#DejaVuSans-30" x="95.410156"/>
       <use xlink:href="#DejaVuSans-35" x="159.033203"/>
       <use xlink:href="#DejaVuSans-30" x="222.65625"/>
       <use xlink:href="#DejaVuSans-30" x="286.279297"/>
      </g>
     </g>
    </g>
    <g id="text_35">
     <!-- fraction -->
     <g transform="translate(9.529687 303.84956)rotate(-90)scale(0.1 -0.1)">
      <use xlink:href="#DejaVuSans-66"/>
      <use xlink:href="#DejaVuSans-72" x="35.205078"/>
      <use xlink:href="#DejaVuSans-61" x="76.318359"/>
      <use xlink:href="#DejaVuSans-63" x="137.597656"/>
      <use xlink:href="#DejaVuSans-74" x="192.578125"/>
      <use xlink:href="#DejaVuSans-69" x="231.787109"/>
      <use xlink:href="#DejaVuSans-6f" x="259.570312"/>
      <use xlink:href="#DejaVuSans-6e" x="320.751953"/>
     </g>
    </g>
   </g>
   <g id="line2d_61">
    <path d="M 73.832727 273.990229 
L 77.079273 274.331621 
L 80.325818 275.781498 
L 83.572364 263.788138 
L 86.818909 265.755971 
L 90.065455 266.384374 
L 93.312 271.347354 
L 96.558545 273.580287 
L 99.805091 303.13753 
L 103.051636 305.376366 
L 106.298182 302.96337 
L 109.544727 305.498483 
L 112.791273 305.448314 
L 116.037818 305.390526 
L 119.284364 305.36914 
L 122.530909 304.868939 
L 125.777455 274.333489 
L 129.024 274.331396 
L 132.270545 274.331354 
L 135.517091 274.33135 
L 138.763636 274.331346 
L 142.010182 274.331344 
L 145.256727 274.331342 
L 148.503273 274.331341 
L 151.749818 274.33134 
L 154.996364 274.33134 
L 158.242909 274.33134 
L 161.489455 274.33134 
L 164.736 274.33134 
L 167.982545 274.331339 
L 171.229091 274.331339 
L 174.475636 274.33133 
L 177.722182 274.331289 
L 180.968727 274.33119 
L 184.215273 274.331004 
L 187.461818 274.33071 
L 190.708364 274.330317 
L 193.954909 274.329869 
L 197.201455 274.329421 
L 200.448 274.329023 
L 203.694545 274.328705 
L 206.941091 274.328464 
L 210.187636 274.328285 
L 213.434182 274.328164 
L 216.680727 274.328078 
L 219.927273 274.328021 
L 223.173818 274.327985 
L 226.420364 274.327962 
L 229.666909 274.327947 
L 232.913455 274.327937 
L 236.16 274.32793 
L 239.406545 274.327926 
L 242.653091 274.327923 
L 245.899636 274.327921 
L 249.146182 274.32792 
L 252.392727 274.32792 
L 255.639273 274.32792 
L 258.885818 274.32792 
L 262.132364 274.32792 
L 265.378909 274.32792 
L 268.625455 274.32792 
L 271.872 274.326924 
L 275.118545 274.322792 
L 278.365091 274.3131 
L 281.611636 274.294833 
L 284.858182 274.265957 
L 288.104727 274.227351 
L 291.351273 274.183376 
L 294.597818 274.139547 
L 297.844364 274.100627 
L 301.090909 274.06871 
L 304.337455 274.044282 
L 307.584 274.026615 
L 310.830545 274.014367 
L 314.077091 274.006088 
L 317.323636 274.00059 
L 320.570182 273.996991 
L 323.816727 273.994637 
L 327.063273 273.993061 
L 330.309818 273.992125 
L 333.556364 273.991567 
L 336.802909 273.991156 
L 340.049455 273.990993 
L 343.296 273.990862 
L 346.542545 273.99073 
L 349.789091 273.990646 
L 353.035636 273.990586 
L 356.282182 273.990526 
L 359.528727 273.990487 
L 362.775273 273.990468 
L 366.021818 273.990448 
L 369.268364 273.990428 
L 372.514909 273.990408 
L 375.761455 273.990389 
L 379.008 273.990369 
L 382.254545 273.990349 
L 385.501091 273.990329 
L 388.747636 273.99031 
L 391.994182 273.990291 
L 395.240727 273.990276 
L 398.487273 273.990261 
" clip-path="url(#p4050ffed0e)" style="fill: none; stroke: #1f77b4; stroke-width: 1.5; stroke-linecap: square"/>
   </g>
   <g id="line2d_62">
    <path d="M 73.832727 273.988099 
L 77.079273 274.221896 
L 80.325818 274.267655 
L 83.572364 274.286591 
L 86.818909 274.296568 
L 90.065455 274.302813 
L 93.312 274.307087 
L 96.558545 274.310307 
L 99.805091 274.312818 
L 103.051636 274.314782 
L 106.298182 274.316393 
L 109.544727 274.317735 
L 112.791273 274.318907 
L 116.037818 274.319964 
L 119.284364 274.320931 
L 122.530909 274.321874 
L 125.777455 275.740354 
L 129.024 274.99365 
L 132.270545 274.459165 
L 135.517091 274.406651 
L 138.763636 274.354137 
L 142.010182 274.339474 
L 145.256727 274.334492 
L 148.503273 274.331589 
L 151.749818 274.331376 
L 154.996364 274.331346 
L 158.242909 274.331341 
L 161.489455 274.33134 
L 164.736 274.33134 
L 167.982545 274.33134 
L 171.229091 274.33134 
L 174.475636 274.331329 
L 177.722182 274.331284 
L 180.968727 274.331183 
L 184.215273 274.331001 
L 187.461818 274.330706 
L 190.708364 274.330312 
L 193.954909 274.329863 
L 197.201455 274.329413 
L 200.448 274.329013 
L 203.694545 274.328703 
L 206.941091 274.328474 
L 210.187636 274.328287 
L 213.434182 274.328138 
L 216.680727 274.32806 
L 219.927273 274.32808 
L 223.173818 274.328107 
L 226.420364 274.3281 
L 229.666909 274.328078 
L 232.913455 274.328046 
L 236.16 274.328018 
L 239.406545 274.328 
L 242.653091 274.327989 
L 245.899636 274.32798 
L 249.146182 274.327972 
L 252.392727 274.327969 
L 255.639273 274.327967 
L 258.885818 274.327965 
L 262.132364 274.327963 
L 265.378909 274.327962 
L 268.625455 274.32796 
L 271.872 274.327004 
L 275.118545 274.322972 
L 278.365091 274.313533 
L 281.611636 274.295779 
L 284.858182 274.267675 
L 288.104727 274.229998 
L 291.351273 274.186426 
L 294.597818 274.142478 
L 297.844364 274.102929 
L 301.090909 274.070119 
L 304.337455 274.04477 
L 307.584 274.026251 
L 310.830545 274.01331 
L 314.077091 274.004533 
L 317.323636 273.998687 
L 320.570182 273.994845 
L 323.816727 273.992377 
L 327.063273 273.990717 
L 330.309818 273.989711 
L 333.556364 273.9891 
L 336.802909 273.988695 
L 340.049455 273.988546 
L 343.296 273.988431 
L 346.542545 273.988315 
L 349.789091 273.988248 
L 353.035636 273.988205 
L 356.282182 273.988162 
L 359.528727 273.98814 
L 362.775273 273.988136 
L 366.021818 273.988131 
L 369.268364 273.988127 
L 372.514909 273.988123 
L 375.761455 273.988119 
L 379.008 273.988115 
L 382.254545 273.988111 
L 385.501091 273.988106 
L 388.747636 273.988102 
L 391.994182 273.988099 
L 395.240727 273.988099 
L 398.487273 273.988099 
" clip-path="url(#p4050ffed0e)" style="fill: none; stroke: #ff7f0e; stroke-width: 1.5; stroke-linecap: square"/>
   </g>
   <g id="patch_27">
    <path d="M 57.6 307.584 
L 57.6 261.702621 
" style="fill: none; stroke: #000000; stroke-width: 0.8; stroke-linejoin: miter; stroke-linecap: square"/>
   </g>
   <g id="patch_28">
    <path d="M 414.72 307.584 
L 414.72 261.702621 
" style="fill: none; stroke: #000000; stroke-width: 0.8; stroke-linejoin: miter; stroke-linecap: square"/>
   </g>
   <g id="patch_29">
    <path d="M 57.6 307.584 
L 414.72 307.584 
" style="fill: none; stroke: #000000; stroke-width: 0.8; stroke-linejoin: miter; stroke-linecap: square"/>
   </g>
   <g id="patch_30">
    <path d="M 57.6 261.702621 
L 414.72 261.702621 
" style="fill: none; stroke: #000000; stroke-width: 0.8; stroke-linejoin: miter; stroke-linecap: square"/>
   </g>
   <g id="text_36">
    <!-- yC -->
    <g transform="translate(228.419062 255.702621)scale(0.12 -0.12)">
     <defs>
      <path id="DejaVuSans-43" d="M 4122 4306 
L 4122 3641 
Q 3803 3938 3442 4084 
Q 3081 4231 2675 4231 
Q 1875 4231 1450 3742 
Q 1025 3253 1025 2328 
Q 1025 1406 1450 917 
Q 1875 428 2675 428 
Q 3081 428 3442 575 
Q 3803 722 4122 1019 
L 4122 359 
Q 3791 134 3420 21 
Q 3050 -91 2638 -91 
Q 1578 -91 968 557 
Q 359 1206 359 2328 
Q 359 3453 968 4101 
Q 1578 4750 2638 4750 
Q 3056 4750 3426 4639 
Q 3797 4528 4122 4306 
z
" transform="scale(0.015625)"/>
     </defs>
     <use xlink:href="#DejaVuSans-79"/>
     <use xlink:href="#DejaVuSans-43" x="59.179688"/>
    </g>
   </g>
   <g id="legend_5">
    <g id="patch_31">
     <path d="M 64.6 299.058871 
L 142.43125 299.058871 
Q 144.43125 299.058871 144.43125 297.058871 
L 144.43125 268.702621 
Q 144.43125 266.702621 142.43125 266.702621 
L 64.6 266.702621 
Q 62.6 266.702621 62.6 268.702621 
L 62.6 297.058871 
Q 62.6 299.058871 64.6 299.058871 
z
" style="fill: #ffffff; opacity: 0.8; stroke: #cccccc; stroke-linejoin: miter"/>
    </g>
    <g id="line2d_63">
     <path d="M 66.6 274.801058 
L 76.6 274.801058 
L 86.6 274.801058 
" style="fill: none; stroke: #1f77b4; stroke-width: 1.5; stroke-linecap: square"/>
    </g>
    <g id="text_37">
     <!-- yC0 (in) -->
     <g transform="translate(94.6 278.301058)scale(0.1 -0.1)">
      <use xlink:href="#DejaVuSans-79"/>
      <use xlink:href="#DejaVuSans-43" x="59.179688"/>
      <use xlink:href="#DejaVuSans-30" x="129.003906"/>
      <use xlink:href="#DejaVuSans-20" x="192.626953"/>
      <use xlink:href="#DejaVuSans-28" x="224.414062"/>
      <use xlink:href="#DejaVuSans-69" x="263.427734"/>
      <use xlink:href="#DejaVuSans-6e" x="291.210938"/>
      <use xlink:href="#DejaVuSans-29" x="354.589844"/>
     </g>
    </g>
    <g id="line2d_64">
     <path d="M 66.6 289.479183 
L 76.6 289.479183 
L 86.6 289.479183 
" style="fill: none; stroke: #ff7f0e; stroke-width: 1.5; stroke-linecap: square"/>
    </g>
    <g id="text_38">
     <!-- yCL (out) -->
     <g transform="translate(94.6 292.979183)scale(0.1 -0.1)">
      <use xlink:href="#DejaVuSans-79"/>
      <use xlink:href="#DejaVuSans-43" x="59.179688"/>
      <use xlink:href="#DejaVuSans-4c" x="129.003906"/>
      <use xlink:href="#DejaVuSans-20" x="184.716797"/>
      <use xlink:href="#DejaVuSans-28" x="216.503906"/>
      <use xlink:href="#DejaVuSans-6f" x="255.517578"/>
      <use xlink:href="#DejaVuSans-75" x="316.699219"/>
      <use xlink:href="#DejaVuSans-74" x="380.078125"/>
      <use xlink:href="#DejaVuSans-29" x="419.287109"/>
     </g>
    </g>
   </g>
  </g>
 </g>
 <defs>
  <clipPath id="p00e6a3e2b8">
   <rect x="57.6" y="41.472" width="357.12" height="45.881379"/>
  </clipPath>
  <clipPath id="pb5f2a487f3">
   <rect x="57.6" y="96.529655" width="357.12" height="45.881379"/>
  </clipPath>
  <clipPath id="pca0d423324">
   <rect x="57.6" y="151.58731" width="357.12" height="45.881379"/>
  </clipPath>
  <clipPath id="pbb891abcf9">
   <rect x="57.6" y="206.644966" width="357.12" height="45.881379"/>
  </clipPath>
  <clipPath id="p4050ffed0e">
   <rect x="57.6" y="261.702621" width="357.12" height="45.881379"/>
  </clipPath>
 </defs>
</svg>
